<?xml version="1.0" encoding="utf-8" standalone="no"?>
<!DOCTYPE svg PUBLIC "-//W3C//DTD SVG 1.1//EN"
  "http://www.w3.org/Graphics/SVG/1.1/DTD/svg11.dtd">
<!-- Created with matplotlib (http://matplotlib.sourceforge.net/) -->
<svg height="420pt" version="1.1" viewBox="0 0 564 420" width="564pt" xmlns="http://www.w3.org/2000/svg" xmlns:xlink="http://www.w3.org/1999/xlink">
 <defs>
  <style type="text/css">
*{stroke-linecap:square;stroke-linejoin:round;}
  </style>
 </defs>
 <g id="figure_1">
  <g id="patch_1">
   <path d="
M0 420.125
L564.611 420.125
L564.611 0
L0 0
z
" style="fill:#ffffff;"/>
  </g>
  <g id="axes_1">
   <g id="patch_2">
    <path d="
M64.7562 404.965
L557.411 404.965
L557.411 7.2
L64.7562 7.2
z
" style="fill:#ffffff;"/>
   </g>
   <g id="line2d_1">
    <path clip-path="url(#pdeabb097a7)" d="
M74.2304 181.834
L85.065 181.834
L85.065 181.834
L85.065 181.834
L98.7151 181.834
L98.7151 181.834
L98.7151 181.834
L107.706 181.834
L107.706 156.739
L119.784 156.739
L119.784 134.034
L124.248 134.034
L124.248 115.325
L131.416 115.325
L131.416 82.5059
L134.388 82.5059
L134.388 69.6744
L139.494 69.6744
L139.494 48.3432
L145.688 48.3432
L145.688 26.9139
L147.47 26.9139
L147.47 20.5406
L152.198 20.5406
L152.198 14.8493
L154.941 14.8493
L154.941 15.5871
L156.213 15.5871
L156.213 18.4823
L158.59 18.4823
L158.59 29.0097
L161.801 29.0097
L161.801 48.7792
L164.666 48.7792
L164.666 60.7538
L165.557 60.7538
L165.557 63.8062
L168.064 63.8062
L168.064 76.6687
L169.614 76.6687
L169.614 83.4594
L170.356 83.4594
L170.356 86.6188
L172.467 86.6188
L172.467 98.5551
L173.787 98.5551
L173.787 107.878
L175.652 107.878
L175.652 119.784
L177.952 119.784
L177.952 133.271
L179.031 133.271
L179.031 139.511
L179.555 139.511
L179.555 141.876
L180.574 141.876
L180.574 146.38
L181.068 146.38
L181.068 148.221
L182.031 148.221
L182.031 151.59
L185.153 151.59
L185.153 164.157
L185.981 164.157
L185.981 166.896
L187.178 166.896
L187.178 169.252
L187.565 169.252
L187.565 170.139
L189.422 170.139
L189.422 172.971
L189.778 172.971
L189.778 173.38
L190.819 173.38
L190.819 174.102
L192.469 174.046
L192.469 173.879
L193.412 173.879
L193.412 173.271
L194.62 173.304
L194.62 173.04
L196.057 173.04
L196.057 173.217
L196.336 173.217
L196.336 173.105
L198.718 173.2
L198.718 174.15
L200.196 174.15
L200.196 175.472
L200.671 175.472
L200.671 175.605
L202.048 175.559
L202.048 175.356
L203.357 175.445
L203.357 176.243
L203.988 176.243
L203.988 177.112
L204.605 177.112
L204.605 178.541
L205.208 178.541
L205.208 179.993
L205.406 179.993
L205.406 180.453
L205.991 180.453
L205.991 182.155
L206.374 182.155
L206.374 183.233
L206.563 183.233
L206.563 183.752
L207.491 183.752
L207.491 186.145
L208.739 186.145
L208.739 189.763
L209.084 189.763
L209.084 190.933
L209.256 190.933
L209.256 191.435
L209.595 191.435
L209.595 192.406
L210.75 192.406
L210.75 195.588
L211.23 195.588
L211.23 196.739
L212.011 196.739
L212.011 198.621
L212.165 198.621
L212.165 198.913
L212.469 198.913
L212.469 199.677
L212.92 199.677
L212.92 201.112
L213.509 201.112
L213.509 202.909
L213.942 202.909
L213.942 204.293
L214.368 204.293
L214.368 205.47
L214.649 205.47
L214.649 206.433
L215.064 206.433
L215.064 207.631
L215.608 207.631
L215.608 208.835
L215.876 208.835
L215.876 209.41
L216.404 209.41
L216.404 210.553
L217.05 210.553
L217.05 211.488
L217.177 211.488
L217.177 211.7
L217.804 211.7
L217.804 212.418
L217.928 212.418
L217.928 212.558
L218.296 212.558
L218.296 213.24
L218.538 213.24
L218.538 213.612
L218.897 213.612
L218.897 214.24
L219.369 214.24
L219.369 215.003
L219.602 215.003
L219.602 215.334
L219.718 215.334
L219.718 215.485
L219.948 215.485
L219.948 215.768
L220.626 215.768
L220.626 216.83
L221.068 216.83
L221.068 217.33
L221.287 217.33
L221.287 217.605
L221.719 217.605
L221.719 218.113
L221.932 218.113
L221.932 218.377
L222.249 218.377
L222.249 218.681
L222.872 218.681
L222.974 219.455
L223.878 219.455
L223.878 220.806
L224.173 220.806
L224.173 221.23
L224.657 221.23
L224.657 221.978
L224.943 221.978
L224.943 222.459
L225.227 222.459
L225.32 223.183
L225.6 223.183
L225.6 223.734
L226.059 223.734
L226.059 224.617
L226.331 224.617
L226.331 224.996
L226.6 224.996
L226.689 225.382
L226.954 225.382
L226.954 225.657
L227.217 225.657
L227.217 226.101
L227.391 226.101
L227.477 226.533
L227.99 226.533
L227.99 227.247
L228.41 227.247
L228.494 227.73
L229.712 227.703
L229.712 227.6
L230.106 227.633
L230.106 227.791
L230.418 227.791
L230.418 228.028
L230.801 228.028
L230.801 228.189
L231.775 228.143
L231.775 227.934
L231.994 227.934
L231.994 227.71
L232.212 227.71
L232.212 227.493
L232.642 227.408
L232.642 227.215
L232.996 227.167
L232.996 227.064
L233.275 227.064
L233.275 226.878
L233.894 226.807
L233.894 226.471
L234.231 226.471
L234.231 226.322
L234.63 226.322
L234.696 225.875
L235.024 225.875
L235.089 225.595
L235.218 225.595
L235.283 225.378
L235.603 225.378
L235.603 225.264
L237.686 225.202
L237.686 224.977
L238.037 224.915
L238.037 224.81
L238.555 224.754
L238.555 224.657
L239.008 224.572
L239.008 224.513
L240.534 224.595
L240.639 224.898
L240.797 224.898
L240.85 225.13
L241.11 225.13
L241.162 225.33
L241.572 225.422
L241.623 225.587
L241.876 225.587
L241.927 225.849
L242.077 225.849
L242.077 226.012
L242.523 226.012
L242.621 226.63
L242.768 226.699
L242.768 226.842
L242.914 226.842
L242.914 227.034
L243.059 227.034
L243.059 227.281
L243.251 227.281
L243.251 227.564
L243.394 227.564
L243.394 227.738
L243.536 227.738
L243.536 227.855
L244.052 227.855
L244.098 228.241
L244.512 228.327
L244.512 228.401
L244.875 228.498
L244.875 228.515
L245.804 228.543
L245.848 228.677
L245.978 228.677
L245.978 228.828
L246.236 228.828
L246.236 229.054
L246.449 229.054
L246.449 229.281
L246.828 229.281
L246.87 229.854
L247.078 229.934
L247.119 230.037
L247.326 230.116
L247.367 230.165
L249.266 230.225
L249.266 230.395
L249.456 230.395
L249.456 230.56
L249.721 230.56
L249.796 230.95
L250.019 231.055
L250.019 231.185
L250.168 231.185
L250.278 231.433
L250.388 231.433
L250.388 231.579
L250.607 231.579
L250.607 231.848
L250.788 231.848
L250.896 232.251
L251.004 232.323
L251.111 232.674
L251.324 232.674
L251.324 233.051
L251.535 233.051
L251.535 233.368
L251.675 233.368
L251.675 233.632
L251.884 233.632
L251.988 234.186
L252.057 234.186
L252.16 234.532
L252.297 234.532
L252.365 234.854
L252.5 234.854
L252.568 235.124
L252.803 235.124
L252.87 235.582
L252.97 235.582
L253.07 235.792
L253.464 235.9
L253.464 235.987
L253.789 235.987
L253.885 236.31
L254.363 236.376
L254.458 236.669
L254.801 236.749
L254.832 236.927
L255.11 237.008
L255.202 237.067
L257.29 237.157
L257.29 237.226
L257.46 237.226
L257.544 237.401
L258.856 237.512
L258.963 237.642
L259.174 237.706
L259.201 237.867
L259.332 237.867
L259.332 237.98
L259.515 237.98
L259.515 238.198
L259.645 238.198
L259.722 238.455
L259.877 238.455
L259.98 238.792
L260.107 238.792
L260.107 239.012
L260.259 239.012
L260.285 239.285
L260.486 239.285
L260.587 239.725
L260.662 239.809
L260.662 239.846
L260.786 239.846
L260.885 240.225
L261.107 240.225
L261.107 240.691
L261.399 240.691
L261.448 241.497
L261.52 241.497
L261.617 241.871
L261.809 241.871
L261.88 242.417
L261.975 242.417
L261.975 242.552
L262.165 242.552
L262.235 242.877
L262.469 242.977
L262.516 243.027
L262.655 243.027
L262.678 243.173
L262.931 243.173
L263.023 243.41
L263.431 243.512
L263.498 243.577
L263.81 243.664
L263.877 243.78
L264.097 243.836
L264.206 244.048
L264.811 244.138
L264.811 244.18
L265.381 244.27
L265.381 244.302
L265.919 244.374
L266.001 244.51
L266.164 244.536
L266.164 244.642
L266.306 244.642
L266.406 244.854
L266.547 244.898
L266.607 245.051
L266.726 245.154
L266.825 245.27
L266.964 245.381
L267.023 245.481
L267.121 245.481
L267.14 245.626
L267.238 245.626
L267.316 245.871
L267.49 245.931
L267.587 246.362
L267.702 246.362
L267.779 246.774
L267.836 246.852
L267.836 246.895
L267.988 246.895
L267.988 247.231
L268.12 247.231
L268.214 247.685
L268.29 247.685
L268.383 247.991
L268.551 247.991
L268.625 248.491
L268.717 248.491
L268.828 248.929
L268.901 248.929
L268.993 249.277
L269.102 249.277
L269.102 249.511
L269.229 249.511
L269.319 249.934
L269.391 250.027
L269.391 250.056
L269.642 250.056
L269.749 250.558
L269.855 250.64
L269.855 250.685
L269.978 250.685
L270.084 251.019
L270.189 251.019
L270.241 251.248
L270.345 251.248
L270.432 251.544
L270.604 251.544
L270.707 251.957
L270.844 251.957
L270.844 252.189
L271.065 252.189
L271.115 252.601
L271.216 252.601
L271.3 252.875
L271.4 252.875
L271.45 253.134
L271.517 253.134
L271.616 253.448
L271.798 253.448
L271.864 253.903
L271.962 253.903
L271.962 254.068
L272.19 254.068
L272.254 254.525
L272.351 254.599
L272.447 254.816
L272.544 254.816
L272.576 254.995
L272.671 254.995
L272.766 255.226
L272.909 255.246
L272.925 255.411
L273.05 255.411
L273.097 255.585
L273.253 255.585
L273.253 255.781
L273.378 255.781
L273.486 256.144
L273.701 256.223
L273.762 256.515
L273.854 256.515
L273.899 256.694
L273.99 256.796
L274.081 256.94
L274.202 256.991
L274.307 257.214
L274.396 257.31
L274.471 257.441
L274.575 257.441
L274.649 257.707
L274.752 257.785
L274.84 258.043
L274.957 258.043
L275.059 258.442
L275.19 258.493
L275.262 258.78
L275.392 258.879
L275.492 259.169
L275.692 259.233
L275.749 259.524
L275.918 259.605
L275.989 259.778
L276.115 259.778
L276.199 260.039
L276.324 260.14
L276.407 260.265
L276.531 260.358
L276.586 260.432
L276.709 260.432
L276.819 260.678
L276.955 260.739
L276.982 260.855
L277.265 260.951
L277.358 261.146
L277.663 261.25
L277.716 261.34
L277.991 261.434
L278.07 261.488
L278.341 261.581
L278.38 261.636
L278.648 261.678
L278.75 261.821
L279.015 261.912
L279.102 262.001
L279.252 262.098
L279.252 262.156
L279.438 262.156
L279.512 262.473
L279.622 262.564
L279.72 262.784
L279.83 262.784
L279.94 263.165
L280.012 263.165
L280.024 263.332
L280.133 263.332
L280.229 263.679
L280.372 263.74
L280.444 264.005
L280.527 264.005
L280.622 264.272
L280.763 264.272
L280.845 264.544
L280.974 264.592
L281.055 264.816
L281.194 264.858
L281.298 265.052
L281.436 265.159
L281.528 265.275
L281.664 265.335
L281.767 265.518
L281.936 265.603
L281.981 265.792
L282.115 265.792
L282.216 266.123
L282.304 266.216
L282.382 266.347
L282.547 266.347
L282.635 266.625
L282.777 266.684
L282.864 266.88
L282.962 266.984
L283.07 267.17
L283.156 267.259
L283.263 267.461
L283.349 267.536
L283.423 267.681
L283.508 267.681
L283.614 267.975
L283.709 267.975
L283.762 268.183
L283.835 268.28
L283.929 268.448
L284.075 268.448
L284.179 268.834
L284.292 268.921
L284.395 269.135
L284.487 269.135
L284.538 269.33
L284.661 269.33
L284.762 269.627
L284.843 269.627
L284.903 269.89
L284.974 269.89
L285.024 270.133
L285.094 270.133
L285.114 270.322
L285.263 270.322
L285.352 270.787
L285.422 270.851
L285.51 271.081
L285.569 271.184
L285.599 271.262
L285.706 271.262
L285.765 271.575
L285.853 271.575
L285.949 271.908
L286.123 271.983
L286.2 272.317
L286.286 272.373
L286.286 272.442
L286.439 272.442
L286.524 272.808
L286.609 272.91
L286.656 272.974
L286.769 273.079
L286.854 273.169
L286.975 273.192
L287.031 273.344
L287.17 273.344
L287.271 273.633
L287.391 273.743
L287.501 273.899
L287.583 274.001
L287.637 274.089
L287.737 274.175
L287.846 274.337
L288.088 274.443
L288.115 274.582
L288.302 274.69
L288.408 274.864
L288.566 274.966
L288.671 275.118
L288.802 275.203
L288.889 275.294
L289.045 275.401
L289.139 275.469
L289.293 275.568
L289.379 275.665
L289.599 275.769
L289.7 275.847
L289.851 275.933
L289.885 275.987
L290.184 276.088
L290.275 276.179
L290.431 276.277
L290.529 276.405
L290.716 276.487
L290.796 276.623
L290.933 276.694
L291.038 276.86
L291.157 276.959
L291.253 277.109
L291.364 277.128
L291.443 277.31
L291.608 277.42
L291.678 277.626
L291.787 277.727
L291.841 277.813
L291.95 277.916
L291.973 277.956
L292.135 278.06
L292.227 278.144
L292.554 278.254
L292.592 278.274
L292.862 278.35
L292.959 278.469
L293.085 278.57
L293.182 278.657
L293.439 278.763
L293.534 278.81
L293.752 278.912
L293.838 279.037
L293.982 279.148
L294.089 279.286
L294.217 279.389
L294.309 279.525
L294.43 279.621
L294.514 279.703
L294.64 279.807
L294.745 279.897
L294.981 279.997
L295.043 280.038
L295.262 280.143
L295.364 280.19
L295.689 280.292
L295.736 280.331
L295.99 280.437
L296.09 280.524
L296.347 280.628
L296.451 280.728
L296.621 280.815
L296.724 280.905
L297.014 281.005
L297.122 281.1
L297.376 281.208
L297.483 281.314
L297.677 281.415
L297.783 281.537
L297.988 281.638
L298.098 281.764
L298.227 281.863
L298.288 281.931
L298.416 281.996
L298.525 282.158
L298.688 282.263
L298.796 282.362
L299.004 282.459
L299.093 282.588
L299.276 282.668
L299.382 282.776
L299.592 282.885
L299.673 282.954
L299.863 283.062
L299.95 283.132
L300.223 283.243
L300.28 283.261
L300.696 283.342
L300.796 283.439
L301.061 283.543
L301.144 283.619
L301.313 283.717
L301.422 283.844
L301.519 283.944
L301.616 284.061
L301.734 284.149
L301.841 284.31
L301.985 284.4
L302.086 284.576
L302.223 284.678
L302.334 284.78
L302.464 284.857
L302.542 285.014
L302.62 285.121
L302.724 285.266
L302.848 285.352
L302.955 285.526
L303.068 285.61
L303.16 285.759
L303.276 285.814
L303.382 285.998
L303.538 286.104
L303.608 286.162
L303.956 286.271
L304.045 286.31
L304.435 286.406
L304.542 286.467
L304.944 286.57
L305.039 286.59
L305.966 286.693
L306.062 286.741
L306.388 286.843
L306.491 286.899
L306.71 287.006
L306.804 287.107
L307.011 287.211
L307.055 287.282
L307.195 287.364
L307.304 287.509
L307.448 287.604
L307.551 287.735
L307.681 287.824
L307.779 287.965
L307.899 288.074
L308.001 288.206
L308.085 288.309
L308.187 288.461
L308.292 288.543
L308.4 288.713
L308.53 288.821
L308.625 288.949
L308.712 289.013
L308.799 289.2
L308.901 289.278
L308.963 289.408
L309.081 289.497
L309.183 289.647
L309.276 289.697
L309.377 289.964
L309.461 290.065
L309.521 290.224
L309.605 290.328
L309.685 290.512
L309.757 290.609
L309.868 290.83
L309.947 290.926
L310.033 291.173
L310.092 291.265
L310.198 291.494
L310.256 291.605
L310.358 291.829
L310.427 291.934
L310.509 292.128
L310.57 292.195
L310.663 292.436
L310.743 292.485
L310.835 292.79
L310.911 292.876
L311.017 293.161
L311.085 293.161
L311.187 293.536
L311.274 293.644
L311.367 293.956
L311.42 294.003
L311.509 294.294
L311.568 294.382
L311.68 294.726
L311.731 294.819
L311.842 295.196
L311.919 295.271
L312.006 295.651
L312.061 295.74
L312.159 296.06
L312.203 296.147
L312.293 296.417
L312.337 296.495
L312.441 296.862
L312.52 296.964
L312.627 297.428
L312.681 297.428
L312.787 297.911
L312.837 298.009
L312.943 298.402
L312.988 298.467
L313.083 298.834
L313.122 298.929
L313.22 299.273
L313.272 299.34
L313.362 299.731
L313.407 299.797
L313.487 300.14
L313.522 300.14
L313.621 300.606
L313.673 300.71
L313.779 301.121
L313.82 301.221
L313.929 301.629
L313.98 301.735
L314.085 302.133
L314.145 302.133
L314.253 302.62
L314.313 302.689
L314.394 303.023
L314.437 303.023
L314.544 303.481
L314.593 303.555
L314.702 303.983
L314.742 303.983
L314.834 304.393
L314.88 304.393
L314.981 304.856
L315.06 304.947
L315.167 305.417
L315.235 305.491
L315.322 305.873
L315.371 305.873
L315.464 306.279
L315.512 306.336
L315.62 306.727
L315.665 306.746
L315.754 307.13
L315.798 307.13
L315.903 307.599
L315.944 307.63
L316.054 308.117
L316.085 308.197
L316.195 308.624
L316.251 308.699
L316.328 309.088
L316.363 309.088
L316.468 309.616
L316.502 309.726
L316.613 310.181
L316.65 310.229
L316.76 310.758
L316.79 310.804
L316.9 311.285
L316.942 311.384
L317.052 311.837
L317.091 311.848
L317.172 312.258
L317.214 312.366
L317.325 312.775
L317.367 312.869
L317.468 313.251
L317.51 313.362
L317.62 313.762
L317.661 313.839
L317.75 314.175
L317.797 314.264
L317.902 314.647
L317.952 314.717
L318.048 315.078
L318.086 315.161
L318.191 315.555
L318.234 315.605
L318.338 316.058
L318.381 316.058
L318.459 316.458
L318.493 316.458
L318.593 316.905
L318.63 316.991
L318.696 317.246
L318.747 317.246
L318.857 317.746
L318.899 317.754
L318.992 318.18
L319.046 318.288
L319.144 318.68
L319.194 318.773
L319.297 319.193
L319.336 319.277
L319.438 319.665
L319.494 319.665
L319.595 320.171
L319.637 320.274
L319.741 320.623
L319.782 320.718
L319.888 321.039
L319.937 321.134
L320.045 321.456
L320.094 321.541
L320.199 321.835
L320.26 321.944
L320.359 322.219
L320.407 322.277
L320.517 322.589
L320.575 322.68
L320.675 322.924
L320.739 323.029
L320.833 323.269
L320.883 323.36
L320.982 323.617
L321.032 323.698
L321.133 323.997
L321.185 324.093
L321.289 324.406
L321.332 324.509
L321.404 324.701
L321.456 324.701
L321.558 325.078
L321.624 325.183
L321.734 325.494
L321.802 325.599
L321.893 325.829
L321.961 325.933
L322.056 326.231
L322.124 326.307
L322.194 326.598
L322.236 326.598
L322.313 326.917
L322.363 327.021
L322.462 327.267
L322.526 327.361
L322.632 327.634
L322.695 327.724
L322.805 328.037
L322.864 328.13
L322.973 328.443
L323.024 328.523
L323.125 328.84
L323.168 328.84
L323.262 329.203
L323.312 329.312
L323.422 329.596
L323.472 329.707
L323.579 329.949
L323.633 330.059
L323.739 330.311
L323.81 330.418
L323.917 330.697
L323.987 330.801
L324.092 331.021
L324.162 331.124
L324.273 331.342
L324.342 331.43
L324.45 331.669
L324.539 331.754
L324.623 331.918
L324.719 332.019
L324.805 332.145
L324.902 332.225
L325.008 332.423
L325.097 332.532
L325.195 332.669
L325.296 332.773
L325.404 332.881
L325.567 332.984
L325.673 333.083
L325.845 333.186
L325.953 333.283
L326.092 333.393
L326.148 333.452
L326.341 333.553
L326.436 333.775
L326.541 333.775
L326.634 334.023
L326.741 334.023
L326.741 334.162
L326.861 334.162
L326.93 334.387
L327.038 334.387
L327.142 334.631
L327.324 334.718
L327.324 334.822
L327.441 334.822
L327.52 335.009
L327.72 335.082
L327.813 335.207
L328.012 335.28
L328.012 335.345
L328.214 335.417
L328.311 335.551
L328.505 335.641
L328.601 335.837
L328.719 335.837
L328.805 336.05
L328.904 336.05
L328.997 336.273
L329.095 336.273
L329.193 336.502
L329.39 336.604
L329.491 336.771
L329.703 336.863
L329.787 336.993
L329.983 337.063
L330.078 337.219
L330.282 337.287
L330.387 337.453
L330.573 337.535
L330.673 337.745
L330.791 337.745
L330.878 337.962
L331.066 338.071
L331.164 338.367
L331.259 338.367
L331.36 338.687
L331.457 338.687
L331.557 338.971
L331.655 338.971
L331.751 339.266
L331.85 339.266
L331.953 339.52
L332.16 339.617
L332.244 339.776
L332.457 339.883
L332.54 340.148
L332.641 340.148
L332.736 340.41
L332.868 340.41
L332.946 340.665
L333.036 340.665
L333.036 340.79
L333.151 340.79
L333.237 341.028
L333.344 341.028
L333.427 341.22
L333.635 341.309
L333.721 341.465
L333.925 341.57
L334.015 341.755
L334.218 341.833
L334.318 341.976
L334.522 342.052
L334.62 342.267
L334.806 342.368
L334.901 342.605
L335.099 342.705
L335.2 342.856
L335.397 342.953
L335.494 343.132
L335.693 343.235
L335.693 343.337
L335.9 343.446
L335.985 343.609
L336.19 343.71
L336.283 343.843
L336.481 343.911
L336.575 344.069
L336.781 344.165
L336.872 344.372
L336.98 344.372
L337.069 344.61
L337.168 344.61
L337.278 344.861
L337.462 344.958
L337.462 345.064
L337.575 345.064
L337.658 345.267
L337.875 345.373
L337.962 345.563
L338.158 345.622
L338.251 345.734
L339.631 345.836
L339.631 345.847
L340.024 345.957
L340.124 345.997
L340.522 346.107
L340.613 346.238
L340.811 346.303
L340.909 346.449
L341.041 346.449
L341.108 346.637
L341.324 346.729
L341.406 346.89
L341.626 346.981
L341.705 347.121
L341.893 347.182
L341.99 347.3
L342.187 347.366
L342.298 347.518
L342.495 347.577
L342.584 347.749
L342.779 347.82
L342.877 348.029
L342.976 348.029
L343.072 348.285
L343.172 348.285
L343.172 348.411
L343.283 348.411
L343.368 348.681
L343.466 348.681
L343.57 349.014
L343.666 349.014
L343.766 349.331
L343.861 349.331
L343.959 349.606
L344.064 349.606
L344.157 349.863
L344.261 349.863
L344.353 350.127
L344.451 350.127
L344.548 350.449
L344.649 350.449
L344.745 350.813
L344.847 350.813
L344.947 351.187
L345.048 351.187
L345.141 351.548
L345.239 351.548
L345.336 351.901
L345.438 351.901
L345.537 352.252
L345.639 352.252
L345.733 352.577
L345.83 352.577
L345.93 352.94
L346.026 352.94
L346.128 353.284
L346.23 353.284
L346.325 353.615
L346.421 353.615
L346.521 353.942
L346.627 353.942
L346.716 354.269
L346.815 354.269
L346.915 354.618
L347.01 354.618
L347.117 354.981
L347.214 354.981
L347.313 355.343
L347.404 355.343
L347.502 355.72
L347.603 355.72
L347.701 356.124
L347.805 356.124
L347.896 356.464
L348 356.464
L348.096 356.824
L348.195 356.824
L348.294 357.183
L348.392 357.183
L348.493 357.571
L348.591 357.571
L348.691 357.894
L348.783 357.894
L348.882 358.174
L348.98 358.174
L349.085 358.448
L349.275 358.551
L349.376 358.755
L349.571 358.854
L349.67 358.992
L349.968 359.101
L350.064 359.266
L350.267 359.355
L350.358 359.516
L350.556 359.598
L350.659 359.776
L350.849 359.864
L350.949 359.986
L351.342 360.093
L351.44 360.191
L351.639 360.274
L351.736 360.443
L351.938 360.541
L352.036 360.732
L352.129 360.732
L352.228 360.944
L352.429 361.048
L352.523 361.215
L352.722 361.304
L352.82 361.477
L353.017 361.54
L353.127 361.68
L353.605 361.784
L353.705 361.815
L354.495 361.704
L354.591 361.608
L354.89 361.531
L354.986 361.433
L355.187 361.366
L355.283 361.195
L355.481 361.099
L355.578 360.939
L355.773 360.878
L355.871 360.733
L356.07 360.646
L356.166 360.467
L356.364 360.379
L356.46 360.262
L356.759 360.16
L356.858 360.016
L357.063 359.951
L357.154 359.817
L357.346 359.758
L357.446 359.628
L357.642 359.549
L357.744 359.368
L357.94 359.279
L358.038 359.114
L358.233 359.026
L358.335 358.861
L358.532 358.761
L358.633 358.501
L358.731 358.501
L358.826 358.205
L358.924 358.205
L359.02 357.939
L359.122 357.939
L359.217 357.657
L359.318 357.657
L359.418 357.371
L359.515 357.371
L359.611 357
L359.709 357
L359.809 356.602
L359.908 356.602
L360.007 356.163
L360.114 356.163
L360.202 355.723
L360.3 355.723
L360.405 355.297
L360.496 355.297
L360.595 354.915
L360.694 354.915
L360.798 354.519
L360.898 354.519
L360.99 354.21
L361.097 354.21
L361.187 353.953
L361.285 353.953
L361.383 353.679
L361.481 353.679
L361.584 353.322
L361.68 353.322
L361.781 352.956
L361.882 352.956
L361.979 352.557
L362.073 352.557
L362.177 352.179
L362.273 352.179
L362.372 351.817
L362.465 351.817
L362.566 351.481
L362.664 351.481
L362.765 351.136
L362.86 351.136
L362.959 350.765
L363.058 350.765
L363.157 350.354
L363.256 350.354
L363.352 349.952
L363.452 349.952
L363.549 349.568
L363.647 349.568
L363.746 349.227
L363.845 349.227
L363.944 348.896
L364.048 348.896
L364.141 348.572
L364.241 348.572
L364.34 348.294
L364.437 348.294
L364.534 348.03
L364.632 348.03
L364.736 347.768
L364.93 347.683
L365.031 347.552
L365.621 347.469
L365.716 347.432
L366.996 347.335
L367.099 347.302
L369.162 347.194
L369.258 347.175
L369.755 347.078
L369.849 346.966
L370.146 346.86
L370.247 346.728
L370.44 346.655
L370.538 346.496
L370.737 346.407
L370.833 346.273
L371.326 346.166
L371.424 346.122
L371.818 346.014
L371.917 345.971
L372.704 346.069
L372.803 346.107
L374.38 346.028
L374.476 345.899
L374.674 345.827
L374.774 345.666
L374.969 345.608
L375.067 345.515
L375.362 345.448
L375.46 345.331
L375.66 345.221
L375.756 345.005
L375.953 344.894
L376.054 344.69
L376.251 344.597
L376.348 344.445
L376.544 344.353
L376.642 344.155
L376.74 344.155
L376.841 343.877
L376.938 343.877
L377.04 343.557
L377.138 343.557
L377.235 343.235
L377.331 343.235
L377.43 342.905
L377.529 342.905
L377.626 342.5
L377.726 342.5
L377.824 342.065
L377.922 342.065
L378.021 341.678
L378.119 341.678
L378.218 341.37
L378.315 341.37
L378.415 341.063
L378.513 341.063
L378.61 340.777
L378.711 340.777
L378.808 340.514
L378.907 340.514
L379.006 340.27
L379.103 340.27
L379.206 339.967
L379.3 339.967
L379.399 339.622
L379.497 339.622
L379.596 339.322
L379.694 339.322
L379.793 339.084
L379.891 339.084
L379.99 338.801
L380.087 338.801
L380.186 338.47
L380.285 338.47
L380.383 338.139
L380.482 338.139
L380.583 337.824
L380.678 337.824
L380.778 337.582
L380.875 337.582
L380.974 337.353
L381.171 337.254
L381.269 337.039
L381.468 336.941
L381.564 336.803
L381.764 336.732
L381.861 336.558
L382.058 336.468
L382.155 336.281
L382.352 336.189
L382.45 335.988
L382.55 335.988
L382.647 335.757
L382.844 335.658
L382.946 335.412
L383.041 335.412
L383.139 335.175
L383.238 335.175
L383.338 334.89
L383.435 334.89
L383.534 334.628
L383.633 334.628
L383.73 334.384
L383.829 334.384
L383.927 334.148
L384.124 334.045
L384.223 333.81
L384.321 333.81
L384.421 333.587
L384.616 333.495
L384.715 333.302
L384.914 333.196
L385.01 333.001
L385.207 332.895
L385.305 332.709
L385.502 332.643
L385.601 332.498
L385.798 332.408
L385.897 332.271
L386.093 332.214
L386.193 332.091
L386.487 331.991
L386.586 331.919
L386.98 331.829
L387.077 331.763
L387.471 331.681
L387.57 331.574
L388.064 331.472
L388.16 331.446
L388.849 331.338
L388.949 331.297
L389.738 331.386
L389.834 331.44
L390.23 331.538
L390.327 331.59
L390.819 331.697
L390.917 331.742
L392.1 331.848
L392.196 332.006
L392.393 332.094
L392.492 332.261
L392.691 332.347
L392.787 332.523
L392.984 332.597
L393.084 332.701
L393.379 332.785
L393.477 332.876
L393.773 332.969
L393.87 333.073
L394.069 333.137
L394.165 333.249
L394.362 333.302
L394.461 333.421
L394.756 333.513
L394.854 333.566
L395.25 333.659
L395.347 333.731
L395.543 333.786
L395.644 333.937
L395.839 334.015
L395.938 334.162
L396.134 334.252
L396.233 334.451
L396.43 334.541
L396.529 334.731
L396.725 334.83
L396.823 334.998
L397.021 335.076
L397.121 335.222
L397.513 335.331
L397.611 335.396
L399.481 335.285
L399.579 335.235
L401.45 335.327
L401.549 335.433
L401.745 335.497
L401.844 335.633
L402.041 335.697
L402.139 335.836
L402.336 335.905
L402.435 336.048
L402.632 336.122
L402.73 336.249
L403.32 336.355
L403.42 336.463
L403.617 336.534
L403.716 336.655
L403.913 336.728
L404.01 336.918
L404.207 337.017
L404.305 337.195
L404.502 337.292
L404.601 337.505
L404.699 337.505
L404.798 337.762
L404.896 337.762
L404.995 338.018
L405.093 338.018
L405.191 338.315
L405.29 338.315
L405.388 338.654
L405.486 338.654
L405.586 339.016
L405.685 339.016
L405.782 339.387
L405.88 339.387
L405.979 339.692
L406.078 339.692
L406.176 339.973
L406.274 339.973
L406.373 340.206
L406.471 340.206
L406.569 340.431
L406.67 340.431
L406.766 340.668
L406.865 340.668
L406.963 340.897
L407.16 341.004
L407.259 341.222
L407.455 341.329
L407.554 341.551
L407.653 341.551
L407.751 341.82
L407.849 341.82
L407.947 342.053
L408.145 342.16
L408.244 342.364
L408.44 342.444
L408.539 342.649
L408.637 342.649
L408.735 342.883
L408.833 342.883
L408.933 343.135
L409.03 343.135
L409.129 343.375
L409.227 343.375
L409.326 343.601
L409.523 343.708
L409.621 343.902
L409.818 343.964
L409.917 344.072
L410.113 344.133
L410.212 344.235
L410.605 344.328
L410.704 344.393
L411.294 344.499
L411.393 344.536
L411.985 344.61
L412.083 344.702
L412.279 344.757
L412.378 344.872
L412.575 344.956
L412.673 345.094
L412.872 345.171
L412.968 345.365
L413.165 345.459
L413.263 345.607
L413.46 345.68
L413.56 345.852
L413.756 345.927
L413.855 346.076
L414.051 346.14
L414.149 346.264
L414.347 346.343
L414.445 346.541
L414.642 346.643
L414.741 346.823
L414.937 346.918
L415.036 347.12
L415.134 347.12
L415.233 347.376
L415.331 347.376
L415.43 347.652
L415.528 347.652
L415.626 347.944
L415.725 347.944
L415.823 348.254
L415.921 348.254
L416.02 348.566
L416.12 348.566
L416.217 348.879
L416.316 348.879
L416.414 349.221
L416.512 349.221
L416.611 349.559
L416.71 349.559
L416.808 349.895
L416.906 349.895
L417.005 350.219
L417.103 350.219
L417.203 350.51
L417.3 350.51
L417.398 350.789
L417.497 350.789
L417.595 351.096
L417.693 351.096
L417.792 351.403
L417.891 351.403
L417.989 351.74
L418.088 351.74
L418.186 352.111
L418.284 352.111
L418.383 352.498
L418.481 352.498
L418.58 352.874
L418.678 352.874
L418.776 353.267
L418.875 353.267
L418.973 353.647
L419.072 353.647
L419.17 354.055
L419.27 354.055
L419.367 354.46
L419.466 354.46
L419.564 354.79
L419.663 354.79
L419.761 355.072
L419.86 355.072
L419.958 355.34
L420.057 355.34
L420.155 355.616
L420.253 355.616
L420.352 355.879
L420.45 355.879
L420.549 356.123
L420.648 356.123
L420.745 356.342
L420.844 356.342
L420.942 356.573
L421.041 356.573
L421.139 356.808
L421.238 356.808
L421.336 357.036
L421.533 357.135
L421.631 357.371
L421.73 357.371
L421.828 357.622
L421.927 357.622
L422.025 357.853
L422.222 357.95
L422.321 358.147
L422.517 358.244
L422.616 358.426
L422.813 358.514
L422.911 358.723
L423.108 358.818
L423.206 358.992
L423.305 358.992
L423.404 359.203
L423.6 359.298
L423.699 359.53
L423.797 359.53
L423.896 359.766
L423.994 359.766
L424.092 360.008
L424.191 360.008
L424.29 360.288
L424.388 360.288
L424.486 360.549
L424.585 360.549
L424.683 360.844
L424.782 360.844
L424.88 361.149
L424.978 361.149
L425.077 361.452
L425.176 361.452
L425.274 361.711
L425.373 361.711
L425.471 361.939
L425.668 362.04
L425.767 362.231
L425.865 362.231
L425.963 362.476
L426.062 362.476
L426.16 362.778
L426.258 362.778
L426.357 363.082
L426.455 363.082
L426.554 363.386
L426.652 363.386
L426.751 363.737
L426.849 363.737
L426.947 364.1
L427.046 364.1
L427.144 364.479
L427.243 364.479
L427.341 364.873
L427.44 364.873
L427.538 365.262
L427.637 365.262
L427.735 365.669
L427.834 365.669
L427.932 366.015
L428.03 366.015
L428.129 366.333
L428.227 366.333
L428.326 366.654
L428.424 366.654
L428.522 366.991
L428.622 366.991
L428.72 367.321
L428.818 367.321
L428.917 367.639
L429.015 367.639
L429.113 367.973
L429.212 367.973
L429.311 368.239
L429.409 368.239
L429.507 368.519
L429.605 368.519
L429.705 368.806
L429.802 368.806
L429.901 369.106
L429.999 369.106
L430.098 369.42
L430.197 369.42
L430.295 369.723
L430.393 369.723
L430.492 370.003
L430.591 370.003
L430.688 370.301
L430.787 370.301
L430.886 370.651
L430.984 370.651
L431.082 371.052
L431.181 371.052
L431.279 371.5
L431.377 371.5
L431.476 371.973
L431.575 371.973
L431.673 372.472
L431.771 372.472
L431.87 373.009
L431.968 373.009
L432.067 373.564
L432.165 373.564
L432.263 374.131
L432.362 374.131
L432.46 374.725
L432.559 374.725
L432.658 375.298
L432.756 375.298
L432.854 375.836
L432.954 375.836
L433.051 376.356
L433.149 376.356
L433.248 376.859
L433.347 376.859
L433.445 377.326
L433.543 377.326
L433.642 377.738
L433.74 377.738
L433.839 378.088
L433.937 378.088
L434.036 378.436
L434.134 378.436
L434.232 378.814
L434.331 378.814
L434.429 379.146
L434.528 379.146
L434.628 379.502
L434.725 379.502
L434.824 379.911
L434.922 379.911
L435.02 380.3
L435.119 380.3
L435.217 380.635
L435.315 380.635
L435.414 380.975
L435.513 380.975
L435.611 381.289
L435.709 381.289
L435.808 381.571
L435.906 381.571
L436.004 381.781
L436.201 381.889
L436.3 382.137
L436.398 382.137
L436.497 382.389
L436.595 382.389
L436.693 382.65
L436.792 382.65
L436.89 382.929
L436.989 382.929
L437.088 383.195
L437.186 383.195
L437.285 383.427
L437.383 383.427
L437.481 383.66
L437.678 383.76
L437.776 383.911
L438.072 384.018
L438.17 384.12
L438.466 384.218
L438.564 384.331
L438.859 384.437
L438.958 384.59
L439.155 384.677
L439.253 384.826
L439.45 384.905
L439.549 385.063
L439.745 385.154
L439.844 385.295
L440.041 385.369
L440.139 385.524
L440.336 385.612
L440.434 385.815
L440.631 385.915
L440.73 386.152
L440.927 386.261
L441.025 386.516
L441.124 386.516
L441.222 386.741
L441.419 386.847
L441.517 386.998
L441.813 387.075
L441.911 387.187
L442.699 387.289
L442.797 387.306
L444.077 387.413
L444.175 387.475
L444.471 387.574
L444.569 387.692
L444.766 387.779
L444.865 387.93
L445.061 388.009
L445.16 388.167
L445.357 388.245
L445.456 388.366
L445.75 388.444
L445.849 388.532
L446.046 388.591
L446.144 388.704
L446.341 388.764
L446.44 388.905
L446.637 388.975
L446.735 389.093
L446.932 389.158
L447.03 389.306
L447.227 389.378
L447.326 389.513
L447.522 389.585
L447.621 389.68
L447.916 389.764
L448.015 389.862
L448.31 389.954
L448.408 390.016
L450.87 390.118
L450.968 390.173
L451.559 390.259
L451.657 390.332
L452.346 390.24
L452.445 390.155
L452.74 390.049
L452.839 389.93
L453.035 389.868
L453.134 389.767
L453.429 389.691
L453.528 389.614
L454.118 389.511
L454.217 389.457
L454.512 389.388
L454.611 389.312
L454.906 389.238
L455.004 389.123
L455.201 389.053
L455.3 388.893
L455.497 388.791
L455.595 388.51
L455.694 388.51
L455.792 388.178
L455.891 388.178
L455.989 387.865
L456.087 387.865
L456.186 387.534
L456.284 387.534
L456.383 387.223
L456.481 387.223
L456.58 386.959
L456.678 386.959
L456.776 386.723
L456.875 386.723
L456.973 386.48
L457.072 386.48
L457.17 386.209
L457.269 386.209
L457.367 385.931
L457.466 385.931
L457.564 385.657
L457.662 385.657
L457.761 385.44
L457.958 385.346
L458.056 385.179
L458.253 385.107
L458.352 384.952
L458.549 384.862
L458.647 384.691
L458.844 384.607
L458.942 384.428
L459.139 384.335
L459.238 384.147
L459.434 384.061
L459.533 383.928
L459.828 383.834
L459.927 383.692
L460.124 383.604
L460.222 383.44
L460.419 383.361
L460.517 383.213
L460.714 383.128
L460.813 382.943
L461.01 382.845
L461.108 382.675
L461.305 382.597
L461.403 382.414
L461.6 382.308
L461.699 382.123
L461.896 382.036
L461.994 381.904
L462.289 381.801
L462.388 381.72
L462.585 381.666
L462.683 381.546
L462.978 381.448
L463.077 381.378
L463.471 381.282
L463.569 381.25
L466.916 381.139
L467.015 381.044
L467.212 380.989
L467.31 380.851
L467.507 380.774
L467.606 380.618
L467.802 380.537
L467.901 380.395
L468.098 380.303
L468.196 380.098
L468.393 380.009
L468.491 379.847
L468.688 379.779
L468.787 379.64
L468.984 379.569
L469.082 379.445
L469.279 379.369
L469.377 379.153
L469.476 379.153
L469.574 378.91
L469.673 378.91
L469.771 378.62
L469.87 378.62
L469.968 378.328
L470.067 378.328
L470.165 378.069
L470.264 378.069
L470.362 377.819
L470.46 377.819
L470.559 377.573
L470.756 377.467
L470.854 377.266
L471.051 377.164
L471.15 376.933
L471.248 376.933
L471.346 376.701
L471.445 376.701
L471.543 376.466
L471.642 376.466
L471.74 376.242
L471.937 376.131
L472.035 375.927
L472.232 375.83
L472.331 375.637
L472.429 375.637
L472.528 375.389
L472.626 375.389
L472.725 375.136
L472.823 375.136
L472.921 374.83
L473.02 374.83
L473.118 374.573
L473.217 374.573
L473.315 374.323
L473.414 374.323
L473.512 374.046
L473.611 374.046
L473.709 373.758
L473.808 373.758
L473.906 373.44
L474.005 373.44
L474.103 373.125
L474.201 373.125
L474.3 372.834
L474.398 372.834
L474.497 372.522
L474.595 372.522
L474.694 372.192
L474.792 372.192
L474.89 371.831
L474.989 371.831
L475.087 371.516
L475.186 371.516
L475.284 371.248
L475.383 371.248
L475.481 370.968
L475.58 370.968
L475.678 370.695
L475.776 370.695
L475.875 370.365
L475.973 370.365
L476.072 369.972
L476.17 369.972
L476.269 369.587
L476.367 369.587
L476.466 369.206
L476.564 369.206
L476.663 368.824
L476.761 368.824
L476.859 368.421
L476.958 368.421
L477.056 368.006
L477.155 368.006
L477.253 367.601
L477.352 367.601
L477.45 367.238
L477.549 367.238
L477.647 366.866
L477.745 366.866
L477.844 366.543
L477.942 366.543
L478.041 366.273
L478.139 366.273
L478.238 366.044
L478.435 365.944
L478.533 365.702
L478.631 365.702
L478.73 365.434
L478.828 365.434
L478.927 365.168
L479.025 365.168
L479.124 364.842
L479.222 364.842
L479.32 364.52
L479.419 364.52
L479.517 364.177
L479.616 364.177
L479.714 363.814
L479.813 363.814
L479.911 363.417
L480.01 363.417
L480.108 363.032
L480.206 363.032
L480.305 362.691
L480.403 362.691
L480.502 362.385
L480.6 362.385
L480.699 362.108
L480.797 362.108
L480.896 361.834
L480.994 361.834
L481.092 361.567
L481.191 361.567
L481.289 361.319
L481.388 361.319
L481.486 361.056
L481.585 361.056
L481.683 360.776
L481.782 360.776
L481.88 360.465
L481.979 360.465
L482.077 360.155
L482.175 360.155
L482.274 359.865
L482.372 359.865
L482.471 359.604
L482.569 359.604
L482.668 359.349
L482.865 359.243
L482.963 359.047
L483.16 358.975
L483.258 358.857
L483.554 358.767
L483.652 358.698
L484.44 358.591
L484.538 358.549
L485.719 358.445
L485.818 358.432
L487.393 358.329
L487.491 358.308
L487.885 358.23
L487.984 358.138
L488.279 358.042
L488.377 357.95
L488.968 357.844
L488.968 357.83
L489.067 357.84
L490.445 357.944
L490.543 357.968
L491.134 358.066
L491.232 358.108
L491.626 358.193
L491.725 358.287
L492.315 358.392
L492.414 358.436
L492.709 358.521
L492.808 358.628
L493.103 358.723
L493.201 358.854
L493.398 358.923
L493.497 359.043
L493.792 359.151
L493.89 359.254
L494.186 359.347
L494.284 359.452
L494.58 359.555
L494.678 359.679
L494.875 359.757
L494.973 359.943
L495.17 360.017
L495.269 360.225
L495.367 360.225
L495.466 360.475
L495.564 360.475
L495.662 360.717
L495.761 360.717
L495.859 360.964
L495.958 360.964
L496.056 361.225
L496.155 361.225
L496.253 361.509
L496.352 361.509
L496.45 361.761
L496.647 361.846
L496.745 362.032
L496.942 362.137
L497.041 362.331
L497.238 362.424
L497.336 362.626
L497.434 362.626
L497.533 362.864
L497.73 362.961
L497.828 363.098
L498.025 363.172
L498.124 363.306
L498.419 363.415
L498.517 363.472
L498.911 363.564
L499.01 363.687
L499.206 363.755
L499.305 363.825
L499.6 363.919
L499.699 364.023
L499.994 364.103
L500.092 364.215
L500.289 364.275
L500.388 364.387
L500.683 364.496
L500.782 364.628
L500.979 364.707
L501.077 364.826
L501.372 364.91
L501.471 364.974
L501.766 365.069
L501.865 365.143
L502.16 365.235
L502.258 365.317
L503.44 365.418
L503.538 365.485
L503.932 365.591
L504.03 365.692
L504.326 365.791
L504.424 365.877
L504.621 365.93
L504.719 366.055
L504.916 366.117
L505.015 366.232
L505.212 366.283
L505.31 366.429
L505.507 366.504
L505.605 366.683
L505.802 366.783
L505.901 366.987
L506.098 367.092
L506.196 367.276
L506.393 367.356
L506.491 367.494
L506.688 367.573
L506.787 367.71
L506.984 367.776
L507.082 367.911
L507.279 367.989
L507.378 368.133
L507.574 368.194
L507.673 368.299
L508.067 368.385
L508.165 368.461
L508.559 368.566
L508.657 368.631
L509.74 368.523
L509.839 368.462
L510.232 368.359
L510.331 368.247
L510.528 368.181
L510.626 368.066
L510.922 367.966
L511.02 367.906
L511.611 367.801
L511.709 367.755
L512.398 367.859
L512.497 367.955
L512.694 368.028
L512.792 368.162
L512.989 368.222
L513.087 368.332
L513.284 368.395
L513.383 368.549
L513.58 368.622
L513.678 368.759
L513.973 368.847
L514.072 368.894
L514.662 369.001
L514.761 369.076
L515.056 369.162
L515.155 369.25
L515.352 369.311
L515.45 369.429
L515.745 369.528
L515.844 369.636
L516.139 369.74
L516.238 369.831
L516.631 369.922
L516.73 370.075
L516.927 370.16
L517.025 370.292
L517.321 370.4
L517.419 370.495
L517.714 370.578
L517.813 370.694
L518.108 370.798
L518.207 370.923
L518.403 370.974
L518.502 371.113
L518.699 371.193
L518.797 371.365
L518.994 371.442
L519.093 371.627
L519.289 371.716
L519.388 371.88
L519.585 371.973
L519.683 372.161
L519.88 372.245
L519.979 372.411
L520.175 372.492
L520.274 372.63
L520.569 372.725
L520.668 372.764
L520.963 372.843
L521.061 372.956
L521.258 373.015
L521.357 373.152
L521.554 373.232
L521.652 373.419
L521.849 373.528
L521.947 373.757
L522.144 373.864
L522.243 374.092
L522.341 374.092
L522.44 374.302
L522.637 374.377
L522.735 374.54
L522.932 374.625
L523.03 374.783
L523.227 374.856
L523.326 375
L523.523 375.08
L523.621 375.252
L523.818 375.333
L523.916 375.513
L524.113 375.62
L524.212 375.804
L524.409 375.891
L524.507 376.061
L524.704 376.132
L524.802 376.303
L524.999 376.388
L525.098 376.527
L525.295 376.589
L525.393 376.689
L525.787 376.792
L525.885 376.869
L526.181 376.947
L526.279 377.063
L526.476 377.121
L526.574 377.245
L526.771 377.301
L526.87 377.411
L527.165 377.501
L527.264 377.578
L527.559 377.669
L527.657 377.763
L527.953 377.85
L528.051 377.956
L528.248 378.026
L528.346 378.164
L528.543 378.229
L528.642 378.364
L528.839 378.423
L528.937 378.554
L529.134 378.634
L529.232 378.808
L529.429 378.89
L529.528 379.044
L529.725 379.131
L529.823 379.3
L530.02 379.387
L530.118 379.531
L530.315 379.605
L530.414 379.767
L530.611 379.846
L530.709 380.039
L530.808 380.039
L530.906 380.276
L531.103 380.385
L531.201 380.656
L531.3 380.656
L531.398 380.902
L531.497 380.902
L531.595 381.16
L531.694 381.16
L531.792 381.425
L531.89 381.425
L531.989 381.719
L532.087 381.719
L532.186 381.989
L532.284 381.989
L532.383 382.266
L532.481 382.266
L532.58 382.541
L532.678 382.541
L532.776 382.856
L532.875 382.856
L532.973 383.199
L533.072 383.199
L533.17 383.531
L533.269 383.531
L533.367 383.836
L533.466 383.836
L533.564 384.119
L533.662 384.119
L533.761 384.423
L533.859 384.423
L533.958 384.764
L534.056 384.764
L534.155 385.109
L534.253 385.109
L534.352 385.443
L534.45 385.443
L534.548 385.762
L534.647 385.762
L534.745 386.106
L534.844 386.106
L534.942 386.462
L535.041 386.462
L535.139 386.825
L535.238 386.825
L535.336 387.175
L535.435 387.175
L535.533 387.506
L535.631 387.506
L535.73 387.807
L535.828 387.807
L535.927 388.091
L536.025 388.091
L536.124 388.382
L536.222 388.382
L536.321 388.645
L536.419 388.645
L536.517 388.924
L536.616 388.924
L536.714 389.196
L536.813 389.196
L536.911 389.447
L537.01 389.447
L537.108 389.709
L537.207 389.709
L537.305 389.96
L537.403 389.96
L537.502 390.191
L537.699 390.3
L537.797 390.511
L537.994 390.609
L538.093 390.809
L538.289 390.891
L538.388 391.034
L538.585 391.103
L538.683 391.238
L538.88 391.292
L538.979 391.418
L539.274 391.518
L539.372 391.597
L539.668 391.682
L539.766 391.795
L539.963 391.851
L540.061 391.971
L540.455 392.072
L540.554 392.126
L540.947 392.209
L541.046 392.338
L541.243 392.416
L541.341 392.607
L541.538 392.706
L541.637 392.915
L541.735 392.915
L541.833 393.166
L541.932 393.166
L542.03 393.43
L542.129 393.43
L542.227 393.669
L542.424 393.769
L542.523 393.962
L542.72 394.059
L542.818 394.243
L543.015 394.34
L543.113 394.512
L543.31 394.587
L543.409 394.756
L543.606 394.849
L543.704 395.027
L543.901 395.111
L543.999 395.316
L544.196 395.415
L544.295 395.579
L544.492 395.652
L544.59 395.796
L544.885 395.903
L544.984 396.005
L545.279 396.099
L545.378 396.209
L545.574 396.276
L545.673 396.404
L545.968 396.514
L546.067 396.624
L546.264 396.681
L546.362 396.787
L546.657 396.883
L546.756 396.961
L547.15 397.056
L547.248 397.123
L547.642 397.221
L547.74 397.268
L547.937 397.289
L547.937 397.315" style="fill:none;stroke:#0000ff;stroke-width:5.0;"/>
   </g>
   <g id="matplotlib.axis_1">
    <g id="xtick_1">
     <g id="line2d_2">
      <path d="
M189.316 404.965
L189.316 7.2" style="fill:none;stroke:#000000;stroke-dasharray:1.000000,3.000000;stroke-dashoffset:0.0;stroke-linecap:butt;stroke-width:0.5;"/>
     </g>
     <g id="line2d_3">
      <defs>
       <path d="
M0 0
L0 -4" id="m3fbe6c24f1"/>
      </defs>
      <g>
       <use style="stroke:#000000;stroke-linecap:butt;stroke-width:0.5;" x="189.316060486" xlink:href="#m3fbe6c24f1" y="181.833946561"/>
      </g>
     </g>
     <g id="text_1">
      <!-- 5 -->
      <defs>
       <path d="
M10.7969 72.9062
L49.5156 72.9062
L49.5156 64.5938
L19.8281 64.5938
L19.8281 46.7344
Q21.9688 47.4688 24.1094 47.8281
Q26.2656 48.1875 28.4219 48.1875
Q40.625 48.1875 47.75 41.5
Q54.8906 34.8125 54.8906 23.3906
Q54.8906 11.625 47.5625 5.09375
Q40.2344 -1.42188 26.9062 -1.42188
Q22.3125 -1.42188 17.5469 -0.640625
Q12.7969 0.140625 7.71875 1.70312
L7.71875 11.625
Q12.1094 9.23438 16.7969 8.0625
Q21.4844 6.89062 26.7031 6.89062
Q35.1562 6.89062 40.0781 11.3281
Q45.0156 15.7656 45.0156 23.3906
Q45.0156 31 40.0781 35.4375
Q35.1562 39.8906 26.7031 39.8906
Q22.75 39.8906 18.8125 39.0156
Q14.8906 38.1406 10.7969 36.2812
z
" id="BitstreamVeraSans-Roman-35"/>
      </defs>
      <g transform="translate(183.655435486 203.331446561)scale(0.24 -0.24)">
       <use xlink:href="#BitstreamVeraSans-Roman-35"/>
      </g>
     </g>
    </g>
    <g id="xtick_2">
     <g id="line2d_4">
      <path d="
M322.924 404.965
L322.924 7.2" style="fill:none;stroke:#000000;stroke-dasharray:1.000000,3.000000;stroke-dashoffset:0.0;stroke-linecap:butt;stroke-width:0.5;"/>
     </g>
     <g id="line2d_5">
      <defs>
       <path d="
M0 0
L0 -4" id="m3fbe6c24f1"/>
      </defs>
      <g>
       <use style="stroke:#000000;stroke-linecap:butt;stroke-width:0.5;" x="322.923686165" xlink:href="#m3fbe6c24f1" y="181.833946561"/>
      </g>
     </g>
     <g id="text_2">
      <!-- 10 -->
      <defs>
       <path d="
M31.7812 66.4062
Q24.1719 66.4062 20.3281 58.9062
Q16.5 51.4219 16.5 36.375
Q16.5 21.3906 20.3281 13.8906
Q24.1719 6.39062 31.7812 6.39062
Q39.4531 6.39062 43.2812 13.8906
Q47.125 21.3906 47.125 36.375
Q47.125 51.4219 43.2812 58.9062
Q39.4531 66.4062 31.7812 66.4062
M31.7812 74.2188
Q44.0469 74.2188 50.5156 64.5156
Q56.9844 54.8281 56.9844 36.375
Q56.9844 17.9688 50.5156 8.26562
Q44.0469 -1.42188 31.7812 -1.42188
Q19.5312 -1.42188 13.0625 8.26562
Q6.59375 17.9688 6.59375 36.375
Q6.59375 54.8281 13.0625 64.5156
Q19.5312 74.2188 31.7812 74.2188" id="BitstreamVeraSans-Roman-30"/>
       <path d="
M12.4062 8.29688
L28.5156 8.29688
L28.5156 63.9219
L10.9844 60.4062
L10.9844 69.3906
L28.4219 72.9062
L38.2812 72.9062
L38.2812 8.29688
L54.3906 8.29688
L54.3906 0
L12.4062 0
z
" id="BitstreamVeraSans-Roman-31"/>
      </defs>
      <g transform="translate(309.768686165 203.646446561)scale(0.24 -0.24)">
       <use xlink:href="#BitstreamVeraSans-Roman-31"/>
       <use x="63.623046875" xlink:href="#BitstreamVeraSans-Roman-30"/>
      </g>
     </g>
    </g>
    <g id="xtick_3">
     <g id="line2d_6">
      <path d="
M456.531 404.965
L456.531 7.2" style="fill:none;stroke:#000000;stroke-dasharray:1.000000,3.000000;stroke-dashoffset:0.0;stroke-linecap:butt;stroke-width:0.5;"/>
     </g>
     <g id="line2d_7">
      <defs>
       <path d="
M0 0
L0 -4" id="m3fbe6c24f1"/>
      </defs>
      <g>
       <use style="stroke:#000000;stroke-linecap:butt;stroke-width:0.5;" x="456.531311843" xlink:href="#m3fbe6c24f1" y="181.833946561"/>
      </g>
     </g>
     <g id="text_3">
      <!-- 15 -->
      <g transform="translate(443.627561843 203.331446561)scale(0.24 -0.24)">
       <use xlink:href="#BitstreamVeraSans-Roman-31"/>
       <use x="63.623046875" xlink:href="#BitstreamVeraSans-Roman-35"/>
      </g>
     </g>
    </g>
    <g id="xtick_4">
     <g id="line2d_8">
      <defs>
       <path d="
M0 0
L0 -2" id="mf0ff38ea95"/>
      </defs>
      <g>
       <use style="stroke:#000000;stroke-linecap:butt;stroke-width:0.5;" x="82.429959943" xlink:href="#mf0ff38ea95" y="181.833946561"/>
      </g>
     </g>
    </g>
    <g id="xtick_5">
     <g id="line2d_9">
      <defs>
       <path d="
M0 0
L0 -2" id="mf0ff38ea95"/>
      </defs>
      <g>
       <use style="stroke:#000000;stroke-linecap:butt;stroke-width:0.5;" x="109.151485079" xlink:href="#mf0ff38ea95" y="181.833946561"/>
      </g>
     </g>
    </g>
    <g id="xtick_6">
     <g id="line2d_10">
      <defs>
       <path d="
M0 0
L0 -2" id="mf0ff38ea95"/>
      </defs>
      <g>
       <use style="stroke:#000000;stroke-linecap:butt;stroke-width:0.5;" x="135.873010214" xlink:href="#mf0ff38ea95" y="181.833946561"/>
      </g>
     </g>
    </g>
    <g id="xtick_7">
     <g id="line2d_11">
      <defs>
       <path d="
M0 0
L0 -2" id="mf0ff38ea95"/>
      </defs>
      <g>
       <use style="stroke:#000000;stroke-linecap:butt;stroke-width:0.5;" x="162.59453535" xlink:href="#mf0ff38ea95" y="181.833946561"/>
      </g>
     </g>
    </g>
    <g id="xtick_8">
     <g id="line2d_12">
      <defs>
       <path d="
M0 0
L0 -2" id="mf0ff38ea95"/>
      </defs>
      <g>
       <use style="stroke:#000000;stroke-linecap:butt;stroke-width:0.5;" x="216.037585622" xlink:href="#mf0ff38ea95" y="181.833946561"/>
      </g>
     </g>
    </g>
    <g id="xtick_9">
     <g id="line2d_13">
      <defs>
       <path d="
M0 0
L0 -2" id="mf0ff38ea95"/>
      </defs>
      <g>
       <use style="stroke:#000000;stroke-linecap:butt;stroke-width:0.5;" x="242.759110757" xlink:href="#mf0ff38ea95" y="181.833946561"/>
      </g>
     </g>
    </g>
    <g id="xtick_10">
     <g id="line2d_14">
      <defs>
       <path d="
M0 0
L0 -2" id="mf0ff38ea95"/>
      </defs>
      <g>
       <use style="stroke:#000000;stroke-linecap:butt;stroke-width:0.5;" x="269.480635893" xlink:href="#mf0ff38ea95" y="181.833946561"/>
      </g>
     </g>
    </g>
    <g id="xtick_11">
     <g id="line2d_15">
      <defs>
       <path d="
M0 0
L0 -2" id="mf0ff38ea95"/>
      </defs>
      <g>
       <use style="stroke:#000000;stroke-linecap:butt;stroke-width:0.5;" x="296.202161029" xlink:href="#mf0ff38ea95" y="181.833946561"/>
      </g>
     </g>
    </g>
    <g id="xtick_12">
     <g id="line2d_16">
      <defs>
       <path d="
M0 0
L0 -2" id="mf0ff38ea95"/>
      </defs>
      <g>
       <use style="stroke:#000000;stroke-linecap:butt;stroke-width:0.5;" x="349.6452113" xlink:href="#mf0ff38ea95" y="181.833946561"/>
      </g>
     </g>
    </g>
    <g id="xtick_13">
     <g id="line2d_17">
      <defs>
       <path d="
M0 0
L0 -2" id="mf0ff38ea95"/>
      </defs>
      <g>
       <use style="stroke:#000000;stroke-linecap:butt;stroke-width:0.5;" x="376.366736436" xlink:href="#mf0ff38ea95" y="181.833946561"/>
      </g>
     </g>
    </g>
    <g id="xtick_14">
     <g id="line2d_18">
      <defs>
       <path d="
M0 0
L0 -2" id="mf0ff38ea95"/>
      </defs>
      <g>
       <use style="stroke:#000000;stroke-linecap:butt;stroke-width:0.5;" x="403.088261572" xlink:href="#mf0ff38ea95" y="181.833946561"/>
      </g>
     </g>
    </g>
    <g id="xtick_15">
     <g id="line2d_19">
      <defs>
       <path d="
M0 0
L0 -2" id="mf0ff38ea95"/>
      </defs>
      <g>
       <use style="stroke:#000000;stroke-linecap:butt;stroke-width:0.5;" x="429.809786707" xlink:href="#mf0ff38ea95" y="181.833946561"/>
      </g>
     </g>
    </g>
    <g id="xtick_16">
     <g id="line2d_20">
      <defs>
       <path d="
M0 0
L0 -2" id="mf0ff38ea95"/>
      </defs>
      <g>
       <use style="stroke:#000000;stroke-linecap:butt;stroke-width:0.5;" x="483.252836979" xlink:href="#mf0ff38ea95" y="181.833946561"/>
      </g>
     </g>
    </g>
    <g id="xtick_17">
     <g id="line2d_21">
      <defs>
       <path d="
M0 0
L0 -2" id="mf0ff38ea95"/>
      </defs>
      <g>
       <use style="stroke:#000000;stroke-linecap:butt;stroke-width:0.5;" x="509.974362115" xlink:href="#mf0ff38ea95" y="181.833946561"/>
      </g>
     </g>
    </g>
   </g>
   <g id="matplotlib.axis_2">
    <g id="ytick_1">
     <g id="line2d_22">
      <path d="
M64.7562 404.177
L557.411 404.177" style="fill:none;stroke:#000000;stroke-dasharray:1.000000,3.000000;stroke-dashoffset:0.0;stroke-linecap:butt;stroke-width:0.5;"/>
     </g>
     <g id="line2d_23">
      <defs>
       <path d="
M0 0
L4 0" id="mc91e532072"/>
      </defs>
      <g>
       <use style="stroke:#000000;stroke-linecap:butt;stroke-width:0.5;" x="54.75625" xlink:href="#mc91e532072" y="404.176677376"/>
      </g>
     </g>
     <g id="text_4">
      <!-- -1 -->
      <defs>
       <path d="
M4.89062 31.3906
L31.2031 31.3906
L31.2031 23.3906
L4.89062 23.3906
z
" id="BitstreamVeraSans-Roman-2d"/>
      </defs>
      <g transform="translate(30.2175 412.925427376)scale(0.24 -0.24)">
       <use xlink:href="#BitstreamVeraSans-Roman-2d"/>
       <use x="36.083984375" xlink:href="#BitstreamVeraSans-Roman-31"/>
      </g>
     </g>
    </g>
    <g id="ytick_2">
     <g id="line2d_24">
      <path d="
M64.7562 293.005
L557.411 293.005" style="fill:none;stroke:#000000;stroke-dasharray:1.000000,3.000000;stroke-dashoffset:0.0;stroke-linecap:butt;stroke-width:0.5;"/>
     </g>
     <g id="line2d_25">
      <defs>
       <path d="
M0 0
L4 0" id="mc91e532072"/>
      </defs>
      <g>
       <use style="stroke:#000000;stroke-linecap:butt;stroke-width:0.5;" x="54.75625" xlink:href="#mc91e532072" y="293.005311968"/>
      </g>
     </g>
     <g id="text_5">
      <!-- -0.5 -->
      <defs>
       <path d="
M10.6875 12.4062
L21 12.4062
L21 0
L10.6875 0
z
" id="BitstreamVeraSans-Roman-2e"/>
      </defs>
      <g transform="translate(7.2 301.740936968)scale(0.24 -0.24)">
       <use xlink:href="#BitstreamVeraSans-Roman-2d"/>
       <use x="36.083984375" xlink:href="#BitstreamVeraSans-Roman-30"/>
       <use x="99.70703125" xlink:href="#BitstreamVeraSans-Roman-2e"/>
       <use x="131.494140625" xlink:href="#BitstreamVeraSans-Roman-35"/>
      </g>
     </g>
    </g>
    <g id="ytick_3">
     <g id="line2d_26">
      <path d="
M64.7562 181.834
L557.411 181.834" style="fill:none;stroke:#000000;stroke-dasharray:1.000000,3.000000;stroke-dashoffset:0.0;stroke-linecap:butt;stroke-width:0.5;"/>
     </g>
     <g id="line2d_27">
      <defs>
       <path d="
M0 0
L4 0" id="mc91e532072"/>
      </defs>
      <g>
       <use style="stroke:#000000;stroke-linecap:butt;stroke-width:0.5;" x="54.75625" xlink:href="#mc91e532072" y="181.833946561"/>
      </g>
     </g>
     <g id="text_6">
      <!-- 0 -->
      <g transform="translate(38.6625 190.569571561)scale(0.24 -0.24)">
       <use xlink:href="#BitstreamVeraSans-Roman-30"/>
      </g>
     </g>
    </g>
    <g id="ytick_4">
     <g id="line2d_28">
      <path d="
M64.7562 70.6626
L557.411 70.6626" style="fill:none;stroke:#000000;stroke-dasharray:1.000000,3.000000;stroke-dashoffset:0.0;stroke-linecap:butt;stroke-width:0.5;"/>
     </g>
     <g id="line2d_29">
      <defs>
       <path d="
M0 0
L4 0" id="mc91e532072"/>
      </defs>
      <g>
       <use style="stroke:#000000;stroke-linecap:butt;stroke-width:0.5;" x="54.75625" xlink:href="#mc91e532072" y="70.6625811533"/>
      </g>
     </g>
     <g id="text_7">
      <!-- 0.5 -->
      <g transform="translate(16.2675 79.3982061533)scale(0.24 -0.24)">
       <use xlink:href="#BitstreamVeraSans-Roman-30"/>
       <use x="63.623046875" xlink:href="#BitstreamVeraSans-Roman-2e"/>
       <use x="95.41015625" xlink:href="#BitstreamVeraSans-Roman-35"/>
      </g>
     </g>
    </g>
    <g id="ytick_5">
     <g id="line2d_30">
      <defs>
       <path d="
M0 0
L2 0" id="m0789224b6b"/>
      </defs>
      <g>
       <use style="stroke:#000000;stroke-linecap:butt;stroke-width:0.5;" x="54.75625" xlink:href="#m0789224b6b" y="381.942404294"/>
      </g>
     </g>
    </g>
    <g id="ytick_6">
     <g id="line2d_31">
      <defs>
       <path d="
M0 0
L2 0" id="m0789224b6b"/>
      </defs>
      <g>
       <use style="stroke:#000000;stroke-linecap:butt;stroke-width:0.5;" x="54.75625" xlink:href="#m0789224b6b" y="359.708131213"/>
      </g>
     </g>
    </g>
    <g id="ytick_7">
     <g id="line2d_32">
      <defs>
       <path d="
M0 0
L2 0" id="m0789224b6b"/>
      </defs>
      <g>
       <use style="stroke:#000000;stroke-linecap:butt;stroke-width:0.5;" x="54.75625" xlink:href="#m0789224b6b" y="337.473858131"/>
      </g>
     </g>
    </g>
    <g id="ytick_8">
     <g id="line2d_33">
      <defs>
       <path d="
M0 0
L2 0" id="m0789224b6b"/>
      </defs>
      <g>
       <use style="stroke:#000000;stroke-linecap:butt;stroke-width:0.5;" x="54.75625" xlink:href="#m0789224b6b" y="315.23958505"/>
      </g>
     </g>
    </g>
    <g id="ytick_9">
     <g id="line2d_34">
      <defs>
       <path d="
M0 0
L2 0" id="m0789224b6b"/>
      </defs>
      <g>
       <use style="stroke:#000000;stroke-linecap:butt;stroke-width:0.5;" x="54.75625" xlink:href="#m0789224b6b" y="293.005311968"/>
      </g>
     </g>
    </g>
    <g id="ytick_10">
     <g id="line2d_35">
      <defs>
       <path d="
M0 0
L2 0" id="m0789224b6b"/>
      </defs>
      <g>
       <use style="stroke:#000000;stroke-linecap:butt;stroke-width:0.5;" x="54.75625" xlink:href="#m0789224b6b" y="270.771038887"/>
      </g>
     </g>
    </g>
    <g id="ytick_11">
     <g id="line2d_36">
      <defs>
       <path d="
M0 0
L2 0" id="m0789224b6b"/>
      </defs>
      <g>
       <use style="stroke:#000000;stroke-linecap:butt;stroke-width:0.5;" x="54.75625" xlink:href="#m0789224b6b" y="248.536765805"/>
      </g>
     </g>
    </g>
    <g id="ytick_12">
     <g id="line2d_37">
      <defs>
       <path d="
M0 0
L2 0" id="m0789224b6b"/>
      </defs>
      <g>
       <use style="stroke:#000000;stroke-linecap:butt;stroke-width:0.5;" x="54.75625" xlink:href="#m0789224b6b" y="226.302492724"/>
      </g>
     </g>
    </g>
    <g id="ytick_13">
     <g id="line2d_38">
      <defs>
       <path d="
M0 0
L2 0" id="m0789224b6b"/>
      </defs>
      <g>
       <use style="stroke:#000000;stroke-linecap:butt;stroke-width:0.5;" x="54.75625" xlink:href="#m0789224b6b" y="204.068219642"/>
      </g>
     </g>
    </g>
    <g id="ytick_14">
     <g id="line2d_39">
      <defs>
       <path d="
M0 0
L2 0" id="m0789224b6b"/>
      </defs>
      <g>
       <use style="stroke:#000000;stroke-linecap:butt;stroke-width:0.5;" x="54.75625" xlink:href="#m0789224b6b" y="181.833946561"/>
      </g>
     </g>
    </g>
    <g id="ytick_15">
     <g id="line2d_40">
      <defs>
       <path d="
M0 0
L2 0" id="m0789224b6b"/>
      </defs>
      <g>
       <use style="stroke:#000000;stroke-linecap:butt;stroke-width:0.5;" x="54.75625" xlink:href="#m0789224b6b" y="159.599673479"/>
      </g>
     </g>
    </g>
    <g id="ytick_16">
     <g id="line2d_41">
      <defs>
       <path d="
M0 0
L2 0" id="m0789224b6b"/>
      </defs>
      <g>
       <use style="stroke:#000000;stroke-linecap:butt;stroke-width:0.5;" x="54.75625" xlink:href="#m0789224b6b" y="137.365400398"/>
      </g>
     </g>
    </g>
    <g id="ytick_17">
     <g id="line2d_42">
      <defs>
       <path d="
M0 0
L2 0" id="m0789224b6b"/>
      </defs>
      <g>
       <use style="stroke:#000000;stroke-linecap:butt;stroke-width:0.5;" x="54.75625" xlink:href="#m0789224b6b" y="115.131127316"/>
      </g>
     </g>
    </g>
    <g id="ytick_18">
     <g id="line2d_43">
      <defs>
       <path d="
M0 0
L2 0" id="m0789224b6b"/>
      </defs>
      <g>
       <use style="stroke:#000000;stroke-linecap:butt;stroke-width:0.5;" x="54.75625" xlink:href="#m0789224b6b" y="92.8968542348"/>
      </g>
     </g>
    </g>
    <g id="ytick_19">
     <g id="line2d_44">
      <defs>
       <path d="
M0 0
L2 0" id="m0789224b6b"/>
      </defs>
      <g>
       <use style="stroke:#000000;stroke-linecap:butt;stroke-width:0.5;" x="54.75625" xlink:href="#m0789224b6b" y="70.6625811533"/>
      </g>
     </g>
    </g>
    <g id="ytick_20">
     <g id="line2d_45">
      <defs>
       <path d="
M0 0
L2 0" id="m0789224b6b"/>
      </defs>
      <g>
       <use style="stroke:#000000;stroke-linecap:butt;stroke-width:0.5;" x="54.75625" xlink:href="#m0789224b6b" y="48.4283080718"/>
      </g>
     </g>
    </g>
   </g>
   <g id="patch_3">
    <path d="
M64.7562 181.834
L557.411 181.834" style="fill:none;stroke:#000000;stroke-width:0.8;"/>
   </g>
   <g id="patch_4">
    <path d="
M54.7562 404.965
L54.7562 7.2" style="fill:none;stroke:#000000;stroke-width:0.8;"/>
   </g>
  </g>
 </g>
 <defs>
  <clipPath id="pdeabb097a7">
   <rect height="397.764532144" width="492.655" x="64.75625" y="7.2"/>
  </clipPath>
 </defs>
</svg>
