<?xml version="1.0" encoding="utf-8" standalone="no"?>
<!DOCTYPE svg PUBLIC "-//W3C//DTD SVG 1.1//EN"
  "http://www.w3.org/Graphics/SVG/1.1/DTD/svg11.dtd">
<!-- Created with matplotlib (http://matplotlib.sourceforge.net/) -->
<svg height="420pt" version="1.1" viewBox="0 0 564 420" width="564pt" xmlns="http://www.w3.org/2000/svg" xmlns:xlink="http://www.w3.org/1999/xlink">
 <defs>
  <style type="text/css">
*{stroke-linecap:square;stroke-linejoin:round;}
  </style>
 </defs>
 <g id="figure_1">
  <g id="patch_1">
   <path d="
M0 420.125
L564.611 420.125
L564.611 0
L0 0
z
" style="fill:#ffffff;"/>
  </g>
  <g id="axes_1">
   <g id="patch_2">
    <path d="
M64.7562 404.965
L557.411 404.965
L557.411 7.2
L64.7562 7.2
z
" style="fill:#ffffff;"/>
   </g>
   <g id="line2d_1">
    <path clip-path="url(#pdeabb097a7)" d="
M74.2304 181.834
L85.065 181.834
L85.065 181.834
L85.065 181.834
L98.7151 181.834
L98.7151 181.834
L98.7151 181.834
L107.706 181.834
L107.706 156.739
L119.784 156.739
L119.784 134.034
L124.248 134.034
L124.248 115.325
L131.416 115.325
L131.416 82.5059
L134.388 82.5059
L134.388 69.6744
L139.494 69.6744
L139.494 48.3432
L145.688 48.3432
L145.688 26.9139
L147.47 26.9139
L147.47 20.5406
L152.198 20.5406
L152.198 14.8493
L154.941 14.8493
L154.941 15.5871
L156.213 15.5871
L156.213 18.4823
L158.59 18.4823
L158.59 29.0097
L161.801 29.0097
L161.801 48.7792
L164.666 48.7792
L164.666 60.7538
L165.557 60.7538
L165.557 63.8062
L168.064 63.8062
L168.064 76.6687
L169.614 76.6687
L169.614 83.4594
L170.356 83.4594
L170.356 86.6188
L172.467 86.6188
L172.467 98.5551
L173.787 98.5551
L173.787 107.878
L175.652 107.878
L175.652 119.784
L177.952 119.784
L177.952 133.271
L179.031 133.271
L179.031 139.511
L179.555 139.511
L179.555 141.876
L180.574 141.876
L180.574 146.38
L181.068 146.38
L181.068 148.221
L182.031 148.221
L182.031 151.59
L185.153 151.59
L185.153 164.157
L185.981 164.157
L185.981 166.896
L187.178 166.896
L187.178 169.252
L187.565 169.252
L187.565 170.139
L189.422 170.139
L189.422 172.971
L189.778 172.971
L189.778 173.38
L190.819 173.38
L190.819 174.102
L192.469 174.046
L192.469 173.879
L193.412 173.879
L193.412 173.271
L194.62 173.304
L194.62 173.04
L196.057 173.04
L196.057 173.217
L196.336 173.217
L196.336 173.105
L198.718 173.2
L198.718 174.15
L200.196 174.15
L200.196 175.472
L200.671 175.472
L200.671 175.605
L202.048 175.559
L202.048 175.356
L203.357 175.445
L203.357 176.243
L203.988 176.243
L203.988 177.112
L204.605 177.112
L204.605 178.541
L205.208 178.541
L205.208 179.993
L205.406 179.993
L205.406 180.453
L205.991 180.453
L205.991 182.155
L206.374 182.155
L206.374 183.233
L206.563 183.233
L206.563 183.752
L207.491 183.752
L207.491 186.145
L208.739 186.145
L208.739 189.763
L209.084 189.763
L209.084 190.933
L209.256 190.933
L209.256 191.435
L209.595 191.435
L209.595 192.406
L210.75 192.406
L210.75 195.588
L211.23 195.588
L211.23 196.739
L212.011 196.739
L212.011 198.621
L212.165 198.621
L212.165 198.913
L212.469 198.913
L212.469 199.677
L212.92 199.677
L212.92 201.112
L213.509 201.112
L213.509 202.909
L213.942 202.909
L213.942 204.293
L214.368 204.293
L214.368 205.47
L214.649 205.47
L214.649 206.433
L215.064 206.433
L215.064 207.631
L215.608 207.631
L215.608 208.835
L215.876 208.835
L215.876 209.41
L216.404 209.41
L216.404 210.553
L217.05 210.553
L217.05 211.488
L217.177 211.488
L217.177 211.7
L217.804 211.7
L217.804 212.418
L217.928 212.418
L217.928 212.558
L218.296 212.558
L218.296 213.24
L218.538 213.24
L218.538 213.612
L218.897 213.612
L218.897 214.24
L219.369 214.24
L219.369 215.003
L219.602 215.003
L219.602 215.334
L219.718 215.334
L219.718 215.485
L219.948 215.485
L219.948 215.768
L220.626 215.768
L220.626 216.83
L221.068 216.83
L221.068 217.33
L221.287 217.33
L221.287 217.605
L221.719 217.605
L221.719 218.113
L221.932 218.113
L221.932 218.377
L222.249 218.377
L222.249 218.681
L222.872 218.681
L222.974 219.455
L223.878 219.455
L223.878 220.806
L224.173 220.806
L224.173 221.23
L224.657 221.23
L224.657 221.978
L224.943 221.978
L224.943 222.459
L225.227 222.459
L225.32 223.183
L225.6 223.183
L225.6 223.734
L226.059 223.734
L226.059 224.617
L226.331 224.617
L226.331 224.996
L226.6 224.996
L226.689 225.382
L226.954 225.382
L226.954 225.657
L227.217 225.657
L227.217 226.101
L227.391 226.101
L227.477 226.533
L227.99 226.533
L227.99 227.247
L228.41 227.247
L228.494 227.73
L229.712 227.703
L229.712 227.6
L230.106 227.633
L230.106 227.791
L230.418 227.791
L230.418 228.028
L230.801 228.028
L230.801 228.189
L231.775 228.143
L231.775 227.934
L231.994 227.934
L231.994 227.71
L232.212 227.71
L232.212 227.493
L232.642 227.408
L232.642 227.215
L232.996 227.167
L232.996 227.064
L233.275 227.064
L233.275 226.878
L233.894 226.807
L233.894 226.471
L234.231 226.471
L234.231 226.322
L234.63 226.322
L234.696 225.875
L235.024 225.875
L235.089 225.595
L235.218 225.595
L235.283 225.378
L235.603 225.378
L235.603 225.264
L237.686 225.202
L237.686 224.977
L238.037 224.915
L238.037 224.81
L238.555 224.754
L238.555 224.657
L239.008 224.572
L239.008 224.513
L240.534 224.595
L240.639 224.898
L240.797 224.898
L240.85 225.13
L241.11 225.13
L241.162 225.33
L241.572 225.422
L241.623 225.587
L241.876 225.587
L241.927 225.849
L242.077 225.849
L242.077 226.012
L242.523 226.012
L242.621 226.63
L242.768 226.699
L242.768 226.842
L242.914 226.842
L242.914 227.034
L243.059 227.034
L243.059 227.281
L243.251 227.281
L243.251 227.564
L243.394 227.564
L243.394 227.738
L243.536 227.738
L243.536 227.855
L244.052 227.855
L244.098 228.241
L244.512 228.327
L244.512 228.401
L244.875 228.498
L244.875 228.515
L245.804 228.543
L245.848 228.677
L245.978 228.677
L245.978 228.828
L246.236 228.828
L246.236 229.054
L246.449 229.054
L246.449 229.281
L246.828 229.281
L246.87 229.854
L247.078 229.934
L247.119 230.037
L247.326 230.116
L247.367 230.165
L249.266 230.225
L249.266 230.395
L249.456 230.395
L249.456 230.56
L249.721 230.56
L249.796 230.95
L250.019 231.055
L250.019 231.185
L250.168 231.185
L250.278 231.433
L250.388 231.433
L250.388 231.579
L250.607 231.579
L250.607 231.848
L250.788 231.848
L250.896 232.251
L251.004 232.323
L251.111 232.674
L251.324 232.674
L251.324 233.051
L251.535 233.051
L251.535 233.368
L251.675 233.368
L251.675 233.632
L251.884 233.632
L251.988 234.186
L252.057 234.186
L252.16 234.532
L252.297 234.532
L252.365 234.854
L252.5 234.854
L252.568 235.124
L252.803 235.124
L252.87 235.582
L252.97 235.582
L253.07 235.792
L253.464 235.9
L253.464 235.987
L253.789 235.987
L253.885 236.31
L254.363 236.376
L254.458 236.669
L254.801 236.749
L254.832 236.927
L255.11 237.008
L255.202 237.067
L257.29 237.157
L257.29 237.226
L257.46 237.226
L257.544 237.401
L258.856 237.512
L258.963 237.642
L259.174 237.706
L259.201 237.867
L259.332 237.867
L259.332 237.98
L259.515 237.98
L259.515 238.198
L259.645 238.198
L259.722 238.455
L259.877 238.455
L259.98 238.792
L260.107 238.792
L260.107 239.012
L260.259 239.012
L260.285 239.285
L260.486 239.285
L260.587 239.725
L260.662 239.809
L260.662 239.846
L260.786 239.846
L260.885 240.225
L261.107 240.225
L261.107 240.691
L261.399 240.691
L261.448 241.497
L261.52 241.497
L261.617 241.871
L261.809 241.871
L261.88 242.417
L261.975 242.417
L261.975 242.552
L262.165 242.552
L262.235 242.877
L262.469 242.977
L262.516 243.027
L262.655 243.027
L262.678 243.173
L262.931 243.173
L263.023 243.41
L263.431 243.512
L263.498 243.577
L263.81 243.664
L263.877 243.78
L264.097 243.836
L264.206 244.048
L264.811 244.138
L264.811 244.18
L265.381 244.27
L265.381 244.302
L265.919 244.374
L266.001 244.51
L266.164 244.536
L266.164 244.642
L266.306 244.642
L266.406 244.854
L266.547 244.898
L266.607 245.051
L266.726 245.154
L266.825 245.27
L266.964 245.381
L267.023 245.481
L267.121 245.481
L267.14 245.626
L267.238 245.626
L267.316 245.871
L267.49 245.931
L267.587 246.362
L267.702 246.362
L267.779 246.774
L267.836 246.852
L267.836 246.895
L267.988 246.895
L267.988 247.231
L268.12 247.231
L268.214 247.685
L268.29 247.685
L268.383 247.991
L268.551 247.991
L268.625 248.491
L268.717 248.491
L268.828 248.929
L268.901 248.929
L268.993 249.277
L269.102 249.277
L269.102 249.511
L269.229 249.511
L269.319 249.934
L269.391 250.027
L269.391 250.056
L269.642 250.056
L269.749 250.558
L269.855 250.64
L269.855 250.685
L269.978 250.685
L270.084 251.019
L270.189 251.019
L270.241 251.248
L270.345 251.248
L270.432 251.544
L270.604 251.544
L270.707 251.957
L270.844 251.957
L270.844 252.189
L271.065 252.189
L271.115 252.601
L271.216 252.601
L271.3 252.875
L271.4 252.875
L271.45 253.134
L271.517 253.134
L271.616 253.448
L271.798 253.448
L271.864 253.903
L271.962 253.903
L271.962 254.068
L272.19 254.068
L272.254 254.525
L272.351 254.599
L272.447 254.816
L272.544 254.816
L272.576 254.995
L272.671 254.995
L272.766 255.226
L272.909 255.246
L272.925 255.411
L273.05 255.411
L273.097 255.585
L273.253 255.585
L273.253 255.781
L273.378 255.781
L273.486 256.144
L273.701 256.223
L273.762 256.515
L273.854 256.515
L273.899 256.694
L273.99 256.796
L274.081 256.94
L274.202 256.991
L274.307 257.214
L274.396 257.31
L274.471 257.441
L274.575 257.441
L274.649 257.707
L274.752 257.785
L274.84 258.043
L274.957 258.043
L275.059 258.442
L275.19 258.493
L275.262 258.78
L275.392 258.879
L275.492 259.169
L275.692 259.233
L275.749 259.524
L275.918 259.605
L275.989 259.778
L276.115 259.778
L276.199 260.039
L276.324 260.14
L276.407 260.265
L276.531 260.358
L276.586 260.432
L276.709 260.432
L276.819 260.678
L276.955 260.739
L276.982 260.855
L277.265 260.951
L277.358 261.146
L277.663 261.25
L277.716 261.34
L277.991 261.434
L278.07 261.488
L278.341 261.581
L278.38 261.636
L278.648 261.678
L278.75 261.821
L279.015 261.912
L279.102 262.001
L279.252 262.098
L279.252 262.156
L279.438 262.156
L279.512 262.473
L279.622 262.564
L279.72 262.784
L279.83 262.784
L279.94 263.165
L280.012 263.165
L280.024 263.332
L280.133 263.332
L280.229 263.679
L280.372 263.74
L280.444 264.005
L280.527 264.005
L280.622 264.272
L280.763 264.272
L280.845 264.544
L280.974 264.592
L281.055 264.816
L281.194 264.858
L281.298 265.052
L281.436 265.159
L281.528 265.275
L281.664 265.335
L281.767 265.518
L281.936 265.603
L281.981 265.792
L282.115 265.792
L282.216 266.123
L282.304 266.216
L282.382 266.347
L282.547 266.347
L282.635 266.625
L282.777 266.684
L282.864 266.88
L282.962 266.984
L283.07 267.17
L283.156 267.259
L283.263 267.461
L283.349 267.536
L283.423 267.681
L283.508 267.681
L283.614 267.975
L283.709 267.975
L283.762 268.183
L283.835 268.28
L283.929 268.448
L284.075 268.448
L284.179 268.834
L284.292 268.921
L284.395 269.135
L284.487 269.135
L284.538 269.33
L284.661 269.33
L284.762 269.627
L284.843 269.627
L284.903 269.89
L284.974 269.89
L285.024 270.133
L285.094 270.133
L285.114 270.322
L285.263 270.322
L285.352 270.787
L285.422 270.851
L285.51 271.081
L285.569 271.184
L285.599 271.262
L285.706 271.262
L285.765 271.575
L285.853 271.575
L285.949 271.908
L286.123 271.983
L286.2 272.317
L286.286 272.373
L286.286 272.442
L286.439 272.442
L286.524 272.808
L286.609 272.91
L286.656 272.974
L286.769 273.079
L286.854 273.169
L286.975 273.192
L287.031 273.344
L287.17 273.344
L287.271 273.633
L287.391 273.743
L287.501 273.899
L287.583 274.001
L287.637 274.089
L287.737 274.175
L287.846 274.337
L288.088 274.443
L288.115 274.582
L288.302 274.69
L288.408 274.864
L288.566 274.966
L288.671 275.118
L288.802 275.203
L288.889 275.294
L289.045 275.401
L289.139 275.469
L289.293 275.568
L289.379 275.665
L289.599 275.769
L289.7 275.847
L289.851 275.933
L289.885 275.987
L290.184 276.088
L290.275 276.179
L290.431 276.277
L290.529 276.405
L290.716 276.487
L290.796 276.623
L290.933 276.694
L291.038 276.86
L291.157 276.959
L291.253 277.109
L291.364 277.128
L291.443 277.31
L291.608 277.42
L291.678 277.626
L291.787 277.727
L291.841 277.813
L291.95 277.916
L291.973 277.956
L292.135 278.06
L292.227 278.144
L292.554 278.254
L292.592 278.274
L292.862 278.35
L292.959 278.469
L293.085 278.57
L293.182 278.657
L293.439 278.763
L293.534 278.81
L293.752 278.912
L293.838 279.037
L293.982 279.148
L294.089 279.286
L294.217 279.389
L294.309 279.525
L294.43 279.621
L294.514 279.703
L294.64 279.807
L294.745 279.897
L294.981 279.997
L295.043 280.038
L295.262 280.143
L295.364 280.19
L295.689 280.292
L295.736 280.331
L295.99 280.437
L296.09 280.524
L296.347 280.628
L296.451 280.728
L296.621 280.815
L296.724 280.905
L297.014 281.005
L297.122 281.1
L297.376 281.208
L297.483 281.314
L297.677 281.415
L297.783 281.537
L297.988 281.638
L298.098 281.764
L298.227 281.863
L298.288 281.931
L298.416 281.996
L298.525 282.158
L298.688 282.263
L298.796 282.362
L299.004 282.459
L299.093 282.588
L299.276 282.668
L299.382 282.776
L299.592 282.885
L299.673 282.954
L299.863 283.062
L299.95 283.132
L300.223 283.243
L300.28 283.261
L300.696 283.342
L300.796 283.439
L301.061 283.543
L301.144 283.619
L301.313 283.717
L301.422 283.844
L301.519 283.944
L301.616 284.061
L301.734 284.149
L301.841 284.31
L301.985 284.4
L302.086 284.576
L302.223 284.678
L302.334 284.78
L302.464 284.857
L302.542 285.014
L302.62 285.121
L302.724 285.266
L302.848 285.352
L302.955 285.526
L303.068 285.61
L303.16 285.759
L303.276 285.814
L303.382 285.998
L303.538 286.104
L303.608 286.162
L303.956 286.271
L304.045 286.31
L304.435 286.406
L304.542 286.467
L304.944 286.57
L305.039 286.59
L305.966 286.693
L306.062 286.741
L306.388 286.843
L306.491 286.899
L306.71 287.006
L306.804 287.107
L307.011 287.211
L307.055 287.282
L307.195 287.364
L307.304 287.509
L307.448 287.604
L307.551 287.735
L307.681 287.824
L307.779 287.965
L307.899 288.074
L308.001 288.206
L308.085 288.309
L308.187 288.461
L308.292 288.543
L308.4 288.713
L308.53 288.821
L308.625 288.949
L308.712 289.013
L308.799 289.2
L308.901 289.278
L308.963 289.408
L309.081 289.497
L309.183 289.647
L309.276 289.697
L309.377 289.964
L309.461 290.065
L309.521 290.224
L309.605 290.328
L309.685 290.512
L309.757 290.609
L309.868 290.83
L309.947 290.926
L310.033 291.173
L310.092 291.265
L310.198 291.494
L310.256 291.605
L310.358 291.829
L310.427 291.934
L310.509 292.128
L310.57 292.195
L310.663 292.436
L310.743 292.485
L310.835 292.79
L310.911 292.876
L311.017 293.161
L311.085 293.161
L311.187 293.536
L311.274 293.644
L311.367 293.956
L311.42 294.003
L311.509 294.294
L311.568 294.382
L311.68 294.726
L311.731 294.819
L311.842 295.196
L311.919 295.271
L312.006 295.651
L312.061 295.74
L312.159 296.06
L312.203 296.147
L312.293 296.417
L312.337 296.495
L312.441 296.862
L312.52 296.964
L312.627 297.428
L312.681 297.428
L312.787 297.911
L312.837 298.009
L312.943 298.402
L312.988 298.467
L313.083 298.834
L313.122 298.929
L313.22 299.273
L313.272 299.34
L313.362 299.731
L313.407 299.797
L313.487 300.14
L313.522 300.14
L313.621 300.606
L313.673 300.71
L313.779 301.121
L313.82 301.221
L313.929 301.629
L313.98 301.735
L314.085 302.133
L314.145 302.133
L314.253 302.62
L314.313 302.689
L314.394 303.023
L314.437 303.023
L314.544 303.481
L314.593 303.555
L314.702 303.983
L314.742 303.983
L314.834 304.393
L314.88 304.393
L314.981 304.856
L315.06 304.947
L315.167 305.417
L315.235 305.491
L315.322 305.873
L315.371 305.873
L315.464 306.279
L315.512 306.336
L315.62 306.727
L315.665 306.746
L315.754 307.13
L315.798 307.13
L315.903 307.599
L315.944 307.63
L316.054 308.117
L316.085 308.197
L316.195 308.624
L316.251 308.699
L316.328 309.088
L316.363 309.088
L316.468 309.616
L316.502 309.726
L316.613 310.181
L316.65 310.229
L316.76 310.758
L316.79 310.804
L316.9 311.285
L316.942 311.384
L317.052 311.837
L317.091 311.848
L317.172 312.258
L317.214 312.366
L317.325 312.775
L317.367 312.869
L317.468 313.251
L317.51 313.362
L317.62 313.762
L317.661 313.839
L317.75 314.175
L317.797 314.264
L317.902 314.647
L317.952 314.717
L318.048 315.078
L318.086 315.161
L318.191 315.555
L318.234 315.605
L318.338 316.058
L318.381 316.058
L318.459 316.458
L318.493 316.458
L318.593 316.905
L318.63 316.991
L318.696 317.246
L318.747 317.246
L318.857 317.746
L318.899 317.754
L318.992 318.18
L319.046 318.288
L319.144 318.68
L319.194 318.773
L319.297 319.193
L319.336 319.277
L319.438 319.665
L319.494 319.665
L319.595 320.171
L319.637 320.274
L319.741 320.623
L319.782 320.718
L319.888 321.039
L319.937 321.134
L320.045 321.456
L320.094 321.541
L320.199 321.835
L320.26 321.944
L320.359 322.219
L320.407 322.277
L320.517 322.589
L320.575 322.68
L320.675 322.924
L320.739 323.029
L320.833 323.269
L320.883 323.36
L320.982 323.617
L321.032 323.698
L321.133 323.997
L321.185 324.093
L321.289 324.406
L321.332 324.509
L321.404 324.701
L321.456 324.701
L321.558 325.078
L321.624 325.183
L321.734 325.494
L321.802 325.599
L321.893 325.829
L321.961 325.933
L322.056 326.231
L322.124 326.307
L322.194 326.598
L322.236 326.598
L322.313 326.917
L322.363 327.021
L322.462 327.267
L322.526 327.361
L322.632 327.634
L322.695 327.724
L322.805 328.037
L322.864 328.13
L322.973 328.443
L323.024 328.523
L323.125 328.84
L323.168 328.84
L323.262 329.203
L323.312 329.312
L323.422 329.596
L323.472 329.707
L323.579 329.949
L323.633 330.059
L323.739 330.311
L323.81 330.418
L323.917 330.697
L323.987 330.801
L324.092 331.021
L324.162 331.124
L324.273 331.342
L324.342 331.43
L324.45 331.669
L324.539 331.754
L324.623 331.918
L324.719 332.019
L324.805 332.145
L324.902 332.225
L325.008 332.423
L325.097 332.532
L325.195 332.669
L325.296 332.773
L325.404 332.881
L325.567 332.984
L325.673 333.083
L325.845 333.186
L325.953 333.283
L326.092 333.393
L326.189 333.492
L326.296 333.595
L326.4 333.731
L326.502 333.842
L326.585 333.966
L326.678 334.071
L326.787 334.222
L326.9 334.328
L327.011 334.488
L327.119 334.597
L327.225 334.718
L327.336 334.822
L327.441 334.937
L327.588 335.045
L327.683 335.127
L327.866 335.237
L327.962 335.309
L328.142 335.417
L328.246 335.497
L328.375 335.594
L328.472 335.709
L328.599 335.807
L328.695 335.935
L328.805 336.038
L328.904 336.163
L329.003 336.273
L329.112 336.409
L329.224 336.502
L329.333 336.64
L329.479 336.738
L329.553 336.825
L329.708 336.934
L329.808 337.008
L329.961 337.117
L330.062 337.208
L330.226 337.31
L330.331 337.405
L330.458 337.51
L330.559 337.617
L330.66 337.718
L330.764 337.841
L330.878 337.94
L330.966 338.073
L331.057 338.182
L331.164 338.367
L331.232 338.463
L331.34 338.658
L331.42 338.769
L331.525 338.925
L331.613 339.02
L331.702 339.186
L331.776 339.296
L331.885 339.452
L332.001 339.559
L332.11 339.654
L332.244 339.754
L332.344 339.887
L332.457 339.947
L332.553 340.167
L332.641 340.263
L332.751 340.43
L332.868 340.519
L332.978 340.71
L333.061 340.818
L333.172 340.957
L333.291 341.066
L333.39 341.187
L333.54 341.295
L333.635 341.393
L333.766 341.502
L333.872 341.621
L333.991 341.723
L334.097 341.818
L334.27 341.913
L334.375 342.023
L334.522 342.125
L334.625 342.272
L334.722 342.368
L334.822 342.508
L334.915 342.618
L335.015 342.717
L335.177 342.825
L335.284 342.922
L335.406 343.032
L335.512 343.15
L335.63 343.258
L335.732 343.373
L335.849 343.45
L335.954 343.579
L336.079 343.68
L336.19 343.783
L336.371 343.88
L336.481 343.979
L336.602 344.088
L336.712 344.2
L336.819 344.305
L336.928 344.433
L337.026 344.543
L337.134 344.688
L337.237 344.799
L337.343 344.935
L337.462 345.034
L337.554 345.155
L337.658 345.257
L337.76 345.378
L337.875 345.465
L337.983 345.576
L338.174 345.687
L338.285 345.756
L339.693 345.867
L339.794 345.91
L340.223 346.019
L340.333 346.055
L340.507 346.162
L340.618 346.242
L340.786 346.35
L340.893 346.437
L341.041 346.536
L341.135 346.663
L341.263 346.761
L341.373 346.864
L341.51 346.966
L341.591 347.043
L341.753 347.149
L341.86 347.217
L342.045 347.32
L342.152 347.413
L342.311 347.524
L342.421 347.602
L342.568 347.709
L342.678 347.82
L342.796 347.926
L342.903 348.062
L342.993 348.165
L343.1 348.323
L343.199 348.427
L343.31 348.592
L343.392 348.703
L343.498 348.896
L343.57 348.998
L343.672 349.175
L343.748 349.27
L343.848 349.453
L343.934 349.563
L344.038 349.718
L344.142 349.806
L344.239 349.974
L344.327 350.083
L344.432 350.249
L344.502 350.347
L344.593 350.528
L344.651 350.636
L344.76 350.841
L344.825 350.926
L344.924 351.145
L344.995 351.255
L345.102 351.475
L345.173 351.585
L345.284 351.807
L345.353 351.914
L345.463 352.126
L345.53 352.222
L345.639 352.426
L345.712 352.536
L345.822 352.735
L345.882 352.833
L345.992 353.055
L346.062 353.138
L346.173 353.359
L346.245 353.468
L346.355 353.667
L346.421 353.766
L346.528 353.954
L346.597 354.059
L346.707 354.253
L346.773 354.356
L346.882 354.559
L346.946 354.655
L347.049 354.86
L347.117 354.963
L347.22 355.173
L347.293 355.281
L347.404 355.52
L347.459 355.624
L347.569 355.863
L347.632 355.969
L347.73 356.178
L347.796 356.276
L347.906 356.481
L347.971 356.57
L348.08 356.793
L348.141 356.902
L348.249 357.103
L348.311 357.21
L348.421 357.437
L348.484 357.533
L348.591 357.736
L348.661 357.84
L348.771 358.01
L348.847 358.121
L348.95 358.268
L349.042 358.376
L349.148 358.521
L349.256 358.63
L349.362 358.741
L349.476 358.843
L349.587 358.944
L349.794 359.047
L349.904 359.125
L350.036 359.231
L350.146 359.34
L350.27 359.451
L350.38 359.534
L350.51 359.644
L350.62 359.742
L350.75 359.851
L350.86 359.942
L351.094 360.052
L351.205 360.086
L351.452 360.192
L351.562 360.295
L351.7 360.4
L351.81 360.516
L351.938 360.621
L352.044 360.741
L352.138 360.851
L352.245 360.961
L352.367 361.067
L352.478 361.175
L352.603 361.285
L352.713 361.392
L352.861 361.503
L352.97 361.572
L353.135 361.683
L353.244 361.734
L354.562 361.624
L354.673 361.577
L354.941 361.468
L355.048 361.39
L355.204 361.279
L355.315 361.162
L355.441 361.051
L355.54 360.969
L355.711 360.858
L355.819 360.77
L355.959 360.66
L356.07 360.556
L356.191 360.447
L356.298 360.359
L356.495 360.248
L356.605 360.191
L356.773 360.081
L356.882 360.001
L357.049 359.89
L357.157 359.815
L357.337 359.705
L357.448 359.627
L357.588 359.518
L357.698 359.409
L357.819 359.299
L357.93 359.201
L358.07 359.091
L358.176 358.989
L358.32 358.881
L358.429 358.761
L358.525 358.65
L358.633 358.501
L358.707 358.4
L358.816 358.22
L358.898 358.109
L359.006 357.958
L359.09 357.849
L359.199 357.683
L359.287 357.578
L359.397 357.404
L359.464 357.294
L359.573 357.074
L359.633 356.969
L359.74 356.745
L359.795 356.642
L359.901 356.402
L359.956 356.299
L360.065 356.034
L360.114 355.949
L360.223 355.68
L360.279 355.571
L360.387 355.335
L360.441 355.229
L360.552 355
L360.609 354.892
L360.719 354.674
L360.779 354.566
L360.89 354.358
L360.964 354.253
L361.072 354.103
L361.165 353.993
L361.27 353.837
L361.352 353.727
L361.461 353.553
L361.529 353.442
L361.637 353.224
L361.7 353.114
L361.811 352.899
L361.867 352.795
L361.97 352.575
L362.03 352.471
L362.14 352.252
L362.197 352.154
L362.307 351.936
L362.372 351.829
L362.482 351.618
L362.558 351.51
L362.665 351.312
L362.733 351.206
L362.839 351
L362.899 350.889
L363.01 350.661
L363.066 350.554
L363.177 350.311
L363.231 350.208
L363.341 349.974
L363.4 349.864
L363.509 349.645
L363.567 349.537
L363.676 349.342
L363.745 349.232
L363.852 349.051
L363.917 348.947
L364.028 348.756
L364.097 348.648
L364.203 348.478
L364.283 348.372
L364.394 348.223
L364.476 348.113
L364.586 347.959
L364.673 347.856
L364.783 347.718
L364.93 347.611
L365.034 347.551
L365.621 347.441
L365.687 347.431
L365.731 347.433
L366.968 347.322
L367.078 347.305
L369.068 347.194
L369.178 347.186
L369.665 347.075
L369.773 347.012
L369.984 346.903
L370.092 346.829
L370.261 346.718
L370.371 346.631
L370.512 346.526
L370.621 346.423
L370.758 346.312
L370.865 346.258
L371.311 346.148
L371.421 346.122
L371.733 346.012
L371.841 345.976
L372.678 346.087
L372.789 346.106
L374.333 345.997
L374.443 345.925
L374.59 345.817
L374.699 345.72
L374.87 345.609
L374.98 345.543
L375.306 345.435
L375.415 345.369
L375.527 345.266
L375.637 345.134
L375.74 345.026
L375.849 344.901
L375.953 344.79
L376.062 344.682
L376.183 344.572
L376.291 344.491
L376.425 344.38
L376.535 344.273
L376.638 344.167
L376.747 344.01
L376.825 343.9
L376.934 343.743
L377 343.636
L377.109 343.437
L377.176 343.328
L377.287 343.156
L377.355 343.045
L377.465 342.838
L377.521 342.727
L377.631 342.489
L377.683 342.382
L377.793 342.131
L377.846 342.021
L377.955 341.794
L378.019 341.69
L378.129 341.506
L378.202 341.398
L378.311 341.227
L378.384 341.117
L378.494 340.943
L378.571 340.833
L378.682 340.678
L378.769 340.568
L378.88 340.433
L378.968 340.322
L379.078 340.168
L379.154 340.058
L379.265 339.864
L379.326 339.757
L379.435 339.564
L379.505 339.454
L379.616 339.296
L379.709 339.188
L379.817 339.052
L379.904 338.941
L380.013 338.764
L380.081 338.654
L380.19 338.462
L380.257 338.352
L380.368 338.165
L380.434 338.057
L380.544 337.884
L380.625 337.773
L380.735 337.636
L380.827 337.526
L380.934 337.4
L381.037 337.292
L381.148 337.174
L381.25 337.067
L381.361 336.946
L381.515 336.836
L381.624 336.762
L381.764 336.653
L381.875 336.546
L382.003 336.435
L382.112 336.322
L382.234 336.212
L382.343 336.099
L382.451 335.988
L382.561 335.861
L382.655 335.752
L382.765 335.64
L382.862 335.53
L382.972 335.375
L383.068 335.266
L383.178 335.119
L383.257 335.008
L383.368 334.85
L383.453 334.739
L383.564 334.587
L383.655 334.479
L383.765 334.343
L383.853 334.234
L383.962 334.112
L384.067 334.004
L384.176 333.868
L384.266 333.758
L384.377 333.633
L384.49 333.523
L384.6 333.416
L384.712 333.306
L384.823 333.186
L384.939 333.075
L385.049 332.96
L385.154 332.85
L385.263 332.74
L385.426 332.63
L385.537 332.55
L385.666 332.441
L385.777 332.348
L385.957 332.238
L386.067 332.17
L386.248 332.059
L386.358 332.003
L386.672 331.892
L386.783 331.856
L387.151 331.746
L387.26 331.719
L387.51 331.609
L387.621 331.557
L388.166 331.446
L388.276 331.425
L388.87 331.314
L388.981 331.296
L389.714 331.407
L389.821 331.436
L390.158 331.547
L390.269 331.578
L390.7 331.689
L390.81 331.725
L391.969 331.836
L392.079 331.9
L392.203 332.01
L392.313 332.108
L392.444 332.217
L392.555 332.314
L392.673 332.425
L392.784 332.52
L392.948 332.631
L393.058 332.687
L393.309 332.798
L393.419 332.852
L393.664 332.964
L393.775 333.015
L393.952 333.125
L394.062 333.195
L394.271 333.304
L394.382 333.377
L394.603 333.488
L394.714 333.534
L395.106 333.645
L395.217 333.677
L395.452 333.788
L395.562 333.869
L395.699 333.98
L395.809 334.069
L395.961 334.178
L396.071 334.284
L396.178 334.395
L396.289 334.505
L396.412 334.615
L396.523 334.726
L396.636 334.836
L396.747 334.936
L396.889 335.047
L397 335.136
L397.163 335.247
L397.273 335.299
L397.681 335.41
L397.792 335.443
L399.238 335.332
L399.349 335.296
L401.508 335.407
L401.619 335.479
L401.78 335.589
L401.89 335.663
L402.059 335.774
L402.169 335.859
L402.332 335.97
L402.441 336.053
L402.585 336.163
L402.696 336.233
L403.193 336.344
L403.302 336.393
L403.48 336.503
L403.591 336.583
L403.772 336.693
L403.883 336.789
L403.993 336.899
L404.102 337.011
L404.224 337.122
L404.335 337.222
L404.445 337.331
L404.556 337.452
L404.645 337.56
L404.756 337.714
L404.85 337.825
L404.959 337.969
L405.041 338.079
L405.151 338.243
L405.214 338.353
L405.324 338.546
L405.39 338.657
L405.5 338.855
L405.561 338.965
L405.671 339.185
L405.732 339.296
L405.841 339.489
L405.915 339.599
L406.025 339.756
L406.102 339.865
L406.213 340.024
L406.308 340.134
L406.419 340.256
L406.515 340.367
L406.626 340.5
L406.718 340.611
L406.828 340.743
L406.923 340.851
L407.034 340.972
L407.133 341.081
L407.244 341.206
L407.348 341.315
L407.459 341.436
L407.551 341.547
L407.662 341.701
L407.746 341.812
L407.856 341.949
L407.954 342.059
L408.063 342.179
L408.169 342.29
L408.28 342.394
L408.406 342.503
L408.517 342.625
L408.612 342.736
L408.723 342.867
L408.812 342.978
L408.923 343.123
L409.012 343.232
L409.123 343.368
L409.219 343.479
L409.33 343.606
L409.433 343.717
L409.543 343.83
L409.68 343.941
L409.79 344.003
L409.986 344.114
L410.097 344.187
L410.407 344.298
L410.517 344.331
L410.942 344.442
L411.052 344.464
L411.674 344.575
L411.785 344.59
L412.083 344.7
L412.194 344.765
L412.384 344.876
L412.495 344.973
L412.658 345.084
L412.769 345.168
L412.886 345.279
L412.996 345.391
L413.116 345.502
L413.227 345.58
L413.376 345.689
L413.487 345.784
L413.61 345.895
L413.721 345.968
L413.86 346.079
L413.97 346.151
L414.148 346.262
L414.259 346.353
L414.374 346.463
L414.485 346.585
L414.601 346.695
L414.712 346.799
L414.831 346.909
L414.942 347.023
L415.049 347.134
L415.16 347.272
L415.237 347.382
L415.348 347.542
L415.43 347.652
L415.541 347.815
L415.615 347.926
L415.725 348.103
L415.796 348.214
L415.907 348.384
L415.977 348.495
L416.087 348.67
L416.157 348.78
L416.268 348.964
L416.334 349.075
L416.445 349.274
L416.508 349.385
L416.62 349.575
L416.686 349.685
L416.797 349.875
L416.861 349.986
L416.972 350.168
L417.045 350.279
L417.156 350.443
L417.235 350.554
L417.345 350.713
L417.422 350.824
L417.532 350.994
L417.601 351.105
L417.712 351.28
L417.785 351.391
L417.896 351.568
L417.957 351.678
L418.067 351.889
L418.127 352
L418.238 352.212
L418.295 352.323
L418.406 352.544
L418.465 352.653
L418.576 352.868
L418.635 352.979
L418.746 353.204
L418.801 353.315
L418.912 353.532
L418.972 353.643
L419.082 353.865
L419.135 353.975
L419.246 354.225
L419.301 354.336
L419.412 354.536
L419.478 354.647
L419.589 354.827
L419.667 354.938
L419.777 355.095
L419.858 355.205
L419.969 355.356
L420.048 355.465
L420.159 355.621
L420.241 355.731
L420.352 355.88
L420.438 355.99
L420.548 356.122
L420.64 356.232
L420.751 356.348
L420.849 356.458
L420.959 356.594
L421.049 356.706
L421.16 356.833
L421.252 356.943
L421.363 357.064
L421.467 357.175
L421.578 357.307
L421.669 357.418
L421.78 357.561
L421.871 357.671
L421.982 357.805
L422.086 357.916
L422.198 358.022
L422.306 358.133
L422.417 358.242
L422.538 358.353
L422.648 358.456
L422.769 358.566
L422.879 358.686
L422.987 358.797
L423.098 358.888
L423.213 358.999
L423.324 359.125
L423.436 359.235
L423.547 359.352
L423.645 359.463
L423.755 359.599
L423.851 359.71
L423.962 359.844
L424.052 359.955
L424.163 360.106
L424.24 360.217
L424.351 360.369
L424.438 360.48
L424.548 360.635
L424.624 360.744
L424.735 360.926
L424.806 361.037
L424.917 361.205
L424.985 361.316
L425.096 361.478
L425.178 361.588
L425.289 361.729
L425.382 361.84
L425.493 361.962
L425.605 362.072
L425.715 362.174
L425.813 362.284
L425.924 362.422
L426.001 362.533
L426.112 362.701
L426.18 362.812
L426.291 362.988
L426.369 363.098
L426.48 363.263
L426.548 363.374
L426.658 363.576
L426.721 363.687
L426.832 363.889
L426.893 364
L427.004 364.205
L427.062 364.315
L427.173 364.539
L427.228 364.65
L427.339 364.868
L427.394 364.978
L427.505 365.196
L427.56 365.306
L427.671 365.536
L427.725 365.647
L427.835 365.853
L427.902 365.964
L428.012 366.14
L428.08 366.251
L428.191 366.436
L428.26 366.547
L428.371 366.723
L428.438 366.833
L428.549 367.038
L428.612 367.149
L428.722 367.325
L428.795 367.436
L428.906 367.62
L428.968 367.73
L429.079 367.921
L429.155 368.031
L429.266 368.182
L429.353 368.293
L429.463 368.455
L429.54 368.566
L429.651 368.723
L429.722 368.834
L429.833 369.004
L429.907 369.115
L430.018 369.293
L430.087 369.404
L430.198 369.579
L430.271 369.689
L430.382 369.844
L430.46 369.955
L430.571 370.118
L430.645 370.228
L430.756 370.419
L430.82 370.529
L430.931 370.74
L430.983 370.851
L431.094 371.076
L431.144 371.185
L431.255 371.442
L431.302 371.551
L431.413 371.819
L431.459 371.929
L431.57 372.205
L431.613 372.315
L431.724 372.608
L431.765 372.718
L431.876 373.027
L431.916 373.137
L432.027 373.451
L432.066 373.562
L432.177 373.879
L432.216 373.989
L432.327 374.323
L432.364 374.434
L432.475 374.768
L432.513 374.878
L432.624 375.201
L432.663 375.312
L432.774 375.619
L432.816 375.73
L432.927 376.035
L432.97 376.146
L433.081 376.433
L433.125 376.544
L433.236 376.826
L433.28 376.937
L433.391 377.204
L433.441 377.315
L433.552 377.558
L433.606 377.669
L433.717 377.876
L433.779 377.987
L433.889 378.176
L433.953 378.286
L434.063 378.488
L434.119 378.598
L434.23 378.811
L434.296 378.922
L434.407 379.107
L434.472 379.218
L434.583 379.421
L434.643 379.531
L434.754 379.762
L434.806 379.873
L434.917 380.102
L434.972 380.213
L435.083 380.414
L435.15 380.525
L435.261 380.708
L435.326 380.818
L435.437 381.015
L435.504 381.126
L435.614 381.295
L435.689 381.406
L435.8 381.561
L435.894 381.672
L436.005 381.782
L436.106 381.893
L436.217 382.025
L436.3 382.136
L436.411 382.276
L436.495 382.386
L436.606 382.531
L436.689 382.642
L436.8 382.796
L436.875 382.906
L436.986 383.062
L437.071 383.173
L437.182 383.309
L437.278 383.419
L437.389 383.551
L437.483 383.662
L437.594 383.773
L437.739 383.884
L437.849 383.952
L438.062 384.063
L438.172 384.122
L438.39 384.233
L438.502 384.3
L438.718 384.411
L438.829 384.486
L438.967 384.597
L439.079 384.696
L439.226 384.807
L439.337 384.894
L439.482 385.005
L439.593 385.105
L439.734 385.216
L439.844 385.295
L439.991 385.406
L440.103 385.495
L440.232 385.606
L440.343 385.726
L440.459 385.837
L440.57 385.956
L440.662 386.067
L440.772 386.2
L440.869 386.311
L440.98 386.461
L441.072 386.572
L441.183 386.697
L441.282 386.808
L441.393 386.914
L441.568 387.025
L441.679 387.063
L441.888 387.174
L441.999 387.225
L443.053 387.337
L443.164 387.362
L444.173 387.473
L444.284 387.526
L444.486 387.637
L444.597 387.714
L444.729 387.825
L444.84 387.911
L444.98 388.022
L445.091 388.109
L445.228 388.22
L445.339 388.302
L445.561 388.413
L445.672 388.449
L445.898 388.56
L446.009 388.631
L446.211 388.742
L446.322 388.824
L446.483 388.935
L446.594 389.008
L446.777 389.119
L446.888 389.193
L447.028 389.304
L447.139 389.386
L447.299 389.497
L447.41 389.575
L447.638 389.687
L447.749 389.732
L447.981 389.843
L448.091 389.907
L448.417 390.018
L448.528 390.052
L449.4 389.941
L449.446 389.936
L449.511 389.94
L450.334 390.051
L450.445 390.077
L451.02 390.188
L451.131 390.208
L451.596 390.319
L451.673 390.334
L451.707 390.33
L452.308 390.219
L452.419 390.17
L452.626 390.059
L452.737 389.998
L452.9 389.887
L453.011 389.826
L453.282 389.715
L453.393 389.66
L453.842 389.549
L453.953 389.525
L454.349 389.414
L454.46 389.368
L454.764 389.257
L454.875 389.203
L455.049 389.092
L455.16 389.013
L455.291 388.902
L455.402 388.787
L455.489 388.676
L455.6 388.502
L455.667 388.39
L455.778 388.201
L455.848 388.09
L455.959 387.913
L456.027 387.803
L456.137 387.613
L456.207 387.502
L456.318 387.322
L456.392 387.211
L456.503 387.057
L456.591 386.946
L456.702 386.813
L456.795 386.702
L456.906 386.568
L456.991 386.458
L457.102 386.303
L457.183 386.192
L457.294 386.037
L457.371 385.926
L457.482 385.761
L457.57 385.65
L457.681 385.52
L457.794 385.409
L457.905 385.305
L458.037 385.194
L458.148 385.112
L458.293 385.001
L458.404 384.906
L458.526 384.795
L458.637 384.699
L458.767 384.588
L458.878 384.487
L458.996 384.376
L459.107 384.272
L459.223 384.161
L459.334 384.063
L459.484 383.952
L459.594 383.902
L459.802 383.791
L459.913 383.704
L460.038 383.593
L460.149 383.502
L460.283 383.391
L460.394 383.298
L460.551 383.187
L460.662 383.085
L460.782 382.974
L460.893 382.861
L461.021 382.75
L461.132 382.656
L461.265 382.545
L461.376 382.441
L461.482 382.33
L461.593 382.222
L461.712 382.111
L461.823 382.013
L461.997 381.902
L462.108 381.835
L462.38 381.724
L462.491 381.664
L462.674 381.553
L462.785 381.486
L463.085 381.375
L463.196 381.337
L463.807 381.225
L463.918 381.21
L465.455 381.322
L465.551 381.331
L465.566 381.33
L466.591 381.219
L466.702 381.182
L466.965 381.071
L467.076 381.012
L467.25 380.901
L467.361 380.811
L467.505 380.7
L467.617 380.608
L467.76 380.497
L467.871 380.419
L467.994 380.308
L468.105 380.188
L468.218 380.077
L468.329 379.979
L468.463 379.868
L468.574 379.79
L468.729 379.679
L468.84 379.6
L469.018 379.489
L469.129 379.41
L469.256 379.299
L469.367 379.166
L469.459 379.055
L469.57 378.915
L469.651 378.804
L469.762 378.636
L469.832 378.525
L469.943 378.364
L470.024 378.253
L470.135 378.11
L470.221 377.998
L470.332 377.857
L470.418 377.747
L470.529 377.606
L470.632 377.495
L470.743 377.379
L470.852 377.268
L470.963 377.152
L471.057 377.041
L471.168 376.911
L471.26 376.8
L471.371 376.671
L471.461 376.56
L471.572 376.432
L471.67 376.321
L471.781 376.197
L471.881 376.086
L471.992 375.973
L472.099 375.862
L472.21 375.768
L472.315 375.657
L472.426 375.52
L472.512 375.409
L472.623 375.273
L472.707 375.162
L472.818 374.992
L472.887 374.881
L472.998 374.727
L473.085 374.616
L473.196 374.471
L473.285 374.36
L473.396 374.218
L473.471 374.107
L473.582 373.942
L473.656 373.831
L473.767 373.673
L473.836 373.562
L473.947 373.37
L474.016 373.259
L474.127 373.09
L474.202 372.979
L474.313 372.814
L474.384 372.704
L474.495 372.525
L474.562 372.414
L474.673 372.225
L474.737 372.114
L474.848 371.91
L474.907 371.799
L475.018 371.613
L475.099 371.502
L475.21 371.35
L475.29 371.239
L475.401 371.077
L475.483 370.966
L475.594 370.814
L475.673 370.703
L475.784 370.526
L475.848 370.415
L475.959 370.209
L476.012 370.098
L476.123 369.869
L476.18 369.758
L476.291 369.543
L476.346 369.432
L476.457 369.221
L476.517 369.11
L476.628 368.894
L476.682 368.783
L476.793 368.554
L476.849 368.443
L476.96 368.215
L477.012 368.103
L477.123 367.862
L477.176 367.752
L477.287 367.538
L477.347 367.427
L477.458 367.223
L477.518 367.112
L477.629 366.899
L477.691 366.788
L477.802 366.604
L477.879 366.494
L477.99 366.338
L478.077 366.227
L478.188 366.098
L478.295 365.987
L478.406 365.87
L478.493 365.759
L478.604 365.603
L478.688 365.492
L478.799 365.338
L478.885 365.227
L478.996 365.063
L479.061 364.951
L479.172 364.763
L479.239 364.651
L479.35 364.473
L479.413 364.362
L479.524 364.165
L479.584 364.053
L479.695 363.851
L479.753 363.74
L479.864 363.512
L479.919 363.401
L480.03 363.185
L480.086 363.074
L480.197 362.872
L480.262 362.761
L480.373 362.578
L480.446 362.466
L480.557 362.309
L480.635 362.198
L480.747 362.042
L480.824 361.931
L480.936 361.78
L481.016 361.668
L481.127 361.521
L481.217 361.41
L481.328 361.271
L481.415 361.159
L481.526 360.997
L481.606 360.886
L481.717 360.725
L481.787 360.614
L481.899 360.435
L481.97 360.324
L482.081 360.149
L482.15 360.038
L482.261 359.883
L482.343 359.772
L482.454 359.624
L482.543 359.513
L482.654 359.365
L482.756 359.254
L482.867 359.139
L482.987 359.028
L483.098 358.951
L483.288 358.84
L483.399 358.794
L483.691 358.683
L483.802 358.652
L484.594 358.541
L484.706 358.536
L485.898 358.425
L485.992 358.415
L486.009 358.415
L487.529 358.304
L487.64 358.276
L487.918 358.165
L488.03 358.117
L488.252 358.006
L488.363 357.955
L488.868 357.844
L488.974 357.83
L488.979 357.83
L490.335 357.941
L490.446 357.965
L491.076 358.076
L491.187 358.097
L491.563 358.208
L491.674 358.262
L492.088 358.373
L492.2 358.392
L492.573 358.503
L492.684 358.56
L492.894 358.671
L493.005 358.724
L493.173 358.835
L493.284 358.912
L493.463 359.023
L493.575 359.087
L493.777 359.198
L493.888 359.253
L494.115 359.364
L494.226 359.428
L494.454 359.539
L494.565 359.61
L494.736 359.721
L494.847 359.83
L494.971 359.941
L495.082 360.026
L495.196 360.137
L495.307 360.271
L495.393 360.382
L495.504 360.521
L495.597 360.632
L495.708 360.777
L495.796 360.888
L495.907 361.023
L495.991 361.134
L496.102 361.295
L496.177 361.406
L496.288 361.557
L496.371 361.668
L496.482 361.79
L496.614 361.901
L496.725 362.01
L496.829 362.121
L496.94 362.233
L497.055 362.344
L497.166 362.447
L497.278 362.558
L497.389 362.691
L497.48 362.802
L497.591 362.924
L497.727 363.035
L497.838 363.105
L497.989 363.216
L498.1 363.29
L498.29 363.401
L498.401 363.445
L498.796 363.556
L498.907 363.615
L499.064 363.726
L499.175 363.788
L499.467 363.899
L499.578 363.962
L499.828 364.073
L499.939 364.125
L500.126 364.236
L500.237 364.301
L500.434 364.412
L500.545 364.474
L500.725 364.585
L500.836 364.671
L500.989 364.782
L501.1 364.838
L501.399 364.95
L501.51 364.993
L501.763 365.104
L501.874 365.146
L502.097 365.257
L502.208 365.302
L503.331 365.413
L503.442 365.453
L503.764 365.564
L503.875 365.61
L504.088 365.721
L504.2 365.779
L504.451 365.89
L504.562 365.958
L504.742 366.069
L504.853 366.139
L505.053 366.251
L505.164 366.318
L505.31 366.429
L505.421 366.513
L505.538 366.625
L505.649 366.725
L505.752 366.836
L505.864 366.95
L505.972 367.062
L506.083 367.173
L506.207 367.285
L506.318 367.373
L506.479 367.484
L506.59 367.573
L506.749 367.684
L506.86 367.758
L507.028 367.869
L507.139 367.957
L507.29 368.068
L507.401 368.15
L507.58 368.261
L507.691 368.306
L508.061 368.417
L508.172 368.464
L508.498 368.575
L508.609 368.614
L509.706 368.503
L509.817 368.469
L510.137 368.357
L510.248 368.291
L510.431 368.18
L510.542 368.112
L510.742 368.001
L510.854 367.957
L511.332 367.845
L511.444 367.819
L512.459 367.93
L512.57 368.009
L512.722 368.12
L512.834 368.188
L513.024 368.299
L513.135 368.36
L513.28 368.471
L513.391 368.555
L513.543 368.666
L513.655 368.744
L513.897 368.855
L514.009 368.883
L514.542 368.994
L514.653 369.034
L514.922 369.145
L515.033 369.2
L515.254 369.311
L515.365 369.379
L515.566 369.491
L515.677 369.546
L515.878 369.657
L515.989 369.72
L516.237 369.831
L516.348 369.86
L516.609 369.971
L516.72 370.066
L516.851 370.177
L516.962 370.248
L517.141 370.359
L517.252 370.417
L517.505 370.528
L517.616 370.578
L517.803 370.69
L517.914 370.746
L518.1 370.857
L518.211 370.925
L518.397 371.037
L518.508 371.119
L518.646 371.23
L518.757 371.33
L518.894 371.441
L519.005 371.545
L519.123 371.656
L519.234 371.749
L519.365 371.86
L519.476 371.963
L519.592 372.074
L519.703 372.178
L519.836 372.289
L519.947 372.382
L520.079 372.493
L520.19 372.579
L520.38 372.69
L520.491 372.729
L520.859 372.84
L520.97 372.905
L521.161 373.016
L521.272 373.092
L521.421 373.203
L521.532 373.302
L521.646 373.413
L521.758 373.536
L521.851 373.647
L521.962 373.772
L522.063 373.883
L522.174 374.013
L522.27 374.124
L522.381 374.247
L522.511 374.359
L522.622 374.439
L522.746 374.55
L522.857 374.645
L522.994 374.756
L523.105 374.839
L523.262 374.95
L523.374 375.038
L523.507 375.149
L523.618 375.249
L523.757 375.36
L523.868 375.46
L523.968 375.572
L524.079 375.685
L524.201 375.796
L524.312 375.892
L524.439 376.004
L524.55 376.091
L524.685 376.202
L524.796 376.298
L524.927 376.409
L525.038 376.488
L525.214 376.599
L525.325 376.661
L525.636 376.772
L525.748 376.813
L526.031 376.924
L526.142 376.983
L526.328 377.094
L526.439 377.153
L526.608 377.264
L526.719 377.329
L526.928 377.44
L527.039 377.49
L527.304 377.601
L527.415 377.654
L527.661 377.765
L527.772 377.81
L527.992 377.921
L528.103 377.991
L528.255 378.102
L528.366 378.177
L528.533 378.288
L528.644 378.366
L528.827 378.477
L528.938 378.555
L529.073 378.666
L529.184 378.766
L529.314 378.877
L529.425 378.963
L529.564 379.074
L529.675 379.174
L529.807 379.285
L529.918 379.384
L530.066 379.495
L530.177 379.576
L530.327 379.687
L530.438 379.786
L530.569 379.897
L530.681 380.008
L530.777 380.119
L530.888 380.255
L530.988 380.366
L531.099 380.507
L531.175 380.619
L531.286 380.763
L531.376 380.874
L531.488 381.017
L531.572 381.128
L531.683 381.275
L531.765 381.386
L531.876 381.553
L531.949 381.664
L532.06 381.815
L532.142 381.926
L532.253 382.09
L532.332 382.201
L532.443 382.348
L532.523 382.459
L532.634 382.625
L532.704 382.736
L532.816 382.922
L532.879 383.033
L532.99 383.231
L533.053 383.342
L533.164 383.521
L533.234 383.632
L533.345 383.803
L533.42 383.914
L533.531 384.069
L533.605 384.18
L533.716 384.35
L533.784 384.462
L533.895 384.656
L533.96 384.767
L534.071 384.959
L534.133 385.07
L534.244 385.26
L534.309 385.371
L534.42 385.554
L534.489 385.666
L534.6 385.847
L534.665 385.958
L534.776 386.16
L534.837 386.271
L534.948 386.472
L535.007 386.584
L535.119 386.789
L535.183 386.9
L535.294 387.1
L535.357 387.211
L535.468 387.399
L535.536 387.51
L535.647 387.677
L535.718 387.788
L535.829 387.947
L535.904 388.058
L536.016 388.221
L536.091 388.332
L536.202 388.491
L536.287 388.602
L536.398 388.754
L536.477 388.865
L536.588 389.027
L536.67 389.138
L536.781 389.279
L536.867 389.39
L536.978 389.53
L537.061 389.642
L537.173 389.797
L537.258 389.908
L537.369 390.033
L537.461 390.144
L537.572 390.268
L537.672 390.379
L537.783 390.497
L537.895 390.608
L538.006 390.72
L538.117 390.831
L538.228 390.917
L538.38 391.028
L538.491 391.107
L538.651 391.218
L538.762 391.28
L538.936 391.391
L539.048 391.459
L539.299 391.57
L539.411 391.613
L539.649 391.724
L539.76 391.791
L539.954 391.902
L540.065 391.973
L540.386 392.084
L540.497 392.118
L540.886 392.229
L540.997 392.305
L541.144 392.416
L541.255 392.526
L541.373 392.637
L541.484 392.751
L541.591 392.862
L541.702 392.993
L541.788 393.104
L541.9 393.258
L541.982 393.369
L542.093 393.508
L542.183 393.619
L542.294 393.74
L542.407 393.851
L542.518 393.957
L542.631 394.068
L542.742 394.169
L542.857 394.281
L542.968 394.387
L543.094 394.498
L543.205 394.582
L543.346 394.693
L543.457 394.805
L543.582 394.916
L543.693 395.017
L543.821 395.128
L543.932 395.239
L544.031 395.35
L544.142 395.456
L544.281 395.568
L544.392 395.651
L544.546 395.762
L544.657 395.833
L544.865 395.944
L544.976 396.001
L545.205 396.112
L545.316 396.174
L545.488 396.285
L545.599 396.359
L545.781 396.47
L545.892 396.524
L546.087 396.635
L546.198 396.701
L546.413 396.812
L546.524 396.87
L546.816 396.981
L546.927 397.018
L547.267 397.129
L547.379 397.176
L547.83 397.287
L547.937 397.315
L547.937 397.315" style="fill:none;stroke:#0000ff;stroke-width:5.0;"/>
   </g>
   <g id="matplotlib.axis_1">
    <g id="xtick_1">
     <g id="line2d_2">
      <path d="
M189.316 404.965
L189.316 7.2" style="fill:none;stroke:#000000;stroke-dasharray:1.000000,3.000000;stroke-dashoffset:0.0;stroke-linecap:butt;stroke-width:0.5;"/>
     </g>
     <g id="line2d_3">
      <defs>
       <path d="
M0 0
L0 -4" id="m0b76e7f699"/>
      </defs>
      <g>
       <use style="stroke:#000000;stroke-linecap:butt;stroke-width:0.5;" x="189.316060486" xlink:href="#m0b76e7f699" y="181.833946561"/>
      </g>
     </g>
     <g id="text_1">
      <!-- 5 -->
      <defs>
       <path d="
M10.7969 72.9062
L49.5156 72.9062
L49.5156 64.5938
L19.8281 64.5938
L19.8281 46.7344
Q21.9688 47.4688 24.1094 47.8281
Q26.2656 48.1875 28.4219 48.1875
Q40.625 48.1875 47.75 41.5
Q54.8906 34.8125 54.8906 23.3906
Q54.8906 11.625 47.5625 5.09375
Q40.2344 -1.42188 26.9062 -1.42188
Q22.3125 -1.42188 17.5469 -0.640625
Q12.7969 0.140625 7.71875 1.70312
L7.71875 11.625
Q12.1094 9.23438 16.7969 8.0625
Q21.4844 6.89062 26.7031 6.89062
Q35.1562 6.89062 40.0781 11.3281
Q45.0156 15.7656 45.0156 23.3906
Q45.0156 31 40.0781 35.4375
Q35.1562 39.8906 26.7031 39.8906
Q22.75 39.8906 18.8125 39.0156
Q14.8906 38.1406 10.7969 36.2812
z
" id="BitstreamVeraSans-Roman-35"/>
      </defs>
      <g transform="translate(183.655435486 203.331446561)scale(0.24 -0.24)">
       <use xlink:href="#BitstreamVeraSans-Roman-35"/>
      </g>
     </g>
    </g>
    <g id="xtick_2">
     <g id="line2d_4">
      <path d="
M322.924 404.965
L322.924 7.2" style="fill:none;stroke:#000000;stroke-dasharray:1.000000,3.000000;stroke-dashoffset:0.0;stroke-linecap:butt;stroke-width:0.5;"/>
     </g>
     <g id="line2d_5">
      <defs>
       <path d="
M0 0
L0 -4" id="m0b76e7f699"/>
      </defs>
      <g>
       <use style="stroke:#000000;stroke-linecap:butt;stroke-width:0.5;" x="322.923686165" xlink:href="#m0b76e7f699" y="181.833946561"/>
      </g>
     </g>
     <g id="text_2">
      <!-- 10 -->
      <defs>
       <path d="
M31.7812 66.4062
Q24.1719 66.4062 20.3281 58.9062
Q16.5 51.4219 16.5 36.375
Q16.5 21.3906 20.3281 13.8906
Q24.1719 6.39062 31.7812 6.39062
Q39.4531 6.39062 43.2812 13.8906
Q47.125 21.3906 47.125 36.375
Q47.125 51.4219 43.2812 58.9062
Q39.4531 66.4062 31.7812 66.4062
M31.7812 74.2188
Q44.0469 74.2188 50.5156 64.5156
Q56.9844 54.8281 56.9844 36.375
Q56.9844 17.9688 50.5156 8.26562
Q44.0469 -1.42188 31.7812 -1.42188
Q19.5312 -1.42188 13.0625 8.26562
Q6.59375 17.9688 6.59375 36.375
Q6.59375 54.8281 13.0625 64.5156
Q19.5312 74.2188 31.7812 74.2188" id="BitstreamVeraSans-Roman-30"/>
       <path d="
M12.4062 8.29688
L28.5156 8.29688
L28.5156 63.9219
L10.9844 60.4062
L10.9844 69.3906
L28.4219 72.9062
L38.2812 72.9062
L38.2812 8.29688
L54.3906 8.29688
L54.3906 0
L12.4062 0
z
" id="BitstreamVeraSans-Roman-31"/>
      </defs>
      <g transform="translate(309.768686165 203.646446561)scale(0.24 -0.24)">
       <use xlink:href="#BitstreamVeraSans-Roman-31"/>
       <use x="63.623046875" xlink:href="#BitstreamVeraSans-Roman-30"/>
      </g>
     </g>
    </g>
    <g id="xtick_3">
     <g id="line2d_6">
      <path d="
M456.531 404.965
L456.531 7.2" style="fill:none;stroke:#000000;stroke-dasharray:1.000000,3.000000;stroke-dashoffset:0.0;stroke-linecap:butt;stroke-width:0.5;"/>
     </g>
     <g id="line2d_7">
      <defs>
       <path d="
M0 0
L0 -4" id="m0b76e7f699"/>
      </defs>
      <g>
       <use style="stroke:#000000;stroke-linecap:butt;stroke-width:0.5;" x="456.531311843" xlink:href="#m0b76e7f699" y="181.833946561"/>
      </g>
     </g>
     <g id="text_3">
      <!-- 15 -->
      <g transform="translate(443.627561843 203.331446561)scale(0.24 -0.24)">
       <use xlink:href="#BitstreamVeraSans-Roman-31"/>
       <use x="63.623046875" xlink:href="#BitstreamVeraSans-Roman-35"/>
      </g>
     </g>
    </g>
    <g id="xtick_4">
     <g id="line2d_8">
      <defs>
       <path d="
M0 0
L0 -2" id="m5dce585160"/>
      </defs>
      <g>
       <use style="stroke:#000000;stroke-linecap:butt;stroke-width:0.5;" x="82.429959943" xlink:href="#m5dce585160" y="181.833946561"/>
      </g>
     </g>
    </g>
    <g id="xtick_5">
     <g id="line2d_9">
      <defs>
       <path d="
M0 0
L0 -2" id="m5dce585160"/>
      </defs>
      <g>
       <use style="stroke:#000000;stroke-linecap:butt;stroke-width:0.5;" x="109.151485079" xlink:href="#m5dce585160" y="181.833946561"/>
      </g>
     </g>
    </g>
    <g id="xtick_6">
     <g id="line2d_10">
      <defs>
       <path d="
M0 0
L0 -2" id="m5dce585160"/>
      </defs>
      <g>
       <use style="stroke:#000000;stroke-linecap:butt;stroke-width:0.5;" x="135.873010214" xlink:href="#m5dce585160" y="181.833946561"/>
      </g>
     </g>
    </g>
    <g id="xtick_7">
     <g id="line2d_11">
      <defs>
       <path d="
M0 0
L0 -2" id="m5dce585160"/>
      </defs>
      <g>
       <use style="stroke:#000000;stroke-linecap:butt;stroke-width:0.5;" x="162.59453535" xlink:href="#m5dce585160" y="181.833946561"/>
      </g>
     </g>
    </g>
    <g id="xtick_8">
     <g id="line2d_12">
      <defs>
       <path d="
M0 0
L0 -2" id="m5dce585160"/>
      </defs>
      <g>
       <use style="stroke:#000000;stroke-linecap:butt;stroke-width:0.5;" x="216.037585622" xlink:href="#m5dce585160" y="181.833946561"/>
      </g>
     </g>
    </g>
    <g id="xtick_9">
     <g id="line2d_13">
      <defs>
       <path d="
M0 0
L0 -2" id="m5dce585160"/>
      </defs>
      <g>
       <use style="stroke:#000000;stroke-linecap:butt;stroke-width:0.5;" x="242.759110757" xlink:href="#m5dce585160" y="181.833946561"/>
      </g>
     </g>
    </g>
    <g id="xtick_10">
     <g id="line2d_14">
      <defs>
       <path d="
M0 0
L0 -2" id="m5dce585160"/>
      </defs>
      <g>
       <use style="stroke:#000000;stroke-linecap:butt;stroke-width:0.5;" x="269.480635893" xlink:href="#m5dce585160" y="181.833946561"/>
      </g>
     </g>
    </g>
    <g id="xtick_11">
     <g id="line2d_15">
      <defs>
       <path d="
M0 0
L0 -2" id="m5dce585160"/>
      </defs>
      <g>
       <use style="stroke:#000000;stroke-linecap:butt;stroke-width:0.5;" x="296.202161029" xlink:href="#m5dce585160" y="181.833946561"/>
      </g>
     </g>
    </g>
    <g id="xtick_12">
     <g id="line2d_16">
      <defs>
       <path d="
M0 0
L0 -2" id="m5dce585160"/>
      </defs>
      <g>
       <use style="stroke:#000000;stroke-linecap:butt;stroke-width:0.5;" x="349.6452113" xlink:href="#m5dce585160" y="181.833946561"/>
      </g>
     </g>
    </g>
    <g id="xtick_13">
     <g id="line2d_17">
      <defs>
       <path d="
M0 0
L0 -2" id="m5dce585160"/>
      </defs>
      <g>
       <use style="stroke:#000000;stroke-linecap:butt;stroke-width:0.5;" x="376.366736436" xlink:href="#m5dce585160" y="181.833946561"/>
      </g>
     </g>
    </g>
    <g id="xtick_14">
     <g id="line2d_18">
      <defs>
       <path d="
M0 0
L0 -2" id="m5dce585160"/>
      </defs>
      <g>
       <use style="stroke:#000000;stroke-linecap:butt;stroke-width:0.5;" x="403.088261572" xlink:href="#m5dce585160" y="181.833946561"/>
      </g>
     </g>
    </g>
    <g id="xtick_15">
     <g id="line2d_19">
      <defs>
       <path d="
M0 0
L0 -2" id="m5dce585160"/>
      </defs>
      <g>
       <use style="stroke:#000000;stroke-linecap:butt;stroke-width:0.5;" x="429.809786707" xlink:href="#m5dce585160" y="181.833946561"/>
      </g>
     </g>
    </g>
    <g id="xtick_16">
     <g id="line2d_20">
      <defs>
       <path d="
M0 0
L0 -2" id="m5dce585160"/>
      </defs>
      <g>
       <use style="stroke:#000000;stroke-linecap:butt;stroke-width:0.5;" x="483.252836979" xlink:href="#m5dce585160" y="181.833946561"/>
      </g>
     </g>
    </g>
    <g id="xtick_17">
     <g id="line2d_21">
      <defs>
       <path d="
M0 0
L0 -2" id="m5dce585160"/>
      </defs>
      <g>
       <use style="stroke:#000000;stroke-linecap:butt;stroke-width:0.5;" x="509.974362115" xlink:href="#m5dce585160" y="181.833946561"/>
      </g>
     </g>
    </g>
   </g>
   <g id="matplotlib.axis_2">
    <g id="ytick_1">
     <g id="line2d_22">
      <path d="
M64.7562 404.177
L557.411 404.177" style="fill:none;stroke:#000000;stroke-dasharray:1.000000,3.000000;stroke-dashoffset:0.0;stroke-linecap:butt;stroke-width:0.5;"/>
     </g>
     <g id="line2d_23">
      <defs>
       <path d="
M0 0
L4 0" id="m94037dc53f"/>
      </defs>
      <g>
       <use style="stroke:#000000;stroke-linecap:butt;stroke-width:0.5;" x="54.75625" xlink:href="#m94037dc53f" y="404.176677376"/>
      </g>
     </g>
     <g id="text_4">
      <!-- -1 -->
      <defs>
       <path d="
M4.89062 31.3906
L31.2031 31.3906
L31.2031 23.3906
L4.89062 23.3906
z
" id="BitstreamVeraSans-Roman-2d"/>
      </defs>
      <g transform="translate(30.2175 412.925427376)scale(0.24 -0.24)">
       <use xlink:href="#BitstreamVeraSans-Roman-2d"/>
       <use x="36.083984375" xlink:href="#BitstreamVeraSans-Roman-31"/>
      </g>
     </g>
    </g>
    <g id="ytick_2">
     <g id="line2d_24">
      <path d="
M64.7562 293.005
L557.411 293.005" style="fill:none;stroke:#000000;stroke-dasharray:1.000000,3.000000;stroke-dashoffset:0.0;stroke-linecap:butt;stroke-width:0.5;"/>
     </g>
     <g id="line2d_25">
      <defs>
       <path d="
M0 0
L4 0" id="m94037dc53f"/>
      </defs>
      <g>
       <use style="stroke:#000000;stroke-linecap:butt;stroke-width:0.5;" x="54.75625" xlink:href="#m94037dc53f" y="293.005311968"/>
      </g>
     </g>
     <g id="text_5">
      <!-- -0.5 -->
      <defs>
       <path d="
M10.6875 12.4062
L21 12.4062
L21 0
L10.6875 0
z
" id="BitstreamVeraSans-Roman-2e"/>
      </defs>
      <g transform="translate(7.2 301.740936968)scale(0.24 -0.24)">
       <use xlink:href="#BitstreamVeraSans-Roman-2d"/>
       <use x="36.083984375" xlink:href="#BitstreamVeraSans-Roman-30"/>
       <use x="99.70703125" xlink:href="#BitstreamVeraSans-Roman-2e"/>
       <use x="131.494140625" xlink:href="#BitstreamVeraSans-Roman-35"/>
      </g>
     </g>
    </g>
    <g id="ytick_3">
     <g id="line2d_26">
      <path d="
M64.7562 181.834
L557.411 181.834" style="fill:none;stroke:#000000;stroke-dasharray:1.000000,3.000000;stroke-dashoffset:0.0;stroke-linecap:butt;stroke-width:0.5;"/>
     </g>
     <g id="line2d_27">
      <defs>
       <path d="
M0 0
L4 0" id="m94037dc53f"/>
      </defs>
      <g>
       <use style="stroke:#000000;stroke-linecap:butt;stroke-width:0.5;" x="54.75625" xlink:href="#m94037dc53f" y="181.833946561"/>
      </g>
     </g>
     <g id="text_6">
      <!-- 0 -->
      <g transform="translate(38.6625 190.569571561)scale(0.24 -0.24)">
       <use xlink:href="#BitstreamVeraSans-Roman-30"/>
      </g>
     </g>
    </g>
    <g id="ytick_4">
     <g id="line2d_28">
      <path d="
M64.7562 70.6626
L557.411 70.6626" style="fill:none;stroke:#000000;stroke-dasharray:1.000000,3.000000;stroke-dashoffset:0.0;stroke-linecap:butt;stroke-width:0.5;"/>
     </g>
     <g id="line2d_29">
      <defs>
       <path d="
M0 0
L4 0" id="m94037dc53f"/>
      </defs>
      <g>
       <use style="stroke:#000000;stroke-linecap:butt;stroke-width:0.5;" x="54.75625" xlink:href="#m94037dc53f" y="70.6625811533"/>
      </g>
     </g>
     <g id="text_7">
      <!-- 0.5 -->
      <g transform="translate(16.2675 79.3982061533)scale(0.24 -0.24)">
       <use xlink:href="#BitstreamVeraSans-Roman-30"/>
       <use x="63.623046875" xlink:href="#BitstreamVeraSans-Roman-2e"/>
       <use x="95.41015625" xlink:href="#BitstreamVeraSans-Roman-35"/>
      </g>
     </g>
    </g>
    <g id="ytick_5">
     <g id="line2d_30">
      <defs>
       <path d="
M0 0
L2 0" id="m0b5af89544"/>
      </defs>
      <g>
       <use style="stroke:#000000;stroke-linecap:butt;stroke-width:0.5;" x="54.75625" xlink:href="#m0b5af89544" y="381.942404294"/>
      </g>
     </g>
    </g>
    <g id="ytick_6">
     <g id="line2d_31">
      <defs>
       <path d="
M0 0
L2 0" id="m0b5af89544"/>
      </defs>
      <g>
       <use style="stroke:#000000;stroke-linecap:butt;stroke-width:0.5;" x="54.75625" xlink:href="#m0b5af89544" y="359.708131213"/>
      </g>
     </g>
    </g>
    <g id="ytick_7">
     <g id="line2d_32">
      <defs>
       <path d="
M0 0
L2 0" id="m0b5af89544"/>
      </defs>
      <g>
       <use style="stroke:#000000;stroke-linecap:butt;stroke-width:0.5;" x="54.75625" xlink:href="#m0b5af89544" y="337.473858131"/>
      </g>
     </g>
    </g>
    <g id="ytick_8">
     <g id="line2d_33">
      <defs>
       <path d="
M0 0
L2 0" id="m0b5af89544"/>
      </defs>
      <g>
       <use style="stroke:#000000;stroke-linecap:butt;stroke-width:0.5;" x="54.75625" xlink:href="#m0b5af89544" y="315.23958505"/>
      </g>
     </g>
    </g>
    <g id="ytick_9">
     <g id="line2d_34">
      <defs>
       <path d="
M0 0
L2 0" id="m0b5af89544"/>
      </defs>
      <g>
       <use style="stroke:#000000;stroke-linecap:butt;stroke-width:0.5;" x="54.75625" xlink:href="#m0b5af89544" y="293.005311968"/>
      </g>
     </g>
    </g>
    <g id="ytick_10">
     <g id="line2d_35">
      <defs>
       <path d="
M0 0
L2 0" id="m0b5af89544"/>
      </defs>
      <g>
       <use style="stroke:#000000;stroke-linecap:butt;stroke-width:0.5;" x="54.75625" xlink:href="#m0b5af89544" y="270.771038887"/>
      </g>
     </g>
    </g>
    <g id="ytick_11">
     <g id="line2d_36">
      <defs>
       <path d="
M0 0
L2 0" id="m0b5af89544"/>
      </defs>
      <g>
       <use style="stroke:#000000;stroke-linecap:butt;stroke-width:0.5;" x="54.75625" xlink:href="#m0b5af89544" y="248.536765805"/>
      </g>
     </g>
    </g>
    <g id="ytick_12">
     <g id="line2d_37">
      <defs>
       <path d="
M0 0
L2 0" id="m0b5af89544"/>
      </defs>
      <g>
       <use style="stroke:#000000;stroke-linecap:butt;stroke-width:0.5;" x="54.75625" xlink:href="#m0b5af89544" y="226.302492724"/>
      </g>
     </g>
    </g>
    <g id="ytick_13">
     <g id="line2d_38">
      <defs>
       <path d="
M0 0
L2 0" id="m0b5af89544"/>
      </defs>
      <g>
       <use style="stroke:#000000;stroke-linecap:butt;stroke-width:0.5;" x="54.75625" xlink:href="#m0b5af89544" y="204.068219642"/>
      </g>
     </g>
    </g>
    <g id="ytick_14">
     <g id="line2d_39">
      <defs>
       <path d="
M0 0
L2 0" id="m0b5af89544"/>
      </defs>
      <g>
       <use style="stroke:#000000;stroke-linecap:butt;stroke-width:0.5;" x="54.75625" xlink:href="#m0b5af89544" y="181.833946561"/>
      </g>
     </g>
    </g>
    <g id="ytick_15">
     <g id="line2d_40">
      <defs>
       <path d="
M0 0
L2 0" id="m0b5af89544"/>
      </defs>
      <g>
       <use style="stroke:#000000;stroke-linecap:butt;stroke-width:0.5;" x="54.75625" xlink:href="#m0b5af89544" y="159.599673479"/>
      </g>
     </g>
    </g>
    <g id="ytick_16">
     <g id="line2d_41">
      <defs>
       <path d="
M0 0
L2 0" id="m0b5af89544"/>
      </defs>
      <g>
       <use style="stroke:#000000;stroke-linecap:butt;stroke-width:0.5;" x="54.75625" xlink:href="#m0b5af89544" y="137.365400398"/>
      </g>
     </g>
    </g>
    <g id="ytick_17">
     <g id="line2d_42">
      <defs>
       <path d="
M0 0
L2 0" id="m0b5af89544"/>
      </defs>
      <g>
       <use style="stroke:#000000;stroke-linecap:butt;stroke-width:0.5;" x="54.75625" xlink:href="#m0b5af89544" y="115.131127316"/>
      </g>
     </g>
    </g>
    <g id="ytick_18">
     <g id="line2d_43">
      <defs>
       <path d="
M0 0
L2 0" id="m0b5af89544"/>
      </defs>
      <g>
       <use style="stroke:#000000;stroke-linecap:butt;stroke-width:0.5;" x="54.75625" xlink:href="#m0b5af89544" y="92.8968542348"/>
      </g>
     </g>
    </g>
    <g id="ytick_19">
     <g id="line2d_44">
      <defs>
       <path d="
M0 0
L2 0" id="m0b5af89544"/>
      </defs>
      <g>
       <use style="stroke:#000000;stroke-linecap:butt;stroke-width:0.5;" x="54.75625" xlink:href="#m0b5af89544" y="70.6625811533"/>
      </g>
     </g>
    </g>
    <g id="ytick_20">
     <g id="line2d_45">
      <defs>
       <path d="
M0 0
L2 0" id="m0b5af89544"/>
      </defs>
      <g>
       <use style="stroke:#000000;stroke-linecap:butt;stroke-width:0.5;" x="54.75625" xlink:href="#m0b5af89544" y="48.4283080718"/>
      </g>
     </g>
    </g>
   </g>
   <g id="patch_3">
    <path d="
M64.7562 181.834
L557.411 181.834" style="fill:none;stroke:#000000;stroke-width:0.8;"/>
   </g>
   <g id="patch_4">
    <path d="
M54.7562 404.965
L54.7562 7.2" style="fill:none;stroke:#000000;stroke-width:0.8;"/>
   </g>
  </g>
 </g>
 <defs>
  <clipPath id="pdeabb097a7">
   <rect height="397.764532144" width="492.655" x="64.75625" y="7.2"/>
  </clipPath>
 </defs>
</svg>
