<?xml version="1.0" encoding="utf-8" standalone="no"?>
<!DOCTYPE svg PUBLIC "-//W3C//DTD SVG 1.1//EN"
  "http://www.w3.org/Graphics/SVG/1.1/DTD/svg11.dtd">
<!-- Created with matplotlib (http://matplotlib.sourceforge.net/) -->
<svg height="419pt" version="1.1" viewBox="0 0 562 419" width="562pt" xmlns="http://www.w3.org/2000/svg" xmlns:xlink="http://www.w3.org/1999/xlink">
 <defs>
  <style type="text/css">
*{stroke-linecap:square;stroke-linejoin:round;}
  </style>
 </defs>
 <g id="figure_1">
  <g id="patch_1">
   <path d="
M4.44089e-16 419.769
L562.676 419.769
L562.676 0
L4.44089e-16 0
z
" style="fill:#ffffff;"/>
  </g>
  <g id="axes_1">
   <g id="patch_2">
    <path d="
M15.18 408.726
L555.476 408.726
L555.476 7.2
L15.18 7.2
z
" style="fill:#ffffff;"/>
   </g>
   <g id="line2d_1">
    <path clip-path="url(#pbdfec9549d)" d="
M25.5703 401.004
L25.6187 401.004
L25.6187 65.9912
L25.6763 75.3525
L25.7378 75.3525
L25.8003 58.6019
L25.8655 58.6019
L25.9326 56.674
L25.9989 56.674
L26.0671 44.9912
L26.1369 44.9912
L26.2067 34.4242
L26.2774 34.4242
L26.3482 28.2669
L26.4201 28.2669
L26.493 22.7066
L26.5651 22.7066
L26.6383 19.7137
L26.7117 19.7137
L26.7854 17.5513
L26.8595 17.5513
L26.9349 17.178
L27.0087 17.178
L27.0845 17.544
L27.1607 17.544
L27.2353 18.3318
L27.3874 18.3622
L27.4642 19.0055
L27.6972 18.9633
L27.7739 19.4693
L27.851 19.4693
L27.9295 20.1723
L28.0084 20.1723
L28.0852 21.7127
L28.1637 21.7127
L28.2426 23.2999
L28.3205 23.2999
L28.4006 24.9218
L28.4802 24.9218
L28.5598 26.6888
L28.6377 26.6888
L28.7178 27.8498
L28.7967 27.8498
L28.8778 29.0565
L28.9596 29.0565
L29.0392 30.3832
L29.1201 30.3832
L29.1996 31.759
L29.2795 31.759
L29.3607 33.4393
L29.443 33.4393
L29.5241 35.0967
L29.6047 35.0967
L29.6854 36.7954
L29.7663 36.7954
L29.8474 38.5293
L29.929 38.5293
L30.012 39.7415
L30.0919 39.7415
L30.1742 40.7795
L30.2568 40.7795
L30.3389 41.6846
L30.421 41.6846
L30.5043 42.3562
L30.5866 42.3562
L30.6704 43.1298
L30.7538 43.1298
L30.835 43.8469
L30.9175 43.8469
L31.0007 44.2833
L31.0859 44.2833
L31.1693 44.6303
L31.2519 44.6303
L31.3336 44.9755
L31.5003 45.076
L31.5845 45.1793
L31.9173 45.2639
L31.9173 45.3003
L32.0037 45.2822
L32.1699 45.3415
L32.2544 45.7098
L32.3393 45.7098
L32.4235 46.2009
L32.509 46.2009
L32.5937 46.7089
L32.6783 46.7089
L32.7626 47.0364
L33.0167 47.1349
L33.1014 47.2289
L33.2702 47.3072
L33.3548 47.3673
L33.5251 47.3015
L33.6118 47.1791
L33.87 47.116
L33.9556 46.9351
L34.0399 46.9351
L34.1261 46.6108
L34.212 46.6108
L34.2962 46.3485
L34.5557 46.2419
L34.6431 46.2047
L35.0719 46.2753
L35.1592 46.3559
L35.5885 46.313
L35.6751 46.1931
L35.8521 46.1366
L35.938 45.9939
L36.1091 45.9327
L36.196 45.8133
L36.6328 45.916
L36.7188 46.068
L37.0691 46.1704
L37.1574 46.2444
L37.4181 46.3185
L37.508 46.4181
L37.9488 46.5128
L37.9488 46.5317
L38.0362 46.5271
L39.1835 46.5963
L39.272 46.6825
L39.7127 46.7922
L39.7127 46.8012
L39.8042 46.8012
L39.8042 46.8012
L39.893 46.7346
L40.1594 46.6342
L40.2444 46.4769
L40.4222 46.3997
L40.5127 46.2409
L40.7811 46.1342
L40.8707 46.0624
L41.2267 45.9812
L41.3178 45.9001
L41.5864 45.8359
L41.676 45.7172
L41.8536 45.6495
L41.9445 45.4559
L42.0334 45.4559
L42.1224 45.2103
L42.2984 45.1065
L42.3865 44.8712
L42.4776 44.8712
L42.5672 44.6502
L42.7479 44.5655
L42.8377 44.3884
L43.0195 44.2907
L43.109 44.1046
L43.2876 44.0155
L43.3768 43.8792
L43.5565 43.8158
L43.6494 43.7241
L43.9246 43.6195
L44.0168 43.5084
L44.3747 43.4062
L44.4637 43.3569
L45.0054 43.2486
L45.0954 43.1981
L45.4597 43.1139
L45.5496 43.0455
L45.9141 42.972
L46.0036 42.8922
L47.5539 42.9726
L47.6466 43.0903
L47.8299 43.153
L47.9225 43.2577
L48.1984 43.3608
L48.2901 43.4823
L48.4752 43.5448
L48.5639 43.6773
L48.7437 43.7478
L48.8349 43.8837
L49.0187 43.9428
L49.1113 44.0733
L49.2949 44.1468
L49.3864 44.2883
L49.5693 44.3561
L49.6622 44.5096
L49.8473 44.5872
L49.937 44.7006
L50.2122 44.8003
L50.3059 44.8859
L51.9627 44.7792
L52.0545 44.7341
L52.8877 44.6331
L52.9793 44.5805
L53.2592 44.5002
L53.3497 44.4288
L53.6294 44.344
L53.7227 44.2801
L54.2818 44.1725
L54.3752 44.1578
L55.4013 44.0619
L55.4945 44.0338
L56.3322 43.9287
L56.4249 43.862
L56.7076 43.7903
L56.7995 43.6932
L57.0819 43.5866
L57.1759 43.5105
L57.4567 43.4246
L57.5487 43.325
L57.7383 43.2657
L57.8305 43.1544
L58.112 43.0548
L58.2046 42.938
L58.4827 42.8334
L58.5775 42.7242
L58.769 42.667
L58.8626 42.5441
L59.0523 42.4804
L59.1447 42.3468
L59.3341 42.2732
L59.4272 42.1302
L59.6149 42.0694
L59.7083 41.9601
L59.894 41.9052
L59.9883 41.7839
L60.1789 41.7268
L60.2728 41.6024
L60.4592 41.5347
L60.5527 41.3846
L60.7407 41.3053
L60.8357 41.1329
L61.024 41.047
L61.1187 40.8781
L61.3038 40.7927
L61.3963 40.6322
L61.5868 40.5455
L61.6791 40.3709
L61.8681 40.2849
L61.9616 40.1082
L62.1484 40.0187
L62.2411 39.8425
L62.4312 39.7522
L62.524 39.5969
L62.7161 39.5192
L62.8102 39.3739
L62.9997 39.299
L63.095 39.1638
L63.2846 39.105
L63.3775 38.9999
L63.6616 38.8982
L63.7587 38.8024
L64.0422 38.7116
L64.1371 38.6107
L64.3253 38.5487
L64.4209 38.4194
L64.6132 38.3542
L64.7087 38.2205
L64.8972 38.1573
L64.9933 38.0005
L65.1818 37.9156
L65.2756 37.7524
L65.4648 37.672
L65.5584 37.5095
L65.7497 37.4255
L65.8464 37.2514
L66.0384 37.1659
L66.1322 36.9915
L66.3214 36.8991
L66.4151 36.7253
L66.6039 36.6376
L66.6996 36.463
L66.8893 36.3797
L66.9858 36.2158
L67.176 36.1406
L67.2715 35.9987
L67.4611 35.932
L67.5581 35.8008
L67.7508 35.7338
L67.8455 35.6052
L68.0363 35.544
L68.1308 35.4279
L68.4144 35.3186
L68.5123 35.2082
L68.7016 35.1498
L68.7962 35.0241
L68.9868 34.9605
L69.0841 34.8306
L69.2751 34.7612
L69.3715 34.6171
L69.5648 34.5397
L69.6582 34.386
L69.8484 34.3023
L69.9422 34.1413
L70.1313 34.0678
L70.2278 33.9181
L70.4186 33.8436
L70.5143 33.6975
L70.7047 33.6203
L70.7994 33.48
L70.9892 33.4145
L71.0849 33.285
L71.2749 33.2231
L71.3713 33.1096
L71.5642 33.0533
L71.6624 32.944
L71.9468 32.8443
L72.0433 32.7538
L72.3301 32.6549
L72.4304 32.5609
L72.7192 32.461
L72.8144 32.3686
L73.1025 32.2765
L73.199 32.1983
L73.5798 32.0983
L73.6741 32.0298
L74.0603 31.9223
L74.1547 31.8579
L74.5417 31.7673
L74.6387 31.7068
L75.0243 31.6037
L75.1205 31.5342
L75.5034 31.4333
L75.5989 31.3673
L75.985 31.266
L76.082 31.197
L76.4671 31.1022
L76.5633 31.0449
L77.0483 30.9355
L77.1456 30.8734
L77.5355 30.7781
L77.6316 30.7163
L78.1113 30.6052
L78.2079 30.5551
L78.6944 30.4592
L78.7913 30.4082
L79.177 30.3197
L79.2732 30.2485
L79.6596 30.147
L79.7546 30.0774
L80.0439 29.9972
L80.1393 29.9129
L80.4295 29.8259
L80.527 29.7326
L80.8173 29.6412
L80.9128 29.5487
L81.2004 29.4576
L81.2964 29.3658
L81.5903 29.2754
L81.6881 29.1938
L81.9778 29.1141
L82.0748 29.0317
L82.3655 28.9467
L82.4603 28.8735
L82.8519 28.7685
L82.9495 28.7116
L83.4347 28.6074
L83.5299 28.5647
L84.0148 28.465
L84.112 28.4112
L84.6004 28.3005
L84.6993 28.248
L85.2831 28.138
L85.3802 28.092
L85.9565 27.996
L86.0579 27.9588
L86.6418 27.8585
L86.7409 27.8297
L87.4217 27.7221
L87.5196 27.6865
L88.3981 27.5853
L88.4963 27.5667
L89.8587 27.4591
L89.9571 27.4345
L90.6404 27.3324
L90.7408 27.298
L91.7183 27.1898
L91.8143 27.1678
L92.9943 27.0604
L93.0927 27.0375
L93.8824 26.9286
L93.9821 26.8945
L94.5678 26.7971
L94.6678 26.7614
L95.3556 26.6604
L95.454 26.6206
L96.1463 26.5235
L96.2443 26.4915
L97.4197 26.3871
L97.517 26.3742
L102.447 26.2666
L102.546 26.2533
L104.729 26.1513
L104.827 26.1278
L105.623 26.0301
L105.722 25.9995
L106.411 25.8936
L106.51 25.8541
L107.004 25.7607
L107.103 25.707
L107.601 25.6055
L107.702 25.5582
L108.294 25.4575
L108.391 25.4241
L109.289 25.3241
L109.388 25.2893
L109.983 25.1931
L110.083 25.1605
L110.884 25.056
L110.98 25.0225
L111.581 24.924
L111.681 24.8881
L112.572 24.7773
L112.671 24.7498
L113.467 24.6422
L113.568 24.6103
L114.358 24.5081
L114.457 24.4856
L115.459 24.3884
L115.557 24.3617
L116.448 24.2614
L116.546 24.2353
L117.648 24.1258
L117.748 24.1004
L118.652 23.9945
L118.751 23.9722
L119.953 23.8625
L120.054 23.8396
L120.846 23.737
L120.949 23.7078
L121.654 23.6124
L121.757 23.577
L122.453 23.4672
L122.551 23.4308
L123.456 23.323
L123.556 23.3034
L124.559 23.2034
L124.661 23.1785
L125.568 23.0722
L125.667 23.0482
L126.664 22.9417
L126.767 22.9209
L127.68 22.8197
L127.78 22.7985
L129.184 22.6928
L129.281 22.6775
L130.289 22.5723
L130.387 22.5542
L131.602 22.4459
L131.703 22.4297
L133.013 22.327
L133.112 22.3105
L134.826 22.2005
L134.927 22.1873
L136.547 22.0778
L136.648 22.0624
L137.758 21.9538
L137.857 21.9299
L138.969 21.8221
L139.07 21.7996
L140.175 21.6915
L140.279 21.6709
L141.099 21.5714
L141.2 21.5411
L141.913 21.446
L142.013 21.4145
L143.025 21.3065
L143.124 21.2799
L144.039 21.1707
L144.142 21.1376
L144.95 21.0313
L145.052 21.0043
L145.864 20.8939
L145.96 20.8607
L146.672 20.7519
L146.772 20.7131
L147.386 20.6072
L147.486 20.5638
L148.096 20.4584
L148.198 20.4154
L148.705 20.3248
L148.81 20.2799
L149.319 20.1882
L149.422 20.1431
L149.929 20.0534
L150.031 20.0038
L150.538 19.9067
L150.639 19.8574
L151.148 19.7576
L151.251 19.7089
L151.755 19.6031
L151.855 19.549
L152.263 19.4638
L152.364 19.4055
L152.876 19.2995
L152.978 19.2431
L153.385 19.1596
L153.488 19.1016
L153.992 18.9931
L154.094 18.9374
L154.607 18.83
L154.709 18.7778
L155.222 18.6772
L155.321 18.6308
L155.833 18.5366
L155.933 18.4887
L156.444 18.3957
L156.549 18.3504
L157.063 18.2541
L157.165 18.2056
L157.679 18.1135
L157.781 18.0662
L158.288 17.9717
L158.392 17.9267
L158.902 17.8299
L159.006 17.7801
L159.514 17.6907
L159.616 17.6473
L160.227 17.5423
L160.326 17.5029
L161.043 17.4019
L161.144 17.3714
L162.274 17.2611
L162.374 17.2409
L163.801 17.1304
L163.904 17.1195
L165.951 17.0133
L166.055 17.0006
L168.103 16.8943
L168.206 16.8837
L169.948 16.7774
L170.05 16.762
L171.28 16.6521
L171.386 16.6284
L172.412 16.5184
L172.514 16.4935
L173.437 16.3829
L173.543 16.3531
L174.36 16.2532
L174.463 16.2267
L175.598 16.119
L175.702 16.0976
L177.041 15.9882
L177.146 15.9723
L178.692 15.8664
L178.794 15.8544
L180.34 15.7527
L180.443 15.733
L182.178 15.6271
L182.282 15.6144
L183.829 15.5072
L183.933 15.492
L185.265 15.3838
L185.37 15.3646
L187.856 15.2556
L187.962 15.2485
L190.756 15.1412
L190.858 15.1324
L196.027 15.022
L196.134 15.0187
L220.589 15.1286
L220.693 15.1442
L222.263 15.2514
L222.37 15.2678
L223.932 15.3785
L224.035 15.3938
L225.7 15.5042
L225.809 15.5159
L227.996 15.6243
L228.103 15.6338
L230.712 15.7408
L230.815 15.7493
L233.858 15.8582
L233.96 15.8655
L237.206 15.975
L237.311 15.9844
L240.46 16.0944
L240.567 16.1029
L243.515 16.2114
L243.621 16.2199
L270.704 16.1101
L270.807 16.1058
L276.643 15.9954
L276.749 15.9925
L301.484 16.1011
L301.593 16.1068
L305.33 16.2162
L305.436 16.2237
L309.276 16.3325
L309.382 16.3387
L313.226 16.4488
L313.33 16.4553
L316.957 16.5657
L317.062 16.5705
L320.366 16.6784
L320.475 16.6881
L322.719 16.7967
L322.828 16.8086
L325.284 16.9151
L325.392 16.9246
L328.181 17.0327
L328.285 17.0403
L330.957 17.1512
L331.064 17.1613
L333.211 17.2682
L333.32 17.2798
L335.251 17.3859
L335.354 17.3996
L337.181 17.5046
L337.286 17.5167
L339.426 17.6265
L339.532 17.6372
L341.777 17.7449
L341.887 17.757
L343.931 17.8677
L343.931 17.874
L345.767 17.9808
L345.876 17.9947
L347.914 18.1031
L348.022 18.1148
L349.951 18.2224
L350.059 18.2346
L352.104 18.3414
L352.213 18.3519
L354.794 18.4614
L354.9 18.4698
L357.47 18.5768
L357.579 18.5858
L361.023 18.6953
L361.133 18.7015
L364.805 18.8114
L364.912 18.8189
L368.464 18.9293
L368.572 18.9362
L371.792 19.0448
L371.9 19.0544
L375.349 19.1632
L375.458 19.1693
L379.23 19.2779
L379.336 19.2834
L383.885 19.3915
L383.99 19.3977
L390.15 19.5083
L390.257 19.511
L415.936 19.6218
L416.044 19.6229
L432.016 19.734
L432.126 19.7384
L437.47 19.8473
L437.47 19.8499
L442.268 19.9596
L442.268 19.9618
L455.765 20.0729
L455.872 20.0739
L515.701 19.9636
L515.81 19.9617
L525.366 19.8517
L525.366 19.8504
L535.931 19.7395
L535.931 19.7382
L545.086 19.6429
L545.086 19.6419" style="fill:none;stroke:#ff0000;stroke-width:0.5;"/>
   </g>
   <g id="matplotlib.axis_1">
    <g id="xtick_1">
     <g id="line2d_2">
      <defs>
       <path d="
M0 0
L0 -4" id="mf78dc1563b"/>
      </defs>
      <g>
       <use style="stroke:#000000;stroke-linecap:butt;stroke-width:0.5;" x="25.5703125" xlink:href="#mf78dc1563b" y="401.004497041"/>
      </g>
     </g>
    </g>
    <g id="xtick_2">
     <g id="line2d_3">
      <defs>
       <path d="
M0 0
L0 -4" id="mf78dc1563b"/>
      </defs>
      <g>
       <use style="stroke:#000000;stroke-linecap:butt;stroke-width:0.5;" x="129.479281098" xlink:href="#mf78dc1563b" y="401.004497041"/>
      </g>
     </g>
     <g id="text_1">
      <!-- 2e7 -->
      <defs>
       <path d="
M19.1875 8.29688
L53.6094 8.29688
L53.6094 0
L7.32812 0
L7.32812 8.29688
Q12.9375 14.1094 22.625 23.8906
Q32.3281 33.6875 34.8125 36.5312
Q39.5469 41.8438 41.4219 45.5312
Q43.3125 49.2188 43.3125 52.7812
Q43.3125 58.5938 39.2344 62.25
Q35.1562 65.9219 28.6094 65.9219
Q23.9688 65.9219 18.8125 64.3125
Q13.6719 62.7031 7.8125 59.4219
L7.8125 69.3906
Q13.7656 71.7812 18.9375 73
Q24.125 74.2188 28.4219 74.2188
Q39.75 74.2188 46.4844 68.5469
Q53.2188 62.8906 53.2188 53.4219
Q53.2188 48.9219 51.5312 44.8906
Q49.8594 40.875 45.4062 35.4062
Q44.1875 33.9844 37.6406 27.2188
Q31.1094 20.4531 19.1875 8.29688" id="BitstreamVeraSans-Roman-32"/>
       <path d="
M56.2031 29.5938
L56.2031 25.2031
L14.8906 25.2031
Q15.4844 15.9219 20.4844 11.0625
Q25.4844 6.20312 34.4219 6.20312
Q39.5938 6.20312 44.4531 7.46875
Q49.3125 8.73438 54.1094 11.2812
L54.1094 2.78125
Q49.2656 0.734375 44.1875 -0.34375
Q39.1094 -1.42188 33.8906 -1.42188
Q20.7969 -1.42188 13.1562 6.1875
Q5.51562 13.8125 5.51562 26.8125
Q5.51562 40.2344 12.7656 48.1094
Q20.0156 56 32.3281 56
Q43.3594 56 49.7812 48.8906
Q56.2031 41.7969 56.2031 29.5938
M47.2188 32.2344
Q47.125 39.5938 43.0938 43.9844
Q39.0625 48.3906 32.4219 48.3906
Q24.9062 48.3906 20.3906 44.1406
Q15.875 39.8906 15.1875 32.1719
z
" id="BitstreamVeraSans-Roman-65"/>
       <path d="
M8.20312 72.9062
L55.0781 72.9062
L55.0781 68.7031
L28.6094 0
L18.3125 0
L43.2188 64.5938
L8.20312 64.5938
z
" id="BitstreamVeraSans-Roman-37"/>
      </defs>
      <g transform="translate(120.833968598 412.426372041)scale(0.1 -0.1)">
       <use xlink:href="#BitstreamVeraSans-Roman-32"/>
       <use x="63.623046875" xlink:href="#BitstreamVeraSans-Roman-65"/>
       <use x="125.146484375" xlink:href="#BitstreamVeraSans-Roman-37"/>
      </g>
     </g>
    </g>
    <g id="xtick_3">
     <g id="line2d_4">
      <defs>
       <path d="
M0 0
L0 -4" id="mf78dc1563b"/>
      </defs>
      <g>
       <use style="stroke:#000000;stroke-linecap:butt;stroke-width:0.5;" x="233.388249697" xlink:href="#mf78dc1563b" y="401.004497041"/>
      </g>
     </g>
     <g id="text_2">
      <!-- 4e7 -->
      <defs>
       <path d="
M37.7969 64.3125
L12.8906 25.3906
L37.7969 25.3906
z

M35.2031 72.9062
L47.6094 72.9062
L47.6094 25.3906
L58.0156 25.3906
L58.0156 17.1875
L47.6094 17.1875
L47.6094 0
L37.7969 0
L37.7969 17.1875
L4.89062 17.1875
L4.89062 26.7031
z
" id="BitstreamVeraSans-Roman-34"/>
      </defs>
      <g transform="translate(224.621062197 412.295122041)scale(0.1 -0.1)">
       <use xlink:href="#BitstreamVeraSans-Roman-34"/>
       <use x="63.623046875" xlink:href="#BitstreamVeraSans-Roman-65"/>
       <use x="125.146484375" xlink:href="#BitstreamVeraSans-Roman-37"/>
      </g>
     </g>
    </g>
    <g id="xtick_4">
     <g id="line2d_5">
      <defs>
       <path d="
M0 0
L0 -4" id="mf78dc1563b"/>
      </defs>
      <g>
       <use style="stroke:#000000;stroke-linecap:butt;stroke-width:0.5;" x="337.297218295" xlink:href="#mf78dc1563b" y="401.004497041"/>
      </g>
     </g>
     <g id="text_3">
      <!-- 6e7 -->
      <defs>
       <path d="
M33.0156 40.375
Q26.375 40.375 22.4844 35.8281
Q18.6094 31.2969 18.6094 23.3906
Q18.6094 15.5312 22.4844 10.9531
Q26.375 6.39062 33.0156 6.39062
Q39.6562 6.39062 43.5312 10.9531
Q47.4062 15.5312 47.4062 23.3906
Q47.4062 31.2969 43.5312 35.8281
Q39.6562 40.375 33.0156 40.375
M52.5938 71.2969
L52.5938 62.3125
Q48.875 64.0625 45.0938 64.9844
Q41.3125 65.9219 37.5938 65.9219
Q27.8281 65.9219 22.6719 59.3281
Q17.5312 52.7344 16.7969 39.4062
Q19.6719 43.6562 24.0156 45.9219
Q28.375 48.1875 33.5938 48.1875
Q44.5781 48.1875 50.9531 41.5156
Q57.3281 34.8594 57.3281 23.3906
Q57.3281 12.1562 50.6875 5.35938
Q44.0469 -1.42188 33.0156 -1.42188
Q20.3594 -1.42188 13.6719 8.26562
Q6.98438 17.9688 6.98438 36.375
Q6.98438 53.6562 15.1875 63.9375
Q23.3906 74.2188 37.2031 74.2188
Q40.9219 74.2188 44.7031 73.4844
Q48.4844 72.75 52.5938 71.2969" id="BitstreamVeraSans-Roman-36"/>
      </defs>
      <g transform="translate(328.634718295 412.426372041)scale(0.1 -0.1)">
       <use xlink:href="#BitstreamVeraSans-Roman-36"/>
       <use x="63.623046875" xlink:href="#BitstreamVeraSans-Roman-65"/>
       <use x="125.146484375" xlink:href="#BitstreamVeraSans-Roman-37"/>
      </g>
     </g>
    </g>
    <g id="xtick_5">
     <g id="line2d_6">
      <defs>
       <path d="
M0 0
L0 -4" id="mf78dc1563b"/>
      </defs>
      <g>
       <use style="stroke:#000000;stroke-linecap:butt;stroke-width:0.5;" x="441.206186893" xlink:href="#mf78dc1563b" y="401.004497041"/>
      </g>
     </g>
     <g id="text_4">
      <!-- 8e7 -->
      <defs>
       <path d="
M31.7812 34.625
Q24.75 34.625 20.7188 30.8594
Q16.7031 27.0938 16.7031 20.5156
Q16.7031 13.9219 20.7188 10.1562
Q24.75 6.39062 31.7812 6.39062
Q38.8125 6.39062 42.8594 10.1719
Q46.9219 13.9688 46.9219 20.5156
Q46.9219 27.0938 42.8906 30.8594
Q38.875 34.625 31.7812 34.625
M21.9219 38.8125
Q15.5781 40.375 12.0312 44.7188
Q8.5 49.0781 8.5 55.3281
Q8.5 64.0625 14.7188 69.1406
Q20.9531 74.2188 31.7812 74.2188
Q42.6719 74.2188 48.875 69.1406
Q55.0781 64.0625 55.0781 55.3281
Q55.0781 49.0781 51.5312 44.7188
Q48 40.375 41.7031 38.8125
Q48.8281 37.1562 52.7969 32.3125
Q56.7812 27.4844 56.7812 20.5156
Q56.7812 9.90625 50.3125 4.23438
Q43.8438 -1.42188 31.7812 -1.42188
Q19.7344 -1.42188 13.25 4.23438
Q6.78125 9.90625 6.78125 20.5156
Q6.78125 27.4844 10.7812 32.3125
Q14.7969 37.1562 21.9219 38.8125
M18.3125 54.3906
Q18.3125 48.7344 21.8438 45.5625
Q25.3906 42.3906 31.7812 42.3906
Q38.1406 42.3906 41.7188 45.5625
Q45.3125 48.7344 45.3125 54.3906
Q45.3125 60.0625 41.7188 63.2344
Q38.1406 66.4062 31.7812 66.4062
Q25.3906 66.4062 21.8438 63.2344
Q18.3125 60.0625 18.3125 54.3906" id="BitstreamVeraSans-Roman-38"/>
      </defs>
      <g transform="translate(432.533530643 412.426372041)scale(0.1 -0.1)">
       <use xlink:href="#BitstreamVeraSans-Roman-38"/>
       <use x="63.623046875" xlink:href="#BitstreamVeraSans-Roman-65"/>
       <use x="125.146484375" xlink:href="#BitstreamVeraSans-Roman-37"/>
      </g>
     </g>
    </g>
    <g id="xtick_6">
     <g id="line2d_7">
      <defs>
       <path d="
M0 0
L0 -4" id="mf78dc1563b"/>
      </defs>
      <g>
       <use style="stroke:#000000;stroke-linecap:butt;stroke-width:0.5;" x="545.115155491" xlink:href="#mf78dc1563b" y="401.004497041"/>
      </g>
     </g>
     <g id="text_5">
      <!-- 1e8 -->
      <defs>
       <path d="
M12.4062 8.29688
L28.5156 8.29688
L28.5156 63.9219
L10.9844 60.4062
L10.9844 69.3906
L28.4219 72.9062
L38.2812 72.9062
L38.2812 8.29688
L54.3906 8.29688
L54.3906 0
L12.4062 0
z
" id="BitstreamVeraSans-Roman-31"/>
      </defs>
      <g transform="translate(536.567499241 412.426372041)scale(0.1 -0.1)">
       <use xlink:href="#BitstreamVeraSans-Roman-31"/>
       <use x="63.623046875" xlink:href="#BitstreamVeraSans-Roman-65"/>
       <use x="125.146484375" xlink:href="#BitstreamVeraSans-Roman-38"/>
      </g>
     </g>
    </g>
    <g id="xtick_7">
     <g id="line2d_8">
      <defs>
       <path d="
M0 0
L0 -2" id="m73949ea7d5"/>
      </defs>
      <g>
       <use style="stroke:#000000;stroke-linecap:butt;stroke-width:0.5;" x="51.5475546496" xlink:href="#m73949ea7d5" y="401.004497041"/>
      </g>
     </g>
    </g>
    <g id="xtick_8">
     <g id="line2d_9">
      <defs>
       <path d="
M0 0
L0 -2" id="m73949ea7d5"/>
      </defs>
      <g>
       <use style="stroke:#000000;stroke-linecap:butt;stroke-width:0.5;" x="77.5247967991" xlink:href="#m73949ea7d5" y="401.004497041"/>
      </g>
     </g>
    </g>
    <g id="xtick_9">
     <g id="line2d_10">
      <defs>
       <path d="
M0 0
L0 -2" id="m73949ea7d5"/>
      </defs>
      <g>
       <use style="stroke:#000000;stroke-linecap:butt;stroke-width:0.5;" x="103.502038949" xlink:href="#m73949ea7d5" y="401.004497041"/>
      </g>
     </g>
    </g>
    <g id="xtick_10">
     <g id="line2d_11">
      <defs>
       <path d="
M0 0
L0 -2" id="m73949ea7d5"/>
      </defs>
      <g>
       <use style="stroke:#000000;stroke-linecap:butt;stroke-width:0.5;" x="155.456523248" xlink:href="#m73949ea7d5" y="401.004497041"/>
      </g>
     </g>
    </g>
    <g id="xtick_11">
     <g id="line2d_12">
      <defs>
       <path d="
M0 0
L0 -2" id="m73949ea7d5"/>
      </defs>
      <g>
       <use style="stroke:#000000;stroke-linecap:butt;stroke-width:0.5;" x="181.433765397" xlink:href="#m73949ea7d5" y="401.004497041"/>
      </g>
     </g>
    </g>
    <g id="xtick_12">
     <g id="line2d_13">
      <defs>
       <path d="
M0 0
L0 -2" id="m73949ea7d5"/>
      </defs>
      <g>
       <use style="stroke:#000000;stroke-linecap:butt;stroke-width:0.5;" x="207.411007547" xlink:href="#m73949ea7d5" y="401.004497041"/>
      </g>
     </g>
    </g>
    <g id="xtick_13">
     <g id="line2d_14">
      <defs>
       <path d="
M0 0
L0 -2" id="m73949ea7d5"/>
      </defs>
      <g>
       <use style="stroke:#000000;stroke-linecap:butt;stroke-width:0.5;" x="259.365491846" xlink:href="#m73949ea7d5" y="401.004497041"/>
      </g>
     </g>
    </g>
    <g id="xtick_14">
     <g id="line2d_15">
      <defs>
       <path d="
M0 0
L0 -2" id="m73949ea7d5"/>
      </defs>
      <g>
       <use style="stroke:#000000;stroke-linecap:butt;stroke-width:0.5;" x="285.342733996" xlink:href="#m73949ea7d5" y="401.004497041"/>
      </g>
     </g>
    </g>
    <g id="xtick_15">
     <g id="line2d_16">
      <defs>
       <path d="
M0 0
L0 -2" id="m73949ea7d5"/>
      </defs>
      <g>
       <use style="stroke:#000000;stroke-linecap:butt;stroke-width:0.5;" x="311.319976145" xlink:href="#m73949ea7d5" y="401.004497041"/>
      </g>
     </g>
    </g>
    <g id="xtick_16">
     <g id="line2d_17">
      <defs>
       <path d="
M0 0
L0 -2" id="m73949ea7d5"/>
      </defs>
      <g>
       <use style="stroke:#000000;stroke-linecap:butt;stroke-width:0.5;" x="363.274460444" xlink:href="#m73949ea7d5" y="401.004497041"/>
      </g>
     </g>
    </g>
    <g id="xtick_17">
     <g id="line2d_18">
      <defs>
       <path d="
M0 0
L0 -2" id="m73949ea7d5"/>
      </defs>
      <g>
       <use style="stroke:#000000;stroke-linecap:butt;stroke-width:0.5;" x="389.251702594" xlink:href="#m73949ea7d5" y="401.004497041"/>
      </g>
     </g>
    </g>
    <g id="xtick_18">
     <g id="line2d_19">
      <defs>
       <path d="
M0 0
L0 -2" id="m73949ea7d5"/>
      </defs>
      <g>
       <use style="stroke:#000000;stroke-linecap:butt;stroke-width:0.5;" x="415.228944744" xlink:href="#m73949ea7d5" y="401.004497041"/>
      </g>
     </g>
    </g>
    <g id="xtick_19">
     <g id="line2d_20">
      <defs>
       <path d="
M0 0
L0 -2" id="m73949ea7d5"/>
      </defs>
      <g>
       <use style="stroke:#000000;stroke-linecap:butt;stroke-width:0.5;" x="467.183429043" xlink:href="#m73949ea7d5" y="401.004497041"/>
      </g>
     </g>
    </g>
    <g id="xtick_20">
     <g id="line2d_21">
      <defs>
       <path d="
M0 0
L0 -2" id="m73949ea7d5"/>
      </defs>
      <g>
       <use style="stroke:#000000;stroke-linecap:butt;stroke-width:0.5;" x="493.160671192" xlink:href="#m73949ea7d5" y="401.004497041"/>
      </g>
     </g>
    </g>
    <g id="xtick_21">
     <g id="line2d_22">
      <defs>
       <path d="
M0 0
L0 -2" id="m73949ea7d5"/>
      </defs>
      <g>
       <use style="stroke:#000000;stroke-linecap:butt;stroke-width:0.5;" x="519.137913342" xlink:href="#m73949ea7d5" y="401.004497041"/>
      </g>
     </g>
    </g>
   </g>
   <g id="matplotlib.axis_2">
    <g id="ytick_1">
     <g id="line2d_23">
      <defs>
       <path d="
M0 0
L4 0" id="md9cd54cff4"/>
      </defs>
      <g>
       <use style="stroke:#000000;stroke-linecap:butt;stroke-width:0.5;" x="25.5703125" xlink:href="#md9cd54cff4" y="401.004497041"/>
      </g>
     </g>
    </g>
    <g id="ytick_2">
     <g id="line2d_24">
      <defs>
       <path d="
M0 0
L4 0" id="md9cd54cff4"/>
      </defs>
      <g>
       <use style="stroke:#000000;stroke-linecap:butt;stroke-width:0.5;" x="25.5703125" xlink:href="#md9cd54cff4" y="331.195577991"/>
      </g>
     </g>
     <g id="text_6">
      <!-- 0.5 -->
      <defs>
       <path d="
M31.7812 66.4062
Q24.1719 66.4062 20.3281 58.9062
Q16.5 51.4219 16.5 36.375
Q16.5 21.3906 20.3281 13.8906
Q24.1719 6.39062 31.7812 6.39062
Q39.4531 6.39062 43.2812 13.8906
Q47.125 21.3906 47.125 36.375
Q47.125 51.4219 43.2812 58.9062
Q39.4531 66.4062 31.7812 66.4062
M31.7812 74.2188
Q44.0469 74.2188 50.5156 64.5156
Q56.9844 54.8281 56.9844 36.375
Q56.9844 17.9688 50.5156 8.26562
Q44.0469 -1.42188 31.7812 -1.42188
Q19.5312 -1.42188 13.0625 8.26562
Q6.59375 17.9688 6.59375 36.375
Q6.59375 54.8281 13.0625 64.5156
Q19.5312 74.2188 31.7812 74.2188" id="BitstreamVeraSans-Roman-30"/>
       <path d="
M10.6875 12.4062
L21 12.4062
L21 0
L10.6875 0
z
" id="BitstreamVeraSans-Roman-2e"/>
       <path d="
M10.7969 72.9062
L49.5156 72.9062
L49.5156 64.5938
L19.8281 64.5938
L19.8281 46.7344
Q21.9688 47.4688 24.1094 47.8281
Q26.2656 48.1875 28.4219 48.1875
Q40.625 48.1875 47.75 41.5
Q54.8906 34.8125 54.8906 23.3906
Q54.8906 11.625 47.5625 5.09375
Q40.2344 -1.42188 26.9062 -1.42188
Q22.3125 -1.42188 17.5469 -0.640625
Q12.7969 0.140625 7.71875 1.70312
L7.71875 11.625
Q12.1094 9.23438 16.7969 8.0625
Q21.4844 6.89062 26.7031 6.89062
Q35.1562 6.89062 40.0781 11.3281
Q45.0156 15.7656 45.0156 23.3906
Q45.0156 31 40.0781 35.4375
Q35.1562 39.8906 26.7031 39.8906
Q22.75 39.8906 18.8125 39.0156
Q14.8906 38.1406 10.7969 36.2812
z
" id="BitstreamVeraSans-Roman-35"/>
      </defs>
      <g transform="translate(7.2 334.835421741)scale(0.1 -0.1)">
       <use xlink:href="#BitstreamVeraSans-Roman-30"/>
       <use x="63.623046875" xlink:href="#BitstreamVeraSans-Roman-2e"/>
       <use x="95.41015625" xlink:href="#BitstreamVeraSans-Roman-35"/>
      </g>
     </g>
    </g>
    <g id="ytick_3">
     <g id="line2d_25">
      <defs>
       <path d="
M0 0
L4 0" id="md9cd54cff4"/>
      </defs>
      <g>
       <use style="stroke:#000000;stroke-linecap:butt;stroke-width:0.5;" x="25.5703125" xlink:href="#md9cd54cff4" y="261.386658941"/>
      </g>
     </g>
     <g id="text_7">
      <!-- 1 -->
      <g transform="translate(17.2296875 265.031971441)scale(0.1 -0.1)">
       <use xlink:href="#BitstreamVeraSans-Roman-31"/>
      </g>
     </g>
    </g>
    <g id="ytick_4">
     <g id="line2d_26">
      <defs>
       <path d="
M0 0
L4 0" id="md9cd54cff4"/>
      </defs>
      <g>
       <use style="stroke:#000000;stroke-linecap:butt;stroke-width:0.5;" x="25.5703125" xlink:href="#md9cd54cff4" y="191.577739891"/>
      </g>
     </g>
     <g id="text_8">
      <!-- 1.5 -->
      <g transform="translate(7.6390625 195.151958641)scale(0.1 -0.1)">
       <use xlink:href="#BitstreamVeraSans-Roman-31"/>
       <use x="63.623046875" xlink:href="#BitstreamVeraSans-Roman-2e"/>
       <use x="95.41015625" xlink:href="#BitstreamVeraSans-Roman-35"/>
      </g>
     </g>
    </g>
    <g id="ytick_5">
     <g id="line2d_27">
      <defs>
       <path d="
M0 0
L4 0" id="md9cd54cff4"/>
      </defs>
      <g>
       <use style="stroke:#000000;stroke-linecap:butt;stroke-width:0.5;" x="25.5703125" xlink:href="#md9cd54cff4" y="121.768820841"/>
      </g>
     </g>
     <g id="text_9">
      <!-- 2 -->
      <g transform="translate(16.9421875 125.479758341)scale(0.1 -0.1)">
       <use xlink:href="#BitstreamVeraSans-Roman-32"/>
      </g>
     </g>
    </g>
    <g id="ytick_6">
     <g id="line2d_28">
      <defs>
       <path d="
M0 0
L4 0" id="md9cd54cff4"/>
      </defs>
      <g>
       <use style="stroke:#000000;stroke-linecap:butt;stroke-width:0.5;" x="25.5703125" xlink:href="#md9cd54cff4" y="51.9599017907"/>
      </g>
     </g>
     <g id="text_10">
      <!-- 2.5 -->
      <g transform="translate(7.2734375 55.5997455407)scale(0.1 -0.1)">
       <use xlink:href="#BitstreamVeraSans-Roman-32"/>
       <use x="63.623046875" xlink:href="#BitstreamVeraSans-Roman-2e"/>
       <use x="95.41015625" xlink:href="#BitstreamVeraSans-Roman-35"/>
      </g>
     </g>
    </g>
    <g id="ytick_7">
     <g id="line2d_29">
      <defs>
       <path d="
M0 0
L2 0" id="m5cb6fa3528"/>
      </defs>
      <g>
       <use style="stroke:#000000;stroke-linecap:butt;stroke-width:0.5;" x="25.5703125" xlink:href="#m5cb6fa3528" y="387.042713231"/>
      </g>
     </g>
    </g>
    <g id="ytick_8">
     <g id="line2d_30">
      <defs>
       <path d="
M0 0
L2 0" id="m5cb6fa3528"/>
      </defs>
      <g>
       <use style="stroke:#000000;stroke-linecap:butt;stroke-width:0.5;" x="25.5703125" xlink:href="#m5cb6fa3528" y="373.080929421"/>
      </g>
     </g>
    </g>
    <g id="ytick_9">
     <g id="line2d_31">
      <defs>
       <path d="
M0 0
L2 0" id="m5cb6fa3528"/>
      </defs>
      <g>
       <use style="stroke:#000000;stroke-linecap:butt;stroke-width:0.5;" x="25.5703125" xlink:href="#m5cb6fa3528" y="359.119145611"/>
      </g>
     </g>
    </g>
    <g id="ytick_10">
     <g id="line2d_32">
      <defs>
       <path d="
M0 0
L2 0" id="m5cb6fa3528"/>
      </defs>
      <g>
       <use style="stroke:#000000;stroke-linecap:butt;stroke-width:0.5;" x="25.5703125" xlink:href="#m5cb6fa3528" y="345.157361801"/>
      </g>
     </g>
    </g>
    <g id="ytick_11">
     <g id="line2d_33">
      <defs>
       <path d="
M0 0
L2 0" id="m5cb6fa3528"/>
      </defs>
      <g>
       <use style="stroke:#000000;stroke-linecap:butt;stroke-width:0.5;" x="25.5703125" xlink:href="#m5cb6fa3528" y="331.195577991"/>
      </g>
     </g>
    </g>
    <g id="ytick_12">
     <g id="line2d_34">
      <defs>
       <path d="
M0 0
L2 0" id="m5cb6fa3528"/>
      </defs>
      <g>
       <use style="stroke:#000000;stroke-linecap:butt;stroke-width:0.5;" x="25.5703125" xlink:href="#m5cb6fa3528" y="317.233794181"/>
      </g>
     </g>
    </g>
    <g id="ytick_13">
     <g id="line2d_35">
      <defs>
       <path d="
M0 0
L2 0" id="m5cb6fa3528"/>
      </defs>
      <g>
       <use style="stroke:#000000;stroke-linecap:butt;stroke-width:0.5;" x="25.5703125" xlink:href="#m5cb6fa3528" y="303.272010371"/>
      </g>
     </g>
    </g>
    <g id="ytick_14">
     <g id="line2d_36">
      <defs>
       <path d="
M0 0
L2 0" id="m5cb6fa3528"/>
      </defs>
      <g>
       <use style="stroke:#000000;stroke-linecap:butt;stroke-width:0.5;" x="25.5703125" xlink:href="#m5cb6fa3528" y="289.310226561"/>
      </g>
     </g>
    </g>
    <g id="ytick_15">
     <g id="line2d_37">
      <defs>
       <path d="
M0 0
L2 0" id="m5cb6fa3528"/>
      </defs>
      <g>
       <use style="stroke:#000000;stroke-linecap:butt;stroke-width:0.5;" x="25.5703125" xlink:href="#m5cb6fa3528" y="275.348442751"/>
      </g>
     </g>
    </g>
    <g id="ytick_16">
     <g id="line2d_38">
      <defs>
       <path d="
M0 0
L2 0" id="m5cb6fa3528"/>
      </defs>
      <g>
       <use style="stroke:#000000;stroke-linecap:butt;stroke-width:0.5;" x="25.5703125" xlink:href="#m5cb6fa3528" y="261.386658941"/>
      </g>
     </g>
    </g>
    <g id="ytick_17">
     <g id="line2d_39">
      <defs>
       <path d="
M0 0
L2 0" id="m5cb6fa3528"/>
      </defs>
      <g>
       <use style="stroke:#000000;stroke-linecap:butt;stroke-width:0.5;" x="25.5703125" xlink:href="#m5cb6fa3528" y="247.424875131"/>
      </g>
     </g>
    </g>
    <g id="ytick_18">
     <g id="line2d_40">
      <defs>
       <path d="
M0 0
L2 0" id="m5cb6fa3528"/>
      </defs>
      <g>
       <use style="stroke:#000000;stroke-linecap:butt;stroke-width:0.5;" x="25.5703125" xlink:href="#m5cb6fa3528" y="233.463091321"/>
      </g>
     </g>
    </g>
    <g id="ytick_19">
     <g id="line2d_41">
      <defs>
       <path d="
M0 0
L2 0" id="m5cb6fa3528"/>
      </defs>
      <g>
       <use style="stroke:#000000;stroke-linecap:butt;stroke-width:0.5;" x="25.5703125" xlink:href="#m5cb6fa3528" y="219.501307511"/>
      </g>
     </g>
    </g>
    <g id="ytick_20">
     <g id="line2d_42">
      <defs>
       <path d="
M0 0
L2 0" id="m5cb6fa3528"/>
      </defs>
      <g>
       <use style="stroke:#000000;stroke-linecap:butt;stroke-width:0.5;" x="25.5703125" xlink:href="#m5cb6fa3528" y="205.539523701"/>
      </g>
     </g>
    </g>
    <g id="ytick_21">
     <g id="line2d_43">
      <defs>
       <path d="
M0 0
L2 0" id="m5cb6fa3528"/>
      </defs>
      <g>
       <use style="stroke:#000000;stroke-linecap:butt;stroke-width:0.5;" x="25.5703125" xlink:href="#m5cb6fa3528" y="191.577739891"/>
      </g>
     </g>
    </g>
    <g id="ytick_22">
     <g id="line2d_44">
      <defs>
       <path d="
M0 0
L2 0" id="m5cb6fa3528"/>
      </defs>
      <g>
       <use style="stroke:#000000;stroke-linecap:butt;stroke-width:0.5;" x="25.5703125" xlink:href="#m5cb6fa3528" y="177.615956081"/>
      </g>
     </g>
    </g>
    <g id="ytick_23">
     <g id="line2d_45">
      <defs>
       <path d="
M0 0
L2 0" id="m5cb6fa3528"/>
      </defs>
      <g>
       <use style="stroke:#000000;stroke-linecap:butt;stroke-width:0.5;" x="25.5703125" xlink:href="#m5cb6fa3528" y="163.654172271"/>
      </g>
     </g>
    </g>
    <g id="ytick_24">
     <g id="line2d_46">
      <defs>
       <path d="
M0 0
L2 0" id="m5cb6fa3528"/>
      </defs>
      <g>
       <use style="stroke:#000000;stroke-linecap:butt;stroke-width:0.5;" x="25.5703125" xlink:href="#m5cb6fa3528" y="149.692388461"/>
      </g>
     </g>
    </g>
    <g id="ytick_25">
     <g id="line2d_47">
      <defs>
       <path d="
M0 0
L2 0" id="m5cb6fa3528"/>
      </defs>
      <g>
       <use style="stroke:#000000;stroke-linecap:butt;stroke-width:0.5;" x="25.5703125" xlink:href="#m5cb6fa3528" y="135.730604651"/>
      </g>
     </g>
    </g>
    <g id="ytick_26">
     <g id="line2d_48">
      <defs>
       <path d="
M0 0
L2 0" id="m5cb6fa3528"/>
      </defs>
      <g>
       <use style="stroke:#000000;stroke-linecap:butt;stroke-width:0.5;" x="25.5703125" xlink:href="#m5cb6fa3528" y="121.768820841"/>
      </g>
     </g>
    </g>
    <g id="ytick_27">
     <g id="line2d_49">
      <defs>
       <path d="
M0 0
L2 0" id="m5cb6fa3528"/>
      </defs>
      <g>
       <use style="stroke:#000000;stroke-linecap:butt;stroke-width:0.5;" x="25.5703125" xlink:href="#m5cb6fa3528" y="107.807037031"/>
      </g>
     </g>
    </g>
    <g id="ytick_28">
     <g id="line2d_50">
      <defs>
       <path d="
M0 0
L2 0" id="m5cb6fa3528"/>
      </defs>
      <g>
       <use style="stroke:#000000;stroke-linecap:butt;stroke-width:0.5;" x="25.5703125" xlink:href="#m5cb6fa3528" y="93.8452532208"/>
      </g>
     </g>
    </g>
    <g id="ytick_29">
     <g id="line2d_51">
      <defs>
       <path d="
M0 0
L2 0" id="m5cb6fa3528"/>
      </defs>
      <g>
       <use style="stroke:#000000;stroke-linecap:butt;stroke-width:0.5;" x="25.5703125" xlink:href="#m5cb6fa3528" y="79.8834694107"/>
      </g>
     </g>
    </g>
    <g id="ytick_30">
     <g id="line2d_52">
      <defs>
       <path d="
M0 0
L2 0" id="m5cb6fa3528"/>
      </defs>
      <g>
       <use style="stroke:#000000;stroke-linecap:butt;stroke-width:0.5;" x="25.5703125" xlink:href="#m5cb6fa3528" y="65.9216856007"/>
      </g>
     </g>
    </g>
    <g id="ytick_31">
     <g id="line2d_53">
      <defs>
       <path d="
M0 0
L2 0" id="m5cb6fa3528"/>
      </defs>
      <g>
       <use style="stroke:#000000;stroke-linecap:butt;stroke-width:0.5;" x="25.5703125" xlink:href="#m5cb6fa3528" y="51.9599017907"/>
      </g>
     </g>
    </g>
    <g id="ytick_32">
     <g id="line2d_54">
      <defs>
       <path d="
M0 0
L2 0" id="m5cb6fa3528"/>
      </defs>
      <g>
       <use style="stroke:#000000;stroke-linecap:butt;stroke-width:0.5;" x="25.5703125" xlink:href="#m5cb6fa3528" y="37.9981179806"/>
      </g>
     </g>
    </g>
    <g id="ytick_33">
     <g id="line2d_55">
      <defs>
       <path d="
M0 0
L2 0" id="m5cb6fa3528"/>
      </defs>
      <g>
       <use style="stroke:#000000;stroke-linecap:butt;stroke-width:0.5;" x="25.5703125" xlink:href="#m5cb6fa3528" y="24.0363341706"/>
      </g>
     </g>
    </g>
   </g>
   <g id="patch_3">
    <path d="
M15.18 401.004
L555.476 401.004" style="fill:none;stroke:#000000;stroke-width:0.8;"/>
   </g>
   <g id="patch_4">
    <path d="
M25.5703 408.726
L25.5703 7.2" style="fill:none;stroke:#000000;stroke-width:0.8;"/>
   </g>
  </g>
 </g>
 <defs>
  <clipPath id="pbdfec9549d">
   <rect height="401.526153846" width="540.295929948" x="15.1800165457" y="7.2"/>
  </clipPath>
 </defs>
</svg>
