<?xml version="1.0" encoding="utf-8" standalone="no"?>
<!DOCTYPE svg PUBLIC "-//W3C//DTD SVG 1.1//EN"
  "http://www.w3.org/Graphics/SVG/1.1/DTD/svg11.dtd">
<!-- Created with matplotlib (http://matplotlib.sourceforge.net/) -->
<svg height="419pt" version="1.1" viewBox="0 0 564 419" width="564pt" xmlns="http://www.w3.org/2000/svg" xmlns:xlink="http://www.w3.org/1999/xlink">
 <defs>
  <style type="text/css">
*{stroke-linecap:square;stroke-linejoin:round;}
  </style>
 </defs>
 <g id="figure_1">
  <g id="patch_1">
   <path d="
M4.44089e-16 419.439
L564.626 419.439
L564.626 0
L4.44089e-16 0
z
" style="fill:#ffffff;"/>
  </g>
  <g id="axes_1">
   <g id="patch_2">
    <path d="
M42.6088 412.239
L557.426 412.239
L557.426 8.51291
L42.6088 8.51291
z
" style="fill:#ffffff;"/>
   </g>
   <g id="line2d_1">
    <path clip-path="url(#p51b3ba9df9)" d="
M52.5091 16.2769
L63.8311 16.2769
L63.8311 31.6467
L78.0952 31.6467
L78.0952 58.5627
L87.4908 58.5627
L87.4908 78.9571
L100.112 78.9571
L100.112 107.528
L104.777 107.528
L104.777 118.684
L112.267 118.684
L112.267 138.083
L115.373 138.083
L115.373 146.669
L120.708 146.669
L120.708 162.441
L127.181 162.441
L127.181 181.386
L129.043 181.386
L129.043 187.007
L133.984 187.007
L133.984 202.516
L136.85 202.516
L136.85 211.614
L138.18 211.614
L138.18 216.09
L140.664 216.09
L140.664 224.909
L144.019 224.909
L144.019 236.983
L147.013 236.983
L147.013 247.751
L147.944 247.751
L147.944 251.207
L150.564 251.207
L150.564 261.25
L152.183 261.25
L152.183 267.561
L152.959 267.561
L152.959 270.233
L155.165 270.233
L155.165 278.133
L156.544 278.133
L156.544 283.195
L158.493 283.195
L158.493 290.526
L160.896 290.526
L160.896 298.314
L162.025 298.314
L162.025 302.059
L162.572 302.059
L162.572 303.97
L163.636 303.97
L163.636 307.858
L164.153 307.858
L164.153 309.831
L165.16 309.831
L165.16 313.33
L168.421 313.33
L168.421 323.143
L169.287 323.143
L169.287 325.773
L170.538 325.773
L170.538 329.157
L170.942 329.157
L170.942 330.131
L172.882 330.131
L172.882 335.034
L173.255 335.034
L173.255 335.858
L174.343 335.858
L174.343 337.974
L175.39 337.974
L175.39 340.146
L176.067 340.146
L176.067 341.643
L177.052 341.643
L177.052 343.562
L178.004 343.562
L178.004 345.16
L178.315 345.16
L178.315 345.729
L179.816 345.729
L179.816 348.673
L180.107 348.673
L180.107 349.169
L180.68 349.169
L180.68 350.023
L180.962 350.023
L180.962 350.383
L182.597 350.383
L182.597 352.683
L184.142 352.683
L184.142 354.984
L184.638 354.984
L184.638 355.606
L184.883 355.606
L184.883 355.95
L185.367 355.95
L185.367 356.703
L186.077 356.703
L186.077 357.902
L186.309 357.902
L186.309 358.248
L187.445 358.248
L187.445 360.08
L188.104 360.08
L188.104 360.998
L188.749 360.998
L188.749 361.975
L189.378 361.975
L189.378 363.005
L189.585 363.005
L189.585 363.371
L190.197 363.371
L190.197 364.532
L190.597 364.532
L190.597 365.215
L190.795 365.215
L190.795 365.518
L191.765 365.518
L191.765 366.817
L193.068 366.817
L193.068 368.282
L193.43 368.282
L193.43 368.619
L193.609 368.619
L193.609 368.81
L193.963 368.81
L193.963 369.131
L195.17 369.131
L195.17 370.004
L195.672 370.004
L195.672 370.277
L196.488 370.277
L196.488 370.816
L196.967 370.897
L196.967 371.097
L197.438 371.097
L197.438 371.321
L198.053 371.321
L198.053 371.517
L199.245 371.599
L199.245 371.641
L199.679 371.641
L199.679 371.755
L200.247 371.755
L200.247 371.972
L200.527 371.972
L200.527 372.111
L201.079 372.111
L201.079 372.305
L201.753 372.305
L201.753 372.441
L202.542 372.449
L202.542 372.567
L203.308 372.633
L203.308 372.703
L203.684 372.703
L203.684 372.849
L204.177 372.849
L204.177 372.973
L204.541 373.062
L204.541 373.119
L205.49 373.203
L205.49 373.525
L205.953 373.525
L205.953 373.781
L206.181 373.781
L206.181 373.931
L206.632 373.931
L206.632 374.169
L206.855 374.169
L206.855 374.31
L207.186 374.31
L207.186 374.477
L207.837 374.477
L207.944 374.744
L209.197 374.851
L209.197 374.915
L210.298 375.014
L210.396 375.137
L210.688 375.137
L210.688 375.28
L211.168 375.28
L211.168 375.458
L211.452 375.458
L211.452 375.59
L211.733 375.59
L211.826 375.81
L212.103 375.81
L212.103 376.021
L212.378 376.021
L212.378 376.256
L212.559 376.256
L212.65 376.467
L213.186 376.467
L213.186 376.966
L213.625 376.966
L213.712 377.506
L213.885 377.506
L213.885 377.713
L214.143 377.713
L214.143 378.046
L214.398 378.046
L214.483 378.453
L214.985 378.453
L214.985 379.132
L215.151 379.132
L215.151 379.37
L215.397 379.37
L215.397 379.745
L215.722 379.745
L215.722 380.267
L216.124 380.267
L216.124 380.942
L216.44 380.942
L216.44 381.5
L216.832 381.5
L216.832 382.14
L217.141 382.14
L217.141 382.669
L217.37 382.669
L217.37 383.036
L217.598 383.036
L217.598 383.418
L217.748 383.418
L217.748 383.684
L218.047 383.684
L218.047 384.179
L218.27 384.179
L218.27 384.521
L218.417 384.521
L218.417 384.733
L218.709 384.733
L218.709 385.176
L218.854 385.176
L218.854 385.38
L219.355 385.38
L219.355 386.031
L219.708 386.031
L219.708 386.447
L220.125 386.447
L220.194 386.973
L220.536 386.973
L220.604 387.408
L220.739 387.408
L220.807 387.66
L221.142 387.66
L221.142 388.122
L221.604 388.122
L221.604 388.79
L221.734 388.79
L221.799 389.081
L221.929 389.081
L221.929 389.277
L222.378 389.277
L222.378 389.986
L222.506 389.986
L222.569 390.261
L222.695 390.261
L222.695 390.423
L223.318 390.423
L223.318 391.265
L223.441 391.265
L223.441 391.44
L223.685 391.44
L223.685 391.805
L223.987 391.805
L223.987 392.225
L224.226 392.225
L224.226 392.576
L224.345 392.576
L224.345 392.738
L224.523 392.738
L224.523 392.994
L224.699 392.994
L224.699 393.262
L225.106 393.262
L225.106 393.839
L225.222 393.839
L225.222 393.991
L225.394 393.991
L225.394 394.201
L225.565 394.201
L225.565 394.423
L225.791 394.423
L225.791 394.696
L225.96 394.696
L225.96 394.912
L226.294 394.912
L226.404 395.5
L226.569 395.5
L226.624 395.751
L226.896 395.751
L226.95 396.129
L227.112 396.129
L227.112 396.339
L227.379 396.339
L227.432 396.773
L227.697 396.773
L227.749 397.196
L227.907 397.196
L227.907 397.405
L228.373 397.405
L228.475 398.099
L228.629 398.153
L228.629 398.269
L228.781 398.269
L228.781 398.429
L228.932 398.429
L228.932 398.575
L229.133 398.575
L229.133 398.751
L229.283 398.751
L229.283 398.869
L229.97 398.974
L230.019 399.33
L230.451 399.437
L230.451 399.535
L230.83 399.636
L230.83 399.685
L231.158 399.744
L231.158 399.834
L231.435 399.834
L231.527 399.976
L231.982 400.083
L231.982 400.125
L232.871 400.218
L232.915 400.307
L234.65 400.277
L234.65 400.191
L236.82 400.258
L236.82 400.327
L237.235 400.425
L237.235 400.452
L237.569 400.499
L237.569 400.577
L237.937 400.667
L237.937 400.736
L238.263 400.822
L238.335 400.9
L238.799 400.992
L238.869 401.066
L239.185 401.156
L239.29 401.223
L239.635 401.326
L239.635 401.369
L240.145 401.449
L240.246 401.674
L240.745 401.715
L240.844 401.911
L241.203 402.002
L241.236 402.115
L241.526 402.192
L241.622 402.29
L242.097 402.385
L242.192 402.575
L242.627 402.657
L242.627 402.687
L243.387 402.789
L243.477 402.882
L243.804 402.95
L243.804 403.009
L244.157 403.102
L244.157 403.131
L244.447 403.23
L244.447 403.242
L244.677 403.242
L244.706 403.371
L245.019 403.371
L245.104 403.556
L245.357 403.653
L245.44 403.735
L245.635 403.805
L245.635 403.853
L245.938 403.938
L245.938 404.007
L246.265 404.091
L246.346 404.192
L246.614 404.301
L246.614 404.309
L247.144 404.411
L247.249 404.468
L248.225 404.372
L248.325 404.325
L249.771 404.217
L249.866 404.207
L250.617 404.143
L250.687 404.068
L251.031 403.981
L251.031 403.954
L251.326 403.845
L251.371 403.791
L251.663 403.791
L251.663 403.626
L251.863 403.626
L251.974 403.427
L252.172 403.347
L252.259 403.266
L252.498 403.266
L252.498 403.128
L252.821 403.034
L252.907 402.903
L253.225 402.819
L253.33 402.689
L253.644 402.583
L253.706 402.552
L254.199 402.448
L254.281 402.39
L254.684 402.284
L254.764 402.193
L255.121 402.121
L255.22 402.028
L255.571 401.949
L255.649 401.828
L255.937 401.717
L256.033 401.623
L256.28 401.553
L256.374 401.431
L256.711 401.398
L256.73 401.279
L257.063 401.187
L257.173 401.104
L257.807 400.999
L257.825 400.98
L258.233 400.872
L258.251 400.859
L261.16 400.963
L261.255 400.995
L261.866 401.088
L261.943 401.122
L262.509 401.225
L262.584 401.27
L263.033 401.369
L263.093 401.436
L263.475 401.509
L263.563 401.592
L264.353 401.699
L264.381 401.727
L264.775 401.834
L264.844 401.869
L265.149 401.968
L265.259 402.039
L265.518 402.131
L265.627 402.207
L265.963 402.285
L265.963 402.335
L266.308 402.439
L266.401 402.495
L266.948 402.59
L267.025 402.663
L267.472 402.769
L267.561 402.819
L267.925 402.904
L267.999 402.964
L268.345 403.075
L268.455 403.118
L268.892 403.229
L269 403.25
L273.742 403.15
L273.803 403.118
L274.343 403.014
L274.442 402.959
L275.23 402.849
L275.335 402.826
L281.116 402.717
L281.217 402.694
L281.739 402.588
L281.815 402.564
L282.526 402.458
L282.636 402.401
L283.009 402.294
L283.103 402.261
L283.463 402.177
L283.548 402.116
L283.825 402.01
L283.93 401.939
L284.245 401.828
L284.349 401.755
L284.617 401.675
L284.727 401.569
L284.944 401.466
L285.046 401.404
L285.315 401.318
L285.395 401.253
L285.673 401.149
L285.693 401.11
L285.89 401.003
L285.943 400.953
L286.119 400.863
L286.222 400.746
L286.352 400.651
L286.448 400.551
L286.582 400.446
L286.646 400.386
L286.831 400.279
L286.925 400.184
L287.158 400.079
L287.245 399.937
L287.395 399.886
L287.488 399.733
L287.679 399.64
L287.789 399.488
L287.93 399.397
L288.039 399.263
L288.184 399.171
L288.292 399.015
L288.424 398.925
L288.526 398.779
L288.651 398.689
L288.728 398.594
L288.881 398.502
L288.969 398.406
L289.162 398.335
L289.267 398.157
L289.423 398.064
L289.481 397.982
L289.63 397.879
L289.739 397.771
L289.887 397.662
L289.977 397.562
L290.124 397.462
L290.197 397.347
L290.359 397.282
L290.449 397.096
L290.56 397.01
L290.648 396.881
L290.758 396.788
L290.841 396.661
L290.956 396.562
L291.054 396.406
L291.168 396.31
L291.265 396.158
L291.411 396.058
L291.513 395.88
L291.641 395.776
L291.737 395.621
L291.859 395.565
L291.97 395.355
L292.101 395.247
L292.206 395.1
L292.315 394.998
L292.414 394.889
L292.569 394.818
L292.662 394.644
L292.769 394.548
L292.872 394.421
L292.984 394.315
L293.07 394.197
L293.176 394.101
L293.287 393.94
L293.402 393.833
L293.497 393.686
L293.602 393.638
L293.701 393.446
L293.805 393.336
L293.883 393.233
L293.996 393.126
L294.104 392.995
L294.216 392.895
L294.308 392.789
L294.434 392.734
L294.535 392.575
L294.669 392.491
L294.769 392.347
L294.907 392.294
L295.011 392.117
L295.167 392.01
L295.275 391.864
L295.447 391.753
L295.545 391.622
L295.679 391.514
L295.776 391.415
L295.918 391.304
L296.014 391.207
L296.173 391.117
L296.227 391.032
L296.367 390.932
L296.475 390.822
L296.595 390.727
L296.689 390.627
L296.818 390.53
L296.924 390.409
L297.043 390.308
L297.152 390.168
L297.279 390.065
L297.349 389.967
L297.466 389.863
L297.565 389.749
L297.685 389.642
L297.771 389.558
L297.899 389.448
L298.006 389.338
L298.154 389.233
L298.234 389.144
L298.368 389.034
L298.473 388.94
L298.631 388.834
L298.718 388.762
L298.879 388.659
L298.981 388.564
L299.149 388.457
L299.259 388.351
L299.396 388.243
L299.501 388.156
L299.662 388.078
L299.757 387.955
L299.897 387.854
L299.948 387.797
L300.126 387.688
L300.232 387.571
L300.407 387.461
L300.501 387.375
L300.675 387.278
L300.779 387.17
L300.947 387.076
L301.039 386.966
L301.187 386.858
L301.281 386.765
L301.413 386.678
L301.518 386.567
L301.686 386.471
L301.775 386.349
L301.916 386.241
L302.019 386.146
L302.173 386.036
L302.271 385.956
L302.42 385.86
L302.529 385.766
L302.702 385.659
L302.809 385.572
L302.984 385.498
L303.09 385.358
L303.249 385.265
L303.354 385.168
L303.522 385.083
L303.622 384.995
L303.84 384.89
L303.937 384.82
L304.172 384.719
L304.244 384.654
L304.497 384.551
L304.595 384.473
L304.845 384.362
L304.944 384.285
L305.122 384.184
L305.224 384.098
L305.417 384.005
L305.498 383.942
L305.699 383.834
L305.808 383.76
L305.981 383.659
L306.083 383.575
L306.254 383.471
L306.361 383.393
L306.54 383.293
L306.643 383.214
L306.844 383.105
L306.956 383.041
L307.195 382.932
L307.295 382.861
L307.508 382.752
L307.598 382.689
L307.82 382.579
L307.927 382.507
L308.114 382.42
L308.223 382.324
L308.44 382.221
L308.53 382.13
L308.728 382.022
L308.832 381.962
L309.09 381.855
L309.144 381.821
L309.416 381.711
L309.509 381.672
L309.819 381.562
L309.919 381.505
L310.167 381.394
L310.263 381.342
L310.606 381.233
L310.714 381.193
L311.273 381.083
L311.384 381.052
L311.905 380.95
L312.008 380.909
L312.52 380.799
L312.6 380.78
L313.124 380.679
L313.23 380.637
L313.645 380.527
L313.739 380.487
L313.985 380.381
L314.078 380.332
L314.32 380.222
L314.422 380.181
L314.736 380.081
L314.843 380.03
L315.111 379.923
L315.217 379.861
L315.468 379.758
L315.579 379.703
L315.963 379.593
L316.068 379.557
L316.322 379.446
L316.432 379.392
L316.69 379.284
L316.798 379.226
L316.988 379.126
L317.078 379.057
L317.275 378.947
L317.383 378.885
L317.63 378.775
L317.731 378.73
L317.993 378.624
L318.093 378.564
L318.321 378.457
L318.421 378.389
L318.672 378.279
L318.781 378.224
L319.032 378.115
L319.141 378.062
L319.49 377.951
L319.598 377.916
L319.975 377.809
L320.079 377.775
L320.522 377.666
L320.63 377.618
L320.94 377.51
L321.044 377.456
L321.333 377.348
L321.432 377.292
L321.658 377.183
L321.767 377.135
L322.042 377.025
L322.145 376.969
L322.37 376.861
L322.474 376.8
L322.685 376.69
L322.796 376.611
L322.979 376.502
L323.088 376.427
L323.279 376.318
L323.383 376.238
L323.567 376.128
L323.678 376.031
L323.84 375.921
L323.946 375.831
L324.088 375.724
L324.197 375.63
L324.34 375.526
L324.449 375.42
L324.613 375.324
L324.724 375.186
L324.862 375.076
L324.959 374.991
L325.105 374.882
L325.201 374.801
L325.34 374.713
L325.448 374.597
L325.573 374.49
L325.678 374.395
L325.852 374.29
L325.96 374.187
L326.117 374.076
L326.225 373.989
L326.371 373.879
L326.477 373.768
L326.624 373.658
L326.729 373.561
L326.871 373.459
L326.978 373.366
L327.126 373.261
L327.235 373.165
L327.39 373.064
L327.494 372.967
L327.647 372.858
L327.757 372.737
L327.889 372.634
L327.984 372.544
L328.123 372.434
L328.228 372.331
L328.357 372.231
L328.46 372.122
L328.599 372.011
L328.707 371.914
L328.853 371.806
L328.964 371.719
L329.111 371.618
L329.218 371.519
L329.369 371.416
L329.472 371.32
L329.623 371.212
L329.721 371.144
L329.914 371.034
L330.02 370.97
L330.225 370.869
L330.332 370.801
L330.599 370.692
L330.706 370.644
L331.004 370.54
L331.113 370.492
L331.443 370.381
L331.534 370.354
L332.032 370.244
L332.142 370.208
L332.983 370.097
L333.092 370.077
L333.605 369.968
L333.713 369.922
L334.046 369.813
L334.155 369.786
L334.642 369.676
L334.75 369.654
L335.22 369.543
L335.33 369.51
L335.94 369.401
L336.043 369.382
L336.875 369.272
L336.986 369.246
L337.431 369.135
L337.53 369.109
L338.855 368.998
L338.963 368.976
L341.726 369.087
L341.828 369.12
L342.21 369.23
L342.319 369.261
L343.541 369.372
L343.652 369.382
L345.883 369.271
L345.993 369.25
L347.228 369.138
L347.335 369.121
L348.43 369.011
L348.54 368.998
L352.209 368.888
L352.318 368.868
L354.453 368.978
L354.562 368.989
L356.616 369.1
L356.727 369.116
L358.161 369.227
L358.271 369.237
L359.199 369.347
L359.31 369.356
L362.37 369.245
L362.478 369.233
L363.029 369.122
L363.139 369.082
L363.433 368.972
L363.544 368.92
L363.809 368.809
L363.92 368.76
L364.154 368.649
L364.263 368.609
L364.598 368.498
L364.706 368.467
L365.052 368.357
L365.161 368.311
L365.479 368.2
L365.588 368.169
L365.926 368.058
L366.035 368.027
L366.42 367.917
L366.531 367.886
L366.922 367.776
L367.033 367.746
L367.438 367.636
L367.549 367.607
L368.107 367.496
L368.218 367.483
L369.055 367.373
L369.165 367.354
L370.93 367.243
L371.041 367.234
L372.249 367.123
L372.358 367.103
L373.04 366.992
L373.151 366.963
L373.573 366.852
L373.684 366.821
L373.946 366.71
L374.057 366.653
L374.325 366.543
L374.436 366.496
L374.694 366.385
L374.805 366.331
L375.012 366.221
L375.122 366.151
L375.314 366.041
L375.425 365.97
L375.604 365.859
L375.711 365.795
L375.898 365.685
L376.007 365.62
L376.189 365.509
L376.299 365.437
L376.481 365.326
L376.592 365.257
L376.76 365.148
L376.87 365.073
L377.057 364.963
L377.165 364.899
L377.37 364.789
L377.479 364.735
L377.784 364.624
L377.895 364.594
L378.386 364.483
L378.496 364.451
L378.861 364.341
L378.969 364.316
L379.417 364.205
L379.527 364.174
L379.893 364.063
L380.004 364.024
L380.302 363.913
L380.413 363.87
L380.789 363.759
L380.899 363.735
L381.346 363.625
L381.455 363.599
L382.135 363.488
L382.245 363.459
L382.578 363.348
L382.689 363.312
L382.979 363.201
L383.088 363.156
L383.382 363.045
L383.493 363.006
L383.747 362.895
L383.858 362.847
L384.182 362.736
L384.291 362.706
L384.703 362.595
L384.813 362.558
L385.116 362.447
L385.226 362.404
L385.524 362.293
L385.635 362.251
L385.905 362.14
L386.016 362.094
L386.294 361.984
L386.405 361.942
L386.665 361.832
L386.776 361.783
L387.115 361.672
L387.224 361.632
L387.539 361.521
L387.649 361.473
L387.905 361.363
L388.015 361.309
L388.236 361.199
L388.347 361.142
L388.549 361.032
L388.66 360.973
L388.878 360.863
L388.989 360.808
L389.254 360.696
L389.364 360.65
L389.651 360.54
L389.762 360.492
L390.004 360.382
L390.113 360.323
L390.319 360.213
L390.43 360.151
L390.663 360.04
L390.771 359.988
L390.988 359.878
L391.096 359.817
L391.31 359.706
L391.421 359.647
L391.634 359.537
L391.744 359.486
L392.032 359.375
L392.142 359.33
L392.476 359.219
L392.585 359.179
L392.91 359.068
L393.018 359.024
L393.255 358.913
L393.366 358.856
L393.578 358.745
L393.683 358.687
L393.921 358.576
L394.032 358.524
L394.286 358.413
L394.396 358.372
L394.725 358.261
L394.836 358.223
L395.149 358.112
L395.259 358.069
L395.528 357.958
L395.638 357.914
L395.983 357.803
L396.094 357.777
L396.61 357.666
L396.72 357.646
L397.297 357.535
L397.407 357.521
L399.097 357.41
L399.207 357.393
L399.653 357.283
L399.764 357.24
L400.045 357.129
L400.156 357.09
L400.492 356.979
L400.603 356.946
L401.043 356.835
L401.154 356.808
L401.623 356.697
L401.734 356.668
L402.061 356.557
L402.172 356.505
L402.482 356.394
L402.592 356.362
L402.905 356.251
L403.016 356.206
L403.284 356.095
L403.393 356.053
L403.736 355.942
L403.847 355.91
L404.39 355.799
L404.501 355.779
L405.316 355.668
L405.427 355.647
L405.938 355.536
L406.049 355.508
L406.524 355.397
L406.634 355.371
L407.083 355.26
L407.194 355.228
L407.67 355.118
L407.781 355.088
L408.115 354.977
L408.225 354.941
L408.586 354.83
L408.697 354.796
L408.974 354.685
L409.085 354.633
L409.35 354.522
L409.461 354.482
L409.744 354.37
L409.855 354.331
L410.146 354.22
L410.257 354.177
L410.669 354.066
L410.78 354.04
L411.296 353.929
L411.407 353.903
L412.498 353.792
L412.609 353.787
L413.293 353.676
L413.404 353.648
L413.902 353.537
L414.012 353.505
L414.381 353.394
L414.492 353.357
L414.773 353.246
L414.883 353.197
L415.113 353.086
L415.224 353.028
L415.438 352.918
L415.549 352.863
L415.772 352.752
L415.883 352.692
L416.093 352.581
L416.204 352.525
L416.43 352.414
L416.541 352.359
L416.807 352.248
L416.918 352.209
L417.3 352.098
L417.411 352.063
L417.74 351.952
L417.851 351.907
L418.131 351.796
L418.242 351.753
L418.508 351.642
L418.619 351.59
L418.879 351.479
L418.989 351.428
L419.215 351.317
L419.326 351.261
L419.568 351.15
L419.679 351.097
L419.951 350.986
L420.062 350.944
L420.304 350.833
L420.414 350.778
L420.65 350.668
L420.761 350.613
L420.997 350.502
L421.107 350.45
L421.383 350.339
L421.494 350.289
L421.741 350.178
L421.852 350.124
L422.058 350.013
L422.169 349.95
L422.356 349.84
L422.467 349.771
L422.66 349.66
L422.771 349.598
L422.972 349.487
L423.083 349.426
L423.295 349.315
L423.405 349.262
L423.669 349.151
L423.78 349.103
L424.052 348.992
L424.163 348.953
L424.461 348.842
L424.572 348.804
L424.934 348.693
L425.045 348.664
L425.511 348.553
L425.622 348.529
L426.268 348.418
L426.379 348.407
L427.758 348.295
L427.869 348.276
L428.373 348.165
L428.484 348.143
L429.452 348.032
L429.563 348.016
L430.08 347.905
L430.191 347.887
L430.846 347.776
L430.957 347.743
L431.411 347.632
L431.522 347.606
L431.942 347.495
L432.052 347.463
L432.365 347.352
L432.476 347.3
L432.734 347.189
L432.845 347.142
L433.141 347.031
L433.252 346.99
L433.525 346.878
L433.636 346.835
L433.884 346.724
L433.995 346.669
L434.222 346.557
L434.333 346.504
L434.564 346.393
L434.675 346.341
L434.893 346.23
L435.004 346.175
L435.227 346.064
L435.338 346.006
L435.53 345.895
L435.641 345.827
L435.83 345.716
L435.941 345.646
L436.122 345.535
L436.233 345.474
L436.44 345.363
L436.551 345.3
L436.745 345.189
L436.856 345.13
L437.067 345.019
L437.178 344.956
L437.377 344.845
L437.488 344.788
L437.75 344.677
L437.861 344.631
L438.129 344.52
L438.24 344.456
L438.461 344.345
L438.572 344.293
L438.811 344.182
L438.922 344.135
L439.215 344.024
L439.326 343.976
L439.575 343.865
L439.686 343.819
L439.996 343.708
L440.107 343.67
L440.415 343.559
L440.525 343.515
L440.839 343.404
L440.95 343.367
L441.325 343.256
L441.436 343.223
L441.86 343.112
L441.97 343.086
L442.709 342.975
L442.82 342.967
L444.745 342.856
L444.856 342.843
L449.01 342.954
L449.121 342.971
L449.708 343.082
L449.819 343.117
L450.133 343.229
L450.244 343.271
L450.502 343.382
L450.613 343.434
L450.858 343.545
L450.969 343.596
L451.258 343.707
L451.37 343.74
L451.785 343.851
L451.896 343.875
L452.748 343.986
L452.859 343.995
L453.652 344.106
L453.764 344.13
L454.258 344.241
L454.369 344.257
L455.495 344.368
L455.606 344.389
L456.353 344.5
L456.464 344.512
L458.391 344.401
L458.502 344.373
L458.923 344.262
L459.034 344.238
L459.652 344.127
L459.763 344.104
L460.667 343.992
L460.778 343.966
L461.292 343.855
L461.403 343.825
L461.843 343.714
L461.954 343.677
L462.244 343.566
L462.355 343.517
L462.61 343.406
L462.721 343.36
L462.991 343.249
L463.102 343.198
L463.345 343.087
L463.456 343.031
L463.663 342.92
L463.774 342.854
L463.958 342.743
L464.069 342.674
L464.252 342.563
L464.363 342.492
L464.557 342.381
L464.668 342.317
L464.871 342.206
L464.983 342.143
L465.194 342.032
L465.305 341.974
L465.524 341.863
L465.636 341.807
L465.837 341.696
L465.948 341.633
L466.145 341.522
L466.256 341.454
L466.452 341.343
L466.563 341.282
L466.756 341.171
L466.867 341.104
L467.053 340.993
L467.164 340.931
L467.371 340.82
L467.482 340.766
L467.698 340.654
L467.809 340.589
L468.001 340.478
L468.112 340.421
L468.349 340.31
L468.46 340.261
L468.694 340.15
L468.805 340.092
L469.011 339.981
L469.122 339.917
L469.298 339.806
L469.409 339.74
L469.597 339.629
L469.708 339.563
L469.89 339.452
L470.001 339.382
L470.162 339.271
L470.273 339.203
L470.472 339.092
L470.583 339.026
L470.761 338.915
L470.872 338.844
L471.074 338.733
L471.185 338.674
L471.39 338.563
L471.501 338.503
L471.709 338.392
L471.82 338.327
L471.999 338.216
L472.11 338.147
L472.299 338.036
L472.41 337.977
L472.624 337.866
L472.735 337.802
L472.94 337.691
L473.051 337.632
L473.295 337.521
L473.406 337.476
L473.669 337.365
L473.78 337.312
L474.017 337.201
L474.128 337.151
L474.369 337.04
L474.48 336.984
L474.69 336.873
L474.801 336.816
L475.014 336.705
L475.125 336.644
L475.325 336.533
L475.436 336.471
L475.63 336.359
L475.741 336.298
L476.019 336.187
L476.13 336.149
L476.491 336.038
L476.602 336.006
L476.937 335.895
L477.048 335.857
L477.358 335.746
L477.469 335.707
L477.774 335.596
L477.885 335.563
L478.253 335.452
L478.365 335.41
L478.633 335.299
L478.744 335.247
L478.998 335.136
L479.109 335.089
L479.399 334.978
L479.51 334.943
L479.885 334.832
L479.996 334.801
L480.478 334.69
L480.589 334.664
L481.05 334.553
L481.161 334.526
L481.914 334.415
L482.025 334.392
L482.679 334.281
L482.79 334.259
L483.253 334.148
L483.364 334.112
L483.681 334.001
L483.793 333.968
L484.204 333.857
L484.315 333.828
L484.796 333.717
L484.908 333.691
L485.449 333.58
L485.56 333.562
L486.141 333.451
L486.252 333.415
L486.619 333.304
L486.73 333.27
L487.094 333.159
L487.205 333.116
L487.493 333.005
L487.604 332.963
L487.976 332.852
L488.087 332.82
L488.582 332.709
L488.693 332.688
L489.332 332.577
L489.443 332.559
L493.855 332.448
L493.966 332.407
L494.328 332.296
L494.439 332.265
L494.838 332.154
L494.949 332.123
L495.385 332.012
L495.496 331.985
L495.925 331.874
L496.036 331.839
L496.351 331.728
L496.462 331.684
L496.751 331.573
L496.863 331.53
L497.171 331.419
L497.282 331.384
L498.119 331.273
L498.23 331.267
L499.312 331.156
L499.423 331.141
L501.465 331.03
L501.576 331.006
L502.151 330.895
L502.262 330.875
L503.034 330.764
L503.145 330.748
L503.818 330.637
L503.929 330.619
L504.469 330.507
L504.58 330.487
L507.582 330.598
L507.693 330.626
L508.132 330.737
L508.243 330.766
L508.609 330.877
L508.721 330.912
L509.037 331.023
L509.148 331.065
L509.448 331.176
L509.559 331.225
L509.858 331.336
L509.969 331.374
L510.314 331.485
L510.426 331.518
L510.806 331.629
L510.917 331.667
L511.325 331.778
L511.436 331.811
L511.819 331.922
L511.93 331.952
L512.376 332.063
L512.487 332.09
L512.902 332.202
L513.013 332.235
L513.35 332.346
L513.461 332.385
L513.71 332.496
L513.821 332.544
L514.141 332.655
L514.252 332.693
L514.544 332.804
L514.655 332.854
L514.911 332.965
L515.022 333.012
L515.326 333.123
L515.437 333.159
L515.734 333.27
L515.845 333.315
L516.215 333.426
L516.326 333.449
L516.799 333.561
L516.91 333.582
L517.367 333.693
L517.478 333.721
L517.936 333.833
L518.047 333.862
L518.457 333.973
L518.569 334.006
L518.965 334.117
L519.076 334.142
L519.747 334.253
L519.858 334.273
L520.587 334.384
L520.698 334.407
L521.155 334.518
L521.266 334.545
L521.847 334.656
L521.958 334.673
L522.592 334.784
L522.703 334.805
L523.141 334.916
L523.252 334.947
L523.661 335.058
L523.772 335.081
L524.382 335.192
L524.494 335.225
L524.877 335.336
L524.988 335.364
L525.455 335.475
L525.567 335.503
L525.921 335.614
L526.032 335.651
L526.315 335.762
L526.426 335.808
L526.699 335.919
L526.81 335.961
L527.124 336.072
L527.235 336.106
L527.714 336.217
L527.825 336.24
L528.465 336.351
L528.576 336.373
L529.782 336.484
L529.893 336.504
L530.639 336.615
L530.75 336.626
L532.889 336.737
L533 336.754
L533.745 336.865
L533.856 336.889
L534.299 337
L534.41 337.031
L534.803 337.142
L534.914 337.172
L535.274 337.283
L535.385 337.318
L535.723 337.429
L535.834 337.468
L536.21 337.579
L536.322 337.615
L536.729 337.726
L536.84 337.752
L537.412 337.863
L537.523 337.886
L538.123 337.997
L538.234 338.019
L540.472 338.13
L540.583 338.133
L540.583 338.133
L546.019 338.022
L546.13 337.998
L546.776 337.887
L546.887 337.869
L547.379 337.758
L547.49 337.733
L547.526 337.726
L547.526 337.726" style="fill:none;stroke:#0000ff;stroke-width:5.0;"/>
   </g>
   <g id="matplotlib.axis_1">
    <g id="xtick_1">
     <g id="line2d_2">
      <path d="
M172.772 412.239
L172.772 8.51291" style="fill:none;stroke:#000000;stroke-dasharray:1.000000,3.000000;stroke-dashoffset:0.0;stroke-linecap:butt;stroke-width:0.5;"/>
     </g>
     <g id="line2d_3">
      <defs>
       <path d="
M0 0
L0 -4" id="mbaf646f5f2"/>
      </defs>
      <g>
       <use style="stroke:#000000;stroke-linecap:butt;stroke-width:0.5;" x="172.771988442" xlink:href="#mbaf646f5f2" y="16.276875"/>
      </g>
     </g>
     <g id="text_1">
      <!-- 5 -->
      <defs>
       <path d="
M10.7969 72.9062
L49.5156 72.9062
L49.5156 64.5938
L19.8281 64.5938
L19.8281 46.7344
Q21.9688 47.4688 24.1094 47.8281
Q26.2656 48.1875 28.4219 48.1875
Q40.625 48.1875 47.75 41.5
Q54.8906 34.8125 54.8906 23.3906
Q54.8906 11.625 47.5625 5.09375
Q40.2344 -1.42188 26.9062 -1.42188
Q22.3125 -1.42188 17.5469 -0.640625
Q12.7969 0.140625 7.71875 1.70312
L7.71875 11.625
Q12.1094 9.23438 16.7969 8.0625
Q21.4844 6.89062 26.7031 6.89062
Q35.1562 6.89062 40.0781 11.3281
Q45.0156 15.7656 45.0156 23.3906
Q45.0156 31 40.0781 35.4375
Q35.1562 39.8906 26.7031 39.8906
Q22.75 39.8906 18.8125 39.0156
Q14.8906 38.1406 10.7969 36.2812
z
" id="BitstreamVeraSans-Roman-35"/>
      </defs>
      <g transform="translate(167.111363442 37.774375)scale(0.24 -0.24)">
       <use xlink:href="#BitstreamVeraSans-Roman-35"/>
      </g>
     </g>
    </g>
    <g id="xtick_2">
     <g id="line2d_4">
      <path d="
M312.39 412.239
L312.39 8.51291" style="fill:none;stroke:#000000;stroke-dasharray:1.000000,3.000000;stroke-dashoffset:0.0;stroke-linecap:butt;stroke-width:0.5;"/>
     </g>
     <g id="line2d_5">
      <defs>
       <path d="
M0 0
L0 -4" id="mbaf646f5f2"/>
      </defs>
      <g>
       <use style="stroke:#000000;stroke-linecap:butt;stroke-width:0.5;" x="312.390065662" xlink:href="#mbaf646f5f2" y="16.276875"/>
      </g>
     </g>
     <g id="text_2">
      <!-- 10 -->
      <defs>
       <path d="
M31.7812 66.4062
Q24.1719 66.4062 20.3281 58.9062
Q16.5 51.4219 16.5 36.375
Q16.5 21.3906 20.3281 13.8906
Q24.1719 6.39062 31.7812 6.39062
Q39.4531 6.39062 43.2812 13.8906
Q47.125 21.3906 47.125 36.375
Q47.125 51.4219 43.2812 58.9062
Q39.4531 66.4062 31.7812 66.4062
M31.7812 74.2188
Q44.0469 74.2188 50.5156 64.5156
Q56.9844 54.8281 56.9844 36.375
Q56.9844 17.9688 50.5156 8.26562
Q44.0469 -1.42188 31.7812 -1.42188
Q19.5312 -1.42188 13.0625 8.26562
Q6.59375 17.9688 6.59375 36.375
Q6.59375 54.8281 13.0625 64.5156
Q19.5312 74.2188 31.7812 74.2188" id="BitstreamVeraSans-Roman-30"/>
       <path d="
M12.4062 8.29688
L28.5156 8.29688
L28.5156 63.9219
L10.9844 60.4062
L10.9844 69.3906
L28.4219 72.9062
L38.2812 72.9062
L38.2812 8.29688
L54.3906 8.29688
L54.3906 0
L12.4062 0
z
" id="BitstreamVeraSans-Roman-31"/>
      </defs>
      <g transform="translate(299.235065662 38.089375)scale(0.24 -0.24)">
       <use xlink:href="#BitstreamVeraSans-Roman-31"/>
       <use x="63.623046875" xlink:href="#BitstreamVeraSans-Roman-30"/>
      </g>
     </g>
    </g>
    <g id="xtick_3">
     <g id="line2d_6">
      <path d="
M452.008 412.239
L452.008 8.51291" style="fill:none;stroke:#000000;stroke-dasharray:1.000000,3.000000;stroke-dashoffset:0.0;stroke-linecap:butt;stroke-width:0.5;"/>
     </g>
     <g id="line2d_7">
      <defs>
       <path d="
M0 0
L0 -4" id="mbaf646f5f2"/>
      </defs>
      <g>
       <use style="stroke:#000000;stroke-linecap:butt;stroke-width:0.5;" x="452.008142882" xlink:href="#mbaf646f5f2" y="16.276875"/>
      </g>
     </g>
     <g id="text_3">
      <!-- 15 -->
      <g transform="translate(439.104392882 37.774375)scale(0.24 -0.24)">
       <use xlink:href="#BitstreamVeraSans-Roman-31"/>
       <use x="63.623046875" xlink:href="#BitstreamVeraSans-Roman-35"/>
      </g>
     </g>
    </g>
    <g id="xtick_4">
     <g id="line2d_8">
      <defs>
       <path d="
M0 0
L0 -2" id="m868379bafd"/>
      </defs>
      <g>
       <use style="stroke:#000000;stroke-linecap:butt;stroke-width:0.5;" x="61.0775266664" xlink:href="#m868379bafd" y="16.276875"/>
      </g>
     </g>
    </g>
    <g id="xtick_5">
     <g id="line2d_9">
      <defs>
       <path d="
M0 0
L0 -2" id="m868379bafd"/>
      </defs>
      <g>
       <use style="stroke:#000000;stroke-linecap:butt;stroke-width:0.5;" x="89.0011421104" xlink:href="#m868379bafd" y="16.276875"/>
      </g>
     </g>
    </g>
    <g id="xtick_6">
     <g id="line2d_10">
      <defs>
       <path d="
M0 0
L0 -2" id="m868379bafd"/>
      </defs>
      <g>
       <use style="stroke:#000000;stroke-linecap:butt;stroke-width:0.5;" x="116.924757554" xlink:href="#m868379bafd" y="16.276875"/>
      </g>
     </g>
    </g>
    <g id="xtick_7">
     <g id="line2d_11">
      <defs>
       <path d="
M0 0
L0 -2" id="m868379bafd"/>
      </defs>
      <g>
       <use style="stroke:#000000;stroke-linecap:butt;stroke-width:0.5;" x="144.848372998" xlink:href="#m868379bafd" y="16.276875"/>
      </g>
     </g>
    </g>
    <g id="xtick_8">
     <g id="line2d_12">
      <defs>
       <path d="
M0 0
L0 -2" id="m868379bafd"/>
      </defs>
      <g>
       <use style="stroke:#000000;stroke-linecap:butt;stroke-width:0.5;" x="200.695603886" xlink:href="#m868379bafd" y="16.276875"/>
      </g>
     </g>
    </g>
    <g id="xtick_9">
     <g id="line2d_13">
      <defs>
       <path d="
M0 0
L0 -2" id="m868379bafd"/>
      </defs>
      <g>
       <use style="stroke:#000000;stroke-linecap:butt;stroke-width:0.5;" x="228.61921933" xlink:href="#m868379bafd" y="16.276875"/>
      </g>
     </g>
    </g>
    <g id="xtick_10">
     <g id="line2d_14">
      <defs>
       <path d="
M0 0
L0 -2" id="m868379bafd"/>
      </defs>
      <g>
       <use style="stroke:#000000;stroke-linecap:butt;stroke-width:0.5;" x="256.542834774" xlink:href="#m868379bafd" y="16.276875"/>
      </g>
     </g>
    </g>
    <g id="xtick_11">
     <g id="line2d_15">
      <defs>
       <path d="
M0 0
L0 -2" id="m868379bafd"/>
      </defs>
      <g>
       <use style="stroke:#000000;stroke-linecap:butt;stroke-width:0.5;" x="284.466450218" xlink:href="#m868379bafd" y="16.276875"/>
      </g>
     </g>
    </g>
    <g id="xtick_12">
     <g id="line2d_16">
      <defs>
       <path d="
M0 0
L0 -2" id="m868379bafd"/>
      </defs>
      <g>
       <use style="stroke:#000000;stroke-linecap:butt;stroke-width:0.5;" x="340.313681106" xlink:href="#m868379bafd" y="16.276875"/>
      </g>
     </g>
    </g>
    <g id="xtick_13">
     <g id="line2d_17">
      <defs>
       <path d="
M0 0
L0 -2" id="m868379bafd"/>
      </defs>
      <g>
       <use style="stroke:#000000;stroke-linecap:butt;stroke-width:0.5;" x="368.23729655" xlink:href="#m868379bafd" y="16.276875"/>
      </g>
     </g>
    </g>
    <g id="xtick_14">
     <g id="line2d_18">
      <defs>
       <path d="
M0 0
L0 -2" id="m868379bafd"/>
      </defs>
      <g>
       <use style="stroke:#000000;stroke-linecap:butt;stroke-width:0.5;" x="396.160911994" xlink:href="#m868379bafd" y="16.276875"/>
      </g>
     </g>
    </g>
    <g id="xtick_15">
     <g id="line2d_19">
      <defs>
       <path d="
M0 0
L0 -2" id="m868379bafd"/>
      </defs>
      <g>
       <use style="stroke:#000000;stroke-linecap:butt;stroke-width:0.5;" x="424.084527438" xlink:href="#m868379bafd" y="16.276875"/>
      </g>
     </g>
    </g>
    <g id="xtick_16">
     <g id="line2d_20">
      <defs>
       <path d="
M0 0
L0 -2" id="m868379bafd"/>
      </defs>
      <g>
       <use style="stroke:#000000;stroke-linecap:butt;stroke-width:0.5;" x="479.931758326" xlink:href="#m868379bafd" y="16.276875"/>
      </g>
     </g>
    </g>
    <g id="xtick_17">
     <g id="line2d_21">
      <defs>
       <path d="
M0 0
L0 -2" id="m868379bafd"/>
      </defs>
      <g>
       <use style="stroke:#000000;stroke-linecap:butt;stroke-width:0.5;" x="507.85537377" xlink:href="#m868379bafd" y="16.276875"/>
      </g>
     </g>
    </g>
   </g>
   <g id="matplotlib.axis_2">
    <g id="ytick_1">
     <g id="line2d_22">
      <path d="
M42.6088 382.213
L557.426 382.213" style="fill:none;stroke:#000000;stroke-dasharray:1.000000,3.000000;stroke-dashoffset:0.0;stroke-linecap:butt;stroke-width:0.5;"/>
     </g>
     <g id="line2d_23">
      <defs>
       <path d="
M0 0
L4 0" id="m7547b7da11"/>
      </defs>
      <g>
       <use style="stroke:#000000;stroke-linecap:butt;stroke-width:0.5;" x="32.60875" xlink:href="#m7547b7da11" y="382.212704216"/>
      </g>
     </g>
     <g id="text_4">
      <!-- -5 -->
      <defs>
       <path d="
M4.89062 31.3906
L31.2031 31.3906
L31.2031 23.3906
L4.89062 23.3906
z
" id="BitstreamVeraSans-Roman-2d"/>
      </defs>
      <g transform="translate(7.95 390.790829216)scale(0.24 -0.24)">
       <use xlink:href="#BitstreamVeraSans-Roman-2d"/>
       <use x="36.083984375" xlink:href="#BitstreamVeraSans-Roman-35"/>
      </g>
     </g>
    </g>
    <g id="ytick_2">
     <g id="line2d_24">
      <path d="
M42.6088 309.026
L557.426 309.026" style="fill:none;stroke:#000000;stroke-dasharray:1.000000,3.000000;stroke-dashoffset:0.0;stroke-linecap:butt;stroke-width:0.5;"/>
     </g>
     <g id="line2d_25">
      <defs>
       <path d="
M0 0
L4 0" id="m7547b7da11"/>
      </defs>
      <g>
       <use style="stroke:#000000;stroke-linecap:butt;stroke-width:0.5;" x="32.60875" xlink:href="#m7547b7da11" y="309.025538373"/>
      </g>
     </g>
     <g id="text_5">
      <!-- -4 -->
      <defs>
       <path d="
M37.7969 64.3125
L12.8906 25.3906
L37.7969 25.3906
z

M35.2031 72.9062
L47.6094 72.9062
L47.6094 25.3906
L58.0156 25.3906
L58.0156 17.1875
L47.6094 17.1875
L47.6094 0
L37.7969 0
L37.7969 17.1875
L4.89062 17.1875
L4.89062 26.7031
z
" id="BitstreamVeraSans-Roman-34"/>
      </defs>
      <g transform="translate(7.2 317.774288373)scale(0.24 -0.24)">
       <use xlink:href="#BitstreamVeraSans-Roman-2d"/>
       <use x="36.083984375" xlink:href="#BitstreamVeraSans-Roman-34"/>
      </g>
     </g>
    </g>
    <g id="ytick_3">
     <g id="line2d_26">
      <path d="
M42.6088 235.838
L557.426 235.838" style="fill:none;stroke:#000000;stroke-dasharray:1.000000,3.000000;stroke-dashoffset:0.0;stroke-linecap:butt;stroke-width:0.5;"/>
     </g>
     <g id="line2d_27">
      <defs>
       <path d="
M0 0
L4 0" id="m7547b7da11"/>
      </defs>
      <g>
       <use style="stroke:#000000;stroke-linecap:butt;stroke-width:0.5;" x="32.60875" xlink:href="#m7547b7da11" y="235.83837253"/>
      </g>
     </g>
     <g id="text_6">
      <!-- -3 -->
      <defs>
       <path d="
M40.5781 39.3125
Q47.6562 37.7969 51.625 33
Q55.6094 28.2188 55.6094 21.1875
Q55.6094 10.4062 48.1875 4.48438
Q40.7656 -1.42188 27.0938 -1.42188
Q22.5156 -1.42188 17.6562 -0.515625
Q12.7969 0.390625 7.625 2.20312
L7.625 11.7188
Q11.7188 9.32812 16.5938 8.10938
Q21.4844 6.89062 26.8125 6.89062
Q36.0781 6.89062 40.9375 10.5469
Q45.7969 14.2031 45.7969 21.1875
Q45.7969 27.6406 41.2812 31.2656
Q36.7656 34.9062 28.7188 34.9062
L20.2188 34.9062
L20.2188 43.0156
L29.1094 43.0156
Q36.375 43.0156 40.2344 45.9219
Q44.0938 48.8281 44.0938 54.2969
Q44.0938 59.9062 40.1094 62.9062
Q36.1406 65.9219 28.7188 65.9219
Q24.6562 65.9219 20.0156 65.0312
Q15.375 64.1562 9.8125 62.3125
L9.8125 71.0938
Q15.4375 72.6562 20.3438 73.4375
Q25.25 74.2188 29.5938 74.2188
Q40.8281 74.2188 47.3594 69.1094
Q53.9062 64.0156 53.9062 55.3281
Q53.9062 49.2656 50.4375 45.0938
Q46.9688 40.9219 40.5781 39.3125" id="BitstreamVeraSans-Roman-33"/>
      </defs>
      <g transform="translate(7.7775 244.57399753)scale(0.24 -0.24)">
       <use xlink:href="#BitstreamVeraSans-Roman-2d"/>
       <use x="36.083984375" xlink:href="#BitstreamVeraSans-Roman-33"/>
      </g>
     </g>
    </g>
    <g id="ytick_4">
     <g id="line2d_28">
      <path d="
M42.6088 162.651
L557.426 162.651" style="fill:none;stroke:#000000;stroke-dasharray:1.000000,3.000000;stroke-dashoffset:0.0;stroke-linecap:butt;stroke-width:0.5;"/>
     </g>
     <g id="line2d_29">
      <defs>
       <path d="
M0 0
L4 0" id="m7547b7da11"/>
      </defs>
      <g>
       <use style="stroke:#000000;stroke-linecap:butt;stroke-width:0.5;" x="32.60875" xlink:href="#m7547b7da11" y="162.651206687"/>
      </g>
     </g>
     <g id="text_7">
      <!-- -2 -->
      <defs>
       <path d="
M19.1875 8.29688
L53.6094 8.29688
L53.6094 0
L7.32812 0
L7.32812 8.29688
Q12.9375 14.1094 22.625 23.8906
Q32.3281 33.6875 34.8125 36.5312
Q39.5469 41.8438 41.4219 45.5312
Q43.3125 49.2188 43.3125 52.7812
Q43.3125 58.5938 39.2344 62.25
Q35.1562 65.9219 28.6094 65.9219
Q23.9688 65.9219 18.8125 64.3125
Q13.6719 62.7031 7.8125 59.4219
L7.8125 69.3906
Q13.7656 71.7812 18.9375 73
Q24.125 74.2188 28.4219 74.2188
Q39.75 74.2188 46.4844 68.5469
Q53.2188 62.8906 53.2188 53.4219
Q53.2188 48.9219 51.5312 44.8906
Q49.8594 40.875 45.4062 35.4062
Q44.1875 33.9844 37.6406 27.2188
Q31.1094 20.4531 19.1875 8.29688" id="BitstreamVeraSans-Roman-32"/>
      </defs>
      <g transform="translate(8.2575 171.557456687)scale(0.24 -0.24)">
       <use xlink:href="#BitstreamVeraSans-Roman-2d"/>
       <use x="36.083984375" xlink:href="#BitstreamVeraSans-Roman-32"/>
      </g>
     </g>
    </g>
    <g id="ytick_5">
     <g id="line2d_30">
      <path d="
M42.6088 89.464
L557.426 89.464" style="fill:none;stroke:#000000;stroke-dasharray:1.000000,3.000000;stroke-dashoffset:0.0;stroke-linecap:butt;stroke-width:0.5;"/>
     </g>
     <g id="line2d_31">
      <defs>
       <path d="
M0 0
L4 0" id="m7547b7da11"/>
      </defs>
      <g>
       <use style="stroke:#000000;stroke-linecap:butt;stroke-width:0.5;" x="32.60875" xlink:href="#m7547b7da11" y="89.4640408433"/>
      </g>
     </g>
     <g id="text_8">
      <!-- -1 -->
      <g transform="translate(8.07 98.2127908433)scale(0.24 -0.24)">
       <use xlink:href="#BitstreamVeraSans-Roman-2d"/>
       <use x="36.083984375" xlink:href="#BitstreamVeraSans-Roman-31"/>
      </g>
     </g>
    </g>
    <g id="ytick_6">
     <g id="line2d_32">
      <path d="
M42.6088 16.2769
L557.426 16.2769" style="fill:none;stroke:#000000;stroke-dasharray:1.000000,3.000000;stroke-dashoffset:0.0;stroke-linecap:butt;stroke-width:0.5;"/>
     </g>
     <g id="line2d_33">
      <defs>
       <path d="
M0 0
L4 0" id="m7547b7da11"/>
      </defs>
      <g>
       <use style="stroke:#000000;stroke-linecap:butt;stroke-width:0.5;" x="32.60875" xlink:href="#m7547b7da11" y="16.276875"/>
      </g>
     </g>
     <g id="text_9">
      <!-- 0 -->
      <g transform="translate(16.515 25.0125)scale(0.24 -0.24)">
       <use xlink:href="#BitstreamVeraSans-Roman-30"/>
      </g>
     </g>
    </g>
    <g id="ytick_7">
     <g id="line2d_34">
      <defs>
       <path d="
M0 0
L2 0" id="ma7a708405e"/>
      </defs>
      <g>
       <use style="stroke:#000000;stroke-linecap:butt;stroke-width:0.5;" x="32.60875" xlink:href="#ma7a708405e" y="411.487570554"/>
      </g>
     </g>
    </g>
    <g id="ytick_8">
     <g id="line2d_35">
      <defs>
       <path d="
M0 0
L2 0" id="ma7a708405e"/>
      </defs>
      <g>
       <use style="stroke:#000000;stroke-linecap:butt;stroke-width:0.5;" x="32.60875" xlink:href="#ma7a708405e" y="396.850137385"/>
      </g>
     </g>
    </g>
    <g id="ytick_9">
     <g id="line2d_36">
      <defs>
       <path d="
M0 0
L2 0" id="ma7a708405e"/>
      </defs>
      <g>
       <use style="stroke:#000000;stroke-linecap:butt;stroke-width:0.5;" x="32.60875" xlink:href="#ma7a708405e" y="367.575271048"/>
      </g>
     </g>
    </g>
    <g id="ytick_10">
     <g id="line2d_37">
      <defs>
       <path d="
M0 0
L2 0" id="ma7a708405e"/>
      </defs>
      <g>
       <use style="stroke:#000000;stroke-linecap:butt;stroke-width:0.5;" x="32.60875" xlink:href="#ma7a708405e" y="352.937837879"/>
      </g>
     </g>
    </g>
    <g id="ytick_11">
     <g id="line2d_38">
      <defs>
       <path d="
M0 0
L2 0" id="ma7a708405e"/>
      </defs>
      <g>
       <use style="stroke:#000000;stroke-linecap:butt;stroke-width:0.5;" x="32.60875" xlink:href="#ma7a708405e" y="338.30040471"/>
      </g>
     </g>
    </g>
    <g id="ytick_12">
     <g id="line2d_39">
      <defs>
       <path d="
M0 0
L2 0" id="ma7a708405e"/>
      </defs>
      <g>
       <use style="stroke:#000000;stroke-linecap:butt;stroke-width:0.5;" x="32.60875" xlink:href="#ma7a708405e" y="323.662971542"/>
      </g>
     </g>
    </g>
    <g id="ytick_13">
     <g id="line2d_40">
      <defs>
       <path d="
M0 0
L2 0" id="ma7a708405e"/>
      </defs>
      <g>
       <use style="stroke:#000000;stroke-linecap:butt;stroke-width:0.5;" x="32.60875" xlink:href="#ma7a708405e" y="294.388105204"/>
      </g>
     </g>
    </g>
    <g id="ytick_14">
     <g id="line2d_41">
      <defs>
       <path d="
M0 0
L2 0" id="ma7a708405e"/>
      </defs>
      <g>
       <use style="stroke:#000000;stroke-linecap:butt;stroke-width:0.5;" x="32.60875" xlink:href="#ma7a708405e" y="279.750672036"/>
      </g>
     </g>
    </g>
    <g id="ytick_15">
     <g id="line2d_42">
      <defs>
       <path d="
M0 0
L2 0" id="ma7a708405e"/>
      </defs>
      <g>
       <use style="stroke:#000000;stroke-linecap:butt;stroke-width:0.5;" x="32.60875" xlink:href="#ma7a708405e" y="265.113238867"/>
      </g>
     </g>
    </g>
    <g id="ytick_16">
     <g id="line2d_43">
      <defs>
       <path d="
M0 0
L2 0" id="ma7a708405e"/>
      </defs>
      <g>
       <use style="stroke:#000000;stroke-linecap:butt;stroke-width:0.5;" x="32.60875" xlink:href="#ma7a708405e" y="250.475805698"/>
      </g>
     </g>
    </g>
    <g id="ytick_17">
     <g id="line2d_44">
      <defs>
       <path d="
M0 0
L2 0" id="ma7a708405e"/>
      </defs>
      <g>
       <use style="stroke:#000000;stroke-linecap:butt;stroke-width:0.5;" x="32.60875" xlink:href="#ma7a708405e" y="235.83837253"/>
      </g>
     </g>
    </g>
    <g id="ytick_18">
     <g id="line2d_45">
      <defs>
       <path d="
M0 0
L2 0" id="ma7a708405e"/>
      </defs>
      <g>
       <use style="stroke:#000000;stroke-linecap:butt;stroke-width:0.5;" x="32.60875" xlink:href="#ma7a708405e" y="221.200939361"/>
      </g>
     </g>
    </g>
    <g id="ytick_19">
     <g id="line2d_46">
      <defs>
       <path d="
M0 0
L2 0" id="ma7a708405e"/>
      </defs>
      <g>
       <use style="stroke:#000000;stroke-linecap:butt;stroke-width:0.5;" x="32.60875" xlink:href="#ma7a708405e" y="206.563506193"/>
      </g>
     </g>
    </g>
    <g id="ytick_20">
     <g id="line2d_47">
      <defs>
       <path d="
M0 0
L2 0" id="ma7a708405e"/>
      </defs>
      <g>
       <use style="stroke:#000000;stroke-linecap:butt;stroke-width:0.5;" x="32.60875" xlink:href="#ma7a708405e" y="191.926073024"/>
      </g>
     </g>
    </g>
    <g id="ytick_21">
     <g id="line2d_48">
      <defs>
       <path d="
M0 0
L2 0" id="ma7a708405e"/>
      </defs>
      <g>
       <use style="stroke:#000000;stroke-linecap:butt;stroke-width:0.5;" x="32.60875" xlink:href="#ma7a708405e" y="177.288639855"/>
      </g>
     </g>
    </g>
    <g id="ytick_22">
     <g id="line2d_49">
      <defs>
       <path d="
M0 0
L2 0" id="ma7a708405e"/>
      </defs>
      <g>
       <use style="stroke:#000000;stroke-linecap:butt;stroke-width:0.5;" x="32.60875" xlink:href="#ma7a708405e" y="162.651206687"/>
      </g>
     </g>
    </g>
    <g id="ytick_23">
     <g id="line2d_50">
      <defs>
       <path d="
M0 0
L2 0" id="ma7a708405e"/>
      </defs>
      <g>
       <use style="stroke:#000000;stroke-linecap:butt;stroke-width:0.5;" x="32.60875" xlink:href="#ma7a708405e" y="148.013773518"/>
      </g>
     </g>
    </g>
    <g id="ytick_24">
     <g id="line2d_51">
      <defs>
       <path d="
M0 0
L2 0" id="ma7a708405e"/>
      </defs>
      <g>
       <use style="stroke:#000000;stroke-linecap:butt;stroke-width:0.5;" x="32.60875" xlink:href="#ma7a708405e" y="133.376340349"/>
      </g>
     </g>
    </g>
    <g id="ytick_25">
     <g id="line2d_52">
      <defs>
       <path d="
M0 0
L2 0" id="ma7a708405e"/>
      </defs>
      <g>
       <use style="stroke:#000000;stroke-linecap:butt;stroke-width:0.5;" x="32.60875" xlink:href="#ma7a708405e" y="118.738907181"/>
      </g>
     </g>
    </g>
    <g id="ytick_26">
     <g id="line2d_53">
      <defs>
       <path d="
M0 0
L2 0" id="ma7a708405e"/>
      </defs>
      <g>
       <use style="stroke:#000000;stroke-linecap:butt;stroke-width:0.5;" x="32.60875" xlink:href="#ma7a708405e" y="104.101474012"/>
      </g>
     </g>
    </g>
    <g id="ytick_27">
     <g id="line2d_54">
      <defs>
       <path d="
M0 0
L2 0" id="ma7a708405e"/>
      </defs>
      <g>
       <use style="stroke:#000000;stroke-linecap:butt;stroke-width:0.5;" x="32.60875" xlink:href="#ma7a708405e" y="89.4640408433"/>
      </g>
     </g>
    </g>
    <g id="ytick_28">
     <g id="line2d_55">
      <defs>
       <path d="
M0 0
L2 0" id="ma7a708405e"/>
      </defs>
      <g>
       <use style="stroke:#000000;stroke-linecap:butt;stroke-width:0.5;" x="32.60875" xlink:href="#ma7a708405e" y="74.8266076746"/>
      </g>
     </g>
    </g>
    <g id="ytick_29">
     <g id="line2d_56">
      <defs>
       <path d="
M0 0
L2 0" id="ma7a708405e"/>
      </defs>
      <g>
       <use style="stroke:#000000;stroke-linecap:butt;stroke-width:0.5;" x="32.60875" xlink:href="#ma7a708405e" y="60.189174506"/>
      </g>
     </g>
    </g>
    <g id="ytick_30">
     <g id="line2d_57">
      <defs>
       <path d="
M0 0
L2 0" id="ma7a708405e"/>
      </defs>
      <g>
       <use style="stroke:#000000;stroke-linecap:butt;stroke-width:0.5;" x="32.60875" xlink:href="#ma7a708405e" y="45.5517413373"/>
      </g>
     </g>
    </g>
    <g id="ytick_31">
     <g id="line2d_58">
      <defs>
       <path d="
M0 0
L2 0" id="ma7a708405e"/>
      </defs>
      <g>
       <use style="stroke:#000000;stroke-linecap:butt;stroke-width:0.5;" x="32.60875" xlink:href="#ma7a708405e" y="30.9143081687"/>
      </g>
     </g>
    </g>
   </g>
   <g id="patch_3">
    <path d="
M42.6088 16.2769
L557.426 16.2769" style="fill:none;stroke:#000000;stroke-width:0.8;"/>
   </g>
   <g id="patch_4">
    <path d="
M32.6088 412.239
L32.6088 8.51291" style="fill:none;stroke:#000000;stroke-width:0.8;"/>
   </g>
  </g>
 </g>
 <defs>
  <clipPath id="p51b3ba9df9">
   <rect height="403.726153846" width="514.8175" x="42.60875" y="8.51291050296"/>
  </clipPath>
 </defs>
</svg>
