<?xml version="1.0" encoding="utf-8" standalone="no"?>
<!DOCTYPE svg PUBLIC "-//W3C//DTD SVG 1.1//EN"
  "http://www.w3.org/Graphics/SVG/1.1/DTD/svg11.dtd">
<!-- Created with matplotlib (http://matplotlib.sourceforge.net/) -->
<svg height="419pt" version="1.1" viewBox="0 0 564 419" width="564pt" xmlns="http://www.w3.org/2000/svg" xmlns:xlink="http://www.w3.org/1999/xlink">
 <defs>
  <style type="text/css">
*{stroke-linecap:square;stroke-linejoin:round;}
  </style>
 </defs>
 <g id="figure_1">
  <g id="patch_1">
   <path d="
M4.44089e-16 419.439
L564.626 419.439
L564.626 0
L4.44089e-16 0
z
" style="fill:#ffffff;"/>
  </g>
  <g id="axes_1">
   <g id="patch_2">
    <path d="
M42.6088 412.239
L557.426 412.239
L557.426 8.51291
L42.6088 8.51291
z
" style="fill:#ffffff;"/>
   </g>
   <g id="line2d_1">
    <path clip-path="url(#p10490cade4)" d="
M52.5091 16.2769
L63.8311 16.2769
L63.8311 25.0203
L78.0952 25.0203
L78.0952 53.4406
L87.4908 53.4406
L87.4908 71.7829
L100.112 71.7829
L100.112 103.748
L104.777 103.748
L104.777 115.74
L112.267 115.74
L112.267 138.98
L115.373 138.98
L115.373 147.767
L120.708 147.767
L120.708 163.613
L127.181 163.613
L127.181 180.489
L129.043 180.489
L129.043 184.699
L133.984 184.699
L133.984 195.897
L136.85 195.897
L136.85 203.454
L138.18 203.454
L138.18 206.856
L140.664 206.856
L140.664 213.76
L144.019 213.76
L144.019 223.663
L147.013 223.663
L147.013 231.856
L147.944 231.856
L147.944 234.373
L150.564 234.373
L150.564 241.138
L152.183 241.138
L152.183 245.63
L152.959 245.63
L152.959 247.515
L155.165 247.515
L155.165 253.232
L156.544 253.232
L156.544 257.031
L158.493 257.031
L158.493 262.546
L160.896 262.546
L160.896 268.38
L162.025 268.38
L162.025 271.199
L162.572 271.199
L162.572 272.643
L163.636 272.643
L163.636 275.502
L164.153 275.502
L164.153 276.856
L165.16 276.856
L165.16 279.347
L168.421 279.347
L168.421 286.623
L169.287 286.623
L169.287 288.575
L170.538 288.575
L170.538 291.274
L170.942 291.274
L170.942 292.066
L172.882 292.066
L172.882 296.31
L173.255 296.31
L173.255 297.003
L174.343 297.003
L174.343 298.944
L175.39 298.944
L175.39 300.794
L176.067 300.794
L176.067 301.961
L177.052 301.961
L177.052 303.374
L178.004 303.374
L178.004 304.687
L178.315 304.687
L178.315 305.198
L179.816 305.198
L179.816 307.847
L180.107 307.847
L180.107 308.311
L180.68 308.311
L180.68 309.123
L180.962 309.123
L180.962 309.516
L182.597 309.516
L182.597 311.825
L184.142 311.825
L184.142 313.945
L184.638 313.945
L184.638 314.58
L184.883 314.58
L184.883 314.918
L185.367 314.918
L185.367 315.584
L186.077 315.584
L186.077 316.608
L186.309 316.608
L186.309 316.876
L187.445 316.876
L187.445 318.321
L188.104 318.321
L188.104 319.014
L188.749 319.014
L188.749 319.781
L189.378 319.781
L189.378 320.51
L189.585 320.51
L189.585 320.791
L190.197 320.791
L190.197 321.691
L190.597 321.691
L190.597 322.217
L190.795 322.217
L190.795 322.465
L191.765 322.465
L191.765 323.601
L193.068 323.601
L193.068 324.997
L193.43 324.997
L193.43 325.333
L193.609 325.333
L193.609 325.506
L193.963 325.506
L193.963 325.801
L195.17 325.801
L195.17 326.622
L195.672 326.622
L195.672 326.937
L196.488 326.937
L196.488 327.592
L196.967 327.691
L196.967 327.912
L197.438 327.912
L197.438 328.173
L198.053 328.173
L198.053 328.448
L198.506 328.448
L198.506 328.632
L198.951 328.632
L198.951 328.791
L199.245 328.791
L199.245 328.909
L199.679 328.909
L199.679 329.088
L200.247 329.088
L200.247 329.369
L200.527 329.369
L200.527 329.54
L201.079 329.54
L201.079 329.817
L201.753 329.817
L201.753 330.111
L202.542 330.153
L202.542 330.467
L203.055 330.521
L203.055 330.715
L203.308 330.715
L203.308 330.883
L203.684 330.883
L203.684 331.174
L204.177 331.174
L204.177 331.484
L204.421 331.484
L204.421 331.678
L204.782 331.774
L204.782 331.953
L205.49 331.953
L205.49 332.556
L205.953 332.556
L205.953 332.977
L206.181 332.977
L206.181 333.197
L206.632 333.197
L206.632 333.615
L206.855 333.615
L206.855 333.832
L207.186 333.832
L207.186 334.109
L207.837 334.109
L207.944 334.665
L208.889 334.665
L208.889 335.205
L209.197 335.205
L209.197 335.381
L209.703 335.381
L209.703 335.638
L210.002 335.638
L210.002 335.791
L210.298 335.791
L210.396 336.015
L210.688 336.015
L210.688 336.204
L211.168 336.204
L211.168 336.436
L211.452 336.436
L211.452 336.614
L211.733 336.614
L211.826 336.867
L212.103 336.867
L212.103 337.126
L212.378 337.126
L212.378 337.411
L212.559 337.411
L212.65 337.696
L213.186 337.696
L213.186 338.303
L213.625 338.303
L213.712 338.939
L213.885 338.939
L213.885 339.187
L214.143 339.187
L214.143 339.552
L214.398 339.552
L214.483 339.982
L214.985 339.982
L214.985 340.671
L215.151 340.671
L215.151 340.904
L215.397 340.904
L215.397 341.26
L215.722 341.26
L215.722 341.773
L216.124 341.773
L216.124 342.416
L216.44 342.416
L216.44 342.935
L216.832 342.935
L216.832 343.543
L217.141 343.543
L217.141 344.062
L217.37 344.062
L217.37 344.413
L217.598 344.413
L217.598 344.762
L217.748 344.762
L217.748 345.012
L218.047 345.012
L218.047 345.499
L218.27 345.499
L218.27 345.844
L218.417 345.844
L218.417 346.049
L218.709 346.049
L218.709 346.473
L218.854 346.473
L218.854 346.68
L219.355 346.68
L219.355 347.383
L219.708 347.383
L219.708 347.845
L220.125 347.845
L220.194 348.439
L220.536 348.439
L220.604 348.935
L220.739 348.935
L220.807 349.208
L221.142 349.208
L221.142 349.664
L221.604 349.664
L221.604 350.303
L221.734 350.303
L221.799 350.581
L221.929 350.581
L221.929 350.76
L222.378 350.76
L222.378 351.418
L222.506 351.418
L222.569 351.682
L222.695 351.682
L222.695 351.843
L223.318 351.843
L223.318 352.71
L223.441 352.71
L223.441 352.891
L223.685 352.891
L223.685 353.25
L223.987 353.25
L223.987 353.654
L224.226 353.654
L224.226 353.975
L224.345 353.975
L224.345 354.118
L224.523 354.118
L224.523 354.339
L224.699 354.339
L224.699 354.58
L225.106 354.58
L225.106 355.111
L225.222 355.111
L225.222 355.249
L225.394 355.249
L225.394 355.449
L225.565 355.449
L225.565 355.655
L225.791 355.655
L225.791 355.918
L225.96 355.918
L225.96 356.127
L226.294 356.127
L226.404 356.7
L226.569 356.7
L226.624 356.951
L226.896 356.951
L226.95 357.328
L227.112 357.328
L227.112 357.535
L227.379 357.535
L227.432 357.962
L227.697 357.962
L227.749 358.354
L227.907 358.354
L227.907 358.551
L228.373 358.551
L228.475 359.211
L228.629 359.263
L228.629 359.372
L228.781 359.372
L228.781 359.532
L228.932 359.532
L228.932 359.673
L229.133 359.673
L229.133 359.852
L229.283 359.852
L229.283 359.982
L229.431 359.982
L229.431 360.108
L229.97 360.108
L230.019 360.532
L230.26 360.532
L230.26 360.68
L230.451 360.68
L230.451 360.808
L230.689 360.808
L230.689 360.957
L230.971 361.043
L230.971 361.14
L231.158 361.14
L231.158 361.282
L231.435 361.282
L231.527 361.556
L231.801 361.666
L231.847 361.808
L232.252 361.918
L232.252 362.119
L232.475 362.119
L232.475 362.283
L232.871 362.283
L232.915 362.606
L233.132 362.663
L233.176 362.766
L233.391 362.843
L233.434 362.925
L233.775 362.975
L233.817 363.162
L234.65 363.238
L234.65 363.642
L234.895 363.719
L234.895 363.794
L235.419 363.904
L235.419 364.132
L235.618 364.132
L235.618 364.273
L235.894 364.273
L235.972 364.533
L236.206 364.634
L236.206 364.744
L236.361 364.744
L236.438 364.986
L236.592 365.026
L236.592 365.136
L236.82 365.136
L236.82 365.353
L237.01 365.353
L237.047 365.559
L237.16 365.636
L237.235 365.748
L237.347 365.748
L237.347 365.863
L237.569 365.863
L237.569 366.078
L237.79 366.078
L237.79 366.291
L237.937 366.291
L237.937 366.44
L238.155 366.44
L238.263 366.762
L238.443 366.833
L238.443 366.93
L238.586 366.93
L238.657 367.118
L238.799 367.118
L238.869 367.306
L239.115 367.306
L239.185 367.587
L239.324 367.678
L239.394 367.776
L239.532 367.873
L239.635 367.999
L239.806 367.999
L239.806 368.167
L240.145 368.167
L240.246 368.605
L240.745 368.699
L240.844 369.176
L241.008 369.176
L241.008 369.344
L241.203 369.344
L241.236 369.566
L241.397 369.566
L241.397 369.728
L241.526 369.728
L241.622 369.934
L241.813 370.027
L241.813 370.118
L242.097 370.118
L242.192 370.472
L242.472 370.551
L242.472 370.693
L242.811 370.795
L242.811 370.907
L243.176 370.989
L243.176 371.165
L243.387 371.165
L243.477 371.404
L243.626 371.482
L243.656 371.561
L243.804 371.561
L243.804 371.7
L243.981 371.7
L244.069 371.938
L244.418 372.019
L244.447 372.307
L244.677 372.307
L244.706 372.569
L245.019 372.569
L245.104 372.945
L245.301 373.055
L245.385 373.226
L245.552 373.282
L245.635 373.483
L245.773 373.483
L245.801 373.644
L245.938 373.644
L245.938 373.783
L246.129 373.783
L246.129 373.969
L246.265 373.969
L246.346 374.189
L246.507 374.189
L246.614 374.45
L246.748 374.45
L246.748 374.58
L246.907 374.58
L246.933 374.758
L247.144 374.758
L247.249 375.036
L247.457 375.102
L247.561 375.278
L247.792 375.278
L247.792 375.445
L248.098 375.445
L248.149 375.676
L248.526 375.781
L248.601 375.944
L248.898 376.015
L248.972 376.23
L249.143 376.312
L249.216 376.428
L249.41 376.465
L249.434 376.596
L249.699 376.596
L249.795 376.83
L249.985 376.913
L249.985 376.963
L250.221 377.066
L250.291 377.16
L250.617 377.268
L250.687 377.372
L250.917 377.409
L250.963 377.528
L251.259 377.625
L251.326 377.691
L251.663 377.709
L251.663 377.821
L252.062 377.93
L252.172 378.002
L252.628 378.089
L252.649 378.126
L253.077 378.219
L253.077 378.259
L253.477 378.362
L253.54 378.417
L253.851 378.515
L253.913 378.572
L254.281 378.669
L254.321 378.704
L254.824 378.812
L254.824 378.816
L255.937 378.924
L256.033 378.935
L257.063 379.036
L257.173 379.083
L257.537 379.182
L257.537 379.201
L257.968 379.296
L257.968 379.335
L258.409 379.434
L258.444 379.465
L258.775 379.571
L258.775 379.601
L259.136 379.707
L259.136 379.755
L259.374 379.755
L259.441 379.909
L259.744 380.02
L259.777 380.11
L259.976 380.179
L259.993 380.239
L260.273 380.327
L260.322 380.434
L260.615 380.542
L260.712 380.678
L260.953 380.716
L261.017 380.878
L261.24 380.982
L261.35 381.109
L261.586 381.196
L261.68 381.317
L261.866 381.372
L261.943 381.496
L262.143 381.605
L262.143 381.639
L262.357 381.726
L262.403 381.823
L262.554 381.907
L262.645 382.024
L262.78 382.092
L262.87 382.228
L263.033 382.228
L263.093 382.42
L263.27 382.476
L263.344 382.613
L263.49 382.723
L263.563 382.79
L263.781 382.894
L263.882 383.007
L264.097 383.058
L264.183 383.175
L264.353 383.231
L264.381 383.307
L264.677 383.403
L264.775 383.576
L264.942 383.674
L264.942 383.708
L265.094 383.708
L265.149 383.87
L265.3 383.966
L265.396 384.092
L265.627 384.197
L265.708 384.344
L265.963 384.447
L265.963 384.54
L266.123 384.54
L266.229 384.742
L266.387 384.813
L266.466 384.92
L266.663 385.013
L266.754 385.134
L266.948 385.134
L267.025 385.345
L267.179 385.437
L267.243 385.522
L267.396 385.618
L267.472 385.712
L267.674 385.787
L267.775 385.962
L267.925 385.996
L267.999 386.155
L268.148 386.259
L268.185 386.312
L268.333 386.312
L268.419 386.496
L268.602 386.607
L268.675 386.697
L268.88 386.777
L268.964 386.902
L269.203 387.006
L269.275 387.092
L269.558 387.199
L269.605 387.295
L269.781 387.4
L269.851 387.455
L270.197 387.559
L270.289 387.696
L270.529 387.783
L270.631 387.853
L270.912 387.943
L271.001 387.999
L271.312 388.106
L271.411 388.175
L271.794 388.276
L271.902 388.389
L272.225 388.476
L272.278 388.531
L272.733 388.63
L272.785 388.661
L273.201 388.771
L273.294 388.809
L273.934 388.895
L274.014 388.946
L274.56 389.052
L274.648 389.091
L275.028 389.167
L275.134 389.257
L275.507 389.355
L275.592 389.402
L275.987 389.494
L276.015 389.563
L276.275 389.669
L276.386 389.74
L276.633 389.845
L276.734 389.917
L276.978 389.987
L277.086 390.091
L277.3 390.193
L277.381 390.24
L277.699 390.346
L277.786 390.394
L278.1 390.505
L278.195 390.54
L278.512 390.627
L278.614 390.7
L278.893 390.782
L278.994 390.855
L279.294 390.951
L279.311 390.979
L279.583 391.083
L279.69 391.149
L279.974 391.248
L280.047 391.307
L280.312 391.415
L280.384 391.464
L280.607 391.551
L280.694 391.626
L280.976 391.718
L281.078 391.794
L281.487 391.892
L281.586 391.957
L281.973 392.056
L282.056 392.11
L282.37 392.214
L282.459 392.25
L282.929 392.353
L283.038 392.409
L283.463 392.512
L283.548 392.555
L284.14 392.656
L284.245 392.691
L284.87 392.802
L284.944 392.816
L285.534 392.912
L285.627 392.947
L287.214 392.837
L287.308 392.815
L287.862 392.714
L287.972 392.673
L288.424 392.564
L288.526 392.528
L289.342 392.418
L289.429 392.405
L290.079 392.297
L290.175 392.268
L290.593 392.16
L290.648 392.13
L290.956 392.025
L291.054 391.974
L291.411 391.869
L291.513 391.822
L291.938 391.712
L292.049 391.675
L292.872 391.567
L292.968 391.547
L293.497 391.443
L293.602 391.408
L294.089 391.3
L294.172 391.275
L294.907 391.165
L295.011 391.135
L295.886 391.038
L295.986 391.004
L296.725 390.895
L296.835 390.867
L297.279 390.757
L297.349 390.733
L297.878 390.624
L297.989 390.603
L298.796 390.493
L298.879 390.477
L299.733 390.366
L299.837 390.353
L301.225 390.243
L301.327 390.227
L304.087 390.337
L304.189 390.357
L304.805 390.466
L304.898 390.492
L306.216 390.603
L306.304 390.622
L306.983 390.732
L307.088 390.756
L307.643 390.859
L307.724 390.888
L308.223 390.998
L308.317 391.023
L308.806 391.131
L308.912 391.184
L309.218 391.27
L309.328 391.337
L309.624 391.446
L309.727 391.492
L310.068 391.601
L310.175 391.643
L310.511 391.754
L310.606 391.817
L310.856 391.915
L310.963 392.004
L311.176 392.107
L311.281 392.185
L311.507 392.296
L311.609 392.372
L311.827 392.481
L311.938 392.539
L312.151 392.638
L312.243 392.701
L312.457 392.81
L312.558 392.866
L312.788 392.965
L312.871 393.03
L313.124 393.125
L313.23 393.19
L313.521 393.298
L313.631 393.347
L314.195 393.456
L314.294 393.475
L314.857 393.585
L314.961 393.597
L315.967 393.707
L316.068 393.723
L317.55 393.834
L317.655 393.856
L318.292 393.966
L318.383 393.978
L319.032 394.085
L319.141 394.114
L319.598 394.222
L319.703 394.252
L320.145 394.361
L320.254 394.389
L320.82 394.5
L320.906 394.518
L321.598 394.625
L321.686 394.644
L322.352 394.752
L322.453 394.776
L329.657 394.886
L329.766 394.899
L330.441 395.007
L330.551 395.045
L330.902 395.156
L331.005 395.19
L331.346 395.301
L331.455 395.339
L331.749 395.45
L331.852 395.494
L332.171 395.603
L332.273 395.643
L332.535 395.753
L332.646 395.815
L332.851 395.925
L332.946 395.975
L333.194 396.084
L333.299 396.135
L333.578 396.245
L333.684 396.281
L334.065 396.39
L334.17 396.429
L334.484 396.54
L334.592 396.576
L334.906 396.687
L335.017 396.727
L335.338 396.837
L335.443 396.877
L335.706 396.986
L335.817 397.036
L336.1 397.147
L336.21 397.2
L336.484 397.31
L336.586 397.358
L336.889 397.469
L336.999 397.507
L337.352 397.617
L337.461 397.65
L337.795 397.755
L337.901 397.808
L338.131 397.917
L338.24 397.977
L338.472 398.085
L338.58 398.136
L338.87 398.247
L338.978 398.283
L339.25 398.392
L339.358 398.448
L339.6 398.557
L339.703 398.608
L339.989 398.719
L340.1 398.761
L340.38 398.872
L340.489 398.92
L340.774 399.03
L340.879 399.081
L341.109 399.189
L341.217 399.257
L341.411 399.366
L341.515 399.446
L341.673 399.554
L341.78 399.636
L341.939 399.742
L342.047 399.82
L342.222 399.929
L342.319 399.995
L342.513 400.102
L342.622 400.172
L342.829 400.282
L342.939 400.343
L343.161 400.452
L343.267 400.508
L343.462 400.615
L343.567 400.679
L343.781 400.79
L343.892 400.851
L344.126 400.96
L344.236 401.014
L344.499 401.124
L344.61 401.179
L344.858 401.29
L344.966 401.34
L345.25 401.45
L345.354 401.487
L345.612 401.598
L345.722 401.646
L346.046 401.755
L346.146 401.799
L346.394 401.906
L346.503 401.959
L346.766 402.07
L346.874 402.109
L347.17 402.218
L347.279 402.258
L347.57 402.368
L347.674 402.411
L347.961 402.522
L348.069 402.569
L348.336 402.677
L348.444 402.723
L348.717 402.833
L348.822 402.885
L349.118 402.994
L349.228 403.037
L349.52 403.147
L349.628 403.194
L349.883 403.304
L349.991 403.354
L350.285 403.465
L350.395 403.507
L350.774 403.617
L350.884 403.651
L351.342 403.762
L351.453 403.788
L351.968 403.899
L352.079 403.921
L352.736 404.032
L352.845 404.051
L353.554 404.161
L353.665 404.175
L354.313 404.286
L354.424 404.312
L356.094 404.423
L356.203 404.427
L359.375 404.316
L359.478 404.3
L360.277 404.189
L360.387 404.172
L361.183 404.061
L361.294 404.042
L361.928 403.931
L362.037 403.923
L362.694 403.812
L362.805 403.791
L363.145 403.68
L363.256 403.635
L363.546 403.525
L363.653 403.48
L363.904 403.369
L364.013 403.316
L364.251 403.205
L364.36 403.152
L364.634 403.045
L364.744 403
L365.054 402.889
L365.161 402.843
L365.423 402.732
L365.532 402.693
L365.832 402.583
L365.942 402.547
L366.381 402.437
L366.489 402.411
L366.964 402.3
L367.075 402.268
L367.467 402.157
L367.578 402.126
L368.151 402.015
L368.26 401.994
L368.786 401.884
L368.897 401.859
L369.329 401.749
L369.439 401.724
L370.234 401.614
L370.342 401.602
L371.084 401.491
L371.19 401.479
L372.217 401.368
L372.328 401.352
L373.432 401.241
L373.541 401.229
L374.075 401.118
L374.185 401.091
L374.687 400.98
L374.796 400.949
L375.1 400.839
L375.211 400.798
L375.488 400.687
L375.595 400.643
L375.881 400.532
L375.992 400.494
L376.302 400.382
L376.413 400.341
L376.731 400.23
L376.841 400.188
L377.181 400.077
L377.292 400.044
L378.608 399.933
L378.719 399.926
L380.078 399.815
L380.186 399.796
L383.208 399.685
L383.318 399.678
L385.202 399.567
L385.312 399.554
L387.039 399.443
L387.15 399.435
L388.026 399.324
L388.137 399.304
L388.789 399.193
L388.898 399.174
L390.198 399.064
L390.309 399.053
L391.405 398.942
L391.515 398.926
L393.678 398.816
L393.789 398.803
L394.907 398.692
L395.018 398.675
L395.666 398.564
L395.776 398.549
L397.523 398.66
L397.634 398.68
L398.121 398.791
L398.232 398.813
L398.668 398.924
L398.779 398.956
L399.271 399.067
L399.382 399.082
L402.432 398.971
L402.542 398.964
L403.141 398.853
L403.249 398.827
L411.738 398.938
L411.848 398.959
L412.29 399.07
L412.401 399.1
L412.792 399.211
L412.902 399.241
L415.933 399.13
L416.044 399.106
L416.664 398.995
L416.775 398.978
L418.193 398.867
L418.304 398.853
L419.011 398.742
L419.122 398.727
L419.886 398.616
L419.997 398.606
L420.898 398.495
L421.008 398.48
L422.493 398.369
L422.604 398.36
L425.099 398.471
L425.21 398.493
L425.675 398.604
L425.786 398.631
L426.231 398.742
L426.342 398.77
L426.809 398.881
L426.92 398.905
L427.513 399.016
L427.624 399.035
L428.727 399.146
L428.839 399.162
L429.466 399.274
L429.577 399.288
L430.424 399.399
L430.535 399.418
L431.639 399.529
L431.75 399.54
L436.436 399.429
L436.547 399.427
L442.826 399.538
L442.937 399.568
L443.323 399.679
L443.434 399.713
L443.792 399.824
L443.903 399.856
L444.315 399.967
L444.427 399.988
L445.094 400.099
L445.205 400.121
L445.763 400.232
L445.874 400.257
L446.367 400.368
L446.478 400.392
L447.184 400.503
L447.295 400.514
L448.077 400.625
L448.188 400.64
L448.961 400.751
L449.072 400.772
L449.628 400.883
L449.739 400.911
L450.089 401.022
L450.2 401.062
L450.489 401.173
L450.6 401.223
L450.857 401.334
L450.968 401.382
L451.283 401.493
L451.394 401.522
L451.825 401.633
L451.936 401.66
L452.458 401.771
L452.569 401.792
L453.293 401.903
L453.404 401.922
L453.895 402.033
L454.006 402.056
L455.109 402.167
L455.22 402.18
L455.957 402.291
L456.068 402.309
L458.216 402.198
L458.327 402.181
L458.941 402.07
L459.052 402.055
L460.612 401.944
L460.723 401.937
L462.444 401.826
L462.555 401.805
L463.076 401.693
L463.187 401.667
L463.648 401.556
L463.759 401.527
L464.186 401.416
L464.297 401.384
L464.822 401.273
L464.933 401.253
L465.871 401.142
L465.982 401.125
L466.544 401.014
L466.655 400.989
L467.118 400.878
L467.229 400.854
L467.716 400.743
L467.827 400.709
L468.203 400.597
L468.314 400.569
L468.696 400.458
L468.807 400.419
L469.103 400.308
L469.214 400.258
L469.472 400.147
L469.583 400.1
L469.848 399.989
L469.959 399.942
L470.195 399.831
L470.306 399.786
L470.588 399.675
L470.698 399.627
L470.956 399.516
L471.067 399.475
L471.377 399.364
L471.489 399.322
L471.79 399.211
L471.901 399.165
L472.147 399.054
L472.258 399.007
L472.547 398.895
L472.658 398.849
L472.924 398.738
L473.035 398.693
L473.348 398.582
L473.459 398.542
L473.751 398.431
L473.862 398.381
L474.133 398.27
L474.244 398.227
L474.5 398.115
L474.611 398.065
L474.862 397.954
L474.974 397.906
L475.223 397.795
L475.334 397.748
L475.587 397.637
L475.698 397.587
L476.006 397.476
L476.117 397.444
L476.49 397.333
L476.601 397.302
L476.948 397.191
L477.059 397.155
L477.377 397.044
L477.488 397.007
L477.836 396.896
L477.947 396.868
L478.399 396.757
L478.51 396.727
L478.862 396.616
L478.973 396.583
L479.422 396.472
L479.533 396.448
L480.224 396.336
L480.335 396.319
L480.927 396.208
L481.038 396.189
L481.917 396.078
L482.028 396.06
L482.879 395.949
L482.99 395.931
L483.478 395.819
L483.589 395.792
L484.277 395.681
L484.388 395.669
L485.251 395.558
L485.362 395.532
L485.895 395.421
L486.006 395.398
L486.439 395.287
L486.55 395.26
L487.047 395.149
L487.158 395.121
L487.665 395.01
L487.777 394.992
L491.883 395.103
L491.962 395.105
L491.994 395.105
L494.494 394.993
L494.605 394.975
L495.385 394.864
L495.496 394.848
L496.376 394.737
L496.487 394.718
L497.115 394.607
L497.226 394.582
L497.983 394.471
L498.094 394.46
L498.903 394.349
L499.015 394.331
L499.557 394.22
L499.668 394.2
L500.895 394.089
L501.006 394.075
L501.571 393.964
L501.682 393.934
L502.141 393.823
L502.252 393.799
L502.89 393.688
L503.001 393.667
L503.563 393.556
L503.674 393.531
L504.153 393.42
L504.264 393.394
L504.852 393.283
L504.963 393.267
L506.165 393.156
L506.276 393.139
L509.645 393.25
L509.756 393.267
L510.507 393.378
L510.618 393.392
L511.527 393.503
L511.638 393.522
L512.366 393.634
L512.477 393.651
L513.27 393.762
L513.382 393.773
L513.952 393.885
L514.063 393.898
L514.909 394.009
L515.02 394.027
L515.895 394.138
L516.007 394.142
L521.912 394.253
L522.023 394.26
L523.154 394.371
L523.265 394.384
L524.755 394.495
L524.866 394.506
L525.856 394.617
L525.967 394.634
L526.606 394.746
L526.717 394.764
L527.498 394.875
L527.609 394.884
L528.64 394.996
L528.751 395.002
L534.329 395.113
L534.44 395.124
L535.261 395.235
L535.372 395.251
L536.193 395.363
L536.304 395.378
L539.563 395.267
L539.674 395.25
L540.687 395.139
L540.799 395.128
L541.675 395.017
L541.786 395.001
L542.577 394.89
L542.689 394.875
L543.303 394.764
L543.414 394.744
L544.54 394.633
L544.651 394.621
L545.35 394.51
L545.461 394.485
L545.88 394.373
L545.991 394.341
L546.581 394.23
L546.692 394.208
L547.383 394.097
L547.494 394.082
L547.526 394.078
L547.526 394.078" style="fill:none;stroke:#0000ff;stroke-width:5.0;"/>
   </g>
   <g id="matplotlib.axis_1">
    <g id="xtick_1">
     <g id="line2d_2">
      <path d="
M172.772 412.239
L172.772 8.51291" style="fill:none;stroke:#000000;stroke-dasharray:1.000000,3.000000;stroke-dashoffset:0.0;stroke-linecap:butt;stroke-width:0.5;"/>
     </g>
     <g id="line2d_3">
      <defs>
       <path d="
M0 0
L0 -4" id="mbaf646f5f2"/>
      </defs>
      <g>
       <use style="stroke:#000000;stroke-linecap:butt;stroke-width:0.5;" x="172.771988442" xlink:href="#mbaf646f5f2" y="16.276875"/>
      </g>
     </g>
     <g id="text_1">
      <!-- 5 -->
      <defs>
       <path d="
M10.7969 72.9062
L49.5156 72.9062
L49.5156 64.5938
L19.8281 64.5938
L19.8281 46.7344
Q21.9688 47.4688 24.1094 47.8281
Q26.2656 48.1875 28.4219 48.1875
Q40.625 48.1875 47.75 41.5
Q54.8906 34.8125 54.8906 23.3906
Q54.8906 11.625 47.5625 5.09375
Q40.2344 -1.42188 26.9062 -1.42188
Q22.3125 -1.42188 17.5469 -0.640625
Q12.7969 0.140625 7.71875 1.70312
L7.71875 11.625
Q12.1094 9.23438 16.7969 8.0625
Q21.4844 6.89062 26.7031 6.89062
Q35.1562 6.89062 40.0781 11.3281
Q45.0156 15.7656 45.0156 23.3906
Q45.0156 31 40.0781 35.4375
Q35.1562 39.8906 26.7031 39.8906
Q22.75 39.8906 18.8125 39.0156
Q14.8906 38.1406 10.7969 36.2812
z
" id="BitstreamVeraSans-Roman-35"/>
      </defs>
      <g transform="translate(167.111363442 37.774375)scale(0.24 -0.24)">
       <use xlink:href="#BitstreamVeraSans-Roman-35"/>
      </g>
     </g>
    </g>
    <g id="xtick_2">
     <g id="line2d_4">
      <path d="
M312.39 412.239
L312.39 8.51291" style="fill:none;stroke:#000000;stroke-dasharray:1.000000,3.000000;stroke-dashoffset:0.0;stroke-linecap:butt;stroke-width:0.5;"/>
     </g>
     <g id="line2d_5">
      <defs>
       <path d="
M0 0
L0 -4" id="mbaf646f5f2"/>
      </defs>
      <g>
       <use style="stroke:#000000;stroke-linecap:butt;stroke-width:0.5;" x="312.390065662" xlink:href="#mbaf646f5f2" y="16.276875"/>
      </g>
     </g>
     <g id="text_2">
      <!-- 10 -->
      <defs>
       <path d="
M31.7812 66.4062
Q24.1719 66.4062 20.3281 58.9062
Q16.5 51.4219 16.5 36.375
Q16.5 21.3906 20.3281 13.8906
Q24.1719 6.39062 31.7812 6.39062
Q39.4531 6.39062 43.2812 13.8906
Q47.125 21.3906 47.125 36.375
Q47.125 51.4219 43.2812 58.9062
Q39.4531 66.4062 31.7812 66.4062
M31.7812 74.2188
Q44.0469 74.2188 50.5156 64.5156
Q56.9844 54.8281 56.9844 36.375
Q56.9844 17.9688 50.5156 8.26562
Q44.0469 -1.42188 31.7812 -1.42188
Q19.5312 -1.42188 13.0625 8.26562
Q6.59375 17.9688 6.59375 36.375
Q6.59375 54.8281 13.0625 64.5156
Q19.5312 74.2188 31.7812 74.2188" id="BitstreamVeraSans-Roman-30"/>
       <path d="
M12.4062 8.29688
L28.5156 8.29688
L28.5156 63.9219
L10.9844 60.4062
L10.9844 69.3906
L28.4219 72.9062
L38.2812 72.9062
L38.2812 8.29688
L54.3906 8.29688
L54.3906 0
L12.4062 0
z
" id="BitstreamVeraSans-Roman-31"/>
      </defs>
      <g transform="translate(299.235065662 38.089375)scale(0.24 -0.24)">
       <use xlink:href="#BitstreamVeraSans-Roman-31"/>
       <use x="63.623046875" xlink:href="#BitstreamVeraSans-Roman-30"/>
      </g>
     </g>
    </g>
    <g id="xtick_3">
     <g id="line2d_6">
      <path d="
M452.008 412.239
L452.008 8.51291" style="fill:none;stroke:#000000;stroke-dasharray:1.000000,3.000000;stroke-dashoffset:0.0;stroke-linecap:butt;stroke-width:0.5;"/>
     </g>
     <g id="line2d_7">
      <defs>
       <path d="
M0 0
L0 -4" id="mbaf646f5f2"/>
      </defs>
      <g>
       <use style="stroke:#000000;stroke-linecap:butt;stroke-width:0.5;" x="452.008142882" xlink:href="#mbaf646f5f2" y="16.276875"/>
      </g>
     </g>
     <g id="text_3">
      <!-- 15 -->
      <g transform="translate(439.104392882 37.774375)scale(0.24 -0.24)">
       <use xlink:href="#BitstreamVeraSans-Roman-31"/>
       <use x="63.623046875" xlink:href="#BitstreamVeraSans-Roman-35"/>
      </g>
     </g>
    </g>
    <g id="xtick_4">
     <g id="line2d_8">
      <defs>
       <path d="
M0 0
L0 -2" id="m868379bafd"/>
      </defs>
      <g>
       <use style="stroke:#000000;stroke-linecap:butt;stroke-width:0.5;" x="61.0775266664" xlink:href="#m868379bafd" y="16.276875"/>
      </g>
     </g>
    </g>
    <g id="xtick_5">
     <g id="line2d_9">
      <defs>
       <path d="
M0 0
L0 -2" id="m868379bafd"/>
      </defs>
      <g>
       <use style="stroke:#000000;stroke-linecap:butt;stroke-width:0.5;" x="89.0011421104" xlink:href="#m868379bafd" y="16.276875"/>
      </g>
     </g>
    </g>
    <g id="xtick_6">
     <g id="line2d_10">
      <defs>
       <path d="
M0 0
L0 -2" id="m868379bafd"/>
      </defs>
      <g>
       <use style="stroke:#000000;stroke-linecap:butt;stroke-width:0.5;" x="116.924757554" xlink:href="#m868379bafd" y="16.276875"/>
      </g>
     </g>
    </g>
    <g id="xtick_7">
     <g id="line2d_11">
      <defs>
       <path d="
M0 0
L0 -2" id="m868379bafd"/>
      </defs>
      <g>
       <use style="stroke:#000000;stroke-linecap:butt;stroke-width:0.5;" x="144.848372998" xlink:href="#m868379bafd" y="16.276875"/>
      </g>
     </g>
    </g>
    <g id="xtick_8">
     <g id="line2d_12">
      <defs>
       <path d="
M0 0
L0 -2" id="m868379bafd"/>
      </defs>
      <g>
       <use style="stroke:#000000;stroke-linecap:butt;stroke-width:0.5;" x="200.695603886" xlink:href="#m868379bafd" y="16.276875"/>
      </g>
     </g>
    </g>
    <g id="xtick_9">
     <g id="line2d_13">
      <defs>
       <path d="
M0 0
L0 -2" id="m868379bafd"/>
      </defs>
      <g>
       <use style="stroke:#000000;stroke-linecap:butt;stroke-width:0.5;" x="228.61921933" xlink:href="#m868379bafd" y="16.276875"/>
      </g>
     </g>
    </g>
    <g id="xtick_10">
     <g id="line2d_14">
      <defs>
       <path d="
M0 0
L0 -2" id="m868379bafd"/>
      </defs>
      <g>
       <use style="stroke:#000000;stroke-linecap:butt;stroke-width:0.5;" x="256.542834774" xlink:href="#m868379bafd" y="16.276875"/>
      </g>
     </g>
    </g>
    <g id="xtick_11">
     <g id="line2d_15">
      <defs>
       <path d="
M0 0
L0 -2" id="m868379bafd"/>
      </defs>
      <g>
       <use style="stroke:#000000;stroke-linecap:butt;stroke-width:0.5;" x="284.466450218" xlink:href="#m868379bafd" y="16.276875"/>
      </g>
     </g>
    </g>
    <g id="xtick_12">
     <g id="line2d_16">
      <defs>
       <path d="
M0 0
L0 -2" id="m868379bafd"/>
      </defs>
      <g>
       <use style="stroke:#000000;stroke-linecap:butt;stroke-width:0.5;" x="340.313681106" xlink:href="#m868379bafd" y="16.276875"/>
      </g>
     </g>
    </g>
    <g id="xtick_13">
     <g id="line2d_17">
      <defs>
       <path d="
M0 0
L0 -2" id="m868379bafd"/>
      </defs>
      <g>
       <use style="stroke:#000000;stroke-linecap:butt;stroke-width:0.5;" x="368.23729655" xlink:href="#m868379bafd" y="16.276875"/>
      </g>
     </g>
    </g>
    <g id="xtick_14">
     <g id="line2d_18">
      <defs>
       <path d="
M0 0
L0 -2" id="m868379bafd"/>
      </defs>
      <g>
       <use style="stroke:#000000;stroke-linecap:butt;stroke-width:0.5;" x="396.160911994" xlink:href="#m868379bafd" y="16.276875"/>
      </g>
     </g>
    </g>
    <g id="xtick_15">
     <g id="line2d_19">
      <defs>
       <path d="
M0 0
L0 -2" id="m868379bafd"/>
      </defs>
      <g>
       <use style="stroke:#000000;stroke-linecap:butt;stroke-width:0.5;" x="424.084527438" xlink:href="#m868379bafd" y="16.276875"/>
      </g>
     </g>
    </g>
    <g id="xtick_16">
     <g id="line2d_20">
      <defs>
       <path d="
M0 0
L0 -2" id="m868379bafd"/>
      </defs>
      <g>
       <use style="stroke:#000000;stroke-linecap:butt;stroke-width:0.5;" x="479.931758326" xlink:href="#m868379bafd" y="16.276875"/>
      </g>
     </g>
    </g>
    <g id="xtick_17">
     <g id="line2d_21">
      <defs>
       <path d="
M0 0
L0 -2" id="m868379bafd"/>
      </defs>
      <g>
       <use style="stroke:#000000;stroke-linecap:butt;stroke-width:0.5;" x="507.85537377" xlink:href="#m868379bafd" y="16.276875"/>
      </g>
     </g>
    </g>
   </g>
   <g id="matplotlib.axis_2">
    <g id="ytick_1">
     <g id="line2d_22">
      <path d="
M42.6088 369.555
L557.426 369.555" style="fill:none;stroke:#000000;stroke-dasharray:1.000000,3.000000;stroke-dashoffset:0.0;stroke-linecap:butt;stroke-width:0.5;"/>
     </g>
     <g id="line2d_23">
      <defs>
       <path d="
M0 0
L4 0" id="m7547b7da11"/>
      </defs>
      <g>
       <use style="stroke:#000000;stroke-linecap:butt;stroke-width:0.5;" x="32.60875" xlink:href="#m7547b7da11" y="369.554912278"/>
      </g>
     </g>
     <g id="text_4">
      <!-- -6 -->
      <defs>
       <path d="
M33.0156 40.375
Q26.375 40.375 22.4844 35.8281
Q18.6094 31.2969 18.6094 23.3906
Q18.6094 15.5312 22.4844 10.9531
Q26.375 6.39062 33.0156 6.39062
Q39.6562 6.39062 43.5312 10.9531
Q47.4062 15.5312 47.4062 23.3906
Q47.4062 31.2969 43.5312 35.8281
Q39.6562 40.375 33.0156 40.375
M52.5938 71.2969
L52.5938 62.3125
Q48.875 64.0625 45.0938 64.9844
Q41.3125 65.9219 37.5938 65.9219
Q27.8281 65.9219 22.6719 59.3281
Q17.5312 52.7344 16.7969 39.4062
Q19.6719 43.6562 24.0156 45.9219
Q28.375 48.1875 33.5938 48.1875
Q44.5781 48.1875 50.9531 41.5156
Q57.3281 34.8594 57.3281 23.3906
Q57.3281 12.1562 50.6875 5.35938
Q44.0469 -1.42188 33.0156 -1.42188
Q20.3594 -1.42188 13.6719 8.26562
Q6.98438 17.9688 6.98438 36.375
Q6.98438 53.6562 15.1875 63.9375
Q23.3906 74.2188 37.2031 74.2188
Q40.9219 74.2188 44.7031 73.4844
Q48.4844 72.75 52.5938 71.2969" id="BitstreamVeraSans-Roman-36"/>
       <path d="
M4.89062 31.3906
L31.2031 31.3906
L31.2031 23.3906
L4.89062 23.3906
z
" id="BitstreamVeraSans-Roman-2d"/>
      </defs>
      <g transform="translate(7.365 378.290537278)scale(0.24 -0.24)">
       <use xlink:href="#BitstreamVeraSans-Roman-2d"/>
       <use x="36.083984375" xlink:href="#BitstreamVeraSans-Roman-36"/>
      </g>
     </g>
    </g>
    <g id="ytick_2">
     <g id="line2d_24">
      <path d="
M42.6088 310.675
L557.426 310.675" style="fill:none;stroke:#000000;stroke-dasharray:1.000000,3.000000;stroke-dashoffset:0.0;stroke-linecap:butt;stroke-width:0.5;"/>
     </g>
     <g id="line2d_25">
      <defs>
       <path d="
M0 0
L4 0" id="m7547b7da11"/>
      </defs>
      <g>
       <use style="stroke:#000000;stroke-linecap:butt;stroke-width:0.5;" x="32.60875" xlink:href="#m7547b7da11" y="310.675239398"/>
      </g>
     </g>
     <g id="text_5">
      <!-- -5 -->
      <g transform="translate(7.95 319.253364398)scale(0.24 -0.24)">
       <use xlink:href="#BitstreamVeraSans-Roman-2d"/>
       <use x="36.083984375" xlink:href="#BitstreamVeraSans-Roman-35"/>
      </g>
     </g>
    </g>
    <g id="ytick_3">
     <g id="line2d_26">
      <path d="
M42.6088 251.796
L557.426 251.796" style="fill:none;stroke:#000000;stroke-dasharray:1.000000,3.000000;stroke-dashoffset:0.0;stroke-linecap:butt;stroke-width:0.5;"/>
     </g>
     <g id="line2d_27">
      <defs>
       <path d="
M0 0
L4 0" id="m7547b7da11"/>
      </defs>
      <g>
       <use style="stroke:#000000;stroke-linecap:butt;stroke-width:0.5;" x="32.60875" xlink:href="#m7547b7da11" y="251.795566518"/>
      </g>
     </g>
     <g id="text_6">
      <!-- -4 -->
      <defs>
       <path d="
M37.7969 64.3125
L12.8906 25.3906
L37.7969 25.3906
z

M35.2031 72.9062
L47.6094 72.9062
L47.6094 25.3906
L58.0156 25.3906
L58.0156 17.1875
L47.6094 17.1875
L47.6094 0
L37.7969 0
L37.7969 17.1875
L4.89062 17.1875
L4.89062 26.7031
z
" id="BitstreamVeraSans-Roman-34"/>
      </defs>
      <g transform="translate(7.2 260.544316518)scale(0.24 -0.24)">
       <use xlink:href="#BitstreamVeraSans-Roman-2d"/>
       <use x="36.083984375" xlink:href="#BitstreamVeraSans-Roman-34"/>
      </g>
     </g>
    </g>
    <g id="ytick_4">
     <g id="line2d_28">
      <path d="
M42.6088 192.916
L557.426 192.916" style="fill:none;stroke:#000000;stroke-dasharray:1.000000,3.000000;stroke-dashoffset:0.0;stroke-linecap:butt;stroke-width:0.5;"/>
     </g>
     <g id="line2d_29">
      <defs>
       <path d="
M0 0
L4 0" id="m7547b7da11"/>
      </defs>
      <g>
       <use style="stroke:#000000;stroke-linecap:butt;stroke-width:0.5;" x="32.60875" xlink:href="#m7547b7da11" y="192.915893639"/>
      </g>
     </g>
     <g id="text_7">
      <!-- -3 -->
      <defs>
       <path d="
M40.5781 39.3125
Q47.6562 37.7969 51.625 33
Q55.6094 28.2188 55.6094 21.1875
Q55.6094 10.4062 48.1875 4.48438
Q40.7656 -1.42188 27.0938 -1.42188
Q22.5156 -1.42188 17.6562 -0.515625
Q12.7969 0.390625 7.625 2.20312
L7.625 11.7188
Q11.7188 9.32812 16.5938 8.10938
Q21.4844 6.89062 26.8125 6.89062
Q36.0781 6.89062 40.9375 10.5469
Q45.7969 14.2031 45.7969 21.1875
Q45.7969 27.6406 41.2812 31.2656
Q36.7656 34.9062 28.7188 34.9062
L20.2188 34.9062
L20.2188 43.0156
L29.1094 43.0156
Q36.375 43.0156 40.2344 45.9219
Q44.0938 48.8281 44.0938 54.2969
Q44.0938 59.9062 40.1094 62.9062
Q36.1406 65.9219 28.7188 65.9219
Q24.6562 65.9219 20.0156 65.0312
Q15.375 64.1562 9.8125 62.3125
L9.8125 71.0938
Q15.4375 72.6562 20.3438 73.4375
Q25.25 74.2188 29.5938 74.2188
Q40.8281 74.2188 47.3594 69.1094
Q53.9062 64.0156 53.9062 55.3281
Q53.9062 49.2656 50.4375 45.0938
Q46.9688 40.9219 40.5781 39.3125" id="BitstreamVeraSans-Roman-33"/>
      </defs>
      <g transform="translate(7.7775 201.651518639)scale(0.24 -0.24)">
       <use xlink:href="#BitstreamVeraSans-Roman-2d"/>
       <use x="36.083984375" xlink:href="#BitstreamVeraSans-Roman-33"/>
      </g>
     </g>
    </g>
    <g id="ytick_5">
     <g id="line2d_30">
      <path d="
M42.6088 134.036
L557.426 134.036" style="fill:none;stroke:#000000;stroke-dasharray:1.000000,3.000000;stroke-dashoffset:0.0;stroke-linecap:butt;stroke-width:0.5;"/>
     </g>
     <g id="line2d_31">
      <defs>
       <path d="
M0 0
L4 0" id="m7547b7da11"/>
      </defs>
      <g>
       <use style="stroke:#000000;stroke-linecap:butt;stroke-width:0.5;" x="32.60875" xlink:href="#m7547b7da11" y="134.036220759"/>
      </g>
     </g>
     <g id="text_8">
      <!-- -2 -->
      <defs>
       <path d="
M19.1875 8.29688
L53.6094 8.29688
L53.6094 0
L7.32812 0
L7.32812 8.29688
Q12.9375 14.1094 22.625 23.8906
Q32.3281 33.6875 34.8125 36.5312
Q39.5469 41.8438 41.4219 45.5312
Q43.3125 49.2188 43.3125 52.7812
Q43.3125 58.5938 39.2344 62.25
Q35.1562 65.9219 28.6094 65.9219
Q23.9688 65.9219 18.8125 64.3125
Q13.6719 62.7031 7.8125 59.4219
L7.8125 69.3906
Q13.7656 71.7812 18.9375 73
Q24.125 74.2188 28.4219 74.2188
Q39.75 74.2188 46.4844 68.5469
Q53.2188 62.8906 53.2188 53.4219
Q53.2188 48.9219 51.5312 44.8906
Q49.8594 40.875 45.4062 35.4062
Q44.1875 33.9844 37.6406 27.2188
Q31.1094 20.4531 19.1875 8.29688" id="BitstreamVeraSans-Roman-32"/>
      </defs>
      <g transform="translate(8.2575 142.942470759)scale(0.24 -0.24)">
       <use xlink:href="#BitstreamVeraSans-Roman-2d"/>
       <use x="36.083984375" xlink:href="#BitstreamVeraSans-Roman-32"/>
      </g>
     </g>
    </g>
    <g id="ytick_6">
     <g id="line2d_32">
      <path d="
M42.6088 75.1565
L557.426 75.1565" style="fill:none;stroke:#000000;stroke-dasharray:1.000000,3.000000;stroke-dashoffset:0.0;stroke-linecap:butt;stroke-width:0.5;"/>
     </g>
     <g id="line2d_33">
      <defs>
       <path d="
M0 0
L4 0" id="m7547b7da11"/>
      </defs>
      <g>
       <use style="stroke:#000000;stroke-linecap:butt;stroke-width:0.5;" x="32.60875" xlink:href="#m7547b7da11" y="75.1565478796"/>
      </g>
     </g>
     <g id="text_9">
      <!-- -1 -->
      <g transform="translate(8.07 83.9052978796)scale(0.24 -0.24)">
       <use xlink:href="#BitstreamVeraSans-Roman-2d"/>
       <use x="36.083984375" xlink:href="#BitstreamVeraSans-Roman-31"/>
      </g>
     </g>
    </g>
    <g id="ytick_7">
     <g id="line2d_34">
      <path d="
M42.6088 16.2769
L557.426 16.2769" style="fill:none;stroke:#000000;stroke-dasharray:1.000000,3.000000;stroke-dashoffset:0.0;stroke-linecap:butt;stroke-width:0.5;"/>
     </g>
     <g id="line2d_35">
      <defs>
       <path d="
M0 0
L4 0" id="m7547b7da11"/>
      </defs>
      <g>
       <use style="stroke:#000000;stroke-linecap:butt;stroke-width:0.5;" x="32.60875" xlink:href="#m7547b7da11" y="16.276875"/>
      </g>
     </g>
     <g id="text_10">
      <!-- 0 -->
      <g transform="translate(16.515 25.0125)scale(0.24 -0.24)">
       <use xlink:href="#BitstreamVeraSans-Roman-30"/>
      </g>
     </g>
    </g>
    <g id="ytick_8">
     <g id="line2d_36">
      <defs>
       <path d="
M0 0
L2 0" id="ma7a708405e"/>
      </defs>
      <g>
       <use style="stroke:#000000;stroke-linecap:butt;stroke-width:0.5;" x="32.60875" xlink:href="#ma7a708405e" y="404.882716005"/>
      </g>
     </g>
    </g>
    <g id="ytick_9">
     <g id="line2d_37">
      <defs>
       <path d="
M0 0
L2 0" id="ma7a708405e"/>
      </defs>
      <g>
       <use style="stroke:#000000;stroke-linecap:butt;stroke-width:0.5;" x="32.60875" xlink:href="#ma7a708405e" y="393.106781429"/>
      </g>
     </g>
    </g>
    <g id="ytick_10">
     <g id="line2d_38">
      <defs>
       <path d="
M0 0
L2 0" id="ma7a708405e"/>
      </defs>
      <g>
       <use style="stroke:#000000;stroke-linecap:butt;stroke-width:0.5;" x="32.60875" xlink:href="#ma7a708405e" y="381.330846854"/>
      </g>
     </g>
    </g>
    <g id="ytick_11">
     <g id="line2d_39">
      <defs>
       <path d="
M0 0
L2 0" id="ma7a708405e"/>
      </defs>
      <g>
       <use style="stroke:#000000;stroke-linecap:butt;stroke-width:0.5;" x="32.60875" xlink:href="#ma7a708405e" y="357.778977702"/>
      </g>
     </g>
    </g>
    <g id="ytick_12">
     <g id="line2d_40">
      <defs>
       <path d="
M0 0
L2 0" id="ma7a708405e"/>
      </defs>
      <g>
       <use style="stroke:#000000;stroke-linecap:butt;stroke-width:0.5;" x="32.60875" xlink:href="#ma7a708405e" y="346.003043126"/>
      </g>
     </g>
    </g>
    <g id="ytick_13">
     <g id="line2d_41">
      <defs>
       <path d="
M0 0
L2 0" id="ma7a708405e"/>
      </defs>
      <g>
       <use style="stroke:#000000;stroke-linecap:butt;stroke-width:0.5;" x="32.60875" xlink:href="#ma7a708405e" y="334.22710855"/>
      </g>
     </g>
    </g>
    <g id="ytick_14">
     <g id="line2d_42">
      <defs>
       <path d="
M0 0
L2 0" id="ma7a708405e"/>
      </defs>
      <g>
       <use style="stroke:#000000;stroke-linecap:butt;stroke-width:0.5;" x="32.60875" xlink:href="#ma7a708405e" y="322.451173974"/>
      </g>
     </g>
    </g>
    <g id="ytick_15">
     <g id="line2d_43">
      <defs>
       <path d="
M0 0
L2 0" id="ma7a708405e"/>
      </defs>
      <g>
       <use style="stroke:#000000;stroke-linecap:butt;stroke-width:0.5;" x="32.60875" xlink:href="#ma7a708405e" y="298.899304822"/>
      </g>
     </g>
    </g>
    <g id="ytick_16">
     <g id="line2d_44">
      <defs>
       <path d="
M0 0
L2 0" id="ma7a708405e"/>
      </defs>
      <g>
       <use style="stroke:#000000;stroke-linecap:butt;stroke-width:0.5;" x="32.60875" xlink:href="#ma7a708405e" y="287.123370246"/>
      </g>
     </g>
    </g>
    <g id="ytick_17">
     <g id="line2d_45">
      <defs>
       <path d="
M0 0
L2 0" id="ma7a708405e"/>
      </defs>
      <g>
       <use style="stroke:#000000;stroke-linecap:butt;stroke-width:0.5;" x="32.60875" xlink:href="#ma7a708405e" y="275.34743567"/>
      </g>
     </g>
    </g>
    <g id="ytick_18">
     <g id="line2d_46">
      <defs>
       <path d="
M0 0
L2 0" id="ma7a708405e"/>
      </defs>
      <g>
       <use style="stroke:#000000;stroke-linecap:butt;stroke-width:0.5;" x="32.60875" xlink:href="#ma7a708405e" y="263.571501094"/>
      </g>
     </g>
    </g>
    <g id="ytick_19">
     <g id="line2d_47">
      <defs>
       <path d="
M0 0
L2 0" id="ma7a708405e"/>
      </defs>
      <g>
       <use style="stroke:#000000;stroke-linecap:butt;stroke-width:0.5;" x="32.60875" xlink:href="#ma7a708405e" y="240.019631942"/>
      </g>
     </g>
    </g>
    <g id="ytick_20">
     <g id="line2d_48">
      <defs>
       <path d="
M0 0
L2 0" id="ma7a708405e"/>
      </defs>
      <g>
       <use style="stroke:#000000;stroke-linecap:butt;stroke-width:0.5;" x="32.60875" xlink:href="#ma7a708405e" y="228.243697367"/>
      </g>
     </g>
    </g>
    <g id="ytick_21">
     <g id="line2d_49">
      <defs>
       <path d="
M0 0
L2 0" id="ma7a708405e"/>
      </defs>
      <g>
       <use style="stroke:#000000;stroke-linecap:butt;stroke-width:0.5;" x="32.60875" xlink:href="#ma7a708405e" y="216.467762791"/>
      </g>
     </g>
    </g>
    <g id="ytick_22">
     <g id="line2d_50">
      <defs>
       <path d="
M0 0
L2 0" id="ma7a708405e"/>
      </defs>
      <g>
       <use style="stroke:#000000;stroke-linecap:butt;stroke-width:0.5;" x="32.60875" xlink:href="#ma7a708405e" y="204.691828215"/>
      </g>
     </g>
    </g>
    <g id="ytick_23">
     <g id="line2d_51">
      <defs>
       <path d="
M0 0
L2 0" id="ma7a708405e"/>
      </defs>
      <g>
       <use style="stroke:#000000;stroke-linecap:butt;stroke-width:0.5;" x="32.60875" xlink:href="#ma7a708405e" y="181.139959063"/>
      </g>
     </g>
    </g>
    <g id="ytick_24">
     <g id="line2d_52">
      <defs>
       <path d="
M0 0
L2 0" id="ma7a708405e"/>
      </defs>
      <g>
       <use style="stroke:#000000;stroke-linecap:butt;stroke-width:0.5;" x="32.60875" xlink:href="#ma7a708405e" y="169.364024487"/>
      </g>
     </g>
    </g>
    <g id="ytick_25">
     <g id="line2d_53">
      <defs>
       <path d="
M0 0
L2 0" id="ma7a708405e"/>
      </defs>
      <g>
       <use style="stroke:#000000;stroke-linecap:butt;stroke-width:0.5;" x="32.60875" xlink:href="#ma7a708405e" y="157.588089911"/>
      </g>
     </g>
    </g>
    <g id="ytick_26">
     <g id="line2d_54">
      <defs>
       <path d="
M0 0
L2 0" id="ma7a708405e"/>
      </defs>
      <g>
       <use style="stroke:#000000;stroke-linecap:butt;stroke-width:0.5;" x="32.60875" xlink:href="#ma7a708405e" y="145.812155335"/>
      </g>
     </g>
    </g>
    <g id="ytick_27">
     <g id="line2d_55">
      <defs>
       <path d="
M0 0
L2 0" id="ma7a708405e"/>
      </defs>
      <g>
       <use style="stroke:#000000;stroke-linecap:butt;stroke-width:0.5;" x="32.60875" xlink:href="#ma7a708405e" y="122.260286183"/>
      </g>
     </g>
    </g>
    <g id="ytick_28">
     <g id="line2d_56">
      <defs>
       <path d="
M0 0
L2 0" id="ma7a708405e"/>
      </defs>
      <g>
       <use style="stroke:#000000;stroke-linecap:butt;stroke-width:0.5;" x="32.60875" xlink:href="#ma7a708405e" y="110.484351607"/>
      </g>
     </g>
    </g>
    <g id="ytick_29">
     <g id="line2d_57">
      <defs>
       <path d="
M0 0
L2 0" id="ma7a708405e"/>
      </defs>
      <g>
       <use style="stroke:#000000;stroke-linecap:butt;stroke-width:0.5;" x="32.60875" xlink:href="#ma7a708405e" y="98.7084170314"/>
      </g>
     </g>
    </g>
    <g id="ytick_30">
     <g id="line2d_58">
      <defs>
       <path d="
M0 0
L2 0" id="ma7a708405e"/>
      </defs>
      <g>
       <use style="stroke:#000000;stroke-linecap:butt;stroke-width:0.5;" x="32.60875" xlink:href="#ma7a708405e" y="86.9324824555"/>
      </g>
     </g>
    </g>
    <g id="ytick_31">
     <g id="line2d_59">
      <defs>
       <path d="
M0 0
L2 0" id="ma7a708405e"/>
      </defs>
      <g>
       <use style="stroke:#000000;stroke-linecap:butt;stroke-width:0.5;" x="32.60875" xlink:href="#ma7a708405e" y="63.3806133037"/>
      </g>
     </g>
    </g>
    <g id="ytick_32">
     <g id="line2d_60">
      <defs>
       <path d="
M0 0
L2 0" id="ma7a708405e"/>
      </defs>
      <g>
       <use style="stroke:#000000;stroke-linecap:butt;stroke-width:0.5;" x="32.60875" xlink:href="#ma7a708405e" y="51.6046787278"/>
      </g>
     </g>
    </g>
    <g id="ytick_33">
     <g id="line2d_61">
      <defs>
       <path d="
M0 0
L2 0" id="ma7a708405e"/>
      </defs>
      <g>
       <use style="stroke:#000000;stroke-linecap:butt;stroke-width:0.5;" x="32.60875" xlink:href="#ma7a708405e" y="39.8287441518"/>
      </g>
     </g>
    </g>
    <g id="ytick_34">
     <g id="line2d_62">
      <defs>
       <path d="
M0 0
L2 0" id="ma7a708405e"/>
      </defs>
      <g>
       <use style="stroke:#000000;stroke-linecap:butt;stroke-width:0.5;" x="32.60875" xlink:href="#ma7a708405e" y="28.0528095759"/>
      </g>
     </g>
    </g>
   </g>
   <g id="patch_3">
    <path d="
M42.6088 16.2769
L557.426 16.2769" style="fill:none;stroke:#000000;stroke-width:0.8;"/>
   </g>
   <g id="patch_4">
    <path d="
M32.6088 412.239
L32.6088 8.51291" style="fill:none;stroke:#000000;stroke-width:0.8;"/>
   </g>
  </g>
 </g>
 <defs>
  <clipPath id="p10490cade4">
   <rect height="403.726153846" width="514.8175" x="42.60875" y="8.51291050296"/>
  </clipPath>
 </defs>
</svg>
