<?xml version="1.0" encoding="utf-8" standalone="no"?>
<!DOCTYPE svg PUBLIC "-//W3C//DTD SVG 1.1//EN"
  "http://www.w3.org/Graphics/SVG/1.1/DTD/svg11.dtd">
<!-- Created with matplotlib (http://matplotlib.sourceforge.net/) -->
<svg height="420pt" version="1.1" viewBox="0 0 562 420" width="562pt" xmlns="http://www.w3.org/2000/svg" xmlns:xlink="http://www.w3.org/1999/xlink">
 <defs>
  <style type="text/css">
*{stroke-linecap:square;stroke-linejoin:round;}
  </style>
 </defs>
 <g id="figure_1">
  <g id="patch_1">
   <path d="
M4.44089e-16 420.48
L562.653 420.48
L562.653 0
L4.44089e-16 0
z
" style="fill:#ffffff;"/>
  </g>
  <g id="axes_1">
   <g id="patch_2">
    <path d="
M18.9817 413.28
L555.453 413.28
L555.453 7.2
L18.9817 7.2
z
" style="fill:#ffffff;"/>
   </g>
   <g id="line2d_1">
    <path clip-path="url(#pb7017b9641)" d="
M29.2984 342.346
L29.3465 342.346
L29.3465 405.471
L29.4037 347.082
L29.4647 347.082
L29.5268 295.482
L29.5915 295.482
L29.6582 269.146
L29.724 269.146
L29.7917 253.113
L29.861 253.113
L29.9303 236.309
L30.0005 236.309
L30.0708 225.256
L30.1422 225.256
L30.2146 220.457
L30.2862 220.457
L30.3588 215.989
L30.4317 215.989
L30.505 208.802
L30.5785 208.802
L30.6534 199.953
L30.7266 199.953
L30.8019 194.212
L30.8776 194.212
L30.9516 190.661
L31.0268 190.661
L31.1027 188.9
L31.179 188.9
L31.2561 185
L31.3316 185
L31.4103 179.732
L31.4865 179.732
L31.563 174.806
L31.6409 174.806
L31.7192 172.603
L31.7955 172.603
L31.8734 171.184
L31.9519 171.184
L32.0291 169.315
L32.1087 169.315
L32.1878 167.7
L32.2667 167.7
L32.3442 166.503
L32.4236 166.503
L32.502 165.575
L32.5825 165.575
L32.6637 164.791
L32.7428 164.791
L32.8231 162.926
L32.902 162.926
L32.9814 160.889
L33.062 160.889
L33.1437 159.314
L33.2242 159.314
L33.3043 156.523
L33.3844 156.523
L33.4647 153.045
L33.5453 153.045
L33.6263 150.349
L33.7087 150.349
L33.788 147.317
L33.8697 147.317
L33.9518 144.926
L34.0332 144.926
L34.1148 142.744
L34.1975 142.744
L34.2792 140.956
L34.3624 140.956
L34.4452 139.973
L34.5258 139.973
L34.6077 139.084
L34.6904 139.084
L34.775 137.86
L34.8578 137.86
L34.9398 137.089
L35.0209 137.089
L35.0209 136.976
L35.1042 136.976
L35.1042 136.976
L35.1864 137.348
L35.2701 137.348
L35.3519 137.562
L35.5175 137.457
L35.6005 136.794
L35.6863 136.794
L35.7696 136.478
L35.8513 136.478
L35.9352 136.065
L36.0195 136.065
L36.1031 135.631
L36.2721 135.58
L36.3561 135.275
L36.4398 135.275
L36.5213 134.657
L36.6087 134.657
L36.6921 133.781
L36.7762 133.781
L36.8589 132.764
L36.9439 132.764
L37.0278 131.517
L37.1107 131.517
L37.1969 130.342
L37.283 130.342
L37.3675 129.382
L37.4527 129.382
L37.5394 128.501
L37.6243 128.501
L37.7081 127.597
L37.7936 127.597
L37.879 126.751
L37.9625 126.751
L38.0492 125.582
L38.134 125.582
L38.2202 124.442
L38.307 124.442
L38.3931 123.3
L38.4778 123.3
L38.5628 122.542
L38.6479 122.542
L38.7328 121.681
L38.8195 121.681
L38.904 120.806
L38.989 120.806
L39.0746 120.261
L39.1612 120.261
L39.2457 119.86
L39.3317 119.86
L39.418 119.464
L39.5074 119.464
L39.5927 119.085
L39.7626 119.014
L39.8489 118.679
L39.9361 118.679
L40.0232 117.777
L40.1098 117.777
L40.1963 116.736
L40.2826 116.736
L40.368 116.013
L40.4541 116.013
L40.5412 115.6
L40.6287 115.6
L40.7158 114.817
L40.8035 114.817
L40.8911 113.896
L40.9771 113.896
L41.0623 112.926
L41.1516 112.926
L41.2387 112.043
L41.3277 112.043
L41.4152 111.231
L41.5015 111.231
L41.5893 110.604
L41.676 110.604
L41.7641 110.045
L41.8523 110.045
L41.94 109.444
L42.0264 109.444
L42.1158 108.715
L42.2028 108.715
L42.2905 107.854
L42.3762 107.854
L42.466 107.282
L42.5532 107.282
L42.6386 106.846
L42.7269 106.846
L42.8153 106.325
L42.9031 106.325
L42.9902 105.979
L43.0789 105.979
L43.1669 105.735
L43.8686 105.666
L43.9565 105.359
L44.0452 105.359
L44.135 105.147
L44.3123 105.062
L44.4015 104.83
L44.4905 104.83
L44.5801 104.514
L44.6687 104.514
L44.7567 104.252
L45.2901 104.163
L45.3783 103.997
L45.5567 103.959
L45.645 103.708
L45.7334 103.708
L45.8192 103.387
L45.9081 103.387
L45.9956 102.867
L46.086 102.867
L46.175 102.255
L46.2638 102.255
L46.3544 101.768
L46.4436 101.768
L46.5329 101.311
L46.6241 101.311
L46.713 100.789
L46.8023 100.789
L46.8903 100.408
L46.9789 100.408
L47.0662 100.066
L47.3408 99.982
L47.4307 99.8875
L47.7031 99.7889
L47.7938 99.7012
L48.0581 99.6176
L48.1519 99.3199
L48.2407 99.3199
L48.3287 99.1063
L48.5075 99.0606
L48.5959 98.941
L48.7785 98.8682
L48.8686 98.7359
L49.4982 98.649
L49.5871 98.5463
L49.7697 98.4704
L49.8606 98.3158
L50.0427 98.2376
L50.1308 98.0521
L50.2202 98.0521
L50.3109 97.7225
L50.4007 97.7225
L50.4909 97.4303
L50.5833 97.4303
L50.6752 97.1429
L50.7651 97.1429
L50.8555 96.7526
L50.9446 96.7526
L51.0347 96.2789
L51.1264 96.2789
L51.2185 95.7942
L51.308 95.7942
L51.4004 95.2638
L51.4924 95.2638
L51.5822 94.7271
L51.6738 94.7271
L51.7663 94.1857
L51.8573 94.1857
L51.9482 93.8176
L52.0411 93.8176
L52.1292 93.4292
L52.2177 93.4292
L52.3078 92.9256
L52.3983 92.9256
L52.4882 92.4335
L52.5808 92.4335
L52.6728 91.996
L52.7653 91.996
L52.855 91.6499
L52.946 91.6499
L53.0382 91.3434
L53.2198 91.2713
L53.3122 91.1916
L53.4926 91.1342
L53.5848 91.0402
L53.951 90.942
L54.0438 90.8849
L54.2273 90.8473
L54.3173 90.6448
L54.4078 90.6448
L54.4998 90.3547
L54.5871 90.3547
L54.6806 89.9954
L54.7722 89.9954
L54.8626 89.6578
L54.9529 89.6578
L55.0425 89.3643
L55.1357 89.3643
L55.2279 89.0771
L55.3195 89.0771
L55.4125 88.8578
L55.5951 88.7761
L55.6884 88.547
L55.7795 88.547
L55.8718 88.2589
L56.0569 88.1739
L56.148 87.9912
L56.3317 87.9087
L56.4224 87.8017
L56.6989 87.7231
L56.7913 87.6359
L57.2515 87.5467
L57.3438 87.4982
L57.6208 87.4046
L57.7115 87.2584
L57.8994 87.1796
L57.9922 87.1054
L58.456 87.0565
L58.5503 86.8791
L58.6435 86.8791
L58.733 86.6898
L58.9183 86.6259
L59.0107 86.4413
L59.1991 86.3324
L59.2913 86.0529
L59.4763 85.9426
L59.5702 85.7842
L59.7524 85.6846
L59.8426 85.4246
L59.9346 85.4246
L60.0282 85.1405
L60.1221 85.1405
L60.2153 84.7801
L60.3065 84.7801
L60.3974 84.4167
L60.4944 84.4167
L60.5869 84.1135
L60.6803 84.1135
L60.7723 83.8219
L60.8649 83.8219
L60.9591 83.5434
L61.0504 83.5434
L61.1428 83.3145
L61.2387 83.3145
L61.3302 83.0763
L61.4249 83.0763
L61.518 82.7877
L61.6098 82.7877
L61.7017 82.5024
L61.792 82.5024
L61.8852 82.1936
L61.9778 82.1936
L62.072 81.8732
L62.1659 81.8732
L62.2621 81.589
L62.355 81.589
L62.4477 81.3125
L62.5434 81.3125
L62.6351 81.0187
L62.7299 81.0187
L62.8232 80.6853
L62.9157 80.6853
L63.0088 80.342
L63.1021 80.342
L63.1947 80.006
L63.286 80.006
L63.3791 79.6423
L63.4728 79.6423
L63.5666 79.3183
L63.662 79.3183
L63.7552 79.0541
L63.8491 79.0541
L63.9403 78.7927
L64.0332 78.7927
L64.1269 78.5657
L64.3141 78.466
L64.4083 78.2631
L64.5952 78.1671
L64.6866 77.9945
L64.8708 77.9137
L64.9654 77.7927
L65.2438 77.7039
L65.3392 77.5305
L65.5261 77.4515
L65.6176 77.2914
L65.8053 77.1853
L65.8984 76.9485
L66.0878 76.8624
L66.1812 76.6813
L66.3703 76.6167
L66.4629 76.4688
L66.6518 76.3862
L66.7457 76.2122
L66.9317 76.1435
L67.0275 75.9965
L67.309 75.8975
L67.4019 75.8393
L67.686 75.7667
L67.7791 75.6611
L67.9706 75.6002
L68.0649 75.4863
L68.3469 75.3765
L68.4424 75.2878
L69.1934 75.1933
L69.2894 75.112
L69.6672 75.0169
L69.761 74.9375
L70.0415 74.8404
L70.1365 74.7606
L70.4208 74.6799
L70.5135 74.6044
L71.3692 74.4935
L71.4638 74.451
L71.7455 74.3662
L71.8392 74.2636
L72.1243 74.1791
L72.2183 74.0747
L72.5041 73.9777
L72.5986 73.8928
L72.7895 73.8278
L72.8867 73.6932
L73.0743 73.6108
L73.1694 73.4266
L73.3562 73.3414
L73.4503 73.1968
L73.6398 73.1267
L73.7328 73.0521
L74.0174 72.9815
L74.1133 72.8843
L74.7752 72.7949
L74.8712 72.7224
L75.0642 72.6704
L75.1587 72.5396
L75.3466 72.467
L75.4424 72.3405
L75.6342 72.2668
L75.7272 72.1583
L75.9221 72.0971
L76.0183 71.9754
L76.5899 71.8673
L76.6846 71.8254
L77.2543 71.7289
L77.3486 71.659
L77.6338 71.5646
L77.7304 71.4796
L78.0195 71.4066
L78.1158 71.3333
L78.4979 71.228
L78.5929 71.1184
L78.7804 71.0376
L78.878 70.8784
L79.0681 70.8065
L79.1634 70.6671
L79.3562 70.6076
L79.4525 70.4821
L79.6421 70.4111
L79.7395 70.2563
L79.9305 70.1875
L80.0239 70.068
L80.219 69.9934
L80.3153 69.8293
L80.5086 69.7463
L80.6035 69.572
L80.7979 69.4947
L80.8957 69.355
L81.0855 69.2951
L81.181 69.1461
L81.3717 69.0646
L81.4675 68.9069
L81.6582 68.8335
L81.7554 68.7001
L82.1426 68.5902
L82.237 68.5198
L82.6211 68.4297
L82.7184 68.3812
L83.1943 68.2888
L83.2909 68.2366
L84.0584 68.1276
L84.1543 68.0903
L84.63 67.9987
L84.7266 67.9518
L85.2123 67.8468
L85.3066 67.7636
L85.6915 67.6726
L85.7857 67.6397
L86.1745 67.5654
L86.2714 67.4767
L86.5568 67.377
L86.6526 67.29
L86.9428 67.2206
L87.0384 67.1469
L87.524 67.0483
L87.6214 66.9864
L88.0088 66.895
L88.1051 66.8354
L89.0678 66.7441
L89.1651 66.7024
L90.8092 66.5976
L90.9056 66.5655
L91.4872 66.4638
L91.5827 66.4162
L92.0689 66.3092
L92.1664 66.2573
L92.5546 66.1626
L92.6512 66.0943
L92.9406 66.0131
L93.0382 65.9217
L93.3245 65.8324
L93.4211 65.7421
L93.8147 65.6454
L93.9079 65.5753
L94.2997 65.4894
L94.395 65.4334
L94.7859 65.3416
L94.8828 65.2759
L95.1701 65.1891
L95.2672 65.0858
L95.5587 64.9766
L95.6548 64.8719
L95.8516 64.8055
L95.95 64.6699
L96.1469 64.601
L96.2451 64.4826
L96.4396 64.4233
L96.5381 64.3012
L96.7358 64.2431
L96.8335 64.12
L97.0292 64.055
L97.1269 63.9246
L97.3217 63.856
L97.4175 63.7306
L97.6136 63.6725
L97.7121 63.5591
L97.9067 63.4966
L98.0023 63.3732
L98.2947 63.2722
L98.393 63.1768
L98.7871 63.0682
L98.8842 63.0271
L99.2775 62.9253
L99.3748 62.8648
L99.9555 62.7563
L100.054 62.6923
L100.348 62.6216
L100.443 62.5366
L100.736 62.4409
L100.834 62.3406
L101.122 62.2551
L101.221 62.1493
L101.52 62.0502
L101.619 61.9621
L101.912 61.8754
L102.009 61.7666
L102.302 61.664
L102.401 61.578
L102.599 61.5174
L102.697 61.3816
L102.891 61.3139
L102.988 61.1593
L103.184 61.0926
L103.282 60.9698
L103.474 60.9079
L103.569 60.7702
L103.768 60.7024
L103.865 60.5938
L104.16 60.4895
L104.259 60.3917
L104.552 60.2905
L104.65 60.2098
L104.948 60.1029
L105.044 60.0063
L105.338 59.916
L105.436 59.8129
L105.729 59.7033
L105.827 59.5712
L106.023 59.4999
L106.123 59.3808
L106.417 59.2776
L106.519 59.1813
L106.813 59.0981
L106.911 59.0001
L107.206 58.9079
L107.305 58.8178
L107.599 58.7274
L107.7 58.6328
L107.994 58.5347
L108.091 58.433
L108.386 58.3264
L108.483 58.232
L108.883 58.1315
L108.982 58.0888
L109.372 58.0124
L109.47 57.9353
L109.762 57.8446
L109.861 57.7595
L110.155 57.6763
L110.254 57.5786
L110.452 57.5234
L110.551 57.4048
L110.749 57.3482
L110.849 57.2174
L111.14 57.1176
L111.237 57.0071
L111.436 56.9453
L111.533 56.8346
L111.83 56.7367
L111.93 56.6223
L112.13 56.5685
L112.226 56.4547
L112.425 56.396
L112.523 56.2775
L112.721 56.2149
L112.822 56.0835
L113.017 56.0199
L113.114 55.8982
L113.312 55.8344
L113.41 55.7033
L113.612 55.6397
L113.711 55.5101
L113.908 55.445
L114.008 55.3296
L114.302 55.2198
L114.399 55.1062
L114.598 55.0509
L114.7 54.9326
L114.896 54.866
L114.993 54.7251
L115.191 54.6467
L115.29 54.4954
L115.488 54.4192
L115.588 54.2614
L115.782 54.1858
L115.881 54.0397
L116.075 53.9702
L116.176 53.8453
L116.475 53.7386
L116.573 53.648
L116.866 53.556
L116.964 53.4467
L117.261 53.3361
L117.358 53.2358
L117.655 53.1452
L117.755 53.0577
L118.058 52.9704
L118.157 52.8802
L118.454 52.7965
L118.551 52.7058
L118.745 52.6527
L118.845 52.5378
L119.044 52.4792
L119.138 52.3797
L119.438 52.2837
L119.533 52.1813
L119.829 52.0803
L119.929 51.9888
L120.225 51.8875
L120.323 51.7859
L120.624 51.6833
L120.724 51.5862
L121.024 51.482
L121.121 51.3817
L121.322 51.3223
L121.424 51.209
L121.721 51.099
L121.82 50.9994
L122.109 50.9058
L122.21 50.8069
L122.512 50.7128
L122.615 50.6294
L122.91 50.5429
L123.013 50.4715
L123.407 50.3745
L123.507 50.3102
L123.899 50.2104
L124.002 50.1434
L124.402 50.0398
L124.5 49.9697
L124.804 49.8924
L124.903 49.8215
L125.298 49.7368
L125.396 49.6837
L125.796 49.6007
L125.897 49.5471
L126.689 49.4395
L126.791 49.4201
L127.787 49.3147
L127.89 49.2979
L128.886 49.1912
L128.985 49.1688
L129.882 49.0692
L129.98 49.0368
L131.578 48.932
L131.679 48.8882
L132.178 48.7922
L132.275 48.7489
L132.873 48.6497
L132.973 48.6151
L133.474 48.5182
L133.576 48.4676
L133.978 48.3703
L134.078 48.293
L134.377 48.2151
L134.476 48.1389
L134.882 48.0304
L134.984 47.9696
L135.481 47.8587
L135.58 47.7957
L135.98 47.6985
L136.078 47.6365
L136.478 47.5444
L136.578 47.4859
L137.182 47.39
L137.281 47.3488
L137.781 47.2548
L137.881 47.2074
L138.489 47.0974
L138.587 47.0439
L139.087 46.9366
L139.187 46.8833
L139.59 46.7888
L139.689 46.7257
L140.088 46.6203
L140.186 46.5435
L140.493 46.4671
L140.594 46.404
L141.094 46.3008
L141.193 46.2455
L141.593 46.1468
L141.692 46.0684
L142.095 45.9603
L142.195 45.8956
L142.591 45.8054
L142.694 45.7381
L143.092 45.6486
L143.195 45.5978
L143.703 45.4901
L143.805 45.4312
L144.313 45.3313
L144.412 45.2719
L144.817 45.1669
L144.917 45.0895
L145.322 44.9991
L145.423 44.9459
L145.921 44.8593
L146.02 44.8052
L146.423 44.7058
L146.524 44.6345
L146.826 44.55
L146.928 44.4655
L147.229 44.3895
L147.33 44.3164
L147.732 44.2101
L147.833 44.1447
L148.232 44.0473
L148.333 43.9879
L148.836 43.8944
L148.941 43.8576
L149.543 43.7548
L149.642 43.733
L150.655 43.6235
L150.755 43.5873
L153.988 43.6856
L154.089 43.7259
L154.59 43.8224
L154.689 43.8718
L155.296 43.982
L155.398 44.0141
L156.208 44.1153
L156.311 44.1462
L157.421 44.2573
L157.523 44.2783
L158.436 44.3824
L158.538 44.4142
L159.35 44.5161
L159.454 44.5394
L160.268 44.6467
L160.368 44.6836
L161.077 44.7811
L161.179 44.8094
L161.89 44.9067
L161.988 44.941
L162.799 45.0456
L162.898 45.0722
L163.812 45.1816
L163.913 45.1957
L165.944 45.0896
L166.043 45.0745
L172.351 45.1837
L172.446 45.2186
L174.489 45.3264
L174.59 45.3382
L176.525 45.2391
L176.627 45.2071
L177.342 45.1001
L177.446 45.0753
L178.367 44.9686
L178.469 44.9365
L179.289 44.8372
L179.39 44.802
L180.213 44.6961
L180.314 44.6669
L180.92 44.5673
L181.023 44.5252
L181.743 44.4215
L181.847 44.3843
L182.356 44.289
L182.459 44.2426
L183.075 44.1337
L183.178 44.0927
L183.683 44.0067
L183.781 43.9537
L184.289 43.8569
L184.391 43.8103
L184.901 43.7088
L185.004 43.6544
L185.411 43.5697
L185.513 43.505
L185.919 43.3964
L186.024 43.3241
L186.437 43.2337
L186.54 43.1877
L187.252 43.0895
L187.355 43.0551
L187.966 42.9496
L188.07 42.9105
L188.681 42.8046
L188.783 42.7647
L189.511 42.657
L189.612 42.6274
L190.436 42.5209
L190.54 42.488
L191.153 42.3919
L191.256 42.3532
L191.774 42.2607
L191.878 42.2088
L192.39 42.1103
L192.491 42.0531
L193.005 41.9464
L193.109 41.891
L193.619 41.792
L193.72 41.7404
L194.235 41.6419
L194.338 41.599
L195.056 41.492
L195.158 41.4578
L195.779 41.3599
L195.88 41.3077
L196.392 41.2159
L196.495 41.1761
L197.11 41.0808
L197.212 41.0381
L197.931 40.9375
L198.034 40.8974
L198.548 40.8065
L198.654 40.7555
L199.168 40.6626
L199.269 40.6204
L199.888 40.5226
L199.991 40.4769
L200.503 40.3694
L200.608 40.3113
L201.119 40.2038
L201.221 40.1534
L201.835 40.05
L201.938 40.023
L202.972 39.9141
L203.075 39.891
L204.101 39.7801
L204.205 39.7478
L205.14 39.6411
L205.243 39.6129
L206.18 39.5093
L206.283 39.4806
L207.013 39.3801
L207.113 39.3389
L207.731 39.2467
L207.832 39.2097
L208.356 39.1165
L208.458 39.0628
L208.977 38.9607
L209.083 38.9001
L209.485 38.7992
L209.592 38.7309
L210.006 38.6309
L210.11 38.5618
L210.525 38.4615
L210.628 38.3925
L211.04 38.2867
L211.142 38.2186
L211.555 38.1232
L211.658 38.0597
L212.07 37.9628
L212.174 37.902
L212.589 37.8068
L212.69 37.7414
L213.107 37.6355
L213.208 37.561
L213.623 37.4518
L213.724 37.3791
L214.034 37.3032
L214.138 37.2241
L214.557 37.1131
L214.658 37.039
L214.968 36.9609
L215.07 36.8856
L215.484 36.7746
L215.585 36.7031
L216.004 36.6013
L216.109 36.5324
L216.514 36.4394
L216.62 36.3799
L217.135 36.2725
L217.241 36.2165
L217.653 36.1223
L217.758 36.0569
L218.169 35.9579
L218.274 35.8944
L218.692 35.7957
L218.797 35.7266
L219.207 35.625
L219.314 35.5553
L219.737 35.4536
L219.839 35.3828
L220.249 35.2783
L220.352 35.2081
L220.762 35.1031
L220.863 35.0299
L221.173 34.9524
L221.277 34.8737
L221.594 34.7968
L221.698 34.7218
L222.111 34.6111
L222.213 34.5375
L222.63 34.4312
L222.733 34.361
L223.146 34.2586
L223.25 34.1943
L223.662 34.1026
L223.767 34.0461
L224.286 33.9391
L224.393 33.8862
L224.912 33.7823
L225.015 33.7354
L225.536 33.6445
L225.638 33.5941
L226.154 33.4952
L226.256 33.4446
L226.771 33.3395
L226.87 33.2906
L227.393 33.1883
L227.496 33.1373
L228.012 33.0319
L228.119 32.9778
L228.537 32.8961
L228.642 32.8357
L229.053 32.7467
L229.155 32.6918
L229.571 32.6063
L229.672 32.5535
L230.186 32.4529
L230.291 32.3976
L230.71 32.3119
L230.815 32.258
L231.332 32.1494
L231.436 32.0956
L231.954 31.9901
L232.054 31.9415
L232.572 31.8472
L232.675 31.8031
L233.401 31.6971
L233.506 31.6651
L234.23 31.5581
L234.334 31.5227
L235.064 31.4174
L235.169 31.3787
L236.008 31.27
L236.111 31.2366
L236.735 31.1402
L236.84 31.1094
L237.768 31.0004
L237.873 30.97
L238.71 30.8616
L238.816 30.8353
L239.644 30.7343
L239.745 30.7021
L241.107 30.5915
L241.209 30.5716
L242.041 30.4657
L242.148 30.436
L242.985 30.337
L243.087 30.3034
L244.032 30.194
L244.138 30.1653
L245.071 30.0598
L245.173 30.0365
L246.435 29.9276
L246.54 29.9052
L247.677 29.8006
L247.783 29.7691
L248.513 29.6717
L248.616 29.6433
L249.454 29.5447
L249.56 29.5112
L250.394 29.4065
L250.501 29.3764
L251.344 29.2752
L251.451 29.2464
L252.282 29.1471
L252.388 29.1145
L253.015 29.0192
L253.119 28.9825
L253.848 28.8864
L253.95 28.8554
L254.899 28.7466
L255.005 28.7189
L255.95 28.6149
L256.05 28.5906
L256.993 28.4814
L257.098 28.448
L257.825 28.3487
L257.932 28.315
L258.665 28.2136
L258.77 28.1719
L259.395 28.0621
L259.5 28.0293
L260.227 27.9315
L260.333 27.8964
L261.175 27.7904
L261.278 27.7599
L262.009 27.6552
L262.112 27.6166
L263.154 27.5073
L263.257 27.4896
L264.409 27.3893
L264.51 27.3674
L265.665 27.2619
L265.773 27.2437
L266.921 27.1413
L267.025 27.1177
L270.388 27.0069
L270.492 27.0044
L278.282 27.1132
L278.385 27.1199
L280.918 27.2301
L281.022 27.2343
L285.009 27.3451
L285.009 27.3457
L285.112 27.3454
L294.074 27.2364
L294.182 27.2281
L296.498 27.1215
L296.602 27.1116
L299.035 27.0056
L299.141 26.9957
L304.844 26.8883
L304.948 26.8731
L306.333 26.765
L306.438 26.7481
L308.13 26.639
L308.237 26.6278
L310.574 26.5178
L310.679 26.5065
L313.221 26.3975
L313.327 26.3903
L317.991 26.2831
L318.096 26.2756
L320.959 26.1697
L321.064 26.1591
L327.957 26.0504
L328.064 26.0427
L331.675 25.934
L331.781 25.9156
L332.837 25.8158
L332.945 25.7913
L334.014 25.6888
L334.119 25.6691
L335.295 25.5597
L335.4 25.5366
L336.36 25.4294
L336.466 25.4032
L337.743 25.2941
L337.849 25.2776
L339.127 25.1695
L339.233 25.1507
L340.617 25.0454
L340.721 25.0317
L342.317 24.9262
L342.424 24.9062
L343.588 24.7951
L343.697 24.7699
L344.764 24.6688
L344.874 24.6465
L346.052 24.536
L346.162 24.5185
L347.657 24.4118
L347.761 24.3971
L350.211 24.2871
L350.319 24.2728
L351.917 24.1658
L352.027 24.1417
L353.095 24.038
L353.2 24.0163
L354.593 23.9085
L354.694 23.8912
L355.979 23.7878
L356.087 23.7611
L357.146 23.657
L357.253 23.6334
L358.425 23.5231
L358.531 23.5063
L359.813 23.4014
L359.917 23.3798
L361.198 23.2712
L361.306 23.2511
L362.486 23.1494
L362.594 23.1284
L363.887 23.0264
L363.993 23.0032
L364.949 22.8996
L365.058 22.8734
L365.921 22.7736
L366.026 22.7446
L366.879 22.6392
L366.985 22.6103
L367.843 22.511
L367.95 22.4797
L368.702 22.3775
L368.807 22.3458
L369.66 22.2456
L369.765 22.2199
L370.723 22.1166
L370.829 22.0921
L371.784 21.9912
L371.891 21.9688
L372.857 21.8681
L372.961 21.8451
L374.034 21.7348
L374.144 21.7094
L375.108 21.601
L375.213 21.575
L376.18 21.4738
L376.285 21.4493
L377.244 21.3436
L377.348 21.3197
L378.527 21.2112
L378.633 21.1898
L379.809 21.084
L379.915 21.0631
L381.1 20.9594
L381.206 20.9394
L382.599 20.8291
L382.706 20.8084
L384 20.6984
L384.105 20.6769
L385.395 20.5684
L385.503 20.5512
L386.904 20.446
L387.01 20.4273
L388.177 20.3235
L388.285 20.3027
L389.569 20.193
L389.679 20.174
L391.082 20.0679
L391.19 20.0521
L393.116 19.9468
L393.222 19.9332
L394.735 19.8282
L394.842 19.8094
L396.13 19.6997
L396.239 19.6749
L397.422 19.566
L397.528 19.5444
L398.807 19.4351
L398.916 19.4172
L400.429 19.3129
L400.538 19.2956
L402.032 19.187
L402.138 19.173
L403.75 19.0691
L403.86 19.0537
L405.473 18.9461
L405.58 18.9294
L406.874 18.8267
L406.983 18.8082
L408.495 18.7049
L408.6 18.6872
L409.995 18.5805
L410.104 18.5653
L411.512 18.4547
L411.616 18.4312
L412.804 18.3275
L412.913 18.3085
L414.099 18.2035
L414.203 18.1862
L415.61 18.0806
L415.71 18.0636
L417.649 17.9547
L417.757 17.9493
L424.119 17.8383
L424.224 17.836
L444.878 17.7268
L444.987 17.7169
L449.95 17.606
L450.059 17.6044
L459.163 17.7141
L459.272 17.7199
L482.083 17.8291
L482.191 17.835
L496.217 17.7283
L496.328 17.7151
L498.184 17.6077
L498.294 17.5943
L500.681 17.484
L500.791 17.4753
L503.194 17.37
L503.302 17.357
L505.263 17.2465
L505.371 17.2329
L507.446 17.1224
L507.552 17.1114
L510.065 17.0033
L510.065 16.9977
L512.359 16.8881
L512.468 16.8781
L514.536 16.7729
L514.645 16.7589
L516.396 16.6533
L516.505 16.6382
L518.465 16.528
L518.57 16.5165
L520.751 16.4092
L520.86 16.3973
L523.264 16.2909
L523.264 16.2853
L525.556 16.1766
L525.556 16.1702
L528.067 16.0614
L528.173 16.0508
L530.141 15.9401
L530.251 15.9304
L532.651 15.8199
L532.759 15.8093
L534.949 15.7011
L535.059 15.6921
L537.789 15.5862
L537.898 15.5753
L539.663 15.4726
L539.663 15.4639
L541.089 15.3544
L541.199 15.3352
L542.623 15.2294
L542.623 15.2193
L543.935 15.1117
L544.043 15.0936
L545.136 15.0177
L545.136 15.0092" style="fill:none;stroke:#ff0000;stroke-width:0.5;"/>
   </g>
   <g id="matplotlib.axis_1">
    <g id="xtick_1">
     <g id="line2d_2">
      <defs>
       <path d="
M0 0
L0 -4" id="mc31b853641"/>
      </defs>
      <g>
       <use style="stroke:#000000;stroke-linecap:butt;stroke-width:0.5;" x="29.2984375" xlink:href="#mc31b853641" y="342.346172482"/>
      </g>
     </g>
    </g>
    <g id="xtick_2">
     <g id="line2d_3">
      <defs>
       <path d="
M0 0
L0 -4" id="mc31b853641"/>
      </defs>
      <g>
       <use style="stroke:#000000;stroke-linecap:butt;stroke-width:0.5;" x="132.47178737" xlink:href="#mc31b853641" y="342.346172482"/>
      </g>
     </g>
     <g id="text_1">
      <!-- 2e7 -->
      <defs>
       <path d="
M19.1875 8.29688
L53.6094 8.29688
L53.6094 0
L7.32812 0
L7.32812 8.29688
Q12.9375 14.1094 22.625 23.8906
Q32.3281 33.6875 34.8125 36.5312
Q39.5469 41.8438 41.4219 45.5312
Q43.3125 49.2188 43.3125 52.7812
Q43.3125 58.5938 39.2344 62.25
Q35.1562 65.9219 28.6094 65.9219
Q23.9688 65.9219 18.8125 64.3125
Q13.6719 62.7031 7.8125 59.4219
L7.8125 69.3906
Q13.7656 71.7812 18.9375 73
Q24.125 74.2188 28.4219 74.2188
Q39.75 74.2188 46.4844 68.5469
Q53.2188 62.8906 53.2188 53.4219
Q53.2188 48.9219 51.5312 44.8906
Q49.8594 40.875 45.4062 35.4062
Q44.1875 33.9844 37.6406 27.2188
Q31.1094 20.4531 19.1875 8.29688" id="BitstreamVeraSans-Roman-32"/>
       <path d="
M56.2031 29.5938
L56.2031 25.2031
L14.8906 25.2031
Q15.4844 15.9219 20.4844 11.0625
Q25.4844 6.20312 34.4219 6.20312
Q39.5938 6.20312 44.4531 7.46875
Q49.3125 8.73438 54.1094 11.2812
L54.1094 2.78125
Q49.2656 0.734375 44.1875 -0.34375
Q39.1094 -1.42188 33.8906 -1.42188
Q20.7969 -1.42188 13.1562 6.1875
Q5.51562 13.8125 5.51562 26.8125
Q5.51562 40.2344 12.7656 48.1094
Q20.0156 56 32.3281 56
Q43.3594 56 49.7812 48.8906
Q56.2031 41.7969 56.2031 29.5938
M47.2188 32.2344
Q47.125 39.5938 43.0938 43.9844
Q39.0625 48.3906 32.4219 48.3906
Q24.9062 48.3906 20.3906 44.1406
Q15.875 39.8906 15.1875 32.1719
z
" id="BitstreamVeraSans-Roman-65"/>
       <path d="
M8.20312 72.9062
L55.0781 72.9062
L55.0781 68.7031
L28.6094 0
L18.3125 0
L43.2188 64.5938
L8.20312 64.5938
z
" id="BitstreamVeraSans-Roman-37"/>
      </defs>
      <g transform="translate(123.82647487 353.768047482)scale(0.1 -0.1)">
       <use xlink:href="#BitstreamVeraSans-Roman-32"/>
       <use x="63.623046875" xlink:href="#BitstreamVeraSans-Roman-65"/>
       <use x="125.146484375" xlink:href="#BitstreamVeraSans-Roman-37"/>
      </g>
     </g>
    </g>
    <g id="xtick_3">
     <g id="line2d_4">
      <defs>
       <path d="
M0 0
L0 -4" id="mc31b853641"/>
      </defs>
      <g>
       <use style="stroke:#000000;stroke-linecap:butt;stroke-width:0.5;" x="235.64513724" xlink:href="#mc31b853641" y="342.346172482"/>
      </g>
     </g>
     <g id="text_2">
      <!-- 4e7 -->
      <defs>
       <path d="
M37.7969 64.3125
L12.8906 25.3906
L37.7969 25.3906
z

M35.2031 72.9062
L47.6094 72.9062
L47.6094 25.3906
L58.0156 25.3906
L58.0156 17.1875
L47.6094 17.1875
L47.6094 0
L37.7969 0
L37.7969 17.1875
L4.89062 17.1875
L4.89062 26.7031
z
" id="BitstreamVeraSans-Roman-34"/>
      </defs>
      <g transform="translate(226.87794974 353.636797482)scale(0.1 -0.1)">
       <use xlink:href="#BitstreamVeraSans-Roman-34"/>
       <use x="63.623046875" xlink:href="#BitstreamVeraSans-Roman-65"/>
       <use x="125.146484375" xlink:href="#BitstreamVeraSans-Roman-37"/>
      </g>
     </g>
    </g>
    <g id="xtick_4">
     <g id="line2d_5">
      <defs>
       <path d="
M0 0
L0 -4" id="mc31b853641"/>
      </defs>
      <g>
       <use style="stroke:#000000;stroke-linecap:butt;stroke-width:0.5;" x="338.81848711" xlink:href="#mc31b853641" y="342.346172482"/>
      </g>
     </g>
     <g id="text_3">
      <!-- 6e7 -->
      <defs>
       <path d="
M33.0156 40.375
Q26.375 40.375 22.4844 35.8281
Q18.6094 31.2969 18.6094 23.3906
Q18.6094 15.5312 22.4844 10.9531
Q26.375 6.39062 33.0156 6.39062
Q39.6562 6.39062 43.5312 10.9531
Q47.4062 15.5312 47.4062 23.3906
Q47.4062 31.2969 43.5312 35.8281
Q39.6562 40.375 33.0156 40.375
M52.5938 71.2969
L52.5938 62.3125
Q48.875 64.0625 45.0938 64.9844
Q41.3125 65.9219 37.5938 65.9219
Q27.8281 65.9219 22.6719 59.3281
Q17.5312 52.7344 16.7969 39.4062
Q19.6719 43.6562 24.0156 45.9219
Q28.375 48.1875 33.5938 48.1875
Q44.5781 48.1875 50.9531 41.5156
Q57.3281 34.8594 57.3281 23.3906
Q57.3281 12.1562 50.6875 5.35938
Q44.0469 -1.42188 33.0156 -1.42188
Q20.3594 -1.42188 13.6719 8.26562
Q6.98438 17.9688 6.98438 36.375
Q6.98438 53.6562 15.1875 63.9375
Q23.3906 74.2188 37.2031 74.2188
Q40.9219 74.2188 44.7031 73.4844
Q48.4844 72.75 52.5938 71.2969" id="BitstreamVeraSans-Roman-36"/>
      </defs>
      <g transform="translate(330.15598711 353.768047482)scale(0.1 -0.1)">
       <use xlink:href="#BitstreamVeraSans-Roman-36"/>
       <use x="63.623046875" xlink:href="#BitstreamVeraSans-Roman-65"/>
       <use x="125.146484375" xlink:href="#BitstreamVeraSans-Roman-37"/>
      </g>
     </g>
    </g>
    <g id="xtick_5">
     <g id="line2d_6">
      <defs>
       <path d="
M0 0
L0 -4" id="mc31b853641"/>
      </defs>
      <g>
       <use style="stroke:#000000;stroke-linecap:butt;stroke-width:0.5;" x="441.99183698" xlink:href="#mc31b853641" y="342.346172482"/>
      </g>
     </g>
     <g id="text_4">
      <!-- 8e7 -->
      <defs>
       <path d="
M31.7812 34.625
Q24.75 34.625 20.7188 30.8594
Q16.7031 27.0938 16.7031 20.5156
Q16.7031 13.9219 20.7188 10.1562
Q24.75 6.39062 31.7812 6.39062
Q38.8125 6.39062 42.8594 10.1719
Q46.9219 13.9688 46.9219 20.5156
Q46.9219 27.0938 42.8906 30.8594
Q38.875 34.625 31.7812 34.625
M21.9219 38.8125
Q15.5781 40.375 12.0312 44.7188
Q8.5 49.0781 8.5 55.3281
Q8.5 64.0625 14.7188 69.1406
Q20.9531 74.2188 31.7812 74.2188
Q42.6719 74.2188 48.875 69.1406
Q55.0781 64.0625 55.0781 55.3281
Q55.0781 49.0781 51.5312 44.7188
Q48 40.375 41.7031 38.8125
Q48.8281 37.1562 52.7969 32.3125
Q56.7812 27.4844 56.7812 20.5156
Q56.7812 9.90625 50.3125 4.23438
Q43.8438 -1.42188 31.7812 -1.42188
Q19.7344 -1.42188 13.25 4.23438
Q6.78125 9.90625 6.78125 20.5156
Q6.78125 27.4844 10.7812 32.3125
Q14.7969 37.1562 21.9219 38.8125
M18.3125 54.3906
Q18.3125 48.7344 21.8438 45.5625
Q25.3906 42.3906 31.7812 42.3906
Q38.1406 42.3906 41.7188 45.5625
Q45.3125 48.7344 45.3125 54.3906
Q45.3125 60.0625 41.7188 63.2344
Q38.1406 66.4062 31.7812 66.4062
Q25.3906 66.4062 21.8438 63.2344
Q18.3125 60.0625 18.3125 54.3906" id="BitstreamVeraSans-Roman-38"/>
      </defs>
      <g transform="translate(433.31918073 353.768047482)scale(0.1 -0.1)">
       <use xlink:href="#BitstreamVeraSans-Roman-38"/>
       <use x="63.623046875" xlink:href="#BitstreamVeraSans-Roman-65"/>
       <use x="125.146484375" xlink:href="#BitstreamVeraSans-Roman-37"/>
      </g>
     </g>
    </g>
    <g id="xtick_6">
     <g id="line2d_7">
      <defs>
       <path d="
M0 0
L0 -4" id="mc31b853641"/>
      </defs>
      <g>
       <use style="stroke:#000000;stroke-linecap:butt;stroke-width:0.5;" x="545.16518685" xlink:href="#mc31b853641" y="342.346172482"/>
      </g>
     </g>
     <g id="text_5">
      <!-- 1e8 -->
      <defs>
       <path d="
M12.4062 8.29688
L28.5156 8.29688
L28.5156 63.9219
L10.9844 60.4062
L10.9844 69.3906
L28.4219 72.9062
L38.2812 72.9062
L38.2812 8.29688
L54.3906 8.29688
L54.3906 0
L12.4062 0
z
" id="BitstreamVeraSans-Roman-31"/>
      </defs>
      <g transform="translate(536.6175306 353.768047482)scale(0.1 -0.1)">
       <use xlink:href="#BitstreamVeraSans-Roman-31"/>
       <use x="63.623046875" xlink:href="#BitstreamVeraSans-Roman-65"/>
       <use x="125.146484375" xlink:href="#BitstreamVeraSans-Roman-38"/>
      </g>
     </g>
    </g>
    <g id="xtick_7">
     <g id="line2d_8">
      <defs>
       <path d="
M0 0
L0 -2" id="m98313f8db5"/>
      </defs>
      <g>
       <use style="stroke:#000000;stroke-linecap:butt;stroke-width:0.5;" x="55.0917749675" xlink:href="#m98313f8db5" y="342.346172482"/>
      </g>
     </g>
    </g>
    <g id="xtick_8">
     <g id="line2d_9">
      <defs>
       <path d="
M0 0
L0 -2" id="m98313f8db5"/>
      </defs>
      <g>
       <use style="stroke:#000000;stroke-linecap:butt;stroke-width:0.5;" x="80.885112435" xlink:href="#m98313f8db5" y="342.346172482"/>
      </g>
     </g>
    </g>
    <g id="xtick_9">
     <g id="line2d_10">
      <defs>
       <path d="
M0 0
L0 -2" id="m98313f8db5"/>
      </defs>
      <g>
       <use style="stroke:#000000;stroke-linecap:butt;stroke-width:0.5;" x="106.678449902" xlink:href="#m98313f8db5" y="342.346172482"/>
      </g>
     </g>
    </g>
    <g id="xtick_10">
     <g id="line2d_11">
      <defs>
       <path d="
M0 0
L0 -2" id="m98313f8db5"/>
      </defs>
      <g>
       <use style="stroke:#000000;stroke-linecap:butt;stroke-width:0.5;" x="158.265124837" xlink:href="#m98313f8db5" y="342.346172482"/>
      </g>
     </g>
    </g>
    <g id="xtick_11">
     <g id="line2d_12">
      <defs>
       <path d="
M0 0
L0 -2" id="m98313f8db5"/>
      </defs>
      <g>
       <use style="stroke:#000000;stroke-linecap:butt;stroke-width:0.5;" x="184.058462305" xlink:href="#m98313f8db5" y="342.346172482"/>
      </g>
     </g>
    </g>
    <g id="xtick_12">
     <g id="line2d_13">
      <defs>
       <path d="
M0 0
L0 -2" id="m98313f8db5"/>
      </defs>
      <g>
       <use style="stroke:#000000;stroke-linecap:butt;stroke-width:0.5;" x="209.851799772" xlink:href="#m98313f8db5" y="342.346172482"/>
      </g>
     </g>
    </g>
    <g id="xtick_13">
     <g id="line2d_14">
      <defs>
       <path d="
M0 0
L0 -2" id="m98313f8db5"/>
      </defs>
      <g>
       <use style="stroke:#000000;stroke-linecap:butt;stroke-width:0.5;" x="261.438474707" xlink:href="#m98313f8db5" y="342.346172482"/>
      </g>
     </g>
    </g>
    <g id="xtick_14">
     <g id="line2d_15">
      <defs>
       <path d="
M0 0
L0 -2" id="m98313f8db5"/>
      </defs>
      <g>
       <use style="stroke:#000000;stroke-linecap:butt;stroke-width:0.5;" x="287.231812175" xlink:href="#m98313f8db5" y="342.346172482"/>
      </g>
     </g>
    </g>
    <g id="xtick_15">
     <g id="line2d_16">
      <defs>
       <path d="
M0 0
L0 -2" id="m98313f8db5"/>
      </defs>
      <g>
       <use style="stroke:#000000;stroke-linecap:butt;stroke-width:0.5;" x="313.025149642" xlink:href="#m98313f8db5" y="342.346172482"/>
      </g>
     </g>
    </g>
    <g id="xtick_16">
     <g id="line2d_17">
      <defs>
       <path d="
M0 0
L0 -2" id="m98313f8db5"/>
      </defs>
      <g>
       <use style="stroke:#000000;stroke-linecap:butt;stroke-width:0.5;" x="364.611824577" xlink:href="#m98313f8db5" y="342.346172482"/>
      </g>
     </g>
    </g>
    <g id="xtick_17">
     <g id="line2d_18">
      <defs>
       <path d="
M0 0
L0 -2" id="m98313f8db5"/>
      </defs>
      <g>
       <use style="stroke:#000000;stroke-linecap:butt;stroke-width:0.5;" x="390.405162045" xlink:href="#m98313f8db5" y="342.346172482"/>
      </g>
     </g>
    </g>
    <g id="xtick_18">
     <g id="line2d_19">
      <defs>
       <path d="
M0 0
L0 -2" id="m98313f8db5"/>
      </defs>
      <g>
       <use style="stroke:#000000;stroke-linecap:butt;stroke-width:0.5;" x="416.198499512" xlink:href="#m98313f8db5" y="342.346172482"/>
      </g>
     </g>
    </g>
    <g id="xtick_19">
     <g id="line2d_20">
      <defs>
       <path d="
M0 0
L0 -2" id="m98313f8db5"/>
      </defs>
      <g>
       <use style="stroke:#000000;stroke-linecap:butt;stroke-width:0.5;" x="467.785174447" xlink:href="#m98313f8db5" y="342.346172482"/>
      </g>
     </g>
    </g>
    <g id="xtick_20">
     <g id="line2d_21">
      <defs>
       <path d="
M0 0
L0 -2" id="m98313f8db5"/>
      </defs>
      <g>
       <use style="stroke:#000000;stroke-linecap:butt;stroke-width:0.5;" x="493.578511915" xlink:href="#m98313f8db5" y="342.346172482"/>
      </g>
     </g>
    </g>
    <g id="xtick_21">
     <g id="line2d_22">
      <defs>
       <path d="
M0 0
L0 -2" id="m98313f8db5"/>
      </defs>
      <g>
       <use style="stroke:#000000;stroke-linecap:butt;stroke-width:0.5;" x="519.371849382" xlink:href="#m98313f8db5" y="342.346172482"/>
      </g>
     </g>
    </g>
   </g>
   <g id="matplotlib.axis_2">
    <g id="ytick_1">
     <g id="line2d_23">
      <defs>
       <path d="
M0 0
L4 0" id="ma6dc508fba"/>
      </defs>
      <g>
       <use style="stroke:#000000;stroke-linecap:butt;stroke-width:0.5;" x="29.2984375" xlink:href="#ma6dc508fba" y="404.555211509"/>
      </g>
     </g>
     <g id="text_6">
      <!-- -0.1 -->
      <defs>
       <path d="
M31.7812 66.4062
Q24.1719 66.4062 20.3281 58.9062
Q16.5 51.4219 16.5 36.375
Q16.5 21.3906 20.3281 13.8906
Q24.1719 6.39062 31.7812 6.39062
Q39.4531 6.39062 43.2812 13.8906
Q47.125 21.3906 47.125 36.375
Q47.125 51.4219 43.2812 58.9062
Q39.4531 66.4062 31.7812 66.4062
M31.7812 74.2188
Q44.0469 74.2188 50.5156 64.5156
Q56.9844 54.8281 56.9844 36.375
Q56.9844 17.9688 50.5156 8.26562
Q44.0469 -1.42188 31.7812 -1.42188
Q19.5312 -1.42188 13.0625 8.26562
Q6.59375 17.9688 6.59375 36.375
Q6.59375 54.8281 13.0625 64.5156
Q19.5312 74.2188 31.7812 74.2188" id="BitstreamVeraSans-Roman-30"/>
       <path d="
M10.6875 12.4062
L21 12.4062
L21 0
L10.6875 0
z
" id="BitstreamVeraSans-Roman-2e"/>
       <path d="
M4.89062 31.3906
L31.2031 31.3906
L31.2031 23.3906
L4.89062 23.3906
z
" id="BitstreamVeraSans-Roman-2d"/>
      </defs>
      <g transform="translate(7.2 408.195055259)scale(0.1 -0.1)">
       <use xlink:href="#BitstreamVeraSans-Roman-2d"/>
       <use x="36.083984375" xlink:href="#BitstreamVeraSans-Roman-30"/>
       <use x="99.70703125" xlink:href="#BitstreamVeraSans-Roman-2e"/>
       <use x="131.494140625" xlink:href="#BitstreamVeraSans-Roman-31"/>
      </g>
     </g>
    </g>
    <g id="ytick_2">
     <g id="line2d_24">
      <defs>
       <path d="
M0 0
L4 0" id="ma6dc508fba"/>
      </defs>
      <g>
       <use style="stroke:#000000;stroke-linecap:butt;stroke-width:0.5;" x="29.2984375" xlink:href="#ma6dc508fba" y="342.346172482"/>
      </g>
     </g>
    </g>
    <g id="ytick_3">
     <g id="line2d_25">
      <defs>
       <path d="
M0 0
L4 0" id="ma6dc508fba"/>
      </defs>
      <g>
       <use style="stroke:#000000;stroke-linecap:butt;stroke-width:0.5;" x="29.2984375" xlink:href="#ma6dc508fba" y="280.137133454"/>
      </g>
     </g>
     <g id="text_7">
      <!-- 0.1 -->
      <g transform="translate(10.978125 283.776977204)scale(0.1 -0.1)">
       <use xlink:href="#BitstreamVeraSans-Roman-30"/>
       <use x="63.623046875" xlink:href="#BitstreamVeraSans-Roman-2e"/>
       <use x="95.41015625" xlink:href="#BitstreamVeraSans-Roman-31"/>
      </g>
     </g>
    </g>
    <g id="ytick_4">
     <g id="line2d_26">
      <defs>
       <path d="
M0 0
L4 0" id="ma6dc508fba"/>
      </defs>
      <g>
       <use style="stroke:#000000;stroke-linecap:butt;stroke-width:0.5;" x="29.2984375" xlink:href="#ma6dc508fba" y="217.928094427"/>
      </g>
     </g>
     <g id="text_8">
      <!-- 0.2 -->
      <g transform="translate(11.05625 221.567938177)scale(0.1 -0.1)">
       <use xlink:href="#BitstreamVeraSans-Roman-30"/>
       <use x="63.623046875" xlink:href="#BitstreamVeraSans-Roman-2e"/>
       <use x="95.41015625" xlink:href="#BitstreamVeraSans-Roman-32"/>
      </g>
     </g>
    </g>
    <g id="ytick_5">
     <g id="line2d_27">
      <defs>
       <path d="
M0 0
L4 0" id="ma6dc508fba"/>
      </defs>
      <g>
       <use style="stroke:#000000;stroke-linecap:butt;stroke-width:0.5;" x="29.2984375" xlink:href="#ma6dc508fba" y="155.719055399"/>
      </g>
     </g>
     <g id="text_9">
      <!-- 0.3 -->
      <defs>
       <path d="
M40.5781 39.3125
Q47.6562 37.7969 51.625 33
Q55.6094 28.2188 55.6094 21.1875
Q55.6094 10.4062 48.1875 4.48438
Q40.7656 -1.42188 27.0938 -1.42188
Q22.5156 -1.42188 17.6562 -0.515625
Q12.7969 0.390625 7.625 2.20312
L7.625 11.7188
Q11.7188 9.32812 16.5938 8.10938
Q21.4844 6.89062 26.8125 6.89062
Q36.0781 6.89062 40.9375 10.5469
Q45.7969 14.2031 45.7969 21.1875
Q45.7969 27.6406 41.2812 31.2656
Q36.7656 34.9062 28.7188 34.9062
L20.2188 34.9062
L20.2188 43.0156
L29.1094 43.0156
Q36.375 43.0156 40.2344 45.9219
Q44.0938 48.8281 44.0938 54.2969
Q44.0938 59.9062 40.1094 62.9062
Q36.1406 65.9219 28.7188 65.9219
Q24.6562 65.9219 20.0156 65.0312
Q15.375 64.1562 9.8125 62.3125
L9.8125 71.0938
Q15.4375 72.6562 20.3438 73.4375
Q25.25 74.2188 29.5938 74.2188
Q40.8281 74.2188 47.3594 69.1094
Q53.9062 64.0156 53.9062 55.3281
Q53.9062 49.2656 50.4375 45.0938
Q46.9688 40.9219 40.5781 39.3125" id="BitstreamVeraSans-Roman-33"/>
      </defs>
      <g transform="translate(10.85625 159.358899149)scale(0.1 -0.1)">
       <use xlink:href="#BitstreamVeraSans-Roman-30"/>
       <use x="63.623046875" xlink:href="#BitstreamVeraSans-Roman-2e"/>
       <use x="95.41015625" xlink:href="#BitstreamVeraSans-Roman-33"/>
      </g>
     </g>
    </g>
    <g id="ytick_6">
     <g id="line2d_28">
      <defs>
       <path d="
M0 0
L4 0" id="ma6dc508fba"/>
      </defs>
      <g>
       <use style="stroke:#000000;stroke-linecap:butt;stroke-width:0.5;" x="29.2984375" xlink:href="#ma6dc508fba" y="93.5100163714"/>
      </g>
     </g>
     <g id="text_10">
      <!-- 0.4 -->
      <g transform="translate(10.615625 97.1498601214)scale(0.1 -0.1)">
       <use xlink:href="#BitstreamVeraSans-Roman-30"/>
       <use x="63.623046875" xlink:href="#BitstreamVeraSans-Roman-2e"/>
       <use x="95.41015625" xlink:href="#BitstreamVeraSans-Roman-34"/>
      </g>
     </g>
    </g>
    <g id="ytick_7">
     <g id="line2d_29">
      <defs>
       <path d="
M0 0
L4 0" id="ma6dc508fba"/>
      </defs>
      <g>
       <use style="stroke:#000000;stroke-linecap:butt;stroke-width:0.5;" x="29.2984375" xlink:href="#ma6dc508fba" y="31.3009773438"/>
      </g>
     </g>
     <g id="text_11">
      <!-- 0.5 -->
      <defs>
       <path d="
M10.7969 72.9062
L49.5156 72.9062
L49.5156 64.5938
L19.8281 64.5938
L19.8281 46.7344
Q21.9688 47.4688 24.1094 47.8281
Q26.2656 48.1875 28.4219 48.1875
Q40.625 48.1875 47.75 41.5
Q54.8906 34.8125 54.8906 23.3906
Q54.8906 11.625 47.5625 5.09375
Q40.2344 -1.42188 26.9062 -1.42188
Q22.3125 -1.42188 17.5469 -0.640625
Q12.7969 0.140625 7.71875 1.70312
L7.71875 11.625
Q12.1094 9.23438 16.7969 8.0625
Q21.4844 6.89062 26.7031 6.89062
Q35.1562 6.89062 40.0781 11.3281
Q45.0156 15.7656 45.0156 23.3906
Q45.0156 31 40.0781 35.4375
Q35.1562 39.8906 26.7031 39.8906
Q22.75 39.8906 18.8125 39.0156
Q14.8906 38.1406 10.7969 36.2812
z
" id="BitstreamVeraSans-Roman-35"/>
      </defs>
      <g transform="translate(10.928125 34.9408210938)scale(0.1 -0.1)">
       <use xlink:href="#BitstreamVeraSans-Roman-30"/>
       <use x="63.623046875" xlink:href="#BitstreamVeraSans-Roman-2e"/>
       <use x="95.41015625" xlink:href="#BitstreamVeraSans-Roman-35"/>
      </g>
     </g>
    </g>
    <g id="ytick_8">
     <g id="line2d_30">
      <defs>
       <path d="
M0 0
L2 0" id="m40e1d815e2"/>
      </defs>
      <g>
       <use style="stroke:#000000;stroke-linecap:butt;stroke-width:0.5;" x="29.2984375" xlink:href="#m40e1d815e2" y="392.113403704"/>
      </g>
     </g>
    </g>
    <g id="ytick_9">
     <g id="line2d_31">
      <defs>
       <path d="
M0 0
L2 0" id="m40e1d815e2"/>
      </defs>
      <g>
       <use style="stroke:#000000;stroke-linecap:butt;stroke-width:0.5;" x="29.2984375" xlink:href="#m40e1d815e2" y="379.671595898"/>
      </g>
     </g>
    </g>
    <g id="ytick_10">
     <g id="line2d_32">
      <defs>
       <path d="
M0 0
L2 0" id="m40e1d815e2"/>
      </defs>
      <g>
       <use style="stroke:#000000;stroke-linecap:butt;stroke-width:0.5;" x="29.2984375" xlink:href="#m40e1d815e2" y="367.229788093"/>
      </g>
     </g>
    </g>
    <g id="ytick_11">
     <g id="line2d_33">
      <defs>
       <path d="
M0 0
L2 0" id="m40e1d815e2"/>
      </defs>
      <g>
       <use style="stroke:#000000;stroke-linecap:butt;stroke-width:0.5;" x="29.2984375" xlink:href="#m40e1d815e2" y="354.787980287"/>
      </g>
     </g>
    </g>
    <g id="ytick_12">
     <g id="line2d_34">
      <defs>
       <path d="
M0 0
L2 0" id="m40e1d815e2"/>
      </defs>
      <g>
       <use style="stroke:#000000;stroke-linecap:butt;stroke-width:0.5;" x="29.2984375" xlink:href="#m40e1d815e2" y="329.904364676"/>
      </g>
     </g>
    </g>
    <g id="ytick_13">
     <g id="line2d_35">
      <defs>
       <path d="
M0 0
L2 0" id="m40e1d815e2"/>
      </defs>
      <g>
       <use style="stroke:#000000;stroke-linecap:butt;stroke-width:0.5;" x="29.2984375" xlink:href="#m40e1d815e2" y="317.462556871"/>
      </g>
     </g>
    </g>
    <g id="ytick_14">
     <g id="line2d_36">
      <defs>
       <path d="
M0 0
L2 0" id="m40e1d815e2"/>
      </defs>
      <g>
       <use style="stroke:#000000;stroke-linecap:butt;stroke-width:0.5;" x="29.2984375" xlink:href="#m40e1d815e2" y="305.020749065"/>
      </g>
     </g>
    </g>
    <g id="ytick_15">
     <g id="line2d_37">
      <defs>
       <path d="
M0 0
L2 0" id="m40e1d815e2"/>
      </defs>
      <g>
       <use style="stroke:#000000;stroke-linecap:butt;stroke-width:0.5;" x="29.2984375" xlink:href="#m40e1d815e2" y="292.57894126"/>
      </g>
     </g>
    </g>
    <g id="ytick_16">
     <g id="line2d_38">
      <defs>
       <path d="
M0 0
L2 0" id="m40e1d815e2"/>
      </defs>
      <g>
       <use style="stroke:#000000;stroke-linecap:butt;stroke-width:0.5;" x="29.2984375" xlink:href="#m40e1d815e2" y="267.695325649"/>
      </g>
     </g>
    </g>
    <g id="ytick_17">
     <g id="line2d_39">
      <defs>
       <path d="
M0 0
L2 0" id="m40e1d815e2"/>
      </defs>
      <g>
       <use style="stroke:#000000;stroke-linecap:butt;stroke-width:0.5;" x="29.2984375" xlink:href="#m40e1d815e2" y="255.253517843"/>
      </g>
     </g>
    </g>
    <g id="ytick_18">
     <g id="line2d_40">
      <defs>
       <path d="
M0 0
L2 0" id="m40e1d815e2"/>
      </defs>
      <g>
       <use style="stroke:#000000;stroke-linecap:butt;stroke-width:0.5;" x="29.2984375" xlink:href="#m40e1d815e2" y="242.811710038"/>
      </g>
     </g>
    </g>
    <g id="ytick_19">
     <g id="line2d_41">
      <defs>
       <path d="
M0 0
L2 0" id="m40e1d815e2"/>
      </defs>
      <g>
       <use style="stroke:#000000;stroke-linecap:butt;stroke-width:0.5;" x="29.2984375" xlink:href="#m40e1d815e2" y="230.369902232"/>
      </g>
     </g>
    </g>
    <g id="ytick_20">
     <g id="line2d_42">
      <defs>
       <path d="
M0 0
L2 0" id="m40e1d815e2"/>
      </defs>
      <g>
       <use style="stroke:#000000;stroke-linecap:butt;stroke-width:0.5;" x="29.2984375" xlink:href="#m40e1d815e2" y="205.486286621"/>
      </g>
     </g>
    </g>
    <g id="ytick_21">
     <g id="line2d_43">
      <defs>
       <path d="
M0 0
L2 0" id="m40e1d815e2"/>
      </defs>
      <g>
       <use style="stroke:#000000;stroke-linecap:butt;stroke-width:0.5;" x="29.2984375" xlink:href="#m40e1d815e2" y="193.044478816"/>
      </g>
     </g>
    </g>
    <g id="ytick_22">
     <g id="line2d_44">
      <defs>
       <path d="
M0 0
L2 0" id="m40e1d815e2"/>
      </defs>
      <g>
       <use style="stroke:#000000;stroke-linecap:butt;stroke-width:0.5;" x="29.2984375" xlink:href="#m40e1d815e2" y="180.60267101"/>
      </g>
     </g>
    </g>
    <g id="ytick_23">
     <g id="line2d_45">
      <defs>
       <path d="
M0 0
L2 0" id="m40e1d815e2"/>
      </defs>
      <g>
       <use style="stroke:#000000;stroke-linecap:butt;stroke-width:0.5;" x="29.2984375" xlink:href="#m40e1d815e2" y="168.160863205"/>
      </g>
     </g>
    </g>
    <g id="ytick_24">
     <g id="line2d_46">
      <defs>
       <path d="
M0 0
L2 0" id="m40e1d815e2"/>
      </defs>
      <g>
       <use style="stroke:#000000;stroke-linecap:butt;stroke-width:0.5;" x="29.2984375" xlink:href="#m40e1d815e2" y="143.277247593"/>
      </g>
     </g>
    </g>
    <g id="ytick_25">
     <g id="line2d_47">
      <defs>
       <path d="
M0 0
L2 0" id="m40e1d815e2"/>
      </defs>
      <g>
       <use style="stroke:#000000;stroke-linecap:butt;stroke-width:0.5;" x="29.2984375" xlink:href="#m40e1d815e2" y="130.835439788"/>
      </g>
     </g>
    </g>
    <g id="ytick_26">
     <g id="line2d_48">
      <defs>
       <path d="
M0 0
L2 0" id="m40e1d815e2"/>
      </defs>
      <g>
       <use style="stroke:#000000;stroke-linecap:butt;stroke-width:0.5;" x="29.2984375" xlink:href="#m40e1d815e2" y="118.393631982"/>
      </g>
     </g>
    </g>
    <g id="ytick_27">
     <g id="line2d_49">
      <defs>
       <path d="
M0 0
L2 0" id="m40e1d815e2"/>
      </defs>
      <g>
       <use style="stroke:#000000;stroke-linecap:butt;stroke-width:0.5;" x="29.2984375" xlink:href="#m40e1d815e2" y="105.951824177"/>
      </g>
     </g>
    </g>
    <g id="ytick_28">
     <g id="line2d_50">
      <defs>
       <path d="
M0 0
L2 0" id="m40e1d815e2"/>
      </defs>
      <g>
       <use style="stroke:#000000;stroke-linecap:butt;stroke-width:0.5;" x="29.2984375" xlink:href="#m40e1d815e2" y="81.0682085658"/>
      </g>
     </g>
    </g>
    <g id="ytick_29">
     <g id="line2d_51">
      <defs>
       <path d="
M0 0
L2 0" id="m40e1d815e2"/>
      </defs>
      <g>
       <use style="stroke:#000000;stroke-linecap:butt;stroke-width:0.5;" x="29.2984375" xlink:href="#m40e1d815e2" y="68.6264007603"/>
      </g>
     </g>
    </g>
    <g id="ytick_30">
     <g id="line2d_52">
      <defs>
       <path d="
M0 0
L2 0" id="m40e1d815e2"/>
      </defs>
      <g>
       <use style="stroke:#000000;stroke-linecap:butt;stroke-width:0.5;" x="29.2984375" xlink:href="#m40e1d815e2" y="56.1845929548"/>
      </g>
     </g>
    </g>
    <g id="ytick_31">
     <g id="line2d_53">
      <defs>
       <path d="
M0 0
L2 0" id="m40e1d815e2"/>
      </defs>
      <g>
       <use style="stroke:#000000;stroke-linecap:butt;stroke-width:0.5;" x="29.2984375" xlink:href="#m40e1d815e2" y="43.7427851493"/>
      </g>
     </g>
    </g>
    <g id="ytick_32">
     <g id="line2d_54">
      <defs>
       <path d="
M0 0
L2 0" id="m40e1d815e2"/>
      </defs>
      <g>
       <use style="stroke:#000000;stroke-linecap:butt;stroke-width:0.5;" x="29.2984375" xlink:href="#m40e1d815e2" y="31.3009773438"/>
      </g>
     </g>
    </g>
   </g>
   <g id="patch_3">
    <path d="
M18.9817 342.346
L555.453 342.346" style="fill:none;stroke:#000000;stroke-width:0.8;"/>
   </g>
   <g id="patch_4">
    <path d="
M29.2984 413.28
L29.2984 7.2" style="fill:none;stroke:#000000;stroke-width:0.8;"/>
   </g>
  </g>
 </g>
 <defs>
  <clipPath id="pb7017b9641">
   <rect height="406.08" width="536.470929948" x="18.9816991645" y="7.2"/>
  </clipPath>
 </defs>
</svg>
