<?xml version="1.0" encoding="utf-8" standalone="no"?>
<!DOCTYPE svg PUBLIC "-//W3C//DTD SVG 1.1//EN"
  "http://www.w3.org/Graphics/SVG/1.1/DTD/svg11.dtd">
<!-- Created with matplotlib (http://matplotlib.sourceforge.net/) -->
<svg height="420pt" version="1.1" viewBox="0 0 564 420" width="564pt" xmlns="http://www.w3.org/2000/svg" xmlns:xlink="http://www.w3.org/1999/xlink">
 <defs>
  <style type="text/css">
*{stroke-linecap:square;stroke-linejoin:round;}
  </style>
 </defs>
 <g id="figure_1">
  <g id="patch_1">
   <path d="
M2.22045e-16 420.48
L564.604 420.48
L564.604 0
L2.22045e-16 0
z
" style="fill:#ffffff;"/>
  </g>
  <g id="axes_1">
   <g id="patch_2">
    <path d="
M64.6363 413.28
L557.404 413.28
L557.404 7.2
L64.6363 7.2
z
" style="fill:#ffffff;"/>
   </g>
   <g id="line2d_1">
    <path clip-path="url(#pdbed04beec)" d="
M74.1125 292.217
L84.9497 292.217
L84.9497 292.217
L84.9497 292.217
L98.6028 292.217
L98.6028 397.03
L107.596 397.03
L107.596 378.907
L119.676 378.907
L119.676 295.999
L124.141 295.999
L124.141 250.658
L131.311 250.658
L131.311 158.676
L134.284 158.676
L134.284 138.88
L139.391 138.88
L139.391 128.676
L145.586 128.676
L145.586 139.934
L147.369 139.934
L147.369 148.712
L152.098 148.712
L152.098 184.364
L154.841 184.364
L154.841 195.173
L156.114 195.173
L156.114 203.45
L158.492 203.45
L158.492 224.483
L161.703 224.483
L161.703 242.697
L164.569 242.697
L164.569 264.487
L165.46 264.487
L165.46 272.986
L167.968 272.986
L167.968 290.211
L169.518 290.211
L169.518 303.624
L170.26 303.624
L170.26 311.424
L172.371 311.424
L172.371 328.414
L173.691 328.414
L173.691 335.91
L175.557 335.91
L175.557 342.44
L177.858 342.44
L177.858 354.3
L178.938 354.3
L178.938 361.562
L179.462 361.562
L179.462 365.943
L180.48 365.943
L180.48 372.49
L180.975 372.49
L180.975 374.748
L181.938 374.748
L181.938 380.697
L185.06 380.697
L185.06 393.825
L185.889 393.825
L185.889 398.433
L187.086 398.433
L187.086 403.041
L187.473 403.041
L187.473 403.905
L189.33 403.905
L189.33 405.129
L189.686 405.129
L189.686 404.829
L190.728 404.829
L190.728 405.471
L191.73 405.471
L191.73 404.637
L192.378 404.637
L192.378 405.013
L193.322 405.013
L193.322 404.24
L194.233 404.24
L194.233 402.268
L194.53 402.268
L194.53 401.234
L195.967 401.234
L195.967 394.438
L196.246 394.438
L196.246 392.786
L196.794 392.786
L196.794 390.273
L197.064 390.273
L197.064 389.394
L198.629 389.394
L198.629 382.442
L200.107 382.442
L200.107 374.307
L200.582 374.307
L200.582 371.183
L200.817 371.183
L200.817 369.935
L201.28 369.935
L201.28 368.042
L201.959 368.042
L201.959 366.096
L202.182 366.096
L202.182 365.206
L203.269 365.206
L203.269 362.176
L203.9 362.176
L203.9 359.737
L204.517 359.737
L204.517 356.7
L205.12 356.7
L205.12 354.442
L205.318 354.442
L205.318 353.49
L205.903 353.49
L205.903 351.34
L206.286 351.34
L206.286 350.363
L206.476 350.363
L206.476 350.086
L207.404 350.086
L207.404 349.732
L208.651 349.732
L208.651 350.559
L208.997 350.559
L208.997 351.137
L210.663 351.116
L210.663 351.832
L211.143 351.832
L211.143 352.595
L211.925 352.595
L211.925 354.577
L212.079 354.577
L212.079 354.813
L212.383 354.813
L212.383 354.984
L212.834 354.984
L212.834 354.804
L213.423 354.804
L213.423 354.014
L213.856 354.014
L213.856 353.032
L214.283 353.032
L214.283 351.679
L214.563 351.679
L214.563 350.536
L214.979 350.536
L214.979 348.478
L215.523 348.478
L215.523 345.319
L215.791 345.319
L215.791 344.02
L216.319 344.02
L216.319 341.012
L216.964 341.012
L216.964 336.815
L217.092 336.815
L217.092 336.107
L217.719 336.107
L217.719 332.103
L217.843 332.103
L217.843 331.428
L218.211 331.428
L218.211 329.116
L218.453 329.116
L218.453 327.811
L218.813 327.811
L218.813 326.197
L219.285 326.197
L219.285 324.5
L219.518 324.5
L219.518 323.866
L219.633 323.866
L219.633 323.455
L219.863 323.455
L219.863 322.449
L220.541 322.449
L220.541 318.955
L220.984 318.955
L220.984 316.341
L221.203 316.341
L221.203 314.882
L221.635 314.882
L221.635 311.672
L221.848 311.672
L221.848 309.927
L222.165 309.927
L222.165 307.606
L222.788 307.606
L222.89 303.019
L223.795 303.019
L223.795 298.725
L224.089 298.725
L224.089 297.117
L224.574 297.117
L224.574 294.131
L224.86 294.131
L224.86 292.163
L225.143 292.163
L225.237 289.807
L225.516 289.807
L225.516 288.128
L225.976 288.128
L225.976 285.05
L226.247 285.05
L226.247 283.043
L226.517 283.043
L226.606 280.089
L226.871 280.089
L226.871 277.574
L227.134 277.574
L227.134 274.908
L227.308 274.908
L227.394 272.158
L227.908 272.158
L227.908 267.407
L228.328 267.407
L228.411 262.385
L228.577 262.385
L228.577 260.765
L228.824 260.765
L228.824 258.54
L229.068 258.54
L229.149 255.34
L229.63 255.34
L229.63 250.071
L229.788 250.071
L229.788 248.459
L230.024 248.459
L230.024 246.234
L230.335 246.234
L230.335 243.103
L230.719 243.103
L230.719 239.01
L231.023 239.01
L231.023 235.599
L231.397 235.599
L231.397 231.678
L231.693 231.678
L231.693 228.803
L231.912 228.803
L231.912 226.535
L232.13 226.535
L232.13 224.442
L232.275 224.442
L232.275 223.159
L232.561 223.159
L232.561 220.814
L232.774 220.814
L232.774 219.223
L232.914 219.223
L232.914 218.266
L233.194 218.266
L233.194 216.195
L233.333 216.195
L233.333 215.263
L233.812 215.263
L233.812 212.373
L234.15 212.373
L234.15 210.144
L234.549 210.144
L234.615 206.848
L234.943 206.848
L235.008 204.021
L235.137 204.021
L235.202 202.451
L235.522 202.451
L235.522 200.209
L235.965 200.209
L235.965 196.869
L236.09 196.869
L236.152 195.389
L236.276 195.389
L236.276 194.386
L236.706 194.386
L236.706 190.674
L236.828 190.674
L236.889 189.261
L237.009 189.261
L237.009 188.451
L237.605 188.451
L237.605 184.845
L237.723 184.845
L237.723 184.21
L237.957 184.21
L237.957 182.815
L238.246 182.815
L238.246 181.272
L238.475 181.272
L238.475 179.922
L238.589 179.922
L238.589 179.187
L238.759 179.187
L238.759 178.194
L238.928 178.194
L238.928 177.113
L239.317 177.113
L239.428 173.711
L239.592 173.711
L239.592 172.77
L239.756 172.77
L239.756 171.744
L239.973 171.744
L239.973 170.517
L240.134 170.517
L240.134 169.7
L240.454 169.7
L240.559 167.863
L240.717 167.863
L240.77 166.963
L241.03 166.963
L241.082 165.563
L241.237 165.563
L241.237 164.888
L241.493 164.888
L241.544 163.756
L241.797 163.756
L241.847 162.927
L241.998 162.927
L241.998 162.366
L242.444 162.366
L242.542 160.6
L242.591 160.6
L242.689 160.037
L242.834 160.037
L242.834 159.584
L242.979 159.584
L242.979 159.057
L243.172 159.057
L243.172 158.258
L243.315 158.258
L243.315 157.743
L243.457 157.743
L243.457 157.309
L243.973 157.309
L244.019 155.936
L244.25 155.936
L244.25 155.613
L244.433 155.613
L244.433 155.455
L244.661 155.455
L244.661 155.141
L244.796 155.141
L244.796 154.884
L244.931 154.884
L244.931 154.7
L245.11 154.7
L245.11 154.55
L245.375 154.55
L245.463 154.118
L245.595 154.118
L245.595 153.942
L245.769 153.835
L245.769 153.777
L245.899 153.777
L245.899 153.537
L246.157 153.537
L246.157 152.933
L246.37 152.933
L246.37 152.546
L246.75 152.546
L246.791 151.979
L247 151.872
L247.041 151.555
L247.165 151.555
L247.247 151.024
L247.37 150.952
L247.37 150.766
L247.614 150.766
L247.655 150.288
L247.776 150.288
L247.776 150.077
L248.452 150.077
L248.452 148.58
L248.57 148.58
L248.57 148.381
L248.687 148.381
L248.687 148.125
L248.842 148.125
L248.842 147.864
L249.188 147.864
L249.188 147.452
L249.379 147.452
L249.379 147.136
L249.643 147.136
L249.718 146.45
L249.83 146.371
L249.83 146.249
L249.942 146.249
L249.942 146.12
L250.09 146.12
L250.201 145.735
L250.311 145.735
L250.311 145.505
L250.53 145.505
L250.53 145.154
L250.711 145.154
L250.819 144.914
L251.247 144.808
L251.247 144.77
L251.911 144.676
L251.979 144.521
L252.726 144.439
L252.793 144.226
L252.993 144.13
L253.092 143.927
L253.873 143.841
L253.905 143.757
L254.911 143.757
L254.911 143.604
L255.034 143.604
L255.126 143.259
L255.217 143.259
L255.309 142.962
L255.581 142.962
L255.671 142.107
L255.731 142.107
L255.761 141.816
L255.939 141.816
L255.939 141.113
L256.087 141.113
L256.087 140.596
L256.264 140.596
L256.264 140.057
L256.381 140.057
L256.381 139.75
L256.613 139.75
L256.613 139.046
L256.815 139.046
L256.901 138.024
L256.958 138.024
L257.044 137.597
L257.214 137.536
L257.214 137.291
L257.384 137.291
L257.468 136.785
L257.802 136.677
L257.83 136.421
L258.05 136.421
L258.077 135.992
L258.377 135.992
L258.458 135.389
L258.647 135.297
L258.7 135.26
L258.727 135.27
L258.967 135.221
L258.967 135.155
L259.257 135.076
L259.257 135.019
L259.44 135.019
L259.44 134.868
L259.569 134.868
L259.647 134.585
L259.802 134.585
L259.904 134.194
L260.032 134.194
L260.032 133.94
L260.184 133.94
L260.209 133.528
L260.411 133.528
L260.511 132.827
L260.586 132.729
L260.586 132.671
L260.711 132.671
L260.81 132.1
L261.032 132.1
L261.032 131.5
L261.324 131.5
L261.373 130.434
L261.445 130.434
L261.542 129.881
L261.734 129.881
L261.805 129.092
L261.9 129.092
L261.9 128.841
L262.09 128.841
L262.16 128.302
L262.324 128.199
L262.394 128.019
L262.58 127.951
L262.603 127.643
L262.857 127.643
L262.948 126.799
L263.017 126.799
L263.062 126.533
L263.13 126.533
L263.13 126.334
L263.289 126.334
L263.356 125.568
L263.401 125.568
L263.491 125.187
L263.535 125.187
L263.602 124.84
L263.736 124.84
L263.802 124.29
L263.868 124.29
L263.868 124.101
L264.022 124.101
L264.132 123.462
L264.263 123.462
L264.349 123.036
L264.414 123.036
L264.458 122.825
L264.737 122.825
L264.737 122.446
L264.928 122.446
L265.034 121.976
L265.16 121.894
L265.244 121.763
L266.353 121.871
L266.393 121.927
L266.831 121.835
L266.89 121.768
L267.047 121.714
L267.067 121.571
L267.164 121.571
L267.242 121.376
L267.417 121.354
L267.513 121.176
L267.914 121.089
L267.914 121.005
L268.047 121.005
L268.141 120.816
L268.477 120.743
L268.551 120.506
L268.644 120.506
L268.754 120.211
L268.919 120.123
L269.029 119.853
L269.156 119.853
L269.246 119.475
L269.3 119.475
L269.318 119.288
L269.569 119.288
L269.675 118.404
L269.746 118.404
L269.782 118.117
L269.905 118.117
L270.011 117.467
L270.116 117.467
L270.168 117.099
L270.272 117.099
L270.359 116.678
L270.531 116.678
L270.634 116.128
L270.771 116.128
L270.771 115.887
L270.992 115.887
L271.042 115.521
L271.143 115.521
L271.227 115.28
L271.328 115.28
L271.378 115.051
L271.444 115.051
L271.544 114.702
L271.725 114.702
L271.791 114.132
L271.889 114.132
L271.889 113.965
L272.117 113.965
L272.182 113.566
L272.278 113.515
L272.375 113.372
L272.978 113.306
L273.025 113.166
L273.181 113.166
L273.181 113.054
L273.305 113.054
L273.414 112.831
L273.629 112.75
L273.69 112.218
L273.782 112.218
L273.827 111.927
L273.903 111.927
L274.009 111.607
L274.129 111.549
L274.234 111.266
L274.399 111.155
L274.503 111.003
L274.621 110.9
L274.724 110.668
L274.885 110.626
L274.987 110.375
L275.118 110.33
L275.19 110.143
L275.32 110.088
L275.42 109.831
L275.62 109.765
L275.677 109.397
L275.846 109.331
L275.917 109.091
L276.043 109.091
L276.127 108.771
L276.224 108.771
L276.335 108.548
L276.432 108.548
L276.514 108.325
L276.638 108.325
L276.747 108.151
L276.883 108.083
L276.91 107.9
L277.045 107.9
L277.045 107.741
L277.193 107.741
L277.287 107.551
L277.592 107.441
L277.645 107.272
L277.75 107.272
L277.789 107.095
L277.868 107.095
L277.92 106.875
L278.102 106.764
L278.18 106.551
L278.27 106.551
L278.308 106.341
L278.424 106.341
L278.424 106.115
L278.577 106.115
L278.679 105.706
L278.755 105.689
L278.843 105.479
L278.944 105.375
L279.031 105.133
L279.131 105.047
L279.181 104.918
L279.367 104.918
L279.441 104.619
L279.65 104.513
L279.759 104.3
L279.869 104.261
L279.953 104.024
L280.062 104.024
L280.158 103.749
L280.302 103.711
L280.373 103.536
L280.492 103.449
L280.551 103.313
L280.692 103.313
L280.775 103.062
L281.216 103.143
L281.297 103.291
L281.423 103.358
L281.526 103.585
L281.696 103.66
L281.764 103.763
L282.067 103.862
L282.145 103.948
L282.234 104.038
L282.312 104.219
L282.477 104.219
L282.565 104.771
L282.631 104.771
L282.74 105.059
L282.859 105.146
L282.968 105.422
L283.054 105.474
L283.161 105.617
L283.279 105.695
L283.353 105.81
L283.502 105.901
L283.544 106.031
L283.692 106.12
L283.797 106.202
L284.325 106.127
L284.417 105.883
L284.591 105.823
L284.692 105.547
L284.904 105.444
L284.954 105.381
L285.194 105.338
L285.283 105.165
L286.369 105.089
L286.455 104.744
L286.512 104.641
L286.587 104.418
L286.653 104.418
L286.737 104.006
L286.784 104.006
L286.812 103.823
L286.906 103.823
L286.962 103.463
L287.101 103.463
L287.202 102.874
L287.257 102.805
L287.322 102.606
L287.395 102.495
L287.505 102.261
L287.568 102.154
L287.668 101.893
L287.759 101.893
L287.831 101.598
L288.019 101.518
L288.046 101.352
L288.135 101.352
L288.233 101.111
L288.401 101.026
L288.506 100.81
L288.681 100.704
L288.768 100.655
L288.967 100.589
L289.071 100.386
L289.182 100.328
L289.284 99.9986
L289.404 99.8936
L289.505 99.7223
L289.657 99.6141
L289.741 99.5519
L290.033 99.4586
L290.132 99.3099
L290.329 99.2119
L290.436 98.9789
L290.558 98.8777
L290.647 98.7979
L290.865 98.7305
L290.969 98.624
L291.295 98.5171
L291.374 98.4727
L291.61 98.3722
L291.719 98.2919
L291.905 98.1979
L291.905 98.1766
L292.067 98.089
L292.159 97.9886
L292.682 97.8842
L292.712 97.8541
L293.003 97.7614
L293.025 97.7338
L293.114 97.7421
L293.459 97.6312
L293.524 97.6117
L293.532 97.613
L294.235 97.5044
L294.341 97.435
L294.559 97.3514
L294.663 97.2716
L294.83 97.1862
L294.913 97.036
L295.078 96.9749
L295.174 96.7273
L295.345 96.6312
L295.399 96.5526
L295.582 96.4421
L295.669 96.3405
L296.022 96.2407
L296.128 96.1825
L296.279 96.1135
L296.384 95.8554
L296.482 95.7779
L296.593 95.377
L296.657 95.377
L296.767 94.9358
L296.812 94.9358
L296.87 94.6139
L296.947 94.6139
L297.055 94.0523
L297.157 94.0337
L297.246 93.4615
L297.29 93.4615
L297.309 93.269
L297.416 93.269
L297.498 92.7061
L297.536 92.6095
L297.642 92.2864
L297.716 92.2244
L297.816 91.8556
L297.871 91.7565
L297.976 91.4157
L298.032 91.3199
L298.13 90.9882
L298.179 90.8918
L298.289 90.4981
L298.349 90.4981
L298.458 89.965
L298.525 89.8568
L298.621 89.3909
L298.711 89.3909
L298.795 88.8832
L298.849 88.8039
L298.944 88.5753
L299.027 88.5058
L299.116 88.2815
L299.21 88.2431
L299.315 87.987
L299.403 87.8846
L299.491 87.7812
L299.751 87.6918
L299.849 87.5815
L300.63 87.5111
L300.73 87.3828
L300.835 87.2992
L300.935 87.129
L301.034 87.038
L301.132 86.7739
L301.181 86.6935
L301.263 86.4634
L301.307 86.3718
L301.41 86.0852
L301.491 85.9859
L301.599 85.672
L301.669 85.6317
L301.776 85.2771
L301.856 85.2633
L301.941 84.847
L301.999 84.7787
L302.11 84.4278
L302.179 84.3326
L302.268 84.0899
L302.346 83.9864
L302.44 83.6719
L302.518 83.5626
L302.627 83.0513
L302.658 82.991
L302.725 82.6973
L302.782 82.6973
L302.89 82.1426
L302.941 82.1426
L303.028 81.696
L303.094 81.5872
L303.14 81.3371
L303.211 81.3371
L303.317 80.6805
L303.347 80.6192
L303.458 80.12
L303.533 80.0249
L303.638 79.4277
L303.697 79.3207
L303.787 78.7377
L303.811 78.7377
L303.905 78.1464
L303.93 78.1464
L304.038 77.5034
L304.068 77.5034
L304.156 76.9179
L304.18 76.9179
L304.287 76.2387
L304.312 76.2387
L304.418 75.5151
L304.442 75.5151
L304.529 74.8339
L304.577 74.8339
L304.688 73.855
L304.717 73.8265
L304.817 73.0783
L304.879 73.0783
L304.974 72.1071
L304.993 72.1071
L305.092 71.423
L305.144 71.423
L305.243 70.5666
L305.285 70.4839
L305.369 69.8257
L305.416 69.8257
L305.499 69.0658
L305.537 69.0658
L305.611 68.4938
L305.675 68.4938
L305.772 67.6287
L305.8 67.6287
L305.91 66.9359
L305.951 66.8393
L306.051 66.2167
L306.129 66.2167
L306.228 65.3193
L306.251 65.2506
L306.332 64.8167
L306.377 64.8167
L306.48 64.1216
L306.525 64.041
L306.601 63.574
L306.646 63.574
L306.739 62.935
L306.788 62.935
L306.894 62.2308
L306.947 62.2308
L306.991 61.7634
L307.065 61.7634
L307.161 60.9007
L307.183 60.9007
L307.292 60.2272
L307.34 60.2272
L307.448 59.4592
L307.487 59.394
L307.586 58.7625
L307.616 58.7625
L307.715 58.1829
L307.745 58.1305
L307.834 57.6708
L307.868 57.6708
L307.974 56.9716
L308.012 56.9716
L308.122 56.1604
L308.152 56.0736
L308.236 55.6064
L308.265 55.6064
L308.374 54.9118
L308.399 54.9118
L308.465 54.4382
L308.54 54.4382
L308.648 53.5324
L308.672 53.5324
L308.775 52.9534
L308.837 52.8994
L308.898 52.4277
L308.96 52.4277
L309.07 51.6707
L309.102 51.5608
L309.212 51.0747
L309.26 50.9728
L309.361 50.4912
L309.397 50.4442
L309.457 50.0994
L309.513 50.0994
L309.621 49.3922
L309.661 49.3922
L309.752 48.8293
L309.804 48.7338
L309.91 48.2097
L309.958 48.1309
L310.04 47.6728
L310.071 47.6728
L310.165 47.1522
L310.212 47.0473
L310.294 46.6275
L310.329 46.6275
L310.425 46.1466
L310.479 46.0763
L310.583 45.63
L310.622 45.5289
L310.687 45.3103
L310.744 45.3103
L310.847 44.7334
L310.885 44.6889
L310.954 44.3489
L311.022 44.3489
L311.123 43.8352
L311.169 43.7879
L311.225 43.5749
L311.281 43.5749
L311.367 43.1816
L311.404 43.1047
L311.505 42.7428
L311.546 42.6393
L311.649 42.2581
L311.693 42.193
L311.804 41.7384
L311.855 41.7384
L311.943 41.2772
L311.998 41.1711
L312.096 40.8187
L312.15 40.7092
L312.259 40.439
L312.327 40.3386
L312.41 40.147
L312.467 40.0481
L312.564 39.7961
L312.617 39.7961
L312.724 39.3844
L312.773 39.3116
L312.879 39.0095
L312.925 38.9559
L313.02 38.6253
L313.069 38.5157
L313.177 38.1529
L313.226 38.0695
L313.32 37.7871
L313.365 37.7264
L313.465 37.4248
L313.517 37.3681
L313.613 37.0947
L313.675 36.9971
L313.784 36.6442
L313.859 36.6442
L313.968 36.2084
L314.012 36.1336
L314.119 35.7779
L314.163 35.6913
L314.274 35.3512
L314.321 35.2693
L314.431 34.9368
L314.471 34.8297
L314.553 34.5281
L314.623 34.5281
L314.732 33.9236
L314.771 33.8264
L314.879 33.4365
L314.915 33.3789
L315.023 32.9227
L315.055 32.8898
L315.13 32.5455
L315.172 32.5455
L315.259 32.126
L315.308 32.126
L315.401 31.7384
L315.462 31.629
L315.564 31.3335
L315.641 31.2279
L315.748 30.8801
L315.815 30.7952
L315.919 30.4939
L315.972 30.392
L316.06 30.1015
L316.107 30.0112
L316.201 29.7178
L316.257 29.6093
L316.34 29.2758
L316.393 29.2758
L316.498 28.8057
L316.541 28.7051
L316.636 28.3871
L316.679 28.2823
L316.774 27.9681
L316.819 27.9118
L316.907 27.5468
L316.953 27.5468
L317.062 27.0179
L317.092 26.911
L317.179 26.5542
L317.209 26.5542
L317.305 26.0419
L317.332 25.9658
L317.439 25.5423
L317.486 25.5044
L317.581 25.0248
L317.611 24.9548
L317.717 24.5375
L317.761 24.4382
L317.864 24.1077
L317.91 24.0247
L318.012 23.7052
L318.073 23.5954
L318.172 23.3518
L318.233 23.2434
L318.333 23.0457
L318.431 22.9387
L318.531 22.6949
L318.591 22.6215
L318.685 22.4
L318.77 22.3187
L318.874 22.0663
L318.956 21.9814
L319.034 21.8303
L319.132 21.7336
L319.235 21.566
L319.332 21.4558
L319.443 21.2583
L319.506 21.1567
L319.616 20.9248
L319.679 20.818
L319.755 20.6259
L319.826 20.6259
L319.932 20.2246
L319.983 20.1485
L320.086 19.8806
L320.167 19.7792
L320.274 19.5615
L320.346 19.4822
L320.455 19.3161
L320.55 19.2253
L320.64 19.0925
L320.751 18.9879
L320.853 18.8862
L321.025 18.7809
L321.126 18.7301
L321.34 18.6192
L321.443 18.4731
L321.509 18.3764
L321.616 18.1678
L321.7 18.0594
L321.801 17.7865
L321.854 17.7129
L321.945 17.4287
L322.018 17.3209
L322.115 17.0988
L322.192 16.9931
L322.302 16.7695
L322.398 16.6742
L322.509 16.456
L322.607 16.3621
L322.7 16.2834
L322.892 16.1783
L322.992 16.0599
L323.107 15.994
L323.201 15.8188
L323.289 15.7188
L323.394 15.5688
L323.511 15.4685
L323.61 15.3228
L323.699 15.2179
L323.805 15.1031
L325.467 15.2068
L325.575 15.2827
L325.743 15.3923
L325.841 15.4171
L325.85 15.417
L326.186 15.5277
L326.287 15.5998
L326.404 15.7056
L326.51 15.8869
L326.588 15.99
L326.696 16.1774
L326.801 16.2589
L326.903 16.4981
L326.963 16.6055
L327.059 16.7863
L327.14 16.8971
L327.245 17.0672
L327.325 17.1781
L327.418 17.3059
L327.528 17.4071
L327.623 17.548
L327.69 17.6491
L327.793 17.9008
L327.862 18.0108
L327.952 18.2229
L328.017 18.3221
L328.126 18.6248
L328.184 18.7334
L328.291 18.9868
L328.347 19.0826
L328.445 19.3759
L328.493 19.485
L328.599 19.8201
L328.659 19.9213
L328.753 20.215
L328.803 20.2888
L328.908 20.6328
L328.962 20.7363
L329.064 21.1112
L329.107 21.219
L329.199 21.5611
L329.231 21.6568
L329.342 22.0401
L329.38 22.1263
L329.484 22.5096
L329.539 22.5423
L329.649 23.1612
L329.683 23.2349
L329.793 23.7857
L329.823 23.8891
L329.933 24.3703
L329.984 24.4801
L330.091 24.9089
L330.13 25.0146
L330.239 25.3804
L330.285 25.4896
L330.39 25.8831
L330.426 25.9814
L330.532 26.403
L330.565 26.46
L330.672 26.9308
L330.704 27.0345
L330.798 27.4235
L330.836 27.5227
L330.944 27.9271
L330.987 28.0187
L331.084 28.321
L331.13 28.3974
L331.238 28.7641
L331.281 28.8659
L331.38 29.2331
L331.422 29.3243
L331.533 29.7729
L331.57 29.8655
L331.677 30.3281
L331.711 30.4333
L331.807 30.8546
L331.838 30.9531
L331.946 31.4197
L331.972 31.4496
L332.075 31.9323
L332.116 32.0283
L332.226 32.3997
L332.27 32.5073
L332.337 32.7566
L332.398 32.7566
L332.495 33.3348
L332.532 33.411
L332.636 33.8519
L332.672 33.9121
L332.767 34.2879
L332.809 34.2879
L332.919 34.7637
L332.963 34.8328
L333.062 35.1153
L333.112 35.2093
L333.213 35.4886
L333.265 35.5971
L333.369 35.7692
L333.437 35.8791
L333.54 36.0608
L333.6 36.1681
L333.711 36.3552
L333.788 36.4528
L333.899 36.7109
L333.957 36.8185
L334.064 37.0093
L334.139 37.1127
L334.245 37.3131
L334.315 37.4239
L334.419 37.6141
L334.48 37.6939
L334.59 37.9756
L334.647 38.0675
L334.754 38.3104
L334.822 38.4116
L334.926 38.6294
L334.989 38.7396
L335.093 38.8877
L335.21 38.9984
L335.316 39.0576
L335.462 39.1634
L335.572 39.2896
L335.671 39.3852
L335.752 39.5165
L335.847 39.6264
L335.957 39.7289
L336.188 39.8386
L336.28 39.8844
L337.466 39.9915
L337.577 40.0489
L337.755 40.1583
L337.865 40.2458
L337.983 40.3474
L338.087 40.4654
L338.224 40.5716
L338.333 40.6773
L338.918 40.5683
L339.002 40.4989
L339.146 40.3907
L339.233 40.3069
L339.365 40.1965
L339.476 40.1009
L342.028 39.9925
L342.131 39.9534
L342.622 40.0633
L342.724 40.1425
L342.862 40.2458
L342.964 40.3197
L343.591 40.4246
L343.698 40.5092
L343.895 40.6197
L343.998 40.7338
L344.103 40.8449
L344.208 40.9066
L345.739 40.799
L345.848 40.6901
L345.976 40.5806
L346.086 40.5202
L346.19 40.4096
L346.299 40.2934
L346.558 40.1829
L346.64 40.1676
L346.66 40.1719
L346.824 40.2806
L346.926 40.3956
L347.011 40.5049
L347.117 40.6589
L347.179 40.7463
L347.281 40.918
L347.392 41.0194
L347.501 41.1635
L347.568 41.2676
L347.675 41.483
L347.724 41.5868
L347.828 41.826
L347.882 41.9314
L347.989 42.1942
L348.04 42.2964
L348.149 42.5108
L348.224 42.6199
L348.331 42.7975
L348.397 42.9072
L348.506 43.0864
L348.586 43.197
L348.695 43.3449
L348.786 43.4388
L348.895 43.6107
L349 43.7189
L349.101 43.8533
L349.193 43.9574
L349.303 44.14
L349.372 44.2453
L349.481 44.3906
L349.596 44.4983
L349.706 44.6252
L349.958 44.7361
L350.068 44.7754
L350.657 44.8856
L350.764 44.9225
L351.224 45.0335
L351.332 45.1327
L351.434 45.2346
L351.539 45.3352
L351.688 45.4452
L351.798 45.5571
L351.931 45.6615
L352.038 45.7819
L352.146 45.8928
L352.249 46.0642
L352.33 46.1695
L352.436 46.3641
L352.495 46.4684
L352.604 46.7015
L352.651 46.8044
L352.759 47.0908
L352.807 47.1956
L352.916 47.4634
L352.975 47.5717
L353.085 47.8032
L353.144 47.9044
L353.253 48.094
L353.309 48.186
L353.41 48.4317
L353.46 48.5421
L353.571 48.8039
L353.622 48.9138
L353.732 49.2303
L353.781 49.3326
L353.891 49.6059
L353.94 49.717
L354.043 49.943
L354.099 50.0498
L354.21 50.2384
L354.274 50.3493
L354.383 50.5327
L354.463 50.6419
L354.571 50.7518
L354.692 50.8618
L354.803 50.9567
L354.994 51.0652
L355.103 51.1439
L355.299 51.2509
L355.403 51.3548
L355.503 51.4652
L355.596 51.6169
L355.668 51.7215
L355.766 51.8686
L355.851 51.9791
L355.961 52.2182
L356.008 52.3159
L356.113 52.6532
L356.153 52.7499
L356.261 53.1015
L356.296 53.2119
L356.407 53.5948
L356.438 53.7006
L356.549 54.0993
L356.584 54.2031
L356.693 54.5463
L356.737 54.6565
L356.848 54.9776
L356.9 55.0881
L357.01 55.3397
L357.06 55.4356
L357.166 55.6889
L357.213 55.7991
L357.316 56.0371
L357.371 56.1405
L357.478 56.413
L357.524 56.5177
L357.633 56.8337
L357.672 56.9432
L357.782 57.3442
L357.818 57.4491
L357.921 57.8718
L357.947 57.9747
L358.058 58.4773
L358.082 58.5795
L358.193 59.0712
L358.222 59.1344
L358.327 59.5748
L358.363 59.6809
L358.473 60.0827
L358.505 60.1846
L358.614 60.5959
L358.654 60.7013
L358.764 61.1012
L358.798 61.196
L358.901 61.5384
L358.939 61.6285
L359.049 62.0347
L359.085 62.1265
L359.191 62.5658
L359.22 62.6756
L359.33 63.1391
L359.359 63.2466
L359.463 63.6746
L359.491 63.7797
L359.599 64.2455
L359.632 64.3515
L359.743 64.8713
L359.77 64.9789
L359.88 65.4656
L359.907 65.5661
L360.012 65.9905
L360.048 66.0986
L360.156 66.5286
L360.186 66.6384
L360.296 67.0539
L360.328 67.1545
L360.439 67.6652
L360.465 67.7608
L360.576 68.2926
L360.601 68.3806
L360.705 68.8652
L360.732 68.9747
L360.837 69.4915
L360.862 69.5689
L360.966 70.1106
L360.993 70.2096
L361.103 70.7688
L361.13 70.8746
L361.239 71.4208
L361.265 71.5254
L361.375 72.022
L361.403 72.1275
L361.512 72.6172
L361.54 72.7282
L361.648 73.2786
L361.674 73.3717
L361.783 73.8566
L361.811 73.9563
L361.918 74.3551
L361.952 74.463
L362.063 74.8373
L362.098 74.9436
L362.209 75.3273
L362.247 75.4254
L362.355 75.8647
L362.387 75.9383
L362.496 76.3836
L362.527 76.4755
L362.637 76.927
L362.67 77.0265
L362.775 77.4477
L362.808 77.5347
L362.915 77.941
L362.953 78.043
L363.063 78.4358
L363.099 78.5394
L363.209 78.9252
L363.248 79.0347
L363.356 79.4029
L363.391 79.5134
L363.498 79.9063
L363.541 80.0097
L363.651 80.4797
L363.684 80.5805
L363.794 81.0072
L363.825 81.1121
L363.936 81.5084
L363.968 81.6139
L364.077 82.0372
L364.107 82.1362
L364.215 82.5807
L364.243 82.6869
L364.353 83.1722
L364.378 83.2815
L364.489 83.8127
L364.512 83.9037
L364.622 84.4501
L364.654 84.5589
L364.761 85.0357
L364.79 85.1428
L364.898 85.5763
L364.927 85.6866
L365.038 86.1348
L365.071 86.2401
L365.178 86.7091
L365.218 86.8128
L365.327 87.3456
L365.356 87.4513
L365.465 87.9595
L365.49 88.0633
L365.601 88.559
L365.63 88.6676
L365.737 89.1098
L365.764 89.2025
L365.867 89.6452
L365.901 89.7473
L366.005 90.21
L366.034 90.3133
L366.144 90.8248
L366.17 90.9276
L366.281 91.4892
L366.303 91.5776
L366.412 92.152
L366.438 92.2528
L366.549 92.9192
L366.569 93.0151
L366.676 93.672
L366.698 93.7696
L366.805 94.3942
L366.828 94.4932
L366.937 95.1373
L366.958 95.2464
L367.066 95.8342
L367.09 95.9442
L367.196 96.5104
L367.219 96.6176
L367.329 97.1939
L367.352 97.2969
L367.461 97.8851
L367.485 97.9839
L367.596 98.5396
L367.619 98.6463
L367.721 99.1345
L367.752 99.2341
L367.863 99.7766
L367.89 99.8803
L368.001 100.406
L368.029 100.492
L368.139 101.011
L368.168 101.121
L368.278 101.525
L368.311 101.636
L368.422 102.033
L368.453 102.139
L368.562 102.512
L368.601 102.62
L368.711 102.938
L368.748 103.049
L368.859 103.439
L368.889 103.537
L368.997 103.999
L369.025 104.096
L369.128 104.527
L369.159 104.631
L369.27 105.058
L369.303 105.154
L369.411 105.601
L369.439 105.706
L369.549 106.175
L369.577 106.281
L369.686 106.736
L369.714 106.838
L369.824 107.374
L369.852 107.482
L369.962 107.975
L369.991 108.079
L370.102 108.552
L370.129 108.653
L370.238 109.117
L370.269 109.222
L370.375 109.665
L370.404 109.775
L370.514 110.243
L370.543 110.349
L370.653 110.812
L370.687 110.916
L370.797 111.43
L370.821 111.539
L370.93 112.101
L370.952 112.183
L371.061 112.718
L371.088 112.826
L371.196 113.349
L371.219 113.445
L371.33 114.043
L371.355 114.15
L371.465 114.742
L371.489 114.845
L371.597 115.361
L371.62 115.467
L371.731 116.041
L371.754 116.151
L371.865 116.695
L371.89 116.783
L371.999 117.34
L372.022 117.448
L372.127 117.968
L372.152 118.067
L372.262 118.612
L372.286 118.712
L372.397 119.249
L372.424 119.357
L372.534 119.794
L372.566 119.9
L372.675 120.329
L372.702 120.439
L372.809 120.922
L372.834 121.012
L372.945 121.527
L372.973 121.633
L373.083 122.135
L373.109 122.234
L373.22 122.741
L373.247 122.846
L373.357 123.308
L373.389 123.408
L373.496 123.845
L373.527 123.955
L373.638 124.367
L373.668 124.469
L373.777 124.892
L373.809 125.001
L373.919 125.393
L373.956 125.498
L374.066 125.869
L374.106 125.977
L374.215 126.331
L374.252 126.429
L374.363 126.746
L374.404 126.856
L374.512 127.204
L374.545 127.309
L374.656 127.747
L374.685 127.848
L374.795 128.259
L374.828 128.365
L374.934 128.729
L374.97 128.838
L375.08 129.19
L375.115 129.295
L375.226 129.645
L375.26 129.753
L375.37 130.135
L375.407 130.245
L375.517 130.607
L375.557 130.716
L375.668 131.062
L375.704 131.156
L375.815 131.518
L375.85 131.621
L375.96 131.949
L376.005 132.059
L376.116 132.375
L376.153 132.485
L376.263 132.825
L376.304 132.933
L376.413 133.26
L376.456 133.369
L376.567 133.681
L376.622 133.79
L376.732 134.014
L376.783 134.124
L376.893 134.362
L376.951 134.473
L377.061 134.649
L377.134 134.755
L377.245 134.945
L377.307 135.054
L377.418 135.283
L377.471 135.392
L377.581 135.648
L377.626 135.754
L377.737 136.046
L377.782 136.151
L377.893 136.412
L377.981 136.523
L378.092 136.661
L378.166 136.771
L378.276 136.961
L378.337 137.072
L378.446 137.285
L378.499 137.392
L378.609 137.658
L378.658 137.764
L378.765 138.036
L378.813 138.138
L378.922 138.443
L378.968 138.546
L379.078 138.85
L379.121 138.96
L379.232 139.256
L379.278 139.366
L379.387 139.638
L379.441 139.749
L379.552 139.983
L379.605 140.092
L379.716 140.356
L379.764 140.467
L379.875 140.673
L379.969 140.783
L380.079 140.842
L380.301 140.953
L380.401 140.972
L380.412 140.971
L380.787 141.082
L380.896 141.123
L381.239 141.232
L381.348 141.299
L382.553 141.189
L382.664 141.104
L382.771 140.993
L382.881 140.913
L384.085 140.802
L384.196 140.687
L384.274 140.577
L384.381 140.428
L384.454 140.321
L384.565 140.157
L384.647 140.046
L384.753 139.892
L384.837 139.781
L384.947 139.632
L385.063 139.522
L385.171 139.419
L385.271 139.309
L385.382 139.214
L385.515 139.104
L385.625 139.027
L385.989 138.916
L386.1 138.863
L386.536 138.753
L386.647 138.67
L386.869 138.559
L386.895 138.556
L386.946 138.559
L386.946 138.559
L386.965 138.56
L386.987 138.559
L386.987 138.559
L387.098 138.535
L387.297 138.425
L387.406 138.322
L387.509 138.212
L387.619 138.086
L387.713 137.977
L387.823 137.864
L387.933 137.754
L388.044 137.623
L388.145 137.512
L388.255 137.37
L388.352 137.264
L388.462 137.128
L388.551 137.02
L388.661 136.891
L388.806 136.78
L388.916 136.674
L389.069 136.563
L389.178 136.463
L390.368 136.352
L390.479 136.252
L390.721 136.142
L390.832 136.062
L390.969 135.951
L391.077 135.882
L392.373 135.993
L392.483 136.02
L392.809 136.131
L392.919 136.152
L393.29 136.263
L393.399 136.323
L393.707 136.432
L393.818 136.478
L394.135 136.589
L394.246 136.656
L394.35 136.766
L394.46 136.908
L394.545 137.015
L394.654 137.157
L394.729 137.267
L394.84 137.468
L394.889 137.573
L395 137.833
L395.051 137.941
L395.162 138.204
L395.218 138.314
L395.328 138.537
L395.38 138.647
L395.491 138.94
L395.529 139.05
L395.64 139.329
L395.685 139.437
L395.796 139.689
L395.86 139.794
L395.971 139.941
L396.096 140.052
L396.206 140.149
L396.335 140.259
L396.445 140.36
L396.544 140.47
L396.655 140.58
L396.799 140.691
L396.91 140.733
L397.975 140.623
L398.085 140.595
L398.391 140.706
L398.497 140.748
L398.501 140.748
L399.001 140.637
L399.111 140.564
L399.302 140.453
L399.412 140.395
L399.842 140.284
L399.953 140.248
L400.566 140.358
L400.674 140.431
L400.827 140.542
L400.938 140.638
L401.099 140.748
L401.209 140.85
L401.311 140.961
L401.422 141.107
L401.498 141.217
L401.609 141.347
L401.688 141.457
L401.799 141.632
L401.871 141.741
L401.982 141.9
L402.075 142.01
L402.185 142.125
L402.309 142.235
L402.419 142.332
L402.511 142.443
L402.622 142.555
L402.788 142.666
L402.899 142.714
L403.2 142.825
L403.31 142.93
L404.107 142.819
L404.217 142.784
L404.924 142.673
L405.034 142.628
L405.901 142.517
L406.012 142.441
L406.152 142.332
L406.262 142.253
L407.316 142.142
L407.426 142.033
L407.516 141.922
L407.627 141.802
L407.744 141.691
L407.855 141.613
L407.966 141.502
L408.077 141.371
L408.177 141.26
L408.288 141.172
L408.406 141.062
L408.517 140.991
L408.788 140.88
L408.851 140.864
L408.898 140.874
L409.211 140.985
L409.322 141.016
L409.629 140.905
L409.738 140.813
L409.819 140.702
L409.93 140.526
L410.008 140.415
L410.118 140.283
L410.199 140.173
L410.309 140.025
L410.408 139.914
L410.519 139.793
L410.628 139.682
L410.737 139.539
L410.814 139.429
L410.925 139.269
L410.998 139.158
L411.108 139.003
L411.183 138.893
L411.294 138.725
L411.363 138.614
L411.474 138.395
L411.535 138.284
L411.646 138.13
L411.727 138.019
L411.838 137.846
L411.909 137.735
L412.02 137.536
L412.081 137.426
L412.191 137.208
L412.246 137.097
L412.357 136.892
L412.436 136.784
L412.546 136.616
L412.613 136.506
L412.724 136.298
L412.788 136.187
L412.899 135.968
L412.958 135.861
L413.068 135.671
L413.125 135.56
L413.236 135.332
L413.284 135.222
L413.395 134.937
L413.434 134.826
L413.545 134.504
L413.585 134.393
L413.696 134.105
L413.743 133.995
L413.854 133.749
L413.912 133.638
L414.023 133.399
L414.072 133.291
L414.183 133.041
L414.237 132.932
L414.348 132.706
L414.4 132.596
L414.511 132.332
L414.564 132.223
L414.674 131.95
L414.716 131.84
L414.827 131.533
L414.865 131.422
L414.977 131.08
L415.011 130.97
L415.122 130.613
L415.16 130.504
L415.271 130.157
L415.307 130.046
L415.418 129.709
L415.455 129.6
L415.565 129.236
L415.599 129.127
L415.71 128.816
L415.754 128.704
L415.865 128.438
L415.906 128.327
L416.016 128.015
L416.058 127.908
L416.169 127.573
L416.205 127.462
L416.315 127.13
L416.351 127.019
L416.462 126.706
L416.505 126.597
L416.616 126.218
L416.65 126.108
L416.761 125.743
L416.796 125.633
L416.907 125.296
L416.949 125.188
L417.059 124.861
L417.098 124.754
L417.208 124.479
L417.26 124.368
L417.371 124.134
L417.426 124.023
L417.537 123.785
L417.589 123.675
L417.699 123.426
L417.743 123.316
L417.854 123.017
L417.897 122.907
L418.007 122.6
L418.05 122.491
L418.161 122.214
L418.201 122.104
L418.312 121.801
L418.353 121.691
L418.464 121.409
L418.504 121.298
L418.615 120.983
L418.653 120.873
L418.764 120.545
L418.803 120.434
L418.914 120.109
L418.953 119.998
L419.063 119.673
L419.102 119.562
L419.213 119.253
L419.264 119.142
L419.374 118.911
L419.438 118.801
L419.549 118.64
L419.637 118.529
L419.748 118.379
L419.84 118.269
L419.951 118.148
L420.062 118.037
L420.172 117.888
L420.252 117.777
L420.363 117.653
L420.588 117.542
L420.699 117.466
L420.891 117.355
L421.001 117.247
L421.247 117.136
L421.281 117.132
L421.304 117.136
L421.304 117.136
L421.357 117.145
L421.41 117.137
L421.41 117.137
L421.52 117.112
L422.589 117.001
L422.7 116.941
L422.832 116.83
L422.943 116.717
L423.044 116.606
L423.155 116.5
L423.29 116.389
L423.4 116.303
L423.538 116.193
L423.648 116.097
L424.036 115.986
L424.147 115.882
L424.24 115.772
L424.35 115.639
L424.443 115.528
L424.554 115.419
L424.675 115.308
L424.786 115.218
L424.96 115.107
L425.07 115.002
L425.197 114.891
L425.307 114.81
L425.404 114.699
L425.516 114.574
L425.598 114.463
L425.709 114.278
L425.775 114.168
L425.885 113.965
L425.944 113.854
L426.055 113.645
L426.112 113.535
L426.223 113.324
L426.286 113.213
L426.396 113.058
L426.479 112.947
L426.59 112.765
L426.661 112.654
L426.772 112.495
L426.861 112.384
L426.971 112.274
L427.093 112.163
L427.204 112.011
L427.279 111.9
L427.39 111.772
L427.487 111.662
L427.598 111.508
L427.665 111.397
L427.776 111.255
L427.908 111.145
L428.019 111.019
L428.095 110.908
L428.206 110.757
L428.286 110.646
L428.397 110.547
L428.582 110.435
L428.693 110.386
L428.87 110.275
L428.981 110.199
L429.129 110.088
L429.24 110.004
L429.541 109.893
L429.652 109.837
L429.889 109.727
L430 109.689
L430.221 109.578
L430.332 109.502
L430.478 109.391
L430.589 109.26
L430.689 109.149
L430.8 109.069
L430.946 108.958
L431.057 108.851
L431.134 108.741
L431.245 108.577
L431.318 108.466
L431.429 108.334
L431.522 108.223
L431.633 108.132
L431.849 108.021
L431.96 107.915
L432.053 107.804
L432.163 107.674
L432.298 107.563
L432.409 107.473
L432.535 107.362
L432.646 107.263
L432.761 107.152
L432.872 107.06
L432.975 106.949
L433.086 106.85
L433.296 106.739
L433.407 106.654
L433.585 106.543
L433.696 106.449
L433.825 106.338
L433.936 106.309
L435.022 106.198
L435.133 106.173
L435.967 106.062
L436.078 106.014
L436.34 105.903
L436.451 105.79
L436.579 105.679
L436.69 105.566
L436.808 105.455
L436.919 105.319
L437.006 105.208
L437.117 105.06
L437.191 104.949
L437.302 104.774
L437.36 104.663
L437.471 104.428
L437.532 104.317
L437.643 104.132
L437.713 104.021
L437.824 103.868
L437.929 103.757
L438.04 103.647
L438.158 103.536
L438.269 103.416
L438.359 103.305
L438.47 103.154
L438.552 103.044
L438.663 102.89
L438.755 102.779
L438.866 102.624
L438.944 102.513
L439.055 102.365
L439.128 102.254
L439.239 102.11
L439.356 101.999
L439.467 101.899
L439.548 101.788
L439.659 101.597
L439.722 101.487
L439.833 101.294
L439.892 101.183
L440.003 100.994
L440.097 100.883
L440.208 100.749
L440.289 100.638
L440.4 100.486
L440.497 100.376
L440.608 100.303
L440.724 100.192
L440.835 100.081
L440.959 99.9697
L441.07 99.8085
L441.13 99.698
L441.241 99.5005
L441.309 99.3896
L441.42 99.1938
L441.481 99.0831
L441.592 98.8762
L441.643 98.7655
L441.754 98.5546
L441.839 98.4437
L441.95 98.3147
L442.036 98.2037
L442.147 98.1121
L442.311 98.0011
L442.422 97.9015
L442.606 97.7904
L442.717 97.7343
L442.964 97.6233
L443.075 97.5442
L443.175 97.4331
L443.286 97.3319
L443.637 97.2209
L443.748 97.1801
L444.693 97.2911
L444.804 97.3804
L444.962 97.4915
L445.073 97.5572
L445.24 97.6682
L445.351 97.711
L445.847 97.6001
L445.958 97.5373
L446.143 97.4263
L446.253 97.3486
L446.41 97.2375
L446.521 97.1613
L446.662 97.0505
L446.773 96.959
L447.079 96.8479
L447.19 96.7829
L447.361 96.6717
L447.472 96.5867
L447.661 96.4756
L447.772 96.4178
L448.24 96.3067
L448.351 96.2596
L448.722 96.1486
L448.833 96.1174
L449.334 96.0064
L449.445 95.918
L449.744 95.8069
L449.816 95.792
L449.855 95.7979
L450.943 95.909
L451.054 95.9692
L451.238 96.0803
L451.349 96.1478
L451.484 96.2588
L451.595 96.3691
L451.798 96.4802
L451.909 96.4932
L452.756 96.3822
L452.867 96.2702
L452.96 96.1592
L453.071 96.0055
L453.156 95.8945
L453.267 95.7641
L453.362 95.6534
L453.474 95.4814
L453.539 95.3705
L453.65 95.2214
L453.73 95.1107
L453.841 94.9044
L453.91 94.7938
L454.021 94.6447
L454.097 94.5336
L454.208 94.3459
L454.274 94.2348
L454.385 94.029
L454.442 93.9182
L454.553 93.6975
L454.616 93.5864
L454.727 93.4107
L454.784 93.2997
L454.895 93.0781
L454.958 92.9671
L455.069 92.7647
L455.135 92.6536
L455.246 92.5304
L455.338 92.4193
L455.449 92.3144
L455.567 92.2034
L455.678 92.0704
L455.772 91.9595
L455.883 91.832
L455.976 91.7209
L456.087 91.6164
L456.229 91.5054
L456.34 91.4578
L456.826 91.5689
L456.937 91.6379
L457.085 91.7489
L457.196 91.8155
L457.438 91.9266
L457.549 91.9836
L457.754 92.0946
L457.865 92.1851
L458.015 92.2961
L458.126 92.3511
L458.454 92.4621
L458.565 92.4939
L459.348 92.6049
L459.459 92.6522
L460.437 92.5411
L460.548 92.4733
L460.811 92.3622
L460.922 92.3347
L461.244 92.2237
L461.355 92.1376
L461.688 92.0265
L461.799 91.9214
L461.906 91.8103
L462.017 91.6648
L462.104 91.5538
L462.215 91.3786
L462.286 91.2675
L462.397 91.1118
L462.464 91.0008
L462.575 90.8131
L462.651 90.7022
L462.762 90.5483
L462.841 90.4374
L462.952 90.3118
L463.078 90.2007
L463.189 90.103
L463.364 89.992
L463.475 89.8902
L463.585 89.7791
L463.696 89.7202
L463.908 89.6094
L464.019 89.5116
L464.155 89.4006
L464.266 89.3018
L464.36 89.191
L464.471 89.0288
L464.543 88.9179
L464.654 88.7789
L464.797 88.6678
L464.908 88.6029
L465.674 88.4918
L465.785 88.46
L465.92 88.349
L466.031 88.2454
L466.135 88.1344
L466.246 87.993
L466.333 87.882
L466.444 87.7452
L466.543 87.6341
L466.654 87.5232
L466.744 87.4121
L466.855 87.2996
L466.974 87.1885
L467.085 87.0783
L467.192 86.9673
L467.303 86.8643
L467.646 86.7532
L467.757 86.6944
L468.009 86.5834
L468.121 86.5569
L469.426 86.6679
L469.537 86.7923
L469.604 86.9034
L469.715 87.1074
L469.773 87.2182
L469.884 87.4375
L469.934 87.5484
L470.045 87.8218
L470.088 87.9328
L470.199 88.2036
L470.254 88.3146
L470.365 88.492
L470.433 88.6031
L470.544 88.7924
L470.618 88.9034
L470.729 89.0576
L470.798 89.1687
L470.91 89.3568
L470.969 89.4676
L471.081 89.6643
L471.156 89.7754
L471.267 89.9528
L471.331 90.0638
L471.442 90.2809
L471.492 90.3919
L471.603 90.6601
L471.648 90.7711
L471.759 91.0084
L471.828 91.1193
L471.939 91.2963
L472.006 91.4072
L472.117 91.5637
L472.204 91.6748
L472.315 91.7953
L472.433 91.9064
L472.544 92.0246
L472.638 92.1354
L472.749 92.3013
L472.82 92.4124
L472.931 92.5769
L472.995 92.6879
L473.106 92.8858
L473.178 92.9968
L473.29 93.1657
L473.367 93.2768
L473.478 93.4638
L473.536 93.5748
L473.647 93.7815
L473.713 93.8925
L473.824 94.0977
L473.882 94.2085
L473.993 94.4147
L474.068 94.5257
L474.179 94.687
L474.272 94.7981
L474.383 94.9397
L474.464 95.0505
L474.575 95.1871
L474.67 95.2982
L474.781 95.4181
L474.875 95.5291
L474.986 95.6927
L475.043 95.8038
L475.154 96.0274
L475.213 96.1385
L475.324 96.3733
L475.381 96.4843
L475.492 96.7196
L475.537 96.8306
L475.648 97.085
L475.705 97.196
L475.816 97.4106
L475.875 97.5217
L475.986 97.7149
L476.047 97.8259
L476.158 98.0479
L476.213 98.1589
L476.324 98.407
L476.373 98.5176
L476.484 98.7782
L476.528 98.8888
L476.639 99.1437
L476.688 99.2547
L476.8 99.5157
L476.843 99.6264
L476.954 99.9223
L476.996 100.033
L477.107 100.342
L477.148 100.453
L477.259 100.735
L477.308 100.846
L477.419 101.127
L477.459 101.239
L477.57 101.53
L477.612 101.641
L477.723 101.956
L477.766 102.067
L477.877 102.352
L477.922 102.463
L478.033 102.747
L478.076 102.858
L478.187 103.156
L478.23 103.267
L478.341 103.532
L478.391 103.643
L478.502 103.887
L478.556 103.998
L478.667 104.255
L478.714 104.366
L478.825 104.616
L478.876 104.727
L478.987 104.979
L479.03 105.09
L479.141 105.36
L479.188 105.471
L479.299 105.732
L479.347 105.843
L479.458 106.13
L479.494 106.241
L479.605 106.591
L479.64 106.702
L479.751 107.078
L479.783 107.189
L479.894 107.563
L479.928 107.674
L480.039 108.005
L480.08 108.116
L480.191 108.4
L480.233 108.511
L480.344 108.806
L480.39 108.917
L480.501 109.156
L480.553 109.267
L480.664 109.49
L480.723 109.601
L480.834 109.795
L480.893 109.906
L481.004 110.126
L481.055 110.237
L481.166 110.511
L481.209 110.622
L481.32 110.869
L481.369 110.98
L481.48 111.246
L481.531 111.357
L481.642 111.624
L481.692 111.735
L481.803 111.955
L481.858 112.066
L481.969 112.304
L482.021 112.415
L482.132 112.647
L482.182 112.758
L482.293 112.983
L482.36 113.094
L482.471 113.275
L482.532 113.386
L482.644 113.61
L482.702 113.721
L482.813 113.964
L482.86 114.075
L482.971 114.365
L483.012 114.477
L483.123 114.768
L483.165 114.879
L483.276 115.182
L483.316 115.292
L483.427 115.603
L483.474 115.714
L483.585 115.987
L483.628 116.098
L483.739 116.401
L483.775 116.512
L483.886 116.864
L483.92 116.975
L484.031 117.358
L484.062 117.469
L484.173 117.882
L484.206 117.993
L484.317 118.37
L484.351 118.481
L484.462 118.808
L484.504 118.919
L484.615 119.197
L484.658 119.308
L484.769 119.583
L484.812 119.694
L484.923 119.963
L484.969 120.074
L485.08 120.333
L485.128 120.444
L485.239 120.689
L485.291 120.8
L485.402 121.015
L485.456 121.126
L485.567 121.362
L485.621 121.473
L485.732 121.688
L485.8 121.799
L485.911 121.952
L486.009 122.063
L486.12 122.176
L486.229 122.287
L486.34 122.41
L486.449 122.521
L486.56 122.629
L486.643 122.74
L486.754 122.884
L486.833 122.995
L486.944 123.15
L487.028 123.261
L487.14 123.394
L487.211 123.505
L487.322 123.668
L487.392 123.779
L487.503 123.966
L487.579 124.077
L487.69 124.233
L487.757 124.344
L487.868 124.519
L487.929 124.63
L488.04 124.873
L488.088 124.984
L488.199 125.249
L488.244 125.36
L488.355 125.63
L488.397 125.741
L488.508 126.032
L488.551 126.143
L488.662 126.414
L488.707 126.525
L488.818 126.801
L488.863 126.912
L488.974 127.193
L489.018 127.304
L489.129 127.572
L489.177 127.683
L489.288 127.966
L489.338 128.077
L489.449 128.296
L489.515 128.407
L489.626 128.605
L489.683 128.716
L489.794 128.902
L489.86 129.013
L489.971 129.198
L490.034 129.309
L490.145 129.52
L490.202 129.632
L490.314 129.814
L490.391 129.925
L490.502 130.093
L490.578 130.204
L490.689 130.36
L490.77 130.471
L490.881 130.617
L491.013 130.728
L491.124 130.856
L491.245 130.967
L491.357 131.076
L491.472 131.187
L491.583 131.314
L491.758 131.425
L491.869 131.49
L492.092 131.601
L492.203 131.679
L492.416 131.79
L492.527 131.864
L492.639 131.975
L492.75 132.041
L492.913 132.152
L493.024 132.227
L493.189 132.338
L493.3 132.384
L493.601 132.495
L493.712 132.537
L494.072 132.648
L494.183 132.737
L494.328 132.848
L494.439 132.936
L494.605 133.048
L494.716 133.142
L494.831 133.253
L494.942 133.374
L495.035 133.485
L495.146 133.632
L495.222 133.743
L495.334 133.909
L495.416 134.02
L495.527 134.164
L495.603 134.275
L495.714 134.435
L495.803 134.547
L495.915 134.7
L495.992 134.811
L496.103 134.95
L496.198 135.061
L496.309 135.213
L496.376 135.325
L496.487 135.49
L496.581 135.601
L496.692 135.711
L496.779 135.822
L496.89 135.979
L496.974 136.09
L497.085 136.216
L497.27 136.327
L497.381 136.394
L497.534 136.505
L497.645 136.59
L497.759 136.701
L497.87 136.833
L497.983 136.944
L498.094 137.039
L498.881 137.15
L498.992 137.169
L499.919 137.058
L500.03 137.043
L500.451 137.154
L500.562 137.198
L500.747 137.31
L500.859 137.387
L501.026 137.498
L501.137 137.583
L501.367 137.694
L501.478 137.771
L501.569 137.882
L501.68 138.026
L501.75 138.137
L501.862 138.326
L501.937 138.437
L502.048 138.59
L502.112 138.702
L502.223 138.922
L502.288 139.033
L502.399 139.185
L502.484 139.296
L502.595 139.444
L502.677 139.555
L502.788 139.684
L502.926 139.795
L503.037 139.891
L503.155 140.002
L503.266 140.101
L503.387 140.212
L503.498 140.329
L503.595 140.44
L503.706 140.586
L503.774 140.697
L503.886 140.875
L503.955 140.986
L504.066 141.167
L504.149 141.278
L504.26 141.417
L504.347 141.528
L504.458 141.685
L504.53 141.796
L504.641 141.942
L504.718 142.054
L504.829 142.212
L504.899 142.323
L505.01 142.479
L505.081 142.59
L505.192 142.758
L505.275 142.869
L505.386 143.005
L505.469 143.116
L505.58 143.273
L505.667 143.384
L505.778 143.487
L505.899 143.598
L506.01 143.704
L506.121 143.816
L506.232 143.964
L506.307 144.075
L506.418 144.249
L506.488 144.36
L506.599 144.527
L506.683 144.638
L506.794 144.748
L506.889 144.859
L507 144.989
L507.08 145.1
L507.191 145.218
L507.29 145.329
L507.401 145.416
L507.602 145.527
L507.713 145.616
L507.844 145.727
L507.955 145.823
L508.062 145.935
L508.173 146.05
L508.295 146.161
L508.406 146.242
L508.566 146.353
L508.677 146.405
L508.838 146.517
L508.949 146.577
L509.913 146.688
L510.024 146.733
L511.015 146.622
L511.126 146.554
L511.338 146.443
L511.449 146.364
L512.132 146.253
L512.192 146.246
L512.243 146.247
L512.674 146.135
L512.785 146.065
L512.923 145.953
L513.034 145.854
L513.141 145.743
L513.252 145.637
L513.371 145.526
L513.482 145.436
L513.595 145.325
L513.706 145.204
L513.795 145.092
L513.906 144.971
L514.031 144.86
L514.142 144.789
L514.887 144.9
L514.998 144.937
L515.192 145.048
L515.303 145.143
L515.433 145.254
L515.544 145.371
L515.632 145.482
L515.743 145.612
L515.846 145.723
L515.957 145.857
L516.052 145.968
L516.163 146.108
L516.255 146.219
L516.366 146.35
L516.456 146.462
L516.567 146.595
L516.658 146.706
L516.769 146.838
L516.868 146.95
L516.979 147.089
L517.051 147.2
L517.162 147.352
L517.253 147.463
L517.364 147.629
L517.446 147.74
L517.558 147.89
L517.641 148.001
L517.753 148.149
L517.835 148.26
L517.946 148.411
L518.025 148.522
L518.136 148.671
L518.207 148.782
L518.319 148.959
L518.383 149.07
L518.494 149.27
L518.564 149.381
L518.675 149.525
L518.767 149.636
L518.878 149.767
L518.968 149.878
L519.079 150.028
L519.175 150.139
L519.286 150.26
L519.386 150.371
L519.497 150.491
L519.608 150.602
L519.719 150.691
L519.806 150.802
L519.917 150.905
L520.059 151.016
L520.17 151.111
L520.268 151.222
L520.379 151.359
L520.448 151.47
L520.56 151.638
L520.652 151.749
L520.763 151.885
L520.839 151.996
L520.95 152.178
L521.027 152.289
L521.138 152.456
L521.207 152.567
L521.318 152.733
L521.408 152.844
L521.519 153.023
L521.595 153.134
L521.706 153.31
L521.77 153.421
L521.881 153.582
L521.98 153.693
L522.091 153.843
L522.163 153.954
L522.274 154.139
L522.354 154.25
L522.465 154.379
L522.566 154.49
L522.677 154.61
L522.8 154.721
L522.911 154.803
L523.619 154.692
L523.73 154.644
L524.299 154.755
L524.41 154.834
L524.535 154.945
L524.647 155.038
L524.762 155.149
L524.873 155.299
L524.979 155.41
L525.09 155.482
L525.246 155.593
L525.357 155.679
L525.451 155.79
L525.563 155.913
L525.675 156.024
L525.787 156.112
L526.064 156.224
L526.175 156.267
L526.686 156.156
L526.797 156.069
L526.935 155.958
L527.046 155.886
L527.339 155.775
L527.45 155.713
L528.058 155.824
L528.169 155.882
L528.425 155.993
L528.536 156.049
L528.866 156.16
L528.977 156.234
L529.141 156.345
L529.252 156.438
L529.355 156.549
L529.466 156.678
L529.553 156.79
L529.664 156.911
L529.772 157.022
L529.883 157.202
L529.944 157.313
L530.055 157.526
L530.112 157.637
L530.223 157.86
L530.284 157.971
L530.395 158.165
L530.459 158.276
L530.57 158.468
L530.633 158.579
L530.744 158.771
L530.826 158.882
L530.937 159.004
L531.057 159.116
L531.168 159.257
L531.259 159.368
L531.37 159.476
L531.503 159.587
L531.614 159.632
L531.911 159.743
L532.022 159.793
L532.207 159.904
L532.318 159.981
L532.485 160.092
L532.596 160.184
L532.716 160.295
L532.827 160.445
L532.918 160.556
L533.029 160.702
L533.107 160.813
L533.218 160.967
L533.286 161.078
L533.397 161.309
L533.445 161.42
L533.556 161.678
L533.604 161.789
L533.715 162.066
L533.759 162.177
L533.87 162.436
L533.917 162.547
L534.029 162.812
L534.071 162.923
L534.182 163.235
L534.221 163.346
L534.332 163.709
L534.365 163.82
L534.476 164.223
L534.507 164.334
L534.618 164.745
L534.647 164.857
L534.758 165.273
L534.789 165.384
L534.9 165.797
L534.928 165.908
L535.039 166.334
L535.067 166.445
L535.179 166.86
L535.209 166.971
L535.32 167.404
L535.348 167.515
L535.46 167.941
L535.49 168.052
L535.601 168.452
L535.634 168.563
L535.745 168.902
L535.783 169.013
L535.894 169.325
L535.937 169.436
L536.048 169.702
L536.094 169.813
L536.205 170.084
L536.25 170.196
L536.361 170.454
L536.408 170.565
L536.52 170.84
L536.569 170.951
L536.68 171.174
L536.735 171.285
L536.846 171.485
L536.912 171.597
L537.023 171.75
L537.099 171.861
L537.21 172.065
L537.264 172.176
L537.375 172.404
L537.436 172.515
L537.547 172.713
L537.608 172.824
L537.719 172.997
L537.807 173.108
L537.918 173.258
L538.002 173.369
L538.113 173.513
L538.219 173.625
L538.33 173.714
L538.44 173.825
L538.551 173.964
L538.652 174.075
L538.763 174.219
L538.833 174.33
L538.944 174.518
L539.014 174.629
L539.125 174.811
L539.207 174.922
L539.319 175.086
L539.39 175.197
L539.501 175.357
L539.585 175.468
L539.696 175.643
L539.753 175.754
L539.864 175.959
L539.936 176.07
L540.047 176.227
L540.142 176.338
L540.253 176.518
L540.313 176.629
L540.424 176.828
L540.501 176.939
L540.612 177.067
L540.704 177.178
L540.815 177.35
L540.887 177.461
L540.998 177.616
L541.081 177.727
L541.192 177.889
L541.269 178
L541.38 178.149
L541.466 178.261
L541.577 178.424
L541.682 178.535
L541.793 178.681
L541.869 178.792
L541.98 178.969
L542.065 179.08
L542.176 179.232
L542.253 179.343
L542.365 179.515
L542.432 179.626
L542.543 179.815
L542.613 179.926
L542.724 180.084
L542.812 180.195
L542.923 180.324
L543.021 180.435
L543.132 180.564
L543.208 180.675
L543.319 180.839
L543.41 180.95
L543.522 181.129
L543.592 181.24
L543.703 181.393
L543.782 181.504
L543.893 181.72
L543.942 181.831
L544.054 182.072
L544.111 182.183
L544.222 182.377
L544.285 182.489
L544.396 182.669
L544.477 182.78
L544.588 182.928
L544.665 183.039
L544.776 183.188
L544.868 183.299
L544.979 183.465
L545.048 183.576
L545.159 183.755
L545.222 183.866
L545.333 184.038
L545.401 184.149
L545.513 184.336
L545.58 184.447
L545.691 184.636
L545.755 184.747
L545.866 184.936
L545.935 185.047
L546.046 185.23
L546.133 185.342
L546.244 185.498
L546.314 185.609
L546.425 185.786
L546.485 185.897
L546.596 186.101
L546.666 186.212
L546.777 186.365
L546.873 186.476
L546.984 186.584
L547.103 186.695
L547.214 186.786
L547.366 186.897
L547.477 186.979
L547.927 187.067
L547.927 187.067" style="fill:none;stroke:#0000ff;stroke-width:5.0;"/>
   </g>
   <g id="matplotlib.axis_1">
    <g id="xtick_1">
     <g id="line2d_2">
      <path d="
M189.225 413.28
L189.225 7.2" style="fill:none;stroke:#000000;stroke-dasharray:1.000000,3.000000;stroke-dashoffset:0.0;stroke-linecap:butt;stroke-width:0.5;"/>
     </g>
     <g id="line2d_3">
      <defs>
       <path d="
M0 0
L0 -4" id="m90805221d3"/>
      </defs>
      <g>
       <use style="stroke:#000000;stroke-linecap:butt;stroke-width:0.5;" x="189.224504283" xlink:href="#m90805221d3" y="292.217427411"/>
      </g>
     </g>
     <g id="text_1">
      <!-- 5 -->
      <defs>
       <path d="
M10.7969 72.9062
L49.5156 72.9062
L49.5156 64.5938
L19.8281 64.5938
L19.8281 46.7344
Q21.9688 47.4688 24.1094 47.8281
Q26.2656 48.1875 28.4219 48.1875
Q40.625 48.1875 47.75 41.5
Q54.8906 34.8125 54.8906 23.3906
Q54.8906 11.625 47.5625 5.09375
Q40.2344 -1.42188 26.9062 -1.42188
Q22.3125 -1.42188 17.5469 -0.640625
Q12.7969 0.140625 7.71875 1.70312
L7.71875 11.625
Q12.1094 9.23438 16.7969 8.0625
Q21.4844 6.89062 26.7031 6.89062
Q35.1562 6.89062 40.0781 11.3281
Q45.0156 15.7656 45.0156 23.3906
Q45.0156 31 40.0781 35.4375
Q35.1562 39.8906 26.7031 39.8906
Q22.75 39.8906 18.8125 39.0156
Q14.8906 38.1406 10.7969 36.2812
z
" id="BitstreamVeraSans-Roman-35"/>
      </defs>
      <g transform="translate(183.563879283 313.714927411)scale(0.24 -0.24)">
       <use xlink:href="#BitstreamVeraSans-Roman-35"/>
      </g>
     </g>
    </g>
    <g id="xtick_2">
     <g id="line2d_4">
      <path d="
M322.863 413.28
L322.863 7.2" style="fill:none;stroke:#000000;stroke-dasharray:1.000000,3.000000;stroke-dashoffset:0.0;stroke-linecap:butt;stroke-width:0.5;"/>
     </g>
     <g id="line2d_5">
      <defs>
       <path d="
M0 0
L0 -4" id="m90805221d3"/>
      </defs>
      <g>
       <use style="stroke:#000000;stroke-linecap:butt;stroke-width:0.5;" x="322.862639868" xlink:href="#m90805221d3" y="292.217427411"/>
      </g>
     </g>
     <g id="text_2">
      <!-- 10 -->
      <defs>
       <path d="
M31.7812 66.4062
Q24.1719 66.4062 20.3281 58.9062
Q16.5 51.4219 16.5 36.375
Q16.5 21.3906 20.3281 13.8906
Q24.1719 6.39062 31.7812 6.39062
Q39.4531 6.39062 43.2812 13.8906
Q47.125 21.3906 47.125 36.375
Q47.125 51.4219 43.2812 58.9062
Q39.4531 66.4062 31.7812 66.4062
M31.7812 74.2188
Q44.0469 74.2188 50.5156 64.5156
Q56.9844 54.8281 56.9844 36.375
Q56.9844 17.9688 50.5156 8.26562
Q44.0469 -1.42188 31.7812 -1.42188
Q19.5312 -1.42188 13.0625 8.26562
Q6.59375 17.9688 6.59375 36.375
Q6.59375 54.8281 13.0625 64.5156
Q19.5312 74.2188 31.7812 74.2188" id="BitstreamVeraSans-Roman-30"/>
       <path d="
M12.4062 8.29688
L28.5156 8.29688
L28.5156 63.9219
L10.9844 60.4062
L10.9844 69.3906
L28.4219 72.9062
L38.2812 72.9062
L38.2812 8.29688
L54.3906 8.29688
L54.3906 0
L12.4062 0
z
" id="BitstreamVeraSans-Roman-31"/>
      </defs>
      <g transform="translate(309.707639868 314.029927411)scale(0.24 -0.24)">
       <use xlink:href="#BitstreamVeraSans-Roman-31"/>
       <use x="63.623046875" xlink:href="#BitstreamVeraSans-Roman-30"/>
      </g>
     </g>
    </g>
    <g id="xtick_3">
     <g id="line2d_6">
      <path d="
M456.501 413.28
L456.501 7.2" style="fill:none;stroke:#000000;stroke-dasharray:1.000000,3.000000;stroke-dashoffset:0.0;stroke-linecap:butt;stroke-width:0.5;"/>
     </g>
     <g id="line2d_7">
      <defs>
       <path d="
M0 0
L0 -4" id="m90805221d3"/>
      </defs>
      <g>
       <use style="stroke:#000000;stroke-linecap:butt;stroke-width:0.5;" x="456.500775453" xlink:href="#m90805221d3" y="292.217427411"/>
      </g>
     </g>
     <g id="text_3">
      <!-- 15 -->
      <g transform="translate(443.597025453 313.714927411)scale(0.24 -0.24)">
       <use xlink:href="#BitstreamVeraSans-Roman-31"/>
       <use x="63.623046875" xlink:href="#BitstreamVeraSans-Roman-35"/>
      </g>
     </g>
    </g>
    <g id="xtick_4">
     <g id="line2d_8">
      <defs>
       <path d="
M0 0
L0 -2" id="mf56b7dabb2"/>
      </defs>
      <g>
       <use style="stroke:#000000;stroke-linecap:butt;stroke-width:0.5;" x="82.3139958147" xlink:href="#mf56b7dabb2" y="292.217427411"/>
      </g>
     </g>
    </g>
    <g id="xtick_5">
     <g id="line2d_9">
      <defs>
       <path d="
M0 0
L0 -2" id="mf56b7dabb2"/>
      </defs>
      <g>
       <use style="stroke:#000000;stroke-linecap:butt;stroke-width:0.5;" x="109.041622932" xlink:href="#mf56b7dabb2" y="292.217427411"/>
      </g>
     </g>
    </g>
    <g id="xtick_6">
     <g id="line2d_10">
      <defs>
       <path d="
M0 0
L0 -2" id="mf56b7dabb2"/>
      </defs>
      <g>
       <use style="stroke:#000000;stroke-linecap:butt;stroke-width:0.5;" x="135.769250049" xlink:href="#mf56b7dabb2" y="292.217427411"/>
      </g>
     </g>
    </g>
    <g id="xtick_7">
     <g id="line2d_11">
      <defs>
       <path d="
M0 0
L0 -2" id="mf56b7dabb2"/>
      </defs>
      <g>
       <use style="stroke:#000000;stroke-linecap:butt;stroke-width:0.5;" x="162.496877166" xlink:href="#mf56b7dabb2" y="292.217427411"/>
      </g>
     </g>
    </g>
    <g id="xtick_8">
     <g id="line2d_12">
      <defs>
       <path d="
M0 0
L0 -2" id="mf56b7dabb2"/>
      </defs>
      <g>
       <use style="stroke:#000000;stroke-linecap:butt;stroke-width:0.5;" x="215.9521314" xlink:href="#mf56b7dabb2" y="292.217427411"/>
      </g>
     </g>
    </g>
    <g id="xtick_9">
     <g id="line2d_13">
      <defs>
       <path d="
M0 0
L0 -2" id="mf56b7dabb2"/>
      </defs>
      <g>
       <use style="stroke:#000000;stroke-linecap:butt;stroke-width:0.5;" x="242.679758517" xlink:href="#mf56b7dabb2" y="292.217427411"/>
      </g>
     </g>
    </g>
    <g id="xtick_10">
     <g id="line2d_14">
      <defs>
       <path d="
M0 0
L0 -2" id="mf56b7dabb2"/>
      </defs>
      <g>
       <use style="stroke:#000000;stroke-linecap:butt;stroke-width:0.5;" x="269.407385634" xlink:href="#mf56b7dabb2" y="292.217427411"/>
      </g>
     </g>
    </g>
    <g id="xtick_11">
     <g id="line2d_15">
      <defs>
       <path d="
M0 0
L0 -2" id="mf56b7dabb2"/>
      </defs>
      <g>
       <use style="stroke:#000000;stroke-linecap:butt;stroke-width:0.5;" x="296.135012751" xlink:href="#mf56b7dabb2" y="292.217427411"/>
      </g>
     </g>
    </g>
    <g id="xtick_12">
     <g id="line2d_16">
      <defs>
       <path d="
M0 0
L0 -2" id="mf56b7dabb2"/>
      </defs>
      <g>
       <use style="stroke:#000000;stroke-linecap:butt;stroke-width:0.5;" x="349.590266985" xlink:href="#mf56b7dabb2" y="292.217427411"/>
      </g>
     </g>
    </g>
    <g id="xtick_13">
     <g id="line2d_17">
      <defs>
       <path d="
M0 0
L0 -2" id="mf56b7dabb2"/>
      </defs>
      <g>
       <use style="stroke:#000000;stroke-linecap:butt;stroke-width:0.5;" x="376.317894102" xlink:href="#mf56b7dabb2" y="292.217427411"/>
      </g>
     </g>
    </g>
    <g id="xtick_14">
     <g id="line2d_18">
      <defs>
       <path d="
M0 0
L0 -2" id="mf56b7dabb2"/>
      </defs>
      <g>
       <use style="stroke:#000000;stroke-linecap:butt;stroke-width:0.5;" x="403.045521219" xlink:href="#mf56b7dabb2" y="292.217427411"/>
      </g>
     </g>
    </g>
    <g id="xtick_15">
     <g id="line2d_19">
      <defs>
       <path d="
M0 0
L0 -2" id="mf56b7dabb2"/>
      </defs>
      <g>
       <use style="stroke:#000000;stroke-linecap:butt;stroke-width:0.5;" x="429.773148336" xlink:href="#mf56b7dabb2" y="292.217427411"/>
      </g>
     </g>
    </g>
    <g id="xtick_16">
     <g id="line2d_20">
      <defs>
       <path d="
M0 0
L0 -2" id="mf56b7dabb2"/>
      </defs>
      <g>
       <use style="stroke:#000000;stroke-linecap:butt;stroke-width:0.5;" x="483.228402569" xlink:href="#mf56b7dabb2" y="292.217427411"/>
      </g>
     </g>
    </g>
    <g id="xtick_17">
     <g id="line2d_21">
      <defs>
       <path d="
M0 0
L0 -2" id="mf56b7dabb2"/>
      </defs>
      <g>
       <use style="stroke:#000000;stroke-linecap:butt;stroke-width:0.5;" x="509.956029686" xlink:href="#mf56b7dabb2" y="292.217427411"/>
      </g>
     </g>
    </g>
   </g>
   <g id="matplotlib.axis_2">
    <g id="ytick_1">
     <g id="line2d_22">
      <path d="
M64.6363 388.725
L557.404 388.725" style="fill:none;stroke:#000000;stroke-dasharray:1.000000,3.000000;stroke-dashoffset:0.0;stroke-linecap:butt;stroke-width:0.5;"/>
     </g>
     <g id="line2d_23">
      <defs>
       <path d="
M0 0
L4 0" id="ma91061271e"/>
      </defs>
      <g>
       <use style="stroke:#000000;stroke-linecap:butt;stroke-width:0.5;" x="54.63625" xlink:href="#ma91061271e" y="388.724782013"/>
      </g>
     </g>
     <g id="text_4">
      <!-- -0.2 -->
      <defs>
       <path d="
M19.1875 8.29688
L53.6094 8.29688
L53.6094 0
L7.32812 0
L7.32812 8.29688
Q12.9375 14.1094 22.625 23.8906
Q32.3281 33.6875 34.8125 36.5312
Q39.5469 41.8438 41.4219 45.5312
Q43.3125 49.2188 43.3125 52.7812
Q43.3125 58.5938 39.2344 62.25
Q35.1562 65.9219 28.6094 65.9219
Q23.9688 65.9219 18.8125 64.3125
Q13.6719 62.7031 7.8125 59.4219
L7.8125 69.3906
Q13.7656 71.7812 18.9375 73
Q24.125 74.2188 28.4219 74.2188
Q39.75 74.2188 46.4844 68.5469
Q53.2188 62.8906 53.2188 53.4219
Q53.2188 48.9219 51.5312 44.8906
Q49.8594 40.875 45.4062 35.4062
Q44.1875 33.9844 37.6406 27.2188
Q31.1094 20.4531 19.1875 8.29688" id="BitstreamVeraSans-Roman-32"/>
       <path d="
M10.6875 12.4062
L21 12.4062
L21 0
L10.6875 0
z
" id="BitstreamVeraSans-Roman-2e"/>
       <path d="
M4.89062 31.3906
L31.2031 31.3906
L31.2031 23.3906
L4.89062 23.3906
z
" id="BitstreamVeraSans-Roman-2d"/>
      </defs>
      <g transform="translate(7.3875 397.460407013)scale(0.24 -0.24)">
       <use xlink:href="#BitstreamVeraSans-Roman-2d"/>
       <use x="36.083984375" xlink:href="#BitstreamVeraSans-Roman-30"/>
       <use x="99.70703125" xlink:href="#BitstreamVeraSans-Roman-2e"/>
       <use x="131.494140625" xlink:href="#BitstreamVeraSans-Roman-32"/>
      </g>
     </g>
    </g>
    <g id="ytick_2">
     <g id="line2d_24">
      <path d="
M64.6363 340.471
L557.404 340.471" style="fill:none;stroke:#000000;stroke-dasharray:1.000000,3.000000;stroke-dashoffset:0.0;stroke-linecap:butt;stroke-width:0.5;"/>
     </g>
     <g id="line2d_25">
      <defs>
       <path d="
M0 0
L4 0" id="ma91061271e"/>
      </defs>
      <g>
       <use style="stroke:#000000;stroke-linecap:butt;stroke-width:0.5;" x="54.63625" xlink:href="#ma91061271e" y="340.471104712"/>
      </g>
     </g>
     <g id="text_5">
      <!-- -0.1 -->
      <g transform="translate(7.2 349.206729712)scale(0.24 -0.24)">
       <use xlink:href="#BitstreamVeraSans-Roman-2d"/>
       <use x="36.083984375" xlink:href="#BitstreamVeraSans-Roman-30"/>
       <use x="99.70703125" xlink:href="#BitstreamVeraSans-Roman-2e"/>
       <use x="131.494140625" xlink:href="#BitstreamVeraSans-Roman-31"/>
      </g>
     </g>
    </g>
    <g id="ytick_3">
     <g id="line2d_26">
      <path d="
M64.6363 292.217
L557.404 292.217" style="fill:none;stroke:#000000;stroke-dasharray:1.000000,3.000000;stroke-dashoffset:0.0;stroke-linecap:butt;stroke-width:0.5;"/>
     </g>
     <g id="line2d_27">
      <defs>
       <path d="
M0 0
L4 0" id="ma91061271e"/>
      </defs>
      <g>
       <use style="stroke:#000000;stroke-linecap:butt;stroke-width:0.5;" x="54.63625" xlink:href="#ma91061271e" y="292.217427411"/>
      </g>
     </g>
     <g id="text_6">
      <!-- 0 -->
      <g transform="translate(38.5425 300.953052411)scale(0.24 -0.24)">
       <use xlink:href="#BitstreamVeraSans-Roman-30"/>
      </g>
     </g>
    </g>
    <g id="ytick_4">
     <g id="line2d_28">
      <path d="
M64.6363 243.964
L557.404 243.964" style="fill:none;stroke:#000000;stroke-dasharray:1.000000,3.000000;stroke-dashoffset:0.0;stroke-linecap:butt;stroke-width:0.5;"/>
     </g>
     <g id="line2d_29">
      <defs>
       <path d="
M0 0
L4 0" id="ma91061271e"/>
      </defs>
      <g>
       <use style="stroke:#000000;stroke-linecap:butt;stroke-width:0.5;" x="54.63625" xlink:href="#ma91061271e" y="243.96375011"/>
      </g>
     </g>
     <g id="text_7">
      <!-- 0.1 -->
      <g transform="translate(16.2675 252.69937511)scale(0.24 -0.24)">
       <use xlink:href="#BitstreamVeraSans-Roman-30"/>
       <use x="63.623046875" xlink:href="#BitstreamVeraSans-Roman-2e"/>
       <use x="95.41015625" xlink:href="#BitstreamVeraSans-Roman-31"/>
      </g>
     </g>
    </g>
    <g id="ytick_5">
     <g id="line2d_30">
      <path d="
M64.6363 195.71
L557.404 195.71" style="fill:none;stroke:#000000;stroke-dasharray:1.000000,3.000000;stroke-dashoffset:0.0;stroke-linecap:butt;stroke-width:0.5;"/>
     </g>
     <g id="line2d_31">
      <defs>
       <path d="
M0 0
L4 0" id="ma91061271e"/>
      </defs>
      <g>
       <use style="stroke:#000000;stroke-linecap:butt;stroke-width:0.5;" x="54.63625" xlink:href="#ma91061271e" y="195.710072809"/>
      </g>
     </g>
     <g id="text_8">
      <!-- 0.2 -->
      <g transform="translate(16.455 204.445697809)scale(0.24 -0.24)">
       <use xlink:href="#BitstreamVeraSans-Roman-30"/>
       <use x="63.623046875" xlink:href="#BitstreamVeraSans-Roman-2e"/>
       <use x="95.41015625" xlink:href="#BitstreamVeraSans-Roman-32"/>
      </g>
     </g>
    </g>
    <g id="ytick_6">
     <g id="line2d_32">
      <path d="
M64.6363 147.456
L557.404 147.456" style="fill:none;stroke:#000000;stroke-dasharray:1.000000,3.000000;stroke-dashoffset:0.0;stroke-linecap:butt;stroke-width:0.5;"/>
     </g>
     <g id="line2d_33">
      <defs>
       <path d="
M0 0
L4 0" id="ma91061271e"/>
      </defs>
      <g>
       <use style="stroke:#000000;stroke-linecap:butt;stroke-width:0.5;" x="54.63625" xlink:href="#ma91061271e" y="147.456395508"/>
      </g>
     </g>
     <g id="text_9">
      <!-- 0.3 -->
      <defs>
       <path d="
M40.5781 39.3125
Q47.6562 37.7969 51.625 33
Q55.6094 28.2188 55.6094 21.1875
Q55.6094 10.4062 48.1875 4.48438
Q40.7656 -1.42188 27.0938 -1.42188
Q22.5156 -1.42188 17.6562 -0.515625
Q12.7969 0.390625 7.625 2.20312
L7.625 11.7188
Q11.7188 9.32812 16.5938 8.10938
Q21.4844 6.89062 26.8125 6.89062
Q36.0781 6.89062 40.9375 10.5469
Q45.7969 14.2031 45.7969 21.1875
Q45.7969 27.6406 41.2812 31.2656
Q36.7656 34.9062 28.7188 34.9062
L20.2188 34.9062
L20.2188 43.0156
L29.1094 43.0156
Q36.375 43.0156 40.2344 45.9219
Q44.0938 48.8281 44.0938 54.2969
Q44.0938 59.9062 40.1094 62.9062
Q36.1406 65.9219 28.7188 65.9219
Q24.6562 65.9219 20.0156 65.0312
Q15.375 64.1562 9.8125 62.3125
L9.8125 71.0938
Q15.4375 72.6562 20.3438 73.4375
Q25.25 74.2188 29.5938 74.2188
Q40.8281 74.2188 47.3594 69.1094
Q53.9062 64.0156 53.9062 55.3281
Q53.9062 49.2656 50.4375 45.0938
Q46.9688 40.9219 40.5781 39.3125" id="BitstreamVeraSans-Roman-33"/>
      </defs>
      <g transform="translate(15.975 156.192020508)scale(0.24 -0.24)">
       <use xlink:href="#BitstreamVeraSans-Roman-30"/>
       <use x="63.623046875" xlink:href="#BitstreamVeraSans-Roman-2e"/>
       <use x="95.41015625" xlink:href="#BitstreamVeraSans-Roman-33"/>
      </g>
     </g>
    </g>
    <g id="ytick_7">
     <g id="line2d_34">
      <path d="
M64.6363 99.2027
L557.404 99.2027" style="fill:none;stroke:#000000;stroke-dasharray:1.000000,3.000000;stroke-dashoffset:0.0;stroke-linecap:butt;stroke-width:0.5;"/>
     </g>
     <g id="line2d_35">
      <defs>
       <path d="
M0 0
L4 0" id="ma91061271e"/>
      </defs>
      <g>
       <use style="stroke:#000000;stroke-linecap:butt;stroke-width:0.5;" x="54.63625" xlink:href="#ma91061271e" y="99.2027182073"/>
      </g>
     </g>
     <g id="text_10">
      <!-- 0.4 -->
      <defs>
       <path d="
M37.7969 64.3125
L12.8906 25.3906
L37.7969 25.3906
z

M35.2031 72.9062
L47.6094 72.9062
L47.6094 25.3906
L58.0156 25.3906
L58.0156 17.1875
L47.6094 17.1875
L47.6094 0
L37.7969 0
L37.7969 17.1875
L4.89062 17.1875
L4.89062 26.7031
z
" id="BitstreamVeraSans-Roman-34"/>
      </defs>
      <g transform="translate(15.3975 107.938343207)scale(0.24 -0.24)">
       <use xlink:href="#BitstreamVeraSans-Roman-30"/>
       <use x="63.623046875" xlink:href="#BitstreamVeraSans-Roman-2e"/>
       <use x="95.41015625" xlink:href="#BitstreamVeraSans-Roman-34"/>
      </g>
     </g>
    </g>
    <g id="ytick_8">
     <g id="line2d_36">
      <path d="
M64.6363 50.949
L557.404 50.949" style="fill:none;stroke:#000000;stroke-dasharray:1.000000,3.000000;stroke-dashoffset:0.0;stroke-linecap:butt;stroke-width:0.5;"/>
     </g>
     <g id="line2d_37">
      <defs>
       <path d="
M0 0
L4 0" id="ma91061271e"/>
      </defs>
      <g>
       <use style="stroke:#000000;stroke-linecap:butt;stroke-width:0.5;" x="54.63625" xlink:href="#ma91061271e" y="50.9490409064"/>
      </g>
     </g>
     <g id="text_11">
      <!-- 0.5 -->
      <g transform="translate(16.1475 59.6846659064)scale(0.24 -0.24)">
       <use xlink:href="#BitstreamVeraSans-Roman-30"/>
       <use x="63.623046875" xlink:href="#BitstreamVeraSans-Roman-2e"/>
       <use x="95.41015625" xlink:href="#BitstreamVeraSans-Roman-35"/>
      </g>
     </g>
    </g>
    <g id="ytick_9">
     <g id="line2d_38">
      <defs>
       <path d="
M0 0
L2 0" id="m2a082c8a30"/>
      </defs>
      <g>
       <use style="stroke:#000000;stroke-linecap:butt;stroke-width:0.5;" x="54.63625" xlink:href="#m2a082c8a30" y="408.026252933"/>
      </g>
     </g>
    </g>
    <g id="ytick_10">
     <g id="line2d_39">
      <defs>
       <path d="
M0 0
L2 0" id="m2a082c8a30"/>
      </defs>
      <g>
       <use style="stroke:#000000;stroke-linecap:butt;stroke-width:0.5;" x="54.63625" xlink:href="#m2a082c8a30" y="398.375517473"/>
      </g>
     </g>
    </g>
    <g id="ytick_11">
     <g id="line2d_40">
      <defs>
       <path d="
M0 0
L2 0" id="m2a082c8a30"/>
      </defs>
      <g>
       <use style="stroke:#000000;stroke-linecap:butt;stroke-width:0.5;" x="54.63625" xlink:href="#m2a082c8a30" y="379.074046553"/>
      </g>
     </g>
    </g>
    <g id="ytick_12">
     <g id="line2d_41">
      <defs>
       <path d="
M0 0
L2 0" id="m2a082c8a30"/>
      </defs>
      <g>
       <use style="stroke:#000000;stroke-linecap:butt;stroke-width:0.5;" x="54.63625" xlink:href="#m2a082c8a30" y="369.423311092"/>
      </g>
     </g>
    </g>
    <g id="ytick_13">
     <g id="line2d_42">
      <defs>
       <path d="
M0 0
L2 0" id="m2a082c8a30"/>
      </defs>
      <g>
       <use style="stroke:#000000;stroke-linecap:butt;stroke-width:0.5;" x="54.63625" xlink:href="#m2a082c8a30" y="359.772575632"/>
      </g>
     </g>
    </g>
    <g id="ytick_14">
     <g id="line2d_43">
      <defs>
       <path d="
M0 0
L2 0" id="m2a082c8a30"/>
      </defs>
      <g>
       <use style="stroke:#000000;stroke-linecap:butt;stroke-width:0.5;" x="54.63625" xlink:href="#m2a082c8a30" y="350.121840172"/>
      </g>
     </g>
    </g>
    <g id="ytick_15">
     <g id="line2d_44">
      <defs>
       <path d="
M0 0
L2 0" id="m2a082c8a30"/>
      </defs>
      <g>
       <use style="stroke:#000000;stroke-linecap:butt;stroke-width:0.5;" x="54.63625" xlink:href="#m2a082c8a30" y="330.820369252"/>
      </g>
     </g>
    </g>
    <g id="ytick_16">
     <g id="line2d_45">
      <defs>
       <path d="
M0 0
L2 0" id="m2a082c8a30"/>
      </defs>
      <g>
       <use style="stroke:#000000;stroke-linecap:butt;stroke-width:0.5;" x="54.63625" xlink:href="#m2a082c8a30" y="321.169633792"/>
      </g>
     </g>
    </g>
    <g id="ytick_17">
     <g id="line2d_46">
      <defs>
       <path d="
M0 0
L2 0" id="m2a082c8a30"/>
      </defs>
      <g>
       <use style="stroke:#000000;stroke-linecap:butt;stroke-width:0.5;" x="54.63625" xlink:href="#m2a082c8a30" y="311.518898331"/>
      </g>
     </g>
    </g>
    <g id="ytick_18">
     <g id="line2d_47">
      <defs>
       <path d="
M0 0
L2 0" id="m2a082c8a30"/>
      </defs>
      <g>
       <use style="stroke:#000000;stroke-linecap:butt;stroke-width:0.5;" x="54.63625" xlink:href="#m2a082c8a30" y="301.868162871"/>
      </g>
     </g>
    </g>
    <g id="ytick_19">
     <g id="line2d_48">
      <defs>
       <path d="
M0 0
L2 0" id="m2a082c8a30"/>
      </defs>
      <g>
       <use style="stroke:#000000;stroke-linecap:butt;stroke-width:0.5;" x="54.63625" xlink:href="#m2a082c8a30" y="282.566691951"/>
      </g>
     </g>
    </g>
    <g id="ytick_20">
     <g id="line2d_49">
      <defs>
       <path d="
M0 0
L2 0" id="m2a082c8a30"/>
      </defs>
      <g>
       <use style="stroke:#000000;stroke-linecap:butt;stroke-width:0.5;" x="54.63625" xlink:href="#m2a082c8a30" y="272.915956491"/>
      </g>
     </g>
    </g>
    <g id="ytick_21">
     <g id="line2d_50">
      <defs>
       <path d="
M0 0
L2 0" id="m2a082c8a30"/>
      </defs>
      <g>
       <use style="stroke:#000000;stroke-linecap:butt;stroke-width:0.5;" x="54.63625" xlink:href="#m2a082c8a30" y="263.26522103"/>
      </g>
     </g>
    </g>
    <g id="ytick_22">
     <g id="line2d_51">
      <defs>
       <path d="
M0 0
L2 0" id="m2a082c8a30"/>
      </defs>
      <g>
       <use style="stroke:#000000;stroke-linecap:butt;stroke-width:0.5;" x="54.63625" xlink:href="#m2a082c8a30" y="253.61448557"/>
      </g>
     </g>
    </g>
    <g id="ytick_23">
     <g id="line2d_52">
      <defs>
       <path d="
M0 0
L2 0" id="m2a082c8a30"/>
      </defs>
      <g>
       <use style="stroke:#000000;stroke-linecap:butt;stroke-width:0.5;" x="54.63625" xlink:href="#m2a082c8a30" y="234.31301465"/>
      </g>
     </g>
    </g>
    <g id="ytick_24">
     <g id="line2d_53">
      <defs>
       <path d="
M0 0
L2 0" id="m2a082c8a30"/>
      </defs>
      <g>
       <use style="stroke:#000000;stroke-linecap:butt;stroke-width:0.5;" x="54.63625" xlink:href="#m2a082c8a30" y="224.66227919"/>
      </g>
     </g>
    </g>
    <g id="ytick_25">
     <g id="line2d_54">
      <defs>
       <path d="
M0 0
L2 0" id="m2a082c8a30"/>
      </defs>
      <g>
       <use style="stroke:#000000;stroke-linecap:butt;stroke-width:0.5;" x="54.63625" xlink:href="#m2a082c8a30" y="215.01154373"/>
      </g>
     </g>
    </g>
    <g id="ytick_26">
     <g id="line2d_55">
      <defs>
       <path d="
M0 0
L2 0" id="m2a082c8a30"/>
      </defs>
      <g>
       <use style="stroke:#000000;stroke-linecap:butt;stroke-width:0.5;" x="54.63625" xlink:href="#m2a082c8a30" y="205.360808269"/>
      </g>
     </g>
    </g>
    <g id="ytick_27">
     <g id="line2d_56">
      <defs>
       <path d="
M0 0
L2 0" id="m2a082c8a30"/>
      </defs>
      <g>
       <use style="stroke:#000000;stroke-linecap:butt;stroke-width:0.5;" x="54.63625" xlink:href="#m2a082c8a30" y="195.710072809"/>
      </g>
     </g>
    </g>
    <g id="ytick_28">
     <g id="line2d_57">
      <defs>
       <path d="
M0 0
L2 0" id="m2a082c8a30"/>
      </defs>
      <g>
       <use style="stroke:#000000;stroke-linecap:butt;stroke-width:0.5;" x="54.63625" xlink:href="#m2a082c8a30" y="186.059337349"/>
      </g>
     </g>
    </g>
    <g id="ytick_29">
     <g id="line2d_58">
      <defs>
       <path d="
M0 0
L2 0" id="m2a082c8a30"/>
      </defs>
      <g>
       <use style="stroke:#000000;stroke-linecap:butt;stroke-width:0.5;" x="54.63625" xlink:href="#m2a082c8a30" y="176.408601889"/>
      </g>
     </g>
    </g>
    <g id="ytick_30">
     <g id="line2d_59">
      <defs>
       <path d="
M0 0
L2 0" id="m2a082c8a30"/>
      </defs>
      <g>
       <use style="stroke:#000000;stroke-linecap:butt;stroke-width:0.5;" x="54.63625" xlink:href="#m2a082c8a30" y="166.757866429"/>
      </g>
     </g>
    </g>
    <g id="ytick_31">
     <g id="line2d_60">
      <defs>
       <path d="
M0 0
L2 0" id="m2a082c8a30"/>
      </defs>
      <g>
       <use style="stroke:#000000;stroke-linecap:butt;stroke-width:0.5;" x="54.63625" xlink:href="#m2a082c8a30" y="157.107130968"/>
      </g>
     </g>
    </g>
    <g id="ytick_32">
     <g id="line2d_61">
      <defs>
       <path d="
M0 0
L2 0" id="m2a082c8a30"/>
      </defs>
      <g>
       <use style="stroke:#000000;stroke-linecap:butt;stroke-width:0.5;" x="54.63625" xlink:href="#m2a082c8a30" y="137.805660048"/>
      </g>
     </g>
    </g>
    <g id="ytick_33">
     <g id="line2d_62">
      <defs>
       <path d="
M0 0
L2 0" id="m2a082c8a30"/>
      </defs>
      <g>
       <use style="stroke:#000000;stroke-linecap:butt;stroke-width:0.5;" x="54.63625" xlink:href="#m2a082c8a30" y="128.154924588"/>
      </g>
     </g>
    </g>
    <g id="ytick_34">
     <g id="line2d_63">
      <defs>
       <path d="
M0 0
L2 0" id="m2a082c8a30"/>
      </defs>
      <g>
       <use style="stroke:#000000;stroke-linecap:butt;stroke-width:0.5;" x="54.63625" xlink:href="#m2a082c8a30" y="118.504189128"/>
      </g>
     </g>
    </g>
    <g id="ytick_35">
     <g id="line2d_64">
      <defs>
       <path d="
M0 0
L2 0" id="m2a082c8a30"/>
      </defs>
      <g>
       <use style="stroke:#000000;stroke-linecap:butt;stroke-width:0.5;" x="54.63625" xlink:href="#m2a082c8a30" y="108.853453667"/>
      </g>
     </g>
    </g>
    <g id="ytick_36">
     <g id="line2d_65">
      <defs>
       <path d="
M0 0
L2 0" id="m2a082c8a30"/>
      </defs>
      <g>
       <use style="stroke:#000000;stroke-linecap:butt;stroke-width:0.5;" x="54.63625" xlink:href="#m2a082c8a30" y="89.5519827471"/>
      </g>
     </g>
    </g>
    <g id="ytick_37">
     <g id="line2d_66">
      <defs>
       <path d="
M0 0
L2 0" id="m2a082c8a30"/>
      </defs>
      <g>
       <use style="stroke:#000000;stroke-linecap:butt;stroke-width:0.5;" x="54.63625" xlink:href="#m2a082c8a30" y="79.9012472869"/>
      </g>
     </g>
    </g>
    <g id="ytick_38">
     <g id="line2d_67">
      <defs>
       <path d="
M0 0
L2 0" id="m2a082c8a30"/>
      </defs>
      <g>
       <use style="stroke:#000000;stroke-linecap:butt;stroke-width:0.5;" x="54.63625" xlink:href="#m2a082c8a30" y="70.2505118267"/>
      </g>
     </g>
    </g>
    <g id="ytick_39">
     <g id="line2d_68">
      <defs>
       <path d="
M0 0
L2 0" id="m2a082c8a30"/>
      </defs>
      <g>
       <use style="stroke:#000000;stroke-linecap:butt;stroke-width:0.5;" x="54.63625" xlink:href="#m2a082c8a30" y="60.5997763666"/>
      </g>
     </g>
    </g>
    <g id="ytick_40">
     <g id="line2d_69">
      <defs>
       <path d="
M0 0
L2 0" id="m2a082c8a30"/>
      </defs>
      <g>
       <use style="stroke:#000000;stroke-linecap:butt;stroke-width:0.5;" x="54.63625" xlink:href="#m2a082c8a30" y="41.2983054462"/>
      </g>
     </g>
    </g>
    <g id="ytick_41">
     <g id="line2d_70">
      <defs>
       <path d="
M0 0
L2 0" id="m2a082c8a30"/>
      </defs>
      <g>
       <use style="stroke:#000000;stroke-linecap:butt;stroke-width:0.5;" x="54.63625" xlink:href="#m2a082c8a30" y="31.647569986"/>
      </g>
     </g>
    </g>
    <g id="ytick_42">
     <g id="line2d_71">
      <defs>
       <path d="
M0 0
L2 0" id="m2a082c8a30"/>
      </defs>
      <g>
       <use style="stroke:#000000;stroke-linecap:butt;stroke-width:0.5;" x="54.63625" xlink:href="#m2a082c8a30" y="21.9968345258"/>
      </g>
     </g>
    </g>
   </g>
   <g id="patch_3">
    <path d="
M64.6363 292.217
L557.404 292.217" style="fill:none;stroke:#000000;stroke-width:0.8;"/>
   </g>
   <g id="patch_4">
    <path d="
M54.6363 413.28
L54.6363 7.2" style="fill:none;stroke:#000000;stroke-width:0.8;"/>
   </g>
  </g>
 </g>
 <defs>
  <clipPath id="pdbed04beec">
   <rect height="406.08" width="492.7675" x="64.63625" y="7.2"/>
  </clipPath>
 </defs>
</svg>
