<?xml version="1.0" encoding="utf-8" standalone="no"?>
<!DOCTYPE svg PUBLIC "-//W3C//DTD SVG 1.1//EN"
  "http://www.w3.org/Graphics/SVG/1.1/DTD/svg11.dtd">
<!-- Created with matplotlib (http://matplotlib.sourceforge.net/) -->
<svg height="419pt" version="1.1" viewBox="0 0 564 419" width="564pt" xmlns="http://www.w3.org/2000/svg" xmlns:xlink="http://www.w3.org/1999/xlink">
 <defs>
  <style type="text/css">
*{stroke-linecap:square;stroke-linejoin:round;}
  </style>
 </defs>
 <g id="figure_1">
  <g id="patch_1">
   <path d="
M2.22045e-16 419.733
L564.604 419.733
L564.604 0
L2.22045e-16 0
z
" style="fill:#ffffff;"/>
  </g>
  <g id="axes_1">
   <g id="patch_2">
    <path d="
M64.6363 412.533
L557.404 412.533
L557.404 10.4123
L64.6363 10.4123
z
" style="fill:#ffffff;"/>
   </g>
   <g id="line2d_1">
    <path clip-path="url(#p4a77293975)" d="
M74.1125 262.3
L84.9497 262.3
L84.9497 262.3
L84.9497 262.3
L98.6028 262.3
L98.6028 404.8
L107.596 404.8
L107.596 387.251
L119.676 387.251
L119.676 290.603
L124.141 290.603
L124.141 257.337
L131.311 257.337
L131.311 204.428
L134.284 204.428
L134.284 190.306
L139.391 190.306
L139.391 174.787
L145.586 174.787
L145.586 169.254
L147.369 169.254
L147.369 171.208
L152.098 171.208
L152.098 176.029
L154.841 176.029
L154.841 172.566
L158.492 172.588
L158.492 175.276
L161.703 175.276
L161.703 174.535
L164.569 174.535
L164.569 176.403
L165.46 176.403
L165.46 178.538
L167.968 178.538
L167.968 183.71
L169.518 183.71
L169.518 188.411
L170.26 188.411
L170.26 191.495
L172.371 191.495
L172.371 197.143
L173.691 197.143
L173.691 199.609
L175.557 199.609
L175.557 202.055
L177.858 202.055
L177.858 205.282
L178.938 205.282
L178.938 206.889
L179.462 206.889
L179.462 207.861
L180.48 207.861
L180.48 209.459
L180.975 209.459
L180.975 210.163
L181.938 210.163
L181.938 211.854
L185.06 211.854
L185.06 216.749
L185.889 216.749
L185.889 218.65
L187.086 218.65
L187.086 220.994
L187.473 220.994
L187.473 221.564
L189.33 221.564
L189.33 223.421
L190.728 223.506
L190.728 223.92
L191.73 223.92
L191.73 223.622
L192.378 223.622
L192.378 223.482
L193.322 223.482
L193.322 222.612
L194.233 222.612
L194.233 221.231
L194.53 221.231
L194.53 220.729
L195.967 220.729
L195.967 218.253
L196.246 218.253
L196.246 217.646
L196.794 217.646
L196.794 216.497
L197.064 216.497
L197.064 216.047
L198.629 216.047
L198.629 213.312
L200.107 213.312
L200.107 209.945
L200.582 209.945
L200.582 208.886
L200.817 208.886
L200.817 208.473
L201.28 208.473
L201.28 207.821
L201.959 207.821
L201.959 207.17
L202.182 207.17
L202.182 206.834
L203.269 206.834
L203.269 205.268
L203.9 205.268
L203.9 204.125
L204.517 204.125
L204.517 202.787
L205.12 202.787
L205.12 201.646
L205.318 201.646
L205.318 201.234
L205.903 201.234
L205.903 200.121
L206.286 200.121
L206.286 199.445
L206.476 199.445
L206.476 199.178
L207.404 199.178
L207.404 197.996
L208.651 197.996
L208.651 196.761
L208.997 196.761
L208.997 196.534
L209.169 196.534
L209.169 196.339
L209.508 196.339
L209.508 195.898
L210.663 195.898
L210.663 194.537
L211.143 194.537
L211.143 194.088
L211.925 194.088
L211.925 193.538
L212.079 193.538
L212.079 193.389
L212.383 193.389
L212.383 193.05
L212.834 193.05
L212.834 192.433
L213.423 192.433
L213.423 191.601
L213.856 191.601
L213.856 190.946
L214.283 190.946
L214.283 190.249
L214.563 190.249
L214.563 189.786
L214.979 189.786
L214.979 189.105
L215.523 189.105
L215.523 188.151
L215.791 188.151
L215.791 187.705
L216.319 187.705
L216.319 186.633
L216.964 186.633
L216.964 185.258
L217.092 185.258
L217.092 185.029
L217.719 185.029
L217.719 183.653
L217.843 183.653
L217.843 183.442
L218.211 183.442
L218.211 182.689
L218.453 182.689
L218.453 182.295
L218.813 182.295
L218.813 181.74
L219.285 181.74
L219.285 181.195
L219.518 181.195
L219.518 180.944
L219.633 180.944
L219.633 180.807
L219.863 180.807
L219.863 180.516
L220.541 180.516
L220.541 179.565
L220.984 179.565
L220.984 178.951
L221.203 178.951
L221.203 178.605
L221.635 178.605
L221.635 177.884
L221.848 177.884
L221.848 177.483
L222.165 177.483
L222.165 176.953
L222.788 176.953
L222.89 175.872
L223.795 175.872
L223.795 174.822
L224.089 174.822
L224.089 174.394
L224.574 174.394
L224.574 173.534
L224.86 173.534
L224.86 173.023
L225.143 173.023
L225.237 172.394
L225.516 172.394
L225.516 171.973
L225.976 171.973
L225.976 171.28
L226.247 171.28
L226.247 170.797
L226.517 170.797
L226.606 170.103
L226.871 170.103
L226.871 169.51
L227.134 169.51
L227.134 168.892
L227.308 168.892
L227.394 168.216
L227.908 168.216
L227.908 167.079
L228.328 167.079
L228.411 165.789
L228.577 165.789
L228.577 165.388
L228.824 165.388
L228.824 164.814
L229.068 164.814
L229.149 163.959
L229.63 163.959
L229.63 162.574
L229.788 162.574
L229.788 162.123
L230.024 162.123
L230.024 161.489
L230.335 161.489
L230.335 160.567
L230.719 160.567
L230.719 159.422
L231.023 159.422
L231.023 158.518
L231.397 158.518
L231.397 157.464
L231.693 157.464
L231.693 156.683
L231.912 156.683
L231.912 156.088
L232.13 156.088
L232.13 155.509
L232.275 155.509
L232.275 155.143
L232.561 155.143
L232.561 154.498
L232.774 154.498
L232.774 154.032
L232.914 154.032
L232.914 153.764
L233.194 153.764
L233.194 153.217
L233.333 153.217
L233.333 152.974
L233.812 152.974
L233.812 152.296
L234.15 152.296
L234.15 151.779
L234.549 151.779
L234.615 151.025
L234.943 151.025
L235.008 150.363
L235.137 150.363
L235.202 150.005
L235.522 150.005
L235.522 149.469
L235.965 149.469
L235.965 148.649
L236.09 148.649
L236.152 148.279
L236.276 148.279
L236.276 148.005
L236.706 148.005
L236.706 146.987
L236.828 146.987
L236.889 146.593
L237.009 146.593
L237.009 146.372
L237.605 146.372
L237.605 145.401
L237.723 145.401
L237.723 145.233
L237.957 145.233
L237.957 144.872
L238.246 144.872
L238.246 144.479
L238.475 144.479
L238.475 144.135
L238.589 144.135
L238.589 143.94
L238.759 143.94
L238.759 143.68
L238.928 143.68
L238.928 143.412
L239.317 143.412
L239.428 142.501
L239.592 142.501
L239.592 142.248
L239.756 142.248
L239.756 141.974
L239.973 141.974
L239.973 141.634
L240.134 141.634
L240.134 141.393
L240.454 141.393
L240.559 140.878
L240.717 140.878
L240.77 140.619
L241.03 140.619
L241.082 140.18
L241.237 140.18
L241.237 139.976
L241.493 139.976
L241.544 139.627
L241.797 139.627
L241.847 139.337
L241.998 139.337
L241.998 139.147
L242.444 139.147
L242.542 138.557
L242.689 138.493
L242.689 138.377
L242.834 138.377
L242.834 138.206
L242.979 138.206
L242.979 138.023
L243.172 138.023
L243.172 137.767
L243.315 137.767
L243.315 137.603
L243.457 137.603
L243.457 137.441
L243.973 137.441
L244.019 136.9
L244.25 136.9
L244.25 136.743
L244.661 136.656
L244.661 136.536
L244.931 136.452
L244.931 136.386
L245.375 136.32
L245.463 136.131
L245.726 136.066
L245.769 135.986
L246.157 135.908
L246.157 135.745
L246.37 135.745
L246.37 135.62
L246.75 135.62
L246.791 135.414
L247.165 135.305
L247.247 135.212
L247.776 135.109
L247.776 135.079
L248.452 135.079
L248.452 134.866
L248.842 134.79
L248.842 134.74
L249.643 134.637
L249.718 134.54
L250.09 134.471
L250.201 134.402
L250.53 134.347
L250.53 134.239
L250.855 134.132
L250.926 134.107
L251.598 134.008
L251.598 133.964
L251.979 133.854
L252.083 133.798
L252.423 133.752
L252.491 133.658
L252.726 133.658
L252.793 133.504
L252.993 133.428
L253.092 133.318
L253.712 133.233
L253.809 133.079
L254.286 133.021
L254.381 132.829
L254.756 132.727
L254.756 132.714
L255.034 132.629
L255.126 132.498
L255.581 132.398
L255.671 132.154
L255.939 132.067
L255.939 131.885
L256.087 131.885
L256.087 131.74
L256.264 131.74
L256.264 131.595
L256.613 131.507
L256.613 131.331
L256.815 131.331
L256.901 131.1
L257.072 130.993
L257.072 130.973
L257.384 130.876
L257.468 130.699
L257.802 130.654
L257.83 130.542
L258.05 130.542
L258.077 130.402
L258.377 130.402
L258.458 130.195
L258.887 130.097
L258.967 130.048
L259.44 129.989
L259.44 129.925
L259.802 129.841
L259.904 129.712
L260.184 129.623
L260.209 129.494
L260.411 129.494
L260.511 129.268
L260.711 129.211
L260.81 129.03
L261.032 129.03
L261.032 128.839
L261.324 128.839
L261.373 128.527
L261.542 128.464
L261.542 128.366
L261.734 128.366
L261.805 128.124
L262.09 128.036
L262.16 127.838
L262.394 127.745
L262.441 127.685
L262.603 127.59
L262.603 127.573
L262.857 127.573
L262.948 127.307
L263.13 127.223
L263.13 127.169
L263.289 127.169
L263.356 126.956
L263.491 126.896
L263.535 126.799
L263.736 126.737
L263.802 126.568
L264.022 126.509
L264.132 126.29
L264.349 126.189
L264.458 126.043
L264.737 126.043
L264.737 125.886
L264.928 125.886
L265.034 125.722
L265.536 125.618
L265.536 125.57
L266.949 125.46
L267.047 125.429
L270.272 125.326
L270.359 125.306
L271.791 125.197
L271.889 125.175
L273.629 125.077
L273.69 124.991
L274.129 124.897
L274.234 124.848
L274.768 124.743
L274.768 124.731
L275.161 124.632
L275.248 124.593
L275.62 124.508
L275.677 124.398
L276.043 124.306
L276.127 124.195
L276.432 124.101
L276.514 124.019
L276.883 123.919
L276.91 123.866
L277.273 123.761
L277.353 123.709
L277.645 123.611
L277.75 123.552
L277.998 123.463
L278.102 123.389
L278.424 123.312
L278.424 123.254
L278.679 123.156
L278.767 123.103
L279.019 123.012
L279.094 122.939
L279.367 122.898
L279.441 122.792
L279.796 122.681
L279.869 122.644
L280.302 122.533
L280.373 122.484
L280.775 122.376
L280.81 122.347
L283.247 122.238
L283.353 122.228
L284.109 122.124
L284.171 122.061
L284.417 121.965
L284.469 121.869
L284.652 121.794
L284.692 121.729
L284.904 121.645
L284.954 121.574
L285.194 121.518
L285.283 121.375
L285.637 121.278
L285.695 121.195
L285.928 121.088
L285.928 121.079
L286.169 120.981
L286.217 120.926
L286.445 120.827
L286.54 120.699
L286.681 120.597
L286.784 120.481
L286.924 120.373
L286.962 120.326
L287.101 120.326
L287.202 120.113
L287.377 120.004
L287.477 119.866
L287.641 119.782
L287.668 119.683
L287.831 119.586
L287.894 119.497
L288.135 119.391
L288.233 119.254
L288.401 119.184
L288.506 119.064
L288.733 118.957
L288.82 118.888
L289.028 118.784
L289.105 118.697
L289.25 118.59
L289.353 118.484
L289.505 118.388
L289.59 118.308
L289.783 118.205
L289.816 118.157
L290.033 118.087
L290.132 117.969
L290.329 117.916
L290.436 117.775
L290.647 117.697
L290.728 117.621
L291.009 117.514
L291.089 117.46
L291.366 117.362
L291.461 117.272
L291.719 117.161
L291.773 117.128
L292.098 117.018
L292.189 116.988
L293.018 116.877
L293.114 116.864
L296.812 116.765
L296.87 116.729
L297.233 116.621
L297.309 116.577
L297.667 116.469
L297.754 116.446
L298.13 116.342
L298.222 116.283
L298.489 116.182
L298.543 116.146
L298.831 116.042
L298.938 116.002
L299.315 115.895
L299.415 115.844
L300.879 115.741
L300.935 115.722
L301.247 115.62
L301.356 115.548
L301.55 115.459
L301.62 115.389
L301.856 115.287
L301.941 115.186
L302.126 115.082
L302.236 115.006
L302.409 114.902
L302.518 114.815
L302.658 114.714
L302.725 114.649
L302.874 114.584
L302.967 114.457
L303.135 114.361
L303.231 114.251
L303.382 114.153
L303.483 114.04
L303.623 113.945
L303.697 113.838
L303.811 113.74
L303.905 113.606
L304.019 113.521
L304.082 113.403
L304.18 113.32
L304.287 113.161
L304.418 113.06
L304.529 112.849
L304.621 112.763
L304.731 112.575
L304.817 112.51
L304.922 112.311
L305.021 112.213
L305.092 112.08
L305.186 112.005
L305.285 111.819
L305.369 111.713
L305.471 111.561
L305.606 111.455
L305.717 111.253
L305.855 111.153
L305.956 110.961
L306.051 110.877
L306.156 110.719
L306.251 110.613
L306.332 110.51
L306.458 110.406
L306.565 110.258
L306.712 110.16
L306.792 110.014
L306.947 109.908
L306.991 109.808
L307.096 109.715
L307.188 109.592
L307.34 109.484
L307.448 109.326
L307.552 109.229
L307.629 109.131
L307.757 109.029
L307.868 108.91
L307.974 108.808
L308.084 108.667
L308.189 108.569
L308.278 108.455
L308.399 108.352
L308.465 108.251
L308.577 108.143
L308.685 108.014
L308.837 107.91
L308.898 107.8
L309.017 107.703
L309.119 107.579
L309.236 107.484
L309.313 107.389
L309.433 107.301
L309.541 107.166
L309.661 107.084
L309.752 106.948
L309.883 106.846
L309.969 106.723
L310.111 106.612
L310.216 106.454
L310.329 106.372
L310.425 106.25
L310.56 106.16
L310.622 106.076
L310.744 106.016
L310.847 105.865
L311.022 105.765
L311.123 105.62
L311.281 105.544
L311.367 105.435
L311.505 105.342
L311.594 105.248
L311.723 105.152
L311.804 105.048
L311.921 104.947
L312.023 104.837
L312.15 104.735
L312.259 104.64
L312.456 104.536
L312.564 104.43
L312.724 104.323
L312.826 104.231
L312.978 104.136
L313.083 104.019
L313.209 103.931
L313.299 103.828
L313.458 103.723
L313.558 103.609
L313.692 103.511
L313.784 103.412
L313.917 103.316
L314.022 103.204
L314.133 103.093
L314.214 103.012
L314.331 102.907
L314.441 102.789
L314.55 102.688
L314.639 102.561
L314.761 102.451
L314.87 102.306
L314.997 102.215
L315.104 102.038
L315.217 101.949
L315.314 101.821
L315.449 101.716
L315.558 101.583
L315.669 101.477
L315.764 101.371
L315.881 101.284
L315.991 101.139
L316.107 101.028
L316.201 100.911
L316.3 100.834
L316.405 100.662
L316.526 100.555
L316.636 100.39
L316.728 100.299
L316.838 100.137
L316.953 100.044
L317.062 99.8278
L317.143 99.756
L317.245 99.5555
L317.323 99.4644
L317.433 99.2768
L317.528 99.2015
L317.611 99.02
L317.687 98.92
L317.796 98.7553
L317.89 98.6681
L317.986 98.5065
L318.073 98.4159
L318.172 98.274
L318.276 98.171
L318.368 98.0467
L318.474 97.9503
L318.568 97.8247
L318.685 97.7511
L318.795 97.5745
L318.914 97.4831
L319.023 97.3368
L319.14 97.2282
L319.243 97.117
L319.377 97.0082
L319.473 96.8914
L319.583 96.7847
L319.687 96.6607
L319.826 96.5839
L319.932 96.3842
L320.032 96.2901
L320.137 96.16
L320.255 96.0545
L320.351 95.9603
L320.497 95.8501
L320.593 95.7525
L320.717 95.6455
L320.827 95.5404
L320.97 95.4314
L321.072 95.333
L321.212 95.2246
L321.317 95.1145
L321.443 95.0071
L321.54 94.8958
L321.662 94.8082
L321.769 94.6567
L321.874 94.547
L321.983 94.4253
L322.1 94.3198
L322.207 94.2145
L322.326 94.1044
L322.43 94.0098
L322.553 93.905
L322.664 93.804
L322.82 93.6965
L322.926 93.5922
L323.059 93.4976
L323.167 93.3819
L323.289 93.282
L323.394 93.1734
L323.518 93.0635
L323.61 92.9738
L323.728 92.8687
L323.805 92.7801
L323.927 92.6812
L324.031 92.5816
L324.184 92.4714
L324.281 92.3869
L324.43 92.2876
L324.533 92.1829
L324.663 92.0746
L324.744 92.0087
L324.889 91.9027
L324.996 91.8168
L325.148 91.7125
L325.257 91.6218
L325.403 91.523
L325.507 91.4247
L325.673 91.3245
L325.763 91.231
L325.893 91.1278
L325.997 91.0345
L326.186 90.9611
L326.28 90.8071
L326.48 90.736
L326.573 90.59
L326.801 90.5117
L326.87 90.3817
L327.082 90.3152
L327.165 90.1898
L327.381 90.1245
L327.46 89.9851
L327.66 89.9072
L327.753 89.7852
L327.952 89.7155
L327.952 89.6514
L328.154 89.5741
L328.252 89.4511
L328.445 89.3902
L328.542 89.2808
L328.745 89.2113
L328.844 89.0969
L329.036 89.0403
L329.134 88.9306
L329.431 88.8358
L329.539 88.7277
L329.924 88.6214
L330.019 88.5493
L330.327 88.4694
L330.417 88.4065
L330.905 88.2976
L331.007 88.2192
L331.3 88.132
L331.398 88.0678
L332.185 87.9657
L332.282 87.9085
L332.809 87.8098
L332.888 87.7388
L333.178 87.6479
L333.285 87.5455
L333.482 87.4924
L333.576 87.3696
L333.764 87.3156
L333.867 87.1977
L334.16 87.0882
L334.26 86.9624
L334.463 86.905
L334.562 86.7874
L334.843 86.6892
L334.943 86.5877
L335.142 86.5356
L335.142 86.4754
L335.339 86.4044
L335.436 86.2991
L335.748 86.1958
L335.842 86.089
L336.038 86.0399
L336.132 85.9042
L336.326 85.8409
L336.423 85.7036
L336.615 85.6293
L336.723 85.4893
L336.922 85.4306
L337.011 85.3007
L337.22 85.2401
L337.305 85.1206
L337.518 85.0539
L337.6 84.9268
L337.818 84.8637
L337.905 84.7468
L338.194 84.6587
L338.289 84.5767
L338.586 84.4832
L338.689 84.3557
L338.883 84.2863
L338.994 84.1436
L339.18 84.0803
L339.279 83.9581
L339.476 83.8918
L339.574 83.7522
L339.772 83.6858
L339.865 83.5864
L340.16 83.4847
L340.265 83.3759
L340.465 83.3231
L340.556 83.2006
L340.754 83.134
L340.852 83.0076
L341.051 82.9278
L341.15 82.8213
L341.349 82.7423
L341.453 82.616
L341.648 82.534
L341.738 82.4094
L341.933 82.3345
L342.033 82.1822
L342.242 82.107
L342.33 81.9569
L342.528 81.8775
L342.622 81.7594
L342.821 81.6972
L342.919 81.5868
L343.116 81.5273
L343.116 81.4552
L343.312 81.3769
L343.41 81.2543
L343.609 81.191
L343.71 81.075
L343.902 81.0151
L344.008 80.8955
L344.204 80.8463
L344.297 80.7195
L344.492 80.648
L344.593 80.4985
L344.791 80.4274
L344.891 80.2899
L345.085 80.219
L345.183 80.079
L345.382 80.007
L345.481 79.8479
L345.677 79.7697
L345.774 79.6203
L345.97 79.533
L346.072 79.3673
L346.27 79.2735
L346.366 79.1015
L346.571 79.0152
L346.66 78.8445
L346.86 78.7719
L346.954 78.6499
L347.257 78.5404
L347.348 78.4326
L347.548 78.3705
L347.646 78.2565
L347.945 78.1615
L348.04 78.0706
L348.337 77.9704
L348.438 77.8746
L348.728 77.7903
L348.827 77.6987
L349.121 77.5984
L349.22 77.5116
L349.516 77.4354
L349.615 77.3484
L349.913 77.2556
L350.01 77.1568
L350.303 77.0524
L350.401 76.9644
L350.702 76.8655
L350.794 76.7909
L351.194 76.6864
L351.287 76.6129
L351.682 76.5252
L351.785 76.457
L352.174 76.3671
L352.283 76.3058
L352.766 76.2061
L352.865 76.1697
L353.551 76.0595
L353.651 76.0307
L354.142 75.9335
L354.242 75.867
L354.537 75.7908
L354.635 75.7034
L354.932 75.6085
L355.029 75.5165
L355.324 75.4267
L355.428 75.3429
L355.817 75.2455
L355.918 75.186
L356.706 75.085
L356.805 75.0446
L357.293 74.934
L357.393 74.8748
L358.376 74.7706
L358.479 74.7535
L360.061 74.6442
L360.15 74.6168
L361.331 74.5086
L361.429 74.4869
L362.125 74.3788
L362.22 74.3187
L362.713 74.214
L362.808 74.1691
L363.204 74.0768
L363.3 74.0097
L363.695 73.9191
L363.793 73.8592
L364.288 73.7566
L364.386 73.7215
L365.073 73.6239
L365.171 73.595
L365.861 73.489
L365.958 73.452
L367.636 73.5587
L367.731 73.5688
L368.717 73.4822
L368.815 73.4305
L369.504 73.3245
L369.604 73.307
L371.571 73.1998
L371.67 73.1835
L373.738 73.0735
L373.838 73.0649
L375.313 72.9579
L375.411 72.9331
L376.299 72.8233
L376.398 72.8033
L377.089 72.6925
L377.186 72.6478
L377.775 72.5523
L377.873 72.5179
L378.267 72.4327
L378.367 72.375
L379.35 72.2709
L379.449 72.2429
L380.039 72.1503
L380.138 72.0916
L380.535 71.999
L380.63 71.9444
L381.024 71.8458
L381.123 71.7682
L381.516 71.6607
L381.615 71.5898
L381.911 71.5061
L382.011 71.4216
L382.305 71.3419
L382.403 71.2576
L382.699 71.1641
L382.797 71.0574
L383.092 70.9641
L383.191 70.8823
L383.585 70.7743
L383.683 70.6927
L383.979 70.6028
L384.077 70.511
L384.374 70.41
L384.471 70.3027
L384.766 70.2034
L384.867 70.1067
L385.16 70.0222
L385.258 69.9387
L385.554 69.8589
L385.655 69.7887
L386.046 69.6958
L386.146 69.6186
L386.539 69.5108
L386.639 69.4196
L386.934 69.3257
L387.031 69.2457
L387.327 69.1593
L387.425 69.0691
L387.722 68.972
L387.818 68.8749
L388.114 68.7797
L388.213 68.6817
L388.508 68.5917
L388.609 68.5025
L389 68.3958
L389.098 68.3303
L389.493 68.2365
L389.591 68.1811
L390.083 68.0792
L390.185 68.0109
L390.477 67.9248
L390.577 67.8409
L390.871 67.7644
L390.969 67.6743
L391.266 67.591
L391.363 67.5152
L391.66 67.4292
L391.758 67.3496
L392.055 67.2612
L392.151 67.1646
L392.446 67.067
L392.545 66.9694
L392.84 66.8736
L392.939 66.7792
L393.234 66.6844
L393.334 66.5958
L393.628 66.5089
L393.728 66.4196
L394.024 66.3329
L394.121 66.2534
L394.517 66.1504
L394.613 66.0859
L395.006 65.9955
L395.105 65.9495
L395.6 65.8492
L395.697 65.8163
L396.09 65.7317
L396.188 65.6599
L396.584 65.5622
L396.68 65.5068
L397.077 65.3991
L397.175 65.3182
L397.469 65.2456
L397.567 65.1636
L397.862 65.0816
L397.961 64.9972
L398.256 64.9119
L398.356 64.836
L398.651 64.7603
L398.748 64.6848
L399.045 64.6059
L399.142 64.5157
L399.438 64.4268
L399.536 64.3451
L399.832 64.268
L399.93 64.1959
L400.324 64.1042
L400.422 64.0518
L400.916 63.9452
L401.014 63.8972
L401.506 63.804
L401.604 63.7569
L402.096 63.6601
L402.195 63.6032
L402.589 63.5032
L402.687 63.4336
L402.984 63.3551
L403.081 63.265
L403.476 63.1568
L403.574 63.0682
L403.871 62.9699
L403.968 62.8686
L404.263 62.7715
L404.361 62.6829
L404.657 62.5967
L404.755 62.5205
L405.051 62.4344
L405.149 62.3447
L405.444 62.2573
L405.543 62.1675
L405.838 62.0725
L405.937 61.9834
L406.232 61.8855
L406.331 61.7951
L406.628 61.7188
L406.724 61.6349
L407.02 61.5425
L407.118 61.4507
L407.413 61.3435
L407.512 61.218
L407.709 61.155
L407.807 61.0392
L408.004 60.9851
L408.103 60.8687
L408.3 60.8092
L408.398 60.7001
L408.694 60.5977
L408.792 60.494
L409.087 60.405
L409.186 60.3288
L409.482 60.2485
L409.58 60.1636
L409.875 60.0746
L409.974 59.9705
L410.269 59.8786
L410.368 59.7906
L410.663 59.7103
L410.762 59.6257
L411.057 59.536
L411.155 59.4446
L411.451 59.3563
L411.55 59.2639
L411.845 59.1824
L411.944 59.0869
L412.239 58.9897
L412.337 58.8878
L412.632 58.7918
L412.731 58.6889
L413.027 58.5795
L413.125 58.4718
L413.322 58.4179
L413.42 58.2928
L413.617 58.2246
L413.716 58.0934
L413.912 58.0314
L414.011 57.9195
L414.208 57.8634
L414.306 57.7508
L414.503 57.6942
L414.602 57.5736
L414.799 57.5089
L414.897 57.3706
L415.094 57.298
L415.193 57.1558
L415.39 57.0855
L415.488 56.9451
L415.685 56.8717
L415.783 56.7375
L415.98 56.673
L416.08 56.5339
L416.276 56.4622
L416.375 56.3134
L416.571 56.2454
L416.67 56.0981
L416.867 56.0218
L416.965 55.8751
L417.163 55.8023
L417.26 55.6697
L417.457 55.6054
L417.556 55.4799
L417.753 55.4181
L417.852 55.2886
L418.049 55.2237
L418.146 55.0954
L418.343 55.0316
L418.442 54.9065
L418.639 54.8409
L418.737 54.7085
L418.934 54.6405
L419.033 54.5031
L419.231 54.4327
L419.328 54.3072
L419.525 54.2483
L419.624 54.1458
L419.919 54.0449
L420.018 53.9486
L420.313 53.8475
L420.411 53.7563
L420.707 53.6735
L420.806 53.592
L421.101 53.5106
L421.199 53.4404
L421.691 53.335
L421.79 53.2877
L422.282 53.178
L422.381 53.1104
L422.677 53.0339
L422.775 52.9569
L423.07 52.8761
L423.168 52.7953
L423.464 52.7138
L423.562 52.6288
L423.858 52.545
L423.956 52.4644
L424.252 52.3651
L424.35 52.2648
L424.645 52.1681
L424.744 52.0768
L425.039 51.9957
L425.138 51.9106
L425.434 51.8279
L425.532 51.7418
L425.827 51.6418
L425.926 51.5355
L426.221 51.4323
L426.319 51.328
L426.615 51.2292
L426.713 51.1257
L427.009 51.0266
L427.107 50.9309
L427.304 50.8745
L427.403 50.7669
L427.698 50.6626
L427.797 50.5495
L428.092 50.4417
L428.19 50.3193
L428.486 50.2092
L428.585 50.1149
L428.88 50.0244
L428.978 49.9252
L429.274 49.8308
L429.372 49.7418
L429.668 49.6544
L429.766 49.5588
L430.061 49.471
L430.16 49.385
L430.456 49.2936
L430.554 49.1966
L430.849 49.0938
L430.947 49.0005
L431.243 48.8999
L431.341 48.7906
L431.637 48.6908
L431.735 48.6024
L432.03 48.5112
L432.129 48.4069
L432.424 48.3099
L432.523 48.2185
L432.818 48.1248
L432.918 48.0312
L433.212 47.9402
L433.311 47.8544
L433.606 47.7653
L433.704 47.6678
L434 47.5731
L434.098 47.4996
L434.492 47.4032
L434.592 47.3363
L434.985 47.2313
L435.083 47.1689
L435.477 47.0834
L435.576 47.0347
L436.068 46.9451
L436.166 46.886
L436.56 46.7852
L436.658 46.7157
L436.954 46.6373
L437.053 46.547
L437.348 46.4552
L437.446 46.3612
L437.742 46.2733
L437.84 46.1945
L438.234 46.0882
L438.332 46.0119
L438.628 45.9315
L438.726 45.853
L439.022 45.7696
L439.12 45.6903
L439.514 45.5901
L439.613 45.5184
L439.908 45.4418
L440.006 45.3684
L440.4 45.2728
L440.499 45.2078
L440.893 45.1232
L440.991 45.0673
L441.385 44.9581
L441.483 44.8844
L441.877 44.7743
L441.976 44.7166
L442.468 44.6175
L442.567 44.572
L443.157 44.4656
L443.256 44.414
L443.847 44.3167
L443.945 44.2805
L444.634 44.1788
L444.733 44.1487
L445.521 44.0494
L445.619 44.0187
L446.21 43.9191
L446.308 43.866
L446.703 43.7775
L446.801 43.7179
L447.293 43.6071
L447.391 43.5459
L447.884 43.4375
L447.982 43.3938
L448.475 43.3054
L448.573 43.2606
L449.164 43.1609
L449.263 43.1181
L449.853 43.0071
L449.952 42.9752
L450.838 42.8662
L450.936 42.848
L452.216 42.7403
L452.315 42.7122
L453.004 42.6039
L453.103 42.5546
L453.595 42.4595
L453.693 42.4017
L454.087 42.3105
L454.186 42.2626
L454.58 42.1764
L454.678 42.1252
L455.17 42.0283
L455.269 41.9897
L455.86 41.8959
L455.958 41.8573
L456.746 41.7479
L456.844 41.7351
L461.669 41.6269
L461.768 41.6001
L462.359 41.5091
L462.457 41.4647
L462.949 41.3681
L463.048 41.3282
L463.54 41.2412
L463.639 41.1879
L464.033 41.1089
L464.131 41.0448
L464.525 40.9418
L464.623 40.8711
L465.214 40.7668
L465.313 40.7289
L465.805 40.6386
L465.903 40.5824
L466.297 40.4821
L466.396 40.4151
L466.79 40.321
L466.888 40.2578
L467.282 40.1638
L467.381 40.1053
L467.873 39.9998
L467.971 39.9374
L468.365 39.837
L468.464 39.7698
L468.858 39.6604
L468.956 39.5867
L469.35 39.4832
L469.448 39.4193
L469.842 39.3316
L469.941 39.2832
L470.433 39.1951
L470.531 39.1376
L470.925 39.0492
L471.024 38.9968
L471.516 38.8987
L471.615 38.8583
L472.107 38.7657
L472.205 38.7094
L472.599 38.6207
L472.698 38.5638
L473.19 38.4609
L473.289 38.4174
L474.076 38.3137
L474.175 38.2779
L474.766 38.1803
L474.864 38.1362
L475.75 38.0365
L475.849 38.013
L479 37.9053
L479.098 37.8912
L481.855 37.7871
L481.954 37.7701
L482.84 37.6663
L482.938 37.6359
L484.317 37.5258
L484.415 37.5194
L485.892 37.4118
L485.991 37.3769
L486.483 37.2878
L486.582 37.2375
L487.074 37.1447
L487.173 37.0936
L487.763 36.9911
L487.862 36.9534
L488.551 36.8519
L488.65 36.823
L489.437 36.721
L489.536 36.6816
L490.028 36.5897
L490.127 36.5372
L490.521 36.4534
L490.619 36.395
L491.013 36.3052
L491.111 36.2387
L491.505 36.1406
L491.604 36.0778
L491.998 35.9681
L492.096 35.8926
L492.49 35.7819
L492.588 35.7148
L492.982 35.612
L493.081 35.542
L493.376 35.4681
L493.475 35.3878
L493.77 35.3043
L493.868 35.2152
L494.164 35.1272
L494.262 35.0491
L494.558 34.9688
L494.656 34.8857
L494.952 34.8086
L495.05 34.738
L495.444 34.6361
L495.542 34.5618
L495.838 34.4865
L495.936 34.4106
L496.232 34.3335
L496.33 34.2504
L496.626 34.1635
L496.724 34.072
L497.019 33.9853
L497.118 33.8984
L497.413 33.8059
L497.512 33.7189
L497.807 33.6357
L497.906 33.5579
L498.201 33.4796
L498.299 33.3907
L498.595 33.2939
L498.693 33.2025
L498.989 33.1176
L499.087 33.0326
L499.383 32.9406
L499.481 32.8405
L499.777 32.7392
L499.875 32.633
L500.17 32.53
L500.269 32.4339
L500.564 32.3456
L500.663 32.2634
L500.958 32.187
L501.057 32.113
L501.352 32.0298
L501.45 31.9473
L501.844 31.8489
L501.943 31.7878
L502.337 31.6917
L502.435 31.6287
L502.829 31.5324
L502.927 31.4548
L503.223 31.3768
L503.321 31.2996
L503.617 31.2215
L503.715 31.1449
L504.109 31.0458
L504.208 30.9781
L504.601 30.881
L504.7 30.8185
L505.094 30.7188
L505.192 30.6505
L505.586 30.5498
L505.685 30.4823
L505.98 30.4018
L506.078 30.3258
L506.472 30.2234
L506.571 30.1638
L506.965 30.0685
L507.063 30.008
L507.457 29.9184
L507.555 29.8567
L507.949 29.7597
L508.048 29.6954
L508.442 29.5978
L508.54 29.5298
L508.934 29.4295
L509.033 29.3615
L509.426 29.2635
L509.525 29.1992
L509.919 29.1045
L510.017 29.0432
L510.411 28.9512
L510.51 28.8887
L510.903 28.7921
L511.002 28.7227
L511.396 28.62
L511.494 28.5465
L511.888 28.4458
L511.987 28.3752
L512.38 28.2766
L512.479 28.2058
L512.774 28.1289
L512.873 28.0494
L513.168 27.9664
L513.267 27.8871
L513.562 27.8084
L513.661 27.7255
L513.956 27.6402
L514.054 27.5613
L514.448 27.455
L514.547 27.3907
L514.941 27.2999
L515.039 27.2362
L515.433 27.1448
L515.531 27.0887
L515.925 27.0009
L516.024 26.9422
L516.418 26.8494
L516.516 26.7906
L516.91 26.6963
L517.008 26.6388
L517.402 26.551
L517.501 26.4911
L517.895 26.4062
L517.993 26.3507
L518.485 26.2447
L518.584 26.1971
L519.076 26.0896
L519.175 26.0426
L519.667 25.952
L519.766 25.902
L520.258 25.7957
L520.356 25.7424
L520.849 25.6403
L520.947 25.5901
L521.44 25.4893
L521.538 25.4355
L522.03 25.3346
L522.129 25.2818
L522.621 25.1758
L522.72 25.1215
L523.113 25.0367
L523.212 24.9691
L523.507 24.8881
L523.606 24.8039
L523.901 24.7232
L524 24.6491
L524.394 24.5453
L524.492 24.479
L524.886 24.3899
L524.984 24.3317
L525.378 24.2308
L525.477 24.1699
L525.871 24.0731
L525.969 23.9999
L526.363 23.8898
L526.461 23.8066
L526.757 23.7256
L526.855 23.6427
L527.151 23.5553
L527.249 23.4706
L527.545 23.38
L527.643 23.2888
L527.938 23.2092
L528.037 23.1314
L528.332 23.0551
L528.431 22.9796
L528.726 22.901
L528.825 22.817
L529.219 22.7089
L529.317 22.6387
L529.711 22.5405
L529.809 22.4716
L530.203 22.3851
L530.302 22.3251
L530.696 22.2314
L530.794 22.1677
L531.188 22.0678
L531.286 22.0097
L531.68 21.9054
L531.779 21.8268
L532.074 21.7514
L532.173 21.679
L532.566 21.5781
L532.665 21.5155
L533.157 21.4086
L533.256 21.3554
L533.847 21.2513
L533.945 21.2089
L534.634 21.1054
L534.733 21.0776
L535.52 20.9798
L535.619 20.9495
L536.21 20.8445
L536.308 20.8015
L536.899 20.6944
L536.997 20.6402
L537.49 20.5398
L537.588 20.4918
L538.081 20.3847
L538.179 20.3256
L538.573 20.226
L538.671 20.1669
L539.164 20.0631
L539.262 20.0079
L539.755 19.903
L539.853 19.8498
L540.247 19.7606
L540.345 19.7092
L540.838 19.6049
L540.936 19.558
L541.429 19.4659
L541.527 19.418
L542.019 19.3252
L542.118 19.277
L542.61 19.1822
L542.709 19.1372
L543.201 19.0405
L543.299 18.9969
L543.89 18.8865
L543.989 18.8525
L544.678 18.7436
L544.776 18.7044
L545.367 18.6105
L545.466 18.5751
L546.155 18.4777
L546.254 18.4439
L547.041 18.3458
L547.14 18.3142
L547.731 18.2139
L547.829 18.166
L547.927 18.166
L547.927 18.1454" style="fill:none;stroke:#0000ff;stroke-width:5.0;"/>
   </g>
   <g id="matplotlib.axis_1">
    <g id="xtick_1">
     <g id="line2d_2">
      <path d="
M189.225 412.533
L189.225 10.4123" style="fill:none;stroke:#000000;stroke-dasharray:1.000000,3.000000;stroke-dashoffset:0.0;stroke-linecap:butt;stroke-width:0.5;"/>
     </g>
     <g id="line2d_3">
      <defs>
       <path d="
M0 0
L0 -4" id="m3fbe6c24f1"/>
      </defs>
      <g>
       <use style="stroke:#000000;stroke-linecap:butt;stroke-width:0.5;" x="189.224504283" xlink:href="#m3fbe6c24f1" y="262.300312372"/>
      </g>
     </g>
     <g id="text_1">
      <!-- 5 -->
      <defs>
       <path d="
M10.7969 72.9062
L49.5156 72.9062
L49.5156 64.5938
L19.8281 64.5938
L19.8281 46.7344
Q21.9688 47.4688 24.1094 47.8281
Q26.2656 48.1875 28.4219 48.1875
Q40.625 48.1875 47.75 41.5
Q54.8906 34.8125 54.8906 23.3906
Q54.8906 11.625 47.5625 5.09375
Q40.2344 -1.42188 26.9062 -1.42188
Q22.3125 -1.42188 17.5469 -0.640625
Q12.7969 0.140625 7.71875 1.70312
L7.71875 11.625
Q12.1094 9.23438 16.7969 8.0625
Q21.4844 6.89062 26.7031 6.89062
Q35.1562 6.89062 40.0781 11.3281
Q45.0156 15.7656 45.0156 23.3906
Q45.0156 31 40.0781 35.4375
Q35.1562 39.8906 26.7031 39.8906
Q22.75 39.8906 18.8125 39.0156
Q14.8906 38.1406 10.7969 36.2812
z
" id="BitstreamVeraSans-Roman-35"/>
      </defs>
      <g transform="translate(183.563879283 283.797812372)scale(0.24 -0.24)">
       <use xlink:href="#BitstreamVeraSans-Roman-35"/>
      </g>
     </g>
    </g>
    <g id="xtick_2">
     <g id="line2d_4">
      <path d="
M322.863 412.533
L322.863 10.4123" style="fill:none;stroke:#000000;stroke-dasharray:1.000000,3.000000;stroke-dashoffset:0.0;stroke-linecap:butt;stroke-width:0.5;"/>
     </g>
     <g id="line2d_5">
      <defs>
       <path d="
M0 0
L0 -4" id="m3fbe6c24f1"/>
      </defs>
      <g>
       <use style="stroke:#000000;stroke-linecap:butt;stroke-width:0.5;" x="322.862639868" xlink:href="#m3fbe6c24f1" y="262.300312372"/>
      </g>
     </g>
     <g id="text_2">
      <!-- 10 -->
      <defs>
       <path d="
M31.7812 66.4062
Q24.1719 66.4062 20.3281 58.9062
Q16.5 51.4219 16.5 36.375
Q16.5 21.3906 20.3281 13.8906
Q24.1719 6.39062 31.7812 6.39062
Q39.4531 6.39062 43.2812 13.8906
Q47.125 21.3906 47.125 36.375
Q47.125 51.4219 43.2812 58.9062
Q39.4531 66.4062 31.7812 66.4062
M31.7812 74.2188
Q44.0469 74.2188 50.5156 64.5156
Q56.9844 54.8281 56.9844 36.375
Q56.9844 17.9688 50.5156 8.26562
Q44.0469 -1.42188 31.7812 -1.42188
Q19.5312 -1.42188 13.0625 8.26562
Q6.59375 17.9688 6.59375 36.375
Q6.59375 54.8281 13.0625 64.5156
Q19.5312 74.2188 31.7812 74.2188" id="BitstreamVeraSans-Roman-30"/>
       <path d="
M12.4062 8.29688
L28.5156 8.29688
L28.5156 63.9219
L10.9844 60.4062
L10.9844 69.3906
L28.4219 72.9062
L38.2812 72.9062
L38.2812 8.29688
L54.3906 8.29688
L54.3906 0
L12.4062 0
z
" id="BitstreamVeraSans-Roman-31"/>
      </defs>
      <g transform="translate(309.707639868 284.112812372)scale(0.24 -0.24)">
       <use xlink:href="#BitstreamVeraSans-Roman-31"/>
       <use x="63.623046875" xlink:href="#BitstreamVeraSans-Roman-30"/>
      </g>
     </g>
    </g>
    <g id="xtick_3">
     <g id="line2d_6">
      <path d="
M456.501 412.533
L456.501 10.4123" style="fill:none;stroke:#000000;stroke-dasharray:1.000000,3.000000;stroke-dashoffset:0.0;stroke-linecap:butt;stroke-width:0.5;"/>
     </g>
     <g id="line2d_7">
      <defs>
       <path d="
M0 0
L0 -4" id="m3fbe6c24f1"/>
      </defs>
      <g>
       <use style="stroke:#000000;stroke-linecap:butt;stroke-width:0.5;" x="456.500775453" xlink:href="#m3fbe6c24f1" y="262.300312372"/>
      </g>
     </g>
     <g id="text_3">
      <!-- 15 -->
      <g transform="translate(443.597025453 283.797812372)scale(0.24 -0.24)">
       <use xlink:href="#BitstreamVeraSans-Roman-31"/>
       <use x="63.623046875" xlink:href="#BitstreamVeraSans-Roman-35"/>
      </g>
     </g>
    </g>
    <g id="xtick_4">
     <g id="line2d_8">
      <defs>
       <path d="
M0 0
L0 -2" id="mf0ff38ea95"/>
      </defs>
      <g>
       <use style="stroke:#000000;stroke-linecap:butt;stroke-width:0.5;" x="82.3139958147" xlink:href="#mf0ff38ea95" y="262.300312372"/>
      </g>
     </g>
    </g>
    <g id="xtick_5">
     <g id="line2d_9">
      <defs>
       <path d="
M0 0
L0 -2" id="mf0ff38ea95"/>
      </defs>
      <g>
       <use style="stroke:#000000;stroke-linecap:butt;stroke-width:0.5;" x="109.041622932" xlink:href="#mf0ff38ea95" y="262.300312372"/>
      </g>
     </g>
    </g>
    <g id="xtick_6">
     <g id="line2d_10">
      <defs>
       <path d="
M0 0
L0 -2" id="mf0ff38ea95"/>
      </defs>
      <g>
       <use style="stroke:#000000;stroke-linecap:butt;stroke-width:0.5;" x="135.769250049" xlink:href="#mf0ff38ea95" y="262.300312372"/>
      </g>
     </g>
    </g>
    <g id="xtick_7">
     <g id="line2d_11">
      <defs>
       <path d="
M0 0
L0 -2" id="mf0ff38ea95"/>
      </defs>
      <g>
       <use style="stroke:#000000;stroke-linecap:butt;stroke-width:0.5;" x="162.496877166" xlink:href="#mf0ff38ea95" y="262.300312372"/>
      </g>
     </g>
    </g>
    <g id="xtick_8">
     <g id="line2d_12">
      <defs>
       <path d="
M0 0
L0 -2" id="mf0ff38ea95"/>
      </defs>
      <g>
       <use style="stroke:#000000;stroke-linecap:butt;stroke-width:0.5;" x="215.9521314" xlink:href="#mf0ff38ea95" y="262.300312372"/>
      </g>
     </g>
    </g>
    <g id="xtick_9">
     <g id="line2d_13">
      <defs>
       <path d="
M0 0
L0 -2" id="mf0ff38ea95"/>
      </defs>
      <g>
       <use style="stroke:#000000;stroke-linecap:butt;stroke-width:0.5;" x="242.679758517" xlink:href="#mf0ff38ea95" y="262.300312372"/>
      </g>
     </g>
    </g>
    <g id="xtick_10">
     <g id="line2d_14">
      <defs>
       <path d="
M0 0
L0 -2" id="mf0ff38ea95"/>
      </defs>
      <g>
       <use style="stroke:#000000;stroke-linecap:butt;stroke-width:0.5;" x="269.407385634" xlink:href="#mf0ff38ea95" y="262.300312372"/>
      </g>
     </g>
    </g>
    <g id="xtick_11">
     <g id="line2d_15">
      <defs>
       <path d="
M0 0
L0 -2" id="mf0ff38ea95"/>
      </defs>
      <g>
       <use style="stroke:#000000;stroke-linecap:butt;stroke-width:0.5;" x="296.135012751" xlink:href="#mf0ff38ea95" y="262.300312372"/>
      </g>
     </g>
    </g>
    <g id="xtick_12">
     <g id="line2d_16">
      <defs>
       <path d="
M0 0
L0 -2" id="mf0ff38ea95"/>
      </defs>
      <g>
       <use style="stroke:#000000;stroke-linecap:butt;stroke-width:0.5;" x="349.590266985" xlink:href="#mf0ff38ea95" y="262.300312372"/>
      </g>
     </g>
    </g>
    <g id="xtick_13">
     <g id="line2d_17">
      <defs>
       <path d="
M0 0
L0 -2" id="mf0ff38ea95"/>
      </defs>
      <g>
       <use style="stroke:#000000;stroke-linecap:butt;stroke-width:0.5;" x="376.317894102" xlink:href="#mf0ff38ea95" y="262.300312372"/>
      </g>
     </g>
    </g>
    <g id="xtick_14">
     <g id="line2d_18">
      <defs>
       <path d="
M0 0
L0 -2" id="mf0ff38ea95"/>
      </defs>
      <g>
       <use style="stroke:#000000;stroke-linecap:butt;stroke-width:0.5;" x="403.045521219" xlink:href="#mf0ff38ea95" y="262.300312372"/>
      </g>
     </g>
    </g>
    <g id="xtick_15">
     <g id="line2d_19">
      <defs>
       <path d="
M0 0
L0 -2" id="mf0ff38ea95"/>
      </defs>
      <g>
       <use style="stroke:#000000;stroke-linecap:butt;stroke-width:0.5;" x="429.773148336" xlink:href="#mf0ff38ea95" y="262.300312372"/>
      </g>
     </g>
    </g>
    <g id="xtick_16">
     <g id="line2d_20">
      <defs>
       <path d="
M0 0
L0 -2" id="mf0ff38ea95"/>
      </defs>
      <g>
       <use style="stroke:#000000;stroke-linecap:butt;stroke-width:0.5;" x="483.228402569" xlink:href="#mf0ff38ea95" y="262.300312372"/>
      </g>
     </g>
    </g>
    <g id="xtick_17">
     <g id="line2d_21">
      <defs>
       <path d="
M0 0
L0 -2" id="mf0ff38ea95"/>
      </defs>
      <g>
       <use style="stroke:#000000;stroke-linecap:butt;stroke-width:0.5;" x="509.956029686" xlink:href="#mf0ff38ea95" y="262.300312372"/>
      </g>
     </g>
    </g>
   </g>
   <g id="matplotlib.axis_2">
    <g id="ytick_1">
     <g id="line2d_22">
      <path d="
M64.6363 344.308
L557.404 344.308" style="fill:none;stroke:#000000;stroke-dasharray:1.000000,3.000000;stroke-dashoffset:0.0;stroke-linecap:butt;stroke-width:0.5;"/>
     </g>
     <g id="line2d_23">
      <defs>
       <path d="
M0 0
L4 0" id="mc91e532072"/>
      </defs>
      <g>
       <use style="stroke:#000000;stroke-linecap:butt;stroke-width:0.5;" x="54.63625" xlink:href="#mc91e532072" y="344.308124829"/>
      </g>
     </g>
     <g id="text_4">
      <!-- -0.1 -->
      <defs>
       <path d="
M10.6875 12.4062
L21 12.4062
L21 0
L10.6875 0
z
" id="BitstreamVeraSans-Roman-2e"/>
       <path d="
M4.89062 31.3906
L31.2031 31.3906
L31.2031 23.3906
L4.89062 23.3906
z
" id="BitstreamVeraSans-Roman-2d"/>
      </defs>
      <g transform="translate(7.2 353.043749829)scale(0.24 -0.24)">
       <use xlink:href="#BitstreamVeraSans-Roman-2d"/>
       <use x="36.083984375" xlink:href="#BitstreamVeraSans-Roman-30"/>
       <use x="99.70703125" xlink:href="#BitstreamVeraSans-Roman-2e"/>
       <use x="131.494140625" xlink:href="#BitstreamVeraSans-Roman-31"/>
      </g>
     </g>
    </g>
    <g id="ytick_2">
     <g id="line2d_24">
      <path d="
M64.6363 262.3
L557.404 262.3" style="fill:none;stroke:#000000;stroke-dasharray:1.000000,3.000000;stroke-dashoffset:0.0;stroke-linecap:butt;stroke-width:0.5;"/>
     </g>
     <g id="line2d_25">
      <defs>
       <path d="
M0 0
L4 0" id="mc91e532072"/>
      </defs>
      <g>
       <use style="stroke:#000000;stroke-linecap:butt;stroke-width:0.5;" x="54.63625" xlink:href="#mc91e532072" y="262.300312372"/>
      </g>
     </g>
     <g id="text_5">
      <!-- 0 -->
      <g transform="translate(38.5425 271.035937372)scale(0.24 -0.24)">
       <use xlink:href="#BitstreamVeraSans-Roman-30"/>
      </g>
     </g>
    </g>
    <g id="ytick_3">
     <g id="line2d_26">
      <path d="
M64.6363 180.292
L557.404 180.292" style="fill:none;stroke:#000000;stroke-dasharray:1.000000,3.000000;stroke-dashoffset:0.0;stroke-linecap:butt;stroke-width:0.5;"/>
     </g>
     <g id="line2d_27">
      <defs>
       <path d="
M0 0
L4 0" id="mc91e532072"/>
      </defs>
      <g>
       <use style="stroke:#000000;stroke-linecap:butt;stroke-width:0.5;" x="54.63625" xlink:href="#mc91e532072" y="180.292499915"/>
      </g>
     </g>
     <g id="text_6">
      <!-- 0.1 -->
      <g transform="translate(16.2675 189.028124915)scale(0.24 -0.24)">
       <use xlink:href="#BitstreamVeraSans-Roman-30"/>
       <use x="63.623046875" xlink:href="#BitstreamVeraSans-Roman-2e"/>
       <use x="95.41015625" xlink:href="#BitstreamVeraSans-Roman-31"/>
      </g>
     </g>
    </g>
    <g id="ytick_4">
     <g id="line2d_28">
      <path d="
M64.6363 98.2847
L557.404 98.2847" style="fill:none;stroke:#000000;stroke-dasharray:1.000000,3.000000;stroke-dashoffset:0.0;stroke-linecap:butt;stroke-width:0.5;"/>
     </g>
     <g id="line2d_29">
      <defs>
       <path d="
M0 0
L4 0" id="mc91e532072"/>
      </defs>
      <g>
       <use style="stroke:#000000;stroke-linecap:butt;stroke-width:0.5;" x="54.63625" xlink:href="#mc91e532072" y="98.2846874573"/>
      </g>
     </g>
     <g id="text_7">
      <!-- 0.2 -->
      <defs>
       <path d="
M19.1875 8.29688
L53.6094 8.29688
L53.6094 0
L7.32812 0
L7.32812 8.29688
Q12.9375 14.1094 22.625 23.8906
Q32.3281 33.6875 34.8125 36.5312
Q39.5469 41.8438 41.4219 45.5312
Q43.3125 49.2188 43.3125 52.7812
Q43.3125 58.5938 39.2344 62.25
Q35.1562 65.9219 28.6094 65.9219
Q23.9688 65.9219 18.8125 64.3125
Q13.6719 62.7031 7.8125 59.4219
L7.8125 69.3906
Q13.7656 71.7812 18.9375 73
Q24.125 74.2188 28.4219 74.2188
Q39.75 74.2188 46.4844 68.5469
Q53.2188 62.8906 53.2188 53.4219
Q53.2188 48.9219 51.5312 44.8906
Q49.8594 40.875 45.4062 35.4062
Q44.1875 33.9844 37.6406 27.2188
Q31.1094 20.4531 19.1875 8.29688" id="BitstreamVeraSans-Roman-32"/>
      </defs>
      <g transform="translate(16.455 107.020312457)scale(0.24 -0.24)">
       <use xlink:href="#BitstreamVeraSans-Roman-30"/>
       <use x="63.623046875" xlink:href="#BitstreamVeraSans-Roman-2e"/>
       <use x="95.41015625" xlink:href="#BitstreamVeraSans-Roman-32"/>
      </g>
     </g>
    </g>
    <g id="ytick_5">
     <g id="line2d_30">
      <path d="
M64.6363 16.2769
L557.404 16.2769" style="fill:none;stroke:#000000;stroke-dasharray:1.000000,3.000000;stroke-dashoffset:0.0;stroke-linecap:butt;stroke-width:0.5;"/>
     </g>
     <g id="line2d_31">
      <defs>
       <path d="
M0 0
L4 0" id="mc91e532072"/>
      </defs>
      <g>
       <use style="stroke:#000000;stroke-linecap:butt;stroke-width:0.5;" x="54.63625" xlink:href="#mc91e532072" y="16.276875"/>
      </g>
     </g>
     <g id="text_8">
      <!-- 0.3 -->
      <defs>
       <path d="
M40.5781 39.3125
Q47.6562 37.7969 51.625 33
Q55.6094 28.2188 55.6094 21.1875
Q55.6094 10.4062 48.1875 4.48438
Q40.7656 -1.42188 27.0938 -1.42188
Q22.5156 -1.42188 17.6562 -0.515625
Q12.7969 0.390625 7.625 2.20312
L7.625 11.7188
Q11.7188 9.32812 16.5938 8.10938
Q21.4844 6.89062 26.8125 6.89062
Q36.0781 6.89062 40.9375 10.5469
Q45.7969 14.2031 45.7969 21.1875
Q45.7969 27.6406 41.2812 31.2656
Q36.7656 34.9062 28.7188 34.9062
L20.2188 34.9062
L20.2188 43.0156
L29.1094 43.0156
Q36.375 43.0156 40.2344 45.9219
Q44.0938 48.8281 44.0938 54.2969
Q44.0938 59.9062 40.1094 62.9062
Q36.1406 65.9219 28.7188 65.9219
Q24.6562 65.9219 20.0156 65.0312
Q15.375 64.1562 9.8125 62.3125
L9.8125 71.0938
Q15.4375 72.6562 20.3438 73.4375
Q25.25 74.2188 29.5938 74.2188
Q40.8281 74.2188 47.3594 69.1094
Q53.9062 64.0156 53.9062 55.3281
Q53.9062 49.2656 50.4375 45.0938
Q46.9688 40.9219 40.5781 39.3125" id="BitstreamVeraSans-Roman-33"/>
      </defs>
      <g transform="translate(15.975 25.0125)scale(0.24 -0.24)">
       <use xlink:href="#BitstreamVeraSans-Roman-30"/>
       <use x="63.623046875" xlink:href="#BitstreamVeraSans-Roman-2e"/>
       <use x="95.41015625" xlink:href="#BitstreamVeraSans-Roman-33"/>
      </g>
     </g>
    </g>
    <g id="ytick_6">
     <g id="line2d_32">
      <defs>
       <path d="
M0 0
L2 0" id="m0789224b6b"/>
      </defs>
      <g>
       <use style="stroke:#000000;stroke-linecap:butt;stroke-width:0.5;" x="54.63625" xlink:href="#m0789224b6b" y="409.914374795"/>
      </g>
     </g>
    </g>
    <g id="ytick_7">
     <g id="line2d_33">
      <defs>
       <path d="
M0 0
L2 0" id="m0789224b6b"/>
      </defs>
      <g>
       <use style="stroke:#000000;stroke-linecap:butt;stroke-width:0.5;" x="54.63625" xlink:href="#m0789224b6b" y="393.512812304"/>
      </g>
     </g>
    </g>
    <g id="ytick_8">
     <g id="line2d_34">
      <defs>
       <path d="
M0 0
L2 0" id="m0789224b6b"/>
      </defs>
      <g>
       <use style="stroke:#000000;stroke-linecap:butt;stroke-width:0.5;" x="54.63625" xlink:href="#m0789224b6b" y="377.111249812"/>
      </g>
     </g>
    </g>
    <g id="ytick_9">
     <g id="line2d_35">
      <defs>
       <path d="
M0 0
L2 0" id="m0789224b6b"/>
      </defs>
      <g>
       <use style="stroke:#000000;stroke-linecap:butt;stroke-width:0.5;" x="54.63625" xlink:href="#m0789224b6b" y="360.709687321"/>
      </g>
     </g>
    </g>
    <g id="ytick_10">
     <g id="line2d_36">
      <defs>
       <path d="
M0 0
L2 0" id="m0789224b6b"/>
      </defs>
      <g>
       <use style="stroke:#000000;stroke-linecap:butt;stroke-width:0.5;" x="54.63625" xlink:href="#m0789224b6b" y="327.906562338"/>
      </g>
     </g>
    </g>
    <g id="ytick_11">
     <g id="line2d_37">
      <defs>
       <path d="
M0 0
L2 0" id="m0789224b6b"/>
      </defs>
      <g>
       <use style="stroke:#000000;stroke-linecap:butt;stroke-width:0.5;" x="54.63625" xlink:href="#m0789224b6b" y="311.504999846"/>
      </g>
     </g>
    </g>
    <g id="ytick_12">
     <g id="line2d_38">
      <defs>
       <path d="
M0 0
L2 0" id="m0789224b6b"/>
      </defs>
      <g>
       <use style="stroke:#000000;stroke-linecap:butt;stroke-width:0.5;" x="54.63625" xlink:href="#m0789224b6b" y="295.103437355"/>
      </g>
     </g>
    </g>
    <g id="ytick_13">
     <g id="line2d_39">
      <defs>
       <path d="
M0 0
L2 0" id="m0789224b6b"/>
      </defs>
      <g>
       <use style="stroke:#000000;stroke-linecap:butt;stroke-width:0.5;" x="54.63625" xlink:href="#m0789224b6b" y="278.701874863"/>
      </g>
     </g>
    </g>
    <g id="ytick_14">
     <g id="line2d_40">
      <defs>
       <path d="
M0 0
L2 0" id="m0789224b6b"/>
      </defs>
      <g>
       <use style="stroke:#000000;stroke-linecap:butt;stroke-width:0.5;" x="54.63625" xlink:href="#m0789224b6b" y="262.300312372"/>
      </g>
     </g>
    </g>
    <g id="ytick_15">
     <g id="line2d_41">
      <defs>
       <path d="
M0 0
L2 0" id="m0789224b6b"/>
      </defs>
      <g>
       <use style="stroke:#000000;stroke-linecap:butt;stroke-width:0.5;" x="54.63625" xlink:href="#m0789224b6b" y="245.89874988"/>
      </g>
     </g>
    </g>
    <g id="ytick_16">
     <g id="line2d_42">
      <defs>
       <path d="
M0 0
L2 0" id="m0789224b6b"/>
      </defs>
      <g>
       <use style="stroke:#000000;stroke-linecap:butt;stroke-width:0.5;" x="54.63625" xlink:href="#m0789224b6b" y="229.497187389"/>
      </g>
     </g>
    </g>
    <g id="ytick_17">
     <g id="line2d_43">
      <defs>
       <path d="
M0 0
L2 0" id="m0789224b6b"/>
      </defs>
      <g>
       <use style="stroke:#000000;stroke-linecap:butt;stroke-width:0.5;" x="54.63625" xlink:href="#m0789224b6b" y="213.095624897"/>
      </g>
     </g>
    </g>
    <g id="ytick_18">
     <g id="line2d_44">
      <defs>
       <path d="
M0 0
L2 0" id="m0789224b6b"/>
      </defs>
      <g>
       <use style="stroke:#000000;stroke-linecap:butt;stroke-width:0.5;" x="54.63625" xlink:href="#m0789224b6b" y="196.694062406"/>
      </g>
     </g>
    </g>
    <g id="ytick_19">
     <g id="line2d_45">
      <defs>
       <path d="
M0 0
L2 0" id="m0789224b6b"/>
      </defs>
      <g>
       <use style="stroke:#000000;stroke-linecap:butt;stroke-width:0.5;" x="54.63625" xlink:href="#m0789224b6b" y="163.890937423"/>
      </g>
     </g>
    </g>
    <g id="ytick_20">
     <g id="line2d_46">
      <defs>
       <path d="
M0 0
L2 0" id="m0789224b6b"/>
      </defs>
      <g>
       <use style="stroke:#000000;stroke-linecap:butt;stroke-width:0.5;" x="54.63625" xlink:href="#m0789224b6b" y="147.489374932"/>
      </g>
     </g>
    </g>
    <g id="ytick_21">
     <g id="line2d_47">
      <defs>
       <path d="
M0 0
L2 0" id="m0789224b6b"/>
      </defs>
      <g>
       <use style="stroke:#000000;stroke-linecap:butt;stroke-width:0.5;" x="54.63625" xlink:href="#m0789224b6b" y="131.08781244"/>
      </g>
     </g>
    </g>
    <g id="ytick_22">
     <g id="line2d_48">
      <defs>
       <path d="
M0 0
L2 0" id="m0789224b6b"/>
      </defs>
      <g>
       <use style="stroke:#000000;stroke-linecap:butt;stroke-width:0.5;" x="54.63625" xlink:href="#m0789224b6b" y="114.686249949"/>
      </g>
     </g>
    </g>
    <g id="ytick_23">
     <g id="line2d_49">
      <defs>
       <path d="
M0 0
L2 0" id="m0789224b6b"/>
      </defs>
      <g>
       <use style="stroke:#000000;stroke-linecap:butt;stroke-width:0.5;" x="54.63625" xlink:href="#m0789224b6b" y="81.8831249658"/>
      </g>
     </g>
    </g>
    <g id="ytick_24">
     <g id="line2d_50">
      <defs>
       <path d="
M0 0
L2 0" id="m0789224b6b"/>
      </defs>
      <g>
       <use style="stroke:#000000;stroke-linecap:butt;stroke-width:0.5;" x="54.63625" xlink:href="#m0789224b6b" y="65.4815624744"/>
      </g>
     </g>
    </g>
    <g id="ytick_25">
     <g id="line2d_51">
      <defs>
       <path d="
M0 0
L2 0" id="m0789224b6b"/>
      </defs>
      <g>
       <use style="stroke:#000000;stroke-linecap:butt;stroke-width:0.5;" x="54.63625" xlink:href="#m0789224b6b" y="49.0799999829"/>
      </g>
     </g>
    </g>
    <g id="ytick_26">
     <g id="line2d_52">
      <defs>
       <path d="
M0 0
L2 0" id="m0789224b6b"/>
      </defs>
      <g>
       <use style="stroke:#000000;stroke-linecap:butt;stroke-width:0.5;" x="54.63625" xlink:href="#m0789224b6b" y="32.6784374915"/>
      </g>
     </g>
    </g>
   </g>
   <g id="patch_3">
    <path d="
M64.6363 262.3
L557.404 262.3" style="fill:none;stroke:#000000;stroke-width:0.8;"/>
   </g>
   <g id="patch_4">
    <path d="
M54.6363 412.533
L54.6363 10.4123" style="fill:none;stroke:#000000;stroke-width:0.8;"/>
   </g>
  </g>
 </g>
 <defs>
  <clipPath id="p4a77293975">
   <rect height="402.120235558" width="492.7675" x="64.63625" y="10.412347483"/>
  </clipPath>
 </defs>
</svg>
