<?xml version="1.0" encoding="utf-8" standalone="no"?>
<!DOCTYPE svg PUBLIC "-//W3C//DTD SVG 1.1//EN"
  "http://www.w3.org/Graphics/SVG/1.1/DTD/svg11.dtd">
<!-- Created with matplotlib (http://matplotlib.sourceforge.net/) -->
<svg height="419pt" version="1.1" viewBox="0 0 564 419" width="564pt" xmlns="http://www.w3.org/2000/svg" xmlns:xlink="http://www.w3.org/1999/xlink">
 <defs>
  <style type="text/css">
*{stroke-linecap:square;stroke-linejoin:round;}
  </style>
 </defs>
 <g id="figure_1">
  <g id="patch_1">
   <path d="
M2.22045e-16 419.733
L564.604 419.733
L564.604 0
L2.22045e-16 0
z
" style="fill:#ffffff;"/>
  </g>
  <g id="axes_1">
   <g id="patch_2">
    <path d="
M64.6363 412.533
L557.404 412.533
L557.404 10.4123
L64.6363 10.4123
z
" style="fill:#ffffff;"/>
   </g>
   <g id="line2d_1">
    <path clip-path="url(#p4a77293975)" d="
M74.1125 262.3
L84.9497 262.3
L84.9497 262.3
L84.9497 262.3
L98.6028 262.3
L98.6028 404.8
L107.596 404.8
L107.596 387.251
L119.676 387.251
L119.676 290.603
L124.141 290.603
L124.141 257.337
L131.311 257.337
L131.311 204.428
L134.284 204.428
L134.284 190.306
L139.391 190.306
L139.391 174.787
L145.586 174.787
L145.586 169.254
L147.369 169.254
L147.369 171.208
L152.098 171.208
L152.098 176.029
L154.841 176.029
L154.841 172.566
L158.492 172.588
L158.492 175.276
L161.703 175.276
L161.703 174.535
L164.569 174.535
L164.569 176.403
L165.46 176.403
L165.46 178.538
L167.968 178.538
L167.968 183.71
L169.518 183.71
L169.518 188.411
L170.26 188.411
L170.26 191.495
L172.371 191.495
L172.371 197.143
L173.691 197.143
L173.691 199.609
L175.557 199.609
L175.557 202.055
L177.858 202.055
L177.858 205.282
L178.938 205.282
L178.938 206.889
L179.462 206.889
L179.462 207.861
L180.48 207.861
L180.48 209.459
L180.975 209.459
L180.975 210.163
L181.938 210.163
L181.938 211.854
L185.06 211.854
L185.06 216.749
L185.889 216.749
L185.889 218.65
L187.086 218.65
L187.086 220.994
L187.473 220.994
L187.473 221.564
L189.33 221.564
L189.33 223.421
L190.728 223.506
L190.728 223.92
L191.73 223.92
L191.73 223.622
L192.378 223.622
L192.378 223.482
L193.322 223.482
L193.322 222.612
L194.233 222.612
L194.233 221.231
L194.53 221.231
L194.53 220.729
L195.967 220.729
L195.967 218.253
L196.246 218.253
L196.246 217.646
L196.794 217.646
L196.794 216.497
L197.064 216.497
L197.064 216.047
L198.629 216.047
L198.629 213.312
L200.107 213.312
L200.107 209.945
L200.582 209.945
L200.582 208.886
L200.817 208.886
L200.817 208.473
L201.28 208.473
L201.28 207.821
L201.959 207.821
L201.959 207.17
L202.182 207.17
L202.182 206.834
L203.269 206.834
L203.269 205.268
L203.9 205.268
L203.9 204.125
L204.517 204.125
L204.517 202.787
L205.12 202.787
L205.12 201.646
L205.318 201.646
L205.318 201.234
L205.903 201.234
L205.903 200.121
L206.286 200.121
L206.286 199.445
L206.476 199.445
L206.476 199.178
L207.404 199.178
L207.404 197.996
L208.651 197.996
L208.651 196.761
L208.997 196.761
L208.997 196.534
L209.169 196.534
L209.169 196.339
L209.508 196.339
L209.508 195.898
L210.663 195.898
L210.663 194.537
L211.143 194.537
L211.143 194.088
L211.925 194.088
L211.925 193.538
L212.079 193.538
L212.079 193.389
L212.383 193.389
L212.383 193.05
L212.834 193.05
L212.834 192.433
L213.423 192.433
L213.423 191.601
L213.856 191.601
L213.856 190.946
L214.283 190.946
L214.283 190.249
L214.563 190.249
L214.563 189.786
L214.979 189.786
L214.979 189.105
L215.523 189.105
L215.523 188.151
L215.791 188.151
L215.791 187.705
L216.319 187.705
L216.319 186.633
L216.964 186.633
L216.964 185.258
L217.092 185.258
L217.092 185.029
L217.719 185.029
L217.719 183.653
L217.843 183.653
L217.843 183.442
L218.211 183.442
L218.211 182.689
L218.453 182.689
L218.453 182.295
L218.813 182.295
L218.813 181.74
L219.285 181.74
L219.285 181.195
L219.518 181.195
L219.518 180.944
L219.633 180.944
L219.633 180.807
L219.863 180.807
L219.863 180.516
L220.541 180.516
L220.541 179.565
L220.984 179.565
L220.984 178.951
L221.203 178.951
L221.203 178.605
L221.635 178.605
L221.635 177.884
L221.848 177.884
L221.848 177.483
L222.165 177.483
L222.165 176.953
L222.788 176.953
L222.89 175.872
L223.795 175.872
L223.795 174.822
L224.089 174.822
L224.089 174.394
L224.574 174.394
L224.574 173.534
L224.86 173.534
L224.86 173.023
L225.143 173.023
L225.237 172.394
L225.516 172.394
L225.516 171.973
L225.976 171.973
L225.976 171.28
L226.247 171.28
L226.247 170.797
L226.517 170.797
L226.606 170.103
L226.871 170.103
L226.871 169.51
L227.134 169.51
L227.134 168.892
L227.308 168.892
L227.394 168.216
L227.908 168.216
L227.908 167.079
L228.328 167.079
L228.411 165.789
L228.577 165.789
L228.577 165.388
L228.824 165.388
L228.824 164.814
L229.068 164.814
L229.149 163.959
L229.63 163.959
L229.63 162.574
L229.788 162.574
L229.788 162.123
L230.024 162.123
L230.024 161.489
L230.335 161.489
L230.335 160.567
L230.719 160.567
L230.719 159.422
L231.023 159.422
L231.023 158.518
L231.397 158.518
L231.397 157.464
L231.693 157.464
L231.693 156.683
L231.912 156.683
L231.912 156.088
L232.13 156.088
L232.13 155.509
L232.275 155.509
L232.275 155.143
L232.561 155.143
L232.561 154.498
L232.774 154.498
L232.774 154.032
L232.914 154.032
L232.914 153.764
L233.194 153.764
L233.194 153.217
L233.333 153.217
L233.333 152.974
L233.812 152.974
L233.812 152.296
L234.15 152.296
L234.15 151.779
L234.549 151.779
L234.615 151.025
L234.943 151.025
L235.008 150.363
L235.137 150.363
L235.202 150.005
L235.522 150.005
L235.522 149.469
L235.965 149.469
L235.965 148.649
L236.09 148.649
L236.152 148.279
L236.276 148.279
L236.276 148.005
L236.706 148.005
L236.706 146.987
L236.828 146.987
L236.889 146.593
L237.009 146.593
L237.009 146.372
L237.605 146.372
L237.605 145.401
L237.723 145.401
L237.723 145.233
L237.957 145.233
L237.957 144.872
L238.246 144.872
L238.246 144.479
L238.475 144.479
L238.475 144.135
L238.589 144.135
L238.589 143.94
L238.759 143.94
L238.759 143.68
L238.928 143.68
L238.928 143.412
L239.317 143.412
L239.428 142.501
L239.592 142.501
L239.592 142.248
L239.756 142.248
L239.756 141.974
L239.973 141.974
L239.973 141.634
L240.134 141.634
L240.134 141.393
L240.454 141.393
L240.559 140.878
L240.717 140.878
L240.77 140.619
L241.03 140.619
L241.082 140.18
L241.237 140.18
L241.237 139.976
L241.493 139.976
L241.544 139.627
L241.797 139.627
L241.847 139.337
L241.998 139.337
L241.998 139.147
L242.444 139.147
L242.542 138.557
L242.689 138.493
L242.689 138.377
L242.834 138.377
L242.834 138.206
L242.979 138.206
L242.979 138.023
L243.172 138.023
L243.172 137.767
L243.315 137.767
L243.315 137.603
L243.457 137.603
L243.457 137.441
L243.973 137.441
L244.019 136.9
L244.25 136.9
L244.25 136.743
L244.661 136.656
L244.661 136.536
L244.931 136.452
L244.931 136.386
L245.375 136.32
L245.463 136.131
L245.726 136.066
L245.769 135.986
L246.157 135.908
L246.157 135.745
L246.37 135.745
L246.37 135.62
L246.75 135.62
L246.791 135.414
L247.165 135.305
L247.247 135.212
L247.776 135.109
L247.776 135.079
L248.452 135.079
L248.452 134.866
L248.842 134.79
L248.842 134.74
L249.643 134.637
L249.718 134.54
L250.09 134.471
L250.201 134.402
L250.53 134.347
L250.53 134.239
L250.855 134.132
L250.926 134.107
L251.598 134.008
L251.598 133.964
L251.979 133.854
L252.083 133.798
L252.423 133.752
L252.491 133.658
L252.726 133.658
L252.793 133.504
L252.993 133.428
L253.092 133.318
L253.712 133.233
L253.809 133.079
L254.286 133.021
L254.381 132.829
L254.756 132.727
L254.756 132.714
L255.034 132.629
L255.126 132.498
L255.581 132.398
L255.671 132.154
L255.939 132.067
L255.939 131.885
L256.087 131.885
L256.087 131.74
L256.264 131.74
L256.264 131.595
L256.613 131.507
L256.613 131.331
L256.815 131.331
L256.901 131.1
L257.072 130.993
L257.072 130.973
L257.384 130.876
L257.468 130.699
L257.802 130.654
L257.83 130.542
L258.05 130.542
L258.077 130.402
L258.377 130.402
L258.458 130.195
L258.887 130.097
L258.967 130.048
L259.44 129.989
L259.44 129.925
L259.802 129.841
L259.904 129.712
L260.184 129.623
L260.209 129.494
L260.411 129.494
L260.511 129.268
L260.711 129.211
L260.81 129.03
L261.032 129.03
L261.032 128.839
L261.324 128.839
L261.373 128.527
L261.542 128.464
L261.542 128.366
L261.734 128.366
L261.805 128.124
L262.09 128.036
L262.16 127.838
L262.394 127.745
L262.441 127.685
L262.603 127.59
L262.603 127.573
L262.857 127.573
L262.948 127.307
L263.13 127.223
L263.13 127.169
L263.289 127.169
L263.356 126.956
L263.491 126.896
L263.535 126.799
L263.736 126.737
L263.802 126.568
L264.022 126.509
L264.132 126.29
L264.349 126.189
L264.458 126.043
L264.737 126.043
L264.737 125.886
L264.928 125.886
L265.034 125.722
L265.536 125.618
L265.536 125.57
L266.949 125.46
L267.047 125.429
L270.272 125.326
L270.359 125.306
L271.791 125.197
L271.889 125.175
L273.629 125.077
L273.69 124.991
L274.129 124.897
L274.234 124.848
L274.768 124.743
L274.768 124.731
L275.161 124.632
L275.248 124.593
L275.62 124.508
L275.677 124.398
L276.043 124.306
L276.127 124.195
L276.432 124.101
L276.514 124.019
L276.883 123.919
L276.91 123.866
L277.273 123.761
L277.353 123.709
L277.645 123.611
L277.75 123.552
L277.998 123.463
L278.102 123.389
L278.424 123.312
L278.424 123.254
L278.679 123.156
L278.767 123.103
L279.019 123.012
L279.094 122.939
L279.367 122.898
L279.441 122.792
L279.796 122.681
L279.869 122.644
L280.302 122.533
L280.373 122.484
L280.775 122.376
L280.81 122.347
L283.247 122.238
L283.353 122.228
L284.109 122.124
L284.171 122.061
L284.417 121.965
L284.469 121.869
L284.652 121.794
L284.692 121.729
L284.904 121.645
L284.954 121.574
L285.194 121.518
L285.283 121.375
L285.637 121.278
L285.695 121.195
L285.928 121.088
L285.928 121.079
L286.169 120.981
L286.217 120.926
L286.445 120.827
L286.54 120.699
L286.681 120.597
L286.784 120.481
L286.924 120.373
L286.962 120.326
L287.101 120.326
L287.202 120.113
L287.377 120.004
L287.477 119.866
L287.641 119.782
L287.668 119.683
L287.831 119.586
L287.894 119.497
L288.135 119.391
L288.233 119.254
L288.401 119.184
L288.506 119.064
L288.733 118.957
L288.82 118.888
L289.028 118.784
L289.105 118.697
L289.25 118.59
L289.353 118.484
L289.505 118.388
L289.59 118.308
L289.783 118.205
L289.816 118.157
L290.033 118.087
L290.132 117.969
L290.329 117.916
L290.436 117.775
L290.647 117.697
L290.728 117.621
L291.009 117.514
L291.089 117.46
L291.366 117.362
L291.461 117.272
L291.719 117.161
L291.773 117.128
L292.098 117.018
L292.189 116.988
L293.018 116.877
L293.114 116.864
L296.812 116.765
L296.87 116.729
L297.233 116.621
L297.309 116.577
L297.667 116.469
L297.754 116.446
L298.13 116.342
L298.222 116.283
L298.489 116.182
L298.543 116.146
L298.831 116.042
L298.938 116.002
L299.315 115.895
L299.415 115.844
L300.879 115.741
L300.935 115.722
L301.247 115.62
L301.356 115.548
L301.55 115.459
L301.62 115.389
L301.856 115.287
L301.941 115.186
L302.126 115.082
L302.236 115.006
L302.409 114.902
L302.518 114.815
L302.658 114.714
L302.725 114.649
L302.874 114.584
L302.967 114.457
L303.135 114.361
L303.231 114.251
L303.382 114.153
L303.483 114.04
L303.623 113.945
L303.697 113.838
L303.811 113.74
L303.905 113.606
L304.019 113.521
L304.082 113.403
L304.18 113.32
L304.287 113.161
L304.418 113.06
L304.529 112.849
L304.621 112.763
L304.731 112.575
L304.817 112.51
L304.922 112.311
L305.021 112.213
L305.092 112.08
L305.186 112.005
L305.285 111.819
L305.369 111.713
L305.471 111.561
L305.606 111.455
L305.717 111.253
L305.855 111.153
L305.956 110.961
L306.051 110.877
L306.156 110.719
L306.251 110.613
L306.332 110.51
L306.458 110.406
L306.565 110.258
L306.712 110.16
L306.792 110.014
L306.947 109.908
L306.991 109.808
L307.096 109.715
L307.188 109.592
L307.34 109.484
L307.448 109.326
L307.552 109.229
L307.629 109.131
L307.757 109.029
L307.868 108.91
L307.974 108.808
L308.084 108.667
L308.189 108.569
L308.278 108.455
L308.399 108.352
L308.465 108.251
L308.577 108.143
L308.685 108.014
L308.837 107.91
L308.898 107.8
L309.017 107.703
L309.119 107.579
L309.236 107.484
L309.313 107.389
L309.433 107.301
L309.541 107.166
L309.661 107.084
L309.752 106.948
L309.883 106.846
L309.969 106.723
L310.111 106.612
L310.216 106.454
L310.329 106.372
L310.425 106.25
L310.56 106.16
L310.622 106.076
L310.744 106.016
L310.847 105.865
L311.022 105.765
L311.123 105.62
L311.281 105.544
L311.367 105.435
L311.505 105.342
L311.594 105.248
L311.723 105.152
L311.804 105.048
L311.921 104.947
L312.023 104.837
L312.15 104.735
L312.259 104.64
L312.456 104.536
L312.564 104.43
L312.724 104.323
L312.826 104.231
L312.978 104.136
L313.083 104.019
L313.209 103.931
L313.299 103.828
L313.458 103.723
L313.558 103.609
L313.692 103.511
L313.784 103.412
L313.917 103.316
L314.022 103.204
L314.133 103.093
L314.214 103.012
L314.331 102.907
L314.441 102.789
L314.55 102.688
L314.639 102.561
L314.761 102.451
L314.87 102.306
L314.997 102.215
L315.104 102.038
L315.217 101.949
L315.314 101.821
L315.449 101.716
L315.558 101.583
L315.669 101.477
L315.764 101.371
L315.881 101.284
L315.991 101.139
L316.107 101.028
L316.201 100.911
L316.3 100.834
L316.405 100.662
L316.526 100.555
L316.636 100.39
L316.728 100.299
L316.838 100.137
L316.953 100.044
L317.062 99.8278
L317.143 99.756
L317.245 99.5555
L317.323 99.4644
L317.433 99.2768
L317.528 99.2015
L317.611 99.02
L317.687 98.92
L317.796 98.7553
L317.89 98.6681
L317.986 98.5065
L318.073 98.4159
L318.172 98.274
L318.276 98.171
L318.368 98.0467
L318.474 97.9503
L318.568 97.8247
L318.685 97.7511
L318.795 97.5745
L318.914 97.4831
L319.023 97.3368
L319.14 97.2282
L319.243 97.117
L319.377 97.0082
L319.473 96.8914
L319.583 96.7847
L319.687 96.6607
L319.826 96.5839
L319.932 96.3842
L320.032 96.2901
L320.137 96.16
L320.255 96.0545
L320.351 95.9603
L320.497 95.8501
L320.593 95.7525
L320.717 95.6455
L320.827 95.5404
L320.97 95.4314
L321.072 95.333
L321.212 95.2246
L321.317 95.1145
L321.443 95.0071
L321.54 94.8958
L321.662 94.8082
L321.769 94.6567
L321.874 94.547
L321.983 94.4253
L322.1 94.3198
L322.207 94.2145
L322.326 94.1044
L322.43 94.0098
L322.553 93.905
L322.664 93.804
L322.82 93.6965
L322.926 93.5922
L323.059 93.4976
L323.167 93.3819
L323.289 93.282
L323.394 93.1734
L323.518 93.0635
L323.61 92.9738
L323.728 92.8687
L323.805 92.7801
L323.927 92.6812
L324.031 92.5816
L324.184 92.4714
L324.281 92.3869
L324.43 92.2876
L324.533 92.1829
L324.663 92.0746
L324.744 92.0087
L324.889 91.9027
L324.996 91.8168
L325.148 91.7125
L325.257 91.6218
L325.403 91.523
L325.507 91.4247
L325.673 91.3245
L325.763 91.231
L325.893 91.1278
L325.997 91.0345
L326.148 90.9281
L326.235 90.841
L326.404 90.7311
L326.51 90.6365
L326.662 90.5381
L326.746 90.4672
L326.916 90.361
L327.02 90.2891
L327.196 90.1789
L327.299 90.1014
L327.46 89.9913
L327.569 89.9029
L327.753 89.7927
L327.862 89.7155
L328.019 89.6052
L328.126 89.5352
L328.297 89.4253
L328.406 89.355
L328.628 89.2475
L328.733 89.1669
L328.922 89.0566
L329.03 88.9885
L329.26 88.8774
L329.371 88.8149
L329.607 88.7098
L329.715 88.6573
L330.036 88.5479
L330.147 88.5007
L330.486 88.3918
L330.59 88.3633
L330.944 88.2549
L331.055 88.1968
L331.334 88.0896
L331.428 88.0604
L332.159 87.9503
L332.26 87.9149
L332.717 87.8051
L332.823 87.76
L333.092 87.6625
L333.201 87.5947
L333.385 87.4853
L333.496 87.4176
L333.678 87.3127
L333.788 87.241
L333.992 87.1355
L334.096 87.065
L334.274 86.9565
L334.381 86.8873
L334.589 86.7774
L334.698 86.7155
L334.92 86.6126
L335.026 86.5437
L335.226 86.4326
L335.329 86.3585
L335.539 86.2506
L335.647 86.1897
L335.867 86.0841
L335.976 86.0104
L336.148 85.9021
L336.254 85.8214
L336.414 85.7144
L336.523 85.6251
L336.687 85.5141
L336.796 85.4435
L336.968 85.3361
L337.076 85.2611
L337.26 85.1615
L337.366 85.079
L337.543 84.9763
L337.651 84.8936
L337.836 84.7831
L337.946 84.7269
L338.199 84.6177
L338.304 84.5706
L338.528 84.4644
L338.63 84.3953
L338.795 84.2863
L338.895 84.2118
L339.067 84.1071
L339.17 84.0294
L339.339 83.9228
L339.444 83.8421
L339.613 83.7311
L339.722 83.6652
L339.934 83.561
L340.041 83.4968
L340.254 83.3861
L340.361 83.3231
L340.541 83.2142
L340.651 83.1365
L340.825 83.0302
L340.922 82.9648
L341.107 82.8551
L341.21 82.7823
L341.374 82.6718
L341.482 82.5949
L341.648 82.4896
L341.753 82.3989
L341.903 82.2907
L342.007 82.2028
L342.152 82.0953
L342.254 82.0134
L342.403 81.9045
L342.512 81.8293
L342.696 81.721
L342.806 81.6524
L343.01 81.5453
L343.118 81.4535
L343.282 81.343
L343.379 81.274
L343.566 81.1642
L343.672 81.0987
L343.855 80.9879
L343.958 80.9221
L344.162 80.812
L344.271 80.737
L344.431 80.6306
L344.537 80.5394
L344.689 80.432
L344.798 80.353
L344.965 80.2459
L345.066 80.1661
L345.218 80.0553
L345.327 79.9707
L345.475 79.8623
L345.584 79.7697
L345.733 79.6588
L345.836 79.5683
L345.97 79.46
L346.078 79.362
L346.203 79.2531
L346.312 79.1466
L346.447 79.044
L346.552 78.9385
L346.69 78.8287
L346.8 78.7448
L346.984 78.6384
L347.087 78.577
L347.296 78.467
L347.404 78.3968
L347.601 78.2904
L347.71 78.2244
L347.95 78.1139
L348.06 78.0611
L348.293 77.9514
L348.402 77.8916
L348.661 77.783
L348.771 77.7251
L349 77.6178
L349.101 77.5639
L349.377 77.4533
L349.481 77.4096
L349.739 77.3018
L349.849 77.2366
L350.071 77.1257
L350.18 77.0666
L350.418 76.9566
L350.528 76.9011
L350.797 76.7909
L350.907 76.7501
L351.216 76.6392
L351.314 76.6059
L351.682 76.4959
L351.79 76.4553
L352.153 76.3456
L352.264 76.3121
L352.7 76.2018
L352.809 76.1803
L353.406 76.0692
L353.514 76.0494
L354.039 75.9386
L354.15 75.9005
L354.448 75.7908
L354.558 75.7379
L354.801 75.6284
L354.911 75.5732
L355.162 75.4626
L355.27 75.4082
L355.559 75.2985
L355.67 75.2625
L356.161 75.152
L356.27 75.1309
L356.9 75.0202
L357.01 74.9884
L357.385 74.8777
L357.493 74.8459
L358.696 74.735
L358.805 74.7146
L360.246 74.6037
L360.355 74.592
L361.477 74.4815
L361.585 74.47
L362.086 74.3593
L362.197 74.3252
L362.612 74.2143
L362.722 74.1887
L363.106 74.0786
L363.216 74.04
L363.56 73.9291
L363.671 73.8954
L364.077 73.7843
L364.182 73.7583
L364.86 73.6473
L364.971 73.6254
L365.652 73.5158
L365.759 73.4901
L369.112 73.3792
L369.221 73.3593
L370.461 73.2487
L370.571 73.2361
L372.803 73.125
L372.914 73.1155
L374.896 73.0045
L375.003 72.9926
L375.793 72.8818
L375.904 72.8653
L376.701 72.7542
L376.81 72.7325
L377.323 72.6216
L377.434 72.6021
L377.971 72.4916
L378.081 72.4562
L378.483 72.3457
L378.594 72.3245
L379.61 72.2136
L379.719 72.1972
L380.161 72.0865
L380.271 72.0523
L380.642 71.9426
L380.753 71.9074
L381.054 71.7978
L381.163 71.7516
L381.479 71.6406
L381.59 71.5996
L381.857 71.4886
L381.966 71.4415
L382.239 71.3316
L382.349 71.2814
L382.588 71.1714
L382.699 71.1117
L382.917 71.0007
L383.026 70.9495
L383.313 70.8384
L383.421 70.8
L383.693 70.6889
L383.803 70.6387
L384.044 70.5278
L384.152 70.4738
L384.362 70.3632
L384.471 70.3025
L384.692 70.1927
L384.801 70.1383
L385.053 70.0278
L385.164 69.9794
L385.431 69.8684
L385.54 69.8283
L385.887 69.7172
L385.997 69.6775
L386.302 69.5665
L386.409 69.5244
L386.652 69.4137
L386.762 69.3593
L387.028 69.2491
L387.138 69.1991
L387.385 69.0888
L387.495 69.0347
L387.718 68.9237
L387.828 68.8702
L388.059 68.7598
L388.169 68.7044
L388.407 68.5943
L388.518 68.542
L388.806 68.431
L388.916 68.3915
L389.249 68.2805
L389.36 68.2479
L389.769 68.1368
L389.88 68.1082
L390.218 67.9982
L390.328 67.948
L390.592 67.8369
L390.701 67.7945
L390.95 67.6837
L391.056 67.6349
L391.342 67.5239
L391.453 67.477
L391.719 67.3662
L391.83 67.3191
L392.068 67.2085
L392.174 67.1525
L392.403 67.0417
L392.513 66.9861
L392.739 66.8752
L392.845 66.8248
L393.072 66.7144
L393.181 66.6629
L393.433 66.5518
L393.543 66.5032
L393.787 66.393
L393.898 66.3445
L394.174 66.2336
L394.283 66.1935
L394.625 66.0829
L394.735 66.045
L395.167 65.9343
L395.278 65.9003
L395.813 65.7892
L395.924 65.7564
L396.23 65.6456
L396.341 65.6084
L396.714 65.4973
L396.823 65.4587
L397.102 65.3479
L397.213 65.3044
L397.494 65.1935
L397.603 65.1495
L397.871 65.0387
L397.982 64.9868
L398.25 64.8757
L398.361 64.8339
L398.651 64.7232
L398.762 64.6798
L399.031 64.57
L399.14 64.5169
L399.385 64.4061
L399.494 64.3596
L399.786 64.2488
L399.896 64.2084
L400.252 64.0974
L400.362 64.0678
L400.773 63.9567
L400.884 63.9284
L401.344 63.8175
L401.455 63.7956
L401.905 63.6851
L402.015 63.656
L402.367 63.5451
L402.478 63.5074
L402.786 63.3969
L402.896 63.3497
L403.149 63.2387
L403.259 63.1998
L403.529 63.0887
L403.638 63.0383
L403.851 62.9275
L403.961 62.8718
L404.192 62.7608
L404.303 62.7091
L404.555 62.5981
L404.666 62.5563
L404.93 62.4452
L405.041 62.3926
L405.297 62.2822
L405.407 62.2294
L405.645 62.1183
L405.756 62.0645
L405.997 61.9536
L406.108 61.8983
L406.352 61.7879
L406.461 61.745
L406.727 61.6343
L406.837 61.5819
L407.08 61.4715
L407.19 61.4142
L407.38 61.3032
L407.491 61.2314
L407.668 61.1204
L407.779 61.0541
L407.979 60.9433
L408.09 60.8763
L408.284 60.7656
L408.395 60.702
L408.608 60.591
L408.719 60.5315
L408.956 60.4204
L409.067 60.3724
L409.352 60.2614
L409.463 60.2139
L409.718 60.1029
L409.829 60.0464
L410.047 59.9361
L410.157 59.8847
L410.411 59.7737
L410.522 59.7278
L410.782 59.6167
L410.893 59.5667
L411.132 59.4556
L411.243 59.4042
L411.487 59.2931
L411.598 59.2444
L411.85 59.1338
L411.961 59.0786
L412.184 58.9678
L412.295 58.9097
L412.521 58.7994
L412.631 58.7419
L412.836 58.6314
L412.947 58.5688
L413.151 58.4576
L413.262 58.395
L413.433 58.284
L413.544 58.2081
L413.711 58.0972
L413.822 58.0268
L414.018 57.9157
L414.128 57.8527
L414.323 57.7424
L414.434 57.6761
L414.615 57.5654
L414.726 57.4919
L414.883 57.3813
L414.994 57.2991
L415.146 57.1882
L415.257 57.1098
L415.415 56.9992
L415.525 56.918
L415.677 56.8072
L415.787 56.7352
L415.95 56.6241
L416.061 56.547
L416.213 56.4362
L416.324 56.3514
L416.48 56.2408
L416.591 56.1583
L416.736 56.0473
L416.847 55.9609
L417 55.85
L417.111 55.7685
L417.281 55.6574
L417.392 55.5838
L417.567 55.4731
L417.677 55.4033
L417.847 55.2928
L417.958 55.2182
L418.128 55.1071
L418.239 55.0356
L418.414 54.9246
L418.525 54.8516
L418.691 54.7405
L418.802 54.6641
L418.961 54.5532
L419.072 54.4751
L419.234 54.3645
L419.345 54.2968
L419.545 54.1857
L419.656 54.1296
L419.876 54.0188
L419.987 53.9636
L420.205 53.8525
L420.315 53.798
L420.579 53.6869
L420.69 53.6384
L420.962 53.5277
L421.073 53.4822
L421.454 53.3712
L421.565 53.3415
L422.01 53.2304
L422.12 53.1964
L422.451 53.0855
L422.562 53.0403
L422.841 52.9292
L422.952 52.8841
L423.223 52.7732
L423.333 52.7272
L423.59 52.6161
L423.701 52.5681
L423.972 52.457
L424.083 52.4023
L424.299 52.2914
L424.41 52.2348
L424.643 52.1237
L424.754 52.0723
L425.025 51.9615
L425.136 51.9118
L425.396 51.8008
L425.506 51.7531
L425.729 51.6424
L425.84 51.5826
L426.049 51.4718
L426.16 51.413
L426.372 51.3022
L426.483 51.2472
L426.693 51.1362
L426.804 51.0794
L427.035 50.9686
L427.146 50.9082
L427.346 50.7971
L427.457 50.739
L427.659 50.6287
L427.77 50.5646
L427.974 50.4535
L428.085 50.3837
L428.271 50.2728
L428.383 50.2116
L428.616 50.1005
L428.727 50.051
L428.948 49.9401
L429.059 49.886
L429.299 49.7751
L429.409 49.725
L429.654 49.614
L429.765 49.5592
L430.017 49.4481
L430.128 49.3995
L430.368 49.2885
L430.479 49.2359
L430.689 49.1248
L430.8 49.0706
L431.035 48.9596
L431.146 48.8988
L431.347 48.7879
L431.458 48.7317
L431.693 48.6207
L431.804 48.5721
L432.028 48.4611
L432.139 48.4016
L432.367 48.2906
L432.477 48.2399
L432.712 48.1289
L432.823 48.0761
L433.057 47.965
L433.168 47.9176
L433.416 47.8065
L433.527 47.7562
L433.749 47.6452
L433.859 47.591
L434.159 47.48
L434.27 47.444
L434.603 47.333
L434.714 47.2944
L435.034 47.1833
L435.145 47.1512
L435.548 47.0402
L435.659 47.0171
L436.103 46.906
L436.214 46.8715
L436.53 46.7605
L436.641 46.7222
L436.915 46.6112
L437.026 46.5595
L437.266 46.4485
L437.377 46.396
L437.615 46.285
L437.726 46.2378
L438.032 46.1268
L438.143 46.0856
L438.423 45.9745
L438.534 45.9296
L438.809 45.8185
L438.92 45.771
L439.202 45.6599
L439.313 45.6227
L439.629 45.5117
L439.74 45.4664
L440.049 45.3554
L440.16 45.3223
L440.487 45.2112
L440.598 45.1809
L440.984 45.0698
L441.094 45.0297
L441.392 44.9186
L441.503 44.8765
L441.81 44.7654
L441.92 44.7335
L442.351 44.6224
L442.462 44.596
L442.971 44.4849
L443.082 44.4596
L443.59 44.3486
L443.701 44.3265
L444.331 44.2155
L444.442 44.1943
L445.176 44.0832
L445.287 44.0704
L445.934 43.9593
L446.045 43.934
L446.454 43.8229
L446.565 43.7895
L446.957 43.6784
L447.068 43.6465
L447.425 43.5354
L447.536 43.5041
L447.986 43.3931
L448.097 43.3676
L448.593 43.2565
L448.704 43.2325
L449.246 43.1214
L449.357 43.0957
L449.894 42.9846
L450.005 42.968
L450.83 42.8569
L450.941 42.8477
L452.145 42.7366
L452.256 42.7211
L452.882 42.6101
L452.993 42.5816
L453.462 42.4705
L453.573 42.4366
L453.931 42.3256
L454.042 42.299
L454.445 42.1879
L454.556 42.1546
L455.009 42.0435
L455.12 42.0168
L455.712 41.9058
L455.823 41.8844
L456.409 41.7733
L456.52 41.76
L461.321 41.6489
L461.432 41.639
L462.178 41.5279
L462.289 41.503
L462.75 41.3919
L462.861 41.3656
L463.387 41.2545
L463.498 41.2264
L463.913 41.1153
L464.024 41.0792
L464.357 40.9681
L464.467 40.9263
L464.835 40.8152
L464.946 40.7914
L465.54 40.6803
L465.651 40.6529
L466.028 40.5418
L466.139 40.5035
L466.47 40.3924
L466.581 40.3565
L466.929 40.2454
L467.04 40.2086
L467.409 40.0976
L467.52 40.0683
L467.912 39.9572
L468.023 39.9194
L468.352 39.8083
L468.463 39.77
L468.763 39.6589
L468.874 39.6168
L469.187 39.5057
L469.298 39.4676
L469.651 39.3565
L469.762 39.3266
L470.264 39.2155
L470.375 39.1833
L470.744 39.0722
L470.855 39.0414
L471.277 38.9303
L471.388 38.9051
L471.893 38.794
L472.004 38.7669
L472.384 38.6558
L472.495 38.6223
L472.883 38.5112
L472.994 38.4821
L473.562 38.371
L473.673 38.3566
L474.343 38.2455
L474.455 38.2247
L474.975 38.1137
L475.086 38.098
L476.102 37.9869
L476.213 37.9773
L479.487 37.8661
L479.598 37.8623
L482.138 37.7512
L482.249 37.7383
L483.006 37.6272
L483.117 37.6145
L484.651 37.5034
L484.762 37.495
L485.955 37.3839
L486.066 37.3609
L486.532 37.2497
L486.643 37.2227
L487.099 37.1116
L487.21 37.0852
L487.758 36.9741
L487.869 36.9519
L488.53 36.8408
L488.641 36.8242
L489.383 36.7131
L489.494 36.6905
L489.969 36.5793
L490.08 36.5491
L490.474 36.438
L490.585 36.405
L490.945 36.2939
L491.056 36.2561
L491.394 36.145
L491.505 36.1096
L491.821 35.9985
L491.932 35.9554
L492.226 35.8443
L492.338 35.8011
L492.661 35.69
L492.772 35.6503
L493.089 35.5392
L493.2 35.4988
L493.475 35.3877
L493.586 35.3399
L493.84 35.2287
L493.951 35.1765
L494.222 35.0653
L494.333 35.0208
L494.599 34.9097
L494.71 34.864
L495.005 34.7528
L495.116 34.7149
L495.432 34.6038
L495.543 34.5616
L495.831 34.4505
L495.942 34.4082
L496.22 34.2971
L496.331 34.2499
L496.581 34.1388
L496.692 34.0867
L496.943 33.9756
L497.054 33.9275
L497.292 33.8164
L497.403 33.7668
L497.66 33.6557
L497.771 33.6114
L498.053 33.5003
L498.164 33.4536
L498.4 33.3426
L498.511 33.2866
L498.754 33.1755
L498.865 33.1282
L499.123 33.0171
L499.234 32.9653
L499.454 32.8543
L499.565 32.7976
L499.777 32.6865
L499.888 32.626
L500.103 32.5149
L500.214 32.4603
L500.458 32.3492
L500.569 32.3012
L500.852 32.1901
L500.963 32.1482
L501.238 32.0371
L501.349 31.9881
L501.656 31.877
L501.767 31.8429
L502.108 31.7318
L502.219 31.6978
L502.566 31.5867
L502.677 31.551
L502.966 31.4399
L503.077 31.3954
L503.36 31.2843
L503.471 31.2406
L503.759 31.1294
L503.87 31.0917
L504.201 30.9806
L504.312 30.9416
L504.662 30.8305
L504.773 30.794
L505.1 30.6829
L505.211 30.644
L505.539 30.5329
L505.65 30.4952
L505.927 30.384
L506.038 30.3411
L506.353 30.23
L506.464 30.1966
L506.812 30.0855
L506.923 30.0508
L507.287 29.9397
L507.398 29.9068
L507.741 29.7957
L507.852 29.7592
L508.193 29.6481
L508.304 29.611
L508.625 29.4999
L508.736 29.4621
L509.065 29.351
L509.176 29.3135
L509.515 29.2024
L509.626 29.1663
L509.978 29.0551
L510.089 29.0208
L510.443 28.9097
L510.554 28.8744
L510.889 28.7633
L511 28.7232
L511.32 28.6121
L511.431 28.5696
L511.753 28.4585
L511.864 28.4197
L512.184 28.3086
L512.296 28.272
L512.596 28.1608
L512.707 28.1164
L512.978 28.0052
L513.089 27.9583
L513.367 27.8472
L513.478 27.8027
L513.739 27.6916
L513.85 27.6432
L514.132 27.5321
L514.243 27.4922
L514.577 27.3811
L514.688 27.3473
L515.039 27.2362
L515.15 27.2005
L515.529 27.0894
L515.64 27.0583
L516.007 26.9472
L516.118 26.9118
L516.483 26.8007
L516.594 26.7671
L516.947 26.656
L517.058 26.6248
L517.425 26.5137
L517.536 26.481
L517.922 26.3699
L518.033 26.3394
L518.454 26.2283
L518.565 26.2019
L518.973 26.0907
L519.084 26.0642
L519.564 25.9531
L519.675 25.9252
L520.095 25.8141
L520.206 25.7828
L520.634 25.6717
L520.745 25.6417
L521.185 25.5306
L521.296 25.5019
L521.705 25.3908
L521.816 25.3651
L522.241 25.254
L522.352 25.2249
L522.746 25.1138
L522.857 25.0803
L523.212 24.9692
L523.323 24.9241
L523.583 24.813
L523.694 24.7682
L523.977 24.6571
L524.088 24.6185
L524.406 24.5074
L524.517 24.4713
L524.895 24.3602
L525.006 24.3242
L525.334 24.2131
L525.445 24.1795
L525.785 24.0684
L525.896 24.0265
L526.197 23.9154
L526.308 23.872
L526.574 23.7609
L526.685 23.7143
L526.942 23.6032
L527.053 23.5548
L527.309 23.4437
L527.42 23.3928
L527.66 23.2817
L527.771 23.2362
L528.053 23.1251
L528.164 23.0823
L528.452 22.9712
L528.563 22.9272
L528.827 22.8161
L528.938 22.7738
L529.249 22.6627
L529.361 22.6236
L529.687 22.5125
L529.798 22.4749
L530.175 22.3638
L530.286 22.3298
L530.638 22.2187
L530.75 22.1829
L531.076 22.0718
L531.187 22.0397
L531.522 21.9286
L531.633 21.8849
L531.918 21.7738
L532.029 21.7312
L532.343 21.6201
L532.454 21.5827
L532.826 21.4716
L532.937 21.4406
L533.37 21.3295
L533.481 21.307
L534.008 21.1959
L534.119 21.173
L534.838 21.0619
L534.949 21.0479
L535.692 20.9367
L535.803 20.9155
L536.295 20.8044
L536.406 20.7803
L536.899 20.6692
L537.011 20.6363
L537.451 20.5252
L537.563 20.4978
L537.975 20.3867
L538.086 20.3546
L538.418 20.2435
L538.529 20.2098
L538.926 20.0987
L539.037 20.0699
L539.46 19.9588
L539.571 19.928
L539.963 19.8169
L540.074 19.7827
L540.489 19.6716
L540.6 19.6404
L541.06 19.5293
L541.171 19.5043
L541.626 19.3932
L541.737 19.3652
L542.204 19.2541
L542.315 19.2258
L542.796 19.1147
L542.907 19.0867
L543.39 18.9756
L543.501 18.9507
L544.058 18.8396
L544.169 18.8181
L544.764 18.707
L544.875 18.683
L545.484 18.5719
L545.595 18.5535
L546.263 18.4424
L546.374 18.4249
L547.142 18.3138
L547.253 18.2929
L547.759 18.1817
L547.871 18.1573
L547.927 18.1454
L547.927 18.1454" style="fill:none;stroke:#0000ff;stroke-width:5.0;"/>
   </g>
   <g id="matplotlib.axis_1">
    <g id="xtick_1">
     <g id="line2d_2">
      <path d="
M189.225 412.533
L189.225 10.4123" style="fill:none;stroke:#000000;stroke-dasharray:1.000000,3.000000;stroke-dashoffset:0.0;stroke-linecap:butt;stroke-width:0.5;"/>
     </g>
     <g id="line2d_3">
      <defs>
       <path d="
M0 0
L0 -4" id="m90805221d3"/>
      </defs>
      <g>
       <use style="stroke:#000000;stroke-linecap:butt;stroke-width:0.5;" x="189.224504283" xlink:href="#m90805221d3" y="262.300312372"/>
      </g>
     </g>
     <g id="text_1">
      <!-- 5 -->
      <defs>
       <path d="
M10.7969 72.9062
L49.5156 72.9062
L49.5156 64.5938
L19.8281 64.5938
L19.8281 46.7344
Q21.9688 47.4688 24.1094 47.8281
Q26.2656 48.1875 28.4219 48.1875
Q40.625 48.1875 47.75 41.5
Q54.8906 34.8125 54.8906 23.3906
Q54.8906 11.625 47.5625 5.09375
Q40.2344 -1.42188 26.9062 -1.42188
Q22.3125 -1.42188 17.5469 -0.640625
Q12.7969 0.140625 7.71875 1.70312
L7.71875 11.625
Q12.1094 9.23438 16.7969 8.0625
Q21.4844 6.89062 26.7031 6.89062
Q35.1562 6.89062 40.0781 11.3281
Q45.0156 15.7656 45.0156 23.3906
Q45.0156 31 40.0781 35.4375
Q35.1562 39.8906 26.7031 39.8906
Q22.75 39.8906 18.8125 39.0156
Q14.8906 38.1406 10.7969 36.2812
z
" id="BitstreamVeraSans-Roman-35"/>
      </defs>
      <g transform="translate(183.563879283 283.797812372)scale(0.24 -0.24)">
       <use xlink:href="#BitstreamVeraSans-Roman-35"/>
      </g>
     </g>
    </g>
    <g id="xtick_2">
     <g id="line2d_4">
      <path d="
M322.863 412.533
L322.863 10.4123" style="fill:none;stroke:#000000;stroke-dasharray:1.000000,3.000000;stroke-dashoffset:0.0;stroke-linecap:butt;stroke-width:0.5;"/>
     </g>
     <g id="line2d_5">
      <defs>
       <path d="
M0 0
L0 -4" id="m90805221d3"/>
      </defs>
      <g>
       <use style="stroke:#000000;stroke-linecap:butt;stroke-width:0.5;" x="322.862639868" xlink:href="#m90805221d3" y="262.300312372"/>
      </g>
     </g>
     <g id="text_2">
      <!-- 10 -->
      <defs>
       <path d="
M31.7812 66.4062
Q24.1719 66.4062 20.3281 58.9062
Q16.5 51.4219 16.5 36.375
Q16.5 21.3906 20.3281 13.8906
Q24.1719 6.39062 31.7812 6.39062
Q39.4531 6.39062 43.2812 13.8906
Q47.125 21.3906 47.125 36.375
Q47.125 51.4219 43.2812 58.9062
Q39.4531 66.4062 31.7812 66.4062
M31.7812 74.2188
Q44.0469 74.2188 50.5156 64.5156
Q56.9844 54.8281 56.9844 36.375
Q56.9844 17.9688 50.5156 8.26562
Q44.0469 -1.42188 31.7812 -1.42188
Q19.5312 -1.42188 13.0625 8.26562
Q6.59375 17.9688 6.59375 36.375
Q6.59375 54.8281 13.0625 64.5156
Q19.5312 74.2188 31.7812 74.2188" id="BitstreamVeraSans-Roman-30"/>
       <path d="
M12.4062 8.29688
L28.5156 8.29688
L28.5156 63.9219
L10.9844 60.4062
L10.9844 69.3906
L28.4219 72.9062
L38.2812 72.9062
L38.2812 8.29688
L54.3906 8.29688
L54.3906 0
L12.4062 0
z
" id="BitstreamVeraSans-Roman-31"/>
      </defs>
      <g transform="translate(309.707639868 284.112812372)scale(0.24 -0.24)">
       <use xlink:href="#BitstreamVeraSans-Roman-31"/>
       <use x="63.623046875" xlink:href="#BitstreamVeraSans-Roman-30"/>
      </g>
     </g>
    </g>
    <g id="xtick_3">
     <g id="line2d_6">
      <path d="
M456.501 412.533
L456.501 10.4123" style="fill:none;stroke:#000000;stroke-dasharray:1.000000,3.000000;stroke-dashoffset:0.0;stroke-linecap:butt;stroke-width:0.5;"/>
     </g>
     <g id="line2d_7">
      <defs>
       <path d="
M0 0
L0 -4" id="m90805221d3"/>
      </defs>
      <g>
       <use style="stroke:#000000;stroke-linecap:butt;stroke-width:0.5;" x="456.500775453" xlink:href="#m90805221d3" y="262.300312372"/>
      </g>
     </g>
     <g id="text_3">
      <!-- 15 -->
      <g transform="translate(443.597025453 283.797812372)scale(0.24 -0.24)">
       <use xlink:href="#BitstreamVeraSans-Roman-31"/>
       <use x="63.623046875" xlink:href="#BitstreamVeraSans-Roman-35"/>
      </g>
     </g>
    </g>
    <g id="xtick_4">
     <g id="line2d_8">
      <defs>
       <path d="
M0 0
L0 -2" id="mf56b7dabb2"/>
      </defs>
      <g>
       <use style="stroke:#000000;stroke-linecap:butt;stroke-width:0.5;" x="82.3139958147" xlink:href="#mf56b7dabb2" y="262.300312372"/>
      </g>
     </g>
    </g>
    <g id="xtick_5">
     <g id="line2d_9">
      <defs>
       <path d="
M0 0
L0 -2" id="mf56b7dabb2"/>
      </defs>
      <g>
       <use style="stroke:#000000;stroke-linecap:butt;stroke-width:0.5;" x="109.041622932" xlink:href="#mf56b7dabb2" y="262.300312372"/>
      </g>
     </g>
    </g>
    <g id="xtick_6">
     <g id="line2d_10">
      <defs>
       <path d="
M0 0
L0 -2" id="mf56b7dabb2"/>
      </defs>
      <g>
       <use style="stroke:#000000;stroke-linecap:butt;stroke-width:0.5;" x="135.769250049" xlink:href="#mf56b7dabb2" y="262.300312372"/>
      </g>
     </g>
    </g>
    <g id="xtick_7">
     <g id="line2d_11">
      <defs>
       <path d="
M0 0
L0 -2" id="mf56b7dabb2"/>
      </defs>
      <g>
       <use style="stroke:#000000;stroke-linecap:butt;stroke-width:0.5;" x="162.496877166" xlink:href="#mf56b7dabb2" y="262.300312372"/>
      </g>
     </g>
    </g>
    <g id="xtick_8">
     <g id="line2d_12">
      <defs>
       <path d="
M0 0
L0 -2" id="mf56b7dabb2"/>
      </defs>
      <g>
       <use style="stroke:#000000;stroke-linecap:butt;stroke-width:0.5;" x="215.9521314" xlink:href="#mf56b7dabb2" y="262.300312372"/>
      </g>
     </g>
    </g>
    <g id="xtick_9">
     <g id="line2d_13">
      <defs>
       <path d="
M0 0
L0 -2" id="mf56b7dabb2"/>
      </defs>
      <g>
       <use style="stroke:#000000;stroke-linecap:butt;stroke-width:0.5;" x="242.679758517" xlink:href="#mf56b7dabb2" y="262.300312372"/>
      </g>
     </g>
    </g>
    <g id="xtick_10">
     <g id="line2d_14">
      <defs>
       <path d="
M0 0
L0 -2" id="mf56b7dabb2"/>
      </defs>
      <g>
       <use style="stroke:#000000;stroke-linecap:butt;stroke-width:0.5;" x="269.407385634" xlink:href="#mf56b7dabb2" y="262.300312372"/>
      </g>
     </g>
    </g>
    <g id="xtick_11">
     <g id="line2d_15">
      <defs>
       <path d="
M0 0
L0 -2" id="mf56b7dabb2"/>
      </defs>
      <g>
       <use style="stroke:#000000;stroke-linecap:butt;stroke-width:0.5;" x="296.135012751" xlink:href="#mf56b7dabb2" y="262.300312372"/>
      </g>
     </g>
    </g>
    <g id="xtick_12">
     <g id="line2d_16">
      <defs>
       <path d="
M0 0
L0 -2" id="mf56b7dabb2"/>
      </defs>
      <g>
       <use style="stroke:#000000;stroke-linecap:butt;stroke-width:0.5;" x="349.590266985" xlink:href="#mf56b7dabb2" y="262.300312372"/>
      </g>
     </g>
    </g>
    <g id="xtick_13">
     <g id="line2d_17">
      <defs>
       <path d="
M0 0
L0 -2" id="mf56b7dabb2"/>
      </defs>
      <g>
       <use style="stroke:#000000;stroke-linecap:butt;stroke-width:0.5;" x="376.317894102" xlink:href="#mf56b7dabb2" y="262.300312372"/>
      </g>
     </g>
    </g>
    <g id="xtick_14">
     <g id="line2d_18">
      <defs>
       <path d="
M0 0
L0 -2" id="mf56b7dabb2"/>
      </defs>
      <g>
       <use style="stroke:#000000;stroke-linecap:butt;stroke-width:0.5;" x="403.045521219" xlink:href="#mf56b7dabb2" y="262.300312372"/>
      </g>
     </g>
    </g>
    <g id="xtick_15">
     <g id="line2d_19">
      <defs>
       <path d="
M0 0
L0 -2" id="mf56b7dabb2"/>
      </defs>
      <g>
       <use style="stroke:#000000;stroke-linecap:butt;stroke-width:0.5;" x="429.773148336" xlink:href="#mf56b7dabb2" y="262.300312372"/>
      </g>
     </g>
    </g>
    <g id="xtick_16">
     <g id="line2d_20">
      <defs>
       <path d="
M0 0
L0 -2" id="mf56b7dabb2"/>
      </defs>
      <g>
       <use style="stroke:#000000;stroke-linecap:butt;stroke-width:0.5;" x="483.228402569" xlink:href="#mf56b7dabb2" y="262.300312372"/>
      </g>
     </g>
    </g>
    <g id="xtick_17">
     <g id="line2d_21">
      <defs>
       <path d="
M0 0
L0 -2" id="mf56b7dabb2"/>
      </defs>
      <g>
       <use style="stroke:#000000;stroke-linecap:butt;stroke-width:0.5;" x="509.956029686" xlink:href="#mf56b7dabb2" y="262.300312372"/>
      </g>
     </g>
    </g>
   </g>
   <g id="matplotlib.axis_2">
    <g id="ytick_1">
     <g id="line2d_22">
      <path d="
M64.6363 344.308
L557.404 344.308" style="fill:none;stroke:#000000;stroke-dasharray:1.000000,3.000000;stroke-dashoffset:0.0;stroke-linecap:butt;stroke-width:0.5;"/>
     </g>
     <g id="line2d_23">
      <defs>
       <path d="
M0 0
L4 0" id="ma91061271e"/>
      </defs>
      <g>
       <use style="stroke:#000000;stroke-linecap:butt;stroke-width:0.5;" x="54.63625" xlink:href="#ma91061271e" y="344.308124829"/>
      </g>
     </g>
     <g id="text_4">
      <!-- -0.1 -->
      <defs>
       <path d="
M10.6875 12.4062
L21 12.4062
L21 0
L10.6875 0
z
" id="BitstreamVeraSans-Roman-2e"/>
       <path d="
M4.89062 31.3906
L31.2031 31.3906
L31.2031 23.3906
L4.89062 23.3906
z
" id="BitstreamVeraSans-Roman-2d"/>
      </defs>
      <g transform="translate(7.2 353.043749829)scale(0.24 -0.24)">
       <use xlink:href="#BitstreamVeraSans-Roman-2d"/>
       <use x="36.083984375" xlink:href="#BitstreamVeraSans-Roman-30"/>
       <use x="99.70703125" xlink:href="#BitstreamVeraSans-Roman-2e"/>
       <use x="131.494140625" xlink:href="#BitstreamVeraSans-Roman-31"/>
      </g>
     </g>
    </g>
    <g id="ytick_2">
     <g id="line2d_24">
      <path d="
M64.6363 262.3
L557.404 262.3" style="fill:none;stroke:#000000;stroke-dasharray:1.000000,3.000000;stroke-dashoffset:0.0;stroke-linecap:butt;stroke-width:0.5;"/>
     </g>
     <g id="line2d_25">
      <defs>
       <path d="
M0 0
L4 0" id="ma91061271e"/>
      </defs>
      <g>
       <use style="stroke:#000000;stroke-linecap:butt;stroke-width:0.5;" x="54.63625" xlink:href="#ma91061271e" y="262.300312372"/>
      </g>
     </g>
     <g id="text_5">
      <!-- 0 -->
      <g transform="translate(38.5425 271.035937372)scale(0.24 -0.24)">
       <use xlink:href="#BitstreamVeraSans-Roman-30"/>
      </g>
     </g>
    </g>
    <g id="ytick_3">
     <g id="line2d_26">
      <path d="
M64.6363 180.292
L557.404 180.292" style="fill:none;stroke:#000000;stroke-dasharray:1.000000,3.000000;stroke-dashoffset:0.0;stroke-linecap:butt;stroke-width:0.5;"/>
     </g>
     <g id="line2d_27">
      <defs>
       <path d="
M0 0
L4 0" id="ma91061271e"/>
      </defs>
      <g>
       <use style="stroke:#000000;stroke-linecap:butt;stroke-width:0.5;" x="54.63625" xlink:href="#ma91061271e" y="180.292499915"/>
      </g>
     </g>
     <g id="text_6">
      <!-- 0.1 -->
      <g transform="translate(16.2675 189.028124915)scale(0.24 -0.24)">
       <use xlink:href="#BitstreamVeraSans-Roman-30"/>
       <use x="63.623046875" xlink:href="#BitstreamVeraSans-Roman-2e"/>
       <use x="95.41015625" xlink:href="#BitstreamVeraSans-Roman-31"/>
      </g>
     </g>
    </g>
    <g id="ytick_4">
     <g id="line2d_28">
      <path d="
M64.6363 98.2847
L557.404 98.2847" style="fill:none;stroke:#000000;stroke-dasharray:1.000000,3.000000;stroke-dashoffset:0.0;stroke-linecap:butt;stroke-width:0.5;"/>
     </g>
     <g id="line2d_29">
      <defs>
       <path d="
M0 0
L4 0" id="ma91061271e"/>
      </defs>
      <g>
       <use style="stroke:#000000;stroke-linecap:butt;stroke-width:0.5;" x="54.63625" xlink:href="#ma91061271e" y="98.2846874573"/>
      </g>
     </g>
     <g id="text_7">
      <!-- 0.2 -->
      <defs>
       <path d="
M19.1875 8.29688
L53.6094 8.29688
L53.6094 0
L7.32812 0
L7.32812 8.29688
Q12.9375 14.1094 22.625 23.8906
Q32.3281 33.6875 34.8125 36.5312
Q39.5469 41.8438 41.4219 45.5312
Q43.3125 49.2188 43.3125 52.7812
Q43.3125 58.5938 39.2344 62.25
Q35.1562 65.9219 28.6094 65.9219
Q23.9688 65.9219 18.8125 64.3125
Q13.6719 62.7031 7.8125 59.4219
L7.8125 69.3906
Q13.7656 71.7812 18.9375 73
Q24.125 74.2188 28.4219 74.2188
Q39.75 74.2188 46.4844 68.5469
Q53.2188 62.8906 53.2188 53.4219
Q53.2188 48.9219 51.5312 44.8906
Q49.8594 40.875 45.4062 35.4062
Q44.1875 33.9844 37.6406 27.2188
Q31.1094 20.4531 19.1875 8.29688" id="BitstreamVeraSans-Roman-32"/>
      </defs>
      <g transform="translate(16.455 107.020312457)scale(0.24 -0.24)">
       <use xlink:href="#BitstreamVeraSans-Roman-30"/>
       <use x="63.623046875" xlink:href="#BitstreamVeraSans-Roman-2e"/>
       <use x="95.41015625" xlink:href="#BitstreamVeraSans-Roman-32"/>
      </g>
     </g>
    </g>
    <g id="ytick_5">
     <g id="line2d_30">
      <path d="
M64.6363 16.2769
L557.404 16.2769" style="fill:none;stroke:#000000;stroke-dasharray:1.000000,3.000000;stroke-dashoffset:0.0;stroke-linecap:butt;stroke-width:0.5;"/>
     </g>
     <g id="line2d_31">
      <defs>
       <path d="
M0 0
L4 0" id="ma91061271e"/>
      </defs>
      <g>
       <use style="stroke:#000000;stroke-linecap:butt;stroke-width:0.5;" x="54.63625" xlink:href="#ma91061271e" y="16.276875"/>
      </g>
     </g>
     <g id="text_8">
      <!-- 0.3 -->
      <defs>
       <path d="
M40.5781 39.3125
Q47.6562 37.7969 51.625 33
Q55.6094 28.2188 55.6094 21.1875
Q55.6094 10.4062 48.1875 4.48438
Q40.7656 -1.42188 27.0938 -1.42188
Q22.5156 -1.42188 17.6562 -0.515625
Q12.7969 0.390625 7.625 2.20312
L7.625 11.7188
Q11.7188 9.32812 16.5938 8.10938
Q21.4844 6.89062 26.8125 6.89062
Q36.0781 6.89062 40.9375 10.5469
Q45.7969 14.2031 45.7969 21.1875
Q45.7969 27.6406 41.2812 31.2656
Q36.7656 34.9062 28.7188 34.9062
L20.2188 34.9062
L20.2188 43.0156
L29.1094 43.0156
Q36.375 43.0156 40.2344 45.9219
Q44.0938 48.8281 44.0938 54.2969
Q44.0938 59.9062 40.1094 62.9062
Q36.1406 65.9219 28.7188 65.9219
Q24.6562 65.9219 20.0156 65.0312
Q15.375 64.1562 9.8125 62.3125
L9.8125 71.0938
Q15.4375 72.6562 20.3438 73.4375
Q25.25 74.2188 29.5938 74.2188
Q40.8281 74.2188 47.3594 69.1094
Q53.9062 64.0156 53.9062 55.3281
Q53.9062 49.2656 50.4375 45.0938
Q46.9688 40.9219 40.5781 39.3125" id="BitstreamVeraSans-Roman-33"/>
      </defs>
      <g transform="translate(15.975 25.0125)scale(0.24 -0.24)">
       <use xlink:href="#BitstreamVeraSans-Roman-30"/>
       <use x="63.623046875" xlink:href="#BitstreamVeraSans-Roman-2e"/>
       <use x="95.41015625" xlink:href="#BitstreamVeraSans-Roman-33"/>
      </g>
     </g>
    </g>
    <g id="ytick_6">
     <g id="line2d_32">
      <defs>
       <path d="
M0 0
L2 0" id="m2a082c8a30"/>
      </defs>
      <g>
       <use style="stroke:#000000;stroke-linecap:butt;stroke-width:0.5;" x="54.63625" xlink:href="#m2a082c8a30" y="409.914374795"/>
      </g>
     </g>
    </g>
    <g id="ytick_7">
     <g id="line2d_33">
      <defs>
       <path d="
M0 0
L2 0" id="m2a082c8a30"/>
      </defs>
      <g>
       <use style="stroke:#000000;stroke-linecap:butt;stroke-width:0.5;" x="54.63625" xlink:href="#m2a082c8a30" y="393.512812304"/>
      </g>
     </g>
    </g>
    <g id="ytick_8">
     <g id="line2d_34">
      <defs>
       <path d="
M0 0
L2 0" id="m2a082c8a30"/>
      </defs>
      <g>
       <use style="stroke:#000000;stroke-linecap:butt;stroke-width:0.5;" x="54.63625" xlink:href="#m2a082c8a30" y="377.111249812"/>
      </g>
     </g>
    </g>
    <g id="ytick_9">
     <g id="line2d_35">
      <defs>
       <path d="
M0 0
L2 0" id="m2a082c8a30"/>
      </defs>
      <g>
       <use style="stroke:#000000;stroke-linecap:butt;stroke-width:0.5;" x="54.63625" xlink:href="#m2a082c8a30" y="360.709687321"/>
      </g>
     </g>
    </g>
    <g id="ytick_10">
     <g id="line2d_36">
      <defs>
       <path d="
M0 0
L2 0" id="m2a082c8a30"/>
      </defs>
      <g>
       <use style="stroke:#000000;stroke-linecap:butt;stroke-width:0.5;" x="54.63625" xlink:href="#m2a082c8a30" y="327.906562338"/>
      </g>
     </g>
    </g>
    <g id="ytick_11">
     <g id="line2d_37">
      <defs>
       <path d="
M0 0
L2 0" id="m2a082c8a30"/>
      </defs>
      <g>
       <use style="stroke:#000000;stroke-linecap:butt;stroke-width:0.5;" x="54.63625" xlink:href="#m2a082c8a30" y="311.504999846"/>
      </g>
     </g>
    </g>
    <g id="ytick_12">
     <g id="line2d_38">
      <defs>
       <path d="
M0 0
L2 0" id="m2a082c8a30"/>
      </defs>
      <g>
       <use style="stroke:#000000;stroke-linecap:butt;stroke-width:0.5;" x="54.63625" xlink:href="#m2a082c8a30" y="295.103437355"/>
      </g>
     </g>
    </g>
    <g id="ytick_13">
     <g id="line2d_39">
      <defs>
       <path d="
M0 0
L2 0" id="m2a082c8a30"/>
      </defs>
      <g>
       <use style="stroke:#000000;stroke-linecap:butt;stroke-width:0.5;" x="54.63625" xlink:href="#m2a082c8a30" y="278.701874863"/>
      </g>
     </g>
    </g>
    <g id="ytick_14">
     <g id="line2d_40">
      <defs>
       <path d="
M0 0
L2 0" id="m2a082c8a30"/>
      </defs>
      <g>
       <use style="stroke:#000000;stroke-linecap:butt;stroke-width:0.5;" x="54.63625" xlink:href="#m2a082c8a30" y="262.300312372"/>
      </g>
     </g>
    </g>
    <g id="ytick_15">
     <g id="line2d_41">
      <defs>
       <path d="
M0 0
L2 0" id="m2a082c8a30"/>
      </defs>
      <g>
       <use style="stroke:#000000;stroke-linecap:butt;stroke-width:0.5;" x="54.63625" xlink:href="#m2a082c8a30" y="245.89874988"/>
      </g>
     </g>
    </g>
    <g id="ytick_16">
     <g id="line2d_42">
      <defs>
       <path d="
M0 0
L2 0" id="m2a082c8a30"/>
      </defs>
      <g>
       <use style="stroke:#000000;stroke-linecap:butt;stroke-width:0.5;" x="54.63625" xlink:href="#m2a082c8a30" y="229.497187389"/>
      </g>
     </g>
    </g>
    <g id="ytick_17">
     <g id="line2d_43">
      <defs>
       <path d="
M0 0
L2 0" id="m2a082c8a30"/>
      </defs>
      <g>
       <use style="stroke:#000000;stroke-linecap:butt;stroke-width:0.5;" x="54.63625" xlink:href="#m2a082c8a30" y="213.095624897"/>
      </g>
     </g>
    </g>
    <g id="ytick_18">
     <g id="line2d_44">
      <defs>
       <path d="
M0 0
L2 0" id="m2a082c8a30"/>
      </defs>
      <g>
       <use style="stroke:#000000;stroke-linecap:butt;stroke-width:0.5;" x="54.63625" xlink:href="#m2a082c8a30" y="196.694062406"/>
      </g>
     </g>
    </g>
    <g id="ytick_19">
     <g id="line2d_45">
      <defs>
       <path d="
M0 0
L2 0" id="m2a082c8a30"/>
      </defs>
      <g>
       <use style="stroke:#000000;stroke-linecap:butt;stroke-width:0.5;" x="54.63625" xlink:href="#m2a082c8a30" y="163.890937423"/>
      </g>
     </g>
    </g>
    <g id="ytick_20">
     <g id="line2d_46">
      <defs>
       <path d="
M0 0
L2 0" id="m2a082c8a30"/>
      </defs>
      <g>
       <use style="stroke:#000000;stroke-linecap:butt;stroke-width:0.5;" x="54.63625" xlink:href="#m2a082c8a30" y="147.489374932"/>
      </g>
     </g>
    </g>
    <g id="ytick_21">
     <g id="line2d_47">
      <defs>
       <path d="
M0 0
L2 0" id="m2a082c8a30"/>
      </defs>
      <g>
       <use style="stroke:#000000;stroke-linecap:butt;stroke-width:0.5;" x="54.63625" xlink:href="#m2a082c8a30" y="131.08781244"/>
      </g>
     </g>
    </g>
    <g id="ytick_22">
     <g id="line2d_48">
      <defs>
       <path d="
M0 0
L2 0" id="m2a082c8a30"/>
      </defs>
      <g>
       <use style="stroke:#000000;stroke-linecap:butt;stroke-width:0.5;" x="54.63625" xlink:href="#m2a082c8a30" y="114.686249949"/>
      </g>
     </g>
    </g>
    <g id="ytick_23">
     <g id="line2d_49">
      <defs>
       <path d="
M0 0
L2 0" id="m2a082c8a30"/>
      </defs>
      <g>
       <use style="stroke:#000000;stroke-linecap:butt;stroke-width:0.5;" x="54.63625" xlink:href="#m2a082c8a30" y="81.8831249658"/>
      </g>
     </g>
    </g>
    <g id="ytick_24">
     <g id="line2d_50">
      <defs>
       <path d="
M0 0
L2 0" id="m2a082c8a30"/>
      </defs>
      <g>
       <use style="stroke:#000000;stroke-linecap:butt;stroke-width:0.5;" x="54.63625" xlink:href="#m2a082c8a30" y="65.4815624744"/>
      </g>
     </g>
    </g>
    <g id="ytick_25">
     <g id="line2d_51">
      <defs>
       <path d="
M0 0
L2 0" id="m2a082c8a30"/>
      </defs>
      <g>
       <use style="stroke:#000000;stroke-linecap:butt;stroke-width:0.5;" x="54.63625" xlink:href="#m2a082c8a30" y="49.0799999829"/>
      </g>
     </g>
    </g>
    <g id="ytick_26">
     <g id="line2d_52">
      <defs>
       <path d="
M0 0
L2 0" id="m2a082c8a30"/>
      </defs>
      <g>
       <use style="stroke:#000000;stroke-linecap:butt;stroke-width:0.5;" x="54.63625" xlink:href="#m2a082c8a30" y="32.6784374915"/>
      </g>
     </g>
    </g>
   </g>
   <g id="patch_3">
    <path d="
M64.6363 262.3
L557.404 262.3" style="fill:none;stroke:#000000;stroke-width:0.8;"/>
   </g>
   <g id="patch_4">
    <path d="
M54.6363 412.533
L54.6363 10.4123" style="fill:none;stroke:#000000;stroke-width:0.8;"/>
   </g>
  </g>
 </g>
 <defs>
  <clipPath id="p4a77293975">
   <rect height="402.120235558" width="492.7675" x="64.63625" y="10.412347483"/>
  </clipPath>
 </defs>
</svg>
