<?xml version="1.0" encoding="utf-8" standalone="no"?>
<!DOCTYPE svg PUBLIC "-//W3C//DTD SVG 1.1//EN"
  "http://www.w3.org/Graphics/SVG/1.1/DTD/svg11.dtd">
<!-- Created with matplotlib (http://matplotlib.sourceforge.net/) -->
<svg height="420pt" version="1.1" viewBox="0 0 564 420" width="564pt" xmlns="http://www.w3.org/2000/svg" xmlns:xlink="http://www.w3.org/1999/xlink">
 <defs>
  <style type="text/css">
*{stroke-linecap:square;stroke-linejoin:round;}
  </style>
 </defs>
 <g id="figure_1">
  <g id="patch_1">
   <path d="
M2.22045e-16 420.48
L564.559 420.48
L564.559 0
L2.22045e-16 0
z
" style="fill:#ffffff;"/>
  </g>
  <g id="axes_1">
   <g id="patch_2">
    <path d="
M64.9287 413.28
L557.359 413.28
L557.359 7.2
L64.9287 7.2
z
" style="fill:#ffffff;"/>
   </g>
   <g id="line2d_1">
    <path clip-path="url(#p1573a0c717)" d="
M74.3986 89.0141
L85.2283 89.0141
L85.2283 114.869
L98.8721 114.869
L98.8721 329.741
L107.859 329.741
L107.859 379.851
L119.931 379.851
L119.931 385.829
L124.393 385.829
L124.393 384.826
L131.558 384.826
L131.558 405.471
L134.529 405.471
L134.529 400.244
L139.632 400.244
L139.632 386.177
L145.823 386.177
L145.823 370.895
L147.605 370.895
L147.605 370.283
L152.33 370.283
L152.33 373.719
L155.072 373.719
L155.072 373.907
L156.344 373.907
L156.344 372.311
L158.72 372.311
L158.72 365.67
L161.929 365.67
L161.929 363.804
L164.793 363.804
L164.793 359.512
L165.684 359.512
L165.684 358.924
L168.19 358.924
L168.19 354.729
L169.738 354.729
L169.738 352.911
L170.48 352.911
L170.48 352.049
L172.59 352.049
L172.59 349.202
L173.909 349.202
L173.909 346.475
L175.773 346.475
L175.773 343.692
L178.072 343.692
L178.072 341.447
L179.152 341.447
L179.152 341.189
L179.676 341.189
L179.676 341.059
L181.188 341.073
L181.188 340.689
L182.15 340.689
L182.15 339.822
L185.27 339.822
L185.27 335.945
L186.098 335.945
L186.098 335.634
L187.294 335.634
L187.294 334.093
L187.682 334.093
L187.682 333.263
L189.537 333.263
L189.537 328.147
L189.893 328.147
L189.893 327.463
L190.934 327.463
L190.934 325.132
L191.936 325.132
L191.936 323.089
L192.583 323.089
L192.583 322.189
L193.526 322.189
L193.526 321.32
L194.437 321.32
L194.437 320.883
L196.17 320.865
L196.17 319.785
L196.448 319.785
L196.448 319.36
L196.996 319.36
L196.996 318.283
L197.266 318.283
L197.266 317.908
L198.83 317.908
L198.83 314.806
L200.307 314.806
L200.307 312.111
L200.782 312.111
L200.782 311.156
L201.016 311.156
L201.016 310.575
L201.479 310.575
L201.479 309.484
L202.158 309.484
L202.158 308.001
L202.38 308.001
L202.38 307.385
L203.466 307.385
L203.466 304.679
L204.097 304.679
L204.097 303.395
L204.714 303.395
L204.714 301.899
L205.316 301.899
L205.316 300.452
L205.514 300.452
L205.514 300.031
L206.099 300.031
L206.099 298.995
L206.482 298.995
L206.482 298.401
L206.671 298.401
L206.671 298.132
L207.599 298.132
L207.599 297.236
L208.845 297.236
L208.845 295.466
L209.191 295.466
L209.191 294.968
L209.362 294.968
L209.362 294.797
L209.701 294.797
L209.701 294.52
L210.856 294.52
L210.856 293.463
L211.336 293.463
L211.336 292.962
L212.117 292.962
L212.117 291.972
L212.27 291.972
L212.27 291.838
L212.574 291.838
L212.574 291.708
L213.025 291.708
L213.025 291.389
L213.613 291.389
L213.613 291.19
L214.046 291.19
L214.046 290.991
L214.473 290.991
L214.473 290.708
L214.753 290.708
L214.753 290.587
L215.168 290.587
L215.168 290.194
L215.712 290.194
L215.712 289.546
L215.98 289.546
L215.98 289.155
L216.507 289.155
L216.507 288.517
L217.153 288.517
L217.153 287.623
L217.28 287.623
L217.28 287.438
L217.907 287.438
L217.907 286.61
L218.03 286.61
L218.03 286.41
L218.398 286.41
L218.398 285.974
L218.64 285.974
L218.64 285.663
L219 285.663
L219 285.257
L219.471 285.257
L219.471 284.625
L219.704 284.625
L219.704 284.342
L219.82 284.342
L219.82 284.186
L220.049 284.186
L220.049 283.792
L220.727 283.792
L220.727 282.682
L221.169 282.682
L221.169 282.138
L221.388 282.138
L221.388 281.909
L221.82 281.909
L221.82 281.512
L222.033 281.512
L222.033 281.326
L222.35 281.326
L222.35 281.05
L222.972 281.05
L223.074 280.149
L223.978 280.149
L223.978 278.972
L224.273 278.972
L224.273 278.485
L224.756 278.485
L224.756 277.651
L225.043 277.651
L225.043 277.146
L225.326 277.146
L225.42 276.374
L225.699 276.374
L225.699 275.714
L226.158 275.714
L226.158 274.626
L226.429 274.626
L226.429 274.086
L226.698 274.086
L226.787 273.413
L227.053 273.413
L227.053 272.898
L227.315 272.898
L227.315 272.32
L227.489 272.32
L227.575 271.742
L228.088 271.742
L228.088 270.482
L228.508 270.482
L228.591 269.332
L228.757 269.332
L228.757 268.956
L229.004 268.956
L229.004 268.422
L229.248 268.422
L229.329 267.69
L229.809 267.69
L229.809 266.826
L229.968 266.826
L229.968 266.512
L230.203 266.512
L230.203 266.067
L230.514 266.067
L230.514 265.509
L230.898 265.509
L230.898 264.951
L231.201 264.951
L231.201 264.473
L231.575 264.473
L231.575 264.007
L231.871 264.007
L231.871 263.616
L232.09 263.616
L232.09 263.26
L232.308 263.26
L232.308 262.967
L232.452 262.967
L232.452 262.789
L232.738 262.789
L232.738 262.392
L232.951 262.392
L232.951 262.153
L233.092 262.153
L233.092 261.993
L233.371 261.993
L233.371 261.709
L233.51 261.709
L233.51 261.557
L233.989 261.557
L233.989 260.957
L234.326 260.957
L234.326 260.584
L234.725 260.584
L234.791 260.103
L235.119 260.103
L235.184 259.68
L235.313 259.68
L235.378 259.525
L235.698 259.525
L235.698 259.211
L236.14 259.211
L236.14 258.748
L236.265 258.748
L236.327 258.513
L236.451 258.513
L236.451 258.356
L236.881 258.356
L236.881 257.871
L237.003 257.871
L237.063 257.706
L237.779 257.607
L237.779 257.238
L238.13 257.138
L238.13 256.882
L238.419 256.882
L238.419 256.481
L238.648 256.481
L238.648 256.157
L238.762 256.157
L238.762 255.995
L238.932 255.995
L238.932 255.775
L239.101 255.775
L239.101 255.537
L239.49 255.537
L239.6 254.95
L239.765 254.95
L239.765 254.742
L239.929 254.742
L239.929 254.541
L240.145 254.541
L240.145 254.312
L240.306 254.312
L240.306 254.155
L240.626 254.155
L240.732 253.742
L240.942 253.634
L240.942 253.59
L241.202 253.59
L241.254 253.332
L241.408 253.332
L241.408 253.186
L241.664 253.186
L241.715 252.909
L241.968 252.909
L242.018 252.618
L242.169 252.618
L242.169 252.501
L242.615 252.501
L242.713 252.058
L242.859 252.01
L242.859 251.925
L243.005 251.925
L243.005 251.801
L243.15 251.801
L243.15 251.649
L243.342 251.649
L243.342 251.419
L243.485 251.419
L243.485 251.269
L243.627 251.269
L243.627 251.146
L244.143 251.146
L244.189 250.55
L244.42 250.55
L244.42 250.315
L244.603 250.315
L244.603 250.173
L244.83 250.173
L244.83 249.979
L244.965 249.979
L244.965 249.831
L245.1 249.831
L245.1 249.691
L245.278 249.691
L245.278 249.461
L245.544 249.461
L245.632 248.978
L245.763 248.978
L245.763 248.792
L245.894 248.792
L245.937 248.557
L246.067 248.557
L246.067 248.385
L246.325 248.385
L246.325 248.083
L246.538 248.083
L246.538 247.813
L246.917 247.813
L246.959 247.251
L247.043 247.251
L247.043 247.128
L247.167 247.128
L247.209 246.878
L247.332 246.878
L247.415 246.605
L247.538 246.56
L247.538 246.469
L247.782 246.469
L247.822 246.115
L247.943 246.115
L247.943 245.947
L248.619 245.947
L248.619 244.944
L248.736 244.944
L248.736 244.777
L248.853 244.777
L248.853 244.621
L249.009 244.621
L249.009 244.429
L249.354 244.429
L249.354 244.027
L249.545 244.027
L249.545 243.832
L249.809 243.832
L249.884 243.452
L249.996 243.408
L249.996 243.315
L250.107 243.315
L250.107 243.162
L250.255 243.162
L250.366 242.816
L250.476 242.816
L250.476 242.678
L250.695 242.678
L250.695 242.38
L250.876 242.38
L250.984 241.971
L251.091 241.925
L251.198 241.714
L251.411 241.714
L251.411 241.465
L251.623 241.465
L251.623 241.218
L251.763 241.218
L251.763 241.084
L251.971 241.084
L252.075 240.774
L252.247 240.709
L252.247 240.598
L252.383 240.598
L252.451 240.389
L252.587 240.389
L252.655 240.158
L252.89 240.158
L252.957 239.849
L253.09 239.741
L253.156 239.616
L253.288 239.509
L253.387 239.369
L253.551 239.369
L253.551 239.19
L253.875 239.19
L253.972 238.742
L254.449 238.641
L254.544 238.05
L254.7 238.05
L254.7 237.858
L254.887 237.858
L254.918 237.561
L255.073 237.561
L255.073 237.355
L255.196 237.355
L255.288 237.09
L255.379 237.09
L255.47 236.87
L255.742 236.87
L255.832 236.417
L255.922 236.339
L255.922 236.295
L256.101 236.295
L256.101 236.036
L256.249 236.036
L256.249 235.834
L256.425 235.834
L256.425 235.575
L256.542 235.575
L256.542 235.411
L256.774 235.411
L256.774 235.107
L256.976 235.107
L257.062 234.723
L257.148 234.64
L257.233 234.455
L257.375 234.455
L257.375 234.192
L257.544 234.192
L257.628 233.717
L257.712 233.717
L257.712 233.554
L257.962 233.554
L257.99 232.984
L258.21 232.984
L258.237 232.453
L258.537 232.453
L258.618 231.643
L258.726 231.643
L258.806 231.265
L258.887 231.161
L258.94 231.021
L259.047 231.021
L259.126 230.726
L259.258 230.726
L259.285 230.51
L259.416 230.51
L259.416 230.339
L259.599 230.339
L259.599 230.102
L259.728 230.102
L259.806 229.813
L259.96 229.813
L260.063 229.451
L260.19 229.451
L260.19 229.277
L260.343 229.277
L260.368 229.022
L260.569 229.022
L260.67 228.557
L260.745 228.478
L260.745 228.442
L260.869 228.442
L260.968 228.086
L261.19 228.086
L261.19 227.735
L261.482 227.735
L261.531 227.26
L261.699 227.171
L261.699 227.063
L261.891 227.063
L261.963 226.788
L262.247 226.693
L262.318 226.387
L262.411 226.387
L262.482 226.188
L262.598 226.102
L262.598 226.052
L262.737 226.052
L262.76 225.89
L263.013 225.89
L263.105 225.603
L263.287 225.516
L263.287 225.461
L263.445 225.461
L263.512 225.287
L263.759 225.188
L263.759 225.151
L264.024 225.048
L264.024 225.009
L264.222 224.905
L264.288 224.823
L264.505 224.738
L264.613 224.593
L264.892 224.593
L264.892 224.349
L265.083 224.349
L265.189 224.092
L265.316 224.011
L265.399 223.895
L265.691 223.839
L265.691 223.622
L265.836 223.52
L265.836 223.5
L266 223.5
L266.082 223.303
L266.386 223.194
L266.487 223.017
L266.627 222.968
L266.687 222.846
L266.807 222.753
L266.906 222.636
L267.024 222.553
L267.103 222.437
L267.318 222.339
L267.396 222.195
L267.57 222.164
L267.667 221.998
L267.858 221.9
L267.916 221.787
L268.068 221.787
L268.068 221.605
L268.2 221.605
L268.294 221.349
L268.425 221.259
L268.463 221.143
L268.63 221.143
L268.704 220.845
L268.797 220.845
L268.907 220.58
L269.072 220.48
L269.181 220.206
L269.308 220.206
L269.398 219.923
L269.721 219.834
L269.827 219.393
L269.934 219.305
L269.934 219.264
L270.057 219.264
L270.162 218.992
L270.267 218.992
L270.32 218.806
L270.459 218.698
L270.511 218.612
L270.683 218.612
L270.786 218.364
L270.922 218.364
L270.922 218.243
L271.143 218.243
L271.193 218
L271.345 217.91
L271.378 217.839
L271.529 217.754
L271.628 217.614
L271.876 217.547
L271.941 217.318
L272.267 217.222
L272.332 216.949
L272.461 216.859
L272.525 216.766
L272.653 216.67
L272.749 216.544
L272.986 216.453
L273.002 216.346
L273.128 216.346
L273.175 216.188
L273.331 216.188
L273.331 216.039
L273.455 216.039
L273.563 215.809
L273.778 215.769
L273.839 215.532
L273.931 215.532
L273.976 215.364
L274.067 215.266
L274.158 215.105
L274.278 215.032
L274.383 214.76
L274.473 214.658
L274.547 214.546
L274.651 214.546
L274.725 214.319
L274.828 214.267
L274.917 214.099
L275.034 214.099
L275.136 213.833
L275.266 213.798
L275.338 213.594
L275.468 213.532
L275.568 213.35
L275.768 213.31
L275.825 213.118
L275.994 213.051
L276.065 212.887
L276.205 212.784
L276.274 212.712
L276.413 212.602
L276.483 212.522
L276.607 212.43
L276.662 212.348
L276.785 212.348
L276.894 212.087
L277.03 212.027
L277.057 211.912
L277.192 211.912
L277.192 211.763
L277.34 211.763
L277.434 211.521
L277.593 211.411
L277.593 211.372
L277.739 211.372
L277.791 211.199
L277.936 211.107
L278.027 210.991
L278.248 210.881
L278.326 210.727
L278.57 210.618
L278.57 210.501
L278.723 210.501
L278.825 210.23
L278.976 210.14
L279.052 210.015
L279.239 209.909
L279.326 209.791
L279.512 209.791
L279.586 209.579
L279.734 209.477
L279.795 209.387
L279.941 209.286
L280.014 209.179
L280.207 209.098
L280.303 208.892
L280.446 208.857
L280.518 208.672
L280.636 208.575
L280.696 208.48
L280.837 208.48
L280.919 208.275
L281.094 208.179
L281.164 208.101
L281.36 208.034
L281.441 207.93
L281.67 207.821
L281.738 207.723
L282.009 207.617
L282.054 207.514
L282.211 207.411
L282.289 207.335
L282.62 207.224
L282.708 207.03
L282.85 206.981
L282.937 206.833
L283.067 206.733
L283.143 206.619
L283.304 206.522
L283.39 206.344
L283.581 206.248
L283.687 206.079
L283.834 205.984
L283.939 205.867
L284.147 205.808
L284.251 205.572
L284.406 205.463
L284.467 205.361
L284.58 205.27
L284.61 205.217
L284.733 205.217
L284.834 204.989
L284.945 204.898
L285.045 204.742
L285.166 204.679
L285.186 204.572
L285.335 204.572
L285.424 204.277
L285.523 204.17
L285.631 204.024
L285.778 203.977
L285.837 203.781
L285.934 203.672
L286.021 203.563
L286.195 203.512
L286.271 203.281
L286.51 203.178
L286.595 202.901
L286.728 202.796
L286.822 202.605
L286.925 202.528
L286.953 202.422
L287.046 202.422
L287.102 202.217
L287.241 202.217
L287.342 201.9
L287.434 201.829
L287.535 201.653
L287.644 201.544
L287.708 201.429
L287.808 201.337
L287.916 201.17
L288.033 201.108
L288.033 201.035
L288.158 201.035
L288.185 200.871
L288.372 200.761
L288.478 200.555
L288.593 200.449
L288.689 200.304
L288.82 200.199
L288.907 200.044
L289.106 199.935
L289.209 199.716
L289.321 199.677
L289.423 199.471
L289.542 199.391
L289.644 199.21
L289.77 199.108
L289.879 198.917
L290.054 198.817
L290.079 198.655
L290.171 198.655
L290.27 198.419
L290.467 198.322
L290.574 198.034
L290.663 197.948
L290.712 197.849
L290.817 197.745
L290.866 197.63
L291.002 197.53
L291.107 197.299
L291.195 197.233
L291.266 197.08
L291.433 196.979
L291.511 196.738
L291.598 196.673
L291.7 196.485
L291.809 196.416
L291.91 196.172
L292.003 196.076
L292.042 195.964
L292.157 195.964
L292.25 195.643
L292.326 195.572
L292.433 195.36
L292.509 195.313
L292.577 195.154
L292.66 195.092
L292.751 194.92
L292.841 194.823
L292.93 194.67
L293.027 194.631
L293.087 194.474
L293.183 194.385
L293.287 194.215
L293.419 194.182
L293.514 193.869
L293.594 193.802
L293.667 193.624
L293.819 193.522
L293.906 193.25
L294.028 193.158
L294.135 192.879
L294.228 192.772
L294.335 192.552
L294.413 192.482
L294.518 192.254
L294.631 192.156
L294.729 191.925
L294.812 191.819
L294.917 191.655
L295.048 191.545
L295.11 191.415
L295.213 191.415
L295.309 191.184
L295.432 191.084
L295.533 190.908
L295.655 190.799
L295.763 190.607
L295.904 190.558
L295.984 190.346
L296.103 190.262
L296.196 190.107
L296.295 190.029
L296.335 189.945
L296.459 189.854
L296.557 189.687
L296.687 189.582
L296.791 189.435
L296.901 189.334
L297.003 189.217
L297.112 189.139
L297.195 189.013
L297.303 188.91
L297.379 188.809
L297.549 188.735
L297.631 188.53
L297.743 188.472
L297.849 188.294
L297.986 188.187
L298.097 188.03
L298.226 187.929
L298.33 187.828
L298.494 187.717
L298.591 187.633
L298.735 187.563
L298.843 187.429
L298.981 187.331
L299.076 187.24
L299.218 187.139
L299.271 187.079
L299.447 186.974
L299.546 186.86
L299.721 186.76
L299.825 186.644
L299.98 186.557
L300.089 186.418
L300.226 186.316
L300.328 186.22
L300.492 186.11
L300.576 186.008
L300.76 185.939
L300.861 185.757
L301.01 185.649
L301.065 185.541
L301.181 185.436
L301.263 185.332
L301.377 185.236
L301.486 185.102
L301.621 184.996
L301.729 184.832
L301.906 184.736
L301.991 184.556
L302.129 184.457
L302.24 184.318
L302.398 184.211
L302.476 184.129
L302.648 184.036
L302.757 183.927
L302.932 183.817
L303.019 183.744
L303.188 183.644
L303.269 183.561
L303.446 183.452
L303.541 183.39
L303.717 183.307
L303.826 183.199
L304.019 183.116
L304.108 183.004
L304.279 182.934
L304.382 182.816
L304.571 182.707
L304.658 182.641
L304.845 182.536
L304.945 182.438
L305.087 182.342
L305.192 182.238
L305.347 182.15
L305.441 182.06
L305.594 181.954
L305.683 181.863
L305.803 181.806
L305.9 181.645
L306.028 181.56
L306.124 181.401
L306.256 181.338
L306.355 181.152
L306.504 181.041
L306.607 180.867
L306.714 180.772
L306.781 180.666
L306.914 180.563
L307.02 180.365
L307.113 180.255
L307.222 180.115
L307.336 180.009
L307.418 179.898
L307.574 179.792
L307.678 179.622
L307.789 179.544
L307.883 179.417
L307.994 179.341
L308.1 179.195
L308.248 179.09
L308.353 178.947
L308.478 178.84
L308.566 178.735
L308.674 178.628
L308.773 178.512
L308.897 178.425
L308.995 178.296
L309.118 178.188
L309.227 178.056
L309.337 178.003
L309.438 177.826
L309.558 177.723
L309.666 177.572
L309.786 177.477
L309.877 177.324
L309.976 177.24
L310.082 177.07
L310.196 176.962
L310.29 176.792
L310.395 176.709
L310.503 176.512
L310.604 176.428
L310.707 176.25
L310.811 176.14
L310.895 176.04
L311.009 175.941
L311.077 175.828
L311.176 175.719
L311.266 175.584
L311.405 175.476
L311.491 175.3
L311.602 175.209
L311.695 175.058
L311.791 174.963
L311.901 174.794
L312.033 174.697
L312.121 174.533
L312.219 174.431
L312.327 174.305
L312.436 174.215
L312.533 174.091
L312.64 173.985
L312.747 173.847
L312.846 173.755
L312.949 173.607
L313.048 173.517
L313.142 173.379
L313.258 173.27
L313.352 173.16
L313.466 173.062
L313.546 172.947
L313.663 172.851
L313.766 172.717
L313.879 172.609
L313.988 172.486
L314.099 172.377
L314.204 172.253
L314.305 172.15
L314.395 172.036
L314.496 171.972
L314.602 171.813
L314.744 171.734
L314.853 171.563
L314.991 171.453
L315.069 171.359
L315.186 171.251
L315.293 171.134
L315.429 171.041
L315.522 170.912
L315.659 170.806
L315.761 170.707
L315.885 170.6
L315.97 170.508
L316.093 170.404
L316.18 170.298
L316.308 170.197
L316.386 170.072
L316.513 169.982
L316.618 169.792
L316.71 169.681
L316.82 169.541
L316.912 169.449
L317.021 169.295
L317.148 169.189
L317.229 169.051
L317.328 168.968
L317.424 168.821
L317.523 168.733
L317.606 168.6
L317.718 168.493
L317.807 168.371
L317.906 168.269
L318.012 168.132
L318.125 168.023
L318.236 167.867
L318.343 167.763
L318.452 167.601
L318.55 167.522
L318.65 167.356
L318.744 167.246
L318.846 167.111
L318.956 167.025
L319.049 166.864
L319.141 166.76
L319.25 166.611
L319.337 166.511
L319.434 166.368
L319.55 166.284
L319.652 166.066
L319.734 165.959
L319.838 165.805
L319.944 165.757
L320.05 165.521
L320.15 165.414
L320.255 165.264
L320.348 165.169
L320.439 165.041
L320.535 164.944
L320.644 164.803
L320.757 164.699
L320.868 164.575
L321.03 164.467
L321.126 164.343
L321.272 164.24
L321.382 164.111
L321.521 164.002
L321.626 163.898
L321.743 163.79
L321.839 163.69
L321.971 163.591
L322.061 163.501
L322.216 163.392
L322.323 163.304
L322.455 163.197
L322.559 163.08
L322.669 162.974
L322.779 162.86
L322.899 162.756
L323.008 162.612
L323.124 162.506
L323.223 162.382
L323.359 162.28
L323.467 162.113
L323.583 162.018
L323.69 161.891
L323.807 161.781
L323.913 161.674
L324.042 161.566
L324.146 161.452
L324.285 161.344
L324.396 161.224
L324.511 161.118
L324.613 161.013
L324.743 160.909
L324.854 160.769
L324.956 160.695
L325.061 160.533
L325.158 160.425
L325.262 160.288
L325.362 160.179
L325.471 160.052
L325.581 159.964
L325.689 159.813
L325.791 159.707
L325.898 159.589
L326.007 159.49
L326.11 159.367
L326.229 159.261
L326.338 159.124
L326.464 159.017
L326.562 158.924
L326.689 158.815
L326.796 158.72
L326.928 158.621
L327.039 158.501
L327.159 158.398
L327.252 158.297
L327.376 158.201
L327.462 158.113
L327.616 158.005
L327.724 157.916
L327.875 157.81
L327.978 157.72
L328.105 157.612
L328.201 157.529
L328.338 157.429
L328.447 157.328
L328.593 157.24
L328.695 157.138
L328.835 157.04
L328.946 156.943
L329.132 156.835
L329.241 156.738
L329.406 156.631
L329.505 156.542
L329.656 156.432
L329.76 156.362
L329.945 156.256
L330.05 156.178
L330.195 156.074
L330.305 155.973
L330.445 155.862
L330.555 155.758
L330.679 155.648
L330.782 155.549
L330.901 155.44
L331.009 155.332
L331.124 155.222
L331.22 155.124
L331.336 155.017
L331.444 154.916
L331.574 154.818
L331.68 154.717
L331.837 154.608
L331.941 154.517
L332.091 154.409
L332.184 154.331
L332.335 154.225
L332.446 154.135
L332.604 154.026
L332.702 153.959
L332.876 153.848
L332.978 153.766
L333.148 153.658
L333.255 153.583
L333.439 153.474
L333.547 153.397
L333.726 153.287
L333.835 153.22
L334.041 153.112
L334.146 153.043
L334.339 152.939
L334.439 152.863
L334.618 152.757
L334.717 152.686
L334.888 152.583
L334.996 152.488
L335.134 152.382
L335.232 152.286
L335.365 152.195
L335.469 152.088
L335.615 151.977
L335.72 151.895
L335.898 151.794
L336.003 151.689
L336.154 151.581
L336.26 151.503
L336.419 151.412
L336.529 151.311
L336.677 151.202
L336.782 151.118
L336.92 151.007
L337.031 150.909
L337.152 150.801
L337.255 150.7
L337.39 150.589
L337.479 150.469
L337.592 150.362
L337.697 150.234
L337.803 150.13
L337.894 150.023
L338.011 149.913
L338.115 149.808
L338.233 149.703
L338.333 149.587
L338.443 149.478
L338.552 149.353
L338.65 149.261
L338.759 149.121
L338.867 149.02
L338.976 148.877
L339.098 148.774
L339.202 148.671
L339.329 148.569
L339.434 148.463
L339.569 148.353
L339.678 148.239
L339.795 148.128
L339.906 148.015
L340.038 147.91
L340.145 147.787
L340.256 147.687
L340.361 147.563
L340.491 147.452
L340.589 147.342
L340.701 147.235
L340.81 147.113
L340.918 147.01
L341.026 146.889
L341.143 146.784
L341.253 146.646
L341.37 146.553
L341.477 146.41
L341.593 146.303
L341.695 146.196
L341.814 146.087
L341.924 145.991
L342.064 145.88
L342.173 145.78
L342.304 145.671
L342.413 145.573
L342.55 145.462
L342.659 145.366
L342.798 145.263
L342.908 145.169
L343.039 145.058
L343.146 144.965
L343.289 144.857
L343.396 144.765
L343.539 144.657
L343.64 144.56
L343.773 144.45
L343.883 144.365
L344.032 144.255
L344.142 144.169
L344.305 144.074
L344.41 143.975
L344.556 143.865
L344.666 143.771
L344.831 143.666
L344.94 143.57
L345.093 143.467
L345.192 143.383
L345.355 143.272
L345.46 143.186
L345.603 143.083
L345.712 142.989
L345.854 142.881
L345.963 142.787
L346.106 142.69
L346.217 142.576
L346.348 142.472
L346.456 142.382
L346.608 142.275
L346.716 142.175
L346.846 142.066
L346.954 141.963
L347.071 141.856
L347.177 141.746
L347.298 141.64
L347.409 141.516
L347.525 141.406
L347.633 141.306
L347.766 141.195
L347.877 141.093
L347.995 140.987
L348.106 140.867
L348.213 140.769
L348.323 140.636
L348.424 140.526
L348.528 140.401
L348.633 140.3
L348.743 140.173
L348.861 140.062
L348.963 139.964
L349.084 139.859
L349.191 139.751
L349.326 139.642
L349.422 139.567
L349.57 139.464
L349.669 139.37
L349.81 139.259
L349.92 139.168
L350.062 139.057
L350.168 138.976
L350.33 138.874
L350.439 138.781
L350.597 138.67
L350.709 138.587
L350.851 138.476
L350.958 138.384
L351.088 138.278
L351.196 138.18
L351.337 138.07
L351.446 137.974
L351.58 137.872
L351.681 137.768
L351.806 137.657
L351.911 137.557
L352.026 137.449
L352.134 137.336
L352.27 137.225
L352.379 137.119
L352.503 137.009
L352.61 136.903
L352.732 136.8
L352.838 136.7
L352.968 136.595
L353.078 136.493
L353.209 136.389
L353.314 136.287
L353.444 136.177
L353.555 136.075
L353.684 135.965
L353.795 135.843
L353.903 135.734
L354.01 135.616
L354.122 135.508
L354.233 135.379
L354.348 135.273
L354.453 135.158
L354.58 135.048
L354.677 134.956
L354.81 134.846
L354.917 134.747
L355.051 134.637
L355.158 134.538
L355.29 134.43
L355.399 134.332
L355.528 134.224
L355.631 134.124
L355.751 134.019
L355.859 133.912
L355.983 133.802
L356.092 133.712
L356.239 133.602
L356.35 133.51
L356.489 133.402
L356.599 133.31
L356.762 133.202
L356.87 133.124
L357.032 133.014
L357.143 132.93
L357.287 132.824
L357.396 132.739
L357.563 132.632
L357.672 132.549
L357.833 132.44
L357.943 132.356
L358.091 132.245
L358.201 132.163
L358.34 132.055
L358.448 131.964
L358.596 131.855
L358.705 131.774
L358.871 131.664
L358.982 131.588
L359.145 131.479
L359.255 131.401
L359.403 131.29
L359.514 131.206
L359.671 131.096
L359.778 131.008
L359.928 130.9
L360.037 130.809
L360.17 130.698
L360.28 130.602
L360.418 130.492
L360.529 130.397
L360.654 130.288
L360.765 130.182
L360.892 130.078
L361.002 129.961
L361.122 129.856
L361.231 129.753
L361.357 129.643
L361.466 129.543
L361.586 129.434
L361.692 129.325
L361.807 129.216
L361.911 129.105
L362.035 128.996
L362.142 128.889
L362.267 128.779
L362.377 128.67
L362.505 128.56
L362.615 128.465
L362.759 128.356
L362.863 128.263
L362.989 128.155
L363.1 128.059
L363.245 127.95
L363.356 127.857
L363.507 127.748
L363.614 127.655
L363.749 127.545
L363.856 127.451
L363.982 127.34
L364.093 127.243
L364.224 127.132
L364.335 127.041
L364.476 126.932
L364.587 126.837
L364.725 126.731
L364.833 126.637
L364.97 126.528
L365.08 126.433
L365.203 126.324
L365.312 126.223
L365.443 126.114
L365.551 126.016
L365.675 125.906
L365.786 125.808
L365.924 125.699
L366.035 125.592
L366.159 125.481
L366.264 125.392
L366.402 125.282
L366.51 125.185
L366.647 125.075
L366.755 124.985
L366.894 124.874
L367.002 124.781
L367.143 124.671
L367.253 124.587
L367.427 124.477
L367.536 124.392
L367.694 124.284
L367.804 124.2
L367.993 124.089
L368.103 124.024
L368.292 123.914
L368.401 123.85
L368.601 123.739
L368.71 123.67
L368.888 123.559
L368.999 123.484
L369.179 123.374
L369.288 123.307
L369.486 123.196
L369.597 123.124
L369.759 123.014
L369.867 122.937
L370.03 122.828
L370.141 122.747
L370.321 122.637
L370.43 122.574
L370.602 122.466
L370.71 122.389
L370.884 122.278
L370.995 122.204
L371.188 122.093
L371.298 122.023
L371.483 121.913
L371.588 121.843
L371.752 121.732
L371.862 121.659
L372.036 121.551
L372.144 121.474
L372.31 121.367
L372.42 121.286
L372.587 121.175
L372.699 121.1
L372.853 120.99
L372.962 120.899
L373.103 120.79
L373.212 120.702
L373.359 120.592
L373.47 120.513
L373.635 120.403
L373.746 120.324
L373.9 120.215
L374.008 120.139
L374.172 120.03
L374.284 119.953
L374.454 119.845
L374.565 119.773
L374.714 119.662
L374.824 119.571
L374.966 119.46
L375.075 119.373
L375.211 119.263
L375.321 119.167
L375.453 119.057
L375.562 118.959
L375.696 118.848
L375.806 118.763
L375.941 118.654
L376.051 118.551
L376.163 118.44
L376.273 118.326
L376.388 118.215
L376.497 118.105
L376.616 117.995
L376.726 117.887
L376.835 117.776
L376.94 117.67
L377.059 117.561
L377.168 117.461
L377.306 117.351
L377.415 117.254
L377.546 117.144
L377.656 117.038
L377.777 116.927
L377.888 116.814
L378.004 116.704
L378.114 116.587
L378.224 116.477
L378.335 116.371
L378.458 116.26
L378.568 116.152
L378.689 116.041
L378.799 115.941
L378.926 115.831
L379.036 115.739
L379.166 115.629
L379.277 115.527
L379.403 115.417
L379.514 115.315
L379.639 115.205
L379.75 115.093
L379.871 114.982
L379.98 114.886
L380.119 114.776
L380.229 114.676
L380.347 114.565
L380.458 114.458
L380.568 114.347
L380.678 114.234
L380.797 114.125
L380.907 114.015
L381.025 113.904
L381.136 113.796
L381.251 113.686
L381.362 113.567
L381.466 113.456
L381.575 113.342
L381.679 113.232
L381.788 113.119
L381.901 113.009
L382.009 112.895
L382.123 112.784
L382.232 112.682
L382.35 112.571
L382.46 112.465
L382.583 112.354
L382.693 112.256
L382.821 112.146
L382.932 112.043
L383.051 111.933
L383.162 111.829
L383.283 111.72
L383.393 111.615
L383.527 111.507
L383.634 111.41
L383.766 111.3
L383.876 111.201
L384.009 111.09
L384.119 110.999
L384.261 110.888
L384.372 110.799
L384.509 110.69
L384.618 110.598
L384.766 110.487
L384.874 110.404
L385.031 110.295
L385.139 110.208
L385.282 110.097
L385.388 110.014
L385.528 109.904
L385.639 109.815
L385.776 109.704
L385.885 109.614
L386.027 109.505
L386.136 109.414
L386.283 109.304
L386.394 109.223
L386.551 109.112
L386.662 109.03
L386.832 108.92
L386.942 108.842
L387.101 108.732
L387.211 108.656
L387.366 108.545
L387.474 108.466
L387.622 108.355
L387.732 108.27
L387.893 108.16
L388.002 108.087
L388.161 107.976
L388.271 107.897
L388.445 107.786
L388.555 107.725
L388.77 107.614
L388.881 107.558
L389.082 107.447
L389.193 107.379
L389.39 107.268
L389.501 107.202
L389.698 107.091
L389.809 107.028
L389.999 106.917
L390.108 106.853
L390.302 106.742
L390.412 106.68
L390.601 106.57
L390.711 106.507
L390.899 106.396
L391.01 106.32
L391.173 106.209
L391.283 106.135
L391.452 106.025
L391.563 105.948
L391.715 105.839
L391.825 105.761
L391.995 105.651
L392.102 105.577
L392.262 105.466
L392.373 105.39
L392.549 105.279
L392.659 105.208
L392.835 105.098
L392.946 105.031
L393.145 104.92
L393.255 104.847
L393.419 104.736
L393.53 104.658
L393.692 104.547
L393.803 104.471
L393.965 104.36
L394.076 104.282
L394.225 104.172
L394.335 104.086
L394.489 103.975
L394.6 103.892
L394.751 103.782
L394.86 103.7
L395.019 103.591
L395.128 103.516
L395.295 103.406
L395.406 103.326
L395.552 103.216
L395.661 103.127
L395.794 103.016
L395.905 102.919
L396.032 102.809
L396.143 102.711
L396.265 102.602
L396.373 102.502
L396.5 102.391
L396.611 102.293
L396.746 102.182
L396.856 102.095
L397.014 101.985
L397.124 101.905
L397.295 101.794
L397.406 101.722
L397.567 101.611
L397.677 101.531
L397.825 101.42
L397.935 101.337
L398.103 101.226
L398.214 101.163
L398.395 101.052
L398.506 100.983
L398.682 100.872
L398.791 100.807
L398.974 100.696
L399.084 100.622
L399.258 100.511
L399.369 100.443
L399.535 100.333
L399.646 100.26
L399.833 100.149
L399.944 100.079
L400.124 99.9683
L400.234 99.9018
L400.425 99.7909
L400.535 99.7262
L400.731 99.616
L400.842 99.5536
L401.021 99.4425
L401.13 99.3711
L401.306 99.2607
L401.415 99.1886
L401.611 99.0777
L401.721 99.0093
L401.895 98.8985
L402.006 98.8324
L402.185 98.7218
L402.296 98.6501
L402.462 98.539
L402.573 98.4572
L402.722 98.3461
L402.831 98.2615
L402.97 98.1515
L403.08 98.0653
L403.22 97.9545
L403.33 97.8668
L403.472 97.7578
L403.583 97.6599
L403.716 97.5495
L403.827 97.4569
L403.96 97.3461
L404.071 97.2489
L404.193 97.1382
L404.304 97.0363
L404.427 96.9258
L404.538 96.8265
L404.663 96.7156
L404.774 96.6188
L404.908 96.508
L405.018 96.4157
L405.157 96.3056
L405.268 96.2163
L405.408 96.1058
L405.518 96.0149
L405.658 95.9049
L405.768 95.8138
L405.916 95.7029
L406.027 95.6192
L406.176 95.5081
L406.287 95.4237
L406.439 95.3127
L406.55 95.2289
L406.696 95.1203
L406.805 95.0361
L406.971 94.9251
L407.082 94.8468
L407.237 94.7358
L407.347 94.6586
L407.502 94.5479
L407.612 94.467
L407.766 94.3565
L407.876 94.2692
L408.012 94.1582
L408.123 94.0701
L408.267 93.9595
L408.378 93.8663
L408.504 93.756
L408.613 93.6606
L408.741 93.5503
L408.852 93.4483
L408.973 93.3375
L409.083 93.2394
L409.212 93.1284
L409.322 93.0347
L409.454 92.9236
L409.565 92.8274
L409.699 92.7169
L409.81 92.6216
L409.946 92.5115
L410.056 92.42
L410.195 92.3107
L410.306 92.2202
L410.452 92.1092
L410.563 92.023
L410.707 91.9119
L410.817 91.8211
L410.962 91.7102
L411.073 91.619
L411.2 91.508
L411.31 91.4107
L411.439 91.2998
L411.55 91.2027
L411.68 91.0918
L411.791 91.0004
L411.934 90.8896
L412.045 90.7982
L412.177 90.6878
L412.288 90.5948
L412.425 90.484
L412.536 90.395
L412.683 90.2839
L412.793 90.2016
L412.939 90.0905
L413.05 90.0077
L413.204 89.8968
L413.315 89.8182
L413.468 89.7073
L413.579 89.6246
L413.728 89.5136
L413.839 89.4347
L413.996 89.324
L414.107 89.2425
L414.254 89.132
L414.365 89.0561
L414.528 88.9452
L414.639 88.8751
L414.806 88.7644
L414.917 88.6832
L415.064 88.5723
L415.174 88.4868
L415.319 88.3762
L415.43 88.2931
L415.579 88.1822
L415.69 88.0994
L415.858 87.9884
L415.968 87.9142
L416.146 87.8031
L416.257 87.736
L416.459 87.6254
L416.569 87.5613
L416.772 87.4503
L416.883 87.3924
L417.092 87.2815
L417.203 87.2299
L417.453 87.119
L417.564 87.0644
L417.789 86.9536
L417.9 86.8953
L418.107 86.7842
L418.218 86.724
L418.441 86.613
L418.551 86.56
L418.798 86.4493
L418.909 86.4001
L419.138 86.289
L419.248 86.2351
L419.433 86.1241
L419.544 86.0539
L419.723 85.9432
L419.834 85.8757
L420.027 85.7647
L420.137 85.7025
L420.347 85.5915
L420.458 85.525
L420.637 85.4141
L420.747 85.3431
L420.925 85.2326
L421.036 85.157
L421.191 85.0464
L421.302 84.9663
L421.46 84.8554
L421.571 84.7781
L421.732 84.6671
L421.842 84.5948
L422.011 84.4839
L422.122 84.4057
L422.281 84.2952
L422.392 84.219
L422.549 84.108
L422.66 84.0244
L422.805 83.9137
L422.916 83.8286
L423.055 83.7176
L423.165 83.631
L423.307 83.5199
L423.419 83.435
L423.574 83.3244
L423.685 83.2494
L423.86 83.1385
L423.971 83.071
L424.154 82.9599
L424.265 82.8882
L424.44 82.7771
L424.551 82.7094
L424.733 82.5983
L424.843 82.5318
L425.024 82.4208
L425.135 82.3512
L425.305 82.2401
L425.416 82.1679
L425.599 82.057
L425.71 81.9928
L425.912 81.8818
L426.022 81.8168
L426.212 81.7058
L426.323 81.6416
L426.517 81.5308
L426.628 81.4683
L426.824 81.3573
L426.935 81.2967
L427.131 81.1859
L427.241 81.1202
L427.436 81.0094
L427.547 80.9471
L427.743 80.8362
L427.854 80.7683
L428.024 80.6572
L428.135 80.5807
L428.296 80.4697
L428.407 80.3871
L428.56 80.2761
L428.671 80.2003
L428.847 80.0896
L428.958 80.0224
L429.127 79.9114
L429.238 79.8366
L429.405 79.7257
L429.516 79.6499
L429.683 79.5389
L429.794 79.4658
L429.96 79.355
L430.071 79.2778
L430.225 79.1671
L430.335 79.0831
L430.477 78.9724
L430.588 78.8796
L430.724 78.769
L430.835 78.6808
L430.977 78.5698
L431.088 78.4895
L431.246 78.3785
L431.356 78.3036
L431.506 78.1925
L431.617 78.1122
L431.773 78.0013
L431.884 77.9234
L432.053 77.8124
L432.163 77.7446
L432.335 77.6335
L432.446 77.5597
L432.624 77.4487
L432.735 77.3796
L432.912 77.2688
L433.024 77.1973
L433.205 77.0863
L433.316 77.0155
L433.481 76.9044
L433.591 76.8309
L433.758 76.7202
L433.869 76.6417
L434.019 76.5307
L434.13 76.4431
L434.276 76.3323
L434.387 76.2475
L434.539 76.1364
L434.65 76.0545
L434.808 75.9437
L434.919 75.8653
L435.085 75.7546
L435.196 75.6758
L435.344 75.5648
L435.454 75.4835
L435.614 75.3725
L435.725 75.2988
L435.898 75.1877
L436.009 75.1241
L436.215 75.0131
L436.325 74.9571
L436.536 74.846
L436.647 74.784
L436.844 74.6731
L436.955 74.6091
L437.164 74.4985
L437.275 74.434
L437.476 74.3231
L437.587 74.2592
L437.795 74.1484
L437.906 74.0909
L438.137 73.98
L438.248 73.923
L438.44 73.812
L438.551 73.7439
L438.732 73.633
L438.843 73.5617
L439.013 73.4511
L439.123 73.3746
L439.281 73.2637
L439.392 73.1885
L439.556 73.0779
L439.667 73.0004
L439.832 72.8893
L439.943 72.8158
L440.114 72.7049
L440.225 72.6333
L440.405 72.5222
L440.516 72.4563
L440.709 72.3453
L440.82 72.282
L441.009 72.171
L441.12 72.1043
L441.302 71.9933
L441.413 71.9183
L441.567 71.8073
L441.678 71.7256
L441.832 71.6149
L441.943 71.5389
L442.119 71.4278
L442.23 71.3603
L442.402 71.2494
L442.513 71.1752
L442.685 71.0643
L442.796 70.993
L442.963 70.882
L443.074 70.8049
L443.224 70.6938
L443.335 70.6086
L443.477 70.4978
L443.588 70.4114
L443.739 70.3004
L443.85 70.2193
L443.994 70.1084
L444.106 70.0199
L444.245 69.909
L444.356 69.8219
L444.505 69.711
L444.616 69.6268
L444.765 69.5157
L444.875 69.4388
L445.031 69.3277
L445.142 69.2491
L445.303 69.1383
L445.414 69.0627
L445.578 68.9516
L445.689 68.8683
L445.841 68.7572
L445.952 68.6813
L446.126 68.5703
L446.237 68.4996
L446.411 68.3887
L446.522 68.3186
L446.706 68.2075
L446.816 68.1386
L446.981 68.0276
L447.092 67.954
L447.268 67.8429
L447.379 67.7712
L447.56 67.6602
L447.671 67.591
L447.842 67.48
L447.953 67.4085
L448.131 67.2974
L448.242 67.2279
L448.427 67.117
L448.538 67.053
L448.724 66.9419
L448.834 66.872
L449.001 66.7609
L449.112 66.6925
L449.298 66.5815
L449.409 66.5143
L449.592 66.4034
L449.703 66.3384
L449.885 66.2273
L449.997 66.1587
L450.192 66.0476
L450.303 65.9807
L450.484 65.8697
L450.595 65.7962
L450.763 65.6851
L450.873 65.6152
L451.053 65.5041
L451.164 65.4332
L451.34 65.3221
L451.451 65.2538
L451.653 65.1427
L451.764 65.0845
L451.985 64.9736
L452.096 64.9146
L452.3 64.8035
L452.411 64.7404
L452.597 64.6293
L452.708 64.5624
L452.894 64.4513
L453.005 64.3821
L453.194 64.271
L453.305 64.2041
L453.486 64.0931
L453.597 64.0238
L453.773 63.9127
L453.884 63.8466
L454.073 63.7355
L454.184 63.6748
L454.402 63.5638
L454.513 63.5064
L454.727 63.3953
L454.838 63.3391
L455.053 63.228
L455.164 63.1619
L455.355 63.0508
L455.466 62.9891
L455.664 62.878
L455.775 62.815
L455.983 62.7041
L456.094 62.6445
L456.32 62.5334
L456.431 62.4806
L456.649 62.3696
L456.76 62.3185
L457.005 62.2075
L457.117 62.1572
L457.344 62.0461
L457.455 61.9863
L457.661 61.8752
L457.772 61.8176
L457.99 61.7066
L458.102 61.6514
L458.317 61.5404
L458.429 61.482
L458.645 61.371
L458.756 61.3184
L458.986 61.2073
L459.097 61.1505
L459.31 61.0394
L459.421 60.9808
L459.619 60.8699
L459.73 60.8118
L459.941 60.7007
L460.052 60.6374
L460.242 60.5264
L460.353 60.4643
L460.564 60.3532
L460.675 60.2936
L460.882 60.1825
L460.993 60.1208
L461.19 60.0097
L461.301 59.9453
L461.491 59.8342
L461.602 59.7713
L461.796 59.6602
L461.907 59.6015
L462.108 59.4904
L462.219 59.4317
L462.434 59.3206
L462.545 59.2633
L462.757 59.1522
L462.868 59.0882
L463.06 58.9771
L463.171 58.9141
L463.36 58.803
L463.471 58.7351
L463.654 58.624
L463.766 58.5611
L463.948 58.4501
L464.059 58.3767
L464.216 58.2657
L464.327 58.1885
L464.489 58.0774
L464.6 57.9981
L464.754 57.887
L464.865 57.8089
L465.041 57.6978
L465.152 57.6324
L465.351 57.5213
L465.462 57.4581
L465.659 57.3471
L465.77 57.2858
L465.975 57.1748
L466.086 57.1111
L466.273 57
L466.384 56.9305
L466.559 56.8194
L466.67 56.7476
L466.834 56.6366
L466.945 56.5628
L467.107 56.4518
L467.218 56.372
L467.383 56.2609
L467.494 56.1866
L467.66 56.0756
L467.771 55.9955
L467.931 55.8845
L468.042 55.8059
L468.187 55.6948
L468.298 55.6105
L468.452 55.4995
L468.563 55.4232
L468.735 55.3122
L468.846 55.2388
L469.016 55.1278
L469.127 55.0566
L469.308 54.9456
L469.419 54.8815
L469.608 54.7704
L469.719 54.7044
L469.902 54.5933
L470.013 54.5299
L470.21 54.4188
L470.321 54.3549
L470.512 54.2438
L470.623 54.1776
L470.819 54.0665
L470.93 54.0033
L471.126 53.8922
L471.237 53.8285
L471.439 53.7174
L471.55 53.6562
L471.739 53.5451
L471.85 53.4783
L472.041 53.3672
L472.152 53.3022
L472.344 53.1911
L472.455 53.1221
L472.628 53.011
L472.74 52.9381
L472.909 52.827
L473.02 52.7553
L473.202 52.6442
L473.313 52.5758
L473.486 52.4649
L473.597 52.3907
L473.765 52.2796
L473.876 52.204
L474.049 52.0929
L474.16 52.0269
L474.348 51.9159
L474.459 51.8467
L474.628 51.7357
L474.739 51.6614
L474.9 51.5503
L475.011 51.4755
L475.191 51.3644
L475.302 51.2952
L475.481 51.1841
L475.592 51.1162
L475.77 51.0051
L475.881 50.9374
L476.058 50.8263
L476.169 50.7548
L476.345 50.6437
L476.456 50.5749
L476.652 50.4638
L476.763 50.4021
L476.963 50.2911
L477.074 50.2287
L477.274 50.1177
L477.386 50.0578
L477.596 49.9468
L477.707 49.8886
L477.918 49.7776
L478.029 49.7138
L478.231 49.6027
L478.342 49.5456
L478.589 49.4345
L478.701 49.3924
L478.979 49.2813
L479.09 49.2317
L479.353 49.1206
L479.464 49.0712
L479.689 48.9601
L479.8 48.9048
L480.034 48.7937
L480.145 48.7414
L480.371 48.6303
L480.482 48.5742
L480.711 48.4631
L480.822 48.4093
L481.037 48.2982
L481.148 48.2464
L481.383 48.1353
L481.494 48.0804
L481.711 47.9693
L481.822 47.9115
L482.02 47.8004
L482.131 47.7349
L482.339 47.6239
L482.45 47.5684
L482.666 47.4573
L482.777 47.4008
L483.014 47.2897
L483.125 47.2417
L483.355 47.1306
L483.466 47.0784
L483.695 46.9673
L483.806 46.9104
L484.019 46.7993
L484.13 46.7406
L484.344 46.6295
L484.455 46.5736
L484.669 46.4625
L484.78 46.4042
L484.993 46.2932
L485.104 46.234
L485.315 46.1229
L485.426 46.0591
L485.623 45.948
L485.734 45.8898
L485.969 45.7787
L486.08 45.7316
L486.335 45.6205
L486.446 45.5728
L486.695 45.4617
L486.806 45.4115
L487.069 45.3004
L487.181 45.2533
L487.411 45.1423
L487.522 45.0865
L487.737 44.9754
L487.848 44.9178
L488.065 44.8067
L488.176 44.7491
L488.382 44.638
L488.493 44.578
L488.702 44.4669
L488.813 44.4092
L489.042 44.2982
L489.153 44.2419
L489.363 44.1308
L489.474 44.0718
L489.672 43.9607
L489.783 43.8971
L489.972 43.786
L490.083 43.7175
L490.26 43.6064
L490.371 43.5366
L490.556 43.4255
L490.667 43.3583
L490.858 43.2473
L490.969 43.1816
L491.16 43.0705
L491.271 43.0123
L491.487 42.9012
L491.598 42.8432
L491.817 42.7321
L491.928 42.6779
L492.176 42.5668
L492.287 42.5174
L492.54 42.4063
L492.651 42.3537
L492.869 42.2426
L492.98 42.1835
L493.185 42.0724
L493.296 42.0123
L493.505 41.9012
L493.616 41.84
L493.813 41.7289
L493.924 41.6635
L494.113 41.5524
L494.224 41.4877
L494.404 41.3767
L494.515 41.3072
L494.695 41.1961
L494.806 41.1324
L495.004 41.0213
L495.115 40.9587
L495.32 40.8476
L495.431 40.7899
L495.651 40.6788
L495.762 40.623
L495.984 40.5119
L496.095 40.4566
L496.312 40.3455
L496.424 40.2874
L496.622 40.1763
L496.734 40.1116
L496.938 40.0005
L497.049 39.9368
L497.241 39.8257
L497.352 39.7591
L497.528 39.648
L497.639 39.575
L497.815 39.464
L497.926 39.3972
L498.109 39.2862
L498.22 39.2188
L498.402 39.1077
L498.513 39.0383
L498.691 38.9272
L498.802 38.861
L498.983 38.7499
L499.094 38.6816
L499.275 38.5705
L499.386 38.4987
L499.56 38.3876
L499.671 38.3167
L499.848 38.2056
L499.959 38.1374
L500.141 38.0262
L500.252 37.961
L500.447 37.8499
L500.558 37.7835
L500.746 37.6724
L500.857 37.609
L501.056 37.4979
L501.167 37.4352
L501.358 37.3241
L501.47 37.2606
L501.664 37.1495
L501.775 37.0859
L501.97 36.9748
L502.081 36.9147
L502.294 36.8036
L502.405 36.7438
L502.615 36.6327
L502.726 36.5728
L502.93 36.4617
L503.041 36.4015
L503.24 36.2904
L503.351 36.2298
L503.553 36.1187
L503.664 36.0588
L503.861 35.9477
L503.972 35.8874
L504.179 35.7763
L504.29 35.7156
L504.485 35.6045
L504.596 35.5402
L504.799 35.4291
L504.91 35.3712
L505.123 35.2601
L505.234 35.2039
L505.453 35.0929
L505.564 35.037
L505.782 34.9259
L505.893 34.8701
L506.146 34.759
L506.257 34.7143
L506.531 34.6032
L506.642 34.5609
L506.937 34.4498
L507.048 34.409
L507.337 34.2979
L507.448 34.2539
L507.723 34.1428
L507.834 34.1014
L508.122 33.9903
L508.233 33.9454
L508.508 33.8343
L508.619 33.7874
L508.88 33.6763
L508.991 33.6262
L509.234 33.5151
L509.345 33.4677
L509.617 33.3566
L509.728 33.3074
L509.977 33.1963
L510.088 33.1529
L510.348 33.0418
L510.459 32.9939
L510.723 32.8827
L510.834 32.835
L511.094 32.7239
L511.205 32.6721
L511.43 32.561
L511.541 32.5057
L511.756 32.3946
L511.867 32.3355
L512.081 32.2244
L512.192 32.1665
L512.422 32.0555
L512.534 32.0025
L512.758 31.8914
L512.869 31.8346
L513.085 31.7235
L513.197 31.6626
L513.396 31.5515
L513.507 31.4921
L513.709 31.381
L513.82 31.3193
L514.025 31.2082
L514.137 31.1449
L514.331 31.0338
L514.442 30.9725
L514.648 30.8614
L514.76 30.8019
L514.967 30.6908
L515.078 30.6312
L515.278 30.5201
L515.389 30.4596
L515.59 30.3485
L515.701 30.287
L515.897 30.1759
L516.008 30.1098
L516.2 29.9987
L516.311 29.9327
L516.503 29.8216
L516.614 29.7578
L516.807 29.6467
L516.918 29.5827
L517.119 29.4716
L517.23 29.4139
L517.452 29.3028
L517.563 29.2504
L517.787 29.1392
L517.898 29.0853
L518.133 28.9742
L518.244 28.9214
L518.47 28.8103
L518.581 28.7558
L518.815 28.6447
L518.926 28.5946
L519.171 28.4835
L519.283 28.4317
L519.508 28.3206
L519.62 28.2697
L519.865 28.1586
L519.976 28.1124
L520.242 28.0013
L520.354 27.953
L520.607 27.8419
L520.718 27.7914
L520.969 27.6803
L521.08 27.6324
L521.36 27.5213
L521.471 27.4755
L521.734 27.3644
L521.845 27.3152
L522.092 27.2041
L522.203 27.1557
L522.448 27.0446
L522.559 26.9942
L522.813 26.8831
L522.924 26.8318
L523.17 26.7207
L523.281 26.6708
L523.527 26.5597
L523.638 26.5058
L523.866 26.3947
L523.977 26.3423
L524.204 26.2312
L524.315 26.1809
L524.561 26.0698
L524.672 26.0239
L524.956 25.9128
L525.067 25.8638
L525.304 25.7527
L525.415 25.6993
L525.637 25.5882
L525.748 25.5314
L525.96 25.4202
L526.072 25.3596
L526.276 25.2485
L526.387 25.1894
L526.601 25.0783
L526.712 25.0235
L526.941 24.9124
L527.052 24.8576
L527.274 24.7465
L527.385 24.693
L527.633 24.5819
L527.744 24.5322
L527.994 24.4211
L528.105 24.3719
L528.357 24.2608
L528.468 24.2071
L528.69 24.096
L528.801 24.0395
L529.028 23.9284
L529.139 23.8718
L529.368 23.7607
L529.479 23.709
L529.721 23.5979
L529.832 23.5457
L530.054 23.4346
L530.166 23.3781
L530.378 23.267
L530.489 23.209
L530.707 23.0979
L530.818 23.044
L531.027 22.9329
L531.138 22.8695
L531.329 22.7584
L531.44 22.6944
L531.632 22.5833
L531.743 22.5187
L531.937 22.4075
L532.048 22.3459
L532.253 22.2348
L532.364 22.1732
L532.56 22.0621
L532.671 21.9968
L532.857 21.8857
L532.968 21.8181
L533.145 21.707
L533.256 21.637
L533.432 21.5259
L533.543 21.4576
L533.729 21.3465
L533.84 21.2815
L534.039 21.1704
L534.15 21.1077
L534.355 20.9966
L534.466 20.9381
L534.682 20.827
L534.793 20.772
L535.023 20.6609
L535.134 20.6056
L535.362 20.4945
L535.474 20.4437
L535.731 20.3326
L535.842 20.2873
L536.109 20.1762
L536.22 20.129
L536.469 20.0179
L536.58 19.9667
L536.834 19.8556
L536.946 19.8043
L537.185 19.6932
L537.296 19.6431
L537.551 19.532
L537.662 19.482
L537.903 19.3709
L538.014 19.3175
L538.237 19.2064
L538.348 19.1508
L538.572 19.0397
L538.683 18.9879
L538.924 18.8768
L539.035 18.8275
L539.292 18.7164
L539.404 18.6666
L539.659 18.5555
L539.77 18.5092
L540.052 18.398
L540.163 18.3546
L540.418 18.2435
L540.53 18.1955
L540.796 18.0843
L540.907 18.0387
L541.163 17.9276
L541.274 17.8785
L541.525 17.7674
L541.636 17.7167
L541.87 17.6056
L541.981 17.5534
L542.225 17.4422
L542.336 17.3899
L542.608 17.2788
L542.719 17.2338
L542.989 17.1227
L543.1 17.0782
L543.37 16.9671
L543.481 16.9208
L543.763 16.8097
L543.875 16.7664
L544.128 16.6553
L544.239 16.6043
L544.494 16.4932
L544.605 16.4428
L544.844 16.3316
L544.955 16.2824
L545.209 16.1713
L545.32 16.1216
L545.565 16.0105
L545.676 15.9603
L545.939 15.8492
L546.05 15.8016
L546.315 15.6905
L546.426 15.6375
L546.666 15.5264
L546.778 15.4773
L547.034 15.3662
L547.145 15.3201
L547.409 15.209
L547.52 15.1621
L547.785 15.051
L547.889 15.0092
L547.889 15.0092" style="fill:none;stroke:#0000ff;stroke-width:5.0;"/>
   </g>
   <g id="matplotlib.axis_1">
    <g id="xtick_1">
     <g id="line2d_2">
      <path d="
M189.432 413.28
L189.432 7.2" style="fill:none;stroke:#000000;stroke-dasharray:1.000000,3.000000;stroke-dashoffset:0.0;stroke-linecap:butt;stroke-width:0.5;"/>
     </g>
     <g id="line2d_3">
      <defs>
       <path d="
M0 0
L0 -4" id="m961512d9d0"/>
      </defs>
      <g>
       <use style="stroke:#000000;stroke-linecap:butt;stroke-width:0.5;" x="189.431672892" xlink:href="#m961512d9d0" y="89.0141376354"/>
      </g>
     </g>
     <g id="text_1">
      <!-- 5 -->
      <defs>
       <path d="
M10.7969 72.9062
L49.5156 72.9062
L49.5156 64.5938
L19.8281 64.5938
L19.8281 46.7344
Q21.9688 47.4688 24.1094 47.8281
Q26.2656 48.1875 28.4219 48.1875
Q40.625 48.1875 47.75 41.5
Q54.8906 34.8125 54.8906 23.3906
Q54.8906 11.625 47.5625 5.09375
Q40.2344 -1.42188 26.9062 -1.42188
Q22.3125 -1.42188 17.5469 -0.640625
Q12.7969 0.140625 7.71875 1.70312
L7.71875 11.625
Q12.1094 9.23438 16.7969 8.0625
Q21.4844 6.89062 26.7031 6.89062
Q35.1562 6.89062 40.0781 11.3281
Q45.0156 15.7656 45.0156 23.3906
Q45.0156 31 40.0781 35.4375
Q35.1562 39.8906 26.7031 39.8906
Q22.75 39.8906 18.8125 39.0156
Q14.8906 38.1406 10.7969 36.2812
z
" id="BitstreamVeraSans-Roman-35"/>
      </defs>
      <g transform="translate(183.771047892 110.511637635)scale(0.24 -0.24)">
       <use xlink:href="#BitstreamVeraSans-Roman-35"/>
      </g>
     </g>
    </g>
    <g id="xtick_2">
     <g id="line2d_4">
      <path d="
M322.978 413.28
L322.978 7.2" style="fill:none;stroke:#000000;stroke-dasharray:1.000000,3.000000;stroke-dashoffset:0.0;stroke-linecap:butt;stroke-width:0.5;"/>
     </g>
     <g id="line2d_5">
      <defs>
       <path d="
M0 0
L0 -4" id="m961512d9d0"/>
      </defs>
      <g>
       <use style="stroke:#000000;stroke-linecap:butt;stroke-width:0.5;" x="322.978278758" xlink:href="#m961512d9d0" y="89.0141376354"/>
      </g>
     </g>
     <g id="text_2">
      <!-- 10 -->
      <defs>
       <path d="
M31.7812 66.4062
Q24.1719 66.4062 20.3281 58.9062
Q16.5 51.4219 16.5 36.375
Q16.5 21.3906 20.3281 13.8906
Q24.1719 6.39062 31.7812 6.39062
Q39.4531 6.39062 43.2812 13.8906
Q47.125 21.3906 47.125 36.375
Q47.125 51.4219 43.2812 58.9062
Q39.4531 66.4062 31.7812 66.4062
M31.7812 74.2188
Q44.0469 74.2188 50.5156 64.5156
Q56.9844 54.8281 56.9844 36.375
Q56.9844 17.9688 50.5156 8.26562
Q44.0469 -1.42188 31.7812 -1.42188
Q19.5312 -1.42188 13.0625 8.26562
Q6.59375 17.9688 6.59375 36.375
Q6.59375 54.8281 13.0625 64.5156
Q19.5312 74.2188 31.7812 74.2188" id="BitstreamVeraSans-Roman-30"/>
       <path d="
M12.4062 8.29688
L28.5156 8.29688
L28.5156 63.9219
L10.9844 60.4062
L10.9844 69.3906
L28.4219 72.9062
L38.2812 72.9062
L38.2812 8.29688
L54.3906 8.29688
L54.3906 0
L12.4062 0
z
" id="BitstreamVeraSans-Roman-31"/>
      </defs>
      <g transform="translate(309.823278758 110.826637635)scale(0.24 -0.24)">
       <use xlink:href="#BitstreamVeraSans-Roman-31"/>
       <use x="63.623046875" xlink:href="#BitstreamVeraSans-Roman-30"/>
      </g>
     </g>
    </g>
    <g id="xtick_3">
     <g id="line2d_6">
      <path d="
M456.525 413.28
L456.525 7.2" style="fill:none;stroke:#000000;stroke-dasharray:1.000000,3.000000;stroke-dashoffset:0.0;stroke-linecap:butt;stroke-width:0.5;"/>
     </g>
     <g id="line2d_7">
      <defs>
       <path d="
M0 0
L0 -4" id="m961512d9d0"/>
      </defs>
      <g>
       <use style="stroke:#000000;stroke-linecap:butt;stroke-width:0.5;" x="456.524884624" xlink:href="#m961512d9d0" y="89.0141376354"/>
      </g>
     </g>
     <g id="text_3">
      <!-- 15 -->
      <g transform="translate(443.621134624 110.511637635)scale(0.24 -0.24)">
       <use xlink:href="#BitstreamVeraSans-Roman-31"/>
       <use x="63.623046875" xlink:href="#BitstreamVeraSans-Roman-35"/>
      </g>
     </g>
    </g>
    <g id="xtick_4">
     <g id="line2d_8">
      <defs>
       <path d="
M0 0
L0 -2" id="m412526bfea"/>
      </defs>
      <g>
       <use style="stroke:#000000;stroke-linecap:butt;stroke-width:0.5;" x="82.5943881996" xlink:href="#m412526bfea" y="89.0141376354"/>
      </g>
     </g>
    </g>
    <g id="xtick_5">
     <g id="line2d_9">
      <defs>
       <path d="
M0 0
L0 -2" id="m412526bfea"/>
      </defs>
      <g>
       <use style="stroke:#000000;stroke-linecap:butt;stroke-width:0.5;" x="109.303709373" xlink:href="#m412526bfea" y="89.0141376354"/>
      </g>
     </g>
    </g>
    <g id="xtick_6">
     <g id="line2d_10">
      <defs>
       <path d="
M0 0
L0 -2" id="m412526bfea"/>
      </defs>
      <g>
       <use style="stroke:#000000;stroke-linecap:butt;stroke-width:0.5;" x="136.013030546" xlink:href="#m412526bfea" y="89.0141376354"/>
      </g>
     </g>
    </g>
    <g id="xtick_7">
     <g id="line2d_11">
      <defs>
       <path d="
M0 0
L0 -2" id="m412526bfea"/>
      </defs>
      <g>
       <use style="stroke:#000000;stroke-linecap:butt;stroke-width:0.5;" x="162.722351719" xlink:href="#m412526bfea" y="89.0141376354"/>
      </g>
     </g>
    </g>
    <g id="xtick_8">
     <g id="line2d_12">
      <defs>
       <path d="
M0 0
L0 -2" id="m412526bfea"/>
      </defs>
      <g>
       <use style="stroke:#000000;stroke-linecap:butt;stroke-width:0.5;" x="216.140994066" xlink:href="#m412526bfea" y="89.0141376354"/>
      </g>
     </g>
    </g>
    <g id="xtick_9">
     <g id="line2d_13">
      <defs>
       <path d="
M0 0
L0 -2" id="m412526bfea"/>
      </defs>
      <g>
       <use style="stroke:#000000;stroke-linecap:butt;stroke-width:0.5;" x="242.850315239" xlink:href="#m412526bfea" y="89.0141376354"/>
      </g>
     </g>
    </g>
    <g id="xtick_10">
     <g id="line2d_14">
      <defs>
       <path d="
M0 0
L0 -2" id="m412526bfea"/>
      </defs>
      <g>
       <use style="stroke:#000000;stroke-linecap:butt;stroke-width:0.5;" x="269.559636412" xlink:href="#m412526bfea" y="89.0141376354"/>
      </g>
     </g>
    </g>
    <g id="xtick_11">
     <g id="line2d_15">
      <defs>
       <path d="
M0 0
L0 -2" id="m412526bfea"/>
      </defs>
      <g>
       <use style="stroke:#000000;stroke-linecap:butt;stroke-width:0.5;" x="296.268957585" xlink:href="#m412526bfea" y="89.0141376354"/>
      </g>
     </g>
    </g>
    <g id="xtick_12">
     <g id="line2d_16">
      <defs>
       <path d="
M0 0
L0 -2" id="m412526bfea"/>
      </defs>
      <g>
       <use style="stroke:#000000;stroke-linecap:butt;stroke-width:0.5;" x="349.687599932" xlink:href="#m412526bfea" y="89.0141376354"/>
      </g>
     </g>
    </g>
    <g id="xtick_13">
     <g id="line2d_17">
      <defs>
       <path d="
M0 0
L0 -2" id="m412526bfea"/>
      </defs>
      <g>
       <use style="stroke:#000000;stroke-linecap:butt;stroke-width:0.5;" x="376.396921105" xlink:href="#m412526bfea" y="89.0141376354"/>
      </g>
     </g>
    </g>
    <g id="xtick_14">
     <g id="line2d_18">
      <defs>
       <path d="
M0 0
L0 -2" id="m412526bfea"/>
      </defs>
      <g>
       <use style="stroke:#000000;stroke-linecap:butt;stroke-width:0.5;" x="403.106242278" xlink:href="#m412526bfea" y="89.0141376354"/>
      </g>
     </g>
    </g>
    <g id="xtick_15">
     <g id="line2d_19">
      <defs>
       <path d="
M0 0
L0 -2" id="m412526bfea"/>
      </defs>
      <g>
       <use style="stroke:#000000;stroke-linecap:butt;stroke-width:0.5;" x="429.815563451" xlink:href="#m412526bfea" y="89.0141376354"/>
      </g>
     </g>
    </g>
    <g id="xtick_16">
     <g id="line2d_20">
      <defs>
       <path d="
M0 0
L0 -2" id="m412526bfea"/>
      </defs>
      <g>
       <use style="stroke:#000000;stroke-linecap:butt;stroke-width:0.5;" x="483.234205798" xlink:href="#m412526bfea" y="89.0141376354"/>
      </g>
     </g>
    </g>
    <g id="xtick_17">
     <g id="line2d_21">
      <defs>
       <path d="
M0 0
L0 -2" id="m412526bfea"/>
      </defs>
      <g>
       <use style="stroke:#000000;stroke-linecap:butt;stroke-width:0.5;" x="509.943526971" xlink:href="#m412526bfea" y="89.0141376354"/>
      </g>
     </g>
    </g>
   </g>
   <g id="matplotlib.axis_2">
    <g id="ytick_1">
     <g id="line2d_22">
      <path d="
M64.9287 350.448
L557.359 350.448" style="fill:none;stroke:#000000;stroke-dasharray:1.000000,3.000000;stroke-dashoffset:0.0;stroke-linecap:butt;stroke-width:0.5;"/>
     </g>
     <g id="line2d_23">
      <defs>
       <path d="
M0 0
L4 0" id="m50f2b0a1be"/>
      </defs>
      <g>
       <use style="stroke:#000000;stroke-linecap:butt;stroke-width:0.5;" x="54.92875" xlink:href="#m50f2b0a1be" y="350.447636107"/>
      </g>
     </g>
     <g id="text_4">
      <!-- -0.3 -->
      <defs>
       <path d="
M40.5781 39.3125
Q47.6562 37.7969 51.625 33
Q55.6094 28.2188 55.6094 21.1875
Q55.6094 10.4062 48.1875 4.48438
Q40.7656 -1.42188 27.0938 -1.42188
Q22.5156 -1.42188 17.6562 -0.515625
Q12.7969 0.390625 7.625 2.20312
L7.625 11.7188
Q11.7188 9.32812 16.5938 8.10938
Q21.4844 6.89062 26.8125 6.89062
Q36.0781 6.89062 40.9375 10.5469
Q45.7969 14.2031 45.7969 21.1875
Q45.7969 27.6406 41.2812 31.2656
Q36.7656 34.9062 28.7188 34.9062
L20.2188 34.9062
L20.2188 43.0156
L29.1094 43.0156
Q36.375 43.0156 40.2344 45.9219
Q44.0938 48.8281 44.0938 54.2969
Q44.0938 59.9062 40.1094 62.9062
Q36.1406 65.9219 28.7188 65.9219
Q24.6562 65.9219 20.0156 65.0312
Q15.375 64.1562 9.8125 62.3125
L9.8125 71.0938
Q15.4375 72.6562 20.3438 73.4375
Q25.25 74.2188 29.5938 74.2188
Q40.8281 74.2188 47.3594 69.1094
Q53.9062 64.0156 53.9062 55.3281
Q53.9062 49.2656 50.4375 45.0938
Q46.9688 40.9219 40.5781 39.3125" id="BitstreamVeraSans-Roman-33"/>
       <path d="
M10.6875 12.4062
L21 12.4062
L21 0
L10.6875 0
z
" id="BitstreamVeraSans-Roman-2e"/>
       <path d="
M4.89062 31.3906
L31.2031 31.3906
L31.2031 23.3906
L4.89062 23.3906
z
" id="BitstreamVeraSans-Roman-2d"/>
      </defs>
      <g transform="translate(7.2 359.183261107)scale(0.24 -0.24)">
       <use xlink:href="#BitstreamVeraSans-Roman-2d"/>
       <use x="36.083984375" xlink:href="#BitstreamVeraSans-Roman-30"/>
       <use x="99.70703125" xlink:href="#BitstreamVeraSans-Roman-2e"/>
       <use x="131.494140625" xlink:href="#BitstreamVeraSans-Roman-33"/>
      </g>
     </g>
    </g>
    <g id="ytick_2">
     <g id="line2d_24">
      <path d="
M64.9287 263.303
L557.359 263.303" style="fill:none;stroke:#000000;stroke-dasharray:1.000000,3.000000;stroke-dashoffset:0.0;stroke-linecap:butt;stroke-width:0.5;"/>
     </g>
     <g id="line2d_25">
      <defs>
       <path d="
M0 0
L4 0" id="m50f2b0a1be"/>
      </defs>
      <g>
       <use style="stroke:#000000;stroke-linecap:butt;stroke-width:0.5;" x="54.92875" xlink:href="#m50f2b0a1be" y="263.303136617"/>
      </g>
     </g>
     <g id="text_5">
      <!-- -0.2 -->
      <defs>
       <path d="
M19.1875 8.29688
L53.6094 8.29688
L53.6094 0
L7.32812 0
L7.32812 8.29688
Q12.9375 14.1094 22.625 23.8906
Q32.3281 33.6875 34.8125 36.5312
Q39.5469 41.8438 41.4219 45.5312
Q43.3125 49.2188 43.3125 52.7812
Q43.3125 58.5938 39.2344 62.25
Q35.1562 65.9219 28.6094 65.9219
Q23.9688 65.9219 18.8125 64.3125
Q13.6719 62.7031 7.8125 59.4219
L7.8125 69.3906
Q13.7656 71.7812 18.9375 73
Q24.125 74.2188 28.4219 74.2188
Q39.75 74.2188 46.4844 68.5469
Q53.2188 62.8906 53.2188 53.4219
Q53.2188 48.9219 51.5312 44.8906
Q49.8594 40.875 45.4062 35.4062
Q44.1875 33.9844 37.6406 27.2188
Q31.1094 20.4531 19.1875 8.29688" id="BitstreamVeraSans-Roman-32"/>
      </defs>
      <g transform="translate(7.68 272.038761617)scale(0.24 -0.24)">
       <use xlink:href="#BitstreamVeraSans-Roman-2d"/>
       <use x="36.083984375" xlink:href="#BitstreamVeraSans-Roman-30"/>
       <use x="99.70703125" xlink:href="#BitstreamVeraSans-Roman-2e"/>
       <use x="131.494140625" xlink:href="#BitstreamVeraSans-Roman-32"/>
      </g>
     </g>
    </g>
    <g id="ytick_3">
     <g id="line2d_26">
      <path d="
M64.9287 176.159
L557.359 176.159" style="fill:none;stroke:#000000;stroke-dasharray:1.000000,3.000000;stroke-dashoffset:0.0;stroke-linecap:butt;stroke-width:0.5;"/>
     </g>
     <g id="line2d_27">
      <defs>
       <path d="
M0 0
L4 0" id="m50f2b0a1be"/>
      </defs>
      <g>
       <use style="stroke:#000000;stroke-linecap:butt;stroke-width:0.5;" x="54.92875" xlink:href="#m50f2b0a1be" y="176.158637126"/>
      </g>
     </g>
     <g id="text_6">
      <!-- -0.1 -->
      <g transform="translate(7.4925 184.894262126)scale(0.24 -0.24)">
       <use xlink:href="#BitstreamVeraSans-Roman-2d"/>
       <use x="36.083984375" xlink:href="#BitstreamVeraSans-Roman-30"/>
       <use x="99.70703125" xlink:href="#BitstreamVeraSans-Roman-2e"/>
       <use x="131.494140625" xlink:href="#BitstreamVeraSans-Roman-31"/>
      </g>
     </g>
    </g>
    <g id="ytick_4">
     <g id="line2d_28">
      <path d="
M64.9287 89.0141
L557.359 89.0141" style="fill:none;stroke:#000000;stroke-dasharray:1.000000,3.000000;stroke-dashoffset:0.0;stroke-linecap:butt;stroke-width:0.5;"/>
     </g>
     <g id="line2d_29">
      <defs>
       <path d="
M0 0
L4 0" id="m50f2b0a1be"/>
      </defs>
      <g>
       <use style="stroke:#000000;stroke-linecap:butt;stroke-width:0.5;" x="54.92875" xlink:href="#m50f2b0a1be" y="89.0141376354"/>
      </g>
     </g>
     <g id="text_7">
      <!-- 0 -->
      <g transform="translate(38.835 97.7497626354)scale(0.24 -0.24)">
       <use xlink:href="#BitstreamVeraSans-Roman-30"/>
      </g>
     </g>
    </g>
    <g id="ytick_5">
     <g id="line2d_30">
      <defs>
       <path d="
M0 0
L2 0" id="m6e6896b73e"/>
      </defs>
      <g>
       <use style="stroke:#000000;stroke-linecap:butt;stroke-width:0.5;" x="54.92875" xlink:href="#m6e6896b73e" y="402.734335802"/>
      </g>
     </g>
    </g>
    <g id="ytick_6">
     <g id="line2d_31">
      <defs>
       <path d="
M0 0
L2 0" id="m6e6896b73e"/>
      </defs>
      <g>
       <use style="stroke:#000000;stroke-linecap:butt;stroke-width:0.5;" x="54.92875" xlink:href="#m6e6896b73e" y="385.305435903"/>
      </g>
     </g>
    </g>
    <g id="ytick_7">
     <g id="line2d_32">
      <defs>
       <path d="
M0 0
L2 0" id="m6e6896b73e"/>
      </defs>
      <g>
       <use style="stroke:#000000;stroke-linecap:butt;stroke-width:0.5;" x="54.92875" xlink:href="#m6e6896b73e" y="367.876536005"/>
      </g>
     </g>
    </g>
    <g id="ytick_8">
     <g id="line2d_33">
      <defs>
       <path d="
M0 0
L2 0" id="m6e6896b73e"/>
      </defs>
      <g>
       <use style="stroke:#000000;stroke-linecap:butt;stroke-width:0.5;" x="54.92875" xlink:href="#m6e6896b73e" y="333.018736209"/>
      </g>
     </g>
    </g>
    <g id="ytick_9">
     <g id="line2d_34">
      <defs>
       <path d="
M0 0
L2 0" id="m6e6896b73e"/>
      </defs>
      <g>
       <use style="stroke:#000000;stroke-linecap:butt;stroke-width:0.5;" x="54.92875" xlink:href="#m6e6896b73e" y="315.589836311"/>
      </g>
     </g>
    </g>
    <g id="ytick_10">
     <g id="line2d_35">
      <defs>
       <path d="
M0 0
L2 0" id="m6e6896b73e"/>
      </defs>
      <g>
       <use style="stroke:#000000;stroke-linecap:butt;stroke-width:0.5;" x="54.92875" xlink:href="#m6e6896b73e" y="298.160936413"/>
      </g>
     </g>
    </g>
    <g id="ytick_11">
     <g id="line2d_36">
      <defs>
       <path d="
M0 0
L2 0" id="m6e6896b73e"/>
      </defs>
      <g>
       <use style="stroke:#000000;stroke-linecap:butt;stroke-width:0.5;" x="54.92875" xlink:href="#m6e6896b73e" y="280.732036515"/>
      </g>
     </g>
    </g>
    <g id="ytick_12">
     <g id="line2d_37">
      <defs>
       <path d="
M0 0
L2 0" id="m6e6896b73e"/>
      </defs>
      <g>
       <use style="stroke:#000000;stroke-linecap:butt;stroke-width:0.5;" x="54.92875" xlink:href="#m6e6896b73e" y="245.874236718"/>
      </g>
     </g>
    </g>
    <g id="ytick_13">
     <g id="line2d_38">
      <defs>
       <path d="
M0 0
L2 0" id="m6e6896b73e"/>
      </defs>
      <g>
       <use style="stroke:#000000;stroke-linecap:butt;stroke-width:0.5;" x="54.92875" xlink:href="#m6e6896b73e" y="228.44533682"/>
      </g>
     </g>
    </g>
    <g id="ytick_14">
     <g id="line2d_39">
      <defs>
       <path d="
M0 0
L2 0" id="m6e6896b73e"/>
      </defs>
      <g>
       <use style="stroke:#000000;stroke-linecap:butt;stroke-width:0.5;" x="54.92875" xlink:href="#m6e6896b73e" y="211.016436922"/>
      </g>
     </g>
    </g>
    <g id="ytick_15">
     <g id="line2d_40">
      <defs>
       <path d="
M0 0
L2 0" id="m6e6896b73e"/>
      </defs>
      <g>
       <use style="stroke:#000000;stroke-linecap:butt;stroke-width:0.5;" x="54.92875" xlink:href="#m6e6896b73e" y="193.587537024"/>
      </g>
     </g>
    </g>
    <g id="ytick_16">
     <g id="line2d_41">
      <defs>
       <path d="
M0 0
L2 0" id="m6e6896b73e"/>
      </defs>
      <g>
       <use style="stroke:#000000;stroke-linecap:butt;stroke-width:0.5;" x="54.92875" xlink:href="#m6e6896b73e" y="158.729737228"/>
      </g>
     </g>
    </g>
    <g id="ytick_17">
     <g id="line2d_42">
      <defs>
       <path d="
M0 0
L2 0" id="m6e6896b73e"/>
      </defs>
      <g>
       <use style="stroke:#000000;stroke-linecap:butt;stroke-width:0.5;" x="54.92875" xlink:href="#m6e6896b73e" y="141.30083733"/>
      </g>
     </g>
    </g>
    <g id="ytick_18">
     <g id="line2d_43">
      <defs>
       <path d="
M0 0
L2 0" id="m6e6896b73e"/>
      </defs>
      <g>
       <use style="stroke:#000000;stroke-linecap:butt;stroke-width:0.5;" x="54.92875" xlink:href="#m6e6896b73e" y="123.871937432"/>
      </g>
     </g>
    </g>
    <g id="ytick_19">
     <g id="line2d_44">
      <defs>
       <path d="
M0 0
L2 0" id="m6e6896b73e"/>
      </defs>
      <g>
       <use style="stroke:#000000;stroke-linecap:butt;stroke-width:0.5;" x="54.92875" xlink:href="#m6e6896b73e" y="106.443037534"/>
      </g>
     </g>
    </g>
    <g id="ytick_20">
     <g id="line2d_45">
      <defs>
       <path d="
M0 0
L2 0" id="m6e6896b73e"/>
      </defs>
      <g>
       <use style="stroke:#000000;stroke-linecap:butt;stroke-width:0.5;" x="54.92875" xlink:href="#m6e6896b73e" y="71.5852377373"/>
      </g>
     </g>
    </g>
    <g id="ytick_21">
     <g id="line2d_46">
      <defs>
       <path d="
M0 0
L2 0" id="m6e6896b73e"/>
      </defs>
      <g>
       <use style="stroke:#000000;stroke-linecap:butt;stroke-width:0.5;" x="54.92875" xlink:href="#m6e6896b73e" y="54.1563378392"/>
      </g>
     </g>
    </g>
    <g id="ytick_22">
     <g id="line2d_47">
      <defs>
       <path d="
M0 0
L2 0" id="m6e6896b73e"/>
      </defs>
      <g>
       <use style="stroke:#000000;stroke-linecap:butt;stroke-width:0.5;" x="54.92875" xlink:href="#m6e6896b73e" y="36.7274379411"/>
      </g>
     </g>
    </g>
   </g>
   <g id="patch_3">
    <path d="
M64.9287 89.0141
L557.359 89.0141" style="fill:none;stroke:#000000;stroke-width:0.8;"/>
   </g>
   <g id="patch_4">
    <path d="
M54.9287 413.28
L54.9287 7.2" style="fill:none;stroke:#000000;stroke-width:0.8;"/>
   </g>
  </g>
 </g>
 <defs>
  <clipPath id="p1573a0c717">
   <rect height="406.08" width="492.43" x="64.92875" y="7.2"/>
  </clipPath>
 </defs>
</svg>
