<?xml version="1.0" encoding="utf-8" standalone="no"?>
<!DOCTYPE svg PUBLIC "-//W3C//DTD SVG 1.1//EN"
  "http://www.w3.org/Graphics/SVG/1.1/DTD/svg11.dtd">
<!-- Created with matplotlib (http://matplotlib.sourceforge.net/) -->
<svg height="420pt" version="1.1" viewBox="0 0 562 420" width="562pt" xmlns="http://www.w3.org/2000/svg" xmlns:xlink="http://www.w3.org/1999/xlink">
 <defs>
  <style type="text/css">
*{stroke-linecap:square;stroke-linejoin:round;}
  </style>
 </defs>
 <g id="figure_1">
  <g id="patch_1">
   <path d="
M4.44089e-16 420.48
L562.653 420.48
L562.653 0
L4.44089e-16 0
z
" style="fill:#ffffff;"/>
  </g>
  <g id="axes_1">
   <g id="patch_2">
    <path d="
M18.9817 413.28
L555.453 413.28
L555.453 7.2
L18.9817 7.2
z
" style="fill:#ffffff;"/>
   </g>
   <g id="line2d_1">
    <path clip-path="url(#pb7017b9641)" d="
M29.2984 329.813
L29.3465 329.813
L29.4037 405.471
L29.4647 405.471
L29.5268 388.966
L29.5915 388.966
L29.6582 385.459
L29.724 385.459
L29.7917 362.312
L29.861 362.312
L29.9303 340.952
L30.0005 340.952
L30.0708 326.89
L30.1422 326.89
L30.2146 305.133
L30.2862 305.133
L30.3588 286.908
L30.4317 286.908
L30.505 273.67
L30.5785 273.67
L30.6534 264.759
L30.7266 264.759
L30.8019 258.293
L30.8776 258.293
L30.9516 253.338
L31.0268 253.338
L31.1027 247.569
L31.179 247.569
L31.2561 242.828
L31.3316 242.828
L31.4103 239.984
L31.4865 239.984
L31.563 237.793
L31.6409 237.793
L31.7192 234.502
L31.7955 234.502
L31.8734 231.247
L31.9519 231.247
L32.0291 229.614
L32.1087 229.614
L32.1878 227.068
L32.2667 227.068
L32.3442 226.242
L32.3442 226.31
L32.4236 226.31
L32.4236 226.042
L32.502 226.249
L32.5825 226.249
L32.6637 227.578
L32.7428 227.578
L32.8231 229.82
L32.902 229.82
L32.9814 231.953
L33.062 231.953
L33.1437 235.058
L33.2242 235.058
L33.3043 238.485
L33.3844 238.485
L33.4647 241.626
L33.5453 241.626
L33.6263 243.359
L33.7087 243.359
L33.788 244.476
L33.8697 244.476
L33.9518 244.935
L34.0332 244.935
L34.0332 245.076
L34.1148 245.076
L34.1148 245.076
L34.1975 244.602
L34.4452 244.711
L34.4452 244.776
L34.5258 244.776
L34.5258 244.776
L34.6077 244.325
L34.6904 244.325
L34.775 244.023
L34.8578 244.023
L34.9398 243.762
L35.0209 243.762
L35.1042 243.44
L35.1864 243.44
L35.2701 243.202
L35.3519 243.202
L35.4327 243.357
L35.5175 243.357
L35.6005 243.597
L35.6863 243.597
L35.7696 243.259
L35.9352 243.222
L36.0195 243.031
L36.1031 243.031
L36.188 242.735
L36.2721 242.735
L36.3561 242.237
L36.4398 242.237
L36.5213 241.228
L36.6087 241.228
L36.6921 239.727
L36.7762 239.727
L36.8589 238.825
L36.9439 238.825
L37.0278 237.794
L37.1107 237.794
L37.1969 237.057
L37.283 237.057
L37.3675 236.542
L37.4527 236.542
L37.5394 236.119
L37.6243 236.119
L37.7081 235.775
L37.879 235.702
L37.9625 235.295
L38.0492 235.295
L38.134 234.529
L38.2202 234.529
L38.307 233.935
L38.3931 233.935
L38.4778 233.533
L38.6479 233.429
L38.7328 233.302
L38.8195 233.302
L38.904 232.974
L38.989 232.974
L39.0746 232.614
L39.3317 232.556
L39.418 232.455
L39.418 232.493
L39.5927 232.455
L39.6772 232.029
L39.7626 232.029
L39.8489 231.584
L39.9361 231.584
L40.0232 231.08
L40.1098 231.08
L40.1963 230.785
L40.2826 230.785
L40.368 230.516
L40.4541 230.516
L40.5412 230.087
L40.6287 230.087
L40.7158 229.535
L40.8035 229.535
L40.8911 229.198
L40.9771 229.198
L41.0623 228.785
L41.1516 228.785
L41.2387 227.899
L41.3277 227.899
L41.4152 227.053
L41.5015 227.053
L41.5893 226.215
L41.676 226.215
L41.7641 225.455
L41.8523 225.455
L41.94 224.728
L42.0264 224.728
L42.1158 223.81
L42.2028 223.81
L42.2905 222.887
L42.3762 222.887
L42.466 222.077
L42.5532 222.077
L42.6386 221.372
L42.7269 221.372
L42.8153 220.604
L42.9031 220.604
L42.9902 219.878
L43.0789 219.878
L43.1669 219.179
L43.2532 219.179
L43.3407 218.507
L43.4316 218.507
L43.5197 217.935
L43.607 217.935
L43.6972 217.401
L43.7843 217.401
L43.8686 216.66
L43.9565 216.66
L44.0452 215.84
L44.135 215.84
L44.2241 215.009
L44.3123 215.009
L44.4015 214.066
L44.4905 214.066
L44.5801 213.099
L44.6687 213.099
L44.7567 212.336
L44.844 212.336
L44.9345 211.797
L45.0239 211.797
L45.1149 211.36
L45.2011 211.36
L45.2901 210.976
L45.3783 210.976
L45.4665 210.458
L45.5567 210.458
L45.645 210.026
L45.7334 210.026
L45.8192 209.663
L45.9081 209.663
L45.9956 209.405
L46.175 209.316
L46.2638 208.943
L46.3544 208.943
L46.4436 208.464
L46.5329 208.464
L46.6241 207.893
L46.713 207.893
L46.8023 207.174
L46.8903 207.174
L46.9789 206.413
L47.0662 206.413
L47.1573 205.717
L47.2495 205.717
L47.3408 205
L47.4307 205
L47.5228 204.212
L47.6144 204.212
L47.7031 203.455
L47.7938 203.455
L47.8827 202.584
L47.9697 202.584
L48.0581 201.694
L48.1519 201.694
L48.2407 200.677
L48.3287 200.677
L48.4173 199.82
L48.5075 199.82
L48.5959 198.96
L48.6853 198.96
L48.7785 198.114
L48.8686 198.114
L48.9582 197.378
L49.047 197.378
L49.1363 196.599
L49.2274 196.599
L49.3186 195.666
L49.407 195.666
L49.4982 194.695
L49.5871 194.695
L49.6761 193.772
L49.7697 193.772
L49.8606 192.821
L49.9522 192.821
L50.0427 191.883
L50.1308 191.883
L50.2202 190.99
L50.3109 190.99
L50.4007 190.054
L50.4909 190.054
L50.5833 189.074
L50.6752 189.074
L50.7651 187.916
L50.8555 187.916
L50.9446 186.857
L51.0347 186.857
L51.1264 185.762
L51.2185 185.762
L51.308 184.639
L51.4004 184.639
L51.4924 183.65
L51.5822 183.65
L51.6738 182.612
L51.7663 182.612
L51.8573 181.477
L51.9482 181.477
L52.0411 180.317
L52.1292 180.317
L52.2177 179.176
L52.3078 179.176
L52.3983 178.062
L52.4882 178.062
L52.5808 177.089
L52.6728 177.089
L52.7653 176.141
L52.855 176.141
L52.946 175.193
L53.0382 175.193
L53.1275 174.24
L53.2198 174.24
L53.3122 173.322
L53.4036 173.322
L53.4926 172.346
L53.5848 172.346
L53.6757 171.316
L53.7659 171.316
L53.8589 170.306
L53.951 170.306
L54.0438 169.236
L54.1347 169.236
L54.2273 168.218
L54.3173 168.218
L54.4078 167.21
L54.4998 167.21
L54.5871 166.22
L54.6806 166.22
L54.7722 165.257
L54.8626 165.257
L54.9529 164.272
L55.0425 164.272
L55.1357 163.266
L55.2279 163.266
L55.3195 162.223
L55.4125 162.223
L55.504 161.167
L55.5951 161.167
L55.6884 160.169
L55.7795 160.169
L55.8718 159.25
L55.9639 159.25
L56.0569 158.314
L56.148 158.314
L56.2393 157.387
L56.3317 157.387
L56.4224 156.497
L56.5134 156.497
L56.6066 155.676
L56.6989 155.676
L56.7913 154.785
L56.8812 154.785
L56.9748 153.819
L57.0656 153.819
L57.1589 152.863
L57.2515 152.863
L57.3438 151.964
L57.435 151.964
L57.5275 151.058
L57.6208 151.058
L57.7115 150.211
L57.8067 150.211
L57.8994 149.32
L57.9922 149.32
L58.085 148.468
L58.1773 148.468
L58.2702 147.639
L58.3626 147.639
L58.456 146.837
L58.5503 146.837
L58.6435 146.109
L58.733 146.109
L58.8243 145.491
L58.9183 145.491
L59.0107 144.861
L59.1051 144.861
L59.1991 144.17
L59.2913 144.17
L59.384 143.515
L59.4763 143.515
L59.5702 142.891
L59.6609 142.891
L59.7524 142.297
L59.8426 142.297
L59.9346 141.692
L60.0282 141.692
L60.1221 141.054
L60.2153 141.054
L60.3065 140.392
L60.3974 140.392
L60.4944 139.737
L60.5869 139.737
L60.6803 139.106
L60.7723 139.106
L60.8649 138.515
L60.9591 138.515
L61.0504 137.884
L61.1428 137.884
L61.2387 137.156
L61.3302 137.156
L61.4249 136.447
L61.518 136.447
L61.6098 135.787
L61.7017 135.787
L61.792 135.244
L61.8852 135.244
L61.9778 134.751
L62.072 134.751
L62.1659 134.238
L62.2621 134.238
L62.355 133.738
L62.4477 133.738
L62.5434 133.207
L62.6351 133.207
L62.7299 132.67
L62.8232 132.67
L62.9157 132.112
L63.0088 132.112
L63.1021 131.633
L63.1947 131.633
L63.286 131.188
L63.3791 131.188
L63.4728 130.71
L63.5666 130.71
L63.662 130.212
L63.7552 130.212
L63.8491 129.732
L63.9403 129.732
L64.0332 129.208
L64.1269 129.208
L64.2198 128.652
L64.3141 128.652
L64.4083 128.121
L64.5011 128.121
L64.5952 127.579
L64.6866 127.579
L64.7789 126.998
L64.8708 126.998
L64.9654 126.466
L65.0599 126.466
L65.1516 126.007
L65.2438 126.007
L65.3392 125.532
L65.4321 125.532
L65.5261 125.048
L65.6176 125.048
L65.7096 124.577
L65.8053 124.577
L65.8984 124.07
L65.9905 124.07
L66.0878 123.585
L66.1812 123.585
L66.2747 123.127
L66.3703 123.127
L66.4629 122.667
L66.5575 122.667
L66.6518 122.21
L66.7457 122.21
L66.838 121.742
L66.9317 121.742
L67.0275 121.237
L67.12 121.237
L67.2165 120.784
L67.309 120.784
L67.4019 120.374
L67.498 120.374
L67.5922 119.984
L67.686 119.984
L67.7791 119.651
L67.874 119.651
L67.9706 119.384
L68.0649 119.384
L68.1597 119.131
L68.2522 119.131
L68.3469 118.86
L68.4424 118.86
L68.5339 118.588
L68.6295 118.588
L68.7227 118.297
L68.816 118.297
L68.9105 118.003
L69.0035 118.003
L69.0989 117.707
L69.1934 117.707
L69.2894 117.358
L69.3848 117.358
L69.48 116.971
L69.5732 116.971
L69.6672 116.598
L69.761 116.598
L69.8541 116.222
L69.9474 116.222
L70.0415 115.842
L70.1365 115.842
L70.2305 115.451
L70.3249 115.451
L70.4208 115.048
L70.5135 115.048
L70.6096 114.674
L70.7044 114.674
L70.8 114.327
L70.8927 114.327
L70.9889 114.001
L71.0859 114.001
L71.1803 113.658
L71.2743 113.658
L71.3692 113.266
L71.4638 113.266
L71.5576 112.885
L71.6515 112.885
L71.7455 112.543
L71.8392 112.543
L71.9364 112.167
L72.0302 112.167
L72.1243 111.802
L72.2183 111.802
L72.3147 111.461
L72.4075 111.461
L72.5041 111.13
L72.5986 111.13
L72.6939 110.817
L72.7895 110.817
L72.8867 110.524
L72.9815 110.524
L73.0743 110.19
L73.1694 110.19
L73.263 109.851
L73.3562 109.851
L73.4503 109.557
L73.544 109.557
L73.6398 109.257
L73.7328 109.257
L73.8292 109.001
L73.9243 109.001
L74.0174 108.759
L74.1133 108.759
L74.2074 108.507
L74.3013 108.507
L74.3958 108.284
L74.5855 108.182
L74.6795 107.999
L74.8712 107.923
L74.9667 107.793
L75.1587 107.706
L75.2547 107.478
L75.4424 107.368
L75.5395 107.152
L75.6342 107.152
L75.7272 106.913
L75.8268 106.913
L75.9221 106.665
L76.0183 106.665
L76.1136 106.403
L76.208 106.403
L76.3032 106.143
L76.4011 106.143
L76.4941 105.88
L76.5899 105.88
L76.6846 105.622
L76.7805 105.622
L76.874 105.374
L76.9681 105.374
L77.0616 105.112
L77.1583 105.112
L77.2543 104.856
L77.3486 104.856
L77.4452 104.596
L77.5389 104.596
L77.6338 104.324
L77.7304 104.324
L77.826 104.049
L77.9231 104.049
L78.0195 103.785
L78.1158 103.785
L78.2114 103.53
L78.3077 103.53
L78.4024 103.267
L78.4979 103.267
L78.5929 102.996
L78.6891 102.996
L78.7804 102.739
L78.878 102.739
L78.9728 102.464
L79.0681 102.464
L79.1634 102.175
L79.2585 102.175
L79.3562 101.884
L79.4525 101.884
L79.5459 101.611
L79.6421 101.611
L79.7395 101.341
L79.8349 101.341
L79.9305 101.095
L80.123 100.996
L80.219 100.808
L80.412 100.721
L80.5086 100.543
L80.7009 100.445
L80.7979 100.255
L80.9912 100.172
L81.0855 100.019
L81.2764 99.941
L81.3717 99.7956
L81.5634 99.722
L81.6582 99.5671
L81.8518 99.4872
L81.9503 99.3468
L82.1426 99.2724
L82.237 99.1442
L82.4284 99.0868
L82.5256 98.9577
L82.7184 98.8835
L82.8126 98.6906
L82.9099 98.6906
L83.0048 98.4783
L83.1943 98.3682
L83.2909 98.119
L83.3863 98.119
L83.4811 97.873
L83.578 97.873
L83.6747 97.6235
L83.7692 97.6235
L83.866 97.3951
L83.9611 97.3951
L84.0584 97.1578
L84.1543 97.1578
L84.2492 96.9174
L84.346 96.9174
L84.4385 96.6838
L84.5346 96.6838
L84.63 96.4605
L84.7266 96.4605
L84.8241 96.2231
L84.9218 96.2231
L85.0189 95.9622
L85.1157 95.9622
L85.2123 95.7074
L85.3066 95.7074
L85.4029 95.453
L85.5012 95.453
L85.5963 95.2011
L85.6915 95.2011
L85.7857 94.9609
L85.8827 94.9609
L85.9798 94.7339
L86.1745 94.6243
L86.2714 94.3936
L86.3658 94.3936
L86.4612 94.136
L86.5568 94.136
L86.6526 93.8389
L86.7532 93.8389
L86.8477 93.5237
L86.9428 93.5237
L87.0384 93.2252
L87.1349 93.2252
L87.2335 92.9409
L87.3292 92.9409
L87.4257 92.6411
L87.524 92.6411
L87.6214 92.3302
L87.717 92.3302
L87.8149 92.0141
L87.9107 92.0141
L88.0088 91.6907
L88.1051 91.6907
L88.2022 91.3577
L88.2999 91.3577
L88.3951 91.0103
L88.489 91.0103
L88.5885 90.6777
L88.6849 90.6777
L88.7811 90.3394
L88.8753 90.3394
L88.9714 90.0039
L89.0678 90.0039
L89.1651 89.6665
L89.2572 89.6665
L89.3578 89.3413
L89.4522 89.3413
L89.5512 89.0131
L89.6472 89.0131
L89.7439 88.698
L89.8406 88.698
L89.9376 88.4015
L90.036 88.4015
L90.1308 88.1116
L90.2264 88.1116
L90.3228 87.8462
L90.424 87.8462
L90.5184 87.5679
L90.6149 87.5679
L90.7119 87.3161
L90.8092 87.3161
L90.9056 87.0798
L91.0984 86.9701
L91.1937 86.764
L91.3897 86.6672
L91.4872 86.4746
L91.6814 86.3779
L91.7789 86.1639
L91.9703 86.0603
L92.0689 85.8615
L92.2648 85.7592
L92.3601 85.5605
L92.5546 85.4631
L92.6512 85.2663
L92.8417 85.1676
L92.9406 84.9772
L93.1316 84.8812
L93.2294 84.7045
L93.4211 84.6176
L93.5191 84.4421
L93.7134 84.3547
L93.8147 84.1753
L94.0075 84.0911
L94.1057 83.9191
L94.2997 83.8356
L94.395 83.6562
L94.591 83.5644
L94.6897 83.3628
L94.8828 83.2574
L94.9781 83.0505
L95.1701 82.9495
L95.2672 82.7399
L95.4616 82.6335
L95.5587 82.415
L95.6548 82.415
L95.7527 82.1794
L95.8516 82.1794
L95.95 81.9395
L96.049 81.9395
L96.1469 81.7096
L96.2451 81.7096
L96.3428 81.4978
L96.5381 81.3977
L96.6342 81.1831
L96.7358 81.1831
L96.8335 80.966
L96.9317 80.966
L97.0292 80.7348
L97.1269 80.7348
L97.226 80.4992
L97.3217 80.4992
L97.4175 80.2584
L97.5146 80.2584
L97.6136 80.0186
L97.7121 80.0186
L97.8074 79.7738
L97.9067 79.7738
L98.0023 79.5293
L98.1006 79.5293
L98.1991 79.2893
L98.2947 79.2893
L98.393 79.0543
L98.4919 79.0543
L98.5897 78.8047
L98.6873 78.8047
L98.7871 78.559
L98.8842 78.559
L98.9823 78.3245
L99.081 78.3245
L99.1802 78.0833
L99.2775 78.0833
L99.3748 77.8555
L99.4721 77.8555
L99.5671 77.6354
L99.7623 77.5325
L99.8575 77.3579
L100.054 77.2689
L100.152 77.0895
L100.348 76.9974
L100.443 76.813
L100.639 76.716
L100.736 76.5404
L100.93 76.4562
L101.025 76.2897
L101.221 76.2143
L101.321 76.0755
L101.52 76.0059
L101.619 75.8592
L101.816 75.7868
L101.912 75.655
L102.105 75.5936
L102.204 75.4753
L102.5 75.3658
L102.599 75.2587
L102.891 75.1594
L102.988 75.0551
L103.184 74.9987
L103.282 74.8905
L103.569 74.7936
L103.668 74.6888
L103.964 74.5871
L104.062 74.4785
L104.259 74.4192
L104.357 74.299
L104.552 74.2322
L104.65 74.0925
L104.848 74.0143
L104.948 73.8423
L105.144 73.7706
L105.239 73.6198
L105.436 73.5475
L105.531 73.4193
L105.729 73.3565
L105.827 73.2368
L106.023 73.1698
L106.123 73.0276
L106.321 72.9543
L106.417 72.8016
L106.619 72.723
L106.715 72.5725
L106.911 72.4917
L107.01 72.3212
L107.206 72.232
L107.305 72.0557
L107.503 71.9651
L107.599 71.7769
L107.799 71.669
L107.897 71.4762
L108.091 71.3814
L108.189 71.1986
L108.386 71.1062
L108.483 70.9257
L108.683 70.8368
L108.784 70.6513
L108.982 70.5495
L109.081 70.3499
L109.276 70.247
L109.372 70.0543
L109.567 69.9545
L109.665 69.7567
L109.861 69.6605
L109.959 69.4539
L110.155 69.345
L110.254 69.1294
L110.452 69.025
L110.551 68.8076
L110.65 68.8076
L110.749 68.5836
L110.849 68.5836
L110.947 68.3706
L111.14 68.2716
L111.237 68.0833
L111.436 67.9854
L111.533 67.7929
L111.732 67.6916
L111.83 67.4972
L112.028 67.4002
L112.13 67.1966
L112.326 67.1019
L112.425 66.9072
L112.622 66.8142
L112.721 66.6246
L112.919 66.5286
L113.017 66.3431
L113.213 66.247
L113.312 66.0439
L113.51 65.9425
L113.612 65.7374
L113.81 65.6397
L113.908 65.4434
L114.103 65.3449
L114.205 65.1578
L114.399 65.073
L114.498 64.902
L114.7 64.8192
L114.799 64.6625
L114.993 64.587
L115.092 64.4262
L115.29 64.3449
L115.388 64.1806
L115.588 64.0976
L115.684 63.9369
L115.881 63.8604
L115.978 63.7026
L116.176 63.629
L116.276 63.4823
L116.475 63.4138
L116.573 63.2652
L116.768 63.1881
L116.866 63.0382
L117.061 62.9647
L117.159 62.8166
L117.358 62.7384
L117.458 62.5906
L117.655 62.5186
L117.755 62.3784
L117.958 62.3116
L118.058 62.1797
L118.255 62.1126
L118.354 61.9832
L118.551 61.9176
L118.648 61.7733
L118.845 61.6955
L118.945 61.5419
L119.138 61.4646
L119.239 61.3081
L119.438 61.2325
L119.533 61.077
L119.731 61.0027
L119.829 60.849
L120.026 60.7646
L120.127 60.5979
L120.323 60.5163
L120.427 60.3617
L120.624 60.2908
L120.724 60.1375
L120.926 60.0614
L121.024 59.9147
L121.221 59.8496
L121.322 59.7011
L121.52 59.6293
L121.619 59.5005
L121.82 59.4334
L121.915 59.3088
L122.21 59.1984
L122.311 59.0884
L122.615 58.9839
L122.712 58.8696
L122.91 58.8103
L123.013 58.698
L123.213 58.6399
L123.311 58.5218
L123.507 58.4668
L123.604 58.3487
L123.8 58.2856
L123.899 58.16
L124.103 58.0953
L124.203 57.9684
L124.402 57.908
L124.5 57.7874
L124.702 57.7199
L124.804 57.5837
L125.002 57.5176
L125.101 57.3828
L125.298 57.3213
L125.396 57.1965
L125.593 57.1302
L125.695 56.9897
L125.897 56.9185
L125.992 56.783
L126.192 56.7108
L126.292 56.5664
L126.491 56.4972
L126.591 56.3648
L126.791 56.3012
L126.892 56.1628
L127.088 56.093
L127.19 55.9475
L127.388 55.8727
L127.488 55.724
L127.688 55.6546
L127.787 55.5067
L127.989 55.4277
L128.087 55.2693
L128.287 55.1925
L128.387 55.0292
L128.588 54.9484
L128.687 54.8013
L128.886 54.7251
L128.985 54.5786
L129.184 54.5053
L129.284 54.3715
L129.48 54.3093
L129.579 54.1792
L129.779 54.1084
L129.882 53.9546
L130.081 53.8809
L130.184 53.7167
L130.386 53.6333
L130.485 53.47
L130.685 53.387
L130.785 53.2185
L130.982 53.1366
L131.084 52.9676
L131.281 52.8872
L131.381 52.7229
L131.578 52.6412
L131.679 52.4702
L131.878 52.3854
L131.981 52.2178
L132.178 52.1425
L132.275 51.9906
L132.475 51.9098
L132.575 51.7583
L132.774 51.6841
L132.873 51.5362
L133.074 51.4612
L133.175 51.3163
L133.373 51.2478
L133.474 51.1194
L133.677 51.0527
L133.777 50.9369
L133.978 50.8831
L134.078 50.7627
L134.279 50.7016
L134.377 50.5906
L134.68 50.4812
L134.783 50.3709
L135.082 50.2704
L135.18 50.1647
L135.481 50.0647
L135.58 49.9688
L135.882 49.87
L135.98 49.7748
L136.277 49.6819
L136.377 49.5976
L136.783 49.4907
L136.88 49.4174
L137.281 49.3275
L137.384 49.2735
L138.383 49.1636
L138.489 49.1512
L139.689 49.041
L139.79 49.0212
L140.493 48.9212
L140.594 48.8912
L141.292 48.7839
L141.393 48.7564
L142.295 48.6479
L142.394 48.6243
L143.298 48.5219
L143.4 48.4849
L144.009 48.3765
L144.109 48.3371
L145.019 48.2299
L145.123 48.2082
L145.921 48.1002
L146.02 48.0745
L147.13 47.9647
L147.229 47.9601
L149.043 47.8494
L149.145 47.8382
L150.152 47.7415
L150.252 47.708
L152.777 47.6042
L152.878 47.5885
L153.889 47.4839
L153.988 47.4667
L155.601 47.3626
L155.703 47.341
L156.711 47.2334
L156.811 47.2181
L157.725 47.115
L157.826 47.0827
L158.639 46.9756
L158.738 46.9458
L159.454 46.8389
L159.558 46.8
L160.064 46.7103
L160.168 46.6588
L160.671 46.5628
L160.772 46.526
L161.381 46.4218
L161.484 46.3835
L162.092 46.2851
L162.192 46.2446
L162.695 46.1508
L162.799 46.0968
L163.305 45.9939
L163.404 45.9458
L163.913 45.8352
L164.016 45.7845
L164.525 45.6917
L164.625 45.6394
L165.034 45.5534
L165.134 45.5016
L165.743 45.4058
L165.844 45.369
L166.551 45.2633
L166.652 45.2295
L167.159 45.1382
L167.264 45.0886
L167.775 44.9934
L167.876 44.9443
L168.381 44.8472
L168.483 44.8021
L168.989 44.7069
L169.089 44.6621
L169.495 44.5829
L169.599 44.5183
L170.011 44.4223
L170.111 44.3561
L170.522 44.2476
L170.622 44.1788
L170.924 44.1062
L171.028 44.0315
L171.435 43.9331
L171.536 43.8693
L171.941 43.7799
L172.043 43.7189
L172.446 43.6207
L172.55 43.5507
L172.859 43.4744
L172.964 43.3975
L173.367 43.2927
L173.469 43.233
L173.874 43.1374
L173.977 43.0681
L174.388 42.9678
L174.489 42.9012
L174.797 42.8286
L174.898 42.7524
L175.202 42.6775
L175.3 42.6063
L175.609 42.5327
L175.71 42.4559
L176.018 42.3804
L176.119 42.3042
L176.422 42.2257
L176.525 42.152
L176.934 42.0515
L177.035 41.9914
L177.446 41.8877
L177.547 41.814
L177.961 41.7108
L178.062 41.647
L178.469 41.5565
L178.569 41.5004
L178.98 41.4076
L179.082 41.3387
L179.39 41.2631
L179.493 41.186
L179.903 41.0811
L180.004 41.0163
L180.414 40.9144
L180.514 40.8432
L180.92 40.7344
L181.023 40.6633
L181.437 40.5629
L181.54 40.5041
L181.949 40.4073
L182.051 40.3425
L182.459 40.2414
L182.559 40.1786
L182.972 40.0841
L183.075 40.0167
L183.477 39.9183
L183.581 39.8573
L183.985 39.7647
L184.086 39.7061
L184.491 39.6185
L184.594 39.5639
L185.004 39.4713
L185.104 39.4065
L185.513 39.298
L185.614 39.2301
L186.024 39.1277
L186.123 39.0617
L186.54 38.9679
L186.644 38.9064
L187.05 38.8113
L187.148 38.7474
L187.554 38.6516
L187.658 38.5894
L188.172 38.4797
L188.275 38.4285
L188.783 38.3213
L188.887 38.2662
L189.402 38.1641
L189.511 38.1068
L190.022 37.9984
L190.128 37.9464
L190.643 37.8496
L190.742 37.8029
L191.256 37.7095
L191.358 37.6688
L191.982 37.573
L192.085 37.5313
L192.798 37.435
L192.901 37.4046
L193.72 37.2949
L193.824 37.2626
L194.751 37.1581
L194.854 37.1371
L195.779 37.0373
L195.88 37.0101
L196.701 36.9082
L196.803 36.8813
L197.62 36.78
L197.726 36.7596
L199.065 36.6575
L199.168 36.6339
L199.991 36.5311
L200.093 36.5006
L200.71 36.4034
L200.813 36.359
L201.527 36.2573
L201.63 36.2306
L202.456 36.1265
L202.559 36.0949
L203.385 35.9882
L203.485 35.9604
L204.101 35.8616
L204.205 35.8277
L204.829 35.7363
L204.932 35.6943
L205.556 35.5999
L205.663 35.5561
L206.283 35.4458
L206.389 35.3995
L206.908 35.3016
L207.013 35.2488
L207.524 35.1426
L207.628 35.0958
L208.252 34.9877
L208.356 34.9421
L208.977 34.8416
L209.083 34.804
L209.798 34.6934
L209.902 34.6505
L210.729 34.5436
L210.837 34.5181
L211.658 34.416
L211.764 34.3906
L212.589 34.2839
L212.69 34.2492
L213.31 34.1461
L213.414 34.1064
L214.034 34.0024
L214.138 33.9679
L214.762 33.8741
L214.867 33.8344
L215.484 33.7295
L215.585 33.6908
L216.21 33.5951
L216.313 33.561
L217.241 33.4529
L217.344 33.4327
L218.482 33.3262
L218.588 33.3141
L221.071 33.2072
L221.173 33.1948
L222.937 33.0868
L223.04 33.0728
L224.286 32.9666
L224.393 32.941
L225.638 32.8318
L225.738 32.8191
L227.08 32.713
L227.185 32.6886
L228.223 32.5878
L228.328 32.565
L229.155 32.4663
L229.26 32.4376
L230.291 32.335
L230.397 32.3165
L231.542 32.2129
L231.645 32.1899
L232.884 32.0862
L232.988 32.0649
L234.019 31.9586
L234.122 31.9276
L234.959 31.828
L235.064 31.7997
L235.902 31.694
L236.008 31.6613
L236.735 31.5523
L236.84 31.5079
L237.456 31.4058
L237.56 31.3668
L238.186 31.2619
L238.291 31.2184
L238.922 31.1166
L239.025 31.0777
L239.85 30.9747
L239.952 30.9482
L240.79 30.849
L240.896 30.819
L241.624 30.7195
L241.728 30.6905
L242.667 30.5854
L242.774 30.5638
L243.819 30.4587
L243.926 30.4353
L245.701 30.3262
L245.806 30.3203
L248.616 30.2163
L248.721 30.193
L249.663 30.0936
L249.769 30.0637
L250.609 29.9565
L250.715 29.9209
L251.451 29.8198
L251.552 29.7866
L252.178 29.6921
L252.282 29.6522
L252.911 29.549
L253.015 29.5123
L253.537 29.4235
L253.64 29.3757
L254.266 29.2674
L254.37 29.2208
L255.005 29.1103
L255.108 29.0719
L255.738 28.9649
L255.845 28.9216
L256.467 28.8139
L256.57 28.7687
L257.202 28.6656
L257.306 28.6297
L257.932 28.5356
L258.037 28.4969
L258.77 28.3903
L258.876 28.3546
L259.604 28.2563
L259.709 28.2224
L260.439 28.1258
L260.544 28.0918
L261.278 27.9886
L261.384 27.9532
L262.327 27.8476
L262.431 27.8294
L263.678 27.7243
L263.78 27.7081
L265.035 27.6035
L265.139 27.5848
L266.29 27.4827
L266.394 27.4562
L267.451 27.3496
L267.554 27.3273
L268.814 27.2166
L268.922 27.2005
L270.28 27.0976
L270.388 27.0785
L271.54 26.9762
L271.645 26.9491
L272.592 26.8465
L272.697 26.8244
L273.747 26.7242
L273.853 26.6971
L274.799 26.5928
L274.903 26.5626
L275.751 26.4544
L275.855 26.4295
L276.801 26.3242
L276.907 26.2991
L277.857 26.1945
L277.962 26.167
L278.805 26.0609
L278.91 26.0325
L279.75 25.9234
L279.86 25.8868
L280.596 25.7904
L280.704 25.7605
L281.544 25.6525
L281.65 25.6158
L282.387 25.5187
L282.495 25.4892
L283.333 25.3786
L283.436 25.349
L284.173 25.2502
L284.276 25.2127
L284.905 25.12
L285.009 25.0824
L285.745 24.98
L285.851 24.9459
L286.587 24.8462
L286.689 24.8169
L287.429 24.7198
L287.535 24.6881
L288.483 24.5841
L288.591 24.5636
L289.855 24.4617
L289.957 24.4395
L291.012 24.3322
L291.114 24.3105
L292.173 24.2071
L292.28 24.1795
L293.017 24.0819
L293.124 24.0499
L293.864 23.9502
L293.972 23.916
L294.705 23.8186
L294.815 23.7839
L295.546 23.6737
L295.654 23.6355
L296.288 23.5375
L296.393 23.5
L297.128 23.3895
L297.233 23.3519
L297.866 23.2535
L297.97 23.2162
L298.713 23.1053
L298.821 23.0687
L299.559 22.9676
L299.666 22.9329
L300.514 22.8291
L300.621 22.8039
L301.568 22.7036
L301.675 22.6762
L302.52 22.5702
L302.626 22.5385
L303.367 22.4338
L303.47 22.3951
L304.102 22.2931
L304.208 22.2532
L304.844 22.1462
L304.948 22.1032
L305.591 21.996
L305.698 21.9517
L306.333 21.8453
L306.438 21.8029
L307.077 21.7028
L307.183 21.6619
L307.811 21.561
L307.918 21.5195
L308.551 21.4179
L308.658 21.374
L309.3 21.2667
L309.405 21.2245
L310.046 21.1195
L310.149 21.078
L310.786 20.9808
L310.892 20.9387
L311.525 20.8314
L311.633 20.7882
L312.27 20.6865
L312.377 20.6474
L313.012 20.5474
L313.118 20.506
L313.748 20.4071
L313.854 20.3678
L314.492 20.2704
L314.6 20.2304
L315.234 20.1305
L315.338 20.0912
L315.979 19.9921
L316.087 19.9591
L316.821 19.8507
L316.926 19.8171
L317.669 19.7106
L317.776 19.6729
L318.414 19.5774
L318.519 19.5405
L319.144 19.4421
L319.25 19.4009
L319.892 19.2991
L319.995 19.2602
L320.641 19.1564
L320.746 19.118
L321.38 19.0124
L321.488 18.9693
L322.115 18.8655
L322.219 18.8256
L322.857 18.7239
L322.964 18.6824
L323.604 18.5761
L323.708 18.5332
L324.344 18.425
L324.452 18.3805
L325.082 18.2697
L325.184 18.2279
L325.828 18.1186
L325.933 18.0759
L326.571 17.9767
L326.678 17.9337
L327.319 17.8285
L327.424 17.7862
L328.064 17.6816
L328.171 17.6374
L328.808 17.5323
L328.913 17.4899
L329.552 17.3812
L329.66 17.337
L330.298 17.2363
L330.4 17.1984
L331.043 17.0992
L331.146 17.0607
L331.781 16.9636
L331.886 16.9257
L332.731 16.8173
L332.837 16.7876
L333.695 16.6767
L333.8 16.6448
L334.651 16.5404
L334.761 16.5123
L335.616 16.4122
L335.726 16.3853
L336.786 16.2779
L336.889 16.256
L337.954 16.1532
L338.058 16.131
L339.233 16.0239
L339.34 16.0026
L340.511 15.8937
L340.617 15.8734
L341.682 15.7739
L341.789 15.7498
L343.162 15.6419
L343.266 15.6261
L344.874 15.5178
L344.982 15.5005
L347.016 15.3897
L347.121 15.3801
L349.885 15.2695
L349.996 15.2598
L353.2 15.15
L353.308 15.1435
L367.411 15.2524
L367.517 15.259
L375.644 15.3679
L375.753 15.3729
L378.956 15.4826
L379.063 15.4878
L390.33 15.3786
L390.437 15.3734
L393.651 15.2633
L393.651 15.2595
L397.846 15.1515
L397.95 15.1429
L404.507 15.0332
L404.612 15.0302
L410.426 15.1405
L410.53 15.1538
L412.263 15.2586
L412.372 15.272
L414.638 15.3775
L414.746 15.3892
L418.938 15.5001
L419.048 15.5026
L434.284 15.6132
L434.392 15.6165
L451.253 15.7257
L451.359 15.7388
L454.503 15.8488
L454.609 15.8522
L491.648 15.9632
L491.648 15.9644
L501.991 16.0742
L502.1 16.0775
L507.446 16.1883
L507.552 16.1931
L511.92 16.3018
L512.03 16.3086
L523.042 16.4192
L523.042 16.4203
L534.724 16.531
L534.835 16.5333
L545.136 16.6224
L545.136 16.6233" style="fill:none;stroke:#ff0000;stroke-width:0.5;"/>
   </g>
   <g id="matplotlib.axis_1">
    <g id="xtick_1">
     <g id="line2d_2">
      <defs>
       <path d="
M0 0
L0 -4" id="m811b7b27e4"/>
      </defs>
      <g>
       <use style="stroke:#000000;stroke-linecap:butt;stroke-width:0.5;" x="29.2984375" xlink:href="#m811b7b27e4" y="329.813472215"/>
      </g>
     </g>
    </g>
    <g id="xtick_2">
     <g id="line2d_3">
      <defs>
       <path d="
M0 0
L0 -4" id="m811b7b27e4"/>
      </defs>
      <g>
       <use style="stroke:#000000;stroke-linecap:butt;stroke-width:0.5;" x="132.47178737" xlink:href="#m811b7b27e4" y="329.813472215"/>
      </g>
     </g>
     <g id="text_1">
      <!-- 2e7 -->
      <defs>
       <path d="
M19.1875 8.29688
L53.6094 8.29688
L53.6094 0
L7.32812 0
L7.32812 8.29688
Q12.9375 14.1094 22.625 23.8906
Q32.3281 33.6875 34.8125 36.5312
Q39.5469 41.8438 41.4219 45.5312
Q43.3125 49.2188 43.3125 52.7812
Q43.3125 58.5938 39.2344 62.25
Q35.1562 65.9219 28.6094 65.9219
Q23.9688 65.9219 18.8125 64.3125
Q13.6719 62.7031 7.8125 59.4219
L7.8125 69.3906
Q13.7656 71.7812 18.9375 73
Q24.125 74.2188 28.4219 74.2188
Q39.75 74.2188 46.4844 68.5469
Q53.2188 62.8906 53.2188 53.4219
Q53.2188 48.9219 51.5312 44.8906
Q49.8594 40.875 45.4062 35.4062
Q44.1875 33.9844 37.6406 27.2188
Q31.1094 20.4531 19.1875 8.29688" id="BitstreamVeraSans-Roman-32"/>
       <path d="
M56.2031 29.5938
L56.2031 25.2031
L14.8906 25.2031
Q15.4844 15.9219 20.4844 11.0625
Q25.4844 6.20312 34.4219 6.20312
Q39.5938 6.20312 44.4531 7.46875
Q49.3125 8.73438 54.1094 11.2812
L54.1094 2.78125
Q49.2656 0.734375 44.1875 -0.34375
Q39.1094 -1.42188 33.8906 -1.42188
Q20.7969 -1.42188 13.1562 6.1875
Q5.51562 13.8125 5.51562 26.8125
Q5.51562 40.2344 12.7656 48.1094
Q20.0156 56 32.3281 56
Q43.3594 56 49.7812 48.8906
Q56.2031 41.7969 56.2031 29.5938
M47.2188 32.2344
Q47.125 39.5938 43.0938 43.9844
Q39.0625 48.3906 32.4219 48.3906
Q24.9062 48.3906 20.3906 44.1406
Q15.875 39.8906 15.1875 32.1719
z
" id="BitstreamVeraSans-Roman-65"/>
       <path d="
M8.20312 72.9062
L55.0781 72.9062
L55.0781 68.7031
L28.6094 0
L18.3125 0
L43.2188 64.5938
L8.20312 64.5938
z
" id="BitstreamVeraSans-Roman-37"/>
      </defs>
      <g transform="translate(123.82647487 341.235347215)scale(0.1 -0.1)">
       <use xlink:href="#BitstreamVeraSans-Roman-32"/>
       <use x="63.623046875" xlink:href="#BitstreamVeraSans-Roman-65"/>
       <use x="125.146484375" xlink:href="#BitstreamVeraSans-Roman-37"/>
      </g>
     </g>
    </g>
    <g id="xtick_3">
     <g id="line2d_4">
      <defs>
       <path d="
M0 0
L0 -4" id="m811b7b27e4"/>
      </defs>
      <g>
       <use style="stroke:#000000;stroke-linecap:butt;stroke-width:0.5;" x="235.64513724" xlink:href="#m811b7b27e4" y="329.813472215"/>
      </g>
     </g>
     <g id="text_2">
      <!-- 4e7 -->
      <defs>
       <path d="
M37.7969 64.3125
L12.8906 25.3906
L37.7969 25.3906
z

M35.2031 72.9062
L47.6094 72.9062
L47.6094 25.3906
L58.0156 25.3906
L58.0156 17.1875
L47.6094 17.1875
L47.6094 0
L37.7969 0
L37.7969 17.1875
L4.89062 17.1875
L4.89062 26.7031
z
" id="BitstreamVeraSans-Roman-34"/>
      </defs>
      <g transform="translate(226.87794974 341.104097215)scale(0.1 -0.1)">
       <use xlink:href="#BitstreamVeraSans-Roman-34"/>
       <use x="63.623046875" xlink:href="#BitstreamVeraSans-Roman-65"/>
       <use x="125.146484375" xlink:href="#BitstreamVeraSans-Roman-37"/>
      </g>
     </g>
    </g>
    <g id="xtick_4">
     <g id="line2d_5">
      <defs>
       <path d="
M0 0
L0 -4" id="m811b7b27e4"/>
      </defs>
      <g>
       <use style="stroke:#000000;stroke-linecap:butt;stroke-width:0.5;" x="338.81848711" xlink:href="#m811b7b27e4" y="329.813472215"/>
      </g>
     </g>
     <g id="text_3">
      <!-- 6e7 -->
      <defs>
       <path d="
M33.0156 40.375
Q26.375 40.375 22.4844 35.8281
Q18.6094 31.2969 18.6094 23.3906
Q18.6094 15.5312 22.4844 10.9531
Q26.375 6.39062 33.0156 6.39062
Q39.6562 6.39062 43.5312 10.9531
Q47.4062 15.5312 47.4062 23.3906
Q47.4062 31.2969 43.5312 35.8281
Q39.6562 40.375 33.0156 40.375
M52.5938 71.2969
L52.5938 62.3125
Q48.875 64.0625 45.0938 64.9844
Q41.3125 65.9219 37.5938 65.9219
Q27.8281 65.9219 22.6719 59.3281
Q17.5312 52.7344 16.7969 39.4062
Q19.6719 43.6562 24.0156 45.9219
Q28.375 48.1875 33.5938 48.1875
Q44.5781 48.1875 50.9531 41.5156
Q57.3281 34.8594 57.3281 23.3906
Q57.3281 12.1562 50.6875 5.35938
Q44.0469 -1.42188 33.0156 -1.42188
Q20.3594 -1.42188 13.6719 8.26562
Q6.98438 17.9688 6.98438 36.375
Q6.98438 53.6562 15.1875 63.9375
Q23.3906 74.2188 37.2031 74.2188
Q40.9219 74.2188 44.7031 73.4844
Q48.4844 72.75 52.5938 71.2969" id="BitstreamVeraSans-Roman-36"/>
      </defs>
      <g transform="translate(330.15598711 341.235347215)scale(0.1 -0.1)">
       <use xlink:href="#BitstreamVeraSans-Roman-36"/>
       <use x="63.623046875" xlink:href="#BitstreamVeraSans-Roman-65"/>
       <use x="125.146484375" xlink:href="#BitstreamVeraSans-Roman-37"/>
      </g>
     </g>
    </g>
    <g id="xtick_5">
     <g id="line2d_6">
      <defs>
       <path d="
M0 0
L0 -4" id="m811b7b27e4"/>
      </defs>
      <g>
       <use style="stroke:#000000;stroke-linecap:butt;stroke-width:0.5;" x="441.99183698" xlink:href="#m811b7b27e4" y="329.813472215"/>
      </g>
     </g>
     <g id="text_4">
      <!-- 8e7 -->
      <defs>
       <path d="
M31.7812 34.625
Q24.75 34.625 20.7188 30.8594
Q16.7031 27.0938 16.7031 20.5156
Q16.7031 13.9219 20.7188 10.1562
Q24.75 6.39062 31.7812 6.39062
Q38.8125 6.39062 42.8594 10.1719
Q46.9219 13.9688 46.9219 20.5156
Q46.9219 27.0938 42.8906 30.8594
Q38.875 34.625 31.7812 34.625
M21.9219 38.8125
Q15.5781 40.375 12.0312 44.7188
Q8.5 49.0781 8.5 55.3281
Q8.5 64.0625 14.7188 69.1406
Q20.9531 74.2188 31.7812 74.2188
Q42.6719 74.2188 48.875 69.1406
Q55.0781 64.0625 55.0781 55.3281
Q55.0781 49.0781 51.5312 44.7188
Q48 40.375 41.7031 38.8125
Q48.8281 37.1562 52.7969 32.3125
Q56.7812 27.4844 56.7812 20.5156
Q56.7812 9.90625 50.3125 4.23438
Q43.8438 -1.42188 31.7812 -1.42188
Q19.7344 -1.42188 13.25 4.23438
Q6.78125 9.90625 6.78125 20.5156
Q6.78125 27.4844 10.7812 32.3125
Q14.7969 37.1562 21.9219 38.8125
M18.3125 54.3906
Q18.3125 48.7344 21.8438 45.5625
Q25.3906 42.3906 31.7812 42.3906
Q38.1406 42.3906 41.7188 45.5625
Q45.3125 48.7344 45.3125 54.3906
Q45.3125 60.0625 41.7188 63.2344
Q38.1406 66.4062 31.7812 66.4062
Q25.3906 66.4062 21.8438 63.2344
Q18.3125 60.0625 18.3125 54.3906" id="BitstreamVeraSans-Roman-38"/>
      </defs>
      <g transform="translate(433.31918073 341.235347215)scale(0.1 -0.1)">
       <use xlink:href="#BitstreamVeraSans-Roman-38"/>
       <use x="63.623046875" xlink:href="#BitstreamVeraSans-Roman-65"/>
       <use x="125.146484375" xlink:href="#BitstreamVeraSans-Roman-37"/>
      </g>
     </g>
    </g>
    <g id="xtick_6">
     <g id="line2d_7">
      <defs>
       <path d="
M0 0
L0 -4" id="m811b7b27e4"/>
      </defs>
      <g>
       <use style="stroke:#000000;stroke-linecap:butt;stroke-width:0.5;" x="545.16518685" xlink:href="#m811b7b27e4" y="329.813472215"/>
      </g>
     </g>
     <g id="text_5">
      <!-- 1e8 -->
      <defs>
       <path d="
M12.4062 8.29688
L28.5156 8.29688
L28.5156 63.9219
L10.9844 60.4062
L10.9844 69.3906
L28.4219 72.9062
L38.2812 72.9062
L38.2812 8.29688
L54.3906 8.29688
L54.3906 0
L12.4062 0
z
" id="BitstreamVeraSans-Roman-31"/>
      </defs>
      <g transform="translate(536.6175306 341.235347215)scale(0.1 -0.1)">
       <use xlink:href="#BitstreamVeraSans-Roman-31"/>
       <use x="63.623046875" xlink:href="#BitstreamVeraSans-Roman-65"/>
       <use x="125.146484375" xlink:href="#BitstreamVeraSans-Roman-38"/>
      </g>
     </g>
    </g>
    <g id="xtick_7">
     <g id="line2d_8">
      <defs>
       <path d="
M0 0
L0 -2" id="m7d7e220e21"/>
      </defs>
      <g>
       <use style="stroke:#000000;stroke-linecap:butt;stroke-width:0.5;" x="55.0917749675" xlink:href="#m7d7e220e21" y="329.813472215"/>
      </g>
     </g>
    </g>
    <g id="xtick_8">
     <g id="line2d_9">
      <defs>
       <path d="
M0 0
L0 -2" id="m7d7e220e21"/>
      </defs>
      <g>
       <use style="stroke:#000000;stroke-linecap:butt;stroke-width:0.5;" x="80.885112435" xlink:href="#m7d7e220e21" y="329.813472215"/>
      </g>
     </g>
    </g>
    <g id="xtick_9">
     <g id="line2d_10">
      <defs>
       <path d="
M0 0
L0 -2" id="m7d7e220e21"/>
      </defs>
      <g>
       <use style="stroke:#000000;stroke-linecap:butt;stroke-width:0.5;" x="106.678449902" xlink:href="#m7d7e220e21" y="329.813472215"/>
      </g>
     </g>
    </g>
    <g id="xtick_10">
     <g id="line2d_11">
      <defs>
       <path d="
M0 0
L0 -2" id="m7d7e220e21"/>
      </defs>
      <g>
       <use style="stroke:#000000;stroke-linecap:butt;stroke-width:0.5;" x="158.265124837" xlink:href="#m7d7e220e21" y="329.813472215"/>
      </g>
     </g>
    </g>
    <g id="xtick_11">
     <g id="line2d_12">
      <defs>
       <path d="
M0 0
L0 -2" id="m7d7e220e21"/>
      </defs>
      <g>
       <use style="stroke:#000000;stroke-linecap:butt;stroke-width:0.5;" x="184.058462305" xlink:href="#m7d7e220e21" y="329.813472215"/>
      </g>
     </g>
    </g>
    <g id="xtick_12">
     <g id="line2d_13">
      <defs>
       <path d="
M0 0
L0 -2" id="m7d7e220e21"/>
      </defs>
      <g>
       <use style="stroke:#000000;stroke-linecap:butt;stroke-width:0.5;" x="209.851799772" xlink:href="#m7d7e220e21" y="329.813472215"/>
      </g>
     </g>
    </g>
    <g id="xtick_13">
     <g id="line2d_14">
      <defs>
       <path d="
M0 0
L0 -2" id="m7d7e220e21"/>
      </defs>
      <g>
       <use style="stroke:#000000;stroke-linecap:butt;stroke-width:0.5;" x="261.438474707" xlink:href="#m7d7e220e21" y="329.813472215"/>
      </g>
     </g>
    </g>
    <g id="xtick_14">
     <g id="line2d_15">
      <defs>
       <path d="
M0 0
L0 -2" id="m7d7e220e21"/>
      </defs>
      <g>
       <use style="stroke:#000000;stroke-linecap:butt;stroke-width:0.5;" x="287.231812175" xlink:href="#m7d7e220e21" y="329.813472215"/>
      </g>
     </g>
    </g>
    <g id="xtick_15">
     <g id="line2d_16">
      <defs>
       <path d="
M0 0
L0 -2" id="m7d7e220e21"/>
      </defs>
      <g>
       <use style="stroke:#000000;stroke-linecap:butt;stroke-width:0.5;" x="313.025149642" xlink:href="#m7d7e220e21" y="329.813472215"/>
      </g>
     </g>
    </g>
    <g id="xtick_16">
     <g id="line2d_17">
      <defs>
       <path d="
M0 0
L0 -2" id="m7d7e220e21"/>
      </defs>
      <g>
       <use style="stroke:#000000;stroke-linecap:butt;stroke-width:0.5;" x="364.611824577" xlink:href="#m7d7e220e21" y="329.813472215"/>
      </g>
     </g>
    </g>
    <g id="xtick_17">
     <g id="line2d_18">
      <defs>
       <path d="
M0 0
L0 -2" id="m7d7e220e21"/>
      </defs>
      <g>
       <use style="stroke:#000000;stroke-linecap:butt;stroke-width:0.5;" x="390.405162045" xlink:href="#m7d7e220e21" y="329.813472215"/>
      </g>
     </g>
    </g>
    <g id="xtick_18">
     <g id="line2d_19">
      <defs>
       <path d="
M0 0
L0 -2" id="m7d7e220e21"/>
      </defs>
      <g>
       <use style="stroke:#000000;stroke-linecap:butt;stroke-width:0.5;" x="416.198499512" xlink:href="#m7d7e220e21" y="329.813472215"/>
      </g>
     </g>
    </g>
    <g id="xtick_19">
     <g id="line2d_20">
      <defs>
       <path d="
M0 0
L0 -2" id="m7d7e220e21"/>
      </defs>
      <g>
       <use style="stroke:#000000;stroke-linecap:butt;stroke-width:0.5;" x="467.785174447" xlink:href="#m7d7e220e21" y="329.813472215"/>
      </g>
     </g>
    </g>
    <g id="xtick_20">
     <g id="line2d_21">
      <defs>
       <path d="
M0 0
L0 -2" id="m7d7e220e21"/>
      </defs>
      <g>
       <use style="stroke:#000000;stroke-linecap:butt;stroke-width:0.5;" x="493.578511915" xlink:href="#m7d7e220e21" y="329.813472215"/>
      </g>
     </g>
    </g>
    <g id="xtick_21">
     <g id="line2d_22">
      <defs>
       <path d="
M0 0
L0 -2" id="m7d7e220e21"/>
      </defs>
      <g>
       <use style="stroke:#000000;stroke-linecap:butt;stroke-width:0.5;" x="519.371849382" xlink:href="#m7d7e220e21" y="329.813472215"/>
      </g>
     </g>
    </g>
   </g>
   <g id="matplotlib.axis_2">
    <g id="ytick_1">
     <g id="line2d_23">
      <defs>
       <path d="
M0 0
L4 0" id="m8d40f9f011"/>
      </defs>
      <g>
       <use style="stroke:#000000;stroke-linecap:butt;stroke-width:0.5;" x="29.2984375" xlink:href="#m8d40f9f011" y="376.9232563"/>
      </g>
     </g>
     <g id="text_6">
      <!-- -0.1 -->
      <defs>
       <path d="
M31.7812 66.4062
Q24.1719 66.4062 20.3281 58.9062
Q16.5 51.4219 16.5 36.375
Q16.5 21.3906 20.3281 13.8906
Q24.1719 6.39062 31.7812 6.39062
Q39.4531 6.39062 43.2812 13.8906
Q47.125 21.3906 47.125 36.375
Q47.125 51.4219 43.2812 58.9062
Q39.4531 66.4062 31.7812 66.4062
M31.7812 74.2188
Q44.0469 74.2188 50.5156 64.5156
Q56.9844 54.8281 56.9844 36.375
Q56.9844 17.9688 50.5156 8.26562
Q44.0469 -1.42188 31.7812 -1.42188
Q19.5312 -1.42188 13.0625 8.26562
Q6.59375 17.9688 6.59375 36.375
Q6.59375 54.8281 13.0625 64.5156
Q19.5312 74.2188 31.7812 74.2188" id="BitstreamVeraSans-Roman-30"/>
       <path d="
M10.6875 12.4062
L21 12.4062
L21 0
L10.6875 0
z
" id="BitstreamVeraSans-Roman-2e"/>
       <path d="
M4.89062 31.3906
L31.2031 31.3906
L31.2031 23.3906
L4.89062 23.3906
z
" id="BitstreamVeraSans-Roman-2d"/>
      </defs>
      <g transform="translate(7.2 380.56310005)scale(0.1 -0.1)">
       <use xlink:href="#BitstreamVeraSans-Roman-2d"/>
       <use x="36.083984375" xlink:href="#BitstreamVeraSans-Roman-30"/>
       <use x="99.70703125" xlink:href="#BitstreamVeraSans-Roman-2e"/>
       <use x="131.494140625" xlink:href="#BitstreamVeraSans-Roman-31"/>
      </g>
     </g>
    </g>
    <g id="ytick_2">
     <g id="line2d_24">
      <defs>
       <path d="
M0 0
L4 0" id="m8d40f9f011"/>
      </defs>
      <g>
       <use style="stroke:#000000;stroke-linecap:butt;stroke-width:0.5;" x="29.2984375" xlink:href="#m8d40f9f011" y="329.813472215"/>
      </g>
     </g>
    </g>
    <g id="ytick_3">
     <g id="line2d_25">
      <defs>
       <path d="
M0 0
L4 0" id="m8d40f9f011"/>
      </defs>
      <g>
       <use style="stroke:#000000;stroke-linecap:butt;stroke-width:0.5;" x="29.2984375" xlink:href="#m8d40f9f011" y="282.703688131"/>
      </g>
     </g>
     <g id="text_7">
      <!-- 0.1 -->
      <g transform="translate(10.978125 286.343531881)scale(0.1 -0.1)">
       <use xlink:href="#BitstreamVeraSans-Roman-30"/>
       <use x="63.623046875" xlink:href="#BitstreamVeraSans-Roman-2e"/>
       <use x="95.41015625" xlink:href="#BitstreamVeraSans-Roman-31"/>
      </g>
     </g>
    </g>
    <g id="ytick_4">
     <g id="line2d_26">
      <defs>
       <path d="
M0 0
L4 0" id="m8d40f9f011"/>
      </defs>
      <g>
       <use style="stroke:#000000;stroke-linecap:butt;stroke-width:0.5;" x="29.2984375" xlink:href="#m8d40f9f011" y="235.593904046"/>
      </g>
     </g>
     <g id="text_8">
      <!-- 0.2 -->
      <g transform="translate(11.05625 239.233747796)scale(0.1 -0.1)">
       <use xlink:href="#BitstreamVeraSans-Roman-30"/>
       <use x="63.623046875" xlink:href="#BitstreamVeraSans-Roman-2e"/>
       <use x="95.41015625" xlink:href="#BitstreamVeraSans-Roman-32"/>
      </g>
     </g>
    </g>
    <g id="ytick_5">
     <g id="line2d_27">
      <defs>
       <path d="
M0 0
L4 0" id="m8d40f9f011"/>
      </defs>
      <g>
       <use style="stroke:#000000;stroke-linecap:butt;stroke-width:0.5;" x="29.2984375" xlink:href="#m8d40f9f011" y="188.484119962"/>
      </g>
     </g>
     <g id="text_9">
      <!-- 0.3 -->
      <defs>
       <path d="
M40.5781 39.3125
Q47.6562 37.7969 51.625 33
Q55.6094 28.2188 55.6094 21.1875
Q55.6094 10.4062 48.1875 4.48438
Q40.7656 -1.42188 27.0938 -1.42188
Q22.5156 -1.42188 17.6562 -0.515625
Q12.7969 0.390625 7.625 2.20312
L7.625 11.7188
Q11.7188 9.32812 16.5938 8.10938
Q21.4844 6.89062 26.8125 6.89062
Q36.0781 6.89062 40.9375 10.5469
Q45.7969 14.2031 45.7969 21.1875
Q45.7969 27.6406 41.2812 31.2656
Q36.7656 34.9062 28.7188 34.9062
L20.2188 34.9062
L20.2188 43.0156
L29.1094 43.0156
Q36.375 43.0156 40.2344 45.9219
Q44.0938 48.8281 44.0938 54.2969
Q44.0938 59.9062 40.1094 62.9062
Q36.1406 65.9219 28.7188 65.9219
Q24.6562 65.9219 20.0156 65.0312
Q15.375 64.1562 9.8125 62.3125
L9.8125 71.0938
Q15.4375 72.6562 20.3438 73.4375
Q25.25 74.2188 29.5938 74.2188
Q40.8281 74.2188 47.3594 69.1094
Q53.9062 64.0156 53.9062 55.3281
Q53.9062 49.2656 50.4375 45.0938
Q46.9688 40.9219 40.5781 39.3125" id="BitstreamVeraSans-Roman-33"/>
      </defs>
      <g transform="translate(10.85625 192.123963712)scale(0.1 -0.1)">
       <use xlink:href="#BitstreamVeraSans-Roman-30"/>
       <use x="63.623046875" xlink:href="#BitstreamVeraSans-Roman-2e"/>
       <use x="95.41015625" xlink:href="#BitstreamVeraSans-Roman-33"/>
      </g>
     </g>
    </g>
    <g id="ytick_6">
     <g id="line2d_28">
      <defs>
       <path d="
M0 0
L4 0" id="m8d40f9f011"/>
      </defs>
      <g>
       <use style="stroke:#000000;stroke-linecap:butt;stroke-width:0.5;" x="29.2984375" xlink:href="#m8d40f9f011" y="141.374335878"/>
      </g>
     </g>
     <g id="text_10">
      <!-- 0.4 -->
      <g transform="translate(10.615625 145.014179628)scale(0.1 -0.1)">
       <use xlink:href="#BitstreamVeraSans-Roman-30"/>
       <use x="63.623046875" xlink:href="#BitstreamVeraSans-Roman-2e"/>
       <use x="95.41015625" xlink:href="#BitstreamVeraSans-Roman-34"/>
      </g>
     </g>
    </g>
    <g id="ytick_7">
     <g id="line2d_29">
      <defs>
       <path d="
M0 0
L4 0" id="m8d40f9f011"/>
      </defs>
      <g>
       <use style="stroke:#000000;stroke-linecap:butt;stroke-width:0.5;" x="29.2984375" xlink:href="#m8d40f9f011" y="94.2645517932"/>
      </g>
     </g>
     <g id="text_11">
      <!-- 0.5 -->
      <defs>
       <path d="
M10.7969 72.9062
L49.5156 72.9062
L49.5156 64.5938
L19.8281 64.5938
L19.8281 46.7344
Q21.9688 47.4688 24.1094 47.8281
Q26.2656 48.1875 28.4219 48.1875
Q40.625 48.1875 47.75 41.5
Q54.8906 34.8125 54.8906 23.3906
Q54.8906 11.625 47.5625 5.09375
Q40.2344 -1.42188 26.9062 -1.42188
Q22.3125 -1.42188 17.5469 -0.640625
Q12.7969 0.140625 7.71875 1.70312
L7.71875 11.625
Q12.1094 9.23438 16.7969 8.0625
Q21.4844 6.89062 26.7031 6.89062
Q35.1562 6.89062 40.0781 11.3281
Q45.0156 15.7656 45.0156 23.3906
Q45.0156 31 40.0781 35.4375
Q35.1562 39.8906 26.7031 39.8906
Q22.75 39.8906 18.8125 39.0156
Q14.8906 38.1406 10.7969 36.2812
z
" id="BitstreamVeraSans-Roman-35"/>
      </defs>
      <g transform="translate(10.928125 97.9043955432)scale(0.1 -0.1)">
       <use xlink:href="#BitstreamVeraSans-Roman-30"/>
       <use x="63.623046875" xlink:href="#BitstreamVeraSans-Roman-2e"/>
       <use x="95.41015625" xlink:href="#BitstreamVeraSans-Roman-35"/>
      </g>
     </g>
    </g>
    <g id="ytick_8">
     <g id="line2d_30">
      <defs>
       <path d="
M0 0
L4 0" id="m8d40f9f011"/>
      </defs>
      <g>
       <use style="stroke:#000000;stroke-linecap:butt;stroke-width:0.5;" x="29.2984375" xlink:href="#m8d40f9f011" y="47.1547677088"/>
      </g>
     </g>
     <g id="text_12">
      <!-- 0.6 -->
      <g transform="translate(10.684375 50.7946114588)scale(0.1 -0.1)">
       <use xlink:href="#BitstreamVeraSans-Roman-30"/>
       <use x="63.623046875" xlink:href="#BitstreamVeraSans-Roman-2e"/>
       <use x="95.41015625" xlink:href="#BitstreamVeraSans-Roman-36"/>
      </g>
     </g>
    </g>
    <g id="ytick_9">
     <g id="line2d_31">
      <defs>
       <path d="
M0 0
L2 0" id="m14a717291b"/>
      </defs>
      <g>
       <use style="stroke:#000000;stroke-linecap:butt;stroke-width:0.5;" x="29.2984375" xlink:href="#m14a717291b" y="405.18912675"/>
      </g>
     </g>
    </g>
    <g id="ytick_10">
     <g id="line2d_32">
      <defs>
       <path d="
M0 0
L2 0" id="m14a717291b"/>
      </defs>
      <g>
       <use style="stroke:#000000;stroke-linecap:butt;stroke-width:0.5;" x="29.2984375" xlink:href="#m14a717291b" y="395.767169933"/>
      </g>
     </g>
    </g>
    <g id="ytick_11">
     <g id="line2d_33">
      <defs>
       <path d="
M0 0
L2 0" id="m14a717291b"/>
      </defs>
      <g>
       <use style="stroke:#000000;stroke-linecap:butt;stroke-width:0.5;" x="29.2984375" xlink:href="#m14a717291b" y="386.345213116"/>
      </g>
     </g>
    </g>
    <g id="ytick_12">
     <g id="line2d_34">
      <defs>
       <path d="
M0 0
L2 0" id="m14a717291b"/>
      </defs>
      <g>
       <use style="stroke:#000000;stroke-linecap:butt;stroke-width:0.5;" x="29.2984375" xlink:href="#m14a717291b" y="376.9232563"/>
      </g>
     </g>
    </g>
    <g id="ytick_13">
     <g id="line2d_35">
      <defs>
       <path d="
M0 0
L2 0" id="m14a717291b"/>
      </defs>
      <g>
       <use style="stroke:#000000;stroke-linecap:butt;stroke-width:0.5;" x="29.2984375" xlink:href="#m14a717291b" y="367.501299483"/>
      </g>
     </g>
    </g>
    <g id="ytick_14">
     <g id="line2d_36">
      <defs>
       <path d="
M0 0
L2 0" id="m14a717291b"/>
      </defs>
      <g>
       <use style="stroke:#000000;stroke-linecap:butt;stroke-width:0.5;" x="29.2984375" xlink:href="#m14a717291b" y="358.079342666"/>
      </g>
     </g>
    </g>
    <g id="ytick_15">
     <g id="line2d_37">
      <defs>
       <path d="
M0 0
L2 0" id="m14a717291b"/>
      </defs>
      <g>
       <use style="stroke:#000000;stroke-linecap:butt;stroke-width:0.5;" x="29.2984375" xlink:href="#m14a717291b" y="348.657385849"/>
      </g>
     </g>
    </g>
    <g id="ytick_16">
     <g id="line2d_38">
      <defs>
       <path d="
M0 0
L2 0" id="m14a717291b"/>
      </defs>
      <g>
       <use style="stroke:#000000;stroke-linecap:butt;stroke-width:0.5;" x="29.2984375" xlink:href="#m14a717291b" y="339.235429032"/>
      </g>
     </g>
    </g>
    <g id="ytick_17">
     <g id="line2d_39">
      <defs>
       <path d="
M0 0
L2 0" id="m14a717291b"/>
      </defs>
      <g>
       <use style="stroke:#000000;stroke-linecap:butt;stroke-width:0.5;" x="29.2984375" xlink:href="#m14a717291b" y="329.813472215"/>
      </g>
     </g>
    </g>
    <g id="ytick_18">
     <g id="line2d_40">
      <defs>
       <path d="
M0 0
L2 0" id="m14a717291b"/>
      </defs>
      <g>
       <use style="stroke:#000000;stroke-linecap:butt;stroke-width:0.5;" x="29.2984375" xlink:href="#m14a717291b" y="320.391515398"/>
      </g>
     </g>
    </g>
    <g id="ytick_19">
     <g id="line2d_41">
      <defs>
       <path d="
M0 0
L2 0" id="m14a717291b"/>
      </defs>
      <g>
       <use style="stroke:#000000;stroke-linecap:butt;stroke-width:0.5;" x="29.2984375" xlink:href="#m14a717291b" y="310.969558581"/>
      </g>
     </g>
    </g>
    <g id="ytick_20">
     <g id="line2d_42">
      <defs>
       <path d="
M0 0
L2 0" id="m14a717291b"/>
      </defs>
      <g>
       <use style="stroke:#000000;stroke-linecap:butt;stroke-width:0.5;" x="29.2984375" xlink:href="#m14a717291b" y="301.547601765"/>
      </g>
     </g>
    </g>
    <g id="ytick_21">
     <g id="line2d_43">
      <defs>
       <path d="
M0 0
L2 0" id="m14a717291b"/>
      </defs>
      <g>
       <use style="stroke:#000000;stroke-linecap:butt;stroke-width:0.5;" x="29.2984375" xlink:href="#m14a717291b" y="292.125644948"/>
      </g>
     </g>
    </g>
    <g id="ytick_22">
     <g id="line2d_44">
      <defs>
       <path d="
M0 0
L2 0" id="m14a717291b"/>
      </defs>
      <g>
       <use style="stroke:#000000;stroke-linecap:butt;stroke-width:0.5;" x="29.2984375" xlink:href="#m14a717291b" y="282.703688131"/>
      </g>
     </g>
    </g>
    <g id="ytick_23">
     <g id="line2d_45">
      <defs>
       <path d="
M0 0
L2 0" id="m14a717291b"/>
      </defs>
      <g>
       <use style="stroke:#000000;stroke-linecap:butt;stroke-width:0.5;" x="29.2984375" xlink:href="#m14a717291b" y="273.281731314"/>
      </g>
     </g>
    </g>
    <g id="ytick_24">
     <g id="line2d_46">
      <defs>
       <path d="
M0 0
L2 0" id="m14a717291b"/>
      </defs>
      <g>
       <use style="stroke:#000000;stroke-linecap:butt;stroke-width:0.5;" x="29.2984375" xlink:href="#m14a717291b" y="263.859774497"/>
      </g>
     </g>
    </g>
    <g id="ytick_25">
     <g id="line2d_47">
      <defs>
       <path d="
M0 0
L2 0" id="m14a717291b"/>
      </defs>
      <g>
       <use style="stroke:#000000;stroke-linecap:butt;stroke-width:0.5;" x="29.2984375" xlink:href="#m14a717291b" y="254.43781768"/>
      </g>
     </g>
    </g>
    <g id="ytick_26">
     <g id="line2d_48">
      <defs>
       <path d="
M0 0
L2 0" id="m14a717291b"/>
      </defs>
      <g>
       <use style="stroke:#000000;stroke-linecap:butt;stroke-width:0.5;" x="29.2984375" xlink:href="#m14a717291b" y="245.015860863"/>
      </g>
     </g>
    </g>
    <g id="ytick_27">
     <g id="line2d_49">
      <defs>
       <path d="
M0 0
L2 0" id="m14a717291b"/>
      </defs>
      <g>
       <use style="stroke:#000000;stroke-linecap:butt;stroke-width:0.5;" x="29.2984375" xlink:href="#m14a717291b" y="235.593904046"/>
      </g>
     </g>
    </g>
    <g id="ytick_28">
     <g id="line2d_50">
      <defs>
       <path d="
M0 0
L2 0" id="m14a717291b"/>
      </defs>
      <g>
       <use style="stroke:#000000;stroke-linecap:butt;stroke-width:0.5;" x="29.2984375" xlink:href="#m14a717291b" y="226.17194723"/>
      </g>
     </g>
    </g>
    <g id="ytick_29">
     <g id="line2d_51">
      <defs>
       <path d="
M0 0
L2 0" id="m14a717291b"/>
      </defs>
      <g>
       <use style="stroke:#000000;stroke-linecap:butt;stroke-width:0.5;" x="29.2984375" xlink:href="#m14a717291b" y="216.749990413"/>
      </g>
     </g>
    </g>
    <g id="ytick_30">
     <g id="line2d_52">
      <defs>
       <path d="
M0 0
L2 0" id="m14a717291b"/>
      </defs>
      <g>
       <use style="stroke:#000000;stroke-linecap:butt;stroke-width:0.5;" x="29.2984375" xlink:href="#m14a717291b" y="207.328033596"/>
      </g>
     </g>
    </g>
    <g id="ytick_31">
     <g id="line2d_53">
      <defs>
       <path d="
M0 0
L2 0" id="m14a717291b"/>
      </defs>
      <g>
       <use style="stroke:#000000;stroke-linecap:butt;stroke-width:0.5;" x="29.2984375" xlink:href="#m14a717291b" y="197.906076779"/>
      </g>
     </g>
    </g>
    <g id="ytick_32">
     <g id="line2d_54">
      <defs>
       <path d="
M0 0
L2 0" id="m14a717291b"/>
      </defs>
      <g>
       <use style="stroke:#000000;stroke-linecap:butt;stroke-width:0.5;" x="29.2984375" xlink:href="#m14a717291b" y="188.484119962"/>
      </g>
     </g>
    </g>
    <g id="ytick_33">
     <g id="line2d_55">
      <defs>
       <path d="
M0 0
L2 0" id="m14a717291b"/>
      </defs>
      <g>
       <use style="stroke:#000000;stroke-linecap:butt;stroke-width:0.5;" x="29.2984375" xlink:href="#m14a717291b" y="179.062163145"/>
      </g>
     </g>
    </g>
    <g id="ytick_34">
     <g id="line2d_56">
      <defs>
       <path d="
M0 0
L2 0" id="m14a717291b"/>
      </defs>
      <g>
       <use style="stroke:#000000;stroke-linecap:butt;stroke-width:0.5;" x="29.2984375" xlink:href="#m14a717291b" y="169.640206328"/>
      </g>
     </g>
    </g>
    <g id="ytick_35">
     <g id="line2d_57">
      <defs>
       <path d="
M0 0
L2 0" id="m14a717291b"/>
      </defs>
      <g>
       <use style="stroke:#000000;stroke-linecap:butt;stroke-width:0.5;" x="29.2984375" xlink:href="#m14a717291b" y="160.218249511"/>
      </g>
     </g>
    </g>
    <g id="ytick_36">
     <g id="line2d_58">
      <defs>
       <path d="
M0 0
L2 0" id="m14a717291b"/>
      </defs>
      <g>
       <use style="stroke:#000000;stroke-linecap:butt;stroke-width:0.5;" x="29.2984375" xlink:href="#m14a717291b" y="150.796292695"/>
      </g>
     </g>
    </g>
    <g id="ytick_37">
     <g id="line2d_59">
      <defs>
       <path d="
M0 0
L2 0" id="m14a717291b"/>
      </defs>
      <g>
       <use style="stroke:#000000;stroke-linecap:butt;stroke-width:0.5;" x="29.2984375" xlink:href="#m14a717291b" y="141.374335878"/>
      </g>
     </g>
    </g>
    <g id="ytick_38">
     <g id="line2d_60">
      <defs>
       <path d="
M0 0
L2 0" id="m14a717291b"/>
      </defs>
      <g>
       <use style="stroke:#000000;stroke-linecap:butt;stroke-width:0.5;" x="29.2984375" xlink:href="#m14a717291b" y="131.952379061"/>
      </g>
     </g>
    </g>
    <g id="ytick_39">
     <g id="line2d_61">
      <defs>
       <path d="
M0 0
L2 0" id="m14a717291b"/>
      </defs>
      <g>
       <use style="stroke:#000000;stroke-linecap:butt;stroke-width:0.5;" x="29.2984375" xlink:href="#m14a717291b" y="122.530422244"/>
      </g>
     </g>
    </g>
    <g id="ytick_40">
     <g id="line2d_62">
      <defs>
       <path d="
M0 0
L2 0" id="m14a717291b"/>
      </defs>
      <g>
       <use style="stroke:#000000;stroke-linecap:butt;stroke-width:0.5;" x="29.2984375" xlink:href="#m14a717291b" y="113.108465427"/>
      </g>
     </g>
    </g>
    <g id="ytick_41">
     <g id="line2d_63">
      <defs>
       <path d="
M0 0
L2 0" id="m14a717291b"/>
      </defs>
      <g>
       <use style="stroke:#000000;stroke-linecap:butt;stroke-width:0.5;" x="29.2984375" xlink:href="#m14a717291b" y="103.68650861"/>
      </g>
     </g>
    </g>
    <g id="ytick_42">
     <g id="line2d_64">
      <defs>
       <path d="
M0 0
L2 0" id="m14a717291b"/>
      </defs>
      <g>
       <use style="stroke:#000000;stroke-linecap:butt;stroke-width:0.5;" x="29.2984375" xlink:href="#m14a717291b" y="94.2645517932"/>
      </g>
     </g>
    </g>
    <g id="ytick_43">
     <g id="line2d_65">
      <defs>
       <path d="
M0 0
L2 0" id="m14a717291b"/>
      </defs>
      <g>
       <use style="stroke:#000000;stroke-linecap:butt;stroke-width:0.5;" x="29.2984375" xlink:href="#m14a717291b" y="84.8425949764"/>
      </g>
     </g>
    </g>
    <g id="ytick_44">
     <g id="line2d_66">
      <defs>
       <path d="
M0 0
L2 0" id="m14a717291b"/>
      </defs>
      <g>
       <use style="stroke:#000000;stroke-linecap:butt;stroke-width:0.5;" x="29.2984375" xlink:href="#m14a717291b" y="75.4206381595"/>
      </g>
     </g>
    </g>
    <g id="ytick_45">
     <g id="line2d_67">
      <defs>
       <path d="
M0 0
L2 0" id="m14a717291b"/>
      </defs>
      <g>
       <use style="stroke:#000000;stroke-linecap:butt;stroke-width:0.5;" x="29.2984375" xlink:href="#m14a717291b" y="65.9986813426"/>
      </g>
     </g>
    </g>
    <g id="ytick_46">
     <g id="line2d_68">
      <defs>
       <path d="
M0 0
L2 0" id="m14a717291b"/>
      </defs>
      <g>
       <use style="stroke:#000000;stroke-linecap:butt;stroke-width:0.5;" x="29.2984375" xlink:href="#m14a717291b" y="56.5767245257"/>
      </g>
     </g>
    </g>
    <g id="ytick_47">
     <g id="line2d_69">
      <defs>
       <path d="
M0 0
L2 0" id="m14a717291b"/>
      </defs>
      <g>
       <use style="stroke:#000000;stroke-linecap:butt;stroke-width:0.5;" x="29.2984375" xlink:href="#m14a717291b" y="47.1547677088"/>
      </g>
     </g>
    </g>
    <g id="ytick_48">
     <g id="line2d_70">
      <defs>
       <path d="
M0 0
L2 0" id="m14a717291b"/>
      </defs>
      <g>
       <use style="stroke:#000000;stroke-linecap:butt;stroke-width:0.5;" x="29.2984375" xlink:href="#m14a717291b" y="37.732810892"/>
      </g>
     </g>
    </g>
    <g id="ytick_49">
     <g id="line2d_71">
      <defs>
       <path d="
M0 0
L2 0" id="m14a717291b"/>
      </defs>
      <g>
       <use style="stroke:#000000;stroke-linecap:butt;stroke-width:0.5;" x="29.2984375" xlink:href="#m14a717291b" y="28.3108540751"/>
      </g>
     </g>
    </g>
    <g id="ytick_50">
     <g id="line2d_72">
      <defs>
       <path d="
M0 0
L2 0" id="m14a717291b"/>
      </defs>
      <g>
       <use style="stroke:#000000;stroke-linecap:butt;stroke-width:0.5;" x="29.2984375" xlink:href="#m14a717291b" y="18.8888972582"/>
      </g>
     </g>
    </g>
   </g>
   <g id="patch_3">
    <path d="
M18.9817 329.813
L555.453 329.813" style="fill:none;stroke:#000000;stroke-width:0.8;"/>
   </g>
   <g id="patch_4">
    <path d="
M29.2984 413.28
L29.2984 7.2" style="fill:none;stroke:#000000;stroke-width:0.8;"/>
   </g>
  </g>
 </g>
 <defs>
  <clipPath id="pb7017b9641">
   <rect height="406.08" width="536.470929948" x="18.9816991645" y="7.2"/>
  </clipPath>
 </defs>
</svg>
