<?xml version="1.0" encoding="utf-8" standalone="no"?>
<!DOCTYPE svg PUBLIC "-//W3C//DTD SVG 1.1//EN"
  "http://www.w3.org/Graphics/SVG/1.1/DTD/svg11.dtd">
<!-- Created with matplotlib (http://matplotlib.sourceforge.net/) -->
<svg height="420pt" version="1.1" viewBox="0 0 562 420" width="562pt" xmlns="http://www.w3.org/2000/svg" xmlns:xlink="http://www.w3.org/1999/xlink">
 <defs>
  <style type="text/css">
*{stroke-linecap:square;stroke-linejoin:round;}
  </style>
 </defs>
 <g id="figure_1">
  <g id="patch_1">
   <path d="
M4.44089e-16 420.48
L562.653 420.48
L562.653 0
L4.44089e-16 0
z
" style="fill:#ffffff;"/>
  </g>
  <g id="axes_1">
   <g id="patch_2">
    <path d="
M18.9817 413.28
L555.453 413.28
L555.453 7.2
L18.9817 7.2
z
" style="fill:#ffffff;"/>
   </g>
   <g id="line2d_1">
    <path clip-path="url(#pb7017b9641)" d="
M29.2984 301.409
L29.3465 301.409
L29.3465 405.471
L29.4037 342.745
L29.4647 342.745
L29.5268 300.542
L29.5915 300.542
L29.6582 274.895
L29.724 274.895
L29.7917 257.456
L29.861 257.456
L29.9303 245.409
L30.0005 245.409
L30.0708 240.208
L30.1422 240.208
L30.2146 227.45
L30.2862 227.45
L30.3588 214.53
L30.4317 214.53
L30.505 206.619
L30.5785 206.619
L30.6534 203.496
L30.7266 203.496
L30.8019 201.678
L30.8776 201.678
L30.9516 198.673
L31.0268 198.673
L31.1027 193.345
L31.179 193.345
L31.2561 190.834
L31.3316 190.834
L31.4103 189.302
L31.4865 189.302
L31.563 187.06
L31.6409 187.06
L31.7192 181.899
L31.7955 181.899
L31.8734 177.912
L31.9519 177.912
L32.0291 175.027
L32.1087 175.027
L32.1878 170.537
L32.2667 170.537
L32.3442 166.91
L32.4236 166.91
L32.502 163.144
L32.5825 163.144
L32.6637 160.348
L32.7428 160.348
L32.8231 158.306
L32.902 158.306
L32.9814 156.094
L33.062 156.094
L33.1437 155.573
L33.2242 155.573
L33.3043 155.856
L33.3844 155.856
L33.4647 156.214
L33.5453 156.214
L33.6263 155.497
L33.7087 155.497
L33.788 154.42
L33.8697 154.42
L33.9518 152.816
L34.0332 152.816
L34.1148 150.835
L34.1975 150.835
L34.2792 149.158
L34.3624 149.158
L34.4452 148.254
L34.5258 148.254
L34.6077 147.33
L34.6904 147.33
L34.775 146.79
L34.8578 146.79
L34.9398 146.309
L35.0209 146.309
L35.1042 145.631
L35.1864 145.631
L35.2701 144.222
L35.3519 144.222
L35.4327 143.176
L35.5175 143.176
L35.6005 141.913
L35.6863 141.913
L35.7696 139.907
L35.8513 139.907
L35.9352 138.506
L36.0195 138.506
L36.1031 137.429
L36.188 137.429
L36.2721 136.574
L36.3561 136.574
L36.4398 135.689
L36.5213 135.689
L36.6087 134.341
L36.6921 134.341
L36.7762 132.956
L36.8589 132.956
L36.9439 131.741
L37.0278 131.741
L37.1107 130.835
L37.283 130.727
L37.3675 130.473
L37.4527 130.473
L37.5394 130.152
L37.6243 130.152
L37.7081 129.923
L37.879 129.931
L37.9625 129.417
L38.0492 129.417
L38.134 128.487
L38.2202 128.487
L38.307 127.538
L38.3931 127.538
L38.4778 126.743
L38.5628 126.743
L38.6479 126.268
L38.7328 126.268
L38.8195 125.788
L38.904 125.788
L38.989 124.786
L39.0746 124.786
L39.1612 124.004
L39.2457 124.004
L39.3317 123.291
L39.418 123.291
L39.5074 122.449
L39.5927 122.449
L39.6772 121.231
L39.7626 121.231
L39.8489 120.114
L39.9361 120.114
L40.0232 118.834
L40.1098 118.834
L40.1963 117.797
L40.2826 117.797
L40.368 116.922
L40.4541 116.922
L40.5412 116.062
L40.6287 116.062
L40.7158 115.271
L40.8035 115.271
L40.8911 114.689
L40.9771 114.689
L41.0623 114.167
L41.1516 114.167
L41.2387 113.53
L41.3277 113.53
L41.4152 113.012
L41.5015 113.012
L41.5893 112.439
L41.676 112.439
L41.7641 111.985
L41.8523 111.985
L41.94 111.56
L42.0264 111.56
L42.1158 111.009
L42.2028 111.009
L42.2905 110.595
L42.3762 110.595
L42.466 110.181
L42.5532 110.181
L42.6386 109.845
L42.7269 109.845
L42.8153 109.335
L42.9031 109.335
L42.9902 108.79
L43.0789 108.79
L43.1669 108.3
L43.2532 108.3
L43.3407 107.982
L43.607 107.896
L43.6972 107.719
L43.7843 107.719
L43.8686 107.389
L43.9565 107.389
L44.0452 106.991
L44.135 106.991
L44.2241 106.627
L44.3123 106.627
L44.4015 106.209
L44.4905 106.209
L44.5801 105.781
L44.6687 105.781
L44.7567 105.509
L45.0239 105.418
L45.1149 105.31
L45.2901 105.285
L45.3783 104.999
L45.4665 104.999
L45.5567 104.75
L45.645 104.75
L45.7334 104.501
L45.9081 104.435
L45.9956 104.32
L46.8903 104.223
L46.9789 104.073
L47.2495 103.989
L47.3408 103.875
L47.5228 103.806
L47.5228 103.738
L47.6144 103.738
L47.9697 103.653
L48.0581 103.509
L48.2407 103.408
L48.3287 103.227
L48.5075 103.167
L48.5959 102.9
L48.6853 102.9
L48.7785 102.655
L48.9582 102.583
L49.047 102.421
L49.2274 102.333
L49.3186 102.094
L49.407 102.094
L49.4982 101.825
L49.5871 101.825
L49.6761 101.565
L49.7697 101.565
L49.8606 101.308
L50.0427 101.229
L50.1308 101.028
L50.3109 100.968
L50.4007 100.845
L50.5833 100.81
L50.6752 100.583
L50.7651 100.583
L50.8555 100.322
L50.9446 100.322
L51.0347 100.052
L51.1264 100.052
L51.2185 99.7134
L51.308 99.7134
L51.4004 99.4525
L51.4924 99.4525
L51.5822 99.115
L51.6738 99.115
L51.7663 98.5971
L51.8573 98.5971
L51.9482 98.097
L52.0411 98.097
L52.1292 97.5555
L52.2177 97.5555
L52.3078 97.0086
L52.3983 97.0086
L52.4882 96.6139
L52.5808 96.6139
L52.6728 96.3744
L52.7653 96.3744
L52.855 96.1491
L52.946 96.1491
L53.0382 95.9357
L53.2198 95.8443
L53.3122 95.6781
L53.4036 95.6781
L53.4926 95.4354
L53.5848 95.4354
L53.6757 95.1239
L53.7659 95.1239
L53.8589 94.7651
L53.951 94.7651
L54.0438 94.3527
L54.1347 94.3527
L54.2273 93.9246
L54.3173 93.9246
L54.4078 93.4512
L54.4998 93.4512
L54.5871 93.0059
L54.6806 93.0059
L54.7722 92.5905
L54.8626 92.5905
L54.9529 92.1403
L55.0425 92.1403
L55.1357 91.6648
L55.2279 91.6648
L55.3195 91.1555
L55.4125 91.1555
L55.504 90.5544
L55.5951 90.5544
L55.6884 90.055
L55.7795 90.055
L55.8718 89.6761
L55.9639 89.6761
L56.0569 89.3041
L56.148 89.3041
L56.2393 88.9483
L56.3317 88.9483
L56.4224 88.6224
L56.5134 88.6224
L56.6066 88.393
L56.7913 88.2888
L56.8812 88.0488
L56.9748 88.0488
L57.0656 87.7779
L57.1589 87.7779
L57.2515 87.5647
L57.435 87.479
L57.5275 87.2775
L57.7115 87.1838
L57.8067 86.9502
L57.8994 86.9502
L57.9922 86.7231
L58.1773 86.6451
L58.2702 86.4562
L58.456 86.3662
L58.5503 86.1671
L58.733 86.077
L58.8243 85.9392
L59.0107 85.8563
L59.1051 85.6291
L59.1991 85.6291
L59.2913 85.3877
L59.4763 85.2894
L59.5702 85.0811
L59.7524 84.983
L59.8426 84.767
L59.9346 84.767
L60.0282 84.4839
L60.1221 84.4839
L60.2153 84.1463
L60.3065 84.1463
L60.3974 83.8266
L60.4944 83.8266
L60.5869 83.5133
L60.6803 83.5133
L60.7723 83.2644
L60.8649 83.2644
L60.9591 83.0045
L61.0504 83.0045
L61.1428 82.6932
L61.2387 82.6932
L61.3302 82.3595
L61.4249 82.3595
L61.518 82.0196
L61.6098 82.0196
L61.7017 81.6859
L61.792 81.6859
L61.8852 81.4447
L62.072 81.359
L62.1659 81.1357
L62.2621 81.1357
L62.355 80.871
L62.4477 80.871
L62.5434 80.5409
L62.6351 80.5409
L62.7299 80.2065
L62.8232 80.2065
L62.9157 79.8417
L63.0088 79.8417
L63.1021 79.5567
L63.1947 79.5567
L63.286 79.3315
L63.3791 79.3315
L63.4728 79.0753
L63.5666 79.0753
L63.662 78.8201
L63.8491 78.7155
L63.9403 78.4656
L64.0332 78.4656
L64.1269 78.238
L64.2198 78.238
L64.3141 77.9815
L64.4083 77.9815
L64.5011 77.7145
L64.5952 77.7145
L64.6866 77.46
L64.7789 77.46
L64.8708 77.227
L65.0599 77.1434
L65.1516 76.9934
L65.3392 76.9224
L65.4321 76.7769
L65.6176 76.7146
L65.7096 76.5736
L65.8984 76.5084
L65.9905 76.3752
L66.2747 76.2693
L66.3703 76.1705
L66.6518 76.0768
L66.7457 75.9941
L66.9317 75.9404
L67.0275 75.783
L67.2165 75.7092
L67.309 75.5938
L68.0649 75.6501
L68.1597 75.7652
L68.7227 75.8745
L68.816 75.9125
L69.8541 75.8023
L69.9474 75.7847
L70.5135 75.6899
L70.6096 75.6302
L71.1803 75.5352
L71.2743 75.456
L71.6515 75.3484
L71.6515 75.3389
L71.7455 75.3389
L71.7455 75.3389
L71.8392 75.35
L72.3147 75.2473
L72.4075 75.1716
L72.6939 75.0986
L72.7895 75.0121
L73.0743 74.9037
L73.1694 74.7116
L73.3562 74.6312
L73.4503 74.5232
L73.7328 74.4197
L73.8292 74.3662
L74.1133 74.2986
L74.2074 74.2055
L75.2547 74.0959
L75.3466 74.0463
L75.9221 73.9443
L76.0183 73.9009
L76.3032 73.8229
L76.4011 73.7316
L76.6846 73.6466
L76.7805 73.5519
L77.0616 73.4642
L77.1583 73.3935
L77.5389 73.284
L77.6338 73.2017
L77.9231 73.1138
L78.0195 73.0255
L78.3077 72.9438
L78.4024 72.8488
L78.6891 72.7505
L78.7804 72.6668
L78.9728 72.6091
L79.0681 72.4665
L79.2585 72.3915
L79.3562 72.2604
L79.6421 72.1687
L79.7395 72.0947
L82.5256 72.2015
L82.5256 72.214
L82.6211 72.2078
L82.9099 72.1452
L83.0048 72.0679
L83.3863 71.9637
L83.4811 71.8894
L83.7692 71.8048
L83.866 71.7326
L84.1543 71.6594
L84.2492 71.5773
L84.5346 71.5004
L84.63 71.4094
L84.9218 71.3042
L85.0189 71.1959
L85.3066 71.0984
L85.4029 71.005
L85.6915 70.9155
L85.7857 70.8417
L86.2714 70.7479
L86.3658 70.7022
L86.6526 70.6293
L86.7532 70.5384
L87.0384 70.4499
L87.1349 70.3582
L87.4257 70.2579
L87.524 70.1367
L87.717 70.0688
L87.8149 69.9392
L88.0088 69.8715
L88.1051 69.7403
L88.2999 69.6673
L88.3951 69.49
L88.5885 69.4088
L88.6849 69.2376
L88.8753 69.1453
L88.9714 68.9574
L89.1651 68.863
L89.2572 68.7047
L89.4522 68.6191
L89.5512 68.4651
L89.7439 68.3926
L89.8406 68.2339
L90.036 68.1623
L90.1308 68.0184
L90.3228 67.9636
L90.424 67.8264
L90.6149 67.7572
L90.7119 67.6061
L90.9056 67.5373
L90.9993 67.4278
L91.2912 67.3488
L91.3897 67.2787
L91.7789 67.1818
L91.876 67.0985
L92.2648 66.9922
L92.3601 66.9332
L92.8417 66.8357
L92.9406 66.7976
L94.7859 66.69
L94.8828 66.6268
L95.1701 66.5581
L95.2672 66.4751
L95.5587 66.3904
L95.6548 66.2994
L95.95 66.1995
L96.049 66.1063
L96.3428 66.0223
L96.4396 65.9588
L96.7358 65.8574
L96.8335 65.7566
L97.1269 65.657
L97.226 65.5551
L97.4175 65.4975
L97.5146 65.3614
L97.7121 65.2999
L97.8074 65.1701
L98.0023 65.1016
L98.1006 64.973
L98.2947 64.912
L98.393 64.7929
L98.5897 64.7245
L98.6873 64.5687
L98.8842 64.4937
L98.9823 64.3424
L99.1802 64.2614
L99.2775 64.1038
L99.4721 64.0258
L99.5671 63.8733
L99.7623 63.8014
L99.8575 63.6859
L100.054 63.6303
L100.152 63.526
L100.443 63.4219
L100.541 63.3149
L100.834 63.2113
L100.93 63.1034
L101.221 63.0043
L101.321 62.941
L101.716 62.8434
L101.816 62.7759
L102.302 62.6688
L102.401 62.6143
L102.891 62.5113
L102.988 62.4618
L103.474 62.3554
L103.569 62.3022
L103.964 62.221
L104.062 62.1544
L104.455 62.0529
L104.552 61.9703
L104.848 61.8845
L104.948 61.7687
L105.144 61.7151
L105.239 61.5973
L105.531 61.502
L105.631 61.4272
L105.925 61.3421
L106.023 61.2403
L106.222 61.1839
L106.321 61.0664
L106.619 60.9577
L106.715 60.8526
L106.911 60.7928
L107.01 60.669
L107.206 60.6012
L107.305 60.4602
L107.503 60.3842
L107.599 60.2232
L107.799 60.1288
L107.897 59.9699
L108.091 59.8936
L108.189 59.7461
L108.386 59.6713
L108.483 59.5277
L108.683 59.4628
L108.784 59.3464
L108.982 59.2759
L109.081 59.1434
L109.276 59.0779
L109.372 58.9633
L109.567 58.8977
L109.665 58.778
L109.861 58.7224
L109.959 58.5932
L110.155 58.5223
L110.254 58.3783
L110.452 58.3115
L110.551 58.1694
L110.749 58.0949
L110.849 57.9456
L111.045 57.8854
L111.14 57.7687
L111.337 57.7133
L111.436 57.5916
L111.634 57.5287
L111.732 57.3944
L111.93 57.3331
L112.028 57.2012
L112.226 57.1318
L112.326 57.01
L112.523 56.9456
L112.622 56.8196
L112.822 56.7563
L112.919 56.6199
L113.114 56.5452
L113.213 56.3937
L113.41 56.3163
L113.51 56.1652
L113.711 56.0941
L113.81 55.9591
L114.008 55.8869
L114.103 55.7476
L114.302 55.676
L114.399 55.5383
L114.598 55.4702
L114.7 55.34
L114.896 55.2786
L114.993 55.1559
L115.191 55.0943
L115.29 54.9765
L115.488 54.916
L115.588 54.7889
L115.881 54.6808
L115.978 54.5793
L116.276 54.4846
L116.375 54.4023
L116.673 54.3064
L116.768 54.199
L117.061 54.0883
L117.159 53.981
L117.458 53.8739
L117.556 53.7681
L117.857 53.6727
L117.958 53.5832
L118.255 53.4914
L118.354 53.415
L118.648 53.3398
L118.745 53.2529
L119.044 53.1697
L119.138 53.0718
L119.438 52.9768
L119.533 52.8782
L119.829 52.7897
L119.929 52.7023
L120.225 52.6052
L120.323 52.5155
L120.624 52.4344
L120.724 52.3419
L121.024 52.2454
L121.121 52.1608
L121.424 52.0586
L121.52 51.9743
L121.82 51.8927
L121.915 51.8156
L122.412 51.7065
L122.512 51.6578
L122.91 51.5625
L123.013 51.499
L123.407 51.3995
L123.507 51.3469
L123.899 51.2586
L124.002 51.1942
L124.402 51.0949
L124.5 51.0304
L124.903 50.9222
L125.002 50.8519
L125.396 50.7475
L125.495 50.6815
L125.796 50.6027
L125.897 50.5269
L126.192 50.4508
L126.292 50.3735
L126.689 50.2694
L126.791 50.2026
L127.19 50.0971
L127.288 50.0248
L127.688 49.9277
L127.787 49.8588
L128.087 49.7763
L128.187 49.6969
L128.488 49.6143
L128.588 49.5425
L128.985 49.4443
L129.085 49.3782
L129.579 49.2683
L129.677 49.198
L130.081 49.0971
L130.184 49.0205
L130.485 48.938
L130.583 48.8563
L130.885 48.7736
L130.982 48.6879
L131.281 48.6005
L131.381 48.5238
L131.779 48.4182
L131.878 48.3526
L132.378 48.2485
L132.475 48.1947
L132.973 48.0862
L133.074 48.0301
L133.576 47.9414
L133.677 47.897
L134.279 47.7958
L134.377 47.7487
L134.984 47.6384
L135.082 47.6022
L135.682 47.4962
L135.781 47.4558
L136.277 47.3626
L136.377 47.3324
L139.087 47.4388
L139.187 47.4656
L139.891 47.571
L139.988 47.6063
L140.892 47.7161
L140.995 47.7509
L141.692 47.8549
L141.795 47.8762
L143.092 47.982
L143.195 47.9998
L144.512 48.1045
L144.614 48.1359
L145.721 48.2434
L145.82 48.2588
L159.659 48.1539
L159.76 48.1304
L160.472 48.0288
L160.573 47.9932
L161.28 47.8839
L161.381 47.8511
L161.988 47.7579
L162.092 47.7152
L162.594 47.6189
L162.695 47.5611
L163.204 47.4511
L163.305 47.406
L163.812 47.3067
L163.913 47.2569
L164.422 47.1673
L164.525 47.1159
L165.034 47.0251
L165.134 46.9853
L166.146 46.8744
L166.246 46.8444
L167.159 46.7389
L167.264 46.7007
L167.876 46.6004
L167.976 46.5556
L168.583 46.4536
L168.685 46.4119
L169.293 46.307
L169.393 46.263
L169.803 46.1738
L169.905 46.115
L170.316 46.0223
L170.417 45.9584
L170.822 45.8627
L170.924 45.7979
L171.435 45.6888
L171.536 45.6383
L172.043 45.5421
L172.148 45.4877
L172.55 45.3986
L172.654 45.332
L173.066 45.2272
L173.167 45.1664
L173.673 45.0646
L173.776 45.0127
L174.284 44.9038
L174.388 44.8473
L174.797 44.7519
L174.898 44.6839
L175.3 44.5884
L175.401 44.5281
L175.814 44.4198
L175.918 44.3531
L176.321 44.2574
L176.422 44.1982
L176.934 44.0892
L177.035 44.0447
L177.547 43.9364
L177.648 43.8805
L178.163 43.7751
L178.264 43.7199
L178.878 43.6096
L178.98 43.5628
L179.493 43.4565
L179.594 43.4012
L180.11 43.299
L180.213 43.2496
L180.616 43.1654
L180.717 43.1032
L181.13 43.0151
L181.233 42.956
L181.743 42.8555
L181.847 42.7994
L182.255 42.7181
L182.356 42.6587
L182.867 42.5498
L182.972 42.4903
L183.377 42.4061
L183.477 42.3522
L183.884 42.2671
L183.985 42.2088
L184.391 42.1244
L184.491 42.0686
L184.901 41.972
L185.004 41.9042
L185.411 41.7963
L185.513 41.7236
L185.919 41.6195
L186.024 41.5469
L186.437 41.4437
L186.54 41.3834
L186.95 41.2897
L187.05 41.2226
L187.453 41.1138
L187.554 41.0393
L187.966 40.9344
L188.07 40.8699
L188.479 40.7827
L188.579 40.7218
L188.99 40.6238
L189.095 40.5605
L189.511 40.4692
L189.612 40.4031
L190.022 40.3075
L190.128 40.2466
L190.54 40.1536
L190.643 40.0893
L191.049 39.9982
L191.153 39.9354
L191.67 39.8291
L191.774 39.7721
L192.286 39.6631
L192.39 39.6199
L193.005 39.5207
L193.109 39.481
L193.824 39.3754
L193.927 39.3437
L194.952 39.2422
L195.056 39.2168
L195.88 39.1138
L195.981 39.086
L196.803 38.9784
L196.904 38.9562
L198.034 38.8469
L198.136 38.8241
L199.269 38.7169
L199.369 38.6905
L200.401 38.5808
L200.503 38.5488
L201.221 38.4477
L201.323 38.4255
L202.354 38.3196
L202.456 38.2932
L203.997 38.1843
L204.101 38.1699
L205.869 38.064
L205.974 38.043
L206.908 37.9355
L207.013 37.9032
L208.149 37.7973
L208.252 37.781
L210.006 37.6746
L210.11 37.6632
L215.276 37.5582
L215.382 37.5428
L217.548 37.4325
L217.653 37.4211
L225.015 37.3118
L225.121 37.3005
L227.288 37.1972
L227.393 37.1781
L229.053 37.0733
L229.155 37.0599
L231.436 36.9558
L231.542 36.9375
L233.191 36.8292
L233.296 36.8151
L235.169 36.7084
L235.272 36.6952
L236.735 36.596
L236.84 36.569
L237.979 36.4634
L238.082 36.4409
L238.922 36.3403
L239.025 36.313
L240.16 36.2086
L240.268 36.1814
L241.209 36.0764
L241.311 36.0515
L242.667 35.9415
L242.774 35.9332
L244.447 35.8227
L244.553 35.8141
L250.291 35.7055
L250.394 35.6822
L251.451 35.5741
L251.552 35.5532
L252.494 35.4525
L252.599 35.4212
L253.43 35.3238
L253.537 35.29
L254.37 35.1846
L254.477 35.1493
L255.213 35.049
L255.32 35.0141
L256.05 34.9075
L256.151 34.8755
L256.781 34.7762
L256.888 34.733
L257.516 34.6289
L257.621 34.5853
L258.247 34.4822
L258.353 34.4409
L258.981 34.3463
L259.086 34.3096
L259.709 34.2149
L259.814 34.1801
L260.544 34.085
L260.651 34.0507
L261.384 33.9506
L261.489 33.92
L262.431 33.8094
L262.538 33.7852
L263.575 33.6764
L263.678 33.6565
L264.825 33.5473
L264.928 33.5213
L265.981 33.412
L266.081 33.3867
L267.025 33.2763
L267.132 33.2466
L268.082 33.1412
L268.188 33.1188
L269.758 33.0141
L269.862 32.9999
L271.959 32.8952
L272.067 32.8816
L274.273 32.7729
L274.377 32.7667
L276.801 32.6568
L276.907 32.6487
L278.385 32.5461
L278.49 32.5217
L279.437 32.4237
L279.54 32.3971
L280.49 32.2888
L280.596 32.2622
L281.544 32.1552
L281.65 32.1229
L282.703 32.0118
L282.81 31.9893
L283.859 31.8877
L283.963 31.8652
L284.798 31.7697
L284.905 31.7394
L285.851 31.6356
L285.954 31.6127
L287.324 31.5045
L287.429 31.4853
L289.222 31.3813
L289.329 31.3677
L290.696 31.2651
L290.801 31.2459
L292.28 31.1378
L292.383 31.1191
L293.337 31.0135
L293.442 30.9815
L294.285 30.8753
L294.386 30.8484
L295.334 30.7401
L295.442 30.7088
L296.186 30.6082
L296.288 30.5766
L297.128 30.477
L297.233 30.4462
L298.075 30.3405
L298.184 30.3106
L299.035 30.2108
L299.141 30.1824
L300.09 30.0735
L300.196 30.0508
L301.359 29.9499
L301.465 29.9272
L302.414 29.8235
L302.52 29.7921
L303.258 29.6897
L303.367 29.6521
L303.999 29.551
L304.102 29.5094
L304.739 29.405
L304.844 29.3626
L305.485 29.2553
L305.591 29.2085
L306.12 29.1148
L306.224 29.071
L306.862 28.9604
L306.968 28.9159
L307.603 28.81
L307.706 28.7678
L308.339 28.6662
L308.448 28.6251
L309.088 28.5155
L309.195 28.4713
L309.722 28.3828
L309.83 28.3376
L310.471 28.2308
L310.574 28.1901
L311.101 28.1013
L311.204 28.0555
L311.738 27.9668
L311.844 27.9222
L312.487 27.8259
L312.592 27.7866
L313.221 27.6875
L313.327 27.651
L314.068 27.5434
L314.173 27.5052
L314.917 27.3979
L315.021 27.3648
L315.768 27.2642
L315.875 27.2314
L316.612 27.1379
L316.716 27.1025
L317.455 27.0004
L317.562 26.9615
L318.2 26.8607
L318.306 26.8226
L319.042 26.7116
L319.144 26.6728
L319.782 26.5716
L319.892 26.5311
L320.535 26.4246
L320.641 26.3805
L321.17 26.2918
L321.275 26.2435
L321.798 26.1497
L321.902 26.1044
L322.536 25.9953
L322.645 25.9505
L323.175 25.8616
L323.285 25.8154
L323.812 25.722
L323.919 25.6749
L324.452 25.5754
L324.557 25.5241
L325.082 25.4216
L325.184 25.3716
L325.72 25.2647
L325.828 25.2104
L326.355 25.1074
L326.463 25.0543
L326.998 24.9474
L327.105 24.8953
L327.638 24.7924
L327.748 24.742
L328.277 24.6346
L328.382 24.5807
L328.913 24.4772
L329.02 24.4248
L329.552 24.3206
L329.66 24.2704
L330.192 24.1719
L330.298 24.1253
L330.829 24.0304
L330.936 23.9834
L331.464 23.8895
L331.568 23.8418
L332.102 23.7481
L332.207 23.7094
L332.837 23.614
L332.945 23.5725
L333.586 23.4723
L333.695 23.4305
L334.332 23.3278
L334.442 23.2907
L335.188 23.1815
L335.295 23.1454
L336.042 23.0457
L336.149 23.0141
L336.889 22.9077
L336.998 22.8719
L337.743 22.7659
L337.849 22.7299
L338.595 22.6311
L338.703 22.6006
L339.556 22.5006
L339.661 22.4704
L340.617 22.3595
L340.721 22.3344
L341.574 22.2369
L341.682 22.2052
L342.638 22.0999
L342.74 22.0814
L343.91 21.975
L344.014 21.9537
L345.301 21.8453
L345.406 21.827
L346.908 21.7176
L347.016 21.6996
L348.402 21.5979
L348.507 21.5788
L349.783 21.4687
L349.885 21.45
L351.276 21.3421
L351.383 21.3231
L353.308 21.215
L353.413 21.2045
L360.88 21.0961
L360.983 21.0891
L364.949 20.9806
L365.058 20.9687
L366.879 20.8594
L366.985 20.8526
L370.512 20.7422
L370.62 20.7338
L372.534 20.6268
L372.643 20.6134
L374.57 20.5051
L374.677 20.4957
L377.455 20.3847
L377.561 20.379
L380.775 20.2711
L380.884 20.2611
L383.031 20.155
L383.138 20.1427
L384.968 20.035
L385.076 20.0201
L386.691 19.9091
L386.797 19.8917
L387.968 19.7891
L388.074 19.7662
L389.247 19.6629
L389.355 19.6418
L390.759 19.5365
L390.868 19.5166
L392.153 19.4089
L392.26 19.3905
L393.764 19.2834
L393.871 19.2693
L395.918 19.1605
L396.023 19.1489
L398.273 19.0421
L398.382 19.0315
L402.138 18.9226
L402.244 18.9171
L405.473 18.8087
L405.58 18.7993
L417.542 18.6904
L417.649 18.6827
L420.981 18.5731
L420.981 18.5707
L428.113 18.4597
L428.224 18.452
L431.463 18.343
L431.572 18.3348
L434.711 18.2266
L434.821 18.2197
L437.306 18.1141
L437.412 18.1023
L439.363 17.9955
L439.468 17.9808
L441.201 17.8756
L441.309 17.8614
L443.369 17.7506
L443.474 17.7394
L445.96 17.6309
L446.069 17.6224
L448.108 17.5132
L448.215 17.5011
L458.621 17.391
L458.731 17.3888
L474.691 17.2799
L474.798 17.2727
L477.616 17.1624
L477.616 17.1576
L480.009 17.0475
L480.12 17.0383
L484.035 16.9309
L484.139 16.9224
L486.323 16.8181
L486.428 16.804
L488.708 16.6948
L488.816 16.6851
L491.648 16.5752
L491.648 16.5727
L495.029 16.4638
L495.135 16.4559
L498.294 16.3459
L498.397 16.3372
L500.9 16.2267
L500.9 16.2222
L503.735 16.1154
L503.735 16.1098
L508.424 16.0003
L508.53 15.9962
L514.429 15.8855
L514.536 15.8804
L516.94 15.7727
L517.048 15.7596
L519.327 15.6529
L519.435 15.6422
L521.62 15.5344
L521.731 15.5255
L524.899 15.4172
L525.008 15.4114
L529.163 15.3014
L529.271 15.2988
L535.167 15.1898
L535.277 15.1841
L541.089 15.0737
L541.199 15.0682
L545.136 15.01
L545.136 15.0092" style="fill:none;stroke:#ff0000;stroke-width:0.5;"/>
   </g>
   <g id="matplotlib.axis_1">
    <g id="xtick_1">
     <g id="line2d_2">
      <defs>
       <path d="
M0 0
L0 -4" id="m811b7b27e4"/>
      </defs>
      <g>
       <use style="stroke:#000000;stroke-linecap:butt;stroke-width:0.5;" x="29.2984375" xlink:href="#m811b7b27e4" y="301.409450253"/>
      </g>
     </g>
    </g>
    <g id="xtick_2">
     <g id="line2d_3">
      <defs>
       <path d="
M0 0
L0 -4" id="m811b7b27e4"/>
      </defs>
      <g>
       <use style="stroke:#000000;stroke-linecap:butt;stroke-width:0.5;" x="132.47178737" xlink:href="#m811b7b27e4" y="301.409450253"/>
      </g>
     </g>
     <g id="text_1">
      <!-- 2e7 -->
      <defs>
       <path d="
M19.1875 8.29688
L53.6094 8.29688
L53.6094 0
L7.32812 0
L7.32812 8.29688
Q12.9375 14.1094 22.625 23.8906
Q32.3281 33.6875 34.8125 36.5312
Q39.5469 41.8438 41.4219 45.5312
Q43.3125 49.2188 43.3125 52.7812
Q43.3125 58.5938 39.2344 62.25
Q35.1562 65.9219 28.6094 65.9219
Q23.9688 65.9219 18.8125 64.3125
Q13.6719 62.7031 7.8125 59.4219
L7.8125 69.3906
Q13.7656 71.7812 18.9375 73
Q24.125 74.2188 28.4219 74.2188
Q39.75 74.2188 46.4844 68.5469
Q53.2188 62.8906 53.2188 53.4219
Q53.2188 48.9219 51.5312 44.8906
Q49.8594 40.875 45.4062 35.4062
Q44.1875 33.9844 37.6406 27.2188
Q31.1094 20.4531 19.1875 8.29688" id="BitstreamVeraSans-Roman-32"/>
       <path d="
M56.2031 29.5938
L56.2031 25.2031
L14.8906 25.2031
Q15.4844 15.9219 20.4844 11.0625
Q25.4844 6.20312 34.4219 6.20312
Q39.5938 6.20312 44.4531 7.46875
Q49.3125 8.73438 54.1094 11.2812
L54.1094 2.78125
Q49.2656 0.734375 44.1875 -0.34375
Q39.1094 -1.42188 33.8906 -1.42188
Q20.7969 -1.42188 13.1562 6.1875
Q5.51562 13.8125 5.51562 26.8125
Q5.51562 40.2344 12.7656 48.1094
Q20.0156 56 32.3281 56
Q43.3594 56 49.7812 48.8906
Q56.2031 41.7969 56.2031 29.5938
M47.2188 32.2344
Q47.125 39.5938 43.0938 43.9844
Q39.0625 48.3906 32.4219 48.3906
Q24.9062 48.3906 20.3906 44.1406
Q15.875 39.8906 15.1875 32.1719
z
" id="BitstreamVeraSans-Roman-65"/>
       <path d="
M8.20312 72.9062
L55.0781 72.9062
L55.0781 68.7031
L28.6094 0
L18.3125 0
L43.2188 64.5938
L8.20312 64.5938
z
" id="BitstreamVeraSans-Roman-37"/>
      </defs>
      <g transform="translate(123.82647487 312.831325253)scale(0.1 -0.1)">
       <use xlink:href="#BitstreamVeraSans-Roman-32"/>
       <use x="63.623046875" xlink:href="#BitstreamVeraSans-Roman-65"/>
       <use x="125.146484375" xlink:href="#BitstreamVeraSans-Roman-37"/>
      </g>
     </g>
    </g>
    <g id="xtick_3">
     <g id="line2d_4">
      <defs>
       <path d="
M0 0
L0 -4" id="m811b7b27e4"/>
      </defs>
      <g>
       <use style="stroke:#000000;stroke-linecap:butt;stroke-width:0.5;" x="235.64513724" xlink:href="#m811b7b27e4" y="301.409450253"/>
      </g>
     </g>
     <g id="text_2">
      <!-- 4e7 -->
      <defs>
       <path d="
M37.7969 64.3125
L12.8906 25.3906
L37.7969 25.3906
z

M35.2031 72.9062
L47.6094 72.9062
L47.6094 25.3906
L58.0156 25.3906
L58.0156 17.1875
L47.6094 17.1875
L47.6094 0
L37.7969 0
L37.7969 17.1875
L4.89062 17.1875
L4.89062 26.7031
z
" id="BitstreamVeraSans-Roman-34"/>
      </defs>
      <g transform="translate(226.87794974 312.700075253)scale(0.1 -0.1)">
       <use xlink:href="#BitstreamVeraSans-Roman-34"/>
       <use x="63.623046875" xlink:href="#BitstreamVeraSans-Roman-65"/>
       <use x="125.146484375" xlink:href="#BitstreamVeraSans-Roman-37"/>
      </g>
     </g>
    </g>
    <g id="xtick_4">
     <g id="line2d_5">
      <defs>
       <path d="
M0 0
L0 -4" id="m811b7b27e4"/>
      </defs>
      <g>
       <use style="stroke:#000000;stroke-linecap:butt;stroke-width:0.5;" x="338.81848711" xlink:href="#m811b7b27e4" y="301.409450253"/>
      </g>
     </g>
     <g id="text_3">
      <!-- 6e7 -->
      <defs>
       <path d="
M33.0156 40.375
Q26.375 40.375 22.4844 35.8281
Q18.6094 31.2969 18.6094 23.3906
Q18.6094 15.5312 22.4844 10.9531
Q26.375 6.39062 33.0156 6.39062
Q39.6562 6.39062 43.5312 10.9531
Q47.4062 15.5312 47.4062 23.3906
Q47.4062 31.2969 43.5312 35.8281
Q39.6562 40.375 33.0156 40.375
M52.5938 71.2969
L52.5938 62.3125
Q48.875 64.0625 45.0938 64.9844
Q41.3125 65.9219 37.5938 65.9219
Q27.8281 65.9219 22.6719 59.3281
Q17.5312 52.7344 16.7969 39.4062
Q19.6719 43.6562 24.0156 45.9219
Q28.375 48.1875 33.5938 48.1875
Q44.5781 48.1875 50.9531 41.5156
Q57.3281 34.8594 57.3281 23.3906
Q57.3281 12.1562 50.6875 5.35938
Q44.0469 -1.42188 33.0156 -1.42188
Q20.3594 -1.42188 13.6719 8.26562
Q6.98438 17.9688 6.98438 36.375
Q6.98438 53.6562 15.1875 63.9375
Q23.3906 74.2188 37.2031 74.2188
Q40.9219 74.2188 44.7031 73.4844
Q48.4844 72.75 52.5938 71.2969" id="BitstreamVeraSans-Roman-36"/>
      </defs>
      <g transform="translate(330.15598711 312.831325253)scale(0.1 -0.1)">
       <use xlink:href="#BitstreamVeraSans-Roman-36"/>
       <use x="63.623046875" xlink:href="#BitstreamVeraSans-Roman-65"/>
       <use x="125.146484375" xlink:href="#BitstreamVeraSans-Roman-37"/>
      </g>
     </g>
    </g>
    <g id="xtick_5">
     <g id="line2d_6">
      <defs>
       <path d="
M0 0
L0 -4" id="m811b7b27e4"/>
      </defs>
      <g>
       <use style="stroke:#000000;stroke-linecap:butt;stroke-width:0.5;" x="441.99183698" xlink:href="#m811b7b27e4" y="301.409450253"/>
      </g>
     </g>
     <g id="text_4">
      <!-- 8e7 -->
      <defs>
       <path d="
M31.7812 34.625
Q24.75 34.625 20.7188 30.8594
Q16.7031 27.0938 16.7031 20.5156
Q16.7031 13.9219 20.7188 10.1562
Q24.75 6.39062 31.7812 6.39062
Q38.8125 6.39062 42.8594 10.1719
Q46.9219 13.9688 46.9219 20.5156
Q46.9219 27.0938 42.8906 30.8594
Q38.875 34.625 31.7812 34.625
M21.9219 38.8125
Q15.5781 40.375 12.0312 44.7188
Q8.5 49.0781 8.5 55.3281
Q8.5 64.0625 14.7188 69.1406
Q20.9531 74.2188 31.7812 74.2188
Q42.6719 74.2188 48.875 69.1406
Q55.0781 64.0625 55.0781 55.3281
Q55.0781 49.0781 51.5312 44.7188
Q48 40.375 41.7031 38.8125
Q48.8281 37.1562 52.7969 32.3125
Q56.7812 27.4844 56.7812 20.5156
Q56.7812 9.90625 50.3125 4.23438
Q43.8438 -1.42188 31.7812 -1.42188
Q19.7344 -1.42188 13.25 4.23438
Q6.78125 9.90625 6.78125 20.5156
Q6.78125 27.4844 10.7812 32.3125
Q14.7969 37.1562 21.9219 38.8125
M18.3125 54.3906
Q18.3125 48.7344 21.8438 45.5625
Q25.3906 42.3906 31.7812 42.3906
Q38.1406 42.3906 41.7188 45.5625
Q45.3125 48.7344 45.3125 54.3906
Q45.3125 60.0625 41.7188 63.2344
Q38.1406 66.4062 31.7812 66.4062
Q25.3906 66.4062 21.8438 63.2344
Q18.3125 60.0625 18.3125 54.3906" id="BitstreamVeraSans-Roman-38"/>
      </defs>
      <g transform="translate(433.31918073 312.831325253)scale(0.1 -0.1)">
       <use xlink:href="#BitstreamVeraSans-Roman-38"/>
       <use x="63.623046875" xlink:href="#BitstreamVeraSans-Roman-65"/>
       <use x="125.146484375" xlink:href="#BitstreamVeraSans-Roman-37"/>
      </g>
     </g>
    </g>
    <g id="xtick_6">
     <g id="line2d_7">
      <defs>
       <path d="
M0 0
L0 -4" id="m811b7b27e4"/>
      </defs>
      <g>
       <use style="stroke:#000000;stroke-linecap:butt;stroke-width:0.5;" x="545.16518685" xlink:href="#m811b7b27e4" y="301.409450253"/>
      </g>
     </g>
     <g id="text_5">
      <!-- 1e8 -->
      <defs>
       <path d="
M12.4062 8.29688
L28.5156 8.29688
L28.5156 63.9219
L10.9844 60.4062
L10.9844 69.3906
L28.4219 72.9062
L38.2812 72.9062
L38.2812 8.29688
L54.3906 8.29688
L54.3906 0
L12.4062 0
z
" id="BitstreamVeraSans-Roman-31"/>
      </defs>
      <g transform="translate(536.6175306 312.831325253)scale(0.1 -0.1)">
       <use xlink:href="#BitstreamVeraSans-Roman-31"/>
       <use x="63.623046875" xlink:href="#BitstreamVeraSans-Roman-65"/>
       <use x="125.146484375" xlink:href="#BitstreamVeraSans-Roman-38"/>
      </g>
     </g>
    </g>
    <g id="xtick_7">
     <g id="line2d_8">
      <defs>
       <path d="
M0 0
L0 -2" id="m7d7e220e21"/>
      </defs>
      <g>
       <use style="stroke:#000000;stroke-linecap:butt;stroke-width:0.5;" x="55.0917749675" xlink:href="#m7d7e220e21" y="301.409450253"/>
      </g>
     </g>
    </g>
    <g id="xtick_8">
     <g id="line2d_9">
      <defs>
       <path d="
M0 0
L0 -2" id="m7d7e220e21"/>
      </defs>
      <g>
       <use style="stroke:#000000;stroke-linecap:butt;stroke-width:0.5;" x="80.885112435" xlink:href="#m7d7e220e21" y="301.409450253"/>
      </g>
     </g>
    </g>
    <g id="xtick_9">
     <g id="line2d_10">
      <defs>
       <path d="
M0 0
L0 -2" id="m7d7e220e21"/>
      </defs>
      <g>
       <use style="stroke:#000000;stroke-linecap:butt;stroke-width:0.5;" x="106.678449902" xlink:href="#m7d7e220e21" y="301.409450253"/>
      </g>
     </g>
    </g>
    <g id="xtick_10">
     <g id="line2d_11">
      <defs>
       <path d="
M0 0
L0 -2" id="m7d7e220e21"/>
      </defs>
      <g>
       <use style="stroke:#000000;stroke-linecap:butt;stroke-width:0.5;" x="158.265124837" xlink:href="#m7d7e220e21" y="301.409450253"/>
      </g>
     </g>
    </g>
    <g id="xtick_11">
     <g id="line2d_12">
      <defs>
       <path d="
M0 0
L0 -2" id="m7d7e220e21"/>
      </defs>
      <g>
       <use style="stroke:#000000;stroke-linecap:butt;stroke-width:0.5;" x="184.058462305" xlink:href="#m7d7e220e21" y="301.409450253"/>
      </g>
     </g>
    </g>
    <g id="xtick_12">
     <g id="line2d_13">
      <defs>
       <path d="
M0 0
L0 -2" id="m7d7e220e21"/>
      </defs>
      <g>
       <use style="stroke:#000000;stroke-linecap:butt;stroke-width:0.5;" x="209.851799772" xlink:href="#m7d7e220e21" y="301.409450253"/>
      </g>
     </g>
    </g>
    <g id="xtick_13">
     <g id="line2d_14">
      <defs>
       <path d="
M0 0
L0 -2" id="m7d7e220e21"/>
      </defs>
      <g>
       <use style="stroke:#000000;stroke-linecap:butt;stroke-width:0.5;" x="261.438474707" xlink:href="#m7d7e220e21" y="301.409450253"/>
      </g>
     </g>
    </g>
    <g id="xtick_14">
     <g id="line2d_15">
      <defs>
       <path d="
M0 0
L0 -2" id="m7d7e220e21"/>
      </defs>
      <g>
       <use style="stroke:#000000;stroke-linecap:butt;stroke-width:0.5;" x="287.231812175" xlink:href="#m7d7e220e21" y="301.409450253"/>
      </g>
     </g>
    </g>
    <g id="xtick_15">
     <g id="line2d_16">
      <defs>
       <path d="
M0 0
L0 -2" id="m7d7e220e21"/>
      </defs>
      <g>
       <use style="stroke:#000000;stroke-linecap:butt;stroke-width:0.5;" x="313.025149642" xlink:href="#m7d7e220e21" y="301.409450253"/>
      </g>
     </g>
    </g>
    <g id="xtick_16">
     <g id="line2d_17">
      <defs>
       <path d="
M0 0
L0 -2" id="m7d7e220e21"/>
      </defs>
      <g>
       <use style="stroke:#000000;stroke-linecap:butt;stroke-width:0.5;" x="364.611824577" xlink:href="#m7d7e220e21" y="301.409450253"/>
      </g>
     </g>
    </g>
    <g id="xtick_17">
     <g id="line2d_18">
      <defs>
       <path d="
M0 0
L0 -2" id="m7d7e220e21"/>
      </defs>
      <g>
       <use style="stroke:#000000;stroke-linecap:butt;stroke-width:0.5;" x="390.405162045" xlink:href="#m7d7e220e21" y="301.409450253"/>
      </g>
     </g>
    </g>
    <g id="xtick_18">
     <g id="line2d_19">
      <defs>
       <path d="
M0 0
L0 -2" id="m7d7e220e21"/>
      </defs>
      <g>
       <use style="stroke:#000000;stroke-linecap:butt;stroke-width:0.5;" x="416.198499512" xlink:href="#m7d7e220e21" y="301.409450253"/>
      </g>
     </g>
    </g>
    <g id="xtick_19">
     <g id="line2d_20">
      <defs>
       <path d="
M0 0
L0 -2" id="m7d7e220e21"/>
      </defs>
      <g>
       <use style="stroke:#000000;stroke-linecap:butt;stroke-width:0.5;" x="467.785174447" xlink:href="#m7d7e220e21" y="301.409450253"/>
      </g>
     </g>
    </g>
    <g id="xtick_20">
     <g id="line2d_21">
      <defs>
       <path d="
M0 0
L0 -2" id="m7d7e220e21"/>
      </defs>
      <g>
       <use style="stroke:#000000;stroke-linecap:butt;stroke-width:0.5;" x="493.578511915" xlink:href="#m7d7e220e21" y="301.409450253"/>
      </g>
     </g>
    </g>
    <g id="xtick_21">
     <g id="line2d_22">
      <defs>
       <path d="
M0 0
L0 -2" id="m7d7e220e21"/>
      </defs>
      <g>
       <use style="stroke:#000000;stroke-linecap:butt;stroke-width:0.5;" x="519.371849382" xlink:href="#m7d7e220e21" y="301.409450253"/>
      </g>
     </g>
    </g>
   </g>
   <g id="matplotlib.axis_2">
    <g id="ytick_1">
     <g id="line2d_23">
      <defs>
       <path d="
M0 0
L4 0" id="m8d40f9f011"/>
      </defs>
      <g>
       <use style="stroke:#000000;stroke-linecap:butt;stroke-width:0.5;" x="29.2984375" xlink:href="#m8d40f9f011" y="360.905762072"/>
      </g>
     </g>
     <g id="text_6">
      <!-- -0.1 -->
      <defs>
       <path d="
M31.7812 66.4062
Q24.1719 66.4062 20.3281 58.9062
Q16.5 51.4219 16.5 36.375
Q16.5 21.3906 20.3281 13.8906
Q24.1719 6.39062 31.7812 6.39062
Q39.4531 6.39062 43.2812 13.8906
Q47.125 21.3906 47.125 36.375
Q47.125 51.4219 43.2812 58.9062
Q39.4531 66.4062 31.7812 66.4062
M31.7812 74.2188
Q44.0469 74.2188 50.5156 64.5156
Q56.9844 54.8281 56.9844 36.375
Q56.9844 17.9688 50.5156 8.26562
Q44.0469 -1.42188 31.7812 -1.42188
Q19.5312 -1.42188 13.0625 8.26562
Q6.59375 17.9688 6.59375 36.375
Q6.59375 54.8281 13.0625 64.5156
Q19.5312 74.2188 31.7812 74.2188" id="BitstreamVeraSans-Roman-30"/>
       <path d="
M10.6875 12.4062
L21 12.4062
L21 0
L10.6875 0
z
" id="BitstreamVeraSans-Roman-2e"/>
       <path d="
M4.89062 31.3906
L31.2031 31.3906
L31.2031 23.3906
L4.89062 23.3906
z
" id="BitstreamVeraSans-Roman-2d"/>
      </defs>
      <g transform="translate(7.2 364.545605822)scale(0.1 -0.1)">
       <use xlink:href="#BitstreamVeraSans-Roman-2d"/>
       <use x="36.083984375" xlink:href="#BitstreamVeraSans-Roman-30"/>
       <use x="99.70703125" xlink:href="#BitstreamVeraSans-Roman-2e"/>
       <use x="131.494140625" xlink:href="#BitstreamVeraSans-Roman-31"/>
      </g>
     </g>
    </g>
    <g id="ytick_2">
     <g id="line2d_24">
      <defs>
       <path d="
M0 0
L4 0" id="m8d40f9f011"/>
      </defs>
      <g>
       <use style="stroke:#000000;stroke-linecap:butt;stroke-width:0.5;" x="29.2984375" xlink:href="#m8d40f9f011" y="301.409450253"/>
      </g>
     </g>
    </g>
    <g id="ytick_3">
     <g id="line2d_25">
      <defs>
       <path d="
M0 0
L4 0" id="m8d40f9f011"/>
      </defs>
      <g>
       <use style="stroke:#000000;stroke-linecap:butt;stroke-width:0.5;" x="29.2984375" xlink:href="#m8d40f9f011" y="241.913138434"/>
      </g>
     </g>
     <g id="text_7">
      <!-- 0.1 -->
      <g transform="translate(10.978125 245.552982184)scale(0.1 -0.1)">
       <use xlink:href="#BitstreamVeraSans-Roman-30"/>
       <use x="63.623046875" xlink:href="#BitstreamVeraSans-Roman-2e"/>
       <use x="95.41015625" xlink:href="#BitstreamVeraSans-Roman-31"/>
      </g>
     </g>
    </g>
    <g id="ytick_4">
     <g id="line2d_26">
      <defs>
       <path d="
M0 0
L4 0" id="m8d40f9f011"/>
      </defs>
      <g>
       <use style="stroke:#000000;stroke-linecap:butt;stroke-width:0.5;" x="29.2984375" xlink:href="#m8d40f9f011" y="182.416826614"/>
      </g>
     </g>
     <g id="text_8">
      <!-- 0.2 -->
      <g transform="translate(11.05625 186.056670364)scale(0.1 -0.1)">
       <use xlink:href="#BitstreamVeraSans-Roman-30"/>
       <use x="63.623046875" xlink:href="#BitstreamVeraSans-Roman-2e"/>
       <use x="95.41015625" xlink:href="#BitstreamVeraSans-Roman-32"/>
      </g>
     </g>
    </g>
    <g id="ytick_5">
     <g id="line2d_27">
      <defs>
       <path d="
M0 0
L4 0" id="m8d40f9f011"/>
      </defs>
      <g>
       <use style="stroke:#000000;stroke-linecap:butt;stroke-width:0.5;" x="29.2984375" xlink:href="#m8d40f9f011" y="122.920514795"/>
      </g>
     </g>
     <g id="text_9">
      <!-- 0.3 -->
      <defs>
       <path d="
M40.5781 39.3125
Q47.6562 37.7969 51.625 33
Q55.6094 28.2188 55.6094 21.1875
Q55.6094 10.4062 48.1875 4.48438
Q40.7656 -1.42188 27.0938 -1.42188
Q22.5156 -1.42188 17.6562 -0.515625
Q12.7969 0.390625 7.625 2.20312
L7.625 11.7188
Q11.7188 9.32812 16.5938 8.10938
Q21.4844 6.89062 26.8125 6.89062
Q36.0781 6.89062 40.9375 10.5469
Q45.7969 14.2031 45.7969 21.1875
Q45.7969 27.6406 41.2812 31.2656
Q36.7656 34.9062 28.7188 34.9062
L20.2188 34.9062
L20.2188 43.0156
L29.1094 43.0156
Q36.375 43.0156 40.2344 45.9219
Q44.0938 48.8281 44.0938 54.2969
Q44.0938 59.9062 40.1094 62.9062
Q36.1406 65.9219 28.7188 65.9219
Q24.6562 65.9219 20.0156 65.0312
Q15.375 64.1562 9.8125 62.3125
L9.8125 71.0938
Q15.4375 72.6562 20.3438 73.4375
Q25.25 74.2188 29.5938 74.2188
Q40.8281 74.2188 47.3594 69.1094
Q53.9062 64.0156 53.9062 55.3281
Q53.9062 49.2656 50.4375 45.0938
Q46.9688 40.9219 40.5781 39.3125" id="BitstreamVeraSans-Roman-33"/>
      </defs>
      <g transform="translate(10.85625 126.560358545)scale(0.1 -0.1)">
       <use xlink:href="#BitstreamVeraSans-Roman-30"/>
       <use x="63.623046875" xlink:href="#BitstreamVeraSans-Roman-2e"/>
       <use x="95.41015625" xlink:href="#BitstreamVeraSans-Roman-33"/>
      </g>
     </g>
    </g>
    <g id="ytick_6">
     <g id="line2d_28">
      <defs>
       <path d="
M0 0
L4 0" id="m8d40f9f011"/>
      </defs>
      <g>
       <use style="stroke:#000000;stroke-linecap:butt;stroke-width:0.5;" x="29.2984375" xlink:href="#m8d40f9f011" y="63.4242029761"/>
      </g>
     </g>
     <g id="text_10">
      <!-- 0.4 -->
      <g transform="translate(10.615625 67.0640467261)scale(0.1 -0.1)">
       <use xlink:href="#BitstreamVeraSans-Roman-30"/>
       <use x="63.623046875" xlink:href="#BitstreamVeraSans-Roman-2e"/>
       <use x="95.41015625" xlink:href="#BitstreamVeraSans-Roman-34"/>
      </g>
     </g>
    </g>
    <g id="ytick_7">
     <g id="line2d_29">
      <defs>
       <path d="
M0 0
L2 0" id="m14a717291b"/>
      </defs>
      <g>
       <use style="stroke:#000000;stroke-linecap:butt;stroke-width:0.5;" x="29.2984375" xlink:href="#m14a717291b" y="408.502811527"/>
      </g>
     </g>
    </g>
    <g id="ytick_8">
     <g id="line2d_30">
      <defs>
       <path d="
M0 0
L2 0" id="m14a717291b"/>
      </defs>
      <g>
       <use style="stroke:#000000;stroke-linecap:butt;stroke-width:0.5;" x="29.2984375" xlink:href="#m14a717291b" y="396.603549163"/>
      </g>
     </g>
    </g>
    <g id="ytick_9">
     <g id="line2d_31">
      <defs>
       <path d="
M0 0
L2 0" id="m14a717291b"/>
      </defs>
      <g>
       <use style="stroke:#000000;stroke-linecap:butt;stroke-width:0.5;" x="29.2984375" xlink:href="#m14a717291b" y="384.7042868"/>
      </g>
     </g>
    </g>
    <g id="ytick_10">
     <g id="line2d_32">
      <defs>
       <path d="
M0 0
L2 0" id="m14a717291b"/>
      </defs>
      <g>
       <use style="stroke:#000000;stroke-linecap:butt;stroke-width:0.5;" x="29.2984375" xlink:href="#m14a717291b" y="372.805024436"/>
      </g>
     </g>
    </g>
    <g id="ytick_11">
     <g id="line2d_33">
      <defs>
       <path d="
M0 0
L2 0" id="m14a717291b"/>
      </defs>
      <g>
       <use style="stroke:#000000;stroke-linecap:butt;stroke-width:0.5;" x="29.2984375" xlink:href="#m14a717291b" y="349.006499708"/>
      </g>
     </g>
    </g>
    <g id="ytick_12">
     <g id="line2d_34">
      <defs>
       <path d="
M0 0
L2 0" id="m14a717291b"/>
      </defs>
      <g>
       <use style="stroke:#000000;stroke-linecap:butt;stroke-width:0.5;" x="29.2984375" xlink:href="#m14a717291b" y="337.107237344"/>
      </g>
     </g>
    </g>
    <g id="ytick_13">
     <g id="line2d_35">
      <defs>
       <path d="
M0 0
L2 0" id="m14a717291b"/>
      </defs>
      <g>
       <use style="stroke:#000000;stroke-linecap:butt;stroke-width:0.5;" x="29.2984375" xlink:href="#m14a717291b" y="325.20797498"/>
      </g>
     </g>
    </g>
    <g id="ytick_14">
     <g id="line2d_36">
      <defs>
       <path d="
M0 0
L2 0" id="m14a717291b"/>
      </defs>
      <g>
       <use style="stroke:#000000;stroke-linecap:butt;stroke-width:0.5;" x="29.2984375" xlink:href="#m14a717291b" y="313.308712617"/>
      </g>
     </g>
    </g>
    <g id="ytick_15">
     <g id="line2d_37">
      <defs>
       <path d="
M0 0
L2 0" id="m14a717291b"/>
      </defs>
      <g>
       <use style="stroke:#000000;stroke-linecap:butt;stroke-width:0.5;" x="29.2984375" xlink:href="#m14a717291b" y="301.409450253"/>
      </g>
     </g>
    </g>
    <g id="ytick_16">
     <g id="line2d_38">
      <defs>
       <path d="
M0 0
L2 0" id="m14a717291b"/>
      </defs>
      <g>
       <use style="stroke:#000000;stroke-linecap:butt;stroke-width:0.5;" x="29.2984375" xlink:href="#m14a717291b" y="289.510187889"/>
      </g>
     </g>
    </g>
    <g id="ytick_17">
     <g id="line2d_39">
      <defs>
       <path d="
M0 0
L2 0" id="m14a717291b"/>
      </defs>
      <g>
       <use style="stroke:#000000;stroke-linecap:butt;stroke-width:0.5;" x="29.2984375" xlink:href="#m14a717291b" y="277.610925525"/>
      </g>
     </g>
    </g>
    <g id="ytick_18">
     <g id="line2d_40">
      <defs>
       <path d="
M0 0
L2 0" id="m14a717291b"/>
      </defs>
      <g>
       <use style="stroke:#000000;stroke-linecap:butt;stroke-width:0.5;" x="29.2984375" xlink:href="#m14a717291b" y="265.711663161"/>
      </g>
     </g>
    </g>
    <g id="ytick_19">
     <g id="line2d_41">
      <defs>
       <path d="
M0 0
L2 0" id="m14a717291b"/>
      </defs>
      <g>
       <use style="stroke:#000000;stroke-linecap:butt;stroke-width:0.5;" x="29.2984375" xlink:href="#m14a717291b" y="253.812400797"/>
      </g>
     </g>
    </g>
    <g id="ytick_20">
     <g id="line2d_42">
      <defs>
       <path d="
M0 0
L2 0" id="m14a717291b"/>
      </defs>
      <g>
       <use style="stroke:#000000;stroke-linecap:butt;stroke-width:0.5;" x="29.2984375" xlink:href="#m14a717291b" y="230.01387607"/>
      </g>
     </g>
    </g>
    <g id="ytick_21">
     <g id="line2d_43">
      <defs>
       <path d="
M0 0
L2 0" id="m14a717291b"/>
      </defs>
      <g>
       <use style="stroke:#000000;stroke-linecap:butt;stroke-width:0.5;" x="29.2984375" xlink:href="#m14a717291b" y="218.114613706"/>
      </g>
     </g>
    </g>
    <g id="ytick_22">
     <g id="line2d_44">
      <defs>
       <path d="
M0 0
L2 0" id="m14a717291b"/>
      </defs>
      <g>
       <use style="stroke:#000000;stroke-linecap:butt;stroke-width:0.5;" x="29.2984375" xlink:href="#m14a717291b" y="206.215351342"/>
      </g>
     </g>
    </g>
    <g id="ytick_23">
     <g id="line2d_45">
      <defs>
       <path d="
M0 0
L2 0" id="m14a717291b"/>
      </defs>
      <g>
       <use style="stroke:#000000;stroke-linecap:butt;stroke-width:0.5;" x="29.2984375" xlink:href="#m14a717291b" y="194.316088978"/>
      </g>
     </g>
    </g>
    <g id="ytick_24">
     <g id="line2d_46">
      <defs>
       <path d="
M0 0
L2 0" id="m14a717291b"/>
      </defs>
      <g>
       <use style="stroke:#000000;stroke-linecap:butt;stroke-width:0.5;" x="29.2984375" xlink:href="#m14a717291b" y="170.517564251"/>
      </g>
     </g>
    </g>
    <g id="ytick_25">
     <g id="line2d_47">
      <defs>
       <path d="
M0 0
L2 0" id="m14a717291b"/>
      </defs>
      <g>
       <use style="stroke:#000000;stroke-linecap:butt;stroke-width:0.5;" x="29.2984375" xlink:href="#m14a717291b" y="158.618301887"/>
      </g>
     </g>
    </g>
    <g id="ytick_26">
     <g id="line2d_48">
      <defs>
       <path d="
M0 0
L2 0" id="m14a717291b"/>
      </defs>
      <g>
       <use style="stroke:#000000;stroke-linecap:butt;stroke-width:0.5;" x="29.2984375" xlink:href="#m14a717291b" y="146.719039523"/>
      </g>
     </g>
    </g>
    <g id="ytick_27">
     <g id="line2d_49">
      <defs>
       <path d="
M0 0
L2 0" id="m14a717291b"/>
      </defs>
      <g>
       <use style="stroke:#000000;stroke-linecap:butt;stroke-width:0.5;" x="29.2984375" xlink:href="#m14a717291b" y="134.819777159"/>
      </g>
     </g>
    </g>
    <g id="ytick_28">
     <g id="line2d_50">
      <defs>
       <path d="
M0 0
L2 0" id="m14a717291b"/>
      </defs>
      <g>
       <use style="stroke:#000000;stroke-linecap:butt;stroke-width:0.5;" x="29.2984375" xlink:href="#m14a717291b" y="122.920514795"/>
      </g>
     </g>
    </g>
    <g id="ytick_29">
     <g id="line2d_51">
      <defs>
       <path d="
M0 0
L2 0" id="m14a717291b"/>
      </defs>
      <g>
       <use style="stroke:#000000;stroke-linecap:butt;stroke-width:0.5;" x="29.2984375" xlink:href="#m14a717291b" y="111.021252431"/>
      </g>
     </g>
    </g>
    <g id="ytick_30">
     <g id="line2d_52">
      <defs>
       <path d="
M0 0
L2 0" id="m14a717291b"/>
      </defs>
      <g>
       <use style="stroke:#000000;stroke-linecap:butt;stroke-width:0.5;" x="29.2984375" xlink:href="#m14a717291b" y="99.1219900676"/>
      </g>
     </g>
    </g>
    <g id="ytick_31">
     <g id="line2d_53">
      <defs>
       <path d="
M0 0
L2 0" id="m14a717291b"/>
      </defs>
      <g>
       <use style="stroke:#000000;stroke-linecap:butt;stroke-width:0.5;" x="29.2984375" xlink:href="#m14a717291b" y="87.2227277038"/>
      </g>
     </g>
    </g>
    <g id="ytick_32">
     <g id="line2d_54">
      <defs>
       <path d="
M0 0
L2 0" id="m14a717291b"/>
      </defs>
      <g>
       <use style="stroke:#000000;stroke-linecap:butt;stroke-width:0.5;" x="29.2984375" xlink:href="#m14a717291b" y="75.3234653399"/>
      </g>
     </g>
    </g>
    <g id="ytick_33">
     <g id="line2d_55">
      <defs>
       <path d="
M0 0
L2 0" id="m14a717291b"/>
      </defs>
      <g>
       <use style="stroke:#000000;stroke-linecap:butt;stroke-width:0.5;" x="29.2984375" xlink:href="#m14a717291b" y="63.4242029761"/>
      </g>
     </g>
    </g>
    <g id="ytick_34">
     <g id="line2d_56">
      <defs>
       <path d="
M0 0
L2 0" id="m14a717291b"/>
      </defs>
      <g>
       <use style="stroke:#000000;stroke-linecap:butt;stroke-width:0.5;" x="29.2984375" xlink:href="#m14a717291b" y="51.5249406123"/>
      </g>
     </g>
    </g>
    <g id="ytick_35">
     <g id="line2d_57">
      <defs>
       <path d="
M0 0
L2 0" id="m14a717291b"/>
      </defs>
      <g>
       <use style="stroke:#000000;stroke-linecap:butt;stroke-width:0.5;" x="29.2984375" xlink:href="#m14a717291b" y="39.6256782484"/>
      </g>
     </g>
    </g>
    <g id="ytick_36">
     <g id="line2d_58">
      <defs>
       <path d="
M0 0
L2 0" id="m14a717291b"/>
      </defs>
      <g>
       <use style="stroke:#000000;stroke-linecap:butt;stroke-width:0.5;" x="29.2984375" xlink:href="#m14a717291b" y="27.7264158846"/>
      </g>
     </g>
    </g>
   </g>
   <g id="patch_3">
    <path d="
M18.9817 301.409
L555.453 301.409" style="fill:none;stroke:#000000;stroke-width:0.8;"/>
   </g>
   <g id="patch_4">
    <path d="
M29.2984 413.28
L29.2984 7.2" style="fill:none;stroke:#000000;stroke-width:0.8;"/>
   </g>
  </g>
 </g>
 <defs>
  <clipPath id="pb7017b9641">
   <rect height="406.08" width="536.470929948" x="18.9816991645" y="7.2"/>
  </clipPath>
 </defs>
</svg>
