<?xml version="1.0" encoding="utf-8" standalone="no"?>
<!DOCTYPE svg PUBLIC "-//W3C//DTD SVG 1.1//EN"
  "http://www.w3.org/Graphics/SVG/1.1/DTD/svg11.dtd">
<!-- Created with matplotlib (http://matplotlib.sourceforge.net/) -->
<svg height="420pt" version="1.1" viewBox="0 0 564 420" width="564pt" xmlns="http://www.w3.org/2000/svg" xmlns:xlink="http://www.w3.org/1999/xlink">
 <defs>
  <style type="text/css">
*{stroke-linecap:square;stroke-linejoin:round;}
  </style>
 </defs>
 <g id="figure_1">
  <g id="patch_1">
   <path d="
M2.22045e-16 420.48
L564.686 420.48
L564.686 0
L2.22045e-16 0
z
" style="fill:#ffffff;"/>
  </g>
  <g id="axes_1">
   <g id="patch_2">
    <path d="
M65.5062 413.28
L557.486 413.28
L557.486 7.2
L65.5062 7.2
z
" style="fill:#ffffff;"/>
   </g>
   <g id="line2d_1">
    <path clip-path="url(#p57bd0e75d4)" d="
M74.9674 155.498
L85.7872 155.498
L85.7872 198.837
L99.4185 198.837
L99.4185 303.107
L108.397 303.107
L108.397 346.15
L120.458 346.15
L120.458 369.955
L124.916 369.955
L124.916 376.223
L132.075 376.223
L132.075 405.471
L135.043 405.471
L135.043 404.577
L140.141 404.577
L140.141 397.43
L146.327 397.43
L146.327 389.504
L148.106 389.504
L148.106 391.273
L152.828 391.273
L152.828 401.46
L155.567 401.46
L155.567 404.995
L156.838 404.995
L156.838 404.492
L159.212 404.492
L159.212 398.839
L162.418 398.839
L162.418 400.158
L165.28 400.158
L165.28 397.656
L166.169 397.656
L166.169 397.861
L168.673 397.861
L168.673 394.854
L170.22 394.854
L170.22 394.022
L170.961 394.022
L170.961 393.618
L173.069 393.618
L173.069 391.84
L174.387 391.84
L174.387 389.299
L176.25 389.299
L176.25 387.238
L178.547 387.238
L178.547 386.384
L179.625 386.384
L179.625 387.164
L180.148 387.164
L180.148 387.526
L181.165 387.526
L181.165 388.625
L182.621 388.539
L182.621 388.171
L185.738 388.171
L185.738 385.181
L186.565 385.181
L186.565 385.524
L187.76 385.524
L187.76 384.216
L188.147 384.216
L188.147 383.242
L190.001 383.242
L190.001 376.679
L190.357 376.679
L190.357 375.916
L191.396 375.916
L191.396 373.119
L192.397 373.119
L192.397 370.754
L193.044 370.754
L193.044 369.938
L193.986 369.938
L193.986 369.491
L194.896 369.491
L194.896 369.737
L195.192 369.737
L195.192 370.029
L196.627 370.029
L196.627 369.688
L196.905 369.688
L196.905 369.239
L197.453 369.239
L197.453 367.928
L197.722 367.928
L197.722 367.556
L199.285 367.556
L199.285 363.741
L200.761 363.741
L200.761 360.538
L201.235 360.538
L201.235 359.342
L201.469 359.342
L201.469 358.553
L201.931 358.553
L201.931 357.095
L202.61 357.095
L202.61 355.167
L202.832 355.167
L202.832 354.298
L203.917 354.298
L203.917 350.6
L204.547 350.6
L204.547 348.98
L205.163 348.98
L205.163 346.948
L205.765 346.948
L205.765 344.987
L205.963 344.987
L205.963 344.445
L206.547 344.445
L206.547 343.228
L206.93 343.228
L206.93 342.589
L207.119 342.589
L207.119 342.318
L208.046 342.318
L208.046 341.783
L209.291 341.783
L209.291 339.964
L209.637 339.964
L209.637 339.441
L209.808 339.441
L209.808 339.327
L211.3 339.22
L211.3 338.613
L211.779 338.613
L211.779 338.235
L212.56 338.235
L212.56 337.27
L214.055 337.246
L214.055 337.573
L214.488 337.573
L214.488 337.706
L215.608 337.754
L215.608 337.469
L216.152 337.469
L216.152 336.824
L216.419 336.824
L216.419 336.361
L216.946 336.361
L216.946 335.712
L217.591 335.712
L217.591 334.685
L217.718 334.685
L217.718 334.464
L218.344 334.464
L218.344 333.542
L218.468 333.542
L218.468 333.286
L218.835 333.286
L218.835 332.843
L219.077 332.843
L219.077 332.504
L219.436 332.504
L219.436 332.11
L219.907 332.11
L219.907 331.389
L220.14 331.389
L220.14 331.091
L220.256 331.091
L220.256 330.911
L220.485 330.911
L220.485 330.38
L221.162 330.38
L221.162 328.922
L221.604 328.922
L221.604 328.341
L221.822 328.341
L221.822 328.134
L222.254 328.134
L222.254 327.841
L222.467 327.841
L222.467 327.715
L222.783 327.715
L222.783 327.528
L223.405 327.528
L223.507 326.533
L224.41 326.533
L224.41 325.174
L224.705 325.174
L224.705 324.51
L225.188 324.51
L225.188 323.35
L225.474 323.35
L225.474 322.636
L225.757 322.636
L225.85 321.472
L226.129 321.472
L226.129 320.421
L226.588 320.421
L226.588 318.689
L226.859 318.689
L226.859 317.884
L227.128 317.884
L227.217 316.909
L227.482 316.909
L227.482 316.152
L227.744 316.152
L227.744 315.256
L227.918 315.256
L228.004 314.354
L228.517 314.354
L228.517 312.323
L228.936 312.323
L229.019 310.515
L229.185 310.515
L229.185 309.927
L229.431 309.927
L229.431 309.105
L229.675 309.105
L229.756 307.963
L230.236 307.963
L230.236 306.747
L230.394 306.747
L230.394 306.283
L230.63 306.283
L230.63 305.64
L230.941 305.64
L230.941 304.855
L231.324 304.855
L231.324 304.172
L231.627 304.172
L231.627 303.55
L232 303.55
L232 303.052
L232.296 303.052
L232.296 302.608
L232.515 302.608
L232.515 302.134
L232.733 302.134
L232.733 301.795
L232.877 301.795
L232.877 301.606
L233.162 301.606
L233.162 301.131
L233.375 301.131
L233.375 300.903
L233.515 300.903
L233.515 300.748
L233.795 300.748
L233.795 300.514
L233.933 300.514
L233.933 300.371
L234.412 300.371
L234.412 299.715
L234.749 299.715
L234.749 299.36
L235.148 299.36
L235.214 298.943
L235.541 298.943
L235.605 298.551
L236.119 298.478
L236.119 298.224
L236.561 298.224
L236.561 297.806
L236.686 297.806
L236.748 297.538
L236.872 297.538
L236.872 297.358
L237.301 297.358
L237.301 296.868
L237.483 296.763
L237.483 296.752
L238.316 296.699
L238.316 296.637
L238.55 296.637
L238.55 296.378
L238.838 296.378
L238.838 295.868
L239.067 295.868
L239.067 295.45
L239.181 295.45
L239.181 295.24
L239.351 295.24
L239.351 294.975
L239.519 294.975
L239.519 294.666
L239.908 294.666
L240.018 294.023
L240.183 294.023
L240.183 293.777
L240.346 293.777
L240.346 293.545
L240.562 293.545
L240.562 293.325
L240.724 293.325
L240.724 293.189
L241.043 293.189
L241.148 292.836
L241.618 292.781
L241.67 292.622
L241.825 292.622
L241.825 292.501
L242.08 292.501
L242.131 292.291
L242.384 292.291
L242.434 292.039
L243.03 291.978
L243.128 291.705
L243.42 291.6
L243.42 291.515
L243.564 291.515
L243.564 291.361
L243.756 291.361
L243.756 291.09
L243.899 291.09
L243.899 290.936
L244.556 290.847
L244.603 290.232
L244.833 290.232
L244.833 290
L245.243 289.92
L245.243 289.778
L245.378 289.778
L245.378 289.619
L245.513 289.619
L245.513 289.475
L245.691 289.475
L245.691 289.178
L245.956 289.178
L246.044 288.527
L246.176 288.527
L246.176 288.27
L246.306 288.27
L246.35 287.956
L246.479 287.956
L246.479 287.729
L246.737 287.729
L246.737 287.371
L246.95 287.371
L246.95 287.027
L247.329 287.027
L247.37 286.279
L247.454 286.279
L247.454 286.102
L247.578 286.102
L247.619 285.739
L247.743 285.739
L247.825 285.376
L247.948 285.328
L247.948 285.225
L248.192 285.225
L248.232 284.78
L248.353 284.78
L248.353 284.549
L249.028 284.549
L249.028 283.097
L249.146 283.097
L249.146 282.863
L249.263 282.863
L249.263 282.654
L249.418 282.654
L249.418 282.413
L249.763 282.413
L249.763 281.94
L249.953 281.94
L249.953 281.74
L250.217 281.74
L250.292 281.305
L250.404 281.254
L250.404 281.136
L250.516 281.136
L250.516 280.924
L250.664 280.924
L250.774 280.455
L250.884 280.455
L250.884 280.28
L251.103 280.28
L251.103 279.869
L251.283 279.869
L251.391 279.291
L251.499 279.229
L251.606 278.976
L251.818 278.976
L251.818 278.675
L252.03 278.675
L252.03 278.377
L252.169 278.377
L252.169 278.253
L252.378 278.253
L252.481 277.949
L252.653 277.888
L252.653 277.767
L252.79 277.767
L252.858 277.551
L252.993 277.551
L253.061 277.278
L253.296 277.278
L253.362 276.957
L253.462 276.957
L253.562 276.673
L253.661 276.673
L253.694 276.527
L253.792 276.527
L253.792 276.398
L253.956 276.398
L253.956 276.196
L254.28 276.196
L254.376 275.701
L254.472 275.634
L254.472 275.59
L254.853 275.59
L254.948 274.819
L255.104 274.819
L255.104 274.57
L255.291 274.57
L255.322 274.152
L255.476 274.152
L255.476 273.866
L255.599 273.866
L255.691 273.521
L255.783 273.521
L255.874 273.241
L256.146 273.241
L256.235 272.641
L256.325 272.534
L256.325 272.468
L256.504 272.468
L256.504 272.083
L256.651 272.083
L256.651 271.796
L256.828 271.796
L256.828 271.41
L256.944 271.41
L256.944 271.171
L257.177 271.171
L257.177 270.754
L257.378 270.754
L257.464 270.216
L257.521 270.216
L257.606 269.879
L257.777 269.796
L257.777 269.345
L257.946 269.345
L258.03 268.526
L258.113 268.526
L258.113 268.241
L258.363 268.241
L258.391 267.221
L258.611 267.221
L258.638 266.255
L258.938 266.255
L259.019 264.785
L259.126 264.785
L259.207 264.116
L259.26 264.116
L259.34 263.706
L259.447 263.706
L259.526 263.244
L259.658 263.244
L259.684 262.942
L259.816 262.942
L259.816 262.713
L259.998 262.713
L259.998 262.394
L260.128 262.394
L260.205 261.982
L260.36 261.982
L260.462 261.459
L260.59 261.459
L260.59 261.215
L260.742 261.215
L260.767 260.843
L260.968 260.843
L261.068 260.128
L261.118 260.128
L261.143 259.952
L261.267 259.952
L261.366 259.392
L261.588 259.392
L261.588 258.843
L261.88 258.843
L261.928 258.164
L262.001 258.164
L262.097 257.929
L262.289 257.929
L262.36 257.64
L262.644 257.547
L262.715 257.174
L262.808 257.174
L262.879 256.921
L262.995 256.811
L262.995 256.756
L263.134 256.756
L263.157 256.598
L263.41 256.598
L263.501 256.405
L263.841 256.327
L263.909 256.237
L265.287 256.18
L265.287 255.985
L265.478 255.985
L265.584 255.78
L265.71 255.701
L265.794 255.597
L266.085 255.55
L266.085 255.34
L266.394 255.25
L266.475 255.119
L266.88 255.054
L266.94 254.971
L267.14 254.87
L267.239 254.717
L267.378 254.66
L267.437 254.495
L267.594 254.444
L267.613 254.369
L267.827 254.265
L267.827 254.242
L268.174 254.167
L268.25 254.066
L268.459 253.998
L268.459 253.753
L268.592 253.753
L268.686 253.428
L268.761 253.428
L268.854 253.145
L269.021 253.145
L269.096 252.734
L269.188 252.734
L269.298 252.347
L269.371 252.347
L269.463 251.988
L269.572 251.988
L269.572 251.78
L269.699 251.78
L269.789 251.369
L269.861 251.272
L269.861 251.244
L270.111 251.244
L270.218 250.632
L270.289 250.632
L270.324 250.454
L270.447 250.454
L270.552 250.089
L270.657 250.089
L270.709 249.84
L270.814 249.84
L270.9 249.624
L271.072 249.624
L271.175 249.398
L271.532 249.289
L271.582 249.068
L271.734 248.985
L271.767 248.929
L271.917 248.857
L272.017 248.718
L272.264 248.643
L272.33 248.417
L272.655 248.313
L272.72 248.041
L272.849 247.95
L272.913 247.852
L273.041 247.744
L273.136 247.606
L273.374 247.536
L273.389 247.472
L273.562 247.367
L273.562 247.317
L273.718 247.317
L273.718 247.161
L273.842 247.161
L273.95 246.903
L274.165 246.867
L274.226 246.587
L274.317 246.587
L274.363 246.35
L274.439 246.35
L274.544 245.93
L274.59 245.93
L274.68 245.56
L274.769 245.56
L274.859 245.157
L274.933 245.157
L275.037 244.826
L275.111 244.741
L275.214 244.538
L275.302 244.466
L275.302 244.393
L275.419 244.393
L275.521 244.017
L275.651 243.966
L275.724 243.688
L275.853 243.61
L275.953 243.389
L276.153 243.346
L276.209 243.165
L276.379 243.095
L276.449 242.915
L276.659 242.823
L276.756 242.691
L276.963 242.583
L277.046 242.393
L277.169 242.393
L277.278 242.046
L277.414 241.968
L277.441 241.826
L277.576 241.826
L277.576 241.632
L277.723 241.632
L277.817 241.351
L277.976 241.24
L277.976 241.196
L278.122 241.196
L278.174 241.035
L278.319 240.951
L278.41 240.84
L278.527 240.801
L278.631 240.643
L278.798 240.589
L278.837 240.495
L278.952 240.495
L278.952 240.356
L279.105 240.356
L279.207 240.012
L279.358 239.904
L279.433 239.779
L279.621 239.687
L279.708 239.599
L279.894 239.599
L279.968 239.425
L280.115 239.319
L280.176 239.225
L280.322 239.121
L280.395 238.997
L280.588 238.906
L280.684 238.659
L280.827 238.62
L280.898 238.388
L280.981 238.388
L281.076 238.137
L281.217 238.137
L281.299 237.923
L281.648 237.829
L281.74 237.8
L281.752 237.801
L282.219 237.693
L282.287 237.667
L282.567 237.61
L282.668 237.481
L282.999 237.435
L283.087 237.293
L283.261 237.201
L283.316 237.1
L283.413 237.003
L283.521 236.824
L283.607 236.728
L283.714 236.512
L283.799 236.437
L283.874 236.337
L284.022 236.258
L284.064 236.164
L284.212 236.077
L284.316 235.964
L284.525 235.897
L284.628 235.623
L284.741 235.552
L284.844 235.37
L284.936 235.37
L284.987 235.189
L285.109 235.189
L285.21 234.897
L285.291 234.897
L285.352 234.661
L285.422 234.661
L285.472 234.43
L285.542 234.43
L285.562 234.27
L285.711 234.27
L285.8 233.808
L285.869 233.736
L285.958 233.514
L286.017 233.416
L286.046 233.346
L286.154 233.346
L286.212 233.053
L286.3 233.053
L286.396 232.724
L286.57 232.657
L286.647 232.32
L286.733 232.256
L286.733 232.165
L286.885 232.165
L286.97 231.753
L287.046 231.648
L287.102 231.487
L287.168 231.487
L287.253 231.137
L287.327 231.027
L287.421 230.734
L287.476 230.669
L287.476 230.608
L287.615 230.608
L287.717 230.085
L287.772 230.026
L287.836 229.838
L287.891 229.838
L287.991 229.507
L288.073 229.433
L288.182 229.124
L288.272 229.124
L288.344 228.827
L288.532 228.72
L288.559 228.498
L288.648 228.498
L288.745 228.244
L288.825 228.15
L288.913 227.952
L289.01 227.852
L289.115 227.592
L289.193 227.526
L289.28 227.291
L289.375 227.204
L289.479 226.981
L289.565 226.898
L289.616 226.785
L289.693 226.785
L289.795 226.482
L289.863 226.438
L289.965 226.179
L290.041 226.089
L290.142 225.846
L290.201 225.783
L290.293 225.534
L290.426 225.46
L290.451 225.196
L290.542 225.196
L290.641 224.826
L290.716 224.752
L290.716 224.665
L290.839 224.665
L290.945 224.21
L291.01 224.153
L291.083 223.899
L291.156 223.899
L291.237 223.518
L291.309 223.518
L291.405 223.114
L291.477 223.007
L291.573 222.729
L291.637 222.673
L291.708 222.406
L291.803 222.406
L291.882 221.991
L291.968 221.881
L292.07 221.568
L292.117 221.529
L292.226 221.154
L292.28 221.132
L292.389 220.689
L292.527 220.619
L292.619 220.028
L292.665 219.964
L292.734 219.711
L292.78 219.711
L292.878 219.304
L292.947 219.268
L293.03 218.956
L293.12 218.956
L293.217 218.513
L293.3 218.513
L293.396 218.133
L293.456 218.062
L293.552 217.843
L293.619 217.762
L293.678 217.543
L293.788 217.543
L293.883 216.974
L293.927 216.974
L294.036 216.513
L294.101 216.513
L294.188 216.075
L294.253 216.075
L294.332 215.651
L294.396 215.651
L294.504 215.124
L294.568 215.035
L294.674 214.588
L294.717 214.502
L294.787 214.241
L294.83 214.241
L294.935 213.802
L294.998 213.762
L295.096 213.335
L295.166 213.335
L295.27 212.897
L295.332 212.865
L295.415 212.595
L295.58 212.495
L295.676 212.162
L295.758 212.089
L295.866 211.812
L295.961 211.742
L296.069 211.373
L296.129 211.266
L296.17 211.178
L296.27 211.178
L296.35 210.87
L296.423 210.87
L296.523 210.596
L296.602 210.495
L296.701 210.301
L296.779 210.301
L296.884 209.993
L296.982 209.931
L297.092 209.693
L297.176 209.597
L297.266 209.453
L297.369 209.376
L297.478 209.188
L297.554 209.119
L297.656 208.926
L297.732 208.867
L297.807 208.675
L297.914 208.675
L297.996 208.399
L298.108 208.315
L298.214 208.087
L298.295 208.029
L298.369 207.866
L298.461 207.769
L298.572 207.637
L298.785 207.528
L298.894 207.479
L299.099 207.384
L299.207 207.285
L299.433 207.19
L299.522 207.086
L299.705 207.002
L299.81 206.872
L300.101 206.768
L300.188 206.69
L300.343 206.615
L300.452 206.482
L300.605 206.373
L300.707 206.306
L300.854 206.214
L300.938 206.118
L301.122 206.06
L301.222 205.869
L301.328 205.778
L301.427 205.58
L301.526 205.486
L301.624 205.299
L301.717 205.216
L301.815 205.046
L301.901 204.971
L301.999 204.768
L302.09 204.661
L302.176 204.479
L302.267 204.479
L302.352 204.249
L302.458 204.164
L302.543 204.039
L302.648 203.948
L302.758 203.862
L303.039 203.762
L303.148 203.701
L303.491 203.603
L303.583 203.544
L304.185 203.433
L304.274 203.377
L304.638 203.295
L304.74 203.238
L305.265 203.145
L305.374 203.024
L305.549 202.92
L305.634 202.871
L305.901 202.781
L305.984 202.69
L306.091 202.629
L306.202 202.421
L306.284 202.341
L306.394 202.141
L306.476 202.061
L306.535 201.887
L306.613 201.887
L306.712 201.624
L306.807 201.568
L306.91 201.288
L306.977 201.188
L307.084 200.979
L307.195 200.874
L307.275 200.6
L307.328 200.6
L307.429 200.238
L307.548 200.145
L307.644 199.829
L307.722 199.73
L307.822 199.555
L307.93 199.473
L308.033 199.23
L308.145 199.128
L308.239 198.962
L308.349 198.862
L308.455 198.661
L308.565 198.562
L308.67 198.389
L308.758 198.294
L308.854 198.156
L308.946 198.063
L309.041 197.874
L309.128 197.795
L309.214 197.624
L309.317 197.555
L309.378 197.429
L309.472 197.329
L309.582 197.135
L309.691 197.057
L309.792 196.793
L309.876 196.691
L309.936 196.557
L310.02 196.461
L310.1 196.256
L310.159 196.182
L310.254 195.97
L310.329 195.878
L310.436 195.586
L310.49 195.489
L310.588 195.218
L310.635 195.115
L310.705 194.937
L310.759 194.842
L310.856 194.592
L310.922 194.491
L311.003 194.265
L311.06 194.164
L311.164 193.956
L311.244 193.855
L311.335 193.67
L311.43 193.563
L311.528 193.274
L311.6 193.196
L311.701 192.87
L311.757 192.87
L311.843 192.577
L311.921 192.507
L312.021 192.238
L312.091 192.143
L312.198 191.861
L312.253 191.755
L312.334 191.574
L312.396 191.466
L312.498 191.263
L312.56 191.16
L312.657 191.001
L312.747 190.891
L312.852 190.727
L312.93 190.673
L313.038 190.411
L313.098 190.311
L313.204 190.097
L313.282 189.991
L313.374 189.762
L313.451 189.673
L313.556 189.442
L313.647 189.34
L313.754 189.156
L313.838 189.055
L313.938 188.862
L314.03 188.761
L314.126 188.587
L314.219 188.481
L314.256 188.395
L314.338 188.291
L314.439 188.126
L314.554 188.042
L314.661 187.756
L314.742 187.654
L314.845 187.441
L314.935 187.341
L315.024 187.171
L315.11 187.066
L315.209 186.951
L315.317 186.861
L315.418 186.713
L315.525 186.623
L315.6 186.479
L315.687 186.392
L315.784 186.212
L315.918 186.121
L316.027 186.011
L316.141 185.901
L316.252 185.769
L316.35 185.69
L316.459 185.512
L316.553 185.411
L316.656 185.208
L316.724 185.126
L316.808 184.923
L316.864 184.816
L316.965 184.606
L317.03 184.496
L317.137 184.24
L317.195 184.16
L317.304 183.892
L317.368 183.809
L317.459 183.596
L317.528 183.52
L317.621 183.284
L317.69 183.182
L317.801 182.939
L317.869 182.853
L317.952 182.634
L318.02 182.534
L318.129 182.318
L318.2 182.226
L318.305 182.001
L318.376 181.893
L318.477 181.666
L318.538 181.581
L318.637 181.355
L318.694 181.252
L318.798 181.016
L318.861 180.942
L318.97 180.651
L319.032 180.548
L319.098 180.379
L319.177 180.268
L319.262 180.034
L319.338 179.924
L319.447 179.659
L319.545 179.548
L319.632 179.254
L319.682 179.157
L319.779 178.896
L319.839 178.789
L319.936 178.498
L319.988 178.387
L320.079 178.105
L320.125 178.016
L320.218 177.753
L320.288 177.753
L320.394 177.326
L320.445 177.252
L320.548 176.995
L320.628 176.886
L320.735 176.617
L320.807 176.52
L320.916 176.256
L320.988 176.153
L321.091 176.005
L321.172 175.939
L321.282 175.763
L321.413 175.675
L321.485 175.574
L321.615 175.484
L321.726 175.338
L321.864 175.232
L321.969 175.119
L322.06 175.015
L322.159 174.881
L322.273 174.78
L322.359 174.698
L322.633 174.589
L322.71 174.513
L322.812 174.411
L322.923 174.245
L323.004 174.146
L323.107 174.003
L323.202 173.898
L323.304 173.698
L323.369 173.595
L323.48 173.421
L323.564 173.357
L323.658 173.132
L323.729 173.04
L323.832 172.847
L323.924 172.749
L324.031 172.588
L324.12 172.484
L324.226 172.348
L324.324 172.242
L324.431 172.098
L324.54 171.989
L324.639 171.899
L324.736 171.81
L324.844 171.645
L324.954 171.539
L325.058 171.376
L325.153 171.268
L325.262 171.071
L325.322 170.961
L325.423 170.761
L325.484 170.66
L325.589 170.422
L325.658 170.314
L325.762 170.106
L325.835 169.995
L325.92 169.832
L326.006 169.736
L326.098 169.552
L326.17 169.452
L326.281 169.271
L326.359 169.165
L326.464 168.994
L326.54 168.886
L326.638 168.72
L326.732 168.72
L326.828 168.509
L327.025 168.414
L327.132 168.238
L327.321 168.14
L327.429 167.929
L327.532 167.929
L327.615 167.708
L327.831 167.614
L327.91 167.478
L328.203 167.39
L328.311 167.272
L328.514 167.189
L328.603 167.027
L328.795 166.944
L328.894 166.823
L329.107 166.774
L329.193 166.651
L329.581 166.549
L329.678 166.47
L329.986 166.364
L330.09 166.284
L330.568 166.196
L330.668 166.047
L330.862 165.973
L330.959 165.762
L331.176 165.654
L331.263 165.407
L331.349 165.407
L331.451 165.16
L331.549 165.16
L331.643 164.901
L331.744 164.901
L331.841 164.694
L332.04 164.599
L332.135 164.491
L332.337 164.424
L332.337 164.366
L332.543 164.3
L332.627 164.198
L332.84 164.142
L332.923 164.042
L333.329 163.947
L333.419 163.876
L334.792 163.77
L334.902 163.725
L335.281 163.662
L335.381 163.527
L335.579 163.43
L335.579 163.328
L335.695 163.328
L335.776 163.148
L335.976 163.075
L336.072 162.959
L336.364 162.849
L336.364 162.8
L336.661 162.691
L336.762 162.595
L337.05 162.496
L337.159 162.345
L337.357 162.264
L337.446 162.052
L337.545 162.052
L337.654 161.77
L337.739 161.77
L337.838 161.461
L337.952 161.461
L338.034 161.11
L338.132 161.11
L338.132 160.92
L338.251 160.92
L338.338 160.625
L338.43 160.625
L338.533 160.34
L338.626 160.34
L338.722 160.029
L338.826 160.029
L338.92 159.667
L339.018 159.667
L339.121 159.281
L339.222 159.281
L339.315 158.91
L339.425 158.91
L339.522 158.665
L339.71 158.573
L339.804 158.351
L339.907 158.351
L340.005 158.102
L340.116 158.102
L340.202 157.81
L340.295 157.81
L340.397 157.556
L340.497 157.556
L340.589 157.268
L340.694 157.268
L340.79 156.956
L340.895 156.956
L340.985 156.664
L341.083 156.664
L341.183 156.347
L341.281 156.347
L341.281 156.182
L341.413 156.182
L341.479 155.856
L341.578 155.856
L341.578 155.669
L341.695 155.669
L341.777 155.33
L341.881 155.33
L341.881 155.171
L341.996 155.171
L342.076 154.891
L342.263 154.784
L342.36 154.601
L342.557 154.511
L342.668 154.299
L342.864 154.219
L342.954 154.028
L343.148 153.942
L343.246 153.797
L343.44 153.7
L343.541 153.513
L343.736 153.435
L343.834 153.271
L344.033 153.166
L344.134 152.988
L344.326 152.926
L344.432 152.789
L344.72 152.71
L344.818 152.562
L345.015 152.484
L345.112 152.366
L345.313 152.307
L345.414 152.176
L345.605 152.118
L345.702 152.009
L345.902 151.939
L346.005 151.783
L346.195 151.714
L346.295 151.542
L346.492 151.47
L346.595 151.245
L346.785 151.162
L346.885 151.022
L347.079 150.936
L347.179 150.726
L347.279 150.726
L347.373 150.471
L347.48 150.471
L347.577 150.168
L347.675 150.168
L347.767 149.87
L347.864 149.87
L347.966 149.61
L348.167 149.508
L348.258 149.268
L348.362 149.268
L348.458 148.955
L348.557 148.955
L348.655 148.591
L348.753 148.591
L348.854 148.17
L348.952 148.17
L349.052 147.813
L349.144 147.813
L349.243 147.542
L349.341 147.542
L349.445 147.271
L349.635 147.167
L349.736 147.007
L349.93 146.938
L350.029 146.757
L350.226 146.674
L350.327 146.502
L350.521 146.423
L350.626 146.334
L350.814 146.281
L350.914 146.156
L351.115 146.107
L351.207 145.943
L351.404 145.842
L351.503 145.634
L351.699 145.536
L351.797 145.353
L351.996 145.247
L352.093 145
L352.196 145
L352.295 144.706
L352.393 144.706
L352.486 144.426
L352.693 144.322
L352.785 144.071
L352.879 144.071
L352.978 143.796
L353.078 143.796
L353.175 143.57
L353.372 143.466
L353.482 143.236
L353.668 143.132
L353.77 142.915
L353.864 142.915
L353.96 142.657
L354.059 142.657
L354.159 142.35
L354.259 142.35
L354.357 141.991
L354.46 141.991
L354.55 141.626
L354.649 141.626
L354.75 141.302
L354.848 141.302
L354.944 141.062
L355.042 141.062
L355.152 140.803
L355.338 140.718
L355.435 140.509
L355.539 140.509
L355.635 140.283
L355.833 140.181
L355.93 139.942
L356.026 139.942
L356.124 139.674
L356.222 139.674
L356.323 139.432
L356.516 139.353
L356.619 139.193
L356.811 139.11
L356.91 138.937
L357.208 138.851
L357.303 138.752
L357.503 138.694
L357.6 138.555
L357.894 138.456
L357.99 138.359
L358.288 138.255
L358.386 138.119
L358.58 138.055
L358.682 137.879
L358.879 137.796
L358.98 137.666
L359.271 137.578
L359.367 137.496
L359.665 137.404
L359.764 137.257
L359.957 137.2
L360.055 137.048
L360.254 136.98
L360.353 136.817
L360.459 136.817
L360.547 136.597
L360.75 136.493
L360.841 136.301
L360.94 136.301
L361.038 136.037
L361.142 136.037
L361.243 135.756
L361.334 135.756
L361.441 135.468
L361.628 135.361
L361.727 135.11
L361.825 135.11
L361.928 134.822
L362.023 134.822
L362.124 134.485
L362.225 134.485
L362.322 134.174
L362.415 134.174
L362.52 133.907
L362.615 133.907
L362.714 133.626
L362.908 133.517
L363.005 133.318
L363.202 133.229
L363.301 132.993
L363.499 132.89
L363.597 132.711
L363.793 132.631
L363.889 132.473
L364.087 132.371
L364.185 132.148
L364.284 132.148
L364.388 131.898
L364.581 131.798
L364.68 131.604
L364.874 131.514
L364.972 131.317
L365.167 131.211
L365.269 131.019
L365.463 130.915
L365.56 130.658
L365.659 130.658
L365.761 130.42
L365.859 130.42
L365.958 130.165
L366.054 130.165
L366.153 129.954
L366.25 129.954
L366.347 129.701
L366.448 129.701
L366.549 129.459
L366.741 129.356
L366.845 129.14
L367.038 129.04
L367.136 128.844
L367.332 128.746
L367.435 128.547
L367.625 128.476
L367.728 128.396
L367.92 128.335
L368.022 128.196
L369.003 128.089
L369.101 128.028
L369.495 127.929
L369.591 127.891
L370.087 127.797
L370.181 127.689
L370.477 127.584
L370.578 127.497
L370.971 127.44
L371.068 127.341
L371.462 127.233
L371.559 127.198
L371.951 127.121
L372.049 127.02
L372.347 126.941
L372.445 126.843
L372.738 126.738
L372.836 126.635
L373.131 126.536
L373.23 126.357
L373.425 126.252
L373.527 126.068
L373.724 125.985
L373.82 125.862
L374.019 125.807
L374.114 125.683
L374.311 125.61
L374.408 125.514
L374.605 125.451
L374.705 125.35
L375 125.279
L375.099 125.076
L375.294 124.977
L375.392 124.787
L375.49 124.787
L375.596 124.537
L375.686 124.537
L375.785 124.292
L375.883 124.292
L375.984 124.044
L376.179 123.958
L376.276 123.726
L376.377 123.726
L376.475 123.373
L376.574 123.373
L376.671 123.016
L376.77 123.016
L376.867 122.68
L376.965 122.68
L377.063 122.335
L377.163 122.335
L377.26 121.965
L377.362 121.965
L377.46 121.67
L377.556 121.67
L377.653 121.442
L377.752 121.442
L377.85 121.193
L377.947 121.193
L378.048 120.857
L378.145 120.857
L378.243 120.53
L378.342 120.53
L378.439 120.145
L378.539 120.145
L378.636 119.813
L378.736 119.813
L378.833 119.5
L378.93 119.5
L379.031 119.2
L379.128 119.2
L379.227 118.934
L379.325 118.934
L379.423 118.698
L379.525 118.698
L379.619 118.417
L379.717 118.417
L379.816 118.137
L379.915 118.137
L380.012 117.822
L380.111 117.822
L380.209 117.526
L380.308 117.526
L380.405 117.309
L380.504 117.309
L380.603 117.008
L380.7 117.008
L380.799 116.668
L380.9 116.668
L380.995 116.297
L381.095 116.297
L381.192 115.976
L381.29 115.976
L381.389 115.651
L381.487 115.651
L381.585 115.29
L381.683 115.29
L381.784 114.879
L381.88 114.879
L381.978 114.477
L382.079 114.477
L382.177 114.097
L382.274 114.097
L382.374 113.729
L382.47 113.729
L382.57 113.42
L382.667 113.42
L382.765 113.101
L382.865 113.101
L382.962 112.826
L383.06 112.826
L383.158 112.562
L383.26 112.562
L383.355 112.256
L383.453 112.256
L383.552 111.956
L383.652 111.956
L383.749 111.671
L383.848 111.671
L383.946 111.439
L384.043 111.439
L384.141 111.186
L384.24 111.186
L384.339 110.943
L384.535 110.85
L384.633 110.655
L384.83 110.55
L384.928 110.337
L385.125 110.256
L385.225 110.1
L385.421 110.041
L385.518 109.842
L385.715 109.757
L385.813 109.575
L386.012 109.478
L386.108 109.256
L386.304 109.154
L386.403 108.96
L386.6 108.858
L386.697 108.73
L386.895 108.66
L386.994 108.524
L387.289 108.433
L387.385 108.316
L387.584 108.261
L387.682 108.118
L387.877 108.052
L387.975 107.871
L388.172 107.805
L388.27 107.705
L388.467 107.646
L388.566 107.517
L390.042 107.412
L390.139 107.391
L390.826 107.303
L390.927 107.263
L391.318 107.197
L391.42 107.068
L391.711 106.962
L391.811 106.861
L392.007 106.783
L392.105 106.642
L392.402 106.544
L392.498 106.411
L392.694 106.359
L392.793 106.26
L393.088 106.175
L393.186 106.105
L393.579 106.047
L393.679 105.928
L393.875 105.86
L393.972 105.732
L394.169 105.667
L394.267 105.535
L394.464 105.465
L394.562 105.28
L394.759 105.192
L394.86 105.023
L395.054 104.947
L395.152 104.764
L395.348 104.687
L395.447 104.575
L395.644 104.519
L395.745 104.36
L395.941 104.259
L396.037 104.019
L396.135 104.019
L396.234 103.734
L396.333 103.734
L396.43 103.448
L396.528 103.448
L396.626 103.131
L396.726 103.131
L396.824 102.843
L396.923 102.843
L397.02 102.576
L397.218 102.473
L397.315 102.318
L397.513 102.248
L397.61 102.149
L397.807 102.095
L397.905 101.95
L398.104 101.868
L398.2 101.675
L398.494 101.569
L398.593 101.514
L398.888 101.44
L398.987 101.358
L399.38 101.257
L399.478 101.151
L399.773 101.074
L399.871 100.951
L400.264 100.849
L400.362 100.764
L400.854 100.657
L400.952 100.603
L401.346 100.541
L401.444 100.432
L401.739 100.332
L401.837 100.276
L402.132 100.2
L402.231 100.109
L402.525 100.039
L402.624 99.9274
L402.82 99.8603
L402.919 99.6751
L403.115 99.5763
L403.214 99.3472
L403.314 99.3472
L403.41 99.1238
L403.508 99.1238
L403.606 98.8867
L403.706 98.8867
L403.804 98.6421
L403.902 98.6421
L404.001 98.3606
L404.098 98.3606
L404.198 98.0937
L404.295 98.0937
L404.393 97.7913
L404.492 97.7913
L404.59 97.4514
L404.689 97.4514
L404.787 97.129
L404.885 97.129
L404.984 96.8182
L405.082 96.8182
L405.18 96.5443
L405.279 96.5443
L405.377 96.2825
L405.474 96.2825
L405.573 96.0555
L405.671 96.0555
L405.769 95.8102
L405.869 95.8102
L405.968 95.5677
L406.064 95.5677
L406.163 95.3496
L406.36 95.251
L406.458 95.0589
L406.655 94.9559
L406.753 94.7732
L406.951 94.6714
L407.048 94.4684
L407.244 94.3952
L407.343 94.2547
L407.54 94.1704
L407.639 94.0137
L407.834 93.9285
L407.933 93.748
L408.129 93.661
L408.227 93.4158
L408.325 93.4158
L408.424 93.1812
L408.62 93.0738
L408.719 92.7829
L408.818 92.7829
L408.916 92.4834
L409.014 92.4834
L409.112 92.1646
L409.211 92.1646
L409.309 91.8293
L409.407 91.8293
L409.505 91.5313
L409.604 91.5313
L409.702 91.2538
L409.801 91.2538
L409.898 90.9633
L409.997 90.9633
L410.095 90.6904
L410.194 90.6904
L410.292 90.4341
L410.39 90.4341
L410.489 90.1855
L410.685 90.0747
L410.784 89.8646
L410.98 89.7605
L411.079 89.5168
L411.275 89.4078
L411.374 89.1558
L411.472 89.1558
L411.57 88.8459
L411.668 88.8459
L411.767 88.5476
L411.865 88.5476
L411.963 88.259
L412.061 88.259
L412.16 88.0202
L412.259 88.0202
L412.357 87.7655
L412.455 87.7655
L412.553 87.4952
L412.651 87.4952
L412.75 87.2492
L412.946 87.1383
L413.045 86.9403
L413.241 86.8403
L413.34 86.6463
L413.536 86.5566
L413.635 86.389
L413.832 86.3067
L413.929 86.1104
L414.126 86.0191
L414.224 85.867
L414.421 85.7777
L414.519 85.583
L414.716 85.5149
L414.814 85.3844
L415.109 85.2763
L415.207 85.109
L415.404 85.0042
L415.503 84.7859
L415.699 84.6823
L415.798 84.4828
L415.994 84.3926
L416.092 84.2488
L416.289 84.1868
L416.388 84.0911
L416.978 83.9847
L416.978 83.9699
L417.075 83.9745
L417.763 84.068
L417.862 84.0987
L419.14 84.1976
L419.238 84.259
L419.828 84.1811
L419.926 84.078
L420.221 83.9936
L420.32 83.9438
L420.811 83.8641
L420.91 83.7607
L421.204 83.6506
L421.303 83.5156
L421.5 83.4228
L421.598 83.2335
L421.795 83.1502
L421.892 82.9852
L422.089 82.9021
L422.188 82.7748
L422.384 82.6997
L422.483 82.5263
L422.679 82.4439
L422.777 82.2716
L422.974 82.1647
L423.072 81.9298
L423.171 81.9298
L423.269 81.6833
L423.367 81.6833
L423.465 81.4339
L423.564 81.4339
L423.662 81.1954
L423.859 81.0945
L423.957 80.9432
L424.154 80.8847
L424.252 80.7936
L424.547 80.6932
L424.646 80.574
L424.94 80.4797
L425.038 80.3844
L425.333 80.2898
L425.432 80.1835
L425.629 80.1128
L425.727 79.9882
L426.12 79.8802
L426.218 79.8328
L426.611 79.7217
L426.71 79.659
L427.201 79.5509
L427.299 79.5037
L427.693 79.4014
L427.791 79.3364
L428.184 79.2276
L428.283 79.0891
L428.479 79.0014
L428.577 78.8222
L428.676 78.8222
L428.774 78.6014
L428.971 78.5114
L429.069 78.3784
L429.364 78.2779
L429.462 78.1199
L429.659 78.0458
L429.757 77.8806
L429.955 77.8018
L430.052 77.6578
L430.249 77.5783
L430.347 77.3966
L430.544 77.2949
L430.642 77.0572
L430.741 77.0572
L430.839 76.7636
L430.937 76.7636
L431.036 76.4797
L431.134 76.4797
L431.232 76.2177
L431.428 76.1166
L431.527 75.9331
L431.724 75.8469
L431.822 75.6263
L432.018 75.5282
L432.117 75.336
L432.313 75.2574
L432.412 75.1381
L432.608 75.0724
L432.707 74.9229
L432.904 74.8644
L433.002 74.7543
L433.199 74.6952
L433.297 74.5691
L433.592 74.4634
L433.69 74.3115
L433.886 74.2291
L433.985 74.0717
L434.181 73.9782
L434.28 73.7546
L434.378 73.7546
L434.476 73.4982
L434.575 73.4982
L434.673 73.2546
L434.871 73.1474
L434.968 72.9405
L435.165 72.8411
L435.263 72.6731
L435.46 72.5877
L435.557 72.3613
L435.656 72.3613
L435.755 72.1478
L435.951 72.0588
L436.049 71.9082
L436.344 71.8161
L436.442 71.7756
L437.131 71.6693
L437.229 71.5969
L437.72 71.4946
L437.819 71.4281
L438.704 71.3385
L438.802 71.2291
L438.998 71.1767
L439.097 71.0401
L439.294 70.9618
L439.392 70.7825
L439.588 70.6794
L439.687 70.499
L439.883 70.4161
L439.982 70.2378
L440.179 70.1468
L440.276 69.9934
L440.473 69.9214
L440.572 69.7836
L440.866 69.6852
L440.965 69.6035
L441.26 69.5246
L441.358 69.4229
L441.555 69.3684
L441.653 69.2124
L441.85 69.1025
L441.948 68.8722
L442.145 68.763
L442.243 68.5923
L442.439 68.525
L442.538 68.4103
L442.734 68.3256
L442.833 68.1685
L443.029 68.09
L443.127 67.9361
L443.324 67.8509
L443.422 67.6259
L443.521 67.6259
L443.619 67.3603
L443.718 67.3603
L443.816 67.0833
L443.914 67.0833
L444.012 66.8513
L444.111 66.8513
L444.209 66.5954
L444.307 66.5954
L444.406 66.3031
L444.505 66.3031
L444.602 66.0221
L444.7 66.0221
L444.799 65.7828
L444.897 65.7828
L444.995 65.5277
L445.192 65.4302
L445.29 65.2156
L445.487 65.1171
L445.585 64.9288
L445.782 64.8428
L445.88 64.6415
L445.978 64.6415
L446.077 64.3999
L446.274 64.309
L446.372 64.1654
L446.568 64.0973
L446.667 63.9556
L446.863 63.8917
L446.962 63.7821
L447.158 63.7157
L447.257 63.5354
L447.453 63.4627
L447.551 63.3213
L447.748 63.2552
L447.846 63.1314
L448.043 63.0669
L448.141 62.9118
L448.338 62.8408
L448.436 62.717
L448.633 62.6524
L448.731 62.5578
L449.026 62.4559
L449.124 62.3139
L449.321 62.2255
L449.419 62.1024
L449.715 62.0011
L449.813 61.8833
L450.107 61.7833
L450.206 61.6553
L450.501 61.5741
L450.599 61.4679
L450.796 61.4007
L450.894 61.2319
L451.091 61.1491
L451.189 61.0087
L451.386 60.9479
L451.484 60.7984
L451.681 60.7363
L451.779 60.6419
L452.467 60.534
L452.565 60.4698
L452.86 60.3739
L452.959 60.2563
L453.155 60.2032
L453.253 60.0796
L453.548 59.9716
L453.647 59.8456
L453.844 59.7876
L453.942 59.638
L454.138 59.5741
L454.237 59.4758
L454.728 59.3737
L454.827 59.3313
L455.416 59.2376
L455.515 59.1309
L455.81 59.0511
L455.908 58.9693
L456.301 58.8732
L456.399 58.8271
L457.973 58.7279
L458.071 58.6809
L458.759 58.5726
L458.857 58.532
L459.644 58.4343
L459.742 58.3616
L460.135 58.2693
L460.234 58.1925
L460.43 58.1292
L460.528 58.0231
L460.922 57.9313
L461.02 57.8696
L461.315 57.7825
L461.413 57.6849
L461.61 57.6287
L461.708 57.5102
L462.003 57.4039
L462.101 57.3243
L462.396 57.2412
L462.495 57.1763
L462.986 57.0843
L463.085 56.9798
L463.281 56.916
L463.379 56.8154
L463.576 56.7523
L463.674 56.6171
L463.871 56.5367
L463.969 56.4267
L464.166 56.363
L464.264 56.1809
L464.363 56.1809
L464.461 55.9381
L464.559 55.9381
L464.658 55.7171
L464.756 55.7171
L464.854 55.4668
L464.952 55.4668
L465.051 55.2154
L465.247 55.1126
L465.346 54.974
L465.641 54.876
L465.739 54.7696
L466.034 54.6778
L466.132 54.5947
L466.427 54.4923
L466.525 54.352
L466.722 54.2705
L466.82 54.0917
L467.017 53.9981
L467.115 53.7789
L467.312 53.6802
L467.41 53.4309
L467.509 53.4309
L467.607 53.2138
L467.804 53.1125
L467.902 52.8975
L468 52.8975
L468.098 52.6488
L468.197 52.6488
L468.295 52.3962
L468.393 52.3962
L468.492 52.0882
L468.59 52.0882
L468.688 51.829
L468.885 51.7222
L468.983 51.5347
L469.18 51.437
L469.278 51.2501
L469.475 51.1595
L469.573 51.0269
L469.77 50.9695
L469.868 50.8413
L470.065 50.767
L470.163 50.6324
L470.458 50.534
L470.556 50.4257
L470.753 50.3668
L470.851 50.2324
L471.146 50.1332
L471.244 50.0241
L471.539 49.915
L471.638 49.8254
L471.933 49.7301
L472.031 49.5871
L472.227 49.5195
L472.326 49.4017
L472.522 49.3413
L472.621 49.206
L472.817 49.1213
L472.916 48.9265
L473.112 48.8306
L473.211 48.6366
L473.407 48.5546
L473.506 48.4041
L473.702 48.3194
L473.8 48.1136
L473.997 48.0139
L474.095 47.7932
L474.292 47.6954
L474.39 47.5601
L474.587 47.4978
L474.685 47.3337
L474.882 47.2347
L474.98 47.0221
L475.078 47.0221
L475.177 46.7873
L475.373 46.6929
L475.472 46.5385
L475.668 46.4534
L475.767 46.2916
L475.963 46.2139
L476.062 46.0542
L476.258 45.9695
L476.357 45.791
L476.553 45.7061
L476.652 45.5357
L476.848 45.4788
L476.946 45.3766
L477.241 45.2808
L477.34 45.183
L477.635 45.0907
L477.733 45.0224
L478.126 44.9257
L478.224 44.8259
L478.519 44.7326
L478.618 44.689
L479.011 44.7652
L479.109 44.8358
L480.78 44.7383
L480.879 44.7036
L481.567 44.6021
L481.665 44.5594
L482.059 44.4652
L482.157 44.3789
L482.353 44.2972
L482.452 44.1924
L482.845 44.101
L482.943 44.0286
L483.926 43.9187
L484.025 43.8663
L484.32 43.7892
L484.418 43.7076
L484.811 43.6057
L484.91 43.5281
L485.204 43.4516
L485.303 43.3615
L485.598 43.2781
L485.696 43.1434
L485.991 43.0426
L486.089 42.9864
L488.055 42.881
L488.154 42.8054
L488.449 42.7234
L488.547 42.6223
L488.842 42.5158
L488.94 42.4212
L489.334 42.3402
L489.432 42.2588
L489.727 42.1616
L489.825 42.0417
L490.022 41.9687
L490.12 41.8211
L490.317 41.7231
L490.415 41.5281
L490.612 41.4225
L490.71 41.2444
L490.907 41.1575
L491.005 40.9964
L491.201 40.9217
L491.3 40.7591
L491.595 40.6614
L491.693 40.5795
L491.988 40.4983
L492.086 40.4362
L493.069 40.3355
L493.168 40.2422
L493.364 40.1896
L493.463 40.0711
L493.758 39.9727
L493.856 39.8472
L494.052 39.7813
L494.151 39.6153
L494.347 39.5316
L494.446 39.3669
L494.642 39.2703
L494.741 39.0682
L494.937 38.9679
L495.036 38.8177
L495.232 38.7496
L495.331 38.6092
L495.625 38.5056
L495.724 38.4188
L496.117 38.3133
L496.215 38.2409
L496.51 38.1683
L496.609 38.0746
L496.805 38.0167
L496.904 37.8592
L497.1 37.7964
L497.198 37.6674
L497.395 37.5851
L497.493 37.4266
L497.69 37.3303
L497.788 37.0973
L497.985 36.9879
L498.083 36.7854
L498.28 36.6927
L498.378 36.5081
L498.575 36.4207
L498.673 36.2131
L498.87 36.1045
L498.968 35.9206
L499.165 35.8236
L499.263 35.6288
L499.46 35.5317
L499.558 35.3166
L499.656 35.3166
L499.754 35.095
L499.951 34.9845
L500.049 34.7767
L500.246 34.6791
L500.344 34.4896
L500.541 34.4089
L500.639 34.2626
L500.836 34.1732
L500.934 34.0033
L501.131 33.9305
L501.229 33.7974
L501.426 33.728
L501.524 33.5681
L501.721 33.4956
L501.819 33.3472
L502.016 33.2696
L502.114 33.1207
L502.409 33.0105
L502.507 32.911
L502.802 32.8072
L502.9 32.696
L503.097 32.6367
L503.195 32.5166
L503.392 32.4494
L503.49 32.3179
L503.687 32.2587
L503.785 32.1367
L503.982 32.0702
L504.08 31.9331
L504.375 31.8222
L504.473 31.6971
L504.67 31.622
L504.768 31.4668
L504.965 31.4007
L505.063 31.2954
L505.358 31.1949
L505.457 31.1206
L505.751 31.0305
L505.85 30.9534
L507.226 31.045
L507.324 31.1173
L508.013 31.2154
L508.111 31.2763
L511.65 31.1734
L511.748 31.0845
L511.945 31.0339
L512.043 30.9075
L512.24 30.8485
L512.338 30.7352
L512.732 30.6258
L512.83 30.556
L513.125 30.4545
L513.223 30.3504
L513.42 30.279
L513.518 30.1225
L513.715 30.0529
L513.813 29.9186
L514.01 29.8329
L514.108 29.6942
L514.304 29.6213
L514.403 29.4494
L514.599 29.3642
L514.698 29.2242
L514.894 29.1515
L514.993 29.0255
L515.189 28.9552
L515.288 28.8132
L515.484 28.7336
L515.583 28.5882
L515.779 28.5122
L515.877 28.3574
L516.074 28.2794
L516.172 28.0876
L516.369 27.9906
L516.467 27.8062
L516.664 27.7074
L516.762 27.5341
L516.959 27.4448
L517.057 27.2689
L517.254 27.1884
L517.352 27.048
L517.647 26.9451
L517.745 26.8767
L518.04 26.7889
L518.139 26.7137
L518.532 26.6188
L518.63 26.5358
L518.925 26.4594
L519.023 26.3963
L519.515 26.3132
L519.613 26.226
L520.498 26.1221
L520.596 26.0928
L522.071 25.994
L522.169 25.9451
L522.759 25.8428
L522.858 25.8057
L523.349 25.7102
L523.447 25.6643
L523.841 25.5782
L523.939 25.496
L524.234 25.4097
L524.332 25.3141
L525.315 25.2176
L525.414 25.1513
L525.709 25.0614
L525.807 24.9487
L526.003 24.8881
L526.102 24.7546
L526.298 24.6744
L526.397 24.5121
L526.593 24.4381
L526.692 24.3055
L526.987 24.1944
L527.085 24.1064
L527.38 24.0031
L527.478 23.8944
L527.97 23.7868
L528.068 23.7447
L528.56 23.657
L528.658 23.574
L528.854 23.5181
L528.953 23.3989
L529.248 23.2968
L529.346 23.1812
L529.641 23.0941
L529.739 23.0351
L530.034 22.9562
L530.133 22.8666
L530.329 22.7965
L530.427 22.6619
L530.624 22.5945
L530.722 22.4592
L531.017 22.3485
L531.116 22.2198
L531.312 22.1272
L531.411 21.9219
L531.607 21.8174
L531.706 21.617
L531.902 21.5116
L532 21.3055
L532.197 21.2118
L532.295 21.0402
L532.492 20.9621
L532.59 20.7794
L532.787 20.6825
L532.885 20.4618
L533.082 20.3522
L533.18 20.1071
L533.278 20.1071
L533.377 19.8427
L533.475 19.8427
L533.573 19.5767
L533.672 19.5767
L533.77 19.3308
L533.967 19.2252
L534.065 19.0228
L534.262 18.9353
L534.36 18.7523
L534.557 18.6757
L534.655 18.5262
L534.851 18.4672
L534.95 18.3565
L535.245 18.2664
L535.343 18.1622
L535.638 18.074
L535.736 18.0215
L536.621 17.9471
L536.719 17.8754
L537.211 17.7767
L537.309 17.7034
L537.801 17.6115
L537.899 17.551
L538.194 17.4739
L538.292 17.3727
L538.489 17.3071
L538.587 17.1926
L538.882 17.0912
L538.981 17.0205
L539.472 16.9255
L539.57 16.8774
L540.652 16.7809
L540.75 16.7477
L541.438 16.6532
L541.537 16.5998
L541.93 16.504
L542.028 16.4075
L542.323 16.3241
L542.421 16.2534
L543.601 16.1473
L543.699 16.1304
L544.486 16.0195
L544.584 15.9686
L544.879 15.8996
L544.977 15.8144
L545.371 15.7276
L545.469 15.6674
L545.862 15.5606
L545.961 15.5091
L546.55 15.4182
L546.649 15.3247
L546.944 15.2427
L547.042 15.1836
L547.632 15.0895
L547.73 15.0571
L548.025 15.0159
L548.025 15.0092" style="fill:none;stroke:#0000ff;stroke-width:5.0;"/>
   </g>
   <g id="matplotlib.axis_1">
    <g id="xtick_1">
     <g id="line2d_2">
      <path d="
M189.895 413.28
L189.895 7.2" style="fill:none;stroke:#000000;stroke-dasharray:1.000000,3.000000;stroke-dashoffset:0.0;stroke-linecap:butt;stroke-width:0.5;"/>
     </g>
     <g id="line2d_3">
      <defs>
       <path d="
M0 0
L0 -4" id="m3fbe6c24f1"/>
      </defs>
      <g>
       <use style="stroke:#000000;stroke-linecap:butt;stroke-width:0.5;" x="189.895397706" xlink:href="#m3fbe6c24f1" y="155.497870826"/>
      </g>
     </g>
     <g id="text_1">
      <!-- 5 -->
      <defs>
       <path d="
M10.7969 72.9062
L49.5156 72.9062
L49.5156 64.5938
L19.8281 64.5938
L19.8281 46.7344
Q21.9688 47.4688 24.1094 47.8281
Q26.2656 48.1875 28.4219 48.1875
Q40.625 48.1875 47.75 41.5
Q54.8906 34.8125 54.8906 23.3906
Q54.8906 11.625 47.5625 5.09375
Q40.2344 -1.42188 26.9062 -1.42188
Q22.3125 -1.42188 17.5469 -0.640625
Q12.7969 0.140625 7.71875 1.70312
L7.71875 11.625
Q12.1094 9.23438 16.7969 8.0625
Q21.4844 6.89062 26.7031 6.89062
Q35.1562 6.89062 40.0781 11.3281
Q45.0156 15.7656 45.0156 23.3906
Q45.0156 31 40.0781 35.4375
Q35.1562 39.8906 26.7031 39.8906
Q22.75 39.8906 18.8125 39.0156
Q14.8906 38.1406 10.7969 36.2812
z
" id="BitstreamVeraSans-Roman-35"/>
      </defs>
      <g transform="translate(184.234772706 176.995370826)scale(0.24 -0.24)">
       <use xlink:href="#BitstreamVeraSans-Roman-35"/>
      </g>
     </g>
    </g>
    <g id="xtick_2">
     <g id="line2d_4">
      <path d="
M323.32 413.28
L323.32 7.2" style="fill:none;stroke:#000000;stroke-dasharray:1.000000,3.000000;stroke-dashoffset:0.0;stroke-linecap:butt;stroke-width:0.5;"/>
     </g>
     <g id="line2d_5">
      <defs>
       <path d="
M0 0
L0 -4" id="m3fbe6c24f1"/>
      </defs>
      <g>
       <use style="stroke:#000000;stroke-linecap:butt;stroke-width:0.5;" x="323.319963946" xlink:href="#m3fbe6c24f1" y="155.497870826"/>
      </g>
     </g>
     <g id="text_2">
      <!-- 10 -->
      <defs>
       <path d="
M31.7812 66.4062
Q24.1719 66.4062 20.3281 58.9062
Q16.5 51.4219 16.5 36.375
Q16.5 21.3906 20.3281 13.8906
Q24.1719 6.39062 31.7812 6.39062
Q39.4531 6.39062 43.2812 13.8906
Q47.125 21.3906 47.125 36.375
Q47.125 51.4219 43.2812 58.9062
Q39.4531 66.4062 31.7812 66.4062
M31.7812 74.2188
Q44.0469 74.2188 50.5156 64.5156
Q56.9844 54.8281 56.9844 36.375
Q56.9844 17.9688 50.5156 8.26562
Q44.0469 -1.42188 31.7812 -1.42188
Q19.5312 -1.42188 13.0625 8.26562
Q6.59375 17.9688 6.59375 36.375
Q6.59375 54.8281 13.0625 64.5156
Q19.5312 74.2188 31.7812 74.2188" id="BitstreamVeraSans-Roman-30"/>
       <path d="
M12.4062 8.29688
L28.5156 8.29688
L28.5156 63.9219
L10.9844 60.4062
L10.9844 69.3906
L28.4219 72.9062
L38.2812 72.9062
L38.2812 8.29688
L54.3906 8.29688
L54.3906 0
L12.4062 0
z
" id="BitstreamVeraSans-Roman-31"/>
      </defs>
      <g transform="translate(310.164963946 177.310370826)scale(0.24 -0.24)">
       <use xlink:href="#BitstreamVeraSans-Roman-31"/>
       <use x="63.623046875" xlink:href="#BitstreamVeraSans-Roman-30"/>
      </g>
     </g>
    </g>
    <g id="xtick_3">
     <g id="line2d_6">
      <path d="
M456.745 413.28
L456.745 7.2" style="fill:none;stroke:#000000;stroke-dasharray:1.000000,3.000000;stroke-dashoffset:0.0;stroke-linecap:butt;stroke-width:0.5;"/>
     </g>
     <g id="line2d_7">
      <defs>
       <path d="
M0 0
L0 -4" id="m3fbe6c24f1"/>
      </defs>
      <g>
       <use style="stroke:#000000;stroke-linecap:butt;stroke-width:0.5;" x="456.744530187" xlink:href="#m3fbe6c24f1" y="155.497870826"/>
      </g>
     </g>
     <g id="text_3">
      <!-- 15 -->
      <g transform="translate(443.840780187 176.995370826)scale(0.24 -0.24)">
       <use xlink:href="#BitstreamVeraSans-Roman-31"/>
       <use x="63.623046875" xlink:href="#BitstreamVeraSans-Roman-35"/>
      </g>
     </g>
    </g>
    <g id="xtick_4">
     <g id="line2d_8">
      <defs>
       <path d="
M0 0
L0 -2" id="mf0ff38ea95"/>
      </defs>
      <g>
       <use style="stroke:#000000;stroke-linecap:butt;stroke-width:0.5;" x="83.1557447129" xlink:href="#mf0ff38ea95" y="155.497870826"/>
      </g>
     </g>
    </g>
    <g id="xtick_5">
     <g id="line2d_9">
      <defs>
       <path d="
M0 0
L0 -2" id="mf0ff38ea95"/>
      </defs>
      <g>
       <use style="stroke:#000000;stroke-linecap:butt;stroke-width:0.5;" x="109.840657961" xlink:href="#mf0ff38ea95" y="155.497870826"/>
      </g>
     </g>
    </g>
    <g id="xtick_6">
     <g id="line2d_10">
      <defs>
       <path d="
M0 0
L0 -2" id="mf0ff38ea95"/>
      </defs>
      <g>
       <use style="stroke:#000000;stroke-linecap:butt;stroke-width:0.5;" x="136.525571209" xlink:href="#mf0ff38ea95" y="155.497870826"/>
      </g>
     </g>
    </g>
    <g id="xtick_7">
     <g id="line2d_11">
      <defs>
       <path d="
M0 0
L0 -2" id="mf0ff38ea95"/>
      </defs>
      <g>
       <use style="stroke:#000000;stroke-linecap:butt;stroke-width:0.5;" x="163.210484457" xlink:href="#mf0ff38ea95" y="155.497870826"/>
      </g>
     </g>
    </g>
    <g id="xtick_8">
     <g id="line2d_12">
      <defs>
       <path d="
M0 0
L0 -2" id="mf0ff38ea95"/>
      </defs>
      <g>
       <use style="stroke:#000000;stroke-linecap:butt;stroke-width:0.5;" x="216.580310954" xlink:href="#mf0ff38ea95" y="155.497870826"/>
      </g>
     </g>
    </g>
    <g id="xtick_9">
     <g id="line2d_13">
      <defs>
       <path d="
M0 0
L0 -2" id="mf0ff38ea95"/>
      </defs>
      <g>
       <use style="stroke:#000000;stroke-linecap:butt;stroke-width:0.5;" x="243.265224202" xlink:href="#mf0ff38ea95" y="155.497870826"/>
      </g>
     </g>
    </g>
    <g id="xtick_10">
     <g id="line2d_14">
      <defs>
       <path d="
M0 0
L0 -2" id="mf0ff38ea95"/>
      </defs>
      <g>
       <use style="stroke:#000000;stroke-linecap:butt;stroke-width:0.5;" x="269.95013745" xlink:href="#mf0ff38ea95" y="155.497870826"/>
      </g>
     </g>
    </g>
    <g id="xtick_11">
     <g id="line2d_15">
      <defs>
       <path d="
M0 0
L0 -2" id="mf0ff38ea95"/>
      </defs>
      <g>
       <use style="stroke:#000000;stroke-linecap:butt;stroke-width:0.5;" x="296.635050698" xlink:href="#mf0ff38ea95" y="155.497870826"/>
      </g>
     </g>
    </g>
    <g id="xtick_12">
     <g id="line2d_16">
      <defs>
       <path d="
M0 0
L0 -2" id="mf0ff38ea95"/>
      </defs>
      <g>
       <use style="stroke:#000000;stroke-linecap:butt;stroke-width:0.5;" x="350.004877195" xlink:href="#mf0ff38ea95" y="155.497870826"/>
      </g>
     </g>
    </g>
    <g id="xtick_13">
     <g id="line2d_17">
      <defs>
       <path d="
M0 0
L0 -2" id="mf0ff38ea95"/>
      </defs>
      <g>
       <use style="stroke:#000000;stroke-linecap:butt;stroke-width:0.5;" x="376.689790443" xlink:href="#mf0ff38ea95" y="155.497870826"/>
      </g>
     </g>
    </g>
    <g id="xtick_14">
     <g id="line2d_18">
      <defs>
       <path d="
M0 0
L0 -2" id="mf0ff38ea95"/>
      </defs>
      <g>
       <use style="stroke:#000000;stroke-linecap:butt;stroke-width:0.5;" x="403.374703691" xlink:href="#mf0ff38ea95" y="155.497870826"/>
      </g>
     </g>
    </g>
    <g id="xtick_15">
     <g id="line2d_19">
      <defs>
       <path d="
M0 0
L0 -2" id="mf0ff38ea95"/>
      </defs>
      <g>
       <use style="stroke:#000000;stroke-linecap:butt;stroke-width:0.5;" x="430.059616939" xlink:href="#mf0ff38ea95" y="155.497870826"/>
      </g>
     </g>
    </g>
    <g id="xtick_16">
     <g id="line2d_20">
      <defs>
       <path d="
M0 0
L0 -2" id="mf0ff38ea95"/>
      </defs>
      <g>
       <use style="stroke:#000000;stroke-linecap:butt;stroke-width:0.5;" x="483.429443435" xlink:href="#mf0ff38ea95" y="155.497870826"/>
      </g>
     </g>
    </g>
    <g id="xtick_17">
     <g id="line2d_21">
      <defs>
       <path d="
M0 0
L0 -2" id="mf0ff38ea95"/>
      </defs>
      <g>
       <use style="stroke:#000000;stroke-linecap:butt;stroke-width:0.5;" x="510.114356683" xlink:href="#mf0ff38ea95" y="155.497870826"/>
      </g>
     </g>
    </g>
   </g>
   <g id="matplotlib.axis_2">
    <g id="ytick_1">
     <g id="line2d_22">
      <path d="
M65.5062 388.977
L557.486 388.977" style="fill:none;stroke:#000000;stroke-dasharray:1.000000,3.000000;stroke-dashoffset:0.0;stroke-linecap:butt;stroke-width:0.5;"/>
     </g>
     <g id="line2d_23">
      <defs>
       <path d="
M0 0
L4 0" id="mc91e532072"/>
      </defs>
      <g>
       <use style="stroke:#000000;stroke-linecap:butt;stroke-width:0.5;" x="55.50625" xlink:href="#mc91e532072" y="388.976861885"/>
      </g>
     </g>
     <g id="text_4">
      <!-- -0.8 -->
      <defs>
       <path d="
M31.7812 34.625
Q24.75 34.625 20.7188 30.8594
Q16.7031 27.0938 16.7031 20.5156
Q16.7031 13.9219 20.7188 10.1562
Q24.75 6.39062 31.7812 6.39062
Q38.8125 6.39062 42.8594 10.1719
Q46.9219 13.9688 46.9219 20.5156
Q46.9219 27.0938 42.8906 30.8594
Q38.875 34.625 31.7812 34.625
M21.9219 38.8125
Q15.5781 40.375 12.0312 44.7188
Q8.5 49.0781 8.5 55.3281
Q8.5 64.0625 14.7188 69.1406
Q20.9531 74.2188 31.7812 74.2188
Q42.6719 74.2188 48.875 69.1406
Q55.0781 64.0625 55.0781 55.3281
Q55.0781 49.0781 51.5312 44.7188
Q48 40.375 41.7031 38.8125
Q48.8281 37.1562 52.7969 32.3125
Q56.7812 27.4844 56.7812 20.5156
Q56.7812 9.90625 50.3125 4.23438
Q43.8438 -1.42188 31.7812 -1.42188
Q19.7344 -1.42188 13.25 4.23438
Q6.78125 9.90625 6.78125 20.5156
Q6.78125 27.4844 10.7812 32.3125
Q14.7969 37.1562 21.9219 38.8125
M18.3125 54.3906
Q18.3125 48.7344 21.8438 45.5625
Q25.3906 42.3906 31.7812 42.3906
Q38.1406 42.3906 41.7188 45.5625
Q45.3125 48.7344 45.3125 54.3906
Q45.3125 60.0625 41.7188 63.2344
Q38.1406 66.4062 31.7812 66.4062
Q25.3906 66.4062 21.8438 63.2344
Q18.3125 60.0625 18.3125 54.3906" id="BitstreamVeraSans-Roman-38"/>
       <path d="
M10.6875 12.4062
L21 12.4062
L21 0
L10.6875 0
z
" id="BitstreamVeraSans-Roman-2e"/>
       <path d="
M4.89062 31.3906
L31.2031 31.3906
L31.2031 23.3906
L4.89062 23.3906
z
" id="BitstreamVeraSans-Roman-2d"/>
      </defs>
      <g transform="translate(7.49625 397.712486885)scale(0.24 -0.24)">
       <use xlink:href="#BitstreamVeraSans-Roman-2d"/>
       <use x="36.083984375" xlink:href="#BitstreamVeraSans-Roman-30"/>
       <use x="99.70703125" xlink:href="#BitstreamVeraSans-Roman-2e"/>
       <use x="131.494140625" xlink:href="#BitstreamVeraSans-Roman-38"/>
      </g>
     </g>
    </g>
    <g id="ytick_2">
     <g id="line2d_24">
      <path d="
M65.5062 330.607
L557.486 330.607" style="fill:none;stroke:#000000;stroke-dasharray:1.000000,3.000000;stroke-dashoffset:0.0;stroke-linecap:butt;stroke-width:0.5;"/>
     </g>
     <g id="line2d_25">
      <defs>
       <path d="
M0 0
L4 0" id="mc91e532072"/>
      </defs>
      <g>
       <use style="stroke:#000000;stroke-linecap:butt;stroke-width:0.5;" x="55.50625" xlink:href="#mc91e532072" y="330.60711412"/>
      </g>
     </g>
     <g id="text_5">
      <!-- -0.6 -->
      <defs>
       <path d="
M33.0156 40.375
Q26.375 40.375 22.4844 35.8281
Q18.6094 31.2969 18.6094 23.3906
Q18.6094 15.5312 22.4844 10.9531
Q26.375 6.39062 33.0156 6.39062
Q39.6562 6.39062 43.5312 10.9531
Q47.4062 15.5312 47.4062 23.3906
Q47.4062 31.2969 43.5312 35.8281
Q39.6562 40.375 33.0156 40.375
M52.5938 71.2969
L52.5938 62.3125
Q48.875 64.0625 45.0938 64.9844
Q41.3125 65.9219 37.5938 65.9219
Q27.8281 65.9219 22.6719 59.3281
Q17.5312 52.7344 16.7969 39.4062
Q19.6719 43.6562 24.0156 45.9219
Q28.375 48.1875 33.5938 48.1875
Q44.5781 48.1875 50.9531 41.5156
Q57.3281 34.8594 57.3281 23.3906
Q57.3281 12.1562 50.6875 5.35938
Q44.0469 -1.42188 33.0156 -1.42188
Q20.3594 -1.42188 13.6719 8.26562
Q6.98438 17.9688 6.98438 36.375
Q6.98438 53.6562 15.1875 63.9375
Q23.3906 74.2188 37.2031 74.2188
Q40.9219 74.2188 44.7031 73.4844
Q48.4844 72.75 52.5938 71.2969" id="BitstreamVeraSans-Roman-36"/>
      </defs>
      <g transform="translate(7.365 339.34273912)scale(0.24 -0.24)">
       <use xlink:href="#BitstreamVeraSans-Roman-2d"/>
       <use x="36.083984375" xlink:href="#BitstreamVeraSans-Roman-30"/>
       <use x="99.70703125" xlink:href="#BitstreamVeraSans-Roman-2e"/>
       <use x="131.494140625" xlink:href="#BitstreamVeraSans-Roman-36"/>
      </g>
     </g>
    </g>
    <g id="ytick_3">
     <g id="line2d_26">
      <path d="
M65.5062 272.237
L557.486 272.237" style="fill:none;stroke:#000000;stroke-dasharray:1.000000,3.000000;stroke-dashoffset:0.0;stroke-linecap:butt;stroke-width:0.5;"/>
     </g>
     <g id="line2d_27">
      <defs>
       <path d="
M0 0
L4 0" id="mc91e532072"/>
      </defs>
      <g>
       <use style="stroke:#000000;stroke-linecap:butt;stroke-width:0.5;" x="55.50625" xlink:href="#mc91e532072" y="272.237366356"/>
      </g>
     </g>
     <g id="text_6">
      <!-- -0.4 -->
      <defs>
       <path d="
M37.7969 64.3125
L12.8906 25.3906
L37.7969 25.3906
z

M35.2031 72.9062
L47.6094 72.9062
L47.6094 25.3906
L58.0156 25.3906
L58.0156 17.1875
L47.6094 17.1875
L47.6094 0
L37.7969 0
L37.7969 17.1875
L4.89062 17.1875
L4.89062 26.7031
z
" id="BitstreamVeraSans-Roman-34"/>
      </defs>
      <g transform="translate(7.2 280.972991356)scale(0.24 -0.24)">
       <use xlink:href="#BitstreamVeraSans-Roman-2d"/>
       <use x="36.083984375" xlink:href="#BitstreamVeraSans-Roman-30"/>
       <use x="99.70703125" xlink:href="#BitstreamVeraSans-Roman-2e"/>
       <use x="131.494140625" xlink:href="#BitstreamVeraSans-Roman-34"/>
      </g>
     </g>
    </g>
    <g id="ytick_4">
     <g id="line2d_28">
      <path d="
M65.5062 213.868
L557.486 213.868" style="fill:none;stroke:#000000;stroke-dasharray:1.000000,3.000000;stroke-dashoffset:0.0;stroke-linecap:butt;stroke-width:0.5;"/>
     </g>
     <g id="line2d_29">
      <defs>
       <path d="
M0 0
L4 0" id="mc91e532072"/>
      </defs>
      <g>
       <use style="stroke:#000000;stroke-linecap:butt;stroke-width:0.5;" x="55.50625" xlink:href="#mc91e532072" y="213.867618591"/>
      </g>
     </g>
     <g id="text_7">
      <!-- -0.2 -->
      <defs>
       <path d="
M19.1875 8.29688
L53.6094 8.29688
L53.6094 0
L7.32812 0
L7.32812 8.29688
Q12.9375 14.1094 22.625 23.8906
Q32.3281 33.6875 34.8125 36.5312
Q39.5469 41.8438 41.4219 45.5312
Q43.3125 49.2188 43.3125 52.7812
Q43.3125 58.5938 39.2344 62.25
Q35.1562 65.9219 28.6094 65.9219
Q23.9688 65.9219 18.8125 64.3125
Q13.6719 62.7031 7.8125 59.4219
L7.8125 69.3906
Q13.7656 71.7812 18.9375 73
Q24.125 74.2188 28.4219 74.2188
Q39.75 74.2188 46.4844 68.5469
Q53.2188 62.8906 53.2188 53.4219
Q53.2188 48.9219 51.5312 44.8906
Q49.8594 40.875 45.4062 35.4062
Q44.1875 33.9844 37.6406 27.2188
Q31.1094 20.4531 19.1875 8.29688" id="BitstreamVeraSans-Roman-32"/>
      </defs>
      <g transform="translate(8.2575 222.603243591)scale(0.24 -0.24)">
       <use xlink:href="#BitstreamVeraSans-Roman-2d"/>
       <use x="36.083984375" xlink:href="#BitstreamVeraSans-Roman-30"/>
       <use x="99.70703125" xlink:href="#BitstreamVeraSans-Roman-2e"/>
       <use x="131.494140625" xlink:href="#BitstreamVeraSans-Roman-32"/>
      </g>
     </g>
    </g>
    <g id="ytick_5">
     <g id="line2d_30">
      <path d="
M65.5062 155.498
L557.486 155.498" style="fill:none;stroke:#000000;stroke-dasharray:1.000000,3.000000;stroke-dashoffset:0.0;stroke-linecap:butt;stroke-width:0.5;"/>
     </g>
     <g id="line2d_31">
      <defs>
       <path d="
M0 0
L4 0" id="mc91e532072"/>
      </defs>
      <g>
       <use style="stroke:#000000;stroke-linecap:butt;stroke-width:0.5;" x="55.50625" xlink:href="#mc91e532072" y="155.497870826"/>
      </g>
     </g>
     <g id="text_8">
      <!-- 0 -->
      <g transform="translate(39.4125 164.233495826)scale(0.24 -0.24)">
       <use xlink:href="#BitstreamVeraSans-Roman-30"/>
      </g>
     </g>
    </g>
    <g id="ytick_6">
     <g id="line2d_32">
      <path d="
M65.5062 97.1281
L557.486 97.1281" style="fill:none;stroke:#000000;stroke-dasharray:1.000000,3.000000;stroke-dashoffset:0.0;stroke-linecap:butt;stroke-width:0.5;"/>
     </g>
     <g id="line2d_33">
      <defs>
       <path d="
M0 0
L4 0" id="mc91e532072"/>
      </defs>
      <g>
       <use style="stroke:#000000;stroke-linecap:butt;stroke-width:0.5;" x="55.50625" xlink:href="#mc91e532072" y="97.1281230618"/>
      </g>
     </g>
     <g id="text_9">
      <!-- 0.2 -->
      <g transform="translate(17.325 105.863748062)scale(0.24 -0.24)">
       <use xlink:href="#BitstreamVeraSans-Roman-30"/>
       <use x="63.623046875" xlink:href="#BitstreamVeraSans-Roman-2e"/>
       <use x="95.41015625" xlink:href="#BitstreamVeraSans-Roman-32"/>
      </g>
     </g>
    </g>
    <g id="ytick_7">
     <g id="line2d_34">
      <path d="
M65.5062 38.7584
L557.486 38.7584" style="fill:none;stroke:#000000;stroke-dasharray:1.000000,3.000000;stroke-dashoffset:0.0;stroke-linecap:butt;stroke-width:0.5;"/>
     </g>
     <g id="line2d_35">
      <defs>
       <path d="
M0 0
L4 0" id="mc91e532072"/>
      </defs>
      <g>
       <use style="stroke:#000000;stroke-linecap:butt;stroke-width:0.5;" x="55.50625" xlink:href="#mc91e532072" y="38.7583752973"/>
      </g>
     </g>
     <g id="text_10">
      <!-- 0.4 -->
      <g transform="translate(16.2675 47.4940002973)scale(0.24 -0.24)">
       <use xlink:href="#BitstreamVeraSans-Roman-30"/>
       <use x="63.623046875" xlink:href="#BitstreamVeraSans-Roman-2e"/>
       <use x="95.41015625" xlink:href="#BitstreamVeraSans-Roman-34"/>
      </g>
     </g>
    </g>
    <g id="ytick_8">
     <g id="line2d_36">
      <defs>
       <path d="
M0 0
L2 0" id="m0789224b6b"/>
      </defs>
      <g>
       <use style="stroke:#000000;stroke-linecap:butt;stroke-width:0.5;" x="55.50625" xlink:href="#m0789224b6b" y="403.569298826"/>
      </g>
     </g>
    </g>
    <g id="ytick_9">
     <g id="line2d_37">
      <defs>
       <path d="
M0 0
L2 0" id="m0789224b6b"/>
      </defs>
      <g>
       <use style="stroke:#000000;stroke-linecap:butt;stroke-width:0.5;" x="55.50625" xlink:href="#m0789224b6b" y="374.384424944"/>
      </g>
     </g>
    </g>
    <g id="ytick_10">
     <g id="line2d_38">
      <defs>
       <path d="
M0 0
L2 0" id="m0789224b6b"/>
      </defs>
      <g>
       <use style="stroke:#000000;stroke-linecap:butt;stroke-width:0.5;" x="55.50625" xlink:href="#m0789224b6b" y="359.791988003"/>
      </g>
     </g>
    </g>
    <g id="ytick_11">
     <g id="line2d_39">
      <defs>
       <path d="
M0 0
L2 0" id="m0789224b6b"/>
      </defs>
      <g>
       <use style="stroke:#000000;stroke-linecap:butt;stroke-width:0.5;" x="55.50625" xlink:href="#m0789224b6b" y="345.199551061"/>
      </g>
     </g>
    </g>
    <g id="ytick_12">
     <g id="line2d_40">
      <defs>
       <path d="
M0 0
L2 0" id="m0789224b6b"/>
      </defs>
      <g>
       <use style="stroke:#000000;stroke-linecap:butt;stroke-width:0.5;" x="55.50625" xlink:href="#m0789224b6b" y="316.014677179"/>
      </g>
     </g>
    </g>
    <g id="ytick_13">
     <g id="line2d_41">
      <defs>
       <path d="
M0 0
L2 0" id="m0789224b6b"/>
      </defs>
      <g>
       <use style="stroke:#000000;stroke-linecap:butt;stroke-width:0.5;" x="55.50625" xlink:href="#m0789224b6b" y="301.422240238"/>
      </g>
     </g>
    </g>
    <g id="ytick_14">
     <g id="line2d_42">
      <defs>
       <path d="
M0 0
L2 0" id="m0789224b6b"/>
      </defs>
      <g>
       <use style="stroke:#000000;stroke-linecap:butt;stroke-width:0.5;" x="55.50625" xlink:href="#m0789224b6b" y="286.829803297"/>
      </g>
     </g>
    </g>
    <g id="ytick_15">
     <g id="line2d_43">
      <defs>
       <path d="
M0 0
L2 0" id="m0789224b6b"/>
      </defs>
      <g>
       <use style="stroke:#000000;stroke-linecap:butt;stroke-width:0.5;" x="55.50625" xlink:href="#m0789224b6b" y="257.644929414"/>
      </g>
     </g>
    </g>
    <g id="ytick_16">
     <g id="line2d_44">
      <defs>
       <path d="
M0 0
L2 0" id="m0789224b6b"/>
      </defs>
      <g>
       <use style="stroke:#000000;stroke-linecap:butt;stroke-width:0.5;" x="55.50625" xlink:href="#m0789224b6b" y="243.052492473"/>
      </g>
     </g>
    </g>
    <g id="ytick_17">
     <g id="line2d_45">
      <defs>
       <path d="
M0 0
L2 0" id="m0789224b6b"/>
      </defs>
      <g>
       <use style="stroke:#000000;stroke-linecap:butt;stroke-width:0.5;" x="55.50625" xlink:href="#m0789224b6b" y="228.460055532"/>
      </g>
     </g>
    </g>
    <g id="ytick_18">
     <g id="line2d_46">
      <defs>
       <path d="
M0 0
L2 0" id="m0789224b6b"/>
      </defs>
      <g>
       <use style="stroke:#000000;stroke-linecap:butt;stroke-width:0.5;" x="55.50625" xlink:href="#m0789224b6b" y="199.27518165"/>
      </g>
     </g>
    </g>
    <g id="ytick_19">
     <g id="line2d_47">
      <defs>
       <path d="
M0 0
L2 0" id="m0789224b6b"/>
      </defs>
      <g>
       <use style="stroke:#000000;stroke-linecap:butt;stroke-width:0.5;" x="55.50625" xlink:href="#m0789224b6b" y="184.682744709"/>
      </g>
     </g>
    </g>
    <g id="ytick_20">
     <g id="line2d_48">
      <defs>
       <path d="
M0 0
L2 0" id="m0789224b6b"/>
      </defs>
      <g>
       <use style="stroke:#000000;stroke-linecap:butt;stroke-width:0.5;" x="55.50625" xlink:href="#m0789224b6b" y="170.090307768"/>
      </g>
     </g>
    </g>
    <g id="ytick_21">
     <g id="line2d_49">
      <defs>
       <path d="
M0 0
L2 0" id="m0789224b6b"/>
      </defs>
      <g>
       <use style="stroke:#000000;stroke-linecap:butt;stroke-width:0.5;" x="55.50625" xlink:href="#m0789224b6b" y="140.905433885"/>
      </g>
     </g>
    </g>
    <g id="ytick_22">
     <g id="line2d_50">
      <defs>
       <path d="
M0 0
L2 0" id="m0789224b6b"/>
      </defs>
      <g>
       <use style="stroke:#000000;stroke-linecap:butt;stroke-width:0.5;" x="55.50625" xlink:href="#m0789224b6b" y="126.312996944"/>
      </g>
     </g>
    </g>
    <g id="ytick_23">
     <g id="line2d_51">
      <defs>
       <path d="
M0 0
L2 0" id="m0789224b6b"/>
      </defs>
      <g>
       <use style="stroke:#000000;stroke-linecap:butt;stroke-width:0.5;" x="55.50625" xlink:href="#m0789224b6b" y="111.720560003"/>
      </g>
     </g>
    </g>
    <g id="ytick_24">
     <g id="line2d_52">
      <defs>
       <path d="
M0 0
L2 0" id="m0789224b6b"/>
      </defs>
      <g>
       <use style="stroke:#000000;stroke-linecap:butt;stroke-width:0.5;" x="55.50625" xlink:href="#m0789224b6b" y="82.5356861207"/>
      </g>
     </g>
    </g>
    <g id="ytick_25">
     <g id="line2d_53">
      <defs>
       <path d="
M0 0
L2 0" id="m0789224b6b"/>
      </defs>
      <g>
       <use style="stroke:#000000;stroke-linecap:butt;stroke-width:0.5;" x="55.50625" xlink:href="#m0789224b6b" y="67.9432491795"/>
      </g>
     </g>
    </g>
    <g id="ytick_26">
     <g id="line2d_54">
      <defs>
       <path d="
M0 0
L2 0" id="m0789224b6b"/>
      </defs>
      <g>
       <use style="stroke:#000000;stroke-linecap:butt;stroke-width:0.5;" x="55.50625" xlink:href="#m0789224b6b" y="53.3508122384"/>
      </g>
     </g>
    </g>
    <g id="ytick_27">
     <g id="line2d_55">
      <defs>
       <path d="
M0 0
L2 0" id="m0789224b6b"/>
      </defs>
      <g>
       <use style="stroke:#000000;stroke-linecap:butt;stroke-width:0.5;" x="55.50625" xlink:href="#m0789224b6b" y="24.1659383561"/>
      </g>
     </g>
    </g>
   </g>
   <g id="patch_3">
    <path d="
M65.5062 155.498
L557.486 155.498" style="fill:none;stroke:#000000;stroke-width:0.8;"/>
   </g>
   <g id="patch_4">
    <path d="
M55.5062 413.28
L55.5062 7.2" style="fill:none;stroke:#000000;stroke-width:0.8;"/>
   </g>
  </g>
 </g>
 <defs>
  <clipPath id="p57bd0e75d4">
   <rect height="406.08" width="491.98" x="65.50625" y="7.2"/>
  </clipPath>
 </defs>
</svg>
