<?xml version="1.0" encoding="utf-8" standalone="no"?>
<!DOCTYPE svg PUBLIC "-//W3C//DTD SVG 1.1//EN"
  "http://www.w3.org/Graphics/SVG/1.1/DTD/svg11.dtd">
<!-- Created with matplotlib (http://matplotlib.sourceforge.net/) -->
<svg height="419pt" version="1.1" viewBox="0 0 564 419" width="564pt" xmlns="http://www.w3.org/2000/svg" xmlns:xlink="http://www.w3.org/1999/xlink">
 <defs>
  <style type="text/css">
*{stroke-linecap:square;stroke-linejoin:round;}
  </style>
 </defs>
 <g id="figure_1">
  <g id="patch_1">
   <path d="
M-4.44089e-16 419.439
L564.499 419.439
L564.499 0
L-4.44089e-16 0
z
" style="fill:#ffffff;"/>
  </g>
  <g id="axes_1">
   <g id="patch_2">
    <path d="
M64.7562 412.239
L557.299 412.239
L557.299 8.51291
L64.7562 8.51291
z
" style="fill:#ffffff;"/>
   </g>
   <g id="line2d_1">
    <path clip-path="url(#p2fe29bff6c)" d="
M74.2282 16.2769
L85.0604 16.2769
L85.0604 16.2769
L85.0604 16.2769
L98.7073 16.2769
L98.7073 60.1612
L107.696 60.1612
L107.696 87.9414
L119.771 87.9414
L119.771 131.345
L124.234 131.345
L124.234 152.988
L131.401 152.988
L131.401 200.652
L134.372 200.652
L134.372 215.047
L139.477 215.047
L139.477 223.544
L145.669 223.544
L145.669 241.318
L147.451 241.318
L147.451 246.507
L152.178 246.507
L152.178 255.005
L154.92 255.005
L154.92 258.29
L156.193 258.29
L156.193 261.672
L158.569 261.672
L158.569 268.277
L161.779 268.277
L161.779 277.183
L164.644 277.183
L164.644 283.61
L165.534 283.61
L165.534 285.467
L168.041 285.467
L168.041 289.836
L169.59 289.836
L169.59 293.205
L170.332 293.205
L170.332 295.561
L172.442 295.561
L172.442 300.095
L173.762 300.095
L173.762 303.605
L175.626 303.605
L175.626 309.718
L177.926 309.718
L177.926 317.709
L179.005 317.709
L179.005 320.529
L179.529 320.529
L179.529 321.385
L180.547 321.385
L180.547 322.867
L181.042 322.867
L181.042 323.743
L182.005 323.743
L182.005 326.197
L185.125 326.197
L185.125 334.609
L185.953 334.609
L185.953 336.431
L187.15 336.431
L187.15 338.726
L187.537 338.726
L187.537 339.408
L189.393 339.408
L189.393 343.892
L189.749 343.892
L189.749 344.562
L190.79 344.562
L190.79 345.572
L191.792 345.572
L191.792 346.079
L192.44 346.079
L192.44 346.23
L193.383 346.23
L193.383 345.913
L194.294 345.913
L194.294 345.797
L196.027 345.754
L196.027 346.439
L196.305 346.439
L196.305 346.6
L196.854 346.6
L196.854 346.871
L197.123 346.871
L197.123 347.197
L198.688 347.197
L198.688 349.811
L200.165 349.811
L200.165 351.945
L200.64 351.945
L200.64 352.573
L200.875 352.573
L200.875 352.757
L201.337 352.757
L201.337 353.243
L202.017 353.243
L202.017 353.899
L202.239 353.899
L202.239 354.157
L203.325 354.157
L203.325 355.902
L203.956 355.902
L203.956 357.205
L204.573 357.205
L204.573 358.043
L205.176 358.043
L205.176 358.809
L205.373 358.809
L205.373 358.969
L206.342 359.04
L206.342 359.278
L206.531 359.278
L206.531 359.438
L207.459 359.438
L207.459 360.747
L208.706 360.747
L208.706 361.928
L209.051 361.928
L209.051 362.403
L209.223 362.403
L209.223 362.535
L209.562 362.535
L209.562 362.834
L210.717 362.834
L210.717 363.763
L211.196 363.763
L211.196 364.093
L211.978 364.093
L211.978 364.819
L212.436 364.906
L212.436 365.086
L212.886 365.086
L212.886 365.596
L213.475 365.596
L213.475 366.075
L213.908 366.075
L213.908 366.555
L214.334 366.555
L214.334 366.943
L214.615 366.943
L214.615 367.077
L215.03 367.077
L215.03 367.369
L215.574 367.369
L215.574 367.504
L216.369 367.452
L216.369 367.191
L217.015 367.191
L217.015 366.723
L217.769 366.63
L217.769 366.074
L218.26 366.001
L218.26 365.907
L220.59 366.013
L220.59 366.342
L222.213 366.35
L222.213 366.529
L222.836 366.529
L222.938 367.097
L223.842 367.097
L223.842 367.584
L224.137 367.584
L224.137 367.771
L224.621 367.771
L224.621 368.151
L224.907 368.151
L224.907 368.525
L225.19 368.525
L225.284 368.899
L225.563 368.899
L225.563 369.202
L226.022 369.202
L226.022 369.887
L226.294 369.887
L226.294 370.257
L226.563 370.257
L226.652 370.689
L226.917 370.689
L226.917 371.132
L227.18 371.132
L227.18 371.571
L227.354 371.571
L227.44 372.09
L227.953 372.09
L227.953 373.164
L228.373 373.164
L228.456 374.026
L228.622 374.026
L228.622 374.28
L228.869 374.28
L228.869 374.761
L229.113 374.761
L229.194 375.498
L229.675 375.498
L229.675 376.581
L229.833 376.581
L229.833 376.918
L230.069 376.918
L230.069 377.357
L230.38 377.357
L230.38 378.032
L230.764 378.032
L230.764 378.811
L231.067 378.811
L231.067 379.367
L231.441 379.367
L231.441 380.078
L231.736 380.078
L231.736 380.74
L231.956 380.74
L231.956 381.232
L232.174 381.232
L232.174 381.727
L232.318 381.727
L232.318 382.032
L232.604 382.032
L232.604 382.527
L232.817 382.527
L232.817 382.884
L232.958 382.884
L232.958 383.107
L233.237 383.107
L233.237 383.521
L233.376 383.521
L233.376 383.759
L233.855 383.759
L233.855 384.729
L234.192 384.729
L234.192 385.439
L234.592 385.439
L234.658 386.522
L234.985 386.522
L235.05 387.521
L235.179 387.521
L235.244 388.042
L235.564 388.042
L235.564 388.806
L236.006 388.806
L236.006 389.763
L236.131 389.763
L236.194 390.141
L236.318 390.141
L236.318 390.393
L236.748 390.393
L236.748 391.409
L236.869 391.409
L236.93 391.815
L237.051 391.815
L237.051 392.076
L237.646 392.076
L237.646 393.354
L237.764 393.354
L237.764 393.602
L237.997 393.602
L237.997 394.137
L238.287 394.137
L238.287 394.678
L238.516 394.678
L238.516 395.093
L238.629 395.093
L238.629 395.271
L238.799 395.271
L238.799 395.49
L238.968 395.49
L238.968 395.75
L239.358 395.75
L239.468 396.295
L239.632 396.295
L239.632 396.412
L240.013 396.482
L240.013 396.639
L240.174 396.639
L240.174 396.801
L240.493 396.801
L240.599 397.138
L241.07 397.207
L241.121 397.319
L241.836 397.39
L241.886 397.592
L242.037 397.592
L242.037 397.765
L242.483 397.765
L242.581 398.407
L242.727 398.451
L242.727 398.575
L242.873 398.575
L242.873 398.721
L243.018 398.721
L243.018 398.851
L243.21 398.851
L243.21 398.995
L243.353 398.995
L243.353 399.127
L243.496 399.127
L243.496 399.312
L244.011 399.312
L244.058 399.873
L244.288 399.873
L244.288 400.105
L244.471 400.105
L244.471 400.272
L244.699 400.272
L244.699 400.483
L244.969 400.558
L244.969 400.654
L245.147 400.654
L245.147 400.794
L245.413 400.794
L245.501 401.023
L245.763 401.11
L245.806 401.231
L245.936 401.231
L245.936 401.351
L246.194 401.351
L246.194 401.541
L246.407 401.541
L246.407 401.747
L246.786 401.747
L246.828 402.075
L247.078 402.179
L247.078 402.21
L247.284 402.31
L247.325 402.406
L247.651 402.499
L247.691 402.884
L247.812 402.884
L247.812 403.033
L248.488 403.033
L248.488 403.724
L248.723 403.822
L248.723 403.903
L249.224 404.013
L249.224 404.161
L250.125 404.066
L250.236 403.98
L251.493 403.914
L251.493 403.837
L253.421 403.924
L253.421 404.001
L253.746 404.001
L253.842 404.208
L254.32 404.257
L254.383 404.389
L254.414 404.388
L256.646 404.342
L256.646 404.249
L256.933 404.141
L257.019 404.032
L257.246 403.982
L257.246 403.905
L257.5 403.819
L257.584 403.703
L257.834 403.703
L257.862 403.48
L258.082 403.48
L258.109 403.257
L258.409 403.257
L258.49 402.933
L258.678 402.84
L258.758 402.667
L258.918 402.601
L258.998 402.365
L259.13 402.365
L259.156 402.118
L259.288 402.118
L259.288 401.935
L259.471 401.935
L259.471 401.719
L259.6 401.719
L259.678 401.47
L259.832 401.47
L259.935 401.148
L260.063 401.148
L260.063 400.997
L260.215 400.997
L260.24 400.767
L260.442 400.767
L260.542 400.34
L260.741 400.241
L260.84 399.952
L261.062 399.952
L261.062 399.641
L261.354 399.641
L261.403 399.209
L261.572 399.138
L261.572 399.061
L261.764 399.061
L261.835 398.876
L262.12 398.793
L262.19 398.635
L262.471 398.535
L262.471 398.516
L262.955 398.405
L263.046 398.37
L263.52 398.271
L263.565 398.225
L263.765 398.18
L263.831 398.084
L264.443 397.99
L264.486 397.954
L265.252 397.844
L265.335 397.835
L266.118 397.945
L266.118 398.02
L266.36 398.1
L266.421 398.207
L266.977 398.308
L267.075 398.371
L267.656 398.455
L267.732 398.537
L268.299 398.638
L268.337 398.666
L268.854 398.769
L268.946 398.839
L269.182 398.88
L269.272 399.011
L269.595 399.055
L269.702 399.16
L271.169 399.271
L271.253 399.331
L271.569 399.429
L271.569 399.463
L271.767 399.568
L271.816 399.605
L272.142 399.686
L272.207 399.936
L272.384 400.047
L272.4 400.109
L272.528 400.216
L272.624 400.333
L272.861 400.426
L272.877 400.547
L273.003 400.547
L273.05 400.731
L273.206 400.731
L273.206 400.879
L273.33 400.879
L273.438 401.069
L273.653 401.101
L273.715 401.286
L273.852 401.368
L273.943 401.486
L274.154 401.595
L274.259 401.738
L274.423 401.803
L274.527 401.946
L274.704 402.044
L274.792 402.157
L274.997 402.238
L275.04 402.323
L275.344 402.428
L275.444 402.463
L276.661 402.574
L276.77 402.652
L277.216 402.754
L277.31 402.809
L277.891 402.714
L277.943 402.652
L278.125 402.599
L278.202 402.481
L278.446 402.399
L278.446 402.3
L278.599 402.3
L278.701 402.085
L278.853 402.006
L278.928 401.884
L279.116 401.793
L279.203 401.66
L279.389 401.66
L279.463 401.379
L279.61 401.277
L279.671 401.212
L280.084 401.109
L280.18 401.059
L280.714 400.981
L280.796 400.908
L281.145 400.8
L281.249 400.652
L281.444 400.563
L281.547 400.488
L281.717 400.448
L281.785 400.334
L282.066 400.252
L282.166 400.121
L282.498 400.021
L282.586 399.902
L282.912 399.792
L283.02 399.734
L283.213 399.634
L283.31 399.522
L283.522 399.422
L283.564 399.338
L283.775 399.232
L283.879 399.115
L284.129 399.015
L284.191 398.953
L284.61 398.843
L284.712 398.77
L285.342 398.661
L285.401 398.636
L285.802 398.554
L285.899 398.449
L286.188 398.349
L286.236 398.304
L286.521 398.196
L286.606 398.172
L288.037 398.1
L288.064 398.035
L288.357 397.927
L288.445 397.874
L288.655 397.782
L288.751 397.694
L288.985 397.627
L289.088 397.528
L290.591 397.636
L290.696 397.683
L291.201 397.784
L291.312 397.831
L291.898 397.726
L291.921 397.706
L292.206 397.604
L292.312 397.551
L293.1 397.661
L293.188 397.69
L293.474 397.792
L293.547 397.848
L293.764 397.95
L293.843 398.042
L294.037 398.145
L294.144 398.23
L294.356 398.334
L294.462 398.415
L294.678 398.512
L294.783 398.623
L294.969 398.73
L294.99 398.769
L295.23 398.871
L295.312 398.913
L295.784 399.01
L295.864 399.084
L296.076 399.178
L296.175 399.243
L296.438 399.336
L296.535 399.409
L296.826 399.516
L296.884 399.567
L297.069 399.665
L297.171 399.762
L297.304 399.837
L297.323 399.901
L297.43 399.901
L297.512 400.1
L297.655 400.204
L297.736 400.311
L297.866 400.4
L297.977 400.521
L298.143 400.62
L298.235 400.698
L298.447 400.805
L298.556 400.893
L298.742 400.998
L298.844 401.078
L299.04 401.189
L299.128 401.289
L299.328 401.398
L299.428 401.51
L299.66 401.619
L299.764 401.679
L300.033 401.77
L300.124 401.821
L300.429 401.916
L300.53 401.995
L300.731 402.105
L300.814 402.14
L301.237 402.248
L301.335 402.294
L301.68 402.401
L301.787 402.458
L302.358 402.568
L302.452 402.578
L302.793 402.664
L302.901 402.76
L303.105 402.865
L303.151 402.922
L303.298 402.996
L303.403 403.133
L303.544 403.21
L303.648 403.331
L303.797 403.435
L303.901 403.531
L304.049 403.64
L304.093 403.67
L304.283 403.773
L304.38 403.846
L304.588 403.957
L304.698 404.052
L305.102 404.162
L305.196 404.2
L305.509 404.311
L305.616 404.333
L307.754 404.226
L307.843 404.146
L308.055 404.038
L308.16 403.987
L308.345 403.881
L308.449 403.774
L308.569 403.667
L308.656 403.565
L308.78 403.48
L308.878 403.331
L308.98 403.224
L309.086 403.067
L309.22 402.971
L309.321 402.766
L309.413 402.663
L309.522 402.515
L309.609 402.427
L309.713 402.257
L309.812 402.157
L309.918 401.986
L310.021 401.878
L310.118 401.748
L310.22 401.649
L310.302 401.526
L310.429 401.434
L310.533 401.254
L310.626 401.165
L310.695 401.057
L310.813 400.958
L310.923 400.766
L311.029 400.712
L311.131 400.472
L311.217 400.412
L311.311 400.246
L311.412 400.146
L311.512 400.021
L311.597 399.932
L311.701 399.782
L311.8 399.675
L311.866 399.592
L311.976 399.503
L312.085 399.351
L312.19 399.245
L312.298 399.135
L312.417 399.033
L312.524 398.909
L312.656 398.804
L312.762 398.665
L312.886 398.564
L312.985 398.445
L313.142 398.337
L313.236 398.245
L313.41 398.137
L313.496 398.073
L313.661 397.966
L313.77 397.856
L313.875 397.746
L313.984 397.621
L314.089 397.567
L314.196 397.378
L314.31 397.278
L314.42 397.134
L314.536 397.043
L314.645 396.898
L314.777 396.788
L314.885 396.696
L315.061 396.591
L315.136 396.538
L315.339 396.433
L315.426 396.37
L315.608 396.272
L315.697 396.18
L315.962 396.073
L316.065 396.018
L316.24 395.913
L316.345 395.837
L316.531 395.733
L316.641 395.625
L316.797 395.517
L316.906 395.416
L317.033 395.324
L317.115 395.202
L317.232 395.092
L317.339 394.999
L317.491 394.89
L317.586 394.755
L317.721 394.644
L317.815 394.517
L317.956 394.412
L318.06 394.299
L318.208 394.19
L318.28 394.124
L318.449 394.014
L318.552 393.945
L318.791 393.836
L318.886 393.771
L319.086 393.674
L319.172 393.592
L319.435 393.495
L319.537 393.415
L319.691 393.305
L319.759 393.245
L319.879 393.147
L319.987 393.04
L320.138 392.932
L320.237 392.83
L320.429 392.721
L320.53 392.671
L320.762 392.56
L320.872 392.49
L321.067 392.391
L321.158 392.299
L321.343 392.191
L321.446 392.101
L321.591 392.006
L321.675 391.909
L321.817 391.798
L321.902 391.703
L322.02 391.61
L322.118 391.487
L322.24 391.383
L322.344 391.279
L322.467 391.188
L322.573 391.064
L322.688 390.962
L322.785 390.857
L322.914 390.748
L323.023 390.654
L323.16 390.552
L323.253 390.467
L323.377 390.362
L323.484 390.255
L323.612 390.144
L323.718 390.039
L323.849 389.956
L323.954 389.808
L324.045 389.699
L324.135 389.557
L324.204 389.475
L324.31 389.268
L324.39 389.16
L324.5 388.98
L324.591 388.885
L324.7 388.68
L324.779 388.613
L324.89 388.399
L324.998 388.3
L325.078 388.182
L325.189 388.074
L325.292 387.947
L325.404 387.838
L325.508 387.701
L325.641 387.592
L325.744 387.504
L325.935 387.396
L326.043 387.318
L326.223 387.209
L326.326 387.137
L326.5 387.027
L326.608 386.963
L326.87 386.853
L326.978 386.816
L327.595 386.707
L327.642 386.7
L327.702 386.702
L329.019 386.605
L329.129 386.552
L329.783 386.442
L329.888 386.4
L330.228 386.29
L330.339 386.244
L330.605 386.133
L330.703 386.101
L331.071 385.995
L331.182 385.926
L331.396 385.816
L331.5 385.757
L331.709 385.647
L331.805 385.596
L332.063 385.488
L332.16 385.413
L332.319 385.309
L332.413 385.225
L332.634 385.116
L332.745 385.067
L333.968 384.956
L334.069 384.921
L334.375 384.812
L334.477 384.737
L334.718 384.626
L334.828 384.595
L335.648 384.485
L335.749 384.449
L336.852 384.56
L336.952 384.629
L337.132 384.74
L337.234 384.826
L337.399 384.929
L337.492 385.018
L337.656 385.128
L337.756 385.197
L337.926 385.306
L338.036 385.374
L338.328 385.48
L338.435 385.542
L338.656 385.651
L338.762 385.708
L338.946 385.818
L339.044 385.908
L339.175 386.011
L339.273 386.085
L339.579 386.194
L339.685 386.234
L340.853 386.124
L340.941 386.076
L341.123 385.965
L341.229 385.881
L341.363 385.77
L341.473 385.696
L341.642 385.594
L341.746 385.516
L341.901 385.407
L342 385.355
L342.259 385.246
L342.367 385.204
L342.58 385.096
L342.689 385.033
L342.955 384.924
L343.056 384.878
L343.255 384.768
L343.362 384.706
L343.528 384.602
L343.638 384.529
L343.841 384.421
L343.95 384.345
L344.106 384.234
L344.211 384.164
L344.387 384.054
L344.496 383.996
L344.812 383.886
L344.92 383.828
L345.228 383.717
L345.332 383.697
L346.075 383.586
L346.184 383.553
L346.477 383.443
L346.586 383.395
L346.963 383.284
L347.069 383.248
L347.511 383.137
L347.62 383.115
L348.14 383.226
L348.249 383.272
L348.676 383.381
L348.782 383.4
L349.499 383.509
L349.605 383.541
L349.937 383.651
L350.044 383.692
L350.351 383.801
L350.46 383.84
L350.952 383.951
L351.059 383.961
L354.519 384.072
L354.623 384.093
L355.751 383.984
L355.861 383.966
L357.501 383.856
L357.608 383.813
L357.892 383.704
L358.003 383.646
L358.163 383.536
L358.274 383.447
L358.42 383.337
L358.53 383.239
L358.677 383.131
L358.787 383.034
L358.931 382.923
L359.04 382.839
L359.203 382.729
L359.311 382.651
L359.467 382.541
L359.578 382.449
L359.719 382.338
L359.828 382.256
L359.965 382.148
L360.074 382.037
L360.204 381.928
L360.313 381.812
L360.429 381.702
L360.539 381.599
L360.685 381.489
L360.793 381.409
L360.978 381.298
L361.088 381.232
L361.304 381.121
L361.414 381.057
L361.692 380.947
L361.801 380.917
L362.169 380.807
L362.274 380.758
L362.648 380.648
L362.756 380.604
L363.082 380.494
L363.192 380.435
L363.367 380.325
L363.47 380.241
L363.591 380.131
L363.7 380.013
L363.812 379.903
L363.919 379.799
L364.05 379.688
L364.159 379.595
L364.282 379.485
L364.393 379.394
L364.553 379.284
L364.657 379.206
L364.814 379.096
L364.923 379.015
L365.071 378.905
L365.18 378.827
L365.366 378.718
L365.477 378.651
L365.792 378.54
L365.9 378.53
L366.491 378.42
L366.599 378.386
L367.471 378.275
L367.579 378.219
L367.865 378.108
L367.973 378.058
L368.169 377.949
L368.279 377.875
L368.476 377.765
L368.585 377.695
L368.76 377.585
L368.87 377.524
L369.146 377.413
L369.256 377.378
L369.529 377.268
L369.639 377.209
L369.86 377.099
L369.969 377.046
L370.189 376.935
L370.298 376.855
L370.454 376.744
L370.562 376.666
L370.704 376.557
L370.811 376.482
L370.956 376.372
L371.065 376.295
L371.22 376.184
L371.33 376.103
L371.493 375.997
L371.604 375.891
L371.721 375.781
L371.832 375.673
L371.943 375.566
L372.05 375.457
L372.173 375.349
L372.283 375.252
L372.398 375.142
L372.508 375.046
L372.702 374.937
L372.809 374.903
L373.395 374.792
L373.506 374.757
L375.627 374.647
L375.737 374.583
L375.93 374.474
L376.039 374.407
L376.231 374.296
L376.34 374.218
L376.503 374.107
L376.613 374.033
L376.8 373.923
L376.91 373.854
L377.078 373.745
L377.188 373.645
L377.322 373.535
L377.433 373.436
L377.593 373.326
L377.703 373.254
L377.86 373.143
L377.971 373.061
L378.111 372.954
L378.221 372.844
L378.328 372.734
L378.438 372.619
L378.562 372.509
L378.672 372.408
L378.815 372.297
L378.926 372.233
L379.059 372.122
L379.17 372.03
L379.333 371.92
L379.441 371.864
L379.661 371.756
L379.772 371.685
L380.036 371.574
L380.146 371.522
L380.448 371.412
L380.559 371.347
L380.715 371.237
L380.826 371.165
L380.986 371.054
L381.093 370.99
L381.295 370.88
L381.406 370.801
L381.585 370.69
L381.695 370.636
L381.869 370.526
L381.979 370.434
L382.108 370.324
L382.217 370.236
L382.36 370.13
L382.471 370.038
L382.625 369.927
L382.736 369.84
L382.867 369.73
L382.976 369.628
L383.079 369.518
L383.19 369.418
L383.312 369.309
L383.421 369.2
L383.534 369.09
L383.644 368.987
L383.781 368.876
L383.889 368.799
L384.034 368.688
L384.138 368.606
L384.298 368.495
L384.409 368.43
L384.652 368.32
L384.762 368.26
L384.95 368.149
L385.06 368.089
L385.277 367.98
L385.388 367.902
L385.535 367.792
L385.646 367.67
L385.751 367.56
L385.861 367.444
L385.985 367.333
L386.094 367.227
L386.222 367.117
L386.33 367.048
L386.518 366.938
L386.628 366.895
L387.038 366.784
L387.148 366.746
L387.588 366.635
L387.698 366.617
L388.349 366.507
L388.459 366.449
L389.141 366.338
L389.251 366.317
L390.609 366.206
L390.72 366.165
L391.126 366.054
L391.235 366.027
L391.508 365.917
L391.619 365.861
L391.908 365.75
L392.019 365.713
L392.275 365.602
L392.386 365.535
L392.563 365.425
L392.672 365.366
L392.825 365.256
L392.936 365.171
L393.255 365.06
L393.365 365.04
L394.359 365.151
L394.47 365.178
L395.039 365.067
L395.15 365.027
L395.436 364.916
L395.546 364.884
L395.986 364.773
L396.096 364.737
L396.428 364.626
L396.539 364.568
L396.726 364.457
L396.835 364.404
L397.029 364.293
L397.14 364.239
L397.594 364.128
L397.704 364.105
L398.291 363.994
L398.399 363.979
L398.401 363.979
L399.847 363.868
L399.958 363.839
L401.457 363.95
L401.568 363.969
L402.348 364.079
L402.459 364.132
L402.711 364.243
L402.822 364.298
L403.097 364.409
L403.206 364.434
L403.651 364.545
L403.761 364.588
L404.058 364.699
L404.169 364.724
L404.644 364.835
L404.755 364.859
L405.828 364.97
L405.939 364.975
L407.74 364.864
L407.851 364.838
L408.161 364.727
L408.271 364.684
L408.563 364.573
L408.674 364.552
L409.164 364.441
L409.275 364.407
L409.652 364.296
L409.763 364.245
L409.98 364.134
L410.091 364.056
L410.319 363.945
L410.43 363.926
L411.268 363.815
L411.379 363.795
L411.627 363.684
L411.736 363.638
L412.092 363.527
L412.203 363.505
L412.492 363.394
L412.602 363.35
L412.91 363.239
L413.021 363.223
L414.06 363.112
L414.17 363.092
L416.556 363.203
L416.667 363.244
L417.061 363.355
L417.172 363.395
L417.377 363.506
L417.488 363.564
L417.812 363.675
L417.922 363.707
L418.33 363.818
L418.44 363.848
L421.315 363.737
L421.426 363.707
L421.723 363.596
L421.834 363.572
L422.308 363.461
L422.419 363.395
L422.612 363.284
L422.723 363.226
L422.949 363.116
L423.06 363.06
L423.275 362.949
L423.386 362.867
L423.542 362.756
L423.653 362.673
L423.815 362.562
L423.926 362.468
L424.039 362.357
L424.15 362.234
L424.26 362.123
L424.371 362.012
L424.493 361.901
L424.603 361.802
L424.75 361.691
L424.86 361.611
L425.002 361.5
L425.112 361.405
L425.226 361.294
L425.337 361.172
L425.447 361.061
L425.558 360.962
L425.699 360.851
L425.81 360.757
L425.923 360.646
L426.033 360.533
L426.142 360.422
L426.253 360.313
L426.358 360.202
L426.469 360.068
L426.553 359.957
L426.664 359.812
L426.757 359.701
L426.868 359.551
L426.953 359.44
L427.063 359.304
L427.147 359.193
L427.258 359.034
L427.337 358.923
L427.448 358.741
L427.515 358.631
L427.626 358.456
L427.697 358.345
L427.808 358.159
L427.876 358.048
L427.987 357.881
L428.057 357.77
L428.168 357.583
L428.235 357.472
L428.346 357.299
L428.421 357.189
L428.532 357.013
L428.601 356.902
L428.712 356.715
L428.781 356.604
L428.892 356.439
L428.969 356.328
L429.081 356.166
L429.159 356.056
L429.27 355.893
L429.344 355.782
L429.455 355.623
L429.541 355.512
L429.651 355.366
L429.727 355.256
L429.838 355.097
L429.923 354.987
L430.033 354.848
L430.119 354.738
L430.23 354.596
L430.318 354.485
L430.428 354.355
L430.535 354.244
L430.646 354.11
L430.741 353.999
L430.851 353.88
L430.968 353.769
L431.079 353.678
L431.212 353.567
L431.323 353.487
L431.507 353.376
L431.618 353.309
L431.816 353.198
L431.926 353.131
L432.1 353.02
L432.211 352.955
L432.418 352.845
L432.528 352.792
L432.727 352.681
L432.839 352.62
L433.032 352.509
L433.143 352.468
L433.405 352.357
L433.516 352.285
L433.692 352.174
L433.802 352.108
L433.985 351.998
L434.096 351.934
L434.28 351.823
L434.391 351.746
L434.58 351.635
L434.691 351.588
L434.898 351.477
L435.009 351.412
L435.248 351.301
L435.359 351.235
L435.545 351.124
L435.656 351.06
L435.872 350.949
L435.983 350.909
L436.366 350.798
L436.477 350.763
L437.027 350.652
L437.138 350.631
L439.397 350.52
L439.507 350.478
L439.836 350.367
L439.947 350.338
L440.831 350.227
L440.942 350.205
L441.662 350.094
L441.773 350.069
L443.325 350.18
L443.436 350.228
L443.664 350.339
L443.776 350.386
L444.012 350.497
L444.123 350.539
L444.466 350.65
L444.577 350.668
L445.521 350.779
L445.632 350.806
L445.931 350.918
L446.042 350.974
L446.327 351.086
L446.438 351.108
L447.26 351.219
L447.371 351.232
L449.073 351.121
L449.184 351.087
L449.509 350.976
L449.62 350.923
L449.871 350.812
L449.982 350.764
L450.228 350.653
L450.339 350.624
L450.743 350.513
L450.854 350.494
L451.761 350.383
L451.872 350.353
L452.392 350.242
L452.503 350.201
L452.864 350.09
L452.975 350.05
L453.301 349.939
L453.412 349.909
L454.243 349.798
L454.354 349.773
L454.663 349.662
L454.774 349.637
L455.112 349.526
L455.223 349.502
L455.627 349.391
L455.738 349.368
L456.21 349.257
L456.321 349.225
L456.594 349.114
L456.705 349.063
L456.917 348.952
L457.028 348.883
L457.201 348.772
L457.312 348.718
L457.532 348.607
L457.643 348.56
L457.969 348.448
L458.08 348.406
L458.9 348.295
L459.011 348.276
L459.559 348.164
L459.67 348.126
L460.28 348.015
L460.391 347.996
L461.146 347.885
L461.257 347.863
L461.717 347.752
L461.828 347.729
L462.932 347.618
L463.043 347.612
L463.549 347.501
L463.66 347.486
L464.522 347.375
L464.633 347.342
L465.201 347.231
L465.312 347.201
L465.724 347.09
L465.779 347.084
L465.836 347.086
L467.21 346.975
L467.321 346.971
L467.835 346.86
L467.946 346.832
L468.79 346.943
L468.901 346.98
L469.387 347.091
L469.498 347.105
L473.024 346.994
L473.135 346.959
L474.138 346.848
L474.249 346.821
L475.631 346.71
L475.742 346.655
L476.028 346.544
L476.139 346.512
L476.601 346.401
L476.712 346.353
L476.972 346.241
L477.084 346.202
L477.699 346.091
L477.81 346.067
L478.576 345.956
L478.687 345.925
L479.662 345.814
L479.773 345.781
L480.069 345.67
L480.18 345.611
L480.433 345.5
L480.545 345.448
L480.777 345.337
L480.888 345.295
L481.283 345.184
L481.395 345.141
L481.706 345.03
L481.817 344.99
L482.056 344.879
L482.167 344.828
L482.397 344.717
L482.508 344.656
L482.679 344.544
L482.79 344.472
L482.961 344.361
L483.072 344.304
L483.326 344.193
L483.437 344.133
L483.631 344.022
L483.742 343.958
L484.069 343.847
L484.18 343.802
L484.457 343.691
L484.568 343.636
L484.783 343.525
L484.894 343.465
L485.187 343.354
L485.298 343.312
L485.567 343.2
L485.678 343.148
L485.938 343.037
L486.049 342.986
L486.243 342.875
L486.354 342.799
L486.508 342.688
L486.619 342.623
L486.821 342.512
L486.932 342.44
L487.095 342.329
L487.206 342.24
L487.325 342.129
L487.436 342.034
L487.559 341.923
L487.67 341.824
L487.806 341.713
L487.917 341.62
L488.047 341.508
L488.158 341.397
L488.275 341.286
L488.386 341.175
L488.513 341.064
L488.624 340.977
L488.8 340.866
L488.911 340.797
L489.121 340.686
L489.232 340.635
L489.541 340.524
L489.652 340.478
L489.851 340.367
L489.962 340.298
L490.164 340.187
L490.275 340.122
L490.505 340.011
L490.616 339.957
L490.873 339.846
L490.984 339.799
L491.228 339.688
L491.339 339.633
L491.573 339.522
L491.684 339.462
L491.904 339.351
L492.015 339.285
L492.207 339.174
L492.318 339.115
L492.514 339.004
L492.625 338.935
L492.79 338.824
L492.901 338.755
L493.117 338.644
L493.228 338.593
L493.436 338.482
L493.548 338.417
L493.713 338.306
L493.824 338.229
L494.001 338.117
L494.112 338.064
L494.403 337.953
L494.514 337.899
L494.742 337.788
L494.853 337.743
L495.08 337.632
L495.191 337.558
L495.338 337.447
L495.449 337.363
L495.623 337.252
L495.734 337.167
L495.86 337.056
L495.971 336.945
L496.078 336.833
L496.189 336.714
L496.295 336.603
L496.406 336.472
L496.495 336.361
L496.606 336.234
L496.708 336.123
L496.819 336.003
L496.919 335.892
L497.03 335.771
L497.128 335.66
L497.239 335.538
L497.332 335.427
L497.443 335.3
L497.546 335.188
L497.657 335.076
L497.77 334.965
L497.881 334.862
L498.014 334.751
L498.125 334.673
L498.271 334.562
L498.382 334.474
L498.546 334.363
L498.657 334.309
L498.876 334.198
L498.987 334.139
L499.223 334.028
L499.334 333.992
L499.845 333.881
L499.956 333.849
L501.051 333.961
L501.162 334.008
L501.452 334.119
L501.563 334.165
L504.197 334.276
L504.293 334.285
L504.308 334.285
L504.751 334.396
L504.862 334.435
L505.206 334.546
L505.317 334.574
L505.827 334.685
L505.939 334.725
L506.244 334.836
L506.355 334.881
L506.644 334.992
L506.755 335.044
L506.96 335.155
L507.072 335.223
L507.282 335.334
L507.394 335.402
L507.677 335.513
L507.788 335.553
L508.084 335.664
L508.195 335.701
L510.307 335.59
L510.418 335.569
L511.056 335.458
L511.167 335.439
L513.853 335.55
L513.964 335.579
L514.67 335.69
L514.781 335.707
L515.909 335.818
L516.02 335.832
L521.594 335.721
L521.705 335.65
L521.864 335.539
L521.975 335.455
L522.141 335.344
L522.252 335.269
L522.465 335.158
L522.576 335.104
L522.803 334.993
L522.914 334.947
L523.199 334.835
L523.31 334.795
L523.593 334.684
L523.704 334.643
L524.113 334.532
L524.224 334.498
L524.529 334.387
L524.641 334.346
L524.98 334.235
L525.091 334.199
L525.515 334.088
L525.626 334.045
L525.846 333.934
L525.957 333.877
L526.139 333.766
L526.25 333.686
L526.427 333.575
L526.538 333.51
L526.718 333.399
L526.83 333.338
L527.029 333.227
L527.14 333.169
L527.337 333.058
L527.448 333.007
L527.851 332.896
L527.963 332.877
L528.46 332.766
L528.572 332.745
L529.112 332.633
L529.223 332.601
L529.506 332.49
L529.618 332.435
L529.842 332.324
L529.953 332.265
L530.154 332.153
L530.265 332.098
L530.578 331.986
L530.689 331.954
L531.381 331.843
L531.492 331.827
L531.933 331.716
L532.044 331.687
L532.444 331.576
L532.556 331.529
L532.804 331.418
L532.915 331.367
L533.22 331.256
L533.331 331.205
L533.562 331.093
L533.673 331.037
L534.244 330.926
L534.355 330.924
L535.153 330.813
L535.264 330.805
L536.724 330.694
L536.835 330.664
L537.291 330.553
L537.402 330.539
L537.766 330.427
L537.877 330.376
L538.093 330.265
L538.204 330.194
L538.355 330.083
L538.466 329.993
L538.626 329.882
L538.737 329.815
L538.949 329.704
L539.06 329.639
L539.23 329.528
L539.341 329.448
L539.498 329.337
L539.609 329.265
L539.789 329.153
L539.9 329.08
L540.067 328.969
L540.178 328.9
L540.355 328.789
L540.466 328.729
L540.654 328.618
L540.765 328.553
L540.962 328.441
L541.073 328.385
L541.31 328.273
L541.421 328.23
L541.698 328.119
L541.809 328.076
L542.156 327.965
L542.267 327.923
L545.119 328.034
L545.197 328.045
L545.23 328.044
L546.166 327.933
L546.277 327.913
L546.957 327.802
L547.068 327.772
L547.31 327.66
L547.421 327.595
L547.626 327.483
L547.737 327.407
L547.827 327.341
L547.827 327.341" style="fill:none;stroke:#0000ff;stroke-width:5.0;"/>
   </g>
   <g id="matplotlib.axis_1">
    <g id="xtick_1">
     <g id="line2d_2">
      <path d="
M189.288 412.239
L189.288 8.51291" style="fill:none;stroke:#000000;stroke-dasharray:1.000000,3.000000;stroke-dashoffset:0.0;stroke-linecap:butt;stroke-width:0.5;"/>
     </g>
     <g id="line2d_3">
      <defs>
       <path d="
M0 0
L0 -4" id="m4b8197b452"/>
      </defs>
      <g>
       <use style="stroke:#000000;stroke-linecap:butt;stroke-width:0.5;" x="189.287616689" xlink:href="#m4b8197b452" y="16.276875"/>
      </g>
     </g>
     <g id="text_1">
      <!-- 5 -->
      <defs>
       <path d="
M10.7969 72.9062
L49.5156 72.9062
L49.5156 64.5938
L19.8281 64.5938
L19.8281 46.7344
Q21.9688 47.4688 24.1094 47.8281
Q26.2656 48.1875 28.4219 48.1875
Q40.625 48.1875 47.75 41.5
Q54.8906 34.8125 54.8906 23.3906
Q54.8906 11.625 47.5625 5.09375
Q40.2344 -1.42188 26.9062 -1.42188
Q22.3125 -1.42188 17.5469 -0.640625
Q12.7969 0.140625 7.71875 1.70312
L7.71875 11.625
Q12.1094 9.23438 16.7969 8.0625
Q21.4844 6.89062 26.7031 6.89062
Q35.1562 6.89062 40.0781 11.3281
Q45.0156 15.7656 45.0156 23.3906
Q45.0156 31 40.0781 35.4375
Q35.1562 39.8906 26.7031 39.8906
Q22.75 39.8906 18.8125 39.0156
Q14.8906 38.1406 10.7969 36.2812
z
" id="BitstreamVeraSans-Roman-35"/>
      </defs>
      <g transform="translate(183.626991689 37.774375)scale(0.24 -0.24)">
       <use xlink:href="#BitstreamVeraSans-Roman-35"/>
      </g>
     </g>
    </g>
    <g id="xtick_2">
     <g id="line2d_4">
      <path d="
M322.865 412.239
L322.865 8.51291" style="fill:none;stroke:#000000;stroke-dasharray:1.000000,3.000000;stroke-dashoffset:0.0;stroke-linecap:butt;stroke-width:0.5;"/>
     </g>
     <g id="line2d_5">
      <defs>
       <path d="
M0 0
L0 -4" id="m4b8197b452"/>
      </defs>
      <g>
       <use style="stroke:#000000;stroke-linecap:butt;stroke-width:0.5;" x="322.864732462" xlink:href="#m4b8197b452" y="16.276875"/>
      </g>
     </g>
     <g id="text_2">
      <!-- 10 -->
      <defs>
       <path d="
M31.7812 66.4062
Q24.1719 66.4062 20.3281 58.9062
Q16.5 51.4219 16.5 36.375
Q16.5 21.3906 20.3281 13.8906
Q24.1719 6.39062 31.7812 6.39062
Q39.4531 6.39062 43.2812 13.8906
Q47.125 21.3906 47.125 36.375
Q47.125 51.4219 43.2812 58.9062
Q39.4531 66.4062 31.7812 66.4062
M31.7812 74.2188
Q44.0469 74.2188 50.5156 64.5156
Q56.9844 54.8281 56.9844 36.375
Q56.9844 17.9688 50.5156 8.26562
Q44.0469 -1.42188 31.7812 -1.42188
Q19.5312 -1.42188 13.0625 8.26562
Q6.59375 17.9688 6.59375 36.375
Q6.59375 54.8281 13.0625 64.5156
Q19.5312 74.2188 31.7812 74.2188" id="BitstreamVeraSans-Roman-30"/>
       <path d="
M12.4062 8.29688
L28.5156 8.29688
L28.5156 63.9219
L10.9844 60.4062
L10.9844 69.3906
L28.4219 72.9062
L38.2812 72.9062
L38.2812 8.29688
L54.3906 8.29688
L54.3906 0
L12.4062 0
z
" id="BitstreamVeraSans-Roman-31"/>
      </defs>
      <g transform="translate(309.709732462 38.089375)scale(0.24 -0.24)">
       <use xlink:href="#BitstreamVeraSans-Roman-31"/>
       <use x="63.623046875" xlink:href="#BitstreamVeraSans-Roman-30"/>
      </g>
     </g>
    </g>
    <g id="xtick_3">
     <g id="line2d_6">
      <path d="
M456.442 412.239
L456.442 8.51291" style="fill:none;stroke:#000000;stroke-dasharray:1.000000,3.000000;stroke-dashoffset:0.0;stroke-linecap:butt;stroke-width:0.5;"/>
     </g>
     <g id="line2d_7">
      <defs>
       <path d="
M0 0
L0 -4" id="m4b8197b452"/>
      </defs>
      <g>
       <use style="stroke:#000000;stroke-linecap:butt;stroke-width:0.5;" x="456.441848234" xlink:href="#m4b8197b452" y="16.276875"/>
      </g>
     </g>
     <g id="text_3">
      <!-- 15 -->
      <g transform="translate(443.538098234 37.774375)scale(0.24 -0.24)">
       <use xlink:href="#BitstreamVeraSans-Roman-31"/>
       <use x="63.623046875" xlink:href="#BitstreamVeraSans-Roman-35"/>
      </g>
     </g>
    </g>
    <g id="xtick_4">
     <g id="line2d_8">
      <defs>
       <path d="
M0 0
L0 -2" id="m9149d740ce"/>
      </defs>
      <g>
       <use style="stroke:#000000;stroke-linecap:butt;stroke-width:0.5;" x="82.4259240713" xlink:href="#m9149d740ce" y="16.276875"/>
      </g>
     </g>
    </g>
    <g id="xtick_5">
     <g id="line2d_9">
      <defs>
       <path d="
M0 0
L0 -2" id="m9149d740ce"/>
      </defs>
      <g>
       <use style="stroke:#000000;stroke-linecap:butt;stroke-width:0.5;" x="109.141347226" xlink:href="#m9149d740ce" y="16.276875"/>
      </g>
     </g>
    </g>
    <g id="xtick_6">
     <g id="line2d_10">
      <defs>
       <path d="
M0 0
L0 -2" id="m9149d740ce"/>
      </defs>
      <g>
       <use style="stroke:#000000;stroke-linecap:butt;stroke-width:0.5;" x="135.85677038" xlink:href="#m9149d740ce" y="16.276875"/>
      </g>
     </g>
    </g>
    <g id="xtick_7">
     <g id="line2d_11">
      <defs>
       <path d="
M0 0
L0 -2" id="m9149d740ce"/>
      </defs>
      <g>
       <use style="stroke:#000000;stroke-linecap:butt;stroke-width:0.5;" x="162.572193535" xlink:href="#m9149d740ce" y="16.276875"/>
      </g>
     </g>
    </g>
    <g id="xtick_8">
     <g id="line2d_12">
      <defs>
       <path d="
M0 0
L0 -2" id="m9149d740ce"/>
      </defs>
      <g>
       <use style="stroke:#000000;stroke-linecap:butt;stroke-width:0.5;" x="216.003039844" xlink:href="#m9149d740ce" y="16.276875"/>
      </g>
     </g>
    </g>
    <g id="xtick_9">
     <g id="line2d_13">
      <defs>
       <path d="
M0 0
L0 -2" id="m9149d740ce"/>
      </defs>
      <g>
       <use style="stroke:#000000;stroke-linecap:butt;stroke-width:0.5;" x="242.718462998" xlink:href="#m9149d740ce" y="16.276875"/>
      </g>
     </g>
    </g>
    <g id="xtick_10">
     <g id="line2d_14">
      <defs>
       <path d="
M0 0
L0 -2" id="m9149d740ce"/>
      </defs>
      <g>
       <use style="stroke:#000000;stroke-linecap:butt;stroke-width:0.5;" x="269.433886153" xlink:href="#m9149d740ce" y="16.276875"/>
      </g>
     </g>
    </g>
    <g id="xtick_11">
     <g id="line2d_15">
      <defs>
       <path d="
M0 0
L0 -2" id="m9149d740ce"/>
      </defs>
      <g>
       <use style="stroke:#000000;stroke-linecap:butt;stroke-width:0.5;" x="296.149309307" xlink:href="#m9149d740ce" y="16.276875"/>
      </g>
     </g>
    </g>
    <g id="xtick_12">
     <g id="line2d_16">
      <defs>
       <path d="
M0 0
L0 -2" id="m9149d740ce"/>
      </defs>
      <g>
       <use style="stroke:#000000;stroke-linecap:butt;stroke-width:0.5;" x="349.580155616" xlink:href="#m9149d740ce" y="16.276875"/>
      </g>
     </g>
    </g>
    <g id="xtick_13">
     <g id="line2d_17">
      <defs>
       <path d="
M0 0
L0 -2" id="m9149d740ce"/>
      </defs>
      <g>
       <use style="stroke:#000000;stroke-linecap:butt;stroke-width:0.5;" x="376.29557877" xlink:href="#m9149d740ce" y="16.276875"/>
      </g>
     </g>
    </g>
    <g id="xtick_14">
     <g id="line2d_18">
      <defs>
       <path d="
M0 0
L0 -2" id="m9149d740ce"/>
      </defs>
      <g>
       <use style="stroke:#000000;stroke-linecap:butt;stroke-width:0.5;" x="403.011001925" xlink:href="#m9149d740ce" y="16.276875"/>
      </g>
     </g>
    </g>
    <g id="xtick_15">
     <g id="line2d_19">
      <defs>
       <path d="
M0 0
L0 -2" id="m9149d740ce"/>
      </defs>
      <g>
       <use style="stroke:#000000;stroke-linecap:butt;stroke-width:0.5;" x="429.726425079" xlink:href="#m9149d740ce" y="16.276875"/>
      </g>
     </g>
    </g>
    <g id="xtick_16">
     <g id="line2d_20">
      <defs>
       <path d="
M0 0
L0 -2" id="m9149d740ce"/>
      </defs>
      <g>
       <use style="stroke:#000000;stroke-linecap:butt;stroke-width:0.5;" x="483.157271388" xlink:href="#m9149d740ce" y="16.276875"/>
      </g>
     </g>
    </g>
    <g id="xtick_17">
     <g id="line2d_21">
      <defs>
       <path d="
M0 0
L0 -2" id="m9149d740ce"/>
      </defs>
      <g>
       <use style="stroke:#000000;stroke-linecap:butt;stroke-width:0.5;" x="509.872694543" xlink:href="#m9149d740ce" y="16.276875"/>
      </g>
     </g>
    </g>
   </g>
   <g id="matplotlib.axis_2">
    <g id="ytick_1">
     <g id="line2d_22">
      <path d="
M64.7562 366.21
L557.299 366.21" style="fill:none;stroke:#000000;stroke-dasharray:1.000000,3.000000;stroke-dashoffset:0.0;stroke-linecap:butt;stroke-width:0.5;"/>
     </g>
     <g id="line2d_23">
      <defs>
       <path d="
M0 0
L4 0" id="m8708a43f2e"/>
      </defs>
      <g>
       <use style="stroke:#000000;stroke-linecap:butt;stroke-width:0.5;" x="54.75625" xlink:href="#m8708a43f2e" y="366.210350516"/>
      </g>
     </g>
     <g id="text_4">
      <!-- -2 -->
      <defs>
       <path d="
M19.1875 8.29688
L53.6094 8.29688
L53.6094 0
L7.32812 0
L7.32812 8.29688
Q12.9375 14.1094 22.625 23.8906
Q32.3281 33.6875 34.8125 36.5312
Q39.5469 41.8438 41.4219 45.5312
Q43.3125 49.2188 43.3125 52.7812
Q43.3125 58.5938 39.2344 62.25
Q35.1562 65.9219 28.6094 65.9219
Q23.9688 65.9219 18.8125 64.3125
Q13.6719 62.7031 7.8125 59.4219
L7.8125 69.3906
Q13.7656 71.7812 18.9375 73
Q24.125 74.2188 28.4219 74.2188
Q39.75 74.2188 46.4844 68.5469
Q53.2188 62.8906 53.2188 53.4219
Q53.2188 48.9219 51.5312 44.8906
Q49.8594 40.875 45.4062 35.4062
Q44.1875 33.9844 37.6406 27.2188
Q31.1094 20.4531 19.1875 8.29688" id="BitstreamVeraSans-Roman-32"/>
       <path d="
M4.89062 31.3906
L31.2031 31.3906
L31.2031 23.3906
L4.89062 23.3906
z
" id="BitstreamVeraSans-Roman-2d"/>
      </defs>
      <g transform="translate(30.405 375.116600516)scale(0.24 -0.24)">
       <use xlink:href="#BitstreamVeraSans-Roman-2d"/>
       <use x="36.083984375" xlink:href="#BitstreamVeraSans-Roman-32"/>
      </g>
     </g>
    </g>
    <g id="ytick_2">
     <g id="line2d_24">
      <path d="
M64.7562 278.727
L557.299 278.727" style="fill:none;stroke:#000000;stroke-dasharray:1.000000,3.000000;stroke-dashoffset:0.0;stroke-linecap:butt;stroke-width:0.5;"/>
     </g>
     <g id="line2d_25">
      <defs>
       <path d="
M0 0
L4 0" id="m8708a43f2e"/>
      </defs>
      <g>
       <use style="stroke:#000000;stroke-linecap:butt;stroke-width:0.5;" x="54.75625" xlink:href="#m8708a43f2e" y="278.726981637"/>
      </g>
     </g>
     <g id="text_5">
      <!-- -1.5 -->
      <defs>
       <path d="
M10.6875 12.4062
L21 12.4062
L21 0
L10.6875 0
z
" id="BitstreamVeraSans-Roman-2e"/>
      </defs>
      <g transform="translate(7.2 287.305106637)scale(0.24 -0.24)">
       <use xlink:href="#BitstreamVeraSans-Roman-2d"/>
       <use x="36.083984375" xlink:href="#BitstreamVeraSans-Roman-31"/>
       <use x="99.70703125" xlink:href="#BitstreamVeraSans-Roman-2e"/>
       <use x="131.494140625" xlink:href="#BitstreamVeraSans-Roman-35"/>
      </g>
     </g>
    </g>
    <g id="ytick_3">
     <g id="line2d_26">
      <path d="
M64.7562 191.244
L557.299 191.244" style="fill:none;stroke:#000000;stroke-dasharray:1.000000,3.000000;stroke-dashoffset:0.0;stroke-linecap:butt;stroke-width:0.5;"/>
     </g>
     <g id="line2d_27">
      <defs>
       <path d="
M0 0
L4 0" id="m8708a43f2e"/>
      </defs>
      <g>
       <use style="stroke:#000000;stroke-linecap:butt;stroke-width:0.5;" x="54.75625" xlink:href="#m8708a43f2e" y="191.243612758"/>
      </g>
     </g>
     <g id="text_6">
      <!-- -1 -->
      <g transform="translate(30.2175 199.992362758)scale(0.24 -0.24)">
       <use xlink:href="#BitstreamVeraSans-Roman-2d"/>
       <use x="36.083984375" xlink:href="#BitstreamVeraSans-Roman-31"/>
      </g>
     </g>
    </g>
    <g id="ytick_4">
     <g id="line2d_28">
      <path d="
M64.7562 103.76
L557.299 103.76" style="fill:none;stroke:#000000;stroke-dasharray:1.000000,3.000000;stroke-dashoffset:0.0;stroke-linecap:butt;stroke-width:0.5;"/>
     </g>
     <g id="line2d_29">
      <defs>
       <path d="
M0 0
L4 0" id="m8708a43f2e"/>
      </defs>
      <g>
       <use style="stroke:#000000;stroke-linecap:butt;stroke-width:0.5;" x="54.75625" xlink:href="#m8708a43f2e" y="103.760243879"/>
      </g>
     </g>
     <g id="text_7">
      <!-- -0.5 -->
      <g transform="translate(7.2 112.495868879)scale(0.24 -0.24)">
       <use xlink:href="#BitstreamVeraSans-Roman-2d"/>
       <use x="36.083984375" xlink:href="#BitstreamVeraSans-Roman-30"/>
       <use x="99.70703125" xlink:href="#BitstreamVeraSans-Roman-2e"/>
       <use x="131.494140625" xlink:href="#BitstreamVeraSans-Roman-35"/>
      </g>
     </g>
    </g>
    <g id="ytick_5">
     <g id="line2d_30">
      <path d="
M64.7562 16.2769
L557.299 16.2769" style="fill:none;stroke:#000000;stroke-dasharray:1.000000,3.000000;stroke-dashoffset:0.0;stroke-linecap:butt;stroke-width:0.5;"/>
     </g>
     <g id="line2d_31">
      <defs>
       <path d="
M0 0
L4 0" id="m8708a43f2e"/>
      </defs>
      <g>
       <use style="stroke:#000000;stroke-linecap:butt;stroke-width:0.5;" x="54.75625" xlink:href="#m8708a43f2e" y="16.276875"/>
      </g>
     </g>
     <g id="text_8">
      <!-- 0 -->
      <g transform="translate(38.6625 25.0125)scale(0.24 -0.24)">
       <use xlink:href="#BitstreamVeraSans-Roman-30"/>
      </g>
     </g>
    </g>
    <g id="ytick_6">
     <g id="line2d_32">
      <defs>
       <path d="
M0 0
L2 0" id="mbe14ae71ee"/>
      </defs>
      <g>
       <use style="stroke:#000000;stroke-linecap:butt;stroke-width:0.5;" x="54.75625" xlink:href="#mbe14ae71ee" y="401.203698068"/>
      </g>
     </g>
    </g>
    <g id="ytick_7">
     <g id="line2d_33">
      <defs>
       <path d="
M0 0
L2 0" id="mbe14ae71ee"/>
      </defs>
      <g>
       <use style="stroke:#000000;stroke-linecap:butt;stroke-width:0.5;" x="54.75625" xlink:href="#mbe14ae71ee" y="383.707024292"/>
      </g>
     </g>
    </g>
    <g id="ytick_8">
     <g id="line2d_34">
      <defs>
       <path d="
M0 0
L2 0" id="mbe14ae71ee"/>
      </defs>
      <g>
       <use style="stroke:#000000;stroke-linecap:butt;stroke-width:0.5;" x="54.75625" xlink:href="#mbe14ae71ee" y="348.713676741"/>
      </g>
     </g>
    </g>
    <g id="ytick_9">
     <g id="line2d_35">
      <defs>
       <path d="
M0 0
L2 0" id="mbe14ae71ee"/>
      </defs>
      <g>
       <use style="stroke:#000000;stroke-linecap:butt;stroke-width:0.5;" x="54.75625" xlink:href="#mbe14ae71ee" y="331.217002965"/>
      </g>
     </g>
    </g>
    <g id="ytick_10">
     <g id="line2d_36">
      <defs>
       <path d="
M0 0
L2 0" id="mbe14ae71ee"/>
      </defs>
      <g>
       <use style="stroke:#000000;stroke-linecap:butt;stroke-width:0.5;" x="54.75625" xlink:href="#mbe14ae71ee" y="313.720329189"/>
      </g>
     </g>
    </g>
    <g id="ytick_11">
     <g id="line2d_37">
      <defs>
       <path d="
M0 0
L2 0" id="mbe14ae71ee"/>
      </defs>
      <g>
       <use style="stroke:#000000;stroke-linecap:butt;stroke-width:0.5;" x="54.75625" xlink:href="#mbe14ae71ee" y="296.223655413"/>
      </g>
     </g>
    </g>
    <g id="ytick_12">
     <g id="line2d_38">
      <defs>
       <path d="
M0 0
L2 0" id="mbe14ae71ee"/>
      </defs>
      <g>
       <use style="stroke:#000000;stroke-linecap:butt;stroke-width:0.5;" x="54.75625" xlink:href="#mbe14ae71ee" y="261.230307861"/>
      </g>
     </g>
    </g>
    <g id="ytick_13">
     <g id="line2d_39">
      <defs>
       <path d="
M0 0
L2 0" id="mbe14ae71ee"/>
      </defs>
      <g>
       <use style="stroke:#000000;stroke-linecap:butt;stroke-width:0.5;" x="54.75625" xlink:href="#mbe14ae71ee" y="243.733634086"/>
      </g>
     </g>
    </g>
    <g id="ytick_14">
     <g id="line2d_40">
      <defs>
       <path d="
M0 0
L2 0" id="mbe14ae71ee"/>
      </defs>
      <g>
       <use style="stroke:#000000;stroke-linecap:butt;stroke-width:0.5;" x="54.75625" xlink:href="#mbe14ae71ee" y="226.23696031"/>
      </g>
     </g>
    </g>
    <g id="ytick_15">
     <g id="line2d_41">
      <defs>
       <path d="
M0 0
L2 0" id="mbe14ae71ee"/>
      </defs>
      <g>
       <use style="stroke:#000000;stroke-linecap:butt;stroke-width:0.5;" x="54.75625" xlink:href="#mbe14ae71ee" y="208.740286534"/>
      </g>
     </g>
    </g>
    <g id="ytick_16">
     <g id="line2d_42">
      <defs>
       <path d="
M0 0
L2 0" id="mbe14ae71ee"/>
      </defs>
      <g>
       <use style="stroke:#000000;stroke-linecap:butt;stroke-width:0.5;" x="54.75625" xlink:href="#mbe14ae71ee" y="191.243612758"/>
      </g>
     </g>
    </g>
    <g id="ytick_17">
     <g id="line2d_43">
      <defs>
       <path d="
M0 0
L2 0" id="mbe14ae71ee"/>
      </defs>
      <g>
       <use style="stroke:#000000;stroke-linecap:butt;stroke-width:0.5;" x="54.75625" xlink:href="#mbe14ae71ee" y="173.746938982"/>
      </g>
     </g>
    </g>
    <g id="ytick_18">
     <g id="line2d_44">
      <defs>
       <path d="
M0 0
L2 0" id="mbe14ae71ee"/>
      </defs>
      <g>
       <use style="stroke:#000000;stroke-linecap:butt;stroke-width:0.5;" x="54.75625" xlink:href="#mbe14ae71ee" y="156.250265207"/>
      </g>
     </g>
    </g>
    <g id="ytick_19">
     <g id="line2d_45">
      <defs>
       <path d="
M0 0
L2 0" id="mbe14ae71ee"/>
      </defs>
      <g>
       <use style="stroke:#000000;stroke-linecap:butt;stroke-width:0.5;" x="54.75625" xlink:href="#mbe14ae71ee" y="138.753591431"/>
      </g>
     </g>
    </g>
    <g id="ytick_20">
     <g id="line2d_46">
      <defs>
       <path d="
M0 0
L2 0" id="mbe14ae71ee"/>
      </defs>
      <g>
       <use style="stroke:#000000;stroke-linecap:butt;stroke-width:0.5;" x="54.75625" xlink:href="#mbe14ae71ee" y="121.256917655"/>
      </g>
     </g>
    </g>
    <g id="ytick_21">
     <g id="line2d_47">
      <defs>
       <path d="
M0 0
L2 0" id="mbe14ae71ee"/>
      </defs>
      <g>
       <use style="stroke:#000000;stroke-linecap:butt;stroke-width:0.5;" x="54.75625" xlink:href="#mbe14ae71ee" y="103.760243879"/>
      </g>
     </g>
    </g>
    <g id="ytick_22">
     <g id="line2d_48">
      <defs>
       <path d="
M0 0
L2 0" id="mbe14ae71ee"/>
      </defs>
      <g>
       <use style="stroke:#000000;stroke-linecap:butt;stroke-width:0.5;" x="54.75625" xlink:href="#mbe14ae71ee" y="86.2635701033"/>
      </g>
     </g>
    </g>
    <g id="ytick_23">
     <g id="line2d_49">
      <defs>
       <path d="
M0 0
L2 0" id="mbe14ae71ee"/>
      </defs>
      <g>
       <use style="stroke:#000000;stroke-linecap:butt;stroke-width:0.5;" x="54.75625" xlink:href="#mbe14ae71ee" y="68.7668963275"/>
      </g>
     </g>
    </g>
    <g id="ytick_24">
     <g id="line2d_50">
      <defs>
       <path d="
M0 0
L2 0" id="mbe14ae71ee"/>
      </defs>
      <g>
       <use style="stroke:#000000;stroke-linecap:butt;stroke-width:0.5;" x="54.75625" xlink:href="#mbe14ae71ee" y="51.2702225516"/>
      </g>
     </g>
    </g>
    <g id="ytick_25">
     <g id="line2d_51">
      <defs>
       <path d="
M0 0
L2 0" id="mbe14ae71ee"/>
      </defs>
      <g>
       <use style="stroke:#000000;stroke-linecap:butt;stroke-width:0.5;" x="54.75625" xlink:href="#mbe14ae71ee" y="33.7735487758"/>
      </g>
     </g>
    </g>
   </g>
   <g id="patch_3">
    <path d="
M64.7562 16.2769
L557.299 16.2769" style="fill:none;stroke:#000000;stroke-width:0.8;"/>
   </g>
   <g id="patch_4">
    <path d="
M54.7562 412.239
L54.7562 8.51291" style="fill:none;stroke:#000000;stroke-width:0.8;"/>
   </g>
  </g>
 </g>
 <defs>
  <clipPath id="p2fe29bff6c">
   <rect height="403.726153846" width="492.5425" x="64.75625" y="8.51291050296"/>
  </clipPath>
 </defs>
</svg>
