<?xml version="1.0" encoding="utf-8" standalone="no"?>
<!DOCTYPE svg PUBLIC "-//W3C//DTD SVG 1.1//EN"
  "http://www.w3.org/Graphics/SVG/1.1/DTD/svg11.dtd">
<!-- Created with matplotlib (http://matplotlib.sourceforge.net/) -->
<svg height="419pt" version="1.1" viewBox="0 0 564 419" width="564pt" xmlns="http://www.w3.org/2000/svg" xmlns:xlink="http://www.w3.org/1999/xlink">
 <defs>
  <style type="text/css">
*{stroke-linecap:square;stroke-linejoin:round;}
  </style>
 </defs>
 <g id="figure_1">
  <g id="patch_1">
   <path d="
M-4.44089e-16 419.439
L564.499 419.439
L564.499 0
L-4.44089e-16 0
z
" style="fill:#ffffff;"/>
  </g>
  <g id="axes_1">
   <g id="patch_2">
    <path d="
M64.7562 412.239
L557.299 412.239
L557.299 8.51291
L64.7562 8.51291
z
" style="fill:#ffffff;"/>
   </g>
   <g id="line2d_1">
    <path clip-path="url(#pe14699e2cb)" d="
M74.2282 16.2769
L85.0604 16.2769
L85.0604 16.2769
L85.0604 16.2769
L98.7073 16.2769
L98.7073 65.1909
L107.696 65.1909
L107.696 113.566
L119.771 113.566
L119.771 188.425
L124.234 188.425
L124.234 219.303
L131.401 219.303
L131.401 274.683
L134.372 274.683
L134.372 288.107
L139.477 288.107
L139.477 298.91
L145.669 298.91
L145.669 319.121
L147.451 319.121
L147.451 326.819
L152.178 326.819
L152.178 338.317
L154.92 338.317
L154.92 340.373
L156.193 340.373
L156.193 342.848
L158.569 342.848
L158.569 350.068
L161.779 350.068
L161.779 362.597
L164.644 362.597
L164.644 369.424
L165.534 369.424
L165.534 370.421
L169.59 370.358
L169.59 371.788
L170.332 371.788
L170.332 373.16
L172.442 373.16
L172.442 374.8
L173.762 374.8
L173.762 376.938
L175.626 376.938
L175.626 381.423
L177.926 381.423
L177.926 388.496
L179.005 388.496
L179.005 390.701
L179.529 390.701
L179.529 391.298
L180.547 391.298
L180.547 391.577
L181.042 391.577
L181.042 392.098
L182.005 392.098
L182.005 393.837
L185.125 393.837
L185.125 401.353
L185.953 401.353
L185.953 402.581
L187.15 402.581
L187.15 403.401
L189.393 403.374
L189.393 404.475
L190.79 404.423
L190.79 403.545
L191.792 403.545
L191.792 402.024
L192.44 402.024
L192.44 400.621
L193.383 400.621
L193.383 397.988
L194.294 397.988
L194.294 396.056
L194.591 396.056
L194.591 395.617
L196.027 395.617
L196.027 394.384
L196.854 394.312
L196.854 393.835
L198.688 393.76
L198.688 394.211
L200.165 394.211
L200.165 393.71
L200.64 393.71
L200.64 393.273
L200.875 393.273
L200.875 392.926
L201.337 392.926
L201.337 392.498
L202.017 392.498
L202.017 391.495
L202.239 391.495
L202.239 391.288
L203.325 391.288
L203.325 390.855
L204.573 390.926
L204.573 390.661
L205.176 390.661
L205.176 390.084
L205.373 390.084
L205.373 389.792
L205.959 389.792
L205.959 388.635
L206.342 388.635
L206.342 388.074
L206.531 388.074
L206.531 387.893
L207.459 387.893
L207.459 387.458
L208.706 387.458
L208.706 386.246
L209.051 386.246
L209.051 386.075
L209.223 386.075
L209.223 385.907
L209.562 385.907
L209.562 385.736
L210.717 385.736
L210.717 384.6
L211.196 384.6
L211.196 383.905
L211.978 383.905
L211.978 383.133
L212.131 383.133
L212.131 382.912
L212.436 382.912
L212.436 382.61
L212.886 382.61
L212.886 382.364
L213.475 382.364
L213.475 381.778
L213.908 381.778
L213.908 381.535
L214.334 381.535
L214.334 381.109
L214.615 381.109
L214.615 380.707
L215.03 380.707
L215.03 380.291
L215.574 380.291
L215.574 379.514
L215.842 379.514
L215.842 379.02
L216.369 379.02
L216.369 377.828
L217.015 377.828
L217.015 376.115
L217.142 376.115
L217.142 375.727
L217.769 375.727
L217.769 373.569
L217.893 373.569
L217.893 373.196
L218.26 373.196
L218.26 372.24
L218.503 372.24
L218.503 371.71
L218.862 371.71
L218.862 371.071
L219.334 371.071
L219.334 370.048
L219.567 370.048
L219.567 369.637
L219.682 369.637
L219.682 369.387
L219.912 369.387
L219.912 368.983
L220.59 368.983
L220.59 368.057
L221.033 368.057
L221.033 367.285
L221.251 367.285
L221.251 366.822
L221.683 366.822
L221.683 366.073
L221.896 366.073
L221.896 365.785
L222.213 365.785
L222.213 365.476
L222.836 365.476
L222.938 365.073
L223.842 365.073
L223.842 364.516
L225.284 364.625
L225.284 364.664
L226.022 364.68
L226.022 364.863
L227.18 364.887
L227.18 365.069
L227.354 365.069
L227.44 365.365
L227.953 365.365
L227.953 365.879
L228.373 365.879
L228.456 366.231
L228.869 366.336
L228.869 366.57
L229.113 366.57
L229.194 367.009
L229.675 367.009
L229.675 367.607
L229.833 367.607
L229.833 367.749
L230.069 367.749
L230.069 367.883
L230.38 367.883
L230.38 368.157
L230.764 368.157
L230.764 368.365
L231.441 368.429
L231.441 368.623
L231.736 368.623
L231.736 368.865
L231.956 368.865
L231.956 369.11
L232.174 369.11
L232.174 369.418
L232.318 369.418
L232.318 369.576
L232.604 369.576
L232.604 369.798
L232.958 369.896
L232.958 369.916
L233.855 369.889
L233.855 370.093
L234.192 370.093
L234.192 370.333
L234.592 370.333
L234.658 370.813
L234.985 370.813
L235.05 371.444
L235.179 371.444
L235.244 371.837
L235.564 371.837
L235.564 372.325
L236.006 372.325
L236.006 372.86
L236.131 372.86
L236.194 373.011
L236.318 373.011
L236.318 373.122
L236.748 373.122
L236.748 373.625
L236.93 373.73
L236.93 373.766
L237.646 373.87
L237.646 374.54
L237.997 374.637
L237.997 374.894
L238.287 374.894
L238.287 375.127
L238.516 375.127
L238.516 375.246
L239.796 375.148
L239.796 375.006
L240.013 375.006
L240.013 374.874
L240.493 374.82
L240.599 374.532
L240.757 374.532
L240.809 374.277
L241.07 374.277
L241.121 373.907
L241.276 373.907
L241.276 373.65
L241.532 373.65
L241.583 373.073
L241.836 373.073
L241.886 372.662
L242.037 372.662
L242.037 372.53
L242.483 372.53
L242.581 372.164
L242.727 372.108
L242.727 372.022
L242.873 372.022
L242.873 371.856
L243.018 371.856
L243.018 371.654
L243.21 371.654
L243.21 371.339
L243.353 371.339
L243.353 371.14
L243.496 371.14
L243.496 370.978
L244.011 370.978
L244.058 370.189
L244.288 370.189
L244.288 369.87
L244.471 369.87
L244.471 369.572
L244.699 369.572
L244.699 369.259
L244.834 369.259
L244.834 369.039
L244.969 369.039
L244.969 368.854
L245.147 368.854
L245.147 368.652
L245.413 368.652
L245.501 368.146
L245.632 368.146
L245.632 367.966
L245.763 367.966
L245.806 367.759
L245.936 367.759
L245.936 367.612
L246.194 367.612
L246.194 367.26
L246.407 367.26
L246.407 367.02
L246.786 367.02
L246.828 366.436
L246.912 366.436
L246.912 366.283
L247.036 366.283
L247.078 365.95
L247.202 365.95
L247.284 365.603
L247.407 365.538
L247.407 365.427
L247.651 365.427
L247.691 365.117
L247.812 365.117
L247.812 364.981
L248.488 364.981
L248.488 364.069
L248.606 364.069
L248.606 363.884
L248.723 363.884
L248.723 363.673
L248.878 363.673
L248.878 363.429
L249.224 363.429
L249.224 362.809
L249.414 362.809
L249.414 362.425
L249.678 362.425
L249.753 361.652
L249.866 361.552
L249.866 361.369
L249.977 361.369
L249.977 361.121
L250.125 361.121
L250.236 360.507
L250.346 360.507
L250.346 360.264
L250.565 360.264
L250.565 359.83
L250.746 359.83
L250.854 359.329
L250.961 359.273
L251.068 358.936
L251.281 358.936
L251.281 358.563
L251.493 358.563
L251.493 358.148
L251.633 358.148
L251.633 357.903
L251.841 357.903
L251.945 357.405
L252.117 357.3
L252.117 357.165
L252.254 357.165
L252.322 356.955
L252.457 356.955
L252.525 356.718
L252.76 356.718
L252.827 356.402
L252.96 356.293
L253.027 356.219
L253.258 356.109
L253.258 356.063
L254.571 355.985
L254.571 355.878
L254.944 355.778
L254.944 355.703
L255.159 355.617
L255.25 355.472
L255.614 355.427
L255.704 355.302
L255.972 355.234
L255.972 355.038
L256.12 355.038
L256.12 354.846
L256.296 354.846
L256.296 354.653
L256.413 354.653
L256.413 354.502
L256.646 354.502
L256.646 354.157
L256.847 354.157
L256.933 353.657
L257.019 353.561
L257.105 353.359
L257.246 353.359
L257.246 353.122
L257.416 353.122
L257.5 352.731
L257.584 352.731
L257.584 352.608
L257.834 352.608
L257.862 352.14
L258.082 352.14
L258.109 351.734
L258.409 351.734
L258.49 351.089
L258.598 351.089
L258.678 350.763
L258.758 350.655
L258.812 350.468
L258.918 350.468
L258.998 350.042
L259.13 350.042
L259.156 349.638
L259.288 349.638
L259.288 349.301
L259.471 349.301
L259.471 348.866
L259.6 348.866
L259.678 348.349
L259.832 348.349
L259.935 347.666
L260.063 347.666
L260.063 347.341
L260.215 347.341
L260.24 346.863
L260.442 346.863
L260.542 346.013
L260.592 346.013
L260.617 345.793
L260.741 345.793
L260.84 345.132
L261.062 345.132
L261.062 344.496
L261.354 344.496
L261.403 343.592
L261.475 343.592
L261.572 343.22
L261.764 343.22
L261.835 342.687
L261.93 342.687
L261.93 342.486
L262.12 342.486
L262.19 342.004
L262.284 342.004
L262.354 341.729
L262.471 341.631
L262.471 341.558
L262.61 341.558
L262.633 341.335
L262.886 341.335
L262.978 340.867
L263.092 340.76
L263.16 340.59
L263.318 340.59
L263.385 340.265
L263.453 340.187
L263.52 340.005
L263.631 339.905
L263.631 339.743
L263.765 339.743
L263.831 339.307
L263.897 339.307
L263.897 339.181
L264.051 339.181
L264.161 338.721
L264.291 338.721
L264.378 338.296
L264.443 338.296
L264.486 338.086
L264.765 338.086
L264.765 337.562
L264.957 337.562
L265.062 337.038
L265.147 337.038
L265.252 336.71
L265.335 336.678
L265.335 336.571
L265.564 336.571
L265.564 336.222
L265.688 336.222
L265.709 335.981
L265.873 335.981
L265.955 335.661
L266.118 335.619
L266.118 335.474
L266.26 335.474
L266.36 335.163
L266.501 335.075
L266.561 334.831
L266.621 334.831
L266.72 334.5
L266.779 334.5
L266.858 334.236
L266.918 334.158
L266.977 334.024
L267.075 334.024
L267.094 333.844
L267.192 333.844
L267.27 333.568
L267.444 333.497
L267.54 333.054
L267.656 333.054
L267.732 332.758
L267.941 332.669
L267.941 332.394
L268.074 332.394
L268.168 331.956
L268.243 331.956
L268.337 331.608
L268.504 331.608
L268.578 331.072
L268.671 331.072
L268.781 330.651
L268.854 330.651
L268.946 330.319
L269.055 330.319
L269.055 330.09
L269.182 330.09
L269.272 329.692
L269.344 329.596
L269.344 329.562
L269.595 329.562
L269.702 328.816
L269.773 328.816
L269.808 328.585
L269.931 328.585
L270.037 328.103
L270.142 328.103
L270.194 327.771
L270.298 327.771
L270.385 327.383
L270.557 327.383
L270.66 326.794
L270.797 326.794
L270.797 326.515
L271.017 326.515
L271.068 325.926
L271.169 325.926
L271.253 325.557
L271.353 325.557
L271.403 325.267
L271.47 325.267
L271.569 324.951
L271.751 324.951
L271.816 324.525
L271.914 324.525
L271.914 324.385
L272.142 324.385
L272.207 324.028
L272.304 323.974
L272.4 323.815
L272.624 323.722
L272.719 323.51
L272.861 323.487
L272.877 323.309
L273.003 323.309
L273.05 323.133
L273.206 323.133
L273.206 322.935
L273.33 322.935
L273.438 322.588
L273.653 322.512
L273.715 322.132
L273.806 322.132
L273.852 321.933
L273.943 321.827
L274.033 321.662
L274.154 321.592
L274.259 321.313
L274.333 321.313
L274.423 321.059
L274.527 321.059
L274.601 320.805
L274.704 320.737
L274.792 320.473
L274.909 320.473
L275.011 320
L275.142 319.936
L275.214 319.512
L275.272 319.512
L275.344 319.164
L275.401 319.164
L275.487 318.787
L275.644 318.787
L275.7 318.282
L275.771 318.282
L275.87 317.85
L275.94 317.773
L275.94 317.651
L276.066 317.651
L276.15 317.076
L276.248 317.076
L276.359 316.555
L276.455 316.555
L276.538 316.145
L276.661 316.145
L276.77 315.669
L276.906 315.575
L276.933 315.381
L277.068 315.381
L277.068 315.108
L277.216 315.108
L277.31 314.64
L277.376 314.579
L277.469 314.248
L277.615 314.248
L277.668 313.759
L277.773 313.759
L277.812 313.351
L277.891 313.351
L277.943 312.954
L278.021 312.954
L278.125 312.363
L278.163 312.322
L278.202 312.131
L278.292 312.131
L278.331 311.734
L278.446 311.734
L278.446 311.34
L278.599 311.34
L278.701 310.515
L278.777 310.475
L278.865 309.981
L278.928 309.981
L278.978 309.621
L279.041 309.621
L279.116 309.21
L279.153 309.21
L279.203 308.943
L279.389 308.943
L279.463 308.115
L279.524 308.115
L279.61 307.675
L279.671 307.675
L279.781 307.227
L279.89 307.138
L279.975 306.761
L280.084 306.761
L280.18 306.255
L280.323 306.167
L280.395 305.758
L280.478 305.758
L280.572 305.361
L280.714 305.361
L280.796 304.775
L280.924 304.682
L281.006 304.182
L281.145 304.073
L281.249 303.38
L281.306 303.297
L281.387 302.901
L281.444 302.901
L281.547 302.365
L281.615 302.365
L281.717 301.781
L281.762 301.743
L281.785 301.558
L281.886 301.558
L281.931 301.081
L282.066 301.081
L282.166 300.319
L282.233 300.319
L282.332 299.79
L282.498 299.79
L282.586 299.008
L282.651 299.008
L282.76 298.505
L282.815 298.505
L282.912 298.055
L282.988 297.957
L283.085 297.509
L283.181 297.437
L283.267 296.86
L283.299 296.86
L283.374 296.485
L283.458 296.485
L283.564 295.757
L283.659 295.757
L283.712 295.19
L283.775 295.19
L283.879 294.504
L284.025 294.504
L284.129 293.518
L284.191 293.442
L284.283 292.96
L284.345 292.96
L284.437 292.422
L284.488 292.316
L284.488 292.241
L284.61 292.241
L284.712 291.47
L284.792 291.47
L284.853 291.049
L284.923 291.049
L284.973 290.702
L285.043 290.702
L285.063 290.436
L285.213 290.436
L285.302 289.699
L285.342 289.699
L285.401 289.384
L285.46 289.384
L285.548 288.925
L285.656 288.925
L285.714 288.412
L285.802 288.412
L285.899 287.811
L285.947 287.721
L285.947 287.663
L286.073 287.663
L286.149 287.071
L286.188 287.071
L286.236 286.81
L286.388 286.81
L286.473 286.138
L286.521 286.054
L286.606 285.777
L286.672 285.777
L286.756 285.407
L286.831 285.301
L286.924 285.021
L286.98 284.954
L286.98 284.881
L287.119 284.881
L287.221 284.231
L287.276 284.163
L287.34 283.929
L287.395 283.929
L287.496 283.563
L287.577 283.48
L287.686 283.106
L287.777 283.106
L287.849 282.684
L287.912 282.684
L287.912 282.523
L288.037 282.523
L288.064 282.113
L288.153 282.113
L288.251 281.596
L288.312 281.491
L288.418 281.086
L288.471 281.005
L288.568 280.613
L288.62 280.613
L288.707 280.152
L288.751 280.152
L288.838 279.725
L288.881 279.725
L288.985 279.265
L289.045 279.182
L289.122 278.859
L289.199 278.859
L289.302 278.398
L289.37 278.334
L289.472 277.978
L289.548 277.87
L289.649 277.635
L289.708 277.568
L289.8 277.326
L289.933 277.261
L289.958 277.005
L290.05 277.005
L290.149 276.635
L290.223 276.581
L290.223 276.518
L290.346 276.518
L290.453 276.148
L290.542 276.044
L290.591 275.928
L290.696 275.824
L290.745 275.697
L290.817 275.697
L290.914 275.411
L290.986 275.328
L291.082 275.125
L291.145 275.084
L291.217 274.887
L291.312 274.887
L291.391 274.591
L291.477 274.51
L291.579 274.231
L291.689 274.138
L291.79 273.801
L291.852 273.801
L291.921 273.538
L292.037 273.538
L292.129 273.129
L292.206 273.044
L292.312 272.761
L292.388 272.703
L292.457 272.512
L292.54 272.436
L292.63 272.242
L292.72 272.153
L292.81 272.022
L292.944 271.924
L293.041 271.785
L293.188 271.675
L293.299 271.596
L293.54 271.508
L293.612 271.459
L294.001 271.369
L294.108 271.315
L294.511 271.209
L294.609 271.174
L296.34 271.275
L296.438 271.322
L296.704 271.427
L296.781 271.475
L296.961 271.536
L297.069 271.673
L297.203 271.784
L297.304 271.927
L297.43 271.95
L297.512 272.194
L297.624 272.251
L297.73 272.447
L297.823 272.548
L297.885 272.633
L297.99 272.734
L298.088 272.869
L298.21 272.967
L298.302 273.072
L298.447 273.179
L298.556 273.311
L298.724 273.377
L298.808 273.515
L298.975 273.615
L299.081 273.683
L299.328 273.794
L299.428 273.906
L299.619 274.015
L299.706 274.096
L299.896 274.205
L299.97 274.246
L300.204 274.345
L300.305 274.424
L300.457 274.533
L300.541 274.664
L300.642 274.664
L300.742 274.886
L300.891 274.976
L300.947 275.043
L301.09 275.147
L301.193 275.258
L301.335 275.362
L301.422 275.441
L301.578 275.55
L301.68 275.648
L301.867 275.739
L301.952 275.838
L302.169 275.945
L302.279 276.026
L302.473 276.136
L302.566 276.234
L302.706 276.342
L302.814 276.53
L302.901 276.632
L302.978 276.742
L303.07 276.821
L303.151 276.983
L303.242 277.089
L303.343 277.288
L303.423 277.384
L303.494 277.536
L303.599 277.633
L303.708 277.89
L303.778 277.966
L303.822 278.08
L303.901 278.08
L303.99 278.366
L304.078 278.459
L304.166 278.606
L304.249 278.668
L304.322 278.831
L304.429 278.915
L304.54 279.155
L304.631 279.25
L304.741 279.43
L304.889 279.528
L304.984 279.703
L305.083 279.808
L305.159 279.91
L305.267 280.017
L305.37 280.164
L305.482 280.272
L305.565 280.35
L305.727 280.461
L305.81 280.515
L306.002 280.62
L306.061 280.714
L306.166 280.818
L306.265 280.964
L306.387 281.051
L306.49 281.22
L306.597 281.31
L306.664 281.4
L306.797 281.497
L306.903 281.682
L307.074 281.787
L307.171 282.02
L307.249 282.114
L307.349 282.27
L307.457 282.333
L307.561 282.47
L307.754 282.575
L307.843 282.628
L308.03 282.739
L308.131 282.821
L308.324 282.923
L308.424 282.976
L310.452 282.867
L310.533 282.852
L311.976 282.96
L312.085 283
L312.399 283.111
L312.506 283.142
L312.815 283.25
L312.907 283.303
L313.107 283.409
L313.215 283.481
L313.378 283.59
L313.472 283.666
L313.729 283.775
L313.784 283.786
L313.79 283.785
L314.44 283.675
L314.536 283.638
L315.741 283.734
L315.845 283.817
L315.987 283.925
L316.09 283.984
L316.438 284.089
L316.549 284.113
L317.491 284.004
L317.586 283.973
L318.689 284.071
L318.799 284.119
L319.435 284.222
L319.537 284.262
L320.073 284.153
L320.178 284.088
L321.703 283.977
L321.804 283.947
L322.177 283.84
L322.254 283.799
L322.548 283.689
L322.651 283.624
L322.822 283.523
L322.928 283.449
L323.109 283.357
L323.203 283.27
L323.377 283.163
L323.484 283.08
L323.633 282.975
L323.729 282.88
L323.87 282.778
L323.977 282.661
L324.065 282.553
L324.172 282.356
L324.239 282.265
L324.342 282.044
L324.432 281.937
L324.534 281.739
L324.63 281.628
L324.741 281.408
L324.809 281.3
L324.903 281.156
L324.998 281.066
L325.078 280.945
L325.189 280.839
L325.292 280.708
L325.382 280.599
L325.468 280.489
L325.589 280.381
L325.687 280.286
L325.829 280.186
L325.935 280.081
L326.077 279.974
L326.187 279.855
L326.309 279.751
L326.411 279.629
L326.567 279.52
L326.662 279.404
L326.816 279.303
L326.926 279.199
L327.059 279.091
L327.165 279.015
L327.35 278.907
L327.46 278.847
L327.753 278.739
L327.862 278.68
L328.082 278.575
L328.186 278.509
L328.429 278.401
L328.539 278.367
L328.774 278.269
L328.874 278.199
L329.029 278.088
L329.133 278.026
L329.606 277.928
L329.714 277.862
L329.888 277.752
L329.99 277.677
L330.177 277.57
L330.284 277.495
L330.416 277.392
L330.523 277.259
L330.645 277.151
L330.748 277.05
L330.887 276.946
L330.996 276.827
L331.103 276.735
L331.21 276.58
L331.306 276.473
L331.405 276.338
L331.496 276.237
L331.607 276.04
L331.685 275.932
L331.789 275.776
L331.881 275.671
L331.98 275.533
L332.063 275.422
L332.16 275.242
L332.232 275.135
L332.334 274.959
L332.413 274.852
L332.513 274.71
L332.626 274.606
L332.736 274.487
L332.885 274.388
L332.995 274.322
L333.194 274.216
L333.287 274.162
L333.485 274.054
L333.593 273.968
L333.811 273.857
L333.92 273.816
L334.156 273.705
L334.266 273.654
L334.408 273.545
L334.51 273.447
L334.66 273.345
L334.76 273.252
L334.986 273.142
L335.089 273.1
L335.305 272.989
L335.409 272.914
L335.568 272.808
L335.671 272.726
L335.847 272.616
L335.953 272.548
L336.844 272.657
L336.952 272.733
L337.128 272.843
L337.234 272.937
L337.399 273.038
L337.492 273.132
L337.643 273.243
L337.75 273.331
L337.888 273.44
L337.992 273.534
L338.235 273.643
L338.344 273.708
L338.511 273.813
L338.621 273.899
L338.785 274.003
L338.89 274.109
L339.032 274.214
L339.141 274.374
L339.263 274.46
L339.368 274.568
L339.579 274.678
L339.685 274.737
L340.03 274.847
L340.135 274.858
L340.645 274.751
L340.748 274.683
L340.935 274.572
L341.044 274.479
L341.162 274.38
L341.269 274.24
L341.367 274.131
L341.476 274.021
L341.581 273.915
L341.69 273.796
L341.789 273.692
L341.897 273.54
L342.021 273.444
L342.132 273.336
L342.297 273.229
L342.402 273.153
L342.55 273.048
L342.653 272.938
L342.792 272.838
L342.895 272.748
L343.042 272.64
L343.146 272.533
L343.265 272.428
L343.372 272.313
L343.481 272.206
L343.587 272.088
L343.715 271.983
L343.825 271.86
L343.924 271.751
L344.034 271.594
L344.116 271.49
L344.221 271.346
L344.318 271.236
L344.426 271.08
L344.529 270.97
L344.635 270.852
L344.732 270.744
L344.835 270.583
L344.918 270.473
L345.011 270.345
L345.098 270.25
L345.207 270.11
L345.325 270.002
L345.432 269.907
L345.582 269.8
L345.684 269.725
L345.818 269.616
L345.928 269.484
L346.035 269.389
L346.14 269.236
L346.251 269.128
L346.361 268.979
L346.456 268.879
L346.562 268.739
L346.681 268.634
L346.791 268.527
L346.929 268.417
L347.037 268.316
L347.172 268.206
L347.283 268.106
L347.453 268.002
L347.559 267.926
L347.74 267.815
L347.847 267.778
L348.965 267.669
L349.07 267.612
L349.238 267.502
L349.349 267.419
L349.575 267.309
L349.684 267.229
L349.839 267.119
L349.947 267.056
L350.131 266.947
L350.236 266.879
L350.473 266.768
L350.574 266.715
L350.781 266.606
L350.886 266.561
L351.618 266.451
L351.725 266.393
L351.954 266.283
L352.064 266.241
L352.319 266.134
L352.425 266.101
L352.688 265.992
L352.798 265.922
L353.089 265.813
L353.193 265.784
L353.535 265.675
L353.643 265.643
L353.945 265.535
L354.055 265.463
L354.227 265.352
L354.335 265.298
L354.761 265.188
L354.867 265.145
L355.149 265.038
L355.257 264.971
L355.437 264.861
L355.548 264.773
L355.986 264.662
L356.093 264.647
L356.659 264.758
L356.764 264.779
L357.798 264.668
L357.907 264.632
L358.146 264.521
L358.256 264.444
L358.428 264.336
L358.536 264.256
L358.72 264.152
L358.831 264.058
L359.004 263.948
L359.113 263.872
L359.257 263.763
L359.368 263.637
L359.463 263.541
L359.574 263.38
L359.662 263.27
L359.772 263.145
L359.86 263.038
L359.971 262.865
L360.046 262.768
L360.155 262.587
L360.231 262.481
L360.34 262.324
L360.421 262.215
L360.529 262.085
L360.641 261.979
L360.748 261.881
L360.89 261.771
L361.001 261.688
L361.197 261.577
L361.306 261.521
L361.545 261.412
L361.653 261.365
L362.178 261.255
L362.286 261.214
L362.759 261.104
L362.868 261.07
L363.166 260.96
L363.275 260.882
L363.402 260.777
L363.51 260.655
L363.603 260.545
L363.71 260.387
L363.796 260.279
L363.906 260.128
L364.011 260.018
L364.12 259.87
L364.21 259.761
L364.318 259.626
L364.426 259.517
L364.536 259.403
L364.64 259.293
L364.751 259.156
L364.862 259.053
L364.966 258.913
L365.071 258.802
L365.18 258.693
L365.304 258.584
L365.414 258.476
L365.563 258.366
L365.673 258.292
L365.957 258.181
L366.066 258.151
L366.332 258.041
L366.44 257.974
L366.719 257.863
L366.829 257.844
L367.243 257.733
L367.354 257.664
L367.515 257.555
L367.624 257.45
L367.772 257.34
L367.883 257.265
L368.045 257.154
L368.156 257.068
L368.291 256.959
L368.394 256.884
L368.527 256.776
L368.633 256.685
L368.768 256.576
L368.876 256.489
L369.056 256.38
L369.166 256.342
L369.449 256.232
L369.559 256.189
L369.802 256.08
L369.911 256.021
L370.173 255.91
L370.283 255.826
L370.425 255.716
L370.532 255.627
L370.648 255.516
L370.758 255.42
L370.879 255.312
L370.99 255.184
L371.101 255.074
L371.204 254.966
L371.316 254.858
L371.426 254.755
L371.538 254.644
L371.648 254.511
L371.728 254.406
L371.838 254.245
L371.915 254.134
L372.02 253.992
L372.102 253.884
L372.211 253.724
L372.285 253.617
L372.394 253.439
L372.467 253.33
L372.576 253.148
L372.655 253.039
L372.765 252.903
L372.872 252.794
L372.977 252.68
L373.08 252.57
L373.191 252.456
L373.297 252.346
L373.407 252.226
L373.51 252.115
L373.617 252.006
L373.768 251.899
L373.877 251.816
L374.024 251.707
L374.134 251.617
L374.275 251.506
L374.385 251.411
L374.533 251.307
L374.643 251.203
L374.767 251.093
L374.877 250.987
L374.999 250.877
L375.111 250.741
L375.235 250.636
L375.344 250.516
L375.442 250.405
L375.553 250.27
L375.646 250.159
L375.756 249.994
L375.841 249.883
L375.951 249.723
L376.029 249.614
L376.14 249.454
L376.217 249.343
L376.327 249.16
L376.4 249.051
L376.511 248.859
L376.581 248.75
L376.691 248.568
L376.759 248.458
L376.869 248.259
L376.93 248.15
L377.038 247.952
L377.097 247.846
L377.208 247.622
L377.267 247.515
L377.378 247.297
L377.445 247.187
L377.555 247.002
L377.62 246.892
L377.73 246.693
L377.794 246.585
L377.905 246.384
L377.969 246.273
L378.079 246.079
L378.14 245.97
L378.249 245.737
L378.303 245.627
L378.413 245.397
L378.47 245.287
L378.58 245.082
L378.641 244.971
L378.75 244.778
L378.83 244.668
L378.941 244.521
L379.01 244.414
L379.12 244.235
L379.208 244.128
L379.317 243.984
L379.421 243.873
L379.532 243.786
L379.656 243.675
L379.765 243.56
L379.907 243.45
L380.017 243.389
L380.667 243.278
L380.775 243.265
L382.217 243.154
L382.327 243.112
L382.567 243.002
L382.675 242.97
L382.956 242.861
L383.067 242.788
L383.319 242.678
L383.43 242.624
L383.658 242.513
L383.768 242.477
L384.109 242.366
L384.219 242.319
L384.716 242.209
L384.825 242.179
L385.546 242.068
L385.657 241.987
L385.801 241.879
L385.912 241.799
L386.07 241.69
L386.18 241.616
L386.434 241.506
L386.544 241.464
L388.914 241.575
L389.023 241.608
L389.837 241.718
L389.946 241.765
L390.231 241.876
L390.341 241.894
L390.796 242.004
L390.907 242.066
L391.208 242.177
L391.316 242.211
L391.879 242.322
L391.989 242.353
L393.894 242.464
L394.005 242.531
L394.14 242.641
L394.25 242.727
L394.386 242.838
L394.496 242.92
L394.721 243.031
L394.831 243.083
L395.652 243.194
L395.763 243.24
L396.281 243.351
L396.391 243.374
L397.426 243.485
L397.536 243.539
L397.894 243.65
L398.005 243.677
L398.701 243.788
L398.81 243.82
L399.082 243.93
L399.192 243.96
L399.715 244.071
L399.718 244.071
L399.722 244.071
L399.722 244.071
L399.831 244.058
L400.199 244.169
L400.309 244.219
L400.577 244.33
L400.687 244.386
L400.984 244.497
L401.094 244.552
L401.24 244.662
L401.349 244.743
L401.57 244.854
L401.681 244.876
L402.058 244.987
L402.169 245.042
L402.364 245.153
L402.475 245.226
L402.688 245.337
L402.799 245.412
L402.965 245.523
L403.075 245.595
L403.327 245.706
L403.434 245.756
L403.691 245.867
L403.802 245.944
L403.976 246.055
L404.087 246.101
L404.447 246.211
L404.558 246.244
L405.549 246.133
L405.659 246.092
L406.033 245.981
L406.092 245.974
L406.144 245.977
L406.986 245.866
L407.097 245.812
L407.449 245.701
L407.559 245.656
L407.978 245.545
L408.088 245.489
L408.384 245.378
L408.494 245.343
L409.267 245.232
L409.358 245.22
L409.377 245.221
L410.104 245.11
L410.214 245.082
L411.897 244.972
L412.008 244.929
L412.588 244.818
L412.698 244.768
L412.915 244.657
L413.026 244.628
L413.735 244.517
L413.846 244.505
L414.566 244.616
L414.677 244.682
L414.834 244.793
L414.945 244.878
L415.077 244.988
L415.186 245.061
L415.381 245.172
L415.492 245.26
L415.638 245.371
L415.749 245.437
L415.932 245.548
L416.043 245.644
L416.176 245.755
L416.287 245.864
L416.396 245.974
L416.507 246.115
L416.588 246.226
L416.698 246.39
L416.775 246.501
L416.885 246.645
L416.964 246.755
L417.075 246.924
L417.146 247.034
L417.257 247.215
L417.32 247.323
L417.431 247.523
L417.497 247.634
L417.608 247.811
L417.679 247.922
L417.791 248.093
L417.866 248.203
L417.977 248.35
L418.069 248.461
L418.18 248.609
L418.269 248.719
L418.38 248.849
L418.474 248.959
L418.584 249.074
L418.715 249.185
L418.826 249.288
L418.938 249.399
L419.049 249.501
L419.162 249.612
L419.272 249.716
L419.394 249.827
L419.505 249.912
L419.647 250.023
L419.758 250.121
L419.881 250.232
L419.992 250.332
L420.157 250.443
L420.268 250.518
L420.421 250.629
L420.532 250.71
L420.709 250.821
L420.82 250.893
L421.025 251.004
L421.136 251.074
L421.376 251.185
L421.487 251.245
L421.691 251.356
L421.802 251.418
L421.968 251.529
L422.078 251.593
L423.059 251.482
L423.17 251.456
L423.345 251.346
L423.456 251.254
L423.602 251.143
L423.713 251.062
L423.904 250.951
L424.015 250.863
L424.137 250.752
L424.246 250.654
L424.383 250.543
L424.494 250.473
L424.658 250.362
L424.769 250.289
L424.96 250.178
L425.07 250.109
L425.233 249.998
L425.343 249.903
L425.465 249.792
L425.576 249.702
L425.728 249.591
L425.839 249.52
L425.994 249.409
L426.105 249.331
L426.305 249.22
L426.416 249.14
L426.528 249.029
L426.639 248.918
L426.751 248.808
L426.861 248.679
L426.974 248.568
L427.085 248.474
L427.203 248.363
L427.313 248.251
L427.41 248.14
L427.52 248.008
L427.623 247.897
L427.734 247.774
L427.829 247.663
L427.94 247.543
L428.034 247.432
L428.145 247.272
L428.221 247.161
L428.332 247.015
L428.418 246.904
L428.529 246.756
L428.613 246.645
L428.724 246.5
L428.81 246.389
L428.921 246.251
L429.006 246.14
L429.117 245.987
L429.199 245.876
L429.31 245.709
L429.384 245.598
L429.495 245.44
L429.579 245.33
L429.69 245.169
L429.768 245.059
L429.879 244.908
L429.968 244.797
L430.079 244.657
L430.153 244.546
L430.264 244.368
L430.331 244.257
L430.441 244.077
L430.518 243.967
L430.628 243.789
L430.697 243.679
L430.808 243.503
L430.884 243.393
L430.995 243.254
L431.1 243.143
L431.211 243.004
L431.299 242.893
L431.41 242.761
L431.506 242.65
L431.615 242.516
L431.71 242.405
L431.821 242.281
L431.922 242.17
L432.033 242.054
L432.139 241.944
L432.249 241.842
L432.435 241.731
L432.546 241.679
L432.788 241.568
L432.899 241.509
L433.25 241.398
L433.361 241.38
L433.954 241.269
L434.064 241.246
L435.441 241.135
L435.552 241.119
L436.417 241.008
L436.528 240.986
L438.966 240.875
L439.077 240.821
L439.305 240.71
L439.415 240.639
L439.571 240.528
L439.682 240.474
L439.864 240.363
L439.975 240.309
L440.344 240.198
L440.455 240.163
L440.797 240.052
L440.908 240.015
L441.607 239.904
L441.717 239.867
L442.416 239.756
L442.527 239.734
L443.3 239.845
L443.411 239.865
L443.777 239.976
L443.888 240.002
L445.371 239.891
L445.482 239.865
L446.705 239.754
L446.816 239.704
L447.023 239.593
L447.134 239.529
L447.342 239.418
L447.453 239.357
L447.684 239.246
L447.795 239.197
L448.263 239.086
L448.374 239.036
L448.695 238.925
L448.806 238.884
L448.999 238.773
L449.109 238.712
L449.339 238.601
L449.45 238.554
L449.685 238.443
L449.795 238.394
L450.035 238.283
L450.146 238.22
L450.416 238.109
L450.527 238.057
L450.789 237.945
L450.9 237.899
L451.228 237.788
L451.339 237.779
L451.864 237.668
L451.975 237.654
L452.415 237.543
L452.526 237.488
L452.786 237.377
L452.897 237.314
L453.08 237.203
L453.191 237.143
L453.385 237.032
L453.496 236.972
L453.709 236.861
L453.82 236.806
L454.089 236.695
L454.2 236.645
L454.448 236.534
L454.559 236.462
L454.824 236.351
L454.935 236.291
L455.097 236.18
L455.208 236.121
L455.392 236.01
L455.503 235.935
L455.734 235.824
L455.845 235.769
L456.094 235.658
L456.205 235.587
L456.34 235.476
L456.451 235.377
L456.549 235.266
L456.66 235.142
L456.765 235.032
L456.876 234.897
L456.96 234.786
L457.071 234.621
L457.145 234.51
L457.256 234.347
L457.334 234.236
L457.445 234.064
L457.526 233.953
L457.637 233.803
L457.722 233.692
L457.833 233.546
L457.923 233.435
L458.034 233.289
L458.128 233.178
L458.239 233.066
L458.362 232.955
L458.473 232.847
L458.578 232.736
L458.689 232.62
L458.808 232.509
L458.919 232.386
L459.021 232.275
L459.132 232.151
L459.23 232.04
L459.341 231.928
L459.444 231.817
L459.555 231.714
L459.67 231.603
L459.781 231.496
L459.917 231.385
L460.028 231.281
L460.135 231.17
L460.246 231.036
L460.333 230.925
L460.444 230.791
L460.545 230.68
L460.657 230.556
L460.757 230.445
L460.868 230.305
L460.969 230.194
L461.08 230.07
L461.167 229.959
L461.278 229.823
L461.364 229.712
L461.475 229.56
L461.553 229.449
L461.664 229.29
L461.744 229.179
L461.855 229.025
L461.934 228.913
L462.045 228.746
L462.129 228.635
L462.241 228.489
L462.331 228.378
L462.442 228.239
L462.526 228.128
L462.637 227.96
L462.709 227.849
L462.82 227.666
L462.885 227.555
L462.996 227.371
L463.059 227.26
L463.17 227.05
L463.226 226.94
L463.337 226.729
L463.403 226.619
L463.514 226.427
L463.58 226.316
L463.691 226.13
L463.759 226.019
L463.87 225.829
L463.938 225.719
L464.049 225.544
L464.119 225.433
L464.23 225.244
L464.294 225.133
L464.405 224.938
L464.467 224.827
L464.578 224.611
L464.634 224.5
L464.746 224.291
L464.807 224.18
L464.917 223.998
L464.99 223.887
L465.101 223.7
L465.161 223.59
L465.272 223.378
L465.328 223.267
L465.439 223.046
L465.491 222.935
L465.602 222.703
L465.654 222.592
L465.765 222.367
L465.829 222.256
L465.94 222.053
L466.003 221.941
L466.114 221.741
L466.178 221.63
L466.289 221.431
L466.353 221.32
L466.464 221.117
L466.522 221.006
L466.633 220.791
L466.689 220.68
L466.8 220.464
L466.858 220.353
L466.969 220.136
L467.026 220.025
L467.137 219.823
L467.198 219.712
L467.309 219.516
L467.37 219.405
L467.481 219.179
L467.537 219.068
L467.648 218.838
L467.708 218.726
L467.819 218.521
L467.88 218.41
L467.991 218.207
L468.052 218.096
L468.163 217.918
L468.242 217.807
L468.353 217.653
L468.434 217.542
L468.545 217.408
L468.661 217.297
L468.772 217.205
L468.905 217.095
L469.017 217.004
L469.141 216.893
L469.252 216.778
L469.346 216.667
L469.457 216.526
L469.545 216.415
L469.656 216.281
L469.76 216.17
L469.871 216.052
L469.971 215.941
L470.082 215.814
L470.175 215.703
L470.286 215.583
L470.391 215.472
L470.502 215.347
L470.597 215.236
L470.708 215.117
L470.821 215.006
L470.932 214.904
L471.056 214.793
L471.167 214.692
L471.304 214.581
L471.416 214.49
L471.55 214.379
L471.661 214.273
L471.767 214.162
L471.878 214.038
L471.975 213.927
L472.086 213.808
L472.203 213.697
L472.314 213.596
L472.431 213.485
L472.542 213.364
L472.653 213.253
L472.764 213.156
L472.91 213.045
L473.021 212.951
L473.148 212.84
L473.259 212.746
L473.386 212.635
L473.497 212.54
L473.619 212.429
L473.73 212.34
L473.857 212.229
L473.968 212.133
L474.083 212.022
L474.194 211.901
L474.295 211.79
L474.406 211.671
L474.518 211.56
L474.629 211.481
L474.77 211.37
L474.881 211.276
L475.029 211.165
L475.14 211.068
L475.286 210.956
L475.397 210.862
L475.49 210.751
L475.601 210.593
L475.676 210.482
L475.787 210.316
L475.863 210.205
L475.975 210.047
L476.055 209.936
L476.166 209.791
L476.249 209.681
L476.361 209.534
L476.441 209.423
L476.552 209.26
L476.624 209.149
L476.735 208.971
L476.8 208.86
L476.911 208.671
L476.978 208.56
L477.089 208.384
L477.162 208.273
L477.273 208.117
L477.346 208.006
L477.457 207.829
L477.528 207.718
L477.639 207.525
L477.701 207.414
L477.812 207.231
L477.884 207.12
L477.995 206.963
L478.071 206.852
L478.182 206.68
L478.254 206.569
L478.365 206.384
L478.426 206.273
L478.537 206.068
L478.6 205.957
L478.711 205.759
L478.779 205.648
L478.89 205.467
L478.954 205.356
L479.065 205.17
L479.133 205.059
L479.244 204.878
L479.312 204.767
L479.424 204.604
L479.496 204.493
L479.607 204.331
L479.677 204.22
L479.788 204.035
L479.853 203.924
L479.964 203.72
L480.024 203.609
L480.135 203.388
L480.191 203.277
L480.302 203.069
L480.363 202.958
L480.474 202.757
L480.535 202.646
L480.646 202.446
L480.71 202.335
L480.821 202.133
L480.89 202.022
L481.001 201.861
L481.074 201.75
L481.185 201.583
L481.262 201.472
L481.373 201.296
L481.443 201.185
L481.554 201.027
L481.63 200.916
L481.742 200.744
L481.814 200.633
L481.925 200.458
L481.991 200.347
L482.102 200.17
L482.176 200.06
L482.287 199.886
L482.358 199.775
L482.469 199.582
L482.532 199.471
L482.643 199.256
L482.701 199.145
L482.813 198.915
L482.867 198.804
L482.978 198.57
L483.032 198.459
L483.143 198.239
L483.199 198.128
L483.31 197.914
L483.367 197.803
L483.478 197.567
L483.532 197.456
L483.643 197.221
L483.695 197.11
L483.806 196.883
L483.863 196.772
L483.974 196.57
L484.039 196.459
L484.15 196.265
L484.214 196.154
L484.324 195.956
L484.392 195.845
L484.503 195.656
L484.562 195.545
L484.673 195.339
L484.732 195.228
L484.843 195.014
L484.905 194.903
L485.016 194.707
L485.08 194.595
L485.191 194.413
L485.26 194.302
L485.371 194.114
L485.436 194.003
L485.547 193.809
L485.605 193.697
L485.716 193.5
L485.779 193.389
L485.89 193.205
L485.957 193.095
L486.068 192.911
L486.133 192.8
L486.244 192.591
L486.308 192.48
L486.419 192.273
L486.477 192.162
L486.588 191.962
L486.652 191.85
L486.763 191.662
L486.829 191.551
L486.94 191.362
L487.004 191.251
L487.115 191.052
L487.174 190.941
L487.285 190.725
L487.345 190.613
L487.456 190.412
L487.516 190.301
L487.627 190.107
L487.687 189.996
L487.798 189.797
L487.856 189.686
L487.967 189.474
L488.023 189.363
L488.134 189.13
L488.187 189.019
L488.298 188.792
L488.35 188.681
L488.461 188.447
L488.519 188.336
L488.63 188.119
L488.691 188.008
L488.802 187.812
L488.868 187.701
L488.979 187.51
L489.043 187.399
L489.154 187.213
L489.222 187.102
L489.333 186.924
L489.411 186.813
L489.522 186.636
L489.587 186.525
L489.698 186.327
L489.757 186.216
L489.868 185.994
L489.926 185.883
L490.037 185.671
L490.096 185.56
L490.207 185.352
L490.268 185.241
L490.379 185.048
L490.445 184.937
L490.556 184.727
L490.621 184.616
L490.732 184.444
L490.802 184.333
L490.913 184.151
L490.982 184.039
L491.093 183.861
L491.161 183.749
L491.272 183.558
L491.335 183.447
L491.446 183.256
L491.504 183.145
L491.615 182.922
L491.671 182.811
L491.782 182.595
L491.84 182.484
L491.951 182.255
L492.002 182.144
L492.113 181.895
L492.163 181.784
L492.274 181.549
L492.327 181.438
L492.438 181.19
L492.486 181.079
L492.597 180.817
L492.643 180.706
L492.754 180.442
L492.801 180.331
L492.912 180.075
L492.962 179.964
L493.073 179.726
L493.128 179.615
L493.239 179.384
L493.288 179.272
L493.4 179.025
L493.449 178.914
L493.56 178.659
L493.608 178.548
L493.719 178.28
L493.765 178.169
L493.877 177.908
L493.926 177.797
L494.037 177.57
L494.095 177.459
L494.206 177.262
L494.267 177.151
L494.378 176.953
L494.437 176.842
L494.548 176.63
L494.604 176.519
L494.715 176.296
L494.772 176.185
L494.883 175.972
L494.942 175.861
L495.053 175.63
L495.101 175.519
L495.212 175.254
L495.258 175.143
L495.369 174.877
L495.418 174.766
L495.529 174.528
L495.582 174.417
L495.693 174.173
L495.742 174.062
L495.853 173.795
L495.897 173.685
L496.008 173.402
L496.051 173.291
L496.162 173.011
L496.207 172.9
L496.318 172.621
L496.36 172.51
L496.471 172.219
L496.514 172.108
L496.625 171.844
L496.673 171.733
L496.784 171.488
L496.832 171.376
L496.943 171.118
L496.992 171.007
L497.103 170.746
L497.148 170.635
L497.26 170.375
L497.303 170.264
L497.414 169.988
L497.463 169.877
L497.574 169.615
L497.623 169.504
L497.734 169.253
L497.782 169.142
L497.893 168.885
L497.941 168.774
L498.052 168.546
L498.105 168.435
L498.216 168.191
L498.266 168.08
L498.377 167.829
L498.425 167.718
L498.536 167.465
L498.587 167.354
L498.698 167.12
L498.753 167.009
L498.864 166.78
L498.917 166.669
L499.029 166.433
L499.08 166.322
L499.192 166.095
L499.248 165.984
L499.36 165.774
L499.419 165.663
L499.53 165.462
L499.595 165.351
L499.706 165.166
L499.773 165.055
L499.884 164.874
L499.952 164.763
L500.063 164.577
L500.126 164.466
L500.238 164.266
L500.303 164.155
L500.414 163.976
L500.483 163.865
L500.594 163.693
L500.669 163.582
L500.78 163.426
L500.869 163.315
L500.98 163.194
L501.081 163.083
L501.192 162.952
L501.29 162.841
L501.401 162.729
L501.515 162.618
L501.626 162.507
L501.738 162.396
L501.849 162.27
L501.938 162.159
L502.049 161.987
L502.114 161.876
L502.225 161.687
L502.299 161.576
L502.41 161.416
L502.488 161.305
L502.599 161.157
L502.693 161.046
L502.804 160.938
L502.904 160.827
L503.015 160.701
L503.11 160.59
L503.222 160.435
L503.296 160.324
L503.407 160.163
L503.484 160.052
L503.595 159.882
L503.671 159.771
L503.782 159.612
L503.861 159.501
L503.972 159.35
L504.051 159.239
L504.162 159.083
L504.247 158.972
L504.359 158.811
L504.446 158.7
L504.557 158.566
L504.66 158.454
L504.771 158.325
L504.858 158.214
L504.969 158.074
L505.06 157.963
L505.171 157.82
L505.258 157.709
L505.369 157.551
L505.443 157.44
L505.554 157.277
L505.626 157.166
L505.737 157.019
L505.83 156.908
L505.941 156.776
L506.031 156.665
L506.143 156.532
L506.238 156.421
L506.349 156.304
L506.464 156.193
L506.575 156.082
L506.71 155.971
L506.821 155.892
L507.041 155.781
L507.152 155.732
L507.448 155.621
L507.559 155.552
L507.709 155.441
L507.82 155.355
L507.974 155.244
L508.085 155.173
L508.248 155.062
L508.359 154.975
L508.487 154.864
L508.598 154.77
L508.715 154.659
L508.826 154.541
L508.928 154.43
L509.039 154.304
L509.14 154.193
L509.251 154.08
L509.379 153.969
L509.49 153.884
L509.629 153.773
L509.74 153.668
L509.854 153.557
L509.965 153.447
L510.069 153.336
L510.18 153.211
L510.276 153.1
L510.387 152.977
L510.49 152.866
L510.602 152.746
L510.707 152.635
L510.818 152.514
L510.92 152.403
L511.031 152.278
L511.128 152.167
L511.239 152.04
L511.346 151.929
L511.457 151.823
L511.575 151.712
L511.686 151.617
L511.8 151.506
L511.911 151.391
L512.02 151.28
L512.131 151.17
L512.27 151.059
L512.381 150.976
L512.538 150.865
L512.649 150.786
L512.786 150.675
L512.897 150.586
L513.041 150.475
L513.152 150.375
L513.28 150.263
L513.391 150.181
L513.563 150.07
L513.674 149.987
L513.818 149.876
L513.929 149.806
L514.06 149.695
L514.171 149.603
L514.304 149.492
L514.415 149.389
L514.532 149.278
L514.643 149.169
L514.757 149.058
L514.868 148.935
L514.974 148.824
L515.085 148.71
L515.195 148.599
L515.306 148.489
L515.442 148.378
L515.553 148.29
L515.671 148.179
L515.782 148.064
L515.892 147.953
L516.004 147.843
L516.106 147.732
L516.217 147.597
L516.305 147.486
L516.416 147.359
L516.509 147.248
L516.62 147.123
L516.707 147.012
L516.818 146.858
L516.894 146.747
L517.005 146.564
L517.076 146.453
L517.187 146.283
L517.258 146.172
L517.369 146.002
L517.439 145.89
L517.551 145.722
L517.63 145.611
L517.741 145.461
L517.822 145.35
L517.933 145.19
L518.009 145.079
L518.12 144.922
L518.205 144.81
L518.316 144.659
L518.408 144.548
L518.519 144.404
L518.602 144.293
L518.713 144.125
L518.785 144.013
L518.896 143.839
L518.971 143.728
L519.082 143.553
L519.155 143.442
L519.266 143.294
L519.351 143.183
L519.462 143.056
L519.552 142.945
L519.663 142.804
L519.744 142.693
L519.855 142.549
L519.94 142.438
L520.051 142.288
L520.129 142.177
L520.24 142.015
L520.317 141.904
L520.428 141.76
L520.519 141.649
L520.63 141.514
L520.714 141.403
L520.825 141.25
L520.902 141.139
L521.013 140.987
L521.092 140.876
L521.203 140.72
L521.282 140.609
L521.393 140.449
L521.466 140.338
L521.577 140.152
L521.644 140.04
L521.755 139.844
L521.816 139.733
L521.927 139.524
L521.989 139.413
L522.1 139.222
L522.17 139.111
L522.281 138.934
L522.36 138.823
L522.471 138.668
L522.55 138.557
L522.661 138.4
L522.734 138.289
L522.845 138.126
L522.926 138.015
L523.037 137.856
L523.117 137.745
L523.228 137.6
L523.316 137.489
L523.427 137.338
L523.52 137.227
L523.631 137.096
L523.72 136.984
L523.831 136.854
L523.929 136.743
L524.04 136.619
L524.135 136.508
L524.246 136.387
L524.349 136.276
L524.46 136.149
L524.556 136.038
L524.667 135.92
L524.793 135.809
L524.904 135.707
L525.025 135.596
L525.136 135.507
L525.275 135.396
L525.386 135.293
L525.519 135.182
L525.631 135.08
L525.739 134.969
L525.85 134.869
L525.975 134.758
L526.086 134.65
L526.181 134.539
L526.292 134.411
L526.39 134.3
L526.502 134.185
L526.61 134.074
L526.722 133.962
L526.836 133.851
L526.947 133.738
L527.051 133.627
L527.162 133.521
L527.286 133.41
L527.397 133.314
L527.538 133.203
L527.649 133.111
L527.821 133
L527.932 132.931
L528.104 132.82
L528.215 132.757
L528.388 132.646
L528.499 132.573
L528.68 132.462
L528.791 132.396
L528.956 132.285
L529.067 132.193
L529.187 132.082
L529.298 131.991
L529.425 131.88
L529.536 131.771
L529.667 131.66
L529.778 131.555
L529.881 131.444
L529.992 131.334
L530.102 131.223
L530.213 131.117
L530.353 131.006
L530.464 130.927
L530.629 130.816
L530.741 130.748
L530.931 130.637
L531.042 130.565
L531.205 130.454
L531.316 130.389
L531.505 130.278
L531.616 130.2
L531.771 130.088
L531.882 130.008
L532.081 129.897
L532.192 129.839
L532.353 129.728
L532.464 129.643
L532.597 129.532
L532.708 129.448
L532.833 129.336
L532.944 129.252
L533.131 129.141
L533.242 129.077
L533.398 128.966
L533.509 128.879
L533.642 128.768
L533.753 128.684
L533.962 128.573
L534.073 128.533
L534.392 128.422
L534.503 128.361
L534.666 128.25
L534.777 128.168
L534.938 128.057
L535.049 127.971
L535.204 127.859
L535.315 127.798
L535.546 127.687
L535.657 127.646
L535.858 127.535
L535.969 127.462
L536.117 127.351
L536.228 127.266
L536.362 127.155
L536.473 127.072
L536.643 126.961
L536.754 126.885
L536.88 126.774
L536.991 126.671
L537.136 126.56
L537.247 126.481
L537.419 126.37
L537.53 126.297
L537.675 126.186
L537.786 126.09
L537.907 125.979
L538.018 125.879
L538.127 125.768
L538.238 125.651
L538.337 125.54
L538.448 125.408
L538.549 125.297
L538.66 125.192
L538.791 125.081
L538.902 124.993
L539.045 124.882
L539.156 124.778
L539.255 124.667
L539.366 124.543
L539.465 124.432
L539.577 124.312
L539.69 124.201
L539.801 124.105
L539.924 123.994
L540.035 123.903
L540.174 123.792
L540.285 123.697
L540.422 123.586
L540.533 123.496
L540.67 123.385
L540.781 123.288
L540.921 123.177
L541.032 123.102
L541.201 122.991
L541.312 122.934
L541.624 122.823
L541.735 122.78
L542.066 122.669
L542.177 122.634
L545.157 122.523
L545.268 122.495
L545.633 122.384
L545.744 122.332
L546.054 122.221
L546.165 122.198
L547.022 122.087
L547.133 122.024
L547.28 121.913
L547.391 121.816
L547.519 121.705
L547.63 121.606
L547.739 121.495
L547.827 121.412
L547.827 121.412" style="fill:none;stroke:#0000ff;stroke-width:5.0;"/>
   </g>
   <g id="matplotlib.axis_1">
    <g id="xtick_1">
     <g id="line2d_2">
      <path d="
M189.288 412.239
L189.288 8.51291" style="fill:none;stroke:#000000;stroke-dasharray:1.000000,3.000000;stroke-dashoffset:0.0;stroke-linecap:butt;stroke-width:0.5;"/>
     </g>
     <g id="line2d_3">
      <defs>
       <path d="
M0 0
L0 -4" id="m4b8197b452"/>
      </defs>
      <g>
       <use style="stroke:#000000;stroke-linecap:butt;stroke-width:0.5;" x="189.287616689" xlink:href="#m4b8197b452" y="16.276875"/>
      </g>
     </g>
     <g id="text_1">
      <!-- 5 -->
      <defs>
       <path d="
M10.7969 72.9062
L49.5156 72.9062
L49.5156 64.5938
L19.8281 64.5938
L19.8281 46.7344
Q21.9688 47.4688 24.1094 47.8281
Q26.2656 48.1875 28.4219 48.1875
Q40.625 48.1875 47.75 41.5
Q54.8906 34.8125 54.8906 23.3906
Q54.8906 11.625 47.5625 5.09375
Q40.2344 -1.42188 26.9062 -1.42188
Q22.3125 -1.42188 17.5469 -0.640625
Q12.7969 0.140625 7.71875 1.70312
L7.71875 11.625
Q12.1094 9.23438 16.7969 8.0625
Q21.4844 6.89062 26.7031 6.89062
Q35.1562 6.89062 40.0781 11.3281
Q45.0156 15.7656 45.0156 23.3906
Q45.0156 31 40.0781 35.4375
Q35.1562 39.8906 26.7031 39.8906
Q22.75 39.8906 18.8125 39.0156
Q14.8906 38.1406 10.7969 36.2812
z
" id="BitstreamVeraSans-Roman-35"/>
      </defs>
      <g transform="translate(183.626991689 37.774375)scale(0.24 -0.24)">
       <use xlink:href="#BitstreamVeraSans-Roman-35"/>
      </g>
     </g>
    </g>
    <g id="xtick_2">
     <g id="line2d_4">
      <path d="
M322.865 412.239
L322.865 8.51291" style="fill:none;stroke:#000000;stroke-dasharray:1.000000,3.000000;stroke-dashoffset:0.0;stroke-linecap:butt;stroke-width:0.5;"/>
     </g>
     <g id="line2d_5">
      <defs>
       <path d="
M0 0
L0 -4" id="m4b8197b452"/>
      </defs>
      <g>
       <use style="stroke:#000000;stroke-linecap:butt;stroke-width:0.5;" x="322.864732462" xlink:href="#m4b8197b452" y="16.276875"/>
      </g>
     </g>
     <g id="text_2">
      <!-- 10 -->
      <defs>
       <path d="
M31.7812 66.4062
Q24.1719 66.4062 20.3281 58.9062
Q16.5 51.4219 16.5 36.375
Q16.5 21.3906 20.3281 13.8906
Q24.1719 6.39062 31.7812 6.39062
Q39.4531 6.39062 43.2812 13.8906
Q47.125 21.3906 47.125 36.375
Q47.125 51.4219 43.2812 58.9062
Q39.4531 66.4062 31.7812 66.4062
M31.7812 74.2188
Q44.0469 74.2188 50.5156 64.5156
Q56.9844 54.8281 56.9844 36.375
Q56.9844 17.9688 50.5156 8.26562
Q44.0469 -1.42188 31.7812 -1.42188
Q19.5312 -1.42188 13.0625 8.26562
Q6.59375 17.9688 6.59375 36.375
Q6.59375 54.8281 13.0625 64.5156
Q19.5312 74.2188 31.7812 74.2188" id="BitstreamVeraSans-Roman-30"/>
       <path d="
M12.4062 8.29688
L28.5156 8.29688
L28.5156 63.9219
L10.9844 60.4062
L10.9844 69.3906
L28.4219 72.9062
L38.2812 72.9062
L38.2812 8.29688
L54.3906 8.29688
L54.3906 0
L12.4062 0
z
" id="BitstreamVeraSans-Roman-31"/>
      </defs>
      <g transform="translate(309.709732462 38.089375)scale(0.24 -0.24)">
       <use xlink:href="#BitstreamVeraSans-Roman-31"/>
       <use x="63.623046875" xlink:href="#BitstreamVeraSans-Roman-30"/>
      </g>
     </g>
    </g>
    <g id="xtick_3">
     <g id="line2d_6">
      <path d="
M456.442 412.239
L456.442 8.51291" style="fill:none;stroke:#000000;stroke-dasharray:1.000000,3.000000;stroke-dashoffset:0.0;stroke-linecap:butt;stroke-width:0.5;"/>
     </g>
     <g id="line2d_7">
      <defs>
       <path d="
M0 0
L0 -4" id="m4b8197b452"/>
      </defs>
      <g>
       <use style="stroke:#000000;stroke-linecap:butt;stroke-width:0.5;" x="456.441848234" xlink:href="#m4b8197b452" y="16.276875"/>
      </g>
     </g>
     <g id="text_3">
      <!-- 15 -->
      <g transform="translate(443.538098234 37.774375)scale(0.24 -0.24)">
       <use xlink:href="#BitstreamVeraSans-Roman-31"/>
       <use x="63.623046875" xlink:href="#BitstreamVeraSans-Roman-35"/>
      </g>
     </g>
    </g>
    <g id="xtick_4">
     <g id="line2d_8">
      <defs>
       <path d="
M0 0
L0 -2" id="m9149d740ce"/>
      </defs>
      <g>
       <use style="stroke:#000000;stroke-linecap:butt;stroke-width:0.5;" x="82.4259240713" xlink:href="#m9149d740ce" y="16.276875"/>
      </g>
     </g>
    </g>
    <g id="xtick_5">
     <g id="line2d_9">
      <defs>
       <path d="
M0 0
L0 -2" id="m9149d740ce"/>
      </defs>
      <g>
       <use style="stroke:#000000;stroke-linecap:butt;stroke-width:0.5;" x="109.141347226" xlink:href="#m9149d740ce" y="16.276875"/>
      </g>
     </g>
    </g>
    <g id="xtick_6">
     <g id="line2d_10">
      <defs>
       <path d="
M0 0
L0 -2" id="m9149d740ce"/>
      </defs>
      <g>
       <use style="stroke:#000000;stroke-linecap:butt;stroke-width:0.5;" x="135.85677038" xlink:href="#m9149d740ce" y="16.276875"/>
      </g>
     </g>
    </g>
    <g id="xtick_7">
     <g id="line2d_11">
      <defs>
       <path d="
M0 0
L0 -2" id="m9149d740ce"/>
      </defs>
      <g>
       <use style="stroke:#000000;stroke-linecap:butt;stroke-width:0.5;" x="162.572193535" xlink:href="#m9149d740ce" y="16.276875"/>
      </g>
     </g>
    </g>
    <g id="xtick_8">
     <g id="line2d_12">
      <defs>
       <path d="
M0 0
L0 -2" id="m9149d740ce"/>
      </defs>
      <g>
       <use style="stroke:#000000;stroke-linecap:butt;stroke-width:0.5;" x="216.003039844" xlink:href="#m9149d740ce" y="16.276875"/>
      </g>
     </g>
    </g>
    <g id="xtick_9">
     <g id="line2d_13">
      <defs>
       <path d="
M0 0
L0 -2" id="m9149d740ce"/>
      </defs>
      <g>
       <use style="stroke:#000000;stroke-linecap:butt;stroke-width:0.5;" x="242.718462998" xlink:href="#m9149d740ce" y="16.276875"/>
      </g>
     </g>
    </g>
    <g id="xtick_10">
     <g id="line2d_14">
      <defs>
       <path d="
M0 0
L0 -2" id="m9149d740ce"/>
      </defs>
      <g>
       <use style="stroke:#000000;stroke-linecap:butt;stroke-width:0.5;" x="269.433886153" xlink:href="#m9149d740ce" y="16.276875"/>
      </g>
     </g>
    </g>
    <g id="xtick_11">
     <g id="line2d_15">
      <defs>
       <path d="
M0 0
L0 -2" id="m9149d740ce"/>
      </defs>
      <g>
       <use style="stroke:#000000;stroke-linecap:butt;stroke-width:0.5;" x="296.149309307" xlink:href="#m9149d740ce" y="16.276875"/>
      </g>
     </g>
    </g>
    <g id="xtick_12">
     <g id="line2d_16">
      <defs>
       <path d="
M0 0
L0 -2" id="m9149d740ce"/>
      </defs>
      <g>
       <use style="stroke:#000000;stroke-linecap:butt;stroke-width:0.5;" x="349.580155616" xlink:href="#m9149d740ce" y="16.276875"/>
      </g>
     </g>
    </g>
    <g id="xtick_13">
     <g id="line2d_17">
      <defs>
       <path d="
M0 0
L0 -2" id="m9149d740ce"/>
      </defs>
      <g>
       <use style="stroke:#000000;stroke-linecap:butt;stroke-width:0.5;" x="376.29557877" xlink:href="#m9149d740ce" y="16.276875"/>
      </g>
     </g>
    </g>
    <g id="xtick_14">
     <g id="line2d_18">
      <defs>
       <path d="
M0 0
L0 -2" id="m9149d740ce"/>
      </defs>
      <g>
       <use style="stroke:#000000;stroke-linecap:butt;stroke-width:0.5;" x="403.011001925" xlink:href="#m9149d740ce" y="16.276875"/>
      </g>
     </g>
    </g>
    <g id="xtick_15">
     <g id="line2d_19">
      <defs>
       <path d="
M0 0
L0 -2" id="m9149d740ce"/>
      </defs>
      <g>
       <use style="stroke:#000000;stroke-linecap:butt;stroke-width:0.5;" x="429.726425079" xlink:href="#m9149d740ce" y="16.276875"/>
      </g>
     </g>
    </g>
    <g id="xtick_16">
     <g id="line2d_20">
      <defs>
       <path d="
M0 0
L0 -2" id="m9149d740ce"/>
      </defs>
      <g>
       <use style="stroke:#000000;stroke-linecap:butt;stroke-width:0.5;" x="483.157271388" xlink:href="#m9149d740ce" y="16.276875"/>
      </g>
     </g>
    </g>
    <g id="xtick_17">
     <g id="line2d_21">
      <defs>
       <path d="
M0 0
L0 -2" id="m9149d740ce"/>
      </defs>
      <g>
       <use style="stroke:#000000;stroke-linecap:butt;stroke-width:0.5;" x="509.872694543" xlink:href="#m9149d740ce" y="16.276875"/>
      </g>
     </g>
    </g>
   </g>
   <g id="matplotlib.axis_2">
    <g id="ytick_1">
     <g id="line2d_22">
      <path d="
M64.7562 354.062
L557.299 354.062" style="fill:none;stroke:#000000;stroke-dasharray:1.000000,3.000000;stroke-dashoffset:0.0;stroke-linecap:butt;stroke-width:0.5;"/>
     </g>
     <g id="line2d_23">
      <defs>
       <path d="
M0 0
L4 0" id="m8708a43f2e"/>
      </defs>
      <g>
       <use style="stroke:#000000;stroke-linecap:butt;stroke-width:0.5;" x="54.75625" xlink:href="#m8708a43f2e" y="354.061858721"/>
      </g>
     </g>
     <g id="text_4">
      <!-- -1.5 -->
      <defs>
       <path d="
M10.6875 12.4062
L21 12.4062
L21 0
L10.6875 0
z
" id="BitstreamVeraSans-Roman-2e"/>
       <path d="
M4.89062 31.3906
L31.2031 31.3906
L31.2031 23.3906
L4.89062 23.3906
z
" id="BitstreamVeraSans-Roman-2d"/>
      </defs>
      <g transform="translate(7.2 362.639983721)scale(0.24 -0.24)">
       <use xlink:href="#BitstreamVeraSans-Roman-2d"/>
       <use x="36.083984375" xlink:href="#BitstreamVeraSans-Roman-31"/>
       <use x="99.70703125" xlink:href="#BitstreamVeraSans-Roman-2e"/>
       <use x="131.494140625" xlink:href="#BitstreamVeraSans-Roman-35"/>
      </g>
     </g>
    </g>
    <g id="ytick_2">
     <g id="line2d_24">
      <path d="
M64.7562 241.467
L557.299 241.467" style="fill:none;stroke:#000000;stroke-dasharray:1.000000,3.000000;stroke-dashoffset:0.0;stroke-linecap:butt;stroke-width:0.5;"/>
     </g>
     <g id="line2d_25">
      <defs>
       <path d="
M0 0
L4 0" id="m8708a43f2e"/>
      </defs>
      <g>
       <use style="stroke:#000000;stroke-linecap:butt;stroke-width:0.5;" x="54.75625" xlink:href="#m8708a43f2e" y="241.466864147"/>
      </g>
     </g>
     <g id="text_5">
      <!-- -1 -->
      <g transform="translate(30.2175 250.215614147)scale(0.24 -0.24)">
       <use xlink:href="#BitstreamVeraSans-Roman-2d"/>
       <use x="36.083984375" xlink:href="#BitstreamVeraSans-Roman-31"/>
      </g>
     </g>
    </g>
    <g id="ytick_3">
     <g id="line2d_26">
      <path d="
M64.7562 128.872
L557.299 128.872" style="fill:none;stroke:#000000;stroke-dasharray:1.000000,3.000000;stroke-dashoffset:0.0;stroke-linecap:butt;stroke-width:0.5;"/>
     </g>
     <g id="line2d_27">
      <defs>
       <path d="
M0 0
L4 0" id="m8708a43f2e"/>
      </defs>
      <g>
       <use style="stroke:#000000;stroke-linecap:butt;stroke-width:0.5;" x="54.75625" xlink:href="#m8708a43f2e" y="128.871869574"/>
      </g>
     </g>
     <g id="text_6">
      <!-- -0.5 -->
      <g transform="translate(7.2 137.607494574)scale(0.24 -0.24)">
       <use xlink:href="#BitstreamVeraSans-Roman-2d"/>
       <use x="36.083984375" xlink:href="#BitstreamVeraSans-Roman-30"/>
       <use x="99.70703125" xlink:href="#BitstreamVeraSans-Roman-2e"/>
       <use x="131.494140625" xlink:href="#BitstreamVeraSans-Roman-35"/>
      </g>
     </g>
    </g>
    <g id="ytick_4">
     <g id="line2d_28">
      <path d="
M64.7562 16.2769
L557.299 16.2769" style="fill:none;stroke:#000000;stroke-dasharray:1.000000,3.000000;stroke-dashoffset:0.0;stroke-linecap:butt;stroke-width:0.5;"/>
     </g>
     <g id="line2d_29">
      <defs>
       <path d="
M0 0
L4 0" id="m8708a43f2e"/>
      </defs>
      <g>
       <use style="stroke:#000000;stroke-linecap:butt;stroke-width:0.5;" x="54.75625" xlink:href="#m8708a43f2e" y="16.276875"/>
      </g>
     </g>
     <g id="text_7">
      <!-- 0 -->
      <g transform="translate(38.6625 25.0125)scale(0.24 -0.24)">
       <use xlink:href="#BitstreamVeraSans-Roman-30"/>
      </g>
     </g>
    </g>
    <g id="ytick_5">
     <g id="line2d_30">
      <defs>
       <path d="
M0 0
L2 0" id="mbe14ae71ee"/>
      </defs>
      <g>
       <use style="stroke:#000000;stroke-linecap:butt;stroke-width:0.5;" x="54.75625" xlink:href="#mbe14ae71ee" y="399.09985655"/>
      </g>
     </g>
    </g>
    <g id="ytick_6">
     <g id="line2d_31">
      <defs>
       <path d="
M0 0
L2 0" id="mbe14ae71ee"/>
      </defs>
      <g>
       <use style="stroke:#000000;stroke-linecap:butt;stroke-width:0.5;" x="54.75625" xlink:href="#mbe14ae71ee" y="376.580857636"/>
      </g>
     </g>
    </g>
    <g id="ytick_7">
     <g id="line2d_32">
      <defs>
       <path d="
M0 0
L2 0" id="mbe14ae71ee"/>
      </defs>
      <g>
       <use style="stroke:#000000;stroke-linecap:butt;stroke-width:0.5;" x="54.75625" xlink:href="#mbe14ae71ee" y="331.542859806"/>
      </g>
     </g>
    </g>
    <g id="ytick_8">
     <g id="line2d_33">
      <defs>
       <path d="
M0 0
L2 0" id="mbe14ae71ee"/>
      </defs>
      <g>
       <use style="stroke:#000000;stroke-linecap:butt;stroke-width:0.5;" x="54.75625" xlink:href="#mbe14ae71ee" y="309.023860891"/>
      </g>
     </g>
    </g>
    <g id="ytick_9">
     <g id="line2d_34">
      <defs>
       <path d="
M0 0
L2 0" id="mbe14ae71ee"/>
      </defs>
      <g>
       <use style="stroke:#000000;stroke-linecap:butt;stroke-width:0.5;" x="54.75625" xlink:href="#mbe14ae71ee" y="286.504861977"/>
      </g>
     </g>
    </g>
    <g id="ytick_10">
     <g id="line2d_35">
      <defs>
       <path d="
M0 0
L2 0" id="mbe14ae71ee"/>
      </defs>
      <g>
       <use style="stroke:#000000;stroke-linecap:butt;stroke-width:0.5;" x="54.75625" xlink:href="#mbe14ae71ee" y="263.985863062"/>
      </g>
     </g>
    </g>
    <g id="ytick_11">
     <g id="line2d_36">
      <defs>
       <path d="
M0 0
L2 0" id="mbe14ae71ee"/>
      </defs>
      <g>
       <use style="stroke:#000000;stroke-linecap:butt;stroke-width:0.5;" x="54.75625" xlink:href="#mbe14ae71ee" y="218.947865233"/>
      </g>
     </g>
    </g>
    <g id="ytick_12">
     <g id="line2d_37">
      <defs>
       <path d="
M0 0
L2 0" id="mbe14ae71ee"/>
      </defs>
      <g>
       <use style="stroke:#000000;stroke-linecap:butt;stroke-width:0.5;" x="54.75625" xlink:href="#mbe14ae71ee" y="196.428866318"/>
      </g>
     </g>
    </g>
    <g id="ytick_13">
     <g id="line2d_38">
      <defs>
       <path d="
M0 0
L2 0" id="mbe14ae71ee"/>
      </defs>
      <g>
       <use style="stroke:#000000;stroke-linecap:butt;stroke-width:0.5;" x="54.75625" xlink:href="#mbe14ae71ee" y="173.909867403"/>
      </g>
     </g>
    </g>
    <g id="ytick_14">
     <g id="line2d_39">
      <defs>
       <path d="
M0 0
L2 0" id="mbe14ae71ee"/>
      </defs>
      <g>
       <use style="stroke:#000000;stroke-linecap:butt;stroke-width:0.5;" x="54.75625" xlink:href="#mbe14ae71ee" y="151.390868488"/>
      </g>
     </g>
    </g>
    <g id="ytick_15">
     <g id="line2d_40">
      <defs>
       <path d="
M0 0
L2 0" id="mbe14ae71ee"/>
      </defs>
      <g>
       <use style="stroke:#000000;stroke-linecap:butt;stroke-width:0.5;" x="54.75625" xlink:href="#mbe14ae71ee" y="128.871869574"/>
      </g>
     </g>
    </g>
    <g id="ytick_16">
     <g id="line2d_41">
      <defs>
       <path d="
M0 0
L2 0" id="mbe14ae71ee"/>
      </defs>
      <g>
       <use style="stroke:#000000;stroke-linecap:butt;stroke-width:0.5;" x="54.75625" xlink:href="#mbe14ae71ee" y="106.352870659"/>
      </g>
     </g>
    </g>
    <g id="ytick_17">
     <g id="line2d_42">
      <defs>
       <path d="
M0 0
L2 0" id="mbe14ae71ee"/>
      </defs>
      <g>
       <use style="stroke:#000000;stroke-linecap:butt;stroke-width:0.5;" x="54.75625" xlink:href="#mbe14ae71ee" y="83.8338717442"/>
      </g>
     </g>
    </g>
    <g id="ytick_18">
     <g id="line2d_43">
      <defs>
       <path d="
M0 0
L2 0" id="mbe14ae71ee"/>
      </defs>
      <g>
       <use style="stroke:#000000;stroke-linecap:butt;stroke-width:0.5;" x="54.75625" xlink:href="#mbe14ae71ee" y="61.3148728295"/>
      </g>
     </g>
    </g>
    <g id="ytick_19">
     <g id="line2d_44">
      <defs>
       <path d="
M0 0
L2 0" id="mbe14ae71ee"/>
      </defs>
      <g>
       <use style="stroke:#000000;stroke-linecap:butt;stroke-width:0.5;" x="54.75625" xlink:href="#mbe14ae71ee" y="38.7958739147"/>
      </g>
     </g>
    </g>
   </g>
   <g id="patch_3">
    <path d="
M64.7562 16.2769
L557.299 16.2769" style="fill:none;stroke:#000000;stroke-width:0.8;"/>
   </g>
   <g id="patch_4">
    <path d="
M54.7562 412.239
L54.7562 8.51291" style="fill:none;stroke:#000000;stroke-width:0.8;"/>
   </g>
  </g>
 </g>
 <defs>
  <clipPath id="pe14699e2cb">
   <rect height="403.726153846" width="492.5425" x="64.75625" y="8.51291050296"/>
  </clipPath>
 </defs>
</svg>
