<?xml version="1.0" encoding="utf-8" standalone="no"?>
<!DOCTYPE svg PUBLIC "-//W3C//DTD SVG 1.1//EN"
  "http://www.w3.org/Graphics/SVG/1.1/DTD/svg11.dtd">
<!-- Created with matplotlib (http://matplotlib.sourceforge.net/) -->
<svg height="419pt" version="1.1" viewBox="0 0 564 419" width="564pt" xmlns="http://www.w3.org/2000/svg" xmlns:xlink="http://www.w3.org/1999/xlink">
 <defs>
  <style type="text/css">
*{stroke-linecap:square;stroke-linejoin:round;}
  </style>
 </defs>
 <g id="figure_1">
  <g id="patch_1">
   <path d="
M2.22045e-16 419.439
L564.686 419.439
L564.686 0
L2.22045e-16 0
z
" style="fill:#ffffff;"/>
  </g>
  <g id="axes_1">
   <g id="patch_2">
    <path d="
M65.5062 412.239
L557.486 412.239
L557.486 8.51291
L65.5062 8.51291
z
" style="fill:#ffffff;"/>
   </g>
   <g id="line2d_1">
    <path clip-path="url(#pef49794cff)" d="
M74.9674 16.2769
L85.7872 16.2769
L85.7872 16.2769
L85.7872 16.2769
L99.4185 16.2769
L99.4185 104.54
L108.397 104.54
L108.397 141.525
L120.458 141.525
L120.458 189.161
L124.916 189.161
L124.916 211.007
L132.075 211.007
L132.075 257.949
L135.043 257.949
L135.043 270.958
L140.141 270.958
L140.141 276.756
L146.327 276.756
L146.327 290.144
L148.106 290.144
L148.106 293.943
L152.828 293.943
L152.828 299.42
L155.567 299.42
L155.567 301.197
L156.838 301.197
L156.838 303.459
L159.212 303.459
L159.212 307.881
L162.418 307.881
L162.418 313.797
L165.28 313.797
L165.28 317.924
L166.169 317.924
L166.169 319.099
L168.673 319.099
L168.673 321.787
L170.22 321.787
L170.22 323.901
L170.961 323.901
L170.961 325.417
L173.069 325.417
L173.069 328.257
L174.387 328.257
L174.387 330.476
L176.25 330.476
L176.25 334.367
L178.547 334.367
L178.547 339.458
L179.625 339.458
L179.625 341.255
L180.148 341.255
L180.148 341.804
L181.165 341.804
L181.165 342.754
L181.659 342.754
L181.659 343.312
L182.621 343.312
L182.621 344.86
L185.738 344.86
L185.738 350.158
L186.565 350.158
L186.565 351.317
L187.76 351.317
L187.76 352.787
L188.147 352.787
L188.147 353.227
L190.001 353.227
L190.001 356.048
L190.357 356.048
L190.357 356.478
L191.396 356.478
L191.396 357.186
L192.397 357.186
L192.397 357.596
L193.044 357.596
L193.044 357.757
L196.627 357.723
L196.627 358.249
L196.905 358.249
L196.905 358.366
L197.453 358.366
L197.453 358.57
L197.722 358.57
L197.722 358.776
L199.285 358.776
L199.285 360.366
L200.761 360.366
L200.761 361.686
L201.235 361.686
L201.235 362.079
L201.469 362.079
L201.469 362.206
L201.931 362.206
L201.931 362.521
L202.61 362.521
L202.61 362.951
L202.832 362.951
L202.832 363.115
L203.917 363.115
L203.917 364.172
L204.547 364.172
L204.547 364.939
L205.163 364.939
L205.163 365.46
L205.765 365.46
L205.765 365.942
L206.547 366.052
L206.547 366.17
L206.93 366.17
L206.93 366.346
L208.046 366.454
L208.046 367.255
L209.291 367.255
L209.291 368.035
L209.637 368.035
L209.637 368.326
L210.147 368.418
L210.147 368.619
L211.3 368.619
L211.3 369.256
L211.779 369.256
L211.779 369.492
L212.56 369.492
L212.56 369.97
L213.017 370.036
L213.017 370.171
L213.467 370.171
L213.467 370.491
L214.055 370.491
L214.055 370.816
L214.488 370.816
L214.488 371.118
L214.913 371.118
L214.913 371.373
L215.608 371.482
L215.608 371.689
L216.152 371.689
L216.152 371.838
L217.591 371.806
L217.591 371.675
L218.344 371.649
L218.344 371.47
L219.907 371.574
L219.907 371.614
L220.485 371.651
L220.485 371.727
L221.162 371.727
L221.162 371.97
L222.467 372.076
L222.467 372.142
L222.783 372.142
L222.783 372.266
L223.405 372.266
L223.507 372.623
L224.41 372.623
L224.41 372.964
L224.705 372.964
L224.705 373.089
L225.188 373.089
L225.188 373.326
L225.474 373.326
L225.474 373.536
L225.757 373.536
L225.85 373.757
L226.129 373.757
L226.129 373.932
L226.588 373.932
L226.588 374.307
L226.859 374.307
L226.859 374.513
L227.128 374.513
L227.217 374.759
L227.482 374.759
L227.482 374.997
L227.744 374.997
L227.744 375.234
L227.918 375.234
L228.004 375.506
L228.517 375.506
L228.517 376.066
L228.936 376.066
L229.019 376.531
L229.185 376.531
L229.185 376.671
L229.431 376.671
L229.431 376.925
L229.675 376.925
L229.756 377.306
L230.236 377.306
L230.236 377.869
L230.394 377.869
L230.394 378.045
L230.63 378.045
L230.63 378.281
L230.941 378.281
L230.941 378.634
L231.324 378.634
L231.324 379.046
L231.627 379.046
L231.627 379.345
L232 379.345
L232 379.727
L232.296 379.727
L232.296 380.073
L232.515 380.073
L232.515 380.33
L232.733 380.33
L232.733 380.589
L232.877 380.589
L232.877 380.75
L233.162 380.75
L233.162 381.022
L233.375 381.022
L233.375 381.219
L233.515 381.219
L233.515 381.344
L233.795 381.344
L233.795 381.579
L233.933 381.579
L233.933 381.71
L234.412 381.71
L234.412 382.228
L234.749 382.228
L234.749 382.605
L235.148 382.605
L235.214 383.171
L235.541 383.171
L235.605 383.686
L235.735 383.686
L235.799 383.953
L236.119 383.953
L236.119 384.352
L236.561 384.352
L236.561 384.861
L236.686 384.861
L236.748 385.065
L236.872 385.065
L236.872 385.202
L237.301 385.202
L237.301 385.735
L237.423 385.735
L237.483 385.951
L237.604 385.951
L237.604 386.09
L238.199 386.09
L238.199 386.776
L238.316 386.776
L238.316 386.909
L238.55 386.909
L238.55 387.193
L238.838 387.193
L238.838 387.493
L239.067 387.493
L239.067 387.724
L239.351 387.828
L239.351 387.962
L239.519 387.962
L239.519 388.113
L239.908 388.113
L240.018 388.467
L240.346 388.557
L240.346 388.627
L240.562 388.627
L240.562 388.746
L241.043 388.855
L241.148 389.102
L241.618 389.183
L241.67 389.307
L242.08 389.353
L242.131 389.45
L242.384 389.45
L242.434 389.609
L243.03 389.718
L243.128 390.12
L243.42 390.226
L243.42 390.323
L243.756 390.412
L243.756 390.52
L244.041 390.61
L244.041 390.722
L244.556 390.722
L244.603 391.095
L244.833 391.095
L244.833 391.248
L245.016 391.248
L245.016 391.363
L245.243 391.363
L245.243 391.507
L245.513 391.572
L245.513 391.645
L245.956 391.748
L246.044 391.931
L246.306 392
L246.35 392.093
L246.737 392.175
L246.737 392.318
L246.95 392.318
L246.95 392.456
L247.329 392.456
L247.37 392.696
L247.619 392.791
L247.619 392.814
L247.825 392.887
L247.866 392.957
L248.192 393.015
L248.232 393.243
L249.028 393.335
L249.028 393.787
L249.263 393.857
L249.263 393.92
L249.763 394.004
L249.763 394.153
L250.217 394.214
L250.292 394.284
L251.103 394.359
L251.103 394.407
L251.606 394.514
L251.606 394.532
L252.378 394.62
L252.481 394.689
L252.858 394.793
L252.858 394.819
L253.362 394.914
L253.462 394.956
L253.792 395.031
L253.792 395.069
L254.28 395.139
L254.376 395.323
L254.853 395.366
L254.948 395.533
L255.476 395.617
L255.476 395.657
L256.146 395.758
L256.235 395.878
L256.944 395.985
L256.944 395.997
L259.34 395.896
L259.447 395.859
L259.816 395.774
L259.816 395.733
L260.36 395.641
L260.462 395.573
L260.968 395.493
L261.068 395.394
L261.588 395.308
L261.588 395.236
L262.097 395.128
L262.097 395.118
L264.683 395.228
L264.683 395.24
L265.773 395.35
L265.856 395.374
L266.394 395.443
L266.475 395.518
L266.779 395.585
L266.88 395.685
L267.299 395.792
L267.378 395.825
L267.788 395.926
L267.827 395.955
L268.25 396.049
L268.308 396.089
L268.761 396.183
L268.854 396.229
L269.298 396.333
L269.371 396.371
L269.699 396.438
L269.789 396.525
L270.129 396.632
L270.218 396.657
L270.814 396.751
L270.9 396.797
L271.532 396.878
L271.582 396.945
L271.984 397.049
L272.083 397.105
L272.428 397.201
L272.428 397.248
L272.671 397.357
L272.768 397.414
L273.009 397.488
L273.041 397.56
L273.374 397.662
L273.389 397.732
L273.718 397.829
L273.718 397.911
L273.981 398.022
L273.996 398.042
L274.317 398.151
L274.363 398.219
L274.665 398.328
L274.769 398.413
L275.037 398.487
L275.111 398.573
L275.419 398.662
L275.521 398.756
L275.853 398.849
L275.953 398.894
L276.379 398.988
L276.449 399.02
L277.046 399.124
L277.046 399.139
L277.414 399.231
L277.441 399.267
L277.883 399.373
L277.976 399.39
L279.894 399.316
L279.968 399.265
L287.421 399.375
L287.476 399.403
L288.407 399.512
L288.407 399.516
L290.542 399.625
L290.641 399.655
L291.156 399.756
L291.237 399.796
L291.803 399.9
L291.882 399.939
L293.3 400.045
L293.396 400.084
L293.876 400.19
L293.97 400.228
L294.332 400.334
L294.425 400.388
L294.78 400.494
L294.886 400.542
L295.208 400.647
L295.284 400.685
L295.676 400.791
L295.758 400.839
L296.27 400.936
L296.35 400.987
L296.779 401.095
L296.884 401.147
L297.266 401.257
L297.369 401.292
L297.687 401.403
L297.788 401.456
L298.027 401.557
L298.108 401.607
L298.369 401.716
L298.473 401.767
L298.785 401.877
L298.894 401.917
L299.225 402.028
L299.326 402.072
L299.634 402.183
L299.74 402.233
L300.084 402.34
L300.188 402.386
L300.588 402.497
L300.69 402.527
L301.122 402.628
L301.222 402.695
L301.684 402.806
L301.788 402.837
L302.267 402.941
L302.352 402.985
L302.889 403.091
L302.967 403.114
L303.364 403.206
L303.456 403.261
L303.775 403.362
L303.881 403.431
L304.185 403.542
L304.274 403.592
L304.57 403.703
L304.667 403.74
L304.992 403.848
L305.078 403.893
L305.507 403.999
L305.578 404.025
L306.022 404.135
L306.096 404.16
L306.807 404.267
L306.91 404.299
L307.561 404.41
L307.67 404.431
L309.557 404.321
L309.63 404.3
L310.092 404.192
L310.195 404.162
L310.67 404.051
L310.771 404.028
L311.282 403.922
L311.392 403.884
L311.832 403.776
L311.921 403.752
L312.443 403.641
L312.552 403.613
L313.197 403.504
L313.3 403.482
L314.331 403.374
L314.439 403.336
L314.974 403.227
L315.024 403.214
L316.217 403.103
L316.309 403.101
L316.318 403.101
L317.528 402.99
L317.621 402.968
L318.244 402.859
L318.329 402.843
L319.478 402.731
L319.573 402.724
L320.628 402.615
L320.735 402.598
L322.06 402.488
L322.159 402.468
L322.76 402.358
L322.859 402.342
L323.478 402.231
L323.586 402.214
L324.221 402.104
L324.331 402.083
L324.692 401.975
L324.796 401.927
L325.113 401.819
L325.199 401.786
L325.602 401.676
L325.711 401.645
L326.294 401.534
L326.387 401.523
L332.543 401.412
L332.627 401.391
L337.545 401.48
L337.654 401.535
L338.132 401.636
L338.132 401.659
L338.722 401.767
L338.826 401.804
L339.425 401.907
L339.522 401.965
L340.116 402.066
L340.202 402.097
L342.756 401.986
L342.864 401.977
L344.229 401.871
L344.326 401.853
L347.079 401.742
L347.179 401.737
L349.144 401.846
L349.243 401.866
L350.327 401.972
L350.424 402.004
L351.307 402.114
L351.404 402.133
L353.572 402.243
L353.668 402.266
L355.042 402.369
L355.152 402.392
L359.764 402.284
L359.861 402.257
L360.645 402.149
L360.75 402.108
L361.628 401.999
L361.727 401.983
L363.889 401.873
L363.988 401.839
L364.581 401.742
L364.68 401.705
L365.463 401.605
L365.56 401.577
L368.609 401.471
L368.706 401.448
L369.986 401.346
L370.087 401.327
L371.068 401.226
L371.164 401.196
L371.951 401.095
L372.049 401.057
L372.639 400.954
L372.738 400.916
L376.574 400.809
L376.671 400.785
L377.556 400.678
L377.653 400.643
L378.439 400.534
L378.539 400.499
L379.128 400.392
L379.227 400.359
L380.111 400.25
L380.209 400.224
L381.29 400.123
L381.389 400.093
L382.274 399.991
L382.374 399.958
L383.06 399.852
L383.158 399.818
L383.749 399.713
L383.848 399.67
L384.436 399.576
L384.535 399.54
L385.421 399.439
L385.518 399.416
L386.207 399.306
L386.304 399.261
L386.994 399.155
L387.092 399.14
L388.961 399.035
L389.057 399.02
L391.908 398.917
L392.007 398.893
L393.088 398.785
L393.186 398.754
L396.234 398.646
L396.333 398.629
L397.415 398.523
L397.513 398.499
L400.461 398.389
L400.461 398.387
L400.559 398.388
L403.508 398.499
L403.606 398.508
L406.064 398.617
L406.163 398.622
L409.505 398.513
L409.604 398.501
L410.881 398.393
L410.98 398.378
L412.946 398.271
L413.045 398.254
L419.535 398.363
L419.631 398.367
L422.876 398.263
L422.974 398.238
L423.957 398.133
L424.055 398.102
L424.646 398.005
L424.743 397.964
L425.432 397.862
L425.53 397.824
L426.12 397.723
L426.218 397.686
L426.808 397.576
L426.906 397.522
L427.398 397.412
L427.496 397.357
L427.89 397.26
L427.988 397.192
L428.381 397.089
L428.479 397.02
L428.873 396.918
L428.971 396.848
L429.364 396.747
L429.462 396.684
L429.856 396.588
L429.955 396.53
L430.347 396.437
L430.446 396.381
L430.937 396.273
L431.036 396.22
L431.625 396.111
L431.724 396.077
L432.51 395.972
L432.608 395.942
L433.493 395.831
L433.592 395.811
L434.378 395.705
L434.476 395.676
L435.263 395.573
L435.361 395.543
L436.147 395.443
L436.246 395.417
L437.622 395.31
L437.72 395.302
L439.982 395.195
L440.08 395.177
L441.85 395.071
L441.948 395.053
L450.304 394.944
L450.402 394.919
L452.074 394.815
L452.172 394.8
L453.548 394.693
L453.647 394.675
L455.318 394.564
L455.416 394.544
L456.891 394.433
L456.989 394.409
L457.874 394.3
L457.973 394.278
L459.644 394.168
L459.742 394.154
L461.512 394.043
L461.61 394.029
L463.478 393.926
L463.576 393.91
L465.346 393.802
L465.444 393.791
L467.41 393.683
L467.509 393.674
L472.227 393.568
L472.326 393.556
L474.489 393.446
L474.587 393.433
L476.553 393.322
L476.652 393.309
L478.028 393.205
L478.126 393.191
L480.092 393.088
L480.191 393.071
L481.272 392.96
L481.371 392.944
L482.55 392.835
L482.648 392.811
L483.533 392.701
L483.632 392.679
L484.615 392.577
L484.713 392.556
L485.696 392.454
L485.794 392.433
L486.679 392.335
L486.777 392.302
L487.564 392.198
L487.662 392.159
L488.252 392.064
L488.35 392.026
L488.94 391.924
L489.039 391.893
L490.022 391.784
L490.12 391.756
L491.005 391.649
L491.103 391.625
L491.988 391.526
L492.086 391.501
L492.873 391.401
L492.971 391.37
L493.758 391.273
L493.856 391.244
L494.642 391.144
L494.741 391.12
L495.625 391.01
L495.724 390.975
L496.314 390.882
L496.412 390.836
L496.904 390.737
L497.002 390.69
L497.493 390.593
L497.592 390.543
L498.083 390.45
L498.182 390.407
L498.87 390.298
L498.968 390.269
L499.951 390.158
L500.049 390.142
L503.294 390.031
L503.392 390.029
L510.569 389.918
L510.667 389.903
L512.535 389.793
L512.633 389.785
L517.352 389.674
L517.45 389.663
L520.105 389.554
L520.203 389.549
L522.071 389.439
L522.169 389.407
L523.054 389.301
L523.152 389.278
L524.332 389.171
L524.431 389.153
L525.709 389.042
L525.807 389.022
L526.692 388.913
L526.79 388.886
L527.675 388.778
L527.773 388.757
L529.248 388.647
L529.346 388.631
L530.329 388.526
L530.427 388.5
L531.804 388.392
L531.902 388.377
L533.082 388.27
L533.18 388.247
L534.262 388.138
L534.36 388.124
L536.326 388.019
L536.424 388.004
L537.801 387.901
L537.899 387.882
L538.686 387.786
L538.784 387.753
L539.57 387.654
L539.669 387.622
L540.455 387.516
L540.553 387.487
L541.438 387.376
L541.537 387.352
L542.618 387.245
L542.716 387.227
L545.567 387.117
L545.666 387.106
L547.239 386.996
L547.337 386.977
L548.025 386.895
L548.025 386.878" style="fill:none;stroke:#0000ff;stroke-width:5.0;"/>
   </g>
   <g id="matplotlib.axis_1">
    <g id="xtick_1">
     <g id="line2d_2">
      <path d="
M189.895 412.239
L189.895 8.51291" style="fill:none;stroke:#000000;stroke-dasharray:1.000000,3.000000;stroke-dashoffset:0.0;stroke-linecap:butt;stroke-width:0.5;"/>
     </g>
     <g id="line2d_3">
      <defs>
       <path d="
M0 0
L0 -4" id="m3fbe6c24f1"/>
      </defs>
      <g>
       <use style="stroke:#000000;stroke-linecap:butt;stroke-width:0.5;" x="189.895397706" xlink:href="#m3fbe6c24f1" y="16.276875"/>
      </g>
     </g>
     <g id="text_1">
      <!-- 5 -->
      <defs>
       <path d="
M10.7969 72.9062
L49.5156 72.9062
L49.5156 64.5938
L19.8281 64.5938
L19.8281 46.7344
Q21.9688 47.4688 24.1094 47.8281
Q26.2656 48.1875 28.4219 48.1875
Q40.625 48.1875 47.75 41.5
Q54.8906 34.8125 54.8906 23.3906
Q54.8906 11.625 47.5625 5.09375
Q40.2344 -1.42188 26.9062 -1.42188
Q22.3125 -1.42188 17.5469 -0.640625
Q12.7969 0.140625 7.71875 1.70312
L7.71875 11.625
Q12.1094 9.23438 16.7969 8.0625
Q21.4844 6.89062 26.7031 6.89062
Q35.1562 6.89062 40.0781 11.3281
Q45.0156 15.7656 45.0156 23.3906
Q45.0156 31 40.0781 35.4375
Q35.1562 39.8906 26.7031 39.8906
Q22.75 39.8906 18.8125 39.0156
Q14.8906 38.1406 10.7969 36.2812
z
" id="BitstreamVeraSans-Roman-35"/>
      </defs>
      <g transform="translate(184.234772706 37.774375)scale(0.24 -0.24)">
       <use xlink:href="#BitstreamVeraSans-Roman-35"/>
      </g>
     </g>
    </g>
    <g id="xtick_2">
     <g id="line2d_4">
      <path d="
M323.32 412.239
L323.32 8.51291" style="fill:none;stroke:#000000;stroke-dasharray:1.000000,3.000000;stroke-dashoffset:0.0;stroke-linecap:butt;stroke-width:0.5;"/>
     </g>
     <g id="line2d_5">
      <defs>
       <path d="
M0 0
L0 -4" id="m3fbe6c24f1"/>
      </defs>
      <g>
       <use style="stroke:#000000;stroke-linecap:butt;stroke-width:0.5;" x="323.319963946" xlink:href="#m3fbe6c24f1" y="16.276875"/>
      </g>
     </g>
     <g id="text_2">
      <!-- 10 -->
      <defs>
       <path d="
M31.7812 66.4062
Q24.1719 66.4062 20.3281 58.9062
Q16.5 51.4219 16.5 36.375
Q16.5 21.3906 20.3281 13.8906
Q24.1719 6.39062 31.7812 6.39062
Q39.4531 6.39062 43.2812 13.8906
Q47.125 21.3906 47.125 36.375
Q47.125 51.4219 43.2812 58.9062
Q39.4531 66.4062 31.7812 66.4062
M31.7812 74.2188
Q44.0469 74.2188 50.5156 64.5156
Q56.9844 54.8281 56.9844 36.375
Q56.9844 17.9688 50.5156 8.26562
Q44.0469 -1.42188 31.7812 -1.42188
Q19.5312 -1.42188 13.0625 8.26562
Q6.59375 17.9688 6.59375 36.375
Q6.59375 54.8281 13.0625 64.5156
Q19.5312 74.2188 31.7812 74.2188" id="BitstreamVeraSans-Roman-30"/>
       <path d="
M12.4062 8.29688
L28.5156 8.29688
L28.5156 63.9219
L10.9844 60.4062
L10.9844 69.3906
L28.4219 72.9062
L38.2812 72.9062
L38.2812 8.29688
L54.3906 8.29688
L54.3906 0
L12.4062 0
z
" id="BitstreamVeraSans-Roman-31"/>
      </defs>
      <g transform="translate(310.164963946 38.089375)scale(0.24 -0.24)">
       <use xlink:href="#BitstreamVeraSans-Roman-31"/>
       <use x="63.623046875" xlink:href="#BitstreamVeraSans-Roman-30"/>
      </g>
     </g>
    </g>
    <g id="xtick_3">
     <g id="line2d_6">
      <path d="
M456.745 412.239
L456.745 8.51291" style="fill:none;stroke:#000000;stroke-dasharray:1.000000,3.000000;stroke-dashoffset:0.0;stroke-linecap:butt;stroke-width:0.5;"/>
     </g>
     <g id="line2d_7">
      <defs>
       <path d="
M0 0
L0 -4" id="m3fbe6c24f1"/>
      </defs>
      <g>
       <use style="stroke:#000000;stroke-linecap:butt;stroke-width:0.5;" x="456.744530187" xlink:href="#m3fbe6c24f1" y="16.276875"/>
      </g>
     </g>
     <g id="text_3">
      <!-- 15 -->
      <g transform="translate(443.840780187 37.774375)scale(0.24 -0.24)">
       <use xlink:href="#BitstreamVeraSans-Roman-31"/>
       <use x="63.623046875" xlink:href="#BitstreamVeraSans-Roman-35"/>
      </g>
     </g>
    </g>
    <g id="xtick_4">
     <g id="line2d_8">
      <defs>
       <path d="
M0 0
L0 -2" id="mf0ff38ea95"/>
      </defs>
      <g>
       <use style="stroke:#000000;stroke-linecap:butt;stroke-width:0.5;" x="83.1557447129" xlink:href="#mf0ff38ea95" y="16.276875"/>
      </g>
     </g>
    </g>
    <g id="xtick_5">
     <g id="line2d_9">
      <defs>
       <path d="
M0 0
L0 -2" id="mf0ff38ea95"/>
      </defs>
      <g>
       <use style="stroke:#000000;stroke-linecap:butt;stroke-width:0.5;" x="109.840657961" xlink:href="#mf0ff38ea95" y="16.276875"/>
      </g>
     </g>
    </g>
    <g id="xtick_6">
     <g id="line2d_10">
      <defs>
       <path d="
M0 0
L0 -2" id="mf0ff38ea95"/>
      </defs>
      <g>
       <use style="stroke:#000000;stroke-linecap:butt;stroke-width:0.5;" x="136.525571209" xlink:href="#mf0ff38ea95" y="16.276875"/>
      </g>
     </g>
    </g>
    <g id="xtick_7">
     <g id="line2d_11">
      <defs>
       <path d="
M0 0
L0 -2" id="mf0ff38ea95"/>
      </defs>
      <g>
       <use style="stroke:#000000;stroke-linecap:butt;stroke-width:0.5;" x="163.210484457" xlink:href="#mf0ff38ea95" y="16.276875"/>
      </g>
     </g>
    </g>
    <g id="xtick_8">
     <g id="line2d_12">
      <defs>
       <path d="
M0 0
L0 -2" id="mf0ff38ea95"/>
      </defs>
      <g>
       <use style="stroke:#000000;stroke-linecap:butt;stroke-width:0.5;" x="216.580310954" xlink:href="#mf0ff38ea95" y="16.276875"/>
      </g>
     </g>
    </g>
    <g id="xtick_9">
     <g id="line2d_13">
      <defs>
       <path d="
M0 0
L0 -2" id="mf0ff38ea95"/>
      </defs>
      <g>
       <use style="stroke:#000000;stroke-linecap:butt;stroke-width:0.5;" x="243.265224202" xlink:href="#mf0ff38ea95" y="16.276875"/>
      </g>
     </g>
    </g>
    <g id="xtick_10">
     <g id="line2d_14">
      <defs>
       <path d="
M0 0
L0 -2" id="mf0ff38ea95"/>
      </defs>
      <g>
       <use style="stroke:#000000;stroke-linecap:butt;stroke-width:0.5;" x="269.95013745" xlink:href="#mf0ff38ea95" y="16.276875"/>
      </g>
     </g>
    </g>
    <g id="xtick_11">
     <g id="line2d_15">
      <defs>
       <path d="
M0 0
L0 -2" id="mf0ff38ea95"/>
      </defs>
      <g>
       <use style="stroke:#000000;stroke-linecap:butt;stroke-width:0.5;" x="296.635050698" xlink:href="#mf0ff38ea95" y="16.276875"/>
      </g>
     </g>
    </g>
    <g id="xtick_12">
     <g id="line2d_16">
      <defs>
       <path d="
M0 0
L0 -2" id="mf0ff38ea95"/>
      </defs>
      <g>
       <use style="stroke:#000000;stroke-linecap:butt;stroke-width:0.5;" x="350.004877195" xlink:href="#mf0ff38ea95" y="16.276875"/>
      </g>
     </g>
    </g>
    <g id="xtick_13">
     <g id="line2d_17">
      <defs>
       <path d="
M0 0
L0 -2" id="mf0ff38ea95"/>
      </defs>
      <g>
       <use style="stroke:#000000;stroke-linecap:butt;stroke-width:0.5;" x="376.689790443" xlink:href="#mf0ff38ea95" y="16.276875"/>
      </g>
     </g>
    </g>
    <g id="xtick_14">
     <g id="line2d_18">
      <defs>
       <path d="
M0 0
L0 -2" id="mf0ff38ea95"/>
      </defs>
      <g>
       <use style="stroke:#000000;stroke-linecap:butt;stroke-width:0.5;" x="403.374703691" xlink:href="#mf0ff38ea95" y="16.276875"/>
      </g>
     </g>
    </g>
    <g id="xtick_15">
     <g id="line2d_19">
      <defs>
       <path d="
M0 0
L0 -2" id="mf0ff38ea95"/>
      </defs>
      <g>
       <use style="stroke:#000000;stroke-linecap:butt;stroke-width:0.5;" x="430.059616939" xlink:href="#mf0ff38ea95" y="16.276875"/>
      </g>
     </g>
    </g>
    <g id="xtick_16">
     <g id="line2d_20">
      <defs>
       <path d="
M0 0
L0 -2" id="mf0ff38ea95"/>
      </defs>
      <g>
       <use style="stroke:#000000;stroke-linecap:butt;stroke-width:0.5;" x="483.429443435" xlink:href="#mf0ff38ea95" y="16.276875"/>
      </g>
     </g>
    </g>
    <g id="xtick_17">
     <g id="line2d_21">
      <defs>
       <path d="
M0 0
L0 -2" id="mf0ff38ea95"/>
      </defs>
      <g>
       <use style="stroke:#000000;stroke-linecap:butt;stroke-width:0.5;" x="510.114356683" xlink:href="#mf0ff38ea95" y="16.276875"/>
      </g>
     </g>
    </g>
   </g>
   <g id="matplotlib.axis_2">
    <g id="ytick_1">
     <g id="line2d_22">
      <path d="
M65.5062 371.842
L557.486 371.842" style="fill:none;stroke:#000000;stroke-dasharray:1.000000,3.000000;stroke-dashoffset:0.0;stroke-linecap:butt;stroke-width:0.5;"/>
     </g>
     <g id="line2d_23">
      <defs>
       <path d="
M0 0
L4 0" id="mc91e532072"/>
      </defs>
      <g>
       <use style="stroke:#000000;stroke-linecap:butt;stroke-width:0.5;" x="55.50625" xlink:href="#mc91e532072" y="371.842059216"/>
      </g>
     </g>
     <g id="text_4">
      <!-- -0.7 -->
      <defs>
       <path d="
M10.6875 12.4062
L21 12.4062
L21 0
L10.6875 0
z
" id="BitstreamVeraSans-Roman-2e"/>
       <path d="
M4.89062 31.3906
L31.2031 31.3906
L31.2031 23.3906
L4.89062 23.3906
z
" id="BitstreamVeraSans-Roman-2d"/>
       <path d="
M8.20312 72.9062
L55.0781 72.9062
L55.0781 68.7031
L28.6094 0
L18.3125 0
L43.2188 64.5938
L8.20312 64.5938
z
" id="BitstreamVeraSans-Roman-37"/>
      </defs>
      <g transform="translate(7.905 380.577684216)scale(0.24 -0.24)">
       <use xlink:href="#BitstreamVeraSans-Roman-2d"/>
       <use x="36.083984375" xlink:href="#BitstreamVeraSans-Roman-30"/>
       <use x="99.70703125" xlink:href="#BitstreamVeraSans-Roman-2e"/>
       <use x="131.494140625" xlink:href="#BitstreamVeraSans-Roman-37"/>
      </g>
     </g>
    </g>
    <g id="ytick_2">
     <g id="line2d_24">
      <path d="
M65.5062 321.047
L557.486 321.047" style="fill:none;stroke:#000000;stroke-dasharray:1.000000,3.000000;stroke-dashoffset:0.0;stroke-linecap:butt;stroke-width:0.5;"/>
     </g>
     <g id="line2d_25">
      <defs>
       <path d="
M0 0
L4 0" id="mc91e532072"/>
      </defs>
      <g>
       <use style="stroke:#000000;stroke-linecap:butt;stroke-width:0.5;" x="55.50625" xlink:href="#mc91e532072" y="321.0470329"/>
      </g>
     </g>
     <g id="text_5">
      <!-- -0.6 -->
      <defs>
       <path d="
M33.0156 40.375
Q26.375 40.375 22.4844 35.8281
Q18.6094 31.2969 18.6094 23.3906
Q18.6094 15.5312 22.4844 10.9531
Q26.375 6.39062 33.0156 6.39062
Q39.6562 6.39062 43.5312 10.9531
Q47.4062 15.5312 47.4062 23.3906
Q47.4062 31.2969 43.5312 35.8281
Q39.6562 40.375 33.0156 40.375
M52.5938 71.2969
L52.5938 62.3125
Q48.875 64.0625 45.0938 64.9844
Q41.3125 65.9219 37.5938 65.9219
Q27.8281 65.9219 22.6719 59.3281
Q17.5312 52.7344 16.7969 39.4062
Q19.6719 43.6562 24.0156 45.9219
Q28.375 48.1875 33.5938 48.1875
Q44.5781 48.1875 50.9531 41.5156
Q57.3281 34.8594 57.3281 23.3906
Q57.3281 12.1562 50.6875 5.35938
Q44.0469 -1.42188 33.0156 -1.42188
Q20.3594 -1.42188 13.6719 8.26562
Q6.98438 17.9688 6.98438 36.375
Q6.98438 53.6562 15.1875 63.9375
Q23.3906 74.2188 37.2031 74.2188
Q40.9219 74.2188 44.7031 73.4844
Q48.4844 72.75 52.5938 71.2969" id="BitstreamVeraSans-Roman-36"/>
      </defs>
      <g transform="translate(7.365 329.7826579)scale(0.24 -0.24)">
       <use xlink:href="#BitstreamVeraSans-Roman-2d"/>
       <use x="36.083984375" xlink:href="#BitstreamVeraSans-Roman-30"/>
       <use x="99.70703125" xlink:href="#BitstreamVeraSans-Roman-2e"/>
       <use x="131.494140625" xlink:href="#BitstreamVeraSans-Roman-36"/>
      </g>
     </g>
    </g>
    <g id="ytick_3">
     <g id="line2d_26">
      <path d="
M65.5062 270.252
L557.486 270.252" style="fill:none;stroke:#000000;stroke-dasharray:1.000000,3.000000;stroke-dashoffset:0.0;stroke-linecap:butt;stroke-width:0.5;"/>
     </g>
     <g id="line2d_27">
      <defs>
       <path d="
M0 0
L4 0" id="mc91e532072"/>
      </defs>
      <g>
       <use style="stroke:#000000;stroke-linecap:butt;stroke-width:0.5;" x="55.50625" xlink:href="#mc91e532072" y="270.252006583"/>
      </g>
     </g>
     <g id="text_6">
      <!-- -0.5 -->
      <g transform="translate(7.95 278.987631583)scale(0.24 -0.24)">
       <use xlink:href="#BitstreamVeraSans-Roman-2d"/>
       <use x="36.083984375" xlink:href="#BitstreamVeraSans-Roman-30"/>
       <use x="99.70703125" xlink:href="#BitstreamVeraSans-Roman-2e"/>
       <use x="131.494140625" xlink:href="#BitstreamVeraSans-Roman-35"/>
      </g>
     </g>
    </g>
    <g id="ytick_4">
     <g id="line2d_28">
      <path d="
M65.5062 219.457
L557.486 219.457" style="fill:none;stroke:#000000;stroke-dasharray:1.000000,3.000000;stroke-dashoffset:0.0;stroke-linecap:butt;stroke-width:0.5;"/>
     </g>
     <g id="line2d_29">
      <defs>
       <path d="
M0 0
L4 0" id="mc91e532072"/>
      </defs>
      <g>
       <use style="stroke:#000000;stroke-linecap:butt;stroke-width:0.5;" x="55.50625" xlink:href="#mc91e532072" y="219.456980267"/>
      </g>
     </g>
     <g id="text_7">
      <!-- -0.4 -->
      <defs>
       <path d="
M37.7969 64.3125
L12.8906 25.3906
L37.7969 25.3906
z

M35.2031 72.9062
L47.6094 72.9062
L47.6094 25.3906
L58.0156 25.3906
L58.0156 17.1875
L47.6094 17.1875
L47.6094 0
L37.7969 0
L37.7969 17.1875
L4.89062 17.1875
L4.89062 26.7031
z
" id="BitstreamVeraSans-Roman-34"/>
      </defs>
      <g transform="translate(7.2 228.192605267)scale(0.24 -0.24)">
       <use xlink:href="#BitstreamVeraSans-Roman-2d"/>
       <use x="36.083984375" xlink:href="#BitstreamVeraSans-Roman-30"/>
       <use x="99.70703125" xlink:href="#BitstreamVeraSans-Roman-2e"/>
       <use x="131.494140625" xlink:href="#BitstreamVeraSans-Roman-34"/>
      </g>
     </g>
    </g>
    <g id="ytick_5">
     <g id="line2d_30">
      <path d="
M65.5062 168.662
L557.486 168.662" style="fill:none;stroke:#000000;stroke-dasharray:1.000000,3.000000;stroke-dashoffset:0.0;stroke-linecap:butt;stroke-width:0.5;"/>
     </g>
     <g id="line2d_31">
      <defs>
       <path d="
M0 0
L4 0" id="mc91e532072"/>
      </defs>
      <g>
       <use style="stroke:#000000;stroke-linecap:butt;stroke-width:0.5;" x="55.50625" xlink:href="#mc91e532072" y="168.66195395"/>
      </g>
     </g>
     <g id="text_8">
      <!-- -0.3 -->
      <defs>
       <path d="
M40.5781 39.3125
Q47.6562 37.7969 51.625 33
Q55.6094 28.2188 55.6094 21.1875
Q55.6094 10.4062 48.1875 4.48438
Q40.7656 -1.42188 27.0938 -1.42188
Q22.5156 -1.42188 17.6562 -0.515625
Q12.7969 0.390625 7.625 2.20312
L7.625 11.7188
Q11.7188 9.32812 16.5938 8.10938
Q21.4844 6.89062 26.8125 6.89062
Q36.0781 6.89062 40.9375 10.5469
Q45.7969 14.2031 45.7969 21.1875
Q45.7969 27.6406 41.2812 31.2656
Q36.7656 34.9062 28.7188 34.9062
L20.2188 34.9062
L20.2188 43.0156
L29.1094 43.0156
Q36.375 43.0156 40.2344 45.9219
Q44.0938 48.8281 44.0938 54.2969
Q44.0938 59.9062 40.1094 62.9062
Q36.1406 65.9219 28.7188 65.9219
Q24.6562 65.9219 20.0156 65.0312
Q15.375 64.1562 9.8125 62.3125
L9.8125 71.0938
Q15.4375 72.6562 20.3438 73.4375
Q25.25 74.2188 29.5938 74.2188
Q40.8281 74.2188 47.3594 69.1094
Q53.9062 64.0156 53.9062 55.3281
Q53.9062 49.2656 50.4375 45.0938
Q46.9688 40.9219 40.5781 39.3125" id="BitstreamVeraSans-Roman-33"/>
      </defs>
      <g transform="translate(7.7775 177.39757895)scale(0.24 -0.24)">
       <use xlink:href="#BitstreamVeraSans-Roman-2d"/>
       <use x="36.083984375" xlink:href="#BitstreamVeraSans-Roman-30"/>
       <use x="99.70703125" xlink:href="#BitstreamVeraSans-Roman-2e"/>
       <use x="131.494140625" xlink:href="#BitstreamVeraSans-Roman-33"/>
      </g>
     </g>
    </g>
    <g id="ytick_6">
     <g id="line2d_32">
      <path d="
M65.5062 117.867
L557.486 117.867" style="fill:none;stroke:#000000;stroke-dasharray:1.000000,3.000000;stroke-dashoffset:0.0;stroke-linecap:butt;stroke-width:0.5;"/>
     </g>
     <g id="line2d_33">
      <defs>
       <path d="
M0 0
L4 0" id="mc91e532072"/>
      </defs>
      <g>
       <use style="stroke:#000000;stroke-linecap:butt;stroke-width:0.5;" x="55.50625" xlink:href="#mc91e532072" y="117.866927633"/>
      </g>
     </g>
     <g id="text_9">
      <!-- -0.2 -->
      <defs>
       <path d="
M19.1875 8.29688
L53.6094 8.29688
L53.6094 0
L7.32812 0
L7.32812 8.29688
Q12.9375 14.1094 22.625 23.8906
Q32.3281 33.6875 34.8125 36.5312
Q39.5469 41.8438 41.4219 45.5312
Q43.3125 49.2188 43.3125 52.7812
Q43.3125 58.5938 39.2344 62.25
Q35.1562 65.9219 28.6094 65.9219
Q23.9688 65.9219 18.8125 64.3125
Q13.6719 62.7031 7.8125 59.4219
L7.8125 69.3906
Q13.7656 71.7812 18.9375 73
Q24.125 74.2188 28.4219 74.2188
Q39.75 74.2188 46.4844 68.5469
Q53.2188 62.8906 53.2188 53.4219
Q53.2188 48.9219 51.5312 44.8906
Q49.8594 40.875 45.4062 35.4062
Q44.1875 33.9844 37.6406 27.2188
Q31.1094 20.4531 19.1875 8.29688" id="BitstreamVeraSans-Roman-32"/>
      </defs>
      <g transform="translate(8.2575 126.602552633)scale(0.24 -0.24)">
       <use xlink:href="#BitstreamVeraSans-Roman-2d"/>
       <use x="36.083984375" xlink:href="#BitstreamVeraSans-Roman-30"/>
       <use x="99.70703125" xlink:href="#BitstreamVeraSans-Roman-2e"/>
       <use x="131.494140625" xlink:href="#BitstreamVeraSans-Roman-32"/>
      </g>
     </g>
    </g>
    <g id="ytick_7">
     <g id="line2d_34">
      <path d="
M65.5062 67.0719
L557.486 67.0719" style="fill:none;stroke:#000000;stroke-dasharray:1.000000,3.000000;stroke-dashoffset:0.0;stroke-linecap:butt;stroke-width:0.5;"/>
     </g>
     <g id="line2d_35">
      <defs>
       <path d="
M0 0
L4 0" id="mc91e532072"/>
      </defs>
      <g>
       <use style="stroke:#000000;stroke-linecap:butt;stroke-width:0.5;" x="55.50625" xlink:href="#mc91e532072" y="67.0719013166"/>
      </g>
     </g>
     <g id="text_10">
      <!-- -0.1 -->
      <g transform="translate(8.07 75.8075263166)scale(0.24 -0.24)">
       <use xlink:href="#BitstreamVeraSans-Roman-2d"/>
       <use x="36.083984375" xlink:href="#BitstreamVeraSans-Roman-30"/>
       <use x="99.70703125" xlink:href="#BitstreamVeraSans-Roman-2e"/>
       <use x="131.494140625" xlink:href="#BitstreamVeraSans-Roman-31"/>
      </g>
     </g>
    </g>
    <g id="ytick_8">
     <g id="line2d_36">
      <path d="
M65.5062 16.2769
L557.486 16.2769" style="fill:none;stroke:#000000;stroke-dasharray:1.000000,3.000000;stroke-dashoffset:0.0;stroke-linecap:butt;stroke-width:0.5;"/>
     </g>
     <g id="line2d_37">
      <defs>
       <path d="
M0 0
L4 0" id="mc91e532072"/>
      </defs>
      <g>
       <use style="stroke:#000000;stroke-linecap:butt;stroke-width:0.5;" x="55.50625" xlink:href="#mc91e532072" y="16.276875"/>
      </g>
     </g>
     <g id="text_11">
      <!-- 0 -->
      <g transform="translate(39.4125 25.0125)scale(0.24 -0.24)">
       <use xlink:href="#BitstreamVeraSans-Roman-30"/>
      </g>
     </g>
    </g>
    <g id="ytick_9">
     <g id="line2d_38">
      <defs>
       <path d="
M0 0
L2 0" id="m0789224b6b"/>
      </defs>
      <g>
       <use style="stroke:#000000;stroke-linecap:butt;stroke-width:0.5;" x="55.50625" xlink:href="#m0789224b6b" y="402.319075006"/>
      </g>
     </g>
    </g>
    <g id="ytick_10">
     <g id="line2d_39">
      <defs>
       <path d="
M0 0
L2 0" id="m0789224b6b"/>
      </defs>
      <g>
       <use style="stroke:#000000;stroke-linecap:butt;stroke-width:0.5;" x="55.50625" xlink:href="#m0789224b6b" y="392.160069743"/>
      </g>
     </g>
    </g>
    <g id="ytick_11">
     <g id="line2d_40">
      <defs>
       <path d="
M0 0
L2 0" id="m0789224b6b"/>
      </defs>
      <g>
       <use style="stroke:#000000;stroke-linecap:butt;stroke-width:0.5;" x="55.50625" xlink:href="#m0789224b6b" y="382.00106448"/>
      </g>
     </g>
    </g>
    <g id="ytick_12">
     <g id="line2d_41">
      <defs>
       <path d="
M0 0
L2 0" id="m0789224b6b"/>
      </defs>
      <g>
       <use style="stroke:#000000;stroke-linecap:butt;stroke-width:0.5;" x="55.50625" xlink:href="#m0789224b6b" y="361.683053953"/>
      </g>
     </g>
    </g>
    <g id="ytick_13">
     <g id="line2d_42">
      <defs>
       <path d="
M0 0
L2 0" id="m0789224b6b"/>
      </defs>
      <g>
       <use style="stroke:#000000;stroke-linecap:butt;stroke-width:0.5;" x="55.50625" xlink:href="#m0789224b6b" y="351.52404869"/>
      </g>
     </g>
    </g>
    <g id="ytick_14">
     <g id="line2d_43">
      <defs>
       <path d="
M0 0
L2 0" id="m0789224b6b"/>
      </defs>
      <g>
       <use style="stroke:#000000;stroke-linecap:butt;stroke-width:0.5;" x="55.50625" xlink:href="#m0789224b6b" y="341.365043426"/>
      </g>
     </g>
    </g>
    <g id="ytick_15">
     <g id="line2d_44">
      <defs>
       <path d="
M0 0
L2 0" id="m0789224b6b"/>
      </defs>
      <g>
       <use style="stroke:#000000;stroke-linecap:butt;stroke-width:0.5;" x="55.50625" xlink:href="#m0789224b6b" y="331.206038163"/>
      </g>
     </g>
    </g>
    <g id="ytick_16">
     <g id="line2d_45">
      <defs>
       <path d="
M0 0
L2 0" id="m0789224b6b"/>
      </defs>
      <g>
       <use style="stroke:#000000;stroke-linecap:butt;stroke-width:0.5;" x="55.50625" xlink:href="#m0789224b6b" y="310.888027636"/>
      </g>
     </g>
    </g>
    <g id="ytick_17">
     <g id="line2d_46">
      <defs>
       <path d="
M0 0
L2 0" id="m0789224b6b"/>
      </defs>
      <g>
       <use style="stroke:#000000;stroke-linecap:butt;stroke-width:0.5;" x="55.50625" xlink:href="#m0789224b6b" y="300.729022373"/>
      </g>
     </g>
    </g>
    <g id="ytick_18">
     <g id="line2d_47">
      <defs>
       <path d="
M0 0
L2 0" id="m0789224b6b"/>
      </defs>
      <g>
       <use style="stroke:#000000;stroke-linecap:butt;stroke-width:0.5;" x="55.50625" xlink:href="#m0789224b6b" y="290.57001711"/>
      </g>
     </g>
    </g>
    <g id="ytick_19">
     <g id="line2d_48">
      <defs>
       <path d="
M0 0
L2 0" id="m0789224b6b"/>
      </defs>
      <g>
       <use style="stroke:#000000;stroke-linecap:butt;stroke-width:0.5;" x="55.50625" xlink:href="#m0789224b6b" y="280.411011846"/>
      </g>
     </g>
    </g>
    <g id="ytick_20">
     <g id="line2d_49">
      <defs>
       <path d="
M0 0
L2 0" id="m0789224b6b"/>
      </defs>
      <g>
       <use style="stroke:#000000;stroke-linecap:butt;stroke-width:0.5;" x="55.50625" xlink:href="#m0789224b6b" y="260.09300132"/>
      </g>
     </g>
    </g>
    <g id="ytick_21">
     <g id="line2d_50">
      <defs>
       <path d="
M0 0
L2 0" id="m0789224b6b"/>
      </defs>
      <g>
       <use style="stroke:#000000;stroke-linecap:butt;stroke-width:0.5;" x="55.50625" xlink:href="#m0789224b6b" y="249.933996056"/>
      </g>
     </g>
    </g>
    <g id="ytick_22">
     <g id="line2d_51">
      <defs>
       <path d="
M0 0
L2 0" id="m0789224b6b"/>
      </defs>
      <g>
       <use style="stroke:#000000;stroke-linecap:butt;stroke-width:0.5;" x="55.50625" xlink:href="#m0789224b6b" y="239.774990793"/>
      </g>
     </g>
    </g>
    <g id="ytick_23">
     <g id="line2d_52">
      <defs>
       <path d="
M0 0
L2 0" id="m0789224b6b"/>
      </defs>
      <g>
       <use style="stroke:#000000;stroke-linecap:butt;stroke-width:0.5;" x="55.50625" xlink:href="#m0789224b6b" y="229.61598553"/>
      </g>
     </g>
    </g>
    <g id="ytick_24">
     <g id="line2d_53">
      <defs>
       <path d="
M0 0
L2 0" id="m0789224b6b"/>
      </defs>
      <g>
       <use style="stroke:#000000;stroke-linecap:butt;stroke-width:0.5;" x="55.50625" xlink:href="#m0789224b6b" y="209.297975003"/>
      </g>
     </g>
    </g>
    <g id="ytick_25">
     <g id="line2d_54">
      <defs>
       <path d="
M0 0
L2 0" id="m0789224b6b"/>
      </defs>
      <g>
       <use style="stroke:#000000;stroke-linecap:butt;stroke-width:0.5;" x="55.50625" xlink:href="#m0789224b6b" y="199.13896974"/>
      </g>
     </g>
    </g>
    <g id="ytick_26">
     <g id="line2d_55">
      <defs>
       <path d="
M0 0
L2 0" id="m0789224b6b"/>
      </defs>
      <g>
       <use style="stroke:#000000;stroke-linecap:butt;stroke-width:0.5;" x="55.50625" xlink:href="#m0789224b6b" y="188.979964477"/>
      </g>
     </g>
    </g>
    <g id="ytick_27">
     <g id="line2d_56">
      <defs>
       <path d="
M0 0
L2 0" id="m0789224b6b"/>
      </defs>
      <g>
       <use style="stroke:#000000;stroke-linecap:butt;stroke-width:0.5;" x="55.50625" xlink:href="#m0789224b6b" y="178.820959213"/>
      </g>
     </g>
    </g>
    <g id="ytick_28">
     <g id="line2d_57">
      <defs>
       <path d="
M0 0
L2 0" id="m0789224b6b"/>
      </defs>
      <g>
       <use style="stroke:#000000;stroke-linecap:butt;stroke-width:0.5;" x="55.50625" xlink:href="#m0789224b6b" y="158.502948687"/>
      </g>
     </g>
    </g>
    <g id="ytick_29">
     <g id="line2d_58">
      <defs>
       <path d="
M0 0
L2 0" id="m0789224b6b"/>
      </defs>
      <g>
       <use style="stroke:#000000;stroke-linecap:butt;stroke-width:0.5;" x="55.50625" xlink:href="#m0789224b6b" y="148.343943423"/>
      </g>
     </g>
    </g>
    <g id="ytick_30">
     <g id="line2d_59">
      <defs>
       <path d="
M0 0
L2 0" id="m0789224b6b"/>
      </defs>
      <g>
       <use style="stroke:#000000;stroke-linecap:butt;stroke-width:0.5;" x="55.50625" xlink:href="#m0789224b6b" y="138.18493816"/>
      </g>
     </g>
    </g>
    <g id="ytick_31">
     <g id="line2d_60">
      <defs>
       <path d="
M0 0
L2 0" id="m0789224b6b"/>
      </defs>
      <g>
       <use style="stroke:#000000;stroke-linecap:butt;stroke-width:0.5;" x="55.50625" xlink:href="#m0789224b6b" y="128.025932897"/>
      </g>
     </g>
    </g>
    <g id="ytick_32">
     <g id="line2d_61">
      <defs>
       <path d="
M0 0
L2 0" id="m0789224b6b"/>
      </defs>
      <g>
       <use style="stroke:#000000;stroke-linecap:butt;stroke-width:0.5;" x="55.50625" xlink:href="#m0789224b6b" y="107.70792237"/>
      </g>
     </g>
    </g>
    <g id="ytick_33">
     <g id="line2d_62">
      <defs>
       <path d="
M0 0
L2 0" id="m0789224b6b"/>
      </defs>
      <g>
       <use style="stroke:#000000;stroke-linecap:butt;stroke-width:0.5;" x="55.50625" xlink:href="#m0789224b6b" y="97.5489171066"/>
      </g>
     </g>
    </g>
    <g id="ytick_34">
     <g id="line2d_63">
      <defs>
       <path d="
M0 0
L2 0" id="m0789224b6b"/>
      </defs>
      <g>
       <use style="stroke:#000000;stroke-linecap:butt;stroke-width:0.5;" x="55.50625" xlink:href="#m0789224b6b" y="87.3899118433"/>
      </g>
     </g>
    </g>
    <g id="ytick_35">
     <g id="line2d_64">
      <defs>
       <path d="
M0 0
L2 0" id="m0789224b6b"/>
      </defs>
      <g>
       <use style="stroke:#000000;stroke-linecap:butt;stroke-width:0.5;" x="55.50625" xlink:href="#m0789224b6b" y="77.23090658"/>
      </g>
     </g>
    </g>
    <g id="ytick_36">
     <g id="line2d_65">
      <defs>
       <path d="
M0 0
L2 0" id="m0789224b6b"/>
      </defs>
      <g>
       <use style="stroke:#000000;stroke-linecap:butt;stroke-width:0.5;" x="55.50625" xlink:href="#m0789224b6b" y="56.9128960533"/>
      </g>
     </g>
    </g>
    <g id="ytick_37">
     <g id="line2d_66">
      <defs>
       <path d="
M0 0
L2 0" id="m0789224b6b"/>
      </defs>
      <g>
       <use style="stroke:#000000;stroke-linecap:butt;stroke-width:0.5;" x="55.50625" xlink:href="#m0789224b6b" y="46.75389079"/>
      </g>
     </g>
    </g>
    <g id="ytick_38">
     <g id="line2d_67">
      <defs>
       <path d="
M0 0
L2 0" id="m0789224b6b"/>
      </defs>
      <g>
       <use style="stroke:#000000;stroke-linecap:butt;stroke-width:0.5;" x="55.50625" xlink:href="#m0789224b6b" y="36.5948855267"/>
      </g>
     </g>
    </g>
    <g id="ytick_39">
     <g id="line2d_68">
      <defs>
       <path d="
M0 0
L2 0" id="m0789224b6b"/>
      </defs>
      <g>
       <use style="stroke:#000000;stroke-linecap:butt;stroke-width:0.5;" x="55.50625" xlink:href="#m0789224b6b" y="26.4358802633"/>
      </g>
     </g>
    </g>
   </g>
   <g id="patch_3">
    <path d="
M65.5062 16.2769
L557.486 16.2769" style="fill:none;stroke:#000000;stroke-width:0.8;"/>
   </g>
   <g id="patch_4">
    <path d="
M55.5062 412.239
L55.5062 8.51291" style="fill:none;stroke:#000000;stroke-width:0.8;"/>
   </g>
  </g>
 </g>
 <defs>
  <clipPath id="pef49794cff">
   <rect height="403.726153846" width="491.98" x="65.50625" y="8.51291050296"/>
  </clipPath>
 </defs>
</svg>
