<?xml version="1.0" encoding="utf-8" standalone="no"?>
<!DOCTYPE svg PUBLIC "-//W3C//DTD SVG 1.1//EN"
  "http://www.w3.org/Graphics/SVG/1.1/DTD/svg11.dtd">
<!-- Created with matplotlib (http://matplotlib.sourceforge.net/) -->
<svg height="419pt" version="1.1" viewBox="0 0 564 419" width="564pt" xmlns="http://www.w3.org/2000/svg" xmlns:xlink="http://www.w3.org/1999/xlink">
 <defs>
  <style type="text/css">
*{stroke-linecap:square;stroke-linejoin:round;}
  </style>
 </defs>
 <g id="figure_1">
  <g id="patch_1">
   <path d="
M-4.44089e-16 419.439
L564.499 419.439
L564.499 0
L-4.44089e-16 0
z
" style="fill:#ffffff;"/>
  </g>
  <g id="axes_1">
   <g id="patch_2">
    <path d="
M64.7562 412.239
L557.299 412.239
L557.299 8.51291
L64.7562 8.51291
z
" style="fill:#ffffff;"/>
   </g>
   <g id="line2d_1">
    <path clip-path="url(#p2fe29bff6c)" d="
M74.2282 16.2769
L85.0604 16.2769
L85.0604 16.2769
L85.0604 16.2769
L98.7073 16.2769
L98.7073 39.6821
L107.696 39.6821
L107.696 70.2968
L119.771 70.2968
L119.771 136.933
L124.234 136.933
L124.234 165.612
L131.401 165.612
L131.401 196.423
L134.372 196.423
L134.372 214.07
L139.477 214.07
L139.477 233.564
L145.669 233.564
L145.669 252.899
L147.451 252.899
L147.451 258.532
L152.178 258.532
L152.178 267.835
L154.92 267.835
L154.92 271.467
L156.193 271.467
L156.193 272.577
L158.569 272.577
L158.569 275.941
L161.779 275.941
L161.779 276.297
L164.644 276.297
L164.644 280.026
L165.534 280.026
L165.534 280.672
L168.041 280.672
L168.041 283.972
L169.59 283.972
L169.59 286.462
L170.332 286.462
L170.332 288.754
L172.442 288.754
L172.442 296.13
L173.762 296.13
L173.762 300.019
L175.626 300.019
L175.626 307.047
L177.926 307.047
L177.926 313.372
L179.005 313.372
L179.005 317.237
L179.529 317.237
L179.529 318.845
L180.547 318.845
L180.547 322.704
L181.042 322.704
L181.042 324.404
L182.005 324.404
L182.005 328.483
L185.125 328.483
L185.125 340.471
L185.953 340.471
L185.953 344.349
L187.15 344.349
L187.15 350.02
L187.537 350.02
L187.537 351.455
L189.393 351.455
L189.393 356.255
L189.749 356.255
L189.749 357.438
L190.79 357.438
L190.79 360.243
L191.792 360.243
L191.792 362.401
L192.44 362.401
L192.44 363.642
L193.383 363.642
L193.383 365.077
L194.294 365.077
L194.294 366.189
L194.591 366.189
L194.591 366.402
L196.027 366.402
L196.027 366.829
L196.854 366.904
L196.854 366.687
L197.123 366.687
L197.123 366.369
L198.688 366.369
L198.688 364.31
L200.165 364.31
L200.165 363.336
L200.64 363.336
L200.64 363.078
L201.337 363.035
L201.337 362.807
L202.017 362.807
L202.017 362.587
L203.956 362.572
L203.956 362.382
L204.573 362.382
L204.573 362.155
L205.176 362.155
L205.176 362.307
L205.373 362.307
L205.373 362.447
L205.959 362.447
L205.959 362.67
L206.342 362.67
L206.342 363.021
L206.531 363.021
L206.531 363.219
L207.459 363.219
L207.459 364.799
L208.706 364.799
L208.706 366.651
L209.051 366.651
L209.051 367.053
L209.223 367.053
L209.223 367.342
L209.562 367.342
L209.562 367.832
L210.717 367.832
L210.717 369.897
L211.196 369.897
L211.196 371.009
L211.978 371.009
L211.978 372.745
L212.131 372.745
L212.131 373.141
L212.436 373.141
L212.436 373.764
L212.886 373.764
L212.886 374.796
L213.475 374.796
L213.475 375.936
L213.908 375.936
L213.908 376.857
L214.334 376.857
L214.334 377.478
L214.615 377.478
L214.615 377.737
L215.03 377.737
L215.03 377.87
L215.574 377.87
L215.574 377.745
L217.015 377.763
L217.015 377.618
L218.26 377.538
L218.26 377.492
L218.862 377.567
L218.862 377.608
L219.567 377.582
L219.567 377.475
L219.912 377.41
L219.912 377.352
L221.033 377.454
L221.033 377.666
L221.251 377.666
L221.251 377.781
L221.683 377.781
L221.683 378.173
L221.896 378.173
L221.896 378.328
L222.213 378.328
L222.213 378.553
L222.836 378.553
L222.938 379.271
L223.842 379.271
L223.842 380.294
L224.137 380.294
L224.137 380.61
L224.621 380.61
L224.621 381.193
L224.907 381.193
L224.907 381.452
L225.19 381.452
L225.284 381.897
L225.563 381.897
L225.563 382.488
L226.022 382.488
L226.022 383.348
L226.294 383.348
L226.294 383.734
L226.563 383.734
L226.652 384.377
L226.917 384.377
L226.917 384.855
L227.18 384.855
L227.18 385.383
L227.354 385.383
L227.44 385.807
L227.953 385.807
L227.953 386.535
L228.373 386.535
L228.456 387.336
L228.622 387.336
L228.622 387.603
L228.869 387.603
L228.869 387.869
L229.113 387.869
L229.194 388.28
L229.675 388.28
L229.675 389.084
L229.833 389.084
L229.833 389.342
L230.069 389.342
L230.069 389.689
L230.38 389.689
L230.38 390.103
L230.764 390.103
L230.764 390.406
L231.067 390.406
L231.067 390.694
L231.441 390.694
L231.441 391.124
L231.736 391.124
L231.736 391.436
L231.956 391.436
L231.956 391.639
L232.174 391.639
L232.174 391.867
L232.318 391.867
L232.318 392.044
L232.604 392.044
L232.604 392.326
L232.817 392.326
L232.817 392.526
L232.958 392.526
L232.958 392.665
L233.237 392.665
L233.237 393.014
L233.376 393.014
L233.376 393.203
L233.855 393.203
L233.855 394.028
L234.192 394.028
L234.192 394.636
L234.592 394.636
L234.658 395.443
L234.985 395.443
L235.05 396.074
L235.179 396.074
L235.244 396.413
L235.564 396.413
L235.564 396.84
L236.006 396.84
L236.006 397.302
L236.194 397.412
L236.194 397.474
L236.318 397.474
L236.318 397.6
L236.748 397.6
L236.748 397.922
L236.93 398.032
L236.93 398.078
L237.646 398.151
L237.646 398.388
L237.997 398.451
L237.997 398.575
L238.287 398.575
L238.287 398.804
L238.516 398.804
L238.516 398.994
L238.629 398.994
L238.629 399.105
L238.799 399.105
L238.799 399.344
L238.968 399.344
L238.968 399.564
L239.358 399.564
L239.468 400.151
L239.632 400.151
L239.632 400.413
L239.796 400.413
L239.796 400.698
L240.013 400.698
L240.013 401.036
L240.174 401.036
L240.174 401.226
L240.493 401.226
L240.599 401.643
L240.757 401.643
L240.809 401.862
L241.07 401.862
L241.121 402.32
L241.276 402.32
L241.276 402.541
L241.532 402.541
L241.583 402.914
L241.836 402.914
L241.886 403.227
L242.483 403.336
L242.581 403.597
L242.873 403.665
L242.873 403.76
L243.21 403.809
L243.21 403.913
L243.496 403.974
L243.496 404.037
L244.011 404.037
L244.058 404.356
L244.471 404.435
L244.471 404.475
L245.147 404.365
L245.147 404.241
L245.501 404.151
L245.501 404.096
L245.763 404.012
L245.806 403.938
L246.194 403.893
L246.194 403.79
L246.786 403.683
L246.828 403.371
L247.202 403.261
L247.284 403.064
L247.407 403.018
L247.407 402.91
L247.651 402.91
L247.691 402.641
L248.488 402.534
L248.488 401.924
L248.723 401.841
L248.723 401.762
L248.878 401.762
L248.878 401.615
L249.224 401.615
L249.224 401.354
L249.414 401.354
L249.414 401.206
L249.678 401.206
L249.753 400.97
L250.125 400.862
L250.236 400.762
L250.565 400.713
L250.565 400.646
L251.281 400.536
L251.281 400.446
L251.633 400.34
L251.633 400.278
L252.014 400.171
L252.117 400.141
L253.126 400.203
L253.159 400.296
L253.421 400.399
L253.421 400.532
L253.746 400.532
L253.842 400.92
L254.758 401.025
L254.789 401.084
L255.159 401.162
L255.25 401.221
L255.972 401.323
L255.972 401.371
L256.991 401.465
L257.076 401.526
L257.416 401.581
L257.5 401.681
L257.834 401.748
L257.862 402.027
L258.082 402.027
L258.109 402.307
L258.409 402.307
L258.49 402.722
L258.598 402.722
L258.678 402.928
L258.812 403.01
L258.918 403.191
L259.13 403.265
L259.156 403.394
L259.471 403.485
L259.471 403.64
L259.6 403.64
L259.678 403.836
L259.832 403.836
L259.935 403.987
L261.354 403.903
L261.403 403.7
L261.764 403.637
L261.835 403.564
L262.12 403.524
L262.19 403.368
L262.424 403.275
L262.471 403.204
L262.886 403.112
L262.978 402.798
L263.092 402.714
L263.16 402.568
L263.318 402.568
L263.385 402.325
L263.52 402.247
L263.565 402.113
L263.765 402.032
L263.831 401.831
L264.051 401.766
L264.161 401.554
L264.378 401.444
L264.486 401.292
L264.765 401.292
L264.765 401.118
L265.062 401.027
L265.147 400.907
L265.564 400.824
L265.564 400.673
L265.709 400.563
L265.709 400.547
L265.955 400.457
L265.996 400.366
L266.26 400.269
L266.36 400.059
L266.561 399.975
L266.66 399.902
L267.444 399.944
L267.54 400.089
L267.732 400.178
L267.789 400.234
L268.074 400.304
L268.168 400.396
L269.595 400.304
L269.702 400.094
L270.037 399.984
L270.142 399.912
L270.557 399.816
L270.66 399.648
L270.797 399.648
L270.797 399.534
L271.017 399.534
L271.068 399.341
L271.169 399.341
L271.253 399.13
L271.353 399.13
L271.403 398.952
L271.503 398.857
L271.569 398.742
L271.751 398.742
L271.816 398.47
L271.914 398.47
L271.914 398.357
L272.142 398.357
L272.207 397.962
L272.304 397.893
L272.4 397.711
L272.528 397.609
L272.624 397.452
L272.735 397.347
L272.735 397.33
L272.861 397.33
L272.877 397.169
L273.003 397.169
L273.05 396.965
L273.206 396.965
L273.206 396.803
L273.33 396.803
L273.438 396.549
L273.653 396.497
L273.715 396.259
L273.852 396.148
L273.943 395.965
L274.033 395.861
L274.079 395.785
L274.259 395.68
L274.348 395.514
L274.527 395.44
L274.601 395.296
L274.909 395.188
L275.011 395.054
L275.344 394.946
L275.444 394.856
L275.686 394.762
L275.771 394.695
L275.94 394.596
L275.94 394.556
L276.066 394.556
L276.15 394.363
L276.359 394.271
L276.455 394.172
L276.661 394.112
L276.77 393.969
L277.068 393.861
L277.068 393.782
L277.296 393.688
L277.376 393.62
L277.615 393.576
L277.668 393.434
L277.812 393.35
L277.904 393.234
L278.125 393.138
L278.202 393.01
L278.599 392.909
L278.701 392.82
L279.671 392.714
L279.671 392.708
L279.781 392.708
L279.781 392.708
L279.781 392.718
L279.89 392.712
L280.323 392.608
L280.395 392.521
L280.572 392.417
L280.572 392.399
L280.796 392.292
L280.831 392.237
L281.145 392.146
L281.249 392.009
L281.717 391.925
L281.785 391.859
L282.066 391.807
L282.166 391.651
L282.332 391.564
L282.332 391.473
L282.498 391.473
L282.586 391.195
L282.728 391.106
L282.815 390.881
L282.912 390.78
L283.02 390.644
L283.181 390.568
L283.267 390.469
L283.564 390.376
L283.659 390.305
L284.149 390.194
L284.149 390.193
L284.191 390.193
L284.191 390.193
L284.283 390.212
L284.973 390.322
L285.063 390.345
L285.656 390.437
L285.714 390.478
L286.924 390.584
L286.98 390.655
L287.248 390.765
L287.34 390.835
L287.777 390.939
L287.849 390.991
L288.881 391.092
L288.985 391.116
L289.37 391.224
L289.472 391.306
L290.518 391.41
L290.591 391.453
L290.817 391.532
L290.914 391.615
L292.045 391.726
L292.152 391.737
L292.388 391.837
L292.457 391.901
L292.63 391.952
L292.728 392.093
L292.907 392.175
L292.967 392.255
L293.152 392.357
L293.188 392.39
L293.35 392.467
L293.438 392.58
L293.612 392.668
L293.699 392.77
L293.908 392.86
L294.015 392.995
L294.144 393.079
L294.25 393.213
L294.377 393.316
L294.462 393.42
L294.588 393.527
L294.692 393.673
L294.797 393.781
L294.88 393.872
L295.093 393.967
L295.189 394.131
L295.359 394.23
L295.414 394.337
L295.535 394.411
L295.643 394.549
L295.784 394.584
L295.864 394.752
L295.984 394.843
L296.076 395.041
L296.175 395.136
L296.215 395.225
L296.34 395.311
L296.438 395.454
L296.568 395.546
L296.671 395.666
L296.884 395.77
L296.993 395.827
L297.247 395.937
L297.323 395.99
L297.562 396.099
L297.655 396.169
L297.829 396.279
L297.934 396.347
L298.192 396.457
L298.302 396.532
L298.502 396.627
L298.556 396.68
L298.724 396.736
L298.808 396.851
L299.04 396.946
L299.128 397.029
L299.346 397.131
L299.428 397.188
L299.654 397.292
L299.764 397.382
L299.97 397.49
L300.05 397.518
L300.642 397.61
L300.742 397.695
L301.007 397.789
L301.09 397.892
L301.237 397.985
L301.335 398.098
L301.503 398.199
L301.611 398.277
L301.867 398.37
L301.952 398.457
L302.122 398.538
L302.216 398.679
L302.358 398.783
L302.452 398.866
L302.654 398.972
L302.737 399.016
L303.07 399.125
L303.151 399.161
L303.393 399.257
L303.494 399.304
L305.102 399.414
L305.196 399.465
L306.279 399.355
L306.387 399.287
L306.57 399.176
L306.664 399.078
L306.797 398.997
L306.903 398.84
L307.074 398.745
L307.171 398.543
L307.275 398.435
L307.362 398.306
L307.457 398.258
L307.561 398.071
L307.672 397.963
L307.766 397.806
L307.877 397.728
L307.983 397.579
L308.131 397.478
L308.236 397.367
L308.362 397.269
L308.449 397.164
L308.569 397.054
L308.656 396.94
L308.78 396.847
L308.878 396.735
L309.078 396.626
L309.159 396.553
L309.369 396.452
L309.466 396.361
L309.669 396.275
L309.76 396.193
L309.966 396.091
L310.048 396.005
L310.22 395.896
L310.302 395.818
L310.533 395.709
L310.629 395.645
L310.813 395.547
L310.923 395.44
L311.059 395.338
L311.15 395.251
L311.289 395.18
L311.374 395.027
L311.486 394.949
L311.579 394.821
L311.701 394.728
L311.811 394.612
L311.95 394.503
L312.059 394.387
L312.183 394.277
L312.291 394.134
L312.384 394.037
L312.492 393.871
L312.624 393.772
L312.731 393.59
L312.865 393.481
L312.953 393.374
L313.058 393.285
L313.163 393.141
L313.257 393.05
L313.351 392.897
L313.465 392.794
L313.565 392.595
L313.65 392.499
L313.753 392.277
L313.865 392.213
L313.974 391.894
L314.089 391.811
L314.196 391.547
L314.277 391.449
L314.38 391.265
L314.47 391.175
L314.559 391.033
L314.645 390.926
L314.744 390.798
L314.875 390.688
L314.954 390.592
L315.11 390.495
L315.194 390.396
L315.339 390.298
L315.426 390.21
L315.563 390.11
L315.665 390.01
L315.82 389.91
L315.924 389.801
L316.065 389.707
L316.159 389.603
L316.318 389.498
L316.41 389.418
L316.546 389.31
L316.641 389.216
L316.797 389.112
L316.906 389.009
L317.078 388.899
L317.184 388.839
L317.408 388.729
L317.491 388.675
L317.683 388.571
L317.792 388.485
L317.929 388.376
L318.028 388.303
L318.228 388.199
L318.338 388.124
L318.572 388.017
L318.638 387.974
L318.799 387.867
L318.886 387.808
L319.086 387.706
L319.172 387.608
L319.435 387.5
L319.537 387.454
L320.008 387.346
L320.108 387.293
L320.381 387.183
L320.485 387.13
L320.68 387.021
L320.775 386.949
L320.955 386.839
L321.028 386.742
L321.158 386.644
L321.269 386.493
L321.397 386.409
L321.499 386.22
L321.604 386.12
L321.703 385.982
L321.796 385.871
L321.902 385.733
L321.998 385.628
L322.103 385.483
L322.195 385.387
L322.304 385.238
L322.418 385.137
L322.529 384.991
L322.636 384.895
L322.746 384.77
L322.894 384.666
L322.994 384.595
L323.246 384.495
L323.353 384.452
L323.668 384.342
L323.772 384.289
L324.012 384.182
L324.121 384.125
L324.363 384.016
L324.448 383.971
L324.63 383.878
L324.741 383.763
L324.87 383.653
L324.971 383.578
L325.249 383.469
L325.358 383.427
L325.606 383.319
L325.707 383.272
L326.187 383.173
L326.281 383.051
L326.481 382.983
L326.574 382.818
L326.801 382.715
L326.87 382.518
L326.978 382.518
L327.082 382.29
L327.264 382.202
L327.264 382.113
L327.46 382.027
L327.562 381.895
L327.862 381.785
L327.952 381.672
L328.251 381.566
L328.346 381.502
L328.843 381.399
L328.936 381.333
L329.133 381.278
L329.23 381.151
L329.538 381.045
L329.642 380.903
L329.822 380.842
L329.923 380.698
L330.326 380.602
L330.416 380.565
L332.006 380.671
L332.099 380.766
L332.396 380.876
L332.479 381.008
L332.674 381.076
L332.674 381.123
L334.056 381.229
L334.156 381.307
L334.839 381.412
L334.94 381.439
L335.254 381.507
L335.335 381.582
L335.631 381.656
L335.631 381.7
L335.923 381.802
L335.923 381.829
L336.513 381.912
L336.611 382.017
L337.9 382.11
L337.992 382.189
L338.684 382.29
L338.785 382.35
L339.175 382.443
L339.273 382.516
L339.859 382.618
L339.961 382.659
L340.259 382.758
L340.355 382.832
L341.261 382.927
L341.342 383.005
L341.563 383.053
L341.642 383.154
L341.83 383.203
L341.926 383.334
L342.124 383.394
L342.235 383.491
L343.304 383.602
L343.402 383.617
L346.166 383.541
L346.261 383.441
L346.456 383.377
L346.562 383.252
L347.053 383.143
L347.149 383.092
L347.832 382.985
L347.935 382.91
L348.626 382.808
L348.718 382.757
L349.02 382.691
L349.111 382.606
L349.411 382.508
L349.505 382.466
L350.201 382.366
L350.293 382.326
L350.784 382.232
L350.884 382.21
L351.773 382.102
L351.873 382.002
L352.064 381.923
L352.163 381.74
L352.364 381.639
L352.458 381.492
L352.754 381.397
L352.854 381.379
L353.739 381.475
L353.839 381.528
L354.23 381.638
L354.331 381.762
L354.524 381.854
L354.623 382.038
L354.734 382.038
L354.824 382.273
L355.017 382.381
L355.121 382.613
L355.217 382.613
L355.311 382.833
L355.512 382.927
L355.608 383.055
L355.905 383.14
L356.003 383.23
L356.692 383.322
L356.791 383.417
L356.996 383.473
L357.087 383.579
L357.38 383.675
L357.479 383.761
L358.068 383.87
L358.166 383.889
L358.857 383.793
L358.953 383.698
L359.15 383.642
L359.251 383.54
L359.448 383.484
L359.544 383.361
L359.741 383.277
L359.841 383.144
L360.046 383.076
L360.135 382.937
L360.338 382.868
L360.429 382.718
L360.626 382.636
L360.73 382.537
L361.029 382.427
L361.119 382.311
L361.414 382.22
L361.517 382.129
L361.814 382.049
L361.911 381.958
L362.109 381.896
L362.205 381.76
L362.397 381.68
L362.498 381.545
L362.697 381.461
L362.792 381.277
L362.99 381.193
L363.089 381.05
L363.284 380.977
L363.384 380.86
L363.678 380.757
L363.776 380.609
L363.98 380.531
L364.073 380.38
L364.272 380.282
L364.369 380.133
L364.564 380.062
L364.668 379.874
L364.862 379.778
L364.962 379.603
L365.153 379.53
L365.252 379.398
L365.452 379.333
L365.552 379.198
L365.747 379.132
L365.844 378.977
L366.042 378.884
L366.144 378.67
L366.335 378.575
L366.44 378.439
L366.731 378.338
L366.829 378.212
L367.03 378.157
L367.123 378.017
L367.418 377.914
L367.516 377.811
L367.811 377.726
L367.91 377.635
L368.109 377.576
L368.206 377.455
L368.403 377.391
L368.501 377.235
L368.699 377.145
L368.796 377.005
L369.093 376.896
L369.189 376.758
L369.387 376.685
L369.484 376.55
L369.685 376.458
L369.78 376.291
L369.977 376.21
L370.076 376.03
L370.272 375.928
L370.37 375.697
L370.468 375.697
L370.57 375.437
L370.667 375.437
L370.763 375.197
L370.963 375.093
L371.062 374.861
L371.159 374.861
L371.256 374.61
L371.354 374.61
L371.455 374.34
L371.65 374.233
L371.748 374.051
L371.847 374.051
L371.948 373.835
L372.145 373.735
L372.24 373.514
L372.437 373.405
L372.537 373.169
L372.634 373.169
L372.732 372.938
L372.929 372.834
L373.027 372.662
L373.226 372.579
L373.326 372.429
L373.521 372.35
L373.622 372.219
L373.914 372.109
L374.011 372.024
L374.405 371.914
L374.504 371.802
L374.799 371.708
L374.898 371.671
L376.277 371.576
L376.376 371.542
L376.867 371.451
L376.969 371.411
L378.344 371.33
L378.442 371.256
L380.213 371.357
L380.311 371.404
L381.886 371.298
L381.986 371.259
L382.873 371.151
L382.968 371.127
L383.56 371.034
L383.657 370.978
L384.051 370.887
L384.15 370.84
L386.12 370.735
L386.217 370.708
L386.71 370.597
L386.808 370.491
L387.104 370.384
L387.202 370.291
L387.695 370.192
L387.791 370.143
L388.284 370.048
L388.381 369.974
L388.775 369.867
L388.875 369.803
L389.169 369.721
L389.267 369.594
L389.563 369.485
L389.663 369.42
L390.156 369.319
L390.252 369.272
L390.744 369.165
L390.842 369.103
L391.334 369.004
L391.434 368.924
L391.63 368.864
L391.728 368.756
L392.026 368.671
L392.122 368.593
L392.417 368.5
L392.515 368.41
L392.81 368.328
L392.909 368.245
L393.204 368.166
L393.304 368.064
L393.5 367.992
L393.598 367.854
L393.795 367.795
L393.893 367.653
L394.09 367.572
L394.188 367.436
L394.486 367.328
L394.582 367.17
L394.779 367.105
L394.879 366.989
L395.175 366.905
L395.272 366.83
L395.665 366.744
L395.763 366.678
L396.157 366.589
L396.255 366.529
L396.552 366.438
L396.649 366.296
L396.847 366.214
L396.945 366.088
L397.143 366.018
L397.239 365.881
L397.437 365.822
L397.535 365.703
L397.734 365.637
L397.83 365.487
L398.027 365.396
L398.125 365.215
L398.323 365.122
L398.423 364.887
L398.619 364.779
L398.716 364.596
L398.913 364.521
L399.012 364.363
L399.209 364.291
L399.306 364.14
L399.503 364.057
L399.604 363.854
L399.799 363.751
L399.897 363.543
L400.094 363.439
L400.192 363.252
L400.389 363.172
L400.488 363.051
L400.784 362.954
L400.883 362.87
L401.275 362.796
L401.373 362.716
L401.866 362.614
L401.964 362.564
L403.539 362.64
L403.638 362.723
L403.836 362.78
L403.933 362.901
L404.129 362.965
L404.228 363.089
L404.424 363.152
L404.523 363.25
L404.818 363.34
L404.918 363.458
L405.212 363.547
L405.31 363.624
L405.607 363.709
L405.704 363.82
L406 363.92
L406.098 364.052
L406.295 364.119
L406.393 364.284
L406.592 364.372
L406.688 364.524
L406.885 364.597
L406.983 364.742
L407.181 364.819
L407.28 364.994
L407.475 365.084
L407.575 365.266
L407.771 365.356
L407.869 365.526
L408.066 365.615
L408.165 365.806
L408.361 365.91
L408.46 366.117
L408.657 366.217
L408.755 366.441
L408.952 366.551
L409.05 366.759
L409.149 366.759
L409.247 366.976
L409.444 367.081
L409.542 367.303
L409.739 367.406
L409.838 367.537
L410.034 367.612
L410.133 367.73
L410.33 367.785
L410.428 367.909
L410.625 367.975
L410.724 368.069
L412.593 367.96
L412.692 367.929
L413.677 367.819
L413.775 367.773
L414.267 367.686
L414.365 367.635
L414.759 367.544
L414.857 367.422
L415.054 367.345
L415.153 367.206
L415.35 367.148
L415.448 367.002
L415.645 366.938
L415.743 366.812
L415.94 366.743
L416.039 366.596
L416.236 366.526
L416.334 366.404
L416.63 366.308
L416.727 366.196
L417.023 366.087
L417.122 365.968
L417.515 365.877
L417.613 365.829
L418.892 365.935
L418.991 365.988
L420.369 365.893
L420.468 365.83
L420.763 365.732
L420.861 365.675
L421.353 365.567
L421.452 365.504
L421.846 365.418
L421.944 365.356
L422.239 365.281
L422.338 365.212
L422.731 365.12
L422.83 365.068
L423.322 364.973
L423.42 364.894
L423.912 364.789
L424.01 364.756
L424.404 364.665
L424.503 364.585
L424.798 364.496
L424.896 364.428
L425.192 364.349
L425.29 364.216
L425.487 364.129
L425.586 363.945
L425.782 363.866
L425.881 363.669
L425.979 363.669
L426.077 363.428
L426.176 363.428
L426.274 363.184
L426.373 363.184
L426.471 362.936
L426.57 362.936
L426.668 362.704
L426.865 362.614
L426.963 362.403
L427.16 362.31
L427.258 362.128
L427.455 362.035
L427.554 361.855
L427.751 361.759
L427.849 361.55
L428.046 361.464
L428.144 361.273
L428.341 361.172
L428.439 360.981
L428.637 360.891
L428.735 360.717
L428.931 360.631
L429.03 360.445
L429.227 360.357
L429.325 360.206
L429.522 360.149
L429.621 360.039
L429.817 359.986
L429.916 359.879
L430.113 359.824
L430.211 359.713
L430.507 359.61
L430.605 359.537
L430.999 359.426
L431.097 359.393
L431.491 359.315
L431.589 359.236
L431.885 359.151
L431.983 359.059
L432.278 358.949
L432.377 358.833
L432.574 358.778
L432.672 358.64
L432.869 358.572
L432.967 358.413
L433.164 358.312
L433.263 358.103
L433.361 358.103
L433.459 357.878
L433.558 357.878
L433.656 357.644
L433.853 357.535
L433.951 357.309
L434.148 357.214
L434.247 357.046
L434.443 356.966
L434.543 356.767
L434.739 356.67
L434.837 356.505
L435.034 356.416
L435.133 356.213
L435.33 356.11
L435.428 355.927
L435.625 355.858
L435.723 355.714
L435.92 355.643
L436.018 355.48
L436.215 355.387
L436.314 355.191
L436.51 355.092
L436.609 354.875
L436.805 354.779
L436.904 354.635
L437.101 354.573
L437.2 354.459
L437.396 354.395
L437.494 354.261
L437.691 354.189
L437.79 354.068
L437.987 354.006
L438.085 353.899
L438.282 353.837
L438.38 353.702
L438.577 353.629
L438.675 353.543
L439.069 353.462
L439.168 353.384
L439.365 353.329
L439.463 353.195
L439.66 353.125
L439.758 353.007
L440.053 352.907
L440.152 352.818
L440.349 352.763
L440.447 352.641
L440.644 352.587
L440.743 352.445
L441.038 352.339
L441.136 352.276
L441.53 352.183
L441.628 352.132
L442.022 352.062
L442.12 351.984
L442.908 351.875
L443.006 351.775
L443.301 351.683
L443.4 351.604
L443.794 351.502
L443.892 351.403
L444.188 351.306
L444.286 351.235
L444.679 351.143
L444.778 351.067
L446.156 350.962
L446.254 350.919
L446.845 350.817
L446.943 350.755
L447.238 350.668
L447.337 350.583
L450.486 350.67
L450.585 350.745
L450.88 350.835
L450.979 350.892
L451.864 351.002
L451.963 351.05
L452.258 351.138
L452.356 351.222
L452.652 351.3
L452.75 351.395
L453.144 351.491
L453.242 351.534
L455.014 351.629
L455.112 351.694
L455.407 351.772
L455.506 351.854
L455.9 351.935
L455.998 351.991
L457.278 351.884
L457.376 351.775
L457.671 351.682
L457.77 351.587
L458.065 351.476
L458.163 351.354
L458.459 351.247
L458.557 351.143
L458.951 351.048
L459.049 351.015
L460.525 351.123
L460.624 351.188
L460.919 351.272
L461.017 351.365
L461.313 351.45
L461.411 351.529
L461.707 351.63
L461.805 351.693
L462.199 351.786
L462.297 351.84
L464.659 351.743
L464.758 351.672
L465.151 351.57
L465.25 351.515
L466.726 351.412
L466.825 351.39
L467.907 351.476
L468.006 351.558
L468.498 351.663
L468.596 351.693
L469.58 351.799
L469.679 351.828
L471.253 351.723
L471.352 351.69
L472.139 351.607
L472.238 351.556
L472.73 351.455
L472.828 351.369
L473.025 351.311
L473.124 351.196
L473.32 351.13
L473.419 350.991
L473.616 350.922
L473.714 350.762
L473.911 350.675
L474.009 350.505
L474.206 350.403
L474.305 350.226
L474.501 350.144
L474.6 349.982
L474.797 349.923
L474.895 349.772
L475.092 349.698
L475.19 349.562
L475.387 349.49
L475.486 349.344
L475.683 349.274
L475.781 349.135
L475.978 349.071
L476.076 348.931
L476.273 348.87
L476.372 348.728
L476.568 348.641
L476.667 348.457
L476.864 348.369
L476.962 348.219
L477.159 348.159
L477.257 347.991
L477.454 347.904
L477.553 347.737
L477.749 347.665
L477.848 347.5
L478.045 347.425
L478.143 347.3
L478.438 347.205
L478.537 347.081
L478.734 347.015
L478.832 346.907
L479.127 346.821
L479.226 346.727
L479.521 346.635
L479.62 346.545
L479.915 346.465
L480.013 346.378
L480.308 346.29
L480.407 346.213
L480.997 346.103
L481.096 346.047
L481.391 345.975
L481.49 345.897
L481.785 345.814
L481.883 345.721
L482.08 345.66
L482.179 345.54
L482.375 345.477
L482.474 345.343
L482.671 345.275
L482.769 345.149
L482.966 345.088
L483.064 344.974
L483.36 344.88
L483.458 344.791
L483.753 344.713
L483.852 344.636
L484.049 344.582
L484.147 344.452
L484.344 344.368
L484.442 344.226
L484.738 344.117
L484.836 344.035
L485.131 343.954
L485.23 343.897
L485.623 343.814
L485.722 343.747
L486.017 343.663
L486.115 343.568
L486.312 343.512
L486.411 343.393
L486.608 343.331
L486.706 343.228
L486.903 343.177
L487.001 343.064
L487.296 342.981
L487.395 342.905
L487.789 342.805
L487.887 342.752
L488.379 342.673
L488.478 342.604
L488.871 342.508
L488.97 342.431
L489.265 342.352
L489.363 342.232
L489.659 342.124
L489.757 342.014
L490.052 341.937
L490.151 341.831
L490.348 341.769
L490.446 341.65
L490.643 341.597
L490.741 341.47
L491.037 341.378
L491.135 341.259
L491.332 341.191
L491.43 341.052
L491.627 340.983
L491.726 340.861
L492.021 340.775
L492.119 340.69
L492.414 340.61
L492.513 340.529
L492.907 340.423
L493.005 340.366
L493.399 340.28
L493.497 340.227
L493.891 340.142
L493.989 340.07
L494.285 339.985
L494.383 339.915
L494.678 339.828
L494.777 339.765
L495.859 339.673
L495.958 339.636
L496.548 339.538
L496.647 339.488
L497.04 339.386
L497.139 339.307
L499.009 339.209
L499.107 339.175
L499.403 339.109
L499.501 339.023
L500.092 338.919
L500.19 338.884
L500.584 338.793
L500.682 338.722
L501.076 338.639
L501.174 338.583
L503.438 338.693
L503.536 338.774
L503.832 338.852
L503.93 338.914
L504.324 339.009
L504.422 339.06
L505.111 339.153
L505.21 339.193
L508.064 339.103
L508.162 339.049
L508.654 338.944
L508.753 338.878
L509.048 338.808
L509.146 338.709
L509.442 338.609
L509.54 338.512
L509.934 338.424
L510.032 338.379
L510.524 338.3
L510.623 338.226
L511.017 338.121
L511.115 338.088
L511.607 337.979
L511.705 337.909
L512.099 337.798
L512.198 337.746
L513.379 337.654
L513.477 337.595
L513.772 337.508
L513.871 337.436
L514.166 337.357
L514.264 337.287
L514.658 337.187
L514.757 337.132
L515.15 337.04
L515.249 336.971
L515.544 336.869
L515.642 336.783
L515.938 336.701
L516.036 336.603
L516.331 336.5
L516.43 336.398
L516.627 336.345
L516.725 336.215
L517.02 336.111
L517.119 336.026
L517.611 335.915
L517.709 335.852
L521.449 335.746
L521.548 335.727
L523.123 335.628
L523.221 335.602
L524.993 335.703
L525.091 335.73
L530.996 335.819
L531.095 335.875
L531.39 335.958
L531.489 336.025
L531.784 336.133
L531.882 336.261
L532.177 336.359
L532.276 336.428
L532.571 336.5
L532.67 336.589
L533.26 336.691
L533.359 336.737
L535.524 336.642
L535.622 336.582
L536.114 336.475
L536.213 336.414
L536.705 336.319
L536.803 336.279
L537.591 336.174
L537.689 336.138
L538.083 336.058
L538.181 335.984
L538.477 335.894
L538.575 335.799
L538.87 335.721
L538.969 335.635
L539.264 335.554
L539.362 335.443
L539.559 335.378
L539.658 335.25
L539.855 335.188
L539.953 335.063
L540.15 335.001
L540.248 334.867
L540.445 334.801
L540.543 334.653
L540.74 334.579
L540.839 334.416
L541.036 334.34
L541.134 334.192
L541.331 334.114
L541.429 333.947
L541.626 333.857
L541.725 333.696
L541.921 333.62
L542.02 333.487
L542.217 333.416
L542.315 333.268
L542.512 333.203
L542.61 333.057
L542.807 332.97
L542.906 332.815
L543.102 332.746
L543.201 332.606
L543.398 332.532
L543.496 332.361
L543.693 332.276
L543.791 332.121
L543.988 332.036
L544.087 331.852
L544.284 331.769
L544.382 331.584
L544.579 331.487
L544.677 331.296
L544.874 331.205
L544.973 331.024
L545.169 330.948
L545.268 330.799
L545.465 330.71
L545.563 330.513
L545.76 330.42
L545.858 330.246
L546.055 330.156
L546.154 329.992
L546.35 329.912
L546.449 329.762
L546.646 329.681
L546.744 329.536
L546.941 329.473
L547.039 329.361
L547.335 329.255
L547.433 329.119
L547.63 329.052
L547.728 328.927
L547.827 328.927
L547.827 328.859" style="fill:none;stroke:#0000ff;stroke-width:5.0;"/>
   </g>
   <g id="matplotlib.axis_1">
    <g id="xtick_1">
     <g id="line2d_2">
      <path d="
M189.288 412.239
L189.288 8.51291" style="fill:none;stroke:#000000;stroke-dasharray:1.000000,3.000000;stroke-dashoffset:0.0;stroke-linecap:butt;stroke-width:0.5;"/>
     </g>
     <g id="line2d_3">
      <defs>
       <path d="
M0 0
L0 -4" id="m3fbe6c24f1"/>
      </defs>
      <g>
       <use style="stroke:#000000;stroke-linecap:butt;stroke-width:0.5;" x="189.287616689" xlink:href="#m3fbe6c24f1" y="16.276875"/>
      </g>
     </g>
     <g id="text_1">
      <!-- 5 -->
      <defs>
       <path d="
M10.7969 72.9062
L49.5156 72.9062
L49.5156 64.5938
L19.8281 64.5938
L19.8281 46.7344
Q21.9688 47.4688 24.1094 47.8281
Q26.2656 48.1875 28.4219 48.1875
Q40.625 48.1875 47.75 41.5
Q54.8906 34.8125 54.8906 23.3906
Q54.8906 11.625 47.5625 5.09375
Q40.2344 -1.42188 26.9062 -1.42188
Q22.3125 -1.42188 17.5469 -0.640625
Q12.7969 0.140625 7.71875 1.70312
L7.71875 11.625
Q12.1094 9.23438 16.7969 8.0625
Q21.4844 6.89062 26.7031 6.89062
Q35.1562 6.89062 40.0781 11.3281
Q45.0156 15.7656 45.0156 23.3906
Q45.0156 31 40.0781 35.4375
Q35.1562 39.8906 26.7031 39.8906
Q22.75 39.8906 18.8125 39.0156
Q14.8906 38.1406 10.7969 36.2812
z
" id="BitstreamVeraSans-Roman-35"/>
      </defs>
      <g transform="translate(183.626991689 37.774375)scale(0.24 -0.24)">
       <use xlink:href="#BitstreamVeraSans-Roman-35"/>
      </g>
     </g>
    </g>
    <g id="xtick_2">
     <g id="line2d_4">
      <path d="
M322.865 412.239
L322.865 8.51291" style="fill:none;stroke:#000000;stroke-dasharray:1.000000,3.000000;stroke-dashoffset:0.0;stroke-linecap:butt;stroke-width:0.5;"/>
     </g>
     <g id="line2d_5">
      <defs>
       <path d="
M0 0
L0 -4" id="m3fbe6c24f1"/>
      </defs>
      <g>
       <use style="stroke:#000000;stroke-linecap:butt;stroke-width:0.5;" x="322.864732462" xlink:href="#m3fbe6c24f1" y="16.276875"/>
      </g>
     </g>
     <g id="text_2">
      <!-- 10 -->
      <defs>
       <path d="
M31.7812 66.4062
Q24.1719 66.4062 20.3281 58.9062
Q16.5 51.4219 16.5 36.375
Q16.5 21.3906 20.3281 13.8906
Q24.1719 6.39062 31.7812 6.39062
Q39.4531 6.39062 43.2812 13.8906
Q47.125 21.3906 47.125 36.375
Q47.125 51.4219 43.2812 58.9062
Q39.4531 66.4062 31.7812 66.4062
M31.7812 74.2188
Q44.0469 74.2188 50.5156 64.5156
Q56.9844 54.8281 56.9844 36.375
Q56.9844 17.9688 50.5156 8.26562
Q44.0469 -1.42188 31.7812 -1.42188
Q19.5312 -1.42188 13.0625 8.26562
Q6.59375 17.9688 6.59375 36.375
Q6.59375 54.8281 13.0625 64.5156
Q19.5312 74.2188 31.7812 74.2188" id="BitstreamVeraSans-Roman-30"/>
       <path d="
M12.4062 8.29688
L28.5156 8.29688
L28.5156 63.9219
L10.9844 60.4062
L10.9844 69.3906
L28.4219 72.9062
L38.2812 72.9062
L38.2812 8.29688
L54.3906 8.29688
L54.3906 0
L12.4062 0
z
" id="BitstreamVeraSans-Roman-31"/>
      </defs>
      <g transform="translate(309.709732462 38.089375)scale(0.24 -0.24)">
       <use xlink:href="#BitstreamVeraSans-Roman-31"/>
       <use x="63.623046875" xlink:href="#BitstreamVeraSans-Roman-30"/>
      </g>
     </g>
    </g>
    <g id="xtick_3">
     <g id="line2d_6">
      <path d="
M456.442 412.239
L456.442 8.51291" style="fill:none;stroke:#000000;stroke-dasharray:1.000000,3.000000;stroke-dashoffset:0.0;stroke-linecap:butt;stroke-width:0.5;"/>
     </g>
     <g id="line2d_7">
      <defs>
       <path d="
M0 0
L0 -4" id="m3fbe6c24f1"/>
      </defs>
      <g>
       <use style="stroke:#000000;stroke-linecap:butt;stroke-width:0.5;" x="456.441848234" xlink:href="#m3fbe6c24f1" y="16.276875"/>
      </g>
     </g>
     <g id="text_3">
      <!-- 15 -->
      <g transform="translate(443.538098234 37.774375)scale(0.24 -0.24)">
       <use xlink:href="#BitstreamVeraSans-Roman-31"/>
       <use x="63.623046875" xlink:href="#BitstreamVeraSans-Roman-35"/>
      </g>
     </g>
    </g>
    <g id="xtick_4">
     <g id="line2d_8">
      <defs>
       <path d="
M0 0
L0 -2" id="mf0ff38ea95"/>
      </defs>
      <g>
       <use style="stroke:#000000;stroke-linecap:butt;stroke-width:0.5;" x="82.4259240713" xlink:href="#mf0ff38ea95" y="16.276875"/>
      </g>
     </g>
    </g>
    <g id="xtick_5">
     <g id="line2d_9">
      <defs>
       <path d="
M0 0
L0 -2" id="mf0ff38ea95"/>
      </defs>
      <g>
       <use style="stroke:#000000;stroke-linecap:butt;stroke-width:0.5;" x="109.141347226" xlink:href="#mf0ff38ea95" y="16.276875"/>
      </g>
     </g>
    </g>
    <g id="xtick_6">
     <g id="line2d_10">
      <defs>
       <path d="
M0 0
L0 -2" id="mf0ff38ea95"/>
      </defs>
      <g>
       <use style="stroke:#000000;stroke-linecap:butt;stroke-width:0.5;" x="135.85677038" xlink:href="#mf0ff38ea95" y="16.276875"/>
      </g>
     </g>
    </g>
    <g id="xtick_7">
     <g id="line2d_11">
      <defs>
       <path d="
M0 0
L0 -2" id="mf0ff38ea95"/>
      </defs>
      <g>
       <use style="stroke:#000000;stroke-linecap:butt;stroke-width:0.5;" x="162.572193535" xlink:href="#mf0ff38ea95" y="16.276875"/>
      </g>
     </g>
    </g>
    <g id="xtick_8">
     <g id="line2d_12">
      <defs>
       <path d="
M0 0
L0 -2" id="mf0ff38ea95"/>
      </defs>
      <g>
       <use style="stroke:#000000;stroke-linecap:butt;stroke-width:0.5;" x="216.003039844" xlink:href="#mf0ff38ea95" y="16.276875"/>
      </g>
     </g>
    </g>
    <g id="xtick_9">
     <g id="line2d_13">
      <defs>
       <path d="
M0 0
L0 -2" id="mf0ff38ea95"/>
      </defs>
      <g>
       <use style="stroke:#000000;stroke-linecap:butt;stroke-width:0.5;" x="242.718462998" xlink:href="#mf0ff38ea95" y="16.276875"/>
      </g>
     </g>
    </g>
    <g id="xtick_10">
     <g id="line2d_14">
      <defs>
       <path d="
M0 0
L0 -2" id="mf0ff38ea95"/>
      </defs>
      <g>
       <use style="stroke:#000000;stroke-linecap:butt;stroke-width:0.5;" x="269.433886153" xlink:href="#mf0ff38ea95" y="16.276875"/>
      </g>
     </g>
    </g>
    <g id="xtick_11">
     <g id="line2d_15">
      <defs>
       <path d="
M0 0
L0 -2" id="mf0ff38ea95"/>
      </defs>
      <g>
       <use style="stroke:#000000;stroke-linecap:butt;stroke-width:0.5;" x="296.149309307" xlink:href="#mf0ff38ea95" y="16.276875"/>
      </g>
     </g>
    </g>
    <g id="xtick_12">
     <g id="line2d_16">
      <defs>
       <path d="
M0 0
L0 -2" id="mf0ff38ea95"/>
      </defs>
      <g>
       <use style="stroke:#000000;stroke-linecap:butt;stroke-width:0.5;" x="349.580155616" xlink:href="#mf0ff38ea95" y="16.276875"/>
      </g>
     </g>
    </g>
    <g id="xtick_13">
     <g id="line2d_17">
      <defs>
       <path d="
M0 0
L0 -2" id="mf0ff38ea95"/>
      </defs>
      <g>
       <use style="stroke:#000000;stroke-linecap:butt;stroke-width:0.5;" x="376.29557877" xlink:href="#mf0ff38ea95" y="16.276875"/>
      </g>
     </g>
    </g>
    <g id="xtick_14">
     <g id="line2d_18">
      <defs>
       <path d="
M0 0
L0 -2" id="mf0ff38ea95"/>
      </defs>
      <g>
       <use style="stroke:#000000;stroke-linecap:butt;stroke-width:0.5;" x="403.011001925" xlink:href="#mf0ff38ea95" y="16.276875"/>
      </g>
     </g>
    </g>
    <g id="xtick_15">
     <g id="line2d_19">
      <defs>
       <path d="
M0 0
L0 -2" id="mf0ff38ea95"/>
      </defs>
      <g>
       <use style="stroke:#000000;stroke-linecap:butt;stroke-width:0.5;" x="429.726425079" xlink:href="#mf0ff38ea95" y="16.276875"/>
      </g>
     </g>
    </g>
    <g id="xtick_16">
     <g id="line2d_20">
      <defs>
       <path d="
M0 0
L0 -2" id="mf0ff38ea95"/>
      </defs>
      <g>
       <use style="stroke:#000000;stroke-linecap:butt;stroke-width:0.5;" x="483.157271388" xlink:href="#mf0ff38ea95" y="16.276875"/>
      </g>
     </g>
    </g>
    <g id="xtick_17">
     <g id="line2d_21">
      <defs>
       <path d="
M0 0
L0 -2" id="mf0ff38ea95"/>
      </defs>
      <g>
       <use style="stroke:#000000;stroke-linecap:butt;stroke-width:0.5;" x="509.872694543" xlink:href="#mf0ff38ea95" y="16.276875"/>
      </g>
     </g>
    </g>
   </g>
   <g id="matplotlib.axis_2">
    <g id="ytick_1">
     <g id="line2d_22">
      <path d="
M64.7562 389.543
L557.299 389.543" style="fill:none;stroke:#000000;stroke-dasharray:1.000000,3.000000;stroke-dashoffset:0.0;stroke-linecap:butt;stroke-width:0.5;"/>
     </g>
     <g id="line2d_23">
      <defs>
       <path d="
M0 0
L4 0" id="mc91e532072"/>
      </defs>
      <g>
       <use style="stroke:#000000;stroke-linecap:butt;stroke-width:0.5;" x="54.75625" xlink:href="#mc91e532072" y="389.542935859"/>
      </g>
     </g>
     <g id="text_4">
      <!-- -2 -->
      <defs>
       <path d="
M19.1875 8.29688
L53.6094 8.29688
L53.6094 0
L7.32812 0
L7.32812 8.29688
Q12.9375 14.1094 22.625 23.8906
Q32.3281 33.6875 34.8125 36.5312
Q39.5469 41.8438 41.4219 45.5312
Q43.3125 49.2188 43.3125 52.7812
Q43.3125 58.5938 39.2344 62.25
Q35.1562 65.9219 28.6094 65.9219
Q23.9688 65.9219 18.8125 64.3125
Q13.6719 62.7031 7.8125 59.4219
L7.8125 69.3906
Q13.7656 71.7812 18.9375 73
Q24.125 74.2188 28.4219 74.2188
Q39.75 74.2188 46.4844 68.5469
Q53.2188 62.8906 53.2188 53.4219
Q53.2188 48.9219 51.5312 44.8906
Q49.8594 40.875 45.4062 35.4062
Q44.1875 33.9844 37.6406 27.2188
Q31.1094 20.4531 19.1875 8.29688" id="BitstreamVeraSans-Roman-32"/>
       <path d="
M4.89062 31.3906
L31.2031 31.3906
L31.2031 23.3906
L4.89062 23.3906
z
" id="BitstreamVeraSans-Roman-2d"/>
      </defs>
      <g transform="translate(30.405 398.449185859)scale(0.24 -0.24)">
       <use xlink:href="#BitstreamVeraSans-Roman-2d"/>
       <use x="36.083984375" xlink:href="#BitstreamVeraSans-Roman-32"/>
      </g>
     </g>
    </g>
    <g id="ytick_2">
     <g id="line2d_24">
      <path d="
M64.7562 296.226
L557.299 296.226" style="fill:none;stroke:#000000;stroke-dasharray:1.000000,3.000000;stroke-dashoffset:0.0;stroke-linecap:butt;stroke-width:0.5;"/>
     </g>
     <g id="line2d_25">
      <defs>
       <path d="
M0 0
L4 0" id="mc91e532072"/>
      </defs>
      <g>
       <use style="stroke:#000000;stroke-linecap:butt;stroke-width:0.5;" x="54.75625" xlink:href="#mc91e532072" y="296.226420644"/>
      </g>
     </g>
     <g id="text_5">
      <!-- -1.5 -->
      <defs>
       <path d="
M10.6875 12.4062
L21 12.4062
L21 0
L10.6875 0
z
" id="BitstreamVeraSans-Roman-2e"/>
      </defs>
      <g transform="translate(7.2 304.804545644)scale(0.24 -0.24)">
       <use xlink:href="#BitstreamVeraSans-Roman-2d"/>
       <use x="36.083984375" xlink:href="#BitstreamVeraSans-Roman-31"/>
       <use x="99.70703125" xlink:href="#BitstreamVeraSans-Roman-2e"/>
       <use x="131.494140625" xlink:href="#BitstreamVeraSans-Roman-35"/>
      </g>
     </g>
    </g>
    <g id="ytick_3">
     <g id="line2d_26">
      <path d="
M64.7562 202.91
L557.299 202.91" style="fill:none;stroke:#000000;stroke-dasharray:1.000000,3.000000;stroke-dashoffset:0.0;stroke-linecap:butt;stroke-width:0.5;"/>
     </g>
     <g id="line2d_27">
      <defs>
       <path d="
M0 0
L4 0" id="mc91e532072"/>
      </defs>
      <g>
       <use style="stroke:#000000;stroke-linecap:butt;stroke-width:0.5;" x="54.75625" xlink:href="#mc91e532072" y="202.90990543"/>
      </g>
     </g>
     <g id="text_6">
      <!-- -1 -->
      <g transform="translate(30.2175 211.65865543)scale(0.24 -0.24)">
       <use xlink:href="#BitstreamVeraSans-Roman-2d"/>
       <use x="36.083984375" xlink:href="#BitstreamVeraSans-Roman-31"/>
      </g>
     </g>
    </g>
    <g id="ytick_4">
     <g id="line2d_28">
      <path d="
M64.7562 109.593
L557.299 109.593" style="fill:none;stroke:#000000;stroke-dasharray:1.000000,3.000000;stroke-dashoffset:0.0;stroke-linecap:butt;stroke-width:0.5;"/>
     </g>
     <g id="line2d_29">
      <defs>
       <path d="
M0 0
L4 0" id="mc91e532072"/>
      </defs>
      <g>
       <use style="stroke:#000000;stroke-linecap:butt;stroke-width:0.5;" x="54.75625" xlink:href="#mc91e532072" y="109.593390215"/>
      </g>
     </g>
     <g id="text_7">
      <!-- -0.5 -->
      <g transform="translate(7.2 118.329015215)scale(0.24 -0.24)">
       <use xlink:href="#BitstreamVeraSans-Roman-2d"/>
       <use x="36.083984375" xlink:href="#BitstreamVeraSans-Roman-30"/>
       <use x="99.70703125" xlink:href="#BitstreamVeraSans-Roman-2e"/>
       <use x="131.494140625" xlink:href="#BitstreamVeraSans-Roman-35"/>
      </g>
     </g>
    </g>
    <g id="ytick_5">
     <g id="line2d_30">
      <path d="
M64.7562 16.2769
L557.299 16.2769" style="fill:none;stroke:#000000;stroke-dasharray:1.000000,3.000000;stroke-dashoffset:0.0;stroke-linecap:butt;stroke-width:0.5;"/>
     </g>
     <g id="line2d_31">
      <defs>
       <path d="
M0 0
L4 0" id="mc91e532072"/>
      </defs>
      <g>
       <use style="stroke:#000000;stroke-linecap:butt;stroke-width:0.5;" x="54.75625" xlink:href="#mc91e532072" y="16.276875"/>
      </g>
     </g>
     <g id="text_8">
      <!-- 0 -->
      <g transform="translate(38.6625 25.0125)scale(0.24 -0.24)">
       <use xlink:href="#BitstreamVeraSans-Roman-30"/>
      </g>
     </g>
    </g>
    <g id="ytick_6">
     <g id="line2d_32">
      <defs>
       <path d="
M0 0
L2 0" id="m0789224b6b"/>
      </defs>
      <g>
       <use style="stroke:#000000;stroke-linecap:butt;stroke-width:0.5;" x="54.75625" xlink:href="#m0789224b6b" y="408.206238902"/>
      </g>
     </g>
    </g>
    <g id="ytick_7">
     <g id="line2d_33">
      <defs>
       <path d="
M0 0
L2 0" id="m0789224b6b"/>
      </defs>
      <g>
       <use style="stroke:#000000;stroke-linecap:butt;stroke-width:0.5;" x="54.75625" xlink:href="#m0789224b6b" y="370.879632816"/>
      </g>
     </g>
    </g>
    <g id="ytick_8">
     <g id="line2d_34">
      <defs>
       <path d="
M0 0
L2 0" id="m0789224b6b"/>
      </defs>
      <g>
       <use style="stroke:#000000;stroke-linecap:butt;stroke-width:0.5;" x="54.75625" xlink:href="#m0789224b6b" y="352.216329773"/>
      </g>
     </g>
    </g>
    <g id="ytick_9">
     <g id="line2d_35">
      <defs>
       <path d="
M0 0
L2 0" id="m0789224b6b"/>
      </defs>
      <g>
       <use style="stroke:#000000;stroke-linecap:butt;stroke-width:0.5;" x="54.75625" xlink:href="#m0789224b6b" y="333.55302673"/>
      </g>
     </g>
    </g>
    <g id="ytick_10">
     <g id="line2d_36">
      <defs>
       <path d="
M0 0
L2 0" id="m0789224b6b"/>
      </defs>
      <g>
       <use style="stroke:#000000;stroke-linecap:butt;stroke-width:0.5;" x="54.75625" xlink:href="#m0789224b6b" y="314.889723687"/>
      </g>
     </g>
    </g>
    <g id="ytick_11">
     <g id="line2d_37">
      <defs>
       <path d="
M0 0
L2 0" id="m0789224b6b"/>
      </defs>
      <g>
       <use style="stroke:#000000;stroke-linecap:butt;stroke-width:0.5;" x="54.75625" xlink:href="#m0789224b6b" y="277.563117601"/>
      </g>
     </g>
    </g>
    <g id="ytick_12">
     <g id="line2d_38">
      <defs>
       <path d="
M0 0
L2 0" id="m0789224b6b"/>
      </defs>
      <g>
       <use style="stroke:#000000;stroke-linecap:butt;stroke-width:0.5;" x="54.75625" xlink:href="#m0789224b6b" y="258.899814558"/>
      </g>
     </g>
    </g>
    <g id="ytick_13">
     <g id="line2d_39">
      <defs>
       <path d="
M0 0
L2 0" id="m0789224b6b"/>
      </defs>
      <g>
       <use style="stroke:#000000;stroke-linecap:butt;stroke-width:0.5;" x="54.75625" xlink:href="#m0789224b6b" y="240.236511515"/>
      </g>
     </g>
    </g>
    <g id="ytick_14">
     <g id="line2d_40">
      <defs>
       <path d="
M0 0
L2 0" id="m0789224b6b"/>
      </defs>
      <g>
       <use style="stroke:#000000;stroke-linecap:butt;stroke-width:0.5;" x="54.75625" xlink:href="#m0789224b6b" y="221.573208473"/>
      </g>
     </g>
    </g>
    <g id="ytick_15">
     <g id="line2d_41">
      <defs>
       <path d="
M0 0
L2 0" id="m0789224b6b"/>
      </defs>
      <g>
       <use style="stroke:#000000;stroke-linecap:butt;stroke-width:0.5;" x="54.75625" xlink:href="#m0789224b6b" y="202.90990543"/>
      </g>
     </g>
    </g>
    <g id="ytick_16">
     <g id="line2d_42">
      <defs>
       <path d="
M0 0
L2 0" id="m0789224b6b"/>
      </defs>
      <g>
       <use style="stroke:#000000;stroke-linecap:butt;stroke-width:0.5;" x="54.75625" xlink:href="#m0789224b6b" y="184.246602387"/>
      </g>
     </g>
    </g>
    <g id="ytick_17">
     <g id="line2d_43">
      <defs>
       <path d="
M0 0
L2 0" id="m0789224b6b"/>
      </defs>
      <g>
       <use style="stroke:#000000;stroke-linecap:butt;stroke-width:0.5;" x="54.75625" xlink:href="#m0789224b6b" y="165.583299344"/>
      </g>
     </g>
    </g>
    <g id="ytick_18">
     <g id="line2d_44">
      <defs>
       <path d="
M0 0
L2 0" id="m0789224b6b"/>
      </defs>
      <g>
       <use style="stroke:#000000;stroke-linecap:butt;stroke-width:0.5;" x="54.75625" xlink:href="#m0789224b6b" y="146.919996301"/>
      </g>
     </g>
    </g>
    <g id="ytick_19">
     <g id="line2d_45">
      <defs>
       <path d="
M0 0
L2 0" id="m0789224b6b"/>
      </defs>
      <g>
       <use style="stroke:#000000;stroke-linecap:butt;stroke-width:0.5;" x="54.75625" xlink:href="#m0789224b6b" y="128.256693258"/>
      </g>
     </g>
    </g>
    <g id="ytick_20">
     <g id="line2d_46">
      <defs>
       <path d="
M0 0
L2 0" id="m0789224b6b"/>
      </defs>
      <g>
       <use style="stroke:#000000;stroke-linecap:butt;stroke-width:0.5;" x="54.75625" xlink:href="#m0789224b6b" y="109.593390215"/>
      </g>
     </g>
    </g>
    <g id="ytick_21">
     <g id="line2d_47">
      <defs>
       <path d="
M0 0
L2 0" id="m0789224b6b"/>
      </defs>
      <g>
       <use style="stroke:#000000;stroke-linecap:butt;stroke-width:0.5;" x="54.75625" xlink:href="#m0789224b6b" y="90.9300871718"/>
      </g>
     </g>
    </g>
    <g id="ytick_22">
     <g id="line2d_48">
      <defs>
       <path d="
M0 0
L2 0" id="m0789224b6b"/>
      </defs>
      <g>
       <use style="stroke:#000000;stroke-linecap:butt;stroke-width:0.5;" x="54.75625" xlink:href="#m0789224b6b" y="72.2667841289"/>
      </g>
     </g>
    </g>
    <g id="ytick_23">
     <g id="line2d_49">
      <defs>
       <path d="
M0 0
L2 0" id="m0789224b6b"/>
      </defs>
      <g>
       <use style="stroke:#000000;stroke-linecap:butt;stroke-width:0.5;" x="54.75625" xlink:href="#m0789224b6b" y="53.6034810859"/>
      </g>
     </g>
    </g>
    <g id="ytick_24">
     <g id="line2d_50">
      <defs>
       <path d="
M0 0
L2 0" id="m0789224b6b"/>
      </defs>
      <g>
       <use style="stroke:#000000;stroke-linecap:butt;stroke-width:0.5;" x="54.75625" xlink:href="#m0789224b6b" y="34.940178043"/>
      </g>
     </g>
    </g>
   </g>
   <g id="patch_3">
    <path d="
M64.7562 16.2769
L557.299 16.2769" style="fill:none;stroke:#000000;stroke-width:0.8;"/>
   </g>
   <g id="patch_4">
    <path d="
M54.7562 412.239
L54.7562 8.51291" style="fill:none;stroke:#000000;stroke-width:0.8;"/>
   </g>
  </g>
 </g>
 <defs>
  <clipPath id="p2fe29bff6c">
   <rect height="403.726153846" width="492.5425" x="64.75625" y="8.51291050296"/>
  </clipPath>
 </defs>
</svg>
