<?xml version="1.0" encoding="utf-8" standalone="no"?>
<!DOCTYPE svg PUBLIC "-//W3C//DTD SVG 1.1//EN"
  "http://www.w3.org/Graphics/SVG/1.1/DTD/svg11.dtd">
<!-- Created with matplotlib (http://matplotlib.sourceforge.net/) -->
<svg height="419pt" version="1.1" viewBox="0 0 564 419" width="564pt" xmlns="http://www.w3.org/2000/svg" xmlns:xlink="http://www.w3.org/1999/xlink">
 <defs>
  <style type="text/css">
*{stroke-linecap:square;stroke-linejoin:round;}
  </style>
 </defs>
 <g id="figure_1">
  <g id="patch_1">
   <path d="
M2.22045e-16 419.439
L564.686 419.439
L564.686 0
L2.22045e-16 0
z
" style="fill:#ffffff;"/>
  </g>
  <g id="axes_1">
   <g id="patch_2">
    <path d="
M65.5062 412.239
L557.486 412.239
L557.486 8.51291
L65.5062 8.51291
z
" style="fill:#ffffff;"/>
   </g>
   <g id="line2d_1">
    <path clip-path="url(#pef49794cff)" d="
M74.9674 16.2769
L85.7872 16.2769
L85.7872 16.2769
L85.7872 16.2769
L99.4185 16.2769
L99.4185 62.9935
L108.397 62.9935
L108.397 107.898
L120.458 107.898
L120.458 190.009
L124.916 190.009
L124.916 220.963
L132.075 220.963
L132.075 250.653
L135.043 250.653
L135.043 267.109
L140.141 267.109
L140.141 283.947
L146.327 283.947
L146.327 299.453
L148.106 299.453
L148.106 303.816
L152.828 303.816
L152.828 310.439
L155.567 310.439
L155.567 312.752
L156.838 312.752
L156.838 313.356
L159.212 313.356
L159.212 315.444
L162.418 315.444
L162.418 315.075
L165.28 315.075
L165.28 317.183
L166.169 317.183
L166.169 317.469
L168.673 317.469
L168.673 319.301
L170.22 319.301
L170.22 320.733
L170.961 320.733
L170.961 322.161
L173.069 322.161
L173.069 326.796
L174.387 326.796
L174.387 329.216
L176.25 329.216
L176.25 333.635
L178.547 333.635
L178.547 337.579
L179.625 337.579
L179.625 339.993
L180.148 339.993
L180.148 340.998
L181.165 340.998
L181.165 343.407
L181.659 343.407
L181.659 344.469
L182.621 344.469
L182.621 347.012
L185.738 347.012
L185.738 354.511
L186.565 354.511
L186.565 356.916
L187.76 356.916
L187.76 360.434
L188.147 360.434
L188.147 361.339
L190.001 361.339
L190.001 364.461
L190.357 364.461
L190.357 365.21
L191.396 365.21
L191.396 367.024
L192.397 367.024
L192.397 368.459
L193.044 368.459
L193.044 369.298
L193.986 369.298
L193.986 370.308
L194.896 370.308
L194.896 371.127
L195.192 371.127
L195.192 371.31
L196.627 371.31
L196.627 371.854
L199.285 371.83
L199.285 371.012
L200.761 371.012
L200.761 370.744
L202.832 370.637
L202.832 370.631
L203.917 370.631
L203.917 370.821
L205.765 370.779
L205.765 370.939
L206.547 371.038
L206.547 371.23
L206.93 371.23
L206.93 371.461
L207.119 371.461
L207.119 371.588
L208.046 371.588
L208.046 372.518
L209.291 372.518
L209.291 373.633
L209.637 373.633
L209.637 373.885
L209.808 373.885
L209.808 374.056
L210.147 374.056
L210.147 374.352
L211.3 374.352
L211.3 375.559
L211.779 375.559
L211.779 376.187
L212.56 376.187
L212.56 377.174
L212.713 377.174
L212.713 377.395
L213.017 377.395
L213.017 377.754
L213.467 377.754
L213.467 378.339
L214.055 378.339
L214.055 379.003
L214.488 379.003
L214.488 379.532
L214.913 379.532
L214.913 379.914
L215.194 379.914
L215.194 380.092
L215.608 380.092
L215.608 380.235
L216.946 380.344
L216.946 380.43
L218.344 380.466
L218.344 380.592
L219.077 380.636
L219.077 380.713
L219.907 380.794
L219.907 380.862
L221.162 380.851
L221.162 381.01
L221.604 381.01
L221.604 381.182
L222.254 381.271
L222.254 381.524
L222.783 381.631
L222.783 381.788
L223.405 381.788
L223.507 382.239
L224.41 382.239
L224.41 382.86
L224.705 382.86
L224.705 383.055
L225.188 383.055
L225.188 383.404
L225.474 383.404
L225.474 383.572
L225.757 383.572
L225.85 383.839
L226.129 383.839
L226.129 384.156
L226.588 384.156
L226.588 384.627
L226.859 384.627
L226.859 384.851
L227.128 384.851
L227.217 385.206
L227.482 385.206
L227.482 385.47
L227.744 385.47
L227.744 385.757
L227.918 385.757
L228.004 385.996
L228.517 385.996
L228.517 386.42
L228.936 386.42
L229.019 386.875
L229.185 386.875
L229.185 387.026
L229.431 387.026
L229.431 387.192
L229.675 387.192
L229.756 387.439
L230.236 387.439
L230.236 387.891
L230.394 387.891
L230.394 388.037
L230.63 388.037
L230.63 388.238
L230.941 388.238
L230.941 388.484
L231.324 388.484
L231.324 388.696
L231.627 388.696
L231.627 388.885
L232 388.885
L232 389.15
L232.296 389.15
L232.296 389.348
L232.515 389.348
L232.515 389.482
L232.733 389.482
L232.733 389.627
L233.162 389.734
L233.162 389.917
L233.375 389.917
L233.375 390.048
L233.795 390.138
L233.795 390.349
L233.933 390.349
L233.933 390.46
L234.412 390.46
L234.412 390.919
L234.749 390.919
L234.749 391.254
L235.148 391.254
L235.214 391.704
L235.541 391.704
L235.605 392.061
L235.735 392.061
L235.799 392.25
L236.119 392.25
L236.119 392.505
L236.561 392.505
L236.561 392.802
L236.748 392.877
L236.748 392.917
L237.301 392.999
L237.301 393.234
L237.604 393.341
L237.604 393.4
L238.199 393.4
L238.199 393.635
L238.55 393.688
L238.55 393.794
L238.838 393.794
L238.838 393.956
L239.067 393.956
L239.067 394.087
L239.351 394.16
L239.351 394.299
L239.519 394.299
L239.519 394.43
L239.908 394.43
L240.018 394.791
L240.183 394.791
L240.183 394.939
L240.346 394.939
L240.346 395.096
L240.562 395.096
L240.562 395.287
L240.724 395.287
L240.724 395.404
L241.043 395.404
L241.148 395.677
L241.358 395.782
L241.358 395.818
L241.618 395.818
L241.67 396.082
L241.825 396.082
L241.825 396.21
L242.08 396.21
L242.131 396.438
L242.384 396.438
L242.434 396.64
L243.03 396.721
L243.128 396.958
L243.42 397.021
L243.42 397.095
L243.756 397.149
L243.756 397.238
L244.041 397.297
L244.041 397.357
L244.556 397.357
L244.603 397.621
L245.016 397.709
L245.016 397.768
L246.737 397.874
L246.737 397.892
L248.192 397.809
L248.232 397.763
L249.028 397.747
L249.028 397.647
L250.217 397.554
L250.217 397.529
L250.292 397.53
L252.481 397.637
L252.55 397.655
L253.296 397.72
L253.362 397.793
L253.661 397.867
L253.694 397.929
L253.956 397.988
L253.956 398.071
L254.28 398.071
L254.376 398.303
L254.853 398.338
L254.948 398.44
L255.476 398.548
L255.476 398.587
L255.874 398.689
L255.874 398.712
L256.295 398.811
L256.325 398.832
L256.944 398.942
L256.944 398.965
L257.378 399.025
L257.464 399.102
L257.946 399.205
L258.03 399.291
L258.363 399.333
L258.391 399.491
L258.611 399.491
L258.638 399.645
L258.938 399.645
L259.019 399.875
L259.207 399.939
L259.287 400.036
L259.526 400.136
L259.526 400.179
L259.816 400.259
L259.816 400.318
L260.128 400.412
L260.205 400.527
L260.59 400.634
L260.59 400.668
L261.068 400.772
L261.143 400.801
L263.841 400.716
L263.909 400.667
L264.42 400.563
L264.42 400.551
L266.085 400.45
L266.085 400.433
L268.174 400.54
L268.25 400.612
L268.592 400.682
L268.686 400.752
L269.371 400.86
L269.463 400.882
L271.867 400.782
L271.917 400.741
L272.428 400.63
L272.428 400.604
L272.768 400.505
L272.849 400.462
L273.374 400.355
L273.389 400.318
L273.842 400.233
L273.95 400.175
L274.439 400.065
L274.544 400.003
L275.037 399.912
L275.111 399.884
L276.575 399.791
L276.659 399.749
L277.803 399.64
L277.843 399.634
L277.883 399.634
L278.708 399.523
L278.798 399.506
L282.999 399.432
L283.087 399.363
L283.413 399.252
L283.521 399.219
L285.711 399.309
L285.8 399.349
L286.627 399.458
L286.733 399.472
L287.439 399.579
L287.476 399.591
L287.909 399.699
L288.018 399.722
L288.745 399.824
L288.851 399.847
L289.693 399.951
L289.795 399.993
L290.426 400.089
L290.451 400.107
L291.188 400.217
L291.237 400.237
L291.811 400.348
L291.921 400.356
L292.78 400.46
L292.878 400.503
L293.3 400.61
L293.396 400.667
L293.788 400.751
L293.883 400.819
L294.253 400.924
L294.332 400.968
L294.632 401.065
L294.738 401.123
L295.061 401.232
L295.166 401.309
L295.457 401.417
L295.477 401.442
L295.799 401.544
L295.9 401.605
L296.27 401.713
L296.35 401.786
L296.562 401.879
L296.661 401.956
L296.923 402.057
L297.021 402.113
L297.369 402.219
L297.478 402.254
L297.914 402.343
L297.996 402.393
L298.369 402.503
L298.473 402.542
L298.894 402.648
L298.985 402.685
L299.344 402.795
L299.439 402.826
L299.828 402.933
L299.91 402.963
L300.291 403.069
L300.377 403.104
L300.989 403.213
L301.022 403.226
L301.487 403.33
L301.57 403.379
L301.864 403.485
L301.945 403.52
L302.347 403.613
L302.431 403.659
L302.727 403.769
L302.837 403.817
L303.215 403.921
L303.292 403.945
L303.775 404.047
L303.881 404.091
L304.857 404.199
L304.963 404.217
L305.535 404.323
L305.634 404.359
L306.284 404.468
L306.394 404.475
L307.548 404.366
L307.644 404.324
L308.098 404.214
L308.196 404.177
L308.833 404.068
L308.921 404.047
L309.691 403.938
L309.792 403.924
L311.156 403.816
L311.248 403.801
L311.921 403.696
L312.021 403.668
L312.636 403.558
L312.733 403.531
L313.123 403.426
L313.229 403.395
L313.723 403.286
L313.817 403.25
L314.126 403.142
L314.236 403.093
L314.554 402.984
L314.661 402.92
L315.001 402.81
L315.11 402.768
L315.658 402.659
L315.729 402.645
L316.397 402.535
L316.491 402.515
L317.168 402.404
L317.259 402.39
L318.253 402.28
L318.358 402.26
L319.377 402.152
L319.487 402.134
L321.217 402.023
L321.327 402.006
L321.854 401.897
L321.956 401.851
L322.333 401.742
L322.441 401.71
L322.819 401.599
L322.923 401.57
L323.478 401.459
L323.586 401.449
L325.045 401.341
L325.153 401.317
L326.494 401.206
L326.6 401.193
L327.182 401.083
L327.291 401.054
L327.749 400.944
L327.859 400.924
L328.988 400.813
L329.084 400.808
L330.09 400.701
L330.195 400.677
L332.84 400.787
L332.937 400.823
L334.392 400.934
L334.499 400.952
L335.631 401.062
L335.741 401.08
L336.541 401.19
L336.65 401.2
L338.132 401.31
L338.222 401.323
L339.23 401.434
L339.327 401.445
L340.305 401.556
L340.401 401.568
L341.365 401.679
L341.472 401.685
L342.18 401.796
L342.291 401.823
L343.056 401.934
L343.165 401.939
L345.504 402.05
L345.613 402.064
L351.063 401.953
L351.171 401.948
L352.841 401.838
L352.951 401.823
L354.545 401.934
L354.652 401.952
L355.062 402.063
L355.17 402.101
L355.499 402.212
L355.609 402.252
L356.026 402.362
L356.135 402.381
L357.097 402.491
L357.199 402.51
L357.811 402.62
L357.916 402.636
L360.759 402.525
L360.87 402.505
L362.186 402.395
L362.297 402.386
L363.064 402.276
L363.169 402.254
L364.043 402.144
L364.153 402.125
L364.839 402.014
L364.95 401.993
L365.56 401.882
L365.67 401.868
L366.376 401.757
L366.485 401.732
L367.269 401.621
L367.377 401.606
L368.444 401.496
L368.554 401.481
L369.29 401.37
L369.401 401.356
L370.077 401.246
L370.185 401.225
L370.702 401.115
L370.812 401.082
L371.195 400.972
L371.305 400.945
L371.685 400.834
L371.795 400.798
L372.254 400.688
L372.364 400.66
L372.796 400.55
L372.906 400.518
L373.347 400.407
L373.455 400.386
L374.123 400.275
L374.233 400.262
L375.821 400.151
L375.824 400.151
L375.836 400.151
L375.836 400.151
L375.839 400.151
L375.851 400.151
L375.851 400.151
L375.883 400.15
L375.948 400.151
L375.948 400.151
L376.057 400.153
L384.285 400.042
L384.395 400.034
L387.553 399.923
L387.662 399.915
L389.386 399.804
L389.497 399.79
L390.927 399.679
L391.038 399.672
L392.31 399.561
L392.421 399.55
L393.574 399.439
L393.684 399.423
L394.364 399.312
L394.474 399.292
L395.206 399.181
L395.315 399.17
L396.714 399.059
L396.824 399.044
L397.494 398.933
L397.605 398.915
L398.281 398.804
L398.391 398.779
L398.841 398.668
L398.952 398.64
L399.542 398.529
L399.653 398.508
L400.128 398.397
L400.239 398.369
L400.755 398.258
L400.865 398.242
L402.061 398.131
L402.172 398.123
L404.994 398.234
L405.104 398.244
L406.255 398.355
L406.365 398.369
L407.033 398.48
L407.143 398.497
L407.777 398.608
L407.888 398.631
L408.461 398.742
L408.572 398.766
L409.048 398.877
L409.159 398.905
L409.628 399.016
L409.738 399.042
L410.306 399.153
L410.417 399.169
L411.526 399.28
L411.569 399.281
L411.628 399.28
L411.628 399.28
L411.738 399.276
L415.044 399.165
L415.155 399.151
L415.912 399.04
L416.023 399.025
L416.843 398.914
L416.954 398.903
L421.064 398.792
L421.175 398.786
L422.885 398.675
L422.996 398.668
L424.844 398.557
L424.955 398.546
L425.856 398.435
L425.967 398.415
L426.451 398.304
L426.562 398.275
L426.984 398.164
L427.095 398.142
L427.621 398.031
L427.731 398.008
L428.261 397.897
L428.372 397.874
L428.897 397.763
L429.008 397.741
L429.577 397.63
L429.688 397.613
L430.553 397.501
L430.664 397.487
L431.99 397.376
L432.101 397.365
L432.949 397.254
L433.06 397.235
L433.593 397.124
L433.704 397.096
L434.139 396.984
L434.25 396.956
L434.79 396.845
L434.9 396.818
L435.427 396.707
L435.538 396.681
L436.131 396.569
L436.242 396.55
L436.742 396.439
L436.853 396.411
L437.458 396.3
L437.569 396.282
L438.257 396.171
L438.368 396.156
L439.203 396.045
L439.314 396.033
L440.061 395.922
L440.172 395.906
L440.96 395.795
L441.071 395.774
L442.201 395.662
L442.312 395.65
L443.523 395.539
L443.634 395.526
L444.571 395.415
L444.682 395.405
L446.383 395.294
L446.494 395.284
L447.669 395.173
L447.78 395.162
L457.99 395.051
L458.101 395.038
L458.926 394.927
L459.037 394.915
L466.475 394.804
L466.586 394.799
L472.368 394.688
L472.479 394.68
L473.559 394.569
L473.67 394.552
L474.306 394.441
L474.417 394.417
L475.064 394.306
L475.175 394.287
L475.872 394.176
L475.983 394.158
L476.694 394.047
L476.805 394.026
L477.433 393.915
L477.544 393.893
L478.155 393.781
L478.266 393.763
L479.068 393.652
L479.179 393.638
L480.154 393.527
L480.265 393.514
L481.491 393.403
L481.602 393.39
L482.491 393.279
L482.602 393.262
L483.335 393.151
L483.446 393.137
L484.367 393.026
L484.478 393.005
L485.297 392.894
L485.408 392.883
L486.453 392.772
L486.564 392.757
L487.364 392.645
L487.475 392.633
L488.664 392.522
L488.775 392.512
L489.706 392.401
L489.817 392.386
L490.627 392.275
L490.738 392.259
L491.495 392.148
L491.606 392.128
L492.403 392.017
L492.514 392.004
L493.571 391.893
L493.682 391.883
L494.72 391.772
L494.831 391.757
L496.368 391.646
L496.479 391.638
L497.637 391.527
L497.748 391.519
L499.599 391.408
L499.71 391.394
L500.929 391.283
L501.04 391.271
L503.147 391.16
L503.258 391.157
L507.868 391.046
L507.979 391.041
L509.231 390.93
L509.342 390.916
L510.442 390.805
L510.553 390.797
L511.735 390.686
L511.846 390.675
L513.364 390.563
L513.475 390.555
L514.529 390.444
L514.64 390.432
L515.712 390.321
L515.823 390.308
L516.705 390.197
L516.816 390.181
L517.767 390.069
L517.878 390.058
L519.865 389.946
L519.976 389.941
L522.138 389.83
L522.25 389.825
L524.694 389.714
L524.805 389.712
L527.519 389.601
L527.63 389.594
L530.329 389.483
L530.44 389.478
L536.382 389.367
L536.493 389.356
L538.135 389.245
L538.246 389.234
L539.29 389.123
L539.401 389.111
L540.198 389
L540.309 388.985
L541.012 388.874
L541.123 388.855
L541.772 388.744
L541.883 388.725
L542.589 388.614
L542.7 388.597
L543.372 388.486
L543.484 388.468
L544.11 388.357
L544.221 388.335
L544.788 388.224
L544.9 388.203
L545.515 388.092
L545.626 388.07
L546.194 387.958
L546.305 387.939
L546.951 387.827
L547.063 387.811
L547.817 387.7
L547.928 387.682
L548.025 387.667
L548.025 387.667" style="fill:none;stroke:#0000ff;stroke-width:5.0;"/>
   </g>
   <g id="matplotlib.axis_1">
    <g id="xtick_1">
     <g id="line2d_2">
      <path d="
M189.895 412.239
L189.895 8.51291" style="fill:none;stroke:#000000;stroke-dasharray:1.000000,3.000000;stroke-dashoffset:0.0;stroke-linecap:butt;stroke-width:0.5;"/>
     </g>
     <g id="line2d_3">
      <defs>
       <path d="
M0 0
L0 -4" id="m39fd405fd2"/>
      </defs>
      <g>
       <use style="stroke:#000000;stroke-linecap:butt;stroke-width:0.5;" x="189.895397706" xlink:href="#m39fd405fd2" y="16.276875"/>
      </g>
     </g>
     <g id="text_1">
      <!-- 5 -->
      <defs>
       <path d="
M10.7969 72.9062
L49.5156 72.9062
L49.5156 64.5938
L19.8281 64.5938
L19.8281 46.7344
Q21.9688 47.4688 24.1094 47.8281
Q26.2656 48.1875 28.4219 48.1875
Q40.625 48.1875 47.75 41.5
Q54.8906 34.8125 54.8906 23.3906
Q54.8906 11.625 47.5625 5.09375
Q40.2344 -1.42188 26.9062 -1.42188
Q22.3125 -1.42188 17.5469 -0.640625
Q12.7969 0.140625 7.71875 1.70312
L7.71875 11.625
Q12.1094 9.23438 16.7969 8.0625
Q21.4844 6.89062 26.7031 6.89062
Q35.1562 6.89062 40.0781 11.3281
Q45.0156 15.7656 45.0156 23.3906
Q45.0156 31 40.0781 35.4375
Q35.1562 39.8906 26.7031 39.8906
Q22.75 39.8906 18.8125 39.0156
Q14.8906 38.1406 10.7969 36.2812
z
" id="BitstreamVeraSans-Roman-35"/>
      </defs>
      <g transform="translate(184.234772706 37.774375)scale(0.24 -0.24)">
       <use xlink:href="#BitstreamVeraSans-Roman-35"/>
      </g>
     </g>
    </g>
    <g id="xtick_2">
     <g id="line2d_4">
      <path d="
M323.32 412.239
L323.32 8.51291" style="fill:none;stroke:#000000;stroke-dasharray:1.000000,3.000000;stroke-dashoffset:0.0;stroke-linecap:butt;stroke-width:0.5;"/>
     </g>
     <g id="line2d_5">
      <defs>
       <path d="
M0 0
L0 -4" id="m39fd405fd2"/>
      </defs>
      <g>
       <use style="stroke:#000000;stroke-linecap:butt;stroke-width:0.5;" x="323.319963946" xlink:href="#m39fd405fd2" y="16.276875"/>
      </g>
     </g>
     <g id="text_2">
      <!-- 10 -->
      <defs>
       <path d="
M31.7812 66.4062
Q24.1719 66.4062 20.3281 58.9062
Q16.5 51.4219 16.5 36.375
Q16.5 21.3906 20.3281 13.8906
Q24.1719 6.39062 31.7812 6.39062
Q39.4531 6.39062 43.2812 13.8906
Q47.125 21.3906 47.125 36.375
Q47.125 51.4219 43.2812 58.9062
Q39.4531 66.4062 31.7812 66.4062
M31.7812 74.2188
Q44.0469 74.2188 50.5156 64.5156
Q56.9844 54.8281 56.9844 36.375
Q56.9844 17.9688 50.5156 8.26562
Q44.0469 -1.42188 31.7812 -1.42188
Q19.5312 -1.42188 13.0625 8.26562
Q6.59375 17.9688 6.59375 36.375
Q6.59375 54.8281 13.0625 64.5156
Q19.5312 74.2188 31.7812 74.2188" id="BitstreamVeraSans-Roman-30"/>
       <path d="
M12.4062 8.29688
L28.5156 8.29688
L28.5156 63.9219
L10.9844 60.4062
L10.9844 69.3906
L28.4219 72.9062
L38.2812 72.9062
L38.2812 8.29688
L54.3906 8.29688
L54.3906 0
L12.4062 0
z
" id="BitstreamVeraSans-Roman-31"/>
      </defs>
      <g transform="translate(310.164963946 38.089375)scale(0.24 -0.24)">
       <use xlink:href="#BitstreamVeraSans-Roman-31"/>
       <use x="63.623046875" xlink:href="#BitstreamVeraSans-Roman-30"/>
      </g>
     </g>
    </g>
    <g id="xtick_3">
     <g id="line2d_6">
      <path d="
M456.745 412.239
L456.745 8.51291" style="fill:none;stroke:#000000;stroke-dasharray:1.000000,3.000000;stroke-dashoffset:0.0;stroke-linecap:butt;stroke-width:0.5;"/>
     </g>
     <g id="line2d_7">
      <defs>
       <path d="
M0 0
L0 -4" id="m39fd405fd2"/>
      </defs>
      <g>
       <use style="stroke:#000000;stroke-linecap:butt;stroke-width:0.5;" x="456.744530187" xlink:href="#m39fd405fd2" y="16.276875"/>
      </g>
     </g>
     <g id="text_3">
      <!-- 15 -->
      <g transform="translate(443.840780187 37.774375)scale(0.24 -0.24)">
       <use xlink:href="#BitstreamVeraSans-Roman-31"/>
       <use x="63.623046875" xlink:href="#BitstreamVeraSans-Roman-35"/>
      </g>
     </g>
    </g>
    <g id="xtick_4">
     <g id="line2d_8">
      <defs>
       <path d="
M0 0
L0 -2" id="m933bbe8b2a"/>
      </defs>
      <g>
       <use style="stroke:#000000;stroke-linecap:butt;stroke-width:0.5;" x="83.1557447129" xlink:href="#m933bbe8b2a" y="16.276875"/>
      </g>
     </g>
    </g>
    <g id="xtick_5">
     <g id="line2d_9">
      <defs>
       <path d="
M0 0
L0 -2" id="m933bbe8b2a"/>
      </defs>
      <g>
       <use style="stroke:#000000;stroke-linecap:butt;stroke-width:0.5;" x="109.840657961" xlink:href="#m933bbe8b2a" y="16.276875"/>
      </g>
     </g>
    </g>
    <g id="xtick_6">
     <g id="line2d_10">
      <defs>
       <path d="
M0 0
L0 -2" id="m933bbe8b2a"/>
      </defs>
      <g>
       <use style="stroke:#000000;stroke-linecap:butt;stroke-width:0.5;" x="136.525571209" xlink:href="#m933bbe8b2a" y="16.276875"/>
      </g>
     </g>
    </g>
    <g id="xtick_7">
     <g id="line2d_11">
      <defs>
       <path d="
M0 0
L0 -2" id="m933bbe8b2a"/>
      </defs>
      <g>
       <use style="stroke:#000000;stroke-linecap:butt;stroke-width:0.5;" x="163.210484457" xlink:href="#m933bbe8b2a" y="16.276875"/>
      </g>
     </g>
    </g>
    <g id="xtick_8">
     <g id="line2d_12">
      <defs>
       <path d="
M0 0
L0 -2" id="m933bbe8b2a"/>
      </defs>
      <g>
       <use style="stroke:#000000;stroke-linecap:butt;stroke-width:0.5;" x="216.580310954" xlink:href="#m933bbe8b2a" y="16.276875"/>
      </g>
     </g>
    </g>
    <g id="xtick_9">
     <g id="line2d_13">
      <defs>
       <path d="
M0 0
L0 -2" id="m933bbe8b2a"/>
      </defs>
      <g>
       <use style="stroke:#000000;stroke-linecap:butt;stroke-width:0.5;" x="243.265224202" xlink:href="#m933bbe8b2a" y="16.276875"/>
      </g>
     </g>
    </g>
    <g id="xtick_10">
     <g id="line2d_14">
      <defs>
       <path d="
M0 0
L0 -2" id="m933bbe8b2a"/>
      </defs>
      <g>
       <use style="stroke:#000000;stroke-linecap:butt;stroke-width:0.5;" x="269.95013745" xlink:href="#m933bbe8b2a" y="16.276875"/>
      </g>
     </g>
    </g>
    <g id="xtick_11">
     <g id="line2d_15">
      <defs>
       <path d="
M0 0
L0 -2" id="m933bbe8b2a"/>
      </defs>
      <g>
       <use style="stroke:#000000;stroke-linecap:butt;stroke-width:0.5;" x="296.635050698" xlink:href="#m933bbe8b2a" y="16.276875"/>
      </g>
     </g>
    </g>
    <g id="xtick_12">
     <g id="line2d_16">
      <defs>
       <path d="
M0 0
L0 -2" id="m933bbe8b2a"/>
      </defs>
      <g>
       <use style="stroke:#000000;stroke-linecap:butt;stroke-width:0.5;" x="350.004877195" xlink:href="#m933bbe8b2a" y="16.276875"/>
      </g>
     </g>
    </g>
    <g id="xtick_13">
     <g id="line2d_17">
      <defs>
       <path d="
M0 0
L0 -2" id="m933bbe8b2a"/>
      </defs>
      <g>
       <use style="stroke:#000000;stroke-linecap:butt;stroke-width:0.5;" x="376.689790443" xlink:href="#m933bbe8b2a" y="16.276875"/>
      </g>
     </g>
    </g>
    <g id="xtick_14">
     <g id="line2d_18">
      <defs>
       <path d="
M0 0
L0 -2" id="m933bbe8b2a"/>
      </defs>
      <g>
       <use style="stroke:#000000;stroke-linecap:butt;stroke-width:0.5;" x="403.374703691" xlink:href="#m933bbe8b2a" y="16.276875"/>
      </g>
     </g>
    </g>
    <g id="xtick_15">
     <g id="line2d_19">
      <defs>
       <path d="
M0 0
L0 -2" id="m933bbe8b2a"/>
      </defs>
      <g>
       <use style="stroke:#000000;stroke-linecap:butt;stroke-width:0.5;" x="430.059616939" xlink:href="#m933bbe8b2a" y="16.276875"/>
      </g>
     </g>
    </g>
    <g id="xtick_16">
     <g id="line2d_20">
      <defs>
       <path d="
M0 0
L0 -2" id="m933bbe8b2a"/>
      </defs>
      <g>
       <use style="stroke:#000000;stroke-linecap:butt;stroke-width:0.5;" x="483.429443435" xlink:href="#m933bbe8b2a" y="16.276875"/>
      </g>
     </g>
    </g>
    <g id="xtick_17">
     <g id="line2d_21">
      <defs>
       <path d="
M0 0
L0 -2" id="m933bbe8b2a"/>
      </defs>
      <g>
       <use style="stroke:#000000;stroke-linecap:butt;stroke-width:0.5;" x="510.114356683" xlink:href="#m933bbe8b2a" y="16.276875"/>
      </g>
     </g>
    </g>
   </g>
   <g id="matplotlib.axis_2">
    <g id="ytick_1">
     <g id="line2d_22">
      <path d="
M65.5062 392.671
L557.486 392.671" style="fill:none;stroke:#000000;stroke-dasharray:1.000000,3.000000;stroke-dashoffset:0.0;stroke-linecap:butt;stroke-width:0.5;"/>
     </g>
     <g id="line2d_23">
      <defs>
       <path d="
M0 0
L4 0" id="m78a3498e2a"/>
      </defs>
      <g>
       <use style="stroke:#000000;stroke-linecap:butt;stroke-width:0.5;" x="55.50625" xlink:href="#m78a3498e2a" y="392.67050261"/>
      </g>
     </g>
     <g id="text_4">
      <!-- -0.7 -->
      <defs>
       <path d="
M10.6875 12.4062
L21 12.4062
L21 0
L10.6875 0
z
" id="BitstreamVeraSans-Roman-2e"/>
       <path d="
M4.89062 31.3906
L31.2031 31.3906
L31.2031 23.3906
L4.89062 23.3906
z
" id="BitstreamVeraSans-Roman-2d"/>
       <path d="
M8.20312 72.9062
L55.0781 72.9062
L55.0781 68.7031
L28.6094 0
L18.3125 0
L43.2188 64.5938
L8.20312 64.5938
z
" id="BitstreamVeraSans-Roman-37"/>
      </defs>
      <g transform="translate(7.905 401.40612761)scale(0.24 -0.24)">
       <use xlink:href="#BitstreamVeraSans-Roman-2d"/>
       <use x="36.083984375" xlink:href="#BitstreamVeraSans-Roman-30"/>
       <use x="99.70703125" xlink:href="#BitstreamVeraSans-Roman-2e"/>
       <use x="131.494140625" xlink:href="#BitstreamVeraSans-Roman-37"/>
      </g>
     </g>
    </g>
    <g id="ytick_2">
     <g id="line2d_24">
      <path d="
M65.5062 338.9
L557.486 338.9" style="fill:none;stroke:#000000;stroke-dasharray:1.000000,3.000000;stroke-dashoffset:0.0;stroke-linecap:butt;stroke-width:0.5;"/>
     </g>
     <g id="line2d_25">
      <defs>
       <path d="
M0 0
L4 0" id="m78a3498e2a"/>
      </defs>
      <g>
       <use style="stroke:#000000;stroke-linecap:butt;stroke-width:0.5;" x="55.50625" xlink:href="#m78a3498e2a" y="338.89998438"/>
      </g>
     </g>
     <g id="text_5">
      <!-- -0.6 -->
      <defs>
       <path d="
M33.0156 40.375
Q26.375 40.375 22.4844 35.8281
Q18.6094 31.2969 18.6094 23.3906
Q18.6094 15.5312 22.4844 10.9531
Q26.375 6.39062 33.0156 6.39062
Q39.6562 6.39062 43.5312 10.9531
Q47.4062 15.5312 47.4062 23.3906
Q47.4062 31.2969 43.5312 35.8281
Q39.6562 40.375 33.0156 40.375
M52.5938 71.2969
L52.5938 62.3125
Q48.875 64.0625 45.0938 64.9844
Q41.3125 65.9219 37.5938 65.9219
Q27.8281 65.9219 22.6719 59.3281
Q17.5312 52.7344 16.7969 39.4062
Q19.6719 43.6562 24.0156 45.9219
Q28.375 48.1875 33.5938 48.1875
Q44.5781 48.1875 50.9531 41.5156
Q57.3281 34.8594 57.3281 23.3906
Q57.3281 12.1562 50.6875 5.35938
Q44.0469 -1.42188 33.0156 -1.42188
Q20.3594 -1.42188 13.6719 8.26562
Q6.98438 17.9688 6.98438 36.375
Q6.98438 53.6562 15.1875 63.9375
Q23.3906 74.2188 37.2031 74.2188
Q40.9219 74.2188 44.7031 73.4844
Q48.4844 72.75 52.5938 71.2969" id="BitstreamVeraSans-Roman-36"/>
      </defs>
      <g transform="translate(7.365 347.63560938)scale(0.24 -0.24)">
       <use xlink:href="#BitstreamVeraSans-Roman-2d"/>
       <use x="36.083984375" xlink:href="#BitstreamVeraSans-Roman-30"/>
       <use x="99.70703125" xlink:href="#BitstreamVeraSans-Roman-2e"/>
       <use x="131.494140625" xlink:href="#BitstreamVeraSans-Roman-36"/>
      </g>
     </g>
    </g>
    <g id="ytick_3">
     <g id="line2d_26">
      <path d="
M65.5062 285.129
L557.486 285.129" style="fill:none;stroke:#000000;stroke-dasharray:1.000000,3.000000;stroke-dashoffset:0.0;stroke-linecap:butt;stroke-width:0.5;"/>
     </g>
     <g id="line2d_27">
      <defs>
       <path d="
M0 0
L4 0" id="m78a3498e2a"/>
      </defs>
      <g>
       <use style="stroke:#000000;stroke-linecap:butt;stroke-width:0.5;" x="55.50625" xlink:href="#m78a3498e2a" y="285.12946615"/>
      </g>
     </g>
     <g id="text_6">
      <!-- -0.5 -->
      <g transform="translate(7.95 293.86509115)scale(0.24 -0.24)">
       <use xlink:href="#BitstreamVeraSans-Roman-2d"/>
       <use x="36.083984375" xlink:href="#BitstreamVeraSans-Roman-30"/>
       <use x="99.70703125" xlink:href="#BitstreamVeraSans-Roman-2e"/>
       <use x="131.494140625" xlink:href="#BitstreamVeraSans-Roman-35"/>
      </g>
     </g>
    </g>
    <g id="ytick_4">
     <g id="line2d_28">
      <path d="
M65.5062 231.359
L557.486 231.359" style="fill:none;stroke:#000000;stroke-dasharray:1.000000,3.000000;stroke-dashoffset:0.0;stroke-linecap:butt;stroke-width:0.5;"/>
     </g>
     <g id="line2d_29">
      <defs>
       <path d="
M0 0
L4 0" id="m78a3498e2a"/>
      </defs>
      <g>
       <use style="stroke:#000000;stroke-linecap:butt;stroke-width:0.5;" x="55.50625" xlink:href="#m78a3498e2a" y="231.35894792"/>
      </g>
     </g>
     <g id="text_7">
      <!-- -0.4 -->
      <defs>
       <path d="
M37.7969 64.3125
L12.8906 25.3906
L37.7969 25.3906
z

M35.2031 72.9062
L47.6094 72.9062
L47.6094 25.3906
L58.0156 25.3906
L58.0156 17.1875
L47.6094 17.1875
L47.6094 0
L37.7969 0
L37.7969 17.1875
L4.89062 17.1875
L4.89062 26.7031
z
" id="BitstreamVeraSans-Roman-34"/>
      </defs>
      <g transform="translate(7.2 240.09457292)scale(0.24 -0.24)">
       <use xlink:href="#BitstreamVeraSans-Roman-2d"/>
       <use x="36.083984375" xlink:href="#BitstreamVeraSans-Roman-30"/>
       <use x="99.70703125" xlink:href="#BitstreamVeraSans-Roman-2e"/>
       <use x="131.494140625" xlink:href="#BitstreamVeraSans-Roman-34"/>
      </g>
     </g>
    </g>
    <g id="ytick_5">
     <g id="line2d_30">
      <path d="
M65.5062 177.588
L557.486 177.588" style="fill:none;stroke:#000000;stroke-dasharray:1.000000,3.000000;stroke-dashoffset:0.0;stroke-linecap:butt;stroke-width:0.5;"/>
     </g>
     <g id="line2d_31">
      <defs>
       <path d="
M0 0
L4 0" id="m78a3498e2a"/>
      </defs>
      <g>
       <use style="stroke:#000000;stroke-linecap:butt;stroke-width:0.5;" x="55.50625" xlink:href="#m78a3498e2a" y="177.58842969"/>
      </g>
     </g>
     <g id="text_8">
      <!-- -0.3 -->
      <defs>
       <path d="
M40.5781 39.3125
Q47.6562 37.7969 51.625 33
Q55.6094 28.2188 55.6094 21.1875
Q55.6094 10.4062 48.1875 4.48438
Q40.7656 -1.42188 27.0938 -1.42188
Q22.5156 -1.42188 17.6562 -0.515625
Q12.7969 0.390625 7.625 2.20312
L7.625 11.7188
Q11.7188 9.32812 16.5938 8.10938
Q21.4844 6.89062 26.8125 6.89062
Q36.0781 6.89062 40.9375 10.5469
Q45.7969 14.2031 45.7969 21.1875
Q45.7969 27.6406 41.2812 31.2656
Q36.7656 34.9062 28.7188 34.9062
L20.2188 34.9062
L20.2188 43.0156
L29.1094 43.0156
Q36.375 43.0156 40.2344 45.9219
Q44.0938 48.8281 44.0938 54.2969
Q44.0938 59.9062 40.1094 62.9062
Q36.1406 65.9219 28.7188 65.9219
Q24.6562 65.9219 20.0156 65.0312
Q15.375 64.1562 9.8125 62.3125
L9.8125 71.0938
Q15.4375 72.6562 20.3438 73.4375
Q25.25 74.2188 29.5938 74.2188
Q40.8281 74.2188 47.3594 69.1094
Q53.9062 64.0156 53.9062 55.3281
Q53.9062 49.2656 50.4375 45.0938
Q46.9688 40.9219 40.5781 39.3125" id="BitstreamVeraSans-Roman-33"/>
      </defs>
      <g transform="translate(7.7775 186.32405469)scale(0.24 -0.24)">
       <use xlink:href="#BitstreamVeraSans-Roman-2d"/>
       <use x="36.083984375" xlink:href="#BitstreamVeraSans-Roman-30"/>
       <use x="99.70703125" xlink:href="#BitstreamVeraSans-Roman-2e"/>
       <use x="131.494140625" xlink:href="#BitstreamVeraSans-Roman-33"/>
      </g>
     </g>
    </g>
    <g id="ytick_6">
     <g id="line2d_32">
      <path d="
M65.5062 123.818
L557.486 123.818" style="fill:none;stroke:#000000;stroke-dasharray:1.000000,3.000000;stroke-dashoffset:0.0;stroke-linecap:butt;stroke-width:0.5;"/>
     </g>
     <g id="line2d_33">
      <defs>
       <path d="
M0 0
L4 0" id="m78a3498e2a"/>
      </defs>
      <g>
       <use style="stroke:#000000;stroke-linecap:butt;stroke-width:0.5;" x="55.50625" xlink:href="#m78a3498e2a" y="123.81791146"/>
      </g>
     </g>
     <g id="text_9">
      <!-- -0.2 -->
      <defs>
       <path d="
M19.1875 8.29688
L53.6094 8.29688
L53.6094 0
L7.32812 0
L7.32812 8.29688
Q12.9375 14.1094 22.625 23.8906
Q32.3281 33.6875 34.8125 36.5312
Q39.5469 41.8438 41.4219 45.5312
Q43.3125 49.2188 43.3125 52.7812
Q43.3125 58.5938 39.2344 62.25
Q35.1562 65.9219 28.6094 65.9219
Q23.9688 65.9219 18.8125 64.3125
Q13.6719 62.7031 7.8125 59.4219
L7.8125 69.3906
Q13.7656 71.7812 18.9375 73
Q24.125 74.2188 28.4219 74.2188
Q39.75 74.2188 46.4844 68.5469
Q53.2188 62.8906 53.2188 53.4219
Q53.2188 48.9219 51.5312 44.8906
Q49.8594 40.875 45.4062 35.4062
Q44.1875 33.9844 37.6406 27.2188
Q31.1094 20.4531 19.1875 8.29688" id="BitstreamVeraSans-Roman-32"/>
      </defs>
      <g transform="translate(8.2575 132.55353646)scale(0.24 -0.24)">
       <use xlink:href="#BitstreamVeraSans-Roman-2d"/>
       <use x="36.083984375" xlink:href="#BitstreamVeraSans-Roman-30"/>
       <use x="99.70703125" xlink:href="#BitstreamVeraSans-Roman-2e"/>
       <use x="131.494140625" xlink:href="#BitstreamVeraSans-Roman-32"/>
      </g>
     </g>
    </g>
    <g id="ytick_7">
     <g id="line2d_34">
      <path d="
M65.5062 70.0474
L557.486 70.0474" style="fill:none;stroke:#000000;stroke-dasharray:1.000000,3.000000;stroke-dashoffset:0.0;stroke-linecap:butt;stroke-width:0.5;"/>
     </g>
     <g id="line2d_35">
      <defs>
       <path d="
M0 0
L4 0" id="m78a3498e2a"/>
      </defs>
      <g>
       <use style="stroke:#000000;stroke-linecap:butt;stroke-width:0.5;" x="55.50625" xlink:href="#m78a3498e2a" y="70.0473932299"/>
      </g>
     </g>
     <g id="text_10">
      <!-- -0.1 -->
      <g transform="translate(8.07 78.7830182299)scale(0.24 -0.24)">
       <use xlink:href="#BitstreamVeraSans-Roman-2d"/>
       <use x="36.083984375" xlink:href="#BitstreamVeraSans-Roman-30"/>
       <use x="99.70703125" xlink:href="#BitstreamVeraSans-Roman-2e"/>
       <use x="131.494140625" xlink:href="#BitstreamVeraSans-Roman-31"/>
      </g>
     </g>
    </g>
    <g id="ytick_8">
     <g id="line2d_36">
      <path d="
M65.5062 16.2769
L557.486 16.2769" style="fill:none;stroke:#000000;stroke-dasharray:1.000000,3.000000;stroke-dashoffset:0.0;stroke-linecap:butt;stroke-width:0.5;"/>
     </g>
     <g id="line2d_37">
      <defs>
       <path d="
M0 0
L4 0" id="m78a3498e2a"/>
      </defs>
      <g>
       <use style="stroke:#000000;stroke-linecap:butt;stroke-width:0.5;" x="55.50625" xlink:href="#m78a3498e2a" y="16.276875"/>
      </g>
     </g>
     <g id="text_11">
      <!-- 0 -->
      <g transform="translate(39.4125 25.0125)scale(0.24 -0.24)">
       <use xlink:href="#BitstreamVeraSans-Roman-30"/>
      </g>
     </g>
    </g>
    <g id="ytick_9">
     <g id="line2d_38">
      <defs>
       <path d="
M0 0
L2 0" id="mb4656301dd"/>
      </defs>
      <g>
       <use style="stroke:#000000;stroke-linecap:butt;stroke-width:0.5;" x="55.50625" xlink:href="#mb4656301dd" y="403.424606256"/>
      </g>
     </g>
    </g>
    <g id="ytick_10">
     <g id="line2d_39">
      <defs>
       <path d="
M0 0
L2 0" id="mb4656301dd"/>
      </defs>
      <g>
       <use style="stroke:#000000;stroke-linecap:butt;stroke-width:0.5;" x="55.50625" xlink:href="#mb4656301dd" y="381.916398964"/>
      </g>
     </g>
    </g>
    <g id="ytick_11">
     <g id="line2d_40">
      <defs>
       <path d="
M0 0
L2 0" id="mb4656301dd"/>
      </defs>
      <g>
       <use style="stroke:#000000;stroke-linecap:butt;stroke-width:0.5;" x="55.50625" xlink:href="#mb4656301dd" y="371.162295318"/>
      </g>
     </g>
    </g>
    <g id="ytick_12">
     <g id="line2d_41">
      <defs>
       <path d="
M0 0
L2 0" id="mb4656301dd"/>
      </defs>
      <g>
       <use style="stroke:#000000;stroke-linecap:butt;stroke-width:0.5;" x="55.50625" xlink:href="#mb4656301dd" y="360.408191672"/>
      </g>
     </g>
    </g>
    <g id="ytick_13">
     <g id="line2d_42">
      <defs>
       <path d="
M0 0
L2 0" id="mb4656301dd"/>
      </defs>
      <g>
       <use style="stroke:#000000;stroke-linecap:butt;stroke-width:0.5;" x="55.50625" xlink:href="#mb4656301dd" y="349.654088026"/>
      </g>
     </g>
    </g>
    <g id="ytick_14">
     <g id="line2d_43">
      <defs>
       <path d="
M0 0
L2 0" id="mb4656301dd"/>
      </defs>
      <g>
       <use style="stroke:#000000;stroke-linecap:butt;stroke-width:0.5;" x="55.50625" xlink:href="#mb4656301dd" y="328.145880734"/>
      </g>
     </g>
    </g>
    <g id="ytick_15">
     <g id="line2d_44">
      <defs>
       <path d="
M0 0
L2 0" id="mb4656301dd"/>
      </defs>
      <g>
       <use style="stroke:#000000;stroke-linecap:butt;stroke-width:0.5;" x="55.50625" xlink:href="#mb4656301dd" y="317.391777088"/>
      </g>
     </g>
    </g>
    <g id="ytick_16">
     <g id="line2d_45">
      <defs>
       <path d="
M0 0
L2 0" id="mb4656301dd"/>
      </defs>
      <g>
       <use style="stroke:#000000;stroke-linecap:butt;stroke-width:0.5;" x="55.50625" xlink:href="#mb4656301dd" y="306.637673442"/>
      </g>
     </g>
    </g>
    <g id="ytick_17">
     <g id="line2d_46">
      <defs>
       <path d="
M0 0
L2 0" id="mb4656301dd"/>
      </defs>
      <g>
       <use style="stroke:#000000;stroke-linecap:butt;stroke-width:0.5;" x="55.50625" xlink:href="#mb4656301dd" y="295.883569796"/>
      </g>
     </g>
    </g>
    <g id="ytick_18">
     <g id="line2d_47">
      <defs>
       <path d="
M0 0
L2 0" id="mb4656301dd"/>
      </defs>
      <g>
       <use style="stroke:#000000;stroke-linecap:butt;stroke-width:0.5;" x="55.50625" xlink:href="#mb4656301dd" y="285.12946615"/>
      </g>
     </g>
    </g>
    <g id="ytick_19">
     <g id="line2d_48">
      <defs>
       <path d="
M0 0
L2 0" id="mb4656301dd"/>
      </defs>
      <g>
       <use style="stroke:#000000;stroke-linecap:butt;stroke-width:0.5;" x="55.50625" xlink:href="#mb4656301dd" y="274.375362504"/>
      </g>
     </g>
    </g>
    <g id="ytick_20">
     <g id="line2d_49">
      <defs>
       <path d="
M0 0
L2 0" id="mb4656301dd"/>
      </defs>
      <g>
       <use style="stroke:#000000;stroke-linecap:butt;stroke-width:0.5;" x="55.50625" xlink:href="#mb4656301dd" y="263.621258858"/>
      </g>
     </g>
    </g>
    <g id="ytick_21">
     <g id="line2d_50">
      <defs>
       <path d="
M0 0
L2 0" id="mb4656301dd"/>
      </defs>
      <g>
       <use style="stroke:#000000;stroke-linecap:butt;stroke-width:0.5;" x="55.50625" xlink:href="#mb4656301dd" y="252.867155212"/>
      </g>
     </g>
    </g>
    <g id="ytick_22">
     <g id="line2d_51">
      <defs>
       <path d="
M0 0
L2 0" id="mb4656301dd"/>
      </defs>
      <g>
       <use style="stroke:#000000;stroke-linecap:butt;stroke-width:0.5;" x="55.50625" xlink:href="#mb4656301dd" y="242.113051566"/>
      </g>
     </g>
    </g>
    <g id="ytick_23">
     <g id="line2d_52">
      <defs>
       <path d="
M0 0
L2 0" id="mb4656301dd"/>
      </defs>
      <g>
       <use style="stroke:#000000;stroke-linecap:butt;stroke-width:0.5;" x="55.50625" xlink:href="#mb4656301dd" y="231.35894792"/>
      </g>
     </g>
    </g>
    <g id="ytick_24">
     <g id="line2d_53">
      <defs>
       <path d="
M0 0
L2 0" id="mb4656301dd"/>
      </defs>
      <g>
       <use style="stroke:#000000;stroke-linecap:butt;stroke-width:0.5;" x="55.50625" xlink:href="#mb4656301dd" y="220.604844274"/>
      </g>
     </g>
    </g>
    <g id="ytick_25">
     <g id="line2d_54">
      <defs>
       <path d="
M0 0
L2 0" id="mb4656301dd"/>
      </defs>
      <g>
       <use style="stroke:#000000;stroke-linecap:butt;stroke-width:0.5;" x="55.50625" xlink:href="#mb4656301dd" y="209.850740628"/>
      </g>
     </g>
    </g>
    <g id="ytick_26">
     <g id="line2d_55">
      <defs>
       <path d="
M0 0
L2 0" id="mb4656301dd"/>
      </defs>
      <g>
       <use style="stroke:#000000;stroke-linecap:butt;stroke-width:0.5;" x="55.50625" xlink:href="#mb4656301dd" y="199.096636982"/>
      </g>
     </g>
    </g>
    <g id="ytick_27">
     <g id="line2d_56">
      <defs>
       <path d="
M0 0
L2 0" id="mb4656301dd"/>
      </defs>
      <g>
       <use style="stroke:#000000;stroke-linecap:butt;stroke-width:0.5;" x="55.50625" xlink:href="#mb4656301dd" y="188.342533336"/>
      </g>
     </g>
    </g>
    <g id="ytick_28">
     <g id="line2d_57">
      <defs>
       <path d="
M0 0
L2 0" id="mb4656301dd"/>
      </defs>
      <g>
       <use style="stroke:#000000;stroke-linecap:butt;stroke-width:0.5;" x="55.50625" xlink:href="#mb4656301dd" y="177.58842969"/>
      </g>
     </g>
    </g>
    <g id="ytick_29">
     <g id="line2d_58">
      <defs>
       <path d="
M0 0
L2 0" id="mb4656301dd"/>
      </defs>
      <g>
       <use style="stroke:#000000;stroke-linecap:butt;stroke-width:0.5;" x="55.50625" xlink:href="#mb4656301dd" y="166.834326044"/>
      </g>
     </g>
    </g>
    <g id="ytick_30">
     <g id="line2d_59">
      <defs>
       <path d="
M0 0
L2 0" id="mb4656301dd"/>
      </defs>
      <g>
       <use style="stroke:#000000;stroke-linecap:butt;stroke-width:0.5;" x="55.50625" xlink:href="#mb4656301dd" y="156.080222398"/>
      </g>
     </g>
    </g>
    <g id="ytick_31">
     <g id="line2d_60">
      <defs>
       <path d="
M0 0
L2 0" id="mb4656301dd"/>
      </defs>
      <g>
       <use style="stroke:#000000;stroke-linecap:butt;stroke-width:0.5;" x="55.50625" xlink:href="#mb4656301dd" y="145.326118752"/>
      </g>
     </g>
    </g>
    <g id="ytick_32">
     <g id="line2d_61">
      <defs>
       <path d="
M0 0
L2 0" id="mb4656301dd"/>
      </defs>
      <g>
       <use style="stroke:#000000;stroke-linecap:butt;stroke-width:0.5;" x="55.50625" xlink:href="#mb4656301dd" y="134.572015106"/>
      </g>
     </g>
    </g>
    <g id="ytick_33">
     <g id="line2d_62">
      <defs>
       <path d="
M0 0
L2 0" id="mb4656301dd"/>
      </defs>
      <g>
       <use style="stroke:#000000;stroke-linecap:butt;stroke-width:0.5;" x="55.50625" xlink:href="#mb4656301dd" y="123.81791146"/>
      </g>
     </g>
    </g>
    <g id="ytick_34">
     <g id="line2d_63">
      <defs>
       <path d="
M0 0
L2 0" id="mb4656301dd"/>
      </defs>
      <g>
       <use style="stroke:#000000;stroke-linecap:butt;stroke-width:0.5;" x="55.50625" xlink:href="#mb4656301dd" y="113.063807814"/>
      </g>
     </g>
    </g>
    <g id="ytick_35">
     <g id="line2d_64">
      <defs>
       <path d="
M0 0
L2 0" id="mb4656301dd"/>
      </defs>
      <g>
       <use style="stroke:#000000;stroke-linecap:butt;stroke-width:0.5;" x="55.50625" xlink:href="#mb4656301dd" y="102.309704168"/>
      </g>
     </g>
    </g>
    <g id="ytick_36">
     <g id="line2d_65">
      <defs>
       <path d="
M0 0
L2 0" id="mb4656301dd"/>
      </defs>
      <g>
       <use style="stroke:#000000;stroke-linecap:butt;stroke-width:0.5;" x="55.50625" xlink:href="#mb4656301dd" y="91.5556005219"/>
      </g>
     </g>
    </g>
    <g id="ytick_37">
     <g id="line2d_66">
      <defs>
       <path d="
M0 0
L2 0" id="mb4656301dd"/>
      </defs>
      <g>
       <use style="stroke:#000000;stroke-linecap:butt;stroke-width:0.5;" x="55.50625" xlink:href="#mb4656301dd" y="80.8014968759"/>
      </g>
     </g>
    </g>
    <g id="ytick_38">
     <g id="line2d_67">
      <defs>
       <path d="
M0 0
L2 0" id="mb4656301dd"/>
      </defs>
      <g>
       <use style="stroke:#000000;stroke-linecap:butt;stroke-width:0.5;" x="55.50625" xlink:href="#mb4656301dd" y="70.0473932299"/>
      </g>
     </g>
    </g>
    <g id="ytick_39">
     <g id="line2d_68">
      <defs>
       <path d="
M0 0
L2 0" id="mb4656301dd"/>
      </defs>
      <g>
       <use style="stroke:#000000;stroke-linecap:butt;stroke-width:0.5;" x="55.50625" xlink:href="#mb4656301dd" y="59.293289584"/>
      </g>
     </g>
    </g>
    <g id="ytick_40">
     <g id="line2d_69">
      <defs>
       <path d="
M0 0
L2 0" id="mb4656301dd"/>
      </defs>
      <g>
       <use style="stroke:#000000;stroke-linecap:butt;stroke-width:0.5;" x="55.50625" xlink:href="#mb4656301dd" y="48.539185938"/>
      </g>
     </g>
    </g>
    <g id="ytick_41">
     <g id="line2d_70">
      <defs>
       <path d="
M0 0
L2 0" id="mb4656301dd"/>
      </defs>
      <g>
       <use style="stroke:#000000;stroke-linecap:butt;stroke-width:0.5;" x="55.50625" xlink:href="#mb4656301dd" y="37.785082292"/>
      </g>
     </g>
    </g>
    <g id="ytick_42">
     <g id="line2d_71">
      <defs>
       <path d="
M0 0
L2 0" id="mb4656301dd"/>
      </defs>
      <g>
       <use style="stroke:#000000;stroke-linecap:butt;stroke-width:0.5;" x="55.50625" xlink:href="#mb4656301dd" y="27.030978646"/>
      </g>
     </g>
    </g>
   </g>
   <g id="patch_3">
    <path d="
M65.5062 16.2769
L557.486 16.2769" style="fill:none;stroke:#000000;stroke-width:0.8;"/>
   </g>
   <g id="patch_4">
    <path d="
M55.5062 412.239
L55.5062 8.51291" style="fill:none;stroke:#000000;stroke-width:0.8;"/>
   </g>
  </g>
 </g>
 <defs>
  <clipPath id="pef49794cff">
   <rect height="403.726153846" width="491.98" x="65.50625" y="8.51291050296"/>
  </clipPath>
 </defs>
</svg>
