<?xml version="1.0" encoding="utf-8" standalone="no"?>
<!DOCTYPE svg PUBLIC "-//W3C//DTD SVG 1.1//EN"
  "http://www.w3.org/Graphics/SVG/1.1/DTD/svg11.dtd">
<!-- Created with matplotlib (http://matplotlib.sourceforge.net/) -->
<svg height="419pt" version="1.1" viewBox="0 0 564 419" width="564pt" xmlns="http://www.w3.org/2000/svg" xmlns:xlink="http://www.w3.org/1999/xlink">
 <defs>
  <style type="text/css">
*{stroke-linecap:square;stroke-linejoin:round;}
  </style>
 </defs>
 <g id="figure_1">
  <g id="patch_1">
   <path d="
M2.22045e-16 419.439
L564.686 419.439
L564.686 0
L2.22045e-16 0
z
" style="fill:#ffffff;"/>
  </g>
  <g id="axes_1">
   <g id="patch_2">
    <path d="
M65.5062 412.239
L557.486 412.239
L557.486 8.51291
L65.5062 8.51291
z
" style="fill:#ffffff;"/>
   </g>
   <g id="line2d_1">
    <path clip-path="url(#pef49794cff)" d="
M74.9674 16.2769
L85.7872 16.2769
L85.7872 16.2769
L85.7872 16.2769
L99.4185 16.2769
L99.4185 62.9935
L108.397 62.9935
L108.397 107.898
L120.458 107.898
L120.458 190.009
L124.916 190.009
L124.916 220.963
L132.075 220.963
L132.075 250.653
L135.043 250.653
L135.043 267.109
L140.141 267.109
L140.141 283.947
L146.327 283.947
L146.327 299.453
L148.106 299.453
L148.106 303.816
L152.828 303.816
L152.828 310.439
L155.567 310.439
L155.567 312.752
L156.838 312.752
L156.838 313.356
L159.212 313.356
L159.212 315.444
L162.418 315.444
L162.418 315.075
L165.28 315.075
L165.28 317.183
L166.169 317.183
L166.169 317.469
L168.673 317.469
L168.673 319.301
L170.22 319.301
L170.22 320.733
L170.961 320.733
L170.961 322.161
L173.069 322.161
L173.069 326.796
L174.387 326.796
L174.387 329.216
L176.25 329.216
L176.25 333.635
L178.547 333.635
L178.547 337.579
L179.625 337.579
L179.625 339.993
L180.148 339.993
L180.148 340.998
L181.165 340.998
L181.165 343.407
L181.659 343.407
L181.659 344.469
L182.621 344.469
L182.621 347.012
L185.738 347.012
L185.738 354.511
L186.565 354.511
L186.565 356.916
L187.76 356.916
L187.76 360.434
L188.147 360.434
L188.147 361.339
L190.001 361.339
L190.001 364.461
L190.357 364.461
L190.357 365.21
L191.396 365.21
L191.396 367.024
L192.397 367.024
L192.397 368.459
L193.044 368.459
L193.044 369.298
L193.986 369.298
L193.986 370.308
L194.896 370.308
L194.896 371.127
L195.192 371.127
L195.192 371.31
L196.627 371.31
L196.627 371.854
L199.285 371.83
L199.285 371.012
L200.761 371.012
L200.761 370.744
L202.832 370.637
L202.832 370.631
L203.917 370.631
L203.917 370.821
L205.765 370.779
L205.765 370.939
L206.547 371.038
L206.547 371.23
L206.93 371.23
L206.93 371.461
L207.119 371.461
L207.119 371.588
L208.046 371.588
L208.046 372.518
L209.291 372.518
L209.291 373.633
L209.637 373.633
L209.637 373.885
L209.808 373.885
L209.808 374.056
L210.147 374.056
L210.147 374.352
L211.3 374.352
L211.3 375.559
L211.779 375.559
L211.779 376.187
L212.56 376.187
L212.56 377.174
L212.713 377.174
L212.713 377.395
L213.017 377.395
L213.017 377.754
L213.467 377.754
L213.467 378.339
L214.055 378.339
L214.055 379.003
L214.488 379.003
L214.488 379.532
L214.913 379.532
L214.913 379.914
L215.194 379.914
L215.194 380.092
L215.608 380.092
L215.608 380.235
L216.946 380.344
L216.946 380.43
L218.344 380.466
L218.344 380.592
L219.077 380.636
L219.077 380.713
L219.907 380.794
L219.907 380.862
L221.162 380.851
L221.162 381.01
L221.604 381.01
L221.604 381.182
L222.254 381.271
L222.254 381.524
L222.783 381.631
L222.783 381.788
L223.405 381.788
L223.507 382.239
L224.41 382.239
L224.41 382.86
L224.705 382.86
L224.705 383.055
L225.188 383.055
L225.188 383.404
L225.474 383.404
L225.474 383.572
L225.757 383.572
L225.85 383.839
L226.129 383.839
L226.129 384.156
L226.588 384.156
L226.588 384.627
L226.859 384.627
L226.859 384.851
L227.128 384.851
L227.217 385.206
L227.482 385.206
L227.482 385.47
L227.744 385.47
L227.744 385.757
L227.918 385.757
L228.004 385.996
L228.517 385.996
L228.517 386.42
L228.936 386.42
L229.019 386.875
L229.185 386.875
L229.185 387.026
L229.431 387.026
L229.431 387.192
L229.675 387.192
L229.756 387.439
L230.236 387.439
L230.236 387.891
L230.394 387.891
L230.394 388.037
L230.63 388.037
L230.63 388.238
L230.941 388.238
L230.941 388.484
L231.324 388.484
L231.324 388.696
L231.627 388.696
L231.627 388.885
L232 388.885
L232 389.15
L232.296 389.15
L232.296 389.348
L232.515 389.348
L232.515 389.482
L232.733 389.482
L232.733 389.627
L233.162 389.734
L233.162 389.917
L233.375 389.917
L233.375 390.048
L233.795 390.138
L233.795 390.349
L233.933 390.349
L233.933 390.46
L234.412 390.46
L234.412 390.919
L234.749 390.919
L234.749 391.254
L235.148 391.254
L235.214 391.704
L235.541 391.704
L235.605 392.061
L235.735 392.061
L235.799 392.25
L236.119 392.25
L236.119 392.505
L236.561 392.505
L236.561 392.802
L236.748 392.877
L236.748 392.917
L237.301 392.999
L237.301 393.234
L237.604 393.341
L237.604 393.4
L238.199 393.4
L238.199 393.635
L238.55 393.688
L238.55 393.794
L238.838 393.794
L238.838 393.956
L239.067 393.956
L239.067 394.087
L239.351 394.16
L239.351 394.299
L239.519 394.299
L239.519 394.43
L239.908 394.43
L240.018 394.791
L240.183 394.791
L240.183 394.939
L240.346 394.939
L240.346 395.096
L240.562 395.096
L240.562 395.287
L240.724 395.287
L240.724 395.404
L241.043 395.404
L241.148 395.677
L241.358 395.782
L241.358 395.818
L241.618 395.818
L241.67 396.082
L241.825 396.082
L241.825 396.21
L242.08 396.21
L242.131 396.438
L242.384 396.438
L242.434 396.64
L243.03 396.721
L243.128 396.958
L243.42 397.021
L243.42 397.095
L243.756 397.149
L243.756 397.238
L244.041 397.297
L244.041 397.357
L244.556 397.357
L244.603 397.621
L245.016 397.709
L245.016 397.768
L246.737 397.874
L246.737 397.892
L248.192 397.809
L248.232 397.763
L249.028 397.747
L249.028 397.647
L250.217 397.554
L250.217 397.529
L250.292 397.53
L252.481 397.637
L252.55 397.655
L253.296 397.72
L253.362 397.793
L253.661 397.867
L253.694 397.929
L253.956 397.988
L253.956 398.071
L254.28 398.071
L254.376 398.303
L254.853 398.338
L254.948 398.44
L255.476 398.548
L255.476 398.587
L255.874 398.689
L255.874 398.712
L256.295 398.811
L256.325 398.832
L256.944 398.942
L256.944 398.965
L257.378 399.025
L257.464 399.102
L257.946 399.205
L258.03 399.291
L258.363 399.333
L258.391 399.491
L258.611 399.491
L258.638 399.645
L258.938 399.645
L259.019 399.875
L259.207 399.939
L259.287 400.036
L259.526 400.136
L259.526 400.179
L259.816 400.259
L259.816 400.318
L260.128 400.412
L260.205 400.527
L260.59 400.634
L260.59 400.668
L261.068 400.772
L261.143 400.801
L263.841 400.716
L263.909 400.667
L264.42 400.563
L264.42 400.551
L266.085 400.45
L266.085 400.433
L268.174 400.54
L268.25 400.612
L268.592 400.682
L268.686 400.752
L269.371 400.86
L269.463 400.882
L271.867 400.782
L271.917 400.741
L272.428 400.63
L272.428 400.604
L272.768 400.505
L272.849 400.462
L273.374 400.355
L273.389 400.318
L273.842 400.233
L273.95 400.175
L274.439 400.065
L274.544 400.003
L275.037 399.912
L275.111 399.884
L276.575 399.791
L276.659 399.749
L277.803 399.64
L277.843 399.634
L277.883 399.634
L278.708 399.523
L278.798 399.506
L282.999 399.432
L283.087 399.363
L283.413 399.252
L283.521 399.219
L285.711 399.309
L285.8 399.349
L286.627 399.458
L286.733 399.472
L287.439 399.579
L287.476 399.591
L287.909 399.699
L288.018 399.722
L288.745 399.824
L288.851 399.847
L289.693 399.951
L289.795 399.993
L290.426 400.089
L290.451 400.107
L291.188 400.217
L291.237 400.237
L291.811 400.348
L291.921 400.356
L292.78 400.46
L292.878 400.503
L293.3 400.61
L293.396 400.667
L293.788 400.751
L293.883 400.819
L294.253 400.924
L294.332 400.968
L294.632 401.065
L294.738 401.123
L295.061 401.232
L295.166 401.309
L295.457 401.417
L295.477 401.442
L295.799 401.544
L295.9 401.605
L296.27 401.713
L296.35 401.786
L296.562 401.879
L296.661 401.956
L296.923 402.057
L297.021 402.113
L297.369 402.219
L297.478 402.254
L297.914 402.343
L297.996 402.393
L298.369 402.503
L298.473 402.542
L298.894 402.648
L298.985 402.685
L299.344 402.795
L299.439 402.826
L299.828 402.933
L299.91 402.963
L300.291 403.069
L300.377 403.104
L300.989 403.213
L301.022 403.226
L301.487 403.33
L301.57 403.379
L301.864 403.485
L301.945 403.52
L302.347 403.613
L302.431 403.659
L302.727 403.769
L302.837 403.817
L303.215 403.921
L303.292 403.945
L303.775 404.047
L303.881 404.091
L304.857 404.199
L304.963 404.217
L305.535 404.323
L305.634 404.359
L306.284 404.468
L306.394 404.475
L307.548 404.366
L307.644 404.324
L308.098 404.214
L308.196 404.177
L308.833 404.068
L308.921 404.047
L309.691 403.938
L309.792 403.924
L311.156 403.816
L311.248 403.801
L311.921 403.696
L312.021 403.668
L312.636 403.558
L312.733 403.531
L313.123 403.426
L313.229 403.395
L313.723 403.286
L313.817 403.25
L314.126 403.142
L314.236 403.093
L314.554 402.984
L314.661 402.92
L315.001 402.81
L315.11 402.768
L315.658 402.659
L315.729 402.645
L316.397 402.535
L316.491 402.515
L317.168 402.404
L317.259 402.39
L318.253 402.28
L318.358 402.26
L319.377 402.152
L319.487 402.134
L321.217 402.023
L321.327 402.006
L321.854 401.897
L321.956 401.851
L322.333 401.742
L322.441 401.71
L322.819 401.599
L322.923 401.57
L323.478 401.459
L323.586 401.449
L325.045 401.341
L325.153 401.317
L326.494 401.206
L326.54 401.2
L327.252 401.095
L327.321 401.047
L327.831 400.949
L327.91 400.914
L329.292 400.803
L329.385 400.791
L330.269 400.681
L330.37 400.648
L332.724 400.757
L332.724 400.776
L333.533 400.884
L333.619 400.892
L334.902 400.992
L335.001 401.009
L336.072 401.112
L336.072 401.128
L337.05 401.235
L337.159 401.268
L338.722 401.374
L338.826 401.39
L339.804 401.499
L339.907 401.522
L340.895 401.632
L340.985 401.643
L341.996 401.74
L342.076 401.776
L342.668 401.877
L342.756 401.907
L344.524 402.018
L344.524 402.018
L344.628 402.018
L344.628 402.018
L344.72 402.015
L352.584 401.905
L352.693 401.862
L354.75 401.952
L354.848 402.002
L355.243 402.095
L355.338 402.159
L355.73 402.261
L355.833 402.321
L356.516 402.426
L356.619 402.448
L357.503 402.551
L357.6 402.584
L358.58 402.691
L358.682 402.709
L360.254 402.603
L360.353 402.579
L361.334 402.47
L361.441 402.447
L362.714 402.346
L362.808 402.319
L363.499 402.217
L363.597 402.189
L364.481 402.089
L364.581 402.052
L365.269 401.948
L365.369 401.911
L366.25 401.8
L366.347 401.764
L367.038 401.66
L367.136 401.635
L368.215 401.528
L368.313 401.511
L369.101 401.408
L369.199 401.379
L369.986 401.283
L370.087 401.242
L370.673 401.146
L370.771 401.093
L371.164 401.005
L371.265 400.955
L371.656 400.873
L371.754 400.811
L372.247 400.714
L372.347 400.664
L372.836 400.565
L372.936 400.51
L373.425 400.411
L373.527 400.372
L374.311 400.264
L374.408 400.245
L376.965 400.139
L377.063 400.128
L386.403 400.021
L386.503 400.013
L387.975 399.904
L388.076 399.894
L389.548 399.796
L389.647 399.768
L391.318 399.659
L391.42 399.645
L392.694 399.534
L392.793 399.513
L393.875 399.407
L393.972 399.376
L394.759 399.268
L394.86 399.236
L395.941 399.126
L396.037 399.109
L397.118 399.011
L397.218 398.977
L398.003 398.872
L398.104 398.839
L398.692 398.735
L398.792 398.681
L399.38 398.575
L399.478 398.54
L400.068 398.436
L400.166 398.386
L400.657 398.293
L400.756 398.258
L401.837 398.155
L401.935 398.139
L405.18 398.242
L405.279 398.265
L406.458 398.368
L406.557 398.397
L407.244 398.497
L407.343 398.528
L407.933 398.62
L408.031 398.659
L408.62 398.755
L408.719 398.801
L409.211 398.893
L409.309 398.939
L409.801 399.034
L409.898 399.082
L410.685 399.19
L410.784 399.218
L415.503 399.112
L415.6 399.086
L416.388 398.986
L416.485 398.956
L417.47 398.852
L417.567 398.831
L422.286 398.725
L422.384 398.712
L424.154 398.605
L424.252 398.596
L425.629 398.494
L425.727 398.461
L426.317 398.364
L426.415 398.313
L426.906 398.209
L427.005 398.16
L427.594 398.056
L427.693 398.016
L428.283 397.911
L428.381 397.872
L428.971 397.768
L429.069 397.73
L429.659 397.632
L429.757 397.603
L430.642 397.503
L430.741 397.478
L432.117 397.373
L432.215 397.354
L433.1 397.244
L433.199 397.212
L433.69 397.124
L433.788 397.074
L434.28 396.974
L434.378 396.927
L434.968 396.825
L435.067 396.784
L435.656 396.676
L435.755 396.634
L436.442 396.528
L436.541 396.485
L437.032 396.39
L437.131 396.349
L437.917 396.241
L438.015 396.21
L438.802 396.102
L438.9 396.071
L439.883 395.967
L439.982 395.934
L440.866 395.824
L440.965 395.794
L441.948 395.69
L442.046 395.675
L443.422 395.564
L443.521 395.539
L444.505 395.433
L444.602 395.412
L446.372 395.304
L446.47 395.286
L447.748 395.175
L447.846 395.157
L458.071 395.053
L458.169 395.029
L459.054 394.924
L459.152 394.908
L466.624 394.802
L466.722 394.79
L472.522 394.684
L472.621 394.67
L473.702 394.562
L473.8 394.532
L474.489 394.422
L474.587 394.385
L475.275 394.287
L475.373 394.255
L476.16 394.146
L476.258 394.116
L476.946 394.017
L477.045 393.978
L477.733 393.875
L477.831 393.839
L478.519 393.74
L478.618 393.717
L479.502 393.613
L479.601 393.59
L480.584 393.488
L480.682 393.468
L481.96 393.364
L482.059 393.341
L482.845 393.239
L482.943 393.208
L483.828 393.103
L483.926 393.082
L484.713 392.981
L484.811 392.951
L485.893 392.849
L485.991 392.83
L486.876 392.724
L486.974 392.698
L487.957 392.592
L488.055 392.573
L489.334 392.464
L489.432 392.441
L490.317 392.335
L490.415 392.308
L491.201 392.206
L491.3 392.18
L491.988 392.082
L492.086 392.054
L493.069 391.953
L493.168 391.932
L494.347 391.826
L494.446 391.802
L495.724 391.694
L495.822 391.685
L497.198 391.581
L497.297 391.558
L499.263 391.448
L499.361 391.433
L500.639 391.325
L500.738 391.304
L502.212 391.196
L502.311 391.185
L507.226 391.077
L507.324 391.069
L508.996 390.965
L509.094 390.946
L510.077 390.84
L510.175 390.823
L511.552 390.713
L511.65 390.695
L513.026 390.587
L513.125 390.578
L514.403 390.468
L514.501 390.448
L515.681 390.338
L515.779 390.313
L516.762 390.202
L516.861 390.174
L517.844 390.072
L517.942 390.052
L520.007 389.944
L520.105 389.936
L522.268 389.829
L522.366 389.819
L524.922 389.711
L525.02 389.704
L527.675 389.598
L527.773 389.585
L530.624 389.475
L530.722 389.471
L536.523 389.362
L536.621 389.346
L538.292 389.239
L538.391 389.22
L539.472 389.114
L539.57 389.089
L540.357 388.992
L540.455 388.963
L541.143 388.868
L541.242 388.836
L541.93 388.734
L542.028 388.701
L542.815 388.594
L542.913 388.56
L543.601 388.465
L543.699 388.429
L544.388 388.322
L544.486 388.286
L545.076 388.188
L545.174 388.15
L545.862 388.041
L545.961 388.003
L546.649 387.895
L546.747 387.861
L547.534 387.759
L547.632 387.728
L548.025 387.683
L548.025 387.667" style="fill:none;stroke:#0000ff;stroke-width:5.0;"/>
   </g>
   <g id="matplotlib.axis_1">
    <g id="xtick_1">
     <g id="line2d_2">
      <path d="
M189.895 412.239
L189.895 8.51291" style="fill:none;stroke:#000000;stroke-dasharray:1.000000,3.000000;stroke-dashoffset:0.0;stroke-linecap:butt;stroke-width:0.5;"/>
     </g>
     <g id="line2d_3">
      <defs>
       <path d="
M0 0
L0 -4" id="m3fbe6c24f1"/>
      </defs>
      <g>
       <use style="stroke:#000000;stroke-linecap:butt;stroke-width:0.5;" x="189.895397706" xlink:href="#m3fbe6c24f1" y="16.276875"/>
      </g>
     </g>
     <g id="text_1">
      <!-- 5 -->
      <defs>
       <path d="
M10.7969 72.9062
L49.5156 72.9062
L49.5156 64.5938
L19.8281 64.5938
L19.8281 46.7344
Q21.9688 47.4688 24.1094 47.8281
Q26.2656 48.1875 28.4219 48.1875
Q40.625 48.1875 47.75 41.5
Q54.8906 34.8125 54.8906 23.3906
Q54.8906 11.625 47.5625 5.09375
Q40.2344 -1.42188 26.9062 -1.42188
Q22.3125 -1.42188 17.5469 -0.640625
Q12.7969 0.140625 7.71875 1.70312
L7.71875 11.625
Q12.1094 9.23438 16.7969 8.0625
Q21.4844 6.89062 26.7031 6.89062
Q35.1562 6.89062 40.0781 11.3281
Q45.0156 15.7656 45.0156 23.3906
Q45.0156 31 40.0781 35.4375
Q35.1562 39.8906 26.7031 39.8906
Q22.75 39.8906 18.8125 39.0156
Q14.8906 38.1406 10.7969 36.2812
z
" id="BitstreamVeraSans-Roman-35"/>
      </defs>
      <g transform="translate(184.234772706 37.774375)scale(0.24 -0.24)">
       <use xlink:href="#BitstreamVeraSans-Roman-35"/>
      </g>
     </g>
    </g>
    <g id="xtick_2">
     <g id="line2d_4">
      <path d="
M323.32 412.239
L323.32 8.51291" style="fill:none;stroke:#000000;stroke-dasharray:1.000000,3.000000;stroke-dashoffset:0.0;stroke-linecap:butt;stroke-width:0.5;"/>
     </g>
     <g id="line2d_5">
      <defs>
       <path d="
M0 0
L0 -4" id="m3fbe6c24f1"/>
      </defs>
      <g>
       <use style="stroke:#000000;stroke-linecap:butt;stroke-width:0.5;" x="323.319963946" xlink:href="#m3fbe6c24f1" y="16.276875"/>
      </g>
     </g>
     <g id="text_2">
      <!-- 10 -->
      <defs>
       <path d="
M31.7812 66.4062
Q24.1719 66.4062 20.3281 58.9062
Q16.5 51.4219 16.5 36.375
Q16.5 21.3906 20.3281 13.8906
Q24.1719 6.39062 31.7812 6.39062
Q39.4531 6.39062 43.2812 13.8906
Q47.125 21.3906 47.125 36.375
Q47.125 51.4219 43.2812 58.9062
Q39.4531 66.4062 31.7812 66.4062
M31.7812 74.2188
Q44.0469 74.2188 50.5156 64.5156
Q56.9844 54.8281 56.9844 36.375
Q56.9844 17.9688 50.5156 8.26562
Q44.0469 -1.42188 31.7812 -1.42188
Q19.5312 -1.42188 13.0625 8.26562
Q6.59375 17.9688 6.59375 36.375
Q6.59375 54.8281 13.0625 64.5156
Q19.5312 74.2188 31.7812 74.2188" id="BitstreamVeraSans-Roman-30"/>
       <path d="
M12.4062 8.29688
L28.5156 8.29688
L28.5156 63.9219
L10.9844 60.4062
L10.9844 69.3906
L28.4219 72.9062
L38.2812 72.9062
L38.2812 8.29688
L54.3906 8.29688
L54.3906 0
L12.4062 0
z
" id="BitstreamVeraSans-Roman-31"/>
      </defs>
      <g transform="translate(310.164963946 38.089375)scale(0.24 -0.24)">
       <use xlink:href="#BitstreamVeraSans-Roman-31"/>
       <use x="63.623046875" xlink:href="#BitstreamVeraSans-Roman-30"/>
      </g>
     </g>
    </g>
    <g id="xtick_3">
     <g id="line2d_6">
      <path d="
M456.745 412.239
L456.745 8.51291" style="fill:none;stroke:#000000;stroke-dasharray:1.000000,3.000000;stroke-dashoffset:0.0;stroke-linecap:butt;stroke-width:0.5;"/>
     </g>
     <g id="line2d_7">
      <defs>
       <path d="
M0 0
L0 -4" id="m3fbe6c24f1"/>
      </defs>
      <g>
       <use style="stroke:#000000;stroke-linecap:butt;stroke-width:0.5;" x="456.744530187" xlink:href="#m3fbe6c24f1" y="16.276875"/>
      </g>
     </g>
     <g id="text_3">
      <!-- 15 -->
      <g transform="translate(443.840780187 37.774375)scale(0.24 -0.24)">
       <use xlink:href="#BitstreamVeraSans-Roman-31"/>
       <use x="63.623046875" xlink:href="#BitstreamVeraSans-Roman-35"/>
      </g>
     </g>
    </g>
    <g id="xtick_4">
     <g id="line2d_8">
      <defs>
       <path d="
M0 0
L0 -2" id="mf0ff38ea95"/>
      </defs>
      <g>
       <use style="stroke:#000000;stroke-linecap:butt;stroke-width:0.5;" x="83.1557447129" xlink:href="#mf0ff38ea95" y="16.276875"/>
      </g>
     </g>
    </g>
    <g id="xtick_5">
     <g id="line2d_9">
      <defs>
       <path d="
M0 0
L0 -2" id="mf0ff38ea95"/>
      </defs>
      <g>
       <use style="stroke:#000000;stroke-linecap:butt;stroke-width:0.5;" x="109.840657961" xlink:href="#mf0ff38ea95" y="16.276875"/>
      </g>
     </g>
    </g>
    <g id="xtick_6">
     <g id="line2d_10">
      <defs>
       <path d="
M0 0
L0 -2" id="mf0ff38ea95"/>
      </defs>
      <g>
       <use style="stroke:#000000;stroke-linecap:butt;stroke-width:0.5;" x="136.525571209" xlink:href="#mf0ff38ea95" y="16.276875"/>
      </g>
     </g>
    </g>
    <g id="xtick_7">
     <g id="line2d_11">
      <defs>
       <path d="
M0 0
L0 -2" id="mf0ff38ea95"/>
      </defs>
      <g>
       <use style="stroke:#000000;stroke-linecap:butt;stroke-width:0.5;" x="163.210484457" xlink:href="#mf0ff38ea95" y="16.276875"/>
      </g>
     </g>
    </g>
    <g id="xtick_8">
     <g id="line2d_12">
      <defs>
       <path d="
M0 0
L0 -2" id="mf0ff38ea95"/>
      </defs>
      <g>
       <use style="stroke:#000000;stroke-linecap:butt;stroke-width:0.5;" x="216.580310954" xlink:href="#mf0ff38ea95" y="16.276875"/>
      </g>
     </g>
    </g>
    <g id="xtick_9">
     <g id="line2d_13">
      <defs>
       <path d="
M0 0
L0 -2" id="mf0ff38ea95"/>
      </defs>
      <g>
       <use style="stroke:#000000;stroke-linecap:butt;stroke-width:0.5;" x="243.265224202" xlink:href="#mf0ff38ea95" y="16.276875"/>
      </g>
     </g>
    </g>
    <g id="xtick_10">
     <g id="line2d_14">
      <defs>
       <path d="
M0 0
L0 -2" id="mf0ff38ea95"/>
      </defs>
      <g>
       <use style="stroke:#000000;stroke-linecap:butt;stroke-width:0.5;" x="269.95013745" xlink:href="#mf0ff38ea95" y="16.276875"/>
      </g>
     </g>
    </g>
    <g id="xtick_11">
     <g id="line2d_15">
      <defs>
       <path d="
M0 0
L0 -2" id="mf0ff38ea95"/>
      </defs>
      <g>
       <use style="stroke:#000000;stroke-linecap:butt;stroke-width:0.5;" x="296.635050698" xlink:href="#mf0ff38ea95" y="16.276875"/>
      </g>
     </g>
    </g>
    <g id="xtick_12">
     <g id="line2d_16">
      <defs>
       <path d="
M0 0
L0 -2" id="mf0ff38ea95"/>
      </defs>
      <g>
       <use style="stroke:#000000;stroke-linecap:butt;stroke-width:0.5;" x="350.004877195" xlink:href="#mf0ff38ea95" y="16.276875"/>
      </g>
     </g>
    </g>
    <g id="xtick_13">
     <g id="line2d_17">
      <defs>
       <path d="
M0 0
L0 -2" id="mf0ff38ea95"/>
      </defs>
      <g>
       <use style="stroke:#000000;stroke-linecap:butt;stroke-width:0.5;" x="376.689790443" xlink:href="#mf0ff38ea95" y="16.276875"/>
      </g>
     </g>
    </g>
    <g id="xtick_14">
     <g id="line2d_18">
      <defs>
       <path d="
M0 0
L0 -2" id="mf0ff38ea95"/>
      </defs>
      <g>
       <use style="stroke:#000000;stroke-linecap:butt;stroke-width:0.5;" x="403.374703691" xlink:href="#mf0ff38ea95" y="16.276875"/>
      </g>
     </g>
    </g>
    <g id="xtick_15">
     <g id="line2d_19">
      <defs>
       <path d="
M0 0
L0 -2" id="mf0ff38ea95"/>
      </defs>
      <g>
       <use style="stroke:#000000;stroke-linecap:butt;stroke-width:0.5;" x="430.059616939" xlink:href="#mf0ff38ea95" y="16.276875"/>
      </g>
     </g>
    </g>
    <g id="xtick_16">
     <g id="line2d_20">
      <defs>
       <path d="
M0 0
L0 -2" id="mf0ff38ea95"/>
      </defs>
      <g>
       <use style="stroke:#000000;stroke-linecap:butt;stroke-width:0.5;" x="483.429443435" xlink:href="#mf0ff38ea95" y="16.276875"/>
      </g>
     </g>
    </g>
    <g id="xtick_17">
     <g id="line2d_21">
      <defs>
       <path d="
M0 0
L0 -2" id="mf0ff38ea95"/>
      </defs>
      <g>
       <use style="stroke:#000000;stroke-linecap:butt;stroke-width:0.5;" x="510.114356683" xlink:href="#mf0ff38ea95" y="16.276875"/>
      </g>
     </g>
    </g>
   </g>
   <g id="matplotlib.axis_2">
    <g id="ytick_1">
     <g id="line2d_22">
      <path d="
M65.5062 392.671
L557.486 392.671" style="fill:none;stroke:#000000;stroke-dasharray:1.000000,3.000000;stroke-dashoffset:0.0;stroke-linecap:butt;stroke-width:0.5;"/>
     </g>
     <g id="line2d_23">
      <defs>
       <path d="
M0 0
L4 0" id="mc91e532072"/>
      </defs>
      <g>
       <use style="stroke:#000000;stroke-linecap:butt;stroke-width:0.5;" x="55.50625" xlink:href="#mc91e532072" y="392.67050261"/>
      </g>
     </g>
     <g id="text_4">
      <!-- -0.7 -->
      <defs>
       <path d="
M10.6875 12.4062
L21 12.4062
L21 0
L10.6875 0
z
" id="BitstreamVeraSans-Roman-2e"/>
       <path d="
M4.89062 31.3906
L31.2031 31.3906
L31.2031 23.3906
L4.89062 23.3906
z
" id="BitstreamVeraSans-Roman-2d"/>
       <path d="
M8.20312 72.9062
L55.0781 72.9062
L55.0781 68.7031
L28.6094 0
L18.3125 0
L43.2188 64.5938
L8.20312 64.5938
z
" id="BitstreamVeraSans-Roman-37"/>
      </defs>
      <g transform="translate(7.905 401.40612761)scale(0.24 -0.24)">
       <use xlink:href="#BitstreamVeraSans-Roman-2d"/>
       <use x="36.083984375" xlink:href="#BitstreamVeraSans-Roman-30"/>
       <use x="99.70703125" xlink:href="#BitstreamVeraSans-Roman-2e"/>
       <use x="131.494140625" xlink:href="#BitstreamVeraSans-Roman-37"/>
      </g>
     </g>
    </g>
    <g id="ytick_2">
     <g id="line2d_24">
      <path d="
M65.5062 338.9
L557.486 338.9" style="fill:none;stroke:#000000;stroke-dasharray:1.000000,3.000000;stroke-dashoffset:0.0;stroke-linecap:butt;stroke-width:0.5;"/>
     </g>
     <g id="line2d_25">
      <defs>
       <path d="
M0 0
L4 0" id="mc91e532072"/>
      </defs>
      <g>
       <use style="stroke:#000000;stroke-linecap:butt;stroke-width:0.5;" x="55.50625" xlink:href="#mc91e532072" y="338.89998438"/>
      </g>
     </g>
     <g id="text_5">
      <!-- -0.6 -->
      <defs>
       <path d="
M33.0156 40.375
Q26.375 40.375 22.4844 35.8281
Q18.6094 31.2969 18.6094 23.3906
Q18.6094 15.5312 22.4844 10.9531
Q26.375 6.39062 33.0156 6.39062
Q39.6562 6.39062 43.5312 10.9531
Q47.4062 15.5312 47.4062 23.3906
Q47.4062 31.2969 43.5312 35.8281
Q39.6562 40.375 33.0156 40.375
M52.5938 71.2969
L52.5938 62.3125
Q48.875 64.0625 45.0938 64.9844
Q41.3125 65.9219 37.5938 65.9219
Q27.8281 65.9219 22.6719 59.3281
Q17.5312 52.7344 16.7969 39.4062
Q19.6719 43.6562 24.0156 45.9219
Q28.375 48.1875 33.5938 48.1875
Q44.5781 48.1875 50.9531 41.5156
Q57.3281 34.8594 57.3281 23.3906
Q57.3281 12.1562 50.6875 5.35938
Q44.0469 -1.42188 33.0156 -1.42188
Q20.3594 -1.42188 13.6719 8.26562
Q6.98438 17.9688 6.98438 36.375
Q6.98438 53.6562 15.1875 63.9375
Q23.3906 74.2188 37.2031 74.2188
Q40.9219 74.2188 44.7031 73.4844
Q48.4844 72.75 52.5938 71.2969" id="BitstreamVeraSans-Roman-36"/>
      </defs>
      <g transform="translate(7.365 347.63560938)scale(0.24 -0.24)">
       <use xlink:href="#BitstreamVeraSans-Roman-2d"/>
       <use x="36.083984375" xlink:href="#BitstreamVeraSans-Roman-30"/>
       <use x="99.70703125" xlink:href="#BitstreamVeraSans-Roman-2e"/>
       <use x="131.494140625" xlink:href="#BitstreamVeraSans-Roman-36"/>
      </g>
     </g>
    </g>
    <g id="ytick_3">
     <g id="line2d_26">
      <path d="
M65.5062 285.129
L557.486 285.129" style="fill:none;stroke:#000000;stroke-dasharray:1.000000,3.000000;stroke-dashoffset:0.0;stroke-linecap:butt;stroke-width:0.5;"/>
     </g>
     <g id="line2d_27">
      <defs>
       <path d="
M0 0
L4 0" id="mc91e532072"/>
      </defs>
      <g>
       <use style="stroke:#000000;stroke-linecap:butt;stroke-width:0.5;" x="55.50625" xlink:href="#mc91e532072" y="285.12946615"/>
      </g>
     </g>
     <g id="text_6">
      <!-- -0.5 -->
      <g transform="translate(7.95 293.86509115)scale(0.24 -0.24)">
       <use xlink:href="#BitstreamVeraSans-Roman-2d"/>
       <use x="36.083984375" xlink:href="#BitstreamVeraSans-Roman-30"/>
       <use x="99.70703125" xlink:href="#BitstreamVeraSans-Roman-2e"/>
       <use x="131.494140625" xlink:href="#BitstreamVeraSans-Roman-35"/>
      </g>
     </g>
    </g>
    <g id="ytick_4">
     <g id="line2d_28">
      <path d="
M65.5062 231.359
L557.486 231.359" style="fill:none;stroke:#000000;stroke-dasharray:1.000000,3.000000;stroke-dashoffset:0.0;stroke-linecap:butt;stroke-width:0.5;"/>
     </g>
     <g id="line2d_29">
      <defs>
       <path d="
M0 0
L4 0" id="mc91e532072"/>
      </defs>
      <g>
       <use style="stroke:#000000;stroke-linecap:butt;stroke-width:0.5;" x="55.50625" xlink:href="#mc91e532072" y="231.35894792"/>
      </g>
     </g>
     <g id="text_7">
      <!-- -0.4 -->
      <defs>
       <path d="
M37.7969 64.3125
L12.8906 25.3906
L37.7969 25.3906
z

M35.2031 72.9062
L47.6094 72.9062
L47.6094 25.3906
L58.0156 25.3906
L58.0156 17.1875
L47.6094 17.1875
L47.6094 0
L37.7969 0
L37.7969 17.1875
L4.89062 17.1875
L4.89062 26.7031
z
" id="BitstreamVeraSans-Roman-34"/>
      </defs>
      <g transform="translate(7.2 240.09457292)scale(0.24 -0.24)">
       <use xlink:href="#BitstreamVeraSans-Roman-2d"/>
       <use x="36.083984375" xlink:href="#BitstreamVeraSans-Roman-30"/>
       <use x="99.70703125" xlink:href="#BitstreamVeraSans-Roman-2e"/>
       <use x="131.494140625" xlink:href="#BitstreamVeraSans-Roman-34"/>
      </g>
     </g>
    </g>
    <g id="ytick_5">
     <g id="line2d_30">
      <path d="
M65.5062 177.588
L557.486 177.588" style="fill:none;stroke:#000000;stroke-dasharray:1.000000,3.000000;stroke-dashoffset:0.0;stroke-linecap:butt;stroke-width:0.5;"/>
     </g>
     <g id="line2d_31">
      <defs>
       <path d="
M0 0
L4 0" id="mc91e532072"/>
      </defs>
      <g>
       <use style="stroke:#000000;stroke-linecap:butt;stroke-width:0.5;" x="55.50625" xlink:href="#mc91e532072" y="177.58842969"/>
      </g>
     </g>
     <g id="text_8">
      <!-- -0.3 -->
      <defs>
       <path d="
M40.5781 39.3125
Q47.6562 37.7969 51.625 33
Q55.6094 28.2188 55.6094 21.1875
Q55.6094 10.4062 48.1875 4.48438
Q40.7656 -1.42188 27.0938 -1.42188
Q22.5156 -1.42188 17.6562 -0.515625
Q12.7969 0.390625 7.625 2.20312
L7.625 11.7188
Q11.7188 9.32812 16.5938 8.10938
Q21.4844 6.89062 26.8125 6.89062
Q36.0781 6.89062 40.9375 10.5469
Q45.7969 14.2031 45.7969 21.1875
Q45.7969 27.6406 41.2812 31.2656
Q36.7656 34.9062 28.7188 34.9062
L20.2188 34.9062
L20.2188 43.0156
L29.1094 43.0156
Q36.375 43.0156 40.2344 45.9219
Q44.0938 48.8281 44.0938 54.2969
Q44.0938 59.9062 40.1094 62.9062
Q36.1406 65.9219 28.7188 65.9219
Q24.6562 65.9219 20.0156 65.0312
Q15.375 64.1562 9.8125 62.3125
L9.8125 71.0938
Q15.4375 72.6562 20.3438 73.4375
Q25.25 74.2188 29.5938 74.2188
Q40.8281 74.2188 47.3594 69.1094
Q53.9062 64.0156 53.9062 55.3281
Q53.9062 49.2656 50.4375 45.0938
Q46.9688 40.9219 40.5781 39.3125" id="BitstreamVeraSans-Roman-33"/>
      </defs>
      <g transform="translate(7.7775 186.32405469)scale(0.24 -0.24)">
       <use xlink:href="#BitstreamVeraSans-Roman-2d"/>
       <use x="36.083984375" xlink:href="#BitstreamVeraSans-Roman-30"/>
       <use x="99.70703125" xlink:href="#BitstreamVeraSans-Roman-2e"/>
       <use x="131.494140625" xlink:href="#BitstreamVeraSans-Roman-33"/>
      </g>
     </g>
    </g>
    <g id="ytick_6">
     <g id="line2d_32">
      <path d="
M65.5062 123.818
L557.486 123.818" style="fill:none;stroke:#000000;stroke-dasharray:1.000000,3.000000;stroke-dashoffset:0.0;stroke-linecap:butt;stroke-width:0.5;"/>
     </g>
     <g id="line2d_33">
      <defs>
       <path d="
M0 0
L4 0" id="mc91e532072"/>
      </defs>
      <g>
       <use style="stroke:#000000;stroke-linecap:butt;stroke-width:0.5;" x="55.50625" xlink:href="#mc91e532072" y="123.81791146"/>
      </g>
     </g>
     <g id="text_9">
      <!-- -0.2 -->
      <defs>
       <path d="
M19.1875 8.29688
L53.6094 8.29688
L53.6094 0
L7.32812 0
L7.32812 8.29688
Q12.9375 14.1094 22.625 23.8906
Q32.3281 33.6875 34.8125 36.5312
Q39.5469 41.8438 41.4219 45.5312
Q43.3125 49.2188 43.3125 52.7812
Q43.3125 58.5938 39.2344 62.25
Q35.1562 65.9219 28.6094 65.9219
Q23.9688 65.9219 18.8125 64.3125
Q13.6719 62.7031 7.8125 59.4219
L7.8125 69.3906
Q13.7656 71.7812 18.9375 73
Q24.125 74.2188 28.4219 74.2188
Q39.75 74.2188 46.4844 68.5469
Q53.2188 62.8906 53.2188 53.4219
Q53.2188 48.9219 51.5312 44.8906
Q49.8594 40.875 45.4062 35.4062
Q44.1875 33.9844 37.6406 27.2188
Q31.1094 20.4531 19.1875 8.29688" id="BitstreamVeraSans-Roman-32"/>
      </defs>
      <g transform="translate(8.2575 132.55353646)scale(0.24 -0.24)">
       <use xlink:href="#BitstreamVeraSans-Roman-2d"/>
       <use x="36.083984375" xlink:href="#BitstreamVeraSans-Roman-30"/>
       <use x="99.70703125" xlink:href="#BitstreamVeraSans-Roman-2e"/>
       <use x="131.494140625" xlink:href="#BitstreamVeraSans-Roman-32"/>
      </g>
     </g>
    </g>
    <g id="ytick_7">
     <g id="line2d_34">
      <path d="
M65.5062 70.0474
L557.486 70.0474" style="fill:none;stroke:#000000;stroke-dasharray:1.000000,3.000000;stroke-dashoffset:0.0;stroke-linecap:butt;stroke-width:0.5;"/>
     </g>
     <g id="line2d_35">
      <defs>
       <path d="
M0 0
L4 0" id="mc91e532072"/>
      </defs>
      <g>
       <use style="stroke:#000000;stroke-linecap:butt;stroke-width:0.5;" x="55.50625" xlink:href="#mc91e532072" y="70.0473932299"/>
      </g>
     </g>
     <g id="text_10">
      <!-- -0.1 -->
      <g transform="translate(8.07 78.7830182299)scale(0.24 -0.24)">
       <use xlink:href="#BitstreamVeraSans-Roman-2d"/>
       <use x="36.083984375" xlink:href="#BitstreamVeraSans-Roman-30"/>
       <use x="99.70703125" xlink:href="#BitstreamVeraSans-Roman-2e"/>
       <use x="131.494140625" xlink:href="#BitstreamVeraSans-Roman-31"/>
      </g>
     </g>
    </g>
    <g id="ytick_8">
     <g id="line2d_36">
      <path d="
M65.5062 16.2769
L557.486 16.2769" style="fill:none;stroke:#000000;stroke-dasharray:1.000000,3.000000;stroke-dashoffset:0.0;stroke-linecap:butt;stroke-width:0.5;"/>
     </g>
     <g id="line2d_37">
      <defs>
       <path d="
M0 0
L4 0" id="mc91e532072"/>
      </defs>
      <g>
       <use style="stroke:#000000;stroke-linecap:butt;stroke-width:0.5;" x="55.50625" xlink:href="#mc91e532072" y="16.276875"/>
      </g>
     </g>
     <g id="text_11">
      <!-- 0 -->
      <g transform="translate(39.4125 25.0125)scale(0.24 -0.24)">
       <use xlink:href="#BitstreamVeraSans-Roman-30"/>
      </g>
     </g>
    </g>
    <g id="ytick_9">
     <g id="line2d_38">
      <defs>
       <path d="
M0 0
L2 0" id="m0789224b6b"/>
      </defs>
      <g>
       <use style="stroke:#000000;stroke-linecap:butt;stroke-width:0.5;" x="55.50625" xlink:href="#m0789224b6b" y="403.424606256"/>
      </g>
     </g>
    </g>
    <g id="ytick_10">
     <g id="line2d_39">
      <defs>
       <path d="
M0 0
L2 0" id="m0789224b6b"/>
      </defs>
      <g>
       <use style="stroke:#000000;stroke-linecap:butt;stroke-width:0.5;" x="55.50625" xlink:href="#m0789224b6b" y="381.916398964"/>
      </g>
     </g>
    </g>
    <g id="ytick_11">
     <g id="line2d_40">
      <defs>
       <path d="
M0 0
L2 0" id="m0789224b6b"/>
      </defs>
      <g>
       <use style="stroke:#000000;stroke-linecap:butt;stroke-width:0.5;" x="55.50625" xlink:href="#m0789224b6b" y="371.162295318"/>
      </g>
     </g>
    </g>
    <g id="ytick_12">
     <g id="line2d_41">
      <defs>
       <path d="
M0 0
L2 0" id="m0789224b6b"/>
      </defs>
      <g>
       <use style="stroke:#000000;stroke-linecap:butt;stroke-width:0.5;" x="55.50625" xlink:href="#m0789224b6b" y="360.408191672"/>
      </g>
     </g>
    </g>
    <g id="ytick_13">
     <g id="line2d_42">
      <defs>
       <path d="
M0 0
L2 0" id="m0789224b6b"/>
      </defs>
      <g>
       <use style="stroke:#000000;stroke-linecap:butt;stroke-width:0.5;" x="55.50625" xlink:href="#m0789224b6b" y="349.654088026"/>
      </g>
     </g>
    </g>
    <g id="ytick_14">
     <g id="line2d_43">
      <defs>
       <path d="
M0 0
L2 0" id="m0789224b6b"/>
      </defs>
      <g>
       <use style="stroke:#000000;stroke-linecap:butt;stroke-width:0.5;" x="55.50625" xlink:href="#m0789224b6b" y="328.145880734"/>
      </g>
     </g>
    </g>
    <g id="ytick_15">
     <g id="line2d_44">
      <defs>
       <path d="
M0 0
L2 0" id="m0789224b6b"/>
      </defs>
      <g>
       <use style="stroke:#000000;stroke-linecap:butt;stroke-width:0.5;" x="55.50625" xlink:href="#m0789224b6b" y="317.391777088"/>
      </g>
     </g>
    </g>
    <g id="ytick_16">
     <g id="line2d_45">
      <defs>
       <path d="
M0 0
L2 0" id="m0789224b6b"/>
      </defs>
      <g>
       <use style="stroke:#000000;stroke-linecap:butt;stroke-width:0.5;" x="55.50625" xlink:href="#m0789224b6b" y="306.637673442"/>
      </g>
     </g>
    </g>
    <g id="ytick_17">
     <g id="line2d_46">
      <defs>
       <path d="
M0 0
L2 0" id="m0789224b6b"/>
      </defs>
      <g>
       <use style="stroke:#000000;stroke-linecap:butt;stroke-width:0.5;" x="55.50625" xlink:href="#m0789224b6b" y="295.883569796"/>
      </g>
     </g>
    </g>
    <g id="ytick_18">
     <g id="line2d_47">
      <defs>
       <path d="
M0 0
L2 0" id="m0789224b6b"/>
      </defs>
      <g>
       <use style="stroke:#000000;stroke-linecap:butt;stroke-width:0.5;" x="55.50625" xlink:href="#m0789224b6b" y="285.12946615"/>
      </g>
     </g>
    </g>
    <g id="ytick_19">
     <g id="line2d_48">
      <defs>
       <path d="
M0 0
L2 0" id="m0789224b6b"/>
      </defs>
      <g>
       <use style="stroke:#000000;stroke-linecap:butt;stroke-width:0.5;" x="55.50625" xlink:href="#m0789224b6b" y="274.375362504"/>
      </g>
     </g>
    </g>
    <g id="ytick_20">
     <g id="line2d_49">
      <defs>
       <path d="
M0 0
L2 0" id="m0789224b6b"/>
      </defs>
      <g>
       <use style="stroke:#000000;stroke-linecap:butt;stroke-width:0.5;" x="55.50625" xlink:href="#m0789224b6b" y="263.621258858"/>
      </g>
     </g>
    </g>
    <g id="ytick_21">
     <g id="line2d_50">
      <defs>
       <path d="
M0 0
L2 0" id="m0789224b6b"/>
      </defs>
      <g>
       <use style="stroke:#000000;stroke-linecap:butt;stroke-width:0.5;" x="55.50625" xlink:href="#m0789224b6b" y="252.867155212"/>
      </g>
     </g>
    </g>
    <g id="ytick_22">
     <g id="line2d_51">
      <defs>
       <path d="
M0 0
L2 0" id="m0789224b6b"/>
      </defs>
      <g>
       <use style="stroke:#000000;stroke-linecap:butt;stroke-width:0.5;" x="55.50625" xlink:href="#m0789224b6b" y="242.113051566"/>
      </g>
     </g>
    </g>
    <g id="ytick_23">
     <g id="line2d_52">
      <defs>
       <path d="
M0 0
L2 0" id="m0789224b6b"/>
      </defs>
      <g>
       <use style="stroke:#000000;stroke-linecap:butt;stroke-width:0.5;" x="55.50625" xlink:href="#m0789224b6b" y="231.35894792"/>
      </g>
     </g>
    </g>
    <g id="ytick_24">
     <g id="line2d_53">
      <defs>
       <path d="
M0 0
L2 0" id="m0789224b6b"/>
      </defs>
      <g>
       <use style="stroke:#000000;stroke-linecap:butt;stroke-width:0.5;" x="55.50625" xlink:href="#m0789224b6b" y="220.604844274"/>
      </g>
     </g>
    </g>
    <g id="ytick_25">
     <g id="line2d_54">
      <defs>
       <path d="
M0 0
L2 0" id="m0789224b6b"/>
      </defs>
      <g>
       <use style="stroke:#000000;stroke-linecap:butt;stroke-width:0.5;" x="55.50625" xlink:href="#m0789224b6b" y="209.850740628"/>
      </g>
     </g>
    </g>
    <g id="ytick_26">
     <g id="line2d_55">
      <defs>
       <path d="
M0 0
L2 0" id="m0789224b6b"/>
      </defs>
      <g>
       <use style="stroke:#000000;stroke-linecap:butt;stroke-width:0.5;" x="55.50625" xlink:href="#m0789224b6b" y="199.096636982"/>
      </g>
     </g>
    </g>
    <g id="ytick_27">
     <g id="line2d_56">
      <defs>
       <path d="
M0 0
L2 0" id="m0789224b6b"/>
      </defs>
      <g>
       <use style="stroke:#000000;stroke-linecap:butt;stroke-width:0.5;" x="55.50625" xlink:href="#m0789224b6b" y="188.342533336"/>
      </g>
     </g>
    </g>
    <g id="ytick_28">
     <g id="line2d_57">
      <defs>
       <path d="
M0 0
L2 0" id="m0789224b6b"/>
      </defs>
      <g>
       <use style="stroke:#000000;stroke-linecap:butt;stroke-width:0.5;" x="55.50625" xlink:href="#m0789224b6b" y="177.58842969"/>
      </g>
     </g>
    </g>
    <g id="ytick_29">
     <g id="line2d_58">
      <defs>
       <path d="
M0 0
L2 0" id="m0789224b6b"/>
      </defs>
      <g>
       <use style="stroke:#000000;stroke-linecap:butt;stroke-width:0.5;" x="55.50625" xlink:href="#m0789224b6b" y="166.834326044"/>
      </g>
     </g>
    </g>
    <g id="ytick_30">
     <g id="line2d_59">
      <defs>
       <path d="
M0 0
L2 0" id="m0789224b6b"/>
      </defs>
      <g>
       <use style="stroke:#000000;stroke-linecap:butt;stroke-width:0.5;" x="55.50625" xlink:href="#m0789224b6b" y="156.080222398"/>
      </g>
     </g>
    </g>
    <g id="ytick_31">
     <g id="line2d_60">
      <defs>
       <path d="
M0 0
L2 0" id="m0789224b6b"/>
      </defs>
      <g>
       <use style="stroke:#000000;stroke-linecap:butt;stroke-width:0.5;" x="55.50625" xlink:href="#m0789224b6b" y="145.326118752"/>
      </g>
     </g>
    </g>
    <g id="ytick_32">
     <g id="line2d_61">
      <defs>
       <path d="
M0 0
L2 0" id="m0789224b6b"/>
      </defs>
      <g>
       <use style="stroke:#000000;stroke-linecap:butt;stroke-width:0.5;" x="55.50625" xlink:href="#m0789224b6b" y="134.572015106"/>
      </g>
     </g>
    </g>
    <g id="ytick_33">
     <g id="line2d_62">
      <defs>
       <path d="
M0 0
L2 0" id="m0789224b6b"/>
      </defs>
      <g>
       <use style="stroke:#000000;stroke-linecap:butt;stroke-width:0.5;" x="55.50625" xlink:href="#m0789224b6b" y="123.81791146"/>
      </g>
     </g>
    </g>
    <g id="ytick_34">
     <g id="line2d_63">
      <defs>
       <path d="
M0 0
L2 0" id="m0789224b6b"/>
      </defs>
      <g>
       <use style="stroke:#000000;stroke-linecap:butt;stroke-width:0.5;" x="55.50625" xlink:href="#m0789224b6b" y="113.063807814"/>
      </g>
     </g>
    </g>
    <g id="ytick_35">
     <g id="line2d_64">
      <defs>
       <path d="
M0 0
L2 0" id="m0789224b6b"/>
      </defs>
      <g>
       <use style="stroke:#000000;stroke-linecap:butt;stroke-width:0.5;" x="55.50625" xlink:href="#m0789224b6b" y="102.309704168"/>
      </g>
     </g>
    </g>
    <g id="ytick_36">
     <g id="line2d_65">
      <defs>
       <path d="
M0 0
L2 0" id="m0789224b6b"/>
      </defs>
      <g>
       <use style="stroke:#000000;stroke-linecap:butt;stroke-width:0.5;" x="55.50625" xlink:href="#m0789224b6b" y="91.5556005219"/>
      </g>
     </g>
    </g>
    <g id="ytick_37">
     <g id="line2d_66">
      <defs>
       <path d="
M0 0
L2 0" id="m0789224b6b"/>
      </defs>
      <g>
       <use style="stroke:#000000;stroke-linecap:butt;stroke-width:0.5;" x="55.50625" xlink:href="#m0789224b6b" y="80.8014968759"/>
      </g>
     </g>
    </g>
    <g id="ytick_38">
     <g id="line2d_67">
      <defs>
       <path d="
M0 0
L2 0" id="m0789224b6b"/>
      </defs>
      <g>
       <use style="stroke:#000000;stroke-linecap:butt;stroke-width:0.5;" x="55.50625" xlink:href="#m0789224b6b" y="70.0473932299"/>
      </g>
     </g>
    </g>
    <g id="ytick_39">
     <g id="line2d_68">
      <defs>
       <path d="
M0 0
L2 0" id="m0789224b6b"/>
      </defs>
      <g>
       <use style="stroke:#000000;stroke-linecap:butt;stroke-width:0.5;" x="55.50625" xlink:href="#m0789224b6b" y="59.293289584"/>
      </g>
     </g>
    </g>
    <g id="ytick_40">
     <g id="line2d_69">
      <defs>
       <path d="
M0 0
L2 0" id="m0789224b6b"/>
      </defs>
      <g>
       <use style="stroke:#000000;stroke-linecap:butt;stroke-width:0.5;" x="55.50625" xlink:href="#m0789224b6b" y="48.539185938"/>
      </g>
     </g>
    </g>
    <g id="ytick_41">
     <g id="line2d_70">
      <defs>
       <path d="
M0 0
L2 0" id="m0789224b6b"/>
      </defs>
      <g>
       <use style="stroke:#000000;stroke-linecap:butt;stroke-width:0.5;" x="55.50625" xlink:href="#m0789224b6b" y="37.785082292"/>
      </g>
     </g>
    </g>
    <g id="ytick_42">
     <g id="line2d_71">
      <defs>
       <path d="
M0 0
L2 0" id="m0789224b6b"/>
      </defs>
      <g>
       <use style="stroke:#000000;stroke-linecap:butt;stroke-width:0.5;" x="55.50625" xlink:href="#m0789224b6b" y="27.030978646"/>
      </g>
     </g>
    </g>
   </g>
   <g id="patch_3">
    <path d="
M65.5062 16.2769
L557.486 16.2769" style="fill:none;stroke:#000000;stroke-width:0.8;"/>
   </g>
   <g id="patch_4">
    <path d="
M55.5062 412.239
L55.5062 8.51291" style="fill:none;stroke:#000000;stroke-width:0.8;"/>
   </g>
  </g>
 </g>
 <defs>
  <clipPath id="pef49794cff">
   <rect height="403.726153846" width="491.98" x="65.50625" y="8.51291050296"/>
  </clipPath>
 </defs>
</svg>
