<?xml version="1.0" encoding="utf-8" standalone="no"?>
<!DOCTYPE svg PUBLIC "-//W3C//DTD SVG 1.1//EN"
  "http://www.w3.org/Graphics/SVG/1.1/DTD/svg11.dtd">
<!-- Created with matplotlib (http://matplotlib.sourceforge.net/) -->
<svg height="420pt" version="1.1" viewBox="0 0 564 420" width="564pt" xmlns="http://www.w3.org/2000/svg" xmlns:xlink="http://www.w3.org/1999/xlink">
 <defs>
  <style type="text/css">
*{stroke-linecap:square;stroke-linejoin:round;}
  </style>
 </defs>
 <g id="figure_1">
  <g id="patch_1">
   <path d="
M0 420.48
L564.611 420.48
L564.611 0
L0 0
z
" style="fill:#ffffff;"/>
  </g>
  <g id="axes_1">
   <g id="patch_2">
    <path d="
M64.7562 413.28
L557.411 413.28
L557.411 7.2
L64.7562 7.2
z
" style="fill:#ffffff;"/>
   </g>
   <g id="line2d_1">
    <path clip-path="url(#pc47e9b5ce5)" d="
M74.2304 174.678
L85.065 174.678
L85.065 174.678
L85.065 174.678
L98.7151 174.678
L98.7151 217.83
L107.706 217.83
L107.706 260.507
L119.784 260.507
L119.784 326.549
L124.248 326.549
L124.248 353.789
L131.416 353.789
L131.416 376.32
L134.388 376.32
L134.388 389.157
L139.494 389.157
L139.494 400.231
L145.688 400.231
L145.688 402.202
L147.47 402.202
L147.47 404.971
L152.198 404.971
L152.198 405.471
L154.941 405.471
L154.941 402.314
L156.213 402.314
L156.213 399.431
L158.59 399.431
L158.59 396.844
L161.801 396.844
L161.801 390.121
L164.666 390.121
L164.666 387.266
L165.557 387.266
L165.557 385.542
L168.064 385.542
L168.064 383.142
L170.356 383.062
L170.356 383.658
L172.467 383.658
L172.467 387.018
L173.787 387.018
L173.787 387.897
L175.652 387.897
L175.652 390.518
L177.952 390.518
L177.952 391.729
L179.031 391.729
L179.031 393.042
L179.555 393.042
L179.555 393.273
L180.574 393.273
L180.574 394.433
L181.068 394.433
L181.068 394.626
L182.031 394.626
L182.031 395.657
L185.153 395.657
L185.153 396.613
L185.981 396.613
L185.981 397.364
L187.178 397.364
L187.178 399.163
L187.565 399.163
L187.565 399.482
L189.422 399.482
L189.422 399.789
L189.778 399.789
L189.778 400.055
L190.819 400.055
L190.819 400.182
L191.821 400.182
L191.821 399.696
L192.469 399.696
L192.469 399.004
L193.412 399.004
L193.412 397.467
L194.323 397.467
L194.323 395.494
L194.62 395.494
L194.62 394.693
L196.057 394.693
L196.057 390.102
L196.336 390.102
L196.336 389.079
L196.884 389.079
L196.884 386.79
L197.154 386.79
L197.154 385.531
L198.718 385.531
L198.718 377.566
L200.196 377.566
L200.196 371.037
L200.671 371.037
L200.671 369.218
L200.906 369.218
L200.906 368.443
L201.368 368.443
L201.368 366.697
L202.048 366.697
L202.048 364.494
L202.271 364.494
L202.271 363.885
L203.357 363.885
L203.357 361.467
L203.988 361.467
L203.988 359.79
L204.605 359.79
L204.605 357.888
L205.208 357.888
L205.208 356.327
L205.406 356.327
L205.406 355.908
L205.991 355.908
L205.991 354.415
L206.374 354.415
L206.374 353.617
L206.563 353.617
L206.563 353.309
L207.491 353.309
L207.491 352.217
L208.739 352.217
L208.739 350.236
L209.084 350.236
L209.084 349.548
L209.256 349.548
L209.256 349.281
L209.595 349.281
L209.595 348.612
L210.75 348.612
L210.75 346.841
L211.23 346.841
L211.23 346.31
L212.011 346.31
L212.011 345.138
L212.165 345.138
L212.165 344.971
L212.469 344.971
L212.469 344.52
L212.92 344.52
L212.92 344.033
L213.509 344.033
L213.509 343.172
L213.942 343.172
L213.942 342.71
L214.368 342.71
L214.368 342.095
L214.649 342.095
L214.649 341.586
L215.064 341.586
L215.064 340.68
L215.608 340.68
L215.608 339.301
L215.876 339.301
L215.876 338.727
L216.404 338.727
L216.404 337.409
L217.05 337.409
L217.05 335.581
L217.177 335.581
L217.177 335.177
L217.804 335.177
L217.804 333.429
L217.928 333.429
L217.928 333.042
L218.296 333.042
L218.296 332.03
L218.538 332.03
L218.538 331.453
L218.897 331.453
L218.897 330.475
L219.369 330.475
L219.369 329.038
L219.602 329.038
L219.602 328.254
L219.718 328.254
L219.718 327.826
L219.948 327.826
L219.948 327.057
L220.626 327.057
L220.626 325.043
L221.068 325.043
L221.068 323.893
L221.287 323.893
L221.287 323.402
L221.719 323.402
L221.719 322.583
L221.932 322.583
L221.932 322.109
L222.249 322.109
L222.249 321.306
L222.872 321.306
L222.974 319.756
L223.878 319.756
L223.878 317.813
L224.173 317.813
L224.173 317.094
L224.657 317.094
L224.657 316.074
L224.943 316.074
L224.943 315.385
L225.227 315.385
L225.32 314.631
L225.6 314.631
L225.6 314.228
L226.059 314.228
L226.059 313.428
L226.331 313.428
L226.331 312.874
L226.6 312.874
L226.689 312.286
L226.954 312.286
L226.954 311.831
L227.217 311.831
L227.217 311.463
L227.391 311.463
L227.477 310.996
L227.99 310.996
L227.99 310.133
L228.41 310.133
L228.494 309.418
L228.659 309.418
L228.659 309.192
L228.906 309.192
L228.906 308.785
L229.15 308.785
L229.231 308.368
L229.712 308.368
L229.712 307.999
L229.871 307.999
L229.871 307.832
L230.106 307.832
L230.106 307.518
L230.418 307.518
L230.418 307.017
L230.801 307.017
L230.801 306.294
L231.105 306.294
L231.105 305.812
L231.479 305.812
L231.479 305.325
L231.775 305.325
L231.775 304.861
L231.994 304.861
L231.994 304.457
L232.212 304.457
L232.212 304.118
L232.356 304.118
L232.356 303.933
L232.642 303.933
L232.642 303.491
L232.855 303.491
L232.855 303.106
L232.996 303.106
L232.996 302.89
L233.275 302.89
L233.275 302.538
L233.414 302.538
L233.414 302.401
L233.894 302.401
L233.894 302.057
L234.231 302.057
L234.231 301.906
L234.63 301.906
L234.696 301.592
L235.024 301.592
L235.089 301.331
L235.603 301.278
L235.603 301.053
L236.046 301.053
L236.046 300.63
L236.171 300.63
L236.233 300.42
L236.787 300.333
L236.787 299.927
L236.969 299.843
L236.969 299.786
L237.09 299.786
L237.09 299.642
L237.686 299.642
L237.686 298.79
L237.803 298.79
L237.803 298.652
L238.037 298.652
L238.037 298.436
L238.326 298.436
L238.326 298.24
L238.669 298.14
L238.669 298.119
L239.398 298.095
L239.508 297.906
L240.639 297.798
L240.639 297.727
L241.623 297.624
L241.623 297.602
L242.077 297.529
L242.077 297.43
L242.523 297.43
L242.621 296.927
L242.914 296.82
L242.914 296.758
L243.251 296.663
L243.251 296.581
L243.536 296.488
L243.536 296.427
L244.329 296.321
L244.329 296.273
L244.74 296.195
L244.74 296.049
L244.875 296.049
L244.875 295.933
L245.01 295.933
L245.01 295.789
L245.188 295.789
L245.188 295.559
L245.454 295.559
L245.542 295.164
L245.673 295.164
L245.673 294.969
L245.804 294.969
L245.848 294.739
L245.978 294.739
L245.978 294.574
L246.236 294.574
L246.236 294.195
L246.449 294.195
L246.449 293.838
L246.828 293.838
L246.87 293.057
L246.953 293.057
L246.953 292.936
L247.078 292.936
L247.119 292.653
L247.243 292.653
L247.326 292.211
L247.448 292.11
L247.448 291.891
L247.693 291.891
L247.733 291.2
L247.854 291.2
L247.854 290.904
L248.53 290.904
L248.53 289.128
L248.648 289.128
L248.648 288.845
L248.765 288.845
L248.765 288.588
L248.92 288.588
L248.92 288.217
L249.266 288.217
L249.266 287.462
L249.456 287.462
L249.456 287.012
L249.721 287.012
L249.796 286.295
L249.908 286.229
L249.908 286.113
L250.019 286.113
L250.019 285.918
L250.168 285.918
L250.278 285.546
L250.388 285.546
L250.388 285.397
L250.607 285.397
L250.607 285.145
L250.788 285.145
L250.896 284.877
L251.111 284.782
L251.111 284.701
L251.324 284.701
L251.324 284.499
L251.535 284.499
L251.535 284.26
L251.675 284.26
L251.675 284.128
L251.884 284.128
L251.988 283.915
L252.5 283.808
L252.568 283.721
L253.789 283.776
L253.885 283.988
L254.832 284.086
L254.832 284.108
L255.11 284.189
L255.202 284.323
L255.657 284.368
L255.747 284.505
L256.016 284.54
L256.016 284.662
L256.34 284.736
L256.34 284.793
L256.69 284.851
L256.69 285.005
L256.891 285.005
L256.977 285.23
L257.12 285.305
L257.149 285.41
L257.29 285.41
L257.29 285.575
L257.46 285.575
L257.544 285.925
L257.628 285.925
L257.628 286.065
L257.878 286.065
L257.906 286.575
L258.126 286.575
L258.153 287.102
L258.453 287.102
L258.534 287.898
L258.642 287.898
L258.722 288.309
L258.776 288.309
L258.856 288.595
L258.963 288.595
L259.042 289.002
L259.174 289.002
L259.201 289.31
L259.332 289.31
L259.332 289.561
L259.515 289.561
L259.515 289.938
L259.645 289.938
L259.722 290.411
L259.877 290.411
L259.98 290.944
L260.107 290.944
L260.107 291.141
L260.259 291.141
L260.285 291.438
L260.486 291.438
L260.587 291.951
L260.662 292.027
L260.662 292.069
L260.786 292.069
L260.885 292.391
L261.107 292.391
L261.107 292.723
L261.399 292.723
L261.448 293.185
L261.52 293.185
L261.617 293.446
L261.809 293.446
L261.88 293.878
L261.975 293.878
L261.975 294.017
L262.165 294.017
L262.235 294.358
L262.329 294.358
L262.399 294.605
L262.516 294.706
L262.516 294.78
L262.655 294.78
L262.678 295.06
L262.931 295.06
L263.023 295.532
L263.205 295.633
L263.205 295.698
L263.363 295.698
L263.431 295.956
L263.565 296.026
L263.61 296.141
L263.81 296.214
L263.877 296.471
L264.097 296.552
L264.206 296.907
L264.337 296.907
L264.424 297.184
L264.532 297.282
L264.532 297.353
L264.811 297.353
L264.811 297.854
L265.002 297.854
L265.108 298.412
L265.193 298.412
L265.298 298.8
L265.381 298.849
L265.381 298.987
L265.61 298.987
L265.61 299.456
L265.734 299.456
L265.755 299.732
L265.919 299.732
L266.001 300.255
L266.164 300.331
L266.164 300.577
L266.306 300.577
L266.406 301.042
L266.467 301.085
L266.547 301.348
L266.607 301.348
L266.706 301.702
L266.766 301.744
L266.825 301.977
L266.905 301.977
L266.964 302.34
L267.023 302.34
L267.121 302.774
L267.238 302.831
L267.316 303.362
L267.355 303.362
L267.355 303.482
L267.49 303.482
L267.587 304.239
L267.702 304.239
L267.779 304.832
L267.817 304.832
L267.836 305.009
L267.988 305.009
L267.988 305.47
L268.12 305.47
L268.214 306.116
L268.29 306.116
L268.383 306.557
L268.551 306.557
L268.625 307.1
L268.717 307.1
L268.828 307.529
L268.901 307.529
L268.993 307.868
L269.102 307.868
L269.102 308.069
L269.229 308.069
L269.319 308.444
L269.391 308.528
L269.391 308.559
L269.642 308.559
L269.749 309.109
L269.819 309.109
L269.855 309.292
L269.978 309.292
L270.084 309.739
L270.189 309.739
L270.241 310.056
L270.345 310.056
L270.432 310.429
L270.604 310.429
L270.707 310.891
L270.844 310.891
L270.844 311.095
L271.065 311.095
L271.115 311.524
L271.216 311.524
L271.3 311.732
L271.45 311.84
L271.55 311.972
L271.798 312.042
L271.864 312.341
L271.962 312.341
L271.962 312.483
L272.19 312.483
L272.254 312.85
L272.351 312.907
L272.447 313.113
L272.544 313.113
L272.576 313.316
L272.671 313.316
L272.766 313.632
L272.909 313.659
L272.925 313.875
L273.05 313.875
L273.097 314.144
L273.253 314.144
L273.253 314.421
L273.378 314.421
L273.486 314.792
L273.701 314.869
L273.762 315.293
L273.854 315.293
L273.899 315.508
L273.975 315.508
L274.081 315.819
L274.202 315.909
L274.307 316.31
L274.381 316.31
L274.471 316.693
L274.575 316.693
L274.649 317.119
L274.693 317.119
L274.796 317.496
L274.957 317.598
L275.059 318.142
L275.19 318.223
L275.262 318.732
L275.32 318.732
L275.392 319.113
L275.449 319.113
L275.535 319.512
L275.692 319.512
L275.749 320.117
L275.819 320.117
L275.918 320.567
L275.989 320.637
L275.989 320.736
L276.115 320.736
L276.199 321.222
L276.296 321.222
L276.407 321.769
L276.504 321.769
L276.586 322.224
L276.709 322.224
L276.819 322.822
L276.873 322.925
L276.982 323.233
L277.117 323.233
L277.117 323.573
L277.265 323.573
L277.358 324.162
L277.425 324.229
L277.518 324.567
L277.663 324.567
L277.716 325.025
L277.821 325.025
L277.861 325.352
L277.939 325.352
L277.991 325.642
L278.07 325.642
L278.173 326.079
L278.251 326.166
L278.341 326.476
L278.495 326.576
L278.495 326.896
L278.648 326.896
L278.75 327.553
L278.826 327.585
L278.914 327.966
L278.977 327.966
L279.027 328.269
L279.09 328.269
L279.165 328.677
L279.252 328.783
L279.252 328.929
L279.438 328.929
L279.512 329.654
L279.573 329.654
L279.659 330.078
L279.72 330.078
L279.83 330.567
L279.94 330.669
L280.024 331.113
L280.133 331.113
L280.229 331.61
L280.372 331.685
L280.444 332.063
L280.527 332.063
L280.622 332.386
L280.763 332.386
L280.845 332.819
L280.974 332.891
L281.055 333.281
L281.194 333.359
L281.298 333.794
L281.356 333.846
L281.436 334.111
L281.493 334.111
L281.596 334.488
L281.664 334.488
L281.767 334.892
L281.834 334.996
L281.936 335.307
L282.115 335.416
L282.216 335.926
L282.282 335.926
L282.382 336.216
L282.547 336.216
L282.635 336.651
L282.777 336.758
L282.864 337.009
L282.962 337.117
L283.07 337.319
L283.156 337.424
L283.263 337.665
L283.349 337.77
L283.423 337.982
L283.508 337.982
L283.614 338.369
L283.709 338.369
L283.762 338.641
L283.825 338.641
L283.929 338.974
L284.075 338.974
L284.179 339.485
L284.241 339.532
L284.333 339.856
L284.395 339.856
L284.487 340.226
L284.538 340.296
L284.538 340.347
L284.661 340.347
L284.762 340.865
L284.843 340.865
L284.903 341.192
L284.974 341.192
L285.024 341.456
L285.094 341.456
L285.114 341.654
L285.263 341.654
L285.352 342.176
L285.422 342.263
L285.51 342.489
L285.599 342.597
L285.706 342.853
L285.853 342.956
L285.949 343.258
L286.123 343.332
L286.2 343.649
L286.286 343.701
L286.286 343.761
L286.439 343.761
L286.524 344.025
L286.656 344.116
L286.75 344.317
L286.854 344.405
L286.882 344.525
L286.975 344.525
L287.031 344.762
L287.17 344.762
L287.271 345.147
L287.363 345.238
L287.464 345.467
L287.546 345.557
L287.637 345.71
L287.71 345.71
L287.737 345.866
L287.828 345.866
L287.9 346.124
L288.088 346.217
L288.115 346.424
L288.222 346.53
L288.302 346.662
L288.381 346.75
L288.469 346.918
L288.566 346.998
L288.671 347.205
L288.75 347.259
L288.837 347.477
L288.932 347.571
L289.036 347.842
L289.122 347.943
L289.174 348.091
L289.251 348.091
L289.353 348.477
L289.421 348.537
L289.523 348.844
L289.599 348.937
L289.7 349.154
L289.784 349.247
L289.885 349.474
L289.985 349.474
L290.01 349.692
L290.101 349.692
L290.2 350.01
L290.275 350.061
L290.275 350.122
L290.398 350.122
L290.504 350.462
L290.594 350.565
L290.643 350.691
L290.716 350.691
L290.796 350.944
L290.869 350.944
L290.965 351.224
L291.038 351.302
L291.133 351.483
L291.253 351.559
L291.364 351.737
L291.529 351.838
L291.631 351.92
L291.841 352.009
L291.95 352.083
L292.166 352.189
L292.257 352.242
L292.44 352.337
L292.509 352.412
L292.682 352.471
L292.78 352.641
L292.959 352.742
L293.019 352.843
L293.152 352.936
L293.241 353.054
L293.351 353.054
L293.446 353.288
L293.534 353.399
L293.599 353.495
L293.752 353.582
L293.838 353.787
L293.96 353.853
L294.068 354.074
L294.16 354.165
L294.267 354.374
L294.345 354.442
L294.451 354.68
L294.514 354.768
L294.563 354.873
L294.64 354.97
L294.745 355.18
L294.807 355.274
L294.918 355.472
L295.022 355.553
L295.043 355.635
L295.146 355.635
L295.242 355.852
L295.364 355.926
L295.466 356.064
L295.615 356.174
L295.696 356.249
L295.917 356.356
L295.99 356.431
L296.129 356.522
L296.228 356.643
L296.491 356.742
L296.588 356.784
L297.224 356.686
L297.313 356.639
L298.068 356.532
L298.16 356.477
L298.808 356.369
L298.915 356.319
L299.206 356.214
L299.311 356.163
L299.539 356.065
L299.621 356.018
L300.087 355.925
L300.178 355.856
L300.342 355.782
L300.444 355.671
L300.696 355.586
L300.796 355.479
L301.193 355.371
L301.291 355.338
L301.616 355.238
L301.686 355.177
L301.921 355.091
L302.007 355.008
L302.381 354.907
L302.49 354.86
L302.791 354.761
L302.868 354.694
L303.093 354.594
L303.2 354.502
L303.397 354.395
L303.508 354.32
L303.653 354.231
L303.763 354.07
L303.877 353.965
L303.971 353.843
L304.084 353.764
L304.148 353.649
L304.265 353.547
L304.353 353.428
L304.484 353.341
L304.595 353.176
L304.729 353.082
L304.796 352.978
L304.972 352.877
L305.058 352.813
L305.251 352.722
L305.35 352.618
L305.49 352.511
L305.564 352.439
L305.74 352.353
L305.837 352.206
L305.966 352.115
L306.062 351.935
L306.193 351.868
L306.293 351.673
L306.442 351.573
L306.545 351.397
L306.63 351.287
L306.719 351.152
L306.79 351.045
L306.857 350.922
L306.919 350.824
L307.024 350.611
L307.13 350.553
L307.226 350.208
L307.287 350.106
L307.357 349.924
L307.417 349.814
L307.526 349.544
L307.573 349.483
L307.681 349.146
L307.728 349.113
L307.822 348.783
L307.869 348.732
L307.975 348.411
L308.022 348.348
L308.123 348.056
L308.187 347.999
L308.292 347.671
L308.342 347.582
L308.438 347.308
L308.505 347.203
L308.613 346.858
L308.662 346.76
L308.766 346.466
L308.836 346.386
L308.934 346.082
L309.024 346.022
L309.134 345.673
L309.195 345.574
L309.3 345.322
L309.361 345.236
L309.469 344.968
L309.577 344.862
L309.685 344.546
L309.745 344.461
L309.84 344.234
L309.915 344.146
L310.022 343.891
L310.077 343.804
L310.174 343.573
L310.253 343.466
L310.358 343.203
L310.427 343.101
L310.509 342.908
L310.57 342.843
L310.663 342.607
L310.743 342.562
L310.835 342.267
L310.911 342.18
L311.017 341.878
L311.085 341.878
L311.187 341.515
L311.274 341.42
L311.367 341.124
L311.42 341.082
L311.509 340.816
L311.568 340.734
L311.68 340.446
L311.731 340.373
L311.842 340.116
L311.919 340.067
L312.006 339.797
L312.061 339.727
L312.159 339.459
L312.214 339.358
L312.322 339.063
L312.376 338.98
L312.473 338.673
L312.52 338.673
L312.627 338.286
L312.681 338.286
L312.787 337.914
L312.847 337.81
L312.943 337.596
L312.999 337.499
L313.083 337.278
L313.132 337.189
L313.241 336.909
L313.289 336.827
L313.383 336.526
L313.428 336.461
L313.528 336.13
L313.58 336.061
L313.676 335.687
L313.717 335.592
L313.827 335.22
L313.922 335.156
L314.031 334.578
L314.075 334.487
L314.183 334.13
L314.226 334.029
L314.337 333.669
L314.384 333.583
L314.494 333.247
L314.544 333.142
L314.616 332.923
L314.686 332.923
L314.795 332.457
L314.88 332.364
L314.981 332.036
L315.06 331.97
L315.167 331.658
L315.235 331.608
L315.322 331.354
L315.396 331.245
L315.483 331.024
L315.573 330.923
L315.665 330.632
L315.722 330.543
L315.827 330.264
L315.878 330.212
L315.982 329.912
L316.035 329.823
L316.123 329.566
L316.17 329.483
L316.263 329.229
L316.319 329.14
L316.403 328.89
L316.456 328.89
L316.56 328.518
L316.607 328.412
L316.699 328.201
L316.76 328.093
L316.854 327.878
L316.924 327.776
L317.033 327.494
L317.1 327.385
L317.205 327.182
L317.271 327.116
L317.367 326.885
L317.439 326.781
L317.549 326.554
L317.617 326.452
L317.726 326.196
L317.797 326.085
L317.902 325.813
L317.952 325.758
L318.048 325.486
L318.112 325.405
L318.205 325.169
L318.266 325.075
L318.338 324.897
L318.395 324.8
L318.493 324.601
L318.567 324.496
L318.673 324.261
L318.747 324.216
L318.857 323.88
L318.916 323.794
L319.026 323.537
L319.085 323.439
L319.194 323.198
L319.264 323.129
L319.355 322.899
L319.419 322.808
L319.518 322.608
L319.587 322.513
L319.678 322.353
L319.749 322.252
L319.817 322.127
L319.888 322.127
L319.994 321.828
L320.067 321.732
L320.166 321.506
L320.228 321.442
L320.335 321.173
L320.407 321.084
L320.517 320.823
L320.575 320.736
L320.675 320.496
L320.739 320.386
L320.833 320.15
L320.888 320.043
L320.982 319.829
L321.032 319.751
L321.133 319.47
L321.185 319.381
L321.289 319.078
L321.332 318.978
L321.404 318.783
L321.456 318.783
L321.558 318.383
L321.624 318.276
L321.734 317.951
L321.784 317.841
L321.893 317.547
L321.961 317.443
L322.056 317.162
L322.124 317.089
L322.194 316.836
L322.254 316.738
L322.363 316.467
L322.422 316.363
L322.526 316.129
L322.587 316.024
L322.698 315.764
L322.761 315.67
L322.864 315.46
L322.929 315.356
L323.026 315.192
L323.098 315.103
L323.204 314.909
L323.305 314.812
L323.412 314.568
L323.493 314.471
L323.579 314.286
L323.654 314.181
L323.76 313.934
L323.819 313.84
L323.929 313.618
L324.006 313.507
L324.113 313.272
L324.18 313.163
L324.28 312.971
L324.342 312.894
L324.45 312.639
L324.539 312.531
L324.623 312.298
L324.689 312.212
L324.8 311.908
L324.855 311.797
L324.963 311.549
L325.023 311.441
L325.124 311.224
L325.184 311.142
L325.284 310.92
L325.342 310.813
L325.442 310.614
L325.528 310.505
L325.635 310.221
L325.701 310.131
L325.804 309.913
L325.888 309.802
L325.995 309.602
L326.072 309.497
L326.148 309.332
L326.246 309.332
L326.341 308.95
L326.436 308.95
L326.541 308.554
L326.634 308.554
L326.741 308.145
L326.861 308.145
L326.93 307.743
L327.038 307.743
L327.142 307.279
L327.225 307.279
L327.324 306.891
L327.441 306.891
L327.52 306.518
L327.622 306.518
L327.72 306.157
L327.813 306.157
L327.922 305.814
L328.012 305.814
L328.012 305.65
L328.124 305.65
L328.214 305.29
L328.311 305.29
L328.407 304.97
L328.505 304.97
L328.601 304.672
L328.719 304.672
L328.805 304.349
L328.904 304.349
L328.997 304.017
L329.095 304.017
L329.193 303.624
L329.291 303.624
L329.39 303.249
L329.491 303.249
L329.599 302.853
L329.703 302.853
L329.787 302.463
L329.883 302.463
L329.983 302.046
L330.078 302.046
L330.182 301.702
L330.282 301.702
L330.387 301.391
L330.476 301.391
L330.573 301.097
L330.673 301.097
L330.673 300.941
L330.791 300.941
L330.878 300.615
L330.964 300.615
L331.066 300.298
L331.164 300.298
L331.259 300.006
L331.36 300.006
L331.457 299.706
L331.557 299.706
L331.655 299.404
L331.751 299.404
L331.85 299.127
L331.953 299.127
L331.953 298.985
L332.067 298.985
L332.16 298.756
L332.341 298.67
L332.341 298.561
L332.457 298.561
L332.54 298.375
L332.736 298.281
L332.736 298.178
L332.868 298.178
L332.946 297.9
L333.036 297.9
L333.036 297.758
L333.151 297.758
L333.237 297.441
L333.344 297.441
L333.427 297.143
L333.54 297.143
L333.635 296.78
L333.721 296.78
L333.822 296.465
L333.925 296.465
L334.015 296.186
L334.118 296.186
L334.218 295.919
L334.318 295.919
L334.411 295.637
L334.522 295.637
L334.62 295.268
L334.705 295.268
L334.806 294.923
L334.901 294.923
L335.001 294.607
L335.099 294.607
L335.2 294.301
L335.316 294.301
L335.397 293.986
L335.494 293.986
L335.597 293.687
L335.693 293.687
L335.693 293.547
L335.806 293.547
L335.9 293.255
L335.985 293.255
L335.985 293.117
L336.097 293.117
L336.19 292.754
L336.283 292.754
L336.384 292.389
L336.481 292.389
L336.575 292.061
L336.673 292.061
L336.781 291.716
L336.872 291.716
L336.98 291.326
L337.069 291.326
L337.168 290.916
L337.278 290.916
L337.363 290.487
L337.462 290.487
L337.462 290.257
L337.575 290.257
L337.658 289.856
L337.756 289.856
L337.756 289.675
L337.875 289.675
L337.962 289.34
L338.055 289.34
L338.158 289.022
L338.251 289.022
L338.347 288.696
L338.451 288.696
L338.545 288.381
L338.643 288.381
L338.747 288.052
L338.847 288.052
L338.941 287.749
L339.051 287.749
L339.148 287.459
L339.336 287.354
L339.431 287.105
L339.534 287.105
L339.631 286.807
L339.743 286.807
L339.829 286.52
L339.922 286.52
L340.024 286.278
L340.217 286.188
L340.322 286.018
L340.522 285.935
L340.613 285.753
L340.811 285.679
L340.909 285.5
L341.041 285.5
L341.108 285.288
L341.324 285.193
L341.406 285.075
L341.705 284.975
L341.795 284.904
L342.187 284.821
L342.298 284.749
L342.678 284.648
L342.779 284.531
L342.976 284.472
L343.072 284.359
L343.283 284.296
L343.368 284.174
L343.57 284.108
L343.666 283.958
L343.861 283.882
L343.959 283.741
L344.157 283.664
L344.261 283.455
L344.353 283.455
L344.451 283.211
L344.548 283.211
L344.649 282.941
L344.745 282.941
L344.847 282.698
L345.048 282.587
L345.141 282.417
L345.336 282.34
L345.438 282.179
L345.639 282.089
L345.733 281.892
L345.93 281.794
L346.026 281.566
L346.128 281.566
L346.23 281.288
L346.325 281.288
L346.421 281.003
L346.521 281.003
L346.627 280.701
L346.815 280.593
L346.915 280.377
L347.01 280.377
L347.117 280.14
L347.214 280.14
L347.313 279.898
L347.502 279.79
L347.603 279.61
L347.805 279.514
L347.896 279.289
L348 279.289
L348.096 279.026
L348.195 279.026
L348.294 278.786
L348.392 278.786
L348.493 278.549
L348.591 278.549
L348.691 278.272
L348.783 278.272
L348.882 278.033
L348.98 278.033
L349.085 277.731
L349.176 277.731
L349.275 277.407
L349.376 277.407
L349.476 277.077
L349.571 277.077
L349.67 276.838
L349.768 276.838
L349.867 276.575
L349.968 276.575
L350.064 276.308
L350.162 276.308
L350.267 276.057
L350.358 276.057
L350.455 275.827
L350.659 275.73
L350.757 275.498
L350.949 275.39
L351.046 275.199
L351.249 275.104
L351.342 274.945
L351.539 274.862
L351.639 274.698
L351.839 274.608
L351.938 274.404
L352.036 274.404
L352.129 274.132
L352.228 274.132
L352.337 273.818
L352.429 273.818
L352.523 273.56
L352.722 273.457
L352.82 273.321
L353.127 273.227
L353.217 273.159
L353.805 273.055
L353.805 273.044
L353.905 273.045
L354.495 273.114
L354.591 273.236
L354.8 273.309
L354.89 273.491
L355.083 273.576
L355.187 273.74
L355.378 273.82
L355.481 273.969
L355.773 274.066
L355.871 274.122
L356.166 274.218
L356.269 274.257
L356.858 274.319
L356.953 274.428
L357.251 274.538
L357.346 274.612
L357.839 274.717
L357.94 274.773
L358.826 274.689
L358.924 274.589
L359.217 274.486
L359.318 274.411
L359.611 274.326
L359.709 274.226
L360.007 274.149
L360.114 274.071
L360.405 273.984
L360.496 273.904
L360.99 273.801
L361.097 273.707
L361.383 273.628
L361.481 273.538
L361.781 273.432
L361.882 273.329
L362.073 273.258
L362.177 273.1
L362.372 273.028
L362.465 272.86
L362.664 272.773
L362.765 272.572
L362.959 272.479
L363.058 272.302
L363.256 272.221
L363.352 272.053
L363.549 271.989
L363.647 271.872
L363.845 271.788
L363.944 271.567
L364.048 271.567
L364.141 271.336
L364.241 271.336
L364.34 271.08
L364.534 270.97
L364.632 270.742
L364.736 270.742
L364.828 270.502
L365.031 270.393
L365.124 270.235
L365.32 270.162
L365.423 270.011
L365.621 269.933
L365.716 269.748
L365.816 269.748
L365.913 269.516
L366.009 269.516
L366.111 269.201
L366.212 269.201
L366.307 268.877
L366.404 268.877
L366.509 268.591
L366.603 268.591
L366.701 268.354
L366.8 268.354
L366.898 268.081
L366.996 268.081
L367.099 267.809
L367.192 267.809
L367.289 267.537
L367.393 267.537
L367.488 267.275
L367.585 267.275
L367.687 267.001
L367.782 267.001
L367.881 266.758
L367.979 266.758
L368.08 266.486
L368.178 266.486
L368.275 266.204
L368.372 266.204
L368.472 265.907
L368.571 265.907
L368.67 265.576
L368.768 265.576
L368.866 265.298
L368.964 265.298
L369.063 265.031
L369.162 265.031
L369.258 264.742
L369.357 264.742
L369.457 264.453
L369.554 264.453
L369.654 264.174
L369.755 264.174
L369.849 263.91
L369.952 263.91
L370.046 263.644
L370.146 263.644
L370.247 263.362
L370.342 263.362
L370.44 263.046
L370.538 263.046
L370.64 262.69
L370.737 262.69
L370.833 262.378
L370.935 262.378
L371.033 262.093
L371.132 262.093
L371.229 261.784
L371.326 261.784
L371.424 261.428
L371.525 261.428
L371.621 261.089
L371.72 261.089
L371.818 260.813
L371.917 260.813
L372.018 260.503
L372.116 260.503
L372.215 260.203
L372.31 260.203
L372.409 259.91
L372.507 259.91
L372.608 259.632
L372.704 259.632
L372.803 259.366
L372.902 259.366
L372.999 259.155
L373.199 259.066
L373.297 258.887
L373.493 258.794
L373.592 258.609
L373.787 258.52
L373.887 258.364
L374.082 258.293
L374.18 258.176
L374.38 258.123
L374.476 257.993
L374.674 257.918
L374.774 257.782
L375.067 257.685
L375.165 257.586
L375.46 257.508
L375.559 257.432
L375.953 257.331
L376.054 257.258
L376.348 257.153
L376.447 257.042
L376.642 256.983
L376.74 256.854
L376.938 256.791
L377.04 256.665
L377.331 256.558
L377.43 256.439
L377.626 256.367
L377.726 256.224
L377.922 256.171
L378.021 256.022
L378.218 255.939
L378.315 255.773
L378.513 255.705
L378.61 255.594
L379.006 255.493
L379.103 255.467
L381.269 255.373
L381.367 255.327
L381.861 255.237
L381.959 255.177
L383.041 255.269
L383.139 255.322
L383.829 255.431
L383.927 255.441
L386.388 255.349
L386.487 255.274
L386.685 255.225
L386.783 255.09
L386.98 255.013
L387.077 254.869
L387.276 254.799
L387.374 254.667
L387.57 254.611
L387.668 254.499
L387.963 254.394
L388.064 254.307
L388.555 254.215
L388.655 254.136
L389.144 254.028
L389.243 253.93
L389.441 253.869
L389.539 253.759
L389.834 253.676
L389.933 253.585
L390.23 253.501
L390.327 253.407
L390.623 253.334
L390.72 253.234
L391.015 253.131
L391.117 253.015
L391.409 252.944
L391.508 252.84
L391.705 252.775
L391.803 252.648
L391.999 252.591
L392.1 252.48
L392.393 252.388
L392.492 252.273
L392.787 252.169
L392.885 252.065
L393.181 251.974
L393.279 251.87
L393.477 251.778
L393.575 251.588
L393.773 251.498
L393.87 251.302
L394.069 251.197
L394.165 250.983
L394.362 250.89
L394.461 250.703
L394.561 250.703
L394.658 250.467
L394.756 250.467
L394.854 250.241
L394.954 250.241
L395.051 250.027
L395.25 249.92
L395.347 249.715
L395.543 249.608
L395.644 249.411
L395.741 249.411
L395.839 249.182
L395.938 249.182
L396.037 248.941
L396.134 248.941
L396.233 248.703
L396.43 248.602
L396.529 248.382
L396.628 248.382
L396.725 248.116
L396.823 248.116
L396.923 247.856
L397.021 247.856
L397.121 247.602
L397.219 247.602
L397.315 247.34
L397.414 247.34
L397.513 247.096
L397.611 247.096
L397.709 246.853
L397.81 246.853
L397.906 246.596
L398.005 246.596
L398.103 246.293
L398.201 246.293
L398.3 246.021
L398.399 246.021
L398.5 245.699
L398.595 245.699
L398.695 245.381
L398.792 245.381
L398.891 245.085
L398.989 245.085
L399.088 244.771
L399.186 244.771
L399.285 244.449
L399.383 244.449
L399.481 244.09
L399.579 244.09
L399.68 243.681
L399.777 243.681
L399.876 243.307
L399.974 243.307
L400.072 242.94
L400.17 242.94
L400.269 242.602
L400.367 242.602
L400.466 242.298
L400.564 242.298
L400.663 242.033
L400.762 242.033
L400.86 241.768
L400.959 241.768
L401.057 241.537
L401.253 241.439
L401.352 241.211
L401.45 241.211
L401.549 240.981
L401.745 240.878
L401.844 240.662
L402.041 240.552
L402.139 240.336
L402.336 240.263
L402.435 240.132
L402.632 240.054
L402.73 239.883
L402.927 239.787
L403.027 239.594
L403.222 239.508
L403.32 239.38
L403.518 239.325
L403.617 239.183
L403.813 239.114
L403.913 238.991
L404.108 238.937
L404.207 238.809
L404.404 238.727
L404.502 238.543
L404.699 238.439
L404.798 238.218
L404.995 238.12
L405.093 237.92
L405.29 237.814
L405.388 237.584
L405.586 237.484
L405.685 237.28
L405.88 237.193
L405.979 236.991
L406.176 236.904
L406.274 236.756
L406.471 236.686
L406.569 236.553
L406.766 236.482
L406.865 236.33
L407.062 236.254
L407.16 236.118
L407.358 236.05
L407.455 235.932
L407.653 235.873
L407.751 235.759
L408.046 235.648
L408.145 235.557
L408.539 235.455
L408.637 235.379
L409.03 235.275
L409.129 235.211
L409.621 235.115
L409.72 235.068
L409.917 235.005
L410.015 234.876
L410.212 234.81
L410.31 234.673
L410.507 234.608
L410.605 234.459
L410.803 234.366
L410.901 234.152
L411 234.152
L411.098 233.921
L411.196 233.921
L411.294 233.65
L411.393 233.65
L411.492 233.298
L411.59 233.298
L411.689 232.978
L411.787 232.978
L411.886 232.662
L411.985 232.662
L412.083 232.344
L412.181 232.344
L412.279 232.001
L412.378 232.001
L412.476 231.645
L412.575 231.645
L412.673 231.307
L412.772 231.307
L412.872 230.993
L412.968 230.993
L413.067 230.704
L413.165 230.704
L413.263 230.374
L413.362 230.374
L413.46 230
L413.56 230
L413.657 229.642
L413.756 229.642
L413.855 229.264
L413.953 229.264
L414.051 228.872
L414.149 228.872
L414.248 228.444
L414.347 228.444
L414.445 228.013
L414.543 228.013
L414.642 227.576
L414.741 227.576
L414.839 227.091
L414.937 227.091
L415.036 226.57
L415.134 226.57
L415.233 226.072
L415.331 226.072
L415.43 225.57
L415.528 225.57
L415.626 225.053
L415.725 225.053
L415.823 224.532
L415.921 224.532
L416.02 223.985
L416.12 223.985
L416.217 223.449
L416.316 223.449
L416.414 222.915
L416.512 222.915
L416.611 222.403
L416.71 222.403
L416.808 221.875
L416.906 221.875
L417.005 221.369
L417.103 221.369
L417.203 220.837
L417.3 220.837
L417.398 220.357
L417.497 220.357
L417.595 219.879
L417.693 219.879
L417.792 219.439
L417.891 219.439
L417.989 219.04
L418.088 219.04
L418.186 218.643
L418.284 218.643
L418.383 218.251
L418.481 218.251
L418.58 217.856
L418.678 217.856
L418.776 217.508
L418.875 217.508
L418.973 217.183
L419.072 217.183
L419.17 216.877
L419.27 216.877
L419.367 216.579
L419.466 216.579
L419.564 216.311
L419.663 216.311
L419.761 216.03
L419.86 216.03
L419.958 215.68
L420.057 215.68
L420.155 215.289
L420.253 215.289
L420.352 214.887
L420.45 214.887
L420.549 214.491
L420.648 214.491
L420.745 214.068
L420.844 214.068
L420.942 213.686
L421.041 213.686
L421.139 213.321
L421.238 213.321
L421.336 212.961
L421.434 212.961
L421.533 212.581
L421.631 212.581
L421.73 212.213
L421.828 212.213
L421.927 211.849
L422.025 211.849
L422.124 211.496
L422.222 211.496
L422.321 211.159
L422.419 211.159
L422.517 210.856
L422.616 210.856
L422.715 210.543
L422.813 210.543
L422.911 210.248
L423.01 210.248
L423.108 209.966
L423.206 209.966
L423.305 209.672
L423.404 209.672
L423.502 209.36
L423.6 209.36
L423.699 209.081
L423.797 209.081
L423.896 208.793
L423.994 208.793
L424.092 208.536
L424.191 208.536
L424.29 208.276
L424.388 208.276
L424.486 207.99
L424.585 207.99
L424.683 207.69
L424.782 207.69
L424.88 207.38
L424.978 207.38
L425.077 207.061
L425.176 207.061
L425.274 206.688
L425.373 206.688
L425.471 206.256
L425.569 206.256
L425.668 205.788
L425.767 205.788
L425.865 205.321
L425.963 205.321
L426.062 204.803
L426.16 204.803
L426.258 204.295
L426.357 204.295
L426.455 203.783
L426.554 203.783
L426.652 203.237
L426.751 203.237
L426.849 202.702
L426.947 202.702
L427.046 202.177
L427.144 202.177
L427.243 201.711
L427.341 201.711
L427.44 201.254
L427.538 201.254
L427.637 200.796
L427.735 200.796
L427.834 200.312
L427.932 200.312
L428.03 199.856
L428.129 199.856
L428.227 199.418
L428.326 199.418
L428.424 198.981
L428.522 198.981
L428.622 198.53
L428.72 198.53
L428.818 198.066
L428.917 198.066
L429.015 197.614
L429.113 197.614
L429.212 197.163
L429.311 197.163
L429.409 196.754
L429.507 196.754
L429.605 196.386
L429.705 196.386
L429.802 196.038
L429.901 196.038
L429.999 195.697
L430.098 195.697
L430.197 195.358
L430.295 195.358
L430.393 194.996
L430.492 194.996
L430.591 194.634
L430.688 194.634
L430.787 194.255
L430.886 194.255
L430.984 193.896
L431.082 193.896
L431.181 193.591
L431.279 193.591
L431.377 193.292
L431.476 193.292
L431.575 192.964
L431.673 192.964
L431.771 192.616
L431.87 192.616
L431.968 192.277
L432.067 192.277
L432.165 191.932
L432.263 191.932
L432.362 191.606
L432.46 191.606
L432.559 191.258
L432.658 191.258
L432.756 190.878
L432.854 190.878
L432.954 190.499
L433.051 190.499
L433.149 190.073
L433.248 190.073
L433.347 189.635
L433.445 189.635
L433.543 189.206
L433.642 189.206
L433.74 188.787
L433.839 188.787
L433.937 188.373
L434.036 188.373
L434.134 187.958
L434.232 187.958
L434.331 187.588
L434.429 187.588
L434.528 187.225
L434.628 187.225
L434.725 186.87
L434.824 186.87
L434.922 186.55
L435.02 186.55
L435.119 186.207
L435.217 186.207
L435.315 185.832
L435.414 185.832
L435.513 185.49
L435.611 185.49
L435.709 185.162
L435.808 185.162
L435.906 184.84
L436.004 184.84
L436.103 184.505
L436.201 184.505
L436.3 184.155
L436.398 184.155
L436.497 183.798
L436.595 183.798
L436.693 183.432
L436.792 183.432
L436.89 183.086
L436.989 183.086
L437.088 182.773
L437.186 182.773
L437.285 182.46
L437.383 182.46
L437.481 182.131
L437.58 182.131
L437.678 181.785
L437.776 181.785
L437.875 181.464
L437.973 181.464
L438.072 181.142
L438.17 181.142
L438.269 180.841
L438.367 180.841
L438.466 180.518
L438.564 180.518
L438.662 180.171
L438.761 180.171
L438.859 179.857
L438.958 179.857
L439.056 179.529
L439.155 179.529
L439.253 179.142
L439.351 179.142
L439.45 178.727
L439.549 178.727
L439.647 178.291
L439.745 178.291
L439.844 177.894
L439.943 177.894
L440.041 177.489
L440.139 177.489
L440.238 177.109
L440.336 177.109
L440.434 176.748
L440.533 176.748
L440.631 176.406
L440.73 176.406
L440.829 176.036
L440.927 176.036
L441.025 175.694
L441.124 175.694
L441.222 175.391
L441.321 175.391
L441.419 175.102
L441.517 175.102
L441.616 174.832
L441.714 174.832
L441.813 174.609
L441.911 174.609
L442.01 174.375
L442.108 174.375
L442.206 174.111
L442.305 174.111
L442.403 173.892
L442.6 173.796
L442.699 173.56
L442.797 173.56
L442.896 173.283
L442.994 173.283
L443.093 172.949
L443.191 172.949
L443.289 172.615
L443.388 172.615
L443.486 172.295
L443.585 172.295
L443.683 171.995
L443.782 171.995
L443.88 171.71
L443.979 171.71
L444.077 171.411
L444.175 171.411
L444.275 171.123
L444.372 171.123
L444.471 170.846
L444.569 170.846
L444.668 170.564
L444.766 170.564
L444.865 170.279
L444.963 170.279
L445.061 170.015
L445.16 170.015
L445.259 169.794
L445.357 169.794
L445.456 169.555
L445.554 169.555
L445.652 169.335
L445.849 169.232
L445.947 169.029
L446.046 169.029
L446.144 168.788
L446.243 168.788
L446.341 168.565
L446.538 168.464
L446.637 168.208
L446.735 168.208
L446.834 167.948
L446.932 167.948
L447.03 167.684
L447.129 167.684
L447.227 167.386
L447.326 167.386
L447.424 167.107
L447.522 167.107
L447.621 166.831
L447.719 166.831
L447.818 166.553
L447.916 166.553
L448.015 166.275
L448.113 166.275
L448.212 166.016
L448.31 166.016
L448.408 165.779
L448.507 165.779
L448.605 165.514
L448.704 165.514
L448.802 165.21
L448.901 165.21
L448.999 164.946
L449.098 164.946
L449.196 164.718
L449.393 164.619
L449.492 164.405
L449.688 164.303
L449.787 164.097
L449.984 163.992
L450.082 163.761
L450.181 163.761
L450.279 163.502
L450.377 163.502
L450.476 163.273
L450.673 163.169
L450.771 162.999
L450.968 162.911
L451.067 162.707
L451.165 162.707
L451.264 162.484
L451.46 162.385
L451.559 162.194
L451.756 162.092
L451.854 161.897
L452.051 161.799
L452.149 161.621
L452.346 161.546
L452.445 161.401
L452.642 161.313
L452.74 161.148
L452.937 161.068
L453.035 160.898
L453.232 160.814
L453.331 160.648
L453.528 160.539
L453.626 160.311
L453.823 160.203
L453.922 159.982
L454.02 159.982
L454.118 159.764
L454.315 159.668
L454.414 159.484
L454.611 159.401
L454.709 159.258
L455.004 159.147
L455.103 159.054
L455.398 158.965
L455.497 158.885
L455.792 158.801
L455.891 158.712
L456.186 158.656
L456.284 158.541
L456.481 158.478
L456.58 158.36
L456.776 158.298
L456.875 158.165
L457.072 158.109
L457.17 157.954
L457.367 157.849
L457.466 157.617
L457.564 157.617
L457.662 157.403
L457.859 157.294
L457.958 157.072
L458.056 157.072
L458.155 156.858
L458.352 156.755
L458.45 156.549
L458.647 156.446
L458.745 156.264
L458.942 156.175
L459.041 156.022
L459.238 155.934
L459.336 155.767
L459.533 155.69
L459.631 155.554
L459.828 155.472
L459.927 155.315
L460.124 155.249
L460.222 155.129
L460.517 155.019
L460.616 154.923
L461.01 154.835
L461.108 154.796
L461.896 154.717
L461.994 154.654
L462.289 154.576
L462.388 154.484
L462.683 154.38
L462.782 154.249
L462.978 154.176
L463.077 154.041
L463.274 153.976
L463.372 153.835
L463.569 153.746
L463.668 153.557
L463.864 153.453
L463.963 153.241
L464.16 153.138
L464.258 152.928
L464.357 152.928
L464.455 152.71
L464.652 152.606
L464.75 152.376
L464.849 152.376
L464.947 152.119
L465.046 152.119
L465.144 151.883
L465.243 151.883
L465.341 151.642
L465.538 151.537
L465.637 151.335
L465.735 151.335
L465.833 151.118
L466.03 151.01
L466.129 150.808
L466.227 150.808
L466.326 150.555
L466.424 150.555
L466.523 150.245
L466.621 150.245
L466.719 149.92
L466.818 149.92
L466.916 149.625
L467.015 149.625
L467.113 149.364
L467.212 149.364
L467.31 149.132
L467.507 149.03
L467.606 148.767
L467.704 148.767
L467.802 148.504
L467.901 148.504
L467.999 148.273
L468.098 148.273
L468.196 148.029
L468.295 148.029
L468.393 147.776
L468.491 147.776
L468.59 147.522
L468.688 147.522
L468.787 147.252
L468.885 147.252
L468.984 146.977
L469.082 146.977
L469.181 146.708
L469.279 146.708
L469.377 146.441
L469.476 146.441
L469.574 146.18
L469.673 146.18
L469.771 145.897
L469.87 145.897
L469.968 145.59
L470.067 145.59
L470.165 145.247
L470.264 145.247
L470.362 144.907
L470.46 144.907
L470.559 144.625
L470.657 144.625
L470.756 144.389
L470.953 144.281
L471.051 144.056
L471.248 143.945
L471.346 143.717
L471.445 143.717
L471.543 143.49
L471.642 143.49
L471.74 143.249
L471.937 143.141
L472.035 142.915
L472.134 142.915
L472.232 142.625
L472.331 142.625
L472.429 142.323
L472.528 142.323
L472.626 142.007
L472.725 142.007
L472.823 141.696
L472.921 141.696
L473.02 141.326
L473.118 141.326
L473.217 140.951
L473.315 140.951
L473.414 140.56
L473.512 140.56
L473.611 140.173
L473.709 140.173
L473.808 139.769
L473.906 139.769
L474.005 139.347
L474.103 139.347
L474.201 138.901
L474.3 138.901
L474.398 138.461
L474.497 138.461
L474.595 138.043
L474.694 138.043
L474.792 137.662
L474.89 137.662
L474.989 137.258
L475.087 137.258
L475.186 136.848
L475.284 136.848
L475.383 136.432
L475.481 136.432
L475.58 136.031
L475.678 136.031
L475.776 135.659
L475.875 135.659
L475.973 135.297
L476.072 135.297
L476.17 134.913
L476.269 134.913
L476.367 134.55
L476.466 134.55
L476.564 134.132
L476.663 134.132
L476.761 133.706
L476.859 133.706
L476.958 133.292
L477.056 133.292
L477.155 132.896
L477.253 132.896
L477.352 132.44
L477.45 132.44
L477.549 131.96
L477.647 131.96
L477.745 131.501
L477.844 131.501
L477.942 131.029
L478.041 131.029
L478.139 130.567
L478.238 130.567
L478.336 130.117
L478.435 130.117
L478.533 129.689
L478.631 129.689
L478.73 129.242
L478.828 129.242
L478.927 128.827
L479.025 128.827
L479.124 128.441
L479.222 128.441
L479.32 128.045
L479.419 128.045
L479.517 127.654
L479.616 127.654
L479.714 127.255
L479.813 127.255
L479.911 126.864
L480.01 126.864
L480.108 126.477
L480.206 126.477
L480.305 126.1
L480.403 126.1
L480.502 125.722
L480.6 125.722
L480.699 125.358
L480.797 125.358
L480.896 125.021
L480.994 125.021
L481.092 124.666
L481.191 124.666
L481.289 124.299
L481.388 124.299
L481.486 123.892
L481.585 123.892
L481.683 123.489
L481.782 123.489
L481.88 123.072
L481.979 123.072
L482.077 122.649
L482.175 122.649
L482.274 122.216
L482.372 122.216
L482.471 121.794
L482.569 121.794
L482.668 121.358
L482.766 121.358
L482.865 120.92
L482.963 120.92
L483.062 120.48
L483.16 120.48
L483.258 120.061
L483.357 120.061
L483.455 119.651
L483.554 119.651
L483.652 119.248
L483.751 119.248
L483.849 118.851
L483.947 118.851
L484.046 118.426
L484.144 118.426
L484.243 117.943
L484.341 117.943
L484.44 117.44
L484.538 117.44
L484.637 116.976
L484.735 116.976
L484.833 116.518
L484.932 116.518
L485.03 116.066
L485.129 116.066
L485.227 115.63
L485.326 115.63
L485.424 115.224
L485.523 115.224
L485.621 114.818
L485.719 114.818
L485.818 114.397
L485.916 114.397
L486.015 113.94
L486.113 113.94
L486.212 113.459
L486.31 113.459
L486.409 112.972
L486.507 112.972
L486.605 112.509
L486.704 112.509
L486.802 112.072
L486.901 112.072
L486.999 111.621
L487.098 111.621
L487.196 111.197
L487.295 111.197
L487.393 110.811
L487.491 110.811
L487.59 110.422
L487.688 110.422
L487.787 110.079
L487.885 110.079
L487.984 109.774
L488.082 109.774
L488.181 109.489
L488.279 109.489
L488.377 109.214
L488.476 109.214
L488.574 108.895
L488.673 108.895
L488.771 108.558
L488.87 108.558
L488.968 108.212
L489.067 108.212
L489.165 107.856
L489.263 107.856
L489.362 107.462
L489.46 107.462
L489.559 107.07
L489.657 107.07
L489.756 106.675
L489.854 106.675
L489.953 106.297
L490.051 106.297
L490.149 105.924
L490.248 105.924
L490.346 105.527
L490.445 105.527
L490.543 105.154
L490.642 105.154
L490.74 104.793
L490.839 104.793
L490.937 104.438
L491.035 104.438
L491.134 104.093
L491.232 104.093
L491.331 103.743
L491.429 103.743
L491.528 103.379
L491.626 103.379
L491.725 103.016
L491.823 103.016
L491.922 102.685
L492.02 102.685
L492.118 102.374
L492.217 102.374
L492.315 102.046
L492.414 102.046
L492.512 101.726
L492.611 101.726
L492.709 101.435
L492.808 101.435
L492.906 101.159
L493.004 101.159
L493.103 100.905
L493.201 100.905
L493.3 100.669
L493.497 100.558
L493.595 100.322
L493.792 100.214
L493.89 99.988
L493.989 99.988
L494.087 99.7441
L494.186 99.7441
L494.284 99.4726
L494.383 99.4726
L494.481 99.2064
L494.58 99.2064
L494.678 98.9266
L494.776 98.9266
L494.875 98.6742
L494.973 98.6742
L495.072 98.448
L495.269 98.3484
L495.367 98.1168
L495.466 98.1168
L495.564 97.8575
L495.662 97.8575
L495.761 97.6052
L495.859 97.6052
L495.958 97.3332
L496.056 97.3332
L496.155 97.0697
L496.253 97.0697
L496.352 96.8127
L496.45 96.8127
L496.548 96.554
L496.647 96.554
L496.745 96.2956
L496.844 96.2956
L496.942 96.0288
L497.041 96.0288
L497.139 95.7373
L497.238 95.7373
L497.336 95.4431
L497.434 95.4431
L497.533 95.1597
L497.631 95.1597
L497.73 94.8788
L497.828 94.8788
L497.927 94.5932
L498.025 94.5932
L498.124 94.3236
L498.222 94.3236
L498.32 94.088
L498.419 94.088
L498.517 93.8476
L498.616 93.8476
L498.714 93.5677
L498.813 93.5677
L498.911 93.2758
L499.01 93.2758
L499.108 92.991
L499.206 92.991
L499.305 92.6956
L499.403 92.6956
L499.502 92.362
L499.6 92.362
L499.699 92.0391
L499.797 92.0391
L499.896 91.7227
L499.994 91.7227
L500.092 91.4141
L500.191 91.4141
L500.289 91.0957
L500.388 91.0957
L500.486 90.7627
L500.585 90.7627
L500.683 90.4038
L500.782 90.4038
L500.88 90.056
L500.979 90.056
L501.077 89.7347
L501.175 89.7347
L501.274 89.4055
L501.372 89.4055
L501.471 89.1019
L501.569 89.1019
L501.668 88.8189
L501.766 88.8189
L501.865 88.5427
L501.963 88.5427
L502.061 88.2688
L502.16 88.2688
L502.258 88.0339
L502.455 87.9256
L502.554 87.702
L502.652 87.702
L502.751 87.4913
L502.947 87.3925
L503.046 87.1887
L503.144 87.1887
L503.243 86.9561
L503.44 86.8665
L503.538 86.6998
L503.735 86.6204
L503.833 86.4625
L504.03 86.3853
L504.129 86.234
L504.326 86.1672
L504.424 86.0396
L504.621 85.9676
L504.719 85.824
L504.916 85.7412
L505.015 85.5894
L505.212 85.5203
L505.31 85.389
L505.507 85.3044
L505.605 85.1089
L505.802 85.0059
L505.901 84.8018
L506.098 84.7029
L506.196 84.5065
L506.393 84.4083
L506.491 84.2266
L506.688 84.1228
L506.787 83.947
L506.984 83.858
L507.082 83.6615
L507.279 83.5576
L507.378 83.3369
L507.574 83.2359
L507.673 83.0196
L507.771 83.0196
L507.87 82.7943
L507.968 82.7943
L508.067 82.5179
L508.165 82.5179
L508.264 82.183
L508.362 82.183
L508.46 81.8641
L508.559 81.8641
L508.657 81.518
L508.756 81.518
L508.854 81.164
L508.953 81.164
L509.051 80.7732
L509.15 80.7732
L509.248 80.3365
L509.346 80.3365
L509.445 79.8999
L509.543 79.8999
L509.642 79.4609
L509.74 79.4609
L509.839 79.0591
L509.937 79.0591
L510.036 78.681
L510.134 78.681
L510.232 78.3362
L510.331 78.3362
L510.429 77.9786
L510.528 77.9786
L510.626 77.5508
L510.725 77.5508
L510.823 77.1197
L510.922 77.1197
L511.02 76.7066
L511.118 76.7066
L511.217 76.3328
L511.315 76.3328
L511.414 75.9399
L511.512 75.9399
L511.611 75.5263
L511.709 75.5263
L511.808 75.1131
L511.906 75.1131
L512.004 74.7053
L512.103 74.7053
L512.201 74.2915
L512.3 74.2915
L512.398 73.8976
L512.497 73.8976
L512.595 73.5131
L512.694 73.5131
L512.792 73.1385
L512.89 73.1385
L512.989 72.7808
L513.087 72.7808
L513.186 72.4075
L513.284 72.4075
L513.383 72.0138
L513.481 72.0138
L513.58 71.5979
L513.678 71.5979
L513.776 71.1423
L513.875 71.1423
L513.973 70.6807
L514.072 70.6807
L514.17 70.2155
L514.269 70.2155
L514.367 69.774
L514.466 69.774
L514.564 69.3304
L514.662 69.3304
L514.761 68.8873
L514.859 68.8873
L514.958 68.4412
L515.056 68.4412
L515.155 68.0124
L515.253 68.0124
L515.352 67.5697
L515.45 67.5697
L515.549 67.0892
L515.647 67.0892
L515.745 66.6118
L515.844 66.6118
L515.942 66.1381
L516.041 66.1381
L516.139 65.6487
L516.238 65.6487
L516.336 65.1733
L516.434 65.1733
L516.533 64.7228
L516.631 64.7228
L516.73 64.2868
L516.828 64.2868
L516.927 63.849
L517.025 63.849
L517.124 63.4469
L517.222 63.4469
L517.321 63.0776
L517.419 63.0776
L517.517 62.7224
L517.616 62.7224
L517.714 62.3421
L517.813 62.3421
L517.911 61.9901
L518.01 61.9901
L518.108 61.6716
L518.207 61.6716
L518.305 61.3803
L518.403 61.3803
L518.502 61.0744
L518.6 61.0744
L518.699 60.7163
L518.797 60.7163
L518.896 60.3522
L518.994 60.3522
L519.093 60.022
L519.191 60.022
L519.289 59.704
L519.388 59.704
L519.486 59.3939
L519.585 59.3939
L519.683 59.0778
L519.782 59.0778
L519.88 58.7577
L519.979 58.7577
L520.077 58.4459
L520.175 58.4459
L520.274 58.1202
L520.372 58.1202
L520.471 57.7729
L520.569 57.7729
L520.668 57.4066
L520.766 57.4066
L520.865 57.0726
L520.963 57.0726
L521.061 56.7672
L521.16 56.7672
L521.258 56.4439
L521.357 56.4439
L521.455 56.124
L521.554 56.124
L521.652 55.8057
L521.751 55.8057
L521.849 55.481
L521.947 55.481
L522.046 55.1551
L522.144 55.1551
L522.243 54.8493
L522.341 54.8493
L522.44 54.5688
L522.538 54.5688
L522.637 54.279
L522.735 54.279
L522.833 54.0144
L522.932 54.0144
L523.03 53.7235
L523.129 53.7235
L523.227 53.4592
L523.326 53.4592
L523.424 53.2042
L523.523 53.2042
L523.621 52.9613
L523.719 52.9613
L523.818 52.7309
L524.015 52.6268
L524.113 52.4016
L524.212 52.4016
L524.31 52.1452
L524.409 52.1452
L524.507 51.8712
L524.605 51.8712
L524.704 51.5799
L524.802 51.5799
L524.901 51.2491
L524.999 51.2491
L525.098 50.9244
L525.196 50.9244
L525.295 50.5999
L525.393 50.5999
L525.491 50.2607
L525.59 50.2607
L525.688 49.9043
L525.787 49.9043
L525.885 49.5561
L525.984 49.5561
L526.082 49.2144
L526.181 49.2144
L526.279 48.8185
L526.378 48.8185
L526.476 48.4076
L526.574 48.4076
L526.673 48.0227
L526.771 48.0227
L526.87 47.6669
L526.968 47.6669
L527.067 47.3122
L527.165 47.3122
L527.264 46.95
L527.362 46.95
L527.46 46.6073
L527.559 46.6073
L527.657 46.2695
L527.756 46.2695
L527.854 45.9158
L527.953 45.9158
L528.051 45.5798
L528.15 45.5798
L528.248 45.2443
L528.346 45.2443
L528.445 44.9152
L528.543 44.9152
L528.642 44.5787
L528.74 44.5787
L528.839 44.2319
L528.937 44.2319
L529.036 43.8789
L529.134 43.8789
L529.232 43.5235
L529.331 43.5235
L529.429 43.1546
L529.528 43.1546
L529.626 42.7896
L529.725 42.7896
L529.823 42.4457
L529.922 42.4457
L530.02 42.1136
L530.118 42.1136
L530.217 41.7743
L530.315 41.7743
L530.414 41.4947
L530.512 41.4947
L530.611 41.2607
L530.808 41.1506
L530.906 40.9468
L531.103 40.8566
L531.201 40.6675
L531.398 40.5868
L531.497 40.4392
L531.694 40.3671
L531.792 40.2472
L531.989 40.1833
L532.087 40.0457
L532.284 39.9592
L532.383 39.7753
L532.58 39.6883
L532.678 39.5221
L532.875 39.4318
L532.973 39.2333
L533.072 39.2333
L533.17 39.0174
L533.367 38.9164
L533.466 38.7079
L533.662 38.5983
L533.761 38.3341
L533.859 38.3341
L533.958 38.0715
L534.056 38.0715
L534.155 37.7968
L534.253 37.7968
L534.352 37.5257
L534.45 37.5257
L534.548 37.285
L534.647 37.285
L534.745 37.0307
L534.844 37.0307
L534.942 36.7629
L535.041 36.7629
L535.139 36.4659
L535.238 36.4659
L535.336 36.1389
L535.435 36.1389
L535.533 35.7883
L535.631 35.7883
L535.73 35.4183
L535.828 35.4183
L535.927 35.0696
L536.025 35.0696
L536.124 34.7517
L536.222 34.7517
L536.321 34.4256
L536.419 34.4256
L536.517 34.1232
L536.616 34.1232
L536.714 33.8385
L536.813 33.8385
L536.911 33.5431
L537.01 33.5431
L537.108 33.2486
L537.207 33.2486
L537.305 32.9265
L537.403 32.9265
L537.502 32.6385
L537.6 32.6385
L537.699 32.3394
L537.797 32.3394
L537.896 32.0391
L537.994 32.0391
L538.093 31.7188
L538.191 31.7188
L538.289 31.4056
L538.388 31.4056
L538.486 31.0941
L538.585 31.0941
L538.683 30.7882
L538.782 30.7882
L538.88 30.5103
L538.979 30.5103
L539.077 30.229
L539.175 30.229
L539.274 29.9584
L539.372 29.9584
L539.471 29.6546
L539.569 29.6546
L539.668 29.33
L539.766 29.33
L539.865 29.0192
L539.963 29.0192
L540.061 28.7058
L540.16 28.7058
L540.258 28.3925
L540.357 28.3925
L540.455 28.0719
L540.554 28.0719
L540.652 27.7319
L540.751 27.7319
L540.849 27.3903
L540.947 27.3903
L541.046 27.0473
L541.144 27.0473
L541.243 26.7269
L541.341 26.7269
L541.44 26.4212
L541.538 26.4212
L541.637 26.0852
L541.735 26.0852
L541.833 25.7636
L541.932 25.7636
L542.03 25.4628
L542.129 25.4628
L542.227 25.1604
L542.326 25.1604
L542.424 24.833
L542.523 24.833
L542.621 24.515
L542.72 24.515
L542.818 24.1627
L542.916 24.1627
L543.015 23.8081
L543.113 23.8081
L543.212 23.4552
L543.31 23.4552
L543.409 23.1129
L543.507 23.1129
L543.606 22.7554
L543.704 22.7554
L543.802 22.4163
L543.901 22.4163
L543.999 22.0778
L544.098 22.0778
L544.196 21.7122
L544.295 21.7122
L544.393 21.3611
L544.492 21.3611
L544.59 21.0052
L544.688 21.0052
L544.787 20.6493
L544.885 20.6493
L544.984 20.3066
L545.082 20.3066
L545.181 19.9888
L545.279 19.9888
L545.378 19.6904
L545.476 19.6904
L545.574 19.3499
L545.673 19.3499
L545.771 18.9706
L545.87 18.9706
L545.968 18.5933
L546.067 18.5933
L546.165 18.2025
L546.264 18.2025
L546.362 17.8238
L546.46 17.8238
L546.559 17.4537
L546.657 17.4537
L546.756 17.082
L546.854 17.082
L546.953 16.7331
L547.051 16.7331
L547.15 16.3974
L547.248 16.3974
L547.346 16.0579
L547.445 16.0579
L547.543 15.6943
L547.642 15.6943
L547.74 15.3622
L547.839 15.3622
L547.937 15.0092
L547.937 15.0092" style="fill:none;stroke:#0000ff;stroke-width:5.0;"/>
   </g>
   <g id="matplotlib.axis_1">
    <g id="xtick_1">
     <g id="line2d_2">
      <path d="
M189.316 413.28
L189.316 7.2" style="fill:none;stroke:#000000;stroke-dasharray:1.000000,3.000000;stroke-dashoffset:0.0;stroke-linecap:butt;stroke-width:0.5;"/>
     </g>
     <g id="line2d_3">
      <defs>
       <path d="
M0 0
L0 -4" id="m3fbe6c24f1"/>
      </defs>
      <g>
       <use style="stroke:#000000;stroke-linecap:butt;stroke-width:0.5;" x="189.316060486" xlink:href="#m3fbe6c24f1" y="174.677819194"/>
      </g>
     </g>
     <g id="text_1">
      <!-- 5 -->
      <defs>
       <path d="
M10.7969 72.9062
L49.5156 72.9062
L49.5156 64.5938
L19.8281 64.5938
L19.8281 46.7344
Q21.9688 47.4688 24.1094 47.8281
Q26.2656 48.1875 28.4219 48.1875
Q40.625 48.1875 47.75 41.5
Q54.8906 34.8125 54.8906 23.3906
Q54.8906 11.625 47.5625 5.09375
Q40.2344 -1.42188 26.9062 -1.42188
Q22.3125 -1.42188 17.5469 -0.640625
Q12.7969 0.140625 7.71875 1.70312
L7.71875 11.625
Q12.1094 9.23438 16.7969 8.0625
Q21.4844 6.89062 26.7031 6.89062
Q35.1562 6.89062 40.0781 11.3281
Q45.0156 15.7656 45.0156 23.3906
Q45.0156 31 40.0781 35.4375
Q35.1562 39.8906 26.7031 39.8906
Q22.75 39.8906 18.8125 39.0156
Q14.8906 38.1406 10.7969 36.2812
z
" id="BitstreamVeraSans-Roman-35"/>
      </defs>
      <g transform="translate(183.655435486 196.175319194)scale(0.24 -0.24)">
       <use xlink:href="#BitstreamVeraSans-Roman-35"/>
      </g>
     </g>
    </g>
    <g id="xtick_2">
     <g id="line2d_4">
      <path d="
M322.924 413.28
L322.924 7.2" style="fill:none;stroke:#000000;stroke-dasharray:1.000000,3.000000;stroke-dashoffset:0.0;stroke-linecap:butt;stroke-width:0.5;"/>
     </g>
     <g id="line2d_5">
      <defs>
       <path d="
M0 0
L0 -4" id="m3fbe6c24f1"/>
      </defs>
      <g>
       <use style="stroke:#000000;stroke-linecap:butt;stroke-width:0.5;" x="322.923686165" xlink:href="#m3fbe6c24f1" y="174.677819194"/>
      </g>
     </g>
     <g id="text_2">
      <!-- 10 -->
      <defs>
       <path d="
M31.7812 66.4062
Q24.1719 66.4062 20.3281 58.9062
Q16.5 51.4219 16.5 36.375
Q16.5 21.3906 20.3281 13.8906
Q24.1719 6.39062 31.7812 6.39062
Q39.4531 6.39062 43.2812 13.8906
Q47.125 21.3906 47.125 36.375
Q47.125 51.4219 43.2812 58.9062
Q39.4531 66.4062 31.7812 66.4062
M31.7812 74.2188
Q44.0469 74.2188 50.5156 64.5156
Q56.9844 54.8281 56.9844 36.375
Q56.9844 17.9688 50.5156 8.26562
Q44.0469 -1.42188 31.7812 -1.42188
Q19.5312 -1.42188 13.0625 8.26562
Q6.59375 17.9688 6.59375 36.375
Q6.59375 54.8281 13.0625 64.5156
Q19.5312 74.2188 31.7812 74.2188" id="BitstreamVeraSans-Roman-30"/>
       <path d="
M12.4062 8.29688
L28.5156 8.29688
L28.5156 63.9219
L10.9844 60.4062
L10.9844 69.3906
L28.4219 72.9062
L38.2812 72.9062
L38.2812 8.29688
L54.3906 8.29688
L54.3906 0
L12.4062 0
z
" id="BitstreamVeraSans-Roman-31"/>
      </defs>
      <g transform="translate(309.768686165 196.490319194)scale(0.24 -0.24)">
       <use xlink:href="#BitstreamVeraSans-Roman-31"/>
       <use x="63.623046875" xlink:href="#BitstreamVeraSans-Roman-30"/>
      </g>
     </g>
    </g>
    <g id="xtick_3">
     <g id="line2d_6">
      <path d="
M456.531 413.28
L456.531 7.2" style="fill:none;stroke:#000000;stroke-dasharray:1.000000,3.000000;stroke-dashoffset:0.0;stroke-linecap:butt;stroke-width:0.5;"/>
     </g>
     <g id="line2d_7">
      <defs>
       <path d="
M0 0
L0 -4" id="m3fbe6c24f1"/>
      </defs>
      <g>
       <use style="stroke:#000000;stroke-linecap:butt;stroke-width:0.5;" x="456.531311843" xlink:href="#m3fbe6c24f1" y="174.677819194"/>
      </g>
     </g>
     <g id="text_3">
      <!-- 15 -->
      <g transform="translate(443.627561843 196.175319194)scale(0.24 -0.24)">
       <use xlink:href="#BitstreamVeraSans-Roman-31"/>
       <use x="63.623046875" xlink:href="#BitstreamVeraSans-Roman-35"/>
      </g>
     </g>
    </g>
    <g id="xtick_4">
     <g id="line2d_8">
      <defs>
       <path d="
M0 0
L0 -2" id="mf0ff38ea95"/>
      </defs>
      <g>
       <use style="stroke:#000000;stroke-linecap:butt;stroke-width:0.5;" x="82.429959943" xlink:href="#mf0ff38ea95" y="174.677819194"/>
      </g>
     </g>
    </g>
    <g id="xtick_5">
     <g id="line2d_9">
      <defs>
       <path d="
M0 0
L0 -2" id="mf0ff38ea95"/>
      </defs>
      <g>
       <use style="stroke:#000000;stroke-linecap:butt;stroke-width:0.5;" x="109.151485079" xlink:href="#mf0ff38ea95" y="174.677819194"/>
      </g>
     </g>
    </g>
    <g id="xtick_6">
     <g id="line2d_10">
      <defs>
       <path d="
M0 0
L0 -2" id="mf0ff38ea95"/>
      </defs>
      <g>
       <use style="stroke:#000000;stroke-linecap:butt;stroke-width:0.5;" x="135.873010214" xlink:href="#mf0ff38ea95" y="174.677819194"/>
      </g>
     </g>
    </g>
    <g id="xtick_7">
     <g id="line2d_11">
      <defs>
       <path d="
M0 0
L0 -2" id="mf0ff38ea95"/>
      </defs>
      <g>
       <use style="stroke:#000000;stroke-linecap:butt;stroke-width:0.5;" x="162.59453535" xlink:href="#mf0ff38ea95" y="174.677819194"/>
      </g>
     </g>
    </g>
    <g id="xtick_8">
     <g id="line2d_12">
      <defs>
       <path d="
M0 0
L0 -2" id="mf0ff38ea95"/>
      </defs>
      <g>
       <use style="stroke:#000000;stroke-linecap:butt;stroke-width:0.5;" x="216.037585622" xlink:href="#mf0ff38ea95" y="174.677819194"/>
      </g>
     </g>
    </g>
    <g id="xtick_9">
     <g id="line2d_13">
      <defs>
       <path d="
M0 0
L0 -2" id="mf0ff38ea95"/>
      </defs>
      <g>
       <use style="stroke:#000000;stroke-linecap:butt;stroke-width:0.5;" x="242.759110757" xlink:href="#mf0ff38ea95" y="174.677819194"/>
      </g>
     </g>
    </g>
    <g id="xtick_10">
     <g id="line2d_14">
      <defs>
       <path d="
M0 0
L0 -2" id="mf0ff38ea95"/>
      </defs>
      <g>
       <use style="stroke:#000000;stroke-linecap:butt;stroke-width:0.5;" x="269.480635893" xlink:href="#mf0ff38ea95" y="174.677819194"/>
      </g>
     </g>
    </g>
    <g id="xtick_11">
     <g id="line2d_15">
      <defs>
       <path d="
M0 0
L0 -2" id="mf0ff38ea95"/>
      </defs>
      <g>
       <use style="stroke:#000000;stroke-linecap:butt;stroke-width:0.5;" x="296.202161029" xlink:href="#mf0ff38ea95" y="174.677819194"/>
      </g>
     </g>
    </g>
    <g id="xtick_12">
     <g id="line2d_16">
      <defs>
       <path d="
M0 0
L0 -2" id="mf0ff38ea95"/>
      </defs>
      <g>
       <use style="stroke:#000000;stroke-linecap:butt;stroke-width:0.5;" x="349.6452113" xlink:href="#mf0ff38ea95" y="174.677819194"/>
      </g>
     </g>
    </g>
    <g id="xtick_13">
     <g id="line2d_17">
      <defs>
       <path d="
M0 0
L0 -2" id="mf0ff38ea95"/>
      </defs>
      <g>
       <use style="stroke:#000000;stroke-linecap:butt;stroke-width:0.5;" x="376.366736436" xlink:href="#mf0ff38ea95" y="174.677819194"/>
      </g>
     </g>
    </g>
    <g id="xtick_14">
     <g id="line2d_18">
      <defs>
       <path d="
M0 0
L0 -2" id="mf0ff38ea95"/>
      </defs>
      <g>
       <use style="stroke:#000000;stroke-linecap:butt;stroke-width:0.5;" x="403.088261572" xlink:href="#mf0ff38ea95" y="174.677819194"/>
      </g>
     </g>
    </g>
    <g id="xtick_15">
     <g id="line2d_19">
      <defs>
       <path d="
M0 0
L0 -2" id="mf0ff38ea95"/>
      </defs>
      <g>
       <use style="stroke:#000000;stroke-linecap:butt;stroke-width:0.5;" x="429.809786707" xlink:href="#mf0ff38ea95" y="174.677819194"/>
      </g>
     </g>
    </g>
    <g id="xtick_16">
     <g id="line2d_20">
      <defs>
       <path d="
M0 0
L0 -2" id="mf0ff38ea95"/>
      </defs>
      <g>
       <use style="stroke:#000000;stroke-linecap:butt;stroke-width:0.5;" x="483.252836979" xlink:href="#mf0ff38ea95" y="174.677819194"/>
      </g>
     </g>
    </g>
    <g id="xtick_17">
     <g id="line2d_21">
      <defs>
       <path d="
M0 0
L0 -2" id="mf0ff38ea95"/>
      </defs>
      <g>
       <use style="stroke:#000000;stroke-linecap:butt;stroke-width:0.5;" x="509.974362115" xlink:href="#mf0ff38ea95" y="174.677819194"/>
      </g>
     </g>
    </g>
   </g>
   <g id="matplotlib.axis_2">
    <g id="ytick_1">
     <g id="line2d_22">
      <path d="
M64.7562 373.343
L557.411 373.343" style="fill:none;stroke:#000000;stroke-dasharray:1.000000,3.000000;stroke-dashoffset:0.0;stroke-linecap:butt;stroke-width:0.5;"/>
     </g>
     <g id="line2d_23">
      <defs>
       <path d="
M0 0
L4 0" id="mc91e532072"/>
      </defs>
      <g>
       <use style="stroke:#000000;stroke-linecap:butt;stroke-width:0.5;" x="54.75625" xlink:href="#mc91e532072" y="373.342990646"/>
      </g>
     </g>
     <g id="text_4">
      <!-- -1 -->
      <defs>
       <path d="
M4.89062 31.3906
L31.2031 31.3906
L31.2031 23.3906
L4.89062 23.3906
z
" id="BitstreamVeraSans-Roman-2d"/>
      </defs>
      <g transform="translate(30.2175 382.091740646)scale(0.24 -0.24)">
       <use xlink:href="#BitstreamVeraSans-Roman-2d"/>
       <use x="36.083984375" xlink:href="#BitstreamVeraSans-Roman-31"/>
      </g>
     </g>
    </g>
    <g id="ytick_2">
     <g id="line2d_24">
      <path d="
M64.7562 274.01
L557.411 274.01" style="fill:none;stroke:#000000;stroke-dasharray:1.000000,3.000000;stroke-dashoffset:0.0;stroke-linecap:butt;stroke-width:0.5;"/>
     </g>
     <g id="line2d_25">
      <defs>
       <path d="
M0 0
L4 0" id="mc91e532072"/>
      </defs>
      <g>
       <use style="stroke:#000000;stroke-linecap:butt;stroke-width:0.5;" x="54.75625" xlink:href="#mc91e532072" y="274.01040492"/>
      </g>
     </g>
     <g id="text_5">
      <!-- -0.5 -->
      <defs>
       <path d="
M10.6875 12.4062
L21 12.4062
L21 0
L10.6875 0
z
" id="BitstreamVeraSans-Roman-2e"/>
      </defs>
      <g transform="translate(7.2 282.74602992)scale(0.24 -0.24)">
       <use xlink:href="#BitstreamVeraSans-Roman-2d"/>
       <use x="36.083984375" xlink:href="#BitstreamVeraSans-Roman-30"/>
       <use x="99.70703125" xlink:href="#BitstreamVeraSans-Roman-2e"/>
       <use x="131.494140625" xlink:href="#BitstreamVeraSans-Roman-35"/>
      </g>
     </g>
    </g>
    <g id="ytick_3">
     <g id="line2d_26">
      <path d="
M64.7562 174.678
L557.411 174.678" style="fill:none;stroke:#000000;stroke-dasharray:1.000000,3.000000;stroke-dashoffset:0.0;stroke-linecap:butt;stroke-width:0.5;"/>
     </g>
     <g id="line2d_27">
      <defs>
       <path d="
M0 0
L4 0" id="mc91e532072"/>
      </defs>
      <g>
       <use style="stroke:#000000;stroke-linecap:butt;stroke-width:0.5;" x="54.75625" xlink:href="#mc91e532072" y="174.677819194"/>
      </g>
     </g>
     <g id="text_6">
      <!-- 0 -->
      <g transform="translate(38.6625 183.413444194)scale(0.24 -0.24)">
       <use xlink:href="#BitstreamVeraSans-Roman-30"/>
      </g>
     </g>
    </g>
    <g id="ytick_4">
     <g id="line2d_28">
      <path d="
M64.7562 75.3452
L557.411 75.3452" style="fill:none;stroke:#000000;stroke-dasharray:1.000000,3.000000;stroke-dashoffset:0.0;stroke-linecap:butt;stroke-width:0.5;"/>
     </g>
     <g id="line2d_29">
      <defs>
       <path d="
M0 0
L4 0" id="mc91e532072"/>
      </defs>
      <g>
       <use style="stroke:#000000;stroke-linecap:butt;stroke-width:0.5;" x="54.75625" xlink:href="#mc91e532072" y="75.3452334676"/>
      </g>
     </g>
     <g id="text_7">
      <!-- 0.5 -->
      <g transform="translate(16.2675 84.0808584676)scale(0.24 -0.24)">
       <use xlink:href="#BitstreamVeraSans-Roman-30"/>
       <use x="63.623046875" xlink:href="#BitstreamVeraSans-Roman-2e"/>
       <use x="95.41015625" xlink:href="#BitstreamVeraSans-Roman-35"/>
      </g>
     </g>
    </g>
    <g id="ytick_5">
     <g id="line2d_30">
      <defs>
       <path d="
M0 0
L2 0" id="m0789224b6b"/>
      </defs>
      <g>
       <use style="stroke:#000000;stroke-linecap:butt;stroke-width:0.5;" x="54.75625" xlink:href="#m0789224b6b" y="413.076024936"/>
      </g>
     </g>
    </g>
    <g id="ytick_6">
     <g id="line2d_31">
      <defs>
       <path d="
M0 0
L2 0" id="m0789224b6b"/>
      </defs>
      <g>
       <use style="stroke:#000000;stroke-linecap:butt;stroke-width:0.5;" x="54.75625" xlink:href="#m0789224b6b" y="393.209507791"/>
      </g>
     </g>
    </g>
    <g id="ytick_7">
     <g id="line2d_32">
      <defs>
       <path d="
M0 0
L2 0" id="m0789224b6b"/>
      </defs>
      <g>
       <use style="stroke:#000000;stroke-linecap:butt;stroke-width:0.5;" x="54.75625" xlink:href="#m0789224b6b" y="353.476473501"/>
      </g>
     </g>
    </g>
    <g id="ytick_8">
     <g id="line2d_33">
      <defs>
       <path d="
M0 0
L2 0" id="m0789224b6b"/>
      </defs>
      <g>
       <use style="stroke:#000000;stroke-linecap:butt;stroke-width:0.5;" x="54.75625" xlink:href="#m0789224b6b" y="333.609956356"/>
      </g>
     </g>
    </g>
    <g id="ytick_9">
     <g id="line2d_34">
      <defs>
       <path d="
M0 0
L2 0" id="m0789224b6b"/>
      </defs>
      <g>
       <use style="stroke:#000000;stroke-linecap:butt;stroke-width:0.5;" x="54.75625" xlink:href="#m0789224b6b" y="313.74343921"/>
      </g>
     </g>
    </g>
    <g id="ytick_10">
     <g id="line2d_35">
      <defs>
       <path d="
M0 0
L2 0" id="m0789224b6b"/>
      </defs>
      <g>
       <use style="stroke:#000000;stroke-linecap:butt;stroke-width:0.5;" x="54.75625" xlink:href="#m0789224b6b" y="293.876922065"/>
      </g>
     </g>
    </g>
    <g id="ytick_11">
     <g id="line2d_36">
      <defs>
       <path d="
M0 0
L2 0" id="m0789224b6b"/>
      </defs>
      <g>
       <use style="stroke:#000000;stroke-linecap:butt;stroke-width:0.5;" x="54.75625" xlink:href="#m0789224b6b" y="274.01040492"/>
      </g>
     </g>
    </g>
    <g id="ytick_12">
     <g id="line2d_37">
      <defs>
       <path d="
M0 0
L2 0" id="m0789224b6b"/>
      </defs>
      <g>
       <use style="stroke:#000000;stroke-linecap:butt;stroke-width:0.5;" x="54.75625" xlink:href="#m0789224b6b" y="254.143887775"/>
      </g>
     </g>
    </g>
    <g id="ytick_13">
     <g id="line2d_38">
      <defs>
       <path d="
M0 0
L2 0" id="m0789224b6b"/>
      </defs>
      <g>
       <use style="stroke:#000000;stroke-linecap:butt;stroke-width:0.5;" x="54.75625" xlink:href="#m0789224b6b" y="234.277370629"/>
      </g>
     </g>
    </g>
    <g id="ytick_14">
     <g id="line2d_39">
      <defs>
       <path d="
M0 0
L2 0" id="m0789224b6b"/>
      </defs>
      <g>
       <use style="stroke:#000000;stroke-linecap:butt;stroke-width:0.5;" x="54.75625" xlink:href="#m0789224b6b" y="214.410853484"/>
      </g>
     </g>
    </g>
    <g id="ytick_15">
     <g id="line2d_40">
      <defs>
       <path d="
M0 0
L2 0" id="m0789224b6b"/>
      </defs>
      <g>
       <use style="stroke:#000000;stroke-linecap:butt;stroke-width:0.5;" x="54.75625" xlink:href="#m0789224b6b" y="194.544336339"/>
      </g>
     </g>
    </g>
    <g id="ytick_16">
     <g id="line2d_41">
      <defs>
       <path d="
M0 0
L2 0" id="m0789224b6b"/>
      </defs>
      <g>
       <use style="stroke:#000000;stroke-linecap:butt;stroke-width:0.5;" x="54.75625" xlink:href="#m0789224b6b" y="174.677819194"/>
      </g>
     </g>
    </g>
    <g id="ytick_17">
     <g id="line2d_42">
      <defs>
       <path d="
M0 0
L2 0" id="m0789224b6b"/>
      </defs>
      <g>
       <use style="stroke:#000000;stroke-linecap:butt;stroke-width:0.5;" x="54.75625" xlink:href="#m0789224b6b" y="154.811302049"/>
      </g>
     </g>
    </g>
    <g id="ytick_18">
     <g id="line2d_43">
      <defs>
       <path d="
M0 0
L2 0" id="m0789224b6b"/>
      </defs>
      <g>
       <use style="stroke:#000000;stroke-linecap:butt;stroke-width:0.5;" x="54.75625" xlink:href="#m0789224b6b" y="134.944784903"/>
      </g>
     </g>
    </g>
    <g id="ytick_19">
     <g id="line2d_44">
      <defs>
       <path d="
M0 0
L2 0" id="m0789224b6b"/>
      </defs>
      <g>
       <use style="stroke:#000000;stroke-linecap:butt;stroke-width:0.5;" x="54.75625" xlink:href="#m0789224b6b" y="115.078267758"/>
      </g>
     </g>
    </g>
    <g id="ytick_20">
     <g id="line2d_45">
      <defs>
       <path d="
M0 0
L2 0" id="m0789224b6b"/>
      </defs>
      <g>
       <use style="stroke:#000000;stroke-linecap:butt;stroke-width:0.5;" x="54.75625" xlink:href="#m0789224b6b" y="95.2117506129"/>
      </g>
     </g>
    </g>
    <g id="ytick_21">
     <g id="line2d_46">
      <defs>
       <path d="
M0 0
L2 0" id="m0789224b6b"/>
      </defs>
      <g>
       <use style="stroke:#000000;stroke-linecap:butt;stroke-width:0.5;" x="54.75625" xlink:href="#m0789224b6b" y="75.3452334676"/>
      </g>
     </g>
    </g>
    <g id="ytick_22">
     <g id="line2d_47">
      <defs>
       <path d="
M0 0
L2 0" id="m0789224b6b"/>
      </defs>
      <g>
       <use style="stroke:#000000;stroke-linecap:butt;stroke-width:0.5;" x="54.75625" xlink:href="#m0789224b6b" y="55.4787163224"/>
      </g>
     </g>
    </g>
    <g id="ytick_23">
     <g id="line2d_48">
      <defs>
       <path d="
M0 0
L2 0" id="m0789224b6b"/>
      </defs>
      <g>
       <use style="stroke:#000000;stroke-linecap:butt;stroke-width:0.5;" x="54.75625" xlink:href="#m0789224b6b" y="35.6121991772"/>
      </g>
     </g>
    </g>
   </g>
   <g id="patch_3">
    <path d="
M64.7562 174.678
L557.411 174.678" style="fill:none;stroke:#000000;stroke-width:0.8;"/>
   </g>
   <g id="patch_4">
    <path d="
M54.7562 413.28
L54.7562 7.2" style="fill:none;stroke:#000000;stroke-width:0.8;"/>
   </g>
  </g>
 </g>
 <defs>
  <clipPath id="pc47e9b5ce5">
   <rect height="406.08" width="492.655" x="64.75625" y="7.2"/>
  </clipPath>
 </defs>
</svg>
