<?xml version="1.0" encoding="utf-8" standalone="no"?>
<!DOCTYPE svg PUBLIC "-//W3C//DTD SVG 1.1//EN"
  "http://www.w3.org/Graphics/SVG/1.1/DTD/svg11.dtd">
<!-- Created with matplotlib (http://matplotlib.sourceforge.net/) -->
<svg height="419pt" version="1.1" viewBox="0 0 564 419" width="564pt" xmlns="http://www.w3.org/2000/svg" xmlns:xlink="http://www.w3.org/1999/xlink">
 <defs>
  <style type="text/css">
*{stroke-linecap:square;stroke-linejoin:round;}
  </style>
 </defs>
 <g id="figure_1">
  <g id="patch_1">
   <path d="
M4.44089e-16 419.617
L564.574 419.617
L564.574 0
L4.44089e-16 0
z
" style="fill:#ffffff;"/>
  </g>
  <g id="axes_1">
   <g id="patch_2">
    <path d="
M65.5062 408.105
L557.374 408.105
L557.374 7.2
L65.5062 7.2
z
" style="fill:#ffffff;"/>
   </g>
   <g id="line2d_1">
    <path clip-path="url(#pe422d99152)" d="
M74.9652 29.9732
L85.7826 29.9732
L85.7826 29.9732
L85.7826 29.9732
L99.4108 29.9732
L99.4108 29.9732
L99.4108 29.9732
L108.387 29.9732
L108.387 14.9097
L120.446 14.9097
L120.446 15.1991
L124.903 15.1991
L124.903 26.5795
L132.06 26.5795
L132.06 36.7685
L135.027 36.7685
L135.027 45.3442
L140.124 45.3442
L140.124 53.3466
L146.308 53.3466
L146.308 68.8082
L148.088 68.8082
L148.088 76.3164
L152.808 76.3164
L152.808 91.5181
L155.547 91.5181
L155.547 104.356
L156.817 104.356
L156.817 112.701
L159.19 112.701
L159.19 123.193
L162.396 123.193
L162.396 132.302
L165.257 132.302
L165.257 141.248
L166.146 141.248
L166.146 143.87
L168.649 143.87
L168.649 153.645
L170.196 153.645
L170.196 160.228
L170.937 160.228
L170.937 163.585
L173.045 163.585
L173.045 175.536
L174.362 175.536
L174.362 182.802
L176.224 182.802
L176.224 192.598
L178.521 192.598
L178.521 204.702
L179.599 204.702
L179.599 210.214
L180.122 210.214
L180.122 212.208
L181.138 212.208
L181.138 215.211
L181.632 215.211
L181.632 216.774
L182.594 216.774
L182.594 220.094
L185.71 220.094
L185.71 231.773
L186.537 231.773
L186.537 235.333
L187.732 235.333
L187.732 241.934
L188.119 241.934
L188.119 243.515
L189.972 243.515
L189.972 248.624
L190.328 248.624
L190.328 249.641
L191.368 249.641
L191.368 252.817
L192.368 252.817
L192.368 257.158
L193.015 257.158
L193.015 260.407
L193.957 260.407
L193.957 264.357
L194.866 264.357
L194.866 267.754
L195.163 267.754
L195.163 268.741
L196.597 268.741
L196.597 274.867
L196.875 274.867
L196.875 276.371
L197.422 276.371
L197.422 279.156
L197.692 279.156
L197.692 280.347
L199.254 280.347
L199.254 285.521
L200.73 285.521
L200.73 290.45
L201.204 290.45
L201.204 292.324
L201.438 292.324
L201.438 292.929
L201.9 292.929
L201.9 294.312
L202.578 294.312
L202.578 296.564
L202.801 296.564
L202.801 297.542
L203.885 297.542
L203.885 303.197
L204.516 303.197
L204.516 306.698
L205.131 306.698
L205.131 309.629
L205.733 309.629
L205.733 312.441
L205.931 312.441
L205.931 313.265
L206.515 313.265
L206.515 315.373
L206.897 315.373
L206.897 316.704
L207.087 316.704
L207.087 317.316
L208.013 317.316
L208.013 320.778
L209.258 320.778
L209.258 324.772
L209.604 324.772
L209.604 325.727
L209.775 325.727
L209.775 326.263
L210.114 326.263
L210.114 327.033
L211.267 327.033
L211.267 329.587
L211.746 329.587
L211.746 330.503
L212.526 330.503
L212.526 331.225
L212.679 331.225
L212.679 331.429
L212.983 331.429
L212.983 331.658
L213.433 331.658
L213.433 332.064
L214.021 332.064
L214.021 332.191
L216.385 332.245
L216.385 332.33
L216.912 332.33
L216.912 332.725
L218.309 332.779
L218.309 332.265
L218.8 332.163
L218.8 331.591
L219.042 331.591
L219.042 331.319
L219.401 331.319
L219.401 330.747
L219.872 330.747
L219.872 330.094
L220.105 330.094
L220.105 329.838
L220.22 329.838
L220.22 329.673
L220.45 329.673
L220.45 329.233
L221.127 329.233
L221.127 327.986
L221.568 327.986
L221.568 326.82
L221.787 326.82
L221.787 326.117
L222.218 326.117
L222.218 324.841
L222.431 324.841
L222.431 324.155
L222.747 324.155
L222.747 323.065
L223.369 323.065
L223.471 320.865
L224.374 320.865
L224.374 319.079
L224.668 319.079
L224.668 318.751
L225.151 318.751
L225.151 318.249
L225.437 318.249
L225.437 317.737
L225.72 317.737
L225.814 316.947
L226.093 316.947
L226.093 316.237
L226.551 316.237
L226.551 314.801
L226.822 314.801
L226.822 313.873
L227.091 313.873
L227.18 312.514
L227.445 312.514
L227.445 311.569
L227.707 311.569
L227.707 310.5
L227.881 310.5
L227.967 309.51
L228.479 309.51
L228.479 307.886
L228.899 307.886
L228.982 306.134
L229.147 306.134
L229.147 305.66
L229.394 305.66
L229.394 304.901
L229.638 304.901
L229.719 303.906
L230.199 303.906
L230.199 301.997
L230.357 301.997
L230.357 301.395
L230.592 301.395
L230.592 300.513
L230.903 300.513
L230.903 299.41
L231.286 299.41
L231.286 298.245
L231.589 298.245
L231.589 297.383
L231.962 297.383
L231.962 296.471
L232.258 296.471
L232.258 295.608
L232.477 295.608
L232.477 294.891
L232.694 294.891
L232.694 294.24
L232.838 294.24
L232.838 293.806
L233.124 293.806
L233.124 292.925
L233.336 292.925
L233.336 292.361
L233.477 292.361
L233.477 291.973
L233.756 291.973
L233.756 291.317
L233.894 291.317
L233.894 291.065
L234.373 291.065
L234.373 290.195
L234.71 290.195
L234.71 289.706
L235.109 289.706
L235.175 288.784
L235.502 288.784
L235.567 287.961
L235.696 287.961
L235.76 287.499
L236.08 287.499
L236.08 286.946
L236.522 286.946
L236.522 285.952
L236.647 285.952
L236.709 285.524
L236.833 285.524
L236.833 285.358
L237.262 285.358
L237.262 284.873
L237.383 284.873
L237.444 284.71
L238.159 284.651
L238.159 284.497
L238.799 284.505
L238.799 284.613
L239.028 284.613
L239.028 284.763
L240.683 284.662
L240.683 284.625
L242.343 284.664
L242.394 284.421
L242.989 284.322
L243.087 283.958
L243.233 283.887
L243.233 283.734
L243.379 283.734
L243.379 283.498
L243.524 283.498
L243.524 283.303
L243.716 283.303
L243.716 283.065
L243.858 283.065
L243.858 282.879
L244.001 282.879
L244.001 282.732
L244.515 282.732
L244.562 282.193
L245.202 282.178
L245.202 282.318
L245.472 282.398
L245.472 282.49
L245.65 282.49
L245.65 282.705
L245.915 282.705
L246.003 283.198
L246.134 283.198
L246.134 283.414
L246.265 283.414
L246.308 283.679
L246.438 283.679
L246.438 283.863
L246.695 283.863
L246.695 284.252
L246.908 284.252
L246.908 284.684
L247.287 284.684
L247.329 285.534
L247.412 285.534
L247.412 285.703
L247.536 285.703
L247.578 286.124
L247.702 286.124
L247.784 286.654
L247.825 286.654
L247.906 287.072
L248.15 287.072
L248.191 288.174
L248.312 288.174
L248.312 288.642
L248.987 288.642
L248.987 291.548
L249.104 291.548
L249.104 292.052
L249.221 292.052
L249.221 292.569
L249.376 292.569
L249.376 293.298
L249.721 293.298
L249.721 294.856
L249.911 294.856
L249.911 295.688
L250.175 295.688
L250.25 297.117
L250.287 297.117
L250.362 297.667
L250.473 297.667
L250.473 298.179
L250.621 298.179
L250.732 299.331
L250.842 299.331
L250.842 299.793
L251.06 299.793
L251.06 300.79
L251.241 300.79
L251.349 302.024
L251.385 302.024
L251.456 302.472
L251.563 302.472
L251.563 302.88
L251.776 302.88
L251.776 303.694
L251.987 303.694
L251.987 304.513
L252.127 304.513
L252.127 305.075
L252.335 305.075
L252.438 306.225
L252.507 306.225
L252.61 306.773
L252.747 306.773
L252.815 307.324
L252.95 307.324
L253.018 307.932
L253.253 307.932
L253.319 308.981
L253.419 308.981
L253.519 309.649
L253.618 309.649
L253.651 310.138
L253.749 310.138
L253.749 310.529
L253.913 310.529
L253.913 311.248
L254.237 311.248
L254.333 312.916
L254.397 312.916
L254.429 313.256
L254.81 313.256
L254.904 314.922
L255.061 314.922
L255.061 315.471
L255.248 315.471
L255.279 316.281
L255.433 316.281
L255.433 316.796
L255.556 316.796
L255.648 317.515
L255.739 317.515
L255.83 318.21
L256.102 318.21
L256.192 319.393
L256.252 319.393
L256.282 319.733
L256.46 319.733
L256.46 320.382
L256.608 320.382
L256.608 320.901
L256.784 320.901
L256.784 321.465
L256.901 321.465
L256.901 321.854
L257.133 321.854
L257.133 322.538
L257.334 322.538
L257.42 323.243
L257.506 323.347
L257.591 323.541
L257.733 323.541
L257.733 323.781
L257.902 323.781
L257.986 324.2
L258.069 324.2
L258.069 324.361
L258.319 324.361
L258.347 324.914
L258.567 324.914
L258.594 325.368
L258.893 325.368
L258.974 325.98
L259.082 325.98
L259.162 326.419
L259.216 326.419
L259.296 326.754
L259.402 326.754
L259.482 327.17
L259.614 327.17
L259.64 327.517
L259.771 327.517
L259.771 327.84
L259.954 327.84
L259.954 328.244
L260.083 328.244
L260.161 328.726
L260.315 328.726
L260.417 329.426
L260.545 329.426
L260.545 329.794
L260.697 329.794
L260.722 330.295
L260.924 330.295
L261.024 331.068
L261.073 331.068
L261.098 331.269
L261.223 331.269
L261.322 331.792
L261.543 331.792
L261.543 332.353
L261.835 332.353
L261.883 333.086
L261.956 333.086
L262.052 333.364
L262.244 333.364
L262.315 333.677
L262.41 333.677
L262.41 333.811
L262.599 333.811
L262.67 334.171
L262.833 334.261
L262.903 334.348
L263.365 334.437
L263.456 334.54
L263.863 334.629
L263.93 334.706
L264.308 334.816
L264.375 334.874
L265.241 334.949
L265.241 335.006
L266.039 335.047
L266.039 335.238
L266.184 335.333
L266.184 335.349
L266.348 335.349
L266.429 335.527
L266.733 335.62
L266.834 335.679
L266.974 335.717
L267.034 335.856
L267.193 335.955
L267.252 336.044
L267.371 336.148
L267.449 336.34
L267.547 336.34
L267.567 336.548
L267.664 336.548
L267.742 336.864
L267.916 336.922
L268.013 337.299
L268.128 337.299
L268.204 337.687
L268.413 337.791
L268.413 338.064
L268.545 338.064
L268.639 338.431
L268.77 338.541
L268.808 338.672
L268.975 338.672
L269.049 339.04
L269.141 339.04
L269.251 339.387
L269.416 339.497
L269.525 339.772
L269.652 339.772
L269.742 340.029
L270.064 340.139
L270.171 340.612
L270.4 340.711
L270.506 340.918
L270.663 341.014
L270.767 341.192
L271.025 341.281
L271.128 341.629
L271.265 341.629
L271.265 341.783
L271.485 341.783
L271.535 342.167
L271.636 342.167
L271.72 342.495
L271.82 342.495
L271.87 342.748
L271.936 342.748
L272.036 343.049
L272.217 343.049
L272.282 343.546
L272.381 343.546
L272.381 343.772
L272.608 343.772
L272.673 344.48
L272.721 344.48
L272.801 344.812
L272.849 344.812
L272.865 344.996
L272.961 344.996
L272.993 345.344
L273.089 345.344
L273.2 345.932
L273.326 345.932
L273.342 346.336
L273.467 346.336
L273.514 346.876
L273.67 346.876
L273.67 347.331
L273.794 347.331
L273.902 348.04
L273.948 348.137
L273.948 348.188
L274.117 348.188
L274.178 348.991
L274.27 348.991
L274.315 349.511
L274.391 349.511
L274.497 350.177
L274.542 350.177
L274.632 350.673
L274.722 350.673
L274.811 351.33
L274.885 351.33
L274.989 351.921
L275.034 351.921
L275.107 352.322
L275.166 352.322
L275.254 352.892
L275.371 352.892
L275.473 353.677
L275.603 353.782
L275.676 354.373
L275.733 354.373
L275.805 354.842
L275.862 354.842
L275.948 355.397
L276.105 355.397
L276.161 356.185
L276.232 356.185
L276.331 356.812
L276.401 356.912
L276.401 357.064
L276.527 357.064
L276.611 357.776
L276.708 357.776
L276.819 358.447
L276.915 358.447
L276.997 358.991
L277.121 358.991
L277.23 359.704
L277.27 359.704
L277.365 360.14
L277.527 360.226
L277.527 360.644
L277.675 360.644
L277.768 361.358
L277.835 361.424
L277.928 361.79
L278.073 361.79
L278.126 362.362
L278.231 362.362
L278.27 362.753
L278.348 362.753
L278.401 363.102
L278.479 363.102
L278.582 363.618
L278.621 363.659
L278.66 363.878
L278.75 363.878
L278.788 364.334
L278.903 364.334
L278.903 364.695
L279.056 364.695
L279.158 365.508
L279.234 365.546
L279.322 366.042
L279.385 366.042
L279.435 366.443
L279.497 366.443
L279.572 366.885
L279.609 366.885
L279.659 367.195
L279.845 367.195
L279.919 368.049
L279.98 368.049
L280.066 368.495
L280.127 368.495
L280.236 369.014
L280.346 369.121
L280.43 369.537
L280.538 369.537
L280.634 370.074
L280.778 370.164
L280.849 370.605
L280.932 370.605
L281.027 371.032
L281.168 371.032
L281.25 371.459
L281.378 371.52
L281.46 371.807
L281.598 371.868
L281.702 372.194
L281.771 372.294
L281.84 372.431
L281.931 372.523
L282 372.695
L282.17 372.793
L282.237 373.032
L282.339 373.032
L282.384 373.229
L282.518 373.229
L282.618 373.531
L283.179 373.624
L283.266 373.71
L283.439 373.805
L283.536 373.891
L284.225 373.987
L284.329 374.068
L284.599 374.176
L284.691 374.22
L285.492 374.113
L285.512 374.069
L285.907 373.958
L285.996 373.884
L286.132 373.79
L286.162 373.725
L286.249 373.725
L286.346 373.46
L286.519 373.387
L286.596 373.12
L286.834 373.038
L286.92 372.882
L287.117 372.787
L287.202 372.625
L287.37 372.537
L287.426 372.364
L287.564 372.364
L287.666 372.133
L287.84 372.049
L287.94 371.935
L288.104 371.858
L288.131 371.747
L288.221 371.747
L288.293 371.551
L288.481 371.478
L288.508 371.299
L288.614 371.19
L288.694 371.066
L288.8 370.968
L288.888 370.805
L288.958 370.761
L289.063 370.514
L289.142 370.454
L289.229 370.253
L289.324 370.168
L289.427 369.934
L289.513 369.845
L289.565 369.719
L289.642 369.719
L289.744 369.462
L289.872 369.357
L289.964 369.288
L290.787 369.345
L290.893 369.518
L291.015 369.619
L291.104 369.729
L291.258 369.793
L291.354 369.919
L291.514 370.005
L291.585 370.11
L291.751 370.166
L291.83 370.316
L291.917 370.383
L292.018 370.552
L292.128 370.618
L292.228 370.833
L292.337 370.941
L292.36 370.992
L292.475 370.992
L292.567 371.273
L292.667 371.379
L292.75 371.549
L292.842 371.652
L292.94 371.81
L293.068 371.854
L293.165 372.103
L293.344 372.204
L293.404 372.348
L293.5 372.44
L293.603 372.58
L293.787 372.668
L293.874 372.748
L294.049 372.828
L294.135 372.913
L294.365 373.018
L294.473 373.112
L294.622 373.216
L294.728 373.323
L294.883 373.421
L294.946 373.516
L295.113 373.599
L295.217 373.752
L295.363 373.839
L295.425 373.909
L295.623 373.99
L295.705 374.074
L296.016 374.177
L296.117 374.273
L296.277 374.38
L296.37 374.43
L296.529 374.532
L296.628 374.64
L296.792 374.745
L296.87 374.818
L297 374.917
L297.104 375.048
L297.213 375.149
L297.316 375.246
L297.603 375.345
L297.634 375.392
L297.691 375.385
L298.968 375.473
L299.064 375.561
L299.273 375.66
L299.38 375.782
L299.504 375.869
L299.581 375.949
L299.844 376.054
L299.932 376.091
L301.734 375.983
L301.745 375.975
L301.815 375.976
L302.057 375.87
L302.122 375.817
L302.356 375.721
L302.457 375.64
L302.751 375.547
L302.86 375.429
L303.016 375.323
L303.094 375.247
L303.325 375.136
L303.401 375.092
L304.85 375.196
L304.961 375.287
L305.148 375.395
L305.248 375.436
L305.523 375.545
L305.617 375.615
L305.79 375.72
L305.897 375.798
L306.105 375.88
L306.202 376.019
L306.33 376.124
L306.426 376.339
L306.558 376.435
L306.657 376.724
L306.752 376.775
L306.855 376.977
L306.953 377.066
L307.029 377.22
L307.14 377.304
L307.22 377.532
L307.282 377.628
L307.387 377.871
L307.492 377.937
L307.588 378.262
L307.667 378.367
L307.767 378.558
L307.875 378.656
L307.978 378.958
L308.042 379.023
L308.141 379.299
L308.205 379.383
L308.311 379.629
L308.383 379.736
L308.484 379.98
L308.547 380.027
L308.652 380.258
L308.74 380.333
L308.84 380.552
L308.965 380.636
L309.072 380.905
L309.195 381
L309.294 381.179
L309.384 381.216
L309.493 381.41
L309.639 381.519
L309.736 381.573
L309.936 381.676
L310.044 381.805
L310.273 381.906
L310.379 381.967
L310.765 382.076
L310.866 382.091
L311.813 381.987
L311.902 381.926
L312.112 381.821
L312.222 381.748
L312.676 381.646
L312.777 381.561
L312.981 381.459
L313.066 381.419
L315.092 381.332
L315.184 381.254
L315.533 381.147
L315.639 381.057
L315.765 380.96
L315.874 380.84
L316.014 380.733
L316.103 380.61
L316.236 380.499
L316.339 380.392
L316.496 380.286
L316.599 380.199
L316.843 380.091
L316.954 380.024
L317.098 379.917
L317.201 379.868
L317.471 379.764
L317.564 379.739
L317.895 379.635
L317.989 379.575
L319.176 379.479
L319.28 379.391
L319.428 379.283
L319.537 379.204
L320.053 379.106
L320.159 379.052
L320.319 378.95
L320.419 378.853
L320.538 378.772
L320.637 378.644
L320.749 378.547
L320.858 378.42
L320.993 378.32
L321.079 378.239
L321.2 378.128
L321.271 378.021
L321.372 377.928
L321.473 377.777
L321.579 377.67
L321.68 377.514
L321.795 377.422
L321.897 377.206
L321.964 377.132
L322.073 376.893
L322.141 376.799
L322.232 376.627
L322.327 376.534
L322.425 376.354
L322.5 376.25
L322.607 376.082
L322.711 375.971
L322.815 375.856
L322.945 375.751
L323.048 375.634
L323.143 375.546
L323.245 375.38
L323.339 375.273
L323.436 375.107
L323.505 375.063
L323.599 374.832
L323.67 374.745
L323.773 374.518
L323.842 374.412
L323.915 374.247
L323.972 374.139
L324.075 373.924
L324.146 373.825
L324.253 373.578
L324.323 373.474
L324.428 373.259
L324.497 373.16
L324.608 373.007
L324.725 372.898
L324.826 372.793
L324.942 372.686
L325.044 372.565
L325.173 372.477
L325.283 372.37
L325.424 372.26
L325.529 372.201
L325.9 372.09
L326.005 372.04
L326.299 371.93
L326.405 371.847
L326.653 371.736
L326.764 371.691
L327.053 371.588
L327.137 371.526
L327.306 371.416
L327.41 371.371
L327.586 371.264
L327.689 371.174
L327.85 371.064
L327.958 370.983
L328.124 370.875
L328.233 370.801
L328.376 370.694
L328.477 370.587
L328.597 370.486
L328.703 370.366
L328.818 370.272
L328.928 370.128
L329.024 370.024
L329.133 369.909
L329.261 369.805
L329.367 369.667
L329.612 369.556
L329.717 369.509
L329.925 369.402
L330.035 369.233
L330.134 369.127
L330.235 368.996
L330.343 368.892
L330.449 368.768
L330.552 368.664
L330.657 368.529
L330.774 368.424
L330.884 368.294
L330.974 368.192
L331.083 368.062
L331.182 367.952
L331.29 367.801
L331.381 367.69
L331.488 367.512
L331.556 367.417
L331.664 367.227
L331.733 367.122
L331.828 366.96
L331.916 366.865
L332.026 366.715
L332.121 366.605
L332.231 366.483
L332.389 366.377
L332.498 366.266
L332.616 366.156
L332.718 366.06
L332.831 365.951
L332.938 365.846
L333.072 365.747
L333.148 365.67
L333.289 365.562
L333.394 365.495
L333.704 365.386
L333.813 365.344
L334.289 365.234
L334.389 365.209
L334.793 365.1
L334.891 365.048
L335.106 364.937
L335.21 364.864
L335.449 364.755
L335.554 364.708
L335.807 364.603
L335.914 364.519
L336.123 364.419
L336.226 364.341
L336.447 364.233
L336.553 364.166
L336.711 364.057
L336.814 363.96
L336.945 363.851
L337.049 363.749
L337.183 363.648
L337.28 363.537
L337.383 363.438
L337.492 363.303
L337.592 363.195
L337.702 363.011
L337.801 362.914
L337.893 362.776
L337.993 362.676
L338.085 362.545
L338.189 362.461
L338.296 362.304
L338.389 362.203
L338.498 362.041
L338.594 361.939
L338.703 361.817
L338.842 361.719
L338.95 361.611
L339.059 361.511
L339.167 361.399
L339.32 361.292
L339.418 361.173
L339.538 361.065
L339.647 360.952
L339.758 360.845
L339.868 360.72
L340.008 360.611
L340.105 360.539
L340.255 360.431
L340.361 360.348
L340.507 360.238
L340.613 360.144
L340.76 360.035
L340.865 359.98
L341.11 359.872
L341.218 359.804
L341.461 359.697
L341.571 359.638
L342.95 359.528
L343.058 359.507
L343.918 359.609
L344.025 359.669
L344.262 359.779
L344.37 359.829
L345.109 359.939
L345.216 359.958
L345.685 360.069
L345.794 360.137
L345.947 360.242
L346.049 360.374
L346.163 360.482
L346.272 360.571
L346.428 360.675
L346.533 360.778
L346.665 360.887
L346.773 360.975
L346.938 361.083
L347.046 361.173
L347.181 361.283
L347.292 361.343
L347.593 361.454
L347.704 361.463
L348.094 361.353
L348.203 361.257
L348.313 361.156
L348.413 361.048
L348.568 360.939
L348.677 360.832
L348.799 360.726
L348.907 360.586
L348.987 360.489
L349.097 360.309
L349.186 360.2
L349.293 360.099
L349.451 359.991
L349.561 359.898
L349.698 359.788
L349.803 359.609
L349.881 359.505
L349.987 359.354
L350.089 359.247
L350.198 359.107
L350.307 358.999
L350.416 358.878
L350.538 358.768
L350.647 358.632
L350.749 358.522
L350.856 358.423
L351.004 358.313
L351.112 358.208
L351.224 358.1
L351.331 358.01
L353.344 357.9
L353.445 357.847
L353.613 357.737
L353.722 357.673
L354.161 357.563
L354.271 357.531
L354.632 357.424
L354.738 357.371
L354.96 357.26
L355.066 357.216
L355.436 357.105
L355.547 357.052
L355.934 356.942
L356.045 356.906
L357.427 357.016
L357.537 357.072
L357.744 357.181
L357.849 357.258
L358.012 357.367
L358.12 357.439
L358.292 357.548
L358.402 357.611
L359.715 357.5
L359.782 357.494
L359.825 357.497
L360.918 357.605
L361.023 357.647
L361.905 357.757
L362.016 357.792
L362.332 357.903
L362.438 357.965
L362.762 358.076
L362.87 358.115
L363.367 358.225
L363.474 358.251
L364.156 358.362
L364.266 358.428
L364.642 358.539
L364.75 358.575
L364.968 358.685
L365.078 358.737
L365.287 358.848
L365.398 358.926
L365.523 359.035
L365.626 359.138
L365.717 359.244
L365.822 359.377
L365.909 359.488
L366.02 359.628
L366.12 359.736
L366.23 359.856
L366.348 359.965
L366.459 360.074
L366.575 360.183
L366.686 360.268
L366.866 360.379
L366.975 360.453
L367.146 360.56
L367.254 360.633
L367.604 360.744
L367.71 360.793
L367.86 360.903
L367.967 360.967
L368.135 361.077
L368.245 361.158
L368.416 361.269
L368.525 361.341
L368.74 361.45
L368.85 361.546
L368.977 361.657
L369.086 361.765
L369.194 361.876
L369.305 361.986
L369.389 362.09
L369.499 362.252
L369.597 362.359
L369.704 362.498
L369.798 362.608
L369.906 362.716
L370.022 362.823
L370.128 362.932
L370.246 363.042
L370.354 363.165
L370.442 363.276
L370.55 363.415
L370.693 363.524
L370.802 363.602
L370.985 363.712
L371.094 363.784
L371.293 363.894
L371.403 363.94
L371.741 364.05
L371.849 364.081
L372.159 364.189
L372.265 364.262
L372.442 364.37
L372.552 364.445
L372.729 364.555
L372.84 364.621
L373.002 364.732
L373.112 364.813
L373.243 364.922
L373.352 365
L373.541 365.11
L373.648 365.2
L373.788 365.31
L373.898 365.386
L374.218 365.497
L374.326 365.55
L374.508 365.66
L374.617 365.697
L375.259 365.808
L375.368 365.885
L375.525 365.996
L375.631 366.093
L375.755 366.203
L375.866 366.305
L375.993 366.415
L376.102 366.53
L376.224 366.64
L376.335 366.736
L376.473 366.847
L376.582 366.92
L376.796 367.031
L376.905 367.081
L377.534 366.971
L377.644 366.903
L377.925 366.793
L378.035 366.754
L379.316 366.864
L379.425 366.904
L379.6 367.015
L379.71 367.114
L379.821 367.225
L379.931 367.352
L380.029 367.461
L380.139 367.603
L380.234 367.711
L380.343 367.834
L380.448 367.945
L380.558 368.07
L380.655 368.179
L380.765 368.309
L380.866 368.42
L380.975 368.554
L381.059 368.663
L381.17 368.808
L381.248 368.916
L381.356 369.049
L381.451 369.158
L381.561 369.308
L381.659 369.419
L381.766 369.551
L381.841 369.659
L381.952 369.855
L382.007 369.96
L382.118 370.195
L382.175 370.304
L382.283 370.531
L382.336 370.635
L382.447 370.893
L382.499 371.004
L382.607 371.224
L382.663 371.334
L382.773 371.579
L382.822 371.686
L382.932 371.966
L382.982 372.066
L383.091 372.325
L383.141 372.434
L383.252 372.685
L383.306 372.787
L383.416 373.014
L383.474 373.121
L383.584 373.345
L383.639 373.455
L383.75 373.688
L383.805 373.797
L383.916 374.038
L383.967 374.147
L384.077 374.385
L384.127 374.487
L384.238 374.761
L384.286 374.871
L384.397 375.15
L384.442 375.26
L384.552 375.549
L384.597 375.653
L384.708 375.923
L384.754 376.033
L384.862 376.286
L384.913 376.394
L385.023 376.638
L385.073 376.748
L385.183 377.027
L385.228 377.138
L385.338 377.41
L385.384 377.513
L385.494 377.786
L385.541 377.897
L385.652 378.136
L385.71 378.244
L385.82 378.455
L385.877 378.565
L385.987 378.788
L386.044 378.897
L386.154 379.109
L386.221 379.218
L386.332 379.397
L386.403 379.507
L386.511 379.682
L386.581 379.789
L386.691 379.958
L386.773 380.067
L386.882 380.234
L386.948 380.343
L387.059 380.535
L387.127 380.645
L387.236 380.821
L387.3 380.929
L387.409 381.139
L387.471 381.248
L387.582 381.485
L387.635 381.594
L387.745 381.839
L387.797 381.949
L387.907 382.205
L387.95 382.314
L388.06 382.608
L388.106 382.717
L388.217 382.996
L388.264 383.104
L388.375 383.383
L388.42 383.491
L388.528 383.779
L388.574 383.885
L388.682 384.134
L388.734 384.245
L388.843 384.469
L388.902 384.58
L389.012 384.811
L389.065 384.918
L389.176 385.184
L389.229 385.294
L389.339 385.537
L389.394 385.648
L389.505 385.865
L389.563 385.974
L389.674 386.193
L389.729 386.303
L389.839 386.549
L389.886 386.659
L389.996 386.95
L390.044 387.06
L390.155 387.331
L390.201 387.44
L390.312 387.731
L390.353 387.841
L390.464 388.138
L390.508 388.248
L390.618 388.539
L390.66 388.645
L390.771 388.959
L390.812 389.069
L390.923 389.368
L390.968 389.477
L391.079 389.766
L391.121 389.874
L391.229 390.144
L391.276 390.255
L391.387 390.48
L391.437 390.59
L391.548 390.847
L391.601 390.952
L391.71 391.2
L391.757 391.31
L391.868 391.578
L391.916 391.686
L392.026 391.945
L392.074 392.055
L392.185 392.321
L392.233 392.423
L392.344 392.713
L392.389 392.821
L392.499 393.108
L392.545 393.206
L392.651 393.469
L392.698 393.572
L392.808 393.835
L392.857 393.945
L392.966 394.221
L393.012 394.331
L393.122 394.584
L393.177 394.695
L393.288 394.91
L393.347 395.018
L393.457 395.225
L393.518 395.332
L393.629 395.526
L393.691 395.635
L393.8 395.834
L393.864 395.945
L393.971 396.161
L394.03 396.271
L394.141 396.468
L394.209 396.575
L394.32 396.774
L394.385 396.885
L394.495 397.062
L394.574 397.171
L394.684 397.331
L394.759 397.441
L394.87 397.612
L394.943 397.723
L395.054 397.915
L395.119 398.026
L395.229 398.206
L395.308 398.317
L395.418 398.456
L395.521 398.566
L395.631 398.686
L395.742 398.797
L395.852 398.913
L395.975 399.024
L396.086 399.126
L396.219 399.237
L396.33 399.32
L396.505 399.43
L396.614 399.491
L396.83 399.602
L396.941 399.653
L397.102 399.764
L397.213 399.859
L397.356 399.97
L397.467 400.044
L397.632 400.155
L397.742 400.233
L397.972 400.344
L398.081 400.374
L398.854 400.263
L398.965 400.241
L399.946 400.13
L400.057 400.079
L400.238 399.968
L400.349 399.891
L400.483 399.781
L400.593 399.677
L400.755 399.566
L400.865 399.487
L401.005 399.377
L401.115 399.309
L401.676 399.198
L401.787 399.155
L401.982 399.044
L402.092 398.976
L402.267 398.865
L402.378 398.763
L402.501 398.652
L402.612 398.542
L402.71 398.433
L402.82 398.286
L402.921 398.176
L403.032 398.06
L403.161 397.949
L403.271 397.903
L403.688 397.792
L403.799 397.732
L403.97 397.621
L404.081 397.533
L404.209 397.422
L404.32 397.33
L404.464 397.22
L404.574 397.13
L404.694 397.019
L404.804 396.92
L405.024 396.809
L405.076 396.803
L405.135 396.804
L406.223 396.694
L406.334 396.633
L406.561 396.522
L406.672 396.48
L407.385 396.369
L407.492 396.329
L407.653 396.218
L407.763 396.127
L407.876 396.016
L407.986 395.89
L408.071 395.78
L408.182 395.632
L408.275 395.521
L408.385 395.374
L408.468 395.263
L408.579 395.099
L408.655 394.989
L408.764 394.861
L408.877 394.751
L408.988 394.638
L409.133 394.528
L409.243 394.415
L409.344 394.304
L409.455 394.167
L409.533 394.056
L409.642 393.874
L409.709 393.764
L409.82 393.586
L409.879 393.475
L409.99 393.252
L410.043 393.142
L410.154 392.929
L410.217 392.82
L410.327 392.634
L410.392 392.523
L410.503 392.313
L410.557 392.202
L410.668 391.97
L410.721 391.86
L410.831 391.603
L410.882 391.492
L410.992 391.241
L411.042 391.13
L411.153 390.868
L411.2 390.758
L411.311 390.462
L411.351 390.351
L411.461 390.049
L411.5 389.938
L411.611 389.616
L411.65 389.505
L411.761 389.186
L411.802 389.075
L411.913 388.787
L411.959 388.678
L412.07 388.421
L412.123 388.311
L412.234 388.098
L412.301 387.987
L412.412 387.819
L412.486 387.708
L412.597 387.529
L412.661 387.418
L412.772 387.22
L412.837 387.109
L412.947 386.897
L413.002 386.786
L413.112 386.554
L413.165 386.444
L413.276 386.174
L413.321 386.063
L413.432 385.8
L413.482 385.689
L413.593 385.463
L413.657 385.353
L413.767 385.153
L413.829 385.042
L413.94 384.863
L414.013 384.753
L414.123 384.58
L414.191 384.47
L414.302 384.287
L414.374 384.179
L414.485 383.99
L414.541 383.88
L414.652 383.647
L414.706 383.537
L414.817 383.315
L414.87 383.204
L414.981 382.967
L415.032 382.856
L415.143 382.615
L415.2 382.504
L415.311 382.317
L415.381 382.205
L415.492 382.04
L415.56 381.93
L415.671 381.745
L415.746 381.635
L415.857 381.476
L415.94 381.366
L416.051 381.202
L416.116 381.091
L416.226 380.896
L416.288 380.785
L416.399 380.588
L416.46 380.477
L416.572 380.281
L416.639 380.17
L416.75 379.994
L416.818 379.883
L416.928 379.742
L417.032 379.631
L417.142 379.517
L417.254 379.406
L417.365 379.268
L417.455 379.158
L417.566 379.019
L417.649 378.909
L417.76 378.747
L417.841 378.636
L417.952 378.5
L418.048 378.389
L418.159 378.257
L418.251 378.146
L418.362 378.012
L418.468 377.902
L418.579 377.782
L418.676 377.671
L418.787 377.527
L418.869 377.417
L418.98 377.253
L419.045 377.143
L419.156 376.931
L419.217 376.82
L419.328 376.618
L419.389 376.507
L419.5 376.308
L419.568 376.198
L419.679 376.039
L419.761 375.93
L419.872 375.798
L419.977 375.687
L420.088 375.584
L420.227 375.473
L420.337 375.376
L420.452 375.266
L420.562 375.138
L420.655 375.027
L420.765 374.897
L420.869 374.786
L420.978 374.683
L421.11 374.572
L421.22 374.492
L421.415 374.381
L421.526 374.336
L421.933 374.225
L422.043 374.167
L422.286 374.056
L422.396 374.01
L422.747 373.899
L422.858 373.862
L423.062 373.751
L423.173 373.666
L423.291 373.555
L423.402 373.452
L423.515 373.341
L423.626 373.226
L423.768 373.116
L423.878 373.056
L424.209 372.945
L424.319 372.888
L424.491 372.777
L424.602 372.703
L424.758 372.592
L424.868 372.499
L425.029 372.388
L425.14 372.324
L425.399 372.213
L425.51 372.169
L425.71 372.058
L425.821 372.008
L426.057 371.897
L426.168 371.847
L426.428 371.736
L426.538 371.711
L426.539 371.711
L427.107 371.6
L427.218 371.511
L427.351 371.4
L427.462 371.31
L427.584 371.199
L427.695 371.124
L427.836 371.013
L427.947 370.942
L428.142 370.831
L428.252 370.737
L428.392 370.626
L428.503 370.518
L428.636 370.407
L428.747 370.334
L428.918 370.224
L429.029 370.124
L429.217 370.013
L429.328 369.932
L429.464 369.822
L429.575 369.718
L429.696 369.607
L429.807 369.514
L429.936 369.403
L430.047 369.311
L430.184 369.201
L430.294 369.139
L430.516 369.028
L430.627 368.967
L430.754 368.857
L430.865 368.747
L430.972 368.637
L431.083 368.518
L431.191 368.407
L431.302 368.319
L431.511 368.208
L431.622 368.148
L431.86 368.036
L431.971 367.978
L432.103 367.867
L432.214 367.778
L432.388 367.667
L432.499 367.605
L432.748 367.494
L432.859 367.441
L433.025 367.33
L433.136 367.259
L433.333 367.148
L433.444 367.069
L433.604 366.958
L433.715 366.908
L433.887 366.797
L433.998 366.72
L434.15 366.609
L434.261 366.537
L434.426 366.426
L434.537 366.328
L434.669 366.217
L434.779 366.115
L434.89 366.004
L435.001 365.891
L435.095 365.78
L435.205 365.647
L435.307 365.536
L435.418 365.412
L435.523 365.301
L435.634 365.196
L435.756 365.085
L435.867 365.014
L436.125 364.903
L436.235 364.849
L439.002 364.96
L439.113 364.999
L439.99 365.11
L440.101 365.154
L440.917 365.266
L441.028 365.313
L441.26 365.424
L441.371 365.479
L441.586 365.59
L441.697 365.665
L441.85 365.776
L441.961 365.855
L442.197 365.967
L442.308 366.012
L442.546 366.123
L442.657 366.225
L442.782 366.336
L442.893 366.412
L443.066 366.523
L443.177 366.598
L443.345 366.709
L443.456 366.798
L443.59 366.909
L443.701 366.996
L443.852 367.108
L443.963 367.178
L444.276 367.289
L444.387 367.313
L444.761 367.424
L444.872 367.455
L445.406 367.566
L445.517 367.614
L446.143 367.725
L446.152 367.725
L446.156 367.725
L446.156 367.725
L446.211 367.721
L446.267 367.724
L448.107 367.613
L448.218 367.576
L448.38 367.465
L448.492 367.368
L448.657 367.257
L448.768 367.214
L449.096 367.103
L449.207 367.043
L449.532 366.932
L449.643 366.901
L449.87 366.79
L449.981 366.735
L450.193 366.624
L450.304 366.568
L451.442 366.679
L451.553 366.73
L451.889 366.841
L452 366.882
L452.247 366.993
L452.358 367.036
L452.662 367.147
L452.773 367.193
L452.995 367.304
L453.106 367.361
L453.355 367.472
L453.466 367.54
L453.614 367.651
L453.725 367.747
L453.977 367.858
L454.088 367.892
L454.308 368.003
L454.419 368.073
L454.595 368.184
L454.706 368.245
L454.894 368.356
L455.005 368.43
L455.173 368.541
L455.284 368.614
L455.474 368.725
L455.585 368.796
L455.713 368.907
L455.824 369.027
L455.923 369.138
L456.034 369.255
L456.148 369.366
L456.259 369.473
L456.415 369.584
L456.525 369.682
L456.673 369.793
L456.784 369.88
L456.99 369.991
L457.101 370.039
L457.384 370.15
L457.495 370.19
L459.103 370.301
L459.214 370.341
L459.434 370.452
L459.545 370.502
L460.961 370.391
L461.072 370.348
L462.696 370.459
L462.807 370.494
L463.297 370.605
L463.408 370.644
L463.842 370.756
L463.953 370.818
L464.344 370.929
L464.455 370.981
L464.619 371.092
L464.73 371.162
L464.923 371.273
L465.034 371.364
L465.161 371.475
L465.272 371.563
L465.424 371.674
L465.535 371.745
L465.65 371.856
L465.761 371.973
L465.892 372.084
L466.003 372.16
L466.174 372.271
L466.285 372.366
L466.414 372.477
L466.525 372.541
L466.84 372.652
L466.952 372.676
L467.247 372.788
L467.358 372.824
L467.55 372.935
L467.662 372.97
L468.246 373.081
L468.358 373.092
L468.708 373.203
L468.819 373.274
L469.003 373.385
L469.114 373.454
L469.286 373.566
L469.397 373.63
L469.644 373.741
L469.755 373.787
L470.755 373.898
L470.867 373.929
L471.064 374.04
L471.175 374.107
L471.307 374.218
L471.418 374.337
L471.52 374.448
L471.631 374.55
L471.752 374.661
L471.863 374.768
L471.948 374.88
L472.059 375.022
L472.151 375.133
L472.262 375.238
L472.364 375.349
L472.475 375.481
L472.578 375.592
L472.689 375.707
L472.812 375.818
L472.923 375.916
L473.045 376.027
L473.156 376.129
L473.468 376.24
L473.548 376.248
L473.579 376.245
L473.909 376.134
L474.02 376.072
L474.321 375.961
L474.432 375.923
L474.951 375.812
L475.062 375.79
L475.342 375.679
L475.453 375.606
L475.628 375.495
L475.739 375.42
L475.972 375.309
L476.083 375.275
L476.4 375.164
L476.511 375.094
L476.679 374.983
L476.79 374.889
L476.918 374.778
L477.029 374.695
L477.182 374.584
L477.293 374.459
L477.374 374.348
L477.485 374.199
L477.568 374.088
L477.679 373.944
L477.763 373.833
L477.874 373.697
L477.97 373.586
L478.081 373.463
L478.18 373.352
L478.291 373.234
L478.399 373.123
L478.51 373.034
L478.646 372.923
L478.757 372.818
L478.873 372.707
L478.984 372.619
L479.134 372.508
L479.245 372.408
L479.391 372.297
L479.502 372.22
L479.661 372.109
L479.772 372.01
L479.893 371.899
L480.004 371.802
L480.117 371.691
L480.228 371.592
L480.395 371.481
L480.507 371.432
L481.086 371.543
L481.197 371.61
L481.354 371.721
L481.465 371.801
L481.63 371.912
L481.741 372.004
L481.935 372.115
L482.046 372.173
L482.215 372.284
L482.326 372.377
L482.459 372.488
L482.57 372.591
L482.74 372.703
L482.851 372.724
L483.286 372.835
L483.397 372.85
L484.021 372.961
L484.132 372.996
L484.323 373.107
L484.434 373.209
L484.556 373.32
L484.667 373.406
L484.796 373.517
L484.907 373.614
L485.027 373.725
L485.138 373.849
L485.235 373.96
L485.346 374.08
L485.455 374.191
L485.566 374.296
L485.669 374.408
L485.78 374.509
L485.912 374.62
L486.023 374.743
L486.107 374.854
L486.218 374.995
L486.301 375.106
L486.412 375.293
L486.472 375.404
L486.583 375.633
L486.637 375.744
L486.748 375.975
L486.797 376.086
L486.908 376.332
L486.965 376.443
L487.076 376.632
L487.139 376.743
L487.251 376.953
L487.31 377.064
L487.421 377.249
L487.49 377.36
L487.601 377.552
L487.665 377.663
L487.776 377.842
L487.857 377.953
L487.968 378.109
L488.047 378.22
L488.158 378.376
L488.241 378.487
L488.352 378.631
L488.446 378.742
L488.557 378.855
L488.718 378.966
L488.829 379.047
L488.967 379.159
L489.078 379.264
L489.171 379.375
L489.282 379.518
L489.372 379.629
L489.483 379.762
L489.563 379.873
L489.674 380.037
L489.759 380.148
L489.87 380.271
L489.966 380.382
L490.077 380.503
L490.191 380.614
L490.302 380.723
L490.396 380.834
L490.508 380.958
L490.614 381.069
L490.725 381.184
L490.829 381.295
L490.94 381.391
L491.056 381.502
L491.167 381.653
L491.248 381.764
L491.359 381.915
L491.442 382.026
L491.554 382.183
L491.632 382.295
L491.743 382.449
L491.813 382.561
L491.924 382.727
L492.01 382.838
L492.121 382.964
L492.231 383.075
L492.342 383.162
L492.488 383.273
L492.599 383.383
L492.718 383.494
L492.829 383.58
L492.991 383.691
L493.102 383.777
L493.3 383.888
L493.411 383.962
L493.598 384.073
L493.709 384.157
L493.847 384.268
L493.958 384.371
L494.048 384.482
L494.159 384.625
L494.263 384.736
L494.374 384.868
L494.464 384.979
L494.575 385.108
L494.674 385.219
L494.785 385.341
L494.948 385.452
L495.059 385.53
L495.204 385.641
L495.315 385.714
L495.457 385.825
L495.568 385.925
L495.696 386.036
L495.807 386.157
L495.907 386.268
L496.018 386.37
L496.132 386.481
L496.243 386.595
L496.354 386.707
L496.466 386.829
L496.567 386.94
L496.678 387.055
L496.775 387.166
L496.886 387.283
L497.036 387.394
L497.147 387.469
L497.399 387.58
L497.51 387.623
L497.758 387.734
L497.869 387.802
L498.112 387.913
L498.223 387.966
L498.412 388.077
L498.523 388.135
L498.791 388.246
L498.902 388.298
L499.134 388.41
L499.245 388.444
L500.596 388.555
L500.707 388.606
L500.941 388.717
L501.052 388.752
L502.715 388.641
L502.826 388.607
L503.117 388.496
L503.228 388.459
L503.515 388.348
L503.626 388.289
L503.814 388.178
L503.925 388.096
L504.073 387.985
L504.184 387.869
L504.28 387.758
L504.391 387.626
L504.493 387.515
L504.604 387.419
L504.776 387.307
L504.887 387.237
L505.059 387.126
L505.17 387.044
L505.322 386.933
L505.433 386.826
L505.546 386.715
L505.657 386.585
L505.78 386.474
L505.891 386.371
L506.015 386.26
L506.126 386.171
L506.254 386.06
L506.365 385.982
L506.562 385.87
L506.673 385.837
L507.149 385.726
L507.26 385.687
L508.813 385.798
L508.924 385.839
L509.229 385.95
L509.34 386.002
L509.58 386.113
L509.691 386.158
L510.224 386.269
L510.311 386.282
L510.335 386.281
L510.695 386.17
L510.806 386.11
L511.038 385.999
L511.149 385.957
L511.512 385.846
L511.623 385.803
L511.837 385.692
L511.948 385.632
L512.165 385.521
L512.276 385.445
L512.416 385.334
L512.527 385.26
L512.72 385.149
L512.831 385.074
L513.028 384.963
L513.139 384.879
L513.289 384.768
L513.4 384.687
L513.552 384.576
L513.663 384.5
L513.834 384.389
L513.945 384.305
L514.071 384.194
L514.182 384.088
L514.302 383.977
L514.413 383.892
L514.655 383.781
L514.766 383.746
L515.063 383.634
L515.174 383.586
L515.43 383.475
L515.541 383.433
L515.788 383.322
L515.9 383.283
L516.104 383.172
L516.215 383.119
L516.477 383.008
L516.588 382.991
L516.939 382.88
L517.05 382.807
L517.193 382.696
L517.304 382.625
L517.527 382.514
L517.639 382.475
L518.251 382.363
L518.362 382.353
L518.678 382.242
L518.789 382.208
L519.357 382.097
L519.468 382.067
L519.788 381.956
L519.899 381.936
L520.432 381.825
L520.543 381.77
L520.727 381.659
L520.838 381.593
L520.987 381.482
L521.098 381.416
L521.296 381.305
L521.407 381.242
L521.551 381.131
L521.662 381.039
L521.803 380.928
L521.914 380.862
L522.074 380.75
L522.185 380.684
L522.388 380.573
L522.499 380.519
L522.7 380.408
L522.811 380.321
L523.005 380.209
L523.116 380.161
L523.851 380.05
L523.962 380.025
L524.336 379.914
L524.447 379.878
L524.965 379.767
L525.077 379.721
L525.586 379.609
L525.698 379.561
L525.99 379.45
L526.101 379.42
L526.479 379.309
L526.59 379.28
L527.079 379.169
L527.19 379.136
L527.661 379.025
L527.75 379.014
L527.772 379.016
L528.944 378.905
L529.055 378.877
L529.483 378.766
L529.595 378.713
L529.919 378.601
L530.03 378.553
L530.26 378.442
L530.371 378.375
L530.515 378.264
L530.626 378.155
L530.742 378.044
L530.853 377.93
L530.967 377.819
L531.078 377.694
L531.174 377.583
L531.285 377.453
L531.378 377.342
L531.49 377.228
L531.608 377.117
L531.719 376.999
L531.831 376.888
L531.942 376.785
L532.066 376.674
L532.177 376.56
L532.288 376.449
L532.399 376.352
L532.592 376.241
L532.704 376.197
L532.906 376.086
L533.017 376.007
L533.169 375.896
L533.28 375.833
L533.479 375.722
L533.591 375.653
L533.759 375.542
L533.87 375.454
L533.977 375.343
L534.088 375.219
L534.181 375.108
L534.292 374.981
L534.389 374.87
L534.5 374.752
L534.604 374.641
L534.715 374.521
L534.821 374.41
L534.932 374.306
L535.086 374.194
L535.197 374.115
L535.356 374.004
L535.467 373.938
L535.658 373.827
L535.769 373.761
L536.106 373.65
L536.217 373.622
L536.628 373.511
L536.739 373.461
L536.951 373.35
L537.062 373.279
L537.245 373.168
L537.357 373.086
L537.506 372.974
L537.617 372.893
L537.74 372.782
L537.851 372.666
L537.953 372.555
L538.064 372.42
L538.146 372.309
L538.257 372.185
L538.364 372.074
L538.475 371.955
L538.595 371.844
L538.706 371.727
L538.831 371.616
L538.942 371.525
L539.082 371.414
L539.193 371.328
L539.303 371.217
L539.414 371.086
L539.511 370.975
L539.622 370.856
L539.716 370.745
L539.827 370.614
L539.941 370.502
L540.052 370.403
L540.166 370.292
L540.277 370.183
L540.382 370.072
L540.493 369.934
L540.587 369.823
L540.698 369.693
L540.802 369.582
L540.913 369.473
L541.034 369.362
L541.145 369.275
L541.308 369.164
L541.42 369.073
L541.566 368.962
L541.677 368.883
L541.841 368.772
L541.952 368.703
L542.095 368.592
L542.207 368.519
L542.358 368.408
L542.469 368.32
L542.692 368.209
L542.803 368.156
L543.003 368.045
L543.114 367.995
L543.284 367.884
L543.395 367.822
L543.6 367.711
L543.711 367.644
L543.872 367.533
L543.983 367.45
L544.135 367.339
L544.246 367.257
L544.377 367.146
L544.488 367.039
L544.585 366.928
L544.696 366.796
L544.783 366.684
L544.894 366.551
L544.989 366.44
L545.1 366.326
L545.224 366.215
L545.335 366.105
L545.428 365.994
L545.539 365.857
L545.639 365.746
L545.75 365.649
L545.871 365.538
L545.982 365.418
L546.074 365.307
L546.185 365.173
L546.279 365.062
L546.39 364.94
L546.487 364.829
L546.598 364.69
L546.693 364.579
L546.804 364.447
L546.896 364.335
L547.007 364.208
L547.108 364.097
L547.219 363.978
L547.315 363.867
L547.427 363.747
L547.545 363.636
L547.656 363.538
L547.781 363.427
L547.893 363.337
L547.915 363.318
L547.915 363.318" style="fill:none;stroke:#0000ff;stroke-width:5.0;"/>
   </g>
   <g id="matplotlib.axis_1">
    <g id="xtick_1">
     <g id="line2d_2">
      <path d="
M189.867 408.105
L189.867 7.2" style="fill:none;stroke:#000000;stroke-dasharray:1.000000,3.000000;stroke-dashoffset:0.0;stroke-linecap:butt;stroke-width:0.5;"/>
     </g>
     <g id="line2d_3">
      <defs>
       <path d="
M0 0
L0 -4" id="me7ff324603"/>
      </defs>
      <g>
       <use style="stroke:#000000;stroke-linecap:butt;stroke-width:0.5;" x="189.866953909" xlink:href="#me7ff324603" y="29.9731511733"/>
      </g>
     </g>
     <g id="text_1">
      <!-- 5 -->
      <defs>
       <path d="
M10.7969 72.9062
L49.5156 72.9062
L49.5156 64.5938
L19.8281 64.5938
L19.8281 46.7344
Q21.9688 47.4688 24.1094 47.8281
Q26.2656 48.1875 28.4219 48.1875
Q40.625 48.1875 47.75 41.5
Q54.8906 34.8125 54.8906 23.3906
Q54.8906 11.625 47.5625 5.09375
Q40.2344 -1.42188 26.9062 -1.42188
Q22.3125 -1.42188 17.5469 -0.640625
Q12.7969 0.140625 7.71875 1.70312
L7.71875 11.625
Q12.1094 9.23438 16.7969 8.0625
Q21.4844 6.89062 26.7031 6.89062
Q35.1562 6.89062 40.0781 11.3281
Q45.0156 15.7656 45.0156 23.3906
Q45.0156 31 40.0781 35.4375
Q35.1562 39.8906 26.7031 39.8906
Q22.75 39.8906 18.8125 39.0156
Q14.8906 38.1406 10.7969 36.2812
z
" id="BitstreamVeraSans-Roman-35"/>
      </defs>
      <g transform="translate(184.206328909 51.4706511733)scale(0.24 -0.24)">
       <use xlink:href="#BitstreamVeraSans-Roman-35"/>
      </g>
     </g>
    </g>
    <g id="xtick_2">
     <g id="line2d_4">
      <path d="
M323.261 408.105
L323.261 7.2" style="fill:none;stroke:#000000;stroke-dasharray:1.000000,3.000000;stroke-dashoffset:0.0;stroke-linecap:butt;stroke-width:0.5;"/>
     </g>
     <g id="line2d_5">
      <defs>
       <path d="
M0 0
L0 -4" id="me7ff324603"/>
      </defs>
      <g>
       <use style="stroke:#000000;stroke-linecap:butt;stroke-width:0.5;" x="323.261010243" xlink:href="#me7ff324603" y="29.9731511733"/>
      </g>
     </g>
     <g id="text_2">
      <!-- 10 -->
      <defs>
       <path d="
M31.7812 66.4062
Q24.1719 66.4062 20.3281 58.9062
Q16.5 51.4219 16.5 36.375
Q16.5 21.3906 20.3281 13.8906
Q24.1719 6.39062 31.7812 6.39062
Q39.4531 6.39062 43.2812 13.8906
Q47.125 21.3906 47.125 36.375
Q47.125 51.4219 43.2812 58.9062
Q39.4531 66.4062 31.7812 66.4062
M31.7812 74.2188
Q44.0469 74.2188 50.5156 64.5156
Q56.9844 54.8281 56.9844 36.375
Q56.9844 17.9688 50.5156 8.26562
Q44.0469 -1.42188 31.7812 -1.42188
Q19.5312 -1.42188 13.0625 8.26562
Q6.59375 17.9688 6.59375 36.375
Q6.59375 54.8281 13.0625 64.5156
Q19.5312 74.2188 31.7812 74.2188" id="BitstreamVeraSans-Roman-30"/>
       <path d="
M12.4062 8.29688
L28.5156 8.29688
L28.5156 63.9219
L10.9844 60.4062
L10.9844 69.3906
L28.4219 72.9062
L38.2812 72.9062
L38.2812 8.29688
L54.3906 8.29688
L54.3906 0
L12.4062 0
z
" id="BitstreamVeraSans-Roman-31"/>
      </defs>
      <g transform="translate(310.106010243 51.7856511733)scale(0.24 -0.24)">
       <use xlink:href="#BitstreamVeraSans-Roman-31"/>
       <use x="63.623046875" xlink:href="#BitstreamVeraSans-Roman-30"/>
      </g>
     </g>
    </g>
    <g id="xtick_3">
     <g id="line2d_6">
      <path d="
M456.655 408.105
L456.655 7.2" style="fill:none;stroke:#000000;stroke-dasharray:1.000000,3.000000;stroke-dashoffset:0.0;stroke-linecap:butt;stroke-width:0.5;"/>
     </g>
     <g id="line2d_7">
      <defs>
       <path d="
M0 0
L0 -4" id="me7ff324603"/>
      </defs>
      <g>
       <use style="stroke:#000000;stroke-linecap:butt;stroke-width:0.5;" x="456.655066578" xlink:href="#me7ff324603" y="29.9731511733"/>
      </g>
     </g>
     <g id="text_3">
      <!-- 15 -->
      <g transform="translate(443.751316578 51.4706511733)scale(0.24 -0.24)">
       <use xlink:href="#BitstreamVeraSans-Roman-31"/>
       <use x="63.623046875" xlink:href="#BitstreamVeraSans-Roman-35"/>
      </g>
     </g>
    </g>
    <g id="xtick_4">
     <g id="line2d_8">
      <defs>
       <path d="
M0 0
L0 -2" id="me4714294c4"/>
      </defs>
      <g>
       <use style="stroke:#000000;stroke-linecap:butt;stroke-width:0.5;" x="83.1517088412" xlink:href="#me4714294c4" y="29.9731511733"/>
      </g>
     </g>
    </g>
    <g id="xtick_5">
     <g id="line2d_9">
      <defs>
       <path d="
M0 0
L0 -2" id="me4714294c4"/>
      </defs>
      <g>
       <use style="stroke:#000000;stroke-linecap:butt;stroke-width:0.5;" x="109.830520108" xlink:href="#me4714294c4" y="29.9731511733"/>
      </g>
     </g>
    </g>
    <g id="xtick_6">
     <g id="line2d_10">
      <defs>
       <path d="
M0 0
L0 -2" id="me4714294c4"/>
      </defs>
      <g>
       <use style="stroke:#000000;stroke-linecap:butt;stroke-width:0.5;" x="136.509331375" xlink:href="#me4714294c4" y="29.9731511733"/>
      </g>
     </g>
    </g>
    <g id="xtick_7">
     <g id="line2d_11">
      <defs>
       <path d="
M0 0
L0 -2" id="me4714294c4"/>
      </defs>
      <g>
       <use style="stroke:#000000;stroke-linecap:butt;stroke-width:0.5;" x="163.188142642" xlink:href="#me4714294c4" y="29.9731511733"/>
      </g>
     </g>
    </g>
    <g id="xtick_8">
     <g id="line2d_12">
      <defs>
       <path d="
M0 0
L0 -2" id="me4714294c4"/>
      </defs>
      <g>
       <use style="stroke:#000000;stroke-linecap:butt;stroke-width:0.5;" x="216.545765176" xlink:href="#me4714294c4" y="29.9731511733"/>
      </g>
     </g>
    </g>
    <g id="xtick_9">
     <g id="line2d_13">
      <defs>
       <path d="
M0 0
L0 -2" id="me4714294c4"/>
      </defs>
      <g>
       <use style="stroke:#000000;stroke-linecap:butt;stroke-width:0.5;" x="243.224576443" xlink:href="#me4714294c4" y="29.9731511733"/>
      </g>
     </g>
    </g>
    <g id="xtick_10">
     <g id="line2d_14">
      <defs>
       <path d="
M0 0
L0 -2" id="me4714294c4"/>
      </defs>
      <g>
       <use style="stroke:#000000;stroke-linecap:butt;stroke-width:0.5;" x="269.903387709" xlink:href="#me4714294c4" y="29.9731511733"/>
      </g>
     </g>
    </g>
    <g id="xtick_11">
     <g id="line2d_15">
      <defs>
       <path d="
M0 0
L0 -2" id="me4714294c4"/>
      </defs>
      <g>
       <use style="stroke:#000000;stroke-linecap:butt;stroke-width:0.5;" x="296.582198976" xlink:href="#me4714294c4" y="29.9731511733"/>
      </g>
     </g>
    </g>
    <g id="xtick_12">
     <g id="line2d_16">
      <defs>
       <path d="
M0 0
L0 -2" id="me4714294c4"/>
      </defs>
      <g>
       <use style="stroke:#000000;stroke-linecap:butt;stroke-width:0.5;" x="349.93982151" xlink:href="#me4714294c4" y="29.9731511733"/>
      </g>
     </g>
    </g>
    <g id="xtick_13">
     <g id="line2d_17">
      <defs>
       <path d="
M0 0
L0 -2" id="me4714294c4"/>
      </defs>
      <g>
       <use style="stroke:#000000;stroke-linecap:butt;stroke-width:0.5;" x="376.618632777" xlink:href="#me4714294c4" y="29.9731511733"/>
      </g>
     </g>
    </g>
    <g id="xtick_14">
     <g id="line2d_18">
      <defs>
       <path d="
M0 0
L0 -2" id="me4714294c4"/>
      </defs>
      <g>
       <use style="stroke:#000000;stroke-linecap:butt;stroke-width:0.5;" x="403.297444044" xlink:href="#me4714294c4" y="29.9731511733"/>
      </g>
     </g>
    </g>
    <g id="xtick_15">
     <g id="line2d_19">
      <defs>
       <path d="
M0 0
L0 -2" id="me4714294c4"/>
      </defs>
      <g>
       <use style="stroke:#000000;stroke-linecap:butt;stroke-width:0.5;" x="429.976255311" xlink:href="#me4714294c4" y="29.9731511733"/>
      </g>
     </g>
    </g>
    <g id="xtick_16">
     <g id="line2d_20">
      <defs>
       <path d="
M0 0
L0 -2" id="me4714294c4"/>
      </defs>
      <g>
       <use style="stroke:#000000;stroke-linecap:butt;stroke-width:0.5;" x="483.333877845" xlink:href="#me4714294c4" y="29.9731511733"/>
      </g>
     </g>
    </g>
    <g id="xtick_17">
     <g id="line2d_21">
      <defs>
       <path d="
M0 0
L0 -2" id="me4714294c4"/>
      </defs>
      <g>
       <use style="stroke:#000000;stroke-linecap:butt;stroke-width:0.5;" x="510.012689112" xlink:href="#me4714294c4" y="29.9731511733"/>
      </g>
     </g>
    </g>
   </g>
   <g id="matplotlib.axis_2">
    <g id="ytick_1">
     <g id="line2d_22">
      <path d="
M65.5062 403.668
L557.374 403.668" style="fill:none;stroke:#000000;stroke-dasharray:1.000000,3.000000;stroke-dashoffset:0.0;stroke-linecap:butt;stroke-width:0.5;"/>
     </g>
     <g id="line2d_23">
      <defs>
       <path d="
M0 0
L4 0" id="m069aa59461"/>
      </defs>
      <g>
       <use style="stroke:#000000;stroke-linecap:butt;stroke-width:0.5;" x="55.50625" xlink:href="#m069aa59461" y="403.66789628"/>
      </g>
     </g>
     <g id="text_4">
      <!-- -1.4 -->
      <defs>
       <path d="
M10.6875 12.4062
L21 12.4062
L21 0
L10.6875 0
z
" id="BitstreamVeraSans-Roman-2e"/>
       <path d="
M4.89062 31.3906
L31.2031 31.3906
L31.2031 23.3906
L4.89062 23.3906
z
" id="BitstreamVeraSans-Roman-2d"/>
       <path d="
M37.7969 64.3125
L12.8906 25.3906
L37.7969 25.3906
z

M35.2031 72.9062
L47.6094 72.9062
L47.6094 25.3906
L58.0156 25.3906
L58.0156 17.1875
L47.6094 17.1875
L47.6094 0
L37.7969 0
L37.7969 17.1875
L4.89062 17.1875
L4.89062 26.7031
z
" id="BitstreamVeraSans-Roman-34"/>
      </defs>
      <g transform="translate(7.2 412.41664628)scale(0.24 -0.24)">
       <use xlink:href="#BitstreamVeraSans-Roman-2d"/>
       <use x="36.083984375" xlink:href="#BitstreamVeraSans-Roman-31"/>
       <use x="99.70703125" xlink:href="#BitstreamVeraSans-Roman-2e"/>
       <use x="131.494140625" xlink:href="#BitstreamVeraSans-Roman-34"/>
      </g>
     </g>
    </g>
    <g id="ytick_2">
     <g id="line2d_24">
      <path d="
M65.5062 350.283
L557.374 350.283" style="fill:none;stroke:#000000;stroke-dasharray:1.000000,3.000000;stroke-dashoffset:0.0;stroke-linecap:butt;stroke-width:0.5;"/>
     </g>
     <g id="line2d_25">
      <defs>
       <path d="
M0 0
L4 0" id="m069aa59461"/>
      </defs>
      <g>
       <use style="stroke:#000000;stroke-linecap:butt;stroke-width:0.5;" x="55.50625" xlink:href="#m069aa59461" y="350.282932694"/>
      </g>
     </g>
     <g id="text_5">
      <!-- -1.2 -->
      <defs>
       <path d="
M19.1875 8.29688
L53.6094 8.29688
L53.6094 0
L7.32812 0
L7.32812 8.29688
Q12.9375 14.1094 22.625 23.8906
Q32.3281 33.6875 34.8125 36.5312
Q39.5469 41.8438 41.4219 45.5312
Q43.3125 49.2188 43.3125 52.7812
Q43.3125 58.5938 39.2344 62.25
Q35.1562 65.9219 28.6094 65.9219
Q23.9688 65.9219 18.8125 64.3125
Q13.6719 62.7031 7.8125 59.4219
L7.8125 69.3906
Q13.7656 71.7812 18.9375 73
Q24.125 74.2188 28.4219 74.2188
Q39.75 74.2188 46.4844 68.5469
Q53.2188 62.8906 53.2188 53.4219
Q53.2188 48.9219 51.5312 44.8906
Q49.8594 40.875 45.4062 35.4062
Q44.1875 33.9844 37.6406 27.2188
Q31.1094 20.4531 19.1875 8.29688" id="BitstreamVeraSans-Roman-32"/>
      </defs>
      <g transform="translate(8.2575 359.189182694)scale(0.24 -0.24)">
       <use xlink:href="#BitstreamVeraSans-Roman-2d"/>
       <use x="36.083984375" xlink:href="#BitstreamVeraSans-Roman-31"/>
       <use x="99.70703125" xlink:href="#BitstreamVeraSans-Roman-2e"/>
       <use x="131.494140625" xlink:href="#BitstreamVeraSans-Roman-32"/>
      </g>
     </g>
    </g>
    <g id="ytick_3">
     <g id="line2d_26">
      <path d="
M65.5062 296.898
L557.374 296.898" style="fill:none;stroke:#000000;stroke-dasharray:1.000000,3.000000;stroke-dashoffset:0.0;stroke-linecap:butt;stroke-width:0.5;"/>
     </g>
     <g id="line2d_27">
      <defs>
       <path d="
M0 0
L4 0" id="m069aa59461"/>
      </defs>
      <g>
       <use style="stroke:#000000;stroke-linecap:butt;stroke-width:0.5;" x="55.50625" xlink:href="#m069aa59461" y="296.897969107"/>
      </g>
     </g>
     <g id="text_6">
      <!-- -1 -->
      <g transform="translate(30.9675 305.646719107)scale(0.24 -0.24)">
       <use xlink:href="#BitstreamVeraSans-Roman-2d"/>
       <use x="36.083984375" xlink:href="#BitstreamVeraSans-Roman-31"/>
      </g>
     </g>
    </g>
    <g id="ytick_4">
     <g id="line2d_28">
      <path d="
M65.5062 243.513
L557.374 243.513" style="fill:none;stroke:#000000;stroke-dasharray:1.000000,3.000000;stroke-dashoffset:0.0;stroke-linecap:butt;stroke-width:0.5;"/>
     </g>
     <g id="line2d_29">
      <defs>
       <path d="
M0 0
L4 0" id="m069aa59461"/>
      </defs>
      <g>
       <use style="stroke:#000000;stroke-linecap:butt;stroke-width:0.5;" x="55.50625" xlink:href="#m069aa59461" y="243.51300552"/>
      </g>
     </g>
     <g id="text_7">
      <!-- -0.8 -->
      <defs>
       <path d="
M31.7812 34.625
Q24.75 34.625 20.7188 30.8594
Q16.7031 27.0938 16.7031 20.5156
Q16.7031 13.9219 20.7188 10.1562
Q24.75 6.39062 31.7812 6.39062
Q38.8125 6.39062 42.8594 10.1719
Q46.9219 13.9688 46.9219 20.5156
Q46.9219 27.0938 42.8906 30.8594
Q38.875 34.625 31.7812 34.625
M21.9219 38.8125
Q15.5781 40.375 12.0312 44.7188
Q8.5 49.0781 8.5 55.3281
Q8.5 64.0625 14.7188 69.1406
Q20.9531 74.2188 31.7812 74.2188
Q42.6719 74.2188 48.875 69.1406
Q55.0781 64.0625 55.0781 55.3281
Q55.0781 49.0781 51.5312 44.7188
Q48 40.375 41.7031 38.8125
Q48.8281 37.1562 52.7969 32.3125
Q56.7812 27.4844 56.7812 20.5156
Q56.7812 9.90625 50.3125 4.23438
Q43.8438 -1.42188 31.7812 -1.42188
Q19.7344 -1.42188 13.25 4.23438
Q6.78125 9.90625 6.78125 20.5156
Q6.78125 27.4844 10.7812 32.3125
Q14.7969 37.1562 21.9219 38.8125
M18.3125 54.3906
Q18.3125 48.7344 21.8438 45.5625
Q25.3906 42.3906 31.7812 42.3906
Q38.1406 42.3906 41.7188 45.5625
Q45.3125 48.7344 45.3125 54.3906
Q45.3125 60.0625 41.7188 63.2344
Q38.1406 66.4062 31.7812 66.4062
Q25.3906 66.4062 21.8438 63.2344
Q18.3125 60.0625 18.3125 54.3906" id="BitstreamVeraSans-Roman-38"/>
      </defs>
      <g transform="translate(7.49625 252.24863052)scale(0.24 -0.24)">
       <use xlink:href="#BitstreamVeraSans-Roman-2d"/>
       <use x="36.083984375" xlink:href="#BitstreamVeraSans-Roman-30"/>
       <use x="99.70703125" xlink:href="#BitstreamVeraSans-Roman-2e"/>
       <use x="131.494140625" xlink:href="#BitstreamVeraSans-Roman-38"/>
      </g>
     </g>
    </g>
    <g id="ytick_5">
     <g id="line2d_30">
      <path d="
M65.5062 190.128
L557.374 190.128" style="fill:none;stroke:#000000;stroke-dasharray:1.000000,3.000000;stroke-dashoffset:0.0;stroke-linecap:butt;stroke-width:0.5;"/>
     </g>
     <g id="line2d_31">
      <defs>
       <path d="
M0 0
L4 0" id="m069aa59461"/>
      </defs>
      <g>
       <use style="stroke:#000000;stroke-linecap:butt;stroke-width:0.5;" x="55.50625" xlink:href="#m069aa59461" y="190.128041933"/>
      </g>
     </g>
     <g id="text_8">
      <!-- -0.6 -->
      <defs>
       <path d="
M33.0156 40.375
Q26.375 40.375 22.4844 35.8281
Q18.6094 31.2969 18.6094 23.3906
Q18.6094 15.5312 22.4844 10.9531
Q26.375 6.39062 33.0156 6.39062
Q39.6562 6.39062 43.5312 10.9531
Q47.4062 15.5312 47.4062 23.3906
Q47.4062 31.2969 43.5312 35.8281
Q39.6562 40.375 33.0156 40.375
M52.5938 71.2969
L52.5938 62.3125
Q48.875 64.0625 45.0938 64.9844
Q41.3125 65.9219 37.5938 65.9219
Q27.8281 65.9219 22.6719 59.3281
Q17.5312 52.7344 16.7969 39.4062
Q19.6719 43.6562 24.0156 45.9219
Q28.375 48.1875 33.5938 48.1875
Q44.5781 48.1875 50.9531 41.5156
Q57.3281 34.8594 57.3281 23.3906
Q57.3281 12.1562 50.6875 5.35938
Q44.0469 -1.42188 33.0156 -1.42188
Q20.3594 -1.42188 13.6719 8.26562
Q6.98438 17.9688 6.98438 36.375
Q6.98438 53.6562 15.1875 63.9375
Q23.3906 74.2188 37.2031 74.2188
Q40.9219 74.2188 44.7031 73.4844
Q48.4844 72.75 52.5938 71.2969" id="BitstreamVeraSans-Roman-36"/>
      </defs>
      <g transform="translate(7.365 198.863666933)scale(0.24 -0.24)">
       <use xlink:href="#BitstreamVeraSans-Roman-2d"/>
       <use x="36.083984375" xlink:href="#BitstreamVeraSans-Roman-30"/>
       <use x="99.70703125" xlink:href="#BitstreamVeraSans-Roman-2e"/>
       <use x="131.494140625" xlink:href="#BitstreamVeraSans-Roman-36"/>
      </g>
     </g>
    </g>
    <g id="ytick_6">
     <g id="line2d_32">
      <path d="
M65.5062 136.743
L557.374 136.743" style="fill:none;stroke:#000000;stroke-dasharray:1.000000,3.000000;stroke-dashoffset:0.0;stroke-linecap:butt;stroke-width:0.5;"/>
     </g>
     <g id="line2d_33">
      <defs>
       <path d="
M0 0
L4 0" id="m069aa59461"/>
      </defs>
      <g>
       <use style="stroke:#000000;stroke-linecap:butt;stroke-width:0.5;" x="55.50625" xlink:href="#m069aa59461" y="136.743078347"/>
      </g>
     </g>
     <g id="text_9">
      <!-- -0.4 -->
      <g transform="translate(7.2 145.478703347)scale(0.24 -0.24)">
       <use xlink:href="#BitstreamVeraSans-Roman-2d"/>
       <use x="36.083984375" xlink:href="#BitstreamVeraSans-Roman-30"/>
       <use x="99.70703125" xlink:href="#BitstreamVeraSans-Roman-2e"/>
       <use x="131.494140625" xlink:href="#BitstreamVeraSans-Roman-34"/>
      </g>
     </g>
    </g>
    <g id="ytick_7">
     <g id="line2d_34">
      <path d="
M65.5062 83.3581
L557.374 83.3581" style="fill:none;stroke:#000000;stroke-dasharray:1.000000,3.000000;stroke-dashoffset:0.0;stroke-linecap:butt;stroke-width:0.5;"/>
     </g>
     <g id="line2d_35">
      <defs>
       <path d="
M0 0
L4 0" id="m069aa59461"/>
      </defs>
      <g>
       <use style="stroke:#000000;stroke-linecap:butt;stroke-width:0.5;" x="55.50625" xlink:href="#m069aa59461" y="83.35811476"/>
      </g>
     </g>
     <g id="text_10">
      <!-- -0.2 -->
      <g transform="translate(8.2575 92.09373976)scale(0.24 -0.24)">
       <use xlink:href="#BitstreamVeraSans-Roman-2d"/>
       <use x="36.083984375" xlink:href="#BitstreamVeraSans-Roman-30"/>
       <use x="99.70703125" xlink:href="#BitstreamVeraSans-Roman-2e"/>
       <use x="131.494140625" xlink:href="#BitstreamVeraSans-Roman-32"/>
      </g>
     </g>
    </g>
    <g id="ytick_8">
     <g id="line2d_36">
      <path d="
M65.5062 29.9732
L557.374 29.9732" style="fill:none;stroke:#000000;stroke-dasharray:1.000000,3.000000;stroke-dashoffset:0.0;stroke-linecap:butt;stroke-width:0.5;"/>
     </g>
     <g id="line2d_37">
      <defs>
       <path d="
M0 0
L4 0" id="m069aa59461"/>
      </defs>
      <g>
       <use style="stroke:#000000;stroke-linecap:butt;stroke-width:0.5;" x="55.50625" xlink:href="#m069aa59461" y="29.9731511733"/>
      </g>
     </g>
     <g id="text_11">
      <!-- 0 -->
      <g transform="translate(39.4125 38.7087761733)scale(0.24 -0.24)">
       <use xlink:href="#BitstreamVeraSans-Roman-30"/>
      </g>
     </g>
    </g>
    <g id="ytick_9">
     <g id="line2d_38">
      <defs>
       <path d="
M0 0
L2 0" id="m2f26ac1d8d"/>
      </defs>
      <g>
       <use style="stroke:#000000;stroke-linecap:butt;stroke-width:0.5;" x="55.50625" xlink:href="#m2f26ac1d8d" y="390.321655384"/>
      </g>
     </g>
    </g>
    <g id="ytick_10">
     <g id="line2d_39">
      <defs>
       <path d="
M0 0
L2 0" id="m2f26ac1d8d"/>
      </defs>
      <g>
       <use style="stroke:#000000;stroke-linecap:butt;stroke-width:0.5;" x="55.50625" xlink:href="#m2f26ac1d8d" y="376.975414487"/>
      </g>
     </g>
    </g>
    <g id="ytick_11">
     <g id="line2d_40">
      <defs>
       <path d="
M0 0
L2 0" id="m2f26ac1d8d"/>
      </defs>
      <g>
       <use style="stroke:#000000;stroke-linecap:butt;stroke-width:0.5;" x="55.50625" xlink:href="#m2f26ac1d8d" y="363.62917359"/>
      </g>
     </g>
    </g>
    <g id="ytick_12">
     <g id="line2d_41">
      <defs>
       <path d="
M0 0
L2 0" id="m2f26ac1d8d"/>
      </defs>
      <g>
       <use style="stroke:#000000;stroke-linecap:butt;stroke-width:0.5;" x="55.50625" xlink:href="#m2f26ac1d8d" y="336.936691797"/>
      </g>
     </g>
    </g>
    <g id="ytick_13">
     <g id="line2d_42">
      <defs>
       <path d="
M0 0
L2 0" id="m2f26ac1d8d"/>
      </defs>
      <g>
       <use style="stroke:#000000;stroke-linecap:butt;stroke-width:0.5;" x="55.50625" xlink:href="#m2f26ac1d8d" y="323.5904509"/>
      </g>
     </g>
    </g>
    <g id="ytick_14">
     <g id="line2d_43">
      <defs>
       <path d="
M0 0
L2 0" id="m2f26ac1d8d"/>
      </defs>
      <g>
       <use style="stroke:#000000;stroke-linecap:butt;stroke-width:0.5;" x="55.50625" xlink:href="#m2f26ac1d8d" y="310.244210004"/>
      </g>
     </g>
    </g>
    <g id="ytick_15">
     <g id="line2d_44">
      <defs>
       <path d="
M0 0
L2 0" id="m2f26ac1d8d"/>
      </defs>
      <g>
       <use style="stroke:#000000;stroke-linecap:butt;stroke-width:0.5;" x="55.50625" xlink:href="#m2f26ac1d8d" y="283.55172821"/>
      </g>
     </g>
    </g>
    <g id="ytick_16">
     <g id="line2d_45">
      <defs>
       <path d="
M0 0
L2 0" id="m2f26ac1d8d"/>
      </defs>
      <g>
       <use style="stroke:#000000;stroke-linecap:butt;stroke-width:0.5;" x="55.50625" xlink:href="#m2f26ac1d8d" y="270.205487313"/>
      </g>
     </g>
    </g>
    <g id="ytick_17">
     <g id="line2d_46">
      <defs>
       <path d="
M0 0
L2 0" id="m2f26ac1d8d"/>
      </defs>
      <g>
       <use style="stroke:#000000;stroke-linecap:butt;stroke-width:0.5;" x="55.50625" xlink:href="#m2f26ac1d8d" y="256.859246417"/>
      </g>
     </g>
    </g>
    <g id="ytick_18">
     <g id="line2d_47">
      <defs>
       <path d="
M0 0
L2 0" id="m2f26ac1d8d"/>
      </defs>
      <g>
       <use style="stroke:#000000;stroke-linecap:butt;stroke-width:0.5;" x="55.50625" xlink:href="#m2f26ac1d8d" y="230.166764623"/>
      </g>
     </g>
    </g>
    <g id="ytick_19">
     <g id="line2d_48">
      <defs>
       <path d="
M0 0
L2 0" id="m2f26ac1d8d"/>
      </defs>
      <g>
       <use style="stroke:#000000;stroke-linecap:butt;stroke-width:0.5;" x="55.50625" xlink:href="#m2f26ac1d8d" y="216.820523727"/>
      </g>
     </g>
    </g>
    <g id="ytick_20">
     <g id="line2d_49">
      <defs>
       <path d="
M0 0
L2 0" id="m2f26ac1d8d"/>
      </defs>
      <g>
       <use style="stroke:#000000;stroke-linecap:butt;stroke-width:0.5;" x="55.50625" xlink:href="#m2f26ac1d8d" y="203.47428283"/>
      </g>
     </g>
    </g>
    <g id="ytick_21">
     <g id="line2d_50">
      <defs>
       <path d="
M0 0
L2 0" id="m2f26ac1d8d"/>
      </defs>
      <g>
       <use style="stroke:#000000;stroke-linecap:butt;stroke-width:0.5;" x="55.50625" xlink:href="#m2f26ac1d8d" y="176.781801037"/>
      </g>
     </g>
    </g>
    <g id="ytick_22">
     <g id="line2d_51">
      <defs>
       <path d="
M0 0
L2 0" id="m2f26ac1d8d"/>
      </defs>
      <g>
       <use style="stroke:#000000;stroke-linecap:butt;stroke-width:0.5;" x="55.50625" xlink:href="#m2f26ac1d8d" y="163.43556014"/>
      </g>
     </g>
    </g>
    <g id="ytick_23">
     <g id="line2d_52">
      <defs>
       <path d="
M0 0
L2 0" id="m2f26ac1d8d"/>
      </defs>
      <g>
       <use style="stroke:#000000;stroke-linecap:butt;stroke-width:0.5;" x="55.50625" xlink:href="#m2f26ac1d8d" y="150.089319243"/>
      </g>
     </g>
    </g>
    <g id="ytick_24">
     <g id="line2d_53">
      <defs>
       <path d="
M0 0
L2 0" id="m2f26ac1d8d"/>
      </defs>
      <g>
       <use style="stroke:#000000;stroke-linecap:butt;stroke-width:0.5;" x="55.50625" xlink:href="#m2f26ac1d8d" y="123.39683745"/>
      </g>
     </g>
    </g>
    <g id="ytick_25">
     <g id="line2d_54">
      <defs>
       <path d="
M0 0
L2 0" id="m2f26ac1d8d"/>
      </defs>
      <g>
       <use style="stroke:#000000;stroke-linecap:butt;stroke-width:0.5;" x="55.50625" xlink:href="#m2f26ac1d8d" y="110.050596553"/>
      </g>
     </g>
    </g>
    <g id="ytick_26">
     <g id="line2d_55">
      <defs>
       <path d="
M0 0
L2 0" id="m2f26ac1d8d"/>
      </defs>
      <g>
       <use style="stroke:#000000;stroke-linecap:butt;stroke-width:0.5;" x="55.50625" xlink:href="#m2f26ac1d8d" y="96.7043556567"/>
      </g>
     </g>
    </g>
    <g id="ytick_27">
     <g id="line2d_56">
      <defs>
       <path d="
M0 0
L2 0" id="m2f26ac1d8d"/>
      </defs>
      <g>
       <use style="stroke:#000000;stroke-linecap:butt;stroke-width:0.5;" x="55.50625" xlink:href="#m2f26ac1d8d" y="70.0118738633"/>
      </g>
     </g>
    </g>
    <g id="ytick_28">
     <g id="line2d_57">
      <defs>
       <path d="
M0 0
L2 0" id="m2f26ac1d8d"/>
      </defs>
      <g>
       <use style="stroke:#000000;stroke-linecap:butt;stroke-width:0.5;" x="55.50625" xlink:href="#m2f26ac1d8d" y="56.6656329667"/>
      </g>
     </g>
    </g>
    <g id="ytick_29">
     <g id="line2d_58">
      <defs>
       <path d="
M0 0
L2 0" id="m2f26ac1d8d"/>
      </defs>
      <g>
       <use style="stroke:#000000;stroke-linecap:butt;stroke-width:0.5;" x="55.50625" xlink:href="#m2f26ac1d8d" y="43.31939207"/>
      </g>
     </g>
    </g>
   </g>
   <g id="patch_3">
    <path d="
M65.5062 29.9732
L557.374 29.9732" style="fill:none;stroke:#000000;stroke-width:0.8;"/>
   </g>
   <g id="patch_4">
    <path d="
M55.5062 408.105
L55.5062 7.2" style="fill:none;stroke:#000000;stroke-width:0.8;"/>
   </g>
  </g>
 </g>
 <defs>
  <clipPath id="pe422d99152">
   <rect height="400.905024024" width="491.8675" x="65.50625" y="7.2"/>
  </clipPath>
 </defs>
</svg>
