<?xml version="1.0" encoding="utf-8" standalone="no"?>
<!DOCTYPE svg PUBLIC "-//W3C//DTD SVG 1.1//EN"
  "http://www.w3.org/Graphics/SVG/1.1/DTD/svg11.dtd">
<!-- Created with matplotlib (http://matplotlib.sourceforge.net/) -->
<svg height="420pt" version="1.1" viewBox="0 0 562 420" width="562pt" xmlns="http://www.w3.org/2000/svg" xmlns:xlink="http://www.w3.org/1999/xlink">
 <defs>
  <style type="text/css">
*{stroke-linecap:square;stroke-linejoin:round;}
  </style>
 </defs>
 <g id="figure_1">
  <g id="patch_1">
   <path d="
M2.22045e-16 420.48
L562.698 420.48
L562.698 0
L2.22045e-16 0
z
" style="fill:#ffffff;"/>
  </g>
  <g id="axes_1">
   <g id="patch_2">
    <path d="
M19.3504 413.28
L555.498 413.28
L555.498 7.2
L19.3504 7.2
z
" style="fill:#ffffff;"/>
   </g>
   <g id="line2d_1">
    <path clip-path="url(#p4ae238b7d9)" d="
M29.6609 15.0092
L29.709 15.0092
L29.7661 355.945
L29.8271 355.945
L29.8892 358.042
L29.9538 358.042
L30.0205 361.049
L30.0863 361.049
L30.1539 363.353
L30.2231 363.353
L30.2924 366.058
L30.3626 366.058
L30.4329 368.498
L30.5042 368.498
L30.5765 370.019
L30.6481 370.019
L30.7207 372.334
L30.7936 372.334
L30.8667 375.238
L30.9402 375.238
L31.015 377.766
L31.0882 377.766
L31.1635 380.32
L31.2392 380.32
L31.3131 382.446
L31.3883 382.446
L31.4641 383.854
L31.5403 383.854
L31.6175 384.759
L31.6929 384.759
L31.7715 385.241
L31.8477 385.241
L31.9241 385.58
L32.002 385.58
L32.0803 385.911
L32.1565 385.911
L32.2344 386.373
L32.3128 386.373
L32.39 386.697
L32.7048 386.671
L32.7842 386.323
L32.8625 386.323
L32.9431 386.089
L33.0242 386.089
L33.1032 385.872
L33.2623 385.765
L33.3417 385.613
L33.5844 385.503
L33.6643 385.456
L33.9052 385.36
L33.9052 385.304
L33.9862 385.315
L34.3115 385.394
L34.3929 385.519
L34.7218 385.608
L34.8046 385.665
L35.0496 385.749
L35.1342 385.853
L35.4632 385.942
L35.5454 385.967
L36.378 386.065
L36.4615 386.092
L37.6407 386.184
L37.7252 386.298
L37.9818 386.406
L38.0655 386.503
L38.3198 386.586
L38.4064 386.703
L38.6641 386.79
L38.7501 386.915
L39.0048 387.002
L39.0896 387.127
L39.2608 387.193
L39.3456 387.338
L39.5177 387.407
L39.6022 387.533
L39.7744 387.617
L39.8638 387.761
L40.0334 387.837
L40.1188 387.983
L40.3792 388.092
L40.4657 388.195
L40.7239 388.286
L40.8099 388.386
L41.0714 388.473
L41.1591 388.555
L41.5069 388.665
L41.594 388.735
L42.2949 388.842
L42.3812 388.876
L43.0813 388.974
L43.1696 389.026
L43.521 389.135
L43.6073 389.222
L43.8737 389.3
L43.9609 389.385
L44.2224 389.466
L44.3102 389.548
L44.5777 389.634
L44.6658 389.726
L44.9334 389.824
L45.0219 389.899
L45.2875 389.989
L45.3769 390.077
L45.6429 390.169
L45.7311 390.258
L45.9976 390.349
L46.086 390.464
L46.348 390.569
L46.4384 390.665
L46.7066 390.758
L46.7957 390.834
L47.1543 390.939
L47.2422 390.987
L47.7823 391.094
L47.8743 391.146
L48.234 391.24
L48.3209 391.307
L48.7683 391.411
L48.8584 391.461
L49.4868 391.569
L49.5779 391.59
L50.2107 391.701
L50.3023 391.747
L50.7505 391.845
L50.8406 391.9
L51.2941 391.997
L51.3841 392.051
L51.8415 392.151
L51.9313 392.207
L52.3899 392.315
L52.478 392.38
L52.8367 392.476
L52.9293 392.548
L53.2942 392.647
L53.3864 392.725
L53.7516 392.823
L53.8405 392.889
L54.2066 392.982
L54.2986 393.031
L54.7552 393.125
L54.8471 393.173
L55.2999 393.272
L55.3894 393.309
L55.9418 393.409
L56.035 393.45
L56.4943 393.56
L56.5856 393.616
L57.0449 393.72
L57.1372 393.767
L57.7805 393.871
L57.873 393.91
L58.4301 393.999
L58.5224 394.046
L58.8952 394.126
L58.9883 394.191
L59.3553 394.284
L59.4497 394.345
L59.8206 394.452
L59.9144 394.515
L60.2787 394.611
L60.3721 394.674
L60.7412 394.76
L60.8381 394.82
L61.3938 394.929
L61.4861 394.958
L62.7902 395.067
L62.8858 395.088
L64.5613 395.198
L64.6555 395.216
L71.8946 395.32
L71.9885 395.353
L72.6513 395.458
L72.744 395.495
L73.4104 395.593
L73.5054 395.625
L74.1649 395.735
L74.2599 395.774
L75.1103 395.875
L75.2062 395.901
L76.2565 396.004
L76.3526 396.025
L77.2078 396.128
L77.3018 396.162
L77.9672 396.267
L78.0637 396.302
L78.7353 396.413
L78.8307 396.453
L79.4006 396.547
L79.4959 396.583
L80.1669 396.688
L80.2624 396.725
L80.8402 396.829
L80.9351 396.874
L81.4168 396.98
L81.5122 397.036
L81.8944 397.12
L81.9892 397.179
L82.4733 397.282
L82.5676 397.332
L83.0487 397.433
L83.1428 397.479
L83.6208 397.575
L83.7162 397.622
L84.2907 397.727
L84.3879 397.768
L84.9592 397.869
L85.0557 397.907
L85.7316 398.005
L85.8298 398.033
L86.5995 398.142
L86.6939 398.179
L87.2706 398.273
L87.3661 398.309
L87.9487 398.41
L88.0443 398.447
L88.722 398.551
L88.8158 398.583
L89.4915 398.683
L89.5835 398.716
L90.2635 398.815
L90.3619 398.848
L91.0374 398.941
L91.1346 398.979
L91.8122 399.09
L91.9077 399.127
L92.491 399.221
L92.5893 399.261
L93.2648 399.37
L93.3623 399.403
L94.1383 399.502
L94.2314 399.529
L95.0127 399.632
L95.1089 399.658
L95.9773 399.758
L96.0751 399.781
L97.0577 399.889
L97.1552 399.914
L98.0333 400.024
L98.1286 400.056
L98.9104 400.165
L99.008 400.198
L99.7923 400.306
L99.8872 400.336
L100.763 400.434
L100.861 400.46
L101.839 400.568
L101.938 400.595
L102.818 400.701
L102.917 400.73
L103.791 400.836
L103.887 400.864
L104.675 400.96
L104.772 400.989
L105.655 401.1
L105.752 401.127
L106.733 401.23
L106.835 401.25
L108.114 401.358
L108.212 401.379
L109.395 401.486
L109.495 401.506
L110.666 401.613
L110.766 401.632
L112.045 401.739
L112.143 401.758
L113.624 401.866
L113.721 401.88
L115.403 401.987
L115.502 402
L117.274 402.111
L117.371 402.126
L118.763 402.236
L118.86 402.249
L121.031 402.36
L121.131 402.37
L123.018 402.479
L123.119 402.487
L125.897 402.597
L126 402.604
L132.776 402.715
L132.876 402.719
L140.788 402.828
L140.889 402.835
L143.996 402.944
L144.099 402.953
L146.715 403.059
L146.815 403.071
L148.826 403.177
L148.931 403.189
L150.945 403.295
L151.044 403.307
L153.065 403.416
L153.166 403.425
L155.582 403.535
L155.684 403.543
L160.348 403.652
L160.452 403.658
L167.339 403.768
L167.439 403.772
L178.64 403.881
L178.741 403.886
L185.272 403.996
L185.372 403.999
L193.062 404.109
L193.165 404.111
L199.222 404.222
L199.325 404.227
L205.5 404.337
L205.604 404.343
L211.705 404.454
L211.808 404.458
L225.982 404.569
L226.088 404.57
L236.246 404.68
L236.349 404.684
L244.371 404.795
L244.475 404.798
L252.406 404.908
L252.51 404.911
L262.334 405.021
L262.441 405.024
L271.44 405.134
L271.545 405.137
L278.07 405.247
L278.175 405.25
L288.374 405.361
L288.482 405.362
L489.116 405.251
L489.227 405.25
L514.934 405.139
L514.934 405.139
L538.614 405.028
L538.724 405.027
L545.187 405.012
L545.187 405.012" style="fill:none;stroke:#ff0000;stroke-width:0.5;"/>
   </g>
   <g id="matplotlib.axis_1">
    <g id="xtick_1">
     <g id="line2d_2">
      <defs>
       <path d="
M0 0
L0 -4" id="m68ff777589"/>
      </defs>
      <g>
       <use style="stroke:#000000;stroke-linecap:butt;stroke-width:0.5;" x="29.6609375" xlink:href="#m68ff777589" y="15.0092307692"/>
      </g>
     </g>
    </g>
    <g id="xtick_2">
     <g id="line2d_3">
      <defs>
       <path d="
M0 0
L0 -4" id="m68ff777589"/>
      </defs>
      <g>
       <use style="stroke:#000000;stroke-linecap:butt;stroke-width:0.5;" x="132.772084316" xlink:href="#m68ff777589" y="15.0092307692"/>
      </g>
     </g>
     <g id="text_1">
      <!-- 2e7 -->
      <defs>
       <path d="
M19.1875 8.29688
L53.6094 8.29688
L53.6094 0
L7.32812 0
L7.32812 8.29688
Q12.9375 14.1094 22.625 23.8906
Q32.3281 33.6875 34.8125 36.5312
Q39.5469 41.8438 41.4219 45.5312
Q43.3125 49.2188 43.3125 52.7812
Q43.3125 58.5938 39.2344 62.25
Q35.1562 65.9219 28.6094 65.9219
Q23.9688 65.9219 18.8125 64.3125
Q13.6719 62.7031 7.8125 59.4219
L7.8125 69.3906
Q13.7656 71.7812 18.9375 73
Q24.125 74.2188 28.4219 74.2188
Q39.75 74.2188 46.4844 68.5469
Q53.2188 62.8906 53.2188 53.4219
Q53.2188 48.9219 51.5312 44.8906
Q49.8594 40.875 45.4062 35.4062
Q44.1875 33.9844 37.6406 27.2188
Q31.1094 20.4531 19.1875 8.29688" id="BitstreamVeraSans-Roman-32"/>
       <path d="
M56.2031 29.5938
L56.2031 25.2031
L14.8906 25.2031
Q15.4844 15.9219 20.4844 11.0625
Q25.4844 6.20312 34.4219 6.20312
Q39.5938 6.20312 44.4531 7.46875
Q49.3125 8.73438 54.1094 11.2812
L54.1094 2.78125
Q49.2656 0.734375 44.1875 -0.34375
Q39.1094 -1.42188 33.8906 -1.42188
Q20.7969 -1.42188 13.1562 6.1875
Q5.51562 13.8125 5.51562 26.8125
Q5.51562 40.2344 12.7656 48.1094
Q20.0156 56 32.3281 56
Q43.3594 56 49.7812 48.8906
Q56.2031 41.7969 56.2031 29.5938
M47.2188 32.2344
Q47.125 39.5938 43.0938 43.9844
Q39.0625 48.3906 32.4219 48.3906
Q24.9062 48.3906 20.3906 44.1406
Q15.875 39.8906 15.1875 32.1719
z
" id="BitstreamVeraSans-Roman-65"/>
       <path d="
M8.20312 72.9062
L55.0781 72.9062
L55.0781 68.7031
L28.6094 0
L18.3125 0
L43.2188 64.5938
L8.20312 64.5938
z
" id="BitstreamVeraSans-Roman-37"/>
      </defs>
      <g transform="translate(124.126771816 26.4311057692)scale(0.1 -0.1)">
       <use xlink:href="#BitstreamVeraSans-Roman-32"/>
       <use x="63.623046875" xlink:href="#BitstreamVeraSans-Roman-65"/>
       <use x="125.146484375" xlink:href="#BitstreamVeraSans-Roman-37"/>
      </g>
     </g>
    </g>
    <g id="xtick_3">
     <g id="line2d_4">
      <defs>
       <path d="
M0 0
L0 -4" id="m68ff777589"/>
      </defs>
      <g>
       <use style="stroke:#000000;stroke-linecap:butt;stroke-width:0.5;" x="235.883231132" xlink:href="#m68ff777589" y="15.0092307692"/>
      </g>
     </g>
     <g id="text_2">
      <!-- 4e7 -->
      <defs>
       <path d="
M37.7969 64.3125
L12.8906 25.3906
L37.7969 25.3906
z

M35.2031 72.9062
L47.6094 72.9062
L47.6094 25.3906
L58.0156 25.3906
L58.0156 17.1875
L47.6094 17.1875
L47.6094 0
L37.7969 0
L37.7969 17.1875
L4.89062 17.1875
L4.89062 26.7031
z
" id="BitstreamVeraSans-Roman-34"/>
      </defs>
      <g transform="translate(227.116043632 26.2998557692)scale(0.1 -0.1)">
       <use xlink:href="#BitstreamVeraSans-Roman-34"/>
       <use x="63.623046875" xlink:href="#BitstreamVeraSans-Roman-65"/>
       <use x="125.146484375" xlink:href="#BitstreamVeraSans-Roman-37"/>
      </g>
     </g>
    </g>
    <g id="xtick_4">
     <g id="line2d_5">
      <defs>
       <path d="
M0 0
L0 -4" id="m68ff777589"/>
      </defs>
      <g>
       <use style="stroke:#000000;stroke-linecap:butt;stroke-width:0.5;" x="338.994377947" xlink:href="#m68ff777589" y="15.0092307692"/>
      </g>
     </g>
     <g id="text_3">
      <!-- 6e7 -->
      <defs>
       <path d="
M33.0156 40.375
Q26.375 40.375 22.4844 35.8281
Q18.6094 31.2969 18.6094 23.3906
Q18.6094 15.5312 22.4844 10.9531
Q26.375 6.39062 33.0156 6.39062
Q39.6562 6.39062 43.5312 10.9531
Q47.4062 15.5312 47.4062 23.3906
Q47.4062 31.2969 43.5312 35.8281
Q39.6562 40.375 33.0156 40.375
M52.5938 71.2969
L52.5938 62.3125
Q48.875 64.0625 45.0938 64.9844
Q41.3125 65.9219 37.5938 65.9219
Q27.8281 65.9219 22.6719 59.3281
Q17.5312 52.7344 16.7969 39.4062
Q19.6719 43.6562 24.0156 45.9219
Q28.375 48.1875 33.5938 48.1875
Q44.5781 48.1875 50.9531 41.5156
Q57.3281 34.8594 57.3281 23.3906
Q57.3281 12.1562 50.6875 5.35938
Q44.0469 -1.42188 33.0156 -1.42188
Q20.3594 -1.42188 13.6719 8.26562
Q6.98438 17.9688 6.98438 36.375
Q6.98438 53.6562 15.1875 63.9375
Q23.3906 74.2188 37.2031 74.2188
Q40.9219 74.2188 44.7031 73.4844
Q48.4844 72.75 52.5938 71.2969" id="BitstreamVeraSans-Roman-36"/>
      </defs>
      <g transform="translate(330.331877947 26.4311057692)scale(0.1 -0.1)">
       <use xlink:href="#BitstreamVeraSans-Roman-36"/>
       <use x="63.623046875" xlink:href="#BitstreamVeraSans-Roman-65"/>
       <use x="125.146484375" xlink:href="#BitstreamVeraSans-Roman-37"/>
      </g>
     </g>
    </g>
    <g id="xtick_5">
     <g id="line2d_6">
      <defs>
       <path d="
M0 0
L0 -4" id="m68ff777589"/>
      </defs>
      <g>
       <use style="stroke:#000000;stroke-linecap:butt;stroke-width:0.5;" x="442.105524763" xlink:href="#m68ff777589" y="15.0092307692"/>
      </g>
     </g>
     <g id="text_4">
      <!-- 8e7 -->
      <defs>
       <path d="
M31.7812 34.625
Q24.75 34.625 20.7188 30.8594
Q16.7031 27.0938 16.7031 20.5156
Q16.7031 13.9219 20.7188 10.1562
Q24.75 6.39062 31.7812 6.39062
Q38.8125 6.39062 42.8594 10.1719
Q46.9219 13.9688 46.9219 20.5156
Q46.9219 27.0938 42.8906 30.8594
Q38.875 34.625 31.7812 34.625
M21.9219 38.8125
Q15.5781 40.375 12.0312 44.7188
Q8.5 49.0781 8.5 55.3281
Q8.5 64.0625 14.7188 69.1406
Q20.9531 74.2188 31.7812 74.2188
Q42.6719 74.2188 48.875 69.1406
Q55.0781 64.0625 55.0781 55.3281
Q55.0781 49.0781 51.5312 44.7188
Q48 40.375 41.7031 38.8125
Q48.8281 37.1562 52.7969 32.3125
Q56.7812 27.4844 56.7812 20.5156
Q56.7812 9.90625 50.3125 4.23438
Q43.8438 -1.42188 31.7812 -1.42188
Q19.7344 -1.42188 13.25 4.23438
Q6.78125 9.90625 6.78125 20.5156
Q6.78125 27.4844 10.7812 32.3125
Q14.7969 37.1562 21.9219 38.8125
M18.3125 54.3906
Q18.3125 48.7344 21.8438 45.5625
Q25.3906 42.3906 31.7812 42.3906
Q38.1406 42.3906 41.7188 45.5625
Q45.3125 48.7344 45.3125 54.3906
Q45.3125 60.0625 41.7188 63.2344
Q38.1406 66.4062 31.7812 66.4062
Q25.3906 66.4062 21.8438 63.2344
Q18.3125 60.0625 18.3125 54.3906" id="BitstreamVeraSans-Roman-38"/>
      </defs>
      <g transform="translate(433.432868513 26.4311057692)scale(0.1 -0.1)">
       <use xlink:href="#BitstreamVeraSans-Roman-38"/>
       <use x="63.623046875" xlink:href="#BitstreamVeraSans-Roman-65"/>
       <use x="125.146484375" xlink:href="#BitstreamVeraSans-Roman-37"/>
      </g>
     </g>
    </g>
    <g id="xtick_6">
     <g id="line2d_7">
      <defs>
       <path d="
M0 0
L0 -4" id="m68ff777589"/>
      </defs>
      <g>
       <use style="stroke:#000000;stroke-linecap:butt;stroke-width:0.5;" x="545.216671579" xlink:href="#m68ff777589" y="15.0092307692"/>
      </g>
     </g>
     <g id="text_5">
      <!-- 1e8 -->
      <defs>
       <path d="
M12.4062 8.29688
L28.5156 8.29688
L28.5156 63.9219
L10.9844 60.4062
L10.9844 69.3906
L28.4219 72.9062
L38.2812 72.9062
L38.2812 8.29688
L54.3906 8.29688
L54.3906 0
L12.4062 0
z
" id="BitstreamVeraSans-Roman-31"/>
      </defs>
      <g transform="translate(536.669015329 26.4311057692)scale(0.1 -0.1)">
       <use xlink:href="#BitstreamVeraSans-Roman-31"/>
       <use x="63.623046875" xlink:href="#BitstreamVeraSans-Roman-65"/>
       <use x="125.146484375" xlink:href="#BitstreamVeraSans-Roman-38"/>
      </g>
     </g>
    </g>
    <g id="xtick_7">
     <g id="line2d_8">
      <defs>
       <path d="
M0 0
L0 -2" id="me6cfb6af71"/>
      </defs>
      <g>
       <use style="stroke:#000000;stroke-linecap:butt;stroke-width:0.5;" x="55.4387242039" xlink:href="#me6cfb6af71" y="15.0092307692"/>
      </g>
     </g>
    </g>
    <g id="xtick_8">
     <g id="line2d_9">
      <defs>
       <path d="
M0 0
L0 -2" id="me6cfb6af71"/>
      </defs>
      <g>
       <use style="stroke:#000000;stroke-linecap:butt;stroke-width:0.5;" x="81.2165109079" xlink:href="#me6cfb6af71" y="15.0092307692"/>
      </g>
     </g>
    </g>
    <g id="xtick_9">
     <g id="line2d_10">
      <defs>
       <path d="
M0 0
L0 -2" id="me6cfb6af71"/>
      </defs>
      <g>
       <use style="stroke:#000000;stroke-linecap:butt;stroke-width:0.5;" x="106.994297612" xlink:href="#me6cfb6af71" y="15.0092307692"/>
      </g>
     </g>
    </g>
    <g id="xtick_10">
     <g id="line2d_11">
      <defs>
       <path d="
M0 0
L0 -2" id="me6cfb6af71"/>
      </defs>
      <g>
       <use style="stroke:#000000;stroke-linecap:butt;stroke-width:0.5;" x="158.54987102" xlink:href="#me6cfb6af71" y="15.0092307692"/>
      </g>
     </g>
    </g>
    <g id="xtick_11">
     <g id="line2d_12">
      <defs>
       <path d="
M0 0
L0 -2" id="me6cfb6af71"/>
      </defs>
      <g>
       <use style="stroke:#000000;stroke-linecap:butt;stroke-width:0.5;" x="184.327657724" xlink:href="#me6cfb6af71" y="15.0092307692"/>
      </g>
     </g>
    </g>
    <g id="xtick_12">
     <g id="line2d_13">
      <defs>
       <path d="
M0 0
L0 -2" id="me6cfb6af71"/>
      </defs>
      <g>
       <use style="stroke:#000000;stroke-linecap:butt;stroke-width:0.5;" x="210.105444428" xlink:href="#me6cfb6af71" y="15.0092307692"/>
      </g>
     </g>
    </g>
    <g id="xtick_13">
     <g id="line2d_14">
      <defs>
       <path d="
M0 0
L0 -2" id="me6cfb6af71"/>
      </defs>
      <g>
       <use style="stroke:#000000;stroke-linecap:butt;stroke-width:0.5;" x="261.661017835" xlink:href="#me6cfb6af71" y="15.0092307692"/>
      </g>
     </g>
    </g>
    <g id="xtick_14">
     <g id="line2d_15">
      <defs>
       <path d="
M0 0
L0 -2" id="me6cfb6af71"/>
      </defs>
      <g>
       <use style="stroke:#000000;stroke-linecap:butt;stroke-width:0.5;" x="287.438804539" xlink:href="#me6cfb6af71" y="15.0092307692"/>
      </g>
     </g>
    </g>
    <g id="xtick_15">
     <g id="line2d_16">
      <defs>
       <path d="
M0 0
L0 -2" id="me6cfb6af71"/>
      </defs>
      <g>
       <use style="stroke:#000000;stroke-linecap:butt;stroke-width:0.5;" x="313.216591243" xlink:href="#me6cfb6af71" y="15.0092307692"/>
      </g>
     </g>
    </g>
    <g id="xtick_16">
     <g id="line2d_17">
      <defs>
       <path d="
M0 0
L0 -2" id="me6cfb6af71"/>
      </defs>
      <g>
       <use style="stroke:#000000;stroke-linecap:butt;stroke-width:0.5;" x="364.772164651" xlink:href="#me6cfb6af71" y="15.0092307692"/>
      </g>
     </g>
    </g>
    <g id="xtick_17">
     <g id="line2d_18">
      <defs>
       <path d="
M0 0
L0 -2" id="me6cfb6af71"/>
      </defs>
      <g>
       <use style="stroke:#000000;stroke-linecap:butt;stroke-width:0.5;" x="390.549951355" xlink:href="#me6cfb6af71" y="15.0092307692"/>
      </g>
     </g>
    </g>
    <g id="xtick_18">
     <g id="line2d_19">
      <defs>
       <path d="
M0 0
L0 -2" id="me6cfb6af71"/>
      </defs>
      <g>
       <use style="stroke:#000000;stroke-linecap:butt;stroke-width:0.5;" x="416.327738059" xlink:href="#me6cfb6af71" y="15.0092307692"/>
      </g>
     </g>
    </g>
    <g id="xtick_19">
     <g id="line2d_20">
      <defs>
       <path d="
M0 0
L0 -2" id="me6cfb6af71"/>
      </defs>
      <g>
       <use style="stroke:#000000;stroke-linecap:butt;stroke-width:0.5;" x="467.883311467" xlink:href="#me6cfb6af71" y="15.0092307692"/>
      </g>
     </g>
    </g>
    <g id="xtick_20">
     <g id="line2d_21">
      <defs>
       <path d="
M0 0
L0 -2" id="me6cfb6af71"/>
      </defs>
      <g>
       <use style="stroke:#000000;stroke-linecap:butt;stroke-width:0.5;" x="493.661098171" xlink:href="#me6cfb6af71" y="15.0092307692"/>
      </g>
     </g>
    </g>
    <g id="xtick_21">
     <g id="line2d_22">
      <defs>
       <path d="
M0 0
L0 -2" id="me6cfb6af71"/>
      </defs>
      <g>
       <use style="stroke:#000000;stroke-linecap:butt;stroke-width:0.5;" x="519.438884875" xlink:href="#me6cfb6af71" y="15.0092307692"/>
      </g>
     </g>
    </g>
   </g>
   <g id="matplotlib.axis_2">
    <g id="ytick_1">
     <g id="line2d_23">
      <defs>
       <path d="
M0 0
L4 0" id="m919501619d"/>
      </defs>
      <g>
       <use style="stroke:#000000;stroke-linecap:butt;stroke-width:0.5;" x="29.6609375" xlink:href="#m919501619d" y="345.317665553"/>
      </g>
     </g>
     <g id="text_6">
      <!-- -0.4 -->
      <defs>
       <path d="
M31.7812 66.4062
Q24.1719 66.4062 20.3281 58.9062
Q16.5 51.4219 16.5 36.375
Q16.5 21.3906 20.3281 13.8906
Q24.1719 6.39062 31.7812 6.39062
Q39.4531 6.39062 43.2812 13.8906
Q47.125 21.3906 47.125 36.375
Q47.125 51.4219 43.2812 58.9062
Q39.4531 66.4062 31.7812 66.4062
M31.7812 74.2188
Q44.0469 74.2188 50.5156 64.5156
Q56.9844 54.8281 56.9844 36.375
Q56.9844 17.9688 50.5156 8.26562
Q44.0469 -1.42188 31.7812 -1.42188
Q19.5312 -1.42188 13.0625 8.26562
Q6.59375 17.9688 6.59375 36.375
Q6.59375 54.8281 13.0625 64.5156
Q19.5312 74.2188 31.7812 74.2188" id="BitstreamVeraSans-Roman-30"/>
       <path d="
M10.6875 12.4062
L21 12.4062
L21 0
L10.6875 0
z
" id="BitstreamVeraSans-Roman-2e"/>
       <path d="
M4.89062 31.3906
L31.2031 31.3906
L31.2031 23.3906
L4.89062 23.3906
z
" id="BitstreamVeraSans-Roman-2d"/>
      </defs>
      <g transform="translate(7.2 348.957509303)scale(0.1 -0.1)">
       <use xlink:href="#BitstreamVeraSans-Roman-2d"/>
       <use x="36.083984375" xlink:href="#BitstreamVeraSans-Roman-30"/>
       <use x="99.70703125" xlink:href="#BitstreamVeraSans-Roman-2e"/>
       <use x="131.494140625" xlink:href="#BitstreamVeraSans-Roman-34"/>
      </g>
     </g>
    </g>
    <g id="ytick_2">
     <g id="line2d_24">
      <defs>
       <path d="
M0 0
L4 0" id="m919501619d"/>
      </defs>
      <g>
       <use style="stroke:#000000;stroke-linecap:butt;stroke-width:0.5;" x="29.6609375" xlink:href="#m919501619d" y="262.740556857"/>
      </g>
     </g>
     <g id="text_7">
      <!-- -0.3 -->
      <defs>
       <path d="
M40.5781 39.3125
Q47.6562 37.7969 51.625 33
Q55.6094 28.2188 55.6094 21.1875
Q55.6094 10.4062 48.1875 4.48438
Q40.7656 -1.42188 27.0938 -1.42188
Q22.5156 -1.42188 17.6562 -0.515625
Q12.7969 0.390625 7.625 2.20312
L7.625 11.7188
Q11.7188 9.32812 16.5938 8.10938
Q21.4844 6.89062 26.8125 6.89062
Q36.0781 6.89062 40.9375 10.5469
Q45.7969 14.2031 45.7969 21.1875
Q45.7969 27.6406 41.2812 31.2656
Q36.7656 34.9062 28.7188 34.9062
L20.2188 34.9062
L20.2188 43.0156
L29.1094 43.0156
Q36.375 43.0156 40.2344 45.9219
Q44.0938 48.8281 44.0938 54.2969
Q44.0938 59.9062 40.1094 62.9062
Q36.1406 65.9219 28.7188 65.9219
Q24.6562 65.9219 20.0156 65.0312
Q15.375 64.1562 9.8125 62.3125
L9.8125 71.0938
Q15.4375 72.6562 20.3438 73.4375
Q25.25 74.2188 29.5938 74.2188
Q40.8281 74.2188 47.3594 69.1094
Q53.9062 64.0156 53.9062 55.3281
Q53.9062 49.2656 50.4375 45.0938
Q46.9688 40.9219 40.5781 39.3125" id="BitstreamVeraSans-Roman-33"/>
      </defs>
      <g transform="translate(7.440625 266.380400607)scale(0.1 -0.1)">
       <use xlink:href="#BitstreamVeraSans-Roman-2d"/>
       <use x="36.083984375" xlink:href="#BitstreamVeraSans-Roman-30"/>
       <use x="99.70703125" xlink:href="#BitstreamVeraSans-Roman-2e"/>
       <use x="131.494140625" xlink:href="#BitstreamVeraSans-Roman-33"/>
      </g>
     </g>
    </g>
    <g id="ytick_3">
     <g id="line2d_25">
      <defs>
       <path d="
M0 0
L4 0" id="m919501619d"/>
      </defs>
      <g>
       <use style="stroke:#000000;stroke-linecap:butt;stroke-width:0.5;" x="29.6609375" xlink:href="#m919501619d" y="180.163448161"/>
      </g>
     </g>
     <g id="text_8">
      <!-- -0.2 -->
      <g transform="translate(7.640625 183.803291911)scale(0.1 -0.1)">
       <use xlink:href="#BitstreamVeraSans-Roman-2d"/>
       <use x="36.083984375" xlink:href="#BitstreamVeraSans-Roman-30"/>
       <use x="99.70703125" xlink:href="#BitstreamVeraSans-Roman-2e"/>
       <use x="131.494140625" xlink:href="#BitstreamVeraSans-Roman-32"/>
      </g>
     </g>
    </g>
    <g id="ytick_4">
     <g id="line2d_26">
      <defs>
       <path d="
M0 0
L4 0" id="m919501619d"/>
      </defs>
      <g>
       <use style="stroke:#000000;stroke-linecap:butt;stroke-width:0.5;" x="29.6609375" xlink:href="#m919501619d" y="97.5863394652"/>
      </g>
     </g>
     <g id="text_9">
      <!-- -0.1 -->
      <g transform="translate(7.5625 101.226183215)scale(0.1 -0.1)">
       <use xlink:href="#BitstreamVeraSans-Roman-2d"/>
       <use x="36.083984375" xlink:href="#BitstreamVeraSans-Roman-30"/>
       <use x="99.70703125" xlink:href="#BitstreamVeraSans-Roman-2e"/>
       <use x="131.494140625" xlink:href="#BitstreamVeraSans-Roman-31"/>
      </g>
     </g>
    </g>
    <g id="ytick_5">
     <g id="line2d_27">
      <defs>
       <path d="
M0 0
L4 0" id="m919501619d"/>
      </defs>
      <g>
       <use style="stroke:#000000;stroke-linecap:butt;stroke-width:0.5;" x="29.6609375" xlink:href="#m919501619d" y="15.0092307692"/>
      </g>
     </g>
    </g>
    <g id="ytick_6">
     <g id="line2d_28">
      <defs>
       <path d="
M0 0
L2 0" id="m53389b261c"/>
      </defs>
      <g>
       <use style="stroke:#000000;stroke-linecap:butt;stroke-width:0.5;" x="29.6609375" xlink:href="#m53389b261c" y="411.37935251"/>
      </g>
     </g>
    </g>
    <g id="ytick_7">
     <g id="line2d_29">
      <defs>
       <path d="
M0 0
L2 0" id="m53389b261c"/>
      </defs>
      <g>
       <use style="stroke:#000000;stroke-linecap:butt;stroke-width:0.5;" x="29.6609375" xlink:href="#m53389b261c" y="394.863930771"/>
      </g>
     </g>
    </g>
    <g id="ytick_8">
     <g id="line2d_30">
      <defs>
       <path d="
M0 0
L2 0" id="m53389b261c"/>
      </defs>
      <g>
       <use style="stroke:#000000;stroke-linecap:butt;stroke-width:0.5;" x="29.6609375" xlink:href="#m53389b261c" y="378.348509032"/>
      </g>
     </g>
    </g>
    <g id="ytick_9">
     <g id="line2d_31">
      <defs>
       <path d="
M0 0
L2 0" id="m53389b261c"/>
      </defs>
      <g>
       <use style="stroke:#000000;stroke-linecap:butt;stroke-width:0.5;" x="29.6609375" xlink:href="#m53389b261c" y="361.833087292"/>
      </g>
     </g>
    </g>
    <g id="ytick_10">
     <g id="line2d_32">
      <defs>
       <path d="
M0 0
L2 0" id="m53389b261c"/>
      </defs>
      <g>
       <use style="stroke:#000000;stroke-linecap:butt;stroke-width:0.5;" x="29.6609375" xlink:href="#m53389b261c" y="328.802243814"/>
      </g>
     </g>
    </g>
    <g id="ytick_11">
     <g id="line2d_33">
      <defs>
       <path d="
M0 0
L2 0" id="m53389b261c"/>
      </defs>
      <g>
       <use style="stroke:#000000;stroke-linecap:butt;stroke-width:0.5;" x="29.6609375" xlink:href="#m53389b261c" y="312.286822075"/>
      </g>
     </g>
    </g>
    <g id="ytick_12">
     <g id="line2d_34">
      <defs>
       <path d="
M0 0
L2 0" id="m53389b261c"/>
      </defs>
      <g>
       <use style="stroke:#000000;stroke-linecap:butt;stroke-width:0.5;" x="29.6609375" xlink:href="#m53389b261c" y="295.771400336"/>
      </g>
     </g>
    </g>
    <g id="ytick_13">
     <g id="line2d_35">
      <defs>
       <path d="
M0 0
L2 0" id="m53389b261c"/>
      </defs>
      <g>
       <use style="stroke:#000000;stroke-linecap:butt;stroke-width:0.5;" x="29.6609375" xlink:href="#m53389b261c" y="279.255978596"/>
      </g>
     </g>
    </g>
    <g id="ytick_14">
     <g id="line2d_36">
      <defs>
       <path d="
M0 0
L2 0" id="m53389b261c"/>
      </defs>
      <g>
       <use style="stroke:#000000;stroke-linecap:butt;stroke-width:0.5;" x="29.6609375" xlink:href="#m53389b261c" y="246.225135118"/>
      </g>
     </g>
    </g>
    <g id="ytick_15">
     <g id="line2d_37">
      <defs>
       <path d="
M0 0
L2 0" id="m53389b261c"/>
      </defs>
      <g>
       <use style="stroke:#000000;stroke-linecap:butt;stroke-width:0.5;" x="29.6609375" xlink:href="#m53389b261c" y="229.709713379"/>
      </g>
     </g>
    </g>
    <g id="ytick_16">
     <g id="line2d_38">
      <defs>
       <path d="
M0 0
L2 0" id="m53389b261c"/>
      </defs>
      <g>
       <use style="stroke:#000000;stroke-linecap:butt;stroke-width:0.5;" x="29.6609375" xlink:href="#m53389b261c" y="213.19429164"/>
      </g>
     </g>
    </g>
    <g id="ytick_17">
     <g id="line2d_39">
      <defs>
       <path d="
M0 0
L2 0" id="m53389b261c"/>
      </defs>
      <g>
       <use style="stroke:#000000;stroke-linecap:butt;stroke-width:0.5;" x="29.6609375" xlink:href="#m53389b261c" y="196.6788699"/>
      </g>
     </g>
    </g>
    <g id="ytick_18">
     <g id="line2d_40">
      <defs>
       <path d="
M0 0
L2 0" id="m53389b261c"/>
      </defs>
      <g>
       <use style="stroke:#000000;stroke-linecap:butt;stroke-width:0.5;" x="29.6609375" xlink:href="#m53389b261c" y="163.648026422"/>
      </g>
     </g>
    </g>
    <g id="ytick_19">
     <g id="line2d_41">
      <defs>
       <path d="
M0 0
L2 0" id="m53389b261c"/>
      </defs>
      <g>
       <use style="stroke:#000000;stroke-linecap:butt;stroke-width:0.5;" x="29.6609375" xlink:href="#m53389b261c" y="147.132604683"/>
      </g>
     </g>
    </g>
    <g id="ytick_20">
     <g id="line2d_42">
      <defs>
       <path d="
M0 0
L2 0" id="m53389b261c"/>
      </defs>
      <g>
       <use style="stroke:#000000;stroke-linecap:butt;stroke-width:0.5;" x="29.6609375" xlink:href="#m53389b261c" y="130.617182944"/>
      </g>
     </g>
    </g>
    <g id="ytick_21">
     <g id="line2d_43">
      <defs>
       <path d="
M0 0
L2 0" id="m53389b261c"/>
      </defs>
      <g>
       <use style="stroke:#000000;stroke-linecap:butt;stroke-width:0.5;" x="29.6609375" xlink:href="#m53389b261c" y="114.101761204"/>
      </g>
     </g>
    </g>
    <g id="ytick_22">
     <g id="line2d_44">
      <defs>
       <path d="
M0 0
L2 0" id="m53389b261c"/>
      </defs>
      <g>
       <use style="stroke:#000000;stroke-linecap:butt;stroke-width:0.5;" x="29.6609375" xlink:href="#m53389b261c" y="81.070917726"/>
      </g>
     </g>
    </g>
    <g id="ytick_23">
     <g id="line2d_45">
      <defs>
       <path d="
M0 0
L2 0" id="m53389b261c"/>
      </defs>
      <g>
       <use style="stroke:#000000;stroke-linecap:butt;stroke-width:0.5;" x="29.6609375" xlink:href="#m53389b261c" y="64.5554959868"/>
      </g>
     </g>
    </g>
    <g id="ytick_24">
     <g id="line2d_46">
      <defs>
       <path d="
M0 0
L2 0" id="m53389b261c"/>
      </defs>
      <g>
       <use style="stroke:#000000;stroke-linecap:butt;stroke-width:0.5;" x="29.6609375" xlink:href="#m53389b261c" y="48.0400742476"/>
      </g>
     </g>
    </g>
    <g id="ytick_25">
     <g id="line2d_47">
      <defs>
       <path d="
M0 0
L2 0" id="m53389b261c"/>
      </defs>
      <g>
       <use style="stroke:#000000;stroke-linecap:butt;stroke-width:0.5;" x="29.6609375" xlink:href="#m53389b261c" y="31.5246525084"/>
      </g>
     </g>
    </g>
   </g>
   <g id="patch_3">
    <path d="
M19.3504 15.0092
L555.498 15.0092" style="fill:none;stroke:#000000;stroke-width:0.8;"/>
   </g>
   <g id="patch_4">
    <path d="
M29.6609 413.28
L29.6609 7.2" style="fill:none;stroke:#000000;stroke-width:0.8;"/>
   </g>
  </g>
 </g>
 <defs>
  <clipPath id="p4ae238b7d9">
   <rect height="406.08" width="536.147492448" x="19.3504191102" y="7.2"/>
  </clipPath>
 </defs>
</svg>
