<?xml version="1.0" encoding="utf-8" standalone="no"?>
<!DOCTYPE svg PUBLIC "-//W3C//DTD SVG 1.1//EN"
  "http://www.w3.org/Graphics/SVG/1.1/DTD/svg11.dtd">
<!-- Created with matplotlib (http://matplotlib.sourceforge.net/) -->
<svg height="419pt" version="1.1" viewBox="0 0 564 419" width="564pt" xmlns="http://www.w3.org/2000/svg" xmlns:xlink="http://www.w3.org/1999/xlink">
 <defs>
  <style type="text/css">
*{stroke-linecap:square;stroke-linejoin:round;}
  </style>
 </defs>
 <g id="figure_1">
  <g id="patch_1">
   <path d="
M4.44089e-16 419.617
L564.574 419.617
L564.574 0
L4.44089e-16 0
z
" style="fill:#ffffff;"/>
  </g>
  <g id="axes_1">
   <g id="patch_2">
    <path d="
M65.5062 408.105
L557.374 408.105
L557.374 7.2
L65.5062 7.2
z
" style="fill:#ffffff;"/>
   </g>
   <g id="line2d_1">
    <path clip-path="url(#pf680416423)" d="
M74.9652 29.9731
L85.7826 29.9731
L85.7826 29.9731
L85.7826 29.9731
L99.4108 29.9731
L99.4108 29.9731
L99.4108 29.9731
L108.387 29.9731
L108.387 14.9097
L120.446 14.9097
L120.446 15.1991
L124.903 15.1991
L124.903 26.5795
L132.06 26.5795
L132.06 36.7685
L135.027 36.7685
L135.027 45.3442
L140.124 45.3442
L140.124 53.3466
L146.308 53.3466
L146.308 68.8082
L148.088 68.8082
L148.088 76.3164
L152.808 76.3164
L152.808 91.5181
L155.547 91.5181
L155.547 104.356
L156.817 104.356
L156.817 112.701
L159.19 112.701
L159.19 123.193
L162.396 123.193
L162.396 132.302
L165.257 132.302
L165.257 141.248
L166.146 141.248
L166.146 143.87
L168.649 143.87
L168.649 153.645
L170.196 153.645
L170.196 160.228
L170.937 160.228
L170.937 163.585
L173.045 163.585
L173.045 175.536
L174.362 175.536
L174.362 182.802
L176.224 182.802
L176.224 192.598
L178.521 192.598
L178.521 204.702
L179.599 204.702
L179.599 210.214
L180.122 210.214
L180.122 212.208
L181.138 212.208
L181.138 215.211
L181.632 215.211
L181.632 216.774
L182.594 216.774
L182.594 220.094
L185.71 220.094
L185.71 231.773
L186.537 231.773
L186.537 235.333
L187.732 235.333
L187.732 241.934
L188.119 241.934
L188.119 243.515
L189.972 243.515
L189.972 248.624
L190.328 248.624
L190.328 249.641
L191.368 249.641
L191.368 252.817
L192.368 252.817
L192.368 257.158
L193.015 257.158
L193.015 260.407
L193.957 260.407
L193.957 264.357
L194.866 264.357
L194.866 267.754
L195.163 267.754
L195.163 268.741
L196.597 268.741
L196.597 274.867
L196.875 274.867
L196.875 276.371
L197.422 276.371
L197.422 279.156
L197.692 279.156
L197.692 280.347
L199.254 280.347
L199.254 285.521
L200.73 285.521
L200.73 290.45
L201.204 290.45
L201.204 292.324
L201.438 292.324
L201.438 292.93
L201.9 292.93
L201.9 294.312
L202.578 294.312
L202.578 296.564
L202.801 296.564
L202.801 297.542
L203.885 297.542
L203.885 303.197
L204.516 303.197
L204.516 306.698
L205.131 306.698
L205.131 309.629
L205.733 309.629
L205.733 312.441
L205.931 312.441
L205.931 313.265
L206.515 313.265
L206.515 315.373
L206.897 315.373
L206.897 316.704
L207.087 316.704
L207.087 317.316
L208.013 317.316
L208.013 320.778
L209.258 320.778
L209.258 324.772
L209.604 324.772
L209.604 325.727
L209.775 325.727
L209.775 326.263
L210.114 326.263
L210.114 327.033
L211.267 327.033
L211.267 329.588
L211.746 329.588
L211.746 330.503
L212.526 330.503
L212.526 331.225
L212.679 331.225
L212.679 331.429
L212.983 331.429
L212.983 331.658
L213.433 331.658
L213.433 332.064
L214.021 332.064
L214.021 332.191
L216.385 332.245
L216.385 332.33
L216.912 332.33
L216.912 332.725
L218.309 332.779
L218.309 332.265
L218.8 332.163
L218.8 331.591
L219.042 331.591
L219.042 331.319
L219.401 331.319
L219.401 330.747
L219.872 330.747
L219.872 330.094
L220.105 330.094
L220.105 329.838
L220.22 329.838
L220.22 329.673
L220.45 329.673
L220.45 329.233
L221.127 329.233
L221.127 327.986
L221.568 327.986
L221.568 326.82
L221.787 326.82
L221.787 326.117
L222.218 326.117
L222.218 324.841
L222.431 324.841
L222.431 324.155
L222.747 324.155
L222.747 323.065
L223.369 323.065
L223.471 320.865
L224.374 320.865
L224.374 319.079
L224.668 319.079
L224.668 318.751
L225.151 318.751
L225.151 318.249
L225.437 318.249
L225.437 317.737
L225.72 317.737
L225.814 316.947
L226.093 316.947
L226.093 316.238
L226.551 316.238
L226.551 314.801
L226.822 314.801
L226.822 313.873
L227.091 313.873
L227.18 312.514
L227.445 312.514
L227.445 311.569
L227.707 311.569
L227.707 310.5
L227.881 310.5
L227.967 309.51
L228.479 309.51
L228.479 307.887
L228.899 307.887
L228.982 306.134
L229.147 306.134
L229.147 305.66
L229.394 305.66
L229.394 304.901
L229.638 304.901
L229.719 303.906
L230.199 303.906
L230.199 301.997
L230.357 301.997
L230.357 301.395
L230.592 301.395
L230.592 300.513
L230.903 300.513
L230.903 299.41
L231.286 299.41
L231.286 298.245
L231.589 298.245
L231.589 297.383
L231.962 297.383
L231.962 296.471
L232.258 296.471
L232.258 295.608
L232.477 295.608
L232.477 294.891
L232.694 294.891
L232.694 294.24
L232.838 294.24
L232.838 293.806
L233.124 293.806
L233.124 292.925
L233.336 292.925
L233.336 292.361
L233.477 292.361
L233.477 291.973
L233.756 291.973
L233.756 291.317
L233.894 291.317
L233.894 291.065
L234.373 291.065
L234.373 290.195
L234.71 290.195
L234.71 289.706
L235.109 289.706
L235.175 288.784
L235.502 288.784
L235.567 287.961
L235.696 287.961
L235.76 287.499
L236.08 287.499
L236.08 286.946
L236.522 286.946
L236.522 285.952
L236.647 285.952
L236.709 285.524
L236.833 285.524
L236.833 285.358
L237.262 285.358
L237.262 284.873
L237.383 284.873
L237.444 284.71
L238.159 284.651
L238.159 284.497
L238.799 284.505
L238.799 284.613
L239.028 284.613
L239.028 284.763
L240.683 284.662
L240.683 284.625
L242.343 284.664
L242.394 284.421
L242.989 284.322
L243.087 283.958
L243.233 283.887
L243.233 283.734
L243.379 283.734
L243.379 283.498
L243.524 283.498
L243.524 283.303
L243.716 283.303
L243.716 283.066
L243.858 283.066
L243.858 282.879
L244.001 282.879
L244.001 282.732
L244.515 282.732
L244.562 282.193
L245.202 282.178
L245.202 282.318
L245.472 282.398
L245.472 282.49
L245.65 282.49
L245.65 282.705
L245.915 282.705
L246.003 283.198
L246.134 283.198
L246.134 283.414
L246.265 283.414
L246.308 283.679
L246.438 283.679
L246.438 283.863
L246.695 283.863
L246.695 284.252
L246.908 284.252
L246.908 284.684
L247.287 284.684
L247.329 285.534
L247.412 285.534
L247.412 285.703
L247.536 285.703
L247.578 286.124
L247.702 286.124
L247.784 286.655
L247.825 286.655
L247.906 287.072
L248.15 287.072
L248.191 288.174
L248.312 288.174
L248.312 288.642
L248.987 288.642
L248.987 291.548
L249.104 291.548
L249.104 292.052
L249.221 292.052
L249.221 292.569
L249.376 292.569
L249.376 293.298
L249.721 293.298
L249.721 294.856
L249.911 294.856
L249.911 295.688
L250.175 295.688
L250.25 297.117
L250.287 297.117
L250.362 297.667
L250.473 297.667
L250.473 298.179
L250.621 298.179
L250.732 299.331
L250.842 299.331
L250.842 299.793
L251.06 299.793
L251.06 300.79
L251.241 300.79
L251.349 302.024
L251.385 302.024
L251.456 302.472
L251.563 302.472
L251.563 302.88
L251.776 302.88
L251.776 303.694
L251.987 303.694
L251.987 304.513
L252.127 304.513
L252.127 305.075
L252.335 305.075
L252.438 306.225
L252.507 306.225
L252.61 306.773
L252.747 306.773
L252.815 307.324
L252.95 307.324
L253.018 307.932
L253.253 307.932
L253.319 308.981
L253.419 308.981
L253.519 309.649
L253.618 309.649
L253.651 310.138
L253.749 310.138
L253.749 310.529
L253.913 310.529
L253.913 311.248
L254.237 311.248
L254.333 312.916
L254.397 312.916
L254.429 313.256
L254.81 313.256
L254.904 314.922
L255.061 314.922
L255.061 315.471
L255.248 315.471
L255.279 316.281
L255.433 316.281
L255.433 316.796
L255.556 316.796
L255.648 317.515
L255.739 317.515
L255.83 318.21
L256.102 318.21
L256.192 319.393
L256.252 319.393
L256.282 319.733
L256.46 319.733
L256.46 320.382
L256.608 320.382
L256.608 320.901
L256.784 320.901
L256.784 321.465
L256.901 321.465
L256.901 321.854
L257.133 321.854
L257.133 322.538
L257.334 322.538
L257.42 323.243
L257.506 323.347
L257.591 323.541
L257.733 323.541
L257.733 323.781
L257.902 323.781
L257.986 324.2
L258.069 324.2
L258.069 324.361
L258.319 324.361
L258.347 324.914
L258.567 324.914
L258.594 325.368
L258.893 325.368
L258.974 325.98
L259.082 325.98
L259.162 326.419
L259.216 326.419
L259.296 326.754
L259.402 326.754
L259.482 327.17
L259.614 327.17
L259.64 327.517
L259.771 327.517
L259.771 327.84
L259.954 327.84
L259.954 328.244
L260.083 328.244
L260.161 328.726
L260.315 328.726
L260.417 329.426
L260.545 329.426
L260.545 329.794
L260.697 329.794
L260.722 330.295
L260.924 330.295
L261.024 331.068
L261.073 331.068
L261.098 331.269
L261.223 331.269
L261.322 331.792
L261.543 331.792
L261.543 332.353
L261.835 332.353
L261.883 333.086
L261.956 333.086
L262.052 333.364
L262.244 333.364
L262.315 333.677
L262.41 333.677
L262.41 333.811
L262.599 333.811
L262.67 334.171
L262.833 334.261
L262.903 334.348
L263.365 334.437
L263.456 334.54
L263.863 334.629
L263.93 334.706
L264.308 334.816
L264.375 334.874
L265.241 334.949
L265.241 335.006
L266.039 335.047
L266.039 335.238
L266.184 335.333
L266.184 335.349
L266.348 335.349
L266.429 335.527
L266.733 335.62
L266.834 335.679
L266.974 335.717
L267.034 335.857
L267.193 335.955
L267.252 336.044
L267.371 336.148
L267.449 336.34
L267.547 336.34
L267.567 336.548
L267.664 336.548
L267.742 336.864
L267.916 336.922
L268.013 337.299
L268.128 337.299
L268.204 337.687
L268.413 337.791
L268.413 338.064
L268.545 338.064
L268.639 338.431
L268.77 338.541
L268.808 338.672
L268.975 338.672
L269.049 339.04
L269.141 339.04
L269.251 339.387
L269.416 339.497
L269.525 339.772
L269.652 339.772
L269.742 340.029
L270.064 340.139
L270.171 340.612
L270.4 340.711
L270.506 340.918
L270.663 341.014
L270.767 341.192
L271.025 341.282
L271.128 341.629
L271.265 341.629
L271.265 341.783
L271.485 341.783
L271.535 342.167
L271.636 342.167
L271.72 342.495
L271.82 342.495
L271.87 342.748
L271.936 342.748
L272.036 343.049
L272.217 343.049
L272.282 343.546
L272.381 343.546
L272.381 343.772
L272.608 343.772
L272.673 344.48
L272.721 344.48
L272.801 344.812
L272.849 344.812
L272.865 344.997
L272.961 344.997
L272.993 345.344
L273.089 345.344
L273.2 345.932
L273.326 345.932
L273.342 346.336
L273.467 346.336
L273.514 346.876
L273.67 346.876
L273.67 347.331
L273.794 347.331
L273.902 348.04
L273.948 348.137
L273.948 348.188
L274.117 348.188
L274.178 348.991
L274.27 348.991
L274.315 349.511
L274.391 349.511
L274.497 350.177
L274.542 350.177
L274.632 350.673
L274.722 350.673
L274.811 351.33
L274.885 351.33
L274.989 351.921
L275.034 351.921
L275.107 352.322
L275.166 352.322
L275.254 352.892
L275.371 352.892
L275.473 353.677
L275.603 353.782
L275.676 354.373
L275.733 354.373
L275.805 354.842
L275.862 354.842
L275.948 355.397
L276.105 355.397
L276.161 356.185
L276.232 356.185
L276.331 356.813
L276.401 356.912
L276.401 357.064
L276.527 357.064
L276.611 357.776
L276.708 357.776
L276.819 358.447
L276.915 358.447
L276.997 358.991
L277.121 358.991
L277.23 359.704
L277.27 359.704
L277.365 360.14
L277.527 360.226
L277.527 360.644
L277.675 360.644
L277.768 361.358
L277.835 361.424
L277.928 361.79
L278.073 361.79
L278.126 362.362
L278.231 362.362
L278.27 362.753
L278.348 362.753
L278.401 363.102
L278.479 363.102
L278.582 363.618
L278.621 363.659
L278.66 363.878
L278.75 363.878
L278.788 364.334
L278.903 364.334
L278.903 364.695
L279.056 364.695
L279.158 365.508
L279.234 365.546
L279.322 366.042
L279.385 366.042
L279.435 366.443
L279.497 366.443
L279.572 366.885
L279.609 366.885
L279.659 367.195
L279.845 367.195
L279.919 368.05
L279.98 368.05
L280.066 368.495
L280.127 368.495
L280.236 369.014
L280.346 369.121
L280.43 369.537
L280.538 369.537
L280.634 370.074
L280.778 370.164
L280.849 370.605
L280.932 370.605
L281.027 371.032
L281.168 371.032
L281.25 371.459
L281.378 371.52
L281.46 371.807
L281.598 371.868
L281.702 372.194
L281.771 372.294
L281.84 372.431
L281.931 372.523
L282 372.695
L282.17 372.793
L282.237 373.032
L282.339 373.032
L282.384 373.229
L282.518 373.229
L282.618 373.531
L283.179 373.624
L283.266 373.71
L283.439 373.805
L283.536 373.891
L284.225 373.987
L284.329 374.068
L284.599 374.176
L284.691 374.22
L285.492 374.113
L285.512 374.069
L285.907 373.958
L285.996 373.884
L286.132 373.79
L286.162 373.725
L286.249 373.725
L286.346 373.46
L286.519 373.387
L286.596 373.12
L286.834 373.038
L286.92 372.882
L287.117 372.787
L287.202 372.625
L287.37 372.537
L287.426 372.364
L287.564 372.364
L287.666 372.133
L287.84 372.049
L287.94 371.935
L288.104 371.858
L288.131 371.748
L288.221 371.748
L288.293 371.551
L288.481 371.478
L288.508 371.299
L288.614 371.19
L288.694 371.066
L288.8 370.968
L288.888 370.805
L288.958 370.761
L289.063 370.514
L289.142 370.454
L289.229 370.253
L289.324 370.168
L289.427 369.934
L289.513 369.845
L289.565 369.719
L289.642 369.719
L289.744 369.462
L289.872 369.357
L289.964 369.288
L290.787 369.345
L290.893 369.518
L291.015 369.619
L291.104 369.729
L291.258 369.793
L291.354 369.919
L291.514 370.006
L291.585 370.11
L291.751 370.166
L291.83 370.316
L291.917 370.383
L292.018 370.552
L292.128 370.618
L292.228 370.833
L292.337 370.941
L292.36 370.992
L292.475 370.992
L292.567 371.273
L292.667 371.38
L292.75 371.549
L292.842 371.652
L292.94 371.81
L293.068 371.854
L293.165 372.103
L293.344 372.204
L293.404 372.348
L293.5 372.44
L293.603 372.58
L293.787 372.668
L293.874 372.748
L294.049 372.829
L294.135 372.913
L294.365 373.018
L294.473 373.112
L294.622 373.216
L294.728 373.323
L294.883 373.421
L294.946 373.516
L295.113 373.6
L295.217 373.752
L295.363 373.839
L295.425 373.909
L295.623 373.99
L295.705 374.074
L296.016 374.177
L296.117 374.273
L296.277 374.38
L296.37 374.43
L296.529 374.532
L296.628 374.64
L296.792 374.745
L296.87 374.818
L297 374.917
L297.104 375.048
L297.213 375.149
L297.316 375.246
L297.603 375.345
L297.634 375.392
L297.691 375.385
L298.968 375.474
L299.064 375.561
L299.273 375.66
L299.38 375.782
L299.504 375.869
L299.581 375.949
L299.844 376.054
L299.932 376.091
L301.734 375.983
L301.745 375.975
L301.815 375.976
L302.057 375.87
L302.122 375.817
L302.356 375.721
L302.457 375.64
L302.751 375.547
L302.86 375.429
L303.016 375.323
L303.094 375.247
L303.325 375.136
L303.401 375.092
L304.85 375.196
L304.961 375.287
L305.148 375.395
L305.248 375.436
L305.523 375.545
L305.617 375.615
L305.79 375.72
L305.897 375.799
L306.105 375.88
L306.202 376.019
L306.33 376.124
L306.426 376.339
L306.558 376.435
L306.657 376.724
L306.752 376.775
L306.855 376.977
L306.953 377.066
L307.029 377.22
L307.14 377.304
L307.22 377.532
L307.282 377.628
L307.387 377.871
L307.492 377.937
L307.588 378.262
L307.667 378.367
L307.767 378.558
L307.875 378.656
L307.978 378.958
L308.042 379.023
L308.141 379.299
L308.205 379.383
L308.311 379.629
L308.383 379.736
L308.484 379.98
L308.547 380.027
L308.652 380.258
L308.74 380.333
L308.84 380.552
L308.965 380.636
L309.072 380.905
L309.195 381
L309.294 381.179
L309.384 381.216
L309.493 381.41
L309.639 381.52
L309.736 381.573
L309.936 381.676
L310.044 381.805
L310.273 381.906
L310.379 381.967
L310.765 382.076
L310.866 382.091
L311.813 381.987
L311.902 381.926
L312.112 381.821
L312.222 381.748
L312.676 381.646
L312.777 381.561
L312.981 381.459
L313.066 381.419
L315.092 381.332
L315.184 381.254
L315.533 381.147
L315.639 381.057
L315.765 380.96
L315.874 380.84
L316.014 380.733
L316.103 380.61
L316.236 380.499
L316.339 380.392
L316.496 380.286
L316.599 380.199
L316.843 380.091
L316.954 380.024
L317.098 379.917
L317.201 379.868
L317.471 379.764
L317.564 379.739
L317.895 379.635
L317.989 379.575
L319.176 379.479
L319.28 379.391
L319.428 379.283
L319.537 379.204
L320.053 379.106
L320.159 379.052
L320.319 378.95
L320.419 378.853
L320.538 378.772
L320.637 378.644
L320.749 378.547
L320.858 378.42
L320.993 378.32
L321.079 378.239
L321.2 378.128
L321.271 378.021
L321.372 377.928
L321.473 377.777
L321.579 377.67
L321.68 377.514
L321.795 377.422
L321.897 377.206
L321.964 377.132
L322.073 376.893
L322.141 376.799
L322.232 376.627
L322.327 376.534
L322.425 376.354
L322.5 376.25
L322.607 376.082
L322.711 375.971
L322.815 375.856
L322.945 375.751
L323.048 375.634
L323.143 375.546
L323.245 375.38
L323.339 375.273
L323.436 375.107
L323.505 375.063
L323.599 374.832
L323.67 374.745
L323.773 374.518
L323.842 374.412
L323.915 374.247
L323.972 374.139
L324.075 373.924
L324.146 373.825
L324.253 373.578
L324.323 373.474
L324.428 373.259
L324.497 373.16
L324.608 373.007
L324.725 372.898
L324.826 372.793
L324.942 372.687
L325.044 372.565
L325.173 372.477
L325.283 372.37
L325.424 372.26
L325.529 372.201
L325.9 372.09
L326.005 372.04
L326.299 371.93
L326.405 371.847
L326.672 371.757
L326.768 371.69
L327.072 371.625
L327.072 371.567
L327.261 371.486
L327.369 371.387
L327.654 371.278
L327.654 371.197
L327.85 371.12
L327.952 370.988
L328.143 370.911
L328.251 370.787
L328.453 370.713
L328.543 370.524
L328.735 370.429
L328.834 370.236
L329.047 370.126
L329.133 369.909
L329.324 369.805
L329.423 369.635
L329.717 369.552
L329.818 369.455
L330.029 369.357
L330.114 369.144
L330.209 369.144
L330.31 368.916
L330.508 368.818
L330.607 368.585
L330.802 368.478
L330.898 368.277
L330.998 368.277
L330.998 368.154
L331.116 368.154
L331.202 367.916
L331.288 367.916
L331.39 367.662
L331.488 367.662
L331.583 367.362
L331.683 367.362
L331.78 367.035
L331.881 367.035
L331.979 366.768
L332.174 366.657
L332.276 366.448
L332.482 366.357
L332.566 366.202
L332.779 366.107
L332.862 365.911
L333.057 365.826
L333.057 365.747
L333.268 365.637
L333.358 365.514
L333.664 365.44
L333.748 365.366
L334.245 365.274
L334.335 365.222
L334.84 365.123
L334.939 365.017
L335.219 364.924
L335.319 364.803
L335.634 364.721
L335.714 364.649
L335.914 364.59
L336.01 364.465
L336.217 364.392
L336.302 364.302
L336.599 364.198
L336.7 364.061
L336.891 363.974
L336.988 363.808
L337.187 363.707
L337.295 363.521
L337.483 363.424
L337.592 363.167
L337.677 363.167
L337.776 362.927
L337.889 362.927
L337.972 362.684
L338.069 362.684
L338.069 362.563
L338.189 362.563
L338.276 362.325
L338.471 362.22
L338.564 361.964
L338.764 361.856
L338.857 361.689
L339.059 361.606
L339.159 361.405
L339.363 361.336
L339.459 361.132
L339.647 361.048
L339.741 360.856
L339.844 360.856
L339.942 360.66
L340.139 360.574
L340.232 360.447
L340.434 360.369
L340.527 360.213
L340.727 360.127
L340.832 359.996
L341.12 359.921
L341.218 359.804
L341.515 359.709
L341.515 359.664
L341.818 359.575
L341.818 359.546
L344.07 359.641
L344.165 359.748
L344.46 359.828
L344.564 359.878
L345.541 359.988
L345.638 360.047
L345.838 360.103
L345.941 360.242
L346.034 360.242
L346.13 360.463
L346.326 360.544
L346.428 360.688
L346.625 360.776
L346.721 360.935
L346.926 361.008
L347.015 361.144
L347.214 361.238
L347.309 361.353
L348.297 361.264
L348.393 361.066
L348.59 360.986
L348.689 360.821
L348.887 360.727
L348.987 360.475
L349.079 360.475
L349.178 360.205
L349.38 360.112
L349.471 359.971
L349.671 359.891
L349.771 359.658
L349.865 359.658
L349.964 359.385
L350.062 359.385
L350.161 359.147
L350.358 359.04
L350.456 358.842
L350.652 358.739
L350.749 358.517
L350.952 358.429
L351.049 358.267
L351.242 358.182
L351.339 358.004
L353.416 357.912
L353.506 357.812
L353.704 357.741
L353.798 357.648
L354.291 357.555
L354.394 357.498
L354.782 357.395
L354.877 357.293
L355.176 357.209
L355.272 357.15
L355.663 357.041
L355.767 356.983
L356.45 356.876
L356.553 356.847
L357.236 356.943
L357.346 356.996
L357.628 357.07
L357.728 357.175
L357.923 357.241
L358.026 357.376
L358.221 357.439
L358.319 357.565
L358.71 357.67
L358.71 357.688
L358.812 357.681
L359.3 357.591
L359.401 357.543
L361.075 357.627
L361.175 357.69
L362.056 357.771
L362.157 357.838
L362.452 357.91
L362.547 358.027
L363.038 358.133
L363.134 358.16
L363.919 358.264
L364.018 358.298
L364.32 358.406
L364.413 358.493
L364.903 358.595
L365.007 358.706
L365.301 358.799
L365.394 358.923
L365.59 359.009
L365.692 359.22
L365.79 359.22
L365.89 359.465
L365.985 359.465
L366.084 359.702
L366.278 359.803
L366.379 359.996
L366.575 360.095
L366.672 360.26
L366.87 360.323
L366.969 360.449
L367.165 360.513
L367.263 360.637
L367.659 360.731
L367.754 360.824
L367.953 360.897
L368.047 361.019
L368.244 361.086
L368.345 361.226
L368.54 361.29
L368.637 361.393
L368.835 361.45
L368.934 361.621
L369.13 361.71
L369.228 361.909
L369.426 362.011
L369.522 362.279
L369.72 362.39
L369.817 362.628
L370.017 362.727
L370.112 362.917
L370.308 363.013
L370.407 363.233
L370.508 363.233
L370.603 363.469
L370.799 363.534
L370.901 363.656
L371.094 363.725
L371.196 363.84
L371.489 363.936
L371.586 364.003
L371.979 364.085
L372.077 364.148
L372.277 364.207
L372.375 364.334
L372.569 364.392
L372.668 364.522
L372.866 364.577
L372.962 364.703
L373.159 364.773
L373.256 364.936
L373.456 365.001
L373.554 365.123
L373.75 365.204
L373.848 365.358
L374.24 365.465
L374.337 365.557
L374.534 365.626
L374.635 365.702
L375.321 365.795
L375.419 365.927
L375.616 366.004
L375.714 366.171
L375.913 366.258
L376.009 366.436
L376.205 366.537
L376.306 366.713
L376.503 366.798
L376.6 366.93
L376.894 367.033
L376.992 367.096
L377.582 366.995
L377.68 366.882
L378.074 366.773
L378.074 366.75
L378.171 366.75
L379.351 366.851
L379.453 366.919
L379.646 366.977
L379.744 367.147
L379.94 367.25
L380.04 367.48
L380.137 367.48
L380.236 367.719
L380.432 367.822
L380.531 368.036
L380.628 368.036
L380.727 368.264
L380.828 368.264
L380.923 368.487
L381.023 368.487
L381.12 368.745
L381.218 368.745
L381.317 369.002
L381.415 369.002
L381.513 369.242
L381.611 369.242
L381.712 369.484
L381.808 369.484
L381.906 369.77
L382.007 369.77
L382.104 370.167
L382.202 370.167
L382.301 370.568
L382.398 370.568
L382.497 371.003
L382.595 371.003
L382.693 371.398
L382.792 371.398
L382.889 371.859
L382.988 371.859
L383.086 372.313
L383.187 372.313
L383.282 372.746
L383.38 372.746
L383.479 373.137
L383.579 373.137
L383.676 373.533
L383.775 373.533
L383.873 373.945
L383.97 373.945
L384.069 374.367
L384.167 374.367
L384.266 374.828
L384.363 374.828
L384.462 375.322
L384.56 375.322
L384.66 375.809
L384.757 375.809
L384.855 376.271
L384.953 376.271
L385.051 376.703
L385.152 376.703
L385.248 377.188
L385.347 377.188
L385.444 377.667
L385.543 377.667
L385.641 378.114
L385.74 378.114
L385.838 378.491
L385.939 378.491
L386.035 378.882
L386.133 378.882
L386.231 379.235
L386.329 379.235
L386.429 379.553
L386.527 379.553
L386.624 379.858
L386.722 379.858
L386.821 380.138
L386.921 380.138
L387.018 380.465
L387.117 380.465
L387.215 380.787
L387.312 380.787
L387.412 381.144
L387.51 381.144
L387.608 381.541
L387.705 381.541
L387.804 381.965
L387.902 381.965
L388.002 382.457
L388.098 382.457
L388.196 382.949
L388.297 382.949
L388.393 383.429
L388.492 383.429
L388.59 383.928
L388.688 383.928
L388.787 384.361
L388.888 384.361
L388.983 384.747
L389.081 384.747
L389.18 385.195
L389.278 385.195
L389.376 385.615
L389.474 385.615
L389.572 385.997
L389.672 385.997
L389.769 386.395
L389.868 386.395
L389.968 386.878
L390.065 386.878
L390.163 387.352
L390.262 387.352
L390.359 387.858
L390.46 387.858
L390.556 388.375
L390.653 388.375
L390.752 388.907
L390.852 388.907
L390.949 389.434
L391.048 389.434
L391.145 389.938
L391.243 389.938
L391.345 390.393
L391.44 390.393
L391.539 390.83
L391.637 390.83
L391.736 391.262
L391.833 391.262
L391.932 391.728
L392.03 391.728
L392.128 392.189
L392.226 392.189
L392.327 392.671
L392.423 392.671
L392.522 393.164
L392.62 393.164
L392.718 393.628
L392.816 393.628
L392.917 394.097
L393.013 394.097
L393.111 394.561
L393.21 394.561
L393.309 394.951
L393.406 394.951
L393.504 395.315
L393.604 395.315
L393.702 395.657
L393.8 395.657
L393.897 396.013
L393.997 396.013
L394.094 396.39
L394.192 396.39
L394.292 396.724
L394.389 396.724
L394.487 397.05
L394.585 397.05
L394.684 397.331
L394.784 397.331
L394.88 397.629
L394.979 397.629
L395.077 397.954
L395.176 397.954
L395.273 398.267
L395.372 398.267
L395.472 398.521
L395.669 398.621
L395.764 398.824
L395.962 398.924
L396.06 399.102
L396.257 399.191
L396.354 399.336
L396.551 399.401
L396.65 399.509
L396.944 399.609
L397.042 399.717
L397.239 399.8
L397.339 399.958
L397.534 400.024
L397.632 400.157
L397.829 400.228
L397.927 400.328
L399.304 400.227
L399.402 400.184
L400.09 400.11
L400.188 400.001
L400.384 399.933
L400.483 399.779
L400.679 399.688
L400.778 399.546
L400.974 399.481
L401.073 399.33
L401.662 399.24
L401.76 399.166
L402.055 399.061
L402.154 398.944
L402.35 398.878
L402.448 398.706
L402.645 398.607
L402.743 398.388
L402.842 398.388
L402.94 398.152
L403.137 398.054
L403.236 397.917
L403.727 397.817
L403.825 397.717
L404.021 397.658
L404.121 397.499
L404.316 397.414
L404.414 397.256
L404.611 397.18
L404.709 397.003
L404.906 396.918
L405.004 396.816
L406.282 396.717
L406.38 396.612
L406.675 396.514
L406.773 396.451
L407.56 396.345
L407.657 396.214
L407.855 396.134
L407.953 395.931
L408.051 395.931
L408.149 395.674
L408.247 395.674
L408.346 395.427
L408.445 395.427
L408.542 395.157
L408.64 395.157
L408.739 394.886
L408.936 394.793
L409.033 394.603
L409.23 394.527
L409.328 394.32
L409.427 394.32
L409.525 394.067
L409.623 394.067
L409.722 393.743
L409.82 393.743
L409.918 393.398
L410.016 393.398
L410.115 393.001
L410.213 393.001
L410.311 392.661
L410.41 392.661
L410.508 392.303
L410.606 392.303
L410.705 391.891
L410.803 391.891
L410.901 391.447
L411 391.447
L411.098 390.999
L411.196 390.999
L411.295 390.507
L411.392 390.507
L411.491 389.964
L411.589 389.964
L411.688 389.393
L411.786 389.393
L411.884 388.86
L411.982 388.86
L412.081 388.397
L412.18 388.397
L412.278 388.023
L412.376 388.023
L412.474 387.725
L412.572 387.725
L412.671 387.403
L412.769 387.403
L412.867 387.056
L412.965 387.056
L413.065 386.646
L413.162 386.646
L413.26 386.213
L413.358 386.213
L413.456 385.744
L413.555 385.744
L413.653 385.357
L413.753 385.357
L413.85 385.006
L413.948 385.006
L414.047 384.701
L414.144 384.701
L414.243 384.385
L414.341 384.385
L414.439 384.07
L414.538 384.07
L414.636 383.68
L414.734 383.68
L414.833 383.283
L414.931 383.283
L415.029 382.863
L415.127 382.863
L415.226 382.455
L415.324 382.455
L415.423 382.14
L415.52 382.14
L415.619 381.829
L415.718 381.829
L415.815 381.533
L415.914 381.533
L416.012 381.263
L416.11 381.263
L416.208 380.928
L416.308 380.928
L416.405 380.577
L416.504 380.577
L416.602 380.229
L416.7 380.229
L416.798 379.914
L416.897 379.914
L416.995 379.67
L417.191 379.566
L417.29 379.359
L417.389 379.359
L417.486 379.119
L417.584 379.119
L417.683 378.858
L417.781 378.858
L417.879 378.586
L417.978 378.586
L418.077 378.355
L418.174 378.355
L418.273 378.121
L418.371 378.121
L418.469 377.9
L418.666 377.795
L418.764 377.561
L418.862 377.561
L418.96 377.283
L419.059 377.283
L419.157 376.928
L419.256 376.928
L419.354 376.571
L419.454 376.571
L419.55 376.226
L419.649 376.226
L419.747 375.945
L419.845 375.945
L419.943 375.722
L420.14 375.622
L420.239 375.462
L420.435 375.376
L420.533 375.172
L420.632 375.172
L420.73 374.936
L420.926 374.83
L421.025 374.645
L421.222 374.562
L421.32 374.431
L421.614 374.339
L421.713 374.277
L422.106 374.188
L422.204 374.09
L422.499 374.008
L422.598 373.927
L422.99 373.846
L423.089 373.732
L423.285 373.653
L423.383 373.467
L423.58 373.375
L423.678 373.18
L423.875 373.11
L423.973 373.033
L424.268 372.963
L424.367 372.861
L424.563 372.795
L424.661 372.659
L424.858 372.59
L424.956 372.436
L425.153 372.371
L425.251 372.277
L425.546 372.191
L425.645 372.099
L425.94 371.997
L426.037 371.905
L426.332 371.815
L426.431 371.734
L427.118 371.64
L427.217 371.513
L427.413 371.427
L427.512 371.268
L427.708 371.175
L427.807 371.037
L428.004 370.965
L428.101 370.86
L428.298 370.782
L428.396 370.622
L428.593 370.527
L428.691 370.369
L428.888 370.309
L428.986 370.161
L429.182 370.088
L429.281 369.968
L429.478 369.891
L429.576 369.717
L429.772 369.625
L429.871 369.459
L430.067 369.376
L430.166 369.212
L430.363 369.155
L430.461 369.053
L430.756 368.947
L430.853 368.759
L431.051 368.657
L431.148 368.453
L431.345 368.355
L431.443 368.245
L431.738 368.14
L431.836 368.049
L432.033 367.998
L432.131 367.846
L432.328 367.765
L432.426 367.643
L432.721 367.543
L432.82 367.465
L433.016 367.4
L433.115 367.273
L433.311 367.22
L433.409 367.097
L433.605 367.02
L433.704 366.914
L433.9 366.852
L433.999 366.72
L434.195 366.646
L434.294 366.515
L434.49 366.451
L434.588 366.284
L434.786 366.204
L434.883 366.01
L435.08 365.91
L435.178 365.677
L435.375 365.567
L435.473 365.348
L435.67 365.26
L435.768 365.075
L436.063 364.981
L436.161 364.884
L436.456 364.8
L436.554 364.759
L437.046 364.832
L437.144 364.899
L439.208 364.998
L439.306 365.027
L440.093 365.112
L440.191 365.171
L440.978 365.251
L441.075 365.337
L441.37 365.429
L441.469 365.527
L441.665 365.578
L441.764 365.713
L441.96 365.786
L442.058 365.911
L442.353 365.993
L442.452 366.059
L442.648 366.126
L442.746 366.307
L442.943 366.379
L443.041 366.503
L443.238 366.575
L443.336 366.703
L443.533 366.781
L443.631 366.941
L443.828 367.02
L443.926 367.156
L444.221 367.245
L444.319 367.297
L444.81 367.403
L444.909 367.462
L445.498 367.564
L445.597 367.639
L446.481 367.741
L446.58 367.778
L447.956 367.685
L448.054 367.626
L448.349 367.559
L448.447 367.408
L448.644 367.323
L448.742 367.223
L449.135 367.124
L449.233 367.029
L449.627 366.932
L449.725 366.858
L450.02 366.761
L450.118 366.667
L450.413 366.562
L450.511 366.514
L451.396 366.622
L451.494 366.705
L451.887 366.812
L451.985 366.876
L452.28 366.97
L452.379 367.042
L452.772 367.15
L452.87 367.243
L453.165 367.341
L453.263 367.434
L453.558 367.536
L453.657 367.69
L453.853 367.767
L453.951 367.851
L454.344 367.961
L454.443 368.089
L454.639 368.152
L454.738 368.263
L454.935 368.315
L455.032 368.449
L455.229 368.513
L455.327 368.638
L455.524 368.7
L455.622 368.825
L455.819 368.914
L455.917 369.131
L456.114 369.236
L456.212 369.428
L456.408 369.513
L456.507 369.666
L456.704 369.744
L456.801 369.893
L457.096 369.994
L457.195 370.071
L457.49 370.153
L457.588 370.199
L459.16 370.288
L459.259 370.363
L459.554 370.463
L459.652 370.518
L460.93 370.446
L461.028 370.364
L462.797 370.46
L462.895 370.521
L463.387 370.601
L463.485 370.662
L463.878 370.725
L463.976 370.83
L464.468 370.939
L464.566 371.058
L464.763 371.122
L464.861 371.235
L465.058 371.306
L465.156 371.471
L465.353 371.55
L465.451 371.691
L465.647 371.757
L465.746 371.958
L465.942 372.048
L466.041 372.181
L466.237 372.245
L466.335 372.411
L466.532 372.492
L466.63 372.587
L467.122 372.698
L467.22 372.776
L467.515 372.857
L467.613 372.962
L468.301 373.071
L468.4 373.095
L468.793 373.193
L468.891 373.314
L469.088 373.376
L469.186 373.504
L469.382 373.564
L469.481 373.672
L469.776 373.757
L469.874 373.822
L470.955 373.926
L471.053 374.034
L471.25 374.091
L471.348 374.259
L471.446 374.259
L471.545 374.473
L471.741 374.562
L471.84 374.744
L471.938 374.744
L472.036 374.993
L472.134 374.993
L472.233 375.211
L472.429 375.311
L472.528 375.539
L472.724 375.641
L472.823 375.826
L473.019 375.914
L473.117 376.098
L473.412 376.202
L473.51 376.246
L474.002 376.137
L474.1 376.051
L474.395 375.971
L474.493 375.91
L475.083 375.806
L475.181 375.767
L475.476 375.656
L475.575 375.53
L475.771 375.464
L475.869 375.349
L476.263 375.254
L476.361 375.185
L476.557 375.127
L476.656 375.002
L476.852 374.92
L476.951 374.754
L477.147 374.681
L477.245 374.52
L477.344 374.52
L477.442 374.253
L477.54 374.253
L477.639 373.998
L477.737 373.998
L477.835 373.742
L477.933 373.742
L478.032 373.517
L478.13 373.517
L478.228 373.299
L478.425 373.197
L478.523 373.024
L478.72 372.945
L478.818 372.757
L479.015 372.668
L479.113 372.524
L479.31 372.438
L479.408 372.284
L479.604 372.217
L479.703 372.073
L479.899 371.983
L479.998 371.807
L480.194 371.71
L480.292 371.541
L480.587 371.439
L480.686 371.389
L481.079 371.485
L481.177 371.596
L481.374 371.664
L481.472 371.805
L481.668 371.867
L481.767 372.024
L482.062 372.13
L482.16 372.241
L482.356 372.32
L482.455 372.484
L482.651 372.575
L482.75 372.705
L483.241 372.802
L483.339 372.842
L484.027 372.929
L484.126 372.994
L484.322 373.034
L484.42 373.196
L484.617 373.287
L484.715 373.444
L484.912 373.534
L485.01 373.708
L485.207 373.813
L485.305 374.038
L485.502 374.138
L485.6 374.334
L485.797 374.436
L485.895 374.603
L486.091 374.706
L486.19 374.958
L486.288 374.958
L486.386 375.245
L486.485 375.245
L486.583 375.633
L486.681 375.633
L486.779 376.045
L486.878 376.045
L486.976 376.462
L487.074 376.462
L487.173 376.803
L487.271 376.803
L487.369 377.163
L487.467 377.163
L487.566 377.489
L487.664 377.489
L487.762 377.822
L487.861 377.822
L487.959 378.096
L488.057 378.096
L488.155 378.373
L488.254 378.373
L488.352 378.631
L488.45 378.631
L488.549 378.848
L488.745 378.921
L488.843 379.059
L489.04 379.138
L489.138 379.331
L489.237 379.331
L489.335 379.583
L489.433 379.583
L489.531 379.827
L489.63 379.827
L489.728 380.109
L489.826 380.109
L489.925 380.335
L490.121 380.443
L490.219 380.641
L490.416 380.741
L490.515 380.965
L490.711 381.068
L490.809 381.275
L491.006 381.364
L491.104 381.564
L491.202 381.564
L491.301 381.836
L491.399 381.836
L491.497 382.104
L491.596 382.104
L491.694 382.379
L491.792 382.379
L491.89 382.679
L491.989 382.679
L492.087 382.924
L492.284 383.03
L492.382 383.192
L492.578 383.266
L492.677 383.456
L492.873 383.541
L492.972 383.677
L493.168 383.753
L493.266 383.868
L493.463 383.928
L493.561 384.046
L493.758 384.115
L493.856 384.275
L494.053 384.368
L494.151 384.616
L494.348 384.723
L494.446 384.957
L494.544 384.957
L494.643 385.183
L494.839 385.293
L494.937 385.446
L495.134 385.509
L495.232 385.66
L495.429 385.725
L495.527 385.889
L495.724 385.975
L495.822 386.175
L496.019 386.281
L496.117 386.464
L496.313 386.567
L496.412 386.767
L496.51 386.767
L496.608 386.985
L496.805 387.086
L496.903 387.297
L497.1 387.371
L497.198 387.5
L497.493 387.578
L497.591 387.65
L497.886 387.753
L497.984 387.85
L498.279 387.95
L498.377 388.056
L498.672 388.158
L498.771 388.236
L499.065 388.325
L499.164 388.425
L500.54 388.513
L500.638 388.569
L500.933 388.679
L501.031 388.747
L502.8 388.646
L502.899 388.591
L503.194 388.505
L503.292 388.431
L503.587 388.359
L503.685 388.254
L503.882 388.197
L503.98 388.059
L504.176 387.98
L504.275 387.764
L504.373 387.764
L504.471 387.537
L504.668 387.445
L504.766 387.314
L504.963 387.251
L505.061 387.124
L505.258 387.051
L505.356 386.899
L505.552 386.806
L505.651 386.592
L505.847 386.499
L505.946 386.318
L506.142 386.238
L506.24 386.07
L506.437 385.999
L506.535 385.881
L507.027 385.776
L507.125 385.733
L508.01 385.625
L508.108 385.602
L508.599 385.698
L508.698 385.75
L508.993 385.831
L509.091 385.901
L509.386 385.974
L509.484 386.067
L509.877 386.175
L509.975 386.235
L510.86 386.138
L510.958 386.034
L511.351 385.93
L511.45 385.876
L511.745 385.794
L511.843 385.688
L512.138 385.59
L512.236 385.475
L512.433 385.393
L512.531 385.258
L512.728 385.198
L512.826 385.078
L513.121 384.967
L513.219 384.82
L513.416 384.746
L513.514 384.607
L513.71 384.53
L513.809 384.41
L514.005 384.331
L514.104 384.162
L514.3 384.071
L514.398 383.902
L514.693 383.797
L514.792 383.74
L515.086 383.674
L515.185 383.581
L515.48 383.491
L515.578 383.417
L515.873 383.326
L515.971 383.25
L516.266 383.145
L516.364 383.059
L516.856 382.954
L516.954 382.87
L517.151 382.805
L517.249 382.659
L517.445 382.599
L517.544 382.508
L518.133 382.419
L518.232 382.368
L518.723 382.26
L518.821 382.204
L519.411 382.107
L519.509 382.057
L519.903 381.95
L520.001 381.925
L520.492 381.837
L520.591 381.745
L520.787 381.683
L520.885 381.559
L521.082 381.484
L521.18 381.366
L521.475 381.259
L521.573 381.11
L521.77 381.031
L521.868 380.89
L522.065 380.821
L522.163 380.696
L522.458 380.59
L522.556 380.489
L522.753 380.434
L522.851 380.296
L523.146 380.189
L523.244 380.141
L524.031 380.035
L524.129 379.985
L524.522 379.886
L524.62 379.835
L525.112 379.746
L525.21 379.686
L525.702 379.602
L525.8 379.521
L526.193 379.422
L526.291 379.376
L526.684 379.281
L526.783 379.236
L527.274 379.141
L527.372 379.073
L528.847 378.97
L528.945 378.905
L529.437 378.83
L529.535 378.742
L529.928 378.636
L530.026 378.554
L530.321 378.465
L530.419 378.345
L530.616 378.262
L530.714 378.069
L530.911 377.974
L531.009 377.771
L531.206 377.662
L531.304 377.431
L531.402 377.431
L531.501 377.218
L531.697 377.125
L531.795 376.92
L531.992 376.828
L532.09 376.648
L532.287 376.548
L532.385 376.364
L532.582 376.294
L532.68 376.207
L532.975 376.108
L533.073 375.963
L533.27 375.894
L533.368 375.788
L533.565 375.729
L533.663 375.608
L533.86 375.54
L533.958 375.363
L534.154 375.258
L534.253 375.028
L534.351 375.028
L534.449 374.802
L534.646 374.704
L534.744 374.489
L534.941 374.389
L535.039 374.227
L535.236 374.155
L535.334 374.017
L535.53 373.958
L535.629 373.842
L535.924 373.735
L536.022 373.675
L536.513 373.579
L536.612 373.516
L536.906 373.431
L537.005 373.315
L537.201 373.258
L537.3 373.13
L537.496 373.056
L537.594 372.911
L537.791 372.823
L537.889 372.626
L537.988 372.626
L538.086 372.39
L538.184 372.39
L538.283 372.159
L538.479 372.056
L538.577 371.862
L538.774 371.757
L538.872 371.583
L539.069 371.504
L539.167 371.351
L539.364 371.257
L539.462 371.035
L539.56 371.035
L539.659 370.814
L539.757 370.814
L539.855 370.585
L540.052 370.491
L540.15 370.309
L540.347 370.211
L540.445 369.993
L540.543 369.993
L540.641 369.761
L540.74 369.761
L540.838 369.546
L541.035 369.452
L541.133 369.284
L541.329 369.219
L541.428 369.066
L541.624 368.993
L541.723 368.847
L541.919 368.783
L542.017 368.65
L542.214 368.579
L542.312 368.444
L542.509 368.368
L542.607 368.248
L542.902 368.155
L543 368.046
L543.295 367.945
L543.393 367.823
L543.688 367.717
L543.787 367.595
L543.983 367.524
L544.082 367.379
L544.278 367.308
L544.376 367.146
L544.573 367.051
L544.671 366.828
L544.77 366.828
L544.868 366.581
L544.966 366.581
L545.064 366.364
L545.261 366.268
L545.359 366.078
L545.458 366.078
L545.556 365.837
L545.752 365.731
L545.851 365.559
L546.047 365.455
L546.146 365.223
L546.244 365.223
L546.342 364.987
L546.539 364.885
L546.637 364.646
L546.735 364.646
L546.834 364.41
L546.932 364.41
L547.03 364.183
L547.227 364.075
L547.325 363.855
L547.522 363.75
L547.62 363.57
L547.816 363.484
L547.915 363.318
L547.915 363.318" style="fill:none;stroke:#0000ff;stroke-width:5.0;"/>
   </g>
   <g id="matplotlib.axis_1">
    <g id="xtick_1">
     <g id="line2d_2">
      <path d="
M189.867 408.105
L189.867 7.2" style="fill:none;stroke:#000000;stroke-dasharray:1.000000,3.000000;stroke-dashoffset:0.0;stroke-linecap:butt;stroke-width:0.5;"/>
     </g>
     <g id="line2d_3">
      <defs>
       <path d="
M0 0
L0 -4" id="m3fbe6c24f1"/>
      </defs>
      <g>
       <use style="stroke:#000000;stroke-linecap:butt;stroke-width:0.5;" x="189.866953909" xlink:href="#m3fbe6c24f1" y="29.9731485308"/>
      </g>
     </g>
     <g id="text_1">
      <!-- 5 -->
      <defs>
       <path d="
M10.7969 72.9062
L49.5156 72.9062
L49.5156 64.5938
L19.8281 64.5938
L19.8281 46.7344
Q21.9688 47.4688 24.1094 47.8281
Q26.2656 48.1875 28.4219 48.1875
Q40.625 48.1875 47.75 41.5
Q54.8906 34.8125 54.8906 23.3906
Q54.8906 11.625 47.5625 5.09375
Q40.2344 -1.42188 26.9062 -1.42188
Q22.3125 -1.42188 17.5469 -0.640625
Q12.7969 0.140625 7.71875 1.70312
L7.71875 11.625
Q12.1094 9.23438 16.7969 8.0625
Q21.4844 6.89062 26.7031 6.89062
Q35.1562 6.89062 40.0781 11.3281
Q45.0156 15.7656 45.0156 23.3906
Q45.0156 31 40.0781 35.4375
Q35.1562 39.8906 26.7031 39.8906
Q22.75 39.8906 18.8125 39.0156
Q14.8906 38.1406 10.7969 36.2812
z
" id="BitstreamVeraSans-Roman-35"/>
      </defs>
      <g transform="translate(184.206328909 51.4706485308)scale(0.24 -0.24)">
       <use xlink:href="#BitstreamVeraSans-Roman-35"/>
      </g>
     </g>
    </g>
    <g id="xtick_2">
     <g id="line2d_4">
      <path d="
M323.261 408.105
L323.261 7.2" style="fill:none;stroke:#000000;stroke-dasharray:1.000000,3.000000;stroke-dashoffset:0.0;stroke-linecap:butt;stroke-width:0.5;"/>
     </g>
     <g id="line2d_5">
      <defs>
       <path d="
M0 0
L0 -4" id="m3fbe6c24f1"/>
      </defs>
      <g>
       <use style="stroke:#000000;stroke-linecap:butt;stroke-width:0.5;" x="323.261010243" xlink:href="#m3fbe6c24f1" y="29.9731485308"/>
      </g>
     </g>
     <g id="text_2">
      <!-- 10 -->
      <defs>
       <path d="
M31.7812 66.4062
Q24.1719 66.4062 20.3281 58.9062
Q16.5 51.4219 16.5 36.375
Q16.5 21.3906 20.3281 13.8906
Q24.1719 6.39062 31.7812 6.39062
Q39.4531 6.39062 43.2812 13.8906
Q47.125 21.3906 47.125 36.375
Q47.125 51.4219 43.2812 58.9062
Q39.4531 66.4062 31.7812 66.4062
M31.7812 74.2188
Q44.0469 74.2188 50.5156 64.5156
Q56.9844 54.8281 56.9844 36.375
Q56.9844 17.9688 50.5156 8.26562
Q44.0469 -1.42188 31.7812 -1.42188
Q19.5312 -1.42188 13.0625 8.26562
Q6.59375 17.9688 6.59375 36.375
Q6.59375 54.8281 13.0625 64.5156
Q19.5312 74.2188 31.7812 74.2188" id="BitstreamVeraSans-Roman-30"/>
       <path d="
M12.4062 8.29688
L28.5156 8.29688
L28.5156 63.9219
L10.9844 60.4062
L10.9844 69.3906
L28.4219 72.9062
L38.2812 72.9062
L38.2812 8.29688
L54.3906 8.29688
L54.3906 0
L12.4062 0
z
" id="BitstreamVeraSans-Roman-31"/>
      </defs>
      <g transform="translate(310.106010243 51.7856485308)scale(0.24 -0.24)">
       <use xlink:href="#BitstreamVeraSans-Roman-31"/>
       <use x="63.623046875" xlink:href="#BitstreamVeraSans-Roman-30"/>
      </g>
     </g>
    </g>
    <g id="xtick_3">
     <g id="line2d_6">
      <path d="
M456.655 408.105
L456.655 7.2" style="fill:none;stroke:#000000;stroke-dasharray:1.000000,3.000000;stroke-dashoffset:0.0;stroke-linecap:butt;stroke-width:0.5;"/>
     </g>
     <g id="line2d_7">
      <defs>
       <path d="
M0 0
L0 -4" id="m3fbe6c24f1"/>
      </defs>
      <g>
       <use style="stroke:#000000;stroke-linecap:butt;stroke-width:0.5;" x="456.655066578" xlink:href="#m3fbe6c24f1" y="29.9731485308"/>
      </g>
     </g>
     <g id="text_3">
      <!-- 15 -->
      <g transform="translate(443.751316578 51.4706485308)scale(0.24 -0.24)">
       <use xlink:href="#BitstreamVeraSans-Roman-31"/>
       <use x="63.623046875" xlink:href="#BitstreamVeraSans-Roman-35"/>
      </g>
     </g>
    </g>
    <g id="xtick_4">
     <g id="line2d_8">
      <defs>
       <path d="
M0 0
L0 -2" id="mf0ff38ea95"/>
      </defs>
      <g>
       <use style="stroke:#000000;stroke-linecap:butt;stroke-width:0.5;" x="83.1517088412" xlink:href="#mf0ff38ea95" y="29.9731485308"/>
      </g>
     </g>
    </g>
    <g id="xtick_5">
     <g id="line2d_9">
      <defs>
       <path d="
M0 0
L0 -2" id="mf0ff38ea95"/>
      </defs>
      <g>
       <use style="stroke:#000000;stroke-linecap:butt;stroke-width:0.5;" x="109.830520108" xlink:href="#mf0ff38ea95" y="29.9731485308"/>
      </g>
     </g>
    </g>
    <g id="xtick_6">
     <g id="line2d_10">
      <defs>
       <path d="
M0 0
L0 -2" id="mf0ff38ea95"/>
      </defs>
      <g>
       <use style="stroke:#000000;stroke-linecap:butt;stroke-width:0.5;" x="136.509331375" xlink:href="#mf0ff38ea95" y="29.9731485308"/>
      </g>
     </g>
    </g>
    <g id="xtick_7">
     <g id="line2d_11">
      <defs>
       <path d="
M0 0
L0 -2" id="mf0ff38ea95"/>
      </defs>
      <g>
       <use style="stroke:#000000;stroke-linecap:butt;stroke-width:0.5;" x="163.188142642" xlink:href="#mf0ff38ea95" y="29.9731485308"/>
      </g>
     </g>
    </g>
    <g id="xtick_8">
     <g id="line2d_12">
      <defs>
       <path d="
M0 0
L0 -2" id="mf0ff38ea95"/>
      </defs>
      <g>
       <use style="stroke:#000000;stroke-linecap:butt;stroke-width:0.5;" x="216.545765176" xlink:href="#mf0ff38ea95" y="29.9731485308"/>
      </g>
     </g>
    </g>
    <g id="xtick_9">
     <g id="line2d_13">
      <defs>
       <path d="
M0 0
L0 -2" id="mf0ff38ea95"/>
      </defs>
      <g>
       <use style="stroke:#000000;stroke-linecap:butt;stroke-width:0.5;" x="243.224576443" xlink:href="#mf0ff38ea95" y="29.9731485308"/>
      </g>
     </g>
    </g>
    <g id="xtick_10">
     <g id="line2d_14">
      <defs>
       <path d="
M0 0
L0 -2" id="mf0ff38ea95"/>
      </defs>
      <g>
       <use style="stroke:#000000;stroke-linecap:butt;stroke-width:0.5;" x="269.903387709" xlink:href="#mf0ff38ea95" y="29.9731485308"/>
      </g>
     </g>
    </g>
    <g id="xtick_11">
     <g id="line2d_15">
      <defs>
       <path d="
M0 0
L0 -2" id="mf0ff38ea95"/>
      </defs>
      <g>
       <use style="stroke:#000000;stroke-linecap:butt;stroke-width:0.5;" x="296.582198976" xlink:href="#mf0ff38ea95" y="29.9731485308"/>
      </g>
     </g>
    </g>
    <g id="xtick_12">
     <g id="line2d_16">
      <defs>
       <path d="
M0 0
L0 -2" id="mf0ff38ea95"/>
      </defs>
      <g>
       <use style="stroke:#000000;stroke-linecap:butt;stroke-width:0.5;" x="349.93982151" xlink:href="#mf0ff38ea95" y="29.9731485308"/>
      </g>
     </g>
    </g>
    <g id="xtick_13">
     <g id="line2d_17">
      <defs>
       <path d="
M0 0
L0 -2" id="mf0ff38ea95"/>
      </defs>
      <g>
       <use style="stroke:#000000;stroke-linecap:butt;stroke-width:0.5;" x="376.618632777" xlink:href="#mf0ff38ea95" y="29.9731485308"/>
      </g>
     </g>
    </g>
    <g id="xtick_14">
     <g id="line2d_18">
      <defs>
       <path d="
M0 0
L0 -2" id="mf0ff38ea95"/>
      </defs>
      <g>
       <use style="stroke:#000000;stroke-linecap:butt;stroke-width:0.5;" x="403.297444044" xlink:href="#mf0ff38ea95" y="29.9731485308"/>
      </g>
     </g>
    </g>
    <g id="xtick_15">
     <g id="line2d_19">
      <defs>
       <path d="
M0 0
L0 -2" id="mf0ff38ea95"/>
      </defs>
      <g>
       <use style="stroke:#000000;stroke-linecap:butt;stroke-width:0.5;" x="429.976255311" xlink:href="#mf0ff38ea95" y="29.9731485308"/>
      </g>
     </g>
    </g>
    <g id="xtick_16">
     <g id="line2d_20">
      <defs>
       <path d="
M0 0
L0 -2" id="mf0ff38ea95"/>
      </defs>
      <g>
       <use style="stroke:#000000;stroke-linecap:butt;stroke-width:0.5;" x="483.333877845" xlink:href="#mf0ff38ea95" y="29.9731485308"/>
      </g>
     </g>
    </g>
    <g id="xtick_17">
     <g id="line2d_21">
      <defs>
       <path d="
M0 0
L0 -2" id="mf0ff38ea95"/>
      </defs>
      <g>
       <use style="stroke:#000000;stroke-linecap:butt;stroke-width:0.5;" x="510.012689112" xlink:href="#mf0ff38ea95" y="29.9731485308"/>
      </g>
     </g>
    </g>
   </g>
   <g id="matplotlib.axis_2">
    <g id="ytick_1">
     <g id="line2d_22">
      <path d="
M65.5062 403.668
L557.374 403.668" style="fill:none;stroke:#000000;stroke-dasharray:1.000000,3.000000;stroke-dashoffset:0.0;stroke-linecap:butt;stroke-width:0.5;"/>
     </g>
     <g id="line2d_23">
      <defs>
       <path d="
M0 0
L4 0" id="mc91e532072"/>
      </defs>
      <g>
       <use style="stroke:#000000;stroke-linecap:butt;stroke-width:0.5;" x="55.50625" xlink:href="#mc91e532072" y="403.667934414"/>
      </g>
     </g>
     <g id="text_4">
      <!-- -1.4 -->
      <defs>
       <path d="
M10.6875 12.4062
L21 12.4062
L21 0
L10.6875 0
z
" id="BitstreamVeraSans-Roman-2e"/>
       <path d="
M4.89062 31.3906
L31.2031 31.3906
L31.2031 23.3906
L4.89062 23.3906
z
" id="BitstreamVeraSans-Roman-2d"/>
       <path d="
M37.7969 64.3125
L12.8906 25.3906
L37.7969 25.3906
z

M35.2031 72.9062
L47.6094 72.9062
L47.6094 25.3906
L58.0156 25.3906
L58.0156 17.1875
L47.6094 17.1875
L47.6094 0
L37.7969 0
L37.7969 17.1875
L4.89062 17.1875
L4.89062 26.7031
z
" id="BitstreamVeraSans-Roman-34"/>
      </defs>
      <g transform="translate(7.2 412.416684414)scale(0.24 -0.24)">
       <use xlink:href="#BitstreamVeraSans-Roman-2d"/>
       <use x="36.083984375" xlink:href="#BitstreamVeraSans-Roman-31"/>
       <use x="99.70703125" xlink:href="#BitstreamVeraSans-Roman-2e"/>
       <use x="131.494140625" xlink:href="#BitstreamVeraSans-Roman-34"/>
      </g>
     </g>
    </g>
    <g id="ytick_2">
     <g id="line2d_24">
      <path d="
M65.5062 350.283
L557.374 350.283" style="fill:none;stroke:#000000;stroke-dasharray:1.000000,3.000000;stroke-dashoffset:0.0;stroke-linecap:butt;stroke-width:0.5;"/>
     </g>
     <g id="line2d_25">
      <defs>
       <path d="
M0 0
L4 0" id="mc91e532072"/>
      </defs>
      <g>
       <use style="stroke:#000000;stroke-linecap:butt;stroke-width:0.5;" x="55.50625" xlink:href="#mc91e532072" y="350.282965002"/>
      </g>
     </g>
     <g id="text_5">
      <!-- -1.2 -->
      <defs>
       <path d="
M19.1875 8.29688
L53.6094 8.29688
L53.6094 0
L7.32812 0
L7.32812 8.29688
Q12.9375 14.1094 22.625 23.8906
Q32.3281 33.6875 34.8125 36.5312
Q39.5469 41.8438 41.4219 45.5312
Q43.3125 49.2188 43.3125 52.7812
Q43.3125 58.5938 39.2344 62.25
Q35.1562 65.9219 28.6094 65.9219
Q23.9688 65.9219 18.8125 64.3125
Q13.6719 62.7031 7.8125 59.4219
L7.8125 69.3906
Q13.7656 71.7812 18.9375 73
Q24.125 74.2188 28.4219 74.2188
Q39.75 74.2188 46.4844 68.5469
Q53.2188 62.8906 53.2188 53.4219
Q53.2188 48.9219 51.5312 44.8906
Q49.8594 40.875 45.4062 35.4062
Q44.1875 33.9844 37.6406 27.2188
Q31.1094 20.4531 19.1875 8.29688" id="BitstreamVeraSans-Roman-32"/>
      </defs>
      <g transform="translate(8.2575 359.189215002)scale(0.24 -0.24)">
       <use xlink:href="#BitstreamVeraSans-Roman-2d"/>
       <use x="36.083984375" xlink:href="#BitstreamVeraSans-Roman-31"/>
       <use x="99.70703125" xlink:href="#BitstreamVeraSans-Roman-2e"/>
       <use x="131.494140625" xlink:href="#BitstreamVeraSans-Roman-32"/>
      </g>
     </g>
    </g>
    <g id="ytick_3">
     <g id="line2d_26">
      <path d="
M65.5062 296.898
L557.374 296.898" style="fill:none;stroke:#000000;stroke-dasharray:1.000000,3.000000;stroke-dashoffset:0.0;stroke-linecap:butt;stroke-width:0.5;"/>
     </g>
     <g id="line2d_27">
      <defs>
       <path d="
M0 0
L4 0" id="mc91e532072"/>
      </defs>
      <g>
       <use style="stroke:#000000;stroke-linecap:butt;stroke-width:0.5;" x="55.50625" xlink:href="#mc91e532072" y="296.89799559"/>
      </g>
     </g>
     <g id="text_6">
      <!-- -1 -->
      <g transform="translate(30.9675 305.64674559)scale(0.24 -0.24)">
       <use xlink:href="#BitstreamVeraSans-Roman-2d"/>
       <use x="36.083984375" xlink:href="#BitstreamVeraSans-Roman-31"/>
      </g>
     </g>
    </g>
    <g id="ytick_4">
     <g id="line2d_28">
      <path d="
M65.5062 243.513
L557.374 243.513" style="fill:none;stroke:#000000;stroke-dasharray:1.000000,3.000000;stroke-dashoffset:0.0;stroke-linecap:butt;stroke-width:0.5;"/>
     </g>
     <g id="line2d_29">
      <defs>
       <path d="
M0 0
L4 0" id="mc91e532072"/>
      </defs>
      <g>
       <use style="stroke:#000000;stroke-linecap:butt;stroke-width:0.5;" x="55.50625" xlink:href="#mc91e532072" y="243.513026178"/>
      </g>
     </g>
     <g id="text_7">
      <!-- -0.8 -->
      <defs>
       <path d="
M31.7812 34.625
Q24.75 34.625 20.7188 30.8594
Q16.7031 27.0938 16.7031 20.5156
Q16.7031 13.9219 20.7188 10.1562
Q24.75 6.39062 31.7812 6.39062
Q38.8125 6.39062 42.8594 10.1719
Q46.9219 13.9688 46.9219 20.5156
Q46.9219 27.0938 42.8906 30.8594
Q38.875 34.625 31.7812 34.625
M21.9219 38.8125
Q15.5781 40.375 12.0312 44.7188
Q8.5 49.0781 8.5 55.3281
Q8.5 64.0625 14.7188 69.1406
Q20.9531 74.2188 31.7812 74.2188
Q42.6719 74.2188 48.875 69.1406
Q55.0781 64.0625 55.0781 55.3281
Q55.0781 49.0781 51.5312 44.7188
Q48 40.375 41.7031 38.8125
Q48.8281 37.1562 52.7969 32.3125
Q56.7812 27.4844 56.7812 20.5156
Q56.7812 9.90625 50.3125 4.23438
Q43.8438 -1.42188 31.7812 -1.42188
Q19.7344 -1.42188 13.25 4.23438
Q6.78125 9.90625 6.78125 20.5156
Q6.78125 27.4844 10.7812 32.3125
Q14.7969 37.1562 21.9219 38.8125
M18.3125 54.3906
Q18.3125 48.7344 21.8438 45.5625
Q25.3906 42.3906 31.7812 42.3906
Q38.1406 42.3906 41.7188 45.5625
Q45.3125 48.7344 45.3125 54.3906
Q45.3125 60.0625 41.7188 63.2344
Q38.1406 66.4062 31.7812 66.4062
Q25.3906 66.4062 21.8438 63.2344
Q18.3125 60.0625 18.3125 54.3906" id="BitstreamVeraSans-Roman-38"/>
      </defs>
      <g transform="translate(7.49625 252.248651178)scale(0.24 -0.24)">
       <use xlink:href="#BitstreamVeraSans-Roman-2d"/>
       <use x="36.083984375" xlink:href="#BitstreamVeraSans-Roman-30"/>
       <use x="99.70703125" xlink:href="#BitstreamVeraSans-Roman-2e"/>
       <use x="131.494140625" xlink:href="#BitstreamVeraSans-Roman-38"/>
      </g>
     </g>
    </g>
    <g id="ytick_5">
     <g id="line2d_30">
      <path d="
M65.5062 190.128
L557.374 190.128" style="fill:none;stroke:#000000;stroke-dasharray:1.000000,3.000000;stroke-dashoffset:0.0;stroke-linecap:butt;stroke-width:0.5;"/>
     </g>
     <g id="line2d_31">
      <defs>
       <path d="
M0 0
L4 0" id="mc91e532072"/>
      </defs>
      <g>
       <use style="stroke:#000000;stroke-linecap:butt;stroke-width:0.5;" x="55.50625" xlink:href="#mc91e532072" y="190.128056766"/>
      </g>
     </g>
     <g id="text_8">
      <!-- -0.6 -->
      <defs>
       <path d="
M33.0156 40.375
Q26.375 40.375 22.4844 35.8281
Q18.6094 31.2969 18.6094 23.3906
Q18.6094 15.5312 22.4844 10.9531
Q26.375 6.39062 33.0156 6.39062
Q39.6562 6.39062 43.5312 10.9531
Q47.4062 15.5312 47.4062 23.3906
Q47.4062 31.2969 43.5312 35.8281
Q39.6562 40.375 33.0156 40.375
M52.5938 71.2969
L52.5938 62.3125
Q48.875 64.0625 45.0938 64.9844
Q41.3125 65.9219 37.5938 65.9219
Q27.8281 65.9219 22.6719 59.3281
Q17.5312 52.7344 16.7969 39.4062
Q19.6719 43.6562 24.0156 45.9219
Q28.375 48.1875 33.5938 48.1875
Q44.5781 48.1875 50.9531 41.5156
Q57.3281 34.8594 57.3281 23.3906
Q57.3281 12.1562 50.6875 5.35938
Q44.0469 -1.42188 33.0156 -1.42188
Q20.3594 -1.42188 13.6719 8.26562
Q6.98438 17.9688 6.98438 36.375
Q6.98438 53.6562 15.1875 63.9375
Q23.3906 74.2188 37.2031 74.2188
Q40.9219 74.2188 44.7031 73.4844
Q48.4844 72.75 52.5938 71.2969" id="BitstreamVeraSans-Roman-36"/>
      </defs>
      <g transform="translate(7.365 198.863681766)scale(0.24 -0.24)">
       <use xlink:href="#BitstreamVeraSans-Roman-2d"/>
       <use x="36.083984375" xlink:href="#BitstreamVeraSans-Roman-30"/>
       <use x="99.70703125" xlink:href="#BitstreamVeraSans-Roman-2e"/>
       <use x="131.494140625" xlink:href="#BitstreamVeraSans-Roman-36"/>
      </g>
     </g>
    </g>
    <g id="ytick_6">
     <g id="line2d_32">
      <path d="
M65.5062 136.743
L557.374 136.743" style="fill:none;stroke:#000000;stroke-dasharray:1.000000,3.000000;stroke-dashoffset:0.0;stroke-linecap:butt;stroke-width:0.5;"/>
     </g>
     <g id="line2d_33">
      <defs>
       <path d="
M0 0
L4 0" id="mc91e532072"/>
      </defs>
      <g>
       <use style="stroke:#000000;stroke-linecap:butt;stroke-width:0.5;" x="55.50625" xlink:href="#mc91e532072" y="136.743087355"/>
      </g>
     </g>
     <g id="text_9">
      <!-- -0.4 -->
      <g transform="translate(7.2 145.478712355)scale(0.24 -0.24)">
       <use xlink:href="#BitstreamVeraSans-Roman-2d"/>
       <use x="36.083984375" xlink:href="#BitstreamVeraSans-Roman-30"/>
       <use x="99.70703125" xlink:href="#BitstreamVeraSans-Roman-2e"/>
       <use x="131.494140625" xlink:href="#BitstreamVeraSans-Roman-34"/>
      </g>
     </g>
    </g>
    <g id="ytick_7">
     <g id="line2d_34">
      <path d="
M65.5062 83.3581
L557.374 83.3581" style="fill:none;stroke:#000000;stroke-dasharray:1.000000,3.000000;stroke-dashoffset:0.0;stroke-linecap:butt;stroke-width:0.5;"/>
     </g>
     <g id="line2d_35">
      <defs>
       <path d="
M0 0
L4 0" id="mc91e532072"/>
      </defs>
      <g>
       <use style="stroke:#000000;stroke-linecap:butt;stroke-width:0.5;" x="55.50625" xlink:href="#mc91e532072" y="83.3581179427"/>
      </g>
     </g>
     <g id="text_10">
      <!-- -0.2 -->
      <g transform="translate(8.2575 92.0937429427)scale(0.24 -0.24)">
       <use xlink:href="#BitstreamVeraSans-Roman-2d"/>
       <use x="36.083984375" xlink:href="#BitstreamVeraSans-Roman-30"/>
       <use x="99.70703125" xlink:href="#BitstreamVeraSans-Roman-2e"/>
       <use x="131.494140625" xlink:href="#BitstreamVeraSans-Roman-32"/>
      </g>
     </g>
    </g>
    <g id="ytick_8">
     <g id="line2d_36">
      <path d="
M65.5062 29.9731
L557.374 29.9731" style="fill:none;stroke:#000000;stroke-dasharray:1.000000,3.000000;stroke-dashoffset:0.0;stroke-linecap:butt;stroke-width:0.5;"/>
     </g>
     <g id="line2d_37">
      <defs>
       <path d="
M0 0
L4 0" id="mc91e532072"/>
      </defs>
      <g>
       <use style="stroke:#000000;stroke-linecap:butt;stroke-width:0.5;" x="55.50625" xlink:href="#mc91e532072" y="29.9731485308"/>
      </g>
     </g>
     <g id="text_11">
      <!-- 0 -->
      <g transform="translate(39.4125 38.7087735308)scale(0.24 -0.24)">
       <use xlink:href="#BitstreamVeraSans-Roman-30"/>
      </g>
     </g>
    </g>
    <g id="ytick_9">
     <g id="line2d_38">
      <defs>
       <path d="
M0 0
L2 0" id="m0789224b6b"/>
      </defs>
      <g>
       <use style="stroke:#000000;stroke-linecap:butt;stroke-width:0.5;" x="55.50625" xlink:href="#m0789224b6b" y="390.321692061"/>
      </g>
     </g>
    </g>
    <g id="ytick_10">
     <g id="line2d_39">
      <defs>
       <path d="
M0 0
L2 0" id="m0789224b6b"/>
      </defs>
      <g>
       <use style="stroke:#000000;stroke-linecap:butt;stroke-width:0.5;" x="55.50625" xlink:href="#m0789224b6b" y="376.975449708"/>
      </g>
     </g>
    </g>
    <g id="ytick_11">
     <g id="line2d_40">
      <defs>
       <path d="
M0 0
L2 0" id="m0789224b6b"/>
      </defs>
      <g>
       <use style="stroke:#000000;stroke-linecap:butt;stroke-width:0.5;" x="55.50625" xlink:href="#m0789224b6b" y="363.629207355"/>
      </g>
     </g>
    </g>
    <g id="ytick_12">
     <g id="line2d_41">
      <defs>
       <path d="
M0 0
L2 0" id="m0789224b6b"/>
      </defs>
      <g>
       <use style="stroke:#000000;stroke-linecap:butt;stroke-width:0.5;" x="55.50625" xlink:href="#m0789224b6b" y="336.936722649"/>
      </g>
     </g>
    </g>
    <g id="ytick_13">
     <g id="line2d_42">
      <defs>
       <path d="
M0 0
L2 0" id="m0789224b6b"/>
      </defs>
      <g>
       <use style="stroke:#000000;stroke-linecap:butt;stroke-width:0.5;" x="55.50625" xlink:href="#m0789224b6b" y="323.590480296"/>
      </g>
     </g>
    </g>
    <g id="ytick_14">
     <g id="line2d_43">
      <defs>
       <path d="
M0 0
L2 0" id="m0789224b6b"/>
      </defs>
      <g>
       <use style="stroke:#000000;stroke-linecap:butt;stroke-width:0.5;" x="55.50625" xlink:href="#m0789224b6b" y="310.244237943"/>
      </g>
     </g>
    </g>
    <g id="ytick_15">
     <g id="line2d_44">
      <defs>
       <path d="
M0 0
L2 0" id="m0789224b6b"/>
      </defs>
      <g>
       <use style="stroke:#000000;stroke-linecap:butt;stroke-width:0.5;" x="55.50625" xlink:href="#m0789224b6b" y="283.551753237"/>
      </g>
     </g>
    </g>
    <g id="ytick_16">
     <g id="line2d_45">
      <defs>
       <path d="
M0 0
L2 0" id="m0789224b6b"/>
      </defs>
      <g>
       <use style="stroke:#000000;stroke-linecap:butt;stroke-width:0.5;" x="55.50625" xlink:href="#m0789224b6b" y="270.205510884"/>
      </g>
     </g>
    </g>
    <g id="ytick_17">
     <g id="line2d_46">
      <defs>
       <path d="
M0 0
L2 0" id="m0789224b6b"/>
      </defs>
      <g>
       <use style="stroke:#000000;stroke-linecap:butt;stroke-width:0.5;" x="55.50625" xlink:href="#m0789224b6b" y="256.859268531"/>
      </g>
     </g>
    </g>
    <g id="ytick_18">
     <g id="line2d_47">
      <defs>
       <path d="
M0 0
L2 0" id="m0789224b6b"/>
      </defs>
      <g>
       <use style="stroke:#000000;stroke-linecap:butt;stroke-width:0.5;" x="55.50625" xlink:href="#m0789224b6b" y="230.166783825"/>
      </g>
     </g>
    </g>
    <g id="ytick_19">
     <g id="line2d_48">
      <defs>
       <path d="
M0 0
L2 0" id="m0789224b6b"/>
      </defs>
      <g>
       <use style="stroke:#000000;stroke-linecap:butt;stroke-width:0.5;" x="55.50625" xlink:href="#m0789224b6b" y="216.820541472"/>
      </g>
     </g>
    </g>
    <g id="ytick_20">
     <g id="line2d_49">
      <defs>
       <path d="
M0 0
L2 0" id="m0789224b6b"/>
      </defs>
      <g>
       <use style="stroke:#000000;stroke-linecap:butt;stroke-width:0.5;" x="55.50625" xlink:href="#m0789224b6b" y="203.474299119"/>
      </g>
     </g>
    </g>
    <g id="ytick_21">
     <g id="line2d_50">
      <defs>
       <path d="
M0 0
L2 0" id="m0789224b6b"/>
      </defs>
      <g>
       <use style="stroke:#000000;stroke-linecap:butt;stroke-width:0.5;" x="55.50625" xlink:href="#m0789224b6b" y="176.781814413"/>
      </g>
     </g>
    </g>
    <g id="ytick_22">
     <g id="line2d_51">
      <defs>
       <path d="
M0 0
L2 0" id="m0789224b6b"/>
      </defs>
      <g>
       <use style="stroke:#000000;stroke-linecap:butt;stroke-width:0.5;" x="55.50625" xlink:href="#m0789224b6b" y="163.435572061"/>
      </g>
     </g>
    </g>
    <g id="ytick_23">
     <g id="line2d_52">
      <defs>
       <path d="
M0 0
L2 0" id="m0789224b6b"/>
      </defs>
      <g>
       <use style="stroke:#000000;stroke-linecap:butt;stroke-width:0.5;" x="55.50625" xlink:href="#m0789224b6b" y="150.089329708"/>
      </g>
     </g>
    </g>
    <g id="ytick_24">
     <g id="line2d_53">
      <defs>
       <path d="
M0 0
L2 0" id="m0789224b6b"/>
      </defs>
      <g>
       <use style="stroke:#000000;stroke-linecap:butt;stroke-width:0.5;" x="55.50625" xlink:href="#m0789224b6b" y="123.396845002"/>
      </g>
     </g>
    </g>
    <g id="ytick_25">
     <g id="line2d_54">
      <defs>
       <path d="
M0 0
L2 0" id="m0789224b6b"/>
      </defs>
      <g>
       <use style="stroke:#000000;stroke-linecap:butt;stroke-width:0.5;" x="55.50625" xlink:href="#m0789224b6b" y="110.050602649"/>
      </g>
     </g>
    </g>
    <g id="ytick_26">
     <g id="line2d_55">
      <defs>
       <path d="
M0 0
L2 0" id="m0789224b6b"/>
      </defs>
      <g>
       <use style="stroke:#000000;stroke-linecap:butt;stroke-width:0.5;" x="55.50625" xlink:href="#m0789224b6b" y="96.7043602956"/>
      </g>
     </g>
    </g>
    <g id="ytick_27">
     <g id="line2d_56">
      <defs>
       <path d="
M0 0
L2 0" id="m0789224b6b"/>
      </defs>
      <g>
       <use style="stroke:#000000;stroke-linecap:butt;stroke-width:0.5;" x="55.50625" xlink:href="#m0789224b6b" y="70.0118755897"/>
      </g>
     </g>
    </g>
    <g id="ytick_28">
     <g id="line2d_57">
      <defs>
       <path d="
M0 0
L2 0" id="m0789224b6b"/>
      </defs>
      <g>
       <use style="stroke:#000000;stroke-linecap:butt;stroke-width:0.5;" x="55.50625" xlink:href="#m0789224b6b" y="56.6656332367"/>
      </g>
     </g>
    </g>
    <g id="ytick_29">
     <g id="line2d_58">
      <defs>
       <path d="
M0 0
L2 0" id="m0789224b6b"/>
      </defs>
      <g>
       <use style="stroke:#000000;stroke-linecap:butt;stroke-width:0.5;" x="55.50625" xlink:href="#m0789224b6b" y="43.3193908837"/>
      </g>
     </g>
    </g>
   </g>
   <g id="patch_3">
    <path d="
M65.5062 29.9731
L557.374 29.9731" style="fill:none;stroke:#000000;stroke-width:0.8;"/>
   </g>
   <g id="patch_4">
    <path d="
M55.5062 408.105
L55.5062 7.2" style="fill:none;stroke:#000000;stroke-width:0.8;"/>
   </g>
  </g>
 </g>
 <defs>
  <clipPath id="pf680416423">
   <rect height="400.904801141" width="491.8675" x="65.50625" y="7.2"/>
  </clipPath>
 </defs>
</svg>
