<?xml version="1.0" encoding="utf-8" standalone="no"?>
<!DOCTYPE svg PUBLIC "-//W3C//DTD SVG 1.1//EN"
  "http://www.w3.org/Graphics/SVG/1.1/DTD/svg11.dtd">
<!-- Created with matplotlib (http://matplotlib.sourceforge.net/) -->
<svg height="420pt" version="1.1" viewBox="0 0 564 420" width="564pt" xmlns="http://www.w3.org/2000/svg" xmlns:xlink="http://www.w3.org/1999/xlink">
 <defs>
  <style type="text/css">
*{stroke-linecap:square;stroke-linejoin:round;}
  </style>
 </defs>
 <g id="figure_1">
  <g id="patch_1">
   <path d="
M2.22045e-16 420.48
L564.686 420.48
L564.686 0
L2.22045e-16 0
z
" style="fill:#ffffff;"/>
  </g>
  <g id="axes_1">
   <g id="patch_2">
    <path d="
M65.5062 413.28
L557.486 413.28
L557.486 7.2
L65.5062 7.2
z
" style="fill:#ffffff;"/>
   </g>
   <g id="line2d_1">
    <path clip-path="url(#p57bd0e75d4)" d="
M74.9674 39.3264
L85.7872 39.3264
L85.7872 39.3264
L85.7872 39.3264
L99.4185 39.3264
L99.4185 39.3264
L99.4185 39.3264
L108.397 39.3264
L108.397 15.0092
L120.458 15.0092
L120.458 16.6319
L124.916 16.6319
L124.916 30.5138
L132.075 30.5138
L132.075 42.5701
L135.043 42.5701
L135.043 51.6907
L140.141 51.6907
L140.141 60.2965
L146.327 60.2965
L146.327 75.4476
L148.106 75.4476
L148.106 82.3016
L152.828 82.3016
L152.828 96.2155
L155.567 96.2155
L155.567 107.327
L156.838 107.327
L156.838 114.299
L159.212 114.299
L159.212 123.31
L162.418 123.31
L162.418 131.52
L165.28 131.52
L165.28 139.313
L166.169 139.313
L166.169 141.599
L168.673 141.599
L168.673 149.666
L170.22 149.666
L170.22 154.986
L170.961 154.986
L170.961 157.663
L173.069 157.663
L173.069 166.869
L174.387 166.869
L174.387 172.465
L176.25 172.465
L176.25 180.032
L178.547 180.032
L178.547 189.332
L179.625 189.332
L179.625 193.571
L180.148 193.571
L180.148 195.195
L181.165 195.195
L181.165 197.798
L181.659 197.798
L181.659 199.121
L182.621 199.121
L182.621 201.862
L185.738 201.862
L185.738 211.242
L186.565 211.242
L186.565 213.991
L187.76 213.991
L187.76 218.82
L188.147 218.82
L188.147 220.053
L190.001 220.053
L190.001 224.489
L190.357 224.489
L190.357 225.357
L191.396 225.357
L191.396 228.004
L192.397 228.004
L192.397 231.28
L193.044 231.28
L193.044 233.646
L193.986 233.646
L193.986 236.643
L194.896 236.643
L194.896 239.296
L195.192 239.296
L195.192 240.092
L196.627 240.092
L196.627 244.688
L196.905 244.688
L196.905 245.752
L197.453 245.752
L197.453 247.749
L197.722 247.749
L197.722 248.632
L199.285 248.632
L199.285 252.795
L200.761 252.795
L200.761 256.73
L201.235 256.73
L201.235 258.147
L201.469 258.147
L201.469 258.674
L201.931 258.674
L201.931 259.814
L202.61 259.814
L202.61 261.603
L202.832 261.603
L202.832 262.316
L203.917 262.316
L203.917 266.257
L204.547 266.257
L204.547 268.659
L205.163 268.659
L205.163 270.748
L205.765 270.748
L205.765 272.762
L205.963 272.762
L205.963 273.371
L206.547 273.371
L206.547 275
L206.93 275
L206.93 276.041
L207.119 276.041
L207.119 276.531
L208.046 276.531
L208.046 279.168
L209.291 279.168
L209.291 282.365
L209.637 282.365
L209.637 283.172
L209.808 283.172
L209.808 283.603
L210.147 283.603
L210.147 284.309
L211.3 284.309
L211.3 286.67
L211.779 286.67
L211.779 287.574
L212.56 287.574
L212.56 288.656
L212.713 288.656
L212.713 288.899
L213.017 288.899
L213.017 289.292
L213.467 289.292
L213.467 289.904
L214.055 289.904
L214.055 290.502
L214.488 290.502
L214.488 290.888
L214.913 290.888
L214.913 291.286
L215.194 291.286
L215.194 291.538
L215.608 291.538
L215.608 291.876
L216.152 291.876
L216.152 292.392
L216.419 292.392
L216.419 292.666
L216.946 292.666
L216.946 293.315
L217.591 293.315
L217.591 293.898
L218.344 294.003
L218.344 294.288
L219.077 294.377
L219.077 294.448
L220.14 294.543
L220.14 294.61
L221.604 294.544
L221.604 294.338
L221.822 294.338
L221.822 294.175
L222.254 294.175
L222.254 293.903
L222.467 293.903
L222.467 293.741
L222.783 293.741
L222.783 293.465
L223.405 293.465
L223.507 292.964
L224.41 292.964
L224.41 292.768
L225.188 292.818
L225.188 292.914
L225.85 292.808
L225.85 292.76
L226.129 292.76
L226.129 292.618
L226.588 292.618
L226.588 292.259
L226.859 292.259
L226.859 292.01
L227.128 292.01
L227.217 291.616
L227.482 291.616
L227.482 291.351
L227.744 291.351
L227.744 291.026
L227.918 291.026
L228.004 290.735
L228.517 290.735
L228.517 290.303
L228.936 290.303
L229.019 289.803
L229.185 289.803
L229.185 289.684
L229.431 289.684
L229.431 289.481
L229.675 289.481
L229.756 289.215
L230.236 289.215
L230.236 288.621
L230.394 288.621
L230.394 288.437
L230.63 288.437
L230.63 288.167
L230.941 288.167
L230.941 287.837
L231.324 287.837
L231.324 287.514
L231.627 287.514
L231.627 287.283
L232 287.283
L232 287.063
L232.296 287.063
L232.296 286.824
L232.515 286.824
L232.515 286.613
L232.733 286.613
L232.733 286.429
L232.877 286.429
L232.877 286.305
L233.162 286.305
L233.162 286.05
L233.375 286.05
L233.375 285.899
L233.795 285.793
L233.795 285.63
L234.412 285.581
L234.412 285.41
L235.148 285.342
L235.214 285.138
L235.541 285.138
L235.605 284.945
L235.799 284.857
L235.799 284.824
L236.561 284.715
L236.561 284.463
L236.872 284.352
L236.872 284.329
L238.199 284.307
L238.199 284.466
L238.55 284.502
L238.55 284.6
L238.838 284.6
L238.838 284.754
L239.067 284.754
L239.067 284.903
L239.351 284.969
L239.351 285.052
L239.908 285.116
L240.018 285.24
L240.346 285.297
L240.346 285.37
L241.043 285.454
L241.148 285.598
L241.618 285.655
L241.67 285.813
L242.08 285.885
L242.131 285.974
L243.899 285.874
L243.899 285.845
L245.243 285.925
L245.243 286.057
L245.513 286.134
L245.513 286.215
L245.691 286.215
L245.691 286.362
L245.956 286.362
L246.044 286.679
L246.176 286.679
L246.176 286.81
L246.306 286.81
L246.35 286.975
L246.479 286.975
L246.479 287.092
L246.737 287.092
L246.737 287.336
L246.95 287.336
L246.95 287.582
L247.329 287.582
L247.37 288.067
L247.578 288.163
L247.619 288.389
L247.743 288.389
L247.825 288.673
L247.948 288.741
L247.948 288.884
L248.192 288.884
L248.232 289.426
L248.353 289.426
L248.353 289.656
L249.028 289.656
L249.028 291.065
L249.146 291.065
L249.146 291.31
L249.263 291.31
L249.263 291.559
L249.418 291.559
L249.418 291.909
L249.763 291.909
L249.763 292.661
L249.953 292.661
L249.953 293.065
L250.217 293.065
L250.292 293.765
L250.404 293.849
L250.404 294.028
L250.516 294.028
L250.516 294.275
L250.664 294.275
L250.774 294.835
L250.884 294.835
L250.884 295.062
L251.103 295.062
L251.103 295.545
L251.283 295.545
L251.391 296.152
L251.499 296.225
L251.606 296.578
L251.818 296.578
L251.818 296.988
L252.03 296.988
L252.03 297.399
L252.169 297.399
L252.169 297.679
L252.378 297.679
L252.481 298.264
L252.55 298.264
L252.653 298.553
L252.79 298.553
L252.858 298.856
L252.993 298.856
L253.061 299.182
L253.296 299.182
L253.362 299.724
L253.462 299.724
L253.562 300.072
L253.661 300.072
L253.694 300.322
L253.792 300.322
L253.792 300.518
L253.956 300.518
L253.956 300.871
L254.28 300.871
L254.376 301.71
L254.44 301.71
L254.472 301.886
L254.853 301.886
L254.948 302.75
L255.104 302.75
L255.104 303.035
L255.291 303.035
L255.322 303.45
L255.476 303.45
L255.476 303.721
L255.599 303.721
L255.691 304.1
L255.783 304.1
L255.874 304.454
L256.146 304.454
L256.235 305.082
L256.295 305.082
L256.325 305.255
L256.504 305.255
L256.504 305.591
L256.651 305.591
L256.651 305.862
L256.828 305.862
L256.828 306.163
L256.944 306.163
L256.944 306.369
L257.177 306.369
L257.177 306.744
L257.378 306.744
L257.464 307.154
L257.606 307.253
L257.635 307.351
L257.777 307.351
L257.777 307.512
L257.946 307.512
L258.03 307.795
L258.363 307.898
L258.391 308.244
L258.611 308.244
L258.638 308.538
L258.938 308.538
L259.019 308.957
L259.126 308.957
L259.207 309.216
L259.287 309.293
L259.34 309.409
L259.447 309.409
L259.526 309.659
L259.658 309.659
L259.684 309.869
L259.816 309.869
L259.816 310.056
L259.998 310.056
L259.998 310.3
L260.128 310.3
L260.205 310.585
L260.36 310.585
L260.462 310.978
L260.59 310.978
L260.59 311.181
L260.742 311.181
L260.767 311.459
L260.968 311.459
L261.068 311.903
L261.143 311.98
L261.143 312.016
L261.267 312.016
L261.366 312.326
L261.588 312.326
L261.588 312.649
L261.88 312.649
L261.928 313.098
L262.097 313.185
L262.097 313.288
L262.289 313.288
L262.36 313.539
L262.644 313.638
L262.715 313.904
L262.879 313.985
L262.948 314.089
L263.134 314.118
L263.157 314.228
L263.41 314.228
L263.501 314.44
L263.841 314.548
L263.909 314.693
L264.088 314.791
L264.154 314.855
L264.354 314.938
L264.42 315.026
L264.618 315.124
L264.683 315.181
L264.9 315.253
L265.008 315.348
L265.287 315.348
L265.287 315.507
L265.584 315.592
L265.668 315.69
L265.856 315.758
L265.856 315.804
L266.085 315.804
L266.085 315.987
L266.229 316.083
L266.229 316.099
L266.394 316.099
L266.475 316.286
L266.638 316.315
L266.638 316.4
L266.88 316.481
L266.94 316.583
L267.08 316.652
L267.18 316.783
L267.378 316.879
L267.437 317.019
L267.594 317.084
L267.613 317.218
L267.711 317.218
L267.788 317.42
L267.963 317.46
L268.059 317.712
L268.174 317.712
L268.25 317.948
L268.459 318.014
L268.459 318.189
L268.592 318.189
L268.686 318.435
L268.817 318.512
L268.854 318.605
L269.021 318.605
L269.096 318.859
L269.243 318.962
L269.298 319.086
L269.463 319.162
L269.572 319.361
L269.735 319.471
L269.843 319.62
L270.111 319.637
L270.218 319.986
L270.447 320.074
L270.552 320.263
L270.709 320.349
L270.814 320.491
L271.072 320.566
L271.175 320.828
L271.312 320.828
L271.312 320.951
L271.532 320.951
L271.582 321.224
L271.683 321.224
L271.767 321.433
L271.917 321.543
L272.017 321.712
L272.264 321.79
L272.33 322.091
L272.428 322.091
L272.428 322.221
L272.655 322.221
L272.72 322.621
L272.817 322.686
L272.913 322.902
L273.009 322.902
L273.041 323.091
L273.136 323.091
L273.247 323.406
L273.374 323.406
L273.389 323.622
L273.515 323.622
L273.562 323.902
L273.718 323.902
L273.718 324.143
L273.842 324.143
L273.95 324.515
L274.165 324.591
L274.226 324.995
L274.317 324.995
L274.363 325.25
L274.439 325.25
L274.544 325.581
L274.665 325.662
L274.769 325.996
L274.844 325.996
L274.933 326.278
L275.037 326.278
L275.111 326.584
L275.214 326.661
L275.302 326.941
L275.419 326.941
L275.521 327.334
L275.651 327.387
L275.724 327.688
L275.853 327.791
L275.953 328.113
L276.153 328.195
L276.209 328.588
L276.28 328.588
L276.379 328.901
L276.449 328.951
L276.449 329.027
L276.575 329.027
L276.659 329.392
L276.756 329.392
L276.867 329.741
L276.963 329.741
L277.046 330.03
L277.169 330.03
L277.278 330.408
L277.414 330.505
L277.441 330.681
L277.576 330.681
L277.576 330.902
L277.723 330.902
L277.817 331.286
L277.923 331.384
L277.976 331.525
L278.122 331.525
L278.174 331.836
L278.279 331.836
L278.319 332.053
L278.397 332.053
L278.449 332.248
L278.527 332.248
L278.631 332.53
L278.708 332.596
L278.798 332.827
L278.952 332.895
L278.952 333.087
L279.105 333.087
L279.207 333.513
L279.282 333.534
L279.371 333.792
L279.433 333.792
L279.484 333.996
L279.559 334.098
L279.658 334.296
L279.894 334.385
L279.968 334.831
L280.078 334.93
L280.176 335.17
L280.286 335.17
L280.395 335.516
L280.479 335.623
L280.588 335.804
L280.684 335.895
L280.72 335.997
L280.827 335.997
L280.898 336.254
L280.981 336.254
L281.076 336.505
L281.217 336.505
L281.299 336.782
L281.428 336.824
L281.509 337.025
L281.648 337.066
L281.752 337.3
L281.855 337.382
L281.947 337.527
L282.049 337.568
L282.117 337.72
L282.219 337.72
L282.287 337.901
L282.433 338.005
L282.433 338.055
L282.567 338.055
L282.668 338.296
L282.999 338.403
L283.087 338.563
L283.261 338.668
L283.316 338.736
L283.489 338.844
L283.585 338.955
L283.767 339.061
L283.874 339.139
L284.064 339.23
L284.159 339.317
L284.316 339.405
L284.379 339.476
L284.556 339.578
L284.649 339.672
L284.844 339.764
L284.936 339.857
L285.17 339.944
L285.21 339.997
L285.472 340.098
L285.562 340.157
L285.84 340.264
L285.899 340.312
L286.387 340.419
L286.445 340.429
L286.961 340.527
L287.055 340.581
L287.615 340.66
L287.717 340.715
L288.155 340.824
L288.182 340.841
L289.863 340.95
L289.965 340.986
L290.251 341.097
L290.326 341.15
L290.542 341.22
L290.641 341.332
L290.839 341.386
L290.945 341.563
L291.083 341.668
L291.188 341.767
L291.373 341.86
L291.477 341.989
L291.637 342.085
L291.708 342.173
L291.874 342.251
L291.968 342.396
L292.117 342.503
L292.226 342.639
L292.373 342.745
L292.412 342.809
L292.527 342.809
L292.619 343.009
L292.734 343.107
L292.833 343.224
L292.947 343.284
L293.03 343.413
L293.187 343.521
L293.217 343.592
L293.396 343.683
L293.456 343.796
L293.589 343.885
L293.678 343.992
L293.839 344.073
L293.927 344.171
L294.101 344.254
L294.188 344.361
L294.396 344.456
L294.504 344.584
L294.653 344.682
L294.745 344.773
L294.886 344.868
L294.949 344.937
L295.096 345.038
L295.18 345.118
L295.332 345.206
L295.415 345.308
L295.58 345.352
L295.676 345.496
L295.866 345.607
L295.961 345.676
L296.123 345.759
L296.17 345.827
L296.323 345.903
L296.423 346.009
L296.582 346.113
L296.681 346.209
L296.845 346.317
L296.923 346.391
L297.059 346.499
L297.157 346.585
L297.311 346.678
L297.369 346.758
L297.554 346.864
L297.656 346.95
L297.914 347.024
L297.996 347.106
L298.251 347.212
L298.35 347.287
L298.553 347.39
L298.657 347.454
L298.846 347.531
L298.955 347.635
L299.117 347.739
L299.225 347.823
L299.433 347.916
L299.522 348.054
L299.705 348.136
L299.81 348.252
L300.02 348.359
L300.101 348.423
L300.343 348.509
L300.452 348.599
L300.656 348.71
L300.707 348.738
L300.972 348.846
L301.022 348.879
L301.278 348.977
L301.377 349.035
L301.619 349.131
L301.717 349.196
L301.982 349.297
L302.09 349.342
L302.458 349.452
L302.543 349.489
L302.889 349.59
L302.967 349.621
L303.364 349.711
L303.456 349.765
L303.775 349.872
L303.881 349.938
L304.111 350.038
L304.185 350.094
L304.378 350.163
L304.467 350.258
L304.687 350.363
L304.774 350.421
L304.958 350.521
L305.064 350.61
L305.265 350.71
L305.374 350.802
L305.559 350.909
L305.634 350.966
L305.831 351.076
L305.938 351.173
L306.16 351.275
L306.257 351.395
L306.385 351.467
L306.481 351.601
L306.613 351.657
L306.712 351.831
L306.861 351.921
L306.964 352.049
L307.084 352.149
L307.195 352.271
L307.328 352.349
L307.429 352.519
L307.548 352.569
L307.644 352.751
L307.774 352.854
L307.874 352.983
L307.99 353.083
L308.098 353.222
L308.196 353.321
L308.303 353.449
L308.417 353.549
L308.527 353.698
L308.653 353.806
L308.758 353.925
L308.879 354.018
L308.946 354.109
L309.058 354.207
L309.165 354.311
L309.317 354.399
L309.378 354.497
L309.549 354.607
L309.63 354.7
L309.84 354.807
L309.936 354.909
L310.092 355.014
L310.195 355.09
L310.388 355.195
L310.49 355.271
L310.69 355.375
L310.771 355.433
L310.991 355.544
L311.099 355.608
L311.324 355.709
L311.43 355.772
L311.757 355.878
L311.843 355.925
L312.224 356.034
L312.334 356.081
L312.596 356.188
L312.704 356.232
L313.091 356.33
L313.197 356.387
L313.469 356.492
L313.577 356.547
L313.838 356.658
L313.938 356.726
L314.116 356.82
L314.219 356.892
L314.459 357
L314.554 357.041
L314.845 357.14
L314.951 357.206
L315.317 357.314
L315.418 357.366
L315.851 357.474
L315.937 357.493
L316.563 357.603
L316.669 357.633
L317.054 357.742
L317.164 357.772
L317.528 357.881
L317.621 357.926
L317.994 358.036
L318.076 358.076
L318.329 358.181
L318.434 358.236
L318.689 358.341
L318.798 358.399
L319.089 358.509
L319.191 358.541
L319.665 358.646
L319.756 358.688
L320.026 358.797
L320.128 358.833
L320.676 358.943
L320.783 358.958
L323.028 359.068
L323.131 359.081
L324.303 358.974
L324.408 358.952
L325.584 359.062
L325.695 359.093
L326.093 359.203
L326.196 359.239
L326.687 359.347
L326.792 359.381
L327.266 359.491
L327.377 359.516
L327.978 359.624
L328.073 359.641
L329.113 359.752
L329.224 359.762
L329.867 359.872
L329.941 359.886
L333.455 359.996
L333.558 360.023
L334.034 360.13
L334.138 360.165
L334.57 360.275
L334.678 360.308
L335.27 360.418
L335.377 360.437
L335.967 360.548
L336.077 360.568
L336.819 360.679
L336.927 360.687
L340.764 360.798
L340.865 360.811
L341.578 360.922
L341.663 360.937
L342.124 361.046
L342.23 361.085
L342.622 361.196
L342.731 361.227
L343.191 361.337
L343.301 361.376
L343.687 361.485
L343.794 361.52
L344.072 361.631
L344.179 361.679
L344.464 361.787
L344.573 361.832
L344.953 361.942
L345.06 361.98
L345.401 362.091
L345.51 362.126
L345.803 362.235
L345.912 362.288
L346.122 362.398
L346.23 362.464
L346.474 362.574
L346.582 362.635
L346.807 362.745
L346.915 362.799
L347.146 362.91
L347.256 362.965
L347.535 363.076
L347.641 363.117
L348.092 363.228
L348.196 363.236
L351.896 363.345
L351.996 363.376
L352.473 363.487
L352.584 363.521
L352.951 363.632
L353.062 363.655
L353.833 363.766
L353.94 363.787
L354.522 363.898
L354.631 363.914
L355.381 364.022
L355.487 364.044
L356.16 364.155
L356.271 364.179
L356.776 364.289
L356.883 364.322
L357.232 364.433
L357.342 364.47
L357.671 364.579
L357.775 364.622
L358.042 364.733
L358.148 364.778
L358.418 364.887
L358.524 364.927
L358.941 365.038
L359.045 365.061
L359.665 365.172
L359.773 365.2
L360.274 365.311
L360.384 365.336
L360.75 365.445
L360.858 365.481
L361.199 365.588
L361.31 365.624
L361.716 365.735
L361.825 365.762
L362.21 365.873
L362.313 365.91
L362.615 366.019
L362.726 366.055
L363.102 366.166
L363.213 366.2
L363.574 366.311
L363.685 366.341
L364.111 366.452
L364.221 366.493
L364.537 366.603
L364.647 366.637
L364.981 366.747
L365.09 366.789
L365.396 366.899
L365.506 366.95
L365.734 367.061
L365.845 367.123
L366.048 367.234
L366.156 367.294
L366.376 367.405
L366.485 367.456
L366.724 367.567
L366.831 367.61
L367.106 367.719
L367.215 367.766
L367.537 367.875
L367.648 367.915
L367.936 368.026
L368.047 368.07
L368.315 368.181
L368.421 368.225
L368.71 368.335
L368.821 368.38
L369.064 368.49
L369.171 368.545
L369.394 368.655
L369.505 368.722
L369.711 368.833
L369.822 368.897
L370.052 369.006
L370.159 369.064
L370.386 369.173
L370.495 369.236
L370.708 369.347
L370.814 369.391
L371.088 369.502
L371.195 369.545
L371.496 369.656
L371.604 369.692
L371.957 369.803
L372.066 369.84
L372.362 369.951
L372.472 369.998
L372.747 370.108
L372.858 370.153
L373.128 370.263
L373.235 370.312
L373.498 370.422
L373.609 370.468
L373.858 370.579
L373.969 370.625
L374.301 370.736
L374.409 370.778
L374.711 370.887
L374.819 370.923
L375.222 371.034
L375.332 371.071
L375.596 371.179
L375.702 371.232
L375.94 371.343
L376.047 371.393
L376.276 371.504
L376.385 371.555
L376.64 371.665
L376.751 371.711
L377.083 371.822
L377.194 371.848
L377.891 371.959
L378.002 371.979
L378.566 372.09
L378.676 372.122
L379.04 372.232
L379.149 372.267
L379.497 372.377
L379.607 372.421
L379.854 372.531
L379.965 372.591
L380.176 372.702
L380.287 372.763
L380.507 372.873
L380.617 372.932
L380.829 373.042
L380.938 373.1
L381.142 373.211
L381.251 373.274
L381.454 373.385
L381.562 373.445
L381.766 373.555
L381.874 373.617
L382.042 373.724
L382.152 373.81
L382.301 373.918
L382.411 374.003
L382.553 374.114
L382.664 374.198
L382.813 374.309
L382.92 374.397
L383.054 374.505
L383.164 374.596
L383.306 374.707
L383.415 374.79
L383.567 374.898
L383.677 374.983
L383.826 375.094
L383.936 375.179
L384.08 375.289
L384.19 375.377
L384.324 375.487
L384.435 375.581
L384.561 375.691
L384.672 375.788
L384.806 375.898
L384.915 375.99
L385.055 376.1
L385.164 376.189
L385.293 376.297
L385.403 376.395
L385.538 376.505
L385.647 376.6
L385.797 376.71
L385.907 376.793
L386.057 376.902
L386.167 376.986
L386.332 377.097
L386.441 377.17
L386.612 377.281
L386.721 377.353
L386.902 377.464
L387.013 377.539
L387.178 377.649
L387.289 377.724
L387.446 377.835
L387.557 377.916
L387.7 378.027
L387.81 378.116
L387.948 378.226
L388.059 378.326
L388.186 378.437
L388.297 378.535
L388.427 378.644
L388.537 378.746
L388.666 378.857
L388.775 378.948
L388.919 379.058
L389.03 379.143
L389.168 379.254
L389.278 379.346
L389.418 379.457
L389.529 379.543
L389.677 379.654
L389.788 379.738
L389.925 379.847
L390.033 379.947
L390.162 380.057
L390.272 380.156
L390.397 380.267
L390.507 380.371
L390.631 380.481
L390.74 380.584
L390.857 380.693
L390.967 380.798
L391.091 380.908
L391.201 381.01
L391.327 381.121
L391.438 381.209
L391.571 381.319
L391.68 381.41
L391.815 381.521
L391.925 381.618
L392.056 381.729
L392.166 381.824
L392.296 381.935
L392.403 382.033
L392.527 382.14
L392.637 382.242
L392.766 382.353
L392.876 382.448
L393.003 382.558
L393.114 382.658
L393.249 382.768
L393.358 382.854
L393.508 382.965
L393.617 383.048
L393.772 383.159
L393.883 383.243
L394.028 383.353
L394.138 383.439
L394.294 383.549
L394.404 383.631
L394.561 383.742
L394.671 383.815
L394.84 383.926
L394.951 384.002
L395.108 384.112
L395.218 384.194
L395.383 384.304
L395.494 384.375
L395.685 384.485
L395.796 384.549
L395.995 384.659
L396.105 384.72
L396.316 384.831
L396.427 384.888
L396.662 384.998
L396.773 385.049
L397.021 385.16
L397.131 385.213
L397.343 385.324
L397.454 385.381
L397.682 385.491
L397.793 385.548
L398.042 385.659
L398.152 385.704
L398.486 385.814
L398.597 385.85
L399.006 385.961
L399.117 385.996
L399.489 386.107
L399.599 386.14
L399.937 386.251
L400.048 386.279
L400.708 386.39
L400.818 386.41
L401.374 386.521
L401.484 386.558
L401.917 386.669
L402.026 386.69
L402.978 386.801
L403.088 386.811
L403.612 386.922
L403.722 386.952
L404.439 387.063
L404.549 387.078
L405.199 387.189
L405.31 387.228
L405.645 387.338
L405.755 387.37
L406.17 387.482
L406.281 387.502
L406.818 387.613
L406.928 387.642
L407.317 387.753
L407.427 387.78
L409.081 387.891
L409.192 387.906
L410.735 387.795
L410.845 387.773
L411.333 387.662
L411.443 387.626
L411.765 387.515
L411.875 387.478
L412.492 387.367
L412.603 387.36
L413.314 387.249
L413.425 387.217
L414.221 387.106
L414.331 387.095
L415.011 386.984
L415.122 386.96
L416.155 386.849
L416.266 386.833
L417.843 386.722
L417.954 386.715
L419.488 386.604
L419.599 386.586
L422.367 386.697
L422.478 386.71
L424.03 386.821
L424.141 386.838
L425.584 386.949
L425.694 386.959
L426.706 387.07
L426.817 387.089
L429.149 387.2
L429.26 387.209
L432.792 387.32
L432.903 387.33
L436.856 387.441
L436.967 387.465
L437.525 387.576
L437.636 387.593
L438.302 387.704
L438.413 387.721
L439.062 387.832
L439.173 387.859
L439.844 387.97
L439.955 387.996
L440.504 388.107
L440.615 388.126
L441.122 388.237
L441.233 388.266
L441.663 388.377
L441.774 388.41
L442.149 388.521
L442.26 388.548
L442.684 388.659
L442.796 388.698
L443.162 388.809
L443.273 388.842
L443.626 388.953
L443.737 388.988
L444.111 389.099
L444.221 389.126
L444.74 389.237
L444.851 389.264
L445.394 389.375
L445.505 389.401
L446.031 389.512
L446.142 389.533
L446.727 389.644
L446.838 389.667
L447.536 389.778
L447.647 389.792
L449.133 389.903
L449.244 389.91
L450.648 390.021
L450.759 390.039
L451.345 390.15
L451.456 390.175
L451.936 390.286
L452.047 390.311
L452.514 390.422
L452.625 390.449
L453.085 390.56
L453.196 390.588
L453.621 390.699
L453.732 390.734
L454.171 390.845
L454.282 390.872
L454.681 390.983
L454.792 391.013
L455.186 391.124
L455.297 391.155
L455.692 391.266
L455.803 391.303
L456.102 391.414
L456.213 391.453
L456.556 391.564
L456.667 391.601
L457.045 391.712
L457.156 391.739
L457.637 391.85
L457.748 391.869
L458.475 391.98
L458.586 391.994
L459.107 392.105
L459.218 392.128
L459.662 392.239
L459.773 392.259
L460.503 392.37
L460.614 392.386
L461.51 392.497
L461.621 392.518
L462.297 392.629
L462.408 392.65
L462.913 392.761
L463.024 392.785
L463.562 392.896
L463.673 392.916
L464.151 393.027
L464.262 393.05
L464.707 393.161
L464.819 393.192
L465.197 393.303
L465.308 393.339
L465.677 393.45
L465.788 393.49
L466.145 393.601
L466.256 393.634
L466.616 393.745
L466.727 393.772
L467.231 393.884
L467.342 393.911
L467.798 394.022
L467.909 394.042
L468.469 394.153
L468.58 394.174
L469.005 394.285
L469.116 394.317
L469.513 394.428
L469.624 394.456
L470.132 394.567
L470.243 394.583
L470.836 394.694
L470.947 394.718
L471.344 394.829
L471.455 394.867
L471.767 394.978
L471.878 395.015
L472.161 395.126
L472.273 395.169
L472.574 395.28
L472.685 395.321
L473.01 395.432
L473.121 395.469
L473.531 395.58
L473.642 395.602
L474.694 395.713
L474.805 395.728
L476.11 395.839
L476.221 395.852
L481.242 395.963
L481.353 395.993
L481.749 396.104
L481.86 396.138
L482.294 396.249
L482.405 396.282
L482.768 396.393
L482.879 396.418
L483.45 396.529
L483.561 396.549
L484.15 396.66
L484.261 396.683
L484.635 396.794
L484.746 396.827
L485.101 396.938
L485.212 396.976
L485.527 397.087
L485.638 397.124
L485.98 397.235
L486.091 397.273
L486.377 397.384
L486.488 397.434
L486.703 397.545
L486.814 397.604
L487.014 397.715
L487.125 397.769
L487.353 397.88
L487.464 397.933
L487.703 398.045
L487.814 398.097
L488.077 398.208
L488.189 398.254
L488.463 398.365
L488.574 398.407
L488.937 398.518
L489.048 398.552
L489.352 398.663
L489.463 398.707
L489.735 398.818
L489.846 398.864
L490.146 398.975
L490.257 399.015
L490.564 399.126
L490.675 399.166
L490.99 399.277
L491.101 399.313
L491.374 399.424
L491.485 399.47
L491.747 399.581
L491.858 399.629
L492.115 399.74
L492.227 399.781
L492.568 399.893
L492.679 399.931
L493.021 400.042
L493.133 400.076
L493.516 400.187
L493.627 400.217
L493.98 400.329
L494.091 400.369
L494.375 400.48
L494.486 400.524
L494.774 400.635
L494.885 400.677
L495.245 400.788
L495.356 400.821
L495.698 400.932
L495.809 400.97
L496.113 401.081
L496.224 401.121
L496.528 401.232
L496.639 401.274
L496.933 401.385
L497.044 401.423
L497.431 401.534
L497.542 401.563
L497.955 401.674
L498.066 401.703
L498.468 401.814
L498.579 401.846
L499.001 401.957
L499.112 401.986
L499.596 402.098
L499.707 402.119
L500.254 402.23
L500.366 402.25
L500.851 402.361
L500.962 402.392
L501.511 402.503
L501.622 402.519
L502.205 402.63
L502.316 402.651
L503.08 402.763
L503.191 402.774
L505.037 402.885
L505.148 402.892
L507.132 403.004
L507.243 403.018
L507.985 403.129
L508.096 403.147
L508.65 403.258
L508.761 403.282
L509.231 403.394
L509.342 403.42
L509.787 403.531
L509.898 403.554
L510.439 403.665
L510.551 403.681
L511.615 403.792
L511.726 403.804
L513.525 403.915
L513.637 403.92
L515.431 404.031
L515.542 404.042
L516.758 404.153
L516.869 404.167
L518.142 404.278
L518.253 404.29
L519.247 404.401
L519.358 404.417
L520.326 404.528
L520.437 404.54
L522.682 404.651
L522.793 404.658
L523.957 404.769
L524.068 404.781
L525.167 404.892
L525.278 404.903
L526.422 405.015
L526.533 405.024
L527.653 405.135
L527.764 405.15
L528.529 405.261
L528.64 405.272
L529.81 405.383
L529.921 405.392
L544.787 405.281
L544.898 405.269
L546.422 405.158
L546.533 405.151
L548.025 405.04
L548.025 405.04" style="fill:none;stroke:#0000ff;stroke-width:5.0;"/>
   </g>
   <g id="matplotlib.axis_1">
    <g id="xtick_1">
     <g id="line2d_2">
      <path d="
M189.895 413.28
L189.895 7.2" style="fill:none;stroke:#000000;stroke-dasharray:1.000000,3.000000;stroke-dashoffset:0.0;stroke-linecap:butt;stroke-width:0.5;"/>
     </g>
     <g id="line2d_3">
      <defs>
       <path d="
M0 0
L0 -4" id="me7ff324603"/>
      </defs>
      <g>
       <use style="stroke:#000000;stroke-linecap:butt;stroke-width:0.5;" x="189.895397706" xlink:href="#me7ff324603" y="39.3264490371"/>
      </g>
     </g>
     <g id="text_1">
      <!-- 5 -->
      <defs>
       <path d="
M10.7969 72.9062
L49.5156 72.9062
L49.5156 64.5938
L19.8281 64.5938
L19.8281 46.7344
Q21.9688 47.4688 24.1094 47.8281
Q26.2656 48.1875 28.4219 48.1875
Q40.625 48.1875 47.75 41.5
Q54.8906 34.8125 54.8906 23.3906
Q54.8906 11.625 47.5625 5.09375
Q40.2344 -1.42188 26.9062 -1.42188
Q22.3125 -1.42188 17.5469 -0.640625
Q12.7969 0.140625 7.71875 1.70312
L7.71875 11.625
Q12.1094 9.23438 16.7969 8.0625
Q21.4844 6.89062 26.7031 6.89062
Q35.1562 6.89062 40.0781 11.3281
Q45.0156 15.7656 45.0156 23.3906
Q45.0156 31 40.0781 35.4375
Q35.1562 39.8906 26.7031 39.8906
Q22.75 39.8906 18.8125 39.0156
Q14.8906 38.1406 10.7969 36.2812
z
" id="BitstreamVeraSans-Roman-35"/>
      </defs>
      <g transform="translate(184.234772706 60.8239490371)scale(0.24 -0.24)">
       <use xlink:href="#BitstreamVeraSans-Roman-35"/>
      </g>
     </g>
    </g>
    <g id="xtick_2">
     <g id="line2d_4">
      <path d="
M323.32 413.28
L323.32 7.2" style="fill:none;stroke:#000000;stroke-dasharray:1.000000,3.000000;stroke-dashoffset:0.0;stroke-linecap:butt;stroke-width:0.5;"/>
     </g>
     <g id="line2d_5">
      <defs>
       <path d="
M0 0
L0 -4" id="me7ff324603"/>
      </defs>
      <g>
       <use style="stroke:#000000;stroke-linecap:butt;stroke-width:0.5;" x="323.319963946" xlink:href="#me7ff324603" y="39.3264490371"/>
      </g>
     </g>
     <g id="text_2">
      <!-- 10 -->
      <defs>
       <path d="
M31.7812 66.4062
Q24.1719 66.4062 20.3281 58.9062
Q16.5 51.4219 16.5 36.375
Q16.5 21.3906 20.3281 13.8906
Q24.1719 6.39062 31.7812 6.39062
Q39.4531 6.39062 43.2812 13.8906
Q47.125 21.3906 47.125 36.375
Q47.125 51.4219 43.2812 58.9062
Q39.4531 66.4062 31.7812 66.4062
M31.7812 74.2188
Q44.0469 74.2188 50.5156 64.5156
Q56.9844 54.8281 56.9844 36.375
Q56.9844 17.9688 50.5156 8.26562
Q44.0469 -1.42188 31.7812 -1.42188
Q19.5312 -1.42188 13.0625 8.26562
Q6.59375 17.9688 6.59375 36.375
Q6.59375 54.8281 13.0625 64.5156
Q19.5312 74.2188 31.7812 74.2188" id="BitstreamVeraSans-Roman-30"/>
       <path d="
M12.4062 8.29688
L28.5156 8.29688
L28.5156 63.9219
L10.9844 60.4062
L10.9844 69.3906
L28.4219 72.9062
L38.2812 72.9062
L38.2812 8.29688
L54.3906 8.29688
L54.3906 0
L12.4062 0
z
" id="BitstreamVeraSans-Roman-31"/>
      </defs>
      <g transform="translate(310.164963946 61.1389490371)scale(0.24 -0.24)">
       <use xlink:href="#BitstreamVeraSans-Roman-31"/>
       <use x="63.623046875" xlink:href="#BitstreamVeraSans-Roman-30"/>
      </g>
     </g>
    </g>
    <g id="xtick_3">
     <g id="line2d_6">
      <path d="
M456.745 413.28
L456.745 7.2" style="fill:none;stroke:#000000;stroke-dasharray:1.000000,3.000000;stroke-dashoffset:0.0;stroke-linecap:butt;stroke-width:0.5;"/>
     </g>
     <g id="line2d_7">
      <defs>
       <path d="
M0 0
L0 -4" id="me7ff324603"/>
      </defs>
      <g>
       <use style="stroke:#000000;stroke-linecap:butt;stroke-width:0.5;" x="456.744530187" xlink:href="#me7ff324603" y="39.3264490371"/>
      </g>
     </g>
     <g id="text_3">
      <!-- 15 -->
      <g transform="translate(443.840780187 60.8239490371)scale(0.24 -0.24)">
       <use xlink:href="#BitstreamVeraSans-Roman-31"/>
       <use x="63.623046875" xlink:href="#BitstreamVeraSans-Roman-35"/>
      </g>
     </g>
    </g>
    <g id="xtick_4">
     <g id="line2d_8">
      <defs>
       <path d="
M0 0
L0 -2" id="me4714294c4"/>
      </defs>
      <g>
       <use style="stroke:#000000;stroke-linecap:butt;stroke-width:0.5;" x="83.1557447129" xlink:href="#me4714294c4" y="39.3264490371"/>
      </g>
     </g>
    </g>
    <g id="xtick_5">
     <g id="line2d_9">
      <defs>
       <path d="
M0 0
L0 -2" id="me4714294c4"/>
      </defs>
      <g>
       <use style="stroke:#000000;stroke-linecap:butt;stroke-width:0.5;" x="109.840657961" xlink:href="#me4714294c4" y="39.3264490371"/>
      </g>
     </g>
    </g>
    <g id="xtick_6">
     <g id="line2d_10">
      <defs>
       <path d="
M0 0
L0 -2" id="me4714294c4"/>
      </defs>
      <g>
       <use style="stroke:#000000;stroke-linecap:butt;stroke-width:0.5;" x="136.525571209" xlink:href="#me4714294c4" y="39.3264490371"/>
      </g>
     </g>
    </g>
    <g id="xtick_7">
     <g id="line2d_11">
      <defs>
       <path d="
M0 0
L0 -2" id="me4714294c4"/>
      </defs>
      <g>
       <use style="stroke:#000000;stroke-linecap:butt;stroke-width:0.5;" x="163.210484457" xlink:href="#me4714294c4" y="39.3264490371"/>
      </g>
     </g>
    </g>
    <g id="xtick_8">
     <g id="line2d_12">
      <defs>
       <path d="
M0 0
L0 -2" id="me4714294c4"/>
      </defs>
      <g>
       <use style="stroke:#000000;stroke-linecap:butt;stroke-width:0.5;" x="216.580310954" xlink:href="#me4714294c4" y="39.3264490371"/>
      </g>
     </g>
    </g>
    <g id="xtick_9">
     <g id="line2d_13">
      <defs>
       <path d="
M0 0
L0 -2" id="me4714294c4"/>
      </defs>
      <g>
       <use style="stroke:#000000;stroke-linecap:butt;stroke-width:0.5;" x="243.265224202" xlink:href="#me4714294c4" y="39.3264490371"/>
      </g>
     </g>
    </g>
    <g id="xtick_10">
     <g id="line2d_14">
      <defs>
       <path d="
M0 0
L0 -2" id="me4714294c4"/>
      </defs>
      <g>
       <use style="stroke:#000000;stroke-linecap:butt;stroke-width:0.5;" x="269.95013745" xlink:href="#me4714294c4" y="39.3264490371"/>
      </g>
     </g>
    </g>
    <g id="xtick_11">
     <g id="line2d_15">
      <defs>
       <path d="
M0 0
L0 -2" id="me4714294c4"/>
      </defs>
      <g>
       <use style="stroke:#000000;stroke-linecap:butt;stroke-width:0.5;" x="296.635050698" xlink:href="#me4714294c4" y="39.3264490371"/>
      </g>
     </g>
    </g>
    <g id="xtick_12">
     <g id="line2d_16">
      <defs>
       <path d="
M0 0
L0 -2" id="me4714294c4"/>
      </defs>
      <g>
       <use style="stroke:#000000;stroke-linecap:butt;stroke-width:0.5;" x="350.004877195" xlink:href="#me4714294c4" y="39.3264490371"/>
      </g>
     </g>
    </g>
    <g id="xtick_13">
     <g id="line2d_17">
      <defs>
       <path d="
M0 0
L0 -2" id="me4714294c4"/>
      </defs>
      <g>
       <use style="stroke:#000000;stroke-linecap:butt;stroke-width:0.5;" x="376.689790443" xlink:href="#me4714294c4" y="39.3264490371"/>
      </g>
     </g>
    </g>
    <g id="xtick_14">
     <g id="line2d_18">
      <defs>
       <path d="
M0 0
L0 -2" id="me4714294c4"/>
      </defs>
      <g>
       <use style="stroke:#000000;stroke-linecap:butt;stroke-width:0.5;" x="403.374703691" xlink:href="#me4714294c4" y="39.3264490371"/>
      </g>
     </g>
    </g>
    <g id="xtick_15">
     <g id="line2d_19">
      <defs>
       <path d="
M0 0
L0 -2" id="me4714294c4"/>
      </defs>
      <g>
       <use style="stroke:#000000;stroke-linecap:butt;stroke-width:0.5;" x="430.059616939" xlink:href="#me4714294c4" y="39.3264490371"/>
      </g>
     </g>
    </g>
    <g id="xtick_16">
     <g id="line2d_20">
      <defs>
       <path d="
M0 0
L0 -2" id="me4714294c4"/>
      </defs>
      <g>
       <use style="stroke:#000000;stroke-linecap:butt;stroke-width:0.5;" x="483.429443435" xlink:href="#me4714294c4" y="39.3264490371"/>
      </g>
     </g>
    </g>
    <g id="xtick_17">
     <g id="line2d_21">
      <defs>
       <path d="
M0 0
L0 -2" id="me4714294c4"/>
      </defs>
      <g>
       <use style="stroke:#000000;stroke-linecap:butt;stroke-width:0.5;" x="510.114356683" xlink:href="#me4714294c4" y="39.3264490371"/>
      </g>
     </g>
    </g>
   </g>
   <g id="matplotlib.axis_2">
    <g id="ytick_1">
     <g id="line2d_22">
      <path d="
M65.5062 349.064
L557.486 349.064" style="fill:none;stroke:#000000;stroke-dasharray:1.000000,3.000000;stroke-dashoffset:0.0;stroke-linecap:butt;stroke-width:0.5;"/>
     </g>
     <g id="line2d_23">
      <defs>
       <path d="
M0 0
L4 0" id="m069aa59461"/>
      </defs>
      <g>
       <use style="stroke:#000000;stroke-linecap:butt;stroke-width:0.5;" x="55.50625" xlink:href="#m069aa59461" y="349.063888252"/>
      </g>
     </g>
     <g id="text_4">
      <!-- -0.4 -->
      <defs>
       <path d="
M10.6875 12.4062
L21 12.4062
L21 0
L10.6875 0
z
" id="BitstreamVeraSans-Roman-2e"/>
       <path d="
M4.89062 31.3906
L31.2031 31.3906
L31.2031 23.3906
L4.89062 23.3906
z
" id="BitstreamVeraSans-Roman-2d"/>
       <path d="
M37.7969 64.3125
L12.8906 25.3906
L37.7969 25.3906
z

M35.2031 72.9062
L47.6094 72.9062
L47.6094 25.3906
L58.0156 25.3906
L58.0156 17.1875
L47.6094 17.1875
L47.6094 0
L37.7969 0
L37.7969 17.1875
L4.89062 17.1875
L4.89062 26.7031
z
" id="BitstreamVeraSans-Roman-34"/>
      </defs>
      <g transform="translate(7.2 357.799513252)scale(0.24 -0.24)">
       <use xlink:href="#BitstreamVeraSans-Roman-2d"/>
       <use x="36.083984375" xlink:href="#BitstreamVeraSans-Roman-30"/>
       <use x="99.70703125" xlink:href="#BitstreamVeraSans-Roman-2e"/>
       <use x="131.494140625" xlink:href="#BitstreamVeraSans-Roman-34"/>
      </g>
     </g>
    </g>
    <g id="ytick_2">
     <g id="line2d_24">
      <path d="
M65.5062 271.63
L557.486 271.63" style="fill:none;stroke:#000000;stroke-dasharray:1.000000,3.000000;stroke-dashoffset:0.0;stroke-linecap:butt;stroke-width:0.5;"/>
     </g>
     <g id="line2d_25">
      <defs>
       <path d="
M0 0
L4 0" id="m069aa59461"/>
      </defs>
      <g>
       <use style="stroke:#000000;stroke-linecap:butt;stroke-width:0.5;" x="55.50625" xlink:href="#m069aa59461" y="271.629528449"/>
      </g>
     </g>
     <g id="text_5">
      <!-- -0.3 -->
      <defs>
       <path d="
M40.5781 39.3125
Q47.6562 37.7969 51.625 33
Q55.6094 28.2188 55.6094 21.1875
Q55.6094 10.4062 48.1875 4.48438
Q40.7656 -1.42188 27.0938 -1.42188
Q22.5156 -1.42188 17.6562 -0.515625
Q12.7969 0.390625 7.625 2.20312
L7.625 11.7188
Q11.7188 9.32812 16.5938 8.10938
Q21.4844 6.89062 26.8125 6.89062
Q36.0781 6.89062 40.9375 10.5469
Q45.7969 14.2031 45.7969 21.1875
Q45.7969 27.6406 41.2812 31.2656
Q36.7656 34.9062 28.7188 34.9062
L20.2188 34.9062
L20.2188 43.0156
L29.1094 43.0156
Q36.375 43.0156 40.2344 45.9219
Q44.0938 48.8281 44.0938 54.2969
Q44.0938 59.9062 40.1094 62.9062
Q36.1406 65.9219 28.7188 65.9219
Q24.6562 65.9219 20.0156 65.0312
Q15.375 64.1562 9.8125 62.3125
L9.8125 71.0938
Q15.4375 72.6562 20.3438 73.4375
Q25.25 74.2188 29.5938 74.2188
Q40.8281 74.2188 47.3594 69.1094
Q53.9062 64.0156 53.9062 55.3281
Q53.9062 49.2656 50.4375 45.0938
Q46.9688 40.9219 40.5781 39.3125" id="BitstreamVeraSans-Roman-33"/>
      </defs>
      <g transform="translate(7.7775 280.365153449)scale(0.24 -0.24)">
       <use xlink:href="#BitstreamVeraSans-Roman-2d"/>
       <use x="36.083984375" xlink:href="#BitstreamVeraSans-Roman-30"/>
       <use x="99.70703125" xlink:href="#BitstreamVeraSans-Roman-2e"/>
       <use x="131.494140625" xlink:href="#BitstreamVeraSans-Roman-33"/>
      </g>
     </g>
    </g>
    <g id="ytick_3">
     <g id="line2d_26">
      <path d="
M65.5062 194.195
L557.486 194.195" style="fill:none;stroke:#000000;stroke-dasharray:1.000000,3.000000;stroke-dashoffset:0.0;stroke-linecap:butt;stroke-width:0.5;"/>
     </g>
     <g id="line2d_27">
      <defs>
       <path d="
M0 0
L4 0" id="m069aa59461"/>
      </defs>
      <g>
       <use style="stroke:#000000;stroke-linecap:butt;stroke-width:0.5;" x="55.50625" xlink:href="#m069aa59461" y="194.195168645"/>
      </g>
     </g>
     <g id="text_6">
      <!-- -0.2 -->
      <defs>
       <path d="
M19.1875 8.29688
L53.6094 8.29688
L53.6094 0
L7.32812 0
L7.32812 8.29688
Q12.9375 14.1094 22.625 23.8906
Q32.3281 33.6875 34.8125 36.5312
Q39.5469 41.8438 41.4219 45.5312
Q43.3125 49.2188 43.3125 52.7812
Q43.3125 58.5938 39.2344 62.25
Q35.1562 65.9219 28.6094 65.9219
Q23.9688 65.9219 18.8125 64.3125
Q13.6719 62.7031 7.8125 59.4219
L7.8125 69.3906
Q13.7656 71.7812 18.9375 73
Q24.125 74.2188 28.4219 74.2188
Q39.75 74.2188 46.4844 68.5469
Q53.2188 62.8906 53.2188 53.4219
Q53.2188 48.9219 51.5312 44.8906
Q49.8594 40.875 45.4062 35.4062
Q44.1875 33.9844 37.6406 27.2188
Q31.1094 20.4531 19.1875 8.29688" id="BitstreamVeraSans-Roman-32"/>
      </defs>
      <g transform="translate(8.2575 202.930793645)scale(0.24 -0.24)">
       <use xlink:href="#BitstreamVeraSans-Roman-2d"/>
       <use x="36.083984375" xlink:href="#BitstreamVeraSans-Roman-30"/>
       <use x="99.70703125" xlink:href="#BitstreamVeraSans-Roman-2e"/>
       <use x="131.494140625" xlink:href="#BitstreamVeraSans-Roman-32"/>
      </g>
     </g>
    </g>
    <g id="ytick_4">
     <g id="line2d_28">
      <path d="
M65.5062 116.761
L557.486 116.761" style="fill:none;stroke:#000000;stroke-dasharray:1.000000,3.000000;stroke-dashoffset:0.0;stroke-linecap:butt;stroke-width:0.5;"/>
     </g>
     <g id="line2d_29">
      <defs>
       <path d="
M0 0
L4 0" id="m069aa59461"/>
      </defs>
      <g>
       <use style="stroke:#000000;stroke-linecap:butt;stroke-width:0.5;" x="55.50625" xlink:href="#m069aa59461" y="116.760808841"/>
      </g>
     </g>
     <g id="text_7">
      <!-- -0.1 -->
      <g transform="translate(8.07 125.496433841)scale(0.24 -0.24)">
       <use xlink:href="#BitstreamVeraSans-Roman-2d"/>
       <use x="36.083984375" xlink:href="#BitstreamVeraSans-Roman-30"/>
       <use x="99.70703125" xlink:href="#BitstreamVeraSans-Roman-2e"/>
       <use x="131.494140625" xlink:href="#BitstreamVeraSans-Roman-31"/>
      </g>
     </g>
    </g>
    <g id="ytick_5">
     <g id="line2d_30">
      <path d="
M65.5062 39.3264
L557.486 39.3264" style="fill:none;stroke:#000000;stroke-dasharray:1.000000,3.000000;stroke-dashoffset:0.0;stroke-linecap:butt;stroke-width:0.5;"/>
     </g>
     <g id="line2d_31">
      <defs>
       <path d="
M0 0
L4 0" id="m069aa59461"/>
      </defs>
      <g>
       <use style="stroke:#000000;stroke-linecap:butt;stroke-width:0.5;" x="55.50625" xlink:href="#m069aa59461" y="39.3264490371"/>
      </g>
     </g>
     <g id="text_8">
      <!-- 0 -->
      <g transform="translate(39.4125 48.0620740371)scale(0.24 -0.24)">
       <use xlink:href="#BitstreamVeraSans-Roman-30"/>
      </g>
     </g>
    </g>
    <g id="ytick_6">
     <g id="line2d_32">
      <defs>
       <path d="
M0 0
L2 0" id="m2f26ac1d8d"/>
      </defs>
      <g>
       <use style="stroke:#000000;stroke-linecap:butt;stroke-width:0.5;" x="55.50625" xlink:href="#m2f26ac1d8d" y="411.011376095"/>
      </g>
     </g>
    </g>
    <g id="ytick_7">
     <g id="line2d_33">
      <defs>
       <path d="
M0 0
L2 0" id="m2f26ac1d8d"/>
      </defs>
      <g>
       <use style="stroke:#000000;stroke-linecap:butt;stroke-width:0.5;" x="55.50625" xlink:href="#m2f26ac1d8d" y="395.524504135"/>
      </g>
     </g>
    </g>
    <g id="ytick_8">
     <g id="line2d_34">
      <defs>
       <path d="
M0 0
L2 0" id="m2f26ac1d8d"/>
      </defs>
      <g>
       <use style="stroke:#000000;stroke-linecap:butt;stroke-width:0.5;" x="55.50625" xlink:href="#m2f26ac1d8d" y="380.037632174"/>
      </g>
     </g>
    </g>
    <g id="ytick_9">
     <g id="line2d_35">
      <defs>
       <path d="
M0 0
L2 0" id="m2f26ac1d8d"/>
      </defs>
      <g>
       <use style="stroke:#000000;stroke-linecap:butt;stroke-width:0.5;" x="55.50625" xlink:href="#m2f26ac1d8d" y="364.550760213"/>
      </g>
     </g>
    </g>
    <g id="ytick_10">
     <g id="line2d_36">
      <defs>
       <path d="
M0 0
L2 0" id="m2f26ac1d8d"/>
      </defs>
      <g>
       <use style="stroke:#000000;stroke-linecap:butt;stroke-width:0.5;" x="55.50625" xlink:href="#m2f26ac1d8d" y="333.577016292"/>
      </g>
     </g>
    </g>
    <g id="ytick_11">
     <g id="line2d_37">
      <defs>
       <path d="
M0 0
L2 0" id="m2f26ac1d8d"/>
      </defs>
      <g>
       <use style="stroke:#000000;stroke-linecap:butt;stroke-width:0.5;" x="55.50625" xlink:href="#m2f26ac1d8d" y="318.090144331"/>
      </g>
     </g>
    </g>
    <g id="ytick_12">
     <g id="line2d_38">
      <defs>
       <path d="
M0 0
L2 0" id="m2f26ac1d8d"/>
      </defs>
      <g>
       <use style="stroke:#000000;stroke-linecap:butt;stroke-width:0.5;" x="55.50625" xlink:href="#m2f26ac1d8d" y="302.60327237"/>
      </g>
     </g>
    </g>
    <g id="ytick_13">
     <g id="line2d_39">
      <defs>
       <path d="
M0 0
L2 0" id="m2f26ac1d8d"/>
      </defs>
      <g>
       <use style="stroke:#000000;stroke-linecap:butt;stroke-width:0.5;" x="55.50625" xlink:href="#m2f26ac1d8d" y="287.116400409"/>
      </g>
     </g>
    </g>
    <g id="ytick_14">
     <g id="line2d_40">
      <defs>
       <path d="
M0 0
L2 0" id="m2f26ac1d8d"/>
      </defs>
      <g>
       <use style="stroke:#000000;stroke-linecap:butt;stroke-width:0.5;" x="55.50625" xlink:href="#m2f26ac1d8d" y="256.142656488"/>
      </g>
     </g>
    </g>
    <g id="ytick_15">
     <g id="line2d_41">
      <defs>
       <path d="
M0 0
L2 0" id="m2f26ac1d8d"/>
      </defs>
      <g>
       <use style="stroke:#000000;stroke-linecap:butt;stroke-width:0.5;" x="55.50625" xlink:href="#m2f26ac1d8d" y="240.655784527"/>
      </g>
     </g>
    </g>
    <g id="ytick_16">
     <g id="line2d_42">
      <defs>
       <path d="
M0 0
L2 0" id="m2f26ac1d8d"/>
      </defs>
      <g>
       <use style="stroke:#000000;stroke-linecap:butt;stroke-width:0.5;" x="55.50625" xlink:href="#m2f26ac1d8d" y="225.168912566"/>
      </g>
     </g>
    </g>
    <g id="ytick_17">
     <g id="line2d_43">
      <defs>
       <path d="
M0 0
L2 0" id="m2f26ac1d8d"/>
      </defs>
      <g>
       <use style="stroke:#000000;stroke-linecap:butt;stroke-width:0.5;" x="55.50625" xlink:href="#m2f26ac1d8d" y="209.682040605"/>
      </g>
     </g>
    </g>
    <g id="ytick_18">
     <g id="line2d_44">
      <defs>
       <path d="
M0 0
L2 0" id="m2f26ac1d8d"/>
      </defs>
      <g>
       <use style="stroke:#000000;stroke-linecap:butt;stroke-width:0.5;" x="55.50625" xlink:href="#m2f26ac1d8d" y="178.708296684"/>
      </g>
     </g>
    </g>
    <g id="ytick_19">
     <g id="line2d_45">
      <defs>
       <path d="
M0 0
L2 0" id="m2f26ac1d8d"/>
      </defs>
      <g>
       <use style="stroke:#000000;stroke-linecap:butt;stroke-width:0.5;" x="55.50625" xlink:href="#m2f26ac1d8d" y="163.221424723"/>
      </g>
     </g>
    </g>
    <g id="ytick_20">
     <g id="line2d_46">
      <defs>
       <path d="
M0 0
L2 0" id="m2f26ac1d8d"/>
      </defs>
      <g>
       <use style="stroke:#000000;stroke-linecap:butt;stroke-width:0.5;" x="55.50625" xlink:href="#m2f26ac1d8d" y="147.734552762"/>
      </g>
     </g>
    </g>
    <g id="ytick_21">
     <g id="line2d_47">
      <defs>
       <path d="
M0 0
L2 0" id="m2f26ac1d8d"/>
      </defs>
      <g>
       <use style="stroke:#000000;stroke-linecap:butt;stroke-width:0.5;" x="55.50625" xlink:href="#m2f26ac1d8d" y="132.247680802"/>
      </g>
     </g>
    </g>
    <g id="ytick_22">
     <g id="line2d_48">
      <defs>
       <path d="
M0 0
L2 0" id="m2f26ac1d8d"/>
      </defs>
      <g>
       <use style="stroke:#000000;stroke-linecap:butt;stroke-width:0.5;" x="55.50625" xlink:href="#m2f26ac1d8d" y="101.27393688"/>
      </g>
     </g>
    </g>
    <g id="ytick_23">
     <g id="line2d_49">
      <defs>
       <path d="
M0 0
L2 0" id="m2f26ac1d8d"/>
      </defs>
      <g>
       <use style="stroke:#000000;stroke-linecap:butt;stroke-width:0.5;" x="55.50625" xlink:href="#m2f26ac1d8d" y="85.7870649194"/>
      </g>
     </g>
    </g>
    <g id="ytick_24">
     <g id="line2d_50">
      <defs>
       <path d="
M0 0
L2 0" id="m2f26ac1d8d"/>
      </defs>
      <g>
       <use style="stroke:#000000;stroke-linecap:butt;stroke-width:0.5;" x="55.50625" xlink:href="#m2f26ac1d8d" y="70.3001929586"/>
      </g>
     </g>
    </g>
    <g id="ytick_25">
     <g id="line2d_51">
      <defs>
       <path d="
M0 0
L2 0" id="m2f26ac1d8d"/>
      </defs>
      <g>
       <use style="stroke:#000000;stroke-linecap:butt;stroke-width:0.5;" x="55.50625" xlink:href="#m2f26ac1d8d" y="54.8133209979"/>
      </g>
     </g>
    </g>
    <g id="ytick_26">
     <g id="line2d_52">
      <defs>
       <path d="
M0 0
L2 0" id="m2f26ac1d8d"/>
      </defs>
      <g>
       <use style="stroke:#000000;stroke-linecap:butt;stroke-width:0.5;" x="55.50625" xlink:href="#m2f26ac1d8d" y="23.8395770763"/>
      </g>
     </g>
    </g>
   </g>
   <g id="patch_3">
    <path d="
M65.5062 39.3264
L557.486 39.3264" style="fill:none;stroke:#000000;stroke-width:0.8;"/>
   </g>
   <g id="patch_4">
    <path d="
M55.5062 413.28
L55.5062 7.2" style="fill:none;stroke:#000000;stroke-width:0.8;"/>
   </g>
  </g>
 </g>
 <defs>
  <clipPath id="p57bd0e75d4">
   <rect height="406.08" width="491.98" x="65.50625" y="7.2"/>
  </clipPath>
 </defs>
</svg>
