<?xml version="1.0" encoding="utf-8" standalone="no"?>
<!DOCTYPE svg PUBLIC "-//W3C//DTD SVG 1.1//EN"
  "http://www.w3.org/Graphics/SVG/1.1/DTD/svg11.dtd">
<!-- Created with matplotlib (http://matplotlib.sourceforge.net/) -->
<svg height="419pt" version="1.1" viewBox="0 0 564 419" width="564pt" xmlns="http://www.w3.org/2000/svg" xmlns:xlink="http://www.w3.org/1999/xlink">
 <defs>
  <style type="text/css">
*{stroke-linecap:square;stroke-linejoin:round;}
  </style>
 </defs>
 <g id="figure_1">
  <g id="patch_1">
   <path d="
M-4.44089e-16 419.853
L564.499 419.853
L564.499 0
L-4.44089e-16 0
z
" style="fill:#ffffff;"/>
  </g>
  <g id="axes_1">
   <g id="patch_2">
    <path d="
M64.7562 408.635
L557.299 408.635
L557.299 7.2
L64.7562 7.2
z
" style="fill:#ffffff;"/>
   </g>
   <g id="line2d_1">
    <path clip-path="url(#p5f8fa994bd)" d="
M74.2282 33.5949
L85.0604 33.5949
L85.0604 33.5949
L85.0604 33.5949
L98.7073 33.5949
L98.7073 33.5949
L98.7073 33.5949
L107.696 33.5949
L107.696 14.9199
L119.771 14.9199
L119.771 18.44
L124.234 18.44
L124.234 26.3423
L131.401 26.3423
L131.401 27.029
L134.372 27.029
L134.372 31.0863
L139.477 31.0863
L139.477 31.2391
L145.669 31.2391
L145.669 37.9185
L147.451 37.9185
L147.451 41.4044
L152.178 41.4044
L152.178 45.4107
L154.92 45.4107
L154.92 49.8853
L156.193 49.8853
L156.193 52.9217
L158.569 52.9217
L158.569 56.3564
L161.779 56.3564
L161.779 58.1463
L164.644 58.1463
L164.644 61.6896
L165.534 61.6896
L165.534 63.3649
L168.041 63.3649
L168.041 69.5693
L169.59 69.5693
L169.59 74.2114
L170.332 74.2114
L170.332 76.8462
L172.442 76.8462
L172.442 85.3695
L173.762 85.3695
L173.762 91.253
L175.626 91.253
L175.626 100.306
L177.926 100.306
L177.926 112.142
L179.005 112.142
L179.005 118.037
L179.529 118.037
L179.529 120.547
L180.547 120.547
L180.547 124.771
L181.042 124.771
L181.042 127.043
L182.005 127.043
L182.005 131.879
L185.125 131.879
L185.125 148.232
L185.953 148.232
L185.953 152.74
L187.15 152.74
L187.15 159.635
L187.537 159.635
L187.537 161.635
L189.393 161.635
L189.393 170.071
L189.749 170.071
L189.749 171.8
L190.79 171.8
L190.79 177.216
L191.792 177.216
L191.792 182.717
L192.44 182.717
L192.44 186.469
L193.383 186.469
L193.383 191.412
L194.294 191.412
L194.294 195.682
L194.591 195.682
L194.591 196.927
L196.027 196.927
L196.027 203.384
L196.305 203.384
L196.305 204.715
L196.854 204.715
L196.854 207.089
L197.123 207.089
L197.123 208.137
L198.688 208.137
L198.688 213.452
L200.165 213.452
L200.165 218.801
L200.64 218.801
L200.64 220.646
L200.875 220.646
L200.875 221.461
L201.337 221.461
L201.337 223.221
L202.017 223.221
L202.017 226.006
L202.239 226.006
L202.239 226.986
L203.325 226.986
L203.325 232.062
L203.956 232.062
L203.956 235.157
L204.573 235.157
L204.573 237.916
L205.176 237.916
L205.176 240.36
L205.373 240.36
L205.373 241.087
L205.959 241.087
L205.959 243.015
L206.342 243.015
L206.342 244.132
L206.531 244.132
L206.531 244.617
L207.459 244.617
L207.459 247.252
L208.706 247.252
L208.706 250.277
L209.051 250.277
L209.051 250.986
L209.223 250.986
L209.223 251.387
L209.562 251.387
L209.562 252.071
L210.717 252.071
L210.717 253.984
L211.196 253.984
L211.196 254.611
L211.978 254.611
L211.978 255.373
L212.131 255.373
L212.131 255.566
L212.436 255.566
L212.436 255.854
L212.886 255.854
L212.886 256.406
L213.475 256.406
L213.475 256.941
L213.908 256.941
L213.908 257.202
L214.334 257.202
L214.334 257.574
L214.615 257.574
L214.615 257.735
L215.03 257.735
L215.03 257.852
L215.574 257.852
L215.574 258.152
L215.842 258.152
L215.842 258.37
L216.369 258.37
L216.369 258.937
L217.015 258.937
L217.015 259.438
L217.769 259.5
L217.769 259.634
L218.26 259.627
L218.26 259.505
L218.862 259.488
L218.862 259.367
L220.59 259.279
L220.59 259.213
L221.033 259.213
L221.033 259.055
L221.251 259.055
L221.251 258.921
L221.683 258.921
L221.683 258.765
L221.896 258.765
L221.896 258.634
L222.213 258.634
L222.213 258.362
L222.836 258.362
L222.938 257.941
L223.842 257.941
L223.842 257.818
L224.621 257.845
L224.621 258
L226.022 257.893
L226.022 257.71
L226.294 257.71
L226.294 257.539
L226.563 257.539
L226.652 257.212
L226.917 257.212
L226.917 256.985
L227.18 256.985
L227.18 256.701
L227.354 256.701
L227.44 256.498
L227.953 256.498
L227.953 256.288
L228.373 256.288
L228.456 255.952
L228.869 255.848
L228.869 255.638
L229.113 255.638
L229.194 255.415
L229.675 255.415
L229.675 254.905
L229.833 254.905
L229.833 254.772
L230.069 254.772
L230.069 254.623
L230.38 254.623
L230.38 254.492
L232.604 254.384
L232.604 254.259
L232.958 254.208
L232.958 254.146
L234.192 254.144
L234.192 254.258
L236.748 254.276
L236.748 254.397
L237.051 254.492
L237.051 254.592
L237.646 254.592
L237.646 255.189
L237.764 255.189
L237.764 255.327
L237.997 255.327
L237.997 255.641
L238.287 255.641
L238.287 256.079
L238.516 256.079
L238.516 256.465
L238.629 256.465
L238.629 256.634
L238.799 256.634
L238.799 256.856
L238.968 256.856
L238.968 257.044
L239.358 257.044
L239.468 257.487
L239.632 257.487
L239.632 257.637
L239.796 257.637
L239.796 257.814
L240.013 257.814
L240.013 258.008
L240.174 258.008
L240.174 258.18
L240.493 258.18
L240.599 258.685
L240.757 258.685
L240.809 258.931
L241.07 258.931
L241.121 259.315
L241.276 259.315
L241.276 259.5
L241.532 259.5
L241.583 259.801
L241.836 259.801
L241.886 259.992
L242.483 260.09
L242.581 260.513
L243.21 260.624
L243.21 260.71
L244.011 260.812
L244.058 261.154
L244.288 261.154
L244.288 261.364
L244.471 261.364
L244.471 261.558
L244.699 261.558
L244.699 261.834
L244.834 261.834
L244.834 261.976
L244.969 261.976
L244.969 262.138
L245.147 262.138
L245.147 262.38
L245.413 262.38
L245.501 262.924
L245.632 262.924
L245.632 263.161
L245.763 263.161
L245.806 263.453
L245.936 263.453
L245.936 263.665
L246.194 263.665
L246.194 264.123
L246.407 264.123
L246.407 264.532
L246.786 264.532
L246.828 265.272
L246.912 265.272
L246.912 265.416
L247.036 265.416
L247.078 265.734
L247.202 265.734
L247.284 266.131
L247.407 266.22
L247.407 266.409
L247.651 266.409
L247.691 267.113
L247.812 267.113
L247.812 267.408
L248.488 267.408
L248.488 269.137
L248.606 269.137
L248.606 269.452
L248.723 269.452
L248.723 269.782
L248.878 269.782
L248.878 270.241
L249.224 270.241
L249.224 271.204
L249.414 271.204
L249.414 271.702
L249.678 271.702
L249.753 272.543
L249.866 272.645
L249.866 272.859
L249.977 272.859
L249.977 273.162
L250.125 273.162
L250.236 273.801
L250.346 273.801
L250.346 274.065
L250.565 274.065
L250.565 274.618
L250.746 274.618
L250.854 275.295
L250.961 275.385
L251.068 275.84
L251.281 275.84
L251.281 276.397
L251.493 276.397
L251.493 276.976
L251.633 276.976
L251.633 277.377
L251.841 277.377
L251.945 278.208
L252.014 278.208
L252.117 278.607
L252.254 278.607
L252.322 279.05
L252.457 279.05
L252.525 279.543
L252.76 279.543
L252.827 280.348
L252.927 280.348
L253.027 280.866
L253.126 280.866
L253.159 281.233
L253.258 281.233
L253.258 281.529
L253.421 281.529
L253.421 282.042
L253.746 282.042
L253.842 283.279
L253.906 283.279
L253.938 283.532
L254.32 283.532
L254.414 284.777
L254.571 284.777
L254.571 285.168
L254.758 285.168
L254.789 285.733
L254.944 285.733
L254.944 286.094
L255.067 286.094
L255.159 286.576
L255.25 286.576
L255.342 287.009
L255.614 287.009
L255.704 287.8
L255.763 287.8
L255.793 288.019
L255.972 288.019
L255.972 288.446
L256.12 288.446
L256.12 288.778
L256.296 288.778
L256.296 289.15
L256.413 289.15
L256.413 289.41
L256.646 289.41
L256.646 289.894
L256.847 289.894
L256.933 290.441
L257.019 290.536
L257.105 290.726
L257.246 290.726
L257.246 290.961
L257.416 290.961
L257.5 291.357
L257.584 291.357
L257.584 291.505
L257.834 291.505
L257.862 292.031
L258.082 292.031
L258.109 292.496
L258.409 292.496
L258.49 293.209
L258.598 293.209
L258.678 293.609
L258.758 293.72
L258.812 293.889
L258.918 293.889
L258.998 294.258
L259.13 294.258
L259.156 294.565
L259.288 294.565
L259.288 294.816
L259.471 294.816
L259.471 295.141
L259.6 295.141
L259.678 295.543
L259.832 295.543
L259.935 296.093
L260.063 296.093
L260.063 296.361
L260.215 296.361
L260.24 296.709
L260.442 296.709
L260.542 297.248
L260.617 297.339
L260.617 297.382
L260.741 297.382
L260.84 297.723
L261.062 297.723
L261.062 298.07
L261.354 298.07
L261.403 298.553
L261.572 298.639
L261.572 298.741
L261.764 298.741
L261.835 299.003
L261.93 299.003
L261.93 299.125
L262.12 299.125
L262.19 299.473
L262.354 299.57
L262.424 299.69
L262.61 299.721
L262.633 299.852
L262.886 299.852
L262.978 300.135
L263.16 300.231
L263.16 300.291
L263.318 300.291
L263.385 300.522
L263.52 300.591
L263.565 300.696
L263.765 300.746
L263.831 300.926
L264.051 300.982
L264.161 301.157
L264.378 301.237
L264.486 301.318
L264.957 301.425
L265.062 301.516
L265.335 301.614
L265.335 301.658
L265.564 301.658
L265.564 301.84
L265.873 301.941
L265.955 302.099
L266.36 302.193
L266.421 302.258
L266.621 302.356
L266.72 302.468
L266.858 302.519
L266.918 302.656
L267.075 302.719
L267.094 302.858
L267.192 302.858
L267.27 303.054
L267.444 303.091
L267.54 303.343
L267.656 303.343
L267.732 303.583
L267.941 303.646
L267.941 303.818
L268.074 303.818
L268.168 304.053
L268.299 304.121
L268.337 304.199
L268.504 304.199
L268.578 304.434
L268.726 304.525
L268.781 304.64
L268.946 304.705
L269.055 304.85
L269.272 304.946
L269.344 305.048
L269.595 305.048
L269.702 305.356
L269.931 305.439
L270.037 305.612
L270.194 305.699
L270.298 305.835
L270.557 305.903
L270.66 306.144
L271.017 306.255
L271.068 306.506
L271.169 306.506
L271.253 306.721
L271.403 306.83
L271.503 307.012
L271.751 307.097
L271.816 307.423
L271.914 307.423
L271.914 307.555
L272.142 307.555
L272.207 307.965
L272.304 308.029
L272.4 308.249
L272.496 308.249
L272.528 308.452
L272.624 308.452
L272.719 308.774
L272.861 308.801
L272.877 309.055
L273.003 309.055
L273.05 309.399
L273.206 309.399
L273.206 309.703
L273.33 309.703
L273.438 310.183
L273.653 310.286
L273.715 310.842
L273.806 310.842
L273.852 311.189
L273.927 311.189
L274.033 311.649
L274.079 311.649
L274.169 312.013
L274.259 312.013
L274.348 312.49
L274.423 312.49
L274.527 312.931
L274.601 313.038
L274.704 313.384
L274.748 313.384
L274.792 313.624
L274.909 313.624
L275.011 314.176
L275.142 314.248
L275.214 314.65
L275.272 314.65
L275.344 314.95
L275.401 314.95
L275.487 315.296
L275.644 315.296
L275.7 315.798
L275.771 315.798
L275.87 316.198
L275.94 316.26
L275.94 316.358
L276.066 316.358
L276.15 316.808
L276.248 316.808
L276.359 317.239
L276.455 317.239
L276.538 317.58
L276.661 317.58
L276.77 318.025
L276.825 318.117
L276.933 318.373
L277.068 318.373
L277.068 318.651
L277.216 318.651
L277.31 319.131
L277.376 319.181
L277.469 319.446
L277.615 319.446
L277.668 319.856
L277.773 319.856
L277.812 320.125
L277.891 320.125
L277.943 320.363
L278.021 320.363
L278.125 320.687
L278.202 320.763
L278.292 321.037
L278.446 321.122
L278.446 321.359
L278.599 321.359
L278.701 321.889
L278.777 321.913
L278.865 322.207
L278.928 322.207
L278.978 322.44
L279.041 322.44
L279.116 322.705
L279.203 322.783
L279.203 322.883
L279.389 322.883
L279.463 323.374
L279.524 323.374
L279.61 323.651
L279.671 323.651
L279.781 324.011
L279.89 324.086
L279.975 324.388
L280.084 324.388
L280.18 324.769
L280.323 324.835
L280.395 325.162
L280.478 325.162
L280.572 325.481
L280.714 325.481
L280.796 325.821
L280.924 325.874
L281.006 326.144
L281.145 326.201
L281.249 326.534
L281.318 326.63
L281.387 326.758
L281.478 326.846
L281.547 327.006
L281.717 327.105
L281.785 327.356
L281.886 327.356
L281.931 327.581
L282.066 327.581
L282.166 327.91
L282.332 327.999
L282.332 328.065
L282.498 328.065
L282.586 328.309
L282.728 328.385
L282.815 328.584
L282.912 328.683
L283.02 328.839
L283.181 328.947
L283.267 329.117
L283.374 329.218
L283.458 329.317
L283.564 329.389
L283.659 329.545
L283.775 329.61
L283.879 329.837
L284.025 329.837
L284.129 330.163
L284.242 330.251
L284.345 330.441
L284.458 330.54
L284.488 330.591
L284.61 330.591
L284.712 330.79
L284.923 330.895
L284.973 330.973
L285.213 331.018
L285.302 331.146
L285.519 331.254
L285.548 331.269
L286.236 331.37
L286.236 331.39
L286.502 331.499
L286.606 331.549
L287.119 331.638
L287.221 331.701
L287.477 331.812
L287.587 331.865
L290.05 331.947
L290.149 332.047
L290.346 332.098
L290.453 332.291
L290.575 332.4
L290.664 332.536
L290.817 332.629
L290.914 332.812
L291.026 332.889
L291.106 333.032
L291.217 333.139
L291.32 333.269
L291.43 333.356
L291.477 333.474
L291.571 333.574
L291.626 333.673
L291.712 333.765
L291.79 333.901
L291.883 333.988
L291.921 334.084
L292.037 334.084
L292.129 334.384
L292.228 334.491
L292.312 334.642
L292.404 334.744
L292.502 334.898
L292.63 334.944
L292.728 335.186
L292.84 335.275
L292.944 335.439
L293.033 335.535
L293.129 335.67
L293.299 335.733
L293.394 335.917
L293.54 336.002
L293.612 336.132
L293.764 336.212
L293.843 336.333
L294.001 336.417
L294.108 336.555
L294.25 336.662
L294.356 336.772
L294.511 336.865
L294.609 337
L294.741 337.095
L294.845 337.226
L294.969 337.304
L294.99 337.357
L295.189 337.465
L295.271 337.59
L295.475 337.695
L295.583 337.823
L295.784 337.921
L295.864 338.087
L296.037 338.191
L296.142 338.324
L296.294 338.385
L296.398 338.537
L296.529 338.626
L296.607 338.726
L296.749 338.813
L296.845 338.952
L296.993 339.053
L297.076 339.146
L297.247 339.255
L297.323 339.324
L297.512 339.423
L297.562 339.467
L297.736 339.577
L297.829 339.657
L297.977 339.758
L298.088 339.834
L298.302 339.944
L298.411 340.013
L298.616 340.119
L298.724 340.25
L298.868 340.357
L298.975 340.454
L299.099 340.559
L299.152 340.623
L299.328 340.73
L299.428 340.853
L299.567 340.956
L299.66 341.04
L299.81 341.13
L299.896 341.231
L300.033 341.312
L300.124 341.488
L300.226 341.595
L300.322 341.722
L300.429 341.816
L300.53 341.991
L300.642 342.006
L300.742 342.254
L300.847 342.338
L300.947 342.495
L301.046 342.578
L301.144 342.735
L301.259 342.827
L301.368 342.966
L301.503 343.066
L301.611 343.178
L301.787 343.246
L301.873 343.406
L302.011 343.507
L302.122 343.652
L302.237 343.754
L302.326 343.864
L302.452 343.967
L302.561 344.071
L302.706 344.166
L302.814 344.301
L302.952 344.392
L303.039 344.548
L303.146 344.633
L303.242 344.817
L303.328 344.918
L303.423 345.061
L303.544 345.162
L303.648 345.365
L303.753 345.441
L303.822 345.596
L303.916 345.695
L303.99 345.807
L304.161 345.916
L304.264 346.087
L304.38 346.153
L304.487 346.34
L304.588 346.408
L304.698 346.616
L304.827 346.724
L304.932 346.893
L305.031 346.982
L305.102 347.117
L305.196 347.192
L305.295 347.358
L305.426 347.458
L305.509 347.597
L305.616 347.66
L305.727 347.854
L305.81 347.927
L305.92 348.13
L306.002 348.205
L306.061 348.371
L306.138 348.371
L306.238 348.684
L306.333 348.751
L306.436 349.011
L306.508 349.121
L306.61 349.314
L306.722 349.415
L306.801 349.68
L306.863 349.784
L306.969 350.027
L307.074 350.09
L307.171 350.421
L307.232 350.512
L307.301 350.662
L307.362 350.752
L307.47 350.974
L307.535 351.06
L307.638 351.275
L307.702 351.364
L307.813 351.587
L307.894 351.693
L307.983 351.875
L308.055 351.973
L308.16 352.162
L308.236 352.22
L308.345 352.441
L308.424 352.547
L308.474 352.647
L308.549 352.647
L308.656 352.923
L308.743 353.028
L308.854 353.207
L308.968 353.291
L309.078 353.541
L309.22 353.649
L309.321 353.847
L309.413 353.952
L309.522 354.101
L309.609 354.184
L309.713 354.336
L309.832 354.447
L309.938 354.592
L310.048 354.696
L310.154 354.809
L310.278 354.886
L310.387 355.021
L310.526 355.129
L310.629 355.222
L310.775 355.324
L310.866 355.42
L311.04 355.53
L311.15 355.614
L311.311 355.715
L311.412 355.798
L311.601 355.909
L311.701 355.971
L311.862 356.043
L311.95 356.16
L312.085 356.258
L312.19 356.379
L312.334 356.487
L312.417 356.568
L312.546 356.665
L312.656 356.789
L312.78 356.89
L312.886 357.014
L313.002 357.121
L313.111 357.258
L313.233 357.368
L313.326 357.497
L313.43 357.608
L313.523 357.727
L313.616 357.815
L313.722 357.96
L313.865 358.033
L313.974 358.232
L314.089 358.286
L314.196 358.452
L314.327 358.562
L314.437 358.688
L314.556 358.791
L314.645 358.895
L314.823 359.002
L314.924 359.128
L315.061 359.226
L315.136 359.289
L315.362 359.4
L315.467 359.437
L315.789 359.541
L315.886 359.592
L316.09 359.689
L316.193 359.775
L316.345 359.865
L316.454 359.972
L316.613 360.078
L316.714 360.158
L316.867 360.258
L316.976 360.357
L317.115 360.461
L317.214 360.569
L317.336 360.675
L317.443 360.769
L317.586 360.874
L317.692 360.999
L317.792 361.106
L317.897 361.255
L317.99 361.352
L318.098 361.519
L318.193 361.62
L318.28 361.773
L318.372 361.863
L318.478 362.075
L318.572 362.184
L318.638 362.289
L318.731 362.387
L318.841 362.531
L318.96 362.633
L319.038 362.749
L319.136 362.844
L319.239 363
L319.319 363.087
L319.38 363.214
L319.46 363.319
L319.57 363.482
L319.666 363.585
L319.759 363.703
L319.881 363.811
L319.987 363.909
L320.138 364.008
L320.237 364.104
L320.381 364.206
L320.485 364.31
L320.617 364.417
L320.728 364.534
L320.869 364.642
L320.973 364.729
L321.158 364.828
L321.269 364.923
L321.489 365.031
L321.591 365.072
L321.877 365.181
L321.985 365.245
L322.24 365.352
L322.344 365.423
L322.482 365.529
L322.592 365.629
L322.756 365.734
L322.865 365.811
L323.109 365.92
L323.203 365.984
L323.645 366.094
L323.75 366.114
L324.135 366.221
L324.239 366.282
L324.432 366.388
L324.534 366.453
L324.779 366.561
L324.89 366.668
L325.038 366.778
L325.136 366.871
L325.258 366.978
L325.358 367.085
L325.508 367.193
L325.613 367.333
L325.718 367.435
L325.829 367.562
L325.961 367.654
L326.056 367.749
L326.187 367.848
L326.287 367.963
L326.404 368.055
L326.51 368.172
L326.637 368.279
L326.746 368.39
L326.903 368.501
L327.003 368.605
L327.132 368.696
L327.237 368.81
L327.381 368.915
L327.489 369.029
L327.623 369.138
L327.727 369.244
L327.844 369.333
L327.952 369.446
L328.082 369.549
L328.186 369.669
L328.315 369.766
L328.411 369.871
L328.541 369.98
L328.635 370.061
L328.774 370.171
L328.874 370.274
L329.019 370.38
L329.129 370.538
L329.23 370.645
L329.341 370.775
L329.466 370.883
L329.569 370.982
L329.714 371.083
L329.822 371.17
L329.982 371.28
L330.09 371.377
L330.243 371.485
L330.353 371.585
L330.491 371.693
L330.6 371.778
L330.73 371.869
L330.835 371.98
L330.986 372.091
L331.082 372.171
L331.262 372.279
L331.359 372.352
L331.515 372.461
L331.612 372.565
L331.732 372.67
L331.836 372.771
L331.94 372.879
L332.049 373.007
L332.157 373.117
L332.258 373.23
L332.396 373.316
L332.492 373.477
L332.609 373.576
L332.716 373.709
L332.82 373.82
L332.925 373.944
L333.02 374.054
L333.126 374.212
L333.208 374.314
L333.317 374.476
L333.41 374.566
L333.505 374.742
L333.591 374.841
L333.695 375.022
L333.785 375.116
L333.896 375.302
L333.979 375.404
L334.09 375.578
L334.164 375.688
L334.271 375.837
L334.361 375.944
L334.46 376.077
L334.559 376.14
L334.667 376.337
L334.76 376.445
L334.867 376.583
L334.967 376.689
L335.069 376.833
L335.17 376.941
L335.277 377.091
L335.39 377.197
L335.494 377.336
L335.609 377.435
L335.704 377.566
L335.805 377.676
L335.914 377.82
L336.002 377.93
L336.109 378.078
L336.194 378.184
L336.276 378.297
L336.375 378.4
L336.483 378.545
L336.583 378.649
L336.683 378.771
L336.784 378.866
L336.882 378.991
L336.994 379.096
L337.101 379.207
L337.255 379.315
L337.361 379.417
L337.513 379.527
L337.617 379.63
L337.746 379.731
L337.854 379.836
L337.984 379.946
L338.082 380.026
L338.219 380.131
L338.328 380.228
L338.467 380.322
L338.575 380.431
L338.738 380.54
L338.846 380.647
L338.988 380.758
L339.092 380.841
L339.263 380.933
L339.368 381.028
L339.537 381.124
L339.646 381.227
L339.782 381.333
L339.89 381.433
L340.013 381.543
L340.122 381.633
L340.271 381.737
L340.382 381.835
L340.512 381.938
L340.61 382.053
L340.738 382.158
L340.846 382.263
L340.978 382.358
L341.071 382.488
L341.2 382.59
L341.31 382.704
L341.429 382.813
L341.528 382.919
L341.642 383.017
L341.746 383.131
L341.857 383.241
L341.958 383.342
L342.089 383.448
L342.195 383.574
L342.323 383.681
L342.434 383.798
L342.566 383.902
L342.675 384.013
L342.792 384.119
L342.895 384.253
L343.002 384.347
L343.111 384.498
L343.22 384.6
L343.328 384.742
L343.431 384.852
L343.531 384.998
L343.621 385.097
L343.725 385.256
L343.808 385.355
L343.917 385.511
L344.003 385.622
L344.109 385.766
L344.211 385.875
L344.322 386.01
L344.423 386.106
L344.529 386.24
L344.635 386.351
L344.742 386.476
L344.844 386.58
L344.947 386.702
L345.052 386.808
L345.158 386.939
L345.254 387.043
L345.364 387.197
L345.442 387.293
L345.548 387.468
L345.611 387.571
L345.719 387.768
L345.798 387.868
L345.907 388.034
L345.998 388.125
L346.109 388.304
L346.187 388.413
L346.297 388.569
L346.387 388.673
L346.486 388.797
L346.597 388.903
L346.702 389.035
L346.797 389.141
L346.904 389.267
L347.004 389.378
L347.108 389.492
L347.204 389.601
L347.312 389.725
L347.415 389.834
L347.525 389.95
L347.645 390.059
L347.755 390.149
L347.893 390.259
L348.004 390.339
L348.162 390.449
L348.265 390.515
L348.532 390.625
L348.642 390.658
L348.937 390.767
L349.048 390.839
L349.263 390.949
L349.371 390.973
L350.17 391.083
L350.28 391.101
L350.952 391.208
L351.059 391.243
L351.246 391.353
L351.351 391.419
L351.541 391.528
L351.648 391.584
L351.919 391.693
L352.027 391.765
L352.238 391.874
L352.345 391.945
L352.552 392.053
L352.66 392.102
L352.892 392.212
L353.003 392.26
L353.398 392.37
L353.502 392.399
L353.83 392.508
L353.94 392.556
L354.221 392.667
L354.331 392.713
L354.663 392.822
L354.773 392.87
L355.017 392.981
L355.124 393.032
L355.351 393.141
L355.459 393.203
L355.688 393.312
L355.795 393.37
L355.979 393.478
L356.087 393.547
L356.367 393.656
L356.477 393.724
L356.666 393.834
L356.771 393.892
L356.982 394.003
L357.09 394.06
L357.255 394.166
L357.359 394.244
L357.525 394.355
L357.632 394.421
L357.837 394.533
L357.943 394.593
L358.173 394.703
L358.277 394.743
L359.057 394.854
L359.166 394.882
L359.996 394.993
L360.107 395.011
L361.848 395.121
L361.956 395.149
L362.43 395.26
L362.541 395.276
L363.872 395.387
L363.983 395.418
L364.513 395.529
L364.623 395.568
L364.995 395.678
L365.105 395.73
L365.306 395.841
L365.414 395.921
L365.577 396.032
L365.683 396.099
L365.908 396.21
L366.017 396.263
L366.238 396.373
L366.347 396.412
L366.717 396.522
L366.823 396.56
L367.316 396.67
L367.42 396.724
L367.63 396.835
L367.738 396.878
L368.027 396.989
L368.137 397.028
L368.584 397.139
L368.695 397.184
L368.926 397.294
L369.034 397.358
L369.225 397.469
L369.335 397.516
L369.591 397.626
L369.702 397.668
L370.047 397.779
L370.158 397.831
L370.672 397.942
L370.783 397.956
L371.657 398.065
L371.765 398.097
L372.041 398.206
L372.151 398.243
L372.638 398.353
L372.745 398.384
L373.176 398.495
L373.286 398.533
L373.779 398.643
L373.888 398.673
L374.266 398.783
L374.376 398.804
L375.555 398.915
L375.665 398.943
L376.839 398.833
L376.949 398.787
L377.154 398.676
L377.264 398.606
L377.457 398.495
L377.567 398.439
L377.847 398.328
L377.958 398.273
L378.217 398.163
L378.328 398.14
L378.715 398.03
L378.826 397.995
L379.139 397.884
L379.249 397.866
L380.481 397.755
L380.579 397.747
L380.591 397.747
L381.693 397.858
L381.804 397.917
L382.078 398.028
L382.188 398.072
L382.488 398.183
L382.597 398.23
L383.068 398.341
L383.175 398.352
L383.86 398.461
L383.97 398.502
L386.834 398.391
L386.945 398.359
L388.265 398.47
L388.375 398.501
L388.935 398.611
L389.046 398.644
L389.487 398.755
L389.598 398.804
L389.83 398.914
L389.941 398.961
L390.191 399.071
L390.302 399.117
L390.508 399.227
L390.618 399.287
L390.836 399.398
L390.947 399.451
L391.458 399.562
L391.569 399.605
L391.894 399.716
L392.004 399.767
L392.217 399.878
L392.328 399.936
L392.549 400.046
L392.66 400.11
L392.877 400.221
L392.987 400.265
L393.248 400.376
L393.359 400.423
L393.608 400.534
L393.717 400.588
L394.029 400.699
L394.139 400.744
L394.637 400.855
L394.747 400.883
L395.531 400.772
L395.642 400.726
L395.879 400.615
L395.987 400.555
L396.18 400.444
L396.291 400.371
L396.451 400.26
L396.562 400.177
L396.703 400.066
L396.813 399.983
L396.994 399.872
L397.105 399.801
L397.267 399.69
L397.377 399.611
L397.516 399.502
L397.627 399.416
L397.766 399.305
L397.877 399.207
L397.991 399.097
L398.102 398.98
L398.212 398.869
L398.323 398.749
L398.429 398.638
L398.54 398.525
L398.649 398.414
L398.761 398.308
L398.887 398.197
L398.998 398.099
L399.118 397.989
L399.229 397.891
L399.375 397.78
L399.486 397.684
L399.623 397.573
L399.734 397.463
L399.842 397.353
L399.952 397.229
L400.05 397.12
L400.161 396.993
L400.253 396.884
L400.364 396.75
L400.468 396.639
L400.578 396.517
L400.673 396.407
L400.784 396.281
L400.894 396.17
L401.005 396.06
L401.124 395.95
L401.235 395.84
L401.339 395.729
L401.449 395.608
L401.558 395.497
L401.669 395.379
L401.776 395.269
L401.887 395.158
L401.993 395.047
L402.102 394.921
L402.205 394.81
L402.316 394.688
L402.411 394.577
L402.522 394.433
L402.612 394.322
L402.722 394.187
L402.812 394.078
L402.923 393.955
L403.033 393.844
L403.143 393.745
L403.269 393.635
L403.38 393.538
L403.499 393.427
L403.607 393.322
L403.711 393.211
L403.822 393.089
L403.921 392.979
L404.031 392.846
L404.12 392.736
L404.231 392.592
L404.318 392.482
L404.429 392.342
L404.527 392.233
L404.637 392.126
L404.757 392.015
L404.867 391.935
L405.029 391.825
L405.138 391.74
L405.28 391.629
L405.391 391.537
L405.521 391.427
L405.632 391.335
L405.765 391.224
L405.876 391.117
L405.979 391.006
L406.09 390.883
L406.187 390.772
L406.298 390.642
L406.393 390.531
L406.504 390.407
L406.625 390.296
L406.735 390.201
L406.866 390.091
L406.976 389.999
L407.101 389.888
L407.211 389.798
L407.339 389.687
L407.449 389.584
L407.558 389.475
L407.669 389.353
L407.764 389.242
L407.875 389.109
L407.979 388.998
L408.089 388.884
L408.194 388.773
L408.304 388.643
L408.4 388.532
L408.511 388.422
L408.625 388.311
L408.736 388.215
L408.883 388.105
L408.994 388.002
L409.113 387.894
L409.224 387.782
L409.324 387.672
L409.435 387.551
L409.539 387.441
L409.649 387.301
L409.732 387.192
L409.843 387.041
L409.932 386.93
L410.043 386.794
L410.129 386.683
L410.24 386.529
L410.315 386.418
L410.426 386.247
L410.497 386.138
L410.608 385.958
L410.678 385.847
L410.789 385.669
L410.855 385.558
L410.966 385.364
L411.028 385.253
L411.139 385.056
L411.204 384.947
L411.315 384.739
L411.374 384.629
L411.485 384.419
L411.546 384.309
L411.657 384.108
L411.722 383.999
L411.833 383.813
L411.904 383.702
L412.014 383.539
L412.099 383.429
L412.21 383.29
L412.298 383.181
L412.408 383.03
L412.488 382.922
L412.598 382.766
L412.674 382.655
L412.785 382.482
L412.857 382.372
L412.968 382.184
L413.031 382.074
L413.142 381.879
L413.207 381.769
L413.318 381.591
L413.395 381.48
L413.506 381.317
L413.583 381.207
L413.694 381.05
L413.772 380.94
L413.883 380.774
L413.961 380.663
L414.071 380.504
L414.153 380.393
L414.263 380.224
L414.332 380.114
L414.442 379.927
L414.509 379.817
L414.62 379.628
L414.684 379.517
L414.795 379.313
L414.858 379.202
L414.968 379.014
L415.04 378.904
L415.151 378.732
L415.228 378.621
L415.338 378.45
L415.414 378.34
L415.525 378.186
L415.607 378.075
L415.718 377.916
L415.794 377.806
L415.905 377.626
L415.975 377.515
L416.086 377.328
L416.149 377.218
L416.26 377.023
L416.324 376.912
L416.435 376.721
L416.5 376.611
L416.611 376.423
L416.684 376.312
L416.795 376.152
L416.872 376.042
L416.983 375.876
L417.053 375.765
L417.164 375.586
L417.232 375.476
L417.342 375.29
L417.408 375.179
L417.518 374.991
L417.585 374.88
L417.696 374.703
L417.769 374.593
L417.88 374.423
L417.954 374.312
L418.065 374.152
L418.15 374.042
L418.261 373.903
L418.346 373.792
L418.457 373.647
L418.534 373.536
L418.644 373.376
L418.714 373.266
L418.825 373.063
L418.885 372.954
L418.995 372.752
L419.058 372.641
L419.169 372.444
L419.233 372.333
L419.344 372.149
L419.419 372.039
L419.53 371.873
L419.608 371.762
L419.719 371.609
L419.802 371.499
L419.913 371.365
L420.011 371.254
L420.122 371.133
L420.218 371.022
L420.33 370.893
L420.424 370.783
L420.535 370.648
L420.628 370.537
L420.739 370.413
L420.836 370.302
L420.947 370.182
L421.055 370.071
L421.165 369.962
L421.286 369.851
L421.396 369.754
L421.53 369.643
L421.641 369.555
L421.761 369.444
L421.872 369.341
L422.007 369.231
L422.118 369.14
L422.24 369.029
L422.351 368.93
L422.495 368.819
L422.606 368.729
L422.743 368.618
L422.854 368.512
L422.961 368.401
L423.072 368.279
L423.176 368.168
L423.287 368.042
L423.394 367.931
L423.504 367.829
L423.64 367.718
L423.751 367.642
L423.901 367.532
L424.012 367.446
L424.156 367.335
L424.267 367.251
L424.407 367.14
L424.518 367.047
L424.652 366.936
L424.763 366.846
L424.918 366.735
L425.029 366.662
L425.179 366.551
L425.29 366.468
L425.427 366.357
L425.538 366.273
L425.711 366.162
L425.822 366.092
L426.004 365.981
L426.114 365.916
L426.315 365.805
L426.426 365.75
L426.649 365.639
L426.761 365.57
L426.912 365.459
L427.023 365.362
L427.167 365.251
L427.278 365.159
L427.412 365.048
L427.523 364.95
L427.654 364.839
L427.765 364.761
L427.92 364.65
L428.031 364.565
L428.165 364.454
L428.275 364.349
L428.401 364.238
L428.511 364.146
L428.646 364.035
L428.756 363.93
L428.889 363.819
L428.999 363.722
L429.124 363.611
L429.234 363.506
L429.344 363.395
L429.455 363.287
L429.573 363.176
L429.684 363.068
L429.798 362.957
L429.909 362.849
L430.046 362.738
L430.157 362.652
L430.316 362.541
L430.427 362.463
L430.563 362.353
L430.674 362.271
L430.806 362.16
L430.917 362.066
L431.077 361.955
L431.188 361.898
L431.416 361.787
L431.527 361.75
L431.835 361.639
L431.945 361.595
L432.308 361.484
L432.419 361.447
L432.673 361.336
L432.784 361.278
L433.007 361.167
L433.118 361.099
L433.278 360.988
L433.389 360.917
L433.564 360.806
L433.675 360.733
L433.841 360.623
L433.952 360.554
L434.131 360.443
L434.242 360.364
L434.39 360.253
L434.501 360.175
L434.651 360.064
L434.763 359.985
L434.909 359.874
L435.02 359.802
L435.214 359.691
L435.325 359.636
L435.538 359.526
L435.649 359.484
L435.913 359.373
L436.024 359.32
L436.27 359.209
L436.38 359.17
L436.924 359.059
L437.035 359.031
L437.449 358.92
L437.56 358.893
L438.366 358.782
L438.477 358.769
L441.545 358.88
L441.656 358.918
L442.416 359.029
L442.527 359.058
L444.83 358.947
L444.94 358.919
L446.602 358.808
L446.713 358.787
L447.194 358.676
L447.305 358.636
L447.663 358.524
L447.774 358.482
L448.07 358.371
L448.181 358.304
L448.376 358.193
L448.487 358.143
L448.77 358.032
L448.881 357.991
L449.105 357.88
L449.216 357.839
L449.5 357.728
L449.611 357.682
L449.851 357.571
L449.962 357.51
L450.2 357.399
L450.311 357.355
L450.594 357.244
L450.706 357.198
L451.042 357.086
L451.153 357.059
L451.592 356.948
L451.704 356.903
L452.023 356.792
L452.134 356.762
L452.725 356.651
L452.836 356.635
L453.818 356.524
L453.929 356.503
L454.79 356.392
L454.901 356.357
L455.261 356.246
L455.372 356.197
L455.769 356.086
L455.88 356.062
L456.311 355.951
L456.422 355.917
L456.726 355.806
L456.837 355.757
L457.035 355.646
L457.146 355.588
L457.324 355.477
L457.435 355.395
L457.578 355.284
L457.689 355.194
L457.811 355.083
L457.922 354.969
L458.026 354.858
L458.137 354.743
L458.241 354.632
L458.352 354.517
L458.479 354.406
L458.59 354.31
L458.745 354.199
L458.856 354.112
L458.989 354.001
L459.101 353.916
L459.27 353.805
L459.381 353.719
L459.504 353.608
L459.615 353.501
L459.741 353.39
L459.852 353.307
L459.985 353.196
L460.096 353.084
L460.209 352.973
L460.32 352.868
L460.447 352.757
L460.558 352.665
L460.679 352.554
L460.79 352.444
L460.902 352.333
L461.013 352.233
L461.145 352.122
L461.256 352.041
L461.399 351.93
L461.51 351.832
L461.66 351.721
L461.771 351.645
L461.945 351.534
L462.056 351.466
L462.227 351.355
L462.338 351.289
L462.527 351.177
L462.638 351.112
L462.815 351.001
L462.925 350.931
L463.149 350.82
L463.26 350.765
L463.475 350.654
L463.586 350.61
L463.905 350.499
L464.016 350.449
L464.278 350.338
L464.389 350.313
L464.962 350.202
L465.074 350.186
L466.355 350.075
L466.466 350.04
L466.917 349.928
L467.028 349.916
L468.102 349.805
L468.213 349.787
L469.934 349.676
L470.046 349.637
L470.541 349.525
L470.652 349.515
L471.29 349.626
L471.401 349.648
L471.798 349.759
L471.909 349.808
L472.179 349.919
L472.29 349.982
L472.498 350.093
L472.609 350.145
L472.886 350.256
L472.997 350.297
L473.59 350.186
L473.701 350.112
L473.873 350
L473.984 349.94
L474.17 349.829
L474.281 349.774
L474.552 349.662
L474.663 349.612
L474.894 349.501
L475.005 349.438
L475.149 349.327
L475.26 349.232
L475.399 349.121
L475.511 349.029
L475.657 348.918
L475.768 348.84
L475.953 348.729
L476.064 348.669
L476.267 348.558
L476.378 348.489
L476.522 348.378
L476.634 348.278
L476.751 348.167
L476.862 348.068
L476.986 347.957
L477.097 347.836
L477.189 347.724
L477.3 347.59
L477.392 347.479
L477.503 347.346
L477.593 347.235
L477.704 347.102
L477.8 346.991
L477.911 346.863
L478.003 346.752
L478.114 346.619
L478.209 346.508
L478.32 346.385
L478.415 346.274
L478.526 346.138
L478.616 346.027
L478.727 345.888
L478.819 345.777
L478.93 345.644
L479.016 345.533
L479.127 345.394
L479.215 345.283
L479.326 345.141
L479.415 345.03
L479.526 344.886
L479.609 344.775
L479.72 344.623
L479.8 344.512
L479.911 344.35
L479.991 344.239
L480.102 344.084
L480.188 343.973
L480.299 343.836
L480.388 343.725
L480.499 343.594
L480.603 343.483
L480.714 343.388
L480.849 343.277
L480.96 343.185
L481.103 343.074
L481.214 342.985
L481.342 342.874
L481.453 342.78
L481.593 342.669
L481.704 342.567
L481.833 342.456
L481.944 342.357
L482.087 342.246
L482.198 342.166
L482.361 342.055
L482.472 341.973
L482.591 341.862
L482.702 341.751
L482.818 341.64
L482.929 341.525
L483.038 341.414
L483.149 341.292
L483.251 341.181
L483.362 341.072
L483.471 340.961
L483.583 340.848
L483.714 340.737
L483.825 340.661
L483.99 340.55
L484.101 340.482
L484.338 340.371
L484.449 340.316
L484.651 340.205
L484.762 340.139
L485.023 340.028
L485.134 339.981
L485.436 339.87
L485.547 339.834
L485.819 339.723
L485.93 339.69
L488.415 339.578
L488.526 339.522
L488.794 339.411
L488.905 339.37
L489.288 339.258
L489.399 339.215
L489.659 339.104
L489.77 339.053
L489.988 338.942
L490.099 338.876
L490.329 338.765
L490.44 338.709
L490.645 338.598
L490.756 338.525
L490.94 338.414
L491.051 338.362
L491.285 338.251
L491.396 338.198
L491.688 338.087
L491.799 338.04
L491.987 337.929
L492.098 337.853
L492.237 337.742
L492.348 337.661
L492.51 337.55
L492.621 337.469
L492.766 337.358
L492.877 337.283
L493.043 337.172
L493.154 337.096
L493.339 336.985
L493.45 336.925
L493.693 336.814
L493.804 336.775
L494.446 336.664
L494.557 336.654
L494.96 336.543
L495.072 336.51
L495.519 336.399
L495.631 336.388
L496.851 336.277
L496.962 336.246
L497.273 336.135
L497.384 336.092
L497.863 335.981
L497.974 335.949
L498.483 335.838
L498.594 335.806
L499.046 335.695
L499.157 335.641
L499.45 335.53
L499.561 335.492
L499.853 335.381
L499.964 335.336
L500.209 335.225
L500.32 335.178
L500.782 335.067
L500.893 335.036
L501.132 334.925
L501.243 334.871
L501.462 334.76
L501.573 334.712
L501.842 334.601
L501.953 334.553
L502.187 334.442
L502.298 334.375
L502.493 334.264
L502.605 334.189
L502.777 334.078
L502.888 333.999
L503.087 333.888
L503.198 333.829
L503.419 333.718
L503.53 333.648
L503.724 333.537
L503.835 333.462
L503.978 333.351
L504.089 333.251
L504.21 333.14
L504.321 333.049
L504.48 332.938
L504.591 332.868
L504.81 332.757
L504.921 332.699
L505.121 332.588
L505.232 332.513
L505.409 332.401
L505.52 332.321
L505.691 332.21
L505.802 332.134
L505.979 332.023
L506.09 331.945
L506.254 331.833
L506.365 331.761
L506.596 331.649
L506.707 331.596
L506.947 331.485
L507.058 331.424
L507.257 331.313
L507.368 331.257
L507.554 331.145
L507.665 331.078
L507.837 330.967
L507.948 330.891
L508.115 330.78
L508.226 330.72
L508.435 330.609
L508.546 330.545
L508.753 330.434
L508.864 330.379
L509.104 330.268
L509.215 330.226
L509.479 330.115
L509.59 330.068
L509.855 329.957
L509.966 329.915
L510.266 329.804
L510.377 329.739
L510.568 329.628
L510.679 329.55
L510.825 329.439
L510.936 329.353
L511.107 329.242
L511.218 329.182
L511.399 329.071
L511.51 329
L511.659 328.889
L511.77 328.799
L511.928 328.688
L512.039 328.606
L512.173 328.495
L512.284 328.405
L512.425 328.294
L512.536 328.211
L512.683 328.1
L512.794 328.015
L512.952 327.904
L513.064 327.823
L513.212 327.712
L513.323 327.635
L513.475 327.524
L513.586 327.453
L513.734 327.342
L513.845 327.259
L513.984 327.148
L514.095 327.066
L514.243 326.955
L514.355 326.88
L514.607 326.769
L514.718 326.739
L515.218 326.627
L515.329 326.61
L515.861 326.499
L515.972 326.465
L516.963 326.354
L517.074 326.334
L519.178 326.445
L519.289 326.478
L519.79 326.589
L519.901 326.616
L520.571 326.727
L520.682 326.737
L528.874 326.626
L528.968 326.62
L528.985 326.621
L529.822 326.51
L529.933 326.477
L530.221 326.366
L530.332 326.313
L530.513 326.202
L530.624 326.141
L530.817 326.03
L530.928 325.965
L531.096 325.854
L531.207 325.773
L531.374 325.662
L531.486 325.597
L531.654 325.485
L531.765 325.421
L531.952 325.31
L532.063 325.23
L532.222 325.119
L532.334 325.049
L532.615 324.938
L532.726 324.892
L532.923 324.781
L533.034 324.711
L533.256 324.6
L533.367 324.54
L533.569 324.429
L533.68 324.365
L533.834 324.254
L533.946 324.163
L534.067 324.052
L534.178 323.955
L534.296 323.844
L534.407 323.737
L534.516 323.626
L534.628 323.513
L534.735 323.402
L534.846 323.295
L534.98 323.184
L535.091 323.085
L535.219 322.973
L535.33 322.877
L535.461 322.766
L535.572 322.673
L535.703 322.562
L535.814 322.483
L536.009 322.372
L536.12 322.31
L536.334 322.199
L536.445 322.141
L536.617 322.03
L536.728 321.956
L536.892 321.845
L537.003 321.767
L537.149 321.655
L537.26 321.553
L537.384 321.442
L537.495 321.336
L537.605 321.225
L537.716 321.111
L537.819 321
L537.931 320.877
L538.027 320.766
L538.138 320.642
L538.241 320.531
L538.352 320.417
L538.474 320.306
L538.585 320.198
L538.7 320.087
L538.811 319.991
L538.944 319.88
L539.055 319.79
L539.182 319.679
L539.293 319.571
L539.416 319.46
L539.527 319.366
L539.659 319.255
L539.77 319.176
L539.961 319.064
L540.072 319
L540.26 318.888
L540.371 318.814
L540.547 318.703
L540.658 318.621
L540.821 318.51
L540.932 318.439
L541.12 318.328
L541.231 318.265
L541.419 318.154
L541.53 318.087
L541.712 317.976
L541.823 317.915
L541.984 317.804
L542.095 317.733
L542.258 317.622
L542.369 317.543
L542.599 317.432
L542.711 317.381
L542.908 317.27
L543.019 317.207
L543.183 317.096
L543.294 317.02
L543.463 316.909
L543.574 316.841
L543.748 316.73
L543.859 316.66
L544.055 316.549
L544.166 316.491
L544.369 316.38
L544.48 316.312
L544.657 316.201
L544.768 316.132
L544.972 316.021
L545.083 315.966
L545.297 315.855
L545.408 315.784
L545.613 315.673
L545.724 315.63
L545.931 315.519
L546.042 315.448
L546.219 315.337
L546.33 315.273
L546.504 315.162
L546.615 315.098
L546.829 314.987
L546.94 314.943
L547.642 314.832
L547.694 314.83
L547.753 314.831
L547.827 314.831
L547.827 314.831" style="fill:none;stroke:#0000ff;stroke-width:5.0;"/>
   </g>
   <g id="matplotlib.axis_1">
    <g id="xtick_1">
     <g id="line2d_2">
      <path d="
M189.288 408.635
L189.288 7.2" style="fill:none;stroke:#000000;stroke-dasharray:1.000000,3.000000;stroke-dashoffset:0.0;stroke-linecap:butt;stroke-width:0.5;"/>
     </g>
     <g id="line2d_3">
      <defs>
       <path d="
M0 0
L0 -4" id="me7ff324603"/>
      </defs>
      <g>
       <use style="stroke:#000000;stroke-linecap:butt;stroke-width:0.5;" x="189.287616689" xlink:href="#me7ff324603" y="33.5948892377"/>
      </g>
     </g>
     <g id="text_1">
      <!-- 5 -->
      <defs>
       <path d="
M10.7969 72.9062
L49.5156 72.9062
L49.5156 64.5938
L19.8281 64.5938
L19.8281 46.7344
Q21.9688 47.4688 24.1094 47.8281
Q26.2656 48.1875 28.4219 48.1875
Q40.625 48.1875 47.75 41.5
Q54.8906 34.8125 54.8906 23.3906
Q54.8906 11.625 47.5625 5.09375
Q40.2344 -1.42188 26.9062 -1.42188
Q22.3125 -1.42188 17.5469 -0.640625
Q12.7969 0.140625 7.71875 1.70312
L7.71875 11.625
Q12.1094 9.23438 16.7969 8.0625
Q21.4844 6.89062 26.7031 6.89062
Q35.1562 6.89062 40.0781 11.3281
Q45.0156 15.7656 45.0156 23.3906
Q45.0156 31 40.0781 35.4375
Q35.1562 39.8906 26.7031 39.8906
Q22.75 39.8906 18.8125 39.0156
Q14.8906 38.1406 10.7969 36.2812
z
" id="BitstreamVeraSans-Roman-35"/>
      </defs>
      <g transform="translate(183.626991689 55.0923892377)scale(0.24 -0.24)">
       <use xlink:href="#BitstreamVeraSans-Roman-35"/>
      </g>
     </g>
    </g>
    <g id="xtick_2">
     <g id="line2d_4">
      <path d="
M322.865 408.635
L322.865 7.2" style="fill:none;stroke:#000000;stroke-dasharray:1.000000,3.000000;stroke-dashoffset:0.0;stroke-linecap:butt;stroke-width:0.5;"/>
     </g>
     <g id="line2d_5">
      <defs>
       <path d="
M0 0
L0 -4" id="me7ff324603"/>
      </defs>
      <g>
       <use style="stroke:#000000;stroke-linecap:butt;stroke-width:0.5;" x="322.864732462" xlink:href="#me7ff324603" y="33.5948892377"/>
      </g>
     </g>
     <g id="text_2">
      <!-- 10 -->
      <defs>
       <path d="
M31.7812 66.4062
Q24.1719 66.4062 20.3281 58.9062
Q16.5 51.4219 16.5 36.375
Q16.5 21.3906 20.3281 13.8906
Q24.1719 6.39062 31.7812 6.39062
Q39.4531 6.39062 43.2812 13.8906
Q47.125 21.3906 47.125 36.375
Q47.125 51.4219 43.2812 58.9062
Q39.4531 66.4062 31.7812 66.4062
M31.7812 74.2188
Q44.0469 74.2188 50.5156 64.5156
Q56.9844 54.8281 56.9844 36.375
Q56.9844 17.9688 50.5156 8.26562
Q44.0469 -1.42188 31.7812 -1.42188
Q19.5312 -1.42188 13.0625 8.26562
Q6.59375 17.9688 6.59375 36.375
Q6.59375 54.8281 13.0625 64.5156
Q19.5312 74.2188 31.7812 74.2188" id="BitstreamVeraSans-Roman-30"/>
       <path d="
M12.4062 8.29688
L28.5156 8.29688
L28.5156 63.9219
L10.9844 60.4062
L10.9844 69.3906
L28.4219 72.9062
L38.2812 72.9062
L38.2812 8.29688
L54.3906 8.29688
L54.3906 0
L12.4062 0
z
" id="BitstreamVeraSans-Roman-31"/>
      </defs>
      <g transform="translate(309.709732462 55.4073892377)scale(0.24 -0.24)">
       <use xlink:href="#BitstreamVeraSans-Roman-31"/>
       <use x="63.623046875" xlink:href="#BitstreamVeraSans-Roman-30"/>
      </g>
     </g>
    </g>
    <g id="xtick_3">
     <g id="line2d_6">
      <path d="
M456.442 408.635
L456.442 7.2" style="fill:none;stroke:#000000;stroke-dasharray:1.000000,3.000000;stroke-dashoffset:0.0;stroke-linecap:butt;stroke-width:0.5;"/>
     </g>
     <g id="line2d_7">
      <defs>
       <path d="
M0 0
L0 -4" id="me7ff324603"/>
      </defs>
      <g>
       <use style="stroke:#000000;stroke-linecap:butt;stroke-width:0.5;" x="456.441848234" xlink:href="#me7ff324603" y="33.5948892377"/>
      </g>
     </g>
     <g id="text_3">
      <!-- 15 -->
      <g transform="translate(443.538098234 55.0923892377)scale(0.24 -0.24)">
       <use xlink:href="#BitstreamVeraSans-Roman-31"/>
       <use x="63.623046875" xlink:href="#BitstreamVeraSans-Roman-35"/>
      </g>
     </g>
    </g>
    <g id="xtick_4">
     <g id="line2d_8">
      <defs>
       <path d="
M0 0
L0 -2" id="me4714294c4"/>
      </defs>
      <g>
       <use style="stroke:#000000;stroke-linecap:butt;stroke-width:0.5;" x="82.4259240713" xlink:href="#me4714294c4" y="33.5948892377"/>
      </g>
     </g>
    </g>
    <g id="xtick_5">
     <g id="line2d_9">
      <defs>
       <path d="
M0 0
L0 -2" id="me4714294c4"/>
      </defs>
      <g>
       <use style="stroke:#000000;stroke-linecap:butt;stroke-width:0.5;" x="109.141347226" xlink:href="#me4714294c4" y="33.5948892377"/>
      </g>
     </g>
    </g>
    <g id="xtick_6">
     <g id="line2d_10">
      <defs>
       <path d="
M0 0
L0 -2" id="me4714294c4"/>
      </defs>
      <g>
       <use style="stroke:#000000;stroke-linecap:butt;stroke-width:0.5;" x="135.85677038" xlink:href="#me4714294c4" y="33.5948892377"/>
      </g>
     </g>
    </g>
    <g id="xtick_7">
     <g id="line2d_11">
      <defs>
       <path d="
M0 0
L0 -2" id="me4714294c4"/>
      </defs>
      <g>
       <use style="stroke:#000000;stroke-linecap:butt;stroke-width:0.5;" x="162.572193535" xlink:href="#me4714294c4" y="33.5948892377"/>
      </g>
     </g>
    </g>
    <g id="xtick_8">
     <g id="line2d_12">
      <defs>
       <path d="
M0 0
L0 -2" id="me4714294c4"/>
      </defs>
      <g>
       <use style="stroke:#000000;stroke-linecap:butt;stroke-width:0.5;" x="216.003039844" xlink:href="#me4714294c4" y="33.5948892377"/>
      </g>
     </g>
    </g>
    <g id="xtick_9">
     <g id="line2d_13">
      <defs>
       <path d="
M0 0
L0 -2" id="me4714294c4"/>
      </defs>
      <g>
       <use style="stroke:#000000;stroke-linecap:butt;stroke-width:0.5;" x="242.718462998" xlink:href="#me4714294c4" y="33.5948892377"/>
      </g>
     </g>
    </g>
    <g id="xtick_10">
     <g id="line2d_14">
      <defs>
       <path d="
M0 0
L0 -2" id="me4714294c4"/>
      </defs>
      <g>
       <use style="stroke:#000000;stroke-linecap:butt;stroke-width:0.5;" x="269.433886153" xlink:href="#me4714294c4" y="33.5948892377"/>
      </g>
     </g>
    </g>
    <g id="xtick_11">
     <g id="line2d_15">
      <defs>
       <path d="
M0 0
L0 -2" id="me4714294c4"/>
      </defs>
      <g>
       <use style="stroke:#000000;stroke-linecap:butt;stroke-width:0.5;" x="296.149309307" xlink:href="#me4714294c4" y="33.5948892377"/>
      </g>
     </g>
    </g>
    <g id="xtick_12">
     <g id="line2d_16">
      <defs>
       <path d="
M0 0
L0 -2" id="me4714294c4"/>
      </defs>
      <g>
       <use style="stroke:#000000;stroke-linecap:butt;stroke-width:0.5;" x="349.580155616" xlink:href="#me4714294c4" y="33.5948892377"/>
      </g>
     </g>
    </g>
    <g id="xtick_13">
     <g id="line2d_17">
      <defs>
       <path d="
M0 0
L0 -2" id="me4714294c4"/>
      </defs>
      <g>
       <use style="stroke:#000000;stroke-linecap:butt;stroke-width:0.5;" x="376.29557877" xlink:href="#me4714294c4" y="33.5948892377"/>
      </g>
     </g>
    </g>
    <g id="xtick_14">
     <g id="line2d_18">
      <defs>
       <path d="
M0 0
L0 -2" id="me4714294c4"/>
      </defs>
      <g>
       <use style="stroke:#000000;stroke-linecap:butt;stroke-width:0.5;" x="403.011001925" xlink:href="#me4714294c4" y="33.5948892377"/>
      </g>
     </g>
    </g>
    <g id="xtick_15">
     <g id="line2d_19">
      <defs>
       <path d="
M0 0
L0 -2" id="me4714294c4"/>
      </defs>
      <g>
       <use style="stroke:#000000;stroke-linecap:butt;stroke-width:0.5;" x="429.726425079" xlink:href="#me4714294c4" y="33.5948892377"/>
      </g>
     </g>
    </g>
    <g id="xtick_16">
     <g id="line2d_20">
      <defs>
       <path d="
M0 0
L0 -2" id="me4714294c4"/>
      </defs>
      <g>
       <use style="stroke:#000000;stroke-linecap:butt;stroke-width:0.5;" x="483.157271388" xlink:href="#me4714294c4" y="33.5948892377"/>
      </g>
     </g>
    </g>
    <g id="xtick_17">
     <g id="line2d_21">
      <defs>
       <path d="
M0 0
L0 -2" id="me4714294c4"/>
      </defs>
      <g>
       <use style="stroke:#000000;stroke-linecap:butt;stroke-width:0.5;" x="509.872694543" xlink:href="#me4714294c4" y="33.5948892377"/>
      </g>
     </g>
    </g>
   </g>
   <g id="matplotlib.axis_2">
    <g id="ytick_1">
     <g id="line2d_22">
      <path d="
M64.7562 403.576
L557.299 403.576" style="fill:none;stroke:#000000;stroke-dasharray:1.000000,3.000000;stroke-dashoffset:0.0;stroke-linecap:butt;stroke-width:0.5;"/>
     </g>
     <g id="line2d_23">
      <defs>
       <path d="
M0 0
L4 0" id="m069aa59461"/>
      </defs>
      <g>
       <use style="stroke:#000000;stroke-linecap:butt;stroke-width:0.5;" x="54.75625" xlink:href="#m069aa59461" y="403.576362271"/>
      </g>
     </g>
     <g id="text_4">
      <!-- -2.5 -->
      <defs>
       <path d="
M19.1875 8.29688
L53.6094 8.29688
L53.6094 0
L7.32812 0
L7.32812 8.29688
Q12.9375 14.1094 22.625 23.8906
Q32.3281 33.6875 34.8125 36.5312
Q39.5469 41.8438 41.4219 45.5312
Q43.3125 49.2188 43.3125 52.7812
Q43.3125 58.5938 39.2344 62.25
Q35.1562 65.9219 28.6094 65.9219
Q23.9688 65.9219 18.8125 64.3125
Q13.6719 62.7031 7.8125 59.4219
L7.8125 69.3906
Q13.7656 71.7812 18.9375 73
Q24.125 74.2188 28.4219 74.2188
Q39.75 74.2188 46.4844 68.5469
Q53.2188 62.8906 53.2188 53.4219
Q53.2188 48.9219 51.5312 44.8906
Q49.8594 40.875 45.4062 35.4062
Q44.1875 33.9844 37.6406 27.2188
Q31.1094 20.4531 19.1875 8.29688" id="BitstreamVeraSans-Roman-32"/>
       <path d="
M10.6875 12.4062
L21 12.4062
L21 0
L10.6875 0
z
" id="BitstreamVeraSans-Roman-2e"/>
       <path d="
M4.89062 31.3906
L31.2031 31.3906
L31.2031 23.3906
L4.89062 23.3906
z
" id="BitstreamVeraSans-Roman-2d"/>
      </defs>
      <g transform="translate(7.2 412.311987271)scale(0.24 -0.24)">
       <use xlink:href="#BitstreamVeraSans-Roman-2d"/>
       <use x="36.083984375" xlink:href="#BitstreamVeraSans-Roman-32"/>
       <use x="99.70703125" xlink:href="#BitstreamVeraSans-Roman-2e"/>
       <use x="131.494140625" xlink:href="#BitstreamVeraSans-Roman-35"/>
      </g>
     </g>
    </g>
    <g id="ytick_2">
     <g id="line2d_24">
      <path d="
M64.7562 329.58
L557.299 329.58" style="fill:none;stroke:#000000;stroke-dasharray:1.000000,3.000000;stroke-dashoffset:0.0;stroke-linecap:butt;stroke-width:0.5;"/>
     </g>
     <g id="line2d_25">
      <defs>
       <path d="
M0 0
L4 0" id="m069aa59461"/>
      </defs>
      <g>
       <use style="stroke:#000000;stroke-linecap:butt;stroke-width:0.5;" x="54.75625" xlink:href="#m069aa59461" y="329.580067664"/>
      </g>
     </g>
     <g id="text_5">
      <!-- -2 -->
      <g transform="translate(30.405 338.486317664)scale(0.24 -0.24)">
       <use xlink:href="#BitstreamVeraSans-Roman-2d"/>
       <use x="36.083984375" xlink:href="#BitstreamVeraSans-Roman-32"/>
      </g>
     </g>
    </g>
    <g id="ytick_3">
     <g id="line2d_26">
      <path d="
M64.7562 255.584
L557.299 255.584" style="fill:none;stroke:#000000;stroke-dasharray:1.000000,3.000000;stroke-dashoffset:0.0;stroke-linecap:butt;stroke-width:0.5;"/>
     </g>
     <g id="line2d_27">
      <defs>
       <path d="
M0 0
L4 0" id="m069aa59461"/>
      </defs>
      <g>
       <use style="stroke:#000000;stroke-linecap:butt;stroke-width:0.5;" x="54.75625" xlink:href="#m069aa59461" y="255.583773058"/>
      </g>
     </g>
     <g id="text_6">
      <!-- -1.5 -->
      <g transform="translate(7.2 264.161898058)scale(0.24 -0.24)">
       <use xlink:href="#BitstreamVeraSans-Roman-2d"/>
       <use x="36.083984375" xlink:href="#BitstreamVeraSans-Roman-31"/>
       <use x="99.70703125" xlink:href="#BitstreamVeraSans-Roman-2e"/>
       <use x="131.494140625" xlink:href="#BitstreamVeraSans-Roman-35"/>
      </g>
     </g>
    </g>
    <g id="ytick_4">
     <g id="line2d_28">
      <path d="
M64.7562 181.587
L557.299 181.587" style="fill:none;stroke:#000000;stroke-dasharray:1.000000,3.000000;stroke-dashoffset:0.0;stroke-linecap:butt;stroke-width:0.5;"/>
     </g>
     <g id="line2d_29">
      <defs>
       <path d="
M0 0
L4 0" id="m069aa59461"/>
      </defs>
      <g>
       <use style="stroke:#000000;stroke-linecap:butt;stroke-width:0.5;" x="54.75625" xlink:href="#m069aa59461" y="181.587478451"/>
      </g>
     </g>
     <g id="text_7">
      <!-- -1 -->
      <g transform="translate(30.2175 190.336228451)scale(0.24 -0.24)">
       <use xlink:href="#BitstreamVeraSans-Roman-2d"/>
       <use x="36.083984375" xlink:href="#BitstreamVeraSans-Roman-31"/>
      </g>
     </g>
    </g>
    <g id="ytick_5">
     <g id="line2d_30">
      <path d="
M64.7562 107.591
L557.299 107.591" style="fill:none;stroke:#000000;stroke-dasharray:1.000000,3.000000;stroke-dashoffset:0.0;stroke-linecap:butt;stroke-width:0.5;"/>
     </g>
     <g id="line2d_31">
      <defs>
       <path d="
M0 0
L4 0" id="m069aa59461"/>
      </defs>
      <g>
       <use style="stroke:#000000;stroke-linecap:butt;stroke-width:0.5;" x="54.75625" xlink:href="#m069aa59461" y="107.591183844"/>
      </g>
     </g>
     <g id="text_8">
      <!-- -0.5 -->
      <g transform="translate(7.2 116.326808844)scale(0.24 -0.24)">
       <use xlink:href="#BitstreamVeraSans-Roman-2d"/>
       <use x="36.083984375" xlink:href="#BitstreamVeraSans-Roman-30"/>
       <use x="99.70703125" xlink:href="#BitstreamVeraSans-Roman-2e"/>
       <use x="131.494140625" xlink:href="#BitstreamVeraSans-Roman-35"/>
      </g>
     </g>
    </g>
    <g id="ytick_6">
     <g id="line2d_32">
      <path d="
M64.7562 33.5949
L557.299 33.5949" style="fill:none;stroke:#000000;stroke-dasharray:1.000000,3.000000;stroke-dashoffset:0.0;stroke-linecap:butt;stroke-width:0.5;"/>
     </g>
     <g id="line2d_33">
      <defs>
       <path d="
M0 0
L4 0" id="m069aa59461"/>
      </defs>
      <g>
       <use style="stroke:#000000;stroke-linecap:butt;stroke-width:0.5;" x="54.75625" xlink:href="#m069aa59461" y="33.5948892377"/>
      </g>
     </g>
     <g id="text_9">
      <!-- 0 -->
      <g transform="translate(38.6625 42.3305142377)scale(0.24 -0.24)">
       <use xlink:href="#BitstreamVeraSans-Roman-30"/>
      </g>
     </g>
    </g>
    <g id="ytick_7">
     <g id="line2d_34">
      <defs>
       <path d="
M0 0
L2 0" id="m2f26ac1d8d"/>
      </defs>
      <g>
       <use style="stroke:#000000;stroke-linecap:butt;stroke-width:0.5;" x="54.75625" xlink:href="#m2f26ac1d8d" y="388.77710335"/>
      </g>
     </g>
    </g>
    <g id="ytick_8">
     <g id="line2d_35">
      <defs>
       <path d="
M0 0
L2 0" id="m2f26ac1d8d"/>
      </defs>
      <g>
       <use style="stroke:#000000;stroke-linecap:butt;stroke-width:0.5;" x="54.75625" xlink:href="#m2f26ac1d8d" y="373.977844428"/>
      </g>
     </g>
    </g>
    <g id="ytick_9">
     <g id="line2d_36">
      <defs>
       <path d="
M0 0
L2 0" id="m2f26ac1d8d"/>
      </defs>
      <g>
       <use style="stroke:#000000;stroke-linecap:butt;stroke-width:0.5;" x="54.75625" xlink:href="#m2f26ac1d8d" y="359.178585507"/>
      </g>
     </g>
    </g>
    <g id="ytick_10">
     <g id="line2d_37">
      <defs>
       <path d="
M0 0
L2 0" id="m2f26ac1d8d"/>
      </defs>
      <g>
       <use style="stroke:#000000;stroke-linecap:butt;stroke-width:0.5;" x="54.75625" xlink:href="#m2f26ac1d8d" y="344.379326586"/>
      </g>
     </g>
    </g>
    <g id="ytick_11">
     <g id="line2d_38">
      <defs>
       <path d="
M0 0
L2 0" id="m2f26ac1d8d"/>
      </defs>
      <g>
       <use style="stroke:#000000;stroke-linecap:butt;stroke-width:0.5;" x="54.75625" xlink:href="#m2f26ac1d8d" y="314.780808743"/>
      </g>
     </g>
    </g>
    <g id="ytick_12">
     <g id="line2d_39">
      <defs>
       <path d="
M0 0
L2 0" id="m2f26ac1d8d"/>
      </defs>
      <g>
       <use style="stroke:#000000;stroke-linecap:butt;stroke-width:0.5;" x="54.75625" xlink:href="#m2f26ac1d8d" y="299.981549822"/>
      </g>
     </g>
    </g>
    <g id="ytick_13">
     <g id="line2d_40">
      <defs>
       <path d="
M0 0
L2 0" id="m2f26ac1d8d"/>
      </defs>
      <g>
       <use style="stroke:#000000;stroke-linecap:butt;stroke-width:0.5;" x="54.75625" xlink:href="#m2f26ac1d8d" y="285.1822909"/>
      </g>
     </g>
    </g>
    <g id="ytick_14">
     <g id="line2d_41">
      <defs>
       <path d="
M0 0
L2 0" id="m2f26ac1d8d"/>
      </defs>
      <g>
       <use style="stroke:#000000;stroke-linecap:butt;stroke-width:0.5;" x="54.75625" xlink:href="#m2f26ac1d8d" y="270.383031979"/>
      </g>
     </g>
    </g>
    <g id="ytick_15">
     <g id="line2d_42">
      <defs>
       <path d="
M0 0
L2 0" id="m2f26ac1d8d"/>
      </defs>
      <g>
       <use style="stroke:#000000;stroke-linecap:butt;stroke-width:0.5;" x="54.75625" xlink:href="#m2f26ac1d8d" y="255.583773058"/>
      </g>
     </g>
    </g>
    <g id="ytick_16">
     <g id="line2d_43">
      <defs>
       <path d="
M0 0
L2 0" id="m2f26ac1d8d"/>
      </defs>
      <g>
       <use style="stroke:#000000;stroke-linecap:butt;stroke-width:0.5;" x="54.75625" xlink:href="#m2f26ac1d8d" y="240.784514136"/>
      </g>
     </g>
    </g>
    <g id="ytick_17">
     <g id="line2d_44">
      <defs>
       <path d="
M0 0
L2 0" id="m2f26ac1d8d"/>
      </defs>
      <g>
       <use style="stroke:#000000;stroke-linecap:butt;stroke-width:0.5;" x="54.75625" xlink:href="#m2f26ac1d8d" y="225.985255215"/>
      </g>
     </g>
    </g>
    <g id="ytick_18">
     <g id="line2d_45">
      <defs>
       <path d="
M0 0
L2 0" id="m2f26ac1d8d"/>
      </defs>
      <g>
       <use style="stroke:#000000;stroke-linecap:butt;stroke-width:0.5;" x="54.75625" xlink:href="#m2f26ac1d8d" y="211.185996294"/>
      </g>
     </g>
    </g>
    <g id="ytick_19">
     <g id="line2d_46">
      <defs>
       <path d="
M0 0
L2 0" id="m2f26ac1d8d"/>
      </defs>
      <g>
       <use style="stroke:#000000;stroke-linecap:butt;stroke-width:0.5;" x="54.75625" xlink:href="#m2f26ac1d8d" y="196.386737372"/>
      </g>
     </g>
    </g>
    <g id="ytick_20">
     <g id="line2d_47">
      <defs>
       <path d="
M0 0
L2 0" id="m2f26ac1d8d"/>
      </defs>
      <g>
       <use style="stroke:#000000;stroke-linecap:butt;stroke-width:0.5;" x="54.75625" xlink:href="#m2f26ac1d8d" y="181.587478451"/>
      </g>
     </g>
    </g>
    <g id="ytick_21">
     <g id="line2d_48">
      <defs>
       <path d="
M0 0
L2 0" id="m2f26ac1d8d"/>
      </defs>
      <g>
       <use style="stroke:#000000;stroke-linecap:butt;stroke-width:0.5;" x="54.75625" xlink:href="#m2f26ac1d8d" y="166.78821953"/>
      </g>
     </g>
    </g>
    <g id="ytick_22">
     <g id="line2d_49">
      <defs>
       <path d="
M0 0
L2 0" id="m2f26ac1d8d"/>
      </defs>
      <g>
       <use style="stroke:#000000;stroke-linecap:butt;stroke-width:0.5;" x="54.75625" xlink:href="#m2f26ac1d8d" y="151.988960608"/>
      </g>
     </g>
    </g>
    <g id="ytick_23">
     <g id="line2d_50">
      <defs>
       <path d="
M0 0
L2 0" id="m2f26ac1d8d"/>
      </defs>
      <g>
       <use style="stroke:#000000;stroke-linecap:butt;stroke-width:0.5;" x="54.75625" xlink:href="#m2f26ac1d8d" y="137.189701687"/>
      </g>
     </g>
    </g>
    <g id="ytick_24">
     <g id="line2d_51">
      <defs>
       <path d="
M0 0
L2 0" id="m2f26ac1d8d"/>
      </defs>
      <g>
       <use style="stroke:#000000;stroke-linecap:butt;stroke-width:0.5;" x="54.75625" xlink:href="#m2f26ac1d8d" y="122.390442766"/>
      </g>
     </g>
    </g>
    <g id="ytick_25">
     <g id="line2d_52">
      <defs>
       <path d="
M0 0
L2 0" id="m2f26ac1d8d"/>
      </defs>
      <g>
       <use style="stroke:#000000;stroke-linecap:butt;stroke-width:0.5;" x="54.75625" xlink:href="#m2f26ac1d8d" y="107.591183844"/>
      </g>
     </g>
    </g>
    <g id="ytick_26">
     <g id="line2d_53">
      <defs>
       <path d="
M0 0
L2 0" id="m2f26ac1d8d"/>
      </defs>
      <g>
       <use style="stroke:#000000;stroke-linecap:butt;stroke-width:0.5;" x="54.75625" xlink:href="#m2f26ac1d8d" y="92.791924923"/>
      </g>
     </g>
    </g>
    <g id="ytick_27">
     <g id="line2d_54">
      <defs>
       <path d="
M0 0
L2 0" id="m2f26ac1d8d"/>
      </defs>
      <g>
       <use style="stroke:#000000;stroke-linecap:butt;stroke-width:0.5;" x="54.75625" xlink:href="#m2f26ac1d8d" y="77.9926660017"/>
      </g>
     </g>
    </g>
    <g id="ytick_28">
     <g id="line2d_55">
      <defs>
       <path d="
M0 0
L2 0" id="m2f26ac1d8d"/>
      </defs>
      <g>
       <use style="stroke:#000000;stroke-linecap:butt;stroke-width:0.5;" x="54.75625" xlink:href="#m2f26ac1d8d" y="63.1934070803"/>
      </g>
     </g>
    </g>
    <g id="ytick_29">
     <g id="line2d_56">
      <defs>
       <path d="
M0 0
L2 0" id="m2f26ac1d8d"/>
      </defs>
      <g>
       <use style="stroke:#000000;stroke-linecap:butt;stroke-width:0.5;" x="54.75625" xlink:href="#m2f26ac1d8d" y="48.394148159"/>
      </g>
     </g>
    </g>
    <g id="ytick_30">
     <g id="line2d_57">
      <defs>
       <path d="
M0 0
L2 0" id="m2f26ac1d8d"/>
      </defs>
      <g>
       <use style="stroke:#000000;stroke-linecap:butt;stroke-width:0.5;" x="54.75625" xlink:href="#m2f26ac1d8d" y="33.5948892377"/>
      </g>
     </g>
    </g>
   </g>
   <g id="patch_3">
    <path d="
M64.7562 33.5949
L557.299 33.5949" style="fill:none;stroke:#000000;stroke-width:0.8;"/>
   </g>
   <g id="patch_4">
    <path d="
M54.7562 408.635
L54.7562 7.2" style="fill:none;stroke:#000000;stroke-width:0.8;"/>
   </g>
  </g>
 </g>
 <defs>
  <clipPath id="p5f8fa994bd">
   <rect height="401.435262072" width="492.5425" x="64.75625" y="7.2"/>
  </clipPath>
 </defs>
</svg>
