<?xml version="1.0" encoding="utf-8" standalone="no"?>
<!DOCTYPE svg PUBLIC "-//W3C//DTD SVG 1.1//EN"
  "http://www.w3.org/Graphics/SVG/1.1/DTD/svg11.dtd">
<!-- Created with matplotlib (http://matplotlib.sourceforge.net/) -->
<svg height="419pt" version="1.1" viewBox="0 0 564 419" width="564pt" xmlns="http://www.w3.org/2000/svg" xmlns:xlink="http://www.w3.org/1999/xlink">
 <defs>
  <style type="text/css">
*{stroke-linecap:square;stroke-linejoin:round;}
  </style>
 </defs>
 <g id="figure_1">
  <g id="patch_1">
   <path d="
M2.22045e-16 419.333
L564.619 419.333
L564.619 0
L2.22045e-16 0
z
" style="fill:#ffffff;"/>
  </g>
  <g id="axes_1">
   <g id="patch_2">
    <path d="
M56.4387 397.415
L557.419 397.415
L557.419 10.7445
L56.4387 10.7445
z
" style="fill:#ffffff;"/>
   </g>
   <g id="line2d_1">
    <path clip-path="url(#pdc6e8e9464)" d="
M66.073 389.979
L77.0907 389.979
L77.0907 374.14
L90.9714 374.14
L90.9714 288.889
L100.114 288.889
L100.114 235.714
L112.396 235.714
L112.396 201.712
L116.936 201.712
L116.936 182.735
L124.225 182.735
L124.225 156.89
L127.247 156.89
L127.247 141.777
L132.439 141.777
L132.439 133.501
L138.738 133.501
L138.738 120.272
L140.55 120.272
L140.55 116.474
L145.358 116.474
L145.358 107.863
L148.147 107.863
L148.147 102.932
L149.441 102.932
L149.441 99.8701
L151.858 99.8701
L151.858 93.4398
L155.123 93.4398
L155.123 82.9632
L158.037 82.9632
L158.037 74.088
L158.943 74.088
L158.943 72.3905
L161.492 72.3905
L161.492 67.7434
L163.068 67.7434
L163.068 64.6713
L163.823 64.6713
L163.823 62.8764
L165.969 62.8764
L165.969 58.8175
L167.312 58.8175
L167.312 57.6451
L169.208 57.6451
L169.208 54.9322
L171.547 54.9322
L171.547 51.1938
L172.645 51.1938
L172.645 49.0715
L173.178 49.0715
L173.178 48.2048
L174.213 48.2048
L174.213 46.5692
L174.716 46.5692
L174.716 45.5609
L175.696 45.5609
L175.696 43.4245
L178.869 43.4245
L178.869 34.9336
L179.712 34.9336
L179.712 32.6022
L180.929 32.6022
L180.929 29.4856
L181.323 29.4856
L181.323 28.4329
L183.211 28.4329
L183.211 24.6148
L183.573 24.6148
L183.573 23.813
L184.632 23.813
L184.632 21.955
L185.651 21.955
L185.651 20.4766
L186.31 20.4766
L186.31 19.6727
L187.269 19.6727
L187.269 19.0607
L188.195 19.0607
L188.195 18.2957
L188.497 18.2957
L188.497 18.1805
L190.799 18.2714
L190.799 18.5273
L191.073 18.5273
L191.073 18.644
L192.664 18.644
L192.664 19.8004
L194.168 19.8004
L194.168 20.5896
L194.651 20.5896
L194.651 20.909
L194.889 20.909
L194.889 21.0214
L195.36 21.0214
L195.36 21.3183
L196.05 21.3183
L196.05 21.6923
L196.277 21.6923
L196.277 21.8426
L197.382 21.8426
L197.382 22.5457
L198.023 22.5457
L198.023 22.9562
L198.651 22.9562
L198.651 23.6162
L199.264 23.6162
L199.264 23.9981
L200.06 24.0661
L200.06 24.2999
L200.449 24.2999
L200.449 24.5035
L200.642 24.5035
L200.642 24.6283
L201.586 24.6283
L201.586 25.1031
L202.854 25.1031
L202.854 25.8376
L203.206 25.8376
L203.206 25.9954
L203.38 25.9954
L203.38 26.1121
L203.725 26.1121
L203.725 26.4562
L204.899 26.4562
L204.899 27.6985
L205.388 27.6985
L205.388 28.1928
L206.182 28.1928
L206.182 28.7895
L206.338 28.7895
L206.338 28.937
L206.648 28.937
L206.648 29.1758
L207.106 29.1758
L207.106 29.5375
L207.705 29.5375
L207.705 30.1875
L208.146 30.1875
L208.146 30.5689
L208.579 30.5689
L208.579 30.9514
L208.864 30.9514
L208.864 31.1829
L209.287 31.1829
L209.287 31.4675
L209.84 31.4675
L209.84 31.7939
L210.112 31.7939
L210.112 31.9863
L210.649 31.9863
L210.649 32.5142
L211.306 32.5142
L211.306 33.0848
L211.435 33.0848
L211.435 33.2373
L212.073 33.2373
L212.073 34.0949
L212.199 34.0949
L212.199 34.2635
L212.573 34.2635
L212.573 34.8248
L212.819 34.8248
L212.819 35.2661
L213.185 35.2661
L213.185 35.8865
L213.665 35.8865
L213.665 36.7864
L213.901 36.7864
L213.901 37.2719
L214.019 37.2719
L214.019 37.5174
L214.253 37.5174
L214.253 38.0623
L214.942 38.0623
L214.942 39.5476
L215.392 39.5476
L215.392 40.4392
L215.614 40.4392
L215.614 40.8951
L216.054 40.8951
L216.054 41.7811
L216.271 41.7811
L216.271 42.1787
L216.593 42.1787
L216.593 42.8482
L217.226 42.8482
L217.33 44.285
L218.25 44.285
L218.25 46.0535
L218.549 46.0535
L218.549 46.5811
L219.042 46.5811
L219.042 47.4998
L219.333 47.4998
L219.333 48.0635
L219.621 48.0635
L219.716 48.8818
L220 48.8818
L220 49.511
L220.467 49.511
L220.467 50.5256
L220.743 50.5256
L220.743 51.1523
L221.017 51.1523
L221.108 51.9393
L221.377 51.9393
L221.377 52.4859
L221.645 52.4859
L221.645 52.9824
L221.821 52.9824
L221.909 53.4656
L222.431 53.4656
L222.431 54.2942
L222.858 54.2942
L222.943 55.0839
L223.112 55.0839
L223.112 55.3157
L223.362 55.3157
L223.362 55.7024
L223.611 55.7024
L223.693 56.1421
L224.182 56.1421
L224.182 56.7648
L224.343 56.7648
L224.343 57.0025
L224.583 57.0025
L224.583 57.3109
L224.899 57.3109
L224.899 57.7449
L225.29 57.7449
L225.29 58.3462
L225.598 58.3462
L225.598 58.7853
L225.979 58.7853
L225.979 59.2839
L226.279 59.2839
L226.279 59.6765
L226.503 59.6765
L226.503 59.9749
L226.724 59.9749
L226.724 60.2288
L226.871 60.2288
L226.871 60.4133
L227.162 60.4133
L227.162 60.7785
L227.378 60.7785
L227.378 61.0152
L227.521 61.0152
L227.521 61.1863
L227.806 61.1863
L227.806 61.5186
L227.947 61.5186
L227.947 61.6756
L228.434 61.6756
L228.434 62.1692
L228.777 62.1692
L228.777 62.5206
L229.183 62.5206
L229.251 62.9648
L229.584 62.9648
L229.65 63.4203
L229.781 63.4203
L229.847 63.6139
L230.173 63.6139
L230.173 63.9445
L230.623 63.9445
L230.623 64.3372
L230.813 64.4281
L230.813 64.4781
L230.939 64.4781
L230.939 64.5965
L231.377 64.5965
L231.377 64.9591
L231.5 64.9591
L231.562 65.1321
L231.685 65.1321
L231.685 65.253
L232.291 65.253
L232.291 65.872
L232.41 65.872
L232.41 66.0076
L232.648 66.0076
L232.648 66.2825
L232.942 66.2825
L232.942 66.6588
L233.175 66.6588
L233.175 66.9347
L233.291 66.9347
L233.291 67.0624
L233.463 67.0624
L233.463 67.2768
L233.635 67.2768
L233.635 67.4917
L234.031 67.4917
L234.031 67.932
L234.143 67.932
L234.143 68.0497
L234.311 68.0497
L234.311 68.2233
L234.477 68.2233
L234.477 68.4005
L234.697 68.4005
L234.697 68.6143
L234.861 68.6143
L234.861 68.7582
L235.186 68.7582
L235.294 69.0939
L235.508 69.1954
L235.508 69.2274
L235.773 69.2274
L235.825 69.4154
L236.243 69.501
L236.295 69.6447
L236.756 69.7499
L236.756 69.8085
L237.21 69.8085
L237.31 69.9811
L237.95 70.0851
L237.95 70.1187
L238.764 70.1906
L238.812 70.303
L241.587 70.3721
L241.63 70.4239
L243.318 70.4938
L243.318 70.573
L245.834 70.468
L245.943 70.4439
L247.009 70.5548
L247.009 70.5653
L247.833 70.6657
L247.934 70.724
L248.666 70.8032
L248.764 70.8704
L250.103 70.9649
L250.196 71.0046
L250.657 71.1079
L250.748 71.1495
L251.26 71.259
L251.26 71.3077
L251.821 71.3739
L251.908 71.4435
L252.398 71.553
L252.484 71.653
L253.409 71.7459
L253.491 71.7867
L254.142 71.8808
L254.169 71.9139
L254.621 72.0206
L254.7 72.0919
L255.091 72.1721
L255.091 72.2311
L255.476 72.3147
L255.578 72.4793
L255.882 72.5695
L255.882 72.6128
L256.107 72.6128
L256.107 72.7284
L256.405 72.7284
L256.454 72.8993
L256.821 73.0034
L256.894 73.1692
L257.183 73.2402
L257.255 73.4293
L257.422 73.4937
L257.493 73.587
L257.682 73.6175
L257.705 73.7237
L257.963 73.7237
L258.056 73.926
L258.402 74.0352
L258.47 74.1505
L258.721 74.2316
L258.721 74.2631
L258.991 74.3494
L258.991 74.3743
L259.392 74.4851
L259.48 74.5733
L259.874 74.6094
L259.874 74.7145
L260.262 74.8186
L260.369 74.9113
L260.687 74.9589
L260.687 75.0852
L261.001 75.1621
L261.084 75.2867
L261.394 75.3734
L261.496 75.5281
L261.7 75.6231
L261.802 75.7333
L262.003 75.8097
L262.063 75.9
L262.342 76.0045
L262.421 76.0788
L262.814 76.1817
L262.892 76.2745
L263.105 76.3083
L263.105 76.3947
L263.335 76.5055
L263.411 76.5991
L263.677 76.6659
L263.752 76.8515
L263.903 76.9247
L263.959 77.0195
L264.126 77.0799
L264.126 77.1493
L264.367 77.2366
L264.458 77.3959
L264.787 77.4459
L264.895 77.6832
L265.129 77.7457
L265.236 77.8736
L265.502 77.9535
L265.59 78.0681
L265.853 78.1785
L265.87 78.2388
L266.233 78.3235
L266.285 78.496
L266.473 78.5881
L266.575 78.6693
L266.794 78.767
L266.794 78.8119
L266.979 78.8119
L267.046 78.9757
L267.377 79.0405
L267.443 79.2246
L267.623 79.312
L267.64 79.3603
L267.867 79.4536
L267.964 79.5913
L268.125 79.6966
L268.125 79.7072
L268.459 79.8089
L268.459 79.9041
L268.648 79.9811
L268.743 80.0881
L268.914 80.0881
L268.977 80.2549
L269.193 80.3554
L269.301 80.4776
L269.53 80.5527
L269.621 80.652
L269.848 80.7499
L269.923 80.8019
L270.281 80.9117
L270.325 80.959
L270.634 81.0514
L270.736 81.128
L270.996 81.2387
L271.068 81.2816
L271.369 81.3614
L271.454 81.4508
L271.974 81.553
L272.085 81.5894
L272.538 81.6702
L272.633 81.7336
L273.224 81.843
L273.277 81.8774
L273.789 81.971
L273.789 82.0018
L274.203 82.1066
L274.279 82.1372
L275.952 82.2477
L275.952 82.2522
L276.534 82.3415
L276.64 82.391
L277.116 82.4889
L277.185 82.5523
L277.505 82.661
L277.573 82.6847
L278.066 82.7835
L278.177 82.8324
L278.606 82.9341
L278.693 82.9789
L279.209 83.0827
L279.315 83.1297
L279.685 83.2248
L279.789 83.2836
L280.152 83.3889
L280.244 83.4291
L280.702 83.5396
L280.803 83.5638
L284.648 83.4565
L284.727 83.4318
L285.115 83.3324
L285.218 83.2831
L285.499 83.1763
L285.6 83.1182
L285.893 83.0344
L286.001 82.9179
L286.299 82.81
L286.372 82.7607
L286.706 82.6618
L286.779 82.6205
L287.123 82.5359
L287.195 82.4762
L287.472 82.368
L287.495 82.348
L287.707 82.2398
L287.808 82.1769
L288.04 82.0854
L288.124 82.0177
L288.399 81.9251
L288.498 81.833
L288.724 81.7322
L288.784 81.6848
L288.986 81.59
L289.082 81.5161
L289.37 81.4145
L289.45 81.3503
L289.719 81.244
L289.828 81.1795
L290.079 81.07
L290.129 81.0429
L290.469 80.9324
L290.554 80.8793
L290.84 80.7706
L290.944 80.7224
L291.322 80.612
L291.424 80.5736
L292.049 80.4633
L292.149 80.4501
L292.621 80.3527
L292.731 80.2898
L293.098 80.1967
L293.181 80.1376
L293.542 80.0359
L293.63 79.9928
L294.047 79.8848
L294.158 79.8384
L294.645 79.7469
L294.736 79.6995
L295.118 79.5927
L295.207 79.5519
L295.595 79.4431
L295.682 79.4115
L296.149 79.303
L296.252 79.2644
L298.647 79.1546
L298.741 79.1464
L301.174 79.2571
L301.283 79.2756
L302.039 79.3854
L302.098 79.4008
L305.591 79.2912
L305.692 79.276
L307.714 79.3869
L307.782 79.4008
L309.214 79.2923
L309.32 79.2567
L309.815 79.1524
L309.925 79.1075
L310.39 78.9967
L310.498 78.9634
L310.819 78.8556
L310.922 78.7974
L311.206 78.6873
L311.314 78.6449
L311.736 78.5362
L311.839 78.5051
L312.262 78.3944
L312.338 78.3772
L312.979 78.2664
L313.083 78.2437
L313.572 78.1338
L313.68 78.0882
L313.975 77.9835
L314.082 77.9308
L314.364 77.8197
L314.463 77.7795
L314.833 77.6692
L314.922 77.643
L315.332 77.5326
L315.425 77.5014
L315.909 77.3908
L316.017 77.357
L316.618 77.2465
L316.709 77.2283
L317.306 77.1173
L317.398 77.0914
L317.787 76.9831
L317.89 76.9303
L318.186 76.8198
L318.295 76.7759
L318.579 76.6703
L318.687 76.6233
L319.019 76.5127
L319.129 76.4684
L319.415 76.3591
L319.524 76.3201
L319.87 76.2144
L319.979 76.1712
L320.331 76.0626
L320.439 76.0145
L320.773 75.9037
L320.882 75.8635
L321.186 75.7527
L321.293 75.7043
L321.552 75.6019
L321.657 75.5413
L321.897 75.4304
L322.006 75.3717
L322.201 75.2661
L322.247 75.2346
L322.443 75.1759
L322.541 75.0646
L322.741 75.001
L322.851 74.881
L323.042 74.8078
L323.153 74.7095
L323.443 74.6255
L323.443 74.5749
L323.747 74.4641
L323.846 74.3536
L324.143 74.2595
L324.143 74.2163
L324.448 74.1197
L324.544 74.0359
L324.862 73.9438
L324.949 73.832
L325.144 73.7717
L325.245 73.6515
L325.444 73.5904
L325.544 73.4722
L325.757 73.4152
L325.862 73.2966
L326.148 73.199
L326.244 73.0956
L326.558 73.0026
L326.649 72.918
L326.969 72.8335
L327.057 72.7528
L327.349 72.6762
L327.444 72.6022
L327.848 72.4936
L327.946 72.4202
L328.361 72.3099
L328.446 72.2616
L328.946 72.1512
L328.946 72.126
L329.369 72.0241
L329.456 71.9372
L329.765 71.8475
L329.861 71.7464
L330.156 71.6684
L330.248 71.5996
L330.763 71.4939
L330.863 71.4478
L331.571 71.3492
L331.653 71.3257
L336.46 71.4338
L336.554 71.4481
L337.46 71.5536
L337.561 71.5726
L342.262 71.4639
L342.364 71.4449
L343.571 71.3423
L343.67 71.3165
L345.366 71.4226
L345.466 71.4552
L346.167 71.5626
L346.266 71.5937
L347.068 71.6977
L347.173 71.7497
L347.772 71.8489
L347.867 71.8977
L348.474 72.0049
L348.573 72.0476
L349.169 72.1484
L349.271 72.1821
L349.872 72.2802
L349.976 72.3235
L350.474 72.4125
L350.574 72.4676
L350.974 72.5522
L351.073 72.6153
L351.573 72.7184
L351.672 72.7648
L352.077 72.8583
L352.175 72.9231
L352.575 73.0077
L352.675 73.064
L353.072 73.1679
L353.173 73.2349
L353.573 73.3299
L353.573 73.3607
L353.973 73.4625
L354.075 73.544
L354.377 73.6233
L354.474 73.7078
L354.775 73.7885
L354.874 73.8819
L355.179 73.9842
L355.281 74.0948
L355.577 74.2037
L355.675 74.3143
L355.876 74.3743
L355.978 74.4928
L356.179 74.5485
L356.276 74.6677
L356.477 74.7261
L356.578 74.8625
L356.787 74.9308
L356.877 75.0624
L357.084 75.1267
L357.176 75.2525
L357.377 75.3144
L357.483 75.4503
L357.678 75.5139
L357.787 75.6197
L358.078 75.717
L358.178 75.8167
L358.482 75.9152
L358.585 76.0171
L358.886 76.108
L358.983 76.2026
L359.281 76.2947
L359.38 76.3837
L359.681 76.4757
L359.782 76.5727
L360.08 76.6687
L360.182 76.7695
L360.481 76.8584
L360.581 76.9423
L360.883 77.0193
L360.985 77.0975
L361.382 77.2072
L361.488 77.2786
L361.882 77.3872
L361.982 77.4658
L362.286 77.5523
L362.387 77.6265
L362.783 77.7283
L362.886 77.7921
L363.386 77.8905
L363.486 77.9223
L364.084 78.0279
L364.19 78.0819
L364.585 78.1703
L364.685 78.2211
L365.185 78.3135
L365.287 78.3627
L365.887 78.4634
L365.989 78.5018
L366.591 78.5918
L366.687 78.6404
L367.188 78.7379
L367.288 78.7883
L367.688 78.8824
L367.791 78.956
L368.09 79.0365
L368.189 79.1114
L368.489 79.1969
L368.59 79.2963
L368.893 79.401
L368.993 79.4995
L369.291 79.5983
L369.39 79.7022
L369.691 79.8018
L369.792 79.8958
L370.094 79.991
L370.193 80.0758
L370.493 80.1632
L370.595 80.2518
L370.892 80.3359
L370.992 80.4175
L371.294 80.4986
L371.392 80.5807
L371.695 80.6731
L371.793 80.7671
L372.093 80.8558
L372.201 80.9512
L372.493 81.0464
L372.596 81.1494
L372.894 81.2535
L372.997 81.3625
L373.296 81.4712
L373.396 81.5749
L373.695 81.6717
L373.797 81.7676
L374.099 81.8727
L374.197 81.9784
L374.496 82.0855
L374.596 82.1837
L374.896 82.2708
L374.997 82.3498
L375.296 82.4311
L375.398 82.5041
L375.798 82.5955
L375.898 82.6514
L376.398 82.7484
L376.498 82.7925
L377 82.8826
L377.098 82.9246
L377.499 83.0065
L377.603 83.0716
L378 83.1624
L378.1 83.2228
L378.6 83.3255
L378.7 83.3603
L379.201 83.4552
L379.303 83.4986
L379.902 83.6042
L380.005 83.6404
L380.704 83.7444
L380.803 83.7854
L381.506 83.8936
L381.604 83.922
L382.705 84.0303
L382.807 84.0498
L383.606 84.16
L383.707 84.1973
L386.008 84.3054
L386.109 84.3142
L387.11 84.4193
L387.211 84.4549
L387.71 84.5524
L387.812 84.5971
L388.315 84.6867
L388.411 84.733
L388.811 84.8154
L388.912 84.8818
L389.315 84.9863
L389.412 85.0483
L389.915 85.145
L390.013 85.1881
L390.714 85.295
L390.814 85.3285
L391.915 85.4352
L392.015 85.454
L394.717 85.5625
L394.819 85.5832
L395.518 85.6817
L395.618 85.7146
L396.22 85.8201
L396.32 85.8571
L396.92 85.9531
L397.022 85.9991
L397.521 86.0971
L397.621 86.1471
L398.021 86.239
L398.122 86.2994
L398.522 86.3931
L398.622 86.4585
L399.022 86.5478
L399.123 86.5998
L399.623 86.7102
L399.723 86.7641
L400.224 86.8619
L400.324 86.8956
L401.126 86.9955
L401.225 87.0272
L401.926 87.1308
L402.026 87.1679
L402.727 87.2671
L402.827 87.295
L403.928 87.3991
L404.028 87.4272
L405.029 87.5288
L405.13 87.5508
L406.031 87.656
L406.13 87.7045
L406.63 87.8054
L406.731 87.8606
L407.231 87.9615
L407.331 88.0048
L408.032 88.1061
L408.132 88.1493
L409.034 88.256
L409.134 88.2829
L410.035 88.3857
L410.135 88.4094
L412.437 88.5058
L412.537 88.5393
L413.038 88.6321
L413.138 88.6726
L413.74 88.7651
L413.838 88.8144
L414.34 88.9114
L414.439 88.9645
L414.94 89.0748
L415.04 89.1238
L415.541 89.2253
L415.641 89.2801
L416.041 89.3781
L416.141 89.4398
L416.642 89.5445
L416.742 89.5918
L417.242 89.6844
L417.342 89.7308
L417.943 89.8335
L418.043 89.8639
L418.744 89.9744
L418.844 90.0226
L419.745 90.1306
L419.845 90.1562
L420.546 90.2598
L420.646 90.3021
L421.246 90.4005
L421.347 90.4269
L423.55 90.5283
L423.649 90.5552
L425.851 90.6657
L425.952 90.6892
L426.753 90.7937
L426.852 90.8242
L427.653 90.9219
L427.754 90.95
L428.655 91.0569
L428.755 91.0895
L429.456 91.1934
L429.556 91.2225
L430.357 91.3301
L430.457 91.3698
L431.558 91.4773
L431.658 91.4908
L435.362 91.601
L435.462 91.6215
L444.973 91.5125
L445.072 91.5011
L446.774 91.3921
L446.875 91.3765
L448.176 91.2723
L448.276 91.2367
L449.077 91.1304
L449.177 91.092
L449.778 90.9982
L449.878 90.9492
L450.478 90.853
L450.578 90.8226
L451.479 90.7218
L451.58 90.6906
L452.681 90.5813
L452.781 90.5528
L453.682 90.4476
L453.782 90.4105
L454.483 90.3071
L454.583 90.2716
L455.284 90.1631
L455.384 90.121
L456.085 90.0173
L456.185 89.9787
L456.685 89.8869
L456.785 89.8352
L457.386 89.7258
L457.486 89.6875
L458.187 89.5772
L458.287 89.5349
L458.787 89.4458
L458.887 89.4002
L459.488 89.2891
L459.588 89.2367
L460.089 89.1359
L460.189 89.0822
L460.689 88.9776
L460.79 88.9345
L461.49 88.8248
L461.59 88.7925
L462.592 88.6886
L462.692 88.6723
L465.094 88.5712
L465.194 88.5503
L466.496 88.4472
L466.596 88.4285
L470 88.3212
L470.1 88.3046
L471.802 88.1978
L471.902 88.1825
L473.103 88.0789
L473.203 88.0619
L474.505 87.9509
L474.605 87.9252
L480.912 87.8204
L481.012 87.8014
L482.513 87.6963
L482.613 87.6831
L485.016 87.5732
L485.116 87.5692
L490.722 87.4638
L490.822 87.444
L492.324 87.3349
L492.424 87.329
L499.432 87.4387
L499.532 87.4623
L500.333 87.5672
L500.433 87.5999
L501.334 87.7056
L501.434 87.7232
L502.635 87.828
L502.735 87.8432
L503.937 87.9458
L504.037 87.9658
L505.238 88.0755
L505.338 88.1004
L506.139 88.1984
L506.239 88.2237
L507.04 88.331
L507.14 88.3631
L507.841 88.4626
L507.941 88.4995
L508.642 88.6087
L508.742 88.6514
L509.242 88.7508
L509.343 88.7983
L509.743 88.8826
L509.843 88.9398
L510.244 89.0315
L510.344 89.0933
L510.744 89.188
L510.844 89.2505
L511.245 89.3383
L511.345 89.3976
L511.745 89.4928
L511.845 89.5572
L512.246 89.6451
L512.346 89.707
L512.746 89.8085
L512.846 89.8744
L513.247 89.9779
L513.347 90.0399
L513.747 90.1293
L513.847 90.1853
L514.248 90.2684
L514.348 90.3263
L514.748 90.4197
L514.849 90.4871
L515.249 90.5903
L515.349 90.6576
L515.75 90.7562
L515.85 90.8134
L516.25 90.9045
L516.35 90.9644
L516.851 91.0722
L516.951 91.1149
L517.552 91.2105
L517.652 91.248
L518.252 91.3492
L518.352 91.3954
L518.953 91.5029
L519.053 91.5459
L519.654 91.6565
L519.754 91.7064
L520.254 91.8019
L520.355 91.8487
L520.855 91.9379
L520.955 91.9827
L521.556 92.0773
L521.656 92.1132
L522.357 92.215
L522.457 92.2481
L523.158 92.3498
L523.258 92.3828
L524.159 92.4884
L524.259 92.5117
L525.36 92.6158
L525.46 92.6378
L526.561 92.7426
L526.661 92.7589
L527.863 92.8681
L527.963 92.8873
L532.968 92.9923
L533.068 93.0057
L535.171 93.1125
L535.271 93.1225
L537.273 93.2302
L537.373 93.2464
L538.374 93.3558
L538.474 93.3724
L539.676 93.4817
L539.776 93.5086
L540.677 93.6097
L540.777 93.6358
L541.978 93.7404
L542.078 93.7547
L544.781 93.8606
L544.881 93.8777
L546.183 93.9847
L546.283 94.0001
L547.384 94.1047
L547.484 94.1266
L547.785 94.1469
L547.785 94.1568" style="fill:none;stroke:#0000ff;stroke-width:5.0;"/>
   </g>
   <g id="matplotlib.axis_1">
    <g id="xtick_1">
     <g id="line2d_2">
      <path d="
M183.103 397.415
L183.103 10.7445" style="fill:none;stroke:#000000;stroke-dasharray:1.000000,3.000000;stroke-dashoffset:0.0;stroke-linecap:butt;stroke-width:0.5;"/>
     </g>
     <g id="line2d_3">
      <defs>
       <path d="
M0 0
L0 -4" id="m3fbe6c24f1"/>
      </defs>
      <g>
       <use style="stroke:#000000;stroke-linecap:butt;stroke-width:0.5;" x="183.103401444" xlink:href="#m3fbe6c24f1" y="389.979416728"/>
      </g>
     </g>
     <g id="text_1">
      <!-- 5 -->
      <defs>
       <path d="
M10.7969 72.9062
L49.5156 72.9062
L49.5156 64.5938
L19.8281 64.5938
L19.8281 46.7344
Q21.9688 47.4688 24.1094 47.8281
Q26.2656 48.1875 28.4219 48.1875
Q40.625 48.1875 47.75 41.5
Q54.8906 34.8125 54.8906 23.3906
Q54.8906 11.625 47.5625 5.09375
Q40.2344 -1.42188 26.9062 -1.42188
Q22.3125 -1.42188 17.5469 -0.640625
Q12.7969 0.140625 7.71875 1.70312
L7.71875 11.625
Q12.1094 9.23438 16.7969 8.0625
Q21.4844 6.89062 26.7031 6.89062
Q35.1562 6.89062 40.0781 11.3281
Q45.0156 15.7656 45.0156 23.3906
Q45.0156 31 40.0781 35.4375
Q35.1562 39.8906 26.7031 39.8906
Q22.75 39.8906 18.8125 39.0156
Q14.8906 38.1406 10.7969 36.2812
z
" id="BitstreamVeraSans-Roman-35"/>
      </defs>
      <g transform="translate(177.442776444 411.476916728)scale(0.24 -0.24)">
       <use xlink:href="#BitstreamVeraSans-Roman-35"/>
      </g>
     </g>
    </g>
    <g id="xtick_2">
     <g id="line2d_4">
      <path d="
M318.969 397.415
L318.969 10.7445" style="fill:none;stroke:#000000;stroke-dasharray:1.000000,3.000000;stroke-dashoffset:0.0;stroke-linecap:butt;stroke-width:0.5;"/>
     </g>
     <g id="line2d_5">
      <defs>
       <path d="
M0 0
L0 -4" id="m3fbe6c24f1"/>
      </defs>
      <g>
       <use style="stroke:#000000;stroke-linecap:butt;stroke-width:0.5;" x="318.968760189" xlink:href="#m3fbe6c24f1" y="389.979416728"/>
      </g>
     </g>
     <g id="text_2">
      <!-- 10 -->
      <defs>
       <path d="
M31.7812 66.4062
Q24.1719 66.4062 20.3281 58.9062
Q16.5 51.4219 16.5 36.375
Q16.5 21.3906 20.3281 13.8906
Q24.1719 6.39062 31.7812 6.39062
Q39.4531 6.39062 43.2812 13.8906
Q47.125 21.3906 47.125 36.375
Q47.125 51.4219 43.2812 58.9062
Q39.4531 66.4062 31.7812 66.4062
M31.7812 74.2188
Q44.0469 74.2188 50.5156 64.5156
Q56.9844 54.8281 56.9844 36.375
Q56.9844 17.9688 50.5156 8.26562
Q44.0469 -1.42188 31.7812 -1.42188
Q19.5312 -1.42188 13.0625 8.26562
Q6.59375 17.9688 6.59375 36.375
Q6.59375 54.8281 13.0625 64.5156
Q19.5312 74.2188 31.7812 74.2188" id="BitstreamVeraSans-Roman-30"/>
       <path d="
M12.4062 8.29688
L28.5156 8.29688
L28.5156 63.9219
L10.9844 60.4062
L10.9844 69.3906
L28.4219 72.9062
L38.2812 72.9062
L38.2812 8.29688
L54.3906 8.29688
L54.3906 0
L12.4062 0
z
" id="BitstreamVeraSans-Roman-31"/>
      </defs>
      <g transform="translate(305.813760189 411.791916728)scale(0.24 -0.24)">
       <use xlink:href="#BitstreamVeraSans-Roman-31"/>
       <use x="63.623046875" xlink:href="#BitstreamVeraSans-Roman-30"/>
      </g>
     </g>
    </g>
    <g id="xtick_3">
     <g id="line2d_6">
      <path d="
M454.834 397.415
L454.834 10.7445" style="fill:none;stroke:#000000;stroke-dasharray:1.000000,3.000000;stroke-dashoffset:0.0;stroke-linecap:butt;stroke-width:0.5;"/>
     </g>
     <g id="line2d_7">
      <defs>
       <path d="
M0 0
L0 -4" id="m3fbe6c24f1"/>
      </defs>
      <g>
       <use style="stroke:#000000;stroke-linecap:butt;stroke-width:0.5;" x="454.834118934" xlink:href="#m3fbe6c24f1" y="389.979416728"/>
      </g>
     </g>
     <g id="text_3">
      <!-- 15 -->
      <g transform="translate(441.930368934 411.476916728)scale(0.24 -0.24)">
       <use xlink:href="#BitstreamVeraSans-Roman-31"/>
       <use x="63.623046875" xlink:href="#BitstreamVeraSans-Roman-35"/>
      </g>
     </g>
    </g>
    <g id="xtick_4">
     <g id="line2d_8">
      <defs>
       <path d="
M0 0
L0 -2" id="mf0ff38ea95"/>
      </defs>
      <g>
       <use style="stroke:#000000;stroke-linecap:butt;stroke-width:0.5;" x="74.4111144483" xlink:href="#mf0ff38ea95" y="389.979416728"/>
      </g>
     </g>
    </g>
    <g id="xtick_5">
     <g id="line2d_9">
      <defs>
       <path d="
M0 0
L0 -2" id="mf0ff38ea95"/>
      </defs>
      <g>
       <use style="stroke:#000000;stroke-linecap:butt;stroke-width:0.5;" x="101.584186197" xlink:href="#mf0ff38ea95" y="389.979416728"/>
      </g>
     </g>
    </g>
    <g id="xtick_6">
     <g id="line2d_10">
      <defs>
       <path d="
M0 0
L0 -2" id="mf0ff38ea95"/>
      </defs>
      <g>
       <use style="stroke:#000000;stroke-linecap:butt;stroke-width:0.5;" x="128.757257946" xlink:href="#mf0ff38ea95" y="389.979416728"/>
      </g>
     </g>
    </g>
    <g id="xtick_7">
     <g id="line2d_11">
      <defs>
       <path d="
M0 0
L0 -2" id="mf0ff38ea95"/>
      </defs>
      <g>
       <use style="stroke:#000000;stroke-linecap:butt;stroke-width:0.5;" x="155.930329695" xlink:href="#mf0ff38ea95" y="389.979416728"/>
      </g>
     </g>
    </g>
    <g id="xtick_8">
     <g id="line2d_12">
      <defs>
       <path d="
M0 0
L0 -2" id="mf0ff38ea95"/>
      </defs>
      <g>
       <use style="stroke:#000000;stroke-linecap:butt;stroke-width:0.5;" x="210.276473193" xlink:href="#mf0ff38ea95" y="389.979416728"/>
      </g>
     </g>
    </g>
    <g id="xtick_9">
     <g id="line2d_13">
      <defs>
       <path d="
M0 0
L0 -2" id="mf0ff38ea95"/>
      </defs>
      <g>
       <use style="stroke:#000000;stroke-linecap:butt;stroke-width:0.5;" x="237.449544942" xlink:href="#mf0ff38ea95" y="389.979416728"/>
      </g>
     </g>
    </g>
    <g id="xtick_10">
     <g id="line2d_14">
      <defs>
       <path d="
M0 0
L0 -2" id="mf0ff38ea95"/>
      </defs>
      <g>
       <use style="stroke:#000000;stroke-linecap:butt;stroke-width:0.5;" x="264.622616691" xlink:href="#mf0ff38ea95" y="389.979416728"/>
      </g>
     </g>
    </g>
    <g id="xtick_11">
     <g id="line2d_15">
      <defs>
       <path d="
M0 0
L0 -2" id="mf0ff38ea95"/>
      </defs>
      <g>
       <use style="stroke:#000000;stroke-linecap:butt;stroke-width:0.5;" x="291.79568844" xlink:href="#mf0ff38ea95" y="389.979416728"/>
      </g>
     </g>
    </g>
    <g id="xtick_12">
     <g id="line2d_16">
      <defs>
       <path d="
M0 0
L0 -2" id="mf0ff38ea95"/>
      </defs>
      <g>
       <use style="stroke:#000000;stroke-linecap:butt;stroke-width:0.5;" x="346.141831938" xlink:href="#mf0ff38ea95" y="389.979416728"/>
      </g>
     </g>
    </g>
    <g id="xtick_13">
     <g id="line2d_17">
      <defs>
       <path d="
M0 0
L0 -2" id="mf0ff38ea95"/>
      </defs>
      <g>
       <use style="stroke:#000000;stroke-linecap:butt;stroke-width:0.5;" x="373.314903687" xlink:href="#mf0ff38ea95" y="389.979416728"/>
      </g>
     </g>
    </g>
    <g id="xtick_14">
     <g id="line2d_18">
      <defs>
       <path d="
M0 0
L0 -2" id="mf0ff38ea95"/>
      </defs>
      <g>
       <use style="stroke:#000000;stroke-linecap:butt;stroke-width:0.5;" x="400.487975436" xlink:href="#mf0ff38ea95" y="389.979416728"/>
      </g>
     </g>
    </g>
    <g id="xtick_15">
     <g id="line2d_19">
      <defs>
       <path d="
M0 0
L0 -2" id="mf0ff38ea95"/>
      </defs>
      <g>
       <use style="stroke:#000000;stroke-linecap:butt;stroke-width:0.5;" x="427.661047185" xlink:href="#mf0ff38ea95" y="389.979416728"/>
      </g>
     </g>
    </g>
    <g id="xtick_16">
     <g id="line2d_20">
      <defs>
       <path d="
M0 0
L0 -2" id="mf0ff38ea95"/>
      </defs>
      <g>
       <use style="stroke:#000000;stroke-linecap:butt;stroke-width:0.5;" x="482.007190683" xlink:href="#mf0ff38ea95" y="389.979416728"/>
      </g>
     </g>
    </g>
    <g id="xtick_17">
     <g id="line2d_21">
      <defs>
       <path d="
M0 0
L0 -2" id="mf0ff38ea95"/>
      </defs>
      <g>
       <use style="stroke:#000000;stroke-linecap:butt;stroke-width:0.5;" x="509.180262432" xlink:href="#mf0ff38ea95" y="389.979416728"/>
      </g>
     </g>
    </g>
   </g>
   <g id="matplotlib.axis_2">
    <g id="ytick_1">
     <g id="line2d_22">
      <path d="
M56.4387 389.979
L557.419 389.979" style="fill:none;stroke:#000000;stroke-dasharray:1.000000,3.000000;stroke-dashoffset:0.0;stroke-linecap:butt;stroke-width:0.5;"/>
     </g>
     <g id="line2d_23">
      <defs>
       <path d="
M0 0
L4 0" id="mc91e532072"/>
      </defs>
      <g>
       <use style="stroke:#000000;stroke-linecap:butt;stroke-width:0.5;" x="46.43875" xlink:href="#mc91e532072" y="389.979416728"/>
      </g>
     </g>
     <g id="text_4">
      <!-- 0 -->
      <g transform="translate(30.345 398.715041728)scale(0.24 -0.24)">
       <use xlink:href="#BitstreamVeraSans-Roman-30"/>
      </g>
     </g>
    </g>
    <g id="ytick_2">
     <g id="line2d_24">
      <path d="
M56.4387 336.593
L557.419 336.593" style="fill:none;stroke:#000000;stroke-dasharray:1.000000,3.000000;stroke-dashoffset:0.0;stroke-linecap:butt;stroke-width:0.5;"/>
     </g>
     <g id="line2d_25">
      <defs>
       <path d="
M0 0
L4 0" id="mc91e532072"/>
      </defs>
      <g>
       <use style="stroke:#000000;stroke-linecap:butt;stroke-width:0.5;" x="46.43875" xlink:href="#mc91e532072" y="336.593339338"/>
      </g>
     </g>
     <g id="text_5">
      <!-- 0.1 -->
      <defs>
       <path d="
M10.6875 12.4062
L21 12.4062
L21 0
L10.6875 0
z
" id="BitstreamVeraSans-Roman-2e"/>
      </defs>
      <g transform="translate(8.07 345.328964338)scale(0.24 -0.24)">
       <use xlink:href="#BitstreamVeraSans-Roman-30"/>
       <use x="63.623046875" xlink:href="#BitstreamVeraSans-Roman-2e"/>
       <use x="95.41015625" xlink:href="#BitstreamVeraSans-Roman-31"/>
      </g>
     </g>
    </g>
    <g id="ytick_3">
     <g id="line2d_26">
      <path d="
M56.4387 283.207
L557.419 283.207" style="fill:none;stroke:#000000;stroke-dasharray:1.000000,3.000000;stroke-dashoffset:0.0;stroke-linecap:butt;stroke-width:0.5;"/>
     </g>
     <g id="line2d_27">
      <defs>
       <path d="
M0 0
L4 0" id="mc91e532072"/>
      </defs>
      <g>
       <use style="stroke:#000000;stroke-linecap:butt;stroke-width:0.5;" x="46.43875" xlink:href="#mc91e532072" y="283.207261948"/>
      </g>
     </g>
     <g id="text_6">
      <!-- 0.2 -->
      <defs>
       <path d="
M19.1875 8.29688
L53.6094 8.29688
L53.6094 0
L7.32812 0
L7.32812 8.29688
Q12.9375 14.1094 22.625 23.8906
Q32.3281 33.6875 34.8125 36.5312
Q39.5469 41.8438 41.4219 45.5312
Q43.3125 49.2188 43.3125 52.7812
Q43.3125 58.5938 39.2344 62.25
Q35.1562 65.9219 28.6094 65.9219
Q23.9688 65.9219 18.8125 64.3125
Q13.6719 62.7031 7.8125 59.4219
L7.8125 69.3906
Q13.7656 71.7812 18.9375 73
Q24.125 74.2188 28.4219 74.2188
Q39.75 74.2188 46.4844 68.5469
Q53.2188 62.8906 53.2188 53.4219
Q53.2188 48.9219 51.5312 44.8906
Q49.8594 40.875 45.4062 35.4062
Q44.1875 33.9844 37.6406 27.2188
Q31.1094 20.4531 19.1875 8.29688" id="BitstreamVeraSans-Roman-32"/>
      </defs>
      <g transform="translate(8.2575 291.942886948)scale(0.24 -0.24)">
       <use xlink:href="#BitstreamVeraSans-Roman-30"/>
       <use x="63.623046875" xlink:href="#BitstreamVeraSans-Roman-2e"/>
       <use x="95.41015625" xlink:href="#BitstreamVeraSans-Roman-32"/>
      </g>
     </g>
    </g>
    <g id="ytick_4">
     <g id="line2d_28">
      <path d="
M56.4387 229.821
L557.419 229.821" style="fill:none;stroke:#000000;stroke-dasharray:1.000000,3.000000;stroke-dashoffset:0.0;stroke-linecap:butt;stroke-width:0.5;"/>
     </g>
     <g id="line2d_29">
      <defs>
       <path d="
M0 0
L4 0" id="mc91e532072"/>
      </defs>
      <g>
       <use style="stroke:#000000;stroke-linecap:butt;stroke-width:0.5;" x="46.43875" xlink:href="#mc91e532072" y="229.821184559"/>
      </g>
     </g>
     <g id="text_7">
      <!-- 0.3 -->
      <defs>
       <path d="
M40.5781 39.3125
Q47.6562 37.7969 51.625 33
Q55.6094 28.2188 55.6094 21.1875
Q55.6094 10.4062 48.1875 4.48438
Q40.7656 -1.42188 27.0938 -1.42188
Q22.5156 -1.42188 17.6562 -0.515625
Q12.7969 0.390625 7.625 2.20312
L7.625 11.7188
Q11.7188 9.32812 16.5938 8.10938
Q21.4844 6.89062 26.8125 6.89062
Q36.0781 6.89062 40.9375 10.5469
Q45.7969 14.2031 45.7969 21.1875
Q45.7969 27.6406 41.2812 31.2656
Q36.7656 34.9062 28.7188 34.9062
L20.2188 34.9062
L20.2188 43.0156
L29.1094 43.0156
Q36.375 43.0156 40.2344 45.9219
Q44.0938 48.8281 44.0938 54.2969
Q44.0938 59.9062 40.1094 62.9062
Q36.1406 65.9219 28.7188 65.9219
Q24.6562 65.9219 20.0156 65.0312
Q15.375 64.1562 9.8125 62.3125
L9.8125 71.0938
Q15.4375 72.6562 20.3438 73.4375
Q25.25 74.2188 29.5938 74.2188
Q40.8281 74.2188 47.3594 69.1094
Q53.9062 64.0156 53.9062 55.3281
Q53.9062 49.2656 50.4375 45.0938
Q46.9688 40.9219 40.5781 39.3125" id="BitstreamVeraSans-Roman-33"/>
      </defs>
      <g transform="translate(7.7775 238.556809559)scale(0.24 -0.24)">
       <use xlink:href="#BitstreamVeraSans-Roman-30"/>
       <use x="63.623046875" xlink:href="#BitstreamVeraSans-Roman-2e"/>
       <use x="95.41015625" xlink:href="#BitstreamVeraSans-Roman-33"/>
      </g>
     </g>
    </g>
    <g id="ytick_5">
     <g id="line2d_30">
      <path d="
M56.4387 176.435
L557.419 176.435" style="fill:none;stroke:#000000;stroke-dasharray:1.000000,3.000000;stroke-dashoffset:0.0;stroke-linecap:butt;stroke-width:0.5;"/>
     </g>
     <g id="line2d_31">
      <defs>
       <path d="
M0 0
L4 0" id="mc91e532072"/>
      </defs>
      <g>
       <use style="stroke:#000000;stroke-linecap:butt;stroke-width:0.5;" x="46.43875" xlink:href="#mc91e532072" y="176.435107169"/>
      </g>
     </g>
     <g id="text_8">
      <!-- 0.4 -->
      <defs>
       <path d="
M37.7969 64.3125
L12.8906 25.3906
L37.7969 25.3906
z

M35.2031 72.9062
L47.6094 72.9062
L47.6094 25.3906
L58.0156 25.3906
L58.0156 17.1875
L47.6094 17.1875
L47.6094 0
L37.7969 0
L37.7969 17.1875
L4.89062 17.1875
L4.89062 26.7031
z
" id="BitstreamVeraSans-Roman-34"/>
      </defs>
      <g transform="translate(7.2 185.170732169)scale(0.24 -0.24)">
       <use xlink:href="#BitstreamVeraSans-Roman-30"/>
       <use x="63.623046875" xlink:href="#BitstreamVeraSans-Roman-2e"/>
       <use x="95.41015625" xlink:href="#BitstreamVeraSans-Roman-34"/>
      </g>
     </g>
    </g>
    <g id="ytick_6">
     <g id="line2d_32">
      <path d="
M56.4387 123.049
L557.419 123.049" style="fill:none;stroke:#000000;stroke-dasharray:1.000000,3.000000;stroke-dashoffset:0.0;stroke-linecap:butt;stroke-width:0.5;"/>
     </g>
     <g id="line2d_33">
      <defs>
       <path d="
M0 0
L4 0" id="mc91e532072"/>
      </defs>
      <g>
       <use style="stroke:#000000;stroke-linecap:butt;stroke-width:0.5;" x="46.43875" xlink:href="#mc91e532072" y="123.049029779"/>
      </g>
     </g>
     <g id="text_9">
      <!-- 0.5 -->
      <g transform="translate(7.95 131.784654779)scale(0.24 -0.24)">
       <use xlink:href="#BitstreamVeraSans-Roman-30"/>
       <use x="63.623046875" xlink:href="#BitstreamVeraSans-Roman-2e"/>
       <use x="95.41015625" xlink:href="#BitstreamVeraSans-Roman-35"/>
      </g>
     </g>
    </g>
    <g id="ytick_7">
     <g id="line2d_34">
      <path d="
M56.4387 69.663
L557.419 69.663" style="fill:none;stroke:#000000;stroke-dasharray:1.000000,3.000000;stroke-dashoffset:0.0;stroke-linecap:butt;stroke-width:0.5;"/>
     </g>
     <g id="line2d_35">
      <defs>
       <path d="
M0 0
L4 0" id="mc91e532072"/>
      </defs>
      <g>
       <use style="stroke:#000000;stroke-linecap:butt;stroke-width:0.5;" x="46.43875" xlink:href="#mc91e532072" y="69.6629523896"/>
      </g>
     </g>
     <g id="text_10">
      <!-- 0.6 -->
      <defs>
       <path d="
M33.0156 40.375
Q26.375 40.375 22.4844 35.8281
Q18.6094 31.2969 18.6094 23.3906
Q18.6094 15.5312 22.4844 10.9531
Q26.375 6.39062 33.0156 6.39062
Q39.6562 6.39062 43.5312 10.9531
Q47.4062 15.5312 47.4062 23.3906
Q47.4062 31.2969 43.5312 35.8281
Q39.6562 40.375 33.0156 40.375
M52.5938 71.2969
L52.5938 62.3125
Q48.875 64.0625 45.0938 64.9844
Q41.3125 65.9219 37.5938 65.9219
Q27.8281 65.9219 22.6719 59.3281
Q17.5312 52.7344 16.7969 39.4062
Q19.6719 43.6562 24.0156 45.9219
Q28.375 48.1875 33.5938 48.1875
Q44.5781 48.1875 50.9531 41.5156
Q57.3281 34.8594 57.3281 23.3906
Q57.3281 12.1562 50.6875 5.35938
Q44.0469 -1.42188 33.0156 -1.42188
Q20.3594 -1.42188 13.6719 8.26562
Q6.98438 17.9688 6.98438 36.375
Q6.98438 53.6562 15.1875 63.9375
Q23.3906 74.2188 37.2031 74.2188
Q40.9219 74.2188 44.7031 73.4844
Q48.4844 72.75 52.5938 71.2969" id="BitstreamVeraSans-Roman-36"/>
      </defs>
      <g transform="translate(7.365 78.3985773896)scale(0.24 -0.24)">
       <use xlink:href="#BitstreamVeraSans-Roman-30"/>
       <use x="63.623046875" xlink:href="#BitstreamVeraSans-Roman-2e"/>
       <use x="95.41015625" xlink:href="#BitstreamVeraSans-Roman-36"/>
      </g>
     </g>
    </g>
    <g id="ytick_8">
     <g id="line2d_36">
      <path d="
M56.4387 16.2769
L557.419 16.2769" style="fill:none;stroke:#000000;stroke-dasharray:1.000000,3.000000;stroke-dashoffset:0.0;stroke-linecap:butt;stroke-width:0.5;"/>
     </g>
     <g id="line2d_37">
      <defs>
       <path d="
M0 0
L4 0" id="mc91e532072"/>
      </defs>
      <g>
       <use style="stroke:#000000;stroke-linecap:butt;stroke-width:0.5;" x="46.43875" xlink:href="#mc91e532072" y="16.276875"/>
      </g>
     </g>
     <g id="text_11">
      <!-- 0.7 -->
      <defs>
       <path d="
M8.20312 72.9062
L55.0781 72.9062
L55.0781 68.7031
L28.6094 0
L18.3125 0
L43.2188 64.5938
L8.20312 64.5938
z
" id="BitstreamVeraSans-Roman-37"/>
      </defs>
      <g transform="translate(7.905 25.0125)scale(0.24 -0.24)">
       <use xlink:href="#BitstreamVeraSans-Roman-30"/>
       <use x="63.623046875" xlink:href="#BitstreamVeraSans-Roman-2e"/>
       <use x="95.41015625" xlink:href="#BitstreamVeraSans-Roman-37"/>
      </g>
     </g>
    </g>
    <g id="ytick_9">
     <g id="line2d_38">
      <defs>
       <path d="
M0 0
L2 0" id="m0789224b6b"/>
      </defs>
      <g>
       <use style="stroke:#000000;stroke-linecap:butt;stroke-width:0.5;" x="46.43875" xlink:href="#m0789224b6b" y="379.30220125"/>
      </g>
     </g>
    </g>
    <g id="ytick_10">
     <g id="line2d_39">
      <defs>
       <path d="
M0 0
L2 0" id="m0789224b6b"/>
      </defs>
      <g>
       <use style="stroke:#000000;stroke-linecap:butt;stroke-width:0.5;" x="46.43875" xlink:href="#m0789224b6b" y="368.624985772"/>
      </g>
     </g>
    </g>
    <g id="ytick_11">
     <g id="line2d_40">
      <defs>
       <path d="
M0 0
L2 0" id="m0789224b6b"/>
      </defs>
      <g>
       <use style="stroke:#000000;stroke-linecap:butt;stroke-width:0.5;" x="46.43875" xlink:href="#m0789224b6b" y="357.947770294"/>
      </g>
     </g>
    </g>
    <g id="ytick_12">
     <g id="line2d_41">
      <defs>
       <path d="
M0 0
L2 0" id="m0789224b6b"/>
      </defs>
      <g>
       <use style="stroke:#000000;stroke-linecap:butt;stroke-width:0.5;" x="46.43875" xlink:href="#m0789224b6b" y="347.270554816"/>
      </g>
     </g>
    </g>
    <g id="ytick_13">
     <g id="line2d_42">
      <defs>
       <path d="
M0 0
L2 0" id="m0789224b6b"/>
      </defs>
      <g>
       <use style="stroke:#000000;stroke-linecap:butt;stroke-width:0.5;" x="46.43875" xlink:href="#m0789224b6b" y="325.91612386"/>
      </g>
     </g>
    </g>
    <g id="ytick_14">
     <g id="line2d_43">
      <defs>
       <path d="
M0 0
L2 0" id="m0789224b6b"/>
      </defs>
      <g>
       <use style="stroke:#000000;stroke-linecap:butt;stroke-width:0.5;" x="46.43875" xlink:href="#m0789224b6b" y="315.238908382"/>
      </g>
     </g>
    </g>
    <g id="ytick_15">
     <g id="line2d_44">
      <defs>
       <path d="
M0 0
L2 0" id="m0789224b6b"/>
      </defs>
      <g>
       <use style="stroke:#000000;stroke-linecap:butt;stroke-width:0.5;" x="46.43875" xlink:href="#m0789224b6b" y="304.561692904"/>
      </g>
     </g>
    </g>
    <g id="ytick_16">
     <g id="line2d_45">
      <defs>
       <path d="
M0 0
L2 0" id="m0789224b6b"/>
      </defs>
      <g>
       <use style="stroke:#000000;stroke-linecap:butt;stroke-width:0.5;" x="46.43875" xlink:href="#m0789224b6b" y="293.884477426"/>
      </g>
     </g>
    </g>
    <g id="ytick_17">
     <g id="line2d_46">
      <defs>
       <path d="
M0 0
L2 0" id="m0789224b6b"/>
      </defs>
      <g>
       <use style="stroke:#000000;stroke-linecap:butt;stroke-width:0.5;" x="46.43875" xlink:href="#m0789224b6b" y="272.53004647"/>
      </g>
     </g>
    </g>
    <g id="ytick_18">
     <g id="line2d_47">
      <defs>
       <path d="
M0 0
L2 0" id="m0789224b6b"/>
      </defs>
      <g>
       <use style="stroke:#000000;stroke-linecap:butt;stroke-width:0.5;" x="46.43875" xlink:href="#m0789224b6b" y="261.852830992"/>
      </g>
     </g>
    </g>
    <g id="ytick_19">
     <g id="line2d_48">
      <defs>
       <path d="
M0 0
L2 0" id="m0789224b6b"/>
      </defs>
      <g>
       <use style="stroke:#000000;stroke-linecap:butt;stroke-width:0.5;" x="46.43875" xlink:href="#m0789224b6b" y="251.175615514"/>
      </g>
     </g>
    </g>
    <g id="ytick_20">
     <g id="line2d_49">
      <defs>
       <path d="
M0 0
L2 0" id="m0789224b6b"/>
      </defs>
      <g>
       <use style="stroke:#000000;stroke-linecap:butt;stroke-width:0.5;" x="46.43875" xlink:href="#m0789224b6b" y="240.498400037"/>
      </g>
     </g>
    </g>
    <g id="ytick_21">
     <g id="line2d_50">
      <defs>
       <path d="
M0 0
L2 0" id="m0789224b6b"/>
      </defs>
      <g>
       <use style="stroke:#000000;stroke-linecap:butt;stroke-width:0.5;" x="46.43875" xlink:href="#m0789224b6b" y="219.143969081"/>
      </g>
     </g>
    </g>
    <g id="ytick_22">
     <g id="line2d_51">
      <defs>
       <path d="
M0 0
L2 0" id="m0789224b6b"/>
      </defs>
      <g>
       <use style="stroke:#000000;stroke-linecap:butt;stroke-width:0.5;" x="46.43875" xlink:href="#m0789224b6b" y="208.466753603"/>
      </g>
     </g>
    </g>
    <g id="ytick_23">
     <g id="line2d_52">
      <defs>
       <path d="
M0 0
L2 0" id="m0789224b6b"/>
      </defs>
      <g>
       <use style="stroke:#000000;stroke-linecap:butt;stroke-width:0.5;" x="46.43875" xlink:href="#m0789224b6b" y="197.789538125"/>
      </g>
     </g>
    </g>
    <g id="ytick_24">
     <g id="line2d_53">
      <defs>
       <path d="
M0 0
L2 0" id="m0789224b6b"/>
      </defs>
      <g>
       <use style="stroke:#000000;stroke-linecap:butt;stroke-width:0.5;" x="46.43875" xlink:href="#m0789224b6b" y="187.112322647"/>
      </g>
     </g>
    </g>
    <g id="ytick_25">
     <g id="line2d_54">
      <defs>
       <path d="
M0 0
L2 0" id="m0789224b6b"/>
      </defs>
      <g>
       <use style="stroke:#000000;stroke-linecap:butt;stroke-width:0.5;" x="46.43875" xlink:href="#m0789224b6b" y="165.757891691"/>
      </g>
     </g>
    </g>
    <g id="ytick_26">
     <g id="line2d_55">
      <defs>
       <path d="
M0 0
L2 0" id="m0789224b6b"/>
      </defs>
      <g>
       <use style="stroke:#000000;stroke-linecap:butt;stroke-width:0.5;" x="46.43875" xlink:href="#m0789224b6b" y="155.080676213"/>
      </g>
     </g>
    </g>
    <g id="ytick_27">
     <g id="line2d_56">
      <defs>
       <path d="
M0 0
L2 0" id="m0789224b6b"/>
      </defs>
      <g>
       <use style="stroke:#000000;stroke-linecap:butt;stroke-width:0.5;" x="46.43875" xlink:href="#m0789224b6b" y="144.403460735"/>
      </g>
     </g>
    </g>
    <g id="ytick_28">
     <g id="line2d_57">
      <defs>
       <path d="
M0 0
L2 0" id="m0789224b6b"/>
      </defs>
      <g>
       <use style="stroke:#000000;stroke-linecap:butt;stroke-width:0.5;" x="46.43875" xlink:href="#m0789224b6b" y="133.726245257"/>
      </g>
     </g>
    </g>
    <g id="ytick_29">
     <g id="line2d_58">
      <defs>
       <path d="
M0 0
L2 0" id="m0789224b6b"/>
      </defs>
      <g>
       <use style="stroke:#000000;stroke-linecap:butt;stroke-width:0.5;" x="46.43875" xlink:href="#m0789224b6b" y="112.371814301"/>
      </g>
     </g>
    </g>
    <g id="ytick_30">
     <g id="line2d_59">
      <defs>
       <path d="
M0 0
L2 0" id="m0789224b6b"/>
      </defs>
      <g>
       <use style="stroke:#000000;stroke-linecap:butt;stroke-width:0.5;" x="46.43875" xlink:href="#m0789224b6b" y="101.694598823"/>
      </g>
     </g>
    </g>
    <g id="ytick_31">
     <g id="line2d_60">
      <defs>
       <path d="
M0 0
L2 0" id="m0789224b6b"/>
      </defs>
      <g>
       <use style="stroke:#000000;stroke-linecap:butt;stroke-width:0.5;" x="46.43875" xlink:href="#m0789224b6b" y="91.0173833455"/>
      </g>
     </g>
    </g>
    <g id="ytick_32">
     <g id="line2d_61">
      <defs>
       <path d="
M0 0
L2 0" id="m0789224b6b"/>
      </defs>
      <g>
       <use style="stroke:#000000;stroke-linecap:butt;stroke-width:0.5;" x="46.43875" xlink:href="#m0789224b6b" y="80.3401678676"/>
      </g>
     </g>
    </g>
    <g id="ytick_33">
     <g id="line2d_62">
      <defs>
       <path d="
M0 0
L2 0" id="m0789224b6b"/>
      </defs>
      <g>
       <use style="stroke:#000000;stroke-linecap:butt;stroke-width:0.5;" x="46.43875" xlink:href="#m0789224b6b" y="58.9857369117"/>
      </g>
     </g>
    </g>
    <g id="ytick_34">
     <g id="line2d_63">
      <defs>
       <path d="
M0 0
L2 0" id="m0789224b6b"/>
      </defs>
      <g>
       <use style="stroke:#000000;stroke-linecap:butt;stroke-width:0.5;" x="46.43875" xlink:href="#m0789224b6b" y="48.3085214338"/>
      </g>
     </g>
    </g>
    <g id="ytick_35">
     <g id="line2d_64">
      <defs>
       <path d="
M0 0
L2 0" id="m0789224b6b"/>
      </defs>
      <g>
       <use style="stroke:#000000;stroke-linecap:butt;stroke-width:0.5;" x="46.43875" xlink:href="#m0789224b6b" y="37.6313059559"/>
      </g>
     </g>
    </g>
    <g id="ytick_36">
     <g id="line2d_65">
      <defs>
       <path d="
M0 0
L2 0" id="m0789224b6b"/>
      </defs>
      <g>
       <use style="stroke:#000000;stroke-linecap:butt;stroke-width:0.5;" x="46.43875" xlink:href="#m0789224b6b" y="26.9540904779"/>
      </g>
     </g>
    </g>
   </g>
   <g id="patch_3">
    <path d="
M56.4387 389.979
L557.419 389.979" style="fill:none;stroke:#000000;stroke-width:0.8;"/>
   </g>
   <g id="patch_4">
    <path d="
M46.4387 397.415
L46.4387 10.7445" style="fill:none;stroke:#000000;stroke-width:0.8;"/>
   </g>
  </g>
 </g>
 <defs>
  <clipPath id="pdc6e8e9464">
   <rect height="386.670916789" width="500.98" x="56.43875" y="10.7444791072"/>
  </clipPath>
 </defs>
</svg>
