<?xml version="1.0" encoding="utf-8" standalone="no"?>
<!DOCTYPE svg PUBLIC "-//W3C//DTD SVG 1.1//EN"
  "http://www.w3.org/Graphics/SVG/1.1/DTD/svg11.dtd">
<!-- Created with matplotlib (http://matplotlib.sourceforge.net/) -->
<svg height="419pt" version="1.1" viewBox="0 0 564 419" width="564pt" xmlns="http://www.w3.org/2000/svg" xmlns:xlink="http://www.w3.org/1999/xlink">
 <defs>
  <style type="text/css">
*{stroke-linecap:square;stroke-linejoin:round;}
  </style>
 </defs>
 <g id="figure_1">
  <g id="patch_1">
   <path d="
M0 419.766
L564.544 419.766
L564.544 0
L0 0
z
" style="fill:#ffffff;"/>
  </g>
  <g id="axes_1">
   <g id="patch_2">
    <path d="
M55.6887 397.926
L557.344 397.926
L557.344 7.2
L55.6887 7.2
z
" style="fill:#ffffff;"/>
   </g>
   <g id="line2d_1">
    <path clip-path="url(#pda58150b38)" d="
M65.336 390.412
L76.3685 390.412
L76.3685 363.937
L90.2679 363.937
L90.2679 322.599
L99.4232 322.599
L99.4232 285.305
L111.722 285.305
L111.722 251.527
L116.267 251.527
L116.267 232.373
L123.566 232.373
L123.566 204.075
L126.593 204.075
L126.593 187.63
L131.791 187.63
L131.791 176.281
L138.099 176.281
L138.099 158.705
L139.913 158.705
L139.913 153.555
L144.728 153.555
L144.728 141.433
L147.521 141.433
L147.521 134.387
L148.817 134.387
L148.817 130.137
L151.237 130.137
L151.237 121.273
L154.506 121.273
L154.506 106.931
L157.424 106.931
L157.424 94.6929
L158.331 94.6929
L158.331 92.32
L160.884 92.32
L160.884 85.7923
L162.462 85.7923
L162.462 81.4552
L163.218 81.4552
L163.218 78.9122
L165.367 78.9122
L165.367 73.1626
L166.711 73.1626
L166.711 71.5447
L168.61 71.5447
L168.61 67.6814
L170.952 67.6814
L170.952 62.3046
L172.052 62.3046
L172.052 59.2113
L172.585 59.2113
L172.585 57.9603
L173.622 57.9603
L173.622 55.6015
L174.126 55.6015
L174.126 54.1207
L175.106 54.1207
L175.106 50.9653
L178.284 50.9653
L178.284 38.274
L179.128 38.274
L179.128 34.7801
L180.347 34.7801
L180.347 30.1433
L180.741 30.1433
L180.741 28.5704
L182.631 28.5704
L182.631 23.0509
L182.994 23.0509
L182.994 21.8752
L184.054 21.8752
L184.054 19.2498
L185.075 19.2498
L185.075 17.2411
L185.735 17.2411
L185.735 16.1972
L186.695 16.1972
L186.695 15.6249
L187.623 15.6249
L187.623 14.7641
L189.388 14.714
L189.388 15.4508
L189.672 15.4508
L189.672 15.714
L190.23 15.714
L190.23 16.4219
L190.505 16.4219
L190.505 16.752
L192.098 16.752
L192.098 19.487
L193.603 19.487
L193.603 21.4882
L194.087 21.4882
L194.087 22.2423
L194.326 22.2423
L194.326 22.5311
L194.797 22.5311
L194.797 23.235
L195.488 23.235
L195.488 24.1492
L195.715 24.1492
L195.715 24.498
L196.821 24.498
L196.821 26.133
L197.464 26.133
L197.464 27.0783
L198.092 27.0783
L198.092 28.4749
L198.706 28.4749
L198.706 29.344
L198.908 29.344
L198.908 29.5211
L199.503 29.5211
L199.503 30.1032
L199.893 30.1032
L199.893 30.5768
L200.086 30.5768
L200.086 30.8559
L201.031 30.8559
L201.031 31.9584
L202.301 31.9584
L202.301 33.606
L202.654 33.606
L202.654 33.9718
L202.828 33.9718
L202.828 34.2263
L203.174 34.2263
L203.174 34.9459
L204.349 34.9459
L204.349 37.5168
L204.838 37.5168
L204.838 38.5361
L205.634 38.5361
L205.634 39.7844
L205.79 39.7844
L205.79 40.0878
L206.1 40.0878
L206.1 40.5836
L206.559 40.5836
L206.559 41.3313
L207.159 41.3313
L207.159 42.6525
L207.6 42.6525
L207.6 43.4303
L208.034 43.4303
L208.034 44.2075
L208.32 44.2075
L208.32 44.6777
L208.743 44.6777
L208.743 45.2565
L209.297 45.2565
L209.297 45.9198
L209.569 45.9198
L209.569 46.3088
L210.107 46.3088
L210.107 47.3702
L210.764 47.3702
L210.764 48.5129
L210.894 48.5129
L210.894 48.8183
L211.533 48.8183
L211.533 50.5327
L211.658 50.5327
L211.658 50.8689
L212.033 50.8689
L212.033 51.9885
L212.28 51.9885
L212.28 52.8697
L212.646 52.8697
L212.646 54.1052
L213.126 54.1052
L213.126 55.8966
L213.363 55.8966
L213.363 56.8631
L213.481 56.8631
L213.481 57.3517
L213.715 57.3517
L213.715 58.4384
L214.406 58.4384
L214.406 61.3849
L214.856 61.3849
L214.856 63.141
L215.079 63.141
L215.079 64.0389
L215.519 64.0389
L215.519 65.7788
L215.736 65.7788
L215.736 66.5535
L216.059 66.5535
L216.059 67.8661
L216.693 67.8661
L216.797 70.6631
L217.718 70.6631
L217.718 74.0862
L218.018 74.0862
L218.018 75.0956
L218.511 75.0956
L218.511 76.8597
L218.802 76.8597
L218.802 77.9436
L219.091 77.9436
L219.186 79.529
L219.471 79.529
L219.471 80.75
L219.938 80.75
L219.938 82.7111
L220.215 82.7111
L220.215 83.9253
L220.489 83.9253
L220.579 85.4395
L220.85 85.4395
L220.85 86.4818
L221.117 86.4818
L221.117 87.4165
L221.294 87.4165
L221.382 88.3228
L221.905 88.3228
L221.905 89.8403
L222.333 89.8403
L222.417 91.2759
L222.586 91.2759
L222.586 91.687
L222.837 91.687
L222.837 92.3882
L223.086 92.3882
L223.169 93.1598
L223.658 93.1598
L223.658 94.2398
L223.819 94.2398
L223.819 94.666
L224.06 94.666
L224.06 95.2012
L224.376 95.2012
L224.376 95.9652
L224.767 95.9652
L224.767 97.0504
L225.076 97.0504
L225.076 97.8278
L225.457 97.8278
L225.457 98.6911
L225.758 98.6911
L225.758 99.3696
L225.982 99.3696
L225.982 99.8878
L226.204 99.8878
L226.204 100.309
L226.351 100.309
L226.351 100.624
L226.642 100.624
L226.642 101.246
L226.859 101.246
L226.859 101.631
L227.002 101.631
L227.002 101.918
L227.286 101.918
L227.286 102.471
L227.428 102.471
L227.428 102.728
L227.916 102.728
L227.916 103.506
L228.26 103.506
L228.26 104.062
L228.666 104.062
L228.733 104.738
L229.067 104.738
L229.133 105.489
L229.265 105.489
L229.331 105.789
L229.657 105.789
L229.657 106.308
L230.107 106.308
L230.107 106.883
L230.235 106.883
L230.298 107.069
L230.424 107.069
L230.424 107.248
L230.862 107.248
L230.862 107.763
L230.986 107.763
L231.048 108.026
L231.171 108.026
L231.171 108.214
L231.777 108.214
L231.777 109.191
L231.897 109.191
L231.897 109.414
L232.135 109.414
L232.135 109.87
L232.43 109.87
L232.43 110.516
L232.663 110.516
L232.663 110.977
L232.779 110.977
L232.779 111.184
L232.952 111.184
L232.952 111.548
L233.124 111.548
L233.124 111.913
L233.52 111.913
L233.52 112.629
L233.633 112.629
L233.633 112.815
L233.8 112.815
L233.8 113.089
L233.967 113.089
L233.967 113.372
L234.187 113.372
L234.187 113.698
L234.352 113.698
L234.352 113.905
L234.677 113.905
L234.785 114.352
L234.946 114.352
L234.999 114.498
L235.264 114.498
L235.317 114.692
L235.735 114.771
L235.787 114.867
L237.444 114.79
L237.444 114.722
L238.26 114.674
L238.307 114.513
L238.542 114.513
L238.542 114.325
L238.729 114.325
L238.729 114.18
L238.96 114.18
L238.96 114.06
L239.235 113.976
L239.235 113.862
L239.417 113.862
L239.417 113.742
L239.688 113.742
L239.777 113.477
L240.044 113.393
L240.088 113.325
L240.483 113.259
L240.483 113.081
L240.7 113.081
L240.7 112.952
L241.087 112.952
L241.129 112.775
L241.509 112.688
L241.593 112.603
L241.967 112.529
L242.008 112.313
L242.82 112.247
L242.82 111.967
L243.059 111.919
L243.059 111.835
L243.217 111.835
L243.217 111.698
L243.569 111.698
L243.569 111.494
L243.763 111.494
L243.763 111.372
L244.032 111.372
L244.109 111.129
L244.336 111.067
L244.336 110.999
L244.562 110.91
L244.6 110.814
L244.712 110.814
L244.712 110.683
L244.935 110.683
L244.935 110.427
L245.119 110.427
L245.229 110.127
L245.339 110.096
L245.448 109.921
L245.665 109.921
L245.665 109.78
L246.235 109.669
L246.341 109.593
L246.724 109.506
L246.724 109.47
L247.171 109.434
L247.239 109.342
L248.273 109.239
L248.371 109.159
L248.759 109.159
L248.856 108.904
L249.206 108.84
L249.237 108.754
L251.912 108.849
L251.998 108.949
L252.591 108.899
L252.619 108.82
L253.007 108.729
L253.116 108.675
L254.374 108.776
L254.478 108.831
L254.764 108.907
L254.789 109.016
L254.995 109.016
L255.097 109.26
L255.3 109.312
L255.4 109.427
L255.626 109.427
L255.626 109.593
L255.924 109.593
L255.974 109.831
L256.146 109.907
L256.146 109.999
L256.341 109.999
L256.414 110.27
L256.511 110.27
L256.511 110.396
L256.703 110.396
L256.775 110.729
L256.942 110.839
L257.014 110.995
L257.203 111.046
L257.226 111.223
L257.484 111.223
L257.577 111.538
L257.693 111.609
L257.763 111.711
L257.924 111.711
L257.993 111.873
L258.243 111.974
L258.243 112.016
L258.514 112.118
L258.514 112.143
L258.782 112.235
L258.782 112.271
L259.07 112.368
L259.114 112.396
L259.593 112.501
L259.701 112.592
L259.894 112.67
L259.979 112.793
L260.212 112.793
L260.212 112.984
L260.359 113.084
L260.359 113.098
L260.527 113.098
L260.61 113.274
L260.776 113.311
L260.776 113.402
L260.92 113.402
L261.023 113.66
L261.166 113.724
L261.227 113.893
L261.328 113.971
L261.389 114.08
L261.53 114.143
L261.59 114.295
L261.75 114.356
L261.77 114.461
L262.127 114.568
L262.225 114.651
L262.42 114.729
L262.478 114.831
L262.633 114.831
L262.633 114.965
L262.768 114.965
L262.864 115.217
L262.997 115.318
L263.036 115.437
L263.206 115.437
L263.282 115.778
L263.376 115.778
L263.432 116.003
L263.563 116.096
L263.656 116.336
L263.767 116.336
L263.767 116.499
L263.897 116.499
L263.989 116.785
L264.317 116.872
L264.426 117.275
L264.66 117.373
L264.767 117.567
L264.927 117.64
L265.034 117.772
L265.297 117.861
L265.402 118.14
L265.541 118.14
L265.541 118.278
L265.766 118.278
L265.818 118.563
L265.972 118.661
L266.006 118.742
L266.159 118.842
L266.26 119.007
L266.513 119.084
L266.58 119.362
L266.911 119.472
L266.977 119.774
L267.109 119.882
L267.174 120.012
L267.272 120.012
L267.305 120.178
L267.402 120.178
L267.499 120.423
L267.644 120.446
L267.66 120.631
L267.788 120.631
L267.836 120.79
L267.995 120.79
L267.995 120.943
L268.121 120.943
L268.232 121.193
L268.451 121.254
L268.513 121.55
L268.606 121.55
L268.653 121.73
L268.776 121.838
L268.884 121.978
L269.067 122.05
L269.158 122.198
L269.34 122.265
L269.415 122.381
L269.73 122.482
L269.834 122.546
L270.172 122.653
L270.274 122.744
L270.478 122.773
L270.536 122.888
L270.708 122.939
L270.78 123.042
L271.093 123.142
L271.135 123.181
L274.292 123.104
L274.368 123.033
L274.692 122.93
L274.729 122.844
L274.877 122.79
L274.889 122.721
L275.037 122.624
L275.134 122.545
L275.401 122.44
L275.498 122.367
L277.018 122.468
L277.121 122.549
L278.155 122.648
L278.22 122.672
L278.242 122.671
L279.235 122.778
L279.34 122.847
L279.796 122.95
L279.857 123
L280.705 122.899
L280.735 122.871
L280.972 122.762
L280.972 122.747
L281.129 122.647
L281.217 122.56
L281.421 122.532
L281.508 122.407
L281.843 122.3
L281.872 122.276
L282.166 122.224
L282.269 122.093
L282.447 122.022
L282.549 121.886
L282.716 121.824
L282.743 121.744
L282.973 121.638
L282.973 121.594
L283.128 121.499
L283.237 121.382
L283.381 121.287
L283.489 121.173
L283.641 121.076
L283.73 120.944
L283.828 120.885
L283.916 120.723
L284.066 120.665
L284.171 120.399
L284.284 120.357
L284.389 120.144
L284.51 120.052
L284.613 119.816
L284.699 119.713
L284.802 119.515
L284.896 119.432
L284.93 119.293
L285.032 119.293
L285.057 119.051
L285.15 119.051
L285.251 118.671
L285.327 118.606
L285.327 118.523
L285.452 118.523
L285.561 118.057
L285.627 118.01
L285.702 117.802
L285.776 117.802
L285.858 117.523
L285.932 117.523
L286.03 117.251
L286.145 117.143
L286.226 116.958
L286.323 116.892
L286.339 116.779
L286.436 116.779
L286.516 116.533
L286.604 116.461
L286.708 116.228
L286.819 116.144
L286.922 115.87
L286.986 115.87
L287.057 115.618
L287.174 115.618
L287.268 115.171
L287.346 115.072
L287.455 114.791
L287.532 114.732
L287.602 114.501
L287.686 114.412
L287.779 114.157
L287.847 114.113
L287.878 113.977
L287.962 113.977
L288.061 113.621
L288.121 113.545
L288.219 113.305
L288.287 113.233
L288.347 113.052
L288.459 113.052
L288.556 112.605
L288.638 112.509
L288.712 112.294
L288.779 112.294
L288.867 112.021
L288.934 112.021
L289.014 111.767
L289.102 111.657
L289.211 111.424
L289.284 111.35
L289.392 111.1
L289.472 111.017
L289.579 110.764
L289.644 110.676
L289.694 110.569
L289.772 110.472
L289.879 110.282
L289.971 110.186
L290.07 109.983
L290.161 109.911
L290.182 109.811
L290.287 109.811
L290.385 109.482
L290.468 109.419
L290.579 109.189
L290.676 109.143
L290.786 108.907
L290.888 108.831
L290.991 108.662
L291.147 108.576
L291.248 108.399
L291.356 108.314
L291.43 108.222
L291.617 108.111
L291.716 108.025
L291.895 107.933
L291.993 107.742
L292.111 107.641
L292.222 107.445
L292.306 107.335
L292.416 107.166
L292.494 107.072
L292.558 106.965
L292.667 106.965
L292.75 106.721
L292.865 106.653
L292.973 106.439
L293.068 106.332
L293.131 106.227
L293.225 106.134
L293.319 105.969
L293.425 105.859
L293.487 105.775
L293.617 105.691
L293.728 105.496
L293.875 105.417
L293.985 105.256
L294.107 105.162
L294.216 104.999
L294.343 104.894
L294.421 104.756
L294.529 104.675
L294.63 104.512
L294.737 104.418
L294.844 104.208
L294.932 104.137
L294.985 104.031
L295.091 103.946
L295.179 103.825
L295.318 103.736
L295.411 103.554
L295.578 103.459
L295.682 103.284
L295.785 103.203
L295.836 103.115
L295.978 103.007
L296.063 102.88
L296.226 102.781
L296.316 102.714
L296.7 102.603
L296.777 102.588
L297.3 102.481
L297.386 102.449
L297.686 102.353
L297.782 102.302
L298.13 102.212
L298.239 102.144
L298.489 102.044
L298.587 101.964
L298.802 101.865
L298.904 101.791
L300.934 101.899
L301.009 101.906
L301.398 102.005
L301.458 102.032
L301.79 102.124
L301.895 102.183
L302.77 102.08
L302.88 101.986
L303.129 101.881
L303.216 101.842
L303.502 101.733
L303.596 101.704
L303.89 101.596
L304 101.553
L304.356 101.443
L304.452 101.383
L304.7 101.273
L304.778 101.222
L304.982 101.119
L305.092 100.989
L305.278 100.886
L305.387 100.792
L305.626 100.683
L305.71 100.659
L307.202 100.766
L307.31 100.816
L308.142 100.733
L308.251 100.623
L308.431 100.526
L308.538 100.437
L308.67 100.336
L308.766 100.234
L308.882 100.128
L308.963 100.004
L309.083 99.9122
L309.188 99.8014
L309.302 99.6913
L309.413 99.5738
L309.538 99.4649
L309.634 99.3719
L309.767 99.273
L309.876 99.1493
L309.978 99.0431
L310.063 98.9382
L310.184 98.8828
L310.295 98.6467
L310.382 98.5864
L310.485 98.349
L310.565 98.3022
L310.674 98.058
L310.76 97.9623
L310.832 97.8455
L310.927 97.7475
L311.038 97.597
L311.181 97.4885
L311.272 97.3757
L311.398 97.287
L311.504 97.1441
L311.647 97.0366
L311.743 96.9092
L311.857 96.8005
L311.933 96.7338
L312.093 96.6275
L312.187 96.5482
L312.374 96.4471
L312.482 96.351
L312.642 96.2424
L312.75 96.1464
L312.899 96.0414
L312.987 95.9351
L313.141 95.8403
L313.226 95.6953
L313.334 95.5883
L313.43 95.4176
L313.513 95.3076
L313.608 95.171
L313.697 95.0671
L313.797 94.9001
L313.882 94.8148
L313.962 94.6638
L314.061 94.5792
L314.163 94.414
L314.319 94.3057
L314.426 94.1381
L314.552 94.044
L314.655 93.9163
L314.783 93.8083
L314.888 93.6812
L315.004 93.5723
L315.105 93.4546
L315.225 93.3468
L315.331 93.2519
L315.481 93.1957
L315.589 93.0417
L315.729 92.9494
L315.836 92.8571
L316.032 92.746
L316.14 92.6539
L316.334 92.5491
L316.444 92.483
L316.628 92.3916
L316.702 92.3139
L316.857 92.2125
L316.96 92.096
L317.078 92.0315
L317.182 91.8823
L317.291 91.7734
L317.389 91.644
L317.477 91.5383
L317.567 91.3951
L317.677 91.3019
L317.784 91.121
L317.872 91.0602
L317.951 90.9047
L318.039 90.8016
L318.145 90.6403
L318.23 90.546
L318.34 90.3912
L318.452 90.2942
L318.556 90.152
L318.652 90.0508
L318.75 89.9029
L318.844 89.8011
L318.917 89.663
L319.019 89.5577
L319.128 89.4265
L319.239 89.3156
L319.333 89.2065
L319.439 89.1019
L319.532 88.9867
L319.632 88.9054
L319.741 88.7627
L319.845 88.6598
L319.953 88.5204
L320.045 88.4393
L320.147 88.2812
L320.254 88.1812
L320.345 88.0724
L320.442 87.9746
L320.552 87.8304
L320.649 87.7197
L320.758 87.5745
L320.859 87.4809
L320.963 87.2826
L321.044 87.1816
L321.137 87.0389
L321.224 86.9567
L321.334 86.7305
L321.434 86.6219
L321.525 86.4301
L321.605 86.3208
L321.699 86.1172
L321.759 86.0349
L321.855 85.8297
L321.956 85.8297
L322.052 85.4572
L322.149 85.4572
L322.255 85.063
L322.35 85.063
L322.46 84.6703
L322.581 84.6703
L322.652 84.2965
L322.762 84.2965
L322.868 83.96
L322.952 83.96
L323.053 83.6791
L323.172 83.6791
L323.253 83.3209
L323.357 83.3209
L323.456 82.9646
L323.551 82.9646
L323.662 82.6652
L323.754 82.6652
L323.754 82.5279
L323.868 82.5279
L323.96 82.2208
L324.059 82.2208
L324.155 81.9572
L324.256 81.9572
L324.354 81.666
L324.474 81.666
L324.561 81.3098
L324.662 81.3098
L324.756 80.9279
L324.857 80.9279
L324.957 80.536
L325.056 80.536
L325.157 80.1596
L325.26 80.1596
L325.37 79.785
L325.475 79.785
L325.561 79.4635
L325.659 79.4635
L325.761 79.1278
L325.858 79.1278
L325.963 78.8256
L326.065 78.8256
L326.172 78.5504
L326.263 78.5504
L326.362 78.305
L326.463 78.305
L326.463 78.1771
L326.583 78.1771
L326.672 77.9361
L326.864 77.8279
L326.964 77.5945
L327.162 77.4878
L327.261 77.2789
L327.464 77.1701
L327.561 76.9548
L327.662 76.9548
L327.767 76.7412
L327.977 76.6367
L328.063 76.5057
L328.28 76.4373
L328.364 76.2843
L328.564 76.2057
L328.564 76.1382
L328.778 76.0323
L328.87 75.8488
L328.986 75.8488
L329.074 75.591
L329.183 75.591
L329.268 75.3217
L329.383 75.3217
L329.479 75.0173
L329.67 74.9064
L329.775 74.6805
L329.971 74.5954
L330.073 74.427
L330.382 74.3212
L330.483 74.2109
L330.768 74.1164
L330.871 74.0498
L332.976 74.1302
L333.077 74.2108
L333.797 74.3111
L333.886 74.3399
L334.18 74.4131
L334.277 74.5153
L334.579 74.6144
L334.685 74.7227
L334.882 74.7929
L334.882 74.8561
L335.093 74.9368
L335.184 75.0785
L335.381 75.1442
L335.486 75.2714
L335.787 75.363
L335.881 75.4294
L336.182 75.5182
L336.289 75.6246
L336.585 75.7352
L336.685 75.8497
L336.886 75.926
L336.886 76.0056
L337.021 76.0056
L337.088 76.1762
L337.309 76.231
L337.392 76.325
L337.616 76.381
L337.697 76.5026
L337.889 76.551
L337.987 76.6795
L338.301 76.7836
L338.39 76.8539
L339.191 76.9647
L339.191 76.9771
L340.793 76.8945
L340.896 76.8253
L342.709 76.7199
L342.799 76.6843
L343.407 76.5823
L343.407 76.5688
L343.5 76.5714
L344.204 76.6659
L344.305 76.8136
L344.506 76.9106
L344.609 77.0863
L344.81 77.1591
L344.904 77.3133
L345.105 77.3961
L345.211 77.5492
L345.405 77.6209
L345.508 77.7952
L345.706 77.8961
L345.807 78.0707
L346.008 78.1435
L346.11 78.2857
L346.308 78.3436
L346.415 78.4812
L346.607 78.5573
L346.709 78.7791
L346.814 78.7791
L346.914 78.9918
L347.11 79.0753
L347.209 79.2507
L347.415 79.3486
L347.51 79.565
L347.71 79.6578
L347.813 79.8676
L348.016 79.9555
L348.117 80.1446
L348.312 80.2413
L348.412 80.434
L348.617 80.5387
L348.713 80.6966
L348.915 80.7633
L349.015 80.9509
L349.216 81.045
L349.216 81.1261
L349.419 81.2142
L349.517 81.3941
L349.717 81.4897
L349.815 81.6417
L350.018 81.7499
L350.12 82.0066
L350.325 82.1145
L350.416 82.3482
L350.518 82.3482
L350.621 82.6003
L350.72 82.6003
L350.818 82.8495
L351.031 82.958
L351.123 83.1729
L351.319 83.2683
L351.425 83.499
L351.523 83.499
L351.62 83.7582
L351.725 83.7582
L351.823 84.0251
L351.921 84.0251
L352.022 84.2659
L352.224 84.3765
L352.324 84.6099
L352.422 84.6099
L352.527 84.8918
L352.624 84.8918
L352.722 85.1688
L352.823 85.1688
L352.925 85.4335
L353.026 85.4335
L353.127 85.6901
L353.224 85.6901
L353.224 85.8151
L353.335 85.8151
L353.428 86.087
L353.527 86.087
L353.624 86.3769
L353.726 86.3769
L353.827 86.7113
L353.925 86.7113
L354.029 87.0414
L354.125 87.0414
L354.228 87.3555
L354.328 87.3555
L354.427 87.6955
L354.526 87.6955
L354.63 88.0856
L354.727 88.0856
L354.831 88.4964
L354.934 88.4964
L355.034 88.9267
L355.131 88.9267
L355.23 89.3454
L355.328 89.3454
L355.432 89.7927
L355.529 89.7927
L355.632 90.249
L355.733 90.249
L355.833 90.6955
L355.93 90.6955
L356.03 91.1438
L356.131 91.1438
L356.233 91.6645
L356.334 91.6645
L356.442 92.1946
L356.532 92.1946
L356.632 92.6703
L356.739 92.6703
L356.832 93.1477
L356.932 93.1477
L357.033 93.6309
L357.139 93.6309
L357.241 94.1361
L357.334 94.1361
L357.443 94.5338
L357.535 94.5338
L357.634 94.8989
L357.735 94.8989
L357.834 95.2717
L357.939 95.2717
L358.037 95.6391
L358.139 95.6391
L358.242 96.0185
L358.341 96.0185
L358.437 96.356
L358.543 96.356
L358.64 96.706
L358.741 96.706
L358.837 97.0462
L358.939 97.0462
L359.038 97.3737
L359.141 97.3737
L359.239 97.7119
L359.339 97.7119
L359.44 98.0685
L359.541 98.0685
L359.641 98.4209
L359.74 98.4209
L359.842 98.7905
L359.94 98.7905
L360.04 99.1144
L360.141 99.1144
L360.241 99.4174
L360.342 99.4174
L360.449 99.6933
L360.543 99.6933
L360.645 99.9741
L360.745 99.9741
L360.844 100.242
L360.943 100.242
L361.043 100.483
L361.149 100.483
L361.243 100.731
L361.347 100.731
L361.449 101.001
L361.544 101.001
L361.643 101.281
L361.744 101.281
L361.848 101.59
L361.948 101.59
L362.049 101.851
L362.147 101.851
L362.248 102.092
L362.347 102.092
L362.445 102.319
L362.652 102.425
L362.749 102.596
L362.954 102.675
L363.05 102.807
L363.35 102.893
L363.45 103.008
L363.65 103.097
L363.749 103.27
L363.95 103.363
L364.05 103.554
L364.25 103.662
L364.351 103.83
L364.554 103.908
L364.654 104.049
L364.851 104.127
L364.953 104.287
L365.154 104.364
L365.254 104.492
L365.554 104.599
L365.656 104.717
L365.956 104.818
L366.055 104.921
L366.259 104.985
L366.355 105.143
L366.556 105.232
L366.657 105.38
L366.857 105.456
L366.957 105.62
L367.16 105.723
L367.259 105.936
L367.357 105.936
L367.461 106.189
L367.56 106.189
L367.662 106.469
L367.76 106.469
L367.859 106.727
L367.959 106.727
L368.061 107.026
L368.16 107.026
L368.26 107.379
L368.36 107.379
L368.461 107.752
L368.564 107.752
L368.664 108.099
L368.764 108.099
L368.861 108.448
L368.962 108.448
L369.062 108.816
L369.164 108.816
L369.262 109.167
L369.363 109.167
L369.464 109.493
L369.563 109.493
L369.663 109.825
L369.767 109.825
L369.866 110.114
L369.967 110.114
L370.066 110.413
L370.166 110.413
L370.268 110.716
L370.365 110.716
L370.467 111.001
L370.566 111.001
L370.665 111.277
L370.766 111.277
L370.866 111.548
L370.968 111.548
L371.067 111.824
L371.167 111.824
L371.269 112.139
L371.37 112.139
L371.467 112.461
L371.568 112.461
L371.668 112.761
L371.768 112.761
L371.876 113.085
L371.969 113.085
L372.069 113.412
L372.169 113.412
L372.272 113.766
L372.37 113.766
L372.471 114.125
L372.57 114.125
L372.673 114.502
L372.773 114.502
L372.874 114.878
L372.973 114.878
L373.073 115.233
L373.173 115.233
L373.273 115.56
L373.372 115.56
L373.474 115.882
L373.574 115.882
L373.678 116.239
L373.777 116.239
L373.875 116.601
L373.974 116.601
L374.074 116.966
L374.175 116.966
L374.274 117.295
L374.376 117.295
L374.476 117.578
L374.575 117.578
L374.676 117.829
L374.776 117.829
L374.877 118.088
L374.976 118.088
L375.078 118.313
L375.277 118.404
L375.379 118.577
L375.579 118.65
L375.679 118.811
L375.883 118.883
L375.979 118.984
L376.28 119.092
L376.379 119.197
L376.58 119.258
L376.682 119.367
L376.881 119.413
L376.982 119.554
L377.182 119.637
L377.285 119.828
L377.484 119.915
L377.583 120.089
L377.783 120.178
L377.883 120.342
L378.084 120.423
L378.187 120.53
L378.487 120.599
L378.587 120.722
L378.787 120.781
L378.886 120.89
L379.187 120.984
L379.288 121.095
L379.588 121.183
L379.691 121.255
L380.19 121.361
L380.29 121.456
L380.59 121.549
L380.691 121.632
L381.092 121.733
L381.193 121.789
L382.696 121.894
L382.795 121.948
L383.196 122.035
L383.297 122.111
L384.8 122.002
L384.903 121.95
L385.301 121.846
L385.402 121.811
L386.906 121.891
L387.005 121.995
L387.207 122.067
L387.306 122.194
L387.509 122.25
L387.607 122.367
L387.807 122.43
L387.907 122.536
L388.109 122.598
L388.209 122.721
L388.41 122.794
L388.509 122.988
L388.71 123.094
L388.81 123.315
L389.013 123.421
L389.111 123.605
L389.311 123.677
L389.411 123.801
L389.614 123.859
L389.712 123.964
L390.015 124.049
L390.113 124.129
L390.515 124.209
L390.614 124.27
L392.22 124.183
L392.319 124.121
L393.021 124.031
L393.12 123.98
L393.822 123.882
L393.924 123.847
L394.925 123.931
L395.025 124
L395.427 124.087
L395.529 124.182
L395.728 124.239
L395.827 124.355
L396.129 124.439
L396.228 124.518
L396.529 124.607
L396.629 124.726
L396.83 124.788
L396.93 124.921
L397.13 124.993
L397.23 125.124
L397.431 125.199
L397.531 125.384
L397.731 125.481
L397.832 125.664
L398.034 125.751
L398.133 125.953
L398.333 126.059
L398.433 126.25
L398.634 126.344
L398.734 126.502
L398.935 126.571
L399.035 126.725
L399.235 126.816
L399.335 126.964
L399.536 127.044
L399.636 127.205
L399.937 127.307
L400.037 127.372
L400.639 127.475
L400.74 127.524
L401.14 127.609
L401.24 127.671
L401.541 127.742
L401.641 127.832
L402.042 127.921
L402.143 128
L403.146 128.107
L403.246 128.14
L404.047 128.243
L404.147 128.264
L405.651 128.375
L405.752 128.504
L405.952 128.567
L406.052 128.698
L406.252 128.767
L406.352 128.929
L406.553 129.013
L406.653 129.175
L406.853 129.244
L406.954 129.352
L407.255 129.448
L407.355 129.52
L407.756 129.605
L407.856 129.714
L408.458 129.807
L408.558 129.843
L409.16 129.948
L409.26 129.99
L410.865 129.884
L410.964 129.828
L411.365 129.73
L411.465 129.654
L412.467 129.712
L412.568 129.846
L412.768 129.909
L412.869 130.01
L413.169 130.094
L413.269 130.169
L413.471 130.225
L413.57 130.366
L413.771 130.432
L413.871 130.57
L414.072 130.64
L414.172 130.798
L414.372 130.877
L414.472 131.056
L414.673 131.13
L414.773 131.269
L414.973 131.341
L415.074 131.48
L415.275 131.561
L415.375 131.725
L415.575 131.819
L415.675 132.042
L415.876 132.141
L415.976 132.324
L416.176 132.396
L416.277 132.539
L416.477 132.607
L416.577 132.728
L416.778 132.794
L416.878 132.914
L417.079 132.985
L417.179 133.098
L417.379 133.161
L417.48 133.255
L417.981 133.364
L418.082 133.423
L418.382 133.516
L418.482 133.643
L418.683 133.71
L418.783 133.802
L419.785 133.901
L419.886 133.945
L420.187 134.032
L420.286 134.143
L420.587 134.235
L420.687 134.33
L420.988 134.423
L421.088 134.455
L421.79 134.37
L421.891 134.288
L422.191 134.2
L422.291 134.103
L422.693 134.006
L422.793 133.965
L424.797 133.866
L424.897 133.78
L425.399 133.672
L425.399 133.659
L425.499 133.659
L426.201 133.768
L426.301 133.84
L426.702 133.937
L426.802 133.974
L427.304 134.06
L427.404 134.131
L428.106 134.238
L428.206 134.284
L428.607 134.38
L428.707 134.468
L429.008 134.554
L429.108 134.614
L429.709 134.724
L429.81 134.783
L430.11 134.877
L430.21 134.979
L432.215 134.879
L432.317 134.781
L432.517 134.722
L432.617 134.605
L432.917 134.498
L433.017 134.402
L433.418 134.299
L433.519 134.248
L434.421 134.14
L434.521 134.122
L436.827 134.056
L436.927 133.958
L437.228 133.871
L437.328 133.781
L437.628 133.681
L437.729 133.581
L438.03 133.508
L438.13 133.417
L438.43 133.342
L438.531 133.238
L438.731 133.174
L438.832 133.037
L439.032 132.977
L439.132 132.853
L439.433 132.754
L439.533 132.711
L440.034 132.615
L440.135 132.549
L440.736 132.454
L440.837 132.402
L441.237 132.301
L441.338 132.239
L441.638 132.177
L441.739 132.071
L441.939 132.018
L442.039 131.889
L442.24 131.826
L442.34 131.687
L442.54 131.622
L442.641 131.484
L442.841 131.414
L442.942 131.261
L443.142 131.194
L443.242 131.086
L443.543 130.987
L443.643 130.866
L443.844 130.797
L443.944 130.676
L444.245 130.567
L444.345 130.43
L444.545 130.352
L444.646 130.22
L444.846 130.163
L444.947 130.052
L445.247 129.976
L445.347 129.869
L445.548 129.806
L445.648 129.659
L445.849 129.59
L445.949 129.446
L446.149 129.372
L446.25 129.23
L446.45 129.166
L446.55 129.035
L446.751 128.966
L446.851 128.828
L447.052 128.764
L447.152 128.658
L447.352 128.596
L447.453 128.466
L447.653 128.398
L447.753 128.232
L447.954 128.125
L448.054 127.897
L448.254 127.805
L448.355 127.625
L448.555 127.527
L448.655 127.308
L448.756 127.308
L448.856 127.077
L448.956 127.077
L449.057 126.83
L449.257 126.722
L449.357 126.511
L449.457 126.511
L449.557 126.226
L449.658 126.226
L449.758 125.95
L449.858 125.95
L449.959 125.708
L450.159 125.599
L450.259 125.4
L450.46 125.304
L450.56 125.142
L450.76 125.064
L450.861 124.895
L451.061 124.814
L451.161 124.638
L451.362 124.539
L451.462 124.366
L451.663 124.296
L451.763 124.164
L451.963 124.093
L452.064 123.958
L452.264 123.89
L452.364 123.709
L452.565 123.614
L452.665 123.456
L452.866 123.372
L452.966 123.202
L453.166 123.119
L453.267 122.954
L453.467 122.867
L453.567 122.648
L453.768 122.539
L453.868 122.349
L454.069 122.245
L454.169 122.037
L454.369 121.931
L454.47 121.74
L454.67 121.645
L454.77 121.427
L454.971 121.317
L455.071 121.078
L455.171 121.078
L455.271 120.854
L455.472 120.764
L455.572 120.575
L455.773 120.468
L455.873 120.254
L456.073 120.146
L456.174 119.903
L456.274 119.903
L456.374 119.638
L456.474 119.638
L456.575 119.357
L456.675 119.357
L456.775 119.112
L456.875 119.112
L456.976 118.877
L457.076 118.877
L457.176 118.65
L457.377 118.545
L457.477 118.352
L457.677 118.253
L457.778 118.044
L457.978 117.938
L458.078 117.709
L458.179 117.709
L458.279 117.485
L458.379 117.485
L458.479 117.23
L458.58 117.23
L458.68 116.986
L458.78 116.986
L458.88 116.754
L458.98 116.754
L459.081 116.518
L459.181 116.518
L459.281 116.263
L459.381 116.263
L459.482 115.983
L459.582 115.983
L459.682 115.724
L459.783 115.724
L459.883 115.459
L459.983 115.459
L460.083 115.165
L460.183 115.165
L460.284 114.893
L460.384 114.893
L460.484 114.655
L460.685 114.546
L460.785 114.356
L460.985 114.266
L461.086 114.079
L461.286 113.98
L461.386 113.813
L461.587 113.749
L461.687 113.657
L461.888 113.588
L461.988 113.443
L462.188 113.378
L462.289 113.282
L462.69 113.174
L462.79 113.15
L463.792 113.05
L463.892 113.018
L464.394 112.925
L464.494 112.861
L464.795 112.759
L464.895 112.648
L465.196 112.557
L465.296 112.481
L465.597 112.411
L465.697 112.323
L465.998 112.233
L466.098 112.149
L466.399 112.053
L466.499 111.975
L467.201 111.868
L467.301 111.86
L468.804 111.756
L468.905 111.728
L469.506 111.619
L469.606 111.595
L470.007 111.497
L470.108 111.435
L470.408 111.356
L470.509 111.265
L471.01 111.155
L471.11 111.123
L471.611 111.022
L471.712 110.953
L472.012 110.847
L472.112 110.768
L472.413 110.692
L472.513 110.616
L472.814 110.529
L472.915 110.436
L473.315 110.335
L473.416 110.268
L473.716 110.202
L473.817 110.11
L474.117 110.004
L474.218 109.907
L474.418 109.849
L474.518 109.74
L474.819 109.636
L474.919 109.522
L476.222 109.619
L476.323 109.691
L477.024 109.794
L477.125 109.843
L477.826 109.948
L477.927 109.981
L480.433 109.9
L480.533 109.794
L480.834 109.705
L480.934 109.629
L481.435 109.523
L481.535 109.491
L481.936 109.386
L482.037 109.315
L482.438 109.215
L482.538 109.163
L483.039 109.071
L483.139 109.027
L483.741 108.917
L483.841 108.893
L486.848 109.002
L486.949 109.071
L489.856 108.96
L489.956 108.943
L490.658 108.841
L490.758 108.755
L491.259 108.649
L491.359 108.603
L491.76 108.523
L491.861 108.455
L495.068 108.355
L495.169 108.291
L496.472 108.39
L496.572 108.46
L497.073 108.556
L497.173 108.609
L497.574 108.718
L497.675 108.818
L497.875 108.885
L497.975 109.036
L498.176 109.113
L498.276 109.253
L498.477 109.316
L498.577 109.47
L498.777 109.542
L498.878 109.659
L499.078 109.72
L499.178 109.856
L499.379 109.932
L499.479 110.084
L499.68 110.168
L499.78 110.349
L499.98 110.451
L500.081 110.667
L500.281 110.771
L500.381 110.972
L500.582 111.071
L500.682 111.249
L500.883 111.329
L500.983 111.468
L501.183 111.532
L501.284 111.647
L501.484 111.71
L501.584 111.837
L501.785 111.907
L501.885 112.039
L502.186 112.143
L502.286 112.259
L502.486 112.322
L502.587 112.422
L502.887 112.529
L502.988 112.635
L503.288 112.727
L503.389 112.861
L503.589 112.934
L503.689 113.075
L503.89 113.136
L503.99 113.26
L504.191 113.325
L504.291 113.457
L504.491 113.52
L504.592 113.644
L504.792 113.714
L504.892 113.822
L505.093 113.883
L505.193 114.033
L505.393 114.117
L505.494 114.283
L505.694 114.365
L505.794 114.534
L505.995 114.62
L506.095 114.771
L506.296 114.851
L506.396 115.036
L506.596 115.137
L506.697 115.314
L506.897 115.403
L506.997 115.59
L507.198 115.686
L507.298 115.868
L507.499 115.968
L507.599 116.169
L507.799 116.273
L507.9 116.484
L508.1 116.58
L508.2 116.784
L508.301 116.784
L508.401 117.009
L508.501 117.009
L508.601 117.252
L508.702 117.252
L508.802 117.55
L508.902 117.55
L509.002 117.817
L509.103 117.817
L509.203 118.085
L509.303 118.085
L509.403 118.397
L509.504 118.397
L509.604 118.723
L509.704 118.723
L509.804 119.049
L509.904 119.049
L510.005 119.398
L510.105 119.398
L510.205 119.744
L510.305 119.744
L510.406 120.091
L510.506 120.091
L510.606 120.454
L510.706 120.454
L510.807 120.784
L510.907 120.784
L511.007 121.105
L511.107 121.105
L511.208 121.432
L511.308 121.432
L511.408 121.777
L511.508 121.777
L511.609 122.137
L511.709 122.137
L511.809 122.471
L511.909 122.471
L512.01 122.789
L512.11 122.789
L512.21 123.127
L512.31 123.127
L512.411 123.492
L512.511 123.492
L512.611 123.862
L512.711 123.862
L512.812 124.226
L512.912 124.226
L513.012 124.6
L513.112 124.6
L513.213 124.934
L513.313 124.934
L513.413 125.256
L513.513 125.256
L513.614 125.558
L513.714 125.558
L513.814 125.855
L513.914 125.855
L514.014 126.147
L514.115 126.147
L514.215 126.453
L514.315 126.453
L514.416 126.775
L514.516 126.775
L514.616 127.127
L514.716 127.127
L514.816 127.481
L514.917 127.481
L515.017 127.854
L515.117 127.854
L515.217 128.21
L515.318 128.21
L515.418 128.565
L515.518 128.565
L515.618 128.875
L515.719 128.875
L515.819 129.183
L515.919 129.183
L516.019 129.494
L516.12 129.494
L516.22 129.803
L516.32 129.803
L516.42 130.091
L516.521 130.091
L516.621 130.349
L516.821 130.459
L516.922 130.647
L517.122 130.738
L517.222 130.917
L517.423 131.009
L517.523 131.185
L517.724 131.274
L517.824 131.462
L518.024 131.564
L518.125 131.778
L518.225 131.778
L518.325 131.992
L518.526 132.098
L518.626 132.303
L518.826 132.404
L518.926 132.609
L519.127 132.71
L519.227 132.922
L519.428 133.028
L519.528 133.255
L519.628 133.255
L519.728 133.501
L519.829 133.501
L519.929 133.729
L520.129 133.838
L520.23 134.061
L520.33 134.061
L520.43 134.288
L520.631 134.388
L520.731 134.584
L520.931 134.69
L521.032 134.869
L521.232 134.95
L521.332 135.112
L521.533 135.186
L521.633 135.355
L521.834 135.435
L521.934 135.589
L522.134 135.645
L522.235 135.773
L522.435 135.842
L522.535 135.974
L522.736 136.046
L522.836 136.198
L523.036 136.272
L523.137 136.41
L523.337 136.465
L523.437 136.578
L523.738 136.684
L523.838 136.771
L524.139 136.842
L524.239 136.932
L524.54 137.012
L524.64 137.084
L525.142 137.184
L525.242 137.245
L525.643 137.336
L525.743 137.391
L526.044 137.471
L526.144 137.546
L526.645 137.645
L526.746 137.695
L527.146 137.781
L527.247 137.834
L527.648 137.929
L527.748 137.996
L528.951 137.904
L529.051 137.84
L529.452 137.735
L529.552 137.617
L529.753 137.557
L529.853 137.4
L530.054 137.316
L530.154 137.182
L530.555 137.078
L530.655 137.035
L531.958 137.13
L532.058 137.172
L532.86 137.28
L532.961 137.306
L536.168 137.414
L536.269 137.445
L537.171 137.55
L537.271 137.595
L537.572 137.663
L537.672 137.761
L537.873 137.818
L537.973 137.927
L538.274 138.012
L538.374 138.057
L538.975 138.125
L539.076 138.215
L539.376 138.31
L539.477 138.418
L539.777 138.525
L539.877 138.617
L540.178 138.708
L540.278 138.82
L540.579 138.914
L540.679 139.015
L540.98 139.104
L541.08 139.168
L541.481 139.254
L541.582 139.307
L545.09 139.389
L545.19 139.456
L545.591 139.539
L545.692 139.589
L546.293 139.68
L546.393 139.741
L546.694 139.819
L546.794 139.9
L547.195 140.006
L547.296 140.075
L547.697 140.182
L547.697 140.214
L547.697 140.214" style="fill:none;stroke:#0000ff;stroke-width:5.0;"/>
   </g>
   <g id="matplotlib.axis_1">
    <g id="xtick_1">
     <g id="line2d_2">
      <path d="
M182.524 397.926
L182.524 7.2" style="fill:none;stroke:#000000;stroke-dasharray:1.000000,3.000000;stroke-dashoffset:0.0;stroke-linecap:butt;stroke-width:0.5;"/>
     </g>
     <g id="line2d_3">
      <defs>
       <path d="
M0 0
L0 -4" id="m3fbe6c24f1"/>
      </defs>
      <g>
       <use style="stroke:#000000;stroke-linecap:butt;stroke-width:0.5;" x="182.524064225" xlink:href="#m3fbe6c24f1" y="390.412189349"/>
      </g>
     </g>
     <g id="text_1">
      <!-- 5 -->
      <defs>
       <path d="
M10.7969 72.9062
L49.5156 72.9062
L49.5156 64.5938
L19.8281 64.5938
L19.8281 46.7344
Q21.9688 47.4688 24.1094 47.8281
Q26.2656 48.1875 28.4219 48.1875
Q40.625 48.1875 47.75 41.5
Q54.8906 34.8125 54.8906 23.3906
Q54.8906 11.625 47.5625 5.09375
Q40.2344 -1.42188 26.9062 -1.42188
Q22.3125 -1.42188 17.5469 -0.640625
Q12.7969 0.140625 7.71875 1.70312
L7.71875 11.625
Q12.1094 9.23438 16.7969 8.0625
Q21.4844 6.89062 26.7031 6.89062
Q35.1562 6.89062 40.0781 11.3281
Q45.0156 15.7656 45.0156 23.3906
Q45.0156 31 40.0781 35.4375
Q35.1562 39.8906 26.7031 39.8906
Q22.75 39.8906 18.8125 39.0156
Q14.8906 38.1406 10.7969 36.2812
z
" id="BitstreamVeraSans-Roman-35"/>
      </defs>
      <g transform="translate(176.863439225 411.909689349)scale(0.24 -0.24)">
       <use xlink:href="#BitstreamVeraSans-Roman-35"/>
      </g>
     </g>
    </g>
    <g id="xtick_2">
     <g id="line2d_4">
      <path d="
M318.572 397.926
L318.572 7.2" style="fill:none;stroke:#000000;stroke-dasharray:1.000000,3.000000;stroke-dashoffset:0.0;stroke-linecap:butt;stroke-width:0.5;"/>
     </g>
     <g id="line2d_5">
      <defs>
       <path d="
M0 0
L0 -4" id="m3fbe6c24f1"/>
      </defs>
      <g>
       <use style="stroke:#000000;stroke-linecap:butt;stroke-width:0.5;" x="318.572482407" xlink:href="#m3fbe6c24f1" y="390.412189349"/>
      </g>
     </g>
     <g id="text_2">
      <!-- 10 -->
      <defs>
       <path d="
M31.7812 66.4062
Q24.1719 66.4062 20.3281 58.9062
Q16.5 51.4219 16.5 36.375
Q16.5 21.3906 20.3281 13.8906
Q24.1719 6.39062 31.7812 6.39062
Q39.4531 6.39062 43.2812 13.8906
Q47.125 21.3906 47.125 36.375
Q47.125 51.4219 43.2812 58.9062
Q39.4531 66.4062 31.7812 66.4062
M31.7812 74.2188
Q44.0469 74.2188 50.5156 64.5156
Q56.9844 54.8281 56.9844 36.375
Q56.9844 17.9688 50.5156 8.26562
Q44.0469 -1.42188 31.7812 -1.42188
Q19.5312 -1.42188 13.0625 8.26562
Q6.59375 17.9688 6.59375 36.375
Q6.59375 54.8281 13.0625 64.5156
Q19.5312 74.2188 31.7812 74.2188" id="BitstreamVeraSans-Roman-30"/>
       <path d="
M12.4062 8.29688
L28.5156 8.29688
L28.5156 63.9219
L10.9844 60.4062
L10.9844 69.3906
L28.4219 72.9062
L38.2812 72.9062
L38.2812 8.29688
L54.3906 8.29688
L54.3906 0
L12.4062 0
z
" id="BitstreamVeraSans-Roman-31"/>
      </defs>
      <g transform="translate(305.417482407 412.224689349)scale(0.24 -0.24)">
       <use xlink:href="#BitstreamVeraSans-Roman-31"/>
       <use x="63.623046875" xlink:href="#BitstreamVeraSans-Roman-30"/>
      </g>
     </g>
    </g>
    <g id="xtick_3">
     <g id="line2d_6">
      <path d="
M454.621 397.926
L454.621 7.2" style="fill:none;stroke:#000000;stroke-dasharray:1.000000,3.000000;stroke-dashoffset:0.0;stroke-linecap:butt;stroke-width:0.5;"/>
     </g>
     <g id="line2d_7">
      <defs>
       <path d="
M0 0
L0 -4" id="m3fbe6c24f1"/>
      </defs>
      <g>
       <use style="stroke:#000000;stroke-linecap:butt;stroke-width:0.5;" x="454.62090059" xlink:href="#m3fbe6c24f1" y="390.412189349"/>
      </g>
     </g>
     <g id="text_3">
      <!-- 15 -->
      <g transform="translate(441.71715059 411.909689349)scale(0.24 -0.24)">
       <use xlink:href="#BitstreamVeraSans-Roman-31"/>
       <use x="63.623046875" xlink:href="#BitstreamVeraSans-Roman-35"/>
      </g>
     </g>
    </g>
    <g id="xtick_4">
     <g id="line2d_8">
      <defs>
       <path d="
M0 0
L0 -2" id="mf0ff38ea95"/>
      </defs>
      <g>
       <use style="stroke:#000000;stroke-linecap:butt;stroke-width:0.5;" x="73.6853296784" xlink:href="#mf0ff38ea95" y="390.412189349"/>
      </g>
     </g>
    </g>
    <g id="xtick_5">
     <g id="line2d_9">
      <defs>
       <path d="
M0 0
L0 -2" id="mf0ff38ea95"/>
      </defs>
      <g>
       <use style="stroke:#000000;stroke-linecap:butt;stroke-width:0.5;" x="100.895013315" xlink:href="#mf0ff38ea95" y="390.412189349"/>
      </g>
     </g>
    </g>
    <g id="xtick_6">
     <g id="line2d_10">
      <defs>
       <path d="
M0 0
L0 -2" id="mf0ff38ea95"/>
      </defs>
      <g>
       <use style="stroke:#000000;stroke-linecap:butt;stroke-width:0.5;" x="128.104696951" xlink:href="#mf0ff38ea95" y="390.412189349"/>
      </g>
     </g>
    </g>
    <g id="xtick_7">
     <g id="line2d_11">
      <defs>
       <path d="
M0 0
L0 -2" id="mf0ff38ea95"/>
      </defs>
      <g>
       <use style="stroke:#000000;stroke-linecap:butt;stroke-width:0.5;" x="155.314380588" xlink:href="#mf0ff38ea95" y="390.412189349"/>
      </g>
     </g>
    </g>
    <g id="xtick_8">
     <g id="line2d_12">
      <defs>
       <path d="
M0 0
L0 -2" id="mf0ff38ea95"/>
      </defs>
      <g>
       <use style="stroke:#000000;stroke-linecap:butt;stroke-width:0.5;" x="209.733747861" xlink:href="#mf0ff38ea95" y="390.412189349"/>
      </g>
     </g>
    </g>
    <g id="xtick_9">
     <g id="line2d_13">
      <defs>
       <path d="
M0 0
L0 -2" id="mf0ff38ea95"/>
      </defs>
      <g>
       <use style="stroke:#000000;stroke-linecap:butt;stroke-width:0.5;" x="236.943431498" xlink:href="#mf0ff38ea95" y="390.412189349"/>
      </g>
     </g>
    </g>
    <g id="xtick_10">
     <g id="line2d_14">
      <defs>
       <path d="
M0 0
L0 -2" id="mf0ff38ea95"/>
      </defs>
      <g>
       <use style="stroke:#000000;stroke-linecap:butt;stroke-width:0.5;" x="264.153115134" xlink:href="#mf0ff38ea95" y="390.412189349"/>
      </g>
     </g>
    </g>
    <g id="xtick_11">
     <g id="line2d_15">
      <defs>
       <path d="
M0 0
L0 -2" id="mf0ff38ea95"/>
      </defs>
      <g>
       <use style="stroke:#000000;stroke-linecap:butt;stroke-width:0.5;" x="291.362798771" xlink:href="#mf0ff38ea95" y="390.412189349"/>
      </g>
     </g>
    </g>
    <g id="xtick_12">
     <g id="line2d_16">
      <defs>
       <path d="
M0 0
L0 -2" id="mf0ff38ea95"/>
      </defs>
      <g>
       <use style="stroke:#000000;stroke-linecap:butt;stroke-width:0.5;" x="345.782166044" xlink:href="#mf0ff38ea95" y="390.412189349"/>
      </g>
     </g>
    </g>
    <g id="xtick_13">
     <g id="line2d_17">
      <defs>
       <path d="
M0 0
L0 -2" id="mf0ff38ea95"/>
      </defs>
      <g>
       <use style="stroke:#000000;stroke-linecap:butt;stroke-width:0.5;" x="372.99184968" xlink:href="#mf0ff38ea95" y="390.412189349"/>
      </g>
     </g>
    </g>
    <g id="xtick_14">
     <g id="line2d_18">
      <defs>
       <path d="
M0 0
L0 -2" id="mf0ff38ea95"/>
      </defs>
      <g>
       <use style="stroke:#000000;stroke-linecap:butt;stroke-width:0.5;" x="400.201533317" xlink:href="#mf0ff38ea95" y="390.412189349"/>
      </g>
     </g>
    </g>
    <g id="xtick_15">
     <g id="line2d_19">
      <defs>
       <path d="
M0 0
L0 -2" id="mf0ff38ea95"/>
      </defs>
      <g>
       <use style="stroke:#000000;stroke-linecap:butt;stroke-width:0.5;" x="427.411216953" xlink:href="#mf0ff38ea95" y="390.412189349"/>
      </g>
     </g>
    </g>
    <g id="xtick_16">
     <g id="line2d_20">
      <defs>
       <path d="
M0 0
L0 -2" id="mf0ff38ea95"/>
      </defs>
      <g>
       <use style="stroke:#000000;stroke-linecap:butt;stroke-width:0.5;" x="481.830584227" xlink:href="#mf0ff38ea95" y="390.412189349"/>
      </g>
     </g>
    </g>
    <g id="xtick_17">
     <g id="line2d_21">
      <defs>
       <path d="
M0 0
L0 -2" id="mf0ff38ea95"/>
      </defs>
      <g>
       <use style="stroke:#000000;stroke-linecap:butt;stroke-width:0.5;" x="509.040267863" xlink:href="#mf0ff38ea95" y="390.412189349"/>
      </g>
     </g>
    </g>
   </g>
   <g id="matplotlib.axis_2">
    <g id="ytick_1">
     <g id="line2d_22">
      <path d="
M55.6887 390.412
L557.344 390.412" style="fill:none;stroke:#000000;stroke-dasharray:1.000000,3.000000;stroke-dashoffset:0.0;stroke-linecap:butt;stroke-width:0.5;"/>
     </g>
     <g id="line2d_23">
      <defs>
       <path d="
M0 0
L4 0" id="mc91e532072"/>
      </defs>
      <g>
       <use style="stroke:#000000;stroke-linecap:butt;stroke-width:0.5;" x="45.68875" xlink:href="#mc91e532072" y="390.412189349"/>
      </g>
     </g>
     <g id="text_4">
      <!-- 0 -->
      <g transform="translate(29.595 399.147814349)scale(0.24 -0.24)">
       <use xlink:href="#BitstreamVeraSans-Roman-30"/>
      </g>
     </g>
    </g>
    <g id="ytick_2">
     <g id="line2d_24">
      <path d="
M55.6887 301.269
L557.344 301.269" style="fill:none;stroke:#000000;stroke-dasharray:1.000000,3.000000;stroke-dashoffset:0.0;stroke-linecap:butt;stroke-width:0.5;"/>
     </g>
     <g id="line2d_25">
      <defs>
       <path d="
M0 0
L4 0" id="mc91e532072"/>
      </defs>
      <g>
       <use style="stroke:#000000;stroke-linecap:butt;stroke-width:0.5;" x="45.68875" xlink:href="#mc91e532072" y="301.26937146"/>
      </g>
     </g>
     <g id="text_5">
      <!-- 0.5 -->
      <defs>
       <path d="
M10.6875 12.4062
L21 12.4062
L21 0
L10.6875 0
z
" id="BitstreamVeraSans-Roman-2e"/>
      </defs>
      <g transform="translate(7.2 310.00499646)scale(0.24 -0.24)">
       <use xlink:href="#BitstreamVeraSans-Roman-30"/>
       <use x="63.623046875" xlink:href="#BitstreamVeraSans-Roman-2e"/>
       <use x="95.41015625" xlink:href="#BitstreamVeraSans-Roman-35"/>
      </g>
     </g>
    </g>
    <g id="ytick_3">
     <g id="line2d_26">
      <path d="
M55.6887 212.127
L557.344 212.127" style="fill:none;stroke:#000000;stroke-dasharray:1.000000,3.000000;stroke-dashoffset:0.0;stroke-linecap:butt;stroke-width:0.5;"/>
     </g>
     <g id="line2d_27">
      <defs>
       <path d="
M0 0
L4 0" id="mc91e532072"/>
      </defs>
      <g>
       <use style="stroke:#000000;stroke-linecap:butt;stroke-width:0.5;" x="45.68875" xlink:href="#mc91e532072" y="212.126553571"/>
      </g>
     </g>
     <g id="text_6">
      <!-- 1 -->
      <g transform="translate(31.27125 220.875303571)scale(0.24 -0.24)">
       <use xlink:href="#BitstreamVeraSans-Roman-31"/>
      </g>
     </g>
    </g>
    <g id="ytick_4">
     <g id="line2d_28">
      <path d="
M55.6887 122.984
L557.344 122.984" style="fill:none;stroke:#000000;stroke-dasharray:1.000000,3.000000;stroke-dashoffset:0.0;stroke-linecap:butt;stroke-width:0.5;"/>
     </g>
     <g id="line2d_29">
      <defs>
       <path d="
M0 0
L4 0" id="mc91e532072"/>
      </defs>
      <g>
       <use style="stroke:#000000;stroke-linecap:butt;stroke-width:0.5;" x="45.68875" xlink:href="#mc91e532072" y="122.983735682"/>
      </g>
     </g>
     <g id="text_7">
      <!-- 1.5 -->
      <g transform="translate(8.25375 131.561860682)scale(0.24 -0.24)">
       <use xlink:href="#BitstreamVeraSans-Roman-31"/>
       <use x="63.623046875" xlink:href="#BitstreamVeraSans-Roman-2e"/>
       <use x="95.41015625" xlink:href="#BitstreamVeraSans-Roman-35"/>
      </g>
     </g>
    </g>
    <g id="ytick_5">
     <g id="line2d_30">
      <path d="
M55.6887 33.8409
L557.344 33.8409" style="fill:none;stroke:#000000;stroke-dasharray:1.000000,3.000000;stroke-dashoffset:0.0;stroke-linecap:butt;stroke-width:0.5;"/>
     </g>
     <g id="line2d_31">
      <defs>
       <path d="
M0 0
L4 0" id="mc91e532072"/>
      </defs>
      <g>
       <use style="stroke:#000000;stroke-linecap:butt;stroke-width:0.5;" x="45.68875" xlink:href="#mc91e532072" y="33.8409177926"/>
      </g>
     </g>
     <g id="text_8">
      <!-- 2 -->
      <defs>
       <path d="
M19.1875 8.29688
L53.6094 8.29688
L53.6094 0
L7.32812 0
L7.32812 8.29688
Q12.9375 14.1094 22.625 23.8906
Q32.3281 33.6875 34.8125 36.5312
Q39.5469 41.8438 41.4219 45.5312
Q43.3125 49.2188 43.3125 52.7812
Q43.3125 58.5938 39.2344 62.25
Q35.1562 65.9219 28.6094 65.9219
Q23.9688 65.9219 18.8125 64.3125
Q13.6719 62.7031 7.8125 59.4219
L7.8125 69.3906
Q13.7656 71.7812 18.9375 73
Q24.125 74.2188 28.4219 74.2188
Q39.75 74.2188 46.4844 68.5469
Q53.2188 62.8906 53.2188 53.4219
Q53.2188 48.9219 51.5312 44.8906
Q49.8594 40.875 45.4062 35.4062
Q44.1875 33.9844 37.6406 27.2188
Q31.1094 20.4531 19.1875 8.29688" id="BitstreamVeraSans-Roman-32"/>
      </defs>
      <g transform="translate(30.58125 42.7471677926)scale(0.24 -0.24)">
       <use xlink:href="#BitstreamVeraSans-Roman-32"/>
      </g>
     </g>
    </g>
    <g id="ytick_6">
     <g id="line2d_32">
      <defs>
       <path d="
M0 0
L2 0" id="m0789224b6b"/>
      </defs>
      <g>
       <use style="stroke:#000000;stroke-linecap:butt;stroke-width:0.5;" x="45.68875" xlink:href="#m0789224b6b" y="372.583625771"/>
      </g>
     </g>
    </g>
    <g id="ytick_7">
     <g id="line2d_33">
      <defs>
       <path d="
M0 0
L2 0" id="m0789224b6b"/>
      </defs>
      <g>
       <use style="stroke:#000000;stroke-linecap:butt;stroke-width:0.5;" x="45.68875" xlink:href="#m0789224b6b" y="354.755062193"/>
      </g>
     </g>
    </g>
    <g id="ytick_8">
     <g id="line2d_34">
      <defs>
       <path d="
M0 0
L2 0" id="m0789224b6b"/>
      </defs>
      <g>
       <use style="stroke:#000000;stroke-linecap:butt;stroke-width:0.5;" x="45.68875" xlink:href="#m0789224b6b" y="336.926498616"/>
      </g>
     </g>
    </g>
    <g id="ytick_9">
     <g id="line2d_35">
      <defs>
       <path d="
M0 0
L2 0" id="m0789224b6b"/>
      </defs>
      <g>
       <use style="stroke:#000000;stroke-linecap:butt;stroke-width:0.5;" x="45.68875" xlink:href="#m0789224b6b" y="319.097935038"/>
      </g>
     </g>
    </g>
    <g id="ytick_10">
     <g id="line2d_36">
      <defs>
       <path d="
M0 0
L2 0" id="m0789224b6b"/>
      </defs>
      <g>
       <use style="stroke:#000000;stroke-linecap:butt;stroke-width:0.5;" x="45.68875" xlink:href="#m0789224b6b" y="301.26937146"/>
      </g>
     </g>
    </g>
    <g id="ytick_11">
     <g id="line2d_37">
      <defs>
       <path d="
M0 0
L2 0" id="m0789224b6b"/>
      </defs>
      <g>
       <use style="stroke:#000000;stroke-linecap:butt;stroke-width:0.5;" x="45.68875" xlink:href="#m0789224b6b" y="283.440807882"/>
      </g>
     </g>
    </g>
    <g id="ytick_12">
     <g id="line2d_38">
      <defs>
       <path d="
M0 0
L2 0" id="m0789224b6b"/>
      </defs>
      <g>
       <use style="stroke:#000000;stroke-linecap:butt;stroke-width:0.5;" x="45.68875" xlink:href="#m0789224b6b" y="265.612244304"/>
      </g>
     </g>
    </g>
    <g id="ytick_13">
     <g id="line2d_39">
      <defs>
       <path d="
M0 0
L2 0" id="m0789224b6b"/>
      </defs>
      <g>
       <use style="stroke:#000000;stroke-linecap:butt;stroke-width:0.5;" x="45.68875" xlink:href="#m0789224b6b" y="247.783680726"/>
      </g>
     </g>
    </g>
    <g id="ytick_14">
     <g id="line2d_40">
      <defs>
       <path d="
M0 0
L2 0" id="m0789224b6b"/>
      </defs>
      <g>
       <use style="stroke:#000000;stroke-linecap:butt;stroke-width:0.5;" x="45.68875" xlink:href="#m0789224b6b" y="229.955117149"/>
      </g>
     </g>
    </g>
    <g id="ytick_15">
     <g id="line2d_41">
      <defs>
       <path d="
M0 0
L2 0" id="m0789224b6b"/>
      </defs>
      <g>
       <use style="stroke:#000000;stroke-linecap:butt;stroke-width:0.5;" x="45.68875" xlink:href="#m0789224b6b" y="212.126553571"/>
      </g>
     </g>
    </g>
    <g id="ytick_16">
     <g id="line2d_42">
      <defs>
       <path d="
M0 0
L2 0" id="m0789224b6b"/>
      </defs>
      <g>
       <use style="stroke:#000000;stroke-linecap:butt;stroke-width:0.5;" x="45.68875" xlink:href="#m0789224b6b" y="194.297989993"/>
      </g>
     </g>
    </g>
    <g id="ytick_17">
     <g id="line2d_43">
      <defs>
       <path d="
M0 0
L2 0" id="m0789224b6b"/>
      </defs>
      <g>
       <use style="stroke:#000000;stroke-linecap:butt;stroke-width:0.5;" x="45.68875" xlink:href="#m0789224b6b" y="176.469426415"/>
      </g>
     </g>
    </g>
    <g id="ytick_18">
     <g id="line2d_44">
      <defs>
       <path d="
M0 0
L2 0" id="m0789224b6b"/>
      </defs>
      <g>
       <use style="stroke:#000000;stroke-linecap:butt;stroke-width:0.5;" x="45.68875" xlink:href="#m0789224b6b" y="158.640862837"/>
      </g>
     </g>
    </g>
    <g id="ytick_19">
     <g id="line2d_45">
      <defs>
       <path d="
M0 0
L2 0" id="m0789224b6b"/>
      </defs>
      <g>
       <use style="stroke:#000000;stroke-linecap:butt;stroke-width:0.5;" x="45.68875" xlink:href="#m0789224b6b" y="140.81229926"/>
      </g>
     </g>
    </g>
    <g id="ytick_20">
     <g id="line2d_46">
      <defs>
       <path d="
M0 0
L2 0" id="m0789224b6b"/>
      </defs>
      <g>
       <use style="stroke:#000000;stroke-linecap:butt;stroke-width:0.5;" x="45.68875" xlink:href="#m0789224b6b" y="122.983735682"/>
      </g>
     </g>
    </g>
    <g id="ytick_21">
     <g id="line2d_47">
      <defs>
       <path d="
M0 0
L2 0" id="m0789224b6b"/>
      </defs>
      <g>
       <use style="stroke:#000000;stroke-linecap:butt;stroke-width:0.5;" x="45.68875" xlink:href="#m0789224b6b" y="105.155172104"/>
      </g>
     </g>
    </g>
    <g id="ytick_22">
     <g id="line2d_48">
      <defs>
       <path d="
M0 0
L2 0" id="m0789224b6b"/>
      </defs>
      <g>
       <use style="stroke:#000000;stroke-linecap:butt;stroke-width:0.5;" x="45.68875" xlink:href="#m0789224b6b" y="87.3266085261"/>
      </g>
     </g>
    </g>
    <g id="ytick_23">
     <g id="line2d_49">
      <defs>
       <path d="
M0 0
L2 0" id="m0789224b6b"/>
      </defs>
      <g>
       <use style="stroke:#000000;stroke-linecap:butt;stroke-width:0.5;" x="45.68875" xlink:href="#m0789224b6b" y="69.4980449482"/>
      </g>
     </g>
    </g>
    <g id="ytick_24">
     <g id="line2d_50">
      <defs>
       <path d="
M0 0
L2 0" id="m0789224b6b"/>
      </defs>
      <g>
       <use style="stroke:#000000;stroke-linecap:butt;stroke-width:0.5;" x="45.68875" xlink:href="#m0789224b6b" y="51.6694813704"/>
      </g>
     </g>
    </g>
    <g id="ytick_25">
     <g id="line2d_51">
      <defs>
       <path d="
M0 0
L2 0" id="m0789224b6b"/>
      </defs>
      <g>
       <use style="stroke:#000000;stroke-linecap:butt;stroke-width:0.5;" x="45.68875" xlink:href="#m0789224b6b" y="33.8409177926"/>
      </g>
     </g>
    </g>
   </g>
   <g id="patch_3">
    <path d="
M55.6887 390.412
L557.344 390.412" style="fill:none;stroke:#000000;stroke-width:0.8;"/>
   </g>
   <g id="patch_4">
    <path d="
M45.6887 397.926
L45.6887 7.2" style="fill:none;stroke:#000000;stroke-width:0.8;"/>
   </g>
  </g>
 </g>
 <defs>
  <clipPath id="pda58150b38">
   <rect height="390.726153846" width="501.655" x="55.68875" y="7.2"/>
  </clipPath>
 </defs>
</svg>
