<?xml version="1.0" encoding="utf-8" standalone="no"?>
<!DOCTYPE svg PUBLIC "-//W3C//DTD SVG 1.1//EN"
  "http://www.w3.org/Graphics/SVG/1.1/DTD/svg11.dtd">
<!-- Created with matplotlib (http://matplotlib.sourceforge.net/) -->
<svg height="419pt" version="1.1" viewBox="0 0 564 419" width="564pt" xmlns="http://www.w3.org/2000/svg" xmlns:xlink="http://www.w3.org/1999/xlink">
 <defs>
  <style type="text/css">
*{stroke-linecap:square;stroke-linejoin:round;}
  </style>
 </defs>
 <g id="figure_1">
  <g id="patch_1">
   <path d="
M4.44089e-16 419.439
L564.626 419.439
L564.626 0
L4.44089e-16 0
z
" style="fill:#ffffff;"/>
  </g>
  <g id="axes_1">
   <g id="patch_2">
    <path d="
M42.6088 412.239
L557.426 412.239
L557.426 8.51291
L42.6088 8.51291
z
" style="fill:#ffffff;"/>
   </g>
   <g id="line2d_1">
    <path clip-path="url(#p10490cade4)" d="
M52.5091 16.2769
L63.8311 16.2769
L63.8311 16.2769
L63.8311 16.2769
L78.0952 16.2769
L78.0952 36.4688
L87.4908 36.4688
L87.4908 56.4382
L100.112 56.4382
L100.112 87.3402
L104.777 87.3402
L104.777 100.087
L112.267 100.087
L112.267 110.629
L115.373 110.629
L115.373 116.636
L120.708 116.636
L120.708 121.818
L127.181 121.818
L127.181 130.927
L129.043 130.927
L129.043 134.306
L133.984 134.306
L133.984 145.064
L136.85 145.064
L136.85 152.06
L138.18 152.06
L138.18 155.772
L140.664 155.772
L140.664 163.52
L144.019 163.52
L144.019 174.634
L147.013 174.634
L147.013 184.941
L147.944 184.941
L147.944 187.558
L150.564 187.558
L150.564 193.443
L152.183 193.443
L152.183 196.191
L152.959 196.191
L152.959 197.756
L155.165 197.756
L155.165 201.155
L156.544 201.155
L156.544 203.655
L158.493 203.655
L158.493 207.686
L160.896 207.686
L160.896 211.485
L162.025 211.485
L162.025 212.783
L162.572 212.783
L162.572 213.212
L163.636 213.212
L163.636 213.672
L165.16 213.72
L165.16 214.115
L168.421 214.115
L168.421 216.206
L169.287 216.206
L169.287 216.958
L170.538 216.958
L170.538 218.354
L170.942 218.354
L170.942 218.906
L172.882 218.906
L172.882 221.973
L173.255 221.973
L173.255 222.639
L174.343 222.639
L174.343 224.829
L175.39 224.829
L175.39 227.138
L176.067 227.138
L176.067 228.765
L177.052 228.765
L177.052 230.821
L178.004 230.821
L178.004 232.983
L178.315 232.983
L178.315 233.75
L179.816 233.75
L179.816 237.724
L180.107 237.724
L180.107 238.403
L180.68 238.403
L180.68 239.585
L180.962 239.585
L180.962 240.092
L182.597 240.092
L182.597 243.316
L184.142 243.316
L184.142 245.856
L184.638 245.856
L184.638 246.754
L184.883 246.754
L184.883 247.137
L185.367 247.137
L185.367 247.99
L186.077 247.99
L186.077 249.37
L186.309 249.37
L186.309 249.766
L187.445 249.766
L187.445 251.409
L188.104 251.409
L188.104 252.196
L188.749 252.196
L188.749 253.077
L189.378 253.077
L189.378 253.791
L189.585 253.791
L189.585 254.063
L190.197 254.063
L190.197 254.978
L190.597 254.978
L190.597 255.646
L190.795 255.646
L190.795 256.013
L191.765 256.013
L191.765 257.581
L193.068 257.581
L193.068 259.857
L193.43 259.857
L193.43 260.538
L193.609 260.538
L193.609 260.839
L193.963 260.839
L193.963 261.495
L195.17 261.495
L195.17 263.449
L195.672 263.449
L195.672 264.329
L196.488 264.329
L196.488 265.875
L196.649 265.875
L196.649 266.145
L196.967 266.145
L196.967 266.62
L197.438 266.62
L197.438 267.229
L198.053 267.229
L198.053 268.118
L198.506 268.118
L198.506 268.68
L198.951 268.68
L198.951 269.301
L199.245 269.301
L199.245 269.753
L199.679 269.753
L199.679 270.341
L200.247 270.341
L200.247 271.002
L200.527 271.002
L200.527 271.368
L201.079 271.368
L201.079 272.17
L201.753 272.17
L201.753 273.239
L201.886 273.239
L201.886 273.468
L202.542 273.468
L202.542 274.478
L202.671 274.478
L202.671 274.695
L203.055 274.695
L203.055 275.273
L203.308 275.273
L203.308 275.61
L203.684 275.61
L203.684 276.163
L204.177 276.163
L204.177 276.8
L204.421 276.8
L204.421 277.147
L204.541 277.147
L204.541 277.338
L204.782 277.338
L204.782 277.751
L205.49 277.751
L205.49 279.057
L205.953 279.057
L205.953 279.963
L206.181 279.963
L206.181 280.439
L206.632 280.439
L206.632 281.303
L206.855 281.303
L206.855 281.692
L207.186 281.692
L207.186 282.215
L207.837 282.215
L207.944 283.484
L208.889 283.484
L208.889 284.768
L209.197 284.768
L209.197 285.221
L209.703 285.221
L209.703 285.882
L210.002 285.882
L210.002 286.309
L210.298 286.309
L210.396 286.933
L210.688 286.933
L210.688 287.379
L211.168 287.379
L211.168 288.169
L211.452 288.169
L211.452 288.592
L211.733 288.592
L211.826 289.206
L212.103 289.206
L212.103 289.721
L212.378 289.721
L212.378 290.19
L212.559 290.19
L212.65 290.625
L213.186 290.625
L213.186 291.591
L213.625 291.591
L213.712 292.44
L213.885 292.44
L213.885 292.675
L214.143 292.675
L214.143 292.987
L214.398 292.987
L214.483 293.428
L214.985 293.428
L214.985 293.956
L215.151 293.956
L215.151 294.106
L215.397 294.106
L215.397 294.359
L215.722 294.359
L215.722 294.648
L216.124 294.648
L216.124 294.948
L216.44 294.948
L216.44 295.141
L216.832 295.141
L216.832 295.423
L217.141 295.423
L217.141 295.604
L217.598 295.708
L217.598 295.838
L218.047 295.941
L218.047 296.181
L218.27 296.181
L218.27 296.383
L218.417 296.383
L218.417 296.498
L218.709 296.498
L218.709 296.689
L218.854 296.689
L218.854 296.801
L219.355 296.801
L219.355 297.239
L219.708 297.239
L219.708 297.499
L220.125 297.499
L220.194 297.803
L220.536 297.803
L220.604 298.149
L220.807 298.259
L220.807 298.322
L221.142 298.322
L221.142 298.668
L221.604 298.668
L221.604 299.19
L221.734 299.19
L221.799 299.394
L221.929 299.394
L221.929 299.552
L222.378 299.552
L222.378 300.045
L222.506 300.045
L222.569 300.279
L222.695 300.279
L222.695 300.429
L223.318 300.429
L223.318 301.088
L223.441 301.088
L223.441 301.202
L223.685 301.202
L223.685 301.455
L223.987 301.455
L223.987 301.731
L224.226 301.731
L224.226 301.973
L224.523 302.079
L224.523 302.218
L224.699 302.218
L224.699 302.335
L225.106 302.335
L225.106 302.559
L225.394 302.634
L225.394 302.763
L225.565 302.763
L225.565 302.908
L225.791 302.908
L225.791 303.122
L225.96 303.122
L225.96 303.263
L226.294 303.263
L226.404 303.664
L226.569 303.664
L226.624 303.824
L226.896 303.824
L226.95 304.057
L227.112 304.057
L227.112 304.202
L227.379 304.202
L227.432 304.524
L227.697 304.524
L227.749 304.892
L227.907 304.892
L227.907 305.044
L228.373 305.044
L228.475 305.537
L228.629 305.579
L228.629 305.654
L228.781 305.654
L228.781 305.78
L229.133 305.89
L229.133 306.054
L229.283 306.054
L229.283 306.189
L229.431 306.189
L229.431 306.339
L229.97 306.339
L230.019 306.981
L230.26 306.981
L230.26 307.238
L230.451 307.238
L230.451 307.459
L230.689 307.459
L230.689 307.754
L230.83 307.754
L230.83 307.943
L230.971 307.943
L230.971 308.142
L231.158 308.142
L231.158 308.388
L231.435 308.388
L231.527 308.895
L231.665 308.895
L231.665 309.085
L231.801 309.085
L231.847 309.314
L231.982 309.314
L231.982 309.462
L232.252 309.462
L232.252 309.777
L232.475 309.777
L232.475 310.056
L232.871 310.056
L232.915 310.637
L233.132 310.736
L233.176 310.911
L233.391 311.02
L233.434 311.111
L233.775 311.175
L233.817 311.362
L234.65 311.419
L234.65 311.793
L234.895 311.867
L234.895 311.952
L235.419 312.049
L235.419 312.295
L235.618 312.295
L235.618 312.445
L235.894 312.445
L235.972 312.672
L236.206 312.742
L236.206 312.797
L236.592 312.906
L236.592 312.959
L237.01 313.043
L237.047 313.149
L237.347 313.248
L237.347 313.307
L237.79 313.403
L237.79 313.479
L238.155 313.541
L238.263 313.658
L238.657 313.753
L238.657 313.769
L239.635 313.867
L239.635 313.889
L240.145 313.938
L240.246 314.018
L240.745 314.04
L240.844 314.209
L241.203 314.277
L241.236 314.393
L241.526 314.472
L241.622 314.591
L241.813 314.645
L241.813 314.705
L242.097 314.705
L242.192 314.965
L242.472 315.013
L242.472 315.113
L242.811 315.208
L242.811 315.333
L243.176 315.407
L243.176 315.532
L243.387 315.532
L243.477 315.715
L243.656 315.812
L243.656 315.827
L243.981 315.889
L244.069 316.025
L244.418 316.067
L244.447 316.182
L245.301 316.292
L245.385 316.326
L245.773 316.402
L245.801 316.477
L246.129 316.556
L246.129 316.652
L246.507 316.738
L246.614 316.815
L246.933 316.923
L246.933 316.93
L247.792 317.039
L247.792 317.095
L248.526 317.192
L248.601 317.242
L249.41 317.34
L249.434 317.376
L249.985 317.483
L249.985 317.492
L251.326 317.591
L251.371 317.614
L251.863 317.678
L251.974 317.773
L252.498 317.875
L252.498 317.955
L252.821 318.015
L252.907 318.143
L253.225 318.238
L253.33 318.359
L253.602 318.462
L253.706 318.531
L254.077 318.639
L254.097 318.675
L254.463 318.763
L254.564 318.839
L254.983 318.945
L254.983 319.008
L255.298 319.105
L255.396 319.181
L255.649 319.257
L255.745 319.35
L256.033 319.431
L256.033 319.472
L256.318 319.583
L256.374 319.631
L256.711 319.675
L256.73 319.84
L257.063 319.925
L257.173 319.98
L257.537 320.067
L257.537 320.091
L257.807 320.181
L257.825 320.242
L258.198 320.338
L258.251 320.539
L258.549 320.646
L258.601 320.723
L258.964 320.794
L259.033 320.899
L259.374 320.94
L259.441 321.079
L259.744 321.151
L259.777 321.212
L259.993 321.323
L259.993 321.333
L260.273 321.432
L260.322 321.547
L260.615 321.653
L260.712 321.807
L260.953 321.859
L261.017 322.083
L261.16 322.169
L261.255 322.313
L261.398 322.404
L261.492 322.543
L261.664 322.626
L261.757 322.769
L261.912 322.853
L261.99 322.952
L262.266 323.061
L262.372 323.201
L262.645 323.308
L262.72 323.374
L263.033 323.443
L263.093 323.571
L263.344 323.681
L263.344 323.701
L263.665 323.81
L263.708 323.891
L263.968 323.984
L263.968 324.009
L264.254 324.118
L264.353 324.177
L264.677 324.246
L264.775 324.33
L265.094 324.392
L265.149 324.469
L265.382 324.542
L265.436 324.604
L265.802 324.71
L265.842 324.776
L266.123 324.84
L266.229 324.959
L266.506 325.053
L266.597 325.128
L266.948 325.225
L267.025 325.407
L267.179 325.497
L267.243 325.571
L267.472 325.675
L267.561 325.775
L267.775 325.881
L267.812 325.915
L268.123 326.022
L268.185 326.074
L268.419 326.179
L268.455 326.253
L268.638 326.346
L268.675 326.388
L268.88 326.447
L268.964 326.548
L269.203 326.647
L269.275 326.72
L269.558 326.814
L269.605 326.896
L269.804 327.006
L269.851 327.056
L270.197 327.163
L270.289 327.34
L270.438 327.394
L270.529 327.542
L270.665 327.64
L270.744 327.752
L270.912 327.841
L271.001 328.016
L271.102 328.065
L271.202 328.248
L271.312 328.323
L271.411 328.495
L271.532 328.558
L271.642 328.73
L271.794 328.73
L271.902 328.971
L272.064 329.072
L272.128 329.166
L272.257 329.271
L272.278 329.298
L272.406 329.298
L272.512 329.505
L272.659 329.606
L272.733 329.696
L272.879 329.798
L272.879 329.817
L273.035 329.817
L273.129 330.042
L273.294 330.14
L273.386 330.293
L273.499 330.293
L273.56 330.467
L273.682 330.562
L273.783 330.675
L273.934 330.695
L274.014 330.907
L274.264 331.008
L274.353 331.265
L274.491 331.354
L274.59 331.5
L274.727 331.61
L274.824 331.744
L275.028 331.809
L275.134 332.095
L275.259 332.197
L275.364 332.331
L275.507 332.435
L275.592 332.573
L275.715 332.604
L275.79 332.785
L275.987 332.855
L276.015 333.019
L276.127 333.121
L276.21 333.242
L276.321 333.335
L276.414 333.471
L276.542 333.574
L276.633 333.752
L276.734 333.818
L276.824 333.987
L276.978 334.04
L277.086 334.286
L277.202 334.326
L277.309 334.527
L277.434 334.606
L277.54 334.774
L277.672 334.87
L277.76 335.009
L277.865 335.083
L277.969 335.233
L278.091 335.262
L278.195 335.488
L278.401 335.578
L278.435 335.761
L278.58 335.867
L278.657 335.978
L278.817 336.066
L278.893 336.163
L279.069 336.269
L279.17 336.36
L279.41 336.47
L279.493 336.61
L279.706 336.718
L279.804 336.78
L280.023 336.884
L280.047 336.902
L280.288 337.011
L280.384 337.069
L280.607 337.154
L280.694 337.222
L280.976 337.327
L281.078 337.446
L281.24 337.548
L281.349 337.657
L281.541 337.763
L281.632 337.866
L281.815 337.946
L281.906 338.07
L282.124 338.172
L282.221 338.279
L282.415 338.383
L282.526 338.464
L282.754 338.573
L282.856 338.662
L283.038 338.764
L283.139 338.832
L283.377 338.937
L283.484 338.999
L283.761 339.105
L283.853 339.172
L284.14 339.272
L284.245 339.356
L284.617 339.456
L284.727 339.498
L285.568 339.608
L285.673 339.631
L286.261 339.74
L286.352 339.783
L286.78 339.893
L286.888 339.952
L287.214 340.06
L287.308 340.096
L287.679 340.206
L287.789 340.288
L288.009 340.384
L288.093 340.457
L288.256 340.561
L288.346 340.624
L288.544 340.727
L288.651 340.785
L288.94 340.886
L289.045 340.939
L289.342 341.047
L289.429 341.083
L289.784 341.188
L289.887 341.233
L290.197 341.34
L290.264 341.371
L290.593 341.478
L290.648 341.509
L292.101 341.62
L292.206 341.646
L293.176 341.755
L293.287 341.768
L293.996 341.877
L294.104 341.911
L294.434 342.009
L294.535 342.077
L294.907 342.179
L295.011 342.237
L295.321 342.338
L295.401 342.378
L295.776 342.486
L295.886 342.501
L296.769 342.391
L296.875 342.384
L298.51 342.495
L298.618 342.51
L299.026 342.613
L299.124 342.649
L299.481 342.759
L299.577 342.802
L299.849 342.91
L299.948 342.961
L300.232 343.071
L300.333 343.118
L300.64 343.228
L300.721 343.275
L300.959 343.382
L301.066 343.433
L301.529 343.543
L301.63 343.576
L302.008 343.686
L302.107 343.716
L302.42 343.819
L302.529 343.87
L302.759 343.973
L302.866 344.066
L303.001 344.176
L303.108 344.266
L303.27 344.375
L303.354 344.435
L303.522 344.517
L303.622 344.624
L303.792 344.733
L303.902 344.794
L304.121 344.895
L304.21 344.954
L304.437 345.063
L304.548 345.116
L304.845 345.222
L304.944 345.282
L305.175 345.384
L305.283 345.444
L305.495 345.552
L305.576 345.608
L305.741 345.712
L305.837 345.784
L306.029 345.886
L306.124 345.96
L306.342 346.066
L306.452 346.128
L306.724 346.238
L306.829 346.278
L307.097 346.385
L307.198 346.439
L307.417 346.549
L307.523 346.608
L307.76 346.713
L307.865 346.796
L308.055 346.893
L308.143 346.968
L308.308 347.063
L308.39 347.135
L308.565 347.235
L308.661 347.337
L308.814 347.448
L308.912 347.535
L309.047 347.644
L309.144 347.734
L309.286 347.834
L309.382 347.915
L309.573 348.011
L309.683 348.082
L309.949 348.192
L310.057 348.238
L310.353 348.341
L310.454 348.405
L310.751 348.512
L310.856 348.553
L311.218 348.658
L311.313 348.699
L311.554 348.793
L311.627 348.858
L311.814 348.967
L311.923 349.043
L312.167 349.153
L312.276 349.206
L312.573 349.313
L312.683 349.366
L312.96 349.472
L313.067 349.517
L313.419 349.628
L313.528 349.702
L313.739 349.805
L313.85 349.878
L314.028 349.98
L314.135 350.064
L314.344 350.171
L314.422 350.217
L314.752 350.324
L314.857 350.359
L315.215 350.469
L315.297 350.506
L315.502 350.614
L315.599 350.679
L315.862 350.777
L315.961 350.903
L316.17 350.967
L316.267 351.098
L316.504 351.169
L316.576 351.293
L316.798 351.37
L316.885 351.488
L317.11 351.554
L317.194 351.702
L317.402 351.782
L317.499 351.921
L317.708 351.998
L317.708 352.063
L317.918 352.142
L318.02 352.283
L318.223 352.358
L318.323 352.511
L318.536 352.604
L318.639 352.744
L318.839 352.826
L318.942 352.997
L319.147 353.075
L319.253 353.246
L319.474 353.348
L319.562 353.521
L319.767 353.607
L319.867 353.753
L320.079 353.82
L320.189 353.955
L320.384 354.013
L320.488 354.159
L320.702 354.253
L320.792 354.375
L321.001 354.434
L321.1 354.544
L321.412 354.65
L321.514 354.756
L321.825 354.865
L321.825 354.915
L322.129 355.009
L322.231 355.108
L322.545 355.216
L322.643 355.321
L322.958 355.414
L322.958 355.45
L323.279 355.523
L323.366 355.598
L323.779 355.69
L323.887 355.737
L324.297 355.833
L324.394 355.89
L325.218 355.995
L325.218 356.016
L325.852 356.121
L325.95 356.172
L326.456 356.269
L326.557 356.314
L327.787 356.417
L327.889 356.444
L328.507 356.547
L328.616 356.592
L329.03 356.677
L329.128 356.736
L329.639 356.847
L329.747 356.897
L330.056 356.98
L330.153 357.041
L330.571 357.137
L330.671 357.237
L330.978 357.338
L331.082 357.443
L331.392 357.553
L331.496 357.615
L331.812 357.694
L331.812 357.735
L332.213 357.839
L332.314 357.923
L332.636 358.032
L332.728 358.15
L333.034 358.254
L333.139 358.348
L333.445 358.428
L333.549 358.516
L333.754 358.579
L333.857 358.692
L334.065 358.761
L334.17 358.894
L334.371 358.962
L334.482 359.106
L334.687 359.169
L334.784 359.292
L335.092 359.398
L335.193 359.493
L335.51 359.591
L335.607 359.682
L335.917 359.781
L336.02 359.905
L336.225 359.971
L336.326 360.104
L336.531 360.173
L336.638 360.301
L336.844 360.368
L336.945 360.49
L337.16 360.555
L337.252 360.688
L337.461 360.751
L337.56 360.889
L337.773 360.974
L337.876 361.132
L338.074 361.209
L338.18 361.386
L338.39 361.475
L338.486 361.664
L338.694 361.773
L338.798 361.987
L339.004 362.083
L339.109 362.277
L339.316 362.368
L339.413 362.535
L339.619 362.613
L339.728 362.793
L339.927 362.88
L340.032 363.06
L340.236 363.147
L340.339 363.323
L340.545 363.41
L340.651 363.585
L340.854 363.673
L340.963 363.869
L341.16 363.954
L341.265 364.133
L341.475 364.231
L341.572 364.436
L341.778 364.543
L341.881 364.751
L342.087 364.854
L342.189 365.051
L342.292 365.051
L342.397 365.28
L342.498 365.28
L342.606 365.524
L342.71 365.524
L342.812 365.743
L343.013 365.842
L343.013 365.945
L343.223 366.054
L343.321 366.215
L343.529 366.292
L343.631 366.447
L343.837 366.524
L343.837 366.602
L344.046 366.684
L344.146 366.832
L344.352 366.919
L344.452 367.092
L344.66 367.193
L344.766 367.417
L344.976 367.521
L345.069 367.726
L345.174 367.726
L345.279 367.952
L345.482 368.056
L345.585 368.257
L345.795 368.355
L345.895 368.52
L346.105 368.604
L346.205 368.793
L346.412 368.878
L346.513 369.044
L346.717 369.125
L346.82 369.303
L347.027 369.401
L347.127 369.574
L347.335 369.667
L347.436 369.852
L347.644 369.947
L347.747 370.145
L347.95 370.248
L347.95 370.352
L348.065 370.352
L348.16 370.574
L348.361 370.68
L348.466 370.893
L348.67 371
L348.777 371.182
L348.981 371.266
L349.084 371.463
L349.287 371.558
L349.394 371.737
L349.6 371.826
L349.706 372.025
L349.907 372.119
L350.01 372.279
L350.217 372.36
L350.317 372.51
L350.526 372.583
L350.628 372.718
L350.83 372.785
L350.934 372.933
L351.142 373.012
L351.142 373.089
L351.346 373.164
L351.448 373.281
L351.653 373.352
L351.756 373.476
L351.968 373.534
L352.073 373.659
L352.28 373.712
L352.374 373.833
L352.58 373.894
L352.682 374.014
L352.89 374.076
L352.995 374.19
L353.3 374.293
L353.409 374.386
L353.711 374.486
L353.816 374.574
L354.123 374.655
L354.227 374.725
L354.637 374.824
L354.742 374.887
L355.152 374.996
L355.255 375.092
L355.567 375.2
L355.67 375.322
L355.975 375.424
L356.084 375.53
L356.391 375.633
L356.489 375.753
L356.694 375.818
L356.801 375.95
L357.008 376.015
L357.108 376.15
L357.313 376.215
L357.414 376.355
L357.626 376.434
L357.725 376.594
L357.936 376.673
L358.034 376.811
L358.241 376.885
L358.342 377.051
L358.553 377.143
L358.65 377.331
L358.86 377.433
L358.959 377.654
L359.167 377.763
L359.266 377.969
L359.472 378.072
L359.578 378.261
L359.782 378.347
L359.883 378.51
L360.091 378.584
L360.194 378.729
L360.399 378.803
L360.502 378.954
L360.709 379.029
L360.809 379.156
L361.118 379.242
L361.223 379.304
L361.633 379.403
L361.736 379.486
L362.044 379.587
L362.146 379.705
L362.354 379.774
L362.455 379.893
L362.767 379.984
L362.869 380.089
L363.072 380.147
L363.177 380.275
L363.382 380.336
L363.484 380.455
L363.796 380.564
L363.899 380.662
L364.204 380.749
L364.309 380.831
L364.617 380.925
L364.718 381.025
L365.029 381.127
L365.133 381.206
L365.542 381.302
L365.646 381.39
L365.953 381.487
L366.056 381.592
L366.364 381.694
L366.469 381.785
L366.776 381.891
L366.879 381.988
L367.092 382.045
L367.187 382.165
L367.393 382.226
L367.499 382.359
L367.702 382.422
L367.805 382.548
L368.013 382.61
L368.117 382.722
L368.423 382.831
L368.525 382.925
L368.834 383.022
L368.941 383.112
L369.348 383.22
L369.451 383.268
L369.862 383.362
L369.966 383.444
L370.274 383.536
L370.378 383.636
L370.582 383.69
L370.687 383.801
L370.995 383.899
L371.097 384.001
L371.303 384.059
L371.405 384.171
L371.714 384.264
L371.818 384.353
L372.125 384.429
L372.229 384.518
L372.537 384.609
L372.643 384.669
L373.052 384.757
L373.154 384.816
L373.463 384.901
L373.568 384.996
L373.877 385.09
L373.979 385.194
L374.286 385.304
L374.39 385.43
L374.595 385.499
L374.699 385.618
L375.006 385.709
L375.112 385.803
L375.418 385.898
L375.522 385.97
L375.932 386.079
L376.035 386.15
L376.447 386.239
L376.55 386.274
L377.064 386.37
L377.169 386.43
L377.681 386.522
L377.784 386.585
L378.298 386.695
L378.401 386.744
L379.122 386.848
L379.225 386.871
L382.414 386.977
L382.517 387.019
L383.03 387.11
L383.135 387.158
L384.573 387.268
L384.679 387.272
L385.707 387.168
L385.807 387.119
L386.528 387.015
L386.631 386.991
L389.925 387.091
L390.028 387.152
L390.335 387.223
L390.437 387.299
L390.849 387.403
L390.952 387.472
L391.466 387.577
L391.57 387.608
L392.392 387.708
L392.494 387.754
L393.112 387.853
L393.215 387.9
L394.243 388.008
L394.346 388.031
L395.067 388.137
L395.169 388.175
L395.684 388.259
L395.787 388.334
L396.097 388.432
L396.198 388.525
L396.508 388.629
L396.61 388.73
L396.816 388.783
L396.918 388.911
L397.124 388.979
L397.227 389.117
L397.433 389.186
L397.536 389.319
L397.741 389.38
L397.844 389.509
L398.05 389.575
L398.154 389.689
L398.462 389.791
L398.564 389.892
L398.874 389.978
L398.975 390.045
L399.388 390.144
L399.49 390.194
L400.416 390.293
L400.52 390.321
L402.062 390.427
L402.165 390.448
L402.885 390.552
L402.987 390.581
L403.502 390.67
L403.605 390.727
L404.119 390.833
L404.223 390.894
L404.531 390.971
L404.634 391.047
L404.942 391.126
L405.045 391.221
L405.354 391.316
L405.458 391.418
L405.663 391.473
L405.765 391.598
L405.971 391.657
L406.074 391.764
L406.28 391.819
L406.385 391.942
L406.589 392.007
L406.691 392.135
L406.897 392.196
L406.999 392.321
L407.206 392.386
L407.309 392.499
L407.514 392.555
L407.617 392.683
L407.823 392.758
L407.926 392.906
L408.131 392.986
L408.234 393.147
L408.44 393.231
L408.543 393.407
L408.748 393.496
L408.852 393.68
L409.057 393.784
L409.161 393.995
L409.366 394.101
L409.469 394.315
L409.674 394.415
L409.779 394.607
L409.984 394.692
L410.087 394.858
L410.292 394.94
L410.396 395.085
L410.601 395.154
L410.703 395.309
L410.91 395.384
L411.012 395.549
L411.217 395.633
L411.32 395.785
L411.526 395.859
L411.63 396.019
L411.835 396.102
L411.938 396.251
L412.143 396.326
L412.246 396.473
L412.452 396.546
L412.555 396.701
L412.761 396.768
L412.864 396.91
L413.071 396.978
L413.172 397.12
L413.378 397.197
L413.481 397.35
L413.687 397.431
L413.789 397.621
L413.995 397.725
L414.098 397.932
L414.304 398.03
L414.407 398.197
L414.612 398.275
L414.716 398.434
L414.921 398.511
L415.024 398.67
L415.23 398.749
L415.332 398.907
L415.538 398.982
L415.641 399.118
L415.847 399.183
L415.95 399.314
L416.156 399.377
L416.259 399.501
L416.567 399.612
L416.67 399.73
L416.876 399.786
L416.979 399.913
L417.184 399.974
L417.287 400.099
L417.493 400.157
L417.596 400.275
L417.802 400.335
L417.904 400.453
L418.11 400.507
L418.213 400.635
L418.419 400.692
L418.522 400.799
L418.83 400.89
L418.933 400.97
L419.242 401.046
L419.345 401.124
L419.653 401.207
L419.756 401.294
L420.168 401.381
L420.27 401.43
L420.991 401.539
L421.093 401.596
L421.505 401.69
L421.608 401.753
L422.122 401.856
L422.225 401.902
L422.739 402.002
L422.843 402.047
L423.357 402.158
L423.459 402.213
L423.871 402.299
L423.975 402.363
L424.385 402.463
L424.489 402.523
L424.798 402.606
L424.901 402.696
L425.209 402.799
L425.311 402.917
L425.517 402.977
L425.62 403.084
L425.826 403.137
L425.929 403.257
L426.134 403.322
L426.237 403.454
L426.546 403.564
L426.649 403.664
L426.957 403.764
L427.06 403.849
L427.472 403.958
L427.574 404.039
L427.986 404.149
L428.089 404.202
L428.603 404.295
L428.706 404.333
L429.529 404.431
L429.632 404.451
L433.13 404.34
L433.233 404.328
L434.364 404.232
L434.467 404.205
L435.393 404.111
L435.496 404.067
L436.113 403.965
L436.216 403.912
L436.73 403.807
L436.833 403.773
L437.45 403.662
L437.553 403.625
L437.965 403.544
L438.068 403.478
L438.479 403.396
L438.582 403.334
L438.993 403.245
L439.096 403.204
L440.948 403.102
L441.052 403.083
L441.565 402.979
L441.668 402.909
L442.08 402.82
L442.183 402.749
L442.8 402.652
L442.903 402.592
L443.314 402.488
L443.417 402.43
L444.343 402.322
L444.446 402.294
L444.96 402.192
L445.063 402.107
L445.372 402.015
L445.475 401.921
L445.68 401.863
L445.783 401.736
L445.989 401.67
L446.092 401.526
L446.298 401.455
L446.4 401.297
L446.606 401.222
L446.709 401.064
L446.915 400.988
L447.018 400.816
L447.223 400.723
L447.327 400.528
L447.532 400.421
L447.635 400.19
L447.738 400.19
L447.841 399.961
L448.046 399.852
L448.149 399.643
L448.355 399.536
L448.458 399.334
L448.664 399.246
L448.767 399.081
L448.973 399.002
L449.075 398.853
L449.281 398.781
L449.384 398.637
L449.59 398.566
L449.692 398.428
L449.898 398.356
L450.001 398.219
L450.207 398.147
L450.31 397.999
L450.516 397.924
L450.618 397.759
L450.824 397.674
L450.927 397.508
L451.133 397.42
L451.236 397.249
L451.441 397.166
L451.544 396.981
L451.75 396.886
L451.853 396.707
L452.059 396.616
L452.161 396.42
L452.367 396.322
L452.47 396.123
L452.676 396.026
L452.779 395.842
L452.984 395.751
L453.087 395.57
L453.293 395.481
L453.396 395.308
L453.602 395.226
L453.705 395.069
L453.91 394.992
L454.013 394.857
L454.322 394.747
L454.425 394.629
L454.63 394.56
L454.733 394.41
L454.939 394.335
L455.042 394.183
L455.248 394.108
L455.35 393.954
L455.556 393.877
L455.659 393.707
L455.865 393.615
L455.968 393.446
L456.173 393.368
L456.276 393.222
L456.482 393.162
L456.585 393.032
L456.791 392.965
L456.894 392.832
L457.099 392.762
L457.202 392.612
L457.408 392.537
L457.511 392.402
L457.717 392.341
L457.819 392.22
L458.025 392.156
L458.128 392.03
L458.334 391.971
L458.437 391.844
L458.643 391.779
L458.745 391.647
L458.951 391.578
L459.054 391.44
L459.26 391.374
L459.363 391.258
L459.671 391.15
L459.774 391.03
L459.98 390.968
L460.083 390.836
L460.289 390.775
L460.391 390.664
L460.7 390.564
L460.803 390.468
L461.112 390.368
L461.214 390.265
L461.523 390.163
L461.626 390.078
L462.037 389.981
L462.14 389.923
L462.655 389.821
L462.757 389.751
L463.066 389.679
L463.169 389.605
L463.478 389.526
L463.581 389.465
L463.992 389.382
L464.095 389.318
L464.506 389.236
L464.609 389.177
L465.226 389.067
L465.329 389.036
L465.947 388.939
L466.05 388.886
L466.461 388.79
L466.564 388.734
L467.284 388.626
L467.387 388.589
L469.239 388.499
L469.341 388.457
L470.679 388.358
L470.782 388.325
L471.502 388.23
L471.605 388.156
L471.913 388.066
L472.016 387.987
L472.428 387.882
L472.531 387.796
L472.942 387.697
L473.045 387.62
L473.354 387.539
L473.457 387.445
L473.765 387.343
L473.868 387.268
L474.176 387.193
L474.279 387.125
L474.794 387.02
L474.897 386.954
L475.308 386.87
L475.411 386.804
L475.925 386.699
L476.028 386.631
L476.44 386.521
L476.543 386.45
L476.851 386.372
L476.954 386.292
L477.263 386.202
L477.366 386.109
L477.674 386.01
L477.777 385.907
L478.086 385.805
L478.189 385.714
L478.497 385.637
L478.6 385.569
L479.012 385.477
L479.115 385.417
L479.526 385.324
L479.629 385.275
L480.04 385.172
L480.143 385.103
L480.452 385.017
L480.555 384.912
L480.863 384.819
L480.966 384.724
L481.275 384.623
L481.378 384.516
L481.583 384.459
L481.686 384.33
L481.892 384.271
L481.995 384.151
L482.201 384.094
L482.304 383.97
L482.612 383.859
L482.715 383.742
L483.024 383.634
L483.127 383.522
L483.332 383.46
L483.435 383.328
L483.641 383.268
L483.744 383.143
L484.052 383.044
L484.155 382.932
L484.361 382.872
L484.464 382.757
L484.773 382.648
L484.875 382.536
L485.081 382.477
L485.184 382.356
L485.39 382.292
L485.493 382.16
L485.698 382.093
L485.801 381.972
L486.007 381.912
L486.11 381.799
L486.419 381.695
L486.522 381.601
L486.83 381.515
L486.933 381.428
L487.242 381.319
L487.344 381.206
L487.653 381.104
L487.756 381.015
L488.167 380.914
L488.27 380.863
L488.888 380.766
L488.99 380.728
L492.282 380.838
L492.385 380.848
L493.723 380.951
L493.826 380.968
L494.34 381.046
L494.443 381.114
L494.957 381.205
L495.06 381.257
L495.471 381.362
L495.574 381.413
L496.192 381.521
L496.294 381.577
L497.015 381.675
L497.117 381.703
L497.529 381.782
L497.632 381.853
L498.043 381.958
L498.146 382.032
L498.558 382.121
L498.661 382.174
L500.204 382.282
L500.307 382.292
L500.924 382.382
L501.027 382.444
L501.438 382.541
L501.541 382.61
L501.953 382.708
L502.055 382.751
L502.981 382.862
L503.084 382.883
L505.142 382.781
L505.245 382.755
L506.068 382.645
L506.17 382.618
L507.302 382.701
L507.405 382.766
L507.919 382.871
L508.022 382.926
L508.639 383.019
L508.742 383.056
L509.36 383.154
L509.462 383.191
L509.977 383.291
L510.08 383.331
L511.211 383.428
L511.314 383.464
L512.343 383.57
L512.446 383.607
L512.857 383.696
L512.96 383.756
L513.372 383.849
L513.475 383.919
L513.886 384.02
L513.989 384.083
L514.812 384.189
L514.915 384.235
L515.326 384.317
L515.429 384.389
L515.841 384.496
L515.943 384.566
L516.355 384.661
L516.458 384.704
L516.972 384.797
L517.075 384.84
L517.795 384.95
L517.898 385.005
L518.207 385.087
L518.31 385.175
L518.721 385.279
L518.824 385.342
L519.235 385.431
L519.338 385.493
L519.853 385.593
L519.956 385.627
L521.19 385.723
L521.293 385.791
L521.807 385.892
L521.91 385.933
L524.071 385.84
L524.173 385.785
L524.688 385.679
L524.791 385.637
L525.202 385.549
L525.305 385.471
L525.614 385.388
L525.717 385.318
L526.128 385.215
L526.231 385.152
L526.642 385.067
L526.745 385.017
L527.157 384.927
L527.26 384.88
L527.877 384.775
L527.98 384.739
L528.597 384.633
L528.7 384.599
L529.42 384.497
L529.523 384.467
L530.037 384.373
L530.14 384.33
L530.757 384.231
L530.86 384.186
L531.272 384.1
L531.375 384.017
L531.683 383.92
L531.786 383.812
L532.095 383.71
L532.198 383.605
L532.506 383.497
L532.609 383.393
L532.918 383.292
L533.021 383.2
L533.329 383.098
L533.432 383
L533.741 382.909
L533.844 382.82
L534.152 382.721
L534.255 382.635
L534.564 382.56
L534.667 382.472
L534.975 382.371
L535.078 382.244
L535.284 382.183
L535.387 382.058
L535.592 381.994
L535.695 381.887
L536.004 381.795
L536.107 381.709
L536.415 381.615
L536.518 381.518
L536.827 381.437
L536.93 381.362
L537.238 381.29
L537.341 381.206
L537.753 381.097
L537.856 381.016
L538.267 380.917
L538.37 380.847
L538.679 380.77
L538.782 380.679
L539.09 380.589
L539.193 380.498
L539.502 380.409
L539.605 380.321
L539.913 380.227
L540.016 380.14
L540.428 380.035
L540.53 379.978
L540.942 379.88
L541.045 379.818
L541.353 379.735
L541.456 379.661
L541.971 379.553
L542.074 379.502
L542.485 379.405
L542.588 379.361
L543.308 379.26
L543.411 379.224
L543.925 379.127
L544.028 379.078
L545.366 378.98
L545.468 378.948
L546.394 378.85
L546.497 378.825
L547.217 378.719
L547.32 378.639
L547.526 378.594
L547.526 378.552" style="fill:none;stroke:#0000ff;stroke-width:5.0;"/>
   </g>
   <g id="matplotlib.axis_1">
    <g id="xtick_1">
     <g id="line2d_2">
      <path d="
M172.772 412.239
L172.772 8.51291" style="fill:none;stroke:#000000;stroke-dasharray:1.000000,3.000000;stroke-dashoffset:0.0;stroke-linecap:butt;stroke-width:0.5;"/>
     </g>
     <g id="line2d_3">
      <defs>
       <path d="
M0 0
L0 -4" id="m3fbe6c24f1"/>
      </defs>
      <g>
       <use style="stroke:#000000;stroke-linecap:butt;stroke-width:0.5;" x="172.771988442" xlink:href="#m3fbe6c24f1" y="16.276875"/>
      </g>
     </g>
     <g id="text_1">
      <!-- 5 -->
      <defs>
       <path d="
M10.7969 72.9062
L49.5156 72.9062
L49.5156 64.5938
L19.8281 64.5938
L19.8281 46.7344
Q21.9688 47.4688 24.1094 47.8281
Q26.2656 48.1875 28.4219 48.1875
Q40.625 48.1875 47.75 41.5
Q54.8906 34.8125 54.8906 23.3906
Q54.8906 11.625 47.5625 5.09375
Q40.2344 -1.42188 26.9062 -1.42188
Q22.3125 -1.42188 17.5469 -0.640625
Q12.7969 0.140625 7.71875 1.70312
L7.71875 11.625
Q12.1094 9.23438 16.7969 8.0625
Q21.4844 6.89062 26.7031 6.89062
Q35.1562 6.89062 40.0781 11.3281
Q45.0156 15.7656 45.0156 23.3906
Q45.0156 31 40.0781 35.4375
Q35.1562 39.8906 26.7031 39.8906
Q22.75 39.8906 18.8125 39.0156
Q14.8906 38.1406 10.7969 36.2812
z
" id="BitstreamVeraSans-Roman-35"/>
      </defs>
      <g transform="translate(167.111363442 37.774375)scale(0.24 -0.24)">
       <use xlink:href="#BitstreamVeraSans-Roman-35"/>
      </g>
     </g>
    </g>
    <g id="xtick_2">
     <g id="line2d_4">
      <path d="
M312.39 412.239
L312.39 8.51291" style="fill:none;stroke:#000000;stroke-dasharray:1.000000,3.000000;stroke-dashoffset:0.0;stroke-linecap:butt;stroke-width:0.5;"/>
     </g>
     <g id="line2d_5">
      <defs>
       <path d="
M0 0
L0 -4" id="m3fbe6c24f1"/>
      </defs>
      <g>
       <use style="stroke:#000000;stroke-linecap:butt;stroke-width:0.5;" x="312.390065662" xlink:href="#m3fbe6c24f1" y="16.276875"/>
      </g>
     </g>
     <g id="text_2">
      <!-- 10 -->
      <defs>
       <path d="
M31.7812 66.4062
Q24.1719 66.4062 20.3281 58.9062
Q16.5 51.4219 16.5 36.375
Q16.5 21.3906 20.3281 13.8906
Q24.1719 6.39062 31.7812 6.39062
Q39.4531 6.39062 43.2812 13.8906
Q47.125 21.3906 47.125 36.375
Q47.125 51.4219 43.2812 58.9062
Q39.4531 66.4062 31.7812 66.4062
M31.7812 74.2188
Q44.0469 74.2188 50.5156 64.5156
Q56.9844 54.8281 56.9844 36.375
Q56.9844 17.9688 50.5156 8.26562
Q44.0469 -1.42188 31.7812 -1.42188
Q19.5312 -1.42188 13.0625 8.26562
Q6.59375 17.9688 6.59375 36.375
Q6.59375 54.8281 13.0625 64.5156
Q19.5312 74.2188 31.7812 74.2188" id="BitstreamVeraSans-Roman-30"/>
       <path d="
M12.4062 8.29688
L28.5156 8.29688
L28.5156 63.9219
L10.9844 60.4062
L10.9844 69.3906
L28.4219 72.9062
L38.2812 72.9062
L38.2812 8.29688
L54.3906 8.29688
L54.3906 0
L12.4062 0
z
" id="BitstreamVeraSans-Roman-31"/>
      </defs>
      <g transform="translate(299.235065662 38.089375)scale(0.24 -0.24)">
       <use xlink:href="#BitstreamVeraSans-Roman-31"/>
       <use x="63.623046875" xlink:href="#BitstreamVeraSans-Roman-30"/>
      </g>
     </g>
    </g>
    <g id="xtick_3">
     <g id="line2d_6">
      <path d="
M452.008 412.239
L452.008 8.51291" style="fill:none;stroke:#000000;stroke-dasharray:1.000000,3.000000;stroke-dashoffset:0.0;stroke-linecap:butt;stroke-width:0.5;"/>
     </g>
     <g id="line2d_7">
      <defs>
       <path d="
M0 0
L0 -4" id="m3fbe6c24f1"/>
      </defs>
      <g>
       <use style="stroke:#000000;stroke-linecap:butt;stroke-width:0.5;" x="452.008142882" xlink:href="#m3fbe6c24f1" y="16.276875"/>
      </g>
     </g>
     <g id="text_3">
      <!-- 15 -->
      <g transform="translate(439.104392882 37.774375)scale(0.24 -0.24)">
       <use xlink:href="#BitstreamVeraSans-Roman-31"/>
       <use x="63.623046875" xlink:href="#BitstreamVeraSans-Roman-35"/>
      </g>
     </g>
    </g>
    <g id="xtick_4">
     <g id="line2d_8">
      <defs>
       <path d="
M0 0
L0 -2" id="mf0ff38ea95"/>
      </defs>
      <g>
       <use style="stroke:#000000;stroke-linecap:butt;stroke-width:0.5;" x="61.0775266664" xlink:href="#mf0ff38ea95" y="16.276875"/>
      </g>
     </g>
    </g>
    <g id="xtick_5">
     <g id="line2d_9">
      <defs>
       <path d="
M0 0
L0 -2" id="mf0ff38ea95"/>
      </defs>
      <g>
       <use style="stroke:#000000;stroke-linecap:butt;stroke-width:0.5;" x="89.0011421104" xlink:href="#mf0ff38ea95" y="16.276875"/>
      </g>
     </g>
    </g>
    <g id="xtick_6">
     <g id="line2d_10">
      <defs>
       <path d="
M0 0
L0 -2" id="mf0ff38ea95"/>
      </defs>
      <g>
       <use style="stroke:#000000;stroke-linecap:butt;stroke-width:0.5;" x="116.924757554" xlink:href="#mf0ff38ea95" y="16.276875"/>
      </g>
     </g>
    </g>
    <g id="xtick_7">
     <g id="line2d_11">
      <defs>
       <path d="
M0 0
L0 -2" id="mf0ff38ea95"/>
      </defs>
      <g>
       <use style="stroke:#000000;stroke-linecap:butt;stroke-width:0.5;" x="144.848372998" xlink:href="#mf0ff38ea95" y="16.276875"/>
      </g>
     </g>
    </g>
    <g id="xtick_8">
     <g id="line2d_12">
      <defs>
       <path d="
M0 0
L0 -2" id="mf0ff38ea95"/>
      </defs>
      <g>
       <use style="stroke:#000000;stroke-linecap:butt;stroke-width:0.5;" x="200.695603886" xlink:href="#mf0ff38ea95" y="16.276875"/>
      </g>
     </g>
    </g>
    <g id="xtick_9">
     <g id="line2d_13">
      <defs>
       <path d="
M0 0
L0 -2" id="mf0ff38ea95"/>
      </defs>
      <g>
       <use style="stroke:#000000;stroke-linecap:butt;stroke-width:0.5;" x="228.61921933" xlink:href="#mf0ff38ea95" y="16.276875"/>
      </g>
     </g>
    </g>
    <g id="xtick_10">
     <g id="line2d_14">
      <defs>
       <path d="
M0 0
L0 -2" id="mf0ff38ea95"/>
      </defs>
      <g>
       <use style="stroke:#000000;stroke-linecap:butt;stroke-width:0.5;" x="256.542834774" xlink:href="#mf0ff38ea95" y="16.276875"/>
      </g>
     </g>
    </g>
    <g id="xtick_11">
     <g id="line2d_15">
      <defs>
       <path d="
M0 0
L0 -2" id="mf0ff38ea95"/>
      </defs>
      <g>
       <use style="stroke:#000000;stroke-linecap:butt;stroke-width:0.5;" x="284.466450218" xlink:href="#mf0ff38ea95" y="16.276875"/>
      </g>
     </g>
    </g>
    <g id="xtick_12">
     <g id="line2d_16">
      <defs>
       <path d="
M0 0
L0 -2" id="mf0ff38ea95"/>
      </defs>
      <g>
       <use style="stroke:#000000;stroke-linecap:butt;stroke-width:0.5;" x="340.313681106" xlink:href="#mf0ff38ea95" y="16.276875"/>
      </g>
     </g>
    </g>
    <g id="xtick_13">
     <g id="line2d_17">
      <defs>
       <path d="
M0 0
L0 -2" id="mf0ff38ea95"/>
      </defs>
      <g>
       <use style="stroke:#000000;stroke-linecap:butt;stroke-width:0.5;" x="368.23729655" xlink:href="#mf0ff38ea95" y="16.276875"/>
      </g>
     </g>
    </g>
    <g id="xtick_14">
     <g id="line2d_18">
      <defs>
       <path d="
M0 0
L0 -2" id="mf0ff38ea95"/>
      </defs>
      <g>
       <use style="stroke:#000000;stroke-linecap:butt;stroke-width:0.5;" x="396.160911994" xlink:href="#mf0ff38ea95" y="16.276875"/>
      </g>
     </g>
    </g>
    <g id="xtick_15">
     <g id="line2d_19">
      <defs>
       <path d="
M0 0
L0 -2" id="mf0ff38ea95"/>
      </defs>
      <g>
       <use style="stroke:#000000;stroke-linecap:butt;stroke-width:0.5;" x="424.084527438" xlink:href="#mf0ff38ea95" y="16.276875"/>
      </g>
     </g>
    </g>
    <g id="xtick_16">
     <g id="line2d_20">
      <defs>
       <path d="
M0 0
L0 -2" id="mf0ff38ea95"/>
      </defs>
      <g>
       <use style="stroke:#000000;stroke-linecap:butt;stroke-width:0.5;" x="479.931758326" xlink:href="#mf0ff38ea95" y="16.276875"/>
      </g>
     </g>
    </g>
    <g id="xtick_17">
     <g id="line2d_21">
      <defs>
       <path d="
M0 0
L0 -2" id="mf0ff38ea95"/>
      </defs>
      <g>
       <use style="stroke:#000000;stroke-linecap:butt;stroke-width:0.5;" x="507.85537377" xlink:href="#mf0ff38ea95" y="16.276875"/>
      </g>
     </g>
    </g>
   </g>
   <g id="matplotlib.axis_2">
    <g id="ytick_1">
     <g id="line2d_22">
      <path d="
M42.6088 388.114
L557.426 388.114" style="fill:none;stroke:#000000;stroke-dasharray:1.000000,3.000000;stroke-dashoffset:0.0;stroke-linecap:butt;stroke-width:0.5;"/>
     </g>
     <g id="line2d_23">
      <defs>
       <path d="
M0 0
L4 0" id="mc91e532072"/>
      </defs>
      <g>
       <use style="stroke:#000000;stroke-linecap:butt;stroke-width:0.5;" x="32.60875" xlink:href="#mc91e532072" y="388.114279817"/>
      </g>
     </g>
     <g id="text_4">
      <!-- -4 -->
      <defs>
       <path d="
M4.89062 31.3906
L31.2031 31.3906
L31.2031 23.3906
L4.89062 23.3906
z
" id="BitstreamVeraSans-Roman-2d"/>
       <path d="
M37.7969 64.3125
L12.8906 25.3906
L37.7969 25.3906
z

M35.2031 72.9062
L47.6094 72.9062
L47.6094 25.3906
L58.0156 25.3906
L58.0156 17.1875
L47.6094 17.1875
L47.6094 0
L37.7969 0
L37.7969 17.1875
L4.89062 17.1875
L4.89062 26.7031
z
" id="BitstreamVeraSans-Roman-34"/>
      </defs>
      <g transform="translate(7.2 396.863029817)scale(0.24 -0.24)">
       <use xlink:href="#BitstreamVeraSans-Roman-2d"/>
       <use x="36.083984375" xlink:href="#BitstreamVeraSans-Roman-34"/>
      </g>
     </g>
    </g>
    <g id="ytick_2">
     <g id="line2d_24">
      <path d="
M42.6088 295.155
L557.426 295.155" style="fill:none;stroke:#000000;stroke-dasharray:1.000000,3.000000;stroke-dashoffset:0.0;stroke-linecap:butt;stroke-width:0.5;"/>
     </g>
     <g id="line2d_25">
      <defs>
       <path d="
M0 0
L4 0" id="mc91e532072"/>
      </defs>
      <g>
       <use style="stroke:#000000;stroke-linecap:butt;stroke-width:0.5;" x="32.60875" xlink:href="#mc91e532072" y="295.154928613"/>
      </g>
     </g>
     <g id="text_5">
      <!-- -3 -->
      <defs>
       <path d="
M40.5781 39.3125
Q47.6562 37.7969 51.625 33
Q55.6094 28.2188 55.6094 21.1875
Q55.6094 10.4062 48.1875 4.48438
Q40.7656 -1.42188 27.0938 -1.42188
Q22.5156 -1.42188 17.6562 -0.515625
Q12.7969 0.390625 7.625 2.20312
L7.625 11.7188
Q11.7188 9.32812 16.5938 8.10938
Q21.4844 6.89062 26.8125 6.89062
Q36.0781 6.89062 40.9375 10.5469
Q45.7969 14.2031 45.7969 21.1875
Q45.7969 27.6406 41.2812 31.2656
Q36.7656 34.9062 28.7188 34.9062
L20.2188 34.9062
L20.2188 43.0156
L29.1094 43.0156
Q36.375 43.0156 40.2344 45.9219
Q44.0938 48.8281 44.0938 54.2969
Q44.0938 59.9062 40.1094 62.9062
Q36.1406 65.9219 28.7188 65.9219
Q24.6562 65.9219 20.0156 65.0312
Q15.375 64.1562 9.8125 62.3125
L9.8125 71.0938
Q15.4375 72.6562 20.3438 73.4375
Q25.25 74.2188 29.5938 74.2188
Q40.8281 74.2188 47.3594 69.1094
Q53.9062 64.0156 53.9062 55.3281
Q53.9062 49.2656 50.4375 45.0938
Q46.9688 40.9219 40.5781 39.3125" id="BitstreamVeraSans-Roman-33"/>
      </defs>
      <g transform="translate(7.7775 303.890553613)scale(0.24 -0.24)">
       <use xlink:href="#BitstreamVeraSans-Roman-2d"/>
       <use x="36.083984375" xlink:href="#BitstreamVeraSans-Roman-33"/>
      </g>
     </g>
    </g>
    <g id="ytick_3">
     <g id="line2d_26">
      <path d="
M42.6088 202.196
L557.426 202.196" style="fill:none;stroke:#000000;stroke-dasharray:1.000000,3.000000;stroke-dashoffset:0.0;stroke-linecap:butt;stroke-width:0.5;"/>
     </g>
     <g id="line2d_27">
      <defs>
       <path d="
M0 0
L4 0" id="mc91e532072"/>
      </defs>
      <g>
       <use style="stroke:#000000;stroke-linecap:butt;stroke-width:0.5;" x="32.60875" xlink:href="#mc91e532072" y="202.195577409"/>
      </g>
     </g>
     <g id="text_6">
      <!-- -2 -->
      <defs>
       <path d="
M19.1875 8.29688
L53.6094 8.29688
L53.6094 0
L7.32812 0
L7.32812 8.29688
Q12.9375 14.1094 22.625 23.8906
Q32.3281 33.6875 34.8125 36.5312
Q39.5469 41.8438 41.4219 45.5312
Q43.3125 49.2188 43.3125 52.7812
Q43.3125 58.5938 39.2344 62.25
Q35.1562 65.9219 28.6094 65.9219
Q23.9688 65.9219 18.8125 64.3125
Q13.6719 62.7031 7.8125 59.4219
L7.8125 69.3906
Q13.7656 71.7812 18.9375 73
Q24.125 74.2188 28.4219 74.2188
Q39.75 74.2188 46.4844 68.5469
Q53.2188 62.8906 53.2188 53.4219
Q53.2188 48.9219 51.5312 44.8906
Q49.8594 40.875 45.4062 35.4062
Q44.1875 33.9844 37.6406 27.2188
Q31.1094 20.4531 19.1875 8.29688" id="BitstreamVeraSans-Roman-32"/>
      </defs>
      <g transform="translate(8.2575 211.101827409)scale(0.24 -0.24)">
       <use xlink:href="#BitstreamVeraSans-Roman-2d"/>
       <use x="36.083984375" xlink:href="#BitstreamVeraSans-Roman-32"/>
      </g>
     </g>
    </g>
    <g id="ytick_4">
     <g id="line2d_28">
      <path d="
M42.6088 109.236
L557.426 109.236" style="fill:none;stroke:#000000;stroke-dasharray:1.000000,3.000000;stroke-dashoffset:0.0;stroke-linecap:butt;stroke-width:0.5;"/>
     </g>
     <g id="line2d_29">
      <defs>
       <path d="
M0 0
L4 0" id="mc91e532072"/>
      </defs>
      <g>
       <use style="stroke:#000000;stroke-linecap:butt;stroke-width:0.5;" x="32.60875" xlink:href="#mc91e532072" y="109.236226204"/>
      </g>
     </g>
     <g id="text_7">
      <!-- -1 -->
      <g transform="translate(8.07 117.984976204)scale(0.24 -0.24)">
       <use xlink:href="#BitstreamVeraSans-Roman-2d"/>
       <use x="36.083984375" xlink:href="#BitstreamVeraSans-Roman-31"/>
      </g>
     </g>
    </g>
    <g id="ytick_5">
     <g id="line2d_30">
      <path d="
M42.6088 16.2769
L557.426 16.2769" style="fill:none;stroke:#000000;stroke-dasharray:1.000000,3.000000;stroke-dashoffset:0.0;stroke-linecap:butt;stroke-width:0.5;"/>
     </g>
     <g id="line2d_31">
      <defs>
       <path d="
M0 0
L4 0" id="mc91e532072"/>
      </defs>
      <g>
       <use style="stroke:#000000;stroke-linecap:butt;stroke-width:0.5;" x="32.60875" xlink:href="#mc91e532072" y="16.276875"/>
      </g>
     </g>
     <g id="text_8">
      <!-- 0 -->
      <g transform="translate(16.515 25.0125)scale(0.24 -0.24)">
       <use xlink:href="#BitstreamVeraSans-Roman-30"/>
      </g>
     </g>
    </g>
    <g id="ytick_6">
     <g id="line2d_32">
      <defs>
       <path d="
M0 0
L2 0" id="m0789224b6b"/>
      </defs>
      <g>
       <use style="stroke:#000000;stroke-linecap:butt;stroke-width:0.5;" x="32.60875" xlink:href="#m0789224b6b" y="406.706150058"/>
      </g>
     </g>
    </g>
    <g id="ytick_7">
     <g id="line2d_33">
      <defs>
       <path d="
M0 0
L2 0" id="m0789224b6b"/>
      </defs>
      <g>
       <use style="stroke:#000000;stroke-linecap:butt;stroke-width:0.5;" x="32.60875" xlink:href="#m0789224b6b" y="369.522409577"/>
      </g>
     </g>
    </g>
    <g id="ytick_8">
     <g id="line2d_34">
      <defs>
       <path d="
M0 0
L2 0" id="m0789224b6b"/>
      </defs>
      <g>
       <use style="stroke:#000000;stroke-linecap:butt;stroke-width:0.5;" x="32.60875" xlink:href="#m0789224b6b" y="350.930539336"/>
      </g>
     </g>
    </g>
    <g id="ytick_9">
     <g id="line2d_35">
      <defs>
       <path d="
M0 0
L2 0" id="m0789224b6b"/>
      </defs>
      <g>
       <use style="stroke:#000000;stroke-linecap:butt;stroke-width:0.5;" x="32.60875" xlink:href="#m0789224b6b" y="332.338669095"/>
      </g>
     </g>
    </g>
    <g id="ytick_10">
     <g id="line2d_36">
      <defs>
       <path d="
M0 0
L2 0" id="m0789224b6b"/>
      </defs>
      <g>
       <use style="stroke:#000000;stroke-linecap:butt;stroke-width:0.5;" x="32.60875" xlink:href="#m0789224b6b" y="313.746798854"/>
      </g>
     </g>
    </g>
    <g id="ytick_11">
     <g id="line2d_37">
      <defs>
       <path d="
M0 0
L2 0" id="m0789224b6b"/>
      </defs>
      <g>
       <use style="stroke:#000000;stroke-linecap:butt;stroke-width:0.5;" x="32.60875" xlink:href="#m0789224b6b" y="276.563058372"/>
      </g>
     </g>
    </g>
    <g id="ytick_12">
     <g id="line2d_38">
      <defs>
       <path d="
M0 0
L2 0" id="m0789224b6b"/>
      </defs>
      <g>
       <use style="stroke:#000000;stroke-linecap:butt;stroke-width:0.5;" x="32.60875" xlink:href="#m0789224b6b" y="257.971188131"/>
      </g>
     </g>
    </g>
    <g id="ytick_13">
     <g id="line2d_39">
      <defs>
       <path d="
M0 0
L2 0" id="m0789224b6b"/>
      </defs>
      <g>
       <use style="stroke:#000000;stroke-linecap:butt;stroke-width:0.5;" x="32.60875" xlink:href="#m0789224b6b" y="239.37931789"/>
      </g>
     </g>
    </g>
    <g id="ytick_14">
     <g id="line2d_40">
      <defs>
       <path d="
M0 0
L2 0" id="m0789224b6b"/>
      </defs>
      <g>
       <use style="stroke:#000000;stroke-linecap:butt;stroke-width:0.5;" x="32.60875" xlink:href="#m0789224b6b" y="220.78744765"/>
      </g>
     </g>
    </g>
    <g id="ytick_15">
     <g id="line2d_41">
      <defs>
       <path d="
M0 0
L2 0" id="m0789224b6b"/>
      </defs>
      <g>
       <use style="stroke:#000000;stroke-linecap:butt;stroke-width:0.5;" x="32.60875" xlink:href="#m0789224b6b" y="202.195577409"/>
      </g>
     </g>
    </g>
    <g id="ytick_16">
     <g id="line2d_42">
      <defs>
       <path d="
M0 0
L2 0" id="m0789224b6b"/>
      </defs>
      <g>
       <use style="stroke:#000000;stroke-linecap:butt;stroke-width:0.5;" x="32.60875" xlink:href="#m0789224b6b" y="183.603707168"/>
      </g>
     </g>
    </g>
    <g id="ytick_17">
     <g id="line2d_43">
      <defs>
       <path d="
M0 0
L2 0" id="m0789224b6b"/>
      </defs>
      <g>
       <use style="stroke:#000000;stroke-linecap:butt;stroke-width:0.5;" x="32.60875" xlink:href="#m0789224b6b" y="165.011836927"/>
      </g>
     </g>
    </g>
    <g id="ytick_18">
     <g id="line2d_44">
      <defs>
       <path d="
M0 0
L2 0" id="m0789224b6b"/>
      </defs>
      <g>
       <use style="stroke:#000000;stroke-linecap:butt;stroke-width:0.5;" x="32.60875" xlink:href="#m0789224b6b" y="146.419966686"/>
      </g>
     </g>
    </g>
    <g id="ytick_19">
     <g id="line2d_45">
      <defs>
       <path d="
M0 0
L2 0" id="m0789224b6b"/>
      </defs>
      <g>
       <use style="stroke:#000000;stroke-linecap:butt;stroke-width:0.5;" x="32.60875" xlink:href="#m0789224b6b" y="127.828096445"/>
      </g>
     </g>
    </g>
    <g id="ytick_20">
     <g id="line2d_46">
      <defs>
       <path d="
M0 0
L2 0" id="m0789224b6b"/>
      </defs>
      <g>
       <use style="stroke:#000000;stroke-linecap:butt;stroke-width:0.5;" x="32.60875" xlink:href="#m0789224b6b" y="109.236226204"/>
      </g>
     </g>
    </g>
    <g id="ytick_21">
     <g id="line2d_47">
      <defs>
       <path d="
M0 0
L2 0" id="m0789224b6b"/>
      </defs>
      <g>
       <use style="stroke:#000000;stroke-linecap:butt;stroke-width:0.5;" x="32.60875" xlink:href="#m0789224b6b" y="90.6443559635"/>
      </g>
     </g>
    </g>
    <g id="ytick_22">
     <g id="line2d_48">
      <defs>
       <path d="
M0 0
L2 0" id="m0789224b6b"/>
      </defs>
      <g>
       <use style="stroke:#000000;stroke-linecap:butt;stroke-width:0.5;" x="32.60875" xlink:href="#m0789224b6b" y="72.0524857226"/>
      </g>
     </g>
    </g>
    <g id="ytick_23">
     <g id="line2d_49">
      <defs>
       <path d="
M0 0
L2 0" id="m0789224b6b"/>
      </defs>
      <g>
       <use style="stroke:#000000;stroke-linecap:butt;stroke-width:0.5;" x="32.60875" xlink:href="#m0789224b6b" y="53.4606154817"/>
      </g>
     </g>
    </g>
    <g id="ytick_24">
     <g id="line2d_50">
      <defs>
       <path d="
M0 0
L2 0" id="m0789224b6b"/>
      </defs>
      <g>
       <use style="stroke:#000000;stroke-linecap:butt;stroke-width:0.5;" x="32.60875" xlink:href="#m0789224b6b" y="34.8687452409"/>
      </g>
     </g>
    </g>
   </g>
   <g id="patch_3">
    <path d="
M42.6088 16.2769
L557.426 16.2769" style="fill:none;stroke:#000000;stroke-width:0.8;"/>
   </g>
   <g id="patch_4">
    <path d="
M32.6088 412.239
L32.6088 8.51291" style="fill:none;stroke:#000000;stroke-width:0.8;"/>
   </g>
  </g>
 </g>
 <defs>
  <clipPath id="p10490cade4">
   <rect height="403.726153846" width="514.8175" x="42.60875" y="8.51291050296"/>
  </clipPath>
 </defs>
</svg>
