<?xml version="1.0" encoding="utf-8" standalone="no"?>
<!DOCTYPE svg PUBLIC "-//W3C//DTD SVG 1.1//EN"
  "http://www.w3.org/Graphics/SVG/1.1/DTD/svg11.dtd">
<!-- Created with matplotlib (http://matplotlib.sourceforge.net/) -->
<svg height="419pt" version="1.1" viewBox="0 0 564 419" width="564pt" xmlns="http://www.w3.org/2000/svg" xmlns:xlink="http://www.w3.org/1999/xlink">
 <defs>
  <style type="text/css">
*{stroke-linecap:square;stroke-linejoin:round;}
  </style>
 </defs>
 <g id="figure_1">
  <g id="patch_1">
   <path d="
M2.22045e-16 419.41
L564.604 419.41
L564.604 0
L2.22045e-16 0
z
" style="fill:#ffffff;"/>
  </g>
  <g id="axes_1">
   <g id="patch_2">
    <path d="
M64.6363 412.21
L557.404 412.21
L557.404 7.2
L64.6363 7.2
z
" style="fill:#ffffff;"/>
   </g>
   <g id="line2d_1">
    <path clip-path="url(#pd71750d3b8)" d="
M74.1125 342.137
L84.9497 342.137
L84.9497 360.17
L98.6028 360.17
L98.6028 404.422
L107.596 404.422
L107.596 395.116
L119.676 395.116
L119.676 371.72
L124.141 371.72
L124.141 358.793
L131.311 358.793
L131.311 342.507
L134.284 342.507
L134.284 337.014
L139.391 337.014
L139.391 325.149
L145.586 325.149
L145.586 302.925
L147.369 302.925
L147.369 296.975
L152.098 296.975
L152.098 279.092
L154.841 279.092
L154.841 274.41
L156.114 274.41
L156.114 274.622
L158.492 274.622
L158.492 276.961
L161.703 276.961
L161.703 281.468
L164.569 281.468
L164.569 288.181
L165.46 288.181
L165.46 291.334
L167.968 291.334
L167.968 300.924
L169.518 300.924
L169.518 305.078
L170.26 305.078
L170.26 307.01
L172.371 307.01
L172.371 313.208
L173.691 313.208
L173.691 316.835
L175.557 316.835
L175.557 321.311
L177.858 321.311
L177.858 325.667
L178.938 325.667
L178.938 327.193
L179.462 327.193
L179.462 327.59
L180.48 327.59
L180.48 328.395
L180.975 328.395
L180.975 328.712
L181.938 328.712
L181.938 329.743
L185.06 329.743
L185.06 332.676
L185.889 332.676
L185.889 332.935
L187.086 332.935
L187.086 332.629
L187.473 332.629
L187.473 332.44
L189.33 332.44
L189.33 330.778
L189.686 330.778
L189.686 330.283
L190.728 330.283
L190.728 328.766
L191.73 328.766
L191.73 327.141
L192.378 327.141
L192.378 325.846
L193.322 325.846
L193.322 323.571
L194.233 323.571
L194.233 321.05
L194.53 321.05
L194.53 320.065
L195.967 320.065
L195.967 315.046
L196.246 315.046
L196.246 314.111
L196.794 314.111
L196.794 312.237
L197.064 312.237
L197.064 311.27
L198.629 311.27
L198.629 305.771
L200.107 305.771
L200.107 300.275
L200.582 300.275
L200.582 298.402
L200.817 298.402
L200.817 297.468
L201.28 297.468
L201.28 295.763
L201.959 295.763
L201.959 293.037
L202.182 293.037
L202.182 292.128
L203.269 292.128
L203.269 287.72
L203.9 287.72
L203.9 284.999
L204.517 284.999
L204.517 282.316
L205.12 282.316
L205.12 279.578
L205.318 279.578
L205.318 278.668
L205.903 278.668
L205.903 276.236
L206.286 276.236
L206.286 274.721
L206.476 274.721
L206.476 273.949
L207.404 273.949
L207.404 270.342
L208.651 270.342
L208.651 266.106
L208.997 266.106
L208.997 265.039
L209.169 265.039
L209.169 264.47
L209.508 264.47
L209.508 263.306
L210.663 263.306
L210.663 259.889
L211.143 259.889
L211.143 258.436
L211.925 258.436
L211.925 256.289
L212.079 256.289
L212.079 255.871
L212.383 255.871
L212.383 254.969
L212.834 254.969
L212.834 253.615
L213.423 253.615
L213.423 251.636
L213.856 251.636
L213.856 250.158
L214.283 250.158
L214.283 248.734
L214.563 248.734
L214.563 247.906
L214.979 247.906
L214.979 246.605
L215.523 246.605
L215.523 244.887
L215.791 244.887
L215.791 244.067
L216.319 244.067
L216.319 242.441
L216.964 242.441
L216.964 240.327
L217.092 240.327
L217.092 239.886
L217.719 239.886
L217.719 237.567
L217.843 237.567
L217.843 237.122
L218.211 237.122
L218.211 235.874
L218.453 235.874
L218.453 234.986
L218.813 234.986
L218.813 233.674
L219.285 233.674
L219.285 231.868
L219.518 231.868
L219.518 231.012
L219.633 231.012
L219.633 230.604
L219.863 230.604
L219.863 229.731
L220.541 229.731
L220.541 227.377
L220.984 227.377
L220.984 225.884
L221.203 225.884
L221.203 225.173
L221.635 225.173
L221.635 223.786
L221.848 223.786
L221.848 223.091
L222.165 223.091
L222.165 221.981
L222.788 221.981
L222.89 219.407
L223.795 219.407
L223.795 216.157
L224.089 216.157
L224.089 215.043
L224.574 215.043
L224.574 213.173
L224.86 213.173
L224.86 212.076
L225.143 212.076
L225.237 210.643
L225.516 210.643
L225.516 209.603
L225.976 209.603
L225.976 207.865
L226.247 207.865
L226.247 206.797
L226.517 206.797
L226.606 205.333
L226.871 205.333
L226.871 204.208
L227.134 204.208
L227.134 203.089
L227.308 203.089
L227.394 202.024
L227.908 202.024
L227.908 199.959
L228.328 199.959
L228.411 197.889
L228.577 197.889
L228.577 197.243
L228.824 197.243
L228.824 196.275
L229.068 196.275
L229.149 194.976
L229.63 194.976
L229.63 193.168
L229.788 193.168
L229.788 192.592
L230.024 192.592
L230.024 191.705
L230.335 191.705
L230.335 190.474
L230.719 190.474
L230.719 188.952
L231.023 188.952
L231.023 187.779
L231.397 187.779
L231.397 186.425
L231.693 186.425
L231.693 185.407
L231.912 185.407
L231.912 184.644
L232.13 184.644
L232.13 183.905
L232.275 183.905
L232.275 183.412
L232.561 183.412
L232.561 182.429
L232.774 182.429
L232.774 181.736
L232.914 181.736
L232.914 181.254
L233.194 181.254
L233.194 180.294
L233.333 180.294
L233.333 179.849
L233.812 179.849
L233.812 178.358
L234.15 178.358
L234.15 177.319
L234.549 177.319
L234.615 175.886
L234.943 175.886
L235.008 174.757
L235.137 174.757
L235.202 174.21
L235.522 174.21
L235.522 173.242
L235.965 173.242
L235.965 172.005
L236.09 172.005
L236.152 171.466
L236.276 171.466
L236.276 171.124
L236.706 171.124
L236.706 169.923
L236.828 169.923
L236.889 169.395
L237.009 169.395
L237.009 169.014
L237.605 169.014
L237.605 167.123
L237.723 167.123
L237.723 166.733
L237.957 166.733
L237.957 165.931
L238.246 165.931
L238.246 164.985
L238.475 164.985
L238.475 164.199
L238.589 164.199
L238.589 163.833
L238.759 163.833
L238.759 163.301
L238.928 163.301
L238.928 162.747
L239.317 162.747
L239.428 161.139
L239.592 161.139
L239.592 160.614
L239.756 160.614
L239.756 160.099
L239.973 160.099
L239.973 159.444
L240.134 159.444
L240.134 158.956
L240.454 158.956
L240.559 157.698
L240.717 157.698
L240.77 157.07
L241.03 157.07
L241.082 156.179
L241.237 156.179
L241.237 155.718
L241.493 155.718
L241.544 154.858
L241.797 154.858
L241.847 154.015
L241.998 154.015
L241.998 153.62
L242.444 153.62
L242.542 152.123
L242.591 152.123
L242.689 151.703
L242.834 151.703
L242.834 151.292
L242.979 151.292
L242.979 150.877
L243.172 150.877
L243.172 150.349
L243.315 150.349
L243.315 149.942
L243.457 149.942
L243.457 149.543
L243.973 149.543
L244.019 148.055
L244.25 148.055
L244.25 147.433
L244.433 147.433
L244.433 146.955
L244.661 146.955
L244.661 146.339
L244.796 146.339
L244.796 145.961
L244.931 145.961
L244.931 145.578
L245.11 145.578
L245.11 145.062
L245.375 145.062
L245.463 143.998
L245.595 143.998
L245.595 143.589
L245.726 143.589
L245.769 143.041
L245.899 143.041
L245.899 142.641
L246.157 142.641
L246.157 141.848
L246.37 141.848
L246.37 141.174
L246.75 141.174
L246.791 139.782
L246.875 139.782
L246.875 139.485
L247 139.485
L247.041 138.905
L247.165 138.905
L247.247 138.188
L247.288 138.188
L247.37 137.759
L247.614 137.759
L247.655 136.735
L247.776 136.735
L247.776 136.312
L248.452 136.312
L248.452 134.076
L248.57 134.076
L248.57 133.685
L248.687 133.685
L248.687 133.307
L248.842 133.307
L248.842 132.805
L249.188 132.805
L249.188 131.681
L249.379 131.681
L249.379 131.085
L249.643 131.085
L249.718 130.055
L249.83 129.944
L249.83 129.721
L249.942 129.721
L249.942 129.394
L250.09 129.394
L250.201 128.637
L250.311 128.637
L250.311 128.304
L250.53 128.304
L250.53 127.622
L250.711 127.622
L250.819 126.761
L250.926 126.659
L251.034 126.153
L251.247 126.153
L251.247 125.58
L251.458 125.58
L251.458 125.031
L251.598 125.031
L251.598 124.652
L251.807 124.652
L251.911 123.782
L251.979 123.782
L252.083 123.337
L252.219 123.337
L252.287 122.84
L252.423 122.84
L252.491 122.365
L252.726 122.365
L252.793 121.658
L252.893 121.658
L252.993 121.177
L253.092 121.177
L253.125 120.837
L253.224 120.837
L253.224 120.582
L253.387 120.582
L253.387 120.161
L253.712 120.161
L253.809 119.1
L253.873 119.1
L253.905 118.87
L254.286 118.87
L254.381 117.814
L254.538 117.814
L254.538 117.458
L254.725 117.458
L254.756 116.934
L254.911 116.934
L254.911 116.572
L255.034 116.572
L255.126 116.085
L255.217 116.085
L255.309 115.697
L255.581 115.697
L255.671 114.918
L255.731 114.918
L255.761 114.722
L255.939 114.722
L255.939 114.317
L256.087 114.317
L256.087 113.983
L256.264 113.983
L256.264 113.584
L256.381 113.584
L256.381 113.32
L256.613 113.32
L256.613 112.781
L256.815 112.781
L256.901 112.123
L256.958 112.123
L257.044 111.787
L257.214 111.716
L257.214 111.376
L257.384 111.376
L257.468 110.782
L257.552 110.782
L257.552 110.588
L257.802 110.588
L257.83 109.969
L258.05 109.969
L258.077 109.427
L258.377 109.427
L258.458 108.567
L258.566 108.567
L258.647 108.152
L258.7 108.152
L258.781 107.862
L258.887 107.862
L258.967 107.494
L259.099 107.494
L259.125 107.191
L259.257 107.191
L259.257 106.921
L259.44 106.921
L259.44 106.543
L259.569 106.543
L259.647 106.133
L259.802 106.133
L259.904 105.641
L260.032 105.641
L260.032 105.402
L260.184 105.402
L260.209 105.089
L260.411 105.089
L260.511 104.592
L260.586 104.513
L260.586 104.475
L260.711 104.475
L260.81 104.156
L261.032 104.156
L261.032 103.853
L261.324 103.853
L261.373 103.374
L261.542 103.272
L261.542 103.144
L261.734 103.144
L261.805 102.802
L261.9 102.802
L261.9 102.687
L262.09 102.687
L262.16 102.353
L262.254 102.353
L262.324 102.143
L262.441 102.06
L262.441 102.009
L262.58 102.009
L262.603 101.844
L262.857 101.844
L262.948 101.504
L263.062 101.425
L263.13 101.307
L263.289 101.307
L263.356 101.071
L263.491 101
L263.535 100.896
L263.736 100.839
L263.802 100.663
L264.022 100.602
L264.132 100.376
L264.263 100.376
L264.349 100.173
L264.737 100.083
L264.737 99.8344
L264.928 99.8344
L265.034 99.5756
L265.16 99.4992
L265.244 99.3715
L265.536 99.3036
L265.536 99.0654
L265.66 99.0654
L265.681 98.9156
L265.845 98.9156
L265.927 98.6616
L266.09 98.619
L266.09 98.4848
L266.232 98.4848
L266.332 98.2119
L266.473 98.1376
L266.533 97.9724
L266.633 97.9011
L266.692 97.7964
L266.831 97.7432
L266.89 97.617
L267.047 97.558
L267.067 97.4306
L267.242 97.3307
L267.281 97.2211
L267.417 97.2211
L267.513 97.0261
L267.648 96.9268
L267.743 96.8187
L267.914 96.8021
L267.914 96.6697
L268.047 96.6697
L268.141 96.4653
L268.272 96.3972
L268.31 96.3086
L268.477 96.3086
L268.551 96.0787
L268.699 95.9818
L268.754 95.8598
L268.919 95.778
L269.029 95.5555
L269.156 95.5555
L269.246 95.3294
L269.569 95.253
L269.675 94.9144
L269.905 94.8149
L270.011 94.5857
L270.116 94.5857
L270.168 94.4138
L270.272 94.4138
L270.359 94.2015
L270.531 94.2015
L270.634 93.8973
L270.771 93.8973
L270.771 93.7491
L270.992 93.7491
L271.042 93.4565
L271.143 93.4565
L271.227 93.2331
L271.328 93.2331
L271.378 93.0389
L271.477 92.951
L271.544 92.8111
L271.725 92.8111
L271.791 92.4713
L271.889 92.4713
L271.889 92.3445
L272.117 92.3445
L272.182 91.9577
L272.278 91.8938
L272.375 91.7068
L272.471 91.7068
L272.503 91.5211
L272.599 91.5211
L272.694 91.2392
L272.836 91.2156
L272.852 91.0018
L272.978 91.0018
L273.025 90.7577
L273.181 90.7577
L273.181 90.5461
L273.305 90.5461
L273.414 90.2447
L273.629 90.1874
L273.69 89.8959
L273.782 89.8959
L273.827 89.716
L273.918 89.6185
L274.009 89.4834
L274.129 89.4275
L274.234 89.1949
L274.399 89.0885
L274.503 88.9013
L274.621 88.8264
L274.724 88.6775
L274.885 88.6329
L274.987 88.4049
L275.118 88.3748
L275.19 88.1845
L275.32 88.1219
L275.42 87.949
L275.62 87.9073
L275.677 87.6849
L275.846 87.6106
L275.917 87.4195
L276.043 87.4195
L276.127 87.1695
L276.224 87.1695
L276.335 86.927
L276.459 86.8197
L276.514 86.7239
L276.638 86.7239
L276.747 86.45
L276.883 86.3816
L276.91 86.2368
L277.045 86.2368
L277.045 86.0645
L277.193 86.0645
L277.287 85.7837
L277.393 85.7113
L277.446 85.6134
L277.592 85.6134
L277.645 85.41
L277.75 85.41
L277.789 85.2503
L277.92 85.1478
L277.998 85.022
L278.115 84.9132
L278.18 84.8273
L278.296 84.7324
L278.308 84.6925
L278.424 84.6925
L278.424 84.5693
L278.577 84.5693
L278.679 84.3173
L278.83 84.2365
L278.906 84.0957
L279.019 84.0403
L279.094 83.8755
L279.367 83.7688
L279.441 83.4273
L279.552 83.3506
L279.65 83.1774
L279.759 83.1774
L279.869 82.92
L280.062 82.8166
L280.158 82.5588
L280.302 82.5126
L280.373 82.2894
L280.492 82.1895
L280.551 82.0769
L280.692 82.0769
L280.775 81.8155
L280.903 81.7746
L280.985 81.5654
L281.124 81.5206
L281.228 81.2392
L281.331 81.1416
L281.423 80.9584
L281.526 80.9102
L281.594 80.7306
L281.696 80.7306
L281.764 80.5164
L281.865 80.5164
L281.91 80.3381
L282.045 80.3381
L282.145 80.0339
L282.234 79.9504
L282.312 79.8288
L282.477 79.8288
L282.565 79.5371
L282.707 79.4594
L282.794 79.2568
L282.892 79.1683
L283 79.0356
L283.161 78.9586
L283.247 78.816
L283.353 78.7148
L283.438 78.6042
L283.544 78.5321
L283.639 78.3812
L283.755 78.328
L283.859 78.1542
L284.005 78.1542
L284.109 77.8952
L284.264 77.785
L284.325 77.6866
L284.438 77.5958
L284.469 77.5447
L284.591 77.5447
L284.692 77.3186
L284.833 77.2145
L284.904 77.1208
L285.044 77.0124
L285.044 76.9941
L285.194 76.9941
L285.283 76.7758
L285.441 76.6895
L285.529 76.5556
L285.666 76.456
L285.695 76.4024
L285.812 76.3085
L285.909 76.2001
L286.054 76.1824
L286.131 75.9956
L286.369 75.9232
L286.455 75.7269
L286.653 75.6181
L286.737 75.507
L286.906 75.4549
L286.962 75.3577
L287.156 75.2525
L287.257 75.153
L287.423 75.0505
L287.514 74.9623
L287.759 74.8538
L287.831 74.7388
L288.019 74.6893
L288.046 74.5776
L288.233 74.5037
L288.339 74.3731
L288.497 74.2926
L288.602 74.1858
L288.768 74.0883
L288.864 73.9825
L288.993 73.8851
L289.071 73.7999
L289.225 73.6956
L289.31 73.5793
L289.454 73.4895
L289.564 73.357
L289.691 73.2587
L289.783 73.1348
L289.916 73.0991
L289.941 72.9646
L290.041 72.8593
L290.132 72.7527
L290.329 72.6786
L290.436 72.442
L290.558 72.3458
L290.647 72.2265
L290.801 72.1414
L290.897 71.9697
L291.009 71.8936
L291.089 71.7765
L291.295 71.6679
L291.374 71.4867
L291.539 71.3903
L291.61 71.2342
L291.719 71.1435
L291.773 71.062
L291.882 70.9661
L291.905 70.9251
L292.021 70.9251
L292.113 70.7037
L292.228 70.5928
L292.327 70.4641
L292.441 70.3984
L292.524 70.2526
L292.637 70.1618
L292.712 70.0592
L292.824 69.9734
L292.928 69.8337
L293.047 69.7319
L293.151 69.6103
L293.283 69.5894
L293.378 69.4113
L293.524 69.3348
L293.597 69.2237
L293.749 69.153
L293.828 69.0408
L293.986 68.9701
L294.093 68.8223
L294.214 68.7231
L294.284 68.6368
L294.39 68.5312
L294.496 68.4042
L294.594 68.3137
L294.677 68.1955
L294.782 68.098
L294.865 67.9974
L294.975 67.888
L295.078 67.7782
L295.195 67.6836
L295.297 67.55
L295.46 67.4459
L295.568 67.272
L295.769 67.168
L295.85 66.9782
L295.969 66.905
L296.062 66.7668
L296.181 66.6614
L296.279 66.5369
L296.384 66.4491
L296.482 66.2949
L296.573 66.1941
L296.677 66.0412
L296.767 65.9388
L296.87 65.7858
L296.979 65.6897
L297.062 65.5383
L297.157 65.5383
L297.246 65.2983
L297.416 65.2166
L297.498 64.9792
L297.611 64.9173
L297.716 64.7248
L297.853 64.6168
L297.939 64.4752
L298.032 64.3873
L298.13 64.2332
L298.222 64.1437
L298.289 64.0205
L298.398 63.9201
L298.489 63.7471
L298.603 63.6762
L298.711 63.4574
L298.831 63.3486
L298.938 63.1642
L299.027 63.1102
L299.116 62.923
L299.21 62.8895
L299.315 62.6452
L299.403 62.55
L299.491 62.403
L299.589 62.3056
L299.693 62.0886
L299.763 61.9952
L299.872 61.8023
L299.958 61.6933
L300.038 61.5473
L300.14 61.4368
L300.214 61.2907
L300.293 61.1928
L300.378 61.0437
L300.479 60.9375
L300.529 60.8052
L300.63 60.8052
L300.73 60.4853
L300.802 60.3932
L300.912 60.1749
L300.995 60.1379
L301.077 59.897
L301.165 59.8023
L301.263 59.5854
L301.356 59.4889
L301.453 59.2807
L301.55 59.1951
L301.62 59.0165
L301.776 58.9151
L301.861 58.6294
L301.935 58.5343
L302.031 58.3434
L302.11 58.306
L302.205 58.0345
L302.268 57.9768
L302.346 57.7787
L302.409 57.6832
L302.518 57.4577
L302.581 57.3887
L302.658 57.198
L302.725 57.1326
L302.803 56.9363
L302.874 56.9363
L302.967 56.6445
L303.058 56.5364
L303.14 56.3336
L303.211 56.3336
L303.317 56.0129
L303.382 55.9593
L303.483 55.7187
L303.588 55.6148
L303.697 55.3484
L303.767 55.2732
L303.811 55.1566
L303.891 55.1566
L303.979 54.8821
L304.068 54.7822
L304.156 54.5891
L304.239 54.5162
L304.312 54.3259
L304.418 54.2248
L304.529 53.9596
L304.621 53.8576
L304.731 53.641
L304.817 53.5674
L304.922 53.3452
L305.021 53.2344
L305.092 53.086
L305.186 53.007
L305.285 52.8205
L305.369 52.715
L305.471 52.5499
L305.555 52.4546
L305.611 52.3478
L305.694 52.2551
L305.8 52.0773
L305.901 51.9985
L305.997 51.7927
L306.129 51.7103
L306.228 51.4418
L306.323 51.3797
L306.426 51.151
L306.525 51.0539
L306.601 50.9179
L306.712 50.8472
L306.792 50.6726
L306.894 50.5668
L306.991 50.4277
L307.096 50.3172
L307.188 50.1817
L307.292 50.0842
L307.392 49.9322
L307.487 49.852
L307.586 49.6984
L307.676 49.5987
L307.779 49.4449
L307.868 49.3656
L307.974 49.1584
L308.059 49.0546
L308.152 48.8976
L308.236 48.7866
L308.336 48.6291
L308.415 48.5354
L308.465 48.4458
L308.548 48.3379
L308.648 48.1803
L308.726 48.0821
L308.837 47.8923
L308.96 47.7995
L309.07 47.5447
L309.151 47.4366
L309.26 47.2651
L309.361 47.1903
L309.457 46.9828
L309.541 46.899
L309.621 46.7334
L309.705 46.6244
L309.804 46.46
L309.883 46.389
L309.969 46.2174
L310.071 46.1179
L310.165 45.9401
L310.27 45.8541
L310.379 45.6412
L310.479 45.5499
L310.583 45.356
L310.679 45.3022
L310.771 45.0937
L310.859 44.991
L310.954 44.8492
L311.041 44.7421
L311.142 44.5923
L311.225 44.483
L311.322 44.3427
L311.404 44.2438
L311.505 44.0851
L311.59 43.9879
L311.693 43.8031
L311.778 43.6938
L311.859 43.5596
L311.943 43.449
L312.052 43.2675
L312.129 43.165
L312.23 42.9968
L312.313 42.8972
L312.41 42.7061
L312.485 42.6169
L312.564 42.4683
L312.649 42.3751
L312.756 42.1758
L312.837 42.0652
L312.946 41.8689
L313.02 41.7686
L313.122 41.5822
L313.209 41.4947
L313.299 41.3004
L313.372 41.1931
L313.465 41.0284
L313.541 40.943
L313.644 40.7365
L313.712 40.658
L313.784 40.5094
L313.859 40.5094
L313.968 40.2214
L314.082 40.1379
L314.19 39.8857
L314.271 39.8007
L314.374 39.6302
L314.464 39.5376
L314.553 39.3827
L314.639 39.2756
L314.738 39.1353
L314.847 39.0299
L314.948 38.8534
L315.033 38.7539
L315.13 38.6098
L315.217 38.5271
L315.314 38.3499
L315.401 38.2421
L315.51 38.0978
L315.602 38.0317
L315.691 37.8785
L315.783 37.7892
L315.881 37.6472
L315.982 37.5371
L316.085 37.4019
L316.188 37.3195
L316.266 37.1862
L316.393 37.0949
L316.498 36.9033
L316.609 36.7975
L316.71 36.6581
L316.819 36.5607
L316.907 36.4268
L317.028 36.3273
L317.11 36.1938
L317.209 36.1141
L317.305 35.9644
L317.403 35.8774
L317.486 35.7461
L317.599 35.6356
L317.687 35.5153
L317.796 35.4083
L317.893 35.2992
L318.007 35.1996
L318.117 35.0571
L318.224 34.9625
L318.333 34.8243
L318.445 34.7176
L318.548 34.5929
L318.685 34.5018
L318.795 34.3211
L318.914 34.2226
L319.023 34.0619
L319.132 33.969
L319.235 33.8378
L319.343 33.7343
L319.451 33.6011
L319.547 33.5024
L319.649 33.3566
L319.739 33.264
L319.826 33.1237
L319.916 33.023
L320.016 32.8715
L320.105 32.766
L320.215 32.6148
L320.311 32.5073
L320.418 32.3572
L320.513 32.2606
L320.614 32.1195
L320.711 32.0425
L320.822 31.8717
L320.913 31.8134
L321.009 31.6326
L321.108 31.5358
L321.212 31.3873
L321.317 31.2905
L321.425 31.1473
L321.535 31.0451
L321.627 30.9292
L321.741 30.8281
L321.832 30.718
L321.945 30.6083
L322.025 30.5194
L322.175 30.4173
L322.252 30.31
L322.398 30.2119
L322.509 30.0778
L322.637 29.967
L322.744 29.8739
L322.892 29.7642
L322.992 29.6663
L323.129 29.563
L323.201 29.4812
L323.351 29.3788
L323.444 29.2792
L323.593 29.1694
L323.699 29.0601
L323.847 28.9759
L323.952 28.8596
L324.101 28.753
L324.212 28.6611
L324.378 28.551
L324.478 28.4665
L324.635 28.3576
L324.744 28.2728
L324.92 28.1678
L325.03 28.0842
L325.188 27.975
L325.291 27.887
L325.43 27.779
L325.529 27.6912
L325.673 27.5991
L325.763 27.5037
L325.906 27.3942
L326.012 27.3056
L326.186 27.198
L326.287 27.1079
L326.442 26.9994
L326.525 26.929
L326.696 26.8238
L326.801 26.7533
L326.988 26.6464
L327.09 26.5795
L327.313 26.4713
L327.418 26.4106
L327.66 26.3029
L327.763 26.2479
L327.987 26.1389
L328.088 26.0698
L328.252 25.9692
L328.363 25.8775
L328.54 25.7745
L328.636 25.6908
L328.803 25.5918
L328.908 25.5084
L329.084 25.3979
L329.182 25.3307
L329.359 25.2209
L329.467 25.1417
L329.658 25.0322
L329.765 24.9721
L330.023 24.8614
L330.13 24.8173
L330.379 24.7075
L330.486 24.6553
L330.732 24.5486
L330.836 24.4806
L331.073 24.3727
L331.183 24.3112
L331.465 24.2054
L331.57 24.1589
L331.838 24.05
L331.946 23.9998
L332.226 23.8918
L332.337 23.832
L332.566 23.7218
L332.672 23.6721
L332.928 23.5623
L333.022 23.5247
L333.413 23.4174
L333.508 23.3844
L333.933 23.2746
L334.038 23.242
L334.562 23.1344
L334.67 23.0881
L335.093 22.9801
L335.201 22.9279
L335.453 22.8187
L335.561 22.7599
L335.791 22.6508
L335.896 22.5651
L336.09 22.4582
L336.198 22.3808
L336.379 22.2805
L336.487 22.2088
L336.723 22.1024
L336.826 22.0478
L337.058 21.9405
L337.169 21.8866
L337.429 21.7794
L337.522 21.7351
L337.788 21.634
L337.894 21.5763
L338.194 21.4672
L338.304 21.4288
L338.621 21.3187
L338.731 21.2767
L338.967 21.1673
L339.067 21.1192
L339.279 21.0097
L339.382 20.9494
L339.574 20.8414
L339.663 20.7864
L339.856 20.6759
L339.961 20.6172
L340.166 20.5073
L340.276 20.4472
L340.499 20.3415
L340.61 20.2859
L340.904 20.1772
L341.015 20.125
L341.276 20.0171
L341.382 19.9712
L341.653 19.8621
L341.753 19.8178
L341.989 19.7091
L342.095 19.6438
L342.311 19.5338
L342.416 19.4745
L342.627 19.3635
L342.734 19.296
L342.919 19.1854
L343.023 19.1234
L343.211 19.0141
L343.32 18.9476
L343.515 18.837
L343.616 18.7846
L343.838 18.6753
L343.949 18.6225
L344.204 18.5154
L344.309 18.4543
L344.517 18.3442
L344.627 18.2667
L344.81 18.1587
L344.919 18.0851
L345.085 17.9745
L345.192 17.9013
L345.371 17.7962
L345.482 17.7181
L345.646 17.6082
L345.755 17.5275
L345.905 17.4181
L346.016 17.3332
L346.174 17.2277
L346.282 17.1512
L346.465 17.0488
L346.571 16.9733
L346.771 16.8671
L346.88 16.8026
L347.116 16.6918
L347.223 16.6435
L347.481 16.5332
L347.585 16.4842
L347.844 16.3731
L347.95 16.322
L348.185 16.2155
L348.295 16.1531
L348.521 16.0446
L348.625 15.9864
L348.852 15.8754
L348.961 15.8156
L349.171 15.7051
L349.28 15.6507
L349.516 15.5406
L349.625 15.4796
L349.836 15.3704
L349.939 15.3191
L350.233 15.212
L350.342 15.1774
L351.077 15.0669
L351.187 15.0535
L353.693 15.1638
L353.804 15.1971
L354.194 15.3071
L354.303 15.3405
L354.746 15.4508
L354.855 15.4835
L355.277 15.5939
L355.388 15.6171
L356.064 15.7277
L356.174 15.7526
L356.754 15.8632
L356.861 15.8789
L358.209 15.99
L358.318 16.0071
L359.234 16.1181
L359.344 16.1236
L360.17 16.234
L360.28 16.251
L361.115 16.3619
L361.218 16.378
L361.927 16.4887
L362.036 16.5027
L362.716 16.6136
L362.821 16.6312
L363.348 16.7422
L363.457 16.7617
L363.999 16.8726
L364.11 16.9075
L364.512 17.0176
L364.622 17.051
L364.968 17.1616
L365.077 17.2046
L365.356 17.3141
L365.465 17.3626
L365.744 17.4736
L365.853 17.5174
L366.096 17.6237
L366.207 17.687
L366.412 17.7977
L366.52 17.8634
L366.698 17.9732
L366.805 18.0456
L366.979 18.1566
L367.09 18.2279
L367.262 18.3373
L367.372 18.4086
L367.55 18.5188
L367.661 18.5925
L367.83 18.7036
L367.933 18.7714
L368.095 18.8824
L368.2 18.9633
L368.357 19.0742
L368.467 19.1545
L368.623 19.2654
L368.731 19.3458
L368.88 19.4566
L368.99 19.5448
L369.127 19.6543
L369.232 19.7378
L369.376 19.8481
L369.487 19.936
L369.627 20.0469
L369.734 20.1334
L369.879 20.2427
L369.989 20.3328
L370.141 20.442
L370.252 20.5299
L370.402 20.641
L370.513 20.7292
L370.665 20.8384
L370.773 20.9161
L370.953 21.0269
L371.064 21.0876
L371.282 21.1974
L371.393 21.2541
L371.62 21.3646
L371.731 21.4192
L371.999 21.5298
L372.107 21.5779
L372.36 21.6888
L372.469 21.7477
L372.681 21.8587
L372.788 21.912
L373.036 22.0203
L373.146 22.0706
L373.436 22.1813
L373.546 22.2282
L373.823 22.3392
L373.933 22.3875
L374.194 22.4971
L374.302 22.5445
L374.558 22.6556
L374.666 22.703
L374.92 22.8133
L375.028 22.864
L375.373 22.9742
L375.483 22.9996
L376.052 23.1106
L376.162 23.1383
L379.991 23.2494
L380.102 23.2529
L381.678 23.3638
L381.788 23.3726
L382.72 23.4836
L382.83 23.5044
L383.374 23.6143
L383.484 23.6507
L383.869 23.7611
L383.98 23.7962
L384.272 23.9069
L384.381 23.9543
L384.657 24.0653
L384.768 24.1056
L385.056 24.2166
L385.166 24.2642
L385.421 24.3752
L385.531 24.4217
L385.828 24.5323
L385.938 24.58
L386.212 24.6908
L386.323 24.7296
L386.691 24.8406
L386.8 24.8776
L387.128 24.9887
L387.239 25.0263
L387.542 25.1373
L387.653 25.1835
L387.897 25.2945
L388.007 25.3454
L388.23 25.4562
L388.34 25.5127
L388.53 25.6236
L388.639 25.6944
L388.812 25.8051
L388.921 25.8771
L389.093 25.9876
L389.203 26.0609
L389.372 26.172
L389.481 26.2447
L389.641 26.3548
L389.752 26.4369
L389.906 26.5475
L390.017 26.6278
L390.165 26.7382
L390.275 26.8276
L390.423 26.9371
L390.533 27.0218
L390.692 27.1322
L390.802 27.2048
L390.977 27.3154
L391.088 27.3852
L391.269 27.4958
L391.38 27.5676
L391.547 27.6774
L391.658 27.7534
L391.822 27.8645
L391.931 27.9352
L392.107 28.046
L392.218 28.1242
L392.376 28.2339
L392.487 28.3072
L392.658 28.4181
L392.768 28.491
L392.948 28.6014
L393.059 28.6668
L393.279 28.7771
L393.389 28.8281
L393.641 28.9392
L393.751 28.9843
L393.993 29.0942
L394.104 29.1458
L394.353 29.2567
L394.464 29.3028
L394.735 29.4139
L394.845 29.4551
L395.164 29.5659
L395.274 29.6051
L395.616 29.7161
L395.727 29.7532
L396.051 29.8641
L396.162 29.9008
L396.504 30.0118
L396.614 30.0523
L396.93 30.1634
L397.04 30.2056
L397.315 30.3163
L397.424 30.3575
L397.761 30.4685
L397.871 30.5079
L398.279 30.6189
L398.388 30.6414
L398.818 30.7524
L398.925 30.7835
L399.476 30.8945
L399.587 30.9185
L400.089 31.0296
L400.2 31.0551
L400.648 31.166
L400.758 31.1909
L401.344 31.3019
L401.455 31.3176
L402.149 31.4284
L402.259 31.4503
L402.925 31.5612
L403.035 31.5732
L403.945 31.6843
L404.055 31.7116
L404.497 31.8227
L404.607 31.8548
L405.06 31.9659
L405.171 31.9962
L405.513 32.1071
L405.624 32.145
L406.021 32.256
L406.133 32.2901
L406.505 32.4007
L406.616 32.429
L407.037 32.5399
L407.148 32.5668
L407.818 32.6778
L407.929 32.6874
L411.468 32.7984
L411.579 32.8205
L412.278 32.9316
L412.389 32.9517
L413.36 33.0625
L413.47 33.0767
L414.044 33.1878
L414.155 33.2113
L414.625 33.3224
L414.736 33.3525
L415.148 33.4636
L415.258 33.493
L415.67 33.6039
L415.78 33.6363
L416.151 33.7473
L416.262 33.7828
L416.607 33.8939
L416.718 33.9225
L417.168 34.0336
L417.279 34.065
L417.632 34.1761
L417.742 34.2142
L418.178 34.3253
L418.288 34.3602
L418.645 34.4711
L418.755 34.4967
L419.28 34.6077
L419.391 34.6266
L421.757 34.7377
L421.868 34.7433
L422.634 34.8544
L422.745 34.8712
L423.319 34.9823
L423.43 35.0016
L424.073 35.1125
L424.184 35.1302
L424.801 35.2413
L424.912 35.2517
L426.336 35.3627
L426.447 35.3778
L426.961 35.4888
L427.072 35.5155
L427.513 35.6264
L427.623 35.6501
L428.094 35.7612
L428.205 35.7855
L428.664 35.8966
L428.775 35.9233
L429.22 36.0344
L429.331 36.0611
L429.881 36.172
L429.993 36.193
L430.498 36.3038
L430.609 36.3321
L431.025 36.4431
L431.136 36.47
L431.607 36.5811
L431.718 36.6014
L432.626 36.7125
L432.736 36.7195
L434.746 36.8305
L434.857 36.8487
L435.389 36.9597
L435.5 36.9838
L436.036 37.0948
L436.146 37.121
L436.558 37.232
L436.669 37.2664
L437.073 37.3774
L437.183 37.4065
L437.636 37.5175
L437.747 37.548
L438.126 37.6591
L438.237 37.6867
L438.639 37.7978
L438.749 37.8312
L439.056 37.9422
L439.166 37.9871
L439.433 38.0982
L439.544 38.1503
L439.769 38.2614
L439.88 38.3121
L440.138 38.4231
L440.249 38.4668
L440.55 38.5778
L440.661 38.6208
L440.931 38.7319
L441.042 38.7804
L441.329 38.8915
L441.44 38.9259
L441.799 39.0369
L441.91 39.0753
L442.211 39.1863
L442.321 39.2323
L442.6 39.3433
L442.711 39.382
L443.042 39.493
L443.153 39.5306
L443.63 39.6417
L443.741 39.6611
L444.285 39.7722
L444.396 39.7941
L445.079 39.9053
L445.19 39.9244
L445.689 40.0355
L445.801 40.0677
L446.289 40.1787
L446.4 40.2
L446.855 40.3111
L446.966 40.3378
L447.459 40.4489
L447.57 40.4706
L448.189 40.5817
L448.3 40.6004
L448.851 40.7115
L448.962 40.7348
L449.62 40.8459
L449.731 40.8602
L450.424 40.9713
L450.534 40.9927
L451.084 41.1037
L451.195 41.134
L451.651 41.2451
L451.762 41.2676
L452.457 41.3787
L452.568 41.3969
L453.297 41.508
L453.408 41.5284
L454.022 41.6395
L454.133 41.6627
L454.657 41.7738
L454.769 41.7959
L455.649 41.907
L455.76 41.9206
L456.432 42.0317
L456.543 42.0569
L456.972 42.168
L457.083 42.2
L457.523 42.3111
L457.634 42.3364
L458.184 42.4475
L458.295 42.4629
L459.033 42.574
L459.145 42.5954
L459.709 42.7065
L459.821 42.7313
L460.364 42.8424
L460.475 42.8624
L461.066 42.9735
L461.177 42.9949
L461.636 43.1059
L461.747 43.1373
L462.115 43.2484
L462.226 43.2813
L462.73 43.3924
L462.841 43.4146
L463.34 43.5257
L463.451 43.5495
L463.909 43.6606
L464.02 43.6876
L464.5 43.7987
L464.611 43.8213
L465.251 43.9324
L465.362 43.9438
L466.097 44.0549
L466.208 44.0822
L466.744 44.1933
L466.855 44.2197
L467.359 44.3307
L467.47 44.3574
L468.014 44.4685
L468.125 44.4924
L468.627 44.6035
L468.738 44.6256
L469.308 44.7367
L469.419 44.7611
L469.906 44.8721
L470.017 44.9003
L470.466 45.0114
L470.577 45.0408
L471.015 45.1518
L471.126 45.1739
L471.835 45.285
L471.945 45.3079
L472.407 45.419
L472.518 45.4482
L473.004 45.5593
L473.115 45.5783
L475.265 45.6894
L475.376 45.695
L479.705 45.8061
L479.816 45.8135
L482.195 45.9246
L482.306 45.9295
L487.943 45.8184
L488.054 45.7989
L489.008 45.6878
L489.119 45.6771
L489.95 45.566
L490.061 45.5499
L491.063 45.4387
L491.174 45.4329
L493.32 45.3218
L493.431 45.3129
L494.727 45.2018
L494.839 45.1839
L495.482 45.0727
L495.593 45.0539
L496.301 44.9428
L496.412 44.931
L497.393 44.8199
L497.504 44.8081
L498.63 44.6969
L498.741 44.6919
L500.057 44.5808
L500.168 44.5632
L500.72 44.452
L500.831 44.4281
L501.373 44.317
L501.484 44.2923
L502 44.1812
L502.111 44.162
L502.847 44.0509
L502.958 44.0384
L503.889 43.9273
L504 43.9089
L504.751 43.7978
L504.862 43.776
L505.808 43.6649
L505.919 43.6485
L506.734 43.5374
L506.845 43.5211
L507.636 43.41
L507.747 43.3896
L508.374 43.2785
L508.485 43.2588
L509.063 43.1477
L509.174 43.1254
L509.691 43.0143
L509.802 42.9916
L510.602 42.8805
L510.713 42.8682
L511.816 42.7571
L511.927 42.7468
L512.946 42.6357
L513.058 42.6147
L513.626 42.5036
L513.737 42.4815
L514.297 42.3704
L514.408 42.3489
L515.017 42.2378
L515.128 42.2145
L515.685 42.1033
L515.797 42.0799
L516.4 41.9688
L516.511 41.953
L517.692 41.8419
L517.803 41.8319
L518.464 41.7208
L518.575 41.6946
L518.977 41.5835
L519.088 41.5472
L519.455 41.4361
L519.566 41.4081
L520 41.297
L520.111 41.2657
L520.549 41.1546
L520.66 41.1227
L521.068 41.0116
L521.179 40.9828
L521.609 40.8716
L521.72 40.8409
L522.124 40.7297
L522.235 40.6973
L522.645 40.5862
L522.756 40.5549
L523.144 40.4438
L523.255 40.4092
L523.625 40.2981
L523.736 40.2622
L524.106 40.1511
L524.217 40.1171
L524.583 40.006
L524.694 39.975
L525.168 39.8639
L525.279 39.8368
L525.777 39.7257
L525.888 39.7013
L526.392 39.5902
L526.503 39.5661
L527.017 39.455
L527.128 39.4274
L527.533 39.3163
L527.644 39.285
L527.989 39.1739
L528.1 39.1387
L528.445 39.0276
L528.557 38.99
L528.884 38.8789
L528.995 38.836
L529.25 38.7249
L529.362 38.6733
L529.613 38.5622
L529.724 38.5126
L529.977 38.4015
L530.088 38.3547
L530.372 38.2436
L530.483 38.2007
L530.773 38.0896
L530.884 38.0489
L531.197 37.9378
L531.308 37.9049
L531.725 37.7938
L531.836 37.7629
L532.231 37.6518
L532.342 37.6201
L532.752 37.509
L532.863 37.4795
L533.313 37.3684
L533.424 37.3413
L533.831 37.2302
L533.942 37.2005
L534.33 37.0894
L534.441 37.0541
L534.788 36.943
L534.899 36.9055
L535.243 36.7944
L535.354 36.7564
L535.697 36.6453
L535.808 36.6095
L536.135 36.4984
L536.246 36.4608
L536.608 36.3497
L536.719 36.3138
L537.069 36.2027
L537.18 36.1676
L537.517 36.0565
L537.628 36.0214
L537.99 35.9103
L538.101 35.8794
L538.498 35.7683
L538.609 35.7362
L539.014 35.625
L539.125 35.5973
L539.558 35.4862
L539.669 35.459
L540.082 35.3479
L540.193 35.3152
L540.552 35.2041
L540.663 35.1703
L541.024 35.0591
L541.135 35.0248
L541.508 34.9137
L541.619 34.879
L542.055 34.7679
L542.166 34.7422
L542.629 34.6311
L542.74 34.6052
L543.175 34.4941
L543.286 34.4661
L543.681 34.355
L543.792 34.3257
L544.21 34.2146
L544.321 34.185
L544.777 34.0739
L544.888 34.0474
L545.392 33.9363
L545.503 33.9131
L546.049 33.802
L546.16 33.7765
L546.644 33.6654
L546.755 33.6349
L547.135 33.5238
L547.246 33.4927
L547.657 33.3816
L547.768 33.3492
L547.927 33.2985
L547.927 33.2985" style="fill:none;stroke:#0000ff;stroke-width:5.0;"/>
   </g>
   <g id="matplotlib.axis_1">
    <g id="xtick_1">
     <g id="line2d_2">
      <path d="
M189.225 412.21
L189.225 7.2" style="fill:none;stroke:#000000;stroke-dasharray:1.000000,3.000000;stroke-dashoffset:0.0;stroke-linecap:butt;stroke-width:0.5;"/>
     </g>
     <g id="line2d_3">
      <defs>
       <path d="
M0 0
L0 -4" id="md5f451688f"/>
      </defs>
      <g>
       <use style="stroke:#000000;stroke-linecap:butt;stroke-width:0.5;" x="189.224504283" xlink:href="#md5f451688f" y="342.137137086"/>
      </g>
     </g>
     <g id="text_1">
      <!-- 5 -->
      <defs>
       <path d="
M10.7969 72.9062
L49.5156 72.9062
L49.5156 64.5938
L19.8281 64.5938
L19.8281 46.7344
Q21.9688 47.4688 24.1094 47.8281
Q26.2656 48.1875 28.4219 48.1875
Q40.625 48.1875 47.75 41.5
Q54.8906 34.8125 54.8906 23.3906
Q54.8906 11.625 47.5625 5.09375
Q40.2344 -1.42188 26.9062 -1.42188
Q22.3125 -1.42188 17.5469 -0.640625
Q12.7969 0.140625 7.71875 1.70312
L7.71875 11.625
Q12.1094 9.23438 16.7969 8.0625
Q21.4844 6.89062 26.7031 6.89062
Q35.1562 6.89062 40.0781 11.3281
Q45.0156 15.7656 45.0156 23.3906
Q45.0156 31 40.0781 35.4375
Q35.1562 39.8906 26.7031 39.8906
Q22.75 39.8906 18.8125 39.0156
Q14.8906 38.1406 10.7969 36.2812
z
" id="BitstreamVeraSans-Roman-35"/>
      </defs>
      <g transform="translate(183.563879283 363.634637086)scale(0.24 -0.24)">
       <use xlink:href="#BitstreamVeraSans-Roman-35"/>
      </g>
     </g>
    </g>
    <g id="xtick_2">
     <g id="line2d_4">
      <path d="
M322.863 412.21
L322.863 7.2" style="fill:none;stroke:#000000;stroke-dasharray:1.000000,3.000000;stroke-dashoffset:0.0;stroke-linecap:butt;stroke-width:0.5;"/>
     </g>
     <g id="line2d_5">
      <defs>
       <path d="
M0 0
L0 -4" id="md5f451688f"/>
      </defs>
      <g>
       <use style="stroke:#000000;stroke-linecap:butt;stroke-width:0.5;" x="322.862639868" xlink:href="#md5f451688f" y="342.137137086"/>
      </g>
     </g>
     <g id="text_2">
      <!-- 10 -->
      <defs>
       <path d="
M31.7812 66.4062
Q24.1719 66.4062 20.3281 58.9062
Q16.5 51.4219 16.5 36.375
Q16.5 21.3906 20.3281 13.8906
Q24.1719 6.39062 31.7812 6.39062
Q39.4531 6.39062 43.2812 13.8906
Q47.125 21.3906 47.125 36.375
Q47.125 51.4219 43.2812 58.9062
Q39.4531 66.4062 31.7812 66.4062
M31.7812 74.2188
Q44.0469 74.2188 50.5156 64.5156
Q56.9844 54.8281 56.9844 36.375
Q56.9844 17.9688 50.5156 8.26562
Q44.0469 -1.42188 31.7812 -1.42188
Q19.5312 -1.42188 13.0625 8.26562
Q6.59375 17.9688 6.59375 36.375
Q6.59375 54.8281 13.0625 64.5156
Q19.5312 74.2188 31.7812 74.2188" id="BitstreamVeraSans-Roman-30"/>
       <path d="
M12.4062 8.29688
L28.5156 8.29688
L28.5156 63.9219
L10.9844 60.4062
L10.9844 69.3906
L28.4219 72.9062
L38.2812 72.9062
L38.2812 8.29688
L54.3906 8.29688
L54.3906 0
L12.4062 0
z
" id="BitstreamVeraSans-Roman-31"/>
      </defs>
      <g transform="translate(309.707639868 363.949637086)scale(0.24 -0.24)">
       <use xlink:href="#BitstreamVeraSans-Roman-31"/>
       <use x="63.623046875" xlink:href="#BitstreamVeraSans-Roman-30"/>
      </g>
     </g>
    </g>
    <g id="xtick_3">
     <g id="line2d_6">
      <path d="
M456.501 412.21
L456.501 7.2" style="fill:none;stroke:#000000;stroke-dasharray:1.000000,3.000000;stroke-dashoffset:0.0;stroke-linecap:butt;stroke-width:0.5;"/>
     </g>
     <g id="line2d_7">
      <defs>
       <path d="
M0 0
L0 -4" id="md5f451688f"/>
      </defs>
      <g>
       <use style="stroke:#000000;stroke-linecap:butt;stroke-width:0.5;" x="456.500775453" xlink:href="#md5f451688f" y="342.137137086"/>
      </g>
     </g>
     <g id="text_3">
      <!-- 15 -->
      <g transform="translate(443.597025453 363.634637086)scale(0.24 -0.24)">
       <use xlink:href="#BitstreamVeraSans-Roman-31"/>
       <use x="63.623046875" xlink:href="#BitstreamVeraSans-Roman-35"/>
      </g>
     </g>
    </g>
    <g id="xtick_4">
     <g id="line2d_8">
      <defs>
       <path d="
M0 0
L0 -2" id="m29d21b0dfa"/>
      </defs>
      <g>
       <use style="stroke:#000000;stroke-linecap:butt;stroke-width:0.5;" x="82.3139958147" xlink:href="#m29d21b0dfa" y="342.137137086"/>
      </g>
     </g>
    </g>
    <g id="xtick_5">
     <g id="line2d_9">
      <defs>
       <path d="
M0 0
L0 -2" id="m29d21b0dfa"/>
      </defs>
      <g>
       <use style="stroke:#000000;stroke-linecap:butt;stroke-width:0.5;" x="109.041622932" xlink:href="#m29d21b0dfa" y="342.137137086"/>
      </g>
     </g>
    </g>
    <g id="xtick_6">
     <g id="line2d_10">
      <defs>
       <path d="
M0 0
L0 -2" id="m29d21b0dfa"/>
      </defs>
      <g>
       <use style="stroke:#000000;stroke-linecap:butt;stroke-width:0.5;" x="135.769250049" xlink:href="#m29d21b0dfa" y="342.137137086"/>
      </g>
     </g>
    </g>
    <g id="xtick_7">
     <g id="line2d_11">
      <defs>
       <path d="
M0 0
L0 -2" id="m29d21b0dfa"/>
      </defs>
      <g>
       <use style="stroke:#000000;stroke-linecap:butt;stroke-width:0.5;" x="162.496877166" xlink:href="#m29d21b0dfa" y="342.137137086"/>
      </g>
     </g>
    </g>
    <g id="xtick_8">
     <g id="line2d_12">
      <defs>
       <path d="
M0 0
L0 -2" id="m29d21b0dfa"/>
      </defs>
      <g>
       <use style="stroke:#000000;stroke-linecap:butt;stroke-width:0.5;" x="215.9521314" xlink:href="#m29d21b0dfa" y="342.137137086"/>
      </g>
     </g>
    </g>
    <g id="xtick_9">
     <g id="line2d_13">
      <defs>
       <path d="
M0 0
L0 -2" id="m29d21b0dfa"/>
      </defs>
      <g>
       <use style="stroke:#000000;stroke-linecap:butt;stroke-width:0.5;" x="242.679758517" xlink:href="#m29d21b0dfa" y="342.137137086"/>
      </g>
     </g>
    </g>
    <g id="xtick_10">
     <g id="line2d_14">
      <defs>
       <path d="
M0 0
L0 -2" id="m29d21b0dfa"/>
      </defs>
      <g>
       <use style="stroke:#000000;stroke-linecap:butt;stroke-width:0.5;" x="269.407385634" xlink:href="#m29d21b0dfa" y="342.137137086"/>
      </g>
     </g>
    </g>
    <g id="xtick_11">
     <g id="line2d_15">
      <defs>
       <path d="
M0 0
L0 -2" id="m29d21b0dfa"/>
      </defs>
      <g>
       <use style="stroke:#000000;stroke-linecap:butt;stroke-width:0.5;" x="296.135012751" xlink:href="#m29d21b0dfa" y="342.137137086"/>
      </g>
     </g>
    </g>
    <g id="xtick_12">
     <g id="line2d_16">
      <defs>
       <path d="
M0 0
L0 -2" id="m29d21b0dfa"/>
      </defs>
      <g>
       <use style="stroke:#000000;stroke-linecap:butt;stroke-width:0.5;" x="349.590266985" xlink:href="#m29d21b0dfa" y="342.137137086"/>
      </g>
     </g>
    </g>
    <g id="xtick_13">
     <g id="line2d_17">
      <defs>
       <path d="
M0 0
L0 -2" id="m29d21b0dfa"/>
      </defs>
      <g>
       <use style="stroke:#000000;stroke-linecap:butt;stroke-width:0.5;" x="376.317894102" xlink:href="#m29d21b0dfa" y="342.137137086"/>
      </g>
     </g>
    </g>
    <g id="xtick_14">
     <g id="line2d_18">
      <defs>
       <path d="
M0 0
L0 -2" id="m29d21b0dfa"/>
      </defs>
      <g>
       <use style="stroke:#000000;stroke-linecap:butt;stroke-width:0.5;" x="403.045521219" xlink:href="#m29d21b0dfa" y="342.137137086"/>
      </g>
     </g>
    </g>
    <g id="xtick_15">
     <g id="line2d_19">
      <defs>
       <path d="
M0 0
L0 -2" id="m29d21b0dfa"/>
      </defs>
      <g>
       <use style="stroke:#000000;stroke-linecap:butt;stroke-width:0.5;" x="429.773148336" xlink:href="#m29d21b0dfa" y="342.137137086"/>
      </g>
     </g>
    </g>
    <g id="xtick_16">
     <g id="line2d_20">
      <defs>
       <path d="
M0 0
L0 -2" id="m29d21b0dfa"/>
      </defs>
      <g>
       <use style="stroke:#000000;stroke-linecap:butt;stroke-width:0.5;" x="483.228402569" xlink:href="#m29d21b0dfa" y="342.137137086"/>
      </g>
     </g>
    </g>
    <g id="xtick_17">
     <g id="line2d_21">
      <defs>
       <path d="
M0 0
L0 -2" id="m29d21b0dfa"/>
      </defs>
      <g>
       <use style="stroke:#000000;stroke-linecap:butt;stroke-width:0.5;" x="509.956029686" xlink:href="#m29d21b0dfa" y="342.137137086"/>
      </g>
     </g>
    </g>
   </g>
   <g id="matplotlib.axis_2">
    <g id="ytick_1">
     <g id="line2d_22">
      <path d="
M64.6363 402.917
L557.404 402.917" style="fill:none;stroke:#000000;stroke-dasharray:1.000000,3.000000;stroke-dashoffset:0.0;stroke-linecap:butt;stroke-width:0.5;"/>
     </g>
     <g id="line2d_23">
      <defs>
       <path d="
M0 0
L4 0" id="m84d09b389c"/>
      </defs>
      <g>
       <use style="stroke:#000000;stroke-linecap:butt;stroke-width:0.5;" x="54.63625" xlink:href="#m84d09b389c" y="402.916716673"/>
      </g>
     </g>
     <g id="text_4">
      <!-- -0.1 -->
      <defs>
       <path d="
M10.6875 12.4062
L21 12.4062
L21 0
L10.6875 0
z
" id="BitstreamVeraSans-Roman-2e"/>
       <path d="
M4.89062 31.3906
L31.2031 31.3906
L31.2031 23.3906
L4.89062 23.3906
z
" id="BitstreamVeraSans-Roman-2d"/>
      </defs>
      <g transform="translate(7.2 411.652341673)scale(0.24 -0.24)">
       <use xlink:href="#BitstreamVeraSans-Roman-2d"/>
       <use x="36.083984375" xlink:href="#BitstreamVeraSans-Roman-30"/>
       <use x="99.70703125" xlink:href="#BitstreamVeraSans-Roman-2e"/>
       <use x="131.494140625" xlink:href="#BitstreamVeraSans-Roman-31"/>
      </g>
     </g>
    </g>
    <g id="ytick_2">
     <g id="line2d_24">
      <path d="
M64.6363 342.137
L557.404 342.137" style="fill:none;stroke:#000000;stroke-dasharray:1.000000,3.000000;stroke-dashoffset:0.0;stroke-linecap:butt;stroke-width:0.5;"/>
     </g>
     <g id="line2d_25">
      <defs>
       <path d="
M0 0
L4 0" id="m84d09b389c"/>
      </defs>
      <g>
       <use style="stroke:#000000;stroke-linecap:butt;stroke-width:0.5;" x="54.63625" xlink:href="#m84d09b389c" y="342.137137086"/>
      </g>
     </g>
     <g id="text_5">
      <!-- 0 -->
      <g transform="translate(38.5425 350.872762086)scale(0.24 -0.24)">
       <use xlink:href="#BitstreamVeraSans-Roman-30"/>
      </g>
     </g>
    </g>
    <g id="ytick_3">
     <g id="line2d_26">
      <path d="
M64.6363 281.358
L557.404 281.358" style="fill:none;stroke:#000000;stroke-dasharray:1.000000,3.000000;stroke-dashoffset:0.0;stroke-linecap:butt;stroke-width:0.5;"/>
     </g>
     <g id="line2d_27">
      <defs>
       <path d="
M0 0
L4 0" id="m84d09b389c"/>
      </defs>
      <g>
       <use style="stroke:#000000;stroke-linecap:butt;stroke-width:0.5;" x="54.63625" xlink:href="#m84d09b389c" y="281.3575575"/>
      </g>
     </g>
     <g id="text_6">
      <!-- 0.1 -->
      <g transform="translate(16.2675 290.0931825)scale(0.24 -0.24)">
       <use xlink:href="#BitstreamVeraSans-Roman-30"/>
       <use x="63.623046875" xlink:href="#BitstreamVeraSans-Roman-2e"/>
       <use x="95.41015625" xlink:href="#BitstreamVeraSans-Roman-31"/>
      </g>
     </g>
    </g>
    <g id="ytick_4">
     <g id="line2d_28">
      <path d="
M64.6363 220.578
L557.404 220.578" style="fill:none;stroke:#000000;stroke-dasharray:1.000000,3.000000;stroke-dashoffset:0.0;stroke-linecap:butt;stroke-width:0.5;"/>
     </g>
     <g id="line2d_29">
      <defs>
       <path d="
M0 0
L4 0" id="m84d09b389c"/>
      </defs>
      <g>
       <use style="stroke:#000000;stroke-linecap:butt;stroke-width:0.5;" x="54.63625" xlink:href="#m84d09b389c" y="220.577977913"/>
      </g>
     </g>
     <g id="text_7">
      <!-- 0.2 -->
      <defs>
       <path d="
M19.1875 8.29688
L53.6094 8.29688
L53.6094 0
L7.32812 0
L7.32812 8.29688
Q12.9375 14.1094 22.625 23.8906
Q32.3281 33.6875 34.8125 36.5312
Q39.5469 41.8438 41.4219 45.5312
Q43.3125 49.2188 43.3125 52.7812
Q43.3125 58.5938 39.2344 62.25
Q35.1562 65.9219 28.6094 65.9219
Q23.9688 65.9219 18.8125 64.3125
Q13.6719 62.7031 7.8125 59.4219
L7.8125 69.3906
Q13.7656 71.7812 18.9375 73
Q24.125 74.2188 28.4219 74.2188
Q39.75 74.2188 46.4844 68.5469
Q53.2188 62.8906 53.2188 53.4219
Q53.2188 48.9219 51.5312 44.8906
Q49.8594 40.875 45.4062 35.4062
Q44.1875 33.9844 37.6406 27.2188
Q31.1094 20.4531 19.1875 8.29688" id="BitstreamVeraSans-Roman-32"/>
      </defs>
      <g transform="translate(16.455 229.313602913)scale(0.24 -0.24)">
       <use xlink:href="#BitstreamVeraSans-Roman-30"/>
       <use x="63.623046875" xlink:href="#BitstreamVeraSans-Roman-2e"/>
       <use x="95.41015625" xlink:href="#BitstreamVeraSans-Roman-32"/>
      </g>
     </g>
    </g>
    <g id="ytick_5">
     <g id="line2d_30">
      <path d="
M64.6363 159.798
L557.404 159.798" style="fill:none;stroke:#000000;stroke-dasharray:1.000000,3.000000;stroke-dashoffset:0.0;stroke-linecap:butt;stroke-width:0.5;"/>
     </g>
     <g id="line2d_31">
      <defs>
       <path d="
M0 0
L4 0" id="m84d09b389c"/>
      </defs>
      <g>
       <use style="stroke:#000000;stroke-linecap:butt;stroke-width:0.5;" x="54.63625" xlink:href="#m84d09b389c" y="159.798398327"/>
      </g>
     </g>
     <g id="text_8">
      <!-- 0.3 -->
      <defs>
       <path d="
M40.5781 39.3125
Q47.6562 37.7969 51.625 33
Q55.6094 28.2188 55.6094 21.1875
Q55.6094 10.4062 48.1875 4.48438
Q40.7656 -1.42188 27.0938 -1.42188
Q22.5156 -1.42188 17.6562 -0.515625
Q12.7969 0.390625 7.625 2.20312
L7.625 11.7188
Q11.7188 9.32812 16.5938 8.10938
Q21.4844 6.89062 26.8125 6.89062
Q36.0781 6.89062 40.9375 10.5469
Q45.7969 14.2031 45.7969 21.1875
Q45.7969 27.6406 41.2812 31.2656
Q36.7656 34.9062 28.7188 34.9062
L20.2188 34.9062
L20.2188 43.0156
L29.1094 43.0156
Q36.375 43.0156 40.2344 45.9219
Q44.0938 48.8281 44.0938 54.2969
Q44.0938 59.9062 40.1094 62.9062
Q36.1406 65.9219 28.7188 65.9219
Q24.6562 65.9219 20.0156 65.0312
Q15.375 64.1562 9.8125 62.3125
L9.8125 71.0938
Q15.4375 72.6562 20.3438 73.4375
Q25.25 74.2188 29.5938 74.2188
Q40.8281 74.2188 47.3594 69.1094
Q53.9062 64.0156 53.9062 55.3281
Q53.9062 49.2656 50.4375 45.0938
Q46.9688 40.9219 40.5781 39.3125" id="BitstreamVeraSans-Roman-33"/>
      </defs>
      <g transform="translate(15.975 168.534023327)scale(0.24 -0.24)">
       <use xlink:href="#BitstreamVeraSans-Roman-30"/>
       <use x="63.623046875" xlink:href="#BitstreamVeraSans-Roman-2e"/>
       <use x="95.41015625" xlink:href="#BitstreamVeraSans-Roman-33"/>
      </g>
     </g>
    </g>
    <g id="ytick_6">
     <g id="line2d_32">
      <path d="
M64.6363 99.0188
L557.404 99.0188" style="fill:none;stroke:#000000;stroke-dasharray:1.000000,3.000000;stroke-dashoffset:0.0;stroke-linecap:butt;stroke-width:0.5;"/>
     </g>
     <g id="line2d_33">
      <defs>
       <path d="
M0 0
L4 0" id="m84d09b389c"/>
      </defs>
      <g>
       <use style="stroke:#000000;stroke-linecap:butt;stroke-width:0.5;" x="54.63625" xlink:href="#m84d09b389c" y="99.0188187403"/>
      </g>
     </g>
     <g id="text_9">
      <!-- 0.4 -->
      <defs>
       <path d="
M37.7969 64.3125
L12.8906 25.3906
L37.7969 25.3906
z

M35.2031 72.9062
L47.6094 72.9062
L47.6094 25.3906
L58.0156 25.3906
L58.0156 17.1875
L47.6094 17.1875
L47.6094 0
L37.7969 0
L37.7969 17.1875
L4.89062 17.1875
L4.89062 26.7031
z
" id="BitstreamVeraSans-Roman-34"/>
      </defs>
      <g transform="translate(15.3975 107.75444374)scale(0.24 -0.24)">
       <use xlink:href="#BitstreamVeraSans-Roman-30"/>
       <use x="63.623046875" xlink:href="#BitstreamVeraSans-Roman-2e"/>
       <use x="95.41015625" xlink:href="#BitstreamVeraSans-Roman-34"/>
      </g>
     </g>
    </g>
    <g id="ytick_7">
     <g id="line2d_34">
      <path d="
M64.6363 38.2392
L557.404 38.2392" style="fill:none;stroke:#000000;stroke-dasharray:1.000000,3.000000;stroke-dashoffset:0.0;stroke-linecap:butt;stroke-width:0.5;"/>
     </g>
     <g id="line2d_35">
      <defs>
       <path d="
M0 0
L4 0" id="m84d09b389c"/>
      </defs>
      <g>
       <use style="stroke:#000000;stroke-linecap:butt;stroke-width:0.5;" x="54.63625" xlink:href="#m84d09b389c" y="38.2392391538"/>
      </g>
     </g>
     <g id="text_10">
      <!-- 0.5 -->
      <g transform="translate(16.1475 46.9748641538)scale(0.24 -0.24)">
       <use xlink:href="#BitstreamVeraSans-Roman-30"/>
       <use x="63.623046875" xlink:href="#BitstreamVeraSans-Roman-2e"/>
       <use x="95.41015625" xlink:href="#BitstreamVeraSans-Roman-35"/>
      </g>
     </g>
    </g>
    <g id="ytick_8">
     <g id="line2d_36">
      <defs>
       <path d="
M0 0
L2 0" id="m493bd5120e"/>
      </defs>
      <g>
       <use style="stroke:#000000;stroke-linecap:butt;stroke-width:0.5;" x="54.63625" xlink:href="#m493bd5120e" y="390.760800755"/>
      </g>
     </g>
    </g>
    <g id="ytick_9">
     <g id="line2d_37">
      <defs>
       <path d="
M0 0
L2 0" id="m493bd5120e"/>
      </defs>
      <g>
       <use style="stroke:#000000;stroke-linecap:butt;stroke-width:0.5;" x="54.63625" xlink:href="#m493bd5120e" y="378.604884838"/>
      </g>
     </g>
    </g>
    <g id="ytick_10">
     <g id="line2d_38">
      <defs>
       <path d="
M0 0
L2 0" id="m493bd5120e"/>
      </defs>
      <g>
       <use style="stroke:#000000;stroke-linecap:butt;stroke-width:0.5;" x="54.63625" xlink:href="#m493bd5120e" y="366.448968921"/>
      </g>
     </g>
    </g>
    <g id="ytick_11">
     <g id="line2d_39">
      <defs>
       <path d="
M0 0
L2 0" id="m493bd5120e"/>
      </defs>
      <g>
       <use style="stroke:#000000;stroke-linecap:butt;stroke-width:0.5;" x="54.63625" xlink:href="#m493bd5120e" y="354.293053004"/>
      </g>
     </g>
    </g>
    <g id="ytick_12">
     <g id="line2d_40">
      <defs>
       <path d="
M0 0
L2 0" id="m493bd5120e"/>
      </defs>
      <g>
       <use style="stroke:#000000;stroke-linecap:butt;stroke-width:0.5;" x="54.63625" xlink:href="#m493bd5120e" y="329.981221169"/>
      </g>
     </g>
    </g>
    <g id="ytick_13">
     <g id="line2d_41">
      <defs>
       <path d="
M0 0
L2 0" id="m493bd5120e"/>
      </defs>
      <g>
       <use style="stroke:#000000;stroke-linecap:butt;stroke-width:0.5;" x="54.63625" xlink:href="#m493bd5120e" y="317.825305252"/>
      </g>
     </g>
    </g>
    <g id="ytick_14">
     <g id="line2d_42">
      <defs>
       <path d="
M0 0
L2 0" id="m493bd5120e"/>
      </defs>
      <g>
       <use style="stroke:#000000;stroke-linecap:butt;stroke-width:0.5;" x="54.63625" xlink:href="#m493bd5120e" y="305.669389334"/>
      </g>
     </g>
    </g>
    <g id="ytick_15">
     <g id="line2d_43">
      <defs>
       <path d="
M0 0
L2 0" id="m493bd5120e"/>
      </defs>
      <g>
       <use style="stroke:#000000;stroke-linecap:butt;stroke-width:0.5;" x="54.63625" xlink:href="#m493bd5120e" y="293.513473417"/>
      </g>
     </g>
    </g>
    <g id="ytick_16">
     <g id="line2d_44">
      <defs>
       <path d="
M0 0
L2 0" id="m493bd5120e"/>
      </defs>
      <g>
       <use style="stroke:#000000;stroke-linecap:butt;stroke-width:0.5;" x="54.63625" xlink:href="#m493bd5120e" y="269.201641582"/>
      </g>
     </g>
    </g>
    <g id="ytick_17">
     <g id="line2d_45">
      <defs>
       <path d="
M0 0
L2 0" id="m493bd5120e"/>
      </defs>
      <g>
       <use style="stroke:#000000;stroke-linecap:butt;stroke-width:0.5;" x="54.63625" xlink:href="#m493bd5120e" y="257.045725665"/>
      </g>
     </g>
    </g>
    <g id="ytick_18">
     <g id="line2d_46">
      <defs>
       <path d="
M0 0
L2 0" id="m493bd5120e"/>
      </defs>
      <g>
       <use style="stroke:#000000;stroke-linecap:butt;stroke-width:0.5;" x="54.63625" xlink:href="#m493bd5120e" y="244.889809748"/>
      </g>
     </g>
    </g>
    <g id="ytick_19">
     <g id="line2d_47">
      <defs>
       <path d="
M0 0
L2 0" id="m493bd5120e"/>
      </defs>
      <g>
       <use style="stroke:#000000;stroke-linecap:butt;stroke-width:0.5;" x="54.63625" xlink:href="#m493bd5120e" y="232.733893831"/>
      </g>
     </g>
    </g>
    <g id="ytick_20">
     <g id="line2d_48">
      <defs>
       <path d="
M0 0
L2 0" id="m493bd5120e"/>
      </defs>
      <g>
       <use style="stroke:#000000;stroke-linecap:butt;stroke-width:0.5;" x="54.63625" xlink:href="#m493bd5120e" y="208.422061996"/>
      </g>
     </g>
    </g>
    <g id="ytick_21">
     <g id="line2d_49">
      <defs>
       <path d="
M0 0
L2 0" id="m493bd5120e"/>
      </defs>
      <g>
       <use style="stroke:#000000;stroke-linecap:butt;stroke-width:0.5;" x="54.63625" xlink:href="#m493bd5120e" y="196.266146079"/>
      </g>
     </g>
    </g>
    <g id="ytick_22">
     <g id="line2d_50">
      <defs>
       <path d="
M0 0
L2 0" id="m493bd5120e"/>
      </defs>
      <g>
       <use style="stroke:#000000;stroke-linecap:butt;stroke-width:0.5;" x="54.63625" xlink:href="#m493bd5120e" y="184.110230161"/>
      </g>
     </g>
    </g>
    <g id="ytick_23">
     <g id="line2d_51">
      <defs>
       <path d="
M0 0
L2 0" id="m493bd5120e"/>
      </defs>
      <g>
       <use style="stroke:#000000;stroke-linecap:butt;stroke-width:0.5;" x="54.63625" xlink:href="#m493bd5120e" y="171.954314244"/>
      </g>
     </g>
    </g>
    <g id="ytick_24">
     <g id="line2d_52">
      <defs>
       <path d="
M0 0
L2 0" id="m493bd5120e"/>
      </defs>
      <g>
       <use style="stroke:#000000;stroke-linecap:butt;stroke-width:0.5;" x="54.63625" xlink:href="#m493bd5120e" y="147.642482409"/>
      </g>
     </g>
    </g>
    <g id="ytick_25">
     <g id="line2d_53">
      <defs>
       <path d="
M0 0
L2 0" id="m493bd5120e"/>
      </defs>
      <g>
       <use style="stroke:#000000;stroke-linecap:butt;stroke-width:0.5;" x="54.63625" xlink:href="#m493bd5120e" y="135.486566492"/>
      </g>
     </g>
    </g>
    <g id="ytick_26">
     <g id="line2d_54">
      <defs>
       <path d="
M0 0
L2 0" id="m493bd5120e"/>
      </defs>
      <g>
       <use style="stroke:#000000;stroke-linecap:butt;stroke-width:0.5;" x="54.63625" xlink:href="#m493bd5120e" y="123.330650575"/>
      </g>
     </g>
    </g>
    <g id="ytick_27">
     <g id="line2d_55">
      <defs>
       <path d="
M0 0
L2 0" id="m493bd5120e"/>
      </defs>
      <g>
       <use style="stroke:#000000;stroke-linecap:butt;stroke-width:0.5;" x="54.63625" xlink:href="#m493bd5120e" y="111.174734658"/>
      </g>
     </g>
    </g>
    <g id="ytick_28">
     <g id="line2d_56">
      <defs>
       <path d="
M0 0
L2 0" id="m493bd5120e"/>
      </defs>
      <g>
       <use style="stroke:#000000;stroke-linecap:butt;stroke-width:0.5;" x="54.63625" xlink:href="#m493bd5120e" y="86.862902823"/>
      </g>
     </g>
    </g>
    <g id="ytick_29">
     <g id="line2d_57">
      <defs>
       <path d="
M0 0
L2 0" id="m493bd5120e"/>
      </defs>
      <g>
       <use style="stroke:#000000;stroke-linecap:butt;stroke-width:0.5;" x="54.63625" xlink:href="#m493bd5120e" y="74.7069869057"/>
      </g>
     </g>
    </g>
    <g id="ytick_30">
     <g id="line2d_58">
      <defs>
       <path d="
M0 0
L2 0" id="m493bd5120e"/>
      </defs>
      <g>
       <use style="stroke:#000000;stroke-linecap:butt;stroke-width:0.5;" x="54.63625" xlink:href="#m493bd5120e" y="62.5510709884"/>
      </g>
     </g>
    </g>
    <g id="ytick_31">
     <g id="line2d_59">
      <defs>
       <path d="
M0 0
L2 0" id="m493bd5120e"/>
      </defs>
      <g>
       <use style="stroke:#000000;stroke-linecap:butt;stroke-width:0.5;" x="54.63625" xlink:href="#m493bd5120e" y="50.3951550711"/>
      </g>
     </g>
    </g>
    <g id="ytick_32">
     <g id="line2d_60">
      <defs>
       <path d="
M0 0
L2 0" id="m493bd5120e"/>
      </defs>
      <g>
       <use style="stroke:#000000;stroke-linecap:butt;stroke-width:0.5;" x="54.63625" xlink:href="#m493bd5120e" y="38.2392391538"/>
      </g>
     </g>
    </g>
    <g id="ytick_33">
     <g id="line2d_61">
      <defs>
       <path d="
M0 0
L2 0" id="m493bd5120e"/>
      </defs>
      <g>
       <use style="stroke:#000000;stroke-linecap:butt;stroke-width:0.5;" x="54.63625" xlink:href="#m493bd5120e" y="26.0833232365"/>
      </g>
     </g>
    </g>
   </g>
   <g id="patch_3">
    <path d="
M64.6363 342.137
L557.404 342.137" style="fill:none;stroke:#000000;stroke-width:0.8;"/>
   </g>
   <g id="patch_4">
    <path d="
M54.6363 412.21
L54.6363 7.2" style="fill:none;stroke:#000000;stroke-width:0.8;"/>
   </g>
  </g>
 </g>
 <defs>
  <clipPath id="pd71750d3b8">
   <rect height="405.010436853" width="492.7675" x="64.63625" y="7.2"/>
  </clipPath>
 </defs>
</svg>
