<?xml version="1.0" encoding="utf-8" standalone="no"?>
<!DOCTYPE svg PUBLIC "-//W3C//DTD SVG 1.1//EN"
  "http://www.w3.org/Graphics/SVG/1.1/DTD/svg11.dtd">
<!-- Created with matplotlib (http://matplotlib.sourceforge.net/) -->
<svg height="420pt" version="1.1" viewBox="0 0 564 420" width="564pt" xmlns="http://www.w3.org/2000/svg" xmlns:xlink="http://www.w3.org/1999/xlink">
 <defs>
  <style type="text/css">
*{stroke-linecap:square;stroke-linejoin:round;}
  </style>
 </defs>
 <g id="figure_1">
  <g id="patch_1">
   <path d="
M0 420.48
L564.517 420.48
L564.517 0
L0 0
z
" style="fill:#ffffff;"/>
  </g>
  <g id="axes_1">
   <g id="patch_2">
    <path d="
M33.95 413.28
L557.317 413.28
L557.317 7.2
L33.95 7.2
z
" style="fill:#ffffff;"/>
   </g>
   <g id="line2d_1">
    <path clip-path="url(#pecc2b5f51a)" d="
M44.0148 359.628
L55.5248 359.628
L55.5248 375.566
L70.0258 375.566
L70.0258 403.476
L79.5774 403.476
L79.5774 405.471
L92.4081 405.471
L92.4081 396.83
L97.1503 396.83
L97.1503 390.861
L104.766 390.861
L104.766 377.847
L107.923 377.847
L107.923 371.298
L113.347 371.298
L113.347 358.29
L119.927 358.29
L119.927 341.673
L121.82 341.673
L121.82 336.529
L126.843 336.529
L126.843 321.907
L129.757 321.907
L129.757 315.563
L131.109 315.563
L131.109 313.35
L133.634 313.35
L133.634 310.439
L137.044 310.439
L137.044 308.114
L140.089 308.114
L140.089 307.321
L143.698 307.42
L143.698 308.584
L145.344 308.584
L145.344 308.753
L146.133 308.753
L146.133 308.587
L148.375 308.587
L148.375 308.828
L149.777 308.828
L149.777 308.567
L151.759 308.567
L151.759 307.66
L154.202 307.66
L154.202 305.953
L155.349 305.953
L155.349 304.888
L155.906 304.888
L155.906 304.238
L156.987 304.238
L156.987 303.284
L157.513 303.284
L157.513 302.697
L158.536 302.697
L158.536 301.838
L161.852 301.838
L161.852 298.43
L162.732 298.43
L162.732 297.374
L164.003 297.374
L164.003 295.602
L164.415 295.602
L164.415 294.949
L166.387 294.949
L166.387 291.482
L166.765 291.482
L166.765 290.756
L167.872 290.756
L167.872 288.438
L168.936 288.438
L168.936 286.047
L169.625 286.047
L169.625 284.395
L170.627 284.395
L170.627 281.839
L171.594 281.839
L171.594 279.24
L171.91 279.24
L171.91 278.344
L173.436 278.344
L173.436 273.817
L173.732 273.817
L173.732 273.018
L174.314 273.018
L174.314 271.351
L174.601 271.351
L174.601 270.485
L176.263 270.485
L176.263 265.286
L177.834 265.286
L177.834 260.296
L178.338 260.296
L178.338 258.646
L178.587 258.646
L178.587 257.796
L179.079 257.796
L179.079 256.22
L179.801 256.22
L179.801 253.818
L180.037 253.818
L180.037 253
L181.191 253
L181.191 248.884
L181.862 248.884
L181.862 246.437
L182.517 246.437
L182.517 243.979
L183.157 243.979
L183.157 241.512
L183.368 241.512
L183.368 240.677
L183.989 240.677
L183.989 238.334
L184.396 238.334
L184.396 236.886
L184.598 236.886
L184.598 236.144
L185.583 236.144
L185.583 232.718
L186.908 232.718
L186.908 228.456
L187.276 228.456
L187.276 227.357
L187.458 227.357
L187.458 226.788
L187.818 226.788
L187.818 225.617
L189.045 225.617
L189.045 221.895
L189.555 221.895
L189.555 220.309
L190.385 220.309
L190.385 217.893
L190.548 217.893
L190.548 217.448
L190.872 217.448
L190.872 216.525
L191.35 216.525
L191.35 215.107
L191.976 215.107
L191.976 213.193
L192.436 213.193
L192.436 211.741
L192.889 211.741
L192.889 210.392
L193.187 210.392
L193.187 209.554
L193.628 209.554
L193.628 208.267
L194.206 208.267
L194.206 206.525
L194.491 206.525
L194.491 205.716
L195.052 205.716
L195.052 204.065
L195.737 204.065
L195.737 201.989
L195.873 201.989
L195.873 201.567
L196.539 201.567
L196.539 199.422
L196.67 199.422
L196.67 199.02
L197.061 199.02
L197.061 197.885
L197.319 197.885
L197.319 197.11
L197.7 197.11
L197.7 195.923
L198.202 195.923
L198.202 194.32
L198.449 194.32
L198.449 193.568
L198.572 193.568
L198.572 193.211
L198.816 193.211
L198.816 192.476
L199.536 192.476
L199.536 190.424
L200.007 190.424
L200.007 189.163
L200.239 189.163
L200.239 188.575
L200.698 188.575
L200.698 187.478
L200.924 187.478
L200.924 186.915
L201.261 186.915
L201.261 186.044
L201.922 186.044
L202.031 184.005
L202.992 184.005
L202.992 181.507
L203.305 181.507
L203.305 180.671
L203.819 180.671
L203.819 179.256
L204.123 179.256
L204.123 178.393
L204.424 178.393
L204.524 177.235
L204.821 177.235
L204.821 176.377
L205.308 176.377
L205.308 174.928
L205.597 174.928
L205.597 174.047
L205.883 174.047
L205.977 172.846
L206.259 172.846
L206.259 171.909
L206.539 171.909
L206.539 170.959
L206.723 170.959
L206.815 170.064
L207.36 170.064
L207.36 168.417
L207.807 168.417
L207.895 166.759
L208.071 166.759
L208.071 166.221
L208.333 166.221
L208.333 165.398
L208.593 165.398
L208.679 164.277
L209.189 164.277
L209.189 162.652
L209.358 162.652
L209.358 162.139
L209.608 162.139
L209.608 161.354
L209.939 161.354
L209.939 160.292
L210.347 160.292
L210.347 158.954
L210.669 158.954
L210.669 157.94
L211.066 157.94
L211.066 156.74
L211.38 156.74
L211.38 155.832
L211.614 155.832
L211.614 155.14
L211.845 155.14
L211.845 154.481
L211.998 154.481
L211.998 154.032
L212.302 154.032
L212.302 153.116
L212.528 153.116
L212.528 152.463
L212.678 152.463
L212.678 152.018
L212.975 152.018
L212.975 151.112
L213.122 151.112
L213.122 150.679
L213.632 150.679
L213.632 149.245
L213.99 149.245
L213.99 148.282
L214.414 148.282
L214.484 146.929
L214.832 146.929
L214.901 145.882
L215.039 145.882
L215.107 145.359
L215.448 145.359
L215.448 144.45
L215.918 144.45
L215.918 143.252
L216.05 143.252
L216.117 142.726
L216.249 142.726
L216.249 142.382
L216.705 142.382
L216.705 141.161
L216.835 141.161
L216.899 140.625
L217.027 140.625
L217.027 140.253
L217.66 140.253
L217.66 138.376
L217.785 138.376
L217.785 137.999
L218.033 137.999
L218.033 137.23
L218.34 137.23
L218.34 136.314
L218.584 136.314
L218.584 135.571
L218.705 135.571
L218.705 135.215
L218.885 135.215
L218.885 134.701
L219.065 134.701
L219.065 134.178
L219.479 134.178
L219.479 133.015
L219.596 133.015
L219.596 132.678
L219.771 132.678
L219.771 132.192
L219.944 132.192
L219.944 131.727
L220.174 131.727
L220.174 131.134
L220.346 131.134
L220.346 130.68
L220.685 130.68
L220.685 129.815
L220.798 129.815
L220.798 129.541
L220.965 129.541
L221.021 128.974
L221.298 128.974
L221.353 128.142
L221.517 128.142
L221.517 127.707
L221.789 127.707
L221.843 126.873
L222.112 126.873
L222.165 126.065
L222.325 126.065
L222.325 125.665
L222.799 125.665
L222.904 124.177
L222.955 124.177
L223.059 123.766
L223.214 123.766
L223.214 123.376
L223.368 123.376
L223.368 122.977
L223.572 122.977
L223.572 122.467
L223.724 122.467
L223.724 122.078
L223.875 122.078
L223.875 121.704
L224.423 121.704
L224.473 120.286
L224.718 120.286
L224.718 119.674
L224.912 119.674
L224.912 119.207
L225.154 119.207
L225.154 118.612
L225.298 118.612
L225.298 118.248
L225.441 118.248
L225.441 117.877
L225.63 117.877
L225.63 117.372
L225.913 117.372
L226.006 116.344
L226.146 116.344
L226.146 115.946
L226.285 115.946
L226.331 115.404
L226.469 115.404
L226.469 115.003
L226.743 115.003
L226.743 114.192
L226.969 114.192
L226.969 113.51
L227.372 113.51
L227.417 112.137
L227.505 112.137
L227.505 111.855
L227.638 111.855
L227.682 111.311
L227.813 111.311
L227.901 110.628
L227.944 110.628
L228.031 110.202
L228.291 110.202
L228.334 109.193
L228.462 109.193
L228.462 108.765
L229.181 108.765
L229.181 106.455
L229.306 106.455
L229.306 106.049
L229.43 106.049
L229.43 105.655
L229.595 105.655
L229.595 105.123
L229.962 105.123
L229.962 103.919
L230.165 103.919
L230.165 103.276
L230.445 103.276
L230.525 102.17
L230.565 102.17
L230.644 101.8
L230.763 101.8
L230.763 101.438
L230.92 101.438
L230.998 100.733
L231.037 100.733
L231.037 100.617
L231.154 100.617
L231.154 100.264
L231.387 100.264
L231.387 99.5485
L231.579 99.5485
L231.618 98.8625
L231.694 98.8625
L231.732 98.5245
L231.808 98.5245
L231.808 98.2988
L231.922 98.2988
L231.922 97.97
L232.149 97.97
L232.149 97.3353
L232.373 97.3353
L232.373 96.7249
L232.522 96.7249
L232.522 96.3126
L232.744 96.3126
L232.854 95.384
L232.927 95.384
L233.036 94.9045
L233.182 94.9045
L233.254 94.3619
L233.398 94.3619
L233.47 93.8171
L233.72 93.8171
L233.791 92.9733
L233.897 92.9733
L234.003 92.3834
L234.108 92.3834
L234.143 91.9766
L234.248 91.9766
L234.248 91.6721
L234.422 91.6721
L234.422 91.1806
L234.767 91.1806
L234.87 89.9637
L234.938 89.9637
L234.972 89.7018
L235.377 89.7018
L235.478 88.4813
L235.644 88.4813
L235.644 88.0912
L235.843 88.0912
L235.876 87.5348
L236.04 87.5348
L236.04 87.144
L236.171 87.144
L236.268 86.6246
L236.366 86.6246
L236.463 86.2112
L236.752 86.2112
L236.847 85.3816
L236.911 85.3816
L236.943 85.1688
L237.133 85.1688
L237.133 84.7433
L237.29 84.7433
L237.29 84.4026
L237.477 84.4026
L237.477 83.9865
L237.602 83.9865
L237.602 83.7041
L237.849 83.7041
L237.849 83.1308
L238.063 83.1308
L238.154 82.4401
L238.215 82.4401
L238.306 82.0934
L238.487 82.0207
L238.487 81.6686
L238.667 81.6686
L238.756 81.0655
L238.845 81.0655
L238.845 80.865
L239.111 80.865
L239.14 80.2247
L239.374 80.2247
L239.404 79.659
L239.722 79.659
L239.808 78.8006
L239.923 78.8006
L240.008 78.4063
L240.094 78.3
L240.15 78.1429
L240.263 78.1429
L240.348 77.7928
L240.488 77.7928
L240.516 77.4904
L240.656 77.4904
L240.656 77.2259
L240.85 77.2259
L240.85 76.8481
L240.988 76.8481
L241.071 76.44
L241.235 76.44
L241.344 75.9611
L241.479 75.9611
L241.479 75.7265
L241.641 75.7265
L241.668 75.4142
L241.882 75.4142
L241.989 74.9332
L242.068 74.8554
L242.068 74.8181
L242.2 74.8181
L242.306 74.5053
L242.541 74.5053
L242.541 74.2187
L242.852 74.2187
L242.904 73.7587
L243.083 73.6535
L243.083 73.52
L243.287 73.52
L243.363 73.1432
L243.464 73.1432
L243.464 73.0132
L243.665 73.0132
L243.74 72.6379
L243.84 72.6379
L243.914 72.4017
L244.038 72.3078
L244.038 72.2483
L244.186 72.2483
L244.211 72.0526
L244.48 72.0526
L244.577 71.6722
L244.698 71.5867
L244.77 71.4557
L244.938 71.4557
L245.01 71.1933
L245.153 71.1156
L245.2 71.0004
L245.413 70.938
L245.484 70.7451
L245.718 70.6802
L245.764 70.5015
L245.973 70.4493
L246.065 70.2599
L246.476 70.1714
L246.476 69.9387
L246.68 69.9387
L246.68 69.7916
L246.882 69.705
L246.926 69.5925
L247.082 69.5091
L247.082 69.4408
L247.325 69.4408
L247.325 69.2059
L247.457 69.2059
L247.479 69.0517
L247.654 69.0517
L247.741 68.7849
L247.914 68.7417
L247.914 68.6062
L248.064 68.6062
L248.171 68.3199
L248.32 68.2462
L248.384 68.0889
L248.49 68.0206
L248.553 67.9184
L248.7 67.864
L248.763 67.7327
L248.93 67.6727
L248.951 67.5461
L249.137 67.4424
L249.179 67.3274
L249.323 67.3274
L249.425 67.1163
L249.548 67.1163
L249.629 66.9199
L249.851 66.8555
L249.851 66.6988
L249.992 66.6988
L250.092 66.4471
L250.231 66.3549
L250.271 66.2333
L250.449 66.2333
L250.528 65.9226
L250.626 65.9226
L250.685 65.718
L250.821 65.6372
L250.919 65.41
L251.035 65.41
L251.035 65.257
L251.17 65.257
L251.266 64.9641
L251.608 64.8653
L251.627 64.5249
L251.722 64.5249
L251.797 64.3271
L251.966 64.2827
L252.003 64.0742
L252.189 63.9831
L252.245 63.7692
L252.356 63.7692
L252.448 63.5162
L252.631 63.5162
L252.74 63.1704
L252.885 63.1704
L252.885 62.9911
L253.12 62.9911
L253.174 62.6484
L253.281 62.6484
L253.37 62.3853
L253.477 62.3853
L253.53 62.1724
L253.636 62.0775
L253.706 61.9277
L253.899 61.9277
L253.969 61.5709
L254.073 61.5709
L254.073 61.4379
L254.315 61.4379
L254.384 61.0293
L254.486 60.9598
L254.589 60.7607
L254.691 60.7607
L254.725 60.5707
L254.826 60.5707
L254.928 60.2828
L255.079 60.2589
L255.096 60.0391
L255.229 60.0391
L255.279 59.7917
L255.445 59.7917
L255.445 59.5826
L255.577 59.5826
L255.676 59.3075
L255.921 59.2273
L255.986 58.9107
L256.083 58.9107
L256.131 58.7097
L256.228 58.6001
L256.324 58.4448
L256.452 58.3821
L256.468 58.2535
L256.564 58.2535
L256.659 58.0197
L256.849 57.9317
L256.927 57.7332
L257.084 57.625
L257.131 57.5369
L257.255 57.5369
L257.363 57.3093
L257.502 57.2799
L257.579 57.0921
L257.717 57.0289
L257.823 56.8558
L258.035 56.8132
L258.096 56.5946
L258.276 56.5251
L258.351 56.351
L258.485 56.351
L258.574 56.1292
L258.707 56.0222
L258.795 55.9129
L258.927 55.8164
L258.985 55.7281
L259.117 55.7281
L259.204 55.514
L259.377 55.4196
L259.406 55.2828
L259.549 55.2828
L259.549 55.1149
L259.706 55.1149
L259.806 54.8315
L259.919 54.7539
L259.975 54.649
L260.13 54.649
L260.186 54.4303
L260.298 54.4303
L260.34 54.2703
L260.478 54.1689
L260.561 54.0424
L260.672 54.0424
L260.754 53.8345
L260.877 53.7276
L260.891 53.6832
L261.014 53.6832
L261.014 53.5422
L261.176 53.5422
L261.284 53.2507
L261.445 53.1567
L261.525 53.0026
L261.645 52.942
L261.725 52.7657
L261.818 52.7165
L261.818 52.6489
L262.015 52.6489
L262.094 52.2842
L262.211 52.2017
L262.315 52.0184
L262.432 52.0184
L262.471 51.8381
L262.625 51.748
L262.638 51.6393
L262.753 51.6393
L262.855 51.3713
L263.008 51.3228
L263.084 51.0895
L263.21 50.9854
L263.273 50.8652
L263.423 50.8652
L263.51 50.5979
L263.647 50.5546
L263.733 50.3274
L263.881 50.2789
L263.991 49.9781
L264.101 49.8758
L264.199 49.6855
L264.308 49.6358
L264.38 49.4464
L264.489 49.4464
L264.561 49.2244
L264.669 49.2244
L264.716 49.0433
L264.859 49.0433
L264.966 48.7465
L265.143 48.6382
L265.143 48.5448
L265.318 48.5448
L265.412 48.2546
L265.563 48.1819
L265.655 47.9938
L265.793 47.889
L265.874 47.7885
L266.045 47.7153
L266.136 47.5673
L266.249 47.4632
L266.339 47.3496
L266.452 47.2766
L266.553 47.129
L266.675 47.0766
L266.753 46.9374
L266.941 46.9057
L267.051 46.6519
L267.216 46.5443
L267.281 46.4486
L267.412 46.3408
L267.433 46.3126
L267.563 46.3126
L267.671 46.1049
L267.821 46.0109
L267.896 45.9279
L268.203 45.8172
L268.298 45.6328
L268.466 45.5603
L268.56 45.4452
L268.705 45.3565
L268.737 45.3088
L268.922 45.2062
L268.984 45.1173
L269.148 45.0208
L269.239 44.9395
L269.452 44.9084
L269.543 44.7614
L269.754 44.6788
L269.843 44.5974
L270.229 44.4864
L270.337 44.3724
L270.581 44.2638
L270.668 44.2214
L271.004 44.1186
L271.071 44.0727
L271.469 43.9637
L271.544 43.9345
L272 43.8266
L272.101 43.7765
L272.358 43.6781
L272.44 43.6176
L272.684 43.507
L272.783 43.4597
L273.007 43.3516
L273.113 43.2662
L273.343 43.1859
L273.448 43.0597
L273.658 43.017
L273.693 42.9189
L273.901 42.8093
L273.996 42.7342
L274.227 42.6318
L274.338 42.5162
L274.566 42.4158
L274.583 42.3705
L274.76 42.2989
L274.86 42.1763
L275.084 42.0696
L275.192 41.9615
L275.455 41.8777
L275.553 41.749
L275.747 41.6454
L275.844 41.5792
L276.109 41.4682
L276.189 41.4199
L276.442 41.3182
L276.545 41.2615
L276.85 41.1614
L276.943 41.1094
L277.29 41.0136
L277.374 40.9742
L277.716 40.8706
L277.814 40.8189
L278.083 40.7148
L278.187 40.6276
L278.439 40.5246
L278.527 40.4674
L278.804 40.3883
L278.891 40.3112
L279.172 40.2126
L279.279 40.1476
L279.599 40.0439
L279.705 39.9699
L279.978 39.8849
L280.061 39.8128
L280.269 39.7199
L280.379 39.6274
L280.544 39.5455
L280.605 39.4671
L280.802 39.3562
L280.91 39.2562
L281.072 39.1499
L281.072 39.1353
L281.252 39.0294
L281.325 38.9665
L281.544 38.858
L281.649 38.7784
L281.839 38.6699
L281.943 38.5797
L282.112 38.4705
L282.189 38.4009
L282.363 38.3023
L282.465 38.2003
L282.618 38.1058
L282.713 38.0159
L282.896 37.9191
L282.99 37.8091
L283.146 37.7045
L283.233 37.6218
L283.388 37.518
L283.493 37.4116
L283.665 37.3098
L283.769 37.1567
L283.951 37.0527
L284.048 36.9208
L284.223 36.8365
L284.33 36.6878
L284.456 36.5895
L284.491 36.5381
L284.64 36.4343
L284.728 36.3026
L284.863 36.2079
L284.922 36.0902
L285.027 36.0154
L285.132 35.8556
L285.254 35.7482
L285.335 35.6383
L285.461 35.5428
L285.53 35.4375
L285.65 35.3368
L285.719 35.2474
L285.9 35.1416
L285.991 34.9664
L286.109 34.8606
L286.193 34.7425
L286.294 34.6538
L286.388 34.523
L286.488 34.4228
L286.56 34.3234
L286.67 34.2224
L286.753 34.0957
L286.884 34.0148
L286.988 33.8311
L287.118 33.726
L287.216 33.5713
L287.34 33.5127
L287.442 33.3032
L287.554 33.2036
L287.628 33.099
L287.74 33.0332
L287.819 32.9086
L287.951 32.8016
L288.062 32.6823
L288.197 32.5945
L288.265 32.4894
L288.39 32.3925
L288.483 32.2863
L288.622 32.199
L288.725 32.0521
L288.883 31.9514
L288.954 31.8487
L289.111 31.7693
L289.212 31.6177
L289.338 31.5233
L289.438 31.4265
L289.607 31.3202
L289.691 31.2216
L289.829 31.1249
L289.889 31.0649
L290.05 30.981
L290.148 30.8685
L290.294 30.7856
L290.357 30.7042
L290.496 30.6099
L290.588 30.5075
L290.741 30.4007
L290.831 30.3331
L291.058 30.2364
L291.143 30.1564
L291.433 30.0473
L291.536 29.9391
L291.771 29.8313
L291.881 29.768
L292.1 29.6577
L292.191 29.591
L292.358 29.4933
L292.462 29.4036
L292.627 29.2941
L292.721 29.2073
L292.894 29.0977
L293 28.999
L293.154 28.8894
L293.263 28.7872
L293.446 28.6914
L293.519 28.5866
L293.713 28.4891
L293.82 28.3717
L294.034 28.2693
L294.14 28.1507
L294.313 28.0413
L294.392 27.9664
L294.564 27.8617
L294.668 27.787
L294.899 27.6774
L295.002 27.5959
L295.211 27.486
L295.28 27.4468
L295.511 27.3396
L295.563 27.3059
L295.835 27.1963
L295.935 27.1261
L296.16 27.0205
L296.267 26.9521
L296.455 26.8411
L296.525 26.7892
L296.699 26.6897
L296.803 26.6084
L296.965 26.5072
L297.076 26.4124
L297.247 26.3124
L297.338 26.2346
L297.534 26.1261
L297.631 26.0351
L297.791 25.9278
L297.892 25.8168
L298.021 25.7136
L298.132 25.5969
L298.256 25.5005
L298.362 25.3677
L298.493 25.261
L298.57 25.1649
L298.689 25.067
L298.797 24.9555
L298.936 24.8469
L299.026 24.7645
L299.196 24.6704
L299.299 24.5606
L299.46 24.4954
L299.545 24.3792
L299.698 24.2895
L299.806 24.191
L299.978 24.08
L300.061 24.0109
L300.215 23.9072
L300.307 23.8284
L300.501 23.7389
L300.595 23.666
L300.823 23.5578
L300.927 23.4901
L301.136 23.3829
L301.242 23.3174
L301.422 23.2117
L301.52 23.1469
L301.696 23.0474
L301.8 22.9691
L301.974 22.8661
L302.083 22.7874
L302.293 22.6774
L302.385 22.5954
L302.546 22.5131
L302.634 22.4247
L302.831 22.3139
L302.933 22.2528
L303.125 22.1519
L303.23 22.0773
L303.438 21.9747
L303.532 21.8949
L303.774 21.7882
L303.883 21.683
L304.062 21.5836
L304.146 21.5112
L304.341 21.4042
L304.445 21.3384
L304.632 21.2286
L304.737 21.1318
L304.874 21.0257
L304.912 20.986
L305.042 20.8764
L305.134 20.7959
L305.274 20.6854
L305.383 20.5856
L305.539 20.4806
L305.646 20.3774
L305.798 20.2767
L305.891 20.1937
L306.044 20.089
L306.149 19.989
L306.302 19.891
L306.398 19.7753
L306.546 19.675
L306.652 19.586
L306.831 19.4768
L306.939 19.3832
L307.141 19.2738
L307.237 19.203
L307.481 19.0987
L307.563 19.0474
L307.883 18.938
L307.985 18.9052
L308.42 18.7957
L308.528 18.7612
L308.958 18.6612
L309.066 18.6038
L309.431 18.497
L309.539 18.4631
L310.162 18.3539
L310.263 18.3368
L310.978 18.2278
L311.085 18.1988
L311.742 18.0877
L311.849 18.0633
L315.889 18.1737
L315.999 18.188
L317.897 18.2986
L317.996 18.3209
L318.939 18.4289
L319.045 18.4592
L319.382 18.5696
L319.49 18.6119
L319.816 18.718
L319.899 18.758
L320.219 18.8684
L320.327 18.9104
L320.688 19.0198
L320.795 19.0484
L321.16 19.1583
L321.263 19.1773
L322.425 19.0708
L322.533 19.0373
L323.208 18.9286
L323.317 18.9088
L323.871 18.7978
L323.973 18.7801
L325.401 18.6695
L325.506 18.6537
L326.056 18.5449
L326.162 18.5191
L328.962 18.4085
L329.05 18.3993
L329.66 18.2894
L329.762 18.264
L330.192 18.1543
L330.302 18.1301
L331.021 18.0201
L331.123 17.9906
L331.527 17.8797
L331.638 17.842
L331.945 17.7367
L332.046 17.6981
L332.365 17.5894
L332.47 17.5462
L332.726 17.4365
L332.832 17.3847
L333.111 17.2751
L333.217 17.2402
L333.569 17.1316
L333.675 17.0998
L334.112 16.9903
L334.22 16.9583
L334.538 16.8478
L334.648 16.8022
L334.903 16.693
L335.008 16.64
L335.247 16.529
L335.352 16.4747
L335.564 16.3645
L335.67 16.3073
L335.9 16.197
L336.004 16.1413
L336.226 16.0319
L336.317 15.9831
L336.55 15.8729
L336.658 15.8084
L336.868 15.6981
L336.978 15.6386
L337.245 15.5278
L337.356 15.4892
L337.714 15.3826
L337.821 15.3571
L338.326 15.2473
L338.43 15.2205
L339.157 15.1105
L339.261 15.0931
L341.35 15.2035
L341.461 15.2292
L341.967 15.34
L342.077 15.3684
L342.639 15.4791
L342.749 15.4892
L343.894 15.599
L344.004 15.6101
L349.67 15.7207
L349.782 15.7343
L350.332 15.8452
L350.441 15.8674
L350.897 15.978
L351 16.0024
L351.544 16.1133
L351.652 16.1334
L352.078 16.2422
L352.188 16.2818
L352.55 16.3929
L352.655 16.4316
L352.932 16.5426
L353.041 16.5917
L353.307 16.7015
L353.416 16.7519
L353.676 16.8618
L353.781 16.9072
L354.053 17.0172
L354.16 17.0746
L354.344 17.1852
L354.454 17.2567
L354.621 17.3668
L354.725 17.443
L354.875 17.5522
L354.983 17.6382
L355.13 17.7492
L355.24 17.8399
L355.395 17.9506
L355.505 18.04
L355.656 18.1486
L355.766 18.2412
L355.904 18.3506
L356.01 18.4383
L356.152 18.544
L356.262 18.6475
L356.394 18.7583
L356.504 18.8518
L356.639 18.9625
L356.749 19.0565
L356.885 19.1642
L356.995 19.2617
L357.124 19.3725
L357.233 19.4685
L357.364 19.5735
L357.474 19.6823
L357.601 19.793
L357.712 19.8909
L357.851 19.9986
L357.962 20.0944
L358.108 20.2048
L358.216 20.2818
L358.375 20.3908
L358.486 20.4638
L358.66 20.5725
L358.766 20.6455
L358.953 20.7555
L359.063 20.8159
L359.32 20.9263
L359.428 20.9652
L359.82 21.0763
L359.929 21.1016
L360.422 21.2127
L360.533 21.2374
L361.04 21.3483
L361.151 21.3685
L361.694 21.4795
L361.803 21.5002
L362.432 21.6113
L362.541 21.6416
L362.981 21.7526
L363.09 21.783
L363.45 21.8934
L363.558 21.935
L363.988 22.0459
L364.098 22.0607
L364.841 22.1717
L364.951 22.1916
L368.84 22.3026
L368.95 22.31
L370.026 22.4208
L370.137 22.4428
L371.137 22.5539
L371.248 22.5699
L371.995 22.6809
L372.106 22.6984
L372.624 22.8094
L372.735 22.8416
L373.123 22.9523
L373.233 22.9981
L373.494 23.109
L373.603 23.158
L373.883 23.2688
L373.994 23.309
L374.266 23.4198
L374.375 23.4709
L374.612 23.5816
L374.723 23.6302
L375.028 23.7409
L375.137 23.7847
L375.428 23.8956
L375.537 23.9294
L375.943 24.0404
L376.054 24.0767
L376.388 24.1878
L376.498 24.2243
L376.836 24.3343
L376.947 24.3758
L377.217 24.4862
L377.325 24.5343
L377.566 24.6453
L377.676 24.6992
L377.881 24.809
L377.992 24.8845
L378.151 24.9953
L378.261 25.0754
L378.411 25.1843
L378.522 25.2702
L378.664 25.381
L378.774 25.4682
L378.913 25.579
L379.021 25.6731
L379.146 25.7833
L379.257 25.8874
L379.378 25.9972
L379.488 26.1044
L379.599 26.2153
L379.707 26.3279
L379.815 26.4371
L379.924 26.5562
L380.039 26.6664
L380.15 26.7764
L380.275 26.8874
L380.386 26.9795
L380.522 27.0905
L380.633 27.1806
L380.768 27.2916
L380.879 27.3797
L381.014 27.4886
L381.123 27.5831
L381.26 27.6929
L381.37 27.7927
L381.5 27.9025
L381.61 27.9868
L381.754 28.0976
L381.865 28.1908
L381.999 28.3017
L382.11 28.3911
L382.26 28.5016
L382.37 28.5853
L382.526 28.6962
L382.636 28.7711
L382.817 28.8806
L382.928 28.9441
L383.143 29.055
L383.253 29.1135
L383.495 29.2243
L383.605 29.2784
L383.829 29.3893
L383.94 29.4456
L384.143 29.5567
L384.254 29.6153
L384.454 29.7254
L384.563 29.7877
L384.781 29.8976
L384.891 29.9473
L385.139 30.0583
L385.25 30.1039
L385.542 30.2147
L385.652 30.2555
L385.915 30.3665
L386.025 30.4143
L386.282 30.5252
L386.392 30.574
L386.62 30.685
L386.73 30.7376
L386.957 30.8479
L387.067 30.9083
L387.293 31.0193
L387.403 31.0713
L387.646 31.1822
L387.757 31.2318
L388.021 31.3424
L388.132 31.382
L388.488 31.4931
L388.598 31.5359
L388.858 31.6468
L388.969 31.6998
L389.291 31.8109
L389.402 31.8474
L389.711 31.958
L389.821 32.0037
L390.082 32.1147
L390.193 32.1615
L390.434 32.2718
L390.544 32.3263
L390.791 32.4372
L390.901 32.4855
L391.211 32.5965
L391.322 32.6356
L391.774 32.7466
L391.885 32.7734
L392.347 32.8845
L392.458 32.9143
L392.952 33.0252
L393.063 33.0506
L393.612 33.1616
L393.723 33.1824
L394.105 33.2932
L394.215 33.3372
L394.445 33.4481
L394.555 33.5083
L394.759 33.6192
L394.87 33.6833
L395.056 33.7942
L395.167 33.8571
L395.364 33.968
L395.475 34.0286
L395.671 34.1381
L395.782 34.2135
L395.934 34.3244
L396.045 34.4113
L396.189 34.5217
L396.3 34.601
L396.453 34.7114
L396.563 34.7943
L396.711 34.905
L396.82 34.9916
L396.97 35.1016
L397.081 35.1816
L397.244 35.2925
L397.353 35.3673
L397.505 35.4784
L397.616 35.5666
L397.761 35.6775
L397.87 35.7516
L398.03 35.8624
L398.141 35.9403
L398.308 36.0514
L398.418 36.12
L398.618 36.2311
L398.728 36.2923
L398.951 36.4031
L399.062 36.4623
L399.295 36.5734
L399.405 36.62
L399.667 36.7309
L399.778 36.7796
L400.024 36.8903
L400.135 36.9513
L400.314 37.0621
L400.424 37.132
L400.601 37.2429
L400.712 37.3205
L400.878 37.4311
L400.989 37.5017
L401.185 37.6126
L401.295 37.6692
L401.516 37.7798
L401.627 37.8441
L401.799 37.9551
L401.909 38.024
L402.079 38.1351
L402.19 38.2047
L402.362 38.3154
L402.473 38.3917
L402.642 38.5028
L402.753 38.5718
L402.919 38.682
L403.03 38.7612
L403.188 38.8722
L403.298 38.953
L403.45 39.0638
L403.561 39.1411
L403.726 39.2519
L403.837 39.3266
L404.007 39.4377
L404.117 39.5165
L404.272 39.6275
L404.382 39.7135
L404.527 39.824
L404.638 39.9064
L404.772 40.0175
L404.883 40.1173
L405.007 40.2284
L405.118 40.3229
L405.259 40.433
L405.37 40.5259
L405.5 40.6366
L405.61 40.735
L405.738 40.8459
L405.849 40.9543
L405.963 41.0653
L406.073 41.1738
L406.184 41.2848
L406.295 41.3928
L406.41 41.5027
L406.521 41.6108
L406.634 41.7215
L406.745 41.8288
L406.861 41.9397
L406.971 42.0494
L407.078 42.1596
L407.189 42.2772
L407.297 42.3876
L407.409 42.5034
L407.516 42.6143
L407.626 42.729
L407.735 42.8395
L407.846 42.9499
L407.965 43.0602
L408.076 43.1631
L408.201 43.274
L408.312 43.3787
L408.426 43.4898
L408.536 43.5996
L408.649 43.7105
L408.759 43.8189
L408.867 43.9299
L408.977 44.0459
L409.091 44.1568
L409.201 44.2628
L409.322 44.373
L409.433 44.4781
L409.541 44.5884
L409.652 44.7164
L409.751 44.8263
L409.862 44.9482
L409.972 45.0593
L410.083 45.1636
L410.205 45.2746
L410.315 45.3745
L410.439 45.4843
L410.55 45.5865
L410.678 45.6975
L410.789 45.7929
L410.92 45.9034
L411.03 46.0006
L411.16 46.1114
L411.271 46.1984
L411.416 46.3091
L411.527 46.3941
L411.693 46.505
L411.803 46.5715
L412.009 46.6824
L412.12 46.7431
L412.323 46.8542
L412.434 46.9224
L412.611 47.0331
L412.722 47.1115
L412.871 47.2225
L412.981 47.314
L413.116 47.4242
L413.227 47.516
L413.365 47.6267
L413.476 47.721
L413.6 47.8319
L413.711 47.9324
L413.829 48.0434
L413.94 48.1519
L414.053 48.263
L414.164 48.3697
L414.281 48.4806
L414.392 48.592
L414.504 48.703
L414.615 48.8169
L414.724 48.9275
L414.835 49.0409
L414.945 49.1519
L415.056 49.264
L415.169 49.3744
L415.28 49.4846
L415.404 49.5956
L415.514 49.6993
L415.632 49.8103
L415.743 49.9164
L415.863 50.0275
L415.974 50.1346
L416.09 50.2457
L416.2 50.3524
L416.319 50.4629
L416.43 50.5627
L416.567 50.6735
L416.678 50.7586
L416.835 50.8696
L416.945 50.9446
L417.102 51.0554
L417.213 51.1335
L417.365 51.2445
L417.475 51.3294
L417.618 51.4405
L417.729 51.5357
L417.865 51.6468
L417.976 51.7372
L418.114 51.8481
L418.225 51.9394
L418.353 52.05
L418.463 52.1518
L418.582 52.2629
L418.693 52.3626
L418.819 52.4729
L418.93 52.5692
L419.056 52.6802
L419.167 52.7756
L419.292 52.8867
L419.403 52.9774
L419.545 53.0881
L419.656 53.18
L419.784 53.291
L419.895 53.3828
L420.034 53.4937
L420.145 53.5823
L420.297 53.693
L420.407 53.7782
L420.543 53.8892
L420.654 53.9816
L420.787 54.0924
L420.898 54.1927
L421.018 54.303
L421.128 54.4025
L421.253 54.5133
L421.364 54.6143
L421.489 54.7253
L421.6 54.8163
L421.734 54.9271
L421.845 55.0194
L421.983 55.1302
L422.094 55.2215
L422.229 55.3325
L422.34 55.4284
L422.463 55.5392
L422.574 55.6448
L422.694 55.7556
L422.805 55.8626
L422.915 55.9736
L423.025 56.0861
L423.132 56.1972
L423.244 56.3128
L423.349 56.423
L423.46 56.545
L423.563 56.6561
L423.674 56.7718
L423.787 56.8828
L423.898 56.9969
L424.009 57.108
L424.12 57.2114
L424.241 57.3222
L424.351 57.416
L424.484 57.527
L424.595 57.6273
L424.719 57.7383
L424.83 57.834
L424.969 57.9451
L425.079 58.0371
L425.222 58.148
L425.333 58.2368
L425.472 58.3479
L425.582 58.4414
L425.724 58.5518
L425.835 58.6296
L425.998 58.7401
L426.109 58.8192
L426.274 58.93
L426.385 59.0104
L426.534 59.1215
L426.645 59.2072
L426.801 59.3182
L426.912 59.3872
L427.081 59.4983
L427.192 59.5771
L427.336 59.688
L427.446 59.7793
L427.589 59.8902
L427.7 59.9795
L427.832 60.0906
L427.943 60.1829
L428.082 60.2937
L428.193 60.3832
L428.321 60.4941
L428.432 60.5947
L428.55 60.7052
L428.661 60.8078
L428.787 60.9189
L428.898 61.0201
L429.018 61.1311
L429.129 61.2338
L429.252 61.3446
L429.363 61.4446
L429.488 61.5556
L429.599 61.6514
L429.733 61.7622
L429.844 61.8508
L429.991 61.9618
L430.102 62.0442
L430.234 62.1553
L430.345 62.2537
L430.471 62.3648
L430.582 62.4642
L430.712 62.5749
L430.823 62.6704
L430.953 62.7812
L431.064 62.8787
L431.192 62.9895
L431.303 63.082
L431.429 63.1931
L431.54 63.2947
L431.655 63.4057
L431.766 63.5117
L431.881 63.6227
L431.992 63.732
L432.101 63.8429
L432.212 63.9583
L432.319 64.0693
L432.43 64.1773
L432.546 64.2884
L432.656 64.3932
L432.776 64.5041
L432.887 64.6026
L433.02 64.7137
L433.131 64.7979
L433.285 64.9087
L433.396 64.9945
L433.54 65.1056
L433.651 65.1923
L433.786 65.3027
L433.897 65.3925
L434.062 65.5033
L434.173 65.5684
L434.368 65.6795
L434.479 65.7495
L434.639 65.8605
L434.75 65.9416
L434.898 66.0526
L435.009 66.1443
L435.137 66.2554
L435.248 66.3496
L435.389 66.4606
L435.5 66.543
L435.658 66.654
L435.769 66.7307
L435.941 66.8416
L436.052 66.9118
L436.267 67.0228
L436.378 67.0666
L436.673 67.1777
L436.784 67.2203
L437.083 67.3313
L437.194 67.3725
L437.582 67.4836
L437.693 67.5104
L438.143 67.6215
L438.254 67.6569
L438.559 67.7679
L438.67 67.8096
L438.944 67.9207
L439.055 67.9525
L439.524 68.0636
L439.635 68.0944
L440 68.2053
L440.111 68.2356
L440.494 68.3467
L440.605 68.3799
L441.004 68.491
L441.115 68.5265
L441.497 68.6375
L441.608 68.6708
L441.899 68.7818
L442.01 68.8207
L442.352 68.9318
L442.463 68.9656
L442.873 69.0767
L442.984 69.1025
L443.465 69.2136
L443.576 69.2398
L443.953 69.3508
L444.064 69.3827
L444.398 69.4938
L444.509 69.5423
L444.744 69.6533
L444.855 69.6993
L445.169 69.8104
L445.28 69.8486
L445.685 69.9597
L445.796 69.9866
L446.321 70.0977
L446.432 70.1166
L447.511 70.2277
L447.622 70.2401
L449.134 70.129
L449.245 70.0992
L449.938 69.9881
L450.049 69.9823
L451.56 70.0934
L451.671 70.1013
L455.843 70.2124
L455.954 70.2335
L456.914 70.3446
L457.025 70.3672
L457.879 70.4783
L457.99 70.4929
L460.286 70.604
L460.396 70.6195
L461.089 70.7306
L461.2 70.7515
L461.668 70.8626
L461.779 70.9008
L462.155 71.0118
L462.266 71.0428
L462.592 71.1539
L462.703 71.1955
L463.009 71.3066
L463.12 71.3422
L463.489 71.4533
L463.601 71.4856
L463.971 71.5967
L464.082 71.6347
L464.403 71.7458
L464.514 71.7848
L464.878 71.896
L464.989 71.9305
L465.412 72.0416
L465.523 72.061
L468.362 71.9499
L468.473 71.9145
L468.798 71.8034
L468.909 71.7702
L469.203 71.6591
L469.314 71.6069
L469.552 71.4959
L469.663 71.4455
L469.913 71.3344
L470.024 71.2881
L470.326 71.177
L470.437 71.1364
L470.741 71.0254
L470.852 70.9863
L471.178 70.8752
L471.289 70.8258
L471.518 70.7147
L471.629 70.6554
L471.82 70.5443
L471.931 70.4853
L472.136 70.3742
L472.247 70.315
L472.461 70.2039
L472.572 70.1477
L472.785 70.0366
L472.896 69.9789
L473.117 69.8678
L473.229 69.8069
L473.46 69.6958
L473.571 69.6385
L473.79 69.5275
L473.901 69.4627
L474.09 69.3516
L474.201 69.2932
L474.441 69.1821
L474.552 69.1372
L474.815 69.0261
L474.926 68.9777
L475.161 68.8666
L475.272 68.8065
L475.491 68.6955
L475.602 68.6471
L475.854 68.536
L475.965 68.4879
L476.216 68.3768
L476.327 68.3231
L476.556 68.212
L476.667 68.156
L476.878 68.0449
L476.989 67.9912
L477.214 67.8801
L477.325 67.8197
L477.547 67.7086
L477.658 67.658
L477.915 67.5469
L478.026 67.5006
L478.244 67.3895
L478.355 67.3309
L478.576 67.2199
L478.687 67.1666
L478.916 67.0555
L479.027 66.9977
L479.262 66.8866
L479.373 66.8344
L479.626 66.7232
L479.737 66.67
L480 66.5589
L480.111 66.5125
L480.399 66.4014
L480.51 66.3616
L480.793 66.2505
L480.904 66.2092
L481.15 66.0981
L481.261 66.0434
L481.478 65.9323
L481.589 65.8752
L481.794 65.7641
L481.905 65.703
L482.113 65.5919
L482.224 65.5315
L482.431 65.4204
L482.542 65.3618
L482.772 65.2507
L482.883 65.198
L483.092 65.0869
L483.204 65.0243
L483.375 64.9132
L483.486 64.8391
L483.654 64.728
L483.765 64.6565
L483.963 64.5454
L484.075 64.4887
L484.292 64.3776
L484.403 64.3182
L484.618 64.2071
L484.729 64.1535
L484.943 64.0424
L485.054 63.9797
L485.246 63.8686
L485.357 63.8093
L485.573 63.6982
L485.685 63.6393
L485.909 63.5282
L486.02 63.4758
L486.257 63.3647
L486.368 63.3151
L486.605 63.204
L486.716 63.1531
L486.982 63.042
L487.093 62.9986
L487.354 62.8875
L487.465 62.8365
L487.701 62.7254
L487.812 62.6834
L488.167 62.5723
L488.278 62.5375
L488.605 62.4264
L488.716 62.3864
L488.978 62.2753
L489.09 62.2286
L489.349 62.1175
L489.46 62.0679
L489.76 61.9568
L489.872 61.9134
L490.193 61.8023
L490.304 61.7639
L490.572 61.6528
L490.684 61.6017
L490.905 61.4906
L491.017 61.4288
L491.226 61.3177
L491.337 61.2623
L491.579 61.1512
L491.69 61.1047
L491.933 60.9936
L492.044 60.9424
L492.307 60.8313
L492.418 60.789
L492.778 60.6779
L492.89 60.6409
L493.23 60.5298
L493.341 60.4953
L493.721 60.3842
L493.833 60.3548
L494.297 60.2437
L494.408 60.223
L495.28 60.1119
L495.391 60.0997
L496.399 59.9886
L496.51 59.959
L496.857 59.848
L496.968 59.8068
L497.251 59.6957
L497.362 59.6498
L497.623 59.5386
L497.734 59.4974
L498.033 59.3862
L498.144 59.3512
L498.546 59.2401
L498.657 59.2203
L499.3 59.1092
L499.412 59.099
L501.319 59.2101
L501.407 59.2133
L501.43 59.2132
L506.124 59.1021
L506.235 59.0795
L506.838 58.9684
L506.949 58.9551
L508.279 58.844
L508.39 58.8351
L510.054 58.7239
L510.165 58.699
L510.572 58.5879
L510.684 58.5526
L511.058 58.4414
L511.169 58.4145
L511.624 58.3034
L511.735 58.2805
L512.274 58.1694
L512.385 58.1353
L512.752 58.0241
L512.863 57.9935
L513.194 57.8824
L513.305 57.8445
L513.691 57.7334
L513.802 57.7046
L514.214 57.5935
L514.325 57.5697
L515.043 57.4586
L515.154 57.4392
L515.573 57.3281
L515.684 57.2891
L515.982 57.178
L516.094 57.1273
L516.323 57.0162
L516.434 56.956
L516.628 56.8449
L516.739 56.7787
L516.934 56.6676
L517.045 56.6127
L517.287 56.5016
L517.398 56.4458
L517.614 56.3347
L517.725 56.2778
L517.961 56.1667
L518.072 56.1096
L518.273 55.9985
L518.384 55.9386
L518.586 55.8275
L518.697 55.7675
L518.907 55.6564
L519.018 55.602
L519.232 55.4909
L519.343 55.435
L519.56 55.3239
L519.672 55.2676
L519.9 55.1565
L520.011 55.1055
L520.271 54.9943
L520.382 54.9479
L520.663 54.8368
L520.774 54.7928
L521.012 54.6817
L521.123 54.628
L521.351 54.5169
L521.462 54.4584
L521.646 54.3473
L521.757 54.2837
L521.96 54.1726
L522.071 54.1133
L522.281 54.0022
L522.392 53.9458
L522.61 53.8347
L522.721 53.784
L523.011 53.6729
L523.123 53.6321
L523.478 53.521
L523.589 53.4857
L523.925 53.3746
L524.036 53.3378
L524.35 53.2267
L524.461 53.1867
L524.738 53.0756
L524.849 53.0309
L525.112 52.9198
L525.224 52.864
L525.447 52.7529
L525.558 52.6998
L525.795 52.5887
L525.906 52.5248
L526.096 52.4137
L526.207 52.3485
L526.4 52.2373
L526.511 52.1688
L526.689 52.0577
L526.8 51.9903
L526.977 51.8792
L527.088 51.8052
L527.237 51.6942
L527.348 51.6058
L527.483 51.4947
L527.594 51.4055
L527.73 51.2944
L527.841 51.2033
L527.973 51.0922
L528.084 50.9945
L528.213 50.8834
L528.324 50.7929
L528.462 50.6818
L528.573 50.5944
L528.713 50.4833
L528.824 50.3945
L528.966 50.2834
L529.077 50.1965
L529.217 50.0854
L529.329 50.0038
L529.489 49.8927
L529.6 49.8228
L529.793 49.7117
L529.904 49.6506
L530.103 49.5395
L530.215 49.4781
L530.405 49.367
L530.516 49.3041
L530.705 49.193
L530.816 49.1277
L530.999 49.0166
L531.11 48.949
L531.312 48.8379
L531.423 48.7788
L531.648 48.6677
L531.759 48.6146
L531.974 48.5035
L532.085 48.444
L532.287 48.3328
L532.398 48.2758
L532.603 48.1647
L532.714 48.1018
L532.894 47.9907
L533.005 47.9201
L533.184 47.809
L533.295 47.739
L533.466 47.6279
L533.577 47.5567
L533.751 47.4456
L533.862 47.3709
L534.027 47.2598
L534.138 47.1903
L534.314 47.0792
L534.425 47.0121
L534.593 46.901
L534.704 46.8248
L534.873 46.7137
L534.984 46.6442
L535.159 46.5331
L535.271 46.4621
L535.444 46.351
L535.555 46.2813
L535.729 46.1702
L535.84 46.1011
L536.012 45.99
L536.123 45.9226
L536.317 45.8115
L536.428 45.7486
L536.626 45.6375
L536.737 45.5829
L536.959 45.4718
L537.07 45.4156
L537.274 45.3045
L537.385 45.2404
L537.587 45.1293
L537.698 45.0751
L537.941 44.964
L538.053 44.9112
L538.307 44.8001
L538.418 44.7575
L538.688 44.6464
L538.799 44.5937
L539.032 44.4826
L539.143 44.4303
L539.37 44.3192
L539.481 44.2656
L539.722 44.1545
L539.833 44.0954
L540.027 43.9843
L540.138 43.9243
L540.33 43.8132
L540.441 43.7462
L540.635 43.6351
L540.747 43.5788
L540.985 43.4677
L541.096 43.4189
L541.352 43.3078
L541.463 43.2574
L541.678 43.1463
L541.79 43.0945
L542.009 42.9834
L542.12 42.9222
L542.328 42.8111
L542.439 42.7498
L542.631 42.6387
L542.742 42.5757
L542.966 42.4646
L543.077 42.4063
L543.283 42.2952
L543.394 42.2385
L543.613 42.1274
L543.724 42.0697
L543.948 41.9586
L544.059 41.9072
L544.294 41.7961
L544.405 41.7477
L544.661 41.6366
L544.772 41.5879
L545.019 41.4768
L545.13 41.4347
L545.394 41.3236
L545.505 41.279
L545.774 41.1679
L545.885 41.1153
L546.104 41.0042
L546.215 40.9433
L546.431 40.8322
L546.542 40.7742
L546.749 40.6631
L546.86 40.5994
L547.061 40.4883
L547.172 40.4216
L547.253 40.3723
L547.253 40.3723" style="fill:none;stroke:#0000ff;stroke-width:5.0;"/>
   </g>
   <g id="matplotlib.axis_1">
    <g id="xtick_1">
     <g id="line2d_2">
      <path d="
M166.275 413.28
L166.275 7.2" style="fill:none;stroke:#000000;stroke-dasharray:1.000000,3.000000;stroke-dashoffset:0.0;stroke-linecap:butt;stroke-width:0.5;"/>
     </g>
     <g id="line2d_3">
      <defs>
       <path d="
M0 0
L0 -4" id="md5f451688f"/>
      </defs>
      <g>
       <use style="stroke:#000000;stroke-linecap:butt;stroke-width:0.5;" x="166.274966994" xlink:href="#md5f451688f" y="359.628473474"/>
      </g>
     </g>
     <g id="text_1">
      <!-- 5 -->
      <defs>
       <path d="
M10.7969 72.9062
L49.5156 72.9062
L49.5156 64.5938
L19.8281 64.5938
L19.8281 46.7344
Q21.9688 47.4688 24.1094 47.8281
Q26.2656 48.1875 28.4219 48.1875
Q40.625 48.1875 47.75 41.5
Q54.8906 34.8125 54.8906 23.3906
Q54.8906 11.625 47.5625 5.09375
Q40.2344 -1.42188 26.9062 -1.42188
Q22.3125 -1.42188 17.5469 -0.640625
Q12.7969 0.140625 7.71875 1.70312
L7.71875 11.625
Q12.1094 9.23438 16.7969 8.0625
Q21.4844 6.89062 26.7031 6.89062
Q35.1562 6.89062 40.0781 11.3281
Q45.0156 15.7656 45.0156 23.3906
Q45.0156 31 40.0781 35.4375
Q35.1562 39.8906 26.7031 39.8906
Q22.75 39.8906 18.8125 39.0156
Q14.8906 38.1406 10.7969 36.2812
z
" id="BitstreamVeraSans-Roman-35"/>
      </defs>
      <g transform="translate(160.614341994 381.125973474)scale(0.24 -0.24)">
       <use xlink:href="#BitstreamVeraSans-Roman-35"/>
      </g>
     </g>
    </g>
    <g id="xtick_2">
     <g id="line2d_4">
      <path d="
M308.212 413.28
L308.212 7.2" style="fill:none;stroke:#000000;stroke-dasharray:1.000000,3.000000;stroke-dashoffset:0.0;stroke-linecap:butt;stroke-width:0.5;"/>
     </g>
     <g id="line2d_5">
      <defs>
       <path d="
M0 0
L0 -4" id="md5f451688f"/>
      </defs>
      <g>
       <use style="stroke:#000000;stroke-linecap:butt;stroke-width:0.5;" x="308.211797093" xlink:href="#md5f451688f" y="359.628473474"/>
      </g>
     </g>
     <g id="text_2">
      <!-- 10 -->
      <defs>
       <path d="
M31.7812 66.4062
Q24.1719 66.4062 20.3281 58.9062
Q16.5 51.4219 16.5 36.375
Q16.5 21.3906 20.3281 13.8906
Q24.1719 6.39062 31.7812 6.39062
Q39.4531 6.39062 43.2812 13.8906
Q47.125 21.3906 47.125 36.375
Q47.125 51.4219 43.2812 58.9062
Q39.4531 66.4062 31.7812 66.4062
M31.7812 74.2188
Q44.0469 74.2188 50.5156 64.5156
Q56.9844 54.8281 56.9844 36.375
Q56.9844 17.9688 50.5156 8.26562
Q44.0469 -1.42188 31.7812 -1.42188
Q19.5312 -1.42188 13.0625 8.26562
Q6.59375 17.9688 6.59375 36.375
Q6.59375 54.8281 13.0625 64.5156
Q19.5312 74.2188 31.7812 74.2188" id="BitstreamVeraSans-Roman-30"/>
       <path d="
M12.4062 8.29688
L28.5156 8.29688
L28.5156 63.9219
L10.9844 60.4062
L10.9844 69.3906
L28.4219 72.9062
L38.2812 72.9062
L38.2812 8.29688
L54.3906 8.29688
L54.3906 0
L12.4062 0
z
" id="BitstreamVeraSans-Roman-31"/>
      </defs>
      <g transform="translate(295.056797093 381.440973474)scale(0.24 -0.24)">
       <use xlink:href="#BitstreamVeraSans-Roman-31"/>
       <use x="63.623046875" xlink:href="#BitstreamVeraSans-Roman-30"/>
      </g>
     </g>
    </g>
    <g id="xtick_3">
     <g id="line2d_6">
      <path d="
M450.149 413.28
L450.149 7.2" style="fill:none;stroke:#000000;stroke-dasharray:1.000000,3.000000;stroke-dashoffset:0.0;stroke-linecap:butt;stroke-width:0.5;"/>
     </g>
     <g id="line2d_7">
      <defs>
       <path d="
M0 0
L0 -4" id="md5f451688f"/>
      </defs>
      <g>
       <use style="stroke:#000000;stroke-linecap:butt;stroke-width:0.5;" x="450.148627192" xlink:href="#md5f451688f" y="359.628473474"/>
      </g>
     </g>
     <g id="text_3">
      <!-- 15 -->
      <g transform="translate(437.244877192 381.125973474)scale(0.24 -0.24)">
       <use xlink:href="#BitstreamVeraSans-Roman-31"/>
       <use x="63.623046875" xlink:href="#BitstreamVeraSans-Roman-35"/>
      </g>
     </g>
    </g>
    <g id="xtick_4">
     <g id="line2d_8">
      <defs>
       <path d="
M0 0
L0 -2" id="m29d21b0dfa"/>
      </defs>
      <g>
       <use style="stroke:#000000;stroke-linecap:butt;stroke-width:0.5;" x="52.725502915" xlink:href="#m29d21b0dfa" y="359.628473474"/>
      </g>
     </g>
    </g>
    <g id="xtick_5">
     <g id="line2d_9">
      <defs>
       <path d="
M0 0
L0 -2" id="m29d21b0dfa"/>
      </defs>
      <g>
       <use style="stroke:#000000;stroke-linecap:butt;stroke-width:0.5;" x="81.1128689348" xlink:href="#m29d21b0dfa" y="359.628473474"/>
      </g>
     </g>
    </g>
    <g id="xtick_6">
     <g id="line2d_10">
      <defs>
       <path d="
M0 0
L0 -2" id="m29d21b0dfa"/>
      </defs>
      <g>
       <use style="stroke:#000000;stroke-linecap:butt;stroke-width:0.5;" x="109.500234955" xlink:href="#m29d21b0dfa" y="359.628473474"/>
      </g>
     </g>
    </g>
    <g id="xtick_7">
     <g id="line2d_11">
      <defs>
       <path d="
M0 0
L0 -2" id="m29d21b0dfa"/>
      </defs>
      <g>
       <use style="stroke:#000000;stroke-linecap:butt;stroke-width:0.5;" x="137.887600974" xlink:href="#m29d21b0dfa" y="359.628473474"/>
      </g>
     </g>
    </g>
    <g id="xtick_8">
     <g id="line2d_12">
      <defs>
       <path d="
M0 0
L0 -2" id="m29d21b0dfa"/>
      </defs>
      <g>
       <use style="stroke:#000000;stroke-linecap:butt;stroke-width:0.5;" x="194.662333014" xlink:href="#m29d21b0dfa" y="359.628473474"/>
      </g>
     </g>
    </g>
    <g id="xtick_9">
     <g id="line2d_13">
      <defs>
       <path d="
M0 0
L0 -2" id="m29d21b0dfa"/>
      </defs>
      <g>
       <use style="stroke:#000000;stroke-linecap:butt;stroke-width:0.5;" x="223.049699034" xlink:href="#m29d21b0dfa" y="359.628473474"/>
      </g>
     </g>
    </g>
    <g id="xtick_10">
     <g id="line2d_14">
      <defs>
       <path d="
M0 0
L0 -2" id="m29d21b0dfa"/>
      </defs>
      <g>
       <use style="stroke:#000000;stroke-linecap:butt;stroke-width:0.5;" x="251.437065053" xlink:href="#m29d21b0dfa" y="359.628473474"/>
      </g>
     </g>
    </g>
    <g id="xtick_11">
     <g id="line2d_15">
      <defs>
       <path d="
M0 0
L0 -2" id="m29d21b0dfa"/>
      </defs>
      <g>
       <use style="stroke:#000000;stroke-linecap:butt;stroke-width:0.5;" x="279.824431073" xlink:href="#m29d21b0dfa" y="359.628473474"/>
      </g>
     </g>
    </g>
    <g id="xtick_12">
     <g id="line2d_16">
      <defs>
       <path d="
M0 0
L0 -2" id="m29d21b0dfa"/>
      </defs>
      <g>
       <use style="stroke:#000000;stroke-linecap:butt;stroke-width:0.5;" x="336.599163113" xlink:href="#m29d21b0dfa" y="359.628473474"/>
      </g>
     </g>
    </g>
    <g id="xtick_13">
     <g id="line2d_17">
      <defs>
       <path d="
M0 0
L0 -2" id="m29d21b0dfa"/>
      </defs>
      <g>
       <use style="stroke:#000000;stroke-linecap:butt;stroke-width:0.5;" x="364.986529133" xlink:href="#m29d21b0dfa" y="359.628473474"/>
      </g>
     </g>
    </g>
    <g id="xtick_14">
     <g id="line2d_18">
      <defs>
       <path d="
M0 0
L0 -2" id="m29d21b0dfa"/>
      </defs>
      <g>
       <use style="stroke:#000000;stroke-linecap:butt;stroke-width:0.5;" x="393.373895152" xlink:href="#m29d21b0dfa" y="359.628473474"/>
      </g>
     </g>
    </g>
    <g id="xtick_15">
     <g id="line2d_19">
      <defs>
       <path d="
M0 0
L0 -2" id="m29d21b0dfa"/>
      </defs>
      <g>
       <use style="stroke:#000000;stroke-linecap:butt;stroke-width:0.5;" x="421.761261172" xlink:href="#m29d21b0dfa" y="359.628473474"/>
      </g>
     </g>
    </g>
    <g id="xtick_16">
     <g id="line2d_20">
      <defs>
       <path d="
M0 0
L0 -2" id="m29d21b0dfa"/>
      </defs>
      <g>
       <use style="stroke:#000000;stroke-linecap:butt;stroke-width:0.5;" x="478.535993212" xlink:href="#m29d21b0dfa" y="359.628473474"/>
      </g>
     </g>
    </g>
    <g id="xtick_17">
     <g id="line2d_21">
      <defs>
       <path d="
M0 0
L0 -2" id="m29d21b0dfa"/>
      </defs>
      <g>
       <use style="stroke:#000000;stroke-linecap:butt;stroke-width:0.5;" x="506.923359231" xlink:href="#m29d21b0dfa" y="359.628473474"/>
      </g>
     </g>
    </g>
   </g>
   <g id="matplotlib.axis_2">
    <g id="ytick_1">
     <g id="line2d_22">
      <path d="
M33.95 359.628
L557.317 359.628" style="fill:none;stroke:#000000;stroke-dasharray:1.000000,3.000000;stroke-dashoffset:0.0;stroke-linecap:butt;stroke-width:0.5;"/>
     </g>
     <g id="line2d_23">
      <defs>
       <path d="
M0 0
L4 0" id="m84d09b389c"/>
      </defs>
      <g>
       <use style="stroke:#000000;stroke-linecap:butt;stroke-width:0.5;" x="23.95" xlink:href="#m84d09b389c" y="359.628473474"/>
      </g>
     </g>
     <g id="text_4">
      <!-- 0 -->
      <g transform="translate(7.85625 368.364098474)scale(0.24 -0.24)">
       <use xlink:href="#BitstreamVeraSans-Roman-30"/>
      </g>
     </g>
    </g>
    <g id="ytick_2">
     <g id="line2d_24">
      <path d="
M33.95 283.738
L557.317 283.738" style="fill:none;stroke:#000000;stroke-dasharray:1.000000,3.000000;stroke-dashoffset:0.0;stroke-linecap:butt;stroke-width:0.5;"/>
     </g>
     <g id="line2d_25">
      <defs>
       <path d="
M0 0
L4 0" id="m84d09b389c"/>
      </defs>
      <g>
       <use style="stroke:#000000;stroke-linecap:butt;stroke-width:0.5;" x="23.95" xlink:href="#m84d09b389c" y="283.738232819"/>
      </g>
     </g>
     <g id="text_5">
      <!-- 1 -->
      <g transform="translate(9.5325 292.486982819)scale(0.24 -0.24)">
       <use xlink:href="#BitstreamVeraSans-Roman-31"/>
      </g>
     </g>
    </g>
    <g id="ytick_3">
     <g id="line2d_26">
      <path d="
M33.95 207.848
L557.317 207.848" style="fill:none;stroke:#000000;stroke-dasharray:1.000000,3.000000;stroke-dashoffset:0.0;stroke-linecap:butt;stroke-width:0.5;"/>
     </g>
     <g id="line2d_27">
      <defs>
       <path d="
M0 0
L4 0" id="m84d09b389c"/>
      </defs>
      <g>
       <use style="stroke:#000000;stroke-linecap:butt;stroke-width:0.5;" x="23.95" xlink:href="#m84d09b389c" y="207.847992164"/>
      </g>
     </g>
     <g id="text_6">
      <!-- 2 -->
      <defs>
       <path d="
M19.1875 8.29688
L53.6094 8.29688
L53.6094 0
L7.32812 0
L7.32812 8.29688
Q12.9375 14.1094 22.625 23.8906
Q32.3281 33.6875 34.8125 36.5312
Q39.5469 41.8438 41.4219 45.5312
Q43.3125 49.2188 43.3125 52.7812
Q43.3125 58.5938 39.2344 62.25
Q35.1562 65.9219 28.6094 65.9219
Q23.9688 65.9219 18.8125 64.3125
Q13.6719 62.7031 7.8125 59.4219
L7.8125 69.3906
Q13.7656 71.7812 18.9375 73
Q24.125 74.2188 28.4219 74.2188
Q39.75 74.2188 46.4844 68.5469
Q53.2188 62.8906 53.2188 53.4219
Q53.2188 48.9219 51.5312 44.8906
Q49.8594 40.875 45.4062 35.4062
Q44.1875 33.9844 37.6406 27.2188
Q31.1094 20.4531 19.1875 8.29688" id="BitstreamVeraSans-Roman-32"/>
      </defs>
      <g transform="translate(8.8425 216.754242164)scale(0.24 -0.24)">
       <use xlink:href="#BitstreamVeraSans-Roman-32"/>
      </g>
     </g>
    </g>
    <g id="ytick_4">
     <g id="line2d_28">
      <path d="
M33.95 131.958
L557.317 131.958" style="fill:none;stroke:#000000;stroke-dasharray:1.000000,3.000000;stroke-dashoffset:0.0;stroke-linecap:butt;stroke-width:0.5;"/>
     </g>
     <g id="line2d_29">
      <defs>
       <path d="
M0 0
L4 0" id="m84d09b389c"/>
      </defs>
      <g>
       <use style="stroke:#000000;stroke-linecap:butt;stroke-width:0.5;" x="23.95" xlink:href="#m84d09b389c" y="131.957751508"/>
      </g>
     </g>
     <g id="text_7">
      <!-- 3 -->
      <defs>
       <path d="
M40.5781 39.3125
Q47.6562 37.7969 51.625 33
Q55.6094 28.2188 55.6094 21.1875
Q55.6094 10.4062 48.1875 4.48438
Q40.7656 -1.42188 27.0938 -1.42188
Q22.5156 -1.42188 17.6562 -0.515625
Q12.7969 0.390625 7.625 2.20312
L7.625 11.7188
Q11.7188 9.32812 16.5938 8.10938
Q21.4844 6.89062 26.8125 6.89062
Q36.0781 6.89062 40.9375 10.5469
Q45.7969 14.2031 45.7969 21.1875
Q45.7969 27.6406 41.2812 31.2656
Q36.7656 34.9062 28.7188 34.9062
L20.2188 34.9062
L20.2188 43.0156
L29.1094 43.0156
Q36.375 43.0156 40.2344 45.9219
Q44.0938 48.8281 44.0938 54.2969
Q44.0938 59.9062 40.1094 62.9062
Q36.1406 65.9219 28.7188 65.9219
Q24.6562 65.9219 20.0156 65.0312
Q15.375 64.1562 9.8125 62.3125
L9.8125 71.0938
Q15.4375 72.6562 20.3438 73.4375
Q25.25 74.2188 29.5938 74.2188
Q40.8281 74.2188 47.3594 69.1094
Q53.9062 64.0156 53.9062 55.3281
Q53.9062 49.2656 50.4375 45.0938
Q46.9688 40.9219 40.5781 39.3125" id="BitstreamVeraSans-Roman-33"/>
      </defs>
      <g transform="translate(8.43375 140.693376508)scale(0.24 -0.24)">
       <use xlink:href="#BitstreamVeraSans-Roman-33"/>
      </g>
     </g>
    </g>
    <g id="ytick_5">
     <g id="line2d_30">
      <path d="
M33.95 56.0675
L557.317 56.0675" style="fill:none;stroke:#000000;stroke-dasharray:1.000000,3.000000;stroke-dashoffset:0.0;stroke-linecap:butt;stroke-width:0.5;"/>
     </g>
     <g id="line2d_31">
      <defs>
       <path d="
M0 0
L4 0" id="m84d09b389c"/>
      </defs>
      <g>
       <use style="stroke:#000000;stroke-linecap:butt;stroke-width:0.5;" x="23.95" xlink:href="#m84d09b389c" y="56.067510853"/>
      </g>
     </g>
     <g id="text_8">
      <!-- 4 -->
      <defs>
       <path d="
M37.7969 64.3125
L12.8906 25.3906
L37.7969 25.3906
z

M35.2031 72.9062
L47.6094 72.9062
L47.6094 25.3906
L58.0156 25.3906
L58.0156 17.1875
L47.6094 17.1875
L47.6094 0
L37.7969 0
L37.7969 17.1875
L4.89062 17.1875
L4.89062 26.7031
z
" id="BitstreamVeraSans-Roman-34"/>
      </defs>
      <g transform="translate(7.2 64.816260853)scale(0.24 -0.24)">
       <use xlink:href="#BitstreamVeraSans-Roman-34"/>
      </g>
     </g>
    </g>
    <g id="ytick_6">
     <g id="line2d_32">
      <defs>
       <path d="
M0 0
L2 0" id="m493bd5120e"/>
      </defs>
      <g>
       <use style="stroke:#000000;stroke-linecap:butt;stroke-width:0.5;" x="23.95" xlink:href="#m493bd5120e" y="405.162617868"/>
      </g>
     </g>
    </g>
    <g id="ytick_7">
     <g id="line2d_33">
      <defs>
       <path d="
M0 0
L2 0" id="m493bd5120e"/>
      </defs>
      <g>
       <use style="stroke:#000000;stroke-linecap:butt;stroke-width:0.5;" x="23.95" xlink:href="#m493bd5120e" y="389.984569737"/>
      </g>
     </g>
    </g>
    <g id="ytick_8">
     <g id="line2d_34">
      <defs>
       <path d="
M0 0
L2 0" id="m493bd5120e"/>
      </defs>
      <g>
       <use style="stroke:#000000;stroke-linecap:butt;stroke-width:0.5;" x="23.95" xlink:href="#m493bd5120e" y="374.806521605"/>
      </g>
     </g>
    </g>
    <g id="ytick_9">
     <g id="line2d_35">
      <defs>
       <path d="
M0 0
L2 0" id="m493bd5120e"/>
      </defs>
      <g>
       <use style="stroke:#000000;stroke-linecap:butt;stroke-width:0.5;" x="23.95" xlink:href="#m493bd5120e" y="344.450425343"/>
      </g>
     </g>
    </g>
    <g id="ytick_10">
     <g id="line2d_36">
      <defs>
       <path d="
M0 0
L2 0" id="m493bd5120e"/>
      </defs>
      <g>
       <use style="stroke:#000000;stroke-linecap:butt;stroke-width:0.5;" x="23.95" xlink:href="#m493bd5120e" y="329.272377212"/>
      </g>
     </g>
    </g>
    <g id="ytick_11">
     <g id="line2d_37">
      <defs>
       <path d="
M0 0
L2 0" id="m493bd5120e"/>
      </defs>
      <g>
       <use style="stroke:#000000;stroke-linecap:butt;stroke-width:0.5;" x="23.95" xlink:href="#m493bd5120e" y="314.094329081"/>
      </g>
     </g>
    </g>
    <g id="ytick_12">
     <g id="line2d_38">
      <defs>
       <path d="
M0 0
L2 0" id="m493bd5120e"/>
      </defs>
      <g>
       <use style="stroke:#000000;stroke-linecap:butt;stroke-width:0.5;" x="23.95" xlink:href="#m493bd5120e" y="298.91628095"/>
      </g>
     </g>
    </g>
    <g id="ytick_13">
     <g id="line2d_39">
      <defs>
       <path d="
M0 0
L2 0" id="m493bd5120e"/>
      </defs>
      <g>
       <use style="stroke:#000000;stroke-linecap:butt;stroke-width:0.5;" x="23.95" xlink:href="#m493bd5120e" y="268.560184688"/>
      </g>
     </g>
    </g>
    <g id="ytick_14">
     <g id="line2d_40">
      <defs>
       <path d="
M0 0
L2 0" id="m493bd5120e"/>
      </defs>
      <g>
       <use style="stroke:#000000;stroke-linecap:butt;stroke-width:0.5;" x="23.95" xlink:href="#m493bd5120e" y="253.382136557"/>
      </g>
     </g>
    </g>
    <g id="ytick_15">
     <g id="line2d_41">
      <defs>
       <path d="
M0 0
L2 0" id="m493bd5120e"/>
      </defs>
      <g>
       <use style="stroke:#000000;stroke-linecap:butt;stroke-width:0.5;" x="23.95" xlink:href="#m493bd5120e" y="238.204088426"/>
      </g>
     </g>
    </g>
    <g id="ytick_16">
     <g id="line2d_42">
      <defs>
       <path d="
M0 0
L2 0" id="m493bd5120e"/>
      </defs>
      <g>
       <use style="stroke:#000000;stroke-linecap:butt;stroke-width:0.5;" x="23.95" xlink:href="#m493bd5120e" y="223.026040295"/>
      </g>
     </g>
    </g>
    <g id="ytick_17">
     <g id="line2d_43">
      <defs>
       <path d="
M0 0
L2 0" id="m493bd5120e"/>
      </defs>
      <g>
       <use style="stroke:#000000;stroke-linecap:butt;stroke-width:0.5;" x="23.95" xlink:href="#m493bd5120e" y="192.669944033"/>
      </g>
     </g>
    </g>
    <g id="ytick_18">
     <g id="line2d_44">
      <defs>
       <path d="
M0 0
L2 0" id="m493bd5120e"/>
      </defs>
      <g>
       <use style="stroke:#000000;stroke-linecap:butt;stroke-width:0.5;" x="23.95" xlink:href="#m493bd5120e" y="177.491895902"/>
      </g>
     </g>
    </g>
    <g id="ytick_19">
     <g id="line2d_45">
      <defs>
       <path d="
M0 0
L2 0" id="m493bd5120e"/>
      </defs>
      <g>
       <use style="stroke:#000000;stroke-linecap:butt;stroke-width:0.5;" x="23.95" xlink:href="#m493bd5120e" y="162.31384777"/>
      </g>
     </g>
    </g>
    <g id="ytick_20">
     <g id="line2d_46">
      <defs>
       <path d="
M0 0
L2 0" id="m493bd5120e"/>
      </defs>
      <g>
       <use style="stroke:#000000;stroke-linecap:butt;stroke-width:0.5;" x="23.95" xlink:href="#m493bd5120e" y="147.135799639"/>
      </g>
     </g>
    </g>
    <g id="ytick_21">
     <g id="line2d_47">
      <defs>
       <path d="
M0 0
L2 0" id="m493bd5120e"/>
      </defs>
      <g>
       <use style="stroke:#000000;stroke-linecap:butt;stroke-width:0.5;" x="23.95" xlink:href="#m493bd5120e" y="116.779703377"/>
      </g>
     </g>
    </g>
    <g id="ytick_22">
     <g id="line2d_48">
      <defs>
       <path d="
M0 0
L2 0" id="m493bd5120e"/>
      </defs>
      <g>
       <use style="stroke:#000000;stroke-linecap:butt;stroke-width:0.5;" x="23.95" xlink:href="#m493bd5120e" y="101.601655246"/>
      </g>
     </g>
    </g>
    <g id="ytick_23">
     <g id="line2d_49">
      <defs>
       <path d="
M0 0
L2 0" id="m493bd5120e"/>
      </defs>
      <g>
       <use style="stroke:#000000;stroke-linecap:butt;stroke-width:0.5;" x="23.95" xlink:href="#m493bd5120e" y="86.4236071151"/>
      </g>
     </g>
    </g>
    <g id="ytick_24">
     <g id="line2d_50">
      <defs>
       <path d="
M0 0
L2 0" id="m493bd5120e"/>
      </defs>
      <g>
       <use style="stroke:#000000;stroke-linecap:butt;stroke-width:0.5;" x="23.95" xlink:href="#m493bd5120e" y="71.245558984"/>
      </g>
     </g>
    </g>
    <g id="ytick_25">
     <g id="line2d_51">
      <defs>
       <path d="
M0 0
L2 0" id="m493bd5120e"/>
      </defs>
      <g>
       <use style="stroke:#000000;stroke-linecap:butt;stroke-width:0.5;" x="23.95" xlink:href="#m493bd5120e" y="40.8894627219"/>
      </g>
     </g>
    </g>
    <g id="ytick_26">
     <g id="line2d_52">
      <defs>
       <path d="
M0 0
L2 0" id="m493bd5120e"/>
      </defs>
      <g>
       <use style="stroke:#000000;stroke-linecap:butt;stroke-width:0.5;" x="23.95" xlink:href="#m493bd5120e" y="25.7114145908"/>
      </g>
     </g>
    </g>
   </g>
   <g id="patch_3">
    <path d="
M33.95 359.628
L557.317 359.628" style="fill:none;stroke:#000000;stroke-width:0.8;"/>
   </g>
   <g id="patch_4">
    <path d="
M23.95 413.28
L23.95 7.2" style="fill:none;stroke:#000000;stroke-width:0.8;"/>
   </g>
  </g>
 </g>
 <defs>
  <clipPath id="pecc2b5f51a">
   <rect height="406.08" width="523.3675" x="33.95" y="7.2"/>
  </clipPath>
 </defs>
</svg>
