<?xml version="1.0" encoding="utf-8" standalone="no"?>
<!DOCTYPE svg PUBLIC "-//W3C//DTD SVG 1.1//EN"
  "http://www.w3.org/Graphics/SVG/1.1/DTD/svg11.dtd">
<!-- Created with matplotlib (http://matplotlib.sourceforge.net/) -->
<svg height="419pt" version="1.1" viewBox="0 0 564 419" width="564pt" xmlns="http://www.w3.org/2000/svg" xmlns:xlink="http://www.w3.org/1999/xlink">
 <defs>
  <style type="text/css">
*{stroke-linecap:square;stroke-linejoin:round;}
  </style>
 </defs>
 <g id="figure_1">
  <g id="patch_1">
   <path d="
M-4.44089e-16 419.439
L564.499 419.439
L564.499 0
L-4.44089e-16 0
z
" style="fill:#ffffff;"/>
  </g>
  <g id="axes_1">
   <g id="patch_2">
    <path d="
M64.7562 412.239
L557.299 412.239
L557.299 8.51291
L64.7562 8.51291
z
" style="fill:#ffffff;"/>
   </g>
   <g id="line2d_1">
    <path clip-path="url(#p2fe29bff6c)" d="
M74.2282 16.2769
L85.0604 16.2769
L85.0604 16.2769
L85.0604 16.2769
L98.7073 16.2769
L98.7073 39.5529
L107.696 39.5529
L107.696 62.5724
L119.771 62.5724
L119.771 98.1943
L124.234 98.1943
L124.234 112.888
L131.401 112.888
L131.401 125.041
L134.372 125.041
L134.372 131.965
L139.477 131.965
L139.477 146.62
L145.669 146.62
L145.669 165.961
L147.451 165.961
L147.451 172.101
L152.178 172.101
L152.178 189.889
L154.92 189.889
L154.92 197.257
L156.193 197.257
L156.193 201.227
L158.569 201.227
L158.569 209.6
L161.779 209.6
L161.779 221.698
L164.644 221.698
L164.644 229.944
L165.534 229.944
L165.534 231.886
L168.041 231.886
L168.041 238.266
L169.59 238.266
L169.59 242.677
L170.332 242.677
L170.332 245.058
L172.442 245.058
L172.442 250.547
L173.762 250.547
L173.762 254.363
L175.626 254.363
L175.626 260.266
L177.926 260.266
L177.926 267.998
L179.005 267.998
L179.005 270.994
L179.529 270.994
L179.529 272.615
L180.547 272.615
L180.547 275.287
L181.042 275.287
L181.042 276.743
L182.005 276.743
L182.005 279.87
L185.125 279.87
L185.125 288.201
L185.953 288.201
L185.953 290.554
L187.15 290.554
L187.15 294.249
L187.537 294.249
L187.537 295.281
L189.393 295.281
L189.393 300.651
L189.749 300.651
L189.749 301.759
L190.79 301.759
L190.79 304.587
L191.792 304.587
L191.792 306.897
L192.44 306.897
L192.44 308.547
L193.383 308.547
L193.383 310.593
L194.294 310.593
L194.294 312.227
L194.591 312.227
L194.591 312.658
L196.027 312.658
L196.027 314.248
L196.305 314.248
L196.305 314.624
L196.854 314.624
L196.854 315.508
L197.123 315.508
L197.123 315.86
L198.688 315.86
L198.688 318.249
L200.165 318.249
L200.165 320.765
L200.64 320.765
L200.64 321.416
L200.875 321.416
L200.875 321.794
L201.337 321.794
L201.337 322.652
L202.017 322.652
L202.017 323.707
L202.239 323.707
L202.239 324.104
L203.325 324.104
L203.325 326.267
L203.956 326.267
L203.956 327.642
L204.573 327.642
L204.573 329.108
L205.176 329.108
L205.176 330.361
L205.373 330.361
L205.373 330.814
L205.959 330.814
L205.959 331.995
L206.342 331.995
L206.342 332.662
L206.531 332.662
L206.531 333.034
L207.459 333.034
L207.459 334.595
L208.706 334.595
L208.706 336.315
L209.051 336.315
L209.051 336.697
L209.223 336.697
L209.223 336.922
L209.562 336.922
L209.562 337.441
L210.717 337.441
L210.717 339.406
L211.196 339.406
L211.196 340.302
L211.978 340.302
L211.978 341.894
L212.131 341.894
L212.131 342.168
L212.436 342.168
L212.436 342.642
L212.886 342.642
L212.886 343.237
L213.475 343.237
L213.475 343.872
L213.908 343.872
L213.908 344.238
L214.334 344.238
L214.334 344.678
L214.615 344.678
L214.615 344.904
L215.03 344.904
L215.03 345.318
L215.574 345.318
L215.574 345.736
L215.842 345.736
L215.842 345.991
L216.369 345.991
L216.369 346.379
L217.015 346.379
L217.015 346.962
L217.142 346.962
L217.142 347.1
L217.769 347.1
L217.769 347.645
L218.26 347.726
L218.26 348.034
L218.503 348.034
L218.503 348.281
L218.862 348.281
L218.862 348.572
L219.334 348.572
L219.334 349.034
L219.567 349.034
L219.567 349.302
L219.912 349.412
L219.912 349.672
L220.59 349.672
L220.59 350.298
L221.033 350.298
L221.033 350.614
L221.251 350.614
L221.251 350.727
L221.683 350.727
L221.683 351.023
L221.896 351.023
L221.896 351.205
L222.213 351.205
L222.213 351.527
L222.836 351.527
L222.938 352.391
L223.842 352.391
L223.842 353.406
L224.137 353.406
L224.137 353.677
L224.621 353.677
L224.621 354.195
L224.907 354.195
L224.907 354.447
L225.19 354.447
L225.284 354.853
L225.563 354.853
L225.563 355.231
L226.022 355.231
L226.022 355.765
L226.294 355.765
L226.294 356.121
L226.563 356.121
L226.652 356.628
L226.917 356.628
L226.917 357.009
L227.18 357.009
L227.18 357.425
L227.354 357.425
L227.44 357.805
L227.953 357.805
L227.953 358.678
L228.373 358.678
L228.456 359.45
L228.622 359.45
L228.622 359.749
L228.869 359.749
L228.869 360.229
L229.113 360.229
L229.194 360.894
L229.675 360.894
L229.675 361.88
L229.833 361.88
L229.833 362.177
L230.069 362.177
L230.069 362.651
L230.38 362.651
L230.38 363.223
L230.764 363.223
L230.764 363.978
L231.067 363.978
L231.067 364.521
L231.441 364.521
L231.441 365.239
L231.736 365.239
L231.736 365.754
L231.956 365.754
L231.956 366.101
L232.174 366.101
L232.174 366.409
L232.318 366.409
L232.318 366.59
L232.604 366.59
L232.604 366.905
L232.817 366.905
L232.817 367.167
L232.958 367.167
L232.958 367.359
L233.237 367.359
L233.237 367.778
L233.376 367.778
L233.376 367.964
L233.855 367.964
L233.855 368.668
L234.192 368.668
L234.192 369.107
L234.592 369.107
L234.658 369.627
L234.985 369.627
L235.05 369.944
L235.244 370.051
L235.244 370.095
L235.564 370.095
L235.564 370.265
L236.006 370.265
L236.006 370.554
L236.194 370.651
L236.194 370.708
L236.318 370.708
L236.318 370.837
L236.748 370.837
L236.748 371.338
L236.869 371.338
L236.93 371.531
L237.051 371.531
L237.051 371.685
L237.646 371.685
L237.646 372.513
L237.764 372.513
L237.764 372.689
L237.997 372.689
L237.997 373.068
L238.287 373.068
L238.287 373.495
L238.516 373.495
L238.516 373.859
L238.629 373.859
L238.629 374.053
L238.799 374.053
L238.799 374.364
L238.968 374.364
L238.968 374.693
L239.358 374.693
L239.468 375.705
L239.632 375.705
L239.632 376.039
L239.796 376.039
L239.796 376.347
L240.013 376.347
L240.013 376.726
L240.174 376.726
L240.174 376.985
L240.493 376.985
L240.599 377.727
L240.757 377.727
L240.809 378.129
L241.07 378.129
L241.121 378.724
L241.276 378.724
L241.276 378.98
L241.532 378.98
L241.583 379.529
L241.836 379.529
L241.886 380.127
L242.037 380.127
L242.037 380.388
L242.483 380.388
L242.581 381.395
L242.727 381.484
L242.727 381.648
L242.873 381.648
L242.873 381.875
L243.018 381.875
L243.018 382.116
L243.21 382.116
L243.21 382.41
L243.353 382.41
L243.353 382.646
L243.496 382.646
L243.496 382.861
L244.011 382.861
L244.058 383.639
L244.288 383.639
L244.288 384.004
L244.471 384.004
L244.471 384.271
L244.699 384.271
L244.699 384.572
L244.834 384.572
L244.834 384.766
L244.969 384.766
L244.969 384.974
L245.147 384.974
L245.147 385.267
L245.413 385.267
L245.501 385.792
L245.632 385.792
L245.632 385.989
L245.763 385.989
L245.806 386.234
L245.936 386.234
L245.936 386.411
L246.194 386.411
L246.194 386.731
L246.407 386.731
L246.407 386.968
L246.786 386.968
L246.828 387.387
L247.036 387.487
L247.078 387.699
L247.202 387.699
L247.284 387.974
L247.407 388.036
L247.407 388.168
L247.651 388.168
L247.691 388.597
L247.812 388.597
L247.812 388.802
L248.488 388.802
L248.488 389.858
L248.606 389.858
L248.606 390.052
L248.723 390.052
L248.723 390.231
L248.878 390.231
L248.878 390.45
L249.224 390.45
L249.224 390.897
L249.414 390.897
L249.414 391.16
L249.678 391.16
L249.753 391.596
L249.866 391.65
L249.866 391.751
L249.977 391.751
L249.977 391.914
L250.125 391.914
L250.236 392.244
L250.346 392.244
L250.346 392.378
L250.565 392.378
L250.565 392.621
L250.746 392.621
L250.854 392.888
L251.068 392.952
L251.068 393.001
L251.281 393.001
L251.281 393.119
L251.493 393.119
L251.493 393.256
L251.841 393.332
L251.945 393.518
L252.254 393.615
L252.322 393.706
L252.525 393.789
L252.525 393.822
L252.76 393.822
L252.827 393.996
L253.159 394.104
L253.258 394.137
L253.746 394.198
L253.842 394.318
L255.159 394.422
L255.25 394.47
L259.13 394.58
L259.156 394.585
L260.442 394.477
L260.542 394.429
L261.062 394.35
L261.062 394.266
L261.475 394.161
L261.572 394.089
L261.93 393.999
L261.93 393.961
L262.284 393.87
L262.354 393.811
L263.385 393.702
L263.453 393.661
L263.765 393.582
L263.831 393.519
L264.957 393.626
L265.062 393.693
L265.564 393.772
L265.564 393.867
L265.955 393.967
L265.996 394
L266.858 394.109
L266.918 394.133
L267.941 394.234
L267.941 394.285
L268.504 394.37
L268.578 394.435
L268.946 394.523
L269.055 394.606
L269.595 394.709
L269.702 394.824
L270.037 394.932
L270.142 395.024
L270.385 395.128
L270.385 395.156
L270.643 395.262
L270.66 395.318
L271.017 395.411
L271.068 395.567
L271.353 395.666
L271.403 395.757
L271.751 395.864
L271.816 396.019
L272.142 396.067
L272.207 396.227
L272.384 396.31
L272.4 396.352
L272.624 396.423
L272.719 396.526
L273.003 396.611
L273.05 396.728
L273.206 396.728
L273.206 396.85
L273.392 396.939
L273.485 397.067
L273.653 397.067
L273.715 397.255
L273.927 397.365
L274.033 397.52
L274.154 397.566
L274.259 397.759
L274.423 397.86
L274.527 398.069
L274.645 398.15
L274.748 398.291
L274.909 398.337
L275.011 398.588
L275.142 398.622
L275.214 398.833
L275.344 398.907
L275.444 399.12
L275.644 399.169
L275.7 399.424
L275.87 399.504
L275.94 399.681
L276.066 399.681
L276.15 399.887
L276.275 399.989
L276.359 400.101
L276.538 400.212
L276.538 400.261
L276.688 400.364
L276.77 400.453
L276.906 400.502
L276.933 400.6
L277.068 400.6
L277.068 400.718
L277.216 400.718
L277.31 400.919
L277.469 401.021
L277.469 401.055
L277.615 401.055
L277.668 401.217
L277.812 401.306
L277.904 401.413
L278.125 401.501
L278.202 401.627
L278.446 401.72
L278.446 401.821
L278.599 401.821
L278.701 402.023
L278.853 402.092
L278.928 402.194
L279.116 402.272
L279.203 402.388
L279.389 402.388
L279.463 402.584
L279.671 402.678
L279.781 402.801
L279.963 402.879
L279.975 402.932
L280.18 403.039
L280.216 403.086
L280.395 403.168
L280.478 403.258
L280.796 403.367
L280.831 403.409
L281.237 403.513
L281.318 403.581
L281.615 403.664
L281.717 403.734
L282.066 403.844
L282.166 403.983
L282.498 404.084
L282.586 404.222
L282.815 404.316
L282.912 404.381
L284.671 404.272
L284.712 404.261
L285.213 404.166
L285.302 404.089
L285.656 404.005
L285.714 403.956
L286.388 403.846
L286.473 403.811
L286.803 403.703
L286.831 403.674
L287.138 403.567
L287.248 403.513
L287.587 403.402
L287.686 403.367
L288.037 403.278
L288.064 403.228
L288.33 403.119
L288.418 403.065
L288.751 402.96
L288.838 402.917
L289.199 402.818
L289.302 402.722
L289.497 402.624
L289.607 402.556
L289.833 402.457
L289.933 402.379
L290.182 402.271
L290.223 402.236
L290.477 402.127
L290.575 402.074
L290.817 401.986
L290.914 401.912
L291.201 401.824
L291.312 401.748
L291.571 401.641
L291.626 401.609
L291.852 401.523
L291.921 401.451
L292.114 401.346
L292.206 401.295
L292.502 401.195
L292.54 401.165
L292.944 401.059
L293.041 401.019
L293.438 400.917
L293.547 400.875
L296.076 400.768
L296.175 400.719
L296.438 400.609
L296.535 400.551
L296.749 400.453
L296.845 400.371
L297.069 400.27
L297.171 400.21
L297.43 400.135
L297.512 400.026
L297.73 399.916
L297.829 399.798
L297.977 399.7
L298.088 399.62
L298.363 399.524
L298.472 399.454
L298.951 399.363
L299.04 399.308
L301.931 399.2
L302.032 399.188
L304.516 399.293
L304.602 399.327
L304.97 399.433
L305.074 399.457
L305.616 399.561
L305.727 399.595
L306.061 399.697
L306.166 399.74
L307.275 399.636
L307.362 399.586
L307.586 399.481
L307.685 399.422
L307.97 399.312
L308.068 399.279
L308.324 399.185
L308.424 399.112
L308.611 399.003
L308.71 398.945
L308.968 398.837
L309.078 398.736
L309.269 398.636
L309.369 398.565
L309.55 398.467
L309.629 398.388
L309.812 398.286
L309.918 398.191
L310.118 398.089
L310.224 398.014
L310.452 397.908
L310.533 397.849
L310.752 397.739
L310.855 397.629
L311.048 397.518
L311.15 397.439
L311.311 397.338
L311.412 397.239
L311.568 397.133
L311.675 397.026
L311.811 396.916
L311.917 396.837
L312.085 396.728
L312.19 396.628
L312.363 396.519
L312.463 396.423
L312.624 396.329
L312.731 396.184
L312.865 396.08
L312.953 395.982
L313.065 395.876
L313.163 395.768
L313.274 395.66
L313.378 395.534
L313.496 395.424
L313.595 395.285
L313.698 395.183
L313.79 395.047
L313.882 394.938
L313.984 394.788
L314.089 394.728
L314.196 394.494
L314.277 394.407
L314.38 394.219
L314.47 394.112
L314.559 393.927
L314.629 393.927
L314.738 393.622
L314.823 393.557
L314.924 393.326
L315.003 393.278
L315.11 393.019
L315.178 392.976
L315.265 392.754
L315.339 392.658
L315.426 392.487
L315.515 392.413
L315.608 392.196
L315.697 392.086
L315.792 391.912
L315.886 391.815
L315.996 391.608
L316.09 391.517
L316.193 391.341
L316.305 391.231
L316.41 391.031
L316.491 390.934
L316.595 390.758
L316.675 390.648
L316.778 390.492
L316.867 390.407
L316.976 390.252
L317.093 390.15
L317.184 390.04
L317.294 389.952
L317.381 389.845
L317.532 389.752
L317.615 389.651
L317.754 389.551
L317.85 389.455
L318.011 389.356
L318.121 389.273
L318.323 389.172
L318.401 389.098
L318.595 388.988
L318.689 388.908
L318.858 388.803
L318.968 388.716
L319.111 388.624
L319.214 388.517
L319.336 388.416
L319.446 388.299
L319.587 388.193
L319.691 388.109
L319.83 388.048
L319.935 387.871
L320.043 387.766
L320.14 387.654
L320.25 387.551
L320.354 387.424
L320.477 387.313
L320.577 387.193
L320.714 387.095
L320.825 386.967
L320.955 386.868
L321.028 386.773
L321.158 386.678
L321.269 386.55
L321.428 386.448
L321.538 386.361
L321.675 386.254
L321.779 386.167
L321.93 386.069
L322.028 385.967
L322.177 385.881
L322.254 385.794
L322.418 385.684
L322.529 385.581
L322.661 385.475
L322.763 385.374
L322.894 385.273
L322.994 385.171
L323.131 385.073
L323.203 384.997
L323.363 384.89
L323.47 384.816
L323.689 384.705
L323.8 384.641
L324.024 384.53
L324.121 384.457
L324.283 384.358
L324.39 384.269
L324.591 384.166
L324.7 384.084
L324.935 383.977
L325.044 383.918
L325.309 383.807
L325.411 383.765
L325.641 383.654
L325.744 383.577
L325.907 383.469
L326.013 383.398
L326.281 383.304
L326.377 383.222
L326.681 383.119
L326.681 383.051
L326.978 382.947
L327.082 382.845
L327.46 382.745
L327.562 382.698
L328.064 382.599
L328.154 382.533
L328.541 382.444
L328.541 382.415
L328.936 382.321
L329.035 382.244
L329.33 382.155
L329.43 382.07
L329.727 381.982
L329.822 381.892
L330.121 381.783
L330.221 381.666
L330.512 381.555
L330.612 381.459
L331.005 381.352
L331.103 381.282
L331.594 381.192
L331.69 381.162
L332.58 381.086
L332.674 381.019
L333.09 380.926
L333.175 380.854
L333.864 380.746
L333.954 380.74
L335.631 380.63
L335.631 380.602
L336.035 380.511
L336.128 380.474
L336.81 380.394
L336.918 380.306
L337.216 380.213
L337.301 380.112
L337.513 380.058
L337.596 379.945
L337.813 379.882
L337.9 379.714
L338.095 379.65
L338.189 379.52
L338.482 379.423
L338.581 379.333
L338.878 379.244
L338.988 379.146
L339.273 379.04
L339.368 378.949
L339.68 378.859
L339.766 378.775
L340.061 378.68
L340.154 378.592
L340.355 378.519
L340.46 378.361
L340.648 378.292
L340.748 378.16
L340.978 378.101
L341.044 377.995
L341.342 377.891
L341.447 377.81
L341.83 377.705
L341.926 377.631
L342.323 377.522
L342.431 377.461
L343.108 377.361
L343.108 377.339
L343.602 377.24
L343.702 377.203
L344.197 377.103
L344.289 377.001
L344.485 376.939
L344.585 376.811
L344.783 376.743
L344.883 376.574
L345.077 376.486
L345.175 376.34
L345.373 376.268
L345.473 376.086
L345.668 375.99
L345.765 375.823
L345.961 375.756
L346.063 375.63
L346.261 375.57
L346.357 375.455
L346.562 375.384
L346.651 375.221
L346.851 375.128
L346.945 374.911
L347.053 374.911
L347.149 374.657
L347.248 374.657
L347.339 374.429
L347.437 374.429
L347.539 374.197
L347.74 374.087
L347.832 373.876
L348.031 373.766
L348.13 373.536
L348.229 373.536
L348.327 373.279
L348.428 373.279
L348.526 373.026
L348.626 373.026
L348.718 372.791
L348.916 372.681
L349.02 372.464
L349.21 372.365
L349.311 372.165
L349.505 372.07
L349.605 371.865
L349.703 371.865
L349.802 371.632
L349.903 371.632
L349.999 371.397
L350.201 371.287
L350.293 371.069
L350.39 371.069
L350.49 370.821
L350.594 370.821
L350.691 370.577
L350.784 370.577
L350.884 370.347
L350.981 370.347
L351.08 370.118
L351.183 370.118
L351.276 369.889
L351.374 369.889
L351.473 369.668
L351.67 369.566
L351.773 369.371
L351.971 369.281
L352.064 369.128
L352.272 369.057
L352.364 368.91
L352.557 368.834
L352.656 368.652
L352.854 368.547
L352.951 368.353
L353.151 368.263
L353.247 368.096
L353.444 367.993
L353.539 367.796
L353.739 367.685
L353.839 367.459
L354.04 367.358
L354.13 367.176
L354.331 367.078
L354.429 366.865
L354.623 366.754
L354.734 366.491
L354.824 366.491
L354.92 366.263
L355.017 366.263
L355.121 366.029
L355.311 365.92
L355.415 365.695
L355.512 365.695
L355.608 365.462
L355.707 365.462
L355.804 365.234
L356.003 365.124
L356.099 364.898
L356.202 364.898
L356.298 364.671
L356.493 364.57
L356.594 364.367
L356.791 364.261
L356.886 364.054
L356.996 364.054
L357.087 363.853
L357.279 363.765
L357.38 363.595
L357.575 363.522
L357.677 363.399
L357.873 363.337
L357.971 363.203
L358.166 363.125
L358.268 362.963
L358.465 362.89
L358.566 362.735
L358.759 362.663
L358.857 362.52
L359.055 362.446
L359.15 362.285
L359.35 362.194
L359.448 362.022
L359.642 361.93
L359.741 361.736
L359.94 361.63
L360.046 361.413
L360.233 361.315
L360.338 361.1
L360.527 361.018
L360.626 360.859
L360.831 360.771
L360.922 360.61
L361.119 360.522
L361.217 360.345
L361.414 360.241
L361.517 360.028
L361.713 359.933
L361.814 359.735
L362.005 359.644
L362.109 359.444
L362.304 359.337
L362.397 359.123
L362.498 359.123
L362.596 358.868
L362.697 358.868
L362.792 358.6
L362.891 358.6
L362.99 358.307
L363.089 358.307
L363.188 357.982
L363.284 357.982
L363.384 357.629
L363.48 357.629
L363.579 357.286
L363.678 357.286
L363.776 356.938
L363.875 356.938
L363.98 356.593
L364.073 356.593
L364.173 356.279
L364.272 356.279
L364.369 355.975
L364.466 355.975
L364.564 355.682
L364.668 355.682
L364.76 355.404
L364.862 355.404
L364.962 355.136
L365.153 355.026
L365.252 354.808
L365.354 354.808
L365.452 354.592
L365.647 354.488
L365.747 354.261
L365.844 354.261
L365.941 354.019
L366.042 354.019
L366.144 353.75
L366.238 353.75
L366.335 353.498
L366.44 353.498
L366.534 353.239
L366.633 353.239
L366.731 353.01
L366.927 352.908
L367.03 352.697
L367.22 352.6
L367.324 352.391
L367.516 352.287
L367.618 352.069
L367.811 351.972
L367.91 351.771
L368.109 351.664
L368.206 351.476
L368.403 351.394
L368.501 351.25
L368.699 351.18
L368.796 351.059
L368.993 350.997
L369.093 350.871
L369.387 350.776
L369.484 350.664
L369.685 350.602
L369.78 350.488
L370.076 350.386
L370.177 350.264
L370.468 350.154
L370.57 350.047
L370.865 349.954
L370.963 349.832
L371.159 349.762
L371.256 349.634
L371.551 349.526
L371.65 349.428
L371.847 349.37
L371.948 349.244
L372.145 349.178
L372.24 349.044
L372.437 348.977
L372.537 348.862
L372.832 348.778
L372.929 348.688
L373.226 348.579
L373.326 348.458
L373.622 348.351
L373.717 348.24
L374.011 348.142
L374.11 348.042
L374.504 347.954
L374.604 347.907
L375.589 347.806
L375.685 347.766
L376.969 347.851
L377.067 347.947
L377.457 348.044
L377.555 348.08
L378.344 348.173
L378.442 348.216
L378.835 348.325
L378.934 348.404
L379.327 348.504
L379.425 348.587
L379.721 348.668
L379.819 348.756
L380.213 348.848
L380.311 348.918
L380.606 348.999
L380.706 349.072
L381.098 349.167
L381.197 349.239
L383.066 349.146
L383.165 349.082
L383.756 348.992
L383.855 348.937
L384.348 348.843
L384.445 348.8
L385.527 348.697
L385.628 348.656
L386.315 348.548
L386.413 348.528
L387.3 348.42
L387.397 348.36
L387.99 348.25
L388.086 348.244
L390.448 348.141
L390.549 348.115
L393.402 348.202
L393.5 348.278
L393.795 348.377
L393.893 348.487
L394.09 348.548
L394.188 348.674
L394.386 348.736
L394.486 348.861
L394.681 348.918
L394.779 349.026
L395.075 349.128
L395.175 349.24
L395.372 349.295
L395.468 349.397
L395.862 349.504
L395.961 349.537
L396.355 349.625
L396.453 349.709
L396.847 349.817
L396.945 349.873
L397.535 349.978
L397.633 350.018
L398.125 350.122
L398.223 350.211
L398.519 350.321
L398.619 350.453
L398.814 350.523
L398.913 350.65
L399.11 350.709
L399.209 350.857
L399.405 350.934
L399.503 351.089
L399.7 351.168
L399.799 351.348
L399.995 351.441
L400.094 351.651
L400.29 351.76
L400.389 351.979
L400.488 351.979
L400.586 352.206
L400.685 352.206
L400.784 352.428
L400.98 352.522
L401.078 352.693
L401.275 352.784
L401.373 352.969
L401.57 353.065
L401.669 353.258
L401.866 353.34
L401.964 353.505
L402.161 353.593
L402.259 353.783
L402.456 353.879
L402.555 354.067
L402.751 354.167
L402.85 354.373
L403.046 354.479
L403.145 354.669
L403.343 354.766
L403.441 354.982
L403.638 355.089
L403.736 355.296
L403.933 355.404
L404.031 355.626
L404.228 355.736
L404.326 355.967
L404.424 355.967
L404.523 356.193
L404.72 356.298
L404.818 356.483
L405.016 356.584
L405.113 356.799
L405.212 356.799
L405.31 357.028
L405.508 357.123
L405.607 357.31
L405.802 357.4
L405.902 357.617
L406.098 357.722
L406.196 357.936
L406.393 358.035
L406.491 358.233
L406.688 358.334
L406.786 358.515
L406.983 358.609
L407.082 358.816
L407.28 358.913
L407.377 359.091
L407.575 359.187
L407.673 359.365
L407.869 359.442
L407.967 359.573
L408.165 359.637
L408.263 359.756
L408.46 359.824
L408.558 359.983
L408.755 360.068
L408.854 360.241
L409.05 360.318
L409.149 360.463
L409.346 360.531
L409.444 360.652
L409.641 360.712
L409.739 360.824
L409.936 360.885
L410.034 360.995
L410.33 361.098
L410.428 361.228
L410.625 361.3
L410.724 361.442
L410.921 361.509
L411.019 361.619
L411.314 361.71
L411.413 361.768
L412.2 361.874
L412.298 361.925
L412.692 362.032
L412.792 362.108
L413.184 362.2
L413.283 362.241
L413.775 362.337
L413.873 362.394
L414.365 362.492
L414.463 362.567
L414.759 362.655
L414.857 362.763
L415.054 362.831
L415.153 362.978
L415.35 363.057
L415.448 363.208
L415.645 363.286
L415.743 363.467
L415.94 363.562
L416.039 363.751
L416.236 363.843
L416.334 364.022
L416.53 364.111
L416.63 364.298
L416.826 364.395
L416.924 364.578
L417.122 364.668
L417.219 364.817
L417.416 364.88
L417.515 365.003
L417.712 365.068
L417.811 365.193
L418.007 365.249
L418.105 365.359
L418.302 365.42
L418.4 365.562
L418.597 365.625
L418.695 365.755
L418.892 365.831
L418.991 365.977
L419.189 366.059
L419.286 366.23
L419.483 366.316
L419.582 366.491
L419.779 366.569
L419.877 366.721
L420.074 366.799
L420.172 366.944
L420.369 367.018
L420.468 367.185
L420.664 367.273
L420.763 367.444
L420.96 367.518
L421.058 367.657
L421.255 367.716
L421.353 367.826
L421.55 367.887
L421.648 368.016
L421.944 368.119
L422.042 368.207
L422.338 368.28
L422.436 368.363
L422.731 368.455
L422.83 368.531
L423.223 368.633
L423.322 368.704
L423.715 368.801
L423.814 368.852
L424.207 368.936
L424.306 369.001
L424.699 369.101
L424.798 369.157
L425.29 369.267
L425.389 369.348
L425.684 369.439
L425.782 369.556
L425.979 369.615
L426.077 369.719
L426.373 369.801
L426.471 369.874
L426.865 369.962
L426.963 370.044
L427.455 370.152
L427.554 370.203
L428.341 370.31
L428.439 370.336
L428.931 370.413
L429.03 370.499
L429.325 370.586
L429.424 370.664
L429.817 370.761
L429.916 370.792
L430.703 370.898
L430.802 370.916
L432.967 370.827
L433.065 370.767
L433.459 370.681
L433.558 370.629
L434.148 370.531
L434.247 370.482
L434.935 370.373
L435.034 370.334
L435.821 370.242
L435.92 370.199
L436.314 370.107
L436.412 370.032
L436.707 369.956
L436.805 369.881
L437.101 369.794
L437.2 369.705
L437.494 369.605
L437.593 369.521
L437.888 369.441
L437.987 369.368
L438.282 369.275
L438.38 369.171
L438.675 369.073
L438.774 368.987
L439.069 368.895
L439.168 368.801
L439.463 368.696
L439.561 368.566
L439.758 368.499
L439.857 368.371
L440.053 368.312
L440.152 368.191
L440.349 368.133
L440.447 368.028
L440.743 367.949
L440.841 367.883
L441.333 367.781
L441.431 367.752
L442.613 367.849
L442.711 367.883
L448.223 367.788
L448.321 367.744
L449.797 367.637
L449.896 367.588
L451.963 367.69
L452.061 367.724
L452.553 367.827
L452.652 367.866
L453.734 367.964
L453.833 368.032
L454.128 368.129
L454.226 368.237
L454.522 368.315
L454.62 368.396
L454.915 368.474
L455.014 368.555
L455.407 368.664
L455.506 368.716
L455.998 368.818
L456.096 368.867
L456.785 368.976
L456.884 368.987
L458.36 369.095
L458.459 369.143
L459.049 369.249
L459.148 369.284
L459.738 369.377
L459.836 369.432
L460.23 369.526
L460.329 369.582
L460.919 369.687
L461.017 369.732
L462.002 369.835
L462.1 369.876
L462.691 369.976
L462.789 370.016
L463.183 370.1
L463.281 370.181
L463.577 370.29
L463.675 370.391
L463.97 370.493
L464.069 370.63
L464.265 370.696
L464.364 370.84
L464.561 370.915
L464.659 371.063
L464.856 371.133
L464.954 371.275
L465.151 371.349
L465.25 371.497
L465.447 371.574
L465.545 371.727
L465.742 371.807
L465.84 371.955
L466.037 372.028
L466.135 372.138
L466.431 372.241
L466.529 372.358
L466.726 372.417
L466.825 372.523
L467.218 372.626
L467.317 372.702
L467.71 372.811
L467.809 372.861
L468.891 372.967
L468.99 372.986
L470.171 373.096
L470.269 373.146
L470.761 373.239
L470.86 373.297
L471.155 373.371
L471.253 373.448
L471.549 373.528
L471.647 373.612
L471.942 373.693
L472.041 373.757
L472.533 373.854
L472.631 373.883
L476.47 373.981
L476.568 374.024
L477.06 374.13
L477.159 374.187
L477.553 374.289
L477.651 374.379
L478.045 374.479
L478.143 374.555
L478.635 374.663
L478.734 374.734
L479.029 374.803
L479.127 374.888
L479.521 374.998
L479.62 375.051
L480.308 375.162
L480.407 375.177
L484.049 375.287
L484.147 375.335
L484.639 375.442
L484.738 375.475
L485.131 375.566
L485.23 375.64
L485.623 375.748
L485.722 375.838
L485.919 375.893
L486.017 376.007
L486.312 376.109
L486.411 376.21
L486.706 376.291
L486.804 376.358
L487.1 376.443
L487.198 376.524
L487.592 376.621
L487.69 376.675
L488.182 376.782
L488.281 376.845
L488.773 376.95
L488.871 377.008
L489.265 377.105
L489.363 377.156
L489.856 377.263
L489.954 377.339
L490.249 377.416
L490.348 377.49
L490.741 377.571
L490.84 377.623
L491.332 377.705
L491.43 377.765
L492.021 377.873
L492.119 377.894
L494.383 377.788
L494.481 377.781
L495.367 377.695
L495.466 377.641
L496.155 377.537
L496.253 377.49
L496.745 377.379
L496.844 377.344
L497.631 377.238
L497.729 377.191
L498.025 377.12
L498.123 377.039
L498.418 376.956
L498.517 376.865
L498.812 376.778
L498.91 376.705
L499.206 376.629
L499.304 376.533
L499.599 376.436
L499.698 376.344
L499.993 376.261
L500.092 376.174
L500.387 376.064
L500.485 375.956
L500.781 375.851
L500.879 375.75
L501.174 375.643
L501.273 375.559
L501.568 375.476
L501.666 375.395
L501.962 375.302
L502.06 375.212
L502.355 375.101
L502.454 375.004
L502.749 374.908
L502.847 374.797
L503.044 374.734
L503.143 374.599
L503.339 374.535
L503.438 374.412
L503.635 374.351
L503.733 374.233
L503.93 374.167
L504.028 374.044
L504.324 373.937
L504.422 373.843
L504.717 373.753
L504.816 373.668
L505.111 373.573
L505.21 373.467
L505.505 373.37
L505.603 373.281
L505.997 373.178
L506.095 373.135
L506.883 373.039
L506.981 373.006
L507.473 372.909
L507.572 372.866
L508.261 372.766
L508.359 372.742
L509.343 372.637
L509.442 372.595
L510.032 372.486
L510.131 372.418
L510.524 372.319
L510.623 372.23
L510.918 372.127
L511.017 372.017
L511.213 371.959
L511.312 371.842
L511.509 371.783
L511.607 371.68
L511.902 371.583
L512.001 371.483
L512.198 371.425
L512.296 371.305
L512.493 371.24
L512.591 371.096
L512.788 371.017
L512.887 370.836
L513.083 370.74
L513.182 370.549
L513.379 370.458
L513.477 370.276
L513.674 370.19
L513.772 370.009
L513.969 369.909
L514.068 369.708
L514.264 369.613
L514.363 369.406
L514.56 369.297
L514.658 369.079
L514.757 369.079
L514.855 368.845
L514.953 368.845
L515.052 368.608
L515.15 368.608
L515.249 368.379
L515.347 368.379
L515.446 368.153
L515.642 368.054
L515.741 367.862
L515.938 367.771
L516.036 367.596
L516.233 367.514
L516.331 367.37
L516.528 367.298
L516.627 367.142
L516.823 367.058
L516.922 366.895
L517.119 366.813
L517.217 366.644
L517.414 366.552
L517.512 366.368
L517.709 366.278
L517.808 366.108
L518.005 366.019
L518.103 365.847
L518.3 365.759
L518.398 365.6
L518.595 365.523
L518.694 365.371
L518.89 365.294
L518.989 365.142
L519.186 365.072
L519.284 364.935
L519.481 364.867
L519.579 364.73
L519.776 364.663
L519.875 364.532
L520.071 364.467
L520.17 364.312
L520.367 364.234
L520.465 364.063
L520.662 363.981
L520.76 363.817
L520.957 363.736
L521.056 363.574
L521.253 363.491
L521.351 363.318
L521.548 363.235
L521.646 363.074
L521.843 362.997
L521.941 362.856
L522.138 362.788
L522.237 362.66
L522.434 362.6
L522.532 362.476
L522.729 362.412
L522.827 362.294
L523.024 362.24
L523.123 362.128
L523.418 362.02
L523.516 361.916
L523.812 361.807
L523.91 361.705
L524.205 361.6
L524.304 361.48
L524.5 361.421
L524.599 361.287
L524.796 361.209
L524.894 361.06
L525.091 360.981
L525.189 360.824
L525.386 360.749
L525.485 360.6
L525.682 360.522
L525.78 360.383
L525.977 360.308
L526.075 360.152
L526.272 360.07
L526.371 359.9
L526.567 359.811
L526.666 359.634
L526.863 359.545
L526.961 359.338
L527.158 359.23
L527.256 359.004
L527.355 359.004
L527.453 358.774
L527.552 358.774
L527.65 358.536
L527.748 358.536
L527.847 358.285
L527.945 358.285
L528.044 358.034
L528.142 358.034
L528.241 357.773
L528.339 357.773
L528.437 357.489
L528.536 357.489
L528.634 357.202
L528.733 357.202
L528.831 356.926
L528.93 356.926
L529.028 356.65
L529.126 356.65
L529.225 356.391
L529.323 356.391
L529.422 356.142
L529.52 356.142
L529.618 355.894
L529.717 355.894
L529.815 355.664
L530.012 355.556
L530.111 355.331
L530.209 355.331
L530.307 355.109
L530.504 355.015
L530.603 354.829
L530.8 354.726
L530.898 354.515
L530.996 354.515
L531.095 354.278
L531.193 354.278
L531.292 354.033
L531.39 354.033
L531.489 353.784
L531.587 353.784
L531.685 353.541
L531.784 353.541
L531.882 353.294
L531.981 353.294
L532.079 353.054
L532.177 353.054
L532.276 352.825
L532.374 352.825
L532.473 352.6
L532.571 352.6
L532.67 352.367
L532.768 352.367
L532.866 352.143
L533.063 352.035
L533.162 351.831
L533.359 351.732
L533.457 351.528
L533.654 351.425
L533.752 351.235
L533.949 351.142
L534.048 350.956
L534.244 350.863
L534.343 350.712
L534.54 350.639
L534.638 350.469
L534.835 350.386
L534.933 350.225
L535.13 350.137
L535.229 349.952
L535.425 349.861
L535.524 349.683
L535.721 349.597
L535.819 349.432
L536.016 349.349
L536.114 349.175
L536.311 349.096
L536.41 348.939
L536.607 348.853
L536.705 348.679
L536.902 348.598
L537 348.429
L537.197 348.342
L537.295 348.171
L537.492 348.089
L537.591 347.939
L537.788 347.872
L537.886 347.749
L538.083 347.682
L538.181 347.558
L538.378 347.498
L538.477 347.38
L538.673 347.321
L538.772 347.212
L539.067 347.124
L539.166 347.018
L539.362 346.956
L539.461 346.829
L539.658 346.764
L539.756 346.642
L539.953 346.583
L540.051 346.477
L540.347 346.386
L540.445 346.291
L540.74 346.207
L540.839 346.132
L541.134 346.044
L541.232 345.962
L541.725 345.864
L541.823 345.828
L542.315 345.727
L542.414 345.687
L543.201 345.579
L543.299 345.537
L544.579 345.446
L544.677 345.393
L544.973 345.315
L545.071 345.234
L545.366 345.138
L545.465 345.049
L545.76 344.953
L545.858 344.85
L546.055 344.795
L546.154 344.679
L546.35 344.618
L546.449 344.501
L546.744 344.405
L546.843 344.319
L547.138 344.228
L547.236 344.145
L547.63 344.035
L547.728 343.956
L547.827 343.956
L547.827 343.925" style="fill:none;stroke:#0000ff;stroke-width:5.0;"/>
   </g>
   <g id="matplotlib.axis_1">
    <g id="xtick_1">
     <g id="line2d_2">
      <path d="
M189.288 412.239
L189.288 8.51291" style="fill:none;stroke:#000000;stroke-dasharray:1.000000,3.000000;stroke-dashoffset:0.0;stroke-linecap:butt;stroke-width:0.5;"/>
     </g>
     <g id="line2d_3">
      <defs>
       <path d="
M0 0
L0 -4" id="m3fbe6c24f1"/>
      </defs>
      <g>
       <use style="stroke:#000000;stroke-linecap:butt;stroke-width:0.5;" x="189.287616689" xlink:href="#m3fbe6c24f1" y="16.276875"/>
      </g>
     </g>
     <g id="text_1">
      <!-- 5 -->
      <defs>
       <path d="
M10.7969 72.9062
L49.5156 72.9062
L49.5156 64.5938
L19.8281 64.5938
L19.8281 46.7344
Q21.9688 47.4688 24.1094 47.8281
Q26.2656 48.1875 28.4219 48.1875
Q40.625 48.1875 47.75 41.5
Q54.8906 34.8125 54.8906 23.3906
Q54.8906 11.625 47.5625 5.09375
Q40.2344 -1.42188 26.9062 -1.42188
Q22.3125 -1.42188 17.5469 -0.640625
Q12.7969 0.140625 7.71875 1.70312
L7.71875 11.625
Q12.1094 9.23438 16.7969 8.0625
Q21.4844 6.89062 26.7031 6.89062
Q35.1562 6.89062 40.0781 11.3281
Q45.0156 15.7656 45.0156 23.3906
Q45.0156 31 40.0781 35.4375
Q35.1562 39.8906 26.7031 39.8906
Q22.75 39.8906 18.8125 39.0156
Q14.8906 38.1406 10.7969 36.2812
z
" id="BitstreamVeraSans-Roman-35"/>
      </defs>
      <g transform="translate(183.626991689 37.774375)scale(0.24 -0.24)">
       <use xlink:href="#BitstreamVeraSans-Roman-35"/>
      </g>
     </g>
    </g>
    <g id="xtick_2">
     <g id="line2d_4">
      <path d="
M322.865 412.239
L322.865 8.51291" style="fill:none;stroke:#000000;stroke-dasharray:1.000000,3.000000;stroke-dashoffset:0.0;stroke-linecap:butt;stroke-width:0.5;"/>
     </g>
     <g id="line2d_5">
      <defs>
       <path d="
M0 0
L0 -4" id="m3fbe6c24f1"/>
      </defs>
      <g>
       <use style="stroke:#000000;stroke-linecap:butt;stroke-width:0.5;" x="322.864732462" xlink:href="#m3fbe6c24f1" y="16.276875"/>
      </g>
     </g>
     <g id="text_2">
      <!-- 10 -->
      <defs>
       <path d="
M31.7812 66.4062
Q24.1719 66.4062 20.3281 58.9062
Q16.5 51.4219 16.5 36.375
Q16.5 21.3906 20.3281 13.8906
Q24.1719 6.39062 31.7812 6.39062
Q39.4531 6.39062 43.2812 13.8906
Q47.125 21.3906 47.125 36.375
Q47.125 51.4219 43.2812 58.9062
Q39.4531 66.4062 31.7812 66.4062
M31.7812 74.2188
Q44.0469 74.2188 50.5156 64.5156
Q56.9844 54.8281 56.9844 36.375
Q56.9844 17.9688 50.5156 8.26562
Q44.0469 -1.42188 31.7812 -1.42188
Q19.5312 -1.42188 13.0625 8.26562
Q6.59375 17.9688 6.59375 36.375
Q6.59375 54.8281 13.0625 64.5156
Q19.5312 74.2188 31.7812 74.2188" id="BitstreamVeraSans-Roman-30"/>
       <path d="
M12.4062 8.29688
L28.5156 8.29688
L28.5156 63.9219
L10.9844 60.4062
L10.9844 69.3906
L28.4219 72.9062
L38.2812 72.9062
L38.2812 8.29688
L54.3906 8.29688
L54.3906 0
L12.4062 0
z
" id="BitstreamVeraSans-Roman-31"/>
      </defs>
      <g transform="translate(309.709732462 38.089375)scale(0.24 -0.24)">
       <use xlink:href="#BitstreamVeraSans-Roman-31"/>
       <use x="63.623046875" xlink:href="#BitstreamVeraSans-Roman-30"/>
      </g>
     </g>
    </g>
    <g id="xtick_3">
     <g id="line2d_6">
      <path d="
M456.442 412.239
L456.442 8.51291" style="fill:none;stroke:#000000;stroke-dasharray:1.000000,3.000000;stroke-dashoffset:0.0;stroke-linecap:butt;stroke-width:0.5;"/>
     </g>
     <g id="line2d_7">
      <defs>
       <path d="
M0 0
L0 -4" id="m3fbe6c24f1"/>
      </defs>
      <g>
       <use style="stroke:#000000;stroke-linecap:butt;stroke-width:0.5;" x="456.441848234" xlink:href="#m3fbe6c24f1" y="16.276875"/>
      </g>
     </g>
     <g id="text_3">
      <!-- 15 -->
      <g transform="translate(443.538098234 37.774375)scale(0.24 -0.24)">
       <use xlink:href="#BitstreamVeraSans-Roman-31"/>
       <use x="63.623046875" xlink:href="#BitstreamVeraSans-Roman-35"/>
      </g>
     </g>
    </g>
    <g id="xtick_4">
     <g id="line2d_8">
      <defs>
       <path d="
M0 0
L0 -2" id="mf0ff38ea95"/>
      </defs>
      <g>
       <use style="stroke:#000000;stroke-linecap:butt;stroke-width:0.5;" x="82.4259240713" xlink:href="#mf0ff38ea95" y="16.276875"/>
      </g>
     </g>
    </g>
    <g id="xtick_5">
     <g id="line2d_9">
      <defs>
       <path d="
M0 0
L0 -2" id="mf0ff38ea95"/>
      </defs>
      <g>
       <use style="stroke:#000000;stroke-linecap:butt;stroke-width:0.5;" x="109.141347226" xlink:href="#mf0ff38ea95" y="16.276875"/>
      </g>
     </g>
    </g>
    <g id="xtick_6">
     <g id="line2d_10">
      <defs>
       <path d="
M0 0
L0 -2" id="mf0ff38ea95"/>
      </defs>
      <g>
       <use style="stroke:#000000;stroke-linecap:butt;stroke-width:0.5;" x="135.85677038" xlink:href="#mf0ff38ea95" y="16.276875"/>
      </g>
     </g>
    </g>
    <g id="xtick_7">
     <g id="line2d_11">
      <defs>
       <path d="
M0 0
L0 -2" id="mf0ff38ea95"/>
      </defs>
      <g>
       <use style="stroke:#000000;stroke-linecap:butt;stroke-width:0.5;" x="162.572193535" xlink:href="#mf0ff38ea95" y="16.276875"/>
      </g>
     </g>
    </g>
    <g id="xtick_8">
     <g id="line2d_12">
      <defs>
       <path d="
M0 0
L0 -2" id="mf0ff38ea95"/>
      </defs>
      <g>
       <use style="stroke:#000000;stroke-linecap:butt;stroke-width:0.5;" x="216.003039844" xlink:href="#mf0ff38ea95" y="16.276875"/>
      </g>
     </g>
    </g>
    <g id="xtick_9">
     <g id="line2d_13">
      <defs>
       <path d="
M0 0
L0 -2" id="mf0ff38ea95"/>
      </defs>
      <g>
       <use style="stroke:#000000;stroke-linecap:butt;stroke-width:0.5;" x="242.718462998" xlink:href="#mf0ff38ea95" y="16.276875"/>
      </g>
     </g>
    </g>
    <g id="xtick_10">
     <g id="line2d_14">
      <defs>
       <path d="
M0 0
L0 -2" id="mf0ff38ea95"/>
      </defs>
      <g>
       <use style="stroke:#000000;stroke-linecap:butt;stroke-width:0.5;" x="269.433886153" xlink:href="#mf0ff38ea95" y="16.276875"/>
      </g>
     </g>
    </g>
    <g id="xtick_11">
     <g id="line2d_15">
      <defs>
       <path d="
M0 0
L0 -2" id="mf0ff38ea95"/>
      </defs>
      <g>
       <use style="stroke:#000000;stroke-linecap:butt;stroke-width:0.5;" x="296.149309307" xlink:href="#mf0ff38ea95" y="16.276875"/>
      </g>
     </g>
    </g>
    <g id="xtick_12">
     <g id="line2d_16">
      <defs>
       <path d="
M0 0
L0 -2" id="mf0ff38ea95"/>
      </defs>
      <g>
       <use style="stroke:#000000;stroke-linecap:butt;stroke-width:0.5;" x="349.580155616" xlink:href="#mf0ff38ea95" y="16.276875"/>
      </g>
     </g>
    </g>
    <g id="xtick_13">
     <g id="line2d_17">
      <defs>
       <path d="
M0 0
L0 -2" id="mf0ff38ea95"/>
      </defs>
      <g>
       <use style="stroke:#000000;stroke-linecap:butt;stroke-width:0.5;" x="376.29557877" xlink:href="#mf0ff38ea95" y="16.276875"/>
      </g>
     </g>
    </g>
    <g id="xtick_14">
     <g id="line2d_18">
      <defs>
       <path d="
M0 0
L0 -2" id="mf0ff38ea95"/>
      </defs>
      <g>
       <use style="stroke:#000000;stroke-linecap:butt;stroke-width:0.5;" x="403.011001925" xlink:href="#mf0ff38ea95" y="16.276875"/>
      </g>
     </g>
    </g>
    <g id="xtick_15">
     <g id="line2d_19">
      <defs>
       <path d="
M0 0
L0 -2" id="mf0ff38ea95"/>
      </defs>
      <g>
       <use style="stroke:#000000;stroke-linecap:butt;stroke-width:0.5;" x="429.726425079" xlink:href="#mf0ff38ea95" y="16.276875"/>
      </g>
     </g>
    </g>
    <g id="xtick_16">
     <g id="line2d_20">
      <defs>
       <path d="
M0 0
L0 -2" id="mf0ff38ea95"/>
      </defs>
      <g>
       <use style="stroke:#000000;stroke-linecap:butt;stroke-width:0.5;" x="483.157271388" xlink:href="#mf0ff38ea95" y="16.276875"/>
      </g>
     </g>
    </g>
    <g id="xtick_17">
     <g id="line2d_21">
      <defs>
       <path d="
M0 0
L0 -2" id="mf0ff38ea95"/>
      </defs>
      <g>
       <use style="stroke:#000000;stroke-linecap:butt;stroke-width:0.5;" x="509.872694543" xlink:href="#mf0ff38ea95" y="16.276875"/>
      </g>
     </g>
    </g>
   </g>
   <g id="matplotlib.axis_2">
    <g id="ytick_1">
     <g id="line2d_22">
      <path d="
M64.7562 391.329
L557.299 391.329" style="fill:none;stroke:#000000;stroke-dasharray:1.000000,3.000000;stroke-dashoffset:0.0;stroke-linecap:butt;stroke-width:0.5;"/>
     </g>
     <g id="line2d_23">
      <defs>
       <path d="
M0 0
L4 0" id="mc91e532072"/>
      </defs>
      <g>
       <use style="stroke:#000000;stroke-linecap:butt;stroke-width:0.5;" x="54.75625" xlink:href="#mc91e532072" y="391.329385408"/>
      </g>
     </g>
     <g id="text_4">
      <!-- -3.5 -->
      <defs>
       <path d="
M40.5781 39.3125
Q47.6562 37.7969 51.625 33
Q55.6094 28.2188 55.6094 21.1875
Q55.6094 10.4062 48.1875 4.48438
Q40.7656 -1.42188 27.0938 -1.42188
Q22.5156 -1.42188 17.6562 -0.515625
Q12.7969 0.390625 7.625 2.20312
L7.625 11.7188
Q11.7188 9.32812 16.5938 8.10938
Q21.4844 6.89062 26.8125 6.89062
Q36.0781 6.89062 40.9375 10.5469
Q45.7969 14.2031 45.7969 21.1875
Q45.7969 27.6406 41.2812 31.2656
Q36.7656 34.9062 28.7188 34.9062
L20.2188 34.9062
L20.2188 43.0156
L29.1094 43.0156
Q36.375 43.0156 40.2344 45.9219
Q44.0938 48.8281 44.0938 54.2969
Q44.0938 59.9062 40.1094 62.9062
Q36.1406 65.9219 28.7188 65.9219
Q24.6562 65.9219 20.0156 65.0312
Q15.375 64.1562 9.8125 62.3125
L9.8125 71.0938
Q15.4375 72.6562 20.3438 73.4375
Q25.25 74.2188 29.5938 74.2188
Q40.8281 74.2188 47.3594 69.1094
Q53.9062 64.0156 53.9062 55.3281
Q53.9062 49.2656 50.4375 45.0938
Q46.9688 40.9219 40.5781 39.3125" id="BitstreamVeraSans-Roman-33"/>
       <path d="
M10.6875 12.4062
L21 12.4062
L21 0
L10.6875 0
z
" id="BitstreamVeraSans-Roman-2e"/>
       <path d="
M4.89062 31.3906
L31.2031 31.3906
L31.2031 23.3906
L4.89062 23.3906
z
" id="BitstreamVeraSans-Roman-2d"/>
      </defs>
      <g transform="translate(7.2 400.065010408)scale(0.24 -0.24)">
       <use xlink:href="#BitstreamVeraSans-Roman-2d"/>
       <use x="36.083984375" xlink:href="#BitstreamVeraSans-Roman-33"/>
       <use x="99.70703125" xlink:href="#BitstreamVeraSans-Roman-2e"/>
       <use x="131.494140625" xlink:href="#BitstreamVeraSans-Roman-35"/>
      </g>
     </g>
    </g>
    <g id="ytick_2">
     <g id="line2d_24">
      <path d="
M64.7562 337.75
L557.299 337.75" style="fill:none;stroke:#000000;stroke-dasharray:1.000000,3.000000;stroke-dashoffset:0.0;stroke-linecap:butt;stroke-width:0.5;"/>
     </g>
     <g id="line2d_25">
      <defs>
       <path d="
M0 0
L4 0" id="mc91e532072"/>
      </defs>
      <g>
       <use style="stroke:#000000;stroke-linecap:butt;stroke-width:0.5;" x="54.75625" xlink:href="#mc91e532072" y="337.75045535"/>
      </g>
     </g>
     <g id="text_5">
      <!-- -3 -->
      <g transform="translate(29.925 346.48608035)scale(0.24 -0.24)">
       <use xlink:href="#BitstreamVeraSans-Roman-2d"/>
       <use x="36.083984375" xlink:href="#BitstreamVeraSans-Roman-33"/>
      </g>
     </g>
    </g>
    <g id="ytick_3">
     <g id="line2d_26">
      <path d="
M64.7562 284.172
L557.299 284.172" style="fill:none;stroke:#000000;stroke-dasharray:1.000000,3.000000;stroke-dashoffset:0.0;stroke-linecap:butt;stroke-width:0.5;"/>
     </g>
     <g id="line2d_27">
      <defs>
       <path d="
M0 0
L4 0" id="mc91e532072"/>
      </defs>
      <g>
       <use style="stroke:#000000;stroke-linecap:butt;stroke-width:0.5;" x="54.75625" xlink:href="#mc91e532072" y="284.171525291"/>
      </g>
     </g>
     <g id="text_6">
      <!-- -2.5 -->
      <defs>
       <path d="
M19.1875 8.29688
L53.6094 8.29688
L53.6094 0
L7.32812 0
L7.32812 8.29688
Q12.9375 14.1094 22.625 23.8906
Q32.3281 33.6875 34.8125 36.5312
Q39.5469 41.8438 41.4219 45.5312
Q43.3125 49.2188 43.3125 52.7812
Q43.3125 58.5938 39.2344 62.25
Q35.1562 65.9219 28.6094 65.9219
Q23.9688 65.9219 18.8125 64.3125
Q13.6719 62.7031 7.8125 59.4219
L7.8125 69.3906
Q13.7656 71.7812 18.9375 73
Q24.125 74.2188 28.4219 74.2188
Q39.75 74.2188 46.4844 68.5469
Q53.2188 62.8906 53.2188 53.4219
Q53.2188 48.9219 51.5312 44.8906
Q49.8594 40.875 45.4062 35.4062
Q44.1875 33.9844 37.6406 27.2188
Q31.1094 20.4531 19.1875 8.29688" id="BitstreamVeraSans-Roman-32"/>
      </defs>
      <g transform="translate(7.2 292.907150291)scale(0.24 -0.24)">
       <use xlink:href="#BitstreamVeraSans-Roman-2d"/>
       <use x="36.083984375" xlink:href="#BitstreamVeraSans-Roman-32"/>
       <use x="99.70703125" xlink:href="#BitstreamVeraSans-Roman-2e"/>
       <use x="131.494140625" xlink:href="#BitstreamVeraSans-Roman-35"/>
      </g>
     </g>
    </g>
    <g id="ytick_4">
     <g id="line2d_28">
      <path d="
M64.7562 230.593
L557.299 230.593" style="fill:none;stroke:#000000;stroke-dasharray:1.000000,3.000000;stroke-dashoffset:0.0;stroke-linecap:butt;stroke-width:0.5;"/>
     </g>
     <g id="line2d_29">
      <defs>
       <path d="
M0 0
L4 0" id="mc91e532072"/>
      </defs>
      <g>
       <use style="stroke:#000000;stroke-linecap:butt;stroke-width:0.5;" x="54.75625" xlink:href="#mc91e532072" y="230.592595233"/>
      </g>
     </g>
     <g id="text_7">
      <!-- -2 -->
      <g transform="translate(30.405 239.498845233)scale(0.24 -0.24)">
       <use xlink:href="#BitstreamVeraSans-Roman-2d"/>
       <use x="36.083984375" xlink:href="#BitstreamVeraSans-Roman-32"/>
      </g>
     </g>
    </g>
    <g id="ytick_5">
     <g id="line2d_30">
      <path d="
M64.7562 177.014
L557.299 177.014" style="fill:none;stroke:#000000;stroke-dasharray:1.000000,3.000000;stroke-dashoffset:0.0;stroke-linecap:butt;stroke-width:0.5;"/>
     </g>
     <g id="line2d_31">
      <defs>
       <path d="
M0 0
L4 0" id="mc91e532072"/>
      </defs>
      <g>
       <use style="stroke:#000000;stroke-linecap:butt;stroke-width:0.5;" x="54.75625" xlink:href="#mc91e532072" y="177.013665175"/>
      </g>
     </g>
     <g id="text_8">
      <!-- -1.5 -->
      <g transform="translate(7.2 185.591790175)scale(0.24 -0.24)">
       <use xlink:href="#BitstreamVeraSans-Roman-2d"/>
       <use x="36.083984375" xlink:href="#BitstreamVeraSans-Roman-31"/>
       <use x="99.70703125" xlink:href="#BitstreamVeraSans-Roman-2e"/>
       <use x="131.494140625" xlink:href="#BitstreamVeraSans-Roman-35"/>
      </g>
     </g>
    </g>
    <g id="ytick_6">
     <g id="line2d_32">
      <path d="
M64.7562 123.435
L557.299 123.435" style="fill:none;stroke:#000000;stroke-dasharray:1.000000,3.000000;stroke-dashoffset:0.0;stroke-linecap:butt;stroke-width:0.5;"/>
     </g>
     <g id="line2d_33">
      <defs>
       <path d="
M0 0
L4 0" id="mc91e532072"/>
      </defs>
      <g>
       <use style="stroke:#000000;stroke-linecap:butt;stroke-width:0.5;" x="54.75625" xlink:href="#mc91e532072" y="123.434735117"/>
      </g>
     </g>
     <g id="text_9">
      <!-- -1 -->
      <g transform="translate(30.2175 132.183485117)scale(0.24 -0.24)">
       <use xlink:href="#BitstreamVeraSans-Roman-2d"/>
       <use x="36.083984375" xlink:href="#BitstreamVeraSans-Roman-31"/>
      </g>
     </g>
    </g>
    <g id="ytick_7">
     <g id="line2d_34">
      <path d="
M64.7562 69.8558
L557.299 69.8558" style="fill:none;stroke:#000000;stroke-dasharray:1.000000,3.000000;stroke-dashoffset:0.0;stroke-linecap:butt;stroke-width:0.5;"/>
     </g>
     <g id="line2d_35">
      <defs>
       <path d="
M0 0
L4 0" id="mc91e532072"/>
      </defs>
      <g>
       <use style="stroke:#000000;stroke-linecap:butt;stroke-width:0.5;" x="54.75625" xlink:href="#mc91e532072" y="69.8558050583"/>
      </g>
     </g>
     <g id="text_10">
      <!-- -0.5 -->
      <g transform="translate(7.2 78.5914300583)scale(0.24 -0.24)">
       <use xlink:href="#BitstreamVeraSans-Roman-2d"/>
       <use x="36.083984375" xlink:href="#BitstreamVeraSans-Roman-30"/>
       <use x="99.70703125" xlink:href="#BitstreamVeraSans-Roman-2e"/>
       <use x="131.494140625" xlink:href="#BitstreamVeraSans-Roman-35"/>
      </g>
     </g>
    </g>
    <g id="ytick_8">
     <g id="line2d_36">
      <path d="
M64.7562 16.2769
L557.299 16.2769" style="fill:none;stroke:#000000;stroke-dasharray:1.000000,3.000000;stroke-dashoffset:0.0;stroke-linecap:butt;stroke-width:0.5;"/>
     </g>
     <g id="line2d_37">
      <defs>
       <path d="
M0 0
L4 0" id="mc91e532072"/>
      </defs>
      <g>
       <use style="stroke:#000000;stroke-linecap:butt;stroke-width:0.5;" x="54.75625" xlink:href="#mc91e532072" y="16.276875"/>
      </g>
     </g>
     <g id="text_11">
      <!-- 0 -->
      <g transform="translate(38.6625 25.0125)scale(0.24 -0.24)">
       <use xlink:href="#BitstreamVeraSans-Roman-30"/>
      </g>
     </g>
    </g>
    <g id="ytick_9">
     <g id="line2d_38">
      <defs>
       <path d="
M0 0
L2 0" id="m0789224b6b"/>
      </defs>
      <g>
       <use style="stroke:#000000;stroke-linecap:butt;stroke-width:0.5;" x="54.75625" xlink:href="#m0789224b6b" y="402.045171419"/>
      </g>
     </g>
    </g>
    <g id="ytick_10">
     <g id="line2d_39">
      <defs>
       <path d="
M0 0
L2 0" id="m0789224b6b"/>
      </defs>
      <g>
       <use style="stroke:#000000;stroke-linecap:butt;stroke-width:0.5;" x="54.75625" xlink:href="#m0789224b6b" y="380.613599396"/>
      </g>
     </g>
    </g>
    <g id="ytick_11">
     <g id="line2d_40">
      <defs>
       <path d="
M0 0
L2 0" id="m0789224b6b"/>
      </defs>
      <g>
       <use style="stroke:#000000;stroke-linecap:butt;stroke-width:0.5;" x="54.75625" xlink:href="#m0789224b6b" y="369.897813384"/>
      </g>
     </g>
    </g>
    <g id="ytick_12">
     <g id="line2d_41">
      <defs>
       <path d="
M0 0
L2 0" id="m0789224b6b"/>
      </defs>
      <g>
       <use style="stroke:#000000;stroke-linecap:butt;stroke-width:0.5;" x="54.75625" xlink:href="#m0789224b6b" y="359.182027373"/>
      </g>
     </g>
    </g>
    <g id="ytick_13">
     <g id="line2d_42">
      <defs>
       <path d="
M0 0
L2 0" id="m0789224b6b"/>
      </defs>
      <g>
       <use style="stroke:#000000;stroke-linecap:butt;stroke-width:0.5;" x="54.75625" xlink:href="#m0789224b6b" y="348.466241361"/>
      </g>
     </g>
    </g>
    <g id="ytick_14">
     <g id="line2d_43">
      <defs>
       <path d="
M0 0
L2 0" id="m0789224b6b"/>
      </defs>
      <g>
       <use style="stroke:#000000;stroke-linecap:butt;stroke-width:0.5;" x="54.75625" xlink:href="#m0789224b6b" y="327.034669338"/>
      </g>
     </g>
    </g>
    <g id="ytick_15">
     <g id="line2d_44">
      <defs>
       <path d="
M0 0
L2 0" id="m0789224b6b"/>
      </defs>
      <g>
       <use style="stroke:#000000;stroke-linecap:butt;stroke-width:0.5;" x="54.75625" xlink:href="#m0789224b6b" y="316.318883326"/>
      </g>
     </g>
    </g>
    <g id="ytick_16">
     <g id="line2d_45">
      <defs>
       <path d="
M0 0
L2 0" id="m0789224b6b"/>
      </defs>
      <g>
       <use style="stroke:#000000;stroke-linecap:butt;stroke-width:0.5;" x="54.75625" xlink:href="#m0789224b6b" y="305.603097315"/>
      </g>
     </g>
    </g>
    <g id="ytick_17">
     <g id="line2d_46">
      <defs>
       <path d="
M0 0
L2 0" id="m0789224b6b"/>
      </defs>
      <g>
       <use style="stroke:#000000;stroke-linecap:butt;stroke-width:0.5;" x="54.75625" xlink:href="#m0789224b6b" y="294.887311303"/>
      </g>
     </g>
    </g>
    <g id="ytick_18">
     <g id="line2d_47">
      <defs>
       <path d="
M0 0
L2 0" id="m0789224b6b"/>
      </defs>
      <g>
       <use style="stroke:#000000;stroke-linecap:butt;stroke-width:0.5;" x="54.75625" xlink:href="#m0789224b6b" y="284.171525291"/>
      </g>
     </g>
    </g>
    <g id="ytick_19">
     <g id="line2d_48">
      <defs>
       <path d="
M0 0
L2 0" id="m0789224b6b"/>
      </defs>
      <g>
       <use style="stroke:#000000;stroke-linecap:butt;stroke-width:0.5;" x="54.75625" xlink:href="#m0789224b6b" y="273.45573928"/>
      </g>
     </g>
    </g>
    <g id="ytick_20">
     <g id="line2d_49">
      <defs>
       <path d="
M0 0
L2 0" id="m0789224b6b"/>
      </defs>
      <g>
       <use style="stroke:#000000;stroke-linecap:butt;stroke-width:0.5;" x="54.75625" xlink:href="#m0789224b6b" y="262.739953268"/>
      </g>
     </g>
    </g>
    <g id="ytick_21">
     <g id="line2d_50">
      <defs>
       <path d="
M0 0
L2 0" id="m0789224b6b"/>
      </defs>
      <g>
       <use style="stroke:#000000;stroke-linecap:butt;stroke-width:0.5;" x="54.75625" xlink:href="#m0789224b6b" y="252.024167256"/>
      </g>
     </g>
    </g>
    <g id="ytick_22">
     <g id="line2d_51">
      <defs>
       <path d="
M0 0
L2 0" id="m0789224b6b"/>
      </defs>
      <g>
       <use style="stroke:#000000;stroke-linecap:butt;stroke-width:0.5;" x="54.75625" xlink:href="#m0789224b6b" y="241.308381245"/>
      </g>
     </g>
    </g>
    <g id="ytick_23">
     <g id="line2d_52">
      <defs>
       <path d="
M0 0
L2 0" id="m0789224b6b"/>
      </defs>
      <g>
       <use style="stroke:#000000;stroke-linecap:butt;stroke-width:0.5;" x="54.75625" xlink:href="#m0789224b6b" y="230.592595233"/>
      </g>
     </g>
    </g>
    <g id="ytick_24">
     <g id="line2d_53">
      <defs>
       <path d="
M0 0
L2 0" id="m0789224b6b"/>
      </defs>
      <g>
       <use style="stroke:#000000;stroke-linecap:butt;stroke-width:0.5;" x="54.75625" xlink:href="#m0789224b6b" y="219.876809221"/>
      </g>
     </g>
    </g>
    <g id="ytick_25">
     <g id="line2d_54">
      <defs>
       <path d="
M0 0
L2 0" id="m0789224b6b"/>
      </defs>
      <g>
       <use style="stroke:#000000;stroke-linecap:butt;stroke-width:0.5;" x="54.75625" xlink:href="#m0789224b6b" y="209.16102321"/>
      </g>
     </g>
    </g>
    <g id="ytick_26">
     <g id="line2d_55">
      <defs>
       <path d="
M0 0
L2 0" id="m0789224b6b"/>
      </defs>
      <g>
       <use style="stroke:#000000;stroke-linecap:butt;stroke-width:0.5;" x="54.75625" xlink:href="#m0789224b6b" y="198.445237198"/>
      </g>
     </g>
    </g>
    <g id="ytick_27">
     <g id="line2d_56">
      <defs>
       <path d="
M0 0
L2 0" id="m0789224b6b"/>
      </defs>
      <g>
       <use style="stroke:#000000;stroke-linecap:butt;stroke-width:0.5;" x="54.75625" xlink:href="#m0789224b6b" y="187.729451186"/>
      </g>
     </g>
    </g>
    <g id="ytick_28">
     <g id="line2d_57">
      <defs>
       <path d="
M0 0
L2 0" id="m0789224b6b"/>
      </defs>
      <g>
       <use style="stroke:#000000;stroke-linecap:butt;stroke-width:0.5;" x="54.75625" xlink:href="#m0789224b6b" y="177.013665175"/>
      </g>
     </g>
    </g>
    <g id="ytick_29">
     <g id="line2d_58">
      <defs>
       <path d="
M0 0
L2 0" id="m0789224b6b"/>
      </defs>
      <g>
       <use style="stroke:#000000;stroke-linecap:butt;stroke-width:0.5;" x="54.75625" xlink:href="#m0789224b6b" y="166.297879163"/>
      </g>
     </g>
    </g>
    <g id="ytick_30">
     <g id="line2d_59">
      <defs>
       <path d="
M0 0
L2 0" id="m0789224b6b"/>
      </defs>
      <g>
       <use style="stroke:#000000;stroke-linecap:butt;stroke-width:0.5;" x="54.75625" xlink:href="#m0789224b6b" y="155.582093151"/>
      </g>
     </g>
    </g>
    <g id="ytick_31">
     <g id="line2d_60">
      <defs>
       <path d="
M0 0
L2 0" id="m0789224b6b"/>
      </defs>
      <g>
       <use style="stroke:#000000;stroke-linecap:butt;stroke-width:0.5;" x="54.75625" xlink:href="#m0789224b6b" y="144.86630714"/>
      </g>
     </g>
    </g>
    <g id="ytick_32">
     <g id="line2d_61">
      <defs>
       <path d="
M0 0
L2 0" id="m0789224b6b"/>
      </defs>
      <g>
       <use style="stroke:#000000;stroke-linecap:butt;stroke-width:0.5;" x="54.75625" xlink:href="#m0789224b6b" y="134.150521128"/>
      </g>
     </g>
    </g>
    <g id="ytick_33">
     <g id="line2d_62">
      <defs>
       <path d="
M0 0
L2 0" id="m0789224b6b"/>
      </defs>
      <g>
       <use style="stroke:#000000;stroke-linecap:butt;stroke-width:0.5;" x="54.75625" xlink:href="#m0789224b6b" y="123.434735117"/>
      </g>
     </g>
    </g>
    <g id="ytick_34">
     <g id="line2d_63">
      <defs>
       <path d="
M0 0
L2 0" id="m0789224b6b"/>
      </defs>
      <g>
       <use style="stroke:#000000;stroke-linecap:butt;stroke-width:0.5;" x="54.75625" xlink:href="#m0789224b6b" y="112.718949105"/>
      </g>
     </g>
    </g>
    <g id="ytick_35">
     <g id="line2d_64">
      <defs>
       <path d="
M0 0
L2 0" id="m0789224b6b"/>
      </defs>
      <g>
       <use style="stroke:#000000;stroke-linecap:butt;stroke-width:0.5;" x="54.75625" xlink:href="#m0789224b6b" y="102.003163093"/>
      </g>
     </g>
    </g>
    <g id="ytick_36">
     <g id="line2d_65">
      <defs>
       <path d="
M0 0
L2 0" id="m0789224b6b"/>
      </defs>
      <g>
       <use style="stroke:#000000;stroke-linecap:butt;stroke-width:0.5;" x="54.75625" xlink:href="#m0789224b6b" y="91.2873770816"/>
      </g>
     </g>
    </g>
    <g id="ytick_37">
     <g id="line2d_66">
      <defs>
       <path d="
M0 0
L2 0" id="m0789224b6b"/>
      </defs>
      <g>
       <use style="stroke:#000000;stroke-linecap:butt;stroke-width:0.5;" x="54.75625" xlink:href="#m0789224b6b" y="80.5715910699"/>
      </g>
     </g>
    </g>
    <g id="ytick_38">
     <g id="line2d_67">
      <defs>
       <path d="
M0 0
L2 0" id="m0789224b6b"/>
      </defs>
      <g>
       <use style="stroke:#000000;stroke-linecap:butt;stroke-width:0.5;" x="54.75625" xlink:href="#m0789224b6b" y="69.8558050583"/>
      </g>
     </g>
    </g>
    <g id="ytick_39">
     <g id="line2d_68">
      <defs>
       <path d="
M0 0
L2 0" id="m0789224b6b"/>
      </defs>
      <g>
       <use style="stroke:#000000;stroke-linecap:butt;stroke-width:0.5;" x="54.75625" xlink:href="#m0789224b6b" y="59.1400190466"/>
      </g>
     </g>
    </g>
    <g id="ytick_40">
     <g id="line2d_69">
      <defs>
       <path d="
M0 0
L2 0" id="m0789224b6b"/>
      </defs>
      <g>
       <use style="stroke:#000000;stroke-linecap:butt;stroke-width:0.5;" x="54.75625" xlink:href="#m0789224b6b" y="48.424233035"/>
      </g>
     </g>
    </g>
    <g id="ytick_41">
     <g id="line2d_70">
      <defs>
       <path d="
M0 0
L2 0" id="m0789224b6b"/>
      </defs>
      <g>
       <use style="stroke:#000000;stroke-linecap:butt;stroke-width:0.5;" x="54.75625" xlink:href="#m0789224b6b" y="37.7084470233"/>
      </g>
     </g>
    </g>
    <g id="ytick_42">
     <g id="line2d_71">
      <defs>
       <path d="
M0 0
L2 0" id="m0789224b6b"/>
      </defs>
      <g>
       <use style="stroke:#000000;stroke-linecap:butt;stroke-width:0.5;" x="54.75625" xlink:href="#m0789224b6b" y="26.9926610117"/>
      </g>
     </g>
    </g>
   </g>
   <g id="patch_3">
    <path d="
M64.7562 16.2769
L557.299 16.2769" style="fill:none;stroke:#000000;stroke-width:0.8;"/>
   </g>
   <g id="patch_4">
    <path d="
M54.7562 412.239
L54.7562 8.51291" style="fill:none;stroke:#000000;stroke-width:0.8;"/>
   </g>
  </g>
 </g>
 <defs>
  <clipPath id="p2fe29bff6c">
   <rect height="403.726153846" width="492.5425" x="64.75625" y="8.51291050296"/>
  </clipPath>
 </defs>
</svg>
