<?xml version="1.0" encoding="utf-8" standalone="no"?>
<!DOCTYPE svg PUBLIC "-//W3C//DTD SVG 1.1//EN"
  "http://www.w3.org/Graphics/SVG/1.1/DTD/svg11.dtd">
<!-- Created with matplotlib (http://matplotlib.sourceforge.net/) -->
<svg height="419pt" version="1.1" viewBox="0 0 564 419" width="564pt" xmlns="http://www.w3.org/2000/svg" xmlns:xlink="http://www.w3.org/1999/xlink">
 <defs>
  <style type="text/css">
*{stroke-linecap:square;stroke-linejoin:round;}
  </style>
 </defs>
 <g id="figure_1">
  <g id="patch_1">
   <path d="
M-4.44089e-16 419.439
L564.499 419.439
L564.499 0
L-4.44089e-16 0
z
" style="fill:#ffffff;"/>
  </g>
  <g id="axes_1">
   <g id="patch_2">
    <path d="
M64.7562 412.239
L557.299 412.239
L557.299 8.51291
L64.7562 8.51291
z
" style="fill:#ffffff;"/>
   </g>
   <g id="line2d_1">
    <path clip-path="url(#p2fe29bff6c)" d="
M74.2282 16.2769
L85.0604 16.2769
L85.0604 46.8645
L98.7073 46.8645
L98.7073 100.43
L107.696 100.43
L107.696 141.018
L119.771 141.018
L119.771 197.877
L124.234 197.877
L124.234 220.078
L131.401 220.078
L131.401 258.685
L134.372 258.685
L134.372 275.771
L139.477 275.771
L139.477 307.16
L145.669 307.16
L145.669 332.034
L147.451 332.034
L147.451 336.442
L152.178 336.442
L152.178 350.991
L154.92 350.991
L154.92 360.639
L156.193 360.639
L156.193 365.853
L158.569 365.853
L158.569 373.056
L161.779 373.056
L161.779 384.215
L164.644 384.215
L164.644 391.029
L165.534 391.029
L165.534 392.36
L168.041 392.36
L168.041 397.488
L169.59 397.488
L169.59 399.373
L170.332 399.373
L170.332 399.744
L172.442 399.744
L172.442 401.97
L173.762 401.97
L173.762 402.429
L175.626 402.429
L175.626 404.041
L177.926 404.041
L177.926 404.475
L179.005 404.475
L179.005 404.021
L179.529 404.021
L179.529 403.509
L180.547 403.509
L180.547 401.97
L181.042 401.97
L181.042 401.484
L182.005 401.484
L182.005 401.029
L185.953 400.966
L185.953 400.501
L187.15 400.501
L187.15 400.37
L187.537 400.37
L187.537 400.498
L189.393 400.498
L189.393 400.189
L190.79 400.277
L190.79 400.052
L191.792 400.052
L191.792 399.377
L192.44 399.377
L192.44 399.208
L193.383 399.208
L193.383 399.336
L194.294 399.336
L194.294 399.057
L194.591 399.057
L194.591 398.842
L196.027 398.842
L196.027 397.211
L196.305 397.211
L196.305 397.004
L196.854 397.004
L196.854 396.807
L197.123 396.807
L197.123 396.603
L198.688 396.603
L198.688 394.812
L200.165 394.812
L200.165 393.661
L200.64 393.661
L200.64 393.458
L201.337 393.441
L201.337 393.237
L202.017 393.237
L202.017 392.689
L203.325 392.587
L203.325 391.699
L203.956 391.699
L203.956 391.394
L205.176 391.296
L205.176 390.99
L206.531 390.955
L206.531 390.853
L207.459 390.853
L207.459 390.049
L208.706 390.049
L208.706 389.348
L209.562 389.263
L209.562 389.17
L210.717 389.17
L210.717 388.483
L211.196 388.483
L211.196 388.335
L212.886 388.336
L212.886 388.18
L213.908 388.137
L213.908 387.977
L214.615 387.936
L214.615 387.828
L215.03 387.828
L215.03 387.55
L215.574 387.55
L215.574 387.034
L215.842 387.034
L215.842 386.852
L216.369 386.852
L216.369 386.348
L217.015 386.348
L217.015 385.558
L217.142 385.558
L217.142 385.368
L217.769 385.368
L217.769 384.601
L217.893 384.601
L217.893 384.483
L218.26 384.483
L218.26 384.033
L218.503 384.033
L218.503 383.675
L218.862 383.675
L218.862 383.051
L219.334 383.051
L219.334 382.114
L219.567 382.114
L219.567 381.594
L219.682 381.594
L219.682 381.307
L219.912 381.307
L219.912 380.796
L220.59 380.796
L220.59 379.467
L221.033 379.467
L221.033 378.495
L221.251 378.495
L221.251 378.071
L221.683 378.071
L221.683 377.341
L221.896 377.341
L221.896 376.929
L222.213 376.929
L222.213 376.243
L222.836 376.243
L222.938 374.881
L223.842 374.881
L223.842 373.592
L224.137 373.592
L224.137 373.105
L224.621 373.105
L224.621 372.194
L224.907 372.194
L224.907 371.724
L225.19 371.724
L225.284 371.214
L225.563 371.214
L225.563 370.821
L226.022 370.821
L226.022 370.072
L226.294 370.072
L226.294 369.692
L226.563 369.692
L226.652 369.251
L226.917 369.251
L226.917 368.939
L227.18 368.939
L227.18 368.688
L227.354 368.688
L227.44 368.364
L227.953 368.364
L227.953 367.762
L228.373 367.762
L228.456 367.299
L228.622 367.299
L228.622 367.14
L228.869 367.14
L228.869 366.957
L229.113 366.957
L229.194 366.8
L230.069 366.691
L230.069 366.66
L230.764 366.553
L230.764 366.498
L231.736 366.456
L231.736 366.347
L231.956 366.347
L231.956 366.22
L232.174 366.22
L232.174 366.051
L232.604 365.967
L232.604 365.744
L232.817 365.744
L232.817 365.535
L233.237 365.425
L233.237 365.261
L233.855 365.152
L233.855 364.867
L234.192 364.867
L234.192 364.731
L234.592 364.731
L234.658 364.437
L234.985 364.437
L235.05 364.062
L235.244 363.983
L235.244 363.931
L235.564 363.931
L235.564 363.735
L236.006 363.735
L236.006 363.38
L236.131 363.38
L236.194 363.205
L236.748 363.128
L236.748 362.94
L237.051 362.837
L237.051 362.761
L237.646 362.761
L237.646 362.276
L237.764 362.276
L237.764 362.159
L237.997 362.159
L237.997 361.884
L238.287 361.884
L238.287 361.595
L238.516 361.595
L238.516 361.326
L238.629 361.326
L238.629 361.172
L238.799 361.172
L238.799 360.973
L238.968 360.973
L238.968 360.745
L239.358 360.745
L239.468 360.003
L239.632 360.003
L239.632 359.81
L239.796 359.81
L239.796 359.59
L240.013 359.59
L240.013 359.262
L240.174 359.262
L240.174 359.046
L240.493 359.046
L240.599 358.568
L240.757 358.568
L240.809 358.314
L241.07 358.314
L241.121 357.959
L241.276 357.959
L241.276 357.779
L241.532 357.779
L241.583 357.482
L241.836 357.482
L241.886 357.29
L242.483 357.191
L242.581 356.903
L242.873 356.797
L242.873 356.676
L243.21 356.579
L243.21 356.481
L243.496 356.385
L243.496 356.312
L244.011 356.312
L244.058 355.939
L244.288 355.939
L244.288 355.782
L244.699 355.686
L244.699 355.603
L244.969 355.532
L244.969 355.482
L245.413 355.443
L245.501 355.324
L246.786 355.431
L246.828 355.527
L248.606 355.424
L248.606 355.391
L249.224 355.296
L249.224 355.145
L250.236 355.251
L250.346 355.315
L250.565 355.315
L250.565 355.433
L250.746 355.433
L250.854 355.621
L251.068 355.718
L251.068 355.804
L251.281 355.804
L251.281 356.002
L251.493 356.002
L251.493 356.227
L251.633 356.227
L251.633 356.394
L251.841 356.394
L251.945 356.734
L252.117 356.824
L252.117 356.945
L252.254 356.945
L252.322 357.201
L252.457 357.201
L252.525 357.398
L252.76 357.398
L252.827 357.691
L252.96 357.79
L253.027 357.883
L253.159 357.994
L253.258 358.145
L253.421 358.145
L253.421 358.348
L253.746 358.348
L253.842 358.819
L254.32 358.927
L254.414 359.441
L254.571 359.441
L254.571 359.584
L254.758 359.584
L254.789 359.814
L254.944 359.814
L254.944 360.014
L255.067 360.014
L255.159 360.249
L255.342 360.33
L255.342 360.398
L255.614 360.398
L255.704 360.631
L255.972 360.688
L255.972 360.841
L256.296 360.947
L256.296 361.05
L256.646 361.132
L256.646 361.324
L256.847 361.324
L256.933 361.511
L257.246 361.584
L257.246 361.643
L257.584 361.727
L257.584 361.772
L257.834 361.772
L257.862 361.95
L258.082 361.95
L258.109 362.105
L258.409 362.105
L258.49 362.355
L258.678 362.421
L258.758 362.527
L259.13 362.601
L259.156 362.68
L259.471 362.742
L259.471 362.806
L259.832 362.911
L259.935 363.052
L260.215 363.139
L260.24 363.278
L260.442 363.278
L260.542 363.536
L260.741 363.601
L260.84 363.811
L261.062 363.811
L261.062 364.059
L261.354 364.059
L261.403 364.389
L261.572 364.46
L261.572 364.564
L261.764 364.564
L261.835 364.821
L262.12 364.9
L262.19 365.1
L262.354 365.199
L262.424 365.354
L262.61 365.408
L262.633 365.579
L262.886 365.579
L262.978 365.94
L263.16 366.048
L263.16 366.109
L263.318 366.109
L263.385 366.277
L263.565 366.384
L263.631 366.489
L263.765 366.489
L263.831 366.671
L264.051 366.728
L264.161 367.002
L264.291 367.002
L264.378 367.244
L264.765 367.354
L264.765 367.586
L264.957 367.586
L265.062 367.786
L265.273 367.896
L265.335 367.952
L265.564 367.952
L265.564 368.085
L265.873 368.181
L265.955 368.339
L266.118 368.366
L266.118 368.46
L266.26 368.46
L266.36 368.682
L266.561 368.782
L266.66 368.883
L266.858 368.955
L266.918 369.061
L267.192 369.158
L267.27 369.257
L267.444 369.285
L267.54 369.466
L267.77 369.568
L267.789 369.582
L270.797 369.688
L270.797 369.717
L271.253 369.826
L271.353 369.887
L271.751 369.998
L271.816 370.14
L272.142 370.214
L272.207 370.392
L272.496 370.496
L272.528 370.574
L272.719 370.642
L272.735 370.7
L273.003 370.76
L273.05 370.837
L273.392 370.943
L273.485 371.006
L273.852 371.1
L273.943 371.164
L274.154 371.249
L274.259 371.383
L274.423 371.451
L274.527 371.573
L274.748 371.668
L274.792 371.713
L275.142 371.808
L275.214 371.834
L278.777 371.742
L278.865 371.676
L279.116 371.588
L279.203 371.509
L279.451 371.399
L279.524 371.319
L279.818 371.214
L279.89 371.179
L280.395 371.077
L280.478 371.056
L280.971 370.947
L281.041 370.903
L281.306 370.803
L281.387 370.74
L281.615 370.641
L281.717 370.501
L281.886 370.444
L281.931 370.316
L282.066 370.316
L282.166 370.102
L282.498 370.014
L282.586 369.861
L282.76 369.767
L282.815 369.715
L282.988 369.633
L283.085 369.533
L283.267 369.426
L283.374 369.329
L283.564 369.241
L283.659 369.147
L283.817 369.054
L283.879 368.977
L284.056 368.874
L284.149 368.771
L284.283 368.687
L284.345 368.588
L284.458 368.495
L284.488 368.443
L284.61 368.443
L284.712 368.221
L284.823 368.127
L284.923 367.998
L285.043 367.947
L285.063 367.848
L285.213 367.848
L285.302 367.553
L285.391 367.466
L285.489 367.336
L285.656 367.28
L285.714 367.104
L285.812 367.003
L285.899 366.883
L286.073 366.829
L286.149 366.582
L286.236 366.529
L286.236 366.46
L286.388 366.46
L286.473 366.128
L286.606 366.027
L286.7 365.886
L286.831 365.777
L286.924 365.639
L287.119 365.584
L287.221 365.358
L287.395 365.268
L287.496 365.146
L287.659 365.066
L287.686 364.968
L287.849 364.857
L287.912 364.735
L288.037 364.735
L288.064 364.58
L288.171 364.478
L288.251 364.379
L288.357 364.291
L288.445 364.172
L288.568 364.093
L288.655 363.965
L288.786 363.863
L288.881 363.704
L288.985 363.704
L289.088 363.474
L289.199 363.438
L289.302 363.22
L289.421 363.14
L289.523 362.979
L289.649 362.889
L289.758 362.739
L289.933 362.666
L289.958 362.531
L290.058 362.421
L290.149 362.299
L290.346 362.203
L290.453 361.893
L290.542 361.802
L290.591 361.693
L290.664 361.693
L290.745 361.455
L290.882 361.353
L290.986 361.114
L291.082 361.004
L291.145 360.919
L291.312 360.828
L291.391 360.595
L291.556 360.491
L291.626 360.342
L291.79 360.235
L291.898 360.069
L292.037 360.043
L292.129 359.802
L292.244 359.7
L292.343 359.578
L292.457 359.514
L292.54 359.395
L292.698 359.299
L292.728 359.245
L292.907 359.172
L292.967 359.092
L293.299 358.991
L293.394 358.914
L293.699 358.83
L293.786 358.76
L294.015 358.651
L294.108 358.588
L294.292 358.479
L294.398 358.36
L294.574 358.261
L294.678 358.112
L294.845 358.017
L294.928 357.931
L295.093 357.887
L295.189 357.715
L295.312 357.637
L295.414 357.522
L295.583 357.419
L295.683 357.334
L295.937 357.236
L296.037 357.16
L296.215 357.054
L296.294 356.997
L296.496 356.905
L296.607 356.805
L296.762 356.7
L296.845 356.62
L296.993 356.522
L297.076 356.418
L297.203 356.322
L297.304 356.209
L297.43 356.191
L297.512 356.007
L297.655 355.913
L297.736 355.817
L297.934 355.708
L298.045 355.587
L298.174 355.481
L298.235 355.409
L298.363 355.342
L298.472 355.158
L298.616 355.055
L298.724 354.828
L298.808 354.747
L298.868 354.609
L298.951 354.609
L299.04 354.35
L299.128 354.268
L299.223 354.08
L299.328 354.001
L299.428 353.769
L299.503 353.677
L299.602 353.504
L299.706 353.425
L299.81 353.232
L299.936 353.131
L300.033 352.988
L300.17 352.879
L300.226 352.815
L300.373 352.716
L300.457 352.601
L300.642 352.513
L300.742 352.295
L300.847 352.213
L300.947 352.065
L301.046 351.993
L301.144 351.833
L301.259 351.722
L301.368 351.575
L301.503 351.471
L301.611 351.313
L301.787 351.217
L301.873 350.997
L301.979 350.901
L302.064 350.755
L302.169 350.649
L302.279 350.505
L302.41 350.426
L302.488 350.306
L302.613 350.208
L302.706 350.098
L302.886 349.987
L302.978 349.806
L303.105 349.695
L303.151 349.599
L303.242 349.511
L303.343 349.352
L303.423 349.268
L303.494 349.142
L303.599 349.062
L303.708 348.862
L303.822 348.759
L303.916 348.642
L304.029 348.561
L304.093 348.436
L304.191 348.342
L304.298 348.178
L304.38 348.144
L304.487 347.927
L304.588 347.86
L304.698 347.669
L304.789 347.615
L304.899 347.389
L305.003 347.278
L305.102 347.12
L305.196 347.039
L305.295 346.829
L305.37 346.737
L305.477 346.569
L305.616 346.461
L305.727 346.282
L305.865 346.19
L305.965 346.035
L306.138 345.941
L306.238 345.787
L306.409 345.679
L306.508 345.581
L306.722 345.477
L306.801 345.398
L306.987 345.297
L307.088 345.219
L307.249 345.12
L307.349 345.034
L307.518 344.932
L307.625 344.843
L307.788 344.74
L307.894 344.643
L308.068 344.534
L308.16 344.452
L308.324 344.354
L308.424 344.23
L308.557 344.12
L308.656 344.022
L308.796 343.913
L308.907 343.822
L309.078 343.731
L309.159 343.634
L309.305 343.535
L309.413 343.437
L309.55 343.345
L309.629 343.251
L309.784 343.149
L309.891 343.063
L310.048 342.957
L310.154 342.888
L310.336 342.8
L310.433 342.717
L310.606 342.615
L310.695 342.523
L310.821 342.415
L310.923 342.323
L311.048 342.212
L311.15 342.116
L311.289 342.043
L311.374 341.916
L311.512 341.818
L311.623 341.686
L311.73 341.605
L311.811 341.476
L311.917 341.406
L312.005 341.241
L312.103 341.141
L312.212 340.991
L312.32 340.901
L312.417 340.759
L312.524 340.649
L312.631 340.52
L312.748 340.414
L312.847 340.307
L312.985 340.208
L313.09 340.057
L313.215 339.952
L313.306 339.824
L313.41 339.726
L313.496 339.603
L313.578 339.511
L313.681 339.341
L313.763 339.24
L313.872 339.073
L313.967 338.97
L314.028 338.853
L314.119 338.775
L314.22 338.62
L314.337 338.512
L314.447 338.379
L314.556 338.281
L314.645 338.161
L314.738 338.085
L314.823 337.947
L314.921 337.853
L315.029 337.684
L315.116 337.579
L315.223 337.439
L315.313 337.387
L315.406 337.212
L315.515 337.127
L315.608 336.962
L315.741 336.855
L315.845 336.685
L315.934 336.585
L316.028 336.456
L316.128 336.35
L316.231 336.205
L316.318 336.106
L316.41 335.969
L316.491 335.877
L316.595 335.7
L316.675 335.59
L316.778 335.434
L316.867 335.342
L316.976 335.162
L317.066 335.072
L317.16 334.933
L317.294 334.822
L317.381 334.7
L317.491 334.62
L317.586 334.467
L317.683 334.362
L317.792 334.204
L317.894 334.109
L317.99 333.956
L318.098 333.847
L318.208 333.689
L318.323 333.609
L318.401 333.467
L318.509 333.359
L318.615 333.22
L318.731 333.113
L318.841 332.989
L318.96 332.888
L319.038 332.768
L319.136 332.681
L319.239 332.525
L319.336 332.422
L319.446 332.257
L319.537 332.151
L319.62 332.037
L319.715 331.927
L319.759 331.857
L319.857 331.759
L319.968 331.567
L320.073 331.461
L320.178 331.26
L320.258 331.156
L320.354 330.998
L320.429 330.894
L320.53 330.718
L320.617 330.61
L320.728 330.392
L320.801 330.313
L320.872 330.14
L320.955 330.047
L321.028 329.865
L321.111 329.757
L321.214 329.561
L321.297 329.461
L321.407 329.276
L321.489 329.186
L321.591 328.995
L321.665 328.937
L321.771 328.694
L321.857 328.588
L321.947 328.396
L322.02 328.31
L322.118 328.11
L322.195 328.009
L322.304 327.788
L322.4 327.688
L322.511 327.442
L322.587 327.341
L322.688 327.141
L322.756 327.038
L322.865 326.83
L322.943 326.73
L323.039 326.576
L323.131 326.48
L323.203 326.358
L323.291 326.259
L323.396 326.094
L323.482 325.989
L323.576 325.835
L323.659 325.738
L323.767 325.585
L323.905 325.475
L324.012 325.362
L324.135 325.26
L324.239 325.152
L324.356 325.055
L324.448 324.947
L324.564 324.837
L324.671 324.697
L324.779 324.602
L324.89 324.422
L324.998 324.329
L325.078 324.215
L325.189 324.109
L325.292 324
L325.431 323.892
L325.53 323.794
L325.674 323.695
L325.764 323.595
L325.907 323.488
L326.013 323.422
L326.187 323.319
L326.287 323.215
L326.411 323.109
L326.517 322.999
L326.662 322.899
L326.746 322.823
L326.926 322.715
L327.034 322.629
L327.196 322.527
L327.299 322.444
L327.483 322.333
L327.568 322.267
L327.71 322.162
L327.818 322.059
L327.946 321.948
L328.042 321.844
L328.166 321.736
L328.263 321.638
L328.411 321.527
L328.512 321.466
L328.752 321.356
L328.843 321.302
L329.048 321.194
L329.133 321.143
L329.341 321.033
L329.449 320.933
L329.578 320.825
L329.685 320.732
L329.839 320.622
L329.945 320.545
L330.129 320.436
L330.238 320.361
L330.403 320.252
L330.512 320.184
L330.73 320.082
L330.835 320.026
L331.053 319.917
L331.16 319.831
L331.299 319.724
L331.405 319.63
L331.531 319.528
L331.641 319.425
L331.784 319.332
L331.892 319.234
L332.049 319.131
L332.157 319.036
L332.3 318.932
L332.406 318.832
L332.529 318.721
L332.634 318.59
L332.745 318.484
L332.85 318.375
L332.987 318.264
L333.094 318.185
L333.282 318.078
L333.382 317.999
L333.534 317.891
L333.641 317.797
L333.785 317.687
L333.896 317.531
L333.989 317.425
L334.093 317.295
L334.209 317.195
L334.313 317.076
L334.46 316.971
L334.563 316.846
L334.676 316.737
L334.777 316.624
L334.886 316.514
L334.991 316.408
L335.117 316.297
L335.222 316.204
L335.35 316.097
L335.458 315.996
L335.586 315.888
L335.693 315.796
L335.838 315.699
L335.94 315.616
L336.091 315.507
L336.194 315.42
L336.353 315.314
L336.462 315.211
L336.6 315.106
L336.706 315
L336.836 314.899
L336.946 314.784
L337.068 314.685
L337.174 314.563
L337.292 314.46
L337.399 314.33
L337.492 314.229
L337.601 314.097
L337.735 313.993
L337.831 313.876
L337.992 313.766
L338.1 313.696
L338.299 313.585
L338.406 313.517
L338.575 313.413
L338.684 313.311
L338.81 313.205
L338.917 313.077
L339.032 312.985
L339.141 312.815
L339.263 312.705
L339.368 312.522
L339.459 312.419
L339.568 312.248
L339.646 312.146
L339.757 311.983
L339.847 311.883
L339.955 311.739
L340.042 311.63
L340.153 311.475
L340.24 311.366
L340.348 311.213
L340.46 311.103
L340.566 310.983
L340.688 310.88
L340.794 310.762
L340.911 310.654
L341.019 310.544
L341.144 310.437
L341.229 310.355
L341.361 310.247
L341.465 310.119
L341.575 310.01
L341.682 309.886
L341.771 309.782
L341.879 309.639
L341.982 309.543
L342.089 309.401
L342.189 309.298
L342.298 309.158
L342.393 309.055
L342.476 308.945
L342.58 308.836
L342.689 308.704
L342.793 308.594
L342.903 308.463
L343.002 308.37
L343.111 308.221
L343.22 308.114
L343.328 307.97
L343.431 307.87
L343.531 307.756
L343.654 307.647
L343.762 307.546
L343.9 307.436
L344.003 307.343
L344.162 307.232
L344.27 307.164
L344.438 307.058
L344.529 306.986
L344.696 306.881
L344.807 306.787
L344.947 306.679
L345.057 306.609
L345.254 306.499
L345.364 306.453
L345.582 306.342
L345.684 306.287
L345.904 306.179
L346.013 306.118
L346.175 306.01
L346.281 305.929
L346.438 305.826
L346.544 305.738
L346.669 305.633
L346.771 305.522
L346.881 305.419
L346.985 305.294
L347.078 305.184
L347.179 305.068
L347.287 304.959
L347.395 304.848
L347.511 304.742
L347.62 304.627
L347.731 304.517
L347.841 304.374
L347.935 304.27
L348.046 304.11
L348.14 304.008
L348.249 303.893
L348.379 303.787
L348.484 303.676
L348.598 303.565
L348.706 303.457
L348.817 303.353
L348.927 303.224
L349.031 303.116
L349.142 302.983
L349.251 302.877
L349.362 302.746
L349.462 302.648
L349.562 302.532
L349.676 302.423
L349.786 302.312
L349.903 302.203
L349.999 302.102
L350.1 301.991
L350.208 301.861
L350.301 301.75
L350.407 301.609
L350.49 301.506
L350.601 301.357
L350.709 301.248
L350.813 301.12
L350.927 301.014
L351.029 300.881
L351.125 300.773
L351.236 300.628
L351.331 300.518
L351.439 300.376
L351.528 300.265
L351.637 300.131
L351.734 300.021
L351.845 299.87
L351.927 299.762
L352.034 299.612
L352.129 299.502
L352.238 299.373
L352.345 299.271
L352.446 299.153
L352.54 299.043
L352.647 298.901
L352.731 298.797
L352.835 298.653
L352.918 298.549
L353.024 298.405
L353.118 298.298
L353.228 298.14
L353.317 298.047
L353.428 297.892
L353.525 297.786
L353.631 297.663
L353.739 297.555
L353.849 297.432
L353.963 297.323
L354.074 297.194
L354.178 297.091
L354.288 296.962
L354.393 296.854
L354.502 296.708
L354.589 296.601
L354.693 296.475
L354.79 296.365
L354.899 296.242
L355.014 296.133
L355.124 296.026
L355.247 295.915
L355.355 295.811
L355.463 295.703
L355.574 295.581
L355.688 295.471
L355.795 295.366
L355.94 295.257
L356.051 295.152
L356.187 295.042
L356.298 294.962
L356.455 294.854
L356.563 294.781
L356.82 294.67
L356.926 294.635
L357.192 294.524
L357.303 294.467
L357.594 294.356
L357.697 294.316
L357.998 294.206
L358.107 294.149
L358.518 294.038
L358.629 294.012
L358.979 293.901
L359.088 293.849
L359.343 293.739
L359.449 293.696
L359.741 293.587
L359.851 293.535
L360.227 293.425
L360.329 293.384
L360.581 293.273
L360.69 293.229
L361.322 293.118
L361.432 293.069
L361.863 292.958
L361.973 292.92
L362.282 292.81
L362.388 292.753
L362.607 292.646
L362.712 292.594
L363.066 292.483
L363.171 292.446
L363.445 292.335
L363.556 292.284
L363.869 292.173
L363.98 292.13
L364.231 292.02
L364.339 291.957
L364.595 291.846
L364.705 291.791
L364.87 291.681
L364.976 291.598
L365.121 291.487
L365.231 291.41
L365.41 291.299
L365.518 291.23
L365.778 291.121
L365.887 291.05
L366.053 290.939
L366.161 290.877
L366.367 290.767
L366.475 290.715
L366.664 290.606
L366.774 290.534
L366.95 290.423
L367.059 290.351
L367.243 290.241
L367.354 290.177
L367.606 290.066
L367.717 290.026
L368.018 289.916
L368.127 289.865
L368.353 289.754
L368.459 289.705
L368.699 289.596
L368.807 289.548
L369.105 289.437
L369.213 289.39
L369.878 289.279
L369.987 289.256
L370.45 289.145
L370.56 289.126
L371.022 289.015
L371.132 288.985
L371.886 288.875
L371.997 288.841
L372.312 288.73
L372.42 288.679
L372.68 288.568
L372.789 288.512
L372.967 288.401
L373.075 288.321
L373.211 288.213
L373.321 288.122
L373.487 288.011
L373.595 287.936
L373.742 287.83
L373.852 287.736
L373.975 287.627
L374.085 287.518
L374.232 287.408
L374.342 287.329
L374.47 287.221
L374.58 287.137
L374.767 287.027
L374.877 286.958
L375.049 286.847
L375.15 286.778
L375.291 286.669
L375.401 286.568
L375.531 286.459
L375.639 286.37
L375.784 286.261
L375.893 286.158
L376.011 286.049
L376.119 285.937
L376.239 285.827
L376.346 285.724
L376.463 285.613
L376.572 285.508
L376.724 285.397
L376.833 285.323
L376.971 285.213
L377.081 285.122
L377.212 285.013
L377.322 284.912
L377.433 284.801
L377.543 284.696
L377.662 284.586
L377.772 284.479
L377.888 284.368
L377.993 284.263
L378.102 284.152
L378.212 284.043
L378.325 283.934
L378.436 283.822
L378.557 283.711
L378.664 283.619
L378.8 283.515
L378.911 283.418
L379.047 283.309
L379.157 283.218
L379.311 283.108
L379.421 283.024
L379.584 282.913
L379.695 282.84
L379.822 282.73
L379.931 282.619
L380.049 282.509
L380.152 282.426
L380.321 282.315
L380.43 282.24
L380.583 282.131
L380.691 282.038
L380.813 281.929
L380.92 281.839
L381.067 281.729
L381.178 281.641
L381.351 281.53
L381.462 281.445
L381.615 281.334
L381.725 281.255
L381.889 281.144
L382 281.063
L382.166 280.952
L382.276 280.866
L382.422 280.758
L382.533 280.661
L382.653 280.55
L382.764 280.444
L382.885 280.333
L382.996 280.242
L383.138 280.131
L383.248 280.038
L383.383 279.929
L383.493 279.835
L383.644 279.725
L383.753 279.626
L383.87 279.515
L383.981 279.403
L384.091 279.295
L384.202 279.171
L384.308 279.06
L384.419 278.932
L384.517 278.821
L384.628 278.687
L384.719 278.579
L384.83 278.424
L384.91 278.314
L385.021 278.156
L385.099 278.046
L385.21 277.886
L385.295 277.776
L385.405 277.618
L385.484 277.508
L385.594 277.361
L385.673 277.253
L385.784 277.084
L385.858 276.974
L385.968 276.803
L386.044 276.698
L386.154 276.532
L386.23 276.421
L386.34 276.261
L386.424 276.15
L386.533 276.004
L386.63 275.893
L386.739 275.759
L386.832 275.649
L386.943 275.528
L387.047 275.417
L387.157 275.293
L387.264 275.187
L387.375 275.072
L387.481 274.961
L387.591 274.838
L387.692 274.727
L387.801 274.596
L387.892 274.485
L388.002 274.368
L388.113 274.261
L388.221 274.153
L388.329 274.043
L388.44 273.923
L388.551 273.813
L388.661 273.696
L388.801 273.586
L388.911 273.513
L389.066 273.402
L389.177 273.319
L389.321 273.208
L389.431 273.113
L389.578 273.003
L389.689 272.919
L389.845 272.808
L389.956 272.733
L390.142 272.622
L390.252 272.566
L390.524 272.455
L390.633 272.396
L390.816 272.286
L390.926 272.22
L391.09 272.109
L391.201 272.046
L391.5 271.936
L391.61 271.89
L391.826 271.78
L391.937 271.721
L392.188 271.61
L392.299 271.552
L392.524 271.442
L392.635 271.399
L392.861 271.288
L392.972 271.227
L393.131 271.116
L393.24 271.031
L393.406 270.92
L393.517 270.856
L393.695 270.745
L393.801 270.664
L393.952 270.554
L394.061 270.489
L394.238 270.378
L394.347 270.294
L394.538 270.183
L394.649 270.116
L394.827 270.005
L394.937 269.922
L395.121 269.811
L395.232 269.753
L396.23 269.643
L396.34 269.622
L396.95 269.511
L397.06 269.498
L398.565 269.387
L398.676 269.361
L400.952 269.249
L401.062 269.225
L401.477 269.114
L401.588 269.095
L402.756 268.984
L402.866 268.941
L403.339 268.83
L403.45 268.79
L403.791 268.68
L403.902 268.634
L404.334 268.523
L404.445 268.491
L404.766 268.381
L404.877 268.34
L405.103 268.229
L405.213 268.171
L405.45 268.06
L405.561 268.016
L405.778 267.906
L405.889 267.83
L406.075 267.719
L406.185 267.642
L406.332 267.531
L406.443 267.447
L406.592 267.336
L406.703 267.245
L406.823 267.135
L406.934 267.028
L407.062 266.917
L407.173 266.821
L407.306 266.71
L407.417 266.626
L407.576 266.515
L407.685 266.425
L407.824 266.314
L407.933 266.225
L408.07 266.114
L408.181 266.021
L408.309 265.91
L408.42 265.809
L408.551 265.698
L408.662 265.593
L408.772 265.483
L408.883 265.385
L409.018 265.275
L409.129 265.173
L409.226 265.063
L409.336 264.926
L409.436 264.815
L409.546 264.693
L409.655 264.583
L409.766 264.476
L409.894 264.365
L410.005 264.253
L410.109 264.143
L410.219 264.019
L410.316 263.908
L410.427 263.793
L410.543 263.682
L410.654 263.586
L410.776 263.475
L410.887 263.363
L411.007 263.252
L411.117 263.151
L411.245 263.04
L411.356 262.941
L411.51 262.83
L411.621 262.75
L411.809 262.639
L411.92 262.572
L412.087 262.461
L412.198 262.385
L412.39 262.274
L412.499 262.218
L412.713 262.107
L412.823 262.049
L413.017 261.938
L413.128 261.871
L413.337 261.76
L413.448 261.717
L414.25 261.606
L414.361 261.589
L415.352 261.478
L415.463 261.471
L416.406 261.36
L416.517 261.344
L417.59 261.455
L417.701 261.49
L418.014 261.601
L418.124 261.642
L418.477 261.753
L418.588 261.797
L418.907 261.908
L419.018 261.961
L419.217 262.072
L419.327 262.135
L419.507 262.246
L419.618 262.323
L419.787 262.434
L419.898 262.507
L420.081 262.618
L420.192 262.68
L420.375 262.791
L420.486 262.877
L420.631 262.988
L420.741 263.059
L420.908 263.169
L421.018 263.247
L421.163 263.358
L421.272 263.442
L421.419 263.553
L421.53 263.635
L421.7 263.746
L421.811 263.808
L422.051 263.919
L422.162 263.974
L422.342 264.085
L422.453 264.152
L422.667 264.263
L422.777 264.317
L423.049 264.428
L423.16 264.463
L423.521 264.574
L423.632 264.599
L424.431 264.71
L424.542 264.722
L425.215 264.833
L425.326 264.849
L426.014 264.96
L426.125 264.99
L426.468 265.101
L426.579 265.128
L427.073 265.239
L427.184 265.261
L427.469 265.372
L427.58 265.42
L427.842 265.531
L427.952 265.584
L428.198 265.695
L428.309 265.755
L428.497 265.866
L428.608 265.936
L428.791 266.047
L428.902 266.121
L429.068 266.232
L429.179 266.303
L429.346 266.415
L429.457 266.496
L429.589 266.607
L429.699 266.69
L429.844 266.801
L429.955 266.893
L430.094 267.004
L430.205 267.091
L430.344 267.201
L430.455 267.291
L430.591 267.402
L430.702 267.496
L430.823 267.607
L430.934 267.706
L431.054 267.817
L431.165 267.925
L431.279 268.036
L431.39 268.159
L431.487 268.27
L431.598 268.407
L431.682 268.518
L431.793 268.655
L431.878 268.766
L431.989 268.907
L432.092 269.019
L432.203 269.129
L432.325 269.24
L432.436 269.327
L432.579 269.437
L432.69 269.521
L432.841 269.633
L432.952 269.71
L433.102 269.82
L433.212 269.903
L433.355 270.013
L433.466 270.096
L433.642 270.207
L433.753 270.262
L434.262 270.374
L434.373 270.402
L434.797 270.514
L434.908 270.529
L437.23 270.64
L437.341 270.663
L438.467 270.774
L438.578 270.804
L438.992 270.915
L439.103 270.954
L439.454 271.065
L439.518 271.074
L439.565 271.071
L443.961 271.182
L444.072 271.189
L444.621 271.3
L444.732 271.333
L445.202 271.444
L445.313 271.461
L445.947 271.572
L446.058 271.592
L446.473 271.703
L446.584 271.717
L447.713 271.828
L447.824 271.836
L449.48 271.725
L449.591 271.695
L450.759 271.584
L450.87 271.553
L451.226 271.442
L451.337 271.395
L451.604 271.284
L451.715 271.235
L451.913 271.124
L452.024 271.068
L452.285 270.957
L452.396 270.897
L452.588 270.786
L452.699 270.726
L452.994 270.615
L453.105 270.567
L453.393 270.455
L453.504 270.404
L453.732 270.293
L453.843 270.251
L454.176 270.14
L454.287 270.092
L454.588 269.981
L454.699 269.942
L454.968 269.831
L455.079 269.792
L455.415 269.681
L455.526 269.641
L455.901 269.53
L456.012 269.49
L456.328 269.379
L456.439 269.332
L456.788 269.221
L456.899 269.199
L458.544 269.31
L458.655 269.331
L459.498 269.442
L459.609 269.453
L461.696 269.342
L461.807 269.3
L462.18 269.189
L462.291 269.161
L462.652 269.05
L462.763 269.034
L463.412 268.923
L463.523 268.897
L464.11 268.786
L464.221 268.76
L464.666 268.649
L464.777 268.616
L465.065 268.505
L465.176 268.456
L465.479 268.345
L465.591 268.31
L466.011 268.199
L466.122 268.177
L466.562 268.066
L466.673 268.044
L467.024 267.933
L467.135 267.88
L467.418 267.769
L467.529 267.721
L467.767 267.61
L467.878 267.561
L468.313 267.45
L468.424 267.429
L468.807 267.318
L468.918 267.282
L469.153 267.171
L469.264 267.1
L469.426 266.989
L469.537 266.903
L469.669 266.792
L469.78 266.684
L469.89 266.573
L470.001 266.46
L470.123 266.349
L470.234 266.256
L470.373 266.145
L470.484 266.06
L470.635 265.949
L470.746 265.878
L470.904 265.767
L471.015 265.685
L471.159 265.574
L471.27 265.485
L471.42 265.374
L471.531 265.288
L471.672 265.177
L471.783 265.095
L471.92 264.984
L472.031 264.898
L472.169 264.787
L472.28 264.692
L472.412 264.58
L472.523 264.497
L472.667 264.386
L472.778 264.288
L472.918 264.177
L473.029 264.101
L473.191 263.99
L473.302 263.91
L473.489 263.799
L473.6 263.746
L474.157 263.635
L474.268 263.627
L475.518 263.516
L475.629 263.481
L476.037 263.37
L476.148 263.334
L476.559 263.223
L476.67 263.204
L477.92 263.315
L478.031 263.334
L478.761 263.445
L478.872 263.471
L479.659 263.582
L479.77 263.602
L480.668 263.714
L480.779 263.732
L481.171 263.843
L481.282 263.871
L482.108 263.982
L482.219 264.002
L484.132 263.891
L484.243 263.871
L484.798 263.76
L484.909 263.741
L485.381 263.63
L485.492 263.593
L485.795 263.482
L485.906 263.432
L486.153 263.321
L486.264 263.281
L486.604 263.169
L486.715 263.132
L487.079 263.021
L487.19 262.99
L487.643 262.879
L487.754 262.843
L488.075 262.732
L488.186 262.701
L488.62 262.589
L488.731 262.546
L488.963 262.434
L489.075 262.374
L489.276 262.263
L489.387 262.204
L489.591 262.093
L489.702 262.025
L489.878 261.914
L489.989 261.844
L490.184 261.732
L490.295 261.684
L490.552 261.573
L490.663 261.522
L490.876 261.411
L490.987 261.354
L491.171 261.243
L491.282 261.167
L491.449 261.056
L491.56 260.975
L491.698 260.864
L491.809 260.768
L491.923 260.657
L492.034 260.551
L492.158 260.439
L492.269 260.334
L492.377 260.223
L492.488 260.113
L492.608 260.002
L492.719 259.904
L492.837 259.793
L492.948 259.69
L493.058 259.579
L493.169 259.473
L493.284 259.362
L493.395 259.251
L493.51 259.139
L493.621 259.026
L493.727 258.915
L493.838 258.802
L493.947 258.691
L494.058 258.569
L494.155 258.458
L494.266 258.326
L494.374 258.215
L494.485 258.104
L494.595 257.993
L494.706 257.89
L494.828 257.779
L494.939 257.693
L495.13 257.582
L495.241 257.515
L495.425 257.404
L495.536 257.338
L495.732 257.227
L495.843 257.175
L496.105 257.064
L496.216 257.021
L496.863 256.91
L496.974 256.898
L498.592 257.009
L498.703 257.022
L500.385 257.134
L500.496 257.151
L501.59 257.263
L501.701 257.295
L501.991 257.406
L502.102 257.443
L502.932 257.554
L503.043 257.563
L503.893 257.674
L504.004 257.689
L504.731 257.8
L504.842 257.832
L506.964 257.943
L507.075 257.963
L507.978 258.074
L508.089 258.095
L509.129 257.984
L509.24 257.941
L509.738 257.83
L509.849 257.787
L510.209 257.676
L510.32 257.655
L510.755 257.544
L510.866 257.506
L511.24 257.395
L511.351 257.357
L511.845 257.246
L511.956 257.219
L512.351 257.108
L512.462 257.078
L513.653 256.967
L513.764 256.947
L514.402 256.836
L514.514 256.798
L514.858 256.687
L514.969 256.637
L515.271 256.526
L515.382 256.491
L515.757 256.38
L515.868 256.339
L516.128 256.228
L516.239 256.185
L516.537 256.073
L516.648 256.04
L516.988 255.928
L517.099 255.888
L517.409 255.776
L517.52 255.743
L517.982 255.632
L518.093 255.595
L518.389 255.484
L518.5 255.445
L518.752 255.334
L518.863 255.266
L519.051 255.155
L519.162 255.093
L519.364 254.982
L519.475 254.917
L519.648 254.805
L519.759 254.744
L519.958 254.632
L520.069 254.569
L520.278 254.458
L520.389 254.418
L520.881 254.307
L520.992 254.273
L521.341 254.162
L521.452 254.122
L521.725 254.011
L521.836 253.966
L522.055 253.854
L522.166 253.815
L522.535 253.703
L522.646 253.67
L522.927 253.559
L523.038 253.508
L523.263 253.397
L523.374 253.334
L523.581 253.223
L523.692 253.159
L523.909 253.048
L524.021 252.989
L524.245 252.878
L524.356 252.821
L524.593 252.71
L524.704 252.649
L524.918 252.538
L525.029 252.494
L525.313 252.383
L525.424 252.332
L525.637 252.221
L525.748 252.156
L525.924 252.045
L526.035 251.975
L526.225 251.864
L526.337 251.789
L526.479 251.678
L526.59 251.59
L526.76 251.479
L526.871 251.413
L527.068 251.302
L527.179 251.24
L527.376 251.128
L527.487 251.063
L527.67 250.952
L527.781 250.885
L527.945 250.774
L528.056 250.705
L528.225 250.594
L528.336 250.519
L528.483 250.408
L528.594 250.318
L528.747 250.207
L528.858 250.14
L529.032 250.028
L529.143 249.95
L529.31 249.839
L529.421 249.774
L529.59 249.663
L529.701 249.593
L529.877 249.482
L529.988 249.403
L530.173 249.291
L530.284 249.221
L530.477 249.11
L530.588 249.048
L530.753 248.937
L530.864 248.853
L531.04 248.742
L531.151 248.658
L531.292 248.547
L531.403 248.459
L531.567 248.348
L531.678 248.272
L531.83 248.161
L531.941 248.081
L532.088 247.97
L532.199 247.889
L532.358 247.778
L532.469 247.691
L532.608 247.58
L532.719 247.489
L532.882 247.378
L532.993 247.302
L533.149 247.191
L533.26 247.115
L533.413 247.004
L533.524 246.924
L533.674 246.813
L533.785 246.728
L533.926 246.617
L534.038 246.525
L534.174 246.413
L534.285 246.32
L534.423 246.209
L534.534 246.116
L534.665 246.005
L534.776 245.908
L534.897 245.797
L535.008 245.697
L535.129 245.586
L535.24 245.48
L535.349 245.369
L535.46 245.248
L535.557 245.136
L535.668 245.008
L535.76 244.897
L535.871 244.768
L535.97 244.657
L536.081 244.531
L536.184 244.42
L536.295 244.305
L536.407 244.194
L536.518 244.08
L536.625 243.969
L536.736 243.849
L536.834 243.738
L536.945 243.614
L537.038 243.503
L537.149 243.369
L537.239 243.258
L537.35 243.122
L537.446 243.01
L537.557 242.879
L537.65 242.768
L537.761 242.625
L537.847 242.514
L537.958 242.367
L538.042 242.256
L538.153 242.109
L538.241 241.998
L538.353 241.871
L538.449 241.76
L538.56 241.64
L538.675 241.529
L538.786 241.428
L538.909 241.316
L539.02 241.217
L539.134 241.106
L539.245 240.988
L539.356 240.877
L539.467 240.77
L539.586 240.659
L539.697 240.572
L539.846 240.461
L539.957 240.375
L540.1 240.264
L540.211 240.191
L540.369 240.08
L540.48 239.996
L540.61 239.885
L540.721 239.776
L540.839 239.665
L540.95 239.567
L541.092 239.456
L541.203 239.362
L541.334 239.251
L541.445 239.166
L541.58 239.054
L541.692 238.962
L541.833 238.851
L541.944 238.761
L542.09 238.65
L542.201 238.565
L542.343 238.454
L542.454 238.362
L542.583 238.25
L542.694 238.164
L542.824 238.053
L542.935 237.951
L543.053 237.84
L543.164 237.745
L543.299 237.634
L543.41 237.544
L543.551 237.432
L543.662 237.339
L543.802 237.228
L543.913 237.134
L544.051 237.023
L544.162 236.927
L544.3 236.816
L544.411 236.737
L544.582 236.626
L544.693 236.559
L544.874 236.448
L544.985 236.385
L545.163 236.274
L545.274 236.199
L545.475 236.088
L545.586 236.018
L545.747 235.907
L545.858 235.831
L546.004 235.72
L546.115 235.632
L546.262 235.52
L546.373 235.438
L546.519 235.327
L546.63 235.231
L546.769 235.12
L546.88 235.032
L547.02 234.921
L547.131 234.83
L547.256 234.719
L547.367 234.608
L547.474 234.497
L547.585 234.388
L547.698 234.277
L547.809 234.167
L547.827 234.15
L547.827 234.15" style="fill:none;stroke:#0000ff;stroke-width:5.0;"/>
   </g>
   <g id="matplotlib.axis_1">
    <g id="xtick_1">
     <g id="line2d_2">
      <path d="
M189.288 412.239
L189.288 8.51291" style="fill:none;stroke:#000000;stroke-dasharray:1.000000,3.000000;stroke-dashoffset:0.0;stroke-linecap:butt;stroke-width:0.5;"/>
     </g>
     <g id="line2d_3">
      <defs>
       <path d="
M0 0
L0 -4" id="m3fe2698bfe"/>
      </defs>
      <g>
       <use style="stroke:#000000;stroke-linecap:butt;stroke-width:0.5;" x="189.287616689" xlink:href="#m3fe2698bfe" y="16.276875"/>
      </g>
     </g>
     <g id="text_1">
      <!-- 5 -->
      <defs>
       <path d="
M10.7969 72.9062
L49.5156 72.9062
L49.5156 64.5938
L19.8281 64.5938
L19.8281 46.7344
Q21.9688 47.4688 24.1094 47.8281
Q26.2656 48.1875 28.4219 48.1875
Q40.625 48.1875 47.75 41.5
Q54.8906 34.8125 54.8906 23.3906
Q54.8906 11.625 47.5625 5.09375
Q40.2344 -1.42188 26.9062 -1.42188
Q22.3125 -1.42188 17.5469 -0.640625
Q12.7969 0.140625 7.71875 1.70312
L7.71875 11.625
Q12.1094 9.23438 16.7969 8.0625
Q21.4844 6.89062 26.7031 6.89062
Q35.1562 6.89062 40.0781 11.3281
Q45.0156 15.7656 45.0156 23.3906
Q45.0156 31 40.0781 35.4375
Q35.1562 39.8906 26.7031 39.8906
Q22.75 39.8906 18.8125 39.0156
Q14.8906 38.1406 10.7969 36.2812
z
" id="BitstreamVeraSans-Roman-35"/>
      </defs>
      <g transform="translate(183.626991689 37.774375)scale(0.24 -0.24)">
       <use xlink:href="#BitstreamVeraSans-Roman-35"/>
      </g>
     </g>
    </g>
    <g id="xtick_2">
     <g id="line2d_4">
      <path d="
M322.865 412.239
L322.865 8.51291" style="fill:none;stroke:#000000;stroke-dasharray:1.000000,3.000000;stroke-dashoffset:0.0;stroke-linecap:butt;stroke-width:0.5;"/>
     </g>
     <g id="line2d_5">
      <defs>
       <path d="
M0 0
L0 -4" id="m3fe2698bfe"/>
      </defs>
      <g>
       <use style="stroke:#000000;stroke-linecap:butt;stroke-width:0.5;" x="322.864732462" xlink:href="#m3fe2698bfe" y="16.276875"/>
      </g>
     </g>
     <g id="text_2">
      <!-- 10 -->
      <defs>
       <path d="
M31.7812 66.4062
Q24.1719 66.4062 20.3281 58.9062
Q16.5 51.4219 16.5 36.375
Q16.5 21.3906 20.3281 13.8906
Q24.1719 6.39062 31.7812 6.39062
Q39.4531 6.39062 43.2812 13.8906
Q47.125 21.3906 47.125 36.375
Q47.125 51.4219 43.2812 58.9062
Q39.4531 66.4062 31.7812 66.4062
M31.7812 74.2188
Q44.0469 74.2188 50.5156 64.5156
Q56.9844 54.8281 56.9844 36.375
Q56.9844 17.9688 50.5156 8.26562
Q44.0469 -1.42188 31.7812 -1.42188
Q19.5312 -1.42188 13.0625 8.26562
Q6.59375 17.9688 6.59375 36.375
Q6.59375 54.8281 13.0625 64.5156
Q19.5312 74.2188 31.7812 74.2188" id="BitstreamVeraSans-Roman-30"/>
       <path d="
M12.4062 8.29688
L28.5156 8.29688
L28.5156 63.9219
L10.9844 60.4062
L10.9844 69.3906
L28.4219 72.9062
L38.2812 72.9062
L38.2812 8.29688
L54.3906 8.29688
L54.3906 0
L12.4062 0
z
" id="BitstreamVeraSans-Roman-31"/>
      </defs>
      <g transform="translate(309.709732462 38.089375)scale(0.24 -0.24)">
       <use xlink:href="#BitstreamVeraSans-Roman-31"/>
       <use x="63.623046875" xlink:href="#BitstreamVeraSans-Roman-30"/>
      </g>
     </g>
    </g>
    <g id="xtick_3">
     <g id="line2d_6">
      <path d="
M456.442 412.239
L456.442 8.51291" style="fill:none;stroke:#000000;stroke-dasharray:1.000000,3.000000;stroke-dashoffset:0.0;stroke-linecap:butt;stroke-width:0.5;"/>
     </g>
     <g id="line2d_7">
      <defs>
       <path d="
M0 0
L0 -4" id="m3fe2698bfe"/>
      </defs>
      <g>
       <use style="stroke:#000000;stroke-linecap:butt;stroke-width:0.5;" x="456.441848234" xlink:href="#m3fe2698bfe" y="16.276875"/>
      </g>
     </g>
     <g id="text_3">
      <!-- 15 -->
      <g transform="translate(443.538098234 37.774375)scale(0.24 -0.24)">
       <use xlink:href="#BitstreamVeraSans-Roman-31"/>
       <use x="63.623046875" xlink:href="#BitstreamVeraSans-Roman-35"/>
      </g>
     </g>
    </g>
    <g id="xtick_4">
     <g id="line2d_8">
      <defs>
       <path d="
M0 0
L0 -2" id="maa226e29bf"/>
      </defs>
      <g>
       <use style="stroke:#000000;stroke-linecap:butt;stroke-width:0.5;" x="82.4259240713" xlink:href="#maa226e29bf" y="16.276875"/>
      </g>
     </g>
    </g>
    <g id="xtick_5">
     <g id="line2d_9">
      <defs>
       <path d="
M0 0
L0 -2" id="maa226e29bf"/>
      </defs>
      <g>
       <use style="stroke:#000000;stroke-linecap:butt;stroke-width:0.5;" x="109.141347226" xlink:href="#maa226e29bf" y="16.276875"/>
      </g>
     </g>
    </g>
    <g id="xtick_6">
     <g id="line2d_10">
      <defs>
       <path d="
M0 0
L0 -2" id="maa226e29bf"/>
      </defs>
      <g>
       <use style="stroke:#000000;stroke-linecap:butt;stroke-width:0.5;" x="135.85677038" xlink:href="#maa226e29bf" y="16.276875"/>
      </g>
     </g>
    </g>
    <g id="xtick_7">
     <g id="line2d_11">
      <defs>
       <path d="
M0 0
L0 -2" id="maa226e29bf"/>
      </defs>
      <g>
       <use style="stroke:#000000;stroke-linecap:butt;stroke-width:0.5;" x="162.572193535" xlink:href="#maa226e29bf" y="16.276875"/>
      </g>
     </g>
    </g>
    <g id="xtick_8">
     <g id="line2d_12">
      <defs>
       <path d="
M0 0
L0 -2" id="maa226e29bf"/>
      </defs>
      <g>
       <use style="stroke:#000000;stroke-linecap:butt;stroke-width:0.5;" x="216.003039844" xlink:href="#maa226e29bf" y="16.276875"/>
      </g>
     </g>
    </g>
    <g id="xtick_9">
     <g id="line2d_13">
      <defs>
       <path d="
M0 0
L0 -2" id="maa226e29bf"/>
      </defs>
      <g>
       <use style="stroke:#000000;stroke-linecap:butt;stroke-width:0.5;" x="242.718462998" xlink:href="#maa226e29bf" y="16.276875"/>
      </g>
     </g>
    </g>
    <g id="xtick_10">
     <g id="line2d_14">
      <defs>
       <path d="
M0 0
L0 -2" id="maa226e29bf"/>
      </defs>
      <g>
       <use style="stroke:#000000;stroke-linecap:butt;stroke-width:0.5;" x="269.433886153" xlink:href="#maa226e29bf" y="16.276875"/>
      </g>
     </g>
    </g>
    <g id="xtick_11">
     <g id="line2d_15">
      <defs>
       <path d="
M0 0
L0 -2" id="maa226e29bf"/>
      </defs>
      <g>
       <use style="stroke:#000000;stroke-linecap:butt;stroke-width:0.5;" x="296.149309307" xlink:href="#maa226e29bf" y="16.276875"/>
      </g>
     </g>
    </g>
    <g id="xtick_12">
     <g id="line2d_16">
      <defs>
       <path d="
M0 0
L0 -2" id="maa226e29bf"/>
      </defs>
      <g>
       <use style="stroke:#000000;stroke-linecap:butt;stroke-width:0.5;" x="349.580155616" xlink:href="#maa226e29bf" y="16.276875"/>
      </g>
     </g>
    </g>
    <g id="xtick_13">
     <g id="line2d_17">
      <defs>
       <path d="
M0 0
L0 -2" id="maa226e29bf"/>
      </defs>
      <g>
       <use style="stroke:#000000;stroke-linecap:butt;stroke-width:0.5;" x="376.29557877" xlink:href="#maa226e29bf" y="16.276875"/>
      </g>
     </g>
    </g>
    <g id="xtick_14">
     <g id="line2d_18">
      <defs>
       <path d="
M0 0
L0 -2" id="maa226e29bf"/>
      </defs>
      <g>
       <use style="stroke:#000000;stroke-linecap:butt;stroke-width:0.5;" x="403.011001925" xlink:href="#maa226e29bf" y="16.276875"/>
      </g>
     </g>
    </g>
    <g id="xtick_15">
     <g id="line2d_19">
      <defs>
       <path d="
M0 0
L0 -2" id="maa226e29bf"/>
      </defs>
      <g>
       <use style="stroke:#000000;stroke-linecap:butt;stroke-width:0.5;" x="429.726425079" xlink:href="#maa226e29bf" y="16.276875"/>
      </g>
     </g>
    </g>
    <g id="xtick_16">
     <g id="line2d_20">
      <defs>
       <path d="
M0 0
L0 -2" id="maa226e29bf"/>
      </defs>
      <g>
       <use style="stroke:#000000;stroke-linecap:butt;stroke-width:0.5;" x="483.157271388" xlink:href="#maa226e29bf" y="16.276875"/>
      </g>
     </g>
    </g>
    <g id="xtick_17">
     <g id="line2d_21">
      <defs>
       <path d="
M0 0
L0 -2" id="maa226e29bf"/>
      </defs>
      <g>
       <use style="stroke:#000000;stroke-linecap:butt;stroke-width:0.5;" x="509.872694543" xlink:href="#maa226e29bf" y="16.276875"/>
      </g>
     </g>
    </g>
   </g>
   <g id="matplotlib.axis_2">
    <g id="ytick_1">
     <g id="line2d_22">
      <path d="
M64.7562 380.403
L557.299 380.403" style="fill:none;stroke:#000000;stroke-dasharray:1.000000,3.000000;stroke-dashoffset:0.0;stroke-linecap:butt;stroke-width:0.5;"/>
     </g>
     <g id="line2d_23">
      <defs>
       <path d="
M0 0
L4 0" id="mfe4d449ad9"/>
      </defs>
      <g>
       <use style="stroke:#000000;stroke-linecap:butt;stroke-width:0.5;" x="54.75625" xlink:href="#mfe4d449ad9" y="380.403401495"/>
      </g>
     </g>
     <g id="text_4">
      <!-- -2.5 -->
      <defs>
       <path d="
M19.1875 8.29688
L53.6094 8.29688
L53.6094 0
L7.32812 0
L7.32812 8.29688
Q12.9375 14.1094 22.625 23.8906
Q32.3281 33.6875 34.8125 36.5312
Q39.5469 41.8438 41.4219 45.5312
Q43.3125 49.2188 43.3125 52.7812
Q43.3125 58.5938 39.2344 62.25
Q35.1562 65.9219 28.6094 65.9219
Q23.9688 65.9219 18.8125 64.3125
Q13.6719 62.7031 7.8125 59.4219
L7.8125 69.3906
Q13.7656 71.7812 18.9375 73
Q24.125 74.2188 28.4219 74.2188
Q39.75 74.2188 46.4844 68.5469
Q53.2188 62.8906 53.2188 53.4219
Q53.2188 48.9219 51.5312 44.8906
Q49.8594 40.875 45.4062 35.4062
Q44.1875 33.9844 37.6406 27.2188
Q31.1094 20.4531 19.1875 8.29688" id="BitstreamVeraSans-Roman-32"/>
       <path d="
M10.6875 12.4062
L21 12.4062
L21 0
L10.6875 0
z
" id="BitstreamVeraSans-Roman-2e"/>
       <path d="
M4.89062 31.3906
L31.2031 31.3906
L31.2031 23.3906
L4.89062 23.3906
z
" id="BitstreamVeraSans-Roman-2d"/>
      </defs>
      <g transform="translate(7.2 389.139026495)scale(0.24 -0.24)">
       <use xlink:href="#BitstreamVeraSans-Roman-2d"/>
       <use x="36.083984375" xlink:href="#BitstreamVeraSans-Roman-32"/>
       <use x="99.70703125" xlink:href="#BitstreamVeraSans-Roman-2e"/>
       <use x="131.494140625" xlink:href="#BitstreamVeraSans-Roman-35"/>
      </g>
     </g>
    </g>
    <g id="ytick_2">
     <g id="line2d_24">
      <path d="
M64.7562 307.578
L557.299 307.578" style="fill:none;stroke:#000000;stroke-dasharray:1.000000,3.000000;stroke-dashoffset:0.0;stroke-linecap:butt;stroke-width:0.5;"/>
     </g>
     <g id="line2d_25">
      <defs>
       <path d="
M0 0
L4 0" id="mfe4d449ad9"/>
      </defs>
      <g>
       <use style="stroke:#000000;stroke-linecap:butt;stroke-width:0.5;" x="54.75625" xlink:href="#mfe4d449ad9" y="307.578096196"/>
      </g>
     </g>
     <g id="text_5">
      <!-- -2 -->
      <g transform="translate(30.405 316.484346196)scale(0.24 -0.24)">
       <use xlink:href="#BitstreamVeraSans-Roman-2d"/>
       <use x="36.083984375" xlink:href="#BitstreamVeraSans-Roman-32"/>
      </g>
     </g>
    </g>
    <g id="ytick_3">
     <g id="line2d_26">
      <path d="
M64.7562 234.753
L557.299 234.753" style="fill:none;stroke:#000000;stroke-dasharray:1.000000,3.000000;stroke-dashoffset:0.0;stroke-linecap:butt;stroke-width:0.5;"/>
     </g>
     <g id="line2d_27">
      <defs>
       <path d="
M0 0
L4 0" id="mfe4d449ad9"/>
      </defs>
      <g>
       <use style="stroke:#000000;stroke-linecap:butt;stroke-width:0.5;" x="54.75625" xlink:href="#mfe4d449ad9" y="234.752790897"/>
      </g>
     </g>
     <g id="text_6">
      <!-- -1.5 -->
      <g transform="translate(7.2 243.330915897)scale(0.24 -0.24)">
       <use xlink:href="#BitstreamVeraSans-Roman-2d"/>
       <use x="36.083984375" xlink:href="#BitstreamVeraSans-Roman-31"/>
       <use x="99.70703125" xlink:href="#BitstreamVeraSans-Roman-2e"/>
       <use x="131.494140625" xlink:href="#BitstreamVeraSans-Roman-35"/>
      </g>
     </g>
    </g>
    <g id="ytick_4">
     <g id="line2d_28">
      <path d="
M64.7562 161.927
L557.299 161.927" style="fill:none;stroke:#000000;stroke-dasharray:1.000000,3.000000;stroke-dashoffset:0.0;stroke-linecap:butt;stroke-width:0.5;"/>
     </g>
     <g id="line2d_29">
      <defs>
       <path d="
M0 0
L4 0" id="mfe4d449ad9"/>
      </defs>
      <g>
       <use style="stroke:#000000;stroke-linecap:butt;stroke-width:0.5;" x="54.75625" xlink:href="#mfe4d449ad9" y="161.927485598"/>
      </g>
     </g>
     <g id="text_7">
      <!-- -1 -->
      <g transform="translate(30.2175 170.676235598)scale(0.24 -0.24)">
       <use xlink:href="#BitstreamVeraSans-Roman-2d"/>
       <use x="36.083984375" xlink:href="#BitstreamVeraSans-Roman-31"/>
      </g>
     </g>
    </g>
    <g id="ytick_5">
     <g id="line2d_30">
      <path d="
M64.7562 89.1022
L557.299 89.1022" style="fill:none;stroke:#000000;stroke-dasharray:1.000000,3.000000;stroke-dashoffset:0.0;stroke-linecap:butt;stroke-width:0.5;"/>
     </g>
     <g id="line2d_31">
      <defs>
       <path d="
M0 0
L4 0" id="mfe4d449ad9"/>
      </defs>
      <g>
       <use style="stroke:#000000;stroke-linecap:butt;stroke-width:0.5;" x="54.75625" xlink:href="#mfe4d449ad9" y="89.1021802991"/>
      </g>
     </g>
     <g id="text_8">
      <!-- -0.5 -->
      <g transform="translate(7.2 97.8378052991)scale(0.24 -0.24)">
       <use xlink:href="#BitstreamVeraSans-Roman-2d"/>
       <use x="36.083984375" xlink:href="#BitstreamVeraSans-Roman-30"/>
       <use x="99.70703125" xlink:href="#BitstreamVeraSans-Roman-2e"/>
       <use x="131.494140625" xlink:href="#BitstreamVeraSans-Roman-35"/>
      </g>
     </g>
    </g>
    <g id="ytick_6">
     <g id="line2d_32">
      <path d="
M64.7562 16.2769
L557.299 16.2769" style="fill:none;stroke:#000000;stroke-dasharray:1.000000,3.000000;stroke-dashoffset:0.0;stroke-linecap:butt;stroke-width:0.5;"/>
     </g>
     <g id="line2d_33">
      <defs>
       <path d="
M0 0
L4 0" id="mfe4d449ad9"/>
      </defs>
      <g>
       <use style="stroke:#000000;stroke-linecap:butt;stroke-width:0.5;" x="54.75625" xlink:href="#mfe4d449ad9" y="16.276875"/>
      </g>
     </g>
     <g id="text_9">
      <!-- 0 -->
      <g transform="translate(38.6625 25.0125)scale(0.24 -0.24)">
       <use xlink:href="#BitstreamVeraSans-Roman-30"/>
      </g>
     </g>
    </g>
    <g id="ytick_7">
     <g id="line2d_34">
      <defs>
       <path d="
M0 0
L2 0" id="md4a8f1e07c"/>
      </defs>
      <g>
       <use style="stroke:#000000;stroke-linecap:butt;stroke-width:0.5;" x="54.75625" xlink:href="#md4a8f1e07c" y="409.533523615"/>
      </g>
     </g>
    </g>
    <g id="ytick_8">
     <g id="line2d_35">
      <defs>
       <path d="
M0 0
L2 0" id="md4a8f1e07c"/>
      </defs>
      <g>
       <use style="stroke:#000000;stroke-linecap:butt;stroke-width:0.5;" x="54.75625" xlink:href="#md4a8f1e07c" y="394.968462555"/>
      </g>
     </g>
    </g>
    <g id="ytick_9">
     <g id="line2d_36">
      <defs>
       <path d="
M0 0
L2 0" id="md4a8f1e07c"/>
      </defs>
      <g>
       <use style="stroke:#000000;stroke-linecap:butt;stroke-width:0.5;" x="54.75625" xlink:href="#md4a8f1e07c" y="365.838340436"/>
      </g>
     </g>
    </g>
    <g id="ytick_10">
     <g id="line2d_37">
      <defs>
       <path d="
M0 0
L2 0" id="md4a8f1e07c"/>
      </defs>
      <g>
       <use style="stroke:#000000;stroke-linecap:butt;stroke-width:0.5;" x="54.75625" xlink:href="#md4a8f1e07c" y="351.273279376"/>
      </g>
     </g>
    </g>
    <g id="ytick_11">
     <g id="line2d_38">
      <defs>
       <path d="
M0 0
L2 0" id="md4a8f1e07c"/>
      </defs>
      <g>
       <use style="stroke:#000000;stroke-linecap:butt;stroke-width:0.5;" x="54.75625" xlink:href="#md4a8f1e07c" y="336.708218316"/>
      </g>
     </g>
    </g>
    <g id="ytick_12">
     <g id="line2d_39">
      <defs>
       <path d="
M0 0
L2 0" id="md4a8f1e07c"/>
      </defs>
      <g>
       <use style="stroke:#000000;stroke-linecap:butt;stroke-width:0.5;" x="54.75625" xlink:href="#md4a8f1e07c" y="322.143157256"/>
      </g>
     </g>
    </g>
    <g id="ytick_13">
     <g id="line2d_40">
      <defs>
       <path d="
M0 0
L2 0" id="md4a8f1e07c"/>
      </defs>
      <g>
       <use style="stroke:#000000;stroke-linecap:butt;stroke-width:0.5;" x="54.75625" xlink:href="#md4a8f1e07c" y="293.013035136"/>
      </g>
     </g>
    </g>
    <g id="ytick_14">
     <g id="line2d_41">
      <defs>
       <path d="
M0 0
L2 0" id="md4a8f1e07c"/>
      </defs>
      <g>
       <use style="stroke:#000000;stroke-linecap:butt;stroke-width:0.5;" x="54.75625" xlink:href="#md4a8f1e07c" y="278.447974077"/>
      </g>
     </g>
    </g>
    <g id="ytick_15">
     <g id="line2d_42">
      <defs>
       <path d="
M0 0
L2 0" id="md4a8f1e07c"/>
      </defs>
      <g>
       <use style="stroke:#000000;stroke-linecap:butt;stroke-width:0.5;" x="54.75625" xlink:href="#md4a8f1e07c" y="263.882913017"/>
      </g>
     </g>
    </g>
    <g id="ytick_16">
     <g id="line2d_43">
      <defs>
       <path d="
M0 0
L2 0" id="md4a8f1e07c"/>
      </defs>
      <g>
       <use style="stroke:#000000;stroke-linecap:butt;stroke-width:0.5;" x="54.75625" xlink:href="#md4a8f1e07c" y="249.317851957"/>
      </g>
     </g>
    </g>
    <g id="ytick_17">
     <g id="line2d_44">
      <defs>
       <path d="
M0 0
L2 0" id="md4a8f1e07c"/>
      </defs>
      <g>
       <use style="stroke:#000000;stroke-linecap:butt;stroke-width:0.5;" x="54.75625" xlink:href="#md4a8f1e07c" y="234.752790897"/>
      </g>
     </g>
    </g>
    <g id="ytick_18">
     <g id="line2d_45">
      <defs>
       <path d="
M0 0
L2 0" id="md4a8f1e07c"/>
      </defs>
      <g>
       <use style="stroke:#000000;stroke-linecap:butt;stroke-width:0.5;" x="54.75625" xlink:href="#md4a8f1e07c" y="220.187729837"/>
      </g>
     </g>
    </g>
    <g id="ytick_19">
     <g id="line2d_46">
      <defs>
       <path d="
M0 0
L2 0" id="md4a8f1e07c"/>
      </defs>
      <g>
       <use style="stroke:#000000;stroke-linecap:butt;stroke-width:0.5;" x="54.75625" xlink:href="#md4a8f1e07c" y="205.622668778"/>
      </g>
     </g>
    </g>
    <g id="ytick_20">
     <g id="line2d_47">
      <defs>
       <path d="
M0 0
L2 0" id="md4a8f1e07c"/>
      </defs>
      <g>
       <use style="stroke:#000000;stroke-linecap:butt;stroke-width:0.5;" x="54.75625" xlink:href="#md4a8f1e07c" y="191.057607718"/>
      </g>
     </g>
    </g>
    <g id="ytick_21">
     <g id="line2d_48">
      <defs>
       <path d="
M0 0
L2 0" id="md4a8f1e07c"/>
      </defs>
      <g>
       <use style="stroke:#000000;stroke-linecap:butt;stroke-width:0.5;" x="54.75625" xlink:href="#md4a8f1e07c" y="176.492546658"/>
      </g>
     </g>
    </g>
    <g id="ytick_22">
     <g id="line2d_49">
      <defs>
       <path d="
M0 0
L2 0" id="md4a8f1e07c"/>
      </defs>
      <g>
       <use style="stroke:#000000;stroke-linecap:butt;stroke-width:0.5;" x="54.75625" xlink:href="#md4a8f1e07c" y="161.927485598"/>
      </g>
     </g>
    </g>
    <g id="ytick_23">
     <g id="line2d_50">
      <defs>
       <path d="
M0 0
L2 0" id="md4a8f1e07c"/>
      </defs>
      <g>
       <use style="stroke:#000000;stroke-linecap:butt;stroke-width:0.5;" x="54.75625" xlink:href="#md4a8f1e07c" y="147.362424538"/>
      </g>
     </g>
    </g>
    <g id="ytick_24">
     <g id="line2d_51">
      <defs>
       <path d="
M0 0
L2 0" id="md4a8f1e07c"/>
      </defs>
      <g>
       <use style="stroke:#000000;stroke-linecap:butt;stroke-width:0.5;" x="54.75625" xlink:href="#md4a8f1e07c" y="132.797363479"/>
      </g>
     </g>
    </g>
    <g id="ytick_25">
     <g id="line2d_52">
      <defs>
       <path d="
M0 0
L2 0" id="md4a8f1e07c"/>
      </defs>
      <g>
       <use style="stroke:#000000;stroke-linecap:butt;stroke-width:0.5;" x="54.75625" xlink:href="#md4a8f1e07c" y="118.232302419"/>
      </g>
     </g>
    </g>
    <g id="ytick_26">
     <g id="line2d_53">
      <defs>
       <path d="
M0 0
L2 0" id="md4a8f1e07c"/>
      </defs>
      <g>
       <use style="stroke:#000000;stroke-linecap:butt;stroke-width:0.5;" x="54.75625" xlink:href="#md4a8f1e07c" y="103.667241359"/>
      </g>
     </g>
    </g>
    <g id="ytick_27">
     <g id="line2d_54">
      <defs>
       <path d="
M0 0
L2 0" id="md4a8f1e07c"/>
      </defs>
      <g>
       <use style="stroke:#000000;stroke-linecap:butt;stroke-width:0.5;" x="54.75625" xlink:href="#md4a8f1e07c" y="89.1021802991"/>
      </g>
     </g>
    </g>
    <g id="ytick_28">
     <g id="line2d_55">
      <defs>
       <path d="
M0 0
L2 0" id="md4a8f1e07c"/>
      </defs>
      <g>
       <use style="stroke:#000000;stroke-linecap:butt;stroke-width:0.5;" x="54.75625" xlink:href="#md4a8f1e07c" y="74.5371192393"/>
      </g>
     </g>
    </g>
    <g id="ytick_29">
     <g id="line2d_56">
      <defs>
       <path d="
M0 0
L2 0" id="md4a8f1e07c"/>
      </defs>
      <g>
       <use style="stroke:#000000;stroke-linecap:butt;stroke-width:0.5;" x="54.75625" xlink:href="#md4a8f1e07c" y="59.9720581794"/>
      </g>
     </g>
    </g>
    <g id="ytick_30">
     <g id="line2d_57">
      <defs>
       <path d="
M0 0
L2 0" id="md4a8f1e07c"/>
      </defs>
      <g>
       <use style="stroke:#000000;stroke-linecap:butt;stroke-width:0.5;" x="54.75625" xlink:href="#md4a8f1e07c" y="45.4069971196"/>
      </g>
     </g>
    </g>
    <g id="ytick_31">
     <g id="line2d_58">
      <defs>
       <path d="
M0 0
L2 0" id="md4a8f1e07c"/>
      </defs>
      <g>
       <use style="stroke:#000000;stroke-linecap:butt;stroke-width:0.5;" x="54.75625" xlink:href="#md4a8f1e07c" y="30.8419360598"/>
      </g>
     </g>
    </g>
   </g>
   <g id="patch_3">
    <path d="
M64.7562 16.2769
L557.299 16.2769" style="fill:none;stroke:#000000;stroke-width:0.8;"/>
   </g>
   <g id="patch_4">
    <path d="
M54.7562 412.239
L54.7562 8.51291" style="fill:none;stroke:#000000;stroke-width:0.8;"/>
   </g>
  </g>
 </g>
 <defs>
  <clipPath id="p2fe29bff6c">
   <rect height="403.726153846" width="492.5425" x="64.75625" y="8.51291050296"/>
  </clipPath>
 </defs>
</svg>
