<?xml version="1.0" encoding="utf-8" standalone="no"?>
<!DOCTYPE svg PUBLIC "-//W3C//DTD SVG 1.1//EN"
  "http://www.w3.org/Graphics/SVG/1.1/DTD/svg11.dtd">
<!-- Created with matplotlib (http://matplotlib.sourceforge.net/) -->
<svg height="420pt" version="1.1" viewBox="0 0 562 420" width="562pt" xmlns="http://www.w3.org/2000/svg" xmlns:xlink="http://www.w3.org/1999/xlink">
 <defs>
  <style type="text/css">
*{stroke-linecap:square;stroke-linejoin:round;}
  </style>
 </defs>
 <g id="figure_1">
  <g id="patch_1">
   <path d="
M0 420.48
L562.744 420.48
L562.744 0
L0 0
z
" style="fill:#ffffff;"/>
  </g>
  <g id="axes_1">
   <g id="patch_2">
    <path d="
M19.0309 413.28
L555.544 413.28
L555.544 7.2
L19.0309 7.2
z
" style="fill:#ffffff;"/>
   </g>
   <g id="line2d_1">
    <path clip-path="url(#p13c0847ff8)" d="
M29.3484 15.0092
L29.3965 15.0092
L29.3965 405.471
L29.4537 378.926
L29.5147 378.926
L29.5768 355.535
L29.6415 355.535
L29.7082 341.134
L29.7741 341.134
L29.8417 335.618
L29.911 335.618
L29.9804 331.809
L30.0506 331.809
L30.1209 329.424
L30.1923 329.424
L30.2646 324.924
L30.3362 324.924
L30.4089 321.457
L30.4818 321.457
L30.555 316.961
L30.6286 316.961
L30.7035 313.027
L30.7767 313.027
L30.852 311.137
L30.9277 311.137
L31.0018 309.405
L31.077 309.405
L31.1528 308.592
L31.3063 308.537
L31.3063 308.33
L31.3818 308.375
L31.4605 308.375
L31.5366 308.067
L31.6132 308.067
L31.6911 307.607
L31.7694 307.607
L31.8457 306.868
L31.9236 306.868
L32.0021 305.552
L32.0794 305.552
L32.1589 304.09
L32.238 304.09
L32.317 302.404
L32.3944 302.404
L32.4739 300.872
L32.5522 300.872
L32.6328 299.939
L32.714 299.939
L32.7931 299.405
L32.9523 299.338
L33.0317 299.186
L33.194 299.091
L33.194 299.073
L33.2745 299.073
L33.2745 299.073
L33.3546 299.377
L33.4347 299.377
L33.5151 299.827
L33.5956 299.827
L33.6766 300.56
L33.7591 300.56
L33.8384 301.333
L33.92 301.333
L34.0021 302.047
L34.0836 302.047
L34.1652 302.606
L34.2478 302.606
L34.3296 302.889
L34.4956 302.953
L34.5762 303.098
L34.7408 303.154
L34.8254 303.396
L34.9903 303.504
L35.0714 303.784
L35.1546 303.784
L35.2369 304.192
L35.3205 304.192
L35.4024 304.735
L35.4832 304.735
L35.568 305.344
L35.651 305.344
L35.7368 306.008
L35.8201 306.008
L35.9019 306.72
L35.9858 306.72
L36.07 307.651
L36.1537 307.651
L36.2385 308.403
L36.3227 308.403
L36.4067 308.952
L36.4904 308.952
L36.5719 309.42
L36.7427 309.491
L36.8268 309.679
L37.1613 309.77
L37.2476 309.812
L37.8443 309.908
L37.9297 309.974
L38.0999 310.051
L38.1847 310.236
L38.4438 310.341
L38.4438 310.363
L38.5285 310.351
L39.8997 310.455
L39.9869 310.485
L40.2471 310.584
L40.3335 310.73
L40.5921 310.81
L40.6796 310.903
L40.9421 311.002
L41.0281 311.095
L41.4661 311.174
L41.5525 311.225
L42.3416 311.159
L42.4273 311.049
L43.0413 310.95
L43.13 310.838
L43.3043 310.774
L43.3918 310.613
L43.5709 310.527
L43.6582 310.325
L43.8354 310.246
L43.9198 310.046
L44.0964 309.943
L44.1862 309.797
L44.3635 309.721
L44.4527 309.572
L44.6313 309.482
L44.7199 309.345
L44.8952 309.283
L44.9857 309.141
L45.1661 309.084
L45.2524 308.948
L45.4295 308.881
L45.5177 308.771
L45.6963 308.708
L45.7847 308.605
L46.0469 308.499
L46.1373 308.383
L46.3151 308.314
L46.4057 308.211
L46.7643 308.13
L46.8537 308.089
L47.3009 308.184
L47.3922 308.236
L47.8452 308.342
L47.9341 308.383
L48.559 308.482
L48.6474 308.523
L49.8213 308.414
L49.9123 308.32
L50.1824 308.226
L50.2718 308.152
L50.5425 308.073
L50.635 307.996
L51.1781 307.905
L51.2702 307.839
L51.8181 307.738
L51.9091 307.663
L52.2695 307.581
L52.3596 307.507
L52.6326 307.429
L52.7246 307.317
L52.9978 307.229
L53.0901 307.146
L53.4555 307.043
L53.5445 306.997
L53.9109 306.91
L54.0029 306.851
L54.3692 306.754
L54.4598 306.676
L54.7326 306.578
L54.8242 306.49
L55.0945 306.398
L55.1877 306.29
L55.5561 306.192
L55.6472 306.144
L56.109 306.033
L56.2001 305.971
L56.4746 305.881
L56.5656 305.768
L56.7511 305.695
L56.8435 305.544
L57.027 305.463
L57.1178 305.274
L57.3037 305.171
L57.396 304.962
L57.5798 304.873
L57.673 304.703
L57.8589 304.626
L57.9516 304.469
L58.1372 304.399
L58.2295 304.269
L58.4149 304.198
L58.5083 304.053
L58.6958 303.972
L58.7853 303.821
L58.9706 303.751
L59.0631 303.6
L59.2514 303.522
L59.3437 303.374
L59.5287 303.296
L59.6226 303.147
L59.8048 303.073
L59.895 302.917
L60.0806 302.837
L60.1745 302.694
L60.3589 302.621
L60.4499 302.464
L60.6394 302.386
L60.7327 302.258
L60.9174 302.195
L61.0115 302.066
L61.1953 302.006
L61.2912 301.901
L61.5705 301.823
L61.6623 301.762
L63.5254 301.657
L63.6193 301.624
L64.0859 301.526
L64.1796 301.471
L64.7394 301.362
L64.8317 301.304
L67.6452 301.408
L67.739 301.425
L68.4954 301.532
L68.587 301.56
L69.7204 301.67
L69.8142 301.691
L71.1392 301.801
L71.2336 301.827
L71.7988 301.92
L71.8925 301.96
L72.5575 302.068
L72.652 302.087
L74.7331 302.197
L74.8288 302.204
L76.2617 302.106
L76.3569 302.079
L77.4024 301.969
L77.4989 301.95
L78.4562 301.84
L78.5518 301.812
L79.3124 301.706
L79.4102 301.667
L79.9844 301.557
L80.0779 301.512
L80.466 301.422
L80.5626 301.374
L81.1396 301.268
L81.235 301.229
L81.906 301.118
L82.0044 301.077
L82.7726 300.972
L82.8668 300.943
L83.729 300.837
L83.8235 300.799
L84.4003 300.702
L84.4929 300.669
L85.2667 300.568
L85.361 300.544
L85.9371 300.456
L86.0343 300.406
L86.5156 300.302
L86.6113 300.244
L86.9974 300.158
L87.0929 300.101
L87.5786 299.993
L87.676 299.935
L88.0634 299.841
L88.1598 299.776
L88.5436 299.68
L88.6432 299.615
L89.1225 299.507
L89.2198 299.463
L89.7986 299.353
L89.8954 299.314
L90.3776 299.21
L90.4788 299.16
L90.9605 299.062
L91.0541 299.005
L91.4446 298.911
L91.5421 298.843
L91.9309 298.747
L92.0252 298.682
L92.3197 298.606
L92.4151 298.53
L92.7062 298.449
L92.8026 298.364
L93.0933 298.27
L93.1867 298.181
L93.4762 298.096
L93.5742 298.011
L93.8698 297.922
L93.9629 297.828
L94.2584 297.732
L94.3548 297.64
L94.6462 297.553
L94.7448 297.472
L95.0333 297.392
L95.1286 297.307
L95.4182 297.222
L95.5168 297.136
L95.8079 297.044
L95.9069 296.953
L96.2021 296.869
L96.3003 296.78
L96.5934 296.69
L96.6895 296.6
L96.987 296.513
L97.0845 296.423
L97.377 296.328
L97.4729 296.237
L97.7674 296.146
L97.8628 296.057
L98.156 295.965
L98.2545 295.868
L98.5473 295.769
L98.6452 295.665
L98.9397 295.562
L99.0378 295.472
L99.333 295.384
L99.4303 295.299
L99.7207 295.212
L99.8179 295.131
L100.109 295.051
L100.208 294.971
L100.597 294.867
L100.695 294.81
L101.178 294.715
L101.277 294.664
L101.771 294.56
L101.872 294.51
L102.358 294.412
L102.457 294.363
L103.043 294.256
L103.143 294.219
L103.823 294.116
L103.921 294.082
L104.904 293.976
L105.004 293.96
L111.986 294.069
L112.084 294.075
L116.73 294.179
L116.825 294.195
L120.381 294.301
L120.484 294.316
L121.577 294.42
L121.677 294.448
L122.672 294.551
L122.769 294.57
L125.753 294.68
L125.854 294.684
L128.744 294.791
L128.846 294.805
L131.637 294.91
L131.737 294.928
L133.835 295.035
L133.937 295.044
L141.751 295.152
L141.854 295.161
L145.381 295.271
L145.483 295.279
L150.613 295.174
L150.715 295.156
L152.333 295.047
L152.437 295.039
L154.047 294.935
L154.149 294.918
L155.661 294.814
L155.763 294.801
L157.886 294.69
L157.99 294.675
L159.514 294.567
L159.618 294.552
L161.137 294.446
L161.24 294.432
L163.465 294.326
L163.568 294.313
L165.4 294.203
L165.501 294.189
L167.429 294.084
L167.531 294.071
L173.837 293.961
L173.935 293.954
L176.996 293.848
L177.097 293.833
L178.839 293.729
L178.94 293.711
L180.375 293.6
L180.475 293.584
L182.011 293.48
L182.113 293.466
L184.048 293.359
L184.148 293.348
L185.779 293.237
L185.878 293.221
L187.211 293.115
L187.314 293.1
L188.846 292.995
L188.949 292.979
L190.706 292.873
L190.804 292.86
L192.657 292.751
L192.759 292.735
L194.4 292.628
L194.502 292.617
L196.866 292.511
L196.967 292.501
L199.128 292.393
L199.231 292.381
L200.876 292.273
L200.977 292.259
L202.623 292.155
L202.726 292.136
L203.855 292.029
L203.959 292.006
L205.1 291.898
L205.204 291.878
L206.347 291.777
L206.452 291.757
L207.692 291.648
L207.795 291.625
L208.834 291.52
L208.936 291.497
L210.174 291.388
L210.279 291.368
L211.517 291.257
L211.62 291.238
L212.754 291.136
L212.858 291.117
L214.723 291.008
L214.827 290.999
L218.031 290.891
L218.131 290.881
L220.417 290.772
L220.522 290.759
L222.38 290.652
L222.487 290.639
L224.248 290.529
L224.352 290.515
L225.704 290.409
L225.803 290.396
L228.077 290.286
L228.185 290.276
L230.57 290.167
L230.672 290.156
L232.535 290.047
L232.638 290.033
L234.188 289.928
L234.296 289.913
L235.757 289.803
L235.864 289.786
L237.316 289.677
L237.418 289.662
L238.777 289.555
L238.882 289.539
L240.441 289.433
L240.546 289.416
L242.108 289.308
L242.214 289.293
L243.778 289.185
L243.886 289.172
L245.554 289.066
L245.663 289.051
L247.125 288.946
L247.23 288.93
L249 288.82
L249.106 288.809
L251.201 288.701
L251.309 288.689
L253.083 288.582
L253.186 288.567
L254.653 288.461
L254.757 288.445
L256.117 288.341
L256.219 288.323
L257.584 288.213
L257.689 288.196
L259.154 288.09
L259.259 288.071
L260.507 287.965
L260.612 287.943
L261.662 287.842
L261.766 287.82
L262.915 287.714
L263.017 287.696
L264.478 287.591
L264.578 287.573
L266.049 287.47
L266.15 287.455
L267.726 287.348
L267.832 287.334
L269.408 287.225
L269.514 287.208
L271.085 287.101
L271.19 287.083
L272.661 286.975
L272.766 286.959
L274.134 286.851
L274.241 286.833
L275.714 286.725
L275.82 286.707
L277.187 286.603
L277.296 286.585
L278.664 286.478
L278.769 286.458
L279.929 286.353
L280.032 286.331
L281.194 286.228
L281.297 286.21
L282.773 286.103
L282.88 286.087
L284.346 285.983
L284.452 285.966
L285.815 285.86
L285.921 285.841
L287.394 285.733
L287.499 285.718
L289.079 285.611
L289.186 285.594
L290.66 285.487
L290.767 285.471
L292.351 285.364
L292.453 285.348
L293.829 285.244
L293.935 285.226
L295.513 285.122
L295.617 285.107
L297.2 285.001
L297.304 284.987
L298.996 284.882
L299.106 284.868
L300.795 284.76
L300.9 284.744
L302.274 284.639
L302.378 284.62
L303.962 284.51
L304.07 284.496
L305.556 284.385
L305.662 284.367
L307.04 284.256
L307.149 284.236
L308.52 284.125
L308.623 284.107
L310.221 283.998
L310.329 283.984
L311.81 283.878
L311.916 283.86
L313.294 283.757
L313.399 283.74
L314.884 283.631
L314.99 283.613
L316.476 283.503
L316.58 283.486
L318.168 283.376
L318.272 283.36
L319.643 283.255
L319.749 283.236
L321.137 283.127
L321.243 283.109
L322.609 283.001
L322.718 282.983
L324.417 282.872
L324.525 282.857
L326.113 282.749
L326.216 282.733
L327.821 282.623
L327.925 282.608
L329.52 282.501
L329.625 282.485
L331.117 282.38
L331.22 282.365
L332.703 282.261
L332.805 282.245
L334.299 282.138
L334.406 282.121
L335.903 282.01
L336.01 281.993
L337.392 281.886
L337.498 281.868
L338.882 281.764
L338.987 281.747
L340.375 281.64
L340.481 281.622
L341.969 281.513
L342.076 281.495
L343.451 281.388
L343.557 281.371
L344.949 281.264
L345.057 281.246
L346.342 281.143
L346.446 281.124
L347.732 281.018
L347.836 281
L349.117 280.896
L349.221 280.878
L350.501 280.774
L350.61 280.755
L351.886 280.644
L351.992 280.624
L353.17 280.518
L353.275 280.497
L354.343 280.392
L354.45 280.369
L355.519 280.265
L355.625 280.242
L356.689 280.136
L356.796 280.112
L357.863 280.002
L357.972 279.979
L359.033 279.874
L359.136 279.852
L360.206 279.751
L360.312 279.728
L361.382 279.624
L361.489 279.602
L362.67 279.494
L362.779 279.473
L363.963 279.368
L364.07 279.347
L365.35 279.24
L365.46 279.22
L366.639 279.12
L366.748 279.099
L368.026 278.989
L368.137 278.968
L369.313 278.864
L369.417 278.843
L370.589 278.737
L370.697 278.714
L371.86 278.605
L371.968 278.584
L373.146 278.474
L373.253 278.451
L374.325 278.347
L374.43 278.326
L375.507 278.219
L375.611 278.196
L376.678 278.089
L376.787 278.065
L377.854 277.961
L377.961 277.938
L379.14 277.828
L379.247 277.805
L380.422 277.695
L380.532 277.672
L381.604 277.569
L381.71 277.547
L382.784 277.44
L382.892 277.416
L383.859 277.316
L383.967 277.293
L385.046 277.184
L385.154 277.159
L386.118 277.06
L386.225 277.034
L387.301 276.924
L387.403 276.901
L388.472 276.79
L388.581 276.766
L389.648 276.661
L389.758 276.638
L390.946 276.532
L391.053 276.512
L392.231 276.407
L392.338 276.386
L393.514 276.284
L393.619 276.265
L395.027 276.154
L395.135 276.137
L396.641 276.027
L396.748 276.011
L398.248 275.906
L398.352 275.89
L399.865 275.784
L399.973 275.769
L401.472 275.659
L401.579 275.641
L402.967 275.53
L403.076 275.511
L404.478 275.401
L404.586 275.383
L405.981 275.278
L406.088 275.261
L407.599 275.152
L407.707 275.136
L409.428 275.025
L409.536 275.012
L411.369 274.906
L411.369 274.9
L413.315 274.789
L413.42 274.775
L415.255 274.665
L415.362 274.651
L417.514 274.542
L417.622 274.531
L419.667 274.42
L419.775 274.408
L421.707 274.297
L421.816 274.283
L423.439 274.179
L423.549 274.163
L425.068 274.053
L425.177 274.037
L426.792 273.926
L426.899 273.91
L428.626 273.804
L428.736 273.791
L430.575 273.685
L430.685 273.67
L432.408 273.564
L432.516 273.55
L434.366 273.44
L434.474 273.427
L436.417 273.317
L436.526 273.304
L438.364 273.194
L438.474 273.18
L440.415 273.071
L440.415 273.064
L442.265 272.957
L442.373 272.944
L444.419 272.834
L444.528 272.822
L446.475 272.716
L446.578 272.704
L448.622 272.593
L448.622 272.587
L450.574 272.479
L450.683 272.465
L452.413 272.36
L452.519 272.347
L454.478 272.24
L454.586 272.228
L456.531 272.117
L456.638 272.103
L458.374 271.997
L458.484 271.982
L460.114 271.878
L460.223 271.863
L462.065 271.754
L462.172 271.742
L464.13 271.632
L464.238 271.619
L466.192 271.51
L466.303 271.498
L468.368 271.388
L468.368 271.382
L470.317 271.277
L470.428 271.263
L472.49 271.153
L472.598 271.142
L474.557 271.034
L474.665 271.022
L476.726 270.912
L476.835 270.9
L478.792 270.792
L478.902 270.778
L480.86 270.672
L480.967 270.661
L483.252 270.555
L483.36 270.544
L485.853 270.436
L485.964 270.428
L488.685 270.32
L488.794 270.311
L491.627 270.201
L491.734 270.193
L494.57 270.084
L494.677 270.075
L497.291 269.968
L497.398 269.958
L500.332 269.85
L500.438 269.843
L503.39 269.732
L503.499 269.723
L506.008 269.616
L506.118 269.605
L508.618 269.499
L508.726 269.489
L511.025 269.381
L511.133 269.371
L513.325 269.264
L513.431 269.253
L515.826 269.142
L515.934 269.133
L518.338 269.024
L518.447 269.013
L520.84 268.903
L520.948 268.892
L523.021 268.785
L523.131 268.773
L525.426 268.665
L525.531 268.654
L527.831 268.548
L527.94 268.537
L530.23 268.429
L530.34 268.418
L532.632 268.308
L532.74 268.297
L534.703 268.191
L534.814 268.178
L536.682 268.07
L536.791 268.056
L538.649 267.946
L538.759 267.932
L540.627 267.828
L540.627 267.821
L542.5 267.715
L542.604 267.703
L544.574 267.592
L544.681 267.58
L545.226 267.554
L545.226 267.548" style="fill:none;stroke:#ff0000;stroke-width:0.5;"/>
   </g>
   <g id="matplotlib.axis_1">
    <g id="xtick_1">
     <g id="line2d_2">
      <defs>
       <path d="
M0 0
L0 -4" id="mb786db9a03"/>
      </defs>
      <g>
       <use style="stroke:#000000;stroke-linecap:butt;stroke-width:0.5;" x="29.3484375" xlink:href="#mb786db9a03" y="15.0092307692"/>
      </g>
     </g>
    </g>
    <g id="xtick_2">
     <g id="line2d_3">
      <defs>
       <path d="
M0 0
L0 -4" id="mb786db9a03"/>
      </defs>
      <g>
       <use style="stroke:#000000;stroke-linecap:butt;stroke-width:0.5;" x="132.529900812" xlink:href="#mb786db9a03" y="15.0092307692"/>
      </g>
     </g>
     <g id="text_1">
      <!-- 2e7 -->
      <defs>
       <path d="
M19.1875 8.29688
L53.6094 8.29688
L53.6094 0
L7.32812 0
L7.32812 8.29688
Q12.9375 14.1094 22.625 23.8906
Q32.3281 33.6875 34.8125 36.5312
Q39.5469 41.8438 41.4219 45.5312
Q43.3125 49.2188 43.3125 52.7812
Q43.3125 58.5938 39.2344 62.25
Q35.1562 65.9219 28.6094 65.9219
Q23.9688 65.9219 18.8125 64.3125
Q13.6719 62.7031 7.8125 59.4219
L7.8125 69.3906
Q13.7656 71.7812 18.9375 73
Q24.125 74.2188 28.4219 74.2188
Q39.75 74.2188 46.4844 68.5469
Q53.2188 62.8906 53.2188 53.4219
Q53.2188 48.9219 51.5312 44.8906
Q49.8594 40.875 45.4062 35.4062
Q44.1875 33.9844 37.6406 27.2188
Q31.1094 20.4531 19.1875 8.29688" id="BitstreamVeraSans-Roman-32"/>
       <path d="
M56.2031 29.5938
L56.2031 25.2031
L14.8906 25.2031
Q15.4844 15.9219 20.4844 11.0625
Q25.4844 6.20312 34.4219 6.20312
Q39.5938 6.20312 44.4531 7.46875
Q49.3125 8.73438 54.1094 11.2812
L54.1094 2.78125
Q49.2656 0.734375 44.1875 -0.34375
Q39.1094 -1.42188 33.8906 -1.42188
Q20.7969 -1.42188 13.1562 6.1875
Q5.51562 13.8125 5.51562 26.8125
Q5.51562 40.2344 12.7656 48.1094
Q20.0156 56 32.3281 56
Q43.3594 56 49.7812 48.8906
Q56.2031 41.7969 56.2031 29.5938
M47.2188 32.2344
Q47.125 39.5938 43.0938 43.9844
Q39.0625 48.3906 32.4219 48.3906
Q24.9062 48.3906 20.3906 44.1406
Q15.875 39.8906 15.1875 32.1719
z
" id="BitstreamVeraSans-Roman-65"/>
       <path d="
M8.20312 72.9062
L55.0781 72.9062
L55.0781 68.7031
L28.6094 0
L18.3125 0
L43.2188 64.5938
L8.20312 64.5938
z
" id="BitstreamVeraSans-Roman-37"/>
      </defs>
      <g transform="translate(123.884588312 26.4311057692)scale(0.1 -0.1)">
       <use xlink:href="#BitstreamVeraSans-Roman-32"/>
       <use x="63.623046875" xlink:href="#BitstreamVeraSans-Roman-65"/>
       <use x="125.146484375" xlink:href="#BitstreamVeraSans-Roman-37"/>
      </g>
     </g>
    </g>
    <g id="xtick_3">
     <g id="line2d_4">
      <defs>
       <path d="
M0 0
L0 -4" id="mb786db9a03"/>
      </defs>
      <g>
       <use style="stroke:#000000;stroke-linecap:butt;stroke-width:0.5;" x="235.711364124" xlink:href="#mb786db9a03" y="15.0092307692"/>
      </g>
     </g>
     <g id="text_2">
      <!-- 4e7 -->
      <defs>
       <path d="
M37.7969 64.3125
L12.8906 25.3906
L37.7969 25.3906
z

M35.2031 72.9062
L47.6094 72.9062
L47.6094 25.3906
L58.0156 25.3906
L58.0156 17.1875
L47.6094 17.1875
L47.6094 0
L37.7969 0
L37.7969 17.1875
L4.89062 17.1875
L4.89062 26.7031
z
" id="BitstreamVeraSans-Roman-34"/>
      </defs>
      <g transform="translate(226.944176624 26.2998557692)scale(0.1 -0.1)">
       <use xlink:href="#BitstreamVeraSans-Roman-34"/>
       <use x="63.623046875" xlink:href="#BitstreamVeraSans-Roman-65"/>
       <use x="125.146484375" xlink:href="#BitstreamVeraSans-Roman-37"/>
      </g>
     </g>
    </g>
    <g id="xtick_4">
     <g id="line2d_5">
      <defs>
       <path d="
M0 0
L0 -4" id="mb786db9a03"/>
      </defs>
      <g>
       <use style="stroke:#000000;stroke-linecap:butt;stroke-width:0.5;" x="338.892827436" xlink:href="#mb786db9a03" y="15.0092307692"/>
      </g>
     </g>
     <g id="text_3">
      <!-- 6e7 -->
      <defs>
       <path d="
M33.0156 40.375
Q26.375 40.375 22.4844 35.8281
Q18.6094 31.2969 18.6094 23.3906
Q18.6094 15.5312 22.4844 10.9531
Q26.375 6.39062 33.0156 6.39062
Q39.6562 6.39062 43.5312 10.9531
Q47.4062 15.5312 47.4062 23.3906
Q47.4062 31.2969 43.5312 35.8281
Q39.6562 40.375 33.0156 40.375
M52.5938 71.2969
L52.5938 62.3125
Q48.875 64.0625 45.0938 64.9844
Q41.3125 65.9219 37.5938 65.9219
Q27.8281 65.9219 22.6719 59.3281
Q17.5312 52.7344 16.7969 39.4062
Q19.6719 43.6562 24.0156 45.9219
Q28.375 48.1875 33.5938 48.1875
Q44.5781 48.1875 50.9531 41.5156
Q57.3281 34.8594 57.3281 23.3906
Q57.3281 12.1562 50.6875 5.35938
Q44.0469 -1.42188 33.0156 -1.42188
Q20.3594 -1.42188 13.6719 8.26562
Q6.98438 17.9688 6.98438 36.375
Q6.98438 53.6562 15.1875 63.9375
Q23.3906 74.2188 37.2031 74.2188
Q40.9219 74.2188 44.7031 73.4844
Q48.4844 72.75 52.5938 71.2969" id="BitstreamVeraSans-Roman-36"/>
      </defs>
      <g transform="translate(330.230327436 26.4311057692)scale(0.1 -0.1)">
       <use xlink:href="#BitstreamVeraSans-Roman-36"/>
       <use x="63.623046875" xlink:href="#BitstreamVeraSans-Roman-65"/>
       <use x="125.146484375" xlink:href="#BitstreamVeraSans-Roman-37"/>
      </g>
     </g>
    </g>
    <g id="xtick_5">
     <g id="line2d_6">
      <defs>
       <path d="
M0 0
L0 -4" id="mb786db9a03"/>
      </defs>
      <g>
       <use style="stroke:#000000;stroke-linecap:butt;stroke-width:0.5;" x="442.074290747" xlink:href="#mb786db9a03" y="15.0092307692"/>
      </g>
     </g>
     <g id="text_4">
      <!-- 8e7 -->
      <defs>
       <path d="
M31.7812 34.625
Q24.75 34.625 20.7188 30.8594
Q16.7031 27.0938 16.7031 20.5156
Q16.7031 13.9219 20.7188 10.1562
Q24.75 6.39062 31.7812 6.39062
Q38.8125 6.39062 42.8594 10.1719
Q46.9219 13.9688 46.9219 20.5156
Q46.9219 27.0938 42.8906 30.8594
Q38.875 34.625 31.7812 34.625
M21.9219 38.8125
Q15.5781 40.375 12.0312 44.7188
Q8.5 49.0781 8.5 55.3281
Q8.5 64.0625 14.7188 69.1406
Q20.9531 74.2188 31.7812 74.2188
Q42.6719 74.2188 48.875 69.1406
Q55.0781 64.0625 55.0781 55.3281
Q55.0781 49.0781 51.5312 44.7188
Q48 40.375 41.7031 38.8125
Q48.8281 37.1562 52.7969 32.3125
Q56.7812 27.4844 56.7812 20.5156
Q56.7812 9.90625 50.3125 4.23438
Q43.8438 -1.42188 31.7812 -1.42188
Q19.7344 -1.42188 13.25 4.23438
Q6.78125 9.90625 6.78125 20.5156
Q6.78125 27.4844 10.7812 32.3125
Q14.7969 37.1562 21.9219 38.8125
M18.3125 54.3906
Q18.3125 48.7344 21.8438 45.5625
Q25.3906 42.3906 31.7812 42.3906
Q38.1406 42.3906 41.7188 45.5625
Q45.3125 48.7344 45.3125 54.3906
Q45.3125 60.0625 41.7188 63.2344
Q38.1406 66.4062 31.7812 66.4062
Q25.3906 66.4062 21.8438 63.2344
Q18.3125 60.0625 18.3125 54.3906" id="BitstreamVeraSans-Roman-38"/>
      </defs>
      <g transform="translate(433.401634497 26.4311057692)scale(0.1 -0.1)">
       <use xlink:href="#BitstreamVeraSans-Roman-38"/>
       <use x="63.623046875" xlink:href="#BitstreamVeraSans-Roman-65"/>
       <use x="125.146484375" xlink:href="#BitstreamVeraSans-Roman-37"/>
      </g>
     </g>
    </g>
    <g id="xtick_6">
     <g id="line2d_7">
      <defs>
       <path d="
M0 0
L0 -4" id="mb786db9a03"/>
      </defs>
      <g>
       <use style="stroke:#000000;stroke-linecap:butt;stroke-width:0.5;" x="545.255754059" xlink:href="#mb786db9a03" y="15.0092307692"/>
      </g>
     </g>
     <g id="text_5">
      <!-- 1e8 -->
      <defs>
       <path d="
M12.4062 8.29688
L28.5156 8.29688
L28.5156 63.9219
L10.9844 60.4062
L10.9844 69.3906
L28.4219 72.9062
L38.2812 72.9062
L38.2812 8.29688
L54.3906 8.29688
L54.3906 0
L12.4062 0
z
" id="BitstreamVeraSans-Roman-31"/>
      </defs>
      <g transform="translate(536.708097809 26.4311057692)scale(0.1 -0.1)">
       <use xlink:href="#BitstreamVeraSans-Roman-31"/>
       <use x="63.623046875" xlink:href="#BitstreamVeraSans-Roman-65"/>
       <use x="125.146484375" xlink:href="#BitstreamVeraSans-Roman-38"/>
      </g>
     </g>
    </g>
    <g id="xtick_7">
     <g id="line2d_8">
      <defs>
       <path d="
M0 0
L0 -2" id="m8c0385d0a1"/>
      </defs>
      <g>
       <use style="stroke:#000000;stroke-linecap:butt;stroke-width:0.5;" x="55.143803328" xlink:href="#m8c0385d0a1" y="15.0092307692"/>
      </g>
     </g>
    </g>
    <g id="xtick_8">
     <g id="line2d_9">
      <defs>
       <path d="
M0 0
L0 -2" id="m8c0385d0a1"/>
      </defs>
      <g>
       <use style="stroke:#000000;stroke-linecap:butt;stroke-width:0.5;" x="80.9391691559" xlink:href="#m8c0385d0a1" y="15.0092307692"/>
      </g>
     </g>
    </g>
    <g id="xtick_9">
     <g id="line2d_10">
      <defs>
       <path d="
M0 0
L0 -2" id="m8c0385d0a1"/>
      </defs>
      <g>
       <use style="stroke:#000000;stroke-linecap:butt;stroke-width:0.5;" x="106.734534984" xlink:href="#m8c0385d0a1" y="15.0092307692"/>
      </g>
     </g>
    </g>
    <g id="xtick_10">
     <g id="line2d_11">
      <defs>
       <path d="
M0 0
L0 -2" id="m8c0385d0a1"/>
      </defs>
      <g>
       <use style="stroke:#000000;stroke-linecap:butt;stroke-width:0.5;" x="158.32526664" xlink:href="#m8c0385d0a1" y="15.0092307692"/>
      </g>
     </g>
    </g>
    <g id="xtick_11">
     <g id="line2d_12">
      <defs>
       <path d="
M0 0
L0 -2" id="m8c0385d0a1"/>
      </defs>
      <g>
       <use style="stroke:#000000;stroke-linecap:butt;stroke-width:0.5;" x="184.120632468" xlink:href="#m8c0385d0a1" y="15.0092307692"/>
      </g>
     </g>
    </g>
    <g id="xtick_12">
     <g id="line2d_13">
      <defs>
       <path d="
M0 0
L0 -2" id="m8c0385d0a1"/>
      </defs>
      <g>
       <use style="stroke:#000000;stroke-linecap:butt;stroke-width:0.5;" x="209.915998296" xlink:href="#m8c0385d0a1" y="15.0092307692"/>
      </g>
     </g>
    </g>
    <g id="xtick_13">
     <g id="line2d_14">
      <defs>
       <path d="
M0 0
L0 -2" id="m8c0385d0a1"/>
      </defs>
      <g>
       <use style="stroke:#000000;stroke-linecap:butt;stroke-width:0.5;" x="261.506729952" xlink:href="#m8c0385d0a1" y="15.0092307692"/>
      </g>
     </g>
    </g>
    <g id="xtick_14">
     <g id="line2d_15">
      <defs>
       <path d="
M0 0
L0 -2" id="m8c0385d0a1"/>
      </defs>
      <g>
       <use style="stroke:#000000;stroke-linecap:butt;stroke-width:0.5;" x="287.30209578" xlink:href="#m8c0385d0a1" y="15.0092307692"/>
      </g>
     </g>
    </g>
    <g id="xtick_15">
     <g id="line2d_16">
      <defs>
       <path d="
M0 0
L0 -2" id="m8c0385d0a1"/>
      </defs>
      <g>
       <use style="stroke:#000000;stroke-linecap:butt;stroke-width:0.5;" x="313.097461608" xlink:href="#m8c0385d0a1" y="15.0092307692"/>
      </g>
     </g>
    </g>
    <g id="xtick_16">
     <g id="line2d_17">
      <defs>
       <path d="
M0 0
L0 -2" id="m8c0385d0a1"/>
      </defs>
      <g>
       <use style="stroke:#000000;stroke-linecap:butt;stroke-width:0.5;" x="364.688193263" xlink:href="#m8c0385d0a1" y="15.0092307692"/>
      </g>
     </g>
    </g>
    <g id="xtick_17">
     <g id="line2d_18">
      <defs>
       <path d="
M0 0
L0 -2" id="m8c0385d0a1"/>
      </defs>
      <g>
       <use style="stroke:#000000;stroke-linecap:butt;stroke-width:0.5;" x="390.483559091" xlink:href="#m8c0385d0a1" y="15.0092307692"/>
      </g>
     </g>
    </g>
    <g id="xtick_18">
     <g id="line2d_19">
      <defs>
       <path d="
M0 0
L0 -2" id="m8c0385d0a1"/>
      </defs>
      <g>
       <use style="stroke:#000000;stroke-linecap:butt;stroke-width:0.5;" x="416.278924919" xlink:href="#m8c0385d0a1" y="15.0092307692"/>
      </g>
     </g>
    </g>
    <g id="xtick_19">
     <g id="line2d_20">
      <defs>
       <path d="
M0 0
L0 -2" id="m8c0385d0a1"/>
      </defs>
      <g>
       <use style="stroke:#000000;stroke-linecap:butt;stroke-width:0.5;" x="467.869656575" xlink:href="#m8c0385d0a1" y="15.0092307692"/>
      </g>
     </g>
    </g>
    <g id="xtick_20">
     <g id="line2d_21">
      <defs>
       <path d="
M0 0
L0 -2" id="m8c0385d0a1"/>
      </defs>
      <g>
       <use style="stroke:#000000;stroke-linecap:butt;stroke-width:0.5;" x="493.665022403" xlink:href="#m8c0385d0a1" y="15.0092307692"/>
      </g>
     </g>
    </g>
    <g id="xtick_21">
     <g id="line2d_22">
      <defs>
       <path d="
M0 0
L0 -2" id="m8c0385d0a1"/>
      </defs>
      <g>
       <use style="stroke:#000000;stroke-linecap:butt;stroke-width:0.5;" x="519.460388231" xlink:href="#m8c0385d0a1" y="15.0092307692"/>
      </g>
     </g>
    </g>
   </g>
   <g id="matplotlib.axis_2">
    <g id="ytick_1">
     <g id="line2d_23">
      <defs>
       <path d="
M0 0
L4 0" id="m25e31b5a08"/>
      </defs>
      <g>
       <use style="stroke:#000000;stroke-linecap:butt;stroke-width:0.5;" x="29.3484375" xlink:href="#m25e31b5a08" y="352.656389454"/>
      </g>
     </g>
     <g id="text_6">
      <!-- -2 -->
      <defs>
       <path d="
M4.89062 31.3906
L31.2031 31.3906
L31.2031 23.3906
L4.89062 23.3906
z
" id="BitstreamVeraSans-Roman-2d"/>
      </defs>
      <g transform="translate(16.86875 356.367326954)scale(0.1 -0.1)">
       <use xlink:href="#BitstreamVeraSans-Roman-2d"/>
       <use x="36.083984375" xlink:href="#BitstreamVeraSans-Roman-32"/>
      </g>
     </g>
    </g>
    <g id="ytick_2">
     <g id="line2d_24">
      <defs>
       <path d="
M0 0
L4 0" id="m25e31b5a08"/>
      </defs>
      <g>
       <use style="stroke:#000000;stroke-linecap:butt;stroke-width:0.5;" x="29.3484375" xlink:href="#m25e31b5a08" y="268.244599783"/>
      </g>
     </g>
     <g id="text_7">
      <!-- -1.5 -->
      <defs>
       <path d="
M10.6875 12.4062
L21 12.4062
L21 0
L10.6875 0
z
" id="BitstreamVeraSans-Roman-2e"/>
       <path d="
M10.7969 72.9062
L49.5156 72.9062
L49.5156 64.5938
L19.8281 64.5938
L19.8281 46.7344
Q21.9688 47.4688 24.1094 47.8281
Q26.2656 48.1875 28.4219 48.1875
Q40.625 48.1875 47.75 41.5
Q54.8906 34.8125 54.8906 23.3906
Q54.8906 11.625 47.5625 5.09375
Q40.2344 -1.42188 26.9062 -1.42188
Q22.3125 -1.42188 17.5469 -0.640625
Q12.7969 0.140625 7.71875 1.70312
L7.71875 11.625
Q12.1094 9.23438 16.7969 8.0625
Q21.4844 6.89062 26.7031 6.89062
Q35.1562 6.89062 40.0781 11.3281
Q45.0156 15.7656 45.0156 23.3906
Q45.0156 31 40.0781 35.4375
Q35.1562 39.8906 26.7031 39.8906
Q22.75 39.8906 18.8125 39.0156
Q14.8906 38.1406 10.7969 36.2812
z
" id="BitstreamVeraSans-Roman-35"/>
      </defs>
      <g transform="translate(7.2 271.818818533)scale(0.1 -0.1)">
       <use xlink:href="#BitstreamVeraSans-Roman-2d"/>
       <use x="36.083984375" xlink:href="#BitstreamVeraSans-Roman-31"/>
       <use x="99.70703125" xlink:href="#BitstreamVeraSans-Roman-2e"/>
       <use x="131.494140625" xlink:href="#BitstreamVeraSans-Roman-35"/>
      </g>
     </g>
    </g>
    <g id="ytick_3">
     <g id="line2d_25">
      <defs>
       <path d="
M0 0
L4 0" id="m25e31b5a08"/>
      </defs>
      <g>
       <use style="stroke:#000000;stroke-linecap:butt;stroke-width:0.5;" x="29.3484375" xlink:href="#m25e31b5a08" y="183.832810112"/>
      </g>
     </g>
     <g id="text_8">
      <!-- -1 -->
      <g transform="translate(16.790625 187.478122612)scale(0.1 -0.1)">
       <use xlink:href="#BitstreamVeraSans-Roman-2d"/>
       <use x="36.083984375" xlink:href="#BitstreamVeraSans-Roman-31"/>
      </g>
     </g>
    </g>
    <g id="ytick_4">
     <g id="line2d_26">
      <defs>
       <path d="
M0 0
L4 0" id="m25e31b5a08"/>
      </defs>
      <g>
       <use style="stroke:#000000;stroke-linecap:butt;stroke-width:0.5;" x="29.3484375" xlink:href="#m25e31b5a08" y="99.4210204405"/>
      </g>
     </g>
     <g id="text_9">
      <!-- -0.5 -->
      <defs>
       <path d="
M31.7812 66.4062
Q24.1719 66.4062 20.3281 58.9062
Q16.5 51.4219 16.5 36.375
Q16.5 21.3906 20.3281 13.8906
Q24.1719 6.39062 31.7812 6.39062
Q39.4531 6.39062 43.2812 13.8906
Q47.125 21.3906 47.125 36.375
Q47.125 51.4219 43.2812 58.9062
Q39.4531 66.4062 31.7812 66.4062
M31.7812 74.2188
Q44.0469 74.2188 50.5156 64.5156
Q56.9844 54.8281 56.9844 36.375
Q56.9844 17.9688 50.5156 8.26562
Q44.0469 -1.42188 31.7812 -1.42188
Q19.5312 -1.42188 13.0625 8.26562
Q6.59375 17.9688 6.59375 36.375
Q6.59375 54.8281 13.0625 64.5156
Q19.5312 74.2188 31.7812 74.2188" id="BitstreamVeraSans-Roman-30"/>
      </defs>
      <g transform="translate(7.2 103.06086419)scale(0.1 -0.1)">
       <use xlink:href="#BitstreamVeraSans-Roman-2d"/>
       <use x="36.083984375" xlink:href="#BitstreamVeraSans-Roman-30"/>
       <use x="99.70703125" xlink:href="#BitstreamVeraSans-Roman-2e"/>
       <use x="131.494140625" xlink:href="#BitstreamVeraSans-Roman-35"/>
      </g>
     </g>
    </g>
    <g id="ytick_5">
     <g id="line2d_27">
      <defs>
       <path d="
M0 0
L4 0" id="m25e31b5a08"/>
      </defs>
      <g>
       <use style="stroke:#000000;stroke-linecap:butt;stroke-width:0.5;" x="29.3484375" xlink:href="#m25e31b5a08" y="15.0092307692"/>
      </g>
     </g>
    </g>
    <g id="ytick_6">
     <g id="line2d_28">
      <defs>
       <path d="
M0 0
L2 0" id="mac47af6d7a"/>
      </defs>
      <g>
       <use style="stroke:#000000;stroke-linecap:butt;stroke-width:0.5;" x="29.3484375" xlink:href="#mac47af6d7a" y="403.303463257"/>
      </g>
     </g>
    </g>
    <g id="ytick_7">
     <g id="line2d_29">
      <defs>
       <path d="
M0 0
L2 0" id="mac47af6d7a"/>
      </defs>
      <g>
       <use style="stroke:#000000;stroke-linecap:butt;stroke-width:0.5;" x="29.3484375" xlink:href="#mac47af6d7a" y="386.421105323"/>
      </g>
     </g>
    </g>
    <g id="ytick_8">
     <g id="line2d_30">
      <defs>
       <path d="
M0 0
L2 0" id="mac47af6d7a"/>
      </defs>
      <g>
       <use style="stroke:#000000;stroke-linecap:butt;stroke-width:0.5;" x="29.3484375" xlink:href="#mac47af6d7a" y="369.538747388"/>
      </g>
     </g>
    </g>
    <g id="ytick_9">
     <g id="line2d_31">
      <defs>
       <path d="
M0 0
L2 0" id="mac47af6d7a"/>
      </defs>
      <g>
       <use style="stroke:#000000;stroke-linecap:butt;stroke-width:0.5;" x="29.3484375" xlink:href="#mac47af6d7a" y="335.77403152"/>
      </g>
     </g>
    </g>
    <g id="ytick_10">
     <g id="line2d_32">
      <defs>
       <path d="
M0 0
L2 0" id="mac47af6d7a"/>
      </defs>
      <g>
       <use style="stroke:#000000;stroke-linecap:butt;stroke-width:0.5;" x="29.3484375" xlink:href="#mac47af6d7a" y="318.891673586"/>
      </g>
     </g>
    </g>
    <g id="ytick_11">
     <g id="line2d_33">
      <defs>
       <path d="
M0 0
L2 0" id="mac47af6d7a"/>
      </defs>
      <g>
       <use style="stroke:#000000;stroke-linecap:butt;stroke-width:0.5;" x="29.3484375" xlink:href="#mac47af6d7a" y="302.009315651"/>
      </g>
     </g>
    </g>
    <g id="ytick_12">
     <g id="line2d_34">
      <defs>
       <path d="
M0 0
L2 0" id="mac47af6d7a"/>
      </defs>
      <g>
       <use style="stroke:#000000;stroke-linecap:butt;stroke-width:0.5;" x="29.3484375" xlink:href="#mac47af6d7a" y="285.126957717"/>
      </g>
     </g>
    </g>
    <g id="ytick_13">
     <g id="line2d_35">
      <defs>
       <path d="
M0 0
L2 0" id="mac47af6d7a"/>
      </defs>
      <g>
       <use style="stroke:#000000;stroke-linecap:butt;stroke-width:0.5;" x="29.3484375" xlink:href="#mac47af6d7a" y="251.362241849"/>
      </g>
     </g>
    </g>
    <g id="ytick_14">
     <g id="line2d_36">
      <defs>
       <path d="
M0 0
L2 0" id="mac47af6d7a"/>
      </defs>
      <g>
       <use style="stroke:#000000;stroke-linecap:butt;stroke-width:0.5;" x="29.3484375" xlink:href="#mac47af6d7a" y="234.479883914"/>
      </g>
     </g>
    </g>
    <g id="ytick_15">
     <g id="line2d_37">
      <defs>
       <path d="
M0 0
L2 0" id="mac47af6d7a"/>
      </defs>
      <g>
       <use style="stroke:#000000;stroke-linecap:butt;stroke-width:0.5;" x="29.3484375" xlink:href="#mac47af6d7a" y="217.59752598"/>
      </g>
     </g>
    </g>
    <g id="ytick_16">
     <g id="line2d_38">
      <defs>
       <path d="
M0 0
L2 0" id="mac47af6d7a"/>
      </defs>
      <g>
       <use style="stroke:#000000;stroke-linecap:butt;stroke-width:0.5;" x="29.3484375" xlink:href="#mac47af6d7a" y="200.715168046"/>
      </g>
     </g>
    </g>
    <g id="ytick_17">
     <g id="line2d_39">
      <defs>
       <path d="
M0 0
L2 0" id="mac47af6d7a"/>
      </defs>
      <g>
       <use style="stroke:#000000;stroke-linecap:butt;stroke-width:0.5;" x="29.3484375" xlink:href="#mac47af6d7a" y="166.950452177"/>
      </g>
     </g>
    </g>
    <g id="ytick_18">
     <g id="line2d_40">
      <defs>
       <path d="
M0 0
L2 0" id="mac47af6d7a"/>
      </defs>
      <g>
       <use style="stroke:#000000;stroke-linecap:butt;stroke-width:0.5;" x="29.3484375" xlink:href="#mac47af6d7a" y="150.068094243"/>
      </g>
     </g>
    </g>
    <g id="ytick_19">
     <g id="line2d_41">
      <defs>
       <path d="
M0 0
L2 0" id="mac47af6d7a"/>
      </defs>
      <g>
       <use style="stroke:#000000;stroke-linecap:butt;stroke-width:0.5;" x="29.3484375" xlink:href="#mac47af6d7a" y="133.185736309"/>
      </g>
     </g>
    </g>
    <g id="ytick_20">
     <g id="line2d_42">
      <defs>
       <path d="
M0 0
L2 0" id="mac47af6d7a"/>
      </defs>
      <g>
       <use style="stroke:#000000;stroke-linecap:butt;stroke-width:0.5;" x="29.3484375" xlink:href="#mac47af6d7a" y="116.303378375"/>
      </g>
     </g>
    </g>
    <g id="ytick_21">
     <g id="line2d_43">
      <defs>
       <path d="
M0 0
L2 0" id="mac47af6d7a"/>
      </defs>
      <g>
       <use style="stroke:#000000;stroke-linecap:butt;stroke-width:0.5;" x="29.3484375" xlink:href="#mac47af6d7a" y="82.5386625062"/>
      </g>
     </g>
    </g>
    <g id="ytick_22">
     <g id="line2d_44">
      <defs>
       <path d="
M0 0
L2 0" id="mac47af6d7a"/>
      </defs>
      <g>
       <use style="stroke:#000000;stroke-linecap:butt;stroke-width:0.5;" x="29.3484375" xlink:href="#mac47af6d7a" y="65.656304572"/>
      </g>
     </g>
    </g>
    <g id="ytick_23">
     <g id="line2d_45">
      <defs>
       <path d="
M0 0
L2 0" id="mac47af6d7a"/>
      </defs>
      <g>
       <use style="stroke:#000000;stroke-linecap:butt;stroke-width:0.5;" x="29.3484375" xlink:href="#mac47af6d7a" y="48.7739466377"/>
      </g>
     </g>
    </g>
    <g id="ytick_24">
     <g id="line2d_46">
      <defs>
       <path d="
M0 0
L2 0" id="mac47af6d7a"/>
      </defs>
      <g>
       <use style="stroke:#000000;stroke-linecap:butt;stroke-width:0.5;" x="29.3484375" xlink:href="#mac47af6d7a" y="31.8915887035"/>
      </g>
     </g>
    </g>
   </g>
   <g id="patch_3">
    <path d="
M19.0309 15.0092
L555.544 15.0092" style="fill:none;stroke:#000000;stroke-width:0.8;"/>
   </g>
   <g id="patch_4">
    <path d="
M29.3484 413.28
L29.3484 7.2" style="fill:none;stroke:#000000;stroke-width:0.8;"/>
   </g>
  </g>
 </g>
 <defs>
  <clipPath id="p13c0847ff8">
   <rect height="406.08" width="536.513117448" x="19.0308878672" y="7.2"/>
  </clipPath>
 </defs>
</svg>
