<?xml version="1.0" encoding="utf-8" standalone="no"?>
<!DOCTYPE svg PUBLIC "-//W3C//DTD SVG 1.1//EN"
  "http://www.w3.org/Graphics/SVG/1.1/DTD/svg11.dtd">
<!-- Created with matplotlib (http://matplotlib.sourceforge.net/) -->
<svg height="419pt" version="1.1" viewBox="0 0 564 419" width="564pt" xmlns="http://www.w3.org/2000/svg" xmlns:xlink="http://www.w3.org/1999/xlink">
 <defs>
  <style type="text/css">
*{stroke-linecap:square;stroke-linejoin:round;}
  </style>
 </defs>
 <g id="figure_1">
  <g id="patch_1">
   <path d="
M-4.44089e-16 419.439
L564.499 419.439
L564.499 0
L-4.44089e-16 0
z
" style="fill:#ffffff;"/>
  </g>
  <g id="axes_1">
   <g id="patch_2">
    <path d="
M64.7562 412.239
L557.299 412.239
L557.299 8.51291
L64.7562 8.51291
z
" style="fill:#ffffff;"/>
   </g>
   <g id="line2d_1">
    <path clip-path="url(#p8d84e77ebc)" d="
M74.2282 16.2769
L85.0604 16.2769
L85.0604 56.0352
L98.7073 56.0352
L98.7073 134.903
L107.696 134.903
L107.696 182.65
L119.771 182.65
L119.771 232.892
L124.234 232.892
L124.234 255.854
L131.401 255.854
L131.401 290.655
L134.372 290.655
L134.372 302.622
L139.477 302.622
L139.477 320.319
L145.669 320.319
L145.669 335.137
L147.451 335.137
L147.451 336.936
L152.178 336.936
L152.178 343.727
L154.92 343.727
L154.92 347.341
L156.193 347.341
L156.193 350.226
L158.569 350.226
L158.569 354.681
L161.779 354.681
L161.779 362.929
L164.644 362.929
L164.644 369.174
L165.534 369.174
L165.534 370.368
L168.041 370.368
L168.041 375.035
L169.59 375.035
L169.59 376.759
L170.332 376.759
L170.332 377.066
L172.442 377.066
L172.442 377.955
L173.762 377.955
L173.762 378.086
L175.626 378.086
L175.626 379.82
L177.926 379.82
L177.926 381.192
L179.005 381.192
L179.005 381.532
L180.547 381.602
L180.547 380.833
L182.005 380.732
L182.005 381.215
L185.125 381.215
L185.125 384.897
L185.953 384.897
L185.953 385.742
L187.15 385.742
L187.15 387.433
L187.537 387.433
L187.537 388.044
L189.393 388.044
L189.393 390.563
L189.749 390.563
L189.749 391.08
L190.79 391.08
L190.79 391.995
L192.44 392.096
L192.44 392.498
L193.383 392.498
L193.383 393.383
L194.294 393.383
L194.294 393.958
L196.854 393.898
L196.854 394.266
L197.123 394.266
L197.123 394.422
L198.688 394.422
L198.688 395.181
L200.165 395.181
L200.165 396.249
L200.64 396.249
L200.64 396.751
L200.875 396.751
L200.875 397.075
L201.337 397.075
L201.337 397.636
L202.017 397.636
L202.017 398.348
L202.239 398.348
L202.239 398.603
L203.325 398.603
L203.325 399.496
L203.956 399.496
L203.956 400.011
L204.573 400.011
L204.573 400.495
L205.176 400.495
L205.176 400.733
L205.959 400.83
L205.959 401.44
L206.342 401.44
L206.342 401.746
L207.459 401.854
L207.459 402.295
L208.706 402.295
L208.706 402.872
L209.051 402.872
L209.051 403.116
L209.223 403.116
L209.223 403.235
L209.562 403.235
L209.562 403.347
L211.978 403.282
L211.978 403.528
L212.436 403.595
L212.436 403.7
L213.475 403.798
L213.475 404.038
L213.908 404.038
L213.908 404.158
L214.334 404.158
L214.334 404.378
L217.015 404.342
L217.015 404.033
L217.769 403.961
L217.769 403.778
L218.503 403.761
L218.503 403.666
L218.862 403.666
L218.862 403.52
L219.334 403.52
L219.334 403.135
L219.567 403.135
L219.567 402.898
L219.682 402.898
L219.682 402.743
L219.912 402.743
L219.912 402.489
L220.59 402.489
L220.59 401.755
L221.033 401.755
L221.033 401.21
L221.251 401.21
L221.251 400.995
L221.683 400.995
L221.683 400.692
L221.896 400.692
L221.896 400.516
L222.213 400.516
L222.213 400.203
L222.836 400.203
L222.938 399.738
L223.842 399.738
L223.842 399.579
L224.621 399.469
L224.621 399.249
L226.563 399.328
L226.652 399.462
L226.917 399.462
L226.917 399.606
L227.18 399.606
L227.18 399.814
L227.354 399.814
L227.44 399.973
L227.953 399.973
L227.953 400.236
L228.373 400.236
L228.456 400.594
L228.869 400.693
L228.869 400.853
L229.113 400.853
L229.194 401.128
L229.675 401.128
L229.675 401.668
L229.833 401.668
L229.833 401.812
L230.069 401.812
L230.069 402.042
L230.38 402.042
L230.38 402.3
L230.764 402.3
L230.764 402.668
L231.067 402.668
L231.067 402.978
L231.441 402.978
L231.441 403.25
L231.736 403.25
L231.736 403.38
L232.174 403.45
L232.174 403.507
L232.958 403.601
L232.958 403.646
L233.237 403.646
L233.237 403.797
L233.855 403.848
L233.855 404.045
L234.192 404.045
L234.192 404.189
L236.131 404.081
L236.194 404.023
L237.646 404.005
L237.646 403.699
L237.997 403.604
L237.997 403.382
L238.287 403.382
L238.287 403.198
L238.516 403.198
L238.516 403.029
L238.799 402.922
L238.799 402.772
L238.968 402.772
L238.968 402.612
L239.358 402.612
L239.468 401.986
L239.632 401.986
L239.632 401.796
L239.796 401.796
L239.796 401.584
L240.013 401.584
L240.013 401.293
L240.174 401.293
L240.174 401.091
L240.493 401.091
L240.599 400.673
L240.757 400.673
L240.809 400.454
L241.07 400.454
L241.121 400.171
L241.276 400.171
L241.276 400.031
L241.532 400.031
L241.583 399.841
L241.836 399.841
L241.886 399.694
L242.581 399.588
L242.63 399.551
L243.018 399.483
L243.018 399.437
L244.011 399.331
L244.058 399.086
L244.471 398.989
L244.471 398.94
L244.969 398.841
L244.969 398.803
L245.413 398.759
L245.501 398.61
L247.651 398.522
L247.691 398.354
L248.488 398.268
L248.488 397.791
L248.606 397.791
L248.606 397.679
L248.723 397.679
L248.723 397.541
L248.878 397.541
L248.878 397.359
L249.224 397.359
L249.224 396.874
L249.414 396.874
L249.414 396.625
L249.678 396.625
L249.753 396.192
L249.866 396.152
L249.866 396.078
L250.125 395.988
L250.236 395.847
L250.565 395.774
L250.565 395.656
L250.782 395.558
L250.89 395.489
L251.493 395.383
L251.493 395.367
L253.027 395.259
L253.126 395.241
L255.159 395.158
L255.25 395.073
L255.614 395.025
L255.704 394.823
L255.972 394.776
L255.972 394.692
L256.296 394.62
L256.296 394.517
L256.646 394.452
L256.646 394.371
L256.933 394.294
L257.019 394.191
L257.246 394.135
L257.246 394.063
L257.416 394.063
L257.5 393.902
L257.834 393.87
L257.862 393.766
L258.409 393.696
L258.49 393.622
L258.918 393.546
L258.998 393.468
L259.471 393.393
L259.471 393.315
L260.063 393.209
L260.063 393.191
L260.84 393.272
L260.84 393.306
L261.354 393.381
L261.403 393.437
L262.284 393.537
L262.354 393.59
L262.886 393.693
L262.978 393.826
L263.831 393.932
L263.897 393.985
L264.161 394.082
L264.161 394.126
L264.378 394.211
L264.486 394.358
L264.765 394.358
L264.765 394.531
L265.062 394.617
L265.147 394.675
L266.118 394.776
L266.118 394.816
L266.38 394.921
L266.421 394.937
L267.309 394.83
L267.309 394.822
L267.656 394.767
L267.732 394.663
L267.941 394.625
L267.941 394.497
L268.074 394.497
L268.168 394.306
L268.299 394.24
L268.337 394.158
L268.504 394.158
L268.578 393.967
L268.726 393.892
L268.781 393.813
L268.946 393.76
L269.055 393.622
L269.218 393.525
L269.327 393.443
L269.595 393.433
L269.702 393.236
L269.931 393.165
L270.037 393.029
L270.385 392.924
L270.385 392.911
L270.797 392.823
L270.797 392.794
L272.207 392.686
L272.304 392.658
L273.003 392.569
L273.05 392.498
L273.33 392.436
L273.438 392.361
L273.927 392.258
L274.018 392.233
L274.033 392.234
L275.487 392.128
L275.487 392.102
L275.644 392.102
L275.7 391.947
L275.87 391.893
L275.94 391.765
L276.15 391.688
L276.248 391.586
L276.455 391.52
L276.538 391.422
L276.77 391.318
L276.825 391.29
L277.216 391.214
L277.31 391.156
L277.812 391.049
L277.904 391.022
L278.663 390.923
L278.714 390.883
L278.928 390.802
L278.978 390.74
L279.389 390.633
L279.463 390.499
L279.781 390.417
L279.89 390.34
L280.478 390.236
L280.513 390.229
L280.572 390.23
L281.145 390.15
L281.249 390.074
L281.478 389.978
L281.547 389.915
L281.717 389.868
L281.785 389.727
L281.931 389.643
L281.931 389.6
L282.066 389.6
L282.166 389.376
L282.498 389.276
L282.586 389.111
L282.815 389.011
L282.912 388.931
L283.106 388.826
L283.213 388.763
L283.458 388.67
L283.564 388.568
L283.775 388.484
L283.879 388.372
L284.129 388.269
L284.191 388.172
L284.345 388.101
L284.437 387.995
L284.61 387.958
L284.712 387.798
L284.923 387.693
L284.973 387.619
L285.213 387.548
L285.302 387.357
L285.46 387.279
L285.548 387.211
L285.802 387.143
L285.899 387.043
L286.13 386.94
L286.236 386.843
L286.388 386.843
L286.473 386.658
L286.7 386.55
L286.803 386.479
L287.119 386.371
L287.221 386.249
L287.577 386.148
L287.686 386.083
L287.912 385.989
L287.912 385.948
L288.153 385.862
L288.251 385.763
L288.568 385.657
L288.655 385.624
L288.985 385.55
L289.088 385.477
L289.421 385.371
L289.523 385.313
L289.933 385.206
L289.958 385.149
L290.182 385.041
L290.223 384.998
L290.453 384.897
L290.55 384.777
L290.696 384.682
L290.745 384.615
L290.906 384.508
L290.986 384.429
L291.201 384.324
L291.312 384.203
L291.556 384.106
L291.626 384.06
L292.037 383.985
L292.129 383.906
L292.63 383.804
L292.728 383.783
L293.474 383.888
L293.547 383.92
L295.495 383.812
L295.596 383.786
L296.294 383.687
L296.398 383.64
L296.845 383.536
L296.884 383.515
L297.184 383.406
L297.26 383.369
L297.655 383.26
L297.736 383.225
L298.143 383.114
L298.235 383.059
L298.502 382.951
L298.556 382.911
L298.742 382.804
L298.844 382.708
L298.987 382.602
L299.081 382.519
L299.223 382.464
L299.328 382.312
L299.463 382.228
L299.567 382.119
L299.764 382.039
L299.861 381.958
L300.491 381.847
L300.541 381.834
L301.09 381.724
L301.193 381.684
L301.611 381.576
L301.696 381.547
L301.979 381.447
L302.064 381.389
L302.561 381.278
L302.67 381.268
L303.318 381.158
L303.423 381.112
L303.778 381.005
L303.822 380.996
L304.298 380.888
L304.38 380.837
L304.598 380.73
L304.703 380.678
L304.899 380.57
L305.003 380.515
L305.229 380.409
L305.323 380.324
L305.509 380.214
L305.616 380.153
L305.865 380.049
L305.965 379.979
L306.503 379.869
L306.61 379.853
L308.557 379.743
L308.656 379.711
L309.22 379.616
L309.321 379.57
L309.621 379.461
L309.725 379.421
L310.154 379.311
L310.235 379.299
L310.687 379.214
L310.779 379.135
L311.029 379.034
L311.131 378.927
L311.33 378.819
L311.412 378.761
L311.623 378.652
L311.73 378.579
L311.917 378.487
L312.005 378.405
L312.237 378.294
L312.334 378.238
L312.524 378.132
L312.631 378.069
L312.932 377.96
L313.027 377.911
L313.236 377.801
L313.326 377.745
L313.523 377.643
L313.619 377.553
L313.763 377.449
L313.872 377.371
L314.089 377.268
L314.196 377.176
L314.556 377.065
L314.645 377.032
L314.901 376.926
L315.012 376.852
L315.233 376.741
L315.339 376.681
L315.544 376.574
L315.646 376.515
L315.912 376.41
L316.018 376.348
L316.268 376.237
L316.345 376.188
L316.531 376.085
L316.641 375.984
L316.824 375.88
L316.912 375.804
L317.148 375.7
L317.25 375.656
L317.532 375.563
L317.615 375.501
L317.792 375.392
L317.897 375.314
L318.078 375.206
L318.176 375.136
L318.435 375.026
L318.535 374.967
L318.841 374.865
L318.934 374.814
L319.206 374.703
L319.297 374.617
L319.446 374.508
L319.551 374.425
L319.707 374.325
L319.759 374.272
L319.906 374.164
L320.008 374.071
L320.138 373.979
L320.237 373.852
L320.349 373.76
L320.458 373.613
L320.554 373.529
L320.643 373.393
L320.746 373.283
L320.856 373.136
L320.955 373.055
L321.028 372.937
L321.158 372.828
L321.269 372.689
L321.397 372.617
L321.499 372.467
L321.614 372.358
L321.718 372.243
L321.817 372.14
L321.902 372.036
L322.02 371.939
L322.118 371.816
L322.24 371.709
L322.344 371.591
L322.467 371.499
L322.573 371.381
L322.688 371.28
L322.785 371.166
L322.894 371.062
L322.994 370.96
L323.131 370.865
L323.203 370.792
L323.353 370.696
L323.446 370.598
L323.574 370.492
L323.68 370.386
L323.849 370.286
L323.954 370.198
L324.156 370.09
L324.262 370.022
L324.48 369.915
L324.564 369.84
L324.734 369.731
L324.843 369.635
L325.015 369.524
L325.125 369.465
L325.404 369.355
L325.508 369.311
L326.187 369.208
L326.281 369.172
L328.843 369.279
L328.936 369.325
L330.817 369.428
L330.903 369.454
L332.099 369.557
L332.183 369.576
L333.09 369.662
L333.175 369.719
L334.35 369.61
L334.46 369.577
L334.839 369.477
L334.94 369.421
L335.432 369.314
L335.535 369.23
L335.923 369.125
L335.923 369.111
L336.513 369.007
L336.611 368.943
L336.918 368.861
L337.006 368.765
L337.216 368.711
L337.301 368.612
L337.513 368.547
L337.596 368.403
L337.9 368.295
L337.992 368.235
L338.581 368.148
L338.684 368.093
L338.988 368.015
L339.085 367.92
L339.368 367.81
L339.471 367.695
L339.68 367.632
L339.766 367.497
L340.061 367.389
L340.154 367.253
L340.355 367.176
L340.46 367.068
L340.846 366.963
L340.846 366.913
L341.144 366.814
L341.144 366.758
L341.342 366.69
L341.447 366.558
L341.642 366.465
L341.732 366.32
L341.926 366.222
L342.026 366.041
L342.235 365.963
L342.323 365.8
L342.521 365.708
L342.615 365.559
L342.813 365.473
L342.912 365.293
L343.108 365.208
L343.108 365.12
L343.304 365.023
L343.402 364.872
L343.602 364.794
L343.702 364.659
L343.895 364.604
L344.001 364.463
L344.197 364.401
L344.289 364.293
L344.485 364.235
L344.585 364.129
L344.883 364.029
L344.984 363.925
L345.473 363.818
L345.575 363.77
L346.063 363.679
L346.166 363.603
L346.456 363.496
L346.562 363.37
L346.751 363.306
L346.851 363.14
L347.053 363.057
L347.149 362.856
L347.339 362.77
L347.437 362.63
L347.637 362.566
L347.74 362.438
L347.935 362.367
L348.031 362.178
L348.229 362.09
L348.327 361.966
L348.526 361.903
L348.626 361.786
L348.916 361.683
L349.02 361.552
L349.21 361.492
L349.311 361.364
L349.505 361.295
L349.605 361.178
L349.903 361.084
L349.999 360.99
L350.201 360.933
L350.293 360.799
L350.49 360.729
L350.594 360.588
L350.884 360.489
L350.981 360.392
L351.183 360.331
L351.276 360.205
L351.473 360.143
L351.574 360.027
L351.873 359.92
L351.971 359.784
L352.272 359.681
L352.364 359.6
L352.656 359.514
L352.754 359.397
L353.061 359.291
L353.151 359.185
L353.444 359.084
L353.539 359.004
L353.937 358.904
L354.04 358.846
L354.524 358.744
L354.623 358.677
L355.121 358.585
L355.217 358.544
L355.707 358.44
L355.804 358.379
L356.202 358.286
L356.298 358.238
L357.184 358.133
L357.279 358.081
L357.873 357.973
L357.971 357.922
L358.857 357.825
L358.953 357.782
L359.35 357.691
L359.448 357.64
L359.94 357.546
L360.046 357.486
L360.429 357.392
L360.527 357.31
L361.119 357.2
L361.217 357.155
L361.517 357.063
L361.612 356.984
L362.005 356.896
L362.109 356.814
L362.397 356.736
L362.498 356.648
L362.792 356.56
L362.891 356.487
L363.188 356.411
L363.284 356.331
L363.579 356.236
L363.678 356.172
L363.98 356.084
L364.073 356.001
L364.369 355.906
L364.466 355.788
L364.668 355.727
L364.76 355.59
L364.962 355.506
L365.055 355.331
L365.252 355.245
L365.354 355.074
L365.552 354.994
L365.647 354.86
L365.844 354.8
L365.941 354.668
L366.144 354.592
L366.238 354.473
L366.534 354.368
L366.633 354.276
L366.829 354.218
L366.927 354.099
L367.123 354.035
L367.22 353.917
L367.418 353.847
L367.516 353.736
L367.811 353.636
L367.91 353.551
L368.206 353.443
L368.303 353.34
L368.501 353.285
L368.6 353.167
L368.796 353.109
L368.895 353.002
L369.189 352.91
L369.287 352.826
L371.159 352.724
L371.159 352.713
L371.256 352.716
L372.732 352.612
L372.832 352.584
L373.226 352.487
L373.326 352.404
L373.717 352.295
L373.816 352.213
L374.11 352.104
L374.208 352.016
L374.504 351.927
L374.604 351.831
L374.898 351.749
L374.996 351.654
L375.2 351.597
L375.291 351.464
L375.488 351.393
L375.589 351.257
L375.882 351.147
L375.983 351.016
L376.18 350.936
L376.277 350.784
L376.473 350.713
L376.571 350.583
L376.969 350.481
L377.067 350.403
L377.359 350.319
L377.457 350.21
L377.752 350.11
L377.85 350.013
L378.147 349.923
L378.244 349.822
L378.539 349.731
L378.639 349.657
L379.032 349.559
L379.134 349.487
L379.524 349.39
L379.622 349.319
L379.918 349.229
L380.015 349.125
L380.41 349.015
L380.511 348.937
L380.803 348.831
L380.902 348.725
L381.197 348.62
L381.295 348.528
L381.59 348.441
L381.691 348.347
L381.986 348.269
L382.083 348.19
L382.477 348.097
L382.575 348.027
L382.968 347.922
L383.066 347.873
L383.56 347.768
L383.657 347.714
L383.953 347.62
L384.051 347.512
L384.348 347.414
L384.445 347.289
L384.641 347.222
L384.74 347.081
L384.937 346.997
L385.036 346.83
L385.232 346.74
L385.331 346.569
L385.527 346.481
L385.628 346.3
L385.823 346.202
L385.921 345.998
L386.12 345.897
L386.217 345.703
L386.413 345.608
L386.512 345.429
L386.71 345.352
L386.808 345.203
L387.003 345.136
L387.104 345.002
L387.3 344.939
L387.397 344.826
L387.594 344.767
L387.695 344.642
L387.889 344.583
L387.99 344.47
L388.284 344.38
L388.381 344.281
L388.581 344.227
L388.676 344.109
L389.07 344.004
L389.169 343.919
L389.464 343.822
L389.563 343.703
L389.76 343.636
L389.859 343.502
L390.055 343.436
L390.156 343.318
L390.448 343.225
L390.549 343.146
L390.842 343.048
L390.94 342.943
L391.237 342.832
L391.334 342.758
L391.728 342.648
L391.826 342.543
L392.122 342.456
L392.221 342.368
L392.515 342.293
L392.616 342.215
L392.909 342.136
L393.009 342.035
L393.204 341.964
L393.304 341.809
L393.5 341.744
L393.598 341.613
L393.795 341.541
L393.893 341.406
L394.188 341.299
L394.287 341.184
L394.486 341.125
L394.582 341.012
L394.879 340.901
L394.976 340.786
L395.272 340.695
L395.372 340.632
L396.453 340.529
L396.552 340.498
L396.945 340.396
L397.045 340.358
L398.125 340.248
L398.223 340.224
L399.306 340.117
L399.405 340.107
L401.176 339.998
L401.275 339.95
L402.555 339.846
L402.653 339.829
L403.736 339.721
L403.836 339.672
L404.424 339.576
L404.523 339.516
L404.918 339.405
L405.016 339.326
L405.31 339.237
L405.409 339.145
L405.704 339.05
L405.802 338.944
L406 338.883
L406.098 338.764
L406.295 338.698
L406.393 338.571
L406.592 338.508
L406.688 338.382
L406.885 338.309
L406.983 338.151
L407.181 338.078
L407.28 337.927
L407.475 337.864
L407.575 337.744
L407.771 337.68
L407.869 337.555
L408.066 337.495
L408.165 337.365
L408.361 337.294
L408.46 337.155
L408.657 337.083
L408.755 336.93
L408.952 336.858
L409.05 336.741
L409.247 336.676
L409.346 336.512
L409.542 336.442
L409.641 336.311
L409.838 336.247
L409.936 336.141
L410.133 336.08
L410.231 335.946
L410.428 335.871
L410.526 335.764
L410.822 335.666
L410.921 335.57
L411.215 335.474
L411.314 335.366
L411.609 335.278
L411.708 335.184
L412.004 335.102
L412.102 334.993
L412.298 334.933
L412.397 334.821
L412.692 334.726
L412.792 334.625
L412.987 334.57
L413.086 334.446
L413.283 334.384
L413.381 334.285
L413.873 334.179
L413.971 334.154
L414.365 334.074
L414.463 333.984
L414.759 333.883
L414.857 333.782
L415.054 333.727
L415.153 333.592
L415.35 333.517
L415.448 333.38
L415.645 333.319
L415.743 333.206
L416.039 333.101
L416.136 332.983
L416.334 332.912
L416.432 332.772
L416.63 332.7
L416.727 332.56
L416.924 332.503
L417.023 332.384
L417.219 332.322
L417.318 332.193
L417.515 332.125
L417.613 332.011
L417.908 331.9
L418.007 331.804
L418.302 331.718
L418.4 331.613
L418.695 331.531
L418.794 331.462
L419.189 331.36
L419.286 331.301
L419.68 331.204
L419.779 331.136
L420.172 331.03
L420.27 330.953
L420.763 330.853
L420.861 330.777
L421.255 330.68
L421.353 330.623
L421.648 330.536
L421.747 330.424
L421.944 330.36
L422.042 330.229
L422.338 330.122
L422.436 330.022
L422.731 329.936
L422.83 329.848
L423.125 329.757
L423.223 329.665
L423.617 329.56
L423.715 329.487
L424.01 329.4
L424.109 329.305
L424.404 329.196
L424.503 329.079
L424.699 329.02
L424.798 328.91
L424.995 328.854
L425.094 328.734
L425.29 328.678
L425.389 328.544
L425.586 328.469
L425.684 328.323
L425.881 328.253
L425.979 328.135
L426.274 328.028
L426.373 327.941
L426.668 327.837
L426.766 327.73
L427.062 327.639
L427.16 327.544
L427.554 327.443
L427.652 327.381
L428.046 327.304
L428.144 327.236
L428.439 327.156
L428.539 327.092
L429.03 326.989
L429.128 326.931
L429.621 326.821
L429.719 326.789
L432.081 326.896
L432.18 326.946
L435.231 326.843
L435.33 326.773
L435.821 326.668
L435.92 326.605
L436.215 326.529
L436.314 326.449
L436.707 326.354
L436.805 326.292
L437.298 326.185
L437.396 326.124
L437.79 326.014
L437.888 325.937
L438.282 325.834
L438.38 325.774
L438.774 325.678
L438.873 325.604
L439.266 325.504
L439.365 325.436
L439.66 325.342
L439.758 325.225
L440.053 325.123
L440.152 325.001
L440.349 324.933
L440.447 324.793
L440.743 324.689
L440.841 324.57
L441.038 324.512
L441.136 324.4
L441.431 324.303
L441.53 324.186
L441.727 324.114
L441.825 323.981
L442.022 323.922
L442.12 323.801
L442.317 323.739
L442.416 323.614
L442.613 323.547
L442.711 323.429
L443.006 323.321
L443.104 323.212
L443.4 323.107
L443.498 323.031
L443.794 322.944
L443.892 322.843
L444.188 322.751
L444.286 322.667
L444.778 322.558
L444.876 322.522
L445.369 322.414
L445.467 322.333
L445.762 322.244
L445.86 322.149
L446.156 322.041
L446.254 321.946
L446.549 321.842
L446.648 321.743
L446.943 321.642
L447.041 321.547
L447.337 321.455
L447.435 321.382
L447.73 321.309
L447.829 321.232
L448.223 321.14
L448.321 321.076
L448.715 320.971
L448.813 320.93
L449.207 320.831
L449.305 320.735
L449.6 320.649
L449.699 320.571
L450.289 320.472
L450.388 320.419
L450.979 320.309
L451.077 320.237
L451.47 320.129
L451.569 320.064
L451.864 319.989
L451.963 319.898
L452.258 319.82
L452.356 319.725
L452.652 319.615
L452.75 319.506
L453.045 319.416
L453.144 319.311
L453.439 319.211
L453.538 319.096
L453.734 319.032
L453.833 318.919
L454.128 318.821
L454.226 318.72
L454.423 318.659
L454.522 318.543
L454.817 318.451
L454.915 318.343
L455.211 318.253
L455.309 318.162
L455.604 318.074
L455.703 317.997
L455.998 317.923
L456.096 317.839
L456.392 317.752
L456.49 317.66
L456.785 317.575
L456.884 317.502
L457.278 317.392
L457.376 317.31
L458.065 317.2
L458.163 317.178
L459.246 317.069
L459.344 317.038
L460.329 316.928
L460.427 316.923
L461.116 316.826
L461.214 316.781
L461.707 316.674
L461.805 316.612
L462.199 316.523
L462.297 316.474
L462.691 316.383
L462.789 316.342
L463.577 316.245
L463.675 316.212
L464.167 316.113
L464.265 316.056
L464.758 315.952
L464.856 315.898
L465.151 315.814
L465.25 315.736
L465.644 315.64
L465.742 315.576
L466.234 315.476
L466.332 315.414
L466.825 315.326
L466.923 315.278
L467.218 315.203
L467.317 315.13
L467.71 315.035
L467.809 314.953
L468.301 314.85
L468.399 314.828
L469.384 314.733
L469.482 314.663
L469.777 314.576
L469.876 314.474
L470.171 314.367
L470.269 314.288
L470.565 314.214
L470.663 314.132
L470.958 314.055
L471.057 313.974
L471.352 313.879
L471.45 313.785
L471.746 313.698
L471.844 313.619
L472.139 313.536
L472.238 313.438
L472.533 313.343
L472.631 313.267
L472.927 313.185
L473.025 313.108
L473.419 312.998
L473.517 312.933
L474.797 312.824
L474.895 312.816
L475.879 312.711
L475.978 312.676
L476.372 312.581
L476.47 312.512
L476.864 312.424
L476.962 312.375
L477.454 312.267
L477.553 312.237
L478.045 312.126
L478.143 312.061
L478.537 311.965
L478.635 311.91
L479.127 311.818
L479.226 311.766
L479.62 311.66
L479.718 311.616
L480.21 311.507
L480.308 311.455
L480.702 311.364
L480.801 311.31
L481.686 311.204
L481.785 311.155
L482.375 311.058
L482.474 311.018
L482.867 310.929
L482.966 310.867
L483.36 310.775
L483.458 310.686
L483.753 310.595
L483.852 310.49
L484.147 310.39
L484.245 310.288
L484.541 310.192
L484.639 310.108
L484.934 310.015
L485.033 309.93
L485.328 309.847
L485.426 309.757
L485.722 309.648
L485.82 309.541
L486.017 309.479
L486.115 309.355
L486.411 309.248
L486.509 309.158
L486.804 309.077
L486.903 308.989
L487.296 308.88
L487.395 308.807
L487.887 308.704
L487.985 308.637
L488.379 308.548
L488.478 308.486
L488.773 308.422
L488.871 308.327
L489.167 308.22
L489.265 308.104
L489.462 308.042
L489.56 307.913
L489.757 307.846
L489.856 307.71
L490.052 307.641
L490.151 307.513
L490.348 307.454
L490.446 307.351
L490.741 307.262
L490.84 307.153
L491.135 307.047
L491.233 306.935
L491.43 306.879
L491.529 306.764
L491.726 306.7
L491.824 306.574
L492.021 306.503
L492.119 306.375
L492.316 306.318
L492.414 306.202
L492.71 306.105
L492.808 306.017
L493.103 305.924
L493.202 305.837
L493.497 305.757
L493.596 305.682
L493.891 305.593
L493.989 305.496
L494.186 305.435
L494.285 305.32
L494.58 305.23
L494.678 305.137
L495.072 305.039
L495.17 305.007
L498.221 305.109
L498.32 305.172
L502.355 305.274
L502.454 305.287
L504.422 305.189
L504.521 305.122
L505.013 305.029
L505.111 304.962
L505.505 304.868
L505.603 304.789
L505.898 304.693
L505.997 304.607
L506.292 304.513
L506.391 304.425
L506.686 304.347
L506.784 304.273
L507.178 304.18
L507.276 304.105
L507.572 304.02
L507.67 303.942
L508.064 303.832
L508.162 303.767
L508.457 303.695
L508.556 303.609
L508.753 303.55
L508.851 303.442
L509.146 303.336
L509.245 303.209
L509.54 303.118
L509.639 303.039
L509.934 302.938
L510.032 302.835
L510.328 302.751
L510.426 302.679
L510.721 302.596
L510.82 302.503
L511.115 302.411
L511.213 302.32
L511.509 302.226
L511.607 302.142
L511.902 302.06
L512.001 301.96
L512.296 301.856
L512.394 301.755
L512.69 301.647
L512.788 301.552
L513.083 301.478
L513.182 301.405
L513.477 301.333
L513.576 301.254
L514.068 301.15
L514.166 301.108
L514.56 301.008
L514.658 300.931
L515.052 300.823
L515.15 300.761
L515.642 300.662
L515.741 300.604
L516.036 300.529
L516.135 300.455
L516.528 300.347
L516.627 300.275
L516.922 300.19
L517.02 300.109
L517.316 300.005
L517.414 299.9
L517.709 299.801
L517.808 299.717
L518.103 299.638
L518.201 299.551
L518.497 299.459
L518.595 299.377
L518.89 299.286
L518.989 299.189
L519.284 299.1
L519.382 299.008
L519.678 298.905
L519.776 298.797
L519.973 298.742
L520.071 298.626
L520.367 298.526
L520.465 298.456
L520.957 298.367
L521.056 298.306
L521.449 298.212
L521.548 298.153
L521.941 298.071
L522.04 298.011
L523.123 297.918
L523.221 297.882
L523.713 297.787
L523.812 297.746
L524.796 297.646
L524.894 297.619
L525.682 297.532
L525.78 297.476
L526.272 297.385
L526.371 297.338
L526.863 297.237
L526.961 297.199
L527.847 297.094
L527.945 297.062
L528.634 296.963
L528.733 296.93
L529.323 296.836
L529.422 296.793
L530.504 296.684
L530.603 296.675
L532.374 296.565
L532.473 296.532
L533.063 296.435
L533.162 296.404
L533.752 296.318
L533.851 296.269
L534.343 296.177
L534.441 296.12
L534.835 296.026
L534.933 295.949
L535.229 295.872
L535.327 295.798
L535.622 295.719
L535.721 295.641
L536.114 295.535
L536.213 295.466
L536.607 295.366
L536.705 295.313
L537.099 295.213
L537.197 295.138
L537.591 295.03
L537.689 294.954
L537.984 294.866
L538.083 294.766
L538.378 294.677
L538.477 294.607
L539.264 294.507
L539.362 294.467
L540.642 294.372
L540.74 294.318
L541.331 294.219
L541.429 294.185
L541.921 294.093
L542.02 294.039
L542.414 293.957
L542.512 293.887
L542.906 293.796
L543.004 293.727
L543.398 293.64
L543.496 293.584
L543.988 293.484
L544.087 293.438
L544.677 293.342
L544.776 293.299
L545.366 293.196
L545.465 293.158
L545.957 293.055
L546.055 292.998
L546.547 292.899
L546.646 292.843
L547.236 292.744
L547.335 292.687
L547.728 292.59
L547.827 292.536
L547.827 292.536" style="fill:none;stroke:#0000ff;stroke-width:5.0;"/>
   </g>
   <g id="matplotlib.axis_1">
    <g id="xtick_1">
     <g id="line2d_2">
      <path d="
M189.288 412.239
L189.288 8.51291" style="fill:none;stroke:#000000;stroke-dasharray:1.000000,3.000000;stroke-dashoffset:0.0;stroke-linecap:butt;stroke-width:0.5;"/>
     </g>
     <g id="line2d_3">
      <defs>
       <path d="
M0 0
L0 -4" id="m3fbe6c24f1"/>
      </defs>
      <g>
       <use style="stroke:#000000;stroke-linecap:butt;stroke-width:0.5;" x="189.287616689" xlink:href="#m3fbe6c24f1" y="16.276875"/>
      </g>
     </g>
     <g id="text_1">
      <!-- 5 -->
      <defs>
       <path d="
M10.7969 72.9062
L49.5156 72.9062
L49.5156 64.5938
L19.8281 64.5938
L19.8281 46.7344
Q21.9688 47.4688 24.1094 47.8281
Q26.2656 48.1875 28.4219 48.1875
Q40.625 48.1875 47.75 41.5
Q54.8906 34.8125 54.8906 23.3906
Q54.8906 11.625 47.5625 5.09375
Q40.2344 -1.42188 26.9062 -1.42188
Q22.3125 -1.42188 17.5469 -0.640625
Q12.7969 0.140625 7.71875 1.70312
L7.71875 11.625
Q12.1094 9.23438 16.7969 8.0625
Q21.4844 6.89062 26.7031 6.89062
Q35.1562 6.89062 40.0781 11.3281
Q45.0156 15.7656 45.0156 23.3906
Q45.0156 31 40.0781 35.4375
Q35.1562 39.8906 26.7031 39.8906
Q22.75 39.8906 18.8125 39.0156
Q14.8906 38.1406 10.7969 36.2812
z
" id="BitstreamVeraSans-Roman-35"/>
      </defs>
      <g transform="translate(183.626991689 37.774375)scale(0.24 -0.24)">
       <use xlink:href="#BitstreamVeraSans-Roman-35"/>
      </g>
     </g>
    </g>
    <g id="xtick_2">
     <g id="line2d_4">
      <path d="
M322.865 412.239
L322.865 8.51291" style="fill:none;stroke:#000000;stroke-dasharray:1.000000,3.000000;stroke-dashoffset:0.0;stroke-linecap:butt;stroke-width:0.5;"/>
     </g>
     <g id="line2d_5">
      <defs>
       <path d="
M0 0
L0 -4" id="m3fbe6c24f1"/>
      </defs>
      <g>
       <use style="stroke:#000000;stroke-linecap:butt;stroke-width:0.5;" x="322.864732462" xlink:href="#m3fbe6c24f1" y="16.276875"/>
      </g>
     </g>
     <g id="text_2">
      <!-- 10 -->
      <defs>
       <path d="
M31.7812 66.4062
Q24.1719 66.4062 20.3281 58.9062
Q16.5 51.4219 16.5 36.375
Q16.5 21.3906 20.3281 13.8906
Q24.1719 6.39062 31.7812 6.39062
Q39.4531 6.39062 43.2812 13.8906
Q47.125 21.3906 47.125 36.375
Q47.125 51.4219 43.2812 58.9062
Q39.4531 66.4062 31.7812 66.4062
M31.7812 74.2188
Q44.0469 74.2188 50.5156 64.5156
Q56.9844 54.8281 56.9844 36.375
Q56.9844 17.9688 50.5156 8.26562
Q44.0469 -1.42188 31.7812 -1.42188
Q19.5312 -1.42188 13.0625 8.26562
Q6.59375 17.9688 6.59375 36.375
Q6.59375 54.8281 13.0625 64.5156
Q19.5312 74.2188 31.7812 74.2188" id="BitstreamVeraSans-Roman-30"/>
       <path d="
M12.4062 8.29688
L28.5156 8.29688
L28.5156 63.9219
L10.9844 60.4062
L10.9844 69.3906
L28.4219 72.9062
L38.2812 72.9062
L38.2812 8.29688
L54.3906 8.29688
L54.3906 0
L12.4062 0
z
" id="BitstreamVeraSans-Roman-31"/>
      </defs>
      <g transform="translate(309.709732462 38.089375)scale(0.24 -0.24)">
       <use xlink:href="#BitstreamVeraSans-Roman-31"/>
       <use x="63.623046875" xlink:href="#BitstreamVeraSans-Roman-30"/>
      </g>
     </g>
    </g>
    <g id="xtick_3">
     <g id="line2d_6">
      <path d="
M456.442 412.239
L456.442 8.51291" style="fill:none;stroke:#000000;stroke-dasharray:1.000000,3.000000;stroke-dashoffset:0.0;stroke-linecap:butt;stroke-width:0.5;"/>
     </g>
     <g id="line2d_7">
      <defs>
       <path d="
M0 0
L0 -4" id="m3fbe6c24f1"/>
      </defs>
      <g>
       <use style="stroke:#000000;stroke-linecap:butt;stroke-width:0.5;" x="456.441848234" xlink:href="#m3fbe6c24f1" y="16.276875"/>
      </g>
     </g>
     <g id="text_3">
      <!-- 15 -->
      <g transform="translate(443.538098234 37.774375)scale(0.24 -0.24)">
       <use xlink:href="#BitstreamVeraSans-Roman-31"/>
       <use x="63.623046875" xlink:href="#BitstreamVeraSans-Roman-35"/>
      </g>
     </g>
    </g>
    <g id="xtick_4">
     <g id="line2d_8">
      <defs>
       <path d="
M0 0
L0 -2" id="mf0ff38ea95"/>
      </defs>
      <g>
       <use style="stroke:#000000;stroke-linecap:butt;stroke-width:0.5;" x="82.4259240713" xlink:href="#mf0ff38ea95" y="16.276875"/>
      </g>
     </g>
    </g>
    <g id="xtick_5">
     <g id="line2d_9">
      <defs>
       <path d="
M0 0
L0 -2" id="mf0ff38ea95"/>
      </defs>
      <g>
       <use style="stroke:#000000;stroke-linecap:butt;stroke-width:0.5;" x="109.141347226" xlink:href="#mf0ff38ea95" y="16.276875"/>
      </g>
     </g>
    </g>
    <g id="xtick_6">
     <g id="line2d_10">
      <defs>
       <path d="
M0 0
L0 -2" id="mf0ff38ea95"/>
      </defs>
      <g>
       <use style="stroke:#000000;stroke-linecap:butt;stroke-width:0.5;" x="135.85677038" xlink:href="#mf0ff38ea95" y="16.276875"/>
      </g>
     </g>
    </g>
    <g id="xtick_7">
     <g id="line2d_11">
      <defs>
       <path d="
M0 0
L0 -2" id="mf0ff38ea95"/>
      </defs>
      <g>
       <use style="stroke:#000000;stroke-linecap:butt;stroke-width:0.5;" x="162.572193535" xlink:href="#mf0ff38ea95" y="16.276875"/>
      </g>
     </g>
    </g>
    <g id="xtick_8">
     <g id="line2d_12">
      <defs>
       <path d="
M0 0
L0 -2" id="mf0ff38ea95"/>
      </defs>
      <g>
       <use style="stroke:#000000;stroke-linecap:butt;stroke-width:0.5;" x="216.003039844" xlink:href="#mf0ff38ea95" y="16.276875"/>
      </g>
     </g>
    </g>
    <g id="xtick_9">
     <g id="line2d_13">
      <defs>
       <path d="
M0 0
L0 -2" id="mf0ff38ea95"/>
      </defs>
      <g>
       <use style="stroke:#000000;stroke-linecap:butt;stroke-width:0.5;" x="242.718462998" xlink:href="#mf0ff38ea95" y="16.276875"/>
      </g>
     </g>
    </g>
    <g id="xtick_10">
     <g id="line2d_14">
      <defs>
       <path d="
M0 0
L0 -2" id="mf0ff38ea95"/>
      </defs>
      <g>
       <use style="stroke:#000000;stroke-linecap:butt;stroke-width:0.5;" x="269.433886153" xlink:href="#mf0ff38ea95" y="16.276875"/>
      </g>
     </g>
    </g>
    <g id="xtick_11">
     <g id="line2d_15">
      <defs>
       <path d="
M0 0
L0 -2" id="mf0ff38ea95"/>
      </defs>
      <g>
       <use style="stroke:#000000;stroke-linecap:butt;stroke-width:0.5;" x="296.149309307" xlink:href="#mf0ff38ea95" y="16.276875"/>
      </g>
     </g>
    </g>
    <g id="xtick_12">
     <g id="line2d_16">
      <defs>
       <path d="
M0 0
L0 -2" id="mf0ff38ea95"/>
      </defs>
      <g>
       <use style="stroke:#000000;stroke-linecap:butt;stroke-width:0.5;" x="349.580155616" xlink:href="#mf0ff38ea95" y="16.276875"/>
      </g>
     </g>
    </g>
    <g id="xtick_13">
     <g id="line2d_17">
      <defs>
       <path d="
M0 0
L0 -2" id="mf0ff38ea95"/>
      </defs>
      <g>
       <use style="stroke:#000000;stroke-linecap:butt;stroke-width:0.5;" x="376.29557877" xlink:href="#mf0ff38ea95" y="16.276875"/>
      </g>
     </g>
    </g>
    <g id="xtick_14">
     <g id="line2d_18">
      <defs>
       <path d="
M0 0
L0 -2" id="mf0ff38ea95"/>
      </defs>
      <g>
       <use style="stroke:#000000;stroke-linecap:butt;stroke-width:0.5;" x="403.011001925" xlink:href="#mf0ff38ea95" y="16.276875"/>
      </g>
     </g>
    </g>
    <g id="xtick_15">
     <g id="line2d_19">
      <defs>
       <path d="
M0 0
L0 -2" id="mf0ff38ea95"/>
      </defs>
      <g>
       <use style="stroke:#000000;stroke-linecap:butt;stroke-width:0.5;" x="429.726425079" xlink:href="#mf0ff38ea95" y="16.276875"/>
      </g>
     </g>
    </g>
    <g id="xtick_16">
     <g id="line2d_20">
      <defs>
       <path d="
M0 0
L0 -2" id="mf0ff38ea95"/>
      </defs>
      <g>
       <use style="stroke:#000000;stroke-linecap:butt;stroke-width:0.5;" x="483.157271388" xlink:href="#mf0ff38ea95" y="16.276875"/>
      </g>
     </g>
    </g>
    <g id="xtick_17">
     <g id="line2d_21">
      <defs>
       <path d="
M0 0
L0 -2" id="mf0ff38ea95"/>
      </defs>
      <g>
       <use style="stroke:#000000;stroke-linecap:butt;stroke-width:0.5;" x="509.872694543" xlink:href="#mf0ff38ea95" y="16.276875"/>
      </g>
     </g>
    </g>
   </g>
   <g id="matplotlib.axis_2">
    <g id="ytick_1">
     <g id="line2d_22">
      <path d="
M64.7562 350.949
L557.299 350.949" style="fill:none;stroke:#000000;stroke-dasharray:1.000000,3.000000;stroke-dashoffset:0.0;stroke-linecap:butt;stroke-width:0.5;"/>
     </g>
     <g id="line2d_23">
      <defs>
       <path d="
M0 0
L4 0" id="mc91e532072"/>
      </defs>
      <g>
       <use style="stroke:#000000;stroke-linecap:butt;stroke-width:0.5;" x="54.75625" xlink:href="#mc91e532072" y="350.949188183"/>
      </g>
     </g>
     <g id="text_4">
      <!-- -2.5 -->
      <defs>
       <path d="
M19.1875 8.29688
L53.6094 8.29688
L53.6094 0
L7.32812 0
L7.32812 8.29688
Q12.9375 14.1094 22.625 23.8906
Q32.3281 33.6875 34.8125 36.5312
Q39.5469 41.8438 41.4219 45.5312
Q43.3125 49.2188 43.3125 52.7812
Q43.3125 58.5938 39.2344 62.25
Q35.1562 65.9219 28.6094 65.9219
Q23.9688 65.9219 18.8125 64.3125
Q13.6719 62.7031 7.8125 59.4219
L7.8125 69.3906
Q13.7656 71.7812 18.9375 73
Q24.125 74.2188 28.4219 74.2188
Q39.75 74.2188 46.4844 68.5469
Q53.2188 62.8906 53.2188 53.4219
Q53.2188 48.9219 51.5312 44.8906
Q49.8594 40.875 45.4062 35.4062
Q44.1875 33.9844 37.6406 27.2188
Q31.1094 20.4531 19.1875 8.29688" id="BitstreamVeraSans-Roman-32"/>
       <path d="
M10.6875 12.4062
L21 12.4062
L21 0
L10.6875 0
z
" id="BitstreamVeraSans-Roman-2e"/>
       <path d="
M4.89062 31.3906
L31.2031 31.3906
L31.2031 23.3906
L4.89062 23.3906
z
" id="BitstreamVeraSans-Roman-2d"/>
      </defs>
      <g transform="translate(7.2 359.684813183)scale(0.24 -0.24)">
       <use xlink:href="#BitstreamVeraSans-Roman-2d"/>
       <use x="36.083984375" xlink:href="#BitstreamVeraSans-Roman-32"/>
       <use x="99.70703125" xlink:href="#BitstreamVeraSans-Roman-2e"/>
       <use x="131.494140625" xlink:href="#BitstreamVeraSans-Roman-35"/>
      </g>
     </g>
    </g>
    <g id="ytick_2">
     <g id="line2d_24">
      <path d="
M64.7562 284.015
L557.299 284.015" style="fill:none;stroke:#000000;stroke-dasharray:1.000000,3.000000;stroke-dashoffset:0.0;stroke-linecap:butt;stroke-width:0.5;"/>
     </g>
     <g id="line2d_25">
      <defs>
       <path d="
M0 0
L4 0" id="mc91e532072"/>
      </defs>
      <g>
       <use style="stroke:#000000;stroke-linecap:butt;stroke-width:0.5;" x="54.75625" xlink:href="#mc91e532072" y="284.014725546"/>
      </g>
     </g>
     <g id="text_5">
      <!-- -2 -->
      <g transform="translate(30.405 292.920975546)scale(0.24 -0.24)">
       <use xlink:href="#BitstreamVeraSans-Roman-2d"/>
       <use x="36.083984375" xlink:href="#BitstreamVeraSans-Roman-32"/>
      </g>
     </g>
    </g>
    <g id="ytick_3">
     <g id="line2d_26">
      <path d="
M64.7562 217.08
L557.299 217.08" style="fill:none;stroke:#000000;stroke-dasharray:1.000000,3.000000;stroke-dashoffset:0.0;stroke-linecap:butt;stroke-width:0.5;"/>
     </g>
     <g id="line2d_27">
      <defs>
       <path d="
M0 0
L4 0" id="mc91e532072"/>
      </defs>
      <g>
       <use style="stroke:#000000;stroke-linecap:butt;stroke-width:0.5;" x="54.75625" xlink:href="#mc91e532072" y="217.08026291"/>
      </g>
     </g>
     <g id="text_6">
      <!-- -1.5 -->
      <g transform="translate(7.2 225.65838791)scale(0.24 -0.24)">
       <use xlink:href="#BitstreamVeraSans-Roman-2d"/>
       <use x="36.083984375" xlink:href="#BitstreamVeraSans-Roman-31"/>
       <use x="99.70703125" xlink:href="#BitstreamVeraSans-Roman-2e"/>
       <use x="131.494140625" xlink:href="#BitstreamVeraSans-Roman-35"/>
      </g>
     </g>
    </g>
    <g id="ytick_4">
     <g id="line2d_28">
      <path d="
M64.7562 150.146
L557.299 150.146" style="fill:none;stroke:#000000;stroke-dasharray:1.000000,3.000000;stroke-dashoffset:0.0;stroke-linecap:butt;stroke-width:0.5;"/>
     </g>
     <g id="line2d_29">
      <defs>
       <path d="
M0 0
L4 0" id="mc91e532072"/>
      </defs>
      <g>
       <use style="stroke:#000000;stroke-linecap:butt;stroke-width:0.5;" x="54.75625" xlink:href="#mc91e532072" y="150.145800273"/>
      </g>
     </g>
     <g id="text_7">
      <!-- -1 -->
      <g transform="translate(30.2175 158.894550273)scale(0.24 -0.24)">
       <use xlink:href="#BitstreamVeraSans-Roman-2d"/>
       <use x="36.083984375" xlink:href="#BitstreamVeraSans-Roman-31"/>
      </g>
     </g>
    </g>
    <g id="ytick_5">
     <g id="line2d_30">
      <path d="
M64.7562 83.2113
L557.299 83.2113" style="fill:none;stroke:#000000;stroke-dasharray:1.000000,3.000000;stroke-dashoffset:0.0;stroke-linecap:butt;stroke-width:0.5;"/>
     </g>
     <g id="line2d_31">
      <defs>
       <path d="
M0 0
L4 0" id="mc91e532072"/>
      </defs>
      <g>
       <use style="stroke:#000000;stroke-linecap:butt;stroke-width:0.5;" x="54.75625" xlink:href="#mc91e532072" y="83.2113376365"/>
      </g>
     </g>
     <g id="text_8">
      <!-- -0.5 -->
      <g transform="translate(7.2 91.9469626365)scale(0.24 -0.24)">
       <use xlink:href="#BitstreamVeraSans-Roman-2d"/>
       <use x="36.083984375" xlink:href="#BitstreamVeraSans-Roman-30"/>
       <use x="99.70703125" xlink:href="#BitstreamVeraSans-Roman-2e"/>
       <use x="131.494140625" xlink:href="#BitstreamVeraSans-Roman-35"/>
      </g>
     </g>
    </g>
    <g id="ytick_6">
     <g id="line2d_32">
      <path d="
M64.7562 16.2769
L557.299 16.2769" style="fill:none;stroke:#000000;stroke-dasharray:1.000000,3.000000;stroke-dashoffset:0.0;stroke-linecap:butt;stroke-width:0.5;"/>
     </g>
     <g id="line2d_33">
      <defs>
       <path d="
M0 0
L4 0" id="mc91e532072"/>
      </defs>
      <g>
       <use style="stroke:#000000;stroke-linecap:butt;stroke-width:0.5;" x="54.75625" xlink:href="#mc91e532072" y="16.276875"/>
      </g>
     </g>
     <g id="text_9">
      <!-- 0 -->
      <g transform="translate(38.6625 25.0125)scale(0.24 -0.24)">
       <use xlink:href="#BitstreamVeraSans-Roman-30"/>
      </g>
     </g>
    </g>
    <g id="ytick_7">
     <g id="line2d_34">
      <defs>
       <path d="
M0 0
L2 0" id="m0789224b6b"/>
      </defs>
      <g>
       <use style="stroke:#000000;stroke-linecap:butt;stroke-width:0.5;" x="54.75625" xlink:href="#m0789224b6b" y="404.496758292"/>
      </g>
     </g>
    </g>
    <g id="ytick_8">
     <g id="line2d_35">
      <defs>
       <path d="
M0 0
L2 0" id="m0789224b6b"/>
      </defs>
      <g>
       <use style="stroke:#000000;stroke-linecap:butt;stroke-width:0.5;" x="54.75625" xlink:href="#m0789224b6b" y="391.109865765"/>
      </g>
     </g>
    </g>
    <g id="ytick_9">
     <g id="line2d_36">
      <defs>
       <path d="
M0 0
L2 0" id="m0789224b6b"/>
      </defs>
      <g>
       <use style="stroke:#000000;stroke-linecap:butt;stroke-width:0.5;" x="54.75625" xlink:href="#m0789224b6b" y="377.722973237"/>
      </g>
     </g>
    </g>
    <g id="ytick_10">
     <g id="line2d_37">
      <defs>
       <path d="
M0 0
L2 0" id="m0789224b6b"/>
      </defs>
      <g>
       <use style="stroke:#000000;stroke-linecap:butt;stroke-width:0.5;" x="54.75625" xlink:href="#m0789224b6b" y="364.33608071"/>
      </g>
     </g>
    </g>
    <g id="ytick_11">
     <g id="line2d_38">
      <defs>
       <path d="
M0 0
L2 0" id="m0789224b6b"/>
      </defs>
      <g>
       <use style="stroke:#000000;stroke-linecap:butt;stroke-width:0.5;" x="54.75625" xlink:href="#m0789224b6b" y="337.562295655"/>
      </g>
     </g>
    </g>
    <g id="ytick_12">
     <g id="line2d_39">
      <defs>
       <path d="
M0 0
L2 0" id="m0789224b6b"/>
      </defs>
      <g>
       <use style="stroke:#000000;stroke-linecap:butt;stroke-width:0.5;" x="54.75625" xlink:href="#m0789224b6b" y="324.175403128"/>
      </g>
     </g>
    </g>
    <g id="ytick_13">
     <g id="line2d_40">
      <defs>
       <path d="
M0 0
L2 0" id="m0789224b6b"/>
      </defs>
      <g>
       <use style="stroke:#000000;stroke-linecap:butt;stroke-width:0.5;" x="54.75625" xlink:href="#m0789224b6b" y="310.788510601"/>
      </g>
     </g>
    </g>
    <g id="ytick_14">
     <g id="line2d_41">
      <defs>
       <path d="
M0 0
L2 0" id="m0789224b6b"/>
      </defs>
      <g>
       <use style="stroke:#000000;stroke-linecap:butt;stroke-width:0.5;" x="54.75625" xlink:href="#m0789224b6b" y="297.401618073"/>
      </g>
     </g>
    </g>
    <g id="ytick_15">
     <g id="line2d_42">
      <defs>
       <path d="
M0 0
L2 0" id="m0789224b6b"/>
      </defs>
      <g>
       <use style="stroke:#000000;stroke-linecap:butt;stroke-width:0.5;" x="54.75625" xlink:href="#m0789224b6b" y="270.627833019"/>
      </g>
     </g>
    </g>
    <g id="ytick_16">
     <g id="line2d_43">
      <defs>
       <path d="
M0 0
L2 0" id="m0789224b6b"/>
      </defs>
      <g>
       <use style="stroke:#000000;stroke-linecap:butt;stroke-width:0.5;" x="54.75625" xlink:href="#m0789224b6b" y="257.240940492"/>
      </g>
     </g>
    </g>
    <g id="ytick_17">
     <g id="line2d_44">
      <defs>
       <path d="
M0 0
L2 0" id="m0789224b6b"/>
      </defs>
      <g>
       <use style="stroke:#000000;stroke-linecap:butt;stroke-width:0.5;" x="54.75625" xlink:href="#m0789224b6b" y="243.854047964"/>
      </g>
     </g>
    </g>
    <g id="ytick_18">
     <g id="line2d_45">
      <defs>
       <path d="
M0 0
L2 0" id="m0789224b6b"/>
      </defs>
      <g>
       <use style="stroke:#000000;stroke-linecap:butt;stroke-width:0.5;" x="54.75625" xlink:href="#m0789224b6b" y="230.467155437"/>
      </g>
     </g>
    </g>
    <g id="ytick_19">
     <g id="line2d_46">
      <defs>
       <path d="
M0 0
L2 0" id="m0789224b6b"/>
      </defs>
      <g>
       <use style="stroke:#000000;stroke-linecap:butt;stroke-width:0.5;" x="54.75625" xlink:href="#m0789224b6b" y="203.693370382"/>
      </g>
     </g>
    </g>
    <g id="ytick_20">
     <g id="line2d_47">
      <defs>
       <path d="
M0 0
L2 0" id="m0789224b6b"/>
      </defs>
      <g>
       <use style="stroke:#000000;stroke-linecap:butt;stroke-width:0.5;" x="54.75625" xlink:href="#m0789224b6b" y="190.306477855"/>
      </g>
     </g>
    </g>
    <g id="ytick_21">
     <g id="line2d_48">
      <defs>
       <path d="
M0 0
L2 0" id="m0789224b6b"/>
      </defs>
      <g>
       <use style="stroke:#000000;stroke-linecap:butt;stroke-width:0.5;" x="54.75625" xlink:href="#m0789224b6b" y="176.919585328"/>
      </g>
     </g>
    </g>
    <g id="ytick_22">
     <g id="line2d_49">
      <defs>
       <path d="
M0 0
L2 0" id="m0789224b6b"/>
      </defs>
      <g>
       <use style="stroke:#000000;stroke-linecap:butt;stroke-width:0.5;" x="54.75625" xlink:href="#m0789224b6b" y="163.5326928"/>
      </g>
     </g>
    </g>
    <g id="ytick_23">
     <g id="line2d_50">
      <defs>
       <path d="
M0 0
L2 0" id="m0789224b6b"/>
      </defs>
      <g>
       <use style="stroke:#000000;stroke-linecap:butt;stroke-width:0.5;" x="54.75625" xlink:href="#m0789224b6b" y="136.758907746"/>
      </g>
     </g>
    </g>
    <g id="ytick_24">
     <g id="line2d_51">
      <defs>
       <path d="
M0 0
L2 0" id="m0789224b6b"/>
      </defs>
      <g>
       <use style="stroke:#000000;stroke-linecap:butt;stroke-width:0.5;" x="54.75625" xlink:href="#m0789224b6b" y="123.372015218"/>
      </g>
     </g>
    </g>
    <g id="ytick_25">
     <g id="line2d_52">
      <defs>
       <path d="
M0 0
L2 0" id="m0789224b6b"/>
      </defs>
      <g>
       <use style="stroke:#000000;stroke-linecap:butt;stroke-width:0.5;" x="54.75625" xlink:href="#m0789224b6b" y="109.985122691"/>
      </g>
     </g>
    </g>
    <g id="ytick_26">
     <g id="line2d_53">
      <defs>
       <path d="
M0 0
L2 0" id="m0789224b6b"/>
      </defs>
      <g>
       <use style="stroke:#000000;stroke-linecap:butt;stroke-width:0.5;" x="54.75625" xlink:href="#m0789224b6b" y="96.5982301638"/>
      </g>
     </g>
    </g>
    <g id="ytick_27">
     <g id="line2d_54">
      <defs>
       <path d="
M0 0
L2 0" id="m0789224b6b"/>
      </defs>
      <g>
       <use style="stroke:#000000;stroke-linecap:butt;stroke-width:0.5;" x="54.75625" xlink:href="#m0789224b6b" y="69.8244451092"/>
      </g>
     </g>
    </g>
    <g id="ytick_28">
     <g id="line2d_55">
      <defs>
       <path d="
M0 0
L2 0" id="m0789224b6b"/>
      </defs>
      <g>
       <use style="stroke:#000000;stroke-linecap:butt;stroke-width:0.5;" x="54.75625" xlink:href="#m0789224b6b" y="56.4375525819"/>
      </g>
     </g>
    </g>
    <g id="ytick_29">
     <g id="line2d_56">
      <defs>
       <path d="
M0 0
L2 0" id="m0789224b6b"/>
      </defs>
      <g>
       <use style="stroke:#000000;stroke-linecap:butt;stroke-width:0.5;" x="54.75625" xlink:href="#m0789224b6b" y="43.0506600546"/>
      </g>
     </g>
    </g>
    <g id="ytick_30">
     <g id="line2d_57">
      <defs>
       <path d="
M0 0
L2 0" id="m0789224b6b"/>
      </defs>
      <g>
       <use style="stroke:#000000;stroke-linecap:butt;stroke-width:0.5;" x="54.75625" xlink:href="#m0789224b6b" y="29.6637675273"/>
      </g>
     </g>
    </g>
   </g>
   <g id="patch_3">
    <path d="
M64.7562 16.2769
L557.299 16.2769" style="fill:none;stroke:#000000;stroke-width:0.8;"/>
   </g>
   <g id="patch_4">
    <path d="
M54.7562 412.239
L54.7562 8.51291" style="fill:none;stroke:#000000;stroke-width:0.8;"/>
   </g>
  </g>
 </g>
 <defs>
  <clipPath id="p8d84e77ebc">
   <rect height="403.726153846" width="492.5425" x="64.75625" y="8.51291050296"/>
  </clipPath>
 </defs>
</svg>
