<?xml version="1.0" encoding="utf-8" standalone="no"?>
<!DOCTYPE svg PUBLIC "-//W3C//DTD SVG 1.1//EN"
  "http://www.w3.org/Graphics/SVG/1.1/DTD/svg11.dtd">
<!-- Created with matplotlib (http://matplotlib.sourceforge.net/) -->
<svg height="419pt" version="1.1" viewBox="0 0 564 419" width="564pt" xmlns="http://www.w3.org/2000/svg" xmlns:xlink="http://www.w3.org/1999/xlink">
 <defs>
  <style type="text/css">
*{stroke-linecap:square;stroke-linejoin:round;}
  </style>
 </defs>
 <g id="figure_1">
  <g id="patch_1">
   <path d="
M-4.44089e-16 419.439
L564.499 419.439
L564.499 0
L-4.44089e-16 0
z
" style="fill:#ffffff;"/>
  </g>
  <g id="axes_1">
   <g id="patch_2">
    <path d="
M64.7562 412.239
L557.299 412.239
L557.299 8.51291
L64.7562 8.51291
z
" style="fill:#ffffff;"/>
   </g>
   <g id="line2d_1">
    <path clip-path="url(#p8d84e77ebc)" d="
M74.2282 16.2769
L85.0604 16.2769
L85.0604 56.0352
L98.7073 56.0352
L98.7073 134.903
L107.696 134.903
L107.696 182.65
L119.771 182.65
L119.771 232.892
L124.234 232.892
L124.234 255.854
L131.401 255.854
L131.401 290.655
L134.372 290.655
L134.372 302.622
L139.477 302.622
L139.477 320.319
L145.669 320.319
L145.669 335.137
L147.451 335.137
L147.451 336.936
L152.178 336.936
L152.178 343.727
L154.92 343.727
L154.92 347.341
L156.193 347.341
L156.193 350.226
L158.569 350.226
L158.569 354.681
L161.779 354.681
L161.779 362.929
L164.644 362.929
L164.644 369.174
L165.534 369.174
L165.534 370.368
L168.041 370.368
L168.041 375.035
L169.59 375.035
L169.59 376.759
L170.332 376.759
L170.332 377.066
L172.442 377.066
L172.442 377.955
L173.762 377.955
L173.762 378.086
L175.626 378.086
L175.626 379.82
L177.926 379.82
L177.926 381.192
L179.005 381.192
L179.005 381.532
L180.547 381.602
L180.547 380.833
L182.005 380.732
L182.005 381.215
L185.125 381.215
L185.125 384.897
L185.953 384.897
L185.953 385.742
L187.15 385.742
L187.15 387.433
L187.537 387.433
L187.537 388.044
L189.393 388.044
L189.393 390.563
L189.749 390.563
L189.749 391.08
L190.79 391.08
L190.79 391.995
L192.44 392.096
L192.44 392.498
L193.383 392.498
L193.383 393.383
L194.294 393.383
L194.294 393.958
L196.854 393.898
L196.854 394.266
L197.123 394.266
L197.123 394.422
L198.688 394.422
L198.688 395.181
L200.165 395.181
L200.165 396.249
L200.64 396.249
L200.64 396.751
L200.875 396.751
L200.875 397.075
L201.337 397.075
L201.337 397.636
L202.017 397.636
L202.017 398.348
L202.239 398.348
L202.239 398.603
L203.325 398.603
L203.325 399.496
L203.956 399.496
L203.956 400.011
L204.573 400.011
L204.573 400.495
L205.176 400.495
L205.176 400.733
L205.959 400.83
L205.959 401.44
L206.342 401.44
L206.342 401.746
L207.459 401.854
L207.459 402.295
L208.706 402.295
L208.706 402.872
L209.051 402.872
L209.051 403.116
L209.223 403.116
L209.223 403.235
L209.562 403.235
L209.562 403.347
L211.978 403.282
L211.978 403.528
L212.436 403.595
L212.436 403.7
L213.475 403.798
L213.475 404.038
L213.908 404.038
L213.908 404.158
L214.334 404.158
L214.334 404.378
L217.015 404.342
L217.015 404.033
L217.769 403.961
L217.769 403.778
L218.503 403.761
L218.503 403.666
L218.862 403.666
L218.862 403.52
L219.334 403.52
L219.334 403.135
L219.567 403.135
L219.567 402.898
L219.682 402.898
L219.682 402.743
L219.912 402.743
L219.912 402.489
L220.59 402.489
L220.59 401.755
L221.033 401.755
L221.033 401.21
L221.251 401.21
L221.251 400.995
L221.683 400.995
L221.683 400.692
L221.896 400.692
L221.896 400.516
L222.213 400.516
L222.213 400.203
L222.836 400.203
L222.938 399.738
L223.842 399.738
L223.842 399.579
L224.621 399.469
L224.621 399.249
L226.563 399.328
L226.652 399.462
L226.917 399.462
L226.917 399.606
L227.18 399.606
L227.18 399.814
L227.354 399.814
L227.44 399.973
L227.953 399.973
L227.953 400.236
L228.373 400.236
L228.456 400.594
L228.869 400.693
L228.869 400.853
L229.113 400.853
L229.194 401.128
L229.675 401.128
L229.675 401.668
L229.833 401.668
L229.833 401.812
L230.069 401.812
L230.069 402.042
L230.38 402.042
L230.38 402.3
L230.764 402.3
L230.764 402.668
L231.067 402.668
L231.067 402.978
L231.441 402.978
L231.441 403.25
L231.736 403.25
L231.736 403.38
L232.174 403.45
L232.174 403.507
L232.958 403.601
L232.958 403.646
L233.237 403.646
L233.237 403.797
L233.855 403.848
L233.855 404.045
L234.192 404.045
L234.192 404.189
L236.131 404.081
L236.194 404.023
L237.646 404.005
L237.646 403.699
L237.997 403.604
L237.997 403.382
L238.287 403.382
L238.287 403.198
L238.516 403.198
L238.516 403.029
L238.799 402.922
L238.799 402.772
L238.968 402.772
L238.968 402.612
L239.358 402.612
L239.468 401.986
L239.632 401.986
L239.632 401.796
L239.796 401.796
L239.796 401.584
L240.013 401.584
L240.013 401.293
L240.174 401.293
L240.174 401.091
L240.493 401.091
L240.599 400.673
L240.757 400.673
L240.809 400.454
L241.07 400.454
L241.121 400.171
L241.276 400.171
L241.276 400.031
L241.532 400.031
L241.583 399.841
L241.836 399.841
L241.886 399.694
L242.581 399.588
L242.63 399.551
L243.018 399.483
L243.018 399.437
L244.011 399.331
L244.058 399.086
L244.471 398.989
L244.471 398.94
L244.969 398.841
L244.969 398.803
L245.413 398.759
L245.501 398.61
L247.651 398.522
L247.691 398.354
L248.488 398.268
L248.488 397.791
L248.606 397.791
L248.606 397.679
L248.723 397.679
L248.723 397.541
L248.878 397.541
L248.878 397.359
L249.224 397.359
L249.224 396.874
L249.414 396.874
L249.414 396.625
L249.678 396.625
L249.753 396.192
L249.866 396.152
L249.866 396.078
L250.125 395.988
L250.236 395.847
L250.565 395.774
L250.565 395.656
L250.782 395.558
L250.89 395.489
L251.493 395.383
L251.493 395.367
L253.027 395.259
L253.126 395.241
L255.159 395.158
L255.25 395.073
L255.614 395.025
L255.704 394.823
L255.972 394.776
L255.972 394.692
L256.296 394.62
L256.296 394.517
L256.646 394.452
L256.646 394.371
L256.933 394.294
L257.019 394.191
L257.246 394.135
L257.246 394.063
L257.416 394.063
L257.5 393.902
L257.834 393.87
L257.862 393.766
L258.409 393.696
L258.49 393.622
L258.918 393.546
L258.998 393.468
L259.471 393.393
L259.471 393.315
L260.063 393.209
L260.063 393.191
L260.84 393.272
L260.84 393.306
L261.354 393.381
L261.403 393.437
L262.284 393.537
L262.354 393.59
L262.886 393.693
L262.978 393.826
L263.831 393.932
L263.897 393.985
L264.161 394.082
L264.161 394.126
L264.378 394.211
L264.486 394.358
L264.765 394.358
L264.765 394.531
L265.062 394.617
L265.147 394.675
L266.118 394.776
L266.118 394.816
L266.38 394.921
L266.421 394.937
L267.309 394.83
L267.309 394.822
L267.656 394.767
L267.732 394.663
L267.941 394.625
L267.941 394.497
L268.074 394.497
L268.168 394.306
L268.299 394.24
L268.337 394.158
L268.504 394.158
L268.578 393.967
L268.726 393.892
L268.781 393.813
L268.946 393.76
L269.055 393.622
L269.218 393.525
L269.327 393.443
L269.595 393.433
L269.702 393.236
L269.931 393.165
L270.037 393.029
L270.385 392.924
L270.385 392.911
L270.797 392.823
L270.797 392.794
L272.207 392.686
L272.304 392.658
L273.003 392.569
L273.05 392.498
L273.33 392.436
L273.438 392.361
L273.927 392.258
L274.018 392.233
L274.033 392.234
L275.487 392.128
L275.487 392.102
L275.644 392.102
L275.7 391.947
L275.87 391.893
L275.94 391.765
L276.15 391.688
L276.248 391.586
L276.455 391.52
L276.538 391.422
L276.77 391.318
L276.825 391.29
L277.216 391.214
L277.31 391.156
L277.812 391.049
L277.904 391.022
L278.663 390.923
L278.714 390.883
L278.928 390.802
L278.978 390.74
L279.389 390.633
L279.463 390.499
L279.781 390.417
L279.89 390.34
L280.478 390.236
L280.513 390.229
L280.572 390.23
L281.145 390.15
L281.249 390.074
L281.478 389.978
L281.547 389.915
L281.717 389.868
L281.785 389.727
L281.931 389.643
L281.931 389.6
L282.066 389.6
L282.166 389.376
L282.498 389.276
L282.586 389.111
L282.815 389.011
L282.912 388.931
L283.106 388.826
L283.213 388.763
L283.458 388.67
L283.564 388.568
L283.775 388.484
L283.879 388.372
L284.129 388.269
L284.191 388.172
L284.345 388.101
L284.437 387.995
L284.61 387.958
L284.712 387.798
L284.923 387.693
L284.973 387.619
L285.213 387.548
L285.302 387.357
L285.46 387.279
L285.548 387.211
L285.802 387.143
L285.899 387.043
L286.13 386.94
L286.236 386.843
L286.388 386.843
L286.473 386.658
L286.7 386.55
L286.803 386.479
L287.119 386.371
L287.221 386.249
L287.577 386.148
L287.686 386.083
L287.912 385.989
L287.912 385.948
L288.153 385.862
L288.251 385.763
L288.568 385.657
L288.655 385.624
L288.985 385.55
L289.088 385.477
L289.421 385.371
L289.523 385.313
L289.933 385.206
L289.958 385.149
L290.182 385.041
L290.223 384.998
L290.453 384.897
L290.55 384.777
L290.696 384.682
L290.745 384.615
L290.906 384.508
L290.986 384.429
L291.201 384.324
L291.312 384.203
L291.556 384.106
L291.626 384.06
L292.037 383.985
L292.129 383.906
L292.63 383.804
L292.728 383.783
L293.474 383.888
L293.547 383.92
L295.495 383.812
L295.596 383.786
L296.294 383.687
L296.398 383.64
L296.845 383.536
L296.884 383.515
L297.184 383.406
L297.26 383.369
L297.655 383.26
L297.736 383.225
L298.143 383.114
L298.235 383.059
L298.502 382.951
L298.556 382.911
L298.742 382.804
L298.844 382.708
L298.987 382.602
L299.081 382.519
L299.223 382.464
L299.328 382.312
L299.463 382.228
L299.567 382.119
L299.764 382.039
L299.861 381.958
L300.491 381.847
L300.541 381.834
L301.09 381.724
L301.193 381.684
L301.611 381.576
L301.696 381.547
L301.979 381.447
L302.064 381.389
L302.561 381.278
L302.67 381.268
L303.318 381.158
L303.423 381.112
L303.778 381.005
L303.822 380.996
L304.298 380.888
L304.38 380.837
L304.598 380.73
L304.703 380.678
L304.899 380.57
L305.003 380.515
L305.229 380.409
L305.323 380.324
L305.509 380.214
L305.616 380.153
L305.865 380.049
L305.965 379.979
L306.503 379.869
L306.61 379.853
L308.557 379.743
L308.656 379.711
L309.22 379.616
L309.321 379.57
L309.621 379.461
L309.725 379.421
L310.154 379.311
L310.235 379.299
L310.687 379.214
L310.779 379.135
L311.029 379.034
L311.131 378.927
L311.33 378.819
L311.412 378.761
L311.623 378.652
L311.73 378.579
L311.917 378.487
L312.005 378.405
L312.237 378.294
L312.334 378.238
L312.524 378.132
L312.631 378.069
L312.932 377.96
L313.027 377.911
L313.236 377.801
L313.326 377.745
L313.523 377.643
L313.619 377.553
L313.763 377.449
L313.872 377.371
L314.089 377.268
L314.196 377.176
L314.556 377.065
L314.645 377.032
L314.901 376.926
L315.012 376.852
L315.233 376.741
L315.339 376.681
L315.544 376.574
L315.646 376.515
L315.912 376.41
L316.018 376.348
L316.268 376.237
L316.345 376.188
L316.531 376.085
L316.641 375.984
L316.824 375.88
L316.912 375.804
L317.148 375.7
L317.25 375.656
L317.532 375.563
L317.615 375.501
L317.792 375.392
L317.897 375.314
L318.078 375.206
L318.176 375.136
L318.435 375.026
L318.535 374.967
L318.841 374.865
L318.934 374.814
L319.206 374.703
L319.297 374.617
L319.446 374.508
L319.551 374.425
L319.707 374.325
L319.759 374.272
L319.906 374.164
L320.008 374.071
L320.138 373.979
L320.237 373.852
L320.349 373.76
L320.458 373.613
L320.554 373.529
L320.643 373.393
L320.746 373.283
L320.856 373.136
L320.955 373.055
L321.028 372.937
L321.158 372.828
L321.269 372.689
L321.397 372.617
L321.499 372.467
L321.614 372.358
L321.718 372.243
L321.817 372.14
L321.902 372.036
L322.02 371.939
L322.118 371.816
L322.24 371.709
L322.344 371.591
L322.467 371.499
L322.573 371.381
L322.688 371.28
L322.785 371.166
L322.894 371.062
L322.994 370.96
L323.131 370.865
L323.203 370.792
L323.353 370.696
L323.446 370.598
L323.574 370.492
L323.68 370.386
L323.849 370.286
L323.954 370.198
L324.156 370.09
L324.262 370.022
L324.48 369.915
L324.564 369.84
L324.734 369.731
L324.843 369.635
L325.015 369.524
L325.125 369.465
L325.404 369.355
L325.508 369.311
L326.161 369.2
L326.262 369.178
L328.776 369.289
L328.874 369.31
L329.783 369.418
L329.882 369.428
L329.888 369.428
L331.935 369.537
L332.038 369.562
L333.012 369.672
L333.114 369.708
L334.375 369.599
L334.477 369.573
L334.791 369.465
L334.89 369.432
L335.318 369.322
L335.428 369.28
L335.704 369.171
L335.81 369.132
L336.378 369.022
L336.487 368.987
L336.784 368.88
L336.882 368.825
L337.106 368.714
L337.217 368.652
L337.408 368.544
L337.517 368.457
L337.735 368.348
L337.831 368.286
L338.333 368.175
L338.442 368.156
L338.825 368.046
L338.933 367.992
L339.155 367.883
L339.266 367.814
L339.459 367.709
L339.568 367.632
L339.73 367.522
L339.838 367.457
L340.03 367.348
L340.135 367.268
L340.293 367.157
L340.403 367.087
L340.723 366.977
L340.83 366.921
L341.055 366.814
L341.162 366.747
L341.361 366.637
L341.465 366.543
L341.622 366.434
L341.732 366.32
L341.855 366.209
L341.958 366.102
L342.097 365.991
L342.207 365.897
L342.344 365.788
L342.452 365.689
L342.595 365.579
L342.699 365.487
L342.826 365.378
L342.936 365.273
L343.066 365.166
L343.175 365.061
L343.304 364.96
L343.414 364.863
L343.568 364.753
L343.664 364.683
L343.847 364.576
L343.95 364.502
L344.116 364.392
L344.221 364.332
L344.423 364.222
L344.529 364.154
L344.761 364.052
L344.86 363.984
L345.149 363.874
L345.257 363.835
L345.758 363.725
L345.866 363.698
L346.205 363.588
L346.313 363.522
L346.499 363.418
L346.607 363.34
L346.747 363.235
L346.851 363.14
L346.979 363.03
L347.088 362.916
L347.208 362.808
L347.316 362.719
L347.472 362.612
L347.576 362.543
L347.755 362.433
L347.864 362.337
L347.984 362.227
L348.093 362.121
L348.258 362.01
L348.361 361.946
L348.54 361.838
L348.642 361.776
L348.855 361.668
L348.965 361.591
L349.137 361.492
L349.243 361.409
L349.411 361.303
L349.522 361.223
L349.748 361.114
L349.857 361.057
L350.078 360.955
L350.188 360.873
L350.351 360.762
L350.46 360.677
L350.64 360.567
L350.748 360.505
L350.981 360.397
L351.089 360.326
L351.266 360.216
L351.376 360.142
L351.568 360.032
L351.677 359.975
L351.858 359.867
L351.959 359.792
L352.165 359.681
L352.272 359.634
L352.54 359.524
L352.647 359.461
L352.843 359.353
L352.953 359.29
L353.165 359.182
L353.273 359.118
L353.535 359.008
L353.643 358.964
L354.024 358.855
L354.133 358.818
L354.534 358.709
L354.643 358.673
L355.138 358.562
L355.249 358.536
L355.666 358.425
L355.776 358.387
L356.133 358.276
L356.244 358.25
L357.047 358.14
L357.152 358.118
L357.65 358.009
L357.755 357.978
L358.293 357.867
L358.401 357.853
L359.079 357.743
L359.189 357.708
L359.662 357.597
L359.772 357.567
L360.132 357.456
L360.241 357.419
L360.533 357.309
L360.641 357.266
L361.217 357.155
L361.327 357.104
L361.588 356.994
L361.695 356.959
L362.02 356.849
L362.129 356.807
L362.4 356.696
L362.511 356.642
L362.779 356.531
L362.888 356.488
L363.179 356.377
L363.288 356.329
L363.53 356.218
L363.641 356.185
L363.906 356.074
L364.013 356.026
L364.26 355.915
L364.369 355.845
L364.553 355.736
L364.657 355.665
L364.805 355.559
L364.916 355.459
L365.041 355.348
L365.151 355.247
L365.28 355.138
L365.389 355.046
L365.527 354.936
L365.637 354.866
L365.816 354.756
L365.916 354.685
L366.069 354.575
L366.178 354.509
L366.371 354.398
L366.475 354.354
L366.695 354.243
L366.805 354.175
L366.984 354.065
L367.095 353.999
L367.269 353.89
L367.374 353.818
L367.575 353.707
L367.685 353.649
L367.936 353.543
L368.045 353.474
L368.266 353.363
L368.376 353.301
L368.563 353.19
L368.671 353.124
L368.876 353.014
L368.985 352.955
L369.24 352.844
L369.351 352.803
L372.162 352.692
L372.272 352.672
L372.941 352.561
L373.051 352.52
L373.311 352.409
L373.419 352.366
L373.723 352.255
L373.831 352.206
L374.03 352.096
L374.139 352.044
L374.398 351.934
L374.508 351.871
L374.787 351.76
L374.894 351.708
L375.096 351.597
L375.207 351.527
L375.358 351.417
L375.468 351.338
L375.639 351.228
L375.75 351.165
L375.932 351.055
L376.043 350.968
L376.184 350.858
L376.295 350.771
L376.455 350.661
L376.562 350.588
L376.879 350.478
L376.99 350.433
L377.254 350.323
L377.365 350.264
L377.569 350.153
L377.679 350.097
L377.922 349.986
L378.032 349.93
L378.253 349.819
L378.363 349.764
L378.652 349.654
L378.763 349.615
L379.085 349.504
L379.194 349.468
L379.521 349.357
L379.627 349.318
L379.856 349.207
L379.966 349.149
L380.25 349.038
L380.359 348.996
L380.618 348.887
L380.729 348.816
L380.941 348.706
L381.048 348.649
L381.271 348.538
L381.381 348.493
L381.618 348.383
L381.728 348.33
L382.011 348.22
L382.121 348.18
L382.469 348.069
L382.579 348.025
L382.898 347.914
L383.009 347.886
L383.439 347.775
L383.55 347.742
L383.836 347.632
L383.946 347.57
L384.157 347.459
L384.264 347.405
L384.438 347.295
L384.548 347.218
L384.705 347.108
L384.811 347.022
L384.947 346.913
L385.056 346.811
L385.183 346.702
L385.289 346.605
L385.416 346.496
L385.527 346.392
L385.648 346.281
L385.757 346.169
L385.864 346.058
L385.97 345.946
L386.085 345.835
L386.194 345.727
L386.307 345.616
L386.418 345.513
L386.546 345.402
L386.656 345.32
L386.802 345.21
L386.912 345.132
L387.077 345.021
L387.186 344.95
L387.379 344.84
L387.49 344.771
L387.666 344.66
L387.775 344.593
L387.964 344.482
L388.074 344.432
L388.31 344.321
L388.419 344.26
L388.614 344.149
L388.725 344.084
L389.047 343.973
L389.158 343.923
L389.39 343.813
L389.5 343.745
L389.668 343.635
L389.778 343.559
L389.938 343.449
L390.049 343.381
L390.252 343.27
L390.362 343.22
L390.632 343.109
L390.74 343.05
L390.948 342.939
L391.059 342.875
L391.315 342.764
L391.425 342.727
L391.694 342.618
L391.805 342.557
L392.052 342.447
L392.162 342.395
L392.437 342.284
L392.546 342.239
L392.827 342.129
L392.937 342.076
L393.105 341.965
L393.213 341.875
L393.374 341.764
L393.484 341.691
L393.643 341.58
L393.753 341.504
L393.915 341.393
L394.026 341.33
L394.234 341.22
L394.345 341.147
L394.544 341.036
L394.655 340.971
L394.852 340.861
L394.963 340.792
L395.207 340.681
L395.317 340.643
L396.331 340.532
L396.441 340.518
L396.807 340.407
L396.917 340.38
L397.957 340.269
L398.068 340.239
L398.978 340.128
L399.07 340.123
L399.089 340.123
L401.012 340.012
L401.122 339.986
L402.35 339.875
L402.461 339.846
L403.556 339.735
L403.665 339.718
L404.21 339.606
L404.321 339.577
L404.656 339.466
L404.767 339.422
L405.046 339.312
L405.157 339.259
L405.402 339.148
L405.512 339.095
L405.733 338.984
L405.844 338.919
L406.028 338.808
L406.138 338.738
L406.303 338.627
L406.414 338.557
L406.587 338.446
L406.698 338.375
L406.839 338.265
L406.949 338.175
L407.1 338.065
L407.21 337.978
L407.372 337.868
L407.483 337.799
L407.662 337.688
L407.772 337.615
L407.953 337.504
L408.063 337.433
L408.225 337.322
L408.336 337.244
L408.49 337.133
L408.6 337.053
L408.741 336.942
L408.851 336.859
L409.04 336.748
L409.151 336.674
L409.285 336.563
L409.395 336.476
L409.562 336.365
L409.672 336.29
L409.87 336.18
L409.98 336.115
L410.149 336.004
L410.259 335.924
L410.432 335.813
L410.543 335.757
L410.766 335.646
L410.876 335.592
L411.105 335.481
L411.216 335.421
L411.442 335.31
L411.552 335.257
L411.806 335.146
L411.917 335.097
L412.113 334.986
L412.224 334.919
L412.422 334.808
L412.533 334.756
L412.756 334.645
L412.865 334.584
L413.047 334.473
L413.157 334.401
L413.371 334.29
L413.482 334.25
L414.086 334.139
L414.196 334.105
L414.441 333.994
L414.552 333.943
L414.76 333.832
L414.871 333.775
L415.057 333.664
L415.168 333.58
L415.313 333.469
L415.424 333.394
L415.609 333.283
L415.72 333.22
L415.925 333.11
L416.035 333.045
L416.205 332.935
L416.316 332.852
L416.475 332.741
L416.586 332.66
L416.745 332.55
L416.855 332.487
L417.037 332.376
L417.148 332.304
L417.318 332.193
L417.428 332.117
L417.621 332.007
L417.732 331.945
L417.935 331.833
L418.046 331.787
L418.283 331.677
L418.394 331.616
L418.672 331.505
L418.783 331.467
L419.105 331.356
L419.216 331.327
L419.548 331.216
L419.659 331.175
L419.987 331.065
L420.098 331.02
L420.435 330.909
L420.546 330.886
L420.869 330.775
L420.979 330.734
L421.354 330.623
L421.465 330.578
L421.676 330.467
L421.787 330.399
L421.957 330.288
L422.067 330.213
L422.277 330.102
L422.388 330.044
L422.639 329.933
L422.75 329.883
L422.996 329.772
L423.107 329.718
L423.372 329.607
L423.483 329.571
L423.783 329.46
L423.894 329.408
L424.125 329.298
L424.236 329.238
L424.426 329.127
L424.537 329.058
L424.732 328.948
L424.843 328.886
L425.024 328.775
L425.135 328.711
L425.31 328.6
L425.421 328.52
L425.568 328.409
L425.678 328.327
L425.845 328.216
L425.956 328.149
L426.155 328.038
L426.266 327.986
L426.5 327.875
L426.611 327.814
L426.818 327.703
L426.929 327.655
L427.16 327.544
L427.271 327.497
L427.638 327.386
L427.748 327.357
L428.119 327.246
L428.23 327.204
L428.535 327.093
L428.646 327.059
L429.081 326.948
L429.193 326.907
L429.675 326.796
L429.786 326.775
L431.95 326.886
L432.06 326.916
L433.449 327.027
L433.559 327.038
L434.899 326.927
L435.01 326.885
L435.328 326.774
L435.439 326.743
L435.848 326.632
L435.959 326.588
L436.241 326.477
L436.352 326.436
L436.711 326.324
L436.822 326.286
L437.237 326.175
L437.348 326.142
L437.635 326.031
L437.746 325.995
L438.035 325.884
L438.145 325.849
L438.513 325.738
L438.624 325.7
L438.914 325.589
L439.025 325.549
L439.361 325.438
L439.472 325.392
L439.661 325.282
L439.772 325.218
L439.985 325.107
L440.096 325.041
L440.255 324.93
L440.366 324.851
L440.546 324.74
L440.657 324.682
L440.84 324.571
L440.951 324.505
L441.148 324.394
L441.259 324.34
L441.458 324.229
L441.569 324.16
L441.719 324.049
L441.83 323.979
L442.014 323.868
L442.126 323.797
L442.302 323.687
L442.413 323.616
L442.579 323.505
L442.69 323.439
L442.895 323.328
L443.006 323.265
L443.212 323.154
L443.323 323.097
L443.617 322.986
L443.728 322.926
L443.956 322.815
L444.067 322.761
L444.328 322.65
L444.439 322.609
L445.004 322.498
L445.115 322.469
L445.409 322.358
L445.52 322.309
L445.764 322.198
L445.875 322.141
L446.078 322.03
L446.189 321.975
L446.41 321.864
L446.521 321.804
L446.747 321.693
L446.858 321.634
L447.093 321.523
L447.204 321.47
L447.502 321.359
L447.613 321.318
L447.894 321.207
L448.005 321.172
L448.355 321.061
L448.466 321.019
L448.887 320.907
L448.997 320.872
L449.253 320.761
L449.364 320.706
L449.63 320.595
L449.741 320.559
L450.281 320.447
L450.392 320.418
L450.885 320.307
L450.996 320.266
L451.294 320.155
L451.405 320.12
L451.717 320.009
L451.828 319.961
L452.087 319.85
L452.198 319.804
L452.416 319.693
L452.527 319.63
L452.724 319.518
L452.835 319.466
L453.057 319.355
L453.168 319.299
L453.387 319.187
L453.498 319.121
L453.67 319.01
L453.781 318.947
L453.999 318.836
L454.11 318.781
L454.309 318.669
L454.42 318.597
L454.65 318.486
L454.761 318.427
L454.972 318.316
L455.083 318.267
L455.322 318.156
L455.433 318.107
L455.708 317.996
L455.819 317.954
L456.088 317.843
L456.199 317.796
L456.438 317.685
L456.549 317.632
L456.834 317.521
L456.945 317.48
L457.228 317.369
L457.34 317.322
L457.839 317.211
L457.95 317.202
L459.052 317.091
L459.163 317.066
L459.99 316.955
L460.101 316.944
L460.979 316.833
L461.09 316.811
L461.503 316.7
L461.614 316.673
L461.954 316.562
L462.065 316.529
L462.488 316.418
L462.599 316.381
L463.342 316.27
L463.453 316.25
L463.988 316.139
L464.099 316.101
L464.528 315.99
L464.639 315.957
L464.985 315.846
L465.096 315.795
L465.411 315.684
L465.522 315.647
L465.873 315.536
L465.984 315.51
L466.385 315.399
L466.496 315.368
L466.993 315.257
L467.105 315.211
L467.42 315.1
L467.531 315.063
L467.811 314.952
L467.922 314.922
L468.548 314.811
L468.659 314.801
L469.418 314.69
L469.529 314.641
L469.768 314.53
L469.879 314.472
L470.087 314.361
L470.198 314.317
L470.484 314.206
L470.595 314.158
L470.88 314.047
L470.991 313.999
L471.236 313.888
L471.347 313.832
L471.595 313.721
L471.707 313.674
L471.983 313.563
L472.094 313.512
L472.315 313.401
L472.426 313.346
L472.709 313.235
L472.82 313.188
L473.1 313.077
L473.211 313.04
L473.535 312.929
L473.646 312.905
L475.311 312.794
L475.422 312.779
L476.016 312.668
L476.127 312.639
L476.418 312.528
L476.529 312.495
L476.926 312.384
L477.037 312.356
L477.512 312.245
L477.623 312.221
L478.009 312.11
L478.12 312.071
L478.451 311.96
L478.562 311.928
L479.036 311.817
L479.147 311.787
L479.464 311.676
L479.575 311.647
L479.999 311.535
L480.11 311.508
L480.479 311.397
L480.59 311.366
L481.148 311.255
L481.259 311.241
L481.904 311.13
L482.015 311.108
L482.548 310.997
L482.659 310.963
L483.015 310.852
L483.126 310.826
L483.401 310.715
L483.512 310.659
L483.744 310.548
L483.855 310.488
L484.074 310.377
L484.185 310.319
L484.406 310.208
L484.517 310.159
L484.765 310.048
L484.876 309.999
L485.125 309.887
L485.236 309.844
L485.47 309.733
L485.581 309.673
L485.782 309.562
L485.893 309.496
L486.06 309.385
L486.171 309.323
L486.386 309.212
L486.497 309.163
L486.758 309.051
L486.87 309.001
L487.173 308.89
L487.285 308.845
L487.702 308.733
L487.813 308.695
L488.16 308.584
L488.271 308.551
L488.627 308.44
L488.738 308.392
L488.958 308.281
L489.069 308.22
L489.258 308.109
L489.369 308.039
L489.537 307.928
L489.648 307.853
L489.809 307.742
L489.92 307.664
L490.085 307.553
L490.196 307.485
L490.401 307.374
L490.512 307.323
L490.733 307.211
L490.844 307.151
L491.049 307.04
L491.16 306.977
L491.357 306.866
L491.468 306.801
L491.644 306.69
L491.755 306.619
L491.916 306.508
L492.027 306.434
L492.209 306.323
L492.32 306.257
L492.525 306.146
L492.636 306.094
L492.88 305.983
L492.991 305.931
L493.244 305.82
L493.355 305.774
L493.638 305.663
L493.749 305.613
L493.979 305.502
L494.09 305.434
L494.279 305.323
L494.39 305.271
L494.627 305.16
L494.738 305.112
L495.218 305.001
L495.329 304.984
L498.074 305.095
L498.185 305.127
L498.567 305.238
L498.678 305.253
L499.779 305.142
L499.89 305.134
L502.112 305.245
L502.223 305.266
L504.417 305.155
L504.528 305.12
L504.974 305.009
L505.085 304.969
L505.432 304.858
L505.543 304.816
L505.772 304.705
L505.883 304.657
L506.12 304.546
L506.232 304.498
L506.473 304.387
L506.584 304.348
L506.9 304.237
L507.011 304.202
L507.307 304.091
L507.419 304.046
L507.69 303.935
L507.801 303.893
L508.118 303.781
L508.229 303.743
L508.508 303.632
L508.619 303.571
L508.816 303.459
L508.928 303.401
L509.12 303.29
L509.231 303.217
L509.47 303.106
L509.581 303.064
L509.81 302.953
L509.921 302.894
L510.151 302.783
L510.262 302.738
L510.546 302.627
L510.657 302.583
L510.885 302.472
L510.996 302.421
L511.235 302.309
L511.346 302.254
L511.606 302.143
L511.717 302.101
L511.949 301.99
L512.06 301.928
L512.275 301.817
L512.386 301.76
L512.589 301.649
L512.7 301.591
L512.982 301.479
L513.093 301.434
L513.404 301.323
L513.515 301.276
L513.886 301.165
L513.997 301.146
L514.396 301.035
L514.507 300.988
L514.815 300.877
L514.926 300.834
L515.291 300.723
L515.402 300.697
L515.794 300.586
L515.905 300.542
L516.204 300.431
L516.315 300.387
L516.623 300.276
L516.734 300.229
L517.001 300.118
L517.112 300.061
L517.317 299.95
L517.428 299.893
L517.66 299.782
L517.771 299.733
L518.041 299.622
L518.152 299.574
L518.391 299.463
L518.502 299.413
L518.76 299.302
L518.871 299.245
L519.112 299.134
L519.224 299.083
L519.454 298.972
L519.565 298.913
L519.769 298.802
L519.88 298.739
L520.068 298.628
L520.179 298.567
L520.467 298.456
L520.578 298.426
L521.031 298.315
L521.142 298.28
L521.492 298.169
L521.603 298.136
L521.982 298.025
L522.093 297.998
L523.191 297.887
L523.302 297.865
L523.76 297.754
L523.871 297.741
L524.804 297.63
L524.915 297.617
L525.667 297.506
L525.778 297.476
L526.26 297.365
L526.371 297.338
L526.825 297.227
L526.936 297.202
L527.765 297.091
L527.876 297.074
L528.538 296.963
L528.649 296.942
L529.243 296.831
L529.354 296.805
L530.201 296.694
L530.296 296.687
L530.312 296.687
L532.179 296.576
L532.29 296.563
L532.847 296.452
L532.959 296.437
L533.62 296.325
L533.731 296.298
L534.209 296.187
L534.32 296.154
L534.687 296.043
L534.798 296.003
L535.074 295.892
L535.185 295.852
L535.472 295.741
L535.583 295.696
L535.87 295.585
L535.981 295.548
L536.294 295.437
L536.405 295.398
L536.788 295.287
L536.899 295.248
L537.201 295.137
L537.312 295.09
L537.63 294.979
L537.741 294.932
L537.974 294.82
L538.085 294.765
L538.347 294.654
L538.458 294.613
L539.189 294.502
L539.3 294.478
L540.562 294.367
L540.673 294.337
L541.193 294.226
L541.304 294.205
L541.818 294.094
L541.929 294.063
L542.333 293.952
L542.444 293.912
L542.792 293.801
L542.903 293.763
L543.259 293.652
L543.37 293.619
L543.796 293.508
L543.907 293.48
L544.442 293.369
L544.553 293.347
L545.098 293.236
L545.21 293.211
L545.692 293.1
L545.803 293.069
L546.199 292.958
L546.31 292.93
L546.746 292.819
L546.857 292.793
L547.35 292.682
L547.461 292.64
L547.827 292.536
L547.827 292.536" style="fill:none;stroke:#0000ff;stroke-width:5.0;"/>
   </g>
   <g id="matplotlib.axis_1">
    <g id="xtick_1">
     <g id="line2d_2">
      <path d="
M189.288 412.239
L189.288 8.51291" style="fill:none;stroke:#000000;stroke-dasharray:1.000000,3.000000;stroke-dashoffset:0.0;stroke-linecap:butt;stroke-width:0.5;"/>
     </g>
     <g id="line2d_3">
      <defs>
       <path d="
M0 0
L0 -4" id="m3fe2698bfe"/>
      </defs>
      <g>
       <use style="stroke:#000000;stroke-linecap:butt;stroke-width:0.5;" x="189.287616689" xlink:href="#m3fe2698bfe" y="16.276875"/>
      </g>
     </g>
     <g id="text_1">
      <!-- 5 -->
      <defs>
       <path d="
M10.7969 72.9062
L49.5156 72.9062
L49.5156 64.5938
L19.8281 64.5938
L19.8281 46.7344
Q21.9688 47.4688 24.1094 47.8281
Q26.2656 48.1875 28.4219 48.1875
Q40.625 48.1875 47.75 41.5
Q54.8906 34.8125 54.8906 23.3906
Q54.8906 11.625 47.5625 5.09375
Q40.2344 -1.42188 26.9062 -1.42188
Q22.3125 -1.42188 17.5469 -0.640625
Q12.7969 0.140625 7.71875 1.70312
L7.71875 11.625
Q12.1094 9.23438 16.7969 8.0625
Q21.4844 6.89062 26.7031 6.89062
Q35.1562 6.89062 40.0781 11.3281
Q45.0156 15.7656 45.0156 23.3906
Q45.0156 31 40.0781 35.4375
Q35.1562 39.8906 26.7031 39.8906
Q22.75 39.8906 18.8125 39.0156
Q14.8906 38.1406 10.7969 36.2812
z
" id="BitstreamVeraSans-Roman-35"/>
      </defs>
      <g transform="translate(183.626991689 37.774375)scale(0.24 -0.24)">
       <use xlink:href="#BitstreamVeraSans-Roman-35"/>
      </g>
     </g>
    </g>
    <g id="xtick_2">
     <g id="line2d_4">
      <path d="
M322.865 412.239
L322.865 8.51291" style="fill:none;stroke:#000000;stroke-dasharray:1.000000,3.000000;stroke-dashoffset:0.0;stroke-linecap:butt;stroke-width:0.5;"/>
     </g>
     <g id="line2d_5">
      <defs>
       <path d="
M0 0
L0 -4" id="m3fe2698bfe"/>
      </defs>
      <g>
       <use style="stroke:#000000;stroke-linecap:butt;stroke-width:0.5;" x="322.864732462" xlink:href="#m3fe2698bfe" y="16.276875"/>
      </g>
     </g>
     <g id="text_2">
      <!-- 10 -->
      <defs>
       <path d="
M31.7812 66.4062
Q24.1719 66.4062 20.3281 58.9062
Q16.5 51.4219 16.5 36.375
Q16.5 21.3906 20.3281 13.8906
Q24.1719 6.39062 31.7812 6.39062
Q39.4531 6.39062 43.2812 13.8906
Q47.125 21.3906 47.125 36.375
Q47.125 51.4219 43.2812 58.9062
Q39.4531 66.4062 31.7812 66.4062
M31.7812 74.2188
Q44.0469 74.2188 50.5156 64.5156
Q56.9844 54.8281 56.9844 36.375
Q56.9844 17.9688 50.5156 8.26562
Q44.0469 -1.42188 31.7812 -1.42188
Q19.5312 -1.42188 13.0625 8.26562
Q6.59375 17.9688 6.59375 36.375
Q6.59375 54.8281 13.0625 64.5156
Q19.5312 74.2188 31.7812 74.2188" id="BitstreamVeraSans-Roman-30"/>
       <path d="
M12.4062 8.29688
L28.5156 8.29688
L28.5156 63.9219
L10.9844 60.4062
L10.9844 69.3906
L28.4219 72.9062
L38.2812 72.9062
L38.2812 8.29688
L54.3906 8.29688
L54.3906 0
L12.4062 0
z
" id="BitstreamVeraSans-Roman-31"/>
      </defs>
      <g transform="translate(309.709732462 38.089375)scale(0.24 -0.24)">
       <use xlink:href="#BitstreamVeraSans-Roman-31"/>
       <use x="63.623046875" xlink:href="#BitstreamVeraSans-Roman-30"/>
      </g>
     </g>
    </g>
    <g id="xtick_3">
     <g id="line2d_6">
      <path d="
M456.442 412.239
L456.442 8.51291" style="fill:none;stroke:#000000;stroke-dasharray:1.000000,3.000000;stroke-dashoffset:0.0;stroke-linecap:butt;stroke-width:0.5;"/>
     </g>
     <g id="line2d_7">
      <defs>
       <path d="
M0 0
L0 -4" id="m3fe2698bfe"/>
      </defs>
      <g>
       <use style="stroke:#000000;stroke-linecap:butt;stroke-width:0.5;" x="456.441848234" xlink:href="#m3fe2698bfe" y="16.276875"/>
      </g>
     </g>
     <g id="text_3">
      <!-- 15 -->
      <g transform="translate(443.538098234 37.774375)scale(0.24 -0.24)">
       <use xlink:href="#BitstreamVeraSans-Roman-31"/>
       <use x="63.623046875" xlink:href="#BitstreamVeraSans-Roman-35"/>
      </g>
     </g>
    </g>
    <g id="xtick_4">
     <g id="line2d_8">
      <defs>
       <path d="
M0 0
L0 -2" id="maa226e29bf"/>
      </defs>
      <g>
       <use style="stroke:#000000;stroke-linecap:butt;stroke-width:0.5;" x="82.4259240713" xlink:href="#maa226e29bf" y="16.276875"/>
      </g>
     </g>
    </g>
    <g id="xtick_5">
     <g id="line2d_9">
      <defs>
       <path d="
M0 0
L0 -2" id="maa226e29bf"/>
      </defs>
      <g>
       <use style="stroke:#000000;stroke-linecap:butt;stroke-width:0.5;" x="109.141347226" xlink:href="#maa226e29bf" y="16.276875"/>
      </g>
     </g>
    </g>
    <g id="xtick_6">
     <g id="line2d_10">
      <defs>
       <path d="
M0 0
L0 -2" id="maa226e29bf"/>
      </defs>
      <g>
       <use style="stroke:#000000;stroke-linecap:butt;stroke-width:0.5;" x="135.85677038" xlink:href="#maa226e29bf" y="16.276875"/>
      </g>
     </g>
    </g>
    <g id="xtick_7">
     <g id="line2d_11">
      <defs>
       <path d="
M0 0
L0 -2" id="maa226e29bf"/>
      </defs>
      <g>
       <use style="stroke:#000000;stroke-linecap:butt;stroke-width:0.5;" x="162.572193535" xlink:href="#maa226e29bf" y="16.276875"/>
      </g>
     </g>
    </g>
    <g id="xtick_8">
     <g id="line2d_12">
      <defs>
       <path d="
M0 0
L0 -2" id="maa226e29bf"/>
      </defs>
      <g>
       <use style="stroke:#000000;stroke-linecap:butt;stroke-width:0.5;" x="216.003039844" xlink:href="#maa226e29bf" y="16.276875"/>
      </g>
     </g>
    </g>
    <g id="xtick_9">
     <g id="line2d_13">
      <defs>
       <path d="
M0 0
L0 -2" id="maa226e29bf"/>
      </defs>
      <g>
       <use style="stroke:#000000;stroke-linecap:butt;stroke-width:0.5;" x="242.718462998" xlink:href="#maa226e29bf" y="16.276875"/>
      </g>
     </g>
    </g>
    <g id="xtick_10">
     <g id="line2d_14">
      <defs>
       <path d="
M0 0
L0 -2" id="maa226e29bf"/>
      </defs>
      <g>
       <use style="stroke:#000000;stroke-linecap:butt;stroke-width:0.5;" x="269.433886153" xlink:href="#maa226e29bf" y="16.276875"/>
      </g>
     </g>
    </g>
    <g id="xtick_11">
     <g id="line2d_15">
      <defs>
       <path d="
M0 0
L0 -2" id="maa226e29bf"/>
      </defs>
      <g>
       <use style="stroke:#000000;stroke-linecap:butt;stroke-width:0.5;" x="296.149309307" xlink:href="#maa226e29bf" y="16.276875"/>
      </g>
     </g>
    </g>
    <g id="xtick_12">
     <g id="line2d_16">
      <defs>
       <path d="
M0 0
L0 -2" id="maa226e29bf"/>
      </defs>
      <g>
       <use style="stroke:#000000;stroke-linecap:butt;stroke-width:0.5;" x="349.580155616" xlink:href="#maa226e29bf" y="16.276875"/>
      </g>
     </g>
    </g>
    <g id="xtick_13">
     <g id="line2d_17">
      <defs>
       <path d="
M0 0
L0 -2" id="maa226e29bf"/>
      </defs>
      <g>
       <use style="stroke:#000000;stroke-linecap:butt;stroke-width:0.5;" x="376.29557877" xlink:href="#maa226e29bf" y="16.276875"/>
      </g>
     </g>
    </g>
    <g id="xtick_14">
     <g id="line2d_18">
      <defs>
       <path d="
M0 0
L0 -2" id="maa226e29bf"/>
      </defs>
      <g>
       <use style="stroke:#000000;stroke-linecap:butt;stroke-width:0.5;" x="403.011001925" xlink:href="#maa226e29bf" y="16.276875"/>
      </g>
     </g>
    </g>
    <g id="xtick_15">
     <g id="line2d_19">
      <defs>
       <path d="
M0 0
L0 -2" id="maa226e29bf"/>
      </defs>
      <g>
       <use style="stroke:#000000;stroke-linecap:butt;stroke-width:0.5;" x="429.726425079" xlink:href="#maa226e29bf" y="16.276875"/>
      </g>
     </g>
    </g>
    <g id="xtick_16">
     <g id="line2d_20">
      <defs>
       <path d="
M0 0
L0 -2" id="maa226e29bf"/>
      </defs>
      <g>
       <use style="stroke:#000000;stroke-linecap:butt;stroke-width:0.5;" x="483.157271388" xlink:href="#maa226e29bf" y="16.276875"/>
      </g>
     </g>
    </g>
    <g id="xtick_17">
     <g id="line2d_21">
      <defs>
       <path d="
M0 0
L0 -2" id="maa226e29bf"/>
      </defs>
      <g>
       <use style="stroke:#000000;stroke-linecap:butt;stroke-width:0.5;" x="509.872694543" xlink:href="#maa226e29bf" y="16.276875"/>
      </g>
     </g>
    </g>
   </g>
   <g id="matplotlib.axis_2">
    <g id="ytick_1">
     <g id="line2d_22">
      <path d="
M64.7562 350.949
L557.299 350.949" style="fill:none;stroke:#000000;stroke-dasharray:1.000000,3.000000;stroke-dashoffset:0.0;stroke-linecap:butt;stroke-width:0.5;"/>
     </g>
     <g id="line2d_23">
      <defs>
       <path d="
M0 0
L4 0" id="mfe4d449ad9"/>
      </defs>
      <g>
       <use style="stroke:#000000;stroke-linecap:butt;stroke-width:0.5;" x="54.75625" xlink:href="#mfe4d449ad9" y="350.949188183"/>
      </g>
     </g>
     <g id="text_4">
      <!-- -2.5 -->
      <defs>
       <path d="
M19.1875 8.29688
L53.6094 8.29688
L53.6094 0
L7.32812 0
L7.32812 8.29688
Q12.9375 14.1094 22.625 23.8906
Q32.3281 33.6875 34.8125 36.5312
Q39.5469 41.8438 41.4219 45.5312
Q43.3125 49.2188 43.3125 52.7812
Q43.3125 58.5938 39.2344 62.25
Q35.1562 65.9219 28.6094 65.9219
Q23.9688 65.9219 18.8125 64.3125
Q13.6719 62.7031 7.8125 59.4219
L7.8125 69.3906
Q13.7656 71.7812 18.9375 73
Q24.125 74.2188 28.4219 74.2188
Q39.75 74.2188 46.4844 68.5469
Q53.2188 62.8906 53.2188 53.4219
Q53.2188 48.9219 51.5312 44.8906
Q49.8594 40.875 45.4062 35.4062
Q44.1875 33.9844 37.6406 27.2188
Q31.1094 20.4531 19.1875 8.29688" id="BitstreamVeraSans-Roman-32"/>
       <path d="
M10.6875 12.4062
L21 12.4062
L21 0
L10.6875 0
z
" id="BitstreamVeraSans-Roman-2e"/>
       <path d="
M4.89062 31.3906
L31.2031 31.3906
L31.2031 23.3906
L4.89062 23.3906
z
" id="BitstreamVeraSans-Roman-2d"/>
      </defs>
      <g transform="translate(7.2 359.684813183)scale(0.24 -0.24)">
       <use xlink:href="#BitstreamVeraSans-Roman-2d"/>
       <use x="36.083984375" xlink:href="#BitstreamVeraSans-Roman-32"/>
       <use x="99.70703125" xlink:href="#BitstreamVeraSans-Roman-2e"/>
       <use x="131.494140625" xlink:href="#BitstreamVeraSans-Roman-35"/>
      </g>
     </g>
    </g>
    <g id="ytick_2">
     <g id="line2d_24">
      <path d="
M64.7562 284.015
L557.299 284.015" style="fill:none;stroke:#000000;stroke-dasharray:1.000000,3.000000;stroke-dashoffset:0.0;stroke-linecap:butt;stroke-width:0.5;"/>
     </g>
     <g id="line2d_25">
      <defs>
       <path d="
M0 0
L4 0" id="mfe4d449ad9"/>
      </defs>
      <g>
       <use style="stroke:#000000;stroke-linecap:butt;stroke-width:0.5;" x="54.75625" xlink:href="#mfe4d449ad9" y="284.014725546"/>
      </g>
     </g>
     <g id="text_5">
      <!-- -2 -->
      <g transform="translate(30.405 292.920975546)scale(0.24 -0.24)">
       <use xlink:href="#BitstreamVeraSans-Roman-2d"/>
       <use x="36.083984375" xlink:href="#BitstreamVeraSans-Roman-32"/>
      </g>
     </g>
    </g>
    <g id="ytick_3">
     <g id="line2d_26">
      <path d="
M64.7562 217.08
L557.299 217.08" style="fill:none;stroke:#000000;stroke-dasharray:1.000000,3.000000;stroke-dashoffset:0.0;stroke-linecap:butt;stroke-width:0.5;"/>
     </g>
     <g id="line2d_27">
      <defs>
       <path d="
M0 0
L4 0" id="mfe4d449ad9"/>
      </defs>
      <g>
       <use style="stroke:#000000;stroke-linecap:butt;stroke-width:0.5;" x="54.75625" xlink:href="#mfe4d449ad9" y="217.08026291"/>
      </g>
     </g>
     <g id="text_6">
      <!-- -1.5 -->
      <g transform="translate(7.2 225.65838791)scale(0.24 -0.24)">
       <use xlink:href="#BitstreamVeraSans-Roman-2d"/>
       <use x="36.083984375" xlink:href="#BitstreamVeraSans-Roman-31"/>
       <use x="99.70703125" xlink:href="#BitstreamVeraSans-Roman-2e"/>
       <use x="131.494140625" xlink:href="#BitstreamVeraSans-Roman-35"/>
      </g>
     </g>
    </g>
    <g id="ytick_4">
     <g id="line2d_28">
      <path d="
M64.7562 150.146
L557.299 150.146" style="fill:none;stroke:#000000;stroke-dasharray:1.000000,3.000000;stroke-dashoffset:0.0;stroke-linecap:butt;stroke-width:0.5;"/>
     </g>
     <g id="line2d_29">
      <defs>
       <path d="
M0 0
L4 0" id="mfe4d449ad9"/>
      </defs>
      <g>
       <use style="stroke:#000000;stroke-linecap:butt;stroke-width:0.5;" x="54.75625" xlink:href="#mfe4d449ad9" y="150.145800273"/>
      </g>
     </g>
     <g id="text_7">
      <!-- -1 -->
      <g transform="translate(30.2175 158.894550273)scale(0.24 -0.24)">
       <use xlink:href="#BitstreamVeraSans-Roman-2d"/>
       <use x="36.083984375" xlink:href="#BitstreamVeraSans-Roman-31"/>
      </g>
     </g>
    </g>
    <g id="ytick_5">
     <g id="line2d_30">
      <path d="
M64.7562 83.2113
L557.299 83.2113" style="fill:none;stroke:#000000;stroke-dasharray:1.000000,3.000000;stroke-dashoffset:0.0;stroke-linecap:butt;stroke-width:0.5;"/>
     </g>
     <g id="line2d_31">
      <defs>
       <path d="
M0 0
L4 0" id="mfe4d449ad9"/>
      </defs>
      <g>
       <use style="stroke:#000000;stroke-linecap:butt;stroke-width:0.5;" x="54.75625" xlink:href="#mfe4d449ad9" y="83.2113376365"/>
      </g>
     </g>
     <g id="text_8">
      <!-- -0.5 -->
      <g transform="translate(7.2 91.9469626365)scale(0.24 -0.24)">
       <use xlink:href="#BitstreamVeraSans-Roman-2d"/>
       <use x="36.083984375" xlink:href="#BitstreamVeraSans-Roman-30"/>
       <use x="99.70703125" xlink:href="#BitstreamVeraSans-Roman-2e"/>
       <use x="131.494140625" xlink:href="#BitstreamVeraSans-Roman-35"/>
      </g>
     </g>
    </g>
    <g id="ytick_6">
     <g id="line2d_32">
      <path d="
M64.7562 16.2769
L557.299 16.2769" style="fill:none;stroke:#000000;stroke-dasharray:1.000000,3.000000;stroke-dashoffset:0.0;stroke-linecap:butt;stroke-width:0.5;"/>
     </g>
     <g id="line2d_33">
      <defs>
       <path d="
M0 0
L4 0" id="mfe4d449ad9"/>
      </defs>
      <g>
       <use style="stroke:#000000;stroke-linecap:butt;stroke-width:0.5;" x="54.75625" xlink:href="#mfe4d449ad9" y="16.276875"/>
      </g>
     </g>
     <g id="text_9">
      <!-- 0 -->
      <g transform="translate(38.6625 25.0125)scale(0.24 -0.24)">
       <use xlink:href="#BitstreamVeraSans-Roman-30"/>
      </g>
     </g>
    </g>
    <g id="ytick_7">
     <g id="line2d_34">
      <defs>
       <path d="
M0 0
L2 0" id="md4a8f1e07c"/>
      </defs>
      <g>
       <use style="stroke:#000000;stroke-linecap:butt;stroke-width:0.5;" x="54.75625" xlink:href="#md4a8f1e07c" y="404.496758292"/>
      </g>
     </g>
    </g>
    <g id="ytick_8">
     <g id="line2d_35">
      <defs>
       <path d="
M0 0
L2 0" id="md4a8f1e07c"/>
      </defs>
      <g>
       <use style="stroke:#000000;stroke-linecap:butt;stroke-width:0.5;" x="54.75625" xlink:href="#md4a8f1e07c" y="391.109865765"/>
      </g>
     </g>
    </g>
    <g id="ytick_9">
     <g id="line2d_36">
      <defs>
       <path d="
M0 0
L2 0" id="md4a8f1e07c"/>
      </defs>
      <g>
       <use style="stroke:#000000;stroke-linecap:butt;stroke-width:0.5;" x="54.75625" xlink:href="#md4a8f1e07c" y="377.722973237"/>
      </g>
     </g>
    </g>
    <g id="ytick_10">
     <g id="line2d_37">
      <defs>
       <path d="
M0 0
L2 0" id="md4a8f1e07c"/>
      </defs>
      <g>
       <use style="stroke:#000000;stroke-linecap:butt;stroke-width:0.5;" x="54.75625" xlink:href="#md4a8f1e07c" y="364.33608071"/>
      </g>
     </g>
    </g>
    <g id="ytick_11">
     <g id="line2d_38">
      <defs>
       <path d="
M0 0
L2 0" id="md4a8f1e07c"/>
      </defs>
      <g>
       <use style="stroke:#000000;stroke-linecap:butt;stroke-width:0.5;" x="54.75625" xlink:href="#md4a8f1e07c" y="337.562295655"/>
      </g>
     </g>
    </g>
    <g id="ytick_12">
     <g id="line2d_39">
      <defs>
       <path d="
M0 0
L2 0" id="md4a8f1e07c"/>
      </defs>
      <g>
       <use style="stroke:#000000;stroke-linecap:butt;stroke-width:0.5;" x="54.75625" xlink:href="#md4a8f1e07c" y="324.175403128"/>
      </g>
     </g>
    </g>
    <g id="ytick_13">
     <g id="line2d_40">
      <defs>
       <path d="
M0 0
L2 0" id="md4a8f1e07c"/>
      </defs>
      <g>
       <use style="stroke:#000000;stroke-linecap:butt;stroke-width:0.5;" x="54.75625" xlink:href="#md4a8f1e07c" y="310.788510601"/>
      </g>
     </g>
    </g>
    <g id="ytick_14">
     <g id="line2d_41">
      <defs>
       <path d="
M0 0
L2 0" id="md4a8f1e07c"/>
      </defs>
      <g>
       <use style="stroke:#000000;stroke-linecap:butt;stroke-width:0.5;" x="54.75625" xlink:href="#md4a8f1e07c" y="297.401618073"/>
      </g>
     </g>
    </g>
    <g id="ytick_15">
     <g id="line2d_42">
      <defs>
       <path d="
M0 0
L2 0" id="md4a8f1e07c"/>
      </defs>
      <g>
       <use style="stroke:#000000;stroke-linecap:butt;stroke-width:0.5;" x="54.75625" xlink:href="#md4a8f1e07c" y="270.627833019"/>
      </g>
     </g>
    </g>
    <g id="ytick_16">
     <g id="line2d_43">
      <defs>
       <path d="
M0 0
L2 0" id="md4a8f1e07c"/>
      </defs>
      <g>
       <use style="stroke:#000000;stroke-linecap:butt;stroke-width:0.5;" x="54.75625" xlink:href="#md4a8f1e07c" y="257.240940492"/>
      </g>
     </g>
    </g>
    <g id="ytick_17">
     <g id="line2d_44">
      <defs>
       <path d="
M0 0
L2 0" id="md4a8f1e07c"/>
      </defs>
      <g>
       <use style="stroke:#000000;stroke-linecap:butt;stroke-width:0.5;" x="54.75625" xlink:href="#md4a8f1e07c" y="243.854047964"/>
      </g>
     </g>
    </g>
    <g id="ytick_18">
     <g id="line2d_45">
      <defs>
       <path d="
M0 0
L2 0" id="md4a8f1e07c"/>
      </defs>
      <g>
       <use style="stroke:#000000;stroke-linecap:butt;stroke-width:0.5;" x="54.75625" xlink:href="#md4a8f1e07c" y="230.467155437"/>
      </g>
     </g>
    </g>
    <g id="ytick_19">
     <g id="line2d_46">
      <defs>
       <path d="
M0 0
L2 0" id="md4a8f1e07c"/>
      </defs>
      <g>
       <use style="stroke:#000000;stroke-linecap:butt;stroke-width:0.5;" x="54.75625" xlink:href="#md4a8f1e07c" y="203.693370382"/>
      </g>
     </g>
    </g>
    <g id="ytick_20">
     <g id="line2d_47">
      <defs>
       <path d="
M0 0
L2 0" id="md4a8f1e07c"/>
      </defs>
      <g>
       <use style="stroke:#000000;stroke-linecap:butt;stroke-width:0.5;" x="54.75625" xlink:href="#md4a8f1e07c" y="190.306477855"/>
      </g>
     </g>
    </g>
    <g id="ytick_21">
     <g id="line2d_48">
      <defs>
       <path d="
M0 0
L2 0" id="md4a8f1e07c"/>
      </defs>
      <g>
       <use style="stroke:#000000;stroke-linecap:butt;stroke-width:0.5;" x="54.75625" xlink:href="#md4a8f1e07c" y="176.919585328"/>
      </g>
     </g>
    </g>
    <g id="ytick_22">
     <g id="line2d_49">
      <defs>
       <path d="
M0 0
L2 0" id="md4a8f1e07c"/>
      </defs>
      <g>
       <use style="stroke:#000000;stroke-linecap:butt;stroke-width:0.5;" x="54.75625" xlink:href="#md4a8f1e07c" y="163.5326928"/>
      </g>
     </g>
    </g>
    <g id="ytick_23">
     <g id="line2d_50">
      <defs>
       <path d="
M0 0
L2 0" id="md4a8f1e07c"/>
      </defs>
      <g>
       <use style="stroke:#000000;stroke-linecap:butt;stroke-width:0.5;" x="54.75625" xlink:href="#md4a8f1e07c" y="136.758907746"/>
      </g>
     </g>
    </g>
    <g id="ytick_24">
     <g id="line2d_51">
      <defs>
       <path d="
M0 0
L2 0" id="md4a8f1e07c"/>
      </defs>
      <g>
       <use style="stroke:#000000;stroke-linecap:butt;stroke-width:0.5;" x="54.75625" xlink:href="#md4a8f1e07c" y="123.372015218"/>
      </g>
     </g>
    </g>
    <g id="ytick_25">
     <g id="line2d_52">
      <defs>
       <path d="
M0 0
L2 0" id="md4a8f1e07c"/>
      </defs>
      <g>
       <use style="stroke:#000000;stroke-linecap:butt;stroke-width:0.5;" x="54.75625" xlink:href="#md4a8f1e07c" y="109.985122691"/>
      </g>
     </g>
    </g>
    <g id="ytick_26">
     <g id="line2d_53">
      <defs>
       <path d="
M0 0
L2 0" id="md4a8f1e07c"/>
      </defs>
      <g>
       <use style="stroke:#000000;stroke-linecap:butt;stroke-width:0.5;" x="54.75625" xlink:href="#md4a8f1e07c" y="96.5982301638"/>
      </g>
     </g>
    </g>
    <g id="ytick_27">
     <g id="line2d_54">
      <defs>
       <path d="
M0 0
L2 0" id="md4a8f1e07c"/>
      </defs>
      <g>
       <use style="stroke:#000000;stroke-linecap:butt;stroke-width:0.5;" x="54.75625" xlink:href="#md4a8f1e07c" y="69.8244451092"/>
      </g>
     </g>
    </g>
    <g id="ytick_28">
     <g id="line2d_55">
      <defs>
       <path d="
M0 0
L2 0" id="md4a8f1e07c"/>
      </defs>
      <g>
       <use style="stroke:#000000;stroke-linecap:butt;stroke-width:0.5;" x="54.75625" xlink:href="#md4a8f1e07c" y="56.4375525819"/>
      </g>
     </g>
    </g>
    <g id="ytick_29">
     <g id="line2d_56">
      <defs>
       <path d="
M0 0
L2 0" id="md4a8f1e07c"/>
      </defs>
      <g>
       <use style="stroke:#000000;stroke-linecap:butt;stroke-width:0.5;" x="54.75625" xlink:href="#md4a8f1e07c" y="43.0506600546"/>
      </g>
     </g>
    </g>
    <g id="ytick_30">
     <g id="line2d_57">
      <defs>
       <path d="
M0 0
L2 0" id="md4a8f1e07c"/>
      </defs>
      <g>
       <use style="stroke:#000000;stroke-linecap:butt;stroke-width:0.5;" x="54.75625" xlink:href="#md4a8f1e07c" y="29.6637675273"/>
      </g>
     </g>
    </g>
   </g>
   <g id="patch_3">
    <path d="
M64.7562 16.2769
L557.299 16.2769" style="fill:none;stroke:#000000;stroke-width:0.8;"/>
   </g>
   <g id="patch_4">
    <path d="
M54.7562 412.239
L54.7562 8.51291" style="fill:none;stroke:#000000;stroke-width:0.8;"/>
   </g>
  </g>
 </g>
 <defs>
  <clipPath id="p8d84e77ebc">
   <rect height="403.726153846" width="492.5425" x="64.75625" y="8.51291050296"/>
  </clipPath>
 </defs>
</svg>
