<?xml version="1.0" encoding="utf-8" standalone="no"?>
<!DOCTYPE svg PUBLIC "-//W3C//DTD SVG 1.1//EN"
  "http://www.w3.org/Graphics/SVG/1.1/DTD/svg11.dtd">
<!-- Created with matplotlib (http://matplotlib.sourceforge.net/) -->
<svg height="419pt" version="1.1" viewBox="0 0 564 419" width="564pt" xmlns="http://www.w3.org/2000/svg" xmlns:xlink="http://www.w3.org/1999/xlink">
 <defs>
  <style type="text/css">
*{stroke-linecap:square;stroke-linejoin:round;}
  </style>
 </defs>
 <g id="figure_1">
  <g id="patch_1">
   <path d="
M4.44089e-16 419.439
L564.626 419.439
L564.626 0
L4.44089e-16 0
z
" style="fill:#ffffff;"/>
  </g>
  <g id="axes_1">
   <g id="patch_2">
    <path d="
M42.6088 412.239
L557.426 412.239
L557.426 8.51291
L42.6088 8.51291
z
" style="fill:#ffffff;"/>
   </g>
   <g id="line2d_1">
    <path clip-path="url(#p10490cade4)" d="
M52.5091 16.2769
L63.8311 16.2769
L63.8311 39.87
L78.0952 39.87
L78.0952 76.709
L87.4908 76.709
L87.4908 105.46
L100.112 105.46
L100.112 152.216
L104.777 152.216
L104.777 169.37
L112.267 169.37
L112.267 196.133
L115.373 196.133
L115.373 208.342
L120.708 208.342
L120.708 222.855
L127.181 222.855
L127.181 240.051
L129.043 240.051
L129.043 245.377
L133.984 245.377
L133.984 256.242
L136.85 256.242
L136.85 263.386
L138.18 263.386
L138.18 266.732
L140.664 266.732
L140.664 270.664
L144.019 270.664
L144.019 275.769
L147.013 275.769
L147.013 280.688
L147.944 280.688
L147.944 281.968
L150.564 281.968
L150.564 286.252
L152.183 286.252
L152.183 289.02
L152.959 289.02
L152.959 290.593
L155.165 290.593
L155.165 295.407
L156.544 295.407
L156.544 298.86
L158.493 298.86
L158.493 304.243
L160.896 304.243
L160.896 310.999
L162.025 310.999
L162.025 314.278
L162.572 314.278
L162.572 315.885
L163.636 315.885
L163.636 319.099
L164.153 319.099
L164.153 320.62
L165.16 320.62
L165.16 323.454
L168.421 323.454
L168.421 331.281
L169.287 331.281
L169.287 332.999
L170.538 332.999
L170.538 335.33
L170.942 335.33
L170.942 336.077
L172.882 336.077
L172.882 338.879
L173.255 338.879
L173.255 339.32
L174.343 339.32
L174.343 340.768
L175.39 340.768
L175.39 342.211
L176.067 342.211
L176.067 343.343
L177.052 343.343
L177.052 344.805
L178.004 344.805
L178.004 345.929
L178.315 345.929
L178.315 346.378
L179.816 346.378
L179.816 348.122
L180.107 348.122
L180.107 348.463
L180.68 348.463
L180.68 349.272
L180.962 349.272
L180.962 349.631
L182.597 349.631
L182.597 351.67
L184.142 351.67
L184.142 353.319
L184.638 353.319
L184.638 353.854
L184.883 353.854
L184.883 354.077
L185.367 354.077
L185.367 354.556
L186.077 354.556
L186.077 355.291
L186.309 355.291
L186.309 355.512
L187.445 355.512
L187.445 356.952
L188.104 356.952
L188.104 357.593
L188.749 357.593
L188.749 358.141
L189.378 358.141
L189.378 358.822
L189.585 358.822
L189.585 359.034
L190.197 359.034
L190.197 359.7
L190.597 359.7
L190.597 360.057
L190.795 360.057
L190.795 360.254
L191.765 360.254
L191.765 361.28
L193.068 361.28
L193.068 362.71
L193.43 362.71
L193.43 363.004
L193.609 363.004
L193.609 363.159
L193.963 363.159
L193.963 363.401
L195.17 363.401
L195.17 364.42
L195.672 364.42
L195.672 364.807
L196.488 364.807
L196.488 365.536
L196.649 365.536
L196.649 365.664
L196.967 365.664
L196.967 365.94
L197.438 365.94
L197.438 366.287
L198.053 366.287
L198.053 366.824
L198.506 366.824
L198.506 367.2
L198.951 367.2
L198.951 367.636
L199.245 367.636
L199.245 367.909
L199.679 367.909
L199.679 368.328
L200.247 368.328
L200.247 368.859
L200.527 368.859
L200.527 369.067
L201.079 369.067
L201.079 369.552
L201.753 369.552
L201.753 370.131
L201.886 370.131
L201.886 370.274
L202.542 370.274
L202.542 371.038
L202.671 371.038
L202.671 371.177
L203.055 371.177
L203.055 371.511
L203.308 371.511
L203.308 371.701
L203.684 371.701
L203.684 371.894
L204.177 371.894
L204.177 372.214
L204.421 372.214
L204.421 372.382
L204.782 372.475
L204.782 372.697
L205.49 372.697
L205.49 373.218
L205.953 373.218
L205.953 373.448
L206.632 373.532
L206.632 373.764
L206.855 373.764
L206.855 373.921
L207.186 373.921
L207.186 374.167
L207.837 374.167
L207.944 374.583
L208.889 374.583
L208.889 374.843
L209.703 374.954
L209.703 375.109
L210.298 375.187
L210.396 375.313
L211.168 375.403
L211.168 375.567
L211.452 375.567
L211.452 375.694
L212.103 375.778
L212.103 375.889
L212.559 375.989
L212.65 376.102
L213.186 376.102
L213.186 376.269
L213.625 376.269
L213.712 376.492
L214.143 376.596
L214.143 376.736
L214.483 376.84
L214.483 376.884
L214.985 376.884
L214.985 377.175
L215.397 377.267
L215.397 377.38
L215.722 377.38
L215.722 377.553
L216.124 377.553
L216.124 377.791
L216.44 377.791
L216.44 377.93
L216.832 377.93
L216.832 378.127
L217.141 378.127
L217.141 378.302
L217.37 378.302
L217.37 378.452
L217.598 378.452
L217.598 378.638
L218.047 378.746
L218.047 378.942
L218.27 378.942
L218.27 379.118
L218.417 379.118
L218.417 379.246
L218.709 379.246
L218.709 379.52
L218.854 379.52
L218.854 379.652
L219.355 379.652
L219.355 380.15
L219.708 380.15
L219.708 380.453
L220.125 380.453
L220.194 380.89
L220.536 380.89
L220.604 381.207
L220.807 381.282
L220.807 381.332
L221.142 381.332
L221.142 381.575
L221.604 381.575
L221.604 381.897
L221.799 381.993
L221.799 382.032
L222.378 382.108
L222.378 382.35
L222.569 382.427
L222.569 382.467
L223.318 382.568
L223.318 383.096
L223.685 383.205
L223.685 383.436
L223.987 383.436
L223.987 383.675
L224.226 383.675
L224.226 383.884
L224.523 383.983
L224.523 384.133
L224.699 384.133
L224.699 384.266
L225.106 384.266
L225.106 384.58
L225.394 384.665
L225.394 384.788
L225.565 384.788
L225.565 384.921
L225.791 384.921
L225.791 385.111
L225.96 385.111
L225.96 385.277
L226.294 385.277
L226.404 385.717
L226.569 385.717
L226.624 385.875
L226.896 385.875
L226.95 386.127
L227.379 386.229
L227.432 386.406
L227.907 386.515
L227.907 386.555
L228.373 386.555
L228.475 386.737
L228.781 386.824
L228.781 386.933
L229.133 387.034
L229.133 387.182
L229.283 387.182
L229.283 387.3
L229.431 387.3
L229.431 387.435
L229.97 387.435
L230.019 387.864
L230.26 387.864
L230.26 388.052
L230.451 388.052
L230.451 388.179
L230.689 388.179
L230.689 388.337
L230.971 388.446
L230.971 388.553
L231.158 388.553
L231.158 388.707
L231.435 388.707
L231.527 388.963
L231.801 389.037
L231.847 389.124
L232.252 389.182
L232.252 389.298
L232.871 389.378
L232.915 389.551
L233.305 389.661
L233.391 389.735
L233.775 389.801
L233.817 389.91
L234.65 389.953
L234.65 390.205
L235.057 390.293
L235.057 390.354
L235.419 390.354
L235.419 390.473
L235.894 390.545
L235.972 390.655
L237.01 390.757
L237.047 390.776
L237.347 390.845
L237.347 390.892
L237.79 390.999
L237.79 391.134
L238.155 391.213
L238.263 391.43
L238.443 391.476
L238.443 391.552
L238.657 391.661
L238.657 391.709
L238.869 391.805
L238.869 391.858
L239.115 391.858
L239.185 392.095
L239.324 392.191
L239.394 392.298
L239.532 392.408
L239.635 392.566
L239.806 392.566
L239.806 392.781
L240.145 392.781
L240.246 393.37
L240.347 393.457
L240.347 393.499
L240.745 393.499
L240.844 394.129
L241.008 394.129
L241.008 394.303
L241.203 394.303
L241.236 394.515
L241.397 394.515
L241.397 394.662
L241.526 394.662
L241.622 394.875
L241.813 394.971
L241.813 395.071
L242.097 395.071
L242.192 395.447
L242.472 395.544
L242.472 395.727
L242.627 395.727
L242.627 395.884
L242.811 395.884
L242.811 396.057
L243.176 396.161
L243.176 396.362
L243.387 396.362
L243.477 396.58
L243.656 396.676
L243.656 396.697
L243.981 396.804
L244.069 396.993
L244.418 397.062
L244.447 397.299
L244.677 397.299
L244.706 397.467
L245.019 397.467
L245.104 397.703
L245.357 397.803
L245.44 397.848
L245.773 397.909
L245.801 397.982
L246.129 398.069
L246.129 398.167
L246.507 398.274
L246.614 398.363
L247.144 398.436
L247.249 398.501
L248.898 398.611
L248.972 398.67
L249.699 398.748
L249.795 398.79
L252.821 398.897
L252.907 398.907
L254.281 398.999
L254.321 399.036
L254.983 399.139
L254.983 399.173
L256.711 399.279
L256.73 399.337
L257.1 399.436
L257.173 399.479
L257.537 399.579
L257.537 399.599
L257.968 399.691
L257.968 399.726
L259.033 399.836
L259.136 399.85
L260.615 399.753
L260.712 399.718
L261.16 399.612
L261.255 399.569
L261.866 399.477
L261.943 399.439
L263.344 399.337
L263.344 399.327
L263.882 399.235
L263.968 399.176
L264.254 399.081
L264.353 399.006
L264.677 398.919
L264.775 398.789
L265.094 398.698
L265.149 398.595
L265.382 398.523
L265.436 398.452
L265.64 398.345
L265.708 398.3
L265.963 398.224
L265.963 398.155
L266.189 398.068
L266.242 397.999
L266.506 397.891
L266.597 397.829
L266.948 397.735
L267.025 397.547
L267.243 397.445
L267.243 397.407
L267.472 397.327
L267.561 397.244
L267.775 397.151
L267.812 397.114
L268.086 397.031
L268.185 396.94
L268.553 396.841
L268.638 396.793
L269.275 396.69
L269.381 396.671
L270.289 396.775
L270.358 396.8
L270.71 396.896
L270.811 396.956
L271.102 397.062
L271.202 397.136
L271.466 397.237
L271.576 397.293
L271.924 397.404
L272.021 397.448
L272.406 397.531
L272.512 397.593
L273.035 397.696
L273.129 397.766
L273.499 397.845
L273.56 397.898
L273.934 397.989
L274.014 398.056
L275.134 398.166
L275.23 398.195
L275.715 398.289
L275.79 398.324
L276.441 398.434
L276.542 398.465
L276.824 398.564
L276.87 398.618
L277.086 398.728
L277.122 398.752
L277.434 398.858
L277.54 398.922
L277.969 399.033
L277.996 399.062
L278.529 399.172
L278.64 399.196
L279.484 399.302
L279.583 399.326
L280.248 399.437
L280.344 399.469
L280.694 399.565
L280.788 399.615
L281.078 399.706
L281.14 399.759
L281.487 399.86
L281.586 399.935
L281.973 400.034
L282.056 400.084
L282.459 400.189
L282.533 400.231
L282.82 400.326
L282.929 400.4
L283.19 400.489
L283.255 400.539
L283.641 400.643
L283.698 400.677
L284.084 400.781
L284.168 400.851
L284.617 400.959
L284.727 401.036
L285.032 401.142
L285.127 401.173
L285.534 401.274
L285.627 401.349
L285.93 401.459
L286.041 401.502
L286.352 401.609
L286.448 401.649
L286.78 401.744
L286.888 401.811
L287.177 401.92
L287.283 401.973
L287.525 402.075
L287.605 402.131
L287.862 402.221
L287.972 402.291
L288.292 402.4
L288.382 402.441
L288.793 402.544
L288.899 402.589
L289.423 402.697
L289.481 402.731
L289.784 402.84
L289.887 402.919
L290.062 403.011
L290.147 403.088
L290.359 403.169
L290.449 403.285
L290.648 403.389
L290.758 403.462
L291.01 403.564
L291.092 403.637
L291.352 403.737
L291.432 403.782
L291.859 403.892
L291.97 403.944
L292.367 404.046
L292.46 404.093
L292.892 404.201
L292.984 404.222
L293.537 404.329
L293.646 404.35
L294.765 404.46
L294.826 404.47
L296.077 404.359
L296.186 404.329
L296.725 404.229
L296.835 404.188
L297.539 404.077
L297.63 404.049
L298.044 403.938
L298.154 403.91
L300.752 403.8
L300.836 403.791
L301.368 403.686
L301.47 403.651
L302.008 403.543
L302.107 403.519
L303.023 403.409
L303.129 403.385
L303.57 403.277
L303.657 403.239
L304.015 403.133
L304.121 403.086
L304.497 402.975
L304.595 402.917
L304.898 402.808
L304.997 402.763
L305.319 402.653
L305.43 402.603
L305.769 402.497
L305.875 402.449
L306.235 402.342
L306.342 402.312
L306.826 402.201
L306.903 402.189
L310.557 402.08
L310.665 402.065
L311.672 401.962
L311.752 401.935
L312.646 401.831
L312.743 401.809
L313.589 401.702
L313.696 401.675
L314.099 401.569
L314.209 401.531
L314.857 401.421
L314.961 401.405
L315.468 401.298
L315.579 401.26
L316.576 401.154
L316.576 401.147
L317.499 401.247
L317.499 401.264
L318.12 401.373
L318.223 401.414
L322.129 401.321
L322.231 401.254
L322.643 401.152
L322.643 401.128
L323.279 401.033
L323.366 400.985
L324.088 400.88
L324.192 400.841
L324.613 400.759
L324.701 400.698
L325.113 400.595
L325.218 400.516
L325.526 400.435
L325.633 400.371
L326.039 400.275
L326.039 400.247
L326.456 400.145
L326.557 400.099
L327.079 399.994
L327.171 399.939
L327.701 399.83
L327.787 399.776
L328.407 399.675
L328.507 399.639
L329.128 399.543
L329.128 399.52
L329.639 399.412
L329.747 399.338
L330.056 399.247
L330.153 399.159
L330.364 399.102
L330.461 398.995
L330.671 398.93
L330.781 398.785
L330.978 398.715
L331.082 398.568
L331.322 398.498
L331.392 398.36
L331.618 398.285
L331.703 398.143
L331.934 398.073
L332.017 397.952
L332.314 397.857
L332.418 397.764
L332.842 397.668
L332.935 397.596
L333.241 397.51
L333.344 397.436
L333.666 397.355
L333.754 397.264
L334.065 397.167
L334.17 397.082
L334.482 397.007
L334.578 396.94
L335.092 396.837
L335.193 396.781
L335.607 396.692
L335.71 396.618
L336.02 396.539
L336.128 396.466
L336.531 396.37
L336.638 396.297
L337.049 396.197
L337.16 396.122
L337.461 396.042
L337.56 395.958
L337.972 395.856
L338.074 395.797
L338.594 395.696
L338.694 395.657
L339.413 395.552
L339.517 395.526
L341.881 395.63
L341.989 395.704
L342.397 395.797
L342.498 395.859
L342.909 395.955
L343.013 395.996
L343.735 396.1
L343.837 396.151
L344.254 396.262
L344.352 396.341
L344.766 396.434
L344.868 396.489
L345.381 396.585
L345.482 396.617
L345.996 396.698
L346.105 396.758
L350.422 396.65
L350.526 396.591
L350.934 396.492
L351.039 396.423
L351.558 396.314
L351.653 396.27
L352.168 396.173
L352.168 396.155
L352.682 396.064
L352.79 396.021
L353.816 395.922
L353.918 395.899
L355.462 395.801
L355.567 395.765
L356.391 395.67
L356.489 395.634
L356.903 395.539
L357.008 395.493
L357.725 395.387
L357.827 395.36
L359.472 395.254
L359.578 395.24
L362.354 395.345
L362.455 395.368
L363.177 395.475
L363.278 395.507
L363.998 395.605
L364.102 395.65
L368.321 395.544
L368.423 395.506
L372.332 395.399
L372.434 395.346
L372.847 395.246
L372.949 395.17
L373.36 395.072
L373.463 395.012
L373.979 394.917
L374.081 394.866
L374.39 394.797
L374.492 394.688
L374.699 394.629
L374.801 394.505
L375.006 394.444
L375.112 394.316
L375.314 394.253
L375.418 394.113
L375.624 394.047
L375.727 393.919
L375.932 393.857
L376.035 393.725
L376.241 393.652
L376.343 393.51
L376.55 393.436
L376.654 393.303
L376.961 393.194
L377.064 393.093
L377.373 392.994
L377.475 392.906
L377.887 392.804
L377.992 392.726
L378.298 392.632
L378.401 392.522
L378.608 392.461
L378.709 392.338
L378.916 392.279
L379.02 392.171
L379.225 392.118
L379.328 391.987
L379.534 391.924
L379.637 391.805
L379.944 391.7
L380.047 391.614
L380.355 391.536
L380.46 391.449
L380.768 391.36
L380.869 391.265
L381.178 391.157
L381.281 391.065
L381.59 390.978
L381.693 390.887
L382.002 390.809
L382.105 390.726
L382.517 390.621
L382.619 390.551
L382.927 390.478
L383.03 390.398
L383.34 390.322
L383.442 390.241
L383.751 390.149
L383.854 390.073
L384.265 389.97
L384.368 389.896
L384.679 389.822
L384.779 389.751
L385.19 389.652
L385.296 389.557
L385.602 389.461
L385.707 389.38
L386.015 389.294
L386.117 389.212
L386.426 389.124
L386.528 389.048
L387.042 388.948
L387.145 388.902
L387.557 388.797
L387.661 388.728
L388.071 388.635
L388.177 388.581
L388.689 388.488
L388.792 388.43
L389.41 388.327
L389.511 388.3
L390.128 388.203
L390.231 388.136
L390.646 388.043
L390.746 387.987
L391.157 387.884
L391.261 387.81
L391.57 387.732
L391.672 387.654
L391.981 387.573
L392.083 387.493
L392.494 387.384
L392.599 387.327
L393.112 387.23
L393.215 387.192
L393.833 387.1
L393.936 387.056
L394.449 386.961
L394.552 386.927
L395.787 386.828
L395.889 386.796
L396.918 386.69
L397.023 386.657
L397.741 386.547
L397.844 386.511
L400.724 386.613
L400.827 386.637
L405.045 386.532
L405.148 386.507
L406.177 386.396
L406.28 386.387
L408.646 386.492
L408.748 386.529
L413.172 386.419
L413.275 386.393
L416.053 386.299
L416.156 386.254
L416.67 386.15
L416.773 386.081
L417.184 385.995
L417.287 385.943
L417.802 385.853
L417.904 385.806
L418.83 385.697
L418.933 385.666
L419.551 385.571
L419.653 385.54
L420.682 385.431
L420.785 385.411
L421.505 385.31
L421.608 385.288
L422.431 385.184
L422.534 385.166
L423.665 385.073
L423.768 385.031
L424.489 384.939
L424.591 384.89
L425.209 384.784
L425.311 384.738
L425.723 384.652
L425.826 384.589
L426.134 384.515
L426.237 384.429
L426.546 384.352
L426.649 384.271
L426.957 384.195
L427.06 384.108
L427.37 384.025
L427.472 383.944
L427.781 383.858
L427.883 383.776
L428.192 383.687
L428.295 383.605
L428.706 383.498
L428.809 383.442
L429.324 383.348
L429.427 383.297
L429.941 383.195
L430.044 383.161
L430.866 383.069
L430.97 383.026
L431.484 382.925
L431.587 382.872
L432.101 382.763
L432.204 382.717
L432.718 382.62
L432.821 382.578
L433.644 382.471
L433.747 382.457
L436.833 382.348
L436.936 382.334
L437.965 382.228
L438.068 382.204
L439.508 382.095
L439.611 382.068
L440.639 381.962
L440.742 381.913
L441.257 381.81
L441.36 381.787
L442.08 381.681
L442.183 381.649
L442.8 381.54
L442.903 381.489
L443.726 381.379
L443.829 381.374
L444.857 381.271
L444.96 381.222
L445.372 381.143
L445.475 381.07
L445.989 380.963
L446.092 380.917
L446.709 380.81
L446.812 380.75
L447.223 380.652
L447.327 380.595
L447.738 380.51
L447.841 380.445
L448.252 380.355
L448.355 380.293
L448.767 380.192
L448.87 380.132
L449.384 380.033
L449.487 379.989
L449.898 379.886
L450.001 379.798
L450.31 379.701
L450.413 379.6
L450.721 379.5
L450.824 379.387
L451.03 379.316
L451.133 379.169
L451.339 379.096
L451.441 378.964
L451.647 378.897
L451.75 378.761
L451.956 378.696
L452.059 378.574
L452.264 378.514
L452.367 378.377
L452.573 378.307
L452.676 378.193
L452.984 378.099
L453.087 378.01
L453.396 377.921
L453.499 377.826
L453.807 377.725
L453.91 377.633
L454.219 377.548
L454.322 377.475
L454.63 377.4
L454.733 377.32
L455.042 377.239
L455.145 377.17
L455.556 377.08
L455.659 377.02
L456.071 376.919
L456.173 376.856
L456.482 376.779
L456.585 376.714
L457.099 376.621
L457.202 376.572
L457.819 376.47
L457.922 376.412
L458.334 376.329
L458.437 376.264
L458.848 376.177
L458.951 376.106
L459.363 375.999
L459.466 375.928
L459.877 375.836
L459.98 375.782
L463.478 375.888
L463.581 375.92
L464.815 376.026
L464.918 376.041
L467.181 376.148
L467.284 376.16
L468.724 376.267
L468.827 376.28
L470.062 376.179
L470.164 376.128
L470.679 376.031
L470.782 375.979
L471.296 375.881
L471.399 375.842
L471.811 375.755
L471.913 375.668
L472.222 375.583
L472.325 375.498
L472.839 375.391
L472.942 375.36
L475.102 375.252
L475.205 375.243
L477.057 375.351
L477.16 375.372
L482.509 375.262
L482.612 375.223
L483.435 375.114
L483.538 375.096
L484.361 374.992
L484.464 374.956
L485.287 374.847
L485.39 374.817
L490.122 374.712
L490.225 374.672
L490.842 374.57
L490.945 374.549
L492.797 374.438
L492.9 374.411
L493.62 374.312
L493.723 374.275
L494.443 374.168
L494.546 374.136
L495.163 374.037
L495.266 374.001
L495.78 373.907
L495.883 373.846
L496.397 373.758
L496.5 373.706
L497.117 373.607
L497.22 373.56
L497.735 373.454
L497.838 373.402
L498.249 373.307
L498.352 373.231
L498.661 373.135
L498.763 373.045
L499.072 372.954
L499.175 372.885
L499.586 372.785
L499.689 372.714
L499.998 372.634
L500.101 372.564
L500.409 372.481
L500.512 372.402
L500.821 372.32
L500.924 372.229
L501.232 372.134
L501.335 372.037
L501.644 371.939
L501.747 371.829
L501.953 371.77
L502.055 371.663
L502.364 371.569
L502.467 371.466
L502.776 371.364
L502.878 371.25
L503.187 371.142
L503.29 371.039
L503.599 370.947
L503.701 370.854
L504.01 370.762
L504.113 370.675
L504.422 370.569
L504.524 370.45
L504.73 370.388
L504.833 370.285
L505.142 370.19
L505.245 370.108
L505.656 369.998
L505.759 369.934
L506.273 369.828
L506.376 369.776
L506.891 369.667
L506.993 369.624
L507.508 369.533
L507.611 369.486
L508.125 369.399
L508.228 369.345
L509.051 369.237
L509.154 369.221
L509.977 369.119
L510.08 369.086
L511.006 368.982
L511.108 368.947
L512.034 368.846
L512.137 368.82
L513.269 368.716
L513.372 368.699
L514.4 368.589
L514.503 368.534
L515.018 368.431
L515.12 368.369
L515.635 368.262
L515.738 368.199
L516.252 368.088
L516.355 368.042
L516.869 367.931
L516.972 367.876
L517.487 367.776
L517.59 367.731
L518.412 367.629
L518.515 367.609
L519.544 367.505
L519.647 367.472
L520.264 367.374
L520.367 367.335
L520.984 367.238
L521.087 367.189
L521.704 367.082
L521.807 367.059
L523.35 367.154
L523.453 367.185
L524.379 367.294
L524.482 367.326
L525.305 367.437
L525.408 367.456
L531.58 367.348
L531.683 367.32
L532.712 367.211
L532.815 367.192
L535.078 367.085
L535.181 367.068
L536.21 366.962
L536.313 366.935
L536.93 366.832
L537.033 366.776
L537.65 366.673
L537.753 366.637
L538.267 366.548
L538.37 366.498
L538.782 366.416
L538.884 366.356
L539.296 366.254
L539.399 366.192
L539.81 366.092
L539.913 366.029
L540.325 365.932
L540.428 365.869
L541.045 365.761
L541.148 365.734
L542.691 365.63
L542.794 365.596
L543.411 365.496
L543.514 365.46
L544.337 365.36
L544.44 365.332
L545.777 365.225
L545.88 365.202
L547.526 365.124
L547.526 365.117" style="fill:none;stroke:#0000ff;stroke-width:5.0;"/>
   </g>
   <g id="matplotlib.axis_1">
    <g id="xtick_1">
     <g id="line2d_2">
      <path d="
M172.772 412.239
L172.772 8.51291" style="fill:none;stroke:#000000;stroke-dasharray:1.000000,3.000000;stroke-dashoffset:0.0;stroke-linecap:butt;stroke-width:0.5;"/>
     </g>
     <g id="line2d_3">
      <defs>
       <path d="
M0 0
L0 -4" id="m3fbe6c24f1"/>
      </defs>
      <g>
       <use style="stroke:#000000;stroke-linecap:butt;stroke-width:0.5;" x="172.771988442" xlink:href="#m3fbe6c24f1" y="16.276875"/>
      </g>
     </g>
     <g id="text_1">
      <!-- 5 -->
      <defs>
       <path d="
M10.7969 72.9062
L49.5156 72.9062
L49.5156 64.5938
L19.8281 64.5938
L19.8281 46.7344
Q21.9688 47.4688 24.1094 47.8281
Q26.2656 48.1875 28.4219 48.1875
Q40.625 48.1875 47.75 41.5
Q54.8906 34.8125 54.8906 23.3906
Q54.8906 11.625 47.5625 5.09375
Q40.2344 -1.42188 26.9062 -1.42188
Q22.3125 -1.42188 17.5469 -0.640625
Q12.7969 0.140625 7.71875 1.70312
L7.71875 11.625
Q12.1094 9.23438 16.7969 8.0625
Q21.4844 6.89062 26.7031 6.89062
Q35.1562 6.89062 40.0781 11.3281
Q45.0156 15.7656 45.0156 23.3906
Q45.0156 31 40.0781 35.4375
Q35.1562 39.8906 26.7031 39.8906
Q22.75 39.8906 18.8125 39.0156
Q14.8906 38.1406 10.7969 36.2812
z
" id="BitstreamVeraSans-Roman-35"/>
      </defs>
      <g transform="translate(167.111363442 37.774375)scale(0.24 -0.24)">
       <use xlink:href="#BitstreamVeraSans-Roman-35"/>
      </g>
     </g>
    </g>
    <g id="xtick_2">
     <g id="line2d_4">
      <path d="
M312.39 412.239
L312.39 8.51291" style="fill:none;stroke:#000000;stroke-dasharray:1.000000,3.000000;stroke-dashoffset:0.0;stroke-linecap:butt;stroke-width:0.5;"/>
     </g>
     <g id="line2d_5">
      <defs>
       <path d="
M0 0
L0 -4" id="m3fbe6c24f1"/>
      </defs>
      <g>
       <use style="stroke:#000000;stroke-linecap:butt;stroke-width:0.5;" x="312.390065662" xlink:href="#m3fbe6c24f1" y="16.276875"/>
      </g>
     </g>
     <g id="text_2">
      <!-- 10 -->
      <defs>
       <path d="
M31.7812 66.4062
Q24.1719 66.4062 20.3281 58.9062
Q16.5 51.4219 16.5 36.375
Q16.5 21.3906 20.3281 13.8906
Q24.1719 6.39062 31.7812 6.39062
Q39.4531 6.39062 43.2812 13.8906
Q47.125 21.3906 47.125 36.375
Q47.125 51.4219 43.2812 58.9062
Q39.4531 66.4062 31.7812 66.4062
M31.7812 74.2188
Q44.0469 74.2188 50.5156 64.5156
Q56.9844 54.8281 56.9844 36.375
Q56.9844 17.9688 50.5156 8.26562
Q44.0469 -1.42188 31.7812 -1.42188
Q19.5312 -1.42188 13.0625 8.26562
Q6.59375 17.9688 6.59375 36.375
Q6.59375 54.8281 13.0625 64.5156
Q19.5312 74.2188 31.7812 74.2188" id="BitstreamVeraSans-Roman-30"/>
       <path d="
M12.4062 8.29688
L28.5156 8.29688
L28.5156 63.9219
L10.9844 60.4062
L10.9844 69.3906
L28.4219 72.9062
L38.2812 72.9062
L38.2812 8.29688
L54.3906 8.29688
L54.3906 0
L12.4062 0
z
" id="BitstreamVeraSans-Roman-31"/>
      </defs>
      <g transform="translate(299.235065662 38.089375)scale(0.24 -0.24)">
       <use xlink:href="#BitstreamVeraSans-Roman-31"/>
       <use x="63.623046875" xlink:href="#BitstreamVeraSans-Roman-30"/>
      </g>
     </g>
    </g>
    <g id="xtick_3">
     <g id="line2d_6">
      <path d="
M452.008 412.239
L452.008 8.51291" style="fill:none;stroke:#000000;stroke-dasharray:1.000000,3.000000;stroke-dashoffset:0.0;stroke-linecap:butt;stroke-width:0.5;"/>
     </g>
     <g id="line2d_7">
      <defs>
       <path d="
M0 0
L0 -4" id="m3fbe6c24f1"/>
      </defs>
      <g>
       <use style="stroke:#000000;stroke-linecap:butt;stroke-width:0.5;" x="452.008142882" xlink:href="#m3fbe6c24f1" y="16.276875"/>
      </g>
     </g>
     <g id="text_3">
      <!-- 15 -->
      <g transform="translate(439.104392882 37.774375)scale(0.24 -0.24)">
       <use xlink:href="#BitstreamVeraSans-Roman-31"/>
       <use x="63.623046875" xlink:href="#BitstreamVeraSans-Roman-35"/>
      </g>
     </g>
    </g>
    <g id="xtick_4">
     <g id="line2d_8">
      <defs>
       <path d="
M0 0
L0 -2" id="mf0ff38ea95"/>
      </defs>
      <g>
       <use style="stroke:#000000;stroke-linecap:butt;stroke-width:0.5;" x="61.0775266664" xlink:href="#mf0ff38ea95" y="16.276875"/>
      </g>
     </g>
    </g>
    <g id="xtick_5">
     <g id="line2d_9">
      <defs>
       <path d="
M0 0
L0 -2" id="mf0ff38ea95"/>
      </defs>
      <g>
       <use style="stroke:#000000;stroke-linecap:butt;stroke-width:0.5;" x="89.0011421104" xlink:href="#mf0ff38ea95" y="16.276875"/>
      </g>
     </g>
    </g>
    <g id="xtick_6">
     <g id="line2d_10">
      <defs>
       <path d="
M0 0
L0 -2" id="mf0ff38ea95"/>
      </defs>
      <g>
       <use style="stroke:#000000;stroke-linecap:butt;stroke-width:0.5;" x="116.924757554" xlink:href="#mf0ff38ea95" y="16.276875"/>
      </g>
     </g>
    </g>
    <g id="xtick_7">
     <g id="line2d_11">
      <defs>
       <path d="
M0 0
L0 -2" id="mf0ff38ea95"/>
      </defs>
      <g>
       <use style="stroke:#000000;stroke-linecap:butt;stroke-width:0.5;" x="144.848372998" xlink:href="#mf0ff38ea95" y="16.276875"/>
      </g>
     </g>
    </g>
    <g id="xtick_8">
     <g id="line2d_12">
      <defs>
       <path d="
M0 0
L0 -2" id="mf0ff38ea95"/>
      </defs>
      <g>
       <use style="stroke:#000000;stroke-linecap:butt;stroke-width:0.5;" x="200.695603886" xlink:href="#mf0ff38ea95" y="16.276875"/>
      </g>
     </g>
    </g>
    <g id="xtick_9">
     <g id="line2d_13">
      <defs>
       <path d="
M0 0
L0 -2" id="mf0ff38ea95"/>
      </defs>
      <g>
       <use style="stroke:#000000;stroke-linecap:butt;stroke-width:0.5;" x="228.61921933" xlink:href="#mf0ff38ea95" y="16.276875"/>
      </g>
     </g>
    </g>
    <g id="xtick_10">
     <g id="line2d_14">
      <defs>
       <path d="
M0 0
L0 -2" id="mf0ff38ea95"/>
      </defs>
      <g>
       <use style="stroke:#000000;stroke-linecap:butt;stroke-width:0.5;" x="256.542834774" xlink:href="#mf0ff38ea95" y="16.276875"/>
      </g>
     </g>
    </g>
    <g id="xtick_11">
     <g id="line2d_15">
      <defs>
       <path d="
M0 0
L0 -2" id="mf0ff38ea95"/>
      </defs>
      <g>
       <use style="stroke:#000000;stroke-linecap:butt;stroke-width:0.5;" x="284.466450218" xlink:href="#mf0ff38ea95" y="16.276875"/>
      </g>
     </g>
    </g>
    <g id="xtick_12">
     <g id="line2d_16">
      <defs>
       <path d="
M0 0
L0 -2" id="mf0ff38ea95"/>
      </defs>
      <g>
       <use style="stroke:#000000;stroke-linecap:butt;stroke-width:0.5;" x="340.313681106" xlink:href="#mf0ff38ea95" y="16.276875"/>
      </g>
     </g>
    </g>
    <g id="xtick_13">
     <g id="line2d_17">
      <defs>
       <path d="
M0 0
L0 -2" id="mf0ff38ea95"/>
      </defs>
      <g>
       <use style="stroke:#000000;stroke-linecap:butt;stroke-width:0.5;" x="368.23729655" xlink:href="#mf0ff38ea95" y="16.276875"/>
      </g>
     </g>
    </g>
    <g id="xtick_14">
     <g id="line2d_18">
      <defs>
       <path d="
M0 0
L0 -2" id="mf0ff38ea95"/>
      </defs>
      <g>
       <use style="stroke:#000000;stroke-linecap:butt;stroke-width:0.5;" x="396.160911994" xlink:href="#mf0ff38ea95" y="16.276875"/>
      </g>
     </g>
    </g>
    <g id="xtick_15">
     <g id="line2d_19">
      <defs>
       <path d="
M0 0
L0 -2" id="mf0ff38ea95"/>
      </defs>
      <g>
       <use style="stroke:#000000;stroke-linecap:butt;stroke-width:0.5;" x="424.084527438" xlink:href="#mf0ff38ea95" y="16.276875"/>
      </g>
     </g>
    </g>
    <g id="xtick_16">
     <g id="line2d_20">
      <defs>
       <path d="
M0 0
L0 -2" id="mf0ff38ea95"/>
      </defs>
      <g>
       <use style="stroke:#000000;stroke-linecap:butt;stroke-width:0.5;" x="479.931758326" xlink:href="#mf0ff38ea95" y="16.276875"/>
      </g>
     </g>
    </g>
    <g id="xtick_17">
     <g id="line2d_21">
      <defs>
       <path d="
M0 0
L0 -2" id="mf0ff38ea95"/>
      </defs>
      <g>
       <use style="stroke:#000000;stroke-linecap:butt;stroke-width:0.5;" x="507.85537377" xlink:href="#mf0ff38ea95" y="16.276875"/>
      </g>
     </g>
    </g>
   </g>
   <g id="matplotlib.axis_2">
    <g id="ytick_1">
     <g id="line2d_22">
      <path d="
M42.6088 334.036
L557.426 334.036" style="fill:none;stroke:#000000;stroke-dasharray:1.000000,3.000000;stroke-dashoffset:0.0;stroke-linecap:butt;stroke-width:0.5;"/>
     </g>
     <g id="line2d_23">
      <defs>
       <path d="
M0 0
L4 0" id="mc91e532072"/>
      </defs>
      <g>
       <use style="stroke:#000000;stroke-linecap:butt;stroke-width:0.5;" x="32.60875" xlink:href="#mc91e532072" y="334.03564497"/>
      </g>
     </g>
     <g id="text_4">
      <!-- -4 -->
      <defs>
       <path d="
M4.89062 31.3906
L31.2031 31.3906
L31.2031 23.3906
L4.89062 23.3906
z
" id="BitstreamVeraSans-Roman-2d"/>
       <path d="
M37.7969 64.3125
L12.8906 25.3906
L37.7969 25.3906
z

M35.2031 72.9062
L47.6094 72.9062
L47.6094 25.3906
L58.0156 25.3906
L58.0156 17.1875
L47.6094 17.1875
L47.6094 0
L37.7969 0
L37.7969 17.1875
L4.89062 17.1875
L4.89062 26.7031
z
" id="BitstreamVeraSans-Roman-34"/>
      </defs>
      <g transform="translate(7.2 342.78439497)scale(0.24 -0.24)">
       <use xlink:href="#BitstreamVeraSans-Roman-2d"/>
       <use x="36.083984375" xlink:href="#BitstreamVeraSans-Roman-34"/>
      </g>
     </g>
    </g>
    <g id="ytick_2">
     <g id="line2d_24">
      <path d="
M42.6088 254.596
L557.426 254.596" style="fill:none;stroke:#000000;stroke-dasharray:1.000000,3.000000;stroke-dashoffset:0.0;stroke-linecap:butt;stroke-width:0.5;"/>
     </g>
     <g id="line2d_25">
      <defs>
       <path d="
M0 0
L4 0" id="mc91e532072"/>
      </defs>
      <g>
       <use style="stroke:#000000;stroke-linecap:butt;stroke-width:0.5;" x="32.60875" xlink:href="#mc91e532072" y="254.595952478"/>
      </g>
     </g>
     <g id="text_5">
      <!-- -3 -->
      <defs>
       <path d="
M40.5781 39.3125
Q47.6562 37.7969 51.625 33
Q55.6094 28.2188 55.6094 21.1875
Q55.6094 10.4062 48.1875 4.48438
Q40.7656 -1.42188 27.0938 -1.42188
Q22.5156 -1.42188 17.6562 -0.515625
Q12.7969 0.390625 7.625 2.20312
L7.625 11.7188
Q11.7188 9.32812 16.5938 8.10938
Q21.4844 6.89062 26.8125 6.89062
Q36.0781 6.89062 40.9375 10.5469
Q45.7969 14.2031 45.7969 21.1875
Q45.7969 27.6406 41.2812 31.2656
Q36.7656 34.9062 28.7188 34.9062
L20.2188 34.9062
L20.2188 43.0156
L29.1094 43.0156
Q36.375 43.0156 40.2344 45.9219
Q44.0938 48.8281 44.0938 54.2969
Q44.0938 59.9062 40.1094 62.9062
Q36.1406 65.9219 28.7188 65.9219
Q24.6562 65.9219 20.0156 65.0312
Q15.375 64.1562 9.8125 62.3125
L9.8125 71.0938
Q15.4375 72.6562 20.3438 73.4375
Q25.25 74.2188 29.5938 74.2188
Q40.8281 74.2188 47.3594 69.1094
Q53.9062 64.0156 53.9062 55.3281
Q53.9062 49.2656 50.4375 45.0938
Q46.9688 40.9219 40.5781 39.3125" id="BitstreamVeraSans-Roman-33"/>
      </defs>
      <g transform="translate(7.7775 263.331577478)scale(0.24 -0.24)">
       <use xlink:href="#BitstreamVeraSans-Roman-2d"/>
       <use x="36.083984375" xlink:href="#BitstreamVeraSans-Roman-33"/>
      </g>
     </g>
    </g>
    <g id="ytick_3">
     <g id="line2d_26">
      <path d="
M42.6088 175.156
L557.426 175.156" style="fill:none;stroke:#000000;stroke-dasharray:1.000000,3.000000;stroke-dashoffset:0.0;stroke-linecap:butt;stroke-width:0.5;"/>
     </g>
     <g id="line2d_27">
      <defs>
       <path d="
M0 0
L4 0" id="mc91e532072"/>
      </defs>
      <g>
       <use style="stroke:#000000;stroke-linecap:butt;stroke-width:0.5;" x="32.60875" xlink:href="#mc91e532072" y="175.156259985"/>
      </g>
     </g>
     <g id="text_6">
      <!-- -2 -->
      <defs>
       <path d="
M19.1875 8.29688
L53.6094 8.29688
L53.6094 0
L7.32812 0
L7.32812 8.29688
Q12.9375 14.1094 22.625 23.8906
Q32.3281 33.6875 34.8125 36.5312
Q39.5469 41.8438 41.4219 45.5312
Q43.3125 49.2188 43.3125 52.7812
Q43.3125 58.5938 39.2344 62.25
Q35.1562 65.9219 28.6094 65.9219
Q23.9688 65.9219 18.8125 64.3125
Q13.6719 62.7031 7.8125 59.4219
L7.8125 69.3906
Q13.7656 71.7812 18.9375 73
Q24.125 74.2188 28.4219 74.2188
Q39.75 74.2188 46.4844 68.5469
Q53.2188 62.8906 53.2188 53.4219
Q53.2188 48.9219 51.5312 44.8906
Q49.8594 40.875 45.4062 35.4062
Q44.1875 33.9844 37.6406 27.2188
Q31.1094 20.4531 19.1875 8.29688" id="BitstreamVeraSans-Roman-32"/>
      </defs>
      <g transform="translate(8.2575 184.062509985)scale(0.24 -0.24)">
       <use xlink:href="#BitstreamVeraSans-Roman-2d"/>
       <use x="36.083984375" xlink:href="#BitstreamVeraSans-Roman-32"/>
      </g>
     </g>
    </g>
    <g id="ytick_4">
     <g id="line2d_28">
      <path d="
M42.6088 95.7166
L557.426 95.7166" style="fill:none;stroke:#000000;stroke-dasharray:1.000000,3.000000;stroke-dashoffset:0.0;stroke-linecap:butt;stroke-width:0.5;"/>
     </g>
     <g id="line2d_29">
      <defs>
       <path d="
M0 0
L4 0" id="mc91e532072"/>
      </defs>
      <g>
       <use style="stroke:#000000;stroke-linecap:butt;stroke-width:0.5;" x="32.60875" xlink:href="#mc91e532072" y="95.7165674925"/>
      </g>
     </g>
     <g id="text_7">
      <!-- -1 -->
      <g transform="translate(8.07 104.465317493)scale(0.24 -0.24)">
       <use xlink:href="#BitstreamVeraSans-Roman-2d"/>
       <use x="36.083984375" xlink:href="#BitstreamVeraSans-Roman-31"/>
      </g>
     </g>
    </g>
    <g id="ytick_5">
     <g id="line2d_30">
      <path d="
M42.6088 16.2769
L557.426 16.2769" style="fill:none;stroke:#000000;stroke-dasharray:1.000000,3.000000;stroke-dashoffset:0.0;stroke-linecap:butt;stroke-width:0.5;"/>
     </g>
     <g id="line2d_31">
      <defs>
       <path d="
M0 0
L4 0" id="mc91e532072"/>
      </defs>
      <g>
       <use style="stroke:#000000;stroke-linecap:butt;stroke-width:0.5;" x="32.60875" xlink:href="#mc91e532072" y="16.276875"/>
      </g>
     </g>
     <g id="text_8">
      <!-- 0 -->
      <g transform="translate(16.515 25.0125)scale(0.24 -0.24)">
       <use xlink:href="#BitstreamVeraSans-Roman-30"/>
      </g>
     </g>
    </g>
    <g id="ytick_6">
     <g id="line2d_32">
      <defs>
       <path d="
M0 0
L2 0" id="m0789224b6b"/>
      </defs>
      <g>
       <use style="stroke:#000000;stroke-linecap:butt;stroke-width:0.5;" x="32.60875" xlink:href="#m0789224b6b" y="397.587398964"/>
      </g>
     </g>
    </g>
    <g id="ytick_7">
     <g id="line2d_33">
      <defs>
       <path d="
M0 0
L2 0" id="m0789224b6b"/>
      </defs>
      <g>
       <use style="stroke:#000000;stroke-linecap:butt;stroke-width:0.5;" x="32.60875" xlink:href="#m0789224b6b" y="381.699460466"/>
      </g>
     </g>
    </g>
    <g id="ytick_8">
     <g id="line2d_34">
      <defs>
       <path d="
M0 0
L2 0" id="m0789224b6b"/>
      </defs>
      <g>
       <use style="stroke:#000000;stroke-linecap:butt;stroke-width:0.5;" x="32.60875" xlink:href="#m0789224b6b" y="365.811521967"/>
      </g>
     </g>
    </g>
    <g id="ytick_9">
     <g id="line2d_35">
      <defs>
       <path d="
M0 0
L2 0" id="m0789224b6b"/>
      </defs>
      <g>
       <use style="stroke:#000000;stroke-linecap:butt;stroke-width:0.5;" x="32.60875" xlink:href="#m0789224b6b" y="349.923583469"/>
      </g>
     </g>
    </g>
    <g id="ytick_10">
     <g id="line2d_36">
      <defs>
       <path d="
M0 0
L2 0" id="m0789224b6b"/>
      </defs>
      <g>
       <use style="stroke:#000000;stroke-linecap:butt;stroke-width:0.5;" x="32.60875" xlink:href="#m0789224b6b" y="318.147706472"/>
      </g>
     </g>
    </g>
    <g id="ytick_11">
     <g id="line2d_37">
      <defs>
       <path d="
M0 0
L2 0" id="m0789224b6b"/>
      </defs>
      <g>
       <use style="stroke:#000000;stroke-linecap:butt;stroke-width:0.5;" x="32.60875" xlink:href="#m0789224b6b" y="302.259767973"/>
      </g>
     </g>
    </g>
    <g id="ytick_12">
     <g id="line2d_38">
      <defs>
       <path d="
M0 0
L2 0" id="m0789224b6b"/>
      </defs>
      <g>
       <use style="stroke:#000000;stroke-linecap:butt;stroke-width:0.5;" x="32.60875" xlink:href="#m0789224b6b" y="286.371829475"/>
      </g>
     </g>
    </g>
    <g id="ytick_13">
     <g id="line2d_39">
      <defs>
       <path d="
M0 0
L2 0" id="m0789224b6b"/>
      </defs>
      <g>
       <use style="stroke:#000000;stroke-linecap:butt;stroke-width:0.5;" x="32.60875" xlink:href="#m0789224b6b" y="270.483890976"/>
      </g>
     </g>
    </g>
    <g id="ytick_14">
     <g id="line2d_40">
      <defs>
       <path d="
M0 0
L2 0" id="m0789224b6b"/>
      </defs>
      <g>
       <use style="stroke:#000000;stroke-linecap:butt;stroke-width:0.5;" x="32.60875" xlink:href="#m0789224b6b" y="238.708013979"/>
      </g>
     </g>
    </g>
    <g id="ytick_15">
     <g id="line2d_41">
      <defs>
       <path d="
M0 0
L2 0" id="m0789224b6b"/>
      </defs>
      <g>
       <use style="stroke:#000000;stroke-linecap:butt;stroke-width:0.5;" x="32.60875" xlink:href="#m0789224b6b" y="222.820075481"/>
      </g>
     </g>
    </g>
    <g id="ytick_16">
     <g id="line2d_42">
      <defs>
       <path d="
M0 0
L2 0" id="m0789224b6b"/>
      </defs>
      <g>
       <use style="stroke:#000000;stroke-linecap:butt;stroke-width:0.5;" x="32.60875" xlink:href="#m0789224b6b" y="206.932136982"/>
      </g>
     </g>
    </g>
    <g id="ytick_17">
     <g id="line2d_43">
      <defs>
       <path d="
M0 0
L2 0" id="m0789224b6b"/>
      </defs>
      <g>
       <use style="stroke:#000000;stroke-linecap:butt;stroke-width:0.5;" x="32.60875" xlink:href="#m0789224b6b" y="191.044198484"/>
      </g>
     </g>
    </g>
    <g id="ytick_18">
     <g id="line2d_44">
      <defs>
       <path d="
M0 0
L2 0" id="m0789224b6b"/>
      </defs>
      <g>
       <use style="stroke:#000000;stroke-linecap:butt;stroke-width:0.5;" x="32.60875" xlink:href="#m0789224b6b" y="159.268321487"/>
      </g>
     </g>
    </g>
    <g id="ytick_19">
     <g id="line2d_45">
      <defs>
       <path d="
M0 0
L2 0" id="m0789224b6b"/>
      </defs>
      <g>
       <use style="stroke:#000000;stroke-linecap:butt;stroke-width:0.5;" x="32.60875" xlink:href="#m0789224b6b" y="143.380382988"/>
      </g>
     </g>
    </g>
    <g id="ytick_20">
     <g id="line2d_46">
      <defs>
       <path d="
M0 0
L2 0" id="m0789224b6b"/>
      </defs>
      <g>
       <use style="stroke:#000000;stroke-linecap:butt;stroke-width:0.5;" x="32.60875" xlink:href="#m0789224b6b" y="127.49244449"/>
      </g>
     </g>
    </g>
    <g id="ytick_21">
     <g id="line2d_47">
      <defs>
       <path d="
M0 0
L2 0" id="m0789224b6b"/>
      </defs>
      <g>
       <use style="stroke:#000000;stroke-linecap:butt;stroke-width:0.5;" x="32.60875" xlink:href="#m0789224b6b" y="111.604505991"/>
      </g>
     </g>
    </g>
    <g id="ytick_22">
     <g id="line2d_48">
      <defs>
       <path d="
M0 0
L2 0" id="m0789224b6b"/>
      </defs>
      <g>
       <use style="stroke:#000000;stroke-linecap:butt;stroke-width:0.5;" x="32.60875" xlink:href="#m0789224b6b" y="79.828628994"/>
      </g>
     </g>
    </g>
    <g id="ytick_23">
     <g id="line2d_49">
      <defs>
       <path d="
M0 0
L2 0" id="m0789224b6b"/>
      </defs>
      <g>
       <use style="stroke:#000000;stroke-linecap:butt;stroke-width:0.5;" x="32.60875" xlink:href="#m0789224b6b" y="63.9406904955"/>
      </g>
     </g>
    </g>
    <g id="ytick_24">
     <g id="line2d_50">
      <defs>
       <path d="
M0 0
L2 0" id="m0789224b6b"/>
      </defs>
      <g>
       <use style="stroke:#000000;stroke-linecap:butt;stroke-width:0.5;" x="32.60875" xlink:href="#m0789224b6b" y="48.052751997"/>
      </g>
     </g>
    </g>
    <g id="ytick_25">
     <g id="line2d_51">
      <defs>
       <path d="
M0 0
L2 0" id="m0789224b6b"/>
      </defs>
      <g>
       <use style="stroke:#000000;stroke-linecap:butt;stroke-width:0.5;" x="32.60875" xlink:href="#m0789224b6b" y="32.1648134985"/>
      </g>
     </g>
    </g>
   </g>
   <g id="patch_3">
    <path d="
M42.6088 16.2769
L557.426 16.2769" style="fill:none;stroke:#000000;stroke-width:0.8;"/>
   </g>
   <g id="patch_4">
    <path d="
M32.6088 412.239
L32.6088 8.51291" style="fill:none;stroke:#000000;stroke-width:0.8;"/>
   </g>
  </g>
 </g>
 <defs>
  <clipPath id="p10490cade4">
   <rect height="403.726153846" width="514.8175" x="42.60875" y="8.51291050296"/>
  </clipPath>
 </defs>
</svg>
