<?xml version="1.0" encoding="utf-8" standalone="no"?>
<!DOCTYPE svg PUBLIC "-//W3C//DTD SVG 1.1//EN"
  "http://www.w3.org/Graphics/SVG/1.1/DTD/svg11.dtd">
<!-- Created with matplotlib (http://matplotlib.sourceforge.net/) -->
<svg height="419pt" version="1.1" viewBox="0 0 564 419" width="564pt" xmlns="http://www.w3.org/2000/svg" xmlns:xlink="http://www.w3.org/1999/xlink">
 <defs>
  <style type="text/css">
*{stroke-linecap:square;stroke-linejoin:round;}
  </style>
 </defs>
 <g id="figure_1">
  <g id="patch_1">
   <path d="
M-4.44089e-16 419.439
L564.499 419.439
L564.499 0
L-4.44089e-16 0
z
" style="fill:#ffffff;"/>
  </g>
  <g id="axes_1">
   <g id="patch_2">
    <path d="
M64.7562 412.239
L557.299 412.239
L557.299 8.51291
L64.7562 8.51291
z
" style="fill:#ffffff;"/>
   </g>
   <g id="line2d_1">
    <path clip-path="url(#p8d84e77ebc)" d="
M74.2282 16.2769
L85.0604 16.2769
L85.0604 30.1152
L98.7073 30.1152
L98.7073 104.598
L107.696 104.598
L107.696 143.733
L119.771 143.733
L119.771 196.516
L124.234 196.516
L124.234 213.27
L131.401 213.27
L131.401 237.564
L134.372 237.564
L134.372 248.252
L139.477 248.252
L139.477 259.695
L145.669 259.695
L145.669 272.653
L147.451 272.653
L147.451 276.614
L152.178 276.614
L152.178 284.199
L154.92 284.199
L154.92 289.204
L156.193 289.204
L156.193 291.533
L158.569 291.533
L158.569 294.054
L161.779 294.054
L161.779 297.264
L164.644 297.264
L164.644 300.37
L165.534 300.37
L165.534 301.15
L168.041 301.15
L168.041 303.827
L169.59 303.827
L169.59 305.558
L170.332 305.558
L170.332 306.556
L172.442 306.556
L172.442 309.627
L173.762 309.627
L173.762 311.842
L175.626 311.842
L175.626 315.307
L177.926 315.307
L177.926 319.659
L179.005 319.659
L179.005 321.77
L179.529 321.77
L179.529 322.805
L180.547 322.805
L180.547 324.874
L181.042 324.874
L181.042 325.855
L182.005 325.855
L182.005 327.683
L185.125 327.683
L185.125 332.769
L185.953 332.769
L185.953 333.9
L187.15 333.9
L187.15 335.44
L187.537 335.44
L187.537 335.934
L189.393 335.934
L189.393 337.835
L189.749 337.835
L189.749 338.143
L190.79 338.143
L190.79 339.132
L191.792 339.132
L191.792 340.111
L192.44 340.111
L192.44 340.858
L193.383 340.858
L193.383 341.838
L194.294 341.838
L194.294 342.618
L194.591 342.618
L194.591 342.919
L196.027 342.919
L196.027 344.131
L196.305 344.131
L196.305 344.367
L196.854 344.367
L196.854 344.909
L197.123 344.909
L197.123 345.153
L198.688 345.153
L198.688 346.546
L200.165 346.546
L200.165 347.705
L200.64 347.705
L200.64 348.08
L200.875 348.08
L200.875 348.243
L201.337 348.243
L201.337 348.584
L202.017 348.584
L202.017 349.102
L202.239 349.102
L202.239 349.261
L203.325 349.261
L203.325 350.229
L203.956 350.229
L203.956 350.687
L204.573 350.687
L204.573 351.092
L205.176 351.092
L205.176 351.564
L205.373 351.564
L205.373 351.713
L205.959 351.713
L205.959 352.174
L206.342 352.174
L206.342 352.433
L206.531 352.433
L206.531 352.572
L207.459 352.572
L207.459 353.285
L208.706 353.285
L208.706 354.267
L209.051 354.267
L209.051 354.487
L209.223 354.487
L209.223 354.6
L209.562 354.6
L209.562 354.791
L210.717 354.791
L210.717 355.541
L211.196 355.541
L211.196 355.833
L211.978 355.833
L211.978 356.358
L212.436 356.454
L212.436 356.654
L212.886 356.654
L212.886 356.92
L213.475 356.92
L213.475 357.307
L213.908 357.307
L213.908 357.584
L214.334 357.584
L214.334 357.887
L214.615 357.887
L214.615 358.08
L215.03 358.08
L215.03 358.373
L215.574 358.373
L215.574 358.748
L215.842 358.748
L215.842 358.906
L216.369 358.906
L216.369 359.254
L217.015 359.254
L217.015 359.673
L217.769 359.77
L217.769 360.274
L218.26 360.367
L218.26 360.608
L218.503 360.608
L218.503 360.752
L218.862 360.752
L218.862 360.922
L219.334 360.922
L219.334 361.178
L219.567 361.178
L219.567 361.309
L219.912 361.378
L219.912 361.534
L220.59 361.534
L220.59 361.93
L221.033 361.93
L221.033 362.135
L221.683 362.222
L221.683 362.425
L221.896 362.425
L221.896 362.546
L222.213 362.546
L222.213 362.731
L222.836 362.731
L222.938 363.084
L223.842 363.084
L223.842 363.401
L224.137 363.401
L224.137 363.516
L224.621 363.516
L224.621 363.692
L225.19 363.79
L225.284 363.929
L226.022 364.03
L226.022 364.203
L226.294 364.203
L226.294 364.319
L226.652 364.405
L226.652 364.434
L227.18 364.541
L227.18 364.642
L227.953 364.749
L227.953 364.933
L228.373 364.933
L228.456 365.141
L228.869 365.222
L228.869 365.338
L229.194 365.436
L229.194 365.473
L229.675 365.473
L229.675 365.706
L230.069 365.781
L230.069 365.881
L230.38 365.881
L230.38 366.025
L230.764 366.025
L230.764 366.212
L231.067 366.212
L231.067 366.338
L231.441 366.338
L231.441 366.505
L231.736 366.505
L231.736 366.645
L231.956 366.645
L231.956 366.759
L232.174 366.759
L232.174 366.887
L232.604 366.966
L232.604 367.114
L232.817 367.114
L232.817 367.236
L233.237 367.323
L233.237 367.504
L233.855 367.592
L233.855 367.914
L234.192 367.914
L234.192 368.12
L234.592 368.12
L234.658 368.413
L234.985 368.413
L235.05 368.637
L235.564 368.734
L235.564 368.91
L236.006 368.91
L236.006 369.147
L236.318 369.247
L236.318 369.307
L236.748 369.307
L236.748 369.507
L237.051 369.597
L237.051 369.668
L237.646 369.668
L237.646 370.027
L237.997 370.1
L237.997 370.251
L238.287 370.251
L238.287 370.418
L238.516 370.418
L238.516 370.559
L238.799 370.627
L238.799 370.729
L239.358 370.824
L239.468 371.107
L239.796 371.196
L239.796 371.29
L240.013 371.29
L240.013 371.42
L240.493 371.527
L240.599 371.811
L240.809 371.898
L240.809 371.925
L241.07 371.925
L241.121 372.104
L241.532 372.182
L241.583 372.327
L241.886 372.426
L241.886 372.442
L242.483 372.494
L242.581 372.694
L242.873 372.764
L242.873 372.843
L243.21 372.918
L243.21 373.025
L243.496 373.107
L243.496 373.195
L244.011 373.195
L244.058 373.503
L244.288 373.503
L244.288 373.635
L244.699 373.73
L244.699 373.848
L244.969 373.925
L244.969 374
L245.413 374.105
L245.501 374.293
L245.763 374.355
L245.806 374.431
L246.194 374.485
L246.194 374.593
L246.786 374.676
L246.828 374.845
L247.202 374.947
L247.284 375.026
L247.651 375.081
L247.691 375.192
L248.488 375.237
L248.488 375.497
L248.878 375.587
L248.878 375.647
L249.224 375.647
L249.224 375.776
L249.678 375.849
L249.753 375.971
L250.125 376.04
L250.236 376.12
L250.746 376.199
L250.854 376.282
L251.281 376.369
L251.281 376.461
L251.633 376.563
L251.633 376.627
L251.945 376.732
L252.014 376.819
L252.254 376.873
L252.322 376.983
L252.76 377.089
L252.827 377.253
L253.027 377.336
L253.126 377.447
L253.421 377.54
L253.421 377.664
L253.746 377.664
L253.842 377.996
L254.32 378.069
L254.414 378.431
L254.758 378.537
L254.789 378.673
L255.067 378.768
L255.159 378.903
L255.342 378.963
L255.342 379.024
L255.614 379.024
L255.704 379.259
L255.972 379.319
L255.972 379.434
L256.296 379.531
L256.296 379.642
L256.646 379.711
L256.646 379.846
L256.847 379.846
L256.933 380.002
L257.246 380.089
L257.246 380.165
L257.5 380.257
L257.584 380.349
L257.834 380.349
L257.862 380.509
L258.082 380.509
L258.109 380.635
L258.409 380.635
L258.49 380.82
L258.758 380.926
L258.812 380.956
L259.13 381.025
L259.156 381.093
L259.471 381.159
L259.471 381.242
L259.832 381.334
L259.935 381.432
L260.442 381.535
L260.542 381.635
L261.062 381.734
L261.062 381.796
L261.572 381.894
L261.572 381.916
L262.12 382.016
L262.19 382.102
L262.61 382.192
L262.633 382.239
L263.046 382.339
L263.092 382.367
L263.631 382.474
L263.631 382.489
L264.161 382.594
L264.161 382.609
L264.765 382.685
L264.765 382.766
L265.147 382.864
L265.252 382.914
L265.688 382.996
L265.709 383.031
L266.26 383.131
L266.36 383.19
L266.779 383.285
L266.858 383.323
L267.27 383.417
L267.309 383.458
L267.732 383.569
L267.789 383.608
L268.243 383.718
L268.337 383.755
L268.854 383.858
L268.946 383.906
L269.344 384.015
L269.344 384.021
L269.773 384.131
L269.808 384.166
L270.142 384.253
L270.194 384.309
L270.557 384.377
L270.66 384.474
L271.051 384.582
L271.068 384.597
L271.47 384.692
L271.569 384.735
L272.142 384.82
L272.207 384.894
L272.861 384.997
L272.877 385.021
L273.653 385.123
L273.715 385.154
L274.527 385.25
L274.601 385.276
L275.185 385.383
L275.272 385.408
L275.87 385.506
L275.94 385.53
L277.668 385.64
L277.773 385.646
L281.547 385.75
L281.615 385.77
L282.233 385.877
L282.332 385.923
L282.728 386.014
L282.815 386.062
L283.181 386.16
L283.267 386.217
L283.659 386.325
L283.712 386.375
L284.056 386.477
L284.149 386.517
L284.61 386.624
L284.712 386.689
L285.213 386.793
L285.302 386.863
L285.685 386.971
L285.714 386.989
L286.073 387.066
L286.149 387.128
L286.672 387.234
L286.756 387.266
L287.221 387.365
L287.313 387.402
L287.777 387.507
L287.849 387.55
L288.286 387.653
L288.357 387.679
L288.751 387.785
L288.838 387.833
L289.199 387.942
L289.302 388.004
L289.649 388.106
L289.758 388.154
L290.182 388.257
L290.223 388.276
L290.664 388.379
L290.745 388.42
L291.217 388.529
L291.32 388.555
L291.79 388.658
L291.898 388.698
L292.312 388.805
L292.404 388.839
L292.81 388.946
L292.907 389.006
L293.299 389.103
L293.394 389.167
L293.764 389.26
L293.843 389.304
L294.229 389.411
L294.299 389.442
L294.678 389.547
L294.783 389.606
L295.189 389.713
L295.271 389.762
L295.636 389.863
L295.683 389.892
L296.076 390.001
L296.175 390.042
L296.529 390.148
L296.607 390.184
L296.993 390.29
L297.076 390.326
L297.43 390.408
L297.512 390.467
L297.866 390.57
L297.977 390.617
L298.363 390.72
L298.472 390.776
L298.808 390.878
L298.868 390.909
L299.223 391.012
L299.328 391.072
L299.654 391.172
L299.764 391.218
L300.153 391.328
L300.226 391.358
L300.642 391.447
L300.742 391.501
L301.139 391.607
L301.237 391.659
L301.519 391.769
L301.611 391.812
L301.931 391.921
L302.032 391.984
L302.358 392.095
L302.452 392.143
L302.793 392.243
L302.901 392.295
L303.298 392.397
L303.403 392.446
L303.778 392.549
L303.822 392.572
L304.249 392.682
L304.322 392.712
L304.732 392.822
L304.827 392.847
L305.323 392.956
L305.426 392.987
L305.91 393.088
L306.006 393.124
L306.57 393.234
L306.664 393.252
L307.457 393.356
L307.561 393.378
L308.449 393.484
L308.557 393.509
L309.466 393.62
L309.55 393.636
L310.235 393.747
L310.336 393.768
L310.912 393.878
L310.961 393.89
L311.553 394.001
L311.656 394.018
L312.571 394.129
L312.656 394.144
L313.496 394.251
L313.595 394.274
L314.629 394.384
L314.738 394.399
L316.398 394.506
L316.503 394.518
L317.659 394.629
L317.765 394.648
L318.372 394.755
L318.478 394.782
L319.111 394.891
L319.214 394.909
L319.906 395.019
L320.008 395.037
L320.714 395.146
L320.825 395.166
L321.665 395.274
L321.771 395.295
L322.609 395.405
L322.702 395.419
L323.633 395.53
L323.729 395.545
L324.843 395.657
L324.948 395.673
L326.013 395.784
L326.088 395.794
L326.978 395.899
L327.082 395.937
L327.66 396.036
L327.753 396.077
L328.251 396.169
L328.346 396.211
L328.936 396.318
L329.035 396.349
L329.923 396.457
L330.018 396.491
L330.73 396.592
L330.817 396.623
L331.496 396.725
L331.594 396.752
L332.975 396.857
L332.975 396.866
L334.056 396.97
L334.156 396.991
L336.035 397.098
L336.128 397.108
L337.596 397.214
L337.693 397.228
L338.878 397.332
L338.988 397.35
L346.357 397.46
L346.456 397.469
L348.626 397.574
L348.718 397.59
L349.903 397.7
L349.999 397.729
L350.784 397.84
L350.884 397.878
L351.473 397.985
L351.574 398.027
L352.163 398.127
L352.272 398.165
L352.951 398.267
L353.061 398.311
L353.639 398.42
L353.739 398.461
L354.331 398.558
L354.429 398.595
L355.121 398.703
L355.217 398.742
L356.099 398.848
L356.202 398.869
L357.184 398.979
L357.279 399.005
L358.362 399.113
L358.465 399.139
L360.135 399.25
L360.233 399.26
L361.814 399.362
L361.911 399.381
L363.089 399.485
L363.188 399.509
L364.466 399.62
L364.564 399.636
L366.238 399.743
L366.335 399.759
L367.516 399.866
L367.618 399.886
L368.6 399.987
L368.699 400.008
L369.78 400.117
L369.883 400.143
L370.667 400.253
L370.763 400.281
L371.455 400.377
L371.551 400.408
L372.339 400.519
L372.437 400.552
L373.423 400.661
L373.521 400.685
L374.504 400.789
L374.604 400.815
L375.685 400.923
L375.784 400.936
L377.26 401.044
L377.359 401.067
L378.147 401.166
L378.244 401.195
L379.327 401.303
L379.425 401.32
L381.59 401.428
L381.691 401.441
L386.12 401.331
L386.217 401.322
L401.964 401.429
L402.062 401.442
L404.523 401.553
L404.622 401.56
L406.295 401.664
L406.393 401.684
L407.377 401.789
L407.475 401.81
L408.854 401.918
L408.952 401.934
L410.625 402.043
L410.724 402.055
L412.792 402.161
L412.889 402.173
L414.267 402.275
L414.365 402.297
L415.448 402.4
L415.546 402.418
L416.924 402.527
L417.023 402.546
L418.892 402.654
L418.991 402.663
L420.664 402.773
L420.763 402.786
L424.109 402.897
L424.207 402.904
L426.766 403.015
L426.865 403.021
L429.227 403.13
L429.325 403.134
L439.069 403.243
L439.168 403.254
L441.038 403.36
L441.136 403.37
L443.794 403.48
L443.892 403.488
L448.223 403.599
L448.321 403.607
L456.785 403.502
L456.884 403.484
L460.427 403.374
L460.525 403.369
L467.317 403.48
L467.415 403.496
L469.285 403.605
L469.384 403.616
L471.45 403.723
L471.549 403.734
L478.045 403.844
L478.143 403.853
L480.407 403.964
L480.505 403.976
L482.867 404.086
L482.966 404.097
L487.789 404.208
L487.887 404.211
L491.135 404.32
L491.233 404.331
L495.17 404.441
L495.269 404.447
L504.028 404.339
L504.127 404.326
L506.194 404.217
L506.292 404.209
L510.328 404.098
L510.328 404.097
L510.426 404.097
L526.469 404.203
L526.567 404.212
L530.8 404.322
L530.898 404.327
L547.827 404.373
L547.827 404.374" style="fill:none;stroke:#0000ff;stroke-width:5.0;"/>
   </g>
   <g id="matplotlib.axis_1">
    <g id="xtick_1">
     <g id="line2d_2">
      <path d="
M189.288 412.239
L189.288 8.51291" style="fill:none;stroke:#000000;stroke-dasharray:1.000000,3.000000;stroke-dashoffset:0.0;stroke-linecap:butt;stroke-width:0.5;"/>
     </g>
     <g id="line2d_3">
      <defs>
       <path d="
M0 0
L0 -4" id="m3fbe6c24f1"/>
      </defs>
      <g>
       <use style="stroke:#000000;stroke-linecap:butt;stroke-width:0.5;" x="189.287616689" xlink:href="#m3fbe6c24f1" y="16.276875"/>
      </g>
     </g>
     <g id="text_1">
      <!-- 5 -->
      <defs>
       <path d="
M10.7969 72.9062
L49.5156 72.9062
L49.5156 64.5938
L19.8281 64.5938
L19.8281 46.7344
Q21.9688 47.4688 24.1094 47.8281
Q26.2656 48.1875 28.4219 48.1875
Q40.625 48.1875 47.75 41.5
Q54.8906 34.8125 54.8906 23.3906
Q54.8906 11.625 47.5625 5.09375
Q40.2344 -1.42188 26.9062 -1.42188
Q22.3125 -1.42188 17.5469 -0.640625
Q12.7969 0.140625 7.71875 1.70312
L7.71875 11.625
Q12.1094 9.23438 16.7969 8.0625
Q21.4844 6.89062 26.7031 6.89062
Q35.1562 6.89062 40.0781 11.3281
Q45.0156 15.7656 45.0156 23.3906
Q45.0156 31 40.0781 35.4375
Q35.1562 39.8906 26.7031 39.8906
Q22.75 39.8906 18.8125 39.0156
Q14.8906 38.1406 10.7969 36.2812
z
" id="BitstreamVeraSans-Roman-35"/>
      </defs>
      <g transform="translate(183.626991689 37.774375)scale(0.24 -0.24)">
       <use xlink:href="#BitstreamVeraSans-Roman-35"/>
      </g>
     </g>
    </g>
    <g id="xtick_2">
     <g id="line2d_4">
      <path d="
M322.865 412.239
L322.865 8.51291" style="fill:none;stroke:#000000;stroke-dasharray:1.000000,3.000000;stroke-dashoffset:0.0;stroke-linecap:butt;stroke-width:0.5;"/>
     </g>
     <g id="line2d_5">
      <defs>
       <path d="
M0 0
L0 -4" id="m3fbe6c24f1"/>
      </defs>
      <g>
       <use style="stroke:#000000;stroke-linecap:butt;stroke-width:0.5;" x="322.864732462" xlink:href="#m3fbe6c24f1" y="16.276875"/>
      </g>
     </g>
     <g id="text_2">
      <!-- 10 -->
      <defs>
       <path d="
M31.7812 66.4062
Q24.1719 66.4062 20.3281 58.9062
Q16.5 51.4219 16.5 36.375
Q16.5 21.3906 20.3281 13.8906
Q24.1719 6.39062 31.7812 6.39062
Q39.4531 6.39062 43.2812 13.8906
Q47.125 21.3906 47.125 36.375
Q47.125 51.4219 43.2812 58.9062
Q39.4531 66.4062 31.7812 66.4062
M31.7812 74.2188
Q44.0469 74.2188 50.5156 64.5156
Q56.9844 54.8281 56.9844 36.375
Q56.9844 17.9688 50.5156 8.26562
Q44.0469 -1.42188 31.7812 -1.42188
Q19.5312 -1.42188 13.0625 8.26562
Q6.59375 17.9688 6.59375 36.375
Q6.59375 54.8281 13.0625 64.5156
Q19.5312 74.2188 31.7812 74.2188" id="BitstreamVeraSans-Roman-30"/>
       <path d="
M12.4062 8.29688
L28.5156 8.29688
L28.5156 63.9219
L10.9844 60.4062
L10.9844 69.3906
L28.4219 72.9062
L38.2812 72.9062
L38.2812 8.29688
L54.3906 8.29688
L54.3906 0
L12.4062 0
z
" id="BitstreamVeraSans-Roman-31"/>
      </defs>
      <g transform="translate(309.709732462 38.089375)scale(0.24 -0.24)">
       <use xlink:href="#BitstreamVeraSans-Roman-31"/>
       <use x="63.623046875" xlink:href="#BitstreamVeraSans-Roman-30"/>
      </g>
     </g>
    </g>
    <g id="xtick_3">
     <g id="line2d_6">
      <path d="
M456.442 412.239
L456.442 8.51291" style="fill:none;stroke:#000000;stroke-dasharray:1.000000,3.000000;stroke-dashoffset:0.0;stroke-linecap:butt;stroke-width:0.5;"/>
     </g>
     <g id="line2d_7">
      <defs>
       <path d="
M0 0
L0 -4" id="m3fbe6c24f1"/>
      </defs>
      <g>
       <use style="stroke:#000000;stroke-linecap:butt;stroke-width:0.5;" x="456.441848234" xlink:href="#m3fbe6c24f1" y="16.276875"/>
      </g>
     </g>
     <g id="text_3">
      <!-- 15 -->
      <g transform="translate(443.538098234 37.774375)scale(0.24 -0.24)">
       <use xlink:href="#BitstreamVeraSans-Roman-31"/>
       <use x="63.623046875" xlink:href="#BitstreamVeraSans-Roman-35"/>
      </g>
     </g>
    </g>
    <g id="xtick_4">
     <g id="line2d_8">
      <defs>
       <path d="
M0 0
L0 -2" id="mf0ff38ea95"/>
      </defs>
      <g>
       <use style="stroke:#000000;stroke-linecap:butt;stroke-width:0.5;" x="82.4259240713" xlink:href="#mf0ff38ea95" y="16.276875"/>
      </g>
     </g>
    </g>
    <g id="xtick_5">
     <g id="line2d_9">
      <defs>
       <path d="
M0 0
L0 -2" id="mf0ff38ea95"/>
      </defs>
      <g>
       <use style="stroke:#000000;stroke-linecap:butt;stroke-width:0.5;" x="109.141347226" xlink:href="#mf0ff38ea95" y="16.276875"/>
      </g>
     </g>
    </g>
    <g id="xtick_6">
     <g id="line2d_10">
      <defs>
       <path d="
M0 0
L0 -2" id="mf0ff38ea95"/>
      </defs>
      <g>
       <use style="stroke:#000000;stroke-linecap:butt;stroke-width:0.5;" x="135.85677038" xlink:href="#mf0ff38ea95" y="16.276875"/>
      </g>
     </g>
    </g>
    <g id="xtick_7">
     <g id="line2d_11">
      <defs>
       <path d="
M0 0
L0 -2" id="mf0ff38ea95"/>
      </defs>
      <g>
       <use style="stroke:#000000;stroke-linecap:butt;stroke-width:0.5;" x="162.572193535" xlink:href="#mf0ff38ea95" y="16.276875"/>
      </g>
     </g>
    </g>
    <g id="xtick_8">
     <g id="line2d_12">
      <defs>
       <path d="
M0 0
L0 -2" id="mf0ff38ea95"/>
      </defs>
      <g>
       <use style="stroke:#000000;stroke-linecap:butt;stroke-width:0.5;" x="216.003039844" xlink:href="#mf0ff38ea95" y="16.276875"/>
      </g>
     </g>
    </g>
    <g id="xtick_9">
     <g id="line2d_13">
      <defs>
       <path d="
M0 0
L0 -2" id="mf0ff38ea95"/>
      </defs>
      <g>
       <use style="stroke:#000000;stroke-linecap:butt;stroke-width:0.5;" x="242.718462998" xlink:href="#mf0ff38ea95" y="16.276875"/>
      </g>
     </g>
    </g>
    <g id="xtick_10">
     <g id="line2d_14">
      <defs>
       <path d="
M0 0
L0 -2" id="mf0ff38ea95"/>
      </defs>
      <g>
       <use style="stroke:#000000;stroke-linecap:butt;stroke-width:0.5;" x="269.433886153" xlink:href="#mf0ff38ea95" y="16.276875"/>
      </g>
     </g>
    </g>
    <g id="xtick_11">
     <g id="line2d_15">
      <defs>
       <path d="
M0 0
L0 -2" id="mf0ff38ea95"/>
      </defs>
      <g>
       <use style="stroke:#000000;stroke-linecap:butt;stroke-width:0.5;" x="296.149309307" xlink:href="#mf0ff38ea95" y="16.276875"/>
      </g>
     </g>
    </g>
    <g id="xtick_12">
     <g id="line2d_16">
      <defs>
       <path d="
M0 0
L0 -2" id="mf0ff38ea95"/>
      </defs>
      <g>
       <use style="stroke:#000000;stroke-linecap:butt;stroke-width:0.5;" x="349.580155616" xlink:href="#mf0ff38ea95" y="16.276875"/>
      </g>
     </g>
    </g>
    <g id="xtick_13">
     <g id="line2d_17">
      <defs>
       <path d="
M0 0
L0 -2" id="mf0ff38ea95"/>
      </defs>
      <g>
       <use style="stroke:#000000;stroke-linecap:butt;stroke-width:0.5;" x="376.29557877" xlink:href="#mf0ff38ea95" y="16.276875"/>
      </g>
     </g>
    </g>
    <g id="xtick_14">
     <g id="line2d_18">
      <defs>
       <path d="
M0 0
L0 -2" id="mf0ff38ea95"/>
      </defs>
      <g>
       <use style="stroke:#000000;stroke-linecap:butt;stroke-width:0.5;" x="403.011001925" xlink:href="#mf0ff38ea95" y="16.276875"/>
      </g>
     </g>
    </g>
    <g id="xtick_15">
     <g id="line2d_19">
      <defs>
       <path d="
M0 0
L0 -2" id="mf0ff38ea95"/>
      </defs>
      <g>
       <use style="stroke:#000000;stroke-linecap:butt;stroke-width:0.5;" x="429.726425079" xlink:href="#mf0ff38ea95" y="16.276875"/>
      </g>
     </g>
    </g>
    <g id="xtick_16">
     <g id="line2d_20">
      <defs>
       <path d="
M0 0
L0 -2" id="mf0ff38ea95"/>
      </defs>
      <g>
       <use style="stroke:#000000;stroke-linecap:butt;stroke-width:0.5;" x="483.157271388" xlink:href="#mf0ff38ea95" y="16.276875"/>
      </g>
     </g>
    </g>
    <g id="xtick_17">
     <g id="line2d_21">
      <defs>
       <path d="
M0 0
L0 -2" id="mf0ff38ea95"/>
      </defs>
      <g>
       <use style="stroke:#000000;stroke-linecap:butt;stroke-width:0.5;" x="509.872694543" xlink:href="#mf0ff38ea95" y="16.276875"/>
      </g>
     </g>
    </g>
   </g>
   <g id="matplotlib.axis_2">
    <g id="ytick_1">
     <g id="line2d_22">
      <path d="
M64.7562 366.096
L557.299 366.096" style="fill:none;stroke:#000000;stroke-dasharray:1.000000,3.000000;stroke-dashoffset:0.0;stroke-linecap:butt;stroke-width:0.5;"/>
     </g>
     <g id="line2d_23">
      <defs>
       <path d="
M0 0
L4 0" id="mc91e532072"/>
      </defs>
      <g>
       <use style="stroke:#000000;stroke-linecap:butt;stroke-width:0.5;" x="54.75625" xlink:href="#mc91e532072" y="366.096447125"/>
      </g>
     </g>
     <g id="text_4">
      <!-- -1.5 -->
      <defs>
       <path d="
M10.6875 12.4062
L21 12.4062
L21 0
L10.6875 0
z
" id="BitstreamVeraSans-Roman-2e"/>
       <path d="
M4.89062 31.3906
L31.2031 31.3906
L31.2031 23.3906
L4.89062 23.3906
z
" id="BitstreamVeraSans-Roman-2d"/>
      </defs>
      <g transform="translate(7.2 374.674572125)scale(0.24 -0.24)">
       <use xlink:href="#BitstreamVeraSans-Roman-2d"/>
       <use x="36.083984375" xlink:href="#BitstreamVeraSans-Roman-31"/>
       <use x="99.70703125" xlink:href="#BitstreamVeraSans-Roman-2e"/>
       <use x="131.494140625" xlink:href="#BitstreamVeraSans-Roman-35"/>
      </g>
     </g>
    </g>
    <g id="ytick_2">
     <g id="line2d_24">
      <path d="
M64.7562 249.49
L557.299 249.49" style="fill:none;stroke:#000000;stroke-dasharray:1.000000,3.000000;stroke-dashoffset:0.0;stroke-linecap:butt;stroke-width:0.5;"/>
     </g>
     <g id="line2d_25">
      <defs>
       <path d="
M0 0
L4 0" id="mc91e532072"/>
      </defs>
      <g>
       <use style="stroke:#000000;stroke-linecap:butt;stroke-width:0.5;" x="54.75625" xlink:href="#mc91e532072" y="249.489923084"/>
      </g>
     </g>
     <g id="text_5">
      <!-- -1 -->
      <g transform="translate(30.2175 258.238673084)scale(0.24 -0.24)">
       <use xlink:href="#BitstreamVeraSans-Roman-2d"/>
       <use x="36.083984375" xlink:href="#BitstreamVeraSans-Roman-31"/>
      </g>
     </g>
    </g>
    <g id="ytick_3">
     <g id="line2d_26">
      <path d="
M64.7562 132.883
L557.299 132.883" style="fill:none;stroke:#000000;stroke-dasharray:1.000000,3.000000;stroke-dashoffset:0.0;stroke-linecap:butt;stroke-width:0.5;"/>
     </g>
     <g id="line2d_27">
      <defs>
       <path d="
M0 0
L4 0" id="mc91e532072"/>
      </defs>
      <g>
       <use style="stroke:#000000;stroke-linecap:butt;stroke-width:0.5;" x="54.75625" xlink:href="#mc91e532072" y="132.883399042"/>
      </g>
     </g>
     <g id="text_6">
      <!-- -0.5 -->
      <g transform="translate(7.2 141.619024042)scale(0.24 -0.24)">
       <use xlink:href="#BitstreamVeraSans-Roman-2d"/>
       <use x="36.083984375" xlink:href="#BitstreamVeraSans-Roman-30"/>
       <use x="99.70703125" xlink:href="#BitstreamVeraSans-Roman-2e"/>
       <use x="131.494140625" xlink:href="#BitstreamVeraSans-Roman-35"/>
      </g>
     </g>
    </g>
    <g id="ytick_4">
     <g id="line2d_28">
      <path d="
M64.7562 16.2769
L557.299 16.2769" style="fill:none;stroke:#000000;stroke-dasharray:1.000000,3.000000;stroke-dashoffset:0.0;stroke-linecap:butt;stroke-width:0.5;"/>
     </g>
     <g id="line2d_29">
      <defs>
       <path d="
M0 0
L4 0" id="mc91e532072"/>
      </defs>
      <g>
       <use style="stroke:#000000;stroke-linecap:butt;stroke-width:0.5;" x="54.75625" xlink:href="#mc91e532072" y="16.276875"/>
      </g>
     </g>
     <g id="text_7">
      <!-- 0 -->
      <g transform="translate(38.6625 25.0125)scale(0.24 -0.24)">
       <use xlink:href="#BitstreamVeraSans-Roman-30"/>
      </g>
     </g>
    </g>
    <g id="ytick_5">
     <g id="line2d_30">
      <defs>
       <path d="
M0 0
L2 0" id="m0789224b6b"/>
      </defs>
      <g>
       <use style="stroke:#000000;stroke-linecap:butt;stroke-width:0.5;" x="54.75625" xlink:href="#m0789224b6b" y="389.417751934"/>
      </g>
     </g>
    </g>
    <g id="ytick_6">
     <g id="line2d_31">
      <defs>
       <path d="
M0 0
L2 0" id="m0789224b6b"/>
      </defs>
      <g>
       <use style="stroke:#000000;stroke-linecap:butt;stroke-width:0.5;" x="54.75625" xlink:href="#m0789224b6b" y="342.775142317"/>
      </g>
     </g>
    </g>
    <g id="ytick_7">
     <g id="line2d_32">
      <defs>
       <path d="
M0 0
L2 0" id="m0789224b6b"/>
      </defs>
      <g>
       <use style="stroke:#000000;stroke-linecap:butt;stroke-width:0.5;" x="54.75625" xlink:href="#m0789224b6b" y="319.453837509"/>
      </g>
     </g>
    </g>
    <g id="ytick_8">
     <g id="line2d_33">
      <defs>
       <path d="
M0 0
L2 0" id="m0789224b6b"/>
      </defs>
      <g>
       <use style="stroke:#000000;stroke-linecap:butt;stroke-width:0.5;" x="54.75625" xlink:href="#m0789224b6b" y="296.1325327"/>
      </g>
     </g>
    </g>
    <g id="ytick_9">
     <g id="line2d_34">
      <defs>
       <path d="
M0 0
L2 0" id="m0789224b6b"/>
      </defs>
      <g>
       <use style="stroke:#000000;stroke-linecap:butt;stroke-width:0.5;" x="54.75625" xlink:href="#m0789224b6b" y="272.811227892"/>
      </g>
     </g>
    </g>
    <g id="ytick_10">
     <g id="line2d_35">
      <defs>
       <path d="
M0 0
L2 0" id="m0789224b6b"/>
      </defs>
      <g>
       <use style="stroke:#000000;stroke-linecap:butt;stroke-width:0.5;" x="54.75625" xlink:href="#m0789224b6b" y="226.168618275"/>
      </g>
     </g>
    </g>
    <g id="ytick_11">
     <g id="line2d_36">
      <defs>
       <path d="
M0 0
L2 0" id="m0789224b6b"/>
      </defs>
      <g>
       <use style="stroke:#000000;stroke-linecap:butt;stroke-width:0.5;" x="54.75625" xlink:href="#m0789224b6b" y="202.847313467"/>
      </g>
     </g>
    </g>
    <g id="ytick_12">
     <g id="line2d_37">
      <defs>
       <path d="
M0 0
L2 0" id="m0789224b6b"/>
      </defs>
      <g>
       <use style="stroke:#000000;stroke-linecap:butt;stroke-width:0.5;" x="54.75625" xlink:href="#m0789224b6b" y="179.526008659"/>
      </g>
     </g>
    </g>
    <g id="ytick_13">
     <g id="line2d_38">
      <defs>
       <path d="
M0 0
L2 0" id="m0789224b6b"/>
      </defs>
      <g>
       <use style="stroke:#000000;stroke-linecap:butt;stroke-width:0.5;" x="54.75625" xlink:href="#m0789224b6b" y="156.20470385"/>
      </g>
     </g>
    </g>
    <g id="ytick_14">
     <g id="line2d_39">
      <defs>
       <path d="
M0 0
L2 0" id="m0789224b6b"/>
      </defs>
      <g>
       <use style="stroke:#000000;stroke-linecap:butt;stroke-width:0.5;" x="54.75625" xlink:href="#m0789224b6b" y="132.883399042"/>
      </g>
     </g>
    </g>
    <g id="ytick_15">
     <g id="line2d_40">
      <defs>
       <path d="
M0 0
L2 0" id="m0789224b6b"/>
      </defs>
      <g>
       <use style="stroke:#000000;stroke-linecap:butt;stroke-width:0.5;" x="54.75625" xlink:href="#m0789224b6b" y="109.562094233"/>
      </g>
     </g>
    </g>
    <g id="ytick_16">
     <g id="line2d_41">
      <defs>
       <path d="
M0 0
L2 0" id="m0789224b6b"/>
      </defs>
      <g>
       <use style="stroke:#000000;stroke-linecap:butt;stroke-width:0.5;" x="54.75625" xlink:href="#m0789224b6b" y="86.2407894251"/>
      </g>
     </g>
    </g>
    <g id="ytick_17">
     <g id="line2d_42">
      <defs>
       <path d="
M0 0
L2 0" id="m0789224b6b"/>
      </defs>
      <g>
       <use style="stroke:#000000;stroke-linecap:butt;stroke-width:0.5;" x="54.75625" xlink:href="#m0789224b6b" y="62.9194846167"/>
      </g>
     </g>
    </g>
    <g id="ytick_18">
     <g id="line2d_43">
      <defs>
       <path d="
M0 0
L2 0" id="m0789224b6b"/>
      </defs>
      <g>
       <use style="stroke:#000000;stroke-linecap:butt;stroke-width:0.5;" x="54.75625" xlink:href="#m0789224b6b" y="39.5981798084"/>
      </g>
     </g>
    </g>
   </g>
   <g id="patch_3">
    <path d="
M64.7562 16.2769
L557.299 16.2769" style="fill:none;stroke:#000000;stroke-width:0.8;"/>
   </g>
   <g id="patch_4">
    <path d="
M54.7562 412.239
L54.7562 8.51291" style="fill:none;stroke:#000000;stroke-width:0.8;"/>
   </g>
  </g>
 </g>
 <defs>
  <clipPath id="p8d84e77ebc">
   <rect height="403.726153846" width="492.5425" x="64.75625" y="8.51291050296"/>
  </clipPath>
 </defs>
</svg>
