<?xml version="1.0" encoding="utf-8" standalone="no"?>
<!DOCTYPE svg PUBLIC "-//W3C//DTD SVG 1.1//EN"
  "http://www.w3.org/Graphics/SVG/1.1/DTD/svg11.dtd">
<!-- Created with matplotlib (http://matplotlib.sourceforge.net/) -->
<svg height="420pt" version="1.1" viewBox="0 0 562 420" width="562pt" xmlns="http://www.w3.org/2000/svg" xmlns:xlink="http://www.w3.org/1999/xlink">
 <defs>
  <style type="text/css">
*{stroke-linecap:square;stroke-linejoin:round;}
  </style>
 </defs>
 <g id="figure_1">
  <g id="patch_1">
   <path d="
M2.22045e-16 420.48
L562.536 420.48
L562.536 0
L2.22045e-16 0
z
" style="fill:#ffffff;"/>
  </g>
  <g id="axes_1">
   <g id="patch_2">
    <path d="
M9.6259 413.28
L555.336 413.28
L555.336 7.2
L9.6259 7.2
z
" style="fill:#ffffff;"/>
   </g>
   <g id="line2d_1">
    <path clip-path="url(#pbf9a93ed35)" d="
M20.1203 15.0092
L20.1692 15.0092
L20.1692 405.471
L20.2274 391.232
L20.2895 391.232
L20.3526 376.29
L20.4184 376.29
L20.4863 368.678
L20.5532 368.678
L20.6221 359.99
L20.6925 359.99
L20.7631 356.292
L20.8345 356.292
L20.906 355.665
L20.9786 355.665
L21.0522 355.204
L21.125 355.204
L21.199 354.182
L21.2731 354.182
L21.3476 351.592
L21.4224 351.592
L21.4986 349.552
L21.5731 349.552
L21.6497 348.54
L21.7267 348.54
L21.802 347.72
L21.8785 347.72
L21.9556 347.503
L22.0332 347.503
L22.1117 346.849
L22.1885 346.849
L22.2685 345.812
L22.346 345.812
L22.4239 345
L22.5031 345
L22.5828 344.247
L22.6604 344.247
L22.6604 344.067
L22.7397 344.117
L22.8194 344.117
L22.898 344.672
L22.9789 344.672
L23.0594 345.139
L23.1397 345.139
L23.2185 345.554
L23.2993 345.554
L23.379 345.857
L23.461 345.857
L23.5436 346.275
L23.624 346.275
L23.7057 346.874
L23.7859 346.874
L23.8667 347.432
L23.9487 347.432
L24.0318 347.993
L24.1137 347.993
L24.1951 348.386
L24.2767 348.386
L24.3584 348.637
L24.5227 348.715
L24.6066 348.977
L24.6872 348.977
L24.7703 349.216
L25.1868 349.118
L25.2715 348.978
L25.4377 348.873
L25.521 348.601
L25.6051 348.601
L25.6912 348.324
L25.7754 348.324
L25.8588 348.067
L26.026 347.966
L26.1097 347.714
L26.1948 347.714
L26.2781 347.437
L26.3602 347.437
L26.4465 347.064
L26.5309 347.064
L26.6181 346.682
L26.7029 346.682
L26.7861 346.26
L26.8714 346.26
L26.9571 345.753
L27.0422 345.753
L27.1285 345.281
L27.2141 345.281
L27.2996 344.786
L27.3847 344.786
L27.4676 344.313
L27.5565 344.313
L27.6413 343.939
L27.7268 343.939
L27.811 343.604
L27.8974 343.604
L27.9828 343.295
L28.0671 343.295
L28.1548 343.001
L28.2424 343.001
L28.3284 342.628
L28.415 342.628
L28.5032 342.224
L28.5896 342.224
L28.6748 341.812
L28.7618 341.812
L28.8486 341.379
L28.9336 341.379
L29.0218 340.971
L29.108 340.971
L29.1958 340.651
L29.284 340.651
L29.3716 340.317
L29.4577 340.317
L29.5443 340.003
L29.6308 340.003
L29.7171 339.737
L29.8053 339.737
L29.8913 339.399
L29.9777 339.399
L30.0648 339.063
L30.1529 339.063
L30.2389 338.78
L30.3264 338.78
L30.4142 338.436
L30.5051 338.436
L30.5919 338.067
L30.6778 338.067
L30.7647 337.757
L30.8525 337.757
L30.9412 337.441
L31.0297 337.441
L31.1178 337.107
L31.2058 337.107
L31.2936 336.772
L31.3805 336.772
L31.4681 336.4
L31.5567 336.4
L31.6457 335.966
L31.7343 335.966
L31.8235 335.577
L31.9127 335.577
L32.0002 335.215
L32.0868 335.215
L32.1776 334.838
L32.2662 334.838
L32.3568 334.445
L32.4457 334.445
L32.5336 334.05
L32.6228 334.05
L32.7111 333.699
L32.8007 333.699
L32.8904 333.425
L32.9796 333.425
L33.0675 333.146
L33.1584 333.146
L33.2469 332.855
L33.3362 332.855
L33.4233 332.54
L33.5146 332.54
L33.6034 332.199
L33.6902 332.199
L33.7801 331.837
L33.87 331.837
L33.9593 331.516
L34.0478 331.516
L34.1381 331.196
L34.2276 331.196
L34.3154 330.87
L34.4044 330.87
L34.4968 330.502
L34.5865 330.502
L34.6753 330.156
L34.7671 330.156
L34.8556 329.8
L34.9414 329.8
L35.0309 329.456
L35.1211 329.456
L35.2124 329.105
L35.3031 329.105
L35.3928 328.78
L35.4835 328.78
L35.5741 328.493
L35.6652 328.493
L35.7553 328.214
L35.8448 328.214
L35.9336 327.914
L36.0256 327.914
L36.1166 327.576
L36.2091 327.576
L36.2969 327.227
L36.3873 327.227
L36.4771 326.882
L36.5668 326.882
L36.6586 326.486
L36.7484 326.486
L36.8383 326.077
L36.9256 326.077
L37.0161 325.684
L37.105 325.684
L37.197 325.281
L37.2875 325.281
L37.3779 324.903
L37.47 324.903
L37.5607 324.5
L37.6516 324.5
L37.7444 324.128
L37.8348 324.128
L37.9257 323.796
L38.0152 323.796
L38.1052 323.48
L38.1941 323.48
L38.2868 323.16
L38.3805 323.16
L38.4734 322.826
L38.5649 322.826
L38.6585 322.506
L38.7517 322.506
L38.842 322.204
L38.9342 322.204
L39.0246 321.918
L39.1131 321.918
L39.203 321.63
L39.2985 321.63
L39.3888 321.348
L39.4783 321.348
L39.5684 321.114
L39.7501 321.004
L39.841 320.771
L39.9358 320.771
L40.0275 320.524
L40.1186 320.524
L40.209 320.27
L40.2998 320.27
L40.3925 320.029
L40.4852 320.029
L40.5752 319.8
L40.668 319.8
L40.7584 319.571
L40.849 319.571
L40.9442 319.339
L41.0366 319.339
L41.1298 319.112
L41.2219 319.112
L41.3114 318.879
L41.4024 318.879
L41.4947 318.643
L41.586 318.643
L41.6777 318.398
L41.7718 318.398
L41.8653 318.129
L41.9566 318.129
L42.0487 317.863
L42.1393 317.863
L42.2309 317.587
L42.3241 317.587
L42.4178 317.317
L42.509 317.317
L42.6029 317.049
L42.6964 317.049
L42.7879 316.781
L42.881 316.781
L42.9752 316.508
L43.0677 316.508
L43.1601 316.267
L43.3443 316.16
L43.4343 315.98
L43.618 315.887
L43.7094 315.71
L43.8972 315.618
L43.9913 315.457
L44.1751 315.379
L44.2689 315.199
L44.4536 315.107
L44.5476 314.923
L44.7311 314.835
L44.8249 314.638
L45.0092 314.538
L45.1038 314.353
L45.2918 314.259
L45.3843 314.077
L45.57 313.985
L45.6621 313.818
L45.8445 313.738
L45.9396 313.592
L46.1248 313.508
L46.2166 313.335
L46.4025 313.242
L46.4963 313.053
L46.6841 312.964
L46.7772 312.796
L46.9648 312.718
L47.0574 312.562
L47.245 312.484
L47.3396 312.317
L47.5252 312.233
L47.6191 312.07
L47.804 311.989
L47.8988 311.827
L48.0867 311.748
L48.1781 311.578
L48.3656 311.498
L48.4605 311.334
L48.6487 311.251
L48.7414 311.097
L48.9304 311.022
L49.0227 310.886
L49.2138 310.822
L49.3082 310.69
L49.4965 310.619
L49.591 310.484
L49.78 310.414
L49.876 310.263
L50.0618 310.189
L50.1546 310.055
L50.3443 309.978
L50.4403 309.831
L50.6297 309.764
L50.724 309.634
L50.9134 309.573
L51.0057 309.465
L51.2841 309.367
L51.3793 309.268
L51.6624 309.16
L51.7549 309.045
L51.9476 308.983
L52.0426 308.863
L52.2304 308.803
L52.3262 308.669
L52.5131 308.596
L52.6106 308.446
L52.8001 308.367
L52.8948 308.196
L53.0816 308.115
L53.1735 307.961
L53.3625 307.884
L53.4583 307.72
L53.6517 307.636
L53.7462 307.479
L53.9378 307.403
L54.0311 307.246
L54.2224 307.168
L54.3165 307.014
L54.5061 306.942
L54.6004 306.794
L54.7879 306.717
L54.8832 306.55
L55.0757 306.464
L55.1705 306.284
L55.3588 306.195
L55.4533 306.021
L55.6431 305.932
L55.739 305.769
L55.9293 305.691
L56.0249 305.546
L56.2118 305.482
L56.3053 305.365
L56.4977 305.301
L56.591 305.177
L56.7818 305.117
L56.8763 304.994
L57.0649 304.932
L57.1586 304.806
L57.3506 304.743
L57.4443 304.632
L57.6383 304.574
L57.7334 304.462
L57.9248 304.402
L58.021 304.29
L58.3064 304.18
L58.4016 304.078
L58.6914 303.979
L58.7855 303.881
L59.0736 303.774
L59.1689 303.673
L59.4585 303.572
L59.5544 303.47
L59.8412 303.377
L59.9384 303.283
L60.2235 303.194
L60.3185 303.116
L60.7024 303.008
L60.7999 302.947
L61.1843 302.852
L61.2797 302.786
L61.6617 302.684
L61.7573 302.618
L62.1429 302.523
L62.2394 302.456
L62.6274 302.351
L62.7235 302.285
L63.1073 302.192
L63.2028 302.129
L63.588 302.023
L63.6838 301.946
L63.9718 301.863
L64.0701 301.777
L64.3604 301.695
L64.4592 301.608
L64.7468 301.525
L64.8421 301.451
L65.1278 301.375
L65.2253 301.299
L65.5147 301.218
L65.6095 301.13
L65.8982 301.044
L65.9944 300.963
L66.2829 300.881
L66.3803 300.806
L66.7704 300.699
L66.868 300.62
L67.1577 300.545
L67.2541 300.467
L67.5469 300.386
L67.6448 300.305
L67.9346 300.222
L68.0342 300.145
L68.3226 300.067
L68.4201 299.988
L68.7061 299.907
L68.8044 299.83
L69.0962 299.751
L69.1916 299.675
L69.4836 299.597
L69.5824 299.513
L69.8756 299.432
L69.9736 299.346
L70.2637 299.25
L70.3616 299.149
L70.6502 299.048
L70.7471 298.941
L70.9408 298.886
L71.0402 298.773
L71.331 298.666
L71.43 298.568
L71.7194 298.469
L71.8202 298.363
L72.1142 298.257
L72.2124 298.154
L72.5067 298.057
L72.6062 297.963
L72.8963 297.868
L72.9935 297.778
L73.2854 297.691
L73.3818 297.598
L73.6789 297.502
L73.7768 297.411
L74.0674 297.32
L74.1653 297.223
L74.4603 297.123
L74.5561 297.03
L74.8476 296.939
L74.9444 296.847
L75.2361 296.751
L75.3346 296.656
L75.6277 296.565
L75.7244 296.482
L76.0174 296.399
L76.1159 296.312
L76.4048 296.224
L76.5031 296.135
L76.8004 296.046
L76.8989 295.962
L77.191 295.884
L77.291 295.801
L77.5804 295.72
L77.679 295.643
L78.0745 295.535
L78.1705 295.465
L78.5645 295.358
L78.6607 295.286
L79.0532 295.182
L79.1505 295.109
L79.4477 295.033
L79.545 294.958
L79.8418 294.88
L79.9398 294.801
L80.2347 294.723
L80.3302 294.648
L80.7232 294.54
L80.8209 294.474
L81.214 294.381
L81.31 294.32
L81.7052 294.231
L81.8038 294.173
L82.1956 294.077
L82.2985 294.009
L82.6904 293.915
L82.7885 293.853
L83.1807 293.766
L83.2809 293.705
L83.6768 293.607
L83.7756 293.543
L84.1711 293.439
L84.268 293.364
L84.6622 293.254
L84.7579 293.185
L85.1523 293.084
L85.249 293.016
L85.6446 292.916
L85.7477 292.848
L86.1429 292.738
L86.241 292.667
L86.6377 292.562
L86.7356 292.489
L87.1264 292.379
L87.2251 292.302
L87.5217 292.218
L87.6194 292.137
L87.9198 292.057
L88.0204 291.977
L88.3193 291.895
L88.4178 291.811
L88.7191 291.731
L88.8184 291.651
L89.2177 291.546
L89.3151 291.482
L89.7122 291.381
L89.8091 291.312
L90.2076 291.214
L90.3048 291.151
L90.7042 291.056
L90.8057 290.993
L91.2055 290.893
L91.3045 290.826
L91.6989 290.726
L91.7977 290.659
L92.1943 290.56
L92.2916 290.494
L92.6897 290.397
L92.7879 290.336
L93.1812 290.253
L93.2815 290.195
L93.6866 290.107
L93.7848 290.05
L94.1808 289.961
L94.2815 289.899
L94.6834 289.8
L94.7832 289.733
L95.1795 289.634
L95.2781 289.568
L95.6698 289.469
L95.7709 289.402
L96.1711 289.299
L96.2715 289.23
L96.6698 289.128
L96.7693 289.062
L97.1705 288.96
L97.2719 288.888
L97.6657 288.784
L97.7673 288.718
L98.1661 288.616
L98.2676 288.547
L98.6705 288.444
L98.7721 288.374
L99.1697 288.266
L99.2714 288.193
L99.5712 288.118
L99.6714 288.044
L99.9726 287.968
L100.072 287.891
L100.369 287.815
L100.47 287.74
L100.872 287.629
L100.975 287.552
L101.378 287.443
L101.476 287.368
L101.871 287.264
L101.97 287.194
L102.271 287.121
L102.37 287.046
L102.772 286.939
L102.873 286.869
L103.275 286.767
L103.371 286.706
L103.771 286.612
L103.874 286.549
L104.275 286.451
L104.378 286.383
L104.778 286.286
L104.879 286.223
L105.28 286.133
L105.379 286.077
L105.782 285.993
L105.886 285.932
L106.288 285.836
L106.386 285.772
L106.788 285.677
L106.889 285.613
L107.291 285.511
L107.392 285.441
L107.794 285.334
L107.896 285.262
L108.292 285.155
L108.392 285.086
L108.798 284.982
L108.898 284.911
L109.296 284.802
L109.395 284.729
L109.798 284.622
L109.898 284.555
L110.307 284.446
L110.408 284.371
L110.71 284.295
L110.812 284.217
L111.108 284.142
L111.209 284.064
L111.61 283.954
L111.711 283.875
L112.008 283.797
L112.111 283.72
L112.41 283.644
L112.513 283.57
L112.919 283.466
L113.019 283.401
L113.426 283.298
L113.525 283.234
L113.93 283.134
L114.031 283.066
L114.43 282.965
L114.529 282.901
L114.939 282.797
L115.044 282.727
L115.449 282.627
L115.55 282.56
L115.951 282.465
L116.05 282.399
L116.455 282.296
L116.557 282.224
L116.962 282.12
L117.065 282.05
L117.472 281.946
L117.573 281.876
L117.973 281.772
L118.073 281.703
L118.382 281.627
L118.479 281.553
L118.887 281.444
L118.986 281.372
L119.395 281.266
L119.494 281.195
L119.899 281.088
L120.001 281.017
L120.41 280.909
L120.51 280.835
L120.915 280.724
L121.018 280.651
L121.323 280.577
L121.423 280.501
L121.726 280.422
L121.828 280.344
L122.128 280.267
L122.227 280.188
L122.536 280.105
L122.639 280.026
L122.949 279.947
L123.05 279.871
L123.456 279.76
L123.555 279.688
L123.86 279.614
L123.961 279.539
L124.264 279.464
L124.365 279.387
L124.67 279.31
L124.772 279.237
L125.176 279.127
L125.277 279.051
L125.58 278.975
L125.683 278.896
L125.987 278.818
L126.09 278.741
L126.398 278.665
L126.501 278.592
L126.807 278.518
L126.909 278.442
L127.214 278.369
L127.316 278.294
L127.725 278.186
L127.826 278.119
L128.233 278.018
L128.336 277.953
L128.739 277.856
L128.839 277.791
L129.248 277.69
L129.351 277.623
L129.759 277.523
L129.862 277.457
L130.27 277.361
L130.371 277.301
L130.778 277.21
L130.881 277.15
L131.291 277.057
L131.393 276.995
L131.8 276.902
L131.901 276.843
L132.311 276.754
L132.412 276.694
L132.817 276.603
L132.918 276.542
L133.332 276.45
L133.432 276.393
L133.942 276.284
L134.043 276.23
L134.554 276.129
L134.655 276.077
L135.164 275.98
L135.264 275.936
L135.873 275.83
L135.978 275.787
L136.599 275.684
L136.703 275.643
L137.318 275.545
L137.422 275.509
L138.142 275.404
L138.245 275.37
L138.958 275.274
L139.06 275.241
L139.776 275.143
L139.88 275.113
L140.697 275.011
L140.799 274.98
L141.517 274.879
L141.619 274.845
L142.334 274.745
L142.436 274.715
L143.156 274.614
L143.258 274.581
L143.977 274.485
L144.08 274.452
L144.903 274.342
L145.006 274.311
L145.725 274.215
L145.828 274.183
L146.65 274.078
L146.756 274.048
L147.469 273.952
L147.569 273.918
L148.287 273.813
L148.391 273.78
L149.216 273.676
L149.32 273.648
L150.136 273.548
L150.24 273.521
L151.071 273.421
L151.172 273.391
L151.992 273.291
L152.099 273.264
L153.138 273.153
L153.244 273.129
L154.273 273.018
L154.375 272.993
L155.406 272.886
L155.509 272.859
L156.434 272.757
L156.536 272.733
L157.571 272.627
L157.675 272.604
L158.807 272.499
L158.915 272.478
L160.148 272.373
L160.254 272.354
L161.391 272.253
L161.495 272.231
L162.627 272.12
L162.731 272.1
L164.082 271.996
L164.185 271.98
L165.43 271.879
L165.532 271.858
L166.774 271.752
L166.877 271.733
L168.125 271.623
L168.227 271.604
L169.576 271.494
L169.675 271.479
L171.234 271.371
L171.343 271.356
L173.109 271.25
L173.215 271.237
L175.086 271.127
L175.19 271.116
L177.368 271.009
L177.471 270.996
L179.025 270.889
L179.128 270.873
L180.486 270.765
L180.589 270.746
L181.73 270.645
L181.835 270.625
L183.092 270.521
L183.195 270.502
L184.447 270.398
L184.552 270.378
L185.811 270.273
L185.914 270.254
L187.168 270.149
L187.271 270.127
L188.318 270.025
L188.422 270.002
L189.468 269.895
L189.571 269.872
L190.717 269.768
L190.822 269.748
L191.97 269.639
L192.076 269.617
L193.225 269.509
L193.33 269.487
L194.484 269.378
L194.589 269.356
L195.733 269.248
L195.838 269.223
L196.89 269.118
L196.995 269.097
L198.251 268.986
L198.357 268.966
L199.627 268.86
L199.732 268.84
L201.102 268.731
L201.207 268.714
L202.787 268.608
L202.894 268.594
L204.991 268.485
L205.096 268.475
L207.619 268.367
L207.722 268.357
L209.934 268.248
L210.041 268.237
L211.825 268.13
L211.928 268.114
L213.514 268.009
L213.619 267.995
L215.196 267.885
L215.3 267.869
L216.886 267.76
L216.988 267.745
L218.466 267.637
L218.574 267.62
L220.051 267.516
L220.155 267.5
L221.731 267.392
L221.837 267.376
L223.315 267.265
L223.419 267.249
L224.791 267.141
L224.895 267.123
L226.578 267.015
L226.682 267.003
L229.217 266.895
L229.323 266.888
L248.429 266.779
L248.537 266.774
L255.458 266.663
L255.563 266.658
L259.489 266.551
L259.595 266.542
L262.157 266.431
L262.266 266.42
L264.295 266.312
L264.403 266.3
L266.747 266.191
L266.853 266.182
L269.634 266.074
L269.741 266.067
L272.744 265.956
L272.853 265.947
L275.637 265.838
L275.745 265.83
L278.53 265.719
L278.635 265.71
L281.41 265.602
L281.516 265.594
L283.985 265.487
L284.091 265.476
L286.445 265.368
L286.552 265.358
L288.706 265.252
L288.813 265.241
L290.953 265.135
L291.063 265.124
L293.419 265.014
L293.526 265.004
L296.115 264.896
L296.22 264.886
L298.909 264.78
L299.014 264.771
L301.387 264.662
L301.387 264.657
L303.538 264.547
L303.648 264.533
L305.808 264.423
L305.918 264.411
L308.074 264.3
L308.074 264.294
L310.118 264.188
L310.226 264.176
L312.595 264.07
L312.701 264.06
L314.853 263.952
L314.957 263.941
L316.803 263.836
L316.911 263.823
L318.63 263.717
L318.734 263.702
L320.464 263.595
L320.568 263.581
L322.512 263.474
L322.621 263.462
L324.788 263.354
L324.895 263.343
L327.275 263.232
L327.382 263.222
L329.97 263.114
L329.97 263.11
L333.008 262.999
L333.119 262.991
L336.367 262.881
L336.367 262.878
L340.15 262.77
L340.256 262.763
L343.961 262.653
L344.068 262.648
L348.519 262.537
L348.626 262.53
L352.314 262.42
L352.314 262.417
L355.346 262.307
L355.456 262.299
L358.608 262.19
L358.714 262.184
L361.662 262.076
L361.77 262.066
L364.385 261.959
L364.495 261.949
L367.1 261.84
L367.21 261.831
L369.811 261.723
L369.92 261.714
L372.541 261.606
L372.649 261.597
L375.253 261.49
L375.363 261.48
L377.761 261.374
L377.871 261.363
L380.162 261.254
L380.162 261.248
L382.459 261.14
L382.567 261.13
L384.966 261.023
L385.075 261.012
L387.697 260.901
L387.806 260.892
L390.203 260.785
L390.311 260.775
L392.945 260.668
L393.054 260.659
L395.56 260.552
L395.668 260.542
L398.298 260.432
L398.406 260.423
L401.133 260.315
L401.243 260.305
L403.646 260.198
L403.756 260.189
L406.276 260.078
L406.387 260.068
L408.916 259.96
L409.022 259.951
L411.767 259.841
L411.875 259.832
L414.507 259.723
L414.616 259.714
L417.24 259.605
L417.349 259.595
L419.755 259.487
L419.865 259.476
L422.071 259.367
L422.181 259.355
L424.486 259.246
L424.486 259.241
L426.796 259.133
L426.906 259.122
L429.432 259.014
L429.542 259.004
L432.081 258.897
L432.19 258.887
L434.827 258.779
L434.938 258.77
L437.907 258.662
L438.013 258.654
L441.648 258.543
L441.758 258.536
L445.594 258.428
L445.704 258.421
L449.341 258.313
L449.45 258.306
L453.091 258.196
L453.201 258.189
L457.168 258.081
L457.278 258.074
L460.796 257.967
L460.906 257.959
L463.895 257.85
L463.895 257.845
L466.998 257.735
L466.998 257.731
L470.308 257.621
L470.418 257.614
L474.168 257.505
L474.168 257.502
L478.932 257.394
L479.042 257.389
L484.337 257.278
L484.337 257.276
L489.43 257.166
L489.43 257.163
L495.863 257.053
L495.863 257.051
L503.284 256.941
L503.393 256.938
L511.166 256.828
L511.166 256.827
L519.258 256.716
L519.258 256.715
L528.593 256.605
L528.704 256.602
L544.841 256.505
L544.841 256.505" style="fill:none;stroke:#ff0000;stroke-width:0.5;"/>
   </g>
   <g id="matplotlib.axis_1">
    <g id="xtick_1">
     <g id="line2d_2">
      <defs>
       <path d="
M0 0
L0 -4" id="mf9929cdf33"/>
      </defs>
      <g>
       <use style="stroke:#000000;stroke-linecap:butt;stroke-width:0.5;" x="20.1203125" xlink:href="#mf9929cdf33" y="15.0092307692"/>
      </g>
     </g>
    </g>
    <g id="xtick_2">
     <g id="line2d_3">
      <defs>
       <path d="
M0 0
L0 -4" id="mf9929cdf33"/>
      </defs>
      <g>
       <use style="stroke:#000000;stroke-linecap:butt;stroke-width:0.5;" x="125.070506136" xlink:href="#mf9929cdf33" y="15.0092307692"/>
      </g>
     </g>
     <g id="text_1">
      <!-- 2e7 -->
      <defs>
       <path d="
M19.1875 8.29688
L53.6094 8.29688
L53.6094 0
L7.32812 0
L7.32812 8.29688
Q12.9375 14.1094 22.625 23.8906
Q32.3281 33.6875 34.8125 36.5312
Q39.5469 41.8438 41.4219 45.5312
Q43.3125 49.2188 43.3125 52.7812
Q43.3125 58.5938 39.2344 62.25
Q35.1562 65.9219 28.6094 65.9219
Q23.9688 65.9219 18.8125 64.3125
Q13.6719 62.7031 7.8125 59.4219
L7.8125 69.3906
Q13.7656 71.7812 18.9375 73
Q24.125 74.2188 28.4219 74.2188
Q39.75 74.2188 46.4844 68.5469
Q53.2188 62.8906 53.2188 53.4219
Q53.2188 48.9219 51.5312 44.8906
Q49.8594 40.875 45.4062 35.4062
Q44.1875 33.9844 37.6406 27.2188
Q31.1094 20.4531 19.1875 8.29688" id="BitstreamVeraSans-Roman-32"/>
       <path d="
M56.2031 29.5938
L56.2031 25.2031
L14.8906 25.2031
Q15.4844 15.9219 20.4844 11.0625
Q25.4844 6.20312 34.4219 6.20312
Q39.5938 6.20312 44.4531 7.46875
Q49.3125 8.73438 54.1094 11.2812
L54.1094 2.78125
Q49.2656 0.734375 44.1875 -0.34375
Q39.1094 -1.42188 33.8906 -1.42188
Q20.7969 -1.42188 13.1562 6.1875
Q5.51562 13.8125 5.51562 26.8125
Q5.51562 40.2344 12.7656 48.1094
Q20.0156 56 32.3281 56
Q43.3594 56 49.7812 48.8906
Q56.2031 41.7969 56.2031 29.5938
M47.2188 32.2344
Q47.125 39.5938 43.0938 43.9844
Q39.0625 48.3906 32.4219 48.3906
Q24.9062 48.3906 20.3906 44.1406
Q15.875 39.8906 15.1875 32.1719
z
" id="BitstreamVeraSans-Roman-65"/>
       <path d="
M8.20312 72.9062
L55.0781 72.9062
L55.0781 68.7031
L28.6094 0
L18.3125 0
L43.2188 64.5938
L8.20312 64.5938
z
" id="BitstreamVeraSans-Roman-37"/>
      </defs>
      <g transform="translate(116.425193636 26.4311057692)scale(0.1 -0.1)">
       <use xlink:href="#BitstreamVeraSans-Roman-32"/>
       <use x="63.623046875" xlink:href="#BitstreamVeraSans-Roman-65"/>
       <use x="125.146484375" xlink:href="#BitstreamVeraSans-Roman-37"/>
      </g>
     </g>
    </g>
    <g id="xtick_3">
     <g id="line2d_4">
      <defs>
       <path d="
M0 0
L0 -4" id="mf9929cdf33"/>
      </defs>
      <g>
       <use style="stroke:#000000;stroke-linecap:butt;stroke-width:0.5;" x="230.020699773" xlink:href="#mf9929cdf33" y="15.0092307692"/>
      </g>
     </g>
     <g id="text_2">
      <!-- 4e7 -->
      <defs>
       <path d="
M37.7969 64.3125
L12.8906 25.3906
L37.7969 25.3906
z

M35.2031 72.9062
L47.6094 72.9062
L47.6094 25.3906
L58.0156 25.3906
L58.0156 17.1875
L47.6094 17.1875
L47.6094 0
L37.7969 0
L37.7969 17.1875
L4.89062 17.1875
L4.89062 26.7031
z
" id="BitstreamVeraSans-Roman-34"/>
      </defs>
      <g transform="translate(221.253512273 26.2998557692)scale(0.1 -0.1)">
       <use xlink:href="#BitstreamVeraSans-Roman-34"/>
       <use x="63.623046875" xlink:href="#BitstreamVeraSans-Roman-65"/>
       <use x="125.146484375" xlink:href="#BitstreamVeraSans-Roman-37"/>
      </g>
     </g>
    </g>
    <g id="xtick_4">
     <g id="line2d_5">
      <defs>
       <path d="
M0 0
L0 -4" id="mf9929cdf33"/>
      </defs>
      <g>
       <use style="stroke:#000000;stroke-linecap:butt;stroke-width:0.5;" x="334.970893409" xlink:href="#mf9929cdf33" y="15.0092307692"/>
      </g>
     </g>
     <g id="text_3">
      <!-- 6e7 -->
      <defs>
       <path d="
M33.0156 40.375
Q26.375 40.375 22.4844 35.8281
Q18.6094 31.2969 18.6094 23.3906
Q18.6094 15.5312 22.4844 10.9531
Q26.375 6.39062 33.0156 6.39062
Q39.6562 6.39062 43.5312 10.9531
Q47.4062 15.5312 47.4062 23.3906
Q47.4062 31.2969 43.5312 35.8281
Q39.6562 40.375 33.0156 40.375
M52.5938 71.2969
L52.5938 62.3125
Q48.875 64.0625 45.0938 64.9844
Q41.3125 65.9219 37.5938 65.9219
Q27.8281 65.9219 22.6719 59.3281
Q17.5312 52.7344 16.7969 39.4062
Q19.6719 43.6562 24.0156 45.9219
Q28.375 48.1875 33.5938 48.1875
Q44.5781 48.1875 50.9531 41.5156
Q57.3281 34.8594 57.3281 23.3906
Q57.3281 12.1562 50.6875 5.35938
Q44.0469 -1.42188 33.0156 -1.42188
Q20.3594 -1.42188 13.6719 8.26562
Q6.98438 17.9688 6.98438 36.375
Q6.98438 53.6562 15.1875 63.9375
Q23.3906 74.2188 37.2031 74.2188
Q40.9219 74.2188 44.7031 73.4844
Q48.4844 72.75 52.5938 71.2969" id="BitstreamVeraSans-Roman-36"/>
      </defs>
      <g transform="translate(326.308393409 26.4311057692)scale(0.1 -0.1)">
       <use xlink:href="#BitstreamVeraSans-Roman-36"/>
       <use x="63.623046875" xlink:href="#BitstreamVeraSans-Roman-65"/>
       <use x="125.146484375" xlink:href="#BitstreamVeraSans-Roman-37"/>
      </g>
     </g>
    </g>
    <g id="xtick_5">
     <g id="line2d_6">
      <defs>
       <path d="
M0 0
L0 -4" id="mf9929cdf33"/>
      </defs>
      <g>
       <use style="stroke:#000000;stroke-linecap:butt;stroke-width:0.5;" x="439.921087046" xlink:href="#mf9929cdf33" y="15.0092307692"/>
      </g>
     </g>
     <g id="text_4">
      <!-- 8e7 -->
      <defs>
       <path d="
M31.7812 34.625
Q24.75 34.625 20.7188 30.8594
Q16.7031 27.0938 16.7031 20.5156
Q16.7031 13.9219 20.7188 10.1562
Q24.75 6.39062 31.7812 6.39062
Q38.8125 6.39062 42.8594 10.1719
Q46.9219 13.9688 46.9219 20.5156
Q46.9219 27.0938 42.8906 30.8594
Q38.875 34.625 31.7812 34.625
M21.9219 38.8125
Q15.5781 40.375 12.0312 44.7188
Q8.5 49.0781 8.5 55.3281
Q8.5 64.0625 14.7188 69.1406
Q20.9531 74.2188 31.7812 74.2188
Q42.6719 74.2188 48.875 69.1406
Q55.0781 64.0625 55.0781 55.3281
Q55.0781 49.0781 51.5312 44.7188
Q48 40.375 41.7031 38.8125
Q48.8281 37.1562 52.7969 32.3125
Q56.7812 27.4844 56.7812 20.5156
Q56.7812 9.90625 50.3125 4.23438
Q43.8438 -1.42188 31.7812 -1.42188
Q19.7344 -1.42188 13.25 4.23438
Q6.78125 9.90625 6.78125 20.5156
Q6.78125 27.4844 10.7812 32.3125
Q14.7969 37.1562 21.9219 38.8125
M18.3125 54.3906
Q18.3125 48.7344 21.8438 45.5625
Q25.3906 42.3906 31.7812 42.3906
Q38.1406 42.3906 41.7188 45.5625
Q45.3125 48.7344 45.3125 54.3906
Q45.3125 60.0625 41.7188 63.2344
Q38.1406 66.4062 31.7812 66.4062
Q25.3906 66.4062 21.8438 63.2344
Q18.3125 60.0625 18.3125 54.3906" id="BitstreamVeraSans-Roman-38"/>
      </defs>
      <g transform="translate(431.248430796 26.4311057692)scale(0.1 -0.1)">
       <use xlink:href="#BitstreamVeraSans-Roman-38"/>
       <use x="63.623046875" xlink:href="#BitstreamVeraSans-Roman-65"/>
       <use x="125.146484375" xlink:href="#BitstreamVeraSans-Roman-37"/>
      </g>
     </g>
    </g>
    <g id="xtick_6">
     <g id="line2d_7">
      <defs>
       <path d="
M0 0
L0 -4" id="mf9929cdf33"/>
      </defs>
      <g>
       <use style="stroke:#000000;stroke-linecap:butt;stroke-width:0.5;" x="544.871280682" xlink:href="#mf9929cdf33" y="15.0092307692"/>
      </g>
     </g>
     <g id="text_5">
      <!-- 1e8 -->
      <defs>
       <path d="
M12.4062 8.29688
L28.5156 8.29688
L28.5156 63.9219
L10.9844 60.4062
L10.9844 69.3906
L28.4219 72.9062
L38.2812 72.9062
L38.2812 8.29688
L54.3906 8.29688
L54.3906 0
L12.4062 0
z
" id="BitstreamVeraSans-Roman-31"/>
      </defs>
      <g transform="translate(536.323624432 26.4311057692)scale(0.1 -0.1)">
       <use xlink:href="#BitstreamVeraSans-Roman-31"/>
       <use x="63.623046875" xlink:href="#BitstreamVeraSans-Roman-65"/>
       <use x="125.146484375" xlink:href="#BitstreamVeraSans-Roman-38"/>
      </g>
     </g>
    </g>
    <g id="xtick_7">
     <g id="line2d_8">
      <defs>
       <path d="
M0 0
L0 -2" id="m08ece2001b"/>
      </defs>
      <g>
       <use style="stroke:#000000;stroke-linecap:butt;stroke-width:0.5;" x="46.3578609091" xlink:href="#m08ece2001b" y="15.0092307692"/>
      </g>
     </g>
    </g>
    <g id="xtick_8">
     <g id="line2d_9">
      <defs>
       <path d="
M0 0
L0 -2" id="m08ece2001b"/>
      </defs>
      <g>
       <use style="stroke:#000000;stroke-linecap:butt;stroke-width:0.5;" x="72.5954093182" xlink:href="#m08ece2001b" y="15.0092307692"/>
      </g>
     </g>
    </g>
    <g id="xtick_9">
     <g id="line2d_10">
      <defs>
       <path d="
M0 0
L0 -2" id="m08ece2001b"/>
      </defs>
      <g>
       <use style="stroke:#000000;stroke-linecap:butt;stroke-width:0.5;" x="98.8329577274" xlink:href="#m08ece2001b" y="15.0092307692"/>
      </g>
     </g>
    </g>
    <g id="xtick_10">
     <g id="line2d_11">
      <defs>
       <path d="
M0 0
L0 -2" id="m08ece2001b"/>
      </defs>
      <g>
       <use style="stroke:#000000;stroke-linecap:butt;stroke-width:0.5;" x="151.308054546" xlink:href="#m08ece2001b" y="15.0092307692"/>
      </g>
     </g>
    </g>
    <g id="xtick_11">
     <g id="line2d_12">
      <defs>
       <path d="
M0 0
L0 -2" id="m08ece2001b"/>
      </defs>
      <g>
       <use style="stroke:#000000;stroke-linecap:butt;stroke-width:0.5;" x="177.545602955" xlink:href="#m08ece2001b" y="15.0092307692"/>
      </g>
     </g>
    </g>
    <g id="xtick_12">
     <g id="line2d_13">
      <defs>
       <path d="
M0 0
L0 -2" id="m08ece2001b"/>
      </defs>
      <g>
       <use style="stroke:#000000;stroke-linecap:butt;stroke-width:0.5;" x="203.783151364" xlink:href="#m08ece2001b" y="15.0092307692"/>
      </g>
     </g>
    </g>
    <g id="xtick_13">
     <g id="line2d_14">
      <defs>
       <path d="
M0 0
L0 -2" id="m08ece2001b"/>
      </defs>
      <g>
       <use style="stroke:#000000;stroke-linecap:butt;stroke-width:0.5;" x="256.258248182" xlink:href="#m08ece2001b" y="15.0092307692"/>
      </g>
     </g>
    </g>
    <g id="xtick_14">
     <g id="line2d_15">
      <defs>
       <path d="
M0 0
L0 -2" id="m08ece2001b"/>
      </defs>
      <g>
       <use style="stroke:#000000;stroke-linecap:butt;stroke-width:0.5;" x="282.495796591" xlink:href="#m08ece2001b" y="15.0092307692"/>
      </g>
     </g>
    </g>
    <g id="xtick_15">
     <g id="line2d_16">
      <defs>
       <path d="
M0 0
L0 -2" id="m08ece2001b"/>
      </defs>
      <g>
       <use style="stroke:#000000;stroke-linecap:butt;stroke-width:0.5;" x="308.733345" xlink:href="#m08ece2001b" y="15.0092307692"/>
      </g>
     </g>
    </g>
    <g id="xtick_16">
     <g id="line2d_17">
      <defs>
       <path d="
M0 0
L0 -2" id="m08ece2001b"/>
      </defs>
      <g>
       <use style="stroke:#000000;stroke-linecap:butt;stroke-width:0.5;" x="361.208441819" xlink:href="#m08ece2001b" y="15.0092307692"/>
      </g>
     </g>
    </g>
    <g id="xtick_17">
     <g id="line2d_18">
      <defs>
       <path d="
M0 0
L0 -2" id="m08ece2001b"/>
      </defs>
      <g>
       <use style="stroke:#000000;stroke-linecap:butt;stroke-width:0.5;" x="387.445990228" xlink:href="#m08ece2001b" y="15.0092307692"/>
      </g>
     </g>
    </g>
    <g id="xtick_18">
     <g id="line2d_19">
      <defs>
       <path d="
M0 0
L0 -2" id="m08ece2001b"/>
      </defs>
      <g>
       <use style="stroke:#000000;stroke-linecap:butt;stroke-width:0.5;" x="413.683538637" xlink:href="#m08ece2001b" y="15.0092307692"/>
      </g>
     </g>
    </g>
    <g id="xtick_19">
     <g id="line2d_20">
      <defs>
       <path d="
M0 0
L0 -2" id="m08ece2001b"/>
      </defs>
      <g>
       <use style="stroke:#000000;stroke-linecap:butt;stroke-width:0.5;" x="466.158635455" xlink:href="#m08ece2001b" y="15.0092307692"/>
      </g>
     </g>
    </g>
    <g id="xtick_20">
     <g id="line2d_21">
      <defs>
       <path d="
M0 0
L0 -2" id="m08ece2001b"/>
      </defs>
      <g>
       <use style="stroke:#000000;stroke-linecap:butt;stroke-width:0.5;" x="492.396183864" xlink:href="#m08ece2001b" y="15.0092307692"/>
      </g>
     </g>
    </g>
    <g id="xtick_21">
     <g id="line2d_22">
      <defs>
       <path d="
M0 0
L0 -2" id="m08ece2001b"/>
      </defs>
      <g>
       <use style="stroke:#000000;stroke-linecap:butt;stroke-width:0.5;" x="518.633732273" xlink:href="#m08ece2001b" y="15.0092307692"/>
      </g>
     </g>
    </g>
   </g>
   <g id="matplotlib.axis_2">
    <g id="ytick_1">
     <g id="line2d_23">
      <defs>
       <path d="
M0 0
L4 0" id="ma0d8aa7952"/>
      </defs>
      <g>
       <use style="stroke:#000000;stroke-linecap:butt;stroke-width:0.5;" x="20.1203125" xlink:href="#ma0d8aa7952" y="389.687241641"/>
      </g>
     </g>
     <g id="text_6">
      <!-- -4 -->
      <defs>
       <path d="
M4.89062 31.3906
L31.2031 31.3906
L31.2031 23.3906
L4.89062 23.3906
z
" id="BitstreamVeraSans-Roman-2d"/>
      </defs>
      <g transform="translate(7.2 393.332554141)scale(0.1 -0.1)">
       <use xlink:href="#BitstreamVeraSans-Roman-2d"/>
       <use x="36.083984375" xlink:href="#BitstreamVeraSans-Roman-34"/>
      </g>
     </g>
    </g>
    <g id="ytick_2">
     <g id="line2d_24">
      <defs>
       <path d="
M0 0
L4 0" id="ma0d8aa7952"/>
      </defs>
      <g>
       <use style="stroke:#000000;stroke-linecap:butt;stroke-width:0.5;" x="20.1203125" xlink:href="#ma0d8aa7952" y="296.017738923"/>
      </g>
     </g>
     <g id="text_7">
      <!-- -3 -->
      <defs>
       <path d="
M40.5781 39.3125
Q47.6562 37.7969 51.625 33
Q55.6094 28.2188 55.6094 21.1875
Q55.6094 10.4062 48.1875 4.48438
Q40.7656 -1.42188 27.0938 -1.42188
Q22.5156 -1.42188 17.6562 -0.515625
Q12.7969 0.390625 7.625 2.20312
L7.625 11.7188
Q11.7188 9.32812 16.5938 8.10938
Q21.4844 6.89062 26.8125 6.89062
Q36.0781 6.89062 40.9375 10.5469
Q45.7969 14.2031 45.7969 21.1875
Q45.7969 27.6406 41.2812 31.2656
Q36.7656 34.9062 28.7188 34.9062
L20.2188 34.9062
L20.2188 43.0156
L29.1094 43.0156
Q36.375 43.0156 40.2344 45.9219
Q44.0938 48.8281 44.0938 54.2969
Q44.0938 59.9062 40.1094 62.9062
Q36.1406 65.9219 28.7188 65.9219
Q24.6562 65.9219 20.0156 65.0312
Q15.375 64.1562 9.8125 62.3125
L9.8125 71.0938
Q15.4375 72.6562 20.3438 73.4375
Q25.25 74.2188 29.5938 74.2188
Q40.8281 74.2188 47.3594 69.1094
Q53.9062 64.0156 53.9062 55.3281
Q53.9062 49.2656 50.4375 45.0938
Q46.9688 40.9219 40.5781 39.3125" id="BitstreamVeraSans-Roman-33"/>
      </defs>
      <g transform="translate(7.440625 299.657582673)scale(0.1 -0.1)">
       <use xlink:href="#BitstreamVeraSans-Roman-2d"/>
       <use x="36.083984375" xlink:href="#BitstreamVeraSans-Roman-33"/>
      </g>
     </g>
    </g>
    <g id="ytick_3">
     <g id="line2d_25">
      <defs>
       <path d="
M0 0
L4 0" id="ma0d8aa7952"/>
      </defs>
      <g>
       <use style="stroke:#000000;stroke-linecap:butt;stroke-width:0.5;" x="20.1203125" xlink:href="#ma0d8aa7952" y="202.348236205"/>
      </g>
     </g>
     <g id="text_8">
      <!-- -2 -->
      <g transform="translate(7.640625 206.059173705)scale(0.1 -0.1)">
       <use xlink:href="#BitstreamVeraSans-Roman-2d"/>
       <use x="36.083984375" xlink:href="#BitstreamVeraSans-Roman-32"/>
      </g>
     </g>
    </g>
    <g id="ytick_4">
     <g id="line2d_26">
      <defs>
       <path d="
M0 0
L4 0" id="ma0d8aa7952"/>
      </defs>
      <g>
       <use style="stroke:#000000;stroke-linecap:butt;stroke-width:0.5;" x="20.1203125" xlink:href="#ma0d8aa7952" y="108.678733487"/>
      </g>
     </g>
     <g id="text_9">
      <!-- -1 -->
      <g transform="translate(7.5625 112.324045987)scale(0.1 -0.1)">
       <use xlink:href="#BitstreamVeraSans-Roman-2d"/>
       <use x="36.083984375" xlink:href="#BitstreamVeraSans-Roman-31"/>
      </g>
     </g>
    </g>
    <g id="ytick_5">
     <g id="line2d_27">
      <defs>
       <path d="
M0 0
L4 0" id="ma0d8aa7952"/>
      </defs>
      <g>
       <use style="stroke:#000000;stroke-linecap:butt;stroke-width:0.5;" x="20.1203125" xlink:href="#ma0d8aa7952" y="15.0092307692"/>
      </g>
     </g>
    </g>
    <g id="ytick_6">
     <g id="line2d_28">
      <defs>
       <path d="
M0 0
L2 0" id="ma7424019bd"/>
      </defs>
      <g>
       <use style="stroke:#000000;stroke-linecap:butt;stroke-width:0.5;" x="20.1203125" xlink:href="#ma7424019bd" y="408.421142184"/>
      </g>
     </g>
    </g>
    <g id="ytick_7">
     <g id="line2d_29">
      <defs>
       <path d="
M0 0
L2 0" id="ma7424019bd"/>
      </defs>
      <g>
       <use style="stroke:#000000;stroke-linecap:butt;stroke-width:0.5;" x="20.1203125" xlink:href="#ma7424019bd" y="370.953341097"/>
      </g>
     </g>
    </g>
    <g id="ytick_8">
     <g id="line2d_30">
      <defs>
       <path d="
M0 0
L2 0" id="ma7424019bd"/>
      </defs>
      <g>
       <use style="stroke:#000000;stroke-linecap:butt;stroke-width:0.5;" x="20.1203125" xlink:href="#ma7424019bd" y="352.219440554"/>
      </g>
     </g>
    </g>
    <g id="ytick_9">
     <g id="line2d_31">
      <defs>
       <path d="
M0 0
L2 0" id="ma7424019bd"/>
      </defs>
      <g>
       <use style="stroke:#000000;stroke-linecap:butt;stroke-width:0.5;" x="20.1203125" xlink:href="#ma7424019bd" y="333.48554001"/>
      </g>
     </g>
    </g>
    <g id="ytick_10">
     <g id="line2d_32">
      <defs>
       <path d="
M0 0
L2 0" id="ma7424019bd"/>
      </defs>
      <g>
       <use style="stroke:#000000;stroke-linecap:butt;stroke-width:0.5;" x="20.1203125" xlink:href="#ma7424019bd" y="314.751639466"/>
      </g>
     </g>
    </g>
    <g id="ytick_11">
     <g id="line2d_33">
      <defs>
       <path d="
M0 0
L2 0" id="ma7424019bd"/>
      </defs>
      <g>
       <use style="stroke:#000000;stroke-linecap:butt;stroke-width:0.5;" x="20.1203125" xlink:href="#ma7424019bd" y="277.283838379"/>
      </g>
     </g>
    </g>
    <g id="ytick_12">
     <g id="line2d_34">
      <defs>
       <path d="
M0 0
L2 0" id="ma7424019bd"/>
      </defs>
      <g>
       <use style="stroke:#000000;stroke-linecap:butt;stroke-width:0.5;" x="20.1203125" xlink:href="#ma7424019bd" y="258.549937836"/>
      </g>
     </g>
    </g>
    <g id="ytick_13">
     <g id="line2d_35">
      <defs>
       <path d="
M0 0
L2 0" id="ma7424019bd"/>
      </defs>
      <g>
       <use style="stroke:#000000;stroke-linecap:butt;stroke-width:0.5;" x="20.1203125" xlink:href="#ma7424019bd" y="239.816037292"/>
      </g>
     </g>
    </g>
    <g id="ytick_14">
     <g id="line2d_36">
      <defs>
       <path d="
M0 0
L2 0" id="ma7424019bd"/>
      </defs>
      <g>
       <use style="stroke:#000000;stroke-linecap:butt;stroke-width:0.5;" x="20.1203125" xlink:href="#ma7424019bd" y="221.082136749"/>
      </g>
     </g>
    </g>
    <g id="ytick_15">
     <g id="line2d_37">
      <defs>
       <path d="
M0 0
L2 0" id="ma7424019bd"/>
      </defs>
      <g>
       <use style="stroke:#000000;stroke-linecap:butt;stroke-width:0.5;" x="20.1203125" xlink:href="#ma7424019bd" y="202.348236205"/>
      </g>
     </g>
    </g>
    <g id="ytick_16">
     <g id="line2d_38">
      <defs>
       <path d="
M0 0
L2 0" id="ma7424019bd"/>
      </defs>
      <g>
       <use style="stroke:#000000;stroke-linecap:butt;stroke-width:0.5;" x="20.1203125" xlink:href="#ma7424019bd" y="183.614335661"/>
      </g>
     </g>
    </g>
    <g id="ytick_17">
     <g id="line2d_39">
      <defs>
       <path d="
M0 0
L2 0" id="ma7424019bd"/>
      </defs>
      <g>
       <use style="stroke:#000000;stroke-linecap:butt;stroke-width:0.5;" x="20.1203125" xlink:href="#ma7424019bd" y="164.880435118"/>
      </g>
     </g>
    </g>
    <g id="ytick_18">
     <g id="line2d_40">
      <defs>
       <path d="
M0 0
L2 0" id="ma7424019bd"/>
      </defs>
      <g>
       <use style="stroke:#000000;stroke-linecap:butt;stroke-width:0.5;" x="20.1203125" xlink:href="#ma7424019bd" y="146.146534574"/>
      </g>
     </g>
    </g>
    <g id="ytick_19">
     <g id="line2d_41">
      <defs>
       <path d="
M0 0
L2 0" id="ma7424019bd"/>
      </defs>
      <g>
       <use style="stroke:#000000;stroke-linecap:butt;stroke-width:0.5;" x="20.1203125" xlink:href="#ma7424019bd" y="127.412634031"/>
      </g>
     </g>
    </g>
    <g id="ytick_20">
     <g id="line2d_42">
      <defs>
       <path d="
M0 0
L2 0" id="ma7424019bd"/>
      </defs>
      <g>
       <use style="stroke:#000000;stroke-linecap:butt;stroke-width:0.5;" x="20.1203125" xlink:href="#ma7424019bd" y="108.678733487"/>
      </g>
     </g>
    </g>
    <g id="ytick_21">
     <g id="line2d_43">
      <defs>
       <path d="
M0 0
L2 0" id="ma7424019bd"/>
      </defs>
      <g>
       <use style="stroke:#000000;stroke-linecap:butt;stroke-width:0.5;" x="20.1203125" xlink:href="#ma7424019bd" y="89.9448329435"/>
      </g>
     </g>
    </g>
    <g id="ytick_22">
     <g id="line2d_44">
      <defs>
       <path d="
M0 0
L2 0" id="ma7424019bd"/>
      </defs>
      <g>
       <use style="stroke:#000000;stroke-linecap:butt;stroke-width:0.5;" x="20.1203125" xlink:href="#ma7424019bd" y="71.2109324"/>
      </g>
     </g>
    </g>
    <g id="ytick_23">
     <g id="line2d_45">
      <defs>
       <path d="
M0 0
L2 0" id="ma7424019bd"/>
      </defs>
      <g>
       <use style="stroke:#000000;stroke-linecap:butt;stroke-width:0.5;" x="20.1203125" xlink:href="#ma7424019bd" y="52.4770318564"/>
      </g>
     </g>
    </g>
    <g id="ytick_24">
     <g id="line2d_46">
      <defs>
       <path d="
M0 0
L2 0" id="ma7424019bd"/>
      </defs>
      <g>
       <use style="stroke:#000000;stroke-linecap:butt;stroke-width:0.5;" x="20.1203125" xlink:href="#ma7424019bd" y="33.7431313128"/>
      </g>
     </g>
    </g>
   </g>
   <g id="patch_3">
    <path d="
M9.6259 15.0092
L555.336 15.0092" style="fill:none;stroke:#000000;stroke-width:0.8;"/>
   </g>
   <g id="patch_4">
    <path d="
M20.1203 413.28
L20.1203 7.2" style="fill:none;stroke:#000000;stroke-width:0.8;"/>
   </g>
  </g>
 </g>
 <defs>
  <clipPath id="pbf9a93ed35">
   <rect height="406.08" width="545.709992448" x="9.62590006332" y="7.2"/>
  </clipPath>
 </defs>
</svg>
