<?xml version="1.0" encoding="utf-8" standalone="no"?>
<!DOCTYPE svg PUBLIC "-//W3C//DTD SVG 1.1//EN"
  "http://www.w3.org/Graphics/SVG/1.1/DTD/svg11.dtd">
<!-- Created with matplotlib (http://matplotlib.sourceforge.net/) -->
<svg height="419pt" version="1.1" viewBox="0 0 564 419" width="564pt" xmlns="http://www.w3.org/2000/svg" xmlns:xlink="http://www.w3.org/1999/xlink">
 <defs>
  <style type="text/css">
*{stroke-linecap:square;stroke-linejoin:round;}
  </style>
 </defs>
 <g id="figure_1">
  <g id="patch_1">
   <path d="
M4.44089e-16 419.439
L564.626 419.439
L564.626 0
L4.44089e-16 0
z
" style="fill:#ffffff;"/>
  </g>
  <g id="axes_1">
   <g id="patch_2">
    <path d="
M42.6088 412.239
L557.426 412.239
L557.426 8.51291
L42.6088 8.51291
z
" style="fill:#ffffff;"/>
   </g>
   <g id="line2d_1">
    <path clip-path="url(#p51b3ba9df9)" d="
M52.5091 16.2769
L63.8311 16.2769
L63.8311 35.4632
L78.0952 35.4632
L78.0952 69.0627
L87.4908 69.0627
L87.4908 94.5213
L100.112 94.5213
L100.112 130.187
L104.777 130.187
L104.777 144.113
L112.267 144.113
L112.267 168.329
L115.373 168.329
L115.373 179.046
L120.708 179.046
L120.708 191.334
L127.181 191.334
L127.181 207.446
L129.043 207.446
L129.043 212.548
L133.984 212.548
L133.984 221.897
L136.85 221.897
L136.85 228.069
L138.18 228.069
L138.18 231.392
L140.664 231.392
L140.664 236.007
L144.019 236.007
L144.019 243.129
L147.013 243.129
L147.013 250.093
L147.944 250.093
L147.944 251.721
L150.564 251.721
L150.564 257.068
L152.183 257.068
L152.183 260.762
L152.959 260.762
L152.959 262.757
L155.165 262.757
L155.165 268.969
L156.544 268.969
L156.544 273.126
L158.493 273.126
L158.493 279.369
L160.896 279.369
L160.896 287.349
L162.025 287.349
L162.025 291.257
L162.572 291.257
L162.572 293.279
L163.636 293.279
L163.636 297.449
L164.153 297.449
L164.153 299.589
L165.16 299.589
L165.16 303.345
L168.421 303.345
L168.421 313.761
L169.287 313.761
L169.287 316.096
L170.538 316.096
L170.538 318.997
L170.942 318.997
L170.942 320.021
L172.882 320.021
L172.882 324.211
L173.255 324.211
L173.255 324.883
L174.343 324.883
L174.343 327.077
L175.39 327.077
L175.39 329.377
L176.067 329.377
L176.067 330.99
L177.052 330.99
L177.052 333.025
L178.004 333.025
L178.004 334.688
L178.315 334.688
L178.315 335.292
L179.816 335.292
L179.816 337.762
L180.107 337.762
L180.107 338.292
L180.68 338.292
L180.68 339.453
L180.962 339.453
L180.962 339.95
L182.597 339.95
L182.597 343.098
L184.142 343.098
L184.142 345.558
L184.638 345.558
L184.638 346.425
L184.883 346.425
L184.883 346.794
L185.367 346.794
L185.367 347.614
L186.077 347.614
L186.077 348.942
L186.309 348.942
L186.309 349.321
L187.445 349.321
L187.445 351.354
L188.104 351.354
L188.104 352.36
L188.749 352.36
L188.749 353.186
L189.378 353.186
L189.378 354.098
L189.585 354.098
L189.585 354.351
L190.197 354.351
L190.197 355.206
L190.597 355.206
L190.597 355.675
L190.795 355.675
L190.795 355.943
L191.765 355.943
L191.765 357.408
L193.068 357.408
L193.068 359.532
L193.43 359.532
L193.43 360.035
L193.609 360.035
L193.609 360.314
L193.963 360.314
L193.963 360.796
L195.17 360.796
L195.17 362.601
L195.672 362.601
L195.672 363.236
L196.488 363.236
L196.488 364.384
L196.649 364.384
L196.649 364.577
L196.967 364.577
L196.967 365.01
L197.438 365.01
L197.438 365.56
L198.053 365.56
L198.053 366.366
L198.506 366.366
L198.506 366.869
L198.951 366.869
L198.951 367.428
L199.245 367.428
L199.245 367.741
L199.679 367.741
L199.679 368.269
L200.247 368.269
L200.247 368.851
L200.527 368.851
L200.527 369.086
L201.079 369.086
L201.079 369.628
L201.753 369.628
L201.753 370.379
L201.886 370.379
L201.886 370.546
L202.542 370.546
L202.542 371.457
L202.671 371.457
L202.671 371.613
L203.055 371.613
L203.055 372.012
L203.308 372.012
L203.308 372.232
L203.684 372.232
L203.684 372.494
L204.177 372.494
L204.177 372.905
L204.421 372.905
L204.421 373.141
L204.541 373.141
L204.541 373.276
L204.782 373.276
L204.782 373.577
L205.49 373.577
L205.49 374.342
L205.953 374.342
L205.953 374.759
L206.181 374.759
L206.181 374.928
L206.632 374.928
L206.632 375.32
L206.855 375.32
L206.855 375.543
L207.186 375.543
L207.186 375.918
L207.837 375.918
L207.944 376.631
L208.889 376.631
L208.889 377.233
L209.197 377.233
L209.197 377.465
L209.703 377.465
L209.703 377.767
L210.002 377.767
L210.002 377.899
L210.298 377.899
L210.396 378.136
L210.688 378.136
L210.688 378.298
L211.168 378.298
L211.168 378.622
L211.452 378.622
L211.452 378.847
L211.733 378.847
L211.826 379.077
L212.103 379.077
L212.103 379.252
L212.378 379.252
L212.378 379.387
L212.559 379.387
L212.65 379.565
L213.186 379.565
L213.186 379.885
L213.625 379.885
L213.712 380.244
L213.885 380.244
L213.885 380.363
L214.143 380.363
L214.143 380.506
L214.483 380.612
L214.483 380.658
L214.985 380.658
L214.985 380.986
L215.397 381.071
L215.397 381.164
L215.722 381.164
L215.722 381.326
L216.124 381.326
L216.124 381.569
L216.44 381.569
L216.44 381.718
L216.832 381.718
L216.832 381.944
L217.141 381.944
L217.141 382.156
L217.37 382.156
L217.37 382.339
L217.598 382.339
L217.598 382.546
L217.748 382.546
L217.748 382.664
L218.047 382.664
L218.047 382.858
L218.27 382.858
L218.27 383.026
L218.417 383.026
L218.417 383.154
L218.709 383.154
L218.709 383.44
L218.854 383.44
L218.854 383.563
L219.355 383.563
L219.355 384.04
L219.708 384.04
L219.708 384.328
L220.125 384.328
L220.194 384.764
L220.536 384.764
L220.604 385.029
L221.142 385.123
L221.142 385.337
L221.604 385.337
L221.604 385.575
L221.799 385.655
L221.799 385.687
L222.378 385.737
L222.378 385.855
L222.695 385.932
L222.695 386.005
L223.318 386.005
L223.318 386.424
L223.685 386.518
L223.685 386.73
L223.987 386.73
L223.987 386.956
L224.226 386.956
L224.226 387.158
L224.523 387.244
L224.523 387.391
L224.699 387.391
L224.699 387.518
L225.106 387.518
L225.106 387.847
L225.394 387.927
L225.394 388.027
L225.565 388.027
L225.565 388.143
L225.791 388.143
L225.791 388.318
L225.96 388.318
L225.96 388.465
L226.294 388.465
L226.404 388.881
L226.569 388.881
L226.624 389.038
L226.896 389.038
L226.95 389.27
L227.379 389.354
L227.432 389.478
L228.373 389.564
L228.475 389.731
L228.781 389.812
L228.781 389.912
L229.133 389.995
L229.133 390.124
L229.431 390.233
L229.431 390.356
L229.97 390.356
L230.019 390.778
L230.26 390.778
L230.26 390.946
L230.451 390.946
L230.451 391.059
L230.689 391.059
L230.689 391.219
L230.971 391.328
L230.971 391.421
L231.158 391.421
L231.158 391.561
L231.435 391.561
L231.527 391.792
L231.847 391.901
L231.847 391.921
L232.252 391.968
L232.252 392.085
L232.871 392.158
L232.915 392.344
L233.176 392.443
L233.176 392.46
L233.52 392.553
L233.52 392.602
L233.775 392.602
L233.817 392.737
L234.65 392.773
L234.65 393.027
L234.895 393.08
L234.895 393.143
L235.419 393.241
L235.419 393.423
L235.618 393.423
L235.618 393.539
L235.894 393.539
L235.972 393.703
L236.361 393.8
L236.438 393.922
L236.82 393.995
L236.82 394.079
L237.122 394.183
L237.16 394.255
L237.347 394.313
L237.347 394.39
L237.569 394.39
L237.569 394.56
L237.79 394.56
L237.79 394.745
L238.155 394.854
L238.263 395.131
L238.443 395.189
L238.443 395.285
L238.586 395.285
L238.657 395.486
L238.799 395.486
L238.869 395.695
L239.115 395.695
L239.185 395.999
L239.29 395.999
L239.394 396.242
L239.497 396.242
L239.532 396.428
L239.635 396.428
L239.635 396.582
L239.806 396.582
L239.806 396.849
L240.145 396.849
L240.246 397.57
L240.347 397.678
L240.347 397.729
L240.745 397.729
L240.844 398.509
L241.008 398.509
L241.008 398.727
L241.203 398.727
L241.236 399.007
L241.397 399.007
L241.397 399.206
L241.526 399.206
L241.622 399.49
L241.718 399.49
L241.813 399.743
L242.097 399.743
L242.192 400.218
L242.285 400.297
L242.285 400.338
L242.472 400.338
L242.472 400.572
L242.627 400.572
L242.627 400.776
L242.811 400.776
L242.811 401.004
L242.933 401.004
L242.933 401.145
L243.176 401.145
L243.176 401.404
L243.387 401.404
L243.477 401.69
L243.626 401.775
L243.656 401.849
L243.804 401.849
L243.804 401.991
L243.981 401.991
L244.069 402.256
L244.418 402.345
L244.447 402.657
L244.677 402.657
L244.706 402.892
L245.019 402.892
L245.104 403.187
L245.301 403.255
L245.385 403.338
L245.773 403.44
L245.801 403.526
L246.129 403.615
L246.129 403.723
L246.346 403.809
L246.346 403.854
L246.614 403.961
L246.614 403.971
L247.144 404.06
L247.249 404.14
L247.792 404.226
L247.792 404.263
L249.07 404.368
L249.143 404.407
L252.821 404.324
L252.907 404.271
L254.077 404.163
L254.097 404.156
L255.571 404.049
L255.649 403.983
L256.28 403.884
L256.374 403.854
L260.125 403.753
L260.142 403.701
L260.485 403.634
L260.485 403.574
L260.761 403.475
L260.777 403.45
L261.017 403.355
L261.113 403.256
L261.35 403.146
L261.398 403.116
L261.757 403.009
L261.866 402.932
L262.266 402.829
L262.372 402.758
L262.645 402.668
L262.72 402.611
L263.033 402.542
L263.093 402.431
L263.299 402.326
L263.344 402.275
L263.563 402.176
L263.665 402.053
L263.882 401.967
L263.968 401.824
L264.125 401.723
L264.211 401.62
L264.353 401.56
L264.381 401.444
L264.522 401.444
L264.522 401.297
L264.677 401.297
L264.775 401.043
L264.9 400.936
L264.942 400.889
L265.094 400.889
L265.149 400.711
L265.3 400.619
L265.396 400.507
L265.627 400.413
L265.708 400.252
L265.829 400.163
L265.842 400.128
L266.123 400.021
L266.229 399.79
L266.387 399.712
L266.466 399.606
L266.663 399.506
L266.754 399.36
L266.948 399.36
L267.025 399.08
L267.141 399.01
L267.243 398.848
L267.358 398.848
L267.396 398.695
L267.548 398.62
L267.561 398.537
L267.712 398.43
L267.812 398.307
L267.999 398.207
L268.086 398.085
L268.333 398.008
L268.419 397.852
L268.638 397.745
L268.675 397.707
L268.916 397.6
L269 397.539
L269.275 397.431
L269.381 397.336
L269.746 397.258
L269.851 397.185
L274.383 397.078
L274.491 397.055
L276.987 397.166
L277.086 397.193
L279.161 397.086
L279.236 397.042
L279.583 396.932
L279.69 396.88
L280.023 396.772
L280.047 396.755
L280.432 396.652
L280.535 396.611
L281.67 396.507
L281.746 396.477
L282.221 396.377
L282.303 396.33
L282.994 396.22
L283.103 396.204
L285.923 396.308
L286.008 396.338
L286.416 396.445
L286.512 396.486
L286.831 396.586
L286.925 396.643
L287.214 396.745
L287.308 396.793
L287.58 396.9
L287.679 396.945
L288.039 397.055
L288.136 397.084
L292.038 396.974
L292.143 396.948
L292.61 396.843
L292.718 396.802
L293.009 396.697
L293.07 396.662
L293.332 396.562
L293.437 396.506
L293.686 396.405
L293.795 396.327
L293.982 396.23
L294.089 396.16
L294.361 396.061
L294.467 395.989
L294.765 395.884
L294.826 395.84
L295.054 395.729
L295.12 395.683
L295.293 395.575
L295.401 395.496
L295.596 395.399
L295.707 395.288
L295.886 395.22
L295.986 395.091
L296.173 394.983
L296.227 394.907
L296.394 394.8
L296.475 394.736
L296.658 394.626
L296.756 394.536
L296.924 394.431
L297.021 394.354
L297.192 394.26
L297.296 394.175
L297.539 394.077
L297.63 393.981
L297.801 393.872
L297.899 393.783
L298.044 393.678
L298.154 393.593
L298.36 393.486
L298.443 393.428
L298.656 393.318
L298.747 393.261
L298.953 393.158
L299.026 393.093
L299.234 392.997
L299.332 392.919
L299.577 392.816
L299.67 392.764
L299.948 392.657
L300.051 392.593
L300.368 392.486
L300.462 392.437
L300.694 392.335
L300.798 392.269
L300.982 392.163
L301.066 392.096
L301.225 391.989
L301.327 391.899
L301.47 391.795
L301.571 391.703
L301.72 391.604
L301.816 391.5
L301.96 391.389
L302.063 391.278
L302.191 391.18
L302.271 391.091
L302.42 390.981
L302.529 390.884
L302.723 390.774
L302.834 390.684
L302.984 390.629
L303.09 390.475
L303.217 390.42
L303.322 390.274
L303.448 390.187
L303.522 390.084
L303.633 389.981
L303.709 389.896
L303.84 389.812
L303.937 389.684
L304.067 389.577
L304.172 389.461
L304.291 389.35
L304.372 389.261
L304.497 389.183
L304.595 389.027
L304.708 388.953
L304.805 388.802
L304.944 388.706
L305.053 388.55
L305.175 388.451
L305.283 388.294
L305.381 388.202
L305.488 388.038
L305.631 387.934
L305.741 387.733
L305.834 387.645
L305.939 387.477
L306.029 387.402
L306.124 387.238
L306.216 387.179
L306.304 387.001
L306.414 386.903
L306.521 386.721
L306.612 386.617
L306.717 386.473
L306.817 386.405
L306.903 386.253
L307.014 386.167
L307.112 386.031
L307.231 385.921
L307.335 385.819
L307.459 385.709
L307.553 385.616
L307.694 385.516
L307.805 385.389
L307.957 385.283
L308.055 385.2
L308.202 385.101
L308.308 384.994
L308.44 384.92
L308.53 384.793
L308.652 384.685
L308.748 384.581
L308.869 384.484
L308.972 384.369
L309.107 384.264
L309.218 384.164
L309.348 384.054
L309.441 383.963
L309.573 383.875
L309.683 383.759
L309.819 383.655
L309.919 383.533
L310.041 383.439
L310.148 383.32
L310.29 383.209
L310.397 383.078
L310.519 382.968
L310.63 382.855
L310.751 382.754
L310.856 382.651
L310.987 382.544
L311.088 382.446
L311.242 382.339
L311.35 382.235
L311.507 382.129
L311.609 382.028
L311.742 381.918
L311.845 381.834
L312.021 381.727
L312.128 381.651
L312.307 381.547
L312.406 381.46
L312.555 381.351
L312.646 381.28
L312.796 381.172
L312.901 381.086
L313.067 380.979
L313.171 380.88
L313.316 380.783
L313.426 380.68
L313.565 380.57
L313.674 380.46
L313.807 380.35
L313.901 380.263
L314.028 380.165
L314.135 380.044
L314.266 379.935
L314.356 379.857
L314.521 379.748
L314.619 379.677
L314.808 379.566
L314.917 379.494
L315.072 379.388
L315.176 379.306
L315.327 379.216
L315.42 379.113
L315.556 379.008
L315.665 378.914
L315.822 378.817
L315.914 378.742
L316.096 378.633
L316.207 378.555
L316.412 378.447
L316.52 378.376
L316.774 378.265
L316.885 378.223
L317.185 378.114
L317.29 378.07
L317.613 377.963
L317.708 377.924
L317.975 377.814
L318.068 377.763
L318.336 377.657
L318.446 377.597
L318.67 377.491
L318.779 377.402
L318.942 377.292
L319.052 377.207
L319.189 377.097
L319.3 377.002
L319.474 376.9
L319.584 376.797
L319.777 376.686
L319.884 376.611
L320.093 376.501
L320.202 376.44
L320.389 376.332
L320.494 376.252
L320.67 376.144
L320.775 376.083
L321.001 375.978
L321.107 375.91
L321.301 375.802
L321.412 375.719
L321.564 375.618
L321.673 375.52
L321.815 375.416
L321.917 375.313
L322.042 375.221
L322.145 375.091
L322.272 374.986
L322.37 374.872
L322.506 374.765
L322.617 374.663
L322.782 374.566
L322.892 374.451
L323.077 374.342
L323.186 374.241
L323.327 374.133
L323.435 374.042
L323.583 373.941
L323.69 373.852
L323.867 373.743
L323.976 373.666
L324.171 373.556
L324.275 373.505
L324.48 373.398
L324.562 373.34
L324.773 373.231
L324.87 373.18
L325.113 373.071
L325.223 373.01
L325.44 372.903
L325.545 372.85
L325.772 372.745
L325.857 372.694
L326.095 372.585
L326.193 372.536
L326.488 372.427
L326.598 372.384
L326.853 372.282
L326.961 372.208
L327.158 372.101
L327.261 372.033
L327.457 371.936
L327.55 371.871
L327.752 371.762
L327.862 371.704
L328.076 371.593
L328.187 371.533
L328.428 371.424
L328.522 371.367
L328.735 371.256
L328.842 371.205
L329.038 371.094
L329.14 371.028
L329.319 370.924
L329.427 370.834
L329.575 370.725
L329.674 370.642
L329.819 370.532
L329.922 370.442
L330.056 370.335
L330.164 370.24
L330.308 370.133
L330.412 370.029
L330.551 369.919
L330.66 369.817
L330.781 369.718
L330.887 369.599
L331.004 369.504
L331.113 369.378
L331.239 369.28
L331.346 369.174
L331.462 369.063
L331.572 368.948
L331.687 368.842
L331.795 368.732
L331.934 368.64
L332.039 368.514
L332.197 368.403
L332.301 368.323
L332.483 368.223
L332.594 368.142
L332.793 368.042
L332.888 367.961
L333.034 367.852
L333.14 367.763
L333.308 367.653
L333.417 367.569
L333.584 367.458
L333.694 367.373
L333.844 367.272
L333.942 367.192
L334.11 367.084
L334.217 367.013
L334.394 366.907
L334.501 366.83
L334.702 366.721
L334.806 366.661
L334.988 366.552
L335.096 366.474
L335.276 366.366
L335.38 366.282
L335.536 366.176
L335.642 366.088
L335.784 365.982
L335.894 365.89
L336.056 365.784
L336.165 365.7
L336.33 365.59
L336.432 365.523
L336.579 365.415
L336.688 365.321
L336.822 365.214
L336.933 365.112
L337.065 365.003
L337.174 364.892
L337.305 364.784
L337.409 364.677
L337.542 364.566
L337.647 364.465
L337.795 364.359
L337.901 364.262
L338.045 364.16
L338.151 364.068
L338.301 363.96
L338.412 363.864
L338.564 363.761
L338.671 363.68
L338.829 363.57
L338.94 363.496
L339.122 363.387
L339.233 363.313
L339.421 363.202
L339.53 363.142
L339.74 363.034
L339.85 362.954
L340.06 362.844
L340.17 362.778
L340.431 362.671
L340.536 362.628
L340.86 362.517
L340.97 362.474
L341.365 362.365
L341.475 362.346
L342.513 362.236
L342.622 362.219
L343.018 362.109
L343.127 362.064
L343.369 361.953
L343.479 361.889
L343.661 361.778
L343.77 361.71
L343.955 361.6
L344.065 361.537
L344.272 361.428
L344.381 361.354
L344.553 361.243
L344.66 361.17
L344.845 361.059
L344.949 360.982
L345.129 360.872
L345.237 360.796
L345.402 360.686
L345.506 360.606
L345.655 360.496
L345.759 360.421
L345.939 360.314
L346.048 360.229
L346.205 360.126
L346.316 360.023
L346.442 359.912
L346.551 359.801
L346.666 359.691
L346.766 359.594
L346.874 359.486
L346.985 359.359
L347.095 359.252
L347.204 359.134
L347.317 359.026
L347.428 358.912
L347.552 358.801
L347.662 358.704
L347.785 358.595
L347.891 358.498
L348.026 358.387
L348.136 358.28
L348.262 358.169
L348.372 358.064
L348.482 357.954
L348.592 357.839
L348.705 357.73
L348.815 357.613
L348.927 357.511
L349.033 357.38
L349.139 357.28
L349.238 357.143
L349.34 357.033
L349.449 356.921
L349.575 356.811
L349.68 356.716
L349.808 356.611
L349.917 356.494
L350.028 356.384
L350.138 356.25
L350.233 356.147
L350.344 356.006
L350.447 355.897
L350.554 355.751
L350.648 355.64
L350.752 355.507
L350.842 355.398
L350.953 355.254
L351.039 355.152
L351.15 355.003
L351.24 354.899
L351.35 354.762
L351.453 354.651
L351.56 354.533
L351.67 354.423
L351.781 354.303
L351.885 354.196
L351.996 354.075
L352.115 353.969
L352.22 353.851
L352.331 353.744
L352.439 353.634
L352.55 353.525
L352.661 353.411
L352.777 353.3
L352.886 353.204
L353.012 353.093
L353.123 352.991
L353.243 352.885
L353.353 352.781
L353.488 352.671
L353.599 352.578
L353.728 352.468
L353.837 352.382
L353.99 352.275
L354.095 352.195
L354.254 352.085
L354.362 352.007
L354.528 351.897
L354.637 351.825
L354.817 351.717
L354.922 351.64
L355.083 351.529
L355.193 351.448
L355.356 351.337
L355.464 351.267
L355.638 351.156
L355.747 351.092
L355.923 350.981
L356.027 350.913
L356.215 350.806
L356.321 350.744
L356.531 350.633
L356.641 350.559
L356.818 350.448
L356.929 350.379
L357.156 350.268
L357.266 350.213
L357.482 350.102
L357.588 350.037
L357.806 349.928
L357.915 349.88
L358.176 349.769
L358.286 349.728
L358.627 349.617
L358.735 349.579
L359.045 349.47
L359.155 349.429
L359.5 349.319
L359.608 349.281
L360.162 349.17
L360.272 349.152
L360.847 349.041
L360.956 349.011
L361.452 348.9
L361.562 348.884
L364.544 348.773
L364.651 348.756
L365.246 348.645
L365.357 348.631
L366.004 348.52
L366.113 348.501
L367.36 348.391
L367.47 348.365
L368.059 348.254
L368.169 348.229
L368.742 348.118
L368.85 348.099
L371.223 347.988
L371.333 347.962
L372.212 347.851
L372.322 347.832
L372.747 347.722
L372.858 347.687
L373.275 347.577
L373.386 347.547
L373.991 347.436
L374.102 347.407
L374.398 347.296
L374.505 347.235
L374.702 347.124
L374.813 347.052
L374.984 346.941
L375.094 346.865
L375.249 346.754
L375.359 346.668
L375.511 346.557
L375.622 346.472
L375.774 346.361
L375.884 346.279
L376.021 346.169
L376.131 346.066
L376.257 345.956
L376.366 345.852
L376.492 345.741
L376.603 345.646
L376.755 345.535
L376.865 345.45
L377.028 345.339
L377.137 345.268
L377.316 345.158
L377.427 345.093
L377.649 344.982
L377.759 344.931
L377.977 344.821
L378.088 344.75
L378.259 344.641
L378.369 344.557
L378.506 344.448
L378.616 344.351
L378.748 344.244
L378.858 344.147
L379.004 344.037
L379.116 343.95
L379.244 343.841
L379.352 343.744
L379.491 343.633
L379.601 343.555
L379.773 343.445
L379.883 343.391
L380.12 343.281
L380.229 343.229
L380.443 343.118
L380.554 343.064
L380.802 342.953
L380.909 342.898
L381.113 342.788
L381.223 342.734
L381.487 342.623
L381.595 342.574
L381.867 342.463
L381.974 342.416
L382.233 342.305
L382.343 342.27
L382.696 342.159
L382.807 342.124
L383.161 342.014
L383.271 341.978
L383.57 341.867
L383.681 341.822
L384.086 341.711
L384.196 341.681
L384.562 341.57
L384.674 341.537
L385.083 341.426
L385.193 341.386
L385.429 341.275
L385.54 341.229
L385.805 341.118
L385.916 341.071
L386.182 340.96
L386.293 340.916
L387.024 340.805
L387.135 340.789
L387.647 340.678
L387.758 340.659
L389.981 340.548
L390.09 340.53
L390.679 340.419
L390.79 340.391
L391.095 340.281
L391.206 340.235
L391.483 340.124
L391.593 340.073
L391.825 339.962
L391.936 339.91
L392.157 339.799
L392.268 339.739
L392.493 339.629
L392.603 339.576
L392.843 339.465
L392.954 339.407
L393.201 339.296
L393.312 339.248
L393.561 339.137
L393.671 339.084
L393.903 338.974
L394.013 338.915
L394.23 338.804
L394.341 338.752
L394.616 338.642
L394.727 338.605
L395.075 338.494
L395.185 338.457
L395.471 338.346
L395.581 338.303
L395.814 338.194
L395.924 338.141
L396.22 338.03
L396.33 337.99
L396.64 337.879
L396.751 337.83
L397.017 337.719
L397.128 337.675
L397.389 337.564
L397.5 337.513
L397.798 337.402
L397.907 337.359
L398.321 337.248
L398.432 337.232
L399.909 337.343
L400.02 337.372
L400.302 337.483
L400.413 337.529
L400.672 337.64
L400.783 337.69
L401.132 337.8
L401.242 337.833
L401.608 337.943
L401.719 337.977
L402.128 338.088
L402.238 338.119
L402.627 338.23
L402.738 338.265
L403.041 338.376
L403.152 338.417
L403.521 338.528
L403.632 338.553
L404.186 338.664
L404.297 338.694
L404.808 338.805
L404.919 338.828
L405.452 338.939
L405.562 338.96
L406.009 339.071
L406.119 339.109
L406.484 339.22
L406.595 339.256
L406.972 339.367
L407.082 339.4
L407.388 339.511
L407.499 339.566
L407.721 339.677
L407.832 339.737
L408.042 339.848
L408.153 339.899
L408.408 340.01
L408.519 340.066
L408.728 340.177
L408.838 340.224
L409.104 340.335
L409.214 340.381
L409.484 340.492
L409.595 340.531
L409.844 340.642
L409.955 340.693
L410.197 340.804
L410.308 340.854
L410.555 340.965
L410.666 341.022
L410.903 341.133
L411.014 341.174
L411.403 341.285
L411.513 341.318
L411.848 341.429
L411.96 341.463
L412.302 341.574
L412.411 341.601
L413.256 341.712
L413.367 341.728
L413.82 341.839
L413.931 341.864
L414.39 341.975
L414.501 341.999
L414.97 342.11
L415.08 342.134
L415.559 342.245
L415.67 342.261
L417.483 342.15
L417.594 342.134
L418.346 342.023
L418.456 342.005
L418.928 341.894
L419.038 341.864
L419.376 341.753
L419.487 341.719
L419.88 341.608
L419.991 341.58
L420.314 341.469
L420.424 341.429
L420.796 341.318
L420.907 341.281
L421.255 341.17
L421.366 341.138
L421.827 341.027
L421.937 340.994
L422.29 340.883
L422.401 340.85
L422.772 340.739
L422.882 340.707
L423.202 340.596
L423.313 340.55
L423.526 340.439
L423.637 340.378
L423.849 340.267
L423.96 340.217
L424.245 340.106
L424.356 340.051
L424.578 339.941
L424.689 339.884
L424.903 339.773
L425.013 339.713
L425.219 339.602
L425.33 339.54
L425.506 339.429
L425.617 339.36
L425.785 339.249
L425.895 339.174
L426.055 339.064
L426.166 338.98
L426.317 338.869
L426.427 338.794
L426.591 338.683
L426.702 338.611
L426.88 338.5
L426.991 338.422
L427.14 338.311
L427.251 338.231
L427.412 338.12
L427.523 338.042
L427.676 337.931
L427.787 337.851
L427.944 337.74
L428.055 337.654
L428.209 337.543
L428.32 337.469
L428.494 337.358
L428.605 337.293
L428.811 337.182
L428.922 337.126
L429.161 337.015
L429.271 336.96
L429.478 336.85
L429.588 336.782
L429.797 336.671
L429.908 336.617
L430.148 336.506
L430.258 336.454
L430.516 336.343
L430.626 336.291
L430.835 336.18
L430.946 336.116
L431.126 336.005
L431.236 335.939
L431.411 335.827
L431.522 335.754
L431.686 335.643
L431.797 335.572
L431.96 335.461
L432.071 335.385
L432.244 335.274
L432.355 335.198
L432.502 335.087
L432.613 334.996
L432.76 334.885
L432.871 334.803
L433.021 334.692
L433.132 334.607
L433.268 334.497
L433.379 334.415
L433.533 334.304
L433.644 334.23
L433.829 334.119
L433.94 334.052
L434.142 333.941
L434.253 333.878
L434.435 333.767
L434.546 333.699
L434.729 333.588
L434.839 333.522
L435.017 333.411
L435.128 333.342
L435.34 333.231
L435.451 333.174
L435.671 333.063
L435.783 333.004
L435.967 332.893
L436.078 332.817
L436.241 332.706
L436.352 332.629
L436.511 332.517
L436.622 332.443
L436.799 332.332
L436.91 332.264
L437.114 332.153
L437.225 332.091
L437.401 331.98
L437.511 331.901
L437.67 331.79
L437.781 331.706
L437.927 331.595
L438.038 331.512
L438.183 331.401
L438.294 331.323
L438.461 331.212
L438.572 331.146
L438.73 331.035
L438.841 330.959
L439.012 330.848
L439.123 330.773
L439.287 330.662
L439.397 330.586
L439.544 330.475
L439.656 330.385
L439.805 330.274
L439.916 330.194
L440.07 330.083
L440.181 329.996
L440.313 329.885
L440.423 329.785
L440.548 329.674
L440.659 329.566
L440.769 329.455
L440.88 329.344
L440.993 329.233
L441.104 329.127
L441.238 329.016
L441.348 328.928
L441.486 328.817
L441.597 328.719
L441.728 328.607
L441.839 328.508
L441.963 328.397
L442.074 328.299
L442.2 328.188
L442.311 328.086
L442.431 327.975
L442.542 327.869
L442.659 327.758
L442.77 327.654
L442.887 327.543
L442.998 327.431
L443.118 327.32
L443.229 327.226
L443.366 327.116
L443.477 327.036
L443.642 326.925
L443.753 326.852
L443.914 326.741
L444.025 326.664
L444.175 326.553
L444.286 326.468
L444.437 326.357
L444.549 326.277
L444.69 326.166
L444.801 326.073
L444.928 325.962
L445.039 325.863
L445.166 325.752
L445.277 325.654
L445.393 325.543
L445.504 325.435
L445.617 325.324
L445.728 325.222
L445.858 325.111
L445.969 325.019
L446.092 324.907
L446.203 324.809
L446.337 324.698
L446.447 324.606
L446.573 324.495
L446.684 324.387
L446.798 324.276
L446.909 324.164
L447.017 324.053
L447.127 323.94
L447.243 323.829
L447.354 323.72
L447.466 323.609
L447.577 323.496
L447.686 323.385
L447.797 323.273
L447.905 323.162
L448.016 323.048
L448.129 322.937
L448.24 322.826
L448.348 322.715
L448.459 322.603
L448.572 322.492
L448.683 322.385
L448.807 322.274
L448.918 322.178
L449.052 322.067
L449.163 321.975
L449.295 321.864
L449.406 321.771
L449.536 321.66
L449.647 321.556
L449.759 321.445
L449.87 321.328
L449.978 321.217
L450.089 321.103
L450.19 320.992
L450.301 320.869
L450.408 320.758
L450.519 320.64
L450.621 320.529
L450.732 320.399
L450.826 320.289
L450.937 320.143
L451.019 320.033
L451.13 319.883
L451.215 319.772
L451.326 319.63
L451.414 319.519
L451.525 319.372
L451.608 319.261
L451.719 319.111
L451.804 319
L451.915 318.857
L452.002 318.746
L452.113 318.609
L452.203 318.498
L452.314 318.349
L452.396 318.238
L452.507 318.09
L452.595 317.979
L452.705 317.843
L452.798 317.732
L452.909 317.607
L453.009 317.495
L453.12 317.372
L453.222 317.26
L453.333 317.138
L453.433 317.027
L453.544 316.904
L453.643 316.793
L453.754 316.665
L453.851 316.554
L453.962 316.431
L454.059 316.32
L454.17 316.198
L454.275 316.087
L454.386 315.967
L454.49 315.856
L454.601 315.742
L454.711 315.631
L454.822 315.515
L454.923 315.404
L455.034 315.286
L455.142 315.175
L455.253 315.064
L455.376 314.953
L455.487 314.857
L455.623 314.746
L455.734 314.652
L455.859 314.54
L455.97 314.439
L456.093 314.328
L456.204 314.222
L456.317 314.11
L456.428 314.003
L456.543 313.892
L456.654 313.793
L456.779 313.682
L456.89 313.582
L457.017 313.471
L457.128 313.37
L457.249 313.259
L457.36 313.161
L457.483 313.05
L457.595 312.952
L457.716 312.841
L457.827 312.736
L457.941 312.625
L458.052 312.518
L458.17 312.407
L458.281 312.299
L458.387 312.188
L458.498 312.067
L458.601 311.956
L458.712 311.837
L458.811 311.726
L458.922 311.6
L459.017 311.489
L459.128 311.357
L459.226 311.246
L459.337 311.124
L459.436 311.013
L459.547 310.887
L459.647 310.776
L459.758 310.647
L459.854 310.536
L459.965 310.407
L460.062 310.296
L460.173 310.18
L460.286 310.069
L460.397 309.971
L460.538 309.86
L460.649 309.767
L460.789 309.656
L460.9 309.567
L461.039 309.456
L461.15 309.378
L461.306 309.267
L461.417 309.184
L461.551 309.073
L461.662 308.976
L461.795 308.865
L461.906 308.774
L462.041 308.663
L462.152 308.559
L462.269 308.448
L462.38 308.349
L462.511 308.238
L462.622 308.14
L462.753 308.029
L462.864 307.933
L462.991 307.822
L463.102 307.735
L463.25 307.624
L463.361 307.546
L463.504 307.435
L463.615 307.342
L463.743 307.231
L463.854 307.127
L463.973 307.016
L464.084 306.918
L464.213 306.807
L464.324 306.717
L464.466 306.606
L464.577 306.519
L464.718 306.408
L464.829 306.315
L464.959 306.204
L465.07 306.112
L465.201 306.001
L465.312 305.907
L465.444 305.796
L465.555 305.706
L465.679 305.595
L465.791 305.499
L465.924 305.388
L466.035 305.289
L466.164 305.178
L466.275 305.087
L466.416 304.976
L466.527 304.893
L466.691 304.782
L466.802 304.703
L466.951 304.592
L467.062 304.509
L467.209 304.398
L467.32 304.308
L467.455 304.197
L467.566 304.112
L467.705 304.001
L467.816 303.906
L467.962 303.795
L468.073 303.71
L468.227 303.599
L468.339 303.528
L468.527 303.417
L468.638 303.355
L468.829 303.243
L468.94 303.172
L469.102 303.061
L469.213 302.983
L469.371 302.872
L469.482 302.789
L469.62 302.678
L469.731 302.579
L469.855 302.468
L469.967 302.36
L470.074 302.249
L470.185 302.138
L470.302 302.027
L470.413 301.922
L470.524 301.811
L470.635 301.697
L470.75 301.586
L470.861 301.481
L470.977 301.37
L471.088 301.261
L471.203 301.15
L471.314 301.045
L471.435 300.934
L471.546 300.826
L471.652 300.715
L471.763 300.596
L471.861 300.485
L471.972 300.358
L472.069 300.247
L472.18 300.12
L472.277 300.009
L472.388 299.891
L472.497 299.78
L472.608 299.673
L472.738 299.562
L472.849 299.476
L472.981 299.365
L473.092 299.273
L473.228 299.162
L473.339 299.07
L473.467 298.959
L473.578 298.865
L473.724 298.754
L473.835 298.669
L473.976 298.558
L474.087 298.469
L474.234 298.358
L474.345 298.274
L474.503 298.163
L474.614 298.088
L474.767 297.977
L474.878 297.894
L475.035 297.783
L475.146 297.701
L475.306 297.59
L475.417 297.515
L475.583 297.404
L475.694 297.334
L475.893 297.223
L476.004 297.168
L476.247 297.057
L476.358 297.004
L476.578 296.893
L476.689 296.833
L476.924 296.722
L477.035 296.665
L477.246 296.554
L477.356 296.497
L477.584 296.386
L477.695 296.332
L477.898 296.221
L478.009 296.155
L478.179 296.044
L478.29 295.968
L478.46 295.857
L478.571 295.778
L478.747 295.667
L478.858 295.599
L479.035 295.488
L479.146 295.413
L479.298 295.302
L479.409 295.225
L479.574 295.113
L479.686 295.042
L479.873 294.931
L479.984 294.858
L480.158 294.747
L480.269 294.671
L480.433 294.56
L480.544 294.48
L480.712 294.369
L480.823 294.294
L480.979 294.183
L481.091 294.107
L481.251 293.996
L481.362 293.921
L481.52 293.81
L481.631 293.73
L481.78 293.619
L481.891 293.524
L482.014 293.413
L482.125 293.31
L482.239 293.199
L482.349 293.086
L482.459 292.975
L482.57 292.874
L482.693 292.763
L482.804 292.655
L482.917 292.544
L483.028 292.438
L483.153 292.327
L483.264 292.229
L483.389 292.118
L483.5 292.026
L483.628 291.915
L483.739 291.814
L483.868 291.703
L483.979 291.603
L484.095 291.492
L484.206 291.388
L484.331 291.277
L484.442 291.176
L484.561 291.065
L484.672 290.96
L484.801 290.849
L484.912 290.758
L485.04 290.647
L485.152 290.547
L485.276 290.436
L485.387 290.339
L485.525 290.228
L485.636 290.135
L485.77 290.024
L485.881 289.941
L486.033 289.83
L486.144 289.748
L486.294 289.636
L486.405 289.556
L486.551 289.445
L486.662 289.355
L486.799 289.244
L486.91 289.152
L487.046 289.041
L487.157 288.953
L487.31 288.842
L487.421 288.767
L487.592 288.656
L487.703 288.585
L487.864 288.474
L487.975 288.394
L488.133 288.283
L488.244 288.209
L488.411 288.098
L488.522 288.017
L488.674 287.906
L488.785 287.815
L488.917 287.704
L489.028 287.614
L489.169 287.503
L489.28 287.415
L489.427 287.304
L489.538 287.212
L489.67 287.101
L489.781 287.011
L489.911 286.9
L490.022 286.802
L490.14 286.691
L490.251 286.582
L490.368 286.471
L490.479 286.364
L490.59 286.253
L490.701 286.146
L490.824 286.035
L490.935 285.948
L491.071 285.836
L491.182 285.743
L491.324 285.631
L491.435 285.544
L491.578 285.433
L491.689 285.34
L491.822 285.229
L491.933 285.134
L492.066 285.023
L492.177 284.93
L492.316 284.819
L492.427 284.74
L492.577 284.629
L492.688 284.547
L492.832 284.436
L492.943 284.344
L493.07 284.233
L493.182 284.136
L493.308 284.025
L493.419 283.927
L493.543 283.816
L493.654 283.714
L493.775 283.603
L493.886 283.506
L494.002 283.395
L494.113 283.29
L494.235 283.179
L494.346 283.075
L494.464 282.964
L494.575 282.859
L494.685 282.748
L494.796 282.634
L494.903 282.522
L495.014 282.403
L495.118 282.292
L495.23 282.176
L495.336 282.065
L495.448 281.949
L495.557 281.838
L495.668 281.726
L495.772 281.615
L495.883 281.501
L495.994 281.39
L496.106 281.285
L496.228 281.174
L496.339 281.071
L496.453 280.96
L496.564 280.854
L496.688 280.743
L496.799 280.649
L496.929 280.538
L497.04 280.433
L497.155 280.322
L497.266 280.216
L497.375 280.105
L497.486 279.984
L497.589 279.873
L497.7 279.751
L497.805 279.64
L497.916 279.52
L498.014 279.409
L498.125 279.283
L498.229 279.172
L498.34 279.047
L498.434 278.936
L498.546 278.801
L498.637 278.69
L498.748 278.558
L498.836 278.447
L498.947 278.311
L499.041 278.2
L499.152 278.079
L499.256 277.968
L499.367 277.851
L499.468 277.74
L499.579 277.617
L499.682 277.506
L499.794 277.38
L499.895 277.269
L500.006 277.151
L500.107 277.04
L500.218 276.91
L500.314 276.798
L500.425 276.67
L500.519 276.559
L500.631 276.428
L500.721 276.317
L500.832 276.177
L500.923 276.066
L501.034 275.933
L501.124 275.822
L501.235 275.687
L501.324 275.576
L501.435 275.433
L501.522 275.322
L501.633 275.173
L501.714 275.062
L501.825 274.907
L501.904 274.796
L502.015 274.645
L502.099 274.534
L502.21 274.389
L502.294 274.277
L502.405 274.125
L502.488 274.014
L502.599 273.866
L502.679 273.755
L502.79 273.598
L502.869 273.487
L502.98 273.338
L503.061 273.227
L503.173 273.075
L503.257 272.964
L503.369 272.825
L503.46 272.714
L503.572 272.578
L503.661 272.466
L503.772 272.328
L503.862 272.217
L503.973 272.087
L504.071 271.976
L504.182 271.847
L504.276 271.736
L504.387 271.609
L504.483 271.498
L504.594 271.368
L504.689 271.257
L504.8 271.137
L504.907 271.026
L505.018 270.915
L505.136 270.804
L505.247 270.71
L505.377 270.599
L505.488 270.511
L505.629 270.4
L505.741 270.32
L505.902 270.209
L506.013 270.136
L506.18 270.025
L506.292 269.956
L506.475 269.845
L506.586 269.768
L506.745 269.657
L506.856 269.583
L507.015 269.472
L507.126 269.397
L507.29 269.285
L507.401 269.213
L507.564 269.102
L507.675 269.028
L507.849 268.917
L507.96 268.839
L508.107 268.728
L508.218 268.647
L508.394 268.536
L508.505 268.465
L508.687 268.354
L508.798 268.282
L508.973 268.171
L509.084 268.109
L509.289 267.998
L509.4 267.935
L509.605 267.824
L509.716 267.758
L509.906 267.647
L510.017 267.589
L510.222 267.478
L510.333 267.425
L510.574 267.314
L510.685 267.266
L510.909 267.155
L511.02 267.097
L511.244 266.986
L511.356 266.941
L511.619 266.83
L511.73 266.774
L511.967 266.663
L512.078 266.609
L512.302 266.498
L512.413 266.449
L512.696 266.338
L512.807 266.296
L513.137 266.185
L513.248 266.147
L513.613 266.036
L513.724 266.007
L514.034 265.896
L514.145 265.851
L514.38 265.74
L514.491 265.683
L514.694 265.571
L514.805 265.514
L515.026 265.403
L515.137 265.343
L515.349 265.232
L515.46 265.174
L515.648 265.063
L515.759 264.992
L515.925 264.881
L516.036 264.811
L516.226 264.7
L516.338 264.63
L516.514 264.519
L516.626 264.451
L516.798 264.34
L516.909 264.271
L517.066 264.16
L517.177 264.091
L517.363 263.979
L517.474 263.916
L517.666 263.805
L517.777 263.747
L518.016 263.636
L518.127 263.589
L518.467 263.478
L518.578 263.447
L518.923 263.336
L519.034 263.301
L519.324 263.19
L519.435 263.136
L519.671 263.025
L519.782 262.971
L519.994 262.86
L520.105 262.804
L520.313 262.693
L520.424 262.633
L520.635 262.522
L520.746 262.466
L520.948 262.354
L521.059 262.291
L521.242 262.18
L521.353 262.12
L521.643 262.009
L521.754 261.972
L522.533 261.86
L522.584 261.858
L522.641 261.86
L522.641 261.86
L522.752 261.873
L524.818 261.762
L524.929 261.75
L525.529 261.639
L525.64 261.601
L525.929 261.49
L526.04 261.438
L526.286 261.327
L526.397 261.28
L526.701 261.169
L526.812 261.135
L527.138 261.024
L527.249 260.982
L527.562 260.871
L527.673 260.828
L527.975 260.717
L528.086 260.677
L528.349 260.565
L528.46 260.518
L528.698 260.406
L528.809 260.352
L529.036 260.241
L529.147 260.188
L529.395 260.077
L529.506 260.03
L529.783 259.919
L529.894 259.873
L530.128 259.762
L530.239 259.705
L530.438 259.594
L530.549 259.536
L530.753 259.424
L530.864 259.365
L531.066 259.254
L531.177 259.206
L531.387 259.094
L531.498 259.029
L531.671 258.918
L531.782 258.84
L531.942 258.729
L532.053 258.659
L532.244 258.548
L532.356 258.487
L532.569 258.376
L532.68 258.32
L532.952 258.208
L533.063 258.16
L533.347 258.049
L533.458 258.009
L533.794 257.897
L533.905 257.856
L534.3 257.745
L534.411 257.709
L534.726 257.598
L534.837 257.553
L535.087 257.442
L535.198 257.394
L535.461 257.283
L535.572 257.228
L535.787 257.117
L535.898 257.06
L536.108 256.949
L536.219 256.891
L536.43 256.78
L536.541 256.722
L536.74 256.611
L536.852 256.543
L537.028 256.432
L537.139 256.362
L537.326 256.251
L537.437 256.186
L537.633 256.074
L537.744 256.008
L537.942 255.897
L538.053 255.836
L538.235 255.725
L538.346 255.662
L538.551 255.551
L538.662 255.485
L538.844 255.374
L538.955 255.304
L539.139 255.193
L539.25 255.129
L539.443 255.018
L539.554 254.952
L539.739 254.841
L539.85 254.769
L540.011 254.657
L540.122 254.576
L540.282 254.465
L540.393 254.387
L540.565 254.276
L540.676 254.207
L540.851 254.096
L540.962 254.029
L541.163 253.918
L541.274 253.864
L541.524 253.753
L541.635 253.706
L541.881 253.595
L541.992 253.544
L542.235 253.433
L542.346 253.386
L542.589 253.275
L542.7 253.212
L542.89 253.101
L543.001 253.037
L543.204 252.926
L543.316 252.87
L543.563 252.759
L543.674 252.716
L543.994 252.605
L544.105 252.571
L544.412 252.46
L544.523 252.425
L544.916 252.314
L545.027 252.284
L545.516 252.173
L545.627 252.144
L546.087 252.033
L546.198 252.011
L546.76 251.9
L546.871 251.886
L547.526 251.819
L547.526 251.819" style="fill:none;stroke:#0000ff;stroke-width:5.0;"/>
   </g>
   <g id="matplotlib.axis_1">
    <g id="xtick_1">
     <g id="line2d_2">
      <path d="
M172.772 412.239
L172.772 8.51291" style="fill:none;stroke:#000000;stroke-dasharray:1.000000,3.000000;stroke-dashoffset:0.0;stroke-linecap:butt;stroke-width:0.5;"/>
     </g>
     <g id="line2d_3">
      <defs>
       <path d="
M0 0
L0 -4" id="m949ea6ef5d"/>
      </defs>
      <g>
       <use style="stroke:#000000;stroke-linecap:butt;stroke-width:0.5;" x="172.771988442" xlink:href="#m949ea6ef5d" y="16.276875"/>
      </g>
     </g>
     <g id="text_1">
      <!-- 5 -->
      <defs>
       <path d="
M10.7969 72.9062
L49.5156 72.9062
L49.5156 64.5938
L19.8281 64.5938
L19.8281 46.7344
Q21.9688 47.4688 24.1094 47.8281
Q26.2656 48.1875 28.4219 48.1875
Q40.625 48.1875 47.75 41.5
Q54.8906 34.8125 54.8906 23.3906
Q54.8906 11.625 47.5625 5.09375
Q40.2344 -1.42188 26.9062 -1.42188
Q22.3125 -1.42188 17.5469 -0.640625
Q12.7969 0.140625 7.71875 1.70312
L7.71875 11.625
Q12.1094 9.23438 16.7969 8.0625
Q21.4844 6.89062 26.7031 6.89062
Q35.1562 6.89062 40.0781 11.3281
Q45.0156 15.7656 45.0156 23.3906
Q45.0156 31 40.0781 35.4375
Q35.1562 39.8906 26.7031 39.8906
Q22.75 39.8906 18.8125 39.0156
Q14.8906 38.1406 10.7969 36.2812
z
" id="BitstreamVeraSans-Roman-35"/>
      </defs>
      <g transform="translate(167.111363442 37.774375)scale(0.24 -0.24)">
       <use xlink:href="#BitstreamVeraSans-Roman-35"/>
      </g>
     </g>
    </g>
    <g id="xtick_2">
     <g id="line2d_4">
      <path d="
M312.39 412.239
L312.39 8.51291" style="fill:none;stroke:#000000;stroke-dasharray:1.000000,3.000000;stroke-dashoffset:0.0;stroke-linecap:butt;stroke-width:0.5;"/>
     </g>
     <g id="line2d_5">
      <defs>
       <path d="
M0 0
L0 -4" id="m949ea6ef5d"/>
      </defs>
      <g>
       <use style="stroke:#000000;stroke-linecap:butt;stroke-width:0.5;" x="312.390065662" xlink:href="#m949ea6ef5d" y="16.276875"/>
      </g>
     </g>
     <g id="text_2">
      <!-- 10 -->
      <defs>
       <path d="
M31.7812 66.4062
Q24.1719 66.4062 20.3281 58.9062
Q16.5 51.4219 16.5 36.375
Q16.5 21.3906 20.3281 13.8906
Q24.1719 6.39062 31.7812 6.39062
Q39.4531 6.39062 43.2812 13.8906
Q47.125 21.3906 47.125 36.375
Q47.125 51.4219 43.2812 58.9062
Q39.4531 66.4062 31.7812 66.4062
M31.7812 74.2188
Q44.0469 74.2188 50.5156 64.5156
Q56.9844 54.8281 56.9844 36.375
Q56.9844 17.9688 50.5156 8.26562
Q44.0469 -1.42188 31.7812 -1.42188
Q19.5312 -1.42188 13.0625 8.26562
Q6.59375 17.9688 6.59375 36.375
Q6.59375 54.8281 13.0625 64.5156
Q19.5312 74.2188 31.7812 74.2188" id="BitstreamVeraSans-Roman-30"/>
       <path d="
M12.4062 8.29688
L28.5156 8.29688
L28.5156 63.9219
L10.9844 60.4062
L10.9844 69.3906
L28.4219 72.9062
L38.2812 72.9062
L38.2812 8.29688
L54.3906 8.29688
L54.3906 0
L12.4062 0
z
" id="BitstreamVeraSans-Roman-31"/>
      </defs>
      <g transform="translate(299.235065662 38.089375)scale(0.24 -0.24)">
       <use xlink:href="#BitstreamVeraSans-Roman-31"/>
       <use x="63.623046875" xlink:href="#BitstreamVeraSans-Roman-30"/>
      </g>
     </g>
    </g>
    <g id="xtick_3">
     <g id="line2d_6">
      <path d="
M452.008 412.239
L452.008 8.51291" style="fill:none;stroke:#000000;stroke-dasharray:1.000000,3.000000;stroke-dashoffset:0.0;stroke-linecap:butt;stroke-width:0.5;"/>
     </g>
     <g id="line2d_7">
      <defs>
       <path d="
M0 0
L0 -4" id="m949ea6ef5d"/>
      </defs>
      <g>
       <use style="stroke:#000000;stroke-linecap:butt;stroke-width:0.5;" x="452.008142882" xlink:href="#m949ea6ef5d" y="16.276875"/>
      </g>
     </g>
     <g id="text_3">
      <!-- 15 -->
      <g transform="translate(439.104392882 37.774375)scale(0.24 -0.24)">
       <use xlink:href="#BitstreamVeraSans-Roman-31"/>
       <use x="63.623046875" xlink:href="#BitstreamVeraSans-Roman-35"/>
      </g>
     </g>
    </g>
    <g id="xtick_4">
     <g id="line2d_8">
      <defs>
       <path d="
M0 0
L0 -2" id="m3146f71e1b"/>
      </defs>
      <g>
       <use style="stroke:#000000;stroke-linecap:butt;stroke-width:0.5;" x="61.0775266664" xlink:href="#m3146f71e1b" y="16.276875"/>
      </g>
     </g>
    </g>
    <g id="xtick_5">
     <g id="line2d_9">
      <defs>
       <path d="
M0 0
L0 -2" id="m3146f71e1b"/>
      </defs>
      <g>
       <use style="stroke:#000000;stroke-linecap:butt;stroke-width:0.5;" x="89.0011421104" xlink:href="#m3146f71e1b" y="16.276875"/>
      </g>
     </g>
    </g>
    <g id="xtick_6">
     <g id="line2d_10">
      <defs>
       <path d="
M0 0
L0 -2" id="m3146f71e1b"/>
      </defs>
      <g>
       <use style="stroke:#000000;stroke-linecap:butt;stroke-width:0.5;" x="116.924757554" xlink:href="#m3146f71e1b" y="16.276875"/>
      </g>
     </g>
    </g>
    <g id="xtick_7">
     <g id="line2d_11">
      <defs>
       <path d="
M0 0
L0 -2" id="m3146f71e1b"/>
      </defs>
      <g>
       <use style="stroke:#000000;stroke-linecap:butt;stroke-width:0.5;" x="144.848372998" xlink:href="#m3146f71e1b" y="16.276875"/>
      </g>
     </g>
    </g>
    <g id="xtick_8">
     <g id="line2d_12">
      <defs>
       <path d="
M0 0
L0 -2" id="m3146f71e1b"/>
      </defs>
      <g>
       <use style="stroke:#000000;stroke-linecap:butt;stroke-width:0.5;" x="200.695603886" xlink:href="#m3146f71e1b" y="16.276875"/>
      </g>
     </g>
    </g>
    <g id="xtick_9">
     <g id="line2d_13">
      <defs>
       <path d="
M0 0
L0 -2" id="m3146f71e1b"/>
      </defs>
      <g>
       <use style="stroke:#000000;stroke-linecap:butt;stroke-width:0.5;" x="228.61921933" xlink:href="#m3146f71e1b" y="16.276875"/>
      </g>
     </g>
    </g>
    <g id="xtick_10">
     <g id="line2d_14">
      <defs>
       <path d="
M0 0
L0 -2" id="m3146f71e1b"/>
      </defs>
      <g>
       <use style="stroke:#000000;stroke-linecap:butt;stroke-width:0.5;" x="256.542834774" xlink:href="#m3146f71e1b" y="16.276875"/>
      </g>
     </g>
    </g>
    <g id="xtick_11">
     <g id="line2d_15">
      <defs>
       <path d="
M0 0
L0 -2" id="m3146f71e1b"/>
      </defs>
      <g>
       <use style="stroke:#000000;stroke-linecap:butt;stroke-width:0.5;" x="284.466450218" xlink:href="#m3146f71e1b" y="16.276875"/>
      </g>
     </g>
    </g>
    <g id="xtick_12">
     <g id="line2d_16">
      <defs>
       <path d="
M0 0
L0 -2" id="m3146f71e1b"/>
      </defs>
      <g>
       <use style="stroke:#000000;stroke-linecap:butt;stroke-width:0.5;" x="340.313681106" xlink:href="#m3146f71e1b" y="16.276875"/>
      </g>
     </g>
    </g>
    <g id="xtick_13">
     <g id="line2d_17">
      <defs>
       <path d="
M0 0
L0 -2" id="m3146f71e1b"/>
      </defs>
      <g>
       <use style="stroke:#000000;stroke-linecap:butt;stroke-width:0.5;" x="368.23729655" xlink:href="#m3146f71e1b" y="16.276875"/>
      </g>
     </g>
    </g>
    <g id="xtick_14">
     <g id="line2d_18">
      <defs>
       <path d="
M0 0
L0 -2" id="m3146f71e1b"/>
      </defs>
      <g>
       <use style="stroke:#000000;stroke-linecap:butt;stroke-width:0.5;" x="396.160911994" xlink:href="#m3146f71e1b" y="16.276875"/>
      </g>
     </g>
    </g>
    <g id="xtick_15">
     <g id="line2d_19">
      <defs>
       <path d="
M0 0
L0 -2" id="m3146f71e1b"/>
      </defs>
      <g>
       <use style="stroke:#000000;stroke-linecap:butt;stroke-width:0.5;" x="424.084527438" xlink:href="#m3146f71e1b" y="16.276875"/>
      </g>
     </g>
    </g>
    <g id="xtick_16">
     <g id="line2d_20">
      <defs>
       <path d="
M0 0
L0 -2" id="m3146f71e1b"/>
      </defs>
      <g>
       <use style="stroke:#000000;stroke-linecap:butt;stroke-width:0.5;" x="479.931758326" xlink:href="#m3146f71e1b" y="16.276875"/>
      </g>
     </g>
    </g>
    <g id="xtick_17">
     <g id="line2d_21">
      <defs>
       <path d="
M0 0
L0 -2" id="m3146f71e1b"/>
      </defs>
      <g>
       <use style="stroke:#000000;stroke-linecap:butt;stroke-width:0.5;" x="507.85537377" xlink:href="#m3146f71e1b" y="16.276875"/>
      </g>
     </g>
    </g>
   </g>
   <g id="matplotlib.axis_2">
    <g id="ytick_1">
     <g id="line2d_22">
      <path d="
M42.6088 381.718
L557.426 381.718" style="fill:none;stroke:#000000;stroke-dasharray:1.000000,3.000000;stroke-dashoffset:0.0;stroke-linecap:butt;stroke-width:0.5;"/>
     </g>
     <g id="line2d_23">
      <defs>
       <path d="
M0 0
L4 0" id="m998b462e1b"/>
      </defs>
      <g>
       <use style="stroke:#000000;stroke-linecap:butt;stroke-width:0.5;" x="32.60875" xlink:href="#m998b462e1b" y="381.718222057"/>
      </g>
     </g>
     <g id="text_4">
      <!-- -4 -->
      <defs>
       <path d="
M4.89062 31.3906
L31.2031 31.3906
L31.2031 23.3906
L4.89062 23.3906
z
" id="BitstreamVeraSans-Roman-2d"/>
       <path d="
M37.7969 64.3125
L12.8906 25.3906
L37.7969 25.3906
z

M35.2031 72.9062
L47.6094 72.9062
L47.6094 25.3906
L58.0156 25.3906
L58.0156 17.1875
L47.6094 17.1875
L47.6094 0
L37.7969 0
L37.7969 17.1875
L4.89062 17.1875
L4.89062 26.7031
z
" id="BitstreamVeraSans-Roman-34"/>
      </defs>
      <g transform="translate(7.2 390.466972057)scale(0.24 -0.24)">
       <use xlink:href="#BitstreamVeraSans-Roman-2d"/>
       <use x="36.083984375" xlink:href="#BitstreamVeraSans-Roman-34"/>
      </g>
     </g>
    </g>
    <g id="ytick_2">
     <g id="line2d_24">
      <path d="
M42.6088 290.358
L557.426 290.358" style="fill:none;stroke:#000000;stroke-dasharray:1.000000,3.000000;stroke-dashoffset:0.0;stroke-linecap:butt;stroke-width:0.5;"/>
     </g>
     <g id="line2d_25">
      <defs>
       <path d="
M0 0
L4 0" id="m998b462e1b"/>
      </defs>
      <g>
       <use style="stroke:#000000;stroke-linecap:butt;stroke-width:0.5;" x="32.60875" xlink:href="#m998b462e1b" y="290.357885293"/>
      </g>
     </g>
     <g id="text_5">
      <!-- -3 -->
      <defs>
       <path d="
M40.5781 39.3125
Q47.6562 37.7969 51.625 33
Q55.6094 28.2188 55.6094 21.1875
Q55.6094 10.4062 48.1875 4.48438
Q40.7656 -1.42188 27.0938 -1.42188
Q22.5156 -1.42188 17.6562 -0.515625
Q12.7969 0.390625 7.625 2.20312
L7.625 11.7188
Q11.7188 9.32812 16.5938 8.10938
Q21.4844 6.89062 26.8125 6.89062
Q36.0781 6.89062 40.9375 10.5469
Q45.7969 14.2031 45.7969 21.1875
Q45.7969 27.6406 41.2812 31.2656
Q36.7656 34.9062 28.7188 34.9062
L20.2188 34.9062
L20.2188 43.0156
L29.1094 43.0156
Q36.375 43.0156 40.2344 45.9219
Q44.0938 48.8281 44.0938 54.2969
Q44.0938 59.9062 40.1094 62.9062
Q36.1406 65.9219 28.7188 65.9219
Q24.6562 65.9219 20.0156 65.0312
Q15.375 64.1562 9.8125 62.3125
L9.8125 71.0938
Q15.4375 72.6562 20.3438 73.4375
Q25.25 74.2188 29.5938 74.2188
Q40.8281 74.2188 47.3594 69.1094
Q53.9062 64.0156 53.9062 55.3281
Q53.9062 49.2656 50.4375 45.0938
Q46.9688 40.9219 40.5781 39.3125" id="BitstreamVeraSans-Roman-33"/>
      </defs>
      <g transform="translate(7.7775 299.093510293)scale(0.24 -0.24)">
       <use xlink:href="#BitstreamVeraSans-Roman-2d"/>
       <use x="36.083984375" xlink:href="#BitstreamVeraSans-Roman-33"/>
      </g>
     </g>
    </g>
    <g id="ytick_3">
     <g id="line2d_26">
      <path d="
M42.6088 198.998
L557.426 198.998" style="fill:none;stroke:#000000;stroke-dasharray:1.000000,3.000000;stroke-dashoffset:0.0;stroke-linecap:butt;stroke-width:0.5;"/>
     </g>
     <g id="line2d_27">
      <defs>
       <path d="
M0 0
L4 0" id="m998b462e1b"/>
      </defs>
      <g>
       <use style="stroke:#000000;stroke-linecap:butt;stroke-width:0.5;" x="32.60875" xlink:href="#m998b462e1b" y="198.997548529"/>
      </g>
     </g>
     <g id="text_6">
      <!-- -2 -->
      <defs>
       <path d="
M19.1875 8.29688
L53.6094 8.29688
L53.6094 0
L7.32812 0
L7.32812 8.29688
Q12.9375 14.1094 22.625 23.8906
Q32.3281 33.6875 34.8125 36.5312
Q39.5469 41.8438 41.4219 45.5312
Q43.3125 49.2188 43.3125 52.7812
Q43.3125 58.5938 39.2344 62.25
Q35.1562 65.9219 28.6094 65.9219
Q23.9688 65.9219 18.8125 64.3125
Q13.6719 62.7031 7.8125 59.4219
L7.8125 69.3906
Q13.7656 71.7812 18.9375 73
Q24.125 74.2188 28.4219 74.2188
Q39.75 74.2188 46.4844 68.5469
Q53.2188 62.8906 53.2188 53.4219
Q53.2188 48.9219 51.5312 44.8906
Q49.8594 40.875 45.4062 35.4062
Q44.1875 33.9844 37.6406 27.2188
Q31.1094 20.4531 19.1875 8.29688" id="BitstreamVeraSans-Roman-32"/>
      </defs>
      <g transform="translate(8.2575 207.903798529)scale(0.24 -0.24)">
       <use xlink:href="#BitstreamVeraSans-Roman-2d"/>
       <use x="36.083984375" xlink:href="#BitstreamVeraSans-Roman-32"/>
      </g>
     </g>
    </g>
    <g id="ytick_4">
     <g id="line2d_28">
      <path d="
M42.6088 107.637
L557.426 107.637" style="fill:none;stroke:#000000;stroke-dasharray:1.000000,3.000000;stroke-dashoffset:0.0;stroke-linecap:butt;stroke-width:0.5;"/>
     </g>
     <g id="line2d_29">
      <defs>
       <path d="
M0 0
L4 0" id="m998b462e1b"/>
      </defs>
      <g>
       <use style="stroke:#000000;stroke-linecap:butt;stroke-width:0.5;" x="32.60875" xlink:href="#m998b462e1b" y="107.637211764"/>
      </g>
     </g>
     <g id="text_7">
      <!-- -1 -->
      <g transform="translate(8.07 116.385961764)scale(0.24 -0.24)">
       <use xlink:href="#BitstreamVeraSans-Roman-2d"/>
       <use x="36.083984375" xlink:href="#BitstreamVeraSans-Roman-31"/>
      </g>
     </g>
    </g>
    <g id="ytick_5">
     <g id="line2d_30">
      <path d="
M42.6088 16.2769
L557.426 16.2769" style="fill:none;stroke:#000000;stroke-dasharray:1.000000,3.000000;stroke-dashoffset:0.0;stroke-linecap:butt;stroke-width:0.5;"/>
     </g>
     <g id="line2d_31">
      <defs>
       <path d="
M0 0
L4 0" id="m998b462e1b"/>
      </defs>
      <g>
       <use style="stroke:#000000;stroke-linecap:butt;stroke-width:0.5;" x="32.60875" xlink:href="#m998b462e1b" y="16.276875"/>
      </g>
     </g>
     <g id="text_8">
      <!-- 0 -->
      <g transform="translate(16.515 25.0125)scale(0.24 -0.24)">
       <use xlink:href="#BitstreamVeraSans-Roman-30"/>
      </g>
     </g>
    </g>
    <g id="ytick_6">
     <g id="line2d_32">
      <defs>
       <path d="
M0 0
L2 0" id="mc48afcfd60"/>
      </defs>
      <g>
       <use style="stroke:#000000;stroke-linecap:butt;stroke-width:0.5;" x="32.60875" xlink:href="#mc48afcfd60" y="399.99028941"/>
      </g>
     </g>
    </g>
    <g id="ytick_7">
     <g id="line2d_33">
      <defs>
       <path d="
M0 0
L2 0" id="mc48afcfd60"/>
      </defs>
      <g>
       <use style="stroke:#000000;stroke-linecap:butt;stroke-width:0.5;" x="32.60875" xlink:href="#mc48afcfd60" y="363.446154704"/>
      </g>
     </g>
    </g>
    <g id="ytick_8">
     <g id="line2d_34">
      <defs>
       <path d="
M0 0
L2 0" id="mc48afcfd60"/>
      </defs>
      <g>
       <use style="stroke:#000000;stroke-linecap:butt;stroke-width:0.5;" x="32.60875" xlink:href="#mc48afcfd60" y="345.174087351"/>
      </g>
     </g>
    </g>
    <g id="ytick_9">
     <g id="line2d_35">
      <defs>
       <path d="
M0 0
L2 0" id="mc48afcfd60"/>
      </defs>
      <g>
       <use style="stroke:#000000;stroke-linecap:butt;stroke-width:0.5;" x="32.60875" xlink:href="#mc48afcfd60" y="326.902019998"/>
      </g>
     </g>
    </g>
    <g id="ytick_10">
     <g id="line2d_36">
      <defs>
       <path d="
M0 0
L2 0" id="mc48afcfd60"/>
      </defs>
      <g>
       <use style="stroke:#000000;stroke-linecap:butt;stroke-width:0.5;" x="32.60875" xlink:href="#mc48afcfd60" y="308.629952646"/>
      </g>
     </g>
    </g>
    <g id="ytick_11">
     <g id="line2d_37">
      <defs>
       <path d="
M0 0
L2 0" id="mc48afcfd60"/>
      </defs>
      <g>
       <use style="stroke:#000000;stroke-linecap:butt;stroke-width:0.5;" x="32.60875" xlink:href="#mc48afcfd60" y="272.08581794"/>
      </g>
     </g>
    </g>
    <g id="ytick_12">
     <g id="line2d_38">
      <defs>
       <path d="
M0 0
L2 0" id="mc48afcfd60"/>
      </defs>
      <g>
       <use style="stroke:#000000;stroke-linecap:butt;stroke-width:0.5;" x="32.60875" xlink:href="#mc48afcfd60" y="253.813750587"/>
      </g>
     </g>
    </g>
    <g id="ytick_13">
     <g id="line2d_39">
      <defs>
       <path d="
M0 0
L2 0" id="mc48afcfd60"/>
      </defs>
      <g>
       <use style="stroke:#000000;stroke-linecap:butt;stroke-width:0.5;" x="32.60875" xlink:href="#mc48afcfd60" y="235.541683234"/>
      </g>
     </g>
    </g>
    <g id="ytick_14">
     <g id="line2d_40">
      <defs>
       <path d="
M0 0
L2 0" id="mc48afcfd60"/>
      </defs>
      <g>
       <use style="stroke:#000000;stroke-linecap:butt;stroke-width:0.5;" x="32.60875" xlink:href="#mc48afcfd60" y="217.269615881"/>
      </g>
     </g>
    </g>
    <g id="ytick_15">
     <g id="line2d_41">
      <defs>
       <path d="
M0 0
L2 0" id="mc48afcfd60"/>
      </defs>
      <g>
       <use style="stroke:#000000;stroke-linecap:butt;stroke-width:0.5;" x="32.60875" xlink:href="#mc48afcfd60" y="198.997548529"/>
      </g>
     </g>
    </g>
    <g id="ytick_16">
     <g id="line2d_42">
      <defs>
       <path d="
M0 0
L2 0" id="mc48afcfd60"/>
      </defs>
      <g>
       <use style="stroke:#000000;stroke-linecap:butt;stroke-width:0.5;" x="32.60875" xlink:href="#mc48afcfd60" y="180.725481176"/>
      </g>
     </g>
    </g>
    <g id="ytick_17">
     <g id="line2d_43">
      <defs>
       <path d="
M0 0
L2 0" id="mc48afcfd60"/>
      </defs>
      <g>
       <use style="stroke:#000000;stroke-linecap:butt;stroke-width:0.5;" x="32.60875" xlink:href="#mc48afcfd60" y="162.453413823"/>
      </g>
     </g>
    </g>
    <g id="ytick_18">
     <g id="line2d_44">
      <defs>
       <path d="
M0 0
L2 0" id="mc48afcfd60"/>
      </defs>
      <g>
       <use style="stroke:#000000;stroke-linecap:butt;stroke-width:0.5;" x="32.60875" xlink:href="#mc48afcfd60" y="144.18134647"/>
      </g>
     </g>
    </g>
    <g id="ytick_19">
     <g id="line2d_45">
      <defs>
       <path d="
M0 0
L2 0" id="mc48afcfd60"/>
      </defs>
      <g>
       <use style="stroke:#000000;stroke-linecap:butt;stroke-width:0.5;" x="32.60875" xlink:href="#mc48afcfd60" y="125.909279117"/>
      </g>
     </g>
    </g>
    <g id="ytick_20">
     <g id="line2d_46">
      <defs>
       <path d="
M0 0
L2 0" id="mc48afcfd60"/>
      </defs>
      <g>
       <use style="stroke:#000000;stroke-linecap:butt;stroke-width:0.5;" x="32.60875" xlink:href="#mc48afcfd60" y="107.637211764"/>
      </g>
     </g>
    </g>
    <g id="ytick_21">
     <g id="line2d_47">
      <defs>
       <path d="
M0 0
L2 0" id="mc48afcfd60"/>
      </defs>
      <g>
       <use style="stroke:#000000;stroke-linecap:butt;stroke-width:0.5;" x="32.60875" xlink:href="#mc48afcfd60" y="89.3651444114"/>
      </g>
     </g>
    </g>
    <g id="ytick_22">
     <g id="line2d_48">
      <defs>
       <path d="
M0 0
L2 0" id="mc48afcfd60"/>
      </defs>
      <g>
       <use style="stroke:#000000;stroke-linecap:butt;stroke-width:0.5;" x="32.60875" xlink:href="#mc48afcfd60" y="71.0930770586"/>
      </g>
     </g>
    </g>
    <g id="ytick_23">
     <g id="line2d_49">
      <defs>
       <path d="
M0 0
L2 0" id="mc48afcfd60"/>
      </defs>
      <g>
       <use style="stroke:#000000;stroke-linecap:butt;stroke-width:0.5;" x="32.60875" xlink:href="#mc48afcfd60" y="52.8210097057"/>
      </g>
     </g>
    </g>
    <g id="ytick_24">
     <g id="line2d_50">
      <defs>
       <path d="
M0 0
L2 0" id="mc48afcfd60"/>
      </defs>
      <g>
       <use style="stroke:#000000;stroke-linecap:butt;stroke-width:0.5;" x="32.60875" xlink:href="#mc48afcfd60" y="34.5489423529"/>
      </g>
     </g>
    </g>
   </g>
   <g id="patch_3">
    <path d="
M42.6088 16.2769
L557.426 16.2769" style="fill:none;stroke:#000000;stroke-width:0.8;"/>
   </g>
   <g id="patch_4">
    <path d="
M32.6088 412.239
L32.6088 8.51291" style="fill:none;stroke:#000000;stroke-width:0.8;"/>
   </g>
  </g>
 </g>
 <defs>
  <clipPath id="p51b3ba9df9">
   <rect height="403.726153846" width="514.8175" x="42.60875" y="8.51291050296"/>
  </clipPath>
 </defs>
</svg>
