<?xml version="1.0" encoding="utf-8" standalone="no"?>
<!DOCTYPE svg PUBLIC "-//W3C//DTD SVG 1.1//EN"
  "http://www.w3.org/Graphics/SVG/1.1/DTD/svg11.dtd">
<!-- Created with matplotlib (http://matplotlib.sourceforge.net/) -->
<svg height="419pt" version="1.1" viewBox="0 0 564 419" width="564pt" xmlns="http://www.w3.org/2000/svg" xmlns:xlink="http://www.w3.org/1999/xlink">
 <defs>
  <style type="text/css">
*{stroke-linecap:square;stroke-linejoin:round;}
  </style>
 </defs>
 <g id="figure_1">
  <g id="patch_1">
   <path d="
M4.44089e-16 419.439
L564.626 419.439
L564.626 0
L4.44089e-16 0
z
" style="fill:#ffffff;"/>
  </g>
  <g id="axes_1">
   <g id="patch_2">
    <path d="
M42.6088 412.239
L557.426 412.239
L557.426 8.51291
L42.6088 8.51291
z
" style="fill:#ffffff;"/>
   </g>
   <g id="line2d_1">
    <path clip-path="url(#p10490cade4)" d="
M52.5091 16.2769
L63.8311 16.2769
L63.8311 31.8744
L78.0952 31.8744
L78.0952 59.1892
L87.4908 59.1892
L87.4908 79.8857
L100.112 79.8857
L100.112 108.88
L104.777 108.88
L104.777 120.201
L112.267 120.201
L112.267 139.888
L115.373 139.888
L115.373 148.6
L120.708 148.6
L120.708 164.607
L127.181 164.607
L127.181 177.291
L129.043 177.291
L129.043 179.538
L133.984 179.538
L133.984 186.957
L136.85 186.957
L136.85 191.877
L138.18 191.877
L138.18 194.536
L140.664 194.536
L140.664 200.157
L144.019 200.157
L144.019 205.788
L147.013 205.788
L147.013 211.315
L147.944 211.315
L147.944 213.236
L150.564 213.236
L150.564 219.182
L152.183 219.182
L152.183 223.118
L152.959 223.118
L152.959 225.172
L155.165 225.172
L155.165 231.402
L156.544 231.402
L156.544 234.673
L158.493 234.673
L158.493 238.49
L160.896 238.49
L160.896 242.193
L162.025 242.193
L162.025 244.119
L162.572 244.119
L162.572 245.17
L163.636 245.17
L163.636 247.429
L164.153 247.429
L164.153 248.366
L165.16 248.366
L165.16 250.393
L168.421 250.393
L168.421 255.711
L169.287 255.711
L169.287 256.816
L170.538 256.816
L170.538 258.631
L170.942 258.631
L170.942 259.109
L172.882 259.109
L172.882 260.863
L173.255 260.863
L173.255 261.263
L174.343 261.263
L174.343 262.163
L175.39 262.163
L175.39 262.766
L176.067 262.766
L176.067 263.277
L177.052 263.277
L177.052 263.789
L178.004 263.789
L178.004 264.446
L178.315 264.446
L178.315 264.591
L179.816 264.591
L179.816 265.546
L180.107 265.546
L180.107 265.778
L180.68 265.778
L180.68 266.333
L180.962 266.333
L180.962 266.655
L182.597 266.655
L182.597 268.75
L184.142 268.75
L184.142 270.885
L184.638 270.885
L184.638 271.457
L184.883 271.457
L184.883 271.778
L185.367 271.778
L185.367 272.318
L186.077 272.318
L186.077 273.214
L186.309 273.214
L186.309 273.463
L187.445 273.463
L187.445 274.448
L188.104 274.448
L188.104 275.106
L188.749 275.106
L188.749 275.838
L189.378 275.838
L189.378 276.432
L189.585 276.432
L189.585 276.59
L190.197 276.59
L190.197 276.949
L190.597 276.949
L190.597 277.114
L190.795 277.114
L190.795 277.225
L191.765 277.225
L191.765 277.903
L193.068 277.903
L193.068 278.561
L193.43 278.561
L193.43 278.68
L193.963 278.764
L193.963 278.982
L195.17 278.982
L195.17 279.868
L195.672 279.868
L195.672 280.294
L196.488 280.294
L196.488 281.082
L196.649 281.082
L196.649 281.257
L196.967 281.257
L196.967 281.645
L197.438 281.645
L197.438 282.144
L198.053 282.144
L198.053 282.695
L198.506 282.695
L198.506 283.153
L198.951 283.153
L198.951 283.657
L199.245 283.657
L199.245 284.023
L199.679 284.023
L199.679 284.616
L200.247 284.616
L200.247 285.455
L200.527 285.455
L200.527 285.898
L201.079 285.898
L201.079 286.832
L201.753 286.832
L201.753 288.038
L201.886 288.038
L201.886 288.29
L202.542 288.29
L202.542 289.429
L202.671 289.429
L202.671 289.634
L203.055 289.634
L203.055 290.189
L203.308 290.189
L203.308 290.583
L203.684 290.583
L203.684 291.113
L204.177 291.113
L204.177 291.859
L204.421 291.859
L204.421 292.252
L204.541 292.252
L204.541 292.432
L204.782 292.432
L204.782 292.815
L205.49 292.815
L205.49 294.013
L205.953 294.013
L205.953 294.835
L206.181 294.835
L206.181 295.208
L206.632 295.208
L206.632 295.884
L206.855 295.884
L206.855 296.187
L207.186 296.187
L207.186 296.593
L207.837 296.593
L207.944 297.426
L208.889 297.426
L208.889 298.632
L209.197 298.632
L209.197 298.98
L209.703 298.98
L209.703 299.485
L210.002 299.485
L210.002 299.745
L210.298 299.745
L210.396 300.137
L210.688 300.137
L210.688 300.48
L211.168 300.48
L211.168 300.982
L211.452 300.982
L211.452 301.305
L211.733 301.305
L211.826 301.695
L212.103 301.695
L212.103 301.972
L212.378 301.972
L212.378 302.273
L212.559 302.273
L212.65 302.607
L213.186 302.607
L213.186 303.349
L213.625 303.349
L213.712 304.017
L213.885 304.017
L213.885 304.23
L214.143 304.23
L214.143 304.573
L214.398 304.573
L214.483 305.063
L214.985 305.063
L214.985 305.764
L215.151 305.764
L215.151 305.974
L215.397 305.974
L215.397 306.261
L215.722 306.261
L215.722 306.668
L216.124 306.668
L216.124 307.203
L216.44 307.203
L216.44 307.651
L216.832 307.651
L216.832 308.158
L217.141 308.158
L217.141 308.584
L217.37 308.584
L217.37 308.92
L217.598 308.92
L217.598 309.273
L217.748 309.273
L217.748 309.49
L218.047 309.49
L218.047 309.888
L218.27 309.888
L218.27 310.159
L218.417 310.159
L218.417 310.324
L218.709 310.324
L218.709 310.675
L218.854 310.675
L218.854 310.833
L219.355 310.833
L219.355 311.328
L219.708 311.328
L219.708 311.636
L220.125 311.636
L220.194 312.091
L220.536 312.091
L220.604 312.467
L220.739 312.467
L220.807 312.66
L221.142 312.66
L221.142 312.964
L221.604 312.964
L221.604 313.333
L221.799 313.425
L221.799 313.476
L221.929 313.476
L221.929 313.589
L222.378 313.589
L222.378 314.016
L222.506 314.016
L222.569 314.217
L222.695 314.217
L222.695 314.346
L223.318 314.346
L223.318 315.026
L223.441 315.026
L223.441 315.169
L223.685 315.169
L223.685 315.473
L223.987 315.473
L223.987 315.871
L224.226 315.871
L224.226 316.204
L224.345 316.204
L224.345 316.379
L224.523 316.379
L224.523 316.623
L224.699 316.623
L224.699 316.848
L225.106 316.848
L225.106 317.398
L225.222 317.398
L225.222 317.562
L225.394 317.562
L225.394 317.79
L225.565 317.79
L225.565 318.001
L225.791 318.001
L225.791 318.298
L225.96 318.298
L225.96 318.532
L226.294 318.532
L226.404 319.168
L226.569 319.168
L226.624 319.451
L226.896 319.451
L226.95 319.911
L227.112 319.911
L227.112 320.138
L227.379 320.138
L227.432 320.555
L227.697 320.555
L227.749 320.91
L227.907 320.91
L227.907 321.061
L228.373 321.061
L228.475 321.653
L228.629 321.713
L228.629 321.841
L228.781 321.841
L228.781 322.042
L228.932 322.042
L228.932 322.229
L229.133 322.229
L229.133 322.492
L229.283 322.492
L229.283 322.674
L229.431 322.674
L229.431 322.843
L229.97 322.843
L230.019 323.448
L230.26 323.448
L230.26 323.694
L230.451 323.694
L230.451 323.902
L230.689 323.902
L230.689 324.177
L230.83 324.177
L230.83 324.328
L230.971 324.328
L230.971 324.489
L231.158 324.489
L231.158 324.686
L231.435 324.686
L231.527 325.093
L231.665 325.093
L231.665 325.224
L231.801 325.224
L231.847 325.38
L231.982 325.38
L231.982 325.498
L232.252 325.498
L232.252 325.75
L232.475 325.75
L232.475 325.972
L232.871 325.972
L232.915 326.436
L233.132 326.514
L233.176 326.685
L233.305 326.685
L233.391 326.918
L233.52 326.965
L233.52 327.066
L233.775 327.066
L233.817 327.437
L233.944 327.437
L233.944 327.592
L234.65 327.592
L234.65 328.496
L234.773 328.496
L234.773 328.642
L234.895 328.642
L234.895 328.795
L235.057 328.795
L235.057 328.986
L235.419 328.986
L235.419 329.432
L235.618 329.432
L235.618 329.689
L235.894 329.689
L235.972 330.122
L236.089 330.169
L236.089 330.257
L236.206 330.257
L236.206 330.396
L236.361 330.396
L236.438 330.648
L236.592 330.685
L236.592 330.804
L236.82 330.804
L236.82 331.055
L237.01 331.055
L237.047 331.282
L237.16 331.358
L237.235 331.484
L237.347 331.484
L237.347 331.619
L237.569 331.619
L237.569 331.901
L237.79 331.901
L237.79 332.194
L237.937 332.194
L237.937 332.396
L238.155 332.396
L238.263 332.829
L238.443 332.922
L238.443 333.054
L238.586 333.054
L238.657 333.323
L238.799 333.323
L238.869 333.598
L239.115 333.598
L239.185 333.999
L239.29 333.999
L239.394 334.257
L239.497 334.257
L239.532 334.416
L239.635 334.416
L239.635 334.536
L239.806 334.536
L239.806 334.746
L240.145 334.746
L240.246 335.3
L240.347 335.376
L240.347 335.412
L240.745 335.412
L240.844 335.899
L241.008 335.899
L241.008 336.048
L241.203 336.048
L241.236 336.266
L241.397 336.266
L241.397 336.421
L241.526 336.421
L241.622 336.655
L241.813 336.751
L241.813 336.853
L242.097 336.853
L242.192 337.27
L242.472 337.376
L242.472 337.605
L242.627 337.605
L242.627 337.784
L242.811 337.784
L242.811 337.984
L242.933 337.984
L242.933 338.124
L243.176 338.124
L243.176 338.414
L243.387 338.414
L243.477 338.757
L243.567 338.83
L243.656 338.981
L243.804 338.981
L243.804 339.18
L243.981 339.18
L244.069 339.556
L244.157 339.556
L244.157 339.688
L244.418 339.688
L244.447 340.14
L244.677 340.14
L244.706 340.538
L245.019 340.538
L245.104 341.141
L245.216 341.141
L245.301 341.42
L245.385 341.497
L245.44 341.611
L245.552 341.611
L245.635 341.872
L245.773 341.872
L245.801 342.09
L245.938 342.09
L245.938 342.268
L246.129 342.268
L246.129 342.526
L246.265 342.526
L246.346 342.799
L246.507 342.799
L246.614 343.099
L246.748 343.099
L246.748 343.252
L246.907 343.252
L246.933 343.453
L247.144 343.453
L247.249 343.836
L247.457 343.94
L247.561 344.232
L247.792 344.232
L247.792 344.539
L248.098 344.539
L248.149 345.029
L248.325 345.132
L248.325 345.274
L248.526 345.274
L248.601 345.636
L248.7 345.636
L248.7 345.752
L248.898 345.752
L248.972 346.049
L249.07 346.049
L249.143 346.242
L249.265 346.325
L249.265 346.383
L249.41 346.383
L249.434 346.593
L249.699 346.593
L249.795 347.043
L249.914 347.134
L249.985 347.282
L250.15 347.282
L250.221 347.563
L250.361 347.639
L250.408 347.75
L250.617 347.811
L250.687 347.983
L250.917 348.038
L250.963 348.211
L251.168 348.269
L251.259 348.442
L251.663 348.516
L251.663 348.709
L251.863 348.709
L251.974 348.89
L252.259 348.986
L252.259 349.017
L252.498 349.017
L252.498 349.144
L252.821 349.214
L252.907 349.338
L253.225 349.427
L253.33 349.562
L253.602 349.66
L253.706 349.739
L253.974 349.834
L254.077 349.916
L254.281 349.985
L254.321 350.059
L254.564 350.146
L254.564 350.213
L254.764 350.314
L254.824 350.397
L255.121 350.5
L255.22 350.672
L255.396 350.77
L255.396 350.795
L255.649 350.896
L255.745 350.983
L256.033 351.08
L256.033 351.134
L256.28 351.204
L256.374 351.337
L256.711 351.381
L256.73 351.519
L257.063 351.612
L257.173 351.706
L257.483 351.812
L257.537 351.848
L257.807 351.923
L257.825 351.973
L258.198 352.038
L258.251 352.182
L258.444 352.279
L258.549 352.362
L258.775 352.453
L258.775 352.492
L258.964 352.492
L259.033 352.649
L259.374 352.711
L259.441 352.907
L259.626 352.989
L259.643 353.033
L259.877 353.131
L259.976 353.293
L260.125 353.307
L260.142 353.425
L260.322 353.518
L260.322 353.555
L260.485 353.555
L260.485 353.668
L260.68 353.752
L260.777 353.855
L260.953 353.855
L261.017 354.01
L261.24 354.103
L261.35 354.251
L261.476 354.295
L261.586 354.46
L261.757 354.546
L261.866 354.705
L262.051 354.816
L262.143 354.955
L262.357 355.065
L262.403 355.185
L262.554 355.288
L262.645 355.433
L262.78 355.519
L262.87 355.676
L263.033 355.676
L263.093 355.91
L263.27 355.984
L263.344 356.171
L263.475 356.171
L263.563 356.403
L263.665 356.403
L263.708 356.564
L263.882 356.64
L263.968 356.834
L264.097 356.834
L264.183 357.08
L264.353 357.18
L264.381 357.312
L264.522 357.312
L264.522 357.473
L264.677 357.473
L264.775 357.775
L264.886 357.861
L264.942 357.983
L265.094 357.983
L265.149 358.245
L265.259 358.245
L265.3 358.44
L265.396 358.544
L265.436 358.613
L265.627 358.713
L265.708 358.947
L265.802 358.947
L265.842 359.117
L265.963 359.117
L265.963 359.262
L266.123 359.262
L266.229 359.588
L266.322 359.692
L266.401 359.805
L266.506 359.885
L266.597 360.046
L266.702 360.128
L266.754 360.243
L266.948 360.243
L267.025 360.573
L267.141 360.652
L267.243 360.836
L267.358 360.836
L267.396 361.024
L267.548 361.116
L267.561 361.227
L267.674 361.227
L267.775 361.501
L267.925 361.553
L267.999 361.807
L268.086 361.807
L268.185 362.069
L268.333 362.069
L268.419 362.417
L268.553 362.473
L268.638 362.741
L268.784 362.796
L268.892 363.136
L268.964 363.234
L269.036 363.368
L269.132 363.464
L269.203 363.637
L269.275 363.637
L269.381 363.931
L269.452 364.007
L269.558 364.213
L269.746 364.288
L269.851 364.691
L269.92 364.691
L270.025 364.974
L270.197 364.974
L270.289 365.417
L270.358 365.417
L270.438 365.67
L270.529 365.73
L270.631 366.013
L270.71 366.073
L270.811 366.334
L270.912 366.373
L271.001 366.663
L271.102 366.734
L271.202 366.972
L271.312 367.071
L271.411 367.282
L271.532 367.366
L271.642 367.639
L271.794 367.639
L271.902 368.037
L272.021 368.136
L272.128 368.393
L272.225 368.393
L272.278 368.641
L272.406 368.641
L272.512 369.044
L272.596 369.044
L272.659 369.284
L272.733 369.284
L272.785 369.495
L272.858 369.495
L272.879 369.652
L273.035 369.652
L273.129 370.085
L273.201 370.155
L273.294 370.365
L273.386 370.47
L273.386 370.523
L273.499 370.523
L273.56 370.81
L273.651 370.81
L273.753 371.111
L273.934 371.189
L274.014 371.522
L274.104 371.586
L274.104 371.667
L274.264 371.667
L274.353 372.074
L274.432 372.172
L274.491 372.292
L274.59 372.392
L274.697 372.601
L274.824 372.646
L274.883 372.88
L275.028 372.88
L275.134 373.239
L275.23 373.322
L275.335 373.526
L275.421 373.616
L275.516 373.775
L275.621 373.876
L275.715 374.047
L275.856 374.152
L275.856 374.241
L275.987 374.241
L276.015 374.46
L276.108 374.46
L276.21 374.729
L276.294 374.82
L276.386 374.988
L276.487 375.069
L276.597 375.285
L276.679 375.335
L276.77 375.518
L276.87 375.593
L276.978 375.801
L277.068 375.892
L277.122 376.007
L277.202 376.007
L277.309 376.275
L277.434 376.369
L277.54 376.581
L277.628 376.665
L277.734 376.845
L277.83 376.922
L277.865 377.041
L277.969 377.041
L277.996 377.229
L278.091 377.229
L278.195 377.51
L278.272 377.562
L278.272 377.628
L278.401 377.628
L278.435 377.87
L278.529 377.979
L278.64 378.16
L278.733 378.184
L278.817 378.414
L278.961 378.523
L279.069 378.771
L279.161 378.838
L279.236 378.989
L279.41 379.085
L279.493 379.306
L279.583 379.369
L279.69 379.567
L279.804 379.631
L279.91 379.846
L280.007 379.929
L280.047 380.022
L280.168 380.022
L280.264 380.29
L280.368 380.387
L280.456 380.528
L280.551 380.627
L280.654 380.777
L280.788 380.828
L280.89 381.074
L281.007 381.18
L281.116 381.354
L281.21 381.448
L281.31 381.588
L281.487 381.665
L281.586 381.927
L281.739 382.035
L281.815 382.203
L281.906 382.203
L281.996 382.433
L282.124 382.514
L282.221 382.73
L282.333 382.839
L282.415 382.981
L282.526 383.079
L282.636 383.273
L282.754 383.356
L282.856 383.543
L282.973 383.645
L283.053 383.779
L283.19 383.886
L283.255 384.029
L283.363 384.029
L283.463 384.294
L283.591 384.403
L283.698 384.593
L283.782 384.676
L283.888 384.848
L283.979 384.915
L284.084 385.11
L284.245 385.218
L284.349 385.462
L284.432 385.56
L284.535 385.72
L284.617 385.72
L284.727 385.979
L284.829 386.036
L284.924 386.263
L285.012 386.295
L285.113 386.563
L285.194 386.651
L285.234 386.742
L285.315 386.742
L285.395 386.976
L285.534 387.032
L285.627 387.289
L285.805 387.378
L285.89 387.637
L286.008 387.706
L286.119 387.94
L286.203 387.991
L286.281 388.149
L286.377 388.233
L286.474 388.378
L286.57 388.469
L286.646 388.579
L286.78 388.657
L286.888 388.831
L287.045 388.92
L287.064 388.993
L287.214 389.097
L287.308 389.198
L287.438 389.309
L287.531 389.393
L287.679 389.453
L287.789 389.596
L287.972 389.707
L288.075 389.791
L288.244 389.866
L288.346 389.983
L288.526 390.063
L288.621 390.179
L288.793 390.247
L288.899 390.355
L289.162 390.449
L289.267 390.575
L289.481 390.681
L289.584 390.744
L289.887 390.851
L289.977 390.896
L290.359 391.006
L290.449 391.066
L290.923 391.175
L291.021 391.205
L291.411 391.295
L291.513 391.355
L291.859 391.448
L291.97 391.504
L292.367 391.607
L292.46 391.64
L292.948 391.747
L293.009 391.771
L293.332 391.873
L293.437 391.925
L293.75 392.034
L293.824 392.077
L294.089 392.182
L294.172 392.24
L294.434 392.35
L294.535 392.437
L294.765 392.539
L294.826 392.595
L295.025 392.705
L295.12 392.772
L295.289 392.874
L295.387 392.951
L295.596 393.058
L295.707 393.167
L295.886 393.229
L295.986 393.345
L296.173 393.429
L296.227 393.489
L296.421 393.592
L296.524 393.666
L296.742 393.776
L296.835 393.84
L297.043 393.946
L297.152 394.026
L297.427 394.128
L297.5 394.202
L297.771 394.311
L297.878 394.362
L298.128 394.452
L298.234 394.551
L298.443 394.647
L298.548 394.746
L298.747 394.843
L298.829 394.918
L298.994 395.028
L299.104 395.126
L299.234 395.199
L299.332 395.322
L299.481 395.427
L299.577 395.536
L299.729 395.614
L299.837 395.751
L300.019 395.838
L300.126 395.979
L300.29 396.059
L300.38 396.171
L300.536 396.281
L300.64 396.361
L300.81 396.471
L300.894 396.545
L301.066 396.651
L301.176 396.744
L301.346 396.851
L301.451 396.939
L301.582 397.042
L301.686 397.126
L301.86 397.236
L301.96 397.312
L302.14 397.423
L302.25 397.527
L302.42 397.626
L302.529 397.714
L302.702 397.819
L302.809 397.903
L302.991 398.011
L303.097 398.071
L303.322 398.18
L303.417 398.234
L303.622 398.344
L303.709 398.393
L303.985 398.495
L304.091 398.566
L304.356 398.66
L304.447 398.719
L304.728 398.822
L304.805 398.862
L305.096 398.964
L305.205 399.024
L305.456 399.126
L305.547 399.169
L305.949 399.278
L306.048 399.312
L306.358 399.423
L306.452 399.463
L306.817 399.567
L306.903 399.594
L307.658 399.704
L307.76 399.72
L309.246 399.829
L309.357 399.849
L309.761 399.956
L309.866 399.996
L310.233 400.1
L310.307 400.138
L310.679 400.244
L310.776 400.288
L311.059 400.391
L311.146 400.436
L311.471 400.54
L311.58 400.599
L311.905 400.699
L312.008 400.759
L312.266 400.86
L312.373 400.915
L312.646 401.017
L312.743 401.085
L312.985 401.192
L313.074 401.253
L313.294 401.363
L313.375 401.413
L313.589 401.52
L313.696 401.591
L313.901 401.696
L314.006 401.782
L314.195 401.885
L314.294 401.967
L314.457 402.06
L314.568 402.168
L314.736 402.275
L314.843 402.39
L314.994 402.496
L315.077 402.566
L315.237 402.67
L315.34 402.749
L315.511 402.855
L315.599 402.918
L315.788 403.019
L315.894 403.083
L316.13 403.188
L316.216 403.234
L316.504 403.329
L316.611 403.401
L316.878 403.508
L316.988 403.556
L317.383 403.664
L317.487 403.697
L317.869 403.802
L317.975 403.851
L318.272 403.962
L318.383 404.012
L318.72 404.12
L318.829 404.155
L319.159 404.264
L319.253 404.29
L319.934 404.401
L320.033 404.411
L322.97 404.3
L323.079 404.283
L326.993 404.174
L327.104 404.143
L327.505 404.034
L327.616 404.002
L328.076 403.894
L328.187 403.859
L328.552 403.757
L328.659 403.713
L329.001 403.603
L329.111 403.555
L329.46 403.446
L329.57 403.417
L330.018 403.307
L330.111 403.283
L330.551 403.174
L330.66 403.138
L331.146 403.028
L331.253 403.008
L331.975 402.898
L332.082 402.867
L332.483 402.757
L332.594 402.71
L332.842 402.607
L332.946 402.547
L333.183 402.445
L333.29 402.382
L333.528 402.272
L333.638 402.204
L333.814 402.096
L333.925 402.019
L334.102 401.914
L334.212 401.839
L334.394 401.73
L334.501 401.65
L334.687 401.541
L334.796 401.447
L334.961 401.34
L335.064 401.266
L335.236 401.157
L335.343 401.071
L335.483 400.961
L335.587 400.875
L335.743 400.768
L335.851 400.689
L336.014 400.586
L336.118 400.5
L336.267 400.391
L336.372 400.308
L336.515 400.198
L336.621 400.115
L336.767 400.006
L336.875 399.923
L337.049 399.821
L337.16 399.749
L337.356 399.638
L337.461 399.58
L337.655 399.473
L337.763 399.405
L337.968 399.301
L338.074 399.233
L338.261 399.124
L338.37 399.056
L338.564 398.949
L338.671 398.878
L338.852 398.769
L338.963 398.694
L339.163 398.589
L339.271 398.511
L339.461 398.401
L339.556 398.345
L339.754 398.235
L339.862 398.172
L340.069 398.061
L340.177 398.003
L340.372 397.897
L340.476 397.831
L340.709 397.721
L340.816 397.68
L341.109 397.569
L341.217 397.514
L341.558 397.403
L341.669 397.359
L341.929 397.249
L342.039 397.201
L342.305 397.091
L342.415 397.045
L342.694 396.934
L342.8 396.889
L343.127 396.782
L343.231 396.743
L343.681 396.633
L343.788 396.596
L344.137 396.485
L344.245 396.45
L344.61 396.339
L344.721 396.301
L344.982 396.192
L345.088 396.144
L345.4 396.035
L345.506 395.997
L345.746 395.886
L345.856 395.825
L346.066 395.715
L346.175 395.655
L346.419 395.545
L346.528 395.501
L346.79 395.392
L346.898 395.347
L347.171 395.236
L347.279 395.184
L347.522 395.073
L347.631 395.02
L347.901 394.91
L348.011 394.851
L348.241 394.745
L348.352 394.682
L348.576 394.573
L348.686 394.513
L348.927 394.407
L349.033 394.357
L349.352 394.246
L349.459 394.201
L349.692 394.091
L349.797 394.035
L350 393.924
L350.11 393.864
L350.328 393.753
L350.434 393.7
L350.657 393.59
L350.763 393.534
L350.988 393.423
L351.096 393.367
L351.31 393.259
L351.421 393.193
L351.619 393.082
L351.728 393.024
L351.942 392.913
L352.053 392.854
L352.28 392.745
L352.39 392.686
L352.649 392.577
L352.759 392.528
L353.035 392.417
L353.143 392.369
L353.386 392.258
L353.497 392.203
L353.714 392.093
L353.822 392.043
L354.107 391.933
L354.216 391.886
L354.445 391.777
L354.555 391.717
L354.801 391.608
L354.911 391.557
L355.167 391.448
L355.276 391.401
L355.548 391.291
L355.657 391.236
L355.93 391.125
L356.037 391.082
L356.311 390.973
L356.419 390.926
L356.677 390.815
L356.787 390.772
L357.052 390.662
L357.163 390.603
L357.404 390.495
L357.513 390.441
L357.734 390.33
L357.842 390.271
L358.014 390.161
L358.12 390.085
L358.273 389.975
L358.379 389.897
L358.544 389.786
L358.653 389.711
L358.802 389.604
L358.913 389.511
L359.051 389.401
L359.158 389.312
L359.297 389.201
L359.408 389.102
L359.534 388.993
L359.642 388.887
L359.756 388.779
L359.864 388.667
L359.973 388.56
L360.081 388.444
L360.194 388.335
L360.304 388.224
L360.421 388.114
L360.531 388.001
L360.643 387.891
L360.754 387.786
L360.879 387.676
L360.99 387.58
L361.122 387.47
L361.232 387.369
L361.365 387.258
L361.474 387.175
L361.63 387.064
L361.741 386.983
L361.902 386.874
L362.01 386.802
L362.172 386.692
L362.283 386.612
L362.443 386.502
L362.55 386.428
L362.748 386.317
L362.856 386.259
L363.07 386.149
L363.179 386.107
L363.484 385.997
L363.59 385.951
L363.867 385.84
L363.978 385.797
L364.282 385.687
L364.391 385.644
L364.674 385.533
L364.785 385.497
L365.64 385.386
L365.751 385.368
L366.317 385.257
L366.427 385.221
L366.711 385.11
L366.82 385.067
L367.137 384.956
L367.246 384.911
L367.654 384.8
L367.764 384.761
L368.043 384.65
L368.154 384.602
L368.514 384.491
L368.62 384.463
L369.063 384.352
L369.172 384.333
L369.712 384.222
L369.822 384.196
L370.562 384.086
L370.673 384.071
L371.462 383.96
L371.572 383.932
L371.93 383.821
L372.037 383.797
L379.667 383.686
L379.774 383.67
L381.491 383.559
L381.602 383.553
L387.317 383.664
L387.428 383.671
L388.005 383.782
L388.115 383.804
L389.048 383.915
L389.159 383.931
L390.013 384.042
L390.123 384.049
L391.68 384.16
L391.791 384.173
L392.41 384.284
L392.521 384.306
L393.255 384.418
L393.365 384.421
L395.411 384.532
L395.522 384.555
L396.114 384.666
L396.225 384.68
L396.835 384.791
L396.946 384.813
L397.506 384.924
L397.617 384.939
L399.711 384.828
L399.822 384.793
L400.255 384.682
L400.366 384.655
L400.891 384.543
L401.002 384.523
L401.458 384.412
L401.569 384.386
L401.978 384.275
L402.088 384.244
L402.496 384.133
L402.606 384.107
L403.034 383.996
L403.145 383.964
L403.567 383.853
L403.678 383.824
L404.033 383.713
L404.144 383.678
L404.418 383.567
L404.528 383.51
L404.74 383.399
L404.851 383.333
L405.028 383.222
L405.139 383.151
L405.325 383.04
L405.436 382.977
L405.635 382.866
L405.744 382.8
L405.94 382.689
L406.05 382.625
L406.227 382.514
L406.338 382.44
L406.51 382.329
L406.621 382.25
L406.774 382.14
L406.884 382.059
L407.036 381.949
L407.146 381.87
L407.335 381.759
L407.445 381.692
L407.624 381.581
L407.735 381.514
L407.939 381.403
L408.049 381.34
L408.252 381.23
L408.363 381.175
L408.585 381.064
L408.695 381.008
L408.929 380.897
L409.04 380.842
L409.268 380.731
L409.378 380.686
L409.731 380.575
L409.842 380.544
L410.202 380.433
L410.312 380.393
L410.709 380.282
L410.82 380.251
L411.174 380.14
L411.285 380.106
L411.618 379.996
L411.728 379.948
L412.03 379.837
L412.141 379.8
L412.517 379.689
L412.627 379.667
L413.413 379.556
L413.524 379.532
L414.176 379.421
L414.287 379.397
L414.851 379.286
L414.962 379.267
L415.486 379.156
L415.597 379.128
L416.277 379.017
L416.387 378.996
L416.824 378.885
L416.934 378.855
L417.472 378.744
L417.582 378.724
L418.111 378.613
L418.222 378.586
L418.603 378.475
L418.714 378.441
L419.087 378.33
L419.198 378.294
L419.554 378.183
L419.665 378.15
L420.059 378.039
L420.17 378.006
L420.734 377.895
L420.845 377.869
L421.342 377.758
L421.453 377.736
L421.975 377.625
L422.086 377.597
L422.429 377.486
L422.539 377.443
L422.788 377.332
L422.899 377.278
L423.152 377.167
L423.263 377.119
L423.595 377.008
L423.706 376.988
L424.389 376.877
L424.499 376.849
L424.906 376.738
L425.017 376.717
L425.706 376.606
L425.817 376.586
L426.319 376.475
L426.43 376.441
L426.981 376.33
L427.092 376.31
L428.065 376.198
L428.176 376.178
L429.005 376.067
L429.116 376.047
L429.773 375.936
L429.884 375.914
L430.445 375.803
L430.556 375.779
L432.085 375.668
L432.197 375.66
L433.306 375.771
L433.417 375.792
L435.846 375.681
L435.957 375.667
L436.789 375.556
L436.9 375.552
L438.442 375.441
L438.553 375.409
L439.106 375.298
L439.218 375.277
L439.863 375.166
L439.974 375.148
L440.825 375.037
L440.936 375.012
L441.441 374.901
L441.552 374.871
L441.969 374.76
L442.08 374.734
L442.698 374.623
L442.808 374.603
L443.772 374.492
L443.883 374.479
L444.686 374.368
L444.797 374.354
L445.494 374.243
L445.606 374.229
L446.572 374.118
L446.683 374.102
L447.162 373.991
L447.273 373.959
L447.627 373.848
L447.738 373.811
L448.036 373.699
L448.147 373.655
L448.39 373.544
L448.501 373.489
L448.732 373.378
L448.843 373.318
L449.024 373.207
L449.135 373.137
L449.318 373.025
L449.429 372.959
L449.631 372.848
L449.742 372.787
L449.948 372.676
L450.06 372.612
L450.252 372.501
L450.363 372.434
L450.56 372.323
L450.671 372.262
L450.883 372.151
L450.994 372.088
L451.191 371.977
L451.302 371.913
L451.497 371.802
L451.608 371.742
L451.81 371.631
L451.921 371.574
L452.151 371.463
L452.262 371.413
L452.547 371.302
L452.658 371.247
L452.853 371.136
L452.964 371.071
L453.177 370.96
L453.288 370.904
L453.515 370.792
L453.626 370.739
L453.854 370.628
L453.965 370.562
L454.156 370.451
L454.267 370.381
L454.437 370.27
L454.548 370.203
L454.731 370.092
L454.842 370.026
L455.018 369.915
L455.129 369.837
L455.287 369.726
L455.398 369.644
L455.543 369.533
L455.654 369.445
L455.796 369.333
L455.908 369.248
L456.051 369.137
L456.162 369.058
L456.334 368.947
L456.445 368.876
L456.615 368.765
L456.726 368.687
L456.88 368.576
L456.991 368.5
L457.154 368.389
L457.265 368.312
L457.434 368.201
L457.545 368.13
L457.716 368.019
L457.827 367.945
L457.987 367.834
L458.098 367.754
L458.251 367.643
L458.362 367.564
L458.525 367.453
L458.636 367.376
L458.782 367.265
L458.893 367.178
L459.031 367.067
L459.142 366.981
L459.284 366.87
L459.395 366.788
L459.544 366.677
L459.655 366.591
L459.791 366.48
L459.902 366.387
L460.041 366.276
L460.152 366.192
L460.299 366.081
L460.41 366.001
L460.56 365.89
L460.671 365.799
L460.81 365.688
L460.922 365.595
L461.06 365.484
L461.171 365.394
L461.31 365.283
L461.421 365.194
L461.559 365.083
L461.67 364.995
L461.811 364.884
L461.922 364.799
L462.068 364.688
L462.179 364.607
L462.334 364.496
L462.445 364.413
L462.599 364.302
L462.71 364.218
L462.855 364.107
L462.966 364.02
L463.103 363.909
L463.214 363.811
L463.342 363.7
L463.453 363.597
L463.567 363.486
L463.678 363.377
L463.794 363.266
L463.906 363.166
L464.037 363.055
L464.148 362.959
L464.275 362.848
L464.387 362.748
L464.513 362.637
L464.624 362.543
L464.756 362.432
L464.867 362.333
L464.995 362.222
L465.106 362.132
L465.245 362.021
L465.356 361.937
L465.514 361.826
L465.625 361.75
L465.789 361.639
L465.901 361.562
L466.048 361.451
L466.159 361.363
L466.295 361.252
L466.407 361.162
L466.552 361.051
L466.663 360.969
L466.818 360.858
L466.93 360.778
L467.084 360.667
L467.195 360.587
L467.357 360.476
L467.468 360.394
L467.614 360.283
L467.725 360.197
L467.863 360.086
L467.974 359.997
L468.126 359.886
L468.237 359.805
L468.401 359.693
L468.512 359.621
L468.699 359.51
L468.81 359.446
L468.993 359.335
L469.104 359.261
L469.264 359.15
L469.375 359.07
L469.523 358.959
L469.634 358.88
L469.79 358.769
L469.901 358.692
L470.081 358.581
L470.192 358.513
L470.373 358.402
L470.484 358.332
L470.646 358.221
L470.757 358.142
L470.902 358.031
L471.013 357.949
L471.173 357.838
L471.285 357.752
L471.416 357.641
L471.527 357.551
L471.669 357.44
L471.78 357.353
L471.932 357.242
L472.043 357.159
L472.196 357.048
L472.307 356.97
L472.479 356.859
L472.59 356.794
L472.77 356.683
L472.881 356.61
L473.055 356.498
L473.166 356.427
L473.339 356.316
L473.45 356.241
L473.623 356.13
L473.734 356.062
L473.904 355.951
L474.015 355.874
L474.174 355.763
L474.285 355.687
L474.449 355.576
L474.56 355.506
L474.747 355.394
L474.858 355.331
L475.054 355.22
L475.165 355.156
L475.363 355.045
L475.475 354.985
L475.669 354.874
L475.78 354.808
L475.969 354.697
L476.08 354.63
L476.281 354.519
L476.392 354.458
L476.607 354.346
L476.718 354.293
L476.918 354.182
L477.029 354.12
L477.219 354.008
L477.33 353.935
L477.485 353.824
L477.596 353.745
L477.757 353.634
L477.868 353.561
L478.031 353.45
L478.142 353.368
L478.298 353.257
L478.409 353.175
L478.56 353.064
L478.671 352.98
L478.803 352.869
L478.914 352.775
L479.047 352.664
L479.158 352.575
L479.297 352.464
L479.408 352.373
L479.541 352.262
L479.652 352.17
L479.796 352.059
L479.907 351.978
L480.052 351.867
L480.164 351.782
L480.303 351.671
L480.414 351.579
L480.549 351.468
L480.66 351.375
L480.796 351.264
L480.908 351.176
L481.053 351.065
L481.164 350.979
L481.302 350.868
L481.413 350.782
L481.571 350.67
L481.682 350.598
L481.851 350.487
L481.962 350.413
L482.122 350.302
L482.233 350.222
L482.394 350.111
L482.505 350.04
L482.682 349.929
L482.794 349.863
L482.981 349.752
L483.092 349.686
L483.281 349.575
L483.392 349.51
L483.581 349.399
L483.692 349.336
L483.887 349.225
L483.998 349.162
L484.188 349.051
L484.299 348.983
L484.484 348.871
L484.595 348.8
L484.761 348.689
L484.872 348.619
L485.059 348.508
L485.17 348.433
L485.339 348.322
L485.45 348.247
L485.625 348.136
L485.736 348.068
L485.906 347.957
L486.017 347.875
L486.162 347.764
L486.273 347.68
L486.422 347.569
L486.533 347.492
L486.698 347.381
L486.809 347.311
L486.979 347.2
L487.09 347.126
L487.268 347.015
L487.379 346.946
L487.566 346.835
L487.677 346.77
L487.866 346.659
L487.977 346.597
L488.163 346.486
L488.274 346.421
L488.477 346.31
L488.588 346.258
L488.827 346.146
L488.938 346.087
L489.141 345.976
L489.252 345.919
L489.456 345.807
L489.568 345.751
L489.792 345.64
L489.904 345.584
L490.119 345.473
L490.23 345.418
L490.459 345.307
L490.57 345.255
L490.81 345.144
L490.921 345.09
L491.143 344.978
L491.254 344.92
L491.458 344.809
L491.57 344.75
L491.782 344.639
L491.893 344.581
L492.121 344.47
L492.233 344.422
L492.475 344.31
L492.586 344.253
L492.818 344.142
L492.929 344.091
L493.158 343.98
L493.269 343.925
L493.512 343.813
L493.623 343.766
L493.871 343.655
L493.982 343.602
L494.204 343.491
L494.315 343.437
L494.53 343.326
L494.641 343.266
L494.846 343.155
L494.958 343.092
L495.14 342.981
L495.251 342.909
L495.425 342.798
L495.536 342.729
L495.715 342.617
L495.826 342.553
L496.024 342.442
L496.135 342.387
L496.361 342.276
L496.472 342.22
L496.688 342.109
L496.799 342.054
L497.025 341.942
L497.136 341.884
L497.365 341.773
L497.476 341.714
L497.671 341.603
L497.782 341.544
L497.986 341.433
L498.098 341.379
L498.309 341.268
L498.42 341.206
L498.607 341.095
L498.718 341.027
L498.925 340.916
L499.036 340.859
L499.243 340.748
L499.354 340.686
L499.543 340.575
L499.654 340.518
L499.878 340.407
L499.989 340.353
L500.208 340.242
L500.319 340.187
L500.536 340.076
L500.648 340.02
L500.868 339.909
L500.98 339.851
L501.207 339.74
L501.318 339.69
L501.535 339.578
L501.646 339.517
L501.837 339.406
L501.948 339.338
L502.12 339.227
L502.231 339.149
L502.387 339.038
L502.498 338.956
L502.649 338.845
L502.76 338.763
L502.909 338.652
L503.02 338.565
L503.165 338.454
L503.276 338.372
L503.429 338.261
L503.54 338.179
L503.707 338.068
L503.818 337.996
L504.007 337.885
L504.118 337.822
L504.333 337.711
L504.444 337.651
L504.633 337.54
L504.745 337.47
L504.93 337.359
L505.041 337.297
L505.261 337.186
L505.372 337.129
L505.589 337.018
L505.7 336.963
L505.918 336.852
L506.029 336.797
L506.26 336.686
L506.371 336.634
L506.644 336.522
L506.755 336.485
L507.068 336.374
L507.179 336.335
L507.495 336.223
L507.607 336.181
L507.879 336.07
L507.99 336.023
L508.221 335.912
L508.332 335.852
L508.525 335.741
L508.636 335.673
L508.823 335.562
L508.934 335.503
L509.139 335.392
L509.251 335.331
L509.477 335.219
L509.588 335.166
L509.837 335.055
L509.948 335.006
L510.194 334.895
L510.305 334.846
L510.545 334.735
L510.656 334.685
L510.914 334.573
L511.025 334.524
L511.251 334.412
L511.362 334.354
L511.572 334.243
L511.683 334.182
L511.889 334.071
L512 334.014
L512.227 333.903
L512.338 333.847
L512.555 333.736
L512.666 333.682
L512.905 333.571
L513.016 333.521
L513.247 333.409
L513.358 333.359
L513.62 333.248
L513.732 333.204
L514.029 333.093
L514.14 333.049
L514.417 332.937
L514.528 332.896
L514.821 332.785
L514.933 332.738
L515.217 332.627
L515.328 332.585
L515.656 332.474
L515.767 332.435
L516.048 332.324
L516.159 332.277
L516.43 332.166
L516.541 332.118
L516.762 332.007
L516.873 331.955
L517.1 331.844
L517.211 331.781
L517.414 331.67
L517.526 331.609
L517.748 331.498
L517.859 331.45
L518.107 331.339
L518.218 331.289
L518.457 331.178
L518.568 331.123
L518.777 331.012
L518.889 330.949
L519.106 330.838
L519.217 330.784
L519.437 330.673
L519.548 330.621
L519.816 330.509
L519.927 330.463
L520.175 330.352
L520.286 330.299
L520.507 330.188
L520.618 330.132
L520.829 330.021
L520.94 329.962
L521.146 329.851
L521.258 329.787
L521.436 329.676
L521.547 329.606
L521.728 329.494
L521.839 329.418
L521.998 329.307
L522.109 329.226
L522.278 329.115
L522.389 329.039
L522.553 328.928
L522.664 328.856
L522.849 328.745
L522.96 328.676
L523.138 328.565
L523.249 328.495
L523.428 328.384
L523.539 328.322
L523.761 328.21
L523.872 328.156
L524.161 328.045
L524.272 327.999
L524.548 327.888
L524.659 327.845
L524.925 327.734
L525.036 327.685
L525.287 327.574
L525.398 327.522
L525.622 327.411
L525.733 327.357
L525.972 327.246
L526.083 327.199
L526.41 327.088
L526.522 327.052
L526.869 326.941
L526.98 326.905
L527.337 326.793
L527.449 326.757
L527.796 326.646
L527.907 326.607
L528.204 326.495
L528.315 326.451
L528.609 326.34
L528.72 326.295
L528.973 326.184
L529.084 326.13
L529.325 326.019
L529.436 325.969
L529.687 325.858
L529.798 325.806
L530.063 325.695
L530.174 325.65
L530.47 325.539
L530.581 325.5
L530.853 325.388
L530.964 325.343
L531.307 325.232
L531.418 325.2
L531.881 325.089
L531.992 325.071
L532.584 324.96
L532.696 324.932
L533.032 324.821
L533.143 324.788
L533.525 324.677
L533.636 324.645
L534.14 324.534
L534.251 324.518
L534.741 324.407
L534.852 324.381
L535.409 324.27
L535.52 324.247
L539.598 324.136
L539.709 324.114
L540.276 324.003
L540.387 323.98
L540.878 323.869
L540.989 323.839
L541.403 323.728
L541.514 323.706
L542.524 323.595
L542.635 323.58
L543.29 323.469
L543.401 323.446
L544.075 323.335
L544.186 323.319
L547.526 323.214
L547.526 323.214" style="fill:none;stroke:#0000ff;stroke-width:5.0;"/>
   </g>
   <g id="matplotlib.axis_1">
    <g id="xtick_1">
     <g id="line2d_2">
      <path d="
M172.772 412.239
L172.772 8.51291" style="fill:none;stroke:#000000;stroke-dasharray:1.000000,3.000000;stroke-dashoffset:0.0;stroke-linecap:butt;stroke-width:0.5;"/>
     </g>
     <g id="line2d_3">
      <defs>
       <path d="
M0 0
L0 -4" id="m20c5eedccf"/>
      </defs>
      <g>
       <use style="stroke:#000000;stroke-linecap:butt;stroke-width:0.5;" x="172.771988442" xlink:href="#m20c5eedccf" y="16.276875"/>
      </g>
     </g>
     <g id="text_1">
      <!-- 5 -->
      <defs>
       <path d="
M10.7969 72.9062
L49.5156 72.9062
L49.5156 64.5938
L19.8281 64.5938
L19.8281 46.7344
Q21.9688 47.4688 24.1094 47.8281
Q26.2656 48.1875 28.4219 48.1875
Q40.625 48.1875 47.75 41.5
Q54.8906 34.8125 54.8906 23.3906
Q54.8906 11.625 47.5625 5.09375
Q40.2344 -1.42188 26.9062 -1.42188
Q22.3125 -1.42188 17.5469 -0.640625
Q12.7969 0.140625 7.71875 1.70312
L7.71875 11.625
Q12.1094 9.23438 16.7969 8.0625
Q21.4844 6.89062 26.7031 6.89062
Q35.1562 6.89062 40.0781 11.3281
Q45.0156 15.7656 45.0156 23.3906
Q45.0156 31 40.0781 35.4375
Q35.1562 39.8906 26.7031 39.8906
Q22.75 39.8906 18.8125 39.0156
Q14.8906 38.1406 10.7969 36.2812
z
" id="BitstreamVeraSans-Roman-35"/>
      </defs>
      <g transform="translate(167.111363442 37.774375)scale(0.24 -0.24)">
       <use xlink:href="#BitstreamVeraSans-Roman-35"/>
      </g>
     </g>
    </g>
    <g id="xtick_2">
     <g id="line2d_4">
      <path d="
M312.39 412.239
L312.39 8.51291" style="fill:none;stroke:#000000;stroke-dasharray:1.000000,3.000000;stroke-dashoffset:0.0;stroke-linecap:butt;stroke-width:0.5;"/>
     </g>
     <g id="line2d_5">
      <defs>
       <path d="
M0 0
L0 -4" id="m20c5eedccf"/>
      </defs>
      <g>
       <use style="stroke:#000000;stroke-linecap:butt;stroke-width:0.5;" x="312.390065662" xlink:href="#m20c5eedccf" y="16.276875"/>
      </g>
     </g>
     <g id="text_2">
      <!-- 10 -->
      <defs>
       <path d="
M31.7812 66.4062
Q24.1719 66.4062 20.3281 58.9062
Q16.5 51.4219 16.5 36.375
Q16.5 21.3906 20.3281 13.8906
Q24.1719 6.39062 31.7812 6.39062
Q39.4531 6.39062 43.2812 13.8906
Q47.125 21.3906 47.125 36.375
Q47.125 51.4219 43.2812 58.9062
Q39.4531 66.4062 31.7812 66.4062
M31.7812 74.2188
Q44.0469 74.2188 50.5156 64.5156
Q56.9844 54.8281 56.9844 36.375
Q56.9844 17.9688 50.5156 8.26562
Q44.0469 -1.42188 31.7812 -1.42188
Q19.5312 -1.42188 13.0625 8.26562
Q6.59375 17.9688 6.59375 36.375
Q6.59375 54.8281 13.0625 64.5156
Q19.5312 74.2188 31.7812 74.2188" id="BitstreamVeraSans-Roman-30"/>
       <path d="
M12.4062 8.29688
L28.5156 8.29688
L28.5156 63.9219
L10.9844 60.4062
L10.9844 69.3906
L28.4219 72.9062
L38.2812 72.9062
L38.2812 8.29688
L54.3906 8.29688
L54.3906 0
L12.4062 0
z
" id="BitstreamVeraSans-Roman-31"/>
      </defs>
      <g transform="translate(299.235065662 38.089375)scale(0.24 -0.24)">
       <use xlink:href="#BitstreamVeraSans-Roman-31"/>
       <use x="63.623046875" xlink:href="#BitstreamVeraSans-Roman-30"/>
      </g>
     </g>
    </g>
    <g id="xtick_3">
     <g id="line2d_6">
      <path d="
M452.008 412.239
L452.008 8.51291" style="fill:none;stroke:#000000;stroke-dasharray:1.000000,3.000000;stroke-dashoffset:0.0;stroke-linecap:butt;stroke-width:0.5;"/>
     </g>
     <g id="line2d_7">
      <defs>
       <path d="
M0 0
L0 -4" id="m20c5eedccf"/>
      </defs>
      <g>
       <use style="stroke:#000000;stroke-linecap:butt;stroke-width:0.5;" x="452.008142882" xlink:href="#m20c5eedccf" y="16.276875"/>
      </g>
     </g>
     <g id="text_3">
      <!-- 15 -->
      <g transform="translate(439.104392882 37.774375)scale(0.24 -0.24)">
       <use xlink:href="#BitstreamVeraSans-Roman-31"/>
       <use x="63.623046875" xlink:href="#BitstreamVeraSans-Roman-35"/>
      </g>
     </g>
    </g>
    <g id="xtick_4">
     <g id="line2d_8">
      <defs>
       <path d="
M0 0
L0 -2" id="mdcf029b0e9"/>
      </defs>
      <g>
       <use style="stroke:#000000;stroke-linecap:butt;stroke-width:0.5;" x="61.0775266664" xlink:href="#mdcf029b0e9" y="16.276875"/>
      </g>
     </g>
    </g>
    <g id="xtick_5">
     <g id="line2d_9">
      <defs>
       <path d="
M0 0
L0 -2" id="mdcf029b0e9"/>
      </defs>
      <g>
       <use style="stroke:#000000;stroke-linecap:butt;stroke-width:0.5;" x="89.0011421104" xlink:href="#mdcf029b0e9" y="16.276875"/>
      </g>
     </g>
    </g>
    <g id="xtick_6">
     <g id="line2d_10">
      <defs>
       <path d="
M0 0
L0 -2" id="mdcf029b0e9"/>
      </defs>
      <g>
       <use style="stroke:#000000;stroke-linecap:butt;stroke-width:0.5;" x="116.924757554" xlink:href="#mdcf029b0e9" y="16.276875"/>
      </g>
     </g>
    </g>
    <g id="xtick_7">
     <g id="line2d_11">
      <defs>
       <path d="
M0 0
L0 -2" id="mdcf029b0e9"/>
      </defs>
      <g>
       <use style="stroke:#000000;stroke-linecap:butt;stroke-width:0.5;" x="144.848372998" xlink:href="#mdcf029b0e9" y="16.276875"/>
      </g>
     </g>
    </g>
    <g id="xtick_8">
     <g id="line2d_12">
      <defs>
       <path d="
M0 0
L0 -2" id="mdcf029b0e9"/>
      </defs>
      <g>
       <use style="stroke:#000000;stroke-linecap:butt;stroke-width:0.5;" x="200.695603886" xlink:href="#mdcf029b0e9" y="16.276875"/>
      </g>
     </g>
    </g>
    <g id="xtick_9">
     <g id="line2d_13">
      <defs>
       <path d="
M0 0
L0 -2" id="mdcf029b0e9"/>
      </defs>
      <g>
       <use style="stroke:#000000;stroke-linecap:butt;stroke-width:0.5;" x="228.61921933" xlink:href="#mdcf029b0e9" y="16.276875"/>
      </g>
     </g>
    </g>
    <g id="xtick_10">
     <g id="line2d_14">
      <defs>
       <path d="
M0 0
L0 -2" id="mdcf029b0e9"/>
      </defs>
      <g>
       <use style="stroke:#000000;stroke-linecap:butt;stroke-width:0.5;" x="256.542834774" xlink:href="#mdcf029b0e9" y="16.276875"/>
      </g>
     </g>
    </g>
    <g id="xtick_11">
     <g id="line2d_15">
      <defs>
       <path d="
M0 0
L0 -2" id="mdcf029b0e9"/>
      </defs>
      <g>
       <use style="stroke:#000000;stroke-linecap:butt;stroke-width:0.5;" x="284.466450218" xlink:href="#mdcf029b0e9" y="16.276875"/>
      </g>
     </g>
    </g>
    <g id="xtick_12">
     <g id="line2d_16">
      <defs>
       <path d="
M0 0
L0 -2" id="mdcf029b0e9"/>
      </defs>
      <g>
       <use style="stroke:#000000;stroke-linecap:butt;stroke-width:0.5;" x="340.313681106" xlink:href="#mdcf029b0e9" y="16.276875"/>
      </g>
     </g>
    </g>
    <g id="xtick_13">
     <g id="line2d_17">
      <defs>
       <path d="
M0 0
L0 -2" id="mdcf029b0e9"/>
      </defs>
      <g>
       <use style="stroke:#000000;stroke-linecap:butt;stroke-width:0.5;" x="368.23729655" xlink:href="#mdcf029b0e9" y="16.276875"/>
      </g>
     </g>
    </g>
    <g id="xtick_14">
     <g id="line2d_18">
      <defs>
       <path d="
M0 0
L0 -2" id="mdcf029b0e9"/>
      </defs>
      <g>
       <use style="stroke:#000000;stroke-linecap:butt;stroke-width:0.5;" x="396.160911994" xlink:href="#mdcf029b0e9" y="16.276875"/>
      </g>
     </g>
    </g>
    <g id="xtick_15">
     <g id="line2d_19">
      <defs>
       <path d="
M0 0
L0 -2" id="mdcf029b0e9"/>
      </defs>
      <g>
       <use style="stroke:#000000;stroke-linecap:butt;stroke-width:0.5;" x="424.084527438" xlink:href="#mdcf029b0e9" y="16.276875"/>
      </g>
     </g>
    </g>
    <g id="xtick_16">
     <g id="line2d_20">
      <defs>
       <path d="
M0 0
L0 -2" id="mdcf029b0e9"/>
      </defs>
      <g>
       <use style="stroke:#000000;stroke-linecap:butt;stroke-width:0.5;" x="479.931758326" xlink:href="#mdcf029b0e9" y="16.276875"/>
      </g>
     </g>
    </g>
    <g id="xtick_17">
     <g id="line2d_21">
      <defs>
       <path d="
M0 0
L0 -2" id="mdcf029b0e9"/>
      </defs>
      <g>
       <use style="stroke:#000000;stroke-linecap:butt;stroke-width:0.5;" x="507.85537377" xlink:href="#mdcf029b0e9" y="16.276875"/>
      </g>
     </g>
    </g>
   </g>
   <g id="matplotlib.axis_2">
    <g id="ytick_1">
     <g id="line2d_22">
      <path d="
M42.6088 387.634
L557.426 387.634" style="fill:none;stroke:#000000;stroke-dasharray:1.000000,3.000000;stroke-dashoffset:0.0;stroke-linecap:butt;stroke-width:0.5;"/>
     </g>
     <g id="line2d_23">
      <defs>
       <path d="
M0 0
L4 0" id="mc193e91e25"/>
      </defs>
      <g>
       <use style="stroke:#000000;stroke-linecap:butt;stroke-width:0.5;" x="32.60875" xlink:href="#mc193e91e25" y="387.634067528"/>
      </g>
     </g>
     <g id="text_4">
      <!-- -5 -->
      <defs>
       <path d="
M4.89062 31.3906
L31.2031 31.3906
L31.2031 23.3906
L4.89062 23.3906
z
" id="BitstreamVeraSans-Roman-2d"/>
      </defs>
      <g transform="translate(7.95 396.212192528)scale(0.24 -0.24)">
       <use xlink:href="#BitstreamVeraSans-Roman-2d"/>
       <use x="36.083984375" xlink:href="#BitstreamVeraSans-Roman-35"/>
      </g>
     </g>
    </g>
    <g id="ytick_2">
     <g id="line2d_24">
      <path d="
M42.6088 313.363
L557.426 313.363" style="fill:none;stroke:#000000;stroke-dasharray:1.000000,3.000000;stroke-dashoffset:0.0;stroke-linecap:butt;stroke-width:0.5;"/>
     </g>
     <g id="line2d_25">
      <defs>
       <path d="
M0 0
L4 0" id="mc193e91e25"/>
      </defs>
      <g>
       <use style="stroke:#000000;stroke-linecap:butt;stroke-width:0.5;" x="32.60875" xlink:href="#mc193e91e25" y="313.362629023"/>
      </g>
     </g>
     <g id="text_5">
      <!-- -4 -->
      <defs>
       <path d="
M37.7969 64.3125
L12.8906 25.3906
L37.7969 25.3906
z

M35.2031 72.9062
L47.6094 72.9062
L47.6094 25.3906
L58.0156 25.3906
L58.0156 17.1875
L47.6094 17.1875
L47.6094 0
L37.7969 0
L37.7969 17.1875
L4.89062 17.1875
L4.89062 26.7031
z
" id="BitstreamVeraSans-Roman-34"/>
      </defs>
      <g transform="translate(7.2 322.111379023)scale(0.24 -0.24)">
       <use xlink:href="#BitstreamVeraSans-Roman-2d"/>
       <use x="36.083984375" xlink:href="#BitstreamVeraSans-Roman-34"/>
      </g>
     </g>
    </g>
    <g id="ytick_3">
     <g id="line2d_26">
      <path d="
M42.6088 239.091
L557.426 239.091" style="fill:none;stroke:#000000;stroke-dasharray:1.000000,3.000000;stroke-dashoffset:0.0;stroke-linecap:butt;stroke-width:0.5;"/>
     </g>
     <g id="line2d_27">
      <defs>
       <path d="
M0 0
L4 0" id="mc193e91e25"/>
      </defs>
      <g>
       <use style="stroke:#000000;stroke-linecap:butt;stroke-width:0.5;" x="32.60875" xlink:href="#mc193e91e25" y="239.091190517"/>
      </g>
     </g>
     <g id="text_6">
      <!-- -3 -->
      <defs>
       <path d="
M40.5781 39.3125
Q47.6562 37.7969 51.625 33
Q55.6094 28.2188 55.6094 21.1875
Q55.6094 10.4062 48.1875 4.48438
Q40.7656 -1.42188 27.0938 -1.42188
Q22.5156 -1.42188 17.6562 -0.515625
Q12.7969 0.390625 7.625 2.20312
L7.625 11.7188
Q11.7188 9.32812 16.5938 8.10938
Q21.4844 6.89062 26.8125 6.89062
Q36.0781 6.89062 40.9375 10.5469
Q45.7969 14.2031 45.7969 21.1875
Q45.7969 27.6406 41.2812 31.2656
Q36.7656 34.9062 28.7188 34.9062
L20.2188 34.9062
L20.2188 43.0156
L29.1094 43.0156
Q36.375 43.0156 40.2344 45.9219
Q44.0938 48.8281 44.0938 54.2969
Q44.0938 59.9062 40.1094 62.9062
Q36.1406 65.9219 28.7188 65.9219
Q24.6562 65.9219 20.0156 65.0312
Q15.375 64.1562 9.8125 62.3125
L9.8125 71.0938
Q15.4375 72.6562 20.3438 73.4375
Q25.25 74.2188 29.5938 74.2188
Q40.8281 74.2188 47.3594 69.1094
Q53.9062 64.0156 53.9062 55.3281
Q53.9062 49.2656 50.4375 45.0938
Q46.9688 40.9219 40.5781 39.3125" id="BitstreamVeraSans-Roman-33"/>
      </defs>
      <g transform="translate(7.7775 247.826815517)scale(0.24 -0.24)">
       <use xlink:href="#BitstreamVeraSans-Roman-2d"/>
       <use x="36.083984375" xlink:href="#BitstreamVeraSans-Roman-33"/>
      </g>
     </g>
    </g>
    <g id="ytick_4">
     <g id="line2d_28">
      <path d="
M42.6088 164.82
L557.426 164.82" style="fill:none;stroke:#000000;stroke-dasharray:1.000000,3.000000;stroke-dashoffset:0.0;stroke-linecap:butt;stroke-width:0.5;"/>
     </g>
     <g id="line2d_29">
      <defs>
       <path d="
M0 0
L4 0" id="mc193e91e25"/>
      </defs>
      <g>
       <use style="stroke:#000000;stroke-linecap:butt;stroke-width:0.5;" x="32.60875" xlink:href="#mc193e91e25" y="164.819752011"/>
      </g>
     </g>
     <g id="text_7">
      <!-- -2 -->
      <defs>
       <path d="
M19.1875 8.29688
L53.6094 8.29688
L53.6094 0
L7.32812 0
L7.32812 8.29688
Q12.9375 14.1094 22.625 23.8906
Q32.3281 33.6875 34.8125 36.5312
Q39.5469 41.8438 41.4219 45.5312
Q43.3125 49.2188 43.3125 52.7812
Q43.3125 58.5938 39.2344 62.25
Q35.1562 65.9219 28.6094 65.9219
Q23.9688 65.9219 18.8125 64.3125
Q13.6719 62.7031 7.8125 59.4219
L7.8125 69.3906
Q13.7656 71.7812 18.9375 73
Q24.125 74.2188 28.4219 74.2188
Q39.75 74.2188 46.4844 68.5469
Q53.2188 62.8906 53.2188 53.4219
Q53.2188 48.9219 51.5312 44.8906
Q49.8594 40.875 45.4062 35.4062
Q44.1875 33.9844 37.6406 27.2188
Q31.1094 20.4531 19.1875 8.29688" id="BitstreamVeraSans-Roman-32"/>
      </defs>
      <g transform="translate(8.2575 173.726002011)scale(0.24 -0.24)">
       <use xlink:href="#BitstreamVeraSans-Roman-2d"/>
       <use x="36.083984375" xlink:href="#BitstreamVeraSans-Roman-32"/>
      </g>
     </g>
    </g>
    <g id="ytick_5">
     <g id="line2d_30">
      <path d="
M42.6088 90.5483
L557.426 90.5483" style="fill:none;stroke:#000000;stroke-dasharray:1.000000,3.000000;stroke-dashoffset:0.0;stroke-linecap:butt;stroke-width:0.5;"/>
     </g>
     <g id="line2d_31">
      <defs>
       <path d="
M0 0
L4 0" id="mc193e91e25"/>
      </defs>
      <g>
       <use style="stroke:#000000;stroke-linecap:butt;stroke-width:0.5;" x="32.60875" xlink:href="#mc193e91e25" y="90.5483135057"/>
      </g>
     </g>
     <g id="text_8">
      <!-- -1 -->
      <g transform="translate(8.07 99.2970635057)scale(0.24 -0.24)">
       <use xlink:href="#BitstreamVeraSans-Roman-2d"/>
       <use x="36.083984375" xlink:href="#BitstreamVeraSans-Roman-31"/>
      </g>
     </g>
    </g>
    <g id="ytick_6">
     <g id="line2d_32">
      <path d="
M42.6088 16.2769
L557.426 16.2769" style="fill:none;stroke:#000000;stroke-dasharray:1.000000,3.000000;stroke-dashoffset:0.0;stroke-linecap:butt;stroke-width:0.5;"/>
     </g>
     <g id="line2d_33">
      <defs>
       <path d="
M0 0
L4 0" id="mc193e91e25"/>
      </defs>
      <g>
       <use style="stroke:#000000;stroke-linecap:butt;stroke-width:0.5;" x="32.60875" xlink:href="#mc193e91e25" y="16.276875"/>
      </g>
     </g>
     <g id="text_9">
      <!-- 0 -->
      <g transform="translate(16.515 25.0125)scale(0.24 -0.24)">
       <use xlink:href="#BitstreamVeraSans-Roman-30"/>
      </g>
     </g>
    </g>
    <g id="ytick_7">
     <g id="line2d_34">
      <defs>
       <path d="
M0 0
L2 0" id="m14972edcc6"/>
      </defs>
      <g>
       <use style="stroke:#000000;stroke-linecap:butt;stroke-width:0.5;" x="32.60875" xlink:href="#m14972edcc6" y="402.488355229"/>
      </g>
     </g>
    </g>
    <g id="ytick_8">
     <g id="line2d_35">
      <defs>
       <path d="
M0 0
L2 0" id="m14972edcc6"/>
      </defs>
      <g>
       <use style="stroke:#000000;stroke-linecap:butt;stroke-width:0.5;" x="32.60875" xlink:href="#m14972edcc6" y="372.779779827"/>
      </g>
     </g>
    </g>
    <g id="ytick_9">
     <g id="line2d_36">
      <defs>
       <path d="
M0 0
L2 0" id="m14972edcc6"/>
      </defs>
      <g>
       <use style="stroke:#000000;stroke-linecap:butt;stroke-width:0.5;" x="32.60875" xlink:href="#m14972edcc6" y="357.925492126"/>
      </g>
     </g>
    </g>
    <g id="ytick_10">
     <g id="line2d_37">
      <defs>
       <path d="
M0 0
L2 0" id="m14972edcc6"/>
      </defs>
      <g>
       <use style="stroke:#000000;stroke-linecap:butt;stroke-width:0.5;" x="32.60875" xlink:href="#m14972edcc6" y="343.071204425"/>
      </g>
     </g>
    </g>
    <g id="ytick_11">
     <g id="line2d_38">
      <defs>
       <path d="
M0 0
L2 0" id="m14972edcc6"/>
      </defs>
      <g>
       <use style="stroke:#000000;stroke-linecap:butt;stroke-width:0.5;" x="32.60875" xlink:href="#m14972edcc6" y="328.216916724"/>
      </g>
     </g>
    </g>
    <g id="ytick_12">
     <g id="line2d_39">
      <defs>
       <path d="
M0 0
L2 0" id="m14972edcc6"/>
      </defs>
      <g>
       <use style="stroke:#000000;stroke-linecap:butt;stroke-width:0.5;" x="32.60875" xlink:href="#m14972edcc6" y="298.508341322"/>
      </g>
     </g>
    </g>
    <g id="ytick_13">
     <g id="line2d_40">
      <defs>
       <path d="
M0 0
L2 0" id="m14972edcc6"/>
      </defs>
      <g>
       <use style="stroke:#000000;stroke-linecap:butt;stroke-width:0.5;" x="32.60875" xlink:href="#m14972edcc6" y="283.65405362"/>
      </g>
     </g>
    </g>
    <g id="ytick_14">
     <g id="line2d_41">
      <defs>
       <path d="
M0 0
L2 0" id="m14972edcc6"/>
      </defs>
      <g>
       <use style="stroke:#000000;stroke-linecap:butt;stroke-width:0.5;" x="32.60875" xlink:href="#m14972edcc6" y="268.799765919"/>
      </g>
     </g>
    </g>
    <g id="ytick_15">
     <g id="line2d_42">
      <defs>
       <path d="
M0 0
L2 0" id="m14972edcc6"/>
      </defs>
      <g>
       <use style="stroke:#000000;stroke-linecap:butt;stroke-width:0.5;" x="32.60875" xlink:href="#m14972edcc6" y="253.945478218"/>
      </g>
     </g>
    </g>
    <g id="ytick_16">
     <g id="line2d_43">
      <defs>
       <path d="
M0 0
L2 0" id="m14972edcc6"/>
      </defs>
      <g>
       <use style="stroke:#000000;stroke-linecap:butt;stroke-width:0.5;" x="32.60875" xlink:href="#m14972edcc6" y="239.091190517"/>
      </g>
     </g>
    </g>
    <g id="ytick_17">
     <g id="line2d_44">
      <defs>
       <path d="
M0 0
L2 0" id="m14972edcc6"/>
      </defs>
      <g>
       <use style="stroke:#000000;stroke-linecap:butt;stroke-width:0.5;" x="32.60875" xlink:href="#m14972edcc6" y="224.236902816"/>
      </g>
     </g>
    </g>
    <g id="ytick_18">
     <g id="line2d_45">
      <defs>
       <path d="
M0 0
L2 0" id="m14972edcc6"/>
      </defs>
      <g>
       <use style="stroke:#000000;stroke-linecap:butt;stroke-width:0.5;" x="32.60875" xlink:href="#m14972edcc6" y="209.382615115"/>
      </g>
     </g>
    </g>
    <g id="ytick_19">
     <g id="line2d_46">
      <defs>
       <path d="
M0 0
L2 0" id="m14972edcc6"/>
      </defs>
      <g>
       <use style="stroke:#000000;stroke-linecap:butt;stroke-width:0.5;" x="32.60875" xlink:href="#m14972edcc6" y="194.528327414"/>
      </g>
     </g>
    </g>
    <g id="ytick_20">
     <g id="line2d_47">
      <defs>
       <path d="
M0 0
L2 0" id="m14972edcc6"/>
      </defs>
      <g>
       <use style="stroke:#000000;stroke-linecap:butt;stroke-width:0.5;" x="32.60875" xlink:href="#m14972edcc6" y="179.674039712"/>
      </g>
     </g>
    </g>
    <g id="ytick_21">
     <g id="line2d_48">
      <defs>
       <path d="
M0 0
L2 0" id="m14972edcc6"/>
      </defs>
      <g>
       <use style="stroke:#000000;stroke-linecap:butt;stroke-width:0.5;" x="32.60875" xlink:href="#m14972edcc6" y="164.819752011"/>
      </g>
     </g>
    </g>
    <g id="ytick_22">
     <g id="line2d_49">
      <defs>
       <path d="
M0 0
L2 0" id="m14972edcc6"/>
      </defs>
      <g>
       <use style="stroke:#000000;stroke-linecap:butt;stroke-width:0.5;" x="32.60875" xlink:href="#m14972edcc6" y="149.96546431"/>
      </g>
     </g>
    </g>
    <g id="ytick_23">
     <g id="line2d_50">
      <defs>
       <path d="
M0 0
L2 0" id="m14972edcc6"/>
      </defs>
      <g>
       <use style="stroke:#000000;stroke-linecap:butt;stroke-width:0.5;" x="32.60875" xlink:href="#m14972edcc6" y="135.111176609"/>
      </g>
     </g>
    </g>
    <g id="ytick_24">
     <g id="line2d_51">
      <defs>
       <path d="
M0 0
L2 0" id="m14972edcc6"/>
      </defs>
      <g>
       <use style="stroke:#000000;stroke-linecap:butt;stroke-width:0.5;" x="32.60875" xlink:href="#m14972edcc6" y="120.256888908"/>
      </g>
     </g>
    </g>
    <g id="ytick_25">
     <g id="line2d_52">
      <defs>
       <path d="
M0 0
L2 0" id="m14972edcc6"/>
      </defs>
      <g>
       <use style="stroke:#000000;stroke-linecap:butt;stroke-width:0.5;" x="32.60875" xlink:href="#m14972edcc6" y="105.402601207"/>
      </g>
     </g>
    </g>
    <g id="ytick_26">
     <g id="line2d_53">
      <defs>
       <path d="
M0 0
L2 0" id="m14972edcc6"/>
      </defs>
      <g>
       <use style="stroke:#000000;stroke-linecap:butt;stroke-width:0.5;" x="32.60875" xlink:href="#m14972edcc6" y="90.5483135057"/>
      </g>
     </g>
    </g>
    <g id="ytick_27">
     <g id="line2d_54">
      <defs>
       <path d="
M0 0
L2 0" id="m14972edcc6"/>
      </defs>
      <g>
       <use style="stroke:#000000;stroke-linecap:butt;stroke-width:0.5;" x="32.60875" xlink:href="#m14972edcc6" y="75.6940258045"/>
      </g>
     </g>
    </g>
    <g id="ytick_28">
     <g id="line2d_55">
      <defs>
       <path d="
M0 0
L2 0" id="m14972edcc6"/>
      </defs>
      <g>
       <use style="stroke:#000000;stroke-linecap:butt;stroke-width:0.5;" x="32.60875" xlink:href="#m14972edcc6" y="60.8397381034"/>
      </g>
     </g>
    </g>
    <g id="ytick_29">
     <g id="line2d_56">
      <defs>
       <path d="
M0 0
L2 0" id="m14972edcc6"/>
      </defs>
      <g>
       <use style="stroke:#000000;stroke-linecap:butt;stroke-width:0.5;" x="32.60875" xlink:href="#m14972edcc6" y="45.9854504023"/>
      </g>
     </g>
    </g>
    <g id="ytick_30">
     <g id="line2d_57">
      <defs>
       <path d="
M0 0
L2 0" id="m14972edcc6"/>
      </defs>
      <g>
       <use style="stroke:#000000;stroke-linecap:butt;stroke-width:0.5;" x="32.60875" xlink:href="#m14972edcc6" y="31.1311627011"/>
      </g>
     </g>
    </g>
   </g>
   <g id="patch_3">
    <path d="
M42.6088 16.2769
L557.426 16.2769" style="fill:none;stroke:#000000;stroke-width:0.8;"/>
   </g>
   <g id="patch_4">
    <path d="
M32.6088 412.239
L32.6088 8.51291" style="fill:none;stroke:#000000;stroke-width:0.8;"/>
   </g>
  </g>
 </g>
 <defs>
  <clipPath id="p10490cade4">
   <rect height="403.726153846" width="514.8175" x="42.60875" y="8.51291050296"/>
  </clipPath>
 </defs>
</svg>
