<?xml version="1.0" encoding="utf-8" standalone="no"?>
<!DOCTYPE svg PUBLIC "-//W3C//DTD SVG 1.1//EN"
  "http://www.w3.org/Graphics/SVG/1.1/DTD/svg11.dtd">
<!-- Created with matplotlib (http://matplotlib.sourceforge.net/) -->
<svg height="419pt" version="1.1" viewBox="0 0 564 419" width="564pt" xmlns="http://www.w3.org/2000/svg" xmlns:xlink="http://www.w3.org/1999/xlink">
 <defs>
  <style type="text/css">
*{stroke-linecap:square;stroke-linejoin:round;}
  </style>
 </defs>
 <g id="figure_1">
  <g id="patch_1">
   <path d="
M-4.44089e-16 419.439
L564.499 419.439
L564.499 0
L-4.44089e-16 0
z
" style="fill:#ffffff;"/>
  </g>
  <g id="axes_1">
   <g id="patch_2">
    <path d="
M64.7562 412.239
L557.299 412.239
L557.299 8.51291
L64.7562 8.51291
z
" style="fill:#ffffff;"/>
   </g>
   <g id="line2d_1">
    <path clip-path="url(#p8d84e77ebc)" d="
M74.2282 16.2769
L85.0604 16.2769
L85.0604 44.9734
L98.7073 44.9734
L98.7073 95.2275
L107.696 95.2275
L107.696 133.305
L119.771 133.305
L119.771 186.649
L124.234 186.649
L124.234 194.708
L131.401 194.708
L131.401 214.029
L134.372 214.029
L134.372 224.145
L139.477 224.145
L139.477 244.691
L145.669 244.691
L145.669 271.089
L147.451 271.089
L147.451 279.326
L152.178 279.326
L152.178 302.908
L154.92 302.908
L154.92 317.151
L156.193 317.151
L156.193 322.323
L158.569 322.323
L158.569 333.17
L161.779 333.17
L161.779 344.179
L164.644 344.179
L164.644 354.894
L165.534 354.894
L165.534 358.591
L168.041 358.591
L168.041 366.808
L169.59 366.808
L169.59 372.463
L170.332 372.463
L170.332 374.617
L172.442 374.617
L172.442 379.185
L173.762 379.185
L173.762 382.587
L175.626 382.587
L175.626 386.078
L177.926 386.078
L177.926 391.207
L179.005 391.207
L179.005 392.898
L179.529 392.898
L179.529 393.952
L180.547 393.952
L180.547 395.427
L181.042 395.427
L181.042 396.36
L182.005 396.36
L182.005 397.654
L185.125 397.654
L185.125 402.865
L185.953 402.865
L185.953 403.753
L187.15 403.753
L187.15 404.437
L189.393 404.475
L189.393 403.801
L189.749 403.801
L189.749 403.514
L190.79 403.514
L190.79 403.094
L192.44 403.072
L192.44 402.783
L194.294 402.717
L194.294 402.277
L194.591 402.277
L194.591 402.017
L196.027 402.017
L196.027 400.213
L196.305 400.213
L196.305 399.966
L196.854 399.966
L196.854 399.277
L197.123 399.277
L197.123 398.84
L198.688 398.84
L198.688 395.767
L200.165 395.767
L200.165 392.395
L200.64 392.395
L200.64 391.486
L200.875 391.486
L200.875 391.118
L201.337 391.118
L201.337 390.549
L202.017 390.549
L202.017 389.489
L202.239 389.489
L202.239 389.068
L203.325 389.068
L203.325 387.384
L203.956 387.384
L203.956 386.613
L204.573 386.613
L204.573 386.055
L205.176 386.055
L205.176 385.696
L205.959 385.638
L205.959 385.283
L206.342 385.283
L206.342 385.164
L206.531 385.164
L206.531 385.047
L207.459 385.047
L207.459 384.186
L208.706 384.186
L208.706 383.388
L209.051 383.388
L209.051 383.264
L209.223 383.264
L209.223 383.152
L209.562 383.152
L209.562 382.831
L210.717 382.831
L210.717 381.409
L211.196 381.409
L211.196 380.952
L211.978 380.952
L211.978 380.422
L212.131 380.422
L212.131 380.275
L212.436 380.275
L212.436 379.9
L212.886 379.9
L212.886 379.468
L213.475 379.468
L213.475 378.744
L213.908 378.744
L213.908 378.326
L214.334 378.326
L214.334 377.803
L214.615 377.803
L214.615 377.385
L215.03 377.385
L215.03 376.659
L215.574 376.659
L215.574 375.574
L215.842 375.574
L215.842 375.11
L216.369 375.11
L216.369 374.065
L217.015 374.065
L217.015 372.957
L217.142 372.957
L217.142 372.771
L217.769 372.771
L217.769 372.012
L217.893 372.012
L217.893 371.893
L218.26 371.893
L218.26 371.629
L218.503 371.629
L218.503 371.395
L218.862 371.395
L218.862 371.134
L219.334 371.134
L219.334 370.677
L219.567 370.677
L219.567 370.507
L219.682 370.507
L219.682 370.394
L219.912 370.394
L219.912 370.117
L220.59 370.117
L220.59 369.139
L221.033 369.139
L221.033 368.4
L221.251 368.4
L221.251 367.986
L221.683 367.986
L221.683 367.269
L221.896 367.269
L221.896 366.965
L222.213 366.965
L222.213 366.442
L222.836 366.442
L222.938 365.39
L223.842 365.39
L223.842 363.712
L224.137 363.712
L224.137 363.105
L224.621 363.105
L224.621 362.216
L224.907 362.216
L224.907 361.754
L225.19 361.754
L225.284 361.047
L225.563 361.047
L225.563 360.54
L226.022 360.54
L226.022 359.807
L226.294 359.807
L226.294 359.317
L226.563 359.317
L226.652 358.766
L226.917 358.766
L226.917 358.456
L227.18 358.456
L227.18 358.204
L227.354 358.204
L227.44 358.025
L227.953 358.025
L227.953 357.636
L228.373 357.636
L228.456 357.338
L228.869 357.244
L228.869 357.154
L229.675 357.115
L229.675 357.029
L230.069 356.968
L230.069 356.831
L230.38 356.831
L230.38 356.71
L232.174 356.63
L232.174 356.538
L233.376 356.436
L233.376 356.425
L236.006 356.526
L236.006 356.624
L236.318 356.707
L236.318 356.798
L236.748 356.798
L236.748 357.18
L236.93 357.266
L236.93 357.298
L237.646 357.341
L237.646 357.646
L237.997 357.685
L237.997 357.8
L238.287 357.8
L238.287 357.988
L238.516 357.988
L238.516 358.173
L238.799 358.246
L238.799 358.324
L239.358 358.429
L239.468 358.633
L239.796 358.704
L239.796 358.747
L240.174 358.838
L240.174 358.878
L240.757 358.93
L240.809 359.02
L241.07 359.02
L241.121 359.232
L241.532 359.29
L241.583 359.346
L242.483 359.444
L242.483 359.457
L242.581 359.445
L243.018 359.375
L243.018 359.31
L243.21 359.31
L243.21 359.194
L243.496 359.085
L243.496 358.956
L244.011 358.956
L244.058 358.535
L244.288 358.535
L244.288 358.359
L244.471 358.359
L244.471 358.191
L244.699 358.191
L244.699 358.017
L244.969 357.934
L244.969 357.87
L245.413 357.759
L245.501 357.604
L246.786 357.632
L246.828 357.792
L247.202 357.898
L247.284 358.011
L247.651 358.059
L247.691 358.2
L248.488 358.256
L248.488 358.469
L248.878 358.524
L248.878 358.591
L249.414 358.69
L249.414 358.717
L250.746 358.827
L250.854 358.949
L251.493 358.868
L251.493 358.776
L251.841 358.696
L251.945 358.49
L252.117 358.441
L252.117 358.355
L252.322 358.259
L252.322 358.202
L252.457 358.202
L252.525 358.014
L252.76 358.014
L252.827 357.731
L252.96 357.635
L253.027 357.518
L253.159 357.409
L253.258 357.27
L253.421 357.27
L253.421 357.07
L253.746 357.07
L253.842 356.599
L254.32 356.49
L254.414 355.987
L254.571 355.987
L254.571 355.835
L254.758 355.835
L254.789 355.656
L254.944 355.656
L254.944 355.526
L255.067 355.526
L255.159 355.329
L255.342 355.263
L255.342 355.186
L255.614 355.186
L255.704 354.847
L255.972 354.764
L255.972 354.592
L256.12 354.592
L256.12 354.431
L256.296 354.431
L256.296 354.261
L256.646 354.161
L256.646 353.992
L256.847 353.992
L256.933 353.758
L257.076 353.682
L257.105 353.606
L257.246 353.606
L257.246 353.453
L257.416 353.453
L257.5 353.198
L257.834 353.117
L257.862 352.884
L258.082 352.884
L258.109 352.67
L258.409 352.67
L258.49 352.355
L258.678 352.263
L258.758 352.095
L258.918 352.025
L258.998 351.811
L259.13 351.811
L259.156 351.625
L259.288 351.625
L259.288 351.468
L259.471 351.468
L259.471 351.271
L259.6 351.271
L259.678 351.079
L259.832 351.079
L259.935 350.888
L260.215 350.794
L260.24 350.644
L260.442 350.644
L260.542 350.456
L260.741 350.403
L260.84 350.225
L261.062 350.225
L261.062 350.059
L261.354 350.059
L261.403 349.771
L261.572 349.709
L261.572 349.616
L261.764 349.616
L261.835 349.392
L262.12 349.32
L262.19 349.084
L262.354 348.993
L262.424 348.88
L262.61 348.84
L262.633 348.72
L262.886 348.72
L262.978 348.452
L263.318 348.352
L263.385 348.269
L263.631 348.163
L263.631 348.126
L263.831 348.039
L263.897 347.959
L264.051 347.959
L264.161 347.74
L264.291 347.74
L264.378 347.497
L264.486 347.428
L264.486 347.377
L264.765 347.377
L264.765 347.021
L264.957 347.021
L265.062 346.623
L265.147 346.623
L265.252 346.346
L265.335 346.315
L265.335 346.216
L265.564 346.216
L265.564 345.879
L265.688 345.879
L265.709 345.683
L265.873 345.683
L265.955 345.388
L266.118 345.332
L266.118 345.154
L266.26 345.154
L266.36 344.785
L266.501 344.699
L266.561 344.475
L266.66 344.382
L266.72 344.239
L266.858 344.159
L266.918 343.954
L267.075 343.862
L267.094 343.69
L267.192 343.69
L267.27 343.443
L267.444 343.386
L267.54 343.038
L267.656 343.038
L267.732 342.744
L267.941 342.66
L267.941 342.441
L268.074 342.441
L268.168 342.122
L268.299 342.014
L268.337 341.867
L268.504 341.867
L268.578 341.505
L268.671 341.505
L268.781 341.228
L268.946 341.137
L269.055 340.859
L269.182 340.859
L269.272 340.583
L269.595 340.496
L269.702 340.053
L269.808 339.972
L269.808 339.935
L269.931 339.935
L270.037 339.659
L270.142 339.659
L270.194 339.46
L270.298 339.46
L270.385 339.238
L270.557 339.238
L270.66 338.984
L270.797 338.984
L270.797 338.842
L271.017 338.842
L271.068 338.58
L271.219 338.494
L271.253 338.417
L271.403 338.321
L271.503 338.16
L271.751 338.096
L271.816 337.881
L272.142 337.796
L272.207 337.569
L272.336 337.481
L272.4 337.374
L272.496 337.374
L272.528 337.21
L272.64 337.102
L272.735 336.994
L272.861 336.994
L272.877 336.858
L273.003 336.858
L273.05 336.69
L273.206 336.69
L273.206 336.542
L273.392 336.434
L273.485 336.296
L273.653 336.296
L273.715 336.013
L273.806 336.013
L273.852 335.828
L273.973 335.719
L274.079 335.579
L274.259 335.502
L274.348 335.388
L274.601 335.282
L274.704 335.231
L274.997 335.137
L275.04 335.089
L275.644 335.017
L275.7 334.953
L276.455 335.053
L276.538 335.116
L276.906 335.208
L276.933 335.244
L278.202 335.135
L278.292 335.112
L279.389 335.002
L279.463 334.921
L281.478 334.827
L281.547 334.77
L281.762 334.667
L281.785 334.635
L282.099 334.526
L282.166 334.493
L282.498 334.396
L282.586 334.231
L282.815 334.137
L282.912 334.083
L283.181 333.994
L283.267 333.929
L283.522 333.827
L283.564 333.776
L283.785 333.668
L283.879 333.611
L284.191 333.5
L284.283 333.429
L284.458 333.318
L284.488 333.287
L284.671 333.212
L284.712 333.141
L284.923 333.062
L284.973 332.993
L285.213 332.93
L285.302 332.734
L285.46 332.633
L285.548 332.473
L285.685 332.362
L285.714 332.297
L285.831 332.198
L285.928 332.077
L286.073 332.057
L286.149 331.87
L286.388 331.796
L286.473 331.596
L286.606 331.515
L286.7 331.369
L286.831 331.265
L286.924 331.156
L287.119 331.109
L287.221 330.943
L287.496 330.835
L287.587 330.79
L287.912 330.695
L287.912 330.669
L288.251 330.558
L288.357 330.456
L288.568 330.356
L288.655 330.287
L289.011 330.178
L289.088 330.14
L289.37 330.034
L289.472 329.998
L289.958 329.895
L290.058 329.855
L290.453 329.752
L290.55 329.678
L290.817 329.575
L290.914 329.48
L291.106 329.371
L291.201 329.284
L291.391 329.175
L291.477 329.12
L291.689 329.014
L291.79 328.904
L292.037 328.819
L292.129 328.718
L292.388 328.614
L292.457 328.532
L292.63 328.476
L292.728 328.353
L292.907 328.271
L292.967 328.164
L293.152 328.062
L293.188 328.027
L293.387 327.934
L293.482 327.869
L293.764 327.776
L293.843 327.718
L294.08 327.625
L294.186 327.543
L294.356 327.433
L294.462 327.345
L294.678 327.255
L294.783 327.149
L294.983 327.044
L295.093 326.965
L295.312 326.861
L295.414 326.795
L295.683 326.69
L295.784 326.635
L296.037 326.542
L296.142 326.478
L296.496 326.376
L296.607 326.335
L296.993 326.235
L297.076 326.192
L297.468 326.088
L297.562 326.05
L297.866 325.946
L297.977 325.899
L298.29 325.812
L298.375 325.756
L298.634 325.647
L298.742 325.581
L298.975 325.473
L299.081 325.412
L299.398 325.314
L299.503 325.245
L299.706 325.161
L299.81 325.045
L299.936 324.967
L300.033 324.852
L300.153 324.767
L300.226 324.661
L300.339 324.555
L300.429 324.454
L300.642 324.357
L300.742 324.19
L300.891 324.087
L300.947 323.992
L301.09 323.888
L301.193 323.804
L301.335 323.702
L301.422 323.617
L301.562 323.539
L301.632 323.441
L301.787 323.385
L301.873 323.246
L302.016 323.135
L302.122 323.055
L302.279 322.953
L302.358 322.864
L302.53 322.77
L302.639 322.638
L302.793 322.547
L302.901 322.399
L303.039 322.293
L303.146 322.152
L303.298 322.041
L303.403 321.828
L303.494 321.72
L303.604 321.561
L303.708 321.474
L303.797 321.327
L303.901 321.296
L303.99 321.102
L304.161 320.998
L304.264 320.797
L304.38 320.716
L304.487 320.478
L304.588 320.402
L304.698 320.205
L304.827 320.109
L304.932 319.948
L305.06 319.855
L305.159 319.73
L305.295 319.621
L305.379 319.506
L305.495 319.406
L305.565 319.329
L305.704 319.229
L305.81 319.145
L306.002 319.046
L306.061 318.975
L306.251 318.866
L306.342 318.815
L306.731 318.707
L306.801 318.678
L307.074 318.587
L307.171 318.507
L307.457 318.415
L307.561 318.322
L307.724 318.217
L307.83 318.154
L308.131 318.048
L308.236 317.955
L308.407 317.851
L308.474 317.781
L308.619 317.673
L308.722 317.597
L308.907 317.502
L309.001 317.428
L309.159 317.323
L309.269 317.231
L309.405 317.132
L309.466 317.066
L309.609 316.96
L309.713 316.841
L309.832 316.74
L309.938 316.612
L310.048 316.505
L310.154 316.38
L310.278 316.28
L310.387 316.108
L310.487 316.027
L310.591 315.85
L310.687 315.799
L310.779 315.604
L310.866 315.498
L310.961 315.35
L311.048 315.246
L311.15 315.098
L311.229 315
L311.33 314.844
L311.412 314.747
L311.512 314.593
L311.597 314.504
L311.701 314.342
L311.785 314.245
L311.866 314.112
L311.95 314.009
L312.059 313.846
L312.146 313.74
L312.237 313.596
L312.32 313.504
L312.417 313.306
L312.492 313.207
L312.571 313.036
L312.656 312.925
L312.762 312.687
L312.833 312.595
L312.942 312.382
L313.013 312.276
L313.111 312.091
L313.18 312.004
L313.288 311.822
L313.371 311.733
L313.472 311.548
L313.547 311.471
L313.65 311.276
L313.729 311.168
L313.79 311.067
L313.865 311.067
L313.974 310.776
L314.089 310.694
L314.196 310.44
L314.31 310.331
L314.42 310.149
L314.51 310.043
L314.559 309.956
L314.639 309.849
L314.744 309.7
L314.852 309.593
L314.954 309.431
L315.061 309.34
L315.136 309.224
L315.233 309.122
L315.339 309.005
L315.458 308.894
L315.563 308.775
L315.665 308.684
L315.77 308.561
L315.886 308.475
L315.996 308.299
L316.09 308.213
L316.193 308.051
L316.305 307.945
L316.41 307.768
L316.531 307.657
L316.641 307.51
L316.778 307.413
L316.885 307.286
L317.033 307.188
L317.115 307.079
L317.25 306.979
L317.357 306.857
L317.491 306.763
L317.586 306.634
L317.721 306.53
L317.815 306.427
L317.956 306.332
L318.06 306.231
L318.208 306.124
L318.28 306.047
L318.401 305.962
L318.509 305.823
L318.615 305.728
L318.717 305.597
L318.841 305.501
L318.934 305.357
L319.03 305.249
L319.136 305.114
L319.214 305.007
L319.319 304.854
L319.435 304.765
L319.537 304.539
L319.652 304.435
L319.759 304.261
L319.857 304.171
L319.968 303.986
L320.073 303.885
L320.178 303.702
L320.274 303.594
L320.381 303.436
L320.477 303.338
L320.577 303.166
L320.667 303.07
L320.775 302.863
L320.856 302.783
L320.958 302.612
L321.067 302.518
L321.158 302.348
L321.245 302.257
L321.346 302.104
L321.428 302.02
L321.538 301.832
L321.611 301.722
L321.718 301.541
L321.789 301.435
L321.877 301.259
L321.94 301.163
L322.028 300.973
L322.083 300.882
L322.177 300.658
L322.24 300.561
L322.344 300.294
L322.4 300.251
L322.511 299.927
L322.573 299.837
L322.676 299.595
L322.746 299.497
L322.848 299.25
L322.914 299.139
L323.023 298.937
L323.109 298.861
L323.203 298.614
L323.275 298.52
L323.377 298.285
L323.446 298.18
L323.52 298.029
L323.595 297.93
L323.701 297.706
L323.767 297.596
L323.877 297.378
L323.947 297.277
L324.054 297.034
L324.121 296.926
L324.22 296.731
L324.283 296.655
L324.39 296.396
L324.448 296.286
L324.548 296.077
L324.605 295.989
L324.712 295.74
L324.779 295.667
L324.89 295.361
L324.948 295.265
L325.058 295.013
L325.125 294.908
L325.225 294.684
L325.292 294.581
L325.382 294.404
L325.468 294.304
L325.576 294.024
L325.641 293.931
L325.744 293.687
L325.809 293.602
L325.915 293.333
L325.978 293.24
L326.088 292.991
L326.148 292.914
L326.236 292.714
L326.309 292.617
L326.411 292.379
L326.481 292.304
L326.589 292.018
L326.643 291.911
L326.746 291.668
L326.801 291.668
L326.903 291.324
L326.957 291.219
L327.059 290.978
L327.109 290.908
L327.212 290.626
L327.276 290.516
L327.381 290.273
L327.44 290.194
L327.55 289.9
L327.599 289.796
L327.702 289.549
L327.753 289.459
L327.862 289.186
L327.932 289.097
L328.042 288.789
L328.106 288.685
L328.208 288.41
L328.255 288.308
L328.364 288.04
L328.429 287.932
L328.539 287.632
L328.598 287.529
L328.705 287.244
L328.774 287.145
L328.874 286.885
L328.936 286.787
L329.037 286.553
L329.1 286.444
L329.198 286.249
L329.272 286.142
L329.381 285.926
L329.448 285.837
L329.557 285.6
L329.642 285.508
L329.747 285.252
L329.815 285.147
L329.923 284.931
L330.001 284.825
L330.101 284.658
L330.193 284.554
L330.284 284.409
L330.366 284.314
L330.476 284.15
L330.567 284.04
L330.67 283.908
L330.786 283.8
L330.887 283.673
L330.986 283.571
L331.082 283.434
L331.171 283.327
L331.279 283.164
L331.359 283.054
L331.464 282.9
L331.552 282.802
L331.641 282.643
L331.725 282.533
L331.829 282.341
L331.902 282.231
L332.011 282.017
L332.073 281.912
L332.183 281.677
L332.258 281.582
L332.334 281.38
L332.396 281.38
L332.492 281.075
L332.56 280.965
L332.669 280.77
L332.736 280.675
L332.845 280.469
L332.917 280.364
L333.02 280.188
L333.09 280.124
L333.198 279.893
L333.282 279.797
L333.382 279.632
L333.479 279.528
L333.573 279.376
L333.659 279.27
L333.761 279.139
L333.864 279.033
L333.968 278.886
L334.056 278.782
L334.164 278.618
L334.236 278.519
L334.345 278.344
L334.432 278.243
L334.51 278.105
L334.596 277.996
L334.707 277.837
L334.797 277.732
L334.89 277.601
L334.981 277.49
L335.089 277.324
L335.175 277.215
L335.282 277.062
L335.367 276.962
L335.478 276.814
L335.568 276.714
L335.671 276.572
L335.787 276.471
L335.892 276.294
L335.984 276.185
L336.091 276.018
L336.168 275.918
L336.276 275.75
L336.375 275.647
L336.483 275.49
L336.571 275.379
L336.68 275.252
L336.806 275.143
L336.903 275.038
L337.015 274.929
L337.123 274.785
L337.216 274.689
L337.326 274.504
L337.408 274.393
L337.517 274.225
L337.6 274.114
L337.709 273.954
L337.813 273.846
L337.921 273.648
L338.005 273.544
L338.112 273.377
L338.189 273.275
L338.299 273.09
L338.372 272.986
L338.482 272.793
L338.556 272.689
L338.664 272.51
L338.738 272.408
L338.846 272.206
L338.913 272.098
L338.996 271.94
L339.061 271.857
L339.164 271.645
L339.226 271.538
L339.334 271.323
L339.397 271.22
L339.501 271
L339.561 270.889
L339.658 270.695
L339.722 270.584
L339.819 270.392
L339.878 270.296
L339.988 270.085
L340.051 269.981
L340.16 269.779
L340.23 269.668
L340.335 269.487
L340.403 269.377
L340.513 269.187
L340.576 269.08
L340.675 268.89
L340.738 268.79
L340.846 268.582
L340.911 268.476
L341.019 268.257
L341.09 268.153
L341.2 267.913
L341.269 267.808
L341.375 267.615
L341.447 267.521
L341.528 267.342
L341.602 267.239
L341.704 267.033
L341.771 266.927
L341.879 266.725
L341.955 266.614
L342.064 266.4
L342.124 266.29
L342.235 266.074
L342.297 265.978
L342.402 265.745
L342.458 265.645
L342.567 265.42
L342.627 265.309
L342.733 265.087
L342.792 264.995
L342.895 264.751
L342.955 264.657
L343.056 264.429
L343.111 264.318
L343.22 264.087
L343.278 263.979
L343.372 263.805
L343.441 263.7
L343.552 263.492
L343.621 263.389
L343.725 263.177
L343.798 263.076
L343.904 262.875
L343.97 262.765
L344.08 262.55
L344.142 262.453
L344.249 262.211
L344.311 262.11
L344.41 261.894
L344.47 261.791
L344.572 261.574
L344.63 261.463
L344.735 261.241
L344.794 261.13
L344.905 260.909
L344.959 260.801
L345.058 260.595
L345.122 260.484
L345.228 260.23
L345.278 260.128
L345.383 259.869
L345.432 259.76
L345.541 259.479
L345.588 259.375
L345.694 259.087
L345.741 258.979
L345.849 258.702
L345.892 258.598
L346.002 258.308
L346.047 258.198
L346.157 257.915
L346.205 257.806
L346.313 257.52
L346.357 257.431
L346.463 257.152
L346.511 257.057
L346.621 256.764
L346.669 256.66
L346.771 256.39
L346.818 256.283
L346.929 256.024
L346.979 255.921
L347.088 255.657
L347.132 255.549
L347.239 255.278
L347.287 255.169
L347.395 254.901
L347.453 254.8
L347.559 254.503
L347.606 254.393
L347.715 254.122
L347.769 254.011
L347.878 253.724
L347.935 253.618
L348.046 253.316
L348.093 253.209
L348.199 252.955
L348.249 252.844
L348.356 252.582
L348.407 252.473
L348.513 252.187
L348.563 252.102
L348.666 251.803
L348.718 251.705
L348.828 251.417
L348.878 251.307
L348.982 251.06
L349.031 250.973
L349.142 250.687
L349.191 250.586
L349.297 250.344
L349.354 250.238
L349.462 250.006
L349.522 249.901
L349.628 249.678
L349.693 249.571
L349.802 249.34
L349.862 249.232
L349.973 249.008
L350.029 248.897
L350.14 248.678
L350.201 248.577
L350.304 248.355
L350.364 248.247
L350.473 248.051
L350.535 247.943
L350.646 247.745
L350.713 247.636
L350.822 247.429
L350.881 247.325
L350.988 247.118
L351.044 247.012
L351.15 246.794
L351.213 246.687
L351.322 246.459
L351.376 246.351
L351.487 246.114
L351.541 246.028
L351.648 245.782
L351.712 245.681
L351.823 245.435
L351.88 245.33
L351.988 245.087
L352.039 244.986
L352.142 244.746
L352.194 244.662
L352.304 244.395
L352.364 244.285
L352.473 244.045
L352.53 243.937
L352.64 243.717
L352.706 243.615
L352.814 243.409
L352.878 243.299
L352.989 243.08
L353.061 242.97
L353.172 242.756
L353.247 242.648
L353.356 242.472
L353.433 242.361
L353.539 242.207
L353.622 242.109
L353.732 241.932
L353.814 241.821
L353.921 241.662
L353.997 241.556
L354.104 241.373
L354.178 241.27
L354.288 241.073
L354.357 240.963
L354.465 240.782
L354.54 240.671
L354.649 240.5
L354.72 240.396
L354.828 240.217
L354.898 240.116
L355.008 239.919
L355.075 239.816
L355.184 239.607
L355.245 239.503
L355.355 239.276
L355.415 239.173
L355.525 238.959
L355.602 238.857
L355.712 238.637
L355.779 238.53
L355.888 238.351
L355.962 238.249
L356.072 238.055
L356.148 237.947
L356.257 237.769
L356.329 237.659
L356.433 237.474
L356.497 237.366
L356.6 237.167
L356.656 237.063
L356.764 236.84
L356.82 236.729
L356.926 236.524
L356.996 236.416
L357.106 236.166
L357.165 236.064
L357.275 235.785
L357.329 235.684
L357.437 235.428
L357.493 235.328
L357.599 235.097
L357.658 234.987
L357.769 234.78
L357.833 234.676
L357.943 234.483
L358.023 234.374
L358.134 234.158
L358.208 234.061
L358.313 233.876
L358.383 233.768
L358.491 233.585
L358.566 233.479
L358.671 233.301
L358.745 233.193
L358.853 232.989
L358.925 232.879
L359.035 232.68
L359.108 232.571
L359.208 232.407
L359.278 232.296
L359.385 232.122
L359.463 232.023
L359.574 231.822
L359.64 231.711
L359.75 231.536
L359.828 231.425
L359.936 231.263
L360.017 231.153
L360.128 230.978
L360.2 230.872
L360.307 230.708
L360.395 230.612
L360.506 230.427
L360.586 230.323
L360.69 230.166
L360.769 230.058
L360.88 229.894
L360.96 229.791
L361.07 229.622
L361.156 229.511
L361.265 229.355
L361.36 229.245
L361.467 229.119
L361.576 229.008
L361.687 228.895
L361.78 228.788
L361.887 228.654
L361.978 228.543
L362.089 228.409
L362.189 228.299
L362.297 228.16
L362.4 228.051
L362.511 227.917
L362.607 227.809
L362.712 227.68
L362.824 227.576
L362.931 227.457
L363.036 227.35
L363.146 227.206
L363.234 227.097
L363.34 226.948
L363.417 226.837
L363.526 226.66
L363.595 226.55
L363.702 226.35
L363.762 226.243
L363.872 226.036
L363.938 225.928
L364.042 225.724
L364.105 225.618
L364.215 225.387
L364.272 225.299
L364.378 225.074
L364.449 224.967
L364.559 224.741
L364.621 224.638
L364.729 224.425
L364.794 224.33
L364.901 224.126
L364.973 224.017
L365.081 223.817
L365.151 223.711
L365.262 223.53
L365.335 223.42
L365.443 223.249
L365.518 223.14
L365.627 222.976
L365.709 222.866
L365.82 222.712
L365.905 222.603
L366.012 222.448
L366.093 222.348
L366.201 222.179
L366.28 222.068
L366.391 221.909
L366.467 221.802
L366.577 221.635
L366.664 221.526
L366.774 221.365
L366.854 221.259
L366.964 221.087
L367.04 220.98
L367.149 220.819
L367.24 220.712
L367.35 220.563
L367.436 220.454
L367.542 220.318
L367.624 220.213
L367.734 220.05
L367.807 219.941
L367.915 219.752
L367.983 219.643
L368.092 219.46
L368.163 219.354
L368.274 219.18
L368.349 219.069
L368.459 218.906
L368.536 218.796
L368.646 218.633
L368.718 218.523
L368.826 218.353
L368.904 218.243
L369.015 218.078
L369.09 217.973
L369.2 217.78
L369.264 217.678
L369.372 217.478
L369.441 217.367
L369.551 217.166
L369.614 217.056
L369.726 216.862
L369.793 216.752
L369.903 216.572
L369.975 216.462
L370.086 216.282
L370.157 216.172
L370.262 215.986
L370.33 215.875
L370.436 215.691
L370.499 215.583
L370.608 215.369
L370.667 215.272
L370.778 215.048
L370.834 214.94
L370.945 214.709
L371.001 214.599
L371.111 214.371
L371.168 214.261
L371.278 214.049
L371.335 213.941
L371.445 213.707
L371.503 213.597
L371.61 213.385
L371.671 213.274
L371.782 213.065
L371.843 212.957
L371.953 212.74
L372.012 212.629
L372.119 212.423
L372.184 212.316
L372.293 212.092
L372.35 211.981
L372.46 211.761
L372.519 211.652
L372.627 211.429
L372.686 211.32
L372.796 211.106
L372.859 210.995
L372.969 210.808
L373.036 210.7
L373.147 210.513
L373.216 210.403
L373.327 210.232
L373.403 210.125
L373.511 209.966
L373.601 209.856
L373.71 209.696
L373.788 209.587
L373.898 209.422
L373.979 209.313
L374.087 209.157
L374.173 209.046
L374.28 208.899
L374.36 208.793
L374.47 208.64
L374.568 208.53
L374.678 208.4
L374.772 208.291
L374.883 208.14
L374.961 208.031
L375.071 207.877
L375.15 207.773
L375.255 207.609
L375.335 207.504
L375.444 207.341
L375.516 207.23
L375.627 207.062
L375.7 206.951
L375.808 206.789
L375.882 206.679
L375.991 206.51
L376.06 206.4
L376.169 206.228
L376.247 206.117
L376.357 205.962
L376.444 205.852
L376.555 205.713
L376.654 205.607
L376.761 205.478
L376.856 205.368
L376.963 205.225
L377.051 205.114
L377.16 204.972
L377.25 204.867
L377.36 204.71
L377.445 204.601
L377.555 204.472
L377.652 204.363
L377.762 204.221
L377.847 204.119
L377.958 203.964
L378.047 203.854
L378.156 203.723
L378.24 203.615
L378.349 203.458
L378.434 203.348
L378.544 203.201
L378.635 203.09
L378.742 202.953
L378.843 202.843
L378.953 202.725
L379.055 202.615
L379.166 202.486
L379.265 202.375
L379.375 202.238
L379.466 202.128
L379.575 201.988
L379.664 201.878
L379.772 201.74
L379.865 201.629
L379.976 201.499
L380.064 201.39
L380.175 201.241
L380.265 201.132
L380.376 200.993
L380.466 200.882
L380.576 200.755
L380.675 200.644
L380.786 200.523
L380.896 200.412
L381.007 200.296
L381.113 200.186
L381.221 200.075
L381.335 199.964
L381.446 199.839
L381.544 199.729
L381.654 199.597
L381.737 199.49
L381.848 199.341
L381.935 199.231
L382.045 199.084
L382.135 198.974
L382.246 198.839
L382.332 198.728
L382.442 198.575
L382.521 198.465
L382.63 198.298
L382.704 198.195
L382.813 198.025
L382.896 197.915
L383.007 197.77
L383.095 197.66
L383.203 197.514
L383.282 197.408
L383.393 197.258
L383.479 197.154
L383.589 197.008
L383.675 196.899
L383.785 196.759
L383.876 196.649
L383.987 196.528
L384.109 196.419
L384.219 196.299
L384.326 196.189
L384.435 196.062
L384.528 195.951
L384.639 195.815
L384.735 195.705
L384.844 195.574
L384.945 195.463
L385.053 195.35
L385.158 195.24
L385.268 195.113
L385.376 195.002
L385.487 194.879
L385.585 194.772
L385.694 194.648
L385.796 194.537
L385.906 194.402
L386 194.292
L386.111 194.149
L386.201 194.039
L386.311 193.906
L386.411 193.798
L386.522 193.652
L386.609 193.542
L386.72 193.406
L386.816 193.296
L386.924 193.168
L387.025 193.059
L387.135 192.92
L387.222 192.81
L387.333 192.646
L387.415 192.536
L387.524 192.379
L387.605 192.27
L387.716 192.106
L387.79 191.995
L387.901 191.84
L387.978 191.73
L388.088 191.578
L388.171 191.47
L388.281 191.316
L388.365 191.208
L388.476 191.065
L388.565 190.956
L388.676 190.811
L388.76 190.701
L388.87 190.567
L388.965 190.455
L389.076 190.314
L389.173 190.203
L389.285 190.082
L389.39 189.978
L389.5 189.862
L389.616 189.752
L389.726 189.639
L389.84 189.528
L389.95 189.43
L390.091 189.32
L390.202 189.242
L390.376 189.131
L390.487 189.057
L390.632 188.946
L390.74 188.861
L390.878 188.75
L390.989 188.663
L391.138 188.554
L391.248 188.489
L391.447 188.378
L391.555 188.313
L391.761 188.202
L391.872 188.136
L392.073 188.025
L392.184 187.977
L392.429 187.866
L392.539 187.813
L392.765 187.702
L392.874 187.655
L393.063 187.544
L393.174 187.464
L393.306 187.353
L393.417 187.261
L393.536 187.152
L393.647 187.035
L393.764 186.924
L393.874 186.812
L393.99 186.702
L394.1 186.592
L394.215 186.481
L394.324 186.368
L394.441 186.26
L394.552 186.159
L394.679 186.05
L394.789 185.935
L394.894 185.826
L395.005 185.7
L395.106 185.59
L395.217 185.483
L395.337 185.373
L395.448 185.289
L395.617 185.178
L395.727 185.108
L395.929 184.997
L396.04 184.934
L396.252 184.824
L396.362 184.773
L396.581 184.662
L396.691 184.607
L396.913 184.496
L397.022 184.433
L397.211 184.323
L397.322 184.263
L397.548 184.153
L397.658 184.11
L397.967 183.999
L398.078 183.958
L398.369 183.847
L398.48 183.796
L398.672 183.686
L398.783 183.614
L398.935 183.503
L399.046 183.424
L399.213 183.313
L399.324 183.232
L399.512 183.121
L399.623 183.044
L399.796 182.933
L399.906 182.863
L400.084 182.753
L400.195 182.682
L400.374 182.572
L400.484 182.502
L400.664 182.392
L400.774 182.326
L400.987 182.215
L401.098 182.161
L401.318 182.05
L401.428 181.998
L401.687 181.887
L401.797 181.826
L402.041 181.715
L402.151 181.677
L402.448 181.566
L402.559 181.532
L402.813 181.421
L402.923 181.371
L403.218 181.26
L403.329 181.211
L403.574 181.1
L403.685 181.045
L403.91 180.934
L404.02 180.885
L404.262 180.774
L404.373 180.711
L404.62 180.6
L404.73 180.553
L404.901 180.442
L405.011 180.352
L405.138 180.242
L405.249 180.149
L405.385 180.038
L405.495 179.957
L405.652 179.847
L405.762 179.756
L405.891 179.646
L406.001 179.555
L406.134 179.444
L406.245 179.344
L406.36 179.233
L406.471 179.132
L406.612 179.021
L406.722 178.945
L406.876 178.834
L406.987 178.74
L407.113 178.63
L407.224 178.533
L407.336 178.422
L407.447 178.3
L407.542 178.189
L407.653 178.054
L407.75 177.944
L407.859 177.821
L407.962 177.71
L408.073 177.596
L408.198 177.485
L408.309 177.383
L408.435 177.271
L408.544 177.174
L408.65 177.063
L408.761 176.943
L408.863 176.832
L408.974 176.717
L409.085 176.607
L409.196 176.497
L409.305 176.386
L409.416 176.261
L409.52 176.15
L409.63 176.034
L409.741 175.923
L409.852 175.801
L409.955 175.69
L410.066 175.567
L410.164 175.457
L410.275 175.339
L410.381 175.228
L410.491 175.111
L410.6 175
L410.71 174.879
L410.805 174.769
L410.916 174.636
L411.013 174.525
L411.124 174.387
L411.211 174.276
L411.322 174.128
L411.407 174.02
L411.518 173.87
L411.595 173.761
L411.706 173.586
L411.779 173.476
L411.888 173.303
L411.96 173.193
L412.071 173.01
L412.139 172.899
L412.25 172.719
L412.328 172.608
L412.44 172.452
L412.52 172.341
L412.631 172.198
L412.723 172.087
L412.834 171.954
L412.93 171.843
L413.041 171.712
L413.136 171.602
L413.247 171.469
L413.331 171.358
L413.441 171.195
L413.52 171.084
L413.631 170.935
L413.715 170.825
L413.826 170.676
L413.913 170.567
L414.023 170.429
L414.112 170.318
L414.223 170.179
L414.315 170.068
L414.426 169.932
L414.519 169.822
L414.63 169.703
L414.749 169.593
L414.86 169.486
L414.987 169.376
L415.097 169.293
L415.255 169.183
L415.366 169.103
L415.515 168.993
L415.625 168.89
L415.748 168.779
L415.859 168.674
L415.973 168.563
L416.083 168.467
L416.203 168.356
L416.313 168.25
L416.434 168.139
L416.545 168.042
L416.663 167.931
L416.774 167.826
L416.897 167.715
L417.008 167.615
L417.127 167.504
L417.238 167.395
L417.34 167.284
L417.451 167.174
L417.564 167.063
L417.674 166.949
L417.782 166.838
L417.893 166.723
L418.002 166.613
L418.112 166.501
L418.223 166.391
L418.334 166.27
L418.435 166.159
L418.546 166.04
L418.649 165.929
L418.759 165.798
L418.85 165.688
L418.961 165.546
L419.053 165.435
L419.164 165.303
L419.253 165.192
L419.364 165.047
L419.454 164.936
L419.565 164.795
L419.66 164.684
L419.77 164.549
L419.856 164.439
L419.967 164.299
L420.057 164.188
L420.167 164.052
L420.255 163.941
L420.366 163.804
L420.462 163.694
L420.573 163.573
L420.673 163.462
L420.784 163.347
L420.908 163.236
L421.019 163.139
L421.155 163.029
L421.265 162.943
L421.397 162.832
L421.508 162.75
L421.653 162.639
L421.764 162.555
L421.896 162.443
L422.007 162.356
L422.149 162.245
L422.26 162.155
L422.385 162.045
L422.496 161.945
L422.626 161.834
L422.736 161.739
L422.853 161.628
L422.964 161.514
L423.08 161.403
L423.191 161.301
L423.328 161.19
L423.439 161.112
L423.6 161.001
L423.711 160.922
L423.899 160.811
L424.009 160.738
L424.161 160.627
L424.272 160.531
L424.399 160.42
L424.51 160.323
L424.657 160.212
L424.767 160.133
L424.945 160.023
L425.055 159.95
L425.242 159.839
L425.353 159.775
L425.556 159.664
L425.667 159.596
L425.809 159.485
L425.919 159.39
L426.059 159.28
L426.17 159.2
L426.329 159.089
L426.439 159.015
L426.652 158.904
L426.763 158.845
L426.937 158.734
L427.048 158.68
L427.333 158.569
L427.444 158.522
L427.797 158.411
L427.908 158.377
L428.195 158.266
L428.306 158.187
L428.461 158.076
L428.572 158.002
L428.739 157.892
L428.85 157.816
L428.998 157.705
L429.109 157.626
L429.251 157.515
L429.362 157.415
L429.494 157.304
L429.604 157.219
L429.732 157.108
L429.843 157.005
L429.966 156.894
L430.077 156.802
L430.222 156.691
L430.333 156.597
L430.465 156.486
L430.576 156.387
L430.701 156.277
L430.812 156.171
L430.937 156.06
L431.048 155.961
L431.177 155.85
L431.289 155.765
L431.442 155.654
L431.553 155.572
L431.707 155.461
L431.818 155.379
L431.988 155.268
L432.099 155.192
L432.248 155.081
L432.359 155
L432.506 154.889
L432.617 154.796
L432.741 154.686
L432.852 154.59
L432.989 154.479
L433.1 154.396
L433.3 154.285
L433.411 154.222
L433.633 154.111
L433.744 154.044
L433.93 153.933
L434.041 153.864
L434.201 153.753
L434.311 153.673
L434.476 153.563
L434.587 153.494
L434.769 153.383
L434.88 153.309
L435.045 153.198
L435.156 153.12
L435.362 153.009
L435.473 152.951
L435.697 152.84
L435.808 152.794
L436.073 152.683
L436.184 152.639
L436.444 152.528
L436.555 152.473
L436.791 152.362
L436.902 152.308
L437.139 152.197
L437.25 152.135
L437.413 152.023
L437.524 151.931
L437.657 151.82
L437.768 151.713
L437.887 151.602
L437.998 151.499
L438.129 151.388
L438.24 151.288
L438.365 151.177
L438.476 151.073
L438.604 150.962
L438.715 150.871
L438.845 150.76
L438.955 150.679
L439.106 150.568
L439.217 150.48
L439.36 150.369
L439.471 150.289
L439.612 150.178
L439.723 150.093
L439.902 149.982
L440.013 149.919
L440.22 149.808
L440.331 149.762
L440.593 149.651
L440.704 149.602
L440.878 149.491
L440.989 149.413
L441.169 149.302
L441.28 149.228
L441.505 149.117
L441.616 149.068
L441.931 148.957
L442.042 148.912
L442.318 148.801
L442.429 148.763
L442.784 148.652
L442.895 148.613
L443.188 148.502
L443.299 148.451
L443.537 148.34
L443.648 148.281
L443.865 148.169
L443.976 148.115
L444.2 148.004
L444.311 147.948
L444.61 147.837
L444.721 147.791
L444.935 147.68
L445.046 147.617
L445.216 147.506
L445.327 147.419
L445.462 147.308
L445.573 147.212
L445.701 147.101
L445.812 147.018
L445.961 146.907
L446.072 146.823
L446.217 146.712
L446.328 146.622
L446.463 146.511
L446.575 146.416
L446.705 146.305
L446.817 146.222
L446.987 146.112
L447.098 146.04
L447.273 145.928
L447.384 145.876
L447.619 145.765
L447.73 145.701
L447.942 145.59
L448.053 145.527
L448.259 145.416
L448.369 145.362
L448.577 145.251
L448.688 145.2
L448.912 145.089
L449.023 145.037
L449.256 144.925
L449.367 144.883
L449.676 144.772
L449.787 144.741
L450.491 144.63
L450.603 144.616
L451.364 144.505
L451.475 144.483
L451.824 144.372
L451.935 144.315
L452.206 144.204
L452.317 144.155
L452.556 144.044
L452.667 143.986
L452.854 143.875
L452.965 143.804
L453.132 143.693
L453.243 143.632
L453.538 143.521
L453.649 143.476
L453.929 143.365
L454.04 143.328
L454.379 143.217
L454.49 143.18
L454.87 143.069
L454.981 143.043
L455.339 142.932
L455.45 142.886
L455.672 142.775
L455.783 142.707
L455.968 142.596
L456.079 142.519
L456.263 142.408
L456.374 142.328
L456.525 142.217
L456.636 142.14
L456.801 142.029
L456.912 141.948
L457.052 141.837
L457.163 141.753
L457.31 141.642
L457.421 141.563
L457.596 141.452
L457.707 141.394
L457.995 141.283
L458.106 141.241
L458.399 141.13
L458.51 141.09
L458.852 140.979
L458.963 140.936
L459.237 140.825
L459.348 140.788
L459.661 140.677
L459.772 140.627
L459.996 140.515
L460.107 140.448
L460.38 140.337
L460.491 140.303
L460.788 140.192
L460.899 140.162
L461.369 140.051
L461.48 140.017
L462.121 139.905
L462.232 139.891
L462.823 139.779
L462.934 139.769
L463.999 139.658
L464.111 139.647
L465.122 139.759
L465.233 139.766
L467.645 139.655
L467.756 139.609
L468.03 139.498
L468.141 139.452
L468.432 139.341
L468.543 139.283
L468.747 139.172
L468.858 139.105
L469.065 138.994
L469.176 138.941
L469.391 138.83
L469.502 138.775
L469.698 138.664
L469.809 138.599
L469.995 138.488
L470.106 138.425
L470.316 138.314
L470.427 138.25
L470.646 138.139
L470.757 138.07
L470.922 137.959
L471.033 137.894
L471.217 137.783
L471.328 137.698
L471.462 137.587
L471.573 137.498
L471.728 137.387
L471.839 137.308
L471.977 137.197
L472.088 137.105
L472.211 136.994
L472.322 136.904
L472.47 136.793
L472.581 136.707
L472.717 136.596
L472.828 136.494
L472.955 136.383
L473.066 136.289
L473.212 136.178
L473.323 136.088
L473.464 135.977
L473.575 135.89
L473.721 135.779
L473.832 135.696
L473.976 135.585
L474.087 135.493
L474.206 135.382
L474.317 135.274
L474.44 135.163
L474.551 135.057
L474.666 134.946
L474.777 134.835
L474.884 134.724
L474.995 134.609
L475.11 134.498
L475.221 134.397
L475.338 134.286
L475.449 134.173
L475.558 134.062
L475.669 133.949
L475.779 133.838
L475.89 133.722
L475.988 133.611
L476.099 133.49
L476.203 133.379
L476.314 133.265
L476.421 133.153
L476.532 133.046
L476.661 132.934
L476.772 132.835
L476.901 132.724
L477.012 132.634
L477.158 132.523
L477.27 132.443
L477.439 132.332
L477.55 132.264
L477.748 132.153
L477.859 132.098
L478.11 131.987
L478.221 131.931
L478.486 131.82
L478.598 131.771
L478.958 131.66
L479.069 131.641
L479.47 131.53
L479.581 131.51
L479.903 131.399
L480.014 131.346
L480.342 131.235
L480.453 131.177
L480.639 131.066
L480.75 130.989
L480.887 130.878
L480.998 130.782
L481.129 130.671
L481.241 130.569
L481.368 130.458
L481.479 130.371
L481.628 130.259
L481.739 130.182
L481.902 130.071
L482.013 129.999
L482.156 129.888
L482.267 129.795
L482.422 129.684
L482.533 129.595
L482.661 129.484
L482.772 129.396
L482.912 129.285
L483.023 129.196
L483.166 129.085
L483.277 129.002
L483.429 128.891
L483.54 128.804
L483.682 128.693
L483.793 128.601
L483.931 128.49
L484.042 128.392
L484.154 128.281
L484.265 128.171
L484.37 128.06
L484.481 127.947
L484.602 127.836
L484.713 127.74
L484.838 127.629
L484.949 127.53
L485.077 127.419
L485.188 127.33
L485.337 127.219
L485.448 127.15
L485.612 127.039
L485.723 126.956
L485.861 126.845
L485.972 126.76
L486.107 126.649
L486.218 126.565
L486.368 126.454
L486.479 126.374
L486.628 126.263
L486.739 126.186
L486.891 126.074
L487.002 125.986
L487.141 125.875
L487.252 125.783
L487.393 125.672
L487.504 125.578
L487.651 125.467
L487.762 125.389
L487.901 125.278
L488.012 125.202
L488.172 125.091
L488.283 124.999
L488.414 124.888
L488.525 124.797
L488.65 124.686
L488.761 124.576
L488.869 124.465
L488.98 124.346
L489.086 124.235
L489.197 124.11
L489.289 123.999
L489.4 123.883
L489.512 123.772
L489.623 123.677
L489.777 123.566
L489.888 123.476
L490.009 123.365
L490.12 123.268
L490.248 123.157
L490.36 123.056
L490.482 122.945
L490.593 122.85
L490.721 122.739
L490.833 122.647
L490.965 122.535
L491.076 122.442
L491.228 122.331
L491.339 122.253
L491.495 122.142
L491.606 122.061
L491.761 121.95
L491.872 121.866
L492.027 121.755
L492.138 121.681
L492.324 121.57
L492.435 121.505
L492.616 121.394
L492.728 121.326
L492.905 121.215
L493.016 121.145
L493.208 121.034
L493.319 120.973
L493.543 120.862
L493.654 120.818
L493.926 120.707
L494.037 120.658
L494.264 120.547
L494.375 120.481
L494.55 120.37
L494.661 120.304
L494.888 120.193
L494.999 120.13
L495.212 120.019
L495.323 119.957
L495.513 119.845
L495.624 119.77
L495.813 119.658
L495.924 119.591
L496.098 119.48
L496.209 119.416
L496.422 119.305
L496.533 119.236
L496.7 119.125
L496.811 119.045
L496.973 118.933
L497.084 118.852
L497.238 118.741
L497.349 118.663
L497.51 118.552
L497.621 118.476
L497.793 118.365
L497.904 118.297
L498.087 118.186
L498.198 118.122
L498.389 118.011
L498.5 117.95
L498.69 117.839
L498.801 117.777
L499.064 117.666
L499.176 117.629
L499.486 117.518
L499.597 117.471
L499.826 117.36
L499.938 117.303
L500.132 117.192
L500.243 117.132
L500.482 117.021
L500.593 116.967
L500.842 116.856
L500.953 116.818
L501.248 116.707
L501.359 116.664
L501.641 116.553
L501.752 116.513
L502.012 116.402
L502.123 116.355
L502.393 116.244
L502.504 116.206
L502.829 116.095
L502.94 116.057
L503.211 115.946
L503.323 115.894
L503.574 115.783
L503.685 115.746
L503.944 115.635
L504.055 115.579
L504.24 115.468
L504.351 115.399
L504.504 115.288
L504.616 115.211
L504.792 115.1
L504.903 115.025
L505.066 114.913
L505.177 114.842
L505.38 114.731
L505.491 114.669
L505.706 114.558
L505.817 114.5
L506.058 114.389
L506.169 114.338
L506.394 114.227
L506.506 114.167
L506.718 114.056
L506.83 114.004
L507.075 113.893
L507.186 113.845
L507.443 113.734
L507.554 113.689
L507.827 113.578
L507.939 113.531
L508.157 113.42
L508.268 113.362
L508.487 113.251
L508.598 113.187
L508.767 113.076
L508.878 112.991
L509.01 112.88
L509.121 112.789
L509.264 112.678
L509.375 112.589
L509.515 112.478
L509.626 112.404
L509.782 112.293
L509.893 112.218
L510.059 112.107
L510.171 112.032
L510.331 111.921
L510.442 111.846
L510.622 111.734
L510.733 111.654
L510.893 111.543
L511.005 111.469
L511.182 111.358
L511.293 111.291
L511.488 111.18
L511.599 111.129
L511.799 111.018
L511.91 110.95
L512.061 110.839
L512.172 110.737
L512.285 110.626
L512.396 110.518
L512.505 110.407
L512.616 110.298
L512.735 110.187
L512.846 110.087
L512.978 109.976
L513.089 109.884
L513.224 109.773
L513.335 109.675
L513.462 109.564
L513.574 109.465
L513.707 109.354
L513.818 109.261
L513.953 109.15
L514.064 109.053
L514.194 108.941
L514.305 108.843
L514.429 108.732
L514.54 108.639
L514.677 108.528
L514.788 108.43
L514.916 108.319
L515.027 108.227
L515.166 108.116
L515.277 108.029
L515.426 107.918
L515.538 107.838
L515.702 107.726
L515.813 107.651
L515.977 107.54
L516.088 107.473
L516.261 107.362
L516.372 107.282
L516.522 107.171
L516.633 107.083
L516.779 106.972
L516.89 106.892
L517.058 106.781
L517.169 106.701
L517.315 106.59
L517.426 106.509
L517.591 106.398
L517.702 106.321
L517.868 106.21
L517.979 106.135
L518.143 106.024
L518.254 105.952
L518.427 105.84
L518.538 105.772
L518.765 105.661
L518.876 105.611
L519.177 105.5
L519.288 105.46
L519.625 105.349
L519.736 105.31
L520.026 105.199
L520.137 105.149
L520.381 105.038
L520.493 104.981
L520.765 104.87
L520.876 104.833
L521.198 104.722
L521.309 104.679
L521.575 104.568
L521.686 104.523
L521.995 104.412
L522.106 104.38
L522.434 104.269
L522.545 104.246
L522.919 104.135
L523.031 104.093
L523.364 103.982
L523.475 103.958
L523.893 103.847
L524.004 103.822
L524.693 103.711
L524.804 103.692
L525.552 103.581
L525.663 103.542
L526.265 103.43
L526.376 103.414
L527.577 103.303
L527.688 103.276
L528.179 103.164
L528.29 103.134
L528.606 103.023
L528.717 102.979
L529.066 102.868
L529.177 102.834
L529.814 102.723
L529.925 102.696
L530.347 102.585
L530.458 102.549
L530.753 102.438
L530.864 102.399
L531.191 102.288
L531.302 102.247
L531.559 102.136
L531.67 102.075
L531.892 101.964
L532.003 101.904
L532.211 101.793
L532.322 101.734
L532.558 101.623
L532.669 101.569
L532.896 101.458
L533.007 101.404
L533.246 101.293
L533.357 101.237
L533.587 101.125
L533.698 101.062
L533.912 100.951
L534.023 100.892
L534.283 100.781
L534.394 100.734
L534.636 100.623
L534.747 100.566
L534.929 100.455
L535.04 100.382
L535.197 100.271
L535.308 100.194
L535.47 100.083
L535.581 99.9986
L535.734 99.8875
L535.845 99.8122
L536.014 99.7011
L536.125 99.6328
L536.349 99.5217
L536.46 99.4693
L536.71 99.3582
L536.821 99.3014
L537.005 99.1903
L537.116 99.1272
L537.298 99.0161
L537.409 98.9551
L537.609 98.844
L537.72 98.7791
L537.938 98.668
L538.049 98.6195
L538.251 98.5084
L538.362 98.4436
L538.553 98.3325
L538.665 98.2681
L538.846 98.157
L538.957 98.0908
L539.142 97.9797
L539.253 97.9107
L539.436 97.7996
L539.547 97.7319
L539.718 97.6208
L539.829 97.5572
L540.029 97.4461
L540.14 97.3892
L540.357 97.2781
L540.468 97.2191
L540.663 97.108
L540.774 97.0399
L540.94 96.9287
L541.051 96.8577
L541.229 96.7466
L541.34 96.6793
L541.517 96.5682
L541.628 96.4933
L541.784 96.3822
L541.895 96.2983
L542.046 96.1872
L542.157 96.0997
L542.322 95.9886
L542.433 95.9198
L542.628 95.8087
L542.739 95.743
L542.939 95.6319
L543.05 95.5546
L543.21 95.4435
L543.321 95.3674
L543.483 95.2563
L543.594 95.1825
L543.778 95.0714
L543.889 95.0028
L544.074 94.8917
L544.185 94.8262
L544.365 94.7151
L544.476 94.657
L544.719 94.5459
L544.83 94.4964
L545.076 94.3853
L545.187 94.3428
L545.51 94.2317
L545.621 94.2065
L546.165 94.0954
L546.276 94.0705
L546.848 93.9594
L546.959 93.9272
L547.531 93.8161
L547.642 93.8075
L547.827 93.7819
L547.827 93.7819" style="fill:none;stroke:#0000ff;stroke-width:5.0;"/>
   </g>
   <g id="matplotlib.axis_1">
    <g id="xtick_1">
     <g id="line2d_2">
      <path d="
M189.288 412.239
L189.288 8.51291" style="fill:none;stroke:#000000;stroke-dasharray:1.000000,3.000000;stroke-dashoffset:0.0;stroke-linecap:butt;stroke-width:0.5;"/>
     </g>
     <g id="line2d_3">
      <defs>
       <path d="
M0 0
L0 -4" id="m513660f605"/>
      </defs>
      <g>
       <use style="stroke:#000000;stroke-linecap:butt;stroke-width:0.5;" x="189.287616689" xlink:href="#m513660f605" y="16.276875"/>
      </g>
     </g>
     <g id="text_1">
      <!-- 5 -->
      <defs>
       <path d="
M10.7969 72.9062
L49.5156 72.9062
L49.5156 64.5938
L19.8281 64.5938
L19.8281 46.7344
Q21.9688 47.4688 24.1094 47.8281
Q26.2656 48.1875 28.4219 48.1875
Q40.625 48.1875 47.75 41.5
Q54.8906 34.8125 54.8906 23.3906
Q54.8906 11.625 47.5625 5.09375
Q40.2344 -1.42188 26.9062 -1.42188
Q22.3125 -1.42188 17.5469 -0.640625
Q12.7969 0.140625 7.71875 1.70312
L7.71875 11.625
Q12.1094 9.23438 16.7969 8.0625
Q21.4844 6.89062 26.7031 6.89062
Q35.1562 6.89062 40.0781 11.3281
Q45.0156 15.7656 45.0156 23.3906
Q45.0156 31 40.0781 35.4375
Q35.1562 39.8906 26.7031 39.8906
Q22.75 39.8906 18.8125 39.0156
Q14.8906 38.1406 10.7969 36.2812
z
" id="BitstreamVeraSans-Roman-35"/>
      </defs>
      <g transform="translate(183.626991689 37.774375)scale(0.24 -0.24)">
       <use xlink:href="#BitstreamVeraSans-Roman-35"/>
      </g>
     </g>
    </g>
    <g id="xtick_2">
     <g id="line2d_4">
      <path d="
M322.865 412.239
L322.865 8.51291" style="fill:none;stroke:#000000;stroke-dasharray:1.000000,3.000000;stroke-dashoffset:0.0;stroke-linecap:butt;stroke-width:0.5;"/>
     </g>
     <g id="line2d_5">
      <defs>
       <path d="
M0 0
L0 -4" id="m513660f605"/>
      </defs>
      <g>
       <use style="stroke:#000000;stroke-linecap:butt;stroke-width:0.5;" x="322.864732462" xlink:href="#m513660f605" y="16.276875"/>
      </g>
     </g>
     <g id="text_2">
      <!-- 10 -->
      <defs>
       <path d="
M31.7812 66.4062
Q24.1719 66.4062 20.3281 58.9062
Q16.5 51.4219 16.5 36.375
Q16.5 21.3906 20.3281 13.8906
Q24.1719 6.39062 31.7812 6.39062
Q39.4531 6.39062 43.2812 13.8906
Q47.125 21.3906 47.125 36.375
Q47.125 51.4219 43.2812 58.9062
Q39.4531 66.4062 31.7812 66.4062
M31.7812 74.2188
Q44.0469 74.2188 50.5156 64.5156
Q56.9844 54.8281 56.9844 36.375
Q56.9844 17.9688 50.5156 8.26562
Q44.0469 -1.42188 31.7812 -1.42188
Q19.5312 -1.42188 13.0625 8.26562
Q6.59375 17.9688 6.59375 36.375
Q6.59375 54.8281 13.0625 64.5156
Q19.5312 74.2188 31.7812 74.2188" id="BitstreamVeraSans-Roman-30"/>
       <path d="
M12.4062 8.29688
L28.5156 8.29688
L28.5156 63.9219
L10.9844 60.4062
L10.9844 69.3906
L28.4219 72.9062
L38.2812 72.9062
L38.2812 8.29688
L54.3906 8.29688
L54.3906 0
L12.4062 0
z
" id="BitstreamVeraSans-Roman-31"/>
      </defs>
      <g transform="translate(309.709732462 38.089375)scale(0.24 -0.24)">
       <use xlink:href="#BitstreamVeraSans-Roman-31"/>
       <use x="63.623046875" xlink:href="#BitstreamVeraSans-Roman-30"/>
      </g>
     </g>
    </g>
    <g id="xtick_3">
     <g id="line2d_6">
      <path d="
M456.442 412.239
L456.442 8.51291" style="fill:none;stroke:#000000;stroke-dasharray:1.000000,3.000000;stroke-dashoffset:0.0;stroke-linecap:butt;stroke-width:0.5;"/>
     </g>
     <g id="line2d_7">
      <defs>
       <path d="
M0 0
L0 -4" id="m513660f605"/>
      </defs>
      <g>
       <use style="stroke:#000000;stroke-linecap:butt;stroke-width:0.5;" x="456.441848234" xlink:href="#m513660f605" y="16.276875"/>
      </g>
     </g>
     <g id="text_3">
      <!-- 15 -->
      <g transform="translate(443.538098234 37.774375)scale(0.24 -0.24)">
       <use xlink:href="#BitstreamVeraSans-Roman-31"/>
       <use x="63.623046875" xlink:href="#BitstreamVeraSans-Roman-35"/>
      </g>
     </g>
    </g>
    <g id="xtick_4">
     <g id="line2d_8">
      <defs>
       <path d="
M0 0
L0 -2" id="me68bbed528"/>
      </defs>
      <g>
       <use style="stroke:#000000;stroke-linecap:butt;stroke-width:0.5;" x="82.4259240713" xlink:href="#me68bbed528" y="16.276875"/>
      </g>
     </g>
    </g>
    <g id="xtick_5">
     <g id="line2d_9">
      <defs>
       <path d="
M0 0
L0 -2" id="me68bbed528"/>
      </defs>
      <g>
       <use style="stroke:#000000;stroke-linecap:butt;stroke-width:0.5;" x="109.141347226" xlink:href="#me68bbed528" y="16.276875"/>
      </g>
     </g>
    </g>
    <g id="xtick_6">
     <g id="line2d_10">
      <defs>
       <path d="
M0 0
L0 -2" id="me68bbed528"/>
      </defs>
      <g>
       <use style="stroke:#000000;stroke-linecap:butt;stroke-width:0.5;" x="135.85677038" xlink:href="#me68bbed528" y="16.276875"/>
      </g>
     </g>
    </g>
    <g id="xtick_7">
     <g id="line2d_11">
      <defs>
       <path d="
M0 0
L0 -2" id="me68bbed528"/>
      </defs>
      <g>
       <use style="stroke:#000000;stroke-linecap:butt;stroke-width:0.5;" x="162.572193535" xlink:href="#me68bbed528" y="16.276875"/>
      </g>
     </g>
    </g>
    <g id="xtick_8">
     <g id="line2d_12">
      <defs>
       <path d="
M0 0
L0 -2" id="me68bbed528"/>
      </defs>
      <g>
       <use style="stroke:#000000;stroke-linecap:butt;stroke-width:0.5;" x="216.003039844" xlink:href="#me68bbed528" y="16.276875"/>
      </g>
     </g>
    </g>
    <g id="xtick_9">
     <g id="line2d_13">
      <defs>
       <path d="
M0 0
L0 -2" id="me68bbed528"/>
      </defs>
      <g>
       <use style="stroke:#000000;stroke-linecap:butt;stroke-width:0.5;" x="242.718462998" xlink:href="#me68bbed528" y="16.276875"/>
      </g>
     </g>
    </g>
    <g id="xtick_10">
     <g id="line2d_14">
      <defs>
       <path d="
M0 0
L0 -2" id="me68bbed528"/>
      </defs>
      <g>
       <use style="stroke:#000000;stroke-linecap:butt;stroke-width:0.5;" x="269.433886153" xlink:href="#me68bbed528" y="16.276875"/>
      </g>
     </g>
    </g>
    <g id="xtick_11">
     <g id="line2d_15">
      <defs>
       <path d="
M0 0
L0 -2" id="me68bbed528"/>
      </defs>
      <g>
       <use style="stroke:#000000;stroke-linecap:butt;stroke-width:0.5;" x="296.149309307" xlink:href="#me68bbed528" y="16.276875"/>
      </g>
     </g>
    </g>
    <g id="xtick_12">
     <g id="line2d_16">
      <defs>
       <path d="
M0 0
L0 -2" id="me68bbed528"/>
      </defs>
      <g>
       <use style="stroke:#000000;stroke-linecap:butt;stroke-width:0.5;" x="349.580155616" xlink:href="#me68bbed528" y="16.276875"/>
      </g>
     </g>
    </g>
    <g id="xtick_13">
     <g id="line2d_17">
      <defs>
       <path d="
M0 0
L0 -2" id="me68bbed528"/>
      </defs>
      <g>
       <use style="stroke:#000000;stroke-linecap:butt;stroke-width:0.5;" x="376.29557877" xlink:href="#me68bbed528" y="16.276875"/>
      </g>
     </g>
    </g>
    <g id="xtick_14">
     <g id="line2d_18">
      <defs>
       <path d="
M0 0
L0 -2" id="me68bbed528"/>
      </defs>
      <g>
       <use style="stroke:#000000;stroke-linecap:butt;stroke-width:0.5;" x="403.011001925" xlink:href="#me68bbed528" y="16.276875"/>
      </g>
     </g>
    </g>
    <g id="xtick_15">
     <g id="line2d_19">
      <defs>
       <path d="
M0 0
L0 -2" id="me68bbed528"/>
      </defs>
      <g>
       <use style="stroke:#000000;stroke-linecap:butt;stroke-width:0.5;" x="429.726425079" xlink:href="#me68bbed528" y="16.276875"/>
      </g>
     </g>
    </g>
    <g id="xtick_16">
     <g id="line2d_20">
      <defs>
       <path d="
M0 0
L0 -2" id="me68bbed528"/>
      </defs>
      <g>
       <use style="stroke:#000000;stroke-linecap:butt;stroke-width:0.5;" x="483.157271388" xlink:href="#me68bbed528" y="16.276875"/>
      </g>
     </g>
    </g>
    <g id="xtick_17">
     <g id="line2d_21">
      <defs>
       <path d="
M0 0
L0 -2" id="me68bbed528"/>
      </defs>
      <g>
       <use style="stroke:#000000;stroke-linecap:butt;stroke-width:0.5;" x="509.872694543" xlink:href="#me68bbed528" y="16.276875"/>
      </g>
     </g>
    </g>
   </g>
   <g id="matplotlib.axis_2">
    <g id="ytick_1">
     <g id="line2d_22">
      <path d="
M64.7562 357.891
L557.299 357.891" style="fill:none;stroke:#000000;stroke-dasharray:1.000000,3.000000;stroke-dashoffset:0.0;stroke-linecap:butt;stroke-width:0.5;"/>
     </g>
     <g id="line2d_23">
      <defs>
       <path d="
M0 0
L4 0" id="m63fc3235de"/>
      </defs>
      <g>
       <use style="stroke:#000000;stroke-linecap:butt;stroke-width:0.5;" x="54.75625" xlink:href="#m63fc3235de" y="357.890962074"/>
      </g>
     </g>
     <g id="text_4">
      <!-- -2.5 -->
      <defs>
       <path d="
M19.1875 8.29688
L53.6094 8.29688
L53.6094 0
L7.32812 0
L7.32812 8.29688
Q12.9375 14.1094 22.625 23.8906
Q32.3281 33.6875 34.8125 36.5312
Q39.5469 41.8438 41.4219 45.5312
Q43.3125 49.2188 43.3125 52.7812
Q43.3125 58.5938 39.2344 62.25
Q35.1562 65.9219 28.6094 65.9219
Q23.9688 65.9219 18.8125 64.3125
Q13.6719 62.7031 7.8125 59.4219
L7.8125 69.3906
Q13.7656 71.7812 18.9375 73
Q24.125 74.2188 28.4219 74.2188
Q39.75 74.2188 46.4844 68.5469
Q53.2188 62.8906 53.2188 53.4219
Q53.2188 48.9219 51.5312 44.8906
Q49.8594 40.875 45.4062 35.4062
Q44.1875 33.9844 37.6406 27.2188
Q31.1094 20.4531 19.1875 8.29688" id="BitstreamVeraSans-Roman-32"/>
       <path d="
M10.6875 12.4062
L21 12.4062
L21 0
L10.6875 0
z
" id="BitstreamVeraSans-Roman-2e"/>
       <path d="
M4.89062 31.3906
L31.2031 31.3906
L31.2031 23.3906
L4.89062 23.3906
z
" id="BitstreamVeraSans-Roman-2d"/>
      </defs>
      <g transform="translate(7.2 366.626587074)scale(0.24 -0.24)">
       <use xlink:href="#BitstreamVeraSans-Roman-2d"/>
       <use x="36.083984375" xlink:href="#BitstreamVeraSans-Roman-32"/>
       <use x="99.70703125" xlink:href="#BitstreamVeraSans-Roman-2e"/>
       <use x="131.494140625" xlink:href="#BitstreamVeraSans-Roman-35"/>
      </g>
     </g>
    </g>
    <g id="ytick_2">
     <g id="line2d_24">
      <path d="
M64.7562 289.568
L557.299 289.568" style="fill:none;stroke:#000000;stroke-dasharray:1.000000,3.000000;stroke-dashoffset:0.0;stroke-linecap:butt;stroke-width:0.5;"/>
     </g>
     <g id="line2d_25">
      <defs>
       <path d="
M0 0
L4 0" id="m63fc3235de"/>
      </defs>
      <g>
       <use style="stroke:#000000;stroke-linecap:butt;stroke-width:0.5;" x="54.75625" xlink:href="#m63fc3235de" y="289.568144659"/>
      </g>
     </g>
     <g id="text_5">
      <!-- -2 -->
      <g transform="translate(30.405 298.474394659)scale(0.24 -0.24)">
       <use xlink:href="#BitstreamVeraSans-Roman-2d"/>
       <use x="36.083984375" xlink:href="#BitstreamVeraSans-Roman-32"/>
      </g>
     </g>
    </g>
    <g id="ytick_3">
     <g id="line2d_26">
      <path d="
M64.7562 221.245
L557.299 221.245" style="fill:none;stroke:#000000;stroke-dasharray:1.000000,3.000000;stroke-dashoffset:0.0;stroke-linecap:butt;stroke-width:0.5;"/>
     </g>
     <g id="line2d_27">
      <defs>
       <path d="
M0 0
L4 0" id="m63fc3235de"/>
      </defs>
      <g>
       <use style="stroke:#000000;stroke-linecap:butt;stroke-width:0.5;" x="54.75625" xlink:href="#m63fc3235de" y="221.245327244"/>
      </g>
     </g>
     <g id="text_6">
      <!-- -1.5 -->
      <g transform="translate(7.2 229.823452244)scale(0.24 -0.24)">
       <use xlink:href="#BitstreamVeraSans-Roman-2d"/>
       <use x="36.083984375" xlink:href="#BitstreamVeraSans-Roman-31"/>
       <use x="99.70703125" xlink:href="#BitstreamVeraSans-Roman-2e"/>
       <use x="131.494140625" xlink:href="#BitstreamVeraSans-Roman-35"/>
      </g>
     </g>
    </g>
    <g id="ytick_4">
     <g id="line2d_28">
      <path d="
M64.7562 152.923
L557.299 152.923" style="fill:none;stroke:#000000;stroke-dasharray:1.000000,3.000000;stroke-dashoffset:0.0;stroke-linecap:butt;stroke-width:0.5;"/>
     </g>
     <g id="line2d_29">
      <defs>
       <path d="
M0 0
L4 0" id="m63fc3235de"/>
      </defs>
      <g>
       <use style="stroke:#000000;stroke-linecap:butt;stroke-width:0.5;" x="54.75625" xlink:href="#m63fc3235de" y="152.92250983"/>
      </g>
     </g>
     <g id="text_7">
      <!-- -1 -->
      <g transform="translate(30.2175 161.67125983)scale(0.24 -0.24)">
       <use xlink:href="#BitstreamVeraSans-Roman-2d"/>
       <use x="36.083984375" xlink:href="#BitstreamVeraSans-Roman-31"/>
      </g>
     </g>
    </g>
    <g id="ytick_5">
     <g id="line2d_30">
      <path d="
M64.7562 84.5997
L557.299 84.5997" style="fill:none;stroke:#000000;stroke-dasharray:1.000000,3.000000;stroke-dashoffset:0.0;stroke-linecap:butt;stroke-width:0.5;"/>
     </g>
     <g id="line2d_31">
      <defs>
       <path d="
M0 0
L4 0" id="m63fc3235de"/>
      </defs>
      <g>
       <use style="stroke:#000000;stroke-linecap:butt;stroke-width:0.5;" x="54.75625" xlink:href="#m63fc3235de" y="84.5996924148"/>
      </g>
     </g>
     <g id="text_8">
      <!-- -0.5 -->
      <g transform="translate(7.2 93.3353174148)scale(0.24 -0.24)">
       <use xlink:href="#BitstreamVeraSans-Roman-2d"/>
       <use x="36.083984375" xlink:href="#BitstreamVeraSans-Roman-30"/>
       <use x="99.70703125" xlink:href="#BitstreamVeraSans-Roman-2e"/>
       <use x="131.494140625" xlink:href="#BitstreamVeraSans-Roman-35"/>
      </g>
     </g>
    </g>
    <g id="ytick_6">
     <g id="line2d_32">
      <path d="
M64.7562 16.2769
L557.299 16.2769" style="fill:none;stroke:#000000;stroke-dasharray:1.000000,3.000000;stroke-dashoffset:0.0;stroke-linecap:butt;stroke-width:0.5;"/>
     </g>
     <g id="line2d_33">
      <defs>
       <path d="
M0 0
L4 0" id="m63fc3235de"/>
      </defs>
      <g>
       <use style="stroke:#000000;stroke-linecap:butt;stroke-width:0.5;" x="54.75625" xlink:href="#m63fc3235de" y="16.276875"/>
      </g>
     </g>
     <g id="text_9">
      <!-- 0 -->
      <g transform="translate(38.6625 25.0125)scale(0.24 -0.24)">
       <use xlink:href="#BitstreamVeraSans-Roman-30"/>
      </g>
     </g>
    </g>
    <g id="ytick_7">
     <g id="line2d_34">
      <defs>
       <path d="
M0 0
L2 0" id="m8807d2e455"/>
      </defs>
      <g>
       <use style="stroke:#000000;stroke-linecap:butt;stroke-width:0.5;" x="54.75625" xlink:href="#m8807d2e455" y="398.884652523"/>
      </g>
     </g>
    </g>
    <g id="ytick_8">
     <g id="line2d_35">
      <defs>
       <path d="
M0 0
L2 0" id="m8807d2e455"/>
      </defs>
      <g>
       <use style="stroke:#000000;stroke-linecap:butt;stroke-width:0.5;" x="54.75625" xlink:href="#m8807d2e455" y="385.22008904"/>
      </g>
     </g>
    </g>
    <g id="ytick_9">
     <g id="line2d_36">
      <defs>
       <path d="
M0 0
L2 0" id="m8807d2e455"/>
      </defs>
      <g>
       <use style="stroke:#000000;stroke-linecap:butt;stroke-width:0.5;" x="54.75625" xlink:href="#m8807d2e455" y="371.555525557"/>
      </g>
     </g>
    </g>
    <g id="ytick_10">
     <g id="line2d_37">
      <defs>
       <path d="
M0 0
L2 0" id="m8807d2e455"/>
      </defs>
      <g>
       <use style="stroke:#000000;stroke-linecap:butt;stroke-width:0.5;" x="54.75625" xlink:href="#m8807d2e455" y="344.226398591"/>
      </g>
     </g>
    </g>
    <g id="ytick_11">
     <g id="line2d_38">
      <defs>
       <path d="
M0 0
L2 0" id="m8807d2e455"/>
      </defs>
      <g>
       <use style="stroke:#000000;stroke-linecap:butt;stroke-width:0.5;" x="54.75625" xlink:href="#m8807d2e455" y="330.561835108"/>
      </g>
     </g>
    </g>
    <g id="ytick_12">
     <g id="line2d_39">
      <defs>
       <path d="
M0 0
L2 0" id="m8807d2e455"/>
      </defs>
      <g>
       <use style="stroke:#000000;stroke-linecap:butt;stroke-width:0.5;" x="54.75625" xlink:href="#m8807d2e455" y="316.897271625"/>
      </g>
     </g>
    </g>
    <g id="ytick_13">
     <g id="line2d_40">
      <defs>
       <path d="
M0 0
L2 0" id="m8807d2e455"/>
      </defs>
      <g>
       <use style="stroke:#000000;stroke-linecap:butt;stroke-width:0.5;" x="54.75625" xlink:href="#m8807d2e455" y="303.232708142"/>
      </g>
     </g>
    </g>
    <g id="ytick_14">
     <g id="line2d_41">
      <defs>
       <path d="
M0 0
L2 0" id="m8807d2e455"/>
      </defs>
      <g>
       <use style="stroke:#000000;stroke-linecap:butt;stroke-width:0.5;" x="54.75625" xlink:href="#m8807d2e455" y="275.903581176"/>
      </g>
     </g>
    </g>
    <g id="ytick_15">
     <g id="line2d_42">
      <defs>
       <path d="
M0 0
L2 0" id="m8807d2e455"/>
      </defs>
      <g>
       <use style="stroke:#000000;stroke-linecap:butt;stroke-width:0.5;" x="54.75625" xlink:href="#m8807d2e455" y="262.239017693"/>
      </g>
     </g>
    </g>
    <g id="ytick_16">
     <g id="line2d_43">
      <defs>
       <path d="
M0 0
L2 0" id="m8807d2e455"/>
      </defs>
      <g>
       <use style="stroke:#000000;stroke-linecap:butt;stroke-width:0.5;" x="54.75625" xlink:href="#m8807d2e455" y="248.57445421"/>
      </g>
     </g>
    </g>
    <g id="ytick_17">
     <g id="line2d_44">
      <defs>
       <path d="
M0 0
L2 0" id="m8807d2e455"/>
      </defs>
      <g>
       <use style="stroke:#000000;stroke-linecap:butt;stroke-width:0.5;" x="54.75625" xlink:href="#m8807d2e455" y="234.909890727"/>
      </g>
     </g>
    </g>
    <g id="ytick_18">
     <g id="line2d_45">
      <defs>
       <path d="
M0 0
L2 0" id="m8807d2e455"/>
      </defs>
      <g>
       <use style="stroke:#000000;stroke-linecap:butt;stroke-width:0.5;" x="54.75625" xlink:href="#m8807d2e455" y="207.580763762"/>
      </g>
     </g>
    </g>
    <g id="ytick_19">
     <g id="line2d_46">
      <defs>
       <path d="
M0 0
L2 0" id="m8807d2e455"/>
      </defs>
      <g>
       <use style="stroke:#000000;stroke-linecap:butt;stroke-width:0.5;" x="54.75625" xlink:href="#m8807d2e455" y="193.916200279"/>
      </g>
     </g>
    </g>
    <g id="ytick_20">
     <g id="line2d_47">
      <defs>
       <path d="
M0 0
L2 0" id="m8807d2e455"/>
      </defs>
      <g>
       <use style="stroke:#000000;stroke-linecap:butt;stroke-width:0.5;" x="54.75625" xlink:href="#m8807d2e455" y="180.251636796"/>
      </g>
     </g>
    </g>
    <g id="ytick_21">
     <g id="line2d_48">
      <defs>
       <path d="
M0 0
L2 0" id="m8807d2e455"/>
      </defs>
      <g>
       <use style="stroke:#000000;stroke-linecap:butt;stroke-width:0.5;" x="54.75625" xlink:href="#m8807d2e455" y="166.587073313"/>
      </g>
     </g>
    </g>
    <g id="ytick_22">
     <g id="line2d_49">
      <defs>
       <path d="
M0 0
L2 0" id="m8807d2e455"/>
      </defs>
      <g>
       <use style="stroke:#000000;stroke-linecap:butt;stroke-width:0.5;" x="54.75625" xlink:href="#m8807d2e455" y="139.257946347"/>
      </g>
     </g>
    </g>
    <g id="ytick_23">
     <g id="line2d_50">
      <defs>
       <path d="
M0 0
L2 0" id="m8807d2e455"/>
      </defs>
      <g>
       <use style="stroke:#000000;stroke-linecap:butt;stroke-width:0.5;" x="54.75625" xlink:href="#m8807d2e455" y="125.593382864"/>
      </g>
     </g>
    </g>
    <g id="ytick_24">
     <g id="line2d_51">
      <defs>
       <path d="
M0 0
L2 0" id="m8807d2e455"/>
      </defs>
      <g>
       <use style="stroke:#000000;stroke-linecap:butt;stroke-width:0.5;" x="54.75625" xlink:href="#m8807d2e455" y="111.928819381"/>
      </g>
     </g>
    </g>
    <g id="ytick_25">
     <g id="line2d_52">
      <defs>
       <path d="
M0 0
L2 0" id="m8807d2e455"/>
      </defs>
      <g>
       <use style="stroke:#000000;stroke-linecap:butt;stroke-width:0.5;" x="54.75625" xlink:href="#m8807d2e455" y="98.2642558978"/>
      </g>
     </g>
    </g>
    <g id="ytick_26">
     <g id="line2d_53">
      <defs>
       <path d="
M0 0
L2 0" id="m8807d2e455"/>
      </defs>
      <g>
       <use style="stroke:#000000;stroke-linecap:butt;stroke-width:0.5;" x="54.75625" xlink:href="#m8807d2e455" y="70.9351289319"/>
      </g>
     </g>
    </g>
    <g id="ytick_27">
     <g id="line2d_54">
      <defs>
       <path d="
M0 0
L2 0" id="m8807d2e455"/>
      </defs>
      <g>
       <use style="stroke:#000000;stroke-linecap:butt;stroke-width:0.5;" x="54.75625" xlink:href="#m8807d2e455" y="57.2705654489"/>
      </g>
     </g>
    </g>
    <g id="ytick_28">
     <g id="line2d_55">
      <defs>
       <path d="
M0 0
L2 0" id="m8807d2e455"/>
      </defs>
      <g>
       <use style="stroke:#000000;stroke-linecap:butt;stroke-width:0.5;" x="54.75625" xlink:href="#m8807d2e455" y="43.6060019659"/>
      </g>
     </g>
    </g>
    <g id="ytick_29">
     <g id="line2d_56">
      <defs>
       <path d="
M0 0
L2 0" id="m8807d2e455"/>
      </defs>
      <g>
       <use style="stroke:#000000;stroke-linecap:butt;stroke-width:0.5;" x="54.75625" xlink:href="#m8807d2e455" y="29.941438483"/>
      </g>
     </g>
    </g>
   </g>
   <g id="patch_3">
    <path d="
M64.7562 16.2769
L557.299 16.2769" style="fill:none;stroke:#000000;stroke-width:0.8;"/>
   </g>
   <g id="patch_4">
    <path d="
M54.7562 412.239
L54.7562 8.51291" style="fill:none;stroke:#000000;stroke-width:0.8;"/>
   </g>
  </g>
 </g>
 <defs>
  <clipPath id="p8d84e77ebc">
   <rect height="403.726153846" width="492.5425" x="64.75625" y="8.51291050296"/>
  </clipPath>
 </defs>
</svg>
