<?xml version="1.0" encoding="utf-8" standalone="no"?>
<!DOCTYPE svg PUBLIC "-//W3C//DTD SVG 1.1//EN"
  "http://www.w3.org/Graphics/SVG/1.1/DTD/svg11.dtd">
<!-- Created with matplotlib (http://matplotlib.sourceforge.net/) -->
<svg height="419pt" version="1.1" viewBox="0 0 564 419" width="564pt" xmlns="http://www.w3.org/2000/svg" xmlns:xlink="http://www.w3.org/1999/xlink">
 <defs>
  <style type="text/css">
*{stroke-linecap:square;stroke-linejoin:round;}
  </style>
 </defs>
 <g id="figure_1">
  <g id="patch_1">
   <path d="
M2.22045e-16 419.439
L564.686 419.439
L564.686 0
L2.22045e-16 0
z
" style="fill:#ffffff;"/>
  </g>
  <g id="axes_1">
   <g id="patch_2">
    <path d="
M65.5062 412.239
L557.486 412.239
L557.486 8.51291
L65.5062 8.51291
z
" style="fill:#ffffff;"/>
   </g>
   <g id="line2d_1">
    <path clip-path="url(#pf45e15e1c9)" d="
M74.9674 16.2769
L85.7872 16.2769
L85.7872 40.3468
L99.4185 40.3468
L99.4185 169.901
L108.397 169.901
L108.397 250.709
L120.458 250.709
L120.458 302.381
L124.916 302.381
L124.916 305.679
L132.075 305.679
L132.075 321.653
L135.043 321.653
L135.043 328.927
L140.141 328.927
L140.141 341.235
L146.327 341.235
L146.327 353.164
L148.106 353.164
L148.106 357.483
L152.828 357.483
L152.828 367.851
L155.567 367.851
L155.567 372.828
L156.838 372.828
L156.838 374.287
L159.212 374.287
L159.212 376.935
L162.418 376.935
L162.418 378.913
L165.28 378.913
L165.28 381.257
L166.169 381.257
L166.169 382.563
L168.673 382.563
L168.673 385.657
L170.22 385.657
L170.22 387.623
L170.961 387.623
L170.961 388.439
L173.069 388.439
L173.069 390.393
L174.387 390.393
L174.387 391.957
L176.25 391.957
L176.25 392.871
L178.547 392.871
L178.547 394.159
L179.625 394.159
L179.625 394.438
L180.148 394.438
L180.148 394.713
L181.165 394.713
L181.165 395.187
L181.659 395.187
L181.659 395.583
L182.621 395.583
L182.621 396.126
L185.738 396.126
L185.738 399.367
L186.565 399.367
L186.565 400.132
L187.76 400.132
L187.76 400.959
L188.147 400.959
L188.147 401.163
L190.001 401.163
L190.001 401.306
L191.396 401.238
L191.396 401.438
L192.397 401.438
L192.397 401.795
L193.986 401.846
L193.986 402.053
L196.627 402.066
L196.627 401.469
L197.453 401.418
L197.453 401.289
L199.285 401.216
L199.285 400.465
L200.761 400.465
L200.761 399.697
L201.469 399.613
L201.469 399.582
L203.917 399.526
L203.917 399.415
L205.163 399.5
L205.163 399.731
L205.765 399.731
L205.765 400.061
L205.963 400.061
L205.963 400.216
L206.547 400.216
L206.547 400.535
L206.93 400.535
L206.93 400.858
L207.119 400.858
L207.119 400.981
L208.046 400.981
L208.046 401.386
L209.291 401.386
L209.291 402.189
L209.637 402.189
L209.637 402.425
L210.147 402.518
L210.147 402.638
L211.3 402.638
L211.3 402.942
L211.779 402.942
L211.779 403.158
L212.56 403.158
L212.56 403.515
L213.467 403.591
L213.467 403.748
L214.055 403.748
L214.055 403.866
L214.488 403.866
L214.488 404.045
L216.946 403.986
L216.946 403.9
L218.344 403.903
L218.344 404.024
L218.835 404.062
L218.835 404.199
L219.436 404.264
L219.436 404.367
L222.254 404.328
L222.254 404.2
L222.783 404.145
L222.783 404.053
L223.405 404.053
L223.507 403.884
L224.41 403.884
L224.41 403.566
L225.188 403.459
L225.188 403.345
L225.757 403.28
L225.85 403.131
L226.588 403.031
L226.588 402.902
L227.128 402.823
L227.217 402.741
L227.918 402.632
L228.004 402.604
L228.936 402.504
L229.019 402.411
L230.63 402.345
L230.63 402.293
L232 402.189
L232 402.165
L232.733 402.106
L232.733 402.052
L233.515 401.951
L233.515 401.921
L234.412 401.821
L234.412 401.751
L235.605 401.642
L235.605 401.628
L236.119 401.592
L236.119 401.514
L238.199 401.427
L238.199 401.322
L238.838 401.231
L238.838 401.195
L239.519 401.101
L239.519 401.068
L240.018 400.972
L240.018 400.935
L240.346 400.885
L240.346 400.823
L240.724 400.751
L240.724 400.697
L241.148 400.587
L241.148 400.554
L241.825 400.445
L241.825 400.4
L242.131 400.305
L242.131 400.286
L243.03 400.182
L243.128 400.031
L243.564 399.935
L243.564 399.873
L243.899 399.79
L243.899 399.727
L244.556 399.647
L244.603 399.365
L244.833 399.365
L244.833 399.251
L245.243 399.15
L245.243 399.047
L245.691 398.954
L245.691 398.891
L246.35 398.781
L246.35 398.777
L248.192 398.88
L248.232 398.914
L252.169 398.806
L252.169 398.76
L252.55 398.663
L252.653 398.614
L253.061 398.518
L253.061 398.498
L253.462 398.41
L253.562 398.357
L254.28 398.27
L254.376 398.189
L255.104 398.092
L255.104 398.063
L256.146 397.964
L256.235 397.93
L257.177 397.842
L257.177 397.817
L257.946 397.717
L258.03 397.669
L259.34 397.57
L259.447 397.538
L260.128 397.44
L260.205 397.404
L262.995 397.293
L262.995 397.282
L263.501 397.173
L263.57 397.158
L264.574 397.047
L264.683 396.99
L265.287 396.901
L265.287 396.825
L265.71 396.716
L265.794 396.665
L266.085 396.639
L266.085 396.549
L266.475 396.444
L266.516 396.403
L266.88 396.294
L266.94 396.23
L267.2 396.12
L267.299 396.07
L267.594 395.976
L267.613 395.921
L267.963 395.828
L268.059 395.723
L268.308 395.612
L268.308 395.603
L268.592 395.535
L268.686 395.431
L269.021 395.335
L269.096 395.198
L269.371 395.093
L269.463 395.015
L269.699 394.958
L269.789 394.856
L270.111 394.822
L270.218 394.644
L270.447 394.591
L270.552 394.456
L270.814 394.361
L270.9 394.253
L271.158 394.16
L271.175 394.108
L271.532 394.031
L271.582 393.893
L271.867 393.803
L271.917 393.725
L272.264 393.64
L272.33 393.537
L272.671 393.427
L272.768 393.388
L273.041 393.28
L273.136 393.226
L273.515 393.134
L273.562 393.07
L273.904 392.968
L273.996 392.912
L274.226 392.832
L274.317 392.753
L274.59 392.646
L274.68 392.593
L275.111 392.487
L275.214 392.462
L278.631 392.36
L278.708 392.337
L279.621 392.233
L279.708 392.205
L280.286 392.109
L280.395 392.073
L282.264 391.964
L282.287 391.954
L282.999 391.875
L283.087 391.815
L283.682 391.709
L283.767 391.674
L284.159 391.578
L284.212 391.529
L284.628 391.426
L284.69 391.392
L285.109 391.295
L285.21 391.225
L285.711 391.118
L285.8 391.034
L286.154 390.932
L286.212 390.867
L286.57 390.787
L286.647 390.723
L286.999 390.614
L287.102 390.568
L287.615 390.463
L287.717 390.423
L289.115 390.319
L289.202 390.295
L290.326 390.186
L290.426 390.164
L291.156 390.064
L291.237 390.04
L291.968 389.934
L292.07 389.914
L292.947 389.806
L293.03 389.789
L294.332 389.678
L294.425 389.668
L295.061 389.56
L295.166 389.521
L295.676 389.419
L295.758 389.379
L296.27 389.28
L296.35 389.237
L296.845 389.128
L296.923 389.107
L297.687 388.997
L297.788 388.979
L298.627 388.872
L298.718 388.851
L299.433 388.741
L299.522 388.706
L300.245 388.605
L300.343 388.572
L300.82 388.463
L300.91 388.437
L301.372 388.33
L301.427 388.301
L301.847 388.197
L301.945 388.165
L302.347 388.074
L302.431 388.026
L302.805 387.928
L302.915 387.878
L303.271 387.783
L303.379 387.729
L303.699 387.633
L303.805 387.55
L304.031 387.44
L304.136 387.383
L304.378 387.307
L304.467 387.233
L304.74 387.123
L304.799 387.087
L305.064 386.979
L305.174 386.916
L305.507 386.808
L305.578 386.772
L305.901 386.668
L305.984 386.617
L306.339 386.517
L306.44 386.47
L306.861 386.365
L306.964 386.335
L307.774 386.226
L307.874 386.21
L308.502 386.1
L308.603 386.082
L309.152 385.971
L309.263 385.944
L309.852 385.833
L309.936 385.814
L310.436 385.709
L310.518 385.681
L310.991 385.571
L311.099 385.545
L311.554 385.437
L311.645 385.401
L311.98 385.295
L312.091 385.256
L312.472 385.148
L312.57 385.111
L312.93 385.003
L313.038 384.939
L313.332 384.828
L313.419 384.79
L313.754 384.682
L313.858 384.646
L314.195 384.537
L314.256 384.516
L314.624 384.409
L314.722 384.379
L315.202 384.272
L315.287 384.248
L315.998 384.138
L316.071 384.12
L316.591 384.011
L316.693 383.978
L317.146 383.868
L317.241 383.851
L318.127 383.74
L318.226 383.73
L319.25 383.622
L319.346 383.606
L319.906 383.496
L320.01 383.473
L320.596 383.363
L320.695 383.338
L321.313 383.229
L321.415 383.212
L322.2 383.104
L322.291 383.081
L322.695 382.97
L322.799 382.931
L323.202 382.822
L323.304 382.788
L323.808 382.681
L323.901 382.655
L324.494 382.544
L324.589 382.532
L325.232 382.426
L325.343 382.396
L326.006 382.289
L326.098 382.268
L326.713 382.16
L326.824 382.137
L327.391 382.028
L327.501 382.002
L328.061 381.893
L328.17 381.867
L328.675 381.76
L328.783 381.725
L329.193 381.616
L329.292 381.591
L329.986 381.481
L330.095 381.454
L332.337 381.343
L332.425 381.33
L332.901 381.219
L333.007 381.195
L333.584 381.085
L333.693 381.066
L334.57 380.955
L334.678 380.931
L335.358 380.82
L335.464 380.802
L336.475 380.693
L336.584 380.67
L337.654 380.56
L337.765 380.54
L338.491 380.429
L338.598 380.411
L339.146 380.3
L339.25 380.273
L339.699 380.17
L339.804 380.137
L340.299 380.026
L340.401 380.005
L340.97 379.895
L341.08 379.868
L341.49 379.76
L341.596 379.722
L341.996 379.621
L342.106 379.58
L342.53 379.47
L342.64 379.432
L342.983 379.322
L343.086 379.28
L343.401 379.171
L343.506 379.13
L343.827 379.019
L343.938 378.983
L344.326 378.873
L344.434 378.842
L344.818 378.733
L344.927 378.698
L345.335 378.587
L345.441 378.554
L345.825 378.446
L345.924 378.41
L346.268 378.301
L346.379 378.26
L346.695 378.149
L346.801 378.108
L347.109 377.997
L347.219 377.95
L347.526 377.84
L347.635 377.797
L347.951 377.687
L348.061 377.637
L348.338 377.526
L348.447 377.48
L348.757 377.369
L348.866 377.33
L349.182 377.219
L349.281 377.182
L349.584 377.072
L349.688 377.034
L350.154 376.924
L350.263 376.894
L350.706 376.784
L350.816 376.759
L351.35 376.65
L351.452 376.625
L351.938 376.516
L352.046 376.487
L352.527 376.377
L352.638 376.347
L353.239 376.236
L353.349 376.217
L354.486 376.106
L354.586 376.093
L355.717 375.981
L355.827 375.967
L357.038 375.857
L357.144 375.84
L357.866 375.729
L357.974 375.713
L359.192 375.602
L359.301 375.587
L360.23 375.476
L360.335 375.46
L361.063 375.35
L361.172 375.33
L361.712 375.219
L361.821 375.203
L362.54 375.092
L362.649 375.074
L363.523 374.963
L363.63 374.947
L364.226 374.836
L364.335 374.814
L364.811 374.703
L364.921 374.677
L365.587 374.566
L365.694 374.553
L366.892 374.442
L367.003 374.43
L368.148 374.318
L368.258 374.298
L368.935 374.187
L369.044 374.171
L369.671 374.06
L369.78 374.036
L370.31 373.925
L370.42 373.902
L370.941 373.791
L371.052 373.764
L371.509 373.654
L371.62 373.626
L372.056 373.517
L372.165 373.49
L372.665 373.379
L372.776 373.352
L373.254 373.241
L373.365 373.221
L374.127 373.11
L374.238 373.091
L375.187 372.981
L375.294 372.965
L375.907 372.854
L376.016 372.829
L376.519 372.718
L376.63 372.696
L377.328 372.585
L377.438 372.562
L377.907 372.451
L378.017 372.424
L378.438 372.314
L378.548 372.285
L378.948 372.174
L379.055 372.147
L379.585 372.036
L379.695 372.01
L380.153 371.899
L380.262 371.875
L380.771 371.764
L380.877 371.743
L381.517 371.632
L381.625 371.615
L382.236 371.504
L382.344 371.486
L383.022 371.375
L383.132 371.354
L383.958 371.243
L384.069 371.23
L385.083 371.119
L385.194 371.105
L386.112 370.994
L386.223 370.976
L386.865 370.865
L386.976 370.844
L387.604 370.733
L387.715 370.707
L388.19 370.596
L388.301 370.57
L388.792 370.459
L388.9 370.434
L389.379 370.323
L389.49 370.296
L390.056 370.185
L390.166 370.163
L390.749 370.052
L390.859 370.028
L391.32 369.918
L391.431 369.89
L391.926 369.779
L392.037 369.754
L392.512 369.643
L392.623 369.62
L393.199 369.509
L393.308 369.489
L393.778 369.377
L393.888 369.349
L394.318 369.238
L394.428 369.211
L394.873 369.1
L394.982 369.073
L395.362 368.962
L395.473 368.927
L395.957 368.816
L396.067 368.795
L396.758 368.684
L396.869 368.667
L397.677 368.556
L397.788 368.545
L399.182 368.434
L399.293 368.419
L400.101 368.308
L400.212 368.292
L400.876 368.181
L400.986 368.162
L401.659 368.051
L401.769 368.034
L402.803 367.923
L402.914 367.917
L404.159 367.805
L404.268 367.796
L405.412 367.685
L405.523 367.669
L406.536 367.558
L406.646 367.542
L407.46 367.431
L407.571 367.418
L408.41 367.307
L408.521 367.297
L409.634 367.186
L409.743 367.169
L410.486 367.058
L410.596 367.041
L411.4 366.93
L411.51 366.913
L412.088 366.802
L412.199 366.775
L412.632 366.664
L412.743 366.637
L413.232 366.526
L413.343 366.504
L413.825 366.393
L413.935 366.363
L414.317 366.252
L414.428 366.219
L414.773 366.108
L414.883 366.072
L415.261 365.961
L415.371 365.931
L415.906 365.82
L416.017 365.798
L416.567 365.686
L416.677 365.661
L417.157 365.55
L417.267 365.525
L417.736 365.414
L417.847 365.386
L418.284 365.275
L418.395 365.247
L418.857 365.136
L418.968 365.11
L419.378 364.999
L419.489 364.969
L419.869 364.858
L419.98 364.828
L420.395 364.717
L420.506 364.688
L420.956 364.577
L421.066 364.551
L421.655 364.44
L421.766 364.419
L422.382 364.308
L422.493 364.288
L423.062 364.177
L423.173 364.154
L423.748 364.043
L423.859 364.027
L424.626 363.916
L424.737 363.898
L425.639 363.787
L425.75 363.776
L426.616 363.665
L426.727 363.649
L427.715 363.538
L427.826 363.525
L428.709 363.414
L428.82 363.393
L429.463 363.282
L429.574 363.259
L430.07 363.148
L430.181 363.121
L430.743 363.01
L430.854 362.987
L431.387 362.875
L431.498 362.852
L432.143 362.741
L432.254 362.724
L432.918 362.613
L433.028 362.593
L433.821 362.482
L433.932 362.472
L434.667 362.361
L434.778 362.342
L435.546 362.231
L435.657 362.22
L436.649 362.109
L436.76 362.095
L437.714 361.984
L437.825 361.965
L438.51 361.854
L438.621 361.835
L439.226 361.723
L439.338 361.707
L439.963 361.595
L440.074 361.576
L440.762 361.464
L440.873 361.448
L441.513 361.337
L441.624 361.315
L442.504 361.204
L442.615 361.19
L443.538 361.079
L443.649 361.064
L444.448 360.953
L444.559 360.938
L445.496 360.827
L445.607 360.811
L446.279 360.699
L446.39 360.68
L447 360.569
L447.111 360.549
L447.814 360.438
L447.925 360.42
L448.549 360.309
L448.66 360.29
L449.28 360.179
L449.391 360.158
L450.026 360.047
L450.137 360.028
L450.9 359.917
L451.011 359.905
L451.792 359.794
L451.903 359.777
L452.492 359.666
L452.603 359.646
L453.161 359.535
L453.272 359.509
L453.811 359.398
L453.922 359.377
L454.548 359.266
L454.658 359.247
L455.28 359.136
L455.391 359.116
L455.996 359.004
L456.107 358.982
L456.609 358.871
L456.72 358.843
L457.174 358.732
L457.286 358.703
L457.746 358.592
L457.857 358.568
L458.465 358.457
L458.576 358.438
L459.263 358.327
L459.374 358.306
L459.982 358.195
L460.093 358.175
L460.69 358.064
L460.801 358.046
L461.456 357.935
L461.567 357.915
L462.179 357.803
L462.29 357.783
L462.846 357.672
L462.958 357.649
L463.51 357.538
L463.621 357.515
L464.197 357.404
L464.308 357.384
L465.062 357.273
L465.173 357.258
L466.074 357.147
L466.185 357.135
L467.297 357.024
L467.408 357.01
L468.139 356.899
L468.251 356.882
L468.99 356.771
L469.101 356.752
L469.811 356.641
L469.922 356.624
L470.674 356.513
L470.785 356.497
L471.513 356.386
L471.624 356.364
L472.204 356.253
L472.315 356.231
L472.88 356.12
L472.991 356.098
L473.543 355.987
L473.654 355.966
L474.233 355.855
L474.345 355.833
L474.952 355.722
L475.063 355.703
L475.739 355.592
L475.85 355.575
L476.578 355.464
L476.689 355.448
L477.568 355.337
L477.679 355.324
L479.233 355.213
L479.344 355.21
L481.194 355.099
L481.305 355.084
L482.299 354.973
L482.41 354.961
L483.293 354.849
L483.404 354.833
L484.042 354.722
L484.153 354.701
L484.741 354.59
L484.852 354.57
L485.498 354.459
L485.609 354.441
L486.298 354.33
L486.409 354.311
L487.156 354.2
L487.267 354.183
L487.948 354.072
L488.059 354.055
L488.717 353.943
L488.828 353.923
L489.398 353.812
L489.509 353.788
L490.066 353.677
L490.177 353.655
L490.72 353.544
L490.831 353.521
L491.422 353.41
L491.533 353.392
L492.276 353.281
L492.388 353.264
L492.98 353.153
L493.091 353.13
L493.689 353.019
L493.8 352.999
L494.435 352.888
L494.546 352.865
L495.092 352.754
L495.203 352.732
L495.816 352.621
L495.927 352.602
L496.588 352.491
L496.699 352.473
L497.354 352.362
L497.465 352.342
L498.158 352.231
L498.269 352.213
L498.96 352.102
L499.071 352.084
L499.81 351.973
L499.921 351.957
L500.618 351.845
L500.729 351.828
L501.499 351.717
L501.61 351.702
L502.34 351.591
L502.451 351.57
L503.06 351.459
L503.171 351.439
L503.798 351.328
L503.909 351.31
L504.544 351.199
L504.655 351.179
L505.317 351.068
L505.428 351.051
L506.265 350.94
L506.376 350.927
L507.366 350.815
L507.477 350.803
L508.669 350.692
L508.78 350.681
L509.765 350.57
L509.876 350.561
L511.021 350.45
L511.132 350.436
L512.476 350.324
L512.587 350.311
L513.469 350.2
L513.58 350.186
L514.426 350.075
L514.537 350.058
L515.298 349.947
L515.409 349.931
L516.217 349.82
L516.328 349.805
L517.06 349.694
L517.171 349.677
L517.943 349.565
L518.054 349.549
L518.71 349.438
L518.821 349.419
L519.551 349.308
L519.662 349.292
L520.363 349.181
L520.474 349.164
L521.215 349.053
L521.326 349.035
L522.018 348.924
L522.129 348.907
L522.915 348.796
L523.026 348.777
L523.703 348.666
L523.815 348.649
L524.53 348.538
L524.641 348.521
L525.442 348.41
L525.553 348.395
L526.384 348.284
L526.495 348.268
L527.324 348.157
L527.435 348.142
L528.258 348.031
L528.369 348.016
L529.181 347.905
L529.292 347.89
L530.205 347.779
L530.317 347.764
L531.114 347.653
L531.226 347.638
L531.974 347.527
L532.086 347.509
L532.748 347.398
L532.859 347.38
L533.606 347.269
L533.717 347.254
L534.613 347.143
L534.724 347.13
L535.519 347.018
L535.63 347.001
L536.316 346.89
L536.427 346.874
L537.138 346.763
L537.25 346.744
L537.97 346.633
L538.082 346.617
L538.835 346.506
L538.946 346.49
L539.609 346.378
L539.72 346.359
L540.394 346.248
L540.505 346.231
L541.162 346.119
L541.273 346.102
L541.965 345.991
L542.076 345.973
L542.813 345.862
L542.924 345.845
L543.611 345.734
L543.722 345.715
L544.443 345.604
L544.554 345.588
L545.399 345.477
L545.51 345.461
L546.383 345.349
L546.494 345.334
L547.277 345.223
L547.388 345.207
L548.025 345.129
L548.025 345.129" style="fill:none;stroke:#0000ff;stroke-width:5.0;"/>
   </g>
   <g id="matplotlib.axis_1">
    <g id="xtick_1">
     <g id="line2d_2">
      <path d="
M189.895 412.239
L189.895 8.51291" style="fill:none;stroke:#000000;stroke-dasharray:1.000000,3.000000;stroke-dashoffset:0.0;stroke-linecap:butt;stroke-width:0.5;"/>
     </g>
     <g id="line2d_3">
      <defs>
       <path d="
M0 0
L0 -4" id="m513660f605"/>
      </defs>
      <g>
       <use style="stroke:#000000;stroke-linecap:butt;stroke-width:0.5;" x="189.895397706" xlink:href="#m513660f605" y="16.276875"/>
      </g>
     </g>
     <g id="text_1">
      <!-- 5 -->
      <defs>
       <path d="
M10.7969 72.9062
L49.5156 72.9062
L49.5156 64.5938
L19.8281 64.5938
L19.8281 46.7344
Q21.9688 47.4688 24.1094 47.8281
Q26.2656 48.1875 28.4219 48.1875
Q40.625 48.1875 47.75 41.5
Q54.8906 34.8125 54.8906 23.3906
Q54.8906 11.625 47.5625 5.09375
Q40.2344 -1.42188 26.9062 -1.42188
Q22.3125 -1.42188 17.5469 -0.640625
Q12.7969 0.140625 7.71875 1.70312
L7.71875 11.625
Q12.1094 9.23438 16.7969 8.0625
Q21.4844 6.89062 26.7031 6.89062
Q35.1562 6.89062 40.0781 11.3281
Q45.0156 15.7656 45.0156 23.3906
Q45.0156 31 40.0781 35.4375
Q35.1562 39.8906 26.7031 39.8906
Q22.75 39.8906 18.8125 39.0156
Q14.8906 38.1406 10.7969 36.2812
z
" id="BitstreamVeraSans-Roman-35"/>
      </defs>
      <g transform="translate(184.234772706 37.774375)scale(0.24 -0.24)">
       <use xlink:href="#BitstreamVeraSans-Roman-35"/>
      </g>
     </g>
    </g>
    <g id="xtick_2">
     <g id="line2d_4">
      <path d="
M323.32 412.239
L323.32 8.51291" style="fill:none;stroke:#000000;stroke-dasharray:1.000000,3.000000;stroke-dashoffset:0.0;stroke-linecap:butt;stroke-width:0.5;"/>
     </g>
     <g id="line2d_5">
      <defs>
       <path d="
M0 0
L0 -4" id="m513660f605"/>
      </defs>
      <g>
       <use style="stroke:#000000;stroke-linecap:butt;stroke-width:0.5;" x="323.319963946" xlink:href="#m513660f605" y="16.276875"/>
      </g>
     </g>
     <g id="text_2">
      <!-- 10 -->
      <defs>
       <path d="
M31.7812 66.4062
Q24.1719 66.4062 20.3281 58.9062
Q16.5 51.4219 16.5 36.375
Q16.5 21.3906 20.3281 13.8906
Q24.1719 6.39062 31.7812 6.39062
Q39.4531 6.39062 43.2812 13.8906
Q47.125 21.3906 47.125 36.375
Q47.125 51.4219 43.2812 58.9062
Q39.4531 66.4062 31.7812 66.4062
M31.7812 74.2188
Q44.0469 74.2188 50.5156 64.5156
Q56.9844 54.8281 56.9844 36.375
Q56.9844 17.9688 50.5156 8.26562
Q44.0469 -1.42188 31.7812 -1.42188
Q19.5312 -1.42188 13.0625 8.26562
Q6.59375 17.9688 6.59375 36.375
Q6.59375 54.8281 13.0625 64.5156
Q19.5312 74.2188 31.7812 74.2188" id="BitstreamVeraSans-Roman-30"/>
       <path d="
M12.4062 8.29688
L28.5156 8.29688
L28.5156 63.9219
L10.9844 60.4062
L10.9844 69.3906
L28.4219 72.9062
L38.2812 72.9062
L38.2812 8.29688
L54.3906 8.29688
L54.3906 0
L12.4062 0
z
" id="BitstreamVeraSans-Roman-31"/>
      </defs>
      <g transform="translate(310.164963946 38.089375)scale(0.24 -0.24)">
       <use xlink:href="#BitstreamVeraSans-Roman-31"/>
       <use x="63.623046875" xlink:href="#BitstreamVeraSans-Roman-30"/>
      </g>
     </g>
    </g>
    <g id="xtick_3">
     <g id="line2d_6">
      <path d="
M456.745 412.239
L456.745 8.51291" style="fill:none;stroke:#000000;stroke-dasharray:1.000000,3.000000;stroke-dashoffset:0.0;stroke-linecap:butt;stroke-width:0.5;"/>
     </g>
     <g id="line2d_7">
      <defs>
       <path d="
M0 0
L0 -4" id="m513660f605"/>
      </defs>
      <g>
       <use style="stroke:#000000;stroke-linecap:butt;stroke-width:0.5;" x="456.744530187" xlink:href="#m513660f605" y="16.276875"/>
      </g>
     </g>
     <g id="text_3">
      <!-- 15 -->
      <g transform="translate(443.840780187 37.774375)scale(0.24 -0.24)">
       <use xlink:href="#BitstreamVeraSans-Roman-31"/>
       <use x="63.623046875" xlink:href="#BitstreamVeraSans-Roman-35"/>
      </g>
     </g>
    </g>
    <g id="xtick_4">
     <g id="line2d_8">
      <defs>
       <path d="
M0 0
L0 -2" id="me68bbed528"/>
      </defs>
      <g>
       <use style="stroke:#000000;stroke-linecap:butt;stroke-width:0.5;" x="83.1557447129" xlink:href="#me68bbed528" y="16.276875"/>
      </g>
     </g>
    </g>
    <g id="xtick_5">
     <g id="line2d_9">
      <defs>
       <path d="
M0 0
L0 -2" id="me68bbed528"/>
      </defs>
      <g>
       <use style="stroke:#000000;stroke-linecap:butt;stroke-width:0.5;" x="109.840657961" xlink:href="#me68bbed528" y="16.276875"/>
      </g>
     </g>
    </g>
    <g id="xtick_6">
     <g id="line2d_10">
      <defs>
       <path d="
M0 0
L0 -2" id="me68bbed528"/>
      </defs>
      <g>
       <use style="stroke:#000000;stroke-linecap:butt;stroke-width:0.5;" x="136.525571209" xlink:href="#me68bbed528" y="16.276875"/>
      </g>
     </g>
    </g>
    <g id="xtick_7">
     <g id="line2d_11">
      <defs>
       <path d="
M0 0
L0 -2" id="me68bbed528"/>
      </defs>
      <g>
       <use style="stroke:#000000;stroke-linecap:butt;stroke-width:0.5;" x="163.210484457" xlink:href="#me68bbed528" y="16.276875"/>
      </g>
     </g>
    </g>
    <g id="xtick_8">
     <g id="line2d_12">
      <defs>
       <path d="
M0 0
L0 -2" id="me68bbed528"/>
      </defs>
      <g>
       <use style="stroke:#000000;stroke-linecap:butt;stroke-width:0.5;" x="216.580310954" xlink:href="#me68bbed528" y="16.276875"/>
      </g>
     </g>
    </g>
    <g id="xtick_9">
     <g id="line2d_13">
      <defs>
       <path d="
M0 0
L0 -2" id="me68bbed528"/>
      </defs>
      <g>
       <use style="stroke:#000000;stroke-linecap:butt;stroke-width:0.5;" x="243.265224202" xlink:href="#me68bbed528" y="16.276875"/>
      </g>
     </g>
    </g>
    <g id="xtick_10">
     <g id="line2d_14">
      <defs>
       <path d="
M0 0
L0 -2" id="me68bbed528"/>
      </defs>
      <g>
       <use style="stroke:#000000;stroke-linecap:butt;stroke-width:0.5;" x="269.95013745" xlink:href="#me68bbed528" y="16.276875"/>
      </g>
     </g>
    </g>
    <g id="xtick_11">
     <g id="line2d_15">
      <defs>
       <path d="
M0 0
L0 -2" id="me68bbed528"/>
      </defs>
      <g>
       <use style="stroke:#000000;stroke-linecap:butt;stroke-width:0.5;" x="296.635050698" xlink:href="#me68bbed528" y="16.276875"/>
      </g>
     </g>
    </g>
    <g id="xtick_12">
     <g id="line2d_16">
      <defs>
       <path d="
M0 0
L0 -2" id="me68bbed528"/>
      </defs>
      <g>
       <use style="stroke:#000000;stroke-linecap:butt;stroke-width:0.5;" x="350.004877195" xlink:href="#me68bbed528" y="16.276875"/>
      </g>
     </g>
    </g>
    <g id="xtick_13">
     <g id="line2d_17">
      <defs>
       <path d="
M0 0
L0 -2" id="me68bbed528"/>
      </defs>
      <g>
       <use style="stroke:#000000;stroke-linecap:butt;stroke-width:0.5;" x="376.689790443" xlink:href="#me68bbed528" y="16.276875"/>
      </g>
     </g>
    </g>
    <g id="xtick_14">
     <g id="line2d_18">
      <defs>
       <path d="
M0 0
L0 -2" id="me68bbed528"/>
      </defs>
      <g>
       <use style="stroke:#000000;stroke-linecap:butt;stroke-width:0.5;" x="403.374703691" xlink:href="#me68bbed528" y="16.276875"/>
      </g>
     </g>
    </g>
    <g id="xtick_15">
     <g id="line2d_19">
      <defs>
       <path d="
M0 0
L0 -2" id="me68bbed528"/>
      </defs>
      <g>
       <use style="stroke:#000000;stroke-linecap:butt;stroke-width:0.5;" x="430.059616939" xlink:href="#me68bbed528" y="16.276875"/>
      </g>
     </g>
    </g>
    <g id="xtick_16">
     <g id="line2d_20">
      <defs>
       <path d="
M0 0
L0 -2" id="me68bbed528"/>
      </defs>
      <g>
       <use style="stroke:#000000;stroke-linecap:butt;stroke-width:0.5;" x="483.429443435" xlink:href="#me68bbed528" y="16.276875"/>
      </g>
     </g>
    </g>
    <g id="xtick_17">
     <g id="line2d_21">
      <defs>
       <path d="
M0 0
L0 -2" id="me68bbed528"/>
      </defs>
      <g>
       <use style="stroke:#000000;stroke-linecap:butt;stroke-width:0.5;" x="510.114356683" xlink:href="#me68bbed528" y="16.276875"/>
      </g>
     </g>
    </g>
   </g>
   <g id="matplotlib.axis_2">
    <g id="ytick_1">
     <g id="line2d_22">
      <path d="
M65.5062 340.793
L557.486 340.793" style="fill:none;stroke:#000000;stroke-dasharray:1.000000,3.000000;stroke-dashoffset:0.0;stroke-linecap:butt;stroke-width:0.5;"/>
     </g>
     <g id="line2d_23">
      <defs>
       <path d="
M0 0
L4 0" id="m63fc3235de"/>
      </defs>
      <g>
       <use style="stroke:#000000;stroke-linecap:butt;stroke-width:0.5;" x="55.50625" xlink:href="#m63fc3235de" y="340.792645355"/>
      </g>
     </g>
     <g id="text_4">
      <!-- -0.8 -->
      <defs>
       <path d="
M31.7812 34.625
Q24.75 34.625 20.7188 30.8594
Q16.7031 27.0938 16.7031 20.5156
Q16.7031 13.9219 20.7188 10.1562
Q24.75 6.39062 31.7812 6.39062
Q38.8125 6.39062 42.8594 10.1719
Q46.9219 13.9688 46.9219 20.5156
Q46.9219 27.0938 42.8906 30.8594
Q38.875 34.625 31.7812 34.625
M21.9219 38.8125
Q15.5781 40.375 12.0312 44.7188
Q8.5 49.0781 8.5 55.3281
Q8.5 64.0625 14.7188 69.1406
Q20.9531 74.2188 31.7812 74.2188
Q42.6719 74.2188 48.875 69.1406
Q55.0781 64.0625 55.0781 55.3281
Q55.0781 49.0781 51.5312 44.7188
Q48 40.375 41.7031 38.8125
Q48.8281 37.1562 52.7969 32.3125
Q56.7812 27.4844 56.7812 20.5156
Q56.7812 9.90625 50.3125 4.23438
Q43.8438 -1.42188 31.7812 -1.42188
Q19.7344 -1.42188 13.25 4.23438
Q6.78125 9.90625 6.78125 20.5156
Q6.78125 27.4844 10.7812 32.3125
Q14.7969 37.1562 21.9219 38.8125
M18.3125 54.3906
Q18.3125 48.7344 21.8438 45.5625
Q25.3906 42.3906 31.7812 42.3906
Q38.1406 42.3906 41.7188 45.5625
Q45.3125 48.7344 45.3125 54.3906
Q45.3125 60.0625 41.7188 63.2344
Q38.1406 66.4062 31.7812 66.4062
Q25.3906 66.4062 21.8438 63.2344
Q18.3125 60.0625 18.3125 54.3906" id="BitstreamVeraSans-Roman-38"/>
       <path d="
M10.6875 12.4062
L21 12.4062
L21 0
L10.6875 0
z
" id="BitstreamVeraSans-Roman-2e"/>
       <path d="
M4.89062 31.3906
L31.2031 31.3906
L31.2031 23.3906
L4.89062 23.3906
z
" id="BitstreamVeraSans-Roman-2d"/>
      </defs>
      <g transform="translate(7.49625 349.528270355)scale(0.24 -0.24)">
       <use xlink:href="#BitstreamVeraSans-Roman-2d"/>
       <use x="36.083984375" xlink:href="#BitstreamVeraSans-Roman-30"/>
       <use x="99.70703125" xlink:href="#BitstreamVeraSans-Roman-2e"/>
       <use x="131.494140625" xlink:href="#BitstreamVeraSans-Roman-38"/>
      </g>
     </g>
    </g>
    <g id="ytick_2">
     <g id="line2d_24">
      <path d="
M65.5062 259.664
L557.486 259.664" style="fill:none;stroke:#000000;stroke-dasharray:1.000000,3.000000;stroke-dashoffset:0.0;stroke-linecap:butt;stroke-width:0.5;"/>
     </g>
     <g id="line2d_25">
      <defs>
       <path d="
M0 0
L4 0" id="m63fc3235de"/>
      </defs>
      <g>
       <use style="stroke:#000000;stroke-linecap:butt;stroke-width:0.5;" x="55.50625" xlink:href="#m63fc3235de" y="259.663702766"/>
      </g>
     </g>
     <g id="text_5">
      <!-- -0.6 -->
      <defs>
       <path d="
M33.0156 40.375
Q26.375 40.375 22.4844 35.8281
Q18.6094 31.2969 18.6094 23.3906
Q18.6094 15.5312 22.4844 10.9531
Q26.375 6.39062 33.0156 6.39062
Q39.6562 6.39062 43.5312 10.9531
Q47.4062 15.5312 47.4062 23.3906
Q47.4062 31.2969 43.5312 35.8281
Q39.6562 40.375 33.0156 40.375
M52.5938 71.2969
L52.5938 62.3125
Q48.875 64.0625 45.0938 64.9844
Q41.3125 65.9219 37.5938 65.9219
Q27.8281 65.9219 22.6719 59.3281
Q17.5312 52.7344 16.7969 39.4062
Q19.6719 43.6562 24.0156 45.9219
Q28.375 48.1875 33.5938 48.1875
Q44.5781 48.1875 50.9531 41.5156
Q57.3281 34.8594 57.3281 23.3906
Q57.3281 12.1562 50.6875 5.35938
Q44.0469 -1.42188 33.0156 -1.42188
Q20.3594 -1.42188 13.6719 8.26562
Q6.98438 17.9688 6.98438 36.375
Q6.98438 53.6562 15.1875 63.9375
Q23.3906 74.2188 37.2031 74.2188
Q40.9219 74.2188 44.7031 73.4844
Q48.4844 72.75 52.5938 71.2969" id="BitstreamVeraSans-Roman-36"/>
      </defs>
      <g transform="translate(7.365 268.399327766)scale(0.24 -0.24)">
       <use xlink:href="#BitstreamVeraSans-Roman-2d"/>
       <use x="36.083984375" xlink:href="#BitstreamVeraSans-Roman-30"/>
       <use x="99.70703125" xlink:href="#BitstreamVeraSans-Roman-2e"/>
       <use x="131.494140625" xlink:href="#BitstreamVeraSans-Roman-36"/>
      </g>
     </g>
    </g>
    <g id="ytick_3">
     <g id="line2d_26">
      <path d="
M65.5062 178.535
L557.486 178.535" style="fill:none;stroke:#000000;stroke-dasharray:1.000000,3.000000;stroke-dashoffset:0.0;stroke-linecap:butt;stroke-width:0.5;"/>
     </g>
     <g id="line2d_27">
      <defs>
       <path d="
M0 0
L4 0" id="m63fc3235de"/>
      </defs>
      <g>
       <use style="stroke:#000000;stroke-linecap:butt;stroke-width:0.5;" x="55.50625" xlink:href="#m63fc3235de" y="178.534760177"/>
      </g>
     </g>
     <g id="text_6">
      <!-- -0.4 -->
      <defs>
       <path d="
M37.7969 64.3125
L12.8906 25.3906
L37.7969 25.3906
z

M35.2031 72.9062
L47.6094 72.9062
L47.6094 25.3906
L58.0156 25.3906
L58.0156 17.1875
L47.6094 17.1875
L47.6094 0
L37.7969 0
L37.7969 17.1875
L4.89062 17.1875
L4.89062 26.7031
z
" id="BitstreamVeraSans-Roman-34"/>
      </defs>
      <g transform="translate(7.2 187.270385177)scale(0.24 -0.24)">
       <use xlink:href="#BitstreamVeraSans-Roman-2d"/>
       <use x="36.083984375" xlink:href="#BitstreamVeraSans-Roman-30"/>
       <use x="99.70703125" xlink:href="#BitstreamVeraSans-Roman-2e"/>
       <use x="131.494140625" xlink:href="#BitstreamVeraSans-Roman-34"/>
      </g>
     </g>
    </g>
    <g id="ytick_4">
     <g id="line2d_28">
      <path d="
M65.5062 97.4058
L557.486 97.4058" style="fill:none;stroke:#000000;stroke-dasharray:1.000000,3.000000;stroke-dashoffset:0.0;stroke-linecap:butt;stroke-width:0.5;"/>
     </g>
     <g id="line2d_29">
      <defs>
       <path d="
M0 0
L4 0" id="m63fc3235de"/>
      </defs>
      <g>
       <use style="stroke:#000000;stroke-linecap:butt;stroke-width:0.5;" x="55.50625" xlink:href="#m63fc3235de" y="97.4058175887"/>
      </g>
     </g>
     <g id="text_7">
      <!-- -0.2 -->
      <defs>
       <path d="
M19.1875 8.29688
L53.6094 8.29688
L53.6094 0
L7.32812 0
L7.32812 8.29688
Q12.9375 14.1094 22.625 23.8906
Q32.3281 33.6875 34.8125 36.5312
Q39.5469 41.8438 41.4219 45.5312
Q43.3125 49.2188 43.3125 52.7812
Q43.3125 58.5938 39.2344 62.25
Q35.1562 65.9219 28.6094 65.9219
Q23.9688 65.9219 18.8125 64.3125
Q13.6719 62.7031 7.8125 59.4219
L7.8125 69.3906
Q13.7656 71.7812 18.9375 73
Q24.125 74.2188 28.4219 74.2188
Q39.75 74.2188 46.4844 68.5469
Q53.2188 62.8906 53.2188 53.4219
Q53.2188 48.9219 51.5312 44.8906
Q49.8594 40.875 45.4062 35.4062
Q44.1875 33.9844 37.6406 27.2188
Q31.1094 20.4531 19.1875 8.29688" id="BitstreamVeraSans-Roman-32"/>
      </defs>
      <g transform="translate(8.2575 106.141442589)scale(0.24 -0.24)">
       <use xlink:href="#BitstreamVeraSans-Roman-2d"/>
       <use x="36.083984375" xlink:href="#BitstreamVeraSans-Roman-30"/>
       <use x="99.70703125" xlink:href="#BitstreamVeraSans-Roman-2e"/>
       <use x="131.494140625" xlink:href="#BitstreamVeraSans-Roman-32"/>
      </g>
     </g>
    </g>
    <g id="ytick_5">
     <g id="line2d_30">
      <path d="
M65.5062 16.2769
L557.486 16.2769" style="fill:none;stroke:#000000;stroke-dasharray:1.000000,3.000000;stroke-dashoffset:0.0;stroke-linecap:butt;stroke-width:0.5;"/>
     </g>
     <g id="line2d_31">
      <defs>
       <path d="
M0 0
L4 0" id="m63fc3235de"/>
      </defs>
      <g>
       <use style="stroke:#000000;stroke-linecap:butt;stroke-width:0.5;" x="55.50625" xlink:href="#m63fc3235de" y="16.276875"/>
      </g>
     </g>
     <g id="text_8">
      <!-- 0 -->
      <g transform="translate(39.4125 25.0125)scale(0.24 -0.24)">
       <use xlink:href="#BitstreamVeraSans-Roman-30"/>
      </g>
     </g>
    </g>
    <g id="ytick_6">
     <g id="line2d_32">
      <defs>
       <path d="
M0 0
L2 0" id="m8807d2e455"/>
      </defs>
      <g>
       <use style="stroke:#000000;stroke-linecap:butt;stroke-width:0.5;" x="55.50625" xlink:href="#m8807d2e455" y="401.639352296"/>
      </g>
     </g>
    </g>
    <g id="ytick_7">
     <g id="line2d_33">
      <defs>
       <path d="
M0 0
L2 0" id="m8807d2e455"/>
      </defs>
      <g>
       <use style="stroke:#000000;stroke-linecap:butt;stroke-width:0.5;" x="55.50625" xlink:href="#m8807d2e455" y="381.357116649"/>
      </g>
     </g>
    </g>
    <g id="ytick_8">
     <g id="line2d_34">
      <defs>
       <path d="
M0 0
L2 0" id="m8807d2e455"/>
      </defs>
      <g>
       <use style="stroke:#000000;stroke-linecap:butt;stroke-width:0.5;" x="55.50625" xlink:href="#m8807d2e455" y="361.074881002"/>
      </g>
     </g>
    </g>
    <g id="ytick_9">
     <g id="line2d_35">
      <defs>
       <path d="
M0 0
L2 0" id="m8807d2e455"/>
      </defs>
      <g>
       <use style="stroke:#000000;stroke-linecap:butt;stroke-width:0.5;" x="55.50625" xlink:href="#m8807d2e455" y="320.510409708"/>
      </g>
     </g>
    </g>
    <g id="ytick_10">
     <g id="line2d_36">
      <defs>
       <path d="
M0 0
L2 0" id="m8807d2e455"/>
      </defs>
      <g>
       <use style="stroke:#000000;stroke-linecap:butt;stroke-width:0.5;" x="55.50625" xlink:href="#m8807d2e455" y="300.22817406"/>
      </g>
     </g>
    </g>
    <g id="ytick_11">
     <g id="line2d_37">
      <defs>
       <path d="
M0 0
L2 0" id="m8807d2e455"/>
      </defs>
      <g>
       <use style="stroke:#000000;stroke-linecap:butt;stroke-width:0.5;" x="55.50625" xlink:href="#m8807d2e455" y="279.945938413"/>
      </g>
     </g>
    </g>
    <g id="ytick_12">
     <g id="line2d_38">
      <defs>
       <path d="
M0 0
L2 0" id="m8807d2e455"/>
      </defs>
      <g>
       <use style="stroke:#000000;stroke-linecap:butt;stroke-width:0.5;" x="55.50625" xlink:href="#m8807d2e455" y="239.381467119"/>
      </g>
     </g>
    </g>
    <g id="ytick_13">
     <g id="line2d_39">
      <defs>
       <path d="
M0 0
L2 0" id="m8807d2e455"/>
      </defs>
      <g>
       <use style="stroke:#000000;stroke-linecap:butt;stroke-width:0.5;" x="55.50625" xlink:href="#m8807d2e455" y="219.099231472"/>
      </g>
     </g>
    </g>
    <g id="ytick_14">
     <g id="line2d_40">
      <defs>
       <path d="
M0 0
L2 0" id="m8807d2e455"/>
      </defs>
      <g>
       <use style="stroke:#000000;stroke-linecap:butt;stroke-width:0.5;" x="55.50625" xlink:href="#m8807d2e455" y="198.816995825"/>
      </g>
     </g>
    </g>
    <g id="ytick_15">
     <g id="line2d_41">
      <defs>
       <path d="
M0 0
L2 0" id="m8807d2e455"/>
      </defs>
      <g>
       <use style="stroke:#000000;stroke-linecap:butt;stroke-width:0.5;" x="55.50625" xlink:href="#m8807d2e455" y="158.25252453"/>
      </g>
     </g>
    </g>
    <g id="ytick_16">
     <g id="line2d_42">
      <defs>
       <path d="
M0 0
L2 0" id="m8807d2e455"/>
      </defs>
      <g>
       <use style="stroke:#000000;stroke-linecap:butt;stroke-width:0.5;" x="55.50625" xlink:href="#m8807d2e455" y="137.970288883"/>
      </g>
     </g>
    </g>
    <g id="ytick_17">
     <g id="line2d_43">
      <defs>
       <path d="
M0 0
L2 0" id="m8807d2e455"/>
      </defs>
      <g>
       <use style="stroke:#000000;stroke-linecap:butt;stroke-width:0.5;" x="55.50625" xlink:href="#m8807d2e455" y="117.688053236"/>
      </g>
     </g>
    </g>
    <g id="ytick_18">
     <g id="line2d_44">
      <defs>
       <path d="
M0 0
L2 0" id="m8807d2e455"/>
      </defs>
      <g>
       <use style="stroke:#000000;stroke-linecap:butt;stroke-width:0.5;" x="55.50625" xlink:href="#m8807d2e455" y="77.1235819415"/>
      </g>
     </g>
    </g>
    <g id="ytick_19">
     <g id="line2d_45">
      <defs>
       <path d="
M0 0
L2 0" id="m8807d2e455"/>
      </defs>
      <g>
       <use style="stroke:#000000;stroke-linecap:butt;stroke-width:0.5;" x="55.50625" xlink:href="#m8807d2e455" y="56.8413462943"/>
      </g>
     </g>
    </g>
    <g id="ytick_20">
     <g id="line2d_46">
      <defs>
       <path d="
M0 0
L2 0" id="m8807d2e455"/>
      </defs>
      <g>
       <use style="stroke:#000000;stroke-linecap:butt;stroke-width:0.5;" x="55.50625" xlink:href="#m8807d2e455" y="36.5591106472"/>
      </g>
     </g>
    </g>
   </g>
   <g id="patch_3">
    <path d="
M65.5062 16.2769
L557.486 16.2769" style="fill:none;stroke:#000000;stroke-width:0.8;"/>
   </g>
   <g id="patch_4">
    <path d="
M55.5062 412.239
L55.5062 8.51291" style="fill:none;stroke:#000000;stroke-width:0.8;"/>
   </g>
  </g>
 </g>
 <defs>
  <clipPath id="pf45e15e1c9">
   <rect height="403.726153846" width="491.98" x="65.50625" y="8.51291050296"/>
  </clipPath>
 </defs>
</svg>
