<?xml version="1.0" encoding="utf-8" standalone="no"?>
<!DOCTYPE svg PUBLIC "-//W3C//DTD SVG 1.1//EN"
  "http://www.w3.org/Graphics/SVG/1.1/DTD/svg11.dtd">
<!-- Created with matplotlib (http://matplotlib.sourceforge.net/) -->
<svg height="419pt" version="1.1" viewBox="0 0 564 419" width="564pt" xmlns="http://www.w3.org/2000/svg" xmlns:xlink="http://www.w3.org/1999/xlink">
 <defs>
  <style type="text/css">
*{stroke-linecap:square;stroke-linejoin:round;}
  </style>
 </defs>
 <g id="figure_1">
  <g id="patch_1">
   <path d="
M4.44089e-16 419.439
L564.626 419.439
L564.626 0
L4.44089e-16 0
z
" style="fill:#ffffff;"/>
  </g>
  <g id="axes_1">
   <g id="patch_2">
    <path d="
M42.6088 412.239
L557.426 412.239
L557.426 8.51291
L42.6088 8.51291
z
" style="fill:#ffffff;"/>
   </g>
   <g id="line2d_1">
    <path clip-path="url(#p51b3ba9df9)" d="
M52.5091 16.2769
L63.8311 16.2769
L63.8311 32.0734
L78.0952 32.0734
L78.0952 59.7367
L87.4908 59.7367
L87.4908 80.6973
L100.112 80.6973
L100.112 110.061
L104.777 110.061
L104.777 121.527
L112.267 121.527
L112.267 141.465
L115.373 141.465
L115.373 150.289
L120.708 150.289
L120.708 166.499
L127.181 166.499
L127.181 185.97
L129.043 185.97
L129.043 191.746
L133.984 191.746
L133.984 207.687
L136.85 207.687
L136.85 217.037
L138.18 217.037
L138.18 221.637
L140.664 221.637
L140.664 230.701
L144.019 230.701
L144.019 243.11
L147.013 243.11
L147.013 254.177
L147.944 254.177
L147.944 257.729
L150.564 257.729
L150.564 268.051
L152.183 268.051
L152.183 274.537
L152.959 274.537
L152.959 277.775
L155.165 277.775
L155.165 287.236
L156.544 287.236
L156.544 292.418
L158.493 292.418
L158.493 299.924
L160.896 299.924
L160.896 307.895
L162.025 307.895
L162.025 311.121
L162.572 311.121
L162.572 312.497
L163.636 312.497
L163.636 314.817
L164.153 314.817
L164.153 315.779
L165.16 315.779
L165.16 317.341
L168.421 317.341
L168.421 322.77
L169.287 322.77
L169.287 323.892
L170.538 323.892
L170.538 325.727
L170.942 325.727
L170.942 326.393
L172.882 326.393
L172.882 329.009
L173.255 329.009
L173.255 329.405
L174.343 329.405
L174.343 330.286
L175.39 330.286
L175.39 330.863
L176.067 330.863
L176.067 331.356
L177.052 331.356
L177.052 332.242
L178.004 332.242
L178.004 333.248
L178.315 333.248
L178.315 333.504
L179.816 333.504
L179.816 334.388
L180.107 334.388
L180.107 334.606
L180.68 334.606
L180.68 335.134
L180.962 335.134
L180.962 335.443
L182.597 335.443
L182.597 337.459
L184.142 337.459
L184.142 339.513
L184.638 339.513
L184.638 340.056
L184.883 340.056
L184.883 340.363
L185.367 340.363
L185.367 341.045
L186.077 341.045
L186.077 341.897
L186.309 341.897
L186.309 342.211
L187.445 342.211
L187.445 343.892
L188.104 343.892
L188.104 344.723
L188.749 344.723
L188.749 345.619
L189.378 345.619
L189.378 346.367
L189.585 346.367
L189.585 346.643
L190.197 346.643
L190.197 347.343
L190.597 347.343
L190.597 347.855
L190.795 347.855
L190.795 348.073
L191.765 348.073
L191.765 349.268
L193.068 349.268
L193.068 350.592
L193.43 350.592
L193.43 351
L193.609 351
L193.609 351.226
L193.963 351.226
L193.963 351.724
L195.17 351.724
L195.17 353.544
L195.672 353.544
L195.672 354.349
L196.488 354.349
L196.488 355.506
L196.649 355.506
L196.649 355.706
L196.967 355.706
L196.967 356.144
L197.438 356.144
L197.438 356.848
L198.053 356.848
L198.053 357.835
L198.506 357.835
L198.506 358.483
L198.951 358.483
L198.951 359.047
L199.245 359.047
L199.245 359.371
L199.679 359.371
L199.679 359.903
L200.247 359.903
L200.247 360.662
L200.527 360.662
L200.527 360.991
L201.079 360.991
L201.079 361.702
L201.753 361.702
L201.753 362.637
L201.886 362.637
L201.886 362.836
L202.542 362.836
L202.542 363.715
L202.671 363.715
L202.671 363.902
L203.055 363.902
L203.055 364.404
L203.308 364.404
L203.308 364.697
L203.684 364.697
L203.684 365.174
L204.177 365.174
L204.177 365.726
L204.421 365.726
L204.421 366.024
L204.541 366.024
L204.541 366.187
L204.782 366.187
L204.782 366.476
L205.49 366.476
L205.49 367.401
L205.953 367.401
L205.953 368.047
L206.181 368.047
L206.181 368.389
L206.632 368.389
L206.632 369.001
L206.855 369.001
L206.855 369.272
L207.186 369.272
L207.186 369.71
L207.837 369.71
L207.944 370.586
L208.889 370.586
L208.889 371.432
L209.197 371.432
L209.197 371.664
L209.703 371.664
L209.703 371.978
L210.002 371.978
L210.002 372.124
L210.298 372.124
L210.396 372.346
L210.688 372.346
L210.688 372.515
L211.168 372.515
L211.168 372.839
L211.452 372.839
L211.452 373.058
L211.733 373.058
L211.826 373.289
L212.103 373.289
L212.103 373.465
L212.378 373.465
L212.378 373.606
L212.65 373.678
L212.65 373.724
L213.186 373.724
L213.186 374.044
L213.625 374.044
L213.712 374.3
L213.885 374.3
L213.885 374.416
L214.143 374.416
L214.143 374.613
L214.398 374.613
L214.483 374.825
L214.985 374.825
L214.985 375.038
L215.397 375.089
L215.397 375.189
L215.722 375.189
L215.722 375.351
L216.124 375.351
L216.124 375.505
L216.832 375.59
L216.832 375.731
L217.141 375.731
L217.141 375.87
L217.37 375.87
L217.37 375.994
L217.598 375.994
L217.598 376.137
L218.047 376.216
L218.047 376.34
L218.27 376.34
L218.27 376.453
L218.709 376.541
L218.709 376.741
L218.854 376.741
L218.854 376.853
L219.355 376.853
L219.355 377.186
L219.708 377.186
L219.708 377.448
L220.125 377.448
L220.194 377.761
L220.536 377.761
L220.604 378.019
L220.807 378.126
L220.807 378.173
L221.142 378.173
L221.142 378.433
L221.604 378.433
L221.604 378.742
L221.799 378.816
L221.799 378.858
L222.378 378.954
L222.378 379.241
L222.569 379.332
L222.569 379.383
L222.695 379.383
L222.695 379.495
L223.318 379.495
L223.318 379.983
L223.685 380.089
L223.685 380.318
L223.987 380.318
L223.987 380.624
L224.226 380.624
L224.226 380.885
L224.345 380.885
L224.345 381.003
L224.523 381.003
L224.523 381.163
L224.699 381.163
L224.699 381.335
L225.106 381.335
L225.106 381.693
L225.394 381.802
L225.394 381.98
L225.565 381.98
L225.565 382.14
L225.791 382.14
L225.791 382.331
L225.96 382.331
L225.96 382.486
L226.294 382.486
L226.404 382.86
L226.569 382.86
L226.624 383.07
L226.896 383.07
L226.95 383.389
L227.112 383.389
L227.112 383.543
L227.379 383.543
L227.432 383.866
L227.697 383.866
L227.749 384.191
L227.907 384.191
L227.907 384.347
L228.373 384.347
L228.475 384.943
L228.629 384.988
L228.629 385.07
L228.932 385.178
L228.932 385.273
L229.283 385.381
L229.283 385.449
L229.97 385.503
L230.019 385.661
L230.971 385.765
L230.971 385.777
L231.527 385.869
L231.527 385.897
L231.801 385.948
L231.847 386.026
L232.252 386.086
L232.252 386.182
L232.871 386.243
L232.915 386.328
L233.775 386.41
L233.817 386.483
L234.65 386.531
L234.65 386.839
L235.057 386.915
L235.057 386.971
L235.419 386.971
L235.419 387.117
L235.894 387.182
L235.972 387.274
L236.361 387.357
L236.438 387.431
L236.82 387.49
L236.82 387.556
L237.16 387.659
L237.235 387.71
L237.569 387.772
L237.569 387.877
L237.937 387.964
L237.937 388.032
L238.155 388.032
L238.263 388.209
L238.443 388.255
L238.443 388.332
L238.657 388.443
L238.657 388.503
L238.799 388.503
L238.869 388.69
L239.115 388.69
L239.185 388.976
L239.324 389.082
L239.394 389.185
L239.532 389.283
L239.635 389.409
L239.806 389.409
L239.806 389.556
L240.145 389.556
L240.246 389.951
L240.745 390.04
L240.844 390.408
L241.008 390.408
L241.008 390.519
L241.203 390.519
L241.236 390.655
L241.526 390.731
L241.622 390.814
L242.097 390.859
L242.192 390.961
L242.627 391.028
L242.627 391.074
L243.176 391.176
L243.176 391.261
L243.477 391.347
L243.567 391.414
L243.804 391.463
L243.804 391.539
L244.069 391.64
L244.157 391.755
L244.418 391.755
L244.447 391.936
L244.677 391.936
L244.706 392.126
L245.019 392.126
L245.104 392.454
L245.301 392.548
L245.385 392.689
L245.552 392.734
L245.635 392.885
L245.801 392.988
L245.801 393.01
L246.129 393.111
L246.129 393.262
L246.265 393.262
L246.346 393.45
L246.507 393.45
L246.614 393.685
L246.748 393.685
L246.748 393.827
L246.907 393.827
L246.933 394.031
L247.144 394.031
L247.249 394.387
L247.457 394.476
L247.561 394.708
L247.792 394.708
L247.792 394.916
L248.098 394.916
L248.149 395.213
L248.325 395.283
L248.325 395.371
L248.526 395.371
L248.601 395.617
L248.898 395.69
L248.972 395.872
L249.216 395.981
L249.265 396.066
L249.699 396.169
L249.795 396.415
L249.985 396.494
L249.985 396.539
L250.221 396.634
L250.291 396.701
L250.756 396.809
L250.756 396.821
L251.326 396.926
L251.371 396.958
L251.863 397.063
L251.974 397.195
L252.498 397.281
L252.498 397.311
L256.897 397.414
L256.934 397.433
L257.717 397.521
L257.825 397.565
L258.356 397.656
L258.444 397.705
L258.964 397.774
L259.033 397.839
L259.441 397.948
L259.542 397.997
L260.125 398.089
L260.142 398.128
L260.615 398.213
L260.712 398.262
L261.476 398.357
L261.586 398.398
L262.509 398.509
L262.584 398.558
L263.475 398.661
L263.563 398.701
L264.522 398.809
L264.522 398.841
L266.308 398.951
L266.401 398.981
L267.025 399.091
L267.09 399.107
L269.203 398.998
L269.275 398.977
L272.469 398.876
L272.512 398.855
L273.294 398.748
L273.386 398.713
L274.648 398.819
L274.727 398.844
L275.507 398.955
L275.592 398.974
L276.21 399.08
L276.321 399.112
L277.381 399.222
L277.487 399.254
L277.969 399.341
L277.996 399.382
L278.401 399.457
L278.435 399.517
L278.817 399.622
L278.893 399.662
L279.195 399.767
L279.294 399.813
L279.665 399.911
L279.739 399.952
L280.456 400.063
L280.551 400.076
L284.39 399.966
L284.494 399.93
L285.012 399.826
L285.113 399.771
L285.534 399.679
L285.627 399.626
L285.93 399.516
L286.041 399.482
L286.377 399.374
L286.474 399.327
L287.064 399.216
L287.158 399.208
L288.424 399.319
L288.526 399.339
L289.203 399.448
L289.29 399.478
L291.604 399.367
L291.705 399.348
L292.703 399.239
L292.769 399.224
L298.443 399.335
L298.548 399.348
L299.067 399.454
L299.177 399.498
L299.662 399.608
L299.757 399.648
L300.145 399.759
L300.232 399.785
L300.89 399.893
L300.982 399.919
L301.451 400.029
L301.548 400.064
L301.886 400.17
L301.982 400.222
L302.366 400.332
L302.475 400.352
L303.522 400.46
L303.622 400.489
L303.926 400.596
L304.015 400.643
L304.312 400.751
L304.413 400.797
L304.728 400.907
L304.805 400.944
L305.122 401.05
L305.224 401.105
L305.456 401.211
L305.547 401.276
L305.769 401.385
L305.875 401.473
L306.029 401.567
L306.124 401.666
L306.295 401.763
L306.38 401.852
L306.568 401.959
L306.658 402.044
L306.817 402.124
L306.903 402.222
L307.06 402.329
L307.167 402.415
L307.335 402.522
L307.444 402.596
L307.649 402.705
L307.76 402.772
L307.957 402.883
L308.055 402.943
L308.264 403.038
L308.37 403.104
L308.652 403.213
L308.748 403.253
L309.218 403.356
L309.328 403.399
L310.057 403.509
L310.167 403.526
L310.606 403.635
L310.714 403.681
L311.003 403.787
L311.099 403.824
L311.672 403.927
L311.752 403.947
L312.495 404.056
L312.6 404.067
L314.028 404.178
L314.135 404.2
L314.813 404.311
L314.917 404.321
L316.988 404.214
L316.988 404.195
L318.323 404.304
L318.323 404.32
L318.942 404.426
L319.044 404.456
L320.792 404.355
L320.899 404.297
L321.412 404.188
L321.514 404.131
L322.042 404.033
L322.129 404.001
L324.51 404.112
L324.613 404.148
L326.758 404.044
L326.758 404.034
L327.787 403.933
L327.889 403.91
L329.747 403.799
L329.849 403.746
L330.364 403.642
L330.461 403.602
L336.531 403.504
L336.638 403.443
L337.049 403.354
L337.16 403.288
L337.461 403.215
L337.56 403.135
L337.876 403.049
L337.972 402.976
L338.39 402.885
L338.486 402.847
L339.316 402.742
L339.413 402.688
L339.823 402.59
L339.927 402.516
L340.236 402.429
L340.339 402.337
L340.651 402.252
L340.752 402.156
L341.059 402.058
L341.16 401.961
L341.475 401.87
L341.572 401.789
L341.989 401.684
L342.087 401.61
L342.397 401.525
L342.498 401.462
L343.013 401.352
L343.013 401.321
L343.425 401.237
L343.529 401.175
L343.837 401.099
L343.837 401.057
L344.146 400.963
L344.254 400.86
L344.556 400.757
L344.66 400.655
L344.868 400.595
L344.976 400.486
L345.174 400.436
L345.279 400.315
L345.585 400.213
L345.585 400.156
L345.795 400.088
L345.895 399.984
L346.105 399.931
L346.205 399.807
L346.412 399.744
L346.513 399.595
L346.717 399.517
L346.82 399.359
L347.027 399.277
L347.127 399.121
L347.335 399.04
L347.436 398.906
L347.644 398.842
L347.747 398.714
L347.95 398.652
L347.95 398.598
L348.262 398.488
L348.361 398.386
L348.67 398.289
L348.777 398.211
L349.084 398.132
L349.186 398.056
L349.6 397.965
L349.706 397.889
L350.01 397.81
L350.11 397.729
L350.422 397.642
L350.526 397.569
L351.039 397.464
L351.142 397.393
L351.558 397.286
L351.653 397.224
L352.073 397.13
L352.168 397.08
L352.682 396.971
L352.79 396.881
L353.101 396.794
L353.202 396.725
L353.918 396.617
L354.024 396.592
L354.637 396.491
L354.742 396.433
L355.152 396.33
L355.255 396.268
L355.771 396.169
L355.873 396.11
L356.286 396.02
L356.391 395.946
L356.801 395.85
L356.903 395.784
L357.313 395.705
L357.414 395.641
L357.725 395.563
L357.827 395.476
L358.137 395.399
L358.241 395.331
L358.65 395.233
L358.752 395.181
L359.369 395.087
L359.472 395.04
L359.883 394.962
L359.988 394.885
L360.297 394.793
L360.399 394.694
L360.709 394.593
L360.809 394.484
L361.016 394.427
L361.118 394.326
L361.427 394.239
L361.534 394.141
L361.842 394.044
L361.941 393.93
L362.146 393.875
L362.253 393.761
L362.561 393.661
L362.663 393.548
L362.97 393.445
L363.072 393.341
L363.484 393.232
L363.588 393.169
L363.998 393.08
L364.102 393.032
L364.617 392.939
L364.718 392.894
L367.499 392.999
L367.599 393.022
L370.582 392.913
L370.687 392.898
L371.818 392.798
L371.92 392.762
L372.434 392.67
L372.537 392.623
L374.903 392.718
L375.006 392.786
L375.314 392.864
L375.418 392.952
L375.83 393.04
L375.932 393.098
L376.447 393.196
L376.55 393.247
L377.373 393.345
L377.475 393.388
L377.992 393.49
L378.093 393.518
L380.152 393.408
L380.252 393.381
L381.178 393.489
L381.281 393.504
L382.724 393.604
L382.825 393.633
L383.956 393.743
L384.06 393.751
L385.19 393.852
L385.296 393.879
L386.015 393.978
L386.117 394.018
L386.939 394.126
L387.042 394.132
L388.382 394.241
L388.483 394.266
L389.82 394.374
L389.925 394.39
L391.981 394.492
L392.083 394.524
L393.009 394.628
L393.112 394.645
L395.067 394.754
L395.169 394.804
L395.684 394.907
L395.787 394.962
L396.301 395.06
L396.403 395.119
L396.918 395.215
L397.023 395.259
L397.536 395.354
L397.638 395.395
L398.256 395.5
L398.358 395.544
L399.182 395.653
L399.285 395.699
L401.65 395.59
L401.753 395.581
L402.782 395.476
L402.885 395.456
L405.868 395.56
L405.971 395.592
L407.617 395.697
L407.72 395.728
L408.234 395.821
L408.337 395.867
L408.852 395.968
L408.954 395.995
L410.087 396.089
L410.189 396.129
L410.91 396.238
L411.012 396.269
L411.63 396.365
L411.732 396.416
L412.452 396.513
L412.555 396.563
L412.966 396.651
L413.071 396.724
L413.481 396.821
L413.584 396.904
L413.995 397.002
L414.098 397.058
L414.612 397.15
L414.716 397.188
L415.744 397.292
L415.847 397.307
L418.727 397.198
L418.83 397.18
L420.785 397.291
L420.888 397.332
L421.402 397.419
L421.505 397.47
L421.917 397.563
L422.02 397.613
L422.739 397.72
L422.843 397.734
L423.975 397.629
L424.077 397.583
L424.694 397.481
L424.798 397.428
L425.209 397.331
L425.311 397.262
L425.723 397.17
L425.826 397.11
L426.237 397.019
L426.34 396.961
L426.752 396.873
L426.854 396.799
L427.266 396.697
L427.37 396.642
L427.986 396.543
L428.089 396.516
L428.5 396.434
L428.603 396.379
L429.015 396.276
L429.119 396.194
L429.427 396.111
L429.529 396.03
L429.941 395.927
L430.044 395.868
L430.558 395.765
L430.661 395.706
L431.175 395.603
L431.278 395.552
L431.792 395.442
L431.896 395.397
L432.512 395.311
L432.615 395.256
L433.13 395.149
L433.233 395.086
L433.644 394.981
L433.747 394.896
L434.055 394.809
L434.159 394.722
L434.467 394.638
L434.57 394.549
L434.879 394.455
L434.982 394.358
L435.29 394.273
L435.393 394.2
L435.805 394.114
L435.907 394.059
L436.525 393.95
L436.627 393.915
L438.376 393.809
L438.479 393.781
L440.639 393.673
L440.742 393.632
L442.08 393.521
L442.183 393.511
L444.343 393.614
L444.446 393.638
L445.475 393.745
L445.577 393.756
L446.606 393.852
L446.709 393.909
L447.018 393.995
L447.121 394.083
L447.429 394.178
L447.532 394.275
L447.841 394.369
L447.943 394.459
L448.252 394.535
L448.355 394.608
L448.87 394.7
L448.973 394.754
L449.384 394.851
L449.487 394.919
L449.795 394.992
L449.898 395.078
L450.207 395.174
L450.31 395.261
L450.618 395.342
L450.721 395.424
L451.03 395.521
L451.133 395.616
L451.441 395.697
L451.544 395.785
L451.853 395.867
L451.956 395.944
L452.264 396.019
L452.367 396.098
L452.676 396.2
L452.779 396.301
L452.984 396.359
L453.087 396.467
L453.499 396.575
L453.602 396.615
L454.219 396.719
L454.322 396.769
L455.042 396.869
L455.145 396.908
L457.202 397.016
L457.305 397.038
L460.597 396.937
L460.7 396.906
L461.317 396.807
L461.42 396.764
L462.243 396.657
L462.346 396.644
L463.683 396.749
L463.786 396.77
L464.609 396.873
L464.712 396.912
L465.329 397.012
L465.432 397.064
L465.741 397.14
L465.844 397.215
L466.152 397.292
L466.255 397.356
L466.667 397.433
L466.77 397.507
L467.078 397.591
L467.181 397.69
L467.49 397.785
L467.593 397.89
L467.901 397.993
L468.004 398.094
L468.313 398.202
L468.416 398.311
L468.724 398.418
L468.827 398.527
L469.033 398.582
L469.136 398.699
L469.341 398.758
L469.444 398.876
L469.65 398.941
L469.753 399.069
L469.959 399.129
L470.062 399.245
L470.267 399.304
L470.37 399.42
L470.576 399.481
L470.679 399.606
L470.884 399.667
L470.987 399.778
L471.296 399.884
L471.399 399.975
L471.811 400.086
L471.913 400.17
L472.222 400.247
L472.325 400.327
L472.736 400.437
L472.839 400.498
L473.251 400.595
L473.354 400.662
L473.971 400.769
L474.074 400.806
L474.794 400.913
L474.897 400.942
L476.131 401.045
L476.234 401.074
L476.954 401.182
L477.057 401.232
L477.983 401.332
L478.086 401.359
L479.115 401.47
L479.217 401.485
L481.069 401.591
L481.172 401.615
L482.304 401.724
L482.406 401.742
L484.567 401.637
L484.67 401.597
L485.287 401.494
L485.39 401.455
L486.213 401.349
L486.316 401.321
L489.093 401.217
L489.196 401.195
L491.562 401.086
L491.665 401.067
L492.694 400.959
L492.797 400.944
L494.443 400.836
L494.546 400.81
L497.22 400.714
L497.323 400.675
L497.838 400.584
L497.94 400.525
L498.249 400.448
L498.352 400.367
L498.661 400.273
L498.763 400.184
L499.175 400.08
L499.278 400.022
L499.792 399.925
L499.895 399.876
L500.409 399.765
L500.512 399.722
L501.13 399.63
L501.232 399.59
L501.747 399.499
L501.85 399.459
L502.467 399.369
L502.57 399.322
L503.187 399.221
L503.29 399.174
L503.804 399.071
L503.907 399.021
L504.422 398.93
L504.524 398.881
L504.936 398.789
L505.039 398.722
L505.347 398.648
L505.45 398.56
L505.759 398.473
L505.862 398.382
L506.17 398.291
L506.273 398.187
L506.582 398.096
L506.685 398.008
L507.096 397.906
L507.199 397.844
L507.611 397.734
L507.714 397.658
L508.022 397.57
L508.125 397.488
L508.537 397.392
L508.639 397.34
L509.462 397.229
L509.565 397.196
L510.183 397.097
L510.285 397.038
L510.8 396.943
L510.903 396.903
L511.417 396.81
L511.52 396.77
L512.034 396.67
L512.137 396.624
L512.754 396.528
L512.857 396.49
L513.372 396.389
L513.475 396.332
L514.092 396.223
L514.195 396.189
L514.812 396.081
L514.915 396.043
L515.532 395.943
L515.635 395.909
L516.664 395.802
L516.766 395.761
L520.058 395.66
L520.161 395.635
L521.293 395.53
L521.396 395.51
L524.071 395.4
L524.173 395.379
L524.791 395.286
L524.894 395.236
L525.305 395.143
L525.408 395.067
L525.819 394.969
L525.922 394.895
L526.231 394.82
L526.334 394.746
L526.745 394.639
L526.848 394.559
L527.157 394.481
L527.26 394.398
L527.671 394.302
L527.774 394.246
L528.186 394.153
L528.288 394.094
L528.7 393.998
L528.803 393.919
L529.214 393.823
L529.317 393.773
L529.832 393.672
L529.934 393.638
L530.757 393.539
L530.86 393.492
L531.375 393.388
L531.478 393.324
L531.992 393.22
L532.095 393.169
L532.609 393.075
L532.712 393.034
L533.638 392.935
L533.741 392.902
L534.358 392.795
L534.461 392.753
L534.975 392.665
L535.078 392.622
L535.901 392.512
L536.004 392.482
L536.93 392.372
L536.93 392.366
L537.033 392.369
L538.37 392.48
L538.473 392.501
L541.148 392.611
L541.251 392.633
L542.074 392.737
L542.176 392.765
L542.691 392.853
L542.794 392.898
L544.028 393.008
L544.131 393.054
L544.748 393.154
L544.851 393.195
L547.32 393.306
L547.423 393.312
L547.526 393.312
L547.526 393.319" style="fill:none;stroke:#0000ff;stroke-width:5.0;"/>
   </g>
   <g id="matplotlib.axis_1">
    <g id="xtick_1">
     <g id="line2d_2">
      <path d="
M172.772 412.239
L172.772 8.51291" style="fill:none;stroke:#000000;stroke-dasharray:1.000000,3.000000;stroke-dashoffset:0.0;stroke-linecap:butt;stroke-width:0.5;"/>
     </g>
     <g id="line2d_3">
      <defs>
       <path d="
M0 0
L0 -4" id="m3fbe6c24f1"/>
      </defs>
      <g>
       <use style="stroke:#000000;stroke-linecap:butt;stroke-width:0.5;" x="172.771988442" xlink:href="#m3fbe6c24f1" y="16.276875"/>
      </g>
     </g>
     <g id="text_1">
      <!-- 5 -->
      <defs>
       <path d="
M10.7969 72.9062
L49.5156 72.9062
L49.5156 64.5938
L19.8281 64.5938
L19.8281 46.7344
Q21.9688 47.4688 24.1094 47.8281
Q26.2656 48.1875 28.4219 48.1875
Q40.625 48.1875 47.75 41.5
Q54.8906 34.8125 54.8906 23.3906
Q54.8906 11.625 47.5625 5.09375
Q40.2344 -1.42188 26.9062 -1.42188
Q22.3125 -1.42188 17.5469 -0.640625
Q12.7969 0.140625 7.71875 1.70312
L7.71875 11.625
Q12.1094 9.23438 16.7969 8.0625
Q21.4844 6.89062 26.7031 6.89062
Q35.1562 6.89062 40.0781 11.3281
Q45.0156 15.7656 45.0156 23.3906
Q45.0156 31 40.0781 35.4375
Q35.1562 39.8906 26.7031 39.8906
Q22.75 39.8906 18.8125 39.0156
Q14.8906 38.1406 10.7969 36.2812
z
" id="BitstreamVeraSans-Roman-35"/>
      </defs>
      <g transform="translate(167.111363442 37.774375)scale(0.24 -0.24)">
       <use xlink:href="#BitstreamVeraSans-Roman-35"/>
      </g>
     </g>
    </g>
    <g id="xtick_2">
     <g id="line2d_4">
      <path d="
M312.39 412.239
L312.39 8.51291" style="fill:none;stroke:#000000;stroke-dasharray:1.000000,3.000000;stroke-dashoffset:0.0;stroke-linecap:butt;stroke-width:0.5;"/>
     </g>
     <g id="line2d_5">
      <defs>
       <path d="
M0 0
L0 -4" id="m3fbe6c24f1"/>
      </defs>
      <g>
       <use style="stroke:#000000;stroke-linecap:butt;stroke-width:0.5;" x="312.390065662" xlink:href="#m3fbe6c24f1" y="16.276875"/>
      </g>
     </g>
     <g id="text_2">
      <!-- 10 -->
      <defs>
       <path d="
M31.7812 66.4062
Q24.1719 66.4062 20.3281 58.9062
Q16.5 51.4219 16.5 36.375
Q16.5 21.3906 20.3281 13.8906
Q24.1719 6.39062 31.7812 6.39062
Q39.4531 6.39062 43.2812 13.8906
Q47.125 21.3906 47.125 36.375
Q47.125 51.4219 43.2812 58.9062
Q39.4531 66.4062 31.7812 66.4062
M31.7812 74.2188
Q44.0469 74.2188 50.5156 64.5156
Q56.9844 54.8281 56.9844 36.375
Q56.9844 17.9688 50.5156 8.26562
Q44.0469 -1.42188 31.7812 -1.42188
Q19.5312 -1.42188 13.0625 8.26562
Q6.59375 17.9688 6.59375 36.375
Q6.59375 54.8281 13.0625 64.5156
Q19.5312 74.2188 31.7812 74.2188" id="BitstreamVeraSans-Roman-30"/>
       <path d="
M12.4062 8.29688
L28.5156 8.29688
L28.5156 63.9219
L10.9844 60.4062
L10.9844 69.3906
L28.4219 72.9062
L38.2812 72.9062
L38.2812 8.29688
L54.3906 8.29688
L54.3906 0
L12.4062 0
z
" id="BitstreamVeraSans-Roman-31"/>
      </defs>
      <g transform="translate(299.235065662 38.089375)scale(0.24 -0.24)">
       <use xlink:href="#BitstreamVeraSans-Roman-31"/>
       <use x="63.623046875" xlink:href="#BitstreamVeraSans-Roman-30"/>
      </g>
     </g>
    </g>
    <g id="xtick_3">
     <g id="line2d_6">
      <path d="
M452.008 412.239
L452.008 8.51291" style="fill:none;stroke:#000000;stroke-dasharray:1.000000,3.000000;stroke-dashoffset:0.0;stroke-linecap:butt;stroke-width:0.5;"/>
     </g>
     <g id="line2d_7">
      <defs>
       <path d="
M0 0
L0 -4" id="m3fbe6c24f1"/>
      </defs>
      <g>
       <use style="stroke:#000000;stroke-linecap:butt;stroke-width:0.5;" x="452.008142882" xlink:href="#m3fbe6c24f1" y="16.276875"/>
      </g>
     </g>
     <g id="text_3">
      <!-- 15 -->
      <g transform="translate(439.104392882 37.774375)scale(0.24 -0.24)">
       <use xlink:href="#BitstreamVeraSans-Roman-31"/>
       <use x="63.623046875" xlink:href="#BitstreamVeraSans-Roman-35"/>
      </g>
     </g>
    </g>
    <g id="xtick_4">
     <g id="line2d_8">
      <defs>
       <path d="
M0 0
L0 -2" id="mf0ff38ea95"/>
      </defs>
      <g>
       <use style="stroke:#000000;stroke-linecap:butt;stroke-width:0.5;" x="61.0775266664" xlink:href="#mf0ff38ea95" y="16.276875"/>
      </g>
     </g>
    </g>
    <g id="xtick_5">
     <g id="line2d_9">
      <defs>
       <path d="
M0 0
L0 -2" id="mf0ff38ea95"/>
      </defs>
      <g>
       <use style="stroke:#000000;stroke-linecap:butt;stroke-width:0.5;" x="89.0011421104" xlink:href="#mf0ff38ea95" y="16.276875"/>
      </g>
     </g>
    </g>
    <g id="xtick_6">
     <g id="line2d_10">
      <defs>
       <path d="
M0 0
L0 -2" id="mf0ff38ea95"/>
      </defs>
      <g>
       <use style="stroke:#000000;stroke-linecap:butt;stroke-width:0.5;" x="116.924757554" xlink:href="#mf0ff38ea95" y="16.276875"/>
      </g>
     </g>
    </g>
    <g id="xtick_7">
     <g id="line2d_11">
      <defs>
       <path d="
M0 0
L0 -2" id="mf0ff38ea95"/>
      </defs>
      <g>
       <use style="stroke:#000000;stroke-linecap:butt;stroke-width:0.5;" x="144.848372998" xlink:href="#mf0ff38ea95" y="16.276875"/>
      </g>
     </g>
    </g>
    <g id="xtick_8">
     <g id="line2d_12">
      <defs>
       <path d="
M0 0
L0 -2" id="mf0ff38ea95"/>
      </defs>
      <g>
       <use style="stroke:#000000;stroke-linecap:butt;stroke-width:0.5;" x="200.695603886" xlink:href="#mf0ff38ea95" y="16.276875"/>
      </g>
     </g>
    </g>
    <g id="xtick_9">
     <g id="line2d_13">
      <defs>
       <path d="
M0 0
L0 -2" id="mf0ff38ea95"/>
      </defs>
      <g>
       <use style="stroke:#000000;stroke-linecap:butt;stroke-width:0.5;" x="228.61921933" xlink:href="#mf0ff38ea95" y="16.276875"/>
      </g>
     </g>
    </g>
    <g id="xtick_10">
     <g id="line2d_14">
      <defs>
       <path d="
M0 0
L0 -2" id="mf0ff38ea95"/>
      </defs>
      <g>
       <use style="stroke:#000000;stroke-linecap:butt;stroke-width:0.5;" x="256.542834774" xlink:href="#mf0ff38ea95" y="16.276875"/>
      </g>
     </g>
    </g>
    <g id="xtick_11">
     <g id="line2d_15">
      <defs>
       <path d="
M0 0
L0 -2" id="mf0ff38ea95"/>
      </defs>
      <g>
       <use style="stroke:#000000;stroke-linecap:butt;stroke-width:0.5;" x="284.466450218" xlink:href="#mf0ff38ea95" y="16.276875"/>
      </g>
     </g>
    </g>
    <g id="xtick_12">
     <g id="line2d_16">
      <defs>
       <path d="
M0 0
L0 -2" id="mf0ff38ea95"/>
      </defs>
      <g>
       <use style="stroke:#000000;stroke-linecap:butt;stroke-width:0.5;" x="340.313681106" xlink:href="#mf0ff38ea95" y="16.276875"/>
      </g>
     </g>
    </g>
    <g id="xtick_13">
     <g id="line2d_17">
      <defs>
       <path d="
M0 0
L0 -2" id="mf0ff38ea95"/>
      </defs>
      <g>
       <use style="stroke:#000000;stroke-linecap:butt;stroke-width:0.5;" x="368.23729655" xlink:href="#mf0ff38ea95" y="16.276875"/>
      </g>
     </g>
    </g>
    <g id="xtick_14">
     <g id="line2d_18">
      <defs>
       <path d="
M0 0
L0 -2" id="mf0ff38ea95"/>
      </defs>
      <g>
       <use style="stroke:#000000;stroke-linecap:butt;stroke-width:0.5;" x="396.160911994" xlink:href="#mf0ff38ea95" y="16.276875"/>
      </g>
     </g>
    </g>
    <g id="xtick_15">
     <g id="line2d_19">
      <defs>
       <path d="
M0 0
L0 -2" id="mf0ff38ea95"/>
      </defs>
      <g>
       <use style="stroke:#000000;stroke-linecap:butt;stroke-width:0.5;" x="424.084527438" xlink:href="#mf0ff38ea95" y="16.276875"/>
      </g>
     </g>
    </g>
    <g id="xtick_16">
     <g id="line2d_20">
      <defs>
       <path d="
M0 0
L0 -2" id="mf0ff38ea95"/>
      </defs>
      <g>
       <use style="stroke:#000000;stroke-linecap:butt;stroke-width:0.5;" x="479.931758326" xlink:href="#mf0ff38ea95" y="16.276875"/>
      </g>
     </g>
    </g>
    <g id="xtick_17">
     <g id="line2d_21">
      <defs>
       <path d="
M0 0
L0 -2" id="mf0ff38ea95"/>
      </defs>
      <g>
       <use style="stroke:#000000;stroke-linecap:butt;stroke-width:0.5;" x="507.85537377" xlink:href="#mf0ff38ea95" y="16.276875"/>
      </g>
     </g>
    </g>
   </g>
   <g id="matplotlib.axis_2">
    <g id="ytick_1">
     <g id="line2d_22">
      <path d="
M42.6088 392.372
L557.426 392.372" style="fill:none;stroke:#000000;stroke-dasharray:1.000000,3.000000;stroke-dashoffset:0.0;stroke-linecap:butt;stroke-width:0.5;"/>
     </g>
     <g id="line2d_23">
      <defs>
       <path d="
M0 0
L4 0" id="mc91e532072"/>
      </defs>
      <g>
       <use style="stroke:#000000;stroke-linecap:butt;stroke-width:0.5;" x="32.60875" xlink:href="#mc91e532072" y="392.371883666"/>
      </g>
     </g>
     <g id="text_4">
      <!-- -5 -->
      <defs>
       <path d="
M4.89062 31.3906
L31.2031 31.3906
L31.2031 23.3906
L4.89062 23.3906
z
" id="BitstreamVeraSans-Roman-2d"/>
      </defs>
      <g transform="translate(7.95 400.950008666)scale(0.24 -0.24)">
       <use xlink:href="#BitstreamVeraSans-Roman-2d"/>
       <use x="36.083984375" xlink:href="#BitstreamVeraSans-Roman-35"/>
      </g>
     </g>
    </g>
    <g id="ytick_2">
     <g id="line2d_24">
      <path d="
M42.6088 317.153
L557.426 317.153" style="fill:none;stroke:#000000;stroke-dasharray:1.000000,3.000000;stroke-dashoffset:0.0;stroke-linecap:butt;stroke-width:0.5;"/>
     </g>
     <g id="line2d_25">
      <defs>
       <path d="
M0 0
L4 0" id="mc91e532072"/>
      </defs>
      <g>
       <use style="stroke:#000000;stroke-linecap:butt;stroke-width:0.5;" x="32.60875" xlink:href="#mc91e532072" y="317.152881933"/>
      </g>
     </g>
     <g id="text_5">
      <!-- -4 -->
      <defs>
       <path d="
M37.7969 64.3125
L12.8906 25.3906
L37.7969 25.3906
z

M35.2031 72.9062
L47.6094 72.9062
L47.6094 25.3906
L58.0156 25.3906
L58.0156 17.1875
L47.6094 17.1875
L47.6094 0
L37.7969 0
L37.7969 17.1875
L4.89062 17.1875
L4.89062 26.7031
z
" id="BitstreamVeraSans-Roman-34"/>
      </defs>
      <g transform="translate(7.2 325.901631933)scale(0.24 -0.24)">
       <use xlink:href="#BitstreamVeraSans-Roman-2d"/>
       <use x="36.083984375" xlink:href="#BitstreamVeraSans-Roman-34"/>
      </g>
     </g>
    </g>
    <g id="ytick_3">
     <g id="line2d_26">
      <path d="
M42.6088 241.934
L557.426 241.934" style="fill:none;stroke:#000000;stroke-dasharray:1.000000,3.000000;stroke-dashoffset:0.0;stroke-linecap:butt;stroke-width:0.5;"/>
     </g>
     <g id="line2d_27">
      <defs>
       <path d="
M0 0
L4 0" id="mc91e532072"/>
      </defs>
      <g>
       <use style="stroke:#000000;stroke-linecap:butt;stroke-width:0.5;" x="32.60875" xlink:href="#mc91e532072" y="241.9338802"/>
      </g>
     </g>
     <g id="text_6">
      <!-- -3 -->
      <defs>
       <path d="
M40.5781 39.3125
Q47.6562 37.7969 51.625 33
Q55.6094 28.2188 55.6094 21.1875
Q55.6094 10.4062 48.1875 4.48438
Q40.7656 -1.42188 27.0938 -1.42188
Q22.5156 -1.42188 17.6562 -0.515625
Q12.7969 0.390625 7.625 2.20312
L7.625 11.7188
Q11.7188 9.32812 16.5938 8.10938
Q21.4844 6.89062 26.8125 6.89062
Q36.0781 6.89062 40.9375 10.5469
Q45.7969 14.2031 45.7969 21.1875
Q45.7969 27.6406 41.2812 31.2656
Q36.7656 34.9062 28.7188 34.9062
L20.2188 34.9062
L20.2188 43.0156
L29.1094 43.0156
Q36.375 43.0156 40.2344 45.9219
Q44.0938 48.8281 44.0938 54.2969
Q44.0938 59.9062 40.1094 62.9062
Q36.1406 65.9219 28.7188 65.9219
Q24.6562 65.9219 20.0156 65.0312
Q15.375 64.1562 9.8125 62.3125
L9.8125 71.0938
Q15.4375 72.6562 20.3438 73.4375
Q25.25 74.2188 29.5938 74.2188
Q40.8281 74.2188 47.3594 69.1094
Q53.9062 64.0156 53.9062 55.3281
Q53.9062 49.2656 50.4375 45.0938
Q46.9688 40.9219 40.5781 39.3125" id="BitstreamVeraSans-Roman-33"/>
      </defs>
      <g transform="translate(7.7775 250.6695052)scale(0.24 -0.24)">
       <use xlink:href="#BitstreamVeraSans-Roman-2d"/>
       <use x="36.083984375" xlink:href="#BitstreamVeraSans-Roman-33"/>
      </g>
     </g>
    </g>
    <g id="ytick_4">
     <g id="line2d_28">
      <path d="
M42.6088 166.715
L557.426 166.715" style="fill:none;stroke:#000000;stroke-dasharray:1.000000,3.000000;stroke-dashoffset:0.0;stroke-linecap:butt;stroke-width:0.5;"/>
     </g>
     <g id="line2d_29">
      <defs>
       <path d="
M0 0
L4 0" id="mc91e532072"/>
      </defs>
      <g>
       <use style="stroke:#000000;stroke-linecap:butt;stroke-width:0.5;" x="32.60875" xlink:href="#mc91e532072" y="166.714878467"/>
      </g>
     </g>
     <g id="text_7">
      <!-- -2 -->
      <defs>
       <path d="
M19.1875 8.29688
L53.6094 8.29688
L53.6094 0
L7.32812 0
L7.32812 8.29688
Q12.9375 14.1094 22.625 23.8906
Q32.3281 33.6875 34.8125 36.5312
Q39.5469 41.8438 41.4219 45.5312
Q43.3125 49.2188 43.3125 52.7812
Q43.3125 58.5938 39.2344 62.25
Q35.1562 65.9219 28.6094 65.9219
Q23.9688 65.9219 18.8125 64.3125
Q13.6719 62.7031 7.8125 59.4219
L7.8125 69.3906
Q13.7656 71.7812 18.9375 73
Q24.125 74.2188 28.4219 74.2188
Q39.75 74.2188 46.4844 68.5469
Q53.2188 62.8906 53.2188 53.4219
Q53.2188 48.9219 51.5312 44.8906
Q49.8594 40.875 45.4062 35.4062
Q44.1875 33.9844 37.6406 27.2188
Q31.1094 20.4531 19.1875 8.29688" id="BitstreamVeraSans-Roman-32"/>
      </defs>
      <g transform="translate(8.2575 175.621128467)scale(0.24 -0.24)">
       <use xlink:href="#BitstreamVeraSans-Roman-2d"/>
       <use x="36.083984375" xlink:href="#BitstreamVeraSans-Roman-32"/>
      </g>
     </g>
    </g>
    <g id="ytick_5">
     <g id="line2d_30">
      <path d="
M42.6088 91.4959
L557.426 91.4959" style="fill:none;stroke:#000000;stroke-dasharray:1.000000,3.000000;stroke-dashoffset:0.0;stroke-linecap:butt;stroke-width:0.5;"/>
     </g>
     <g id="line2d_31">
      <defs>
       <path d="
M0 0
L4 0" id="mc91e532072"/>
      </defs>
      <g>
       <use style="stroke:#000000;stroke-linecap:butt;stroke-width:0.5;" x="32.60875" xlink:href="#mc91e532072" y="91.4958767333"/>
      </g>
     </g>
     <g id="text_8">
      <!-- -1 -->
      <g transform="translate(8.07 100.244626733)scale(0.24 -0.24)">
       <use xlink:href="#BitstreamVeraSans-Roman-2d"/>
       <use x="36.083984375" xlink:href="#BitstreamVeraSans-Roman-31"/>
      </g>
     </g>
    </g>
    <g id="ytick_6">
     <g id="line2d_32">
      <path d="
M42.6088 16.2769
L557.426 16.2769" style="fill:none;stroke:#000000;stroke-dasharray:1.000000,3.000000;stroke-dashoffset:0.0;stroke-linecap:butt;stroke-width:0.5;"/>
     </g>
     <g id="line2d_33">
      <defs>
       <path d="
M0 0
L4 0" id="mc91e532072"/>
      </defs>
      <g>
       <use style="stroke:#000000;stroke-linecap:butt;stroke-width:0.5;" x="32.60875" xlink:href="#mc91e532072" y="16.276875"/>
      </g>
     </g>
     <g id="text_9">
      <!-- 0 -->
      <g transform="translate(16.515 25.0125)scale(0.24 -0.24)">
       <use xlink:href="#BitstreamVeraSans-Roman-30"/>
      </g>
     </g>
    </g>
    <g id="ytick_7">
     <g id="line2d_34">
      <defs>
       <path d="
M0 0
L2 0" id="m0789224b6b"/>
      </defs>
      <g>
       <use style="stroke:#000000;stroke-linecap:butt;stroke-width:0.5;" x="32.60875" xlink:href="#m0789224b6b" y="407.415684013"/>
      </g>
     </g>
    </g>
    <g id="ytick_8">
     <g id="line2d_35">
      <defs>
       <path d="
M0 0
L2 0" id="m0789224b6b"/>
      </defs>
      <g>
       <use style="stroke:#000000;stroke-linecap:butt;stroke-width:0.5;" x="32.60875" xlink:href="#m0789224b6b" y="377.32808332"/>
      </g>
     </g>
    </g>
    <g id="ytick_9">
     <g id="line2d_36">
      <defs>
       <path d="
M0 0
L2 0" id="m0789224b6b"/>
      </defs>
      <g>
       <use style="stroke:#000000;stroke-linecap:butt;stroke-width:0.5;" x="32.60875" xlink:href="#m0789224b6b" y="362.284282973"/>
      </g>
     </g>
    </g>
    <g id="ytick_10">
     <g id="line2d_37">
      <defs>
       <path d="
M0 0
L2 0" id="m0789224b6b"/>
      </defs>
      <g>
       <use style="stroke:#000000;stroke-linecap:butt;stroke-width:0.5;" x="32.60875" xlink:href="#m0789224b6b" y="347.240482626"/>
      </g>
     </g>
    </g>
    <g id="ytick_11">
     <g id="line2d_38">
      <defs>
       <path d="
M0 0
L2 0" id="m0789224b6b"/>
      </defs>
      <g>
       <use style="stroke:#000000;stroke-linecap:butt;stroke-width:0.5;" x="32.60875" xlink:href="#m0789224b6b" y="332.19668228"/>
      </g>
     </g>
    </g>
    <g id="ytick_12">
     <g id="line2d_39">
      <defs>
       <path d="
M0 0
L2 0" id="m0789224b6b"/>
      </defs>
      <g>
       <use style="stroke:#000000;stroke-linecap:butt;stroke-width:0.5;" x="32.60875" xlink:href="#m0789224b6b" y="302.109081586"/>
      </g>
     </g>
    </g>
    <g id="ytick_13">
     <g id="line2d_40">
      <defs>
       <path d="
M0 0
L2 0" id="m0789224b6b"/>
      </defs>
      <g>
       <use style="stroke:#000000;stroke-linecap:butt;stroke-width:0.5;" x="32.60875" xlink:href="#m0789224b6b" y="287.06528124"/>
      </g>
     </g>
    </g>
    <g id="ytick_14">
     <g id="line2d_41">
      <defs>
       <path d="
M0 0
L2 0" id="m0789224b6b"/>
      </defs>
      <g>
       <use style="stroke:#000000;stroke-linecap:butt;stroke-width:0.5;" x="32.60875" xlink:href="#m0789224b6b" y="272.021480893"/>
      </g>
     </g>
    </g>
    <g id="ytick_15">
     <g id="line2d_42">
      <defs>
       <path d="
M0 0
L2 0" id="m0789224b6b"/>
      </defs>
      <g>
       <use style="stroke:#000000;stroke-linecap:butt;stroke-width:0.5;" x="32.60875" xlink:href="#m0789224b6b" y="256.977680547"/>
      </g>
     </g>
    </g>
    <g id="ytick_16">
     <g id="line2d_43">
      <defs>
       <path d="
M0 0
L2 0" id="m0789224b6b"/>
      </defs>
      <g>
       <use style="stroke:#000000;stroke-linecap:butt;stroke-width:0.5;" x="32.60875" xlink:href="#m0789224b6b" y="241.9338802"/>
      </g>
     </g>
    </g>
    <g id="ytick_17">
     <g id="line2d_44">
      <defs>
       <path d="
M0 0
L2 0" id="m0789224b6b"/>
      </defs>
      <g>
       <use style="stroke:#000000;stroke-linecap:butt;stroke-width:0.5;" x="32.60875" xlink:href="#m0789224b6b" y="226.890079853"/>
      </g>
     </g>
    </g>
    <g id="ytick_18">
     <g id="line2d_45">
      <defs>
       <path d="
M0 0
L2 0" id="m0789224b6b"/>
      </defs>
      <g>
       <use style="stroke:#000000;stroke-linecap:butt;stroke-width:0.5;" x="32.60875" xlink:href="#m0789224b6b" y="211.846279507"/>
      </g>
     </g>
    </g>
    <g id="ytick_19">
     <g id="line2d_46">
      <defs>
       <path d="
M0 0
L2 0" id="m0789224b6b"/>
      </defs>
      <g>
       <use style="stroke:#000000;stroke-linecap:butt;stroke-width:0.5;" x="32.60875" xlink:href="#m0789224b6b" y="196.80247916"/>
      </g>
     </g>
    </g>
    <g id="ytick_20">
     <g id="line2d_47">
      <defs>
       <path d="
M0 0
L2 0" id="m0789224b6b"/>
      </defs>
      <g>
       <use style="stroke:#000000;stroke-linecap:butt;stroke-width:0.5;" x="32.60875" xlink:href="#m0789224b6b" y="181.758678813"/>
      </g>
     </g>
    </g>
    <g id="ytick_21">
     <g id="line2d_48">
      <defs>
       <path d="
M0 0
L2 0" id="m0789224b6b"/>
      </defs>
      <g>
       <use style="stroke:#000000;stroke-linecap:butt;stroke-width:0.5;" x="32.60875" xlink:href="#m0789224b6b" y="166.714878467"/>
      </g>
     </g>
    </g>
    <g id="ytick_22">
     <g id="line2d_49">
      <defs>
       <path d="
M0 0
L2 0" id="m0789224b6b"/>
      </defs>
      <g>
       <use style="stroke:#000000;stroke-linecap:butt;stroke-width:0.5;" x="32.60875" xlink:href="#m0789224b6b" y="151.67107812"/>
      </g>
     </g>
    </g>
    <g id="ytick_23">
     <g id="line2d_50">
      <defs>
       <path d="
M0 0
L2 0" id="m0789224b6b"/>
      </defs>
      <g>
       <use style="stroke:#000000;stroke-linecap:butt;stroke-width:0.5;" x="32.60875" xlink:href="#m0789224b6b" y="136.627277773"/>
      </g>
     </g>
    </g>
    <g id="ytick_24">
     <g id="line2d_51">
      <defs>
       <path d="
M0 0
L2 0" id="m0789224b6b"/>
      </defs>
      <g>
       <use style="stroke:#000000;stroke-linecap:butt;stroke-width:0.5;" x="32.60875" xlink:href="#m0789224b6b" y="121.583477427"/>
      </g>
     </g>
    </g>
    <g id="ytick_25">
     <g id="line2d_52">
      <defs>
       <path d="
M0 0
L2 0" id="m0789224b6b"/>
      </defs>
      <g>
       <use style="stroke:#000000;stroke-linecap:butt;stroke-width:0.5;" x="32.60875" xlink:href="#m0789224b6b" y="106.53967708"/>
      </g>
     </g>
    </g>
    <g id="ytick_26">
     <g id="line2d_53">
      <defs>
       <path d="
M0 0
L2 0" id="m0789224b6b"/>
      </defs>
      <g>
       <use style="stroke:#000000;stroke-linecap:butt;stroke-width:0.5;" x="32.60875" xlink:href="#m0789224b6b" y="91.4958767333"/>
      </g>
     </g>
    </g>
    <g id="ytick_27">
     <g id="line2d_54">
      <defs>
       <path d="
M0 0
L2 0" id="m0789224b6b"/>
      </defs>
      <g>
       <use style="stroke:#000000;stroke-linecap:butt;stroke-width:0.5;" x="32.60875" xlink:href="#m0789224b6b" y="76.4520763866"/>
      </g>
     </g>
    </g>
    <g id="ytick_28">
     <g id="line2d_55">
      <defs>
       <path d="
M0 0
L2 0" id="m0789224b6b"/>
      </defs>
      <g>
       <use style="stroke:#000000;stroke-linecap:butt;stroke-width:0.5;" x="32.60875" xlink:href="#m0789224b6b" y="61.40827604"/>
      </g>
     </g>
    </g>
    <g id="ytick_29">
     <g id="line2d_56">
      <defs>
       <path d="
M0 0
L2 0" id="m0789224b6b"/>
      </defs>
      <g>
       <use style="stroke:#000000;stroke-linecap:butt;stroke-width:0.5;" x="32.60875" xlink:href="#m0789224b6b" y="46.3644756933"/>
      </g>
     </g>
    </g>
    <g id="ytick_30">
     <g id="line2d_57">
      <defs>
       <path d="
M0 0
L2 0" id="m0789224b6b"/>
      </defs>
      <g>
       <use style="stroke:#000000;stroke-linecap:butt;stroke-width:0.5;" x="32.60875" xlink:href="#m0789224b6b" y="31.3206753467"/>
      </g>
     </g>
    </g>
   </g>
   <g id="patch_3">
    <path d="
M42.6088 16.2769
L557.426 16.2769" style="fill:none;stroke:#000000;stroke-width:0.8;"/>
   </g>
   <g id="patch_4">
    <path d="
M32.6088 412.239
L32.6088 8.51291" style="fill:none;stroke:#000000;stroke-width:0.8;"/>
   </g>
  </g>
 </g>
 <defs>
  <clipPath id="p51b3ba9df9">
   <rect height="403.726153846" width="514.8175" x="42.60875" y="8.51291050296"/>
  </clipPath>
 </defs>
</svg>
