<?xml version="1.0" encoding="utf-8" standalone="no"?>
<!DOCTYPE svg PUBLIC "-//W3C//DTD SVG 1.1//EN"
  "http://www.w3.org/Graphics/SVG/1.1/DTD/svg11.dtd">
<!-- Created with matplotlib (http://matplotlib.sourceforge.net/) -->
<svg height="419pt" version="1.1" viewBox="0 0 564 419" width="564pt" xmlns="http://www.w3.org/2000/svg" xmlns:xlink="http://www.w3.org/1999/xlink">
 <defs>
  <style type="text/css">
*{stroke-linecap:square;stroke-linejoin:round;}
  </style>
 </defs>
 <g id="figure_1">
  <g id="patch_1">
   <path d="
M4.44089e-16 419.439
L564.626 419.439
L564.626 0
L4.44089e-16 0
z
" style="fill:#ffffff;"/>
  </g>
  <g id="axes_1">
   <g id="patch_2">
    <path d="
M42.6088 412.239
L557.426 412.239
L557.426 8.51291
L42.6088 8.51291
z
" style="fill:#ffffff;"/>
   </g>
   <g id="line2d_1">
    <path clip-path="url(#p51b3ba9df9)" d="
M52.5091 16.2769
L63.8311 16.2769
L63.8311 32.4989
L78.0952 32.4989
L78.0952 64.6784
L87.4908 64.6784
L87.4908 90.3245
L100.112 90.3245
L100.112 124.946
L104.777 124.946
L104.777 138.94
L112.267 138.94
L112.267 161.22
L115.373 161.22
L115.373 170.276
L120.708 170.276
L120.708 187.314
L127.181 187.314
L127.181 207.273
L129.043 207.273
L129.043 212.988
L133.984 212.988
L133.984 227.107
L136.85 227.107
L136.85 234.273
L138.18 234.273
L138.18 237.363
L140.664 237.363
L140.664 243.633
L144.019 243.633
L144.019 252.488
L147.013 252.488
L147.013 260.526
L147.944 260.526
L147.944 263.197
L150.564 263.197
L150.564 270.441
L152.183 270.441
L152.183 275.161
L152.959 275.161
L152.959 277.502
L155.165 277.502
L155.165 284.641
L156.544 284.641
L156.544 288.548
L158.493 288.548
L158.493 293.855
L160.896 293.855
L160.896 299.368
L162.025 299.368
L162.025 301.662
L162.572 301.662
L162.572 302.699
L163.636 302.699
L163.636 304.654
L164.153 304.654
L164.153 305.464
L165.16 305.464
L165.16 306.867
L168.421 306.867
L168.421 311.292
L169.287 311.292
L169.287 312.274
L170.538 312.274
L170.538 313.754
L170.942 313.754
L170.942 314.232
L172.882 314.232
L172.882 316.302
L173.255 316.302
L173.255 316.649
L174.343 316.649
L174.343 317.501
L175.39 317.501
L175.39 318.223
L176.067 318.223
L176.067 318.698
L177.052 318.698
L177.052 319.448
L178.004 319.448
L178.004 320.23
L178.315 320.23
L178.315 320.447
L179.816 320.447
L179.816 321.136
L180.107 321.136
L180.107 321.308
L180.68 321.308
L180.68 321.712
L180.962 321.712
L180.962 321.962
L182.597 321.962
L182.597 323.548
L184.142 323.548
L184.142 325.101
L184.638 325.101
L184.638 325.486
L184.883 325.486
L184.883 325.726
L185.367 325.726
L185.367 326.234
L186.077 326.234
L186.077 326.87
L186.309 326.87
L186.309 327.102
L187.445 327.102
L187.445 328.462
L188.104 328.462
L188.104 329.181
L188.749 329.181
L188.749 329.95
L189.378 329.95
L189.378 330.671
L189.585 330.671
L189.585 330.924
L190.197 330.924
L190.197 331.582
L190.597 331.582
L190.597 332.039
L190.795 332.039
L190.795 332.229
L191.765 332.229
L191.765 333.24
L193.068 333.24
L193.068 334.451
L193.43 334.451
L193.43 334.812
L193.609 334.812
L193.609 335.024
L193.963 335.024
L193.963 335.471
L195.17 335.471
L195.17 337.104
L195.672 337.104
L195.672 337.771
L196.488 337.771
L196.488 338.789
L196.649 338.789
L196.649 338.974
L196.967 338.974
L196.967 339.399
L197.438 339.399
L197.438 340.107
L198.053 340.107
L198.053 341.062
L198.506 341.062
L198.506 341.673
L198.951 341.673
L198.951 342.263
L199.245 342.263
L199.245 342.623
L199.679 342.623
L199.679 343.207
L200.247 343.207
L200.247 343.965
L200.527 343.965
L200.527 344.318
L201.079 344.318
L201.079 345.049
L201.753 345.049
L201.753 346.02
L201.886 346.02
L201.886 346.221
L202.542 346.221
L202.542 347.165
L202.671 347.165
L202.671 347.366
L203.055 347.366
L203.055 347.936
L203.308 347.936
L203.308 348.296
L203.684 348.296
L203.684 348.875
L204.177 348.875
L204.177 349.594
L204.421 349.594
L204.421 349.965
L204.541 349.965
L204.541 350.151
L204.782 350.151
L204.782 350.502
L205.49 350.502
L205.49 351.551
L205.953 351.551
L205.953 352.268
L206.181 352.268
L206.181 352.64
L206.632 352.64
L206.632 353.293
L206.855 353.293
L206.855 353.604
L207.186 353.604
L207.186 354.114
L207.837 354.114
L207.944 355.127
L208.889 355.127
L208.889 356.272
L209.197 356.272
L209.197 356.624
L209.703 356.624
L209.703 357.176
L210.002 357.176
L210.002 357.479
L210.298 357.479
L210.396 357.915
L210.688 357.915
L210.688 358.263
L211.168 358.263
L211.168 358.86
L211.452 358.86
L211.452 359.233
L211.733 359.233
L211.826 359.706
L212.103 359.706
L212.103 360.05
L212.378 360.05
L212.378 360.357
L212.559 360.357
L212.65 360.649
L213.186 360.649
L213.186 361.225
L213.625 361.225
L213.712 361.705
L213.885 361.705
L213.885 361.874
L214.143 361.874
L214.143 362.126
L214.398 362.126
L214.483 362.426
L214.985 362.426
L214.985 362.829
L215.151 362.829
L215.151 362.952
L215.397 362.952
L215.397 363.167
L215.722 363.167
L215.722 363.488
L216.124 363.488
L216.124 363.876
L216.44 363.876
L216.44 364.155
L216.832 364.155
L216.832 364.503
L217.141 364.503
L217.141 364.781
L217.37 364.781
L217.37 365.005
L217.598 365.005
L217.598 365.236
L217.748 365.236
L217.748 365.37
L218.047 365.37
L218.047 365.62
L218.27 365.62
L218.27 365.806
L218.417 365.806
L218.417 365.94
L218.709 365.94
L218.709 366.233
L218.854 366.233
L218.854 366.394
L219.355 366.394
L219.355 366.943
L219.708 366.943
L219.708 367.322
L220.125 367.322
L220.194 367.798
L220.536 367.798
L220.604 368.225
L220.739 368.225
L220.807 368.454
L221.142 368.454
L221.142 368.846
L221.604 368.846
L221.604 369.362
L221.734 369.362
L221.799 369.573
L221.929 369.573
L221.929 369.729
L222.378 369.729
L222.378 370.241
L222.506 370.241
L222.569 370.473
L222.695 370.473
L222.695 370.638
L223.318 370.638
L223.318 371.438
L223.441 371.438
L223.441 371.601
L223.685 371.601
L223.685 371.935
L223.987 371.935
L223.987 372.36
L224.226 372.36
L224.226 372.707
L224.345 372.707
L224.345 372.869
L224.523 372.869
L224.523 373.104
L224.699 373.104
L224.699 373.342
L225.106 373.342
L225.106 373.845
L225.222 373.845
L225.222 373.992
L225.394 373.992
L225.394 374.209
L225.565 374.209
L225.565 374.421
L225.791 374.421
L225.791 374.69
L225.96 374.69
L225.96 374.894
L226.294 374.894
L226.404 375.386
L226.569 375.386
L226.624 375.65
L226.896 375.65
L226.95 376.033
L227.112 376.033
L227.112 376.22
L227.379 376.22
L227.432 376.586
L227.697 376.586
L227.749 376.956
L227.907 376.956
L227.907 377.143
L228.373 377.143
L228.475 377.845
L228.629 377.902
L228.629 378.006
L228.781 378.006
L228.781 378.145
L228.932 378.145
L228.932 378.273
L229.133 378.273
L229.133 378.423
L229.431 378.529
L229.431 378.622
L229.97 378.622
L230.019 378.936
L230.451 379.045
L230.451 379.142
L230.83 379.234
L230.83 379.295
L231.158 379.352
L231.158 379.437
L231.435 379.437
L231.527 379.617
L231.801 379.692
L231.847 379.802
L232.252 379.883
L232.252 380.024
L232.871 380.12
L232.915 380.295
L233.305 380.376
L233.391 380.452
L233.775 380.502
L233.817 380.636
L234.65 380.702
L234.65 381.065
L235.057 381.16
L235.057 381.224
L235.419 381.224
L235.419 381.389
L235.894 381.472
L235.972 381.619
L236.206 381.675
L236.206 381.734
L236.477 381.838
L236.477 381.857
L236.82 381.911
L236.82 382.011
L237.047 382.106
L237.122 382.158
L237.347 382.216
L237.347 382.275
L237.79 382.376
L237.79 382.467
L238.155 382.531
L238.263 382.69
L238.586 382.799
L238.657 382.937
L238.869 383.033
L238.869 383.079
L239.115 383.079
L239.185 383.286
L239.394 383.383
L239.497 383.509
L239.806 383.603
L239.806 383.717
L240.145 383.717
L240.246 384.033
L240.745 384.102
L240.844 384.373
L241.203 384.46
L241.236 384.559
L241.622 384.659
L241.718 384.707
L242.285 384.815
L242.285 384.821
L242.811 384.895
L242.811 384.949
L243.387 385.041
L243.477 385.131
L243.804 385.191
L243.804 385.246
L244.069 385.319
L244.157 385.404
L244.418 385.404
L244.447 385.538
L244.677 385.538
L244.706 385.668
L245.019 385.668
L245.104 385.889
L245.301 385.953
L245.385 386.055
L245.635 386.148
L245.635 386.195
L245.938 386.285
L245.938 386.363
L246.129 386.363
L246.129 386.475
L246.346 386.555
L246.346 386.602
L246.588 386.709
L246.614 386.758
L246.907 386.848
L246.933 386.981
L247.144 386.981
L247.249 387.211
L247.457 387.27
L247.561 387.426
L247.792 387.426
L247.792 387.576
L248.098 387.576
L248.149 387.801
L248.325 387.852
L248.325 387.914
L248.526 387.914
L248.601 388.082
L248.898 388.131
L248.972 388.259
L249.216 388.336
L249.265 388.392
L249.699 388.459
L249.795 388.616
L250.15 388.701
L250.221 388.798
L250.617 388.878
L250.687 388.935
L251.663 389.041
L251.663 389.103
L252.106 389.211
L252.193 389.234
L253.33 389.342
L253.393 389.356
L254.077 389.463
L254.097 389.479
L255.571 389.572
L255.649 389.6
L256.711 389.676
L256.73 389.725
L257.446 389.833
L257.537 389.87
L258.356 389.967
L258.444 390.003
L258.981 390.113
L259.033 390.127
L259.542 390.227
L259.643 390.265
L260.125 390.357
L260.142 390.404
L260.485 390.468
L260.485 390.535
L260.953 390.643
L261.017 390.733
L261.335 390.826
L261.398 390.868
L261.757 390.968
L261.866 391.022
L262.357 391.128
L262.403 391.173
L262.825 391.278
L262.87 391.294
L263.475 391.389
L263.563 391.444
L264.168 391.552
L264.268 391.584
L264.677 391.66
L264.775 391.729
L265.259 391.822
L265.3 391.845
L266.123 391.932
L266.229 391.991
L266.597 392.099
L266.702 392.138
L267.09 392.244
L267.179 392.295
L267.548 392.383
L267.561 392.41
L267.999 392.519
L268.086 392.549
L269.096 392.654
L269.203 392.677
L269.839 392.786
L269.944 392.818
L270.438 392.918
L270.529 392.963
L271.312 393.065
L271.411 393.092
L272.128 393.199
L272.225 393.221
L273.17 393.331
L273.232 393.341
L273.964 393.449
L274.054 393.48
L274.412 393.59
L274.491 393.619
L275.028 393.73
L275.134 393.798
L275.592 393.897
L275.621 393.927
L275.987 394.002
L276.015 394.056
L276.414 394.162
L276.496 394.188
L276.978 394.284
L277.086 394.345
L277.513 394.448
L277.602 394.488
L277.969 394.579
L277.996 394.633
L278.272 394.728
L278.272 394.746
L278.538 394.857
L278.64 394.905
L278.961 395.011
L279.069 395.083
L279.41 395.176
L279.493 395.245
L279.853 395.355
L279.91 395.373
L280.368 395.478
L280.456 395.505
L281.116 395.61
L281.217 395.641
L282.459 395.751
L282.533 395.763
L284.494 395.653
L284.535 395.633
L285.194 395.524
L285.234 395.515
L285.805 395.434
L285.89 395.378
L286.352 395.273
L286.448 395.234
L286.925 395.128
L286.982 395.114
L289.481 395.224
L289.584 395.244
L293.537 395.351
L293.646 395.374
L294.361 395.476
L294.467 395.504
L295.11 395.61
L295.218 395.623
L297.349 395.734
L297.448 395.739
L298.284 395.839
L298.385 395.867
L298.953 395.976
L299.026 396.005
L299.416 396.112
L299.501 396.146
L299.837 396.251
L299.948 396.307
L300.29 396.415
L300.38 396.464
L300.752 396.573
L300.836 396.606
L301.225 396.717
L301.327 396.757
L301.63 396.86
L301.72 396.905
L302.008 397.012
L302.107 397.062
L302.446 397.167
L302.529 397.192
L302.984 397.296
L303.09 397.357
L303.466 397.463
L303.574 397.507
L303.84 397.61
L303.937 397.686
L304.172 397.79
L304.244 397.855
L304.447 397.964
L304.548 398.027
L304.758 398.131
L304.865 398.205
L305.053 398.312
L305.145 398.372
L305.332 398.48
L305.43 398.549
L305.631 398.646
L305.741 398.755
L305.914 398.863
L305.997 398.955
L306.14 399.06
L306.235 399.149
L306.38 399.253
L306.483 399.348
L306.63 399.452
L306.736 399.546
L306.891 399.656
L306.983 399.746
L307.14 399.85
L307.234 399.948
L307.386 400.049
L307.489 400.135
L307.658 400.244
L307.76 400.32
L307.927 400.417
L308.025 400.5
L308.202 400.606
L308.308 400.683
L308.501 400.793
L308.609 400.855
L308.826 400.963
L308.935 401.021
L309.218 401.12
L309.328 401.205
L309.624 401.312
L309.727 401.359
L310.041 401.468
L310.148 401.508
L310.443 401.616
L310.535 401.656
L310.856 401.764
L310.963 401.832
L311.294 401.942
L311.384 401.973
L311.752 402.083
L311.861 402.111
L312.421 402.222
L312.525 402.249
L313.279 402.36
L313.375 402.371
L314.15 402.48
L314.256 402.504
L315.372 402.614
L315.468 402.625
L318.086 402.731
L318.188 402.765
L318.513 402.872
L318.617 402.919
L318.974 403.029
L319.074 403.067
L319.48 403.178
L319.584 403.204
L319.994 403.313
L320.102 403.345
L320.904 403.456
L321.007 403.46
L322.474 403.571
L322.582 403.59
L323.305 403.7
L323.412 403.712
L324.081 403.823
L324.183 403.843
L324.735 403.954
L324.841 403.973
L326.653 404.084
L326.758 404.094
L328.574 404.205
L328.671 404.209
L331.669 404.32
L331.776 404.324
L333.505 404.434
L333.609 404.451
L335.858 404.34
L335.966 404.323
L336.471 404.213
L336.579 404.188
L337.172 404.078
L337.274 404.052
L337.816 403.944
L337.922 403.921
L338.998 403.81
L339.102 403.784
L339.556 403.674
L339.656 403.641
L340.027 403.533
L340.137 403.492
L340.431 403.383
L340.536 403.341
L340.799 403.229
L340.904 403.182
L341.14 403.072
L341.247 403.024
L341.511 402.914
L341.621 402.867
L341.929 402.756
L342.039 402.708
L342.292 402.599
L342.397 402.55
L342.722 402.44
L342.83 402.4
L343.157 402.29
L343.267 402.252
L343.653 402.142
L343.761 402.105
L344.051 401.994
L344.159 401.946
L344.401 401.839
L344.499 401.778
L344.716 401.671
L344.825 401.605
L345.042 401.494
L345.148 401.437
L345.377 401.328
L345.484 401.276
L345.719 401.165
L345.829 401.113
L346.091 401.002
L346.193 400.952
L346.419 400.844
L346.528 400.779
L346.723 400.668
L346.833 400.602
L347.033 400.491
L347.143 400.429
L347.368 400.319
L347.477 400.271
L347.771 400.161
L347.881 400.119
L348.199 400.009
L348.3 399.973
L348.679 399.862
L348.787 399.837
L349.332 399.727
L349.441 399.709
L350.012 399.598
L350.118 399.571
L350.606 399.46
L350.706 399.445
L351.464 399.334
L351.573 399.32
L352.784 399.209
L352.893 399.194
L356.531 399.083
L356.641 399.074
L360.827 398.964
L360.937 398.946
L361.64 398.836
L361.749 398.813
L362.204 398.703
L362.313 398.679
L362.849 398.568
L362.956 398.54
L363.929 398.43
L364.034 398.42
L366.559 398.532
L366.664 398.553
L367.233 398.664
L367.343 398.692
L367.973 398.803
L368.08 398.812
L371.515 398.702
L371.62 398.685
L372.483 398.574
L372.59 398.558
L375.224 398.669
L375.334 398.704
L375.909 398.815
L376.019 398.829
L376.988 398.94
L377.099 398.948
L379.739 398.837
L379.85 398.816
L386.036 398.927
L386.147 398.941
L387.333 399.052
L387.443 399.064
L388.801 399.175
L388.91 399.191
L393.383 399.08
L393.493 399.066
L397.88 399.177
L397.99 399.184
L401.468 399.073
L401.579 399.065
L403.462 398.954
L403.572 398.939
L407.597 398.828
L407.707 398.825
L413.825 398.936
L413.936 398.949
L417.329 398.838
L417.44 398.815
L417.974 398.704
L418.084 398.68
L418.615 398.569
L418.726 398.545
L419.34 398.434
L419.451 398.42
L423.961 398.309
L424.072 398.291
L424.695 398.18
L424.806 398.155
L425.251 398.044
L425.362 398.017
L425.837 397.906
L425.948 397.88
L426.486 397.769
L426.597 397.74
L426.969 397.629
L427.08 397.599
L427.629 397.488
L427.739 397.474
L428.433 397.363
L428.544 397.343
L429.048 397.232
L429.159 397.205
L429.643 397.094
L429.754 397.075
L430.455 396.964
L430.565 396.939
L431.082 396.828
L431.192 396.807
L431.728 396.696
L431.839 396.677
L432.627 396.566
L432.738 396.544
L433.521 396.433
L433.632 396.412
L434.223 396.301
L434.334 396.279
L434.795 396.168
L434.906 396.135
L435.306 396.024
L435.417 396.001
L435.981 395.89
L436.092 395.859
L436.562 395.748
L436.673 395.718
L437.109 395.607
L437.22 395.579
L437.705 395.468
L437.816 395.44
L438.269 395.329
L438.38 395.296
L438.811 395.185
L438.922 395.16
L439.333 395.049
L439.445 395.015
L439.822 394.904
L439.933 394.873
L440.319 394.762
L440.43 394.727
L440.718 394.616
L440.829 394.577
L441.271 394.466
L441.382 394.442
L441.833 394.331
L441.945 394.301
L442.496 394.19
L442.607 394.165
L443.203 394.054
L443.314 394.033
L443.908 393.922
L444.019 393.9
L444.484 393.789
L444.595 393.763
L445.11 393.652
L445.221 393.62
L445.595 393.509
L445.706 393.474
L446.086 393.363
L446.197 393.333
L446.708 393.222
L446.819 393.206
L447.627 393.095
L447.738 393.083
L448.498 392.972
L448.609 392.944
L449.149 392.833
L449.26 392.815
L450.801 392.704
L450.912 392.7
L451.943 392.589
L452.054 392.573
L453.294 392.461
L453.405 392.441
L453.879 392.33
L453.99 392.304
L454.469 392.193
L454.58 392.163
L455.018 392.052
L455.129 392.022
L455.484 391.911
L455.595 391.868
L455.915 391.757
L456.026 391.717
L456.341 391.606
L456.452 391.569
L456.857 391.458
L456.968 391.426
L457.425 391.314
L457.536 391.287
L457.985 391.176
L458.096 391.146
L458.466 391.035
L458.577 390.997
L458.898 390.886
L459.009 390.848
L459.415 390.737
L459.526 390.706
L459.965 390.595
L460.076 390.569
L460.496 390.458
L460.607 390.424
L460.943 390.313
L461.054 390.274
L461.327 390.163
L461.438 390.117
L461.725 390.006
L461.836 389.968
L462.24 389.857
L462.351 389.828
L462.842 389.717
L462.953 389.692
L463.684 389.581
L463.795 389.563
L464.885 389.452
L464.996 389.444
L467.306 389.555
L467.417 389.571
L468.025 389.682
L468.136 389.704
L468.662 389.815
L468.773 389.838
L469.38 389.949
L469.491 389.968
L470.092 390.079
L470.203 390.1
L470.733 390.211
L470.844 390.236
L471.53 390.347
L471.641 390.357
L472.33 390.468
L472.441 390.489
L473.2 390.6
L473.311 390.618
L474.409 390.729
L474.52 390.742
L476.62 390.853
L476.731 390.863
L477.435 390.974
L477.546 390.99
L478.319 391.101
L478.43 391.12
L479.85 391.231
L479.908 391.233
L479.961 391.232
L482.668 391.343
L482.779 391.349
L485.757 391.46
L485.868 391.468
L486.881 391.58
L486.992 391.593
L487.834 391.704
L487.945 391.719
L492.631 391.608
L492.742 391.592
L493.652 391.481
L493.763 391.463
L494.346 391.352
L494.457 391.33
L495.485 391.219
L495.596 391.206
L496.444 391.095
L496.555 391.067
L496.935 390.956
L497.046 390.919
L497.425 390.808
L497.536 390.776
L497.871 390.665
L497.983 390.631
L498.312 390.52
L498.423 390.478
L498.741 390.367
L498.852 390.335
L499.375 390.224
L499.486 390.205
L499.984 390.094
L500.095 390.062
L500.535 389.951
L500.646 389.925
L501.106 389.814
L501.217 389.787
L501.656 389.676
L501.767 389.651
L502.199 389.54
L502.31 389.51
L502.71 389.399
L502.821 389.37
L503.222 389.259
L503.334 389.227
L503.685 389.116
L503.796 389.081
L504.173 388.97
L504.284 388.94
L504.663 388.828
L504.774 388.794
L505.095 388.683
L505.206 388.644
L505.496 388.533
L505.607 388.491
L505.892 388.38
L506.004 388.337
L506.293 388.226
L506.404 388.187
L506.768 388.076
L506.879 388.048
L507.347 387.937
L507.458 387.909
L507.845 387.798
L507.956 387.762
L508.392 387.651
L508.503 387.628
L509.279 387.517
L509.39 387.502
L510.168 387.391
L510.279 387.37
L511.157 387.259
L511.268 387.244
L512.007 387.133
L512.118 387.118
L512.937 387.007
L513.049 386.988
L513.586 386.877
L513.697 386.853
L514.375 386.741
L514.486 386.721
L515.538 386.61
L515.649 386.6
L521.156 386.489
L521.267 386.475
L522.655 386.364
L522.766 386.352
L523.535 386.241
L523.646 386.219
L524.109 386.108
L524.221 386.079
L524.63 385.968
L524.741 385.938
L525.137 385.827
L525.248 385.796
L525.673 385.685
L525.784 385.654
L526.135 385.542
L526.246 385.503
L526.557 385.392
L526.669 385.355
L527.001 385.244
L527.113 385.208
L527.497 385.097
L527.608 385.072
L528.058 384.961
L528.169 384.931
L528.586 384.82
L528.697 384.783
L529.099 384.671
L529.21 384.646
L529.667 384.535
L529.778 384.509
L530.364 384.398
L530.475 384.377
L530.95 384.266
L531.061 384.238
L531.532 384.127
L531.643 384.101
L532.149 383.99
L532.26 383.967
L532.822 383.856
L532.933 383.833
L533.8 383.722
L533.911 383.702
L534.537 383.591
L534.648 383.572
L535.642 383.461
L535.753 383.449
L536.706 383.338
L536.817 383.323
L539.437 383.212
L539.548 383.199
L540.784 383.088
L540.895 383.082
L543.092 382.971
L543.203 382.952
L544.206 382.84
L544.317 382.833
L545.996 382.721
L546.107 382.701
L546.692 382.59
L546.803 382.569
L547.388 382.458
L547.499 382.436
L547.526 382.431
L547.526 382.431" style="fill:none;stroke:#0000ff;stroke-width:5.0;"/>
   </g>
   <g id="matplotlib.axis_1">
    <g id="xtick_1">
     <g id="line2d_2">
      <path d="
M172.772 412.239
L172.772 8.51291" style="fill:none;stroke:#000000;stroke-dasharray:1.000000,3.000000;stroke-dashoffset:0.0;stroke-linecap:butt;stroke-width:0.5;"/>
     </g>
     <g id="line2d_3">
      <defs>
       <path d="
M0 0
L0 -4" id="m3bb2042078"/>
      </defs>
      <g>
       <use style="stroke:#000000;stroke-linecap:butt;stroke-width:0.5;" x="172.771988442" xlink:href="#m3bb2042078" y="16.276875"/>
      </g>
     </g>
     <g id="text_1">
      <!-- 5 -->
      <defs>
       <path d="
M10.7969 72.9062
L49.5156 72.9062
L49.5156 64.5938
L19.8281 64.5938
L19.8281 46.7344
Q21.9688 47.4688 24.1094 47.8281
Q26.2656 48.1875 28.4219 48.1875
Q40.625 48.1875 47.75 41.5
Q54.8906 34.8125 54.8906 23.3906
Q54.8906 11.625 47.5625 5.09375
Q40.2344 -1.42188 26.9062 -1.42188
Q22.3125 -1.42188 17.5469 -0.640625
Q12.7969 0.140625 7.71875 1.70312
L7.71875 11.625
Q12.1094 9.23438 16.7969 8.0625
Q21.4844 6.89062 26.7031 6.89062
Q35.1562 6.89062 40.0781 11.3281
Q45.0156 15.7656 45.0156 23.3906
Q45.0156 31 40.0781 35.4375
Q35.1562 39.8906 26.7031 39.8906
Q22.75 39.8906 18.8125 39.0156
Q14.8906 38.1406 10.7969 36.2812
z
" id="BitstreamVeraSans-Roman-35"/>
      </defs>
      <g transform="translate(167.111363442 37.774375)scale(0.24 -0.24)">
       <use xlink:href="#BitstreamVeraSans-Roman-35"/>
      </g>
     </g>
    </g>
    <g id="xtick_2">
     <g id="line2d_4">
      <path d="
M312.39 412.239
L312.39 8.51291" style="fill:none;stroke:#000000;stroke-dasharray:1.000000,3.000000;stroke-dashoffset:0.0;stroke-linecap:butt;stroke-width:0.5;"/>
     </g>
     <g id="line2d_5">
      <defs>
       <path d="
M0 0
L0 -4" id="m3bb2042078"/>
      </defs>
      <g>
       <use style="stroke:#000000;stroke-linecap:butt;stroke-width:0.5;" x="312.390065662" xlink:href="#m3bb2042078" y="16.276875"/>
      </g>
     </g>
     <g id="text_2">
      <!-- 10 -->
      <defs>
       <path d="
M31.7812 66.4062
Q24.1719 66.4062 20.3281 58.9062
Q16.5 51.4219 16.5 36.375
Q16.5 21.3906 20.3281 13.8906
Q24.1719 6.39062 31.7812 6.39062
Q39.4531 6.39062 43.2812 13.8906
Q47.125 21.3906 47.125 36.375
Q47.125 51.4219 43.2812 58.9062
Q39.4531 66.4062 31.7812 66.4062
M31.7812 74.2188
Q44.0469 74.2188 50.5156 64.5156
Q56.9844 54.8281 56.9844 36.375
Q56.9844 17.9688 50.5156 8.26562
Q44.0469 -1.42188 31.7812 -1.42188
Q19.5312 -1.42188 13.0625 8.26562
Q6.59375 17.9688 6.59375 36.375
Q6.59375 54.8281 13.0625 64.5156
Q19.5312 74.2188 31.7812 74.2188" id="BitstreamVeraSans-Roman-30"/>
       <path d="
M12.4062 8.29688
L28.5156 8.29688
L28.5156 63.9219
L10.9844 60.4062
L10.9844 69.3906
L28.4219 72.9062
L38.2812 72.9062
L38.2812 8.29688
L54.3906 8.29688
L54.3906 0
L12.4062 0
z
" id="BitstreamVeraSans-Roman-31"/>
      </defs>
      <g transform="translate(299.235065662 38.089375)scale(0.24 -0.24)">
       <use xlink:href="#BitstreamVeraSans-Roman-31"/>
       <use x="63.623046875" xlink:href="#BitstreamVeraSans-Roman-30"/>
      </g>
     </g>
    </g>
    <g id="xtick_3">
     <g id="line2d_6">
      <path d="
M452.008 412.239
L452.008 8.51291" style="fill:none;stroke:#000000;stroke-dasharray:1.000000,3.000000;stroke-dashoffset:0.0;stroke-linecap:butt;stroke-width:0.5;"/>
     </g>
     <g id="line2d_7">
      <defs>
       <path d="
M0 0
L0 -4" id="m3bb2042078"/>
      </defs>
      <g>
       <use style="stroke:#000000;stroke-linecap:butt;stroke-width:0.5;" x="452.008142882" xlink:href="#m3bb2042078" y="16.276875"/>
      </g>
     </g>
     <g id="text_3">
      <!-- 15 -->
      <g transform="translate(439.104392882 37.774375)scale(0.24 -0.24)">
       <use xlink:href="#BitstreamVeraSans-Roman-31"/>
       <use x="63.623046875" xlink:href="#BitstreamVeraSans-Roman-35"/>
      </g>
     </g>
    </g>
    <g id="xtick_4">
     <g id="line2d_8">
      <defs>
       <path d="
M0 0
L0 -2" id="m5dae216118"/>
      </defs>
      <g>
       <use style="stroke:#000000;stroke-linecap:butt;stroke-width:0.5;" x="61.0775266664" xlink:href="#m5dae216118" y="16.276875"/>
      </g>
     </g>
    </g>
    <g id="xtick_5">
     <g id="line2d_9">
      <defs>
       <path d="
M0 0
L0 -2" id="m5dae216118"/>
      </defs>
      <g>
       <use style="stroke:#000000;stroke-linecap:butt;stroke-width:0.5;" x="89.0011421104" xlink:href="#m5dae216118" y="16.276875"/>
      </g>
     </g>
    </g>
    <g id="xtick_6">
     <g id="line2d_10">
      <defs>
       <path d="
M0 0
L0 -2" id="m5dae216118"/>
      </defs>
      <g>
       <use style="stroke:#000000;stroke-linecap:butt;stroke-width:0.5;" x="116.924757554" xlink:href="#m5dae216118" y="16.276875"/>
      </g>
     </g>
    </g>
    <g id="xtick_7">
     <g id="line2d_11">
      <defs>
       <path d="
M0 0
L0 -2" id="m5dae216118"/>
      </defs>
      <g>
       <use style="stroke:#000000;stroke-linecap:butt;stroke-width:0.5;" x="144.848372998" xlink:href="#m5dae216118" y="16.276875"/>
      </g>
     </g>
    </g>
    <g id="xtick_8">
     <g id="line2d_12">
      <defs>
       <path d="
M0 0
L0 -2" id="m5dae216118"/>
      </defs>
      <g>
       <use style="stroke:#000000;stroke-linecap:butt;stroke-width:0.5;" x="200.695603886" xlink:href="#m5dae216118" y="16.276875"/>
      </g>
     </g>
    </g>
    <g id="xtick_9">
     <g id="line2d_13">
      <defs>
       <path d="
M0 0
L0 -2" id="m5dae216118"/>
      </defs>
      <g>
       <use style="stroke:#000000;stroke-linecap:butt;stroke-width:0.5;" x="228.61921933" xlink:href="#m5dae216118" y="16.276875"/>
      </g>
     </g>
    </g>
    <g id="xtick_10">
     <g id="line2d_14">
      <defs>
       <path d="
M0 0
L0 -2" id="m5dae216118"/>
      </defs>
      <g>
       <use style="stroke:#000000;stroke-linecap:butt;stroke-width:0.5;" x="256.542834774" xlink:href="#m5dae216118" y="16.276875"/>
      </g>
     </g>
    </g>
    <g id="xtick_11">
     <g id="line2d_15">
      <defs>
       <path d="
M0 0
L0 -2" id="m5dae216118"/>
      </defs>
      <g>
       <use style="stroke:#000000;stroke-linecap:butt;stroke-width:0.5;" x="284.466450218" xlink:href="#m5dae216118" y="16.276875"/>
      </g>
     </g>
    </g>
    <g id="xtick_12">
     <g id="line2d_16">
      <defs>
       <path d="
M0 0
L0 -2" id="m5dae216118"/>
      </defs>
      <g>
       <use style="stroke:#000000;stroke-linecap:butt;stroke-width:0.5;" x="340.313681106" xlink:href="#m5dae216118" y="16.276875"/>
      </g>
     </g>
    </g>
    <g id="xtick_13">
     <g id="line2d_17">
      <defs>
       <path d="
M0 0
L0 -2" id="m5dae216118"/>
      </defs>
      <g>
       <use style="stroke:#000000;stroke-linecap:butt;stroke-width:0.5;" x="368.23729655" xlink:href="#m5dae216118" y="16.276875"/>
      </g>
     </g>
    </g>
    <g id="xtick_14">
     <g id="line2d_18">
      <defs>
       <path d="
M0 0
L0 -2" id="m5dae216118"/>
      </defs>
      <g>
       <use style="stroke:#000000;stroke-linecap:butt;stroke-width:0.5;" x="396.160911994" xlink:href="#m5dae216118" y="16.276875"/>
      </g>
     </g>
    </g>
    <g id="xtick_15">
     <g id="line2d_19">
      <defs>
       <path d="
M0 0
L0 -2" id="m5dae216118"/>
      </defs>
      <g>
       <use style="stroke:#000000;stroke-linecap:butt;stroke-width:0.5;" x="424.084527438" xlink:href="#m5dae216118" y="16.276875"/>
      </g>
     </g>
    </g>
    <g id="xtick_16">
     <g id="line2d_20">
      <defs>
       <path d="
M0 0
L0 -2" id="m5dae216118"/>
      </defs>
      <g>
       <use style="stroke:#000000;stroke-linecap:butt;stroke-width:0.5;" x="479.931758326" xlink:href="#m5dae216118" y="16.276875"/>
      </g>
     </g>
    </g>
    <g id="xtick_17">
     <g id="line2d_21">
      <defs>
       <path d="
M0 0
L0 -2" id="m5dae216118"/>
      </defs>
      <g>
       <use style="stroke:#000000;stroke-linecap:butt;stroke-width:0.5;" x="507.85537377" xlink:href="#m5dae216118" y="16.276875"/>
      </g>
     </g>
    </g>
   </g>
   <g id="matplotlib.axis_2">
    <g id="ytick_1">
     <g id="line2d_22">
      <path d="
M42.6088 398.622
L557.426 398.622" style="fill:none;stroke:#000000;stroke-dasharray:1.000000,3.000000;stroke-dashoffset:0.0;stroke-linecap:butt;stroke-width:0.5;"/>
     </g>
     <g id="line2d_23">
      <defs>
       <path d="
M0 0
L4 0" id="mf3423703fe"/>
      </defs>
      <g>
       <use style="stroke:#000000;stroke-linecap:butt;stroke-width:0.5;" x="32.60875" xlink:href="#mf3423703fe" y="398.622095749"/>
      </g>
     </g>
     <g id="text_4">
      <!-- -7 -->
      <defs>
       <path d="
M4.89062 31.3906
L31.2031 31.3906
L31.2031 23.3906
L4.89062 23.3906
z
" id="BitstreamVeraSans-Roman-2d"/>
       <path d="
M8.20312 72.9062
L55.0781 72.9062
L55.0781 68.7031
L28.6094 0
L18.3125 0
L43.2188 64.5938
L8.20312 64.5938
z
" id="BitstreamVeraSans-Roman-37"/>
      </defs>
      <g transform="translate(7.905 407.370845749)scale(0.24 -0.24)">
       <use xlink:href="#BitstreamVeraSans-Roman-2d"/>
       <use x="36.083984375" xlink:href="#BitstreamVeraSans-Roman-37"/>
      </g>
     </g>
    </g>
    <g id="ytick_2">
     <g id="line2d_24">
      <path d="
M42.6088 344.001
L557.426 344.001" style="fill:none;stroke:#000000;stroke-dasharray:1.000000,3.000000;stroke-dashoffset:0.0;stroke-linecap:butt;stroke-width:0.5;"/>
     </g>
     <g id="line2d_25">
      <defs>
       <path d="
M0 0
L4 0" id="mf3423703fe"/>
      </defs>
      <g>
       <use style="stroke:#000000;stroke-linecap:butt;stroke-width:0.5;" x="32.60875" xlink:href="#mf3423703fe" y="344.001349927"/>
      </g>
     </g>
     <g id="text_5">
      <!-- -6 -->
      <defs>
       <path d="
M33.0156 40.375
Q26.375 40.375 22.4844 35.8281
Q18.6094 31.2969 18.6094 23.3906
Q18.6094 15.5312 22.4844 10.9531
Q26.375 6.39062 33.0156 6.39062
Q39.6562 6.39062 43.5312 10.9531
Q47.4062 15.5312 47.4062 23.3906
Q47.4062 31.2969 43.5312 35.8281
Q39.6562 40.375 33.0156 40.375
M52.5938 71.2969
L52.5938 62.3125
Q48.875 64.0625 45.0938 64.9844
Q41.3125 65.9219 37.5938 65.9219
Q27.8281 65.9219 22.6719 59.3281
Q17.5312 52.7344 16.7969 39.4062
Q19.6719 43.6562 24.0156 45.9219
Q28.375 48.1875 33.5938 48.1875
Q44.5781 48.1875 50.9531 41.5156
Q57.3281 34.8594 57.3281 23.3906
Q57.3281 12.1562 50.6875 5.35938
Q44.0469 -1.42188 33.0156 -1.42188
Q20.3594 -1.42188 13.6719 8.26562
Q6.98438 17.9688 6.98438 36.375
Q6.98438 53.6562 15.1875 63.9375
Q23.3906 74.2188 37.2031 74.2188
Q40.9219 74.2188 44.7031 73.4844
Q48.4844 72.75 52.5938 71.2969" id="BitstreamVeraSans-Roman-36"/>
      </defs>
      <g transform="translate(7.365 352.736974927)scale(0.24 -0.24)">
       <use xlink:href="#BitstreamVeraSans-Roman-2d"/>
       <use x="36.083984375" xlink:href="#BitstreamVeraSans-Roman-36"/>
      </g>
     </g>
    </g>
    <g id="ytick_3">
     <g id="line2d_26">
      <path d="
M42.6088 289.381
L557.426 289.381" style="fill:none;stroke:#000000;stroke-dasharray:1.000000,3.000000;stroke-dashoffset:0.0;stroke-linecap:butt;stroke-width:0.5;"/>
     </g>
     <g id="line2d_27">
      <defs>
       <path d="
M0 0
L4 0" id="mf3423703fe"/>
      </defs>
      <g>
       <use style="stroke:#000000;stroke-linecap:butt;stroke-width:0.5;" x="32.60875" xlink:href="#mf3423703fe" y="289.380604106"/>
      </g>
     </g>
     <g id="text_6">
      <!-- -5 -->
      <g transform="translate(7.95 297.958729106)scale(0.24 -0.24)">
       <use xlink:href="#BitstreamVeraSans-Roman-2d"/>
       <use x="36.083984375" xlink:href="#BitstreamVeraSans-Roman-35"/>
      </g>
     </g>
    </g>
    <g id="ytick_4">
     <g id="line2d_28">
      <path d="
M42.6088 234.76
L557.426 234.76" style="fill:none;stroke:#000000;stroke-dasharray:1.000000,3.000000;stroke-dashoffset:0.0;stroke-linecap:butt;stroke-width:0.5;"/>
     </g>
     <g id="line2d_29">
      <defs>
       <path d="
M0 0
L4 0" id="mf3423703fe"/>
      </defs>
      <g>
       <use style="stroke:#000000;stroke-linecap:butt;stroke-width:0.5;" x="32.60875" xlink:href="#mf3423703fe" y="234.759858285"/>
      </g>
     </g>
     <g id="text_7">
      <!-- -4 -->
      <defs>
       <path d="
M37.7969 64.3125
L12.8906 25.3906
L37.7969 25.3906
z

M35.2031 72.9062
L47.6094 72.9062
L47.6094 25.3906
L58.0156 25.3906
L58.0156 17.1875
L47.6094 17.1875
L47.6094 0
L37.7969 0
L37.7969 17.1875
L4.89062 17.1875
L4.89062 26.7031
z
" id="BitstreamVeraSans-Roman-34"/>
      </defs>
      <g transform="translate(7.2 243.508608285)scale(0.24 -0.24)">
       <use xlink:href="#BitstreamVeraSans-Roman-2d"/>
       <use x="36.083984375" xlink:href="#BitstreamVeraSans-Roman-34"/>
      </g>
     </g>
    </g>
    <g id="ytick_5">
     <g id="line2d_30">
      <path d="
M42.6088 180.139
L557.426 180.139" style="fill:none;stroke:#000000;stroke-dasharray:1.000000,3.000000;stroke-dashoffset:0.0;stroke-linecap:butt;stroke-width:0.5;"/>
     </g>
     <g id="line2d_31">
      <defs>
       <path d="
M0 0
L4 0" id="mf3423703fe"/>
      </defs>
      <g>
       <use style="stroke:#000000;stroke-linecap:butt;stroke-width:0.5;" x="32.60875" xlink:href="#mf3423703fe" y="180.139112464"/>
      </g>
     </g>
     <g id="text_8">
      <!-- -3 -->
      <defs>
       <path d="
M40.5781 39.3125
Q47.6562 37.7969 51.625 33
Q55.6094 28.2188 55.6094 21.1875
Q55.6094 10.4062 48.1875 4.48438
Q40.7656 -1.42188 27.0938 -1.42188
Q22.5156 -1.42188 17.6562 -0.515625
Q12.7969 0.390625 7.625 2.20312
L7.625 11.7188
Q11.7188 9.32812 16.5938 8.10938
Q21.4844 6.89062 26.8125 6.89062
Q36.0781 6.89062 40.9375 10.5469
Q45.7969 14.2031 45.7969 21.1875
Q45.7969 27.6406 41.2812 31.2656
Q36.7656 34.9062 28.7188 34.9062
L20.2188 34.9062
L20.2188 43.0156
L29.1094 43.0156
Q36.375 43.0156 40.2344 45.9219
Q44.0938 48.8281 44.0938 54.2969
Q44.0938 59.9062 40.1094 62.9062
Q36.1406 65.9219 28.7188 65.9219
Q24.6562 65.9219 20.0156 65.0312
Q15.375 64.1562 9.8125 62.3125
L9.8125 71.0938
Q15.4375 72.6562 20.3438 73.4375
Q25.25 74.2188 29.5938 74.2188
Q40.8281 74.2188 47.3594 69.1094
Q53.9062 64.0156 53.9062 55.3281
Q53.9062 49.2656 50.4375 45.0938
Q46.9688 40.9219 40.5781 39.3125" id="BitstreamVeraSans-Roman-33"/>
      </defs>
      <g transform="translate(7.7775 188.874737464)scale(0.24 -0.24)">
       <use xlink:href="#BitstreamVeraSans-Roman-2d"/>
       <use x="36.083984375" xlink:href="#BitstreamVeraSans-Roman-33"/>
      </g>
     </g>
    </g>
    <g id="ytick_6">
     <g id="line2d_32">
      <path d="
M42.6088 125.518
L557.426 125.518" style="fill:none;stroke:#000000;stroke-dasharray:1.000000,3.000000;stroke-dashoffset:0.0;stroke-linecap:butt;stroke-width:0.5;"/>
     </g>
     <g id="line2d_33">
      <defs>
       <path d="
M0 0
L4 0" id="mf3423703fe"/>
      </defs>
      <g>
       <use style="stroke:#000000;stroke-linecap:butt;stroke-width:0.5;" x="32.60875" xlink:href="#mf3423703fe" y="125.518366642"/>
      </g>
     </g>
     <g id="text_9">
      <!-- -2 -->
      <defs>
       <path d="
M19.1875 8.29688
L53.6094 8.29688
L53.6094 0
L7.32812 0
L7.32812 8.29688
Q12.9375 14.1094 22.625 23.8906
Q32.3281 33.6875 34.8125 36.5312
Q39.5469 41.8438 41.4219 45.5312
Q43.3125 49.2188 43.3125 52.7812
Q43.3125 58.5938 39.2344 62.25
Q35.1562 65.9219 28.6094 65.9219
Q23.9688 65.9219 18.8125 64.3125
Q13.6719 62.7031 7.8125 59.4219
L7.8125 69.3906
Q13.7656 71.7812 18.9375 73
Q24.125 74.2188 28.4219 74.2188
Q39.75 74.2188 46.4844 68.5469
Q53.2188 62.8906 53.2188 53.4219
Q53.2188 48.9219 51.5312 44.8906
Q49.8594 40.875 45.4062 35.4062
Q44.1875 33.9844 37.6406 27.2188
Q31.1094 20.4531 19.1875 8.29688" id="BitstreamVeraSans-Roman-32"/>
      </defs>
      <g transform="translate(8.2575 134.424616642)scale(0.24 -0.24)">
       <use xlink:href="#BitstreamVeraSans-Roman-2d"/>
       <use x="36.083984375" xlink:href="#BitstreamVeraSans-Roman-32"/>
      </g>
     </g>
    </g>
    <g id="ytick_7">
     <g id="line2d_34">
      <path d="
M42.6088 70.8976
L557.426 70.8976" style="fill:none;stroke:#000000;stroke-dasharray:1.000000,3.000000;stroke-dashoffset:0.0;stroke-linecap:butt;stroke-width:0.5;"/>
     </g>
     <g id="line2d_35">
      <defs>
       <path d="
M0 0
L4 0" id="mf3423703fe"/>
      </defs>
      <g>
       <use style="stroke:#000000;stroke-linecap:butt;stroke-width:0.5;" x="32.60875" xlink:href="#mf3423703fe" y="70.8976208212"/>
      </g>
     </g>
     <g id="text_10">
      <!-- -1 -->
      <g transform="translate(8.07 79.6463708212)scale(0.24 -0.24)">
       <use xlink:href="#BitstreamVeraSans-Roman-2d"/>
       <use x="36.083984375" xlink:href="#BitstreamVeraSans-Roman-31"/>
      </g>
     </g>
    </g>
    <g id="ytick_8">
     <g id="line2d_36">
      <path d="
M42.6088 16.2769
L557.426 16.2769" style="fill:none;stroke:#000000;stroke-dasharray:1.000000,3.000000;stroke-dashoffset:0.0;stroke-linecap:butt;stroke-width:0.5;"/>
     </g>
     <g id="line2d_37">
      <defs>
       <path d="
M0 0
L4 0" id="mf3423703fe"/>
      </defs>
      <g>
       <use style="stroke:#000000;stroke-linecap:butt;stroke-width:0.5;" x="32.60875" xlink:href="#mf3423703fe" y="16.276875"/>
      </g>
     </g>
     <g id="text_11">
      <!-- 0 -->
      <g transform="translate(16.515 25.0125)scale(0.24 -0.24)">
       <use xlink:href="#BitstreamVeraSans-Roman-30"/>
      </g>
     </g>
    </g>
    <g id="ytick_9">
     <g id="line2d_38">
      <defs>
       <path d="
M0 0
L2 0" id="mefac49182a"/>
      </defs>
      <g>
       <use style="stroke:#000000;stroke-linecap:butt;stroke-width:0.5;" x="32.60875" xlink:href="#mefac49182a" y="409.546244913"/>
      </g>
     </g>
    </g>
    <g id="ytick_10">
     <g id="line2d_39">
      <defs>
       <path d="
M0 0
L2 0" id="mefac49182a"/>
      </defs>
      <g>
       <use style="stroke:#000000;stroke-linecap:butt;stroke-width:0.5;" x="32.60875" xlink:href="#mefac49182a" y="387.697946584"/>
      </g>
     </g>
    </g>
    <g id="ytick_11">
     <g id="line2d_40">
      <defs>
       <path d="
M0 0
L2 0" id="mefac49182a"/>
      </defs>
      <g>
       <use style="stroke:#000000;stroke-linecap:butt;stroke-width:0.5;" x="32.60875" xlink:href="#mefac49182a" y="376.77379742"/>
      </g>
     </g>
    </g>
    <g id="ytick_12">
     <g id="line2d_41">
      <defs>
       <path d="
M0 0
L2 0" id="mefac49182a"/>
      </defs>
      <g>
       <use style="stroke:#000000;stroke-linecap:butt;stroke-width:0.5;" x="32.60875" xlink:href="#mefac49182a" y="365.849648256"/>
      </g>
     </g>
    </g>
    <g id="ytick_13">
     <g id="line2d_42">
      <defs>
       <path d="
M0 0
L2 0" id="mefac49182a"/>
      </defs>
      <g>
       <use style="stroke:#000000;stroke-linecap:butt;stroke-width:0.5;" x="32.60875" xlink:href="#mefac49182a" y="354.925499092"/>
      </g>
     </g>
    </g>
    <g id="ytick_14">
     <g id="line2d_43">
      <defs>
       <path d="
M0 0
L2 0" id="mefac49182a"/>
      </defs>
      <g>
       <use style="stroke:#000000;stroke-linecap:butt;stroke-width:0.5;" x="32.60875" xlink:href="#mefac49182a" y="333.077200763"/>
      </g>
     </g>
    </g>
    <g id="ytick_15">
     <g id="line2d_44">
      <defs>
       <path d="
M0 0
L2 0" id="mefac49182a"/>
      </defs>
      <g>
       <use style="stroke:#000000;stroke-linecap:butt;stroke-width:0.5;" x="32.60875" xlink:href="#mefac49182a" y="322.153051599"/>
      </g>
     </g>
    </g>
    <g id="ytick_16">
     <g id="line2d_45">
      <defs>
       <path d="
M0 0
L2 0" id="mefac49182a"/>
      </defs>
      <g>
       <use style="stroke:#000000;stroke-linecap:butt;stroke-width:0.5;" x="32.60875" xlink:href="#mefac49182a" y="311.228902435"/>
      </g>
     </g>
    </g>
    <g id="ytick_17">
     <g id="line2d_46">
      <defs>
       <path d="
M0 0
L2 0" id="mefac49182a"/>
      </defs>
      <g>
       <use style="stroke:#000000;stroke-linecap:butt;stroke-width:0.5;" x="32.60875" xlink:href="#mefac49182a" y="300.30475327"/>
      </g>
     </g>
    </g>
    <g id="ytick_18">
     <g id="line2d_47">
      <defs>
       <path d="
M0 0
L2 0" id="mefac49182a"/>
      </defs>
      <g>
       <use style="stroke:#000000;stroke-linecap:butt;stroke-width:0.5;" x="32.60875" xlink:href="#mefac49182a" y="289.380604106"/>
      </g>
     </g>
    </g>
    <g id="ytick_19">
     <g id="line2d_48">
      <defs>
       <path d="
M0 0
L2 0" id="mefac49182a"/>
      </defs>
      <g>
       <use style="stroke:#000000;stroke-linecap:butt;stroke-width:0.5;" x="32.60875" xlink:href="#mefac49182a" y="278.456454942"/>
      </g>
     </g>
    </g>
    <g id="ytick_20">
     <g id="line2d_49">
      <defs>
       <path d="
M0 0
L2 0" id="mefac49182a"/>
      </defs>
      <g>
       <use style="stroke:#000000;stroke-linecap:butt;stroke-width:0.5;" x="32.60875" xlink:href="#mefac49182a" y="267.532305778"/>
      </g>
     </g>
    </g>
    <g id="ytick_21">
     <g id="line2d_50">
      <defs>
       <path d="
M0 0
L2 0" id="mefac49182a"/>
      </defs>
      <g>
       <use style="stroke:#000000;stroke-linecap:butt;stroke-width:0.5;" x="32.60875" xlink:href="#mefac49182a" y="256.608156613"/>
      </g>
     </g>
    </g>
    <g id="ytick_22">
     <g id="line2d_51">
      <defs>
       <path d="
M0 0
L2 0" id="mefac49182a"/>
      </defs>
      <g>
       <use style="stroke:#000000;stroke-linecap:butt;stroke-width:0.5;" x="32.60875" xlink:href="#mefac49182a" y="245.684007449"/>
      </g>
     </g>
    </g>
    <g id="ytick_23">
     <g id="line2d_52">
      <defs>
       <path d="
M0 0
L2 0" id="mefac49182a"/>
      </defs>
      <g>
       <use style="stroke:#000000;stroke-linecap:butt;stroke-width:0.5;" x="32.60875" xlink:href="#mefac49182a" y="234.759858285"/>
      </g>
     </g>
    </g>
    <g id="ytick_24">
     <g id="line2d_53">
      <defs>
       <path d="
M0 0
L2 0" id="mefac49182a"/>
      </defs>
      <g>
       <use style="stroke:#000000;stroke-linecap:butt;stroke-width:0.5;" x="32.60875" xlink:href="#mefac49182a" y="223.835709121"/>
      </g>
     </g>
    </g>
    <g id="ytick_25">
     <g id="line2d_54">
      <defs>
       <path d="
M0 0
L2 0" id="mefac49182a"/>
      </defs>
      <g>
       <use style="stroke:#000000;stroke-linecap:butt;stroke-width:0.5;" x="32.60875" xlink:href="#mefac49182a" y="212.911559956"/>
      </g>
     </g>
    </g>
    <g id="ytick_26">
     <g id="line2d_55">
      <defs>
       <path d="
M0 0
L2 0" id="mefac49182a"/>
      </defs>
      <g>
       <use style="stroke:#000000;stroke-linecap:butt;stroke-width:0.5;" x="32.60875" xlink:href="#mefac49182a" y="201.987410792"/>
      </g>
     </g>
    </g>
    <g id="ytick_27">
     <g id="line2d_56">
      <defs>
       <path d="
M0 0
L2 0" id="mefac49182a"/>
      </defs>
      <g>
       <use style="stroke:#000000;stroke-linecap:butt;stroke-width:0.5;" x="32.60875" xlink:href="#mefac49182a" y="191.063261628"/>
      </g>
     </g>
    </g>
    <g id="ytick_28">
     <g id="line2d_57">
      <defs>
       <path d="
M0 0
L2 0" id="mefac49182a"/>
      </defs>
      <g>
       <use style="stroke:#000000;stroke-linecap:butt;stroke-width:0.5;" x="32.60875" xlink:href="#mefac49182a" y="180.139112464"/>
      </g>
     </g>
    </g>
    <g id="ytick_29">
     <g id="line2d_58">
      <defs>
       <path d="
M0 0
L2 0" id="mefac49182a"/>
      </defs>
      <g>
       <use style="stroke:#000000;stroke-linecap:butt;stroke-width:0.5;" x="32.60875" xlink:href="#mefac49182a" y="169.214963299"/>
      </g>
     </g>
    </g>
    <g id="ytick_30">
     <g id="line2d_59">
      <defs>
       <path d="
M0 0
L2 0" id="mefac49182a"/>
      </defs>
      <g>
       <use style="stroke:#000000;stroke-linecap:butt;stroke-width:0.5;" x="32.60875" xlink:href="#mefac49182a" y="158.290814135"/>
      </g>
     </g>
    </g>
    <g id="ytick_31">
     <g id="line2d_60">
      <defs>
       <path d="
M0 0
L2 0" id="mefac49182a"/>
      </defs>
      <g>
       <use style="stroke:#000000;stroke-linecap:butt;stroke-width:0.5;" x="32.60875" xlink:href="#mefac49182a" y="147.366664971"/>
      </g>
     </g>
    </g>
    <g id="ytick_32">
     <g id="line2d_61">
      <defs>
       <path d="
M0 0
L2 0" id="mefac49182a"/>
      </defs>
      <g>
       <use style="stroke:#000000;stroke-linecap:butt;stroke-width:0.5;" x="32.60875" xlink:href="#mefac49182a" y="136.442515807"/>
      </g>
     </g>
    </g>
    <g id="ytick_33">
     <g id="line2d_62">
      <defs>
       <path d="
M0 0
L2 0" id="mefac49182a"/>
      </defs>
      <g>
       <use style="stroke:#000000;stroke-linecap:butt;stroke-width:0.5;" x="32.60875" xlink:href="#mefac49182a" y="125.518366642"/>
      </g>
     </g>
    </g>
    <g id="ytick_34">
     <g id="line2d_63">
      <defs>
       <path d="
M0 0
L2 0" id="mefac49182a"/>
      </defs>
      <g>
       <use style="stroke:#000000;stroke-linecap:butt;stroke-width:0.5;" x="32.60875" xlink:href="#mefac49182a" y="114.594217478"/>
      </g>
     </g>
    </g>
    <g id="ytick_35">
     <g id="line2d_64">
      <defs>
       <path d="
M0 0
L2 0" id="mefac49182a"/>
      </defs>
      <g>
       <use style="stroke:#000000;stroke-linecap:butt;stroke-width:0.5;" x="32.60875" xlink:href="#mefac49182a" y="103.670068314"/>
      </g>
     </g>
    </g>
    <g id="ytick_36">
     <g id="line2d_65">
      <defs>
       <path d="
M0 0
L2 0" id="mefac49182a"/>
      </defs>
      <g>
       <use style="stroke:#000000;stroke-linecap:butt;stroke-width:0.5;" x="32.60875" xlink:href="#mefac49182a" y="92.7459191497"/>
      </g>
     </g>
    </g>
    <g id="ytick_37">
     <g id="line2d_66">
      <defs>
       <path d="
M0 0
L2 0" id="mefac49182a"/>
      </defs>
      <g>
       <use style="stroke:#000000;stroke-linecap:butt;stroke-width:0.5;" x="32.60875" xlink:href="#mefac49182a" y="81.8217699855"/>
      </g>
     </g>
    </g>
    <g id="ytick_38">
     <g id="line2d_67">
      <defs>
       <path d="
M0 0
L2 0" id="mefac49182a"/>
      </defs>
      <g>
       <use style="stroke:#000000;stroke-linecap:butt;stroke-width:0.5;" x="32.60875" xlink:href="#mefac49182a" y="70.8976208212"/>
      </g>
     </g>
    </g>
    <g id="ytick_39">
     <g id="line2d_68">
      <defs>
       <path d="
M0 0
L2 0" id="mefac49182a"/>
      </defs>
      <g>
       <use style="stroke:#000000;stroke-linecap:butt;stroke-width:0.5;" x="32.60875" xlink:href="#mefac49182a" y="59.973471657"/>
      </g>
     </g>
    </g>
    <g id="ytick_40">
     <g id="line2d_69">
      <defs>
       <path d="
M0 0
L2 0" id="mefac49182a"/>
      </defs>
      <g>
       <use style="stroke:#000000;stroke-linecap:butt;stroke-width:0.5;" x="32.60875" xlink:href="#mefac49182a" y="49.0493224927"/>
      </g>
     </g>
    </g>
    <g id="ytick_41">
     <g id="line2d_70">
      <defs>
       <path d="
M0 0
L2 0" id="mefac49182a"/>
      </defs>
      <g>
       <use style="stroke:#000000;stroke-linecap:butt;stroke-width:0.5;" x="32.60875" xlink:href="#mefac49182a" y="38.1251733285"/>
      </g>
     </g>
    </g>
    <g id="ytick_42">
     <g id="line2d_71">
      <defs>
       <path d="
M0 0
L2 0" id="mefac49182a"/>
      </defs>
      <g>
       <use style="stroke:#000000;stroke-linecap:butt;stroke-width:0.5;" x="32.60875" xlink:href="#mefac49182a" y="27.2010241642"/>
      </g>
     </g>
    </g>
   </g>
   <g id="patch_3">
    <path d="
M42.6088 16.2769
L557.426 16.2769" style="fill:none;stroke:#000000;stroke-width:0.8;"/>
   </g>
   <g id="patch_4">
    <path d="
M32.6088 412.239
L32.6088 8.51291" style="fill:none;stroke:#000000;stroke-width:0.8;"/>
   </g>
  </g>
 </g>
 <defs>
  <clipPath id="p51b3ba9df9">
   <rect height="403.726153846" width="514.8175" x="42.60875" y="8.51291050296"/>
  </clipPath>
 </defs>
</svg>
