<?xml version="1.0" encoding="utf-8" standalone="no"?>
<!DOCTYPE svg PUBLIC "-//W3C//DTD SVG 1.1//EN"
  "http://www.w3.org/Graphics/SVG/1.1/DTD/svg11.dtd">
<!-- Created with matplotlib (http://matplotlib.sourceforge.net/) -->
<svg height="419pt" version="1.1" viewBox="0 0 562 419" width="562pt" xmlns="http://www.w3.org/2000/svg" xmlns:xlink="http://www.w3.org/1999/xlink">
 <defs>
  <style type="text/css">
*{stroke-linecap:square;stroke-linejoin:round;}
  </style>
 </defs>
 <g id="figure_1">
  <g id="patch_1">
   <path d="
M4.44089e-16 419.769
L562.63 419.769
L562.63 0
L4.44089e-16 0
z
" style="fill:#ffffff;"/>
  </g>
  <g id="axes_1">
   <g id="patch_2">
    <path d="
M15.4995 408.726
L555.43 408.726
L555.43 7.2
L15.4995 7.2
z
" style="fill:#ffffff;"/>
   </g>
   <g id="line2d_1">
    <path clip-path="url(#pc4ff94fdb4)" d="
M25.8828 401.004
L25.9312 401.004
L25.9887 20.4994
L26.0502 20.4994
L26.1127 15.7911
L26.1778 15.7911
L26.1778 14.9217
L26.2449 14.9217
L26.2449 14.9217
L26.3111 17.533
L26.3792 17.533
L26.449 22.5341
L26.5188 22.5341
L26.5894 26.5606
L26.6602 26.5606
L26.732 28.9238
L26.8048 28.9238
L26.8769 30.8398
L26.9501 30.8398
L27.0234 32.9792
L27.0971 32.9792
L27.1711 34.9786
L27.2465 34.9786
L27.3202 37.197
L27.396 37.197
L27.4722 39.0467
L27.5467 39.0467
L27.6224 40.5679
L27.6987 40.5679
L27.7755 41.7936
L27.8531 41.7936
L27.9291 42.2154
L28.085 42.3136
L28.162 42.9023
L28.2404 42.9023
L28.3192 43.3535
L28.396 43.3535
L28.4744 43.6636
L28.5533 43.6636
L28.6311 43.8217
L28.7112 43.8217
L28.7908 44.1347
L28.8703 44.1347
L28.9482 44.5775
L29.0281 44.5775
L29.107 45.0064
L29.1881 45.0064
L29.2698 45.4512
L29.3494 45.4512
L29.4302 46.0567
L29.5096 46.0567
L29.5895 46.6953
L29.6706 46.6953
L29.7529 47.28
L29.8339 47.28
L29.9145 47.7828
L29.9951 47.7828
L30.076 48.2843
L30.157 48.2843
L30.2386 48.8249
L30.3215 48.8249
L30.4014 49.3767
L30.4835 49.3767
L30.5661 49.9081
L30.6481 49.9081
L30.7302 50.4549
L30.8134 50.4549
L30.8957 50.8121
L31.0628 50.9058
L31.1439 51.171
L31.2263 51.171
L31.3095 51.5151
L31.3947 51.5151
L31.478 51.8837
L31.5606 51.8837
L31.6422 52.1468
L31.8088 52.2522
L31.8929 52.4528
L32.0566 52.5546
L32.142 52.7863
L32.2255 52.7863
L32.3118 53.0797
L32.3957 53.0797
L32.478 53.3489
L32.5624 53.3489
L32.6472 53.6937
L32.7314 53.6937
L32.8168 54.0001
L32.986 54.1078
L33.0702 54.3019
L33.2403 54.4079
L33.3242 54.6298
L33.4088 54.6298
L33.4921 54.8512
L33.5775 54.8512
L33.6621 55.1143
L33.7455 55.1143
L33.8322 55.3736
L33.9189 55.3736
L34.0039 55.679
L34.0897 55.679
L34.1769 56.0059
L34.2624 56.0059
L34.3467 56.3
L34.4328 56.3
L34.5187 56.6081
L34.6028 56.6081
L34.69 56.9226
L34.7753 56.9226
L34.8621 57.2832
L34.9495 57.2832
L35.0361 57.6853
L35.1214 57.6853
L35.2069 58.0924
L35.2926 58.0924
L35.378 58.456
L35.4652 58.456
L35.5504 58.7857
L35.6358 58.7857
L35.722 59.091
L35.8092 59.091
L35.8942 59.3328
L36.0677 59.4374
L36.1576 59.647
L36.3285 59.7395
L36.4144 59.9328
L36.589 60.0275
L36.6767 60.1937
L36.8509 60.2655
L36.9378 60.3928
L37.1104 60.4505
L37.1981 60.5767
L37.3738 60.6528
L37.4621 60.8144
L37.6368 60.8931
L37.7226 61.0573
L37.9001 61.135
L37.9897 61.287
L38.1646 61.3599
L38.2529 61.5194
L38.4289 61.6024
L38.5177 61.7537
L38.6929 61.8267
L38.7828 61.9675
L38.9587 62.036
L39.0449 62.1751
L39.2231 62.2422
L39.309 62.3691
L39.4868 62.4443
L39.5752 62.6034
L39.7522 62.6852
L39.8407 62.8474
L40.0156 62.9264
L40.1071 63.0781
L40.2837 63.1552
L40.3744 63.3159
L40.547 63.3905
L40.6354 63.5405
L40.8151 63.6164
L40.9048 63.7751
L41.0833 63.8576
L41.1729 64.0135
L41.3522 64.0908
L41.4407 64.2271
L41.6197 64.2891
L41.7097 64.3977
L41.9776 64.4963
L42.0663 64.5878
L42.3348 64.6845
L42.4237 64.7861
L42.6876 64.8769
L42.7787 64.9666
L43.0487 65.0547
L43.1385 65.1275
L43.4996 65.2266
L43.5881 65.298
L43.9496 65.3977
L44.0415 65.4564
L44.5869 65.5626
L44.6745 65.6113
L45.2157 65.7207
L45.3047 65.7578
L46.7609 65.8654
L46.8495 65.8726
L47.9442 65.7701
L48.0343 65.7471
L49.0405 65.6428
L49.1317 65.6195
L49.6828 65.5276
L49.7757 65.4832
L50.233 65.393
L50.3258 65.347
L50.9724 65.236
L51.063 65.202
L52.1653 65.0936
L52.2574 65.0776
L53.46 64.9673
L53.553 64.955
L55.9762 64.8491
L56.0691 64.8314
L57.373 64.7324
L57.467 64.7071
L58.2165 64.6076
L58.3102 64.5781
L59.059 64.4777
L59.1526 64.4486
L59.8105 64.3543
L59.9044 64.3204
L60.5618 64.2144
L60.6562 64.1946
L61.4992 64.0952
L61.5921 64.0603
L62.156 63.9552
L62.2495 63.9125
L62.8115 63.8149
L62.9094 63.7813
L63.5716 63.6723
L63.6644 63.6355
L64.3287 63.5286
L64.4235 63.4916
L65.0877 63.3862
L65.183 63.3531
L65.9399 63.244
L66.035 63.2084
L66.7939 63.1034
L66.8886 63.0796
L67.9397 62.9702
L68.0348 62.9437
L68.9849 62.8414
L69.0795 62.8241
L71.462 62.7171
L71.5565 62.7081
L73.0949 62.6067
L73.1907 62.5873
L74.2428 62.4802
L74.34 62.4601
L76.3603 62.3532
L76.4543 62.3433
L79.5493 62.2346
L79.6473 62.2289
L81.9626 62.1242
L82.06 62.1093
L83.8032 61.9999
L83.8989 61.9838
L84.9718 61.8818
L85.0687 61.8577
L86.1355 61.7481
L86.2282 61.7336
L87.6923 61.6257
L87.7902 61.6084
L89.1562 61.498
L89.2552 61.4813
L90.6162 61.3727
L90.7131 61.3582
L93.2612 61.2496
L93.3595 61.2444
L111.434 61.3534
L111.532 61.3577
L120.699 61.2509
L120.796 61.2422
L123.3 61.133
L123.401 61.1248
L126.513 61.0159
L126.613 61.0113
L131.739 60.9018
L131.843 60.8962
L138.196 60.7857
L138.3 60.7836
L158.204 60.6738
L158.309 60.6658
L161.365 60.5574
L161.47 60.5509
L165.354 60.4416
L165.455 60.4367
L169.548 60.3277
L169.654 60.3199
L173.448 60.2091
L173.548 60.2033
L177.667 60.0942
L177.77 60.0877
L181.056 59.9777
L181.16 59.9692
L184.243 59.8596
L184.344 59.8534
L188.781 59.7436
L188.885 59.7388
L192.709 59.6294
L192.812 59.6217
L196.848 59.511
L196.949 59.5052
L200.884 59.3955
L200.988 59.3899
L205.887 59.2807
L205.99 59.275
L210.251 59.1654
L210.355 59.159
L213.269 59.0496
L213.371 59.0417
L216.393 58.9334
L216.498 58.926
L220.144 58.8159
L220.251 58.8104
L224.318 58.7017
L224.422 58.6962
L228.065 58.5862
L228.172 58.5788
L231.196 58.4703
L231.301 58.463
L234.657 58.3545
L234.762 58.347
L237.895 58.2367
L238 58.2281
L240.948 58.1191
L241.05 58.1115
L244.42 58.0016
L244.525 57.9957
L247.986 57.8857
L248.09 57.8772
L250.937 57.7676
L251.042 57.7594
L253.89 57.6499
L253.995 57.6413
L256.728 57.5329
L256.834 57.5245
L259.571 57.4171
L259.676 57.4095
L262.611 57.3009
L262.716 57.2929
L265.778 57.1828
L265.885 57.1745
L268.419 57.0671
L268.527 57.0575
L270.954 56.9491
L271.061 56.9393
L273.499 56.8286
L273.606 56.8192
L276.15 56.7099
L276.259 56.7001
L278.801 56.5906
L278.909 56.5814
L281.447 56.4718
L281.555 56.4626
L284.299 56.3531
L284.405 56.3443
L287.267 56.2358
L287.376 56.2278
L290.56 56.1203
L290.663 56.1133
L294.062 56.0026
L294.171 55.9949
L297.144 55.8866
L297.248 55.8782
L300.547 55.7685
L300.652 55.7618
L304.28 55.653
L304.386 55.646
L307.476 55.5385
L307.584 55.53
L310.786 55.4205
L310.897 55.4139
L315.365 55.304
L315.468 55.2986
L319.742 55.1898
L319.848 55.1849
L324.855 55.0759
L324.964 55.0708
L329.143 54.9616
L329.249 54.9553
L333.315 54.8458
L333.424 54.8398
L337.388 54.7312
L337.493 54.7244
L341.028 54.6147
L341.136 54.6076
L344.679 54.4984
L344.789 54.4916
L348.758 54.382
L348.865 54.3763
L353.163 54.2679
L353.163 54.2651
L357.667 54.154
L357.771 54.1487
L361.975 54.0396
L362.085 54.034
L366.61 53.9234
L366.718 53.9181
L370.903 53.8089
L371.01 53.8026
L375.213 53.6918
L375.32 53.6867
L379.844 53.5773
L379.953 53.5719
L384.815 53.4622
L384.925 53.4573
L390.322 53.3468
L390.434 53.3431
L396.807 53.2335
L396.912 53.2298
L403.078 53.1188
L403.188 53.115
L409.25 53.0049
L409.358 53.0001
L415.554 52.8904
L415.661 52.8865
L421.942 52.7771
L422.051 52.7732
L428.794 52.6622
L428.904 52.6587
L435.765 52.5485
L435.87 52.5446
L441.859 52.4348
L441.969 52.4304
L447.282 52.321
L447.393 52.316
L452.621 52.2069
L452.621 52.2048
L457.533 52.0947
L457.641 52.0899
L462.219 51.9807
L462.33 51.9753
L466.714 51.8671
L466.714 51.8642
L470.866 51.7554
L470.976 51.7493
L475.565 51.6402
L475.67 51.6352
L480.27 51.5265
L480.378 51.5215
L484.636 51.4133
L484.747 51.4073
L489.017 51.2966
L489.126 51.2909
L493.418 51.1806
L493.525 51.1753
L498.225 51.066
L498.225 51.0634
L502.611 50.9548
L502.611 50.9519
L506.893 50.8429
L506.893 50.8401
L511.395 50.7308
L511.506 50.7257
L516.451 50.6153
L516.558 50.6105
L522.256 50.4996
L522.256 50.4975
L528.749 50.3868
L528.857 50.3827
L534.568 50.2735
L534.568 50.2712
L540.418 50.1621
L540.418 50.16
L545.047 50.0719
L545.047 50.0697" style="fill:none;stroke:#ff0000;stroke-width:0.5;"/>
   </g>
   <g id="matplotlib.axis_1">
    <g id="xtick_1">
     <g id="line2d_2">
      <defs>
       <path d="
M0 0
L0 -4" id="macfa92c2db"/>
      </defs>
      <g>
       <use style="stroke:#000000;stroke-linecap:butt;stroke-width:0.5;" x="25.8828125" xlink:href="#macfa92c2db" y="401.004497041"/>
      </g>
     </g>
    </g>
    <g id="xtick_2">
     <g id="line2d_3">
      <defs>
       <path d="
M0 0
L0 -4" id="macfa92c2db"/>
      </defs>
      <g>
       <use style="stroke:#000000;stroke-linecap:butt;stroke-width:0.5;" x="129.721464602" xlink:href="#macfa92c2db" y="401.004497041"/>
      </g>
     </g>
     <g id="text_1">
      <!-- 2e7 -->
      <defs>
       <path d="
M19.1875 8.29688
L53.6094 8.29688
L53.6094 0
L7.32812 0
L7.32812 8.29688
Q12.9375 14.1094 22.625 23.8906
Q32.3281 33.6875 34.8125 36.5312
Q39.5469 41.8438 41.4219 45.5312
Q43.3125 49.2188 43.3125 52.7812
Q43.3125 58.5938 39.2344 62.25
Q35.1562 65.9219 28.6094 65.9219
Q23.9688 65.9219 18.8125 64.3125
Q13.6719 62.7031 7.8125 59.4219
L7.8125 69.3906
Q13.7656 71.7812 18.9375 73
Q24.125 74.2188 28.4219 74.2188
Q39.75 74.2188 46.4844 68.5469
Q53.2188 62.8906 53.2188 53.4219
Q53.2188 48.9219 51.5312 44.8906
Q49.8594 40.875 45.4062 35.4062
Q44.1875 33.9844 37.6406 27.2188
Q31.1094 20.4531 19.1875 8.29688" id="BitstreamVeraSans-Roman-32"/>
       <path d="
M56.2031 29.5938
L56.2031 25.2031
L14.8906 25.2031
Q15.4844 15.9219 20.4844 11.0625
Q25.4844 6.20312 34.4219 6.20312
Q39.5938 6.20312 44.4531 7.46875
Q49.3125 8.73438 54.1094 11.2812
L54.1094 2.78125
Q49.2656 0.734375 44.1875 -0.34375
Q39.1094 -1.42188 33.8906 -1.42188
Q20.7969 -1.42188 13.1562 6.1875
Q5.51562 13.8125 5.51562 26.8125
Q5.51562 40.2344 12.7656 48.1094
Q20.0156 56 32.3281 56
Q43.3594 56 49.7812 48.8906
Q56.2031 41.7969 56.2031 29.5938
M47.2188 32.2344
Q47.125 39.5938 43.0938 43.9844
Q39.0625 48.3906 32.4219 48.3906
Q24.9062 48.3906 20.3906 44.1406
Q15.875 39.8906 15.1875 32.1719
z
" id="BitstreamVeraSans-Roman-65"/>
       <path d="
M8.20312 72.9062
L55.0781 72.9062
L55.0781 68.7031
L28.6094 0
L18.3125 0
L43.2188 64.5938
L8.20312 64.5938
z
" id="BitstreamVeraSans-Roman-37"/>
      </defs>
      <g transform="translate(121.076152102 412.426372041)scale(0.1 -0.1)">
       <use xlink:href="#BitstreamVeraSans-Roman-32"/>
       <use x="63.623046875" xlink:href="#BitstreamVeraSans-Roman-65"/>
       <use x="125.146484375" xlink:href="#BitstreamVeraSans-Roman-37"/>
      </g>
     </g>
    </g>
    <g id="xtick_3">
     <g id="line2d_4">
      <defs>
       <path d="
M0 0
L0 -4" id="macfa92c2db"/>
      </defs>
      <g>
       <use style="stroke:#000000;stroke-linecap:butt;stroke-width:0.5;" x="233.560116704" xlink:href="#macfa92c2db" y="401.004497041"/>
      </g>
     </g>
     <g id="text_2">
      <!-- 4e7 -->
      <defs>
       <path d="
M37.7969 64.3125
L12.8906 25.3906
L37.7969 25.3906
z

M35.2031 72.9062
L47.6094 72.9062
L47.6094 25.3906
L58.0156 25.3906
L58.0156 17.1875
L47.6094 17.1875
L47.6094 0
L37.7969 0
L37.7969 17.1875
L4.89062 17.1875
L4.89062 26.7031
z
" id="BitstreamVeraSans-Roman-34"/>
      </defs>
      <g transform="translate(224.792929204 412.295122041)scale(0.1 -0.1)">
       <use xlink:href="#BitstreamVeraSans-Roman-34"/>
       <use x="63.623046875" xlink:href="#BitstreamVeraSans-Roman-65"/>
       <use x="125.146484375" xlink:href="#BitstreamVeraSans-Roman-37"/>
      </g>
     </g>
    </g>
    <g id="xtick_4">
     <g id="line2d_5">
      <defs>
       <path d="
M0 0
L0 -4" id="macfa92c2db"/>
      </defs>
      <g>
       <use style="stroke:#000000;stroke-linecap:butt;stroke-width:0.5;" x="337.398768807" xlink:href="#macfa92c2db" y="401.004497041"/>
      </g>
     </g>
     <g id="text_3">
      <!-- 6e7 -->
      <defs>
       <path d="
M33.0156 40.375
Q26.375 40.375 22.4844 35.8281
Q18.6094 31.2969 18.6094 23.3906
Q18.6094 15.5312 22.4844 10.9531
Q26.375 6.39062 33.0156 6.39062
Q39.6562 6.39062 43.5312 10.9531
Q47.4062 15.5312 47.4062 23.3906
Q47.4062 31.2969 43.5312 35.8281
Q39.6562 40.375 33.0156 40.375
M52.5938 71.2969
L52.5938 62.3125
Q48.875 64.0625 45.0938 64.9844
Q41.3125 65.9219 37.5938 65.9219
Q27.8281 65.9219 22.6719 59.3281
Q17.5312 52.7344 16.7969 39.4062
Q19.6719 43.6562 24.0156 45.9219
Q28.375 48.1875 33.5938 48.1875
Q44.5781 48.1875 50.9531 41.5156
Q57.3281 34.8594 57.3281 23.3906
Q57.3281 12.1562 50.6875 5.35938
Q44.0469 -1.42188 33.0156 -1.42188
Q20.3594 -1.42188 13.6719 8.26562
Q6.98438 17.9688 6.98438 36.375
Q6.98438 53.6562 15.1875 63.9375
Q23.3906 74.2188 37.2031 74.2188
Q40.9219 74.2188 44.7031 73.4844
Q48.4844 72.75 52.5938 71.2969" id="BitstreamVeraSans-Roman-36"/>
      </defs>
      <g transform="translate(328.736268807 412.426372041)scale(0.1 -0.1)">
       <use xlink:href="#BitstreamVeraSans-Roman-36"/>
       <use x="63.623046875" xlink:href="#BitstreamVeraSans-Roman-65"/>
       <use x="125.146484375" xlink:href="#BitstreamVeraSans-Roman-37"/>
      </g>
     </g>
    </g>
    <g id="xtick_5">
     <g id="line2d_6">
      <defs>
       <path d="
M0 0
L0 -4" id="macfa92c2db"/>
      </defs>
      <g>
       <use style="stroke:#000000;stroke-linecap:butt;stroke-width:0.5;" x="441.237420909" xlink:href="#macfa92c2db" y="401.004497041"/>
      </g>
     </g>
     <g id="text_4">
      <!-- 8e7 -->
      <defs>
       <path d="
M31.7812 34.625
Q24.75 34.625 20.7188 30.8594
Q16.7031 27.0938 16.7031 20.5156
Q16.7031 13.9219 20.7188 10.1562
Q24.75 6.39062 31.7812 6.39062
Q38.8125 6.39062 42.8594 10.1719
Q46.9219 13.9688 46.9219 20.5156
Q46.9219 27.0938 42.8906 30.8594
Q38.875 34.625 31.7812 34.625
M21.9219 38.8125
Q15.5781 40.375 12.0312 44.7188
Q8.5 49.0781 8.5 55.3281
Q8.5 64.0625 14.7188 69.1406
Q20.9531 74.2188 31.7812 74.2188
Q42.6719 74.2188 48.875 69.1406
Q55.0781 64.0625 55.0781 55.3281
Q55.0781 49.0781 51.5312 44.7188
Q48 40.375 41.7031 38.8125
Q48.8281 37.1562 52.7969 32.3125
Q56.7812 27.4844 56.7812 20.5156
Q56.7812 9.90625 50.3125 4.23438
Q43.8438 -1.42188 31.7812 -1.42188
Q19.7344 -1.42188 13.25 4.23438
Q6.78125 9.90625 6.78125 20.5156
Q6.78125 27.4844 10.7812 32.3125
Q14.7969 37.1562 21.9219 38.8125
M18.3125 54.3906
Q18.3125 48.7344 21.8438 45.5625
Q25.3906 42.3906 31.7812 42.3906
Q38.1406 42.3906 41.7188 45.5625
Q45.3125 48.7344 45.3125 54.3906
Q45.3125 60.0625 41.7188 63.2344
Q38.1406 66.4062 31.7812 66.4062
Q25.3906 66.4062 21.8438 63.2344
Q18.3125 60.0625 18.3125 54.3906" id="BitstreamVeraSans-Roman-38"/>
      </defs>
      <g transform="translate(432.564764659 412.426372041)scale(0.1 -0.1)">
       <use xlink:href="#BitstreamVeraSans-Roman-38"/>
       <use x="63.623046875" xlink:href="#BitstreamVeraSans-Roman-65"/>
       <use x="125.146484375" xlink:href="#BitstreamVeraSans-Roman-37"/>
      </g>
     </g>
    </g>
    <g id="xtick_6">
     <g id="line2d_7">
      <defs>
       <path d="
M0 0
L0 -4" id="macfa92c2db"/>
      </defs>
      <g>
       <use style="stroke:#000000;stroke-linecap:butt;stroke-width:0.5;" x="545.076073011" xlink:href="#macfa92c2db" y="401.004497041"/>
      </g>
     </g>
     <g id="text_5">
      <!-- 1e8 -->
      <defs>
       <path d="
M12.4062 8.29688
L28.5156 8.29688
L28.5156 63.9219
L10.9844 60.4062
L10.9844 69.3906
L28.4219 72.9062
L38.2812 72.9062
L38.2812 8.29688
L54.3906 8.29688
L54.3906 0
L12.4062 0
z
" id="BitstreamVeraSans-Roman-31"/>
      </defs>
      <g transform="translate(536.528416761 412.426372041)scale(0.1 -0.1)">
       <use xlink:href="#BitstreamVeraSans-Roman-31"/>
       <use x="63.623046875" xlink:href="#BitstreamVeraSans-Roman-65"/>
       <use x="125.146484375" xlink:href="#BitstreamVeraSans-Roman-38"/>
      </g>
     </g>
    </g>
    <g id="xtick_7">
     <g id="line2d_8">
      <defs>
       <path d="
M0 0
L0 -2" id="m20327d5932"/>
      </defs>
      <g>
       <use style="stroke:#000000;stroke-linecap:butt;stroke-width:0.5;" x="51.8424755255" xlink:href="#m20327d5932" y="401.004497041"/>
      </g>
     </g>
    </g>
    <g id="xtick_8">
     <g id="line2d_9">
      <defs>
       <path d="
M0 0
L0 -2" id="m20327d5932"/>
      </defs>
      <g>
       <use style="stroke:#000000;stroke-linecap:butt;stroke-width:0.5;" x="77.8021385511" xlink:href="#m20327d5932" y="401.004497041"/>
      </g>
     </g>
    </g>
    <g id="xtick_9">
     <g id="line2d_10">
      <defs>
       <path d="
M0 0
L0 -2" id="m20327d5932"/>
      </defs>
      <g>
       <use style="stroke:#000000;stroke-linecap:butt;stroke-width:0.5;" x="103.761801577" xlink:href="#m20327d5932" y="401.004497041"/>
      </g>
     </g>
    </g>
    <g id="xtick_10">
     <g id="line2d_11">
      <defs>
       <path d="
M0 0
L0 -2" id="m20327d5932"/>
      </defs>
      <g>
       <use style="stroke:#000000;stroke-linecap:butt;stroke-width:0.5;" x="155.681127628" xlink:href="#m20327d5932" y="401.004497041"/>
      </g>
     </g>
    </g>
    <g id="xtick_11">
     <g id="line2d_12">
      <defs>
       <path d="
M0 0
L0 -2" id="m20327d5932"/>
      </defs>
      <g>
       <use style="stroke:#000000;stroke-linecap:butt;stroke-width:0.5;" x="181.640790653" xlink:href="#m20327d5932" y="401.004497041"/>
      </g>
     </g>
    </g>
    <g id="xtick_12">
     <g id="line2d_13">
      <defs>
       <path d="
M0 0
L0 -2" id="m20327d5932"/>
      </defs>
      <g>
       <use style="stroke:#000000;stroke-linecap:butt;stroke-width:0.5;" x="207.600453679" xlink:href="#m20327d5932" y="401.004497041"/>
      </g>
     </g>
    </g>
    <g id="xtick_13">
     <g id="line2d_14">
      <defs>
       <path d="
M0 0
L0 -2" id="m20327d5932"/>
      </defs>
      <g>
       <use style="stroke:#000000;stroke-linecap:butt;stroke-width:0.5;" x="259.51977973" xlink:href="#m20327d5932" y="401.004497041"/>
      </g>
     </g>
    </g>
    <g id="xtick_14">
     <g id="line2d_15">
      <defs>
       <path d="
M0 0
L0 -2" id="m20327d5932"/>
      </defs>
      <g>
       <use style="stroke:#000000;stroke-linecap:butt;stroke-width:0.5;" x="285.479442755" xlink:href="#m20327d5932" y="401.004497041"/>
      </g>
     </g>
    </g>
    <g id="xtick_15">
     <g id="line2d_16">
      <defs>
       <path d="
M0 0
L0 -2" id="m20327d5932"/>
      </defs>
      <g>
       <use style="stroke:#000000;stroke-linecap:butt;stroke-width:0.5;" x="311.439105781" xlink:href="#m20327d5932" y="401.004497041"/>
      </g>
     </g>
    </g>
    <g id="xtick_16">
     <g id="line2d_17">
      <defs>
       <path d="
M0 0
L0 -2" id="m20327d5932"/>
      </defs>
      <g>
       <use style="stroke:#000000;stroke-linecap:butt;stroke-width:0.5;" x="363.358431832" xlink:href="#m20327d5932" y="401.004497041"/>
      </g>
     </g>
    </g>
    <g id="xtick_17">
     <g id="line2d_18">
      <defs>
       <path d="
M0 0
L0 -2" id="m20327d5932"/>
      </defs>
      <g>
       <use style="stroke:#000000;stroke-linecap:butt;stroke-width:0.5;" x="389.318094858" xlink:href="#m20327d5932" y="401.004497041"/>
      </g>
     </g>
    </g>
    <g id="xtick_18">
     <g id="line2d_19">
      <defs>
       <path d="
M0 0
L0 -2" id="m20327d5932"/>
      </defs>
      <g>
       <use style="stroke:#000000;stroke-linecap:butt;stroke-width:0.5;" x="415.277757883" xlink:href="#m20327d5932" y="401.004497041"/>
      </g>
     </g>
    </g>
    <g id="xtick_19">
     <g id="line2d_20">
      <defs>
       <path d="
M0 0
L0 -2" id="m20327d5932"/>
      </defs>
      <g>
       <use style="stroke:#000000;stroke-linecap:butt;stroke-width:0.5;" x="467.197083934" xlink:href="#m20327d5932" y="401.004497041"/>
      </g>
     </g>
    </g>
    <g id="xtick_20">
     <g id="line2d_21">
      <defs>
       <path d="
M0 0
L0 -2" id="m20327d5932"/>
      </defs>
      <g>
       <use style="stroke:#000000;stroke-linecap:butt;stroke-width:0.5;" x="493.15674696" xlink:href="#m20327d5932" y="401.004497041"/>
      </g>
     </g>
    </g>
    <g id="xtick_21">
     <g id="line2d_22">
      <defs>
       <path d="
M0 0
L0 -2" id="m20327d5932"/>
      </defs>
      <g>
       <use style="stroke:#000000;stroke-linecap:butt;stroke-width:0.5;" x="519.116409985" xlink:href="#m20327d5932" y="401.004497041"/>
      </g>
     </g>
    </g>
   </g>
   <g id="matplotlib.axis_2">
    <g id="ytick_1">
     <g id="line2d_23">
      <defs>
       <path d="
M0 0
L4 0" id="m3502574d3a"/>
      </defs>
      <g>
       <use style="stroke:#000000;stroke-linecap:butt;stroke-width:0.5;" x="25.8828125" xlink:href="#m3502574d3a" y="401.004497041"/>
      </g>
     </g>
    </g>
    <g id="ytick_2">
     <g id="line2d_24">
      <defs>
       <path d="
M0 0
L4 0" id="m3502574d3a"/>
      </defs>
      <g>
       <use style="stroke:#000000;stroke-linecap:butt;stroke-width:0.5;" x="25.8828125" xlink:href="#m3502574d3a" y="328.560790329"/>
      </g>
     </g>
     <g id="text_6">
      <!-- 0.1 -->
      <defs>
       <path d="
M31.7812 66.4062
Q24.1719 66.4062 20.3281 58.9062
Q16.5 51.4219 16.5 36.375
Q16.5 21.3906 20.3281 13.8906
Q24.1719 6.39062 31.7812 6.39062
Q39.4531 6.39062 43.2812 13.8906
Q47.125 21.3906 47.125 36.375
Q47.125 51.4219 43.2812 58.9062
Q39.4531 66.4062 31.7812 66.4062
M31.7812 74.2188
Q44.0469 74.2188 50.5156 64.5156
Q56.9844 54.8281 56.9844 36.375
Q56.9844 17.9688 50.5156 8.26562
Q44.0469 -1.42188 31.7812 -1.42188
Q19.5312 -1.42188 13.0625 8.26562
Q6.59375 17.9688 6.59375 36.375
Q6.59375 54.8281 13.0625 64.5156
Q19.5312 74.2188 31.7812 74.2188" id="BitstreamVeraSans-Roman-30"/>
       <path d="
M10.6875 12.4062
L21 12.4062
L21 0
L10.6875 0
z
" id="BitstreamVeraSans-Roman-2e"/>
      </defs>
      <g transform="translate(7.5625 332.200634079)scale(0.1 -0.1)">
       <use xlink:href="#BitstreamVeraSans-Roman-30"/>
       <use x="63.623046875" xlink:href="#BitstreamVeraSans-Roman-2e"/>
       <use x="95.41015625" xlink:href="#BitstreamVeraSans-Roman-31"/>
      </g>
     </g>
    </g>
    <g id="ytick_3">
     <g id="line2d_25">
      <defs>
       <path d="
M0 0
L4 0" id="m3502574d3a"/>
      </defs>
      <g>
       <use style="stroke:#000000;stroke-linecap:butt;stroke-width:0.5;" x="25.8828125" xlink:href="#m3502574d3a" y="256.117083617"/>
      </g>
     </g>
     <g id="text_7">
      <!-- 0.2 -->
      <g transform="translate(7.640625 259.756927367)scale(0.1 -0.1)">
       <use xlink:href="#BitstreamVeraSans-Roman-30"/>
       <use x="63.623046875" xlink:href="#BitstreamVeraSans-Roman-2e"/>
       <use x="95.41015625" xlink:href="#BitstreamVeraSans-Roman-32"/>
      </g>
     </g>
    </g>
    <g id="ytick_4">
     <g id="line2d_26">
      <defs>
       <path d="
M0 0
L4 0" id="m3502574d3a"/>
      </defs>
      <g>
       <use style="stroke:#000000;stroke-linecap:butt;stroke-width:0.5;" x="25.8828125" xlink:href="#m3502574d3a" y="183.673376905"/>
      </g>
     </g>
     <g id="text_8">
      <!-- 0.3 -->
      <defs>
       <path d="
M40.5781 39.3125
Q47.6562 37.7969 51.625 33
Q55.6094 28.2188 55.6094 21.1875
Q55.6094 10.4062 48.1875 4.48438
Q40.7656 -1.42188 27.0938 -1.42188
Q22.5156 -1.42188 17.6562 -0.515625
Q12.7969 0.390625 7.625 2.20312
L7.625 11.7188
Q11.7188 9.32812 16.5938 8.10938
Q21.4844 6.89062 26.8125 6.89062
Q36.0781 6.89062 40.9375 10.5469
Q45.7969 14.2031 45.7969 21.1875
Q45.7969 27.6406 41.2812 31.2656
Q36.7656 34.9062 28.7188 34.9062
L20.2188 34.9062
L20.2188 43.0156
L29.1094 43.0156
Q36.375 43.0156 40.2344 45.9219
Q44.0938 48.8281 44.0938 54.2969
Q44.0938 59.9062 40.1094 62.9062
Q36.1406 65.9219 28.7188 65.9219
Q24.6562 65.9219 20.0156 65.0312
Q15.375 64.1562 9.8125 62.3125
L9.8125 71.0938
Q15.4375 72.6562 20.3438 73.4375
Q25.25 74.2188 29.5938 74.2188
Q40.8281 74.2188 47.3594 69.1094
Q53.9062 64.0156 53.9062 55.3281
Q53.9062 49.2656 50.4375 45.0938
Q46.9688 40.9219 40.5781 39.3125" id="BitstreamVeraSans-Roman-33"/>
      </defs>
      <g transform="translate(7.440625 187.313220655)scale(0.1 -0.1)">
       <use xlink:href="#BitstreamVeraSans-Roman-30"/>
       <use x="63.623046875" xlink:href="#BitstreamVeraSans-Roman-2e"/>
       <use x="95.41015625" xlink:href="#BitstreamVeraSans-Roman-33"/>
      </g>
     </g>
    </g>
    <g id="ytick_5">
     <g id="line2d_27">
      <defs>
       <path d="
M0 0
L4 0" id="m3502574d3a"/>
      </defs>
      <g>
       <use style="stroke:#000000;stroke-linecap:butt;stroke-width:0.5;" x="25.8828125" xlink:href="#m3502574d3a" y="111.229670193"/>
      </g>
     </g>
     <g id="text_9">
      <!-- 0.4 -->
      <g transform="translate(7.2 114.869513943)scale(0.1 -0.1)">
       <use xlink:href="#BitstreamVeraSans-Roman-30"/>
       <use x="63.623046875" xlink:href="#BitstreamVeraSans-Roman-2e"/>
       <use x="95.41015625" xlink:href="#BitstreamVeraSans-Roman-34"/>
      </g>
     </g>
    </g>
    <g id="ytick_6">
     <g id="line2d_28">
      <defs>
       <path d="
M0 0
L4 0" id="m3502574d3a"/>
      </defs>
      <g>
       <use style="stroke:#000000;stroke-linecap:butt;stroke-width:0.5;" x="25.8828125" xlink:href="#m3502574d3a" y="38.7859634803"/>
      </g>
     </g>
     <g id="text_10">
      <!-- 0.5 -->
      <defs>
       <path d="
M10.7969 72.9062
L49.5156 72.9062
L49.5156 64.5938
L19.8281 64.5938
L19.8281 46.7344
Q21.9688 47.4688 24.1094 47.8281
Q26.2656 48.1875 28.4219 48.1875
Q40.625 48.1875 47.75 41.5
Q54.8906 34.8125 54.8906 23.3906
Q54.8906 11.625 47.5625 5.09375
Q40.2344 -1.42188 26.9062 -1.42188
Q22.3125 -1.42188 17.5469 -0.640625
Q12.7969 0.140625 7.71875 1.70312
L7.71875 11.625
Q12.1094 9.23438 16.7969 8.0625
Q21.4844 6.89062 26.7031 6.89062
Q35.1562 6.89062 40.0781 11.3281
Q45.0156 15.7656 45.0156 23.3906
Q45.0156 31 40.0781 35.4375
Q35.1562 39.8906 26.7031 39.8906
Q22.75 39.8906 18.8125 39.0156
Q14.8906 38.1406 10.7969 36.2812
z
" id="BitstreamVeraSans-Roman-35"/>
      </defs>
      <g transform="translate(7.5125 42.4258072303)scale(0.1 -0.1)">
       <use xlink:href="#BitstreamVeraSans-Roman-30"/>
       <use x="63.623046875" xlink:href="#BitstreamVeraSans-Roman-2e"/>
       <use x="95.41015625" xlink:href="#BitstreamVeraSans-Roman-35"/>
      </g>
     </g>
    </g>
    <g id="ytick_7">
     <g id="line2d_29">
      <defs>
       <path d="
M0 0
L2 0" id="mb65be09d11"/>
      </defs>
      <g>
       <use style="stroke:#000000;stroke-linecap:butt;stroke-width:0.5;" x="25.8828125" xlink:href="#mb65be09d11" y="386.515755699"/>
      </g>
     </g>
    </g>
    <g id="ytick_8">
     <g id="line2d_30">
      <defs>
       <path d="
M0 0
L2 0" id="mb65be09d11"/>
      </defs>
      <g>
       <use style="stroke:#000000;stroke-linecap:butt;stroke-width:0.5;" x="25.8828125" xlink:href="#mb65be09d11" y="372.027014357"/>
      </g>
     </g>
    </g>
    <g id="ytick_9">
     <g id="line2d_31">
      <defs>
       <path d="
M0 0
L2 0" id="mb65be09d11"/>
      </defs>
      <g>
       <use style="stroke:#000000;stroke-linecap:butt;stroke-width:0.5;" x="25.8828125" xlink:href="#mb65be09d11" y="357.538273014"/>
      </g>
     </g>
    </g>
    <g id="ytick_10">
     <g id="line2d_32">
      <defs>
       <path d="
M0 0
L2 0" id="mb65be09d11"/>
      </defs>
      <g>
       <use style="stroke:#000000;stroke-linecap:butt;stroke-width:0.5;" x="25.8828125" xlink:href="#mb65be09d11" y="343.049531672"/>
      </g>
     </g>
    </g>
    <g id="ytick_11">
     <g id="line2d_33">
      <defs>
       <path d="
M0 0
L2 0" id="mb65be09d11"/>
      </defs>
      <g>
       <use style="stroke:#000000;stroke-linecap:butt;stroke-width:0.5;" x="25.8828125" xlink:href="#mb65be09d11" y="314.072048987"/>
      </g>
     </g>
    </g>
    <g id="ytick_12">
     <g id="line2d_34">
      <defs>
       <path d="
M0 0
L2 0" id="mb65be09d11"/>
      </defs>
      <g>
       <use style="stroke:#000000;stroke-linecap:butt;stroke-width:0.5;" x="25.8828125" xlink:href="#mb65be09d11" y="299.583307644"/>
      </g>
     </g>
    </g>
    <g id="ytick_13">
     <g id="line2d_35">
      <defs>
       <path d="
M0 0
L2 0" id="mb65be09d11"/>
      </defs>
      <g>
       <use style="stroke:#000000;stroke-linecap:butt;stroke-width:0.5;" x="25.8828125" xlink:href="#mb65be09d11" y="285.094566302"/>
      </g>
     </g>
    </g>
    <g id="ytick_14">
     <g id="line2d_36">
      <defs>
       <path d="
M0 0
L2 0" id="mb65be09d11"/>
      </defs>
      <g>
       <use style="stroke:#000000;stroke-linecap:butt;stroke-width:0.5;" x="25.8828125" xlink:href="#mb65be09d11" y="270.605824959"/>
      </g>
     </g>
    </g>
    <g id="ytick_15">
     <g id="line2d_37">
      <defs>
       <path d="
M0 0
L2 0" id="mb65be09d11"/>
      </defs>
      <g>
       <use style="stroke:#000000;stroke-linecap:butt;stroke-width:0.5;" x="25.8828125" xlink:href="#mb65be09d11" y="241.628342275"/>
      </g>
     </g>
    </g>
    <g id="ytick_16">
     <g id="line2d_38">
      <defs>
       <path d="
M0 0
L2 0" id="mb65be09d11"/>
      </defs>
      <g>
       <use style="stroke:#000000;stroke-linecap:butt;stroke-width:0.5;" x="25.8828125" xlink:href="#mb65be09d11" y="227.139600932"/>
      </g>
     </g>
    </g>
    <g id="ytick_17">
     <g id="line2d_39">
      <defs>
       <path d="
M0 0
L2 0" id="mb65be09d11"/>
      </defs>
      <g>
       <use style="stroke:#000000;stroke-linecap:butt;stroke-width:0.5;" x="25.8828125" xlink:href="#mb65be09d11" y="212.65085959"/>
      </g>
     </g>
    </g>
    <g id="ytick_18">
     <g id="line2d_40">
      <defs>
       <path d="
M0 0
L2 0" id="mb65be09d11"/>
      </defs>
      <g>
       <use style="stroke:#000000;stroke-linecap:butt;stroke-width:0.5;" x="25.8828125" xlink:href="#mb65be09d11" y="198.162118247"/>
      </g>
     </g>
    </g>
    <g id="ytick_19">
     <g id="line2d_41">
      <defs>
       <path d="
M0 0
L2 0" id="mb65be09d11"/>
      </defs>
      <g>
       <use style="stroke:#000000;stroke-linecap:butt;stroke-width:0.5;" x="25.8828125" xlink:href="#mb65be09d11" y="169.184635562"/>
      </g>
     </g>
    </g>
    <g id="ytick_20">
     <g id="line2d_42">
      <defs>
       <path d="
M0 0
L2 0" id="mb65be09d11"/>
      </defs>
      <g>
       <use style="stroke:#000000;stroke-linecap:butt;stroke-width:0.5;" x="25.8828125" xlink:href="#mb65be09d11" y="154.69589422"/>
      </g>
     </g>
    </g>
    <g id="ytick_21">
     <g id="line2d_43">
      <defs>
       <path d="
M0 0
L2 0" id="mb65be09d11"/>
      </defs>
      <g>
       <use style="stroke:#000000;stroke-linecap:butt;stroke-width:0.5;" x="25.8828125" xlink:href="#mb65be09d11" y="140.207152877"/>
      </g>
     </g>
    </g>
    <g id="ytick_22">
     <g id="line2d_44">
      <defs>
       <path d="
M0 0
L2 0" id="mb65be09d11"/>
      </defs>
      <g>
       <use style="stroke:#000000;stroke-linecap:butt;stroke-width:0.5;" x="25.8828125" xlink:href="#mb65be09d11" y="125.718411535"/>
      </g>
     </g>
    </g>
    <g id="ytick_23">
     <g id="line2d_45">
      <defs>
       <path d="
M0 0
L2 0" id="mb65be09d11"/>
      </defs>
      <g>
       <use style="stroke:#000000;stroke-linecap:butt;stroke-width:0.5;" x="25.8828125" xlink:href="#mb65be09d11" y="96.7409288501"/>
      </g>
     </g>
    </g>
    <g id="ytick_24">
     <g id="line2d_46">
      <defs>
       <path d="
M0 0
L2 0" id="mb65be09d11"/>
      </defs>
      <g>
       <use style="stroke:#000000;stroke-linecap:butt;stroke-width:0.5;" x="25.8828125" xlink:href="#mb65be09d11" y="82.2521875077"/>
      </g>
     </g>
    </g>
    <g id="ytick_25">
     <g id="line2d_47">
      <defs>
       <path d="
M0 0
L2 0" id="mb65be09d11"/>
      </defs>
      <g>
       <use style="stroke:#000000;stroke-linecap:butt;stroke-width:0.5;" x="25.8828125" xlink:href="#mb65be09d11" y="67.7634461652"/>
      </g>
     </g>
    </g>
    <g id="ytick_26">
     <g id="line2d_48">
      <defs>
       <path d="
M0 0
L2 0" id="mb65be09d11"/>
      </defs>
      <g>
       <use style="stroke:#000000;stroke-linecap:butt;stroke-width:0.5;" x="25.8828125" xlink:href="#mb65be09d11" y="53.2747048228"/>
      </g>
     </g>
    </g>
    <g id="ytick_27">
     <g id="line2d_49">
      <defs>
       <path d="
M0 0
L2 0" id="mb65be09d11"/>
      </defs>
      <g>
       <use style="stroke:#000000;stroke-linecap:butt;stroke-width:0.5;" x="25.8828125" xlink:href="#mb65be09d11" y="24.2972221379"/>
      </g>
     </g>
    </g>
   </g>
   <g id="patch_3">
    <path d="
M15.4995 401.004
L555.43 401.004" style="fill:none;stroke:#000000;stroke-width:0.8;"/>
   </g>
   <g id="patch_4">
    <path d="
M25.8828 408.726
L25.8828 7.2" style="fill:none;stroke:#000000;stroke-width:0.8;"/>
   </g>
  </g>
 </g>
 <defs>
  <clipPath id="pc4ff94fdb4">
   <rect height="401.526153846" width="539.930304948" x="15.4995477887" y="7.2"/>
  </clipPath>
 </defs>
</svg>
