<?xml version="1.0" encoding="utf-8" standalone="no"?>
<!DOCTYPE svg PUBLIC "-//W3C//DTD SVG 1.1//EN"
  "http://www.w3.org/Graphics/SVG/1.1/DTD/svg11.dtd">
<!-- Created with matplotlib (http://matplotlib.sourceforge.net/) -->
<svg height="419pt" version="1.1" viewBox="0 0 564 419" width="564pt" xmlns="http://www.w3.org/2000/svg" xmlns:xlink="http://www.w3.org/1999/xlink">
 <defs>
  <style type="text/css">
*{stroke-linecap:square;stroke-linejoin:round;}
  </style>
 </defs>
 <g id="figure_1">
  <g id="patch_1">
   <path d="
M2.22045e-16 419.766
L564.619 419.766
L564.619 0
L2.22045e-16 0
z
" style="fill:#ffffff;"/>
  </g>
  <g id="axes_1">
   <g id="patch_2">
    <path d="
M56.4387 397.926
L557.419 397.926
L557.419 7.2
L56.4387 7.2
z
" style="fill:#ffffff;"/>
   </g>
   <g id="line2d_1">
    <path clip-path="url(#p3e282f3160)" d="
M66.073 390.412
L77.0907 390.412
L77.0907 369.518
L90.9714 369.518
L90.9714 318.243
L100.114 318.243
L100.114 306.91
L112.396 306.91
L112.396 250.233
L116.936 250.233
L116.936 241.564
L124.225 241.564
L124.225 266.008
L127.247 266.008
L127.247 273.027
L132.439 273.027
L132.439 299.055
L138.738 299.055
L138.738 309.015
L140.55 309.015
L140.55 312.053
L145.358 312.053
L145.358 317.271
L148.147 317.271
L148.147 317.446
L149.441 317.446
L149.441 315.597
L151.858 315.597
L151.858 312.729
L155.123 312.729
L155.123 306.095
L158.037 306.095
L158.037 297.62
L158.943 297.62
L158.943 293.976
L161.492 293.976
L161.492 285.998
L163.068 285.998
L163.068 281.637
L163.823 281.637
L163.823 279.17
L165.969 279.17
L165.969 270.187
L167.312 270.187
L167.312 264.832
L169.208 264.832
L169.208 256.02
L171.547 256.02
L171.547 248.402
L172.645 248.402
L172.645 245.875
L173.178 245.875
L173.178 244.382
L174.213 244.382
L174.213 240.986
L174.716 240.986
L174.716 239.136
L175.696 239.136
L175.696 235.8
L178.869 235.8
L178.869 228.377
L179.712 228.377
L179.712 226.686
L180.929 226.686
L180.929 224.021
L181.323 224.021
L181.323 223.146
L183.211 223.146
L183.211 220.476
L183.573 220.476
L183.573 219.993
L184.632 219.993
L184.632 218.322
L185.651 218.322
L185.651 217.549
L186.31 217.549
L186.31 217.104
L187.269 217.104
L187.269 216.101
L188.195 216.101
L188.195 214.945
L188.497 214.945
L188.497 214.558
L189.958 214.558
L189.958 213.048
L190.242 213.048
L190.242 212.639
L190.799 212.639
L190.799 211.744
L191.073 211.744
L191.073 211.227
L192.664 211.227
L192.664 208.257
L194.168 208.257
L194.168 205.084
L194.651 205.084
L194.651 204.151
L194.889 204.151
L194.889 203.634
L195.36 203.634
L195.36 202.819
L196.05 202.819
L196.05 201.947
L196.277 201.947
L196.277 201.557
L197.382 201.557
L197.382 199.302
L198.023 199.302
L198.023 197.78
L198.651 197.78
L198.651 196.531
L199.264 196.531
L199.264 195.554
L199.465 195.554
L199.465 195.271
L200.06 195.271
L200.06 194.363
L200.449 194.363
L200.449 193.801
L200.642 193.801
L200.642 193.617
L201.586 193.617
L201.586 192.804
L202.854 192.804
L202.854 191.394
L203.206 191.394
L203.206 191.032
L203.38 191.032
L203.38 190.809
L203.725 190.809
L203.725 190.508
L204.899 190.508
L204.899 188.963
L205.388 188.963
L205.388 188.334
L206.182 188.334
L206.182 187.211
L206.338 187.211
L206.338 186.967
L206.648 186.967
L206.648 186.459
L207.106 186.459
L207.106 185.766
L207.705 185.766
L207.705 184.812
L208.146 184.812
L208.146 183.929
L208.579 183.929
L208.579 182.903
L208.864 182.903
L208.864 182.213
L209.287 182.213
L209.287 181.17
L209.84 181.17
L209.84 179.746
L210.112 179.746
L210.112 179.069
L210.649 179.069
L210.649 177.941
L211.306 177.941
L211.306 176.787
L211.435 176.787
L211.435 176.555
L212.073 176.555
L212.073 175.459
L212.199 175.459
L212.199 175.225
L212.573 175.225
L212.573 174.562
L212.819 174.562
L212.819 174.052
L213.185 174.052
L213.185 173.388
L213.665 173.388
L213.665 172.547
L213.901 172.547
L213.901 172.055
L214.019 172.055
L214.019 171.791
L214.253 171.791
L214.253 171.279
L214.942 171.279
L214.942 169.709
L215.392 169.709
L215.392 168.593
L215.614 168.593
L215.614 168.01
L216.054 168.01
L216.054 166.967
L216.271 166.967
L216.271 166.431
L216.593 166.431
L216.593 165.545
L217.226 165.545
L217.33 163.728
L218.25 163.728
L218.25 161.719
L218.549 161.719
L218.549 161.077
L219.042 161.077
L219.042 160.032
L219.333 160.032
L219.333 159.415
L219.621 159.415
L219.716 158.492
L220 158.492
L220 157.707
L220.467 157.707
L220.467 156.302
L220.743 156.302
L220.743 155.529
L221.017 155.529
L221.108 154.599
L221.377 154.599
L221.377 153.829
L221.645 153.829
L221.645 153.128
L221.821 153.128
L221.909 152.453
L222.431 152.453
L222.431 151.146
L222.858 151.146
L222.943 149.818
L223.112 149.818
L223.112 149.446
L223.362 149.446
L223.362 148.854
L223.611 148.854
L223.693 148.1
L224.182 148.1
L224.182 146.99
L224.343 146.99
L224.343 146.601
L224.583 146.601
L224.583 145.985
L224.899 145.985
L224.899 145.233
L225.29 145.233
L225.29 144.283
L225.598 144.283
L225.598 143.488
L225.979 143.488
L225.979 142.505
L226.279 142.505
L226.279 141.694
L226.503 141.694
L226.503 141.085
L226.724 141.085
L226.724 140.521
L226.871 140.521
L226.871 140.178
L227.162 140.178
L227.162 139.467
L227.378 139.467
L227.378 138.946
L227.521 138.946
L227.521 138.588
L227.806 138.588
L227.806 137.869
L227.947 137.869
L227.947 137.55
L228.434 137.55
L228.434 136.471
L228.777 136.471
L228.777 135.806
L229.183 135.806
L229.251 134.957
L229.584 134.957
L229.65 134.306
L229.781 134.306
L229.847 134.01
L230.173 134.01
L230.173 133.522
L230.623 133.522
L230.623 132.835
L230.75 132.835
L230.813 132.53
L230.939 132.53
L230.939 132.346
L231.377 132.346
L231.377 131.694
L231.5 131.694
L231.562 131.422
L231.685 131.422
L231.685 131.239
L232.291 131.239
L232.291 130.25
L232.41 130.25
L232.41 130.072
L232.648 130.072
L232.648 129.73
L232.942 129.73
L232.942 129.292
L233.175 129.292
L233.175 128.909
L233.291 128.909
L233.291 128.709
L233.463 128.709
L233.463 128.44
L233.635 128.44
L233.635 128.176
L234.031 128.176
L234.031 127.501
L234.143 127.501
L234.143 127.321
L234.311 127.321
L234.311 127.034
L234.477 127.034
L234.477 126.736
L234.697 126.736
L234.697 126.34
L234.861 126.34
L234.861 126.019
L235.186 126.019
L235.294 125.192
L235.454 125.192
L235.508 124.781
L235.773 124.781
L235.825 124.16
L235.983 124.16
L235.983 123.824
L236.243 123.824
L236.295 123.219
L236.552 123.219
L236.603 122.62
L236.756 122.62
L236.756 122.326
L237.21 122.326
L237.31 121.308
L237.459 121.217
L237.459 121.049
L237.607 121.049
L237.607 120.788
L237.754 120.788
L237.754 120.528
L237.95 120.528
L237.95 120.175
L238.095 120.175
L238.095 119.93
L238.24 119.93
L238.24 119.681
L238.764 119.681
L238.812 118.636
L239.046 118.636
L239.046 118.245
L239.232 118.245
L239.232 117.976
L239.464 117.976
L239.464 117.68
L239.601 117.68
L239.601 117.484
L239.738 117.484
L239.738 117.288
L239.92 117.288
L239.92 116.995
L240.19 116.995
L240.279 116.409
L240.413 116.409
L240.413 116.186
L240.546 116.186
L240.59 115.852
L240.722 115.852
L240.722 115.596
L240.985 115.596
L240.985 115.085
L241.201 115.085
L241.201 114.656
L241.587 114.656
L241.63 113.825
L241.715 113.825
L241.715 113.647
L241.841 113.647
L241.883 113.324
L242.009 113.324
L242.093 112.911
L242.218 112.83
L242.218 112.667
L242.466 112.667
L242.508 112.073
L242.631 112.073
L242.631 111.833
L243.318 111.833
L243.318 110.442
L243.438 110.442
L243.438 110.189
L243.557 110.189
L243.557 109.945
L243.715 109.945
L243.715 109.603
L244.067 109.603
L244.067 108.842
L244.26 108.842
L244.26 108.417
L244.529 108.417
L244.605 107.671
L244.719 107.585
L244.719 107.408
L244.833 107.408
L244.833 107.148
L244.983 107.148
L245.058 106.641
L245.208 106.556
L245.208 106.295
L245.43 106.295
L245.43 105.792
L245.614 105.792
L245.724 105.11
L245.834 105.022
L245.943 104.601
L246.159 104.601
L246.159 104.109
L246.374 104.109
L246.374 103.591
L246.517 103.591
L246.517 103.237
L246.729 103.237
L246.834 102.417
L246.904 102.417
L247.009 101.98
L247.148 101.98
L247.217 101.473
L247.355 101.473
L247.424 101.005
L247.663 101.005
L247.731 100.304
L247.833 100.304
L247.934 99.8638
L248.035 99.8638
L248.069 99.5643
L248.169 99.5643
L248.169 99.3394
L248.336 99.3394
L248.336 98.9494
L248.666 98.9494
L248.764 97.9295
L248.829 97.9295
L248.862 97.6871
L249.25 97.6871
L249.346 96.5137
L249.505 96.5137
L249.505 96.1639
L249.695 96.1639
L249.727 95.7036
L249.884 95.7036
L249.884 95.3833
L250.009 95.3833
L250.103 94.9333
L250.196 94.9333
L250.289 94.5288
L250.565 94.5288
L250.657 93.7177
L250.718 93.7177
L250.748 93.5147
L250.93 93.5147
L250.93 93.1131
L251.08 93.1131
L251.08 92.8006
L251.26 92.8006
L251.26 92.4432
L251.379 92.4432
L251.379 92.2042
L251.615 92.2042
L251.615 91.7274
L251.821 91.7274
L251.908 91.1814
L251.995 91.0816
L252.082 90.8704
L252.226 90.8704
L252.226 90.5885
L252.398 90.5885
L252.484 90.0722
L252.569 90.0722
L252.569 89.9089
L252.824 89.9089
L252.852 89.3524
L253.076 89.3524
L253.104 88.8492
L253.409 88.8492
L253.491 88.0125
L253.601 88.0125
L253.683 87.6171
L253.737 87.6171
L253.819 87.3284
L253.927 87.3284
L254.008 86.9625
L254.142 86.9625
L254.169 86.6585
L254.303 86.6585
L254.303 86.413
L254.489 86.413
L254.489 86.0623
L254.621 86.0623
L254.7 85.6898
L254.857 85.6898
L254.961 85.2052
L255.091 85.2052
L255.091 84.961
L255.246 84.961
L255.271 84.6214
L255.476 84.6214
L255.578 84.0049
L255.654 83.9082
L255.654 83.8569
L255.781 83.8569
L255.882 83.3831
L256.107 83.3831
L256.107 82.9176
L256.405 82.9176
L256.454 82.2297
L256.528 82.2297
L256.626 81.887
L256.821 81.887
L256.894 81.3434
L256.991 81.3434
L256.991 81.1356
L257.183 81.1356
L257.255 80.5628
L257.35 80.5628
L257.422 80.2244
L257.493 80.2244
L257.54 79.9988
L257.682 79.9988
L257.705 79.6705
L257.963 79.6705
L258.056 78.9852
L258.125 78.9852
L258.172 78.7674
L258.241 78.7674
L258.241 78.6384
L258.402 78.6384
L258.47 78.2227
L258.539 78.1449
L258.607 77.9838
L258.721 77.8978
L258.721 77.7737
L258.856 77.7737
L258.924 77.3918
L258.991 77.3918
L258.991 77.266
L259.148 77.266
L259.192 76.8926
L259.259 76.8926
L259.259 76.7667
L259.392 76.7667
L259.48 76.3661
L259.546 76.3661
L259.59 76.1577
L259.874 76.1577
L259.874 75.6302
L260.069 75.6302
L260.176 75.0679
L260.262 75.0679
L260.369 74.6854
L260.454 74.6423
L260.454 74.51
L260.687 74.51
L260.687 74.0263
L260.813 74.0263
L260.834 73.7063
L261.001 73.7063
L261.084 73.1937
L261.25 73.1092
L261.25 72.8607
L261.394 72.8607
L261.496 72.3492
L261.558 72.3087
L261.639 72.055
L261.7 72.055
L261.802 71.74
L261.923 71.6308
L262.003 71.3868
L262.123 71.294
L262.223 71.0524
L262.342 71.0231
L262.421 70.7369
L262.599 70.6677
L262.697 70.2386
L262.814 70.2386
L262.892 69.8665
L263.105 69.7564
L263.105 69.4554
L263.239 69.4554
L263.335 69.0061
L263.411 69.0061
L263.507 68.6648
L263.677 68.6648
L263.752 68.172
L263.846 68.172
L263.903 67.8978
L264.033 67.803
L264.126 67.5267
L264.237 67.5267
L264.237 67.3508
L264.367 67.3508
L264.458 66.9973
L264.532 66.9071
L264.532 66.8762
L264.787 66.8762
L264.895 66.3028
L265.003 66.196
L265.003 66.1448
L265.129 66.1448
L265.236 65.8169
L265.343 65.8169
L265.396 65.5977
L265.502 65.5977
L265.59 65.349
L265.765 65.349
L265.87 64.9796
L266.009 64.9796
L266.009 64.7742
L266.233 64.7742
L266.285 64.3878
L266.388 64.3878
L266.473 64.1284
L266.575 64.1284
L266.626 63.9212
L266.727 63.8234
L266.794 63.6741
L266.979 63.6741
L267.046 63.2958
L267.146 63.2958
L267.146 63.1251
L267.377 63.1251
L267.443 62.6328
L267.542 62.553
L267.64 62.3347
L267.737 62.3347
L267.77 62.15
L267.867 62.15
L267.964 61.8704
L268.109 61.8477
L268.125 61.6393
L268.253 61.6393
L268.3 61.3849
L268.459 61.3849
L268.459 61.1614
L268.586 61.1614
L268.696 60.8448
L268.914 60.7856
L268.977 60.4824
L269.07 60.4824
L269.116 60.2977
L269.209 60.1928
L269.301 60.0474
L269.423 59.9886
L269.53 59.7413
L269.621 59.6359
L269.697 59.5068
L269.803 59.5068
L269.878 59.2436
L269.983 59.1789
L270.073 58.9541
L270.192 58.9541
L270.295 58.6282
L270.428 58.5838
L270.502 58.3284
L270.634 58.2479
L270.736 57.9943
L270.939 57.9321
L270.996 57.6375
L271.169 57.5356
L271.24 57.2915
L271.369 57.2915
L271.454 57.0001
L271.553 57.0001
L271.595 56.8132
L271.764 56.7157
L271.848 56.4622
L271.974 56.4622
L272.085 56.1545
L272.223 56.0802
L272.25 55.9272
L272.388 55.9272
L272.388 55.7278
L272.538 55.7278
L272.633 55.3503
L272.742 55.2434
L272.796 55.0935
L272.944 55.0935
L272.997 54.7659
L273.104 54.7659
L273.144 54.5197
L273.224 54.5197
L273.277 54.309
L273.357 54.309
L273.462 54.0073
L273.541 53.9411
L273.633 53.7298
L273.789 53.6658
L273.789 53.4893
L273.945 53.4893
L274.048 53.1069
L274.126 53.0875
L274.215 52.8617
L274.318 52.7691
L274.407 52.5857
L274.508 52.5034
L274.559 52.3839
L274.748 52.3839
L274.823 52.0251
L274.936 51.942
L275.035 51.7199
L275.147 51.7199
L275.184 51.4876
L275.258 51.4876
L275.344 51.2413
L275.455 51.2413
L275.552 50.9247
L275.698 50.8664
L275.771 50.5661
L275.856 50.5661
L275.952 50.2972
L276.096 50.2972
L276.179 49.9781
L276.31 49.93
L276.393 49.6746
L276.534 49.6216
L276.64 49.3234
L276.745 49.2305
L276.838 49.0589
L276.943 49.0133
L277.012 48.8267
L277.116 48.8267
L277.185 48.6027
L277.288 48.6027
L277.334 48.4238
L277.471 48.4238
L277.573 48.1413
L277.742 48.0319
L277.742 47.9374
L277.91 47.9374
L278 47.6297
L278.144 47.5544
L278.233 47.3686
L278.332 47.2815
L278.442 47.1335
L278.606 47.0368
L278.693 46.8634
L278.887 46.7571
L278.995 46.5589
L279.113 46.4611
L279.22 46.3334
L279.464 46.2302
L279.569 45.9559
L279.685 45.8879
L279.789 45.7134
L279.904 45.6144
L279.935 45.561
L280.059 45.561
L280.162 45.3217
L280.275 45.2421
L280.377 45.1011
L280.5 45.046
L280.52 44.9435
L280.672 44.9435
L280.763 44.6626
L280.863 44.5531
L280.973 44.4199
L281.123 44.3759
L281.182 44.2064
L281.36 44.1082
L281.419 44.0142
L281.576 43.9227
L281.663 43.8403
L281.867 43.8075
L281.954 43.6353
L282.156 43.5508
L282.242 43.4544
L282.469 43.3479
L282.469 43.334
L282.742 43.2271
L282.836 43.1551
L283.031 43.0469
L283.086 43.0119
L283.28 42.9537
L283.353 42.8434
L283.544 42.7991
L283.572 42.6965
L283.762 42.6238
L283.87 42.5116
L284.138 42.4032
L284.226 42.3398
L284.508 42.262
L284.613 42.157
L284.822 42.0478
L284.9 41.987
L285.115 41.8798
L285.218 41.8078
L285.473 41.7297
L285.499 41.6621
L285.726 41.5587
L285.768 41.5087
L286.001 41.4023
L286.101 41.2798
L286.299 41.1707
L286.372 41.0743
L286.519 40.9971
L286.593 40.8987
L286.763 40.8114
L286.779 40.7593
L286.948 40.6867
L287.044 40.5756
L287.258 40.4655
L287.361 40.3154
L287.495 40.2099
L287.495 40.1891
L287.621 40.0823
L287.73 39.9839
L287.87 39.9069
L287.97 39.7727
L288.124 39.672
L288.216 39.5659
L288.399 39.4919
L288.498 39.3424
L288.656 39.2333
L288.762 39.1347
L288.948 39.024
L289.038 38.9129
L289.215 38.8176
L289.304 38.6866
L289.45 38.6085
L289.545 38.4773
L289.69 38.3801
L289.799 38.2523
L289.914 38.1441
L290.022 38.0191
L290.129 37.9536
L290.229 37.7852
L290.342 37.6894
L290.42 37.5709
L290.554 37.4712
L290.617 37.3384
L290.721 37.3384
L290.819 37.1138
L290.944 37.0175
L291.047 36.8522
L291.171 36.7557
L291.281 36.5674
L291.424 36.5145
L291.505 36.2721
L291.627 36.1713
L291.722 35.9898
L291.822 35.9048
L291.862 35.8137
L291.989 35.718
L292.089 35.5456
L292.188 35.4388
L292.261 35.3463
L292.36 35.249
L292.438 35.1469
L292.543 35.0729
L292.654 34.9056
L292.835 34.8167
L292.925 34.6313
L293.098 34.5685
L293.181 34.378
L293.296 34.3239
L293.403 34.1444
L293.542 34.036
L293.63 33.907
L293.749 33.8071
L293.855 33.6676
L293.973 33.5975
L294.059 33.4473
L294.189 33.3411
L294.244 33.2507
L294.415 33.17
L294.5 32.9819
L294.645 32.918
L294.736 32.7432
L294.85 32.6528
L294.958 32.5248
L295.1 32.4287
L295.207 32.3026
L295.36 32.1932
L295.413 32.1091
L295.571 32.0031
L295.682 31.8313
L295.804 31.7405
L295.891 31.5824
L296.006 31.5126
L296.109 31.2753
L296.212 31.1731
L296.263 31.052
L296.365 31.052
L296.467 30.7761
L296.574 30.6899
L296.675 30.537
L296.776 30.4573
L296.876 30.3043
L296.993 30.1962
L297.103 30.0483
L297.202 29.9409
L297.301 29.8129
L297.421 29.7307
L297.53 29.5333
L297.617 29.4273
L297.725 29.2849
L297.87 29.1779
L297.967 28.9953
L298.079 28.9215
L298.174 28.7631
L298.285 28.684
L298.396 28.5161
L298.554 28.4142
L298.663 28.2488
L298.777 28.1715
L298.871 28.0365
L298.989 27.9852
L299.097 27.7986
L299.225 27.6996
L299.327 27.5593
L299.433 27.4575
L299.529 27.3359
L299.68 27.2579
L299.771 27.0708
L299.875 26.9692
L299.975 26.8417
L300.084 26.7408
L300.168 26.6383
L300.305 26.5308
L300.394 26.4225
L300.525 26.3126
L300.622 26.2334
L300.782 26.1251
L300.883 26.0516
L301.069 25.9417
L301.174 25.8719
L301.425 25.7615
L301.528 25.6901
L301.822 25.5795
L301.877 25.5586
L302.208 25.4613
L302.313 25.415
L302.787 25.3153
L302.832 25.2785
L303.187 25.1723
L303.297 25.1221
L303.659 25.0139
L303.768 24.9715
L304.089 24.8717
L304.2 24.8232
L304.643 24.7194
L304.743 24.6818
L305.242 24.5756
L305.34 24.5361
L305.773 24.4308
L305.861 24.4009
L306.182 24.2914
L306.277 24.2443
L306.485 24.1381
L306.59 24.0706
L306.792 23.9728
L306.861 23.9238
L307.08 23.8253
L307.137 23.7776
L307.308 23.6817
L307.399 23.5999
L307.613 23.4898
L307.722 23.4219
L307.9 23.3147
L308.011 23.2399
L308.203 23.1358
L308.309 23.071
L308.56 22.9604
L308.668 22.9115
L308.919 22.8022
L309.026 22.7182
L309.228 22.611
L309.334 22.5439
L309.541 22.44
L309.645 22.3832
L309.925 22.2725
L309.98 22.2545
L310.447 22.1446
L310.521 22.1192
L310.819 22.0145
L310.922 21.9504
L311.15 21.851
L311.239 21.78
L311.493 21.6701
L311.587 21.6057
L311.813 21.4984
L311.919 21.4391
L312.116 21.3365
L312.221 21.2714
L312.432 21.1725
L312.542 21.1006
L312.778 20.9898
L312.886 20.9172
L313.221 20.8137
L313.318 20.7792
L313.755 20.671
L313.863 20.6426
L314.355 20.5321
L314.463 20.5208
L315.481 20.4148
L315.556 20.404
L315.584 20.4052
L316.926 20.5119
L317.029 20.5373
L317.57 20.6447
L317.673 20.6783
L318.074 20.7835
L318.181 20.8153
L318.866 20.9264
L318.974 20.9397
L320.298 21.0498
L320.39 21.0652
L322.063 21.175
L322.171 21.1937
L325.303 21.0835
L325.41 21.0629
L326.72 20.9525
L326.825 20.9275
L327.289 20.8172
L327.39 20.782
L327.882 20.6717
L327.988 20.6405
L328.566 20.5305
L328.673 20.5147
L329.183 20.4046
L329.289 20.3692
L329.695 20.2625
L329.791 20.2364
L330.235 20.1276
L330.345 20.0883
L330.694 19.9795
L330.796 19.9382
L331.106 19.8284
L331.2 19.7926
L331.485 19.6858
L331.594 19.628
L331.847 19.5215
L331.954 19.4745
L332.268 19.3648
L332.373 19.3151
L332.661 19.2049
L332.767 19.1613
L333.043 19.053
L333.153 18.9944
L333.34 18.8879
L333.448 18.8122
L333.666 18.703
L333.764 18.643
L333.973 18.534
L334.067 18.4737
L334.278 18.3669
L334.389 18.3012
L334.602 18.1956
L334.713 18.1235
L334.913 18.0173
L335.024 17.939
L335.202 17.8337
L335.312 17.762
L335.491 17.6589
L335.592 17.5795
L335.772 17.4691
L335.878 17.3888
L336.022 17.283
L336.124 17.1958
L336.274 17.0888
L336.383 16.9999
L336.546 16.8943
L336.653 16.8125
L336.82 16.7033
L336.924 16.6257
L337.098 16.5188
L337.205 16.4371
L337.392 16.3312
L337.487 16.239
L337.68 16.1306
L337.789 16.0332
L337.987 15.9232
L338.097 15.8253
L338.272 15.7169
L338.374 15.6525
L338.566 15.5436
L338.677 15.4731
L338.916 15.3628
L339.022 15.3193
L339.356 15.2082
L339.465 15.1802
L339.921 15.07
L340.027 15.0402
L340.546 14.9319
L340.644 14.9072
L341.107 14.7963
L341.214 14.7727
L343.305 14.8836
L343.412 14.903
L344.022 15.0135
L344.131 15.0338
L346.059 15.1449
L346.167 15.1484
L347.418 15.2588
L347.52 15.2781
L348.017 15.3888
L348.123 15.4223
L348.494 15.5319
L348.603 15.5541
L349.022 15.6651
L349.133 15.7117
L349.447 15.8222
L349.556 15.8688
L349.949 15.9793
L350.056 16.0091
L350.449 16.1185
L350.558 16.1576
L350.894 16.2683
L351.001 16.3173
L351.327 16.4248
L351.431 16.4624
L351.875 16.5717
L351.982 16.6141
L352.292 16.7248
L352.403 16.7572
L352.814 16.8681
L352.923 16.8965
L353.28 17.0065
L353.39 17.0484
L353.685 17.156
L353.794 17.1973
L354.066 17.3079
L354.176 17.3641
L354.464 17.475
L354.571 17.5168
L354.862 17.6279
L354.966 17.6624
L355.241 17.7714
L355.347 17.8217
L355.572 17.9319
L355.679 17.9876
L355.883 18.0955
L355.99 18.1659
L356.179 18.2769
L356.289 18.3469
L356.477 18.4547
L356.585 18.5216
L356.804 18.6319
L356.914 18.7012
L357.093 18.8093
L357.198 18.8838
L357.367 18.9929
L357.476 19.0675
L357.643 19.1769
L357.749 19.2549
L357.906 19.3639
L358.015 19.4513
L358.152 19.5623
L358.262 19.652
L358.397 19.7599
L358.508 19.8517
L358.639 19.9608
L358.748 20.0553
L358.886 20.1558
L358.993 20.254
L359.134 20.3614
L359.244 20.4491
L359.411 20.5598
L359.521 20.6322
L359.702 20.7422
L359.813 20.8202
L359.977 20.9312
L360.085 21.0047
L360.267 21.1151
L360.374 21.1751
L360.585 21.2855
L360.696 21.3439
L360.885 21.4544
L360.994 21.5179
L361.173 21.6282
L361.283 21.7042
L361.457 21.8134
L361.565 21.8856
L361.742 21.9967
L361.852 22.0719
L362.007 22.1824
L362.115 22.2585
L362.277 22.3692
L362.387 22.4506
L362.531 22.5604
L362.641 22.6425
L362.801 22.7532
L362.91 22.8328
L363.067 22.9435
L363.176 23.0252
L363.325 23.1341
L363.436 23.2249
L363.572 23.3296
L363.68 23.4329
L363.801 23.543
L363.909 23.636
L364.049 23.7437
L364.16 23.8369
L364.306 23.9475
L364.411 24.0288
L364.554 24.1394
L364.663 24.2265
L364.813 24.331
L364.923 24.4285
L365.069 24.5377
L365.18 24.6317
L365.333 24.742
L365.436 24.8157
L365.607 24.9265
L365.718 25.0039
L365.908 25.1148
L366.019 25.1744
L366.253 25.2847
L366.364 25.3381
L366.581 25.4482
L366.692 25.5136
L366.913 25.6242
L367.023 25.6856
L367.25 25.7962
L367.361 25.8509
L367.593 25.9614
L367.702 26.0197
L367.911 26.1303
L368.022 26.1967
L368.246 26.3074
L368.356 26.3589
L368.63 26.4698
L368.74 26.5086
L369.049 26.6193
L369.157 26.6637
L369.412 26.7742
L369.522 26.8312
L369.755 26.9415
L369.862 27.003
L370.052 27.1123
L370.163 27.1755
L370.393 27.2855
L370.502 27.3304
L370.732 27.4415
L370.839 27.5042
L371.029 27.615
L371.138 27.6757
L371.391 27.7859
L371.502 27.8276
L371.75 27.9384
L371.861 27.9932
L372.086 28.104
L372.19 28.153
L372.435 28.264
L372.545 28.3156
L372.806 28.4261
L372.917 28.4708
L373.167 28.5817
L373.277 28.6337
L373.573 28.7447
L373.681 28.7904
L373.983 28.9014
L374.093 28.9405
L374.396 29.0514
L374.506 29.0954
L374.774 29.2061
L374.885 29.2515
L375.155 29.3624
L375.264 29.4101
L375.5 29.5207
L375.61 29.5722
L375.852 29.6811
L375.962 29.7352
L376.211 29.8461
L376.32 29.9009
L376.557 30.0119
L376.666 30.0627
L376.895 30.1725
L377.006 30.2279
L377.258 30.3389
L377.369 30.3903
L377.603 30.4994
L377.714 30.5533
L377.947 30.664
L378.058 30.72
L378.293 30.8306
L378.404 30.885
L378.608 30.9958
L378.717 31.0604
L378.923 31.1709
L379.034 31.2276
L379.256 31.3382
L379.366 31.3993
L379.567 31.5084
L379.673 31.5654
L379.881 31.676
L379.99 31.7357
L380.188 31.8462
L380.297 31.909
L380.489 32.0183
L380.599 32.0913
L380.769 32.2005
L380.879 32.2722
L381.056 32.3822
L381.165 32.4558
L381.345 32.566
L381.456 32.6345
L381.647 32.7455
L381.758 32.8109
L381.955 32.922
L382.066 32.9892
L382.243 33.0982
L382.349 33.1682
L382.524 33.279
L382.635 33.3456
L382.835 33.4564
L382.944 33.5186
L383.133 33.628
L383.244 33.6994
L383.427 33.8093
L383.537 33.8764
L383.741 33.9872
L383.852 34.0474
L384.064 34.1577
L384.174 34.2176
L384.365 34.328
L384.475 34.3981
L384.653 34.5089
L384.764 34.5776
L384.94 34.6863
L385.048 34.7557
L385.213 34.8666
L385.319 34.9391
L385.476 35.0482
L385.586 35.1352
L385.736 35.2453
L385.846 35.3289
L385.995 35.4392
L386.105 35.5289
L386.248 35.6386
L386.358 35.727
L386.509 35.8379
L386.619 35.9249
L386.767 36.036
L386.876 36.1212
L387.039 36.2319
L387.15 36.3074
L387.307 36.4183
L387.417 36.4993
L387.571 36.6094
L387.681 36.692
L387.837 36.8005
L387.949 36.8835
L388.11 36.9938
L388.22 37.0741
L388.392 37.1842
L388.502 37.2583
L388.67 37.3692
L388.78 37.4402
L388.97 37.5513
L389.08 37.6148
L389.276 37.7256
L389.386 37.7932
L389.565 37.9038
L389.675 37.9777
L389.841 38.0875
L389.95 38.1629
L390.112 38.2733
L390.222 38.353
L390.376 38.4637
L390.487 38.5431
L390.659 38.6538
L390.77 38.722
L390.96 38.8329
L391.071 38.8992
L391.264 39.0102
L391.374 39.0687
L391.573 39.1795
L391.684 39.2487
L391.86 39.3597
L391.971 39.4319
L392.142 39.5423
L392.252 39.6143
L392.427 39.7253
L392.536 39.7892
L392.742 39.8992
L392.854 39.9676
L393.04 40.0785
L393.151 40.1452
L393.349 40.2557
L393.46 40.3184
L393.655 40.4293
L393.766 40.4965
L393.961 40.6069
L394.072 40.6653
L394.29 40.7758
L394.401 40.8307
L394.633 40.9412
L394.743 40.9933
L394.982 41.1039
L395.093 41.1526
L395.373 41.2637
L395.481 41.3016
L395.828 41.4127
L395.938 41.4402
L396.698 41.5513
L396.808 41.5645
L398.072 41.6756
L398.182 41.6855
L398.828 41.7962
L398.939 41.8245
L399.28 41.9353
L399.391 41.9768
L399.682 42.0875
L399.793 42.1297
L400.141 42.2405
L400.252 42.2793
L400.634 42.3902
L400.744 42.4272
L401.087 42.5379
L401.197 42.5641
L401.856 42.6748
L401.966 42.6996
L402.5 42.8106
L402.61 42.8365
L403.234 42.9475
L403.345 42.9673
L404.036 43.0784
L404.147 43.1036
L405.594 43.2145
L405.705 43.2336
L406.293 43.3446
L406.404 43.3696
L406.883 43.4806
L406.994 43.5182
L407.333 43.6293
L407.444 43.6675
L407.819 43.7784
L407.93 43.8146
L408.368 43.9257
L408.478 43.9577
L408.843 44.0688
L408.951 44.1039
L409.3 44.2147
L409.411 44.249
L409.807 44.36
L409.917 44.3875
L410.313 44.4984
L410.424 44.5334
L410.747 44.6444
L410.858 44.6871
L411.122 44.798
L411.233 44.8479
L411.47 44.9589
L411.58 45.0149
L411.812 45.1259
L411.923 45.1782
L412.158 45.289
L412.268 45.34
L412.499 45.4508
L412.61 45.5049
L412.835 45.6153
L412.946 45.6765
L413.147 45.787
L413.258 45.8501
L413.467 45.9611
L413.577 46.0179
L413.795 46.1289
L413.906 46.1818
L414.143 46.2929
L414.253 46.3446
L414.476 46.4552
L414.587 46.5089
L414.836 46.62
L414.946 46.6651
L415.224 46.7761
L415.335 46.8239
L415.577 46.935
L415.687 46.9893
L415.924 47.1003
L416.034 47.1534
L416.28 47.2644
L416.388 47.3078
L416.628 47.4189
L416.739 47.4713
L416.972 47.5823
L417.083 47.6395
L417.295 47.7505
L417.406 47.8119
L417.625 47.9229
L417.736 47.9749
L417.951 48.0857
L418.06 48.15
L418.277 48.2611
L418.387 48.3188
L418.593 48.4296
L418.704 48.4892
L418.911 48.6002
L419.02 48.661
L419.225 48.7719
L419.336 48.8305
L419.558 48.9415
L419.669 49.0032
L419.878 49.1142
L419.988 49.1786
L420.18 49.2896
L420.291 49.353
L420.486 49.464
L420.597 49.5271
L420.8 49.6382
L420.91 49.6929
L421.163 49.8038
L421.274 49.8498
L421.635 49.9609
L421.746 49.99
L422.29 50.1009
L422.4 50.1357
L422.767 50.2466
L422.878 50.2809
L423.182 50.3919
L423.293 50.4363
L423.569 50.5473
L423.68 50.5918
L423.954 50.7029
L424.064 50.7505
L424.317 50.8616
L424.428 50.9132
L424.697 51.0237
L424.808 51.0639
L425.126 51.1749
L425.237 51.2093
L425.63 51.3201
L425.741 51.3484
L426.221 51.4593
L426.332 51.4859
L426.708 51.5969
L426.819 51.6251
L427.222 51.7362
L427.333 51.7714
L427.689 51.8824
L427.8 51.9209
L428.084 52.032
L428.195 52.0754
L428.469 52.1863
L428.58 52.2306
L428.881 52.3416
L428.992 52.3813
L429.271 52.4924
L429.382 52.5408
L429.609 52.6519
L429.72 52.7136
L429.93 52.8246
L430.041 52.8792
L430.291 52.9903
L430.402 53.0348
L430.733 53.1457
L430.843 53.1814
L431.226 53.2924
L431.337 53.3257
L431.685 53.4367
L431.796 53.4728
L432.128 53.5839
L432.239 53.6208
L432.544 53.7319
L432.655 53.7734
L432.987 53.8845
L433.098 53.9282
L433.362 54.0393
L433.473 54.0873
L433.73 54.1984
L433.841 54.2447
L434.088 54.3558
L434.199 54.401
L434.443 54.512
L434.554 54.5687
L434.754 54.6796
L434.865 54.7402
L435.075 54.8513
L435.186 54.9181
L435.384 55.0291
L435.495 55.0878
L435.719 55.1988
L435.83 55.2579
L436.029 55.3689
L436.139 55.4317
L436.345 55.5427
L436.456 55.6011
L436.651 55.7121
L436.762 55.7749
L436.954 55.8861
L437.065 55.9514
L437.24 56.0625
L437.351 56.1352
L437.505 56.2462
L437.616 56.3272
L437.768 56.438
L437.879 56.5235
L438.023 56.6346
L438.134 56.718
L438.272 56.8291
L438.383 56.9189
L438.527 57.03
L438.637 57.1142
L438.786 57.225
L438.897 57.3045
L439.064 57.4154
L439.175 57.4886
L439.345 57.5997
L439.456 57.6719
L439.623 57.7826
L439.734 57.8545
L439.917 57.9653
L440.028 58.0301
L440.243 58.1412
L440.354 58.1963
L440.599 58.3071
L440.709 58.3549
L440.964 58.4659
L441.075 58.513
L441.339 58.6241
L441.45 58.6659
L441.712 58.777
L441.823 58.8247
L442.092 58.9358
L442.202 58.9796
L442.517 59.0907
L442.628 59.1251
L442.996 59.2362
L443.107 59.2679
L443.512 59.3789
L443.623 59.4095
L443.966 59.5206
L444.077 59.5613
L444.377 59.6723
L444.488 59.7172
L444.787 59.8283
L444.898 59.8738
L445.184 59.9849
L445.294 60.0283
L445.597 60.1393
L445.708 60.1786
L446.004 60.2895
L446.115 60.3344
L446.381 60.4455
L446.492 60.4911
L446.786 60.6022
L446.897 60.6449
L447.197 60.7559
L447.307 60.7953
L447.614 60.9064
L447.725 60.948
L448.029 61.0591
L448.14 61.0985
L448.46 61.2096
L448.571 61.2529
L448.83 61.364
L448.941 61.4137
L449.185 61.5248
L449.296 61.5755
L449.543 61.6866
L449.654 61.7368
L449.905 61.8478
L450.016 61.8933
L450.267 62.0043
L450.378 62.0556
L450.617 62.1667
L450.728 62.2151
L450.973 62.3262
L451.084 62.3763
L451.324 62.4873
L451.435 62.5395
L451.661 62.6505
L451.772 62.7067
L452.015 62.8178
L452.126 62.8706
L452.382 62.9817
L452.493 63.0271
L452.787 63.1382
L452.898 63.1725
L453.253 63.2836
L453.364 63.3181
L453.739 63.4292
L453.85 63.4656
L454.182 63.5766
L454.293 63.6112
L454.662 63.7223
L454.773 63.7556
L455.175 63.8667
L455.286 63.8936
L455.766 64.0046
L455.877 64.0331
L456.337 64.1442
L456.448 64.1673
L457.075 64.2784
L457.186 64.2935
L457.82 64.4046
L457.931 64.4209
L459.211 64.532
L459.322 64.535
L462.823 64.4239
L462.934 64.4109
L463.825 64.2998
L463.936 64.2779
L464.471 64.1668
L464.582 64.1418
L465.162 64.0307
L465.273 64.0116
L466.055 63.9005
L466.167 63.8903
L467.419 63.7792
L467.53 63.769
L469.569 63.6579
L469.68 63.6542
L471.229 63.5431
L471.34 63.5342
L472.074 63.4231
L472.185 63.4031
L472.798 63.292
L472.909 63.2716
L473.488 63.1605
L473.599 63.1374
L474.057 63.0263
L474.168 63.0067
L474.876 62.8956
L474.987 62.8701
L475.381 62.759
L475.492 62.7261
L475.898 62.615
L476.009 62.5891
L476.445 62.478
L476.556 62.4483
L476.99 62.3372
L477.101 62.308
L477.533 62.1969
L477.644 62.1696
L478.117 62.0585
L478.228 62.0287
L478.721 61.9176
L478.832 61.8974
L479.478 61.7862
L479.589 61.7622
L480.242 61.6511
L480.353 61.6362
L481.912 61.525
L482.023 61.5146
L482.807 61.4035
L482.918 61.3828
L483.535 61.2717
L483.646 61.2557
L484.899 61.1446
L485.01 61.1355
L486.796 61.0244
L486.907 61.0117
L487.795 60.9006
L487.906 60.8879
L488.528 60.7768
L488.639 60.7495
L489.08 60.6384
L489.191 60.6129
L489.838 60.5017
L489.949 60.4817
L490.517 60.3706
L490.628 60.3494
L491.196 60.2383
L491.307 60.221
L492.46 60.1099
L492.571 60.1059
L498.671 60.2171
L498.782 60.2262
L501.616 60.1151
L501.727 60.0973
L502.463 59.9862
L502.574 59.9708
L503.733 59.8597
L503.845 59.8485
L505.072 59.7374
L505.183 59.7308
L510.351 59.6197
L510.462 59.5951
L511.037 59.484
L511.149 59.4659
L511.916 59.3548
L512.028 59.3405
L512.841 59.2294
L512.952 59.2098
L513.666 59.0987
L513.777 59.0838
L514.501 58.9727
L514.612 58.9509
L515.153 58.8398
L515.264 58.8158
L515.961 58.7047
L516.072 58.6879
L516.785 58.5768
L516.896 58.5529
L517.535 58.4418
L517.646 58.4221
L518.278 58.311
L518.389 58.2958
L519.129 58.1847
L519.24 58.1652
L519.818 58.0541
L519.929 58.0245
L520.343 57.9134
L520.455 57.8884
L520.952 57.7773
L521.063 57.7562
L521.641 57.6451
L521.753 57.6237
L522.225 57.5126
L522.336 57.4808
L522.782 57.3697
L522.893 57.3416
L523.305 57.2305
L523.417 57.1995
L523.792 57.0884
L523.903 57.0576
L524.342 56.9465
L524.453 56.9208
L524.83 56.8096
L524.941 56.7758
L525.284 56.6647
L525.395 56.6289
L525.725 56.5178
L525.836 56.4807
L526.171 56.3696
L526.282 56.3326
L526.629 56.2215
L526.74 56.1866
L527.046 56.0755
L527.157 56.0308
L527.429 55.9197
L527.541 55.8722
L527.816 55.7611
L527.927 55.7166
L528.2 55.6055
L528.311 55.5613
L528.585 55.4502
L528.696 55.4077
L528.989 55.2966
L529.1 55.258
L529.434 55.1469
L529.545 55.1118
L529.885 55.0007
L529.996 54.9603
L530.302 54.8492
L530.413 54.8132
L530.776 54.702
L530.888 54.6664
L531.19 54.5553
L531.301 54.5137
L531.664 54.4026
L531.775 54.3746
L532.188 54.2635
L532.299 54.2345
L532.77 54.1234
L532.881 54.0941
L533.254 53.983
L533.365 53.9481
L533.735 53.837
L533.847 53.8026
L534.158 53.6914
L534.269 53.6511
L534.578 53.54
L534.689 53.5016
L535.051 53.3905
L535.162 53.358
L535.535 53.2469
L535.646 53.2137
L535.996 53.1026
L536.107 53.0698
L536.467 52.9586
L536.578 52.9215
L536.902 52.8104
L537.013 52.7746
L537.37 52.6635
L537.481 52.6294
L537.864 52.5183
L537.975 52.4876
L538.436 52.3765
L538.547 52.3511
L539.009 52.24
L539.12 52.2129
L539.557 52.1018
L539.668 52.0696
L540.131 51.9585
L540.242 51.9301
L540.705 51.819
L540.816 51.7916
L541.291 51.6805
L541.402 51.651
L541.801 51.5398
L541.912 51.5051
L542.252 51.394
L542.363 51.3589
L542.692 51.2478
L542.803 51.2085
L543.093 51.0974
L543.204 51.0541
L543.469 50.943
L543.581 50.896
L543.863 50.7849
L543.974 50.7423
L544.255 50.6312
L544.367 50.5825
L544.618 50.4714
L544.729 50.4226
L544.988 50.3115
L545.099 50.2667
L545.37 50.1556
L545.481 50.1056
L545.729 49.9945
L545.84 49.945
L546.113 49.8339
L546.224 49.7901
L546.538 49.679
L546.649 49.6429
L547.003 49.5318
L547.114 49.492
L547.428 49.3808
L547.539 49.3427
L547.785 49.2542
L547.785 49.2542" style="fill:none;stroke:#0000ff;stroke-width:5.0;"/>
   </g>
   <g id="matplotlib.axis_1">
    <g id="xtick_1">
     <g id="line2d_2">
      <path d="
M183.103 397.926
L183.103 7.2" style="fill:none;stroke:#000000;stroke-dasharray:1.000000,3.000000;stroke-dashoffset:0.0;stroke-linecap:butt;stroke-width:0.5;"/>
     </g>
     <g id="line2d_3">
      <defs>
       <path d="
M0 0
L0 -4" id="m564c17987e"/>
      </defs>
      <g>
       <use style="stroke:#000000;stroke-linecap:butt;stroke-width:0.5;" x="183.103401444" xlink:href="#m564c17987e" y="390.412189349"/>
      </g>
     </g>
     <g id="text_1">
      <!-- 5 -->
      <defs>
       <path d="
M10.7969 72.9062
L49.5156 72.9062
L49.5156 64.5938
L19.8281 64.5938
L19.8281 46.7344
Q21.9688 47.4688 24.1094 47.8281
Q26.2656 48.1875 28.4219 48.1875
Q40.625 48.1875 47.75 41.5
Q54.8906 34.8125 54.8906 23.3906
Q54.8906 11.625 47.5625 5.09375
Q40.2344 -1.42188 26.9062 -1.42188
Q22.3125 -1.42188 17.5469 -0.640625
Q12.7969 0.140625 7.71875 1.70312
L7.71875 11.625
Q12.1094 9.23438 16.7969 8.0625
Q21.4844 6.89062 26.7031 6.89062
Q35.1562 6.89062 40.0781 11.3281
Q45.0156 15.7656 45.0156 23.3906
Q45.0156 31 40.0781 35.4375
Q35.1562 39.8906 26.7031 39.8906
Q22.75 39.8906 18.8125 39.0156
Q14.8906 38.1406 10.7969 36.2812
z
" id="BitstreamVeraSans-Roman-35"/>
      </defs>
      <g transform="translate(177.442776444 411.909689349)scale(0.24 -0.24)">
       <use xlink:href="#BitstreamVeraSans-Roman-35"/>
      </g>
     </g>
    </g>
    <g id="xtick_2">
     <g id="line2d_4">
      <path d="
M318.969 397.926
L318.969 7.2" style="fill:none;stroke:#000000;stroke-dasharray:1.000000,3.000000;stroke-dashoffset:0.0;stroke-linecap:butt;stroke-width:0.5;"/>
     </g>
     <g id="line2d_5">
      <defs>
       <path d="
M0 0
L0 -4" id="m564c17987e"/>
      </defs>
      <g>
       <use style="stroke:#000000;stroke-linecap:butt;stroke-width:0.5;" x="318.968760189" xlink:href="#m564c17987e" y="390.412189349"/>
      </g>
     </g>
     <g id="text_2">
      <!-- 10 -->
      <defs>
       <path d="
M31.7812 66.4062
Q24.1719 66.4062 20.3281 58.9062
Q16.5 51.4219 16.5 36.375
Q16.5 21.3906 20.3281 13.8906
Q24.1719 6.39062 31.7812 6.39062
Q39.4531 6.39062 43.2812 13.8906
Q47.125 21.3906 47.125 36.375
Q47.125 51.4219 43.2812 58.9062
Q39.4531 66.4062 31.7812 66.4062
M31.7812 74.2188
Q44.0469 74.2188 50.5156 64.5156
Q56.9844 54.8281 56.9844 36.375
Q56.9844 17.9688 50.5156 8.26562
Q44.0469 -1.42188 31.7812 -1.42188
Q19.5312 -1.42188 13.0625 8.26562
Q6.59375 17.9688 6.59375 36.375
Q6.59375 54.8281 13.0625 64.5156
Q19.5312 74.2188 31.7812 74.2188" id="BitstreamVeraSans-Roman-30"/>
       <path d="
M12.4062 8.29688
L28.5156 8.29688
L28.5156 63.9219
L10.9844 60.4062
L10.9844 69.3906
L28.4219 72.9062
L38.2812 72.9062
L38.2812 8.29688
L54.3906 8.29688
L54.3906 0
L12.4062 0
z
" id="BitstreamVeraSans-Roman-31"/>
      </defs>
      <g transform="translate(305.813760189 412.224689349)scale(0.24 -0.24)">
       <use xlink:href="#BitstreamVeraSans-Roman-31"/>
       <use x="63.623046875" xlink:href="#BitstreamVeraSans-Roman-30"/>
      </g>
     </g>
    </g>
    <g id="xtick_3">
     <g id="line2d_6">
      <path d="
M454.834 397.926
L454.834 7.2" style="fill:none;stroke:#000000;stroke-dasharray:1.000000,3.000000;stroke-dashoffset:0.0;stroke-linecap:butt;stroke-width:0.5;"/>
     </g>
     <g id="line2d_7">
      <defs>
       <path d="
M0 0
L0 -4" id="m564c17987e"/>
      </defs>
      <g>
       <use style="stroke:#000000;stroke-linecap:butt;stroke-width:0.5;" x="454.834118934" xlink:href="#m564c17987e" y="390.412189349"/>
      </g>
     </g>
     <g id="text_3">
      <!-- 15 -->
      <g transform="translate(441.930368934 411.909689349)scale(0.24 -0.24)">
       <use xlink:href="#BitstreamVeraSans-Roman-31"/>
       <use x="63.623046875" xlink:href="#BitstreamVeraSans-Roman-35"/>
      </g>
     </g>
    </g>
    <g id="xtick_4">
     <g id="line2d_8">
      <defs>
       <path d="
M0 0
L0 -2" id="mb9a811f43d"/>
      </defs>
      <g>
       <use style="stroke:#000000;stroke-linecap:butt;stroke-width:0.5;" x="74.4111144483" xlink:href="#mb9a811f43d" y="390.412189349"/>
      </g>
     </g>
    </g>
    <g id="xtick_5">
     <g id="line2d_9">
      <defs>
       <path d="
M0 0
L0 -2" id="mb9a811f43d"/>
      </defs>
      <g>
       <use style="stroke:#000000;stroke-linecap:butt;stroke-width:0.5;" x="101.584186197" xlink:href="#mb9a811f43d" y="390.412189349"/>
      </g>
     </g>
    </g>
    <g id="xtick_6">
     <g id="line2d_10">
      <defs>
       <path d="
M0 0
L0 -2" id="mb9a811f43d"/>
      </defs>
      <g>
       <use style="stroke:#000000;stroke-linecap:butt;stroke-width:0.5;" x="128.757257946" xlink:href="#mb9a811f43d" y="390.412189349"/>
      </g>
     </g>
    </g>
    <g id="xtick_7">
     <g id="line2d_11">
      <defs>
       <path d="
M0 0
L0 -2" id="mb9a811f43d"/>
      </defs>
      <g>
       <use style="stroke:#000000;stroke-linecap:butt;stroke-width:0.5;" x="155.930329695" xlink:href="#mb9a811f43d" y="390.412189349"/>
      </g>
     </g>
    </g>
    <g id="xtick_8">
     <g id="line2d_12">
      <defs>
       <path d="
M0 0
L0 -2" id="mb9a811f43d"/>
      </defs>
      <g>
       <use style="stroke:#000000;stroke-linecap:butt;stroke-width:0.5;" x="210.276473193" xlink:href="#mb9a811f43d" y="390.412189349"/>
      </g>
     </g>
    </g>
    <g id="xtick_9">
     <g id="line2d_13">
      <defs>
       <path d="
M0 0
L0 -2" id="mb9a811f43d"/>
      </defs>
      <g>
       <use style="stroke:#000000;stroke-linecap:butt;stroke-width:0.5;" x="237.449544942" xlink:href="#mb9a811f43d" y="390.412189349"/>
      </g>
     </g>
    </g>
    <g id="xtick_10">
     <g id="line2d_14">
      <defs>
       <path d="
M0 0
L0 -2" id="mb9a811f43d"/>
      </defs>
      <g>
       <use style="stroke:#000000;stroke-linecap:butt;stroke-width:0.5;" x="264.622616691" xlink:href="#mb9a811f43d" y="390.412189349"/>
      </g>
     </g>
    </g>
    <g id="xtick_11">
     <g id="line2d_15">
      <defs>
       <path d="
M0 0
L0 -2" id="mb9a811f43d"/>
      </defs>
      <g>
       <use style="stroke:#000000;stroke-linecap:butt;stroke-width:0.5;" x="291.79568844" xlink:href="#mb9a811f43d" y="390.412189349"/>
      </g>
     </g>
    </g>
    <g id="xtick_12">
     <g id="line2d_16">
      <defs>
       <path d="
M0 0
L0 -2" id="mb9a811f43d"/>
      </defs>
      <g>
       <use style="stroke:#000000;stroke-linecap:butt;stroke-width:0.5;" x="346.141831938" xlink:href="#mb9a811f43d" y="390.412189349"/>
      </g>
     </g>
    </g>
    <g id="xtick_13">
     <g id="line2d_17">
      <defs>
       <path d="
M0 0
L0 -2" id="mb9a811f43d"/>
      </defs>
      <g>
       <use style="stroke:#000000;stroke-linecap:butt;stroke-width:0.5;" x="373.314903687" xlink:href="#mb9a811f43d" y="390.412189349"/>
      </g>
     </g>
    </g>
    <g id="xtick_14">
     <g id="line2d_18">
      <defs>
       <path d="
M0 0
L0 -2" id="mb9a811f43d"/>
      </defs>
      <g>
       <use style="stroke:#000000;stroke-linecap:butt;stroke-width:0.5;" x="400.487975436" xlink:href="#mb9a811f43d" y="390.412189349"/>
      </g>
     </g>
    </g>
    <g id="xtick_15">
     <g id="line2d_19">
      <defs>
       <path d="
M0 0
L0 -2" id="mb9a811f43d"/>
      </defs>
      <g>
       <use style="stroke:#000000;stroke-linecap:butt;stroke-width:0.5;" x="427.661047185" xlink:href="#mb9a811f43d" y="390.412189349"/>
      </g>
     </g>
    </g>
    <g id="xtick_16">
     <g id="line2d_20">
      <defs>
       <path d="
M0 0
L0 -2" id="mb9a811f43d"/>
      </defs>
      <g>
       <use style="stroke:#000000;stroke-linecap:butt;stroke-width:0.5;" x="482.007190683" xlink:href="#mb9a811f43d" y="390.412189349"/>
      </g>
     </g>
    </g>
    <g id="xtick_17">
     <g id="line2d_21">
      <defs>
       <path d="
M0 0
L0 -2" id="mb9a811f43d"/>
      </defs>
      <g>
       <use style="stroke:#000000;stroke-linecap:butt;stroke-width:0.5;" x="509.180262432" xlink:href="#mb9a811f43d" y="390.412189349"/>
      </g>
     </g>
    </g>
   </g>
   <g id="matplotlib.axis_2">
    <g id="ytick_1">
     <g id="line2d_22">
      <path d="
M56.4387 390.412
L557.419 390.412" style="fill:none;stroke:#000000;stroke-dasharray:1.000000,3.000000;stroke-dashoffset:0.0;stroke-linecap:butt;stroke-width:0.5;"/>
     </g>
     <g id="line2d_23">
      <defs>
       <path d="
M0 0
L4 0" id="m11d00daec5"/>
      </defs>
      <g>
       <use style="stroke:#000000;stroke-linecap:butt;stroke-width:0.5;" x="46.43875" xlink:href="#m11d00daec5" y="390.412189349"/>
      </g>
     </g>
     <g id="text_4">
      <!-- 0 -->
      <g transform="translate(30.345 399.147814349)scale(0.24 -0.24)">
       <use xlink:href="#BitstreamVeraSans-Roman-30"/>
      </g>
     </g>
    </g>
    <g id="ytick_2">
     <g id="line2d_24">
      <path d="
M56.4387 319.987
L557.419 319.987" style="fill:none;stroke:#000000;stroke-dasharray:1.000000,3.000000;stroke-dashoffset:0.0;stroke-linecap:butt;stroke-width:0.5;"/>
     </g>
     <g id="line2d_25">
      <defs>
       <path d="
M0 0
L4 0" id="m11d00daec5"/>
      </defs>
      <g>
       <use style="stroke:#000000;stroke-linecap:butt;stroke-width:0.5;" x="46.43875" xlink:href="#m11d00daec5" y="319.986833684"/>
      </g>
     </g>
     <g id="text_5">
      <!-- 0.1 -->
      <defs>
       <path d="
M10.6875 12.4062
L21 12.4062
L21 0
L10.6875 0
z
" id="BitstreamVeraSans-Roman-2e"/>
      </defs>
      <g transform="translate(8.07 328.722458684)scale(0.24 -0.24)">
       <use xlink:href="#BitstreamVeraSans-Roman-30"/>
       <use x="63.623046875" xlink:href="#BitstreamVeraSans-Roman-2e"/>
       <use x="95.41015625" xlink:href="#BitstreamVeraSans-Roman-31"/>
      </g>
     </g>
    </g>
    <g id="ytick_3">
     <g id="line2d_26">
      <path d="
M56.4387 249.561
L557.419 249.561" style="fill:none;stroke:#000000;stroke-dasharray:1.000000,3.000000;stroke-dashoffset:0.0;stroke-linecap:butt;stroke-width:0.5;"/>
     </g>
     <g id="line2d_27">
      <defs>
       <path d="
M0 0
L4 0" id="m11d00daec5"/>
      </defs>
      <g>
       <use style="stroke:#000000;stroke-linecap:butt;stroke-width:0.5;" x="46.43875" xlink:href="#m11d00daec5" y="249.561478019"/>
      </g>
     </g>
     <g id="text_6">
      <!-- 0.2 -->
      <defs>
       <path d="
M19.1875 8.29688
L53.6094 8.29688
L53.6094 0
L7.32812 0
L7.32812 8.29688
Q12.9375 14.1094 22.625 23.8906
Q32.3281 33.6875 34.8125 36.5312
Q39.5469 41.8438 41.4219 45.5312
Q43.3125 49.2188 43.3125 52.7812
Q43.3125 58.5938 39.2344 62.25
Q35.1562 65.9219 28.6094 65.9219
Q23.9688 65.9219 18.8125 64.3125
Q13.6719 62.7031 7.8125 59.4219
L7.8125 69.3906
Q13.7656 71.7812 18.9375 73
Q24.125 74.2188 28.4219 74.2188
Q39.75 74.2188 46.4844 68.5469
Q53.2188 62.8906 53.2188 53.4219
Q53.2188 48.9219 51.5312 44.8906
Q49.8594 40.875 45.4062 35.4062
Q44.1875 33.9844 37.6406 27.2188
Q31.1094 20.4531 19.1875 8.29688" id="BitstreamVeraSans-Roman-32"/>
      </defs>
      <g transform="translate(8.2575 258.297103019)scale(0.24 -0.24)">
       <use xlink:href="#BitstreamVeraSans-Roman-30"/>
       <use x="63.623046875" xlink:href="#BitstreamVeraSans-Roman-2e"/>
       <use x="95.41015625" xlink:href="#BitstreamVeraSans-Roman-32"/>
      </g>
     </g>
    </g>
    <g id="ytick_4">
     <g id="line2d_28">
      <path d="
M56.4387 179.136
L557.419 179.136" style="fill:none;stroke:#000000;stroke-dasharray:1.000000,3.000000;stroke-dashoffset:0.0;stroke-linecap:butt;stroke-width:0.5;"/>
     </g>
     <g id="line2d_29">
      <defs>
       <path d="
M0 0
L4 0" id="m11d00daec5"/>
      </defs>
      <g>
       <use style="stroke:#000000;stroke-linecap:butt;stroke-width:0.5;" x="46.43875" xlink:href="#m11d00daec5" y="179.136122353"/>
      </g>
     </g>
     <g id="text_7">
      <!-- 0.3 -->
      <defs>
       <path d="
M40.5781 39.3125
Q47.6562 37.7969 51.625 33
Q55.6094 28.2188 55.6094 21.1875
Q55.6094 10.4062 48.1875 4.48438
Q40.7656 -1.42188 27.0938 -1.42188
Q22.5156 -1.42188 17.6562 -0.515625
Q12.7969 0.390625 7.625 2.20312
L7.625 11.7188
Q11.7188 9.32812 16.5938 8.10938
Q21.4844 6.89062 26.8125 6.89062
Q36.0781 6.89062 40.9375 10.5469
Q45.7969 14.2031 45.7969 21.1875
Q45.7969 27.6406 41.2812 31.2656
Q36.7656 34.9062 28.7188 34.9062
L20.2188 34.9062
L20.2188 43.0156
L29.1094 43.0156
Q36.375 43.0156 40.2344 45.9219
Q44.0938 48.8281 44.0938 54.2969
Q44.0938 59.9062 40.1094 62.9062
Q36.1406 65.9219 28.7188 65.9219
Q24.6562 65.9219 20.0156 65.0312
Q15.375 64.1562 9.8125 62.3125
L9.8125 71.0938
Q15.4375 72.6562 20.3438 73.4375
Q25.25 74.2188 29.5938 74.2188
Q40.8281 74.2188 47.3594 69.1094
Q53.9062 64.0156 53.9062 55.3281
Q53.9062 49.2656 50.4375 45.0938
Q46.9688 40.9219 40.5781 39.3125" id="BitstreamVeraSans-Roman-33"/>
      </defs>
      <g transform="translate(7.7775 187.871747353)scale(0.24 -0.24)">
       <use xlink:href="#BitstreamVeraSans-Roman-30"/>
       <use x="63.623046875" xlink:href="#BitstreamVeraSans-Roman-2e"/>
       <use x="95.41015625" xlink:href="#BitstreamVeraSans-Roman-33"/>
      </g>
     </g>
    </g>
    <g id="ytick_5">
     <g id="line2d_30">
      <path d="
M56.4387 108.711
L557.419 108.711" style="fill:none;stroke:#000000;stroke-dasharray:1.000000,3.000000;stroke-dashoffset:0.0;stroke-linecap:butt;stroke-width:0.5;"/>
     </g>
     <g id="line2d_31">
      <defs>
       <path d="
M0 0
L4 0" id="m11d00daec5"/>
      </defs>
      <g>
       <use style="stroke:#000000;stroke-linecap:butt;stroke-width:0.5;" x="46.43875" xlink:href="#m11d00daec5" y="108.710766688"/>
      </g>
     </g>
     <g id="text_8">
      <!-- 0.4 -->
      <defs>
       <path d="
M37.7969 64.3125
L12.8906 25.3906
L37.7969 25.3906
z

M35.2031 72.9062
L47.6094 72.9062
L47.6094 25.3906
L58.0156 25.3906
L58.0156 17.1875
L47.6094 17.1875
L47.6094 0
L37.7969 0
L37.7969 17.1875
L4.89062 17.1875
L4.89062 26.7031
z
" id="BitstreamVeraSans-Roman-34"/>
      </defs>
      <g transform="translate(7.2 117.446391688)scale(0.24 -0.24)">
       <use xlink:href="#BitstreamVeraSans-Roman-30"/>
       <use x="63.623046875" xlink:href="#BitstreamVeraSans-Roman-2e"/>
       <use x="95.41015625" xlink:href="#BitstreamVeraSans-Roman-34"/>
      </g>
     </g>
    </g>
    <g id="ytick_6">
     <g id="line2d_32">
      <path d="
M56.4387 38.2854
L557.419 38.2854" style="fill:none;stroke:#000000;stroke-dasharray:1.000000,3.000000;stroke-dashoffset:0.0;stroke-linecap:butt;stroke-width:0.5;"/>
     </g>
     <g id="line2d_33">
      <defs>
       <path d="
M0 0
L4 0" id="m11d00daec5"/>
      </defs>
      <g>
       <use style="stroke:#000000;stroke-linecap:butt;stroke-width:0.5;" x="46.43875" xlink:href="#m11d00daec5" y="38.285411023"/>
      </g>
     </g>
     <g id="text_9">
      <!-- 0.5 -->
      <g transform="translate(7.95 47.021036023)scale(0.24 -0.24)">
       <use xlink:href="#BitstreamVeraSans-Roman-30"/>
       <use x="63.623046875" xlink:href="#BitstreamVeraSans-Roman-2e"/>
       <use x="95.41015625" xlink:href="#BitstreamVeraSans-Roman-35"/>
      </g>
     </g>
    </g>
    <g id="ytick_7">
     <g id="line2d_34">
      <defs>
       <path d="
M0 0
L2 0" id="m982e043974"/>
      </defs>
      <g>
       <use style="stroke:#000000;stroke-linecap:butt;stroke-width:0.5;" x="46.43875" xlink:href="#m982e043974" y="376.327118216"/>
      </g>
     </g>
    </g>
    <g id="ytick_8">
     <g id="line2d_35">
      <defs>
       <path d="
M0 0
L2 0" id="m982e043974"/>
      </defs>
      <g>
       <use style="stroke:#000000;stroke-linecap:butt;stroke-width:0.5;" x="46.43875" xlink:href="#m982e043974" y="362.242047083"/>
      </g>
     </g>
    </g>
    <g id="ytick_9">
     <g id="line2d_36">
      <defs>
       <path d="
M0 0
L2 0" id="m982e043974"/>
      </defs>
      <g>
       <use style="stroke:#000000;stroke-linecap:butt;stroke-width:0.5;" x="46.43875" xlink:href="#m982e043974" y="348.15697595"/>
      </g>
     </g>
    </g>
    <g id="ytick_10">
     <g id="line2d_37">
      <defs>
       <path d="
M0 0
L2 0" id="m982e043974"/>
      </defs>
      <g>
       <use style="stroke:#000000;stroke-linecap:butt;stroke-width:0.5;" x="46.43875" xlink:href="#m982e043974" y="334.071904817"/>
      </g>
     </g>
    </g>
    <g id="ytick_11">
     <g id="line2d_38">
      <defs>
       <path d="
M0 0
L2 0" id="m982e043974"/>
      </defs>
      <g>
       <use style="stroke:#000000;stroke-linecap:butt;stroke-width:0.5;" x="46.43875" xlink:href="#m982e043974" y="305.901762551"/>
      </g>
     </g>
    </g>
    <g id="ytick_12">
     <g id="line2d_39">
      <defs>
       <path d="
M0 0
L2 0" id="m982e043974"/>
      </defs>
      <g>
       <use style="stroke:#000000;stroke-linecap:butt;stroke-width:0.5;" x="46.43875" xlink:href="#m982e043974" y="291.816691418"/>
      </g>
     </g>
    </g>
    <g id="ytick_13">
     <g id="line2d_40">
      <defs>
       <path d="
M0 0
L2 0" id="m982e043974"/>
      </defs>
      <g>
       <use style="stroke:#000000;stroke-linecap:butt;stroke-width:0.5;" x="46.43875" xlink:href="#m982e043974" y="277.731620285"/>
      </g>
     </g>
    </g>
    <g id="ytick_14">
     <g id="line2d_41">
      <defs>
       <path d="
M0 0
L2 0" id="m982e043974"/>
      </defs>
      <g>
       <use style="stroke:#000000;stroke-linecap:butt;stroke-width:0.5;" x="46.43875" xlink:href="#m982e043974" y="263.646549152"/>
      </g>
     </g>
    </g>
    <g id="ytick_15">
     <g id="line2d_42">
      <defs>
       <path d="
M0 0
L2 0" id="m982e043974"/>
      </defs>
      <g>
       <use style="stroke:#000000;stroke-linecap:butt;stroke-width:0.5;" x="46.43875" xlink:href="#m982e043974" y="235.476406886"/>
      </g>
     </g>
    </g>
    <g id="ytick_16">
     <g id="line2d_43">
      <defs>
       <path d="
M0 0
L2 0" id="m982e043974"/>
      </defs>
      <g>
       <use style="stroke:#000000;stroke-linecap:butt;stroke-width:0.5;" x="46.43875" xlink:href="#m982e043974" y="221.391335753"/>
      </g>
     </g>
    </g>
    <g id="ytick_17">
     <g id="line2d_44">
      <defs>
       <path d="
M0 0
L2 0" id="m982e043974"/>
      </defs>
      <g>
       <use style="stroke:#000000;stroke-linecap:butt;stroke-width:0.5;" x="46.43875" xlink:href="#m982e043974" y="207.30626462"/>
      </g>
     </g>
    </g>
    <g id="ytick_18">
     <g id="line2d_45">
      <defs>
       <path d="
M0 0
L2 0" id="m982e043974"/>
      </defs>
      <g>
       <use style="stroke:#000000;stroke-linecap:butt;stroke-width:0.5;" x="46.43875" xlink:href="#m982e043974" y="193.221193487"/>
      </g>
     </g>
    </g>
    <g id="ytick_19">
     <g id="line2d_46">
      <defs>
       <path d="
M0 0
L2 0" id="m982e043974"/>
      </defs>
      <g>
       <use style="stroke:#000000;stroke-linecap:butt;stroke-width:0.5;" x="46.43875" xlink:href="#m982e043974" y="165.05105122"/>
      </g>
     </g>
    </g>
    <g id="ytick_20">
     <g id="line2d_47">
      <defs>
       <path d="
M0 0
L2 0" id="m982e043974"/>
      </defs>
      <g>
       <use style="stroke:#000000;stroke-linecap:butt;stroke-width:0.5;" x="46.43875" xlink:href="#m982e043974" y="150.965980087"/>
      </g>
     </g>
    </g>
    <g id="ytick_21">
     <g id="line2d_48">
      <defs>
       <path d="
M0 0
L2 0" id="m982e043974"/>
      </defs>
      <g>
       <use style="stroke:#000000;stroke-linecap:butt;stroke-width:0.5;" x="46.43875" xlink:href="#m982e043974" y="136.880908954"/>
      </g>
     </g>
    </g>
    <g id="ytick_22">
     <g id="line2d_49">
      <defs>
       <path d="
M0 0
L2 0" id="m982e043974"/>
      </defs>
      <g>
       <use style="stroke:#000000;stroke-linecap:butt;stroke-width:0.5;" x="46.43875" xlink:href="#m982e043974" y="122.795837821"/>
      </g>
     </g>
    </g>
    <g id="ytick_23">
     <g id="line2d_50">
      <defs>
       <path d="
M0 0
L2 0" id="m982e043974"/>
      </defs>
      <g>
       <use style="stroke:#000000;stroke-linecap:butt;stroke-width:0.5;" x="46.43875" xlink:href="#m982e043974" y="94.6256955552"/>
      </g>
     </g>
    </g>
    <g id="ytick_24">
     <g id="line2d_51">
      <defs>
       <path d="
M0 0
L2 0" id="m982e043974"/>
      </defs>
      <g>
       <use style="stroke:#000000;stroke-linecap:butt;stroke-width:0.5;" x="46.43875" xlink:href="#m982e043974" y="80.5406244222"/>
      </g>
     </g>
    </g>
    <g id="ytick_25">
     <g id="line2d_52">
      <defs>
       <path d="
M0 0
L2 0" id="m982e043974"/>
      </defs>
      <g>
       <use style="stroke:#000000;stroke-linecap:butt;stroke-width:0.5;" x="46.43875" xlink:href="#m982e043974" y="66.4555532891"/>
      </g>
     </g>
    </g>
    <g id="ytick_26">
     <g id="line2d_53">
      <defs>
       <path d="
M0 0
L2 0" id="m982e043974"/>
      </defs>
      <g>
       <use style="stroke:#000000;stroke-linecap:butt;stroke-width:0.5;" x="46.43875" xlink:href="#m982e043974" y="52.3704821561"/>
      </g>
     </g>
    </g>
    <g id="ytick_27">
     <g id="line2d_54">
      <defs>
       <path d="
M0 0
L2 0" id="m982e043974"/>
      </defs>
      <g>
       <use style="stroke:#000000;stroke-linecap:butt;stroke-width:0.5;" x="46.43875" xlink:href="#m982e043974" y="24.20033989"/>
      </g>
     </g>
    </g>
   </g>
   <g id="patch_3">
    <path d="
M56.4387 390.412
L557.419 390.412" style="fill:none;stroke:#000000;stroke-width:0.8;"/>
   </g>
   <g id="patch_4">
    <path d="
M46.4387 397.926
L46.4387 7.2" style="fill:none;stroke:#000000;stroke-width:0.8;"/>
   </g>
  </g>
 </g>
 <defs>
  <clipPath id="p3e282f3160">
   <rect height="390.726153846" width="500.98" x="56.43875" y="7.2"/>
  </clipPath>
 </defs>
</svg>
