<?xml version="1.0" encoding="utf-8" standalone="no"?>
<!DOCTYPE svg PUBLIC "-//W3C//DTD SVG 1.1//EN"
  "http://www.w3.org/Graphics/SVG/1.1/DTD/svg11.dtd">
<!-- Created with matplotlib (http://matplotlib.sourceforge.net/) -->
<svg height="419pt" version="1.1" viewBox="0 0 564 419" width="564pt" xmlns="http://www.w3.org/2000/svg" xmlns:xlink="http://www.w3.org/1999/xlink">
 <defs>
  <style type="text/css">
*{stroke-linecap:square;stroke-linejoin:round;}
  </style>
 </defs>
 <g id="figure_1">
  <g id="patch_1">
   <path d="
M0 419.766
L564.544 419.766
L564.544 0
L0 0
z
" style="fill:#ffffff;"/>
  </g>
  <g id="axes_1">
   <g id="patch_2">
    <path d="
M55.6887 397.926
L557.344 397.926
L557.344 7.2
L55.6887 7.2
z
" style="fill:#ffffff;"/>
   </g>
   <g id="line2d_1">
    <path clip-path="url(#pda58150b38)" d="
M65.336 390.412
L76.3685 390.412
L76.3685 367.058
L90.2679 367.058
L90.2679 326.159
L99.4232 326.159
L99.4232 295.17
L111.722 295.17
L111.722 251.757
L116.267 251.757
L116.267 245.199
L123.566 245.199
L123.566 244.211
L126.593 244.211
L126.593 241.147
L138.099 241.232
L138.099 236.81
L139.913 236.81
L139.913 237.11
L144.728 237.11
L144.728 234.728
L147.521 234.728
L147.521 231.816
L148.817 231.816
L148.817 229.763
L151.237 229.763
L151.237 227.642
L154.506 227.642
L154.506 223.254
L157.424 223.254
L157.424 218.207
L158.331 218.207
L158.331 216.267
L160.884 216.267
L160.884 212.411
L162.462 212.411
L162.462 210.976
L163.218 210.976
L163.218 209.96
L165.367 209.96
L165.367 206.23
L166.711 206.23
L166.711 203.433
L168.61 203.433
L168.61 198.864
L170.952 198.864
L170.952 194.598
L172.052 194.598
L172.052 193.165
L172.585 193.165
L172.585 192.276
L173.622 192.276
L173.622 190.185
L174.126 190.185
L174.126 188.997
L175.106 188.997
L175.106 187.122
L178.284 187.122
L178.284 182.644
L179.128 182.644
L179.128 181.846
L180.347 181.846
L180.347 180.318
L180.741 180.318
L180.741 179.702
L182.631 179.702
L182.631 177.511
L182.994 177.511
L182.994 177.231
L184.054 177.231
L184.054 176.091
L185.075 176.091
L185.075 175.369
L185.735 175.369
L185.735 175.131
L186.695 175.131
L186.695 174.505
L187.623 174.505
L187.623 173.645
L187.925 173.645
L187.925 173.281
L189.388 173.281
L189.388 172.013
L189.672 172.013
L189.672 171.694
L190.23 171.694
L190.23 170.912
L190.505 170.912
L190.505 170.454
L192.098 170.454
L192.098 167.432
L193.603 167.432
L193.603 164.311
L194.087 164.311
L194.087 163.473
L194.326 163.473
L194.326 163
L194.797 163
L194.797 162.204
L195.488 162.204
L195.488 161.244
L195.715 161.244
L195.715 160.875
L196.821 160.875
L196.821 158.83
L197.464 158.83
L197.464 157.513
L198.092 157.513
L198.092 156.412
L198.706 156.412
L198.706 155.514
L198.908 155.514
L198.908 155.273
L199.503 155.273
L199.503 154.427
L199.893 154.427
L199.893 153.978
L200.086 153.978
L200.086 153.806
L201.031 153.806
L201.031 153.21
L202.301 153.21
L202.301 152.159
L202.654 152.159
L202.654 151.96
L202.828 151.96
L202.828 151.822
L203.174 151.822
L203.174 151.633
L204.349 151.633
L204.349 150.751
L204.838 150.751
L204.838 150.29
L205.634 150.29
L205.634 149.386
L205.79 149.386
L205.79 149.177
L206.1 149.177
L206.1 148.7
L206.559 148.7
L206.559 148.103
L207.159 148.103
L207.159 147.209
L207.6 147.209
L207.6 146.471
L208.034 146.471
L208.034 145.664
L208.32 145.664
L208.32 145.08
L208.743 145.08
L208.743 144.138
L209.297 144.138
L209.297 142.81
L209.569 142.81
L209.569 142.22
L210.107 142.22
L210.107 141.183
L210.764 141.183
L210.764 140.072
L210.894 140.072
L210.894 139.83
L211.533 139.83
L211.533 138.779
L211.658 138.779
L211.658 138.55
L212.033 138.55
L212.033 137.949
L212.28 137.949
L212.28 137.509
L212.646 137.509
L212.646 136.933
L213.126 136.933
L213.126 136.282
L213.363 136.282
L213.363 135.92
L213.481 135.92
L213.481 135.719
L213.715 135.719
L213.715 135.366
L214.406 135.366
L214.406 134.214
L214.856 134.214
L214.856 133.393
L215.079 133.393
L215.079 132.951
L215.519 132.951
L215.519 132.168
L215.736 132.168
L215.736 131.747
L216.059 131.747
L216.059 131.067
L216.693 131.067
L216.797 129.692
L217.718 129.692
L217.718 128.327
L218.018 128.327
L218.018 127.945
L218.511 127.945
L218.511 127.413
L218.802 127.413
L218.802 127.053
L219.091 127.053
L219.186 126.503
L219.471 126.503
L219.471 126.016
L219.938 126.016
L219.938 125.146
L220.215 125.146
L220.215 124.685
L220.489 124.685
L220.579 124.129
L220.85 124.129
L220.85 123.644
L221.117 123.644
L221.117 123.212
L221.294 123.212
L221.382 122.846
L221.905 122.846
L221.905 122.108
L222.333 122.108
L222.417 121.328
L222.586 121.328
L222.586 121.125
L222.837 121.125
L222.837 120.784
L223.086 120.784
L223.169 120.379
L223.658 120.379
L223.658 119.655
L223.819 119.655
L223.819 119.395
L224.06 119.395
L224.06 118.971
L224.376 118.971
L224.376 118.467
L224.767 118.467
L224.767 117.793
L225.076 117.793
L225.076 117.22
L225.457 117.22
L225.457 116.462
L225.758 116.462
L225.758 115.825
L225.982 115.825
L225.982 115.322
L226.204 115.322
L226.204 114.86
L226.351 114.86
L226.351 114.578
L226.642 114.578
L226.642 113.979
L226.859 113.979
L226.859 113.57
L227.002 113.57
L227.002 113.28
L227.286 113.28
L227.286 112.665
L227.428 112.665
L227.428 112.384
L227.916 112.384
L227.916 111.49
L228.26 111.49
L228.26 110.921
L228.666 110.921
L228.733 110.225
L229.067 110.225
L229.133 109.763
L229.265 109.763
L229.331 109.598
L229.657 109.598
L229.657 109.314
L230.107 109.314
L230.107 108.865
L230.235 108.865
L230.298 108.66
L230.424 108.66
L230.424 108.52
L230.862 108.52
L230.862 107.977
L230.986 107.977
L231.048 107.767
L231.171 107.767
L231.171 107.634
L231.777 107.634
L231.777 106.907
L231.897 106.907
L231.897 106.782
L232.135 106.782
L232.135 106.567
L232.43 106.567
L232.43 106.265
L232.663 106.265
L232.663 105.997
L232.779 105.997
L232.779 105.849
L232.952 105.849
L232.952 105.653
L233.124 105.653
L233.124 105.483
L233.52 105.483
L233.52 105.041
L233.8 104.932
L233.8 104.749
L233.967 104.749
L233.967 104.546
L234.187 104.546
L234.187 104.251
L234.352 104.251
L234.352 104.012
L234.677 104.012
L234.785 103.43
L234.946 103.43
L234.999 103.146
L235.264 103.146
L235.317 102.731
L235.474 102.731
L235.474 102.491
L235.735 102.491
L235.787 102.052
L236.045 102.052
L236.096 101.636
L236.249 101.636
L236.249 101.428
L236.703 101.428
L236.803 100.743
L236.953 100.683
L236.953 100.577
L237.101 100.577
L237.101 100.4
L237.249 100.4
L237.249 100.207
L237.444 100.207
L237.444 99.9298
L237.59 99.9298
L237.59 99.7421
L237.735 99.7421
L237.735 99.5387
L238.26 99.5387
L238.307 98.6835
L238.542 98.6835
L238.542 98.3917
L238.729 98.3917
L238.729 98.1843
L238.96 98.1843
L238.96 97.9569
L239.098 97.9569
L239.098 97.806
L239.235 97.806
L239.235 97.6406
L239.417 97.6406
L239.417 97.4012
L239.688 97.4012
L239.777 96.8793
L239.911 96.8793
L239.911 96.6598
L240.044 96.6598
L240.088 96.3445
L240.221 96.3445
L240.221 96.1144
L240.483 96.1144
L240.483 95.6304
L240.7 95.6304
L240.7 95.2088
L241.087 95.2088
L241.129 94.429
L241.214 94.429
L241.214 94.2575
L241.341 94.2575
L241.383 93.9319
L241.509 93.9319
L241.593 93.498
L241.718 93.4102
L241.718 93.2257
L241.967 93.2257
L242.008 92.5512
L242.132 92.5512
L242.132 92.2681
L242.82 92.2681
L242.82 90.632
L242.94 90.632
L242.94 90.338
L243.059 90.338
L243.059 90.0595
L243.217 90.0595
L243.217 89.6743
L243.569 89.6743
L243.569 88.784
L243.763 88.784
L243.763 88.2774
L244.032 88.2774
L244.109 87.4278
L244.223 87.3337
L244.223 87.1381
L244.336 87.1381
L244.336 86.8588
L244.487 86.8588
L244.562 86.2905
L244.712 86.1953
L244.712 85.8991
L244.935 85.8991
L244.935 85.3372
L245.119 85.3372
L245.229 84.566
L245.339 84.4673
L245.448 84.0081
L245.665 84.0081
L245.665 83.451
L245.88 83.451
L245.88 82.8793
L246.023 82.8793
L246.023 82.488
L246.235 82.488
L246.341 81.5989
L246.411 81.5989
L246.516 81.1325
L246.655 81.1325
L246.724 80.6001
L246.863 80.6001
L246.931 80.1179
L247.171 80.1179
L247.239 79.4037
L247.341 79.4037
L247.442 78.99
L247.543 78.99
L247.577 78.7163
L247.677 78.7163
L247.677 78.5153
L247.844 78.5153
L247.844 78.1666
L248.175 78.1666
L248.273 77.2256
L248.338 77.2256
L248.371 76.9983
L248.759 76.9983
L248.856 75.8747
L249.015 75.8747
L249.015 75.5221
L249.206 75.5221
L249.237 75.0601
L249.395 75.0601
L249.395 74.7322
L249.52 74.7322
L249.614 74.2914
L249.707 74.2914
L249.8 73.8995
L250.077 73.8995
L250.169 73.104
L250.23 73.104
L250.26 72.9075
L250.442 72.9075
L250.442 72.5241
L250.593 72.5241
L250.593 72.2229
L250.772 72.2229
L250.772 71.8827
L250.892 71.8827
L250.892 71.647
L251.128 71.647
L251.128 71.1589
L251.334 71.1589
L251.421 70.596
L251.509 70.4942
L251.596 70.27
L251.74 70.27
L251.74 69.965
L251.912 69.965
L251.998 69.4077
L252.084 69.4077
L252.084 69.2374
L252.338 69.2374
L252.367 68.6536
L252.591 68.6536
L252.619 68.133
L252.924 68.133
L253.007 67.2813
L253.116 67.2813
L253.198 66.9029
L253.28 66.7936
L253.335 66.6279
L253.443 66.6279
L253.524 66.2754
L253.659 66.2754
L253.686 65.9732
L253.819 65.9732
L253.819 65.722
L254.005 65.722
L254.005 65.3575
L254.138 65.3575
L254.217 64.9729
L254.374 64.9729
L254.478 64.4727
L254.608 64.4727
L254.608 64.2121
L254.764 64.2121
L254.789 63.8329
L254.995 63.8329
L255.097 63.1455
L255.173 63.0364
L255.173 62.9798
L255.3 62.9798
L255.4 62.4636
L255.626 62.4636
L255.626 61.9863
L255.924 61.9863
L255.974 61.2845
L256.047 61.2845
L256.146 60.9506
L256.341 60.9506
L256.414 60.4229
L256.511 60.4229
L256.511 60.2244
L256.703 60.2244
L256.775 59.6647
L256.871 59.6647
L256.942 59.333
L257.014 59.333
L257.061 59.1184
L257.203 59.1184
L257.226 58.8134
L257.484 58.8134
L257.577 58.1662
L257.647 58.1662
L257.693 57.9514
L257.763 57.9514
L257.763 57.821
L257.924 57.821
L257.993 57.4161
L258.061 57.3425
L258.13 57.1826
L258.243 57.0982
L258.243 56.978
L258.379 56.978
L258.447 56.6093
L258.514 56.6093
L258.514 56.4857
L258.671 56.4857
L258.716 56.1316
L258.782 56.1316
L258.782 56.0049
L258.916 56.0049
L259.004 55.5977
L259.07 55.5977
L259.114 55.3785
L259.398 55.3785
L259.398 54.8256
L259.593 54.8256
L259.701 54.2583
L259.787 54.2583
L259.894 53.8777
L259.979 53.8337
L259.979 53.6967
L260.212 53.6967
L260.212 53.1808
L260.338 53.1808
L260.359 52.8466
L260.527 52.8466
L260.61 52.3256
L260.776 52.2385
L260.776 51.9888
L260.92 51.9888
L261.023 51.4844
L261.084 51.4453
L261.166 51.1959
L261.227 51.1959
L261.328 50.8865
L261.449 50.7783
L261.53 50.5415
L261.65 50.4491
L261.75 50.1927
L261.87 50.1619
L261.949 49.8659
L262.127 49.7959
L262.225 49.3539
L262.342 49.3539
L262.42 48.9687
L262.633 48.8598
L262.633 48.5674
L262.768 48.5674
L262.864 48.1202
L262.94 48.1202
L263.036 47.7698
L263.206 47.7698
L263.282 47.2643
L263.376 47.2643
L263.432 46.9811
L263.563 46.8826
L263.656 46.5952
L263.767 46.5952
L263.767 46.4102
L263.897 46.4102
L263.989 46.039
L264.062 45.9486
L264.062 45.9171
L264.317 45.9171
L264.426 45.3253
L264.498 45.3253
L264.534 45.1611
L264.66 45.1611
L264.767 44.836
L264.874 44.836
L264.927 44.6318
L265.034 44.6318
L265.122 44.3991
L265.297 44.3991
L265.402 44.0523
L265.541 44.0523
L265.541 43.8556
L265.766 43.8556
L265.818 43.4859
L265.92 43.4859
L266.006 43.2478
L266.108 43.2478
L266.159 43.0733
L266.26 42.9948
L266.328 42.8656
L266.513 42.8656
L266.58 42.5135
L266.68 42.5135
L266.68 42.3497
L266.911 42.3497
L266.977 41.8783
L267.076 41.7986
L267.174 41.5844
L267.272 41.5844
L267.305 41.4008
L267.402 41.4008
L267.499 41.1174
L267.644 41.0941
L267.66 40.8762
L267.788 40.8762
L267.836 40.6084
L267.995 40.6084
L267.995 40.371
L268.121 40.371
L268.232 40.0267
L268.451 39.9616
L268.513 39.6384
L268.606 39.6384
L268.653 39.4415
L268.73 39.4415
L268.838 39.1652
L268.96 39.1051
L269.067 38.8533
L269.158 38.7447
L269.234 38.6162
L269.34 38.6162
L269.415 38.3504
L269.521 38.2807
L269.61 38.0369
L269.73 38.0369
L269.834 37.7036
L269.967 37.6605
L270.04 37.4228
L270.172 37.346
L270.274 37.1017
L270.478 37.0451
L270.536 36.782
L270.708 36.6895
L270.78 36.4659
L270.908 36.4659
L270.994 36.2054
L271.093 36.2054
L271.135 36.033
L271.304 35.9447
L271.388 35.7072
L271.514 35.7072
L271.597 35.4497
L271.764 35.343
L271.791 35.1844
L271.929 35.1844
L271.929 34.9723
L272.079 34.9723
L272.175 34.573
L272.242 34.5281
L272.337 34.3014
L272.485 34.3014
L272.539 33.9585
L272.646 33.9585
L272.686 33.7028
L272.766 33.7028
L272.819 33.4882
L272.899 33.4882
L273.005 33.1715
L273.084 33.1023
L273.175 32.8899
L273.332 32.8257
L273.332 32.6465
L273.488 32.6465
L273.592 32.2661
L273.669 32.2467
L273.759 32.0245
L273.861 31.9327
L273.951 31.7536
L274.052 31.6751
L274.103 31.557
L274.292 31.557
L274.368 31.188
L274.48 31.1042
L274.58 30.8853
L274.692 30.8853
L274.729 30.6536
L274.803 30.6536
L274.889 30.4074
L275 30.4074
L275.098 30.1043
L275.244 30.05
L275.317 29.7776
L275.401 29.7776
L275.498 29.5471
L275.642 29.5471
L275.725 29.2939
L275.856 29.2593
L275.939 29.0702
L276.081 29.0277
L276.187 28.795
L276.327 28.69
L276.42 28.5619
L276.56 28.4926
L276.663 28.317
L276.836 28.2553
L276.882 28.1298
L277.041 28.0291
L277.121 27.9511
L277.29 27.8866
L277.29 27.8294
L277.459 27.8294
L277.548 27.6365
L277.781 27.5266
L277.881 27.4358
L278.078 27.3306
L278.188 27.2786
L278.642 27.1816
L278.695 27.1371
L279.014 27.0781
L279.12 26.9667
L279.434 26.8655
L279.486 26.8068
L279.827 26.6972
L279.929 26.6491
L280.224 26.5857
L280.315 26.4797
L280.675 26.3855
L280.735 26.3272
L281.498 26.2181
L281.595 26.1854
L284.284 26.0785
L284.389 26.0557
L285.776 25.9604
L285.858 25.9087
L286.145 25.8065
L286.226 25.7699
L286.756 25.6612
L286.843 25.6129
L287.057 25.5103
L287.057 25.5009
L287.432 25.3903
L287.532 25.354
L289.014 25.246
L289.109 25.2336
L289.536 25.1271
L289.644 25.0698
L289.879 24.9627
L289.985 24.9091
L290.175 24.8001
L290.182 24.788
L290.385 24.7177
L290.468 24.6004
L290.676 24.5056
L290.786 24.3814
L290.991 24.3055
L291.072 24.162
L291.248 24.0548
L291.356 23.9578
L291.557 23.8646
L291.656 23.7876
L291.895 23.7046
L291.993 23.6357
L292.222 23.5382
L292.306 23.4812
L292.667 23.3944
L292.75 23.3251
L293.011 23.2242
L293.112 23.1723
L293.425 23.064
L293.487 23.0312
L293.802 22.9221
L293.894 22.8957
L294.216 22.8028
L294.307 22.7382
L294.601 22.6329
L294.702 22.5802
L294.985 22.491
L295.091 22.4121
L295.318 22.3125
L295.411 22.1911
L295.578 22.091
L295.682 21.9164
L295.785 21.8378
L295.836 21.749
L295.978 21.6479
L296.063 21.5391
L296.249 21.4314
L296.35 21.3465
L296.545 21.2479
L296.644 21.1714
L296.815 21.0714
L296.925 20.956
L297.105 20.881
L297.192 20.7131
L297.333 20.623
L297.386 20.5548
L297.563 20.4457
L297.654 20.3791
L297.861 20.279
L297.972 20.1998
L298.302 20.0905
L298.411 20.045
L298.674 19.9367
L298.771 19.8955
L299.026 19.7872
L299.132 19.7154
L299.348 19.607
L299.453 19.5444
L299.687 19.439
L299.795 19.3881
L301.164 19.4986
L301.258 19.5587
L301.537 19.6603
L301.638 19.7493
L301.881 19.8583
L301.981 19.9136
L302.266 20.0236
L302.369 20.0771
L302.721 20.1769
L302.823 20.24
L303.064 20.3486
L303.164 20.3882
L303.566 20.4913
L303.673 20.5225
L304.055 20.633
L304.156 20.6663
L304.762 20.7757
L304.872 20.7931
L306.622 20.691
L306.725 20.6492
L306.983 20.5437
L307.078 20.4824
L307.422 20.3734
L307.512 20.3019
L307.777 20.1956
L307.88 20.1443
L308.175 20.0422
L308.283 19.9825
L308.477 19.874
L308.584 19.7904
L308.762 19.6878
L308.858 19.6113
L309.058 19.5034
L309.156 19.4389
L309.406 19.3559
L309.517 19.2874
L309.978 19.1773
L310.063 19.1509
L310.382 19.0407
L310.485 18.9587
L310.674 18.8688
L310.76 18.7933
L310.957 18.6907
L311.045 18.6232
L311.22 18.5393
L311.33 18.4379
L311.542 18.329
L311.647 18.2497
L311.892 18.1521
L311.999 18.083
L312.296 17.972
L312.392 17.9403
L314.552 18.0502
L314.655 18.0635
L315.267 18.1732
L315.373 18.2043
L315.729 18.3108
L315.836 18.3658
L316.067 18.4746
L316.165 18.5541
L316.334 18.6505
L316.444 18.7386
L316.628 18.8336
L316.702 18.8973
L316.892 19.001
L316.999 19.091
L317.171 19.1941
L317.275 19.2808
L317.43 19.3857
L317.523 19.471
L317.677 19.5634
L317.784 19.6636
L317.989 19.7741
L318.1 19.8411
L318.29 19.9516
L318.392 20.0217
L318.603 20.1271
L318.704 20.1941
L318.873 20.3038
L318.968 20.3687
L319.189 20.4758
L319.297 20.5399
L319.52 20.6498
L319.603 20.708
L319.852 20.8182
L319.953 20.8734
L320.168 20.9773
L320.273 21.0304
L320.587 21.1365
L320.694 21.1766
L321.078 21.2839
L321.186 21.3275
L321.434 21.4372
L321.525 21.5043
L321.726 21.6108
L321.823 21.6901
L321.995 21.8005
L322.097 21.8673
L322.255 21.9565
L322.365 22.0501
L322.581 22.1556
L322.686 22.2429
L322.868 22.3411
L322.969 22.4055
L323.172 22.4989
L323.282 22.595
L323.419 22.7061
L323.524 22.8026
L323.644 22.8921
L323.754 23.0206
L323.886 23.124
L323.992 23.2265
L324.143 23.3295
L324.24 23.4032
L324.412 23.5082
L324.521 23.5909
L324.741 23.6969
L324.851 23.763
L325.05 23.8718
L325.157 23.9487
L325.314 24.0594
L325.41 24.1517
L325.548 24.2516
L325.659 24.3645
L325.776 24.4733
L325.884 24.5679
L326.02 24.6769
L326.129 24.7706
L326.347 24.8812
L326.456 24.9342
L326.787 25.0429
L326.871 25.0815
L327.256 25.19
L327.367 25.2349
L327.657 25.3418
L327.767 25.4087
L327.977 25.5075
L328.087 25.5899
L328.28 25.6734
L328.378 25.7801
L328.579 25.8862
L328.656 25.9382
L328.895 26.0491
L328.997 26.0949
L329.258 26.2055
L329.365 26.2678
L329.558 26.3783
L329.665 26.4536
L329.893 26.56
L329.999 26.616
L330.217 26.7237
L330.323 26.7698
L330.634 26.8809
L330.734 26.9357
L330.989 27.046
L331.093 27.0804
L331.468 27.1882
L331.575 27.2404
L331.812 27.3499
L331.923 27.403
L332.22 27.5131
L332.313 27.5564
L332.695 27.6658
L332.802 27.701
L335.53 27.5929
L335.639 27.5359
L335.869 27.4288
L335.979 27.3692
L336.219 27.261
L336.327 27.2013
L336.546 27.0996
L336.646 27.0367
L336.859 26.9274
L336.958 26.8631
L337.168 26.7529
L337.277 26.6852
L337.454 26.5788
L337.565 26.5026
L337.746 26.3921
L337.855 26.3201
L338.044 26.2215
L338.152 26.1397
L338.326 26.0329
L338.436 25.9676
L338.688 25.8599
L338.792 25.8014
L339.061 25.6904
L339.17 25.6458
L339.459 25.5366
L339.57 25.4961
L339.903 25.3867
L340.001 25.3633
L340.452 25.2537
L340.559 25.2146
L342.038 25.3256
L342.147 25.3769
L342.445 25.4877
L342.553 25.5262
L342.799 25.6365
L342.902 25.6837
L343.174 25.7947
L343.285 25.8463
L343.53 25.9553
L343.639 26.0136
L343.899 26.1228
L344.01 26.1597
L344.351 26.2684
L344.461 26.3118
L344.845 26.4225
L344.951 26.4517
L345.346 26.5626
L345.455 26.5862
L346.548 26.6946
L346.652 26.7233
L347.161 26.8343
L347.271 26.8598
L347.574 26.9688
L347.676 27.0122
L347.963 27.1211
L348.071 27.1619
L348.598 27.2713
L348.701 27.3093
L348.948 27.4198
L349.057 27.4746
L349.254 27.5797
L349.357 27.6294
L349.81 27.7394
L349.92 27.7646
L350.621 27.8747
L350.728 27.9004
L353.387 27.7897
L353.494 27.7813
L354.534 27.8921
L354.64 27.9059
L355.034 28.0169
L355.144 28.0629
L355.417 28.1737
L355.527 28.2286
L355.71 28.3355
L355.82 28.4079
L356.018 28.5185
L356.124 28.58
L356.361 28.6906
L356.47 28.7397
L356.665 28.8507
L356.775 28.9173
L356.957 29.0273
L357.067 29.0968
L357.263 29.2071
L357.373 29.2755
L357.558 29.3825
L357.668 29.4521
L357.831 29.5599
L357.941 29.6386
L358.118 29.7492
L358.229 29.8277
L358.384 29.9364
L358.495 30.0138
L358.694 30.1243
L358.798 30.1812
L359.091 30.2903
L359.202 30.326
L359.552 30.4367
L359.663 30.476
L360.13 30.5871
L360.241 30.6012
L360.815 30.7119
L360.915 30.7372
L361.509 30.8478
L361.614 30.893
L361.889 31.0037
L361.996 31.0447
L362.21 31.155
L362.318 31.2149
L362.549 31.3259
L362.657 31.3882
L362.852 31.4988
L362.962 31.5689
L363.131 31.6758
L363.24 31.7651
L363.375 31.8754
L363.485 31.9699
L363.652 32.0804
L363.761 32.1477
L363.98 32.2568
L364.088 32.3097
L364.291 32.4185
L364.401 32.4719
L364.631 32.5823
L364.741 32.6381
L364.977 32.7492
L365.087 32.7993
L365.365 32.9104
L365.472 32.9466
L366.145 33.0576
L366.253 33.0829
L366.714 33.1938
L366.825 33.2234
L367.383 33.3342
L367.492 33.3609
L367.978 33.4718
L368.088 33.4772
L370.058 33.3668
L370.166 33.3339
L371.083 33.2232
L371.187 33.1923
L371.899 33.0815
L372.009 33.0567
L372.406 32.9484
L372.517 32.8825
L372.758 32.7728
L372.868 32.7361
L373.102 32.6251
L373.211 32.5663
L373.454 32.4556
L373.563 32.3975
L373.743 32.2886
L373.853 32.2098
L374.024 32.0998
L374.134 32.0293
L374.319 31.9185
L374.429 31.8501
L374.607 31.7395
L374.709 31.6779
L374.908 31.567
L375.017 31.5111
L375.237 31.4003
L375.347 31.3359
L375.532 31.2284
L375.643 31.1549
L375.809 31.0441
L375.919 30.9716
L376.091 30.8626
L376.2 30.7731
L376.343 30.6622
L376.454 30.5779
L376.6 30.4673
L376.71 30.3796
L376.838 30.2687
L376.944 30.166
L377.069 30.0562
L377.178 29.9545
L377.311 29.8456
L377.422 29.7492
L377.563 29.6406
L377.672 29.5559
L377.836 29.4457
L377.946 29.3612
L378.115 29.2503
L378.226 29.1836
L378.426 29.0727
L378.534 29.016
L378.719 28.9053
L378.829 28.8327
L379.023 28.7217
L379.134 28.6607
L379.349 28.5501
L379.459 28.4996
L379.699 28.3886
L379.808 28.3398
L380.075 28.2287
L380.184 28.1901
L380.674 28.0791
L380.785 28.055
L381.353 27.9443
L381.463 27.9192
L382.339 27.8083
L382.448 27.7782
L382.812 27.6675
L382.921 27.6369
L383.348 27.5263
L383.456 27.4869
L383.721 27.3759
L383.832 27.3349
L384.254 27.224
L384.364 27.198
L384.847 27.087
L384.957 27.0638
L387.052 27.1744
L387.163 27.1901
L388.477 27.301
L388.587 27.3102
L389.36 27.4212
L389.47 27.458
L389.808 27.5689
L389.916 27.6175
L390.192 27.7279
L390.302 27.7637
L390.729 27.8748
L390.84 27.9116
L391.346 28.0224
L391.455 28.0582
L391.892 28.1692
L392.003 28.2002
L392.76 28.311
L392.87 28.3304
L393.427 28.4415
L393.538 28.4784
L393.978 28.5893
L394.088 28.6071
L394.851 28.7182
L394.961 28.7287
L395.712 28.6176
L395.822 28.5863
L396.172 28.4753
L396.284 28.4498
L396.761 28.3387
L396.872 28.3088
L397.214 28.1979
L397.325 28.169
L397.642 28.0589
L397.752 28.0131
L398.116 27.9022
L398.227 27.8714
L399.881 27.9824
L399.991 27.991
L401.732 27.88
L401.843 27.8618
L402.599 27.7508
L402.71 27.7294
L403.336 27.6188
L403.446 27.5903
L403.951 27.4795
L404.061 27.4385
L404.281 27.328
L404.392 27.2542
L404.55 27.1436
L404.661 27.0678
L404.828 26.9574
L404.938 26.8848
L405.152 26.7738
L405.263 26.7315
L405.622 26.6207
L405.733 26.5865
L406.281 26.4755
L406.391 26.4565
L407.858 26.3458
L407.969 26.3147
L408.468 26.2039
L408.578 26.1853
L409.1 26.0743
L409.21 26.0402
L409.509 25.9295
L409.62 25.8781
L409.988 25.7671
L410.099 25.7448
L411.078 25.6338
L411.111 25.6323
L411.14 25.6337
L411.14 25.6337
L411.194 25.6349
L411.231 25.6337
L411.231 25.6337
L411.302 25.631
L411.341 25.6311
L412.839 25.742
L412.949 25.7747
L414.051 25.8857
L414.162 25.9012
L417.065 26.0122
L417.176 26.0369
L417.859 26.1478
L417.97 26.1758
L418.288 26.2869
L418.399 26.3296
L418.664 26.4407
L418.775 26.4912
L419.018 26.6022
L419.129 26.6344
L419.438 26.7454
L419.549 26.789
L419.78 26.9
L419.891 26.957
L420.129 27.0681
L420.24 27.1134
L420.497 27.2239
L420.608 27.2678
L422.942 27.1567
L423.053 27.1495
L425.016 27.0385
L425.127 27.0091
L425.471 26.8983
L425.583 26.8475
L425.786 26.7368
L425.896 26.6836
L426.101 26.5726
L426.212 26.5184
L426.497 26.4073
L426.608 26.3604
L426.905 26.2494
L427.015 26.2114
L427.331 26.1005
L427.442 26.0578
L427.985 25.9468
L428.096 25.9424
L428.893 25.8314
L429.003 25.81
L430.036 25.699
L430.147 25.6718
L430.526 25.5607
L430.637 25.5221
L430.962 25.411
L431.073 25.3804
L431.582 25.2693
L431.693 25.2484
L432.534 25.1373
L432.645 25.1111
L434.224 25.222
L434.336 25.2518
L434.646 25.3628
L434.757 25.3909
L435.09 25.502
L435.201 25.5287
L435.769 25.6398
L435.879 25.6771
L436.293 25.7882
L436.404 25.8201
L436.825 25.9312
L436.936 25.9731
L437.193 26.0842
L437.304 26.1471
L437.496 26.258
L437.607 26.3298
L437.774 26.4408
L437.885 26.5127
L438.034 26.6234
L438.145 26.7103
L438.303 26.8213
L438.414 26.898
L438.594 27.0089
L438.705 27.0682
L438.94 27.1791
L439.051 27.2341
L439.276 27.3452
L439.386 27.4055
L439.613 27.5166
L439.724 27.5667
L440.035 27.6779
L440.145 27.7078
L441.207 27.8189
L441.318 27.8325
L444.199 27.9436
L444.309 27.9648
L444.812 28.0759
L444.923 28.0964
L445.752 28.2075
L445.863 28.2281
L446.692 28.3392
L446.803 28.3453
L449.148 28.4564
L449.259 28.473
L450.042 28.5841
L450.153 28.6069
L450.612 28.7179
L450.723 28.7521
L451.098 28.8632
L451.209 28.8961
L451.585 29.0072
L451.696 29.0368
L452.116 29.1479
L452.227 29.1776
L455.062 29.0665
L455.173 29.033
L455.644 28.9219
L455.755 28.8936
L456.16 28.7825
L456.271 28.7455
L456.579 28.6345
L456.69 28.5901
L456.944 28.479
L457.055 28.4299
L457.29 28.3188
L457.401 28.2715
L457.67 28.1604
L457.781 28.1032
L458.017 27.9921
L458.128 27.944
L458.33 27.833
L458.441 27.7619
L458.585 27.6508
L458.696 27.5572
L458.836 27.4462
L458.947 27.3483
L459.074 27.2372
L459.185 27.1445
L459.336 27.0334
L459.447 26.9549
L459.628 26.8438
L459.739 26.7713
L459.9 26.6602
L460.011 26.5755
L460.149 26.4646
L460.26 26.3712
L460.391 26.2601
L460.502 26.1565
L460.615 26.0455
L460.726 25.9274
L460.83 25.8163
L460.941 25.7026
L461.044 25.5915
L461.155 25.4664
L461.255 25.3553
L461.366 25.2206
L461.461 25.1096
L461.572 24.9858
L461.672 24.8748
L461.783 24.7455
L461.883 24.6344
L461.994 24.5231
L462.102 24.412
L462.213 24.2925
L462.312 24.1814
L462.423 24.0503
L462.513 23.9393
L462.624 23.7967
L462.716 23.6856
L462.827 23.5575
L462.929 23.4464
L463.04 23.3226
L463.142 23.2115
L463.253 23.097
L463.354 22.9859
L463.465 22.8572
L463.563 22.7463
L463.674 22.6177
L463.769 22.5068
L463.88 22.3815
L463.98 22.2704
L464.091 22.1522
L464.195 22.0412
L464.306 21.9243
L464.406 21.8132
L464.517 21.6939
L464.628 21.5829
L464.739 21.4687
L464.86 21.3578
L464.971 21.2594
L465.091 21.1483
L465.202 21.0485
L465.326 20.9375
L465.437 20.842
L465.569 20.7309
L465.68 20.6492
L465.847 20.5382
L465.958 20.4613
L466.127 20.3502
L466.238 20.2788
L466.436 20.1677
L466.547 20.0977
L466.724 19.9866
L466.835 19.914
L467.008 19.8029
L467.119 19.74
L467.344 19.6289
L467.455 19.5848
L467.749 19.4737
L467.859 19.436
L468.194 19.325
L468.306 19.3044
L468.868 19.1933
L468.979 19.1598
L469.389 19.0487
L469.5 19.0175
L469.826 18.9064
L469.937 18.8713
L470.235 18.7602
L470.346 18.7088
L470.568 18.5977
L470.679 18.5522
L470.97 18.4411
L471.081 18.3987
L471.32 18.2877
L471.431 18.2215
L471.652 18.1104
L471.763 18.0543
L471.971 17.9432
L472.082 17.8809
L472.281 17.7699
L472.392 17.709
L472.59 17.598
L472.701 17.5365
L472.893 17.4255
L473.004 17.3636
L473.201 17.2526
L473.312 17.1871
L473.498 17.0761
L473.609 17.0131
L473.79 16.902
L473.901 16.8447
L474.287 16.7336
L474.398 16.7003
L474.719 16.5892
L474.83 16.5315
L475.014 16.4204
L475.126 16.3464
L475.298 16.2353
L475.409 16.1619
L475.585 16.0508
L475.696 15.9906
L475.929 15.8795
L476.04 15.8209
L476.242 15.7098
L476.353 15.6481
L476.602 15.537
L476.713 15.49
L476.983 15.3789
L477.094 15.3369
L477.399 15.2258
L477.51 15.1818
L477.834 15.0707
L477.945 15.0381
L478.361 14.927
L478.472 14.9046
L479.393 14.7935
L479.504 14.7716
L481.147 14.8827
L481.258 14.919
L481.621 15.0301
L481.732 15.061
L482.063 15.1721
L482.174 15.2061
L482.557 15.3171
L482.668 15.3373
L483.239 15.4484
L483.35 15.4801
L483.721 15.5912
L483.832 15.6315
L484.101 15.7426
L484.212 15.7711
L484.844 15.8822
L484.955 15.9051
L485.474 16.0162
L485.585 16.031
L486.311 16.1421
L486.422 16.1602
L487.015 16.2713
L487.126 16.292
L487.732 16.4032
L487.843 16.4249
L488.984 16.536
L489.095 16.5616
L489.508 16.6727
L489.619 16.7041
L490.108 16.8152
L490.22 16.8397
L490.723 16.9508
L490.834 16.9678
L491.217 17.079
L491.328 17.121
L491.573 17.2321
L491.684 17.2909
L491.915 17.402
L492.026 17.4539
L492.234 17.565
L492.345 17.6278
L492.517 17.7389
L492.628 17.8075
L492.821 17.9186
L492.932 17.9815
L493.116 18.0925
L493.227 18.1615
L493.395 18.2726
L493.506 18.3522
L493.643 18.4633
L493.755 18.5552
L493.903 18.6663
L494.014 18.7509
L494.151 18.862
L494.263 18.9492
L494.41 19.0603
L494.521 19.1489
L494.661 19.26
L494.772 19.3411
L494.938 19.4522
L495.05 19.5204
L495.243 19.6315
L495.354 19.6969
L495.526 19.808
L495.637 19.8794
L495.813 19.9905
L495.924 20.0586
L496.1 20.1697
L496.211 20.2424
L496.417 20.3535
L496.528 20.4168
L496.721 20.5279
L496.832 20.5897
L496.997 20.7008
L497.108 20.777
L497.263 20.8881
L497.374 20.9599
L497.526 21.071
L497.637 21.1538
L497.783 21.2649
L497.894 21.3425
L498.05 21.4536
L498.161 21.5351
L498.312 21.6462
L498.423 21.738
L498.553 21.8491
L498.664 21.9434
L498.83 22.0545
L498.941 22.1228
L499.117 22.2339
L499.228 22.3046
L499.416 22.4157
L499.527 22.4915
L499.691 22.6026
L499.802 22.6683
L500 22.7794
L500.111 22.854
L500.273 22.9651
L500.384 23.0445
L500.534 23.1556
L500.645 23.24
L500.792 23.3511
L500.903 23.435
L501.065 23.5461
L501.176 23.6224
L501.337 23.7336
L501.448 23.8026
L501.634 23.9137
L501.745 23.982
L501.933 24.0931
L502.044 24.1506
L502.24 24.2617
L502.351 24.3346
L502.536 24.4457
L502.647 24.5122
L502.841 24.6233
L502.953 24.6908
L503.117 24.8019
L503.228 24.8834
L503.382 24.9945
L503.493 25.0773
L503.679 25.1884
L503.79 25.2546
L503.988 25.3657
L504.099 25.4255
L504.325 25.5366
L504.436 25.5866
L504.684 25.6977
L504.795 25.7479
L505.034 25.859
L505.145 25.9261
L505.337 26.0372
L505.448 26.0914
L505.682 26.2025
L505.793 26.2555
L506.015 26.3666
L506.126 26.4317
L506.324 26.5428
L506.435 26.6128
L506.621 26.7239
L506.732 26.7991
L506.881 26.9102
L506.992 26.9992
L507.143 27.1103
L507.254 27.1949
L507.419 27.306
L507.53 27.3792
L507.694 27.4903
L507.805 27.5717
L507.945 27.6828
L508.056 27.7754
L508.186 27.8865
L508.297 27.9779
L508.446 28.089
L508.557 28.1696
L508.713 28.2807
L508.824 28.3458
L509.037 28.4569
L509.148 28.5131
L509.374 28.6242
L509.486 28.67
L509.862 28.7811
L509.973 28.8102
L510.644 28.9213
L510.755 28.938
L511.127 29.0491
L511.238 29.095
L511.513 29.2061
L511.625 29.2663
L511.807 29.3774
L511.918 29.4448
L512.095 29.5559
L512.206 29.6174
L512.395 29.7285
L512.506 29.794
L512.713 29.9051
L512.824 29.9648
L513.01 30.0758
L513.121 30.1451
L513.302 30.2562
L513.413 30.3194
L513.604 30.4305
L513.715 30.5028
L513.881 30.6139
L513.992 30.6886
L514.162 30.7997
L514.273 30.867
L514.47 30.9781
L514.581 31.046
L514.781 31.1571
L514.892 31.2064
L515.139 31.3175
L515.25 31.3752
L515.443 31.4863
L515.554 31.5597
L515.706 31.6708
L515.817 31.7507
L515.996 31.8618
L516.107 31.9291
L516.3 32.0402
L516.411 32.107
L516.593 32.2181
L516.704 32.2787
L516.919 32.3898
L517.03 32.4628
L517.203 32.5739
L517.314 32.6355
L517.505 32.7466
L517.616 32.8106
L517.795 32.9217
L517.907 32.9986
L518.067 33.1097
L518.178 33.1849
L518.336 33.296
L518.447 33.3714
L518.617 33.4825
L518.728 33.557
L518.894 33.6681
L519.005 33.7441
L519.17 33.8552
L519.281 33.939
L519.441 34.0502
L519.552 34.1222
L519.743 34.2334
L519.854 34.3005
L520.044 34.4116
L520.155 34.4734
L520.327 34.5845
L520.439 34.6569
L520.607 34.768
L520.718 34.8441
L520.877 34.9552
L520.988 35.0346
L521.14 35.1457
L521.251 35.2304
L521.408 35.3415
L521.519 35.4287
L521.666 35.5399
L521.777 35.618
L521.955 35.7292
L522.067 35.7974
L522.275 35.9085
L522.386 35.9713
L522.564 36.0824
L522.675 36.1583
L522.846 36.2694
L522.957 36.3421
L523.147 36.4532
L523.258 36.5152
L523.492 36.6264
L523.603 36.683
L523.807 36.7941
L523.918 36.8645
L524.082 36.9756
L524.194 37.0569
L524.35 37.168
L524.461 37.248
L524.631 37.3591
L524.742 37.4267
L524.931 37.5378
L525.042 37.601
L525.254 37.7121
L525.365 37.7695
L525.597 37.8806
L525.709 37.9378
L525.946 38.049
L526.057 38.107
L526.281 38.2181
L526.392 38.2741
L526.623 38.3852
L526.734 38.4342
L527.273 38.5453
L527.384 38.5598
L527.934 38.6709
L528.045 38.6989
L528.437 38.8101
L528.548 38.8529
L528.812 38.964
L528.923 39.0138
L529.16 39.125
L529.271 39.1803
L529.489 39.2914
L529.601 39.3457
L529.884 39.4568
L529.995 39.4926
L530.321 39.6037
L530.432 39.6492
L530.694 39.7603
L530.805 39.7972
L531.363 39.9083
L531.474 39.949
L531.726 40.0601
L531.837 40.1075
L532.096 40.2186
L532.207 40.2725
L532.403 40.3837
L532.515 40.4431
L532.748 40.5542
L532.859 40.5912
L533.194 40.7024
L533.305 40.7357
L533.637 40.8468
L533.748 40.8836
L534.291 40.9947
L534.402 41.0141
L534.894 41.1252
L535.005 41.1509
L535.42 41.262
L535.531 41.2866
L536.048 41.3977
L536.159 41.4207
L536.757 41.5319
L536.868 41.5517
L537.245 41.6628
L537.356 41.6996
L537.666 41.8108
L537.777 41.848
L538.037 41.9591
L538.148 42.0159
L538.411 42.127
L538.522 42.1716
L538.938 42.2828
L539.049 42.31
L539.458 42.4211
L539.569 42.444
L539.919 42.5551
L540.03 42.5867
L540.377 42.6978
L540.488 42.7416
L540.79 42.8527
L540.902 42.8913
L542.782 42.7802
L542.893 42.7442
L543.187 42.6331
L543.298 42.5827
L543.53 42.4716
L543.641 42.4237
L543.959 42.3126
L544.07 42.2713
L544.294 42.1602
L544.406 42.0953
L544.594 41.9842
L544.705 41.9143
L544.9 41.8032
L545.011 41.7431
L545.23 41.632
L545.341 41.5639
L545.519 41.4528
L545.63 41.3825
L545.811 41.2714
L545.922 41.2125
L546.132 41.1014
L546.243 41.0474
L546.581 40.9363
L546.692 40.9092
L547.025 40.7981
L547.136 40.7506
L547.43 40.6395
L547.541 40.5961
L547.697 40.5297
L547.697 40.5297" style="fill:none;stroke:#0000ff;stroke-width:5.0;"/>
   </g>
   <g id="matplotlib.axis_1">
    <g id="xtick_1">
     <g id="line2d_2">
      <path d="
M182.524 397.926
L182.524 7.2" style="fill:none;stroke:#000000;stroke-dasharray:1.000000,3.000000;stroke-dashoffset:0.0;stroke-linecap:butt;stroke-width:0.5;"/>
     </g>
     <g id="line2d_3">
      <defs>
       <path d="
M0 0
L0 -4" id="m564c17987e"/>
      </defs>
      <g>
       <use style="stroke:#000000;stroke-linecap:butt;stroke-width:0.5;" x="182.524064225" xlink:href="#m564c17987e" y="390.412189349"/>
      </g>
     </g>
     <g id="text_1">
      <!-- 5 -->
      <defs>
       <path d="
M10.7969 72.9062
L49.5156 72.9062
L49.5156 64.5938
L19.8281 64.5938
L19.8281 46.7344
Q21.9688 47.4688 24.1094 47.8281
Q26.2656 48.1875 28.4219 48.1875
Q40.625 48.1875 47.75 41.5
Q54.8906 34.8125 54.8906 23.3906
Q54.8906 11.625 47.5625 5.09375
Q40.2344 -1.42188 26.9062 -1.42188
Q22.3125 -1.42188 17.5469 -0.640625
Q12.7969 0.140625 7.71875 1.70312
L7.71875 11.625
Q12.1094 9.23438 16.7969 8.0625
Q21.4844 6.89062 26.7031 6.89062
Q35.1562 6.89062 40.0781 11.3281
Q45.0156 15.7656 45.0156 23.3906
Q45.0156 31 40.0781 35.4375
Q35.1562 39.8906 26.7031 39.8906
Q22.75 39.8906 18.8125 39.0156
Q14.8906 38.1406 10.7969 36.2812
z
" id="BitstreamVeraSans-Roman-35"/>
      </defs>
      <g transform="translate(176.863439225 411.909689349)scale(0.24 -0.24)">
       <use xlink:href="#BitstreamVeraSans-Roman-35"/>
      </g>
     </g>
    </g>
    <g id="xtick_2">
     <g id="line2d_4">
      <path d="
M318.572 397.926
L318.572 7.2" style="fill:none;stroke:#000000;stroke-dasharray:1.000000,3.000000;stroke-dashoffset:0.0;stroke-linecap:butt;stroke-width:0.5;"/>
     </g>
     <g id="line2d_5">
      <defs>
       <path d="
M0 0
L0 -4" id="m564c17987e"/>
      </defs>
      <g>
       <use style="stroke:#000000;stroke-linecap:butt;stroke-width:0.5;" x="318.572482407" xlink:href="#m564c17987e" y="390.412189349"/>
      </g>
     </g>
     <g id="text_2">
      <!-- 10 -->
      <defs>
       <path d="
M31.7812 66.4062
Q24.1719 66.4062 20.3281 58.9062
Q16.5 51.4219 16.5 36.375
Q16.5 21.3906 20.3281 13.8906
Q24.1719 6.39062 31.7812 6.39062
Q39.4531 6.39062 43.2812 13.8906
Q47.125 21.3906 47.125 36.375
Q47.125 51.4219 43.2812 58.9062
Q39.4531 66.4062 31.7812 66.4062
M31.7812 74.2188
Q44.0469 74.2188 50.5156 64.5156
Q56.9844 54.8281 56.9844 36.375
Q56.9844 17.9688 50.5156 8.26562
Q44.0469 -1.42188 31.7812 -1.42188
Q19.5312 -1.42188 13.0625 8.26562
Q6.59375 17.9688 6.59375 36.375
Q6.59375 54.8281 13.0625 64.5156
Q19.5312 74.2188 31.7812 74.2188" id="BitstreamVeraSans-Roman-30"/>
       <path d="
M12.4062 8.29688
L28.5156 8.29688
L28.5156 63.9219
L10.9844 60.4062
L10.9844 69.3906
L28.4219 72.9062
L38.2812 72.9062
L38.2812 8.29688
L54.3906 8.29688
L54.3906 0
L12.4062 0
z
" id="BitstreamVeraSans-Roman-31"/>
      </defs>
      <g transform="translate(305.417482407 412.224689349)scale(0.24 -0.24)">
       <use xlink:href="#BitstreamVeraSans-Roman-31"/>
       <use x="63.623046875" xlink:href="#BitstreamVeraSans-Roman-30"/>
      </g>
     </g>
    </g>
    <g id="xtick_3">
     <g id="line2d_6">
      <path d="
M454.621 397.926
L454.621 7.2" style="fill:none;stroke:#000000;stroke-dasharray:1.000000,3.000000;stroke-dashoffset:0.0;stroke-linecap:butt;stroke-width:0.5;"/>
     </g>
     <g id="line2d_7">
      <defs>
       <path d="
M0 0
L0 -4" id="m564c17987e"/>
      </defs>
      <g>
       <use style="stroke:#000000;stroke-linecap:butt;stroke-width:0.5;" x="454.62090059" xlink:href="#m564c17987e" y="390.412189349"/>
      </g>
     </g>
     <g id="text_3">
      <!-- 15 -->
      <g transform="translate(441.71715059 411.909689349)scale(0.24 -0.24)">
       <use xlink:href="#BitstreamVeraSans-Roman-31"/>
       <use x="63.623046875" xlink:href="#BitstreamVeraSans-Roman-35"/>
      </g>
     </g>
    </g>
    <g id="xtick_4">
     <g id="line2d_8">
      <defs>
       <path d="
M0 0
L0 -2" id="mb9a811f43d"/>
      </defs>
      <g>
       <use style="stroke:#000000;stroke-linecap:butt;stroke-width:0.5;" x="73.6853296784" xlink:href="#mb9a811f43d" y="390.412189349"/>
      </g>
     </g>
    </g>
    <g id="xtick_5">
     <g id="line2d_9">
      <defs>
       <path d="
M0 0
L0 -2" id="mb9a811f43d"/>
      </defs>
      <g>
       <use style="stroke:#000000;stroke-linecap:butt;stroke-width:0.5;" x="100.895013315" xlink:href="#mb9a811f43d" y="390.412189349"/>
      </g>
     </g>
    </g>
    <g id="xtick_6">
     <g id="line2d_10">
      <defs>
       <path d="
M0 0
L0 -2" id="mb9a811f43d"/>
      </defs>
      <g>
       <use style="stroke:#000000;stroke-linecap:butt;stroke-width:0.5;" x="128.104696951" xlink:href="#mb9a811f43d" y="390.412189349"/>
      </g>
     </g>
    </g>
    <g id="xtick_7">
     <g id="line2d_11">
      <defs>
       <path d="
M0 0
L0 -2" id="mb9a811f43d"/>
      </defs>
      <g>
       <use style="stroke:#000000;stroke-linecap:butt;stroke-width:0.5;" x="155.314380588" xlink:href="#mb9a811f43d" y="390.412189349"/>
      </g>
     </g>
    </g>
    <g id="xtick_8">
     <g id="line2d_12">
      <defs>
       <path d="
M0 0
L0 -2" id="mb9a811f43d"/>
      </defs>
      <g>
       <use style="stroke:#000000;stroke-linecap:butt;stroke-width:0.5;" x="209.733747861" xlink:href="#mb9a811f43d" y="390.412189349"/>
      </g>
     </g>
    </g>
    <g id="xtick_9">
     <g id="line2d_13">
      <defs>
       <path d="
M0 0
L0 -2" id="mb9a811f43d"/>
      </defs>
      <g>
       <use style="stroke:#000000;stroke-linecap:butt;stroke-width:0.5;" x="236.943431498" xlink:href="#mb9a811f43d" y="390.412189349"/>
      </g>
     </g>
    </g>
    <g id="xtick_10">
     <g id="line2d_14">
      <defs>
       <path d="
M0 0
L0 -2" id="mb9a811f43d"/>
      </defs>
      <g>
       <use style="stroke:#000000;stroke-linecap:butt;stroke-width:0.5;" x="264.153115134" xlink:href="#mb9a811f43d" y="390.412189349"/>
      </g>
     </g>
    </g>
    <g id="xtick_11">
     <g id="line2d_15">
      <defs>
       <path d="
M0 0
L0 -2" id="mb9a811f43d"/>
      </defs>
      <g>
       <use style="stroke:#000000;stroke-linecap:butt;stroke-width:0.5;" x="291.362798771" xlink:href="#mb9a811f43d" y="390.412189349"/>
      </g>
     </g>
    </g>
    <g id="xtick_12">
     <g id="line2d_16">
      <defs>
       <path d="
M0 0
L0 -2" id="mb9a811f43d"/>
      </defs>
      <g>
       <use style="stroke:#000000;stroke-linecap:butt;stroke-width:0.5;" x="345.782166044" xlink:href="#mb9a811f43d" y="390.412189349"/>
      </g>
     </g>
    </g>
    <g id="xtick_13">
     <g id="line2d_17">
      <defs>
       <path d="
M0 0
L0 -2" id="mb9a811f43d"/>
      </defs>
      <g>
       <use style="stroke:#000000;stroke-linecap:butt;stroke-width:0.5;" x="372.99184968" xlink:href="#mb9a811f43d" y="390.412189349"/>
      </g>
     </g>
    </g>
    <g id="xtick_14">
     <g id="line2d_18">
      <defs>
       <path d="
M0 0
L0 -2" id="mb9a811f43d"/>
      </defs>
      <g>
       <use style="stroke:#000000;stroke-linecap:butt;stroke-width:0.5;" x="400.201533317" xlink:href="#mb9a811f43d" y="390.412189349"/>
      </g>
     </g>
    </g>
    <g id="xtick_15">
     <g id="line2d_19">
      <defs>
       <path d="
M0 0
L0 -2" id="mb9a811f43d"/>
      </defs>
      <g>
       <use style="stroke:#000000;stroke-linecap:butt;stroke-width:0.5;" x="427.411216953" xlink:href="#mb9a811f43d" y="390.412189349"/>
      </g>
     </g>
    </g>
    <g id="xtick_16">
     <g id="line2d_20">
      <defs>
       <path d="
M0 0
L0 -2" id="mb9a811f43d"/>
      </defs>
      <g>
       <use style="stroke:#000000;stroke-linecap:butt;stroke-width:0.5;" x="481.830584227" xlink:href="#mb9a811f43d" y="390.412189349"/>
      </g>
     </g>
    </g>
    <g id="xtick_17">
     <g id="line2d_21">
      <defs>
       <path d="
M0 0
L0 -2" id="mb9a811f43d"/>
      </defs>
      <g>
       <use style="stroke:#000000;stroke-linecap:butt;stroke-width:0.5;" x="509.040267863" xlink:href="#mb9a811f43d" y="390.412189349"/>
      </g>
     </g>
    </g>
   </g>
   <g id="matplotlib.axis_2">
    <g id="ytick_1">
     <g id="line2d_22">
      <path d="
M55.6887 390.412
L557.344 390.412" style="fill:none;stroke:#000000;stroke-dasharray:1.000000,3.000000;stroke-dashoffset:0.0;stroke-linecap:butt;stroke-width:0.5;"/>
     </g>
     <g id="line2d_23">
      <defs>
       <path d="
M0 0
L4 0" id="m11d00daec5"/>
      </defs>
      <g>
       <use style="stroke:#000000;stroke-linecap:butt;stroke-width:0.5;" x="45.68875" xlink:href="#m11d00daec5" y="390.412189349"/>
      </g>
     </g>
     <g id="text_4">
      <!-- 0 -->
      <g transform="translate(29.595 399.147814349)scale(0.24 -0.24)">
       <use xlink:href="#BitstreamVeraSans-Roman-30"/>
      </g>
     </g>
    </g>
    <g id="ytick_2">
     <g id="line2d_24">
      <path d="
M55.6887 334.809
L557.344 334.809" style="fill:none;stroke:#000000;stroke-dasharray:1.000000,3.000000;stroke-dashoffset:0.0;stroke-linecap:butt;stroke-width:0.5;"/>
     </g>
     <g id="line2d_25">
      <defs>
       <path d="
M0 0
L4 0" id="m11d00daec5"/>
      </defs>
      <g>
       <use style="stroke:#000000;stroke-linecap:butt;stroke-width:0.5;" x="45.68875" xlink:href="#m11d00daec5" y="334.808642006"/>
      </g>
     </g>
     <g id="text_5">
      <!-- 0.5 -->
      <defs>
       <path d="
M10.6875 12.4062
L21 12.4062
L21 0
L10.6875 0
z
" id="BitstreamVeraSans-Roman-2e"/>
      </defs>
      <g transform="translate(7.2 343.544267006)scale(0.24 -0.24)">
       <use xlink:href="#BitstreamVeraSans-Roman-30"/>
       <use x="63.623046875" xlink:href="#BitstreamVeraSans-Roman-2e"/>
       <use x="95.41015625" xlink:href="#BitstreamVeraSans-Roman-35"/>
      </g>
     </g>
    </g>
    <g id="ytick_3">
     <g id="line2d_26">
      <path d="
M55.6887 279.205
L557.344 279.205" style="fill:none;stroke:#000000;stroke-dasharray:1.000000,3.000000;stroke-dashoffset:0.0;stroke-linecap:butt;stroke-width:0.5;"/>
     </g>
     <g id="line2d_27">
      <defs>
       <path d="
M0 0
L4 0" id="m11d00daec5"/>
      </defs>
      <g>
       <use style="stroke:#000000;stroke-linecap:butt;stroke-width:0.5;" x="45.68875" xlink:href="#m11d00daec5" y="279.205094663"/>
      </g>
     </g>
     <g id="text_6">
      <!-- 1 -->
      <g transform="translate(31.27125 287.953844663)scale(0.24 -0.24)">
       <use xlink:href="#BitstreamVeraSans-Roman-31"/>
      </g>
     </g>
    </g>
    <g id="ytick_4">
     <g id="line2d_28">
      <path d="
M55.6887 223.602
L557.344 223.602" style="fill:none;stroke:#000000;stroke-dasharray:1.000000,3.000000;stroke-dashoffset:0.0;stroke-linecap:butt;stroke-width:0.5;"/>
     </g>
     <g id="line2d_29">
      <defs>
       <path d="
M0 0
L4 0" id="m11d00daec5"/>
      </defs>
      <g>
       <use style="stroke:#000000;stroke-linecap:butt;stroke-width:0.5;" x="45.68875" xlink:href="#m11d00daec5" y="223.601547319"/>
      </g>
     </g>
     <g id="text_7">
      <!-- 1.5 -->
      <g transform="translate(8.25375 232.179672319)scale(0.24 -0.24)">
       <use xlink:href="#BitstreamVeraSans-Roman-31"/>
       <use x="63.623046875" xlink:href="#BitstreamVeraSans-Roman-2e"/>
       <use x="95.41015625" xlink:href="#BitstreamVeraSans-Roman-35"/>
      </g>
     </g>
    </g>
    <g id="ytick_5">
     <g id="line2d_30">
      <path d="
M55.6887 167.998
L557.344 167.998" style="fill:none;stroke:#000000;stroke-dasharray:1.000000,3.000000;stroke-dashoffset:0.0;stroke-linecap:butt;stroke-width:0.5;"/>
     </g>
     <g id="line2d_31">
      <defs>
       <path d="
M0 0
L4 0" id="m11d00daec5"/>
      </defs>
      <g>
       <use style="stroke:#000000;stroke-linecap:butt;stroke-width:0.5;" x="45.68875" xlink:href="#m11d00daec5" y="167.997999976"/>
      </g>
     </g>
     <g id="text_8">
      <!-- 2 -->
      <defs>
       <path d="
M19.1875 8.29688
L53.6094 8.29688
L53.6094 0
L7.32812 0
L7.32812 8.29688
Q12.9375 14.1094 22.625 23.8906
Q32.3281 33.6875 34.8125 36.5312
Q39.5469 41.8438 41.4219 45.5312
Q43.3125 49.2188 43.3125 52.7812
Q43.3125 58.5938 39.2344 62.25
Q35.1562 65.9219 28.6094 65.9219
Q23.9688 65.9219 18.8125 64.3125
Q13.6719 62.7031 7.8125 59.4219
L7.8125 69.3906
Q13.7656 71.7812 18.9375 73
Q24.125 74.2188 28.4219 74.2188
Q39.75 74.2188 46.4844 68.5469
Q53.2188 62.8906 53.2188 53.4219
Q53.2188 48.9219 51.5312 44.8906
Q49.8594 40.875 45.4062 35.4062
Q44.1875 33.9844 37.6406 27.2188
Q31.1094 20.4531 19.1875 8.29688" id="BitstreamVeraSans-Roman-32"/>
      </defs>
      <g transform="translate(30.58125 176.904249976)scale(0.24 -0.24)">
       <use xlink:href="#BitstreamVeraSans-Roman-32"/>
      </g>
     </g>
    </g>
    <g id="ytick_6">
     <g id="line2d_32">
      <path d="
M55.6887 112.394
L557.344 112.394" style="fill:none;stroke:#000000;stroke-dasharray:1.000000,3.000000;stroke-dashoffset:0.0;stroke-linecap:butt;stroke-width:0.5;"/>
     </g>
     <g id="line2d_33">
      <defs>
       <path d="
M0 0
L4 0" id="m11d00daec5"/>
      </defs>
      <g>
       <use style="stroke:#000000;stroke-linecap:butt;stroke-width:0.5;" x="45.68875" xlink:href="#m11d00daec5" y="112.394452633"/>
      </g>
     </g>
     <g id="text_9">
      <!-- 2.5 -->
      <g transform="translate(7.37625 121.130077633)scale(0.24 -0.24)">
       <use xlink:href="#BitstreamVeraSans-Roman-32"/>
       <use x="63.623046875" xlink:href="#BitstreamVeraSans-Roman-2e"/>
       <use x="95.41015625" xlink:href="#BitstreamVeraSans-Roman-35"/>
      </g>
     </g>
    </g>
    <g id="ytick_7">
     <g id="line2d_34">
      <path d="
M55.6887 56.7909
L557.344 56.7909" style="fill:none;stroke:#000000;stroke-dasharray:1.000000,3.000000;stroke-dashoffset:0.0;stroke-linecap:butt;stroke-width:0.5;"/>
     </g>
     <g id="line2d_35">
      <defs>
       <path d="
M0 0
L4 0" id="m11d00daec5"/>
      </defs>
      <g>
       <use style="stroke:#000000;stroke-linecap:butt;stroke-width:0.5;" x="45.68875" xlink:href="#m11d00daec5" y="56.7909052894"/>
      </g>
     </g>
     <g id="text_10">
      <!-- 3 -->
      <defs>
       <path d="
M40.5781 39.3125
Q47.6562 37.7969 51.625 33
Q55.6094 28.2188 55.6094 21.1875
Q55.6094 10.4062 48.1875 4.48438
Q40.7656 -1.42188 27.0938 -1.42188
Q22.5156 -1.42188 17.6562 -0.515625
Q12.7969 0.390625 7.625 2.20312
L7.625 11.7188
Q11.7188 9.32812 16.5938 8.10938
Q21.4844 6.89062 26.8125 6.89062
Q36.0781 6.89062 40.9375 10.5469
Q45.7969 14.2031 45.7969 21.1875
Q45.7969 27.6406 41.2812 31.2656
Q36.7656 34.9062 28.7188 34.9062
L20.2188 34.9062
L20.2188 43.0156
L29.1094 43.0156
Q36.375 43.0156 40.2344 45.9219
Q44.0938 48.8281 44.0938 54.2969
Q44.0938 59.9062 40.1094 62.9062
Q36.1406 65.9219 28.7188 65.9219
Q24.6562 65.9219 20.0156 65.0312
Q15.375 64.1562 9.8125 62.3125
L9.8125 71.0938
Q15.4375 72.6562 20.3438 73.4375
Q25.25 74.2188 29.5938 74.2188
Q40.8281 74.2188 47.3594 69.1094
Q53.9062 64.0156 53.9062 55.3281
Q53.9062 49.2656 50.4375 45.0938
Q46.9688 40.9219 40.5781 39.3125" id="BitstreamVeraSans-Roman-33"/>
      </defs>
      <g transform="translate(30.1725 65.5265302894)scale(0.24 -0.24)">
       <use xlink:href="#BitstreamVeraSans-Roman-33"/>
      </g>
     </g>
    </g>
    <g id="ytick_8">
     <g id="line2d_36">
      <defs>
       <path d="
M0 0
L2 0" id="m982e043974"/>
      </defs>
      <g>
       <use style="stroke:#000000;stroke-linecap:butt;stroke-width:0.5;" x="45.68875" xlink:href="#m982e043974" y="379.29147988"/>
      </g>
     </g>
    </g>
    <g id="ytick_9">
     <g id="line2d_37">
      <defs>
       <path d="
M0 0
L2 0" id="m982e043974"/>
      </defs>
      <g>
       <use style="stroke:#000000;stroke-linecap:butt;stroke-width:0.5;" x="45.68875" xlink:href="#m982e043974" y="368.170770412"/>
      </g>
     </g>
    </g>
    <g id="ytick_10">
     <g id="line2d_38">
      <defs>
       <path d="
M0 0
L2 0" id="m982e043974"/>
      </defs>
      <g>
       <use style="stroke:#000000;stroke-linecap:butt;stroke-width:0.5;" x="45.68875" xlink:href="#m982e043974" y="357.050060943"/>
      </g>
     </g>
    </g>
    <g id="ytick_11">
     <g id="line2d_39">
      <defs>
       <path d="
M0 0
L2 0" id="m982e043974"/>
      </defs>
      <g>
       <use style="stroke:#000000;stroke-linecap:butt;stroke-width:0.5;" x="45.68875" xlink:href="#m982e043974" y="345.929351474"/>
      </g>
     </g>
    </g>
    <g id="ytick_12">
     <g id="line2d_40">
      <defs>
       <path d="
M0 0
L2 0" id="m982e043974"/>
      </defs>
      <g>
       <use style="stroke:#000000;stroke-linecap:butt;stroke-width:0.5;" x="45.68875" xlink:href="#m982e043974" y="334.808642006"/>
      </g>
     </g>
    </g>
    <g id="ytick_13">
     <g id="line2d_41">
      <defs>
       <path d="
M0 0
L2 0" id="m982e043974"/>
      </defs>
      <g>
       <use style="stroke:#000000;stroke-linecap:butt;stroke-width:0.5;" x="45.68875" xlink:href="#m982e043974" y="323.687932537"/>
      </g>
     </g>
    </g>
    <g id="ytick_14">
     <g id="line2d_42">
      <defs>
       <path d="
M0 0
L2 0" id="m982e043974"/>
      </defs>
      <g>
       <use style="stroke:#000000;stroke-linecap:butt;stroke-width:0.5;" x="45.68875" xlink:href="#m982e043974" y="312.567223069"/>
      </g>
     </g>
    </g>
    <g id="ytick_15">
     <g id="line2d_43">
      <defs>
       <path d="
M0 0
L2 0" id="m982e043974"/>
      </defs>
      <g>
       <use style="stroke:#000000;stroke-linecap:butt;stroke-width:0.5;" x="45.68875" xlink:href="#m982e043974" y="301.4465136"/>
      </g>
     </g>
    </g>
    <g id="ytick_16">
     <g id="line2d_44">
      <defs>
       <path d="
M0 0
L2 0" id="m982e043974"/>
      </defs>
      <g>
       <use style="stroke:#000000;stroke-linecap:butt;stroke-width:0.5;" x="45.68875" xlink:href="#m982e043974" y="290.325804131"/>
      </g>
     </g>
    </g>
    <g id="ytick_17">
     <g id="line2d_45">
      <defs>
       <path d="
M0 0
L2 0" id="m982e043974"/>
      </defs>
      <g>
       <use style="stroke:#000000;stroke-linecap:butt;stroke-width:0.5;" x="45.68875" xlink:href="#m982e043974" y="279.205094663"/>
      </g>
     </g>
    </g>
    <g id="ytick_18">
     <g id="line2d_46">
      <defs>
       <path d="
M0 0
L2 0" id="m982e043974"/>
      </defs>
      <g>
       <use style="stroke:#000000;stroke-linecap:butt;stroke-width:0.5;" x="45.68875" xlink:href="#m982e043974" y="268.084385194"/>
      </g>
     </g>
    </g>
    <g id="ytick_19">
     <g id="line2d_47">
      <defs>
       <path d="
M0 0
L2 0" id="m982e043974"/>
      </defs>
      <g>
       <use style="stroke:#000000;stroke-linecap:butt;stroke-width:0.5;" x="45.68875" xlink:href="#m982e043974" y="256.963675725"/>
      </g>
     </g>
    </g>
    <g id="ytick_20">
     <g id="line2d_48">
      <defs>
       <path d="
M0 0
L2 0" id="m982e043974"/>
      </defs>
      <g>
       <use style="stroke:#000000;stroke-linecap:butt;stroke-width:0.5;" x="45.68875" xlink:href="#m982e043974" y="245.842966257"/>
      </g>
     </g>
    </g>
    <g id="ytick_21">
     <g id="line2d_49">
      <defs>
       <path d="
M0 0
L2 0" id="m982e043974"/>
      </defs>
      <g>
       <use style="stroke:#000000;stroke-linecap:butt;stroke-width:0.5;" x="45.68875" xlink:href="#m982e043974" y="234.722256788"/>
      </g>
     </g>
    </g>
    <g id="ytick_22">
     <g id="line2d_50">
      <defs>
       <path d="
M0 0
L2 0" id="m982e043974"/>
      </defs>
      <g>
       <use style="stroke:#000000;stroke-linecap:butt;stroke-width:0.5;" x="45.68875" xlink:href="#m982e043974" y="223.601547319"/>
      </g>
     </g>
    </g>
    <g id="ytick_23">
     <g id="line2d_51">
      <defs>
       <path d="
M0 0
L2 0" id="m982e043974"/>
      </defs>
      <g>
       <use style="stroke:#000000;stroke-linecap:butt;stroke-width:0.5;" x="45.68875" xlink:href="#m982e043974" y="212.480837851"/>
      </g>
     </g>
    </g>
    <g id="ytick_24">
     <g id="line2d_52">
      <defs>
       <path d="
M0 0
L2 0" id="m982e043974"/>
      </defs>
      <g>
       <use style="stroke:#000000;stroke-linecap:butt;stroke-width:0.5;" x="45.68875" xlink:href="#m982e043974" y="201.360128382"/>
      </g>
     </g>
    </g>
    <g id="ytick_25">
     <g id="line2d_53">
      <defs>
       <path d="
M0 0
L2 0" id="m982e043974"/>
      </defs>
      <g>
       <use style="stroke:#000000;stroke-linecap:butt;stroke-width:0.5;" x="45.68875" xlink:href="#m982e043974" y="190.239418913"/>
      </g>
     </g>
    </g>
    <g id="ytick_26">
     <g id="line2d_54">
      <defs>
       <path d="
M0 0
L2 0" id="m982e043974"/>
      </defs>
      <g>
       <use style="stroke:#000000;stroke-linecap:butt;stroke-width:0.5;" x="45.68875" xlink:href="#m982e043974" y="179.118709445"/>
      </g>
     </g>
    </g>
    <g id="ytick_27">
     <g id="line2d_55">
      <defs>
       <path d="
M0 0
L2 0" id="m982e043974"/>
      </defs>
      <g>
       <use style="stroke:#000000;stroke-linecap:butt;stroke-width:0.5;" x="45.68875" xlink:href="#m982e043974" y="167.997999976"/>
      </g>
     </g>
    </g>
    <g id="ytick_28">
     <g id="line2d_56">
      <defs>
       <path d="
M0 0
L2 0" id="m982e043974"/>
      </defs>
      <g>
       <use style="stroke:#000000;stroke-linecap:butt;stroke-width:0.5;" x="45.68875" xlink:href="#m982e043974" y="156.877290507"/>
      </g>
     </g>
    </g>
    <g id="ytick_29">
     <g id="line2d_57">
      <defs>
       <path d="
M0 0
L2 0" id="m982e043974"/>
      </defs>
      <g>
       <use style="stroke:#000000;stroke-linecap:butt;stroke-width:0.5;" x="45.68875" xlink:href="#m982e043974" y="145.756581039"/>
      </g>
     </g>
    </g>
    <g id="ytick_30">
     <g id="line2d_58">
      <defs>
       <path d="
M0 0
L2 0" id="m982e043974"/>
      </defs>
      <g>
       <use style="stroke:#000000;stroke-linecap:butt;stroke-width:0.5;" x="45.68875" xlink:href="#m982e043974" y="134.63587157"/>
      </g>
     </g>
    </g>
    <g id="ytick_31">
     <g id="line2d_59">
      <defs>
       <path d="
M0 0
L2 0" id="m982e043974"/>
      </defs>
      <g>
       <use style="stroke:#000000;stroke-linecap:butt;stroke-width:0.5;" x="45.68875" xlink:href="#m982e043974" y="123.515162101"/>
      </g>
     </g>
    </g>
    <g id="ytick_32">
     <g id="line2d_60">
      <defs>
       <path d="
M0 0
L2 0" id="m982e043974"/>
      </defs>
      <g>
       <use style="stroke:#000000;stroke-linecap:butt;stroke-width:0.5;" x="45.68875" xlink:href="#m982e043974" y="112.394452633"/>
      </g>
     </g>
    </g>
    <g id="ytick_33">
     <g id="line2d_61">
      <defs>
       <path d="
M0 0
L2 0" id="m982e043974"/>
      </defs>
      <g>
       <use style="stroke:#000000;stroke-linecap:butt;stroke-width:0.5;" x="45.68875" xlink:href="#m982e043974" y="101.273743164"/>
      </g>
     </g>
    </g>
    <g id="ytick_34">
     <g id="line2d_62">
      <defs>
       <path d="
M0 0
L2 0" id="m982e043974"/>
      </defs>
      <g>
       <use style="stroke:#000000;stroke-linecap:butt;stroke-width:0.5;" x="45.68875" xlink:href="#m982e043974" y="90.1530336954"/>
      </g>
     </g>
    </g>
    <g id="ytick_35">
     <g id="line2d_63">
      <defs>
       <path d="
M0 0
L2 0" id="m982e043974"/>
      </defs>
      <g>
       <use style="stroke:#000000;stroke-linecap:butt;stroke-width:0.5;" x="45.68875" xlink:href="#m982e043974" y="79.0323242267"/>
      </g>
     </g>
    </g>
    <g id="ytick_36">
     <g id="line2d_64">
      <defs>
       <path d="
M0 0
L2 0" id="m982e043974"/>
      </defs>
      <g>
       <use style="stroke:#000000;stroke-linecap:butt;stroke-width:0.5;" x="45.68875" xlink:href="#m982e043974" y="67.9116147581"/>
      </g>
     </g>
    </g>
    <g id="ytick_37">
     <g id="line2d_65">
      <defs>
       <path d="
M0 0
L2 0" id="m982e043974"/>
      </defs>
      <g>
       <use style="stroke:#000000;stroke-linecap:butt;stroke-width:0.5;" x="45.68875" xlink:href="#m982e043974" y="56.7909052894"/>
      </g>
     </g>
    </g>
    <g id="ytick_38">
     <g id="line2d_66">
      <defs>
       <path d="
M0 0
L2 0" id="m982e043974"/>
      </defs>
      <g>
       <use style="stroke:#000000;stroke-linecap:butt;stroke-width:0.5;" x="45.68875" xlink:href="#m982e043974" y="45.6701958208"/>
      </g>
     </g>
    </g>
    <g id="ytick_39">
     <g id="line2d_67">
      <defs>
       <path d="
M0 0
L2 0" id="m982e043974"/>
      </defs>
      <g>
       <use style="stroke:#000000;stroke-linecap:butt;stroke-width:0.5;" x="45.68875" xlink:href="#m982e043974" y="34.5494863521"/>
      </g>
     </g>
    </g>
    <g id="ytick_40">
     <g id="line2d_68">
      <defs>
       <path d="
M0 0
L2 0" id="m982e043974"/>
      </defs>
      <g>
       <use style="stroke:#000000;stroke-linecap:butt;stroke-width:0.5;" x="45.68875" xlink:href="#m982e043974" y="23.4287768835"/>
      </g>
     </g>
    </g>
   </g>
   <g id="patch_3">
    <path d="
M55.6887 390.412
L557.344 390.412" style="fill:none;stroke:#000000;stroke-width:0.8;"/>
   </g>
   <g id="patch_4">
    <path d="
M45.6887 397.926
L45.6887 7.2" style="fill:none;stroke:#000000;stroke-width:0.8;"/>
   </g>
  </g>
 </g>
 <defs>
  <clipPath id="pda58150b38">
   <rect height="390.726153846" width="501.655" x="55.68875" y="7.2"/>
  </clipPath>
 </defs>
</svg>
