<?xml version="1.0" encoding="utf-8" standalone="no"?>
<!DOCTYPE svg PUBLIC "-//W3C//DTD SVG 1.1//EN"
  "http://www.w3.org/Graphics/SVG/1.1/DTD/svg11.dtd">
<!-- Created with matplotlib (http://matplotlib.sourceforge.net/) -->
<svg height="420pt" version="1.1" viewBox="0 0 564 420" width="564pt" xmlns="http://www.w3.org/2000/svg" xmlns:xlink="http://www.w3.org/1999/xlink">
 <defs>
  <style type="text/css">
*{stroke-linecap:square;stroke-linejoin:round;}
  </style>
 </defs>
 <g id="figure_1">
  <g id="patch_1">
   <path d="
M2.22045e-16 420.48
L564.694 420.48
L564.694 0
L2.22045e-16 0
z
" style="fill:#ffffff;"/>
  </g>
  <g id="axes_1">
   <g id="patch_2">
    <path d="
M80.0262 413.28
L557.494 413.28
L557.494 7.2
L80.0262 7.2
z
" style="fill:#ffffff;"/>
   </g>
   <g id="line2d_1">
    <path clip-path="url(#p06ebe62315)" d="
M89.2083 324.004
L99.709 324.004
L99.709 324.004
L99.709 324.004
L112.938 324.004
L112.938 405.471
L121.652 405.471
L121.652 365.992
L133.357 365.992
L133.357 244.591
L137.684 244.591
L137.684 237.021
L144.631 237.021
L144.631 189.246
L147.512 189.246
L147.512 171.429
L152.46 171.429
L152.46 157.259
L158.463 157.259
L158.463 133.118
L160.19 133.118
L160.19 130.952
L164.772 130.952
L164.772 120.322
L167.431 120.322
L167.431 108.145
L168.664 108.145
L168.664 104.612
L170.968 104.612
L170.968 100.445
L174.079 100.445
L174.079 90.6796
L176.856 90.6796
L176.856 80.1001
L177.72 80.1001
L177.72 76.4994
L180.149 76.4994
L180.149 71.6542
L181.651 71.6542
L181.651 66.6107
L182.371 66.6107
L182.371 63.2606
L184.416 63.2606
L184.416 51.839
L185.695 51.839
L185.695 44.5226
L187.503 44.5226
L187.503 35.3484
L189.732 35.3484
L189.732 25.8792
L190.779 25.8792
L190.779 22.1567
L191.286 22.1567
L191.286 20.7856
L192.273 20.7856
L192.273 18.7774
L192.753 18.7774
L192.753 18.5167
L193.686 18.5167
L193.686 17.3783
L196.711 17.3783
L196.711 15.1657
L197.514 15.1657
L197.514 15.0092
L198.674 15.0092
L198.674 15.5885
L199.049 15.5885
L199.049 15.8985
L200.848 15.8985
L200.848 17.7552
L201.194 17.7552
L201.194 18.4102
L202.203 18.4102
L202.203 20.3068
L203.174 20.3068
L203.174 21.4948
L203.802 21.4948
L203.802 21.9313
L204.716 21.9313
L204.716 21.8014
L207.279 21.896
L207.279 23.0349
L207.549 23.0349
L207.549 23.3328
L208.08 23.3328
L208.08 24.0307
L208.342 24.0307
L208.342 24.2822
L209.858 24.2822
L209.858 25.5286
L211.291 25.5286
L211.291 27.9677
L211.751 27.9677
L211.751 28.9625
L211.979 28.9625
L211.979 29.5842
L212.427 29.5842
L212.427 30.5192
L213.085 30.5192
L213.085 31.844
L213.301 31.844
L213.301 32.3232
L214.354 32.3232
L214.354 34.3546
L214.966 34.3546
L214.966 35.5851
L215.564 35.5851
L215.564 36.7469
L216.148 36.7469
L216.148 37.6439
L216.34 37.6439
L216.34 37.9648
L216.907 37.9648
L216.907 39.0164
L217.278 39.0164
L217.278 39.8209
L217.462 39.8209
L217.462 40.2425
L218.361 40.2425
L218.361 42.3709
L219.57 42.3709
L219.57 44.408
L219.905 44.408
L219.905 44.8299
L220.071 44.8299
L220.071 44.9711
L220.4 44.9711
L220.4 45.3427
L221.519 45.3427
L221.519 46.5553
L221.984 46.5553
L221.984 47.2305
L222.742 47.2305
L222.742 48.7383
L222.891 48.7383
L222.891 49.0645
L223.186 49.0645
L223.186 49.6782
L223.622 49.6782
L223.622 50.4444
L224.193 50.4444
L224.193 51.6733
L224.613 51.6733
L224.613 52.7668
L225.026 52.7668
L225.026 53.7417
L225.298 53.7417
L225.298 54.502
L225.701 54.502
L225.701 55.5709
L226.228 55.5709
L226.228 56.7153
L226.488 56.7153
L226.488 57.331
L226.999 57.331
L226.999 58.7674
L227.625 58.7674
L227.625 60.4171
L227.748 60.4171
L227.748 60.7194
L228.356 60.7194
L228.356 62.2185
L228.476 62.2185
L228.476 62.4926
L228.832 62.4926
L228.832 63.4515
L229.067 63.4515
L229.067 64.068
L229.416 64.068
L229.416 64.9225
L229.873 64.9225
L229.873 66.2179
L230.099 66.2179
L230.099 66.7781
L230.211 66.7781
L230.211 67.0815
L230.434 67.0815
L230.434 67.6829
L231.091 67.6829
L231.091 69.1482
L231.52 69.1482
L231.52 70.2439
L231.731 70.2439
L231.731 70.752
L232.15 70.752
L232.15 71.6918
L232.357 71.6918
L232.357 72.1443
L232.664 72.1443
L232.664 72.7431
L233.267 72.7431
L233.366 73.8077
L234.243 73.8077
L234.243 75.1339
L234.528 75.1339
L234.528 75.5085
L234.998 75.5085
L234.998 76.1802
L235.275 76.1802
L235.275 76.4904
L235.55 76.4904
L235.641 77.0506
L235.911 77.0506
L235.911 77.4548
L236.356 77.4548
L236.356 77.9677
L236.62 77.9677
L236.62 78.3209
L236.88 78.3209
L236.967 78.7587
L237.224 78.7587
L237.224 79.0915
L237.479 79.0915
L237.479 79.4864
L237.647 79.4864
L237.731 79.8234
L238.228 79.8234
L238.228 80.5335
L238.635 80.5335
L238.716 81.2819
L238.877 81.2819
L238.877 81.5679
L239.116 81.5679
L239.116 82.0586
L239.353 82.0586
L239.431 82.5612
L239.897 82.5612
L239.897 83.0531
L240.05 83.0531
L240.05 83.2425
L240.279 83.2425
L240.279 83.5351
L240.581 83.5351
L240.581 83.9495
L240.953 83.9495
L240.953 84.542
L241.246 84.542
L241.246 85.0865
L241.609 85.0865
L241.609 85.7951
L241.896 85.7951
L241.896 86.2738
L242.109 86.2738
L242.109 86.5768
L242.32 86.5768
L242.32 86.8671
L242.46 86.8671
L242.46 87.0796
L242.737 87.0796
L242.737 87.4269
L242.943 87.4269
L242.943 87.762
L243.079 87.762
L243.079 88.0091
L243.35 88.0091
L243.35 88.4167
L243.485 88.4167
L243.485 88.6622
L243.95 88.6622
L243.95 89.4624
L244.277 89.4624
L244.277 90.0495
L244.664 90.0495
L244.727 90.8218
L245.045 90.8218
L245.108 91.5437
L245.233 91.5437
L245.296 91.889
L245.607 91.889
L245.607 92.5096
L246.035 92.5096
L246.035 93.3729
L246.156 93.3729
L246.217 93.6763
L246.337 93.6763
L246.337 93.851
L246.754 93.851
L246.754 94.4542
L246.872 94.4542
L246.93 94.6544
L247.625 94.7436
L247.625 95.3068
L247.965 95.4096
L247.965 95.5871
L248.245 95.5871
L248.245 95.8839
L248.468 95.8839
L248.578 96.1242
L248.906 96.225
L248.906 96.2923
L249.284 96.2923
L249.391 96.4751
L249.919 96.5661
L249.919 96.6477
L250.385 96.7515
L250.487 97.0754
L250.943 97.1821
L250.994 97.3708
L251.392 97.4228
L251.441 97.502
L251.881 97.4419
L251.881 97.3667
L252.313 97.3667
L252.408 97.2246
L252.832 97.1299
L252.832 97.1035
L253.795 96.9959
L253.84 96.8305
L254.241 96.7627
L254.241 96.6811
L254.592 96.5845
L254.592 96.4965
L254.896 96.4205
L254.896 96.3069
L255.154 96.3069
L255.239 96.0855
L255.493 96.0041
L255.535 95.885
L255.911 95.7978
L255.911 95.6849
L256.485 95.6176
L256.526 95.5257
L256.888 95.4263
L256.967 95.2957
L257.323 95.2107
L257.362 94.9623
L258.135 94.8527
L258.135 94.1274
L258.249 94.1274
L258.249 93.9747
L258.362 93.9747
L258.362 93.818
L258.513 93.818
L258.513 93.5854
L258.848 93.5854
L258.848 93.0818
L259.033 93.0818
L259.033 92.8089
L259.289 92.8089
L259.398 92.2733
L259.578 92.1693
L259.578 91.9893
L259.722 91.9893
L259.829 91.5332
L259.936 91.5332
L259.936 91.3546
L260.148 91.3546
L260.148 91.0383
L260.323 91.0383
L260.428 90.6803
L260.532 90.6346
L260.636 90.4447
L260.843 90.4447
L260.843 90.2413
L261.047 90.2413
L261.047 90.035
L261.183 90.035
L261.183 89.8796
L261.385 89.8796
L261.486 89.5642
L261.652 89.4965
L261.652 89.3822
L261.785 89.3822
L261.851 89.1588
L261.983 89.1588
L262.048 88.9037
L262.276 88.9037
L262.341 88.5388
L262.47 88.4414
L262.534 88.3269
L262.63 88.3269
L262.662 88.1547
L262.917 88.0457
L262.917 87.856
L263.231 87.856
L263.325 87.4205
L263.788 87.3188
L263.88 86.7845
L264.032 86.7845
L264.032 86.6116
L264.213 86.6116
L264.243 86.3725
L264.393 86.3725
L264.393 86.178
L264.512 86.178
L264.601 85.9431
L264.778 85.8455
L264.778 85.7498
L265.042 85.7498
L265.129 85.3409
L265.389 85.2424
L265.389 85.0331
L265.533 85.0331
L265.533 84.8625
L265.704 84.8625
L265.704 84.647
L265.817 84.647
L265.817 84.5118
L266.043 84.5118
L266.043 84.2748
L266.238 84.2748
L266.322 84.0129
L266.46 83.9353
L266.487 83.861
L266.625 83.861
L266.625 83.7431
L266.871 83.6354
L266.952 83.4992
L267.194 83.4992
L267.221 83.2573
L267.435 83.2573
L267.461 83.0176
L267.752 83.0176
L267.83 82.6316
L267.935 82.6316
L268.013 82.4336
L268.246 82.3245
L268.323 82.2034
L268.604 82.1224
L268.604 82.05
L268.907 81.9397
L268.982 81.8185
L269.206 81.7311
L269.231 81.6728
L269.355 81.6728
L269.355 81.5466
L269.503 81.5466
L269.527 81.3524
L269.722 81.3524
L269.82 81.1062
L270.013 81.0538
L270.109 80.9328
L270.607 80.8292
L270.654 80.683
L271.004 80.6066
L271.073 80.5038
L271.508 80.4244
L271.576 80.3615
L271.824 80.3025
L271.847 80.2169
L272.092 80.2169
L272.181 80.0174
L272.357 79.9485
L272.357 79.9047
L272.511 79.9047
L272.62 79.7111
L272.815 79.6143
L272.815 79.5724
L273.008 79.4851
L273.072 79.3953
L273.328 79.2852
L273.328 79.256
L273.601 79.1495
L273.643 79.0691
L273.914 79.0691
L273.914 78.8433
L274.099 78.8433
L274.202 78.5523
L274.324 78.4753
L274.406 78.3643
L274.688 78.3162
L274.688 78.1569
L274.988 78.0673
L275.067 77.8783
L275.225 77.8459
L275.225 77.7637
L275.46 77.6815
L275.518 77.5645
L275.712 77.4558
L275.808 77.3417
L276 77.2338
L276.057 77.188
L276.266 77.1184
L276.342 77.0093
L276.604 76.9054
L276.604 76.8574
L276.845 76.7536
L276.845 76.7445
L277.121 76.6561
L277.212 76.4961
L277.538 76.4009
L277.61 76.2935
L277.878 76.2074
L277.966 76.1281
L278.596 76.0218
L278.699 75.971
L279.126 75.8842
L279.176 75.7944
L279.529 75.6946
L279.628 75.5708
L279.975 75.4929
L280.024 75.3678
L280.3 75.2643
L280.348 75.1775
L280.685 75.0785
L280.749 74.908
L281.065 74.8365
L281.174 74.6217
L281.762 74.5282
L281.777 74.4952
L283.747 74.4058
L283.846 74.3181
L284.168 74.214
L284.266 74.1358
L284.5 74.0349
L284.583 73.9627
L284.869 73.8714
L284.95 73.77
L285.152 73.6934
L285.246 73.5756
L285.445 73.519
L285.551 73.3761
L285.84 73.2873
L285.84 73.2386
L286.074 73.1311
L286.177 73.0707
L286.523 72.9668
L286.561 72.8846
L286.764 72.8064
L286.864 72.6733
L287.027 72.6161
L287.064 72.533
L287.324 72.4631
L287.435 72.2849
L287.643 72.1892
L287.752 72.0904
L288.09 71.9902
L288.161 71.7842
L288.304 71.6834
L288.364 71.6011
L288.505 71.5118
L288.576 71.4125
L288.763 71.3371
L288.856 71.1623
L288.995 71.1296
L289.065 70.9516
L289.203 70.8415
L289.237 70.7929
L289.374 70.7929
L289.454 70.6154
L289.623 70.5193
L289.691 70.4319
L289.882 70.3525
L289.96 70.24
L290.181 70.135
L290.248 70.0252
L290.39 69.9328
L290.412 69.8857
L290.554 69.8029
L290.554 69.7622
L290.684 69.7622
L290.782 69.5345
L290.943 69.4497
L290.943 69.3862
L291.103 69.3862
L291.189 69.1841
L291.358 69.0823
L291.411 69.022
L291.662 68.9131
L291.766 68.8523
L292.096 68.759
L292.137 68.7299
L292.684 68.6254
L292.794 68.5878
L293.328 68.4793
L293.387 68.419
L293.571 68.3488
L293.591 68.285
L293.735 68.285
L293.822 68.0806
L293.975 67.973
L294.061 67.8018
L294.165 67.8018
L294.222 67.6101
L294.335 67.501
L294.429 67.3587
L294.569 67.3347
L294.643 67.1046
L294.875 67.0089
L294.985 66.7404
L295.15 66.6406
L295.231 66.5047
L295.394 66.4426
L295.449 66.3252
L295.583 66.3252
L295.682 66.1289
L295.851 66.0457
L295.948 65.948
L296.133 65.8488
L296.238 65.7621
L296.499 65.6516
L296.603 65.5922
L296.868 65.4888
L296.945 65.4521
L297.249 65.3517
L297.291 65.2968
L297.525 65.189
L297.6 65.1436
L297.938 65.033
L298.036 64.9959
L298.504 64.8949
L298.592 64.8499
L299.486 64.7397
L299.556 64.7206
L299.922 64.611
L300.013 64.585
L300.536 64.4744
L300.647 64.4421
L300.991 64.3427
L301.1 64.2751
L301.302 64.1861
L301.41 64.1023
L301.807 63.9955
L301.878 63.9517
L302.164 63.8576
L302.269 63.7886
L303.486 63.6821
L303.591 63.6492
L303.983 63.558
L304.061 63.4925
L304.541 63.384
L304.617 63.3656
L305.173 63.2545
L305.198 63.2532
L305.235 63.2533
L306.02 63.1427
L306.121 63.1046
L306.412 62.9951
L306.495 62.927
L306.729 62.838
L306.833 62.7603
L307.053 62.6857
L307.139 62.5949
L307.419 62.4844
L307.515 62.437
L308.008 62.3315
L308.119 62.2963
L308.486 62.1968
L308.595 62.16
L308.966 62.0524
L309.052 62.004
L309.238 61.8971
L309.348 61.8208
L309.527 61.7282
L309.631 61.6288
L309.803 61.571
L309.885 61.4428
L310.019 61.3595
L310.127 61.2324
L310.28 61.1269
L310.356 61.0426
L310.522 60.9494
L310.633 60.8422
L310.867 60.7326
L310.957 60.6363
L311.193 60.5361
L311.296 60.4236
L311.447 60.3151
L311.515 60.2477
L311.665 60.1527
L311.775 60.0352
L311.938 59.9302
L312.038 59.8375
L312.189 59.7392
L312.26 59.6467
L312.391 59.5383
L312.471 59.4625
L312.601 59.3758
L312.666 59.2619
L312.81 59.1753
L312.92 58.9946
L313.066 58.8859
L313.176 58.721
L313.33 58.6258
L313.411 58.511
L313.581 58.4049
L313.675 58.2631
L313.808 58.1572
L313.919 58.0766
L314.117 57.9656
L314.218 57.8924
L314.379 57.7831
L314.478 57.7033
L314.659 57.5957
L314.762 57.4829
L314.958 57.3727
L315.068 57.3085
L315.374 57.201
L315.474 57.1572
L315.722 57.0472
L315.809 56.9927
L316.054 56.8873
L316.159 56.8214
L316.401 56.7115
L316.497 56.6573
L316.704 56.5481
L316.795 56.4815
L317.008 56.3991
L317.106 56.3171
L317.3 56.236
L317.405 56.1407
L317.555 56.0489
L317.658 55.9448
L317.81 55.8387
L317.92 55.7405
L318.09 55.6412
L318.184 55.5488
L318.337 55.4451
L318.437 55.3682
L318.629 55.2669
L318.696 55.2166
L318.904 55.1075
L319.013 55.021
L319.172 54.9344
L319.269 54.8359
L319.413 54.7431
L319.519 54.634
L319.654 54.5306
L319.76 54.4216
L319.88 54.3171
L319.985 54.1954
L320.096 54.0849
L320.2 53.9746
L320.339 53.8641
L320.442 53.7529
L320.606 53.6554
L320.698 53.582
L320.881 53.486
L320.989 53.4201
L321.273 53.3098
L321.382 53.2616
L321.609 53.1618
L321.668 53.1215
L321.942 53.0167
L322.049 52.956
L322.315 52.8468
L322.395 52.8118
L322.717 52.7092
L322.827 52.6703
L323.237 52.5679
L323.348 52.5225
L323.804 52.4156
L323.888 52.399
L324.459 52.2893
L324.547 52.2628
L324.879 52.152
L324.988 52.1063
L325.309 51.9992
L325.419 51.9546
L325.941 51.8474
L326.038 51.8061
L326.408 51.6988
L326.517 51.6612
L326.911 51.557
L327.009 51.5314
L327.654 51.4227
L327.763 51.4021
L328.635 51.5096
L328.738 51.5425
L329.022 51.6529
L329.131 51.7004
L329.338 51.8084
L329.423 51.8623
L329.677 51.9692
L329.787 52.0339
L330.063 52.1433
L330.158 52.17
L333.129 52.0611
L333.236 52.0296
L333.683 51.9214
L333.783 51.885
L334.13 51.7777
L334.233 51.724
L334.419 51.622
L334.529 51.5454
L334.732 51.438
L334.836 51.3614
L335.024 51.252
L335.118 51.1977
L335.347 51.0883
L335.457 51.0218
L335.679 50.9252
L335.778 50.8596
L335.991 50.7488
L336.093 50.6916
L336.467 50.5842
L336.563 50.5501
L337.086 50.4392
L337.194 50.4218
L339.218 50.311
L339.316 50.2913
L339.681 50.182
L339.785 50.1687
L343.695 50.0584
L343.799 50.0351
L345.824 50.1451
L345.919 50.1624
L346.465 50.2734
L346.57 50.2852
L347.972 50.1747
L348.076 50.1663
L351.362 50.2757
L351.465 50.3117
L351.765 50.4185
L351.871 50.4729
L352.079 50.5837
L352.19 50.6535
L352.39 50.763
L352.495 50.8159
L352.791 50.9253
L352.895 50.9599
L353.27 51.0702
L353.377 51.0978
L353.734 51.2079
L353.839 51.2512
L354.092 51.3622
L354.19 51.4077
L354.496 51.5175
L354.604 51.562
L354.913 51.6725
L355.017 51.7057
L355.339 51.8167
L355.448 51.8673
L355.678 51.9767
L355.788 52.0371
L356.06 52.1466
L356.169 52.2005
L356.411 52.3104
L356.521 52.3639
L356.722 52.4708
L356.831 52.5491
L357.008 52.6597
L357.116 52.728
L357.308 52.8372
L357.418 52.9094
L357.593 53.02
L357.703 53.0778
L357.952 53.1881
L358.06 53.2385
L358.316 53.3489
L358.426 53.4059
L358.709 53.5148
L358.817 53.5614
L359.196 53.671
L359.306 53.6988
L359.814 53.8096
L359.924 53.8459
L360.262 53.9564
L360.366 53.992
L360.776 54.1005
L360.885 54.1279
L361.194 54.2379
L361.298 54.2929
L361.538 54.4037
L361.645 54.4428
L361.932 54.5532
L362.043 54.605
L362.269 54.7147
L362.379 54.771
L362.581 54.8802
L362.681 54.9433
L362.876 55.0518
L362.984 55.124
L363.165 55.2329
L363.275 55.3062
L363.453 55.4172
L363.563 55.4974
L363.704 55.6064
L363.811 55.6905
L363.944 55.7962
L364.055 55.8996
L364.171 56.0076
L364.281 56.1297
L364.387 56.2378
L364.497 56.3569
L364.605 56.4646
L364.716 56.5845
L364.82 56.6915
L364.928 56.8074
L365.049 56.9175
L365.155 57.0231
L365.28 57.1325
L365.39 57.231
L365.531 57.3358
L365.637 57.437
L365.765 57.5474
L365.876 57.651
L365.992 57.7558
L366.099 57.8704
L366.217 57.9808
L366.325 58.1018
L366.434 58.2124
L366.544 58.3247
L366.656 58.4325
L366.766 58.5585
L366.865 58.6649
L366.973 58.7926
L367.078 58.8986
L367.188 59.0346
L367.287 59.1422
L367.398 59.2815
L367.499 59.3925
L367.608 59.5116
L367.705 59.621
L367.816 59.7494
L367.918 59.8567
L368.028 59.9764
L368.14 60.0875
L368.25 60.2104
L368.356 60.3188
L368.461 60.4391
L368.563 60.5484
L368.673 60.6705
L368.773 60.7783
L368.883 60.9096
L368.99 61.0206
L369.098 61.1376
L369.214 61.2432
L369.324 61.3531
L369.443 61.4596
L369.551 61.5751
L369.669 61.6845
L369.779 61.8034
L369.888 61.9136
L369.995 62.03
L370.101 62.1408
L370.207 62.2428
L370.343 62.3506
L370.454 62.4373
L370.637 62.5454
L370.748 62.616
L370.957 62.7271
L371.058 62.7702
L371.452 62.8812
L371.563 62.9149
L372.084 63.025
L372.194 63.0435
L372.981 63.1546
L373.092 63.1708
L373.744 63.2812
L373.854 63.3061
L377.146 63.1957
L377.256 63.1635
L378.12 63.0525
L378.229 63.022
L378.77 62.9111
L378.878 62.8879
L379.274 62.777
L379.383 62.7501
L380.022 62.6396
L380.132 62.6119
L380.478 62.501
L380.589 62.4602
L380.87 62.3498
L380.977 62.2995
L381.261 62.1885
L381.371 62.1392
L381.695 62.0287
L381.805 61.9903
L382.087 61.8817
L382.194 61.8303
L382.406 61.7205
L382.516 61.6551
L382.708 61.5445
L382.818 61.4768
L383.03 61.3661
L383.137 61.317
L383.375 61.2064
L383.485 61.1604
L383.857 61.0494
L383.967 61.0208
L384.438 60.9097
L384.548 60.8909
L385.969 60.7799
L386.08 60.7664
L387.217 60.6553
L387.327 60.6332
L387.927 60.5222
L388.037 60.4871
L388.336 60.376
L388.447 60.3293
L388.78 60.2182
L388.891 60.1762
L389.139 60.0651
L389.249 60.0105
L389.477 59.8994
L389.587 59.858
L389.918 59.747
L390.026 59.7158
L390.37 59.605
L390.478 59.5696
L390.931 59.4585
L391.041 59.441
L391.57 59.3301
L391.679 59.2943
L391.953 59.184
L392.062 59.1262
L392.302 59.0152
L392.412 58.9656
L392.626 58.8545
L392.736 58.7959
L392.991 58.6855
L393.101 58.6423
L393.385 58.5314
L393.495 58.4847
L393.74 58.3744
L393.851 58.3211
L394.103 58.2101
L394.211 58.1725
L394.491 58.0616
L394.601 58.0224
L394.93 57.9114
L395.041 57.8678
L395.297 57.7572
L395.408 57.6996
L395.639 57.589
L395.75 57.527
L395.942 57.416
L396.052 57.3487
L396.255 57.2378
L396.366 57.1764
L396.588 57.0655
L396.698 57.0041
L396.91 56.8931
L397.021 56.8337
L397.231 56.7227
L397.341 56.6651
L397.602 56.5541
L397.713 56.5097
L398.056 56.3987
L398.166 56.3638
L398.811 56.2527
L398.921 56.2422
L399.797 56.1311
L399.908 56.1084
L400.436 55.9974
L400.547 55.9608
L400.817 55.8499
L400.927 55.8105
L401.476 55.6996
L401.586 55.6839
L402.221 55.5728
L402.329 55.5448
L402.713 55.4345
L402.824 55.3867
L403.084 55.2758
L403.195 55.222
L403.402 55.1114
L403.513 55.0477
L403.735 54.9377
L403.845 54.8916
L404.112 54.7805
L404.222 54.7235
L404.41 54.6141
L404.52 54.551
L404.705 54.442
L404.816 54.3767
L405.008 54.2665
L405.118 54.1934
L405.287 54.0824
L405.398 54.0112
L405.575 53.9001
L405.685 53.8268
L405.845 53.7158
L405.956 53.6417
L406.134 53.5308
L406.245 53.4648
L406.427 53.3541
L406.537 53.2851
L406.713 53.1744
L406.823 53.103
L407.051 52.9926
L407.162 52.9384
L407.386 52.8275
L407.497 52.7688
L407.708 52.6577
L407.819 52.5987
L408.031 52.4877
L408.142 52.4274
L408.343 52.3164
L408.454 52.2558
L408.645 52.145
L408.755 52.073
L408.924 51.9623
L409.034 51.8767
L409.175 51.7659
L409.285 51.6774
L409.42 51.5665
L409.531 51.4723
L409.67 51.3612
L409.781 51.2668
L409.919 51.156
L410.03 51.0589
L410.166 50.9479
L410.277 50.8658
L410.435 50.7548
L410.546 50.6674
L410.694 50.5563
L410.805 50.4723
L410.952 50.3613
L411.062 50.2724
L411.207 50.1622
L411.317 50.0749
L411.455 49.9641
L411.566 49.8786
L411.724 49.7688
L411.834 49.6947
L412.007 49.5837
L412.117 49.5159
L412.293 49.4053
L412.404 49.3301
L412.555 49.2196
L412.665 49.1448
L412.847 49.0338
L412.958 48.963
L413.12 48.8519
L413.231 48.7705
L413.382 48.6594
L413.493 48.5776
L413.652 48.4668
L413.763 48.3923
L413.939 48.2815
L414.048 48.2112
L414.221 48.1002
L414.329 48.0221
L414.48 47.9111
L414.591 47.8254
L414.731 47.7146
L414.842 47.6183
L414.976 47.5079
L415.087 47.4157
L415.225 47.3047
L415.336 47.2134
L415.481 47.1023
L415.591 47.0215
L415.746 46.9105
L415.857 46.8255
L416.011 46.7145
L416.122 46.638
L416.3 46.5273
L416.411 46.4532
L416.581 46.3427
L416.692 46.2744
L416.877 46.1638
L416.988 46.102
L417.209 45.991
L417.319 45.9271
L417.547 45.8162
L417.658 45.7709
L417.942 45.66
L418.053 45.6145
L418.312 45.5038
L418.423 45.4568
L418.67 45.3463
L418.781 45.2941
L419.042 45.1831
L419.153 45.1299
L419.359 45.0188
L419.47 44.9575
L419.688 44.8466
L419.798 44.7817
L420.004 44.6707
L420.115 44.6127
L420.349 44.5017
L420.46 44.4511
L420.716 44.3402
L420.827 44.2968
L421.162 44.1857
L421.273 44.1569
L421.676 44.0458
L421.786 44.0135
L422.103 43.903
L422.214 43.852
L422.413 43.7409
L422.524 43.6718
L422.72 43.5611
L422.831 43.5074
L423.067 43.3964
L423.177 43.3383
L423.414 43.2274
L423.525 43.1834
L423.808 43.0723
L423.919 43.0152
L424.145 42.9042
L424.256 42.8634
L424.627 42.7523
L424.738 42.7257
L425.185 42.6146
L425.296 42.5883
L425.917 42.4773
L426.028 42.4648
L426.802 42.3537
L426.913 42.3315
L427.397 42.2204
L427.508 42.1916
L427.981 42.0805
L428.091 42.0461
L428.672 41.9351
L428.783 41.9102
L429.396 41.7992
L429.507 41.7728
L429.934 41.6617
L430.045 41.6279
L430.391 41.5168
L430.502 41.4773
L430.793 41.3662
L430.904 41.3175
L431.155 41.2065
L431.266 41.1587
L431.512 41.0476
L431.623 40.9957
L431.876 40.8846
L431.987 40.8348
L432.221 40.7237
L432.333 40.6695
L432.578 40.5586
L432.689 40.5112
L433.011 40.4004
L433.122 40.3626
L433.425 40.2515
L433.536 40.2012
L433.804 40.0901
L433.915 40.0466
L434.221 39.9355
L434.332 39.888
L434.576 39.7769
L434.686 39.7305
L435.001 39.6194
L435.112 39.58
L435.469 39.4689
L435.579 39.4359
L435.99 39.3248
L436.1 39.2906
L436.404 39.1796
L436.514 39.1327
L436.777 39.0216
L436.888 38.9773
L437.156 38.8663
L437.267 38.8265
L437.566 38.7155
L437.677 38.6759
L438.002 38.5648
L438.113 38.5192
L438.391 38.4082
L438.502 38.3703
L438.805 38.2594
L438.916 38.2165
L439.173 38.1055
L439.284 38.0523
L439.504 37.9413
L439.615 37.8857
L439.854 37.7747
L439.965 37.7269
L440.212 37.6158
L440.323 37.5596
L440.528 37.4486
L440.639 37.3905
L440.869 37.2796
L440.98 37.2364
L441.309 37.1254
L441.42 37.0941
L441.879 36.9831
L441.99 36.9581
L443.319 36.847
L443.43 36.836
L444.397 36.7249
L444.508 36.7217
L445.893 36.6107
L446.005 36.5986
L447.355 36.4875
L447.466 36.4816
L449.023 36.3705
L449.134 36.362
L450.838 36.2509
L450.949 36.2376
L451.785 36.1265
L451.896 36.1092
L452.457 35.9981
L452.568 35.9802
L453.262 35.8691
L453.373 35.8524
L454.31 35.7414
L454.421 35.7298
L455.263 35.6186
L455.374 35.6056
L456.285 35.4945
L456.396 35.4667
L456.842 35.3557
L456.953 35.3255
L457.408 35.2144
L457.519 35.1798
L457.85 35.0687
L457.961 35.0244
L458.218 34.9133
L458.329 34.8716
L458.632 34.7605
L458.743 34.7254
L459.027 34.6144
L459.138 34.5753
L459.43 34.4642
L459.541 34.4229
L459.803 34.3119
L459.914 34.2619
L460.173 34.1509
L460.285 34.101
L460.576 33.99
L460.687 33.9479
L461.005 33.8368
L461.116 33.8031
L461.593 33.692
L461.704 33.6663
L462.32 33.5552
L462.431 33.5368
L462.884 33.4257
L462.995 33.3948
L463.592 33.2837
L463.703 33.2714
L464.32 33.1603
L464.431 33.1304
L464.869 33.0193
L464.98 32.9826
L465.312 32.8716
L465.423 32.834
L465.858 32.7229
L465.969 32.6948
L466.378 32.5837
L466.489 32.5493
L466.812 32.4382
L466.923 32.4017
L467.229 32.2906
L467.34 32.25
L467.667 32.1389
L467.778 32.1009
L468.079 31.9898
L468.19 31.9438
L468.5 31.8327
L468.612 31.7902
L468.866 31.6792
L468.977 31.6313
L469.293 31.5202
L469.404 31.4904
L469.951 31.3793
L470.062 31.3628
L470.82 31.2517
L470.931 31.2361
L472.292 31.125
L472.403 31.112
L473.266 31.0009
L473.377 30.9788
L475.543 30.8677
L475.654 30.8492
L477.054 30.7381
L477.165 30.7192
L477.814 30.6081
L477.925 30.5938
L478.544 30.4827
L478.655 30.4565
L479.064 30.3455
L479.175 30.3188
L479.661 30.2077
L479.772 30.1889
L481.737 30.3
L481.848 30.3246
L482.362 30.4357
L482.474 30.4608
L483.459 30.5719
L483.57 30.5813
L485.913 30.6924
L486.024 30.6993
L487.313 30.8104
L487.424 30.8221
L488.137 30.9332
L488.248 30.948
L489.454 31.0591
L489.565 31.0761
L490.265 31.1872
L490.376 31.2075
L491.14 31.3186
L491.251 31.3394
L491.776 31.4505
L491.887 31.4806
L492.249 31.5917
L492.36 31.6235
L493.016 31.7346
L493.127 31.7496
L493.903 31.8607
L494.014 31.8809
L494.553 31.992
L494.664 32.0144
L495.184 32.1256
L495.295 32.1455
L496.536 32.2567
L496.647 32.2692
L497.522 32.3803
L497.633 32.3864
L500.467 32.2753
L500.578 32.2583
L501.508 32.1472
L501.619 32.1385
L506.46 32.2496
L506.571 32.2607
L511.157 32.1496
L511.268 32.1321
L511.919 32.021
L512.03 31.9982
L512.695 31.8871
L512.806 31.8699
L513.537 31.7588
L513.648 31.7401
L514.332 31.629
L514.443 31.6079
L515.02 31.4968
L515.131 31.4733
L515.761 31.3621
L515.872 31.3476
L516.527 31.2365
L516.638 31.2193
L517.326 31.1082
L517.437 31.0918
L518.195 30.9806
L518.306 30.9647
L519.679 30.8536
L519.79 30.8447
L521.61 30.7336
L521.721 30.7264
L523.418 30.6153
L523.529 30.6023
L524.483 30.4912
L524.594 30.4769
L525.52 30.3658
L525.631 30.3546
L526.418 30.2435
L526.529 30.2253
L527.065 30.1142
L527.176 30.0836
L527.562 29.9725
L527.673 29.9418
L528.061 29.8307
L528.172 29.8005
L528.494 29.6894
L528.605 29.6551
L528.954 29.544
L529.065 29.506
L529.373 29.3949
L529.484 29.3528
L529.751 29.2417
L529.862 29.1915
L530.119 29.0804
L530.23 29.0323
L530.49 28.9211
L530.601 28.8743
L530.851 28.7632
L530.962 28.7156
L531.23 28.6045
L531.341 28.5574
L531.619 28.4463
L531.73 28.4018
L531.974 28.2907
L532.085 28.2391
L532.319 28.128
L532.43 28.0758
L532.679 27.9647
L532.79 27.9173
L533.078 27.8062
L533.189 27.7652
L533.551 27.6541
L533.662 27.6192
L533.975 27.5081
L534.086 27.464
L534.384 27.3529
L534.496 27.3118
L534.817 27.2006
L534.928 27.1627
L535.241 27.0516
L535.352 27.0151
L535.688 26.904
L535.799 26.8693
L536.127 26.7582
L536.238 26.7191
L536.53 26.608
L536.641 26.5708
L536.972 26.4597
L537.083 26.4217
L537.38 26.3106
L537.491 26.2648
L537.757 26.1537
L537.868 26.1071
L538.119 25.996
L538.23 25.9495
L538.505 25.8384
L538.616 25.7965
L538.911 25.6854
L539.022 25.6443
L539.307 25.5331
L539.418 25.4838
L539.647 25.3726
L539.758 25.3233
L540.044 25.2122
L540.155 25.1714
L540.419 25.0603
L540.53 25.0121
L540.786 24.901
L540.897 24.8483
L541.128 24.7372
L541.239 24.6898
L541.499 24.5787
L541.61 24.5339
L541.896 24.4228
L542.007 24.376
L542.257 24.2648
L542.368 24.2081
L542.588 24.097
L542.699 24.039
L542.914 23.9279
L543.025 23.8679
L543.231 23.7568
L543.342 23.6973
L543.566 23.5862
L543.678 23.532
L543.901 23.4209
L544.012 23.3636
L544.216 23.2525
L544.327 23.1859
L544.506 23.0748
L544.617 23.0074
L544.8 22.8963
L544.911 22.8329
L545.105 22.7218
L545.216 22.661
L545.432 22.5499
L545.544 22.4954
L545.762 22.3843
L545.873 22.3281
L546.08 22.217
L546.191 22.1598
L546.402 22.0487
L546.513 21.988
L546.738 21.8769
L546.85 21.8237
L547.075 21.7126
L547.186 21.6596
L547.426 21.5485
L547.537 21.4979
L547.799 21.3868
L547.91 21.3425
L548.2 21.2314
L548.311 21.1876
L548.312 21.1873
L548.312 21.1873" style="fill:none;stroke:#0000ff;stroke-width:5.0;"/>
   </g>
   <g id="matplotlib.axis_1">
    <g id="xtick_1">
     <g id="line2d_2">
      <path d="
M200.746 413.28
L200.746 7.2" style="fill:none;stroke:#000000;stroke-dasharray:1.000000,3.000000;stroke-dashoffset:0.0;stroke-linecap:butt;stroke-width:0.5;"/>
     </g>
     <g id="line2d_3">
      <defs>
       <path d="
M0 0
L0 -4" id="m852febbdde"/>
      </defs>
      <g>
       <use style="stroke:#000000;stroke-linecap:butt;stroke-width:0.5;" x="200.746147927" xlink:href="#m852febbdde" y="324.004464932"/>
      </g>
     </g>
     <g id="text_1">
      <!-- 5 -->
      <defs>
       <path d="
M10.7969 72.9062
L49.5156 72.9062
L49.5156 64.5938
L19.8281 64.5938
L19.8281 46.7344
Q21.9688 47.4688 24.1094 47.8281
Q26.2656 48.1875 28.4219 48.1875
Q40.625 48.1875 47.75 41.5
Q54.8906 34.8125 54.8906 23.3906
Q54.8906 11.625 47.5625 5.09375
Q40.2344 -1.42188 26.9062 -1.42188
Q22.3125 -1.42188 17.5469 -0.640625
Q12.7969 0.140625 7.71875 1.70312
L7.71875 11.625
Q12.1094 9.23438 16.7969 8.0625
Q21.4844 6.89062 26.7031 6.89062
Q35.1562 6.89062 40.0781 11.3281
Q45.0156 15.7656 45.0156 23.3906
Q45.0156 31 40.0781 35.4375
Q35.1562 39.8906 26.7031 39.8906
Q22.75 39.8906 18.8125 39.0156
Q14.8906 38.1406 10.7969 36.2812
z
" id="BitstreamVeraSans-Roman-35"/>
      </defs>
      <g transform="translate(195.085522927 345.501964932)scale(0.24 -0.24)">
       <use xlink:href="#BitstreamVeraSans-Roman-35"/>
      </g>
     </g>
    </g>
    <g id="xtick_2">
     <g id="line2d_4">
      <path d="
M330.235 413.28
L330.235 7.2" style="fill:none;stroke:#000000;stroke-dasharray:1.000000,3.000000;stroke-dashoffset:0.0;stroke-linecap:butt;stroke-width:0.5;"/>
     </g>
     <g id="line2d_5">
      <defs>
       <path d="
M0 0
L0 -4" id="m852febbdde"/>
      </defs>
      <g>
       <use style="stroke:#000000;stroke-linecap:butt;stroke-width:0.5;" x="330.234936255" xlink:href="#m852febbdde" y="324.004464932"/>
      </g>
     </g>
     <g id="text_2">
      <!-- 10 -->
      <defs>
       <path d="
M31.7812 66.4062
Q24.1719 66.4062 20.3281 58.9062
Q16.5 51.4219 16.5 36.375
Q16.5 21.3906 20.3281 13.8906
Q24.1719 6.39062 31.7812 6.39062
Q39.4531 6.39062 43.2812 13.8906
Q47.125 21.3906 47.125 36.375
Q47.125 51.4219 43.2812 58.9062
Q39.4531 66.4062 31.7812 66.4062
M31.7812 74.2188
Q44.0469 74.2188 50.5156 64.5156
Q56.9844 54.8281 56.9844 36.375
Q56.9844 17.9688 50.5156 8.26562
Q44.0469 -1.42188 31.7812 -1.42188
Q19.5312 -1.42188 13.0625 8.26562
Q6.59375 17.9688 6.59375 36.375
Q6.59375 54.8281 13.0625 64.5156
Q19.5312 74.2188 31.7812 74.2188" id="BitstreamVeraSans-Roman-30"/>
       <path d="
M12.4062 8.29688
L28.5156 8.29688
L28.5156 63.9219
L10.9844 60.4062
L10.9844 69.3906
L28.4219 72.9062
L38.2812 72.9062
L38.2812 8.29688
L54.3906 8.29688
L54.3906 0
L12.4062 0
z
" id="BitstreamVeraSans-Roman-31"/>
      </defs>
      <g transform="translate(317.079936255 345.816964932)scale(0.24 -0.24)">
       <use xlink:href="#BitstreamVeraSans-Roman-31"/>
       <use x="63.623046875" xlink:href="#BitstreamVeraSans-Roman-30"/>
      </g>
     </g>
    </g>
    <g id="xtick_3">
     <g id="line2d_6">
      <path d="
M459.724 413.28
L459.724 7.2" style="fill:none;stroke:#000000;stroke-dasharray:1.000000,3.000000;stroke-dashoffset:0.0;stroke-linecap:butt;stroke-width:0.5;"/>
     </g>
     <g id="line2d_7">
      <defs>
       <path d="
M0 0
L0 -4" id="m852febbdde"/>
      </defs>
      <g>
       <use style="stroke:#000000;stroke-linecap:butt;stroke-width:0.5;" x="459.723724583" xlink:href="#m852febbdde" y="324.004464932"/>
      </g>
     </g>
     <g id="text_3">
      <!-- 15 -->
      <g transform="translate(446.819974583 345.501964932)scale(0.24 -0.24)">
       <use xlink:href="#BitstreamVeraSans-Roman-31"/>
       <use x="63.623046875" xlink:href="#BitstreamVeraSans-Roman-35"/>
      </g>
     </g>
    </g>
    <g id="xtick_4">
     <g id="line2d_8">
      <defs>
       <path d="
M0 0
L0 -2" id="m1c56e1fa93"/>
      </defs>
      <g>
       <use style="stroke:#000000;stroke-linecap:butt;stroke-width:0.5;" x="97.1551172646" xlink:href="#m1c56e1fa93" y="324.004464932"/>
      </g>
     </g>
    </g>
    <g id="xtick_5">
     <g id="line2d_9">
      <defs>
       <path d="
M0 0
L0 -2" id="m1c56e1fa93"/>
      </defs>
      <g>
       <use style="stroke:#000000;stroke-linecap:butt;stroke-width:0.5;" x="123.05287493" xlink:href="#m1c56e1fa93" y="324.004464932"/>
      </g>
     </g>
    </g>
    <g id="xtick_6">
     <g id="line2d_10">
      <defs>
       <path d="
M0 0
L0 -2" id="m1c56e1fa93"/>
      </defs>
      <g>
       <use style="stroke:#000000;stroke-linecap:butt;stroke-width:0.5;" x="148.950632596" xlink:href="#m1c56e1fa93" y="324.004464932"/>
      </g>
     </g>
    </g>
    <g id="xtick_7">
     <g id="line2d_11">
      <defs>
       <path d="
M0 0
L0 -2" id="m1c56e1fa93"/>
      </defs>
      <g>
       <use style="stroke:#000000;stroke-linecap:butt;stroke-width:0.5;" x="174.848390261" xlink:href="#m1c56e1fa93" y="324.004464932"/>
      </g>
     </g>
    </g>
    <g id="xtick_8">
     <g id="line2d_12">
      <defs>
       <path d="
M0 0
L0 -2" id="m1c56e1fa93"/>
      </defs>
      <g>
       <use style="stroke:#000000;stroke-linecap:butt;stroke-width:0.5;" x="226.643905593" xlink:href="#m1c56e1fa93" y="324.004464932"/>
      </g>
     </g>
    </g>
    <g id="xtick_9">
     <g id="line2d_13">
      <defs>
       <path d="
M0 0
L0 -2" id="m1c56e1fa93"/>
      </defs>
      <g>
       <use style="stroke:#000000;stroke-linecap:butt;stroke-width:0.5;" x="252.541663258" xlink:href="#m1c56e1fa93" y="324.004464932"/>
      </g>
     </g>
    </g>
    <g id="xtick_10">
     <g id="line2d_14">
      <defs>
       <path d="
M0 0
L0 -2" id="m1c56e1fa93"/>
      </defs>
      <g>
       <use style="stroke:#000000;stroke-linecap:butt;stroke-width:0.5;" x="278.439420924" xlink:href="#m1c56e1fa93" y="324.004464932"/>
      </g>
     </g>
    </g>
    <g id="xtick_11">
     <g id="line2d_15">
      <defs>
       <path d="
M0 0
L0 -2" id="m1c56e1fa93"/>
      </defs>
      <g>
       <use style="stroke:#000000;stroke-linecap:butt;stroke-width:0.5;" x="304.337178589" xlink:href="#m1c56e1fa93" y="324.004464932"/>
      </g>
     </g>
    </g>
    <g id="xtick_12">
     <g id="line2d_16">
      <defs>
       <path d="
M0 0
L0 -2" id="m1c56e1fa93"/>
      </defs>
      <g>
       <use style="stroke:#000000;stroke-linecap:butt;stroke-width:0.5;" x="356.13269392" xlink:href="#m1c56e1fa93" y="324.004464932"/>
      </g>
     </g>
    </g>
    <g id="xtick_13">
     <g id="line2d_17">
      <defs>
       <path d="
M0 0
L0 -2" id="m1c56e1fa93"/>
      </defs>
      <g>
       <use style="stroke:#000000;stroke-linecap:butt;stroke-width:0.5;" x="382.030451586" xlink:href="#m1c56e1fa93" y="324.004464932"/>
      </g>
     </g>
    </g>
    <g id="xtick_14">
     <g id="line2d_18">
      <defs>
       <path d="
M0 0
L0 -2" id="m1c56e1fa93"/>
      </defs>
      <g>
       <use style="stroke:#000000;stroke-linecap:butt;stroke-width:0.5;" x="407.928209252" xlink:href="#m1c56e1fa93" y="324.004464932"/>
      </g>
     </g>
    </g>
    <g id="xtick_15">
     <g id="line2d_19">
      <defs>
       <path d="
M0 0
L0 -2" id="m1c56e1fa93"/>
      </defs>
      <g>
       <use style="stroke:#000000;stroke-linecap:butt;stroke-width:0.5;" x="433.825966917" xlink:href="#m1c56e1fa93" y="324.004464932"/>
      </g>
     </g>
    </g>
    <g id="xtick_16">
     <g id="line2d_20">
      <defs>
       <path d="
M0 0
L0 -2" id="m1c56e1fa93"/>
      </defs>
      <g>
       <use style="stroke:#000000;stroke-linecap:butt;stroke-width:0.5;" x="485.621482248" xlink:href="#m1c56e1fa93" y="324.004464932"/>
      </g>
     </g>
    </g>
    <g id="xtick_17">
     <g id="line2d_21">
      <defs>
       <path d="
M0 0
L0 -2" id="m1c56e1fa93"/>
      </defs>
      <g>
       <use style="stroke:#000000;stroke-linecap:butt;stroke-width:0.5;" x="511.519239914" xlink:href="#m1c56e1fa93" y="324.004464932"/>
      </g>
     </g>
    </g>
   </g>
   <g id="matplotlib.axis_2">
    <g id="ytick_1">
     <g id="line2d_22">
      <path d="
M80.0262 370.888
L557.494 370.888" style="fill:none;stroke:#000000;stroke-dasharray:1.000000,3.000000;stroke-dashoffset:0.0;stroke-linecap:butt;stroke-width:0.5;"/>
     </g>
     <g id="line2d_23">
      <defs>
       <path d="
M0 0
L4 0" id="m16ff040044"/>
      </defs>
      <g>
       <use style="stroke:#000000;stroke-linecap:butt;stroke-width:0.5;" x="70.02625" xlink:href="#m16ff040044" y="370.888053823"/>
      </g>
     </g>
     <g id="text_4">
      <!-- -0.05 -->
      <defs>
       <path d="
M10.6875 12.4062
L21 12.4062
L21 0
L10.6875 0
z
" id="BitstreamVeraSans-Roman-2e"/>
       <path d="
M4.89062 31.3906
L31.2031 31.3906
L31.2031 23.3906
L4.89062 23.3906
z
" id="BitstreamVeraSans-Roman-2d"/>
      </defs>
      <g transform="translate(7.2 379.623678823)scale(0.24 -0.24)">
       <use xlink:href="#BitstreamVeraSans-Roman-2d"/>
       <use x="36.083984375" xlink:href="#BitstreamVeraSans-Roman-30"/>
       <use x="99.70703125" xlink:href="#BitstreamVeraSans-Roman-2e"/>
       <use x="131.494140625" xlink:href="#BitstreamVeraSans-Roman-30"/>
       <use x="195.1171875" xlink:href="#BitstreamVeraSans-Roman-35"/>
      </g>
     </g>
    </g>
    <g id="ytick_2">
     <g id="line2d_24">
      <path d="
M80.0262 324.004
L557.494 324.004" style="fill:none;stroke:#000000;stroke-dasharray:1.000000,3.000000;stroke-dashoffset:0.0;stroke-linecap:butt;stroke-width:0.5;"/>
     </g>
     <g id="line2d_25">
      <defs>
       <path d="
M0 0
L4 0" id="m16ff040044"/>
      </defs>
      <g>
       <use style="stroke:#000000;stroke-linecap:butt;stroke-width:0.5;" x="70.02625" xlink:href="#m16ff040044" y="324.004464932"/>
      </g>
     </g>
     <g id="text_5">
      <!-- 0 -->
      <g transform="translate(53.9325 332.740089932)scale(0.24 -0.24)">
       <use xlink:href="#BitstreamVeraSans-Roman-30"/>
      </g>
     </g>
    </g>
    <g id="ytick_3">
     <g id="line2d_26">
      <path d="
M80.0262 277.121
L557.494 277.121" style="fill:none;stroke:#000000;stroke-dasharray:1.000000,3.000000;stroke-dashoffset:0.0;stroke-linecap:butt;stroke-width:0.5;"/>
     </g>
     <g id="line2d_27">
      <defs>
       <path d="
M0 0
L4 0" id="m16ff040044"/>
      </defs>
      <g>
       <use style="stroke:#000000;stroke-linecap:butt;stroke-width:0.5;" x="70.02625" xlink:href="#m16ff040044" y="277.120876041"/>
      </g>
     </g>
     <g id="text_6">
      <!-- 0.05 -->
      <g transform="translate(16.2675 285.856501041)scale(0.24 -0.24)">
       <use xlink:href="#BitstreamVeraSans-Roman-30"/>
       <use x="63.623046875" xlink:href="#BitstreamVeraSans-Roman-2e"/>
       <use x="95.41015625" xlink:href="#BitstreamVeraSans-Roman-30"/>
       <use x="159.033203125" xlink:href="#BitstreamVeraSans-Roman-35"/>
      </g>
     </g>
    </g>
    <g id="ytick_4">
     <g id="line2d_28">
      <path d="
M80.0262 230.237
L557.494 230.237" style="fill:none;stroke:#000000;stroke-dasharray:1.000000,3.000000;stroke-dashoffset:0.0;stroke-linecap:butt;stroke-width:0.5;"/>
     </g>
     <g id="line2d_29">
      <defs>
       <path d="
M0 0
L4 0" id="m16ff040044"/>
      </defs>
      <g>
       <use style="stroke:#000000;stroke-linecap:butt;stroke-width:0.5;" x="70.02625" xlink:href="#m16ff040044" y="230.23728715"/>
      </g>
     </g>
     <g id="text_7">
      <!-- 0.1 -->
      <g transform="translate(31.6575 238.97291215)scale(0.24 -0.24)">
       <use xlink:href="#BitstreamVeraSans-Roman-30"/>
       <use x="63.623046875" xlink:href="#BitstreamVeraSans-Roman-2e"/>
       <use x="95.41015625" xlink:href="#BitstreamVeraSans-Roman-31"/>
      </g>
     </g>
    </g>
    <g id="ytick_5">
     <g id="line2d_30">
      <path d="
M80.0262 183.354
L557.494 183.354" style="fill:none;stroke:#000000;stroke-dasharray:1.000000,3.000000;stroke-dashoffset:0.0;stroke-linecap:butt;stroke-width:0.5;"/>
     </g>
     <g id="line2d_31">
      <defs>
       <path d="
M0 0
L4 0" id="m16ff040044"/>
      </defs>
      <g>
       <use style="stroke:#000000;stroke-linecap:butt;stroke-width:0.5;" x="70.02625" xlink:href="#m16ff040044" y="183.353698258"/>
      </g>
     </g>
     <g id="text_8">
      <!-- 0.15 -->
      <g transform="translate(16.2675 192.089323258)scale(0.24 -0.24)">
       <use xlink:href="#BitstreamVeraSans-Roman-30"/>
       <use x="63.623046875" xlink:href="#BitstreamVeraSans-Roman-2e"/>
       <use x="95.41015625" xlink:href="#BitstreamVeraSans-Roman-31"/>
       <use x="159.033203125" xlink:href="#BitstreamVeraSans-Roman-35"/>
      </g>
     </g>
    </g>
    <g id="ytick_6">
     <g id="line2d_32">
      <path d="
M80.0262 136.47
L557.494 136.47" style="fill:none;stroke:#000000;stroke-dasharray:1.000000,3.000000;stroke-dashoffset:0.0;stroke-linecap:butt;stroke-width:0.5;"/>
     </g>
     <g id="line2d_33">
      <defs>
       <path d="
M0 0
L4 0" id="m16ff040044"/>
      </defs>
      <g>
       <use style="stroke:#000000;stroke-linecap:butt;stroke-width:0.5;" x="70.02625" xlink:href="#m16ff040044" y="136.470109367"/>
      </g>
     </g>
     <g id="text_9">
      <!-- 0.2 -->
      <defs>
       <path d="
M19.1875 8.29688
L53.6094 8.29688
L53.6094 0
L7.32812 0
L7.32812 8.29688
Q12.9375 14.1094 22.625 23.8906
Q32.3281 33.6875 34.8125 36.5312
Q39.5469 41.8438 41.4219 45.5312
Q43.3125 49.2188 43.3125 52.7812
Q43.3125 58.5938 39.2344 62.25
Q35.1562 65.9219 28.6094 65.9219
Q23.9688 65.9219 18.8125 64.3125
Q13.6719 62.7031 7.8125 59.4219
L7.8125 69.3906
Q13.7656 71.7812 18.9375 73
Q24.125 74.2188 28.4219 74.2188
Q39.75 74.2188 46.4844 68.5469
Q53.2188 62.8906 53.2188 53.4219
Q53.2188 48.9219 51.5312 44.8906
Q49.8594 40.875 45.4062 35.4062
Q44.1875 33.9844 37.6406 27.2188
Q31.1094 20.4531 19.1875 8.29688" id="BitstreamVeraSans-Roman-32"/>
      </defs>
      <g transform="translate(31.845 145.205734367)scale(0.24 -0.24)">
       <use xlink:href="#BitstreamVeraSans-Roman-30"/>
       <use x="63.623046875" xlink:href="#BitstreamVeraSans-Roman-2e"/>
       <use x="95.41015625" xlink:href="#BitstreamVeraSans-Roman-32"/>
      </g>
     </g>
    </g>
    <g id="ytick_7">
     <g id="line2d_34">
      <path d="
M80.0262 89.5865
L557.494 89.5865" style="fill:none;stroke:#000000;stroke-dasharray:1.000000,3.000000;stroke-dashoffset:0.0;stroke-linecap:butt;stroke-width:0.5;"/>
     </g>
     <g id="line2d_35">
      <defs>
       <path d="
M0 0
L4 0" id="m16ff040044"/>
      </defs>
      <g>
       <use style="stroke:#000000;stroke-linecap:butt;stroke-width:0.5;" x="70.02625" xlink:href="#m16ff040044" y="89.5865204762"/>
      </g>
     </g>
     <g id="text_10">
      <!-- 0.25 -->
      <g transform="translate(16.2675 98.3221454762)scale(0.24 -0.24)">
       <use xlink:href="#BitstreamVeraSans-Roman-30"/>
       <use x="63.623046875" xlink:href="#BitstreamVeraSans-Roman-2e"/>
       <use x="95.41015625" xlink:href="#BitstreamVeraSans-Roman-32"/>
       <use x="159.033203125" xlink:href="#BitstreamVeraSans-Roman-35"/>
      </g>
     </g>
    </g>
    <g id="ytick_8">
     <g id="line2d_36">
      <path d="
M80.0262 42.7029
L557.494 42.7029" style="fill:none;stroke:#000000;stroke-dasharray:1.000000,3.000000;stroke-dashoffset:0.0;stroke-linecap:butt;stroke-width:0.5;"/>
     </g>
     <g id="line2d_37">
      <defs>
       <path d="
M0 0
L4 0" id="m16ff040044"/>
      </defs>
      <g>
       <use style="stroke:#000000;stroke-linecap:butt;stroke-width:0.5;" x="70.02625" xlink:href="#m16ff040044" y="42.7029315851"/>
      </g>
     </g>
     <g id="text_11">
      <!-- 0.3 -->
      <defs>
       <path d="
M40.5781 39.3125
Q47.6562 37.7969 51.625 33
Q55.6094 28.2188 55.6094 21.1875
Q55.6094 10.4062 48.1875 4.48438
Q40.7656 -1.42188 27.0938 -1.42188
Q22.5156 -1.42188 17.6562 -0.515625
Q12.7969 0.390625 7.625 2.20312
L7.625 11.7188
Q11.7188 9.32812 16.5938 8.10938
Q21.4844 6.89062 26.8125 6.89062
Q36.0781 6.89062 40.9375 10.5469
Q45.7969 14.2031 45.7969 21.1875
Q45.7969 27.6406 41.2812 31.2656
Q36.7656 34.9062 28.7188 34.9062
L20.2188 34.9062
L20.2188 43.0156
L29.1094 43.0156
Q36.375 43.0156 40.2344 45.9219
Q44.0938 48.8281 44.0938 54.2969
Q44.0938 59.9062 40.1094 62.9062
Q36.1406 65.9219 28.7188 65.9219
Q24.6562 65.9219 20.0156 65.0312
Q15.375 64.1562 9.8125 62.3125
L9.8125 71.0938
Q15.4375 72.6562 20.3438 73.4375
Q25.25 74.2188 29.5938 74.2188
Q40.8281 74.2188 47.3594 69.1094
Q53.9062 64.0156 53.9062 55.3281
Q53.9062 49.2656 50.4375 45.0938
Q46.9688 40.9219 40.5781 39.3125" id="BitstreamVeraSans-Roman-33"/>
      </defs>
      <g transform="translate(31.365 51.4385565851)scale(0.24 -0.24)">
       <use xlink:href="#BitstreamVeraSans-Roman-30"/>
       <use x="63.623046875" xlink:href="#BitstreamVeraSans-Roman-2e"/>
       <use x="95.41015625" xlink:href="#BitstreamVeraSans-Roman-33"/>
      </g>
     </g>
    </g>
    <g id="ytick_9">
     <g id="line2d_38">
      <defs>
       <path d="
M0 0
L2 0" id="m30302be835"/>
      </defs>
      <g>
       <use style="stroke:#000000;stroke-linecap:butt;stroke-width:0.5;" x="70.02625" xlink:href="#m30302be835" y="408.394924936"/>
      </g>
     </g>
    </g>
    <g id="ytick_10">
     <g id="line2d_39">
      <defs>
       <path d="
M0 0
L2 0" id="m30302be835"/>
      </defs>
      <g>
       <use style="stroke:#000000;stroke-linecap:butt;stroke-width:0.5;" x="70.02625" xlink:href="#m30302be835" y="399.018207158"/>
      </g>
     </g>
    </g>
    <g id="ytick_11">
     <g id="line2d_40">
      <defs>
       <path d="
M0 0
L2 0" id="m30302be835"/>
      </defs>
      <g>
       <use style="stroke:#000000;stroke-linecap:butt;stroke-width:0.5;" x="70.02625" xlink:href="#m30302be835" y="389.641489379"/>
      </g>
     </g>
    </g>
    <g id="ytick_12">
     <g id="line2d_41">
      <defs>
       <path d="
M0 0
L2 0" id="m30302be835"/>
      </defs>
      <g>
       <use style="stroke:#000000;stroke-linecap:butt;stroke-width:0.5;" x="70.02625" xlink:href="#m30302be835" y="380.264771601"/>
      </g>
     </g>
    </g>
    <g id="ytick_13">
     <g id="line2d_42">
      <defs>
       <path d="
M0 0
L2 0" id="m30302be835"/>
      </defs>
      <g>
       <use style="stroke:#000000;stroke-linecap:butt;stroke-width:0.5;" x="70.02625" xlink:href="#m30302be835" y="361.511336045"/>
      </g>
     </g>
    </g>
    <g id="ytick_14">
     <g id="line2d_43">
      <defs>
       <path d="
M0 0
L2 0" id="m30302be835"/>
      </defs>
      <g>
       <use style="stroke:#000000;stroke-linecap:butt;stroke-width:0.5;" x="70.02625" xlink:href="#m30302be835" y="352.134618267"/>
      </g>
     </g>
    </g>
    <g id="ytick_15">
     <g id="line2d_44">
      <defs>
       <path d="
M0 0
L2 0" id="m30302be835"/>
      </defs>
      <g>
       <use style="stroke:#000000;stroke-linecap:butt;stroke-width:0.5;" x="70.02625" xlink:href="#m30302be835" y="342.757900488"/>
      </g>
     </g>
    </g>
    <g id="ytick_16">
     <g id="line2d_45">
      <defs>
       <path d="
M0 0
L2 0" id="m30302be835"/>
      </defs>
      <g>
       <use style="stroke:#000000;stroke-linecap:butt;stroke-width:0.5;" x="70.02625" xlink:href="#m30302be835" y="333.38118271"/>
      </g>
     </g>
    </g>
    <g id="ytick_17">
     <g id="line2d_46">
      <defs>
       <path d="
M0 0
L2 0" id="m30302be835"/>
      </defs>
      <g>
       <use style="stroke:#000000;stroke-linecap:butt;stroke-width:0.5;" x="70.02625" xlink:href="#m30302be835" y="324.004464932"/>
      </g>
     </g>
    </g>
    <g id="ytick_18">
     <g id="line2d_47">
      <defs>
       <path d="
M0 0
L2 0" id="m30302be835"/>
      </defs>
      <g>
       <use style="stroke:#000000;stroke-linecap:butt;stroke-width:0.5;" x="70.02625" xlink:href="#m30302be835" y="314.627747154"/>
      </g>
     </g>
    </g>
    <g id="ytick_19">
     <g id="line2d_48">
      <defs>
       <path d="
M0 0
L2 0" id="m30302be835"/>
      </defs>
      <g>
       <use style="stroke:#000000;stroke-linecap:butt;stroke-width:0.5;" x="70.02625" xlink:href="#m30302be835" y="305.251029375"/>
      </g>
     </g>
    </g>
    <g id="ytick_20">
     <g id="line2d_49">
      <defs>
       <path d="
M0 0
L2 0" id="m30302be835"/>
      </defs>
      <g>
       <use style="stroke:#000000;stroke-linecap:butt;stroke-width:0.5;" x="70.02625" xlink:href="#m30302be835" y="295.874311597"/>
      </g>
     </g>
    </g>
    <g id="ytick_21">
     <g id="line2d_50">
      <defs>
       <path d="
M0 0
L2 0" id="m30302be835"/>
      </defs>
      <g>
       <use style="stroke:#000000;stroke-linecap:butt;stroke-width:0.5;" x="70.02625" xlink:href="#m30302be835" y="286.497593819"/>
      </g>
     </g>
    </g>
    <g id="ytick_22">
     <g id="line2d_51">
      <defs>
       <path d="
M0 0
L2 0" id="m30302be835"/>
      </defs>
      <g>
       <use style="stroke:#000000;stroke-linecap:butt;stroke-width:0.5;" x="70.02625" xlink:href="#m30302be835" y="267.744158263"/>
      </g>
     </g>
    </g>
    <g id="ytick_23">
     <g id="line2d_52">
      <defs>
       <path d="
M0 0
L2 0" id="m30302be835"/>
      </defs>
      <g>
       <use style="stroke:#000000;stroke-linecap:butt;stroke-width:0.5;" x="70.02625" xlink:href="#m30302be835" y="258.367440484"/>
      </g>
     </g>
    </g>
    <g id="ytick_24">
     <g id="line2d_53">
      <defs>
       <path d="
M0 0
L2 0" id="m30302be835"/>
      </defs>
      <g>
       <use style="stroke:#000000;stroke-linecap:butt;stroke-width:0.5;" x="70.02625" xlink:href="#m30302be835" y="248.990722706"/>
      </g>
     </g>
    </g>
    <g id="ytick_25">
     <g id="line2d_54">
      <defs>
       <path d="
M0 0
L2 0" id="m30302be835"/>
      </defs>
      <g>
       <use style="stroke:#000000;stroke-linecap:butt;stroke-width:0.5;" x="70.02625" xlink:href="#m30302be835" y="239.614004928"/>
      </g>
     </g>
    </g>
    <g id="ytick_26">
     <g id="line2d_55">
      <defs>
       <path d="
M0 0
L2 0" id="m30302be835"/>
      </defs>
      <g>
       <use style="stroke:#000000;stroke-linecap:butt;stroke-width:0.5;" x="70.02625" xlink:href="#m30302be835" y="220.860569371"/>
      </g>
     </g>
    </g>
    <g id="ytick_27">
     <g id="line2d_56">
      <defs>
       <path d="
M0 0
L2 0" id="m30302be835"/>
      </defs>
      <g>
       <use style="stroke:#000000;stroke-linecap:butt;stroke-width:0.5;" x="70.02625" xlink:href="#m30302be835" y="211.483851593"/>
      </g>
     </g>
    </g>
    <g id="ytick_28">
     <g id="line2d_57">
      <defs>
       <path d="
M0 0
L2 0" id="m30302be835"/>
      </defs>
      <g>
       <use style="stroke:#000000;stroke-linecap:butt;stroke-width:0.5;" x="70.02625" xlink:href="#m30302be835" y="202.107133815"/>
      </g>
     </g>
    </g>
    <g id="ytick_29">
     <g id="line2d_58">
      <defs>
       <path d="
M0 0
L2 0" id="m30302be835"/>
      </defs>
      <g>
       <use style="stroke:#000000;stroke-linecap:butt;stroke-width:0.5;" x="70.02625" xlink:href="#m30302be835" y="192.730416037"/>
      </g>
     </g>
    </g>
    <g id="ytick_30">
     <g id="line2d_59">
      <defs>
       <path d="
M0 0
L2 0" id="m30302be835"/>
      </defs>
      <g>
       <use style="stroke:#000000;stroke-linecap:butt;stroke-width:0.5;" x="70.02625" xlink:href="#m30302be835" y="183.353698258"/>
      </g>
     </g>
    </g>
    <g id="ytick_31">
     <g id="line2d_60">
      <defs>
       <path d="
M0 0
L2 0" id="m30302be835"/>
      </defs>
      <g>
       <use style="stroke:#000000;stroke-linecap:butt;stroke-width:0.5;" x="70.02625" xlink:href="#m30302be835" y="173.97698048"/>
      </g>
     </g>
    </g>
    <g id="ytick_32">
     <g id="line2d_61">
      <defs>
       <path d="
M0 0
L2 0" id="m30302be835"/>
      </defs>
      <g>
       <use style="stroke:#000000;stroke-linecap:butt;stroke-width:0.5;" x="70.02625" xlink:href="#m30302be835" y="164.600262702"/>
      </g>
     </g>
    </g>
    <g id="ytick_33">
     <g id="line2d_62">
      <defs>
       <path d="
M0 0
L2 0" id="m30302be835"/>
      </defs>
      <g>
       <use style="stroke:#000000;stroke-linecap:butt;stroke-width:0.5;" x="70.02625" xlink:href="#m30302be835" y="155.223544924"/>
      </g>
     </g>
    </g>
    <g id="ytick_34">
     <g id="line2d_63">
      <defs>
       <path d="
M0 0
L2 0" id="m30302be835"/>
      </defs>
      <g>
       <use style="stroke:#000000;stroke-linecap:butt;stroke-width:0.5;" x="70.02625" xlink:href="#m30302be835" y="145.846827146"/>
      </g>
     </g>
    </g>
    <g id="ytick_35">
     <g id="line2d_64">
      <defs>
       <path d="
M0 0
L2 0" id="m30302be835"/>
      </defs>
      <g>
       <use style="stroke:#000000;stroke-linecap:butt;stroke-width:0.5;" x="70.02625" xlink:href="#m30302be835" y="136.470109367"/>
      </g>
     </g>
    </g>
    <g id="ytick_36">
     <g id="line2d_65">
      <defs>
       <path d="
M0 0
L2 0" id="m30302be835"/>
      </defs>
      <g>
       <use style="stroke:#000000;stroke-linecap:butt;stroke-width:0.5;" x="70.02625" xlink:href="#m30302be835" y="127.093391589"/>
      </g>
     </g>
    </g>
    <g id="ytick_37">
     <g id="line2d_66">
      <defs>
       <path d="
M0 0
L2 0" id="m30302be835"/>
      </defs>
      <g>
       <use style="stroke:#000000;stroke-linecap:butt;stroke-width:0.5;" x="70.02625" xlink:href="#m30302be835" y="117.716673811"/>
      </g>
     </g>
    </g>
    <g id="ytick_38">
     <g id="line2d_67">
      <defs>
       <path d="
M0 0
L2 0" id="m30302be835"/>
      </defs>
      <g>
       <use style="stroke:#000000;stroke-linecap:butt;stroke-width:0.5;" x="70.02625" xlink:href="#m30302be835" y="108.339956033"/>
      </g>
     </g>
    </g>
    <g id="ytick_39">
     <g id="line2d_68">
      <defs>
       <path d="
M0 0
L2 0" id="m30302be835"/>
      </defs>
      <g>
       <use style="stroke:#000000;stroke-linecap:butt;stroke-width:0.5;" x="70.02625" xlink:href="#m30302be835" y="98.9632382545"/>
      </g>
     </g>
    </g>
    <g id="ytick_40">
     <g id="line2d_69">
      <defs>
       <path d="
M0 0
L2 0" id="m30302be835"/>
      </defs>
      <g>
       <use style="stroke:#000000;stroke-linecap:butt;stroke-width:0.5;" x="70.02625" xlink:href="#m30302be835" y="89.5865204762"/>
      </g>
     </g>
    </g>
    <g id="ytick_41">
     <g id="line2d_70">
      <defs>
       <path d="
M0 0
L2 0" id="m30302be835"/>
      </defs>
      <g>
       <use style="stroke:#000000;stroke-linecap:butt;stroke-width:0.5;" x="70.02625" xlink:href="#m30302be835" y="80.209802698"/>
      </g>
     </g>
    </g>
    <g id="ytick_42">
     <g id="line2d_71">
      <defs>
       <path d="
M0 0
L2 0" id="m30302be835"/>
      </defs>
      <g>
       <use style="stroke:#000000;stroke-linecap:butt;stroke-width:0.5;" x="70.02625" xlink:href="#m30302be835" y="70.8330849198"/>
      </g>
     </g>
    </g>
    <g id="ytick_43">
     <g id="line2d_72">
      <defs>
       <path d="
M0 0
L2 0" id="m30302be835"/>
      </defs>
      <g>
       <use style="stroke:#000000;stroke-linecap:butt;stroke-width:0.5;" x="70.02625" xlink:href="#m30302be835" y="61.4563671415"/>
      </g>
     </g>
    </g>
    <g id="ytick_44">
     <g id="line2d_73">
      <defs>
       <path d="
M0 0
L2 0" id="m30302be835"/>
      </defs>
      <g>
       <use style="stroke:#000000;stroke-linecap:butt;stroke-width:0.5;" x="70.02625" xlink:href="#m30302be835" y="52.0796493633"/>
      </g>
     </g>
    </g>
    <g id="ytick_45">
     <g id="line2d_74">
      <defs>
       <path d="
M0 0
L2 0" id="m30302be835"/>
      </defs>
      <g>
       <use style="stroke:#000000;stroke-linecap:butt;stroke-width:0.5;" x="70.02625" xlink:href="#m30302be835" y="33.3262138069"/>
      </g>
     </g>
    </g>
    <g id="ytick_46">
     <g id="line2d_75">
      <defs>
       <path d="
M0 0
L2 0" id="m30302be835"/>
      </defs>
      <g>
       <use style="stroke:#000000;stroke-linecap:butt;stroke-width:0.5;" x="70.02625" xlink:href="#m30302be835" y="23.9494960286"/>
      </g>
     </g>
    </g>
   </g>
   <g id="patch_3">
    <path d="
M80.0262 324.004
L557.494 324.004" style="fill:none;stroke:#000000;stroke-width:0.8;"/>
   </g>
   <g id="patch_4">
    <path d="
M70.0262 413.28
L70.0262 7.2" style="fill:none;stroke:#000000;stroke-width:0.8;"/>
   </g>
  </g>
 </g>
 <defs>
  <clipPath id="p06ebe62315">
   <rect height="406.08" width="477.4675" x="80.02625" y="7.2"/>
  </clipPath>
 </defs>
</svg>
