<?xml version="1.0" encoding="utf-8" standalone="no"?>
<!DOCTYPE svg PUBLIC "-//W3C//DTD SVG 1.1//EN"
  "http://www.w3.org/Graphics/SVG/1.1/DTD/svg11.dtd">
<!-- Created with matplotlib (http://matplotlib.sourceforge.net/) -->
<svg height="419pt" version="1.1" viewBox="0 0 562 419" width="562pt" xmlns="http://www.w3.org/2000/svg" xmlns:xlink="http://www.w3.org/1999/xlink">
 <defs>
  <style type="text/css">
*{stroke-linecap:square;stroke-linejoin:round;}
  </style>
 </defs>
 <g id="figure_1">
  <g id="patch_1">
   <path d="
M-2.22045e-16 419.769
L562.749 419.769
L562.749 0
L-2.22045e-16 0
z
" style="fill:#ffffff;"/>
  </g>
  <g id="axes_1">
   <g id="patch_2">
    <path d="
M21.6658 408.726
L555.549 408.726
L555.549 7.2
L21.6658 7.2
z
" style="fill:#ffffff;"/>
   </g>
   <g id="line2d_1">
    <path clip-path="url(#pc828fae536)" d="
M31.9328 401.004
L31.9807 401.004
L32.0375 53.4615
L32.0983 53.4615
L32.1601 51.8425
L32.2245 51.8425
L32.2908 56.6309
L32.3563 56.6309
L32.4237 64.6818
L32.4926 64.6818
L32.5616 68.6377
L32.6315 68.6377
L32.7015 67.8057
L32.7725 67.8057
L32.8445 65.6114
L32.9158 65.6114
L32.9881 65.0087
L33.0606 65.0087
L33.1335 63.5978
L33.2067 63.5978
L33.2812 61.9679
L33.3541 61.9679
L33.429 60.3009
L33.5044 60.3009
L33.578 59.5242
L33.6529 59.5242
L33.7284 58.863
L33.8043 58.863
L33.8811 57.8386
L33.9562 57.8386
L34.0345 56.3317
L34.1103 56.3317
L34.1865 55.0323
L34.264 55.0323
L34.3419 53.6154
L34.4179 53.6154
L34.4954 52.0123
L34.5734 52.0123
L34.6503 50.6425
L34.7295 50.6425
L34.8082 49.3854
L34.8868 49.3854
L34.9638 48.0367
L35.0429 48.0367
L35.1209 46.8922
L35.2011 46.8922
L35.2819 46.1003
L35.3606 46.1003
L35.4405 45.4249
L35.519 45.4249
L35.598 44.6623
L35.6782 44.6623
L35.7595 44.1503
L35.8397 44.1503
L35.9193 43.6096
L35.9991 43.6096
L36.079 42.9696
L36.1592 42.9696
L36.2398 42.4578
L36.3218 42.4578
L36.4008 42.1558
L36.5637 42.0648
L36.6448 41.9011
L36.7259 41.9011
L36.8082 41.6483
L36.8895 41.6483
L36.9723 41.3985
L37.135 41.2898
L37.2165 41.0748
L37.2988 41.0748
L37.383 40.7443
L37.4654 40.7443
L37.547 40.3275
L37.6277 40.3275
L37.7105 39.8984
L37.7924 39.8984
L37.8756 39.4928
L37.9571 39.4928
L38.0375 39.164
L38.1219 39.164
L38.2045 38.8183
L38.2898 38.8183
L38.3728 38.4581
L38.4541 38.4581
L38.5376 38.1895
L38.7047 38.0788
L38.7892 37.7865
L38.8729 37.7865
L38.9565 37.4561
L39.0397 37.4561
L39.1208 37.1861
L39.2079 37.1861
L39.2908 36.8867
L39.3745 36.8867
L39.4568 36.6165
L39.5414 36.6165
L39.6249 36.2716
L39.7074 36.2716
L39.7932 35.9437
L39.8789 35.9437
L39.963 35.583
L40.0478 35.583
L40.134 35.2924
L40.3019 35.1929
L40.387 35.0348
L40.6414 34.94
L40.7258 34.9066
L41.0679 34.7997
L41.1525 34.7392
L41.748 34.6307
L41.8321 34.5635
L42.1775 34.4801
L42.2615 34.4408
L42.7781 34.3431
L42.7781 34.3211
L42.864 34.3237
L43.64 34.2367
L43.7288 34.1659
L44.0771 34.0835
L44.1644 34.0057
L44.5134 33.9045
L44.5994 33.8088
L44.9475 33.7006
L45.0369 33.6289
L45.4719 33.5251
L45.5585 33.4745
L45.9978 33.3753
L46.0855 33.3131
L46.5202 33.2233
L46.6085 33.1725
L46.8743 33.0779
L46.963 32.9748
L47.2289 32.8801
L47.3165 32.7801
L47.4934 32.723
L47.5824 32.5876
L47.7588 32.5074
L47.8473 32.3584
L48.0229 32.2854
L48.1127 32.1673
L48.2885 32.0965
L48.3739 31.9672
L48.5494 31.8988
L48.6394 31.7627
L48.8164 31.6879
L48.9065 31.5332
L49.0841 31.461
L49.1749 31.3173
L49.3523 31.2537
L49.4399 31.1311
L49.7056 31.021
L49.7973 30.9346
L50.0692 30.8612
L50.1604 30.794
L50.514 30.7102
L50.602 30.653
L50.8713 30.5748
L50.9595 30.4927
L51.3189 30.3859
L51.4086 30.3455
L51.8564 30.2651
L51.9444 30.1969
L52.3054 30.0903
L52.3958 30.0102
L52.6647 29.9164
L52.7536 29.8199
L53.023 29.7264
L53.115 29.6589
L53.4746 29.5539
L53.5642 29.4809
L53.8363 29.3968
L53.9282 29.2997
L54.2002 29.2108
L54.2923 29.1123
L54.5658 29.0146
L54.6535 28.926
L54.9213 28.8384
L55.0107 28.7451
L55.2865 28.6414
L55.3758 28.5488
L55.647 28.4555
L55.7388 28.3476
L56.0103 28.2375
L56.102 28.139
L56.4665 28.0394
L56.5588 27.9858
L57.0995 27.8815
L57.1926 27.843
L57.8284 27.7435
L57.9209 27.7212
L59.0165 27.6109
L59.1093 27.6016
L59.9336 27.4923
L60.0258 27.4703
L60.6724 27.3635
L60.7648 27.3392
L63.0704 27.2396
L63.1633 27.2046
L64.7375 27.1088
L64.83 27.0763
L65.4806 26.973
L65.5734 26.947
L66.4076 26.8394
L66.5 26.8042
L66.9657 26.718
L67.0593 26.6671
L67.6131 26.5582
L67.7048 26.5143
L68.3563 26.4081
L68.448 26.3796
L70.979 26.4805
L71.0741 26.5163
L71.7308 26.6206
L71.8258 26.6524
L72.4794 26.7542
L72.5739 26.7842
L74.0816 26.8928
L74.1751 26.9032
L77.5719 27.012
L77.6674 27.0191
L79.5618 27.126
L79.6574 27.1364
L81.4624 27.2465
L81.5573 27.2607
L82.6078 27.37
L82.7036 27.3783
L84.7108 27.489
L84.8065 27.5053
L85.9505 27.6095
L86.0468 27.6291
L87.1907 27.732
L87.2879 27.7496
L88.631 27.8542
L88.7249 27.8755
L89.6837 27.9746
L89.7797 28.0046
L90.5525 28.1145
L90.6497 28.1488
L91.4139 28.2568
L91.5107 28.28
L92.9535 28.3852
L93.0501 28.3985
L94.5955 28.5061
L94.6903 28.5245
L95.8438 28.6309
L95.9412 28.6518
L97.0086 28.755
L97.1044 28.7765
L98.165 28.88
L98.2629 28.8964
L100.793 29.0065
L100.89 29.0139
L102.832 29.1196
L102.929 29.132
L106.043 29.2426
L106.14 29.2457
L110.152 29.135
L110.248 29.1332
L113.477 29.0274
L113.575 29.016
L115.84 28.9077
L115.938 28.9014
L133.62 29.0093
L133.72 29.0167
L138.695 29.1278
L138.796 29.1341
L150.998 29.0246
L151.1 29.0167
L154.011 28.908
L154.112 28.9011
L156.522 28.7921
L156.62 28.7837
L159.233 28.6734
L159.334 28.6644
L161.966 28.5568
L162.068 28.5485
L165.089 28.4403
L165.193 28.4329
L168.121 28.3222
L168.22 28.3148
L170.852 28.2074
L170.95 28.1978
L173.485 28.0888
L173.583 28.0798
L176.018 27.9694
L176.118 27.9603
L179.567 27.8513
L179.671 27.8443
L182.419 27.7359
L182.52 27.7294
L185.67 27.6207
L185.773 27.6139
L188.923 27.5059
L189.021 27.4992
L193.109 27.3889
L193.211 27.3841
L199.752 27.2742
L199.855 27.2713
L208.378 27.1606
L208.48 27.1574
L222.573 27.0465
L222.675 27.0421
L228.865 26.9319
L228.967 26.9276
L235.357 26.8168
L235.46 26.8108
L240.855 26.7013
L240.958 26.6972
L247.079 26.5878
L247.187 26.583
L252.282 26.4722
L252.384 26.467
L256.551 26.3573
L256.653 26.3501
L259.568 26.2401
L259.672 26.2317
L262.378 26.1239
L262.482 26.116
L265.284 26.0051
L265.384 25.9966
L268.308 25.8856
L268.409 25.876
L270.709 25.7683
L270.816 25.7586
L273.531 25.6508
L273.639 25.6414
L276.039 25.5347
L276.144 25.5248
L278.453 25.4186
L278.557 25.4086
L280.761 25.3013
L280.865 25.2899
L282.857 25.1838
L282.961 25.1718
L284.951 25.0617
L285.058 25.0504
L287.036 24.945
L287.143 24.9331
L289.135 24.8269
L289.238 24.8163
L291.334 24.7095
L291.441 24.6979
L293.431 24.5914
L293.539 24.5795
L295.741 24.4687
L295.847 24.4581
L297.947 24.352
L298.049 24.341
L300.368 24.2301
L300.474 24.2198
L302.787 24.1127
L302.889 24.1018
L304.991 23.9907
L305.099 23.9787
L307.104 23.8723
L307.213 23.8605
L309.208 23.7523
L309.316 23.7404
L311.429 23.631
L311.536 23.62
L313.755 23.5127
L313.86 23.502
L316.385 23.3914
L316.489 23.3824
L319.337 23.2715
L319.441 23.2649
L322.606 23.1576
L322.713 23.1498
L325.767 23.0405
L325.87 23.0318
L328.409 22.9248
L328.516 22.9158
L331.27 22.8071
L331.375 22.7979
L334.22 22.688
L334.325 22.6804
L337.409 22.5702
L337.513 22.5626
L340.479 22.4541
L340.588 22.4458
L343.655 22.3385
L343.761 22.3309
L346.948 22.2231
L347.052 22.2162
L350.451 22.1052
L350.558 22.0976
L353.746 21.988
L353.852 21.98
L356.715 21.8704
L356.822 21.8622
L360.212 21.7512
L360.318 21.7441
L363.621 21.6347
L363.729 21.6271
L366.932 21.5185
L367.036 21.5105
L369.91 21.4021
L370.015 21.3934
L372.766 21.2853
L372.873 21.277
L375.646 21.1686
L375.754 21.1597
L378.41 21.0506
L378.516 21.042
L381.395 20.9329
L381.5 20.9243
L384.601 20.8141
L384.706 20.8068
L387.919 20.6992
L388.024 20.6918
L391.33 20.5825
L391.436 20.5753
L394.528 20.4664
L394.528 20.4619
L397.315 20.3515
L397.425 20.3419
L399.981 20.2343
L399.981 20.23
L403.079 20.1204
L403.186 20.1131
L406.614 20.0037
L406.719 19.997
L409.828 19.8868
L409.937 19.8784
L412.941 19.7675
L413.051 19.7594
L416.055 19.6517
L416.161 19.6431
L418.946 19.5339
L419.049 19.5252
L421.942 19.4149
L422.046 19.4076
L425.173 19.2977
L425.28 19.29
L428.612 19.1795
L428.718 19.1722
L432.266 19.0619
L432.374 19.0553
L435.716 18.9452
L435.821 18.9378
L438.725 18.8309
L438.834 18.8219
L441.525 18.7145
L441.634 18.7058
L444.433 18.5973
L444.544 18.5878
L447.335 18.4774
L447.443 18.4684
L450.119 18.3601
L450.227 18.351
L452.924 18.2401
L453.029 18.2314
L455.733 18.123
L455.84 18.1146
L458.748 18.0066
L458.856 17.9984
L461.883 17.8879
L461.99 17.8799
L465.013 17.7691
L465.12 17.7607
L468.043 17.6513
L468.148 17.6431
L470.74 17.5357
L470.85 17.5259
L473.226 17.4197
L473.334 17.4096
L475.821 17.3017
L475.929 17.292
L478.417 17.184
L478.525 17.1737
L481.128 17.0661
L481.231 17.0572
L483.828 16.9502
L483.934 16.9409
L486.753 16.8322
L486.858 16.8237
L489.88 16.7127
L489.988 16.7048
L493.15 16.597
L493.255 16.5893
L496.385 16.4789
L496.493 16.4714
L499.64 16.3616
L499.749 16.3533
L502.776 16.2427
L502.881 16.235
L506.041 16.1254
L506.149 16.1174
L509.181 16.0088
L509.292 16.0003
L512.448 15.8904
L512.554 15.8832
L515.919 15.7754
L516.026 15.7681
L519.49 15.6575
L519.598 15.6502
L523.078 15.5396
L523.185 15.5326
L526.885 15.4225
L526.993 15.4156
L530.689 15.3052
L530.799 15.2989
L534.811 15.1897
L534.921 15.1837
L539.288 15.0743
L539.394 15.0692
L543.866 14.9603
L543.976 14.955
L545.282 14.9245
L545.282 14.9217" style="fill:none;stroke:#ff0000;stroke-width:0.5;"/>
   </g>
   <g id="matplotlib.axis_1">
    <g id="xtick_1">
     <g id="line2d_2">
      <defs>
       <path d="
M0 0
L0 -4" id="me2ec79df32"/>
      </defs>
      <g>
       <use style="stroke:#000000;stroke-linecap:butt;stroke-width:0.5;" x="31.9328125" xlink:href="#me2ec79df32" y="401.004497041"/>
      </g>
     </g>
    </g>
    <g id="xtick_2">
     <g id="line2d_3">
      <defs>
       <path d="
M0 0
L0 -4" id="me2ec79df32"/>
      </defs>
      <g>
       <use style="stroke:#000000;stroke-linecap:butt;stroke-width:0.5;" x="134.608537936" xlink:href="#me2ec79df32" y="401.004497041"/>
      </g>
     </g>
     <g id="text_1">
      <!-- 2e7 -->
      <defs>
       <path d="
M19.1875 8.29688
L53.6094 8.29688
L53.6094 0
L7.32812 0
L7.32812 8.29688
Q12.9375 14.1094 22.625 23.8906
Q32.3281 33.6875 34.8125 36.5312
Q39.5469 41.8438 41.4219 45.5312
Q43.3125 49.2188 43.3125 52.7812
Q43.3125 58.5938 39.2344 62.25
Q35.1562 65.9219 28.6094 65.9219
Q23.9688 65.9219 18.8125 64.3125
Q13.6719 62.7031 7.8125 59.4219
L7.8125 69.3906
Q13.7656 71.7812 18.9375 73
Q24.125 74.2188 28.4219 74.2188
Q39.75 74.2188 46.4844 68.5469
Q53.2188 62.8906 53.2188 53.4219
Q53.2188 48.9219 51.5312 44.8906
Q49.8594 40.875 45.4062 35.4062
Q44.1875 33.9844 37.6406 27.2188
Q31.1094 20.4531 19.1875 8.29688" id="BitstreamVeraSans-Roman-32"/>
       <path d="
M56.2031 29.5938
L56.2031 25.2031
L14.8906 25.2031
Q15.4844 15.9219 20.4844 11.0625
Q25.4844 6.20312 34.4219 6.20312
Q39.5938 6.20312 44.4531 7.46875
Q49.3125 8.73438 54.1094 11.2812
L54.1094 2.78125
Q49.2656 0.734375 44.1875 -0.34375
Q39.1094 -1.42188 33.8906 -1.42188
Q20.7969 -1.42188 13.1562 6.1875
Q5.51562 13.8125 5.51562 26.8125
Q5.51562 40.2344 12.7656 48.1094
Q20.0156 56 32.3281 56
Q43.3594 56 49.7812 48.8906
Q56.2031 41.7969 56.2031 29.5938
M47.2188 32.2344
Q47.125 39.5938 43.0938 43.9844
Q39.0625 48.3906 32.4219 48.3906
Q24.9062 48.3906 20.3906 44.1406
Q15.875 39.8906 15.1875 32.1719
z
" id="BitstreamVeraSans-Roman-65"/>
       <path d="
M8.20312 72.9062
L55.0781 72.9062
L55.0781 68.7031
L28.6094 0
L18.3125 0
L43.2188 64.5938
L8.20312 64.5938
z
" id="BitstreamVeraSans-Roman-37"/>
      </defs>
      <g transform="translate(125.963225436 412.426372041)scale(0.1 -0.1)">
       <use xlink:href="#BitstreamVeraSans-Roman-32"/>
       <use x="63.623046875" xlink:href="#BitstreamVeraSans-Roman-65"/>
       <use x="125.146484375" xlink:href="#BitstreamVeraSans-Roman-37"/>
      </g>
     </g>
    </g>
    <g id="xtick_3">
     <g id="line2d_4">
      <defs>
       <path d="
M0 0
L0 -4" id="me2ec79df32"/>
      </defs>
      <g>
       <use style="stroke:#000000;stroke-linecap:butt;stroke-width:0.5;" x="237.284263372" xlink:href="#me2ec79df32" y="401.004497041"/>
      </g>
     </g>
     <g id="text_2">
      <!-- 4e7 -->
      <defs>
       <path d="
M37.7969 64.3125
L12.8906 25.3906
L37.7969 25.3906
z

M35.2031 72.9062
L47.6094 72.9062
L47.6094 25.3906
L58.0156 25.3906
L58.0156 17.1875
L47.6094 17.1875
L47.6094 0
L37.7969 0
L37.7969 17.1875
L4.89062 17.1875
L4.89062 26.7031
z
" id="BitstreamVeraSans-Roman-34"/>
      </defs>
      <g transform="translate(228.517075872 412.295122041)scale(0.1 -0.1)">
       <use xlink:href="#BitstreamVeraSans-Roman-34"/>
       <use x="63.623046875" xlink:href="#BitstreamVeraSans-Roman-65"/>
       <use x="125.146484375" xlink:href="#BitstreamVeraSans-Roman-37"/>
      </g>
     </g>
    </g>
    <g id="xtick_4">
     <g id="line2d_5">
      <defs>
       <path d="
M0 0
L0 -4" id="me2ec79df32"/>
      </defs>
      <g>
       <use style="stroke:#000000;stroke-linecap:butt;stroke-width:0.5;" x="339.959988808" xlink:href="#me2ec79df32" y="401.004497041"/>
      </g>
     </g>
     <g id="text_3">
      <!-- 6e7 -->
      <defs>
       <path d="
M33.0156 40.375
Q26.375 40.375 22.4844 35.8281
Q18.6094 31.2969 18.6094 23.3906
Q18.6094 15.5312 22.4844 10.9531
Q26.375 6.39062 33.0156 6.39062
Q39.6562 6.39062 43.5312 10.9531
Q47.4062 15.5312 47.4062 23.3906
Q47.4062 31.2969 43.5312 35.8281
Q39.6562 40.375 33.0156 40.375
M52.5938 71.2969
L52.5938 62.3125
Q48.875 64.0625 45.0938 64.9844
Q41.3125 65.9219 37.5938 65.9219
Q27.8281 65.9219 22.6719 59.3281
Q17.5312 52.7344 16.7969 39.4062
Q19.6719 43.6562 24.0156 45.9219
Q28.375 48.1875 33.5938 48.1875
Q44.5781 48.1875 50.9531 41.5156
Q57.3281 34.8594 57.3281 23.3906
Q57.3281 12.1562 50.6875 5.35938
Q44.0469 -1.42188 33.0156 -1.42188
Q20.3594 -1.42188 13.6719 8.26562
Q6.98438 17.9688 6.98438 36.375
Q6.98438 53.6562 15.1875 63.9375
Q23.3906 74.2188 37.2031 74.2188
Q40.9219 74.2188 44.7031 73.4844
Q48.4844 72.75 52.5938 71.2969" id="BitstreamVeraSans-Roman-36"/>
      </defs>
      <g transform="translate(331.297488808 412.426372041)scale(0.1 -0.1)">
       <use xlink:href="#BitstreamVeraSans-Roman-36"/>
       <use x="63.623046875" xlink:href="#BitstreamVeraSans-Roman-65"/>
       <use x="125.146484375" xlink:href="#BitstreamVeraSans-Roman-37"/>
      </g>
     </g>
    </g>
    <g id="xtick_5">
     <g id="line2d_6">
      <defs>
       <path d="
M0 0
L0 -4" id="me2ec79df32"/>
      </defs>
      <g>
       <use style="stroke:#000000;stroke-linecap:butt;stroke-width:0.5;" x="442.635714245" xlink:href="#me2ec79df32" y="401.004497041"/>
      </g>
     </g>
     <g id="text_4">
      <!-- 8e7 -->
      <defs>
       <path d="
M31.7812 34.625
Q24.75 34.625 20.7188 30.8594
Q16.7031 27.0938 16.7031 20.5156
Q16.7031 13.9219 20.7188 10.1562
Q24.75 6.39062 31.7812 6.39062
Q38.8125 6.39062 42.8594 10.1719
Q46.9219 13.9688 46.9219 20.5156
Q46.9219 27.0938 42.8906 30.8594
Q38.875 34.625 31.7812 34.625
M21.9219 38.8125
Q15.5781 40.375 12.0312 44.7188
Q8.5 49.0781 8.5 55.3281
Q8.5 64.0625 14.7188 69.1406
Q20.9531 74.2188 31.7812 74.2188
Q42.6719 74.2188 48.875 69.1406
Q55.0781 64.0625 55.0781 55.3281
Q55.0781 49.0781 51.5312 44.7188
Q48 40.375 41.7031 38.8125
Q48.8281 37.1562 52.7969 32.3125
Q56.7812 27.4844 56.7812 20.5156
Q56.7812 9.90625 50.3125 4.23438
Q43.8438 -1.42188 31.7812 -1.42188
Q19.7344 -1.42188 13.25 4.23438
Q6.78125 9.90625 6.78125 20.5156
Q6.78125 27.4844 10.7812 32.3125
Q14.7969 37.1562 21.9219 38.8125
M18.3125 54.3906
Q18.3125 48.7344 21.8438 45.5625
Q25.3906 42.3906 31.7812 42.3906
Q38.1406 42.3906 41.7188 45.5625
Q45.3125 48.7344 45.3125 54.3906
Q45.3125 60.0625 41.7188 63.2344
Q38.1406 66.4062 31.7812 66.4062
Q25.3906 66.4062 21.8438 63.2344
Q18.3125 60.0625 18.3125 54.3906" id="BitstreamVeraSans-Roman-38"/>
      </defs>
      <g transform="translate(433.963057995 412.426372041)scale(0.1 -0.1)">
       <use xlink:href="#BitstreamVeraSans-Roman-38"/>
       <use x="63.623046875" xlink:href="#BitstreamVeraSans-Roman-65"/>
       <use x="125.146484375" xlink:href="#BitstreamVeraSans-Roman-37"/>
      </g>
     </g>
    </g>
    <g id="xtick_6">
     <g id="line2d_7">
      <defs>
       <path d="
M0 0
L0 -4" id="me2ec79df32"/>
      </defs>
      <g>
       <use style="stroke:#000000;stroke-linecap:butt;stroke-width:0.5;" x="545.311439681" xlink:href="#me2ec79df32" y="401.004497041"/>
      </g>
     </g>
     <g id="text_5">
      <!-- 1e8 -->
      <defs>
       <path d="
M12.4062 8.29688
L28.5156 8.29688
L28.5156 63.9219
L10.9844 60.4062
L10.9844 69.3906
L28.4219 72.9062
L38.2812 72.9062
L38.2812 8.29688
L54.3906 8.29688
L54.3906 0
L12.4062 0
z
" id="BitstreamVeraSans-Roman-31"/>
      </defs>
      <g transform="translate(536.763783431 412.426372041)scale(0.1 -0.1)">
       <use xlink:href="#BitstreamVeraSans-Roman-31"/>
       <use x="63.623046875" xlink:href="#BitstreamVeraSans-Roman-65"/>
       <use x="125.146484375" xlink:href="#BitstreamVeraSans-Roman-38"/>
      </g>
     </g>
    </g>
    <g id="xtick_7">
     <g id="line2d_8">
      <defs>
       <path d="
M0 0
L0 -2" id="m9c5732dfff"/>
      </defs>
      <g>
       <use style="stroke:#000000;stroke-linecap:butt;stroke-width:0.5;" x="57.601743859" xlink:href="#m9c5732dfff" y="401.004497041"/>
      </g>
     </g>
    </g>
    <g id="xtick_8">
     <g id="line2d_9">
      <defs>
       <path d="
M0 0
L0 -2" id="m9c5732dfff"/>
      </defs>
      <g>
       <use style="stroke:#000000;stroke-linecap:butt;stroke-width:0.5;" x="83.2706752181" xlink:href="#m9c5732dfff" y="401.004497041"/>
      </g>
     </g>
    </g>
    <g id="xtick_9">
     <g id="line2d_10">
      <defs>
       <path d="
M0 0
L0 -2" id="m9c5732dfff"/>
      </defs>
      <g>
       <use style="stroke:#000000;stroke-linecap:butt;stroke-width:0.5;" x="108.939606577" xlink:href="#m9c5732dfff" y="401.004497041"/>
      </g>
     </g>
    </g>
    <g id="xtick_10">
     <g id="line2d_11">
      <defs>
       <path d="
M0 0
L0 -2" id="m9c5732dfff"/>
      </defs>
      <g>
       <use style="stroke:#000000;stroke-linecap:butt;stroke-width:0.5;" x="160.277469295" xlink:href="#m9c5732dfff" y="401.004497041"/>
      </g>
     </g>
    </g>
    <g id="xtick_11">
     <g id="line2d_12">
      <defs>
       <path d="
M0 0
L0 -2" id="m9c5732dfff"/>
      </defs>
      <g>
       <use style="stroke:#000000;stroke-linecap:butt;stroke-width:0.5;" x="185.946400654" xlink:href="#m9c5732dfff" y="401.004497041"/>
      </g>
     </g>
    </g>
    <g id="xtick_12">
     <g id="line2d_13">
      <defs>
       <path d="
M0 0
L0 -2" id="m9c5732dfff"/>
      </defs>
      <g>
       <use style="stroke:#000000;stroke-linecap:butt;stroke-width:0.5;" x="211.615332013" xlink:href="#m9c5732dfff" y="401.004497041"/>
      </g>
     </g>
    </g>
    <g id="xtick_13">
     <g id="line2d_14">
      <defs>
       <path d="
M0 0
L0 -2" id="m9c5732dfff"/>
      </defs>
      <g>
       <use style="stroke:#000000;stroke-linecap:butt;stroke-width:0.5;" x="262.953194731" xlink:href="#m9c5732dfff" y="401.004497041"/>
      </g>
     </g>
    </g>
    <g id="xtick_14">
     <g id="line2d_15">
      <defs>
       <path d="
M0 0
L0 -2" id="m9c5732dfff"/>
      </defs>
      <g>
       <use style="stroke:#000000;stroke-linecap:butt;stroke-width:0.5;" x="288.62212609" xlink:href="#m9c5732dfff" y="401.004497041"/>
      </g>
     </g>
    </g>
    <g id="xtick_15">
     <g id="line2d_16">
      <defs>
       <path d="
M0 0
L0 -2" id="m9c5732dfff"/>
      </defs>
      <g>
       <use style="stroke:#000000;stroke-linecap:butt;stroke-width:0.5;" x="314.291057449" xlink:href="#m9c5732dfff" y="401.004497041"/>
      </g>
     </g>
    </g>
    <g id="xtick_16">
     <g id="line2d_17">
      <defs>
       <path d="
M0 0
L0 -2" id="m9c5732dfff"/>
      </defs>
      <g>
       <use style="stroke:#000000;stroke-linecap:butt;stroke-width:0.5;" x="365.628920167" xlink:href="#m9c5732dfff" y="401.004497041"/>
      </g>
     </g>
    </g>
    <g id="xtick_17">
     <g id="line2d_18">
      <defs>
       <path d="
M0 0
L0 -2" id="m9c5732dfff"/>
      </defs>
      <g>
       <use style="stroke:#000000;stroke-linecap:butt;stroke-width:0.5;" x="391.297851527" xlink:href="#m9c5732dfff" y="401.004497041"/>
      </g>
     </g>
    </g>
    <g id="xtick_18">
     <g id="line2d_19">
      <defs>
       <path d="
M0 0
L0 -2" id="m9c5732dfff"/>
      </defs>
      <g>
       <use style="stroke:#000000;stroke-linecap:butt;stroke-width:0.5;" x="416.966782886" xlink:href="#m9c5732dfff" y="401.004497041"/>
      </g>
     </g>
    </g>
    <g id="xtick_19">
     <g id="line2d_20">
      <defs>
       <path d="
M0 0
L0 -2" id="m9c5732dfff"/>
      </defs>
      <g>
       <use style="stroke:#000000;stroke-linecap:butt;stroke-width:0.5;" x="468.304645604" xlink:href="#m9c5732dfff" y="401.004497041"/>
      </g>
     </g>
    </g>
    <g id="xtick_20">
     <g id="line2d_21">
      <defs>
       <path d="
M0 0
L0 -2" id="m9c5732dfff"/>
      </defs>
      <g>
       <use style="stroke:#000000;stroke-linecap:butt;stroke-width:0.5;" x="493.973576963" xlink:href="#m9c5732dfff" y="401.004497041"/>
      </g>
     </g>
    </g>
    <g id="xtick_21">
     <g id="line2d_22">
      <defs>
       <path d="
M0 0
L0 -2" id="m9c5732dfff"/>
      </defs>
      <g>
       <use style="stroke:#000000;stroke-linecap:butt;stroke-width:0.5;" x="519.642508322" xlink:href="#m9c5732dfff" y="401.004497041"/>
      </g>
     </g>
    </g>
   </g>
   <g id="matplotlib.axis_2">
    <g id="ytick_1">
     <g id="line2d_23">
      <defs>
       <path d="
M0 0
L4 0" id="me6d16c797d"/>
      </defs>
      <g>
       <use style="stroke:#000000;stroke-linecap:butt;stroke-width:0.5;" x="31.9328125" xlink:href="#me6d16c797d" y="401.004497041"/>
      </g>
     </g>
    </g>
    <g id="ytick_2">
     <g id="line2d_24">
      <defs>
       <path d="
M0 0
L4 0" id="me6d16c797d"/>
      </defs>
      <g>
       <use style="stroke:#000000;stroke-linecap:butt;stroke-width:0.5;" x="31.9328125" xlink:href="#me6d16c797d" y="341.229203705"/>
      </g>
     </g>
     <g id="text_6">
      <!-- 0.05 -->
      <defs>
       <path d="
M31.7812 66.4062
Q24.1719 66.4062 20.3281 58.9062
Q16.5 51.4219 16.5 36.375
Q16.5 21.3906 20.3281 13.8906
Q24.1719 6.39062 31.7812 6.39062
Q39.4531 6.39062 43.2812 13.8906
Q47.125 21.3906 47.125 36.375
Q47.125 51.4219 43.2812 58.9062
Q39.4531 66.4062 31.7812 66.4062
M31.7812 74.2188
Q44.0469 74.2188 50.5156 64.5156
Q56.9844 54.8281 56.9844 36.375
Q56.9844 17.9688 50.5156 8.26562
Q44.0469 -1.42188 31.7812 -1.42188
Q19.5312 -1.42188 13.0625 8.26562
Q6.59375 17.9688 6.59375 36.375
Q6.59375 54.8281 13.0625 64.5156
Q19.5312 74.2188 31.7812 74.2188" id="BitstreamVeraSans-Roman-30"/>
       <path d="
M10.6875 12.4062
L21 12.4062
L21 0
L10.6875 0
z
" id="BitstreamVeraSans-Roman-2e"/>
       <path d="
M10.7969 72.9062
L49.5156 72.9062
L49.5156 64.5938
L19.8281 64.5938
L19.8281 46.7344
Q21.9688 47.4688 24.1094 47.8281
Q26.2656 48.1875 28.4219 48.1875
Q40.625 48.1875 47.75 41.5
Q54.8906 34.8125 54.8906 23.3906
Q54.8906 11.625 47.5625 5.09375
Q40.2344 -1.42188 26.9062 -1.42188
Q22.3125 -1.42188 17.5469 -0.640625
Q12.7969 0.140625 7.71875 1.70312
L7.71875 11.625
Q12.1094 9.23438 16.7969 8.0625
Q21.4844 6.89062 26.7031 6.89062
Q35.1562 6.89062 40.0781 11.3281
Q45.0156 15.7656 45.0156 23.3906
Q45.0156 31 40.0781 35.4375
Q35.1562 39.8906 26.7031 39.8906
Q22.75 39.8906 18.8125 39.0156
Q14.8906 38.1406 10.7969 36.2812
z
" id="BitstreamVeraSans-Roman-35"/>
      </defs>
      <g transform="translate(7.2 344.869047455)scale(0.1 -0.1)">
       <use xlink:href="#BitstreamVeraSans-Roman-30"/>
       <use x="63.623046875" xlink:href="#BitstreamVeraSans-Roman-2e"/>
       <use x="95.41015625" xlink:href="#BitstreamVeraSans-Roman-30"/>
       <use x="159.033203125" xlink:href="#BitstreamVeraSans-Roman-35"/>
      </g>
     </g>
    </g>
    <g id="ytick_3">
     <g id="line2d_25">
      <defs>
       <path d="
M0 0
L4 0" id="me6d16c797d"/>
      </defs>
      <g>
       <use style="stroke:#000000;stroke-linecap:butt;stroke-width:0.5;" x="31.9328125" xlink:href="#me6d16c797d" y="281.453910369"/>
      </g>
     </g>
     <g id="text_7">
      <!-- 0.1 -->
      <g transform="translate(13.6125 285.093754119)scale(0.1 -0.1)">
       <use xlink:href="#BitstreamVeraSans-Roman-30"/>
       <use x="63.623046875" xlink:href="#BitstreamVeraSans-Roman-2e"/>
       <use x="95.41015625" xlink:href="#BitstreamVeraSans-Roman-31"/>
      </g>
     </g>
    </g>
    <g id="ytick_4">
     <g id="line2d_26">
      <defs>
       <path d="
M0 0
L4 0" id="me6d16c797d"/>
      </defs>
      <g>
       <use style="stroke:#000000;stroke-linecap:butt;stroke-width:0.5;" x="31.9328125" xlink:href="#me6d16c797d" y="221.678617032"/>
      </g>
     </g>
     <g id="text_8">
      <!-- 0.15 -->
      <g transform="translate(7.2 225.318460782)scale(0.1 -0.1)">
       <use xlink:href="#BitstreamVeraSans-Roman-30"/>
       <use x="63.623046875" xlink:href="#BitstreamVeraSans-Roman-2e"/>
       <use x="95.41015625" xlink:href="#BitstreamVeraSans-Roman-31"/>
       <use x="159.033203125" xlink:href="#BitstreamVeraSans-Roman-35"/>
      </g>
     </g>
    </g>
    <g id="ytick_5">
     <g id="line2d_27">
      <defs>
       <path d="
M0 0
L4 0" id="me6d16c797d"/>
      </defs>
      <g>
       <use style="stroke:#000000;stroke-linecap:butt;stroke-width:0.5;" x="31.9328125" xlink:href="#me6d16c797d" y="161.903323696"/>
      </g>
     </g>
     <g id="text_9">
      <!-- 0.2 -->
      <g transform="translate(13.690625 165.543167446)scale(0.1 -0.1)">
       <use xlink:href="#BitstreamVeraSans-Roman-30"/>
       <use x="63.623046875" xlink:href="#BitstreamVeraSans-Roman-2e"/>
       <use x="95.41015625" xlink:href="#BitstreamVeraSans-Roman-32"/>
      </g>
     </g>
    </g>
    <g id="ytick_6">
     <g id="line2d_28">
      <defs>
       <path d="
M0 0
L4 0" id="me6d16c797d"/>
      </defs>
      <g>
       <use style="stroke:#000000;stroke-linecap:butt;stroke-width:0.5;" x="31.9328125" xlink:href="#me6d16c797d" y="102.128030359"/>
      </g>
     </g>
     <g id="text_10">
      <!-- 0.25 -->
      <g transform="translate(7.2 105.767874109)scale(0.1 -0.1)">
       <use xlink:href="#BitstreamVeraSans-Roman-30"/>
       <use x="63.623046875" xlink:href="#BitstreamVeraSans-Roman-2e"/>
       <use x="95.41015625" xlink:href="#BitstreamVeraSans-Roman-32"/>
       <use x="159.033203125" xlink:href="#BitstreamVeraSans-Roman-35"/>
      </g>
     </g>
    </g>
    <g id="ytick_7">
     <g id="line2d_29">
      <defs>
       <path d="
M0 0
L4 0" id="me6d16c797d"/>
      </defs>
      <g>
       <use style="stroke:#000000;stroke-linecap:butt;stroke-width:0.5;" x="31.9328125" xlink:href="#me6d16c797d" y="42.3527370229"/>
      </g>
     </g>
     <g id="text_11">
      <!-- 0.3 -->
      <defs>
       <path d="
M40.5781 39.3125
Q47.6562 37.7969 51.625 33
Q55.6094 28.2188 55.6094 21.1875
Q55.6094 10.4062 48.1875 4.48438
Q40.7656 -1.42188 27.0938 -1.42188
Q22.5156 -1.42188 17.6562 -0.515625
Q12.7969 0.390625 7.625 2.20312
L7.625 11.7188
Q11.7188 9.32812 16.5938 8.10938
Q21.4844 6.89062 26.8125 6.89062
Q36.0781 6.89062 40.9375 10.5469
Q45.7969 14.2031 45.7969 21.1875
Q45.7969 27.6406 41.2812 31.2656
Q36.7656 34.9062 28.7188 34.9062
L20.2188 34.9062
L20.2188 43.0156
L29.1094 43.0156
Q36.375 43.0156 40.2344 45.9219
Q44.0938 48.8281 44.0938 54.2969
Q44.0938 59.9062 40.1094 62.9062
Q36.1406 65.9219 28.7188 65.9219
Q24.6562 65.9219 20.0156 65.0312
Q15.375 64.1562 9.8125 62.3125
L9.8125 71.0938
Q15.4375 72.6562 20.3438 73.4375
Q25.25 74.2188 29.5938 74.2188
Q40.8281 74.2188 47.3594 69.1094
Q53.9062 64.0156 53.9062 55.3281
Q53.9062 49.2656 50.4375 45.0938
Q46.9688 40.9219 40.5781 39.3125" id="BitstreamVeraSans-Roman-33"/>
      </defs>
      <g transform="translate(13.490625 45.9925807729)scale(0.1 -0.1)">
       <use xlink:href="#BitstreamVeraSans-Roman-30"/>
       <use x="63.623046875" xlink:href="#BitstreamVeraSans-Roman-2e"/>
       <use x="95.41015625" xlink:href="#BitstreamVeraSans-Roman-33"/>
      </g>
     </g>
    </g>
    <g id="ytick_8">
     <g id="line2d_30">
      <defs>
       <path d="
M0 0
L2 0" id="m473220213b"/>
      </defs>
      <g>
       <use style="stroke:#000000;stroke-linecap:butt;stroke-width:0.5;" x="31.9328125" xlink:href="#m473220213b" y="389.049438374"/>
      </g>
     </g>
    </g>
    <g id="ytick_9">
     <g id="line2d_31">
      <defs>
       <path d="
M0 0
L2 0" id="m473220213b"/>
      </defs>
      <g>
       <use style="stroke:#000000;stroke-linecap:butt;stroke-width:0.5;" x="31.9328125" xlink:href="#m473220213b" y="377.094379707"/>
      </g>
     </g>
    </g>
    <g id="ytick_10">
     <g id="line2d_32">
      <defs>
       <path d="
M0 0
L2 0" id="m473220213b"/>
      </defs>
      <g>
       <use style="stroke:#000000;stroke-linecap:butt;stroke-width:0.5;" x="31.9328125" xlink:href="#m473220213b" y="365.13932104"/>
      </g>
     </g>
    </g>
    <g id="ytick_11">
     <g id="line2d_33">
      <defs>
       <path d="
M0 0
L2 0" id="m473220213b"/>
      </defs>
      <g>
       <use style="stroke:#000000;stroke-linecap:butt;stroke-width:0.5;" x="31.9328125" xlink:href="#m473220213b" y="353.184262372"/>
      </g>
     </g>
    </g>
    <g id="ytick_12">
     <g id="line2d_34">
      <defs>
       <path d="
M0 0
L2 0" id="m473220213b"/>
      </defs>
      <g>
       <use style="stroke:#000000;stroke-linecap:butt;stroke-width:0.5;" x="31.9328125" xlink:href="#m473220213b" y="329.274145038"/>
      </g>
     </g>
    </g>
    <g id="ytick_13">
     <g id="line2d_35">
      <defs>
       <path d="
M0 0
L2 0" id="m473220213b"/>
      </defs>
      <g>
       <use style="stroke:#000000;stroke-linecap:butt;stroke-width:0.5;" x="31.9328125" xlink:href="#m473220213b" y="317.31908637"/>
      </g>
     </g>
    </g>
    <g id="ytick_14">
     <g id="line2d_36">
      <defs>
       <path d="
M0 0
L2 0" id="m473220213b"/>
      </defs>
      <g>
       <use style="stroke:#000000;stroke-linecap:butt;stroke-width:0.5;" x="31.9328125" xlink:href="#m473220213b" y="305.364027703"/>
      </g>
     </g>
    </g>
    <g id="ytick_15">
     <g id="line2d_37">
      <defs>
       <path d="
M0 0
L2 0" id="m473220213b"/>
      </defs>
      <g>
       <use style="stroke:#000000;stroke-linecap:butt;stroke-width:0.5;" x="31.9328125" xlink:href="#m473220213b" y="293.408969036"/>
      </g>
     </g>
    </g>
    <g id="ytick_16">
     <g id="line2d_38">
      <defs>
       <path d="
M0 0
L2 0" id="m473220213b"/>
      </defs>
      <g>
       <use style="stroke:#000000;stroke-linecap:butt;stroke-width:0.5;" x="31.9328125" xlink:href="#m473220213b" y="269.498851701"/>
      </g>
     </g>
    </g>
    <g id="ytick_17">
     <g id="line2d_39">
      <defs>
       <path d="
M0 0
L2 0" id="m473220213b"/>
      </defs>
      <g>
       <use style="stroke:#000000;stroke-linecap:butt;stroke-width:0.5;" x="31.9328125" xlink:href="#m473220213b" y="257.543793034"/>
      </g>
     </g>
    </g>
    <g id="ytick_18">
     <g id="line2d_40">
      <defs>
       <path d="
M0 0
L2 0" id="m473220213b"/>
      </defs>
      <g>
       <use style="stroke:#000000;stroke-linecap:butt;stroke-width:0.5;" x="31.9328125" xlink:href="#m473220213b" y="245.588734367"/>
      </g>
     </g>
    </g>
    <g id="ytick_19">
     <g id="line2d_41">
      <defs>
       <path d="
M0 0
L2 0" id="m473220213b"/>
      </defs>
      <g>
       <use style="stroke:#000000;stroke-linecap:butt;stroke-width:0.5;" x="31.9328125" xlink:href="#m473220213b" y="233.633675699"/>
      </g>
     </g>
    </g>
    <g id="ytick_20">
     <g id="line2d_42">
      <defs>
       <path d="
M0 0
L2 0" id="m473220213b"/>
      </defs>
      <g>
       <use style="stroke:#000000;stroke-linecap:butt;stroke-width:0.5;" x="31.9328125" xlink:href="#m473220213b" y="209.723558365"/>
      </g>
     </g>
    </g>
    <g id="ytick_21">
     <g id="line2d_43">
      <defs>
       <path d="
M0 0
L2 0" id="m473220213b"/>
      </defs>
      <g>
       <use style="stroke:#000000;stroke-linecap:butt;stroke-width:0.5;" x="31.9328125" xlink:href="#m473220213b" y="197.768499698"/>
      </g>
     </g>
    </g>
    <g id="ytick_22">
     <g id="line2d_44">
      <defs>
       <path d="
M0 0
L2 0" id="m473220213b"/>
      </defs>
      <g>
       <use style="stroke:#000000;stroke-linecap:butt;stroke-width:0.5;" x="31.9328125" xlink:href="#m473220213b" y="185.81344103"/>
      </g>
     </g>
    </g>
    <g id="ytick_23">
     <g id="line2d_45">
      <defs>
       <path d="
M0 0
L2 0" id="m473220213b"/>
      </defs>
      <g>
       <use style="stroke:#000000;stroke-linecap:butt;stroke-width:0.5;" x="31.9328125" xlink:href="#m473220213b" y="173.858382363"/>
      </g>
     </g>
    </g>
    <g id="ytick_24">
     <g id="line2d_46">
      <defs>
       <path d="
M0 0
L2 0" id="m473220213b"/>
      </defs>
      <g>
       <use style="stroke:#000000;stroke-linecap:butt;stroke-width:0.5;" x="31.9328125" xlink:href="#m473220213b" y="149.948265028"/>
      </g>
     </g>
    </g>
    <g id="ytick_25">
     <g id="line2d_47">
      <defs>
       <path d="
M0 0
L2 0" id="m473220213b"/>
      </defs>
      <g>
       <use style="stroke:#000000;stroke-linecap:butt;stroke-width:0.5;" x="31.9328125" xlink:href="#m473220213b" y="137.993206361"/>
      </g>
     </g>
    </g>
    <g id="ytick_26">
     <g id="line2d_48">
      <defs>
       <path d="
M0 0
L2 0" id="m473220213b"/>
      </defs>
      <g>
       <use style="stroke:#000000;stroke-linecap:butt;stroke-width:0.5;" x="31.9328125" xlink:href="#m473220213b" y="126.038147694"/>
      </g>
     </g>
    </g>
    <g id="ytick_27">
     <g id="line2d_49">
      <defs>
       <path d="
M0 0
L2 0" id="m473220213b"/>
      </defs>
      <g>
       <use style="stroke:#000000;stroke-linecap:butt;stroke-width:0.5;" x="31.9328125" xlink:href="#m473220213b" y="114.083089027"/>
      </g>
     </g>
    </g>
    <g id="ytick_28">
     <g id="line2d_50">
      <defs>
       <path d="
M0 0
L2 0" id="m473220213b"/>
      </defs>
      <g>
       <use style="stroke:#000000;stroke-linecap:butt;stroke-width:0.5;" x="31.9328125" xlink:href="#m473220213b" y="90.172971692"/>
      </g>
     </g>
    </g>
    <g id="ytick_29">
     <g id="line2d_51">
      <defs>
       <path d="
M0 0
L2 0" id="m473220213b"/>
      </defs>
      <g>
       <use style="stroke:#000000;stroke-linecap:butt;stroke-width:0.5;" x="31.9328125" xlink:href="#m473220213b" y="78.2179130248"/>
      </g>
     </g>
    </g>
    <g id="ytick_30">
     <g id="line2d_52">
      <defs>
       <path d="
M0 0
L2 0" id="m473220213b"/>
      </defs>
      <g>
       <use style="stroke:#000000;stroke-linecap:butt;stroke-width:0.5;" x="31.9328125" xlink:href="#m473220213b" y="66.2628543575"/>
      </g>
     </g>
    </g>
    <g id="ytick_31">
     <g id="line2d_53">
      <defs>
       <path d="
M0 0
L2 0" id="m473220213b"/>
      </defs>
      <g>
       <use style="stroke:#000000;stroke-linecap:butt;stroke-width:0.5;" x="31.9328125" xlink:href="#m473220213b" y="54.3077956902"/>
      </g>
     </g>
    </g>
    <g id="ytick_32">
     <g id="line2d_54">
      <defs>
       <path d="
M0 0
L2 0" id="m473220213b"/>
      </defs>
      <g>
       <use style="stroke:#000000;stroke-linecap:butt;stroke-width:0.5;" x="31.9328125" xlink:href="#m473220213b" y="30.3976783556"/>
      </g>
     </g>
    </g>
   </g>
   <g id="patch_3">
    <path d="
M21.6658 401.004
L555.549 401.004" style="fill:none;stroke:#000000;stroke-width:0.8;"/>
   </g>
   <g id="patch_4">
    <path d="
M31.9328 408.726
L31.9328 7.2" style="fill:none;stroke:#000000;stroke-width:0.8;"/>
   </g>
  </g>
 </g>
 <defs>
  <clipPath id="pc828fae536">
   <rect height="401.526153846" width="533.883429948" x="21.6658337301" y="7.2"/>
  </clipPath>
 </defs>
</svg>
