<?xml version="1.0" encoding="utf-8" standalone="no"?>
<!DOCTYPE svg PUBLIC "-//W3C//DTD SVG 1.1//EN"
  "http://www.w3.org/Graphics/SVG/1.1/DTD/svg11.dtd">
<!-- Created with matplotlib (http://matplotlib.sourceforge.net/) -->
<svg height="420pt" version="1.1" viewBox="0 0 564 420" width="564pt" xmlns="http://www.w3.org/2000/svg" xmlns:xlink="http://www.w3.org/1999/xlink">
 <defs>
  <style type="text/css">
*{stroke-linecap:square;stroke-linejoin:round;}
  </style>
 </defs>
 <g id="figure_1">
  <g id="patch_1">
   <path d="
M2.22045e-16 420.48
L564.694 420.48
L564.694 0
L2.22045e-16 0
z
" style="fill:#ffffff;"/>
  </g>
  <g id="axes_1">
   <g id="patch_2">
    <path d="
M80.0262 413.28
L557.494 413.28
L557.494 7.2
L80.0262 7.2
z
" style="fill:#ffffff;"/>
   </g>
   <g id="line2d_1">
    <path clip-path="url(#p06ebe62315)" d="
M89.2083 324.004
L99.709 324.004
L99.709 324.004
L99.709 324.004
L112.938 324.004
L112.938 405.471
L121.652 405.471
L121.652 365.992
L133.357 365.992
L133.357 244.591
L137.684 244.591
L137.684 237.021
L144.631 237.021
L144.631 189.246
L147.512 189.246
L147.512 171.429
L152.46 171.429
L152.46 157.259
L158.463 157.259
L158.463 133.118
L160.19 133.118
L160.19 130.952
L164.772 130.952
L164.772 120.322
L167.431 120.322
L167.431 108.145
L168.664 108.145
L168.664 104.612
L170.968 104.612
L170.968 100.445
L174.079 100.445
L174.079 90.6796
L176.856 90.6796
L176.856 80.1001
L177.72 80.1001
L177.72 76.4994
L180.149 76.4994
L180.149 71.6542
L181.651 71.6542
L181.651 66.6107
L182.371 66.6107
L182.371 63.2606
L184.416 63.2606
L184.416 51.839
L185.695 51.839
L185.695 44.5226
L187.503 44.5226
L187.503 35.3484
L189.732 35.3484
L189.732 25.8792
L190.779 25.8792
L190.779 22.1567
L191.286 22.1567
L191.286 20.7856
L192.273 20.7856
L192.273 18.7774
L192.753 18.7774
L192.753 18.5167
L193.686 18.5167
L193.686 17.3783
L196.711 17.3783
L196.711 15.1657
L197.514 15.1657
L197.514 15.0092
L198.674 15.0092
L198.674 15.5885
L199.049 15.5885
L199.049 15.8985
L200.848 15.8985
L200.848 17.7552
L201.194 17.7552
L201.194 18.4102
L202.203 18.4102
L202.203 20.3068
L203.174 20.3068
L203.174 21.4948
L203.802 21.4948
L203.802 21.9313
L204.716 21.9313
L204.716 21.8014
L207.279 21.896
L207.279 23.0349
L207.549 23.0349
L207.549 23.3328
L208.08 23.3328
L208.08 24.0307
L208.342 24.0307
L208.342 24.2822
L209.858 24.2822
L209.858 25.5286
L211.291 25.5286
L211.291 27.9677
L211.751 27.9677
L211.751 28.9625
L211.979 28.9625
L211.979 29.5842
L212.427 29.5842
L212.427 30.5192
L213.085 30.5192
L213.085 31.844
L213.301 31.844
L213.301 32.3232
L214.354 32.3232
L214.354 34.3546
L214.966 34.3546
L214.966 35.5851
L215.564 35.5851
L215.564 36.7469
L216.148 36.7469
L216.148 37.6439
L216.34 37.6439
L216.34 37.9648
L216.907 37.9648
L216.907 39.0164
L217.278 39.0164
L217.278 39.8209
L217.462 39.8209
L217.462 40.2425
L218.361 40.2425
L218.361 42.3709
L219.57 42.3709
L219.57 44.408
L219.905 44.408
L219.905 44.8299
L220.071 44.8299
L220.071 44.9711
L220.4 44.9711
L220.4 45.3427
L221.519 45.3427
L221.519 46.5553
L221.984 46.5553
L221.984 47.2305
L222.742 47.2305
L222.742 48.7383
L222.891 48.7383
L222.891 49.0645
L223.186 49.0645
L223.186 49.6782
L223.622 49.6782
L223.622 50.4444
L224.193 50.4444
L224.193 51.6733
L224.613 51.6733
L224.613 52.7668
L225.026 52.7668
L225.026 53.7417
L225.298 53.7417
L225.298 54.502
L225.701 54.502
L225.701 55.5709
L226.228 55.5709
L226.228 56.7153
L226.488 56.7153
L226.488 57.331
L226.999 57.331
L226.999 58.7674
L227.625 58.7674
L227.625 60.4171
L227.748 60.4171
L227.748 60.7194
L228.356 60.7194
L228.356 62.2185
L228.476 62.2185
L228.476 62.4926
L228.832 62.4926
L228.832 63.4515
L229.067 63.4515
L229.067 64.068
L229.416 64.068
L229.416 64.9225
L229.873 64.9225
L229.873 66.2179
L230.099 66.2179
L230.099 66.7781
L230.211 66.7781
L230.211 67.0815
L230.434 67.0815
L230.434 67.6829
L231.091 67.6829
L231.091 69.1482
L231.52 69.1482
L231.52 70.2439
L231.731 70.2439
L231.731 70.752
L232.15 70.752
L232.15 71.6918
L232.357 71.6918
L232.357 72.1443
L232.664 72.1443
L232.664 72.7431
L233.267 72.7431
L233.366 73.8077
L234.243 73.8077
L234.243 75.1339
L234.528 75.1339
L234.528 75.5085
L234.998 75.5085
L234.998 76.1802
L235.275 76.1802
L235.275 76.4904
L235.55 76.4904
L235.641 77.0506
L235.911 77.0506
L235.911 77.4548
L236.356 77.4548
L236.356 77.9677
L236.62 77.9677
L236.62 78.3209
L236.88 78.3209
L236.967 78.7587
L237.224 78.7587
L237.224 79.0915
L237.479 79.0915
L237.479 79.4864
L237.647 79.4864
L237.731 79.8234
L238.228 79.8234
L238.228 80.5335
L238.635 80.5335
L238.716 81.2819
L238.877 81.2819
L238.877 81.5679
L239.116 81.5679
L239.116 82.0586
L239.353 82.0586
L239.431 82.5612
L239.897 82.5612
L239.897 83.0531
L240.05 83.0531
L240.05 83.2425
L240.279 83.2425
L240.279 83.5351
L240.581 83.5351
L240.581 83.9495
L240.953 83.9495
L240.953 84.542
L241.246 84.542
L241.246 85.0865
L241.609 85.0865
L241.609 85.7951
L241.896 85.7951
L241.896 86.2738
L242.109 86.2738
L242.109 86.5768
L242.32 86.5768
L242.32 86.8671
L242.46 86.8671
L242.46 87.0796
L242.737 87.0796
L242.737 87.4269
L242.943 87.4269
L242.943 87.762
L243.079 87.762
L243.079 88.0091
L243.35 88.0091
L243.35 88.4167
L243.485 88.4167
L243.485 88.6622
L243.95 88.6622
L243.95 89.4624
L244.277 89.4624
L244.277 90.0495
L244.664 90.0495
L244.727 90.8218
L245.045 90.8218
L245.108 91.5437
L245.233 91.5437
L245.296 91.889
L245.607 91.889
L245.607 92.5096
L246.035 92.5096
L246.035 93.3729
L246.156 93.3729
L246.217 93.6763
L246.337 93.6763
L246.337 93.851
L246.754 93.851
L246.754 94.4542
L246.872 94.4542
L246.93 94.6544
L247.625 94.7436
L247.625 95.3068
L247.965 95.4096
L247.965 95.5871
L248.245 95.5871
L248.245 95.8839
L248.468 95.8839
L248.578 96.1242
L248.906 96.225
L248.906 96.2923
L249.284 96.2923
L249.391 96.4751
L249.919 96.5661
L249.919 96.6477
L250.385 96.7515
L250.487 97.0754
L250.943 97.1821
L250.994 97.3708
L251.392 97.4228
L251.441 97.502
L251.881 97.4419
L251.881 97.3667
L252.313 97.3667
L252.408 97.2246
L252.832 97.1299
L252.832 97.1035
L253.795 96.9959
L253.84 96.8305
L254.241 96.7627
L254.241 96.6811
L254.592 96.5845
L254.592 96.4965
L254.896 96.4205
L254.896 96.3069
L255.154 96.3069
L255.239 96.0855
L255.493 96.0041
L255.535 95.885
L255.911 95.7978
L255.911 95.6849
L256.485 95.6176
L256.526 95.5257
L256.888 95.4263
L256.967 95.2957
L257.323 95.2107
L257.362 94.9623
L258.135 94.8527
L258.135 94.1274
L258.249 94.1274
L258.249 93.9747
L258.362 93.9747
L258.362 93.818
L258.513 93.818
L258.513 93.5854
L258.848 93.5854
L258.848 93.0818
L259.033 93.0818
L259.033 92.8089
L259.289 92.8089
L259.398 92.2733
L259.578 92.1693
L259.578 91.9893
L259.722 91.9893
L259.829 91.5332
L259.936 91.5332
L259.936 91.3546
L260.148 91.3546
L260.148 91.0383
L260.323 91.0383
L260.428 90.6803
L260.532 90.6346
L260.636 90.4447
L260.843 90.4447
L260.843 90.2413
L261.047 90.2413
L261.047 90.035
L261.183 90.035
L261.183 89.8796
L261.385 89.8796
L261.486 89.5642
L261.652 89.4965
L261.652 89.3822
L261.785 89.3822
L261.851 89.1588
L261.983 89.1588
L262.048 88.9037
L262.276 88.9037
L262.341 88.5388
L262.47 88.4414
L262.534 88.3269
L262.63 88.3269
L262.662 88.1547
L262.917 88.0457
L262.917 87.856
L263.231 87.856
L263.325 87.4205
L263.788 87.3188
L263.88 86.7845
L264.032 86.7845
L264.032 86.6116
L264.213 86.6116
L264.243 86.3725
L264.393 86.3725
L264.393 86.178
L264.512 86.178
L264.601 85.9431
L264.778 85.8455
L264.778 85.7498
L265.042 85.7498
L265.129 85.3409
L265.389 85.2424
L265.389 85.0331
L265.533 85.0331
L265.533 84.8625
L265.704 84.8625
L265.704 84.647
L265.817 84.647
L265.817 84.5118
L266.043 84.5118
L266.043 84.2748
L266.238 84.2748
L266.322 84.0129
L266.46 83.9353
L266.487 83.861
L266.625 83.861
L266.625 83.7431
L266.871 83.6354
L266.952 83.4992
L267.194 83.4992
L267.221 83.2573
L267.435 83.2573
L267.461 83.0176
L267.752 83.0176
L267.83 82.6316
L267.935 82.6316
L268.013 82.4336
L268.246 82.3245
L268.323 82.2034
L268.604 82.1224
L268.604 82.05
L268.907 81.9397
L268.982 81.8185
L269.206 81.7311
L269.231 81.6728
L269.355 81.6728
L269.355 81.5466
L269.503 81.5466
L269.527 81.3524
L269.722 81.3524
L269.82 81.1062
L270.013 81.0538
L270.109 80.9328
L270.607 80.8292
L270.654 80.683
L271.004 80.6066
L271.073 80.5038
L271.508 80.4244
L271.576 80.3615
L271.824 80.3025
L271.847 80.2169
L272.092 80.2169
L272.181 80.0174
L272.357 79.9485
L272.357 79.9047
L272.511 79.9047
L272.62 79.7111
L272.815 79.6143
L272.815 79.5724
L273.008 79.4851
L273.072 79.3953
L273.328 79.2852
L273.328 79.256
L273.601 79.1495
L273.643 79.0691
L273.914 79.0691
L273.914 78.8433
L274.099 78.8433
L274.202 78.5523
L274.324 78.4753
L274.406 78.3643
L274.688 78.3162
L274.688 78.1569
L274.988 78.0673
L275.067 77.8783
L275.225 77.8459
L275.225 77.7637
L275.46 77.6815
L275.518 77.5645
L275.712 77.4558
L275.808 77.3417
L276 77.2338
L276.057 77.188
L276.266 77.1184
L276.342 77.0093
L276.604 76.9054
L276.604 76.8574
L276.845 76.7536
L276.845 76.7445
L277.121 76.6561
L277.212 76.4961
L277.538 76.4009
L277.61 76.2935
L277.878 76.2074
L277.966 76.1281
L278.596 76.0218
L278.699 75.971
L279.126 75.8842
L279.176 75.7944
L279.529 75.6946
L279.628 75.5708
L279.975 75.4929
L280.024 75.3678
L280.3 75.2643
L280.348 75.1775
L280.685 75.0785
L280.749 74.908
L281.065 74.8365
L281.174 74.6217
L281.762 74.5282
L281.777 74.4952
L283.747 74.4058
L283.846 74.3181
L284.168 74.214
L284.266 74.1358
L284.5 74.0349
L284.583 73.9627
L284.869 73.8714
L284.95 73.77
L285.152 73.6934
L285.246 73.5756
L285.445 73.519
L285.551 73.3761
L285.84 73.2873
L285.84 73.2386
L286.074 73.1311
L286.177 73.0707
L286.523 72.9668
L286.561 72.8846
L286.764 72.8064
L286.864 72.6733
L287.027 72.6161
L287.064 72.533
L287.324 72.4631
L287.435 72.2849
L287.643 72.1892
L287.752 72.0904
L288.09 71.9902
L288.161 71.7842
L288.304 71.6834
L288.364 71.6011
L288.505 71.5118
L288.576 71.4125
L288.763 71.3371
L288.856 71.1623
L288.995 71.1296
L289.065 70.9516
L289.203 70.8415
L289.237 70.7929
L289.374 70.7929
L289.454 70.6154
L289.623 70.5193
L289.691 70.4319
L289.882 70.3525
L289.96 70.24
L290.181 70.135
L290.248 70.0252
L290.39 69.9328
L290.412 69.8857
L290.554 69.8029
L290.554 69.7622
L290.684 69.7622
L290.782 69.5345
L290.943 69.4497
L290.943 69.3862
L291.103 69.3862
L291.189 69.1841
L291.358 69.0823
L291.411 69.022
L291.662 68.9131
L291.766 68.8523
L292.096 68.759
L292.137 68.7299
L292.684 68.6254
L292.794 68.5878
L293.328 68.4793
L293.387 68.419
L293.571 68.3488
L293.591 68.285
L293.735 68.285
L293.822 68.0806
L293.975 67.973
L294.061 67.8018
L294.165 67.8018
L294.222 67.6101
L294.335 67.501
L294.429 67.3587
L294.569 67.3347
L294.643 67.1046
L294.875 67.0089
L294.985 66.7404
L295.15 66.6406
L295.231 66.5047
L295.394 66.4426
L295.449 66.3252
L295.583 66.3252
L295.682 66.1289
L295.851 66.0457
L295.948 65.948
L296.133 65.8488
L296.238 65.7621
L296.499 65.6516
L296.603 65.5922
L296.868 65.4888
L296.945 65.4521
L297.249 65.3517
L297.291 65.2968
L297.525 65.189
L297.6 65.1436
L297.938 65.033
L298.036 64.9959
L298.504 64.8949
L298.592 64.8499
L299.486 64.7397
L299.556 64.7206
L299.922 64.611
L300.013 64.585
L300.536 64.4744
L300.647 64.4421
L300.991 64.3427
L301.1 64.2751
L301.302 64.1861
L301.41 64.1023
L301.807 63.9955
L301.878 63.9517
L302.164 63.8576
L302.269 63.7886
L303.486 63.6821
L303.591 63.6492
L303.983 63.558
L304.061 63.4925
L304.541 63.384
L304.617 63.3656
L305.173 63.2545
L305.198 63.2532
L305.235 63.2533
L306.02 63.1427
L306.121 63.1046
L306.412 62.9951
L306.495 62.927
L306.729 62.838
L306.833 62.7603
L307.053 62.6857
L307.139 62.5949
L307.419 62.4844
L307.515 62.437
L308.008 62.3315
L308.119 62.2963
L308.486 62.1968
L308.595 62.16
L308.966 62.0524
L309.052 62.004
L309.238 61.8971
L309.348 61.8208
L309.527 61.7282
L309.631 61.6288
L309.803 61.571
L309.885 61.4428
L310.019 61.3595
L310.127 61.2324
L310.28 61.1269
L310.356 61.0426
L310.522 60.9494
L310.633 60.8422
L310.867 60.7326
L310.957 60.6363
L311.193 60.5361
L311.296 60.4236
L311.447 60.3151
L311.515 60.2477
L311.665 60.1527
L311.775 60.0352
L311.938 59.9302
L312.038 59.8375
L312.189 59.7392
L312.26 59.6467
L312.391 59.5383
L312.471 59.4625
L312.601 59.3758
L312.666 59.2619
L312.81 59.1753
L312.92 58.9946
L313.066 58.8859
L313.176 58.721
L313.33 58.6258
L313.411 58.511
L313.581 58.4049
L313.675 58.2631
L313.808 58.1572
L313.919 58.0766
L314.117 57.9656
L314.218 57.8924
L314.379 57.7831
L314.478 57.7033
L314.659 57.5957
L314.762 57.4829
L314.958 57.3727
L315.068 57.3085
L315.374 57.201
L315.474 57.1572
L315.722 57.0472
L315.809 56.9927
L316.054 56.8873
L316.159 56.8214
L316.401 56.7115
L316.497 56.6573
L316.704 56.5481
L316.795 56.4815
L317.008 56.3991
L317.106 56.3171
L317.3 56.236
L317.405 56.1407
L317.555 56.0489
L317.658 55.9448
L317.81 55.8387
L317.92 55.7405
L318.09 55.6412
L318.184 55.5488
L318.337 55.4451
L318.437 55.3682
L318.629 55.2669
L318.696 55.2166
L318.904 55.1075
L319.013 55.021
L319.172 54.9344
L319.269 54.8359
L319.413 54.7431
L319.519 54.634
L319.654 54.5306
L319.76 54.4216
L319.88 54.3171
L319.985 54.1954
L320.096 54.0849
L320.2 53.9746
L320.339 53.8641
L320.442 53.7529
L320.606 53.6554
L320.698 53.582
L320.881 53.486
L320.989 53.4201
L321.273 53.3098
L321.382 53.2616
L321.609 53.1618
L321.668 53.1215
L321.942 53.0167
L322.049 52.956
L322.315 52.8468
L322.395 52.8118
L322.717 52.7092
L322.827 52.6703
L323.237 52.5679
L323.348 52.5225
L323.804 52.4156
L323.888 52.399
L324.459 52.2893
L324.547 52.2628
L324.879 52.152
L324.988 52.1063
L325.309 51.9992
L325.419 51.9546
L325.941 51.8474
L326.038 51.8061
L326.408 51.6988
L326.517 51.6612
L326.911 51.557
L327.009 51.5314
L327.654 51.4227
L327.763 51.4021
L328.635 51.5096
L328.738 51.5425
L329.022 51.6529
L329.131 51.7004
L329.338 51.8084
L329.423 51.8623
L329.677 51.9692
L329.787 52.0339
L330.063 52.1433
L330.158 52.17
L333.129 52.0611
L333.236 52.0296
L333.74 51.9301
L333.83 51.8676
L334.223 51.7777
L334.323 51.671
L334.613 51.564
L334.69 51.4551
L334.883 51.3891
L334.974 51.2808
L335.275 51.1732
L335.362 51.0729
L335.644 50.974
L335.738 50.8801
L335.935 50.816
L336.031 50.7187
L336.406 50.6149
L336.502 50.5664
L336.979 50.4717
L337.077 50.4392
L339.096 50.3286
L339.186 50.3151
L339.653 50.2131
L339.744 50.1718
L343.753 50.0611
L343.858 50.0269
L345.865 50.137
L345.959 50.1696
L346.535 50.2696
L346.619 50.2899
L347.954 50.187
L347.954 50.175
L351.482 50.2844
L351.58 50.3501
L351.863 50.4256
L351.956 50.5172
L352.151 50.5696
L352.25 50.6891
L352.532 50.7888
L352.625 50.8708
L353.008 50.9668
L353.105 51.0233
L353.579 51.1245
L353.682 51.1935
L354.055 51.3041
L354.154 51.3915
L354.538 51.4999
L354.631 51.5728
L355.016 51.6759
L355.111 51.7398
L355.488 51.8409
L355.589 51.9413
L355.871 52.0313
L355.969 52.1071
L356.251 52.1947
L356.348 52.284
L356.633 52.3726
L356.735 52.4855
L356.918 52.5442
L357.015 52.6654
L357.21 52.7276
L357.299 52.8357
L357.49 52.8948
L357.586 53.0186
L357.872 53.1115
L357.968 53.1969
L358.259 53.2804
L358.355 53.3708
L358.636 53.4564
L358.742 53.5334
L359.115 53.6243
L359.209 53.6766
L359.787 53.7757
L359.878 53.8292
L360.262 53.9277
L360.357 53.9893
L360.833 54.095
L360.926 54.138
L361.216 54.2115
L361.309 54.2984
L361.597 54.3915
L361.689 54.4562
L361.976 54.5342
L362.072 54.6205
L362.359 54.7147
L362.452 54.8083
L362.645 54.8665
L362.738 54.976
L362.932 55.0313
L363.027 55.1501
L363.215 55.2095
L363.322 55.335
L363.504 55.3905
L363.596 55.5248
L363.789 55.602
L363.883 55.7483
L364.074 55.8356
L364.171 56.0134
L364.361 56.1144
L364.455 56.3135
L364.646 56.4181
L364.745 56.6165
L364.938 56.7231
L365.03 56.9041
L365.219 56.9954
L365.317 57.1686
L365.508 57.2477
L365.604 57.4076
L365.792 57.4909
L365.886 57.6603
L366.08 57.7541
L366.175 57.9502
L366.364 58.0555
L366.459 58.2392
L366.649 58.3421
L366.745 58.5344
L366.942 58.6437
L367.039 58.8658
L367.231 58.9651
L367.318 59.1871
L367.413 59.1871
L367.509 59.4041
L367.704 59.5068
L367.797 59.7263
L367.894 59.7263
L367.992 59.9414
L368.177 60.0327
L368.278 60.2417
L368.467 60.3398
L368.558 60.5456
L368.75 60.6502
L368.848 60.8711
L369.036 60.9723
L369.132 61.1716
L369.324 61.2646
L369.417 61.4431
L369.608 61.538
L369.703 61.7264
L369.894 61.8233
L369.99 62.0252
L370.182 62.1318
L370.279 62.3048
L370.469 62.3793
L370.563 62.506
L370.758 62.561
L370.848 62.6735
L371.134 62.7649
L371.229 62.8247
L371.708 62.9295
L371.805 62.9722
L372.477 63.075
L372.567 63.1066
L373.425 63.2127
L373.519 63.2398
L374.188 63.3474
L374.188 63.3534
L374.282 63.3517
L377.051 63.2447
L377.146 63.1943
L377.911 63.0855
L378.007 63.0728
L378.576 62.9638
L378.673 62.9281
L379.152 62.8382
L379.246 62.7851
L379.912 62.6749
L380.007 62.6419
L380.487 62.5328
L380.579 62.4636
L380.866 62.3898
L380.969 62.3036
L381.247 62.2291
L381.346 62.1496
L381.727 62.0518
L381.822 61.9846
L382.108 61.9113
L382.203 61.826
L382.49 61.7254
L382.584 61.6143
L382.778 61.5574
L382.871 61.4451
L383.156 61.3521
L383.251 61.2586
L383.538 61.1777
L383.634 61.1076
L384.111 61.0077
L384.205 60.9622
L385.064 60.855
L385.16 60.8456
L386.495 60.7353
L386.591 60.7073
L387.547 60.6014
L387.64 60.5716
L388.118 60.492
L388.213 60.4239
L388.499 60.346
L388.594 60.2768
L388.977 60.18
L389.072 60.0965
L389.358 60.0043
L389.454 59.9098
L389.837 59.8049
L389.93 59.7429
L390.314 59.6577
L390.407 59.5915
L390.884 59.4895
L390.98 59.4503
L391.554 59.3586
L391.648 59.3049
L391.935 59.2336
L392.031 59.1427
L392.317 59.0495
L392.411 58.9662
L392.698 58.8659
L392.792 58.7698
L393.081 58.6876
L393.174 58.6156
L393.46 58.539
L393.556 58.4586
L393.843 58.3695
L393.94 58.2806
L394.224 58.2002
L394.319 58.1326
L394.605 58.0549
L394.701 57.9874
L395.083 57.8873
L395.178 57.8135
L395.467 57.7194
L395.56 57.6276
L395.847 57.527
L395.941 57.4162
L396.132 57.3575
L396.227 57.2528
L396.514 57.1483
L396.609 57.0534
L396.896 56.9495
L396.991 56.8507
L397.279 56.7476
L397.372 56.6493
L397.658 56.5697
L397.754 56.4939
L398.136 56.403
L398.232 56.345
L398.994 56.2446
L399.09 56.2227
L399.948 56.1184
L400.045 56.0797
L400.616 55.969
L400.714 55.8959
L401.094 55.7908
L401.189 55.7504
L401.953 55.6496
L402.048 55.609
L402.525 55.5209
L402.62 55.4663
L402.906 55.3916
L403.002 55.3121
L403.287 55.2234
L403.384 55.1213
L403.67 55.0144
L403.765 54.9239
L404.052 54.8489
L404.146 54.7633
L404.432 54.6549
L404.528 54.5468
L404.719 54.487
L404.815 54.3776
L405.1 54.267
L405.196 54.1404
L405.386 54.0793
L405.482 53.958
L405.673 53.8984
L405.769 53.7691
L405.96 53.7023
L406.054 53.5783
L406.245 53.5211
L406.341 53.4078
L406.531 53.3478
L406.627 53.2302
L406.818 53.1674
L406.914 53.0548
L407.2 52.9681
L407.295 52.8679
L407.581 52.7749
L407.676 52.6744
L407.962 52.5702
L408.058 52.4744
L408.345 52.365
L408.44 52.2633
L408.728 52.1536
L408.822 52.031
L409.012 51.9676
L409.108 51.8178
L409.298 51.7433
L409.394 51.5886
L409.585 51.5064
L409.68 51.3516
L409.871 51.2702
L409.966 51.1141
L410.157 51.0327
L410.252 50.8834
L410.445 50.8168
L410.538 50.6736
L410.73 50.6016
L410.826 50.4568
L411.016 50.3846
L411.112 50.2327
L411.302 50.1611
L411.399 50.009
L411.588 49.9341
L411.683 49.7955
L411.874 49.7306
L411.971 49.6063
L412.16 49.5464
L412.256 49.4283
L412.447 49.3662
L412.542 49.2281
L412.733 49.1614
L412.829 49.0449
L413.019 48.984
L413.115 48.8558
L413.306 48.7861
L413.401 48.645
L413.593 48.5748
L413.687 48.4419
L413.878 48.3793
L413.973 48.2591
L414.165 48.1985
L414.259 48.0716
L414.45 48.0035
L414.546 47.859
L414.737 47.7866
L414.832 47.6262
L415.023 47.5465
L415.118 47.3898
L415.309 47.3134
L415.405 47.1583
L415.596 47.0877
L415.691 46.9487
L415.881 46.8791
L415.977 46.738
L416.168 46.6712
L416.264 46.5482
L416.455 46.488
L416.55 46.3605
L416.741 46.3026
L416.836 46.1873
L417.122 46.0823
L417.217 45.9858
L417.504 45.8786
L417.599 45.7943
L417.886 45.7202
L417.98 45.6443
L418.267 45.5646
L418.363 45.4816
L418.648 45.404
L418.744 45.3103
L419.03 45.2294
L419.126 45.1436
L419.412 45.0416
L419.507 44.9396
L419.793 44.8402
L419.889 44.7334
L420.175 44.6314
L420.271 44.5385
L420.558 44.4504
L420.652 44.3665
L421.034 44.2589
L421.13 44.1954
L421.608 44.0927
L421.702 44.0382
L422.083 43.9507
L422.179 43.8682
L422.465 43.7662
L422.56 43.6493
L422.847 43.546
L422.942 43.4551
L423.228 43.363
L423.324 43.2647
L423.611 43.187
L423.705 43.117
L423.992 43.0273
L424.087 42.9305
L424.469 42.8234
L424.564 42.7681
L425.041 42.6783
L425.137 42.6256
L425.709 42.5195
L425.805 42.4944
L426.663 42.3965
L426.758 42.3628
L427.331 42.2644
L427.426 42.2123
L427.999 42.1024
L428.094 42.0453
L428.762 41.9363
L428.857 41.8953
L429.526 41.791
L429.621 41.7468
L430.098 41.6412
L430.194 41.5826
L430.575 41.4858
L430.671 41.414
L430.957 41.3367
L431.052 41.2495
L431.338 41.169
L431.433 41.0838
L431.72 40.9951
L431.816 40.9125
L432.101 40.8257
L432.197 40.7353
L432.483 40.6427
L432.578 40.5582
L432.96 40.4501
L433.055 40.385
L433.437 40.2835
L433.533 40.2025
L433.819 40.1235
L433.914 40.0471
L434.296 39.9438
L434.391 39.8613
L434.677 39.773
L434.773 39.6976
L435.154 39.5985
L435.25 39.533
L435.632 39.4476
L435.727 39.3944
L436.204 39.2875
L436.299 39.2205
L436.586 39.1428
L436.682 39.063
L436.967 38.9841
L437.063 38.904
L437.444 38.7982
L437.54 38.7257
L437.922 38.6306
L438.017 38.5585
L438.303 38.4823
L438.399 38.4054
L438.781 38.305
L438.876 38.2318
L439.162 38.1518
L439.258 38.0654
L439.544 37.971
L439.639 37.8745
L439.925 37.7852
L440.021 37.7026
L440.307 37.6159
L440.402 37.517
L440.688 37.4151
L440.784 37.3178
L441.071 37.2386
L441.166 37.1701
L441.642 37.06
L441.738 37.016
L442.406 36.908
L442.501 36.8853
L443.837 36.7771
L443.932 36.7499
L445.745 36.6415
L445.84 36.6169
L446.985 36.5104
L447.081 36.4993
L448.894 36.3963
L448.989 36.3736
L450.802 36.2684
L450.897 36.2434
L451.756 36.1436
L451.851 36.1164
L452.424 36.0236
L452.519 35.9882
L453.282 35.8829
L453.378 35.8518
L454.332 35.7506
L454.428 35.729
L455.286 35.629
L455.382 35.6051
L456.336 35.5046
L456.431 35.4589
L456.908 35.3645
L457.004 35.3139
L457.481 35.2206
L457.576 35.1626
L457.958 35.0639
L458.054 34.9853
L458.339 34.9033
L458.435 34.8284
L458.816 34.7325
L458.912 34.6609
L459.293 34.5548
L459.389 34.4809
L459.675 34.4077
L459.771 34.326
L460.057 34.241
L460.152 34.1603
L460.439 34.0768
L460.534 34.0058
L460.916 33.901
L461.011 33.8349
L461.488 33.7355
L461.583 33.6941
L462.251 33.5887
L462.347 33.5508
L462.919 33.4434
L463.014 33.3895
L463.682 33.2842
L463.778 33.2625
L464.446 33.1525
L464.541 33.1038
L465.018 33.0021
L465.113 32.9393
L465.495 32.8417
L465.591 32.783
L466.068 32.6941
L466.163 32.6414
L466.64 32.5318
L466.735 32.4629
L467.117 32.3668
L467.213 32.2963
L467.594 32.194
L467.69 32.1314
L468.071 32.0291
L468.167 31.9536
L468.548 31.85
L468.644 31.7772
L468.93 31.6935
L469.025 31.611
L469.407 31.515
L469.502 31.4673
L470.17 31.361
L470.266 31.3295
L471.22 31.2205
L471.315 31.2044
L472.556 31.1036
L472.651 31.0756
L473.51 30.9724
L473.605 30.9424
L475.799 30.8411
L475.895 30.8093
L477.326 30.7044
L477.421 30.6655
L478.28 30.5568
L478.376 30.5204
L478.853 30.4278
L478.948 30.376
L479.425 30.2788
L479.521 30.2346
L480.284 30.1277
L480.379 30.1143
L481.429 30.2104
L481.524 30.2521
L482.097 30.359
L482.192 30.3969
L482.764 30.4981
L482.86 30.5172
L484.482 30.6277
L484.577 30.6377
L486.581 30.7431
L486.676 30.7596
L487.917 30.8687
L488.012 30.9076
L489.157 31.008
L489.252 31.0327
L490.016 31.1346
L490.111 31.1639
L490.874 31.2661
L490.97 31.2912
L491.638 31.396
L491.733 31.4383
L492.21 31.5493
L492.306 31.6086
L492.973 31.7156
L493.069 31.7412
L493.927 31.8477
L494.023 31.8826
L494.595 31.9797
L494.691 32.0193
L495.263 32.1223
L495.359 32.1547
L496.694 32.2625
L496.79 32.2932
L498.03 32.4013
L498.126 32.4183
L500.225 32.314
L500.32 32.2947
L501.083 32.1963
L501.179 32.1725
L506.999 32.2794
L507.094 32.2945
L511.006 32.1848
L511.101 32.1567
L511.769 32.0584
L511.865 32.0315
L512.533 31.9318
L512.628 31.8972
L513.391 31.7971
L513.487 31.7678
L514.25 31.6606
L514.345 31.6264
L515.013 31.5171
L515.109 31.4779
L515.777 31.3722
L515.872 31.3476
L516.54 31.2514
L516.635 31.2197
L517.399 31.1113
L517.494 31.0815
L518.353 30.9706
L518.448 30.9506
L519.975 30.8397
L520.07 30.8256
L521.978 30.7191
L522.074 30.713
L523.6 30.6053
L523.696 30.5878
L524.65 30.4819
L524.745 30.4582
L525.795 30.349
L525.89 30.3215
L526.653 30.2211
L526.749 30.1869
L527.226 30.0966
L527.321 30.0423
L527.798 29.9331
L527.894 29.8772
L528.371 29.7663
L528.466 29.6988
L528.848 29.6116
L528.943 29.5475
L529.325 29.447
L529.42 29.3776
L529.707 29.3015
L529.802 29.2188
L530.088 29.1345
L530.184 29.052
L530.47 28.9682
L530.565 28.8894
L530.851 28.8058
L530.947 28.7221
L531.233 28.6441
L531.329 28.5622
L531.615 28.4848
L531.71 28.4099
L531.996 28.3241
L532.092 28.2358
L532.378 28.1453
L532.473 28.0555
L532.76 27.9712
L532.855 27.8899
L533.237 27.7824
L533.332 27.7218
L533.714 27.6331
L533.809 27.5704
L534.191 27.4604
L534.286 27.391
L534.668 27.284
L534.763 27.218
L535.145 27.1197
L535.24 27.0519
L535.622 26.9569
L535.717 26.8945
L536.099 26.8005
L536.195 26.735
L536.576 26.625
L536.672 26.5607
L537.053 26.4649
L537.149 26.3988
L537.53 26.2885
L537.626 26.2072
L537.912 26.1283
L538.007 26.0462
L538.294 25.9627
L538.389 25.8837
L538.771 25.7746
L538.866 25.7027
L539.248 25.5967
L539.343 25.5166
L539.629 25.4287
L539.725 25.3373
L540.011 25.2605
L540.106 25.1894
L540.393 25.1137
L540.488 25.0303
L540.774 24.947
L540.87 24.8612
L541.156 24.7696
L541.251 24.6846
L541.538 24.6027
L541.633 24.5246
L542.015 24.4135
L542.11 24.3332
L542.396 24.2425
L542.492 24.145
L542.778 24.0479
L542.873 23.9492
L543.16 23.8464
L543.255 23.744
L543.541 23.6457
L543.637 23.5526
L543.923 23.4591
L544.018 23.3604
L544.304 23.2564
L544.4 23.1391
L544.591 23.0813
L544.686 22.9647
L544.877 22.9072
L544.972 22.7966
L545.259 22.6895
L545.354 22.5889
L545.64 22.4948
L545.736 22.3974
L546.022 22.2989
L546.117 22.1978
L546.403 22.0987
L546.499 21.9952
L546.785 21.8999
L546.881 21.8093
L547.167 21.7144
L547.262 21.624
L547.548 21.5358
L547.644 21.451
L547.93 21.3724
L548.025 21.2985
L548.312 21.2248
L548.312 21.1873
L548.312 21.1873" style="fill:none;stroke:#0000ff;stroke-width:5.0;"/>
   </g>
   <g id="matplotlib.axis_1">
    <g id="xtick_1">
     <g id="line2d_2">
      <path d="
M200.746 413.28
L200.746 7.2" style="fill:none;stroke:#000000;stroke-dasharray:1.000000,3.000000;stroke-dashoffset:0.0;stroke-linecap:butt;stroke-width:0.5;"/>
     </g>
     <g id="line2d_3">
      <defs>
       <path d="
M0 0
L0 -4" id="m3fbe6c24f1"/>
      </defs>
      <g>
       <use style="stroke:#000000;stroke-linecap:butt;stroke-width:0.5;" x="200.746147927" xlink:href="#m3fbe6c24f1" y="324.004464932"/>
      </g>
     </g>
     <g id="text_1">
      <!-- 5 -->
      <defs>
       <path d="
M10.7969 72.9062
L49.5156 72.9062
L49.5156 64.5938
L19.8281 64.5938
L19.8281 46.7344
Q21.9688 47.4688 24.1094 47.8281
Q26.2656 48.1875 28.4219 48.1875
Q40.625 48.1875 47.75 41.5
Q54.8906 34.8125 54.8906 23.3906
Q54.8906 11.625 47.5625 5.09375
Q40.2344 -1.42188 26.9062 -1.42188
Q22.3125 -1.42188 17.5469 -0.640625
Q12.7969 0.140625 7.71875 1.70312
L7.71875 11.625
Q12.1094 9.23438 16.7969 8.0625
Q21.4844 6.89062 26.7031 6.89062
Q35.1562 6.89062 40.0781 11.3281
Q45.0156 15.7656 45.0156 23.3906
Q45.0156 31 40.0781 35.4375
Q35.1562 39.8906 26.7031 39.8906
Q22.75 39.8906 18.8125 39.0156
Q14.8906 38.1406 10.7969 36.2812
z
" id="BitstreamVeraSans-Roman-35"/>
      </defs>
      <g transform="translate(195.085522927 345.501964932)scale(0.24 -0.24)">
       <use xlink:href="#BitstreamVeraSans-Roman-35"/>
      </g>
     </g>
    </g>
    <g id="xtick_2">
     <g id="line2d_4">
      <path d="
M330.235 413.28
L330.235 7.2" style="fill:none;stroke:#000000;stroke-dasharray:1.000000,3.000000;stroke-dashoffset:0.0;stroke-linecap:butt;stroke-width:0.5;"/>
     </g>
     <g id="line2d_5">
      <defs>
       <path d="
M0 0
L0 -4" id="m3fbe6c24f1"/>
      </defs>
      <g>
       <use style="stroke:#000000;stroke-linecap:butt;stroke-width:0.5;" x="330.234936255" xlink:href="#m3fbe6c24f1" y="324.004464932"/>
      </g>
     </g>
     <g id="text_2">
      <!-- 10 -->
      <defs>
       <path d="
M31.7812 66.4062
Q24.1719 66.4062 20.3281 58.9062
Q16.5 51.4219 16.5 36.375
Q16.5 21.3906 20.3281 13.8906
Q24.1719 6.39062 31.7812 6.39062
Q39.4531 6.39062 43.2812 13.8906
Q47.125 21.3906 47.125 36.375
Q47.125 51.4219 43.2812 58.9062
Q39.4531 66.4062 31.7812 66.4062
M31.7812 74.2188
Q44.0469 74.2188 50.5156 64.5156
Q56.9844 54.8281 56.9844 36.375
Q56.9844 17.9688 50.5156 8.26562
Q44.0469 -1.42188 31.7812 -1.42188
Q19.5312 -1.42188 13.0625 8.26562
Q6.59375 17.9688 6.59375 36.375
Q6.59375 54.8281 13.0625 64.5156
Q19.5312 74.2188 31.7812 74.2188" id="BitstreamVeraSans-Roman-30"/>
       <path d="
M12.4062 8.29688
L28.5156 8.29688
L28.5156 63.9219
L10.9844 60.4062
L10.9844 69.3906
L28.4219 72.9062
L38.2812 72.9062
L38.2812 8.29688
L54.3906 8.29688
L54.3906 0
L12.4062 0
z
" id="BitstreamVeraSans-Roman-31"/>
      </defs>
      <g transform="translate(317.079936255 345.816964932)scale(0.24 -0.24)">
       <use xlink:href="#BitstreamVeraSans-Roman-31"/>
       <use x="63.623046875" xlink:href="#BitstreamVeraSans-Roman-30"/>
      </g>
     </g>
    </g>
    <g id="xtick_3">
     <g id="line2d_6">
      <path d="
M459.724 413.28
L459.724 7.2" style="fill:none;stroke:#000000;stroke-dasharray:1.000000,3.000000;stroke-dashoffset:0.0;stroke-linecap:butt;stroke-width:0.5;"/>
     </g>
     <g id="line2d_7">
      <defs>
       <path d="
M0 0
L0 -4" id="m3fbe6c24f1"/>
      </defs>
      <g>
       <use style="stroke:#000000;stroke-linecap:butt;stroke-width:0.5;" x="459.723724583" xlink:href="#m3fbe6c24f1" y="324.004464932"/>
      </g>
     </g>
     <g id="text_3">
      <!-- 15 -->
      <g transform="translate(446.819974583 345.501964932)scale(0.24 -0.24)">
       <use xlink:href="#BitstreamVeraSans-Roman-31"/>
       <use x="63.623046875" xlink:href="#BitstreamVeraSans-Roman-35"/>
      </g>
     </g>
    </g>
    <g id="xtick_4">
     <g id="line2d_8">
      <defs>
       <path d="
M0 0
L0 -2" id="mf0ff38ea95"/>
      </defs>
      <g>
       <use style="stroke:#000000;stroke-linecap:butt;stroke-width:0.5;" x="97.1551172646" xlink:href="#mf0ff38ea95" y="324.004464932"/>
      </g>
     </g>
    </g>
    <g id="xtick_5">
     <g id="line2d_9">
      <defs>
       <path d="
M0 0
L0 -2" id="mf0ff38ea95"/>
      </defs>
      <g>
       <use style="stroke:#000000;stroke-linecap:butt;stroke-width:0.5;" x="123.05287493" xlink:href="#mf0ff38ea95" y="324.004464932"/>
      </g>
     </g>
    </g>
    <g id="xtick_6">
     <g id="line2d_10">
      <defs>
       <path d="
M0 0
L0 -2" id="mf0ff38ea95"/>
      </defs>
      <g>
       <use style="stroke:#000000;stroke-linecap:butt;stroke-width:0.5;" x="148.950632596" xlink:href="#mf0ff38ea95" y="324.004464932"/>
      </g>
     </g>
    </g>
    <g id="xtick_7">
     <g id="line2d_11">
      <defs>
       <path d="
M0 0
L0 -2" id="mf0ff38ea95"/>
      </defs>
      <g>
       <use style="stroke:#000000;stroke-linecap:butt;stroke-width:0.5;" x="174.848390261" xlink:href="#mf0ff38ea95" y="324.004464932"/>
      </g>
     </g>
    </g>
    <g id="xtick_8">
     <g id="line2d_12">
      <defs>
       <path d="
M0 0
L0 -2" id="mf0ff38ea95"/>
      </defs>
      <g>
       <use style="stroke:#000000;stroke-linecap:butt;stroke-width:0.5;" x="226.643905593" xlink:href="#mf0ff38ea95" y="324.004464932"/>
      </g>
     </g>
    </g>
    <g id="xtick_9">
     <g id="line2d_13">
      <defs>
       <path d="
M0 0
L0 -2" id="mf0ff38ea95"/>
      </defs>
      <g>
       <use style="stroke:#000000;stroke-linecap:butt;stroke-width:0.5;" x="252.541663258" xlink:href="#mf0ff38ea95" y="324.004464932"/>
      </g>
     </g>
    </g>
    <g id="xtick_10">
     <g id="line2d_14">
      <defs>
       <path d="
M0 0
L0 -2" id="mf0ff38ea95"/>
      </defs>
      <g>
       <use style="stroke:#000000;stroke-linecap:butt;stroke-width:0.5;" x="278.439420924" xlink:href="#mf0ff38ea95" y="324.004464932"/>
      </g>
     </g>
    </g>
    <g id="xtick_11">
     <g id="line2d_15">
      <defs>
       <path d="
M0 0
L0 -2" id="mf0ff38ea95"/>
      </defs>
      <g>
       <use style="stroke:#000000;stroke-linecap:butt;stroke-width:0.5;" x="304.337178589" xlink:href="#mf0ff38ea95" y="324.004464932"/>
      </g>
     </g>
    </g>
    <g id="xtick_12">
     <g id="line2d_16">
      <defs>
       <path d="
M0 0
L0 -2" id="mf0ff38ea95"/>
      </defs>
      <g>
       <use style="stroke:#000000;stroke-linecap:butt;stroke-width:0.5;" x="356.13269392" xlink:href="#mf0ff38ea95" y="324.004464932"/>
      </g>
     </g>
    </g>
    <g id="xtick_13">
     <g id="line2d_17">
      <defs>
       <path d="
M0 0
L0 -2" id="mf0ff38ea95"/>
      </defs>
      <g>
       <use style="stroke:#000000;stroke-linecap:butt;stroke-width:0.5;" x="382.030451586" xlink:href="#mf0ff38ea95" y="324.004464932"/>
      </g>
     </g>
    </g>
    <g id="xtick_14">
     <g id="line2d_18">
      <defs>
       <path d="
M0 0
L0 -2" id="mf0ff38ea95"/>
      </defs>
      <g>
       <use style="stroke:#000000;stroke-linecap:butt;stroke-width:0.5;" x="407.928209252" xlink:href="#mf0ff38ea95" y="324.004464932"/>
      </g>
     </g>
    </g>
    <g id="xtick_15">
     <g id="line2d_19">
      <defs>
       <path d="
M0 0
L0 -2" id="mf0ff38ea95"/>
      </defs>
      <g>
       <use style="stroke:#000000;stroke-linecap:butt;stroke-width:0.5;" x="433.825966917" xlink:href="#mf0ff38ea95" y="324.004464932"/>
      </g>
     </g>
    </g>
    <g id="xtick_16">
     <g id="line2d_20">
      <defs>
       <path d="
M0 0
L0 -2" id="mf0ff38ea95"/>
      </defs>
      <g>
       <use style="stroke:#000000;stroke-linecap:butt;stroke-width:0.5;" x="485.621482248" xlink:href="#mf0ff38ea95" y="324.004464932"/>
      </g>
     </g>
    </g>
    <g id="xtick_17">
     <g id="line2d_21">
      <defs>
       <path d="
M0 0
L0 -2" id="mf0ff38ea95"/>
      </defs>
      <g>
       <use style="stroke:#000000;stroke-linecap:butt;stroke-width:0.5;" x="511.519239914" xlink:href="#mf0ff38ea95" y="324.004464932"/>
      </g>
     </g>
    </g>
   </g>
   <g id="matplotlib.axis_2">
    <g id="ytick_1">
     <g id="line2d_22">
      <path d="
M80.0262 370.888
L557.494 370.888" style="fill:none;stroke:#000000;stroke-dasharray:1.000000,3.000000;stroke-dashoffset:0.0;stroke-linecap:butt;stroke-width:0.5;"/>
     </g>
     <g id="line2d_23">
      <defs>
       <path d="
M0 0
L4 0" id="mc91e532072"/>
      </defs>
      <g>
       <use style="stroke:#000000;stroke-linecap:butt;stroke-width:0.5;" x="70.02625" xlink:href="#mc91e532072" y="370.888053823"/>
      </g>
     </g>
     <g id="text_4">
      <!-- -0.05 -->
      <defs>
       <path d="
M10.6875 12.4062
L21 12.4062
L21 0
L10.6875 0
z
" id="BitstreamVeraSans-Roman-2e"/>
       <path d="
M4.89062 31.3906
L31.2031 31.3906
L31.2031 23.3906
L4.89062 23.3906
z
" id="BitstreamVeraSans-Roman-2d"/>
      </defs>
      <g transform="translate(7.2 379.623678823)scale(0.24 -0.24)">
       <use xlink:href="#BitstreamVeraSans-Roman-2d"/>
       <use x="36.083984375" xlink:href="#BitstreamVeraSans-Roman-30"/>
       <use x="99.70703125" xlink:href="#BitstreamVeraSans-Roman-2e"/>
       <use x="131.494140625" xlink:href="#BitstreamVeraSans-Roman-30"/>
       <use x="195.1171875" xlink:href="#BitstreamVeraSans-Roman-35"/>
      </g>
     </g>
    </g>
    <g id="ytick_2">
     <g id="line2d_24">
      <path d="
M80.0262 324.004
L557.494 324.004" style="fill:none;stroke:#000000;stroke-dasharray:1.000000,3.000000;stroke-dashoffset:0.0;stroke-linecap:butt;stroke-width:0.5;"/>
     </g>
     <g id="line2d_25">
      <defs>
       <path d="
M0 0
L4 0" id="mc91e532072"/>
      </defs>
      <g>
       <use style="stroke:#000000;stroke-linecap:butt;stroke-width:0.5;" x="70.02625" xlink:href="#mc91e532072" y="324.004464932"/>
      </g>
     </g>
     <g id="text_5">
      <!-- 0 -->
      <g transform="translate(53.9325 332.740089932)scale(0.24 -0.24)">
       <use xlink:href="#BitstreamVeraSans-Roman-30"/>
      </g>
     </g>
    </g>
    <g id="ytick_3">
     <g id="line2d_26">
      <path d="
M80.0262 277.121
L557.494 277.121" style="fill:none;stroke:#000000;stroke-dasharray:1.000000,3.000000;stroke-dashoffset:0.0;stroke-linecap:butt;stroke-width:0.5;"/>
     </g>
     <g id="line2d_27">
      <defs>
       <path d="
M0 0
L4 0" id="mc91e532072"/>
      </defs>
      <g>
       <use style="stroke:#000000;stroke-linecap:butt;stroke-width:0.5;" x="70.02625" xlink:href="#mc91e532072" y="277.120876041"/>
      </g>
     </g>
     <g id="text_6">
      <!-- 0.05 -->
      <g transform="translate(16.2675 285.856501041)scale(0.24 -0.24)">
       <use xlink:href="#BitstreamVeraSans-Roman-30"/>
       <use x="63.623046875" xlink:href="#BitstreamVeraSans-Roman-2e"/>
       <use x="95.41015625" xlink:href="#BitstreamVeraSans-Roman-30"/>
       <use x="159.033203125" xlink:href="#BitstreamVeraSans-Roman-35"/>
      </g>
     </g>
    </g>
    <g id="ytick_4">
     <g id="line2d_28">
      <path d="
M80.0262 230.237
L557.494 230.237" style="fill:none;stroke:#000000;stroke-dasharray:1.000000,3.000000;stroke-dashoffset:0.0;stroke-linecap:butt;stroke-width:0.5;"/>
     </g>
     <g id="line2d_29">
      <defs>
       <path d="
M0 0
L4 0" id="mc91e532072"/>
      </defs>
      <g>
       <use style="stroke:#000000;stroke-linecap:butt;stroke-width:0.5;" x="70.02625" xlink:href="#mc91e532072" y="230.23728715"/>
      </g>
     </g>
     <g id="text_7">
      <!-- 0.1 -->
      <g transform="translate(31.6575 238.97291215)scale(0.24 -0.24)">
       <use xlink:href="#BitstreamVeraSans-Roman-30"/>
       <use x="63.623046875" xlink:href="#BitstreamVeraSans-Roman-2e"/>
       <use x="95.41015625" xlink:href="#BitstreamVeraSans-Roman-31"/>
      </g>
     </g>
    </g>
    <g id="ytick_5">
     <g id="line2d_30">
      <path d="
M80.0262 183.354
L557.494 183.354" style="fill:none;stroke:#000000;stroke-dasharray:1.000000,3.000000;stroke-dashoffset:0.0;stroke-linecap:butt;stroke-width:0.5;"/>
     </g>
     <g id="line2d_31">
      <defs>
       <path d="
M0 0
L4 0" id="mc91e532072"/>
      </defs>
      <g>
       <use style="stroke:#000000;stroke-linecap:butt;stroke-width:0.5;" x="70.02625" xlink:href="#mc91e532072" y="183.353698258"/>
      </g>
     </g>
     <g id="text_8">
      <!-- 0.15 -->
      <g transform="translate(16.2675 192.089323258)scale(0.24 -0.24)">
       <use xlink:href="#BitstreamVeraSans-Roman-30"/>
       <use x="63.623046875" xlink:href="#BitstreamVeraSans-Roman-2e"/>
       <use x="95.41015625" xlink:href="#BitstreamVeraSans-Roman-31"/>
       <use x="159.033203125" xlink:href="#BitstreamVeraSans-Roman-35"/>
      </g>
     </g>
    </g>
    <g id="ytick_6">
     <g id="line2d_32">
      <path d="
M80.0262 136.47
L557.494 136.47" style="fill:none;stroke:#000000;stroke-dasharray:1.000000,3.000000;stroke-dashoffset:0.0;stroke-linecap:butt;stroke-width:0.5;"/>
     </g>
     <g id="line2d_33">
      <defs>
       <path d="
M0 0
L4 0" id="mc91e532072"/>
      </defs>
      <g>
       <use style="stroke:#000000;stroke-linecap:butt;stroke-width:0.5;" x="70.02625" xlink:href="#mc91e532072" y="136.470109367"/>
      </g>
     </g>
     <g id="text_9">
      <!-- 0.2 -->
      <defs>
       <path d="
M19.1875 8.29688
L53.6094 8.29688
L53.6094 0
L7.32812 0
L7.32812 8.29688
Q12.9375 14.1094 22.625 23.8906
Q32.3281 33.6875 34.8125 36.5312
Q39.5469 41.8438 41.4219 45.5312
Q43.3125 49.2188 43.3125 52.7812
Q43.3125 58.5938 39.2344 62.25
Q35.1562 65.9219 28.6094 65.9219
Q23.9688 65.9219 18.8125 64.3125
Q13.6719 62.7031 7.8125 59.4219
L7.8125 69.3906
Q13.7656 71.7812 18.9375 73
Q24.125 74.2188 28.4219 74.2188
Q39.75 74.2188 46.4844 68.5469
Q53.2188 62.8906 53.2188 53.4219
Q53.2188 48.9219 51.5312 44.8906
Q49.8594 40.875 45.4062 35.4062
Q44.1875 33.9844 37.6406 27.2188
Q31.1094 20.4531 19.1875 8.29688" id="BitstreamVeraSans-Roman-32"/>
      </defs>
      <g transform="translate(31.845 145.205734367)scale(0.24 -0.24)">
       <use xlink:href="#BitstreamVeraSans-Roman-30"/>
       <use x="63.623046875" xlink:href="#BitstreamVeraSans-Roman-2e"/>
       <use x="95.41015625" xlink:href="#BitstreamVeraSans-Roman-32"/>
      </g>
     </g>
    </g>
    <g id="ytick_7">
     <g id="line2d_34">
      <path d="
M80.0262 89.5865
L557.494 89.5865" style="fill:none;stroke:#000000;stroke-dasharray:1.000000,3.000000;stroke-dashoffset:0.0;stroke-linecap:butt;stroke-width:0.5;"/>
     </g>
     <g id="line2d_35">
      <defs>
       <path d="
M0 0
L4 0" id="mc91e532072"/>
      </defs>
      <g>
       <use style="stroke:#000000;stroke-linecap:butt;stroke-width:0.5;" x="70.02625" xlink:href="#mc91e532072" y="89.5865204762"/>
      </g>
     </g>
     <g id="text_10">
      <!-- 0.25 -->
      <g transform="translate(16.2675 98.3221454762)scale(0.24 -0.24)">
       <use xlink:href="#BitstreamVeraSans-Roman-30"/>
       <use x="63.623046875" xlink:href="#BitstreamVeraSans-Roman-2e"/>
       <use x="95.41015625" xlink:href="#BitstreamVeraSans-Roman-32"/>
       <use x="159.033203125" xlink:href="#BitstreamVeraSans-Roman-35"/>
      </g>
     </g>
    </g>
    <g id="ytick_8">
     <g id="line2d_36">
      <path d="
M80.0262 42.7029
L557.494 42.7029" style="fill:none;stroke:#000000;stroke-dasharray:1.000000,3.000000;stroke-dashoffset:0.0;stroke-linecap:butt;stroke-width:0.5;"/>
     </g>
     <g id="line2d_37">
      <defs>
       <path d="
M0 0
L4 0" id="mc91e532072"/>
      </defs>
      <g>
       <use style="stroke:#000000;stroke-linecap:butt;stroke-width:0.5;" x="70.02625" xlink:href="#mc91e532072" y="42.7029315851"/>
      </g>
     </g>
     <g id="text_11">
      <!-- 0.3 -->
      <defs>
       <path d="
M40.5781 39.3125
Q47.6562 37.7969 51.625 33
Q55.6094 28.2188 55.6094 21.1875
Q55.6094 10.4062 48.1875 4.48438
Q40.7656 -1.42188 27.0938 -1.42188
Q22.5156 -1.42188 17.6562 -0.515625
Q12.7969 0.390625 7.625 2.20312
L7.625 11.7188
Q11.7188 9.32812 16.5938 8.10938
Q21.4844 6.89062 26.8125 6.89062
Q36.0781 6.89062 40.9375 10.5469
Q45.7969 14.2031 45.7969 21.1875
Q45.7969 27.6406 41.2812 31.2656
Q36.7656 34.9062 28.7188 34.9062
L20.2188 34.9062
L20.2188 43.0156
L29.1094 43.0156
Q36.375 43.0156 40.2344 45.9219
Q44.0938 48.8281 44.0938 54.2969
Q44.0938 59.9062 40.1094 62.9062
Q36.1406 65.9219 28.7188 65.9219
Q24.6562 65.9219 20.0156 65.0312
Q15.375 64.1562 9.8125 62.3125
L9.8125 71.0938
Q15.4375 72.6562 20.3438 73.4375
Q25.25 74.2188 29.5938 74.2188
Q40.8281 74.2188 47.3594 69.1094
Q53.9062 64.0156 53.9062 55.3281
Q53.9062 49.2656 50.4375 45.0938
Q46.9688 40.9219 40.5781 39.3125" id="BitstreamVeraSans-Roman-33"/>
      </defs>
      <g transform="translate(31.365 51.4385565851)scale(0.24 -0.24)">
       <use xlink:href="#BitstreamVeraSans-Roman-30"/>
       <use x="63.623046875" xlink:href="#BitstreamVeraSans-Roman-2e"/>
       <use x="95.41015625" xlink:href="#BitstreamVeraSans-Roman-33"/>
      </g>
     </g>
    </g>
    <g id="ytick_9">
     <g id="line2d_38">
      <defs>
       <path d="
M0 0
L2 0" id="m0789224b6b"/>
      </defs>
      <g>
       <use style="stroke:#000000;stroke-linecap:butt;stroke-width:0.5;" x="70.02625" xlink:href="#m0789224b6b" y="408.394924936"/>
      </g>
     </g>
    </g>
    <g id="ytick_10">
     <g id="line2d_39">
      <defs>
       <path d="
M0 0
L2 0" id="m0789224b6b"/>
      </defs>
      <g>
       <use style="stroke:#000000;stroke-linecap:butt;stroke-width:0.5;" x="70.02625" xlink:href="#m0789224b6b" y="399.018207158"/>
      </g>
     </g>
    </g>
    <g id="ytick_11">
     <g id="line2d_40">
      <defs>
       <path d="
M0 0
L2 0" id="m0789224b6b"/>
      </defs>
      <g>
       <use style="stroke:#000000;stroke-linecap:butt;stroke-width:0.5;" x="70.02625" xlink:href="#m0789224b6b" y="389.641489379"/>
      </g>
     </g>
    </g>
    <g id="ytick_12">
     <g id="line2d_41">
      <defs>
       <path d="
M0 0
L2 0" id="m0789224b6b"/>
      </defs>
      <g>
       <use style="stroke:#000000;stroke-linecap:butt;stroke-width:0.5;" x="70.02625" xlink:href="#m0789224b6b" y="380.264771601"/>
      </g>
     </g>
    </g>
    <g id="ytick_13">
     <g id="line2d_42">
      <defs>
       <path d="
M0 0
L2 0" id="m0789224b6b"/>
      </defs>
      <g>
       <use style="stroke:#000000;stroke-linecap:butt;stroke-width:0.5;" x="70.02625" xlink:href="#m0789224b6b" y="361.511336045"/>
      </g>
     </g>
    </g>
    <g id="ytick_14">
     <g id="line2d_43">
      <defs>
       <path d="
M0 0
L2 0" id="m0789224b6b"/>
      </defs>
      <g>
       <use style="stroke:#000000;stroke-linecap:butt;stroke-width:0.5;" x="70.02625" xlink:href="#m0789224b6b" y="352.134618267"/>
      </g>
     </g>
    </g>
    <g id="ytick_15">
     <g id="line2d_44">
      <defs>
       <path d="
M0 0
L2 0" id="m0789224b6b"/>
      </defs>
      <g>
       <use style="stroke:#000000;stroke-linecap:butt;stroke-width:0.5;" x="70.02625" xlink:href="#m0789224b6b" y="342.757900488"/>
      </g>
     </g>
    </g>
    <g id="ytick_16">
     <g id="line2d_45">
      <defs>
       <path d="
M0 0
L2 0" id="m0789224b6b"/>
      </defs>
      <g>
       <use style="stroke:#000000;stroke-linecap:butt;stroke-width:0.5;" x="70.02625" xlink:href="#m0789224b6b" y="333.38118271"/>
      </g>
     </g>
    </g>
    <g id="ytick_17">
     <g id="line2d_46">
      <defs>
       <path d="
M0 0
L2 0" id="m0789224b6b"/>
      </defs>
      <g>
       <use style="stroke:#000000;stroke-linecap:butt;stroke-width:0.5;" x="70.02625" xlink:href="#m0789224b6b" y="324.004464932"/>
      </g>
     </g>
    </g>
    <g id="ytick_18">
     <g id="line2d_47">
      <defs>
       <path d="
M0 0
L2 0" id="m0789224b6b"/>
      </defs>
      <g>
       <use style="stroke:#000000;stroke-linecap:butt;stroke-width:0.5;" x="70.02625" xlink:href="#m0789224b6b" y="314.627747154"/>
      </g>
     </g>
    </g>
    <g id="ytick_19">
     <g id="line2d_48">
      <defs>
       <path d="
M0 0
L2 0" id="m0789224b6b"/>
      </defs>
      <g>
       <use style="stroke:#000000;stroke-linecap:butt;stroke-width:0.5;" x="70.02625" xlink:href="#m0789224b6b" y="305.251029375"/>
      </g>
     </g>
    </g>
    <g id="ytick_20">
     <g id="line2d_49">
      <defs>
       <path d="
M0 0
L2 0" id="m0789224b6b"/>
      </defs>
      <g>
       <use style="stroke:#000000;stroke-linecap:butt;stroke-width:0.5;" x="70.02625" xlink:href="#m0789224b6b" y="295.874311597"/>
      </g>
     </g>
    </g>
    <g id="ytick_21">
     <g id="line2d_50">
      <defs>
       <path d="
M0 0
L2 0" id="m0789224b6b"/>
      </defs>
      <g>
       <use style="stroke:#000000;stroke-linecap:butt;stroke-width:0.5;" x="70.02625" xlink:href="#m0789224b6b" y="286.497593819"/>
      </g>
     </g>
    </g>
    <g id="ytick_22">
     <g id="line2d_51">
      <defs>
       <path d="
M0 0
L2 0" id="m0789224b6b"/>
      </defs>
      <g>
       <use style="stroke:#000000;stroke-linecap:butt;stroke-width:0.5;" x="70.02625" xlink:href="#m0789224b6b" y="267.744158263"/>
      </g>
     </g>
    </g>
    <g id="ytick_23">
     <g id="line2d_52">
      <defs>
       <path d="
M0 0
L2 0" id="m0789224b6b"/>
      </defs>
      <g>
       <use style="stroke:#000000;stroke-linecap:butt;stroke-width:0.5;" x="70.02625" xlink:href="#m0789224b6b" y="258.367440484"/>
      </g>
     </g>
    </g>
    <g id="ytick_24">
     <g id="line2d_53">
      <defs>
       <path d="
M0 0
L2 0" id="m0789224b6b"/>
      </defs>
      <g>
       <use style="stroke:#000000;stroke-linecap:butt;stroke-width:0.5;" x="70.02625" xlink:href="#m0789224b6b" y="248.990722706"/>
      </g>
     </g>
    </g>
    <g id="ytick_25">
     <g id="line2d_54">
      <defs>
       <path d="
M0 0
L2 0" id="m0789224b6b"/>
      </defs>
      <g>
       <use style="stroke:#000000;stroke-linecap:butt;stroke-width:0.5;" x="70.02625" xlink:href="#m0789224b6b" y="239.614004928"/>
      </g>
     </g>
    </g>
    <g id="ytick_26">
     <g id="line2d_55">
      <defs>
       <path d="
M0 0
L2 0" id="m0789224b6b"/>
      </defs>
      <g>
       <use style="stroke:#000000;stroke-linecap:butt;stroke-width:0.5;" x="70.02625" xlink:href="#m0789224b6b" y="220.860569371"/>
      </g>
     </g>
    </g>
    <g id="ytick_27">
     <g id="line2d_56">
      <defs>
       <path d="
M0 0
L2 0" id="m0789224b6b"/>
      </defs>
      <g>
       <use style="stroke:#000000;stroke-linecap:butt;stroke-width:0.5;" x="70.02625" xlink:href="#m0789224b6b" y="211.483851593"/>
      </g>
     </g>
    </g>
    <g id="ytick_28">
     <g id="line2d_57">
      <defs>
       <path d="
M0 0
L2 0" id="m0789224b6b"/>
      </defs>
      <g>
       <use style="stroke:#000000;stroke-linecap:butt;stroke-width:0.5;" x="70.02625" xlink:href="#m0789224b6b" y="202.107133815"/>
      </g>
     </g>
    </g>
    <g id="ytick_29">
     <g id="line2d_58">
      <defs>
       <path d="
M0 0
L2 0" id="m0789224b6b"/>
      </defs>
      <g>
       <use style="stroke:#000000;stroke-linecap:butt;stroke-width:0.5;" x="70.02625" xlink:href="#m0789224b6b" y="192.730416037"/>
      </g>
     </g>
    </g>
    <g id="ytick_30">
     <g id="line2d_59">
      <defs>
       <path d="
M0 0
L2 0" id="m0789224b6b"/>
      </defs>
      <g>
       <use style="stroke:#000000;stroke-linecap:butt;stroke-width:0.5;" x="70.02625" xlink:href="#m0789224b6b" y="183.353698258"/>
      </g>
     </g>
    </g>
    <g id="ytick_31">
     <g id="line2d_60">
      <defs>
       <path d="
M0 0
L2 0" id="m0789224b6b"/>
      </defs>
      <g>
       <use style="stroke:#000000;stroke-linecap:butt;stroke-width:0.5;" x="70.02625" xlink:href="#m0789224b6b" y="173.97698048"/>
      </g>
     </g>
    </g>
    <g id="ytick_32">
     <g id="line2d_61">
      <defs>
       <path d="
M0 0
L2 0" id="m0789224b6b"/>
      </defs>
      <g>
       <use style="stroke:#000000;stroke-linecap:butt;stroke-width:0.5;" x="70.02625" xlink:href="#m0789224b6b" y="164.600262702"/>
      </g>
     </g>
    </g>
    <g id="ytick_33">
     <g id="line2d_62">
      <defs>
       <path d="
M0 0
L2 0" id="m0789224b6b"/>
      </defs>
      <g>
       <use style="stroke:#000000;stroke-linecap:butt;stroke-width:0.5;" x="70.02625" xlink:href="#m0789224b6b" y="155.223544924"/>
      </g>
     </g>
    </g>
    <g id="ytick_34">
     <g id="line2d_63">
      <defs>
       <path d="
M0 0
L2 0" id="m0789224b6b"/>
      </defs>
      <g>
       <use style="stroke:#000000;stroke-linecap:butt;stroke-width:0.5;" x="70.02625" xlink:href="#m0789224b6b" y="145.846827146"/>
      </g>
     </g>
    </g>
    <g id="ytick_35">
     <g id="line2d_64">
      <defs>
       <path d="
M0 0
L2 0" id="m0789224b6b"/>
      </defs>
      <g>
       <use style="stroke:#000000;stroke-linecap:butt;stroke-width:0.5;" x="70.02625" xlink:href="#m0789224b6b" y="136.470109367"/>
      </g>
     </g>
    </g>
    <g id="ytick_36">
     <g id="line2d_65">
      <defs>
       <path d="
M0 0
L2 0" id="m0789224b6b"/>
      </defs>
      <g>
       <use style="stroke:#000000;stroke-linecap:butt;stroke-width:0.5;" x="70.02625" xlink:href="#m0789224b6b" y="127.093391589"/>
      </g>
     </g>
    </g>
    <g id="ytick_37">
     <g id="line2d_66">
      <defs>
       <path d="
M0 0
L2 0" id="m0789224b6b"/>
      </defs>
      <g>
       <use style="stroke:#000000;stroke-linecap:butt;stroke-width:0.5;" x="70.02625" xlink:href="#m0789224b6b" y="117.716673811"/>
      </g>
     </g>
    </g>
    <g id="ytick_38">
     <g id="line2d_67">
      <defs>
       <path d="
M0 0
L2 0" id="m0789224b6b"/>
      </defs>
      <g>
       <use style="stroke:#000000;stroke-linecap:butt;stroke-width:0.5;" x="70.02625" xlink:href="#m0789224b6b" y="108.339956033"/>
      </g>
     </g>
    </g>
    <g id="ytick_39">
     <g id="line2d_68">
      <defs>
       <path d="
M0 0
L2 0" id="m0789224b6b"/>
      </defs>
      <g>
       <use style="stroke:#000000;stroke-linecap:butt;stroke-width:0.5;" x="70.02625" xlink:href="#m0789224b6b" y="98.9632382545"/>
      </g>
     </g>
    </g>
    <g id="ytick_40">
     <g id="line2d_69">
      <defs>
       <path d="
M0 0
L2 0" id="m0789224b6b"/>
      </defs>
      <g>
       <use style="stroke:#000000;stroke-linecap:butt;stroke-width:0.5;" x="70.02625" xlink:href="#m0789224b6b" y="89.5865204762"/>
      </g>
     </g>
    </g>
    <g id="ytick_41">
     <g id="line2d_70">
      <defs>
       <path d="
M0 0
L2 0" id="m0789224b6b"/>
      </defs>
      <g>
       <use style="stroke:#000000;stroke-linecap:butt;stroke-width:0.5;" x="70.02625" xlink:href="#m0789224b6b" y="80.209802698"/>
      </g>
     </g>
    </g>
    <g id="ytick_42">
     <g id="line2d_71">
      <defs>
       <path d="
M0 0
L2 0" id="m0789224b6b"/>
      </defs>
      <g>
       <use style="stroke:#000000;stroke-linecap:butt;stroke-width:0.5;" x="70.02625" xlink:href="#m0789224b6b" y="70.8330849198"/>
      </g>
     </g>
    </g>
    <g id="ytick_43">
     <g id="line2d_72">
      <defs>
       <path d="
M0 0
L2 0" id="m0789224b6b"/>
      </defs>
      <g>
       <use style="stroke:#000000;stroke-linecap:butt;stroke-width:0.5;" x="70.02625" xlink:href="#m0789224b6b" y="61.4563671415"/>
      </g>
     </g>
    </g>
    <g id="ytick_44">
     <g id="line2d_73">
      <defs>
       <path d="
M0 0
L2 0" id="m0789224b6b"/>
      </defs>
      <g>
       <use style="stroke:#000000;stroke-linecap:butt;stroke-width:0.5;" x="70.02625" xlink:href="#m0789224b6b" y="52.0796493633"/>
      </g>
     </g>
    </g>
    <g id="ytick_45">
     <g id="line2d_74">
      <defs>
       <path d="
M0 0
L2 0" id="m0789224b6b"/>
      </defs>
      <g>
       <use style="stroke:#000000;stroke-linecap:butt;stroke-width:0.5;" x="70.02625" xlink:href="#m0789224b6b" y="33.3262138069"/>
      </g>
     </g>
    </g>
    <g id="ytick_46">
     <g id="line2d_75">
      <defs>
       <path d="
M0 0
L2 0" id="m0789224b6b"/>
      </defs>
      <g>
       <use style="stroke:#000000;stroke-linecap:butt;stroke-width:0.5;" x="70.02625" xlink:href="#m0789224b6b" y="23.9494960286"/>
      </g>
     </g>
    </g>
   </g>
   <g id="patch_3">
    <path d="
M80.0262 324.004
L557.494 324.004" style="fill:none;stroke:#000000;stroke-width:0.8;"/>
   </g>
   <g id="patch_4">
    <path d="
M70.0262 413.28
L70.0262 7.2" style="fill:none;stroke:#000000;stroke-width:0.8;"/>
   </g>
  </g>
 </g>
 <defs>
  <clipPath id="p06ebe62315">
   <rect height="406.08" width="477.4675" x="80.02625" y="7.2"/>
  </clipPath>
 </defs>
</svg>
