<?xml version="1.0" encoding="utf-8" standalone="no"?>
<!DOCTYPE svg PUBLIC "-//W3C//DTD SVG 1.1//EN"
  "http://www.w3.org/Graphics/SVG/1.1/DTD/svg11.dtd">
<!-- Created with matplotlib (http://matplotlib.sourceforge.net/) -->
<svg height="132pt" version="1.1" viewBox="0 0 562 132" width="562pt" xmlns="http://www.w3.org/2000/svg" xmlns:xlink="http://www.w3.org/1999/xlink">
 <defs>
  <style type="text/css">
*{stroke-linecap:square;stroke-linejoin:round;}
  </style>
 </defs>
 <g id="figure_1">
  <g id="patch_1">
   <path d="
M-4.44089e-16 132.585
L562.407 132.585
L562.407 0
L-4.44089e-16 0
z
" style="fill:#ffffff;"/>
  </g>
  <g id="axes_1">
   <g id="patch_2">
    <path d="
M18.5718 125.385
L555.207 125.385
L555.207 7.55195
L18.5718 7.55195
z
" style="fill:#ffffff;"/>
   </g>
   <g id="line2d_1">
    <path clip-path="url(#p5fac6ad6f3)" d="
M28.8917 108.375
L29.0976 108.375
L29.0976 109.927
L29.365 109.927
L29.365 107.599
L29.6562 107.599
L29.6562 106.823
L29.9649 106.823
L29.9649 109.151
L30.2788 109.151
L30.2788 105.271
L30.9261 105.271
L30.9261 103.718
L31.2844 103.718
L31.2844 102.166
L31.6282 102.166
L31.6282 98.2862
L31.9638 98.2862
L31.9638 97.5101
L32.3293 97.5101
L32.3293 104.494
L32.6855 104.494
L32.6855 105.271
L33.0623 105.271
L33.0623 103.718
L33.4133 103.718
L33.4133 105.271
L33.7747 105.271
L33.7747 100.614
L34.5222 100.614
L34.5222 101.39
L34.9311 101.39
L34.9311 99.8382
L35.3028 99.8382
L35.3028 102.166
L35.6641 102.166
L35.6641 108.375
L36.0544 108.375
L36.0544 110.703
L36.4571 110.703
L36.4571 107.599
L36.8205 107.599
L36.8205 109.151
L37.6258 109.151
L37.6258 106.047
L38.0068 106.047
L38.0068 111.479
L38.3878 111.479
L38.3878 109.151
L38.8369 109.151
L38.8369 116.135
L39.6143 116.135
L39.6143 114.583
L40.0201 114.583
L40.0201 116.911
L40.3938 116.911
L40.3938 120.015
L40.7944 120.015
L40.7944 115.359
L41.2064 115.359
L41.2064 112.255
L41.6266 112.255
L41.6266 111.479
L42.0386 111.479
L42.0386 115.359
L42.4485 115.359
L42.4485 110.703
L42.8511 110.703
L42.8511 114.583
L43.2848 114.583
L43.2848 115.359
L43.6843 115.359
L43.6843 116.135
L44.087 116.135
L44.087 113.031
L44.5392 113.031
L44.5392 113.807
L45.4116 113.807
L45.4116 111.479
L45.7813 111.479
L45.7813 106.047
L46.6041 106.047
L46.6041 104.494
L47.0192 104.494
L47.0192 106.047
L47.4714 106.047
L47.4714 109.151
L47.8813 109.151
L47.8813 115.359
L48.286 115.359
L48.286 111.479
L48.7444 111.479
L48.7444 116.135
L49.1533 116.135
L49.1533 110.703
L49.5972 110.703
L49.5972 109.151
L50.0526 109.151
L50.0526 111.479
L50.4573 111.479
L50.4573 105.271
L50.83 105.271
L50.83 109.927
L51.2946 109.927
L51.2946 106.823
L51.719 106.823
L51.719 108.375
L52.164 108.375
L52.164 113.031
L52.6224 113.031
L52.6224 109.151
L53.0591 109.151
L53.0591 108.375
L53.5051 108.375
L53.5051 106.823
L53.945 106.823
L53.945 109.927
L54.3734 109.927
L54.3734 108.375
L54.7699 108.375
L54.7699 109.927
L55.249 109.927
L55.249 109.151
L55.6589 109.151
L55.6589 108.375
L56.11 108.375
L56.11 112.255
L56.5592 112.255
L56.5592 108.375
L56.9928 108.375
L56.9928 104.494
L57.445 104.494
L57.445 105.271
L57.8632 105.271
L57.8632 107.599
L58.2762 107.599
L58.2762 106.047
L58.7036 106.047
L58.7036 101.39
L59.131 101.39
L59.131 103.718
L59.5636 103.718
L59.5636 105.271
L60.0159 105.271
L60.0159 102.942
L60.5001 102.942
L60.5001 101.39
L60.9389 101.39
L60.9389 103.718
L61.4066 103.718
L61.4066 97.5101
L61.8227 97.5101
L61.8227 100.614
L62.3327 100.614
L62.3327 102.942
L62.7602 102.942
L62.7602 101.39
L63.2248 101.39
L63.2248 102.166
L63.6584 102.166
L63.6584 109.927
L64.0827 109.927
L64.0827 107.599
L64.5763 107.599
L64.5763 108.375
L65.0615 108.375
L65.0615 105.271
L65.4983 105.271
L65.4983 106.047
L66.8188 106.047
L66.8188 103.718
L67.2586 103.718
L67.2586 102.942
L67.717 102.942
L67.717 100.614
L68.1651 100.614
L68.1651 98.2862
L68.6359 98.2862
L68.6359 94.406
L69.0396 94.406
L69.0396 98.2862
L69.529 98.2862
L69.529 92.8539
L69.9967 92.8539
L69.9967 95.9581
L70.4427 95.9581
L70.4427 88.1977
L70.864 88.1977
L70.864 90.5258
L71.3162 90.5258
L71.3162 88.9737
L71.7746 88.9737
L71.7746 85.8696
L72.2599 85.8696
L72.2599 81.9894
L72.7038 81.9894
L72.7038 82.7654
L73.1798 82.7654
L73.1798 83.5415
L73.6424 83.5415
L73.6424 81.9894
L74.6232 81.9894
L74.6232 82.7654
L75.0506 82.7654
L75.0506 83.5415
L75.4564 83.5415
L75.4564 85.0935
L75.9458 85.0935
L75.9458 94.406
L76.4238 94.406
L76.4238 92.0779
L76.8265 92.0779
L76.8265 88.9737
L77.2942 88.9737
L77.2942 87.4217
L77.7371 87.4217
L77.7371 85.8696
L78.18 85.8696
L78.18 85.0935
L78.6436 85.0935
L78.6436 78.8852
L79.134 78.8852
L79.134 85.8696
L79.6358 85.8696
L79.6358 81.9894
L80.0653 81.9894
L80.0653 84.3175
L80.5361 84.3175
L80.5361 89.7498
L81.4622 89.7498
L81.4622 91.3018
L81.8835 91.3018
L81.8835 86.6456
L82.4142 86.6456
L82.4142 90.5258
L82.885 90.5258
L82.885 81.2134
L83.3486 81.2134
L83.3486 80.4373
L83.8039 80.4373
L83.8039 85.8696
L84.2571 85.8696
L84.2571 88.9737
L84.7589 88.9737
L84.7589 92.0779
L85.2225 92.0779
L85.2225 94.406
L85.6695 94.406
L85.6695 95.182
L86.161 95.182
L86.161 91.3018
L86.638 91.3018
L86.638 87.4217
L87.1377 87.4217
L87.1377 90.5258
L87.5982 90.5258
L87.5982 87.4217
L88.0814 87.4217
L88.0814 93.6299
L88.5656 93.6299
L88.5656 89.7498
L89.0023 89.7498
L89.0023 88.1977
L89.4814 88.1977
L89.4814 90.5258
L89.9367 90.5258
L89.9367 85.8696
L90.421 85.8696
L90.421 90.5258
L90.8887 90.5258
L90.8887 88.9737
L91.3533 88.9737
L91.3533 90.5258
L91.8303 90.5258
L91.8303 91.3018
L92.2722 91.3018
L92.2722 89.7498
L92.7368 89.7498
L92.7368 87.4217
L93.2138 87.4217
L93.2138 89.7498
L93.6918 89.7498
L93.6918 86.6456
L95.1373 86.6456
L95.1373 83.5415
L95.5812 83.5415
L95.5812 85.8696
L96.0458 85.8696
L96.0458 85.0935
L96.529 85.0935
L96.529 82.7654
L97.006 82.7654
L97.006 84.3175
L97.4789 84.3175
L97.4789 80.4373
L97.9631 80.4373
L97.9631 83.5415
L98.467 83.5415
L98.467 87.4217
L98.9109 87.4217
L98.9109 88.9737
L99.3621 88.9737
L99.3621 81.9894
L99.8174 81.9894
L99.8174 79.6613
L100.311 79.6613
L100.311 81.2134
L101.28 81.2134
L101.28 78.1092
L101.735 78.1092
L101.735 78.8852
L102.181 78.8852
L102.181 77.3332
L102.693 77.3332
L102.693 85.0935
L103.204 85.0935
L103.204 82.7654
L103.709 82.7654
L103.709 87.4217
L104.172 87.4217
L104.172 88.1977
L104.674 88.1977
L104.674 80.4373
L105.133 80.4373
L105.133 82.7654
L105.65 82.7654
L105.65 80.4373
L106.069 80.4373
L106.069 82.7654
L106.536 82.7654
L106.536 85.8696
L107.019 85.8696
L107.019 87.4217
L107.463 87.4217
L107.463 84.3175
L107.93 84.3175
L107.93 83.5415
L108.432 83.5415
L108.432 84.3175
L108.916 84.3175
L108.916 81.2134
L109.352 81.2134
L109.352 86.6456
L110.371 86.6456
L110.371 90.5258
L110.891 90.5258
L110.891 95.182
L111.371 95.182
L111.371 94.406
L111.848 94.406
L111.848 91.3018
L112.334 91.3018
L112.334 87.4217
L112.851 87.4217
L112.851 85.0935
L113.326 85.0935
L113.326 76.5571
L113.782 76.5571
L113.782 73.453
L114.333 73.453
L114.333 72.677
L114.837 72.677
L114.837 74.229
L115.278 74.229
L115.278 78.8852
L116.327 78.8852
L116.327 81.2134
L116.794 81.2134
L116.794 80.4373
L117.259 80.4373
L117.259 81.9894
L117.764 81.9894
L117.764 81.2134
L118.219 81.2134
L118.219 74.229
L118.724 74.229
L118.724 77.3332
L119.202 77.3332
L119.202 71.1249
L119.744 71.1249
L119.744 65.6926
L120.156 65.6926
L120.156 68.7968
L120.72 68.7968
L120.72 72.677
L121.602 72.677
L121.602 69.5728
L122.057 69.5728
L122.057 66.4687
L122.643 66.4687
L122.643 61.0364
L123.097 61.0364
L123.097 70.3488
L123.566 70.3488
L123.566 66.4687
L124.051 66.4687
L124.051 69.5728
L124.548 69.5728
L124.548 74.229
L124.971 74.229
L124.971 80.4373
L125.49 80.4373
L125.49 76.5571
L126.464 76.5571
L126.464 82.7654
L126.93 82.7654
L126.93 81.9894
L127.435 81.9894
L127.435 82.7654
L127.923 82.7654
L127.923 84.3175
L128.416 84.3175
L128.416 79.6613
L128.899 79.6613
L128.899 74.229
L129.413 74.229
L129.413 75.7811
L129.916 75.7811
L129.916 69.5728
L130.411 69.5728
L130.411 66.4687
L130.884 66.4687
L130.884 64.9166
L131.352 64.9166
L131.352 65.6926
L131.87 65.6926
L131.87 60.2604
L132.344 60.2604
L132.344 72.677
L132.907 72.677
L132.907 73.453
L133.867 73.453
L133.867 75.0051
L134.389 75.0051
L134.389 69.5728
L134.887 69.5728
L134.887 71.1249
L135.868 71.1249
L135.868 75.7811
L136.318 75.7811
L136.318 75.0051
L136.798 75.0051
L136.798 70.3488
L137.262 70.3488
L137.262 74.229
L137.724 74.229
L137.724 75.7811
L138.771 75.7811
L138.771 75.0051
L139.272 75.0051
L139.272 78.1092
L139.738 78.1092
L139.738 79.6613
L140.269 79.6613
L140.269 81.9894
L140.799 81.9894
L140.799 78.8852
L141.273 78.8852
L141.273 75.0051
L141.796 75.0051
L141.796 73.453
L142.27 73.453
L142.27 70.3488
L142.739 70.3488
L142.739 71.9009
L143.231 71.9009
L143.231 69.5728
L143.702 69.5728
L143.702 70.3488
L144.186 70.3488
L144.186 69.5728
L144.708 69.5728
L144.708 72.677
L145.202 72.677
L145.202 75.7811
L145.697 75.7811
L145.697 71.1249
L146.737 71.1249
L146.737 75.7811
L147.614 75.7811
L147.614 71.9009
L148.106 71.9009
L148.106 72.677
L148.606 72.677
L148.606 67.2447
L149.131 67.2447
L149.131 71.9009
L150.178 71.9009
L150.178 75.7811
L150.711 75.7811
L150.711 76.5571
L151.244 76.5571
L151.244 73.453
L152.241 73.453
L152.241 68.0207
L152.759 68.0207
L152.759 72.677
L153.251 72.677
L153.251 75.7811
L153.725 75.7811
L153.725 76.5571
L154.205 76.5571
L154.205 75.7811
L154.738 75.7811
L154.738 73.453
L155.197 73.453
L155.197 74.229
L156.213 74.229
L156.213 70.3488
L156.711 70.3488
L156.711 77.3332
L157.163 77.3332
L157.163 71.1249
L157.653 71.1249
L157.653 68.0207
L158.182 68.0207
L158.182 69.5728
L159.157 69.5728
L159.157 66.4687
L159.721 66.4687
L159.721 65.6926
L160.184 65.6926
L160.184 68.7968
L160.66 68.7968
L160.66 64.1406
L161.144 64.1406
L161.144 65.6926
L161.716 65.6926
L161.716 64.1406
L162.233 64.1406
L162.233 61.0364
L162.704 61.0364
L162.704 62.5885
L163.221 62.5885
L163.221 59.4843
L163.767 59.4843
L163.767 65.6926
L164.284 65.6926
L164.284 63.3645
L164.798 63.3645
L164.798 62.5885
L165.263 62.5885
L165.263 68.0207
L165.78 68.0207
L165.78 70.3488
L166.266 70.3488
L166.266 72.677
L166.794 72.677
L166.794 73.453
L167.178 73.453
L167.178 76.5571
L167.72 76.5571
L167.72 78.1092
L168.217 78.1092
L168.217 76.5571
L168.686 76.5571
L168.686 77.3332
L169.224 77.3332
L169.224 79.6613
L169.704 79.6613
L169.704 76.5571
L170.277 76.5571
L170.277 77.3332
L170.776 77.3332
L170.776 76.5571
L171.254 76.5571
L171.254 75.7811
L171.743 75.7811
L171.743 72.677
L172.27 72.677
L172.27 76.5571
L172.774 76.5571
L172.774 78.8852
L173.297 78.8852
L173.297 81.2134
L174.288 81.2134
L174.288 80.4373
L174.772 80.4373
L174.772 81.9894
L175.31 81.9894
L175.31 88.1977
L175.804 88.1977
L175.804 86.6456
L176.295 86.6456
L176.295 84.3175
L176.819 84.3175
L176.819 88.9737
L177.374 88.9737
L177.374 86.6456
L177.943 86.6456
L177.943 88.1977
L178.395 88.1977
L178.395 85.8696
L178.904 85.8696
L178.904 87.4217
L179.383 87.4217
L179.383 88.9737
L179.92 88.9737
L179.92 81.9894
L180.477 81.9894
L180.477 80.4373
L180.997 80.4373
L180.997 81.2134
L181.54 81.2134
L181.54 79.6613
L182.032 79.6613
L182.032 85.8696
L182.537 85.8696
L182.537 83.5415
L183.08 83.5415
L183.08 87.4217
L183.606 87.4217
L183.606 89.7498
L184.113 89.7498
L184.113 92.0779
L184.596 92.0779
L184.596 94.406
L185.145 94.406
L185.145 92.0779
L185.604 92.0779
L185.604 96.7341
L186.084 96.7341
L186.084 98.2862
L186.555 98.2862
L186.555 97.5101
L187.068 97.5101
L187.068 95.182
L187.53 95.182
L187.53 95.9581
L188.116 95.9581
L188.116 93.6299
L188.608 93.6299
L188.608 92.8539
L189.149 92.8539
L189.149 93.6299
L189.67 93.6299
L189.67 92.0779
L190.169 92.0779
L190.169 90.5258
L190.671 90.5258
L190.671 95.182
L191.705 95.182
L191.705 92.8539
L192.186 92.8539
L192.186 94.406
L192.675 94.406
L192.675 93.6299
L193.162 93.6299
L193.162 91.3018
L194.106 91.3018
L194.106 92.0779
L194.621 92.0779
L194.621 91.3018
L195.122 91.3018
L195.122 90.5258
L195.632 90.5258
L195.632 95.182
L196.656 95.182
L196.656 97.5101
L197.668 97.5101
L197.668 98.2862
L198.132 98.2862
L198.132 97.5101
L198.671 97.5101
L198.671 95.182
L199.179 95.182
L199.179 96.7341
L200.177 96.7341
L200.177 95.182
L200.719 95.182
L200.719 96.7341
L201.203 96.7341
L201.203 99.8382
L201.719 99.8382
L201.719 102.166
L202.248 102.166
L202.248 103.718
L202.754 103.718
L202.754 101.39
L203.253 101.39
L203.253 100.614
L203.742 100.614
L203.742 99.8382
L204.317 99.8382
L204.317 95.182
L204.853 95.182
L204.853 92.8539
L205.35 92.8539
L205.35 97.5101
L205.857 97.5101
L205.857 93.6299
L206.372 93.6299
L206.372 94.406
L206.891 94.406
L206.891 99.0622
L207.399 99.0622
L207.399 96.7341
L207.874 96.7341
L207.874 101.39
L208.422 101.39
L208.422 94.406
L208.917 94.406
L208.917 95.9581
L209.445 95.9581
L209.445 93.6299
L209.958 93.6299
L209.958 98.2862
L210.464 98.2862
L210.464 95.182
L210.924 95.182
L210.924 96.7341
L211.47 96.7341
L211.47 92.8539
L211.937 92.8539
L211.937 89.7498
L212.433 89.7498
L212.433 92.0779
L213.004 92.0779
L213.004 94.406
L214.054 94.406
L214.054 86.6456
L214.518 86.6456
L214.518 83.5415
L215.161 83.5415
L215.161 85.8696
L215.667 85.8696
L215.667 79.6613
L216.679 79.6613
L216.679 74.229
L217.187 74.229
L217.187 75.0051
L217.677 75.0051
L217.677 76.5571
L218.2 76.5571
L218.2 75.7811
L218.69 75.7811
L218.69 71.1249
L219.22 71.1249
L219.22 72.677
L219.842 72.677
L219.842 71.1249
L220.371 71.1249
L220.371 68.7968
L220.936 68.7968
L220.936 72.677
L221.431 72.677
L221.431 75.7811
L221.982 75.7811
L221.982 74.229
L222.942 74.229
L222.942 76.5571
L223.435 76.5571
L223.435 74.229
L223.981 74.229
L223.981 73.453
L224.526 73.453
L224.526 69.5728
L225.014 69.5728
L225.014 72.677
L226.092 72.677
L226.092 68.7968
L226.634 68.7968
L226.634 67.2447
L227.133 67.2447
L227.133 69.5728
L227.647 69.5728
L227.647 64.9166
L228.155 64.9166
L228.155 70.3488
L228.669 70.3488
L228.669 75.7811
L229.249 75.7811
L229.249 68.7968
L230.272 68.7968
L230.272 71.1249
L230.749 71.1249
L230.749 64.1406
L231.271 64.1406
L231.271 68.7968
L231.733 68.7968
L231.733 73.453
L232.182 73.453
L232.182 74.229
L232.714 74.229
L232.714 72.677
L233.263 72.677
L233.263 80.4373
L233.811 80.4373
L233.811 77.3332
L234.833 77.3332
L234.833 78.1092
L235.338 78.1092
L235.338 75.0051
L235.909 75.0051
L235.909 74.229
L236.462 74.229
L236.462 75.0051
L236.983 75.0051
L236.983 75.7811
L237.535 75.7811
L237.535 75.0051
L238.096 75.0051
L238.096 71.9009
L238.619 71.9009
L238.619 75.7811
L239.177 75.7811
L239.177 73.453
L239.66 73.453
L239.66 70.3488
L240.199 70.3488
L240.199 75.7811
L240.69 75.7811
L240.69 76.5571
L241.193 76.5571
L241.193 74.229
L241.676 74.229
L241.676 75.7811
L242.231 75.7811
L242.231 79.6613
L242.809 79.6613
L242.809 72.677
L243.258 72.677
L243.258 71.9009
L243.794 71.9009
L243.794 74.229
L244.354 74.229
L244.354 71.1249
L245.346 71.1249
L245.346 75.0051
L245.873 75.0051
L245.873 76.5571
L246.4 76.5571
L246.4 77.3332
L246.923 77.3332
L246.923 81.9894
L247.424 81.9894
L247.424 76.5571
L247.913 76.5571
L247.913 71.9009
L249.023 71.9009
L249.023 75.0051
L249.544 75.0051
L249.544 79.6613
L250.091 79.6613
L250.091 81.9894
L250.617 81.9894
L250.617 80.4373
L251.135 80.4373
L251.135 81.2134
L252.08 81.2134
L252.08 86.6456
L252.559 86.6456
L252.559 79.6613
L253.089 79.6613
L253.089 81.2134
L253.567 81.2134
L253.567 79.6613
L254.057 79.6613
L254.057 81.2134
L254.61 81.2134
L254.61 75.7811
L255.203 75.7811
L255.203 78.8852
L255.754 78.8852
L255.754 81.9894
L256.239 81.9894
L256.239 88.9737
L256.757 88.9737
L256.757 85.0935
L257.292 85.0935
L257.292 89.7498
L257.732 89.7498
L257.732 90.5258
L258.229 90.5258
L258.229 87.4217
L259.313 87.4217
L259.313 79.6613
L259.886 79.6613
L259.886 82.7654
L260.487 82.7654
L260.487 84.3175
L260.984 84.3175
L260.984 83.5415
L261.45 83.5415
L261.45 88.9737
L261.969 88.9737
L261.969 89.7498
L262.505 89.7498
L262.505 86.6456
L263.097 86.6456
L263.097 91.3018
L263.654 91.3018
L263.654 90.5258
L264.139 90.5258
L264.139 92.0779
L264.673 92.0779
L264.673 86.6456
L265.176 86.6456
L265.176 88.9737
L265.785 88.9737
L265.785 89.7498
L266.318 89.7498
L266.318 86.6456
L266.864 86.6456
L266.864 88.9737
L267.443 88.9737
L267.443 92.8539
L268.02 92.8539
L268.02 88.9737
L268.493 88.9737
L268.493 82.7654
L269.496 82.7654
L269.496 81.9894
L270.094 81.9894
L270.094 86.6456
L270.55 86.6456
L270.55 85.8696
L271.066 85.8696
L271.066 84.3175
L271.603 84.3175
L271.603 86.6456
L272.068 86.6456
L272.068 88.1977
L272.579 88.1977
L272.579 91.3018
L273.145 91.3018
L273.145 92.0779
L273.625 92.0779
L273.625 93.6299
L274.149 93.6299
L274.149 99.0622
L274.604 99.0622
L274.604 106.823
L275.139 106.823
L275.139 106.047
L276.181 106.047
L276.181 105.271
L276.719 105.271
L276.719 107.599
L277.249 107.599
L277.249 111.479
L277.775 111.479
L277.775 113.807
L278.811 113.807
L278.811 113.031
L279.451 113.031
L279.451 109.927
L280.012 109.927
L280.012 110.703
L280.527 110.703
L280.527 108.375
L280.991 108.375
L280.991 105.271
L281.529 105.271
L281.529 107.599
L282.034 107.599
L282.034 103.718
L282.553 103.718
L282.553 106.047
L283.118 106.047
L283.118 104.494
L283.629 104.494
L283.629 102.166
L284.166 102.166
L284.166 99.0622
L284.643 99.0622
L284.643 102.166
L285.148 102.166
L285.148 99.8382
L286.244 99.8382
L286.244 105.271
L286.745 105.271
L286.745 106.047
L288.348 106.047
L288.348 106.823
L288.921 106.823
L288.921 106.047
L290.457 106.047
L290.457 105.271
L291.004 105.271
L291.004 109.927
L292.067 109.927
L292.067 105.271
L292.596 105.271
L292.596 103.718
L293.121 103.718
L293.121 109.151
L293.682 109.151
L293.682 108.375
L294.202 108.375
L294.202 109.927
L295.772 109.927
L295.772 110.703
L296.262 110.703
L296.262 116.135
L296.781 116.135
L296.781 113.031
L297.302 113.031
L297.302 110.703
L297.853 110.703
L297.853 109.927
L298.325 109.927
L298.325 114.583
L298.839 114.583
L298.839 115.359
L299.429 115.359
L299.429 117.687
L299.935 117.687
L299.935 118.463
L300.456 118.463
L300.456 116.911
L300.926 116.911
L300.926 116.135
L301.484 116.135
L301.484 123.119
L302.04 123.119
L302.04 116.911
L303.084 116.911
L303.084 113.807
L303.664 113.807
L303.664 112.255
L304.16 112.255
L304.16 113.031
L305.281 113.031
L305.281 117.687
L305.819 117.687
L305.819 116.911
L306.279 116.911
L306.279 114.583
L306.872 114.583
L306.872 115.359
L307.399 115.359
L307.399 116.911
L307.959 116.911
L307.959 103.718
L308.498 103.718
L308.498 107.599
L309 107.599
L309 108.375
L309.545 108.375
L309.545 104.494
L310.112 104.494
L310.112 102.166
L310.673 102.166
L310.673 101.39
L311.228 101.39
L311.228 98.2862
L311.735 98.2862
L311.735 97.5101
L312.265 97.5101
L312.265 98.2862
L312.789 98.2862
L312.789 99.8382
L313.315 99.8382
L313.315 103.718
L313.832 103.718
L313.832 102.942
L314.402 102.942
L314.402 104.494
L314.91 104.494
L314.91 102.166
L315.438 102.166
L315.438 101.39
L316.056 101.39
L316.056 106.047
L316.515 106.047
L316.515 109.927
L317.097 109.927
L317.097 110.703
L317.649 110.703
L317.649 109.151
L318.105 109.151
L318.105 106.823
L318.627 106.823
L318.627 105.271
L319.251 105.271
L319.251 106.047
L319.745 106.047
L319.745 107.599
L320.285 107.599
L320.285 109.151
L320.826 109.151
L320.826 106.823
L321.397 106.823
L321.397 109.151
L321.975 109.151
L321.975 106.823
L322.515 106.823
L322.515 104.494
L323.026 104.494
L323.026 102.942
L323.49 102.942
L323.49 104.494
L324.052 104.494
L324.052 99.0622
L324.529 99.0622
L324.529 95.9581
L325.085 95.9581
L325.085 85.8696
L325.621 85.8696
L325.621 84.3175
L326.167 84.3175
L326.167 86.6456
L326.632 86.6456
L326.632 90.5258
L327.211 90.5258
L327.211 92.0779
L327.716 92.0779
L327.716 94.406
L328.251 94.406
L328.251 95.182
L328.806 95.182
L328.806 95.9581
L329.311 95.9581
L329.311 106.823
L329.861 106.823
L329.861 106.047
L330.385 106.047
L330.385 108.375
L330.918 108.375
L330.918 107.599
L331.438 107.599
L331.438 105.271
L331.946 105.271
L331.946 95.182
L332.414 95.182
L332.414 96.7341
L332.94 96.7341
L332.94 99.0622
L333.535 99.0622
L333.535 95.182
L334.118 95.182
L334.118 95.9581
L334.685 95.9581
L334.685 93.6299
L335.167 93.6299
L335.167 88.1977
L335.718 88.1977
L335.718 88.9737
L336.187 88.9737
L336.187 92.0779
L336.729 92.0779
L336.729 95.182
L337.292 95.182
L337.292 95.9581
L337.834 95.9581
L337.834 99.8382
L338.918 99.8382
L338.918 96.7341
L339.46 96.7341
L339.46 98.2862
L339.971 98.2862
L339.971 102.942
L340.53 102.942
L340.53 102.166
L341.055 102.166
L341.055 100.614
L341.543 100.614
L341.543 95.9581
L342.136 95.9581
L342.136 99.0622
L342.667 99.0622
L342.667 99.8382
L343.189 99.8382
L343.189 99.0622
L343.664 99.0622
L343.664 102.942
L344.228 102.942
L344.228 101.39
L344.8 101.39
L344.8 96.7341
L345.836 96.7341
L345.836 95.9581
L346.39 95.9581
L346.39 92.0779
L346.928 92.0779
L346.928 88.1977
L347.88 88.1977
L347.88 91.3018
L348.468 91.3018
L348.468 99.0622
L349.05 99.0622
L349.05 102.166
L349.543 102.166
L349.543 105.271
L350.112 105.271
L350.112 107.599
L350.685 107.599
L350.685 105.271
L351.185 105.271
L351.185 106.823
L351.726 106.823
L351.726 104.494
L352.362 104.494
L352.362 102.942
L352.888 102.942
L352.888 105.271
L353.476 105.271
L353.476 104.494
L354.024 104.494
L354.024 109.151
L354.586 109.151
L354.586 105.271
L355.1 105.271
L355.1 107.599
L355.62 107.599
L355.62 109.151
L356.184 109.151
L356.184 109.927
L356.667 109.927
L356.667 114.583
L357.203 114.583
L357.203 107.599
L357.733 107.599
L357.733 110.703
L358.289 110.703
L358.289 105.271
L358.938 105.271
L358.938 111.479
L359.452 111.479
L359.452 113.031
L360.039 113.031
L360.039 112.255
L361.185 112.255
L361.185 107.599
L361.682 107.599
L361.682 110.703
L362.195 110.703
L362.195 108.375
L362.749 108.375
L362.749 104.494
L363.251 104.494
L363.251 106.823
L363.781 106.823
L363.781 105.271
L364.307 105.271
L364.307 100.614
L364.893 100.614
L364.893 99.0622
L365.43 99.0622
L365.43 102.166
L365.946 102.166
L365.946 96.7341
L366.495 96.7341
L366.495 94.406
L367.006 94.406
L367.006 95.182
L367.579 95.182
L367.579 93.6299
L368.118 93.6299
L368.118 89.7498
L368.699 89.7498
L368.699 88.9737
L369.218 88.9737
L369.218 88.1977
L369.734 88.1977
L369.734 89.7498
L370.224 89.7498
L370.224 90.5258
L370.818 90.5258
L370.818 88.1977
L371.364 88.1977
L371.364 95.9581
L374.089 95.9581
L374.089 88.9737
L374.629 88.9737
L374.629 90.5258
L375.148 90.5258
L375.148 91.3018
L375.715 91.3018
L375.715 88.1977
L376.226 88.1977
L376.226 89.7498
L376.725 89.7498
L376.725 91.3018
L377.285 91.3018
L377.285 88.9737
L377.829 88.9737
L377.829 85.8696
L378.377 85.8696
L378.377 92.8539
L379.006 92.8539
L379.006 95.182
L379.494 95.182
L379.494 97.5101
L379.971 97.5101
L379.971 93.6299
L380.491 93.6299
L380.491 95.182
L381.037 95.182
L381.037 88.1977
L381.645 88.1977
L381.645 87.4217
L382.685 87.4217
L382.685 88.1977
L383.212 88.1977
L383.212 90.5258
L383.748 90.5258
L383.748 91.3018
L384.271 91.3018
L384.271 90.5258
L384.803 90.5258
L384.803 89.7498
L385.98 89.7498
L385.98 88.9737
L386.455 88.9737
L386.455 88.1977
L387.529 88.1977
L387.529 85.0935
L388.044 85.0935
L388.044 82.7654
L388.614 82.7654
L388.614 81.2134
L389.111 81.2134
L389.111 78.1092
L390.305 78.1092
L390.305 79.6613
L390.862 79.6613
L390.862 75.0051
L391.41 75.0051
L391.41 67.2447
L391.918 67.2447
L391.918 68.7968
L392.439 68.7968
L392.439 71.1249
L392.906 71.1249
L392.906 70.3488
L393.469 70.3488
L393.469 71.9009
L394.011 71.9009
L394.011 74.229
L394.502 74.229
L394.502 77.3332
L395.081 77.3332
L395.081 79.6613
L395.614 79.6613
L395.614 82.7654
L396.115 82.7654
L396.115 81.2134
L396.669 81.2134
L396.669 87.4217
L397.171 87.4217
L397.171 85.8696
L397.801 85.8696
L397.801 87.4217
L398.329 87.4217
L398.329 93.6299
L398.868 93.6299
L398.868 89.7498
L399.448 89.7498
L399.448 91.3018
L400.062 91.3018
L400.062 84.3175
L400.606 84.3175
L400.606 85.8696
L401.117 85.8696
L401.117 91.3018
L401.643 91.3018
L401.643 85.8696
L402.18 85.8696
L402.18 89.7498
L402.647 89.7498
L402.647 88.9737
L403.199 88.9737
L403.199 84.3175
L403.757 84.3175
L403.757 82.7654
L404.296 82.7654
L404.296 84.3175
L404.865 84.3175
L404.865 88.1977
L405.395 88.1977
L405.395 83.5415
L405.971 83.5415
L405.971 78.8852
L406.506 78.8852
L406.506 75.7811
L407.014 75.7811
L407.014 81.2134
L408.14 81.2134
L408.14 77.3332
L408.597 77.3332
L408.597 78.8852
L409.199 78.8852
L409.199 78.1092
L409.726 78.1092
L409.726 81.2134
L410.304 81.2134
L410.304 77.3332
L410.785 77.3332
L410.785 79.6613
L411.369 79.6613
L411.369 75.7811
L411.922 75.7811
L411.922 72.677
L412.487 72.677
L412.487 71.1249
L413.098 71.1249
L413.098 68.0207
L413.689 68.0207
L413.689 66.4687
L414.26 66.4687
L414.26 64.1406
L414.826 64.1406
L414.826 61.8124
L415.39 61.8124
L415.39 57.1562
L415.926 57.1562
L415.926 61.0364
L416.483 61.0364
L416.483 65.6926
L416.976 65.6926
L416.976 62.5885
L417.521 62.5885
L417.521 65.6926
L418.095 65.6926
L418.095 70.3488
L418.599 70.3488
L418.599 65.6926
L419.113 65.6926
L419.113 60.2604
L419.767 60.2604
L419.767 58.7083
L420.318 58.7083
L420.318 59.4843
L420.83 59.4843
L420.83 50.1719
L421.35 50.1719
L421.35 54.8281
L421.874 54.8281
L421.874 51.724
L422.393 51.724
L422.393 55.6041
L422.978 55.6041
L422.978 50.9479
L423.468 50.9479
L423.468 54.0521
L423.979 54.0521
L423.979 55.6041
L424.511 55.6041
L424.511 59.4843
L425.07 59.4843
L425.07 57.9323
L425.58 57.9323
L425.58 57.1562
L426.154 57.1562
L426.154 52.5
L427.207 52.5
L427.207 44.7396
L427.765 44.7396
L427.765 46.2917
L428.335 46.2917
L428.335 48.6198
L428.866 48.6198
L428.866 52.5
L429.456 52.5
L429.456 50.1719
L430.025 50.1719
L430.025 54.8281
L430.562 54.8281
L430.562 53.276
L431.056 53.276
L431.056 50.9479
L431.645 50.9479
L431.645 50.1719
L432.187 50.1719
L432.187 53.276
L432.661 53.276
L432.661 50.1719
L433.268 50.1719
L433.268 53.276
L433.799 53.276
L433.799 47.8438
L434.873 47.8438
L434.873 41.6355
L435.443 41.6355
L435.443 40.0834
L435.954 40.0834
L435.954 36.9793
L436.52 36.9793
L436.52 38.5313
L437.072 38.5313
L437.072 36.9793
L437.638 36.9793
L437.638 37.7553
L438.104 37.7553
L438.104 38.5313
L438.671 38.5313
L438.671 40.0834
L439.182 40.0834
L439.182 43.1876
L439.746 43.1876
L439.746 44.7396
L440.262 44.7396
L440.262 42.4115
L440.81 42.4115
L440.81 41.6355
L441.377 41.6355
L441.377 37.7553
L441.938 37.7553
L441.938 40.0834
L442.994 40.0834
L442.994 40.8594
L443.611 40.8594
L443.611 36.2032
L444.153 36.2032
L444.153 33.8751
L444.629 33.8751
L444.629 33.0991
L445.166 33.0991
L445.166 33.8751
L445.761 33.8751
L445.761 36.9793
L446.365 36.9793
L446.365 37.7553
L446.91 37.7553
L446.91 40.0834
L447.399 40.0834
L447.399 43.1876
L447.957 43.1876
L447.957 41.6355
L448.514 41.6355
L448.514 47.0677
L449.106 47.0677
L449.106 45.5157
L450.204 45.5157
L450.204 42.4115
L450.729 42.4115
L450.729 44.7396
L451.298 44.7396
L451.298 43.9636
L451.896 43.9636
L451.896 44.7396
L452.379 44.7396
L452.379 46.2917
L452.93 46.2917
L452.93 49.3959
L453.436 49.3959
L453.436 51.724
L453.981 51.724
L453.981 54.8281
L454.504 54.8281
L454.504 58.7083
L454.996 58.7083
L454.996 57.1562
L455.533 57.1562
L455.533 58.7083
L456.094 58.7083
L456.094 62.5885
L456.688 62.5885
L456.688 58.7083
L457.239 58.7083
L457.239 60.2604
L457.791 60.2604
L457.791 61.0364
L458.293 61.0364
L458.293 63.3645
L458.79 63.3645
L458.79 61.8124
L459.363 61.8124
L459.363 65.6926
L459.952 65.6926
L459.952 61.8124
L460.532 61.8124
L460.532 56.3802
L461.076 56.3802
L461.076 52.5
L461.697 52.5
L461.697 53.276
L462.244 53.276
L462.244 51.724
L462.796 51.724
L462.796 54.0521
L463.331 54.0521
L463.331 57.9323
L463.833 57.9323
L463.833 50.1719
L464.407 50.1719
L464.407 47.8438
L464.921 47.8438
L464.921 50.9479
L465.553 50.9479
L465.553 44.7396
L466.12 44.7396
L466.12 36.9793
L466.64 36.9793
L466.64 32.323
L467.169 32.323
L467.169 33.8751
L467.737 33.8751
L467.737 38.5313
L468.313 38.5313
L468.313 35.4272
L470.583 35.4272
L470.583 33.0991
L471.081 33.0991
L471.081 36.9793
L471.639 36.9793
L471.639 39.3074
L472.205 39.3074
L472.205 36.9793
L472.76 36.9793
L472.76 33.0991
L473.296 33.0991
L473.296 29.9949
L473.832 29.9949
L473.832 36.9793
L474.306 36.9793
L474.306 37.7553
L475.454 37.7553
L475.454 40.0834
L475.95 40.0834
L475.95 37.7553
L476.532 37.7553
L476.532 34.6512
L477.044 34.6512
L477.044 31.547
L477.565 31.547
L477.565 36.2032
L478.096 36.2032
L478.096 33.0991
L478.649 33.0991
L478.649 32.323
L479.834 32.323
L479.834 29.2189
L480.42 29.2189
L480.42 33.8751
L480.918 33.8751
L480.918 31.547
L481.43 31.547
L481.43 33.8751
L482.049 33.8751
L482.049 34.6512
L482.555 34.6512
L482.555 26.1147
L483.081 26.1147
L483.081 26.8908
L483.598 26.8908
L483.598 23.0106
L484.165 23.0106
L484.165 25.3387
L485.28 25.3387
L485.28 26.8908
L485.869 26.8908
L485.869 27.6668
L486.376 27.6668
L486.376 26.8908
L486.928 26.8908
L486.928 30.771
L487.472 30.771
L487.472 26.1147
L488.003 26.1147
L488.003 26.8908
L489.16 26.8908
L489.16 23.7866
L489.685 23.7866
L489.685 25.3387
L490.249 25.3387
L490.249 28.4429
L490.775 28.4429
L490.775 31.547
L491.32 31.547
L491.32 25.3387
L491.924 25.3387
L491.924 24.5627
L492.459 24.5627
L492.459 23.7866
L493.01 23.7866
L493.01 25.3387
L493.625 25.3387
L493.625 23.7866
L494.158 23.7866
L494.158 26.8908
L494.746 26.8908
L494.746 25.3387
L495.328 25.3387
L495.328 26.8908
L495.91 26.8908
L495.91 23.7866
L496.431 23.7866
L496.431 21.4585
L496.96 21.4585
L496.96 19.1304
L497.458 19.1304
L497.458 19.9065
L497.976 19.9065
L497.976 14.4742
L498.462 14.4742
L498.462 13.6982
L499.58 13.6982
L499.58 15.2502
L500.139 15.2502
L500.139 16.0263
L500.851 16.0263
L500.851 10.594
L501.358 10.594
L501.358 13.6982
L501.925 13.6982
L501.925 10.594
L502.473 10.594
L502.473 17.5783
L502.984 17.5783
L502.984 20.6825
L503.527 20.6825
L503.527 22.2346
L504.103 22.2346
L504.103 20.6825
L504.673 20.6825
L504.673 17.5783
L505.187 17.5783
L505.187 20.6825
L505.741 20.6825
L505.741 22.2346
L506.267 22.2346
L506.267 23.0106
L506.752 23.0106
L506.752 23.7866
L507.305 23.7866
L507.305 21.4585
L507.887 21.4585
L507.887 20.6825
L508.486 20.6825
L508.486 24.5627
L509.024 24.5627
L509.024 18.3544
L509.597 18.3544
L509.597 19.9065
L510.152 19.9065
L510.152 23.7866
L510.706 23.7866
L510.706 25.3387
L511.28 25.3387
L511.28 16.8023
L511.787 16.8023
L511.787 18.3544
L512.372 18.3544
L512.372 12.1461
L512.953 12.1461
L512.953 14.4742
L513.51 14.4742
L513.51 16.8023
L514.083 16.8023
L514.083 18.3544
L514.63 18.3544
L514.63 16.0263
L515.148 16.0263
L515.148 18.3544
L515.7 18.3544
L515.7 14.4742
L516.23 14.4742
L516.23 22.2346
L516.823 22.2346
L516.823 23.0106
L517.397 23.0106
L517.397 24.5627
L517.979 24.5627
L517.979 23.0106
L518.531 23.0106
L518.531 20.6825
L519.14 20.6825
L519.14 18.3544
L519.668 18.3544
L519.668 19.1304
L520.188 19.1304
L520.188 24.5627
L520.769 24.5627
L520.769 21.4585
L521.361 21.4585
L521.361 16.0263
L521.913 16.0263
L521.913 15.2502
L522.452 15.2502
L522.452 14.4742
L523.089 14.4742
L523.089 13.6982
L523.66 13.6982
L523.66 10.594
L524.204 10.594
L524.204 11.37
L524.803 11.37
L524.803 9.81798
L525.828 9.81798
L525.828 12.1461
L526.385 12.1461
L526.385 14.4742
L526.928 14.4742
L526.928 22.2346
L527.458 22.2346
L527.458 23.7866
L528.043 23.7866
L528.043 25.3387
L528.625 25.3387
L528.625 19.9065
L529.177 19.9065
L529.177 23.0106
L529.74 23.0106
L529.74 30.771
L530.232 30.771
L530.232 31.547
L530.752 31.547
L530.752 33.8751
L531.918 33.8751
L531.918 33.0991
L532.416 33.0991
L532.416 40.0834
L532.987 40.0834
L532.987 38.5313
L533.636 38.5313
L533.636 29.9949
L534.166 29.9949
L534.166 29.2189
L534.773 29.2189
L534.773 26.8908
L535.907 26.8908
L535.907 28.4429
L536.486 28.4429
L536.486 29.9949
L537.062 29.9949
L537.062 28.4429
L538.177 28.4429
L538.177 23.0106
L538.719 23.0106
L538.719 21.4585
L539.307 21.4585
L539.307 16.8023
L539.914 16.8023
L539.914 20.6825
L540.457 20.6825
L540.457 23.0106
L540.98 23.0106
L540.98 19.1304
L541.572 19.1304
L541.572 23.7866
L542.154 23.7866
L542.154 25.3387
L542.718 25.3387
L542.718 23.7866
L543.245 23.7866
L543.245 29.9949
L543.759 29.9949
L543.759 32.323
L544.313 32.323
L544.313 25.3387
L544.887 25.3387
L544.887 25.3387" style="fill:none;stroke:#0000ff;"/>
   </g>
   <g id="matplotlib.axis_1">
    <g id="xtick_1">
     <g id="line2d_2">
      <defs>
       <path d="
M0 0
L0 -4" id="mb98c1d77ad"/>
      </defs>
      <g>
       <use style="stroke:#000000;stroke-linecap:butt;stroke-width:0.5;" x="28.890625" xlink:href="#mb98c1d77ad" y="107.986628735"/>
      </g>
     </g>
    </g>
    <g id="xtick_2">
     <g id="line2d_3">
      <defs>
       <path d="
M0 0
L0 -4" id="mb98c1d77ad"/>
      </defs>
      <g>
       <use style="stroke:#000000;stroke-linecap:butt;stroke-width:0.5;" x="132.137232815" xlink:href="#mb98c1d77ad" y="107.986628735"/>
      </g>
     </g>
     <g id="text_1">
      <!-- 2e5 -->
      <defs>
       <path d="
M19.1875 8.29688
L53.6094 8.29688
L53.6094 0
L7.32812 0
L7.32812 8.29688
Q12.9375 14.1094 22.625 23.8906
Q32.3281 33.6875 34.8125 36.5312
Q39.5469 41.8438 41.4219 45.5312
Q43.3125 49.2188 43.3125 52.7812
Q43.3125 58.5938 39.2344 62.25
Q35.1562 65.9219 28.6094 65.9219
Q23.9688 65.9219 18.8125 64.3125
Q13.6719 62.7031 7.8125 59.4219
L7.8125 69.3906
Q13.7656 71.7812 18.9375 73
Q24.125 74.2188 28.4219 74.2188
Q39.75 74.2188 46.4844 68.5469
Q53.2188 62.8906 53.2188 53.4219
Q53.2188 48.9219 51.5312 44.8906
Q49.8594 40.875 45.4062 35.4062
Q44.1875 33.9844 37.6406 27.2188
Q31.1094 20.4531 19.1875 8.29688" id="BitstreamVeraSans-Roman-32"/>
       <path d="
M56.2031 29.5938
L56.2031 25.2031
L14.8906 25.2031
Q15.4844 15.9219 20.4844 11.0625
Q25.4844 6.20312 34.4219 6.20312
Q39.5938 6.20312 44.4531 7.46875
Q49.3125 8.73438 54.1094 11.2812
L54.1094 2.78125
Q49.2656 0.734375 44.1875 -0.34375
Q39.1094 -1.42188 33.8906 -1.42188
Q20.7969 -1.42188 13.1562 6.1875
Q5.51562 13.8125 5.51562 26.8125
Q5.51562 40.2344 12.7656 48.1094
Q20.0156 56 32.3281 56
Q43.3594 56 49.7812 48.8906
Q56.2031 41.7969 56.2031 29.5938
M47.2188 32.2344
Q47.125 39.5938 43.0938 43.9844
Q39.0625 48.3906 32.4219 48.3906
Q24.9062 48.3906 20.3906 44.1406
Q15.875 39.8906 15.1875 32.1719
z
" id="BitstreamVeraSans-Roman-65"/>
       <path d="
M10.7969 72.9062
L49.5156 72.9062
L49.5156 64.5938
L19.8281 64.5938
L19.8281 46.7344
Q21.9688 47.4688 24.1094 47.8281
Q26.2656 48.1875 28.4219 48.1875
Q40.625 48.1875 47.75 41.5
Q54.8906 34.8125 54.8906 23.3906
Q54.8906 11.625 47.5625 5.09375
Q40.2344 -1.42188 26.9062 -1.42188
Q22.3125 -1.42188 17.5469 -0.640625
Q12.7969 0.140625 7.71875 1.70312
L7.71875 11.625
Q12.1094 9.23438 16.7969 8.0625
Q21.4844 6.89062 26.7031 6.89062
Q35.1562 6.89062 40.0781 11.3281
Q45.0156 15.7656 45.0156 23.3906
Q45.0156 31 40.0781 35.4375
Q35.1562 39.8906 26.7031 39.8906
Q22.75 39.8906 18.8125 39.0156
Q14.8906 38.1406 10.7969 36.2812
z
" id="BitstreamVeraSans-Roman-35"/>
      </defs>
      <g transform="translate(123.501295315 119.408503735)scale(0.1 -0.1)">
       <use xlink:href="#BitstreamVeraSans-Roman-32"/>
       <use x="63.623046875" xlink:href="#BitstreamVeraSans-Roman-65"/>
       <use x="125.146484375" xlink:href="#BitstreamVeraSans-Roman-35"/>
      </g>
     </g>
    </g>
    <g id="xtick_3">
     <g id="line2d_4">
      <defs>
       <path d="
M0 0
L0 -4" id="mb98c1d77ad"/>
      </defs>
      <g>
       <use style="stroke:#000000;stroke-linecap:butt;stroke-width:0.5;" x="235.383840631" xlink:href="#mb98c1d77ad" y="107.986628735"/>
      </g>
     </g>
     <g id="text_2">
      <!-- 4e5 -->
      <defs>
       <path d="
M37.7969 64.3125
L12.8906 25.3906
L37.7969 25.3906
z

M35.2031 72.9062
L47.6094 72.9062
L47.6094 25.3906
L58.0156 25.3906
L58.0156 17.1875
L47.6094 17.1875
L47.6094 0
L37.7969 0
L37.7969 17.1875
L4.89062 17.1875
L4.89062 26.7031
z
" id="BitstreamVeraSans-Roman-34"/>
      </defs>
      <g transform="translate(226.626028131 119.277253735)scale(0.1 -0.1)">
       <use xlink:href="#BitstreamVeraSans-Roman-34"/>
       <use x="63.623046875" xlink:href="#BitstreamVeraSans-Roman-65"/>
       <use x="125.146484375" xlink:href="#BitstreamVeraSans-Roman-35"/>
      </g>
     </g>
    </g>
    <g id="xtick_4">
     <g id="line2d_5">
      <defs>
       <path d="
M0 0
L0 -4" id="mb98c1d77ad"/>
      </defs>
      <g>
       <use style="stroke:#000000;stroke-linecap:butt;stroke-width:0.5;" x="338.630448446" xlink:href="#mb98c1d77ad" y="107.986628735"/>
      </g>
     </g>
     <g id="text_3">
      <!-- 6e5 -->
      <defs>
       <path d="
M33.0156 40.375
Q26.375 40.375 22.4844 35.8281
Q18.6094 31.2969 18.6094 23.3906
Q18.6094 15.5312 22.4844 10.9531
Q26.375 6.39062 33.0156 6.39062
Q39.6562 6.39062 43.5312 10.9531
Q47.4062 15.5312 47.4062 23.3906
Q47.4062 31.2969 43.5312 35.8281
Q39.6562 40.375 33.0156 40.375
M52.5938 71.2969
L52.5938 62.3125
Q48.875 64.0625 45.0938 64.9844
Q41.3125 65.9219 37.5938 65.9219
Q27.8281 65.9219 22.6719 59.3281
Q17.5312 52.7344 16.7969 39.4062
Q19.6719 43.6562 24.0156 45.9219
Q28.375 48.1875 33.5938 48.1875
Q44.5781 48.1875 50.9531 41.5156
Q57.3281 34.8594 57.3281 23.3906
Q57.3281 12.1562 50.6875 5.35938
Q44.0469 -1.42188 33.0156 -1.42188
Q20.3594 -1.42188 13.6719 8.26562
Q6.98438 17.9688 6.98438 36.375
Q6.98438 53.6562 15.1875 63.9375
Q23.3906 74.2188 37.2031 74.2188
Q40.9219 74.2188 44.7031 73.4844
Q48.4844 72.75 52.5938 71.2969" id="BitstreamVeraSans-Roman-36"/>
      </defs>
      <g transform="translate(329.977323446 119.408503735)scale(0.1 -0.1)">
       <use xlink:href="#BitstreamVeraSans-Roman-36"/>
       <use x="63.623046875" xlink:href="#BitstreamVeraSans-Roman-65"/>
       <use x="125.146484375" xlink:href="#BitstreamVeraSans-Roman-35"/>
      </g>
     </g>
    </g>
    <g id="xtick_5">
     <g id="line2d_6">
      <defs>
       <path d="
M0 0
L0 -4" id="mb98c1d77ad"/>
      </defs>
      <g>
       <use style="stroke:#000000;stroke-linecap:butt;stroke-width:0.5;" x="441.877056262" xlink:href="#mb98c1d77ad" y="107.986628735"/>
      </g>
     </g>
     <g id="text_4">
      <!-- 8e5 -->
      <defs>
       <path d="
M31.7812 34.625
Q24.75 34.625 20.7188 30.8594
Q16.7031 27.0938 16.7031 20.5156
Q16.7031 13.9219 20.7188 10.1562
Q24.75 6.39062 31.7812 6.39062
Q38.8125 6.39062 42.8594 10.1719
Q46.9219 13.9688 46.9219 20.5156
Q46.9219 27.0938 42.8906 30.8594
Q38.875 34.625 31.7812 34.625
M21.9219 38.8125
Q15.5781 40.375 12.0312 44.7188
Q8.5 49.0781 8.5 55.3281
Q8.5 64.0625 14.7188 69.1406
Q20.9531 74.2188 31.7812 74.2188
Q42.6719 74.2188 48.875 69.1406
Q55.0781 64.0625 55.0781 55.3281
Q55.0781 49.0781 51.5312 44.7188
Q48 40.375 41.7031 38.8125
Q48.8281 37.1562 52.7969 32.3125
Q56.7812 27.4844 56.7812 20.5156
Q56.7812 9.90625 50.3125 4.23438
Q43.8438 -1.42188 31.7812 -1.42188
Q19.7344 -1.42188 13.25 4.23438
Q6.78125 9.90625 6.78125 20.5156
Q6.78125 27.4844 10.7812 32.3125
Q14.7969 37.1562 21.9219 38.8125
M18.3125 54.3906
Q18.3125 48.7344 21.8438 45.5625
Q25.3906 42.3906 31.7812 42.3906
Q38.1406 42.3906 41.7188 45.5625
Q45.3125 48.7344 45.3125 54.3906
Q45.3125 60.0625 41.7188 63.2344
Q38.1406 66.4062 31.7812 66.4062
Q25.3906 66.4062 21.8438 63.2344
Q18.3125 60.0625 18.3125 54.3906" id="BitstreamVeraSans-Roman-38"/>
      </defs>
      <g transform="translate(433.213775012 119.408503735)scale(0.1 -0.1)">
       <use xlink:href="#BitstreamVeraSans-Roman-38"/>
       <use x="63.623046875" xlink:href="#BitstreamVeraSans-Roman-65"/>
       <use x="125.146484375" xlink:href="#BitstreamVeraSans-Roman-35"/>
      </g>
     </g>
    </g>
    <g id="xtick_6">
     <g id="line2d_7">
      <defs>
       <path d="
M0 0
L0 -4" id="mb98c1d77ad"/>
      </defs>
      <g>
       <use style="stroke:#000000;stroke-linecap:butt;stroke-width:0.5;" x="545.123664077" xlink:href="#mb98c1d77ad" y="107.986628735"/>
      </g>
     </g>
     <g id="text_5">
      <!-- 1e6 -->
      <defs>
       <path d="
M12.4062 8.29688
L28.5156 8.29688
L28.5156 63.9219
L10.9844 60.4062
L10.9844 69.3906
L28.4219 72.9062
L38.2812 72.9062
L38.2812 8.29688
L54.3906 8.29688
L54.3906 0
L12.4062 0
z
" id="BitstreamVeraSans-Roman-31"/>
      </defs>
      <g transform="translate(536.548664077 119.408503735)scale(0.1 -0.1)">
       <use xlink:href="#BitstreamVeraSans-Roman-31"/>
       <use x="63.623046875" xlink:href="#BitstreamVeraSans-Roman-65"/>
       <use x="125.146484375" xlink:href="#BitstreamVeraSans-Roman-36"/>
      </g>
     </g>
    </g>
    <g id="xtick_7">
     <g id="line2d_8">
      <defs>
       <path d="
M0 0
L0 -2" id="m85a2eaf53d"/>
      </defs>
      <g>
       <use style="stroke:#000000;stroke-linecap:butt;stroke-width:0.5;" x="54.7022769539" xlink:href="#m85a2eaf53d" y="107.986628735"/>
      </g>
     </g>
    </g>
    <g id="xtick_8">
     <g id="line2d_9">
      <defs>
       <path d="
M0 0
L0 -2" id="m85a2eaf53d"/>
      </defs>
      <g>
       <use style="stroke:#000000;stroke-linecap:butt;stroke-width:0.5;" x="80.5139289077" xlink:href="#m85a2eaf53d" y="107.986628735"/>
      </g>
     </g>
    </g>
    <g id="xtick_9">
     <g id="line2d_10">
      <defs>
       <path d="
M0 0
L0 -2" id="m85a2eaf53d"/>
      </defs>
      <g>
       <use style="stroke:#000000;stroke-linecap:butt;stroke-width:0.5;" x="106.325580862" xlink:href="#m85a2eaf53d" y="107.986628735"/>
      </g>
     </g>
    </g>
    <g id="xtick_10">
     <g id="line2d_11">
      <defs>
       <path d="
M0 0
L0 -2" id="m85a2eaf53d"/>
      </defs>
      <g>
       <use style="stroke:#000000;stroke-linecap:butt;stroke-width:0.5;" x="157.948884769" xlink:href="#m85a2eaf53d" y="107.986628735"/>
      </g>
     </g>
    </g>
    <g id="xtick_11">
     <g id="line2d_12">
      <defs>
       <path d="
M0 0
L0 -2" id="m85a2eaf53d"/>
      </defs>
      <g>
       <use style="stroke:#000000;stroke-linecap:butt;stroke-width:0.5;" x="183.760536723" xlink:href="#m85a2eaf53d" y="107.986628735"/>
      </g>
     </g>
    </g>
    <g id="xtick_12">
     <g id="line2d_13">
      <defs>
       <path d="
M0 0
L0 -2" id="m85a2eaf53d"/>
      </defs>
      <g>
       <use style="stroke:#000000;stroke-linecap:butt;stroke-width:0.5;" x="209.572188677" xlink:href="#m85a2eaf53d" y="107.986628735"/>
      </g>
     </g>
    </g>
    <g id="xtick_13">
     <g id="line2d_14">
      <defs>
       <path d="
M0 0
L0 -2" id="m85a2eaf53d"/>
      </defs>
      <g>
       <use style="stroke:#000000;stroke-linecap:butt;stroke-width:0.5;" x="261.195492585" xlink:href="#m85a2eaf53d" y="107.986628735"/>
      </g>
     </g>
    </g>
    <g id="xtick_14">
     <g id="line2d_15">
      <defs>
       <path d="
M0 0
L0 -2" id="m85a2eaf53d"/>
      </defs>
      <g>
       <use style="stroke:#000000;stroke-linecap:butt;stroke-width:0.5;" x="287.007144539" xlink:href="#m85a2eaf53d" y="107.986628735"/>
      </g>
     </g>
    </g>
    <g id="xtick_15">
     <g id="line2d_16">
      <defs>
       <path d="
M0 0
L0 -2" id="m85a2eaf53d"/>
      </defs>
      <g>
       <use style="stroke:#000000;stroke-linecap:butt;stroke-width:0.5;" x="312.818796492" xlink:href="#m85a2eaf53d" y="107.986628735"/>
      </g>
     </g>
    </g>
    <g id="xtick_16">
     <g id="line2d_17">
      <defs>
       <path d="
M0 0
L0 -2" id="m85a2eaf53d"/>
      </defs>
      <g>
       <use style="stroke:#000000;stroke-linecap:butt;stroke-width:0.5;" x="364.4421004" xlink:href="#m85a2eaf53d" y="107.986628735"/>
      </g>
     </g>
    </g>
    <g id="xtick_17">
     <g id="line2d_18">
      <defs>
       <path d="
M0 0
L0 -2" id="m85a2eaf53d"/>
      </defs>
      <g>
       <use style="stroke:#000000;stroke-linecap:butt;stroke-width:0.5;" x="390.253752354" xlink:href="#m85a2eaf53d" y="107.986628735"/>
      </g>
     </g>
    </g>
    <g id="xtick_18">
     <g id="line2d_19">
      <defs>
       <path d="
M0 0
L0 -2" id="m85a2eaf53d"/>
      </defs>
      <g>
       <use style="stroke:#000000;stroke-linecap:butt;stroke-width:0.5;" x="416.065404308" xlink:href="#m85a2eaf53d" y="107.986628735"/>
      </g>
     </g>
    </g>
    <g id="xtick_19">
     <g id="line2d_20">
      <defs>
       <path d="
M0 0
L0 -2" id="m85a2eaf53d"/>
      </defs>
      <g>
       <use style="stroke:#000000;stroke-linecap:butt;stroke-width:0.5;" x="467.688708216" xlink:href="#m85a2eaf53d" y="107.986628735"/>
      </g>
     </g>
    </g>
    <g id="xtick_20">
     <g id="line2d_21">
      <defs>
       <path d="
M0 0
L0 -2" id="m85a2eaf53d"/>
      </defs>
      <g>
       <use style="stroke:#000000;stroke-linecap:butt;stroke-width:0.5;" x="493.500360169" xlink:href="#m85a2eaf53d" y="107.986628735"/>
      </g>
     </g>
    </g>
    <g id="xtick_21">
     <g id="line2d_22">
      <defs>
       <path d="
M0 0
L0 -2" id="m85a2eaf53d"/>
      </defs>
      <g>
       <use style="stroke:#000000;stroke-linecap:butt;stroke-width:0.5;" x="519.312012123" xlink:href="#m85a2eaf53d" y="107.986628735"/>
      </g>
     </g>
    </g>
   </g>
   <g id="matplotlib.axis_2">
    <g id="ytick_1">
     <g id="line2d_23">
      <defs>
       <path d="
M0 0
L4 0" id="me03e4bbd3f"/>
      </defs>
      <g>
       <use style="stroke:#000000;stroke-linecap:butt;stroke-width:0.5;" x="28.890625" xlink:href="#me03e4bbd3f" y="107.986628735"/>
      </g>
     </g>
    </g>
    <g id="ytick_2">
     <g id="line2d_24">
      <defs>
       <path d="
M0 0
L4 0" id="me03e4bbd3f"/>
      </defs>
      <g>
       <use style="stroke:#000000;stroke-linecap:butt;stroke-width:0.5;" x="28.890625" xlink:href="#me03e4bbd3f" y="88.5857092384"/>
      </g>
     </g>
     <g id="text_6">
      <!-- 50 -->
      <defs>
       <path d="
M31.7812 66.4062
Q24.1719 66.4062 20.3281 58.9062
Q16.5 51.4219 16.5 36.375
Q16.5 21.3906 20.3281 13.8906
Q24.1719 6.39062 31.7812 6.39062
Q39.4531 6.39062 43.2812 13.8906
Q47.125 21.3906 47.125 36.375
Q47.125 51.4219 43.2812 58.9062
Q39.4531 66.4062 31.7812 66.4062
M31.7812 74.2188
Q44.0469 74.2188 50.5156 64.5156
Q56.9844 54.8281 56.9844 36.375
Q56.9844 17.9688 50.5156 8.26562
Q44.0469 -1.42188 31.7812 -1.42188
Q19.5312 -1.42188 13.0625 8.26562
Q6.59375 17.9688 6.59375 36.375
Q6.59375 54.8281 13.0625 64.5156
Q19.5312 74.2188 31.7812 74.2188" id="BitstreamVeraSans-Roman-30"/>
      </defs>
      <g transform="translate(13.6015625 92.2255529884)scale(0.1 -0.1)">
       <use xlink:href="#BitstreamVeraSans-Roman-35"/>
       <use x="63.623046875" xlink:href="#BitstreamVeraSans-Roman-30"/>
      </g>
     </g>
    </g>
    <g id="ytick_3">
     <g id="line2d_25">
      <defs>
       <path d="
M0 0
L4 0" id="me03e4bbd3f"/>
      </defs>
      <g>
       <use style="stroke:#000000;stroke-linecap:butt;stroke-width:0.5;" x="28.890625" xlink:href="#me03e4bbd3f" y="69.1847897413"/>
      </g>
     </g>
     <g id="text_7">
      <!-- 100 -->
      <g transform="translate(7.565625 72.8246334913)scale(0.1 -0.1)">
       <use xlink:href="#BitstreamVeraSans-Roman-31"/>
       <use x="63.623046875" xlink:href="#BitstreamVeraSans-Roman-30"/>
       <use x="127.24609375" xlink:href="#BitstreamVeraSans-Roman-30"/>
      </g>
     </g>
    </g>
    <g id="ytick_4">
     <g id="line2d_26">
      <defs>
       <path d="
M0 0
L4 0" id="me03e4bbd3f"/>
      </defs>
      <g>
       <use style="stroke:#000000;stroke-linecap:butt;stroke-width:0.5;" x="28.890625" xlink:href="#me03e4bbd3f" y="49.7838702442"/>
      </g>
     </g>
     <g id="text_8">
      <!-- 150 -->
      <g transform="translate(7.565625 53.4237139942)scale(0.1 -0.1)">
       <use xlink:href="#BitstreamVeraSans-Roman-31"/>
       <use x="63.623046875" xlink:href="#BitstreamVeraSans-Roman-35"/>
       <use x="127.24609375" xlink:href="#BitstreamVeraSans-Roman-30"/>
      </g>
     </g>
    </g>
    <g id="ytick_5">
     <g id="line2d_27">
      <defs>
       <path d="
M0 0
L4 0" id="me03e4bbd3f"/>
      </defs>
      <g>
       <use style="stroke:#000000;stroke-linecap:butt;stroke-width:0.5;" x="28.890625" xlink:href="#me03e4bbd3f" y="30.3829507471"/>
      </g>
     </g>
     <g id="text_9">
      <!-- 200 -->
      <g transform="translate(7.2 34.0227944971)scale(0.1 -0.1)">
       <use xlink:href="#BitstreamVeraSans-Roman-32"/>
       <use x="63.623046875" xlink:href="#BitstreamVeraSans-Roman-30"/>
       <use x="127.24609375" xlink:href="#BitstreamVeraSans-Roman-30"/>
      </g>
     </g>
    </g>
    <g id="ytick_6">
     <g id="line2d_28">
      <defs>
       <path d="
M0 0
L4 0" id="me03e4bbd3f"/>
      </defs>
      <g>
       <use style="stroke:#000000;stroke-linecap:butt;stroke-width:0.5;" x="28.890625" xlink:href="#me03e4bbd3f" y="10.98203125"/>
      </g>
     </g>
     <g id="text_10">
      <!-- 250 -->
      <g transform="translate(7.2 14.621875)scale(0.1 -0.1)">
       <use xlink:href="#BitstreamVeraSans-Roman-32"/>
       <use x="63.623046875" xlink:href="#BitstreamVeraSans-Roman-35"/>
       <use x="127.24609375" xlink:href="#BitstreamVeraSans-Roman-30"/>
      </g>
     </g>
    </g>
    <g id="ytick_7">
     <g id="line2d_29">
      <defs>
       <path d="
M0 0
L2 0" id="m59abd9aada"/>
      </defs>
      <g>
       <use style="stroke:#000000;stroke-linecap:butt;stroke-width:0.5;" x="28.890625" xlink:href="#m59abd9aada" y="123.507364333"/>
      </g>
     </g>
    </g>
    <g id="ytick_8">
     <g id="line2d_30">
      <defs>
       <path d="
M0 0
L2 0" id="m59abd9aada"/>
      </defs>
      <g>
       <use style="stroke:#000000;stroke-linecap:butt;stroke-width:0.5;" x="28.890625" xlink:href="#m59abd9aada" y="119.627180434"/>
      </g>
     </g>
    </g>
    <g id="ytick_9">
     <g id="line2d_31">
      <defs>
       <path d="
M0 0
L2 0" id="m59abd9aada"/>
      </defs>
      <g>
       <use style="stroke:#000000;stroke-linecap:butt;stroke-width:0.5;" x="28.890625" xlink:href="#m59abd9aada" y="115.746996534"/>
      </g>
     </g>
    </g>
    <g id="ytick_10">
     <g id="line2d_32">
      <defs>
       <path d="
M0 0
L2 0" id="m59abd9aada"/>
      </defs>
      <g>
       <use style="stroke:#000000;stroke-linecap:butt;stroke-width:0.5;" x="28.890625" xlink:href="#m59abd9aada" y="111.866812635"/>
      </g>
     </g>
    </g>
    <g id="ytick_11">
     <g id="line2d_33">
      <defs>
       <path d="
M0 0
L2 0" id="m59abd9aada"/>
      </defs>
      <g>
       <use style="stroke:#000000;stroke-linecap:butt;stroke-width:0.5;" x="28.890625" xlink:href="#m59abd9aada" y="104.106444836"/>
      </g>
     </g>
    </g>
    <g id="ytick_12">
     <g id="line2d_34">
      <defs>
       <path d="
M0 0
L2 0" id="m59abd9aada"/>
      </defs>
      <g>
       <use style="stroke:#000000;stroke-linecap:butt;stroke-width:0.5;" x="28.890625" xlink:href="#m59abd9aada" y="100.226260937"/>
      </g>
     </g>
    </g>
    <g id="ytick_13">
     <g id="line2d_35">
      <defs>
       <path d="
M0 0
L2 0" id="m59abd9aada"/>
      </defs>
      <g>
       <use style="stroke:#000000;stroke-linecap:butt;stroke-width:0.5;" x="28.890625" xlink:href="#m59abd9aada" y="96.3460770372"/>
      </g>
     </g>
    </g>
    <g id="ytick_14">
     <g id="line2d_36">
      <defs>
       <path d="
M0 0
L2 0" id="m59abd9aada"/>
      </defs>
      <g>
       <use style="stroke:#000000;stroke-linecap:butt;stroke-width:0.5;" x="28.890625" xlink:href="#m59abd9aada" y="92.4658931378"/>
      </g>
     </g>
    </g>
    <g id="ytick_15">
     <g id="line2d_37">
      <defs>
       <path d="
M0 0
L2 0" id="m59abd9aada"/>
      </defs>
      <g>
       <use style="stroke:#000000;stroke-linecap:butt;stroke-width:0.5;" x="28.890625" xlink:href="#m59abd9aada" y="84.7055253389"/>
      </g>
     </g>
    </g>
    <g id="ytick_16">
     <g id="line2d_38">
      <defs>
       <path d="
M0 0
L2 0" id="m59abd9aada"/>
      </defs>
      <g>
       <use style="stroke:#000000;stroke-linecap:butt;stroke-width:0.5;" x="28.890625" xlink:href="#m59abd9aada" y="80.8253414395"/>
      </g>
     </g>
    </g>
    <g id="ytick_17">
     <g id="line2d_39">
      <defs>
       <path d="
M0 0
L2 0" id="m59abd9aada"/>
      </defs>
      <g>
       <use style="stroke:#000000;stroke-linecap:butt;stroke-width:0.5;" x="28.890625" xlink:href="#m59abd9aada" y="76.9451575401"/>
      </g>
     </g>
    </g>
    <g id="ytick_18">
     <g id="line2d_40">
      <defs>
       <path d="
M0 0
L2 0" id="m59abd9aada"/>
      </defs>
      <g>
       <use style="stroke:#000000;stroke-linecap:butt;stroke-width:0.5;" x="28.890625" xlink:href="#m59abd9aada" y="73.0649736407"/>
      </g>
     </g>
    </g>
    <g id="ytick_19">
     <g id="line2d_41">
      <defs>
       <path d="
M0 0
L2 0" id="m59abd9aada"/>
      </defs>
      <g>
       <use style="stroke:#000000;stroke-linecap:butt;stroke-width:0.5;" x="28.890625" xlink:href="#m59abd9aada" y="65.3046058419"/>
      </g>
     </g>
    </g>
    <g id="ytick_20">
     <g id="line2d_42">
      <defs>
       <path d="
M0 0
L2 0" id="m59abd9aada"/>
      </defs>
      <g>
       <use style="stroke:#000000;stroke-linecap:butt;stroke-width:0.5;" x="28.890625" xlink:href="#m59abd9aada" y="61.4244219424"/>
      </g>
     </g>
    </g>
    <g id="ytick_21">
     <g id="line2d_43">
      <defs>
       <path d="
M0 0
L2 0" id="m59abd9aada"/>
      </defs>
      <g>
       <use style="stroke:#000000;stroke-linecap:butt;stroke-width:0.5;" x="28.890625" xlink:href="#m59abd9aada" y="57.544238043"/>
      </g>
     </g>
    </g>
    <g id="ytick_22">
     <g id="line2d_44">
      <defs>
       <path d="
M0 0
L2 0" id="m59abd9aada"/>
      </defs>
      <g>
       <use style="stroke:#000000;stroke-linecap:butt;stroke-width:0.5;" x="28.890625" xlink:href="#m59abd9aada" y="53.6640541436"/>
      </g>
     </g>
    </g>
    <g id="ytick_23">
     <g id="line2d_45">
      <defs>
       <path d="
M0 0
L2 0" id="m59abd9aada"/>
      </defs>
      <g>
       <use style="stroke:#000000;stroke-linecap:butt;stroke-width:0.5;" x="28.890625" xlink:href="#m59abd9aada" y="45.9036863448"/>
      </g>
     </g>
    </g>
    <g id="ytick_24">
     <g id="line2d_46">
      <defs>
       <path d="
M0 0
L2 0" id="m59abd9aada"/>
      </defs>
      <g>
       <use style="stroke:#000000;stroke-linecap:butt;stroke-width:0.5;" x="28.890625" xlink:href="#m59abd9aada" y="42.0235024453"/>
      </g>
     </g>
    </g>
    <g id="ytick_25">
     <g id="line2d_47">
      <defs>
       <path d="
M0 0
L2 0" id="m59abd9aada"/>
      </defs>
      <g>
       <use style="stroke:#000000;stroke-linecap:butt;stroke-width:0.5;" x="28.890625" xlink:href="#m59abd9aada" y="38.1433185459"/>
      </g>
     </g>
    </g>
    <g id="ytick_26">
     <g id="line2d_48">
      <defs>
       <path d="
M0 0
L2 0" id="m59abd9aada"/>
      </defs>
      <g>
       <use style="stroke:#000000;stroke-linecap:butt;stroke-width:0.5;" x="28.890625" xlink:href="#m59abd9aada" y="34.2631346465"/>
      </g>
     </g>
    </g>
    <g id="ytick_27">
     <g id="line2d_49">
      <defs>
       <path d="
M0 0
L2 0" id="m59abd9aada"/>
      </defs>
      <g>
       <use style="stroke:#000000;stroke-linecap:butt;stroke-width:0.5;" x="28.890625" xlink:href="#m59abd9aada" y="26.5027668477"/>
      </g>
     </g>
    </g>
    <g id="ytick_28">
     <g id="line2d_50">
      <defs>
       <path d="
M0 0
L2 0" id="m59abd9aada"/>
      </defs>
      <g>
       <use style="stroke:#000000;stroke-linecap:butt;stroke-width:0.5;" x="28.890625" xlink:href="#m59abd9aada" y="22.6225829483"/>
      </g>
     </g>
    </g>
    <g id="ytick_29">
     <g id="line2d_51">
      <defs>
       <path d="
M0 0
L2 0" id="m59abd9aada"/>
      </defs>
      <g>
       <use style="stroke:#000000;stroke-linecap:butt;stroke-width:0.5;" x="28.890625" xlink:href="#m59abd9aada" y="18.7423990488"/>
      </g>
     </g>
    </g>
    <g id="ytick_30">
     <g id="line2d_52">
      <defs>
       <path d="
M0 0
L2 0" id="m59abd9aada"/>
      </defs>
      <g>
       <use style="stroke:#000000;stroke-linecap:butt;stroke-width:0.5;" x="28.890625" xlink:href="#m59abd9aada" y="14.8622151494"/>
      </g>
     </g>
    </g>
   </g>
   <g id="patch_3">
    <path d="
M18.5718 107.987
L555.207 107.987" style="fill:none;stroke:#000000;stroke-width:0.8;"/>
   </g>
   <g id="patch_4">
    <path d="
M28.8906 125.385
L28.8906 7.55195" style="fill:none;stroke:#000000;stroke-width:0.8;"/>
   </g>
  </g>
 </g>
 <defs>
  <clipPath id="p5fac6ad6f3">
   <rect height="117.833424658" width="536.634857872" x="18.5717563532" y="7.55194868291"/>
  </clipPath>
 </defs>
</svg>
