<?xml version="1.0" encoding="utf-8" standalone="no"?>
<!DOCTYPE svg PUBLIC "-//W3C//DTD SVG 1.1//EN"
  "http://www.w3.org/Graphics/SVG/1.1/DTD/svg11.dtd">
<!-- Created with matplotlib (http://matplotlib.sourceforge.net/) -->
<svg height="132pt" version="1.1" viewBox="0 0 562 132" width="562pt" xmlns="http://www.w3.org/2000/svg" xmlns:xlink="http://www.w3.org/1999/xlink">
 <defs>
  <style type="text/css">
*{stroke-linecap:square;stroke-linejoin:round;}
  </style>
 </defs>
 <g id="figure_1">
  <g id="patch_1">
   <path d="
M-2.22045e-16 132.48
L562.438 132.48
L562.438 0
L-2.22045e-16 0
z
" style="fill:#ffffff;"/>
  </g>
  <g id="axes_1">
   <g id="patch_2">
    <path d="
M22.4982 125.28
L555.238 125.28
L555.238 7.2
L22.4982 7.2
z
" style="fill:#ffffff;"/>
   </g>
   <g id="line2d_1">
    <path clip-path="url(#pf42bfd13c1)" d="
M32.7432 14.8207
L32.9477 14.8207
L32.9477 20.1707
L33.2132 20.1707
L33.2132 21.9541
L33.5022 21.9541
L33.5022 23.1429
L33.8087 23.1429
L33.8087 23.7374
L34.1203 23.7374
L34.1203 22.5485
L34.7629 22.5485
L34.7629 18.3874
L35.1186 18.3874
L35.1186 21.3596
L35.4599 21.3596
L35.4599 24.3318
L35.793 24.3318
L35.793 25.5207
L36.1559 25.5207
L36.1559 24.3318
L36.8836 24.3318
L36.8836 26.1152
L37.2321 26.1152
L37.2321 30.2762
L37.5908 30.2762
L37.5908 27.8985
L37.9537 27.8985
L37.9537 26.7096
L38.3329 26.7096
L38.3329 24.9263
L39.1078 24.9263
L39.1078 22.5485
L39.4665 22.5485
L39.4665 20.7652
L39.854 20.7652
L39.854 24.9263
L40.2537 24.9263
L40.2537 21.9541
L40.6145 21.9541
L40.6145 20.1707
L40.9886 20.1707
L40.9886 18.3874
L41.414 18.3874
L41.414 18.9818
L41.7922 18.9818
L41.7922 15.4152
L42.1704 15.4152
L42.1704 19.5763
L42.6163 19.5763
L42.6163 18.9818
L42.9975 18.9818
L42.9975 20.1707
L43.7909 20.1707
L43.7909 21.3596
L44.1619 21.3596
L44.1619 21.9541
L44.5596 21.9541
L44.5596 20.7652
L44.9686 20.7652
L44.9686 22.5485
L45.3857 22.5485
L45.3857 20.7652
L45.7947 20.7652
L45.7947 24.3318
L46.2016 24.3318
L46.2016 27.304
L46.6013 27.304
L46.6013 26.7096
L47.0318 26.7096
L47.0318 22.5485
L47.4285 22.5485
L47.4285 24.3318
L47.8282 24.3318
L47.8282 23.1429
L48.2772 23.1429
L48.2772 23.7374
L48.7066 23.7374
L48.7066 18.9818
L49.1433 18.9818
L49.1433 22.5485
L49.9253 22.5485
L49.9253 26.1152
L50.3271 26.1152
L50.3271 27.304
L50.7392 27.304
L50.7392 26.1152
L51.1881 26.1152
L51.1881 27.304
L51.595 27.304
L51.595 29.0874
L51.9968 29.0874
L51.9968 26.1152
L52.8578 26.1152
L52.8578 24.9263
L53.7505 24.9263
L53.7505 21.9541
L54.1523 21.9541
L54.1523 20.7652
L54.5223 20.7652
L54.5223 18.9818
L54.9836 18.9818
L54.9836 20.1707
L55.8466 20.1707
L55.8466 26.1152
L56.3017 26.1152
L56.3017 20.1707
L56.7352 20.1707
L56.7352 23.1429
L57.178 23.1429
L57.178 24.3318
L57.6147 24.3318
L57.6147 25.5207
L58.04 25.5207
L58.04 24.3318
L58.4336 24.3318
L58.4336 24.9263
L58.9092 24.9263
L58.9092 21.9541
L59.3161 21.9541
L59.3161 25.5207
L59.764 25.5207
L59.764 19.5763
L60.2099 19.5763
L60.2099 18.9818
L60.6404 18.9818
L60.6404 21.3596
L61.0893 21.3596
L61.0893 22.5485
L61.5044 22.5485
L61.5044 23.1429
L61.9144 23.1429
L61.9144 24.9263
L62.7631 24.9263
L62.7631 26.1152
L63.1926 26.1152
L63.1926 28.4929
L63.6415 28.4929
L63.6415 31.4651
L64.1222 31.4651
L64.1222 30.8707
L64.5578 30.8707
L64.5578 35.0318
L65.0221 35.0318
L65.0221 38.004
L65.9415 38.004
L65.9415 36.8151
L66.3659 36.8151
L66.3659 32.0596
L66.8271 32.0596
L66.8271 29.6818
L67.2576 29.6818
L67.2576 26.1152
L67.6789 26.1152
L67.6789 27.8985
L68.1688 27.8985
L68.1688 26.7096
L68.6505 26.7096
L68.6505 25.5207
L69.0841 25.5207
L69.0841 26.1152
L69.4931 26.1152
L69.4931 24.9263
L69.9276 24.9263
L69.9276 23.7374
L70.8317 23.7374
L70.8317 19.5763
L71.2868 19.5763
L71.2868 18.3874
L71.7316 18.3874
L71.7316 14.8207
L72.199 14.8207
L72.199 18.3874
L72.5997 18.3874
L72.5997 19.5763
L73.0856 19.5763
L73.0856 20.1707
L73.5499 20.1707
L73.5499 18.9818
L73.9927 18.9818
L73.9927 16.6041
L74.4109 16.6041
L74.4109 15.4152
L74.8598 15.4152
L74.8598 11.2541
L75.3149 11.2541
L75.3149 18.9818
L75.7966 18.9818
L75.7966 18.3874
L76.2374 18.3874
L76.2374 13.6319
L76.7099 13.6319
L76.7099 11.8485
L77.1691 11.8485
L77.1691 10.6597
L77.6272 10.6597
L77.6272 9.47077
L78.1428 9.47077
L78.1428 11.2541
L78.5671 11.2541
L78.5671 14.2263
L78.9699 14.2263
L78.9699 13.6319
L79.4558 13.6319
L79.4558 17.1985
L79.9303 17.1985
L79.9303 16.6041
L80.7944 16.6041
L80.7944 19.5763
L81.2341 19.5763
L81.2341 18.9818
L81.6738 18.9818
L81.6738 20.1707
L82.134 20.1707
L82.134 20.7652
L82.6209 20.7652
L82.6209 22.5485
L83.119 22.5485
L83.119 24.3318
L83.5454 24.3318
L83.5454 24.9263
L84.0128 24.9263
L84.0128 26.7096
L84.5027 26.7096
L84.5027 23.7374
L85.3504 23.7374
L85.3504 25.5207
L85.8772 25.5207
L85.8772 28.4929
L86.3446 28.4929
L86.3446 27.304
L87.2568 27.304
L87.2568 29.6818
L87.7068 29.6818
L87.7068 26.1152
L88.2049 26.1152
L88.2049 27.304
L88.6652 27.304
L88.6652 29.0874
L89.109 29.0874
L89.109 30.8707
L89.5969 30.8707
L89.5969 27.8985
L90.0704 27.8985
L90.0704 32.0596
L90.5665 32.0596
L90.5665 32.654
L91.0236 32.654
L91.0236 35.6262
L91.5033 35.6262
L91.5033 37.4096
L91.984 37.4096
L91.984 34.4373
L92.4176 34.4373
L92.4176 36.2207
L92.8932 36.2207
L92.8932 35.6262
L93.3452 35.6262
L93.3452 36.8151
L93.8259 36.8151
L93.8259 37.4096
L94.2902 37.4096
L94.2902 42.7595
L94.7514 42.7595
L94.7514 40.3818
L95.225 40.3818
L95.225 40.9762
L95.6637 40.9762
L95.6637 40.3818
L96.1249 40.3818
L96.1249 42.1651
L96.5984 42.1651
L96.5984 39.1929
L97.073 39.1929
L97.073 40.9762
L97.5424 40.9762
L97.5424 38.004
L98.0447 38.004
L98.0447 40.3818
L98.508 40.3818
L98.508 41.5706
L98.9487 41.5706
L98.9487 45.7317
L99.4099 45.7317
L99.4099 43.9484
L99.8896 43.9484
L99.8896 46.9206
L100.363 46.9206
L100.363 46.3262
L101.313 46.3262
L101.313 48.704
L102.254 48.704
L102.254 49.2984
L102.702 49.2984
L102.702 48.1095
L103.154 48.1095
L103.154 46.9206
L103.644 46.9206
L103.644 51.6762
L104.607 51.6762
L104.607 48.704
L105.058 48.704
L105.058 43.9484
L105.5 43.9484
L105.5 44.5429
L106.516 44.5429
L106.516 42.1651
L107.017 42.1651
L107.017 42.7595
L107.477 42.7595
L107.477 45.1373
L107.976 45.1373
L107.976 44.5429
L108.431 44.5429
L108.431 43.354
L108.944 43.354
L108.944 42.1651
L109.36 42.1651
L109.36 42.7595
L109.824 42.7595
L109.824 43.9484
L110.303 43.9484
L110.303 46.9206
L110.744 46.9206
L110.744 48.704
L111.207 48.704
L111.207 48.1095
L111.707 48.1095
L111.707 47.5151
L112.186 47.5151
L112.186 46.3262
L113.631 46.3262
L113.631 43.354
L114.147 43.354
L114.147 43.9484
L114.624 43.9484
L114.624 40.9762
L115.097 40.9762
L115.097 45.1373
L115.58 45.1373
L115.58 42.1651
L116.093 42.1651
L116.093 43.9484
L116.565 43.9484
L116.565 42.7595
L117.017 42.7595
L117.017 43.354
L117.564 43.354
L117.564 42.1651
L118.064 42.1651
L118.064 46.9206
L118.502 46.9206
L118.502 45.7317
L119.543 45.7317
L119.543 48.704
L120.008 48.704
L120.008 46.9206
L120.469 46.9206
L120.469 51.0817
L120.97 51.0817
L120.97 54.0539
L121.422 54.0539
L121.422 54.6484
L121.923 54.6484
L121.923 55.2428
L122.398 55.2428
L122.398 57.0261
L123.345 57.0261
L123.345 54.0539
L123.905 54.0539
L123.905 49.8928
L124.365 49.8928
L124.365 46.9206
L124.781 46.9206
L124.781 46.3262
L125.232 46.3262
L125.232 41.5706
L125.814 41.5706
L125.814 43.354
L126.265 43.354
L126.265 45.7317
L126.731 45.7317
L126.731 48.1095
L127.212 48.1095
L127.212 49.8928
L127.705 49.8928
L127.705 48.704
L128.126 48.704
L128.126 49.8928
L128.64 49.8928
L128.64 45.1373
L129.1 45.1373
L129.1 46.3262
L129.608 46.3262
L129.608 44.5429
L130.07 44.5429
L130.07 45.1373
L130.571 45.1373
L130.571 39.1929
L131.056 39.1929
L131.056 42.7595
L131.545 42.7595
L131.545 45.7317
L132.025 45.7317
L132.025 43.9484
L132.535 43.9484
L132.535 40.9762
L133.034 40.9762
L133.034 43.9484
L133.526 43.9484
L133.526 45.7317
L133.996 45.7317
L133.996 46.9206
L134.46 46.9206
L134.46 49.2984
L134.974 49.2984
L134.974 45.1373
L135.445 45.1373
L135.445 43.354
L136.003 43.354
L136.003 42.1651
L136.447 42.1651
L136.447 35.0318
L136.957 35.0318
L136.957 30.8707
L137.474 30.8707
L137.474 32.0596
L137.969 32.0596
L137.969 29.0874
L138.436 29.0874
L138.436 27.8985
L138.943 27.8985
L138.943 26.1152
L139.867 26.1152
L139.867 23.1429
L140.327 23.1429
L140.327 22.5485
L140.786 22.5485
L140.786 24.3318
L141.256 24.3318
L141.256 23.1429
L141.825 23.1429
L141.825 24.3318
L142.322 24.3318
L142.322 23.1429
L142.785 23.1429
L142.785 20.1707
L143.313 20.1707
L143.313 16.6041
L143.838 16.6041
L143.838 17.1985
L144.309 17.1985
L144.309 15.4152
L144.828 15.4152
L144.828 18.9818
L145.299 18.9818
L145.299 21.3596
L145.764 21.3596
L145.764 23.7374
L146.252 23.7374
L146.252 23.1429
L146.721 23.1429
L146.721 26.7096
L147.2 26.7096
L147.2 28.4929
L147.719 28.4929
L147.719 27.8985
L148.209 27.8985
L148.209 31.4651
L148.701 31.4651
L148.701 32.0596
L149.213 32.0596
L149.213 33.8429
L149.733 33.8429
L149.733 36.8151
L150.18 36.8151
L150.18 34.4373
L150.604 34.4373
L150.604 35.0318
L151.092 35.0318
L151.092 29.0874
L151.588 29.0874
L151.588 28.4929
L152.11 28.4929
L152.11 24.9263
L152.686 24.9263
L152.686 21.9541
L153.149 21.9541
L153.149 18.9818
L153.678 18.9818
L153.678 20.1707
L154.734 20.1707
L154.734 21.9541
L155.197 21.9541
L155.197 20.7652
L155.712 20.7652
L155.712 21.9541
L156.2 21.9541
L156.2 18.3874
L156.67 18.3874
L156.67 17.793
L157.147 17.793
L157.147 18.9818
L157.676 18.9818
L157.676 24.3318
L158.132 24.3318
L158.132 24.9263
L158.636 24.9263
L158.636 30.8707
L159.14 30.8707
L159.14 38.004
L159.635 38.004
L159.635 36.2207
L160.083 36.2207
L160.083 35.0318
L160.57 35.0318
L160.57 36.8151
L161.095 36.8151
L161.095 34.4373
L161.59 34.4373
L161.59 33.2485
L162.063 33.2485
L162.063 35.0318
L162.623 35.0318
L162.623 38.5984
L163.082 38.5984
L163.082 36.2207
L163.555 36.2207
L163.555 35.6262
L164.035 35.6262
L164.035 33.8429
L164.603 33.8429
L164.603 31.4651
L165.117 31.4651
L165.117 35.6262
L165.584 35.6262
L165.584 34.4373
L166.098 34.4373
L166.098 38.004
L166.64 38.004
L166.64 40.3818
L167.152 40.3818
L167.152 36.8151
L167.663 36.8151
L167.663 39.1929
L168.125 39.1929
L168.125 37.4096
L169.644 37.4096
L169.644 35.6262
L170.025 35.6262
L170.025 39.7873
L170.563 39.7873
L170.563 43.9484
L171.057 43.9484
L171.057 45.1373
L171.523 45.1373
L171.523 42.7595
L172.057 42.7595
L172.057 43.354
L173.102 43.354
L173.102 44.5429
L174.072 44.5429
L174.072 43.354
L174.558 43.354
L174.558 44.5429
L175.081 44.5429
L175.081 43.9484
L175.581 43.9484
L175.581 43.354
L176.1 43.354
L176.1 42.1651
L176.606 42.1651
L176.606 43.354
L177.084 43.354
L177.084 38.5984
L177.565 38.5984
L177.565 39.7873
L178.099 39.7873
L178.099 46.9206
L179.077 46.9206
L179.077 45.1373
L179.597 45.1373
L179.597 47.5151
L180.148 47.5151
L180.148 46.9206
L180.713 46.9206
L180.713 43.9484
L181.162 43.9484
L181.162 43.354
L181.667 43.354
L181.667 45.1373
L182.143 45.1373
L182.143 46.9206
L182.676 46.9206
L182.676 45.7317
L183.228 45.7317
L183.228 46.3262
L184.284 46.3262
L184.284 48.1095
L184.772 48.1095
L184.772 46.9206
L185.273 46.9206
L185.273 44.5429
L185.812 44.5429
L185.812 38.004
L186.335 38.004
L186.335 36.2207
L186.838 36.2207
L186.838 39.1929
L187.318 39.1929
L187.318 39.7873
L187.862 39.7873
L187.862 42.7595
L188.318 42.7595
L188.318 41.5706
L188.795 41.5706
L188.795 35.0318
L189.262 35.0318
L189.262 38.004
L189.771 38.004
L189.771 39.7873
L190.23 39.7873
L190.23 43.9484
L190.812 43.9484
L190.812 39.1929
L191.838 39.1929
L191.838 42.7595
L192.354 42.7595
L192.354 44.5429
L192.849 44.5429
L192.849 48.1095
L193.349 48.1095
L193.349 53.4595
L193.816 53.4595
L193.816 55.8373
L194.375 55.8373
L194.375 54.0539
L194.852 54.0539
L194.852 57.0261
L195.338 57.0261
L195.338 58.215
L195.821 58.215
L195.821 58.8095
L196.291 58.8095
L196.291 53.4595
L196.759 53.4595
L196.759 54.6484
L197.269 54.6484
L197.269 53.4595
L197.767 53.4595
L197.767 49.2984
L198.274 49.2984
L198.274 47.5151
L198.833 47.5151
L198.833 46.9206
L199.289 46.9206
L199.289 53.4595
L199.756 53.4595
L199.756 51.6762
L200.295 51.6762
L200.295 54.6484
L200.755 54.6484
L200.755 55.2428
L201.29 55.2428
L201.29 56.4317
L201.794 56.4317
L201.794 55.2428
L202.785 55.2428
L202.785 56.4317
L203.324 56.4317
L203.324 59.9984
L203.803 59.9984
L203.803 62.9706
L204.842 62.9706
L204.842 60.5928
L205.344 60.5928
L205.344 59.9984
L205.839 59.9984
L205.839 57.6206
L206.325 57.6206
L206.325 59.9984
L207.428 59.9984
L207.428 62.9706
L207.921 62.9706
L207.921 64.1595
L208.424 64.1595
L208.424 61.1872
L208.935 61.1872
L208.935 64.1595
L209.451 64.1595
L209.451 62.3761
L209.955 62.3761
L209.955 61.7817
L210.427 61.7817
L210.427 60.5928
L210.97 60.5928
L210.97 62.9706
L211.462 62.9706
L211.462 64.7539
L211.986 64.7539
L211.986 61.1872
L212.495 61.1872
L212.495 62.9706
L212.997 62.9706
L212.997 59.9984
L213.454 59.9984
L213.454 61.1872
L213.997 61.1872
L213.997 57.6206
L214.46 57.6206
L214.46 56.4317
L214.952 56.4317
L214.952 54.0539
L216.044 54.0539
L216.044 55.2428
L216.561 55.2428
L216.561 54.0539
L217.022 54.0539
L217.022 53.4595
L217.661 53.4595
L217.661 52.2706
L218.163 52.2706
L218.163 52.8651
L219.168 52.8651
L219.168 50.4873
L220.158 50.4873
L220.158 46.3262
L221.164 46.3262
L221.164 44.5429
L221.69 44.5429
L221.69 38.5984
L222.307 38.5984
L222.307 44.5429
L222.833 44.5429
L222.833 43.9484
L223.394 43.9484
L223.394 42.1651
L223.885 42.1651
L223.885 43.354
L224.432 43.354
L224.432 41.5706
L224.919 41.5706
L224.919 39.7873
L225.385 39.7873
L225.385 35.6262
L225.874 35.6262
L225.874 40.3818
L226.416 40.3818
L226.416 38.004
L226.957 38.004
L226.957 38.5984
L227.442 38.5984
L227.442 39.7873
L227.987 39.7873
L227.987 39.1929
L228.512 39.1929
L228.512 36.2207
L229.545 36.2207
L229.545 35.0318
L230.056 35.0318
L230.056 36.8151
L230.56 36.8151
L230.56 36.2207
L231.071 36.2207
L231.071 39.1929
L231.647 39.1929
L231.647 38.004
L232.159 38.004
L232.159 39.7873
L232.661 39.7873
L232.661 38.5984
L233.135 38.5984
L233.135 39.7873
L233.654 39.7873
L233.654 39.1929
L234.112 39.1929
L234.112 37.4096
L234.558 37.4096
L234.558 36.2207
L235.086 36.2207
L235.086 38.004
L235.631 38.004
L235.631 41.5706
L236.175 41.5706
L236.175 42.1651
L236.702 42.1651
L236.702 40.9762
L237.19 40.9762
L237.19 42.1651
L237.691 42.1651
L237.691 40.3818
L238.258 40.3818
L238.258 41.5706
L238.807 41.5706
L238.807 40.3818
L239.324 40.3818
L239.324 39.7873
L239.872 39.7873
L239.872 37.4096
L240.948 37.4096
L240.948 38.004
L241.502 38.004
L241.502 38.5984
L241.981 38.5984
L241.981 35.6262
L242.516 35.6262
L242.516 37.4096
L243.004 37.4096
L243.004 38.5984
L243.504 38.5984
L243.504 36.2207
L243.983 36.2207
L243.983 36.8151
L244.534 36.8151
L244.534 39.1929
L245.108 39.1929
L245.108 41.5706
L245.553 41.5706
L245.553 42.1651
L246.085 42.1651
L246.085 45.7317
L246.642 45.7317
L246.642 41.5706
L247.131 41.5706
L247.131 42.7595
L247.626 42.7595
L247.626 48.704
L248.15 48.704
L248.15 49.8928
L249.192 49.8928
L249.192 45.1373
L249.689 45.1373
L249.689 49.2984
L250.175 49.2984
L250.175 46.9206
L250.707 46.9206
L250.707 51.6762
L251.277 51.6762
L251.277 48.1095
L251.793 48.1095
L251.793 42.7595
L252.337 42.7595
L252.337 43.9484
L253.828 43.9484
L253.828 48.1095
L254.312 48.1095
L254.312 45.7317
L254.787 45.7317
L254.787 41.5706
L255.313 41.5706
L255.313 38.004
L255.788 38.004
L255.788 39.1929
L257.411 39.1929
L257.411 40.3818
L257.959 40.3818
L257.959 45.7317
L258.955 45.7317
L258.955 46.9206
L259.486 46.9206
L259.486 45.1373
L259.923 45.1373
L259.923 43.354
L260.416 43.354
L260.416 46.3262
L260.9 46.3262
L260.9 48.704
L261.492 48.704
L261.492 50.4873
L262.061 50.4873
L262.061 43.9484
L262.657 43.9484
L262.657 46.3262
L263.151 46.3262
L263.151 45.1373
L263.613 45.1373
L263.613 41.5706
L264.129 41.5706
L264.129 42.7595
L264.661 42.7595
L264.661 40.9762
L265.248 40.9762
L265.248 43.354
L266.282 43.354
L266.282 42.7595
L266.813 42.7595
L266.813 44.5429
L267.313 44.5429
L267.313 43.9484
L267.917 43.9484
L267.917 44.5429
L268.446 44.5429
L268.446 43.9484
L268.988 43.9484
L268.988 39.7873
L269.563 39.7873
L269.563 42.1651
L270.135 42.1651
L270.135 39.7873
L270.606 39.7873
L270.606 43.9484
L271.069 43.9484
L271.069 42.7595
L271.601 42.7595
L271.601 46.9206
L272.195 46.9206
L272.195 49.2984
L272.648 49.2984
L272.648 44.5429
L273.693 44.5429
L273.693 46.3262
L274.154 46.3262
L274.154 43.9484
L275.223 43.9484
L275.223 46.3262
L275.7 46.3262
L275.7 52.8651
L276.221 52.8651
L276.221 51.6762
L276.672 51.6762
L276.672 57.6206
L277.204 57.6206
L277.204 61.7817
L277.782 61.7817
L277.782 60.5928
L278.238 60.5928
L278.238 59.9984
L278.772 59.9984
L278.772 62.3761
L279.298 62.3761
L279.298 64.1595
L279.82 64.1595
L279.82 67.7261
L280.344 67.7261
L280.344 70.6983
L280.848 70.6983
L280.848 71.2928
L281.484 71.2928
L281.484 75.4539
L282.04 75.4539
L282.04 72.4816
L282.552 72.4816
L282.552 73.6705
L283.013 73.6705
L283.013 71.8872
L283.547 71.8872
L283.547 70.6983
L284.048 70.6983
L284.048 69.5094
L284.563 69.5094
L284.563 68.915
L285.125 68.915
L285.125 70.6983
L285.632 70.6983
L285.632 72.4816
L286.165 72.4816
L286.165 73.0761
L286.638 73.0761
L286.638 80.8038
L287.14 80.8038
L287.14 78.4261
L287.693 78.4261
L287.693 79.6149
L288.227 79.6149
L288.227 77.8316
L288.725 77.8316
L288.725 81.9927
L289.212 81.9927
L289.212 83.776
L289.707 83.776
L289.707 84.9649
L290.316 84.9649
L290.316 79.6149
L290.885 79.6149
L290.885 81.3983
L291.385 81.3983
L291.385 83.776
L291.865 83.776
L291.865 84.3705
L292.41 84.3705
L292.41 86.7483
L292.953 86.7483
L292.953 92.6927
L293.501 92.6927
L293.501 95.0704
L294.008 95.0704
L294.008 94.476
L294.534 94.476
L294.534 95.6649
L295.054 95.6649
L295.054 100.42
L295.611 100.42
L295.611 99.826
L296.128 99.826
L296.128 98.0427
L296.607 98.0427
L296.607 97.4482
L297.232 97.4482
L297.232 96.2593
L297.687 96.2593
L297.687 99.2315
L298.172 99.2315
L298.172 101.015
L298.688 101.015
L298.688 101.609
L299.206 101.609
L299.206 103.393
L299.752 103.393
L299.752 101.015
L300.22 101.015
L300.22 98.6371
L300.731 98.6371
L300.731 92.6927
L301.317 92.6927
L301.317 90.3149
L301.819 90.3149
L301.819 92.6927
L302.803 92.6927
L302.803 93.2871
L303.909 93.2871
L303.909 90.3149
L304.45 90.3149
L304.45 88.5316
L304.945 88.5316
L304.945 89.7205
L305.521 89.7205
L305.521 90.3149
L306.013 90.3149
L306.013 91.5038
L306.555 91.5038
L306.555 94.476
L307.127 94.476
L307.127 95.0704
L307.661 95.0704
L307.661 92.0982
L308.117 92.0982
L308.117 95.6649
L308.706 95.6649
L308.706 93.8816
L309.229 93.8816
L309.229 91.5038
L309.785 91.5038
L309.785 94.476
L310.32 94.476
L310.32 92.6927
L310.819 92.6927
L310.819 90.9094
L311.36 90.9094
L311.36 89.7205
L312.479 89.7205
L312.479 90.3149
L313.03 90.3149
L313.03 88.5316
L313.534 88.5316
L313.534 91.5038
L314.059 91.5038
L314.059 90.9094
L314.58 90.9094
L314.58 92.0982
L315.102 92.0982
L315.102 92.6927
L315.615 92.6927
L315.615 91.5038
L316.181 91.5038
L316.181 92.6927
L316.685 92.6927
L316.685 93.8816
L317.209 93.8816
L317.209 95.0704
L317.823 95.0704
L317.823 93.8816
L318.278 93.8816
L318.278 92.0982
L318.856 92.0982
L318.856 93.2871
L319.405 93.2871
L319.405 96.8538
L319.857 96.8538
L319.857 99.2315
L320.375 99.2315
L320.375 96.2593
L320.994 96.2593
L320.994 97.4482
L322.021 97.4482
L322.021 102.204
L322.559 102.204
L322.559 103.393
L323.125 103.393
L323.125 103.987
L323.699 103.987
L323.699 94.476
L324.235 94.476
L324.235 93.8816
L324.743 93.8816
L324.743 95.6649
L325.203 95.6649
L325.203 98.6371
L325.761 98.6371
L325.761 98.0427
L326.234 98.0427
L326.234 95.6649
L327.319 95.6649
L327.319 90.3149
L327.861 90.3149
L327.861 87.3427
L328.322 87.3427
L328.322 90.3149
L328.897 90.3149
L328.897 92.6927
L329.398 92.6927
L329.398 92.0982
L329.929 92.0982
L329.929 87.9371
L330.481 87.9371
L330.481 83.776
L330.982 83.776
L330.982 83.1816
L331.528 83.1816
L331.528 86.7483
L332.048 86.7483
L332.048 88.5316
L332.578 88.5316
L332.578 89.7205
L333.093 89.7205
L333.093 87.3427
L333.597 87.3427
L333.597 88.5316
L334.063 88.5316
L334.063 92.0982
L334.585 92.0982
L334.585 93.2871
L335.175 93.2871
L335.175 93.8816
L335.754 93.8816
L335.754 94.476
L336.317 94.476
L336.317 92.0982
L336.795 92.0982
L336.795 95.0704
L337.343 95.0704
L337.343 92.6927
L337.808 92.6927
L337.808 90.3149
L338.346 90.3149
L338.346 90.9094
L338.905 90.9094
L338.905 86.7483
L339.443 86.7483
L339.443 90.3149
L339.996 90.3149
L339.996 88.5316
L340.519 88.5316
L340.519 89.7205
L341.565 89.7205
L341.565 90.3149
L342.119 90.3149
L342.119 91.5038
L342.641 91.5038
L342.641 88.5316
L343.125 88.5316
L343.125 90.9094
L343.714 90.9094
L343.714 90.3149
L344.241 90.3149
L344.241 93.2871
L344.759 93.2871
L344.759 91.5038
L345.231 91.5038
L345.231 89.7205
L345.791 89.7205
L345.791 89.126
L346.358 89.126
L346.358 91.5038
L346.86 91.5038
L346.86 89.126
L347.386 89.126
L347.386 89.7205
L347.937 89.7205
L347.937 93.2871
L348.471 93.2871
L348.471 95.0704
L348.941 95.0704
L348.941 95.6649
L349.416 95.6649
L349.416 89.7205
L350 89.7205
L350 87.9371
L350.577 87.9371
L350.577 85.5594
L351.067 85.5594
L351.067 86.1538
L351.632 86.1538
L351.632 90.9094
L352.201 90.9094
L352.201 89.7205
L352.697 89.7205
L352.697 94.476
L353.234 94.476
L353.234 96.2593
L353.865 96.2593
L353.865 102.204
L354.388 102.204
L354.388 103.393
L354.971 103.393
L354.971 101.015
L355.515 101.015
L355.515 102.204
L356.584 102.204
L356.584 98.0427
L357.1 98.0427
L357.1 101.015
L357.66 101.015
L357.66 101.609
L358.139 101.609
L358.139 96.2593
L359.197 96.2593
L359.197 97.4482
L359.75 97.4482
L359.75 100.42
L360.393 100.42
L360.393 101.015
L361.487 101.015
L361.487 101.609
L362.047 101.609
L362.047 101.015
L362.625 101.015
L362.625 99.2315
L363.118 99.2315
L363.118 95.6649
L363.627 95.6649
L363.627 98.0427
L364.178 98.0427
L364.178 100.42
L364.676 100.42
L364.676 99.2315
L365.201 99.2315
L365.201 100.42
L365.724 100.42
L365.724 99.2315
L366.838 99.2315
L366.838 96.8538
L367.351 96.8538
L367.351 101.015
L367.896 101.015
L367.896 102.798
L368.972 102.798
L368.972 105.176
L369.507 105.176
L369.507 102.798
L370.084 102.798
L370.084 103.393
L370.599 103.393
L370.599 103.987
L371.111 103.987
L371.111 105.176
L371.598 105.176
L371.598 112.309
L372.188 112.309
L372.188 118.254
L372.73 118.254
L372.73 114.093
L373.249 114.093
L373.249 111.12
L373.725 111.12
L373.725 114.093
L374.294 114.093
L374.294 118.254
L375.971 118.254
L375.971 120.037
L376.486 120.037
L376.486 117.065
L377.049 117.065
L377.049 118.254
L377.556 118.254
L377.556 118.848
L378.052 118.848
L378.052 117.065
L379.147 117.065
L379.147 119.443
L379.691 119.443
L379.691 118.254
L380.316 118.254
L380.316 115.876
L380.801 115.876
L380.801 107.554
L381.274 107.554
L381.274 111.715
L381.791 111.715
L381.791 108.148
L382.333 108.148
L382.333 112.309
L382.936 112.309
L382.936 111.12
L383.442 111.12
L383.442 111.715
L383.969 111.715
L383.969 115.281
L384.491 115.281
L384.491 116.47
L386.071 116.47
L386.071 119.443
L386.631 119.443
L386.631 120.631
L387.711 120.631
L387.711 119.443
L388.254 119.443
L388.254 115.876
L388.777 115.876
L388.777 114.093
L389.288 114.093
L389.288 109.932
L390.348 109.932
L390.348 108.148
L390.973 108.148
L390.973 107.554
L391.533 107.554
L391.533 112.904
L392.086 112.904
L392.086 115.281
L392.63 115.281
L392.63 115.876
L393.134 115.876
L393.134 113.498
L393.652 113.498
L393.652 111.12
L394.675 111.12
L394.675 112.904
L395.213 112.904
L395.213 114.093
L395.7 114.093
L395.7 117.065
L396.275 117.065
L396.275 114.687
L396.803 114.687
L396.803 111.715
L397.301 111.715
L397.301 108.148
L397.851 108.148
L397.851 105.77
L398.974 105.77
L398.974 107.554
L399.499 107.554
L399.499 109.932
L400.034 109.932
L400.034 112.904
L400.61 112.904
L400.61 114.093
L401.219 114.093
L401.219 114.687
L401.759 114.687
L401.759 117.659
L402.266 117.659
L402.266 117.065
L402.789 117.065
L402.789 117.659
L403.786 117.659
L403.786 117.065
L404.334 117.065
L404.334 115.281
L405.422 115.281
L405.422 117.659
L406.514 117.659
L406.514 116.47
L407.086 116.47
L407.086 115.281
L407.617 115.281
L407.617 115.876
L408.121 115.876
L408.121 117.659
L408.66 117.659
L408.66 118.254
L409.238 118.254
L409.238 116.47
L409.692 116.47
L409.692 115.876
L410.29 115.876
L410.29 116.47
L410.813 116.47
L410.813 117.065
L411.387 117.065
L411.387 116.47
L411.864 116.47
L411.864 114.687
L412.444 114.687
L412.444 118.254
L412.993 118.254
L412.993 123.009
L413.555 123.009
L413.555 121.226
L414.16 121.226
L414.16 120.631
L414.748 120.631
L414.748 121.82
L415.314 121.82
L415.314 121.226
L415.876 121.226
L415.876 118.254
L416.436 118.254
L416.436 115.876
L416.968 115.876
L416.968 114.687
L417.521 114.687
L417.521 113.498
L418.01 113.498
L418.01 112.309
L418.551 112.309
L418.551 108.148
L419.121 108.148
L419.121 106.959
L419.621 106.959
L419.621 103.393
L421.328 103.393
L421.328 106.959
L421.836 106.959
L421.836 105.77
L422.873 105.77
L422.873 105.176
L423.388 105.176
L423.388 106.365
L423.969 106.365
L423.969 105.176
L424.455 105.176
L424.455 108.743
L424.962 108.743
L424.962 106.959
L425.491 106.959
L425.491 102.798
L426.046 102.798
L426.046 107.554
L426.552 107.554
L426.552 106.959
L427.122 106.959
L427.122 107.554
L427.65 107.554
L427.65 109.932
L428.168 109.932
L428.168 111.12
L428.721 111.12
L428.721 112.309
L429.287 112.309
L429.287 111.12
L429.815 111.12
L429.815 108.743
L430.4 108.743
L430.4 105.176
L431.498 105.176
L431.498 108.743
L431.989 108.743
L431.989 110.526
L432.573 110.526
L432.573 112.309
L433.111 112.309
L433.111 110.526
L433.581 110.526
L433.581 108.743
L434.184 108.743
L434.184 108.148
L434.711 108.148
L434.711 109.337
L435.221 109.337
L435.221 112.904
L435.778 112.904
L435.778 109.337
L436.344 109.337
L436.344 108.148
L436.851 108.148
L436.851 105.176
L437.413 105.176
L437.413 104.582
L437.961 104.582
L437.961 103.987
L438.523 103.987
L438.523 98.6371
L438.985 98.6371
L438.985 94.476
L439.548 94.476
L439.548 96.2593
L440.055 96.2593
L440.055 95.0704
L440.615 95.0704
L440.615 98.6371
L441.127 98.6371
L441.127 99.2315
L441.672 99.2315
L441.672 98.0427
L442.234 98.0427
L442.234 98.6371
L442.792 98.6371
L442.792 95.6649
L443.249 95.6649
L443.249 93.2871
L443.839 93.2871
L443.839 95.6649
L444.452 95.6649
L444.452 96.2593
L444.99 96.2593
L444.99 93.8816
L445.463 93.8816
L445.463 93.2871
L445.996 93.2871
L445.996 93.8816
L446.586 93.8816
L446.586 89.7205
L447.186 89.7205
L447.186 91.5038
L447.727 91.5038
L447.727 94.476
L448.766 94.476
L448.766 93.2871
L449.32 93.2871
L449.32 95.6649
L449.907 95.6649
L449.907 93.2871
L450.433 93.2871
L450.433 95.0704
L450.998 95.0704
L450.998 96.8538
L451.518 96.8538
L451.518 96.2593
L452.677 96.2593
L452.677 97.4482
L453.156 97.4482
L453.156 98.6371
L453.704 98.6371
L453.704 103.393
L454.206 103.393
L454.206 106.959
L454.747 106.959
L454.747 108.743
L455.266 108.743
L455.266 111.12
L455.755 111.12
L455.755 108.743
L456.288 108.743
L456.288 110.526
L456.844 110.526
L456.844 108.148
L457.435 108.148
L457.435 106.365
L457.981 106.365
L457.981 106.959
L458.529 106.959
L458.529 99.826
L459.027 99.826
L459.027 103.393
L459.521 103.393
L459.521 104.582
L460.09 104.582
L460.09 102.798
L460.675 102.798
L460.675 104.582
L461.251 104.582
L461.251 106.959
L461.791 106.959
L461.791 105.77
L462.407 105.77
L462.407 102.204
L462.95 102.204
L462.95 102.798
L463.498 102.798
L463.498 106.959
L464.527 106.959
L464.527 105.176
L465.097 105.176
L465.097 108.743
L465.608 108.743
L465.608 109.337
L466.235 109.337
L466.235 108.148
L466.798 108.148
L466.798 107.554
L467.314 107.554
L467.314 106.959
L467.839 106.959
L467.839 101.609
L469.503 101.609
L469.503 104.582
L470.091 104.582
L470.091 106.365
L470.626 106.365
L470.626 105.77
L471.229 105.77
L471.229 103.987
L471.723 103.987
L471.723 104.582
L472.277 104.582
L472.277 105.77
L473.389 105.77
L473.389 106.959
L473.921 106.959
L473.921 103.987
L474.454 103.987
L474.454 107.554
L474.925 107.554
L474.925 106.959
L475.549 106.959
L475.549 109.932
L476.064 109.932
L476.064 106.365
L476.556 106.365
L476.556 108.743
L477.135 108.743
L477.135 106.365
L477.643 106.365
L477.643 103.393
L478.159 103.393
L478.159 105.77
L479.236 105.77
L479.236 104.582
L479.819 104.582
L479.819 106.959
L480.412 106.959
L480.412 111.12
L481.489 111.12
L481.489 112.309
L481.997 112.309
L481.997 113.498
L482.611 113.498
L482.611 111.12
L483.113 111.12
L483.113 108.148
L483.636 108.148
L483.636 105.176
L484.149 105.176
L484.149 103.393
L484.712 103.393
L484.712 104.582
L485.274 104.582
L485.274 102.204
L486.403 102.204
L486.403 101.609
L486.907 101.609
L486.907 102.204
L487.455 102.204
L487.455 99.2315
L487.995 99.2315
L487.995 100.42
L488.522 100.42
L488.522 99.2315
L489.143 99.2315
L489.143 95.0704
L489.671 95.0704
L489.671 93.2871
L490.192 93.2871
L490.192 97.4482
L491.274 97.4482
L491.274 98.0427
L491.815 98.0427
L491.815 95.0704
L492.946 95.0704
L492.946 92.0982
L493.493 92.0982
L493.493 91.5038
L494.103 91.5038
L494.103 89.7205
L494.632 89.7205
L494.632 88.5316
L495.216 88.5316
L495.216 87.3427
L496.371 87.3427
L496.371 89.126
L496.889 89.126
L496.889 93.2871
L497.414 93.2871
L497.414 92.6927
L497.909 92.6927
L497.909 90.9094
L498.422 90.9094
L498.422 87.9371
L498.905 87.9371
L498.905 85.5594
L499.469 85.5594
L499.469 86.1538
L500.015 86.1538
L500.015 83.1816
L500.569 83.1816
L500.569 80.8038
L501.277 80.8038
L501.277 80.2094
L501.78 80.2094
L501.78 82.5872
L502.343 82.5872
L502.343 85.5594
L502.887 85.5594
L502.887 81.3983
L503.394 81.3983
L503.394 80.2094
L503.933 80.2094
L503.933 78.4261
L504.505 78.4261
L504.505 77.2372
L505.071 77.2372
L505.071 76.6427
L505.582 76.6427
L505.582 74.8594
L506.131 74.8594
L506.131 74.265
L506.654 74.265
L506.654 71.8872
L507.134 71.8872
L507.134 74.8594
L507.684 74.8594
L507.684 76.6427
L508.262 76.6427
L508.262 75.4539
L508.856 75.4539
L508.856 79.6149
L509.959 79.6149
L509.959 80.8038
L510.511 80.8038
L510.511 78.4261
L511.06 78.4261
L511.06 76.6427
L511.63 76.6427
L511.63 74.8594
L512.133 74.8594
L512.133 72.4816
L512.714 72.4816
L512.714 70.1039
L513.29 70.1039
L513.29 71.8872
L513.844 71.8872
L513.844 73.0761
L514.413 73.0761
L514.413 76.0483
L514.956 76.0483
L514.956 81.3983
L515.469 81.3983
L515.469 78.4261
L516.018 78.4261
L516.018 77.2372
L516.544 77.2372
L516.544 80.8038
L517.133 80.8038
L517.133 79.0205
L517.703 79.0205
L517.703 82.5872
L518.28 82.5872
L518.28 81.9927
L518.828 81.9927
L518.828 81.3983
L519.433 81.3983
L519.433 80.2094
L519.957 80.2094
L519.957 75.4539
L520.473 75.4539
L520.473 76.6427
L521.05 76.6427
L521.05 76.0483
L521.638 76.0483
L521.638 75.4539
L522.186 75.4539
L522.186 74.265
L522.721 74.265
L522.721 77.8316
L523.354 77.8316
L523.354 76.6427
L523.92 76.6427
L523.92 78.4261
L524.461 78.4261
L524.461 81.3983
L525.055 81.3983
L525.055 79.0205
L525.565 79.0205
L525.565 79.6149
L526.073 79.6149
L526.073 81.3983
L526.625 81.3983
L526.625 80.8038
L527.164 80.8038
L527.164 80.2094
L527.69 80.2094
L527.69 79.6149
L528.271 79.6149
L528.271 76.6427
L528.849 76.6427
L528.849 76.0483
L529.397 76.0483
L529.397 74.8594
L529.956 74.8594
L529.956 72.4816
L530.444 72.4816
L530.444 71.8872
L530.961 71.8872
L530.961 77.2372
L531.533 77.2372
L531.533 78.4261
L532.118 78.4261
L532.118 76.6427
L532.612 76.6427
L532.612 74.8594
L533.179 74.8594
L533.179 71.8872
L533.824 71.8872
L533.824 74.265
L534.349 74.265
L534.349 73.0761
L534.952 73.0761
L534.952 75.4539
L535.53 75.4539
L535.53 78.4261
L536.079 78.4261
L536.079 75.4539
L536.653 75.4539
L536.653 71.2928
L537.225 71.2928
L537.225 71.8872
L537.79 71.8872
L537.79 74.265
L538.331 74.265
L538.331 74.8594
L538.87 74.8594
L538.87 73.0761
L539.454 73.0761
L539.454 71.8872
L540.057 71.8872
L540.057 72.4816
L540.596 72.4816
L540.596 73.0761
L541.114 73.0761
L541.114 72.4816
L541.703 72.4816
L541.703 69.5094
L542.28 69.5094
L542.28 61.1872
L542.839 61.1872
L542.839 62.3761
L543.363 62.3761
L543.363 66.5372
L543.874 66.5372
L543.874 62.3761
L544.423 62.3761
L544.423 66.5372
L544.993 66.5372
L544.993 66.5372" style="fill:none;stroke:#0000ff;"/>
   </g>
   <g id="matplotlib.axis_1">
    <g id="xtick_1">
     <g id="line2d_2">
      <defs>
       <path d="
M0 0
L0 -4" id="mb98c1d77ad"/>
      </defs>
      <g>
       <use style="stroke:#000000;stroke-linecap:butt;stroke-width:0.5;" x="32.7421875" xlink:href="#mb98c1d77ad" y="14.5235279903"/>
      </g>
     </g>
    </g>
    <g id="xtick_2">
     <g id="line2d_3">
      <defs>
       <path d="
M0 0
L0 -4" id="mb98c1d77ad"/>
      </defs>
      <g>
       <use style="stroke:#000000;stroke-linecap:butt;stroke-width:0.5;" x="135.239351264" xlink:href="#mb98c1d77ad" y="14.5235279903"/>
      </g>
     </g>
     <g id="text_1">
      <!-- 2e5 -->
      <defs>
       <path d="
M19.1875 8.29688
L53.6094 8.29688
L53.6094 0
L7.32812 0
L7.32812 8.29688
Q12.9375 14.1094 22.625 23.8906
Q32.3281 33.6875 34.8125 36.5312
Q39.5469 41.8438 41.4219 45.5312
Q43.3125 49.2188 43.3125 52.7812
Q43.3125 58.5938 39.2344 62.25
Q35.1562 65.9219 28.6094 65.9219
Q23.9688 65.9219 18.8125 64.3125
Q13.6719 62.7031 7.8125 59.4219
L7.8125 69.3906
Q13.7656 71.7812 18.9375 73
Q24.125 74.2188 28.4219 74.2188
Q39.75 74.2188 46.4844 68.5469
Q53.2188 62.8906 53.2188 53.4219
Q53.2188 48.9219 51.5312 44.8906
Q49.8594 40.875 45.4062 35.4062
Q44.1875 33.9844 37.6406 27.2188
Q31.1094 20.4531 19.1875 8.29688" id="BitstreamVeraSans-Roman-32"/>
       <path d="
M56.2031 29.5938
L56.2031 25.2031
L14.8906 25.2031
Q15.4844 15.9219 20.4844 11.0625
Q25.4844 6.20312 34.4219 6.20312
Q39.5938 6.20312 44.4531 7.46875
Q49.3125 8.73438 54.1094 11.2812
L54.1094 2.78125
Q49.2656 0.734375 44.1875 -0.34375
Q39.1094 -1.42188 33.8906 -1.42188
Q20.7969 -1.42188 13.1562 6.1875
Q5.51562 13.8125 5.51562 26.8125
Q5.51562 40.2344 12.7656 48.1094
Q20.0156 56 32.3281 56
Q43.3594 56 49.7812 48.8906
Q56.2031 41.7969 56.2031 29.5938
M47.2188 32.2344
Q47.125 39.5938 43.0938 43.9844
Q39.0625 48.3906 32.4219 48.3906
Q24.9062 48.3906 20.3906 44.1406
Q15.875 39.8906 15.1875 32.1719
z
" id="BitstreamVeraSans-Roman-65"/>
       <path d="
M10.7969 72.9062
L49.5156 72.9062
L49.5156 64.5938
L19.8281 64.5938
L19.8281 46.7344
Q21.9688 47.4688 24.1094 47.8281
Q26.2656 48.1875 28.4219 48.1875
Q40.625 48.1875 47.75 41.5
Q54.8906 34.8125 54.8906 23.3906
Q54.8906 11.625 47.5625 5.09375
Q40.2344 -1.42188 26.9062 -1.42188
Q22.3125 -1.42188 17.5469 -0.640625
Q12.7969 0.140625 7.71875 1.70312
L7.71875 11.625
Q12.1094 9.23438 16.7969 8.0625
Q21.4844 6.89062 26.7031 6.89062
Q35.1562 6.89062 40.0781 11.3281
Q45.0156 15.7656 45.0156 23.3906
Q45.0156 31 40.0781 35.4375
Q35.1562 39.8906 26.7031 39.8906
Q22.75 39.8906 18.8125 39.0156
Q14.8906 38.1406 10.7969 36.2812
z
" id="BitstreamVeraSans-Roman-35"/>
      </defs>
      <g transform="translate(126.603413764 25.9454029903)scale(0.1 -0.1)">
       <use xlink:href="#BitstreamVeraSans-Roman-32"/>
       <use x="63.623046875" xlink:href="#BitstreamVeraSans-Roman-65"/>
       <use x="125.146484375" xlink:href="#BitstreamVeraSans-Roman-35"/>
      </g>
     </g>
    </g>
    <g id="xtick_3">
     <g id="line2d_4">
      <defs>
       <path d="
M0 0
L0 -4" id="mb98c1d77ad"/>
      </defs>
      <g>
       <use style="stroke:#000000;stroke-linecap:butt;stroke-width:0.5;" x="237.736515028" xlink:href="#mb98c1d77ad" y="14.5235279903"/>
      </g>
     </g>
     <g id="text_2">
      <!-- 4e5 -->
      <defs>
       <path d="
M37.7969 64.3125
L12.8906 25.3906
L37.7969 25.3906
z

M35.2031 72.9062
L47.6094 72.9062
L47.6094 25.3906
L58.0156 25.3906
L58.0156 17.1875
L47.6094 17.1875
L47.6094 0
L37.7969 0
L37.7969 17.1875
L4.89062 17.1875
L4.89062 26.7031
z
" id="BitstreamVeraSans-Roman-34"/>
      </defs>
      <g transform="translate(228.978702528 25.8141529903)scale(0.1 -0.1)">
       <use xlink:href="#BitstreamVeraSans-Roman-34"/>
       <use x="63.623046875" xlink:href="#BitstreamVeraSans-Roman-65"/>
       <use x="125.146484375" xlink:href="#BitstreamVeraSans-Roman-35"/>
      </g>
     </g>
    </g>
    <g id="xtick_4">
     <g id="line2d_5">
      <defs>
       <path d="
M0 0
L0 -4" id="mb98c1d77ad"/>
      </defs>
      <g>
       <use style="stroke:#000000;stroke-linecap:butt;stroke-width:0.5;" x="340.233678792" xlink:href="#mb98c1d77ad" y="14.5235279903"/>
      </g>
     </g>
     <g id="text_3">
      <!-- 6e5 -->
      <defs>
       <path d="
M33.0156 40.375
Q26.375 40.375 22.4844 35.8281
Q18.6094 31.2969 18.6094 23.3906
Q18.6094 15.5312 22.4844 10.9531
Q26.375 6.39062 33.0156 6.39062
Q39.6562 6.39062 43.5312 10.9531
Q47.4062 15.5312 47.4062 23.3906
Q47.4062 31.2969 43.5312 35.8281
Q39.6562 40.375 33.0156 40.375
M52.5938 71.2969
L52.5938 62.3125
Q48.875 64.0625 45.0938 64.9844
Q41.3125 65.9219 37.5938 65.9219
Q27.8281 65.9219 22.6719 59.3281
Q17.5312 52.7344 16.7969 39.4062
Q19.6719 43.6562 24.0156 45.9219
Q28.375 48.1875 33.5938 48.1875
Q44.5781 48.1875 50.9531 41.5156
Q57.3281 34.8594 57.3281 23.3906
Q57.3281 12.1562 50.6875 5.35938
Q44.0469 -1.42188 33.0156 -1.42188
Q20.3594 -1.42188 13.6719 8.26562
Q6.98438 17.9688 6.98438 36.375
Q6.98438 53.6562 15.1875 63.9375
Q23.3906 74.2188 37.2031 74.2188
Q40.9219 74.2188 44.7031 73.4844
Q48.4844 72.75 52.5938 71.2969" id="BitstreamVeraSans-Roman-36"/>
      </defs>
      <g transform="translate(331.580553792 25.9454029903)scale(0.1 -0.1)">
       <use xlink:href="#BitstreamVeraSans-Roman-36"/>
       <use x="63.623046875" xlink:href="#BitstreamVeraSans-Roman-65"/>
       <use x="125.146484375" xlink:href="#BitstreamVeraSans-Roman-35"/>
      </g>
     </g>
    </g>
    <g id="xtick_5">
     <g id="line2d_6">
      <defs>
       <path d="
M0 0
L0 -4" id="mb98c1d77ad"/>
      </defs>
      <g>
       <use style="stroke:#000000;stroke-linecap:butt;stroke-width:0.5;" x="442.730842556" xlink:href="#mb98c1d77ad" y="14.5235279903"/>
      </g>
     </g>
     <g id="text_4">
      <!-- 8e5 -->
      <defs>
       <path d="
M31.7812 34.625
Q24.75 34.625 20.7188 30.8594
Q16.7031 27.0938 16.7031 20.5156
Q16.7031 13.9219 20.7188 10.1562
Q24.75 6.39062 31.7812 6.39062
Q38.8125 6.39062 42.8594 10.1719
Q46.9219 13.9688 46.9219 20.5156
Q46.9219 27.0938 42.8906 30.8594
Q38.875 34.625 31.7812 34.625
M21.9219 38.8125
Q15.5781 40.375 12.0312 44.7188
Q8.5 49.0781 8.5 55.3281
Q8.5 64.0625 14.7188 69.1406
Q20.9531 74.2188 31.7812 74.2188
Q42.6719 74.2188 48.875 69.1406
Q55.0781 64.0625 55.0781 55.3281
Q55.0781 49.0781 51.5312 44.7188
Q48 40.375 41.7031 38.8125
Q48.8281 37.1562 52.7969 32.3125
Q56.7812 27.4844 56.7812 20.5156
Q56.7812 9.90625 50.3125 4.23438
Q43.8438 -1.42188 31.7812 -1.42188
Q19.7344 -1.42188 13.25 4.23438
Q6.78125 9.90625 6.78125 20.5156
Q6.78125 27.4844 10.7812 32.3125
Q14.7969 37.1562 21.9219 38.8125
M18.3125 54.3906
Q18.3125 48.7344 21.8438 45.5625
Q25.3906 42.3906 31.7812 42.3906
Q38.1406 42.3906 41.7188 45.5625
Q45.3125 48.7344 45.3125 54.3906
Q45.3125 60.0625 41.7188 63.2344
Q38.1406 66.4062 31.7812 66.4062
Q25.3906 66.4062 21.8438 63.2344
Q18.3125 60.0625 18.3125 54.3906" id="BitstreamVeraSans-Roman-38"/>
      </defs>
      <g transform="translate(434.067561306 25.9454029903)scale(0.1 -0.1)">
       <use xlink:href="#BitstreamVeraSans-Roman-38"/>
       <use x="63.623046875" xlink:href="#BitstreamVeraSans-Roman-65"/>
       <use x="125.146484375" xlink:href="#BitstreamVeraSans-Roman-35"/>
      </g>
     </g>
    </g>
    <g id="xtick_6">
     <g id="line2d_7">
      <defs>
       <path d="
M0 0
L0 -4" id="mb98c1d77ad"/>
      </defs>
      <g>
       <use style="stroke:#000000;stroke-linecap:butt;stroke-width:0.5;" x="545.22800632" xlink:href="#mb98c1d77ad" y="14.5235279903"/>
      </g>
     </g>
     <g id="text_5">
      <!-- 1e6 -->
      <defs>
       <path d="
M12.4062 8.29688
L28.5156 8.29688
L28.5156 63.9219
L10.9844 60.4062
L10.9844 69.3906
L28.4219 72.9062
L38.2812 72.9062
L38.2812 8.29688
L54.3906 8.29688
L54.3906 0
L12.4062 0
z
" id="BitstreamVeraSans-Roman-31"/>
      </defs>
      <g transform="translate(536.65300632 25.9454029903)scale(0.1 -0.1)">
       <use xlink:href="#BitstreamVeraSans-Roman-31"/>
       <use x="63.623046875" xlink:href="#BitstreamVeraSans-Roman-65"/>
       <use x="125.146484375" xlink:href="#BitstreamVeraSans-Roman-36"/>
      </g>
     </g>
    </g>
    <g id="xtick_7">
     <g id="line2d_8">
      <defs>
       <path d="
M0 0
L0 -2" id="m85a2eaf53d"/>
      </defs>
      <g>
       <use style="stroke:#000000;stroke-linecap:butt;stroke-width:0.5;" x="58.366478441" xlink:href="#m85a2eaf53d" y="14.5235279903"/>
      </g>
     </g>
    </g>
    <g id="xtick_8">
     <g id="line2d_9">
      <defs>
       <path d="
M0 0
L0 -2" id="m85a2eaf53d"/>
      </defs>
      <g>
       <use style="stroke:#000000;stroke-linecap:butt;stroke-width:0.5;" x="83.990769382" xlink:href="#m85a2eaf53d" y="14.5235279903"/>
      </g>
     </g>
    </g>
    <g id="xtick_9">
     <g id="line2d_10">
      <defs>
       <path d="
M0 0
L0 -2" id="m85a2eaf53d"/>
      </defs>
      <g>
       <use style="stroke:#000000;stroke-linecap:butt;stroke-width:0.5;" x="109.615060323" xlink:href="#m85a2eaf53d" y="14.5235279903"/>
      </g>
     </g>
    </g>
    <g id="xtick_10">
     <g id="line2d_11">
      <defs>
       <path d="
M0 0
L0 -2" id="m85a2eaf53d"/>
      </defs>
      <g>
       <use style="stroke:#000000;stroke-linecap:butt;stroke-width:0.5;" x="160.863642205" xlink:href="#m85a2eaf53d" y="14.5235279903"/>
      </g>
     </g>
    </g>
    <g id="xtick_11">
     <g id="line2d_12">
      <defs>
       <path d="
M0 0
L0 -2" id="m85a2eaf53d"/>
      </defs>
      <g>
       <use style="stroke:#000000;stroke-linecap:butt;stroke-width:0.5;" x="186.487933146" xlink:href="#m85a2eaf53d" y="14.5235279903"/>
      </g>
     </g>
    </g>
    <g id="xtick_12">
     <g id="line2d_13">
      <defs>
       <path d="
M0 0
L0 -2" id="m85a2eaf53d"/>
      </defs>
      <g>
       <use style="stroke:#000000;stroke-linecap:butt;stroke-width:0.5;" x="212.112224087" xlink:href="#m85a2eaf53d" y="14.5235279903"/>
      </g>
     </g>
    </g>
    <g id="xtick_13">
     <g id="line2d_14">
      <defs>
       <path d="
M0 0
L0 -2" id="m85a2eaf53d"/>
      </defs>
      <g>
       <use style="stroke:#000000;stroke-linecap:butt;stroke-width:0.5;" x="263.360805969" xlink:href="#m85a2eaf53d" y="14.5235279903"/>
      </g>
     </g>
    </g>
    <g id="xtick_14">
     <g id="line2d_15">
      <defs>
       <path d="
M0 0
L0 -2" id="m85a2eaf53d"/>
      </defs>
      <g>
       <use style="stroke:#000000;stroke-linecap:butt;stroke-width:0.5;" x="288.98509691" xlink:href="#m85a2eaf53d" y="14.5235279903"/>
      </g>
     </g>
    </g>
    <g id="xtick_15">
     <g id="line2d_16">
      <defs>
       <path d="
M0 0
L0 -2" id="m85a2eaf53d"/>
      </defs>
      <g>
       <use style="stroke:#000000;stroke-linecap:butt;stroke-width:0.5;" x="314.609387851" xlink:href="#m85a2eaf53d" y="14.5235279903"/>
      </g>
     </g>
    </g>
    <g id="xtick_16">
     <g id="line2d_17">
      <defs>
       <path d="
M0 0
L0 -2" id="m85a2eaf53d"/>
      </defs>
      <g>
       <use style="stroke:#000000;stroke-linecap:butt;stroke-width:0.5;" x="365.857969733" xlink:href="#m85a2eaf53d" y="14.5235279903"/>
      </g>
     </g>
    </g>
    <g id="xtick_17">
     <g id="line2d_18">
      <defs>
       <path d="
M0 0
L0 -2" id="m85a2eaf53d"/>
      </defs>
      <g>
       <use style="stroke:#000000;stroke-linecap:butt;stroke-width:0.5;" x="391.482260674" xlink:href="#m85a2eaf53d" y="14.5235279903"/>
      </g>
     </g>
    </g>
    <g id="xtick_18">
     <g id="line2d_19">
      <defs>
       <path d="
M0 0
L0 -2" id="m85a2eaf53d"/>
      </defs>
      <g>
       <use style="stroke:#000000;stroke-linecap:butt;stroke-width:0.5;" x="417.106551615" xlink:href="#m85a2eaf53d" y="14.5235279903"/>
      </g>
     </g>
    </g>
    <g id="xtick_19">
     <g id="line2d_20">
      <defs>
       <path d="
M0 0
L0 -2" id="m85a2eaf53d"/>
      </defs>
      <g>
       <use style="stroke:#000000;stroke-linecap:butt;stroke-width:0.5;" x="468.355133497" xlink:href="#m85a2eaf53d" y="14.5235279903"/>
      </g>
     </g>
    </g>
    <g id="xtick_20">
     <g id="line2d_21">
      <defs>
       <path d="
M0 0
L0 -2" id="m85a2eaf53d"/>
      </defs>
      <g>
       <use style="stroke:#000000;stroke-linecap:butt;stroke-width:0.5;" x="493.979424438" xlink:href="#m85a2eaf53d" y="14.5235279903"/>
      </g>
     </g>
    </g>
    <g id="xtick_21">
     <g id="line2d_22">
      <defs>
       <path d="
M0 0
L0 -2" id="m85a2eaf53d"/>
      </defs>
      <g>
       <use style="stroke:#000000;stroke-linecap:butt;stroke-width:0.5;" x="519.603715379" xlink:href="#m85a2eaf53d" y="14.5235279903"/>
      </g>
     </g>
    </g>
   </g>
   <g id="matplotlib.axis_2">
    <g id="ytick_1">
     <g id="line2d_23">
      <defs>
       <path d="
M0 0
L4 0" id="me03e4bbd3f"/>
      </defs>
      <g>
       <use style="stroke:#000000;stroke-linecap:butt;stroke-width:0.5;" x="32.7421875" xlink:href="#me03e4bbd3f" y="118.550914217"/>
      </g>
     </g>
     <g id="text_6">
      <!-- -350 -->
      <defs>
       <path d="
M40.5781 39.3125
Q47.6562 37.7969 51.625 33
Q55.6094 28.2188 55.6094 21.1875
Q55.6094 10.4062 48.1875 4.48438
Q40.7656 -1.42188 27.0938 -1.42188
Q22.5156 -1.42188 17.6562 -0.515625
Q12.7969 0.390625 7.625 2.20312
L7.625 11.7188
Q11.7188 9.32812 16.5938 8.10938
Q21.4844 6.89062 26.8125 6.89062
Q36.0781 6.89062 40.9375 10.5469
Q45.7969 14.2031 45.7969 21.1875
Q45.7969 27.6406 41.2812 31.2656
Q36.7656 34.9062 28.7188 34.9062
L20.2188 34.9062
L20.2188 43.0156
L29.1094 43.0156
Q36.375 43.0156 40.2344 45.9219
Q44.0938 48.8281 44.0938 54.2969
Q44.0938 59.9062 40.1094 62.9062
Q36.1406 65.9219 28.7188 65.9219
Q24.6562 65.9219 20.0156 65.0312
Q15.375 64.1562 9.8125 62.3125
L9.8125 71.0938
Q15.4375 72.6562 20.3438 73.4375
Q25.25 74.2188 29.5938 74.2188
Q40.8281 74.2188 47.3594 69.1094
Q53.9062 64.0156 53.9062 55.3281
Q53.9062 49.2656 50.4375 45.0938
Q46.9688 40.9219 40.5781 39.3125" id="BitstreamVeraSans-Roman-33"/>
       <path d="
M31.7812 66.4062
Q24.1719 66.4062 20.3281 58.9062
Q16.5 51.4219 16.5 36.375
Q16.5 21.3906 20.3281 13.8906
Q24.1719 6.39062 31.7812 6.39062
Q39.4531 6.39062 43.2812 13.8906
Q47.125 21.3906 47.125 36.375
Q47.125 51.4219 43.2812 58.9062
Q39.4531 66.4062 31.7812 66.4062
M31.7812 74.2188
Q44.0469 74.2188 50.5156 64.5156
Q56.9844 54.8281 56.9844 36.375
Q56.9844 17.9688 50.5156 8.26562
Q44.0469 -1.42188 31.7812 -1.42188
Q19.5312 -1.42188 13.0625 8.26562
Q6.59375 17.9688 6.59375 36.375
Q6.59375 54.8281 13.0625 64.5156
Q19.5312 74.2188 31.7812 74.2188" id="BitstreamVeraSans-Roman-30"/>
       <path d="
M4.89062 31.3906
L31.2031 31.3906
L31.2031 23.3906
L4.89062 23.3906
z
" id="BitstreamVeraSans-Roman-2d"/>
      </defs>
      <g transform="translate(7.2 122.190757967)scale(0.1 -0.1)">
       <use xlink:href="#BitstreamVeraSans-Roman-2d"/>
       <use x="36.083984375" xlink:href="#BitstreamVeraSans-Roman-33"/>
       <use x="99.70703125" xlink:href="#BitstreamVeraSans-Roman-35"/>
       <use x="163.330078125" xlink:href="#BitstreamVeraSans-Roman-30"/>
      </g>
     </g>
    </g>
    <g id="ytick_2">
     <g id="line2d_24">
      <defs>
       <path d="
M0 0
L4 0" id="me03e4bbd3f"/>
      </defs>
      <g>
       <use style="stroke:#000000;stroke-linecap:butt;stroke-width:0.5;" x="32.7421875" xlink:href="#me03e4bbd3f" y="103.689859041"/>
      </g>
     </g>
     <g id="text_7">
      <!-- -300 -->
      <g transform="translate(7.2 107.329702791)scale(0.1 -0.1)">
       <use xlink:href="#BitstreamVeraSans-Roman-2d"/>
       <use x="36.083984375" xlink:href="#BitstreamVeraSans-Roman-33"/>
       <use x="99.70703125" xlink:href="#BitstreamVeraSans-Roman-30"/>
       <use x="163.330078125" xlink:href="#BitstreamVeraSans-Roman-30"/>
      </g>
     </g>
    </g>
    <g id="ytick_3">
     <g id="line2d_25">
      <defs>
       <path d="
M0 0
L4 0" id="me03e4bbd3f"/>
      </defs>
      <g>
       <use style="stroke:#000000;stroke-linecap:butt;stroke-width:0.5;" x="32.7421875" xlink:href="#me03e4bbd3f" y="88.8288038663"/>
      </g>
     </g>
     <g id="text_8">
      <!-- -250 -->
      <g transform="translate(7.2 92.4686476163)scale(0.1 -0.1)">
       <use xlink:href="#BitstreamVeraSans-Roman-2d"/>
       <use x="36.083984375" xlink:href="#BitstreamVeraSans-Roman-32"/>
       <use x="99.70703125" xlink:href="#BitstreamVeraSans-Roman-35"/>
       <use x="163.330078125" xlink:href="#BitstreamVeraSans-Roman-30"/>
      </g>
     </g>
    </g>
    <g id="ytick_4">
     <g id="line2d_26">
      <defs>
       <path d="
M0 0
L4 0" id="me03e4bbd3f"/>
      </defs>
      <g>
       <use style="stroke:#000000;stroke-linecap:butt;stroke-width:0.5;" x="32.7421875" xlink:href="#me03e4bbd3f" y="73.9677486911"/>
      </g>
     </g>
     <g id="text_9">
      <!-- -200 -->
      <g transform="translate(7.2 77.6075924411)scale(0.1 -0.1)">
       <use xlink:href="#BitstreamVeraSans-Roman-2d"/>
       <use x="36.083984375" xlink:href="#BitstreamVeraSans-Roman-32"/>
       <use x="99.70703125" xlink:href="#BitstreamVeraSans-Roman-30"/>
       <use x="163.330078125" xlink:href="#BitstreamVeraSans-Roman-30"/>
      </g>
     </g>
    </g>
    <g id="ytick_5">
     <g id="line2d_27">
      <defs>
       <path d="
M0 0
L4 0" id="me03e4bbd3f"/>
      </defs>
      <g>
       <use style="stroke:#000000;stroke-linecap:butt;stroke-width:0.5;" x="32.7421875" xlink:href="#me03e4bbd3f" y="59.1066935159"/>
      </g>
     </g>
     <g id="text_10">
      <!-- -150 -->
      <g transform="translate(7.2 62.7465372659)scale(0.1 -0.1)">
       <use xlink:href="#BitstreamVeraSans-Roman-2d"/>
       <use x="36.083984375" xlink:href="#BitstreamVeraSans-Roman-31"/>
       <use x="99.70703125" xlink:href="#BitstreamVeraSans-Roman-35"/>
       <use x="163.330078125" xlink:href="#BitstreamVeraSans-Roman-30"/>
      </g>
     </g>
    </g>
    <g id="ytick_6">
     <g id="line2d_28">
      <defs>
       <path d="
M0 0
L4 0" id="me03e4bbd3f"/>
      </defs>
      <g>
       <use style="stroke:#000000;stroke-linecap:butt;stroke-width:0.5;" x="32.7421875" xlink:href="#me03e4bbd3f" y="44.2456383407"/>
      </g>
     </g>
     <g id="text_11">
      <!-- -100 -->
      <g transform="translate(7.2 47.8854820907)scale(0.1 -0.1)">
       <use xlink:href="#BitstreamVeraSans-Roman-2d"/>
       <use x="36.083984375" xlink:href="#BitstreamVeraSans-Roman-31"/>
       <use x="99.70703125" xlink:href="#BitstreamVeraSans-Roman-30"/>
       <use x="163.330078125" xlink:href="#BitstreamVeraSans-Roman-30"/>
      </g>
     </g>
    </g>
    <g id="ytick_7">
     <g id="line2d_29">
      <defs>
       <path d="
M0 0
L4 0" id="me03e4bbd3f"/>
      </defs>
      <g>
       <use style="stroke:#000000;stroke-linecap:butt;stroke-width:0.5;" x="32.7421875" xlink:href="#me03e4bbd3f" y="29.3845831655"/>
      </g>
     </g>
     <g id="text_12">
      <!-- -50 -->
      <g transform="translate(13.5625 33.0244269155)scale(0.1 -0.1)">
       <use xlink:href="#BitstreamVeraSans-Roman-2d"/>
       <use x="36.083984375" xlink:href="#BitstreamVeraSans-Roman-35"/>
       <use x="99.70703125" xlink:href="#BitstreamVeraSans-Roman-30"/>
      </g>
     </g>
    </g>
    <g id="ytick_8">
     <g id="line2d_30">
      <defs>
       <path d="
M0 0
L4 0" id="me03e4bbd3f"/>
      </defs>
      <g>
       <use style="stroke:#000000;stroke-linecap:butt;stroke-width:0.5;" x="32.7421875" xlink:href="#me03e4bbd3f" y="14.5235279903"/>
      </g>
     </g>
    </g>
    <g id="ytick_9">
     <g id="line2d_31">
      <defs>
       <path d="
M0 0
L2 0" id="m59abd9aada"/>
      </defs>
      <g>
       <use style="stroke:#000000;stroke-linecap:butt;stroke-width:0.5;" x="32.7421875" xlink:href="#m59abd9aada" y="124.495336287"/>
      </g>
     </g>
    </g>
    <g id="ytick_10">
     <g id="line2d_32">
      <defs>
       <path d="
M0 0
L2 0" id="m59abd9aada"/>
      </defs>
      <g>
       <use style="stroke:#000000;stroke-linecap:butt;stroke-width:0.5;" x="32.7421875" xlink:href="#m59abd9aada" y="121.523125252"/>
      </g>
     </g>
    </g>
    <g id="ytick_11">
     <g id="line2d_33">
      <defs>
       <path d="
M0 0
L2 0" id="m59abd9aada"/>
      </defs>
      <g>
       <use style="stroke:#000000;stroke-linecap:butt;stroke-width:0.5;" x="32.7421875" xlink:href="#m59abd9aada" y="115.578703182"/>
      </g>
     </g>
    </g>
    <g id="ytick_12">
     <g id="line2d_34">
      <defs>
       <path d="
M0 0
L2 0" id="m59abd9aada"/>
      </defs>
      <g>
       <use style="stroke:#000000;stroke-linecap:butt;stroke-width:0.5;" x="32.7421875" xlink:href="#m59abd9aada" y="112.606492147"/>
      </g>
     </g>
    </g>
    <g id="ytick_13">
     <g id="line2d_35">
      <defs>
       <path d="
M0 0
L2 0" id="m59abd9aada"/>
      </defs>
      <g>
       <use style="stroke:#000000;stroke-linecap:butt;stroke-width:0.5;" x="32.7421875" xlink:href="#m59abd9aada" y="109.634281112"/>
      </g>
     </g>
    </g>
    <g id="ytick_14">
     <g id="line2d_36">
      <defs>
       <path d="
M0 0
L2 0" id="m59abd9aada"/>
      </defs>
      <g>
       <use style="stroke:#000000;stroke-linecap:butt;stroke-width:0.5;" x="32.7421875" xlink:href="#m59abd9aada" y="106.662070077"/>
      </g>
     </g>
    </g>
    <g id="ytick_15">
     <g id="line2d_37">
      <defs>
       <path d="
M0 0
L2 0" id="m59abd9aada"/>
      </defs>
      <g>
       <use style="stroke:#000000;stroke-linecap:butt;stroke-width:0.5;" x="32.7421875" xlink:href="#m59abd9aada" y="100.717648006"/>
      </g>
     </g>
    </g>
    <g id="ytick_16">
     <g id="line2d_38">
      <defs>
       <path d="
M0 0
L2 0" id="m59abd9aada"/>
      </defs>
      <g>
       <use style="stroke:#000000;stroke-linecap:butt;stroke-width:0.5;" x="32.7421875" xlink:href="#m59abd9aada" y="97.7454369714"/>
      </g>
     </g>
    </g>
    <g id="ytick_17">
     <g id="line2d_39">
      <defs>
       <path d="
M0 0
L2 0" id="m59abd9aada"/>
      </defs>
      <g>
       <use style="stroke:#000000;stroke-linecap:butt;stroke-width:0.5;" x="32.7421875" xlink:href="#m59abd9aada" y="94.7732259364"/>
      </g>
     </g>
    </g>
    <g id="ytick_18">
     <g id="line2d_40">
      <defs>
       <path d="
M0 0
L2 0" id="m59abd9aada"/>
      </defs>
      <g>
       <use style="stroke:#000000;stroke-linecap:butt;stroke-width:0.5;" x="32.7421875" xlink:href="#m59abd9aada" y="91.8010149013"/>
      </g>
     </g>
    </g>
    <g id="ytick_19">
     <g id="line2d_41">
      <defs>
       <path d="
M0 0
L2 0" id="m59abd9aada"/>
      </defs>
      <g>
       <use style="stroke:#000000;stroke-linecap:butt;stroke-width:0.5;" x="32.7421875" xlink:href="#m59abd9aada" y="85.8565928313"/>
      </g>
     </g>
    </g>
    <g id="ytick_20">
     <g id="line2d_42">
      <defs>
       <path d="
M0 0
L2 0" id="m59abd9aada"/>
      </defs>
      <g>
       <use style="stroke:#000000;stroke-linecap:butt;stroke-width:0.5;" x="32.7421875" xlink:href="#m59abd9aada" y="82.8843817962"/>
      </g>
     </g>
    </g>
    <g id="ytick_21">
     <g id="line2d_43">
      <defs>
       <path d="
M0 0
L2 0" id="m59abd9aada"/>
      </defs>
      <g>
       <use style="stroke:#000000;stroke-linecap:butt;stroke-width:0.5;" x="32.7421875" xlink:href="#m59abd9aada" y="79.9121707612"/>
      </g>
     </g>
    </g>
    <g id="ytick_22">
     <g id="line2d_44">
      <defs>
       <path d="
M0 0
L2 0" id="m59abd9aada"/>
      </defs>
      <g>
       <use style="stroke:#000000;stroke-linecap:butt;stroke-width:0.5;" x="32.7421875" xlink:href="#m59abd9aada" y="76.9399597261"/>
      </g>
     </g>
    </g>
    <g id="ytick_23">
     <g id="line2d_45">
      <defs>
       <path d="
M0 0
L2 0" id="m59abd9aada"/>
      </defs>
      <g>
       <use style="stroke:#000000;stroke-linecap:butt;stroke-width:0.5;" x="32.7421875" xlink:href="#m59abd9aada" y="70.9955376561"/>
      </g>
     </g>
    </g>
    <g id="ytick_24">
     <g id="line2d_46">
      <defs>
       <path d="
M0 0
L2 0" id="m59abd9aada"/>
      </defs>
      <g>
       <use style="stroke:#000000;stroke-linecap:butt;stroke-width:0.5;" x="32.7421875" xlink:href="#m59abd9aada" y="68.023326621"/>
      </g>
     </g>
    </g>
    <g id="ytick_25">
     <g id="line2d_47">
      <defs>
       <path d="
M0 0
L2 0" id="m59abd9aada"/>
      </defs>
      <g>
       <use style="stroke:#000000;stroke-linecap:butt;stroke-width:0.5;" x="32.7421875" xlink:href="#m59abd9aada" y="65.051115586"/>
      </g>
     </g>
    </g>
    <g id="ytick_26">
     <g id="line2d_48">
      <defs>
       <path d="
M0 0
L2 0" id="m59abd9aada"/>
      </defs>
      <g>
       <use style="stroke:#000000;stroke-linecap:butt;stroke-width:0.5;" x="32.7421875" xlink:href="#m59abd9aada" y="62.0789045509"/>
      </g>
     </g>
    </g>
    <g id="ytick_27">
     <g id="line2d_49">
      <defs>
       <path d="
M0 0
L2 0" id="m59abd9aada"/>
      </defs>
      <g>
       <use style="stroke:#000000;stroke-linecap:butt;stroke-width:0.5;" x="32.7421875" xlink:href="#m59abd9aada" y="56.1344824809"/>
      </g>
     </g>
    </g>
    <g id="ytick_28">
     <g id="line2d_50">
      <defs>
       <path d="
M0 0
L2 0" id="m59abd9aada"/>
      </defs>
      <g>
       <use style="stroke:#000000;stroke-linecap:butt;stroke-width:0.5;" x="32.7421875" xlink:href="#m59abd9aada" y="53.1622714458"/>
      </g>
     </g>
    </g>
    <g id="ytick_29">
     <g id="line2d_51">
      <defs>
       <path d="
M0 0
L2 0" id="m59abd9aada"/>
      </defs>
      <g>
       <use style="stroke:#000000;stroke-linecap:butt;stroke-width:0.5;" x="32.7421875" xlink:href="#m59abd9aada" y="50.1900604108"/>
      </g>
     </g>
    </g>
    <g id="ytick_30">
     <g id="line2d_52">
      <defs>
       <path d="
M0 0
L2 0" id="m59abd9aada"/>
      </defs>
      <g>
       <use style="stroke:#000000;stroke-linecap:butt;stroke-width:0.5;" x="32.7421875" xlink:href="#m59abd9aada" y="47.2178493758"/>
      </g>
     </g>
    </g>
    <g id="ytick_31">
     <g id="line2d_53">
      <defs>
       <path d="
M0 0
L2 0" id="m59abd9aada"/>
      </defs>
      <g>
       <use style="stroke:#000000;stroke-linecap:butt;stroke-width:0.5;" x="32.7421875" xlink:href="#m59abd9aada" y="41.2734273057"/>
      </g>
     </g>
    </g>
    <g id="ytick_32">
     <g id="line2d_54">
      <defs>
       <path d="
M0 0
L2 0" id="m59abd9aada"/>
      </defs>
      <g>
       <use style="stroke:#000000;stroke-linecap:butt;stroke-width:0.5;" x="32.7421875" xlink:href="#m59abd9aada" y="38.3012162706"/>
      </g>
     </g>
    </g>
    <g id="ytick_33">
     <g id="line2d_55">
      <defs>
       <path d="
M0 0
L2 0" id="m59abd9aada"/>
      </defs>
      <g>
       <use style="stroke:#000000;stroke-linecap:butt;stroke-width:0.5;" x="32.7421875" xlink:href="#m59abd9aada" y="35.3290052356"/>
      </g>
     </g>
    </g>
    <g id="ytick_34">
     <g id="line2d_56">
      <defs>
       <path d="
M0 0
L2 0" id="m59abd9aada"/>
      </defs>
      <g>
       <use style="stroke:#000000;stroke-linecap:butt;stroke-width:0.5;" x="32.7421875" xlink:href="#m59abd9aada" y="32.3567942006"/>
      </g>
     </g>
    </g>
    <g id="ytick_35">
     <g id="line2d_57">
      <defs>
       <path d="
M0 0
L2 0" id="m59abd9aada"/>
      </defs>
      <g>
       <use style="stroke:#000000;stroke-linecap:butt;stroke-width:0.5;" x="32.7421875" xlink:href="#m59abd9aada" y="26.4123721305"/>
      </g>
     </g>
    </g>
    <g id="ytick_36">
     <g id="line2d_58">
      <defs>
       <path d="
M0 0
L2 0" id="m59abd9aada"/>
      </defs>
      <g>
       <use style="stroke:#000000;stroke-linecap:butt;stroke-width:0.5;" x="32.7421875" xlink:href="#m59abd9aada" y="23.4401610954"/>
      </g>
     </g>
    </g>
    <g id="ytick_37">
     <g id="line2d_59">
      <defs>
       <path d="
M0 0
L2 0" id="m59abd9aada"/>
      </defs>
      <g>
       <use style="stroke:#000000;stroke-linecap:butt;stroke-width:0.5;" x="32.7421875" xlink:href="#m59abd9aada" y="20.4679500604"/>
      </g>
     </g>
    </g>
    <g id="ytick_38">
     <g id="line2d_60">
      <defs>
       <path d="
M0 0
L2 0" id="m59abd9aada"/>
      </defs>
      <g>
       <use style="stroke:#000000;stroke-linecap:butt;stroke-width:0.5;" x="32.7421875" xlink:href="#m59abd9aada" y="17.4957390254"/>
      </g>
     </g>
    </g>
    <g id="ytick_39">
     <g id="line2d_61">
      <defs>
       <path d="
M0 0
L2 0" id="m59abd9aada"/>
      </defs>
      <g>
       <use style="stroke:#000000;stroke-linecap:butt;stroke-width:0.5;" x="32.7421875" xlink:href="#m59abd9aada" y="11.5513169553"/>
      </g>
     </g>
    </g>
   </g>
   <g id="patch_3">
    <path d="
M22.4982 14.5235
L555.238 14.5235" style="fill:none;stroke:#000000;stroke-width:0.8;"/>
   </g>
   <g id="patch_4">
    <path d="
M32.7422 125.28
L32.7422 7.2" style="fill:none;stroke:#000000;stroke-width:0.8;"/>
   </g>
  </g>
 </g>
 <defs>
  <clipPath id="pf42bfd13c1">
   <rect height="118.08" width="532.739545372" x="22.4982212145" y="7.2"/>
  </clipPath>
 </defs>
</svg>
