<?xml version="1.0" encoding="utf-8" standalone="no"?>
<!DOCTYPE svg PUBLIC "-//W3C//DTD SVG 1.1//EN"
  "http://www.w3.org/Graphics/SVG/1.1/DTD/svg11.dtd">
<!-- Created with matplotlib (http://matplotlib.sourceforge.net/) -->
<svg height="132pt" version="1.1" viewBox="0 0 562 132" width="562pt" xmlns="http://www.w3.org/2000/svg" xmlns:xlink="http://www.w3.org/1999/xlink">
 <defs>
  <style type="text/css">
*{stroke-linecap:square;stroke-linejoin:round;}
  </style>
 </defs>
 <g id="figure_1">
  <g id="patch_1">
   <path d="
M-2.22045e-16 132.48
L562.438 132.48
L562.438 0
L-2.22045e-16 0
z
" style="fill:#ffffff;"/>
  </g>
  <g id="axes_1">
   <g id="patch_2">
    <path d="
M22.4982 125.28
L555.238 125.28
L555.238 7.2
L22.4982 7.2
z
" style="fill:#ffffff;"/>
   </g>
   <g id="line2d_1">
    <path clip-path="url(#pf42bfd13c1)" d="
M32.7432 34.626
L32.9477 34.626
L32.9477 35.9857
L33.5022 35.9857
L33.5022 40.065
L33.8087 40.065
L33.8087 40.7448
L34.1203 40.7448
L34.1203 41.4247
L34.4483 41.4247
L34.4483 42.1046
L34.7629 42.1046
L34.7629 40.7448
L35.1186 40.7448
L35.1186 38.7052
L35.4599 38.7052
L35.4599 36.6656
L36.1559 36.6656
L36.1559 34.626
L36.5095 34.626
L36.5095 40.065
L36.8836 40.065
L36.8836 38.7052
L37.2321 38.7052
L37.2321 36.6656
L37.5908 36.6656
L37.5908 37.3455
L37.9537 37.3455
L37.9537 36.6656
L38.3329 36.6656
L38.3329 34.626
L38.7388 34.626
L38.7388 36.6656
L39.1078 36.6656
L39.1078 38.0254
L39.4665 38.0254
L39.4665 38.7052
L40.2537 38.7052
L40.2537 35.3059
L40.6145 35.3059
L40.6145 35.9857
L40.9886 35.9857
L40.9886 35.3059
L41.7922 35.3059
L41.7922 33.2663
L42.1704 33.2663
L42.1704 34.626
L42.6163 34.626
L42.6163 33.9461
L42.9975 33.9461
L42.9975 31.2266
L43.3881 31.2266
L43.3881 31.9065
L43.7909 31.9065
L43.7909 29.187
L44.1619 29.187
L44.1619 32.5864
L44.5596 32.5864
L44.5596 36.6656
L44.9686 36.6656
L44.9686 34.626
L45.3857 34.626
L45.3857 38.7052
L45.7947 38.7052
L45.7947 39.3851
L46.2016 39.3851
L46.2016 38.0254
L47.0318 38.0254
L47.0318 41.4247
L47.4285 41.4247
L47.4285 38.7052
L47.8282 38.7052
L47.8282 40.7448
L48.2772 40.7448
L48.2772 35.9857
L48.7066 35.9857
L48.7066 37.3455
L49.1433 37.3455
L49.1433 35.9857
L49.5102 35.9857
L49.5102 38.7052
L49.9253 38.7052
L49.9253 33.2663
L50.3271 33.2663
L50.3271 33.9461
L50.7392 33.9461
L50.7392 35.9857
L51.1881 35.9857
L51.1881 38.7052
L51.595 38.7052
L51.595 37.3455
L51.9968 37.3455
L51.9968 34.626
L52.4519 34.626
L52.4519 35.3059
L52.8578 35.3059
L52.8578 39.3851
L53.2985 39.3851
L53.2985 34.626
L53.7505 34.626
L53.7505 30.5468
L54.1523 30.5468
L54.1523 31.2266
L54.5223 31.2266
L54.5223 34.626
L54.9836 34.626
L54.9836 35.3059
L55.4048 35.3059
L55.4048 33.2663
L55.8466 33.2663
L55.8466 32.5864
L56.3017 32.5864
L56.3017 33.2663
L56.7352 33.2663
L56.7352 31.9065
L57.178 31.9065
L57.178 35.3059
L57.6147 35.3059
L57.6147 35.9857
L58.04 35.9857
L58.04 38.7052
L58.4336 38.7052
L58.4336 37.3455
L58.9092 37.3455
L58.9092 42.7844
L59.3161 42.7844
L59.3161 40.7448
L59.764 40.7448
L59.764 39.3851
L60.2099 39.3851
L60.2099 35.3059
L60.6404 35.3059
L60.6404 30.5468
L61.0893 30.5468
L61.0893 34.626
L61.5044 34.626
L61.5044 29.187
L61.9144 29.187
L61.9144 35.9857
L62.3388 35.9857
L62.3388 34.626
L62.7631 34.626
L62.7631 31.9065
L63.1926 31.9065
L63.1926 32.5864
L63.6415 32.5864
L63.6415 34.626
L64.1222 34.626
L64.1222 30.5468
L64.5578 30.5468
L64.5578 29.8669
L65.0221 29.8669
L65.0221 30.5468
L65.9415 30.5468
L65.9415 31.2266
L66.3659 31.2266
L66.3659 27.8273
L66.8271 27.8273
L66.8271 32.5864
L67.2576 32.5864
L67.2576 28.5072
L67.6789 28.5072
L67.6789 29.187
L68.1688 29.187
L68.1688 31.2266
L68.6505 31.2266
L68.6505 32.5864
L69.0841 32.5864
L69.0841 30.5468
L70.395 30.5468
L70.395 33.2663
L70.8317 33.2663
L70.8317 33.9461
L71.2868 33.9461
L71.2868 32.5864
L71.7316 32.5864
L71.7316 35.3059
L72.199 35.3059
L72.199 37.3455
L72.5997 37.3455
L72.5997 41.4247
L73.0856 41.4247
L73.0856 44.8241
L73.5499 44.8241
L73.5499 41.4247
L73.9927 41.4247
L73.9927 45.5039
L74.4109 45.5039
L74.4109 43.4643
L74.8598 43.4643
L74.8598 41.4247
L75.3149 41.4247
L75.3149 46.8637
L75.7966 46.8637
L75.7966 47.5435
L76.2374 47.5435
L76.2374 42.1046
L76.7099 42.1046
L76.7099 43.4643
L77.1691 43.4643
L77.1691 44.1442
L77.6272 44.1442
L77.6272 43.4643
L78.1428 43.4643
L78.1428 46.1838
L78.5671 46.1838
L78.5671 44.8241
L78.9699 44.8241
L78.9699 42.1046
L79.4558 42.1046
L79.4558 49.5832
L80.3301 49.5832
L80.3301 43.4643
L80.7944 43.4643
L80.7944 45.5039
L81.2341 45.5039
L81.2341 48.9033
L81.6738 48.9033
L81.6738 46.1838
L82.134 46.1838
L82.134 41.4247
L82.6209 41.4247
L82.6209 42.1046
L83.119 42.1046
L83.119 45.5039
L83.5454 45.5039
L83.5454 46.1838
L84.0128 46.1838
L84.0128 44.1442
L84.5027 44.1442
L84.5027 45.5039
L84.9322 45.5039
L84.9322 42.7844
L85.3504 42.7844
L85.3504 43.4643
L85.8772 43.4643
L85.8772 42.1046
L86.3446 42.1046
L86.3446 43.4643
L86.8048 43.4643
L86.8048 42.7844
L87.2568 42.7844
L87.2568 37.3455
L87.7068 37.3455
L87.7068 38.0254
L88.2049 38.0254
L88.2049 40.065
L88.6652 40.065
L88.6652 44.8241
L89.109 44.8241
L89.109 40.065
L89.5969 40.065
L89.5969 38.0254
L90.0704 38.0254
L90.0704 40.7448
L90.5665 40.7448
L90.5665 43.4643
L91.0236 43.4643
L91.0236 39.3851
L91.5033 39.3851
L91.5033 38.0254
L91.984 38.0254
L91.984 39.3851
L92.4176 39.3851
L92.4176 42.7844
L92.8932 42.7844
L92.8932 45.5039
L93.3452 45.5039
L93.3452 46.8637
L93.8259 46.8637
L93.8259 42.1046
L94.2902 42.1046
L94.2902 41.4247
L94.7514 41.4247
L94.7514 42.1046
L95.225 42.1046
L95.225 44.1442
L95.6637 44.1442
L95.6637 44.8241
L96.5984 44.8241
L96.5984 44.1442
L97.073 44.1442
L97.073 48.9033
L98.0447 48.9033
L98.0447 52.3026
L98.508 52.3026
L98.508 48.2234
L99.4099 48.2234
L99.4099 50.9429
L100.363 50.9429
L100.363 47.5435
L100.833 47.5435
L100.833 48.9033
L101.313 48.9033
L101.313 48.2234
L101.813 48.2234
L101.813 52.9825
L102.702 52.9825
L102.702 51.6228
L103.154 51.6228
L103.154 47.5435
L104.607 47.5435
L104.607 44.1442
L105.058 44.1442
L105.058 45.5039
L105.5 45.5039
L105.5 44.1442
L106.009 44.1442
L106.009 38.7052
L106.516 38.7052
L106.516 37.3455
L107.017 37.3455
L107.017 35.9857
L107.477 35.9857
L107.477 35.3059
L107.976 35.3059
L107.976 39.3851
L108.431 39.3851
L108.431 38.0254
L108.944 38.0254
L108.944 33.2663
L109.36 33.2663
L109.36 32.5864
L109.824 32.5864
L109.824 35.9857
L110.303 35.9857
L110.303 34.626
L110.744 34.626
L110.744 35.9857
L111.207 35.9857
L111.207 40.065
L111.707 40.065
L111.707 41.4247
L112.62 41.4247
L112.62 38.7052
L113.186 38.7052
L113.186 33.2663
L113.631 33.2663
L113.631 33.9461
L114.147 33.9461
L114.147 36.6656
L114.624 36.6656
L114.624 33.9461
L115.097 33.9461
L115.097 30.5468
L116.093 30.5468
L116.093 31.9065
L117.017 31.9065
L117.017 32.5864
L117.564 32.5864
L117.564 38.7052
L118.064 38.7052
L118.064 33.9461
L118.502 33.9461
L118.502 34.626
L119.049 34.626
L119.049 33.2663
L119.543 33.2663
L119.543 30.5468
L120.008 30.5468
L120.008 32.5864
L120.469 32.5864
L120.469 30.5468
L120.97 30.5468
L120.97 29.187
L121.422 29.187
L121.422 29.8669
L122.398 29.8669
L122.398 30.5468
L122.936 30.5468
L122.936 31.9065
L123.905 31.9065
L123.905 33.2663
L124.365 33.2663
L124.365 34.626
L124.781 34.626
L124.781 35.9857
L125.232 35.9857
L125.232 33.9461
L125.814 33.9461
L125.814 37.3455
L126.265 37.3455
L126.265 36.6656
L126.731 36.6656
L126.731 38.0254
L127.212 38.0254
L127.212 39.3851
L127.705 39.3851
L127.705 32.5864
L128.126 32.5864
L128.126 29.187
L128.64 29.187
L128.64 30.5468
L129.1 30.5468
L129.1 38.0254
L129.608 38.0254
L129.608 38.7052
L130.571 38.7052
L130.571 35.9857
L131.056 35.9857
L131.056 30.5468
L131.545 30.5468
L131.545 34.626
L132.025 34.626
L132.025 36.6656
L132.535 36.6656
L132.535 34.626
L133.034 34.626
L133.034 37.3455
L133.526 37.3455
L133.526 38.0254
L133.996 38.0254
L133.996 35.3059
L134.46 35.3059
L134.46 37.3455
L134.974 37.3455
L134.974 35.9857
L135.445 35.9857
L135.445 38.0254
L136.003 38.0254
L136.003 36.6656
L136.447 36.6656
L136.447 40.7448
L136.957 40.7448
L136.957 34.626
L137.969 34.626
L137.969 33.2663
L138.436 33.2663
L138.436 28.5072
L138.943 28.5072
L138.943 30.5468
L139.39 30.5468
L139.39 32.5864
L139.867 32.5864
L139.867 34.626
L140.327 34.626
L140.327 35.3059
L140.786 35.3059
L140.786 33.9461
L141.825 33.9461
L141.825 33.2663
L142.322 33.2663
L142.322 37.3455
L142.785 37.3455
L142.785 31.2266
L143.313 31.2266
L143.313 29.187
L143.838 29.187
L143.838 28.5072
L144.828 28.5072
L144.828 26.4675
L145.299 26.4675
L145.299 25.7877
L145.764 25.7877
L145.764 25.1078
L146.252 25.1078
L146.252 21.7084
L146.721 21.7084
L146.721 22.3883
L147.2 22.3883
L147.2 18.989
L147.719 18.989
L147.719 16.2695
L148.209 16.2695
L148.209 17.6292
L148.701 17.6292
L148.701 14.9097
L149.213 14.9097
L149.213 16.2695
L149.733 16.2695
L149.733 18.3091
L150.18 18.3091
L150.18 17.6292
L150.604 17.6292
L150.604 19.6688
L151.092 19.6688
L151.092 14.9097
L151.588 14.9097
L151.588 12.8701
L153.149 12.8701
L153.149 14.9097
L153.678 14.9097
L153.678 14.2299
L154.207 14.2299
L154.207 14.9097
L154.734 14.9097
L154.734 16.2695
L155.197 16.2695
L155.197 22.3883
L155.712 22.3883
L155.712 21.7084
L156.2 21.7084
L156.2 21.0286
L156.67 21.0286
L156.67 27.1474
L157.147 27.1474
L157.147 25.1078
L158.636 25.1078
L158.636 30.5468
L159.14 30.5468
L159.14 25.7877
L159.635 25.7877
L159.635 26.4675
L160.083 26.4675
L160.083 23.7481
L160.57 23.7481
L160.57 22.3883
L161.095 22.3883
L161.095 19.6688
L161.59 19.6688
L161.59 24.4279
L162.063 24.4279
L162.063 26.4675
L162.623 26.4675
L162.623 27.1474
L163.082 27.1474
L163.082 28.5072
L163.555 28.5072
L163.555 22.3883
L164.035 22.3883
L164.035 25.7877
L165.117 25.7877
L165.117 26.4675
L165.584 26.4675
L165.584 32.5864
L166.098 32.5864
L166.098 38.7052
L166.64 38.7052
L166.64 38.0254
L167.152 38.0254
L167.152 32.5864
L167.663 32.5864
L167.663 33.9461
L168.125 33.9461
L168.125 35.9857
L168.638 35.9857
L168.638 31.9065
L169.12 31.9065
L169.12 33.9461
L169.644 33.9461
L169.644 35.9857
L170.025 35.9857
L170.025 35.3059
L170.563 35.3059
L170.563 36.6656
L171.057 36.6656
L171.057 35.9857
L171.523 35.9857
L171.523 38.0254
L172.057 38.0254
L172.057 40.7448
L172.533 40.7448
L172.533 38.7052
L173.102 38.7052
L173.102 42.1046
L173.597 42.1046
L173.597 47.5435
L174.072 47.5435
L174.072 46.1838
L174.558 46.1838
L174.558 47.5435
L175.081 47.5435
L175.081 40.7448
L175.581 40.7448
L175.581 40.065
L176.1 40.065
L176.1 37.3455
L176.606 37.3455
L176.606 40.065
L177.565 40.065
L177.565 35.3059
L178.099 35.3059
L178.099 40.7448
L178.589 40.7448
L178.589 46.1838
L179.077 46.1838
L179.077 48.9033
L179.597 48.9033
L179.597 47.5435
L180.148 47.5435
L180.148 48.2234
L180.713 48.2234
L180.713 44.8241
L181.162 44.8241
L181.162 43.4643
L181.667 43.4643
L181.667 41.4247
L182.143 41.4247
L182.143 42.1046
L182.676 42.1046
L182.676 47.5435
L183.228 47.5435
L183.228 44.1442
L183.745 44.1442
L183.745 40.065
L184.284 40.065
L184.284 41.4247
L184.772 41.4247
L184.772 46.1838
L185.273 46.1838
L185.273 39.3851
L185.812 39.3851
L185.812 44.8241
L186.335 44.8241
L186.335 46.1838
L186.838 46.1838
L186.838 42.7844
L187.318 42.7844
L187.318 44.8241
L187.862 44.8241
L187.862 43.4643
L188.318 43.4643
L188.318 39.3851
L188.795 39.3851
L188.795 37.3455
L189.262 37.3455
L189.262 31.2266
L189.771 31.2266
L189.771 32.5864
L190.23 32.5864
L190.23 35.9857
L190.812 35.9857
L190.812 39.3851
L191.301 39.3851
L191.301 40.065
L191.838 40.065
L191.838 39.3851
L192.354 39.3851
L192.354 35.9857
L192.849 35.9857
L192.849 36.6656
L193.349 36.6656
L193.349 33.2663
L193.816 33.2663
L193.816 31.9065
L194.375 31.9065
L194.375 38.7052
L194.852 38.7052
L194.852 41.4247
L195.338 41.4247
L195.338 40.7448
L195.821 40.7448
L195.821 35.9857
L196.291 35.9857
L196.291 33.9461
L196.759 33.9461
L196.759 38.7052
L197.269 38.7052
L197.269 39.3851
L197.767 39.3851
L197.767 41.4247
L198.274 41.4247
L198.274 39.3851
L198.833 39.3851
L198.833 40.065
L199.289 40.065
L199.289 37.3455
L199.756 37.3455
L199.756 33.9461
L200.295 33.9461
L200.295 33.2663
L200.755 33.2663
L200.755 39.3851
L201.29 39.3851
L201.29 42.7844
L201.794 42.7844
L201.794 42.1046
L202.283 42.1046
L202.283 45.5039
L202.785 45.5039
L202.785 54.3423
L203.324 54.3423
L203.324 59.1014
L203.803 59.1014
L203.803 55.0221
L204.316 55.0221
L204.316 59.1014
L204.842 59.1014
L204.842 57.0617
L205.344 57.0617
L205.344 59.1014
L205.839 59.1014
L205.839 61.141
L206.325 61.141
L206.325 61.8208
L206.896 61.8208
L206.896 62.5007
L207.428 62.5007
L207.428 61.8208
L207.921 61.8208
L207.921 55.702
L208.424 55.702
L208.424 52.9825
L208.935 52.9825
L208.935 53.6624
L209.451 53.6624
L209.451 58.4215
L209.955 58.4215
L209.955 59.1014
L210.427 59.1014
L210.427 58.4215
L210.97 58.4215
L210.97 51.6228
L211.462 51.6228
L211.462 53.6624
L211.986 53.6624
L211.986 50.263
L212.495 50.263
L212.495 52.3026
L212.997 52.3026
L212.997 53.6624
L213.454 53.6624
L213.454 55.702
L213.997 55.702
L213.997 57.7416
L214.46 57.7416
L214.46 61.8208
L214.952 61.8208
L214.952 62.5007
L215.519 62.5007
L215.519 65.2202
L216.044 65.2202
L216.044 66.5799
L216.561 66.5799
L216.561 67.2598
L217.022 67.2598
L217.022 65.9001
L218.163 65.9001
L218.163 60.4611
L218.698 60.4611
L218.698 56.3819
L219.168 56.3819
L219.168 57.7416
L219.672 57.7416
L219.672 52.9825
L220.158 52.9825
L220.158 51.6228
L220.677 51.6228
L220.677 50.263
L221.164 50.263
L221.164 51.6228
L221.69 51.6228
L221.69 59.7812
L222.307 59.7812
L222.307 57.7416
L222.833 57.7416
L222.833 57.0617
L223.394 57.0617
L223.394 54.3423
L223.885 54.3423
L223.885 56.3819
L224.432 56.3819
L224.432 59.1014
L224.919 59.1014
L224.919 55.702
L225.385 55.702
L225.385 52.9825
L225.874 52.9825
L225.874 57.7416
L226.416 57.7416
L226.416 58.4215
L226.957 58.4215
L226.957 60.4611
L227.442 60.4611
L227.442 61.8208
L227.987 61.8208
L227.987 63.1806
L228.512 63.1806
L228.512 65.9001
L229.05 65.9001
L229.05 65.2202
L229.545 65.2202
L229.545 62.5007
L230.056 62.5007
L230.056 64.5403
L230.56 64.5403
L230.56 63.8605
L231.071 63.8605
L231.071 64.5403
L231.647 64.5403
L231.647 67.9397
L232.159 67.9397
L232.159 65.9001
L232.661 65.9001
L232.661 65.2202
L233.135 65.2202
L233.135 64.5403
L233.654 64.5403
L233.654 63.8605
L234.112 63.8605
L234.112 61.141
L234.558 61.141
L234.558 58.4215
L235.086 58.4215
L235.086 57.7416
L235.631 57.7416
L235.631 55.702
L236.702 55.702
L236.702 56.3819
L237.19 56.3819
L237.19 60.4611
L237.691 60.4611
L237.691 57.0617
L238.258 57.0617
L238.258 59.1014
L238.807 59.1014
L238.807 56.3819
L239.872 56.3819
L239.872 59.1014
L240.429 59.1014
L240.429 61.141
L241.981 61.141
L241.981 58.4215
L242.516 58.4215
L242.516 59.1014
L243.004 59.1014
L243.004 54.3423
L243.504 54.3423
L243.504 51.6228
L243.983 51.6228
L243.983 50.9429
L244.534 50.9429
L244.534 52.9825
L245.108 52.9825
L245.108 54.3423
L245.553 54.3423
L245.553 56.3819
L246.085 56.3819
L246.085 55.0221
L246.642 55.0221
L246.642 52.9825
L247.131 52.9825
L247.131 57.0617
L247.626 57.0617
L247.626 60.4611
L248.15 60.4611
L248.15 63.8605
L248.672 63.8605
L248.672 66.5799
L249.192 66.5799
L249.192 67.9397
L249.689 67.9397
L249.689 66.5799
L250.175 66.5799
L250.175 68.6195
L250.707 68.6195
L250.707 64.5403
L251.277 64.5403
L251.277 61.141
L251.793 61.141
L251.793 58.4215
L252.337 58.4215
L252.337 59.1014
L252.859 59.1014
L252.859 59.7812
L253.373 59.7812
L253.373 58.4215
L253.828 58.4215
L253.828 52.9825
L254.787 52.9825
L254.787 55.0221
L255.313 55.0221
L255.313 59.7812
L256.274 59.7812
L256.274 55.702
L256.823 55.702
L256.823 54.3423
L257.411 54.3423
L257.411 48.9033
L257.959 48.9033
L257.959 47.5435
L258.44 47.5435
L258.44 50.9429
L258.955 50.9429
L258.955 55.0221
L259.486 55.0221
L259.486 54.3423
L259.923 54.3423
L259.923 56.3819
L262.061 56.3819
L262.061 51.6228
L262.657 51.6228
L262.657 48.9033
L263.151 48.9033
L263.151 51.6228
L263.613 51.6228
L263.613 49.5832
L264.129 49.5832
L264.129 51.6228
L265.248 51.6228
L265.248 55.702
L265.802 55.702
L265.802 46.8637
L266.282 46.8637
L266.282 48.2234
L266.813 48.2234
L266.813 47.5435
L267.313 47.5435
L267.313 52.3026
L267.917 52.3026
L267.917 51.6228
L268.446 51.6228
L268.446 57.0617
L268.988 57.0617
L268.988 56.3819
L269.563 56.3819
L269.563 55.702
L270.135 55.702
L270.135 52.9825
L270.606 52.9825
L270.606 54.3423
L271.069 54.3423
L271.069 52.3026
L271.601 52.3026
L271.601 50.9429
L272.195 50.9429
L272.195 55.702
L272.648 55.702
L272.648 51.6228
L273.693 51.6228
L273.693 48.9033
L274.154 48.9033
L274.154 45.5039
L274.662 45.5039
L274.662 48.9033
L275.223 48.9033
L275.223 49.5832
L276.221 49.5832
L276.221 46.1838
L276.672 46.1838
L276.672 48.2234
L277.204 48.2234
L277.204 41.4247
L277.782 41.4247
L277.782 38.7052
L278.238 38.7052
L278.238 43.4643
L279.298 43.4643
L279.298 48.2234
L279.82 48.2234
L279.82 43.4643
L280.344 43.4643
L280.344 42.1046
L280.848 42.1046
L280.848 44.8241
L281.484 44.8241
L281.484 46.1838
L282.04 46.1838
L282.04 48.9033
L282.552 48.9033
L282.552 47.5435
L283.013 47.5435
L283.013 45.5039
L283.547 45.5039
L283.547 41.4247
L284.048 41.4247
L284.048 38.7052
L284.563 38.7052
L284.563 37.3455
L285.125 37.3455
L285.125 35.9857
L285.632 35.9857
L285.632 39.3851
L286.165 39.3851
L286.165 38.7052
L286.638 38.7052
L286.638 40.065
L287.14 40.065
L287.14 38.0254
L287.693 38.0254
L287.693 33.9461
L288.227 33.9461
L288.227 33.2663
L288.725 33.2663
L288.725 31.2266
L289.212 31.2266
L289.212 33.2663
L289.707 33.2663
L289.707 31.9065
L290.316 31.9065
L290.316 29.8669
L290.885 29.8669
L290.885 31.9065
L291.385 31.9065
L291.385 33.2663
L292.41 33.2663
L292.41 30.5468
L292.953 30.5468
L292.953 27.8273
L293.501 27.8273
L293.501 25.1078
L294.008 25.1078
L294.008 23.0682
L294.534 23.0682
L294.534 23.7481
L295.611 23.7481
L295.611 29.8669
L296.128 29.8669
L296.128 26.4675
L296.607 26.4675
L296.607 25.7877
L297.232 25.7877
L297.232 29.8669
L298.172 29.8669
L298.172 27.1474
L298.688 27.1474
L298.688 29.187
L299.752 29.187
L299.752 33.9461
L300.22 33.9461
L300.22 33.2663
L300.731 33.2663
L300.731 38.7052
L301.317 38.7052
L301.317 33.9461
L301.819 33.9461
L301.819 31.9065
L302.336 31.9065
L302.336 27.8273
L302.803 27.8273
L302.803 26.4675
L303.357 26.4675
L303.357 29.187
L303.909 29.187
L303.909 29.8669
L304.45 29.8669
L304.45 29.187
L304.945 29.187
L304.945 31.2266
L305.521 31.2266
L305.521 29.8669
L306.013 29.8669
L306.013 27.8273
L306.555 27.8273
L306.555 29.187
L307.661 29.187
L307.661 28.5072
L308.117 28.5072
L308.117 26.4675
L308.706 26.4675
L308.706 25.1078
L309.229 25.1078
L309.229 27.8273
L309.785 27.8273
L309.785 24.4279
L310.32 24.4279
L310.32 27.8273
L310.819 27.8273
L310.819 25.7877
L311.36 25.7877
L311.36 27.1474
L311.922 27.1474
L311.922 26.4675
L312.479 26.4675
L312.479 24.4279
L313.03 24.4279
L313.03 21.7084
L313.534 21.7084
L313.534 20.3487
L314.059 20.3487
L314.059 23.0682
L314.58 23.0682
L314.58 26.4675
L315.102 26.4675
L315.102 29.187
L315.615 29.187
L315.615 28.5072
L316.181 28.5072
L316.181 27.8273
L316.685 27.8273
L316.685 29.187
L317.209 29.187
L317.209 24.4279
L317.823 24.4279
L317.823 18.989
L318.278 18.989
L318.278 12.8701
L318.856 12.8701
L318.856 10.8305
L319.405 10.8305
L319.405 9.47077
L319.857 9.47077
L319.857 11.5104
L320.375 11.5104
L320.375 14.9097
L320.994 14.9097
L320.994 13.55
L321.485 13.55
L321.485 15.5896
L322.021 15.5896
L322.021 16.9494
L322.559 16.9494
L322.559 17.6292
L323.125 17.6292
L323.125 22.3883
L323.699 22.3883
L323.699 21.0286
L324.235 21.0286
L324.235 22.3883
L324.743 22.3883
L324.743 28.5072
L325.203 28.5072
L325.203 25.7877
L325.761 25.7877
L325.761 26.4675
L326.234 26.4675
L326.234 21.7084
L326.787 21.7084
L326.787 21.0286
L327.319 21.0286
L327.319 14.2299
L327.861 14.2299
L327.861 16.2695
L328.322 16.2695
L328.322 17.6292
L328.897 17.6292
L328.897 14.9097
L329.398 14.9097
L329.398 12.1903
L329.929 12.1903
L329.929 9.47077
L330.481 9.47077
L330.481 16.2695
L331.528 16.2695
L331.528 18.989
L332.048 18.989
L332.048 20.3487
L333.093 20.3487
L333.093 23.7481
L333.597 23.7481
L333.597 24.4279
L334.063 24.4279
L334.063 27.1474
L334.585 27.1474
L334.585 25.1078
L335.175 25.1078
L335.175 26.4675
L335.754 26.4675
L335.754 23.0682
L336.317 23.0682
L336.317 19.6688
L337.343 19.6688
L337.343 21.0286
L337.808 21.0286
L337.808 23.7481
L338.346 23.7481
L338.346 24.4279
L338.905 24.4279
L338.905 23.0682
L339.443 23.0682
L339.443 23.7481
L339.996 23.7481
L339.996 24.4279
L340.519 24.4279
L340.519 25.7877
L341.565 25.7877
L341.565 23.0682
L342.119 23.0682
L342.119 23.7481
L342.641 23.7481
L342.641 29.8669
L343.125 29.8669
L343.125 32.5864
L343.714 32.5864
L343.714 36.6656
L344.241 36.6656
L344.241 33.2663
L344.759 33.2663
L344.759 32.5864
L345.231 32.5864
L345.231 35.3059
L345.791 35.3059
L345.791 33.9461
L346.358 33.9461
L346.358 38.7052
L346.86 38.7052
L346.86 40.065
L347.386 40.065
L347.386 42.7844
L347.937 42.7844
L347.937 38.7052
L348.471 38.7052
L348.471 40.065
L348.941 40.065
L348.941 38.0254
L349.416 38.0254
L349.416 30.5468
L350 30.5468
L350 35.9857
L350.577 35.9857
L350.577 35.3059
L351.067 35.3059
L351.067 35.9857
L351.632 35.9857
L351.632 31.2266
L352.201 31.2266
L352.201 38.0254
L352.697 38.0254
L352.697 40.065
L353.234 40.065
L353.234 39.3851
L353.865 39.3851
L353.865 38.0254
L354.388 38.0254
L354.388 42.1046
L355.515 42.1046
L355.515 43.4643
L356.073 43.4643
L356.073 46.8637
L356.584 46.8637
L356.584 46.1838
L357.1 46.1838
L357.1 40.7448
L358.139 40.7448
L358.139 42.1046
L358.671 42.1046
L358.671 43.4643
L359.197 43.4643
L359.197 41.4247
L359.75 41.4247
L359.75 40.7448
L361.487 40.7448
L361.487 35.3059
L362.047 35.3059
L362.047 40.065
L362.625 40.065
L362.625 43.4643
L363.118 43.4643
L363.118 36.6656
L363.627 36.6656
L363.627 35.9857
L364.178 35.9857
L364.178 38.7052
L364.676 38.7052
L364.676 39.3851
L365.201 39.3851
L365.201 40.7448
L365.724 40.7448
L365.724 46.8637
L366.305 46.8637
L366.305 46.1838
L367.351 46.1838
L367.351 51.6228
L367.896 51.6228
L367.896 55.702
L368.403 55.702
L368.403 57.0617
L368.972 57.0617
L368.972 59.7812
L369.507 59.7812
L369.507 58.4215
L370.084 58.4215
L370.084 54.3423
L370.599 54.3423
L370.599 53.6624
L371.111 53.6624
L371.111 59.1014
L371.598 59.1014
L371.598 63.1806
L372.188 63.1806
L372.188 63.8605
L372.73 63.8605
L372.73 64.5403
L373.725 64.5403
L373.725 71.339
L374.294 71.339
L374.294 72.6988
L374.842 72.6988
L374.842 70.6592
L375.435 70.6592
L375.435 68.6195
L375.971 68.6195
L375.971 65.2202
L376.486 65.2202
L376.486 59.7812
L377.049 59.7812
L377.049 58.4215
L377.556 58.4215
L377.556 59.7812
L378.052 59.7812
L378.052 57.7416
L378.608 57.7416
L378.608 61.8208
L379.691 61.8208
L379.691 63.8605
L380.316 63.8605
L380.316 67.9397
L380.801 67.9397
L380.801 70.6592
L381.274 70.6592
L381.274 69.9793
L381.791 69.9793
L381.791 67.9397
L382.333 67.9397
L382.333 65.2202
L382.936 65.2202
L382.936 64.5403
L383.442 64.5403
L383.442 69.9793
L383.969 69.9793
L383.969 65.2202
L384.491 65.2202
L384.491 64.5403
L385.023 64.5403
L385.023 65.2202
L386.071 65.2202
L386.071 67.9397
L386.631 67.9397
L386.631 66.5799
L387.239 66.5799
L387.239 63.8605
L387.711 63.8605
L387.711 65.2202
L388.254 65.2202
L388.254 63.1806
L388.777 63.1806
L388.777 59.7812
L389.288 59.7812
L389.288 57.7416
L389.854 57.7416
L389.854 58.4215
L390.973 58.4215
L390.973 57.7416
L391.533 57.7416
L391.533 58.4215
L392.086 58.4215
L392.086 57.0617
L392.63 57.0617
L392.63 62.5007
L393.134 62.5007
L393.134 67.2598
L393.652 67.2598
L393.652 69.2994
L394.115 69.2994
L394.115 67.9397
L394.675 67.9397
L394.675 63.8605
L395.213 63.8605
L395.213 64.5403
L395.7 64.5403
L395.7 66.5799
L396.275 66.5799
L396.275 69.2994
L396.803 69.2994
L396.803 66.5799
L397.301 66.5799
L397.301 67.2598
L397.851 67.2598
L397.851 65.9001
L398.349 65.9001
L398.349 68.6195
L398.974 68.6195
L398.974 69.2994
L399.499 69.2994
L399.499 67.2598
L401.219 67.2598
L401.219 66.5799
L401.759 66.5799
L401.759 63.1806
L402.266 63.1806
L402.266 63.8605
L402.789 63.8605
L402.789 60.4611
L403.322 60.4611
L403.322 57.0617
L403.786 57.0617
L403.786 58.4215
L404.334 58.4215
L404.334 59.7812
L404.887 59.7812
L404.887 57.7416
L405.422 57.7416
L405.422 55.702
L405.987 55.702
L405.987 63.8605
L406.514 63.8605
L406.514 61.8208
L407.086 61.8208
L407.086 62.5007
L407.617 62.5007
L407.617 63.1806
L408.121 63.1806
L408.121 61.8208
L408.66 61.8208
L408.66 66.5799
L409.238 66.5799
L409.238 67.2598
L409.692 67.2598
L409.692 65.9001
L410.29 65.9001
L410.29 68.6195
L410.813 68.6195
L410.813 66.5799
L411.387 66.5799
L411.387 65.9001
L411.864 65.9001
L411.864 76.0981
L412.444 76.0981
L412.444 77.4579
L412.993 77.4579
L412.993 78.1377
L414.16 78.1377
L414.16 76.778
L414.748 76.778
L414.748 73.3786
L415.876 73.3786
L415.876 75.4183
L416.436 75.4183
L416.436 76.0981
L416.968 76.0981
L416.968 74.7384
L417.521 74.7384
L417.521 72.0189
L418.01 72.0189
L418.01 76.0981
L418.551 76.0981
L418.551 78.8176
L419.121 78.8176
L419.121 80.1774
L419.621 80.1774
L419.621 77.4579
L420.132 77.4579
L420.132 78.1377
L420.782 78.1377
L420.782 80.1774
L421.328 80.1774
L421.328 81.5371
L421.836 81.5371
L421.836 84.2566
L422.353 84.2566
L422.353 86.2962
L422.873 86.2962
L422.873 89.6956
L423.388 89.6956
L423.388 90.3754
L423.969 90.3754
L423.969 89.0157
L424.962 89.0157
L424.962 85.6163
L425.491 85.6163
L425.491 89.6956
L426.552 89.6956
L426.552 89.0157
L427.122 89.0157
L427.122 83.5767
L427.65 83.5767
L427.65 84.2566
L428.168 84.2566
L428.168 93.7748
L429.287 93.7748
L429.287 94.4546
L429.815 94.4546
L429.815 97.1741
L430.4 97.1741
L430.4 95.8144
L430.965 95.8144
L430.965 92.415
L431.498 92.415
L431.498 89.0157
L431.989 89.0157
L431.989 91.0553
L432.573 91.0553
L432.573 93.7748
L433.111 93.7748
L433.111 90.3754
L433.581 90.3754
L433.581 86.9761
L434.184 86.9761
L434.184 85.6163
L434.711 85.6163
L434.711 88.3358
L435.221 88.3358
L435.221 86.9761
L435.778 86.9761
L435.778 91.7352
L436.344 91.7352
L436.344 92.415
L436.851 92.415
L436.851 89.6956
L437.413 89.6956
L437.413 90.3754
L437.961 90.3754
L437.961 95.1345
L438.523 95.1345
L438.523 93.7748
L438.985 93.7748
L438.985 92.415
L439.548 92.415
L439.548 90.3754
L440.615 90.3754
L440.615 92.415
L441.127 92.415
L441.127 90.3754
L441.672 90.3754
L441.672 91.0553
L442.234 91.0553
L442.234 88.3358
L442.792 88.3358
L442.792 89.6956
L443.249 89.6956
L443.249 91.7352
L443.839 91.7352
L443.839 95.1345
L444.99 95.1345
L444.99 101.253
L445.463 101.253
L445.463 104.653
L445.996 104.653
L445.996 102.613
L447.186 102.613
L447.186 106.012
L447.727 106.012
L447.727 105.333
L448.213 105.333
L448.213 101.933
L448.766 101.933
L448.766 103.293
L449.32 103.293
L449.32 101.933
L449.907 101.933
L449.907 105.333
L450.998 105.333
L450.998 107.372
L451.518 107.372
L451.518 103.293
L452.083 103.293
L452.083 108.052
L452.677 108.052
L452.677 106.012
L453.156 106.012
L453.156 113.491
L453.704 113.491
L453.704 112.811
L454.206 112.811
L454.206 109.412
L454.747 109.412
L454.747 112.131
L455.266 112.131
L455.266 108.052
L455.755 108.052
L455.755 109.412
L456.288 109.412
L456.288 110.772
L457.435 110.772
L457.435 111.451
L458.529 111.451
L458.529 107.372
L459.027 107.372
L459.027 110.092
L459.521 110.092
L459.521 106.692
L460.09 106.692
L460.09 107.372
L460.675 107.372
L460.675 109.412
L461.251 109.412
L461.251 106.692
L461.791 106.692
L461.791 105.333
L462.407 105.333
L462.407 106.012
L462.95 106.012
L462.95 105.333
L463.498 105.333
L463.498 106.012
L464.029 106.012
L464.029 101.253
L464.527 101.253
L464.527 105.333
L465.097 105.333
L465.097 108.732
L465.608 108.732
L465.608 108.052
L466.235 108.052
L466.235 112.811
L466.798 112.811
L466.798 110.772
L467.314 110.772
L467.314 114.171
L467.839 114.171
L467.839 120.97
L468.403 120.97
L468.403 116.89
L468.975 116.89
L468.975 116.211
L469.503 116.211
L469.503 123.009
L470.091 123.009
L470.091 118.25
L470.626 118.25
L470.626 113.491
L471.229 113.491
L471.229 111.451
L471.723 111.451
L471.723 110.092
L472.277 110.092
L472.277 111.451
L472.839 111.451
L472.839 110.772
L473.389 110.772
L473.389 112.811
L473.921 112.811
L473.921 110.772
L474.454 110.772
L474.454 112.131
L474.925 112.131
L474.925 112.811
L475.549 112.811
L475.549 111.451
L476.064 111.451
L476.064 114.851
L476.556 114.851
L476.556 111.451
L477.135 111.451
L477.135 116.211
L477.643 116.211
L477.643 120.29
L478.159 120.29
L478.159 117.57
L478.687 117.57
L478.687 115.531
L479.236 115.531
L479.236 118.25
L479.819 118.25
L479.819 120.29
L480.412 120.29
L480.412 116.89
L481.489 116.89
L481.489 117.57
L481.997 117.57
L481.997 120.29
L482.611 120.29
L482.611 118.25
L483.113 118.25
L483.113 116.211
L483.636 116.211
L483.636 118.25
L484.149 118.25
L484.149 120.97
L484.712 120.97
L484.712 119.61
L485.274 119.61
L485.274 115.531
L485.819 115.531
L485.819 114.171
L486.907 114.171
L486.907 114.851
L487.455 114.851
L487.455 114.171
L487.995 114.171
L487.995 111.451
L488.522 111.451
L488.522 110.092
L489.143 110.092
L489.143 108.732
L489.671 108.732
L489.671 107.372
L490.751 107.372
L490.751 104.653
L491.274 104.653
L491.274 101.253
L491.815 101.253
L491.815 103.973
L492.946 103.973
L492.946 102.613
L493.493 102.613
L493.493 100.573
L494.103 100.573
L494.103 99.2137
L495.216 99.2137
L495.216 98.5339
L495.794 98.5339
L495.794 104.653
L496.371 104.653
L496.371 103.973
L496.889 103.973
L496.889 108.732
L497.414 108.732
L497.414 109.412
L497.909 109.412
L497.909 112.131
L498.422 112.131
L498.422 112.811
L498.905 112.811
L498.905 113.491
L499.469 113.491
L499.469 111.451
L500.015 111.451
L500.015 108.732
L500.569 108.732
L500.569 108.052
L501.277 108.052
L501.277 110.772
L502.343 110.772
L502.343 111.451
L502.887 111.451
L502.887 112.811
L503.394 112.811
L503.394 108.052
L503.933 108.052
L503.933 103.973
L504.505 103.973
L504.505 103.293
L505.071 103.293
L505.071 99.2137
L505.582 99.2137
L505.582 101.253
L506.131 101.253
L506.131 104.653
L506.654 104.653
L506.654 103.293
L507.134 103.293
L507.134 100.573
L507.684 100.573
L507.684 102.613
L508.262 102.613
L508.262 103.293
L509.39 103.293
L509.39 101.933
L509.959 101.933
L509.959 97.854
L510.511 97.854
L510.511 101.933
L511.06 101.933
L511.06 99.2137
L511.63 99.2137
L511.63 97.854
L512.714 97.854
L512.714 95.8144
L513.29 95.8144
L513.29 97.1741
L513.844 97.1741
L513.844 93.7748
L514.413 93.7748
L514.413 93.0949
L514.956 93.0949
L514.956 92.415
L515.469 92.415
L515.469 91.7352
L516.018 91.7352
L516.018 89.6956
L516.544 89.6956
L516.544 91.7352
L517.133 91.7352
L517.133 93.7748
L517.703 93.7748
L517.703 96.4943
L518.28 96.4943
L518.28 97.854
L518.828 97.854
L518.828 101.253
L519.433 101.253
L519.433 94.4546
L519.957 94.4546
L519.957 92.415
L520.473 92.415
L520.473 93.0949
L521.05 93.0949
L521.05 92.415
L521.638 92.415
L521.638 91.7352
L522.186 91.7352
L522.186 85.6163
L522.721 85.6163
L522.721 89.0157
L523.354 89.0157
L523.354 87.6559
L523.92 87.6559
L523.92 91.0553
L524.461 91.0553
L524.461 86.9761
L525.055 86.9761
L525.055 89.6956
L525.565 89.6956
L525.565 88.3358
L526.073 88.3358
L526.073 87.6559
L526.625 87.6559
L526.625 84.2566
L527.164 84.2566
L527.164 82.217
L527.69 82.217
L527.69 77.4579
L528.271 77.4579
L528.271 82.217
L528.849 82.217
L528.849 86.9761
L529.956 86.9761
L529.956 84.2566
L530.444 84.2566
L530.444 88.3358
L530.961 88.3358
L530.961 84.2566
L532.118 84.2566
L532.118 80.8572
L532.612 80.8572
L532.612 83.5767
L533.179 83.5767
L533.179 82.8968
L533.824 82.8968
L533.824 83.5767
L534.952 83.5767
L534.952 80.1774
L535.53 80.1774
L535.53 78.8176
L536.079 78.8176
L536.079 80.1774
L536.653 80.1774
L536.653 84.9365
L537.225 84.9365
L537.225 82.8968
L537.79 82.8968
L537.79 82.217
L538.331 82.217
L538.331 81.5371
L538.87 81.5371
L538.87 82.8968
L539.454 82.8968
L539.454 81.5371
L540.057 81.5371
L540.057 82.217
L540.596 82.217
L540.596 83.5767
L541.114 83.5767
L541.114 84.2566
L542.28 84.2566
L542.28 91.7352
L542.839 91.7352
L542.839 92.415
L543.363 92.415
L543.363 89.6956
L543.874 89.6956
L543.874 92.415
L544.423 92.415
L544.423 91.0553
L544.993 91.0553
L544.993 86.2962
L544.993 86.2962" style="fill:none;stroke:#0000ff;"/>
   </g>
   <g id="matplotlib.axis_1">
    <g id="xtick_1">
     <g id="line2d_2">
      <defs>
       <path d="
M0 0
L0 -4" id="mb98c1d77ad"/>
      </defs>
      <g>
       <use style="stroke:#000000;stroke-linecap:butt;stroke-width:0.5;" x="32.7421875" xlink:href="#mb98c1d77ad" y="34.2860617227"/>
      </g>
     </g>
    </g>
    <g id="xtick_2">
     <g id="line2d_3">
      <defs>
       <path d="
M0 0
L0 -4" id="mb98c1d77ad"/>
      </defs>
      <g>
       <use style="stroke:#000000;stroke-linecap:butt;stroke-width:0.5;" x="135.239351264" xlink:href="#mb98c1d77ad" y="34.2860617227"/>
      </g>
     </g>
     <g id="text_1">
      <!-- 2e5 -->
      <defs>
       <path d="
M19.1875 8.29688
L53.6094 8.29688
L53.6094 0
L7.32812 0
L7.32812 8.29688
Q12.9375 14.1094 22.625 23.8906
Q32.3281 33.6875 34.8125 36.5312
Q39.5469 41.8438 41.4219 45.5312
Q43.3125 49.2188 43.3125 52.7812
Q43.3125 58.5938 39.2344 62.25
Q35.1562 65.9219 28.6094 65.9219
Q23.9688 65.9219 18.8125 64.3125
Q13.6719 62.7031 7.8125 59.4219
L7.8125 69.3906
Q13.7656 71.7812 18.9375 73
Q24.125 74.2188 28.4219 74.2188
Q39.75 74.2188 46.4844 68.5469
Q53.2188 62.8906 53.2188 53.4219
Q53.2188 48.9219 51.5312 44.8906
Q49.8594 40.875 45.4062 35.4062
Q44.1875 33.9844 37.6406 27.2188
Q31.1094 20.4531 19.1875 8.29688" id="BitstreamVeraSans-Roman-32"/>
       <path d="
M56.2031 29.5938
L56.2031 25.2031
L14.8906 25.2031
Q15.4844 15.9219 20.4844 11.0625
Q25.4844 6.20312 34.4219 6.20312
Q39.5938 6.20312 44.4531 7.46875
Q49.3125 8.73438 54.1094 11.2812
L54.1094 2.78125
Q49.2656 0.734375 44.1875 -0.34375
Q39.1094 -1.42188 33.8906 -1.42188
Q20.7969 -1.42188 13.1562 6.1875
Q5.51562 13.8125 5.51562 26.8125
Q5.51562 40.2344 12.7656 48.1094
Q20.0156 56 32.3281 56
Q43.3594 56 49.7812 48.8906
Q56.2031 41.7969 56.2031 29.5938
M47.2188 32.2344
Q47.125 39.5938 43.0938 43.9844
Q39.0625 48.3906 32.4219 48.3906
Q24.9062 48.3906 20.3906 44.1406
Q15.875 39.8906 15.1875 32.1719
z
" id="BitstreamVeraSans-Roman-65"/>
       <path d="
M10.7969 72.9062
L49.5156 72.9062
L49.5156 64.5938
L19.8281 64.5938
L19.8281 46.7344
Q21.9688 47.4688 24.1094 47.8281
Q26.2656 48.1875 28.4219 48.1875
Q40.625 48.1875 47.75 41.5
Q54.8906 34.8125 54.8906 23.3906
Q54.8906 11.625 47.5625 5.09375
Q40.2344 -1.42188 26.9062 -1.42188
Q22.3125 -1.42188 17.5469 -0.640625
Q12.7969 0.140625 7.71875 1.70312
L7.71875 11.625
Q12.1094 9.23438 16.7969 8.0625
Q21.4844 6.89062 26.7031 6.89062
Q35.1562 6.89062 40.0781 11.3281
Q45.0156 15.7656 45.0156 23.3906
Q45.0156 31 40.0781 35.4375
Q35.1562 39.8906 26.7031 39.8906
Q22.75 39.8906 18.8125 39.0156
Q14.8906 38.1406 10.7969 36.2812
z
" id="BitstreamVeraSans-Roman-35"/>
      </defs>
      <g transform="translate(126.603413764 45.7079367227)scale(0.1 -0.1)">
       <use xlink:href="#BitstreamVeraSans-Roman-32"/>
       <use x="63.623046875" xlink:href="#BitstreamVeraSans-Roman-65"/>
       <use x="125.146484375" xlink:href="#BitstreamVeraSans-Roman-35"/>
      </g>
     </g>
    </g>
    <g id="xtick_3">
     <g id="line2d_4">
      <defs>
       <path d="
M0 0
L0 -4" id="mb98c1d77ad"/>
      </defs>
      <g>
       <use style="stroke:#000000;stroke-linecap:butt;stroke-width:0.5;" x="237.736515028" xlink:href="#mb98c1d77ad" y="34.2860617227"/>
      </g>
     </g>
     <g id="text_2">
      <!-- 4e5 -->
      <defs>
       <path d="
M37.7969 64.3125
L12.8906 25.3906
L37.7969 25.3906
z

M35.2031 72.9062
L47.6094 72.9062
L47.6094 25.3906
L58.0156 25.3906
L58.0156 17.1875
L47.6094 17.1875
L47.6094 0
L37.7969 0
L37.7969 17.1875
L4.89062 17.1875
L4.89062 26.7031
z
" id="BitstreamVeraSans-Roman-34"/>
      </defs>
      <g transform="translate(228.978702528 45.5766867227)scale(0.1 -0.1)">
       <use xlink:href="#BitstreamVeraSans-Roman-34"/>
       <use x="63.623046875" xlink:href="#BitstreamVeraSans-Roman-65"/>
       <use x="125.146484375" xlink:href="#BitstreamVeraSans-Roman-35"/>
      </g>
     </g>
    </g>
    <g id="xtick_4">
     <g id="line2d_5">
      <defs>
       <path d="
M0 0
L0 -4" id="mb98c1d77ad"/>
      </defs>
      <g>
       <use style="stroke:#000000;stroke-linecap:butt;stroke-width:0.5;" x="340.233678792" xlink:href="#mb98c1d77ad" y="34.2860617227"/>
      </g>
     </g>
     <g id="text_3">
      <!-- 6e5 -->
      <defs>
       <path d="
M33.0156 40.375
Q26.375 40.375 22.4844 35.8281
Q18.6094 31.2969 18.6094 23.3906
Q18.6094 15.5312 22.4844 10.9531
Q26.375 6.39062 33.0156 6.39062
Q39.6562 6.39062 43.5312 10.9531
Q47.4062 15.5312 47.4062 23.3906
Q47.4062 31.2969 43.5312 35.8281
Q39.6562 40.375 33.0156 40.375
M52.5938 71.2969
L52.5938 62.3125
Q48.875 64.0625 45.0938 64.9844
Q41.3125 65.9219 37.5938 65.9219
Q27.8281 65.9219 22.6719 59.3281
Q17.5312 52.7344 16.7969 39.4062
Q19.6719 43.6562 24.0156 45.9219
Q28.375 48.1875 33.5938 48.1875
Q44.5781 48.1875 50.9531 41.5156
Q57.3281 34.8594 57.3281 23.3906
Q57.3281 12.1562 50.6875 5.35938
Q44.0469 -1.42188 33.0156 -1.42188
Q20.3594 -1.42188 13.6719 8.26562
Q6.98438 17.9688 6.98438 36.375
Q6.98438 53.6562 15.1875 63.9375
Q23.3906 74.2188 37.2031 74.2188
Q40.9219 74.2188 44.7031 73.4844
Q48.4844 72.75 52.5938 71.2969" id="BitstreamVeraSans-Roman-36"/>
      </defs>
      <g transform="translate(331.580553792 45.7079367227)scale(0.1 -0.1)">
       <use xlink:href="#BitstreamVeraSans-Roman-36"/>
       <use x="63.623046875" xlink:href="#BitstreamVeraSans-Roman-65"/>
       <use x="125.146484375" xlink:href="#BitstreamVeraSans-Roman-35"/>
      </g>
     </g>
    </g>
    <g id="xtick_5">
     <g id="line2d_6">
      <defs>
       <path d="
M0 0
L0 -4" id="mb98c1d77ad"/>
      </defs>
      <g>
       <use style="stroke:#000000;stroke-linecap:butt;stroke-width:0.5;" x="442.730842556" xlink:href="#mb98c1d77ad" y="34.2860617227"/>
      </g>
     </g>
     <g id="text_4">
      <!-- 8e5 -->
      <defs>
       <path d="
M31.7812 34.625
Q24.75 34.625 20.7188 30.8594
Q16.7031 27.0938 16.7031 20.5156
Q16.7031 13.9219 20.7188 10.1562
Q24.75 6.39062 31.7812 6.39062
Q38.8125 6.39062 42.8594 10.1719
Q46.9219 13.9688 46.9219 20.5156
Q46.9219 27.0938 42.8906 30.8594
Q38.875 34.625 31.7812 34.625
M21.9219 38.8125
Q15.5781 40.375 12.0312 44.7188
Q8.5 49.0781 8.5 55.3281
Q8.5 64.0625 14.7188 69.1406
Q20.9531 74.2188 31.7812 74.2188
Q42.6719 74.2188 48.875 69.1406
Q55.0781 64.0625 55.0781 55.3281
Q55.0781 49.0781 51.5312 44.7188
Q48 40.375 41.7031 38.8125
Q48.8281 37.1562 52.7969 32.3125
Q56.7812 27.4844 56.7812 20.5156
Q56.7812 9.90625 50.3125 4.23438
Q43.8438 -1.42188 31.7812 -1.42188
Q19.7344 -1.42188 13.25 4.23438
Q6.78125 9.90625 6.78125 20.5156
Q6.78125 27.4844 10.7812 32.3125
Q14.7969 37.1562 21.9219 38.8125
M18.3125 54.3906
Q18.3125 48.7344 21.8438 45.5625
Q25.3906 42.3906 31.7812 42.3906
Q38.1406 42.3906 41.7188 45.5625
Q45.3125 48.7344 45.3125 54.3906
Q45.3125 60.0625 41.7188 63.2344
Q38.1406 66.4062 31.7812 66.4062
Q25.3906 66.4062 21.8438 63.2344
Q18.3125 60.0625 18.3125 54.3906" id="BitstreamVeraSans-Roman-38"/>
      </defs>
      <g transform="translate(434.067561306 45.7079367227)scale(0.1 -0.1)">
       <use xlink:href="#BitstreamVeraSans-Roman-38"/>
       <use x="63.623046875" xlink:href="#BitstreamVeraSans-Roman-65"/>
       <use x="125.146484375" xlink:href="#BitstreamVeraSans-Roman-35"/>
      </g>
     </g>
    </g>
    <g id="xtick_6">
     <g id="line2d_7">
      <defs>
       <path d="
M0 0
L0 -4" id="mb98c1d77ad"/>
      </defs>
      <g>
       <use style="stroke:#000000;stroke-linecap:butt;stroke-width:0.5;" x="545.22800632" xlink:href="#mb98c1d77ad" y="34.2860617227"/>
      </g>
     </g>
     <g id="text_5">
      <!-- 1e6 -->
      <defs>
       <path d="
M12.4062 8.29688
L28.5156 8.29688
L28.5156 63.9219
L10.9844 60.4062
L10.9844 69.3906
L28.4219 72.9062
L38.2812 72.9062
L38.2812 8.29688
L54.3906 8.29688
L54.3906 0
L12.4062 0
z
" id="BitstreamVeraSans-Roman-31"/>
      </defs>
      <g transform="translate(536.65300632 45.7079367227)scale(0.1 -0.1)">
       <use xlink:href="#BitstreamVeraSans-Roman-31"/>
       <use x="63.623046875" xlink:href="#BitstreamVeraSans-Roman-65"/>
       <use x="125.146484375" xlink:href="#BitstreamVeraSans-Roman-36"/>
      </g>
     </g>
    </g>
    <g id="xtick_7">
     <g id="line2d_8">
      <defs>
       <path d="
M0 0
L0 -2" id="m85a2eaf53d"/>
      </defs>
      <g>
       <use style="stroke:#000000;stroke-linecap:butt;stroke-width:0.5;" x="58.366478441" xlink:href="#m85a2eaf53d" y="34.2860617227"/>
      </g>
     </g>
    </g>
    <g id="xtick_8">
     <g id="line2d_9">
      <defs>
       <path d="
M0 0
L0 -2" id="m85a2eaf53d"/>
      </defs>
      <g>
       <use style="stroke:#000000;stroke-linecap:butt;stroke-width:0.5;" x="83.990769382" xlink:href="#m85a2eaf53d" y="34.2860617227"/>
      </g>
     </g>
    </g>
    <g id="xtick_9">
     <g id="line2d_10">
      <defs>
       <path d="
M0 0
L0 -2" id="m85a2eaf53d"/>
      </defs>
      <g>
       <use style="stroke:#000000;stroke-linecap:butt;stroke-width:0.5;" x="109.615060323" xlink:href="#m85a2eaf53d" y="34.2860617227"/>
      </g>
     </g>
    </g>
    <g id="xtick_10">
     <g id="line2d_11">
      <defs>
       <path d="
M0 0
L0 -2" id="m85a2eaf53d"/>
      </defs>
      <g>
       <use style="stroke:#000000;stroke-linecap:butt;stroke-width:0.5;" x="160.863642205" xlink:href="#m85a2eaf53d" y="34.2860617227"/>
      </g>
     </g>
    </g>
    <g id="xtick_11">
     <g id="line2d_12">
      <defs>
       <path d="
M0 0
L0 -2" id="m85a2eaf53d"/>
      </defs>
      <g>
       <use style="stroke:#000000;stroke-linecap:butt;stroke-width:0.5;" x="186.487933146" xlink:href="#m85a2eaf53d" y="34.2860617227"/>
      </g>
     </g>
    </g>
    <g id="xtick_12">
     <g id="line2d_13">
      <defs>
       <path d="
M0 0
L0 -2" id="m85a2eaf53d"/>
      </defs>
      <g>
       <use style="stroke:#000000;stroke-linecap:butt;stroke-width:0.5;" x="212.112224087" xlink:href="#m85a2eaf53d" y="34.2860617227"/>
      </g>
     </g>
    </g>
    <g id="xtick_13">
     <g id="line2d_14">
      <defs>
       <path d="
M0 0
L0 -2" id="m85a2eaf53d"/>
      </defs>
      <g>
       <use style="stroke:#000000;stroke-linecap:butt;stroke-width:0.5;" x="263.360805969" xlink:href="#m85a2eaf53d" y="34.2860617227"/>
      </g>
     </g>
    </g>
    <g id="xtick_14">
     <g id="line2d_15">
      <defs>
       <path d="
M0 0
L0 -2" id="m85a2eaf53d"/>
      </defs>
      <g>
       <use style="stroke:#000000;stroke-linecap:butt;stroke-width:0.5;" x="288.98509691" xlink:href="#m85a2eaf53d" y="34.2860617227"/>
      </g>
     </g>
    </g>
    <g id="xtick_15">
     <g id="line2d_16">
      <defs>
       <path d="
M0 0
L0 -2" id="m85a2eaf53d"/>
      </defs>
      <g>
       <use style="stroke:#000000;stroke-linecap:butt;stroke-width:0.5;" x="314.609387851" xlink:href="#m85a2eaf53d" y="34.2860617227"/>
      </g>
     </g>
    </g>
    <g id="xtick_16">
     <g id="line2d_17">
      <defs>
       <path d="
M0 0
L0 -2" id="m85a2eaf53d"/>
      </defs>
      <g>
       <use style="stroke:#000000;stroke-linecap:butt;stroke-width:0.5;" x="365.857969733" xlink:href="#m85a2eaf53d" y="34.2860617227"/>
      </g>
     </g>
    </g>
    <g id="xtick_17">
     <g id="line2d_18">
      <defs>
       <path d="
M0 0
L0 -2" id="m85a2eaf53d"/>
      </defs>
      <g>
       <use style="stroke:#000000;stroke-linecap:butt;stroke-width:0.5;" x="391.482260674" xlink:href="#m85a2eaf53d" y="34.2860617227"/>
      </g>
     </g>
    </g>
    <g id="xtick_18">
     <g id="line2d_19">
      <defs>
       <path d="
M0 0
L0 -2" id="m85a2eaf53d"/>
      </defs>
      <g>
       <use style="stroke:#000000;stroke-linecap:butt;stroke-width:0.5;" x="417.106551615" xlink:href="#m85a2eaf53d" y="34.2860617227"/>
      </g>
     </g>
    </g>
    <g id="xtick_19">
     <g id="line2d_20">
      <defs>
       <path d="
M0 0
L0 -2" id="m85a2eaf53d"/>
      </defs>
      <g>
       <use style="stroke:#000000;stroke-linecap:butt;stroke-width:0.5;" x="468.355133497" xlink:href="#m85a2eaf53d" y="34.2860617227"/>
      </g>
     </g>
    </g>
    <g id="xtick_20">
     <g id="line2d_21">
      <defs>
       <path d="
M0 0
L0 -2" id="m85a2eaf53d"/>
      </defs>
      <g>
       <use style="stroke:#000000;stroke-linecap:butt;stroke-width:0.5;" x="493.979424438" xlink:href="#m85a2eaf53d" y="34.2860617227"/>
      </g>
     </g>
    </g>
    <g id="xtick_21">
     <g id="line2d_22">
      <defs>
       <path d="
M0 0
L0 -2" id="m85a2eaf53d"/>
      </defs>
      <g>
       <use style="stroke:#000000;stroke-linecap:butt;stroke-width:0.5;" x="519.603715379" xlink:href="#m85a2eaf53d" y="34.2860617227"/>
      </g>
     </g>
    </g>
   </g>
   <g id="matplotlib.axis_2">
    <g id="ytick_1">
     <g id="line2d_23">
      <defs>
       <path d="
M0 0
L4 0" id="me03e4bbd3f"/>
      </defs>
      <g>
       <use style="stroke:#000000;stroke-linecap:butt;stroke-width:0.5;" x="32.7421875" xlink:href="#me03e4bbd3f" y="119.26994012"/>
      </g>
     </g>
     <g id="text_6">
      <!-- -250 -->
      <defs>
       <path d="
M31.7812 66.4062
Q24.1719 66.4062 20.3281 58.9062
Q16.5 51.4219 16.5 36.375
Q16.5 21.3906 20.3281 13.8906
Q24.1719 6.39062 31.7812 6.39062
Q39.4531 6.39062 43.2812 13.8906
Q47.125 21.3906 47.125 36.375
Q47.125 51.4219 43.2812 58.9062
Q39.4531 66.4062 31.7812 66.4062
M31.7812 74.2188
Q44.0469 74.2188 50.5156 64.5156
Q56.9844 54.8281 56.9844 36.375
Q56.9844 17.9688 50.5156 8.26562
Q44.0469 -1.42188 31.7812 -1.42188
Q19.5312 -1.42188 13.0625 8.26562
Q6.59375 17.9688 6.59375 36.375
Q6.59375 54.8281 13.0625 64.5156
Q19.5312 74.2188 31.7812 74.2188" id="BitstreamVeraSans-Roman-30"/>
       <path d="
M4.89062 31.3906
L31.2031 31.3906
L31.2031 23.3906
L4.89062 23.3906
z
" id="BitstreamVeraSans-Roman-2d"/>
      </defs>
      <g transform="translate(7.2 122.90978387)scale(0.1 -0.1)">
       <use xlink:href="#BitstreamVeraSans-Roman-2d"/>
       <use x="36.083984375" xlink:href="#BitstreamVeraSans-Roman-32"/>
       <use x="99.70703125" xlink:href="#BitstreamVeraSans-Roman-35"/>
       <use x="163.330078125" xlink:href="#BitstreamVeraSans-Roman-30"/>
      </g>
     </g>
    </g>
    <g id="ytick_2">
     <g id="line2d_24">
      <defs>
       <path d="
M0 0
L4 0" id="me03e4bbd3f"/>
      </defs>
      <g>
       <use style="stroke:#000000;stroke-linecap:butt;stroke-width:0.5;" x="32.7421875" xlink:href="#me03e4bbd3f" y="102.27316444"/>
      </g>
     </g>
     <g id="text_7">
      <!-- -200 -->
      <g transform="translate(7.2 105.91300819)scale(0.1 -0.1)">
       <use xlink:href="#BitstreamVeraSans-Roman-2d"/>
       <use x="36.083984375" xlink:href="#BitstreamVeraSans-Roman-32"/>
       <use x="99.70703125" xlink:href="#BitstreamVeraSans-Roman-30"/>
       <use x="163.330078125" xlink:href="#BitstreamVeraSans-Roman-30"/>
      </g>
     </g>
    </g>
    <g id="ytick_3">
     <g id="line2d_25">
      <defs>
       <path d="
M0 0
L4 0" id="me03e4bbd3f"/>
      </defs>
      <g>
       <use style="stroke:#000000;stroke-linecap:butt;stroke-width:0.5;" x="32.7421875" xlink:href="#me03e4bbd3f" y="85.2763887609"/>
      </g>
     </g>
     <g id="text_8">
      <!-- -150 -->
      <g transform="translate(7.2 88.9162325109)scale(0.1 -0.1)">
       <use xlink:href="#BitstreamVeraSans-Roman-2d"/>
       <use x="36.083984375" xlink:href="#BitstreamVeraSans-Roman-31"/>
       <use x="99.70703125" xlink:href="#BitstreamVeraSans-Roman-35"/>
       <use x="163.330078125" xlink:href="#BitstreamVeraSans-Roman-30"/>
      </g>
     </g>
    </g>
    <g id="ytick_4">
     <g id="line2d_26">
      <defs>
       <path d="
M0 0
L4 0" id="me03e4bbd3f"/>
      </defs>
      <g>
       <use style="stroke:#000000;stroke-linecap:butt;stroke-width:0.5;" x="32.7421875" xlink:href="#me03e4bbd3f" y="68.2796130815"/>
      </g>
     </g>
     <g id="text_9">
      <!-- -100 -->
      <g transform="translate(7.2 71.9194568315)scale(0.1 -0.1)">
       <use xlink:href="#BitstreamVeraSans-Roman-2d"/>
       <use x="36.083984375" xlink:href="#BitstreamVeraSans-Roman-31"/>
       <use x="99.70703125" xlink:href="#BitstreamVeraSans-Roman-30"/>
       <use x="163.330078125" xlink:href="#BitstreamVeraSans-Roman-30"/>
      </g>
     </g>
    </g>
    <g id="ytick_5">
     <g id="line2d_27">
      <defs>
       <path d="
M0 0
L4 0" id="me03e4bbd3f"/>
      </defs>
      <g>
       <use style="stroke:#000000;stroke-linecap:butt;stroke-width:0.5;" x="32.7421875" xlink:href="#me03e4bbd3f" y="51.2828374021"/>
      </g>
     </g>
     <g id="text_10">
      <!-- -50 -->
      <g transform="translate(13.5625 54.9226811521)scale(0.1 -0.1)">
       <use xlink:href="#BitstreamVeraSans-Roman-2d"/>
       <use x="36.083984375" xlink:href="#BitstreamVeraSans-Roman-35"/>
       <use x="99.70703125" xlink:href="#BitstreamVeraSans-Roman-30"/>
      </g>
     </g>
    </g>
    <g id="ytick_6">
     <g id="line2d_28">
      <defs>
       <path d="
M0 0
L4 0" id="me03e4bbd3f"/>
      </defs>
      <g>
       <use style="stroke:#000000;stroke-linecap:butt;stroke-width:0.5;" x="32.7421875" xlink:href="#me03e4bbd3f" y="34.2860617227"/>
      </g>
     </g>
    </g>
    <g id="ytick_7">
     <g id="line2d_29">
      <defs>
       <path d="
M0 0
L4 0" id="me03e4bbd3f"/>
      </defs>
      <g>
       <use style="stroke:#000000;stroke-linecap:butt;stroke-width:0.5;" x="32.7421875" xlink:href="#me03e4bbd3f" y="17.2892860433"/>
      </g>
     </g>
     <g id="text_11">
      <!-- 50 -->
      <g transform="translate(17.453125 20.9291297933)scale(0.1 -0.1)">
       <use xlink:href="#BitstreamVeraSans-Roman-35"/>
       <use x="63.623046875" xlink:href="#BitstreamVeraSans-Roman-30"/>
      </g>
     </g>
    </g>
    <g id="ytick_8">
     <g id="line2d_30">
      <defs>
       <path d="
M0 0
L2 0" id="m59abd9aada"/>
      </defs>
      <g>
       <use style="stroke:#000000;stroke-linecap:butt;stroke-width:0.5;" x="32.7421875" xlink:href="#m59abd9aada" y="122.669295256"/>
      </g>
     </g>
    </g>
    <g id="ytick_9">
     <g id="line2d_31">
      <defs>
       <path d="
M0 0
L2 0" id="m59abd9aada"/>
      </defs>
      <g>
       <use style="stroke:#000000;stroke-linecap:butt;stroke-width:0.5;" x="32.7421875" xlink:href="#m59abd9aada" y="115.870584984"/>
      </g>
     </g>
    </g>
    <g id="ytick_10">
     <g id="line2d_32">
      <defs>
       <path d="
M0 0
L2 0" id="m59abd9aada"/>
      </defs>
      <g>
       <use style="stroke:#000000;stroke-linecap:butt;stroke-width:0.5;" x="32.7421875" xlink:href="#m59abd9aada" y="112.471229848"/>
      </g>
     </g>
    </g>
    <g id="ytick_11">
     <g id="line2d_33">
      <defs>
       <path d="
M0 0
L2 0" id="m59abd9aada"/>
      </defs>
      <g>
       <use style="stroke:#000000;stroke-linecap:butt;stroke-width:0.5;" x="32.7421875" xlink:href="#m59abd9aada" y="109.071874712"/>
      </g>
     </g>
    </g>
    <g id="ytick_12">
     <g id="line2d_34">
      <defs>
       <path d="
M0 0
L2 0" id="m59abd9aada"/>
      </defs>
      <g>
       <use style="stroke:#000000;stroke-linecap:butt;stroke-width:0.5;" x="32.7421875" xlink:href="#m59abd9aada" y="105.672519576"/>
      </g>
     </g>
    </g>
    <g id="ytick_13">
     <g id="line2d_35">
      <defs>
       <path d="
M0 0
L2 0" id="m59abd9aada"/>
      </defs>
      <g>
       <use style="stroke:#000000;stroke-linecap:butt;stroke-width:0.5;" x="32.7421875" xlink:href="#m59abd9aada" y="98.8738093045"/>
      </g>
     </g>
    </g>
    <g id="ytick_14">
     <g id="line2d_36">
      <defs>
       <path d="
M0 0
L2 0" id="m59abd9aada"/>
      </defs>
      <g>
       <use style="stroke:#000000;stroke-linecap:butt;stroke-width:0.5;" x="32.7421875" xlink:href="#m59abd9aada" y="95.4744541686"/>
      </g>
     </g>
    </g>
    <g id="ytick_15">
     <g id="line2d_37">
      <defs>
       <path d="
M0 0
L2 0" id="m59abd9aada"/>
      </defs>
      <g>
       <use style="stroke:#000000;stroke-linecap:butt;stroke-width:0.5;" x="32.7421875" xlink:href="#m59abd9aada" y="92.0750990327"/>
      </g>
     </g>
    </g>
    <g id="ytick_16">
     <g id="line2d_38">
      <defs>
       <path d="
M0 0
L2 0" id="m59abd9aada"/>
      </defs>
      <g>
       <use style="stroke:#000000;stroke-linecap:butt;stroke-width:0.5;" x="32.7421875" xlink:href="#m59abd9aada" y="88.6757438968"/>
      </g>
     </g>
    </g>
    <g id="ytick_17">
     <g id="line2d_39">
      <defs>
       <path d="
M0 0
L2 0" id="m59abd9aada"/>
      </defs>
      <g>
       <use style="stroke:#000000;stroke-linecap:butt;stroke-width:0.5;" x="32.7421875" xlink:href="#m59abd9aada" y="81.8770336251"/>
      </g>
     </g>
    </g>
    <g id="ytick_18">
     <g id="line2d_40">
      <defs>
       <path d="
M0 0
L2 0" id="m59abd9aada"/>
      </defs>
      <g>
       <use style="stroke:#000000;stroke-linecap:butt;stroke-width:0.5;" x="32.7421875" xlink:href="#m59abd9aada" y="78.4776784892"/>
      </g>
     </g>
    </g>
    <g id="ytick_19">
     <g id="line2d_41">
      <defs>
       <path d="
M0 0
L2 0" id="m59abd9aada"/>
      </defs>
      <g>
       <use style="stroke:#000000;stroke-linecap:butt;stroke-width:0.5;" x="32.7421875" xlink:href="#m59abd9aada" y="75.0783233533"/>
      </g>
     </g>
    </g>
    <g id="ytick_20">
     <g id="line2d_42">
      <defs>
       <path d="
M0 0
L2 0" id="m59abd9aada"/>
      </defs>
      <g>
       <use style="stroke:#000000;stroke-linecap:butt;stroke-width:0.5;" x="32.7421875" xlink:href="#m59abd9aada" y="71.6789682174"/>
      </g>
     </g>
    </g>
    <g id="ytick_21">
     <g id="line2d_43">
      <defs>
       <path d="
M0 0
L2 0" id="m59abd9aada"/>
      </defs>
      <g>
       <use style="stroke:#000000;stroke-linecap:butt;stroke-width:0.5;" x="32.7421875" xlink:href="#m59abd9aada" y="64.8802579456"/>
      </g>
     </g>
    </g>
    <g id="ytick_22">
     <g id="line2d_44">
      <defs>
       <path d="
M0 0
L2 0" id="m59abd9aada"/>
      </defs>
      <g>
       <use style="stroke:#000000;stroke-linecap:butt;stroke-width:0.5;" x="32.7421875" xlink:href="#m59abd9aada" y="61.4809028098"/>
      </g>
     </g>
    </g>
    <g id="ytick_23">
     <g id="line2d_45">
      <defs>
       <path d="
M0 0
L2 0" id="m59abd9aada"/>
      </defs>
      <g>
       <use style="stroke:#000000;stroke-linecap:butt;stroke-width:0.5;" x="32.7421875" xlink:href="#m59abd9aada" y="58.0815476739"/>
      </g>
     </g>
    </g>
    <g id="ytick_24">
     <g id="line2d_46">
      <defs>
       <path d="
M0 0
L2 0" id="m59abd9aada"/>
      </defs>
      <g>
       <use style="stroke:#000000;stroke-linecap:butt;stroke-width:0.5;" x="32.7421875" xlink:href="#m59abd9aada" y="54.682192538"/>
      </g>
     </g>
    </g>
    <g id="ytick_25">
     <g id="line2d_47">
      <defs>
       <path d="
M0 0
L2 0" id="m59abd9aada"/>
      </defs>
      <g>
       <use style="stroke:#000000;stroke-linecap:butt;stroke-width:0.5;" x="32.7421875" xlink:href="#m59abd9aada" y="47.8834822662"/>
      </g>
     </g>
    </g>
    <g id="ytick_26">
     <g id="line2d_48">
      <defs>
       <path d="
M0 0
L2 0" id="m59abd9aada"/>
      </defs>
      <g>
       <use style="stroke:#000000;stroke-linecap:butt;stroke-width:0.5;" x="32.7421875" xlink:href="#m59abd9aada" y="44.4841271304"/>
      </g>
     </g>
    </g>
    <g id="ytick_27">
     <g id="line2d_49">
      <defs>
       <path d="
M0 0
L2 0" id="m59abd9aada"/>
      </defs>
      <g>
       <use style="stroke:#000000;stroke-linecap:butt;stroke-width:0.5;" x="32.7421875" xlink:href="#m59abd9aada" y="41.0847719945"/>
      </g>
     </g>
    </g>
    <g id="ytick_28">
     <g id="line2d_50">
      <defs>
       <path d="
M0 0
L2 0" id="m59abd9aada"/>
      </defs>
      <g>
       <use style="stroke:#000000;stroke-linecap:butt;stroke-width:0.5;" x="32.7421875" xlink:href="#m59abd9aada" y="37.6854168586"/>
      </g>
     </g>
    </g>
    <g id="ytick_29">
     <g id="line2d_51">
      <defs>
       <path d="
M0 0
L2 0" id="m59abd9aada"/>
      </defs>
      <g>
       <use style="stroke:#000000;stroke-linecap:butt;stroke-width:0.5;" x="32.7421875" xlink:href="#m59abd9aada" y="30.8867065868"/>
      </g>
     </g>
    </g>
    <g id="ytick_30">
     <g id="line2d_52">
      <defs>
       <path d="
M0 0
L2 0" id="m59abd9aada"/>
      </defs>
      <g>
       <use style="stroke:#000000;stroke-linecap:butt;stroke-width:0.5;" x="32.7421875" xlink:href="#m59abd9aada" y="27.4873514509"/>
      </g>
     </g>
    </g>
    <g id="ytick_31">
     <g id="line2d_53">
      <defs>
       <path d="
M0 0
L2 0" id="m59abd9aada"/>
      </defs>
      <g>
       <use style="stroke:#000000;stroke-linecap:butt;stroke-width:0.5;" x="32.7421875" xlink:href="#m59abd9aada" y="24.0879963151"/>
      </g>
     </g>
    </g>
    <g id="ytick_32">
     <g id="line2d_54">
      <defs>
       <path d="
M0 0
L2 0" id="m59abd9aada"/>
      </defs>
      <g>
       <use style="stroke:#000000;stroke-linecap:butt;stroke-width:0.5;" x="32.7421875" xlink:href="#m59abd9aada" y="20.6886411792"/>
      </g>
     </g>
    </g>
    <g id="ytick_33">
     <g id="line2d_55">
      <defs>
       <path d="
M0 0
L2 0" id="m59abd9aada"/>
      </defs>
      <g>
       <use style="stroke:#000000;stroke-linecap:butt;stroke-width:0.5;" x="32.7421875" xlink:href="#m59abd9aada" y="13.8899309074"/>
      </g>
     </g>
    </g>
   </g>
   <g id="patch_3">
    <path d="
M22.4982 34.2861
L555.238 34.2861" style="fill:none;stroke:#000000;stroke-width:0.8;"/>
   </g>
   <g id="patch_4">
    <path d="
M32.7422 125.28
L32.7422 7.2" style="fill:none;stroke:#000000;stroke-width:0.8;"/>
   </g>
  </g>
 </g>
 <defs>
  <clipPath id="pf42bfd13c1">
   <rect height="118.08" width="532.739545372" x="22.4982212145" y="7.2"/>
  </clipPath>
 </defs>
</svg>
