<?xml version="1.0" encoding="utf-8" standalone="no"?>
<!DOCTYPE svg PUBLIC "-//W3C//DTD SVG 1.1//EN"
  "http://www.w3.org/Graphics/SVG/1.1/DTD/svg11.dtd">
<!-- Created with matplotlib (http://matplotlib.sourceforge.net/) -->
<svg height="132pt" version="1.1" viewBox="0 0 562 132" width="562pt" xmlns="http://www.w3.org/2000/svg" xmlns:xlink="http://www.w3.org/1999/xlink">
 <defs>
  <style type="text/css">
*{stroke-linecap:square;stroke-linejoin:round;}
  </style>
 </defs>
 <g id="figure_1">
  <g id="patch_1">
   <path d="
M-2.22045e-16 132.48
L562.438 132.48
L562.438 0
L-2.22045e-16 0
z
" style="fill:#ffffff;"/>
  </g>
  <g id="axes_1">
   <g id="patch_2">
    <path d="
M22.4982 125.28
L555.238 125.28
L555.238 7.2
L22.4982 7.2
z
" style="fill:#ffffff;"/>
   </g>
   <g id="line2d_1">
    <path clip-path="url(#pf42bfd13c1)" d="
M32.7432 9.47077
L32.9477 9.47077
L32.9477 15.1008
L33.2132 15.1008
L33.2132 16.9774
L33.5022 16.9774
L33.5022 16.5083
L33.8087 16.5083
L33.8087 19.7924
L34.1203 19.7924
L34.1203 17.4466
L34.4483 17.4466
L34.4483 18.8541
L34.7629 18.8541
L34.7629 19.3233
L35.1186 19.3233
L35.1186 17.9158
L35.4599 17.9158
L35.4599 18.8541
L35.793 18.8541
L35.793 21.1999
L36.1559 21.1999
L36.1559 23.0766
L36.5095 23.0766
L36.5095 21.1999
L36.8836 21.1999
L36.8836 19.3233
L37.2321 19.3233
L37.2321 19.7924
L37.5908 19.7924
L37.5908 23.0766
L37.9537 23.0766
L37.9537 21.1999
L38.3329 21.1999
L38.3329 21.6691
L38.7388 21.6691
L38.7388 24.4841
L39.1078 24.4841
L39.1078 22.6075
L39.4665 22.6075
L39.4665 25.4225
L39.854 25.4225
L39.854 26.83
L40.2537 26.83
L40.2537 25.8916
L40.6145 25.8916
L40.6145 26.83
L40.9886 26.83
L40.9886 28.2375
L41.414 28.2375
L41.414 29.1758
L41.7922 29.1758
L41.7922 33.8675
L42.1704 33.8675
L42.1704 32.9291
L42.6163 32.9291
L42.6163 30.5833
L42.9975 30.5833
L42.9975 28.7066
L43.3881 28.7066
L43.3881 31.9908
L43.7909 31.9908
L43.7909 29.1758
L44.1619 29.1758
L44.1619 28.7066
L45.7947 28.7066
L45.7947 26.83
L46.2016 26.83
L46.2016 29.645
L46.6013 29.645
L46.6013 31.0525
L47.4285 31.0525
L47.4285 28.7066
L47.8282 28.7066
L47.8282 26.3608
L48.2772 26.3608
L48.2772 24.9533
L48.7066 24.9533
L48.7066 27.7683
L49.1433 27.7683
L49.1433 30.1141
L49.5102 30.1141
L49.5102 31.5216
L49.9253 31.5216
L49.9253 32.46
L50.7392 32.46
L50.7392 29.1758
L51.595 29.1758
L51.595 29.645
L51.9968 29.645
L51.9968 30.1141
L52.4519 30.1141
L52.4519 30.5833
L52.8578 30.5833
L52.8578 31.9908
L53.2985 31.9908
L53.2985 30.5833
L53.7505 30.5833
L53.7505 26.83
L54.1523 26.83
L54.1523 28.2375
L54.5223 28.2375
L54.5223 31.0525
L54.9836 31.0525
L54.9836 31.9908
L55.8466 31.9908
L55.8466 32.9291
L56.7352 32.9291
L56.7352 38.09
L57.178 38.09
L57.178 34.8058
L57.6147 34.8058
L57.6147 36.6825
L58.04 36.6825
L58.04 33.8675
L58.4336 33.8675
L58.4336 31.9908
L58.9092 31.9908
L58.9092 32.46
L59.3161 32.46
L59.3161 29.645
L59.764 29.645
L59.764 28.2375
L60.2099 28.2375
L60.2099 27.7683
L60.6404 27.7683
L60.6404 26.83
L61.0893 26.83
L61.0893 29.1758
L61.5044 29.1758
L61.5044 32.46
L61.9144 32.46
L61.9144 33.3983
L62.3388 33.3983
L62.3388 30.5833
L62.7631 30.5833
L62.7631 28.7066
L63.1926 28.7066
L63.1926 27.2991
L63.6415 27.2991
L63.6415 27.7683
L64.1222 27.7683
L64.1222 25.4225
L64.5578 25.4225
L64.5578 27.2991
L65.0221 27.2991
L65.0221 29.645
L65.4352 29.645
L65.4352 27.7683
L65.9415 27.7683
L65.9415 31.5216
L66.3659 31.5216
L66.3659 30.5833
L66.8271 30.5833
L66.8271 31.0525
L67.2576 31.0525
L67.2576 29.645
L67.6789 29.645
L67.6789 26.83
L68.1688 26.83
L68.1688 25.4225
L68.6505 25.4225
L68.6505 24.4841
L69.0841 24.4841
L69.0841 24.9533
L69.4931 24.9533
L69.4931 26.83
L69.9276 26.83
L69.9276 24.4841
L70.395 24.4841
L70.395 24.9533
L70.8317 24.9533
L70.8317 22.1383
L71.2868 22.1383
L71.2868 19.7924
L72.199 19.7924
L72.199 23.0766
L72.5997 23.0766
L72.5997 24.015
L73.0856 24.015
L73.0856 26.83
L73.5499 26.83
L73.5499 26.3608
L73.9927 26.3608
L73.9927 29.1758
L74.8598 29.1758
L74.8598 30.5833
L75.3149 30.5833
L75.3149 31.9908
L75.7966 31.9908
L75.7966 29.645
L76.2374 29.645
L76.2374 29.1758
L76.7099 29.1758
L76.7099 28.7066
L77.1691 28.7066
L77.1691 32.9291
L77.6272 32.9291
L77.6272 32.46
L78.1428 32.46
L78.1428 30.5833
L78.5671 30.5833
L78.5671 31.5216
L78.9699 31.5216
L78.9699 32.9291
L79.4558 32.9291
L79.4558 34.3366
L79.9303 34.3366
L79.9303 34.8058
L80.3301 34.8058
L80.3301 31.5216
L80.7944 31.5216
L80.7944 29.645
L81.2341 29.645
L81.2341 32.46
L81.6738 32.46
L81.6738 35.7441
L82.134 35.7441
L82.134 38.09
L83.119 38.09
L83.119 36.2133
L84.0128 36.2133
L84.0128 33.3983
L84.9322 33.3983
L84.9322 33.8675
L85.3504 33.8675
L85.3504 36.6825
L85.8772 36.6825
L85.8772 35.275
L86.3446 35.275
L86.3446 34.3366
L86.8048 34.3366
L86.8048 31.9908
L87.2568 31.9908
L87.2568 33.8675
L88.2049 33.8675
L88.2049 34.8058
L88.6652 34.8058
L88.6652 35.7441
L89.109 35.7441
L89.109 32.9291
L89.5969 32.9291
L89.5969 31.0525
L90.5665 31.0525
L90.5665 32.46
L91.0236 32.46
L91.0236 33.3983
L91.5033 33.3983
L91.5033 34.3366
L91.984 34.3366
L91.984 36.6825
L92.4176 36.6825
L92.4176 37.6208
L92.8932 37.6208
L92.8932 38.09
L93.3452 38.09
L93.3452 37.1516
L94.2902 37.1516
L94.2902 35.275
L94.7514 35.275
L94.7514 33.3983
L95.225 33.3983
L95.225 30.1141
L95.6637 30.1141
L95.6637 30.5833
L96.1249 30.5833
L96.1249 28.7066
L96.5984 28.7066
L96.5984 27.7683
L97.073 27.7683
L97.073 28.7066
L97.5424 28.7066
L97.5424 32.46
L98.0447 32.46
L98.0447 29.1758
L98.508 29.1758
L98.508 31.0525
L98.9487 31.0525
L98.9487 28.7066
L99.4099 28.7066
L99.4099 28.2375
L99.8896 28.2375
L99.8896 27.7683
L100.363 27.7683
L100.363 30.1141
L100.833 30.1141
L100.833 27.2991
L101.313 27.2991
L101.313 30.5833
L101.813 30.5833
L101.813 29.645
L102.254 29.645
L102.254 33.8675
L102.702 33.8675
L102.702 36.2133
L103.154 36.2133
L103.154 36.6825
L103.644 36.6825
L103.644 35.7441
L104.138 35.7441
L104.138 37.6208
L104.607 37.6208
L104.607 38.5591
L105.058 38.5591
L105.058 39.9666
L105.5 39.9666
L105.5 37.6208
L106.009 37.6208
L106.009 39.0283
L106.516 39.0283
L106.516 41.8433
L107.017 41.8433
L107.017 44.1891
L107.477 44.1891
L107.477 47.9425
L107.976 47.9425
L107.976 46.535
L108.431 46.535
L108.431 47.9425
L108.944 47.9425
L108.944 49.35
L109.36 49.35
L109.36 47.0041
L109.824 47.0041
L109.824 48.8808
L110.303 48.8808
L110.303 50.7575
L110.744 50.7575
L110.744 51.6958
L111.207 51.6958
L111.207 49.8191
L111.707 49.8191
L111.707 50.2883
L112.186 50.2883
L112.186 53.1033
L112.62 53.1033
L112.62 49.8191
L113.186 49.8191
L113.186 53.5725
L113.631 53.5725
L113.631 52.165
L114.624 52.165
L114.624 49.35
L115.097 49.35
L115.097 47.9425
L115.58 47.9425
L115.58 48.4116
L116.093 48.4116
L116.093 47.4733
L117.017 47.4733
L117.017 45.5966
L118.502 45.5966
L118.502 45.1275
L119.049 45.1275
L119.049 46.0658
L119.543 46.0658
L119.543 47.4733
L120.008 47.4733
L120.008 50.2883
L120.469 50.2883
L120.469 50.7575
L120.97 50.7575
L120.97 47.9425
L121.923 47.9425
L121.923 48.8808
L122.398 48.8808
L122.398 47.9425
L122.936 47.9425
L122.936 49.35
L123.345 49.35
L123.345 46.535
L123.905 46.535
L123.905 49.8191
L124.365 49.8191
L124.365 50.2883
L124.781 50.2883
L124.781 49.35
L125.232 49.35
L125.232 48.4116
L125.814 48.4116
L125.814 46.0658
L126.265 46.0658
L126.265 44.6583
L126.731 44.6583
L126.731 43.72
L128.126 43.72
L128.126 45.5966
L128.64 45.5966
L128.64 42.3125
L129.1 42.3125
L129.1 41.8433
L129.608 41.8433
L129.608 43.2508
L130.07 43.2508
L130.07 41.8433
L131.056 41.8433
L131.056 44.6583
L131.545 44.6583
L131.545 47.9425
L132.025 47.9425
L132.025 50.2883
L132.535 50.2883
L132.535 53.1033
L133.034 53.1033
L133.034 52.165
L133.526 52.165
L133.526 53.1033
L133.996 53.1033
L133.996 53.5725
L134.46 53.5725
L134.46 53.1033
L134.974 53.1033
L134.974 53.5725
L135.445 53.5725
L135.445 54.0417
L136.003 54.0417
L136.003 57.3258
L136.447 57.3258
L136.447 59.6717
L136.957 59.6717
L136.957 62.9558
L137.474 62.9558
L137.474 64.3633
L137.969 64.3633
L137.969 63.8942
L138.436 63.8942
L138.436 65.3017
L139.39 65.3017
L139.39 67.6475
L139.867 67.6475
L139.867 69.5242
L140.327 69.5242
L140.327 69.9933
L140.786 69.9933
L140.786 66.24
L141.256 66.24
L141.256 63.8942
L141.825 63.8942
L141.825 63.425
L142.322 63.425
L142.322 64.8325
L142.785 64.8325
L142.785 62.0175
L143.313 62.0175
L143.313 65.3017
L143.838 65.3017
L143.838 62.0175
L144.309 62.0175
L144.309 64.3633
L144.828 64.3633
L144.828 64.8325
L145.299 64.8325
L145.299 59.6717
L145.764 59.6717
L145.764 56.8567
L146.252 56.8567
L146.252 58.7333
L146.721 58.7333
L146.721 59.2025
L147.2 59.2025
L147.2 61.0792
L147.719 61.0792
L147.719 60.61
L148.209 60.61
L148.209 60.1408
L148.701 60.1408
L148.701 65.7708
L149.213 65.7708
L149.213 67.6475
L149.733 67.6475
L149.733 64.8325
L150.18 64.8325
L150.18 64.3633
L150.604 64.3633
L150.604 60.61
L151.588 60.61
L151.588 61.5483
L152.11 61.5483
L152.11 60.1408
L152.686 60.1408
L152.686 58.2642
L153.149 58.2642
L153.149 55.4492
L153.678 55.4492
L153.678 55.9183
L154.207 55.9183
L154.207 54.98
L154.734 54.98
L154.734 56.3875
L155.197 56.3875
L155.197 56.8567
L155.712 56.8567
L155.712 54.98
L156.2 54.98
L156.2 53.1033
L156.67 53.1033
L156.67 52.165
L157.147 52.165
L157.147 49.8191
L157.676 49.8191
L157.676 47.4733
L158.132 47.4733
L158.132 45.5966
L158.636 45.5966
L158.636 47.9425
L159.14 47.9425
L159.14 47.0041
L159.635 47.0041
L159.635 46.535
L160.083 46.535
L160.083 47.9425
L160.57 47.9425
L160.57 50.7575
L161.095 50.7575
L161.095 54.98
L161.59 54.98
L161.59 58.2642
L162.063 58.2642
L162.063 62.0175
L162.623 62.0175
L162.623 63.425
L163.082 63.425
L163.082 64.3633
L163.555 64.3633
L163.555 66.24
L164.035 66.24
L164.035 62.9558
L164.603 62.9558
L164.603 65.7708
L165.117 65.7708
L165.117 59.6717
L165.584 59.6717
L165.584 60.1408
L166.098 60.1408
L166.098 59.2025
L166.64 59.2025
L166.64 60.1408
L167.152 60.1408
L167.152 59.6717
L167.663 59.6717
L167.663 64.8325
L168.638 64.8325
L168.638 65.3017
L169.12 65.3017
L169.12 63.425
L169.644 63.425
L169.644 62.4867
L170.025 62.4867
L170.025 60.61
L170.563 60.61
L170.563 60.1408
L171.057 60.1408
L171.057 57.3258
L171.523 57.3258
L171.523 58.7333
L172.057 58.7333
L172.057 59.6717
L172.533 59.6717
L172.533 63.8942
L173.102 63.8942
L173.102 65.7708
L173.597 65.7708
L173.597 65.3017
L174.072 65.3017
L174.072 63.8942
L174.558 63.8942
L174.558 65.7708
L175.081 65.7708
L175.081 64.8325
L175.581 64.8325
L175.581 64.3633
L176.1 64.3633
L176.1 63.8942
L176.606 63.8942
L176.606 60.1408
L177.084 60.1408
L177.084 62.4867
L177.565 62.4867
L177.565 64.8325
L178.099 64.8325
L178.099 60.61
L178.589 60.61
L178.589 62.0175
L179.077 62.0175
L179.077 59.2025
L179.597 59.2025
L179.597 62.9558
L180.148 62.9558
L180.148 62.0175
L180.713 62.0175
L180.713 62.9558
L181.162 62.9558
L181.162 62.4867
L181.667 62.4867
L181.667 63.8942
L182.143 63.8942
L182.143 64.3633
L183.228 64.3633
L183.228 64.8325
L183.745 64.8325
L183.745 67.1783
L184.284 67.1783
L184.284 62.0175
L184.772 62.0175
L184.772 64.3633
L185.273 64.3633
L185.273 66.7092
L185.812 66.7092
L185.812 65.3017
L186.335 65.3017
L186.335 66.7092
L186.838 66.7092
L186.838 67.1783
L187.318 67.1783
L187.318 69.5242
L187.862 69.5242
L187.862 68.5858
L188.318 68.5858
L188.318 69.055
L188.795 69.055
L188.795 67.6475
L189.262 67.6475
L189.262 70.4625
L189.771 70.4625
L189.771 69.9933
L190.23 69.9933
L190.23 70.4625
L190.812 70.4625
L190.812 69.055
L191.301 69.055
L191.301 68.5858
L191.838 68.5858
L191.838 67.1783
L192.354 67.1783
L192.354 68.1167
L192.849 68.1167
L192.849 68.5858
L193.349 68.5858
L193.349 70.9317
L193.816 70.9317
L193.816 68.5858
L194.375 68.5858
L194.375 69.055
L194.852 69.055
L194.852 67.1783
L195.338 67.1783
L195.338 64.3633
L195.821 64.3633
L195.821 61.5483
L196.291 61.5483
L196.291 62.9558
L196.759 62.9558
L196.759 67.1783
L198.274 67.1783
L198.274 68.1167
L198.833 68.1167
L198.833 72.3392
L199.289 72.3392
L199.289 69.9933
L199.756 69.9933
L199.756 67.6475
L200.295 67.6475
L200.295 66.7092
L200.755 66.7092
L200.755 62.9558
L201.794 62.9558
L201.794 63.425
L202.283 63.425
L202.283 62.4867
L202.785 62.4867
L202.785 65.3017
L203.324 65.3017
L203.324 67.1783
L203.803 67.1783
L203.803 69.055
L204.316 69.055
L204.316 67.6475
L204.842 67.6475
L204.842 70.4625
L205.344 70.4625
L205.344 68.1167
L205.839 68.1167
L205.839 69.055
L206.325 69.055
L206.325 66.7092
L207.428 66.7092
L207.428 69.5242
L208.424 69.5242
L208.424 69.055
L208.935 69.055
L208.935 69.9933
L209.451 69.9933
L209.451 66.24
L209.955 66.24
L209.955 67.6475
L210.427 67.6475
L210.427 63.8942
L210.97 63.8942
L210.97 67.1783
L211.462 67.1783
L211.462 68.5858
L211.986 68.5858
L211.986 70.4625
L212.495 70.4625
L212.495 69.5242
L212.997 69.5242
L212.997 69.055
L213.454 69.055
L213.454 67.1783
L213.997 67.1783
L213.997 68.5858
L214.46 68.5858
L214.46 67.6475
L214.952 67.6475
L214.952 64.8325
L215.519 64.8325
L215.519 63.8942
L216.044 63.8942
L216.044 61.5483
L216.561 61.5483
L216.561 62.4867
L217.022 62.4867
L217.022 62.0175
L217.661 62.0175
L217.661 64.8325
L218.163 64.8325
L218.163 67.1783
L218.698 67.1783
L218.698 72.3392
L219.672 72.3392
L219.672 71.4008
L220.158 71.4008
L220.158 72.8083
L220.677 72.8083
L220.677 70.9317
L221.164 70.9317
L221.164 68.1167
L221.69 68.1167
L221.69 67.1783
L222.307 67.1783
L222.307 69.5242
L222.833 69.5242
L222.833 69.055
L223.394 69.055
L223.394 67.6475
L223.885 67.6475
L223.885 63.8942
L224.432 63.8942
L224.432 65.7708
L224.919 65.7708
L224.919 65.3017
L225.385 65.3017
L225.385 68.1167
L226.416 68.1167
L226.416 70.4625
L226.957 70.4625
L226.957 71.4008
L227.442 71.4008
L227.442 75.6233
L227.987 75.6233
L227.987 75.1542
L228.512 75.1542
L228.512 73.2775
L229.05 73.2775
L229.05 72.3392
L229.545 72.3392
L229.545 69.5242
L230.056 69.5242
L230.056 72.3392
L230.56 72.3392
L230.56 75.1542
L231.071 75.1542
L231.071 74.685
L231.647 74.685
L231.647 73.7467
L232.159 73.7467
L232.159 77.0308
L232.661 77.0308
L232.661 75.1542
L233.135 75.1542
L233.135 70.4625
L233.654 70.4625
L233.654 72.3392
L234.112 72.3392
L234.112 71.87
L235.086 71.87
L235.086 72.3392
L235.631 72.3392
L235.631 69.9933
L236.175 69.9933
L236.175 69.5242
L236.702 69.5242
L236.702 69.055
L237.19 69.055
L237.19 65.3017
L237.691 65.3017
L237.691 66.24
L238.258 66.24
L238.258 64.8325
L238.807 64.8325
L238.807 65.7708
L239.324 65.7708
L239.324 66.7092
L239.872 66.7092
L239.872 65.7708
L240.429 65.7708
L240.429 65.3017
L240.948 65.3017
L240.948 67.6475
L241.502 67.6475
L241.502 68.5858
L241.981 68.5858
L241.981 67.1783
L242.516 67.1783
L242.516 66.24
L243.004 66.24
L243.004 69.9933
L243.504 69.9933
L243.504 72.3392
L243.983 72.3392
L243.983 72.8083
L245.108 72.8083
L245.108 73.2775
L245.553 73.2775
L245.553 76.0925
L246.642 76.0925
L246.642 77.0308
L247.626 77.0308
L247.626 76.5617
L248.15 76.5617
L248.15 78.9075
L248.672 78.9075
L248.672 77.9692
L249.689 77.9692
L249.689 78.4383
L250.175 78.4383
L250.175 80.315
L250.707 80.315
L250.707 81.2534
L251.277 81.2534
L251.277 84.0684
L251.793 84.0684
L251.793 82.1917
L252.337 82.1917
L252.337 81.7225
L252.859 81.7225
L252.859 82.6609
L253.373 82.6609
L253.373 85.0067
L253.828 85.0067
L253.828 83.13
L254.312 83.13
L254.312 85.0067
L254.787 85.0067
L254.787 85.945
L255.313 85.945
L255.313 84.0684
L255.788 84.0684
L255.788 84.5375
L256.274 84.5375
L256.274 82.1917
L256.823 82.1917
L256.823 80.315
L257.411 80.315
L257.411 82.1917
L257.959 82.1917
L257.959 81.7225
L258.44 81.7225
L258.44 82.6609
L258.955 82.6609
L258.955 85.0067
L259.923 85.0067
L259.923 86.8834
L260.9 86.8834
L260.9 85.4759
L261.492 85.4759
L261.492 86.8834
L262.061 86.8834
L262.061 83.13
L262.657 83.13
L262.657 83.5992
L263.151 83.5992
L263.151 85.0067
L263.613 85.0067
L263.613 83.5992
L264.129 83.5992
L264.129 83.13
L264.661 83.13
L264.661 79.8458
L265.248 79.8458
L265.248 80.315
L265.802 80.315
L265.802 84.5375
L266.282 84.5375
L266.282 83.13
L266.813 83.13
L266.813 82.1917
L267.313 82.1917
L267.313 86.4142
L267.917 86.4142
L267.917 85.0067
L268.446 85.0067
L268.446 85.945
L268.988 85.945
L268.988 82.6609
L269.563 82.6609
L269.563 83.5992
L270.135 83.5992
L270.135 84.0684
L270.606 84.0684
L270.606 83.5992
L271.069 83.5992
L271.069 80.7842
L271.601 80.7842
L271.601 83.13
L272.195 83.13
L272.195 80.7842
L272.648 80.7842
L272.648 81.7225
L273.16 81.7225
L273.16 83.5992
L273.693 83.5992
L273.693 84.0684
L274.154 84.0684
L274.154 82.1917
L274.662 82.1917
L274.662 84.0684
L275.223 84.0684
L275.223 85.0067
L275.7 85.0067
L275.7 85.4759
L276.221 85.4759
L276.221 84.5375
L276.672 84.5375
L276.672 85.0067
L277.204 85.0067
L277.204 85.945
L277.782 85.945
L277.782 84.5375
L278.238 84.5375
L278.238 83.5992
L278.772 83.5992
L278.772 81.7225
L279.298 81.7225
L279.298 83.13
L279.82 83.13
L279.82 80.315
L280.344 80.315
L280.344 78.9075
L280.848 78.9075
L280.848 76.0925
L281.484 76.0925
L281.484 78.9075
L282.04 78.9075
L282.04 82.1917
L283.013 82.1917
L283.013 81.7225
L283.547 81.7225
L283.547 83.5992
L284.048 83.5992
L284.048 86.8834
L285.125 86.8834
L285.125 88.2909
L285.632 88.2909
L285.632 84.5375
L286.638 84.5375
L286.638 79.8458
L287.14 79.8458
L287.14 78.4383
L287.693 78.4383
L287.693 76.0925
L288.227 76.0925
L288.227 74.2158
L288.725 74.2158
L288.725 72.8083
L289.212 72.8083
L289.212 74.685
L289.707 74.685
L289.707 75.6233
L290.316 75.6233
L290.316 72.8083
L290.885 72.8083
L290.885 69.5242
L291.385 69.5242
L291.385 73.7467
L291.865 73.7467
L291.865 70.4625
L292.41 70.4625
L292.41 69.5242
L292.953 69.5242
L292.953 70.4625
L293.501 70.4625
L293.501 69.5242
L294.008 69.5242
L294.008 67.6475
L294.534 67.6475
L294.534 68.1167
L295.054 68.1167
L295.054 68.5858
L295.611 68.5858
L295.611 72.8083
L296.128 72.8083
L296.128 72.3392
L296.607 72.3392
L296.607 70.9317
L297.232 70.9317
L297.232 71.4008
L297.687 71.4008
L297.687 68.5858
L298.172 68.5858
L298.172 66.24
L298.688 66.24
L298.688 66.7092
L299.206 66.7092
L299.206 66.24
L299.752 66.24
L299.752 71.87
L300.22 71.87
L300.22 71.4008
L300.731 71.4008
L300.731 71.87
L301.317 71.87
L301.317 69.9933
L301.819 69.9933
L301.819 70.4625
L302.336 70.4625
L302.336 67.6475
L302.803 67.6475
L302.803 69.055
L303.357 69.055
L303.357 68.1167
L303.909 68.1167
L303.909 67.6475
L304.45 67.6475
L304.45 70.4625
L304.945 70.4625
L304.945 68.5858
L305.521 68.5858
L305.521 69.9933
L306.013 69.9933
L306.013 68.5858
L306.555 68.5858
L306.555 67.1783
L307.127 67.1783
L307.127 66.7092
L307.661 66.7092
L307.661 65.7708
L308.117 65.7708
L308.117 69.055
L308.706 69.055
L308.706 73.7467
L309.229 73.7467
L309.229 73.2775
L309.785 73.2775
L309.785 77.0308
L310.32 77.0308
L310.32 76.5617
L310.819 76.5617
L310.819 75.6233
L311.36 75.6233
L311.36 70.9317
L311.922 70.9317
L311.922 67.6475
L313.03 67.6475
L313.03 65.7708
L313.534 65.7708
L313.534 67.1783
L314.059 67.1783
L314.059 66.24
L315.102 66.24
L315.102 64.8325
L315.615 64.8325
L315.615 69.055
L316.181 69.055
L316.181 67.6475
L316.685 67.6475
L316.685 70.4625
L317.209 70.4625
L317.209 66.24
L317.823 66.24
L317.823 64.8325
L318.278 64.8325
L318.278 63.425
L318.856 63.425
L318.856 63.8942
L319.405 63.8942
L319.405 68.5858
L320.375 68.5858
L320.375 72.3392
L320.994 72.3392
L320.994 70.4625
L321.485 70.4625
L321.485 70.9317
L322.021 70.9317
L322.021 73.7467
L322.559 73.7467
L322.559 72.8083
L323.125 72.8083
L323.125 70.9317
L323.699 70.9317
L323.699 69.5242
L324.235 69.5242
L324.235 73.2775
L324.743 73.2775
L324.743 71.4008
L325.203 71.4008
L325.203 69.9933
L325.761 69.9933
L325.761 70.4625
L326.234 70.4625
L326.234 70.9317
L326.787 70.9317
L326.787 75.6233
L327.319 75.6233
L327.319 77.5
L327.861 77.5
L327.861 74.2158
L328.322 74.2158
L328.322 75.1542
L328.897 75.1542
L328.897 74.2158
L329.398 74.2158
L329.398 75.1542
L329.929 75.1542
L329.929 77.5
L330.481 77.5
L330.481 75.6233
L330.982 75.6233
L330.982 75.1542
L331.528 75.1542
L331.528 77.9692
L332.048 77.9692
L332.048 78.9075
L332.578 78.9075
L332.578 79.3767
L333.093 79.3767
L333.093 80.7842
L334.063 80.7842
L334.063 79.3767
L334.585 79.3767
L334.585 78.4383
L335.175 78.4383
L335.175 77.0308
L335.754 77.0308
L335.754 81.7225
L336.317 81.7225
L336.317 79.3767
L336.795 79.3767
L336.795 78.9075
L337.343 78.9075
L337.343 79.3767
L337.808 79.3767
L337.808 80.7842
L338.346 80.7842
L338.346 78.9075
L338.905 78.9075
L338.905 80.315
L339.443 80.315
L339.443 80.7842
L339.996 80.7842
L339.996 83.5992
L340.519 83.5992
L340.519 85.0067
L341.057 85.0067
L341.057 88.76
L341.565 88.76
L341.565 85.0067
L342.119 85.0067
L342.119 84.5375
L343.125 84.5375
L343.125 85.945
L343.714 85.945
L343.714 88.76
L344.241 88.76
L344.241 86.8834
L344.759 86.8834
L344.759 86.4142
L345.231 86.4142
L345.231 84.5375
L345.791 84.5375
L345.791 83.13
L346.358 83.13
L346.358 84.0684
L346.86 84.0684
L346.86 85.4759
L347.937 85.4759
L347.937 85.945
L348.471 85.945
L348.471 86.8834
L348.941 86.8834
L348.941 89.2292
L349.416 89.2292
L349.416 90.6367
L350 90.6367
L350 90.1675
L350.577 90.1675
L350.577 87.8217
L351.067 87.8217
L351.067 86.8834
L351.632 86.8834
L351.632 86.4142
L352.201 86.4142
L352.201 89.6984
L352.697 89.6984
L352.697 93.9209
L353.865 93.9209
L353.865 91.575
L354.388 91.575
L354.388 86.4142
L354.971 86.4142
L354.971 83.13
L355.515 83.13
L355.515 81.7225
L356.073 81.7225
L356.073 76.5617
L356.584 76.5617
L356.584 75.6233
L357.66 75.6233
L357.66 76.5617
L358.139 76.5617
L358.139 77.5
L358.671 77.5
L358.671 78.4383
L359.197 78.4383
L359.197 79.8458
L359.75 79.8458
L359.75 78.4383
L360.393 78.4383
L360.393 75.6233
L360.904 75.6233
L360.904 77.9692
L362.047 77.9692
L362.047 82.1917
L362.625 82.1917
L362.625 82.6609
L363.118 82.6609
L363.118 84.5375
L363.627 84.5375
L363.627 85.0067
L364.178 85.0067
L364.178 88.76
L364.676 88.76
L364.676 92.5134
L365.201 92.5134
L365.201 92.0442
L365.724 92.0442
L365.724 93.4517
L366.305 93.4517
L366.305 92.5134
L366.838 92.5134
L366.838 93.9209
L367.351 93.9209
L367.351 92.5134
L367.896 92.5134
L367.896 93.4517
L368.972 93.4517
L368.972 91.1059
L369.507 91.1059
L369.507 88.76
L370.084 88.76
L370.084 87.8217
L370.599 87.8217
L370.599 86.4142
L371.111 86.4142
L371.111 88.76
L371.598 88.76
L371.598 88.2909
L372.188 88.2909
L372.188 91.1059
L372.73 91.1059
L372.73 90.1675
L373.249 90.1675
L373.249 91.575
L373.725 91.575
L373.725 92.5134
L374.294 92.5134
L374.294 90.6367
L374.842 90.6367
L374.842 92.0442
L375.435 92.0442
L375.435 92.9825
L375.971 92.9825
L375.971 95.3284
L376.486 95.3284
L376.486 96.2667
L377.049 96.2667
L377.049 95.7975
L377.556 95.7975
L377.556 93.9209
L378.052 93.9209
L378.052 100.02
L378.608 100.02
L378.608 101.428
L379.147 101.428
L379.147 98.1434
L379.691 98.1434
L379.691 99.5509
L380.316 99.5509
L380.316 99.0817
L381.791 99.0817
L381.791 98.6125
L382.333 98.6125
L382.333 96.7359
L383.969 96.7359
L383.969 100.958
L384.491 100.958
L384.491 98.1434
L385.023 98.1434
L385.023 101.428
L385.543 101.428
L385.543 102.835
L386.071 102.835
L386.071 103.304
L386.631 103.304
L386.631 99.5509
L387.239 99.5509
L387.239 100.958
L387.711 100.958
L387.711 98.1434
L388.777 98.1434
L388.777 95.7975
L389.288 95.7975
L389.288 93.4517
L389.854 93.4517
L389.854 94.39
L390.348 94.39
L390.348 90.1675
L390.973 90.1675
L390.973 89.2292
L392.086 89.2292
L392.086 85.0067
L392.63 85.0067
L392.63 85.4759
L393.134 85.4759
L393.134 84.5375
L393.652 84.5375
L393.652 85.0067
L394.115 85.0067
L394.115 84.0684
L394.675 84.0684
L394.675 83.5992
L395.213 83.5992
L395.213 84.5375
L395.7 84.5375
L395.7 87.3525
L396.275 87.3525
L396.275 86.8834
L396.803 86.8834
L396.803 85.945
L397.301 85.945
L397.301 89.2292
L397.851 89.2292
L397.851 89.6984
L398.349 89.6984
L398.349 91.1059
L398.974 91.1059
L398.974 90.6367
L399.499 90.6367
L399.499 93.9209
L400.034 93.9209
L400.034 94.39
L400.61 94.39
L400.61 93.4517
L401.219 93.4517
L401.219 94.8592
L401.759 94.8592
L401.759 96.7359
L402.266 96.7359
L402.266 92.0442
L402.789 92.0442
L402.789 94.8592
L403.322 94.8592
L403.322 95.3284
L403.786 95.3284
L403.786 96.2667
L404.334 96.2667
L404.334 95.7975
L404.887 95.7975
L404.887 97.205
L405.422 97.205
L405.422 99.0817
L406.514 99.0817
L406.514 99.5509
L407.086 99.5509
L407.086 100.489
L407.617 100.489
L407.617 98.1434
L408.121 98.1434
L408.121 101.428
L408.66 101.428
L408.66 97.205
L409.692 97.205
L409.692 96.7359
L410.29 96.7359
L410.29 99.0817
L410.813 99.0817
L410.813 95.7975
L411.387 95.7975
L411.387 97.205
L411.864 97.205
L411.864 95.7975
L412.444 95.7975
L412.444 94.39
L412.993 94.39
L412.993 94.8592
L413.555 94.8592
L413.555 97.6742
L414.16 97.6742
L414.16 99.0817
L414.748 99.0817
L414.748 101.897
L415.314 101.897
L415.314 98.6125
L415.876 98.6125
L415.876 98.1434
L416.436 98.1434
L416.436 96.7359
L416.968 96.7359
L416.968 95.7975
L417.521 95.7975
L417.521 95.3284
L418.551 95.3284
L418.551 96.7359
L419.121 96.7359
L419.121 95.7975
L419.621 95.7975
L419.621 98.6125
L420.132 98.6125
L420.132 96.7359
L420.782 96.7359
L420.782 100.02
L421.328 100.02
L421.328 103.304
L421.836 103.304
L421.836 100.958
L422.353 100.958
L422.353 100.02
L422.873 100.02
L422.873 98.1434
L423.388 98.1434
L423.388 99.0817
L423.969 99.0817
L423.969 97.6742
L424.455 97.6742
L424.455 100.489
L424.962 100.489
L424.962 100.02
L425.491 100.02
L425.491 102.366
L426.046 102.366
L426.046 104.712
L426.552 104.712
L426.552 106.588
L427.122 106.588
L427.122 107.527
L427.65 107.527
L427.65 105.181
L428.168 105.181
L428.168 103.304
L428.721 103.304
L428.721 103.773
L429.815 103.773
L429.815 101.428
L430.4 101.428
L430.4 98.6125
L430.965 98.6125
L430.965 96.2667
L431.498 96.2667
L431.498 97.205
L431.989 97.205
L431.989 95.3284
L432.573 95.3284
L432.573 93.9209
L433.111 93.9209
L433.111 94.39
L433.581 94.39
L433.581 95.3284
L434.184 95.3284
L434.184 96.7359
L434.711 96.7359
L434.711 97.205
L435.221 97.205
L435.221 95.3284
L435.778 95.3284
L435.778 100.02
L436.344 100.02
L436.344 101.428
L436.851 101.428
L436.851 103.304
L437.413 103.304
L437.413 105.65
L437.961 105.65
L437.961 106.588
L438.523 106.588
L438.523 105.65
L438.985 105.65
L438.985 107.527
L439.548 107.527
L439.548 105.65
L440.055 105.65
L440.055 105.181
L440.615 105.181
L440.615 105.65
L441.127 105.65
L441.127 105.181
L441.672 105.181
L441.672 106.119
L442.234 106.119
L442.234 108.465
L442.792 108.465
L442.792 111.749
L443.249 111.749
L443.249 109.873
L443.839 109.873
L443.839 112.218
L444.452 112.218
L444.452 112.688
L444.99 112.688
L444.99 111.28
L445.463 111.28
L445.463 113.157
L445.996 113.157
L445.996 115.033
L446.586 115.033
L446.586 114.564
L447.186 114.564
L447.186 115.503
L447.727 115.503
L447.727 116.441
L448.213 116.441
L448.213 114.564
L448.766 114.564
L448.766 114.095
L449.32 114.095
L449.32 114.564
L449.907 114.564
L449.907 113.626
L450.433 113.626
L450.433 111.749
L450.998 111.749
L450.998 111.28
L451.518 111.28
L451.518 109.873
L452.083 109.873
L452.083 113.626
L452.677 113.626
L452.677 114.564
L453.156 114.564
L453.156 117.848
L453.704 117.848
L453.704 118.787
L454.206 118.787
L454.206 120.194
L454.747 120.194
L454.747 121.602
L455.266 121.602
L455.266 120.663
L455.755 120.663
L455.755 123.009
L456.288 123.009
L456.288 120.194
L456.844 120.194
L456.844 117.848
L457.435 117.848
L457.435 112.688
L457.981 112.688
L457.981 109.873
L458.529 109.873
L458.529 111.28
L459.027 111.28
L459.027 112.218
L459.521 112.218
L459.521 109.873
L460.09 109.873
L460.09 112.688
L461.251 112.688
L461.251 111.749
L461.791 111.749
L461.791 110.342
L462.95 110.342
L462.95 109.873
L463.498 109.873
L463.498 109.403
L464.029 109.403
L464.029 108.934
L464.527 108.934
L464.527 107.527
L465.097 107.527
L465.097 110.342
L465.608 110.342
L465.608 111.28
L466.235 111.28
L466.235 108.934
L466.798 108.934
L466.798 105.181
L467.314 105.181
L467.314 103.304
L467.839 103.304
L467.839 106.119
L468.403 106.119
L468.403 106.588
L468.975 106.588
L468.975 104.243
L470.091 104.243
L470.091 107.996
L471.229 107.996
L471.229 106.119
L471.723 106.119
L471.723 104.243
L472.839 104.243
L472.839 100.958
L473.389 100.958
L473.389 101.897
L473.921 101.897
L473.921 100.489
L474.454 100.489
L474.454 102.835
L474.925 102.835
L474.925 101.428
L475.549 101.428
L475.549 98.6125
L476.064 98.6125
L476.064 99.5509
L476.556 99.5509
L476.556 99.0817
L477.135 99.0817
L477.135 96.2667
L477.643 96.2667
L477.643 94.39
L478.159 94.39
L478.159 95.7975
L478.687 95.7975
L478.687 97.6742
L479.236 97.6742
L479.236 99.5509
L479.819 99.5509
L479.819 98.1434
L480.412 98.1434
L480.412 99.0817
L481.489 99.0817
L481.489 96.7359
L481.997 96.7359
L481.997 97.6742
L482.611 97.6742
L482.611 99.0817
L483.636 99.0817
L483.636 98.1434
L484.149 98.1434
L484.149 99.5509
L484.712 99.5509
L484.712 100.489
L485.274 100.489
L485.274 102.835
L485.819 102.835
L485.819 104.712
L486.403 104.712
L486.403 103.773
L486.907 103.773
L486.907 104.243
L487.455 104.243
L487.455 102.366
L487.995 102.366
L487.995 100.02
L488.522 100.02
L488.522 98.1434
L489.143 98.1434
L489.143 97.205
L490.192 97.205
L490.192 97.6742
L490.751 97.6742
L490.751 95.7975
L491.274 95.7975
L491.274 94.8592
L491.815 94.8592
L491.815 95.3284
L492.415 95.3284
L492.415 99.5509
L492.946 99.5509
L492.946 101.897
L493.493 101.897
L493.493 102.835
L494.103 102.835
L494.103 100.489
L494.632 100.489
L494.632 99.0817
L495.216 99.0817
L495.216 97.6742
L495.794 97.6742
L495.794 93.9209
L496.371 93.9209
L496.371 92.9825
L497.414 92.9825
L497.414 88.76
L497.909 88.76
L497.909 90.1675
L498.422 90.1675
L498.422 91.575
L498.905 91.575
L498.905 88.76
L499.469 88.76
L499.469 90.1675
L500.015 90.1675
L500.015 85.945
L500.569 85.945
L500.569 85.0067
L501.277 85.0067
L501.277 87.3525
L501.78 87.3525
L501.78 89.2292
L502.343 89.2292
L502.343 90.1675
L502.887 90.1675
L502.887 88.76
L503.394 88.76
L503.394 89.2292
L503.933 89.2292
L503.933 88.2909
L504.505 88.2909
L504.505 87.3525
L505.071 87.3525
L505.071 87.8217
L505.582 87.8217
L505.582 86.4142
L506.131 86.4142
L506.131 85.4759
L506.654 85.4759
L506.654 85.0067
L507.134 85.0067
L507.134 85.4759
L507.684 85.4759
L507.684 84.0684
L508.262 84.0684
L508.262 83.5992
L508.856 83.5992
L508.856 85.4759
L509.39 85.4759
L509.39 87.3525
L509.959 87.3525
L509.959 86.4142
L510.511 86.4142
L510.511 86.8834
L511.06 86.8834
L511.06 88.2909
L511.63 88.2909
L511.63 89.6984
L512.133 89.6984
L512.133 91.1059
L512.714 91.1059
L512.714 92.9825
L513.29 92.9825
L513.29 94.39
L513.844 94.39
L513.844 97.6742
L514.413 97.6742
L514.413 97.205
L514.956 97.205
L514.956 94.8592
L515.469 94.8592
L515.469 91.575
L516.018 91.575
L516.018 92.5134
L516.544 92.5134
L516.544 92.9825
L517.703 92.9825
L517.703 93.4517
L518.28 93.4517
L518.28 92.0442
L518.828 92.0442
L518.828 92.5134
L519.433 92.5134
L519.433 88.2909
L519.957 88.2909
L519.957 85.4759
L520.473 85.4759
L520.473 86.4142
L521.05 86.4142
L521.05 86.8834
L521.638 86.8834
L521.638 84.0684
L522.186 84.0684
L522.186 86.4142
L522.721 86.4142
L522.721 87.3525
L523.354 87.3525
L523.354 92.0442
L523.92 92.0442
L523.92 91.575
L524.461 91.575
L524.461 93.4517
L525.565 93.4517
L525.565 92.9825
L526.073 92.9825
L526.073 94.39
L526.625 94.39
L526.625 93.9209
L527.164 93.9209
L527.164 87.8217
L527.69 87.8217
L527.69 86.4142
L528.271 86.4142
L528.271 85.4759
L529.397 85.4759
L529.397 85.945
L529.956 85.945
L529.956 85.0067
L530.444 85.0067
L530.444 88.2909
L530.961 88.2909
L530.961 87.8217
L532.118 87.8217
L532.118 89.2292
L532.612 89.2292
L532.612 89.6984
L533.179 89.6984
L533.179 88.2909
L533.824 88.2909
L533.824 87.8217
L534.952 87.8217
L534.952 86.4142
L535.53 86.4142
L535.53 85.0067
L536.079 85.0067
L536.079 83.13
L536.653 83.13
L536.653 83.5992
L537.79 83.5992
L537.79 87.8217
L538.331 87.8217
L538.331 88.76
L538.87 88.76
L538.87 87.3525
L539.454 87.3525
L539.454 88.2909
L540.057 88.2909
L540.057 86.4142
L540.596 86.4142
L540.596 87.3525
L541.114 87.3525
L541.114 85.945
L541.703 85.945
L541.703 87.3525
L542.28 87.3525
L542.28 88.2909
L542.839 88.2909
L542.839 87.8217
L543.363 87.8217
L543.363 88.2909
L543.874 88.2909
L543.874 87.8217
L544.423 87.8217
L544.423 89.2292
L544.993 89.2292
L544.993 88.76
L544.993 88.76" style="fill:none;stroke:#0000ff;"/>
   </g>
   <g id="matplotlib.axis_1">
    <g id="xtick_1">
     <g id="line2d_2">
      <defs>
       <path d="
M0 0
L0 -4" id="mb98c1d77ad"/>
      </defs>
      <g>
       <use style="stroke:#000000;stroke-linecap:butt;stroke-width:0.5;" x="32.7421875" xlink:href="#mb98c1d77ad" y="9.23618563255"/>
      </g>
     </g>
    </g>
    <g id="xtick_2">
     <g id="line2d_3">
      <defs>
       <path d="
M0 0
L0 -4" id="mb98c1d77ad"/>
      </defs>
      <g>
       <use style="stroke:#000000;stroke-linecap:butt;stroke-width:0.5;" x="135.239351264" xlink:href="#mb98c1d77ad" y="9.23618563255"/>
      </g>
     </g>
     <g id="text_1">
      <!-- 2e5 -->
      <defs>
       <path d="
M19.1875 8.29688
L53.6094 8.29688
L53.6094 0
L7.32812 0
L7.32812 8.29688
Q12.9375 14.1094 22.625 23.8906
Q32.3281 33.6875 34.8125 36.5312
Q39.5469 41.8438 41.4219 45.5312
Q43.3125 49.2188 43.3125 52.7812
Q43.3125 58.5938 39.2344 62.25
Q35.1562 65.9219 28.6094 65.9219
Q23.9688 65.9219 18.8125 64.3125
Q13.6719 62.7031 7.8125 59.4219
L7.8125 69.3906
Q13.7656 71.7812 18.9375 73
Q24.125 74.2188 28.4219 74.2188
Q39.75 74.2188 46.4844 68.5469
Q53.2188 62.8906 53.2188 53.4219
Q53.2188 48.9219 51.5312 44.8906
Q49.8594 40.875 45.4062 35.4062
Q44.1875 33.9844 37.6406 27.2188
Q31.1094 20.4531 19.1875 8.29688" id="BitstreamVeraSans-Roman-32"/>
       <path d="
M56.2031 29.5938
L56.2031 25.2031
L14.8906 25.2031
Q15.4844 15.9219 20.4844 11.0625
Q25.4844 6.20312 34.4219 6.20312
Q39.5938 6.20312 44.4531 7.46875
Q49.3125 8.73438 54.1094 11.2812
L54.1094 2.78125
Q49.2656 0.734375 44.1875 -0.34375
Q39.1094 -1.42188 33.8906 -1.42188
Q20.7969 -1.42188 13.1562 6.1875
Q5.51562 13.8125 5.51562 26.8125
Q5.51562 40.2344 12.7656 48.1094
Q20.0156 56 32.3281 56
Q43.3594 56 49.7812 48.8906
Q56.2031 41.7969 56.2031 29.5938
M47.2188 32.2344
Q47.125 39.5938 43.0938 43.9844
Q39.0625 48.3906 32.4219 48.3906
Q24.9062 48.3906 20.3906 44.1406
Q15.875 39.8906 15.1875 32.1719
z
" id="BitstreamVeraSans-Roman-65"/>
       <path d="
M10.7969 72.9062
L49.5156 72.9062
L49.5156 64.5938
L19.8281 64.5938
L19.8281 46.7344
Q21.9688 47.4688 24.1094 47.8281
Q26.2656 48.1875 28.4219 48.1875
Q40.625 48.1875 47.75 41.5
Q54.8906 34.8125 54.8906 23.3906
Q54.8906 11.625 47.5625 5.09375
Q40.2344 -1.42188 26.9062 -1.42188
Q22.3125 -1.42188 17.5469 -0.640625
Q12.7969 0.140625 7.71875 1.70312
L7.71875 11.625
Q12.1094 9.23438 16.7969 8.0625
Q21.4844 6.89062 26.7031 6.89062
Q35.1562 6.89062 40.0781 11.3281
Q45.0156 15.7656 45.0156 23.3906
Q45.0156 31 40.0781 35.4375
Q35.1562 39.8906 26.7031 39.8906
Q22.75 39.8906 18.8125 39.0156
Q14.8906 38.1406 10.7969 36.2812
z
" id="BitstreamVeraSans-Roman-35"/>
      </defs>
      <g transform="translate(126.603413764 20.6580606325)scale(0.1 -0.1)">
       <use xlink:href="#BitstreamVeraSans-Roman-32"/>
       <use x="63.623046875" xlink:href="#BitstreamVeraSans-Roman-65"/>
       <use x="125.146484375" xlink:href="#BitstreamVeraSans-Roman-35"/>
      </g>
     </g>
    </g>
    <g id="xtick_3">
     <g id="line2d_4">
      <defs>
       <path d="
M0 0
L0 -4" id="mb98c1d77ad"/>
      </defs>
      <g>
       <use style="stroke:#000000;stroke-linecap:butt;stroke-width:0.5;" x="237.736515028" xlink:href="#mb98c1d77ad" y="9.23618563255"/>
      </g>
     </g>
     <g id="text_2">
      <!-- 4e5 -->
      <defs>
       <path d="
M37.7969 64.3125
L12.8906 25.3906
L37.7969 25.3906
z

M35.2031 72.9062
L47.6094 72.9062
L47.6094 25.3906
L58.0156 25.3906
L58.0156 17.1875
L47.6094 17.1875
L47.6094 0
L37.7969 0
L37.7969 17.1875
L4.89062 17.1875
L4.89062 26.7031
z
" id="BitstreamVeraSans-Roman-34"/>
      </defs>
      <g transform="translate(228.978702528 20.5268106325)scale(0.1 -0.1)">
       <use xlink:href="#BitstreamVeraSans-Roman-34"/>
       <use x="63.623046875" xlink:href="#BitstreamVeraSans-Roman-65"/>
       <use x="125.146484375" xlink:href="#BitstreamVeraSans-Roman-35"/>
      </g>
     </g>
    </g>
    <g id="xtick_4">
     <g id="line2d_5">
      <defs>
       <path d="
M0 0
L0 -4" id="mb98c1d77ad"/>
      </defs>
      <g>
       <use style="stroke:#000000;stroke-linecap:butt;stroke-width:0.5;" x="340.233678792" xlink:href="#mb98c1d77ad" y="9.23618563255"/>
      </g>
     </g>
     <g id="text_3">
      <!-- 6e5 -->
      <defs>
       <path d="
M33.0156 40.375
Q26.375 40.375 22.4844 35.8281
Q18.6094 31.2969 18.6094 23.3906
Q18.6094 15.5312 22.4844 10.9531
Q26.375 6.39062 33.0156 6.39062
Q39.6562 6.39062 43.5312 10.9531
Q47.4062 15.5312 47.4062 23.3906
Q47.4062 31.2969 43.5312 35.8281
Q39.6562 40.375 33.0156 40.375
M52.5938 71.2969
L52.5938 62.3125
Q48.875 64.0625 45.0938 64.9844
Q41.3125 65.9219 37.5938 65.9219
Q27.8281 65.9219 22.6719 59.3281
Q17.5312 52.7344 16.7969 39.4062
Q19.6719 43.6562 24.0156 45.9219
Q28.375 48.1875 33.5938 48.1875
Q44.5781 48.1875 50.9531 41.5156
Q57.3281 34.8594 57.3281 23.3906
Q57.3281 12.1562 50.6875 5.35938
Q44.0469 -1.42188 33.0156 -1.42188
Q20.3594 -1.42188 13.6719 8.26562
Q6.98438 17.9688 6.98438 36.375
Q6.98438 53.6562 15.1875 63.9375
Q23.3906 74.2188 37.2031 74.2188
Q40.9219 74.2188 44.7031 73.4844
Q48.4844 72.75 52.5938 71.2969" id="BitstreamVeraSans-Roman-36"/>
      </defs>
      <g transform="translate(331.580553792 20.6580606325)scale(0.1 -0.1)">
       <use xlink:href="#BitstreamVeraSans-Roman-36"/>
       <use x="63.623046875" xlink:href="#BitstreamVeraSans-Roman-65"/>
       <use x="125.146484375" xlink:href="#BitstreamVeraSans-Roman-35"/>
      </g>
     </g>
    </g>
    <g id="xtick_5">
     <g id="line2d_6">
      <defs>
       <path d="
M0 0
L0 -4" id="mb98c1d77ad"/>
      </defs>
      <g>
       <use style="stroke:#000000;stroke-linecap:butt;stroke-width:0.5;" x="442.730842556" xlink:href="#mb98c1d77ad" y="9.23618563255"/>
      </g>
     </g>
     <g id="text_4">
      <!-- 8e5 -->
      <defs>
       <path d="
M31.7812 34.625
Q24.75 34.625 20.7188 30.8594
Q16.7031 27.0938 16.7031 20.5156
Q16.7031 13.9219 20.7188 10.1562
Q24.75 6.39062 31.7812 6.39062
Q38.8125 6.39062 42.8594 10.1719
Q46.9219 13.9688 46.9219 20.5156
Q46.9219 27.0938 42.8906 30.8594
Q38.875 34.625 31.7812 34.625
M21.9219 38.8125
Q15.5781 40.375 12.0312 44.7188
Q8.5 49.0781 8.5 55.3281
Q8.5 64.0625 14.7188 69.1406
Q20.9531 74.2188 31.7812 74.2188
Q42.6719 74.2188 48.875 69.1406
Q55.0781 64.0625 55.0781 55.3281
Q55.0781 49.0781 51.5312 44.7188
Q48 40.375 41.7031 38.8125
Q48.8281 37.1562 52.7969 32.3125
Q56.7812 27.4844 56.7812 20.5156
Q56.7812 9.90625 50.3125 4.23438
Q43.8438 -1.42188 31.7812 -1.42188
Q19.7344 -1.42188 13.25 4.23438
Q6.78125 9.90625 6.78125 20.5156
Q6.78125 27.4844 10.7812 32.3125
Q14.7969 37.1562 21.9219 38.8125
M18.3125 54.3906
Q18.3125 48.7344 21.8438 45.5625
Q25.3906 42.3906 31.7812 42.3906
Q38.1406 42.3906 41.7188 45.5625
Q45.3125 48.7344 45.3125 54.3906
Q45.3125 60.0625 41.7188 63.2344
Q38.1406 66.4062 31.7812 66.4062
Q25.3906 66.4062 21.8438 63.2344
Q18.3125 60.0625 18.3125 54.3906" id="BitstreamVeraSans-Roman-38"/>
      </defs>
      <g transform="translate(434.067561306 20.6580606325)scale(0.1 -0.1)">
       <use xlink:href="#BitstreamVeraSans-Roman-38"/>
       <use x="63.623046875" xlink:href="#BitstreamVeraSans-Roman-65"/>
       <use x="125.146484375" xlink:href="#BitstreamVeraSans-Roman-35"/>
      </g>
     </g>
    </g>
    <g id="xtick_6">
     <g id="line2d_7">
      <defs>
       <path d="
M0 0
L0 -4" id="mb98c1d77ad"/>
      </defs>
      <g>
       <use style="stroke:#000000;stroke-linecap:butt;stroke-width:0.5;" x="545.22800632" xlink:href="#mb98c1d77ad" y="9.23618563255"/>
      </g>
     </g>
     <g id="text_5">
      <!-- 1e6 -->
      <defs>
       <path d="
M12.4062 8.29688
L28.5156 8.29688
L28.5156 63.9219
L10.9844 60.4062
L10.9844 69.3906
L28.4219 72.9062
L38.2812 72.9062
L38.2812 8.29688
L54.3906 8.29688
L54.3906 0
L12.4062 0
z
" id="BitstreamVeraSans-Roman-31"/>
      </defs>
      <g transform="translate(536.65300632 20.6580606325)scale(0.1 -0.1)">
       <use xlink:href="#BitstreamVeraSans-Roman-31"/>
       <use x="63.623046875" xlink:href="#BitstreamVeraSans-Roman-65"/>
       <use x="125.146484375" xlink:href="#BitstreamVeraSans-Roman-36"/>
      </g>
     </g>
    </g>
    <g id="xtick_7">
     <g id="line2d_8">
      <defs>
       <path d="
M0 0
L0 -2" id="m85a2eaf53d"/>
      </defs>
      <g>
       <use style="stroke:#000000;stroke-linecap:butt;stroke-width:0.5;" x="58.366478441" xlink:href="#m85a2eaf53d" y="9.23618563255"/>
      </g>
     </g>
    </g>
    <g id="xtick_8">
     <g id="line2d_9">
      <defs>
       <path d="
M0 0
L0 -2" id="m85a2eaf53d"/>
      </defs>
      <g>
       <use style="stroke:#000000;stroke-linecap:butt;stroke-width:0.5;" x="83.990769382" xlink:href="#m85a2eaf53d" y="9.23618563255"/>
      </g>
     </g>
    </g>
    <g id="xtick_9">
     <g id="line2d_10">
      <defs>
       <path d="
M0 0
L0 -2" id="m85a2eaf53d"/>
      </defs>
      <g>
       <use style="stroke:#000000;stroke-linecap:butt;stroke-width:0.5;" x="109.615060323" xlink:href="#m85a2eaf53d" y="9.23618563255"/>
      </g>
     </g>
    </g>
    <g id="xtick_10">
     <g id="line2d_11">
      <defs>
       <path d="
M0 0
L0 -2" id="m85a2eaf53d"/>
      </defs>
      <g>
       <use style="stroke:#000000;stroke-linecap:butt;stroke-width:0.5;" x="160.863642205" xlink:href="#m85a2eaf53d" y="9.23618563255"/>
      </g>
     </g>
    </g>
    <g id="xtick_11">
     <g id="line2d_12">
      <defs>
       <path d="
M0 0
L0 -2" id="m85a2eaf53d"/>
      </defs>
      <g>
       <use style="stroke:#000000;stroke-linecap:butt;stroke-width:0.5;" x="186.487933146" xlink:href="#m85a2eaf53d" y="9.23618563255"/>
      </g>
     </g>
    </g>
    <g id="xtick_12">
     <g id="line2d_13">
      <defs>
       <path d="
M0 0
L0 -2" id="m85a2eaf53d"/>
      </defs>
      <g>
       <use style="stroke:#000000;stroke-linecap:butt;stroke-width:0.5;" x="212.112224087" xlink:href="#m85a2eaf53d" y="9.23618563255"/>
      </g>
     </g>
    </g>
    <g id="xtick_13">
     <g id="line2d_14">
      <defs>
       <path d="
M0 0
L0 -2" id="m85a2eaf53d"/>
      </defs>
      <g>
       <use style="stroke:#000000;stroke-linecap:butt;stroke-width:0.5;" x="263.360805969" xlink:href="#m85a2eaf53d" y="9.23618563255"/>
      </g>
     </g>
    </g>
    <g id="xtick_14">
     <g id="line2d_15">
      <defs>
       <path d="
M0 0
L0 -2" id="m85a2eaf53d"/>
      </defs>
      <g>
       <use style="stroke:#000000;stroke-linecap:butt;stroke-width:0.5;" x="288.98509691" xlink:href="#m85a2eaf53d" y="9.23618563255"/>
      </g>
     </g>
    </g>
    <g id="xtick_15">
     <g id="line2d_16">
      <defs>
       <path d="
M0 0
L0 -2" id="m85a2eaf53d"/>
      </defs>
      <g>
       <use style="stroke:#000000;stroke-linecap:butt;stroke-width:0.5;" x="314.609387851" xlink:href="#m85a2eaf53d" y="9.23618563255"/>
      </g>
     </g>
    </g>
    <g id="xtick_16">
     <g id="line2d_17">
      <defs>
       <path d="
M0 0
L0 -2" id="m85a2eaf53d"/>
      </defs>
      <g>
       <use style="stroke:#000000;stroke-linecap:butt;stroke-width:0.5;" x="365.857969733" xlink:href="#m85a2eaf53d" y="9.23618563255"/>
      </g>
     </g>
    </g>
    <g id="xtick_17">
     <g id="line2d_18">
      <defs>
       <path d="
M0 0
L0 -2" id="m85a2eaf53d"/>
      </defs>
      <g>
       <use style="stroke:#000000;stroke-linecap:butt;stroke-width:0.5;" x="391.482260674" xlink:href="#m85a2eaf53d" y="9.23618563255"/>
      </g>
     </g>
    </g>
    <g id="xtick_18">
     <g id="line2d_19">
      <defs>
       <path d="
M0 0
L0 -2" id="m85a2eaf53d"/>
      </defs>
      <g>
       <use style="stroke:#000000;stroke-linecap:butt;stroke-width:0.5;" x="417.106551615" xlink:href="#m85a2eaf53d" y="9.23618563255"/>
      </g>
     </g>
    </g>
    <g id="xtick_19">
     <g id="line2d_20">
      <defs>
       <path d="
M0 0
L0 -2" id="m85a2eaf53d"/>
      </defs>
      <g>
       <use style="stroke:#000000;stroke-linecap:butt;stroke-width:0.5;" x="468.355133497" xlink:href="#m85a2eaf53d" y="9.23618563255"/>
      </g>
     </g>
    </g>
    <g id="xtick_20">
     <g id="line2d_21">
      <defs>
       <path d="
M0 0
L0 -2" id="m85a2eaf53d"/>
      </defs>
      <g>
       <use style="stroke:#000000;stroke-linecap:butt;stroke-width:0.5;" x="493.979424438" xlink:href="#m85a2eaf53d" y="9.23618563255"/>
      </g>
     </g>
    </g>
    <g id="xtick_21">
     <g id="line2d_22">
      <defs>
       <path d="
M0 0
L0 -2" id="m85a2eaf53d"/>
      </defs>
      <g>
       <use style="stroke:#000000;stroke-linecap:butt;stroke-width:0.5;" x="519.603715379" xlink:href="#m85a2eaf53d" y="9.23618563255"/>
      </g>
     </g>
    </g>
   </g>
   <g id="matplotlib.axis_2">
    <g id="ytick_1">
     <g id="line2d_23">
      <defs>
       <path d="
M0 0
L4 0" id="me03e4bbd3f"/>
      </defs>
      <g>
       <use style="stroke:#000000;stroke-linecap:butt;stroke-width:0.5;" x="32.7421875" xlink:href="#me03e4bbd3f" y="103.069624921"/>
      </g>
     </g>
     <g id="text_6">
      <!-- -400 -->
      <defs>
       <path d="
M31.7812 66.4062
Q24.1719 66.4062 20.3281 58.9062
Q16.5 51.4219 16.5 36.375
Q16.5 21.3906 20.3281 13.8906
Q24.1719 6.39062 31.7812 6.39062
Q39.4531 6.39062 43.2812 13.8906
Q47.125 21.3906 47.125 36.375
Q47.125 51.4219 43.2812 58.9062
Q39.4531 66.4062 31.7812 66.4062
M31.7812 74.2188
Q44.0469 74.2188 50.5156 64.5156
Q56.9844 54.8281 56.9844 36.375
Q56.9844 17.9688 50.5156 8.26562
Q44.0469 -1.42188 31.7812 -1.42188
Q19.5312 -1.42188 13.0625 8.26562
Q6.59375 17.9688 6.59375 36.375
Q6.59375 54.8281 13.0625 64.5156
Q19.5312 74.2188 31.7812 74.2188" id="BitstreamVeraSans-Roman-30"/>
       <path d="
M4.89062 31.3906
L31.2031 31.3906
L31.2031 23.3906
L4.89062 23.3906
z
" id="BitstreamVeraSans-Roman-2d"/>
      </defs>
      <g transform="translate(7.2 106.709468671)scale(0.1 -0.1)">
       <use xlink:href="#BitstreamVeraSans-Roman-2d"/>
       <use x="36.083984375" xlink:href="#BitstreamVeraSans-Roman-34"/>
       <use x="99.70703125" xlink:href="#BitstreamVeraSans-Roman-30"/>
       <use x="163.330078125" xlink:href="#BitstreamVeraSans-Roman-30"/>
      </g>
     </g>
    </g>
    <g id="ytick_2">
     <g id="line2d_24">
      <defs>
       <path d="
M0 0
L4 0" id="me03e4bbd3f"/>
      </defs>
      <g>
       <use style="stroke:#000000;stroke-linecap:butt;stroke-width:0.5;" x="32.7421875" xlink:href="#me03e4bbd3f" y="79.6112650985"/>
      </g>
     </g>
     <g id="text_7">
      <!-- -300 -->
      <defs>
       <path d="
M40.5781 39.3125
Q47.6562 37.7969 51.625 33
Q55.6094 28.2188 55.6094 21.1875
Q55.6094 10.4062 48.1875 4.48438
Q40.7656 -1.42188 27.0938 -1.42188
Q22.5156 -1.42188 17.6562 -0.515625
Q12.7969 0.390625 7.625 2.20312
L7.625 11.7188
Q11.7188 9.32812 16.5938 8.10938
Q21.4844 6.89062 26.8125 6.89062
Q36.0781 6.89062 40.9375 10.5469
Q45.7969 14.2031 45.7969 21.1875
Q45.7969 27.6406 41.2812 31.2656
Q36.7656 34.9062 28.7188 34.9062
L20.2188 34.9062
L20.2188 43.0156
L29.1094 43.0156
Q36.375 43.0156 40.2344 45.9219
Q44.0938 48.8281 44.0938 54.2969
Q44.0938 59.9062 40.1094 62.9062
Q36.1406 65.9219 28.7188 65.9219
Q24.6562 65.9219 20.0156 65.0312
Q15.375 64.1562 9.8125 62.3125
L9.8125 71.0938
Q15.4375 72.6562 20.3438 73.4375
Q25.25 74.2188 29.5938 74.2188
Q40.8281 74.2188 47.3594 69.1094
Q53.9062 64.0156 53.9062 55.3281
Q53.9062 49.2656 50.4375 45.0938
Q46.9688 40.9219 40.5781 39.3125" id="BitstreamVeraSans-Roman-33"/>
      </defs>
      <g transform="translate(7.2 83.2511088485)scale(0.1 -0.1)">
       <use xlink:href="#BitstreamVeraSans-Roman-2d"/>
       <use x="36.083984375" xlink:href="#BitstreamVeraSans-Roman-33"/>
       <use x="99.70703125" xlink:href="#BitstreamVeraSans-Roman-30"/>
       <use x="163.330078125" xlink:href="#BitstreamVeraSans-Roman-30"/>
      </g>
     </g>
    </g>
    <g id="ytick_3">
     <g id="line2d_25">
      <defs>
       <path d="
M0 0
L4 0" id="me03e4bbd3f"/>
      </defs>
      <g>
       <use style="stroke:#000000;stroke-linecap:butt;stroke-width:0.5;" x="32.7421875" xlink:href="#me03e4bbd3f" y="56.1529052765"/>
      </g>
     </g>
     <g id="text_8">
      <!-- -200 -->
      <g transform="translate(7.2 59.7927490265)scale(0.1 -0.1)">
       <use xlink:href="#BitstreamVeraSans-Roman-2d"/>
       <use x="36.083984375" xlink:href="#BitstreamVeraSans-Roman-32"/>
       <use x="99.70703125" xlink:href="#BitstreamVeraSans-Roman-30"/>
       <use x="163.330078125" xlink:href="#BitstreamVeraSans-Roman-30"/>
      </g>
     </g>
    </g>
    <g id="ytick_4">
     <g id="line2d_26">
      <defs>
       <path d="
M0 0
L4 0" id="me03e4bbd3f"/>
      </defs>
      <g>
       <use style="stroke:#000000;stroke-linecap:butt;stroke-width:0.5;" x="32.7421875" xlink:href="#me03e4bbd3f" y="32.6945454545"/>
      </g>
     </g>
     <g id="text_9">
      <!-- -100 -->
      <g transform="translate(7.2 36.3343892045)scale(0.1 -0.1)">
       <use xlink:href="#BitstreamVeraSans-Roman-2d"/>
       <use x="36.083984375" xlink:href="#BitstreamVeraSans-Roman-31"/>
       <use x="99.70703125" xlink:href="#BitstreamVeraSans-Roman-30"/>
       <use x="163.330078125" xlink:href="#BitstreamVeraSans-Roman-30"/>
      </g>
     </g>
    </g>
    <g id="ytick_5">
     <g id="line2d_27">
      <defs>
       <path d="
M0 0
L4 0" id="me03e4bbd3f"/>
      </defs>
      <g>
       <use style="stroke:#000000;stroke-linecap:butt;stroke-width:0.5;" x="32.7421875" xlink:href="#me03e4bbd3f" y="9.23618563255"/>
      </g>
     </g>
    </g>
    <g id="ytick_6">
     <g id="line2d_28">
      <defs>
       <path d="
M0 0
L2 0" id="m59abd9aada"/>
      </defs>
      <g>
       <use style="stroke:#000000;stroke-linecap:butt;stroke-width:0.5;" x="32.7421875" xlink:href="#m59abd9aada" y="121.836312778"/>
      </g>
     </g>
    </g>
    <g id="ytick_7">
     <g id="line2d_29">
      <defs>
       <path d="
M0 0
L2 0" id="m59abd9aada"/>
      </defs>
      <g>
       <use style="stroke:#000000;stroke-linecap:butt;stroke-width:0.5;" x="32.7421875" xlink:href="#m59abd9aada" y="117.144640814"/>
      </g>
     </g>
    </g>
    <g id="ytick_8">
     <g id="line2d_30">
      <defs>
       <path d="
M0 0
L2 0" id="m59abd9aada"/>
      </defs>
      <g>
       <use style="stroke:#000000;stroke-linecap:butt;stroke-width:0.5;" x="32.7421875" xlink:href="#m59abd9aada" y="112.452968849"/>
      </g>
     </g>
    </g>
    <g id="ytick_9">
     <g id="line2d_31">
      <defs>
       <path d="
M0 0
L2 0" id="m59abd9aada"/>
      </defs>
      <g>
       <use style="stroke:#000000;stroke-linecap:butt;stroke-width:0.5;" x="32.7421875" xlink:href="#m59abd9aada" y="107.761296885"/>
      </g>
     </g>
    </g>
    <g id="ytick_10">
     <g id="line2d_32">
      <defs>
       <path d="
M0 0
L2 0" id="m59abd9aada"/>
      </defs>
      <g>
       <use style="stroke:#000000;stroke-linecap:butt;stroke-width:0.5;" x="32.7421875" xlink:href="#m59abd9aada" y="98.3779529561"/>
      </g>
     </g>
    </g>
    <g id="ytick_11">
     <g id="line2d_33">
      <defs>
       <path d="
M0 0
L2 0" id="m59abd9aada"/>
      </defs>
      <g>
       <use style="stroke:#000000;stroke-linecap:butt;stroke-width:0.5;" x="32.7421875" xlink:href="#m59abd9aada" y="93.6862809917"/>
      </g>
     </g>
    </g>
    <g id="ytick_12">
     <g id="line2d_34">
      <defs>
       <path d="
M0 0
L2 0" id="m59abd9aada"/>
      </defs>
      <g>
       <use style="stroke:#000000;stroke-linecap:butt;stroke-width:0.5;" x="32.7421875" xlink:href="#m59abd9aada" y="88.9946090273"/>
      </g>
     </g>
    </g>
    <g id="ytick_13">
     <g id="line2d_35">
      <defs>
       <path d="
M0 0
L2 0" id="m59abd9aada"/>
      </defs>
      <g>
       <use style="stroke:#000000;stroke-linecap:butt;stroke-width:0.5;" x="32.7421875" xlink:href="#m59abd9aada" y="84.3029370629"/>
      </g>
     </g>
    </g>
    <g id="ytick_14">
     <g id="line2d_36">
      <defs>
       <path d="
M0 0
L2 0" id="m59abd9aada"/>
      </defs>
      <g>
       <use style="stroke:#000000;stroke-linecap:butt;stroke-width:0.5;" x="32.7421875" xlink:href="#m59abd9aada" y="74.9195931341"/>
      </g>
     </g>
    </g>
    <g id="ytick_15">
     <g id="line2d_37">
      <defs>
       <path d="
M0 0
L2 0" id="m59abd9aada"/>
      </defs>
      <g>
       <use style="stroke:#000000;stroke-linecap:butt;stroke-width:0.5;" x="32.7421875" xlink:href="#m59abd9aada" y="70.2279211697"/>
      </g>
     </g>
    </g>
    <g id="ytick_16">
     <g id="line2d_38">
      <defs>
       <path d="
M0 0
L2 0" id="m59abd9aada"/>
      </defs>
      <g>
       <use style="stroke:#000000;stroke-linecap:butt;stroke-width:0.5;" x="32.7421875" xlink:href="#m59abd9aada" y="65.5362492053"/>
      </g>
     </g>
    </g>
    <g id="ytick_17">
     <g id="line2d_39">
      <defs>
       <path d="
M0 0
L2 0" id="m59abd9aada"/>
      </defs>
      <g>
       <use style="stroke:#000000;stroke-linecap:butt;stroke-width:0.5;" x="32.7421875" xlink:href="#m59abd9aada" y="60.8445772409"/>
      </g>
     </g>
    </g>
    <g id="ytick_18">
     <g id="line2d_40">
      <defs>
       <path d="
M0 0
L2 0" id="m59abd9aada"/>
      </defs>
      <g>
       <use style="stroke:#000000;stroke-linecap:butt;stroke-width:0.5;" x="32.7421875" xlink:href="#m59abd9aada" y="51.4612333121"/>
      </g>
     </g>
    </g>
    <g id="ytick_19">
     <g id="line2d_41">
      <defs>
       <path d="
M0 0
L2 0" id="m59abd9aada"/>
      </defs>
      <g>
       <use style="stroke:#000000;stroke-linecap:butt;stroke-width:0.5;" x="32.7421875" xlink:href="#m59abd9aada" y="46.7695613477"/>
      </g>
     </g>
    </g>
    <g id="ytick_20">
     <g id="line2d_42">
      <defs>
       <path d="
M0 0
L2 0" id="m59abd9aada"/>
      </defs>
      <g>
       <use style="stroke:#000000;stroke-linecap:butt;stroke-width:0.5;" x="32.7421875" xlink:href="#m59abd9aada" y="42.0778893833"/>
      </g>
     </g>
    </g>
    <g id="ytick_21">
     <g id="line2d_43">
      <defs>
       <path d="
M0 0
L2 0" id="m59abd9aada"/>
      </defs>
      <g>
       <use style="stroke:#000000;stroke-linecap:butt;stroke-width:0.5;" x="32.7421875" xlink:href="#m59abd9aada" y="37.3862174189"/>
      </g>
     </g>
    </g>
    <g id="ytick_22">
     <g id="line2d_44">
      <defs>
       <path d="
M0 0
L2 0" id="m59abd9aada"/>
      </defs>
      <g>
       <use style="stroke:#000000;stroke-linecap:butt;stroke-width:0.5;" x="32.7421875" xlink:href="#m59abd9aada" y="28.0028734901"/>
      </g>
     </g>
    </g>
    <g id="ytick_23">
     <g id="line2d_45">
      <defs>
       <path d="
M0 0
L2 0" id="m59abd9aada"/>
      </defs>
      <g>
       <use style="stroke:#000000;stroke-linecap:butt;stroke-width:0.5;" x="32.7421875" xlink:href="#m59abd9aada" y="23.3112015257"/>
      </g>
     </g>
    </g>
    <g id="ytick_24">
     <g id="line2d_46">
      <defs>
       <path d="
M0 0
L2 0" id="m59abd9aada"/>
      </defs>
      <g>
       <use style="stroke:#000000;stroke-linecap:butt;stroke-width:0.5;" x="32.7421875" xlink:href="#m59abd9aada" y="18.6195295613"/>
      </g>
     </g>
    </g>
    <g id="ytick_25">
     <g id="line2d_47">
      <defs>
       <path d="
M0 0
L2 0" id="m59abd9aada"/>
      </defs>
      <g>
       <use style="stroke:#000000;stroke-linecap:butt;stroke-width:0.5;" x="32.7421875" xlink:href="#m59abd9aada" y="13.9278575969"/>
      </g>
     </g>
    </g>
   </g>
   <g id="patch_3">
    <path d="
M22.4982 9.23619
L555.238 9.23619" style="fill:none;stroke:#000000;stroke-width:0.8;"/>
   </g>
   <g id="patch_4">
    <path d="
M32.7422 125.28
L32.7422 7.2" style="fill:none;stroke:#000000;stroke-width:0.8;"/>
   </g>
  </g>
 </g>
 <defs>
  <clipPath id="pf42bfd13c1">
   <rect height="118.08" width="532.739545372" x="22.4982212145" y="7.2"/>
  </clipPath>
 </defs>
</svg>
