<?xml version="1.0" encoding="utf-8" standalone="no"?>
<!DOCTYPE svg PUBLIC "-//W3C//DTD SVG 1.1//EN"
  "http://www.w3.org/Graphics/SVG/1.1/DTD/svg11.dtd">
<!-- Created with matplotlib (http://matplotlib.sourceforge.net/) -->
<svg height="132pt" version="1.1" viewBox="0 0 561 132" width="561pt" xmlns="http://www.w3.org/2000/svg" xmlns:xlink="http://www.w3.org/1999/xlink">
 <defs>
  <style type="text/css">
*{stroke-linecap:square;stroke-linejoin:round;}
  </style>
 </defs>
 <g id="figure_1">
  <g id="patch_1">
   <path d="
M0 132.769
L561.254 132.769
L561.254 0
L0 0
z
" style="fill:#ffffff;"/>
  </g>
  <g id="axes_1">
   <g id="patch_2">
    <path d="
M10.7749 124.004
L551.034 124.004
L551.034 8.69342
L10.7749 8.69342
z
" style="fill:#ffffff;"/>
   </g>
   <g id="line2d_1">
    <path clip-path="url(#pe59fe19225)" d="
M21.1645 44.1737
L21.6866 44.1737
L21.6866 55.2612
L22.7308 55.2612
L22.7308 44.1737
L23.7749 44.1737
L23.7749 55.2612
L25.8633 55.2612
L25.8633 44.1737
L26.9075 44.1737
L26.9075 33.0861
L28.9958 33.0861
L28.9958 44.1737
L30.04 44.1737
L30.04 55.2612
L32.1284 55.2612
L32.1284 66.3488
L35.2609 66.3488
L35.2609 77.4364
L36.3051 77.4364
L36.3051 66.3488
L39.4376 66.3488
L39.4376 55.2612
L41.526 55.2612
L41.526 66.3488
L42.5702 66.3488
L42.5702 77.4364
L44.6585 77.4364
L44.6585 66.3488
L47.7911 66.3488
L47.7911 77.4364
L50.9236 77.4364
L50.9236 66.3488
L51.9678 66.3488
L51.9678 55.2612
L55.1003 55.2612
L55.1003 66.3488
L57.1887 66.3488
L57.1887 77.4364
L58.2329 77.4364
L58.2329 66.3488
L61.3654 66.3488
L61.3654 77.4364
L63.4538 77.4364
L63.4538 88.524
L66.5863 88.524
L66.5863 77.4364
L70.763 77.4364
L70.763 88.524
L72.8514 88.524
L72.8514 77.4364
L73.8956 77.4364
L73.8956 88.524
L75.9839 88.524
L75.9839 77.4364
L77.0281 77.4364
L77.0281 66.3488
L79.1165 66.3488
L79.1165 55.2612
L86.4257 55.2612
L86.4257 44.1737
L88.5141 44.1737
L88.5141 55.2612
L91.6466 55.2612
L91.6466 66.3488
L92.6908 66.3488
L92.6908 55.2612
L97.9117 55.2612
L97.9117 66.3488
L98.9559 66.3488
L98.9559 55.2612
L102.088 55.2612
L102.088 66.3488
L105.221 66.3488
L105.221 55.2612
L107.309 55.2612
L107.309 66.3488
L110.442 66.3488
L110.442 77.4364
L113.574 77.4364
L113.574 88.524
L114.619 88.524
L114.619 77.4364
L119.839 77.4364
L119.839 66.3488
L120.884 66.3488
L120.884 55.2612
L122.972 55.2612
L122.972 66.3488
L124.016 66.3488
L124.016 77.4364
L130.281 77.4364
L130.281 66.3488
L136.546 66.3488
L136.546 55.2612
L138.635 55.2612
L138.635 44.1737
L139.679 44.1737
L139.679 33.0861
L141.767 33.0861
L141.767 21.9985
L144.9 21.9985
L144.9 33.0861
L145.944 33.0861
L145.944 44.1737
L151.165 44.1737
L151.165 55.2612
L154.297 55.2612
L154.297 66.3488
L157.43 66.3488
L157.43 55.2612
L160.563 55.2612
L160.563 44.1737
L161.607 44.1737
L161.607 55.2612
L164.739 55.2612
L164.739 66.3488
L166.828 66.3488
L166.828 77.4364
L167.872 77.4364
L167.872 66.3488
L173.093 66.3488
L173.093 55.2612
L180.402 55.2612
L180.402 44.1737
L182.49 44.1737
L182.49 33.0861
L183.534 33.0861
L183.534 44.1737
L185.623 44.1737
L185.623 33.0861
L192.932 33.0861
L192.932 21.9985
L196.065 21.9985
L196.065 33.0861
L201.286 33.0861
L201.286 21.9985
L202.33 21.9985
L202.33 10.9109
L204.418 10.9109
L204.418 21.9985
L207.551 21.9985
L207.551 33.0861
L211.727 33.0861
L211.727 44.1737
L214.86 44.1737
L214.86 55.2612
L217.992 55.2612
L217.992 66.3488
L220.081 66.3488
L220.081 77.4364
L223.213 77.4364
L223.213 88.524
L227.39 88.524
L227.39 99.6115
L229.478 99.6115
L229.478 88.524
L233.655 88.524
L233.655 99.6115
L238.876 99.6115
L238.876 88.524
L239.92 88.524
L239.92 77.4364
L245.141 77.4364
L245.141 88.524
L246.185 88.524
L246.185 99.6115
L249.318 99.6115
L249.318 88.524
L251.406 88.524
L251.406 99.6115
L254.539 99.6115
L254.539 88.524
L258.715 88.524
L258.715 99.6115
L260.804 99.6115
L260.804 88.524
L261.848 88.524
L261.848 99.6115
L263.936 99.6115
L263.936 110.699
L270.201 110.699
L270.201 99.6115
L274.378 99.6115
L274.378 88.524
L276.466 88.524
L276.466 99.6115
L280.643 99.6115
L280.643 88.524
L282.732 88.524
L282.732 99.6115
L285.864 99.6115
L285.864 88.524
L292.129 88.524
L292.129 99.6115
L293.173 99.6115
L293.173 110.699
L302.571 110.699
L302.571 121.787
L305.704 121.787
L305.704 110.699
L310.924 110.699
L310.924 121.787
L314.057 121.787
L314.057 110.699
L317.19 110.699
L317.19 99.6115
L318.234 99.6115
L318.234 110.699
L321.366 110.699
L321.366 99.6115
L326.587 99.6115
L326.587 88.524
L329.72 88.524
L329.72 77.4364
L332.852 77.4364
L332.852 66.3488
L333.896 66.3488
L333.896 55.2612
L337.029 55.2612
L337.029 66.3488
L340.161 66.3488
L340.161 77.4364
L342.25 77.4364
L342.25 66.3488
L343.294 66.3488
L343.294 77.4364
L349.559 77.4364
L349.559 66.3488
L354.78 66.3488
L354.78 77.4364
L355.824 77.4364
L355.824 66.3488
L357.913 66.3488
L357.913 77.4364
L361.045 77.4364
L361.045 88.524
L364.178 88.524
L364.178 77.4364
L365.222 77.4364
L365.222 66.3488
L371.487 66.3488
L371.487 55.2612
L373.575 55.2612
L373.575 66.3488
L376.708 66.3488
L376.708 77.4364
L380.884 77.4364
L380.884 66.3488
L386.105 66.3488
L386.105 55.2612
L390.282 55.2612
L390.282 66.3488
L395.503 66.3488
L395.503 55.2612
L399.68 55.2612
L399.68 44.1737
L402.812 44.1737
L402.812 55.2612
L405.945 55.2612
L405.945 44.1737
L408.033 44.1737
L408.033 33.0861
L412.21 33.0861
L412.21 44.1737
L415.342 44.1737
L415.342 55.2612
L417.431 55.2612
L417.431 44.1737
L421.607 44.1737
L421.607 33.0861
L423.696 33.0861
L423.696 44.1737
L431.005 44.1737
L431.005 55.2612
L436.226 55.2612
L436.226 44.1737
L442.491 44.1737
L442.491 33.0861
L443.535 33.0861
L443.535 44.1737
L448.756 44.1737
L448.756 33.0861
L449.8 33.0861
L449.8 21.9985
L451.889 21.9985
L451.889 33.0861
L452.933 33.0861
L452.933 21.9985
L458.154 21.9985
L458.154 33.0861
L465.463 33.0861
L465.463 21.9985
L467.551 21.9985
L467.551 10.9109
L468.596 10.9109
L468.596 21.9985
L470.684 21.9985
L470.684 10.9109
L477.993 10.9109
L477.993 21.9985
L480.082 21.9985
L480.082 33.0861
L481.126 33.0861
L481.126 21.9985
L483.214 21.9985
L483.214 33.0861
L493.656 33.0861
L493.656 44.1737
L495.744 44.1737
L495.744 33.0861
L499.921 33.0861
L499.921 21.9985
L505.142 21.9985
L505.142 33.0861
L509.319 33.0861
L509.319 21.9985
L511.407 21.9985
L511.407 10.9109
L514.54 10.9109
L514.54 21.9985
L517.672 21.9985
L517.672 10.9109
L524.981 10.9109
L524.981 21.9985
L527.07 21.9985
L527.07 10.9109
L530.202 10.9109
L530.202 21.9985
L533.335 21.9985
L533.335 10.9109
L537.511 10.9109
L537.511 21.9985
L540.644 21.9985
L540.644 10.9109
L540.644 10.9109" style="fill:none;stroke:#0000ff;"/>
   </g>
   <g id="matplotlib.axis_1">
    <g id="xtick_1">
     <g id="line2d_2">
      <defs>
       <path d="
M0 0
L0 -4" id="mb98c1d77ad"/>
      </defs>
      <g>
       <use style="stroke:#000000;stroke-linecap:butt;stroke-width:0.5;" x="20.1203125" xlink:href="#mb98c1d77ad" y="33.086085429"/>
      </g>
     </g>
    </g>
    <g id="xtick_2">
     <g id="line2d_3">
      <defs>
       <path d="
M0 0
L0 -4" id="mb98c1d77ad"/>
      </defs>
      <g>
       <use style="stroke:#000000;stroke-linecap:butt;stroke-width:0.5;" x="124.538306022" xlink:href="#mb98c1d77ad" y="33.086085429"/>
      </g>
     </g>
     <g id="text_1">
      <!-- 200 -->
      <defs>
       <path d="
M19.1875 8.29688
L53.6094 8.29688
L53.6094 0
L7.32812 0
L7.32812 8.29688
Q12.9375 14.1094 22.625 23.8906
Q32.3281 33.6875 34.8125 36.5312
Q39.5469 41.8438 41.4219 45.5312
Q43.3125 49.2188 43.3125 52.7812
Q43.3125 58.5938 39.2344 62.25
Q35.1562 65.9219 28.6094 65.9219
Q23.9688 65.9219 18.8125 64.3125
Q13.6719 62.7031 7.8125 59.4219
L7.8125 69.3906
Q13.7656 71.7812 18.9375 73
Q24.125 74.2188 28.4219 74.2188
Q39.75 74.2188 46.4844 68.5469
Q53.2188 62.8906 53.2188 53.4219
Q53.2188 48.9219 51.5312 44.8906
Q49.8594 40.875 45.4062 35.4062
Q44.1875 33.9844 37.6406 27.2188
Q31.1094 20.4531 19.1875 8.29688" id="BitstreamVeraSans-Roman-32"/>
       <path d="
M31.7812 66.4062
Q24.1719 66.4062 20.3281 58.9062
Q16.5 51.4219 16.5 36.375
Q16.5 21.3906 20.3281 13.8906
Q24.1719 6.39062 31.7812 6.39062
Q39.4531 6.39062 43.2812 13.8906
Q47.125 21.3906 47.125 36.375
Q47.125 51.4219 43.2812 58.9062
Q39.4531 66.4062 31.7812 66.4062
M31.7812 74.2188
Q44.0469 74.2188 50.5156 64.5156
Q56.9844 54.8281 56.9844 36.375
Q56.9844 17.9688 50.5156 8.26562
Q44.0469 -1.42188 31.7812 -1.42188
Q19.5312 -1.42188 13.0625 8.26562
Q6.59375 17.9688 6.59375 36.375
Q6.59375 54.8281 13.0625 64.5156
Q19.5312 74.2188 31.7812 74.2188" id="BitstreamVeraSans-Roman-30"/>
      </defs>
      <g transform="translate(115.692993522 44.507960429)scale(0.1 -0.1)">
       <use xlink:href="#BitstreamVeraSans-Roman-32"/>
       <use x="63.623046875" xlink:href="#BitstreamVeraSans-Roman-30"/>
       <use x="127.24609375" xlink:href="#BitstreamVeraSans-Roman-30"/>
      </g>
     </g>
    </g>
    <g id="xtick_3">
     <g id="line2d_4">
      <defs>
       <path d="
M0 0
L0 -4" id="mb98c1d77ad"/>
      </defs>
      <g>
       <use style="stroke:#000000;stroke-linecap:butt;stroke-width:0.5;" x="228.956299543" xlink:href="#mb98c1d77ad" y="33.086085429"/>
      </g>
     </g>
     <g id="text_2">
      <!-- 400 -->
      <defs>
       <path d="
M37.7969 64.3125
L12.8906 25.3906
L37.7969 25.3906
z

M35.2031 72.9062
L47.6094 72.9062
L47.6094 25.3906
L58.0156 25.3906
L58.0156 17.1875
L47.6094 17.1875
L47.6094 0
L37.7969 0
L37.7969 17.1875
L4.89062 17.1875
L4.89062 26.7031
z
" id="BitstreamVeraSans-Roman-34"/>
      </defs>
      <g transform="translate(219.989112043 44.507960429)scale(0.1 -0.1)">
       <use xlink:href="#BitstreamVeraSans-Roman-34"/>
       <use x="63.623046875" xlink:href="#BitstreamVeraSans-Roman-30"/>
       <use x="127.24609375" xlink:href="#BitstreamVeraSans-Roman-30"/>
      </g>
     </g>
    </g>
    <g id="xtick_4">
     <g id="line2d_5">
      <defs>
       <path d="
M0 0
L0 -4" id="mb98c1d77ad"/>
      </defs>
      <g>
       <use style="stroke:#000000;stroke-linecap:butt;stroke-width:0.5;" x="333.374293065" xlink:href="#mb98c1d77ad" y="33.086085429"/>
      </g>
     </g>
     <g id="text_3">
      <!-- 600 -->
      <defs>
       <path d="
M33.0156 40.375
Q26.375 40.375 22.4844 35.8281
Q18.6094 31.2969 18.6094 23.3906
Q18.6094 15.5312 22.4844 10.9531
Q26.375 6.39062 33.0156 6.39062
Q39.6562 6.39062 43.5312 10.9531
Q47.4062 15.5312 47.4062 23.3906
Q47.4062 31.2969 43.5312 35.8281
Q39.6562 40.375 33.0156 40.375
M52.5938 71.2969
L52.5938 62.3125
Q48.875 64.0625 45.0938 64.9844
Q41.3125 65.9219 37.5938 65.9219
Q27.8281 65.9219 22.6719 59.3281
Q17.5312 52.7344 16.7969 39.4062
Q19.6719 43.6562 24.0156 45.9219
Q28.375 48.1875 33.5938 48.1875
Q44.5781 48.1875 50.9531 41.5156
Q57.3281 34.8594 57.3281 23.3906
Q57.3281 12.1562 50.6875 5.35938
Q44.0469 -1.42188 33.0156 -1.42188
Q20.3594 -1.42188 13.6719 8.26562
Q6.98438 17.9688 6.98438 36.375
Q6.98438 53.6562 15.1875 63.9375
Q23.3906 74.2188 37.2031 74.2188
Q40.9219 74.2188 44.7031 73.4844
Q48.4844 72.75 52.5938 71.2969" id="BitstreamVeraSans-Roman-36"/>
      </defs>
      <g transform="translate(324.511793065 44.507960429)scale(0.1 -0.1)">
       <use xlink:href="#BitstreamVeraSans-Roman-36"/>
       <use x="63.623046875" xlink:href="#BitstreamVeraSans-Roman-30"/>
       <use x="127.24609375" xlink:href="#BitstreamVeraSans-Roman-30"/>
      </g>
     </g>
    </g>
    <g id="xtick_5">
     <g id="line2d_6">
      <defs>
       <path d="
M0 0
L0 -4" id="mb98c1d77ad"/>
      </defs>
      <g>
       <use style="stroke:#000000;stroke-linecap:butt;stroke-width:0.5;" x="437.792286586" xlink:href="#mb98c1d77ad" y="33.086085429"/>
      </g>
     </g>
     <g id="text_4">
      <!-- 800 -->
      <defs>
       <path d="
M31.7812 34.625
Q24.75 34.625 20.7188 30.8594
Q16.7031 27.0938 16.7031 20.5156
Q16.7031 13.9219 20.7188 10.1562
Q24.75 6.39062 31.7812 6.39062
Q38.8125 6.39062 42.8594 10.1719
Q46.9219 13.9688 46.9219 20.5156
Q46.9219 27.0938 42.8906 30.8594
Q38.875 34.625 31.7812 34.625
M21.9219 38.8125
Q15.5781 40.375 12.0312 44.7188
Q8.5 49.0781 8.5 55.3281
Q8.5 64.0625 14.7188 69.1406
Q20.9531 74.2188 31.7812 74.2188
Q42.6719 74.2188 48.875 69.1406
Q55.0781 64.0625 55.0781 55.3281
Q55.0781 49.0781 51.5312 44.7188
Q48 40.375 41.7031 38.8125
Q48.8281 37.1562 52.7969 32.3125
Q56.7812 27.4844 56.7812 20.5156
Q56.7812 9.90625 50.3125 4.23438
Q43.8438 -1.42188 31.7812 -1.42188
Q19.7344 -1.42188 13.25 4.23438
Q6.78125 9.90625 6.78125 20.5156
Q6.78125 27.4844 10.7812 32.3125
Q14.7969 37.1562 21.9219 38.8125
M18.3125 54.3906
Q18.3125 48.7344 21.8438 45.5625
Q25.3906 42.3906 31.7812 42.3906
Q38.1406 42.3906 41.7188 45.5625
Q45.3125 48.7344 45.3125 54.3906
Q45.3125 60.0625 41.7188 63.2344
Q38.1406 66.4062 31.7812 66.4062
Q25.3906 66.4062 21.8438 63.2344
Q18.3125 60.0625 18.3125 54.3906" id="BitstreamVeraSans-Roman-38"/>
      </defs>
      <g transform="translate(428.919630336 44.507960429)scale(0.1 -0.1)">
       <use xlink:href="#BitstreamVeraSans-Roman-38"/>
       <use x="63.623046875" xlink:href="#BitstreamVeraSans-Roman-30"/>
       <use x="127.24609375" xlink:href="#BitstreamVeraSans-Roman-30"/>
      </g>
     </g>
    </g>
    <g id="xtick_6">
     <g id="line2d_7">
      <defs>
       <path d="
M0 0
L0 -4" id="mb98c1d77ad"/>
      </defs>
      <g>
       <use style="stroke:#000000;stroke-linecap:butt;stroke-width:0.5;" x="542.210280108" xlink:href="#mb98c1d77ad" y="33.086085429"/>
      </g>
     </g>
     <g id="text_5">
      <!-- 1000 -->
      <defs>
       <path d="
M12.4062 8.29688
L28.5156 8.29688
L28.5156 63.9219
L10.9844 60.4062
L10.9844 69.3906
L28.4219 72.9062
L38.2812 72.9062
L38.2812 8.29688
L54.3906 8.29688
L54.3906 0
L12.4062 0
z
" id="BitstreamVeraSans-Roman-31"/>
      </defs>
      <g transform="translate(530.366530108 44.507960429)scale(0.1 -0.1)">
       <use xlink:href="#BitstreamVeraSans-Roman-31"/>
       <use x="63.623046875" xlink:href="#BitstreamVeraSans-Roman-30"/>
       <use x="127.24609375" xlink:href="#BitstreamVeraSans-Roman-30"/>
       <use x="190.869140625" xlink:href="#BitstreamVeraSans-Roman-30"/>
      </g>
     </g>
    </g>
    <g id="xtick_7">
     <g id="line2d_8">
      <defs>
       <path d="
M0 0
L0 -2" id="m85a2eaf53d"/>
      </defs>
      <g>
       <use style="stroke:#000000;stroke-linecap:butt;stroke-width:0.5;" x="46.2248108804" xlink:href="#m85a2eaf53d" y="33.086085429"/>
      </g>
     </g>
    </g>
    <g id="xtick_8">
     <g id="line2d_9">
      <defs>
       <path d="
M0 0
L0 -2" id="m85a2eaf53d"/>
      </defs>
      <g>
       <use style="stroke:#000000;stroke-linecap:butt;stroke-width:0.5;" x="72.3293092608" xlink:href="#m85a2eaf53d" y="33.086085429"/>
      </g>
     </g>
    </g>
    <g id="xtick_9">
     <g id="line2d_10">
      <defs>
       <path d="
M0 0
L0 -2" id="m85a2eaf53d"/>
      </defs>
      <g>
       <use style="stroke:#000000;stroke-linecap:butt;stroke-width:0.5;" x="98.4338076411" xlink:href="#m85a2eaf53d" y="33.086085429"/>
      </g>
     </g>
    </g>
    <g id="xtick_10">
     <g id="line2d_11">
      <defs>
       <path d="
M0 0
L0 -2" id="m85a2eaf53d"/>
      </defs>
      <g>
       <use style="stroke:#000000;stroke-linecap:butt;stroke-width:0.5;" x="150.642804402" xlink:href="#m85a2eaf53d" y="33.086085429"/>
      </g>
     </g>
    </g>
    <g id="xtick_11">
     <g id="line2d_12">
      <defs>
       <path d="
M0 0
L0 -2" id="m85a2eaf53d"/>
      </defs>
      <g>
       <use style="stroke:#000000;stroke-linecap:butt;stroke-width:0.5;" x="176.747302782" xlink:href="#m85a2eaf53d" y="33.086085429"/>
      </g>
     </g>
    </g>
    <g id="xtick_12">
     <g id="line2d_13">
      <defs>
       <path d="
M0 0
L0 -2" id="m85a2eaf53d"/>
      </defs>
      <g>
       <use style="stroke:#000000;stroke-linecap:butt;stroke-width:0.5;" x="202.851801163" xlink:href="#m85a2eaf53d" y="33.086085429"/>
      </g>
     </g>
    </g>
    <g id="xtick_13">
     <g id="line2d_14">
      <defs>
       <path d="
M0 0
L0 -2" id="m85a2eaf53d"/>
      </defs>
      <g>
       <use style="stroke:#000000;stroke-linecap:butt;stroke-width:0.5;" x="255.060797923" xlink:href="#m85a2eaf53d" y="33.086085429"/>
      </g>
     </g>
    </g>
    <g id="xtick_14">
     <g id="line2d_15">
      <defs>
       <path d="
M0 0
L0 -2" id="m85a2eaf53d"/>
      </defs>
      <g>
       <use style="stroke:#000000;stroke-linecap:butt;stroke-width:0.5;" x="281.165296304" xlink:href="#m85a2eaf53d" y="33.086085429"/>
      </g>
     </g>
    </g>
    <g id="xtick_15">
     <g id="line2d_16">
      <defs>
       <path d="
M0 0
L0 -2" id="m85a2eaf53d"/>
      </defs>
      <g>
       <use style="stroke:#000000;stroke-linecap:butt;stroke-width:0.5;" x="307.269794684" xlink:href="#m85a2eaf53d" y="33.086085429"/>
      </g>
     </g>
    </g>
    <g id="xtick_16">
     <g id="line2d_17">
      <defs>
       <path d="
M0 0
L0 -2" id="m85a2eaf53d"/>
      </defs>
      <g>
       <use style="stroke:#000000;stroke-linecap:butt;stroke-width:0.5;" x="359.478791445" xlink:href="#m85a2eaf53d" y="33.086085429"/>
      </g>
     </g>
    </g>
    <g id="xtick_17">
     <g id="line2d_18">
      <defs>
       <path d="
M0 0
L0 -2" id="m85a2eaf53d"/>
      </defs>
      <g>
       <use style="stroke:#000000;stroke-linecap:butt;stroke-width:0.5;" x="385.583289825" xlink:href="#m85a2eaf53d" y="33.086085429"/>
      </g>
     </g>
    </g>
    <g id="xtick_18">
     <g id="line2d_19">
      <defs>
       <path d="
M0 0
L0 -2" id="m85a2eaf53d"/>
      </defs>
      <g>
       <use style="stroke:#000000;stroke-linecap:butt;stroke-width:0.5;" x="411.687788206" xlink:href="#m85a2eaf53d" y="33.086085429"/>
      </g>
     </g>
    </g>
    <g id="xtick_19">
     <g id="line2d_20">
      <defs>
       <path d="
M0 0
L0 -2" id="m85a2eaf53d"/>
      </defs>
      <g>
       <use style="stroke:#000000;stroke-linecap:butt;stroke-width:0.5;" x="463.896784966" xlink:href="#m85a2eaf53d" y="33.086085429"/>
      </g>
     </g>
    </g>
    <g id="xtick_20">
     <g id="line2d_21">
      <defs>
       <path d="
M0 0
L0 -2" id="m85a2eaf53d"/>
      </defs>
      <g>
       <use style="stroke:#000000;stroke-linecap:butt;stroke-width:0.5;" x="490.001283347" xlink:href="#m85a2eaf53d" y="33.086085429"/>
      </g>
     </g>
    </g>
    <g id="xtick_21">
     <g id="line2d_22">
      <defs>
       <path d="
M0 0
L0 -2" id="m85a2eaf53d"/>
      </defs>
      <g>
       <use style="stroke:#000000;stroke-linecap:butt;stroke-width:0.5;" x="516.105781727" xlink:href="#m85a2eaf53d" y="33.086085429"/>
      </g>
     </g>
    </g>
   </g>
   <g id="matplotlib.axis_2">
    <g id="ytick_1">
     <g id="line2d_23">
      <defs>
       <path d="
M0 0
L4 0" id="me03e4bbd3f"/>
      </defs>
      <g>
       <use style="stroke:#000000;stroke-linecap:butt;stroke-width:0.5;" x="20.1203125" xlink:href="#me03e4bbd3f" y="121.786677145"/>
      </g>
     </g>
     <g id="text_6">
      <!-- -8 -->
      <defs>
       <path d="
M4.89062 31.3906
L31.2031 31.3906
L31.2031 23.3906
L4.89062 23.3906
z
" id="BitstreamVeraSans-Roman-2d"/>
      </defs>
      <g transform="translate(7.3234375 125.426520895)scale(0.1 -0.1)">
       <use xlink:href="#BitstreamVeraSans-Roman-2d"/>
       <use x="36.083984375" xlink:href="#BitstreamVeraSans-Roman-38"/>
      </g>
     </g>
    </g>
    <g id="ytick_2">
     <g id="line2d_24">
      <defs>
       <path d="
M0 0
L4 0" id="me03e4bbd3f"/>
      </defs>
      <g>
       <use style="stroke:#000000;stroke-linecap:butt;stroke-width:0.5;" x="20.1203125" xlink:href="#me03e4bbd3f" y="99.611529216"/>
      </g>
     </g>
     <g id="text_7">
      <!-- -6 -->
      <g transform="translate(7.26875 103.251372966)scale(0.1 -0.1)">
       <use xlink:href="#BitstreamVeraSans-Roman-2d"/>
       <use x="36.083984375" xlink:href="#BitstreamVeraSans-Roman-36"/>
      </g>
     </g>
    </g>
    <g id="ytick_3">
     <g id="line2d_25">
      <defs>
       <path d="
M0 0
L4 0" id="me03e4bbd3f"/>
      </defs>
      <g>
       <use style="stroke:#000000;stroke-linecap:butt;stroke-width:0.5;" x="20.1203125" xlink:href="#me03e4bbd3f" y="77.436381287"/>
      </g>
     </g>
     <g id="text_8">
      <!-- -4 -->
      <g transform="translate(7.2 81.081693787)scale(0.1 -0.1)">
       <use xlink:href="#BitstreamVeraSans-Roman-2d"/>
       <use x="36.083984375" xlink:href="#BitstreamVeraSans-Roman-34"/>
      </g>
     </g>
    </g>
    <g id="ytick_4">
     <g id="line2d_26">
      <defs>
       <path d="
M0 0
L4 0" id="me03e4bbd3f"/>
      </defs>
      <g>
       <use style="stroke:#000000;stroke-linecap:butt;stroke-width:0.5;" x="20.1203125" xlink:href="#me03e4bbd3f" y="55.261233358"/>
      </g>
     </g>
     <g id="text_9">
      <!-- -2 -->
      <g transform="translate(7.640625 58.972170858)scale(0.1 -0.1)">
       <use xlink:href="#BitstreamVeraSans-Roman-2d"/>
       <use x="36.083984375" xlink:href="#BitstreamVeraSans-Roman-32"/>
      </g>
     </g>
    </g>
    <g id="ytick_5">
     <g id="line2d_27">
      <defs>
       <path d="
M0 0
L4 0" id="me03e4bbd3f"/>
      </defs>
      <g>
       <use style="stroke:#000000;stroke-linecap:butt;stroke-width:0.5;" x="20.1203125" xlink:href="#me03e4bbd3f" y="33.086085429"/>
      </g>
     </g>
    </g>
    <g id="ytick_6">
     <g id="line2d_28">
      <defs>
       <path d="
M0 0
L4 0" id="me03e4bbd3f"/>
      </defs>
      <g>
       <use style="stroke:#000000;stroke-linecap:butt;stroke-width:0.5;" x="20.1203125" xlink:href="#me03e4bbd3f" y="10.9109375"/>
      </g>
     </g>
     <g id="text_10">
      <!-- 2 -->
      <g transform="translate(11.4921875 14.621875)scale(0.1 -0.1)">
       <use xlink:href="#BitstreamVeraSans-Roman-32"/>
      </g>
     </g>
    </g>
    <g id="ytick_7">
     <g id="line2d_29">
      <defs>
       <path d="
M0 0
L2 0" id="m59abd9aada"/>
      </defs>
      <g>
       <use style="stroke:#000000;stroke-linecap:butt;stroke-width:0.5;" x="20.1203125" xlink:href="#m59abd9aada" y="116.242890163"/>
      </g>
     </g>
    </g>
    <g id="ytick_8">
     <g id="line2d_30">
      <defs>
       <path d="
M0 0
L2 0" id="m59abd9aada"/>
      </defs>
      <g>
       <use style="stroke:#000000;stroke-linecap:butt;stroke-width:0.5;" x="20.1203125" xlink:href="#m59abd9aada" y="110.69910318"/>
      </g>
     </g>
    </g>
    <g id="ytick_9">
     <g id="line2d_31">
      <defs>
       <path d="
M0 0
L2 0" id="m59abd9aada"/>
      </defs>
      <g>
       <use style="stroke:#000000;stroke-linecap:butt;stroke-width:0.5;" x="20.1203125" xlink:href="#m59abd9aada" y="105.155316198"/>
      </g>
     </g>
    </g>
    <g id="ytick_10">
     <g id="line2d_32">
      <defs>
       <path d="
M0 0
L2 0" id="m59abd9aada"/>
      </defs>
      <g>
       <use style="stroke:#000000;stroke-linecap:butt;stroke-width:0.5;" x="20.1203125" xlink:href="#m59abd9aada" y="94.0677422337"/>
      </g>
     </g>
    </g>
    <g id="ytick_11">
     <g id="line2d_33">
      <defs>
       <path d="
M0 0
L2 0" id="m59abd9aada"/>
      </defs>
      <g>
       <use style="stroke:#000000;stroke-linecap:butt;stroke-width:0.5;" x="20.1203125" xlink:href="#m59abd9aada" y="88.5239552515"/>
      </g>
     </g>
    </g>
    <g id="ytick_12">
     <g id="line2d_34">
      <defs>
       <path d="
M0 0
L2 0" id="m59abd9aada"/>
      </defs>
      <g>
       <use style="stroke:#000000;stroke-linecap:butt;stroke-width:0.5;" x="20.1203125" xlink:href="#m59abd9aada" y="82.9801682692"/>
      </g>
     </g>
    </g>
    <g id="ytick_13">
     <g id="line2d_35">
      <defs>
       <path d="
M0 0
L2 0" id="m59abd9aada"/>
      </defs>
      <g>
       <use style="stroke:#000000;stroke-linecap:butt;stroke-width:0.5;" x="20.1203125" xlink:href="#m59abd9aada" y="71.8925943047"/>
      </g>
     </g>
    </g>
    <g id="ytick_14">
     <g id="line2d_36">
      <defs>
       <path d="
M0 0
L2 0" id="m59abd9aada"/>
      </defs>
      <g>
       <use style="stroke:#000000;stroke-linecap:butt;stroke-width:0.5;" x="20.1203125" xlink:href="#m59abd9aada" y="66.3488073225"/>
      </g>
     </g>
    </g>
    <g id="ytick_15">
     <g id="line2d_37">
      <defs>
       <path d="
M0 0
L2 0" id="m59abd9aada"/>
      </defs>
      <g>
       <use style="stroke:#000000;stroke-linecap:butt;stroke-width:0.5;" x="20.1203125" xlink:href="#m59abd9aada" y="60.8050203402"/>
      </g>
     </g>
    </g>
    <g id="ytick_16">
     <g id="line2d_38">
      <defs>
       <path d="
M0 0
L2 0" id="m59abd9aada"/>
      </defs>
      <g>
       <use style="stroke:#000000;stroke-linecap:butt;stroke-width:0.5;" x="20.1203125" xlink:href="#m59abd9aada" y="49.7174463757"/>
      </g>
     </g>
    </g>
    <g id="ytick_17">
     <g id="line2d_39">
      <defs>
       <path d="
M0 0
L2 0" id="m59abd9aada"/>
      </defs>
      <g>
       <use style="stroke:#000000;stroke-linecap:butt;stroke-width:0.5;" x="20.1203125" xlink:href="#m59abd9aada" y="44.1736593935"/>
      </g>
     </g>
    </g>
    <g id="ytick_18">
     <g id="line2d_40">
      <defs>
       <path d="
M0 0
L2 0" id="m59abd9aada"/>
      </defs>
      <g>
       <use style="stroke:#000000;stroke-linecap:butt;stroke-width:0.5;" x="20.1203125" xlink:href="#m59abd9aada" y="38.6298724112"/>
      </g>
     </g>
    </g>
    <g id="ytick_19">
     <g id="line2d_41">
      <defs>
       <path d="
M0 0
L2 0" id="m59abd9aada"/>
      </defs>
      <g>
       <use style="stroke:#000000;stroke-linecap:butt;stroke-width:0.5;" x="20.1203125" xlink:href="#m59abd9aada" y="27.5422984467"/>
      </g>
     </g>
    </g>
    <g id="ytick_20">
     <g id="line2d_42">
      <defs>
       <path d="
M0 0
L2 0" id="m59abd9aada"/>
      </defs>
      <g>
       <use style="stroke:#000000;stroke-linecap:butt;stroke-width:0.5;" x="20.1203125" xlink:href="#m59abd9aada" y="21.9985114645"/>
      </g>
     </g>
    </g>
    <g id="ytick_21">
     <g id="line2d_43">
      <defs>
       <path d="
M0 0
L2 0" id="m59abd9aada"/>
      </defs>
      <g>
       <use style="stroke:#000000;stroke-linecap:butt;stroke-width:0.5;" x="20.1203125" xlink:href="#m59abd9aada" y="16.4547244822"/>
      </g>
     </g>
    </g>
   </g>
   <g id="patch_3">
    <path d="
M10.7749 33.0861
L551.034 33.0861" style="fill:none;stroke:#000000;stroke-width:0.8;"/>
   </g>
   <g id="patch_4">
    <path d="
M20.1203 124.004
L20.1203 8.69342" style="fill:none;stroke:#000000;stroke-width:0.8;"/>
   </g>
  </g>
 </g>
 <defs>
  <clipPath id="pe59fe19225">
   <rect height="115.310769231" width="540.25869848" x="10.7749020798" y="8.6934227071"/>
  </clipPath>
 </defs>
</svg>
