<?xml version="1.0" encoding="utf-8" standalone="no"?>
<!DOCTYPE svg PUBLIC "-//W3C//DTD SVG 1.1//EN"
  "http://www.w3.org/Graphics/SVG/1.1/DTD/svg11.dtd">
<!-- Created with matplotlib (http://matplotlib.sourceforge.net/) -->
<svg height="420pt" version="1.1" viewBox="0 0 564 420" width="564pt" xmlns="http://www.w3.org/2000/svg" xmlns:xlink="http://www.w3.org/1999/xlink">
 <defs>
  <style type="text/css">
*{stroke-linecap:square;stroke-linejoin:round;}
  </style>
 </defs>
 <g id="figure_1">
  <g id="patch_1">
   <path d="
M-4.44089e-16 420.48
L564.466 420.48
L564.466 0
L-4.44089e-16 0
z
" style="fill:#ffffff;"/>
  </g>
  <g id="axes_1">
   <g id="patch_2">
    <path d="
M39.2984 413.28
L557.266 413.28
L557.266 7.2
L39.2984 7.2
z
" style="fill:#ffffff;"/>
   </g>
   <g id="line2d_1">
    <path clip-path="url(#pbda54c63f9)" d="
M49.2594 15.0092
L49.8262 18.4904
L50.5476 24.4622
L51.4236 33.7048
L52.5058 47.6289
L53.8456 67.9455
L55.4946 96.5353
L57.5558 136.309
L59.6171 175.774
L60.8538 187.973
L62.3482 205.084
L64.1002 227.859
L66.1615 257.65
L68.6865 297.553
L71.7268 349.281
L72.139 355.107
L72.912 357.451
L73.8396 361.03
L74.9217 366.187
L76.1585 373.262
L77.5498 382.587
L79.1472 394.891
L80.384 405.471
L80.4355 405.397
L81.8784 388.625
L83.2697 375.025
L84.558 364.498
L85.7947 356.113
L86.7223 350.987
L87.6498 348.471
L88.4743 346.845
L89.1958 345.872
L89.8657 345.328
L90.4325 345.129
L90.9993 345.161
L91.5662 345.417
L91.6177 345.451
L91.7208 344.553
L93.3182 325.271
L94.9157 308.644
L95.8948 300.201
L96.8739 297.692
L97.7499 296.015
L98.5228 294.961
L99.2443 294.325
L99.9142 294.024
L100.533 293.986
L101.151 294.172
L101.821 294.619
L102.439 295.251
L102.491 295.099
L104.243 275.259
L105.325 264.987
L106.201 263.688
L106.974 262.905
L107.695 262.471
L108.365 262.318
L109.035 262.398
L109.705 262.706
L110.426 263.283
L111.251 264.248
L112.075 265.478
L112.127 265.335
L113.209 262.669
L114.755 259.587
L115.683 258.118
L115.786 257.902
L117.074 253.337
L117.435 252.321
L118.517 254.58
L119.702 257.586
L121.042 261.627
L121.918 264.837
L123.979 277.042
L124.701 282.219
L125.834 290.734
L127.741 300.867
L128.153 305.701
L130.163 331.32
L130.936 340.177
L133.255 355.072
L133.667 358.502
L134.543 365.677
L137.274 381.013
L138.047 384.189
L138.872 380.548
L140.675 369.188
L142.066 363.276
L143.664 350.099
L145.107 345.205
L145.828 342.799
L147.013 333.846
L147.374 331.447
L149.487 309.902
L150.827 295.003
L152.888 271.779
L154.743 246.344
L156.34 240.232
L156.495 239.496
L157.062 235.843
L157.886 232.332
L158.814 230.653
L159.329 230.325
L159.587 230.614
L159.638 230.548
L160.257 229.948
L160.978 230.197
L161.081 230.416
L161.442 231.833
L162.936 239.983
L163.606 246.936
L165.977 277.368
L167.574 293.315
L168.914 304.298
L169.79 311.09
L170.975 320.629
L171.594 323.622
L172.057 325.484
L172.418 326.114
L173.346 324.333
L174.428 323.411
L174.737 323.662
L174.789 323.594
L175.098 323.202
L175.252 323.031
L176.437 319.423
L177.674 312.941
L178.19 310.654
L179.323 305.49
L179.684 304.867
L179.735 304.918
L179.942 305.17
L180.457 307.773
L181.333 313.326
L182.157 319.047
L182.57 321.802
L184.373 332.707
L185.043 337.625
L185.816 341.091
L186.228 342.171
L186.641 342.76
L187.207 343.704
L187.62 344.001
L187.826 343.89
L187.98 343.815
L189.475 341.214
L189.732 340.866
L189.836 340.525
L191.845 328.949
L192.464 326.433
L193.133 323.589
L193.443 322.744
L194.731 317.133
L195.092 316.743
L195.401 316.058
L196.019 314.691
L196.277 314.151
L196.689 313.199
L197.101 312.311
L197.462 310.831
L199.42 299.657
L199.832 298.203
L200.709 295.919
L200.966 295.741
L201.533 295.495
L201.791 295.111
L202.306 293.663
L203.543 286.006
L204.006 283.638
L204.367 281.934
L205.192 276.881
L205.501 275.812
L206.274 274.407
L206.48 274.08
L207.459 272.274
L207.717 272.135
L208.026 272.609
L208.284 273.574
L208.747 275.222
L209.16 276.559
L209.623 278.333
L210.86 285.187
L212.561 294.94
L213.334 297.48
L214.519 301.018
L214.931 302.009
L215.343 302.661
L215.498 302.714
L215.756 302.29
L216.168 300.754
L216.528 299.638
L216.889 299.827
L217.147 299.632
L218.435 298.352
L218.744 298.502
L218.95 298.459
L219.157 298.252
L219.62 297.322
L219.878 296.614
L220.342 293.865
L221.475 287.251
L222.3 284.042
L222.506 283.799
L222.764 283.69
L223.176 284.46
L223.588 285.393
L223.846 285.601
L224 285.793
L224.722 287.604
L225.083 289.396
L225.959 293.545
L226.68 295.587
L227.195 296.61
L227.917 298.829
L228.278 299.909
L228.484 300.109
L228.741 299.833
L229.05 299.119
L229.927 296.205
L230.184 296.026
L230.339 295.969
L230.596 295.93
L231.009 296.473
L231.782 297.881
L232.091 298.667
L232.761 301.512
L234.049 309.191
L235.75 318.04
L235.956 318.509
L236.368 319.304
L236.935 320.314
L237.553 322.171
L238.687 324.765
L239.305 326.487
L239.563 326.708
L239.82 326.847
L240.181 326.618
L240.49 326.514
L240.748 326.346
L241.006 326.644
L241.315 327.303
L241.676 327.97
L241.83 328.219
L242.036 328.58
L242.088 328.556
L242.397 328.607
L242.809 329.343
L243.221 331.359
L243.737 334.081
L243.994 334.511
L244.664 335.359
L244.716 335.303
L245.54 334.281
L246.262 333.19
L246.468 332.976
L246.726 332.856
L246.932 332.757
L247.447 331.231
L248.168 329.431
L248.375 329.285
L248.787 328.939
L249.302 328.203
L250.178 326.132
L250.693 325.196
L251.209 323.634
L251.518 323.44
L251.776 323.146
L252.136 322.41
L252.703 319.722
L254.198 311.779
L255.434 303.801
L255.743 301.332
L256.259 297.565
L256.671 295.714
L258.062 289.525
L258.835 285.925
L259.557 283.015
L259.711 282.714
L260.072 281.461
L260.381 280.092
L262.546 269.501
L262.803 268.808
L263.061 268.599
L263.628 267.525
L263.937 266.646
L264.658 264.027
L264.916 263.624
L265.38 263.947
L265.637 264.491
L266.153 266.457
L266.977 269.852
L267.286 270.734
L267.853 272.24
L268.626 273.093
L269.76 275.046
L270.172 276.479
L271.1 280.012
L272.182 285.413
L273.109 291.55
L273.573 293.211
L275.634 299.184
L275.892 299.684
L276.562 301.256
L276.82 301.755
L277.489 303.336
L277.747 303.415
L277.953 303.502
L278.829 305.306
L279.19 306.937
L279.86 310.829
L280.581 314.865
L280.994 316.013
L281.767 317.337
L282.385 318.818
L282.746 320.087
L283.776 321.741
L284.24 323.575
L285.013 327.269
L285.631 328.902
L285.941 329.201
L286.404 329.867
L287.383 332.629
L287.693 332.871
L288.414 332.692
L289.187 331.219
L290.166 328.152
L290.939 327.279
L291.815 325.331
L292.073 324.719
L293.206 321.621
L293.361 321.18
L293.722 320.091
L294.031 319.841
L294.546 319.099
L295.01 317.857
L295.319 317.195
L296.814 312.891
L297.123 312.158
L297.947 310.145
L299.132 305.982
L300.472 304.087
L300.73 304.073
L301.091 303.749
L301.554 302.691
L301.915 302.111
L302.224 301.992
L302.946 302.855
L303.255 302.746
L303.513 302.681
L303.925 302.411
L304.234 302.501
L304.646 302.074
L304.955 302.04
L305.419 302.261
L305.831 301.854
L306.811 301.153
L307.429 300.46
L307.635 300.578
L307.841 301.103
L308.253 302.291
L308.408 302.393
L308.563 302.221
L309.181 300.82
L309.851 298.411
L310.16 296.472
L311.551 287.211
L311.964 286.07
L312.17 285.307
L313.406 280.216
L313.973 279.117
L314.849 279.923
L315.21 280.558
L315.932 281.737
L316.189 282.046
L316.498 282.262
L317.065 282.534
L317.684 283.783
L318.096 284.805
L318.405 285.285
L318.663 285.571
L319.539 287.695
L320.157 289.226
L320.621 290.104
L320.93 291.173
L321.239 291.983
L321.651 292.524
L322.424 293.431
L322.94 294.059
L324.537 297.8
L324.898 299.277
L326.753 307.898
L327.526 311.052
L328.144 312.431
L329.175 313.368
L329.381 313.286
L330.566 312.367
L331.03 312.379
L332.009 311.049
L332.061 311.088
L332.679 311.458
L332.988 311.224
L333.761 309.41
L334.122 308.697
L334.534 307.653
L334.998 307.313
L335.153 307.302
L335.359 307.281
L335.719 307.328
L335.925 307.263
L336.132 307.18
L336.801 306.643
L337.008 306.619
L337.523 306.683
L337.729 306.668
L338.708 305.279
L338.966 304.941
L339.172 304.842
L339.378 304.767
L339.584 304.705
L339.893 304.559
L340.306 305.156
L340.615 305.488
L341.182 305.472
L341.388 305.466
L341.594 305.43
L341.903 305.69
L342.109 305.725
L342.315 305.886
L342.779 306.577
L343.14 306.607
L343.604 306.539
L344.067 306.704
L344.531 306.832
L345.046 307.548
L345.304 307.777
L346.026 308.492
L346.18 308.613
L347.984 312.568
L349.117 313.207
L349.736 314.877
L350.818 318.106
L351.539 321.091
L352.261 323.856
L352.879 326.278
L353.343 326.985
L354.477 327.449
L354.786 327.07
L355.25 326.93
L355.456 326.503
L355.919 324.942
L358.702 312.816
L359.887 305.776
L360.712 299.853
L362 291.465
L362.722 288.381
L363.031 287.758
L363.185 287.557
L363.494 287.054
L363.907 286.846
L364.216 286.765
L364.525 286.231
L364.783 285.953
L365.247 285.681
L365.71 285.393
L365.865 285.322
L366.071 285.252
L366.277 285.467
L366.947 286.788
L367.411 287.677
L367.823 288.273
L368.029 288.496
L368.493 289.04
L368.854 288.868
L369.06 288.459
L371.07 283.74
L371.533 283.754
L371.791 283.873
L372.306 283.658
L372.461 283.593
L372.667 283.517
L373.955 283.155
L374.11 283.118
L374.316 283.158
L375.192 282.764
L375.862 282.989
L376.12 283.572
L376.893 286.565
L377.614 289.685
L378.902 294.176
L379.727 296.793
L380.19 297.508
L380.809 298.293
L381.066 298.433
L381.221 298.485
L381.633 298.27
L381.994 298.464
L382.406 298.91
L382.87 299.718
L383.385 301.389
L385.498 309.794
L385.962 311.034
L387.199 315.084
L388.281 317.513
L388.487 317.764
L388.951 318.006
L389.311 318.86
L389.775 319.601
L390.291 320.61
L390.6 321.311
L391.115 321.609
L391.888 321.827
L392.146 321.644
L392.3 321.692
L392.506 322.016
L392.867 322.479
L393.331 322.999
L393.64 323.398
L394.207 323.836
L394.361 323.818
L395.341 322.974
L395.495 323.015
L395.804 322.89
L396.114 323.006
L396.835 323.524
L397.299 322.995
L397.608 322.593
L397.969 322.363
L398.484 321.213
L399.154 320.021
L399.36 319.625
L399.669 318.574
L400.03 317.55
L400.803 315.866
L401.421 313.655
L402.04 311.7
L402.658 310.907
L402.967 310.558
L403.379 309.729
L403.946 307.835
L404.616 305.688
L405.544 304.486
L405.698 304.573
L406.317 305.309
L407.141 306.469
L407.347 306.385
L407.966 305.632
L408.378 304.871
L409.151 302.274
L410.336 297.868
L410.8 296.702
L411.264 295.789
L411.573 295.314
L412.243 294.744
L412.397 294.72
L412.655 294.567
L413.17 294.708
L413.376 294.485
L414.201 293.259
L414.613 293.047
L415.025 292.435
L415.747 290.522
L416.262 289.014
L417.55 286.127
L418.117 285.599
L418.478 285.009
L418.839 284.68
L419.199 284.303
L419.56 283.964
L420.024 283.816
L420.178 283.819
L420.436 284.152
L420.848 284.914
L421.261 286.038
L422.858 290.207
L423.837 292.709
L424.662 295.118
L425.486 296.868
L425.898 297.623
L426.414 298.165
L426.98 298.696
L427.444 299.008
L428.063 298.895
L428.733 299.51
L429.969 301.849
L430.691 302.611
L431.567 304.232
L431.824 304.321
L432.031 304.34
L432.546 304.753
L432.907 305.404
L433.525 306.432
L433.886 306.744
L434.298 306.889
L434.71 306.867
L434.968 306.975
L435.586 307.645
L437.39 310.841
L437.957 312.136
L439.193 313.129
L440.172 313.743
L440.791 314.245
L440.945 314.182
L441.615 313.605
L442.337 313.575
L442.697 313.77
L443.007 314.005
L443.419 313.817
L443.831 313.265
L444.192 312.688
L444.862 312.663
L445.325 313.048
L445.532 312.991
L445.738 312.943
L445.995 313.086
L446.408 313.352
L446.82 313.397
L447.49 312.815
L448.727 310.502
L449.551 307.978
L450.015 307.021
L450.685 305.863
L451.715 304.968
L452.076 304.384
L452.952 303.43
L453.261 303.468
L453.622 303.616
L454.137 304.181
L454.601 304.75
L455.322 304.815
L455.735 305.124
L456.044 305.067
L456.302 305.236
L456.971 305.643
L457.538 305.157
L457.847 304.999
L458.054 305.031
L459.342 306.068
L459.857 306.511
L460.372 307.18
L461.094 308.523
L461.455 309.118
L461.764 309.254
L462.228 309.354
L462.485 308.878
L462.743 308.595
L463.207 308.646
L464.289 307.236
L464.598 306.819
L465.062 306.404
L465.268 306.33
L465.629 306.127
L466.247 305.72
L466.711 305.215
L467.278 305.017
L467.432 304.862
L467.69 304.451
L468.411 303.257
L469.854 301.279
L471.297 299.872
L471.503 299.591
L472.791 297.479
L473.307 297.096
L473.874 296.41
L474.389 295.203
L474.853 293.718
L476.347 288.377
L477.223 286.669
L477.584 286.201
L478.151 285.546
L478.511 285.423
L478.924 285.513
L479.903 285.343
L480.47 285.047
L480.882 284.964
L481.397 285.428
L481.809 285.803
L482.222 286.338
L483.407 289.074
L485.056 293.876
L485.829 296.106
L486.499 298.364
L487.581 302.474
L487.941 303.854
L488.714 306.665
L491.239 314.011
L492.064 316.803
L492.631 318.378
L493.043 318.837
L493.558 319.007
L494.022 318.99
L494.383 319.305
L494.64 319.164
L495.362 318.688
L495.723 318.634
L496.856 318.73
L497.32 318.323
L497.732 317.672
L499.433 314.128
L500.309 313.112
L500.567 313.017
L500.927 312.734
L501.185 312.71
L501.494 312.906
L501.855 312.943
L502.576 312.505
L502.988 312.32
L503.246 312.32
L503.504 312.384
L503.968 312.208
L504.277 312.031
L504.534 312.123
L504.947 312.355
L505.41 312.19
L505.926 312.079
L506.39 311.749
L506.596 311.71
L507.008 311.871
L507.523 312.078
L507.781 312.127
L508.142 312.267
L508.399 312.303
L509.533 311.902
L510.357 311.034
L511.388 310.472
L511.903 310.462
L512.316 310.09
L512.882 309.475
L513.192 308.634
L515.871 299.015
L517.263 294.765
L517.778 293.523
L518.551 290.803
L519.066 289.206
L519.324 288.891
L520.045 288.626
L520.664 288.724
L521.076 289.421
L521.488 289.885
L521.952 290.074
L522.158 290.271
L522.622 290.974
L523.652 292.382
L524.219 292.012
L524.528 291.641
L525.971 288.638
L526.28 288.36
L527.053 288.061
L527.826 288.607
L528.239 289.283
L529.321 291.189
L531.227 294.265
L531.743 295.236
L533.546 298.93
L534.268 300.142
L534.989 301.917
L535.195 302.259
L537.772 307.7
L539.112 310.298
L539.627 311.315
L539.988 311.651
L540.658 312.111
L541.121 312.544
L541.482 312.587
L541.791 312.43
L542.461 312.015
L542.667 312.076
L543.595 312.907
L543.956 313.149
L544.883 312.72
L545.141 312.642
L545.553 312.671
L545.914 312.559
L546.481 312.837
L547.305 313.815
L547.305 313.815" style="fill:none;stroke:#0000ff;"/>
   </g>
   <g id="matplotlib.axis_1">
    <g id="xtick_1">
     <g id="line2d_2">
      <defs>
       <path d="
M0 0
L0 -4" id="m76f943f0ca"/>
      </defs>
      <g>
       <use style="stroke:#000000;stroke-linecap:butt;stroke-width:0.5;" x="156.354338713" xlink:href="#m76f943f0ca" y="303.694369124"/>
      </g>
     </g>
     <g id="text_1">
      <!-- 5 -->
      <defs>
       <path d="
M10.7969 72.9062
L49.5156 72.9062
L49.5156 64.5938
L19.8281 64.5938
L19.8281 46.7344
Q21.9688 47.4688 24.1094 47.8281
Q26.2656 48.1875 28.4219 48.1875
Q40.625 48.1875 47.75 41.5
Q54.8906 34.8125 54.8906 23.3906
Q54.8906 11.625 47.5625 5.09375
Q40.2344 -1.42188 26.9062 -1.42188
Q22.3125 -1.42188 17.5469 -0.640625
Q12.7969 0.140625 7.71875 1.70312
L7.71875 11.625
Q12.1094 9.23438 16.7969 8.0625
Q21.4844 6.89062 26.7031 6.89062
Q35.1562 6.89062 40.0781 11.3281
Q45.0156 15.7656 45.0156 23.3906
Q45.0156 31 40.0781 35.4375
Q35.1562 39.8906 26.7031 39.8906
Q22.75 39.8906 18.8125 39.0156
Q14.8906 38.1406 10.7969 36.2812
z
" id="BitstreamVeraSans-Roman-35"/>
      </defs>
      <g transform="translate(153.995744963 314.984994124)scale(0.1 -0.1)">
       <use xlink:href="#BitstreamVeraSans-Roman-35"/>
      </g>
     </g>
    </g>
    <g id="xtick_2">
     <g id="line2d_3">
      <defs>
       <path d="
M0 0
L0 -4" id="m76f943f0ca"/>
      </defs>
      <g>
       <use style="stroke:#000000;stroke-linecap:butt;stroke-width:0.5;" x="280.685250683" xlink:href="#m76f943f0ca" y="303.694369124"/>
      </g>
     </g>
     <g id="text_2">
      <!-- 10 -->
      <defs>
       <path d="
M31.7812 66.4062
Q24.1719 66.4062 20.3281 58.9062
Q16.5 51.4219 16.5 36.375
Q16.5 21.3906 20.3281 13.8906
Q24.1719 6.39062 31.7812 6.39062
Q39.4531 6.39062 43.2812 13.8906
Q47.125 21.3906 47.125 36.375
Q47.125 51.4219 43.2812 58.9062
Q39.4531 66.4062 31.7812 66.4062
M31.7812 74.2188
Q44.0469 74.2188 50.5156 64.5156
Q56.9844 54.8281 56.9844 36.375
Q56.9844 17.9688 50.5156 8.26562
Q44.0469 -1.42188 31.7812 -1.42188
Q19.5312 -1.42188 13.0625 8.26562
Q6.59375 17.9688 6.59375 36.375
Q6.59375 54.8281 13.0625 64.5156
Q19.5312 74.2188 31.7812 74.2188" id="BitstreamVeraSans-Roman-30"/>
       <path d="
M12.4062 8.29688
L28.5156 8.29688
L28.5156 63.9219
L10.9844 60.4062
L10.9844 69.3906
L28.4219 72.9062
L38.2812 72.9062
L38.2812 8.29688
L54.3906 8.29688
L54.3906 0
L12.4062 0
z
" id="BitstreamVeraSans-Roman-31"/>
      </defs>
      <g transform="translate(275.204000683 315.116244124)scale(0.1 -0.1)">
       <use xlink:href="#BitstreamVeraSans-Roman-31"/>
       <use x="63.623046875" xlink:href="#BitstreamVeraSans-Roman-30"/>
      </g>
     </g>
    </g>
    <g id="xtick_3">
     <g id="line2d_4">
      <defs>
       <path d="
M0 0
L0 -4" id="m76f943f0ca"/>
      </defs>
      <g>
       <use style="stroke:#000000;stroke-linecap:butt;stroke-width:0.5;" x="405.016162652" xlink:href="#m76f943f0ca" y="303.694369124"/>
      </g>
     </g>
     <g id="text_3">
      <!-- 15 -->
      <g transform="translate(399.639600152 314.984994124)scale(0.1 -0.1)">
       <use xlink:href="#BitstreamVeraSans-Roman-31"/>
       <use x="63.623046875" xlink:href="#BitstreamVeraSans-Roman-35"/>
      </g>
     </g>
    </g>
    <g id="xtick_4">
     <g id="line2d_5">
      <defs>
       <path d="
M0 0
L0 -4" id="m76f943f0ca"/>
      </defs>
      <g>
       <use style="stroke:#000000;stroke-linecap:butt;stroke-width:0.5;" x="529.347074621" xlink:href="#m76f943f0ca" y="303.694369124"/>
      </g>
     </g>
     <g id="text_4">
      <!-- 20 -->
      <defs>
       <path d="
M19.1875 8.29688
L53.6094 8.29688
L53.6094 0
L7.32812 0
L7.32812 8.29688
Q12.9375 14.1094 22.625 23.8906
Q32.3281 33.6875 34.8125 36.5312
Q39.5469 41.8438 41.4219 45.5312
Q43.3125 49.2188 43.3125 52.7812
Q43.3125 58.5938 39.2344 62.25
Q35.1562 65.9219 28.6094 65.9219
Q23.9688 65.9219 18.8125 64.3125
Q13.6719 62.7031 7.8125 59.4219
L7.8125 69.3906
Q13.7656 71.7812 18.9375 73
Q24.125 74.2188 28.4219 74.2188
Q39.75 74.2188 46.4844 68.5469
Q53.2188 62.8906 53.2188 53.4219
Q53.2188 48.9219 51.5312 44.8906
Q49.8594 40.875 45.4062 35.4062
Q44.1875 33.9844 37.6406 27.2188
Q31.1094 20.4531 19.1875 8.29688" id="BitstreamVeraSans-Roman-32"/>
      </defs>
      <g transform="translate(523.683012121 315.116244124)scale(0.1 -0.1)">
       <use xlink:href="#BitstreamVeraSans-Roman-32"/>
       <use x="63.623046875" xlink:href="#BitstreamVeraSans-Roman-30"/>
      </g>
     </g>
    </g>
    <g id="xtick_5">
     <g id="line2d_6">
      <defs>
       <path d="
M0 0
L0 -2" id="m9673c82132"/>
      </defs>
      <g>
       <use style="stroke:#000000;stroke-linecap:butt;stroke-width:0.5;" x="56.8896091378" xlink:href="#m9673c82132" y="303.694369124"/>
      </g>
     </g>
    </g>
    <g id="xtick_6">
     <g id="line2d_7">
      <defs>
       <path d="
M0 0
L0 -2" id="m9673c82132"/>
      </defs>
      <g>
       <use style="stroke:#000000;stroke-linecap:butt;stroke-width:0.5;" x="81.7557915317" xlink:href="#m9673c82132" y="303.694369124"/>
      </g>
     </g>
    </g>
    <g id="xtick_7">
     <g id="line2d_8">
      <defs>
       <path d="
M0 0
L0 -2" id="m9673c82132"/>
      </defs>
      <g>
       <use style="stroke:#000000;stroke-linecap:butt;stroke-width:0.5;" x="106.621973926" xlink:href="#m9673c82132" y="303.694369124"/>
      </g>
     </g>
    </g>
    <g id="xtick_8">
     <g id="line2d_9">
      <defs>
       <path d="
M0 0
L0 -2" id="m9673c82132"/>
      </defs>
      <g>
       <use style="stroke:#000000;stroke-linecap:butt;stroke-width:0.5;" x="131.488156319" xlink:href="#m9673c82132" y="303.694369124"/>
      </g>
     </g>
    </g>
    <g id="xtick_9">
     <g id="line2d_10">
      <defs>
       <path d="
M0 0
L0 -2" id="m9673c82132"/>
      </defs>
      <g>
       <use style="stroke:#000000;stroke-linecap:butt;stroke-width:0.5;" x="181.220521107" xlink:href="#m9673c82132" y="303.694369124"/>
      </g>
     </g>
    </g>
    <g id="xtick_10">
     <g id="line2d_11">
      <defs>
       <path d="
M0 0
L0 -2" id="m9673c82132"/>
      </defs>
      <g>
       <use style="stroke:#000000;stroke-linecap:butt;stroke-width:0.5;" x="206.086703501" xlink:href="#m9673c82132" y="303.694369124"/>
      </g>
     </g>
    </g>
    <g id="xtick_11">
     <g id="line2d_12">
      <defs>
       <path d="
M0 0
L0 -2" id="m9673c82132"/>
      </defs>
      <g>
       <use style="stroke:#000000;stroke-linecap:butt;stroke-width:0.5;" x="230.952885895" xlink:href="#m9673c82132" y="303.694369124"/>
      </g>
     </g>
    </g>
    <g id="xtick_12">
     <g id="line2d_13">
      <defs>
       <path d="
M0 0
L0 -2" id="m9673c82132"/>
      </defs>
      <g>
       <use style="stroke:#000000;stroke-linecap:butt;stroke-width:0.5;" x="255.819068289" xlink:href="#m9673c82132" y="303.694369124"/>
      </g>
     </g>
    </g>
    <g id="xtick_13">
     <g id="line2d_14">
      <defs>
       <path d="
M0 0
L0 -2" id="m9673c82132"/>
      </defs>
      <g>
       <use style="stroke:#000000;stroke-linecap:butt;stroke-width:0.5;" x="305.551433077" xlink:href="#m9673c82132" y="303.694369124"/>
      </g>
     </g>
    </g>
    <g id="xtick_14">
     <g id="line2d_15">
      <defs>
       <path d="
M0 0
L0 -2" id="m9673c82132"/>
      </defs>
      <g>
       <use style="stroke:#000000;stroke-linecap:butt;stroke-width:0.5;" x="330.41761547" xlink:href="#m9673c82132" y="303.694369124"/>
      </g>
     </g>
    </g>
    <g id="xtick_15">
     <g id="line2d_16">
      <defs>
       <path d="
M0 0
L0 -2" id="m9673c82132"/>
      </defs>
      <g>
       <use style="stroke:#000000;stroke-linecap:butt;stroke-width:0.5;" x="355.283797864" xlink:href="#m9673c82132" y="303.694369124"/>
      </g>
     </g>
    </g>
    <g id="xtick_16">
     <g id="line2d_17">
      <defs>
       <path d="
M0 0
L0 -2" id="m9673c82132"/>
      </defs>
      <g>
       <use style="stroke:#000000;stroke-linecap:butt;stroke-width:0.5;" x="380.149980258" xlink:href="#m9673c82132" y="303.694369124"/>
      </g>
     </g>
    </g>
    <g id="xtick_17">
     <g id="line2d_18">
      <defs>
       <path d="
M0 0
L0 -2" id="m9673c82132"/>
      </defs>
      <g>
       <use style="stroke:#000000;stroke-linecap:butt;stroke-width:0.5;" x="429.882345046" xlink:href="#m9673c82132" y="303.694369124"/>
      </g>
     </g>
    </g>
    <g id="xtick_18">
     <g id="line2d_19">
      <defs>
       <path d="
M0 0
L0 -2" id="m9673c82132"/>
      </defs>
      <g>
       <use style="stroke:#000000;stroke-linecap:butt;stroke-width:0.5;" x="454.74852744" xlink:href="#m9673c82132" y="303.694369124"/>
      </g>
     </g>
    </g>
    <g id="xtick_19">
     <g id="line2d_20">
      <defs>
       <path d="
M0 0
L0 -2" id="m9673c82132"/>
      </defs>
      <g>
       <use style="stroke:#000000;stroke-linecap:butt;stroke-width:0.5;" x="479.614709834" xlink:href="#m9673c82132" y="303.694369124"/>
      </g>
     </g>
    </g>
    <g id="xtick_20">
     <g id="line2d_21">
      <defs>
       <path d="
M0 0
L0 -2" id="m9673c82132"/>
      </defs>
      <g>
       <use style="stroke:#000000;stroke-linecap:butt;stroke-width:0.5;" x="504.480892228" xlink:href="#m9673c82132" y="303.694369124"/>
      </g>
     </g>
    </g>
   </g>
   <g id="matplotlib.axis_2">
    <g id="ytick_1">
     <g id="line2d_22">
      <defs>
       <path d="
M0 0
L4 0" id="ma45dce2df3"/>
      </defs>
      <g>
       <use style="stroke:#000000;stroke-linecap:butt;stroke-width:0.5;" x="29.2984375" xlink:href="#ma45dce2df3" y="397.580163798"/>
      </g>
     </g>
     <g id="text_5">
      <!-- -0.1 -->
      <defs>
       <path d="
M10.6875 12.4062
L21 12.4062
L21 0
L10.6875 0
z
" id="BitstreamVeraSans-Roman-2e"/>
       <path d="
M4.89062 31.3906
L31.2031 31.3906
L31.2031 23.3906
L4.89062 23.3906
z
" id="BitstreamVeraSans-Roman-2d"/>
      </defs>
      <g transform="translate(7.2 401.220007548)scale(0.1 -0.1)">
       <use xlink:href="#BitstreamVeraSans-Roman-2d"/>
       <use x="36.083984375" xlink:href="#BitstreamVeraSans-Roman-30"/>
       <use x="99.70703125" xlink:href="#BitstreamVeraSans-Roman-2e"/>
       <use x="131.494140625" xlink:href="#BitstreamVeraSans-Roman-31"/>
      </g>
     </g>
    </g>
    <g id="ytick_2">
     <g id="line2d_23">
      <defs>
       <path d="
M0 0
L4 0" id="ma45dce2df3"/>
      </defs>
      <g>
       <use style="stroke:#000000;stroke-linecap:butt;stroke-width:0.5;" x="29.2984375" xlink:href="#ma45dce2df3" y="303.694369124"/>
      </g>
     </g>
     <g id="text_6">
      <!-- 0 -->
      <g transform="translate(20.259375 307.334212874)scale(0.1 -0.1)">
       <use xlink:href="#BitstreamVeraSans-Roman-30"/>
      </g>
     </g>
    </g>
    <g id="ytick_3">
     <g id="line2d_24">
      <defs>
       <path d="
M0 0
L4 0" id="ma45dce2df3"/>
      </defs>
      <g>
       <use style="stroke:#000000;stroke-linecap:butt;stroke-width:0.5;" x="29.2984375" xlink:href="#ma45dce2df3" y="209.808574451"/>
      </g>
     </g>
     <g id="text_7">
      <!-- 0.1 -->
      <g transform="translate(10.978125 213.448418201)scale(0.1 -0.1)">
       <use xlink:href="#BitstreamVeraSans-Roman-30"/>
       <use x="63.623046875" xlink:href="#BitstreamVeraSans-Roman-2e"/>
       <use x="95.41015625" xlink:href="#BitstreamVeraSans-Roman-31"/>
      </g>
     </g>
    </g>
    <g id="ytick_4">
     <g id="line2d_25">
      <defs>
       <path d="
M0 0
L4 0" id="ma45dce2df3"/>
      </defs>
      <g>
       <use style="stroke:#000000;stroke-linecap:butt;stroke-width:0.5;" x="29.2984375" xlink:href="#ma45dce2df3" y="115.922779777"/>
      </g>
     </g>
     <g id="text_8">
      <!-- 0.2 -->
      <g transform="translate(11.05625 119.562623527)scale(0.1 -0.1)">
       <use xlink:href="#BitstreamVeraSans-Roman-30"/>
       <use x="63.623046875" xlink:href="#BitstreamVeraSans-Roman-2e"/>
       <use x="95.41015625" xlink:href="#BitstreamVeraSans-Roman-32"/>
      </g>
     </g>
    </g>
    <g id="ytick_5">
     <g id="line2d_26">
      <defs>
       <path d="
M0 0
L4 0" id="ma45dce2df3"/>
      </defs>
      <g>
       <use style="stroke:#000000;stroke-linecap:butt;stroke-width:0.5;" x="29.2984375" xlink:href="#ma45dce2df3" y="22.0369851031"/>
      </g>
     </g>
     <g id="text_9">
      <!-- 0.3 -->
      <defs>
       <path d="
M40.5781 39.3125
Q47.6562 37.7969 51.625 33
Q55.6094 28.2188 55.6094 21.1875
Q55.6094 10.4062 48.1875 4.48438
Q40.7656 -1.42188 27.0938 -1.42188
Q22.5156 -1.42188 17.6562 -0.515625
Q12.7969 0.390625 7.625 2.20312
L7.625 11.7188
Q11.7188 9.32812 16.5938 8.10938
Q21.4844 6.89062 26.8125 6.89062
Q36.0781 6.89062 40.9375 10.5469
Q45.7969 14.2031 45.7969 21.1875
Q45.7969 27.6406 41.2812 31.2656
Q36.7656 34.9062 28.7188 34.9062
L20.2188 34.9062
L20.2188 43.0156
L29.1094 43.0156
Q36.375 43.0156 40.2344 45.9219
Q44.0938 48.8281 44.0938 54.2969
Q44.0938 59.9062 40.1094 62.9062
Q36.1406 65.9219 28.7188 65.9219
Q24.6562 65.9219 20.0156 65.0312
Q15.375 64.1562 9.8125 62.3125
L9.8125 71.0938
Q15.4375 72.6562 20.3438 73.4375
Q25.25 74.2188 29.5938 74.2188
Q40.8281 74.2188 47.3594 69.1094
Q53.9062 64.0156 53.9062 55.3281
Q53.9062 49.2656 50.4375 45.0938
Q46.9688 40.9219 40.5781 39.3125" id="BitstreamVeraSans-Roman-33"/>
      </defs>
      <g transform="translate(10.85625 25.6768288531)scale(0.1 -0.1)">
       <use xlink:href="#BitstreamVeraSans-Roman-30"/>
       <use x="63.623046875" xlink:href="#BitstreamVeraSans-Roman-2e"/>
       <use x="95.41015625" xlink:href="#BitstreamVeraSans-Roman-33"/>
      </g>
     </g>
    </g>
    <g id="ytick_6">
     <g id="line2d_27">
      <defs>
       <path d="
M0 0
L2 0" id="m78052f819b"/>
      </defs>
      <g>
       <use style="stroke:#000000;stroke-linecap:butt;stroke-width:0.5;" x="29.2984375" xlink:href="#m78052f819b" y="378.803004863"/>
      </g>
     </g>
    </g>
    <g id="ytick_7">
     <g id="line2d_28">
      <defs>
       <path d="
M0 0
L2 0" id="m78052f819b"/>
      </defs>
      <g>
       <use style="stroke:#000000;stroke-linecap:butt;stroke-width:0.5;" x="29.2984375" xlink:href="#m78052f819b" y="360.025845928"/>
      </g>
     </g>
    </g>
    <g id="ytick_8">
     <g id="line2d_29">
      <defs>
       <path d="
M0 0
L2 0" id="m78052f819b"/>
      </defs>
      <g>
       <use style="stroke:#000000;stroke-linecap:butt;stroke-width:0.5;" x="29.2984375" xlink:href="#m78052f819b" y="341.248686994"/>
      </g>
     </g>
    </g>
    <g id="ytick_9">
     <g id="line2d_30">
      <defs>
       <path d="
M0 0
L2 0" id="m78052f819b"/>
      </defs>
      <g>
       <use style="stroke:#000000;stroke-linecap:butt;stroke-width:0.5;" x="29.2984375" xlink:href="#m78052f819b" y="322.471528059"/>
      </g>
     </g>
    </g>
    <g id="ytick_10">
     <g id="line2d_31">
      <defs>
       <path d="
M0 0
L2 0" id="m78052f819b"/>
      </defs>
      <g>
       <use style="stroke:#000000;stroke-linecap:butt;stroke-width:0.5;" x="29.2984375" xlink:href="#m78052f819b" y="284.91721019"/>
      </g>
     </g>
    </g>
    <g id="ytick_11">
     <g id="line2d_32">
      <defs>
       <path d="
M0 0
L2 0" id="m78052f819b"/>
      </defs>
      <g>
       <use style="stroke:#000000;stroke-linecap:butt;stroke-width:0.5;" x="29.2984375" xlink:href="#m78052f819b" y="266.140051255"/>
      </g>
     </g>
    </g>
    <g id="ytick_12">
     <g id="line2d_33">
      <defs>
       <path d="
M0 0
L2 0" id="m78052f819b"/>
      </defs>
      <g>
       <use style="stroke:#000000;stroke-linecap:butt;stroke-width:0.5;" x="29.2984375" xlink:href="#m78052f819b" y="247.36289232"/>
      </g>
     </g>
    </g>
    <g id="ytick_13">
     <g id="line2d_34">
      <defs>
       <path d="
M0 0
L2 0" id="m78052f819b"/>
      </defs>
      <g>
       <use style="stroke:#000000;stroke-linecap:butt;stroke-width:0.5;" x="29.2984375" xlink:href="#m78052f819b" y="228.585733385"/>
      </g>
     </g>
    </g>
    <g id="ytick_14">
     <g id="line2d_35">
      <defs>
       <path d="
M0 0
L2 0" id="m78052f819b"/>
      </defs>
      <g>
       <use style="stroke:#000000;stroke-linecap:butt;stroke-width:0.5;" x="29.2984375" xlink:href="#m78052f819b" y="191.031415516"/>
      </g>
     </g>
    </g>
    <g id="ytick_15">
     <g id="line2d_36">
      <defs>
       <path d="
M0 0
L2 0" id="m78052f819b"/>
      </defs>
      <g>
       <use style="stroke:#000000;stroke-linecap:butt;stroke-width:0.5;" x="29.2984375" xlink:href="#m78052f819b" y="172.254256581"/>
      </g>
     </g>
    </g>
    <g id="ytick_16">
     <g id="line2d_37">
      <defs>
       <path d="
M0 0
L2 0" id="m78052f819b"/>
      </defs>
      <g>
       <use style="stroke:#000000;stroke-linecap:butt;stroke-width:0.5;" x="29.2984375" xlink:href="#m78052f819b" y="153.477097646"/>
      </g>
     </g>
    </g>
    <g id="ytick_17">
     <g id="line2d_38">
      <defs>
       <path d="
M0 0
L2 0" id="m78052f819b"/>
      </defs>
      <g>
       <use style="stroke:#000000;stroke-linecap:butt;stroke-width:0.5;" x="29.2984375" xlink:href="#m78052f819b" y="134.699938712"/>
      </g>
     </g>
    </g>
    <g id="ytick_18">
     <g id="line2d_39">
      <defs>
       <path d="
M0 0
L2 0" id="m78052f819b"/>
      </defs>
      <g>
       <use style="stroke:#000000;stroke-linecap:butt;stroke-width:0.5;" x="29.2984375" xlink:href="#m78052f819b" y="97.145620842"/>
      </g>
     </g>
    </g>
    <g id="ytick_19">
     <g id="line2d_40">
      <defs>
       <path d="
M0 0
L2 0" id="m78052f819b"/>
      </defs>
      <g>
       <use style="stroke:#000000;stroke-linecap:butt;stroke-width:0.5;" x="29.2984375" xlink:href="#m78052f819b" y="78.3684619073"/>
      </g>
     </g>
    </g>
    <g id="ytick_20">
     <g id="line2d_41">
      <defs>
       <path d="
M0 0
L2 0" id="m78052f819b"/>
      </defs>
      <g>
       <use style="stroke:#000000;stroke-linecap:butt;stroke-width:0.5;" x="29.2984375" xlink:href="#m78052f819b" y="59.5913029726"/>
      </g>
     </g>
    </g>
    <g id="ytick_21">
     <g id="line2d_42">
      <defs>
       <path d="
M0 0
L2 0" id="m78052f819b"/>
      </defs>
      <g>
       <use style="stroke:#000000;stroke-linecap:butt;stroke-width:0.5;" x="29.2984375" xlink:href="#m78052f819b" y="40.8141440378"/>
      </g>
     </g>
    </g>
   </g>
   <g id="patch_3">
    <path d="
M39.2984 303.694
L557.266 303.694" style="fill:none;stroke:#000000;stroke-width:0.8;"/>
   </g>
   <g id="patch_4">
    <path d="
M29.2984 413.28
L29.2984 7.2" style="fill:none;stroke:#000000;stroke-width:0.8;"/>
   </g>
  </g>
 </g>
 <defs>
  <clipPath id="pbda54c63f9">
   <rect height="406.08" width="517.9675" x="39.2984375" y="7.2"/>
  </clipPath>
 </defs>
</svg>
