<?xml version="1.0" encoding="utf-8" standalone="no"?>
<!DOCTYPE svg PUBLIC "-//W3C//DTD SVG 1.1//EN"
  "http://www.w3.org/Graphics/SVG/1.1/DTD/svg11.dtd">
<!-- Created with matplotlib (http://matplotlib.sourceforge.net/) -->
<svg height="420pt" version="1.1" viewBox="0 0 564 420" width="564pt" xmlns="http://www.w3.org/2000/svg" xmlns:xlink="http://www.w3.org/1999/xlink">
 <defs>
  <style type="text/css">
*{stroke-linecap:square;stroke-linejoin:round;}
  </style>
 </defs>
 <g id="figure_1">
  <g id="patch_1">
   <path d="
M2.22045e-16 420.48
L564.558 420.48
L564.558 0
L2.22045e-16 0
z
" style="fill:#ffffff;"/>
  </g>
  <g id="axes_1">
   <g id="patch_2">
    <path d="
M39.3484 413.28
L557.358 413.28
L557.358 7.2
L39.3484 7.2
z
" style="fill:#ffffff;"/>
   </g>
   <g id="line2d_1">
    <path clip-path="url(#p281a70926e)" d="
M49.3102 405.471
L50.5985 358.972
L51.7838 323.152
L53.0207 292.299
L55.0821 247.444
L57.4527 201.478
L58.5865 183.812
L59.8748 166.347
L61.2148 152.362
L62.297 142.049
L63.5338 132.223
L64.7191 123.822
L65.7498 117.484
L67.1928 109.744
L68.9966 98.5169
L70.6972 89.1815
L71.161 87.0317
L71.934 82.8979
L72.5525 79.6456
L73.1194 77.7625
L73.9955 75.7755
L74.3562 74.9873
L75.0777 73.0082
L75.8507 70.5887
L76.9329 67.6602
L78.9943 61.6586
L80.9011 54.3206
L82.0865 50.5901
L84.3025 44.6866
L86.2608 37.563
L87.9099 30.1731
L88.786 27.0266
L90.229 21.9683
L91.5689 17.0441
L92.0327 15.6335
L92.3935 15.1558
L92.8573 15.0092
L93.6818 15.1584
L93.9395 15.4548
L94.4549 16.2941
L94.9702 17.3993
L96.4132 20.6111
L97.2893 23.2015
L98.9899 28.2919
L101.773 33.7655
L102.494 34.9713
L102.649 35.0575
L102.907 35.5036
L103.422 36.8146
L104.35 39.7868
L105.329 43.5814
L105.999 46.0573
L106.926 48.662
L107.699 50.1154
L108.266 50.687
L108.524 50.8476
L109.194 51.2293
L110.482 52.1368
L111.461 53.2858
L112.853 54.5534
L113.214 54.526
L113.884 54.1975
L114.708 53.2523
L115.069 52.6311
L115.43 51.8936
L116.409 50.6505
L117.027 50.1774
L117.388 50.0478
L117.697 50.1077
L118.47 50.6444
L119.398 51.0927
L119.913 51.2593
L120.48 51.3754
L121.562 51.504
L122.078 51.4107
L122.696 51.0821
L123.624 50.6792
L124.654 50.5923
L124.912 50.7898
L125.324 51.0555
L126.407 51.6654
L126.922 52.3351
L128.262 54.974
L128.829 56.9649
L129.911 61.2383
L135.425 80.7305
L137.023 84.7209
L142.486 97.5221
L144.083 100.403
L146.505 104.353
L147.175 105.256
L148 106.669
L148.721 108.385
L149.958 110.818
L154.184 119.185
L155.112 120.577
L156.297 122.597
L160.987 131.599
L167.222 146.951
L169.335 151.602
L171.5 157.174
L176.189 169.743
L182.786 187.337
L184.693 193.085
L186.445 199.055
L187.63 203.824
L188.249 207.032
L188.3 207.395
L188.352 207.341
L188.919 203.649
L190.001 198.133
L191.547 191.433
L193.402 184.387
L195.618 176.938
L198.762 167.407
L202.782 156.223
L206.441 146.918
L208.141 143.166
L210.306 139.027
L212.985 133.508
L214.428 130.628
L216.335 127.296
L219.994 122.383
L222.468 119.728
L223.241 118.953
L226.591 114.834
L229.116 111.966
L230.198 111.229
L231.177 110.557
L232.672 109.281
L235.197 107.124
L238.547 103.523
L239.474 102.657
L242.051 99.9343
L243.082 98.3887
L243.803 97.3209
L246.019 94.5074
L247.72 92.2771
L248.287 91.5648
L248.802 91.233
L250.245 90.8538
L251.07 91.0166
L251.843 91.1616
L252.255 91.3066
L254.265 92.4842
L255.296 93.0134
L258.749 94.0703
L259.058 94.0909
L259.779 94.4752
L260.81 95.3011
L263.078 97.3181
L264.005 97.6941
L264.778 97.7552
L266.273 97.7259
L266.633 97.7627
L267.664 97.9848
L269.313 98.1245
L270.292 97.775
L271.169 97.2213
L272.663 96.1471
L273.591 95.7606
L274.106 95.7439
L274.467 95.7832
L275.446 95.735
L276.477 95.6689
L278.023 95.4567
L279.466 94.9555
L280.857 94.6234
L281.527 94.6732
L283.022 94.8104
L284.362 95.5346
L284.928 96.0993
L285.959 97.5541
L292.143 105.244
L293.535 106.479
L299.204 111.439
L302.193 113.498
L304.048 114.558
L304.821 115.288
L305.955 116.262
L306.676 116.876
L310.284 119.95
L311.83 120.99
L315.695 124.215
L318.89 127.488
L320.178 129.092
L322.497 131.837
L327.754 137.906
L339.246 153.737
L341.256 157.006
L343.008 160.265
L344.142 162.82
L344.554 164.058
L344.606 164.016
L345.173 162.249
L346.307 159.505
L347.956 156.127
L349.914 152.615
L352.439 148.602
L356.459 142.824
L361.922 135.46
L364.911 132.078
L368.158 128.788
L371.198 125.534
L372.693 124.195
L377.022 121.127
L379.031 120.028
L379.598 119.667
L383.566 117.023
L386.298 115.454
L387.535 114.962
L389.132 114.19
L391.194 113.192
L393.667 111.566
L395.007 110.82
L398.099 108.958
L399.388 107.827
L400.058 107.248
L403.098 104.939
L405.108 103.568
L406.397 103.313
L407.633 103.415
L409.128 103.668
L413.302 104.741
L415.209 104.929
L415.93 105.114
L417.167 105.665
L420.053 106.933
L421.136 106.974
L423.197 106.976
L425.001 107.134
L426.134 106.98
L427.114 106.642
L429.896 105.552
L430.67 105.555
L434.947 105.124
L436.751 104.74
L437.627 104.7
L439.534 104.819
L441.08 105.423
L442.162 106.337
L448.81 111.307
L450.562 112.21
L451.902 112.93
L455.406 114.837
L459.065 116.338
L460.302 116.803
L461.487 117.508
L466.899 120.361
L468.548 121.118
L471.331 122.587
L474.784 124.837
L476.639 126.313
L479.525 128.496
L482.05 130.305
L484.73 132.609
L492.512 139.672
L495.964 143.091
L498.232 145.694
L499.778 147.778
L500.706 149.369
L500.809 149.614
L500.86 149.573
L501.427 148.414
L502.612 146.541
L504.365 144.208
L506.478 141.758
L509.312 138.843
L512.713 135.631
L518.588 130.385
L520.959 128.581
L529.771 122.669
L531.524 121.777
L542.758 117.016
L543.944 116.655
L546.675 115.728
L547.396 115.49
L547.396 115.49" style="fill:none;stroke:#0000ff;"/>
   </g>
   <g id="matplotlib.axis_1">
    <g id="xtick_1">
     <g id="line2d_2">
      <defs>
       <path d="
M0 0
L0 -4" id="m55fb3a900c"/>
      </defs>
      <g>
       <use style="stroke:#000000;stroke-linecap:butt;stroke-width:0.5;" x="156.413872701" xlink:href="#m55fb3a900c" y="120.705999763"/>
      </g>
     </g>
     <g id="text_1">
      <!-- 5 -->
      <defs>
       <path d="
M10.7969 72.9062
L49.5156 72.9062
L49.5156 64.5938
L19.8281 64.5938
L19.8281 46.7344
Q21.9688 47.4688 24.1094 47.8281
Q26.2656 48.1875 28.4219 48.1875
Q40.625 48.1875 47.75 41.5
Q54.8906 34.8125 54.8906 23.3906
Q54.8906 11.625 47.5625 5.09375
Q40.2344 -1.42188 26.9062 -1.42188
Q22.3125 -1.42188 17.5469 -0.640625
Q12.7969 0.140625 7.71875 1.70312
L7.71875 11.625
Q12.1094 9.23438 16.7969 8.0625
Q21.4844 6.89062 26.7031 6.89062
Q35.1562 6.89062 40.0781 11.3281
Q45.0156 15.7656 45.0156 23.3906
Q45.0156 31 40.0781 35.4375
Q35.1562 39.8906 26.7031 39.8906
Q22.75 39.8906 18.8125 39.0156
Q14.8906 38.1406 10.7969 36.2812
z
" id="BitstreamVeraSans-Roman-35"/>
      </defs>
      <g transform="translate(154.055278951 131.996624763)scale(0.1 -0.1)">
       <use xlink:href="#BitstreamVeraSans-Roman-35"/>
      </g>
     </g>
    </g>
    <g id="xtick_2">
     <g id="line2d_3">
      <defs>
       <path d="
M0 0
L0 -4" id="m55fb3a900c"/>
      </defs>
      <g>
       <use style="stroke:#000000;stroke-linecap:butt;stroke-width:0.5;" x="280.754911195" xlink:href="#m55fb3a900c" y="120.705999763"/>
      </g>
     </g>
     <g id="text_2">
      <!-- 10 -->
      <defs>
       <path d="
M31.7812 66.4062
Q24.1719 66.4062 20.3281 58.9062
Q16.5 51.4219 16.5 36.375
Q16.5 21.3906 20.3281 13.8906
Q24.1719 6.39062 31.7812 6.39062
Q39.4531 6.39062 43.2812 13.8906
Q47.125 21.3906 47.125 36.375
Q47.125 51.4219 43.2812 58.9062
Q39.4531 66.4062 31.7812 66.4062
M31.7812 74.2188
Q44.0469 74.2188 50.5156 64.5156
Q56.9844 54.8281 56.9844 36.375
Q56.9844 17.9688 50.5156 8.26562
Q44.0469 -1.42188 31.7812 -1.42188
Q19.5312 -1.42188 13.0625 8.26562
Q6.59375 17.9688 6.59375 36.375
Q6.59375 54.8281 13.0625 64.5156
Q19.5312 74.2188 31.7812 74.2188" id="BitstreamVeraSans-Roman-30"/>
       <path d="
M12.4062 8.29688
L28.5156 8.29688
L28.5156 63.9219
L10.9844 60.4062
L10.9844 69.3906
L28.4219 72.9062
L38.2812 72.9062
L38.2812 8.29688
L54.3906 8.29688
L54.3906 0
L12.4062 0
z
" id="BitstreamVeraSans-Roman-31"/>
      </defs>
      <g transform="translate(275.273661195 132.127874763)scale(0.1 -0.1)">
       <use xlink:href="#BitstreamVeraSans-Roman-31"/>
       <use x="63.623046875" xlink:href="#BitstreamVeraSans-Roman-30"/>
      </g>
     </g>
    </g>
    <g id="xtick_3">
     <g id="line2d_4">
      <defs>
       <path d="
M0 0
L0 -4" id="m55fb3a900c"/>
      </defs>
      <g>
       <use style="stroke:#000000;stroke-linecap:butt;stroke-width:0.5;" x="405.095949688" xlink:href="#m55fb3a900c" y="120.705999763"/>
      </g>
     </g>
     <g id="text_3">
      <!-- 15 -->
      <g transform="translate(399.719387188 131.996624763)scale(0.1 -0.1)">
       <use xlink:href="#BitstreamVeraSans-Roman-31"/>
       <use x="63.623046875" xlink:href="#BitstreamVeraSans-Roman-35"/>
      </g>
     </g>
    </g>
    <g id="xtick_4">
     <g id="line2d_5">
      <defs>
       <path d="
M0 0
L0 -4" id="m55fb3a900c"/>
      </defs>
      <g>
       <use style="stroke:#000000;stroke-linecap:butt;stroke-width:0.5;" x="529.436988181" xlink:href="#m55fb3a900c" y="120.705999763"/>
      </g>
     </g>
     <g id="text_4">
      <!-- 20 -->
      <defs>
       <path d="
M19.1875 8.29688
L53.6094 8.29688
L53.6094 0
L7.32812 0
L7.32812 8.29688
Q12.9375 14.1094 22.625 23.8906
Q32.3281 33.6875 34.8125 36.5312
Q39.5469 41.8438 41.4219 45.5312
Q43.3125 49.2188 43.3125 52.7812
Q43.3125 58.5938 39.2344 62.25
Q35.1562 65.9219 28.6094 65.9219
Q23.9688 65.9219 18.8125 64.3125
Q13.6719 62.7031 7.8125 59.4219
L7.8125 69.3906
Q13.7656 71.7812 18.9375 73
Q24.125 74.2188 28.4219 74.2188
Q39.75 74.2188 46.4844 68.5469
Q53.2188 62.8906 53.2188 53.4219
Q53.2188 48.9219 51.5312 44.8906
Q49.8594 40.875 45.4062 35.4062
Q44.1875 33.9844 37.6406 27.2188
Q31.1094 20.4531 19.1875 8.29688" id="BitstreamVeraSans-Roman-32"/>
      </defs>
      <g transform="translate(523.772925681 132.127874763)scale(0.1 -0.1)">
       <use xlink:href="#BitstreamVeraSans-Roman-32"/>
       <use x="63.623046875" xlink:href="#BitstreamVeraSans-Roman-30"/>
      </g>
     </g>
    </g>
    <g id="xtick_5">
     <g id="line2d_6">
      <defs>
       <path d="
M0 0
L0 -2" id="mbec60642b0"/>
      </defs>
      <g>
       <use style="stroke:#000000;stroke-linecap:butt;stroke-width:0.5;" x="56.9410419064" xlink:href="#mbec60642b0" y="120.705999763"/>
      </g>
     </g>
    </g>
    <g id="xtick_6">
     <g id="line2d_7">
      <defs>
       <path d="
M0 0
L0 -2" id="mbec60642b0"/>
      </defs>
      <g>
       <use style="stroke:#000000;stroke-linecap:butt;stroke-width:0.5;" x="81.8092496051" xlink:href="#mbec60642b0" y="120.705999763"/>
      </g>
     </g>
    </g>
    <g id="xtick_7">
     <g id="line2d_8">
      <defs>
       <path d="
M0 0
L0 -2" id="mbec60642b0"/>
      </defs>
      <g>
       <use style="stroke:#000000;stroke-linecap:butt;stroke-width:0.5;" x="106.677457304" xlink:href="#mbec60642b0" y="120.705999763"/>
      </g>
     </g>
    </g>
    <g id="xtick_8">
     <g id="line2d_9">
      <defs>
       <path d="
M0 0
L0 -2" id="mbec60642b0"/>
      </defs>
      <g>
       <use style="stroke:#000000;stroke-linecap:butt;stroke-width:0.5;" x="131.545665002" xlink:href="#mbec60642b0" y="120.705999763"/>
      </g>
     </g>
    </g>
    <g id="xtick_9">
     <g id="line2d_10">
      <defs>
       <path d="
M0 0
L0 -2" id="mbec60642b0"/>
      </defs>
      <g>
       <use style="stroke:#000000;stroke-linecap:butt;stroke-width:0.5;" x="181.2820804" xlink:href="#mbec60642b0" y="120.705999763"/>
      </g>
     </g>
    </g>
    <g id="xtick_10">
     <g id="line2d_11">
      <defs>
       <path d="
M0 0
L0 -2" id="mbec60642b0"/>
      </defs>
      <g>
       <use style="stroke:#000000;stroke-linecap:butt;stroke-width:0.5;" x="206.150288098" xlink:href="#mbec60642b0" y="120.705999763"/>
      </g>
     </g>
    </g>
    <g id="xtick_11">
     <g id="line2d_12">
      <defs>
       <path d="
M0 0
L0 -2" id="mbec60642b0"/>
      </defs>
      <g>
       <use style="stroke:#000000;stroke-linecap:butt;stroke-width:0.5;" x="231.018495797" xlink:href="#mbec60642b0" y="120.705999763"/>
      </g>
     </g>
    </g>
    <g id="xtick_12">
     <g id="line2d_13">
      <defs>
       <path d="
M0 0
L0 -2" id="mbec60642b0"/>
      </defs>
      <g>
       <use style="stroke:#000000;stroke-linecap:butt;stroke-width:0.5;" x="255.886703496" xlink:href="#mbec60642b0" y="120.705999763"/>
      </g>
     </g>
    </g>
    <g id="xtick_13">
     <g id="line2d_14">
      <defs>
       <path d="
M0 0
L0 -2" id="mbec60642b0"/>
      </defs>
      <g>
       <use style="stroke:#000000;stroke-linecap:butt;stroke-width:0.5;" x="305.623118893" xlink:href="#mbec60642b0" y="120.705999763"/>
      </g>
     </g>
    </g>
    <g id="xtick_14">
     <g id="line2d_15">
      <defs>
       <path d="
M0 0
L0 -2" id="mbec60642b0"/>
      </defs>
      <g>
       <use style="stroke:#000000;stroke-linecap:butt;stroke-width:0.5;" x="330.491326592" xlink:href="#mbec60642b0" y="120.705999763"/>
      </g>
     </g>
    </g>
    <g id="xtick_15">
     <g id="line2d_16">
      <defs>
       <path d="
M0 0
L0 -2" id="mbec60642b0"/>
      </defs>
      <g>
       <use style="stroke:#000000;stroke-linecap:butt;stroke-width:0.5;" x="355.359534291" xlink:href="#mbec60642b0" y="120.705999763"/>
      </g>
     </g>
    </g>
    <g id="xtick_16">
     <g id="line2d_17">
      <defs>
       <path d="
M0 0
L0 -2" id="mbec60642b0"/>
      </defs>
      <g>
       <use style="stroke:#000000;stroke-linecap:butt;stroke-width:0.5;" x="380.227741989" xlink:href="#mbec60642b0" y="120.705999763"/>
      </g>
     </g>
    </g>
    <g id="xtick_17">
     <g id="line2d_18">
      <defs>
       <path d="
M0 0
L0 -2" id="mbec60642b0"/>
      </defs>
      <g>
       <use style="stroke:#000000;stroke-linecap:butt;stroke-width:0.5;" x="429.964157387" xlink:href="#mbec60642b0" y="120.705999763"/>
      </g>
     </g>
    </g>
    <g id="xtick_18">
     <g id="line2d_19">
      <defs>
       <path d="
M0 0
L0 -2" id="mbec60642b0"/>
      </defs>
      <g>
       <use style="stroke:#000000;stroke-linecap:butt;stroke-width:0.5;" x="454.832365085" xlink:href="#mbec60642b0" y="120.705999763"/>
      </g>
     </g>
    </g>
    <g id="xtick_19">
     <g id="line2d_20">
      <defs>
       <path d="
M0 0
L0 -2" id="mbec60642b0"/>
      </defs>
      <g>
       <use style="stroke:#000000;stroke-linecap:butt;stroke-width:0.5;" x="479.700572784" xlink:href="#mbec60642b0" y="120.705999763"/>
      </g>
     </g>
    </g>
    <g id="xtick_20">
     <g id="line2d_21">
      <defs>
       <path d="
M0 0
L0 -2" id="mbec60642b0"/>
      </defs>
      <g>
       <use style="stroke:#000000;stroke-linecap:butt;stroke-width:0.5;" x="504.568780483" xlink:href="#mbec60642b0" y="120.705999763"/>
      </g>
     </g>
    </g>
   </g>
   <g id="matplotlib.axis_2">
    <g id="ytick_1">
     <g id="line2d_22">
      <defs>
       <path d="
M0 0
L4 0" id="mf2681998ef"/>
      </defs>
      <g>
       <use style="stroke:#000000;stroke-linecap:butt;stroke-width:0.5;" x="29.3484375" xlink:href="#mf2681998ef" y="350.994130858"/>
      </g>
     </g>
     <g id="text_5">
      <!-- -1.5 -->
      <defs>
       <path d="
M10.6875 12.4062
L21 12.4062
L21 0
L10.6875 0
z
" id="BitstreamVeraSans-Roman-2e"/>
       <path d="
M4.89062 31.3906
L31.2031 31.3906
L31.2031 23.3906
L4.89062 23.3906
z
" id="BitstreamVeraSans-Roman-2d"/>
      </defs>
      <g transform="translate(7.2 354.568349608)scale(0.1 -0.1)">
       <use xlink:href="#BitstreamVeraSans-Roman-2d"/>
       <use x="36.083984375" xlink:href="#BitstreamVeraSans-Roman-31"/>
       <use x="99.70703125" xlink:href="#BitstreamVeraSans-Roman-2e"/>
       <use x="131.494140625" xlink:href="#BitstreamVeraSans-Roman-35"/>
      </g>
     </g>
    </g>
    <g id="ytick_2">
     <g id="line2d_23">
      <defs>
       <path d="
M0 0
L4 0" id="mf2681998ef"/>
      </defs>
      <g>
       <use style="stroke:#000000;stroke-linecap:butt;stroke-width:0.5;" x="29.3484375" xlink:href="#mf2681998ef" y="274.231420493"/>
      </g>
     </g>
     <g id="text_6">
      <!-- -1 -->
      <g transform="translate(16.790625 277.876732993)scale(0.1 -0.1)">
       <use xlink:href="#BitstreamVeraSans-Roman-2d"/>
       <use x="36.083984375" xlink:href="#BitstreamVeraSans-Roman-31"/>
      </g>
     </g>
    </g>
    <g id="ytick_3">
     <g id="line2d_24">
      <defs>
       <path d="
M0 0
L4 0" id="mf2681998ef"/>
      </defs>
      <g>
       <use style="stroke:#000000;stroke-linecap:butt;stroke-width:0.5;" x="29.3484375" xlink:href="#mf2681998ef" y="197.468710128"/>
      </g>
     </g>
     <g id="text_7">
      <!-- -0.5 -->
      <g transform="translate(7.2 201.108553878)scale(0.1 -0.1)">
       <use xlink:href="#BitstreamVeraSans-Roman-2d"/>
       <use x="36.083984375" xlink:href="#BitstreamVeraSans-Roman-30"/>
       <use x="99.70703125" xlink:href="#BitstreamVeraSans-Roman-2e"/>
       <use x="131.494140625" xlink:href="#BitstreamVeraSans-Roman-35"/>
      </g>
     </g>
    </g>
    <g id="ytick_4">
     <g id="line2d_25">
      <defs>
       <path d="
M0 0
L4 0" id="mf2681998ef"/>
      </defs>
      <g>
       <use style="stroke:#000000;stroke-linecap:butt;stroke-width:0.5;" x="29.3484375" xlink:href="#mf2681998ef" y="120.705999763"/>
      </g>
     </g>
     <g id="text_8">
      <!-- 0 -->
      <g transform="translate(20.309375 124.345843513)scale(0.1 -0.1)">
       <use xlink:href="#BitstreamVeraSans-Roman-30"/>
      </g>
     </g>
    </g>
    <g id="ytick_5">
     <g id="line2d_26">
      <defs>
       <path d="
M0 0
L4 0" id="mf2681998ef"/>
      </defs>
      <g>
       <use style="stroke:#000000;stroke-linecap:butt;stroke-width:0.5;" x="29.3484375" xlink:href="#mf2681998ef" y="43.9432893981"/>
      </g>
     </g>
     <g id="text_9">
      <!-- 0.5 -->
      <g transform="translate(10.978125 47.5831331481)scale(0.1 -0.1)">
       <use xlink:href="#BitstreamVeraSans-Roman-30"/>
       <use x="63.623046875" xlink:href="#BitstreamVeraSans-Roman-2e"/>
       <use x="95.41015625" xlink:href="#BitstreamVeraSans-Roman-35"/>
      </g>
     </g>
    </g>
    <g id="ytick_6">
     <g id="line2d_27">
      <defs>
       <path d="
M0 0
L2 0" id="m02a4c8e890"/>
      </defs>
      <g>
       <use style="stroke:#000000;stroke-linecap:butt;stroke-width:0.5;" x="29.3484375" xlink:href="#m02a4c8e890" y="412.40429915"/>
      </g>
     </g>
    </g>
    <g id="ytick_7">
     <g id="line2d_28">
      <defs>
       <path d="
M0 0
L2 0" id="m02a4c8e890"/>
      </defs>
      <g>
       <use style="stroke:#000000;stroke-linecap:butt;stroke-width:0.5;" x="29.3484375" xlink:href="#m02a4c8e890" y="397.051757077"/>
      </g>
     </g>
    </g>
    <g id="ytick_8">
     <g id="line2d_29">
      <defs>
       <path d="
M0 0
L2 0" id="m02a4c8e890"/>
      </defs>
      <g>
       <use style="stroke:#000000;stroke-linecap:butt;stroke-width:0.5;" x="29.3484375" xlink:href="#m02a4c8e890" y="381.699215004"/>
      </g>
     </g>
    </g>
    <g id="ytick_9">
     <g id="line2d_30">
      <defs>
       <path d="
M0 0
L2 0" id="m02a4c8e890"/>
      </defs>
      <g>
       <use style="stroke:#000000;stroke-linecap:butt;stroke-width:0.5;" x="29.3484375" xlink:href="#m02a4c8e890" y="366.346672931"/>
      </g>
     </g>
    </g>
    <g id="ytick_10">
     <g id="line2d_31">
      <defs>
       <path d="
M0 0
L2 0" id="m02a4c8e890"/>
      </defs>
      <g>
       <use style="stroke:#000000;stroke-linecap:butt;stroke-width:0.5;" x="29.3484375" xlink:href="#m02a4c8e890" y="335.641588785"/>
      </g>
     </g>
    </g>
    <g id="ytick_11">
     <g id="line2d_32">
      <defs>
       <path d="
M0 0
L2 0" id="m02a4c8e890"/>
      </defs>
      <g>
       <use style="stroke:#000000;stroke-linecap:butt;stroke-width:0.5;" x="29.3484375" xlink:href="#m02a4c8e890" y="320.289046712"/>
      </g>
     </g>
    </g>
    <g id="ytick_12">
     <g id="line2d_33">
      <defs>
       <path d="
M0 0
L2 0" id="m02a4c8e890"/>
      </defs>
      <g>
       <use style="stroke:#000000;stroke-linecap:butt;stroke-width:0.5;" x="29.3484375" xlink:href="#m02a4c8e890" y="304.936504639"/>
      </g>
     </g>
    </g>
    <g id="ytick_13">
     <g id="line2d_34">
      <defs>
       <path d="
M0 0
L2 0" id="m02a4c8e890"/>
      </defs>
      <g>
       <use style="stroke:#000000;stroke-linecap:butt;stroke-width:0.5;" x="29.3484375" xlink:href="#m02a4c8e890" y="289.583962566"/>
      </g>
     </g>
    </g>
    <g id="ytick_14">
     <g id="line2d_35">
      <defs>
       <path d="
M0 0
L2 0" id="m02a4c8e890"/>
      </defs>
      <g>
       <use style="stroke:#000000;stroke-linecap:butt;stroke-width:0.5;" x="29.3484375" xlink:href="#m02a4c8e890" y="258.87887842"/>
      </g>
     </g>
    </g>
    <g id="ytick_15">
     <g id="line2d_36">
      <defs>
       <path d="
M0 0
L2 0" id="m02a4c8e890"/>
      </defs>
      <g>
       <use style="stroke:#000000;stroke-linecap:butt;stroke-width:0.5;" x="29.3484375" xlink:href="#m02a4c8e890" y="243.526336347"/>
      </g>
     </g>
    </g>
    <g id="ytick_16">
     <g id="line2d_37">
      <defs>
       <path d="
M0 0
L2 0" id="m02a4c8e890"/>
      </defs>
      <g>
       <use style="stroke:#000000;stroke-linecap:butt;stroke-width:0.5;" x="29.3484375" xlink:href="#m02a4c8e890" y="228.173794274"/>
      </g>
     </g>
    </g>
    <g id="ytick_17">
     <g id="line2d_38">
      <defs>
       <path d="
M0 0
L2 0" id="m02a4c8e890"/>
      </defs>
      <g>
       <use style="stroke:#000000;stroke-linecap:butt;stroke-width:0.5;" x="29.3484375" xlink:href="#m02a4c8e890" y="212.821252201"/>
      </g>
     </g>
    </g>
    <g id="ytick_18">
     <g id="line2d_39">
      <defs>
       <path d="
M0 0
L2 0" id="m02a4c8e890"/>
      </defs>
      <g>
       <use style="stroke:#000000;stroke-linecap:butt;stroke-width:0.5;" x="29.3484375" xlink:href="#m02a4c8e890" y="182.116168055"/>
      </g>
     </g>
    </g>
    <g id="ytick_19">
     <g id="line2d_40">
      <defs>
       <path d="
M0 0
L2 0" id="m02a4c8e890"/>
      </defs>
      <g>
       <use style="stroke:#000000;stroke-linecap:butt;stroke-width:0.5;" x="29.3484375" xlink:href="#m02a4c8e890" y="166.763625982"/>
      </g>
     </g>
    </g>
    <g id="ytick_20">
     <g id="line2d_41">
      <defs>
       <path d="
M0 0
L2 0" id="m02a4c8e890"/>
      </defs>
      <g>
       <use style="stroke:#000000;stroke-linecap:butt;stroke-width:0.5;" x="29.3484375" xlink:href="#m02a4c8e890" y="151.411083909"/>
      </g>
     </g>
    </g>
    <g id="ytick_21">
     <g id="line2d_42">
      <defs>
       <path d="
M0 0
L2 0" id="m02a4c8e890"/>
      </defs>
      <g>
       <use style="stroke:#000000;stroke-linecap:butt;stroke-width:0.5;" x="29.3484375" xlink:href="#m02a4c8e890" y="136.058541836"/>
      </g>
     </g>
    </g>
    <g id="ytick_22">
     <g id="line2d_43">
      <defs>
       <path d="
M0 0
L2 0" id="m02a4c8e890"/>
      </defs>
      <g>
       <use style="stroke:#000000;stroke-linecap:butt;stroke-width:0.5;" x="29.3484375" xlink:href="#m02a4c8e890" y="105.35345769"/>
      </g>
     </g>
    </g>
    <g id="ytick_23">
     <g id="line2d_44">
      <defs>
       <path d="
M0 0
L2 0" id="m02a4c8e890"/>
      </defs>
      <g>
       <use style="stroke:#000000;stroke-linecap:butt;stroke-width:0.5;" x="29.3484375" xlink:href="#m02a4c8e890" y="90.0009156171"/>
      </g>
     </g>
    </g>
    <g id="ytick_24">
     <g id="line2d_45">
      <defs>
       <path d="
M0 0
L2 0" id="m02a4c8e890"/>
      </defs>
      <g>
       <use style="stroke:#000000;stroke-linecap:butt;stroke-width:0.5;" x="29.3484375" xlink:href="#m02a4c8e890" y="74.6483735441"/>
      </g>
     </g>
    </g>
    <g id="ytick_25">
     <g id="line2d_46">
      <defs>
       <path d="
M0 0
L2 0" id="m02a4c8e890"/>
      </defs>
      <g>
       <use style="stroke:#000000;stroke-linecap:butt;stroke-width:0.5;" x="29.3484375" xlink:href="#m02a4c8e890" y="59.2958314711"/>
      </g>
     </g>
    </g>
    <g id="ytick_26">
     <g id="line2d_47">
      <defs>
       <path d="
M0 0
L2 0" id="m02a4c8e890"/>
      </defs>
      <g>
       <use style="stroke:#000000;stroke-linecap:butt;stroke-width:0.5;" x="29.3484375" xlink:href="#m02a4c8e890" y="28.5907473251"/>
      </g>
     </g>
    </g>
   </g>
   <g id="patch_3">
    <path d="
M39.3484 120.706
L557.358 120.706" style="fill:none;stroke:#000000;stroke-width:0.8;"/>
   </g>
   <g id="patch_4">
    <path d="
M29.3484 413.28
L29.3484 7.2" style="fill:none;stroke:#000000;stroke-width:0.8;"/>
   </g>
  </g>
 </g>
 <defs>
  <clipPath id="p281a70926e">
   <rect height="406.08" width="518.0096875" x="39.3484375" y="7.2"/>
  </clipPath>
 </defs>
</svg>
