<?xml version="1.0" encoding="utf-8" standalone="no"?>
<!DOCTYPE svg PUBLIC "-//W3C//DTD SVG 1.1//EN"
  "http://www.w3.org/Graphics/SVG/1.1/DTD/svg11.dtd">
<!-- Created with matplotlib (http://matplotlib.sourceforge.net/) -->
<svg height="420pt" version="1.1" viewBox="0 0 564 420" width="564pt" xmlns="http://www.w3.org/2000/svg" xmlns:xlink="http://www.w3.org/1999/xlink">
 <defs>
  <style type="text/css">
*{stroke-linecap:square;stroke-linejoin:round;}
  </style>
 </defs>
 <g id="figure_1">
  <g id="patch_1">
   <path d="
M2.22045e-16 420.48
L564.508 420.48
L564.508 0
L2.22045e-16 0
z
" style="fill:#ffffff;"/>
  </g>
  <g id="axes_1">
   <g id="patch_2">
    <path d="
M45.7109 413.28
L557.308 413.28
L557.308 7.2
L45.7109 7.2
z
" style="fill:#ffffff;"/>
   </g>
   <g id="line2d_1">
    <path clip-path="url(#p5895cd3558)" d="
M55.5493 77.8058
L55.8547 87.6334
L56.1092 91.4952
L56.5164 92.6673
L56.6182 92.4742
L56.6691 92.5297
L56.7709 92.6055
L57.3307 95.31
L57.8397 101.254
L58.2978 106.437
L58.5523 108.627
L58.8068 109.992
L59.0612 110.877
L59.1121 110.659
L59.6211 106.506
L60.0792 107.908
L60.2319 110.34
L60.5882 119.936
L61.0971 139.18
L62.0133 183.045
L63.5402 266.245
L64.0492 294.769
L64.8126 345.051
L65.4743 397.866
L65.627 405.15
L65.6779 405.471
L65.7288 405.427
L65.8815 403.774
L66.5431 388.492
L67.7137 349.42
L68.07 344.744
L68.3754 342.138
L68.579 341.292
L68.6808 341.642
L68.7317 341.484
L69.0371 338.596
L69.3934 334.535
L69.8514 328.613
L70.5131 310.095
L71.2765 284.363
L72.4472 252.114
L72.9053 234.489
L73.4142 216.205
L74.7884 178.105
L75.6028 158.03
L76.0609 140.118
L77.0788 101.762
L77.8423 86.3056
L77.995 84.8039
L78.0459 85.176
L78.0968 84.8896
L78.6057 79.5305
L78.7075 78.8347
L79.3692 72.5618
L79.5728 71.8349
L79.8782 70.6845
L80.1835 68.8867
L80.6416 62.0119
L82.2194 32.2787
L82.5248 27.0317
L83.1356 18.3193
L83.3901 16.5412
L83.7972 15.0092
L83.899 15.2343
L84.0517 15.7654
L84.5098 20.2064
L85.0697 35.1731
L86.0876 65.4466
L88.9378 169.796
L90.363 210.191
L90.7701 215.695
L91.0246 217.662
L91.1773 217.625
L91.33 217.353
L91.3809 217.218
L91.4318 217.336
L91.5845 217.499
L91.7372 218.01
L91.7881 217.943
L91.9408 216.989
L91.9917 217.185
L92.3988 219.3
L92.4497 219.186
L92.5006 218.775
L92.5515 218.876
L92.6533 219.954
L92.8569 222.631
L92.9078 222.817
L92.9587 222.714
L93.2132 221.937
L93.4677 221.671
L93.6713 222.114
L94.2311 222.542
L94.3838 222.461
L94.5365 223.29
L95.758 232.5
L96.3688 234.174
L96.4197 234.184
L96.5724 233.491
L96.776 232.829
L96.9796 232.993
L97.0305 232.944
L97.0814 232.858
L97.1323 232.926
L97.285 233.531
L97.5394 237.14
L97.5903 237.037
L97.743 235.474
L98.252 224.474
L98.5065 219.65
L98.9646 213.699
L100.186 191.953
L100.441 190.121
L100.491 190.183
L100.593 190.208
L100.797 189.266
L100.848 189.348
L101.051 189.534
L101.153 188.988
L101.815 183.313
L102.018 179.814
L102.985 160.566
L103.494 152.011
L103.8 150.142
L103.851 150.06
L103.902 150.159
L104.105 150.732
L104.207 150.578
L104.411 150.191
L104.818 149.11
L104.869 149.155
L104.97 149.198
L105.072 149.018
L105.53 145.967
L106.243 138.865
L106.345 139.065
L106.65 140.32
L106.701 140.3
L106.803 140.033
L107.108 137.791
L107.464 135.201
L107.719 134.455
L107.922 134.074
L108.228 133.222
L108.33 133.152
L108.482 132.469
L108.635 131.545
L108.788 131.977
L109.246 134.485
L109.348 134.44
L109.449 134.601
L109.5 134.54
L109.602 134.596
L109.958 135.406
L110.111 136.951
L110.366 140.291
L110.722 142.802
L111.078 145.994
L111.536 147.416
L111.74 147.536
L111.892 148.03
L112.147 149.822
L112.452 151.586
L112.809 153.103
L113.216 154.929
L113.419 155.588
L113.47 155.459
L113.827 154.169
L113.877 154.255
L114.081 154.876
L114.539 157.466
L114.59 157.415
L114.895 158.372
L115.252 159.986
L115.455 160.215
L115.506 160.257
L115.557 160.065
L115.659 160.114
L115.811 160.071
L115.862 160.266
L115.913 160.224
L116.117 160.006
L116.27 159.572
L116.779 157.541
L116.88 157.58
L117.033 157.082
L117.491 154.604
L117.542 154.533
L117.949 155.949
L118.051 155.776
L118.305 155.029
L118.458 154.301
L118.865 152.565
L119.12 151.56
L119.629 148.934
L119.832 148.895
L120.392 147.353
L120.647 145.108
L121.512 138.734
L121.817 138.552
L122.021 138.611
L122.174 138.647
L122.683 136.685
L122.734 136.63
L122.886 137.501
L123.09 138.249
L123.192 138.382
L123.65 139.594
L123.853 140.107
L124.21 142.175
L124.566 144.553
L124.718 144.847
L125.024 143.998
L125.126 143.892
L125.329 144.894
L126.347 152.255
L126.5 152.292
L126.602 152.289
L126.856 152.904
L127.111 153.462
L127.263 153.65
L127.314 153.56
L127.518 153.213
L127.62 153.423
L127.925 155.035
L128.179 157.891
L129.452 175.823
L129.859 179.212
L130.063 179.709
L130.317 180.729
L130.368 180.703
L130.572 180.419
L130.623 180.482
L130.775 180.952
L130.826 180.935
L130.928 180.815
L130.979 180.925
L131.233 182.252
L131.793 187.543
L132.811 198.317
L133.066 200.475
L133.473 206.27
L133.829 208.495
L133.931 208.078
L134.134 205.787
L134.338 205.287
L134.491 205.076
L134.694 204.843
L134.949 205.307
L135 205.239
L135.61 203.524
L136.17 200.434
L136.578 197.893
L136.985 196.264
L137.646 195.464
L138.155 194.862
L138.308 194.849
L138.461 195.057
L138.613 194.278
L138.868 192.501
L138.919 192.678
L138.97 192.693
L139.428 191.069
L139.479 191.091
L139.631 191.437
L139.988 190.724
L140.089 190.797
L140.344 190.659
L140.497 190.112
L141.056 185.736
L141.667 177.118
L142.94 157.79
L145.383 117.458
L146.044 109.508
L147.062 101.003
L147.215 100.888
L147.419 100.785
L147.622 101.03
L148.589 105.914
L150.88 125.621
L151.49 128.52
L151.796 129.273
L152.508 131.858
L152.814 133.146
L153.068 134.205
L153.323 135.495
L153.374 135.416
L153.526 136.068
L153.883 138.629
L154.697 146.748
L155.715 160.175
L156.326 165.388
L156.733 168.172
L157.598 174.844
L158.26 180.28
L158.921 187.332
L160.855 200.667
L161.263 203.32
L161.721 205.107
L161.822 205.012
L161.924 205.026
L162.637 205.619
L162.739 205.42
L162.942 205.147
L163.248 205.145
L163.706 205.821
L164.215 208.354
L164.978 212.982
L165.182 213.364
L165.589 214.061
L165.64 214.029
L165.792 213.437
L165.894 211.829
L166.403 202.007
L167.37 187.59
L168.083 179.407
L169.813 161.309
L170.729 155.157
L171.238 153.21
L171.442 153.127
L171.951 153.431
L172.46 154.076
L172.969 153.823
L173.478 153.318
L173.987 152.713
L174.292 152.594
L175.361 152.819
L175.666 152.114
L175.819 151.48
L176.379 144.155
L177.702 129.676
L179.127 117.468
L179.84 113.221
L180.553 109.99
L180.909 109.376
L181.52 109.045
L181.927 109.201
L182.283 109.717
L182.894 111.116
L183.25 112.708
L184.064 117.833
L185.337 128.486
L186.253 138.576
L187.22 151.294
L188.34 169.614
L189.46 191.793
L190.478 216.461
L191.394 244.115
L192.157 273.788
L192.717 304.202
L192.819 312.32
L192.87 311.971
L193.277 285.216
L193.989 253.53
L194.855 224.712
L195.822 199.503
L196.891 177.302
L197.959 159.373
L198.977 145.626
L199.995 134.775
L200.861 127.571
L201.878 121.107
L202.642 117.633
L203.1 116.713
L203.507 116.302
L203.914 116.185
L204.729 116.861
L205.034 117.385
L205.441 118.819
L205.95 121.345
L207.223 129.686
L208.75 142.211
L210.124 154.311
L210.429 154.712
L210.989 154.615
L211.396 154.595
L211.753 154.776
L212.16 155.172
L212.618 155.616
L213.432 155.88
L213.992 155.255
L214.45 155.353
L214.755 156.12
L215.366 158.765
L216.13 163.208
L218.216 179.398
L219.183 189.16
L220.1 198.406
L220.201 198.33
L220.812 196.943
L222.136 191.581
L222.797 191.108
L222.95 191.222
L223.103 191.287
L223.357 191.079
L223.662 190.718
L224.07 190.353
L224.68 188.171
L225.138 185.488
L225.647 183.145
L226.309 180.275
L227.174 175.525
L227.734 171.913
L229.261 164.373
L229.566 163.187
L229.974 160.832
L230.381 157.628
L231.45 149.627
L232.315 146.208
L232.366 146.28
L232.417 146.189
L232.926 144.927
L233.078 144.614
L233.689 143.213
L234.402 142.405
L234.809 141.131
L235.827 136.556
L237.303 130.186
L237.71 129.167
L238.168 128.578
L238.423 128.688
L238.779 129.2
L239.033 130.522
L239.644 133.914
L240.153 137.259
L240.662 141.714
L243.105 162.805
L244.988 175.23
L245.345 176.068
L245.803 176.084
L245.955 176.201
L246.108 176.289
L246.261 176.08
L246.312 176.142
L246.77 176.743
L246.821 176.649
L246.872 176.691
L246.973 177
L247.228 177.786
L247.788 177.607
L248.093 177.837
L248.5 177.97
L248.856 178.267
L250.18 181.112
L250.536 181.52
L250.841 181.562
L251.045 181.339
L251.503 181.531
L251.656 181.88
L251.859 182.726
L251.91 182.707
L252.063 182.303
L252.572 179.35
L252.826 178.066
L253.285 176.476
L254.506 170.483
L254.761 169.991
L254.811 170.015
L254.964 169.955
L255.168 169.81
L255.422 169.838
L255.829 169.185
L255.931 168.896
L256.237 167.709
L257.458 160.567
L257.814 158.974
L258.12 158.414
L258.272 158.449
L258.527 158.53
L258.832 158.297
L259.087 158.07
L259.392 158.026
L259.901 156.907
L260.512 154.947
L260.614 154.895
L261.072 155.267
L261.326 154.789
L261.835 153.578
L262.141 153.352
L262.751 152.843
L262.955 152.427
L263.006 152.459
L263.159 152.633
L263.617 153.28
L263.973 153.328
L264.227 153.432
L264.431 154.019
L264.685 155.052
L265.042 155.834
L265.398 156.826
L265.907 157.257
L266.162 157.373
L266.416 157.896
L266.874 158.693
L267.485 159.621
L267.638 159.79
L267.79 159.802
L268.197 159.404
L268.401 159.608
L268.859 160.447
L269.012 160.508
L269.164 160.665
L269.673 161.316
L270.131 161.301
L270.233 161.348
L270.742 160.846
L271.048 160.481
L271.404 160.165
L271.76 159.469
L271.913 159.5
L272.32 159.875
L272.829 159.214
L273.236 158.659
L273.389 158.491
L273.847 157.511
L274.101 157.422
L274.305 157.329
L274.56 157.074
L274.763 156.749
L275.527 154.685
L275.73 153.926
L275.934 153.766
L276.494 153.732
L277.003 153.01
L277.104 153.051
L277.562 153.637
L278.122 154.09
L278.479 154.709
L278.886 155.705
L279.038 155.798
L279.395 155.441
L279.497 155.504
L279.802 156.193
L280.413 158.038
L280.871 158.414
L281.074 158.492
L281.482 158.851
L281.634 158.861
L281.889 158.76
L282.143 159.162
L282.398 159.934
L284.179 168.347
L284.383 168.546
L284.688 168.925
L284.993 168.923
L285.197 169.017
L285.299 169.041
L285.553 169.555
L286.113 171.581
L287.182 175.851
L287.386 176.579
L287.793 178.819
L288.149 179.698
L288.251 179.54
L288.454 178.696
L288.658 178.529
L289.167 178.563
L289.32 178.579
L289.93 177.98
L290.541 176.677
L290.948 175.796
L291.61 175.232
L292.424 174.838
L292.882 174.784
L293.188 173.968
L293.239 174.043
L293.341 173.973
L293.748 173.44
L294.104 173.452
L294.358 173.361
L294.613 173.337
L294.715 173.3
L294.918 172.867
L295.326 171.648
L295.885 168.562
L297.26 160.231
L299.906 142.611
L300.67 139.21
L301.026 137.659
L301.331 136.787
L301.891 136.664
L302.146 136.975
L302.553 137.662
L303.164 139.5
L304.538 144.351
L305.556 147.518
L305.81 147.804
L306.218 148.205
L306.523 148.536
L307.032 149.577
L307.286 149.92
L308.101 151.566
L309.22 156.631
L310.493 163.007
L311.969 167.713
L312.834 171.305
L313.343 173.366
L314.31 176.208
L314.87 177.855
L315.583 180.263
L316.142 181.056
L316.448 181.141
L316.651 181.301
L316.957 181.397
L317.568 181.239
L318.077 181.686
L318.586 182.935
L319.349 185.003
L319.909 185.463
L320.062 185.325
L320.163 184.998
L320.723 180.063
L321.741 173.27
L322.606 168.849
L324.184 161.45
L325.1 158.677
L325.558 157.888
L325.813 157.858
L326.169 157.903
L326.831 158.266
L327.289 158.147
L327.9 157.83
L328.51 157.563
L329.07 157.592
L329.579 157.662
L329.783 157.547
L330.088 157.124
L330.19 156.598
L331.055 151.535
L332.277 145.499
L333.651 140.087
L334.873 137.026
L335.28 136.679
L336.145 136.498
L336.552 136.702
L337.214 137.366
L337.57 138.108
L338.384 140.529
L339.657 145.631
L340.573 150.516
L341.489 156.359
L342.507 164.402
L343.576 174.548
L344.594 186.334
L345.51 199.494
L346.324 214.442
L346.935 229.753
L347.139 237.24
L347.19 236.825
L347.597 223.582
L348.309 207.842
L349.175 193.478
L350.193 180.266
L351.261 169.204
L352.33 160.213
L353.348 153.287
L354.417 147.526
L355.333 143.749
L356.453 140.261
L357.115 138.889
L357.624 138.461
L358.234 138.259
L359.15 138.614
L359.456 138.944
L359.863 139.755
L360.779 142.228
L361.339 144.246
L363.782 155.191
L364.393 157.86
L364.749 158.12
L366.276 158.225
L367.447 158.715
L367.854 158.628
L368.261 158.371
L368.821 158.476
L369.177 159.028
L369.686 160.24
L370.501 162.819
L372.282 170.174
L372.994 173.609
L373.809 178.596
L374.369 181.642
L374.572 181.548
L375.336 180.387
L376.201 178.354
L376.506 178.01
L376.964 177.808
L377.728 177.753
L377.982 177.625
L378.39 177.437
L379 176.264
L379.56 174.506
L381.036 170.958
L381.393 169.815
L382.105 167.266
L384.599 160.032
L385.566 155.691
L386.279 153.705
L386.635 153.171
L386.686 153.217
L386.737 153.156
L387.246 152.444
L387.449 152.182
L387.907 151.516
L388.823 150.844
L389.383 149.64
L391.928 143.543
L392.692 143.131
L393.15 143.553
L393.71 145.324
L394.728 149.06
L398.341 166.296
L399.206 169.372
L399.665 170.021
L400.224 170.074
L400.428 170.158
L400.632 170.082
L401.395 170.855
L401.599 171.027
L402.006 170.935
L402.362 171.057
L402.718 171.169
L403.024 171.197
L403.482 171.673
L404.5 173.02
L404.907 173.279
L405.161 173.291
L405.416 173.176
L405.976 173.503
L406.23 173.98
L406.383 173.744
L406.892 172.034
L407.146 171.3
L407.605 170.38
L408.826 166.908
L409.131 166.643
L409.284 166.607
L409.539 166.543
L409.742 166.542
L410.149 166.167
L410.251 165.989
L410.913 164.055
L411.676 161.481
L412.134 160.184
L412.491 159.846
L412.949 159.901
L413.865 159.448
L414.119 159.163
L414.883 157.767
L415.137 157.898
L415.392 157.988
L415.697 157.608
L416.155 156.983
L416.715 156.701
L417.122 156.465
L417.326 156.313
L417.631 156.545
L417.988 156.788
L418.7 157.104
L419.158 158.005
L419.413 158.423
L419.718 158.888
L420.278 159.142
L420.583 159.302
L421.296 160.076
L421.499 160.272
L421.856 160.557
L422.11 160.651
L422.517 160.415
L422.772 160.606
L423.128 161.033
L423.434 161.126
L424.146 161.581
L424.35 161.557
L424.96 161.392
L425.418 161.03
L425.622 160.984
L426.182 160.411
L426.233 160.464
L426.691 160.654
L427.505 159.982
L427.862 159.621
L428.269 159.213
L428.676 159.124
L429.134 158.707
L429.643 157.936
L429.847 157.528
L430.05 157.072
L430.254 156.976
L430.814 156.949
L431.323 156.508
L431.475 156.587
L431.679 156.811
L432.442 157.157
L432.799 157.535
L433.206 158.135
L433.358 158.189
L433.715 157.969
L433.867 158.061
L434.173 158.546
L434.631 159.475
L435.14 159.78
L435.445 159.867
L435.751 160.033
L436.056 159.995
L436.26 160.018
L436.616 160.47
L436.921 161.368
L438.041 164.952
L438.448 165.846
L438.804 166.1
L439.008 166.223
L439.364 166.264
L439.924 166.72
L440.637 168.466
L441.146 169.938
L441.858 171.563
L442.367 172.87
L442.52 172.878
L442.622 172.556
L442.825 172.242
L443.131 172.153
L443.385 172.145
L443.64 172.23
L444.301 171.812
L444.658 171.391
L445.319 170.495
L446.083 170.134
L447.253 169.831
L447.508 169.422
L447.559 169.47
L447.711 169.373
L448.119 169.111
L448.271 169.199
L448.831 169.065
L449.086 168.975
L449.544 168.239
L450.002 166.892
L450.663 164.431
L451.885 159.408
L452.292 157.761
L452.801 155.926
L454.277 149.6
L454.888 147.87
L455.651 146.081
L456.262 146.019
L457.28 147.322
L459.876 152.795
L460.181 152.992
L460.792 153.369
L462.472 155.475
L463.286 157.573
L464.151 160.804
L464.66 162.288
L467.103 167.758
L467.612 169.154
L470.259 174.148
L470.412 174.223
L470.768 174.278
L471.633 174.337
L471.989 174.412
L472.397 174.657
L472.956 175.573
L473.465 176.522
L473.771 176.867
L474.381 177.033
L474.483 176.819
L475.043 173.635
L476.061 169.255
L476.977 166.235
L478.708 161.175
L479.522 159.662
L479.878 159.295
L480.286 159.272
L480.591 159.357
L481.253 159.537
L481.66 159.448
L482.22 159.25
L482.932 159.068
L484.154 159.023
L484.459 158.672
L485.07 156.224
L486.393 151.731
L487.869 147.773
L488.989 145.783
L489.396 145.387
L490.16 145.176
L490.77 145.263
L491.33 145.562
L491.788 146.041
L492.704 147.803
L493.977 151.157
L494.893 154.381
L495.86 158.488
L496.929 164.165
L497.998 171.035
L499.016 179.054
L499.932 188.062
L500.695 197.669
L501.255 207.186
L501.459 212.22
L501.51 211.774
L501.917 202.999
L502.629 192.537
L503.495 182.977
L504.513 174.169
L505.581 166.779
L506.65 160.761
L507.668 156.114
L508.737 152.24
L509.653 149.693
L510.824 147.246
L511.435 146.401
L512.045 146.065
L512.554 145.961
L513.572 146.235
L513.929 146.58
L514.59 147.658
L515.863 150.539
L517.339 154.763
L518.815 159.242
L519.171 159.346
L520.545 159.393
L522.072 159.73
L522.734 159.505
L523.192 159.613
L523.599 160.086
L524.108 160.975
L524.871 162.674
L527.162 169.381
L527.925 172.428
L528.689 175.432
L528.943 175.323
L529.554 174.748
L530.775 172.98
L531.539 172.854
L531.793 172.9
L532.71 172.587
L533.371 171.694
L534.491 169.644
L535.56 167.743
L536.832 164.826
L537.647 163.277
L538.054 162.647
L538.41 161.983
L539.021 160.255
L540.141 157.094
L540.955 155.857
L541.057 155.843
L541.566 155.349
L541.82 155.099
L542.38 154.648
L543.093 154.285
L543.652 153.476
L546.146 149.218
L546.604 148.916
L546.91 148.822
L547.317 148.944
L547.47 149.125
L547.47 149.125" style="fill:none;stroke:#0000ff;"/>
   </g>
   <g id="matplotlib.axis_1">
    <g id="xtick_1">
     <g id="line2d_2">
      <defs>
       <path d="
M0 0
L0 -4" id="mee2858cecf"/>
      </defs>
      <g>
       <use style="stroke:#000000;stroke-linecap:butt;stroke-width:0.5;" x="161.327206554" xlink:href="#mee2858cecf" y="161.9159235"/>
      </g>
     </g>
     <g id="text_1">
      <!-- 5 -->
      <defs>
       <path d="
M10.7969 72.9062
L49.5156 72.9062
L49.5156 64.5938
L19.8281 64.5938
L19.8281 46.7344
Q21.9688 47.4688 24.1094 47.8281
Q26.2656 48.1875 28.4219 48.1875
Q40.625 48.1875 47.75 41.5
Q54.8906 34.8125 54.8906 23.3906
Q54.8906 11.625 47.5625 5.09375
Q40.2344 -1.42188 26.9062 -1.42188
Q22.3125 -1.42188 17.5469 -0.640625
Q12.7969 0.140625 7.71875 1.70312
L7.71875 11.625
Q12.1094 9.23438 16.7969 8.0625
Q21.4844 6.89062 26.7031 6.89062
Q35.1562 6.89062 40.0781 11.3281
Q45.0156 15.7656 45.0156 23.3906
Q45.0156 31 40.0781 35.4375
Q35.1562 39.8906 26.7031 39.8906
Q22.75 39.8906 18.8125 39.0156
Q14.8906 38.1406 10.7969 36.2812
z
" id="BitstreamVeraSans-Roman-35"/>
      </defs>
      <g transform="translate(158.968612804 173.2065485)scale(0.1 -0.1)">
       <use xlink:href="#BitstreamVeraSans-Roman-35"/>
      </g>
     </g>
    </g>
    <g id="xtick_2">
     <g id="line2d_3">
      <defs>
       <path d="
M0 0
L0 -4" id="mee2858cecf"/>
      </defs>
      <g>
       <use style="stroke:#000000;stroke-linecap:butt;stroke-width:0.5;" x="284.129013391" xlink:href="#mee2858cecf" y="161.9159235"/>
      </g>
     </g>
     <g id="text_2">
      <!-- 10 -->
      <defs>
       <path d="
M31.7812 66.4062
Q24.1719 66.4062 20.3281 58.9062
Q16.5 51.4219 16.5 36.375
Q16.5 21.3906 20.3281 13.8906
Q24.1719 6.39062 31.7812 6.39062
Q39.4531 6.39062 43.2812 13.8906
Q47.125 21.3906 47.125 36.375
Q47.125 51.4219 43.2812 58.9062
Q39.4531 66.4062 31.7812 66.4062
M31.7812 74.2188
Q44.0469 74.2188 50.5156 64.5156
Q56.9844 54.8281 56.9844 36.375
Q56.9844 17.9688 50.5156 8.26562
Q44.0469 -1.42188 31.7812 -1.42188
Q19.5312 -1.42188 13.0625 8.26562
Q6.59375 17.9688 6.59375 36.375
Q6.59375 54.8281 13.0625 64.5156
Q19.5312 74.2188 31.7812 74.2188" id="BitstreamVeraSans-Roman-30"/>
       <path d="
M12.4062 8.29688
L28.5156 8.29688
L28.5156 63.9219
L10.9844 60.4062
L10.9844 69.3906
L28.4219 72.9062
L38.2812 72.9062
L38.2812 8.29688
L54.3906 8.29688
L54.3906 0
L12.4062 0
z
" id="BitstreamVeraSans-Roman-31"/>
      </defs>
      <g transform="translate(278.647763391 173.3377985)scale(0.1 -0.1)">
       <use xlink:href="#BitstreamVeraSans-Roman-31"/>
       <use x="63.623046875" xlink:href="#BitstreamVeraSans-Roman-30"/>
      </g>
     </g>
    </g>
    <g id="xtick_3">
     <g id="line2d_4">
      <defs>
       <path d="
M0 0
L0 -4" id="mee2858cecf"/>
      </defs>
      <g>
       <use style="stroke:#000000;stroke-linecap:butt;stroke-width:0.5;" x="406.930820228" xlink:href="#mee2858cecf" y="161.9159235"/>
      </g>
     </g>
     <g id="text_3">
      <!-- 15 -->
      <g transform="translate(401.554257728 173.2065485)scale(0.1 -0.1)">
       <use xlink:href="#BitstreamVeraSans-Roman-31"/>
       <use x="63.623046875" xlink:href="#BitstreamVeraSans-Roman-35"/>
      </g>
     </g>
    </g>
    <g id="xtick_4">
     <g id="line2d_5">
      <defs>
       <path d="
M0 0
L0 -4" id="mee2858cecf"/>
      </defs>
      <g>
       <use style="stroke:#000000;stroke-linecap:butt;stroke-width:0.5;" x="529.732627065" xlink:href="#mee2858cecf" y="161.9159235"/>
      </g>
     </g>
     <g id="text_4">
      <!-- 20 -->
      <defs>
       <path d="
M19.1875 8.29688
L53.6094 8.29688
L53.6094 0
L7.32812 0
L7.32812 8.29688
Q12.9375 14.1094 22.625 23.8906
Q32.3281 33.6875 34.8125 36.5312
Q39.5469 41.8438 41.4219 45.5312
Q43.3125 49.2188 43.3125 52.7812
Q43.3125 58.5938 39.2344 62.25
Q35.1562 65.9219 28.6094 65.9219
Q23.9688 65.9219 18.8125 64.3125
Q13.6719 62.7031 7.8125 59.4219
L7.8125 69.3906
Q13.7656 71.7812 18.9375 73
Q24.125 74.2188 28.4219 74.2188
Q39.75 74.2188 46.4844 68.5469
Q53.2188 62.8906 53.2188 53.4219
Q53.2188 48.9219 51.5312 44.8906
Q49.8594 40.875 45.4062 35.4062
Q44.1875 33.9844 37.6406 27.2188
Q31.1094 20.4531 19.1875 8.29688" id="BitstreamVeraSans-Roman-32"/>
      </defs>
      <g transform="translate(524.068564565 173.3377985)scale(0.1 -0.1)">
       <use xlink:href="#BitstreamVeraSans-Roman-32"/>
       <use x="63.623046875" xlink:href="#BitstreamVeraSans-Roman-30"/>
      </g>
     </g>
    </g>
    <g id="xtick_5">
     <g id="line2d_6">
      <defs>
       <path d="
M0 0
L0 -2" id="m726917a4f2"/>
      </defs>
      <g>
       <use style="stroke:#000000;stroke-linecap:butt;stroke-width:0.5;" x="63.085761084" xlink:href="#m726917a4f2" y="161.9159235"/>
      </g>
     </g>
    </g>
    <g id="xtick_6">
     <g id="line2d_7">
      <defs>
       <path d="
M0 0
L0 -2" id="m726917a4f2"/>
      </defs>
      <g>
       <use style="stroke:#000000;stroke-linecap:butt;stroke-width:0.5;" x="87.6461224514" xlink:href="#m726917a4f2" y="161.9159235"/>
      </g>
     </g>
    </g>
    <g id="xtick_7">
     <g id="line2d_8">
      <defs>
       <path d="
M0 0
L0 -2" id="m726917a4f2"/>
      </defs>
      <g>
       <use style="stroke:#000000;stroke-linecap:butt;stroke-width:0.5;" x="112.206483819" xlink:href="#m726917a4f2" y="161.9159235"/>
      </g>
     </g>
    </g>
    <g id="xtick_8">
     <g id="line2d_9">
      <defs>
       <path d="
M0 0
L0 -2" id="m726917a4f2"/>
      </defs>
      <g>
       <use style="stroke:#000000;stroke-linecap:butt;stroke-width:0.5;" x="136.766845186" xlink:href="#m726917a4f2" y="161.9159235"/>
      </g>
     </g>
    </g>
    <g id="xtick_9">
     <g id="line2d_10">
      <defs>
       <path d="
M0 0
L0 -2" id="m726917a4f2"/>
      </defs>
      <g>
       <use style="stroke:#000000;stroke-linecap:butt;stroke-width:0.5;" x="185.887567921" xlink:href="#m726917a4f2" y="161.9159235"/>
      </g>
     </g>
    </g>
    <g id="xtick_10">
     <g id="line2d_11">
      <defs>
       <path d="
M0 0
L0 -2" id="m726917a4f2"/>
      </defs>
      <g>
       <use style="stroke:#000000;stroke-linecap:butt;stroke-width:0.5;" x="210.447929288" xlink:href="#m726917a4f2" y="161.9159235"/>
      </g>
     </g>
    </g>
    <g id="xtick_11">
     <g id="line2d_12">
      <defs>
       <path d="
M0 0
L0 -2" id="m726917a4f2"/>
      </defs>
      <g>
       <use style="stroke:#000000;stroke-linecap:butt;stroke-width:0.5;" x="235.008290656" xlink:href="#m726917a4f2" y="161.9159235"/>
      </g>
     </g>
    </g>
    <g id="xtick_12">
     <g id="line2d_13">
      <defs>
       <path d="
M0 0
L0 -2" id="m726917a4f2"/>
      </defs>
      <g>
       <use style="stroke:#000000;stroke-linecap:butt;stroke-width:0.5;" x="259.568652023" xlink:href="#m726917a4f2" y="161.9159235"/>
      </g>
     </g>
    </g>
    <g id="xtick_13">
     <g id="line2d_14">
      <defs>
       <path d="
M0 0
L0 -2" id="m726917a4f2"/>
      </defs>
      <g>
       <use style="stroke:#000000;stroke-linecap:butt;stroke-width:0.5;" x="308.689374758" xlink:href="#m726917a4f2" y="161.9159235"/>
      </g>
     </g>
    </g>
    <g id="xtick_14">
     <g id="line2d_15">
      <defs>
       <path d="
M0 0
L0 -2" id="m726917a4f2"/>
      </defs>
      <g>
       <use style="stroke:#000000;stroke-linecap:butt;stroke-width:0.5;" x="333.249736125" xlink:href="#m726917a4f2" y="161.9159235"/>
      </g>
     </g>
    </g>
    <g id="xtick_15">
     <g id="line2d_16">
      <defs>
       <path d="
M0 0
L0 -2" id="m726917a4f2"/>
      </defs>
      <g>
       <use style="stroke:#000000;stroke-linecap:butt;stroke-width:0.5;" x="357.810097493" xlink:href="#m726917a4f2" y="161.9159235"/>
      </g>
     </g>
    </g>
    <g id="xtick_16">
     <g id="line2d_17">
      <defs>
       <path d="
M0 0
L0 -2" id="m726917a4f2"/>
      </defs>
      <g>
       <use style="stroke:#000000;stroke-linecap:butt;stroke-width:0.5;" x="382.37045886" xlink:href="#m726917a4f2" y="161.9159235"/>
      </g>
     </g>
    </g>
    <g id="xtick_17">
     <g id="line2d_18">
      <defs>
       <path d="
M0 0
L0 -2" id="m726917a4f2"/>
      </defs>
      <g>
       <use style="stroke:#000000;stroke-linecap:butt;stroke-width:0.5;" x="431.491181595" xlink:href="#m726917a4f2" y="161.9159235"/>
      </g>
     </g>
    </g>
    <g id="xtick_18">
     <g id="line2d_19">
      <defs>
       <path d="
M0 0
L0 -2" id="m726917a4f2"/>
      </defs>
      <g>
       <use style="stroke:#000000;stroke-linecap:butt;stroke-width:0.5;" x="456.051542962" xlink:href="#m726917a4f2" y="161.9159235"/>
      </g>
     </g>
    </g>
    <g id="xtick_19">
     <g id="line2d_20">
      <defs>
       <path d="
M0 0
L0 -2" id="m726917a4f2"/>
      </defs>
      <g>
       <use style="stroke:#000000;stroke-linecap:butt;stroke-width:0.5;" x="480.61190433" xlink:href="#m726917a4f2" y="161.9159235"/>
      </g>
     </g>
    </g>
    <g id="xtick_20">
     <g id="line2d_21">
      <defs>
       <path d="
M0 0
L0 -2" id="m726917a4f2"/>
      </defs>
      <g>
       <use style="stroke:#000000;stroke-linecap:butt;stroke-width:0.5;" x="505.172265697" xlink:href="#m726917a4f2" y="161.9159235"/>
      </g>
     </g>
    </g>
   </g>
   <g id="matplotlib.axis_2">
    <g id="ytick_1">
     <g id="line2d_22">
      <defs>
       <path d="
M0 0
L4 0" id="mc1a80d7287"/>
      </defs>
      <g>
       <use style="stroke:#000000;stroke-linecap:butt;stroke-width:0.5;" x="35.7109375" xlink:href="#mc1a80d7287" y="397.621732265"/>
      </g>
     </g>
     <g id="text_5">
      <!-- -0.1 -->
      <defs>
       <path d="
M10.6875 12.4062
L21 12.4062
L21 0
L10.6875 0
z
" id="BitstreamVeraSans-Roman-2e"/>
       <path d="
M4.89062 31.3906
L31.2031 31.3906
L31.2031 23.3906
L4.89062 23.3906
z
" id="BitstreamVeraSans-Roman-2d"/>
      </defs>
      <g transform="translate(13.6125 401.261576015)scale(0.1 -0.1)">
       <use xlink:href="#BitstreamVeraSans-Roman-2d"/>
       <use x="36.083984375" xlink:href="#BitstreamVeraSans-Roman-30"/>
       <use x="99.70703125" xlink:href="#BitstreamVeraSans-Roman-2e"/>
       <use x="131.494140625" xlink:href="#BitstreamVeraSans-Roman-31"/>
      </g>
     </g>
    </g>
    <g id="ytick_2">
     <g id="line2d_23">
      <defs>
       <path d="
M0 0
L4 0" id="mc1a80d7287"/>
      </defs>
      <g>
       <use style="stroke:#000000;stroke-linecap:butt;stroke-width:0.5;" x="35.7109375" xlink:href="#mc1a80d7287" y="279.768827883"/>
      </g>
     </g>
     <g id="text_6">
      <!-- -0.05 -->
      <g transform="translate(7.2 283.408671633)scale(0.1 -0.1)">
       <use xlink:href="#BitstreamVeraSans-Roman-2d"/>
       <use x="36.083984375" xlink:href="#BitstreamVeraSans-Roman-30"/>
       <use x="99.70703125" xlink:href="#BitstreamVeraSans-Roman-2e"/>
       <use x="131.494140625" xlink:href="#BitstreamVeraSans-Roman-30"/>
       <use x="195.1171875" xlink:href="#BitstreamVeraSans-Roman-35"/>
      </g>
     </g>
    </g>
    <g id="ytick_3">
     <g id="line2d_24">
      <defs>
       <path d="
M0 0
L4 0" id="mc1a80d7287"/>
      </defs>
      <g>
       <use style="stroke:#000000;stroke-linecap:butt;stroke-width:0.5;" x="35.7109375" xlink:href="#mc1a80d7287" y="161.9159235"/>
      </g>
     </g>
     <g id="text_7">
      <!-- 0 -->
      <g transform="translate(26.671875 165.55576725)scale(0.1 -0.1)">
       <use xlink:href="#BitstreamVeraSans-Roman-30"/>
      </g>
     </g>
    </g>
    <g id="ytick_4">
     <g id="line2d_25">
      <defs>
       <path d="
M0 0
L4 0" id="mc1a80d7287"/>
      </defs>
      <g>
       <use style="stroke:#000000;stroke-linecap:butt;stroke-width:0.5;" x="35.7109375" xlink:href="#mc1a80d7287" y="44.0630191178"/>
      </g>
     </g>
     <g id="text_8">
      <!-- 0.05 -->
      <g transform="translate(10.978125 47.7028628678)scale(0.1 -0.1)">
       <use xlink:href="#BitstreamVeraSans-Roman-30"/>
       <use x="63.623046875" xlink:href="#BitstreamVeraSans-Roman-2e"/>
       <use x="95.41015625" xlink:href="#BitstreamVeraSans-Roman-30"/>
       <use x="159.033203125" xlink:href="#BitstreamVeraSans-Roman-35"/>
      </g>
     </g>
    </g>
    <g id="ytick_5">
     <g id="line2d_26">
      <defs>
       <path d="
M0 0
L2 0" id="m91528b0d7c"/>
      </defs>
      <g>
       <use style="stroke:#000000;stroke-linecap:butt;stroke-width:0.5;" x="35.7109375" xlink:href="#m91528b0d7c" y="374.051151389"/>
      </g>
     </g>
    </g>
    <g id="ytick_6">
     <g id="line2d_27">
      <defs>
       <path d="
M0 0
L2 0" id="m91528b0d7c"/>
      </defs>
      <g>
       <use style="stroke:#000000;stroke-linecap:butt;stroke-width:0.5;" x="35.7109375" xlink:href="#m91528b0d7c" y="350.480570512"/>
      </g>
     </g>
    </g>
    <g id="ytick_7">
     <g id="line2d_28">
      <defs>
       <path d="
M0 0
L2 0" id="m91528b0d7c"/>
      </defs>
      <g>
       <use style="stroke:#000000;stroke-linecap:butt;stroke-width:0.5;" x="35.7109375" xlink:href="#m91528b0d7c" y="326.909989636"/>
      </g>
     </g>
    </g>
    <g id="ytick_8">
     <g id="line2d_29">
      <defs>
       <path d="
M0 0
L2 0" id="m91528b0d7c"/>
      </defs>
      <g>
       <use style="stroke:#000000;stroke-linecap:butt;stroke-width:0.5;" x="35.7109375" xlink:href="#m91528b0d7c" y="303.339408759"/>
      </g>
     </g>
    </g>
    <g id="ytick_9">
     <g id="line2d_30">
      <defs>
       <path d="
M0 0
L2 0" id="m91528b0d7c"/>
      </defs>
      <g>
       <use style="stroke:#000000;stroke-linecap:butt;stroke-width:0.5;" x="35.7109375" xlink:href="#m91528b0d7c" y="256.198247006"/>
      </g>
     </g>
    </g>
    <g id="ytick_10">
     <g id="line2d_31">
      <defs>
       <path d="
M0 0
L2 0" id="m91528b0d7c"/>
      </defs>
      <g>
       <use style="stroke:#000000;stroke-linecap:butt;stroke-width:0.5;" x="35.7109375" xlink:href="#m91528b0d7c" y="232.62766613"/>
      </g>
     </g>
    </g>
    <g id="ytick_11">
     <g id="line2d_32">
      <defs>
       <path d="
M0 0
L2 0" id="m91528b0d7c"/>
      </defs>
      <g>
       <use style="stroke:#000000;stroke-linecap:butt;stroke-width:0.5;" x="35.7109375" xlink:href="#m91528b0d7c" y="209.057085253"/>
      </g>
     </g>
    </g>
    <g id="ytick_12">
     <g id="line2d_33">
      <defs>
       <path d="
M0 0
L2 0" id="m91528b0d7c"/>
      </defs>
      <g>
       <use style="stroke:#000000;stroke-linecap:butt;stroke-width:0.5;" x="35.7109375" xlink:href="#m91528b0d7c" y="185.486504377"/>
      </g>
     </g>
    </g>
    <g id="ytick_13">
     <g id="line2d_34">
      <defs>
       <path d="
M0 0
L2 0" id="m91528b0d7c"/>
      </defs>
      <g>
       <use style="stroke:#000000;stroke-linecap:butt;stroke-width:0.5;" x="35.7109375" xlink:href="#m91528b0d7c" y="138.345342624"/>
      </g>
     </g>
    </g>
    <g id="ytick_14">
     <g id="line2d_35">
      <defs>
       <path d="
M0 0
L2 0" id="m91528b0d7c"/>
      </defs>
      <g>
       <use style="stroke:#000000;stroke-linecap:butt;stroke-width:0.5;" x="35.7109375" xlink:href="#m91528b0d7c" y="114.774761747"/>
      </g>
     </g>
    </g>
    <g id="ytick_15">
     <g id="line2d_36">
      <defs>
       <path d="
M0 0
L2 0" id="m91528b0d7c"/>
      </defs>
      <g>
       <use style="stroke:#000000;stroke-linecap:butt;stroke-width:0.5;" x="35.7109375" xlink:href="#m91528b0d7c" y="91.2041808708"/>
      </g>
     </g>
    </g>
    <g id="ytick_16">
     <g id="line2d_37">
      <defs>
       <path d="
M0 0
L2 0" id="m91528b0d7c"/>
      </defs>
      <g>
       <use style="stroke:#000000;stroke-linecap:butt;stroke-width:0.5;" x="35.7109375" xlink:href="#m91528b0d7c" y="67.6335999943"/>
      </g>
     </g>
    </g>
   </g>
   <g id="patch_3">
    <path d="
M45.7109 161.916
L557.308 161.916" style="fill:none;stroke:#000000;stroke-width:0.8;"/>
   </g>
   <g id="patch_4">
    <path d="
M35.7109 413.28
L35.7109 7.2" style="fill:none;stroke:#000000;stroke-width:0.8;"/>
   </g>
  </g>
 </g>
 <defs>
  <clipPath id="p5895cd3558">
   <rect height="406.08" width="511.5971875" x="45.7109375" y="7.2"/>
  </clipPath>
 </defs>
</svg>
