<?xml version="1.0" encoding="utf-8" standalone="no"?>
<!DOCTYPE svg PUBLIC "-//W3C//DTD SVG 1.1//EN"
  "http://www.w3.org/Graphics/SVG/1.1/DTD/svg11.dtd">
<!-- Created with matplotlib (http://matplotlib.sourceforge.net/) -->
<svg height="420pt" version="1.1" viewBox="0 0 564 420" width="564pt" xmlns="http://www.w3.org/2000/svg" xmlns:xlink="http://www.w3.org/1999/xlink">
 <defs>
  <style type="text/css">
*{stroke-linecap:square;stroke-linejoin:round;}
  </style>
 </defs>
 <g id="figure_1">
  <g id="patch_1">
   <path d="
M-4.44089e-16 420.48
L564.466 420.48
L564.466 0
L-4.44089e-16 0
z
" style="fill:#ffffff;"/>
  </g>
  <g id="axes_1">
   <g id="patch_2">
    <path d="
M39.2984 413.28
L557.266 413.28
L557.266 7.2
L39.2984 7.2
z
" style="fill:#ffffff;"/>
   </g>
   <g id="line2d_1">
    <path clip-path="url(#pbda54c63f9)" d="
M49.2594 180.061
L49.6716 168.204
L52.3512 86.7405
L52.815 79.194
L54.0517 63.0039
L54.6701 57.6807
L55.4946 54.4425
L55.5976 54.3991
L55.8553 54.6003
L56.2675 54.7783
L56.3706 55.1576
L56.6798 57.817
L58.0711 70.8642
L58.8956 80.4298
L59.4109 87.1066
L59.4625 87.0801
L59.6171 86.4429
L59.8747 83.9122
L60.39 76.3536
L61.4722 59.1456
L62.1936 52.215
L62.6574 48.1475
L63.5849 40.4223
L63.9456 38.0798
L65.0278 29.2182
L65.1824 28.6986
L66.213 22.863
L66.7283 21.4042
L67.2951 18.6027
L67.5528 17.876
L67.965 16.5563
L68.2227 16.1272
L68.4288 15.9121
L69.0472 15.0092
L69.3049 15.173
L69.7686 17.1304
L70.0778 19.2818
L71.263 29.8402
L71.7268 37.1518
L72.3967 47.4965
L72.7059 48.731
L72.8605 48.599
L73.2212 47.5285
L73.8911 44.7459
L74.4064 43.1875
L74.7156 42.2759
L75.0763 42.0958
L75.2309 42.2759
L75.437 42.5184
L75.5401 42.463
L75.6947 42.407
L75.9008 42.4489
L76.0554 42.2768
L76.4676 42.6927
L76.7253 42.733
L77.2921 43.9844
L77.4983 43.6855
L77.859 44.2586
L78.0651 44.8716
L78.4258 46.3949
L78.8381 50.2909
L79.7656 63.9209
L80.3325 77.0154
L80.6416 83.6998
L81.1054 87.7339
L81.4146 89.4772
L81.6723 90.4986
L82.4452 94.4205
L84.0942 111.694
L85.0733 131.823
L85.7947 145.414
L86.31 154.306
L87.5468 177.678
L88.3197 186.559
L89.0412 195.131
L90.7417 218.506
L91.3601 231.145
L92.1845 247.661
L95.2764 293.171
L96.7193 313.706
L99.4504 340.748
L100.326 352.375
L101.924 374.283
L103.521 398.426
L104.243 403.613
L104.5 404.879
L104.552 404.808
L104.603 404.852
L104.913 405.461
L105.016 405.43
L105.222 404.912
L105.428 404.256
L105.943 403.305
L106.046 403.365
L106.201 403.477
L106.665 404.205
L106.974 404.025
L107.18 403.911
L107.386 403.325
L109.396 392.062
L109.808 389.679
L109.963 389.351
L110.014 389.381
L110.272 388.912
L110.478 388.464
L110.684 388.739
L111.251 389.984
L111.354 390.098
L112.024 391.58
L112.333 391.978
L112.539 392.052
L112.951 392.694
L113.003 392.644
L113.209 392.177
L113.931 389.42
L114.343 387.394
L114.6 386.835
L115.373 385.62
L115.889 382.929
L116.61 376.427
L117.383 367.137
L118.878 342.651
L121.299 312.962
L121.815 308.68
L121.969 307.789
L123.773 292.316
L124.597 283.504
L126.092 266.179
L127.174 255.936
L128.102 247.553
L128.668 241.124
L129.441 231.064
L130.06 225.508
L131.296 216.999
L132.224 211.819
L132.791 208.594
L133.512 202.428
L134.594 193.223
L135.11 188.942
L136.243 179.211
L136.553 177.905
L136.656 177.877
L136.913 177.341
L137.995 174.224
L138.047 174.246
L138.82 174.346
L139.026 174.394
L139.181 174.256
L139.644 173.436
L139.851 172.445
L140.211 168.798
L140.727 165.575
L141.293 163.471
L141.86 162.471
L142.221 162.771
L142.736 163.67
L142.891 164.071
L143.252 164.936
L143.509 165.283
L143.767 165.874
L145.158 169.18
L145.725 170.736
L147.529 177.317
L147.786 177.682
L148.147 177.752
L148.25 177.389
L148.559 175.756
L149.075 174.329
L149.384 173.997
L150.466 173.992
L150.93 174.531
L151.187 175.093
L151.703 176.582
L153.506 182.643
L154.022 184.331
L154.434 185.918
L155.207 188.809
L155.619 190.313
L156.65 194.821
L157.32 197.397
L159.999 209.998
L160.566 212.525
L160.875 213.316
L160.927 213.372
L161.236 212.874
L162.06 212.188
L162.936 211.836
L163.349 211.933
L163.915 211.898
L164.173 212.242
L165.204 214.237
L166.183 216.95
L167.626 222.105
L168.244 224.811
L169.378 231.169
L170.408 236.342
L171.027 239.034
L171.078 239.011
L171.284 239.143
L171.645 239.834
L172.263 241.532
L172.779 243.761
L175.871 258.796
L177.674 269.912
L179.117 280.549
L180.715 294.053
L182.415 310.376
L184.116 329.754
L185.507 348.197
L186.641 365.901
L187.62 384.716
L188.187 399.312
L188.238 401.157
L188.29 400.983
L188.753 387.265
L189.629 368.253
L190.712 349.425
L192 330.777
L193.391 313.767
L194.937 297.566
L196.586 283.225
L198.287 270.618
L199.781 261.608
L201.378 253.564
L202.77 247.888
L204.47 242.106
L205.037 241.018
L205.398 240.676
L205.552 240.549
L206.428 237.423
L207.253 234.209
L208.541 229.047
L209.211 227.237
L211.015 223.207
L211.891 222.042
L212.818 221.518
L214.158 222.009
L215.189 222.943
L215.704 223.432
L215.962 223.015
L216.528 221.441
L218.074 216.629
L221.785 208.42
L224.361 203.985
L225.753 202.569
L226.113 202.601
L227.195 203.296
L227.608 203.896
L228.02 204.932
L228.535 206.304
L228.896 206.382
L229.257 205.97
L231.472 202.947
L231.782 202.738
L232.4 202.239
L233.431 201.745
L233.688 201.506
L233.997 201.371
L234.255 201.294
L234.616 201.34
L234.822 201.528
L235.183 202.175
L235.543 203.033
L235.956 204.26
L236.471 206.561
L236.935 208.645
L237.45 209.341
L238.12 209.656
L238.584 209.904
L238.996 210.697
L239.82 212.331
L240.181 212.936
L240.593 214.573
L244.252 230.474
L245.18 233.081
L246.674 238.183
L247.344 241.455
L248.89 249.534
L250.9 257.693
L251.415 260.131
L253.322 267.941
L255.743 275.792
L256.568 279.332
L258.062 286.093
L258.732 289.999
L259.299 293.147
L260.021 295.631
L260.69 297.216
L261.103 297.633
L261.36 297.694
L262.185 297.461
L263.422 298.222
L263.628 298.122
L265.071 296.112
L266.05 294.676
L266.359 294.638
L266.823 294.622
L267.183 295.09
L267.493 295.365
L267.75 295.641
L268.678 296.531
L268.935 296.753
L269.245 296.97
L269.502 296.851
L270.275 296.039
L270.687 295.613
L271.254 295.514
L271.409 295.583
L271.667 295.412
L272.13 294.721
L272.852 292.698
L273.573 289.956
L275.892 277.974
L278.005 269.815
L278.211 269.445
L279.963 264.179
L280.942 260.346
L282.9 252.234
L283.622 250.012
L284.137 248.222
L285.013 244.391
L285.734 240.89
L286.456 238.469
L287.435 235.848
L288.362 233.675
L289.032 232.166
L289.754 229.669
L290.888 225.763
L291.609 223.143
L292.588 219.851
L292.846 219.529
L293.155 219.245
L294.34 217.807
L295.628 217.462
L295.938 217.135
L296.092 216.772
L296.453 215.221
L297.02 213.704
L297.638 212.722
L297.999 212.375
L298.256 212.357
L298.772 212.548
L299.648 213.175
L299.905 213.307
L302.121 215.345
L303.667 217.502
L303.976 217.718
L304.44 217.64
L305.058 216.36
L305.471 215.975
L305.986 215.853
L307.017 215.814
L307.532 216.203
L309.336 218.417
L310.263 219.739
L310.727 220.477
L311.5 221.622
L311.912 222.286
L312.891 224.063
L313.613 225.239
L316.086 230.189
L316.808 231.653
L317.168 232.007
L317.477 231.76
L318.766 231.212
L319.178 231.177
L319.693 231.17
L320.157 231.139
L320.518 231.358
L321.548 232.243
L322.321 233.162
L324.434 236.757
L325.465 239.394
L326.547 241.969
L327.268 243.449
L327.526 243.501
L328.041 243.992
L328.66 244.895
L330.618 249.097
L332.679 254.441
L333.761 257.759
L334.895 261.695
L336.544 268.325
L338.296 276.422
L339.687 284.024
L341.13 293.021
L342.418 302.477
L343.449 311.613
L344.222 320.321
L344.48 324.319
L344.531 324.134
L344.995 317.4
L345.871 308.055
L347.005 298.378
L348.344 288.881
L349.839 279.937
L351.23 272.746
L352.982 265.138
L354.631 259.012
L356.177 254.313
L357.981 249.793
L360.454 244.952
L361.073 244.223
L361.588 243.865
L361.794 243.782
L362.773 241.934
L363.649 240.044
L364.886 237.472
L365.659 236.408
L367.462 234.307
L368.338 233.718
L369.008 233.498
L371.121 234.029
L371.739 234.379
L371.946 234.439
L372.255 234.138
L372.873 233.138
L374.213 230.795
L378.026 226.011
L380.654 223.4
L382.252 222.567
L382.715 222.672
L383.746 223.117
L384.21 223.689
L384.88 224.511
L385.292 224.438
L385.859 223.922
L386.58 223.259
L388.126 222.269
L389.621 221.697
L390.909 221.397
L391.373 221.772
L391.991 222.603
L392.506 223.682
L393.331 225.525
L393.949 225.83
L394.825 226.046
L395.289 226.546
L396.114 227.411
L396.371 227.626
L396.783 228.504
L397.762 231.212
L398.381 232.61
L398.742 233.474
L400.081 236.97
L400.803 238.104
L401.524 239.329
L403.122 242.565
L403.689 244.292
L405.183 248.755
L406.78 252.37
L409.357 259.059
L411.006 261.953
L411.47 262.825
L412.088 264.42
L412.964 266.617
L413.686 268.523
L414.665 271.447
L415.901 275.311
L416.674 276.643
L417.087 277.068
L417.499 277.31
L418.117 277.211
L418.478 277.237
L419.869 277.68
L421.827 276.153
L422.291 275.741
L422.961 275.697
L423.373 275.993
L423.734 276.227
L424.095 276.481
L425.383 277.262
L425.692 277.241
L426.517 276.766
L426.98 276.521
L427.857 276.488
L428.372 276.056
L429.093 274.861
L429.815 273.226
L432.134 266.022
L434.246 261.098
L434.452 260.875
L436.256 257.569
L437.081 255.623
L438.781 251.209
L439.554 249.551
L440.379 247.894
L441.306 245.343
L442.182 242.886
L443.213 240.909
L443.883 239.883
L444.553 238.932
L445.429 237.593
L446.923 234.24
L447.438 233.239
L448.933 230.04
L449.293 229.854
L450.169 229.066
L450.582 228.847
L452.024 228.514
L452.282 228.248
L452.643 227.275
L453.21 226.261
L453.828 225.601
L454.343 225.297
L455.013 225.416
L455.992 225.794
L456.611 226.08
L457.229 226.413
L459.342 227.916
L460.063 228.504
L460.372 228.542
L460.682 228.479
L461.3 227.648
L461.815 227.359
L462.691 227.225
L463.258 227.252
L463.877 227.558
L465.216 228.564
L468.72 231.971
L469.7 232.971
L471.091 234.518
L471.761 235.376
L472.534 236.606
L473.101 237.277
L473.41 237.449
L473.77 237.266
L474.904 236.937
L475.677 236.904
L476.708 236.964
L478.048 237.72
L478.717 238.295
L480.315 239.974
L481.088 241.131
L483.304 244.573
L483.613 244.809
L484.025 244.983
L484.747 245.575
L485.365 246.416
L488.096 250.519
L490.106 254.443
L491.549 257.878
L493.249 262.6
L494.95 268.053
L496.547 274.16
L497.887 280.117
L499.072 286.345
L500.051 292.691
L500.67 298.071
L500.721 298.708
L500.773 298.517
L501.236 294.063
L502.112 287.873
L503.246 281.456
L504.586 275.149
L506.08 269.197
L507.472 264.402
L509.224 259.317
L510.924 255.098
L512.47 251.961
L514.377 248.795
L516.85 245.591
L517.623 245.062
L518.293 244.629
L519.633 242.801
L521.179 240.577
L522.467 239.376
L523.343 238.666
L524.477 238.09
L525.25 237.896
L527.517 238.291
L528.239 238.49
L528.651 238.153
L529.424 237.163
L530.3 236.134
L531.794 234.75
L535.144 232.006
L535.711 231.589
L537.102 230.722
L538.287 230.226
L539.215 230.345
L540.039 230.613
L540.451 230.972
L541.121 231.53
L541.585 231.446
L542.41 230.875
L543.956 230.069
L544.677 229.807
L545.45 229.562
L546.429 229.334
L546.944 229.274
L547.305 229.338
L547.305 229.338" style="fill:none;stroke:#0000ff;"/>
   </g>
   <g id="matplotlib.axis_1">
    <g id="xtick_1">
     <g id="line2d_2">
      <defs>
       <path d="
M0 0
L0 -4" id="m9b623ebbd6"/>
      </defs>
      <g>
       <use style="stroke:#000000;stroke-linecap:butt;stroke-width:0.5;" x="156.354338713" xlink:href="#m9b623ebbd6" y="247.381824328"/>
      </g>
     </g>
     <g id="text_1">
      <!-- 5 -->
      <defs>
       <path d="
M10.7969 72.9062
L49.5156 72.9062
L49.5156 64.5938
L19.8281 64.5938
L19.8281 46.7344
Q21.9688 47.4688 24.1094 47.8281
Q26.2656 48.1875 28.4219 48.1875
Q40.625 48.1875 47.75 41.5
Q54.8906 34.8125 54.8906 23.3906
Q54.8906 11.625 47.5625 5.09375
Q40.2344 -1.42188 26.9062 -1.42188
Q22.3125 -1.42188 17.5469 -0.640625
Q12.7969 0.140625 7.71875 1.70312
L7.71875 11.625
Q12.1094 9.23438 16.7969 8.0625
Q21.4844 6.89062 26.7031 6.89062
Q35.1562 6.89062 40.0781 11.3281
Q45.0156 15.7656 45.0156 23.3906
Q45.0156 31 40.0781 35.4375
Q35.1562 39.8906 26.7031 39.8906
Q22.75 39.8906 18.8125 39.0156
Q14.8906 38.1406 10.7969 36.2812
z
" id="BitstreamVeraSans-Roman-35"/>
      </defs>
      <g transform="translate(153.995744963 258.672449328)scale(0.1 -0.1)">
       <use xlink:href="#BitstreamVeraSans-Roman-35"/>
      </g>
     </g>
    </g>
    <g id="xtick_2">
     <g id="line2d_3">
      <defs>
       <path d="
M0 0
L0 -4" id="m9b623ebbd6"/>
      </defs>
      <g>
       <use style="stroke:#000000;stroke-linecap:butt;stroke-width:0.5;" x="280.685250683" xlink:href="#m9b623ebbd6" y="247.381824328"/>
      </g>
     </g>
     <g id="text_2">
      <!-- 10 -->
      <defs>
       <path d="
M31.7812 66.4062
Q24.1719 66.4062 20.3281 58.9062
Q16.5 51.4219 16.5 36.375
Q16.5 21.3906 20.3281 13.8906
Q24.1719 6.39062 31.7812 6.39062
Q39.4531 6.39062 43.2812 13.8906
Q47.125 21.3906 47.125 36.375
Q47.125 51.4219 43.2812 58.9062
Q39.4531 66.4062 31.7812 66.4062
M31.7812 74.2188
Q44.0469 74.2188 50.5156 64.5156
Q56.9844 54.8281 56.9844 36.375
Q56.9844 17.9688 50.5156 8.26562
Q44.0469 -1.42188 31.7812 -1.42188
Q19.5312 -1.42188 13.0625 8.26562
Q6.59375 17.9688 6.59375 36.375
Q6.59375 54.8281 13.0625 64.5156
Q19.5312 74.2188 31.7812 74.2188" id="BitstreamVeraSans-Roman-30"/>
       <path d="
M12.4062 8.29688
L28.5156 8.29688
L28.5156 63.9219
L10.9844 60.4062
L10.9844 69.3906
L28.4219 72.9062
L38.2812 72.9062
L38.2812 8.29688
L54.3906 8.29688
L54.3906 0
L12.4062 0
z
" id="BitstreamVeraSans-Roman-31"/>
      </defs>
      <g transform="translate(275.204000683 258.803699328)scale(0.1 -0.1)">
       <use xlink:href="#BitstreamVeraSans-Roman-31"/>
       <use x="63.623046875" xlink:href="#BitstreamVeraSans-Roman-30"/>
      </g>
     </g>
    </g>
    <g id="xtick_3">
     <g id="line2d_4">
      <defs>
       <path d="
M0 0
L0 -4" id="m9b623ebbd6"/>
      </defs>
      <g>
       <use style="stroke:#000000;stroke-linecap:butt;stroke-width:0.5;" x="405.016162652" xlink:href="#m9b623ebbd6" y="247.381824328"/>
      </g>
     </g>
     <g id="text_3">
      <!-- 15 -->
      <g transform="translate(399.639600152 258.672449328)scale(0.1 -0.1)">
       <use xlink:href="#BitstreamVeraSans-Roman-31"/>
       <use x="63.623046875" xlink:href="#BitstreamVeraSans-Roman-35"/>
      </g>
     </g>
    </g>
    <g id="xtick_4">
     <g id="line2d_5">
      <defs>
       <path d="
M0 0
L0 -4" id="m9b623ebbd6"/>
      </defs>
      <g>
       <use style="stroke:#000000;stroke-linecap:butt;stroke-width:0.5;" x="529.347074621" xlink:href="#m9b623ebbd6" y="247.381824328"/>
      </g>
     </g>
     <g id="text_4">
      <!-- 20 -->
      <defs>
       <path d="
M19.1875 8.29688
L53.6094 8.29688
L53.6094 0
L7.32812 0
L7.32812 8.29688
Q12.9375 14.1094 22.625 23.8906
Q32.3281 33.6875 34.8125 36.5312
Q39.5469 41.8438 41.4219 45.5312
Q43.3125 49.2188 43.3125 52.7812
Q43.3125 58.5938 39.2344 62.25
Q35.1562 65.9219 28.6094 65.9219
Q23.9688 65.9219 18.8125 64.3125
Q13.6719 62.7031 7.8125 59.4219
L7.8125 69.3906
Q13.7656 71.7812 18.9375 73
Q24.125 74.2188 28.4219 74.2188
Q39.75 74.2188 46.4844 68.5469
Q53.2188 62.8906 53.2188 53.4219
Q53.2188 48.9219 51.5312 44.8906
Q49.8594 40.875 45.4062 35.4062
Q44.1875 33.9844 37.6406 27.2188
Q31.1094 20.4531 19.1875 8.29688" id="BitstreamVeraSans-Roman-32"/>
      </defs>
      <g transform="translate(523.683012121 258.803699328)scale(0.1 -0.1)">
       <use xlink:href="#BitstreamVeraSans-Roman-32"/>
       <use x="63.623046875" xlink:href="#BitstreamVeraSans-Roman-30"/>
      </g>
     </g>
    </g>
    <g id="xtick_5">
     <g id="line2d_6">
      <defs>
       <path d="
M0 0
L0 -2" id="m2c03b16492"/>
      </defs>
      <g>
       <use style="stroke:#000000;stroke-linecap:butt;stroke-width:0.5;" x="56.8896091378" xlink:href="#m2c03b16492" y="247.381824328"/>
      </g>
     </g>
    </g>
    <g id="xtick_6">
     <g id="line2d_7">
      <defs>
       <path d="
M0 0
L0 -2" id="m2c03b16492"/>
      </defs>
      <g>
       <use style="stroke:#000000;stroke-linecap:butt;stroke-width:0.5;" x="81.7557915317" xlink:href="#m2c03b16492" y="247.381824328"/>
      </g>
     </g>
    </g>
    <g id="xtick_7">
     <g id="line2d_8">
      <defs>
       <path d="
M0 0
L0 -2" id="m2c03b16492"/>
      </defs>
      <g>
       <use style="stroke:#000000;stroke-linecap:butt;stroke-width:0.5;" x="106.621973926" xlink:href="#m2c03b16492" y="247.381824328"/>
      </g>
     </g>
    </g>
    <g id="xtick_8">
     <g id="line2d_9">
      <defs>
       <path d="
M0 0
L0 -2" id="m2c03b16492"/>
      </defs>
      <g>
       <use style="stroke:#000000;stroke-linecap:butt;stroke-width:0.5;" x="131.488156319" xlink:href="#m2c03b16492" y="247.381824328"/>
      </g>
     </g>
    </g>
    <g id="xtick_9">
     <g id="line2d_10">
      <defs>
       <path d="
M0 0
L0 -2" id="m2c03b16492"/>
      </defs>
      <g>
       <use style="stroke:#000000;stroke-linecap:butt;stroke-width:0.5;" x="181.220521107" xlink:href="#m2c03b16492" y="247.381824328"/>
      </g>
     </g>
    </g>
    <g id="xtick_10">
     <g id="line2d_11">
      <defs>
       <path d="
M0 0
L0 -2" id="m2c03b16492"/>
      </defs>
      <g>
       <use style="stroke:#000000;stroke-linecap:butt;stroke-width:0.5;" x="206.086703501" xlink:href="#m2c03b16492" y="247.381824328"/>
      </g>
     </g>
    </g>
    <g id="xtick_11">
     <g id="line2d_12">
      <defs>
       <path d="
M0 0
L0 -2" id="m2c03b16492"/>
      </defs>
      <g>
       <use style="stroke:#000000;stroke-linecap:butt;stroke-width:0.5;" x="230.952885895" xlink:href="#m2c03b16492" y="247.381824328"/>
      </g>
     </g>
    </g>
    <g id="xtick_12">
     <g id="line2d_13">
      <defs>
       <path d="
M0 0
L0 -2" id="m2c03b16492"/>
      </defs>
      <g>
       <use style="stroke:#000000;stroke-linecap:butt;stroke-width:0.5;" x="255.819068289" xlink:href="#m2c03b16492" y="247.381824328"/>
      </g>
     </g>
    </g>
    <g id="xtick_13">
     <g id="line2d_14">
      <defs>
       <path d="
M0 0
L0 -2" id="m2c03b16492"/>
      </defs>
      <g>
       <use style="stroke:#000000;stroke-linecap:butt;stroke-width:0.5;" x="305.551433077" xlink:href="#m2c03b16492" y="247.381824328"/>
      </g>
     </g>
    </g>
    <g id="xtick_14">
     <g id="line2d_15">
      <defs>
       <path d="
M0 0
L0 -2" id="m2c03b16492"/>
      </defs>
      <g>
       <use style="stroke:#000000;stroke-linecap:butt;stroke-width:0.5;" x="330.41761547" xlink:href="#m2c03b16492" y="247.381824328"/>
      </g>
     </g>
    </g>
    <g id="xtick_15">
     <g id="line2d_16">
      <defs>
       <path d="
M0 0
L0 -2" id="m2c03b16492"/>
      </defs>
      <g>
       <use style="stroke:#000000;stroke-linecap:butt;stroke-width:0.5;" x="355.283797864" xlink:href="#m2c03b16492" y="247.381824328"/>
      </g>
     </g>
    </g>
    <g id="xtick_16">
     <g id="line2d_17">
      <defs>
       <path d="
M0 0
L0 -2" id="m2c03b16492"/>
      </defs>
      <g>
       <use style="stroke:#000000;stroke-linecap:butt;stroke-width:0.5;" x="380.149980258" xlink:href="#m2c03b16492" y="247.381824328"/>
      </g>
     </g>
    </g>
    <g id="xtick_17">
     <g id="line2d_18">
      <defs>
       <path d="
M0 0
L0 -2" id="m2c03b16492"/>
      </defs>
      <g>
       <use style="stroke:#000000;stroke-linecap:butt;stroke-width:0.5;" x="429.882345046" xlink:href="#m2c03b16492" y="247.381824328"/>
      </g>
     </g>
    </g>
    <g id="xtick_18">
     <g id="line2d_19">
      <defs>
       <path d="
M0 0
L0 -2" id="m2c03b16492"/>
      </defs>
      <g>
       <use style="stroke:#000000;stroke-linecap:butt;stroke-width:0.5;" x="454.74852744" xlink:href="#m2c03b16492" y="247.381824328"/>
      </g>
     </g>
    </g>
    <g id="xtick_19">
     <g id="line2d_20">
      <defs>
       <path d="
M0 0
L0 -2" id="m2c03b16492"/>
      </defs>
      <g>
       <use style="stroke:#000000;stroke-linecap:butt;stroke-width:0.5;" x="479.614709834" xlink:href="#m2c03b16492" y="247.381824328"/>
      </g>
     </g>
    </g>
    <g id="xtick_20">
     <g id="line2d_21">
      <defs>
       <path d="
M0 0
L0 -2" id="m2c03b16492"/>
      </defs>
      <g>
       <use style="stroke:#000000;stroke-linecap:butt;stroke-width:0.5;" x="504.480892228" xlink:href="#m2c03b16492" y="247.381824328"/>
      </g>
     </g>
    </g>
   </g>
   <g id="matplotlib.axis_2">
    <g id="ytick_1">
     <g id="line2d_22">
      <defs>
       <path d="
M0 0
L4 0" id="m0d7c9f1c98"/>
      </defs>
      <g>
       <use style="stroke:#000000;stroke-linecap:butt;stroke-width:0.5;" x="29.2984375" xlink:href="#m0d7c9f1c98" y="331.538982379"/>
      </g>
     </g>
     <g id="text_5">
      <!-- -0.1 -->
      <defs>
       <path d="
M10.6875 12.4062
L21 12.4062
L21 0
L10.6875 0
z
" id="BitstreamVeraSans-Roman-2e"/>
       <path d="
M4.89062 31.3906
L31.2031 31.3906
L31.2031 23.3906
L4.89062 23.3906
z
" id="BitstreamVeraSans-Roman-2d"/>
      </defs>
      <g transform="translate(7.2 335.178826129)scale(0.1 -0.1)">
       <use xlink:href="#BitstreamVeraSans-Roman-2d"/>
       <use x="36.083984375" xlink:href="#BitstreamVeraSans-Roman-30"/>
       <use x="99.70703125" xlink:href="#BitstreamVeraSans-Roman-2e"/>
       <use x="131.494140625" xlink:href="#BitstreamVeraSans-Roman-31"/>
      </g>
     </g>
    </g>
    <g id="ytick_2">
     <g id="line2d_23">
      <defs>
       <path d="
M0 0
L4 0" id="m0d7c9f1c98"/>
      </defs>
      <g>
       <use style="stroke:#000000;stroke-linecap:butt;stroke-width:0.5;" x="29.2984375" xlink:href="#m0d7c9f1c98" y="247.381824328"/>
      </g>
     </g>
     <g id="text_6">
      <!-- 0 -->
      <g transform="translate(20.259375 251.021668078)scale(0.1 -0.1)">
       <use xlink:href="#BitstreamVeraSans-Roman-30"/>
      </g>
     </g>
    </g>
    <g id="ytick_3">
     <g id="line2d_24">
      <defs>
       <path d="
M0 0
L4 0" id="m0d7c9f1c98"/>
      </defs>
      <g>
       <use style="stroke:#000000;stroke-linecap:butt;stroke-width:0.5;" x="29.2984375" xlink:href="#m0d7c9f1c98" y="163.224666276"/>
      </g>
     </g>
     <g id="text_7">
      <!-- 0.1 -->
      <g transform="translate(10.978125 166.864510026)scale(0.1 -0.1)">
       <use xlink:href="#BitstreamVeraSans-Roman-30"/>
       <use x="63.623046875" xlink:href="#BitstreamVeraSans-Roman-2e"/>
       <use x="95.41015625" xlink:href="#BitstreamVeraSans-Roman-31"/>
      </g>
     </g>
    </g>
    <g id="ytick_4">
     <g id="line2d_25">
      <defs>
       <path d="
M0 0
L4 0" id="m0d7c9f1c98"/>
      </defs>
      <g>
       <use style="stroke:#000000;stroke-linecap:butt;stroke-width:0.5;" x="29.2984375" xlink:href="#m0d7c9f1c98" y="79.0675082245"/>
      </g>
     </g>
     <g id="text_8">
      <!-- 0.2 -->
      <g transform="translate(11.05625 82.7073519745)scale(0.1 -0.1)">
       <use xlink:href="#BitstreamVeraSans-Roman-30"/>
       <use x="63.623046875" xlink:href="#BitstreamVeraSans-Roman-2e"/>
       <use x="95.41015625" xlink:href="#BitstreamVeraSans-Roman-32"/>
      </g>
     </g>
    </g>
    <g id="ytick_5">
     <g id="line2d_26">
      <defs>
       <path d="
M0 0
L2 0" id="m809fc4c4ed"/>
      </defs>
      <g>
       <use style="stroke:#000000;stroke-linecap:butt;stroke-width:0.5;" x="29.2984375" xlink:href="#m809fc4c4ed" y="398.86470882"/>
      </g>
     </g>
    </g>
    <g id="ytick_6">
     <g id="line2d_27">
      <defs>
       <path d="
M0 0
L2 0" id="m809fc4c4ed"/>
      </defs>
      <g>
       <use style="stroke:#000000;stroke-linecap:butt;stroke-width:0.5;" x="29.2984375" xlink:href="#m809fc4c4ed" y="382.03327721"/>
      </g>
     </g>
    </g>
    <g id="ytick_7">
     <g id="line2d_28">
      <defs>
       <path d="
M0 0
L2 0" id="m809fc4c4ed"/>
      </defs>
      <g>
       <use style="stroke:#000000;stroke-linecap:butt;stroke-width:0.5;" x="29.2984375" xlink:href="#m809fc4c4ed" y="365.2018456"/>
      </g>
     </g>
    </g>
    <g id="ytick_8">
     <g id="line2d_29">
      <defs>
       <path d="
M0 0
L2 0" id="m809fc4c4ed"/>
      </defs>
      <g>
       <use style="stroke:#000000;stroke-linecap:butt;stroke-width:0.5;" x="29.2984375" xlink:href="#m809fc4c4ed" y="348.37041399"/>
      </g>
     </g>
    </g>
    <g id="ytick_9">
     <g id="line2d_30">
      <defs>
       <path d="
M0 0
L2 0" id="m809fc4c4ed"/>
      </defs>
      <g>
       <use style="stroke:#000000;stroke-linecap:butt;stroke-width:0.5;" x="29.2984375" xlink:href="#m809fc4c4ed" y="314.707550769"/>
      </g>
     </g>
    </g>
    <g id="ytick_10">
     <g id="line2d_31">
      <defs>
       <path d="
M0 0
L2 0" id="m809fc4c4ed"/>
      </defs>
      <g>
       <use style="stroke:#000000;stroke-linecap:butt;stroke-width:0.5;" x="29.2984375" xlink:href="#m809fc4c4ed" y="297.876119159"/>
      </g>
     </g>
    </g>
    <g id="ytick_11">
     <g id="line2d_32">
      <defs>
       <path d="
M0 0
L2 0" id="m809fc4c4ed"/>
      </defs>
      <g>
       <use style="stroke:#000000;stroke-linecap:butt;stroke-width:0.5;" x="29.2984375" xlink:href="#m809fc4c4ed" y="281.044687548"/>
      </g>
     </g>
    </g>
    <g id="ytick_12">
     <g id="line2d_33">
      <defs>
       <path d="
M0 0
L2 0" id="m809fc4c4ed"/>
      </defs>
      <g>
       <use style="stroke:#000000;stroke-linecap:butt;stroke-width:0.5;" x="29.2984375" xlink:href="#m809fc4c4ed" y="264.213255938"/>
      </g>
     </g>
    </g>
    <g id="ytick_13">
     <g id="line2d_34">
      <defs>
       <path d="
M0 0
L2 0" id="m809fc4c4ed"/>
      </defs>
      <g>
       <use style="stroke:#000000;stroke-linecap:butt;stroke-width:0.5;" x="29.2984375" xlink:href="#m809fc4c4ed" y="247.381824328"/>
      </g>
     </g>
    </g>
    <g id="ytick_14">
     <g id="line2d_35">
      <defs>
       <path d="
M0 0
L2 0" id="m809fc4c4ed"/>
      </defs>
      <g>
       <use style="stroke:#000000;stroke-linecap:butt;stroke-width:0.5;" x="29.2984375" xlink:href="#m809fc4c4ed" y="230.550392717"/>
      </g>
     </g>
    </g>
    <g id="ytick_15">
     <g id="line2d_36">
      <defs>
       <path d="
M0 0
L2 0" id="m809fc4c4ed"/>
      </defs>
      <g>
       <use style="stroke:#000000;stroke-linecap:butt;stroke-width:0.5;" x="29.2984375" xlink:href="#m809fc4c4ed" y="213.718961107"/>
      </g>
     </g>
    </g>
    <g id="ytick_16">
     <g id="line2d_37">
      <defs>
       <path d="
M0 0
L2 0" id="m809fc4c4ed"/>
      </defs>
      <g>
       <use style="stroke:#000000;stroke-linecap:butt;stroke-width:0.5;" x="29.2984375" xlink:href="#m809fc4c4ed" y="196.887529497"/>
      </g>
     </g>
    </g>
    <g id="ytick_17">
     <g id="line2d_38">
      <defs>
       <path d="
M0 0
L2 0" id="m809fc4c4ed"/>
      </defs>
      <g>
       <use style="stroke:#000000;stroke-linecap:butt;stroke-width:0.5;" x="29.2984375" xlink:href="#m809fc4c4ed" y="180.056097886"/>
      </g>
     </g>
    </g>
    <g id="ytick_18">
     <g id="line2d_39">
      <defs>
       <path d="
M0 0
L2 0" id="m809fc4c4ed"/>
      </defs>
      <g>
       <use style="stroke:#000000;stroke-linecap:butt;stroke-width:0.5;" x="29.2984375" xlink:href="#m809fc4c4ed" y="146.393234666"/>
      </g>
     </g>
    </g>
    <g id="ytick_19">
     <g id="line2d_40">
      <defs>
       <path d="
M0 0
L2 0" id="m809fc4c4ed"/>
      </defs>
      <g>
       <use style="stroke:#000000;stroke-linecap:butt;stroke-width:0.5;" x="29.2984375" xlink:href="#m809fc4c4ed" y="129.561803055"/>
      </g>
     </g>
    </g>
    <g id="ytick_20">
     <g id="line2d_41">
      <defs>
       <path d="
M0 0
L2 0" id="m809fc4c4ed"/>
      </defs>
      <g>
       <use style="stroke:#000000;stroke-linecap:butt;stroke-width:0.5;" x="29.2984375" xlink:href="#m809fc4c4ed" y="112.730371445"/>
      </g>
     </g>
    </g>
    <g id="ytick_21">
     <g id="line2d_42">
      <defs>
       <path d="
M0 0
L2 0" id="m809fc4c4ed"/>
      </defs>
      <g>
       <use style="stroke:#000000;stroke-linecap:butt;stroke-width:0.5;" x="29.2984375" xlink:href="#m809fc4c4ed" y="95.8989398348"/>
      </g>
     </g>
    </g>
    <g id="ytick_22">
     <g id="line2d_43">
      <defs>
       <path d="
M0 0
L2 0" id="m809fc4c4ed"/>
      </defs>
      <g>
       <use style="stroke:#000000;stroke-linecap:butt;stroke-width:0.5;" x="29.2984375" xlink:href="#m809fc4c4ed" y="62.2360766142"/>
      </g>
     </g>
    </g>
    <g id="ytick_23">
     <g id="line2d_44">
      <defs>
       <path d="
M0 0
L2 0" id="m809fc4c4ed"/>
      </defs>
      <g>
       <use style="stroke:#000000;stroke-linecap:butt;stroke-width:0.5;" x="29.2984375" xlink:href="#m809fc4c4ed" y="45.4046450038"/>
      </g>
     </g>
    </g>
    <g id="ytick_24">
     <g id="line2d_45">
      <defs>
       <path d="
M0 0
L2 0" id="m809fc4c4ed"/>
      </defs>
      <g>
       <use style="stroke:#000000;stroke-linecap:butt;stroke-width:0.5;" x="29.2984375" xlink:href="#m809fc4c4ed" y="28.5732133935"/>
      </g>
     </g>
    </g>
   </g>
   <g id="patch_3">
    <path d="
M39.2984 247.382
L557.266 247.382" style="fill:none;stroke:#000000;stroke-width:0.8;"/>
   </g>
   <g id="patch_4">
    <path d="
M29.2984 413.28
L29.2984 7.2" style="fill:none;stroke:#000000;stroke-width:0.8;"/>
   </g>
  </g>
 </g>
 <defs>
  <clipPath id="pbda54c63f9">
   <rect height="406.08" width="517.9675" x="39.2984375" y="7.2"/>
  </clipPath>
 </defs>
</svg>
