<?xml version="1.0" encoding="utf-8" standalone="no"?>
<!DOCTYPE svg PUBLIC "-//W3C//DTD SVG 1.1//EN"
  "http://www.w3.org/Graphics/SVG/1.1/DTD/svg11.dtd">
<!-- Created with matplotlib (http://matplotlib.sourceforge.net/) -->
<svg height="420pt" version="1.1" viewBox="0 0 564 420" width="564pt" xmlns="http://www.w3.org/2000/svg" xmlns:xlink="http://www.w3.org/1999/xlink">
 <defs>
  <style type="text/css">
*{stroke-linecap:square;stroke-linejoin:round;}
  </style>
 </defs>
 <g id="figure_1">
  <g id="patch_1">
   <path d="
M-4.44089e-16 420.48
L564.466 420.48
L564.466 0
L-4.44089e-16 0
z
" style="fill:#ffffff;"/>
  </g>
  <g id="axes_1">
   <g id="patch_2">
    <path d="
M39.2984 413.28
L557.266 413.28
L557.266 7.2
L39.2984 7.2
z
" style="fill:#ffffff;"/>
   </g>
   <g id="line2d_1">
    <path clip-path="url(#pbda54c63f9)" d="
M49.2594 15.0092
L49.6201 16.8314
L49.7747 17.303
L49.8262 17.2822
L50.1869 16.8098
L50.2384 16.8461
L50.4446 17.435
L50.8568 20.5979
L52.1966 36.1934
L52.918 46.4238
L53.6395 60.6789
L54.8247 84.7814
L55.2885 92.7812
L55.9584 105.214
L56.5252 113.24
L56.8344 117.905
L57.5043 132.566
L59.1017 176.741
L59.6171 191.711
L61.9875 230.915
L64.8217 276.89
L66.3161 303.787
L66.9344 312.653
L67.3467 316.295
L68.7895 323.608
L69.1503 324.046
L69.3049 324.35
L69.511 325.235
L70.0263 328.602
L70.6447 334.738
L71.6753 346.77
L71.9845 353.574
L72.1906 357.57
L72.4482 358.652
L72.5513 358.692
L72.7059 358.237
L73.7365 352.364
L74.2003 349.746
L74.7671 348.396
L75.1794 348.599
L75.334 349.028
L75.6431 350.047
L75.9523 350.834
L76.5192 353.107
L76.8284 355.248
L78.5289 371.76
L79.0442 376.227
L79.9202 380.752
L80.5901 385.219
L80.8478 384.789
L81.1054 383.975
L81.4146 381.777
L82.2906 373.02
L84.5065 351.391
L85.3825 345.003
L85.8463 341.81
L87.5983 330.503
L89.9687 317.265
L90.2264 317.008
L90.2779 317.078
L90.5871 317.26
L90.9993 316.719
L91.1539 316.591
L91.3085 316.791
L91.5662 317.546
L91.8754 319.535
L92.3391 320.419
L92.4937 320.735
L92.6483 321.193
L92.8545 321.213
L92.9575 321.048
L93.2152 319.972
L94.1943 316.185
L94.658 312.597
L95.1218 308.879
L95.6371 306.345
L95.7402 306.348
L95.8432 306.594
L95.8948 306.432
L96.1009 305.634
L96.9769 303.604
L97.4407 301.898
L98.3167 296.238
L99.4504 286.494
L100.172 280.597
L102.388 259.197
L102.851 255.485
L103.058 254.168
L103.315 253.73
L103.47 253.767
L103.676 253.999
L104.088 255.307
L105.17 260.354
L105.995 265.629
L106.304 266.877
L106.665 268.852
L107.695 272.711
L108.056 273.695
L108.262 274.788
L108.571 275.749
L109.035 276.113
L109.19 276.016
L109.86 275.172
L109.963 274.953
L110.117 274.599
L110.22 274.668
L110.323 275.071
L110.633 275.789
L111.199 276.754
L111.457 276.811
L111.818 276.594
L112.024 275.981
L112.333 274.831
L112.694 274.236
L113.106 273.24
L113.879 270.55
L114.24 269.227
L114.549 268.311
L115.58 263.85
L115.837 262.905
L116.249 261.634
L116.662 261.022
L116.868 261.1
L117.022 261.291
L117.28 262.042
L117.486 263.587
L118.053 267.739
L118.929 275.039
L119.754 281.979
L120.99 290.57
L121.454 293.162
L122.536 300.164
L123.258 302.516
L123.824 303.476
L124.031 303.729
L124.443 304.616
L124.494 304.505
L124.649 304.421
L124.804 304.577
L125.37 306.921
L126.556 312.151
L126.916 312.651
L127.535 313.572
L127.741 313.354
L127.947 312.913
L128.514 311.98
L128.668 311.175
L128.875 310.482
L129.235 310.184
L129.751 310.409
L130.163 310.181
L130.627 310.749
L133.152 318.053
L133.461 318.915
L134.543 322.405
L136.707 329.432
L137.738 333.815
L138.975 338.193
L139.284 338.633
L139.593 338.608
L139.799 338.386
L139.902 337.963
L140.417 335.594
L141.036 333.52
L141.397 332.311
L141.963 329.236
L142.53 326.103
L143.87 321.039
L145.313 318.494
L145.571 318.324
L145.777 318.301
L146.034 318.496
L146.343 318.767
L147.116 319.984
L147.426 320.432
L147.735 320.687
L147.941 320.427
L148.147 319.884
L148.25 319.158
L148.611 316.037
L149.178 313.463
L150.208 309.486
L150.775 308.103
L151.136 307.633
L151.651 307.226
L152.939 304.902
L153.3 303.958
L153.919 301.462
L155.877 292.301
L158.144 284.188
L158.814 282.176
L160.566 277.19
L160.927 276.079
L161.597 272.184
L162.679 267.893
L163.297 266.129
L163.658 265.494
L164.379 264.855
L165.564 263.297
L166.337 262.285
L167.059 261.258
L167.574 260.964
L168.553 261.267
L169.893 262.498
L170.408 263.691
L170.872 264.587
L171.13 264.818
L171.491 264.86
L172.006 265.265
L172.367 265.751
L173.036 267.321
L173.964 269.844
L174.685 272.308
L175.458 275.461
L176.695 281.315
L177.983 288.142
L179.169 295.452
L180.405 304.387
L181.848 316.751
L183.446 332.346
L184.837 348.116
L186.177 366.088
L187.259 383.572
L188.032 399.589
L188.238 405.471
L188.29 405.325
L188.753 393.002
L189.629 375.939
L190.763 358.281
L192 342.278
L193.34 327.788
L194.782 314.542
L196.277 302.859
L197.514 295.065
L198.853 288.135
L200.142 282.67
L201.172 278.851
L202.358 275.4
L203.182 273.663
L204.264 272.007
L204.625 271.822
L205.243 271.746
L205.604 271.77
L206.222 270.991
L206.841 270.253
L207.304 270.064
L208.696 270.057
L209.417 270.518
L209.881 271.094
L211.118 272.811
L211.53 273.323
L212.148 274.232
L212.715 274.824
L213.024 275.144
L213.488 276.051
L213.952 277.296
L215.034 280.735
L215.498 282.743
L215.807 283.803
L216.322 284.73
L217.044 286.249
L221.527 297.627
L223.331 302.777
L223.794 303.398
L225.289 304.746
L225.701 304.994
L226.216 305.677
L226.732 306.731
L227.711 309.068
L228.02 310.053
L228.587 312.133
L228.793 312.248
L229.05 312.096
L230.751 310.56
L231.009 310.554
L231.576 310.801
L231.988 311.144
L232.452 311.599
L233.173 312.703
L233.843 314.078
L234.307 315.176
L235.286 317.792
L236.213 319.214
L236.883 320.364
L237.295 320.266
L237.605 319.879
L238.378 318.323
L239.46 315.813
L240.748 313.069
L241.572 311.703
L242.5 310.105
L244.716 306.837
L245.85 305.136
L246.159 304.832
L246.571 304.804
L247.035 304.802
L247.55 304.766
L247.808 304.993
L248.117 305.558
L248.993 306.087
L249.251 306.01
L250.59 304.481
L251.054 303.289
L251.621 302.21
L251.879 301.978
L252.239 301.857
L253.682 300.697
L254.558 299.013
L255.692 296.063
L256.465 294.076
L258.062 288.982
L259.454 285.69
L259.763 285.631
L259.969 285.71
L260.484 286.211
L261.412 287.5
L262.236 289.095
L262.597 289.586
L263.164 290.426
L263.885 291.2
L264.401 291.664
L264.761 292.143
L265.328 292.243
L266.101 291.877
L266.513 291.717
L266.72 291.934
L267.647 292.318
L268.059 292.219
L268.317 291.893
L268.626 291.54
L269.657 290.619
L271.203 288.378
L271.563 287.764
L272.903 286.434
L273.264 286.493
L273.573 286.822
L273.882 287.726
L277.077 296.436
L277.902 298.189
L278.572 299.873
L279.242 300.829
L280.015 301.391
L280.581 301.723
L280.684 301.843
L280.736 301.799
L280.994 301.798
L281.2 302.076
L282.849 304.75
L283.931 305.232
L284.858 304.543
L285.065 304.147
L285.683 304.092
L286.198 304.085
L286.507 304.077
L286.817 304.225
L291.557 309.963
L292.176 310.705
L292.588 311.236
L292.949 311.934
L294.031 313.856
L295.577 315.856
L295.989 315.82
L296.144 315.619
L296.659 314.694
L297.329 313.84
L297.741 313.234
L298.308 311.915
L298.978 310.602
L300.163 308.854
L301.503 307.9
L302.121 307.884
L302.688 308.14
L303.203 308.526
L303.719 308.831
L304.028 308.904
L304.286 308.721
L304.44 308.488
L304.955 306.74
L306.244 304.489
L306.759 303.836
L307.223 303.471
L308.666 302.681
L309.902 301.291
L310.263 300.528
L312.479 296.083
L313.51 294.448
L314.952 292.27
L317.271 288.953
L317.89 287.389
L319.229 285
L319.899 284.33
L320.775 283.876
L323.816 281.974
L324.949 282.102
L326.392 282.77
L327.268 283.551
L327.784 283.544
L328.505 283.825
L328.969 284.285
L330.051 285.543
L331.133 287.265
L332.524 290.163
L334.534 295.253
L335.977 299.802
L337.162 304.313
L338.811 311.648
L340.357 319.657
L341.645 327.533
L342.831 336.096
L343.81 344.733
L344.428 352.026
L344.48 352.882
L344.531 352.718
L344.995 346.644
L345.871 338.212
L347.005 329.452
L348.293 321.169
L349.684 313.688
L351.179 306.848
L352.621 301.192
L353.91 297.104
L355.198 293.718
L356.795 290.268
L357.929 288.228
L358.805 287.009
L360.042 285.785
L360.66 285.353
L361.433 285.235
L361.897 285.207
L362.515 284.757
L363.185 284.351
L363.804 284.263
L365.453 284.316
L366.071 284.672
L369.884 287.415
L371.224 289.607
L371.739 290.78
L372.049 291.342
L372.667 291.929
L373.337 292.709
L374.831 294.559
L376.48 296.785
L378.026 299.266
L379.16 301.144
L379.933 301.904
L381.427 302.698
L381.994 302.886
L382.664 303.439
L383.849 304.975
L384.364 305.952
L384.777 306.821
L385.137 306.902
L385.962 306.531
L386.683 306.091
L387.456 306.032
L387.869 306.185
L389.26 307.047
L390.857 309.219
L391.424 310.049
L391.94 310.44
L392.558 311.095
L393.073 311.639
L393.588 311.571
L394.001 311.216
L396.99 307.558
L397.917 306.666
L399.102 305.553
L400.081 304.772
L402.658 302.837
L404.049 302.984
L404.41 303.334
L405.595 303.511
L406.059 303.28
L406.368 303.106
L406.677 302.848
L407.193 302.174
L407.553 301.71
L408.12 301.239
L408.584 301.123
L409.718 300.638
L410.233 300.188
L410.645 299.719
L411.109 298.88
L411.727 297.992
L412.243 297.308
L412.861 296.276
L414.562 293.14
L415.592 291.642
L416.004 291.559
L416.314 291.649
L416.932 292.086
L417.447 292.477
L417.756 292.808
L418.375 293.524
L419.045 294.082
L420.075 294.806
L420.642 295.1
L421.003 295.38
L421.673 295.41
L422.858 295.201
L423.889 295.461
L424.352 295.37
L426.311 294.093
L426.877 293.659
L427.238 293.327
L427.908 292.61
L428.423 292.211
L428.939 291.917
L429.402 291.853
L429.763 292.026
L430.021 292.444
L430.845 293.7
L431.464 294.844
L432.803 297.189
L435.38 300.52
L436.153 300.899
L437.184 301.172
L437.39 301.299
L439.039 302.98
L439.966 303.331
L440.275 303.239
L441.203 302.718
L441.461 302.601
L441.821 302.591
L442.337 302.619
L442.955 302.648
L443.316 302.91
L446.614 305.322
L448.005 306.489
L449.139 307.478
L450.324 308.803
L451.767 310.023
L452.282 309.992
L452.488 309.753
L453.57 308.783
L454.034 308.343
L454.704 307.355
L455.168 306.812
L456.456 305.641
L457.59 305.108
L458.311 305.054
L459.754 305.584
L460.166 305.736
L460.476 305.646
L460.682 305.463
L461.197 304.356
L462.588 302.827
L463.31 302.35
L463.825 302.22
L464.392 302.02
L466.195 300.843
L466.865 299.926
L469.133 297.121
L472.998 293.525
L473.41 293.149
L474.028 292.055
L475.007 290.843
L475.832 290.078
L476.296 289.878
L476.914 289.656
L478.511 288.955
L480.16 288.33
L481.139 288.387
L482.634 288.815
L483.561 289.305
L484.283 289.352
L485.004 289.626
L486.653 290.918
L487.787 292.224
L488.869 293.763
L490.673 296.747
L492.115 299.709
L493.352 302.787
L495.001 307.629
L496.547 312.932
L497.835 318.152
L499.021 323.831
L500 329.542
L500.618 334.267
L500.721 335.354
L500.773 335.182
L501.288 330.784
L502.164 325.272
L503.349 319.262
L504.689 313.626
L506.08 308.726
L507.626 304.073
L509.069 300.384
L510.357 297.717
L511.646 295.503
L513.449 292.948
L514.634 291.644
L515.51 290.917
L516.335 290.402
L516.953 290.126
L517.778 290.058
L518.19 290.006
L518.912 289.625
L519.581 289.399
L521.076 289.308
L521.849 289.436
L522.725 289.852
L523.807 290.293
L525.868 291.255
L526.59 291.931
L527.311 292.76
L527.929 293.658
L528.29 294.133
L533.237 298.357
L534.474 299.802
L535.917 301.252
L536.793 301.646
L538.39 302.122
L539.06 302.578
L540.451 303.922
L541.121 304.832
L541.482 304.817
L543.492 304.229
L544.471 304.473
L545.295 304.821
L545.914 305.32
L546.687 305.967
L547.305 306.726
L547.305 306.726" style="fill:none;stroke:#0000ff;"/>
   </g>
   <g id="matplotlib.axis_1">
    <g id="xtick_1">
     <g id="line2d_2">
      <defs>
       <path d="
M0 0
L0 -4" id="md8611edf28"/>
      </defs>
      <g>
       <use style="stroke:#000000;stroke-linecap:butt;stroke-width:0.5;" x="156.354338713" xlink:href="#md8611edf28" y="300.201140365"/>
      </g>
     </g>
     <g id="text_1">
      <!-- 5 -->
      <defs>
       <path d="
M10.7969 72.9062
L49.5156 72.9062
L49.5156 64.5938
L19.8281 64.5938
L19.8281 46.7344
Q21.9688 47.4688 24.1094 47.8281
Q26.2656 48.1875 28.4219 48.1875
Q40.625 48.1875 47.75 41.5
Q54.8906 34.8125 54.8906 23.3906
Q54.8906 11.625 47.5625 5.09375
Q40.2344 -1.42188 26.9062 -1.42188
Q22.3125 -1.42188 17.5469 -0.640625
Q12.7969 0.140625 7.71875 1.70312
L7.71875 11.625
Q12.1094 9.23438 16.7969 8.0625
Q21.4844 6.89062 26.7031 6.89062
Q35.1562 6.89062 40.0781 11.3281
Q45.0156 15.7656 45.0156 23.3906
Q45.0156 31 40.0781 35.4375
Q35.1562 39.8906 26.7031 39.8906
Q22.75 39.8906 18.8125 39.0156
Q14.8906 38.1406 10.7969 36.2812
z
" id="BitstreamVeraSans-Roman-35"/>
      </defs>
      <g transform="translate(153.995744963 311.491765365)scale(0.1 -0.1)">
       <use xlink:href="#BitstreamVeraSans-Roman-35"/>
      </g>
     </g>
    </g>
    <g id="xtick_2">
     <g id="line2d_3">
      <defs>
       <path d="
M0 0
L0 -4" id="md8611edf28"/>
      </defs>
      <g>
       <use style="stroke:#000000;stroke-linecap:butt;stroke-width:0.5;" x="280.685250683" xlink:href="#md8611edf28" y="300.201140365"/>
      </g>
     </g>
     <g id="text_2">
      <!-- 10 -->
      <defs>
       <path d="
M31.7812 66.4062
Q24.1719 66.4062 20.3281 58.9062
Q16.5 51.4219 16.5 36.375
Q16.5 21.3906 20.3281 13.8906
Q24.1719 6.39062 31.7812 6.39062
Q39.4531 6.39062 43.2812 13.8906
Q47.125 21.3906 47.125 36.375
Q47.125 51.4219 43.2812 58.9062
Q39.4531 66.4062 31.7812 66.4062
M31.7812 74.2188
Q44.0469 74.2188 50.5156 64.5156
Q56.9844 54.8281 56.9844 36.375
Q56.9844 17.9688 50.5156 8.26562
Q44.0469 -1.42188 31.7812 -1.42188
Q19.5312 -1.42188 13.0625 8.26562
Q6.59375 17.9688 6.59375 36.375
Q6.59375 54.8281 13.0625 64.5156
Q19.5312 74.2188 31.7812 74.2188" id="BitstreamVeraSans-Roman-30"/>
       <path d="
M12.4062 8.29688
L28.5156 8.29688
L28.5156 63.9219
L10.9844 60.4062
L10.9844 69.3906
L28.4219 72.9062
L38.2812 72.9062
L38.2812 8.29688
L54.3906 8.29688
L54.3906 0
L12.4062 0
z
" id="BitstreamVeraSans-Roman-31"/>
      </defs>
      <g transform="translate(275.204000683 311.623015365)scale(0.1 -0.1)">
       <use xlink:href="#BitstreamVeraSans-Roman-31"/>
       <use x="63.623046875" xlink:href="#BitstreamVeraSans-Roman-30"/>
      </g>
     </g>
    </g>
    <g id="xtick_3">
     <g id="line2d_4">
      <defs>
       <path d="
M0 0
L0 -4" id="md8611edf28"/>
      </defs>
      <g>
       <use style="stroke:#000000;stroke-linecap:butt;stroke-width:0.5;" x="405.016162652" xlink:href="#md8611edf28" y="300.201140365"/>
      </g>
     </g>
     <g id="text_3">
      <!-- 15 -->
      <g transform="translate(399.639600152 311.491765365)scale(0.1 -0.1)">
       <use xlink:href="#BitstreamVeraSans-Roman-31"/>
       <use x="63.623046875" xlink:href="#BitstreamVeraSans-Roman-35"/>
      </g>
     </g>
    </g>
    <g id="xtick_4">
     <g id="line2d_5">
      <defs>
       <path d="
M0 0
L0 -4" id="md8611edf28"/>
      </defs>
      <g>
       <use style="stroke:#000000;stroke-linecap:butt;stroke-width:0.5;" x="529.347074621" xlink:href="#md8611edf28" y="300.201140365"/>
      </g>
     </g>
     <g id="text_4">
      <!-- 20 -->
      <defs>
       <path d="
M19.1875 8.29688
L53.6094 8.29688
L53.6094 0
L7.32812 0
L7.32812 8.29688
Q12.9375 14.1094 22.625 23.8906
Q32.3281 33.6875 34.8125 36.5312
Q39.5469 41.8438 41.4219 45.5312
Q43.3125 49.2188 43.3125 52.7812
Q43.3125 58.5938 39.2344 62.25
Q35.1562 65.9219 28.6094 65.9219
Q23.9688 65.9219 18.8125 64.3125
Q13.6719 62.7031 7.8125 59.4219
L7.8125 69.3906
Q13.7656 71.7812 18.9375 73
Q24.125 74.2188 28.4219 74.2188
Q39.75 74.2188 46.4844 68.5469
Q53.2188 62.8906 53.2188 53.4219
Q53.2188 48.9219 51.5312 44.8906
Q49.8594 40.875 45.4062 35.4062
Q44.1875 33.9844 37.6406 27.2188
Q31.1094 20.4531 19.1875 8.29688" id="BitstreamVeraSans-Roman-32"/>
      </defs>
      <g transform="translate(523.683012121 311.623015365)scale(0.1 -0.1)">
       <use xlink:href="#BitstreamVeraSans-Roman-32"/>
       <use x="63.623046875" xlink:href="#BitstreamVeraSans-Roman-30"/>
      </g>
     </g>
    </g>
    <g id="xtick_5">
     <g id="line2d_6">
      <defs>
       <path d="
M0 0
L0 -2" id="m5ce78124e0"/>
      </defs>
      <g>
       <use style="stroke:#000000;stroke-linecap:butt;stroke-width:0.5;" x="56.8896091378" xlink:href="#m5ce78124e0" y="300.201140365"/>
      </g>
     </g>
    </g>
    <g id="xtick_6">
     <g id="line2d_7">
      <defs>
       <path d="
M0 0
L0 -2" id="m5ce78124e0"/>
      </defs>
      <g>
       <use style="stroke:#000000;stroke-linecap:butt;stroke-width:0.5;" x="81.7557915317" xlink:href="#m5ce78124e0" y="300.201140365"/>
      </g>
     </g>
    </g>
    <g id="xtick_7">
     <g id="line2d_8">
      <defs>
       <path d="
M0 0
L0 -2" id="m5ce78124e0"/>
      </defs>
      <g>
       <use style="stroke:#000000;stroke-linecap:butt;stroke-width:0.5;" x="106.621973926" xlink:href="#m5ce78124e0" y="300.201140365"/>
      </g>
     </g>
    </g>
    <g id="xtick_8">
     <g id="line2d_9">
      <defs>
       <path d="
M0 0
L0 -2" id="m5ce78124e0"/>
      </defs>
      <g>
       <use style="stroke:#000000;stroke-linecap:butt;stroke-width:0.5;" x="131.488156319" xlink:href="#m5ce78124e0" y="300.201140365"/>
      </g>
     </g>
    </g>
    <g id="xtick_9">
     <g id="line2d_10">
      <defs>
       <path d="
M0 0
L0 -2" id="m5ce78124e0"/>
      </defs>
      <g>
       <use style="stroke:#000000;stroke-linecap:butt;stroke-width:0.5;" x="181.220521107" xlink:href="#m5ce78124e0" y="300.201140365"/>
      </g>
     </g>
    </g>
    <g id="xtick_10">
     <g id="line2d_11">
      <defs>
       <path d="
M0 0
L0 -2" id="m5ce78124e0"/>
      </defs>
      <g>
       <use style="stroke:#000000;stroke-linecap:butt;stroke-width:0.5;" x="206.086703501" xlink:href="#m5ce78124e0" y="300.201140365"/>
      </g>
     </g>
    </g>
    <g id="xtick_11">
     <g id="line2d_12">
      <defs>
       <path d="
M0 0
L0 -2" id="m5ce78124e0"/>
      </defs>
      <g>
       <use style="stroke:#000000;stroke-linecap:butt;stroke-width:0.5;" x="230.952885895" xlink:href="#m5ce78124e0" y="300.201140365"/>
      </g>
     </g>
    </g>
    <g id="xtick_12">
     <g id="line2d_13">
      <defs>
       <path d="
M0 0
L0 -2" id="m5ce78124e0"/>
      </defs>
      <g>
       <use style="stroke:#000000;stroke-linecap:butt;stroke-width:0.5;" x="255.819068289" xlink:href="#m5ce78124e0" y="300.201140365"/>
      </g>
     </g>
    </g>
    <g id="xtick_13">
     <g id="line2d_14">
      <defs>
       <path d="
M0 0
L0 -2" id="m5ce78124e0"/>
      </defs>
      <g>
       <use style="stroke:#000000;stroke-linecap:butt;stroke-width:0.5;" x="305.551433077" xlink:href="#m5ce78124e0" y="300.201140365"/>
      </g>
     </g>
    </g>
    <g id="xtick_14">
     <g id="line2d_15">
      <defs>
       <path d="
M0 0
L0 -2" id="m5ce78124e0"/>
      </defs>
      <g>
       <use style="stroke:#000000;stroke-linecap:butt;stroke-width:0.5;" x="330.41761547" xlink:href="#m5ce78124e0" y="300.201140365"/>
      </g>
     </g>
    </g>
    <g id="xtick_15">
     <g id="line2d_16">
      <defs>
       <path d="
M0 0
L0 -2" id="m5ce78124e0"/>
      </defs>
      <g>
       <use style="stroke:#000000;stroke-linecap:butt;stroke-width:0.5;" x="355.283797864" xlink:href="#m5ce78124e0" y="300.201140365"/>
      </g>
     </g>
    </g>
    <g id="xtick_16">
     <g id="line2d_17">
      <defs>
       <path d="
M0 0
L0 -2" id="m5ce78124e0"/>
      </defs>
      <g>
       <use style="stroke:#000000;stroke-linecap:butt;stroke-width:0.5;" x="380.149980258" xlink:href="#m5ce78124e0" y="300.201140365"/>
      </g>
     </g>
    </g>
    <g id="xtick_17">
     <g id="line2d_18">
      <defs>
       <path d="
M0 0
L0 -2" id="m5ce78124e0"/>
      </defs>
      <g>
       <use style="stroke:#000000;stroke-linecap:butt;stroke-width:0.5;" x="429.882345046" xlink:href="#m5ce78124e0" y="300.201140365"/>
      </g>
     </g>
    </g>
    <g id="xtick_18">
     <g id="line2d_19">
      <defs>
       <path d="
M0 0
L0 -2" id="m5ce78124e0"/>
      </defs>
      <g>
       <use style="stroke:#000000;stroke-linecap:butt;stroke-width:0.5;" x="454.74852744" xlink:href="#m5ce78124e0" y="300.201140365"/>
      </g>
     </g>
    </g>
    <g id="xtick_19">
     <g id="line2d_20">
      <defs>
       <path d="
M0 0
L0 -2" id="m5ce78124e0"/>
      </defs>
      <g>
       <use style="stroke:#000000;stroke-linecap:butt;stroke-width:0.5;" x="479.614709834" xlink:href="#m5ce78124e0" y="300.201140365"/>
      </g>
     </g>
    </g>
    <g id="xtick_20">
     <g id="line2d_21">
      <defs>
       <path d="
M0 0
L0 -2" id="m5ce78124e0"/>
      </defs>
      <g>
       <use style="stroke:#000000;stroke-linecap:butt;stroke-width:0.5;" x="504.480892228" xlink:href="#m5ce78124e0" y="300.201140365"/>
      </g>
     </g>
    </g>
   </g>
   <g id="matplotlib.axis_2">
    <g id="ytick_1">
     <g id="line2d_22">
      <defs>
       <path d="
M0 0
L4 0" id="m45aa5b7ee2"/>
      </defs>
      <g>
       <use style="stroke:#000000;stroke-linecap:butt;stroke-width:0.5;" x="29.2984375" xlink:href="#m45aa5b7ee2" y="375.649716641"/>
      </g>
     </g>
     <g id="text_5">
      <!-- -0.1 -->
      <defs>
       <path d="
M10.6875 12.4062
L21 12.4062
L21 0
L10.6875 0
z
" id="BitstreamVeraSans-Roman-2e"/>
       <path d="
M4.89062 31.3906
L31.2031 31.3906
L31.2031 23.3906
L4.89062 23.3906
z
" id="BitstreamVeraSans-Roman-2d"/>
      </defs>
      <g transform="translate(7.2 379.289560391)scale(0.1 -0.1)">
       <use xlink:href="#BitstreamVeraSans-Roman-2d"/>
       <use x="36.083984375" xlink:href="#BitstreamVeraSans-Roman-30"/>
       <use x="99.70703125" xlink:href="#BitstreamVeraSans-Roman-2e"/>
       <use x="131.494140625" xlink:href="#BitstreamVeraSans-Roman-31"/>
      </g>
     </g>
    </g>
    <g id="ytick_2">
     <g id="line2d_23">
      <defs>
       <path d="
M0 0
L4 0" id="m45aa5b7ee2"/>
      </defs>
      <g>
       <use style="stroke:#000000;stroke-linecap:butt;stroke-width:0.5;" x="29.2984375" xlink:href="#m45aa5b7ee2" y="300.201140365"/>
      </g>
     </g>
     <g id="text_6">
      <!-- 0 -->
      <g transform="translate(20.259375 303.840984115)scale(0.1 -0.1)">
       <use xlink:href="#BitstreamVeraSans-Roman-30"/>
      </g>
     </g>
    </g>
    <g id="ytick_3">
     <g id="line2d_24">
      <defs>
       <path d="
M0 0
L4 0" id="m45aa5b7ee2"/>
      </defs>
      <g>
       <use style="stroke:#000000;stroke-linecap:butt;stroke-width:0.5;" x="29.2984375" xlink:href="#m45aa5b7ee2" y="224.752564089"/>
      </g>
     </g>
     <g id="text_7">
      <!-- 0.1 -->
      <g transform="translate(10.978125 228.392407839)scale(0.1 -0.1)">
       <use xlink:href="#BitstreamVeraSans-Roman-30"/>
       <use x="63.623046875" xlink:href="#BitstreamVeraSans-Roman-2e"/>
       <use x="95.41015625" xlink:href="#BitstreamVeraSans-Roman-31"/>
      </g>
     </g>
    </g>
    <g id="ytick_4">
     <g id="line2d_25">
      <defs>
       <path d="
M0 0
L4 0" id="m45aa5b7ee2"/>
      </defs>
      <g>
       <use style="stroke:#000000;stroke-linecap:butt;stroke-width:0.5;" x="29.2984375" xlink:href="#m45aa5b7ee2" y="149.303987814"/>
      </g>
     </g>
     <g id="text_8">
      <!-- 0.2 -->
      <g transform="translate(11.05625 152.943831564)scale(0.1 -0.1)">
       <use xlink:href="#BitstreamVeraSans-Roman-30"/>
       <use x="63.623046875" xlink:href="#BitstreamVeraSans-Roman-2e"/>
       <use x="95.41015625" xlink:href="#BitstreamVeraSans-Roman-32"/>
      </g>
     </g>
    </g>
    <g id="ytick_5">
     <g id="line2d_26">
      <defs>
       <path d="
M0 0
L4 0" id="m45aa5b7ee2"/>
      </defs>
      <g>
       <use style="stroke:#000000;stroke-linecap:butt;stroke-width:0.5;" x="29.2984375" xlink:href="#m45aa5b7ee2" y="73.855411538"/>
      </g>
     </g>
     <g id="text_9">
      <!-- 0.3 -->
      <defs>
       <path d="
M40.5781 39.3125
Q47.6562 37.7969 51.625 33
Q55.6094 28.2188 55.6094 21.1875
Q55.6094 10.4062 48.1875 4.48438
Q40.7656 -1.42188 27.0938 -1.42188
Q22.5156 -1.42188 17.6562 -0.515625
Q12.7969 0.390625 7.625 2.20312
L7.625 11.7188
Q11.7188 9.32812 16.5938 8.10938
Q21.4844 6.89062 26.8125 6.89062
Q36.0781 6.89062 40.9375 10.5469
Q45.7969 14.2031 45.7969 21.1875
Q45.7969 27.6406 41.2812 31.2656
Q36.7656 34.9062 28.7188 34.9062
L20.2188 34.9062
L20.2188 43.0156
L29.1094 43.0156
Q36.375 43.0156 40.2344 45.9219
Q44.0938 48.8281 44.0938 54.2969
Q44.0938 59.9062 40.1094 62.9062
Q36.1406 65.9219 28.7188 65.9219
Q24.6562 65.9219 20.0156 65.0312
Q15.375 64.1562 9.8125 62.3125
L9.8125 71.0938
Q15.4375 72.6562 20.3438 73.4375
Q25.25 74.2188 29.5938 74.2188
Q40.8281 74.2188 47.3594 69.1094
Q53.9062 64.0156 53.9062 55.3281
Q53.9062 49.2656 50.4375 45.0938
Q46.9688 40.9219 40.5781 39.3125" id="BitstreamVeraSans-Roman-33"/>
      </defs>
      <g transform="translate(10.85625 77.495255288)scale(0.1 -0.1)">
       <use xlink:href="#BitstreamVeraSans-Roman-30"/>
       <use x="63.623046875" xlink:href="#BitstreamVeraSans-Roman-2e"/>
       <use x="95.41015625" xlink:href="#BitstreamVeraSans-Roman-33"/>
      </g>
     </g>
    </g>
    <g id="ytick_6">
     <g id="line2d_27">
      <defs>
       <path d="
M0 0
L2 0" id="mdbd77b0c65"/>
      </defs>
      <g>
       <use style="stroke:#000000;stroke-linecap:butt;stroke-width:0.5;" x="29.2984375" xlink:href="#mdbd77b0c65" y="405.829147151"/>
      </g>
     </g>
    </g>
    <g id="ytick_7">
     <g id="line2d_28">
      <defs>
       <path d="
M0 0
L2 0" id="mdbd77b0c65"/>
      </defs>
      <g>
       <use style="stroke:#000000;stroke-linecap:butt;stroke-width:0.5;" x="29.2984375" xlink:href="#mdbd77b0c65" y="390.739431896"/>
      </g>
     </g>
    </g>
    <g id="ytick_8">
     <g id="line2d_29">
      <defs>
       <path d="
M0 0
L2 0" id="mdbd77b0c65"/>
      </defs>
      <g>
       <use style="stroke:#000000;stroke-linecap:butt;stroke-width:0.5;" x="29.2984375" xlink:href="#mdbd77b0c65" y="360.560001385"/>
      </g>
     </g>
    </g>
    <g id="ytick_9">
     <g id="line2d_30">
      <defs>
       <path d="
M0 0
L2 0" id="mdbd77b0c65"/>
      </defs>
      <g>
       <use style="stroke:#000000;stroke-linecap:butt;stroke-width:0.5;" x="29.2984375" xlink:href="#mdbd77b0c65" y="345.47028613"/>
      </g>
     </g>
    </g>
    <g id="ytick_10">
     <g id="line2d_31">
      <defs>
       <path d="
M0 0
L2 0" id="mdbd77b0c65"/>
      </defs>
      <g>
       <use style="stroke:#000000;stroke-linecap:butt;stroke-width:0.5;" x="29.2984375" xlink:href="#mdbd77b0c65" y="330.380570875"/>
      </g>
     </g>
    </g>
    <g id="ytick_11">
     <g id="line2d_32">
      <defs>
       <path d="
M0 0
L2 0" id="mdbd77b0c65"/>
      </defs>
      <g>
       <use style="stroke:#000000;stroke-linecap:butt;stroke-width:0.5;" x="29.2984375" xlink:href="#mdbd77b0c65" y="315.29085562"/>
      </g>
     </g>
    </g>
    <g id="ytick_12">
     <g id="line2d_33">
      <defs>
       <path d="
M0 0
L2 0" id="mdbd77b0c65"/>
      </defs>
      <g>
       <use style="stroke:#000000;stroke-linecap:butt;stroke-width:0.5;" x="29.2984375" xlink:href="#mdbd77b0c65" y="285.11142511"/>
      </g>
     </g>
    </g>
    <g id="ytick_13">
     <g id="line2d_34">
      <defs>
       <path d="
M0 0
L2 0" id="mdbd77b0c65"/>
      </defs>
      <g>
       <use style="stroke:#000000;stroke-linecap:butt;stroke-width:0.5;" x="29.2984375" xlink:href="#mdbd77b0c65" y="270.021709855"/>
      </g>
     </g>
    </g>
    <g id="ytick_14">
     <g id="line2d_35">
      <defs>
       <path d="
M0 0
L2 0" id="mdbd77b0c65"/>
      </defs>
      <g>
       <use style="stroke:#000000;stroke-linecap:butt;stroke-width:0.5;" x="29.2984375" xlink:href="#mdbd77b0c65" y="254.9319946"/>
      </g>
     </g>
    </g>
    <g id="ytick_15">
     <g id="line2d_36">
      <defs>
       <path d="
M0 0
L2 0" id="mdbd77b0c65"/>
      </defs>
      <g>
       <use style="stroke:#000000;stroke-linecap:butt;stroke-width:0.5;" x="29.2984375" xlink:href="#mdbd77b0c65" y="239.842279344"/>
      </g>
     </g>
    </g>
    <g id="ytick_16">
     <g id="line2d_37">
      <defs>
       <path d="
M0 0
L2 0" id="mdbd77b0c65"/>
      </defs>
      <g>
       <use style="stroke:#000000;stroke-linecap:butt;stroke-width:0.5;" x="29.2984375" xlink:href="#mdbd77b0c65" y="209.662848834"/>
      </g>
     </g>
    </g>
    <g id="ytick_17">
     <g id="line2d_38">
      <defs>
       <path d="
M0 0
L2 0" id="mdbd77b0c65"/>
      </defs>
      <g>
       <use style="stroke:#000000;stroke-linecap:butt;stroke-width:0.5;" x="29.2984375" xlink:href="#mdbd77b0c65" y="194.573133579"/>
      </g>
     </g>
    </g>
    <g id="ytick_18">
     <g id="line2d_39">
      <defs>
       <path d="
M0 0
L2 0" id="mdbd77b0c65"/>
      </defs>
      <g>
       <use style="stroke:#000000;stroke-linecap:butt;stroke-width:0.5;" x="29.2984375" xlink:href="#mdbd77b0c65" y="179.483418324"/>
      </g>
     </g>
    </g>
    <g id="ytick_19">
     <g id="line2d_40">
      <defs>
       <path d="
M0 0
L2 0" id="mdbd77b0c65"/>
      </defs>
      <g>
       <use style="stroke:#000000;stroke-linecap:butt;stroke-width:0.5;" x="29.2984375" xlink:href="#mdbd77b0c65" y="164.393703069"/>
      </g>
     </g>
    </g>
    <g id="ytick_20">
     <g id="line2d_41">
      <defs>
       <path d="
M0 0
L2 0" id="mdbd77b0c65"/>
      </defs>
      <g>
       <use style="stroke:#000000;stroke-linecap:butt;stroke-width:0.5;" x="29.2984375" xlink:href="#mdbd77b0c65" y="134.214272558"/>
      </g>
     </g>
    </g>
    <g id="ytick_21">
     <g id="line2d_42">
      <defs>
       <path d="
M0 0
L2 0" id="mdbd77b0c65"/>
      </defs>
      <g>
       <use style="stroke:#000000;stroke-linecap:butt;stroke-width:0.5;" x="29.2984375" xlink:href="#mdbd77b0c65" y="119.124557303"/>
      </g>
     </g>
    </g>
    <g id="ytick_22">
     <g id="line2d_43">
      <defs>
       <path d="
M0 0
L2 0" id="mdbd77b0c65"/>
      </defs>
      <g>
       <use style="stroke:#000000;stroke-linecap:butt;stroke-width:0.5;" x="29.2984375" xlink:href="#mdbd77b0c65" y="104.034842048"/>
      </g>
     </g>
    </g>
    <g id="ytick_23">
     <g id="line2d_44">
      <defs>
       <path d="
M0 0
L2 0" id="mdbd77b0c65"/>
      </defs>
      <g>
       <use style="stroke:#000000;stroke-linecap:butt;stroke-width:0.5;" x="29.2984375" xlink:href="#mdbd77b0c65" y="88.9451267931"/>
      </g>
     </g>
    </g>
    <g id="ytick_24">
     <g id="line2d_45">
      <defs>
       <path d="
M0 0
L2 0" id="mdbd77b0c65"/>
      </defs>
      <g>
       <use style="stroke:#000000;stroke-linecap:butt;stroke-width:0.5;" x="29.2984375" xlink:href="#mdbd77b0c65" y="73.855411538"/>
      </g>
     </g>
    </g>
    <g id="ytick_25">
     <g id="line2d_46">
      <defs>
       <path d="
M0 0
L2 0" id="mdbd77b0c65"/>
      </defs>
      <g>
       <use style="stroke:#000000;stroke-linecap:butt;stroke-width:0.5;" x="29.2984375" xlink:href="#mdbd77b0c65" y="58.7656962829"/>
      </g>
     </g>
    </g>
    <g id="ytick_26">
     <g id="line2d_47">
      <defs>
       <path d="
M0 0
L2 0" id="mdbd77b0c65"/>
      </defs>
      <g>
       <use style="stroke:#000000;stroke-linecap:butt;stroke-width:0.5;" x="29.2984375" xlink:href="#mdbd77b0c65" y="43.6759810277"/>
      </g>
     </g>
    </g>
    <g id="ytick_27">
     <g id="line2d_48">
      <defs>
       <path d="
M0 0
L2 0" id="mdbd77b0c65"/>
      </defs>
      <g>
       <use style="stroke:#000000;stroke-linecap:butt;stroke-width:0.5;" x="29.2984375" xlink:href="#mdbd77b0c65" y="28.5862657726"/>
      </g>
     </g>
    </g>
   </g>
   <g id="patch_3">
    <path d="
M39.2984 300.201
L557.266 300.201" style="fill:none;stroke:#000000;stroke-width:0.8;"/>
   </g>
   <g id="patch_4">
    <path d="
M29.2984 413.28
L29.2984 7.2" style="fill:none;stroke:#000000;stroke-width:0.8;"/>
   </g>
  </g>
 </g>
 <defs>
  <clipPath id="pbda54c63f9">
   <rect height="406.08" width="517.9675" x="39.2984375" y="7.2"/>
  </clipPath>
 </defs>
</svg>
