<?xml version="1.0" encoding="utf-8" standalone="no"?>
<!DOCTYPE svg PUBLIC "-//W3C//DTD SVG 1.1//EN"
  "http://www.w3.org/Graphics/SVG/1.1/DTD/svg11.dtd">
<!-- Created with matplotlib (http://matplotlib.sourceforge.net/) -->
<svg height="420pt" version="1.1" viewBox="0 0 564 420" width="564pt" xmlns="http://www.w3.org/2000/svg" xmlns:xlink="http://www.w3.org/1999/xlink">
 <defs>
  <style type="text/css">
*{stroke-linecap:square;stroke-linejoin:round;}
  </style>
 </defs>
 <g id="figure_1">
  <g id="patch_1">
   <path d="
M2.22045e-16 420.48
L564.508 420.48
L564.508 0
L2.22045e-16 0
z
" style="fill:#ffffff;"/>
  </g>
  <g id="axes_1">
   <g id="patch_2">
    <path d="
M45.7109 413.28
L557.308 413.28
L557.308 7.2
L45.7109 7.2
z
" style="fill:#ffffff;"/>
   </g>
   <g id="line2d_1">
    <path clip-path="url(#p5895cd3558)" d="
M55.5493 15.0092
L55.8038 18.5379
L56.1092 20.4021
L56.3637 22.069
L56.7709 27.3965
L57.3816 43.5742
L57.9924 65.6164
L59.0612 96.9923
L60.0283 115.496
L63.9474 233.115
L65.0162 285.052
L65.7797 328.106
L66.2886 334.81
L66.6449 337.798
L66.8485 338.218
L67.0012 338.285
L67.103 338.302
L67.1539 338.202
L67.2048 338.272
L67.3575 338.648
L67.5102 339.984
L67.8664 342.522
L67.9173 342.675
L67.9682 342.646
L68.2227 341.535
L68.6299 338.345
L69.2407 333.843
L69.4951 331.8
L69.6478 331.527
L70.1568 334.145
L70.2077 334.08
L70.3095 334.084
L70.5131 334.797
L70.7676 336.123
L71.0221 336.733
L71.531 339.445
L71.9382 340.295
L71.9891 340.351
L72.04 340.268
L72.1418 339.803
L72.3963 336.698
L72.8544 330.416
L73.3633 322.831
L73.8214 316.03
L74.025 314.83
L74.3813 313.103
L74.5849 312.92
L74.7375 313.506
L74.8393 313.796
L74.8902 313.743
L75.0429 313.814
L75.1447 313.682
L75.1956 313.747
L75.2974 314.122
L75.7555 316.153
L76.1118 316.081
L76.3663 315.581
L76.4172 315.742
L76.6716 316.593
L76.7225 316.571
L76.8243 317.707
L77.1806 325.345
L77.5878 338.72
L78.0459 364.462
L78.2494 371.669
L78.6566 376.429
L78.9111 377.492
L79.0129 377.369
L79.1656 377.323
L79.3183 377.131
L79.471 375.667
L79.6237 375.011
L79.7255 375.181
L79.9291 376.312
L80.2344 377.905
L80.3362 378.005
L80.4889 377.78
L81.6087 368.712
L81.8122 367.709
L82.0158 367.016
L82.2703 366.25
L82.6775 364.266
L82.932 363.936
L83.1356 363.872
L83.3901 363.136
L83.5936 363.491
L83.6445 363.63
L83.6954 363.571
L84.1535 361.356
L84.6625 357.094
L85.2732 350.74
L86.5966 328.678
L86.902 325.309
L87.2582 319.669
L88.5307 295.96
L93.4677 187.035
L95.8598 146.137
L96.5215 140.384
L97.0305 137.429
L97.3868 131.331
L97.5903 128.416
L97.743 128.007
L97.8957 127.715
L97.9466 127.852
L98.0993 129.162
L99.0664 146.909
L99.728 158.667
L100.339 171.788
L101.051 187.297
L101.509 201.626
L101.866 212.85
L103.036 234.442
L104.156 245.55
L104.563 251.818
L105.581 272.398
L106.09 281.808
L107.006 297.124
L107.77 306.505
L108.533 318.869
L108.889 320.471
L109.246 320.852
L109.755 321.475
L110.06 322.355
L110.111 322.384
L110.213 322.024
L110.315 322.45
L110.671 325.113
L111.282 331.464
L111.536 332.121
L111.892 333.287
L112.35 336.436
L112.656 338.111
L112.809 338.815
L113.114 340.532
L113.318 341.221
L113.725 344.117
L114.794 356.269
L115.048 357.77
L115.455 358.631
L115.506 358.594
L115.761 358.329
L115.913 358.122
L116.117 357.195
L116.422 355.799
L116.728 352.606
L117.186 347.179
L117.847 338.702
L118.305 335.904
L119.985 325.576
L120.138 324.713
L120.647 319.322
L121.003 316.305
L121.207 315.478
L121.257 315.7
L121.308 315.616
L121.868 313.863
L122.123 313.445
L122.275 313.246
L122.53 312.629
L122.784 311.348
L122.988 309.745
L123.548 301.036
L124.006 295.317
L124.515 290.772
L124.769 287.168
L125.38 278.359
L126.5 261.251
L127.212 252.623
L127.874 247.321
L128.383 244.941
L128.841 240.433
L129.808 225.233
L130.215 216.166
L130.979 205.847
L132.811 186.845
L133.422 182.026
L133.524 182.251
L133.88 184.138
L134.745 192.539
L135.203 195.242
L136.425 207.522
L137.137 216.562
L138.155 228.339
L138.715 235.311
L139.275 243.407
L140.191 254.453
L141.769 271.679
L142.176 276.731
L143.754 291.816
L144.416 296.513
L145.383 301.822
L146.299 307.71
L146.706 308.734
L147.52 310.217
L147.724 310.311
L148.08 309.703
L148.386 309.663
L148.691 309.44
L148.844 309.469
L149.047 309.686
L149.251 309.797
L149.505 309.717
L149.76 309.931
L149.913 309.938
L150.422 310.946
L150.88 311.991
L150.93 311.963
L151.185 311.602
L151.847 309.817
L151.898 309.935
L152.05 310.271
L152.101 310.254
L152.559 309.633
L152.865 308.551
L153.221 306.113
L153.374 302.88
L153.832 294.318
L154.239 289.827
L154.595 287.3
L154.85 286.943
L155.155 286.677
L155.359 286.687
L155.715 286.374
L156.122 285.593
L156.427 285.436
L156.682 285.133
L156.936 284.983
L157.14 285.059
L157.751 286.25
L158.565 289.414
L159.379 291.483
L159.888 290.812
L160.143 290.364
L160.55 289.56
L160.805 289.127
L161.059 288.674
L161.415 288.285
L161.772 287.582
L162.026 287.7
L162.484 288.503
L163.044 288.968
L163.298 289.221
L163.451 289.217
L163.757 288.603
L164.164 287.722
L164.876 286.954
L165.436 285.264
L165.792 283.539
L165.945 281.446
L166.556 273.007
L167.574 263.871
L168.236 260.194
L169.559 254.06
L171.646 246.626
L172.104 245.943
L172.358 245.721
L172.765 244.808
L173.427 242.703
L174.19 240.428
L174.649 239.835
L174.903 239.916
L175.819 240.805
L176.125 238.933
L176.583 236.971
L176.888 236.354
L177.244 235.747
L177.753 234.49
L178.211 233.665
L178.517 233.52
L178.924 233.471
L179.127 233.583
L179.789 234.193
L180.247 234.196
L180.654 234.429
L180.909 234.867
L181.265 235.833
L182.385 239.89
L183.097 243.627
L184.115 249.393
L185.133 256.13
L185.948 263.173
L187.017 274.835
L188.187 290.504
L189.358 309.093
L190.427 329.411
L191.343 350.984
L192.106 373.846
L192.666 396.548
L192.819 405.471
L192.87 405.197
L193.277 384.421
L193.989 359.527
L194.855 336.653
L195.873 315.517
L197.043 296.026
L198.265 279.445
L199.385 267.27
L200.301 259.462
L201.166 254.051
L202.337 248.154
L203.711 242.77
L204.729 240.371
L205.136 239.989
L205.543 240.044
L206.256 240.186
L206.714 239.959
L207.223 240.226
L207.528 240.508
L207.884 241.199
L209.462 245.098
L210.022 247.183
L210.276 247.071
L210.684 246.792
L211.04 246.784
L211.345 247.168
L211.905 248.314
L213.178 251.778
L213.534 252.271
L213.788 252.528
L214.399 253.687
L215.214 256.229
L216.74 260.764
L218.166 266.62
L218.725 270.122
L219.438 275.615
L220.049 280.93
L220.558 282.14
L221.067 282.889
L221.677 283.143
L222.034 283.736
L222.288 283.967
L222.594 283.794
L222.95 283.473
L223.561 282.903
L223.815 282.637
L224.019 282.694
L224.579 283.226
L224.833 283.424
L225.138 283.751
L225.393 283.974
L225.953 284.604
L226.258 284.792
L226.411 284.8
L226.614 284.494
L227.48 282.572
L228.192 280.793
L228.854 280.363
L229.058 280.518
L229.261 280.601
L229.719 280.861
L230.075 281.203
L230.584 281.2
L230.737 281.245
L231.195 281.892
L231.602 283.888
L231.908 286.117
L232.366 291.52
L232.62 293.215
L232.977 294.168
L233.435 294.558
L233.689 294.549
L233.944 294.274
L234.147 294.506
L234.707 295.21
L234.86 295.14
L235.98 293.69
L237.15 293.108
L237.456 293.199
L237.71 293.126
L238.117 293.264
L238.83 292.471
L239.237 291.783
L239.441 291.374
L239.746 290.274
L240.713 286.488
L241.527 284.206
L242.138 281.55
L244.53 268.907
L245.65 263.076
L245.955 261.314
L247.635 251.066
L250.078 238.831
L250.74 236.772
L251.3 235.745
L251.656 234
L251.961 232.707
L252.317 232.536
L252.521 233.229
L254.353 241.983
L255.626 250.021
L256.491 257.142
L257.305 261.349
L258.425 264.463
L258.934 266.782
L259.952 273.034
L261.072 279.308
L261.581 281.127
L261.988 282.663
L262.904 287.265
L263.209 287.71
L263.82 287.973
L264.075 288.157
L264.431 288.49
L264.533 288.394
L264.736 288.751
L264.94 289.259
L265.653 291.658
L266.314 292.453
L266.62 293.255
L267.281 294.6
L267.994 295.969
L268.503 298.236
L268.91 299.732
L269.47 301.04
L269.928 301.328
L270.233 301.276
L270.539 300.903
L270.793 300.496
L271.404 298.364
L272.269 294.877
L274.152 291.158
L274.407 290.867
L274.865 289.353
L275.272 288.031
L275.527 287.671
L275.628 287.727
L276.239 287.139
L276.799 286.856
L277.003 286.581
L277.257 286.026
L277.613 284.307
L278.122 281.529
L279.446 276.077
L280.667 269.438
L281.278 266.342
L281.94 264.036
L282.296 263.297
L282.703 262.522
L283.212 260.54
L284.128 255.078
L284.535 251.657
L285.299 247.686
L287.487 238.762
L287.742 238.215
L287.895 238.352
L288.149 238.758
L288.404 239.995
L288.76 241.46
L289.065 241.961
L289.523 242.918
L290.694 247.201
L292.068 253.59
L292.984 257.645
L293.391 260.046
L294.308 264.759
L295.122 268.07
L297.718 279.094
L298.634 282.174
L298.99 282.942
L299.448 283.858
L300.466 286.837
L300.822 287.383
L301.739 288.241
L302.044 288.325
L302.451 288.115
L302.655 288.135
L303.113 288.05
L304.131 288.334
L304.436 288.484
L304.741 288.82
L305.301 289.27
L305.505 289.154
L306.167 288.457
L306.218 288.515
L306.421 288.661
L306.93 288.375
L307.286 287.769
L307.541 286.973
L307.694 285.589
L308.152 281.968
L308.559 280.068
L308.915 279.002
L309.373 278.747
L309.984 278.696
L310.493 278.294
L311.409 278.077
L312.071 278.652
L312.987 280.197
L313.648 280.993
L314.005 280.858
L315.43 279.794
L315.735 279.645
L316.092 279.348
L316.397 279.464
L316.804 279.78
L317.924 280.018
L318.586 279.457
L319.094 279.254
L319.502 278.774
L319.96 278.021
L320.163 277.43
L320.876 272.866
L321.894 268.71
L322.606 266.903
L323.726 264.447
L325.762 260.868
L326.424 260.323
L326.729 260.161
L327.442 259.209
L328.409 257.744
L328.918 257.352
L329.223 257.358
L330.139 257.707
L330.495 256.682
L331.004 255.716
L332.531 254.189
L332.989 254.071
L333.447 254.089
L334.16 254.324
L334.618 254.309
L335.076 254.451
L335.534 254.948
L336.756 257.022
L337.723 259.432
L338.792 262.493
L339.759 265.845
L340.573 269.609
L341.642 275.681
L342.813 283.769
L343.932 292.976
L344.95 303.099
L345.866 314.507
L346.63 326.939
L347.088 337.512
L347.139 339.214
L347.19 338.893
L347.597 328.619
L348.309 316.269
L349.226 304.298
L350.243 293.858
L351.414 284.153
L352.687 275.527
L353.806 269.453
L354.773 265.393
L355.689 262.572
L356.962 259.409
L357.827 257.593
L358.489 256.619
L359.303 255.8
L359.761 255.753
L360.83 255.692
L361.186 255.68
L361.848 255.909
L362.255 256.314
L363.833 258.35
L364.342 259.302
L364.749 259.165
L365.258 259.038
L365.564 259.17
L366.174 259.765
L367.803 261.858
L368.261 262.135
L368.77 262.707
L369.584 264.019
L371.162 266.554
L372.18 268.718
L372.689 270.107
L373.554 273.29
L374.012 275.784
L374.318 277.091
L374.776 277.742
L375.387 278.254
L376.099 278.493
L376.557 278.851
L376.863 278.803
L377.321 278.575
L377.881 278.292
L378.186 278.148
L378.39 278.225
L378.949 278.497
L379.713 278.909
L380.324 279.291
L380.833 279.311
L381.342 278.706
L382.869 277
L383.174 276.963
L383.988 277.214
L384.497 277.448
L385.362 277.594
L385.515 277.841
L385.922 278.958
L386.228 280.207
L386.635 282.753
L386.839 283.937
L387.246 284.66
L387.704 284.917
L388.009 284.93
L388.264 284.786
L388.518 284.97
L388.976 285.327
L389.231 285.253
L390.554 284.413
L390.961 284.344
L391.317 284.221
L392.03 284.241
L392.488 284.301
L392.844 284.14
L393.964 282.905
L395.287 280.248
L395.695 279.599
L397.12 276.136
L398.138 272.872
L398.748 270.888
L399.868 267.46
L400.326 266
L401.904 260.42
L403.533 255.443
L404.042 253.877
L405.212 251.766
L405.67 251.192
L406.027 250.096
L406.281 249.516
L406.637 249.406
L406.841 249.803
L408.673 254.827
L409.946 259.487
L410.811 263.629
L411.625 266.078
L412.745 267.895
L413.254 269.257
L415.239 276.091
L415.544 276.986
L416.41 278.97
L417.173 281.3
L417.58 281.647
L417.886 281.735
L418.649 282.067
L418.802 282.055
L418.955 282.152
L419.362 282.822
L419.922 283.973
L420.99 285.067
L421.347 285.471
L422.11 286.338
L422.466 287.042
L423.586 289.574
L423.993 289.867
L424.35 289.906
L424.808 289.702
L425.164 289.334
L426.029 287.279
L426.589 286.082
L428.574 283.827
L428.829 283.537
L429.287 282.541
L429.643 281.944
L429.847 281.796
L429.999 281.793
L431.526 280.911
L431.832 280.163
L432.799 277.391
L433.358 276.105
L433.867 274.463
L435.903 268.154
L436.463 267.113
L437.278 265.947
L437.634 264.903
L438.652 260.641
L439.161 258.659
L439.924 256.347
L440.637 254.544
L440.993 253.693
L441.909 251.552
L442.113 251.435
L442.469 251.757
L442.724 252.518
L443.08 253.408
L443.436 253.758
L443.945 254.497
L444.963 256.758
L446.388 260.854
L447.304 263.368
L447.711 264.854
L448.628 267.78
L449.442 269.843
L452.19 277.112
L452.852 278.482
L453.361 279.212
L453.717 279.638
L454.837 281.697
L455.295 282.07
L456.059 282.525
L456.466 282.538
L456.771 282.455
L457.026 282.455
L457.535 282.445
L459.011 282.889
L459.57 283.233
L459.927 283.077
L460.487 282.721
L460.792 282.842
L461.301 282.636
L461.555 282.365
L461.861 281.788
L462.014 280.9
L462.472 278.609
L462.93 277.283
L463.286 276.709
L464.304 276.546
L464.864 276.283
L466.187 276.343
L466.442 276.597
L467.663 277.874
L468.019 278.035
L468.834 277.704
L469.241 277.511
L470.615 277.016
L471.888 277.506
L472.244 277.438
L473.007 277.063
L473.618 276.813
L474.381 276.004
L474.534 275.525
L475.196 272.824
L476.214 270.137
L476.926 268.964
L478.097 267.304
L480.286 264.889
L480.947 264.609
L481.405 264.29
L482.22 263.448
L482.78 262.926
L483.288 262.689
L483.747 262.753
L484.459 262.911
L484.815 262.24
L485.324 261.605
L486.953 260.551
L487.818 260.522
L488.48 260.65
L489.091 260.642
L489.447 260.749
L490.007 261.196
L491.076 262.396
L492.145 264.146
L493.061 265.884
L494.028 268.065
L494.791 270.347
L495.809 274.081
L496.98 279.327
L498.15 285.608
L499.168 292.218
L500.085 299.636
L500.848 307.625
L501.357 314.994
L501.459 317.134
L501.51 316.789
L501.917 309.984
L502.629 301.779
L503.546 293.815
L504.563 286.859
L505.785 280.128
L507.057 274.403
L508.126 270.535
L509.093 267.806
L510.06 265.812
L511.587 263.271
L512.3 262.358
L513.369 261.427
L513.929 261.274
L516.27 261.405
L516.728 261.767
L517.39 262.23
L517.797 262.521
L518.357 263.311
L518.662 263.631
L519.324 263.468
L519.833 263.51
L520.392 263.845
L521.207 264.665
L521.919 265.26
L523.141 265.981
L523.904 266.804
L525.533 268.612
L527.111 271.184
L528.027 273.647
L528.689 275.799
L529.299 276.325
L529.758 276.538
L530.47 276.736
L530.928 276.949
L531.539 276.783
L532.251 276.53
L532.557 276.465
L532.964 276.655
L534.796 277.3
L535.204 277.244
L536.323 276.264
L536.832 275.822
L537.596 275.687
L539.275 276.004
L539.682 276.108
L539.886 276.36
L540.242 277.06
L540.599 278.118
L541.006 280.05
L541.26 280.672
L541.667 281.069
L542.075 281.206
L542.431 281.124
L542.634 281.123
L543.042 281.389
L543.398 281.497
L543.652 281.384
L544.314 280.993
L544.874 280.865
L545.332 280.793
L545.79 280.735
L546.655 280.841
L547.317 280.618
L547.47 280.52
L547.47 280.52" style="fill:none;stroke:#0000ff;"/>
   </g>
   <g id="matplotlib.axis_1">
    <g id="xtick_1">
     <g id="line2d_2">
      <defs>
       <path d="
M0 0
L0 -4" id="m976ac1e35d"/>
      </defs>
      <g>
       <use style="stroke:#000000;stroke-linecap:butt;stroke-width:0.5;" x="161.327206554" xlink:href="#m976ac1e35d" y="272.770611529"/>
      </g>
     </g>
     <g id="text_1">
      <!-- 5 -->
      <defs>
       <path d="
M10.7969 72.9062
L49.5156 72.9062
L49.5156 64.5938
L19.8281 64.5938
L19.8281 46.7344
Q21.9688 47.4688 24.1094 47.8281
Q26.2656 48.1875 28.4219 48.1875
Q40.625 48.1875 47.75 41.5
Q54.8906 34.8125 54.8906 23.3906
Q54.8906 11.625 47.5625 5.09375
Q40.2344 -1.42188 26.9062 -1.42188
Q22.3125 -1.42188 17.5469 -0.640625
Q12.7969 0.140625 7.71875 1.70312
L7.71875 11.625
Q12.1094 9.23438 16.7969 8.0625
Q21.4844 6.89062 26.7031 6.89062
Q35.1562 6.89062 40.0781 11.3281
Q45.0156 15.7656 45.0156 23.3906
Q45.0156 31 40.0781 35.4375
Q35.1562 39.8906 26.7031 39.8906
Q22.75 39.8906 18.8125 39.0156
Q14.8906 38.1406 10.7969 36.2812
z
" id="BitstreamVeraSans-Roman-35"/>
      </defs>
      <g transform="translate(158.968612804 284.061236529)scale(0.1 -0.1)">
       <use xlink:href="#BitstreamVeraSans-Roman-35"/>
      </g>
     </g>
    </g>
    <g id="xtick_2">
     <g id="line2d_3">
      <defs>
       <path d="
M0 0
L0 -4" id="m976ac1e35d"/>
      </defs>
      <g>
       <use style="stroke:#000000;stroke-linecap:butt;stroke-width:0.5;" x="284.129013391" xlink:href="#m976ac1e35d" y="272.770611529"/>
      </g>
     </g>
     <g id="text_2">
      <!-- 10 -->
      <defs>
       <path d="
M31.7812 66.4062
Q24.1719 66.4062 20.3281 58.9062
Q16.5 51.4219 16.5 36.375
Q16.5 21.3906 20.3281 13.8906
Q24.1719 6.39062 31.7812 6.39062
Q39.4531 6.39062 43.2812 13.8906
Q47.125 21.3906 47.125 36.375
Q47.125 51.4219 43.2812 58.9062
Q39.4531 66.4062 31.7812 66.4062
M31.7812 74.2188
Q44.0469 74.2188 50.5156 64.5156
Q56.9844 54.8281 56.9844 36.375
Q56.9844 17.9688 50.5156 8.26562
Q44.0469 -1.42188 31.7812 -1.42188
Q19.5312 -1.42188 13.0625 8.26562
Q6.59375 17.9688 6.59375 36.375
Q6.59375 54.8281 13.0625 64.5156
Q19.5312 74.2188 31.7812 74.2188" id="BitstreamVeraSans-Roman-30"/>
       <path d="
M12.4062 8.29688
L28.5156 8.29688
L28.5156 63.9219
L10.9844 60.4062
L10.9844 69.3906
L28.4219 72.9062
L38.2812 72.9062
L38.2812 8.29688
L54.3906 8.29688
L54.3906 0
L12.4062 0
z
" id="BitstreamVeraSans-Roman-31"/>
      </defs>
      <g transform="translate(278.647763391 284.192486529)scale(0.1 -0.1)">
       <use xlink:href="#BitstreamVeraSans-Roman-31"/>
       <use x="63.623046875" xlink:href="#BitstreamVeraSans-Roman-30"/>
      </g>
     </g>
    </g>
    <g id="xtick_3">
     <g id="line2d_4">
      <defs>
       <path d="
M0 0
L0 -4" id="m976ac1e35d"/>
      </defs>
      <g>
       <use style="stroke:#000000;stroke-linecap:butt;stroke-width:0.5;" x="406.930820228" xlink:href="#m976ac1e35d" y="272.770611529"/>
      </g>
     </g>
     <g id="text_3">
      <!-- 15 -->
      <g transform="translate(401.554257728 284.061236529)scale(0.1 -0.1)">
       <use xlink:href="#BitstreamVeraSans-Roman-31"/>
       <use x="63.623046875" xlink:href="#BitstreamVeraSans-Roman-35"/>
      </g>
     </g>
    </g>
    <g id="xtick_4">
     <g id="line2d_5">
      <defs>
       <path d="
M0 0
L0 -4" id="m976ac1e35d"/>
      </defs>
      <g>
       <use style="stroke:#000000;stroke-linecap:butt;stroke-width:0.5;" x="529.732627065" xlink:href="#m976ac1e35d" y="272.770611529"/>
      </g>
     </g>
     <g id="text_4">
      <!-- 20 -->
      <defs>
       <path d="
M19.1875 8.29688
L53.6094 8.29688
L53.6094 0
L7.32812 0
L7.32812 8.29688
Q12.9375 14.1094 22.625 23.8906
Q32.3281 33.6875 34.8125 36.5312
Q39.5469 41.8438 41.4219 45.5312
Q43.3125 49.2188 43.3125 52.7812
Q43.3125 58.5938 39.2344 62.25
Q35.1562 65.9219 28.6094 65.9219
Q23.9688 65.9219 18.8125 64.3125
Q13.6719 62.7031 7.8125 59.4219
L7.8125 69.3906
Q13.7656 71.7812 18.9375 73
Q24.125 74.2188 28.4219 74.2188
Q39.75 74.2188 46.4844 68.5469
Q53.2188 62.8906 53.2188 53.4219
Q53.2188 48.9219 51.5312 44.8906
Q49.8594 40.875 45.4062 35.4062
Q44.1875 33.9844 37.6406 27.2188
Q31.1094 20.4531 19.1875 8.29688" id="BitstreamVeraSans-Roman-32"/>
      </defs>
      <g transform="translate(524.068564565 284.192486529)scale(0.1 -0.1)">
       <use xlink:href="#BitstreamVeraSans-Roman-32"/>
       <use x="63.623046875" xlink:href="#BitstreamVeraSans-Roman-30"/>
      </g>
     </g>
    </g>
    <g id="xtick_5">
     <g id="line2d_6">
      <defs>
       <path d="
M0 0
L0 -2" id="m2a37b5df7e"/>
      </defs>
      <g>
       <use style="stroke:#000000;stroke-linecap:butt;stroke-width:0.5;" x="63.085761084" xlink:href="#m2a37b5df7e" y="272.770611529"/>
      </g>
     </g>
    </g>
    <g id="xtick_6">
     <g id="line2d_7">
      <defs>
       <path d="
M0 0
L0 -2" id="m2a37b5df7e"/>
      </defs>
      <g>
       <use style="stroke:#000000;stroke-linecap:butt;stroke-width:0.5;" x="87.6461224514" xlink:href="#m2a37b5df7e" y="272.770611529"/>
      </g>
     </g>
    </g>
    <g id="xtick_7">
     <g id="line2d_8">
      <defs>
       <path d="
M0 0
L0 -2" id="m2a37b5df7e"/>
      </defs>
      <g>
       <use style="stroke:#000000;stroke-linecap:butt;stroke-width:0.5;" x="112.206483819" xlink:href="#m2a37b5df7e" y="272.770611529"/>
      </g>
     </g>
    </g>
    <g id="xtick_8">
     <g id="line2d_9">
      <defs>
       <path d="
M0 0
L0 -2" id="m2a37b5df7e"/>
      </defs>
      <g>
       <use style="stroke:#000000;stroke-linecap:butt;stroke-width:0.5;" x="136.766845186" xlink:href="#m2a37b5df7e" y="272.770611529"/>
      </g>
     </g>
    </g>
    <g id="xtick_9">
     <g id="line2d_10">
      <defs>
       <path d="
M0 0
L0 -2" id="m2a37b5df7e"/>
      </defs>
      <g>
       <use style="stroke:#000000;stroke-linecap:butt;stroke-width:0.5;" x="185.887567921" xlink:href="#m2a37b5df7e" y="272.770611529"/>
      </g>
     </g>
    </g>
    <g id="xtick_10">
     <g id="line2d_11">
      <defs>
       <path d="
M0 0
L0 -2" id="m2a37b5df7e"/>
      </defs>
      <g>
       <use style="stroke:#000000;stroke-linecap:butt;stroke-width:0.5;" x="210.447929288" xlink:href="#m2a37b5df7e" y="272.770611529"/>
      </g>
     </g>
    </g>
    <g id="xtick_11">
     <g id="line2d_12">
      <defs>
       <path d="
M0 0
L0 -2" id="m2a37b5df7e"/>
      </defs>
      <g>
       <use style="stroke:#000000;stroke-linecap:butt;stroke-width:0.5;" x="235.008290656" xlink:href="#m2a37b5df7e" y="272.770611529"/>
      </g>
     </g>
    </g>
    <g id="xtick_12">
     <g id="line2d_13">
      <defs>
       <path d="
M0 0
L0 -2" id="m2a37b5df7e"/>
      </defs>
      <g>
       <use style="stroke:#000000;stroke-linecap:butt;stroke-width:0.5;" x="259.568652023" xlink:href="#m2a37b5df7e" y="272.770611529"/>
      </g>
     </g>
    </g>
    <g id="xtick_13">
     <g id="line2d_14">
      <defs>
       <path d="
M0 0
L0 -2" id="m2a37b5df7e"/>
      </defs>
      <g>
       <use style="stroke:#000000;stroke-linecap:butt;stroke-width:0.5;" x="308.689374758" xlink:href="#m2a37b5df7e" y="272.770611529"/>
      </g>
     </g>
    </g>
    <g id="xtick_14">
     <g id="line2d_15">
      <defs>
       <path d="
M0 0
L0 -2" id="m2a37b5df7e"/>
      </defs>
      <g>
       <use style="stroke:#000000;stroke-linecap:butt;stroke-width:0.5;" x="333.249736125" xlink:href="#m2a37b5df7e" y="272.770611529"/>
      </g>
     </g>
    </g>
    <g id="xtick_15">
     <g id="line2d_16">
      <defs>
       <path d="
M0 0
L0 -2" id="m2a37b5df7e"/>
      </defs>
      <g>
       <use style="stroke:#000000;stroke-linecap:butt;stroke-width:0.5;" x="357.810097493" xlink:href="#m2a37b5df7e" y="272.770611529"/>
      </g>
     </g>
    </g>
    <g id="xtick_16">
     <g id="line2d_17">
      <defs>
       <path d="
M0 0
L0 -2" id="m2a37b5df7e"/>
      </defs>
      <g>
       <use style="stroke:#000000;stroke-linecap:butt;stroke-width:0.5;" x="382.37045886" xlink:href="#m2a37b5df7e" y="272.770611529"/>
      </g>
     </g>
    </g>
    <g id="xtick_17">
     <g id="line2d_18">
      <defs>
       <path d="
M0 0
L0 -2" id="m2a37b5df7e"/>
      </defs>
      <g>
       <use style="stroke:#000000;stroke-linecap:butt;stroke-width:0.5;" x="431.491181595" xlink:href="#m2a37b5df7e" y="272.770611529"/>
      </g>
     </g>
    </g>
    <g id="xtick_18">
     <g id="line2d_19">
      <defs>
       <path d="
M0 0
L0 -2" id="m2a37b5df7e"/>
      </defs>
      <g>
       <use style="stroke:#000000;stroke-linecap:butt;stroke-width:0.5;" x="456.051542962" xlink:href="#m2a37b5df7e" y="272.770611529"/>
      </g>
     </g>
    </g>
    <g id="xtick_19">
     <g id="line2d_20">
      <defs>
       <path d="
M0 0
L0 -2" id="m2a37b5df7e"/>
      </defs>
      <g>
       <use style="stroke:#000000;stroke-linecap:butt;stroke-width:0.5;" x="480.61190433" xlink:href="#m2a37b5df7e" y="272.770611529"/>
      </g>
     </g>
    </g>
    <g id="xtick_20">
     <g id="line2d_21">
      <defs>
       <path d="
M0 0
L0 -2" id="m2a37b5df7e"/>
      </defs>
      <g>
       <use style="stroke:#000000;stroke-linecap:butt;stroke-width:0.5;" x="505.172265697" xlink:href="#m2a37b5df7e" y="272.770611529"/>
      </g>
     </g>
    </g>
   </g>
   <g id="matplotlib.axis_2">
    <g id="ytick_1">
     <g id="line2d_22">
      <defs>
       <path d="
M0 0
L4 0" id="ma620ff33a5"/>
      </defs>
      <g>
       <use style="stroke:#000000;stroke-linecap:butt;stroke-width:0.5;" x="35.7109375" xlink:href="#ma620ff33a5" y="362.487960831"/>
      </g>
     </g>
     <g id="text_5">
      <!-- -0.05 -->
      <defs>
       <path d="
M10.6875 12.4062
L21 12.4062
L21 0
L10.6875 0
z
" id="BitstreamVeraSans-Roman-2e"/>
       <path d="
M4.89062 31.3906
L31.2031 31.3906
L31.2031 23.3906
L4.89062 23.3906
z
" id="BitstreamVeraSans-Roman-2d"/>
      </defs>
      <g transform="translate(7.2 366.127804581)scale(0.1 -0.1)">
       <use xlink:href="#BitstreamVeraSans-Roman-2d"/>
       <use x="36.083984375" xlink:href="#BitstreamVeraSans-Roman-30"/>
       <use x="99.70703125" xlink:href="#BitstreamVeraSans-Roman-2e"/>
       <use x="131.494140625" xlink:href="#BitstreamVeraSans-Roman-30"/>
       <use x="195.1171875" xlink:href="#BitstreamVeraSans-Roman-35"/>
      </g>
     </g>
    </g>
    <g id="ytick_2">
     <g id="line2d_23">
      <defs>
       <path d="
M0 0
L4 0" id="ma620ff33a5"/>
      </defs>
      <g>
       <use style="stroke:#000000;stroke-linecap:butt;stroke-width:0.5;" x="35.7109375" xlink:href="#ma620ff33a5" y="272.770611529"/>
      </g>
     </g>
     <g id="text_6">
      <!-- 0 -->
      <g transform="translate(26.671875 276.410455279)scale(0.1 -0.1)">
       <use xlink:href="#BitstreamVeraSans-Roman-30"/>
      </g>
     </g>
    </g>
    <g id="ytick_3">
     <g id="line2d_24">
      <defs>
       <path d="
M0 0
L4 0" id="ma620ff33a5"/>
      </defs>
      <g>
       <use style="stroke:#000000;stroke-linecap:butt;stroke-width:0.5;" x="35.7109375" xlink:href="#ma620ff33a5" y="183.053262227"/>
      </g>
     </g>
     <g id="text_7">
      <!-- 0.05 -->
      <g transform="translate(10.978125 186.693105977)scale(0.1 -0.1)">
       <use xlink:href="#BitstreamVeraSans-Roman-30"/>
       <use x="63.623046875" xlink:href="#BitstreamVeraSans-Roman-2e"/>
       <use x="95.41015625" xlink:href="#BitstreamVeraSans-Roman-30"/>
       <use x="159.033203125" xlink:href="#BitstreamVeraSans-Roman-35"/>
      </g>
     </g>
    </g>
    <g id="ytick_4">
     <g id="line2d_25">
      <defs>
       <path d="
M0 0
L4 0" id="ma620ff33a5"/>
      </defs>
      <g>
       <use style="stroke:#000000;stroke-linecap:butt;stroke-width:0.5;" x="35.7109375" xlink:href="#ma620ff33a5" y="93.3359129248"/>
      </g>
     </g>
     <g id="text_8">
      <!-- 0.1 -->
      <g transform="translate(17.390625 96.9757566748)scale(0.1 -0.1)">
       <use xlink:href="#BitstreamVeraSans-Roman-30"/>
       <use x="63.623046875" xlink:href="#BitstreamVeraSans-Roman-2e"/>
       <use x="95.41015625" xlink:href="#BitstreamVeraSans-Roman-31"/>
      </g>
     </g>
    </g>
    <g id="ytick_5">
     <g id="line2d_26">
      <defs>
       <path d="
M0 0
L2 0" id="m7da4e36f78"/>
      </defs>
      <g>
       <use style="stroke:#000000;stroke-linecap:butt;stroke-width:0.5;" x="35.7109375" xlink:href="#m7da4e36f78" y="398.374900552"/>
      </g>
     </g>
    </g>
    <g id="ytick_6">
     <g id="line2d_27">
      <defs>
       <path d="
M0 0
L2 0" id="m7da4e36f78"/>
      </defs>
      <g>
       <use style="stroke:#000000;stroke-linecap:butt;stroke-width:0.5;" x="35.7109375" xlink:href="#m7da4e36f78" y="380.431430692"/>
      </g>
     </g>
    </g>
    <g id="ytick_7">
     <g id="line2d_28">
      <defs>
       <path d="
M0 0
L2 0" id="m7da4e36f78"/>
      </defs>
      <g>
       <use style="stroke:#000000;stroke-linecap:butt;stroke-width:0.5;" x="35.7109375" xlink:href="#m7da4e36f78" y="344.544490971"/>
      </g>
     </g>
    </g>
    <g id="ytick_8">
     <g id="line2d_29">
      <defs>
       <path d="
M0 0
L2 0" id="m7da4e36f78"/>
      </defs>
      <g>
       <use style="stroke:#000000;stroke-linecap:butt;stroke-width:0.5;" x="35.7109375" xlink:href="#m7da4e36f78" y="326.601021111"/>
      </g>
     </g>
    </g>
    <g id="ytick_9">
     <g id="line2d_30">
      <defs>
       <path d="
M0 0
L2 0" id="m7da4e36f78"/>
      </defs>
      <g>
       <use style="stroke:#000000;stroke-linecap:butt;stroke-width:0.5;" x="35.7109375" xlink:href="#m7da4e36f78" y="308.65755125"/>
      </g>
     </g>
    </g>
    <g id="ytick_10">
     <g id="line2d_31">
      <defs>
       <path d="
M0 0
L2 0" id="m7da4e36f78"/>
      </defs>
      <g>
       <use style="stroke:#000000;stroke-linecap:butt;stroke-width:0.5;" x="35.7109375" xlink:href="#m7da4e36f78" y="290.71408139"/>
      </g>
     </g>
    </g>
    <g id="ytick_11">
     <g id="line2d_32">
      <defs>
       <path d="
M0 0
L2 0" id="m7da4e36f78"/>
      </defs>
      <g>
       <use style="stroke:#000000;stroke-linecap:butt;stroke-width:0.5;" x="35.7109375" xlink:href="#m7da4e36f78" y="254.827141669"/>
      </g>
     </g>
    </g>
    <g id="ytick_12">
     <g id="line2d_33">
      <defs>
       <path d="
M0 0
L2 0" id="m7da4e36f78"/>
      </defs>
      <g>
       <use style="stroke:#000000;stroke-linecap:butt;stroke-width:0.5;" x="35.7109375" xlink:href="#m7da4e36f78" y="236.883671808"/>
      </g>
     </g>
    </g>
    <g id="ytick_13">
     <g id="line2d_34">
      <defs>
       <path d="
M0 0
L2 0" id="m7da4e36f78"/>
      </defs>
      <g>
       <use style="stroke:#000000;stroke-linecap:butt;stroke-width:0.5;" x="35.7109375" xlink:href="#m7da4e36f78" y="218.940201948"/>
      </g>
     </g>
    </g>
    <g id="ytick_14">
     <g id="line2d_35">
      <defs>
       <path d="
M0 0
L2 0" id="m7da4e36f78"/>
      </defs>
      <g>
       <use style="stroke:#000000;stroke-linecap:butt;stroke-width:0.5;" x="35.7109375" xlink:href="#m7da4e36f78" y="200.996732087"/>
      </g>
     </g>
    </g>
    <g id="ytick_15">
     <g id="line2d_36">
      <defs>
       <path d="
M0 0
L2 0" id="m7da4e36f78"/>
      </defs>
      <g>
       <use style="stroke:#000000;stroke-linecap:butt;stroke-width:0.5;" x="35.7109375" xlink:href="#m7da4e36f78" y="165.109792367"/>
      </g>
     </g>
    </g>
    <g id="ytick_16">
     <g id="line2d_37">
      <defs>
       <path d="
M0 0
L2 0" id="m7da4e36f78"/>
      </defs>
      <g>
       <use style="stroke:#000000;stroke-linecap:butt;stroke-width:0.5;" x="35.7109375" xlink:href="#m7da4e36f78" y="147.166322506"/>
      </g>
     </g>
    </g>
    <g id="ytick_17">
     <g id="line2d_38">
      <defs>
       <path d="
M0 0
L2 0" id="m7da4e36f78"/>
      </defs>
      <g>
       <use style="stroke:#000000;stroke-linecap:butt;stroke-width:0.5;" x="35.7109375" xlink:href="#m7da4e36f78" y="129.222852646"/>
      </g>
     </g>
    </g>
    <g id="ytick_18">
     <g id="line2d_39">
      <defs>
       <path d="
M0 0
L2 0" id="m7da4e36f78"/>
      </defs>
      <g>
       <use style="stroke:#000000;stroke-linecap:butt;stroke-width:0.5;" x="35.7109375" xlink:href="#m7da4e36f78" y="111.279382785"/>
      </g>
     </g>
    </g>
    <g id="ytick_19">
     <g id="line2d_40">
      <defs>
       <path d="
M0 0
L2 0" id="m7da4e36f78"/>
      </defs>
      <g>
       <use style="stroke:#000000;stroke-linecap:butt;stroke-width:0.5;" x="35.7109375" xlink:href="#m7da4e36f78" y="75.3924430644"/>
      </g>
     </g>
    </g>
    <g id="ytick_20">
     <g id="line2d_41">
      <defs>
       <path d="
M0 0
L2 0" id="m7da4e36f78"/>
      </defs>
      <g>
       <use style="stroke:#000000;stroke-linecap:butt;stroke-width:0.5;" x="35.7109375" xlink:href="#m7da4e36f78" y="57.4489732039"/>
      </g>
     </g>
    </g>
    <g id="ytick_21">
     <g id="line2d_42">
      <defs>
       <path d="
M0 0
L2 0" id="m7da4e36f78"/>
      </defs>
      <g>
       <use style="stroke:#000000;stroke-linecap:butt;stroke-width:0.5;" x="35.7109375" xlink:href="#m7da4e36f78" y="39.5055033435"/>
      </g>
     </g>
    </g>
   </g>
   <g id="patch_3">
    <path d="
M45.7109 272.771
L557.308 272.771" style="fill:none;stroke:#000000;stroke-width:0.8;"/>
   </g>
   <g id="patch_4">
    <path d="
M35.7109 413.28
L35.7109 7.2" style="fill:none;stroke:#000000;stroke-width:0.8;"/>
   </g>
  </g>
 </g>
 <defs>
  <clipPath id="p5895cd3558">
   <rect height="406.08" width="511.5971875" x="45.7109375" y="7.2"/>
  </clipPath>
 </defs>
</svg>
