<?xml version="1.0" encoding="utf-8" standalone="no"?>
<!DOCTYPE svg PUBLIC "-//W3C//DTD SVG 1.1//EN"
  "http://www.w3.org/Graphics/SVG/1.1/DTD/svg11.dtd">
<!-- Created with matplotlib (http://matplotlib.sourceforge.net/) -->
<svg height="420pt" version="1.1" viewBox="0 0 562 420" width="562pt" xmlns="http://www.w3.org/2000/svg" xmlns:xlink="http://www.w3.org/1999/xlink">
 <defs>
  <style type="text/css">
*{stroke-linecap:square;stroke-linejoin:round;}
  </style>
 </defs>
 <g id="figure_1">
  <g id="patch_1">
   <path d="
M2.22045e-16 420.48
L562.698 420.48
L562.698 0
L2.22045e-16 0
z
" style="fill:#ffffff;"/>
  </g>
  <g id="axes_1">
   <g id="patch_2">
    <path d="
M19.3504 413.28
L555.498 413.28
L555.498 7.2
L19.3504 7.2
z
" style="fill:#ffffff;"/>
   </g>
   <g id="line2d_1">
    <path clip-path="url(#p4ae238b7d9)" d="
M29.6609 15.0092
L29.709 15.0092
L29.7661 271.461
L29.8271 271.461
L29.8892 314.359
L29.9538 314.359
L30.0205 341.151
L30.0863 341.151
L30.1539 323.767
L30.2231 323.767
L30.2924 314.678
L30.3626 314.678
L30.3626 312.628
L30.4329 312.696
L30.5042 312.696
L30.5765 302.802
L30.6481 302.802
L30.7207 294.011
L30.7936 294.011
L30.8667 287.439
L30.9402 287.439
L31.015 285.869
L31.0882 285.869
L31.1635 286.798
L31.2392 286.798
L31.3131 289.703
L31.3883 289.703
L31.4641 292.529
L31.5403 292.529
L31.5403 293.414
L31.6175 293.358
L31.6929 293.358
L31.7715 292.948
L31.7715 293.101
L31.8477 293.101
L31.9241 294.891
L32.002 294.891
L32.0803 297.243
L32.1565 297.243
L32.2344 301.87
L32.3128 301.87
L32.39 305.199
L32.4695 305.199
L32.5485 308.267
L32.6275 308.267
L32.7048 309.612
L32.7842 309.612
L32.8625 310.198
L32.9431 310.198
L33.0242 312.066
L33.1032 312.066
L33.1835 313.916
L33.2623 313.916
L33.3417 316.717
L33.4222 316.717
L33.5039 320.195
L33.5844 320.195
L33.6643 323.339
L33.7445 323.339
L33.8247 327.085
L33.9052 327.085
L33.9862 329.991
L34.0686 329.991
L34.1478 332.132
L34.2294 332.132
L34.3115 334.142
L34.3929 334.142
L34.4744 335.767
L34.557 335.767
L34.6387 337.527
L34.7218 337.527
L34.8046 339.769
L34.8852 339.769
L34.967 341.682
L35.0496 341.682
L35.1342 343.762
L35.217 343.762
L35.2989 346.433
L35.38 346.433
L35.4632 349.054
L35.5454 349.054
L35.629 351.318
L35.7108 351.318
L35.7915 353.295
L35.8763 353.295
L35.9592 355.299
L36.0449 355.299
L36.1282 357.341
L36.2099 357.341
L36.2937 360.171
L36.378 360.171
L36.4615 363.553
L36.5464 363.553
L36.6304 366.952
L36.7144 366.952
L36.798 369.742
L36.8795 369.742
L36.9668 371.824
L37.0501 371.824
L37.1342 373.844
L37.2169 373.844
L37.3017 375.796
L37.3857 375.796
L37.4685 377.254
L37.5547 377.254
L37.6407 378.555
L37.7252 378.555
L37.8103 379.948
L37.8969 379.948
L37.9818 381.046
L38.0655 381.046
L38.151 381.594
L38.2363 381.594
L38.3198 382.106
L38.4064 382.106
L38.4912 382.849
L38.5774 382.849
L38.6641 383.6
L38.7501 383.6
L38.8348 384.347
L38.9197 384.347
L39.0048 385.325
L39.0896 385.325
L39.1762 386.38
L39.2608 386.38
L39.3456 386.926
L39.4312 386.926
L39.5177 387.308
L39.8638 387.345
L39.949 387.456
L40.2922 387.532
L40.3792 387.881
L40.4657 387.881
L40.5522 388.466
L40.6385 388.466
L40.7239 389.069
L40.8099 389.069
L40.8969 389.418
L40.9843 389.418
L41.0714 389.835
L41.1591 389.835
L41.2467 390.332
L41.3326 390.332
L41.4177 390.777
L41.5069 390.777
L41.594 391.311
L41.683 391.311
L41.7704 391.695
L41.8567 391.695
L41.9443 392.036
L42.0311 392.036
L42.1191 392.271
L42.2949 392.375
L42.2949 392.437
L42.3812 392.437
L42.3812 392.437
L42.4706 392.223
L42.6452 392.117
L42.6452 392.105
L42.7308 392.105
L42.7308 392.105
L42.7308 392.143
L42.8206 392.117
L42.9931 392.155
L43.0813 392.356
L43.3444 392.439
L43.4331 392.593
L43.6947 392.693
L43.6947 392.813
L43.7855 392.797
L44.051 392.71
L44.1381 392.472
L44.2224 392.472
L44.3102 392.157
L44.3988 392.157
L44.4886 391.811
L44.6658 391.71
L44.7549 391.495
L44.9334 391.446
L45.0219 391.312
L45.1972 391.237
L45.2875 391.027
L45.4678 390.94
L45.554 390.673
L45.6429 390.673
L45.7311 390.281
L45.8192 390.281
L45.9094 389.637
L45.9976 389.637
L46.086 388.769
L46.1717 388.769
L46.2606 387.926
L46.348 387.926
L46.4384 387.114
L46.5273 387.114
L46.6161 386.462
L46.7066 386.462
L46.7957 385.837
L46.885 385.837
L46.9762 385.139
L47.065 385.139
L47.1543 384.432
L47.2422 384.432
L47.3307 383.895
L47.418 383.895
L47.5091 383.47
L47.6012 383.47
L47.6924 383.092
L47.7823 383.092
L47.8743 382.66
L47.9658 382.66
L48.0545 382.244
L48.1451 382.244
L48.234 381.802
L48.3209 381.802
L48.4093 381.391
L48.5031 381.391
L48.5918 381.125
L48.6797 381.125
L48.7683 380.852
L48.8584 380.852
L48.9468 380.465
L49.0361 380.465
L49.1292 380.086
L49.2193 380.086
L49.3088 379.739
L49.3976 379.739
L49.4868 379.316
L49.5779 379.316
L49.669 378.932
L49.7574 378.932
L49.8485 378.555
L49.9374 378.555
L50.0264 378.128
L50.1199 378.128
L50.2107 377.734
L50.3023 377.734
L50.3927 377.463
L50.5701 377.366
L50.6608 377.196
L50.7505 377.196
L50.8406 376.955
L50.933 376.955
L51.0248 376.729
L51.205 376.648
L51.2941 376.513
L51.4757 376.45
L51.5677 376.364
L52.0228 376.269
L52.1153 376.222
L52.6564 376.302
L52.7469 376.387
L53.2942 376.493
L53.2942 376.506
L53.3864 376.506
L53.3864 376.506
L53.4757 376.49
L54.1136 376.387
L54.2066 376.311
L54.3913 376.253
L54.4822 376.112
L54.6647 376.026
L54.7552 375.833
L54.8471 375.833
L54.9344 375.569
L55.0278 375.569
L55.1193 375.295
L55.2097 375.295
L55.2999 375.018
L55.3894 375.018
L55.4826 374.759
L55.5747 374.759
L55.6663 374.405
L55.7593 374.405
L55.8507 374.087
L55.9418 374.087
L56.035 373.809
L56.126 373.809
L56.2182 373.581
L56.3103 373.581
L56.4033 373.336
L56.5856 373.237
L56.6779 373.01
L56.7686 373.01
L56.8595 372.694
L56.9526 372.694
L57.0449 372.29
L57.1372 372.29
L57.2271 371.859
L57.3206 371.859
L57.4113 371.354
L57.5046 371.354
L57.5971 370.901
L57.6894 370.901
L57.7805 370.493
L57.873 370.493
L57.9662 370.087
L58.0569 370.087
L58.152 369.694
L58.2446 369.694
L58.3374 369.364
L58.4301 369.364
L58.5224 369.049
L58.6152 369.049
L58.7076 368.691
L58.8009 368.691
L58.8952 368.321
L58.9883 368.321
L59.0777 367.962
L59.169 367.962
L59.2629 367.608
L59.3553 367.608
L59.4497 367.264
L59.5435 367.264
L59.6357 366.936
L59.7284 366.936
L59.8206 366.628
L59.9144 366.628
L60.0051 366.368
L60.0965 366.368
L60.1867 366.026
L60.2787 366.026
L60.3721 365.653
L60.466 365.653
L60.5592 365.273
L60.6503 365.273
L60.7412 364.826
L60.8381 364.826
L60.9305 364.426
L61.0238 364.426
L61.1159 364.055
L61.2084 364.055
L61.3025 363.7
L61.3938 363.7
L61.4861 363.29
L61.5819 363.29
L61.6734 362.868
L61.7681 362.868
L61.8611 362.446
L61.9528 362.446
L62.0446 361.975
L62.135 361.975
L62.2281 361.556
L62.3206 361.556
L62.4147 361.146
L62.5086 361.146
L62.6047 360.707
L62.6976 360.707
L62.7902 360.26
L62.8858 360.26
L62.9775 359.79
L63.0722 359.79
L63.1655 359.286
L63.2579 359.286
L63.351 358.839
L63.4442 358.839
L63.5368 358.481
L63.628 358.481
L63.7211 358.108
L63.8147 358.108
L63.9084 357.736
L64.0038 357.736
L64.097 357.375
L64.1907 357.375
L64.2819 356.977
L64.3748 356.977
L64.4684 356.519
L64.5613 356.519
L64.6555 355.988
L64.7496 355.988
L64.8424 355.478
L64.9364 355.478
L65.0278 354.976
L65.12 354.976
L65.2119 354.502
L65.3064 354.502
L65.4009 354.008
L65.4925 354.008
L65.5846 353.498
L65.68 353.498
L65.7728 352.984
L65.8667 352.984
L65.9582 352.462
L66.0502 352.462
L66.1458 351.925
L66.2388 351.925
L66.3309 351.455
L66.4281 351.455
L66.5215 350.993
L66.6149 350.993
L66.7105 350.527
L66.803 350.527
L66.8975 350.081
L66.9918 350.081
L67.0856 349.699
L67.1779 349.699
L67.2715 349.362
L67.3673 349.362
L67.4597 349.057
L67.5561 349.057
L67.6486 348.788
L67.7414 348.788
L67.8375 348.542
L67.9316 348.542
L68.0253 348.244
L68.1184 348.244
L68.2133 347.917
L68.3098 347.917
L68.404 347.59
L68.4988 347.59
L68.5912 347.281
L68.6858 347.281
L68.7813 346.915
L68.8728 346.915
L68.9683 346.519
L69.0614 346.519
L69.1547 346.143
L69.2491 346.143
L69.342 345.758
L69.4374 345.758
L69.5319 345.346
L69.6277 345.346
L69.7231 344.919
L69.8183 344.919
L69.9114 344.482
L70.0053 344.482
L70.0991 344.021
L70.1922 344.021
L70.2854 343.587
L70.3795 343.587
L70.4744 343.161
L70.5684 343.161
L70.6627 342.781
L70.7585 342.781
L70.8511 342.422
L70.9472 342.422
L71.0419 342.095
L71.1375 342.095
L71.2301 341.786
L71.3263 341.786
L71.4232 341.47
L71.5176 341.47
L71.6115 341.168
L71.7063 341.168
L71.8009 340.869
L71.8946 340.869
L71.9885 340.586
L72.0824 340.586
L72.176 340.317
L72.2732 340.317
L72.3669 340.045
L72.461 340.045
L72.555 339.748
L72.6513 339.748
L72.744 339.447
L72.8406 339.447
L72.935 339.133
L73.0302 339.133
L73.1258 338.793
L73.2229 338.793
L73.3177 338.456
L73.4104 338.456
L73.5054 338.129
L73.599 338.129
L73.6922 337.808
L73.7862 337.808
L73.8798 337.531
L73.9756 337.531
L74.0685 337.249
L74.1649 337.249
L74.2599 336.99
L74.353 336.99
L74.4488 336.717
L74.5428 336.717
L74.6366 336.495
L74.826 336.387
L74.9207 336.186
L75.1103 336.098
L75.2062 335.956
L75.3991 335.888
L75.4935 335.778
L75.7771 335.686
L75.8741 335.597
L76.2565 335.496
L76.3526 335.428
L77.3018 335.331
L77.3954 335.299
L78.4489 335.193
L78.5444 335.168
L79.5909 335.062
L79.6885 335.041
L80.8402 334.94
L80.9351 334.908
L83.2401 334.799
L83.3349 334.79
L83.9077 334.69
L84.0044 334.625
L84.2907 334.538
L84.3879 334.464
L84.6753 334.385
L84.7678 334.299
L85.0557 334.215
L85.1531 334.141
L85.7316 334.05
L85.8298 334.003
L89.3943 334.109
L89.4915 334.149
L90.4566 334.254
L90.5521 334.289
L91.3246 334.388
L91.4237 334.428
L92.0063 334.528
L92.1038 334.581
L92.491 334.687
L92.5893 334.76
L93.2648 334.856
L93.3623 334.896
L94.2314 335.004
L94.331 335.052
L94.7183 335.152
L94.8162 335.225
L95.1089 335.304
L95.2058 335.383
L95.5899 335.484
L95.6857 335.556
L95.9773 335.652
L96.0751 335.746
L96.3712 335.844
L96.4691 335.941
L96.7616 336.024
L96.86 336.113
L97.1552 336.194
L97.2534 336.27
L97.5475 336.346
L97.6432 336.426
L98.0333 336.521
L98.1286 336.577
L98.4216 336.646
L98.5201 336.734
L98.9104 336.841
L99.008 336.9
L99.4015 337.009
L99.5005 337.096
L99.7923 337.181
L99.8872 337.259
L100.177 337.357
L100.275 337.484
L100.472 337.554
L100.568 337.677
L100.861 337.784
L100.959 337.885
L101.154 337.945
L101.249 338.074
L101.442 338.143
L101.54 338.306
L101.74 338.389
L101.839 338.564
L102.035 338.649
L102.135 338.81
L102.328 338.885
L102.424 339.043
L102.62 339.128
L102.719 339.302
L102.917 339.384
L103.016 339.542
L103.209 339.618
L103.306 339.774
L103.502 339.864
L103.599 340.039
L103.791 340.133
L103.887 340.325
L104.085 340.419
L104.183 340.589
L104.379 340.679
L104.478 340.852
L104.675 340.93
L104.772 341.07
L105.068 341.177
L105.165 341.282
L105.361 341.342
L105.461 341.463
L105.655 341.529
L105.752 341.662
L105.947 341.726
L106.045 341.85
L106.242 341.914
L106.339 342.035
L106.539 342.095
L106.637 342.216
L106.935 342.326
L107.031 342.449
L107.227 342.514
L107.325 342.661
L107.522 342.737
L107.621 342.886
L107.818 342.959
L107.914 343.094
L108.114 343.158
L108.212 343.263
L108.504 343.352
L108.603 343.429
L108.896 343.509
L108.998 343.603
L109.297 343.689
L109.395 343.77
L109.686 343.847
L109.785 343.918
L110.175 344.015
L110.273 344.067
L111.062 344.176
L111.162 344.21
L111.749 344.306
L111.846 344.361
L112.143 344.437
L112.243 344.52
L112.538 344.604
L112.638 344.677
L113.231 344.773
L113.329 344.818
L113.821 344.925
L113.924 344.993
L114.319 345.079
L114.415 345.139
L114.909 345.226
L115.011 345.277
L115.403 345.361
L115.502 345.425
L115.898 345.529
L115.994 345.595
L116.386 345.687
L116.486 345.753
L116.883 345.844
L116.983 345.902
L117.371 345.995
L117.468 346.057
L117.865 346.168
L117.964 346.249
L118.267 346.336
L118.367 346.426
L118.763 346.529
L118.86 346.581
L119.352 346.683
L119.447 346.727
L120.137 346.829
L120.237 346.865
L120.734 346.968
L120.833 347.019
L121.429 347.12
L121.528 347.161
L122.127 347.268
L122.222 347.322
L122.617 347.419
L122.719 347.452
L123.419 347.559
L123.519 347.584
L126.993 347.689
L127.095 347.72
L127.791 347.822
L127.89 347.855
L128.59 347.959
L128.69 348
L129.189 348.1
L129.287 348.151
L129.782 348.25
L129.881 348.299
L130.485 348.404
L130.587 348.45
L131.086 348.539
L131.186 348.594
L131.582 348.689
L131.682 348.75
L132.079 348.832
L132.178 348.892
L132.576 348.982
L132.678 349.039
L133.173 349.141
L133.273 349.188
L133.673 349.269
L133.774 349.339
L134.178 349.448
L134.278 349.515
L134.676 349.619
L134.775 349.696
L135.082 349.789
L135.181 349.874
L135.479 349.953
L135.581 350.039
L135.879 350.135
L135.981 350.236
L136.279 350.327
L136.376 350.42
L136.675 350.512
L136.776 350.605
L137.081 350.705
L137.178 350.793
L137.48 350.88
L137.578 350.963
L137.881 351.043
L137.979 351.115
L138.38 351.219
L138.48 351.283
L138.884 351.375
L138.984 351.438
L139.383 351.547
L139.483 351.609
L139.886 351.702
L139.985 351.764
L140.383 351.852
L140.482 351.909
L140.889 352.002
L140.988 352.054
L141.389 352.147
L141.488 352.214
L141.887 352.317
L141.987 352.38
L142.389 352.473
L142.489 352.539
L142.885 352.631
L142.988 352.681
L143.488 352.786
L143.592 352.839
L144.303 352.938
L144.403 352.967
L145.514 353.077
L145.615 353.112
L146.312 353.214
L146.416 353.243
L147.118 353.345
L147.22 353.365
L148.124 353.467
L148.225 353.498
L151.954 353.388
L152.056 353.369
L153.065 353.26
L153.166 353.232
L154.176 353.124
L154.275 353.105
L155.079 352.994
L155.181 352.954
L155.684 352.856
L155.787 352.814
L156.291 352.714
L156.392 352.663
L156.897 352.568
L156.996 352.53
L157.501 352.441
L157.602 352.396
L158.317 352.289
L158.416 352.266
L159.738 352.16
L159.842 352.144
L161.159 352.042
L161.261 352.02
L162.576 351.912
L162.677 351.899
L165.012 352.004
L165.112 352.038
L165.917 352.137
L166.023 352.17
L166.626 352.271
L166.729 352.325
L167.235 352.428
L167.339 352.478
L167.849 352.582
L167.951 352.627
L168.558 352.733
L168.66 352.774
L169.268 352.878
L169.367 352.914
L169.979 353.013
L170.081 353.063
L170.492 353.147
L170.594 353.205
L171.1 353.311
L171.201 353.362
L171.712 353.466
L171.813 353.516
L172.319 353.613
L172.425 353.662
L173.032 353.769
L173.135 353.806
L174.051 353.907
L174.149 353.928
L175.575 354.032
L175.675 354.053
L177.615 354.162
L177.719 354.186
L178.64 354.291
L178.741 354.316
L179.561 354.416
L179.662 354.447
L180.382 354.548
L180.484 354.575
L181.294 354.683
L181.401 354.728
L182.014 354.827
L182.117 354.868
L182.729 354.963
L182.829 355
L183.647 355.102
L183.747 355.138
L184.456 355.24
L184.558 355.276
L185.272 355.386
L185.372 355.423
L186.187 355.527
L186.292 355.556
L187.112 355.658
L187.217 355.685
L188.642 355.788
L188.745 355.819
L189.361 355.915
L189.466 355.962
L189.983 356.073
L190.087 356.132
L190.6 356.24
L190.701 356.287
L191.313 356.388
L191.418 356.425
L192.039 356.531
L192.143 356.57
L192.96 356.68
L193.062 356.711
L193.882 356.814
L193.984 356.843
L195.013 356.953
L195.117 356.98
L195.836 357.079
L195.936 357.115
L196.654 357.22
L196.757 357.248
L197.577 357.356
L197.676 357.387
L198.295 357.479
L198.396 357.519
L199.018 357.614
L199.12 357.647
L199.939 357.755
L200.045 357.795
L200.66 357.897
L200.762 357.94
L201.275 358.031
L201.378 358.077
L201.888 358.169
L201.991 358.216
L202.51 358.321
L202.612 358.375
L203.128 358.474
L203.23 358.52
L203.742 358.609
L203.844 358.659
L204.255 358.745
L204.358 358.801
L204.88 358.907
L204.981 358.961
L205.5 359.066
L205.604 359.109
L206.125 359.198
L206.23 359.246
L206.75 359.348
L206.855 359.399
L207.369 359.505
L207.471 359.559
L207.986 359.666
L208.087 359.718
L208.506 359.804
L208.611 359.857
L209.126 359.955
L209.231 360.002
L209.739 360.092
L209.846 360.139
L210.363 360.232
L210.468 360.279
L210.982 360.377
L211.09 360.423
L211.705 360.531
L211.808 360.575
L212.426 360.674
L212.529 360.708
L213.359 360.814
L213.459 360.846
L215.013 360.953
L215.118 360.963
L216.563 361.074
L216.664 361.103
L217.49 361.207
L217.593 361.24
L218.418 361.344
L218.522 361.374
L219.249 361.478
L219.353 361.515
L220.087 361.622
L220.19 361.66
L220.807 361.761
L220.908 361.804
L221.42 361.896
L221.524 361.945
L222.047 362.043
L222.151 362.096
L222.668 362.199
L222.773 362.255
L223.182 362.343
L223.286 362.406
L223.703 362.5
L223.807 362.562
L224.219 362.65
L224.324 362.707
L224.739 362.795
L224.844 362.852
L225.259 362.937
L225.366 362.992
L225.781 363.081
L225.883 363.141
L226.294 363.229
L226.398 363.289
L226.809 363.375
L226.911 363.435
L227.323 363.525
L227.428 363.582
L227.946 363.688
L228.049 363.737
L228.675 363.84
L228.779 363.88
L229.502 363.987
L229.607 364.025
L230.223 364.135
L230.327 364.182
L230.951 364.29
L231.056 364.334
L231.677 364.44
L231.782 364.48
L232.396 364.58
L232.5 364.616
L233.227 364.726
L233.33 364.763
L234.051 364.864
L234.156 364.9
L234.883 365.01
L234.99 365.05
L235.618 365.149
L235.723 365.192
L236.349 365.296
L236.451 365.334
L236.972 365.422
L237.077 365.468
L237.693 365.571
L237.797 365.609
L238.527 365.717
L238.631 365.757
L239.158 365.855
L239.261 365.906
L239.776 366.012
L239.879 366.066
L240.395 366.164
L240.503 366.214
L241.025 366.311
L241.131 366.357
L241.755 366.46
L241.859 366.499
L242.486 366.602
L242.591 366.645
L243.219 366.748
L243.321 366.79
L243.945 366.895
L244.052 366.935
L244.786 367.037
L244.89 367.072
L245.51 367.168
L245.616 367.213
L246.25 367.32
L246.356 367.358
L246.977 367.456
L247.082 367.497
L247.702 367.591
L247.802 367.627
L248.538 367.724
L248.64 367.754
L249.477 367.861
L249.578 367.89
L250.521 367.997
L250.623 368.02
L251.99 368.129
L252.095 368.144
L253.555 368.247
L253.658 368.264
L255.021 368.371
L255.126 368.39
L256.586 368.499
L256.693 368.516
L257.741 368.617
L257.846 368.644
L258.786 368.747
L258.889 368.773
L259.828 368.877
L259.933 368.899
L260.874 369.004
L260.978 369.036
L261.816 369.136
L261.92 369.162
L262.861 369.263
L262.963 369.285
L264.001 369.392
L264.102 369.414
L265.256 369.517
L265.36 369.535
L266.931 369.644
L267.038 369.662
L268.088 369.763
L268.193 369.786
L269.663 369.894
L269.768 369.911
L270.814 370.011
L270.918 370.033
L272.284 370.135
L272.392 370.157
L273.542 370.26
L273.646 370.284
L274.699 370.389
L274.803 370.417
L275.649 370.522
L275.753 370.553
L276.589 370.656
L276.696 370.687
L277.649 370.797
L277.754 370.824
L278.703 370.932
L278.806 370.96
L279.751 371.07
L279.855 371.099
L280.807 371.203
L280.914 371.228
L281.86 371.328
L281.964 371.354
L282.806 371.455
L282.913 371.483
L283.645 371.579
L283.752 371.611
L284.485 371.715
L284.591 371.752
L285.32 371.859
L285.424 371.894
L286.161 371.999
L286.267 372.032
L287.107 372.135
L287.213 372.166
L287.954 372.263
L288.057 372.294
L288.902 372.404
L289.006 372.439
L289.745 372.546
L289.849 372.581
L290.584 372.68
L290.689 372.711
L291.424 372.813
L291.529 372.848
L292.268 372.952
L292.377 372.985
L293.221 373.085
L293.328 373.114
L294.175 373.215
L294.277 373.241
L295.122 373.343
L295.224 373.372
L296.07 373.47
L296.176 373.499
L296.906 373.597
L297.011 373.632
L297.751 373.729
L297.857 373.761
L298.702 373.871
L298.809 373.907
L299.446 374.001
L299.551 374.039
L300.183 374.137
L300.289 374.178
L300.923 374.289
L301.027 374.336
L301.557 374.435
L301.664 374.48
L302.293 374.587
L302.401 374.628
L303.037 374.731
L303.139 374.773
L303.668 374.863
L303.771 374.912
L304.299 375.012
L304.405 375.065
L304.935 375.175
L305.041 375.23
L305.573 375.332
L305.681 375.379
L306.213 375.472
L306.316 375.515
L306.844 375.603
L306.95 375.651
L307.479 375.747
L307.585 375.792
L308.112 375.887
L308.221 375.937
L308.745 376.033
L308.852 376.081
L309.389 376.181
L309.493 376.232
L310.024 376.326
L310.13 376.373
L310.664 376.472
L310.767 376.52
L311.293 376.621
L311.397 376.672
L311.93 376.782
L312.036 376.838
L312.462 376.923
L312.569 376.981
L313.1 377.09
L313.203 377.141
L313.726 377.237
L313.833 377.287
L314.364 377.384
L314.468 377.431
L315.002 377.53
L315.108 377.58
L315.636 377.682
L315.741 377.736
L316.277 377.845
L316.38 377.897
L316.905 377.998
L317.011 378.046
L317.539 378.14
L317.643 378.185
L318.18 378.282
L318.284 378.331
L318.81 378.428
L318.914 378.476
L319.438 378.576
L319.544 378.627
L320.079 378.73
L320.182 378.784
L320.613 378.869
L320.722 378.926
L321.145 379.008
L321.251 379.067
L321.674 379.155
L321.778 379.213
L322.193 379.296
L322.301 379.356
L322.722 379.448
L322.83 379.51
L323.252 379.602
L323.36 379.662
L323.789 379.753
L323.893 379.814
L324.316 379.91
L324.422 379.974
L324.844 380.067
L324.953 380.127
L325.368 380.213
L325.476 380.269
L325.903 380.353
L326.012 380.409
L326.538 380.519
L326.647 380.574
L327.074 380.658
L327.181 380.713
L327.714 380.819
L327.821 380.872
L328.353 380.977
L328.459 381.03
L328.99 381.135
L329.095 381.182
L329.628 381.274
L329.733 381.321
L330.268 381.419
L330.373 381.471
L330.902 381.574
L331.01 381.625
L331.539 381.729
L331.644 381.781
L332.177 381.883
L332.282 381.937
L332.809 382.042
L332.91 382.097
L333.336 382.183
L333.442 382.241
L333.874 382.332
L333.979 382.392
L334.404 382.481
L334.511 382.539
L334.939 382.624
L335.048 382.684
L335.473 382.772
L335.578 382.829
L336.006 382.917
L336.114 382.974
L336.537 383.062
L336.643 383.121
L337.066 383.211
L337.175 383.272
L337.6 383.361
L337.709 383.419
L338.13 383.503
L338.234 383.558
L338.664 383.643
L338.771 383.699
L339.197 383.783
L339.303 383.843
L339.731 383.929
L339.836 383.982
L340.366 384.087
L340.475 384.143
L341.003 384.251
L341.106 384.304
L341.642 384.41
L341.749 384.463
L342.278 384.572
L342.384 384.625
L342.812 384.709
L342.913 384.763
L343.335 384.847
L343.439 384.905
L343.87 384.995
L343.975 385.055
L344.399 385.144
L344.505 385.203
L344.936 385.292
L345.047 385.35
L345.473 385.441
L345.577 385.5
L346.012 385.591
L346.116 385.65
L346.542 385.74
L346.647 385.797
L347.079 385.886
L347.187 385.949
L347.611 386.043
L347.72 386.104
L348.146 386.195
L348.256 386.256
L348.677 386.345
L348.785 386.401
L349.212 386.485
L349.315 386.541
L349.742 386.626
L349.847 386.682
L350.274 386.77
L350.38 386.829
L350.809 386.916
L350.913 386.973
L351.341 387.058
L351.444 387.114
L351.979 387.223
L352.085 387.277
L352.625 387.387
L352.733 387.442
L353.262 387.548
L353.367 387.601
L353.903 387.705
L354.006 387.754
L354.541 387.85
L354.649 387.897
L355.184 387.992
L355.291 388.042
L355.821 388.142
L355.928 388.191
L356.462 388.284
L356.569 388.329
L357.206 388.439
L357.311 388.484
L357.847 388.577
L357.952 388.623
L358.487 388.716
L358.589 388.761
L359.12 388.852
L359.224 388.898
L359.762 388.99
L359.868 389.036
L360.399 389.125
L360.509 389.172
L361.042 389.27
L361.146 389.315
L361.785 389.424
L361.893 389.465
L362.538 389.57
L362.647 389.611
L363.292 389.71
L363.398 389.75
L364.047 389.856
L364.154 389.902
L364.792 390.01
L364.898 390.053
L365.543 390.164
L365.648 390.21
L366.291 390.319
L366.397 390.364
L366.933 390.458
L367.038 390.501
L367.676 390.604
L367.784 390.643
L368.428 390.742
L368.537 390.782
L369.177 390.878
L369.282 390.915
L369.922 391.013
L370.029 391.052
L370.668 391.151
L370.777 391.191
L371.415 391.284
L371.517 391.321
L372.155 391.416
L372.264 391.456
L372.907 391.559
L373.012 391.6
L373.651 391.709
L373.759 391.751
L374.402 391.854
L374.508 391.895
L375.153 391.994
L375.262 392.031
L376.012 392.132
L376.12 392.165
L376.862 392.266
L376.969 392.299
L377.714 392.407
L377.822 392.445
L378.571 392.551
L378.679 392.584
L379.43 392.681
L379.533 392.713
L380.282 392.815
L380.39 392.848
L381.25 392.956
L381.356 392.988
L382.216 393.099
L382.323 393.129
L383.18 393.233
L383.287 393.261
L384.149 393.362
L384.254 393.389
L385.117 393.495
L385.224 393.526
L386.078 393.633
L386.187 393.662
L387.157 393.768
L387.262 393.791
L388.54 393.901
L388.648 393.922
L389.825 394.028
L389.932 394.051
L391.119 394.16
L391.227 394.179
L392.511 394.288
L392.619 394.309
L393.907 394.416
L394.014 394.436
L395.628 394.546
L395.736 394.563
L397.13 394.667
L397.239 394.686
L398.522 394.79
L398.628 394.807
L400.245 394.917
L400.352 394.929
L402.489 395.038
L402.595 395.05
L404.97 395.16
L405.073 395.169
L406.902 395.277
L407.009 395.292
L408.733 395.399
L408.841 395.418
L410.237 395.527
L410.343 395.542
L411.964 395.644
L412.073 395.662
L413.471 395.769
L413.581 395.785
L416.166 395.894
L416.273 395.901
L418.742 396.009
L418.85 396.017
L422.727 396.126
L422.834 396.132
L425.544 396.24
L425.654 396.255
L427.05 396.363
L427.156 396.381
L428.45 396.483
L428.558 396.504
L429.75 396.61
L429.859 396.636
L430.83 396.741
L430.941 396.768
L431.909 396.868
L432.016 396.891
L433.095 397.002
L433.205 397.029
L434.185 397.137
L434.294 397.165
L435.261 397.266
L435.372 397.293
L436.239 397.389
L436.344 397.418
L437.21 397.522
L437.315 397.553
L438.179 397.662
L438.288 397.693
L439.046 397.793
L439.15 397.826
L439.909 397.931
L440.018 397.966
L440.772 398.072
L440.772 398.09
L441.529 398.196
L441.64 398.229
L442.404 398.333
L442.512 398.366
L443.375 398.474
L443.482 398.505
L444.343 398.614
L444.449 398.645
L445.318 398.756
L445.425 398.786
L446.287 398.884
L446.395 398.911
L447.358 399.013
L447.467 399.036
L448.435 399.135
L448.541 399.161
L449.515 399.261
L449.621 399.285
L450.709 399.388
L450.813 399.413
L451.792 399.514
L451.898 399.538
L452.975 399.639
L453.084 399.662
L454.175 399.764
L454.283 399.788
L455.366 399.897
L455.474 399.92
L456.552 400.028
L456.659 400.052
L457.736 400.154
L457.736 400.165
L458.834 400.266
L458.942 400.288
L460.242 400.399
L460.352 400.417
L461.76 400.528
L461.868 400.544
L463.275 400.654
L463.381 400.675
L464.468 400.777
L464.578 400.802
L465.66 400.913
L465.771 400.936
L466.968 401.041
L467.075 401.063
L468.169 401.164
L468.276 401.186
L469.471 401.294
L469.576 401.314
L470.762 401.416
L470.762 401.426
L471.96 401.532
L472.068 401.554
L473.155 401.661
L473.261 401.686
L474.242 401.794
L474.349 401.821
L475.323 401.923
L475.432 401.946
L476.515 402.048
L476.624 402.07
L477.819 402.172
L477.929 402.19
L479.339 402.301
L479.446 402.319
L480.864 402.427
L480.972 402.442
L482.606 402.552
L482.713 402.57
L484.123 402.677
L484.227 402.696
L486.077 402.804
L486.077 402.811
L488.136 402.921
L488.244 402.934
L490.421 403.043
L490.531 403.057
L492.834 403.165
L492.939 403.176
L495.111 403.285
L495.216 403.298
L497.177 403.405
L497.284 403.417
L499.023 403.521
L499.023 403.529
L500.651 403.635
L500.76 403.65
L502.392 403.755
L502.501 403.769
L504.25 403.874
L504.358 403.887
L506.43 403.996
L506.539 404.006
L508.604 404.114
L508.711 404.127
L510.797 404.236
L510.904 404.249
L512.871 404.36
L512.978 404.373
L515.045 404.479
L515.151 404.49
L517.444 404.596
L517.554 404.608
L520.052 404.715
L520.052 404.72
L522.997 404.828
L523.107 404.835
L526.497 404.944
L526.604 404.951
L530.421 405.061
L530.421 405.065
L533.476 405.172
L533.583 405.181
L537.412 405.29
L537.522 405.297
L542.463 405.406
L542.567 405.41
L545.187 405.468
L545.187 405.471" style="fill:none;stroke:#ff0000;stroke-width:0.5;"/>
   </g>
   <g id="matplotlib.axis_1">
    <g id="xtick_1">
     <g id="line2d_2">
      <defs>
       <path d="
M0 0
L0 -4" id="mf78dc1563b"/>
      </defs>
      <g>
       <use style="stroke:#000000;stroke-linecap:butt;stroke-width:0.5;" x="29.6609375" xlink:href="#mf78dc1563b" y="15.0092307692"/>
      </g>
     </g>
    </g>
    <g id="xtick_2">
     <g id="line2d_3">
      <defs>
       <path d="
M0 0
L0 -4" id="mf78dc1563b"/>
      </defs>
      <g>
       <use style="stroke:#000000;stroke-linecap:butt;stroke-width:0.5;" x="132.772084316" xlink:href="#mf78dc1563b" y="15.0092307692"/>
      </g>
     </g>
     <g id="text_1">
      <!-- 2e7 -->
      <defs>
       <path d="
M19.1875 8.29688
L53.6094 8.29688
L53.6094 0
L7.32812 0
L7.32812 8.29688
Q12.9375 14.1094 22.625 23.8906
Q32.3281 33.6875 34.8125 36.5312
Q39.5469 41.8438 41.4219 45.5312
Q43.3125 49.2188 43.3125 52.7812
Q43.3125 58.5938 39.2344 62.25
Q35.1562 65.9219 28.6094 65.9219
Q23.9688 65.9219 18.8125 64.3125
Q13.6719 62.7031 7.8125 59.4219
L7.8125 69.3906
Q13.7656 71.7812 18.9375 73
Q24.125 74.2188 28.4219 74.2188
Q39.75 74.2188 46.4844 68.5469
Q53.2188 62.8906 53.2188 53.4219
Q53.2188 48.9219 51.5312 44.8906
Q49.8594 40.875 45.4062 35.4062
Q44.1875 33.9844 37.6406 27.2188
Q31.1094 20.4531 19.1875 8.29688" id="BitstreamVeraSans-Roman-32"/>
       <path d="
M56.2031 29.5938
L56.2031 25.2031
L14.8906 25.2031
Q15.4844 15.9219 20.4844 11.0625
Q25.4844 6.20312 34.4219 6.20312
Q39.5938 6.20312 44.4531 7.46875
Q49.3125 8.73438 54.1094 11.2812
L54.1094 2.78125
Q49.2656 0.734375 44.1875 -0.34375
Q39.1094 -1.42188 33.8906 -1.42188
Q20.7969 -1.42188 13.1562 6.1875
Q5.51562 13.8125 5.51562 26.8125
Q5.51562 40.2344 12.7656 48.1094
Q20.0156 56 32.3281 56
Q43.3594 56 49.7812 48.8906
Q56.2031 41.7969 56.2031 29.5938
M47.2188 32.2344
Q47.125 39.5938 43.0938 43.9844
Q39.0625 48.3906 32.4219 48.3906
Q24.9062 48.3906 20.3906 44.1406
Q15.875 39.8906 15.1875 32.1719
z
" id="BitstreamVeraSans-Roman-65"/>
       <path d="
M8.20312 72.9062
L55.0781 72.9062
L55.0781 68.7031
L28.6094 0
L18.3125 0
L43.2188 64.5938
L8.20312 64.5938
z
" id="BitstreamVeraSans-Roman-37"/>
      </defs>
      <g transform="translate(124.126771816 26.4311057692)scale(0.1 -0.1)">
       <use xlink:href="#BitstreamVeraSans-Roman-32"/>
       <use x="63.623046875" xlink:href="#BitstreamVeraSans-Roman-65"/>
       <use x="125.146484375" xlink:href="#BitstreamVeraSans-Roman-37"/>
      </g>
     </g>
    </g>
    <g id="xtick_3">
     <g id="line2d_4">
      <defs>
       <path d="
M0 0
L0 -4" id="mf78dc1563b"/>
      </defs>
      <g>
       <use style="stroke:#000000;stroke-linecap:butt;stroke-width:0.5;" x="235.883231132" xlink:href="#mf78dc1563b" y="15.0092307692"/>
      </g>
     </g>
     <g id="text_2">
      <!-- 4e7 -->
      <defs>
       <path d="
M37.7969 64.3125
L12.8906 25.3906
L37.7969 25.3906
z

M35.2031 72.9062
L47.6094 72.9062
L47.6094 25.3906
L58.0156 25.3906
L58.0156 17.1875
L47.6094 17.1875
L47.6094 0
L37.7969 0
L37.7969 17.1875
L4.89062 17.1875
L4.89062 26.7031
z
" id="BitstreamVeraSans-Roman-34"/>
      </defs>
      <g transform="translate(227.116043632 26.2998557692)scale(0.1 -0.1)">
       <use xlink:href="#BitstreamVeraSans-Roman-34"/>
       <use x="63.623046875" xlink:href="#BitstreamVeraSans-Roman-65"/>
       <use x="125.146484375" xlink:href="#BitstreamVeraSans-Roman-37"/>
      </g>
     </g>
    </g>
    <g id="xtick_4">
     <g id="line2d_5">
      <defs>
       <path d="
M0 0
L0 -4" id="mf78dc1563b"/>
      </defs>
      <g>
       <use style="stroke:#000000;stroke-linecap:butt;stroke-width:0.5;" x="338.994377947" xlink:href="#mf78dc1563b" y="15.0092307692"/>
      </g>
     </g>
     <g id="text_3">
      <!-- 6e7 -->
      <defs>
       <path d="
M33.0156 40.375
Q26.375 40.375 22.4844 35.8281
Q18.6094 31.2969 18.6094 23.3906
Q18.6094 15.5312 22.4844 10.9531
Q26.375 6.39062 33.0156 6.39062
Q39.6562 6.39062 43.5312 10.9531
Q47.4062 15.5312 47.4062 23.3906
Q47.4062 31.2969 43.5312 35.8281
Q39.6562 40.375 33.0156 40.375
M52.5938 71.2969
L52.5938 62.3125
Q48.875 64.0625 45.0938 64.9844
Q41.3125 65.9219 37.5938 65.9219
Q27.8281 65.9219 22.6719 59.3281
Q17.5312 52.7344 16.7969 39.4062
Q19.6719 43.6562 24.0156 45.9219
Q28.375 48.1875 33.5938 48.1875
Q44.5781 48.1875 50.9531 41.5156
Q57.3281 34.8594 57.3281 23.3906
Q57.3281 12.1562 50.6875 5.35938
Q44.0469 -1.42188 33.0156 -1.42188
Q20.3594 -1.42188 13.6719 8.26562
Q6.98438 17.9688 6.98438 36.375
Q6.98438 53.6562 15.1875 63.9375
Q23.3906 74.2188 37.2031 74.2188
Q40.9219 74.2188 44.7031 73.4844
Q48.4844 72.75 52.5938 71.2969" id="BitstreamVeraSans-Roman-36"/>
      </defs>
      <g transform="translate(330.331877947 26.4311057692)scale(0.1 -0.1)">
       <use xlink:href="#BitstreamVeraSans-Roman-36"/>
       <use x="63.623046875" xlink:href="#BitstreamVeraSans-Roman-65"/>
       <use x="125.146484375" xlink:href="#BitstreamVeraSans-Roman-37"/>
      </g>
     </g>
    </g>
    <g id="xtick_5">
     <g id="line2d_6">
      <defs>
       <path d="
M0 0
L0 -4" id="mf78dc1563b"/>
      </defs>
      <g>
       <use style="stroke:#000000;stroke-linecap:butt;stroke-width:0.5;" x="442.105524763" xlink:href="#mf78dc1563b" y="15.0092307692"/>
      </g>
     </g>
     <g id="text_4">
      <!-- 8e7 -->
      <defs>
       <path d="
M31.7812 34.625
Q24.75 34.625 20.7188 30.8594
Q16.7031 27.0938 16.7031 20.5156
Q16.7031 13.9219 20.7188 10.1562
Q24.75 6.39062 31.7812 6.39062
Q38.8125 6.39062 42.8594 10.1719
Q46.9219 13.9688 46.9219 20.5156
Q46.9219 27.0938 42.8906 30.8594
Q38.875 34.625 31.7812 34.625
M21.9219 38.8125
Q15.5781 40.375 12.0312 44.7188
Q8.5 49.0781 8.5 55.3281
Q8.5 64.0625 14.7188 69.1406
Q20.9531 74.2188 31.7812 74.2188
Q42.6719 74.2188 48.875 69.1406
Q55.0781 64.0625 55.0781 55.3281
Q55.0781 49.0781 51.5312 44.7188
Q48 40.375 41.7031 38.8125
Q48.8281 37.1562 52.7969 32.3125
Q56.7812 27.4844 56.7812 20.5156
Q56.7812 9.90625 50.3125 4.23438
Q43.8438 -1.42188 31.7812 -1.42188
Q19.7344 -1.42188 13.25 4.23438
Q6.78125 9.90625 6.78125 20.5156
Q6.78125 27.4844 10.7812 32.3125
Q14.7969 37.1562 21.9219 38.8125
M18.3125 54.3906
Q18.3125 48.7344 21.8438 45.5625
Q25.3906 42.3906 31.7812 42.3906
Q38.1406 42.3906 41.7188 45.5625
Q45.3125 48.7344 45.3125 54.3906
Q45.3125 60.0625 41.7188 63.2344
Q38.1406 66.4062 31.7812 66.4062
Q25.3906 66.4062 21.8438 63.2344
Q18.3125 60.0625 18.3125 54.3906" id="BitstreamVeraSans-Roman-38"/>
      </defs>
      <g transform="translate(433.432868513 26.4311057692)scale(0.1 -0.1)">
       <use xlink:href="#BitstreamVeraSans-Roman-38"/>
       <use x="63.623046875" xlink:href="#BitstreamVeraSans-Roman-65"/>
       <use x="125.146484375" xlink:href="#BitstreamVeraSans-Roman-37"/>
      </g>
     </g>
    </g>
    <g id="xtick_6">
     <g id="line2d_7">
      <defs>
       <path d="
M0 0
L0 -4" id="mf78dc1563b"/>
      </defs>
      <g>
       <use style="stroke:#000000;stroke-linecap:butt;stroke-width:0.5;" x="545.216671579" xlink:href="#mf78dc1563b" y="15.0092307692"/>
      </g>
     </g>
     <g id="text_5">
      <!-- 1e8 -->
      <defs>
       <path d="
M12.4062 8.29688
L28.5156 8.29688
L28.5156 63.9219
L10.9844 60.4062
L10.9844 69.3906
L28.4219 72.9062
L38.2812 72.9062
L38.2812 8.29688
L54.3906 8.29688
L54.3906 0
L12.4062 0
z
" id="BitstreamVeraSans-Roman-31"/>
      </defs>
      <g transform="translate(536.669015329 26.4311057692)scale(0.1 -0.1)">
       <use xlink:href="#BitstreamVeraSans-Roman-31"/>
       <use x="63.623046875" xlink:href="#BitstreamVeraSans-Roman-65"/>
       <use x="125.146484375" xlink:href="#BitstreamVeraSans-Roman-38"/>
      </g>
     </g>
    </g>
    <g id="xtick_7">
     <g id="line2d_8">
      <defs>
       <path d="
M0 0
L0 -2" id="m73949ea7d5"/>
      </defs>
      <g>
       <use style="stroke:#000000;stroke-linecap:butt;stroke-width:0.5;" x="55.4387242039" xlink:href="#m73949ea7d5" y="15.0092307692"/>
      </g>
     </g>
    </g>
    <g id="xtick_8">
     <g id="line2d_9">
      <defs>
       <path d="
M0 0
L0 -2" id="m73949ea7d5"/>
      </defs>
      <g>
       <use style="stroke:#000000;stroke-linecap:butt;stroke-width:0.5;" x="81.2165109079" xlink:href="#m73949ea7d5" y="15.0092307692"/>
      </g>
     </g>
    </g>
    <g id="xtick_9">
     <g id="line2d_10">
      <defs>
       <path d="
M0 0
L0 -2" id="m73949ea7d5"/>
      </defs>
      <g>
       <use style="stroke:#000000;stroke-linecap:butt;stroke-width:0.5;" x="106.994297612" xlink:href="#m73949ea7d5" y="15.0092307692"/>
      </g>
     </g>
    </g>
    <g id="xtick_10">
     <g id="line2d_11">
      <defs>
       <path d="
M0 0
L0 -2" id="m73949ea7d5"/>
      </defs>
      <g>
       <use style="stroke:#000000;stroke-linecap:butt;stroke-width:0.5;" x="158.54987102" xlink:href="#m73949ea7d5" y="15.0092307692"/>
      </g>
     </g>
    </g>
    <g id="xtick_11">
     <g id="line2d_12">
      <defs>
       <path d="
M0 0
L0 -2" id="m73949ea7d5"/>
      </defs>
      <g>
       <use style="stroke:#000000;stroke-linecap:butt;stroke-width:0.5;" x="184.327657724" xlink:href="#m73949ea7d5" y="15.0092307692"/>
      </g>
     </g>
    </g>
    <g id="xtick_12">
     <g id="line2d_13">
      <defs>
       <path d="
M0 0
L0 -2" id="m73949ea7d5"/>
      </defs>
      <g>
       <use style="stroke:#000000;stroke-linecap:butt;stroke-width:0.5;" x="210.105444428" xlink:href="#m73949ea7d5" y="15.0092307692"/>
      </g>
     </g>
    </g>
    <g id="xtick_13">
     <g id="line2d_14">
      <defs>
       <path d="
M0 0
L0 -2" id="m73949ea7d5"/>
      </defs>
      <g>
       <use style="stroke:#000000;stroke-linecap:butt;stroke-width:0.5;" x="261.661017835" xlink:href="#m73949ea7d5" y="15.0092307692"/>
      </g>
     </g>
    </g>
    <g id="xtick_14">
     <g id="line2d_15">
      <defs>
       <path d="
M0 0
L0 -2" id="m73949ea7d5"/>
      </defs>
      <g>
       <use style="stroke:#000000;stroke-linecap:butt;stroke-width:0.5;" x="287.438804539" xlink:href="#m73949ea7d5" y="15.0092307692"/>
      </g>
     </g>
    </g>
    <g id="xtick_15">
     <g id="line2d_16">
      <defs>
       <path d="
M0 0
L0 -2" id="m73949ea7d5"/>
      </defs>
      <g>
       <use style="stroke:#000000;stroke-linecap:butt;stroke-width:0.5;" x="313.216591243" xlink:href="#m73949ea7d5" y="15.0092307692"/>
      </g>
     </g>
    </g>
    <g id="xtick_16">
     <g id="line2d_17">
      <defs>
       <path d="
M0 0
L0 -2" id="m73949ea7d5"/>
      </defs>
      <g>
       <use style="stroke:#000000;stroke-linecap:butt;stroke-width:0.5;" x="364.772164651" xlink:href="#m73949ea7d5" y="15.0092307692"/>
      </g>
     </g>
    </g>
    <g id="xtick_17">
     <g id="line2d_18">
      <defs>
       <path d="
M0 0
L0 -2" id="m73949ea7d5"/>
      </defs>
      <g>
       <use style="stroke:#000000;stroke-linecap:butt;stroke-width:0.5;" x="390.549951355" xlink:href="#m73949ea7d5" y="15.0092307692"/>
      </g>
     </g>
    </g>
    <g id="xtick_18">
     <g id="line2d_19">
      <defs>
       <path d="
M0 0
L0 -2" id="m73949ea7d5"/>
      </defs>
      <g>
       <use style="stroke:#000000;stroke-linecap:butt;stroke-width:0.5;" x="416.327738059" xlink:href="#m73949ea7d5" y="15.0092307692"/>
      </g>
     </g>
    </g>
    <g id="xtick_19">
     <g id="line2d_20">
      <defs>
       <path d="
M0 0
L0 -2" id="m73949ea7d5"/>
      </defs>
      <g>
       <use style="stroke:#000000;stroke-linecap:butt;stroke-width:0.5;" x="467.883311467" xlink:href="#m73949ea7d5" y="15.0092307692"/>
      </g>
     </g>
    </g>
    <g id="xtick_20">
     <g id="line2d_21">
      <defs>
       <path d="
M0 0
L0 -2" id="m73949ea7d5"/>
      </defs>
      <g>
       <use style="stroke:#000000;stroke-linecap:butt;stroke-width:0.5;" x="493.661098171" xlink:href="#m73949ea7d5" y="15.0092307692"/>
      </g>
     </g>
    </g>
    <g id="xtick_21">
     <g id="line2d_22">
      <defs>
       <path d="
M0 0
L0 -2" id="m73949ea7d5"/>
      </defs>
      <g>
       <use style="stroke:#000000;stroke-linecap:butt;stroke-width:0.5;" x="519.438884875" xlink:href="#m73949ea7d5" y="15.0092307692"/>
      </g>
     </g>
    </g>
   </g>
   <g id="matplotlib.axis_2">
    <g id="ytick_1">
     <g id="line2d_23">
      <defs>
       <path d="
M0 0
L4 0" id="md9cd54cff4"/>
      </defs>
      <g>
       <use style="stroke:#000000;stroke-linecap:butt;stroke-width:0.5;" x="29.6609375" xlink:href="#md9cd54cff4" y="337.325696178"/>
      </g>
     </g>
     <g id="text_6">
      <!-- -0.8 -->
      <defs>
       <path d="
M31.7812 66.4062
Q24.1719 66.4062 20.3281 58.9062
Q16.5 51.4219 16.5 36.375
Q16.5 21.3906 20.3281 13.8906
Q24.1719 6.39062 31.7812 6.39062
Q39.4531 6.39062 43.2812 13.8906
Q47.125 21.3906 47.125 36.375
Q47.125 51.4219 43.2812 58.9062
Q39.4531 66.4062 31.7812 66.4062
M31.7812 74.2188
Q44.0469 74.2188 50.5156 64.5156
Q56.9844 54.8281 56.9844 36.375
Q56.9844 17.9688 50.5156 8.26562
Q44.0469 -1.42188 31.7812 -1.42188
Q19.5312 -1.42188 13.0625 8.26562
Q6.59375 17.9688 6.59375 36.375
Q6.59375 54.8281 13.0625 64.5156
Q19.5312 74.2188 31.7812 74.2188" id="BitstreamVeraSans-Roman-30"/>
       <path d="
M10.6875 12.4062
L21 12.4062
L21 0
L10.6875 0
z
" id="BitstreamVeraSans-Roman-2e"/>
       <path d="
M4.89062 31.3906
L31.2031 31.3906
L31.2031 23.3906
L4.89062 23.3906
z
" id="BitstreamVeraSans-Roman-2d"/>
      </defs>
      <g transform="translate(7.3234375 340.965539928)scale(0.1 -0.1)">
       <use xlink:href="#BitstreamVeraSans-Roman-2d"/>
       <use x="36.083984375" xlink:href="#BitstreamVeraSans-Roman-30"/>
       <use x="99.70703125" xlink:href="#BitstreamVeraSans-Roman-2e"/>
       <use x="131.494140625" xlink:href="#BitstreamVeraSans-Roman-38"/>
      </g>
     </g>
    </g>
    <g id="ytick_2">
     <g id="line2d_24">
      <defs>
       <path d="
M0 0
L4 0" id="md9cd54cff4"/>
      </defs>
      <g>
       <use style="stroke:#000000;stroke-linecap:butt;stroke-width:0.5;" x="29.6609375" xlink:href="#md9cd54cff4" y="256.746579826"/>
      </g>
     </g>
     <g id="text_7">
      <!-- -0.6 -->
      <g transform="translate(7.26875 260.386423576)scale(0.1 -0.1)">
       <use xlink:href="#BitstreamVeraSans-Roman-2d"/>
       <use x="36.083984375" xlink:href="#BitstreamVeraSans-Roman-30"/>
       <use x="99.70703125" xlink:href="#BitstreamVeraSans-Roman-2e"/>
       <use x="131.494140625" xlink:href="#BitstreamVeraSans-Roman-36"/>
      </g>
     </g>
    </g>
    <g id="ytick_3">
     <g id="line2d_25">
      <defs>
       <path d="
M0 0
L4 0" id="md9cd54cff4"/>
      </defs>
      <g>
       <use style="stroke:#000000;stroke-linecap:butt;stroke-width:0.5;" x="29.6609375" xlink:href="#md9cd54cff4" y="176.167463474"/>
      </g>
     </g>
     <g id="text_8">
      <!-- -0.4 -->
      <g transform="translate(7.2 179.807307224)scale(0.1 -0.1)">
       <use xlink:href="#BitstreamVeraSans-Roman-2d"/>
       <use x="36.083984375" xlink:href="#BitstreamVeraSans-Roman-30"/>
       <use x="99.70703125" xlink:href="#BitstreamVeraSans-Roman-2e"/>
       <use x="131.494140625" xlink:href="#BitstreamVeraSans-Roman-34"/>
      </g>
     </g>
    </g>
    <g id="ytick_4">
     <g id="line2d_26">
      <defs>
       <path d="
M0 0
L4 0" id="md9cd54cff4"/>
      </defs>
      <g>
       <use style="stroke:#000000;stroke-linecap:butt;stroke-width:0.5;" x="29.6609375" xlink:href="#md9cd54cff4" y="95.5883471215"/>
      </g>
     </g>
     <g id="text_9">
      <!-- -0.2 -->
      <g transform="translate(7.640625 99.2281908715)scale(0.1 -0.1)">
       <use xlink:href="#BitstreamVeraSans-Roman-2d"/>
       <use x="36.083984375" xlink:href="#BitstreamVeraSans-Roman-30"/>
       <use x="99.70703125" xlink:href="#BitstreamVeraSans-Roman-2e"/>
       <use x="131.494140625" xlink:href="#BitstreamVeraSans-Roman-32"/>
      </g>
     </g>
    </g>
    <g id="ytick_5">
     <g id="line2d_27">
      <defs>
       <path d="
M0 0
L4 0" id="md9cd54cff4"/>
      </defs>
      <g>
       <use style="stroke:#000000;stroke-linecap:butt;stroke-width:0.5;" x="29.6609375" xlink:href="#md9cd54cff4" y="15.0092307692"/>
      </g>
     </g>
    </g>
    <g id="ytick_6">
     <g id="line2d_28">
      <defs>
       <path d="
M0 0
L2 0" id="m5cb6fa3528"/>
      </defs>
      <g>
       <use style="stroke:#000000;stroke-linecap:butt;stroke-width:0.5;" x="29.6609375" xlink:href="#m5cb6fa3528" y="397.760033443"/>
      </g>
     </g>
    </g>
    <g id="ytick_7">
     <g id="line2d_29">
      <defs>
       <path d="
M0 0
L2 0" id="m5cb6fa3528"/>
      </defs>
      <g>
       <use style="stroke:#000000;stroke-linecap:butt;stroke-width:0.5;" x="29.6609375" xlink:href="#m5cb6fa3528" y="377.615254355"/>
      </g>
     </g>
    </g>
    <g id="ytick_8">
     <g id="line2d_30">
      <defs>
       <path d="
M0 0
L2 0" id="m5cb6fa3528"/>
      </defs>
      <g>
       <use style="stroke:#000000;stroke-linecap:butt;stroke-width:0.5;" x="29.6609375" xlink:href="#m5cb6fa3528" y="357.470475267"/>
      </g>
     </g>
    </g>
    <g id="ytick_9">
     <g id="line2d_31">
      <defs>
       <path d="
M0 0
L2 0" id="m5cb6fa3528"/>
      </defs>
      <g>
       <use style="stroke:#000000;stroke-linecap:butt;stroke-width:0.5;" x="29.6609375" xlink:href="#m5cb6fa3528" y="317.18091709"/>
      </g>
     </g>
    </g>
    <g id="ytick_10">
     <g id="line2d_32">
      <defs>
       <path d="
M0 0
L2 0" id="m5cb6fa3528"/>
      </defs>
      <g>
       <use style="stroke:#000000;stroke-linecap:butt;stroke-width:0.5;" x="29.6609375" xlink:href="#m5cb6fa3528" y="297.036138002"/>
      </g>
     </g>
    </g>
    <g id="ytick_11">
     <g id="line2d_33">
      <defs>
       <path d="
M0 0
L2 0" id="m5cb6fa3528"/>
      </defs>
      <g>
       <use style="stroke:#000000;stroke-linecap:butt;stroke-width:0.5;" x="29.6609375" xlink:href="#m5cb6fa3528" y="276.891358914"/>
      </g>
     </g>
    </g>
    <g id="ytick_12">
     <g id="line2d_34">
      <defs>
       <path d="
M0 0
L2 0" id="m5cb6fa3528"/>
      </defs>
      <g>
       <use style="stroke:#000000;stroke-linecap:butt;stroke-width:0.5;" x="29.6609375" xlink:href="#m5cb6fa3528" y="236.601800738"/>
      </g>
     </g>
    </g>
    <g id="ytick_13">
     <g id="line2d_35">
      <defs>
       <path d="
M0 0
L2 0" id="m5cb6fa3528"/>
      </defs>
      <g>
       <use style="stroke:#000000;stroke-linecap:butt;stroke-width:0.5;" x="29.6609375" xlink:href="#m5cb6fa3528" y="216.45702165"/>
      </g>
     </g>
    </g>
    <g id="ytick_14">
     <g id="line2d_36">
      <defs>
       <path d="
M0 0
L2 0" id="m5cb6fa3528"/>
      </defs>
      <g>
       <use style="stroke:#000000;stroke-linecap:butt;stroke-width:0.5;" x="29.6609375" xlink:href="#m5cb6fa3528" y="196.312242562"/>
      </g>
     </g>
    </g>
    <g id="ytick_15">
     <g id="line2d_37">
      <defs>
       <path d="
M0 0
L2 0" id="m5cb6fa3528"/>
      </defs>
      <g>
       <use style="stroke:#000000;stroke-linecap:butt;stroke-width:0.5;" x="29.6609375" xlink:href="#m5cb6fa3528" y="156.022684386"/>
      </g>
     </g>
    </g>
    <g id="ytick_16">
     <g id="line2d_38">
      <defs>
       <path d="
M0 0
L2 0" id="m5cb6fa3528"/>
      </defs>
      <g>
       <use style="stroke:#000000;stroke-linecap:butt;stroke-width:0.5;" x="29.6609375" xlink:href="#m5cb6fa3528" y="135.877905298"/>
      </g>
     </g>
    </g>
    <g id="ytick_17">
     <g id="line2d_39">
      <defs>
       <path d="
M0 0
L2 0" id="m5cb6fa3528"/>
      </defs>
      <g>
       <use style="stroke:#000000;stroke-linecap:butt;stroke-width:0.5;" x="29.6609375" xlink:href="#m5cb6fa3528" y="115.73312621"/>
      </g>
     </g>
    </g>
    <g id="ytick_18">
     <g id="line2d_40">
      <defs>
       <path d="
M0 0
L2 0" id="m5cb6fa3528"/>
      </defs>
      <g>
       <use style="stroke:#000000;stroke-linecap:butt;stroke-width:0.5;" x="29.6609375" xlink:href="#m5cb6fa3528" y="75.4435680335"/>
      </g>
     </g>
    </g>
    <g id="ytick_19">
     <g id="line2d_41">
      <defs>
       <path d="
M0 0
L2 0" id="m5cb6fa3528"/>
      </defs>
      <g>
       <use style="stroke:#000000;stroke-linecap:butt;stroke-width:0.5;" x="29.6609375" xlink:href="#m5cb6fa3528" y="55.2987889454"/>
      </g>
     </g>
    </g>
    <g id="ytick_20">
     <g id="line2d_42">
      <defs>
       <path d="
M0 0
L2 0" id="m5cb6fa3528"/>
      </defs>
      <g>
       <use style="stroke:#000000;stroke-linecap:butt;stroke-width:0.5;" x="29.6609375" xlink:href="#m5cb6fa3528" y="35.1540098573"/>
      </g>
     </g>
    </g>
   </g>
   <g id="patch_3">
    <path d="
M19.3504 15.0092
L555.498 15.0092" style="fill:none;stroke:#000000;stroke-width:0.8;"/>
   </g>
   <g id="patch_4">
    <path d="
M29.6609 413.28
L29.6609 7.2" style="fill:none;stroke:#000000;stroke-width:0.8;"/>
   </g>
  </g>
 </g>
 <defs>
  <clipPath id="p4ae238b7d9">
   <rect height="406.08" width="536.147492448" x="19.3504191102" y="7.2"/>
  </clipPath>
 </defs>
</svg>
