<?xml version="1.0" encoding="utf-8" standalone="no"?>
<!DOCTYPE svg PUBLIC "-//W3C//DTD SVG 1.1//EN"
  "http://www.w3.org/Graphics/SVG/1.1/DTD/svg11.dtd">
<!-- Created with matplotlib (http://matplotlib.sourceforge.net/) -->
<svg height="420pt" version="1.1" viewBox="0 0 562 420" width="562pt" xmlns="http://www.w3.org/2000/svg" xmlns:xlink="http://www.w3.org/1999/xlink">
 <defs>
  <style type="text/css">
*{stroke-linecap:square;stroke-linejoin:round;}
  </style>
 </defs>
 <g id="figure_1">
  <g id="patch_1">
   <path d="
M2.22045e-16 420.48
L562.538 420.48
L562.538 0
L2.22045e-16 0
z
" style="fill:#ffffff;"/>
  </g>
  <g id="axes_1">
   <g id="patch_2">
    <path d="
M9.62586 413.28
L555.338 413.28
L555.338 7.2
L9.62586 7.2
z
" style="fill:#ffffff;"/>
   </g>
   <g id="line2d_1">
    <path clip-path="url(#p602998282e)" d="
M20.1203 15.0092
L20.1763 15.0092
L20.1763 405.471
L20.2404 400.549
L20.3076 400.549
L20.3768 392.573
L20.4474 392.573
L20.5194 388.706
L20.5918 388.706
L20.6656 385.426
L20.7397 385.426
L20.8148 382.559
L20.8902 382.559
L20.9665 381.465
L21.0431 381.465
L21.12 378.921
L21.1972 378.921
L21.2751 377.012
L21.3535 377.012
L21.432 376.49
L21.5105 376.49
L21.5105 376.378
L21.5898 376.401
L21.6691 376.401
L21.7488 377.06
L21.8282 377.06
L21.9085 377.749
L21.9897 377.749
L22.0699 378.14
L22.1506 378.14
L22.1506 378.297
L22.2319 378.262
L22.3131 378.262
L22.3948 377.81
L22.4759 377.81
L22.5581 377.406
L22.6402 377.406
L22.7219 376.536
L22.8043 376.536
L22.8866 375.446
L22.9694 375.446
L23.0525 374.436
L23.1358 374.436
L23.219 373.548
L23.3023 373.548
L23.3859 372.615
L23.4693 372.615
L23.5532 371.704
L23.637 371.704
L23.7206 370.872
L23.8043 370.872
L23.8885 370.208
L23.9729 370.208
L24.0575 369.521
L24.142 369.521
L24.2269 368.938
L24.3113 368.938
L24.3969 368.519
L24.4815 368.519
L24.567 368.098
L24.6515 368.098
L24.7364 367.646
L24.8221 367.646
L24.9081 367.362
L24.9932 367.362
L25.079 367.138
L25.2508 367.058
L25.3369 366.874
L25.4233 366.874
L25.5093 366.559
L25.5955 366.559
L25.6816 366.32
L25.8541 366.213
L25.9405 366.047
L26.027 366.047
L26.1142 365.774
L26.2006 365.774
L26.2873 365.453
L26.3743 365.453
L26.4613 365.232
L26.635 365.152
L26.7227 365.022
L27.2484 365.089
L27.3356 365.16
L27.7745 365.052
L27.8628 364.839
L28.0394 364.738
L28.1277 364.548
L28.3042 364.46
L28.3928 364.29
L28.5698 364.18
L28.6582 363.931
L28.7472 363.931
L28.836 363.722
L29.1912 363.623
L29.2794 363.564
L29.6358 363.466
L29.6358 363.452
L29.7248 363.464
L30.2616 363.379
L30.3511 363.268
L30.6199 363.168
L30.7093 363.093
L31.0693 362.982
L31.1592 362.891
L31.4297 362.788
L31.5196 362.727
L32.6049 362.8
L32.6957 362.898
L32.9673 363.007
L33.0583 363.129
L33.2399 363.196
L33.3309 363.342
L33.5138 363.421
L33.6049 363.588
L33.7863 363.665
L33.8777 363.802
L34.0594 363.869
L34.151 363.982
L34.3333 364.049
L34.4247 364.165
L34.6989 364.275
L34.7905 364.382
L35.0652 364.479
L35.1563 364.578
L35.4324 364.677
L35.5237 364.8
L35.7075 364.862
L35.7993 365.024
L35.9817 365.09
L36.0733 365.212
L36.2572 365.278
L36.349 365.429
L36.5344 365.505
L36.6265 365.645
L36.8112 365.698
L36.9031 365.822
L37.0877 365.89
L37.1797 365.995
L37.5491 366.104
L37.6408 366.182
L37.9182 366.257
L38.0118 366.34
L38.2908 366.415
L38.384 366.497
L38.662 366.582
L38.7548 366.67
L39.0331 366.754
L39.1265 366.826
L39.591 366.922
L39.6841 366.969
L40.1494 367.056
L40.2419 367.111
L40.6145 367.218
L40.7075 367.287
L41.1737 367.384
L41.267 367.422
L41.7343 367.525
L41.8284 367.583
L42.2042 367.692
L42.2973 367.767
L42.7669 367.872
L42.8608 367.911
L43.236 368.012
L43.3305 368.086
L43.706 368.182
L43.7996 368.24
L44.1752 368.333
L44.2687 368.409
L44.552 368.491
L44.6461 368.585
L44.9287 368.682
L45.0233 368.778
L45.3069 368.864
L45.4016 368.944
L45.7801 369.044
L45.8749 369.088
L46.3459 369.181
L46.4406 369.217
L47.3874 369.327
L47.4824 369.338
L48.2426 369.439
L48.3374 369.469
L50.4314 369.58
L50.5268 369.596
L51.4821 369.704
L51.5775 369.723
L52.2466 369.817
L52.343 369.86
L52.8216 369.952
L52.9175 369.999
L53.3968 370.104
L53.4925 370.151
L53.9713 370.257
L54.0679 370.312
L54.4528 370.394
L54.5486 370.457
L55.0276 370.561
L55.1234 370.613
L55.6038 370.716
L55.7004 370.758
L56.3749 370.866
L56.4721 370.896
L57.2418 371.007
L57.3389 371.04
L58.3034 371.143
L58.3994 371.158
L61.7914 371.265
L61.8885 371.273
L69.4971 371.179
L69.5956 371.142
L70.5749 371.035
L70.6733 371.014
L71.752 370.904
L71.85 370.877
L72.7356 370.767
L72.8344 370.75
L74.0137 370.64
L74.1119 370.62
L75.3922 370.511
L75.4909 370.482
L76.1818 370.38
L76.2803 370.352
L77.1669 370.251
L77.2656 370.227
L78.9459 370.12
L79.0449 370.107
L80.7301 369.998
L80.8291 369.994
L85.297 369.885
L85.3957 369.88
L89.5793 369.773
L89.679 369.762
L96.4839 369.869
L96.5837 369.88
L100.001 369.99
L100.102 370.002
L101.609 370.107
L101.711 370.119
L102.918 370.228
L103.018 370.253
L103.927 370.352
L104.027 370.376
L105.54 370.485
L105.641 370.493
L107.458 370.599
L107.559 370.614
L109.175 370.722
L109.275 370.738
L110.792 370.845
L110.894 370.859
L112.615 370.969
L112.716 370.982
L114.639 371.089
L114.741 371.099
L121.555 370.988
L121.657 370.98
L124.001 370.87
L124.104 370.863
L128.798 370.753
L128.9 370.749
L138.322 370.641
L138.426 370.634
L144.9 370.523
L145.002 370.522
L155.314 370.633
L155.418 370.638
L162.873 370.747
L162.977 370.752
L167.33 370.861
L167.434 370.867
L171.591 370.977
L171.695 370.983
L175.96 371.092
L176.065 371.1
L182.21 371.209
L182.314 371.216
L185.446 371.322
L185.551 371.332
L188.478 371.44
L188.582 371.45
L190.57 371.561
L190.675 371.574
L192.452 371.685
L192.557 371.699
L194.129 371.804
L194.233 371.818
L196.222 371.926
L196.328 371.938
L198.947 372.048
L199.052 372.054
L203.25 372.165
L203.355 372.172
L208.605 372.281
L208.71 372.285
L215.237 372.395
L215.343 372.4
L234.021 372.289
L234.127 372.283
L238.467 372.173
L238.573 372.17
L272.481 372.059
L272.587 372.058
L288.302 371.948
L288.41 371.946
L294.725 371.836
L294.832 371.833
L303.3 371.722
L303.407 371.719
L310.384 371.608
L310.49 371.606
L323.183 371.495
L323.291 371.493
L402.453 371.604
L402.562 371.606
L432.243 371.717
L432.353 371.719
L450.51 371.83
L450.619 371.831
L466.515 371.941
L466.624 371.944
L472.445 372.054
L472.555 372.058
L480.024 372.168
L480.133 372.172
L486.511 372.283
L486.621 372.287
L494.215 372.398
L494.326 372.401
L501.032 372.512
L501.142 372.516
L506.099 372.626
L506.208 372.631
L510.84 372.742
L510.95 372.748
L515.473 372.858
L515.583 372.864
L519.886 372.974
L519.886 372.977
L523.964 373.087
L524.074 373.094
L527.607 373.202
L527.718 373.21
L531.473 373.319
L531.583 373.326
L535.893 373.437
L536.004 373.443
L539.98 373.551
L540.091 373.557
L544.067 373.667
L544.177 373.673
L544.843 373.689
L544.843 373.692" style="fill:none;stroke:#ff0000;stroke-width:0.5;"/>
   </g>
   <g id="matplotlib.axis_1">
    <g id="xtick_1">
     <g id="line2d_2">
      <defs>
       <path d="
M0 0
L0 -4" id="m53e10e88e7"/>
      </defs>
      <g>
       <use style="stroke:#000000;stroke-linecap:butt;stroke-width:0.5;" x="20.1203125" xlink:href="#m53e10e88e7" y="15.0092307692"/>
      </g>
     </g>
    </g>
    <g id="xtick_2">
     <g id="line2d_3">
      <defs>
       <path d="
M0 0
L0 -4" id="m53e10e88e7"/>
      </defs>
      <g>
       <use style="stroke:#000000;stroke-linecap:butt;stroke-width:0.5;" x="125.070417105" xlink:href="#m53e10e88e7" y="15.0092307692"/>
      </g>
     </g>
     <g id="text_1">
      <!-- 2e8 -->
      <defs>
       <path d="
M19.1875 8.29688
L53.6094 8.29688
L53.6094 0
L7.32812 0
L7.32812 8.29688
Q12.9375 14.1094 22.625 23.8906
Q32.3281 33.6875 34.8125 36.5312
Q39.5469 41.8438 41.4219 45.5312
Q43.3125 49.2188 43.3125 52.7812
Q43.3125 58.5938 39.2344 62.25
Q35.1562 65.9219 28.6094 65.9219
Q23.9688 65.9219 18.8125 64.3125
Q13.6719 62.7031 7.8125 59.4219
L7.8125 69.3906
Q13.7656 71.7812 18.9375 73
Q24.125 74.2188 28.4219 74.2188
Q39.75 74.2188 46.4844 68.5469
Q53.2188 62.8906 53.2188 53.4219
Q53.2188 48.9219 51.5312 44.8906
Q49.8594 40.875 45.4062 35.4062
Q44.1875 33.9844 37.6406 27.2188
Q31.1094 20.4531 19.1875 8.29688" id="BitstreamVeraSans-Roman-32"/>
       <path d="
M56.2031 29.5938
L56.2031 25.2031
L14.8906 25.2031
Q15.4844 15.9219 20.4844 11.0625
Q25.4844 6.20312 34.4219 6.20312
Q39.5938 6.20312 44.4531 7.46875
Q49.3125 8.73438 54.1094 11.2812
L54.1094 2.78125
Q49.2656 0.734375 44.1875 -0.34375
Q39.1094 -1.42188 33.8906 -1.42188
Q20.7969 -1.42188 13.1562 6.1875
Q5.51562 13.8125 5.51562 26.8125
Q5.51562 40.2344 12.7656 48.1094
Q20.0156 56 32.3281 56
Q43.3594 56 49.7812 48.8906
Q56.2031 41.7969 56.2031 29.5938
M47.2188 32.2344
Q47.125 39.5938 43.0938 43.9844
Q39.0625 48.3906 32.4219 48.3906
Q24.9062 48.3906 20.3906 44.1406
Q15.875 39.8906 15.1875 32.1719
z
" id="BitstreamVeraSans-Roman-65"/>
       <path d="
M31.7812 34.625
Q24.75 34.625 20.7188 30.8594
Q16.7031 27.0938 16.7031 20.5156
Q16.7031 13.9219 20.7188 10.1562
Q24.75 6.39062 31.7812 6.39062
Q38.8125 6.39062 42.8594 10.1719
Q46.9219 13.9688 46.9219 20.5156
Q46.9219 27.0938 42.8906 30.8594
Q38.875 34.625 31.7812 34.625
M21.9219 38.8125
Q15.5781 40.375 12.0312 44.7188
Q8.5 49.0781 8.5 55.3281
Q8.5 64.0625 14.7188 69.1406
Q20.9531 74.2188 31.7812 74.2188
Q42.6719 74.2188 48.875 69.1406
Q55.0781 64.0625 55.0781 55.3281
Q55.0781 49.0781 51.5312 44.7188
Q48 40.375 41.7031 38.8125
Q48.8281 37.1562 52.7969 32.3125
Q56.7812 27.4844 56.7812 20.5156
Q56.7812 9.90625 50.3125 4.23438
Q43.8438 -1.42188 31.7812 -1.42188
Q19.7344 -1.42188 13.25 4.23438
Q6.78125 9.90625 6.78125 20.5156
Q6.78125 27.4844 10.7812 32.3125
Q14.7969 37.1562 21.9219 38.8125
M18.3125 54.3906
Q18.3125 48.7344 21.8438 45.5625
Q25.3906 42.3906 31.7812 42.3906
Q38.1406 42.3906 41.7188 45.5625
Q45.3125 48.7344 45.3125 54.3906
Q45.3125 60.0625 41.7188 63.2344
Q38.1406 66.4062 31.7812 66.4062
Q25.3906 66.4062 21.8438 63.2344
Q18.3125 60.0625 18.3125 54.3906" id="BitstreamVeraSans-Roman-38"/>
      </defs>
      <g transform="translate(116.339948355 26.4311057692)scale(0.1 -0.1)">
       <use xlink:href="#BitstreamVeraSans-Roman-32"/>
       <use x="63.623046875" xlink:href="#BitstreamVeraSans-Roman-65"/>
       <use x="125.146484375" xlink:href="#BitstreamVeraSans-Roman-38"/>
      </g>
     </g>
    </g>
    <g id="xtick_3">
     <g id="line2d_4">
      <defs>
       <path d="
M0 0
L0 -4" id="m53e10e88e7"/>
      </defs>
      <g>
       <use style="stroke:#000000;stroke-linecap:butt;stroke-width:0.5;" x="230.020521709" xlink:href="#m53e10e88e7" y="15.0092307692"/>
      </g>
     </g>
     <g id="text_2">
      <!-- 4e8 -->
      <defs>
       <path d="
M37.7969 64.3125
L12.8906 25.3906
L37.7969 25.3906
z

M35.2031 72.9062
L47.6094 72.9062
L47.6094 25.3906
L58.0156 25.3906
L58.0156 17.1875
L47.6094 17.1875
L47.6094 0
L37.7969 0
L37.7969 17.1875
L4.89062 17.1875
L4.89062 26.7031
z
" id="BitstreamVeraSans-Roman-34"/>
      </defs>
      <g transform="translate(221.168177959 26.4311057692)scale(0.1 -0.1)">
       <use xlink:href="#BitstreamVeraSans-Roman-34"/>
       <use x="63.623046875" xlink:href="#BitstreamVeraSans-Roman-65"/>
       <use x="125.146484375" xlink:href="#BitstreamVeraSans-Roman-38"/>
      </g>
     </g>
    </g>
    <g id="xtick_4">
     <g id="line2d_5">
      <defs>
       <path d="
M0 0
L0 -4" id="m53e10e88e7"/>
      </defs>
      <g>
       <use style="stroke:#000000;stroke-linecap:butt;stroke-width:0.5;" x="334.970626314" xlink:href="#m53e10e88e7" y="15.0092307692"/>
      </g>
     </g>
     <g id="text_3">
      <!-- 6e8 -->
      <defs>
       <path d="
M33.0156 40.375
Q26.375 40.375 22.4844 35.8281
Q18.6094 31.2969 18.6094 23.3906
Q18.6094 15.5312 22.4844 10.9531
Q26.375 6.39062 33.0156 6.39062
Q39.6562 6.39062 43.5312 10.9531
Q47.4062 15.5312 47.4062 23.3906
Q47.4062 31.2969 43.5312 35.8281
Q39.6562 40.375 33.0156 40.375
M52.5938 71.2969
L52.5938 62.3125
Q48.875 64.0625 45.0938 64.9844
Q41.3125 65.9219 37.5938 65.9219
Q27.8281 65.9219 22.6719 59.3281
Q17.5312 52.7344 16.7969 39.4062
Q19.6719 43.6562 24.0156 45.9219
Q28.375 48.1875 33.5938 48.1875
Q44.5781 48.1875 50.9531 41.5156
Q57.3281 34.8594 57.3281 23.3906
Q57.3281 12.1562 50.6875 5.35938
Q44.0469 -1.42188 33.0156 -1.42188
Q20.3594 -1.42188 13.6719 8.26562
Q6.98438 17.9688 6.98438 36.375
Q6.98438 53.6562 15.1875 63.9375
Q23.3906 74.2188 37.2031 74.2188
Q40.9219 74.2188 44.7031 73.4844
Q48.4844 72.75 52.5938 71.2969" id="BitstreamVeraSans-Roman-36"/>
      </defs>
      <g transform="translate(326.222970064 26.4311057692)scale(0.1 -0.1)">
       <use xlink:href="#BitstreamVeraSans-Roman-36"/>
       <use x="63.623046875" xlink:href="#BitstreamVeraSans-Roman-65"/>
       <use x="125.146484375" xlink:href="#BitstreamVeraSans-Roman-38"/>
      </g>
     </g>
    </g>
    <g id="xtick_5">
     <g id="line2d_6">
      <defs>
       <path d="
M0 0
L0 -4" id="m53e10e88e7"/>
      </defs>
      <g>
       <use style="stroke:#000000;stroke-linecap:butt;stroke-width:0.5;" x="439.920730919" xlink:href="#m53e10e88e7" y="15.0092307692"/>
      </g>
     </g>
     <g id="text_4">
      <!-- 8e8 -->
      <g transform="translate(431.162918419 26.4311057692)scale(0.1 -0.1)">
       <use xlink:href="#BitstreamVeraSans-Roman-38"/>
       <use x="63.623046875" xlink:href="#BitstreamVeraSans-Roman-65"/>
       <use x="125.146484375" xlink:href="#BitstreamVeraSans-Roman-38"/>
      </g>
     </g>
    </g>
    <g id="xtick_6">
     <g id="line2d_7">
      <defs>
       <path d="
M0 0
L0 -4" id="m53e10e88e7"/>
      </defs>
      <g>
       <use style="stroke:#000000;stroke-linecap:butt;stroke-width:0.5;" x="544.870835523" xlink:href="#m53e10e88e7" y="15.0092307692"/>
      </g>
     </g>
     <g id="text_5">
      <!-- 1e9 -->
      <defs>
       <path d="
M10.9844 1.51562
L10.9844 10.5
Q14.7031 8.73438 18.5 7.8125
Q22.3125 6.89062 25.9844 6.89062
Q35.75 6.89062 40.8906 13.4531
Q46.0469 20.0156 46.7812 33.4062
Q43.9531 29.2031 39.5938 26.9531
Q35.25 24.7031 29.9844 24.7031
Q19.0469 24.7031 12.6719 31.3125
Q6.29688 37.9375 6.29688 49.4219
Q6.29688 60.6406 12.9375 67.4219
Q19.5781 74.2188 30.6094 74.2188
Q43.2656 74.2188 49.9219 64.5156
Q56.5938 54.8281 56.5938 36.375
Q56.5938 19.1406 48.4062 8.85938
Q40.2344 -1.42188 26.4219 -1.42188
Q22.7031 -1.42188 18.8906 -0.6875
Q15.0938 0.046875 10.9844 1.51562
M30.6094 32.4219
Q37.25 32.4219 41.125 36.9531
Q45.0156 41.5 45.0156 49.4219
Q45.0156 57.2812 41.125 61.8438
Q37.25 66.4062 30.6094 66.4062
Q23.9688 66.4062 20.0938 61.8438
Q16.2188 57.2812 16.2188 49.4219
Q16.2188 41.5 20.0938 36.9531
Q23.9688 32.4219 30.6094 32.4219" id="BitstreamVeraSans-Roman-39"/>
       <path d="
M12.4062 8.29688
L28.5156 8.29688
L28.5156 63.9219
L10.9844 60.4062
L10.9844 69.3906
L28.4219 72.9062
L38.2812 72.9062
L38.2812 8.29688
L54.3906 8.29688
L54.3906 0
L12.4062 0
z
" id="BitstreamVeraSans-Roman-31"/>
      </defs>
      <g transform="translate(536.332554273 26.4311057692)scale(0.1 -0.1)">
       <use xlink:href="#BitstreamVeraSans-Roman-31"/>
       <use x="63.623046875" xlink:href="#BitstreamVeraSans-Roman-65"/>
       <use x="125.146484375" xlink:href="#BitstreamVeraSans-Roman-39"/>
      </g>
     </g>
    </g>
    <g id="xtick_7">
     <g id="line2d_8">
      <defs>
       <path d="
M0 0
L0 -2" id="m86ca90c098"/>
      </defs>
      <g>
       <use style="stroke:#000000;stroke-linecap:butt;stroke-width:0.5;" x="46.3578386512" xlink:href="#m86ca90c098" y="15.0092307692"/>
      </g>
     </g>
    </g>
    <g id="xtick_8">
     <g id="line2d_9">
      <defs>
       <path d="
M0 0
L0 -2" id="m86ca90c098"/>
      </defs>
      <g>
       <use style="stroke:#000000;stroke-linecap:butt;stroke-width:0.5;" x="72.5953648023" xlink:href="#m86ca90c098" y="15.0092307692"/>
      </g>
     </g>
    </g>
    <g id="xtick_9">
     <g id="line2d_10">
      <defs>
       <path d="
M0 0
L0 -2" id="m86ca90c098"/>
      </defs>
      <g>
       <use style="stroke:#000000;stroke-linecap:butt;stroke-width:0.5;" x="98.8328909535" xlink:href="#m86ca90c098" y="15.0092307692"/>
      </g>
     </g>
    </g>
    <g id="xtick_10">
     <g id="line2d_11">
      <defs>
       <path d="
M0 0
L0 -2" id="m86ca90c098"/>
      </defs>
      <g>
       <use style="stroke:#000000;stroke-linecap:butt;stroke-width:0.5;" x="151.307943256" xlink:href="#m86ca90c098" y="15.0092307692"/>
      </g>
     </g>
    </g>
    <g id="xtick_11">
     <g id="line2d_12">
      <defs>
       <path d="
M0 0
L0 -2" id="m86ca90c098"/>
      </defs>
      <g>
       <use style="stroke:#000000;stroke-linecap:butt;stroke-width:0.5;" x="177.545469407" xlink:href="#m86ca90c098" y="15.0092307692"/>
      </g>
     </g>
    </g>
    <g id="xtick_12">
     <g id="line2d_13">
      <defs>
       <path d="
M0 0
L0 -2" id="m86ca90c098"/>
      </defs>
      <g>
       <use style="stroke:#000000;stroke-linecap:butt;stroke-width:0.5;" x="203.782995558" xlink:href="#m86ca90c098" y="15.0092307692"/>
      </g>
     </g>
    </g>
    <g id="xtick_13">
     <g id="line2d_14">
      <defs>
       <path d="
M0 0
L0 -2" id="m86ca90c098"/>
      </defs>
      <g>
       <use style="stroke:#000000;stroke-linecap:butt;stroke-width:0.5;" x="256.25804786" xlink:href="#m86ca90c098" y="15.0092307692"/>
      </g>
     </g>
    </g>
    <g id="xtick_14">
     <g id="line2d_15">
      <defs>
       <path d="
M0 0
L0 -2" id="m86ca90c098"/>
      </defs>
      <g>
       <use style="stroke:#000000;stroke-linecap:butt;stroke-width:0.5;" x="282.495574012" xlink:href="#m86ca90c098" y="15.0092307692"/>
      </g>
     </g>
    </g>
    <g id="xtick_15">
     <g id="line2d_16">
      <defs>
       <path d="
M0 0
L0 -2" id="m86ca90c098"/>
      </defs>
      <g>
       <use style="stroke:#000000;stroke-linecap:butt;stroke-width:0.5;" x="308.733100163" xlink:href="#m86ca90c098" y="15.0092307692"/>
      </g>
     </g>
    </g>
    <g id="xtick_16">
     <g id="line2d_17">
      <defs>
       <path d="
M0 0
L0 -2" id="m86ca90c098"/>
      </defs>
      <g>
       <use style="stroke:#000000;stroke-linecap:butt;stroke-width:0.5;" x="361.208152465" xlink:href="#m86ca90c098" y="15.0092307692"/>
      </g>
     </g>
    </g>
    <g id="xtick_17">
     <g id="line2d_18">
      <defs>
       <path d="
M0 0
L0 -2" id="m86ca90c098"/>
      </defs>
      <g>
       <use style="stroke:#000000;stroke-linecap:butt;stroke-width:0.5;" x="387.445678616" xlink:href="#m86ca90c098" y="15.0092307692"/>
      </g>
     </g>
    </g>
    <g id="xtick_18">
     <g id="line2d_19">
      <defs>
       <path d="
M0 0
L0 -2" id="m86ca90c098"/>
      </defs>
      <g>
       <use style="stroke:#000000;stroke-linecap:butt;stroke-width:0.5;" x="413.683204767" xlink:href="#m86ca90c098" y="15.0092307692"/>
      </g>
     </g>
    </g>
    <g id="xtick_19">
     <g id="line2d_20">
      <defs>
       <path d="
M0 0
L0 -2" id="m86ca90c098"/>
      </defs>
      <g>
       <use style="stroke:#000000;stroke-linecap:butt;stroke-width:0.5;" x="466.15825707" xlink:href="#m86ca90c098" y="15.0092307692"/>
      </g>
     </g>
    </g>
    <g id="xtick_20">
     <g id="line2d_21">
      <defs>
       <path d="
M0 0
L0 -2" id="m86ca90c098"/>
      </defs>
      <g>
       <use style="stroke:#000000;stroke-linecap:butt;stroke-width:0.5;" x="492.395783221" xlink:href="#m86ca90c098" y="15.0092307692"/>
      </g>
     </g>
    </g>
    <g id="xtick_21">
     <g id="line2d_22">
      <defs>
       <path d="
M0 0
L0 -2" id="m86ca90c098"/>
      </defs>
      <g>
       <use style="stroke:#000000;stroke-linecap:butt;stroke-width:0.5;" x="518.633309372" xlink:href="#m86ca90c098" y="15.0092307692"/>
      </g>
     </g>
    </g>
   </g>
   <g id="matplotlib.axis_2">
    <g id="ytick_1">
     <g id="line2d_23">
      <defs>
       <path d="
M0 0
L4 0" id="mcee90f17e7"/>
      </defs>
      <g>
       <use style="stroke:#000000;stroke-linecap:butt;stroke-width:0.5;" x="20.1203125" xlink:href="#mcee90f17e7" y="339.007485074"/>
      </g>
     </g>
     <g id="text_6">
      <!-- -4 -->
      <defs>
       <path d="
M4.89062 31.3906
L31.2031 31.3906
L31.2031 23.3906
L4.89062 23.3906
z
" id="BitstreamVeraSans-Roman-2d"/>
      </defs>
      <g transform="translate(7.2 342.652797574)scale(0.1 -0.1)">
       <use xlink:href="#BitstreamVeraSans-Roman-2d"/>
       <use x="36.083984375" xlink:href="#BitstreamVeraSans-Roman-34"/>
      </g>
     </g>
    </g>
    <g id="ytick_2">
     <g id="line2d_24">
      <defs>
       <path d="
M0 0
L4 0" id="mcee90f17e7"/>
      </defs>
      <g>
       <use style="stroke:#000000;stroke-linecap:butt;stroke-width:0.5;" x="20.1203125" xlink:href="#mcee90f17e7" y="258.007921498"/>
      </g>
     </g>
     <g id="text_7">
      <!-- -3 -->
      <defs>
       <path d="
M40.5781 39.3125
Q47.6562 37.7969 51.625 33
Q55.6094 28.2188 55.6094 21.1875
Q55.6094 10.4062 48.1875 4.48438
Q40.7656 -1.42188 27.0938 -1.42188
Q22.5156 -1.42188 17.6562 -0.515625
Q12.7969 0.390625 7.625 2.20312
L7.625 11.7188
Q11.7188 9.32812 16.5938 8.10938
Q21.4844 6.89062 26.8125 6.89062
Q36.0781 6.89062 40.9375 10.5469
Q45.7969 14.2031 45.7969 21.1875
Q45.7969 27.6406 41.2812 31.2656
Q36.7656 34.9062 28.7188 34.9062
L20.2188 34.9062
L20.2188 43.0156
L29.1094 43.0156
Q36.375 43.0156 40.2344 45.9219
Q44.0938 48.8281 44.0938 54.2969
Q44.0938 59.9062 40.1094 62.9062
Q36.1406 65.9219 28.7188 65.9219
Q24.6562 65.9219 20.0156 65.0312
Q15.375 64.1562 9.8125 62.3125
L9.8125 71.0938
Q15.4375 72.6562 20.3438 73.4375
Q25.25 74.2188 29.5938 74.2188
Q40.8281 74.2188 47.3594 69.1094
Q53.9062 64.0156 53.9062 55.3281
Q53.9062 49.2656 50.4375 45.0938
Q46.9688 40.9219 40.5781 39.3125" id="BitstreamVeraSans-Roman-33"/>
      </defs>
      <g transform="translate(7.440625 261.647765248)scale(0.1 -0.1)">
       <use xlink:href="#BitstreamVeraSans-Roman-2d"/>
       <use x="36.083984375" xlink:href="#BitstreamVeraSans-Roman-33"/>
      </g>
     </g>
    </g>
    <g id="ytick_3">
     <g id="line2d_25">
      <defs>
       <path d="
M0 0
L4 0" id="mcee90f17e7"/>
      </defs>
      <g>
       <use style="stroke:#000000;stroke-linecap:butt;stroke-width:0.5;" x="20.1203125" xlink:href="#mcee90f17e7" y="177.008357922"/>
      </g>
     </g>
     <g id="text_8">
      <!-- -2 -->
      <g transform="translate(7.640625 180.719295422)scale(0.1 -0.1)">
       <use xlink:href="#BitstreamVeraSans-Roman-2d"/>
       <use x="36.083984375" xlink:href="#BitstreamVeraSans-Roman-32"/>
      </g>
     </g>
    </g>
    <g id="ytick_4">
     <g id="line2d_26">
      <defs>
       <path d="
M0 0
L4 0" id="mcee90f17e7"/>
      </defs>
      <g>
       <use style="stroke:#000000;stroke-linecap:butt;stroke-width:0.5;" x="20.1203125" xlink:href="#mcee90f17e7" y="96.0087943455"/>
      </g>
     </g>
     <g id="text_9">
      <!-- -1 -->
      <g transform="translate(7.5625 99.6541068455)scale(0.1 -0.1)">
       <use xlink:href="#BitstreamVeraSans-Roman-2d"/>
       <use x="36.083984375" xlink:href="#BitstreamVeraSans-Roman-31"/>
      </g>
     </g>
    </g>
    <g id="ytick_5">
     <g id="line2d_27">
      <defs>
       <path d="
M0 0
L4 0" id="mcee90f17e7"/>
      </defs>
      <g>
       <use style="stroke:#000000;stroke-linecap:butt;stroke-width:0.5;" x="20.1203125" xlink:href="#mcee90f17e7" y="15.0092307692"/>
      </g>
     </g>
    </g>
    <g id="ytick_6">
     <g id="line2d_28">
      <defs>
       <path d="
M0 0
L2 0" id="m77414749ab"/>
      </defs>
      <g>
       <use style="stroke:#000000;stroke-linecap:butt;stroke-width:0.5;" x="20.1203125" xlink:href="#m77414749ab" y="403.807135936"/>
      </g>
     </g>
    </g>
    <g id="ytick_7">
     <g id="line2d_29">
      <defs>
       <path d="
M0 0
L2 0" id="m77414749ab"/>
      </defs>
      <g>
       <use style="stroke:#000000;stroke-linecap:butt;stroke-width:0.5;" x="20.1203125" xlink:href="#m77414749ab" y="387.60722322"/>
      </g>
     </g>
    </g>
    <g id="ytick_8">
     <g id="line2d_30">
      <defs>
       <path d="
M0 0
L2 0" id="m77414749ab"/>
      </defs>
      <g>
       <use style="stroke:#000000;stroke-linecap:butt;stroke-width:0.5;" x="20.1203125" xlink:href="#m77414749ab" y="371.407310505"/>
      </g>
     </g>
    </g>
    <g id="ytick_9">
     <g id="line2d_31">
      <defs>
       <path d="
M0 0
L2 0" id="m77414749ab"/>
      </defs>
      <g>
       <use style="stroke:#000000;stroke-linecap:butt;stroke-width:0.5;" x="20.1203125" xlink:href="#m77414749ab" y="355.20739779"/>
      </g>
     </g>
    </g>
    <g id="ytick_10">
     <g id="line2d_32">
      <defs>
       <path d="
M0 0
L2 0" id="m77414749ab"/>
      </defs>
      <g>
       <use style="stroke:#000000;stroke-linecap:butt;stroke-width:0.5;" x="20.1203125" xlink:href="#m77414749ab" y="322.807572359"/>
      </g>
     </g>
    </g>
    <g id="ytick_11">
     <g id="line2d_33">
      <defs>
       <path d="
M0 0
L2 0" id="m77414749ab"/>
      </defs>
      <g>
       <use style="stroke:#000000;stroke-linecap:butt;stroke-width:0.5;" x="20.1203125" xlink:href="#m77414749ab" y="306.607659644"/>
      </g>
     </g>
    </g>
    <g id="ytick_12">
     <g id="line2d_34">
      <defs>
       <path d="
M0 0
L2 0" id="m77414749ab"/>
      </defs>
      <g>
       <use style="stroke:#000000;stroke-linecap:butt;stroke-width:0.5;" x="20.1203125" xlink:href="#m77414749ab" y="290.407746929"/>
      </g>
     </g>
    </g>
    <g id="ytick_13">
     <g id="line2d_35">
      <defs>
       <path d="
M0 0
L2 0" id="m77414749ab"/>
      </defs>
      <g>
       <use style="stroke:#000000;stroke-linecap:butt;stroke-width:0.5;" x="20.1203125" xlink:href="#m77414749ab" y="274.207834213"/>
      </g>
     </g>
    </g>
    <g id="ytick_14">
     <g id="line2d_36">
      <defs>
       <path d="
M0 0
L2 0" id="m77414749ab"/>
      </defs>
      <g>
       <use style="stroke:#000000;stroke-linecap:butt;stroke-width:0.5;" x="20.1203125" xlink:href="#m77414749ab" y="241.808008783"/>
      </g>
     </g>
    </g>
    <g id="ytick_15">
     <g id="line2d_37">
      <defs>
       <path d="
M0 0
L2 0" id="m77414749ab"/>
      </defs>
      <g>
       <use style="stroke:#000000;stroke-linecap:butt;stroke-width:0.5;" x="20.1203125" xlink:href="#m77414749ab" y="225.608096068"/>
      </g>
     </g>
    </g>
    <g id="ytick_16">
     <g id="line2d_38">
      <defs>
       <path d="
M0 0
L2 0" id="m77414749ab"/>
      </defs>
      <g>
       <use style="stroke:#000000;stroke-linecap:butt;stroke-width:0.5;" x="20.1203125" xlink:href="#m77414749ab" y="209.408183352"/>
      </g>
     </g>
    </g>
    <g id="ytick_17">
     <g id="line2d_39">
      <defs>
       <path d="
M0 0
L2 0" id="m77414749ab"/>
      </defs>
      <g>
       <use style="stroke:#000000;stroke-linecap:butt;stroke-width:0.5;" x="20.1203125" xlink:href="#m77414749ab" y="193.208270637"/>
      </g>
     </g>
    </g>
    <g id="ytick_18">
     <g id="line2d_40">
      <defs>
       <path d="
M0 0
L2 0" id="m77414749ab"/>
      </defs>
      <g>
       <use style="stroke:#000000;stroke-linecap:butt;stroke-width:0.5;" x="20.1203125" xlink:href="#m77414749ab" y="160.808445207"/>
      </g>
     </g>
    </g>
    <g id="ytick_19">
     <g id="line2d_41">
      <defs>
       <path d="
M0 0
L2 0" id="m77414749ab"/>
      </defs>
      <g>
       <use style="stroke:#000000;stroke-linecap:butt;stroke-width:0.5;" x="20.1203125" xlink:href="#m77414749ab" y="144.608532491"/>
      </g>
     </g>
    </g>
    <g id="ytick_20">
     <g id="line2d_42">
      <defs>
       <path d="
M0 0
L2 0" id="m77414749ab"/>
      </defs>
      <g>
       <use style="stroke:#000000;stroke-linecap:butt;stroke-width:0.5;" x="20.1203125" xlink:href="#m77414749ab" y="128.408619776"/>
      </g>
     </g>
    </g>
    <g id="ytick_21">
     <g id="line2d_43">
      <defs>
       <path d="
M0 0
L2 0" id="m77414749ab"/>
      </defs>
      <g>
       <use style="stroke:#000000;stroke-linecap:butt;stroke-width:0.5;" x="20.1203125" xlink:href="#m77414749ab" y="112.208707061"/>
      </g>
     </g>
    </g>
    <g id="ytick_22">
     <g id="line2d_44">
      <defs>
       <path d="
M0 0
L2 0" id="m77414749ab"/>
      </defs>
      <g>
       <use style="stroke:#000000;stroke-linecap:butt;stroke-width:0.5;" x="20.1203125" xlink:href="#m77414749ab" y="79.8088816303"/>
      </g>
     </g>
    </g>
    <g id="ytick_23">
     <g id="line2d_45">
      <defs>
       <path d="
M0 0
L2 0" id="m77414749ab"/>
      </defs>
      <g>
       <use style="stroke:#000000;stroke-linecap:butt;stroke-width:0.5;" x="20.1203125" xlink:href="#m77414749ab" y="63.608968915"/>
      </g>
     </g>
    </g>
    <g id="ytick_24">
     <g id="line2d_46">
      <defs>
       <path d="
M0 0
L2 0" id="m77414749ab"/>
      </defs>
      <g>
       <use style="stroke:#000000;stroke-linecap:butt;stroke-width:0.5;" x="20.1203125" xlink:href="#m77414749ab" y="47.4090561998"/>
      </g>
     </g>
    </g>
    <g id="ytick_25">
     <g id="line2d_47">
      <defs>
       <path d="
M0 0
L2 0" id="m77414749ab"/>
      </defs>
      <g>
       <use style="stroke:#000000;stroke-linecap:butt;stroke-width:0.5;" x="20.1203125" xlink:href="#m77414749ab" y="31.2091434845"/>
      </g>
     </g>
    </g>
   </g>
   <g id="patch_3">
    <path d="
M9.62586 15.0092
L555.338 15.0092" style="fill:none;stroke:#000000;stroke-width:0.8;"/>
   </g>
   <g id="patch_4">
    <path d="
M20.1203 413.28
L20.1203 7.2" style="fill:none;stroke:#000000;stroke-width:0.8;"/>
   </g>
  </g>
 </g>
 <defs>
  <clipPath id="p602998282e">
   <rect height="406.08" width="545.711698828" x="9.62585780281" y="7.2"/>
  </clipPath>
 </defs>
</svg>
