<?xml version="1.0" encoding="utf-8" standalone="no"?>
<!DOCTYPE svg PUBLIC "-//W3C//DTD SVG 1.1//EN"
  "http://www.w3.org/Graphics/SVG/1.1/DTD/svg11.dtd">
<!-- Created with matplotlib (http://matplotlib.sourceforge.net/) -->
<svg height="420pt" version="1.1" viewBox="0 0 562 420" width="562pt" xmlns="http://www.w3.org/2000/svg" xmlns:xlink="http://www.w3.org/1999/xlink">
 <defs>
  <style type="text/css">
*{stroke-linecap:square;stroke-linejoin:round;}
  </style>
 </defs>
 <g id="figure_1">
  <g id="patch_1">
   <path d="
M0 420.48
L562.7 420.48
L562.7 0
L0 0
z
" style="fill:#ffffff;"/>
  </g>
  <g id="axes_1">
   <g id="patch_2">
    <path d="
M19.3504 413.28
L555.5 413.28
L555.5 7.2
L19.3504 7.2
z
" style="fill:#ffffff;"/>
   </g>
   <g id="line2d_1">
    <path clip-path="url(#p9594e53bbf)" d="
M29.6609 254.074
L29.7159 254.074
L29.7159 405.471
L29.7789 348.603
L29.8449 348.603
L29.913 311.378
L29.9823 311.378
L30.053 303.953
L30.1242 303.953
L30.1967 279.629
L30.2695 279.629
L30.3432 259.942
L30.4174 259.942
L30.4923 238.809
L30.5675 238.809
L30.6431 221.703
L30.719 221.703
L30.7955 212.462
L30.8725 212.462
L30.9496 202.436
L31.0268 202.436
L31.1047 197.978
L31.1826 197.978
L31.2609 195.054
L31.3389 195.054
L31.4178 189.757
L31.4976 189.757
L31.5763 187.78
L31.6556 187.78
L31.7355 186.019
L31.8153 186.019
L31.8955 182.572
L31.9752 182.572
L32.056 180.193
L32.1367 180.193
L32.2169 178.068
L32.2979 178.068
L32.3788 175.794
L32.4601 175.794
L32.5418 174.089
L32.6236 174.089
L32.7053 171.933
L32.7871 171.933
L32.8693 169.491
L32.9512 169.491
L33.0337 167.382
L33.116 167.382
L33.1981 165.903
L33.2804 165.903
L33.3631 165.018
L33.446 165.018
L33.5292 164.448
L33.7785 164.408
L33.8626 164.299
L33.8626 164.394
L34.0297 164.285
L34.1127 163.902
L34.2803 163.832
L34.3648 163.254
L34.5328 163.313
L34.5328 163.378
L34.6171 163.346
L35.2943 163.281
L35.3792 162.979
L35.9765 162.934
L36.0615 162.319
L36.1476 162.319
L36.2328 161.528
L36.3188 161.528
L36.4053 160.284
L36.4913 160.284
L36.5774 159.195
L36.6641 159.195
L36.7498 158.484
L36.8354 158.484
L36.9223 157.66
L37.0087 157.66
L37.0945 156.693
L37.181 156.693
L37.2678 155.87
L37.3544 155.87
L37.4413 154.996
L37.5281 154.996
L37.6153 154.354
L37.7014 154.354
L37.7885 153.563
L37.8751 153.563
L37.9623 152.547
L38.0492 152.547
L38.1366 151.363
L38.2239 151.363
L38.3109 150.124
L38.398 150.124
L38.4848 149.206
L38.5728 149.206
L38.6595 148.283
L38.7465 148.283
L38.8342 147.437
L38.9216 147.437
L39.0097 146.512
L39.0971 146.512
L39.1851 145.736
L39.2728 145.736
L39.3607 145.025
L39.4485 145.025
L39.5366 144.385
L39.6245 144.385
L39.7125 143.737
L39.801 143.737
L39.8887 143.264
L39.9765 143.264
L40.0644 142.796
L40.1533 142.796
L40.2416 142.154
L40.3297 142.154
L40.4181 141.487
L40.5064 141.487
L40.5953 140.731
L40.6836 140.731
L40.7721 139.822
L40.8605 139.822
L40.9488 138.921
L41.0368 138.921
L41.1268 137.982
L41.2157 137.982
L41.3042 137.099
L41.3929 137.099
L41.4816 136.164
L41.5705 136.164
L41.6594 135.369
L41.7484 135.369
L41.8375 134.73
L41.9267 134.73
L42.016 134.171
L42.1051 134.171
L42.1933 133.737
L42.2828 133.737
L42.3722 133.36
L42.4611 133.36
L42.5506 132.968
L42.64 132.968
L42.7301 132.623
L42.8198 132.623
L42.9092 132.36
L43.0875 132.275
L43.1772 132.067
L43.2671 132.067
L43.3558 131.724
L43.4458 131.724
L43.5354 131.376
L43.6249 131.376
L43.7147 131.014
L43.8046 131.014
L43.8938 130.783
L44.0741 130.708
L44.164 130.512
L44.344 130.44
L44.4334 130.144
L44.5241 130.144
L44.6142 129.75
L44.7047 129.75
L44.7944 129.297
L44.885 129.297
L44.975 128.811
L45.0652 128.811
L45.1547 128.342
L45.2444 128.342
L45.3344 127.928
L45.4253 127.928
L45.5151 127.562
L45.6053 127.562
L45.6969 127.218
L45.7874 127.218
L45.8779 126.87
L45.9686 126.87
L46.0594 126.424
L46.1496 126.424
L46.24 126.022
L46.331 126.022
L46.4214 125.532
L46.512 125.532
L46.6029 125.082
L46.6935 125.082
L46.7843 124.633
L46.8744 124.633
L46.9654 124.161
L47.0566 124.161
L47.147 123.777
L47.2389 123.777
L47.3306 123.349
L47.4224 123.349
L47.513 122.906
L47.6046 122.906
L47.6952 122.406
L47.7868 122.406
L47.8777 121.917
L47.9689 121.917
L48.06 121.445
L48.1512 121.445
L48.2423 120.933
L48.3341 120.933
L48.4247 120.504
L48.5162 120.504
L48.608 120.113
L48.6999 120.113
L48.7905 119.731
L48.8819 119.731
L48.9736 119.306
L49.0646 119.306
L49.1563 118.944
L49.2481 118.944
L49.3391 118.608
L49.4299 118.608
L49.5212 118.264
L49.6136 118.264
L49.7042 117.93
L49.796 117.93
L49.8874 117.552
L49.9784 117.552
L50.07 117.215
L50.1613 117.215
L50.2536 116.933
L50.4371 116.824
L50.5287 116.629
L50.6212 116.629
L50.712 116.391
L50.8962 116.282
L50.9886 116.03
L51.0805 116.03
L51.1732 115.751
L51.2648 115.751
L51.3579 115.538
L51.5413 115.439
L51.6334 115.18
L51.7255 115.18
L51.8184 114.944
L51.9107 114.944
L52.0029 114.624
L52.0946 114.624
L52.1872 114.29
L52.2796 114.29
L52.3716 113.985
L52.4644 113.985
L52.5567 113.66
L52.6487 113.66
L52.7404 113.344
L52.8333 113.344
L52.9253 113.046
L53.0175 113.046
L53.109 112.79
L53.2013 112.79
L53.2943 112.524
L53.3862 112.524
L53.4791 112.29
L53.6645 112.205
L53.7569 112.088
L54.0346 111.995
L54.1276 111.913
L54.4062 111.804
L54.4992 111.715
L54.8711 111.637
L54.9642 111.558
L55.2413 111.46
L55.3344 111.351
L55.613 111.261
L55.7062 111.14
L55.8917 111.072
L55.9856 110.908
L56.1712 110.83
L56.2642 110.706
L56.4502 110.633
L56.5435 110.505
L56.9166 110.415
L57.01 110.326
L57.1963 110.274
L57.2905 110.14
L57.477 110.064
L57.5701 109.921
L57.7583 109.852
L57.8508 109.724
L58.0384 109.647
L58.1315 109.511
L58.3191 109.439
L58.4116 109.319
L58.6917 109.209
L58.7861 109.111
L58.9723 109.051
L59.0662 108.922
L59.2525 108.853
L59.3466 108.717
L59.5346 108.652
L59.6286 108.519
L59.8163 108.453
L59.9097 108.322
L60.0969 108.253
L60.1911 108.142
L60.3794 108.077
L60.4732 107.962
L60.6612 107.904
L60.7549 107.782
L60.9423 107.726
L61.0354 107.59
L61.2243 107.505
L61.319 107.354
L61.5074 107.294
L61.6013 107.173
L61.7892 107.111
L61.8835 106.931
L61.9781 106.931
L62.0718 106.681
L62.1663 106.681
L62.2601 106.445
L62.3543 106.445
L62.4483 106.178
L62.5425 106.178
L62.6359 105.93
L62.73 105.93
L62.8244 105.665
L62.9188 105.665
L63.0137 105.387
L63.1089 105.387
L63.2026 105.08
L63.2975 105.08
L63.3918 104.733
L63.486 104.733
L63.5809 104.369
L63.6749 104.369
L63.7691 104.022
L63.8623 104.022
L63.9566 103.692
L64.0506 103.692
L64.1453 103.382
L64.2403 103.382
L64.3346 103.083
L64.4286 103.083
L64.5227 102.799
L64.6175 102.799
L64.7116 102.538
L64.8065 102.538
L64.9011 102.258
L64.9961 102.258
L65.0905 102.008
L65.1855 102.008
L65.2802 101.756
L65.3758 101.756
L65.4693 101.489
L65.5637 101.489
L65.6582 101.213
L65.7535 101.213
L65.8481 100.932
L65.9427 100.932
L66.0367 100.671
L66.132 100.671
L66.2274 100.404
L66.322 100.404
L66.4169 100.126
L66.5111 100.126
L66.6055 99.8633
L66.7012 99.8633
L66.7964 99.6158
L66.8899 99.6158
L66.9845 99.3792
L67.0794 99.3792
L67.1749 99.1502
L67.2692 99.1502
L67.3643 98.9097
L67.555 98.8018
L67.6492 98.5995
L67.8395 98.5088
L67.9349 98.2991
L68.1252 98.2002
L68.2203 98.0352
L68.4107 97.9566
L68.5051 97.8269
L68.7896 97.7279
L68.8845 97.6422
L69.1712 97.5576
L69.267 97.4877
L69.5522 97.4172
L69.6477 97.3303
L69.9334 97.2384
L70.0293 97.1213
L70.2202 97.0538
L70.3158 96.9217
L70.5063 96.8556
L70.6018 96.7015
L70.7926 96.6172
L70.8878 96.4542
L71.079 96.3752
L71.1741 96.2115
L71.3647 96.1126
L71.4594 95.957
L71.6498 95.8717
L71.7454 95.6865
L71.9365 95.6019
L72.0319 95.4651
L72.2238 95.3995
L72.3192 95.2812
L72.5102 95.2118
L72.606 95.0659
L72.798 94.9983
L72.8931 94.8696
L73.085 94.7977
L73.1806 94.6409
L73.3719 94.5526
L73.4679 94.3615
L73.6598 94.2628
L73.755 94.059
L73.9468 93.9583
L74.0422 93.7863
L74.2343 93.7058
L74.3297 93.5513
L74.5218 93.4753
L74.6177 93.3316
L74.8098 93.2624
L74.9061 93.1401
L75.1923 93.0388
L75.2886 92.9306
L75.4809 92.8677
L75.5768 92.7568
L75.8649 92.6518
L75.9624 92.5484
L76.1536 92.4847
L76.2491 92.3435
L76.4419 92.2681
L76.5375 92.1144
L76.7289 92.0401
L76.8256 91.9101
L77.018 91.8452
L77.1142 91.6972
L77.307 91.633
L77.4031 91.5006
L77.595 91.4367
L77.692 91.3097
L77.8841 91.2464
L77.9812 91.1231
L78.1725 91.0594
L78.2692 90.9404
L78.5576 90.8297
L78.6529 90.7335
L78.9417 90.6312
L79.0391 90.5322
L79.3281 90.4463
L79.4249 90.3564
L79.713 90.2526
L79.8101 90.147
L80.0979 90.0405
L80.1949 89.9344
L80.4842 89.8481
L80.5814 89.7455
L80.8725 89.635
L80.9689 89.5193
L81.1616 89.4526
L81.258 89.3242
L81.4513 89.2546
L81.5482 89.1016
L81.7415 89.0361
L81.8379 88.9154
L82.0309 88.854
L82.1279 88.7217
L82.321 88.6596
L82.4164 88.5406
L82.6099 88.4766
L82.7065 88.3584
L82.9965 88.2526
L83.0941 88.1533
L83.3836 88.0559
L83.4796 87.9678
L83.7707 87.8585
L83.8674 87.7566
L84.1585 87.6588
L84.2553 87.5472
L84.4498 87.4861
L84.5463 87.3701
L84.8368 87.2611
L84.9337 87.1523
L85.2236 87.0439
L85.3213 86.947
L85.7079 86.8473
L85.8048 86.8045
L86.3859 86.7044
L86.4829 86.6471
L86.9697 86.5416
L87.067 86.4663
L87.3589 86.3846
L87.4558 86.3161
L87.8445 86.2101
L87.942 86.1305
L88.3318 86.0292
L88.4291 85.9656
L88.9163 85.8659
L89.0138 85.819
L89.5972 85.7146
L89.694 85.6721
L90.0841 85.5687
L90.1816 85.4771
L90.4737 85.3804
L90.5715 85.2981
L90.8635 85.2192
L90.9619 85.1207
L91.2554 85.0333
L91.353 84.9531
L91.7426 84.8521
L91.8407 84.8
L92.3291 84.6911
L92.4265 84.6341
L92.9157 84.527
L93.0123 84.451
L93.4032 84.342
L93.5003 84.2789
L94.2812 84.1691
L94.3791 84.1422
L95.2587 84.0388
L95.357 84.0148
L96.628 83.9237
L96.727 83.8838
L97.3142 83.7749
L97.4119 83.7452
L98.1975 83.6354
L98.2949 83.5849
L98.6886 83.4825
L98.7868 83.4181
L99.0812 83.3434
L99.1788 83.2513
L99.4731 83.1479
L99.5716 83.0416
L99.8669 82.9348
L99.9655 82.8248
L100.259 82.7223
L100.357 82.6051
L100.553 82.5435
L100.651 82.4131
L100.849 82.3465
L100.949 82.2172
L101.145 82.1564
L101.243 82.0277
L101.44 81.9692
L101.538 81.8533
L101.734 81.7922
L101.832 81.6826
L102.029 81.6218
L102.128 81.5121
L102.424 81.4112
L102.522 81.3064
L102.817 81.2054
L102.915 81.1149
L103.21 81.0127
L103.308 80.9179
L103.602 80.8279
L103.7 80.7295
L103.996 80.6225
L104.094 80.5233
L104.39 80.4167
L104.489 80.3097
L104.784 80.2129
L104.883 80.1268
L105.179 80.0482
L105.277 79.9606
L105.572 79.8732
L105.671 79.786
L105.967 79.6958
L106.065 79.6137
L106.361 79.5301
L106.46 79.4533
L106.855 79.3474
L106.954 79.2689
L107.25 79.1913
L107.349 79.1033
L107.646 79.0115
L107.745 78.9175
L108.042 78.8289
L108.142 78.7309
L108.437 78.621
L108.537 78.5083
L108.833 78.4046
L108.931 78.3037
L109.228 78.2218
L109.327 78.148
L109.722 78.0406
L109.821 77.9743
L110.216 77.8757
L110.315 77.804
L110.711 77.693
L110.809 77.6069
L111.106 77.5272
L111.206 77.4471
L111.504 77.3678
L111.603 77.2989
L111.999 77.1919
L112.097 77.1129
L112.394 77.0332
L112.493 76.9568
L112.89 76.8495
L112.989 76.7626
L113.287 76.6766
L113.386 76.5873
L113.683 76.509
L113.783 76.4342
L114.078 76.3558
L114.177 76.266
L114.476 76.1561
L114.574 76.0501
L114.873 75.9476
L114.972 75.8446
L115.27 75.7547
L115.37 75.6706
L115.666 75.594
L115.766 75.5236
L116.262 75.4133
L116.361 75.3734
L116.957 75.2831
L117.055 75.2414
L117.652 75.1312
L117.751 75.0969
L119.141 74.9886
L119.24 74.9623
L120.435 74.8518
L120.534 74.8264
L121.33 74.7267
L121.429 74.6925
L122.027 74.593
L122.127 74.5444
L122.524 74.4616
L122.624 74.4021
L123.024 74.3154
L123.124 74.2558
L123.624 74.1455
L123.724 74.0835
L124.124 73.9956
L124.224 73.9459
L124.722 73.8541
L124.82 73.798
L125.318 73.6983
L125.419 73.6463
L125.818 73.5619
L125.918 73.5029
L126.316 73.4159
L126.417 73.3577
L126.817 73.2575
L126.917 73.1871
L127.316 73.0838
L127.417 73.0221
L127.816 72.9187
L127.916 72.8475
L128.217 72.7619
L128.317 72.6678
L128.619 72.5812
L128.72 72.5007
L129.118 72.3901
L129.218 72.3084
L129.518 72.2238
L129.617 72.1384
L129.917 72.0461
L130.018 71.9531
L130.316 71.858
L130.417 71.7859
L130.818 71.6902
L130.919 71.6321
L131.42 71.5306
L131.521 71.4914
L132.022 71.3928
L132.122 71.351
L132.624 71.2568
L132.724 71.2142
L133.325 71.1048
L133.425 71.0563
L133.926 70.9613
L134.026 70.9085
L134.428 70.8117
L134.528 70.7392
L134.829 70.6591
L134.929 70.578
L135.23 70.4927
L135.33 70.4023
L135.631 70.3081
L135.732 70.2186
L136.033 70.1305
L136.133 70.0446
L136.434 69.9556
L136.534 69.8753
L136.835 69.7967
L136.936 69.7183
L137.238 69.634
L137.338 69.5514
L137.64 69.4689
L137.739 69.3964
L138.141 69.2865
L138.242 69.2091
L138.544 69.1243
L138.644 69.0386
L138.945 68.9528
L139.046 68.8611
L139.348 68.7761
L139.448 68.6926
L139.75 68.6098
L139.851 68.5313
L140.153 68.4505
L140.254 68.3681
L140.554 68.2843
L140.654 68.2032
L140.957 68.1205
L141.057 68.0458
L141.46 67.9425
L141.561 67.8813
L141.965 67.787
L142.065 67.7271
L142.468 67.6373
L142.568 67.5828
L143.073 67.4861
L143.173 67.4394
L143.677 67.3331
L143.778 67.2725
L144.18 67.185
L144.281 67.1282
L144.784 67.0295
L144.884 66.9787
L145.388 66.874
L145.488 66.8267
L145.995 66.7358
L146.095 66.6881
L146.599 66.5942
L146.7 66.5513
L147.407 66.4433
L147.508 66.4113
L148.214 66.3184
L148.315 66.2795
L148.919 66.1798
L149.02 66.1371
L149.526 66.0384
L149.628 65.9876
L150.133 65.8938
L150.235 65.8459
L150.74 65.7497
L150.841 65.6944
L151.245 65.6007
L151.346 65.5317
L151.75 65.4375
L151.85 65.3741
L152.254 65.2789
L152.354 65.2187
L152.758 65.1353
L152.859 65.0795
L153.264 64.997
L153.366 64.9388
L153.768 64.8468
L153.869 64.7806
L154.275 64.682
L154.376 64.6145
L154.783 64.5079
L154.884 64.4372
L155.289 64.3443
L155.391 64.2874
L155.796 64.1983
L155.895 64.1488
L156.401 64.0518
L156.503 64.0038
L157.01 63.8963
L157.112 63.8398
L157.517 63.7499
L157.619 63.6829
L157.921 63.6085
L158.023 63.5296
L158.327 63.4462
L158.428 63.3601
L158.733 63.274
L158.834 63.1881
L159.138 63.1094
L159.239 63.0271
L159.544 62.9412
L159.645 62.8553
L159.95 62.7721
L160.051 62.6884
L160.355 62.6
L160.457 62.5061
L160.761 62.4093
L160.862 62.3224
L161.167 62.2412
L161.268 62.1598
L161.572 62.0729
L161.674 61.9826
L161.98 61.8922
L162.082 61.8032
L162.385 61.7147
L162.486 61.6255
L162.791 61.5329
L162.893 61.4396
L163.198 61.3457
L163.299 61.2521
L163.604 61.1565
L163.706 61.0636
L164.01 60.9753
L164.112 60.8875
L164.417 60.7954
L164.517 60.7094
L164.822 60.625
L164.923 60.5458
L165.227 60.4657
L165.329 60.3832
L165.636 60.3032
L165.738 60.2229
L166.043 60.139
L166.145 60.0554
L166.45 59.9709
L166.55 59.8898
L166.855 59.8141
L166.956 59.7302
L167.263 59.6426
L167.365 59.5524
L167.671 59.4608
L167.772 59.3724
L168.078 59.2847
L168.179 59.1967
L168.484 59.1075
L168.585 59.0187
L168.893 58.9312
L168.994 58.8444
L169.3 58.7532
L169.402 58.6592
L169.709 58.5655
L169.81 58.4749
L170.116 58.3837
L170.216 58.2953
L170.524 58.2115
L170.625 58.1222
L170.929 58.0329
L171.031 57.9449
L171.336 57.8576
L171.438 57.7705
L171.743 57.6881
L171.845 57.6033
L172.151 57.5206
L172.254 57.4395
L172.559 57.3628
L172.66 57.2816
L172.965 57.2006
L173.068 57.1142
L173.374 57.025
L173.476 56.9337
L173.783 56.8449
L173.883 56.7578
L174.189 56.6645
L174.291 56.5724
L174.597 56.4755
L174.699 56.3818
L175.004 56.2874
L175.107 56.1834
L175.413 56.0833
L175.515 55.9838
L175.822 55.8823
L175.923 55.7851
L176.23 55.6844
L176.333 55.5833
L176.64 55.4775
L176.743 55.371
L177.049 55.2691
L177.15 55.1709
L177.457 55.0815
L177.56 54.9958
L177.865 54.9079
L177.967 54.8191
L178.274 54.7286
L178.376 54.6384
L178.681 54.5481
L178.784 54.4539
L179.089 54.3576
L179.192 54.2638
L179.501 54.1732
L179.602 54.0876
L179.908 54.0039
L180.011 53.9249
L180.316 53.8477
L180.418 53.7718
L180.827 53.6668
L180.93 53.6006
L181.338 53.5016
L181.439 53.4335
L181.85 53.336
L181.952 53.2743
L182.361 53.1825
L182.463 53.1183
L182.873 53.0192
L182.974 52.9532
L183.383 52.8506
L183.485 52.7785
L183.794 52.7
L183.896 52.616
L184.203 52.5328
L184.305 52.4511
L184.611 52.366
L184.714 52.2779
L185.02 52.1906
L185.122 52.1022
L185.429 52.0128
L185.532 51.9281
L185.84 51.8437
L185.942 51.7592
L186.25 51.6745
L186.353 51.5883
L186.66 51.5009
L186.762 51.4134
L187.07 51.3248
L187.172 51.2461
L187.477 51.1675
L187.581 51.0846
L187.888 51.0007
L187.991 50.9201
L188.298 50.8411
L188.4 50.7598
L188.705 50.6799
L188.808 50.5911
L189.115 50.499
L189.218 50.4074
L189.525 50.318
L189.627 50.2321
L189.936 50.1497
L190.038 50.0645
L190.348 49.9774
L190.45 49.8938
L190.756 49.8137
L190.859 49.7334
L191.166 49.6514
L191.269 49.5644
L191.576 49.4736
L191.679 49.3834
L191.987 49.2944
L192.09 49.205
L192.398 49.1147
L192.5 49.0312
L192.808 48.9474
L192.911 48.8647
L193.219 48.7823
L193.322 48.6995
L193.63 48.6162
L193.732 48.5338
L194.041 48.4517
L194.144 48.3668
L194.453 48.283
L194.555 48.1971
L194.864 48.1128
L194.967 48.0277
L195.274 47.9431
L195.377 47.8605
L195.686 47.7804
L195.789 47.7056
L196.096 47.631
L196.199 47.5545
L196.507 47.4783
L196.609 47.4037
L196.919 47.3241
L197.022 47.2493
L197.329 47.1727
L197.431 47.0939
L197.74 47.0103
L197.842 46.9234
L198.151 46.8337
L198.253 46.7437
L198.562 46.6535
L198.664 46.5612
L198.973 46.4658
L199.076 46.3703
L199.385 46.2771
L199.488 46.1855
L199.795 46.0969
L199.899 46.0081
L200.209 45.9193
L200.312 45.8307
L200.62 45.7469
L200.723 45.6647
L201.032 45.5842
L201.135 45.5038
L201.442 45.4247
L201.545 45.3473
L201.854 45.273
L201.958 45.1985
L202.266 45.124
L202.368 45.047
L202.677 44.9724
L202.781 44.8972
L203.09 44.8218
L203.193 44.7434
L203.501 44.6682
L203.605 44.5953
L204.017 44.4886
L204.12 44.4168
L204.531 44.3136
L204.635 44.2424
L205.046 44.1341
L205.148 44.0603
L205.56 43.9564
L205.664 43.8864
L206.075 43.7815
L206.177 43.7125
L206.591 43.6115
L206.694 43.5422
L207.105 43.4358
L207.206 43.3633
L207.517 43.2865
L207.62 43.208
L207.929 43.1283
L208.032 43.0514
L208.342 42.9725
L208.445 42.8905
L208.754 42.8053
L208.858 42.7227
L209.168 42.6423
L209.271 42.5625
L209.582 42.4829
L209.684 42.4025
L209.993 42.3233
L210.095 42.2433
L210.404 42.1613
L210.508 42.0744
L210.817 41.9899
L210.921 41.9015
L211.231 41.8146
L211.335 41.7288
L211.643 41.6457
L211.746 41.5668
L212.056 41.4906
L212.159 41.4172
L212.572 41.3099
L212.675 41.2372
L213.088 41.132
L213.191 41.0621
L213.604 40.9578
L213.707 40.8874
L214.121 40.7826
L214.224 40.717
L214.638 40.6255
L214.74 40.5676
L215.154 40.4822
L215.257 40.4257
L215.672 40.3388
L215.776 40.28
L216.188 40.1944
L216.292 40.1384
L216.706 40.053
L216.809 39.9932
L217.221 39.9059
L217.325 39.8533
L217.842 39.7473
L217.945 39.6971
L218.461 39.5949
L218.564 39.5401
L218.978 39.4562
L219.08 39.4007
L219.494 39.3174
L219.598 39.2597
L220.117 39.1526
L220.22 39.1043
L220.738 39.0102
L220.842 38.9669
L221.462 38.8671
L221.565 38.8304
L222.187 38.7392
L222.291 38.6987
L222.91 38.5905
L223.013 38.5432
L223.53 38.4464
L223.634 38.3986
L224.15 38.3053
L224.253 38.2594
L224.873 38.1483
L224.976 38.103
L225.493 38.0122
L225.596 37.9692
L226.217 37.8639
L226.32 37.8211
L226.942 37.7125
L227.045 37.6679
L227.564 37.579
L227.668 37.5355
L228.291 37.435
L228.394 37.3963
L229.121 37.2857
L229.224 37.2435
L229.741 37.1529
L229.845 37.1041
L230.364 36.9982
L230.468 36.9436
L230.988 36.8396
L231.092 36.7898
L231.611 36.6871
L231.714 36.6335
L232.127 36.5499
L232.232 36.4912
L232.752 36.3831
L232.855 36.3337
L233.374 36.2415
L233.477 36.194
L233.998 36.098
L234.102 36.0488
L234.621 35.9542
L234.724 35.9071
L235.244 35.8123
L235.348 35.7641
L235.865 35.6672
L235.969 35.6168
L236.49 35.5148
L236.595 35.4623
L237.113 35.3528
L237.216 35.2961
L237.631 35.2075
L237.735 35.1465
L238.151 35.0564
L238.255 34.9994
L238.774 34.8918
L238.878 34.8388
L239.398 34.7297
L239.501 34.675
L239.918 34.5906
L240.021 34.5335
L240.438 34.4437
L240.541 34.3877
L240.958 34.3038
L241.062 34.2453
L241.477 34.1549
L241.581 34.0974
L241.997 34.0092
L242.101 33.9502
L242.518 33.8653
L242.622 33.8115
L243.142 33.7038
L243.245 33.6537
L243.765 33.5507
L243.869 33.4981
L244.39 33.393
L244.493 33.3376
L244.909 33.2541
L245.013 33.1966
L245.43 33.1076
L245.534 33.0492
L245.952 32.9652
L246.056 32.91
L246.577 32.8019
L246.682 32.7473
L247.202 32.6418
L247.305 32.5917
L247.826 32.4869
L247.931 32.4363
L248.451 32.3377
L248.554 32.2868
L249.073 32.1895
L249.177 32.1401
L249.7 32.0423
L249.804 31.9965
L250.325 31.9038
L250.43 31.8602
L250.95 31.7651
L251.055 31.7166
L251.576 31.6227
L251.681 31.5732
L252.202 31.4746
L252.305 31.423
L252.827 31.3201
L252.932 31.2689
L253.454 31.1656
L253.558 31.1115
L254.08 31.0036
L254.184 30.9493
L254.705 30.8439
L254.809 30.7898
L255.331 30.6846
L255.436 30.6338
L255.956 30.5365
L256.06 30.4892
L256.688 30.3783
L256.792 30.3348
L257.312 30.2435
L257.417 30.2006
L258.041 30.1024
L258.145 30.0641
L258.876 29.9571
L258.981 29.9234
L259.713 29.8164
L259.817 29.778
L260.443 29.6769
L260.547 29.64
L261.174 29.5417
L261.279 29.5037
L262.01 29.399
L262.115 29.3667
L262.846 29.2686
L262.95 29.2307
L263.682 29.1244
L263.787 29.0897
L264.413 28.9949
L264.517 28.9563
L265.247 28.8537
L265.353 28.8191
L266.086 28.7234
L266.191 28.6889
L266.924 28.5826
L267.028 28.5485
L267.865 28.4453
L267.97 28.4182
L268.804 28.3178
L268.909 28.2889
L269.747 28.1863
L269.851 28.157
L270.688 28.0529
L270.792 28.0209
L271.63 27.9102
L271.734 27.8848
L272.676 27.7832
L272.781 27.7571
L273.725 27.6527
L273.83 27.6284
L274.88 27.5245
L274.984 27.4972
L275.821 27.3976
L275.925 27.3709
L276.761 27.2647
L276.865 27.2342
L277.704 27.1314
L277.809 27.1032
L278.753 26.9942
L278.857 26.9681
L279.696 26.8675
L279.802 26.839
L280.639 26.742
L280.745 26.7116
L281.69 26.6016
L281.796 26.5777
L282.843 26.4688
L282.948 26.4452
L283.998 26.3346
L284.104 26.3081
L285.046 26.1988
L285.151 26.1691
L285.99 26.0681
L286.094 26.0416
L286.936 25.9426
L287.041 25.9142
L288.198 25.8098
L288.304 25.7897
L289.566 25.6851
L289.67 25.663
L290.723 25.5549
L290.827 25.5302
L291.879 25.4238
L291.984 25.402
L293.25 25.3005
L293.354 25.2798
L294.51 25.1711
L294.615 25.1502
L295.775 25.0444
L295.879 25.0229
L297.139 24.9169
L297.244 24.8999
L298.93 24.7893
L299.035 24.7765
L300.719 24.6686
L300.824 24.6534
L302.19 24.5498
L302.297 24.5297
L303.666 24.423
L303.771 24.403
L305.141 24.2997
L305.247 24.284
L306.825 24.1775
L306.931 24.163
L308.828 24.0538
L308.934 24.0438
L311.15 23.9389
L311.256 23.9252
L312.732 23.8218
L312.838 23.8055
L314.417 23.6981
L314.522 23.6816
L316.106 23.5747
L316.211 23.56
L318.007 23.4535
L318.113 23.4383
L319.696 23.3328
L319.802 23.3194
L322.234 23.2088
L322.339 23.2023
L327.202 23.0918
L327.308 23.0809
L329.318 22.9739
L329.424 22.9574
L330.798 22.8524
L330.904 22.8351
L332.493 22.7265
L332.598 22.7082
L333.868 22.5994
L333.974 22.5774
L335.136 22.4735
L335.243 22.451
L336.302 22.3499
L336.409 22.327
L337.464 22.2181
L337.57 22.1933
L338.632 22.0876
L338.738 22.0666
L339.797 21.9649
L339.902 21.9419
L341.066 21.8323
L341.171 21.8124
L342.34 21.7106
L342.445 21.6891
L343.719 21.5815
L343.825 21.5621
L345.099 21.4558
L345.205 21.4373
L346.688 21.3293
L346.793 21.3118
L348.178 21.2056
L348.284 21.1901
L349.875 21.0813
L349.981 21.0646
L351.362 20.9573
L351.467 20.9355
L352.637 20.8296
L352.742 20.8088
L354.014 20.6985
L354.12 20.6777
L355.289 20.5748
L355.395 20.5547
L356.673 20.4448
L356.779 20.4245
L358.053 20.3153
L358.159 20.2935
L359.329 20.1863
L359.435 20.1656
L360.497 20.063
L360.603 20.0405
L361.882 19.9334
L361.99 19.9171
L363.37 19.8103
L363.476 19.7897
L364.646 19.6889
L364.753 19.6671
L365.923 19.5572
L366.03 19.5358
L367.306 19.4294
L367.413 19.4103
L368.902 19.3017
L369.009 19.2868
L370.498 19.1805
L370.604 19.1633
L371.987 19.0537
L372.094 19.0346
L373.586 18.925
L373.692 18.9078
L375.185 18.8006
L375.292 18.7885
L378.277 18.6785
L378.385 18.6739
L381.479 18.567
L381.585 18.5566
L383.929 18.4501
L384.035 18.4397
L386.701 18.3306
L386.808 18.3223
L389.155 18.2156
L389.263 18.2025
L391.079 18.0946
L391.186 18.0818
L393.214 17.9736
L393.322 17.9641
L396.206 17.8562
L396.313 17.8481
L400.377 17.7389
L400.483 17.7333
L404.972 17.6238
L405.079 17.6207
L409.15 17.5098
L409.258 17.5009
L411.825 17.3925
L411.931 17.3824
L414.934 17.2754
L415.041 17.267
L430.485 17.1583
L430.591 17.1511
L434.562 17.0414
L434.67 17.0357
L438.426 16.926
L438.533 16.9193
L441.864 16.8088
L441.972 16.8
L445.087 16.6926
L445.196 16.6834
L448.637 16.5741
L448.744 16.5674
L454.553 16.4565
L454.661 16.4533
L476.541 16.3436
L476.648 16.3401
L480.64 16.2322
L480.746 16.2238
L486.369 16.1128
L486.476 16.1088
L491.663 15.9992
L491.772 15.9949
L496.529 15.8872
L496.638 15.8789
L499.445 15.7686
L499.552 15.7579
L501.93 15.6511
L502.037 15.6421
L505.609 15.5332
L505.717 15.5272
L509.618 15.4192
L509.727 15.4099
L512.322 15.3019
L512.43 15.2926
L515.251 15.1828
L515.36 15.1751
L519.476 15.0651
L519.585 15.0602
L545.189 15.1066
L545.189 15.1071" style="fill:none;stroke:#ff0000;stroke-width:0.5;"/>
   </g>
   <g id="matplotlib.axis_1">
    <g id="xtick_1">
     <g id="line2d_2">
      <path d="
M29.6609 413.28
L29.6609 7.2" style="fill:none;stroke:#000000;stroke-dasharray:1.000000,3.000000;stroke-dashoffset:0.0;stroke-linecap:butt;stroke-width:0.5;"/>
     </g>
     <g id="line2d_3">
      <defs>
       <path d="
M0 0
L0 -4" id="mdd8bac8cf7"/>
      </defs>
      <g>
       <use style="stroke:#000000;stroke-linecap:butt;stroke-width:0.5;" x="29.6609375" xlink:href="#mdd8bac8cf7" y="254.07379025"/>
      </g>
     </g>
    </g>
    <g id="xtick_2">
     <g id="line2d_4">
      <path d="
M132.772 413.28
L132.772 7.2" style="fill:none;stroke:#000000;stroke-dasharray:1.000000,3.000000;stroke-dashoffset:0.0;stroke-linecap:butt;stroke-width:0.5;"/>
     </g>
     <g id="line2d_5">
      <defs>
       <path d="
M0 0
L0 -4" id="mdd8bac8cf7"/>
      </defs>
      <g>
       <use style="stroke:#000000;stroke-linecap:butt;stroke-width:0.5;" x="132.772002595" xlink:href="#mdd8bac8cf7" y="254.07379025"/>
      </g>
     </g>
     <g id="text_1">
      <!-- 2e8 -->
      <defs>
       <path d="
M19.1875 8.29688
L53.6094 8.29688
L53.6094 0
L7.32812 0
L7.32812 8.29688
Q12.9375 14.1094 22.625 23.8906
Q32.3281 33.6875 34.8125 36.5312
Q39.5469 41.8438 41.4219 45.5312
Q43.3125 49.2188 43.3125 52.7812
Q43.3125 58.5938 39.2344 62.25
Q35.1562 65.9219 28.6094 65.9219
Q23.9688 65.9219 18.8125 64.3125
Q13.6719 62.7031 7.8125 59.4219
L7.8125 69.3906
Q13.7656 71.7812 18.9375 73
Q24.125 74.2188 28.4219 74.2188
Q39.75 74.2188 46.4844 68.5469
Q53.2188 62.8906 53.2188 53.4219
Q53.2188 48.9219 51.5312 44.8906
Q49.8594 40.875 45.4062 35.4062
Q44.1875 33.9844 37.6406 27.2188
Q31.1094 20.4531 19.1875 8.29688" id="BitstreamVeraSans-Roman-32"/>
       <path d="
M56.2031 29.5938
L56.2031 25.2031
L14.8906 25.2031
Q15.4844 15.9219 20.4844 11.0625
Q25.4844 6.20312 34.4219 6.20312
Q39.5938 6.20312 44.4531 7.46875
Q49.3125 8.73438 54.1094 11.2812
L54.1094 2.78125
Q49.2656 0.734375 44.1875 -0.34375
Q39.1094 -1.42188 33.8906 -1.42188
Q20.7969 -1.42188 13.1562 6.1875
Q5.51562 13.8125 5.51562 26.8125
Q5.51562 40.2344 12.7656 48.1094
Q20.0156 56 32.3281 56
Q43.3594 56 49.7812 48.8906
Q56.2031 41.7969 56.2031 29.5938
M47.2188 32.2344
Q47.125 39.5938 43.0938 43.9844
Q39.0625 48.3906 32.4219 48.3906
Q24.9062 48.3906 20.3906 44.1406
Q15.875 39.8906 15.1875 32.1719
z
" id="BitstreamVeraSans-Roman-65"/>
       <path d="
M31.7812 34.625
Q24.75 34.625 20.7188 30.8594
Q16.7031 27.0938 16.7031 20.5156
Q16.7031 13.9219 20.7188 10.1562
Q24.75 6.39062 31.7812 6.39062
Q38.8125 6.39062 42.8594 10.1719
Q46.9219 13.9688 46.9219 20.5156
Q46.9219 27.0938 42.8906 30.8594
Q38.875 34.625 31.7812 34.625
M21.9219 38.8125
Q15.5781 40.375 12.0312 44.7188
Q8.5 49.0781 8.5 55.3281
Q8.5 64.0625 14.7188 69.1406
Q20.9531 74.2188 31.7812 74.2188
Q42.6719 74.2188 48.875 69.1406
Q55.0781 64.0625 55.0781 55.3281
Q55.0781 49.0781 51.5312 44.7188
Q48 40.375 41.7031 38.8125
Q48.8281 37.1562 52.7969 32.3125
Q56.7812 27.4844 56.7812 20.5156
Q56.7812 9.90625 50.3125 4.23438
Q43.8438 -1.42188 31.7812 -1.42188
Q19.7344 -1.42188 13.25 4.23438
Q6.78125 9.90625 6.78125 20.5156
Q6.78125 27.4844 10.7812 32.3125
Q14.7969 37.1562 21.9219 38.8125
M18.3125 54.3906
Q18.3125 48.7344 21.8438 45.5625
Q25.3906 42.3906 31.7812 42.3906
Q38.1406 42.3906 41.7188 45.5625
Q45.3125 48.7344 45.3125 54.3906
Q45.3125 60.0625 41.7188 63.2344
Q38.1406 66.4062 31.7812 66.4062
Q25.3906 66.4062 21.8438 63.2344
Q18.3125 60.0625 18.3125 54.3906" id="BitstreamVeraSans-Roman-38"/>
      </defs>
      <g transform="translate(124.041533845 265.49566525)scale(0.1 -0.1)">
       <use xlink:href="#BitstreamVeraSans-Roman-32"/>
       <use x="63.623046875" xlink:href="#BitstreamVeraSans-Roman-65"/>
       <use x="125.146484375" xlink:href="#BitstreamVeraSans-Roman-38"/>
      </g>
     </g>
    </g>
    <g id="xtick_3">
     <g id="line2d_6">
      <path d="
M235.883 413.28
L235.883 7.2" style="fill:none;stroke:#000000;stroke-dasharray:1.000000,3.000000;stroke-dashoffset:0.0;stroke-linecap:butt;stroke-width:0.5;"/>
     </g>
     <g id="line2d_7">
      <defs>
       <path d="
M0 0
L0 -4" id="mdd8bac8cf7"/>
      </defs>
      <g>
       <use style="stroke:#000000;stroke-linecap:butt;stroke-width:0.5;" x="235.883067689" xlink:href="#mdd8bac8cf7" y="254.07379025"/>
      </g>
     </g>
     <g id="text_2">
      <!-- 4e8 -->
      <defs>
       <path d="
M37.7969 64.3125
L12.8906 25.3906
L37.7969 25.3906
z

M35.2031 72.9062
L47.6094 72.9062
L47.6094 25.3906
L58.0156 25.3906
L58.0156 17.1875
L47.6094 17.1875
L47.6094 0
L37.7969 0
L37.7969 17.1875
L4.89062 17.1875
L4.89062 26.7031
z
" id="BitstreamVeraSans-Roman-34"/>
      </defs>
      <g transform="translate(227.030723939 265.49566525)scale(0.1 -0.1)">
       <use xlink:href="#BitstreamVeraSans-Roman-34"/>
       <use x="63.623046875" xlink:href="#BitstreamVeraSans-Roman-65"/>
       <use x="125.146484375" xlink:href="#BitstreamVeraSans-Roman-38"/>
      </g>
     </g>
    </g>
    <g id="xtick_4">
     <g id="line2d_8">
      <path d="
M338.994 413.28
L338.994 7.2" style="fill:none;stroke:#000000;stroke-dasharray:1.000000,3.000000;stroke-dashoffset:0.0;stroke-linecap:butt;stroke-width:0.5;"/>
     </g>
     <g id="line2d_9">
      <defs>
       <path d="
M0 0
L0 -4" id="mdd8bac8cf7"/>
      </defs>
      <g>
       <use style="stroke:#000000;stroke-linecap:butt;stroke-width:0.5;" x="338.994132784" xlink:href="#mdd8bac8cf7" y="254.07379025"/>
      </g>
     </g>
     <g id="text_3">
      <!-- 6e8 -->
      <defs>
       <path d="
M33.0156 40.375
Q26.375 40.375 22.4844 35.8281
Q18.6094 31.2969 18.6094 23.3906
Q18.6094 15.5312 22.4844 10.9531
Q26.375 6.39062 33.0156 6.39062
Q39.6562 6.39062 43.5312 10.9531
Q47.4062 15.5312 47.4062 23.3906
Q47.4062 31.2969 43.5312 35.8281
Q39.6562 40.375 33.0156 40.375
M52.5938 71.2969
L52.5938 62.3125
Q48.875 64.0625 45.0938 64.9844
Q41.3125 65.9219 37.5938 65.9219
Q27.8281 65.9219 22.6719 59.3281
Q17.5312 52.7344 16.7969 39.4062
Q19.6719 43.6562 24.0156 45.9219
Q28.375 48.1875 33.5938 48.1875
Q44.5781 48.1875 50.9531 41.5156
Q57.3281 34.8594 57.3281 23.3906
Q57.3281 12.1562 50.6875 5.35938
Q44.0469 -1.42188 33.0156 -1.42188
Q20.3594 -1.42188 13.6719 8.26562
Q6.98438 17.9688 6.98438 36.375
Q6.98438 53.6562 15.1875 63.9375
Q23.3906 74.2188 37.2031 74.2188
Q40.9219 74.2188 44.7031 73.4844
Q48.4844 72.75 52.5938 71.2969" id="BitstreamVeraSans-Roman-36"/>
      </defs>
      <g transform="translate(330.246476534 265.49566525)scale(0.1 -0.1)">
       <use xlink:href="#BitstreamVeraSans-Roman-36"/>
       <use x="63.623046875" xlink:href="#BitstreamVeraSans-Roman-65"/>
       <use x="125.146484375" xlink:href="#BitstreamVeraSans-Roman-38"/>
      </g>
     </g>
    </g>
    <g id="xtick_5">
     <g id="line2d_10">
      <path d="
M442.105 413.28
L442.105 7.2" style="fill:none;stroke:#000000;stroke-dasharray:1.000000,3.000000;stroke-dashoffset:0.0;stroke-linecap:butt;stroke-width:0.5;"/>
     </g>
     <g id="line2d_11">
      <defs>
       <path d="
M0 0
L0 -4" id="mdd8bac8cf7"/>
      </defs>
      <g>
       <use style="stroke:#000000;stroke-linecap:butt;stroke-width:0.5;" x="442.105197878" xlink:href="#mdd8bac8cf7" y="254.07379025"/>
      </g>
     </g>
     <g id="text_4">
      <!-- 8e8 -->
      <g transform="translate(433.347385378 265.49566525)scale(0.1 -0.1)">
       <use xlink:href="#BitstreamVeraSans-Roman-38"/>
       <use x="63.623046875" xlink:href="#BitstreamVeraSans-Roman-65"/>
       <use x="125.146484375" xlink:href="#BitstreamVeraSans-Roman-38"/>
      </g>
     </g>
    </g>
    <g id="xtick_6">
     <g id="line2d_12">
      <path d="
M545.216 413.28
L545.216 7.2" style="fill:none;stroke:#000000;stroke-dasharray:1.000000,3.000000;stroke-dashoffset:0.0;stroke-linecap:butt;stroke-width:0.5;"/>
     </g>
     <g id="line2d_13">
      <defs>
       <path d="
M0 0
L0 -4" id="mdd8bac8cf7"/>
      </defs>
      <g>
       <use style="stroke:#000000;stroke-linecap:butt;stroke-width:0.5;" x="545.216262973" xlink:href="#mdd8bac8cf7" y="254.07379025"/>
      </g>
     </g>
     <g id="text_5">
      <!-- 1e9 -->
      <defs>
       <path d="
M10.9844 1.51562
L10.9844 10.5
Q14.7031 8.73438 18.5 7.8125
Q22.3125 6.89062 25.9844 6.89062
Q35.75 6.89062 40.8906 13.4531
Q46.0469 20.0156 46.7812 33.4062
Q43.9531 29.2031 39.5938 26.9531
Q35.25 24.7031 29.9844 24.7031
Q19.0469 24.7031 12.6719 31.3125
Q6.29688 37.9375 6.29688 49.4219
Q6.29688 60.6406 12.9375 67.4219
Q19.5781 74.2188 30.6094 74.2188
Q43.2656 74.2188 49.9219 64.5156
Q56.5938 54.8281 56.5938 36.375
Q56.5938 19.1406 48.4062 8.85938
Q40.2344 -1.42188 26.4219 -1.42188
Q22.7031 -1.42188 18.8906 -0.6875
Q15.0938 0.046875 10.9844 1.51562
M30.6094 32.4219
Q37.25 32.4219 41.125 36.9531
Q45.0156 41.5 45.0156 49.4219
Q45.0156 57.2812 41.125 61.8438
Q37.25 66.4062 30.6094 66.4062
Q23.9688 66.4062 20.0938 61.8438
Q16.2188 57.2812 16.2188 49.4219
Q16.2188 41.5 20.0938 36.9531
Q23.9688 32.4219 30.6094 32.4219" id="BitstreamVeraSans-Roman-39"/>
       <path d="
M12.4062 8.29688
L28.5156 8.29688
L28.5156 63.9219
L10.9844 60.4062
L10.9844 69.3906
L28.4219 72.9062
L38.2812 72.9062
L38.2812 8.29688
L54.3906 8.29688
L54.3906 0
L12.4062 0
z
" id="BitstreamVeraSans-Roman-31"/>
      </defs>
      <g transform="translate(536.677981723 265.49566525)scale(0.1 -0.1)">
       <use xlink:href="#BitstreamVeraSans-Roman-31"/>
       <use x="63.623046875" xlink:href="#BitstreamVeraSans-Roman-65"/>
       <use x="125.146484375" xlink:href="#BitstreamVeraSans-Roman-39"/>
      </g>
     </g>
    </g>
    <g id="xtick_7">
     <g id="line2d_14">
      <defs>
       <path d="
M0 0
L0 -2" id="m47f65f1af8"/>
      </defs>
      <g>
       <use style="stroke:#000000;stroke-linecap:butt;stroke-width:0.5;" x="55.4387037736" xlink:href="#m47f65f1af8" y="254.07379025"/>
      </g>
     </g>
    </g>
    <g id="xtick_8">
     <g id="line2d_15">
      <defs>
       <path d="
M0 0
L0 -2" id="m47f65f1af8"/>
      </defs>
      <g>
       <use style="stroke:#000000;stroke-linecap:butt;stroke-width:0.5;" x="81.2164700473" xlink:href="#m47f65f1af8" y="254.07379025"/>
      </g>
     </g>
    </g>
    <g id="xtick_9">
     <g id="line2d_16">
      <defs>
       <path d="
M0 0
L0 -2" id="m47f65f1af8"/>
      </defs>
      <g>
       <use style="stroke:#000000;stroke-linecap:butt;stroke-width:0.5;" x="106.994236321" xlink:href="#m47f65f1af8" y="254.07379025"/>
      </g>
     </g>
    </g>
    <g id="xtick_10">
     <g id="line2d_17">
      <defs>
       <path d="
M0 0
L0 -2" id="m47f65f1af8"/>
      </defs>
      <g>
       <use style="stroke:#000000;stroke-linecap:butt;stroke-width:0.5;" x="158.549768868" xlink:href="#m47f65f1af8" y="254.07379025"/>
      </g>
     </g>
    </g>
    <g id="xtick_11">
     <g id="line2d_18">
      <defs>
       <path d="
M0 0
L0 -2" id="m47f65f1af8"/>
      </defs>
      <g>
       <use style="stroke:#000000;stroke-linecap:butt;stroke-width:0.5;" x="184.327535142" xlink:href="#m47f65f1af8" y="254.07379025"/>
      </g>
     </g>
    </g>
    <g id="xtick_12">
     <g id="line2d_19">
      <defs>
       <path d="
M0 0
L0 -2" id="m47f65f1af8"/>
      </defs>
      <g>
       <use style="stroke:#000000;stroke-linecap:butt;stroke-width:0.5;" x="210.105301415" xlink:href="#m47f65f1af8" y="254.07379025"/>
      </g>
     </g>
    </g>
    <g id="xtick_13">
     <g id="line2d_20">
      <defs>
       <path d="
M0 0
L0 -2" id="m47f65f1af8"/>
      </defs>
      <g>
       <use style="stroke:#000000;stroke-linecap:butt;stroke-width:0.5;" x="261.660833963" xlink:href="#m47f65f1af8" y="254.07379025"/>
      </g>
     </g>
    </g>
    <g id="xtick_14">
     <g id="line2d_21">
      <defs>
       <path d="
M0 0
L0 -2" id="m47f65f1af8"/>
      </defs>
      <g>
       <use style="stroke:#000000;stroke-linecap:butt;stroke-width:0.5;" x="287.438600236" xlink:href="#m47f65f1af8" y="254.07379025"/>
      </g>
     </g>
    </g>
    <g id="xtick_15">
     <g id="line2d_22">
      <defs>
       <path d="
M0 0
L0 -2" id="m47f65f1af8"/>
      </defs>
      <g>
       <use style="stroke:#000000;stroke-linecap:butt;stroke-width:0.5;" x="313.21636651" xlink:href="#m47f65f1af8" y="254.07379025"/>
      </g>
     </g>
    </g>
    <g id="xtick_16">
     <g id="line2d_23">
      <defs>
       <path d="
M0 0
L0 -2" id="m47f65f1af8"/>
      </defs>
      <g>
       <use style="stroke:#000000;stroke-linecap:butt;stroke-width:0.5;" x="364.771899057" xlink:href="#m47f65f1af8" y="254.07379025"/>
      </g>
     </g>
    </g>
    <g id="xtick_17">
     <g id="line2d_24">
      <defs>
       <path d="
M0 0
L0 -2" id="m47f65f1af8"/>
      </defs>
      <g>
       <use style="stroke:#000000;stroke-linecap:butt;stroke-width:0.5;" x="390.549665331" xlink:href="#m47f65f1af8" y="254.07379025"/>
      </g>
     </g>
    </g>
    <g id="xtick_18">
     <g id="line2d_25">
      <defs>
       <path d="
M0 0
L0 -2" id="m47f65f1af8"/>
      </defs>
      <g>
       <use style="stroke:#000000;stroke-linecap:butt;stroke-width:0.5;" x="416.327431604" xlink:href="#m47f65f1af8" y="254.07379025"/>
      </g>
     </g>
    </g>
    <g id="xtick_19">
     <g id="line2d_26">
      <defs>
       <path d="
M0 0
L0 -2" id="m47f65f1af8"/>
      </defs>
      <g>
       <use style="stroke:#000000;stroke-linecap:butt;stroke-width:0.5;" x="467.882964152" xlink:href="#m47f65f1af8" y="254.07379025"/>
      </g>
     </g>
    </g>
    <g id="xtick_20">
     <g id="line2d_27">
      <defs>
       <path d="
M0 0
L0 -2" id="m47f65f1af8"/>
      </defs>
      <g>
       <use style="stroke:#000000;stroke-linecap:butt;stroke-width:0.5;" x="493.660730425" xlink:href="#m47f65f1af8" y="254.07379025"/>
      </g>
     </g>
    </g>
    <g id="xtick_21">
     <g id="line2d_28">
      <defs>
       <path d="
M0 0
L0 -2" id="m47f65f1af8"/>
      </defs>
      <g>
       <use style="stroke:#000000;stroke-linecap:butt;stroke-width:0.5;" x="519.438496699" xlink:href="#m47f65f1af8" y="254.07379025"/>
      </g>
     </g>
    </g>
   </g>
   <g id="matplotlib.axis_2">
    <g id="ytick_1">
     <g id="line2d_29">
      <path d="
M19.3504 401.705
L555.5 401.705" style="fill:none;stroke:#000000;stroke-dasharray:1.000000,3.000000;stroke-dashoffset:0.0;stroke-linecap:butt;stroke-width:0.5;"/>
     </g>
     <g id="line2d_30">
      <defs>
       <path d="
M0 0
L4 0" id="m1d946a4650"/>
      </defs>
      <g>
       <use style="stroke:#000000;stroke-linecap:butt;stroke-width:0.5;" x="29.6609375" xlink:href="#m1d946a4650" y="401.704698118"/>
      </g>
     </g>
     <g id="text_6">
      <!-- -0.4 -->
      <defs>
       <path d="
M31.7812 66.4062
Q24.1719 66.4062 20.3281 58.9062
Q16.5 51.4219 16.5 36.375
Q16.5 21.3906 20.3281 13.8906
Q24.1719 6.39062 31.7812 6.39062
Q39.4531 6.39062 43.2812 13.8906
Q47.125 21.3906 47.125 36.375
Q47.125 51.4219 43.2812 58.9062
Q39.4531 66.4062 31.7812 66.4062
M31.7812 74.2188
Q44.0469 74.2188 50.5156 64.5156
Q56.9844 54.8281 56.9844 36.375
Q56.9844 17.9688 50.5156 8.26562
Q44.0469 -1.42188 31.7812 -1.42188
Q19.5312 -1.42188 13.0625 8.26562
Q6.59375 17.9688 6.59375 36.375
Q6.59375 54.8281 13.0625 64.5156
Q19.5312 74.2188 31.7812 74.2188" id="BitstreamVeraSans-Roman-30"/>
       <path d="
M10.6875 12.4062
L21 12.4062
L21 0
L10.6875 0
z
" id="BitstreamVeraSans-Roman-2e"/>
       <path d="
M4.89062 31.3906
L31.2031 31.3906
L31.2031 23.3906
L4.89062 23.3906
z
" id="BitstreamVeraSans-Roman-2d"/>
      </defs>
      <g transform="translate(7.2 405.344541868)scale(0.1 -0.1)">
       <use xlink:href="#BitstreamVeraSans-Roman-2d"/>
       <use x="36.083984375" xlink:href="#BitstreamVeraSans-Roman-30"/>
       <use x="99.70703125" xlink:href="#BitstreamVeraSans-Roman-2e"/>
       <use x="131.494140625" xlink:href="#BitstreamVeraSans-Roman-34"/>
      </g>
     </g>
    </g>
    <g id="ytick_2">
     <g id="line2d_31">
      <path d="
M19.3504 327.889
L555.5 327.889" style="fill:none;stroke:#000000;stroke-dasharray:1.000000,3.000000;stroke-dashoffset:0.0;stroke-linecap:butt;stroke-width:0.5;"/>
     </g>
     <g id="line2d_32">
      <defs>
       <path d="
M0 0
L4 0" id="m1d946a4650"/>
      </defs>
      <g>
       <use style="stroke:#000000;stroke-linecap:butt;stroke-width:0.5;" x="29.6609375" xlink:href="#m1d946a4650" y="327.889244184"/>
      </g>
     </g>
     <g id="text_7">
      <!-- -0.2 -->
      <g transform="translate(7.640625 331.529087934)scale(0.1 -0.1)">
       <use xlink:href="#BitstreamVeraSans-Roman-2d"/>
       <use x="36.083984375" xlink:href="#BitstreamVeraSans-Roman-30"/>
       <use x="99.70703125" xlink:href="#BitstreamVeraSans-Roman-2e"/>
       <use x="131.494140625" xlink:href="#BitstreamVeraSans-Roman-32"/>
      </g>
     </g>
    </g>
    <g id="ytick_3">
     <g id="line2d_33">
      <path d="
M19.3504 254.074
L555.5 254.074" style="fill:none;stroke:#000000;stroke-dasharray:1.000000,3.000000;stroke-dashoffset:0.0;stroke-linecap:butt;stroke-width:0.5;"/>
     </g>
     <g id="line2d_34">
      <defs>
       <path d="
M0 0
L4 0" id="m1d946a4650"/>
      </defs>
      <g>
       <use style="stroke:#000000;stroke-linecap:butt;stroke-width:0.5;" x="29.6609375" xlink:href="#m1d946a4650" y="254.07379025"/>
      </g>
     </g>
    </g>
    <g id="ytick_4">
     <g id="line2d_35">
      <path d="
M19.3504 180.258
L555.5 180.258" style="fill:none;stroke:#000000;stroke-dasharray:1.000000,3.000000;stroke-dashoffset:0.0;stroke-linecap:butt;stroke-width:0.5;"/>
     </g>
     <g id="line2d_36">
      <defs>
       <path d="
M0 0
L4 0" id="m1d946a4650"/>
      </defs>
      <g>
       <use style="stroke:#000000;stroke-linecap:butt;stroke-width:0.5;" x="29.6609375" xlink:href="#m1d946a4650" y="180.258336315"/>
      </g>
     </g>
     <g id="text_8">
      <!-- 0.2 -->
      <g transform="translate(11.41875 183.898180065)scale(0.1 -0.1)">
       <use xlink:href="#BitstreamVeraSans-Roman-30"/>
       <use x="63.623046875" xlink:href="#BitstreamVeraSans-Roman-2e"/>
       <use x="95.41015625" xlink:href="#BitstreamVeraSans-Roman-32"/>
      </g>
     </g>
    </g>
    <g id="ytick_5">
     <g id="line2d_37">
      <path d="
M19.3504 106.443
L555.5 106.443" style="fill:none;stroke:#000000;stroke-dasharray:1.000000,3.000000;stroke-dashoffset:0.0;stroke-linecap:butt;stroke-width:0.5;"/>
     </g>
     <g id="line2d_38">
      <defs>
       <path d="
M0 0
L4 0" id="m1d946a4650"/>
      </defs>
      <g>
       <use style="stroke:#000000;stroke-linecap:butt;stroke-width:0.5;" x="29.6609375" xlink:href="#m1d946a4650" y="106.442882381"/>
      </g>
     </g>
     <g id="text_9">
      <!-- 0.4 -->
      <g transform="translate(10.978125 110.082726131)scale(0.1 -0.1)">
       <use xlink:href="#BitstreamVeraSans-Roman-30"/>
       <use x="63.623046875" xlink:href="#BitstreamVeraSans-Roman-2e"/>
       <use x="95.41015625" xlink:href="#BitstreamVeraSans-Roman-34"/>
      </g>
     </g>
    </g>
    <g id="ytick_6">
     <g id="line2d_39">
      <path d="
M19.3504 32.6274
L555.5 32.6274" style="fill:none;stroke:#000000;stroke-dasharray:1.000000,3.000000;stroke-dashoffset:0.0;stroke-linecap:butt;stroke-width:0.5;"/>
     </g>
     <g id="line2d_40">
      <defs>
       <path d="
M0 0
L4 0" id="m1d946a4650"/>
      </defs>
      <g>
       <use style="stroke:#000000;stroke-linecap:butt;stroke-width:0.5;" x="29.6609375" xlink:href="#m1d946a4650" y="32.6274284467"/>
      </g>
     </g>
     <g id="text_10">
      <!-- 0.6 -->
      <g transform="translate(11.046875 36.2672721967)scale(0.1 -0.1)">
       <use xlink:href="#BitstreamVeraSans-Roman-30"/>
       <use x="63.623046875" xlink:href="#BitstreamVeraSans-Roman-2e"/>
       <use x="95.41015625" xlink:href="#BitstreamVeraSans-Roman-36"/>
      </g>
     </g>
    </g>
    <g id="ytick_7">
     <g id="line2d_41">
      <defs>
       <path d="
M0 0
L2 0" id="mbf97d3bfcb"/>
      </defs>
      <g>
       <use style="stroke:#000000;stroke-linecap:butt;stroke-width:0.5;" x="29.6609375" xlink:href="#mbf97d3bfcb" y="383.250834635"/>
      </g>
     </g>
    </g>
    <g id="ytick_8">
     <g id="line2d_42">
      <defs>
       <path d="
M0 0
L2 0" id="mbf97d3bfcb"/>
      </defs>
      <g>
       <use style="stroke:#000000;stroke-linecap:butt;stroke-width:0.5;" x="29.6609375" xlink:href="#mbf97d3bfcb" y="364.796971151"/>
      </g>
     </g>
    </g>
    <g id="ytick_9">
     <g id="line2d_43">
      <defs>
       <path d="
M0 0
L2 0" id="mbf97d3bfcb"/>
      </defs>
      <g>
       <use style="stroke:#000000;stroke-linecap:butt;stroke-width:0.5;" x="29.6609375" xlink:href="#mbf97d3bfcb" y="346.343107668"/>
      </g>
     </g>
    </g>
    <g id="ytick_10">
     <g id="line2d_44">
      <defs>
       <path d="
M0 0
L2 0" id="mbf97d3bfcb"/>
      </defs>
      <g>
       <use style="stroke:#000000;stroke-linecap:butt;stroke-width:0.5;" x="29.6609375" xlink:href="#mbf97d3bfcb" y="327.889244184"/>
      </g>
     </g>
    </g>
    <g id="ytick_11">
     <g id="line2d_45">
      <defs>
       <path d="
M0 0
L2 0" id="mbf97d3bfcb"/>
      </defs>
      <g>
       <use style="stroke:#000000;stroke-linecap:butt;stroke-width:0.5;" x="29.6609375" xlink:href="#mbf97d3bfcb" y="309.4353807"/>
      </g>
     </g>
    </g>
    <g id="ytick_12">
     <g id="line2d_46">
      <defs>
       <path d="
M0 0
L2 0" id="mbf97d3bfcb"/>
      </defs>
      <g>
       <use style="stroke:#000000;stroke-linecap:butt;stroke-width:0.5;" x="29.6609375" xlink:href="#mbf97d3bfcb" y="290.981517217"/>
      </g>
     </g>
    </g>
    <g id="ytick_13">
     <g id="line2d_47">
      <defs>
       <path d="
M0 0
L2 0" id="mbf97d3bfcb"/>
      </defs>
      <g>
       <use style="stroke:#000000;stroke-linecap:butt;stroke-width:0.5;" x="29.6609375" xlink:href="#mbf97d3bfcb" y="272.527653733"/>
      </g>
     </g>
    </g>
    <g id="ytick_14">
     <g id="line2d_48">
      <defs>
       <path d="
M0 0
L2 0" id="mbf97d3bfcb"/>
      </defs>
      <g>
       <use style="stroke:#000000;stroke-linecap:butt;stroke-width:0.5;" x="29.6609375" xlink:href="#mbf97d3bfcb" y="254.07379025"/>
      </g>
     </g>
    </g>
    <g id="ytick_15">
     <g id="line2d_49">
      <defs>
       <path d="
M0 0
L2 0" id="mbf97d3bfcb"/>
      </defs>
      <g>
       <use style="stroke:#000000;stroke-linecap:butt;stroke-width:0.5;" x="29.6609375" xlink:href="#mbf97d3bfcb" y="235.619926766"/>
      </g>
     </g>
    </g>
    <g id="ytick_16">
     <g id="line2d_50">
      <defs>
       <path d="
M0 0
L2 0" id="mbf97d3bfcb"/>
      </defs>
      <g>
       <use style="stroke:#000000;stroke-linecap:butt;stroke-width:0.5;" x="29.6609375" xlink:href="#mbf97d3bfcb" y="217.166063282"/>
      </g>
     </g>
    </g>
    <g id="ytick_17">
     <g id="line2d_51">
      <defs>
       <path d="
M0 0
L2 0" id="mbf97d3bfcb"/>
      </defs>
      <g>
       <use style="stroke:#000000;stroke-linecap:butt;stroke-width:0.5;" x="29.6609375" xlink:href="#mbf97d3bfcb" y="198.712199799"/>
      </g>
     </g>
    </g>
    <g id="ytick_18">
     <g id="line2d_52">
      <defs>
       <path d="
M0 0
L2 0" id="mbf97d3bfcb"/>
      </defs>
      <g>
       <use style="stroke:#000000;stroke-linecap:butt;stroke-width:0.5;" x="29.6609375" xlink:href="#mbf97d3bfcb" y="180.258336315"/>
      </g>
     </g>
    </g>
    <g id="ytick_19">
     <g id="line2d_53">
      <defs>
       <path d="
M0 0
L2 0" id="mbf97d3bfcb"/>
      </defs>
      <g>
       <use style="stroke:#000000;stroke-linecap:butt;stroke-width:0.5;" x="29.6609375" xlink:href="#mbf97d3bfcb" y="161.804472832"/>
      </g>
     </g>
    </g>
    <g id="ytick_20">
     <g id="line2d_54">
      <defs>
       <path d="
M0 0
L2 0" id="mbf97d3bfcb"/>
      </defs>
      <g>
       <use style="stroke:#000000;stroke-linecap:butt;stroke-width:0.5;" x="29.6609375" xlink:href="#mbf97d3bfcb" y="143.350609348"/>
      </g>
     </g>
    </g>
    <g id="ytick_21">
     <g id="line2d_55">
      <defs>
       <path d="
M0 0
L2 0" id="mbf97d3bfcb"/>
      </defs>
      <g>
       <use style="stroke:#000000;stroke-linecap:butt;stroke-width:0.5;" x="29.6609375" xlink:href="#mbf97d3bfcb" y="124.896745865"/>
      </g>
     </g>
    </g>
    <g id="ytick_22">
     <g id="line2d_56">
      <defs>
       <path d="
M0 0
L2 0" id="mbf97d3bfcb"/>
      </defs>
      <g>
       <use style="stroke:#000000;stroke-linecap:butt;stroke-width:0.5;" x="29.6609375" xlink:href="#mbf97d3bfcb" y="106.442882381"/>
      </g>
     </g>
    </g>
    <g id="ytick_23">
     <g id="line2d_57">
      <defs>
       <path d="
M0 0
L2 0" id="mbf97d3bfcb"/>
      </defs>
      <g>
       <use style="stroke:#000000;stroke-linecap:butt;stroke-width:0.5;" x="29.6609375" xlink:href="#mbf97d3bfcb" y="87.9890188974"/>
      </g>
     </g>
    </g>
    <g id="ytick_24">
     <g id="line2d_58">
      <defs>
       <path d="
M0 0
L2 0" id="mbf97d3bfcb"/>
      </defs>
      <g>
       <use style="stroke:#000000;stroke-linecap:butt;stroke-width:0.5;" x="29.6609375" xlink:href="#mbf97d3bfcb" y="69.5351554138"/>
      </g>
     </g>
    </g>
    <g id="ytick_25">
     <g id="line2d_59">
      <defs>
       <path d="
M0 0
L2 0" id="mbf97d3bfcb"/>
      </defs>
      <g>
       <use style="stroke:#000000;stroke-linecap:butt;stroke-width:0.5;" x="29.6609375" xlink:href="#mbf97d3bfcb" y="51.0812919302"/>
      </g>
     </g>
    </g>
    <g id="ytick_26">
     <g id="line2d_60">
      <defs>
       <path d="
M0 0
L2 0" id="mbf97d3bfcb"/>
      </defs>
      <g>
       <use style="stroke:#000000;stroke-linecap:butt;stroke-width:0.5;" x="29.6609375" xlink:href="#mbf97d3bfcb" y="32.6274284467"/>
      </g>
     </g>
    </g>
   </g>
   <g id="patch_3">
    <path d="
M19.3504 254.074
L555.5 254.074" style="fill:none;stroke:#000000;stroke-width:0.8;"/>
   </g>
   <g id="patch_4">
    <path d="
M29.6609 413.28
L29.6609 7.2" style="fill:none;stroke:#000000;stroke-width:0.8;"/>
   </g>
  </g>
 </g>
 <defs>
  <clipPath id="p9594e53bbf">
   <rect height="406.08" width="536.149198828" x="19.3503770152" y="7.2"/>
  </clipPath>
 </defs>
</svg>
