<?xml version="1.0" encoding="utf-8" standalone="no"?>
<!DOCTYPE svg PUBLIC "-//W3C//DTD SVG 1.1//EN"
  "http://www.w3.org/Graphics/SVG/1.1/DTD/svg11.dtd">
<!-- Created with matplotlib (http://matplotlib.sourceforge.net/) -->
<svg height="420pt" version="1.1" viewBox="0 0 562 420" width="562pt" xmlns="http://www.w3.org/2000/svg" xmlns:xlink="http://www.w3.org/1999/xlink">
 <defs>
  <style type="text/css">
*{stroke-linecap:square;stroke-linejoin:round;}
  </style>
 </defs>
 <g id="figure_1">
  <g id="patch_1">
   <path d="
M4.44089e-16 420.48
L562.817 420.48
L562.817 0
L4.44089e-16 0
z
" style="fill:#ffffff;"/>
  </g>
  <g id="axes_1">
   <g id="patch_2">
    <path d="
M25.5167 413.28
L555.617 413.28
L555.617 7.2
L25.5167 7.2
z
" style="fill:#ffffff;"/>
   </g>
   <g id="line2d_1">
    <path clip-path="url(#p7ce5a36fe0)" d="
M35.7109 277.925
L35.7584 277.925
L35.7584 405.471
L35.8149 355.522
L35.8752 355.522
L35.9366 310.902
L36.0005 310.902
L36.0664 286.459
L36.1315 286.459
L36.1983 270.767
L36.2668 270.767
L36.3353 257.33
L36.4047 257.33
L36.4742 247.255
L36.5447 247.255
L36.6162 240.114
L36.6869 240.114
L36.7588 233.993
L36.8308 233.993
L36.9031 227.791
L36.9758 227.791
L37.0498 221.594
L37.1221 221.594
L37.1965 216.619
L37.2714 216.619
L37.3445 212.553
L37.4188 212.553
L37.4938 209.235
L37.5691 209.235
L37.6454 205.586
L37.72 205.586
L37.7977 201.778
L37.873 201.778
L37.9486 198.253
L38.0256 198.253
L38.103 195.532
L38.1784 195.532
L38.2554 193.188
L38.3328 193.188
L38.4092 190.84
L38.4878 190.84
L38.566 188.641
L38.644 188.641
L38.7205 186.677
L38.799 186.677
L38.8764 184.862
L38.956 184.862
L39.0363 183.133
L39.1144 183.133
L39.1937 181.238
L39.2717 181.238
L39.3502 179.378
L39.4298 179.378
L39.5105 177.662
L39.5901 177.662
L39.6692 175.719
L39.7484 175.719
L39.8278 173.657
L39.9073 173.657
L39.9874 171.821
L40.0689 171.821
L40.1472 169.946
L40.2279 169.946
L40.309 168.253
L40.3895 168.253
L40.4701 166.653
L40.5518 166.653
L40.6325 165.176
L40.7147 165.176
L40.7966 163.92
L40.8763 163.92
L40.9572 162.742
L41.0389 162.742
L41.1225 161.489
L41.2043 161.489
L41.2853 160.389
L41.3654 160.389
L41.4477 159.507
L41.529 159.507
L41.6117 158.737
L41.6926 158.737
L41.7724 157.914
L41.8562 157.914
L41.9381 156.94
L42.0229 156.94
L42.1053 156.065
L42.186 156.065
L42.2689 155.208
L42.3522 155.208
L42.4348 154.356
L42.5187 154.356
L42.6018 153.582
L42.6848 153.582
L42.7675 152.767
L42.848 152.767
L42.9344 151.904
L43.0168 151.904
L43.0999 150.991
L43.1817 150.991
L43.2656 150.115
L43.3486 150.115
L43.4305 149.141
L43.5156 149.141
L43.6007 148.237
L43.6842 148.237
L43.7684 147.421
L43.854 147.421
L43.9379 146.603
L44.0207 146.603
L44.1053 145.803
L44.1896 145.803
L44.2721 144.992
L44.3578 144.992
L44.4416 144.13
L44.5268 144.13
L44.6125 143.278
L44.6976 143.278
L44.7813 142.532
L44.8653 142.532
L44.9494 141.806
L45.0332 141.806
L45.1189 141.047
L45.2025 141.047
L45.2864 140.381
L45.371 140.381
L45.4566 139.74
L45.5401 139.74
L45.6251 139.14
L45.7104 139.14
L45.7987 138.556
L45.883 138.556
L45.9665 138.01
L46.0508 138.01
L46.1361 137.453
L46.2223 137.453
L46.3083 136.768
L46.3939 136.768
L46.4794 136.063
L46.5647 136.063
L46.6491 135.44
L46.7341 135.44
L46.8202 134.892
L46.9066 134.892
L46.9927 134.264
L47.0794 134.264
L47.166 133.61
L47.251 133.61
L47.3351 132.961
L47.4233 132.961
L47.5094 132.326
L47.5974 132.326
L47.6838 131.713
L47.7691 131.713
L47.8558 131.154
L47.9416 131.154
L48.0286 130.615
L48.1158 130.615
L48.2024 130.07
L48.2878 130.07
L48.3761 129.502
L48.4621 129.502
L48.5488 128.912
L48.6334 128.912
L48.7221 128.391
L48.8083 128.391
L48.8927 127.913
L48.98 127.913
L49.0673 127.412
L49.1541 127.412
L49.2401 126.959
L49.3278 126.959
L49.4147 126.531
L49.5 126.531
L49.5864 126.169
L49.6762 126.169
L49.7634 125.806
L49.8496 125.806
L49.9387 125.443
L50.0248 125.443
L50.1081 125.048
L50.195 125.048
L50.2826 124.636
L50.3714 124.636
L50.4594 124.252
L50.5465 124.252
L50.6347 123.86
L50.7226 123.86
L50.8111 123.452
L50.8987 123.452
L50.9856 123.063
L51.0719 123.063
L51.1613 122.717
L51.2497 122.717
L51.3395 122.402
L51.4248 122.402
L51.5127 122.045
L51.5998 122.045
L51.687 121.713
L51.7761 121.713
L51.8634 121.344
L51.9507 121.344
L52.0355 120.971
L52.1234 120.971
L52.2098 120.553
L52.2992 120.553
L52.3871 120.114
L52.4749 120.114
L52.5643 119.705
L52.6525 119.705
L52.7407 119.308
L52.8309 119.308
L52.9187 118.897
L53.007 118.897
L53.0939 118.525
L53.1814 118.525
L53.2677 118.166
L53.3578 118.166
L53.4489 117.856
L53.539 117.856
L53.6279 117.55
L53.7189 117.55
L53.8094 117.242
L53.8971 117.242
L53.9866 116.947
L54.0745 116.947
L54.1605 116.661
L54.2478 116.661
L54.3405 116.321
L54.4283 116.321
L54.5152 116.011
L54.6028 116.011
L54.6919 115.723
L54.7792 115.723
L54.8676 115.436
L54.9596 115.436
L55.0487 115.142
L55.1372 115.142
L55.225 114.88
L55.3132 114.88
L55.4033 114.618
L55.4933 114.618
L55.5807 114.362
L55.6709 114.362
L55.7587 114.09
L55.8467 114.09
L55.9391 113.804
L56.029 113.804
L56.1195 113.524
L56.2089 113.524
L56.2959 113.244
L56.3842 113.244
L56.4739 112.932
L56.5627 112.932
L56.6517 112.631
L56.7431 112.631
L56.8339 112.327
L56.9226 112.327
L57.012 112.008
L57.1001 112.008
L57.1891 111.675
L57.2797 111.675
L57.3707 111.335
L57.4592 111.335
L57.5505 110.99
L57.6413 110.99
L57.7301 110.645
L57.8206 110.645
L57.912 110.299
L58.002 110.299
L58.0917 109.994
L58.1836 109.994
L58.2706 109.688
L58.358 109.688
L58.4471 109.362
L58.5365 109.362
L58.6253 109.037
L58.7168 109.037
L58.8077 108.722
L58.8992 108.722
L58.9878 108.43
L59.0777 108.43
L59.1688 108.148
L59.2571 108.148
L59.3482 107.911
L59.4395 107.911
L59.5299 107.677
L59.6178 107.677
L59.7089 107.448
L59.8879 107.343
L59.9798 107.115
L60.0708 107.115
L60.1624 106.894
L60.3438 106.784
L60.4327 106.537
L60.5222 106.537
L60.613 106.274
L60.6993 106.274
L60.7917 105.998
L60.8822 105.998
L60.9716 105.728
L61.0608 105.728
L61.1493 105.47
L61.2414 105.47
L61.3325 105.21
L61.423 105.21
L61.5149 104.966
L61.6053 104.966
L61.6954 104.734
L61.7875 104.734
L61.8775 104.482
L61.9687 104.482
L62.0597 104.241
L62.1517 104.241
L62.2417 104.012
L62.3319 104.012
L62.4232 103.789
L62.6028 103.69
L62.6948 103.486
L62.8773 103.384
L62.9662 103.179
L63.1483 103.082
L63.2405 102.897
L63.4233 102.8
L63.5134 102.604
L63.697 102.505
L63.7866 102.295
L63.9722 102.186
L64.064 101.993
L64.2469 101.902
L64.3387 101.725
L64.5223 101.63
L64.6155 101.416
L64.7076 101.416
L64.7959 101.206
L64.979 101.107
L65.0704 100.896
L65.2565 100.786
L65.3477 100.557
L65.5305 100.449
L65.6232 100.247
L65.8033 100.144
L65.8924 99.9255
L66.0758 99.8147
L66.1686 99.5786
L66.2607 99.5786
L66.3508 99.341
L66.4406 99.341
L66.5364 99.0992
L66.7201 98.9898
L66.8111 98.7666
L66.9026 98.7666
L66.9956 98.546
L67.1772 98.4436
L67.2719 98.2326
L67.4559 98.1287
L67.5479 97.9079
L67.7294 97.8018
L67.8187 97.5852
L67.9108 97.5852
L68.0022 97.3579
L68.1881 97.2489
L68.2832 97.0308
L68.4666 96.9234
L68.5611 96.7088
L68.7454 96.6029
L68.8376 96.3788
L68.929 96.3788
L69.021 96.1555
L69.2047 96.047
L69.2949 95.8215
L69.3869 95.8215
L69.4795 95.5975
L69.6665 95.4908
L69.7586 95.285
L69.9415 95.1816
L70.0332 94.9858
L70.2177 94.8886
L70.3108 94.698
L70.4956 94.6048
L70.5886 94.4199
L70.7701 94.3323
L70.8609 94.1578
L71.0478 94.0754
L71.1384 93.9144
L71.3238 93.8294
L71.4156 93.6486
L71.5988 93.562
L71.6898 93.3839
L71.8763 93.2859
L71.9673 93.1064
L72.1557 93.0142
L72.2481 92.8444
L72.4341 92.7593
L72.5275 92.5884
L72.7136 92.5001
L72.8047 92.333
L72.992 92.2488
L73.0834 92.0863
L73.2701 92.0082
L73.3619 91.8632
L73.55 91.788
L73.6426 91.6345
L73.8284 91.5579
L73.9239 91.3997
L74.1107 91.3203
L74.2021 91.1664
L74.39 91.0898
L74.4805 90.9489
L74.667 90.8799
L74.7593 90.7498
L74.9445 90.6843
L75.0388 90.5448
L75.227 90.4737
L75.3213 90.3268
L75.5074 90.2571
L75.6003 90.1178
L75.785 90.0449
L75.8772 89.9004
L76.0641 89.8285
L76.157 89.6878
L76.3449 89.6172
L76.4365 89.4777
L76.6252 89.412
L76.7197 89.2876
L76.9064 89.2269
L77.0022 89.0941
L77.1884 89.0275
L77.2821 88.8979
L77.4683 88.8315
L77.5611 88.6944
L77.7465 88.624
L77.8426 88.4828
L78.0283 88.4162
L78.1212 88.2765
L78.3081 88.2052
L78.4036 88.069
L78.5911 88.0019
L78.6856 87.8562
L78.8753 87.7825
L78.9669 87.6311
L79.1535 87.5537
L79.2456 87.4065
L79.4311 87.3348
L79.5258 87.1949
L79.7129 87.1338
L79.8069 87.004
L79.9936 86.9385
L80.0866 86.8063
L80.2728 86.7448
L80.3666 86.6317
L80.5531 86.5742
L80.6477 86.453
L80.8369 86.3883
L80.9332 86.2518
L81.1215 86.1824
L81.2123 86.046
L81.4029 85.9765
L81.4965 85.8378
L81.6868 85.7745
L81.781 85.6374
L81.9702 85.5698
L82.0635 85.4459
L82.2543 85.3887
L82.3462 85.2771
L82.5344 85.2197
L82.6291 85.102
L82.8145 85.0474
L82.907 84.9352
L83.0974 84.8763
L83.1905 84.7563
L83.3786 84.6934
L83.4723 84.5695
L83.6623 84.5088
L83.7583 84.3882
L83.9486 84.3269
L84.043 84.2114
L84.2318 84.1509
L84.3262 84.0292
L84.5151 83.9655
L84.6054 83.8315
L84.7955 83.763
L84.8896 83.6319
L85.0777 83.5672
L85.1743 83.4383
L85.3618 83.3757
L85.4568 83.2442
L85.6473 83.178
L85.7417 83.0499
L85.932 82.9901
L86.0268 82.8555
L86.2176 82.7892
L86.313 82.6528
L86.503 82.5869
L86.5989 82.4556
L86.7898 82.3918
L86.8831 82.2674
L87.0717 82.2028
L87.1658 82.072
L87.3553 82.0077
L87.449 81.8828
L87.6403 81.8194
L87.7376 81.705
L87.9276 81.6502
L88.0209 81.5403
L88.306 81.433
L88.4004 81.3243
L88.6858 81.222
L88.7796 81.1185
L89.0622 81.0131
L89.1566 80.9086
L89.4415 80.8069
L89.5349 80.7096
L89.8207 80.6127
L89.9154 80.512
L90.1963 80.4101
L90.2912 80.3112
L90.5773 80.2101
L90.6738 80.1071
L90.9608 80.0045
L91.054 79.8976
L91.3403 79.7932
L91.4344 79.6945
L91.7193 79.6008
L91.8152 79.4979
L92.1006 79.39
L92.1949 79.2823
L92.4834 79.1767
L92.5769 79.0734
L92.8606 78.9715
L92.9581 78.8698
L93.2451 78.776
L93.3413 78.6753
L93.6272 78.577
L93.7242 78.476
L94.0118 78.3819
L94.1059 78.2928
L94.3922 78.2084
L94.4873 78.1184
L94.7706 78.0267
L94.8667 77.9335
L95.1504 77.8395
L95.2483 77.7494
L95.5342 77.6609
L95.63 77.578
L95.9154 77.499
L96.0106 77.4179
L96.2993 77.333
L96.3952 77.2465
L96.6791 77.1579
L96.7771 77.0687
L97.0649 76.979
L97.1613 76.8879
L97.4495 76.7974
L97.5454 76.7048
L97.8324 76.6137
L97.9296 76.5205
L98.216 76.4297
L98.3114 76.3359
L98.5974 76.2415
L98.6939 76.1428
L98.9767 76.047
L99.0722 75.951
L99.361 75.8572
L99.4611 75.7656
L99.7486 75.6743
L99.8451 75.5854
L100.131 75.4977
L100.228 75.4072
L100.517 75.3177
L100.611 75.2273
L100.896 75.1315
L100.991 75.033
L101.279 74.9372
L101.376 74.8361
L101.669 74.732
L101.766 74.6301
L102.055 74.53
L102.152 74.4301
L102.444 74.3296
L102.541 74.2293
L102.832 74.1284
L102.926 74.0268
L103.215 73.93
L103.312 73.8323
L103.599 73.7331
L103.696 73.6372
L103.985 73.5452
L104.083 73.4513
L104.374 73.367
L104.47 73.2854
L104.763 73.1992
L104.859 73.1131
L105.145 73.0297
L105.242 72.952
L105.529 72.8719
L105.626 72.7872
L105.917 72.7023
L106.011 72.6142
L106.3 72.5239
L106.397 72.4332
L106.682 72.3472
L106.779 72.2556
L107.075 72.164
L107.173 72.0755
L107.463 71.9879
L107.558 71.8973
L107.847 71.8077
L107.945 71.7209
L108.238 71.6249
L108.333 71.5297
L108.623 71.4306
L108.719 71.3359
L109.005 71.2448
L109.099 71.1498
L109.392 71.0563
L109.489 70.9665
L109.782 70.8786
L109.879 70.7908
L110.167 70.7057
L110.268 70.6194
L110.557 70.5311
L110.656 70.4462
L110.944 70.3609
L111.038 70.2752
L111.331 70.1839
L111.428 70.0894
L111.722 69.9991
L111.819 69.912
L112.113 69.8266
L112.208 69.7444
L112.499 69.6596
L112.598 69.5753
L112.889 69.4924
L112.987 69.4092
L113.279 69.3253
L113.376 69.2412
L113.665 69.1572
L113.762 69.0715
L114.053 68.989
L114.153 68.9102
L114.448 68.8349
L114.546 68.7622
L114.834 68.6883
L114.931 68.6105
L115.219 68.5298
L115.317 68.4502
L115.608 68.3705
L115.705 68.2887
L115.998 68.2025
L116.097 68.1171
L116.39 68.0282
L116.487 67.9464
L116.775 67.8638
L116.873 67.7778
L117.165 67.695
L117.263 67.6132
L117.559 67.5292
L117.654 67.445
L117.947 67.3595
L118.045 67.2744
L118.338 67.1865
L118.435 67.102
L118.727 67.0167
L118.823 66.9302
L119.121 66.8425
L119.219 66.7564
L119.509 66.6732
L119.609 66.5914
L119.899 66.5099
L119.998 66.4269
L120.292 66.3412
L120.388 66.2548
L120.681 66.1648
L120.778 66.0755
L121.071 65.9844
L121.168 65.8963
L121.457 65.8102
L121.557 65.7264
L121.852 65.646
L121.949 65.5696
L122.238 65.4937
L122.336 65.4141
L122.629 65.3351
L122.725 65.2568
L123.018 65.1807
L123.117 65.1052
L123.416 65.0287
L123.515 64.953
L123.808 64.8793
L123.904 64.8043
L124.194 64.7261
L124.293 64.6458
L124.583 64.5704
L124.682 64.494
L124.97 64.418
L125.07 64.3413
L125.361 64.2669
L125.461 64.1906
L125.757 64.1147
L125.855 64.037
L126.15 63.9618
L126.251 63.8841
L126.542 63.8094
L126.641 63.7301
L126.936 63.6527
L127.036 63.5757
L127.419 63.4662
L127.519 63.3914
L127.919 63.2809
L128.015 63.2088
L128.411 63.103
L128.51 63.0347
L128.896 62.9356
L128.995 62.8685
L129.389 62.7674
L129.489 62.699
L129.882 62.5978
L129.982 62.5279
L130.376 62.4274
L130.473 62.3633
L130.862 62.2682
L130.963 62.2034
L131.354 62.1097
L131.454 62.0487
L131.848 61.9617
L131.945 61.9057
L132.34 61.8208
L132.44 61.7634
L132.832 61.6778
L132.932 61.6203
L133.327 61.5361
L133.425 61.4785
L133.821 61.3939
L133.919 61.339
L134.313 61.2551
L134.41 61.2006
L134.801 61.1176
L134.897 61.0611
L135.297 60.9743
L135.398 60.9204
L135.894 60.8204
L135.992 60.7674
L136.483 60.6592
L136.581 60.6035
L136.974 60.5162
L137.072 60.4573
L137.465 60.3685
L137.566 60.3105
L137.957 60.2251
L138.056 60.1694
L138.454 60.0816
L138.55 60.0238
L138.949 59.9332
L139.049 59.8708
L139.445 59.7747
L139.541 59.7115
L139.943 59.6164
L140.041 59.5536
L140.436 59.466
L140.534 59.4056
L140.93 59.3147
L141.029 59.254
L141.42 59.1657
L141.518 59.1054
L141.92 59.0169
L142.015 58.9618
L142.513 58.8523
L142.614 58.7948
L143.004 58.7111
L143.103 58.6553
L143.501 58.5715
L143.605 58.5138
L144.003 58.4274
L144.1 58.3708
L144.494 58.2851
L144.593 58.2261
L144.991 58.1374
L145.086 58.078
L145.486 57.9855
L145.585 57.9251
L145.979 57.8418
L146.081 57.7845
L146.475 57.7002
L146.573 57.6411
L146.969 57.5499
L147.069 57.4909
L147.464 57.4042
L147.561 57.3481
L147.958 57.2612
L148.054 57.2055
L148.457 57.1214
L148.557 57.0658
L148.958 56.9812
L149.06 56.9255
L149.556 56.8155
L149.657 56.7577
L150.058 56.6684
L150.16 56.6106
L150.653 56.5025
L150.751 56.4509
L151.248 56.3427
L151.348 56.2854
L151.742 56.1985
L151.843 56.1375
L152.241 56.049
L152.341 55.9917
L152.738 55.9063
L152.838 55.8499
L153.332 55.7395
L153.435 55.685
L153.932 55.583
L154.034 55.5322
L154.527 55.4306
L154.626 55.3842
L155.129 55.2893
L155.228 55.2423
L155.725 55.1465
L155.824 55.0982
L156.323 55.0048
L156.423 54.9606
L157.025 54.8502
L157.125 54.8084
L157.723 54.7085
L157.823 54.6705
L158.521 54.5633
L158.622 54.5294
L159.318 54.4308
L159.417 54.3997
L160.212 54.2894
L160.313 54.2548
L161.013 54.1502
L161.114 54.1162
L161.81 54.0119
L161.909 53.9753
L162.612 53.8676
L162.712 53.8317
L163.416 53.7304
L163.515 53.6965
L164.219 53.5963
L164.321 53.5608
L165.026 53.4606
L165.126 53.429
L165.826 53.3328
L165.925 53.3002
L166.629 53.2031
L166.728 53.1716
L167.524 53.0609
L167.626 53.027
L168.326 52.9301
L168.427 52.8977
L169.129 52.7906
L169.23 52.7509
L169.835 52.6501
L169.933 52.609
L170.535 52.5122
L170.635 52.472
L171.233 52.3746
L171.333 52.3365
L171.935 52.2434
L172.039 52.2048
L172.643 52.1104
L172.742 52.073
L173.342 51.9802
L173.442 51.9421
L174.142 51.8328
L174.243 51.7969
L174.954 51.6912
L175.054 51.6551
L175.757 51.5528
L175.859 51.5209
L176.66 51.4149
L176.76 51.3849
L177.567 51.2846
L177.671 51.2521
L178.372 51.152
L178.472 51.117
L179.177 51.0167
L179.278 50.9847
L179.979 50.8837
L180.079 50.8487
L180.688 50.7529
L180.788 50.7152
L181.392 50.6174
L181.492 50.5757
L182.099 50.4754
L182.199 50.4366
L182.807 50.3394
L182.907 50.3003
L183.514 50.2016
L183.615 50.1629
L184.222 50.0634
L184.324 50.0236
L184.933 49.9263
L185.032 49.8873
L185.633 49.7851
L185.739 49.7435
L186.345 49.6453
L186.448 49.6051
L187.053 49.5005
L187.152 49.4594
L187.763 49.3566
L187.863 49.3162
L188.461 49.2136
L188.561 49.1719
L189.162 49.069
L189.265 49.0266
L189.868 48.9209
L189.97 48.8766
L190.472 48.7861
L190.575 48.7397
L191.188 48.6329
L191.287 48.5939
L191.89 48.5003
L191.987 48.4624
L192.597 48.3626
L192.698 48.3223
L193.302 48.2242
L193.404 48.1853
L194.021 48.0894
L194.121 48.0517
L194.733 47.9588
L194.835 47.9212
L195.439 47.827
L195.54 47.7882
L196.154 47.6897
L196.257 47.6484
L196.866 47.5479
L196.966 47.5062
L197.576 47.4036
L197.677 47.3626
L198.283 47.2627
L198.384 47.2226
L198.996 47.1253
L199.097 47.0873
L199.806 46.9774
L199.909 46.9393
L200.517 46.8412
L200.617 46.8022
L201.226 46.7085
L201.326 46.6717
L201.934 46.5785
L202.034 46.5422
L202.645 46.4495
L202.748 46.4106
L203.36 46.3121
L203.461 46.2745
L204.173 46.164
L204.275 46.1252
L204.883 46.027
L204.986 45.9863
L205.592 45.888
L205.692 45.8497
L206.402 45.7422
L206.505 45.7077
L207.222 45.6067
L207.322 45.5734
L208.035 45.4742
L208.132 45.4407
L208.85 45.3369
L208.954 45.3024
L209.67 45.201
L209.773 45.167
L210.493 45.066
L210.594 45.0319
L211.315 44.9269
L211.414 44.8908
L212.125 44.7851
L212.229 44.7497
L212.848 44.6545
L212.95 44.6169
L213.558 44.5193
L213.66 44.4784
L214.272 44.3765
L214.375 44.3353
L214.987 44.2333
L215.093 44.1917
L215.702 44.091
L215.804 44.0516
L216.415 43.9523
L216.517 43.9133
L217.132 43.8134
L217.234 43.7717
L217.846 43.668
L217.946 43.6272
L218.561 43.5223
L218.665 43.4805
L219.276 43.376
L219.376 43.3357
L219.99 43.233
L220.095 43.1929
L220.704 43.0946
L220.808 43.0565
L221.421 42.9637
L221.524 42.9253
L222.138 42.8277
L222.237 42.7882
L222.856 42.6899
L222.96 42.6497
L223.573 42.5505
L223.675 42.5112
L224.292 42.4109
L224.394 42.3711
L225.001 42.272
L225.102 42.2318
L225.723 42.128
L225.826 42.087
L226.436 41.9866
L226.541 41.9465
L227.152 41.8484
L227.257 41.8092
L227.87 41.7156
L227.973 41.6782
L228.692 41.5701
L228.797 41.5336
L229.514 41.4288
L229.619 41.3936
L230.33 41.2883
L230.431 41.2534
L231.144 41.1476
L231.248 41.1118
L231.966 41.0057
L232.065 40.9701
L232.79 40.8602
L232.893 40.8234
L233.605 40.7158
L233.705 40.6803
L234.422 40.5752
L234.527 40.538
L235.244 40.4316
L235.345 40.3964
L236.059 40.2911
L236.159 40.2577
L236.879 40.1566
L236.982 40.124
L237.796 40.017
L237.9 39.9851
L238.619 39.8897
L238.724 39.8577
L239.552 39.7471
L239.653 39.717
L240.475 39.6075
L240.579 39.5755
L241.397 39.472
L241.499 39.4418
L242.324 39.3358
L242.427 39.3054
L243.255 39.201
L243.353 39.1719
L244.175 39.069
L244.28 39.0407
L245.206 38.9321
L245.309 38.9037
L246.136 38.7983
L246.24 38.7685
L247.062 38.6654
L247.167 38.6364
L248 38.5341
L248.102 38.5046
L248.921 38.4049
L249.022 38.3773
L249.962 38.2664
L250.063 38.2395
L250.988 38.1311
L251.088 38.1037
L251.912 38.0031
L252.016 37.9734
L252.842 37.873
L252.945 37.844
L253.77 37.7423
L253.872 37.714
L254.705 37.6133
L254.81 37.5843
L255.636 37.4854
L255.736 37.4576
L256.567 37.3539
L256.668 37.3241
L257.489 37.2222
L257.594 37.194
L258.426 37.0952
L258.529 37.0678
L259.462 36.9572
L259.567 36.9295
L260.493 36.8213
L260.598 36.7922
L261.423 36.6915
L261.524 36.6637
L262.353 36.5627
L262.458 36.5328
L263.282 36.4284
L263.386 36.3996
L264.21 36.3009
L264.317 36.2727
L265.144 36.1755
L265.248 36.1471
L266.075 36.0471
L266.18 36.0202
L267.1 35.919
L267.205 35.8935
L268.129 35.7905
L268.233 35.7657
L269.168 35.663
L269.271 35.6371
L270.201 35.5363
L270.305 35.5106
L271.239 35.41
L271.344 35.3864
L272.383 35.2832
L272.489 35.2614
L273.625 35.1534
L273.728 35.1307
L274.867 35.0197
L274.972 34.9975
L276.116 34.8873
L276.219 34.8661
L277.361 34.7639
L277.465 34.7436
L278.716 34.6334
L278.82 34.6137
L280.065 34.5072
L280.17 34.4878
L281.422 34.3848
L281.529 34.3654
L282.88 34.2564
L282.981 34.239
L284.238 34.1325
L284.342 34.1127
L285.586 34.0096
L285.692 33.9904
L286.937 33.8835
L287.042 33.8641
L288.385 33.754
L288.486 33.7345
L289.737 33.6249
L289.838 33.6049
L291.091 33.4976
L291.193 33.4786
L292.443 33.3773
L292.548 33.358
L293.795 33.2522
L293.899 33.2327
L295.04 33.1285
L295.148 33.1072
L296.298 32.9995
L296.404 32.978
L297.551 32.874
L297.65 32.8541
L298.797 32.7507
L298.903 32.7289
L300.046 32.6241
L300.151 32.6034
L301.296 32.4992
L301.403 32.4785
L302.557 32.3756
L302.658 32.3565
L304.017 32.2484
L304.121 32.2307
L305.375 32.127
L305.477 32.108
L306.73 31.9981
L306.834 31.9782
L307.985 31.8741
L308.088 31.853
L309.246 31.7436
L309.348 31.7225
L310.5 31.6155
L310.606 31.5949
L311.861 31.484
L311.965 31.4646
L313.124 31.3636
L313.227 31.3431
L314.478 31.2349
L314.586 31.2145
L315.847 31.1051
L315.953 31.0861
L317.203 30.9822
L317.306 30.9632
L318.565 30.8598
L318.672 30.8412
L320.024 30.7326
L320.133 30.714
L321.393 30.6113
L321.497 30.592
L322.745 30.4899
L322.854 30.4707
L324.117 30.365
L324.221 30.3466
L325.467 30.2439
L325.574 30.2253
L326.938 30.1171
L327.042 30.0992
L328.401 29.9949
L328.505 29.9779
L329.982 29.8692
L330.086 29.852
L331.458 29.7456
L331.562 29.7284
L332.928 29.6244
L333.031 29.6057
L334.288 29.5033
L334.392 29.4839
L335.54 29.3814
L335.646 29.3605
L336.808 29.2564
L336.912 29.2359
L338.074 29.1328
L338.177 29.1121
L339.336 29.0051
L339.443 28.9844
L340.701 28.8756
L340.804 28.8562
L342.071 28.7462
L342.18 28.7265
L343.435 28.62
L343.541 28.6014
L344.802 28.4979
L344.907 28.4786
L346.164 28.3687
L346.269 28.3481
L347.43 28.2468
L347.54 28.2264
L348.812 28.1163
L348.916 28.0972
L350.183 27.993
L350.289 27.9742
L351.658 27.866
L351.76 27.8489
L353.132 27.7439
L353.237 27.7255
L354.498 27.6239
L354.607 27.6036
L355.873 27.4948
L355.977 27.4758
L357.243 27.372
L357.349 27.354
L358.619 27.2486
L358.722 27.2285
L359.983 27.1205
L360.09 27.1005
L361.348 26.9966
L361.455 26.9779
L362.719 26.8745
L362.827 26.8554
L364.089 26.7518
L364.196 26.733
L365.472 26.6291
L365.579 26.6106
L366.852 26.5054
L366.957 26.4856
L368.229 26.3745
L368.336 26.3542
L369.488 26.2524
L369.592 26.2332
L370.765 26.1297
L370.87 26.1082
L372.03 26.0065
L372.135 25.9872
L373.394 25.8802
L373.504 25.8606
L374.765 25.755
L374.87 25.736
L376.14 25.6307
L376.246 25.6114
L377.518 25.5036
L377.625 25.4844
L378.889 25.3785
L378.996 25.359
L380.26 25.2558
L380.367 25.2374
L381.746 25.1271
L381.851 25.1086
L383.228 24.9993
L383.335 24.981
L384.713 24.8743
L384.817 24.8568
L386.201 24.7487
L386.305 24.7304
L387.686 24.6233
L387.79 24.6062
L389.175 24.5011
L389.279 24.4835
L390.649 24.3764
L390.755 24.3586
L392.133 24.2529
L392.239 24.2355
L393.729 24.1252
L393.833 24.1094
L395.313 24.0039
L395.419 23.9876
L396.914 23.877
L397.019 23.86
L398.397 23.754
L398.504 23.7362
L399.882 23.6299
L399.985 23.6128
L401.369 23.5096
L401.472 23.4929
L402.966 23.3846
L403.072 23.368
L404.546 23.2623
L404.653 23.2459
L406.147 23.1396
L406.251 23.1233
L407.737 23.0172
L407.841 23.0007
L409.337 22.8909
L409.441 22.8746
L410.929 22.7686
L411.037 22.7515
L412.522 22.6452
L412.631 22.6285
L414.02 22.5249
L414.128 22.5079
L415.624 22.3983
L415.728 22.3812
L417.217 22.2748
L417.326 22.2582
L418.922 22.1482
L419.027 22.1331
L420.723 22.0265
L420.832 22.0126
L422.638 21.9078
L422.743 21.8947
L424.559 21.7842
L424.667 21.77
L426.484 21.6618
L426.484 21.6553
L428.404 21.5458
L428.51 21.5329
L430.432 21.4257
L430.539 21.4128
L432.465 21.3062
L432.571 21.2936
L434.487 21.1868
L434.595 21.1738
L436.418 21.0689
L436.526 21.0556
L438.451 20.9505
L438.555 20.9379
L440.479 20.8311
L440.582 20.819
L442.509 20.7119
L442.617 20.6993
L444.546 20.5933
L444.656 20.5804
L446.463 20.4749
L446.572 20.4607
L448.383 20.353
L448.489 20.3408
L450.407 20.2332
L450.512 20.2209
L452.545 20.1101
L452.655 20.098
L454.793 19.9872
L454.897 19.9757
L457.15 19.8658
L457.253 19.8556
L459.394 19.7486
L459.502 19.737
L461.757 19.6281
L461.865 19.6171
L464.104 19.5081
L464.212 19.4968
L466.257 19.3906
L466.362 19.3785
L468.297 19.2699
L468.407 19.2571
L470.453 19.1482
L470.561 19.1358
L472.701 19.0247
L472.807 19.0137
L475.059 18.9042
L475.166 18.8937
L477.418 18.7877
L477.526 18.7772
L479.892 18.6669
L479.998 18.6561
L482.36 18.5468
L482.47 18.537
L484.937 18.4266
L485.048 18.417
L487.413 18.309
L487.517 18.2983
L489.772 18.1878
L489.88 18.1769
L492.138 18.0682
L492.248 18.0572
L494.307 17.9505
L494.413 17.9377
L496.336 17.8307
L496.445 17.8181
L498.382 17.7074
L498.49 17.6945
L500.429 17.5845
L500.534 17.5723
L502.579 17.4628
L502.683 17.4507
L504.624 17.3426
L504.73 17.3295
L506.673 17.2195
L506.782 17.2068
L508.717 17.1009
L508.823 17.0887
L510.879 16.9786
L510.987 16.9662
L512.927 16.861
L513.036 16.8489
L514.977 16.7435
L515.081 16.731
L517.025 16.6219
L517.132 16.6089
L519.069 16.502
L519.173 16.4901
L521.218 16.3801
L521.328 16.3677
L523.376 16.2602
L523.483 16.2482
L525.534 16.1397
L525.641 16.1276
L527.7 16.0194
L527.81 16.0075
L529.855 15.8984
L529.96 15.8861
L532.021 15.7787
L532.128 15.767
L534.165 15.6608
L534.275 15.6488
L536.336 15.5429
L536.441 15.532
L538.594 15.4221
L538.704 15.4101
L540.661 15.3027
L540.769 15.2894
L542.621 15.1847
L542.729 15.1716
L544.563 15.0663
L544.67 15.0535
L545.423 15.0156
L545.423 15.0092" style="fill:none;stroke:#ff0000;stroke-width:0.5;"/>
   </g>
   <g id="matplotlib.axis_1">
    <g id="xtick_1">
     <g id="line2d_2">
      <defs>
       <path d="
M0 0
L0 -4" id="mc31b853641"/>
      </defs>
      <g>
       <use style="stroke:#000000;stroke-linecap:butt;stroke-width:0.5;" x="35.7109375" xlink:href="#mc31b853641" y="277.924535554"/>
      </g>
     </g>
    </g>
    <g id="xtick_2">
     <g id="line2d_3">
      <defs>
       <path d="
M0 0
L0 -4" id="mc31b853641"/>
      </defs>
      <g>
       <use style="stroke:#000000;stroke-linecap:butt;stroke-width:0.5;" x="137.65915765" xlink:href="#mc31b853641" y="277.924535554"/>
      </g>
     </g>
     <g id="text_1">
      <!-- 2e7 -->
      <defs>
       <path d="
M19.1875 8.29688
L53.6094 8.29688
L53.6094 0
L7.32812 0
L7.32812 8.29688
Q12.9375 14.1094 22.625 23.8906
Q32.3281 33.6875 34.8125 36.5312
Q39.5469 41.8438 41.4219 45.5312
Q43.3125 49.2188 43.3125 52.7812
Q43.3125 58.5938 39.2344 62.25
Q35.1562 65.9219 28.6094 65.9219
Q23.9688 65.9219 18.8125 64.3125
Q13.6719 62.7031 7.8125 59.4219
L7.8125 69.3906
Q13.7656 71.7812 18.9375 73
Q24.125 74.2188 28.4219 74.2188
Q39.75 74.2188 46.4844 68.5469
Q53.2188 62.8906 53.2188 53.4219
Q53.2188 48.9219 51.5312 44.8906
Q49.8594 40.875 45.4062 35.4062
Q44.1875 33.9844 37.6406 27.2188
Q31.1094 20.4531 19.1875 8.29688" id="BitstreamVeraSans-Roman-32"/>
       <path d="
M56.2031 29.5938
L56.2031 25.2031
L14.8906 25.2031
Q15.4844 15.9219 20.4844 11.0625
Q25.4844 6.20312 34.4219 6.20312
Q39.5938 6.20312 44.4531 7.46875
Q49.3125 8.73438 54.1094 11.2812
L54.1094 2.78125
Q49.2656 0.734375 44.1875 -0.34375
Q39.1094 -1.42188 33.8906 -1.42188
Q20.7969 -1.42188 13.1562 6.1875
Q5.51562 13.8125 5.51562 26.8125
Q5.51562 40.2344 12.7656 48.1094
Q20.0156 56 32.3281 56
Q43.3594 56 49.7812 48.8906
Q56.2031 41.7969 56.2031 29.5938
M47.2188 32.2344
Q47.125 39.5938 43.0938 43.9844
Q39.0625 48.3906 32.4219 48.3906
Q24.9062 48.3906 20.3906 44.1406
Q15.875 39.8906 15.1875 32.1719
z
" id="BitstreamVeraSans-Roman-65"/>
       <path d="
M8.20312 72.9062
L55.0781 72.9062
L55.0781 68.7031
L28.6094 0
L18.3125 0
L43.2188 64.5938
L8.20312 64.5938
z
" id="BitstreamVeraSans-Roman-37"/>
      </defs>
      <g transform="translate(129.01384515 289.346410554)scale(0.1 -0.1)">
       <use xlink:href="#BitstreamVeraSans-Roman-32"/>
       <use x="63.623046875" xlink:href="#BitstreamVeraSans-Roman-65"/>
       <use x="125.146484375" xlink:href="#BitstreamVeraSans-Roman-37"/>
      </g>
     </g>
    </g>
    <g id="xtick_3">
     <g id="line2d_4">
      <defs>
       <path d="
M0 0
L0 -4" id="mc31b853641"/>
      </defs>
      <g>
       <use style="stroke:#000000;stroke-linecap:butt;stroke-width:0.5;" x="239.607377799" xlink:href="#mc31b853641" y="277.924535554"/>
      </g>
     </g>
     <g id="text_2">
      <!-- 4e7 -->
      <defs>
       <path d="
M37.7969 64.3125
L12.8906 25.3906
L37.7969 25.3906
z

M35.2031 72.9062
L47.6094 72.9062
L47.6094 25.3906
L58.0156 25.3906
L58.0156 17.1875
L47.6094 17.1875
L47.6094 0
L37.7969 0
L37.7969 17.1875
L4.89062 17.1875
L4.89062 26.7031
z
" id="BitstreamVeraSans-Roman-34"/>
      </defs>
      <g transform="translate(230.840190299 289.215160554)scale(0.1 -0.1)">
       <use xlink:href="#BitstreamVeraSans-Roman-34"/>
       <use x="63.623046875" xlink:href="#BitstreamVeraSans-Roman-65"/>
       <use x="125.146484375" xlink:href="#BitstreamVeraSans-Roman-37"/>
      </g>
     </g>
    </g>
    <g id="xtick_4">
     <g id="line2d_5">
      <defs>
       <path d="
M0 0
L0 -4" id="mc31b853641"/>
      </defs>
      <g>
       <use style="stroke:#000000;stroke-linecap:butt;stroke-width:0.5;" x="341.555597949" xlink:href="#mc31b853641" y="277.924535554"/>
      </g>
     </g>
     <g id="text_3">
      <!-- 6e7 -->
      <defs>
       <path d="
M33.0156 40.375
Q26.375 40.375 22.4844 35.8281
Q18.6094 31.2969 18.6094 23.3906
Q18.6094 15.5312 22.4844 10.9531
Q26.375 6.39062 33.0156 6.39062
Q39.6562 6.39062 43.5312 10.9531
Q47.4062 15.5312 47.4062 23.3906
Q47.4062 31.2969 43.5312 35.8281
Q39.6562 40.375 33.0156 40.375
M52.5938 71.2969
L52.5938 62.3125
Q48.875 64.0625 45.0938 64.9844
Q41.3125 65.9219 37.5938 65.9219
Q27.8281 65.9219 22.6719 59.3281
Q17.5312 52.7344 16.7969 39.4062
Q19.6719 43.6562 24.0156 45.9219
Q28.375 48.1875 33.5938 48.1875
Q44.5781 48.1875 50.9531 41.5156
Q57.3281 34.8594 57.3281 23.3906
Q57.3281 12.1562 50.6875 5.35938
Q44.0469 -1.42188 33.0156 -1.42188
Q20.3594 -1.42188 13.6719 8.26562
Q6.98438 17.9688 6.98438 36.375
Q6.98438 53.6562 15.1875 63.9375
Q23.3906 74.2188 37.2031 74.2188
Q40.9219 74.2188 44.7031 73.4844
Q48.4844 72.75 52.5938 71.2969" id="BitstreamVeraSans-Roman-36"/>
      </defs>
      <g transform="translate(332.893097949 289.346410554)scale(0.1 -0.1)">
       <use xlink:href="#BitstreamVeraSans-Roman-36"/>
       <use x="63.623046875" xlink:href="#BitstreamVeraSans-Roman-65"/>
       <use x="125.146484375" xlink:href="#BitstreamVeraSans-Roman-37"/>
      </g>
     </g>
    </g>
    <g id="xtick_5">
     <g id="line2d_6">
      <defs>
       <path d="
M0 0
L0 -4" id="mc31b853641"/>
      </defs>
      <g>
       <use style="stroke:#000000;stroke-linecap:butt;stroke-width:0.5;" x="443.503818099" xlink:href="#mc31b853641" y="277.924535554"/>
      </g>
     </g>
     <g id="text_4">
      <!-- 8e7 -->
      <defs>
       <path d="
M31.7812 34.625
Q24.75 34.625 20.7188 30.8594
Q16.7031 27.0938 16.7031 20.5156
Q16.7031 13.9219 20.7188 10.1562
Q24.75 6.39062 31.7812 6.39062
Q38.8125 6.39062 42.8594 10.1719
Q46.9219 13.9688 46.9219 20.5156
Q46.9219 27.0938 42.8906 30.8594
Q38.875 34.625 31.7812 34.625
M21.9219 38.8125
Q15.5781 40.375 12.0312 44.7188
Q8.5 49.0781 8.5 55.3281
Q8.5 64.0625 14.7188 69.1406
Q20.9531 74.2188 31.7812 74.2188
Q42.6719 74.2188 48.875 69.1406
Q55.0781 64.0625 55.0781 55.3281
Q55.0781 49.0781 51.5312 44.7188
Q48 40.375 41.7031 38.8125
Q48.8281 37.1562 52.7969 32.3125
Q56.7812 27.4844 56.7812 20.5156
Q56.7812 9.90625 50.3125 4.23438
Q43.8438 -1.42188 31.7812 -1.42188
Q19.7344 -1.42188 13.25 4.23438
Q6.78125 9.90625 6.78125 20.5156
Q6.78125 27.4844 10.7812 32.3125
Q14.7969 37.1562 21.9219 38.8125
M18.3125 54.3906
Q18.3125 48.7344 21.8438 45.5625
Q25.3906 42.3906 31.7812 42.3906
Q38.1406 42.3906 41.7188 45.5625
Q45.3125 48.7344 45.3125 54.3906
Q45.3125 60.0625 41.7188 63.2344
Q38.1406 66.4062 31.7812 66.4062
Q25.3906 66.4062 21.8438 63.2344
Q18.3125 60.0625 18.3125 54.3906" id="BitstreamVeraSans-Roman-38"/>
      </defs>
      <g transform="translate(434.831161849 289.346410554)scale(0.1 -0.1)">
       <use xlink:href="#BitstreamVeraSans-Roman-38"/>
       <use x="63.623046875" xlink:href="#BitstreamVeraSans-Roman-65"/>
       <use x="125.146484375" xlink:href="#BitstreamVeraSans-Roman-37"/>
      </g>
     </g>
    </g>
    <g id="xtick_6">
     <g id="line2d_7">
      <defs>
       <path d="
M0 0
L0 -4" id="mc31b853641"/>
      </defs>
      <g>
       <use style="stroke:#000000;stroke-linecap:butt;stroke-width:0.5;" x="545.452038249" xlink:href="#mc31b853641" y="277.924535554"/>
      </g>
     </g>
     <g id="text_5">
      <!-- 1e8 -->
      <defs>
       <path d="
M12.4062 8.29688
L28.5156 8.29688
L28.5156 63.9219
L10.9844 60.4062
L10.9844 69.3906
L28.4219 72.9062
L38.2812 72.9062
L38.2812 8.29688
L54.3906 8.29688
L54.3906 0
L12.4062 0
z
" id="BitstreamVeraSans-Roman-31"/>
      </defs>
      <g transform="translate(536.904381999 289.346410554)scale(0.1 -0.1)">
       <use xlink:href="#BitstreamVeraSans-Roman-31"/>
       <use x="63.623046875" xlink:href="#BitstreamVeraSans-Roman-65"/>
       <use x="125.146484375" xlink:href="#BitstreamVeraSans-Roman-38"/>
      </g>
     </g>
    </g>
    <g id="xtick_7">
     <g id="line2d_8">
      <defs>
       <path d="
M0 0
L0 -2" id="m98313f8db5"/>
      </defs>
      <g>
       <use style="stroke:#000000;stroke-linecap:butt;stroke-width:0.5;" x="61.1979925374" xlink:href="#m98313f8db5" y="277.924535554"/>
      </g>
     </g>
    </g>
    <g id="xtick_8">
     <g id="line2d_9">
      <defs>
       <path d="
M0 0
L0 -2" id="m98313f8db5"/>
      </defs>
      <g>
       <use style="stroke:#000000;stroke-linecap:butt;stroke-width:0.5;" x="86.6850475749" xlink:href="#m98313f8db5" y="277.924535554"/>
      </g>
     </g>
    </g>
    <g id="xtick_9">
     <g id="line2d_10">
      <defs>
       <path d="
M0 0
L0 -2" id="m98313f8db5"/>
      </defs>
      <g>
       <use style="stroke:#000000;stroke-linecap:butt;stroke-width:0.5;" x="112.172102612" xlink:href="#m98313f8db5" y="277.924535554"/>
      </g>
     </g>
    </g>
    <g id="xtick_10">
     <g id="line2d_11">
      <defs>
       <path d="
M0 0
L0 -2" id="m98313f8db5"/>
      </defs>
      <g>
       <use style="stroke:#000000;stroke-linecap:butt;stroke-width:0.5;" x="163.146212687" xlink:href="#m98313f8db5" y="277.924535554"/>
      </g>
     </g>
    </g>
    <g id="xtick_11">
     <g id="line2d_12">
      <defs>
       <path d="
M0 0
L0 -2" id="m98313f8db5"/>
      </defs>
      <g>
       <use style="stroke:#000000;stroke-linecap:butt;stroke-width:0.5;" x="188.633267725" xlink:href="#m98313f8db5" y="277.924535554"/>
      </g>
     </g>
    </g>
    <g id="xtick_12">
     <g id="line2d_13">
      <defs>
       <path d="
M0 0
L0 -2" id="m98313f8db5"/>
      </defs>
      <g>
       <use style="stroke:#000000;stroke-linecap:butt;stroke-width:0.5;" x="214.120322762" xlink:href="#m98313f8db5" y="277.924535554"/>
      </g>
     </g>
    </g>
    <g id="xtick_13">
     <g id="line2d_14">
      <defs>
       <path d="
M0 0
L0 -2" id="m98313f8db5"/>
      </defs>
      <g>
       <use style="stroke:#000000;stroke-linecap:butt;stroke-width:0.5;" x="265.094432837" xlink:href="#m98313f8db5" y="277.924535554"/>
      </g>
     </g>
    </g>
    <g id="xtick_14">
     <g id="line2d_15">
      <defs>
       <path d="
M0 0
L0 -2" id="m98313f8db5"/>
      </defs>
      <g>
       <use style="stroke:#000000;stroke-linecap:butt;stroke-width:0.5;" x="290.581487874" xlink:href="#m98313f8db5" y="277.924535554"/>
      </g>
     </g>
    </g>
    <g id="xtick_15">
     <g id="line2d_16">
      <defs>
       <path d="
M0 0
L0 -2" id="m98313f8db5"/>
      </defs>
      <g>
       <use style="stroke:#000000;stroke-linecap:butt;stroke-width:0.5;" x="316.068542912" xlink:href="#m98313f8db5" y="277.924535554"/>
      </g>
     </g>
    </g>
    <g id="xtick_16">
     <g id="line2d_17">
      <defs>
       <path d="
M0 0
L0 -2" id="m98313f8db5"/>
      </defs>
      <g>
       <use style="stroke:#000000;stroke-linecap:butt;stroke-width:0.5;" x="367.042652987" xlink:href="#m98313f8db5" y="277.924535554"/>
      </g>
     </g>
    </g>
    <g id="xtick_17">
     <g id="line2d_18">
      <defs>
       <path d="
M0 0
L0 -2" id="m98313f8db5"/>
      </defs>
      <g>
       <use style="stroke:#000000;stroke-linecap:butt;stroke-width:0.5;" x="392.529708024" xlink:href="#m98313f8db5" y="277.924535554"/>
      </g>
     </g>
    </g>
    <g id="xtick_18">
     <g id="line2d_19">
      <defs>
       <path d="
M0 0
L0 -2" id="m98313f8db5"/>
      </defs>
      <g>
       <use style="stroke:#000000;stroke-linecap:butt;stroke-width:0.5;" x="418.016763061" xlink:href="#m98313f8db5" y="277.924535554"/>
      </g>
     </g>
    </g>
    <g id="xtick_19">
     <g id="line2d_20">
      <defs>
       <path d="
M0 0
L0 -2" id="m98313f8db5"/>
      </defs>
      <g>
       <use style="stroke:#000000;stroke-linecap:butt;stroke-width:0.5;" x="468.990873136" xlink:href="#m98313f8db5" y="277.924535554"/>
      </g>
     </g>
    </g>
    <g id="xtick_20">
     <g id="line2d_21">
      <defs>
       <path d="
M0 0
L0 -2" id="m98313f8db5"/>
      </defs>
      <g>
       <use style="stroke:#000000;stroke-linecap:butt;stroke-width:0.5;" x="494.477928174" xlink:href="#m98313f8db5" y="277.924535554"/>
      </g>
     </g>
    </g>
    <g id="xtick_21">
     <g id="line2d_22">
      <defs>
       <path d="
M0 0
L0 -2" id="m98313f8db5"/>
      </defs>
      <g>
       <use style="stroke:#000000;stroke-linecap:butt;stroke-width:0.5;" x="519.964983211" xlink:href="#m98313f8db5" y="277.924535554"/>
      </g>
     </g>
    </g>
   </g>
   <g id="matplotlib.axis_2">
    <g id="ytick_1">
     <g id="line2d_23">
      <defs>
       <path d="
M0 0
L4 0" id="ma6dc508fba"/>
      </defs>
      <g>
       <use style="stroke:#000000;stroke-linecap:butt;stroke-width:0.5;" x="35.7109375" xlink:href="#ma6dc508fba" y="380.815472301"/>
      </g>
     </g>
     <g id="text_6">
      <!-- -0.05 -->
      <defs>
       <path d="
M31.7812 66.4062
Q24.1719 66.4062 20.3281 58.9062
Q16.5 51.4219 16.5 36.375
Q16.5 21.3906 20.3281 13.8906
Q24.1719 6.39062 31.7812 6.39062
Q39.4531 6.39062 43.2812 13.8906
Q47.125 21.3906 47.125 36.375
Q47.125 51.4219 43.2812 58.9062
Q39.4531 66.4062 31.7812 66.4062
M31.7812 74.2188
Q44.0469 74.2188 50.5156 64.5156
Q56.9844 54.8281 56.9844 36.375
Q56.9844 17.9688 50.5156 8.26562
Q44.0469 -1.42188 31.7812 -1.42188
Q19.5312 -1.42188 13.0625 8.26562
Q6.59375 17.9688 6.59375 36.375
Q6.59375 54.8281 13.0625 64.5156
Q19.5312 74.2188 31.7812 74.2188" id="BitstreamVeraSans-Roman-30"/>
       <path d="
M10.6875 12.4062
L21 12.4062
L21 0
L10.6875 0
z
" id="BitstreamVeraSans-Roman-2e"/>
       <path d="
M4.89062 31.3906
L31.2031 31.3906
L31.2031 23.3906
L4.89062 23.3906
z
" id="BitstreamVeraSans-Roman-2d"/>
       <path d="
M10.7969 72.9062
L49.5156 72.9062
L49.5156 64.5938
L19.8281 64.5938
L19.8281 46.7344
Q21.9688 47.4688 24.1094 47.8281
Q26.2656 48.1875 28.4219 48.1875
Q40.625 48.1875 47.75 41.5
Q54.8906 34.8125 54.8906 23.3906
Q54.8906 11.625 47.5625 5.09375
Q40.2344 -1.42188 26.9062 -1.42188
Q22.3125 -1.42188 17.5469 -0.640625
Q12.7969 0.140625 7.71875 1.70312
L7.71875 11.625
Q12.1094 9.23438 16.7969 8.0625
Q21.4844 6.89062 26.7031 6.89062
Q35.1562 6.89062 40.0781 11.3281
Q45.0156 15.7656 45.0156 23.3906
Q45.0156 31 40.0781 35.4375
Q35.1562 39.8906 26.7031 39.8906
Q22.75 39.8906 18.8125 39.0156
Q14.8906 38.1406 10.7969 36.2812
z
" id="BitstreamVeraSans-Roman-35"/>
      </defs>
      <g transform="translate(7.2 384.455316051)scale(0.1 -0.1)">
       <use xlink:href="#BitstreamVeraSans-Roman-2d"/>
       <use x="36.083984375" xlink:href="#BitstreamVeraSans-Roman-30"/>
       <use x="99.70703125" xlink:href="#BitstreamVeraSans-Roman-2e"/>
       <use x="131.494140625" xlink:href="#BitstreamVeraSans-Roman-30"/>
       <use x="195.1171875" xlink:href="#BitstreamVeraSans-Roman-35"/>
      </g>
     </g>
    </g>
    <g id="ytick_2">
     <g id="line2d_24">
      <defs>
       <path d="
M0 0
L4 0" id="ma6dc508fba"/>
      </defs>
      <g>
       <use style="stroke:#000000;stroke-linecap:butt;stroke-width:0.5;" x="35.7109375" xlink:href="#ma6dc508fba" y="277.924535554"/>
      </g>
     </g>
    </g>
    <g id="ytick_3">
     <g id="line2d_25">
      <defs>
       <path d="
M0 0
L4 0" id="ma6dc508fba"/>
      </defs>
      <g>
       <use style="stroke:#000000;stroke-linecap:butt;stroke-width:0.5;" x="35.7109375" xlink:href="#ma6dc508fba" y="175.033598807"/>
      </g>
     </g>
     <g id="text_7">
      <!-- 0.05 -->
      <g transform="translate(10.978125 178.673442557)scale(0.1 -0.1)">
       <use xlink:href="#BitstreamVeraSans-Roman-30"/>
       <use x="63.623046875" xlink:href="#BitstreamVeraSans-Roman-2e"/>
       <use x="95.41015625" xlink:href="#BitstreamVeraSans-Roman-30"/>
       <use x="159.033203125" xlink:href="#BitstreamVeraSans-Roman-35"/>
      </g>
     </g>
    </g>
    <g id="ytick_4">
     <g id="line2d_26">
      <defs>
       <path d="
M0 0
L4 0" id="ma6dc508fba"/>
      </defs>
      <g>
       <use style="stroke:#000000;stroke-linecap:butt;stroke-width:0.5;" x="35.7109375" xlink:href="#ma6dc508fba" y="72.1426620602"/>
      </g>
     </g>
     <g id="text_8">
      <!-- 0.1 -->
      <g transform="translate(17.390625 75.7825058102)scale(0.1 -0.1)">
       <use xlink:href="#BitstreamVeraSans-Roman-30"/>
       <use x="63.623046875" xlink:href="#BitstreamVeraSans-Roman-2e"/>
       <use x="95.41015625" xlink:href="#BitstreamVeraSans-Roman-31"/>
      </g>
     </g>
    </g>
    <g id="ytick_5">
     <g id="line2d_27">
      <defs>
       <path d="
M0 0
L2 0" id="m40e1d815e2"/>
      </defs>
      <g>
       <use style="stroke:#000000;stroke-linecap:butt;stroke-width:0.5;" x="35.7109375" xlink:href="#m40e1d815e2" y="401.393659651"/>
      </g>
     </g>
    </g>
    <g id="ytick_6">
     <g id="line2d_28">
      <defs>
       <path d="
M0 0
L2 0" id="m40e1d815e2"/>
      </defs>
      <g>
       <use style="stroke:#000000;stroke-linecap:butt;stroke-width:0.5;" x="35.7109375" xlink:href="#m40e1d815e2" y="360.237284952"/>
      </g>
     </g>
    </g>
    <g id="ytick_7">
     <g id="line2d_29">
      <defs>
       <path d="
M0 0
L2 0" id="m40e1d815e2"/>
      </defs>
      <g>
       <use style="stroke:#000000;stroke-linecap:butt;stroke-width:0.5;" x="35.7109375" xlink:href="#m40e1d815e2" y="339.659097602"/>
      </g>
     </g>
    </g>
    <g id="ytick_8">
     <g id="line2d_30">
      <defs>
       <path d="
M0 0
L2 0" id="m40e1d815e2"/>
      </defs>
      <g>
       <use style="stroke:#000000;stroke-linecap:butt;stroke-width:0.5;" x="35.7109375" xlink:href="#m40e1d815e2" y="319.080910253"/>
      </g>
     </g>
    </g>
    <g id="ytick_9">
     <g id="line2d_31">
      <defs>
       <path d="
M0 0
L2 0" id="m40e1d815e2"/>
      </defs>
      <g>
       <use style="stroke:#000000;stroke-linecap:butt;stroke-width:0.5;" x="35.7109375" xlink:href="#m40e1d815e2" y="298.502722904"/>
      </g>
     </g>
    </g>
    <g id="ytick_10">
     <g id="line2d_32">
      <defs>
       <path d="
M0 0
L2 0" id="m40e1d815e2"/>
      </defs>
      <g>
       <use style="stroke:#000000;stroke-linecap:butt;stroke-width:0.5;" x="35.7109375" xlink:href="#m40e1d815e2" y="257.346348205"/>
      </g>
     </g>
    </g>
    <g id="ytick_11">
     <g id="line2d_33">
      <defs>
       <path d="
M0 0
L2 0" id="m40e1d815e2"/>
      </defs>
      <g>
       <use style="stroke:#000000;stroke-linecap:butt;stroke-width:0.5;" x="35.7109375" xlink:href="#m40e1d815e2" y="236.768160855"/>
      </g>
     </g>
    </g>
    <g id="ytick_12">
     <g id="line2d_34">
      <defs>
       <path d="
M0 0
L2 0" id="m40e1d815e2"/>
      </defs>
      <g>
       <use style="stroke:#000000;stroke-linecap:butt;stroke-width:0.5;" x="35.7109375" xlink:href="#m40e1d815e2" y="216.189973506"/>
      </g>
     </g>
    </g>
    <g id="ytick_13">
     <g id="line2d_35">
      <defs>
       <path d="
M0 0
L2 0" id="m40e1d815e2"/>
      </defs>
      <g>
       <use style="stroke:#000000;stroke-linecap:butt;stroke-width:0.5;" x="35.7109375" xlink:href="#m40e1d815e2" y="195.611786157"/>
      </g>
     </g>
    </g>
    <g id="ytick_14">
     <g id="line2d_36">
      <defs>
       <path d="
M0 0
L2 0" id="m40e1d815e2"/>
      </defs>
      <g>
       <use style="stroke:#000000;stroke-linecap:butt;stroke-width:0.5;" x="35.7109375" xlink:href="#m40e1d815e2" y="154.455411458"/>
      </g>
     </g>
    </g>
    <g id="ytick_15">
     <g id="line2d_37">
      <defs>
       <path d="
M0 0
L2 0" id="m40e1d815e2"/>
      </defs>
      <g>
       <use style="stroke:#000000;stroke-linecap:butt;stroke-width:0.5;" x="35.7109375" xlink:href="#m40e1d815e2" y="133.877224108"/>
      </g>
     </g>
    </g>
    <g id="ytick_16">
     <g id="line2d_38">
      <defs>
       <path d="
M0 0
L2 0" id="m40e1d815e2"/>
      </defs>
      <g>
       <use style="stroke:#000000;stroke-linecap:butt;stroke-width:0.5;" x="35.7109375" xlink:href="#m40e1d815e2" y="113.299036759"/>
      </g>
     </g>
    </g>
    <g id="ytick_17">
     <g id="line2d_39">
      <defs>
       <path d="
M0 0
L2 0" id="m40e1d815e2"/>
      </defs>
      <g>
       <use style="stroke:#000000;stroke-linecap:butt;stroke-width:0.5;" x="35.7109375" xlink:href="#m40e1d815e2" y="92.7208494096"/>
      </g>
     </g>
    </g>
    <g id="ytick_18">
     <g id="line2d_40">
      <defs>
       <path d="
M0 0
L2 0" id="m40e1d815e2"/>
      </defs>
      <g>
       <use style="stroke:#000000;stroke-linecap:butt;stroke-width:0.5;" x="35.7109375" xlink:href="#m40e1d815e2" y="51.5644747108"/>
      </g>
     </g>
    </g>
    <g id="ytick_19">
     <g id="line2d_41">
      <defs>
       <path d="
M0 0
L2 0" id="m40e1d815e2"/>
      </defs>
      <g>
       <use style="stroke:#000000;stroke-linecap:butt;stroke-width:0.5;" x="35.7109375" xlink:href="#m40e1d815e2" y="30.9862873614"/>
      </g>
     </g>
    </g>
   </g>
   <g id="patch_3">
    <path d="
M25.5167 277.925
L555.617 277.925" style="fill:none;stroke:#000000;stroke-width:0.8;"/>
   </g>
   <g id="patch_4">
    <path d="
M35.7109 413.28
L35.7109 7.2" style="fill:none;stroke:#000000;stroke-width:0.8;"/>
   </g>
  </g>
 </g>
 <defs>
  <clipPath id="p7ce5a36fe0">
   <rect height="406.08" width="530.100617448" x="25.5167050516" y="7.2"/>
  </clipPath>
 </defs>
</svg>
