<?xml version="1.0" encoding="utf-8" standalone="no"?>
<!DOCTYPE svg PUBLIC "-//W3C//DTD SVG 1.1//EN"
  "http://www.w3.org/Graphics/SVG/1.1/DTD/svg11.dtd">
<!-- Created with matplotlib (http://matplotlib.sourceforge.net/) -->
<svg height="419pt" version="1.1" viewBox="0 0 562 419" width="562pt" xmlns="http://www.w3.org/2000/svg" xmlns:xlink="http://www.w3.org/1999/xlink">
 <defs>
  <style type="text/css">
*{stroke-linecap:square;stroke-linejoin:round;}
  </style>
 </defs>
 <g id="figure_1">
  <g id="patch_1">
   <path d="
M-2.22045e-16 419.769
L562.705 419.769
L562.705 0
L-2.22045e-16 0
z
" style="fill:#ffffff;"/>
  </g>
  <g id="axes_1">
   <g id="patch_2">
    <path d="
M21.9853 408.726
L555.505 408.726
L555.505 7.2
L21.9853 7.2
z
" style="fill:#ffffff;"/>
   </g>
   <g id="line2d_1">
    <path clip-path="url(#pe72b1a34b7)" d="
M32.2453 401.004
L32.3001 401.004
L32.3627 341.774
L32.4284 341.774
L32.4961 299.739
L32.5651 299.739
L32.6355 278.901
L32.7063 278.901
L32.7784 261.471
L32.8509 261.471
L32.9242 251.726
L32.998 251.726
L33.0726 242.535
L33.1474 242.535
L33.2226 234.36
L33.2981 234.36
L33.3743 227.887
L33.4509 227.887
L33.5277 221.541
L33.6045 221.541
L33.682 216.832
L33.7595 216.832
L33.8374 212.808
L33.9151 212.808
L33.9935 208.635
L34.0729 208.635
L34.1513 205.307
L34.2302 205.307
L34.3097 202.375
L34.3891 202.375
L34.469 198.917
L34.5483 198.917
L34.6287 195.723
L34.7089 195.723
L34.7887 193.135
L34.8693 193.135
L34.9498 190.601
L35.0308 190.601
L35.112 188.492
L35.1934 188.492
L35.2748 186.267
L35.3562 186.267
L35.4379 183.88
L35.5194 183.88
L35.6015 181.549
L35.6835 181.549
L35.7652 179.394
L35.847 179.394
L35.9293 177.531
L36.0118 177.531
L36.0946 175.825
L36.1772 175.825
L36.2601 174.311
L36.3427 174.311
L36.4263 172.864
L36.5091 172.864
L36.5926 171.372
L36.6753 171.372
L36.7582 169.966
L36.8421 169.966
L36.9261 168.559
L37.0093 168.559
L37.0933 167.302
L37.1772 167.302
L37.2612 165.94
L37.3453 165.94
L37.4298 164.553
L37.5139 164.553
L37.5982 163.37
L37.6824 163.37
L37.7665 162.296
L37.851 162.296
L37.9355 161.197
L38.02 161.197
L38.1053 160.135
L38.1898 160.135
L38.2746 159.183
L38.3595 159.183
L38.4446 158.26
L38.5299 158.26
L38.6144 157.26
L38.7002 157.26
L38.785 156.291
L38.8705 156.291
L38.9566 155.226
L39.0422 155.226
L39.1279 154.188
L39.2141 154.188
L39.2994 153.301
L39.3846 153.301
L39.471 152.35
L39.557 152.35
L39.6424 151.353
L39.7285 151.353
L39.8148 150.425
L39.9011 150.425
L39.9875 149.497
L40.0738 149.497
L40.1607 148.62
L40.2464 148.62
L40.333 147.771
L40.4192 147.771
L40.506 146.874
L40.5924 146.874
L40.6794 145.964
L40.7662 145.964
L40.8529 145.04
L40.9395 145.04
L41.0259 144.197
L41.1135 144.197
L41.1997 143.383
L41.2863 143.383
L41.3736 142.573
L41.4605 142.573
L41.5482 141.775
L41.6352 141.775
L41.7228 141.054
L41.81 141.054
L41.8975 140.374
L41.9849 140.374
L42.0725 139.769
L42.16 139.769
L42.2475 139.171
L42.3356 139.171
L42.4229 138.597
L42.5103 138.597
L42.5978 137.979
L42.6862 137.979
L42.7741 137.318
L42.8618 137.318
L42.9497 136.688
L43.0376 136.688
L43.126 136.089
L43.2139 136.089
L43.302 135.46
L43.3899 135.46
L43.4778 134.843
L43.5654 134.843
L43.6549 134.242
L43.7434 134.242
L43.8315 133.65
L43.9197 133.65
L44.008 133.036
L44.0964 133.036
L44.185 132.469
L44.2735 132.469
L44.3621 131.963
L44.4509 131.963
L44.5397 131.516
L44.6284 131.516
L44.7163 131.161
L44.8052 131.161
L44.8942 130.799
L44.9827 130.799
L45.0717 130.423
L45.1608 130.423
L45.2503 130.064
L45.3396 130.064
L45.4286 129.722
L45.517 129.722
L45.606 129.379
L45.6953 129.379
L45.7847 128.966
L45.873 128.966
L45.9625 128.557
L46.0517 128.557
L46.1408 128.158
L46.2302 128.158
L46.3196 127.783
L46.4084 127.783
L46.4982 127.463
L46.5878 127.463
L46.6772 127.11
L46.7663 127.11
L46.8563 126.729
L46.9454 126.729
L47.0356 126.308
L47.1252 126.308
L47.2153 125.886
L47.3046 125.886
L47.3947 125.462
L47.4843 125.462
L47.5741 125.026
L47.6631 125.026
L47.7523 124.58
L47.8419 124.58
L47.9324 124.126
L48.0217 124.126
L48.1114 123.709
L48.2026 123.709
L48.2926 123.307
L48.3828 123.307
L48.473 122.882
L48.5633 122.882
L48.6532 122.453
L48.7431 122.453
L48.8336 122.048
L48.9236 122.048
L49.0137 121.652
L49.1042 121.652
L49.1943 121.247
L49.2847 121.247
L49.3743 120.832
L49.4649 120.832
L49.5557 120.469
L49.6456 120.469
L49.737 120.107
L49.8283 120.107
L49.9196 119.741
L50.0098 119.741
L50.1009 119.351
L50.1911 119.351
L50.2823 118.918
L50.3728 118.918
L50.4635 118.492
L50.5541 118.492
L50.6449 118.052
L50.7356 118.052
L50.8268 117.615
L50.917 117.615
L51.0081 117.207
L51.0995 117.207
L51.1909 116.784
L51.281 116.784
L51.372 116.354
L51.4633 116.354
L51.5538 115.934
L51.6451 115.934
L51.7364 115.55
L51.827 115.55
L51.9173 115.176
L52.0082 115.176
L52.1001 114.791
L52.1902 114.791
L52.2816 114.412
L52.3725 114.412
L52.4631 114.042
L52.5542 114.042
L52.6451 113.705
L52.7369 113.705
L52.8283 113.372
L52.9196 113.372
L53.0107 113.05
L53.1028 113.05
L53.1932 112.731
L53.2853 112.731
L53.3764 112.431
L53.4684 112.431
L53.5599 112.116
L53.6521 112.116
L53.7432 111.812
L53.8358 111.812
L53.9268 111.521
L54.0184 111.521
L54.11 111.213
L54.2016 111.213
L54.2941 110.906
L54.3859 110.906
L54.4777 110.598
L54.5689 110.598
L54.6611 110.294
L54.7531 110.294
L54.8446 110.002
L54.9369 110.002
L55.0288 109.697
L55.1204 109.697
L55.2115 109.387
L55.304 109.387
L55.3955 109.085
L55.4873 109.085
L55.5784 108.81
L55.6702 108.81
L55.7627 108.536
L55.8542 108.536
L55.9466 108.268
L56.039 108.268
L56.1312 108.03
L56.2231 108.03
L56.3148 107.793
L56.4078 107.793
L56.4994 107.563
L56.6841 107.455
L56.7769 107.244
L56.9617 107.142
L57.0542 106.941
L57.2394 106.848
L57.3318 106.644
L57.5165 106.542
L57.6085 106.341
L57.7928 106.238
L57.885 106.028
L58.0701 105.925
L58.1629 105.725
L58.3475 105.621
L58.4409 105.394
L58.5335 105.394
L58.6255 105.172
L58.8111 105.061
L58.9032 104.837
L59.0893 104.727
L59.1819 104.52
L59.3673 104.424
L59.4602 104.218
L59.6457 104.111
L59.7393 103.884
L59.8319 103.884
L59.9249 103.657
L60.1113 103.55
L60.2048 103.335
L60.3905 103.231
L60.4836 103.021
L60.6694 102.921
L60.7629 102.721
L60.9485 102.626
L61.0409 102.427
L61.2277 102.327
L61.3205 102.125
L61.5064 102.025
L61.5994 101.833
L61.7853 101.742
L61.8792 101.562
L62.0659 101.467
L62.1595 101.281
L62.3457 101.182
L62.4383 100.968
L62.532 100.968
L62.6258 100.748
L62.7201 100.748
L62.8131 100.523
L62.9997 100.417
L63.0935 100.206
L63.2797 100.102
L63.3733 99.9005
L63.5595 99.7946
L63.6538 99.5785
L63.842 99.4715
L63.9356 99.2706
L64.1221 99.1752
L64.216 98.9879
L64.404 98.8896
L64.4972 98.68
L64.6846 98.5798
L64.7783 98.3757
L64.9656 98.2706
L65.0586 98.0687
L65.2462 97.9684
L65.34 97.7673
L65.5292 97.6669
L65.6225 97.4607
L65.8107 97.3527
L65.9044 97.1364
L65.9989 97.1364
L66.0924 96.9171
L66.2789 96.813
L66.3727 96.6082
L66.5606 96.5066
L66.655 96.299
L66.8424 96.1969
L66.936 95.9955
L67.1241 95.8977
L67.2185 95.7027
L67.4072 95.6073
L67.5011 95.4169
L67.6899 95.3203
L67.785 95.1338
L67.972 95.0394
L68.066 94.8504
L68.255 94.7566
L68.3491 94.581
L68.5375 94.495
L68.6324 94.3135
L68.821 94.2192
L68.9147 94.0304
L69.1039 93.9395
L69.1986 93.7607
L69.3858 93.6732
L69.4802 93.5001
L69.6691 93.413
L69.7637 93.2364
L69.9535 93.1471
L70.0472 92.9723
L70.2366 92.8853
L70.3316 92.7033
L70.5209 92.614
L70.6155 92.4368
L70.805 92.3507
L70.8989 92.1909
L71.0879 92.1157
L71.182 91.9756
L71.3715 91.9037
L71.4665 91.7561
L71.6571 91.6842
L71.7513 91.5465
L71.9409 91.4796
L72.0359 91.3449
L72.2254 91.2776
L72.3203 91.1442
L72.5113 91.0752
L72.6057 90.9359
L72.7956 90.8706
L72.8903 90.7381
L73.0804 90.6708
L73.1753 90.5369
L73.3656 90.4713
L73.4602 90.3361
L73.6503 90.2653
L73.7446 90.1196
L73.9331 90.0531
L74.0282 89.9185
L74.2189 89.8524
L74.3135 89.7254
L74.5044 89.6637
L74.5994 89.5445
L74.7889 89.4887
L74.8844 89.3679
L75.0755 89.3086
L75.1708 89.1931
L75.3597 89.1358
L75.4564 89.0151
L75.6466 88.9516
L75.7419 88.817
L75.9333 88.7503
L76.0284 88.6217
L76.2192 88.5596
L76.314 88.4401
L76.5051 88.381
L76.6 88.2676
L76.7907 88.2104
L76.8861 88.0991
L77.0769 88.0418
L77.1727 87.9309
L77.4586 87.8239
L77.5534 87.7193
L77.7455 87.664
L77.8406 87.546
L78.0309 87.4878
L78.1266 87.3724
L78.3197 87.3132
L78.4153 87.1845
L78.605 87.1167
L78.7009 86.9817
L78.892 86.9119
L78.9878 86.7737
L79.1787 86.7088
L79.2743 86.5784
L79.4658 86.5106
L79.5613 86.3736
L79.7533 86.3041
L79.8485 86.1716
L80.0408 86.1067
L80.1364 85.9757
L80.3285 85.9099
L80.4238 85.7782
L80.6152 85.7112
L80.7111 85.5741
L80.9021 85.5068
L80.997 85.3755
L81.1892 85.3106
L81.2844 85.1832
L81.4764 85.1184
L81.5727 84.99
L81.7652 84.925
L81.8599 84.8005
L82.0519 84.7336
L82.1485 84.6057
L82.3395 84.5426
L82.4349 84.4167
L82.628 84.3525
L82.7235 84.2322
L82.916 84.1693
L83.0131 84.0369
L83.2057 83.9674
L83.3016 83.8282
L83.4933 83.7577
L83.5893 83.6214
L83.7817 83.5522
L83.878 83.4119
L84.0705 83.3458
L84.1664 83.2194
L84.3584 83.1559
L84.4549 83.025
L84.6471 82.96
L84.7421 82.829
L84.9346 82.7625
L85.0307 82.6317
L85.2241 82.5669
L85.3193 82.4384
L85.5129 82.3737
L85.6086 82.2473
L85.8 82.1872
L85.8965 82.0669
L86.0897 82.0043
L86.1859 81.8854
L86.3788 81.8247
L86.4756 81.7001
L86.6682 81.6378
L86.7654 81.5162
L86.9579 81.4558
L87.0543 81.3339
L87.247 81.2727
L87.3429 81.1511
L87.5354 81.0921
L87.6327 80.9764
L87.9204 80.8691
L88.0174 80.763
L88.3067 80.6607
L88.4029 80.5577
L88.692 80.4485
L88.7886 80.3361
L88.9835 80.2786
L89.0799 80.1692
L89.273 80.1135
L89.3698 79.9943
L89.564 79.9333
L89.6603 79.8139
L89.8534 79.756
L89.9504 79.638
L90.1435 79.5771
L90.2406 79.4566
L90.4335 79.4001
L90.5309 79.2821
L90.7253 79.2221
L90.8219 79.1045
L91.0166 79.0482
L91.1134 78.9334
L91.3071 78.8756
L91.4036 78.7606
L91.5977 78.7037
L91.6949 78.5891
L91.9839 78.481
L92.0809 78.3749
L92.3721 78.2647
L92.4691 78.1514
L92.6639 78.0917
L92.7598 77.9788
L93.0508 77.8683
L93.1477 77.7523
L93.3436 77.6896
L93.4408 77.5657
L93.6348 77.5044
L93.7319 77.3862
L93.9249 77.3276
L94.0225 77.2111
L94.2178 77.1546
L94.3149 77.0391
L94.5086 76.9831
L94.6061 76.869
L94.8002 76.8129
L94.8969 76.7034
L95.1898 76.5955
L95.286 76.4871
L95.5773 76.3765
L95.6749 76.2671
L95.9659 76.1625
L96.0623 76.0599
L96.3544 75.9613
L96.4521 75.8606
L96.7438 75.7614
L96.8406 75.6646
L97.1318 75.571
L97.229 75.473
L97.5213 75.3733
L97.6191 75.2809
L97.9107 75.1933
L98.0081 75.1115
L98.2999 75.0307
L98.3968 74.9475
L98.6886 74.8619
L98.7864 74.7757
L99.0801 74.6881
L99.1778 74.5996
L99.4694 74.5108
L99.5668 74.4284
L99.8591 74.3494
L99.9569 74.2676
L100.25 74.1869
L100.348 74.1084
L100.641 74.0256
L100.738 73.94
L101.032 73.8513
L101.13 73.7615
L101.422 73.6684
L101.519 73.5707
L101.813 73.4774
L101.912 73.3814
L102.205 73.285
L102.302 73.1899
L102.595 73.0918
L102.693 72.9934
L102.986 72.8951
L103.085 72.7933
L103.378 72.6939
L103.476 72.5948
L103.769 72.498
L103.867 72.3969
L104.16 72.3007
L104.258 72.2005
L104.553 72.1031
L104.652 72.0041
L104.945 71.9088
L105.043 71.8187
L105.335 71.732
L105.433 71.6443
L105.727 71.5595
L105.824 71.4727
L106.117 71.3836
L106.216 71.2919
L106.509 71.2021
L106.608 71.1121
L106.903 71.0237
L107 70.9409
L107.293 70.8582
L107.393 70.7764
L107.686 70.6945
L107.784 70.6154
L108.079 70.5355
L108.177 70.4561
L108.471 70.3757
L108.569 70.2955
L108.864 70.2149
L108.963 70.1358
L109.257 70.0555
L109.356 69.9761
L109.651 69.8949
L109.75 69.8122
L110.045 69.7293
L110.143 69.6492
L110.44 69.5674
L110.538 69.4833
L110.832 69.3994
L110.931 69.3196
L111.225 69.2386
L111.324 69.1618
L111.618 69.0884
L111.717 69.0119
L112.11 68.9019
L112.209 68.8304
L112.602 68.723
L112.7 68.6505
L112.996 68.5751
L113.094 68.4996
L113.39 68.4262
L113.489 68.3522
L113.883 68.2497
L113.982 68.1827
L114.376 68.0803
L114.474 68.0115
L114.867 67.9085
L114.966 67.8392
L115.362 67.7299
L115.461 67.6574
L115.855 67.5523
L115.954 67.4805
L116.347 67.3751
L116.446 67.2986
L116.742 67.2198
L116.841 67.1428
L117.138 67.0644
L117.238 66.9857
L117.534 66.9096
L117.632 66.8356
L118.026 66.7252
L118.125 66.6537
L118.521 66.5531
L118.619 66.4873
L119.014 66.3851
L119.113 66.3146
L119.507 66.2063
L119.606 66.135
L120.002 66.0377
L120.1 65.9728
L120.496 65.8804
L120.595 65.8213
L120.991 65.7298
L121.089 65.6672
L121.485 65.5749
L121.584 65.5177
L122.08 65.4071
L122.178 65.3516
L122.574 65.2664
L122.673 65.2089
L123.069 65.1249
L123.167 65.0691
L123.563 64.9834
L123.662 64.9283
L124.059 64.8442
L124.158 64.788
L124.553 64.702
L124.653 64.6443
L125.15 64.5332
L125.25 64.4756
L125.648 64.3903
L125.747 64.3325
L126.146 64.2467
L126.245 64.191
L126.741 64.0883
L126.84 64.0361
L127.334 63.933
L127.434 63.8813
L127.931 63.7754
L128.03 63.7221
L128.527 63.6164
L128.626 63.56
L129.025 63.4717
L129.124 63.4145
L129.522 63.3298
L129.621 63.2737
L130.118 63.1626
L130.218 63.1065
L130.618 63.0215
L130.718 62.9685
L131.214 62.8615
L131.314 62.8055
L131.711 62.7219
L131.811 62.6651
L132.209 62.5782
L132.307 62.5172
L132.806 62.4077
L132.906 62.3574
L133.406 62.2545
L133.505 62.2038
L134.006 62.0965
L134.105 62.043
L134.603 61.9369
L134.703 61.8836
L135.201 61.7768
L135.301 61.7228
L135.7 61.6381
L135.8 61.5837
L136.299 61.4788
L136.399 61.4253
L136.897 61.3149
L136.997 61.2592
L137.396 61.173
L137.497 61.1143
L137.896 61.0286
L137.996 60.9725
L138.395 60.8883
L138.495 60.8317
L138.994 60.7247
L139.094 60.6711
L139.595 60.5624
L139.694 60.5108
L140.193 60.4072
L140.294 60.353
L140.793 60.2421
L140.893 60.1862
L141.394 60.0754
L141.494 60.0195
L141.895 59.9351
L141.996 59.8765
L142.395 59.7879
L142.495 59.7285
L142.895 59.6403
L142.995 59.5802
L143.396 59.4921
L143.496 59.4343
L143.897 59.3486
L143.998 59.2922
L144.399 59.2084
L144.499 59.1519
L145 59.0429
L145.101 58.9894
L145.602 58.8811
L145.703 58.8221
L146.103 58.7333
L146.203 58.6747
L146.604 58.5907
L146.704 58.5338
L147.104 58.4493
L147.204 58.3939
L147.705 58.2882
L147.806 58.2369
L148.308 58.1304
L148.409 58.0767
L148.91 57.9713
L149.011 57.9212
L149.514 57.8219
L149.614 57.7726
L150.117 57.6728
L150.217 57.6234
L150.718 57.5298
L150.819 57.4839
L151.321 57.3918
L151.422 57.3452
L151.925 57.2527
L152.027 57.2076
L152.53 57.1143
L152.631 57.0661
L153.131 56.9644
L153.233 56.911
L153.736 56.8093
L153.835 56.7583
L154.337 56.6552
L154.437 56.607
L154.941 56.5105
L155.042 56.4626
L155.544 56.365
L155.643 56.3145
L156.147 56.2089
L156.249 56.1557
L156.754 56.0476
L156.854 55.9937
L157.358 55.8921
L157.46 55.8427
L157.961 55.7521
L158.061 55.7091
L158.668 55.6029
L158.768 55.5594
L159.272 55.4708
L159.374 55.4249
L159.877 55.331
L159.978 55.2831
L160.482 55.1846
L160.583 55.1349
L161.087 55.0387
L161.188 54.9912
L161.693 54.8938
L161.794 54.8438
L162.299 54.7412
L162.4 54.6883
L162.904 54.5843
L163.005 54.5358
L163.509 54.4361
L163.61 54.3847
L164.117 54.2825
L164.217 54.2321
L164.722 54.1309
L164.823 54.0804
L165.328 53.9804
L165.429 53.9306
L165.936 53.8315
L166.037 53.7835
L166.542 53.6882
L166.643 53.641
L167.147 53.5492
L167.248 53.5021
L167.757 53.4098
L167.857 53.3631
L168.363 53.2723
L168.463 53.2296
L169.072 53.1215
L169.172 53.0741
L169.679 52.9775
L169.78 52.9303
L170.286 52.8355
L170.387 52.789
L170.895 52.6946
L170.997 52.6473
L171.505 52.5504
L171.606 52.502
L172.111 52.4071
L172.214 52.3613
L172.721 52.2694
L172.821 52.2228
L173.327 52.1283
L173.429 52.0812
L173.935 51.9879
L174.037 51.9416
L174.543 51.8491
L174.644 51.8037
L175.152 51.7108
L175.254 51.6625
L175.76 51.5699
L175.862 51.5235
L176.369 51.4299
L176.471 51.3833
L176.978 51.2901
L177.08 51.2425
L177.589 51.1501
L177.69 51.1039
L178.198 51.0137
L178.299 50.9673
L178.809 50.8734
L178.91 50.8275
L179.52 50.7197
L179.621 50.6777
L180.231 50.5706
L180.332 50.5281
L180.84 50.4391
L180.941 50.3949
L181.552 50.2838
L181.654 50.2413
L182.263 50.1384
L182.365 50.0976
L182.975 49.9986
L183.076 49.9591
L183.687 49.8651
L183.789 49.8296
L184.501 49.724
L184.604 49.6868
L185.214 49.5935
L185.315 49.5555
L185.928 49.4548
L186.029 49.4144
L186.639 49.3129
L186.741 49.271
L187.352 49.1657
L187.454 49.1245
L188.067 49.019
L188.169 48.9761
L188.779 48.8673
L188.882 48.8248
L189.492 48.7224
L189.594 48.682
L190.206 48.5818
L190.307 48.5419
L190.917 48.4378
L191.02 48.3948
L191.632 48.2889
L191.734 48.2479
L192.347 48.1458
L192.449 48.1065
L193.06 48.0093
L193.162 47.9688
L193.775 47.8676
L193.878 47.8281
L194.491 47.7315
L194.592 47.6928
L195.205 47.5991
L195.308 47.5607
L195.922 47.464
L196.024 47.4241
L196.638 47.3245
L196.74 47.2843
L197.354 47.1824
L197.456 47.1435
L198.069 47.0465
L198.172 47.0068
L198.785 46.9058
L198.887 46.8656
L199.5 46.7643
L199.601 46.7219
L200.216 46.6117
L200.318 46.5671
L200.83 46.4772
L200.933 46.4322
L201.545 46.3231
L201.649 46.2803
L202.264 46.1725
L202.366 46.1305
L202.98 46.0279
L203.082 45.9882
L203.697 45.8908
L203.8 45.8516
L204.413 45.7528
L204.516 45.7128
L205.131 45.6116
L205.233 45.5717
L205.849 45.4762
L205.951 45.4383
L206.566 45.3428
L206.668 45.304
L207.282 45.2097
L207.385 45.1725
L208.102 45.0617
L208.205 45.0252
L208.819 44.9313
L208.92 44.8928
L209.537 44.7896
L209.639 44.7482
L210.255 44.6466
L210.358 44.605
L210.975 44.5067
L211.078 44.4684
L211.693 44.3732
L211.794 44.3355
L212.41 44.2404
L212.513 44.2012
L213.13 44.1056
L213.232 44.0684
L213.951 43.9632
L214.053 43.9296
L214.773 43.8301
L214.875 43.7975
L215.595 43.6969
L215.698 43.6644
L216.519 43.558
L216.622 43.5288
L217.447 43.426
L217.55 43.3958
L218.373 43.2896
L218.475 43.2576
L219.298 43.15
L219.401 43.12
L220.222 43.0161
L220.324 42.9847
L221.148 42.8772
L221.251 42.8455
L222.075 42.735
L222.178 42.7044
L223.003 42.6006
L223.106 42.5722
L223.93 42.4746
L224.033 42.4464
L224.855 42.3436
L224.958 42.3136
L225.781 42.2089
L225.883 42.1801
L226.705 42.0799
L226.809 42.0512
L227.734 41.9432
L227.838 41.9155
L228.662 41.8178
L228.765 41.7895
L229.592 41.691
L229.694 41.6637
L230.624 41.5597
L230.727 41.5336
L231.655 41.4226
L231.758 41.3929
L232.585 41.2901
L232.688 41.2619
L233.513 41.1619
L233.616 41.1339
L234.546 41.0237
L234.65 40.9986
L235.581 40.8937
L235.683 40.868
L236.612 40.7653
L236.715 40.7392
L237.645 40.6312
L237.749 40.6036
L238.576 40.5047
L238.68 40.4757
L239.506 40.3691
L239.609 40.3381
L240.437 40.232
L240.539 40.2026
L241.367 40.098
L241.471 40.0675
L242.3 39.96
L242.403 39.9311
L243.229 39.8271
L243.333 39.7972
L244.161 39.695
L244.266 39.6662
L245.092 39.5651
L245.197 39.5355
L246.024 39.4287
L246.127 39.3973
L246.956 39.2876
L247.06 39.2569
L247.892 39.1538
L247.995 39.1248
L248.822 39.023
L248.927 38.9945
L249.755 38.8958
L249.859 38.8684
L250.789 38.7594
L250.893 38.7317
L251.827 38.6229
L251.931 38.5968
L252.864 38.4897
L252.967 38.4637
L253.902 38.3577
L254.007 38.3303
L254.941 38.2242
L255.044 38.1968
L255.978 38.0886
L256.082 38.0616
L257.016 37.9531
L257.12 37.9259
L258.055 37.8181
L258.159 37.7913
L259.091 37.684
L259.194 37.6585
L260.129 37.5583
L260.233 37.5347
L261.272 37.4236
L261.376 37.398
L262.311 37.2966
L262.415 37.2714
L263.455 37.1614
L263.56 37.1375
L264.599 37.0309
L264.703 37.0077
L265.744 36.9047
L265.846 36.8821
L266.99 36.7756
L267.094 36.7548
L268.24 36.6461
L268.345 36.6244
L269.592 36.5142
L269.696 36.4947
L270.841 36.3928
L270.945 36.3725
L272.09 36.2685
L272.193 36.2473
L273.34 36.1435
L273.444 36.1236
L274.695 36.0151
L274.799 35.9963
L276.158 35.8897
L276.261 35.8722
L277.509 35.7684
L277.613 35.7491
L278.863 35.6443
L278.968 35.6263
L280.22 35.522
L280.323 35.5037
L281.576 35.3949
L281.68 35.3748
L282.933 35.2646
L283.039 35.2457
L284.29 35.1432
L284.394 35.1242
L285.647 35.0198
L285.752 35.0009
L287.004 34.8916
L287.109 34.8708
L288.258 34.7635
L288.363 34.7416
L289.514 34.6388
L289.62 34.6175
L290.77 34.5124
L290.875 34.4907
L291.922 34.3904
L292.027 34.3677
L293.177 34.2607
L293.282 34.2406
L294.541 34.1319
L294.645 34.1111
L295.796 34.0073
L295.9 33.9865
L297.054 33.8836
L297.158 33.8634
L298.411 33.7568
L298.516 33.738
L299.774 33.6336
L299.879 33.6149
L301.134 33.5107
L301.24 33.4915
L302.497 33.3868
L302.601 33.3678
L303.753 33.2655
L303.858 33.245
L305.011 33.1439
L305.116 33.1232
L306.269 33.0178
L306.374 32.9972
L307.526 32.8957
L307.63 32.8755
L308.889 32.7667
L308.993 32.7467
L310.253 32.6367
L310.358 32.617
L311.621 32.5106
L311.725 32.4911
L312.88 32.39
L312.984 32.3696
L314.138 32.2618
L314.243 32.2398
L315.395 32.1313
L315.5 32.1091
L316.548 32.0063
L316.654 31.9829
L317.706 31.8806
L317.811 31.8582
L318.862 31.7563
L318.966 31.7339
L320.018 31.6316
L320.124 31.6098
L321.279 31.499
L321.385 31.477
L322.541 31.3693
L322.646 31.3491
L323.908 31.2405
L324.013 31.221
L325.277 31.1129
L325.382 31.0938
L326.748 30.9828
L326.854 30.9642
L328.117 30.8599
L328.221 30.8406
L329.484 30.7378
L329.589 30.7187
L330.748 30.6165
L330.854 30.5958
L332.011 30.4911
L332.117 30.4701
L333.381 30.3594
L333.487 30.3392
L334.646 30.2343
L334.751 30.2132
L335.906 30.1089
L336.012 30.0883
L337.172 29.984
L337.277 29.9634
L338.433 29.8569
L338.538 29.8353
L339.701 29.7277
L339.807 29.7067
L340.965 29.5999
L341.071 29.5779
L342.227 29.4727
L342.333 29.4527
L343.495 29.3517
L343.601 29.3314
L344.869 29.2207
L344.974 29.2001
L346.241 29.0892
L346.346 29.0694
L347.613 28.9635
L347.717 28.9446
L348.987 28.8385
L349.094 28.8197
L350.36 28.7178
L350.467 28.699
L351.841 28.588
L351.946 28.5692
L353.213 28.4639
L353.319 28.4451
L354.584 28.3393
L354.691 28.3198
L355.96 28.2106
L356.066 28.1901
L357.336 28.0815
L357.442 28.0623
L358.709 27.9581
L358.815 27.9388
L359.979 27.8371
L360.084 27.8169
L361.247 27.7123
L361.352 27.6913
L362.519 27.5883
L362.624 27.5688
L363.895 27.4632
L364 27.4438
L365.27 27.3329
L365.376 27.3127
L366.54 27.2103
L366.646 27.1896
L367.915 27.0811
L368.022 27.062
L369.293 26.9578
L369.399 26.9386
L370.669 26.8356
L370.775 26.8164
L372.045 26.7103
L372.151 26.6905
L373.424 26.5805
L373.529 26.5611
L374.695 26.4603
L374.802 26.4393
L376.074 26.3283
L376.181 26.3092
L377.453 26.2007
L377.559 26.1815
L378.94 26.0733
L379.046 26.0553
L380.426 25.9452
L380.532 25.9267
L381.806 25.8248
L381.912 25.806
L383.187 25.7016
L383.293 25.6829
L384.67 25.5722
L384.776 25.5535
L386.155 25.4475
L386.261 25.43
L387.64 25.3268
L387.747 25.31
L389.127 25.2068
L389.232 25.1899
L390.616 25.0844
L390.721 25.0661
L392.102 24.9585
L392.209 24.9407
L393.695 24.8305
L393.802 24.814
L395.291 24.7098
L395.397 24.6934
L396.887 24.5882
L396.993 24.572
L398.481 24.4651
L398.587 24.4492
L400.079 24.3445
L400.185 24.3276
L401.676 24.2187
L401.782 24.2024
L403.375 24.0951
L403.481 24.0803
L405.08 23.9714
L405.186 23.956
L406.891 23.8449
L406.998 23.8298
L408.594 23.7222
L408.702 23.7071
L410.301 23.6008
L410.407 23.5853
L412.003 23.4776
L412.11 23.4615
L413.6 23.3536
L413.707 23.3372
L415.202 23.2315
L415.308 23.2152
L416.803 23.11
L416.91 23.094
L418.402 22.9883
L418.509 22.972
L420.107 22.8653
L420.213 22.851
L422.029 22.7421
L422.136 22.7285
L423.949 22.6182
L424.056 22.6044
L425.874 22.4988
L425.981 22.4857
L427.793 22.3782
L427.9 22.3641
L429.608 22.2579
L429.715 22.2431
L431.317 22.1373
L431.424 22.1217
L433.027 22.0152
L433.132 22.0006
L434.841 21.8901
L434.948 21.8755
L436.55 21.7699
L436.657 21.7549
L438.257 21.6491
L438.363 21.6336
L439.86 21.5297
L439.968 21.5136
L441.463 21.4088
L441.569 21.3926
L443.069 21.2864
L443.175 21.2701
L444.782 21.1601
L444.888 21.1448
L446.488 21.0356
L446.597 21.0198
L448.2 20.9126
L448.307 20.8971
L449.915 20.7878
L450.023 20.7719
L451.625 20.6625
L451.732 20.6473
L453.34 20.5413
L453.445 20.5262
L455.053 20.4185
L455.161 20.4036
L456.768 20.2969
L456.875 20.2819
L458.482 20.1763
L458.59 20.1605
L460.197 20.0496
L460.304 20.0335
L461.912 19.9266
L462.019 19.9115
L463.732 19.8019
L463.84 19.7881
L465.555 19.6805
L465.662 19.6661
L467.488 19.5613
L467.594 19.5481
L469.525 19.4377
L469.632 19.4242
L471.454 19.3159
L471.562 19.3016
L473.282 19.1968
L473.389 19.183
L475.108 19.0753
L475.216 19.0607
L476.933 18.952
L477.04 18.9378
L478.756 18.8328
L478.863 18.8185
L480.474 18.7139
L480.582 18.6983
L482.196 18.5898
L482.304 18.5747
L483.916 18.4704
L484.024 18.4554
L485.636 18.3512
L485.743 18.3365
L487.465 18.2263
L487.572 18.2121
L489.292 18.1021
L489.4 18.0872
L491.12 17.9772
L491.228 17.9628
L492.951 17.8553
L493.058 17.8413
L494.886 17.7317
L494.993 17.718
L496.717 17.6138
L496.824 17.5999
L498.652 17.4901
L498.758 17.4765
L500.583 17.3665
L500.69 17.353
L502.52 17.2426
L502.628 17.2287
L504.457 17.122
L504.565 17.1093
L506.506 17.0008
L506.613 16.9883
L508.553 16.8823
L508.661 16.8697
L510.495 16.7606
L510.603 16.7467
L512.324 16.642
L512.432 16.6282
L514.158 16.5228
L514.267 16.5089
L516.101 16.3994
L516.209 16.3861
L518.148 16.2755
L518.255 16.2625
L520.197 16.1532
L520.307 16.1408
L522.353 16.031
L522.461 16.019
L524.509 15.9117
L524.617 15.9002
L526.773 15.793
L526.881 15.7819
L529.149 15.6716
L529.257 15.6613
L531.526 15.5534
L531.633 15.5419
L533.902 15.432
L534.01 15.4215
L536.28 15.3146
L536.388 15.3044
L538.761 15.1982
L538.87 15.1884
L541.463 15.0797
L541.571 15.0706
L544.379 14.9617
L544.486 14.9528
L545.245 14.9261
L545.245 14.9217" style="fill:none;stroke:#ff0000;stroke-width:0.5;"/>
   </g>
   <g id="matplotlib.axis_1">
    <g id="xtick_1">
     <g id="line2d_2">
      <defs>
       <path d="
M0 0
L0 -4" id="md674964c73"/>
      </defs>
      <g>
       <use style="stroke:#000000;stroke-linecap:butt;stroke-width:0.5;" x="32.2453125" xlink:href="#md674964c73" y="401.004497041"/>
      </g>
     </g>
    </g>
    <g id="xtick_2">
     <g id="line2d_3">
      <defs>
       <path d="
M0 0
L0 -4" id="md674964c73"/>
      </defs>
      <g>
       <use style="stroke:#000000;stroke-linecap:butt;stroke-width:0.5;" x="134.850641729" xlink:href="#md674964c73" y="401.004497041"/>
      </g>
     </g>
     <g id="text_1">
      <!-- 2e8 -->
      <defs>
       <path d="
M19.1875 8.29688
L53.6094 8.29688
L53.6094 0
L7.32812 0
L7.32812 8.29688
Q12.9375 14.1094 22.625 23.8906
Q32.3281 33.6875 34.8125 36.5312
Q39.5469 41.8438 41.4219 45.5312
Q43.3125 49.2188 43.3125 52.7812
Q43.3125 58.5938 39.2344 62.25
Q35.1562 65.9219 28.6094 65.9219
Q23.9688 65.9219 18.8125 64.3125
Q13.6719 62.7031 7.8125 59.4219
L7.8125 69.3906
Q13.7656 71.7812 18.9375 73
Q24.125 74.2188 28.4219 74.2188
Q39.75 74.2188 46.4844 68.5469
Q53.2188 62.8906 53.2188 53.4219
Q53.2188 48.9219 51.5312 44.8906
Q49.8594 40.875 45.4062 35.4062
Q44.1875 33.9844 37.6406 27.2188
Q31.1094 20.4531 19.1875 8.29688" id="BitstreamVeraSans-Roman-32"/>
       <path d="
M56.2031 29.5938
L56.2031 25.2031
L14.8906 25.2031
Q15.4844 15.9219 20.4844 11.0625
Q25.4844 6.20312 34.4219 6.20312
Q39.5938 6.20312 44.4531 7.46875
Q49.3125 8.73438 54.1094 11.2812
L54.1094 2.78125
Q49.2656 0.734375 44.1875 -0.34375
Q39.1094 -1.42188 33.8906 -1.42188
Q20.7969 -1.42188 13.1562 6.1875
Q5.51562 13.8125 5.51562 26.8125
Q5.51562 40.2344 12.7656 48.1094
Q20.0156 56 32.3281 56
Q43.3594 56 49.7812 48.8906
Q56.2031 41.7969 56.2031 29.5938
M47.2188 32.2344
Q47.125 39.5938 43.0938 43.9844
Q39.0625 48.3906 32.4219 48.3906
Q24.9062 48.3906 20.3906 44.1406
Q15.875 39.8906 15.1875 32.1719
z
" id="BitstreamVeraSans-Roman-65"/>
       <path d="
M31.7812 34.625
Q24.75 34.625 20.7188 30.8594
Q16.7031 27.0938 16.7031 20.5156
Q16.7031 13.9219 20.7188 10.1562
Q24.75 6.39062 31.7812 6.39062
Q38.8125 6.39062 42.8594 10.1719
Q46.9219 13.9688 46.9219 20.5156
Q46.9219 27.0938 42.8906 30.8594
Q38.875 34.625 31.7812 34.625
M21.9219 38.8125
Q15.5781 40.375 12.0312 44.7188
Q8.5 49.0781 8.5 55.3281
Q8.5 64.0625 14.7188 69.1406
Q20.9531 74.2188 31.7812 74.2188
Q42.6719 74.2188 48.875 69.1406
Q55.0781 64.0625 55.0781 55.3281
Q55.0781 49.0781 51.5312 44.7188
Q48 40.375 41.7031 38.8125
Q48.8281 37.1562 52.7969 32.3125
Q56.7812 27.4844 56.7812 20.5156
Q56.7812 9.90625 50.3125 4.23438
Q43.8438 -1.42188 31.7812 -1.42188
Q19.7344 -1.42188 13.25 4.23438
Q6.78125 9.90625 6.78125 20.5156
Q6.78125 27.4844 10.7812 32.3125
Q14.7969 37.1562 21.9219 38.8125
M18.3125 54.3906
Q18.3125 48.7344 21.8438 45.5625
Q25.3906 42.3906 31.7812 42.3906
Q38.1406 42.3906 41.7188 45.5625
Q45.3125 48.7344 45.3125 54.3906
Q45.3125 60.0625 41.7188 63.2344
Q38.1406 66.4062 31.7812 66.4062
Q25.3906 66.4062 21.8438 63.2344
Q18.3125 60.0625 18.3125 54.3906" id="BitstreamVeraSans-Roman-38"/>
      </defs>
      <g transform="translate(126.120172979 412.426372041)scale(0.1 -0.1)">
       <use xlink:href="#BitstreamVeraSans-Roman-32"/>
       <use x="63.623046875" xlink:href="#BitstreamVeraSans-Roman-65"/>
       <use x="125.146484375" xlink:href="#BitstreamVeraSans-Roman-38"/>
      </g>
     </g>
    </g>
    <g id="xtick_3">
     <g id="line2d_4">
      <defs>
       <path d="
M0 0
L0 -4" id="md674964c73"/>
      </defs>
      <g>
       <use style="stroke:#000000;stroke-linecap:butt;stroke-width:0.5;" x="237.455970958" xlink:href="#md674964c73" y="401.004497041"/>
      </g>
     </g>
     <g id="text_2">
      <!-- 4e8 -->
      <defs>
       <path d="
M37.7969 64.3125
L12.8906 25.3906
L37.7969 25.3906
z

M35.2031 72.9062
L47.6094 72.9062
L47.6094 25.3906
L58.0156 25.3906
L58.0156 17.1875
L47.6094 17.1875
L47.6094 0
L37.7969 0
L37.7969 17.1875
L4.89062 17.1875
L4.89062 26.7031
z
" id="BitstreamVeraSans-Roman-34"/>
      </defs>
      <g transform="translate(228.603627208 412.426372041)scale(0.1 -0.1)">
       <use xlink:href="#BitstreamVeraSans-Roman-34"/>
       <use x="63.623046875" xlink:href="#BitstreamVeraSans-Roman-65"/>
       <use x="125.146484375" xlink:href="#BitstreamVeraSans-Roman-38"/>
      </g>
     </g>
    </g>
    <g id="xtick_4">
     <g id="line2d_5">
      <defs>
       <path d="
M0 0
L0 -4" id="md674964c73"/>
      </defs>
      <g>
       <use style="stroke:#000000;stroke-linecap:butt;stroke-width:0.5;" x="340.061300188" xlink:href="#md674964c73" y="401.004497041"/>
      </g>
     </g>
     <g id="text_3">
      <!-- 6e8 -->
      <defs>
       <path d="
M33.0156 40.375
Q26.375 40.375 22.4844 35.8281
Q18.6094 31.2969 18.6094 23.3906
Q18.6094 15.5312 22.4844 10.9531
Q26.375 6.39062 33.0156 6.39062
Q39.6562 6.39062 43.5312 10.9531
Q47.4062 15.5312 47.4062 23.3906
Q47.4062 31.2969 43.5312 35.8281
Q39.6562 40.375 33.0156 40.375
M52.5938 71.2969
L52.5938 62.3125
Q48.875 64.0625 45.0938 64.9844
Q41.3125 65.9219 37.5938 65.9219
Q27.8281 65.9219 22.6719 59.3281
Q17.5312 52.7344 16.7969 39.4062
Q19.6719 43.6562 24.0156 45.9219
Q28.375 48.1875 33.5938 48.1875
Q44.5781 48.1875 50.9531 41.5156
Q57.3281 34.8594 57.3281 23.3906
Q57.3281 12.1562 50.6875 5.35938
Q44.0469 -1.42188 33.0156 -1.42188
Q20.3594 -1.42188 13.6719 8.26562
Q6.98438 17.9688 6.98438 36.375
Q6.98438 53.6562 15.1875 63.9375
Q23.3906 74.2188 37.2031 74.2188
Q40.9219 74.2188 44.7031 73.4844
Q48.4844 72.75 52.5938 71.2969" id="BitstreamVeraSans-Roman-36"/>
      </defs>
      <g transform="translate(331.313643938 412.426372041)scale(0.1 -0.1)">
       <use xlink:href="#BitstreamVeraSans-Roman-36"/>
       <use x="63.623046875" xlink:href="#BitstreamVeraSans-Roman-65"/>
       <use x="125.146484375" xlink:href="#BitstreamVeraSans-Roman-38"/>
      </g>
     </g>
    </g>
    <g id="xtick_5">
     <g id="line2d_6">
      <defs>
       <path d="
M0 0
L0 -4" id="md674964c73"/>
      </defs>
      <g>
       <use style="stroke:#000000;stroke-linecap:butt;stroke-width:0.5;" x="442.666629417" xlink:href="#md674964c73" y="401.004497041"/>
      </g>
     </g>
     <g id="text_4">
      <!-- 8e8 -->
      <g transform="translate(433.908816917 412.426372041)scale(0.1 -0.1)">
       <use xlink:href="#BitstreamVeraSans-Roman-38"/>
       <use x="63.623046875" xlink:href="#BitstreamVeraSans-Roman-65"/>
       <use x="125.146484375" xlink:href="#BitstreamVeraSans-Roman-38"/>
      </g>
     </g>
    </g>
    <g id="xtick_6">
     <g id="line2d_7">
      <defs>
       <path d="
M0 0
L0 -4" id="md674964c73"/>
      </defs>
      <g>
       <use style="stroke:#000000;stroke-linecap:butt;stroke-width:0.5;" x="545.271958646" xlink:href="#md674964c73" y="401.004497041"/>
      </g>
     </g>
     <g id="text_5">
      <!-- 1e9 -->
      <defs>
       <path d="
M10.9844 1.51562
L10.9844 10.5
Q14.7031 8.73438 18.5 7.8125
Q22.3125 6.89062 25.9844 6.89062
Q35.75 6.89062 40.8906 13.4531
Q46.0469 20.0156 46.7812 33.4062
Q43.9531 29.2031 39.5938 26.9531
Q35.25 24.7031 29.9844 24.7031
Q19.0469 24.7031 12.6719 31.3125
Q6.29688 37.9375 6.29688 49.4219
Q6.29688 60.6406 12.9375 67.4219
Q19.5781 74.2188 30.6094 74.2188
Q43.2656 74.2188 49.9219 64.5156
Q56.5938 54.8281 56.5938 36.375
Q56.5938 19.1406 48.4062 8.85938
Q40.2344 -1.42188 26.4219 -1.42188
Q22.7031 -1.42188 18.8906 -0.6875
Q15.0938 0.046875 10.9844 1.51562
M30.6094 32.4219
Q37.25 32.4219 41.125 36.9531
Q45.0156 41.5 45.0156 49.4219
Q45.0156 57.2812 41.125 61.8438
Q37.25 66.4062 30.6094 66.4062
Q23.9688 66.4062 20.0938 61.8438
Q16.2188 57.2812 16.2188 49.4219
Q16.2188 41.5 20.0938 36.9531
Q23.9688 32.4219 30.6094 32.4219" id="BitstreamVeraSans-Roman-39"/>
       <path d="
M12.4062 8.29688
L28.5156 8.29688
L28.5156 63.9219
L10.9844 60.4062
L10.9844 69.3906
L28.4219 72.9062
L38.2812 72.9062
L38.2812 8.29688
L54.3906 8.29688
L54.3906 0
L12.4062 0
z
" id="BitstreamVeraSans-Roman-31"/>
      </defs>
      <g transform="translate(536.733677396 412.426372041)scale(0.1 -0.1)">
       <use xlink:href="#BitstreamVeraSans-Roman-31"/>
       <use x="63.623046875" xlink:href="#BitstreamVeraSans-Roman-65"/>
       <use x="125.146484375" xlink:href="#BitstreamVeraSans-Roman-39"/>
      </g>
     </g>
    </g>
    <g id="xtick_7">
     <g id="line2d_8">
      <defs>
       <path d="
M0 0
L0 -2" id="m7d32135d2a"/>
      </defs>
      <g>
       <use style="stroke:#000000;stroke-linecap:butt;stroke-width:0.5;" x="57.8966448073" xlink:href="#m7d32135d2a" y="401.004497041"/>
      </g>
     </g>
    </g>
    <g id="xtick_8">
     <g id="line2d_9">
      <defs>
       <path d="
M0 0
L0 -2" id="m7d32135d2a"/>
      </defs>
      <g>
       <use style="stroke:#000000;stroke-linecap:butt;stroke-width:0.5;" x="83.5479771146" xlink:href="#m7d32135d2a" y="401.004497041"/>
      </g>
     </g>
    </g>
    <g id="xtick_9">
     <g id="line2d_10">
      <defs>
       <path d="
M0 0
L0 -2" id="m7d32135d2a"/>
      </defs>
      <g>
       <use style="stroke:#000000;stroke-linecap:butt;stroke-width:0.5;" x="109.199309422" xlink:href="#m7d32135d2a" y="401.004497041"/>
      </g>
     </g>
    </g>
    <g id="xtick_10">
     <g id="line2d_11">
      <defs>
       <path d="
M0 0
L0 -2" id="m7d32135d2a"/>
      </defs>
      <g>
       <use style="stroke:#000000;stroke-linecap:butt;stroke-width:0.5;" x="160.501974037" xlink:href="#m7d32135d2a" y="401.004497041"/>
      </g>
     </g>
    </g>
    <g id="xtick_11">
     <g id="line2d_12">
      <defs>
       <path d="
M0 0
L0 -2" id="m7d32135d2a"/>
      </defs>
      <g>
       <use style="stroke:#000000;stroke-linecap:butt;stroke-width:0.5;" x="186.153306344" xlink:href="#m7d32135d2a" y="401.004497041"/>
      </g>
     </g>
    </g>
    <g id="xtick_12">
     <g id="line2d_13">
      <defs>
       <path d="
M0 0
L0 -2" id="m7d32135d2a"/>
      </defs>
      <g>
       <use style="stroke:#000000;stroke-linecap:butt;stroke-width:0.5;" x="211.804638651" xlink:href="#m7d32135d2a" y="401.004497041"/>
      </g>
     </g>
    </g>
    <g id="xtick_13">
     <g id="line2d_14">
      <defs>
       <path d="
M0 0
L0 -2" id="m7d32135d2a"/>
      </defs>
      <g>
       <use style="stroke:#000000;stroke-linecap:butt;stroke-width:0.5;" x="263.107303266" xlink:href="#m7d32135d2a" y="401.004497041"/>
      </g>
     </g>
    </g>
    <g id="xtick_14">
     <g id="line2d_15">
      <defs>
       <path d="
M0 0
L0 -2" id="m7d32135d2a"/>
      </defs>
      <g>
       <use style="stroke:#000000;stroke-linecap:butt;stroke-width:0.5;" x="288.758635573" xlink:href="#m7d32135d2a" y="401.004497041"/>
      </g>
     </g>
    </g>
    <g id="xtick_15">
     <g id="line2d_16">
      <defs>
       <path d="
M0 0
L0 -2" id="m7d32135d2a"/>
      </defs>
      <g>
       <use style="stroke:#000000;stroke-linecap:butt;stroke-width:0.5;" x="314.40996788" xlink:href="#m7d32135d2a" y="401.004497041"/>
      </g>
     </g>
    </g>
    <g id="xtick_16">
     <g id="line2d_17">
      <defs>
       <path d="
M0 0
L0 -2" id="m7d32135d2a"/>
      </defs>
      <g>
       <use style="stroke:#000000;stroke-linecap:butt;stroke-width:0.5;" x="365.712632495" xlink:href="#m7d32135d2a" y="401.004497041"/>
      </g>
     </g>
    </g>
    <g id="xtick_17">
     <g id="line2d_18">
      <defs>
       <path d="
M0 0
L0 -2" id="m7d32135d2a"/>
      </defs>
      <g>
       <use style="stroke:#000000;stroke-linecap:butt;stroke-width:0.5;" x="391.363964802" xlink:href="#m7d32135d2a" y="401.004497041"/>
      </g>
     </g>
    </g>
    <g id="xtick_18">
     <g id="line2d_19">
      <defs>
       <path d="
M0 0
L0 -2" id="m7d32135d2a"/>
      </defs>
      <g>
       <use style="stroke:#000000;stroke-linecap:butt;stroke-width:0.5;" x="417.01529711" xlink:href="#m7d32135d2a" y="401.004497041"/>
      </g>
     </g>
    </g>
    <g id="xtick_19">
     <g id="line2d_20">
      <defs>
       <path d="
M0 0
L0 -2" id="m7d32135d2a"/>
      </defs>
      <g>
       <use style="stroke:#000000;stroke-linecap:butt;stroke-width:0.5;" x="468.317961724" xlink:href="#m7d32135d2a" y="401.004497041"/>
      </g>
     </g>
    </g>
    <g id="xtick_20">
     <g id="line2d_21">
      <defs>
       <path d="
M0 0
L0 -2" id="m7d32135d2a"/>
      </defs>
      <g>
       <use style="stroke:#000000;stroke-linecap:butt;stroke-width:0.5;" x="493.969294032" xlink:href="#m7d32135d2a" y="401.004497041"/>
      </g>
     </g>
    </g>
    <g id="xtick_21">
     <g id="line2d_22">
      <defs>
       <path d="
M0 0
L0 -2" id="m7d32135d2a"/>
      </defs>
      <g>
       <use style="stroke:#000000;stroke-linecap:butt;stroke-width:0.5;" x="519.620626339" xlink:href="#m7d32135d2a" y="401.004497041"/>
      </g>
     </g>
    </g>
   </g>
   <g id="matplotlib.axis_2">
    <g id="ytick_1">
     <g id="line2d_23">
      <defs>
       <path d="
M0 0
L4 0" id="mc6616867dc"/>
      </defs>
      <g>
       <use style="stroke:#000000;stroke-linecap:butt;stroke-width:0.5;" x="32.2453125" xlink:href="#mc6616867dc" y="401.004497041"/>
      </g>
     </g>
    </g>
    <g id="ytick_2">
     <g id="line2d_24">
      <defs>
       <path d="
M0 0
L4 0" id="mc6616867dc"/>
      </defs>
      <g>
       <use style="stroke:#000000;stroke-linecap:butt;stroke-width:0.5;" x="32.2453125" xlink:href="#mc6616867dc" y="351.326705623"/>
      </g>
     </g>
     <g id="text_6">
      <!-- 0.02 -->
      <defs>
       <path d="
M31.7812 66.4062
Q24.1719 66.4062 20.3281 58.9062
Q16.5 51.4219 16.5 36.375
Q16.5 21.3906 20.3281 13.8906
Q24.1719 6.39062 31.7812 6.39062
Q39.4531 6.39062 43.2812 13.8906
Q47.125 21.3906 47.125 36.375
Q47.125 51.4219 43.2812 58.9062
Q39.4531 66.4062 31.7812 66.4062
M31.7812 74.2188
Q44.0469 74.2188 50.5156 64.5156
Q56.9844 54.8281 56.9844 36.375
Q56.9844 17.9688 50.5156 8.26562
Q44.0469 -1.42188 31.7812 -1.42188
Q19.5312 -1.42188 13.0625 8.26562
Q6.59375 17.9688 6.59375 36.375
Q6.59375 54.8281 13.0625 64.5156
Q19.5312 74.2188 31.7812 74.2188" id="BitstreamVeraSans-Roman-30"/>
       <path d="
M10.6875 12.4062
L21 12.4062
L21 0
L10.6875 0
z
" id="BitstreamVeraSans-Roman-2e"/>
      </defs>
      <g transform="translate(7.640625 354.966549373)scale(0.1 -0.1)">
       <use xlink:href="#BitstreamVeraSans-Roman-30"/>
       <use x="63.623046875" xlink:href="#BitstreamVeraSans-Roman-2e"/>
       <use x="95.41015625" xlink:href="#BitstreamVeraSans-Roman-30"/>
       <use x="159.033203125" xlink:href="#BitstreamVeraSans-Roman-32"/>
      </g>
     </g>
    </g>
    <g id="ytick_3">
     <g id="line2d_25">
      <defs>
       <path d="
M0 0
L4 0" id="mc6616867dc"/>
      </defs>
      <g>
       <use style="stroke:#000000;stroke-linecap:butt;stroke-width:0.5;" x="32.2453125" xlink:href="#mc6616867dc" y="301.648914204"/>
      </g>
     </g>
     <g id="text_7">
      <!-- 0.04 -->
      <g transform="translate(7.2 305.288757954)scale(0.1 -0.1)">
       <use xlink:href="#BitstreamVeraSans-Roman-30"/>
       <use x="63.623046875" xlink:href="#BitstreamVeraSans-Roman-2e"/>
       <use x="95.41015625" xlink:href="#BitstreamVeraSans-Roman-30"/>
       <use x="159.033203125" xlink:href="#BitstreamVeraSans-Roman-34"/>
      </g>
     </g>
    </g>
    <g id="ytick_4">
     <g id="line2d_26">
      <defs>
       <path d="
M0 0
L4 0" id="mc6616867dc"/>
      </defs>
      <g>
       <use style="stroke:#000000;stroke-linecap:butt;stroke-width:0.5;" x="32.2453125" xlink:href="#mc6616867dc" y="251.971122785"/>
      </g>
     </g>
     <g id="text_8">
      <!-- 0.06 -->
      <g transform="translate(7.26875 255.610966535)scale(0.1 -0.1)">
       <use xlink:href="#BitstreamVeraSans-Roman-30"/>
       <use x="63.623046875" xlink:href="#BitstreamVeraSans-Roman-2e"/>
       <use x="95.41015625" xlink:href="#BitstreamVeraSans-Roman-30"/>
       <use x="159.033203125" xlink:href="#BitstreamVeraSans-Roman-36"/>
      </g>
     </g>
    </g>
    <g id="ytick_5">
     <g id="line2d_27">
      <defs>
       <path d="
M0 0
L4 0" id="mc6616867dc"/>
      </defs>
      <g>
       <use style="stroke:#000000;stroke-linecap:butt;stroke-width:0.5;" x="32.2453125" xlink:href="#mc6616867dc" y="202.293331367"/>
      </g>
     </g>
     <g id="text_9">
      <!-- 0.08 -->
      <g transform="translate(7.3234375 205.933175117)scale(0.1 -0.1)">
       <use xlink:href="#BitstreamVeraSans-Roman-30"/>
       <use x="63.623046875" xlink:href="#BitstreamVeraSans-Roman-2e"/>
       <use x="95.41015625" xlink:href="#BitstreamVeraSans-Roman-30"/>
       <use x="159.033203125" xlink:href="#BitstreamVeraSans-Roman-38"/>
      </g>
     </g>
    </g>
    <g id="ytick_6">
     <g id="line2d_28">
      <defs>
       <path d="
M0 0
L4 0" id="mc6616867dc"/>
      </defs>
      <g>
       <use style="stroke:#000000;stroke-linecap:butt;stroke-width:0.5;" x="32.2453125" xlink:href="#mc6616867dc" y="152.615539948"/>
      </g>
     </g>
     <g id="text_10">
      <!-- 0.1 -->
      <g transform="translate(13.925 156.255383698)scale(0.1 -0.1)">
       <use xlink:href="#BitstreamVeraSans-Roman-30"/>
       <use x="63.623046875" xlink:href="#BitstreamVeraSans-Roman-2e"/>
       <use x="95.41015625" xlink:href="#BitstreamVeraSans-Roman-31"/>
      </g>
     </g>
    </g>
    <g id="ytick_7">
     <g id="line2d_29">
      <defs>
       <path d="
M0 0
L4 0" id="mc6616867dc"/>
      </defs>
      <g>
       <use style="stroke:#000000;stroke-linecap:butt;stroke-width:0.5;" x="32.2453125" xlink:href="#mc6616867dc" y="102.937748529"/>
      </g>
     </g>
     <g id="text_11">
      <!-- 0.12 -->
      <g transform="translate(7.640625 106.577592279)scale(0.1 -0.1)">
       <use xlink:href="#BitstreamVeraSans-Roman-30"/>
       <use x="63.623046875" xlink:href="#BitstreamVeraSans-Roman-2e"/>
       <use x="95.41015625" xlink:href="#BitstreamVeraSans-Roman-31"/>
       <use x="159.033203125" xlink:href="#BitstreamVeraSans-Roman-32"/>
      </g>
     </g>
    </g>
    <g id="ytick_8">
     <g id="line2d_30">
      <defs>
       <path d="
M0 0
L4 0" id="mc6616867dc"/>
      </defs>
      <g>
       <use style="stroke:#000000;stroke-linecap:butt;stroke-width:0.5;" x="32.2453125" xlink:href="#mc6616867dc" y="53.2599571108"/>
      </g>
     </g>
     <g id="text_12">
      <!-- 0.14 -->
      <g transform="translate(7.2 56.8998008608)scale(0.1 -0.1)">
       <use xlink:href="#BitstreamVeraSans-Roman-30"/>
       <use x="63.623046875" xlink:href="#BitstreamVeraSans-Roman-2e"/>
       <use x="95.41015625" xlink:href="#BitstreamVeraSans-Roman-31"/>
       <use x="159.033203125" xlink:href="#BitstreamVeraSans-Roman-34"/>
      </g>
     </g>
    </g>
    <g id="ytick_9">
     <g id="line2d_31">
      <defs>
       <path d="
M0 0
L2 0" id="m832c4b3e51"/>
      </defs>
      <g>
       <use style="stroke:#000000;stroke-linecap:butt;stroke-width:0.5;" x="32.2453125" xlink:href="#m832c4b3e51" y="388.585049187"/>
      </g>
     </g>
    </g>
    <g id="ytick_10">
     <g id="line2d_32">
      <defs>
       <path d="
M0 0
L2 0" id="m832c4b3e51"/>
      </defs>
      <g>
       <use style="stroke:#000000;stroke-linecap:butt;stroke-width:0.5;" x="32.2453125" xlink:href="#m832c4b3e51" y="376.165601332"/>
      </g>
     </g>
    </g>
    <g id="ytick_11">
     <g id="line2d_33">
      <defs>
       <path d="
M0 0
L2 0" id="m832c4b3e51"/>
      </defs>
      <g>
       <use style="stroke:#000000;stroke-linecap:butt;stroke-width:0.5;" x="32.2453125" xlink:href="#m832c4b3e51" y="363.746153477"/>
      </g>
     </g>
    </g>
    <g id="ytick_12">
     <g id="line2d_34">
      <defs>
       <path d="
M0 0
L2 0" id="m832c4b3e51"/>
      </defs>
      <g>
       <use style="stroke:#000000;stroke-linecap:butt;stroke-width:0.5;" x="32.2453125" xlink:href="#m832c4b3e51" y="338.907257768"/>
      </g>
     </g>
    </g>
    <g id="ytick_13">
     <g id="line2d_35">
      <defs>
       <path d="
M0 0
L2 0" id="m832c4b3e51"/>
      </defs>
      <g>
       <use style="stroke:#000000;stroke-linecap:butt;stroke-width:0.5;" x="32.2453125" xlink:href="#m832c4b3e51" y="326.487809913"/>
      </g>
     </g>
    </g>
    <g id="ytick_14">
     <g id="line2d_36">
      <defs>
       <path d="
M0 0
L2 0" id="m832c4b3e51"/>
      </defs>
      <g>
       <use style="stroke:#000000;stroke-linecap:butt;stroke-width:0.5;" x="32.2453125" xlink:href="#m832c4b3e51" y="314.068362059"/>
      </g>
     </g>
    </g>
    <g id="ytick_15">
     <g id="line2d_37">
      <defs>
       <path d="
M0 0
L2 0" id="m832c4b3e51"/>
      </defs>
      <g>
       <use style="stroke:#000000;stroke-linecap:butt;stroke-width:0.5;" x="32.2453125" xlink:href="#m832c4b3e51" y="289.229466349"/>
      </g>
     </g>
    </g>
    <g id="ytick_16">
     <g id="line2d_38">
      <defs>
       <path d="
M0 0
L2 0" id="m832c4b3e51"/>
      </defs>
      <g>
       <use style="stroke:#000000;stroke-linecap:butt;stroke-width:0.5;" x="32.2453125" xlink:href="#m832c4b3e51" y="276.810018495"/>
      </g>
     </g>
    </g>
    <g id="ytick_17">
     <g id="line2d_39">
      <defs>
       <path d="
M0 0
L2 0" id="m832c4b3e51"/>
      </defs>
      <g>
       <use style="stroke:#000000;stroke-linecap:butt;stroke-width:0.5;" x="32.2453125" xlink:href="#m832c4b3e51" y="264.39057064"/>
      </g>
     </g>
    </g>
    <g id="ytick_18">
     <g id="line2d_40">
      <defs>
       <path d="
M0 0
L2 0" id="m832c4b3e51"/>
      </defs>
      <g>
       <use style="stroke:#000000;stroke-linecap:butt;stroke-width:0.5;" x="32.2453125" xlink:href="#m832c4b3e51" y="239.551674931"/>
      </g>
     </g>
    </g>
    <g id="ytick_19">
     <g id="line2d_41">
      <defs>
       <path d="
M0 0
L2 0" id="m832c4b3e51"/>
      </defs>
      <g>
       <use style="stroke:#000000;stroke-linecap:butt;stroke-width:0.5;" x="32.2453125" xlink:href="#m832c4b3e51" y="227.132227076"/>
      </g>
     </g>
    </g>
    <g id="ytick_20">
     <g id="line2d_42">
      <defs>
       <path d="
M0 0
L2 0" id="m832c4b3e51"/>
      </defs>
      <g>
       <use style="stroke:#000000;stroke-linecap:butt;stroke-width:0.5;" x="32.2453125" xlink:href="#m832c4b3e51" y="214.712779221"/>
      </g>
     </g>
    </g>
    <g id="ytick_21">
     <g id="line2d_43">
      <defs>
       <path d="
M0 0
L2 0" id="m832c4b3e51"/>
      </defs>
      <g>
       <use style="stroke:#000000;stroke-linecap:butt;stroke-width:0.5;" x="32.2453125" xlink:href="#m832c4b3e51" y="189.873883512"/>
      </g>
     </g>
    </g>
    <g id="ytick_22">
     <g id="line2d_44">
      <defs>
       <path d="
M0 0
L2 0" id="m832c4b3e51"/>
      </defs>
      <g>
       <use style="stroke:#000000;stroke-linecap:butt;stroke-width:0.5;" x="32.2453125" xlink:href="#m832c4b3e51" y="177.454435657"/>
      </g>
     </g>
    </g>
    <g id="ytick_23">
     <g id="line2d_45">
      <defs>
       <path d="
M0 0
L2 0" id="m832c4b3e51"/>
      </defs>
      <g>
       <use style="stroke:#000000;stroke-linecap:butt;stroke-width:0.5;" x="32.2453125" xlink:href="#m832c4b3e51" y="165.034987803"/>
      </g>
     </g>
    </g>
    <g id="ytick_24">
     <g id="line2d_46">
      <defs>
       <path d="
M0 0
L2 0" id="m832c4b3e51"/>
      </defs>
      <g>
       <use style="stroke:#000000;stroke-linecap:butt;stroke-width:0.5;" x="32.2453125" xlink:href="#m832c4b3e51" y="140.196092093"/>
      </g>
     </g>
    </g>
    <g id="ytick_25">
     <g id="line2d_47">
      <defs>
       <path d="
M0 0
L2 0" id="m832c4b3e51"/>
      </defs>
      <g>
       <use style="stroke:#000000;stroke-linecap:butt;stroke-width:0.5;" x="32.2453125" xlink:href="#m832c4b3e51" y="127.776644239"/>
      </g>
     </g>
    </g>
    <g id="ytick_26">
     <g id="line2d_48">
      <defs>
       <path d="
M0 0
L2 0" id="m832c4b3e51"/>
      </defs>
      <g>
       <use style="stroke:#000000;stroke-linecap:butt;stroke-width:0.5;" x="32.2453125" xlink:href="#m832c4b3e51" y="115.357196384"/>
      </g>
     </g>
    </g>
    <g id="ytick_27">
     <g id="line2d_49">
      <defs>
       <path d="
M0 0
L2 0" id="m832c4b3e51"/>
      </defs>
      <g>
       <use style="stroke:#000000;stroke-linecap:butt;stroke-width:0.5;" x="32.2453125" xlink:href="#m832c4b3e51" y="90.5183006748"/>
      </g>
     </g>
    </g>
    <g id="ytick_28">
     <g id="line2d_50">
      <defs>
       <path d="
M0 0
L2 0" id="m832c4b3e51"/>
      </defs>
      <g>
       <use style="stroke:#000000;stroke-linecap:butt;stroke-width:0.5;" x="32.2453125" xlink:href="#m832c4b3e51" y="78.0988528202"/>
      </g>
     </g>
    </g>
    <g id="ytick_29">
     <g id="line2d_51">
      <defs>
       <path d="
M0 0
L2 0" id="m832c4b3e51"/>
      </defs>
      <g>
       <use style="stroke:#000000;stroke-linecap:butt;stroke-width:0.5;" x="32.2453125" xlink:href="#m832c4b3e51" y="65.6794049655"/>
      </g>
     </g>
    </g>
    <g id="ytick_30">
     <g id="line2d_52">
      <defs>
       <path d="
M0 0
L2 0" id="m832c4b3e51"/>
      </defs>
      <g>
       <use style="stroke:#000000;stroke-linecap:butt;stroke-width:0.5;" x="32.2453125" xlink:href="#m832c4b3e51" y="40.8405092562"/>
      </g>
     </g>
    </g>
    <g id="ytick_31">
     <g id="line2d_53">
      <defs>
       <path d="
M0 0
L2 0" id="m832c4b3e51"/>
      </defs>
      <g>
       <use style="stroke:#000000;stroke-linecap:butt;stroke-width:0.5;" x="32.2453125" xlink:href="#m832c4b3e51" y="28.4210614015"/>
      </g>
     </g>
    </g>
    <g id="ytick_32">
     <g id="line2d_54">
      <defs>
       <path d="
M0 0
L2 0" id="m832c4b3e51"/>
      </defs>
      <g>
       <use style="stroke:#000000;stroke-linecap:butt;stroke-width:0.5;" x="32.2453125" xlink:href="#m832c4b3e51" y="16.0016135469"/>
      </g>
     </g>
    </g>
   </g>
   <g id="patch_3">
    <path d="
M21.9853 401.004
L555.505 401.004" style="fill:none;stroke:#000000;stroke-width:0.8;"/>
   </g>
   <g id="patch_4">
    <path d="
M32.2453 408.726
L32.2453 7.2" style="fill:none;stroke:#000000;stroke-width:0.8;"/>
   </g>
  </g>
 </g>
 <defs>
  <clipPath id="pe72b1a34b7">
   <rect height="401.526153846" width="533.519511328" x="21.9853229236" y="7.2"/>
  </clipPath>
 </defs>
</svg>
