<?xml version="1.0" encoding="utf-8" standalone="no"?>
<!DOCTYPE svg PUBLIC "-//W3C//DTD SVG 1.1//EN"
  "http://www.w3.org/Graphics/SVG/1.1/DTD/svg11.dtd">
<!-- Created with matplotlib (http://matplotlib.sourceforge.net/) -->
<svg height="419pt" version="1.1" viewBox="0 0 562 419" width="562pt" xmlns="http://www.w3.org/2000/svg" xmlns:xlink="http://www.w3.org/1999/xlink">
 <defs>
  <style type="text/css">
*{stroke-linecap:square;stroke-linejoin:round;}
  </style>
 </defs>
 <g id="figure_1">
  <g id="patch_1">
   <path d="
M2.22045e-16 419.769
L562.632 419.769
L562.632 0
L2.22045e-16 0
z
" style="fill:#ffffff;"/>
  </g>
  <g id="axes_1">
   <g id="patch_2">
    <path d="
M15.4995 408.726
L555.432 408.726
L555.432 7.2
L15.4995 7.2
z
" style="fill:#ffffff;"/>
   </g>
   <g id="line2d_1">
    <path clip-path="url(#p7ccc68d092)" d="
M25.8828 401.004
L25.9382 401.004
L26.0016 263.825
L26.0681 263.825
L26.1366 224.152
L26.2064 224.152
L26.2776 209.954
L26.3493 209.954
L26.4223 189.637
L26.4957 189.637
L26.5699 186.539
L26.6446 186.539
L26.7201 178.768
L26.7958 178.768
L26.8719 170.462
L26.9483 170.462
L27.0254 165.306
L27.1029 165.306
L27.1806 158.275
L27.2583 158.275
L27.3367 155.545
L27.4152 155.545
L27.4941 153.788
L27.5727 153.788
L27.652 150.064
L27.7324 150.064
L27.8117 148.603
L27.8916 148.603
L27.972 147.697
L28.0524 147.697
L28.1332 143.902
L28.2134 143.902
L28.2948 140.492
L28.376 140.492
L28.4568 138.86
L28.5384 138.86
L28.6199 136.928
L28.7017 136.928
L28.784 136.223
L28.8663 136.223
L28.9487 134.599
L29.0311 134.599
L29.1138 131.935
L29.1963 131.935
L29.2793 129.153
L29.3623 129.153
L29.445 126.775
L29.5278 126.775
L29.6111 125.299
L29.6946 125.299
L29.7783 124.217
L29.8619 124.217
L29.9459 123.658
L30.0294 123.658
L30.1141 123.139
L30.1978 123.139
L30.2824 122.202
L30.366 122.202
L30.45 121.387
L30.5348 121.387
L30.6199 120.43
L30.7041 120.43
L30.789 119.89
L30.8739 119.89
L30.9589 118.756
L31.0441 118.756
L31.1296 117.382
L31.2147 117.382
L31.3 116.705
L31.3852 116.705
L31.4704 116.336
L31.5559 116.336
L31.6414 115.738
L31.7269 115.738
L31.8132 115.188
L31.9845 115.087
L32.0705 114.946
L32.1566 114.946
L32.2429 114.494
L32.3285 114.494
L32.4153 113.807
L32.5011 113.807
L32.5876 112.982
L32.6748 112.982
L32.7614 111.849
L32.8481 111.849
L32.9354 111.086
L33.0217 111.086
L33.1079 110.42
L33.1954 110.42
L33.2824 109.455
L33.3688 109.455
L33.456 108.373
L33.5433 108.373
L33.6306 107.385
L33.7181 107.385
L33.8054 106.527
L33.8933 106.527
L33.9801 105.84
L34.0677 105.84
L34.1549 104.854
L34.2428 104.854
L34.3303 103.779
L34.4183 103.779
L34.5061 102.652
L34.5938 102.652
L34.6815 101.453
L34.7689 101.453
L34.8576 100.585
L34.9449 100.585
L35.0325 99.6502
L35.1208 99.6502
L35.2088 98.7022
L35.2976 98.7022
L35.3856 97.9874
L35.4742 97.9874
L35.5625 97.3897
L35.651 97.3897
L35.7395 97.0891
L35.9167 96.9787
L36.0053 96.7565
L36.1827 96.7278
L36.2712 96.3917
L36.3597 96.3917
L36.4492 95.8858
L36.5381 95.8858
L36.6269 95.2965
L36.7159 95.2965
L36.8048 94.8566
L36.8943 94.8566
L36.9833 94.376
L37.0724 94.376
L37.1613 93.7923
L37.2503 93.7923
L37.339 93.1913
L37.4295 93.1913
L37.5191 92.6466
L37.6083 92.6466
L37.6975 92.1018
L37.7869 92.1018
L37.8764 91.4692
L37.966 91.4692
L38.0556 91.167
L38.1452 91.167
L38.2351 90.9839
L38.4148 91.0303
L38.5036 91.3848
L38.5937 91.3848
L38.6837 91.6922
L38.8634 91.789
L38.9535 92.0399
L39.0442 92.0399
L39.1345 92.3245
L39.2246 92.3245
L39.314 92.6066
L39.4041 92.6066
L39.4945 92.738
L39.6743 92.6682
L39.7649 92.5906
L40.307 92.6643
L40.3976 92.872
L40.7595 92.8264
L40.8509 92.5594
L40.9416 92.5594
L41.0327 92.2737
L41.1231 92.2737
L41.2143 91.9546
L41.3049 91.9546
L41.3958 91.5588
L41.4859 91.5588
L41.5762 91.0954
L41.6669 91.0954
L41.7584 90.5882
L41.8488 90.5882
L41.9396 90.2237
L42.0319 90.2237
L42.123 89.9259
L42.2142 89.9259
L42.3056 89.5012
L42.3969 89.5012
L42.4879 89.0356
L42.5788 89.0356
L42.6705 88.6687
L42.7615 88.6687
L42.8527 88.3225
L42.9443 88.3225
L43.0356 87.9222
L43.127 87.9222
L43.2177 87.4538
L43.3094 87.4538
L43.4012 87.2214
L43.4922 87.2214
L43.5848 86.9728
L43.6771 86.9728
L43.7696 86.7
L43.8608 86.7
L43.953 86.2969
L44.0443 86.2969
L44.1365 85.6852
L44.2281 85.6852
L44.32 85.0902
L44.4117 85.0902
L44.5035 84.4222
L44.5953 84.4222
L44.6877 83.7586
L44.779 83.7586
L44.8712 83.2075
L44.9636 83.2075
L45.0562 82.5893
L45.1473 82.5893
L45.2394 81.9175
L45.3317 81.9175
L45.4234 81.2807
L45.5158 81.2807
L45.6082 80.8063
L45.6998 80.8063
L45.7913 80.3472
L45.8832 80.3472
L45.9762 79.8447
L46.0675 79.8447
L46.16 79.3473
L46.2519 79.3473
L46.3436 78.8802
L46.4358 78.8802
L46.5278 78.5569
L46.6207 78.5569
L46.7132 78.2467
L46.8055 78.2467
L46.8978 77.966
L46.991 77.966
L47.0824 77.6962
L47.2679 77.6188
L47.3609 77.37
L47.4535 77.37
L47.5469 77.108
L47.7329 77.0023
L47.8249 76.8178
L47.9176 76.8178
L48.0103 76.5487
L48.103 76.5487
L48.1966 76.2744
L48.2895 76.2744
L48.3824 75.9859
L48.4747 75.9859
L48.5681 75.7046
L48.6611 75.7046
L48.7537 75.4707
L48.8472 75.4707
L48.9402 75.1696
L49.0328 75.1696
L49.1251 74.8286
L49.2187 74.8286
L49.3113 74.526
L49.4042 74.526
L49.4963 74.3264
L49.6829 74.2297
L49.7754 74.0415
L49.9624 73.9574
L50.0558 73.9113
L51.0833 74.0221
L51.1773 74.1154
L51.5509 74.185
L51.6436 74.2378
L52.5801 74.1408
L52.6737 74.062
L52.9551 73.959
L53.0494 73.8732
L53.6125 73.8208
L53.7073 73.6791
L53.8951 73.5984
L53.9889 73.4777
L54.2715 73.3819
L54.3663 73.2905
L54.7431 73.1952
L54.8363 73.1617
L55.2135 73.0688
L55.3074 72.987
L56.1566 72.8801
L56.2509 72.8078
L56.4387 72.7388
L56.5335 72.5269
L56.7238 72.4307
L56.8181 72.202
L57.0068 72.1136
L57.1018 71.9419
L57.2902 71.8595
L57.3849 71.7204
L57.5733 71.6225
L57.6688 71.4138
L57.8593 71.3141
L57.954 71.1668
L58.2377 71.081
L58.3327 70.9514
L58.5224 70.845
L58.6175 70.6685
L58.8068 70.593
L58.9015 70.3742
L59.0904 70.275
L59.1852 70.1014
L59.3753 70.0092
L59.4709 69.8295
L59.6612 69.7365
L59.7567 69.4891
L59.8517 69.4891
L59.9465 69.2214
L60.0421 69.2214
L60.1367 68.9379
L60.2316 68.9379
L60.3255 68.7043
L60.4204 68.7043
L60.5152 68.4816
L60.6105 68.4816
L60.7061 68.2429
L60.8011 68.2429
L60.8957 68.0077
L61.086 67.9068
L61.1808 67.7126
L61.3716 67.6174
L61.4673 67.4432
L61.658 67.3522
L61.7534 67.1764
L61.9438 67.0953
L62.0389 66.9075
L62.23 66.8177
L62.3253 66.6614
L62.5152 66.6048
L62.6112 66.475
L62.8025 66.3929
L62.8981 66.193
L63.088 66.0955
L63.1845 65.9318
L63.3744 65.859
L63.4697 65.718
L63.6615 65.6487
L63.7564 65.5065
L63.9481 65.4221
L64.0442 65.269
L64.2348 65.1858
L64.3307 65.0259
L64.5229 64.9219
L64.6185 64.7406
L64.8101 64.6604
L64.906 64.5235
L65.4793 64.4329
L65.5755 64.3857
L67.6889 64.2947
L67.7855 64.2166
L69.6133 64.3237
L69.6133 64.3283
L69.7095 64.3283
L69.7095 64.3283
L69.8058 64.2914
L71.6395 64.3944
L71.7354 64.4515
L72.7997 64.3425
L72.8967 64.243
L73.0901 64.1828
L73.1871 64.0647
L73.477 63.9827
L73.574 63.8867
L73.7675 63.8251
L73.865 63.7053
L74.155 63.6034
L74.2527 63.5141
L74.544 63.4145
L74.6404 63.3127
L74.8341 63.2534
L74.9311 63.1234
L75.1244 63.0631
L75.2205 62.9521
L75.5113 62.8527
L75.6094 62.7606
L75.9004 62.6606
L75.9979 62.5646
L76.288 62.4586
L76.3858 62.3563
L76.6756 62.26
L76.7733 62.1554
L77.0647 62.0834
L77.1625 61.9752
L77.3574 61.9045
L77.4557 61.7365
L77.6495 61.654
L77.7468 61.483
L77.9408 61.4068
L78.0386 61.2306
L78.2342 61.1449
L78.3309 61.0147
L78.5249 60.9591
L78.6222 60.8313
L78.8169 60.7606
L78.9144 60.6215
L79.1078 60.5469
L79.2054 60.3941
L79.4 60.3265
L79.4983 60.1882
L79.6929 60.1214
L79.7907 59.9823
L80.0812 59.8737
L80.1789 59.7715
L80.3743 59.7095
L80.4717 59.6126
L80.6669 59.5578
L80.7649 59.4323
L80.9598 59.3681
L81.0582 59.2551
L81.253 59.1982
L81.3506 59.0795
L81.5456 59.0182
L81.6426 58.8971
L81.9359 58.7981
L82.0335 58.7143
L82.618 58.6097
L82.7154 58.5693
L83.008 58.4979
L83.1057 58.4095
L83.4005 58.3231
L83.498 58.2433
L83.6939 58.1857
L83.7923 58.0504
L83.9879 57.9846
L84.0854 57.8656
L84.2815 57.8073
L84.3793 57.6715
L84.5751 57.6014
L84.6722 57.4806
L84.869 57.4222
L84.9676 57.2874
L85.1635 57.219
L85.261 57.106
L85.4584 57.0523
L85.5562 56.9315
L85.7521 56.8702
L85.8507 56.7556
L86.047 56.6941
L86.1438 56.5861
L86.4376 56.5039
L86.5361 56.41
L86.8305 56.3063
L86.9289 56.1668
L87.1247 56.1012
L87.2232 55.9903
L87.5172 55.8826
L87.6162 55.7115
L87.8138 55.6204
L87.9119 55.4517
L88.1085 55.3728
L88.2058 55.2255
L88.4025 55.149
L88.5013 55.0182
L88.6984 54.9467
L88.7961 54.8134
L88.9931 54.7469
L89.0912 54.6131
L89.2874 54.5529
L89.3862 54.4469
L89.5839 54.3895
L89.6812 54.2733
L89.8783 54.2098
L89.976 54.0883
L90.1726 54.0274
L90.2704 53.9261
L90.5661 53.8351
L90.664 53.7633
L90.959 53.6808
L91.0576 53.6017
L91.4509 53.507
L91.5492 53.4452
L91.8447 53.3608
L91.9434 53.2902
L93.2236 53.1908
L93.3224 53.1536
L94.0134 53.0433
L94.0134 53.0403
L94.1118 53.0403
L94.1118 53.0403
L94.1118 53.0438
L94.211 53.0414
L95.3975 52.9363
L95.4964 52.8802
L95.8912 52.7728
L95.9895 52.6708
L96.2867 52.5918
L96.3864 52.5001
L96.6834 52.4031
L96.7812 52.31
L97.0779 52.2022
L97.1773 52.0939
L97.3742 52.0429
L97.4739 51.9195
L97.6734 51.8562
L97.7716 51.7396
L97.9701 51.6831
L98.0685 51.573
L98.2665 51.5166
L98.3656 51.3875
L98.6616 51.2797
L98.7614 51.155
L98.9595 51.0965
L99.0598 50.9809
L99.3576 50.871
L99.4563 50.7725
L99.8508 50.6699
L99.9505 50.5982
L100.346 50.506
L100.445 50.4323
L100.742 50.3409
L100.841 50.2536
L101.139 50.1633
L101.239 50.0793
L101.636 49.9875
L101.734 49.9321
L102.23 49.8283
L102.329 49.7867
L102.926 49.6767
L103.025 49.6224
L103.523 49.5288
L103.621 49.4795
L104.119 49.3784
L104.219 49.3145
L104.617 49.2138
L104.717 49.1581
L105.117 49.0584
L105.215 48.98
L105.613 48.8845
L105.712 48.8196
L106.31 48.7252
L106.409 48.6844
L107.305 48.582
L107.404 48.5491
L108.003 48.4428
L108.103 48.4034
L109.598 48.2967
L109.699 48.2654
L110.298 48.1684
L110.398 48.1396
L110.995 48.0493
L111.096 47.9852
L111.496 47.8768
L111.596 47.8057
L111.897 47.7273
L111.997 47.6558
L112.395 47.5685
L112.495 47.5092
L113.195 47.4023
L113.295 47.3827
L113.893 47.2903
L113.994 47.239
L114.694 47.131
L114.793 47.109
L118.298 47.2177
L118.398 47.2312
L121.714 47.3413
L121.814 47.3554
L127.048 47.2631
L127.148 47.2208
L130.48 47.1216
L130.581 47.0986
L131.995 46.9878
L132.095 46.9549
L132.702 46.8519
L132.803 46.8226
L133.611 46.7145
L133.712 46.6945
L134.925 46.59
L135.027 46.5683
L135.736 46.4735
L135.836 46.4357
L136.545 46.3284
L136.647 46.2878
L137.155 46.1889
L137.256 46.1323
L137.659 46.0455
L137.761 45.9892
L138.166 45.8978
L138.267 45.8417
L138.774 45.7406
L138.877 45.6932
L139.384 45.6053
L139.485 45.5584
L140.196 45.4489
L140.298 45.4137
L140.805 45.3106
L140.907 45.2471
L141.312 45.1517
L141.413 45.1009
L141.918 44.9942
L142.019 44.943
L142.63 44.8444
L142.731 44.811
L143.443 44.7012
L143.544 44.6595
L144.358 44.558
L144.46 44.5352
L145.476 44.4277
L145.577 44.4154
L147.715 44.3142
L147.816 44.2874
L148.426 44.1791
L148.527 44.1338
L149.137 44.043
L149.239 43.9972
L150.155 43.8863
L150.256 43.8612
L150.866 43.7724
L150.967 43.719
L151.478 43.6172
L151.58 43.5577
L151.99 43.4721
L152.092 43.4176
L152.704 43.3209
L152.806 43.2946
L154.844 43.1848
L154.946 43.1517
L155.559 43.0569
L155.661 43.0141
L156.375 42.9036
L156.477 42.8674
L157.091 42.7588
L157.193 42.7066
L157.602 42.6227
L157.704 42.5543
L158.214 42.4502
L158.316 42.4078
L158.827 42.303
L158.929 42.2458
L159.441 42.1382
L159.543 42.0855
L159.952 42.0017
L160.054 41.9476
L160.565 41.8437
L160.667 41.791
L161.18 41.6914
L161.283 41.6476
L161.896 41.54
L161.997 41.5049
L162.611 41.4121
L162.714 41.377
L163.33 41.2829
L163.432 41.2483
L164.354 41.156
L164.456 41.111
L164.968 41.0119
L165.071 40.9664
L165.583 40.8739
L165.685 40.8314
L166.199 40.7414
L166.302 40.6945
L166.816 40.5894
L166.919 40.5364
L167.43 40.4384
L167.534 40.3974
L168.148 40.2898
L168.251 40.2397
L168.763 40.1411
L168.865 40.096
L169.378 39.9998
L169.482 39.9537
L169.993 39.8616
L170.095 39.8196
L170.61 39.7186
L170.713 39.6643
L171.226 39.5706
L171.329 39.5177
L171.842 39.4156
L171.944 39.3679
L172.458 39.2602
L172.561 39.2082
L173.075 39.1082
L173.177 39.0645
L173.692 38.9711
L173.795 38.9161
L174.311 38.8103
L174.412 38.7627
L175.133 38.6633
L175.236 38.629
L175.955 38.5186
L176.058 38.4737
L176.573 38.3805
L176.676 38.3365
L177.396 38.2273
L177.498 38.1959
L178.527 38.0851
L178.63 38.0599
L181 37.9542
L181.104 37.9253
L181.927 37.8153
L182.03 37.7799
L182.648 37.6759
L182.75 37.638
L183.37 37.5419
L183.473 37.4986
L183.99 37.4052
L184.092 37.3558
L184.711 37.2495
L184.813 37.2111
L185.535 37.1086
L185.639 37.074
L186.256 36.981
L186.359 36.9342
L186.875 36.8354
L186.978 36.7892
L187.599 36.6872
L187.703 36.649
L188.527 36.5417
L188.631 36.5044
L189.25 36.4041
L189.354 36.3705
L190.181 36.2611
L190.285 36.2322
L191.216 36.1212
L191.319 36.0916
L191.941 35.9951
L192.044 35.9572
L192.664 35.8537
L192.768 35.8097
L193.492 35.7014
L193.596 35.6653
L194.216 35.5649
L194.321 35.5176
L194.941 35.4107
L195.044 35.3615
L195.457 35.2755
L195.562 35.2137
L195.976 35.1128
L196.079 35.0467
L196.493 34.9425
L196.598 34.8747
L197.01 34.7773
L197.113 34.7166
L197.53 34.6292
L197.634 34.5677
L198.048 34.4812
L198.151 34.4256
L198.669 34.3267
L198.772 34.2819
L199.396 34.1807
L199.499 34.1392
L200.015 34.048
L200.119 34.0053
L200.639 33.9081
L200.743 33.8578
L201.365 33.7533
L201.469 33.714
L202.091 33.6219
L202.195 33.579
L202.816 33.4761
L202.919 33.4413
L203.645 33.3361
L203.749 33.3034
L204.475 33.1952
L204.579 33.1552
L205.097 33.0501
L205.202 32.9896
L205.617 32.903
L205.719 32.8519
L206.136 32.7635
L206.24 32.7075
L206.76 32.6127
L206.865 32.5695
L207.487 32.4618
L207.59 32.4192
L208.213 32.3111
L208.318 32.262
L208.838 32.1712
L208.941 32.1301
L209.772 32.022
L209.876 31.9997
L211.019 31.8993
L211.123 31.876
L214.142 31.7659
L214.247 31.7514
L216.431 31.6429
L216.535 31.6296
L217.994 31.5249
L218.098 31.5111
L221.431 31.4004
L221.536 31.3864
L227.898 31.2785
L228.002 31.2593
L230.302 31.1485
L230.407 31.1421
L235.112 31.0327
L235.217 31.0085
L236.054 30.907
L236.158 30.8805
L237.308 30.7728
L237.413 30.7461
L238.251 30.6427
L238.357 30.6214
L239.403 30.5186
L239.508 30.4937
L240.661 30.3876
L240.765 30.3649
L241.812 30.2602
L241.917 30.2305
L242.649 30.1297
L242.754 30.0959
L243.595 29.9857
L243.7 29.9591
L244.749 29.8516
L244.854 29.8298
L246.112 29.7213
L246.217 29.7032
L247.789 29.5947
L247.894 29.5764
L249.783 29.4674
L249.888 29.4546
L251.464 29.3457
L251.569 29.3269
L252.935 29.2228
L253.04 29.2048
L254.407 29.0946
L254.512 29.0774
L256.084 28.9719
L256.189 28.961
L258.819 28.85
L258.925 28.8389
L267.03 28.9497
L267.136 28.9567
L270.613 29.0657
L270.718 29.0757
L272.197 29.184
L272.303 29.2083
L273.78 29.3129
L273.885 29.3271
L275.886 29.4375
L275.992 29.4501
L279.16 29.5606
L279.267 29.5653
L281.592 29.67
L281.697 29.6829
L289.74 29.572
L289.846 29.5663
L302.882 29.459
L302.988 29.4482
L306.7 29.3381
L306.806 29.3328
L310.42 29.2239
L310.526 29.2063
L311.905 29.1013
L312.011 29.0841
L313.178 28.9793
L313.284 28.9559
L314.349 28.8453
L314.455 28.8223
L315.519 28.7188
L315.624 28.6951
L316.69 28.592
L316.795 28.5668
L317.964 28.4593
L318.071 28.4366
L319.348 28.3272
L319.455 28.31
L321.797 28.2006
L321.903 28.1918
L325.736 28.0826
L325.843 28.0767
L327.973 27.9703
L328.081 27.9535
L329.358 27.8499
L329.465 27.8319
L331.065 27.7265
L331.171 27.7065
L332.343 27.6051
L332.45 27.5852
L333.728 27.4811
L333.835 27.4605
L335.113 27.3523
L335.219 27.3296
L336.179 27.2299
L336.285 27.2063
L337.355 27.1054
L337.461 27.0833
L338.42 26.9848
L338.527 26.9584
L339.697 26.8506
L339.804 26.8346
L341.194 26.7244
L341.302 26.7083
L342.584 26.6039
L342.691 26.585
L344.185 26.4745
L344.291 26.4595
L346.002 26.3485
L346.109 26.3367
L348.248 26.227
L348.356 26.2149
L350.28 26.1051
L350.387 26.09
L351.989 25.9792
L352.096 25.9632
L353.38 25.8573
L353.488 25.8347
L354.774 25.7267
L354.881 25.7091
L356.378 25.6061
L356.485 25.5878
L357.555 25.4805
L357.662 25.4585
L358.624 25.3512
L358.732 25.3251
L359.696 25.2168
L359.804 25.1931
L361.197 25.0853
L361.304 25.0644
L362.482 24.954
L362.589 24.9286
L363.552 24.8285
L363.659 24.803
L364.625 24.6995
L364.732 24.6765
L366.017 24.5677
L366.125 24.5484
L367.517 24.4412
L367.625 24.4243
L369.017 24.3133
L369.124 24.2918
L370.196 24.1892
L370.303 24.1623
L371.377 24.0588
L371.484 24.036
L372.448 23.9297
L372.557 23.8996
L373.523 23.793
L373.631 23.768
L374.704 23.6656
L374.811 23.6417
L376.099 23.5324
L376.207 23.5207
L377.712 23.4168
L377.819 23.3986
L379.107 23.2931
L379.214 23.2748
L380.398 23.1728
L380.507 23.1508
L381.793 23.0402
L381.9 23.0223
L383.295 22.9173
L383.402 22.9035
L385.12 22.7936
L385.227 22.7816
L387.16 22.6752
L387.268 22.6642
L388.776 22.557
L388.883 22.5381
L390.28 22.4329
L390.387 22.4173
L392.647 22.3082
L392.754 22.3001
L395.337 22.191
L395.444 22.181
L397.815 22.0735
L397.922 22.0626
L399.754 21.9534
L399.861 21.9427
L403.306 21.8347
L403.413 21.8279
L407.511 21.7169
L407.619 21.7102
L410.421 21.6035
L410.528 21.5899
L412.146 21.4832
L412.253 21.4696
L414.09 21.3616
L414.198 21.3474
L416.035 21.2376
L416.143 21.2228
L418.514 21.1131
L418.622 21.1096
L428.887 20.9987
L428.996 20.9877
L431.049 20.8784
L431.158 20.8691
L433.749 20.7618
L433.857 20.7514
L435.91 20.646
L436.018 20.6339
L437.748 20.5279
L437.858 20.5102
L439.264 20.4044
L439.372 20.3858
L440.775 20.2772
L440.884 20.2598
L442.184 20.1522
L442.293 20.1347
L444.024 20.0262
L444.132 20.0126
L445.54 19.9088
L445.648 19.8929
L447.38 19.7827
L447.488 19.7669
L449.005 19.6582
L449.115 19.6398
L450.628 19.5355
L450.738 19.5208
L452.472 19.4113
L452.58 19.3944
L454.208 19.2893
L454.316 19.2756
L455.942 19.1664
L456.05 19.1531
L457.568 19.0489
L457.677 19.0308
L458.978 18.9236
L459.086 18.9027
L460.605 18.7963
L460.714 18.7801
L462.665 18.6694
L462.775 18.661
L464.944 18.5504
L465.051 18.5453
L469.286 18.4353
L469.394 18.4263
L471.675 18.32
L471.783 18.3101
L473.743 18.206
L473.851 18.1911
L475.589 18.0822
L475.698 18.0676
L477.76 17.9566
L477.869 17.9425
L479.282 17.8409
L479.391 17.8215
L480.588 17.7159
L480.696 17.6972
L482.004 17.5944
L482.112 17.5763
L483.527 17.4716
L483.635 17.4543
L485.049 17.3488
L485.157 17.3315
L486.682 17.2237
L486.791 17.2095
L488.205 17.1064
L488.314 17.0892
L489.728 16.9822
L489.838 16.9657
L491.362 16.8613
L491.472 16.8456
L493.324 16.7384
L493.432 16.7275
L495.284 16.6224
L495.392 16.609
L497.241 16.5005
L497.351 16.4872
L499.199 16.3772
L499.307 16.3632
L501.049 16.2593
L501.158 16.245
L503.009 16.137
L503.118 16.1257
L505.844 16.0178
L505.952 16.0097
L508.79 15.9015
L508.9 15.8874
L510.424 15.7844
L510.534 15.7678
L512.058 15.6624
L512.169 15.6458
L513.698 15.5375
L513.808 15.5206
L515.445 15.4158
L515.554 15.4023
L517.626 15.2962
L517.734 15.284
L520.137 15.1734
L520.246 15.1641
L523.628 15.0563
L523.737 15.049
L532.914 14.9382
L533.023 14.9368
L542.642 15.0441
L542.752 15.0547
L545.048 15.1319
L545.048 15.1357" style="fill:none;stroke:#ff0000;stroke-width:0.5;"/>
   </g>
   <g id="matplotlib.axis_1">
    <g id="xtick_1">
     <g id="line2d_2">
      <defs>
       <path d="
M0 0
L0 -4" id="md674964c73"/>
      </defs>
      <g>
       <use style="stroke:#000000;stroke-linecap:butt;stroke-width:0.5;" x="25.8828125" xlink:href="#md674964c73" y="401.004497041"/>
      </g>
     </g>
    </g>
    <g id="xtick_2">
     <g id="line2d_3">
      <defs>
       <path d="
M0 0
L0 -4" id="md674964c73"/>
      </defs>
      <g>
       <use style="stroke:#000000;stroke-linecap:butt;stroke-width:0.5;" x="129.721379989" xlink:href="#md674964c73" y="401.004497041"/>
      </g>
     </g>
     <g id="text_1">
      <!-- 2e8 -->
      <defs>
       <path d="
M19.1875 8.29688
L53.6094 8.29688
L53.6094 0
L7.32812 0
L7.32812 8.29688
Q12.9375 14.1094 22.625 23.8906
Q32.3281 33.6875 34.8125 36.5312
Q39.5469 41.8438 41.4219 45.5312
Q43.3125 49.2188 43.3125 52.7812
Q43.3125 58.5938 39.2344 62.25
Q35.1562 65.9219 28.6094 65.9219
Q23.9688 65.9219 18.8125 64.3125
Q13.6719 62.7031 7.8125 59.4219
L7.8125 69.3906
Q13.7656 71.7812 18.9375 73
Q24.125 74.2188 28.4219 74.2188
Q39.75 74.2188 46.4844 68.5469
Q53.2188 62.8906 53.2188 53.4219
Q53.2188 48.9219 51.5312 44.8906
Q49.8594 40.875 45.4062 35.4062
Q44.1875 33.9844 37.6406 27.2188
Q31.1094 20.4531 19.1875 8.29688" id="BitstreamVeraSans-Roman-32"/>
       <path d="
M56.2031 29.5938
L56.2031 25.2031
L14.8906 25.2031
Q15.4844 15.9219 20.4844 11.0625
Q25.4844 6.20312 34.4219 6.20312
Q39.5938 6.20312 44.4531 7.46875
Q49.3125 8.73438 54.1094 11.2812
L54.1094 2.78125
Q49.2656 0.734375 44.1875 -0.34375
Q39.1094 -1.42188 33.8906 -1.42188
Q20.7969 -1.42188 13.1562 6.1875
Q5.51562 13.8125 5.51562 26.8125
Q5.51562 40.2344 12.7656 48.1094
Q20.0156 56 32.3281 56
Q43.3594 56 49.7812 48.8906
Q56.2031 41.7969 56.2031 29.5938
M47.2188 32.2344
Q47.125 39.5938 43.0938 43.9844
Q39.0625 48.3906 32.4219 48.3906
Q24.9062 48.3906 20.3906 44.1406
Q15.875 39.8906 15.1875 32.1719
z
" id="BitstreamVeraSans-Roman-65"/>
       <path d="
M31.7812 34.625
Q24.75 34.625 20.7188 30.8594
Q16.7031 27.0938 16.7031 20.5156
Q16.7031 13.9219 20.7188 10.1562
Q24.75 6.39062 31.7812 6.39062
Q38.8125 6.39062 42.8594 10.1719
Q46.9219 13.9688 46.9219 20.5156
Q46.9219 27.0938 42.8906 30.8594
Q38.875 34.625 31.7812 34.625
M21.9219 38.8125
Q15.5781 40.375 12.0312 44.7188
Q8.5 49.0781 8.5 55.3281
Q8.5 64.0625 14.7188 69.1406
Q20.9531 74.2188 31.7812 74.2188
Q42.6719 74.2188 48.875 69.1406
Q55.0781 64.0625 55.0781 55.3281
Q55.0781 49.0781 51.5312 44.7188
Q48 40.375 41.7031 38.8125
Q48.8281 37.1562 52.7969 32.3125
Q56.7812 27.4844 56.7812 20.5156
Q56.7812 9.90625 50.3125 4.23438
Q43.8438 -1.42188 31.7812 -1.42188
Q19.7344 -1.42188 13.25 4.23438
Q6.78125 9.90625 6.78125 20.5156
Q6.78125 27.4844 10.7812 32.3125
Q14.7969 37.1562 21.9219 38.8125
M18.3125 54.3906
Q18.3125 48.7344 21.8438 45.5625
Q25.3906 42.3906 31.7812 42.3906
Q38.1406 42.3906 41.7188 45.5625
Q45.3125 48.7344 45.3125 54.3906
Q45.3125 60.0625 41.7188 63.2344
Q38.1406 66.4062 31.7812 66.4062
Q25.3906 66.4062 21.8438 63.2344
Q18.3125 60.0625 18.3125 54.3906" id="BitstreamVeraSans-Roman-38"/>
      </defs>
      <g transform="translate(120.990911239 412.426372041)scale(0.1 -0.1)">
       <use xlink:href="#BitstreamVeraSans-Roman-32"/>
       <use x="63.623046875" xlink:href="#BitstreamVeraSans-Roman-65"/>
       <use x="125.146484375" xlink:href="#BitstreamVeraSans-Roman-38"/>
      </g>
     </g>
    </g>
    <g id="xtick_3">
     <g id="line2d_4">
      <defs>
       <path d="
M0 0
L0 -4" id="md674964c73"/>
      </defs>
      <g>
       <use style="stroke:#000000;stroke-linecap:butt;stroke-width:0.5;" x="233.559947478" xlink:href="#md674964c73" y="401.004497041"/>
      </g>
     </g>
     <g id="text_2">
      <!-- 4e8 -->
      <defs>
       <path d="
M37.7969 64.3125
L12.8906 25.3906
L37.7969 25.3906
z

M35.2031 72.9062
L47.6094 72.9062
L47.6094 25.3906
L58.0156 25.3906
L58.0156 17.1875
L47.6094 17.1875
L47.6094 0
L37.7969 0
L37.7969 17.1875
L4.89062 17.1875
L4.89062 26.7031
z
" id="BitstreamVeraSans-Roman-34"/>
      </defs>
      <g transform="translate(224.707603728 412.426372041)scale(0.1 -0.1)">
       <use xlink:href="#BitstreamVeraSans-Roman-34"/>
       <use x="63.623046875" xlink:href="#BitstreamVeraSans-Roman-65"/>
       <use x="125.146484375" xlink:href="#BitstreamVeraSans-Roman-38"/>
      </g>
     </g>
    </g>
    <g id="xtick_4">
     <g id="line2d_5">
      <defs>
       <path d="
M0 0
L0 -4" id="md674964c73"/>
      </defs>
      <g>
       <use style="stroke:#000000;stroke-linecap:butt;stroke-width:0.5;" x="337.398514967" xlink:href="#md674964c73" y="401.004497041"/>
      </g>
     </g>
     <g id="text_3">
      <!-- 6e8 -->
      <defs>
       <path d="
M33.0156 40.375
Q26.375 40.375 22.4844 35.8281
Q18.6094 31.2969 18.6094 23.3906
Q18.6094 15.5312 22.4844 10.9531
Q26.375 6.39062 33.0156 6.39062
Q39.6562 6.39062 43.5312 10.9531
Q47.4062 15.5312 47.4062 23.3906
Q47.4062 31.2969 43.5312 35.8281
Q39.6562 40.375 33.0156 40.375
M52.5938 71.2969
L52.5938 62.3125
Q48.875 64.0625 45.0938 64.9844
Q41.3125 65.9219 37.5938 65.9219
Q27.8281 65.9219 22.6719 59.3281
Q17.5312 52.7344 16.7969 39.4062
Q19.6719 43.6562 24.0156 45.9219
Q28.375 48.1875 33.5938 48.1875
Q44.5781 48.1875 50.9531 41.5156
Q57.3281 34.8594 57.3281 23.3906
Q57.3281 12.1562 50.6875 5.35938
Q44.0469 -1.42188 33.0156 -1.42188
Q20.3594 -1.42188 13.6719 8.26562
Q6.98438 17.9688 6.98438 36.375
Q6.98438 53.6562 15.1875 63.9375
Q23.3906 74.2188 37.2031 74.2188
Q40.9219 74.2188 44.7031 73.4844
Q48.4844 72.75 52.5938 71.2969" id="BitstreamVeraSans-Roman-36"/>
      </defs>
      <g transform="translate(328.650858717 412.426372041)scale(0.1 -0.1)">
       <use xlink:href="#BitstreamVeraSans-Roman-36"/>
       <use x="63.623046875" xlink:href="#BitstreamVeraSans-Roman-65"/>
       <use x="125.146484375" xlink:href="#BitstreamVeraSans-Roman-38"/>
      </g>
     </g>
    </g>
    <g id="xtick_5">
     <g id="line2d_6">
      <defs>
       <path d="
M0 0
L0 -4" id="md674964c73"/>
      </defs>
      <g>
       <use style="stroke:#000000;stroke-linecap:butt;stroke-width:0.5;" x="441.237082456" xlink:href="#md674964c73" y="401.004497041"/>
      </g>
     </g>
     <g id="text_4">
      <!-- 8e8 -->
      <g transform="translate(432.479269956 412.426372041)scale(0.1 -0.1)">
       <use xlink:href="#BitstreamVeraSans-Roman-38"/>
       <use x="63.623046875" xlink:href="#BitstreamVeraSans-Roman-65"/>
       <use x="125.146484375" xlink:href="#BitstreamVeraSans-Roman-38"/>
      </g>
     </g>
    </g>
    <g id="xtick_6">
     <g id="line2d_7">
      <defs>
       <path d="
M0 0
L0 -4" id="md674964c73"/>
      </defs>
      <g>
       <use style="stroke:#000000;stroke-linecap:butt;stroke-width:0.5;" x="545.075649945" xlink:href="#md674964c73" y="401.004497041"/>
      </g>
     </g>
     <g id="text_5">
      <!-- 1e9 -->
      <defs>
       <path d="
M10.9844 1.51562
L10.9844 10.5
Q14.7031 8.73438 18.5 7.8125
Q22.3125 6.89062 25.9844 6.89062
Q35.75 6.89062 40.8906 13.4531
Q46.0469 20.0156 46.7812 33.4062
Q43.9531 29.2031 39.5938 26.9531
Q35.25 24.7031 29.9844 24.7031
Q19.0469 24.7031 12.6719 31.3125
Q6.29688 37.9375 6.29688 49.4219
Q6.29688 60.6406 12.9375 67.4219
Q19.5781 74.2188 30.6094 74.2188
Q43.2656 74.2188 49.9219 64.5156
Q56.5938 54.8281 56.5938 36.375
Q56.5938 19.1406 48.4062 8.85938
Q40.2344 -1.42188 26.4219 -1.42188
Q22.7031 -1.42188 18.8906 -0.6875
Q15.0938 0.046875 10.9844 1.51562
M30.6094 32.4219
Q37.25 32.4219 41.125 36.9531
Q45.0156 41.5 45.0156 49.4219
Q45.0156 57.2812 41.125 61.8438
Q37.25 66.4062 30.6094 66.4062
Q23.9688 66.4062 20.0938 61.8438
Q16.2188 57.2812 16.2188 49.4219
Q16.2188 41.5 20.0938 36.9531
Q23.9688 32.4219 30.6094 32.4219" id="BitstreamVeraSans-Roman-39"/>
       <path d="
M12.4062 8.29688
L28.5156 8.29688
L28.5156 63.9219
L10.9844 60.4062
L10.9844 69.3906
L28.4219 72.9062
L38.2812 72.9062
L38.2812 8.29688
L54.3906 8.29688
L54.3906 0
L12.4062 0
z
" id="BitstreamVeraSans-Roman-31"/>
      </defs>
      <g transform="translate(536.537368695 412.426372041)scale(0.1 -0.1)">
       <use xlink:href="#BitstreamVeraSans-Roman-31"/>
       <use x="63.623046875" xlink:href="#BitstreamVeraSans-Roman-65"/>
       <use x="125.146484375" xlink:href="#BitstreamVeraSans-Roman-39"/>
      </g>
     </g>
    </g>
    <g id="xtick_7">
     <g id="line2d_8">
      <defs>
       <path d="
M0 0
L0 -2" id="m7d32135d2a"/>
      </defs>
      <g>
       <use style="stroke:#000000;stroke-linecap:butt;stroke-width:0.5;" x="51.8424543722" xlink:href="#m7d32135d2a" y="401.004497041"/>
      </g>
     </g>
    </g>
    <g id="xtick_8">
     <g id="line2d_9">
      <defs>
       <path d="
M0 0
L0 -2" id="m7d32135d2a"/>
      </defs>
      <g>
       <use style="stroke:#000000;stroke-linecap:butt;stroke-width:0.5;" x="77.8020962445" xlink:href="#m7d32135d2a" y="401.004497041"/>
      </g>
     </g>
    </g>
    <g id="xtick_9">
     <g id="line2d_10">
      <defs>
       <path d="
M0 0
L0 -2" id="m7d32135d2a"/>
      </defs>
      <g>
       <use style="stroke:#000000;stroke-linecap:butt;stroke-width:0.5;" x="103.761738117" xlink:href="#m7d32135d2a" y="401.004497041"/>
      </g>
     </g>
    </g>
    <g id="xtick_10">
     <g id="line2d_11">
      <defs>
       <path d="
M0 0
L0 -2" id="m7d32135d2a"/>
      </defs>
      <g>
       <use style="stroke:#000000;stroke-linecap:butt;stroke-width:0.5;" x="155.681021861" xlink:href="#m7d32135d2a" y="401.004497041"/>
      </g>
     </g>
    </g>
    <g id="xtick_11">
     <g id="line2d_12">
      <defs>
       <path d="
M0 0
L0 -2" id="m7d32135d2a"/>
      </defs>
      <g>
       <use style="stroke:#000000;stroke-linecap:butt;stroke-width:0.5;" x="181.640663733" xlink:href="#m7d32135d2a" y="401.004497041"/>
      </g>
     </g>
    </g>
    <g id="xtick_12">
     <g id="line2d_13">
      <defs>
       <path d="
M0 0
L0 -2" id="m7d32135d2a"/>
      </defs>
      <g>
       <use style="stroke:#000000;stroke-linecap:butt;stroke-width:0.5;" x="207.600305606" xlink:href="#m7d32135d2a" y="401.004497041"/>
      </g>
     </g>
    </g>
    <g id="xtick_13">
     <g id="line2d_14">
      <defs>
       <path d="
M0 0
L0 -2" id="m7d32135d2a"/>
      </defs>
      <g>
       <use style="stroke:#000000;stroke-linecap:butt;stroke-width:0.5;" x="259.51958935" xlink:href="#m7d32135d2a" y="401.004497041"/>
      </g>
     </g>
    </g>
    <g id="xtick_14">
     <g id="line2d_15">
      <defs>
       <path d="
M0 0
L0 -2" id="m7d32135d2a"/>
      </defs>
      <g>
       <use style="stroke:#000000;stroke-linecap:butt;stroke-width:0.5;" x="285.479231222" xlink:href="#m7d32135d2a" y="401.004497041"/>
      </g>
     </g>
    </g>
    <g id="xtick_15">
     <g id="line2d_16">
      <defs>
       <path d="
M0 0
L0 -2" id="m7d32135d2a"/>
      </defs>
      <g>
       <use style="stroke:#000000;stroke-linecap:butt;stroke-width:0.5;" x="311.438873095" xlink:href="#m7d32135d2a" y="401.004497041"/>
      </g>
     </g>
    </g>
    <g id="xtick_16">
     <g id="line2d_17">
      <defs>
       <path d="
M0 0
L0 -2" id="m7d32135d2a"/>
      </defs>
      <g>
       <use style="stroke:#000000;stroke-linecap:butt;stroke-width:0.5;" x="363.358156839" xlink:href="#m7d32135d2a" y="401.004497041"/>
      </g>
     </g>
    </g>
    <g id="xtick_17">
     <g id="line2d_18">
      <defs>
       <path d="
M0 0
L0 -2" id="m7d32135d2a"/>
      </defs>
      <g>
       <use style="stroke:#000000;stroke-linecap:butt;stroke-width:0.5;" x="389.317798711" xlink:href="#m7d32135d2a" y="401.004497041"/>
      </g>
     </g>
    </g>
    <g id="xtick_18">
     <g id="line2d_19">
      <defs>
       <path d="
M0 0
L0 -2" id="m7d32135d2a"/>
      </defs>
      <g>
       <use style="stroke:#000000;stroke-linecap:butt;stroke-width:0.5;" x="415.277440584" xlink:href="#m7d32135d2a" y="401.004497041"/>
      </g>
     </g>
    </g>
    <g id="xtick_19">
     <g id="line2d_20">
      <defs>
       <path d="
M0 0
L0 -2" id="m7d32135d2a"/>
      </defs>
      <g>
       <use style="stroke:#000000;stroke-linecap:butt;stroke-width:0.5;" x="467.196724328" xlink:href="#m7d32135d2a" y="401.004497041"/>
      </g>
     </g>
    </g>
    <g id="xtick_20">
     <g id="line2d_21">
      <defs>
       <path d="
M0 0
L0 -2" id="m7d32135d2a"/>
      </defs>
      <g>
       <use style="stroke:#000000;stroke-linecap:butt;stroke-width:0.5;" x="493.1563662" xlink:href="#m7d32135d2a" y="401.004497041"/>
      </g>
     </g>
    </g>
    <g id="xtick_21">
     <g id="line2d_22">
      <defs>
       <path d="
M0 0
L0 -2" id="m7d32135d2a"/>
      </defs>
      <g>
       <use style="stroke:#000000;stroke-linecap:butt;stroke-width:0.5;" x="519.116008073" xlink:href="#m7d32135d2a" y="401.004497041"/>
      </g>
     </g>
    </g>
   </g>
   <g id="matplotlib.axis_2">
    <g id="ytick_1">
     <g id="line2d_23">
      <defs>
       <path d="
M0 0
L4 0" id="mc6616867dc"/>
      </defs>
      <g>
       <use style="stroke:#000000;stroke-linecap:butt;stroke-width:0.5;" x="25.8828125" xlink:href="#mc6616867dc" y="401.004497041"/>
      </g>
     </g>
    </g>
    <g id="ytick_2">
     <g id="line2d_24">
      <defs>
       <path d="
M0 0
L4 0" id="mc6616867dc"/>
      </defs>
      <g>
       <use style="stroke:#000000;stroke-linecap:butt;stroke-width:0.5;" x="25.8828125" xlink:href="#mc6616867dc" y="336.472109465"/>
      </g>
     </g>
     <g id="text_6">
      <!-- 0.1 -->
      <defs>
       <path d="
M31.7812 66.4062
Q24.1719 66.4062 20.3281 58.9062
Q16.5 51.4219 16.5 36.375
Q16.5 21.3906 20.3281 13.8906
Q24.1719 6.39062 31.7812 6.39062
Q39.4531 6.39062 43.2812 13.8906
Q47.125 21.3906 47.125 36.375
Q47.125 51.4219 43.2812 58.9062
Q39.4531 66.4062 31.7812 66.4062
M31.7812 74.2188
Q44.0469 74.2188 50.5156 64.5156
Q56.9844 54.8281 56.9844 36.375
Q56.9844 17.9688 50.5156 8.26562
Q44.0469 -1.42188 31.7812 -1.42188
Q19.5312 -1.42188 13.0625 8.26562
Q6.59375 17.9688 6.59375 36.375
Q6.59375 54.8281 13.0625 64.5156
Q19.5312 74.2188 31.7812 74.2188" id="BitstreamVeraSans-Roman-30"/>
       <path d="
M10.6875 12.4062
L21 12.4062
L21 0
L10.6875 0
z
" id="BitstreamVeraSans-Roman-2e"/>
      </defs>
      <g transform="translate(7.5625 340.111953215)scale(0.1 -0.1)">
       <use xlink:href="#BitstreamVeraSans-Roman-30"/>
       <use x="63.623046875" xlink:href="#BitstreamVeraSans-Roman-2e"/>
       <use x="95.41015625" xlink:href="#BitstreamVeraSans-Roman-31"/>
      </g>
     </g>
    </g>
    <g id="ytick_3">
     <g id="line2d_25">
      <defs>
       <path d="
M0 0
L4 0" id="mc6616867dc"/>
      </defs>
      <g>
       <use style="stroke:#000000;stroke-linecap:butt;stroke-width:0.5;" x="25.8828125" xlink:href="#mc6616867dc" y="271.939721889"/>
      </g>
     </g>
     <g id="text_7">
      <!-- 0.2 -->
      <g transform="translate(7.640625 275.579565639)scale(0.1 -0.1)">
       <use xlink:href="#BitstreamVeraSans-Roman-30"/>
       <use x="63.623046875" xlink:href="#BitstreamVeraSans-Roman-2e"/>
       <use x="95.41015625" xlink:href="#BitstreamVeraSans-Roman-32"/>
      </g>
     </g>
    </g>
    <g id="ytick_4">
     <g id="line2d_26">
      <defs>
       <path d="
M0 0
L4 0" id="mc6616867dc"/>
      </defs>
      <g>
       <use style="stroke:#000000;stroke-linecap:butt;stroke-width:0.5;" x="25.8828125" xlink:href="#mc6616867dc" y="207.407334313"/>
      </g>
     </g>
     <g id="text_8">
      <!-- 0.3 -->
      <defs>
       <path d="
M40.5781 39.3125
Q47.6562 37.7969 51.625 33
Q55.6094 28.2188 55.6094 21.1875
Q55.6094 10.4062 48.1875 4.48438
Q40.7656 -1.42188 27.0938 -1.42188
Q22.5156 -1.42188 17.6562 -0.515625
Q12.7969 0.390625 7.625 2.20312
L7.625 11.7188
Q11.7188 9.32812 16.5938 8.10938
Q21.4844 6.89062 26.8125 6.89062
Q36.0781 6.89062 40.9375 10.5469
Q45.7969 14.2031 45.7969 21.1875
Q45.7969 27.6406 41.2812 31.2656
Q36.7656 34.9062 28.7188 34.9062
L20.2188 34.9062
L20.2188 43.0156
L29.1094 43.0156
Q36.375 43.0156 40.2344 45.9219
Q44.0938 48.8281 44.0938 54.2969
Q44.0938 59.9062 40.1094 62.9062
Q36.1406 65.9219 28.7188 65.9219
Q24.6562 65.9219 20.0156 65.0312
Q15.375 64.1562 9.8125 62.3125
L9.8125 71.0938
Q15.4375 72.6562 20.3438 73.4375
Q25.25 74.2188 29.5938 74.2188
Q40.8281 74.2188 47.3594 69.1094
Q53.9062 64.0156 53.9062 55.3281
Q53.9062 49.2656 50.4375 45.0938
Q46.9688 40.9219 40.5781 39.3125" id="BitstreamVeraSans-Roman-33"/>
      </defs>
      <g transform="translate(7.440625 211.047178063)scale(0.1 -0.1)">
       <use xlink:href="#BitstreamVeraSans-Roman-30"/>
       <use x="63.623046875" xlink:href="#BitstreamVeraSans-Roman-2e"/>
       <use x="95.41015625" xlink:href="#BitstreamVeraSans-Roman-33"/>
      </g>
     </g>
    </g>
    <g id="ytick_5">
     <g id="line2d_27">
      <defs>
       <path d="
M0 0
L4 0" id="mc6616867dc"/>
      </defs>
      <g>
       <use style="stroke:#000000;stroke-linecap:butt;stroke-width:0.5;" x="25.8828125" xlink:href="#mc6616867dc" y="142.874946737"/>
      </g>
     </g>
     <g id="text_9">
      <!-- 0.4 -->
      <g transform="translate(7.2 146.514790487)scale(0.1 -0.1)">
       <use xlink:href="#BitstreamVeraSans-Roman-30"/>
       <use x="63.623046875" xlink:href="#BitstreamVeraSans-Roman-2e"/>
       <use x="95.41015625" xlink:href="#BitstreamVeraSans-Roman-34"/>
      </g>
     </g>
    </g>
    <g id="ytick_6">
     <g id="line2d_28">
      <defs>
       <path d="
M0 0
L4 0" id="mc6616867dc"/>
      </defs>
      <g>
       <use style="stroke:#000000;stroke-linecap:butt;stroke-width:0.5;" x="25.8828125" xlink:href="#mc6616867dc" y="78.3425591604"/>
      </g>
     </g>
     <g id="text_10">
      <!-- 0.5 -->
      <defs>
       <path d="
M10.7969 72.9062
L49.5156 72.9062
L49.5156 64.5938
L19.8281 64.5938
L19.8281 46.7344
Q21.9688 47.4688 24.1094 47.8281
Q26.2656 48.1875 28.4219 48.1875
Q40.625 48.1875 47.75 41.5
Q54.8906 34.8125 54.8906 23.3906
Q54.8906 11.625 47.5625 5.09375
Q40.2344 -1.42188 26.9062 -1.42188
Q22.3125 -1.42188 17.5469 -0.640625
Q12.7969 0.140625 7.71875 1.70312
L7.71875 11.625
Q12.1094 9.23438 16.7969 8.0625
Q21.4844 6.89062 26.7031 6.89062
Q35.1562 6.89062 40.0781 11.3281
Q45.0156 15.7656 45.0156 23.3906
Q45.0156 31 40.0781 35.4375
Q35.1562 39.8906 26.7031 39.8906
Q22.75 39.8906 18.8125 39.0156
Q14.8906 38.1406 10.7969 36.2812
z
" id="BitstreamVeraSans-Roman-35"/>
      </defs>
      <g transform="translate(7.5125 81.9824029104)scale(0.1 -0.1)">
       <use xlink:href="#BitstreamVeraSans-Roman-30"/>
       <use x="63.623046875" xlink:href="#BitstreamVeraSans-Roman-2e"/>
       <use x="95.41015625" xlink:href="#BitstreamVeraSans-Roman-35"/>
      </g>
     </g>
    </g>
    <g id="ytick_7">
     <g id="line2d_29">
      <defs>
       <path d="
M0 0
L4 0" id="mc6616867dc"/>
      </defs>
      <g>
       <use style="stroke:#000000;stroke-linecap:butt;stroke-width:0.5;" x="25.8828125" xlink:href="#mc6616867dc" y="13.8101715842"/>
      </g>
     </g>
     <g id="text_11">
      <!-- 0.6 -->
      <g transform="translate(7.26875 17.4500153342)scale(0.1 -0.1)">
       <use xlink:href="#BitstreamVeraSans-Roman-30"/>
       <use x="63.623046875" xlink:href="#BitstreamVeraSans-Roman-2e"/>
       <use x="95.41015625" xlink:href="#BitstreamVeraSans-Roman-36"/>
      </g>
     </g>
    </g>
    <g id="ytick_8">
     <g id="line2d_30">
      <defs>
       <path d="
M0 0
L2 0" id="m832c4b3e51"/>
      </defs>
      <g>
       <use style="stroke:#000000;stroke-linecap:butt;stroke-width:0.5;" x="25.8828125" xlink:href="#m832c4b3e51" y="388.098019526"/>
      </g>
     </g>
    </g>
    <g id="ytick_9">
     <g id="line2d_31">
      <defs>
       <path d="
M0 0
L2 0" id="m832c4b3e51"/>
      </defs>
      <g>
       <use style="stroke:#000000;stroke-linecap:butt;stroke-width:0.5;" x="25.8828125" xlink:href="#m832c4b3e51" y="375.191542011"/>
      </g>
     </g>
    </g>
    <g id="ytick_10">
     <g id="line2d_32">
      <defs>
       <path d="
M0 0
L2 0" id="m832c4b3e51"/>
      </defs>
      <g>
       <use style="stroke:#000000;stroke-linecap:butt;stroke-width:0.5;" x="25.8828125" xlink:href="#m832c4b3e51" y="362.285064496"/>
      </g>
     </g>
    </g>
    <g id="ytick_11">
     <g id="line2d_33">
      <defs>
       <path d="
M0 0
L2 0" id="m832c4b3e51"/>
      </defs>
      <g>
       <use style="stroke:#000000;stroke-linecap:butt;stroke-width:0.5;" x="25.8828125" xlink:href="#m832c4b3e51" y="349.37858698"/>
      </g>
     </g>
    </g>
    <g id="ytick_12">
     <g id="line2d_34">
      <defs>
       <path d="
M0 0
L2 0" id="m832c4b3e51"/>
      </defs>
      <g>
       <use style="stroke:#000000;stroke-linecap:butt;stroke-width:0.5;" x="25.8828125" xlink:href="#m832c4b3e51" y="323.56563195"/>
      </g>
     </g>
    </g>
    <g id="ytick_13">
     <g id="line2d_35">
      <defs>
       <path d="
M0 0
L2 0" id="m832c4b3e51"/>
      </defs>
      <g>
       <use style="stroke:#000000;stroke-linecap:butt;stroke-width:0.5;" x="25.8828125" xlink:href="#m832c4b3e51" y="310.659154435"/>
      </g>
     </g>
    </g>
    <g id="ytick_14">
     <g id="line2d_36">
      <defs>
       <path d="
M0 0
L2 0" id="m832c4b3e51"/>
      </defs>
      <g>
       <use style="stroke:#000000;stroke-linecap:butt;stroke-width:0.5;" x="25.8828125" xlink:href="#m832c4b3e51" y="297.752676919"/>
      </g>
     </g>
    </g>
    <g id="ytick_15">
     <g id="line2d_37">
      <defs>
       <path d="
M0 0
L2 0" id="m832c4b3e51"/>
      </defs>
      <g>
       <use style="stroke:#000000;stroke-linecap:butt;stroke-width:0.5;" x="25.8828125" xlink:href="#m832c4b3e51" y="284.846199404"/>
      </g>
     </g>
    </g>
    <g id="ytick_16">
     <g id="line2d_38">
      <defs>
       <path d="
M0 0
L2 0" id="m832c4b3e51"/>
      </defs>
      <g>
       <use style="stroke:#000000;stroke-linecap:butt;stroke-width:0.5;" x="25.8828125" xlink:href="#m832c4b3e51" y="259.033244374"/>
      </g>
     </g>
    </g>
    <g id="ytick_17">
     <g id="line2d_39">
      <defs>
       <path d="
M0 0
L2 0" id="m832c4b3e51"/>
      </defs>
      <g>
       <use style="stroke:#000000;stroke-linecap:butt;stroke-width:0.5;" x="25.8828125" xlink:href="#m832c4b3e51" y="246.126766859"/>
      </g>
     </g>
    </g>
    <g id="ytick_18">
     <g id="line2d_40">
      <defs>
       <path d="
M0 0
L2 0" id="m832c4b3e51"/>
      </defs>
      <g>
       <use style="stroke:#000000;stroke-linecap:butt;stroke-width:0.5;" x="25.8828125" xlink:href="#m832c4b3e51" y="233.220289343"/>
      </g>
     </g>
    </g>
    <g id="ytick_19">
     <g id="line2d_41">
      <defs>
       <path d="
M0 0
L2 0" id="m832c4b3e51"/>
      </defs>
      <g>
       <use style="stroke:#000000;stroke-linecap:butt;stroke-width:0.5;" x="25.8828125" xlink:href="#m832c4b3e51" y="220.313811828"/>
      </g>
     </g>
    </g>
    <g id="ytick_20">
     <g id="line2d_42">
      <defs>
       <path d="
M0 0
L2 0" id="m832c4b3e51"/>
      </defs>
      <g>
       <use style="stroke:#000000;stroke-linecap:butt;stroke-width:0.5;" x="25.8828125" xlink:href="#m832c4b3e51" y="194.500856798"/>
      </g>
     </g>
    </g>
    <g id="ytick_21">
     <g id="line2d_43">
      <defs>
       <path d="
M0 0
L2 0" id="m832c4b3e51"/>
      </defs>
      <g>
       <use style="stroke:#000000;stroke-linecap:butt;stroke-width:0.5;" x="25.8828125" xlink:href="#m832c4b3e51" y="181.594379282"/>
      </g>
     </g>
    </g>
    <g id="ytick_22">
     <g id="line2d_44">
      <defs>
       <path d="
M0 0
L2 0" id="m832c4b3e51"/>
      </defs>
      <g>
       <use style="stroke:#000000;stroke-linecap:butt;stroke-width:0.5;" x="25.8828125" xlink:href="#m832c4b3e51" y="168.687901767"/>
      </g>
     </g>
    </g>
    <g id="ytick_23">
     <g id="line2d_45">
      <defs>
       <path d="
M0 0
L2 0" id="m832c4b3e51"/>
      </defs>
      <g>
       <use style="stroke:#000000;stroke-linecap:butt;stroke-width:0.5;" x="25.8828125" xlink:href="#m832c4b3e51" y="155.781424252"/>
      </g>
     </g>
    </g>
    <g id="ytick_24">
     <g id="line2d_46">
      <defs>
       <path d="
M0 0
L2 0" id="m832c4b3e51"/>
      </defs>
      <g>
       <use style="stroke:#000000;stroke-linecap:butt;stroke-width:0.5;" x="25.8828125" xlink:href="#m832c4b3e51" y="129.968469221"/>
      </g>
     </g>
    </g>
    <g id="ytick_25">
     <g id="line2d_47">
      <defs>
       <path d="
M0 0
L2 0" id="m832c4b3e51"/>
      </defs>
      <g>
       <use style="stroke:#000000;stroke-linecap:butt;stroke-width:0.5;" x="25.8828125" xlink:href="#m832c4b3e51" y="117.061991706"/>
      </g>
     </g>
    </g>
    <g id="ytick_26">
     <g id="line2d_48">
      <defs>
       <path d="
M0 0
L2 0" id="m832c4b3e51"/>
      </defs>
      <g>
       <use style="stroke:#000000;stroke-linecap:butt;stroke-width:0.5;" x="25.8828125" xlink:href="#m832c4b3e51" y="104.155514191"/>
      </g>
     </g>
    </g>
    <g id="ytick_27">
     <g id="line2d_49">
      <defs>
       <path d="
M0 0
L2 0" id="m832c4b3e51"/>
      </defs>
      <g>
       <use style="stroke:#000000;stroke-linecap:butt;stroke-width:0.5;" x="25.8828125" xlink:href="#m832c4b3e51" y="91.2490366756"/>
      </g>
     </g>
    </g>
    <g id="ytick_28">
     <g id="line2d_50">
      <defs>
       <path d="
M0 0
L2 0" id="m832c4b3e51"/>
      </defs>
      <g>
       <use style="stroke:#000000;stroke-linecap:butt;stroke-width:0.5;" x="25.8828125" xlink:href="#m832c4b3e51" y="65.4360816452"/>
      </g>
     </g>
    </g>
    <g id="ytick_29">
     <g id="line2d_51">
      <defs>
       <path d="
M0 0
L2 0" id="m832c4b3e51"/>
      </defs>
      <g>
       <use style="stroke:#000000;stroke-linecap:butt;stroke-width:0.5;" x="25.8828125" xlink:href="#m832c4b3e51" y="52.5296041299"/>
      </g>
     </g>
    </g>
    <g id="ytick_30">
     <g id="line2d_52">
      <defs>
       <path d="
M0 0
L2 0" id="m832c4b3e51"/>
      </defs>
      <g>
       <use style="stroke:#000000;stroke-linecap:butt;stroke-width:0.5;" x="25.8828125" xlink:href="#m832c4b3e51" y="39.6231266147"/>
      </g>
     </g>
    </g>
    <g id="ytick_31">
     <g id="line2d_53">
      <defs>
       <path d="
M0 0
L2 0" id="m832c4b3e51"/>
      </defs>
      <g>
       <use style="stroke:#000000;stroke-linecap:butt;stroke-width:0.5;" x="25.8828125" xlink:href="#m832c4b3e51" y="26.7166490994"/>
      </g>
     </g>
    </g>
   </g>
   <g id="patch_3">
    <path d="
M15.4995 401.004
L555.432 401.004" style="fill:none;stroke:#000000;stroke-width:0.8;"/>
   </g>
   <g id="patch_4">
    <path d="
M25.8828 408.726
L25.8828 7.2" style="fill:none;stroke:#000000;stroke-width:0.8;"/>
   </g>
  </g>
 </g>
 <defs>
  <clipPath id="p7ccc68d092">
   <rect height="401.526153846" width="539.932011328" x="15.4995056282" y="7.2"/>
  </clipPath>
 </defs>
</svg>
