<?xml version="1.0" encoding="utf-8" standalone="no"?>
<!DOCTYPE svg PUBLIC "-//W3C//DTD SVG 1.1//EN"
  "http://www.w3.org/Graphics/SVG/1.1/DTD/svg11.dtd">
<!-- Created with matplotlib (http://matplotlib.sourceforge.net/) -->
<svg height="419pt" version="1.1" viewBox="0 0 562 419" width="562pt" xmlns="http://www.w3.org/2000/svg" xmlns:xlink="http://www.w3.org/1999/xlink">
 <defs>
  <style type="text/css">
*{stroke-linecap:square;stroke-linejoin:round;}
  </style>
 </defs>
 <g id="figure_1">
  <g id="patch_1">
   <path d="
M4.44089e-16 419.769
L562.63 419.769
L562.63 0
L4.44089e-16 0
z
" style="fill:#ffffff;"/>
  </g>
  <g id="axes_1">
   <g id="patch_2">
    <path d="
M15.4995 408.726
L555.43 408.726
L555.43 7.2
L15.4995 7.2
z
" style="fill:#ffffff;"/>
   </g>
   <g id="line2d_1">
    <path clip-path="url(#pc4ff94fdb4)" d="
M25.8828 401.004
L25.9312 401.004
L25.9887 105.097
L26.0502 105.097
L26.1127 82.6854
L26.1778 82.6854
L26.1778 72.7942
L26.2449 74.0752
L26.3111 74.0752
L26.3792 82.1121
L26.449 82.1121
L26.5188 89.4143
L26.5894 89.4143
L26.6602 96.2366
L26.732 96.2366
L26.8048 99.1613
L26.8769 99.1613
L26.8769 100.002
L26.9501 100.002
L26.9501 100.002
L27.0234 96.3184
L27.0971 96.3184
L27.1711 93.0489
L27.2465 93.0489
L27.3202 90.8869
L27.396 90.8869
L27.4722 87.7839
L27.5467 87.7839
L27.5467 86.6725
L27.6224 86.6767
L27.6987 86.6767
L27.7755 85.4367
L27.8531 85.4367
L27.9291 83.5491
L28.162 83.6267
L28.2404 82.2274
L28.3192 82.2274
L28.396 80.1441
L28.4744 80.1441
L28.5533 78.1775
L28.6311 78.1775
L28.7112 75.1332
L28.7908 75.1332
L28.8703 73.3882
L28.9482 73.3882
L29.0281 71.8507
L29.107 71.8507
L29.1881 70.0204
L29.2698 70.0204
L29.3494 67.3099
L29.4302 67.3099
L29.5096 64.3702
L29.5895 64.3702
L29.6706 61.1083
L29.7529 61.1083
L29.8339 58.026
L29.9145 58.026
L29.9951 55.5347
L30.076 55.5347
L30.157 53.2263
L30.2386 53.2263
L30.3215 52.07
L30.4014 52.07
L30.4014 51.7588
L30.4835 51.8645
L30.5661 51.8645
L30.5661 52.0048
L30.6481 52.0048
L30.6481 52.0048
L30.7302 51.5639
L30.8134 51.5639
L30.8957 50.874
L30.9794 50.874
L31.0628 49.7824
L31.1439 49.7824
L31.2263 49.0774
L31.3095 49.0774
L31.3947 47.8327
L31.478 47.8327
L31.5606 46.6936
L31.6422 46.6936
L31.726 45.4262
L31.8088 45.4262
L31.8929 44.2891
L31.9754 44.2891
L32.0566 43.4839
L32.142 43.4839
L32.2255 42.7682
L32.3118 42.7682
L32.3957 41.8908
L32.478 41.8908
L32.5624 40.9314
L32.6472 40.9314
L32.7314 40.1404
L32.8168 40.1404
L32.9015 39.4219
L32.986 39.4219
L33.0702 38.8125
L33.1523 38.8125
L33.2403 38.2812
L33.4921 38.1871
L33.5775 38.1325
L33.5775 38.1798
L33.6621 38.1798
L33.7455 38.4999
L34.0039 38.4337
L34.0897 38.0399
L34.1769 38.0399
L34.2624 37.4377
L34.3467 37.4377
L34.4328 37.1924
L34.5187 37.1924
L34.6028 36.8526
L34.69 36.8526
L34.7753 36.5066
L34.9495 36.4801
L35.0361 36.2155
L35.5504 36.1247
L35.6358 35.8772
L35.8942 35.9229
L35.9808 36.1735
L36.0677 36.1735
L36.1576 36.4612
L36.3285 36.5445
L36.4144 36.8759
L36.5013 36.8759
L36.589 37.2796
L36.6767 37.2796
L36.7639 37.6613
L36.8509 37.6613
L36.9378 38.1004
L37.0238 38.1004
L37.1104 38.5696
L37.1981 38.5696
L37.2861 38.9297
L37.4621 39.0373
L37.4621 39.0899
L37.5503 39.0783
L38.2529 39.1252
L38.3402 39.3142
L38.5177 39.3897
L38.6059 39.5826
L38.6929 39.5826
L38.7828 39.8128
L38.9587 39.894
L39.0449 40.036
L39.1353 40.036
L39.2231 40.3565
L39.309 40.3565
L39.3979 40.6639
L39.4868 40.6639
L39.5752 41.1006
L39.6628 41.1006
L39.7522 41.5759
L39.8407 41.5759
L39.9276 42.0839
L40.0156 42.0839
L40.1071 42.5732
L40.1958 42.5732
L40.2837 42.9365
L40.3744 42.9365
L40.4621 43.2497
L40.547 43.2497
L40.6354 43.4801
L40.9048 43.5466
L40.9935 43.6606
L41.263 43.6001
L41.263 43.5301
L41.3522 43.5373
L42.0663 43.598
L42.1551 43.7659
L42.3348 43.8764
L42.4237 44.0124
L42.5996 44.0817
L42.6876 44.2261
L42.8682 44.3235
L42.9576 44.6464
L43.0487 44.6464
L43.1385 45.0689
L43.2284 45.0689
L43.3202 45.5336
L43.4096 45.5336
L43.4996 45.9995
L43.5881 45.9995
L43.6773 46.4801
L43.7651 46.4801
L43.8569 47.0218
L43.9496 47.0218
L44.0415 47.5126
L44.132 47.5126
L44.2246 47.961
L44.3169 47.961
L44.4062 48.3467
L44.4974 48.3467
L44.5869 48.737
L44.6745 48.737
L44.7634 49.1859
L44.8579 49.1859
L44.9473 49.7197
L45.0358 49.7197
L45.125 50.2932
L45.2157 50.2932
L45.3047 50.8217
L45.3947 50.8217
L45.4884 51.2795
L45.5792 51.2795
L45.6693 51.6324
L45.7588 51.6324
L45.8486 51.9784
L45.9403 51.9784
L46.032 52.3661
L46.1211 52.3661
L46.2128 52.657
L46.3023 52.657
L46.3919 52.9248
L46.4861 52.9248
L46.5776 53.1068
L46.7609 53.1791
L46.8495 53.2775
L48.4956 53.1731
L48.5872 53.021
L48.7722 52.9243
L48.8608 52.7109
L49.4079 52.7896
L49.501 52.8588
L50.1434 52.7684
L50.233 52.6053
L50.4173 52.5152
L50.5081 52.3698
L50.6943 52.3079
L50.7877 52.1632
L51.063 52.0538
L51.1541 51.921
L51.4287 51.8315
L51.5208 51.7758
L51.8867 51.6907
L51.9794 51.5627
L52.1653 51.4934
L52.2574 51.3371
L52.4429 51.2708
L52.5346 51.1
L52.7202 50.9917
L52.8138 50.7972
L52.9974 50.7026
L53.0904 50.5443
L53.2733 50.4647
L53.3671 50.3304
L53.553 50.2695
L53.6434 50.1743
L54.6682 50.084
L54.7616 49.9825
L55.2284 49.8903
L55.3233 49.8408
L56.6239 49.7634
L56.7166 49.6772
L57.0908 49.5738
L57.1823 49.5135
L58.029 49.5881
L58.1211 49.7134
L58.4025 49.8176
L58.495 49.9302
L58.9622 50.0348
L59.059 50.0901
L59.9044 50.1911
L59.9977 50.2996
L60.1832 50.3564
L60.2775 50.4769
L60.468 50.5402
L60.5618 50.7102
L60.7481 50.7864
L60.8416 50.9023
L61.0294 50.9655
L61.1243 51.1024
L61.3125 51.1752
L61.4072 51.3317
L61.5921 51.4176
L61.6846 51.5942
L61.8749 51.7015
L61.9672 51.9012
L62.156 52.0052
L62.2495 52.2444
L62.344 52.2444
L62.4362 52.4947
L62.5288 52.4947
L62.6251 52.7589
L62.7188 52.7589
L62.8115 52.9788
L63.0034 53.0764
L63.0975 53.2996
L63.2869 53.3957
L63.3821 53.6023
L63.5716 53.6935
L63.6644 53.8651
L63.8552 53.9598
L63.9483 54.1707
L64.0453 54.1707
L64.1385 54.3918
L64.2319 54.3918
L64.3287 54.6093
L64.5179 54.701
L64.6116 54.8611
L64.8044 54.9575
L64.8993 55.1511
L65.0877 55.2288
L65.183 55.378
L65.3713 55.4495
L65.4675 55.5897
L65.6552 55.6651
L65.7503 55.81
L65.9399 55.8783
L66.035 56.0414
L66.2276 56.1317
L66.3235 56.2985
L66.5119 56.3897
L66.6063 56.576
L66.7939 56.6695
L66.8886 56.8384
L67.0789 56.9219
L67.1738 57.1074
L67.3636 57.2102
L67.4604 57.3898
L67.652 57.4704
L67.7453 57.6415
L67.9397 57.7308
L68.0348 57.8893
L68.2248 57.9764
L68.3201 58.1203
L68.509 58.1898
L68.6036 58.351
L68.7958 58.4408
L68.8901 58.593
L69.0795 58.6781
L69.1765 58.8239
L69.3671 58.8944
L69.4622 59.0297
L69.7521 59.1361
L69.8476 59.2429
L70.1309 59.347
L70.2247 59.4228
L70.7007 59.5313
L70.7964 59.5799
L71.271 59.6899
L71.3666 59.7319
L71.7495 59.809
L71.8455 59.8866
L72.1354 59.9747
L72.2279 60.0751
L72.5174 60.1637
L72.6109 60.2266
L72.9998 60.3357
L73.0949 60.4339
L73.2893 60.489
L73.3829 60.6102
L73.5746 60.6831
L73.671 60.8399
L73.8598 60.9135
L73.954 61.0548
L74.1479 61.124
L74.2428 61.2446
L74.5299 61.3456
L74.6271 61.4483
L74.918 61.5584
L75.015 61.654
L75.3034 61.762
L75.3995 61.8747
L75.592 61.9339
L75.6839 62.0562
L75.9734 62.1459
L76.0694 62.2409
L76.3603 62.3207
L76.4543 62.384
L78.196 62.2735
L78.2918 62.2351
L78.971 62.1342
L79.0678 62.0947
L79.6473 61.9894
L79.7421 61.9697
L82.2521 62.0775
L82.3491 62.1088
L82.9297 62.2104
L83.0274 62.2531
L85.3605 62.1647
L85.455 62.1083
L85.9405 62.0094
L86.0376 61.9474
L86.3295 61.8633
L86.4244 61.7859
L86.8154 61.6778
L86.913 61.6096
L87.2036 61.5332
L87.3006 61.4529
L87.5947 61.3448
L87.6923 61.243
L87.9815 61.1539
L88.0813 61.0511
L88.3744 60.9602
L88.4726 60.8717
L88.7662 60.7793
L88.8639 60.7002
L89.1562 60.6033
L89.2552 60.482
L89.5469 60.373
L89.6441 60.2498
L89.8358 60.1856
L89.9354 60.0597
L90.1276 59.9956
L90.2261 59.8767
L90.419 59.8231
L90.5176 59.7013
L90.7131 59.6377
L90.8151 59.5137
L91.108 59.4074
L91.2062 59.3126
L91.4978 59.2278
L91.5964 59.1258
L91.8901 59.021
L91.986 58.9259
L92.2769 58.831
L92.3734 58.7329
L92.667 58.6238
L92.7656 58.5229
L92.9642 58.4648
L93.0638 58.3366
L93.2612 58.2801
L93.3595 58.1508
L93.556 58.0803
L93.6528 57.9236
L93.8533 57.848
L93.9522 57.7129
L94.1487 57.6441
L94.2483 57.4924
L94.4411 57.418
L94.5388 57.252
L94.7376 57.1667
L94.8336 57.0013
L95.0297 56.9248
L95.1287 56.7955
L95.324 56.736
L95.4229 56.613
L95.6209 56.5487
L95.7192 56.4298
L95.9173 56.3588
L96.016 56.2336
L96.2152 56.1668
L96.3131 56.0335
L96.509 55.9628
L96.6046 55.8298
L96.8011 55.7649
L96.8969 55.6449
L97.1935 55.5348
L97.2897 55.4354
L97.5851 55.3322
L97.6836 55.2486
L97.9763 55.1598
L98.0721 55.0819
L98.3695 54.9977
L98.4704 54.9054
L98.7671 54.8032
L98.8681 54.6934
L99.1589 54.5926
L99.2586 54.4937
L99.4565 54.4385
L99.556 54.3266
L99.755 54.2677
L99.8518 54.1616
L100.147 54.0588
L100.245 53.9554
L100.536 53.8502
L100.632 53.7367
L100.832 53.6754
L100.93 53.5494
L101.128 53.4867
L101.227 53.3582
L101.426 53.2982
L101.524 53.1678
L101.72 53.0956
L101.822 52.9451
L102.02 52.8737
L102.117 52.7261
L102.313 52.6484
L102.413 52.5067
L102.607 52.4395
L102.707 52.3123
L102.905 52.2483
L103.004 52.1137
L103.202 52.0523
L103.303 51.9195
L103.499 51.8498
L103.601 51.707
L103.799 51.6341
L103.898 51.4858
L104.095 51.4106
L104.196 51.2768
L104.393 51.2124
L104.492 51.0795
L104.688 51.016
L104.79 50.8931
L104.988 50.832
L105.085 50.7155
L105.382 50.6092
L105.48 50.5136
L105.78 50.4084
L105.881 50.3012
L106.179 50.2018
L106.28 50.0977
L106.572 49.987
L106.669 49.8625
L106.865 49.793
L106.965 49.653
L107.164 49.5808
L107.261 49.4356
L107.46 49.3645
L107.56 49.2007
L107.759 49.121
L107.858 48.9765
L108.058 48.9107
L108.157 48.7931
L108.35 48.7334
L108.45 48.6085
L108.749 48.4991
L108.848 48.389
L109.047 48.3296
L109.146 48.2116
L109.345 48.1523
L109.446 48.0391
L109.644 47.977
L109.744 47.8449
L109.945 47.777
L110.042 47.6304
L110.239 47.5538
L110.338 47.4031
L110.536 47.3256
L110.637 47.1716
L110.84 47.0915
L110.939 46.94
L111.138 46.864
L111.235 46.7067
L111.434 46.6239
L111.532 46.4627
L111.733 46.3783
L111.835 46.2077
L112.032 46.1222
L112.13 45.9608
L112.329 45.8815
L112.428 45.7302
L112.628 45.6601
L112.728 45.5195
L112.924 45.4502
L113.024 45.3163
L113.219 45.2503
L113.321 45.1192
L113.521 45.0599
L113.621 44.9484
L113.821 44.893
L113.917 44.7847
L114.212 44.6785
L114.31 44.5829
L114.611 44.4943
L114.71 44.4085
L115.012 44.3219
L115.114 44.2375
L115.413 44.1583
L115.513 44.0798
L115.808 44.0055
L115.907 43.9207
L116.207 43.8226
L116.302 43.7234
L116.503 43.6667
L116.604 43.5523
L116.899 43.4545
L116.997 43.3629
L117.396 43.2602
L117.495 43.1967
L117.898 43.1097
L117.999 43.0592
L118.602 42.9646
L118.699 42.9144
L119.096 42.8242
L119.194 42.7655
L119.697 42.6739
L119.801 42.6301
L120.302 42.5378
L120.403 42.4863
L120.896 42.394
L120.994 42.3451
L121.497 42.2479
L121.6 42.1873
L121.902 42.1121
L122.005 42.0258
L122.303 41.9457
L122.402 41.8634
L122.699 41.7829
L122.798 41.6992
L123.104 41.6188
L123.2 41.5383
L123.501 41.4621
L123.604 41.3826
L123.902 41.3057
L124.004 41.2264
L124.303 41.1477
L124.405 41.0658
L124.705 40.981
L124.805 40.9007
L125.209 40.79
L125.309 40.7333
L125.812 40.6262
L125.912 40.5681
L126.513 40.4613
L126.613 40.4094
L127.011 40.3255
L127.115 40.2588
L127.521 40.1761
L127.623 40.123
L128.222 40.0267
L128.325 39.9915
L128.924 39.8817
L129.024 39.8341
L129.524 39.7332
L129.627 39.6898
L130.126 39.5845
L130.226 39.5314
L130.73 39.4262
L130.833 39.3694
L131.238 39.2851
L131.338 39.2299
L131.843 39.1342
L131.944 39.0887
L132.447 38.9972
L132.55 38.9478
L132.953 38.8525
L133.052 38.7708
L133.351 38.6902
L133.45 38.6165
L133.854 38.508
L133.956 38.4404
L134.36 38.338
L134.462 38.274
L134.866 38.1807
L134.965 38.1293
L135.571 38.0203
L135.671 37.985
L136.379 37.8876
L136.48 37.8524
L137.087 37.7474
L137.189 37.7026
L137.794 37.6098
L137.896 37.5723
L138.599 37.4751
L138.701 37.4352
L139.507 37.3298
L139.608 37.3003
L140.309 37.2027
L140.41 37.1634
L141.025 37.0578
L141.128 37.0167
L141.739 36.9113
L141.839 36.8716
L142.454 36.7698
L142.553 36.7299
L143.155 36.6313
L143.258 36.5931
L143.864 36.4874
L143.964 36.4444
L144.475 36.3482
L144.574 36.3028
L145.08 36.2104
L145.182 36.1613
L145.789 36.0509
L145.889 36.0115
L146.502 35.9113
L146.603 35.8635
L147.107 35.768
L147.206 35.7283
L147.816 35.6237
L147.92 35.5834
L148.529 35.4888
L148.631 35.4497
L149.242 35.3548
L149.344 35.318
L150.053 35.2153
L150.157 35.1874
L150.766 35.0893
L150.867 35.0487
L151.68 34.9484
L151.782 34.9189
L152.49 34.8207
L152.59 34.7879
L153.407 34.682
L153.508 34.6443
L154.217 34.5469
L154.32 34.5113
L154.934 34.4116
L155.034 34.3733
L155.747 34.2717
L155.853 34.2228
L156.358 34.1277
L156.464 34.0768
L157.084 33.9676
L157.186 33.9303
L157.797 33.8256
L157.902 33.781
L158.411 33.6727
L158.511 33.6193
L159.02 33.5263
L159.124 33.4851
L159.736 33.3902
L159.838 33.3568
L160.448 33.256
L160.547 33.2139
L161.06 33.1243
L161.162 33.0747
L161.775 32.9734
L161.878 32.9402
L162.594 32.8358
L162.699 32.8005
L163.309 32.6934
L163.41 32.649
L163.918 32.5565
L164.02 32.5076
L164.427 32.4224
L164.532 32.3656
L164.946 32.2774
L165.046 32.2195
L165.455 32.1316
L165.556 32.0731
L165.965 31.9838
L166.066 31.9223
L166.474 31.8257
L166.575 31.7639
L166.984 31.6674
L167.088 31.6046
L167.502 31.5151
L167.603 31.4607
L168.118 31.3597
L168.219 31.3051
L168.63 31.214
L168.733 31.1581
L169.238 31.0514
L169.342 30.9911
L169.755 30.8905
L169.858 30.8265
L170.265 30.7305
L170.37 30.6656
L170.779 30.5637
L170.88 30.5011
L171.292 30.4123
L171.391 30.3578
L171.804 30.2733
L171.908 30.2204
L172.421 30.1239
L172.521 30.0782
L173.137 29.9757
L173.239 29.9379
L173.955 29.8291
L174.059 29.7968
L174.881 29.6978
L174.985 29.67
L175.913 29.5735
L176.015 29.5466
L176.943 29.4481
L177.045 29.4144
L177.972 29.3078
L178.074 29.2794
L179.106 29.1754
L179.207 29.1554
L180.651 29.0466
L180.754 29.0341
L181.873 28.9357
L181.976 28.9075
L183.206 28.7975
L183.31 28.7738
L184.243 28.6701
L184.344 28.6448
L185.469 28.5378
L185.574 28.5203
L186.71 28.4166
L186.815 28.3911
L187.643 28.289
L187.749 28.2616
L188.988 28.1516
L189.091 28.1382
L190.436 28.03
L190.54 28.0049
L191.677 27.9053
L191.779 27.8823
L193.126 27.7776
L193.23 27.7606
L194.777 27.6508
L194.879 27.6371
L196.949 27.527
L197.05 27.5175
L200.365 27.4075
L200.469 27.3924
L206.512 27.2852
L206.614 27.2743
L209.211 27.1659
L209.315 27.1533
L212.229 27.0423
L212.336 27.0354
L215.037 26.9262
L215.141 26.9187
L218.274 26.8076
L218.377 26.7912
L221.919 26.6807
L222.023 26.6705
L225.045 26.563
L225.149 26.5528
L226.926 26.4418
L227.029 26.4302
L228.803 26.3243
L228.907 26.3063
L230.676 26.2024
L230.781 26.1824
L231.611 26.0858
L231.715 26.0511
L232.345 25.9483
L232.448 25.9058
L233.081 25.8046
L233.184 25.759
L233.714 25.6589
L233.819 25.6091
L234.339 25.5127
L234.444 25.4702
L235.071 25.3698
L235.175 25.334
L235.802 25.2269
L235.909 25.184
L236.539 25.0779
L236.645 25.0378
L237.375 24.9323
L237.48 24.9026
L238.32 24.8037
L238.425 24.778
L239.262 24.672
L239.367 24.6463
L240.315 24.5388
L240.42 24.5123
L241.364 24.411
L241.47 24.3849
L242.84 24.2783
L242.943 24.2595
L244.732 24.1486
L244.838 24.1385
L246.199 24.0304
L246.304 24.0035
L247.25 23.9041
L247.352 23.8805
L248.404 23.7745
L248.512 23.7533
L249.988 23.643
L250.093 23.6281
L251.357 23.5242
L251.46 23.5029
L252.513 23.401
L252.622 23.37
L253.362 23.2722
L253.465 23.2434
L254.303 23.1453
L254.409 23.1159
L255.256 23.0109
L255.36 22.9789
L256.202 22.8783
L256.308 22.8491
L257.046 22.7485
L257.152 22.7107
L257.78 22.6114
L257.885 22.5688
L258.513 22.4644
L258.619 22.4261
L259.358 22.3171
L259.465 22.2795
L260.094 22.1852
L260.198 22.1451
L260.831 22.0422
L260.937 22.0005
L261.562 21.9073
L261.67 21.8701
L262.296 21.7671
L262.404 21.7198
L262.928 21.6291
L263.032 21.587
L263.669 21.4855
L263.774 21.4445
L264.402 21.3436
L264.508 21.3048
L265.142 21.2046
L265.25 21.1642
L265.885 21.0537
L265.992 21.0086
L266.522 20.9186
L266.628 20.8733
L267.157 20.776
L267.262 20.7255
L267.791 20.63
L267.893 20.5813
L268.419 20.4819
L268.527 20.4366
L269.159 20.3377
L269.264 20.3008
L270.003 20.1948
L270.108 20.1618
L270.954 20.0522
L271.061 20.0204
L271.804 19.9224
L271.908 19.8889
L272.754 19.7809
L272.86 19.7532
L273.711 19.648
L273.818 19.6164
L274.661 19.5092
L274.768 19.4819
L275.621 19.3842
L275.726 19.3534
L276.576 19.2454
L276.682 19.2146
L277.529 19.104
L277.635 19.071
L278.375 18.9667
L278.484 18.9285
L279.23 18.8177
L279.332 18.7815
L280.073 18.6709
L280.179 18.6398
L281.134 18.5322
L281.241 18.511
L282.295 18.4088
L282.4 18.3875
L283.451 18.2769
L283.556 18.2568
L284.619 18.155
L284.723 18.1324
L285.998 18.0254
L286.102 18.0099
L287.59 17.8999
L287.696 17.8775
L288.647 17.771
L288.752 17.7491
L290.772 17.641
L290.878 17.6308
L293.112 17.5255
L293.217 17.5127
L295.119 17.4063
L295.226 17.3897
L296.822 17.2791
L296.93 17.2662
L298.635 17.1637
L298.74 17.1449
L300.015 17.0368
L300.121 17.0172
L301.504 16.9065
L301.609 16.8876
L303.741 16.779
L303.85 16.7673
L305.453 16.6588
L305.559 16.6396
L306.832 16.5333
L306.936 16.5114
L307.902 16.4021
L308.005 16.374
L308.869 16.2687
L308.972 16.2407
L309.929 16.1336
L310.038 16.1068
L311.113 15.9963
L311.213 15.9716
L312.167 15.8709
L312.274 15.8456
L313.344 15.7409
L313.448 15.7213
L314.839 15.6173
L314.944 15.5968
L316.221 15.4904
L316.33 15.4732
L318.026 15.3635
L318.133 15.3494
L321.012 15.2392
L321.121 15.2349
L325.61 15.1246
L325.717 15.121
L331.063 15.2301
L331.169 15.2346
L336.316 15.3429
L336.423 15.3503
L338.671 15.4605
L338.78 15.4749
L340.281 15.5824
L340.389 15.5977
L341.986 15.702
L342.092 15.7157
L343.708 15.8251
L343.815 15.8367
L345.321 15.9459
L345.43 15.9615
L347.044 16.0714
L347.15 16.0885
L348.865 16.1943
L348.973 16.2088
L350.692 16.3138
L350.803 16.3259
L352.839 16.4368
L352.947 16.4496
L355.952 16.5605
L356.061 16.564
L380.708 16.4537
L380.815 16.4482
L384.165 16.3375
L384.275 16.3309
L386.542 16.2247
L386.65 16.2092
L388.153 16.1042
L388.261 16.0859
L390 15.976
L390.108 15.9647
L392.699 15.8567
L392.806 15.8456
L397.561 15.7349
L397.667 15.7313
L403.617 15.6215
L403.617 15.6194
L407.307 15.5096
L407.415 15.5058
L411.103 15.3965
L411.206 15.3867
L413.707 15.2767
L413.816 15.269
L419.554 15.161
L419.66 15.154
L435.765 15.0444
L435.87 15.0397
L456.655 14.9293
L456.765 14.9278
L473.487 15.0388
L473.487 15.0429
L478.516 15.1512
L478.626 15.1575
L483.11 15.267
L483.218 15.2715
L490.885 15.3823
L490.995 15.3855
L495.812 15.4957
L495.924 15.5009
L500.416 15.6099
L500.526 15.6164
L504.037 15.7256
L504.148 15.7327
L507.985 15.8436
L507.985 15.848
L512.279 15.9568
L512.279 15.9604
L515.791 16.0706
L515.901 16.0791
L518.31 16.1895
L518.418 16.2008
L520.614 16.3063
L520.723 16.3179
L523.581 16.4264
L523.69 16.434
L527.65 16.5446
L527.758 16.5518
L533.033 16.6629
L533.143 16.664
L545.047 16.6765
L545.047 16.6769" style="fill:none;stroke:#ff0000;stroke-width:0.5;"/>
   </g>
   <g id="matplotlib.axis_1">
    <g id="xtick_1">
     <g id="line2d_2">
      <defs>
       <path d="
M0 0
L0 -4" id="ma7c7730229"/>
      </defs>
      <g>
       <use style="stroke:#000000;stroke-linecap:butt;stroke-width:0.5;" x="25.8828125" xlink:href="#ma7c7730229" y="401.004497041"/>
      </g>
     </g>
    </g>
    <g id="xtick_2">
     <g id="line2d_3">
      <defs>
       <path d="
M0 0
L0 -4" id="ma7c7730229"/>
      </defs>
      <g>
       <use style="stroke:#000000;stroke-linecap:butt;stroke-width:0.5;" x="129.721464602" xlink:href="#ma7c7730229" y="401.004497041"/>
      </g>
     </g>
     <g id="text_1">
      <!-- 2e7 -->
      <defs>
       <path d="
M19.1875 8.29688
L53.6094 8.29688
L53.6094 0
L7.32812 0
L7.32812 8.29688
Q12.9375 14.1094 22.625 23.8906
Q32.3281 33.6875 34.8125 36.5312
Q39.5469 41.8438 41.4219 45.5312
Q43.3125 49.2188 43.3125 52.7812
Q43.3125 58.5938 39.2344 62.25
Q35.1562 65.9219 28.6094 65.9219
Q23.9688 65.9219 18.8125 64.3125
Q13.6719 62.7031 7.8125 59.4219
L7.8125 69.3906
Q13.7656 71.7812 18.9375 73
Q24.125 74.2188 28.4219 74.2188
Q39.75 74.2188 46.4844 68.5469
Q53.2188 62.8906 53.2188 53.4219
Q53.2188 48.9219 51.5312 44.8906
Q49.8594 40.875 45.4062 35.4062
Q44.1875 33.9844 37.6406 27.2188
Q31.1094 20.4531 19.1875 8.29688" id="BitstreamVeraSans-Roman-32"/>
       <path d="
M56.2031 29.5938
L56.2031 25.2031
L14.8906 25.2031
Q15.4844 15.9219 20.4844 11.0625
Q25.4844 6.20312 34.4219 6.20312
Q39.5938 6.20312 44.4531 7.46875
Q49.3125 8.73438 54.1094 11.2812
L54.1094 2.78125
Q49.2656 0.734375 44.1875 -0.34375
Q39.1094 -1.42188 33.8906 -1.42188
Q20.7969 -1.42188 13.1562 6.1875
Q5.51562 13.8125 5.51562 26.8125
Q5.51562 40.2344 12.7656 48.1094
Q20.0156 56 32.3281 56
Q43.3594 56 49.7812 48.8906
Q56.2031 41.7969 56.2031 29.5938
M47.2188 32.2344
Q47.125 39.5938 43.0938 43.9844
Q39.0625 48.3906 32.4219 48.3906
Q24.9062 48.3906 20.3906 44.1406
Q15.875 39.8906 15.1875 32.1719
z
" id="BitstreamVeraSans-Roman-65"/>
       <path d="
M8.20312 72.9062
L55.0781 72.9062
L55.0781 68.7031
L28.6094 0
L18.3125 0
L43.2188 64.5938
L8.20312 64.5938
z
" id="BitstreamVeraSans-Roman-37"/>
      </defs>
      <g transform="translate(121.076152102 412.426372041)scale(0.1 -0.1)">
       <use xlink:href="#BitstreamVeraSans-Roman-32"/>
       <use x="63.623046875" xlink:href="#BitstreamVeraSans-Roman-65"/>
       <use x="125.146484375" xlink:href="#BitstreamVeraSans-Roman-37"/>
      </g>
     </g>
    </g>
    <g id="xtick_3">
     <g id="line2d_4">
      <defs>
       <path d="
M0 0
L0 -4" id="ma7c7730229"/>
      </defs>
      <g>
       <use style="stroke:#000000;stroke-linecap:butt;stroke-width:0.5;" x="233.560116704" xlink:href="#ma7c7730229" y="401.004497041"/>
      </g>
     </g>
     <g id="text_2">
      <!-- 4e7 -->
      <defs>
       <path d="
M37.7969 64.3125
L12.8906 25.3906
L37.7969 25.3906
z

M35.2031 72.9062
L47.6094 72.9062
L47.6094 25.3906
L58.0156 25.3906
L58.0156 17.1875
L47.6094 17.1875
L47.6094 0
L37.7969 0
L37.7969 17.1875
L4.89062 17.1875
L4.89062 26.7031
z
" id="BitstreamVeraSans-Roman-34"/>
      </defs>
      <g transform="translate(224.792929204 412.295122041)scale(0.1 -0.1)">
       <use xlink:href="#BitstreamVeraSans-Roman-34"/>
       <use x="63.623046875" xlink:href="#BitstreamVeraSans-Roman-65"/>
       <use x="125.146484375" xlink:href="#BitstreamVeraSans-Roman-37"/>
      </g>
     </g>
    </g>
    <g id="xtick_4">
     <g id="line2d_5">
      <defs>
       <path d="
M0 0
L0 -4" id="ma7c7730229"/>
      </defs>
      <g>
       <use style="stroke:#000000;stroke-linecap:butt;stroke-width:0.5;" x="337.398768807" xlink:href="#ma7c7730229" y="401.004497041"/>
      </g>
     </g>
     <g id="text_3">
      <!-- 6e7 -->
      <defs>
       <path d="
M33.0156 40.375
Q26.375 40.375 22.4844 35.8281
Q18.6094 31.2969 18.6094 23.3906
Q18.6094 15.5312 22.4844 10.9531
Q26.375 6.39062 33.0156 6.39062
Q39.6562 6.39062 43.5312 10.9531
Q47.4062 15.5312 47.4062 23.3906
Q47.4062 31.2969 43.5312 35.8281
Q39.6562 40.375 33.0156 40.375
M52.5938 71.2969
L52.5938 62.3125
Q48.875 64.0625 45.0938 64.9844
Q41.3125 65.9219 37.5938 65.9219
Q27.8281 65.9219 22.6719 59.3281
Q17.5312 52.7344 16.7969 39.4062
Q19.6719 43.6562 24.0156 45.9219
Q28.375 48.1875 33.5938 48.1875
Q44.5781 48.1875 50.9531 41.5156
Q57.3281 34.8594 57.3281 23.3906
Q57.3281 12.1562 50.6875 5.35938
Q44.0469 -1.42188 33.0156 -1.42188
Q20.3594 -1.42188 13.6719 8.26562
Q6.98438 17.9688 6.98438 36.375
Q6.98438 53.6562 15.1875 63.9375
Q23.3906 74.2188 37.2031 74.2188
Q40.9219 74.2188 44.7031 73.4844
Q48.4844 72.75 52.5938 71.2969" id="BitstreamVeraSans-Roman-36"/>
      </defs>
      <g transform="translate(328.736268807 412.426372041)scale(0.1 -0.1)">
       <use xlink:href="#BitstreamVeraSans-Roman-36"/>
       <use x="63.623046875" xlink:href="#BitstreamVeraSans-Roman-65"/>
       <use x="125.146484375" xlink:href="#BitstreamVeraSans-Roman-37"/>
      </g>
     </g>
    </g>
    <g id="xtick_5">
     <g id="line2d_6">
      <defs>
       <path d="
M0 0
L0 -4" id="ma7c7730229"/>
      </defs>
      <g>
       <use style="stroke:#000000;stroke-linecap:butt;stroke-width:0.5;" x="441.237420909" xlink:href="#ma7c7730229" y="401.004497041"/>
      </g>
     </g>
     <g id="text_4">
      <!-- 8e7 -->
      <defs>
       <path d="
M31.7812 34.625
Q24.75 34.625 20.7188 30.8594
Q16.7031 27.0938 16.7031 20.5156
Q16.7031 13.9219 20.7188 10.1562
Q24.75 6.39062 31.7812 6.39062
Q38.8125 6.39062 42.8594 10.1719
Q46.9219 13.9688 46.9219 20.5156
Q46.9219 27.0938 42.8906 30.8594
Q38.875 34.625 31.7812 34.625
M21.9219 38.8125
Q15.5781 40.375 12.0312 44.7188
Q8.5 49.0781 8.5 55.3281
Q8.5 64.0625 14.7188 69.1406
Q20.9531 74.2188 31.7812 74.2188
Q42.6719 74.2188 48.875 69.1406
Q55.0781 64.0625 55.0781 55.3281
Q55.0781 49.0781 51.5312 44.7188
Q48 40.375 41.7031 38.8125
Q48.8281 37.1562 52.7969 32.3125
Q56.7812 27.4844 56.7812 20.5156
Q56.7812 9.90625 50.3125 4.23438
Q43.8438 -1.42188 31.7812 -1.42188
Q19.7344 -1.42188 13.25 4.23438
Q6.78125 9.90625 6.78125 20.5156
Q6.78125 27.4844 10.7812 32.3125
Q14.7969 37.1562 21.9219 38.8125
M18.3125 54.3906
Q18.3125 48.7344 21.8438 45.5625
Q25.3906 42.3906 31.7812 42.3906
Q38.1406 42.3906 41.7188 45.5625
Q45.3125 48.7344 45.3125 54.3906
Q45.3125 60.0625 41.7188 63.2344
Q38.1406 66.4062 31.7812 66.4062
Q25.3906 66.4062 21.8438 63.2344
Q18.3125 60.0625 18.3125 54.3906" id="BitstreamVeraSans-Roman-38"/>
      </defs>
      <g transform="translate(432.564764659 412.426372041)scale(0.1 -0.1)">
       <use xlink:href="#BitstreamVeraSans-Roman-38"/>
       <use x="63.623046875" xlink:href="#BitstreamVeraSans-Roman-65"/>
       <use x="125.146484375" xlink:href="#BitstreamVeraSans-Roman-37"/>
      </g>
     </g>
    </g>
    <g id="xtick_6">
     <g id="line2d_7">
      <defs>
       <path d="
M0 0
L0 -4" id="ma7c7730229"/>
      </defs>
      <g>
       <use style="stroke:#000000;stroke-linecap:butt;stroke-width:0.5;" x="545.076073011" xlink:href="#ma7c7730229" y="401.004497041"/>
      </g>
     </g>
     <g id="text_5">
      <!-- 1e8 -->
      <defs>
       <path d="
M12.4062 8.29688
L28.5156 8.29688
L28.5156 63.9219
L10.9844 60.4062
L10.9844 69.3906
L28.4219 72.9062
L38.2812 72.9062
L38.2812 8.29688
L54.3906 8.29688
L54.3906 0
L12.4062 0
z
" id="BitstreamVeraSans-Roman-31"/>
      </defs>
      <g transform="translate(536.528416761 412.426372041)scale(0.1 -0.1)">
       <use xlink:href="#BitstreamVeraSans-Roman-31"/>
       <use x="63.623046875" xlink:href="#BitstreamVeraSans-Roman-65"/>
       <use x="125.146484375" xlink:href="#BitstreamVeraSans-Roman-38"/>
      </g>
     </g>
    </g>
    <g id="xtick_7">
     <g id="line2d_8">
      <defs>
       <path d="
M0 0
L0 -2" id="m11aa28e0b1"/>
      </defs>
      <g>
       <use style="stroke:#000000;stroke-linecap:butt;stroke-width:0.5;" x="51.8424755255" xlink:href="#m11aa28e0b1" y="401.004497041"/>
      </g>
     </g>
    </g>
    <g id="xtick_8">
     <g id="line2d_9">
      <defs>
       <path d="
M0 0
L0 -2" id="m11aa28e0b1"/>
      </defs>
      <g>
       <use style="stroke:#000000;stroke-linecap:butt;stroke-width:0.5;" x="77.8021385511" xlink:href="#m11aa28e0b1" y="401.004497041"/>
      </g>
     </g>
    </g>
    <g id="xtick_9">
     <g id="line2d_10">
      <defs>
       <path d="
M0 0
L0 -2" id="m11aa28e0b1"/>
      </defs>
      <g>
       <use style="stroke:#000000;stroke-linecap:butt;stroke-width:0.5;" x="103.761801577" xlink:href="#m11aa28e0b1" y="401.004497041"/>
      </g>
     </g>
    </g>
    <g id="xtick_10">
     <g id="line2d_11">
      <defs>
       <path d="
M0 0
L0 -2" id="m11aa28e0b1"/>
      </defs>
      <g>
       <use style="stroke:#000000;stroke-linecap:butt;stroke-width:0.5;" x="155.681127628" xlink:href="#m11aa28e0b1" y="401.004497041"/>
      </g>
     </g>
    </g>
    <g id="xtick_11">
     <g id="line2d_12">
      <defs>
       <path d="
M0 0
L0 -2" id="m11aa28e0b1"/>
      </defs>
      <g>
       <use style="stroke:#000000;stroke-linecap:butt;stroke-width:0.5;" x="181.640790653" xlink:href="#m11aa28e0b1" y="401.004497041"/>
      </g>
     </g>
    </g>
    <g id="xtick_12">
     <g id="line2d_13">
      <defs>
       <path d="
M0 0
L0 -2" id="m11aa28e0b1"/>
      </defs>
      <g>
       <use style="stroke:#000000;stroke-linecap:butt;stroke-width:0.5;" x="207.600453679" xlink:href="#m11aa28e0b1" y="401.004497041"/>
      </g>
     </g>
    </g>
    <g id="xtick_13">
     <g id="line2d_14">
      <defs>
       <path d="
M0 0
L0 -2" id="m11aa28e0b1"/>
      </defs>
      <g>
       <use style="stroke:#000000;stroke-linecap:butt;stroke-width:0.5;" x="259.51977973" xlink:href="#m11aa28e0b1" y="401.004497041"/>
      </g>
     </g>
    </g>
    <g id="xtick_14">
     <g id="line2d_15">
      <defs>
       <path d="
M0 0
L0 -2" id="m11aa28e0b1"/>
      </defs>
      <g>
       <use style="stroke:#000000;stroke-linecap:butt;stroke-width:0.5;" x="285.479442755" xlink:href="#m11aa28e0b1" y="401.004497041"/>
      </g>
     </g>
    </g>
    <g id="xtick_15">
     <g id="line2d_16">
      <defs>
       <path d="
M0 0
L0 -2" id="m11aa28e0b1"/>
      </defs>
      <g>
       <use style="stroke:#000000;stroke-linecap:butt;stroke-width:0.5;" x="311.439105781" xlink:href="#m11aa28e0b1" y="401.004497041"/>
      </g>
     </g>
    </g>
    <g id="xtick_16">
     <g id="line2d_17">
      <defs>
       <path d="
M0 0
L0 -2" id="m11aa28e0b1"/>
      </defs>
      <g>
       <use style="stroke:#000000;stroke-linecap:butt;stroke-width:0.5;" x="363.358431832" xlink:href="#m11aa28e0b1" y="401.004497041"/>
      </g>
     </g>
    </g>
    <g id="xtick_17">
     <g id="line2d_18">
      <defs>
       <path d="
M0 0
L0 -2" id="m11aa28e0b1"/>
      </defs>
      <g>
       <use style="stroke:#000000;stroke-linecap:butt;stroke-width:0.5;" x="389.318094858" xlink:href="#m11aa28e0b1" y="401.004497041"/>
      </g>
     </g>
    </g>
    <g id="xtick_18">
     <g id="line2d_19">
      <defs>
       <path d="
M0 0
L0 -2" id="m11aa28e0b1"/>
      </defs>
      <g>
       <use style="stroke:#000000;stroke-linecap:butt;stroke-width:0.5;" x="415.277757883" xlink:href="#m11aa28e0b1" y="401.004497041"/>
      </g>
     </g>
    </g>
    <g id="xtick_19">
     <g id="line2d_20">
      <defs>
       <path d="
M0 0
L0 -2" id="m11aa28e0b1"/>
      </defs>
      <g>
       <use style="stroke:#000000;stroke-linecap:butt;stroke-width:0.5;" x="467.197083934" xlink:href="#m11aa28e0b1" y="401.004497041"/>
      </g>
     </g>
    </g>
    <g id="xtick_20">
     <g id="line2d_21">
      <defs>
       <path d="
M0 0
L0 -2" id="m11aa28e0b1"/>
      </defs>
      <g>
       <use style="stroke:#000000;stroke-linecap:butt;stroke-width:0.5;" x="493.15674696" xlink:href="#m11aa28e0b1" y="401.004497041"/>
      </g>
     </g>
    </g>
    <g id="xtick_21">
     <g id="line2d_22">
      <defs>
       <path d="
M0 0
L0 -2" id="m11aa28e0b1"/>
      </defs>
      <g>
       <use style="stroke:#000000;stroke-linecap:butt;stroke-width:0.5;" x="519.116409985" xlink:href="#m11aa28e0b1" y="401.004497041"/>
      </g>
     </g>
    </g>
   </g>
   <g id="matplotlib.axis_2">
    <g id="ytick_1">
     <g id="line2d_23">
      <defs>
       <path d="
M0 0
L4 0" id="m6d2dca71b7"/>
      </defs>
      <g>
       <use style="stroke:#000000;stroke-linecap:butt;stroke-width:0.5;" x="25.8828125" xlink:href="#m6d2dca71b7" y="401.004497041"/>
      </g>
     </g>
    </g>
    <g id="ytick_2">
     <g id="line2d_24">
      <defs>
       <path d="
M0 0
L4 0" id="m6d2dca71b7"/>
      </defs>
      <g>
       <use style="stroke:#000000;stroke-linecap:butt;stroke-width:0.5;" x="25.8828125" xlink:href="#m6d2dca71b7" y="320.263621282"/>
      </g>
     </g>
     <g id="text_6">
      <!-- 0.2 -->
      <defs>
       <path d="
M31.7812 66.4062
Q24.1719 66.4062 20.3281 58.9062
Q16.5 51.4219 16.5 36.375
Q16.5 21.3906 20.3281 13.8906
Q24.1719 6.39062 31.7812 6.39062
Q39.4531 6.39062 43.2812 13.8906
Q47.125 21.3906 47.125 36.375
Q47.125 51.4219 43.2812 58.9062
Q39.4531 66.4062 31.7812 66.4062
M31.7812 74.2188
Q44.0469 74.2188 50.5156 64.5156
Q56.9844 54.8281 56.9844 36.375
Q56.9844 17.9688 50.5156 8.26562
Q44.0469 -1.42188 31.7812 -1.42188
Q19.5312 -1.42188 13.0625 8.26562
Q6.59375 17.9688 6.59375 36.375
Q6.59375 54.8281 13.0625 64.5156
Q19.5312 74.2188 31.7812 74.2188" id="BitstreamVeraSans-Roman-30"/>
       <path d="
M10.6875 12.4062
L21 12.4062
L21 0
L10.6875 0
z
" id="BitstreamVeraSans-Roman-2e"/>
      </defs>
      <g transform="translate(7.640625 323.903465032)scale(0.1 -0.1)">
       <use xlink:href="#BitstreamVeraSans-Roman-30"/>
       <use x="63.623046875" xlink:href="#BitstreamVeraSans-Roman-2e"/>
       <use x="95.41015625" xlink:href="#BitstreamVeraSans-Roman-32"/>
      </g>
     </g>
    </g>
    <g id="ytick_3">
     <g id="line2d_25">
      <defs>
       <path d="
M0 0
L4 0" id="m6d2dca71b7"/>
      </defs>
      <g>
       <use style="stroke:#000000;stroke-linecap:butt;stroke-width:0.5;" x="25.8828125" xlink:href="#m6d2dca71b7" y="239.522745522"/>
      </g>
     </g>
     <g id="text_7">
      <!-- 0.4 -->
      <g transform="translate(7.2 243.162589272)scale(0.1 -0.1)">
       <use xlink:href="#BitstreamVeraSans-Roman-30"/>
       <use x="63.623046875" xlink:href="#BitstreamVeraSans-Roman-2e"/>
       <use x="95.41015625" xlink:href="#BitstreamVeraSans-Roman-34"/>
      </g>
     </g>
    </g>
    <g id="ytick_4">
     <g id="line2d_26">
      <defs>
       <path d="
M0 0
L4 0" id="m6d2dca71b7"/>
      </defs>
      <g>
       <use style="stroke:#000000;stroke-linecap:butt;stroke-width:0.5;" x="25.8828125" xlink:href="#m6d2dca71b7" y="158.781869763"/>
      </g>
     </g>
     <g id="text_8">
      <!-- 0.6 -->
      <g transform="translate(7.26875 162.421713513)scale(0.1 -0.1)">
       <use xlink:href="#BitstreamVeraSans-Roman-30"/>
       <use x="63.623046875" xlink:href="#BitstreamVeraSans-Roman-2e"/>
       <use x="95.41015625" xlink:href="#BitstreamVeraSans-Roman-36"/>
      </g>
     </g>
    </g>
    <g id="ytick_5">
     <g id="line2d_27">
      <defs>
       <path d="
M0 0
L4 0" id="m6d2dca71b7"/>
      </defs>
      <g>
       <use style="stroke:#000000;stroke-linecap:butt;stroke-width:0.5;" x="25.8828125" xlink:href="#m6d2dca71b7" y="78.0409940033"/>
      </g>
     </g>
     <g id="text_9">
      <!-- 0.8 -->
      <g transform="translate(7.3234375 81.6808377533)scale(0.1 -0.1)">
       <use xlink:href="#BitstreamVeraSans-Roman-30"/>
       <use x="63.623046875" xlink:href="#BitstreamVeraSans-Roman-2e"/>
       <use x="95.41015625" xlink:href="#BitstreamVeraSans-Roman-38"/>
      </g>
     </g>
    </g>
    <g id="ytick_6">
     <g id="line2d_28">
      <defs>
       <path d="
M0 0
L2 0" id="m3065927de3"/>
      </defs>
      <g>
       <use style="stroke:#000000;stroke-linecap:butt;stroke-width:0.5;" x="25.8828125" xlink:href="#m3065927de3" y="380.819278102"/>
      </g>
     </g>
    </g>
    <g id="ytick_7">
     <g id="line2d_29">
      <defs>
       <path d="
M0 0
L2 0" id="m3065927de3"/>
      </defs>
      <g>
       <use style="stroke:#000000;stroke-linecap:butt;stroke-width:0.5;" x="25.8828125" xlink:href="#m3065927de3" y="360.634059162"/>
      </g>
     </g>
    </g>
    <g id="ytick_8">
     <g id="line2d_30">
      <defs>
       <path d="
M0 0
L2 0" id="m3065927de3"/>
      </defs>
      <g>
       <use style="stroke:#000000;stroke-linecap:butt;stroke-width:0.5;" x="25.8828125" xlink:href="#m3065927de3" y="340.448840222"/>
      </g>
     </g>
    </g>
    <g id="ytick_9">
     <g id="line2d_31">
      <defs>
       <path d="
M0 0
L2 0" id="m3065927de3"/>
      </defs>
      <g>
       <use style="stroke:#000000;stroke-linecap:butt;stroke-width:0.5;" x="25.8828125" xlink:href="#m3065927de3" y="320.263621282"/>
      </g>
     </g>
    </g>
    <g id="ytick_10">
     <g id="line2d_32">
      <defs>
       <path d="
M0 0
L2 0" id="m3065927de3"/>
      </defs>
      <g>
       <use style="stroke:#000000;stroke-linecap:butt;stroke-width:0.5;" x="25.8828125" xlink:href="#m3065927de3" y="300.078402342"/>
      </g>
     </g>
    </g>
    <g id="ytick_11">
     <g id="line2d_33">
      <defs>
       <path d="
M0 0
L2 0" id="m3065927de3"/>
      </defs>
      <g>
       <use style="stroke:#000000;stroke-linecap:butt;stroke-width:0.5;" x="25.8828125" xlink:href="#m3065927de3" y="279.893183402"/>
      </g>
     </g>
    </g>
    <g id="ytick_12">
     <g id="line2d_34">
      <defs>
       <path d="
M0 0
L2 0" id="m3065927de3"/>
      </defs>
      <g>
       <use style="stroke:#000000;stroke-linecap:butt;stroke-width:0.5;" x="25.8828125" xlink:href="#m3065927de3" y="259.707964462"/>
      </g>
     </g>
    </g>
    <g id="ytick_13">
     <g id="line2d_35">
      <defs>
       <path d="
M0 0
L2 0" id="m3065927de3"/>
      </defs>
      <g>
       <use style="stroke:#000000;stroke-linecap:butt;stroke-width:0.5;" x="25.8828125" xlink:href="#m3065927de3" y="239.522745522"/>
      </g>
     </g>
    </g>
    <g id="ytick_14">
     <g id="line2d_36">
      <defs>
       <path d="
M0 0
L2 0" id="m3065927de3"/>
      </defs>
      <g>
       <use style="stroke:#000000;stroke-linecap:butt;stroke-width:0.5;" x="25.8828125" xlink:href="#m3065927de3" y="219.337526582"/>
      </g>
     </g>
    </g>
    <g id="ytick_15">
     <g id="line2d_37">
      <defs>
       <path d="
M0 0
L2 0" id="m3065927de3"/>
      </defs>
      <g>
       <use style="stroke:#000000;stroke-linecap:butt;stroke-width:0.5;" x="25.8828125" xlink:href="#m3065927de3" y="199.152307643"/>
      </g>
     </g>
    </g>
    <g id="ytick_16">
     <g id="line2d_38">
      <defs>
       <path d="
M0 0
L2 0" id="m3065927de3"/>
      </defs>
      <g>
       <use style="stroke:#000000;stroke-linecap:butt;stroke-width:0.5;" x="25.8828125" xlink:href="#m3065927de3" y="178.967088703"/>
      </g>
     </g>
    </g>
    <g id="ytick_17">
     <g id="line2d_39">
      <defs>
       <path d="
M0 0
L2 0" id="m3065927de3"/>
      </defs>
      <g>
       <use style="stroke:#000000;stroke-linecap:butt;stroke-width:0.5;" x="25.8828125" xlink:href="#m3065927de3" y="158.781869763"/>
      </g>
     </g>
    </g>
    <g id="ytick_18">
     <g id="line2d_40">
      <defs>
       <path d="
M0 0
L2 0" id="m3065927de3"/>
      </defs>
      <g>
       <use style="stroke:#000000;stroke-linecap:butt;stroke-width:0.5;" x="25.8828125" xlink:href="#m3065927de3" y="138.596650823"/>
      </g>
     </g>
    </g>
    <g id="ytick_19">
     <g id="line2d_41">
      <defs>
       <path d="
M0 0
L2 0" id="m3065927de3"/>
      </defs>
      <g>
       <use style="stroke:#000000;stroke-linecap:butt;stroke-width:0.5;" x="25.8828125" xlink:href="#m3065927de3" y="118.411431883"/>
      </g>
     </g>
    </g>
    <g id="ytick_20">
     <g id="line2d_42">
      <defs>
       <path d="
M0 0
L2 0" id="m3065927de3"/>
      </defs>
      <g>
       <use style="stroke:#000000;stroke-linecap:butt;stroke-width:0.5;" x="25.8828125" xlink:href="#m3065927de3" y="98.2262129432"/>
      </g>
     </g>
    </g>
    <g id="ytick_21">
     <g id="line2d_43">
      <defs>
       <path d="
M0 0
L2 0" id="m3065927de3"/>
      </defs>
      <g>
       <use style="stroke:#000000;stroke-linecap:butt;stroke-width:0.5;" x="25.8828125" xlink:href="#m3065927de3" y="78.0409940033"/>
      </g>
     </g>
    </g>
    <g id="ytick_22">
     <g id="line2d_44">
      <defs>
       <path d="
M0 0
L2 0" id="m3065927de3"/>
      </defs>
      <g>
       <use style="stroke:#000000;stroke-linecap:butt;stroke-width:0.5;" x="25.8828125" xlink:href="#m3065927de3" y="57.8557750634"/>
      </g>
     </g>
    </g>
    <g id="ytick_23">
     <g id="line2d_45">
      <defs>
       <path d="
M0 0
L2 0" id="m3065927de3"/>
      </defs>
      <g>
       <use style="stroke:#000000;stroke-linecap:butt;stroke-width:0.5;" x="25.8828125" xlink:href="#m3065927de3" y="37.6705561235"/>
      </g>
     </g>
    </g>
    <g id="ytick_24">
     <g id="line2d_46">
      <defs>
       <path d="
M0 0
L2 0" id="m3065927de3"/>
      </defs>
      <g>
       <use style="stroke:#000000;stroke-linecap:butt;stroke-width:0.5;" x="25.8828125" xlink:href="#m3065927de3" y="17.4853371837"/>
      </g>
     </g>
    </g>
   </g>
   <g id="patch_3">
    <path d="
M15.4995 401.004
L555.43 401.004" style="fill:none;stroke:#000000;stroke-width:0.8;"/>
   </g>
   <g id="patch_4">
    <path d="
M25.8828 408.726
L25.8828 7.2" style="fill:none;stroke:#000000;stroke-width:0.8;"/>
   </g>
  </g>
 </g>
 <defs>
  <clipPath id="pc4ff94fdb4">
   <rect height="401.526153846" width="539.930304948" x="15.4995477887" y="7.2"/>
  </clipPath>
 </defs>
</svg>
