<?xml version="1.0" encoding="utf-8" standalone="no"?>
<!DOCTYPE svg PUBLIC "-//W3C//DTD SVG 1.1//EN"
  "http://www.w3.org/Graphics/SVG/1.1/DTD/svg11.dtd">
<!-- Created with matplotlib (http://matplotlib.sourceforge.net/) -->
<svg height="419pt" version="1.1" viewBox="0 0 562 419" width="562pt" xmlns="http://www.w3.org/2000/svg" xmlns:xlink="http://www.w3.org/1999/xlink">
 <defs>
  <style type="text/css">
*{stroke-linecap:square;stroke-linejoin:round;}
  </style>
 </defs>
 <g id="figure_1">
  <g id="patch_1">
   <path d="
M4.44089e-16 419.769
L562.63 419.769
L562.63 0
L4.44089e-16 0
z
" style="fill:#ffffff;"/>
  </g>
  <g id="axes_1">
   <g id="patch_2">
    <path d="
M15.4995 408.726
L555.43 408.726
L555.43 7.2
L15.4995 7.2
z
" style="fill:#ffffff;"/>
   </g>
   <g id="line2d_1">
    <path clip-path="url(#pc4ff94fdb4)" d="
M25.8828 401.004
L25.9312 401.004
L25.9887 14.9217
L26.0502 14.9217
L26.1127 44.8474
L26.1778 44.8474
L26.2449 57.5113
L26.3111 57.5113
L26.3792 94.0958
L26.449 94.0958
L26.5188 133.659
L26.5894 133.659
L26.6602 166.104
L26.732 166.104
L26.8048 182.798
L26.8769 182.798
L26.9501 187.646
L27.0234 187.646
L27.0971 184.426
L27.1711 184.426
L27.2465 181.062
L27.3202 181.062
L27.396 180.143
L27.4722 180.143
L27.5467 181.538
L27.6224 181.538
L27.6987 186.924
L27.9291 186.911
L27.9291 186.321
L28.0083 186.905
L28.085 186.905
L28.162 189.779
L28.2404 189.779
L28.2404 190.171
L28.3192 189.825
L28.4744 189.754
L28.4744 189.148
L28.5533 189.177
L28.6311 189.177
L28.7112 187.332
L28.8703 187.411
L28.9482 185.279
L29.0281 185.279
L29.107 182.255
L29.1881 182.255
L29.2698 178.699
L29.3494 178.699
L29.4302 174.649
L29.5096 174.649
L29.5895 169.742
L29.6706 169.742
L29.7529 164.888
L29.8339 164.888
L29.9145 161.128
L29.9951 161.128
L30.076 156.969
L30.157 156.969
L30.2386 154.78
L30.3215 154.78
L30.4014 153.701
L30.6481 153.684
L30.7302 152.98
L30.8134 152.98
L30.8957 152.14
L30.9794 152.14
L31.0628 150.969
L31.1439 150.969
L31.2263 149.871
L31.3095 149.871
L31.3947 147.829
L31.478 147.829
L31.5606 146.373
L31.6422 146.373
L31.726 145.072
L31.8088 145.072
L31.8929 144.095
L31.9754 144.095
L32.0566 143.465
L32.142 143.465
L32.2255 143.022
L32.3118 143.022
L32.3957 142.166
L32.478 142.166
L32.5624 141.011
L32.6472 141.011
L32.7314 140.208
L32.8168 140.208
L32.9015 139.393
L32.986 139.393
L33.0702 138.759
L33.1523 138.759
L33.1523 138.41
L33.2403 138.412
L33.4921 138.343
L33.5775 138.113
L33.8322 138.046
L33.9189 137.554
L34.0039 137.554
L34.0897 136.689
L34.1769 136.689
L34.2624 135.317
L34.3467 135.317
L34.4328 134.438
L34.5187 134.438
L34.6028 133.49
L34.69 133.49
L34.7753 132.47
L34.8621 132.47
L34.9495 131.514
L35.0361 131.514
L35.1214 130.448
L35.2069 130.448
L35.2926 129.717
L35.378 129.717
L35.4652 128.809
L35.5504 128.809
L35.6358 127.574
L35.722 127.574
L35.8092 126.783
L35.8942 126.783
L35.9808 126.332
L36.0677 126.332
L36.1576 125.979
L36.2435 125.979
L36.3285 125.577
L36.5013 125.483
L36.5013 125.392
L36.589 125.439
L36.7639 125.434
L36.8509 125.791
L36.9378 125.791
L37.0238 126.18
L37.2861 126.189
L37.3738 125.875
L37.4621 125.875
L37.5503 125.493
L37.6368 125.493
L37.7226 125.115
L37.9001 125.013
L37.9897 124.644
L38.0777 124.644
L38.1646 124.368
L38.3402 124.314
L38.4289 124.131
L38.6059 124.066
L38.6929 123.921
L38.9587 123.81
L39.0449 123.55
L39.6628 123.595
L39.7522 123.804
L39.8407 123.804
L39.9276 124.129
L40.0156 124.129
L40.1071 124.485
L40.6354 124.489
L40.7247 124.119
L40.8151 124.119
L40.9048 123.527
L40.9935 123.527
L41.0833 122.897
L41.1729 122.897
L41.263 122.203
L41.3522 122.203
L41.4407 121.555
L41.5286 121.555
L41.6197 120.76
L41.7097 120.76
L41.8012 119.99
L41.888 119.99
L41.9776 119.211
L42.0663 119.211
L42.1551 118.695
L42.2459 118.695
L42.3348 118.279
L42.4237 118.279
L42.5101 117.811
L42.5996 117.811
L42.6876 117.459
L43.1385 117.539
L43.2284 117.806
L43.3202 117.806
L43.4096 118.016
L43.5881 118.098
L43.6773 118.309
L43.7651 118.309
L43.8569 118.595
L44.0415 118.68
L44.132 118.81
L44.4974 118.916
L44.4974 118.98
L44.5869 118.974
L44.8579 119.019
L44.9473 119.138
L45.4884 119.125
L45.5792 118.887
L45.7588 118.799
L45.8486 118.664
L46.1211 118.581
L46.2128 118.39
L46.3919 118.314
L46.4861 118.207
L46.5776 118.207
L46.6698 117.873
L46.7609 117.873
L46.8495 117.442
L46.9395 117.442
L47.0308 116.949
L47.1212 116.949
L47.2119 116.417
L47.3049 116.417
L47.3974 115.961
L47.4879 115.961
L47.5789 115.645
L47.6686 115.645
L47.7592 115.424
L47.8515 115.424
L47.9442 115.132
L48.0343 115.132
L48.1273 114.928
L48.3103 114.863
L48.4025 114.597
L48.4956 114.597
L48.5872 114.335
L48.6786 114.335
L48.7722 113.917
L48.8608 113.917
L48.9498 113.554
L49.1317 113.448
L49.1317 113.365
L49.2221 113.39
L49.6828 113.283
L49.7757 113.214
L50.0514 113.108
L50.1434 112.838
L50.233 112.838
L50.3258 112.497
L50.4173 112.497
L50.5081 112.148
L50.6017 112.148
L50.6943 111.846
L50.7877 111.846
L50.8792 111.534
L50.9724 111.534
L51.063 111.275
L51.1541 111.275
L51.2467 110.986
L51.4287 110.879
L51.5208 110.77
L51.7928 110.695
L51.8867 110.571
L52.1653 110.481
L52.2574 110.392
L53.3671 110.469
L53.46 110.705
L53.553 110.705
L53.6434 111.085
L53.7377 111.085
L53.829 111.569
L53.9229 111.569
L54.0161 112.13
L54.109 112.13
L54.2008 112.749
L54.2939 112.749
L54.3878 113.195
L54.4791 113.195
L54.5749 113.606
L54.6682 113.606
L54.7616 113.963
L54.855 113.963
L54.9479 114.352
L55.0414 114.352
L55.1344 114.791
L55.2284 114.791
L55.3233 115.16
L55.4171 115.16
L55.5071 115.586
L55.599 115.586
L55.6936 116.101
L55.7867 116.101
L55.8817 116.669
L55.9762 116.669
L56.0691 117.059
L56.1624 117.059
L56.2553 117.434
L56.3498 117.434
L56.4411 117.727
L56.5331 117.727
L56.6239 117.967
L56.8107 118.061
L56.9052 118.326
L56.9991 118.326
L57.0908 118.663
L57.1823 118.663
L57.2799 119.005
L57.373 119.005
L57.467 119.402
L57.5597 119.402
L57.6529 119.746
L57.7476 119.746
L57.8396 120.077
L57.9325 120.077
L58.029 120.477
L58.1211 120.477
L58.2165 120.872
L58.3102 120.872
L58.4025 121.28
L58.495 121.28
L58.5859 121.659
L58.6797 121.659
L58.7729 121.968
L58.8677 121.968
L58.9622 122.239
L59.059 122.239
L59.1526 122.519
L59.2459 122.519
L59.3421 122.782
L59.5298 122.89
L59.6237 123.135
L59.7168 123.135
L59.8105 123.455
L59.9044 123.455
L59.9977 123.871
L60.0896 123.871
L60.1832 124.287
L60.2775 124.287
L60.3719 124.705
L60.468 124.705
L60.5618 125.187
L60.6562 125.187
L60.7481 125.601
L60.8416 125.601
L60.9358 125.99
L61.0294 125.99
L61.1243 126.345
L61.2191 126.345
L61.3125 126.744
L61.4072 126.744
L61.4992 127.177
L61.5921 127.177
L61.6846 127.624
L61.7798 127.624
L61.8749 128.108
L61.9672 128.108
L62.0599 128.545
L62.156 128.545
L62.2495 129.032
L62.344 129.032
L62.4362 129.548
L62.5288 129.548
L62.6251 130.09
L62.7188 130.09
L62.8115 130.57
L62.9094 130.57
L63.0034 131.052
L63.0975 131.052
L63.1938 131.568
L63.2869 131.568
L63.3821 132.091
L63.477 132.091
L63.5716 132.589
L63.6644 132.589
L63.7587 133.056
L63.8552 133.056
L63.9483 133.553
L64.0453 133.553
L64.1385 134.052
L64.2319 134.052
L64.3287 134.498
L64.4235 134.498
L64.5179 134.91
L64.6116 134.91
L64.7071 135.309
L64.8044 135.309
L64.8993 135.747
L64.9947 135.747
L65.0877 136.149
L65.183 136.149
L65.2792 136.573
L65.3713 136.573
L65.4675 137.016
L65.5613 137.016
L65.6552 137.439
L65.7503 137.439
L65.8439 137.854
L65.9399 137.854
L66.035 138.374
L66.1316 138.374
L66.2276 138.947
L66.3235 138.947
L66.4173 139.552
L66.5119 139.552
L66.6063 140.145
L66.7 140.145
L66.7939 140.683
L66.8886 140.683
L66.9842 141.148
L67.0789 141.148
L67.1738 141.602
L67.2703 141.602
L67.3636 142.047
L67.4604 142.047
L67.5558 142.424
L67.652 142.424
L67.7453 142.777
L67.8421 142.777
L67.9397 143.101
L68.0348 143.101
L68.1294 143.41
L68.2248 143.41
L68.3201 143.745
L68.4145 143.745
L68.509 144.133
L68.6036 144.133
L68.6979 144.551
L68.7958 144.551
L68.8901 144.917
L68.9849 144.917
L69.0795 145.318
L69.1765 145.318
L69.2699 145.693
L69.3671 145.693
L69.4622 146.079
L69.5581 146.079
L69.6544 146.406
L69.7521 146.406
L69.8476 146.761
L69.9409 146.761
L70.0367 147.109
L70.1309 147.109
L70.2247 147.445
L70.3194 147.445
L70.4136 147.781
L70.5101 147.781
L70.6037 148.044
L70.7007 148.044
L70.7964 148.316
L70.8902 148.316
L70.9866 148.638
L71.0813 148.638
L71.1758 148.953
L71.271 148.953
L71.3666 149.31
L71.462 149.31
L71.5565 149.712
L71.6528 149.712
L71.7495 150.148
L71.8455 150.148
L71.9437 150.553
L72.0388 150.553
L72.1354 150.992
L72.2279 150.992
L72.3243 151.427
L72.4221 151.427
L72.5174 151.803
L72.6109 151.803
L72.7112 152.202
L72.8071 152.202
L72.9039 152.624
L72.9998 152.624
L73.0949 153.101
L73.1907 153.101
L73.2893 153.605
L73.3829 153.605
L73.4792 154.141
L73.5746 154.141
L73.671 154.706
L73.7651 154.706
L73.8598 155.213
L73.954 155.213
L74.0513 155.705
L74.1479 155.705
L74.2428 156.128
L74.34 156.128
L74.4343 156.505
L74.5299 156.505
L74.6271 156.882
L74.7233 156.882
L74.8211 157.262
L74.918 157.262
L75.015 157.623
L75.1111 157.623
L75.2081 157.979
L75.3034 157.979
L75.3995 158.315
L75.4951 158.315
L75.592 158.641
L75.6839 158.641
L75.7821 158.938
L75.8775 158.938
L75.9734 159.224
L76.0694 159.224
L76.165 159.526
L76.2634 159.526
L76.3603 159.831
L76.4543 159.831
L76.5511 160.104
L76.6491 160.104
L76.7451 160.341
L76.9354 160.435
L77.0351 160.604
L77.2286 160.671
L77.326 160.821
L77.5187 160.891
L77.6167 161.042
L77.8128 161.123
L77.9089 161.268
L78.0999 161.33
L78.196 161.483
L78.3883 161.576
L78.4848 161.754
L78.678 161.853
L78.7751 162.046
L78.971 162.144
L79.0678 162.325
L79.2586 162.403
L79.3554 162.587
L79.5493 162.693
L79.6473 162.892
L79.84 162.995
L79.9355 163.229
L80.1262 163.333
L80.2234 163.526
L80.4148 163.616
L80.5124 163.827
L80.7049 163.934
L80.8023 164.149
L80.898 164.149
L80.9959 164.411
L81.0924 164.411
L81.1879 164.712
L81.2853 164.712
L81.3785 165.013
L81.4752 165.013
L81.5712 165.338
L81.6684 165.338
L81.7665 165.658
L81.8649 165.658
L81.9626 166.009
L82.06 166.009
L82.1572 166.348
L82.2521 166.348
L82.3491 166.665
L82.448 166.665
L82.5437 166.983
L82.6396 166.983
L82.7343 167.298
L82.8319 167.298
L82.9297 167.617
L83.0274 167.617
L83.1256 167.953
L83.2232 167.953
L83.3181 168.261
L83.4141 168.261
L83.5104 168.557
L83.6068 168.557
L83.7081 168.889
L83.8032 168.889
L83.8989 169.175
L83.9951 169.175
L84.0922 169.418
L84.2878 169.529
L84.3849 169.747
L84.4838 169.747
L84.5818 169.983
L84.6781 169.983
L84.7766 170.207
L84.9718 170.303
L85.0687 170.513
L85.2647 170.615
L85.3605 170.827
L85.5552 170.938
L85.6522 171.178
L85.749 171.178
L85.8438 171.4
L86.0376 171.499
L86.1355 171.685
L86.3295 171.77
L86.4244 171.955
L86.6208 172.045
L86.718 172.223
L86.913 172.305
L87.0121 172.47
L87.2036 172.554
L87.3006 172.709
L87.5947 172.812
L87.6923 172.926
L87.8873 173
L87.9815 173.113
L88.1772 173.168
L88.2753 173.283
L88.4726 173.339
L88.5687 173.453
L88.7662 173.509
L88.8639 173.646
L89.1562 173.757
L89.2552 173.822
L89.5469 173.897
L89.6441 173.953
L90.1276 174.062
L90.2261 174.137
L90.5176 174.215
L90.6162 174.277
L91.0092 174.365
L91.108 174.426
L91.3991 174.525
L91.4978 174.64
L91.8901 174.739
L91.986 174.818
L92.3734 174.929
L92.4726 175.003
L92.7656 175.082
L92.8652 175.152
L93.4569 175.261
L93.556 175.294
L94.0503 175.386
L94.1487 175.425
L95.0297 175.525
L95.1287 175.598
L95.4229 175.689
L95.5224 175.762
L95.8196 175.851
L95.9173 175.926
L96.2152 176.015
L96.3131 176.091
L96.7033 176.198
L96.8011 176.288
L97.0945 176.384
L97.1935 176.505
L97.4863 176.61
L97.5851 176.726
L97.7808 176.8
L97.8799 176.93
L98.0721 177.003
L98.1699 177.151
L98.3695 177.23
L98.4704 177.382
L98.67 177.453
L98.7671 177.587
L98.9649 177.652
L99.0626 177.786
L99.2586 177.865
L99.3569 178.016
L99.556 178.089
L99.6562 178.215
L99.8518 178.281
L99.9495 178.412
L100.147 178.487
L100.245 178.63
L100.437 178.7
L100.536 178.817
L100.732 178.877
L100.832 178.995
L101.029 179.054
L101.128 179.197
L101.327 179.277
L101.426 179.446
L101.622 179.516
L101.72 179.646
L101.92 179.704
L102.02 179.813
L102.313 179.905
L102.413 180.021
L102.607 180.089
L102.707 180.225
L102.905 180.295
L103.004 180.423
L103.202 180.488
L103.303 180.598
L103.601 180.678
L103.702 180.739
L104.196 180.835
L104.293 180.898
L104.688 181
L104.79 181.075
L105.183 181.184
L105.282 181.276
L105.48 181.333
L105.578 181.45
L105.881 181.55
L105.98 181.64
L106.28 181.726
L106.376 181.799
L108.648 181.905
L108.749 181.946
L111.935 181.837
L112.032 181.816
L113.621 181.915
L113.72 181.947
L114.31 182.034
L114.412 182.085
L114.91 182.192
L115.012 182.256
L115.513 182.355
L115.614 182.417
L116.007 182.512
L116.107 182.579
L116.699 182.675
L116.797 182.709
L117.297 182.818
L117.396 182.92
L117.698 183.02
L117.797 183.126
L117.999 183.184
L118.102 183.313
L118.298 183.383
L118.398 183.521
L118.602 183.59
L118.699 183.713
L118.902 183.77
L119.001 183.886
L119.292 183.992
L119.394 184.134
L119.597 184.217
L119.697 184.379
L119.899 184.459
L120 184.597
L120.202 184.659
L120.302 184.775
L120.598 184.87
L120.699 184.973
L120.994 185.078
L121.094 185.181
L121.298 185.238
L121.4 185.346
L121.699 185.445
L121.801 185.528
L122.203 185.635
L122.303 185.686
L122.699 185.787
L122.798 185.858
L123.104 185.938
L123.2 186.007
L123.604 186.109
L123.702 186.174
L124.106 186.285
L124.204 186.363
L124.504 186.45
L124.605 186.538
L124.907 186.624
L125.006 186.721
L125.209 186.78
L125.309 186.9
L125.51 186.964
L125.61 187.094
L125.812 187.155
L125.912 187.261
L126.113 187.327
L126.212 187.45
L126.412 187.512
L126.513 187.634
L126.81 187.732
L126.908 187.832
L127.213 187.922
L127.316 188.022
L127.623 188.116
L127.722 188.215
L128.024 188.324
L128.124 188.439
L128.423 188.548
L128.523 188.641
L128.822 188.739
L128.924 188.848
L129.227 188.95
L129.325 189.054
L129.524 189.109
L129.627 189.226
L129.926 189.325
L130.025 189.43
L130.226 189.484
L130.328 189.599
L130.531 189.657
L130.628 189.766
L130.935 189.875
L131.035 189.974
L131.338 190.066
L131.44 190.152
L131.739 190.244
L131.843 190.338
L132.147 190.444
L132.25 190.545
L132.55 190.639
L132.65 190.731
L133.052 190.837
L133.153 190.9
L133.552 190.998
L133.652 191.061
L134.061 191.164
L134.158 191.226
L134.562 191.334
L134.665 191.42
L134.965 191.51
L135.064 191.614
L135.369 191.717
L135.47 191.821
L135.777 191.931
L135.876 192.048
L136.183 192.158
L136.282 192.261
L136.582 192.361
L136.683 192.457
L136.985 192.541
L137.087 192.604
L137.486 192.712
L137.591 192.792
L137.896 192.873
L137.995 192.953
L138.3 193.034
L138.4 193.131
L138.701 193.215
L138.8 193.283
L139.105 193.356
L139.204 193.432
L139.608 193.536
L139.708 193.584
L140.309 193.684
L140.41 193.717
L140.923 193.807
L141.025 193.864
L141.536 193.97
L141.639 194.03
L142.043 194.112
L142.147 194.17
L142.553 194.267
L142.655 194.335
L143.057 194.439
L143.155 194.504
L143.562 194.596
L143.664 194.654
L144.169 194.752
L144.271 194.799
L144.776 194.896
L144.875 194.936
L145.583 195.029
L145.685 195.076
L146.296 195.185
L146.4 195.227
L149.956 195.336
L150.053 195.359
L151.478 195.456
L151.58 195.48
L156.257 195.373
L156.358 195.328
L157.084 195.222
L157.186 195.194
L158.004 195.085
L158.103 195.041
L159.02 194.934
L159.124 194.929
L161.569 194.825
L161.672 194.812
L164.223 194.71
L164.326 194.685
L165.149 194.585
L165.252 194.548
L165.862 194.44
L165.965 194.393
L166.474 194.296
L166.575 194.248
L166.984 194.162
L167.088 194.105
L167.502 194.019
L167.603 193.967
L168.118 193.877
L168.219 193.825
L168.733 193.717
L168.834 193.679
L169.342 193.594
L169.445 193.537
L169.858 193.446
L169.954 193.389
L170.37 193.3
L170.475 193.228
L170.88 193.131
L170.983 193.068
L171.494 192.965
L171.6 192.916
L172.216 192.81
L172.32 192.778
L173.239 192.673
L173.343 192.655
L175.605 192.762
L175.707 192.791
L176.84 192.896
L176.943 192.906
L177.872 193.01
L177.972 193.034
L178.693 193.134
L178.797 193.179
L179.415 193.287
L179.518 193.327
L180.031 193.423
L180.132 193.477
L180.651 193.584
L180.754 193.65
L181.16 193.746
L181.263 193.808
L181.77 193.917
L181.873 193.967
L182.284 194.048
L182.385 194.109
L182.796 194.197
L182.898 194.256
L183.31 194.342
L183.409 194.399
L183.823 194.49
L183.93 194.554
L184.344 194.652
L184.445 194.707
L184.855 194.792
L184.958 194.85
L185.368 194.937
L185.469 194.993
L185.884 195.089
L185.986 195.141
L186.396 195.23
L186.5 195.292
L186.917 195.384
L187.019 195.442
L187.44 195.533
L187.541 195.589
L188.059 195.696
L188.164 195.748
L188.573 195.838
L188.676 195.897
L189.091 195.988
L189.196 196.059
L189.511 196.139
L189.615 196.21
L190.026 196.307
L190.128 196.366
L190.54 196.452
L190.645 196.509
L191.059 196.618
L191.161 196.688
L191.573 196.786
L191.677 196.848
L192.088 196.944
L192.195 197.007
L192.605 197.105
L192.709 197.166
L193.126 197.26
L193.23 197.32
L193.641 197.407
L193.745 197.475
L194.158 197.572
L194.26 197.632
L194.673 197.72
L194.777 197.787
L195.188 197.885
L195.29 197.951
L195.707 198.04
L195.809 198.095
L196.224 198.195
L196.331 198.271
L196.744 198.374
L196.848 198.443
L197.258 198.553
L197.362 198.628
L197.676 198.703
L197.779 198.787
L198.088 198.865
L198.191 198.947
L198.503 199.031
L198.605 199.107
L199.016 199.213
L199.12 199.276
L199.532 199.365
L199.636 199.42
L200.157 199.528
L200.261 199.584
L200.78 199.688
L200.884 199.743
L201.402 199.845
L201.501 199.903
L201.917 199.996
L202.02 200.056
L202.44 200.143
L202.546 200.199
L203.067 200.299
L203.172 200.348
L203.698 200.446
L203.8 200.49
L204.327 200.589
L204.429 200.645
L204.947 200.744
L205.052 200.784
L205.674 200.891
L205.778 200.936
L206.512 201.045
L206.614 201.081
L207.131 201.19
L207.231 201.247
L207.86 201.349
L207.966 201.382
L208.693 201.492
L208.796 201.519
L209.525 201.624
L209.627 201.662
L210.146 201.749
L210.251 201.802
L210.668 201.886
L210.772 201.94
L211.293 202.041
L211.396 202.107
L211.704 202.181
L211.81 202.252
L212.229 202.345
L212.336 202.405
L212.852 202.51
L212.953 202.556
L213.476 202.664
L213.579 202.713
L214.103 202.821
L214.205 202.88
L214.514 202.954
L214.618 203.029
L215.037 203.126
L215.141 203.185
L215.557 203.275
L215.659 203.334
L216.077 203.421
L216.182 203.484
L216.604 203.586
L216.707 203.652
L217.124 203.751
L217.228 203.817
L217.652 203.91
L217.756 203.965
L218.274 204.066
L218.377 204.117
L218.786 204.211
L218.892 204.28
L219.312 204.378
L219.419 204.44
L219.835 204.526
L219.939 204.586
L220.358 204.684
L220.462 204.751
L220.874 204.853
L220.98 204.925
L221.398 205.026
L221.499 205.08
L222.023 205.184
L222.128 205.23
L222.654 205.318
L222.758 205.364
L223.28 205.474
L223.386 205.536
L223.798 205.625
L223.903 205.689
L224.318 205.785
L224.422 205.849
L224.835 205.95
L224.94 206.01
L225.463 206.113
L225.567 206.158
L226.09 206.253
L226.196 206.297
L226.825 206.404
L226.926 206.447
L227.549 206.555
L227.651 206.596
L228.279 206.69
L228.386 206.727
L229.219 206.823
L229.324 206.855
L230.048 206.954
L230.153 206.979
L233.606 206.878
L233.714 206.854
L234.762 206.751
L234.867 206.734
L236.432 206.625
L236.539 206.611
L239.578 206.716
L239.682 206.74
L240.627 206.84
L240.734 206.868
L241.678 206.967
L241.786 207.001
L242.525 207.108
L242.631 207.144
L243.575 207.251
L243.68 207.281
L244.21 207.371
L244.316 207.421
L244.838 207.522
L244.944 207.567
L245.563 207.671
L245.67 207.707
L246.614 207.807
L246.721 207.834
L247.668 207.94
L247.775 207.966
L248.831 208.076
L248.937 208.107
L249.57 208.207
L249.674 208.25
L250.305 208.353
L250.411 208.395
L251.146 208.504
L251.252 208.54
L251.983 208.639
L252.087 208.672
L253.677 208.781
L253.783 208.799
L255.465 208.909
L255.572 208.92
L260.305 208.818
L260.414 208.793
L261.35 208.688
L261.456 208.664
L262.404 208.563
L262.51 208.53
L263.558 208.425
L263.669 208.408
L265.675 208.301
L265.778 208.285
L267.262 208.174
L267.364 208.155
L272.228 208.265
L272.335 208.286
L273.606 208.39
L273.711 208.404
L275.517 208.513
L275.621 208.525
L277.104 208.628
L277.208 208.645
L279.436 208.753
L279.544 208.758
L281.134 208.862
L281.241 208.887
L282.295 208.986
L282.4 209.01
L283.556 209.113
L283.663 209.142
L284.51 209.25
L284.619 209.284
L285.357 209.387
L285.464 209.421
L286.102 209.513
L286.206 209.55
L286.848 209.651
L286.953 209.689
L287.59 209.786
L287.696 209.819
L288.647 209.916
L288.752 209.95
L289.387 210.057
L289.493 210.105
L290.021 210.203
L290.13 210.255
L290.663 210.366
L290.772 210.422
L291.2 210.51
L291.302 210.571
L291.73 210.658
L291.838 210.712
L292.263 210.796
L292.366 210.856
L292.786 210.943
L292.892 211.002
L293.32 211.096
L293.425 211.155
L293.847 211.246
L293.956 211.302
L294.491 211.406
L294.594 211.459
L295.119 211.566
L295.226 211.614
L295.758 211.712
L295.865 211.766
L296.393 211.871
L296.502 211.923
L297.034 212.025
L297.144 212.074
L297.677 212.179
L297.78 212.233
L298.314 212.343
L298.421 212.395
L298.954 212.488
L299.059 212.532
L299.697 212.629
L299.805 212.664
L300.547 212.76
L300.652 212.794
L301.504 212.892
L301.609 212.919
L302.459 213.021
L302.565 213.061
L303.205 213.155
L303.31 213.191
L304.065 213.296
L304.17 213.333
L305.022 213.439
L305.128 213.465
L306.191 213.567
L306.299 213.592
L307.902 213.702
L308.005 213.709
L310.356 213.817
L310.462 213.83
L312.381 213.937
L312.489 213.954
L313.982 214.057
L314.09 214.078
L315.365 214.185
L315.468 214.204
L316.863 214.31
L316.968 214.331
L318.026 214.433
L318.133 214.455
L319.21 214.561
L319.317 214.585
L320.166 214.691
L320.269 214.724
L320.903 214.818
L321.012 214.86
L321.765 214.961
L321.869 214.994
L322.616 215.093
L322.724 215.128
L323.361 215.224
L323.467 215.263
L324.106 215.36
L324.215 215.395
L324.964 215.503
L325.072 215.542
L325.717 215.648
L325.825 215.693
L326.361 215.789
L326.467 215.843
L326.895 215.931
L326.895 215.958
L327.324 216.044
L327.43 216.101
L327.857 216.195
L327.967 216.256
L328.393 216.348
L328.5 216.412
L328.926 216.508
L329.035 216.566
L329.466 216.659
L329.574 216.722
L329.996 216.813
L330.102 216.877
L330.533 216.976
L330.639 217.049
L331.063 217.147
L331.169 217.213
L331.594 217.314
L331.7 217.379
L332.133 217.473
L332.242 217.535
L332.669 217.624
L332.776 217.682
L333.204 217.774
L333.315 217.838
L333.745 217.932
L333.852 217.994
L334.286 218.089
L334.389 218.152
L334.819 218.248
L334.925 218.318
L335.354 218.428
L335.457 218.5
L335.78 218.578
L335.888 218.652
L336.316 218.758
L336.423 218.831
L336.85 218.941
L336.957 219.021
L337.283 219.106
L337.388 219.19
L337.709 219.277
L337.816 219.363
L338.141 219.451
L338.246 219.534
L338.567 219.623
L338.671 219.711
L338.997 219.804
L339.102 219.896
L339.421 219.991
L339.526 220.086
L339.851 220.184
L339.955 220.277
L340.281 220.372
L340.389 220.466
L340.705 220.56
L340.812 220.651
L341.136 220.746
L341.243 220.844
L341.562 220.941
L341.666 221.039
L341.986 221.133
L342.092 221.227
L342.415 221.324
L342.523 221.422
L342.842 221.517
L342.948 221.613
L343.275 221.71
L343.382 221.801
L343.708 221.893
L343.815 221.982
L344.141 222.072
L344.248 222.171
L344.571 222.27
L344.679 222.368
L345 222.471
L345.105 222.57
L345.43 222.668
L345.54 222.765
L345.863 222.862
L345.971 222.958
L346.294 223.055
L346.399 223.155
L346.725 223.253
L346.831 223.353
L347.15 223.452
L347.259 223.548
L347.58 223.641
L347.688 223.733
L348.009 223.824
L348.117 223.915
L348.434 224.005
L348.537 224.094
L348.865 224.19
L348.973 224.288
L349.296 224.387
L349.402 224.485
L349.722 224.582
L349.832 224.685
L350.152 224.782
L350.259 224.882
L350.582 224.984
L350.692 225.085
L351.017 225.181
L351.126 225.273
L351.448 225.365
L351.554 225.456
L351.873 225.546
L351.981 225.639
L352.304 225.733
L352.413 225.826
L352.73 225.914
L352.839 226.002
L353.163 226.089
L353.163 226.132
L353.485 226.215
L353.593 226.297
L353.917 226.38
L354.023 226.458
L354.452 226.569
L354.558 226.643
L354.989 226.753
L355.097 226.825
L355.523 226.933
L355.633 227.004
L356.061 227.107
L356.168 227.175
L356.599 227.28
L356.709 227.35
L357.132 227.449
L357.239 227.51
L357.667 227.6
L357.771 227.66
L358.205 227.748
L358.313 227.807
L358.739 227.892
L358.847 227.95
L359.278 228.038
L359.387 228.098
L359.815 228.182
L359.923 228.239
L360.35 228.329
L360.459 228.39
L360.891 228.484
L360.999 228.544
L361.437 228.636
L361.545 228.695
L361.975 228.781
L362.085 228.838
L362.629 228.948
L362.736 229.004
L363.164 229.086
L363.271 229.145
L363.698 229.232
L363.807 229.293
L364.24 229.385
L364.351 229.446
L364.782 229.533
L364.888 229.588
L365.432 229.696
L365.534 229.747
L366.065 229.844
L366.176 229.891
L366.718 229.983
L366.829 230.031
L367.366 230.128
L367.475 230.174
L368.117 230.283
L368.225 230.324
L368.865 230.43
L368.972 230.471
L369.616 230.574
L369.724 230.61
L370.473 230.707
L370.576 230.738
L371.331 230.837
L371.441 230.872
L372.19 230.973
L372.3 231.013
L372.952 231.119
L373.057 231.161
L373.598 231.251
L373.706 231.3
L374.246 231.397
L374.351 231.443
L374.892 231.541
L375.001 231.59
L375.534 231.687
L375.641 231.733
L376.284 231.838
L376.391 231.88
L377.041 231.989
L377.148 232.03
L377.795 232.133
L377.902 232.171
L378.548 232.274
L378.653 232.315
L379.303 232.41
L379.409 232.446
L380.166 232.555
L380.274 232.589
L381.14 232.699
L381.25 232.724
L382.111 232.819
L382.222 232.852
L382.978 232.951
L383.084 232.98
L383.955 233.083
L384.06 233.117
L384.815 233.216
L384.925 233.246
L385.901 233.35
L386.007 233.377
L387.185 233.486
L387.294 233.504
L388.696 233.614
L388.807 233.636
L389.891 233.735
L390 233.764
L390.861 233.866
L390.968 233.894
L391.935 233.998
L391.935 234.01
L393.023 234.118
L393.128 234.144
L393.999 234.245
L394.109 234.276
L394.867 234.371
L394.972 234.406
L395.623 234.506
L395.729 234.549
L396.487 234.656
L396.597 234.691
L397.346 234.791
L397.453 234.827
L398.213 234.933
L398.321 234.972
L398.973 235.072
L399.082 235.105
L399.948 235.204
L400.055 235.232
L400.802 235.329
L400.91 235.359
L401.774 235.47
L401.881 235.503
L402.638 235.605
L402.749 235.639
L403.511 235.741
L403.617 235.771
L404.483 235.874
L404.591 235.907
L405.455 236.012
L405.566 236.038
L406.437 236.135
L406.542 236.165
L407.307 236.273
L407.415 236.315
L408.058 236.421
L408.168 236.463
L408.816 236.566
L408.926 236.607
L409.573 236.701
L409.681 236.74
L410.448 236.847
L410.448 236.864
L411.317 236.974
L411.427 237.006
L412.295 237.109
L412.401 237.137
L413.488 237.244
L413.488 237.256
L414.355 237.357
L414.463 237.389
L415.223 237.494
L415.332 237.531
L415.984 237.627
L416.092 237.666
L416.737 237.767
L416.847 237.805
L417.493 237.899
L417.6 237.936
L418.361 238.036
L418.361 238.051
L419.229 238.155
L419.34 238.183
L420.415 238.289
L420.522 238.311
L421.61 238.42
L421.61 238.432
L422.594 238.542
L422.701 238.573
L423.464 238.672
L423.464 238.689
L424.233 238.789
L424.342 238.821
L425.21 238.926
L425.32 238.953
L426.182 239.057
L426.293 239.085
L427.162 239.183
L427.269 239.209
L428.142 239.31
L428.251 239.341
L429.123 239.447
L429.232 239.474
L430.101 239.572
L430.21 239.603
L431.077 239.701
L431.184 239.728
L432.053 239.826
L432.164 239.853
L433.261 239.963
L433.371 239.992
L434.239 240.097
L434.345 240.127
L435.215 240.231
L435.215 240.244
L436.413 240.351
L436.521 240.372
L437.615 240.481
L437.724 240.508
L438.697 240.615
L438.697 240.628
L439.568 240.723
L439.568 240.741
L440.334 240.841
L440.441 240.873
L441.32 240.983
L441.43 241.014
L442.411 241.116
L442.515 241.142
L443.379 241.241
L443.49 241.267
L444.473 241.371
L444.58 241.398
L445.557 241.508
L445.666 241.536
L446.527 241.643
L446.637 241.672
L447.501 241.777
L447.612 241.806
L448.376 241.903
L448.485 241.935
L449.247 242.036
L449.357 242.066
L450.116 242.169
L450.116 242.185
L450.993 242.292
L451.099 242.324
L451.968 242.428
L452.073 242.456
L452.955 242.555
L453.066 242.581
L454.047 242.68
L454.156 242.706
L455.35 242.811
L455.461 242.836
L456.546 242.937
L456.655 242.957
L457.863 243.067
L457.974 243.089
L459.174 243.199
L459.174 243.209
L460.161 243.306
L460.271 243.335
L461.245 243.445
L461.355 243.471
L462.219 243.571
L462.33 243.598
L463.323 243.707
L463.434 243.729
L464.519 243.829
L464.626 243.855
L465.509 243.96
L465.509 243.975
L466.275 244.072
L466.383 244.104
L467.259 244.207
L467.259 244.221
L468.246 244.33
L468.357 244.357
L469.444 244.464
L469.551 244.487
L470.536 244.597
L470.644 244.626
L471.411 244.724
L471.521 244.761
L472.174 244.859
L472.284 244.9
L472.938 245.003
L473.047 245.044
L473.709 245.151
L473.819 245.192
L474.473 245.293
L474.583 245.331
L475.343 245.44
L475.454 245.476
L476.219 245.581
L476.33 245.614
L477.091 245.712
L477.091 245.727
L477.965 245.836
L478.076 245.867
L478.842 245.965
L478.951 245.997
L479.835 246.108
L479.944 246.138
L480.926 246.248
L481.036 246.275
L482.024 246.375
L482.132 246.399
L483.218 246.501
L483.327 246.524
L484.304 246.628
L484.304 246.64
L485.295 246.746
L485.295 246.759
L486.399 246.869
L486.507 246.893
L487.592 247
L487.701 247.021
L488.908 247.126
L489.017 247.149
L490.005 247.253
L490.112 247.282
L491.105 247.392
L491.214 247.421
L492.104 247.524
L492.104 247.538
L492.982 247.636
L493.091 247.665
L493.96 247.763
L494.068 247.794
L494.939 247.904
L495.049 247.934
L496.037 248.045
L496.146 248.073
L497.134 248.181
L497.243 248.208
L498.113 248.306
L498.113 248.321
L498.998 248.43
L499.108 248.46
L499.973 248.557
L499.973 248.571
L500.858 248.673
L500.965 248.702
L501.844 248.803
L501.949 248.835
L502.834 248.938
L502.943 248.967
L503.82 249.069
L503.929 249.098
L504.808 249.205
L504.917 249.237
L505.798 249.348
L505.906 249.375
L506.893 249.482
L506.893 249.495
L507.768 249.591
L507.876 249.623
L508.762 249.727
L508.762 249.741
L509.75 249.85
L509.75 249.863
L510.85 249.966
L510.959 249.988
L512.168 250.096
L512.168 250.108
L513.16 250.206
L513.27 250.233
L514.249 250.34
L514.359 250.368
L515.351 250.473
L515.459 250.498
L516.451 250.607
L516.558 250.635
L517.439 250.743
L517.547 250.775
L518.31 250.871
L518.418 250.904
L519.294 251.011
L519.403 251.04
L520.283 251.138
L520.392 251.164
L521.379 251.271
L521.379 251.284
L522.48 251.391
L522.591 251.41
L523.798 251.514
L523.907 251.534
L525.226 251.637
L525.226 251.645
L526.772 251.749
L526.882 251.766
L528.526 251.873
L528.634 251.888
L530.4 251.995
L530.4 252.002
L532.155 252.108
L532.265 252.12
L534.568 252.231
L534.568 252.237
L536.666 252.344
L536.666 252.348
L545.047 252.457
L545.047 252.461
L545.047 252.461" style="fill:none;stroke:#ff0000;stroke-width:0.5;"/>
   </g>
   <g id="matplotlib.axis_1">
    <g id="xtick_1">
     <g id="line2d_2">
      <defs>
       <path d="
M0 0
L0 -4" id="ma7c7730229"/>
      </defs>
      <g>
       <use style="stroke:#000000;stroke-linecap:butt;stroke-width:0.5;" x="25.8828125" xlink:href="#ma7c7730229" y="401.004497041"/>
      </g>
     </g>
    </g>
    <g id="xtick_2">
     <g id="line2d_3">
      <defs>
       <path d="
M0 0
L0 -4" id="ma7c7730229"/>
      </defs>
      <g>
       <use style="stroke:#000000;stroke-linecap:butt;stroke-width:0.5;" x="129.721464602" xlink:href="#ma7c7730229" y="401.004497041"/>
      </g>
     </g>
     <g id="text_1">
      <!-- 2e7 -->
      <defs>
       <path d="
M19.1875 8.29688
L53.6094 8.29688
L53.6094 0
L7.32812 0
L7.32812 8.29688
Q12.9375 14.1094 22.625 23.8906
Q32.3281 33.6875 34.8125 36.5312
Q39.5469 41.8438 41.4219 45.5312
Q43.3125 49.2188 43.3125 52.7812
Q43.3125 58.5938 39.2344 62.25
Q35.1562 65.9219 28.6094 65.9219
Q23.9688 65.9219 18.8125 64.3125
Q13.6719 62.7031 7.8125 59.4219
L7.8125 69.3906
Q13.7656 71.7812 18.9375 73
Q24.125 74.2188 28.4219 74.2188
Q39.75 74.2188 46.4844 68.5469
Q53.2188 62.8906 53.2188 53.4219
Q53.2188 48.9219 51.5312 44.8906
Q49.8594 40.875 45.4062 35.4062
Q44.1875 33.9844 37.6406 27.2188
Q31.1094 20.4531 19.1875 8.29688" id="BitstreamVeraSans-Roman-32"/>
       <path d="
M56.2031 29.5938
L56.2031 25.2031
L14.8906 25.2031
Q15.4844 15.9219 20.4844 11.0625
Q25.4844 6.20312 34.4219 6.20312
Q39.5938 6.20312 44.4531 7.46875
Q49.3125 8.73438 54.1094 11.2812
L54.1094 2.78125
Q49.2656 0.734375 44.1875 -0.34375
Q39.1094 -1.42188 33.8906 -1.42188
Q20.7969 -1.42188 13.1562 6.1875
Q5.51562 13.8125 5.51562 26.8125
Q5.51562 40.2344 12.7656 48.1094
Q20.0156 56 32.3281 56
Q43.3594 56 49.7812 48.8906
Q56.2031 41.7969 56.2031 29.5938
M47.2188 32.2344
Q47.125 39.5938 43.0938 43.9844
Q39.0625 48.3906 32.4219 48.3906
Q24.9062 48.3906 20.3906 44.1406
Q15.875 39.8906 15.1875 32.1719
z
" id="BitstreamVeraSans-Roman-65"/>
       <path d="
M8.20312 72.9062
L55.0781 72.9062
L55.0781 68.7031
L28.6094 0
L18.3125 0
L43.2188 64.5938
L8.20312 64.5938
z
" id="BitstreamVeraSans-Roman-37"/>
      </defs>
      <g transform="translate(121.076152102 412.426372041)scale(0.1 -0.1)">
       <use xlink:href="#BitstreamVeraSans-Roman-32"/>
       <use x="63.623046875" xlink:href="#BitstreamVeraSans-Roman-65"/>
       <use x="125.146484375" xlink:href="#BitstreamVeraSans-Roman-37"/>
      </g>
     </g>
    </g>
    <g id="xtick_3">
     <g id="line2d_4">
      <defs>
       <path d="
M0 0
L0 -4" id="ma7c7730229"/>
      </defs>
      <g>
       <use style="stroke:#000000;stroke-linecap:butt;stroke-width:0.5;" x="233.560116704" xlink:href="#ma7c7730229" y="401.004497041"/>
      </g>
     </g>
     <g id="text_2">
      <!-- 4e7 -->
      <defs>
       <path d="
M37.7969 64.3125
L12.8906 25.3906
L37.7969 25.3906
z

M35.2031 72.9062
L47.6094 72.9062
L47.6094 25.3906
L58.0156 25.3906
L58.0156 17.1875
L47.6094 17.1875
L47.6094 0
L37.7969 0
L37.7969 17.1875
L4.89062 17.1875
L4.89062 26.7031
z
" id="BitstreamVeraSans-Roman-34"/>
      </defs>
      <g transform="translate(224.792929204 412.295122041)scale(0.1 -0.1)">
       <use xlink:href="#BitstreamVeraSans-Roman-34"/>
       <use x="63.623046875" xlink:href="#BitstreamVeraSans-Roman-65"/>
       <use x="125.146484375" xlink:href="#BitstreamVeraSans-Roman-37"/>
      </g>
     </g>
    </g>
    <g id="xtick_4">
     <g id="line2d_5">
      <defs>
       <path d="
M0 0
L0 -4" id="ma7c7730229"/>
      </defs>
      <g>
       <use style="stroke:#000000;stroke-linecap:butt;stroke-width:0.5;" x="337.398768807" xlink:href="#ma7c7730229" y="401.004497041"/>
      </g>
     </g>
     <g id="text_3">
      <!-- 6e7 -->
      <defs>
       <path d="
M33.0156 40.375
Q26.375 40.375 22.4844 35.8281
Q18.6094 31.2969 18.6094 23.3906
Q18.6094 15.5312 22.4844 10.9531
Q26.375 6.39062 33.0156 6.39062
Q39.6562 6.39062 43.5312 10.9531
Q47.4062 15.5312 47.4062 23.3906
Q47.4062 31.2969 43.5312 35.8281
Q39.6562 40.375 33.0156 40.375
M52.5938 71.2969
L52.5938 62.3125
Q48.875 64.0625 45.0938 64.9844
Q41.3125 65.9219 37.5938 65.9219
Q27.8281 65.9219 22.6719 59.3281
Q17.5312 52.7344 16.7969 39.4062
Q19.6719 43.6562 24.0156 45.9219
Q28.375 48.1875 33.5938 48.1875
Q44.5781 48.1875 50.9531 41.5156
Q57.3281 34.8594 57.3281 23.3906
Q57.3281 12.1562 50.6875 5.35938
Q44.0469 -1.42188 33.0156 -1.42188
Q20.3594 -1.42188 13.6719 8.26562
Q6.98438 17.9688 6.98438 36.375
Q6.98438 53.6562 15.1875 63.9375
Q23.3906 74.2188 37.2031 74.2188
Q40.9219 74.2188 44.7031 73.4844
Q48.4844 72.75 52.5938 71.2969" id="BitstreamVeraSans-Roman-36"/>
      </defs>
      <g transform="translate(328.736268807 412.426372041)scale(0.1 -0.1)">
       <use xlink:href="#BitstreamVeraSans-Roman-36"/>
       <use x="63.623046875" xlink:href="#BitstreamVeraSans-Roman-65"/>
       <use x="125.146484375" xlink:href="#BitstreamVeraSans-Roman-37"/>
      </g>
     </g>
    </g>
    <g id="xtick_5">
     <g id="line2d_6">
      <defs>
       <path d="
M0 0
L0 -4" id="ma7c7730229"/>
      </defs>
      <g>
       <use style="stroke:#000000;stroke-linecap:butt;stroke-width:0.5;" x="441.237420909" xlink:href="#ma7c7730229" y="401.004497041"/>
      </g>
     </g>
     <g id="text_4">
      <!-- 8e7 -->
      <defs>
       <path d="
M31.7812 34.625
Q24.75 34.625 20.7188 30.8594
Q16.7031 27.0938 16.7031 20.5156
Q16.7031 13.9219 20.7188 10.1562
Q24.75 6.39062 31.7812 6.39062
Q38.8125 6.39062 42.8594 10.1719
Q46.9219 13.9688 46.9219 20.5156
Q46.9219 27.0938 42.8906 30.8594
Q38.875 34.625 31.7812 34.625
M21.9219 38.8125
Q15.5781 40.375 12.0312 44.7188
Q8.5 49.0781 8.5 55.3281
Q8.5 64.0625 14.7188 69.1406
Q20.9531 74.2188 31.7812 74.2188
Q42.6719 74.2188 48.875 69.1406
Q55.0781 64.0625 55.0781 55.3281
Q55.0781 49.0781 51.5312 44.7188
Q48 40.375 41.7031 38.8125
Q48.8281 37.1562 52.7969 32.3125
Q56.7812 27.4844 56.7812 20.5156
Q56.7812 9.90625 50.3125 4.23438
Q43.8438 -1.42188 31.7812 -1.42188
Q19.7344 -1.42188 13.25 4.23438
Q6.78125 9.90625 6.78125 20.5156
Q6.78125 27.4844 10.7812 32.3125
Q14.7969 37.1562 21.9219 38.8125
M18.3125 54.3906
Q18.3125 48.7344 21.8438 45.5625
Q25.3906 42.3906 31.7812 42.3906
Q38.1406 42.3906 41.7188 45.5625
Q45.3125 48.7344 45.3125 54.3906
Q45.3125 60.0625 41.7188 63.2344
Q38.1406 66.4062 31.7812 66.4062
Q25.3906 66.4062 21.8438 63.2344
Q18.3125 60.0625 18.3125 54.3906" id="BitstreamVeraSans-Roman-38"/>
      </defs>
      <g transform="translate(432.564764659 412.426372041)scale(0.1 -0.1)">
       <use xlink:href="#BitstreamVeraSans-Roman-38"/>
       <use x="63.623046875" xlink:href="#BitstreamVeraSans-Roman-65"/>
       <use x="125.146484375" xlink:href="#BitstreamVeraSans-Roman-37"/>
      </g>
     </g>
    </g>
    <g id="xtick_6">
     <g id="line2d_7">
      <defs>
       <path d="
M0 0
L0 -4" id="ma7c7730229"/>
      </defs>
      <g>
       <use style="stroke:#000000;stroke-linecap:butt;stroke-width:0.5;" x="545.076073011" xlink:href="#ma7c7730229" y="401.004497041"/>
      </g>
     </g>
     <g id="text_5">
      <!-- 1e8 -->
      <defs>
       <path d="
M12.4062 8.29688
L28.5156 8.29688
L28.5156 63.9219
L10.9844 60.4062
L10.9844 69.3906
L28.4219 72.9062
L38.2812 72.9062
L38.2812 8.29688
L54.3906 8.29688
L54.3906 0
L12.4062 0
z
" id="BitstreamVeraSans-Roman-31"/>
      </defs>
      <g transform="translate(536.528416761 412.426372041)scale(0.1 -0.1)">
       <use xlink:href="#BitstreamVeraSans-Roman-31"/>
       <use x="63.623046875" xlink:href="#BitstreamVeraSans-Roman-65"/>
       <use x="125.146484375" xlink:href="#BitstreamVeraSans-Roman-38"/>
      </g>
     </g>
    </g>
    <g id="xtick_7">
     <g id="line2d_8">
      <defs>
       <path d="
M0 0
L0 -2" id="m11aa28e0b1"/>
      </defs>
      <g>
       <use style="stroke:#000000;stroke-linecap:butt;stroke-width:0.5;" x="51.8424755255" xlink:href="#m11aa28e0b1" y="401.004497041"/>
      </g>
     </g>
    </g>
    <g id="xtick_8">
     <g id="line2d_9">
      <defs>
       <path d="
M0 0
L0 -2" id="m11aa28e0b1"/>
      </defs>
      <g>
       <use style="stroke:#000000;stroke-linecap:butt;stroke-width:0.5;" x="77.8021385511" xlink:href="#m11aa28e0b1" y="401.004497041"/>
      </g>
     </g>
    </g>
    <g id="xtick_9">
     <g id="line2d_10">
      <defs>
       <path d="
M0 0
L0 -2" id="m11aa28e0b1"/>
      </defs>
      <g>
       <use style="stroke:#000000;stroke-linecap:butt;stroke-width:0.5;" x="103.761801577" xlink:href="#m11aa28e0b1" y="401.004497041"/>
      </g>
     </g>
    </g>
    <g id="xtick_10">
     <g id="line2d_11">
      <defs>
       <path d="
M0 0
L0 -2" id="m11aa28e0b1"/>
      </defs>
      <g>
       <use style="stroke:#000000;stroke-linecap:butt;stroke-width:0.5;" x="155.681127628" xlink:href="#m11aa28e0b1" y="401.004497041"/>
      </g>
     </g>
    </g>
    <g id="xtick_11">
     <g id="line2d_12">
      <defs>
       <path d="
M0 0
L0 -2" id="m11aa28e0b1"/>
      </defs>
      <g>
       <use style="stroke:#000000;stroke-linecap:butt;stroke-width:0.5;" x="181.640790653" xlink:href="#m11aa28e0b1" y="401.004497041"/>
      </g>
     </g>
    </g>
    <g id="xtick_12">
     <g id="line2d_13">
      <defs>
       <path d="
M0 0
L0 -2" id="m11aa28e0b1"/>
      </defs>
      <g>
       <use style="stroke:#000000;stroke-linecap:butt;stroke-width:0.5;" x="207.600453679" xlink:href="#m11aa28e0b1" y="401.004497041"/>
      </g>
     </g>
    </g>
    <g id="xtick_13">
     <g id="line2d_14">
      <defs>
       <path d="
M0 0
L0 -2" id="m11aa28e0b1"/>
      </defs>
      <g>
       <use style="stroke:#000000;stroke-linecap:butt;stroke-width:0.5;" x="259.51977973" xlink:href="#m11aa28e0b1" y="401.004497041"/>
      </g>
     </g>
    </g>
    <g id="xtick_14">
     <g id="line2d_15">
      <defs>
       <path d="
M0 0
L0 -2" id="m11aa28e0b1"/>
      </defs>
      <g>
       <use style="stroke:#000000;stroke-linecap:butt;stroke-width:0.5;" x="285.479442755" xlink:href="#m11aa28e0b1" y="401.004497041"/>
      </g>
     </g>
    </g>
    <g id="xtick_15">
     <g id="line2d_16">
      <defs>
       <path d="
M0 0
L0 -2" id="m11aa28e0b1"/>
      </defs>
      <g>
       <use style="stroke:#000000;stroke-linecap:butt;stroke-width:0.5;" x="311.439105781" xlink:href="#m11aa28e0b1" y="401.004497041"/>
      </g>
     </g>
    </g>
    <g id="xtick_16">
     <g id="line2d_17">
      <defs>
       <path d="
M0 0
L0 -2" id="m11aa28e0b1"/>
      </defs>
      <g>
       <use style="stroke:#000000;stroke-linecap:butt;stroke-width:0.5;" x="363.358431832" xlink:href="#m11aa28e0b1" y="401.004497041"/>
      </g>
     </g>
    </g>
    <g id="xtick_17">
     <g id="line2d_18">
      <defs>
       <path d="
M0 0
L0 -2" id="m11aa28e0b1"/>
      </defs>
      <g>
       <use style="stroke:#000000;stroke-linecap:butt;stroke-width:0.5;" x="389.318094858" xlink:href="#m11aa28e0b1" y="401.004497041"/>
      </g>
     </g>
    </g>
    <g id="xtick_18">
     <g id="line2d_19">
      <defs>
       <path d="
M0 0
L0 -2" id="m11aa28e0b1"/>
      </defs>
      <g>
       <use style="stroke:#000000;stroke-linecap:butt;stroke-width:0.5;" x="415.277757883" xlink:href="#m11aa28e0b1" y="401.004497041"/>
      </g>
     </g>
    </g>
    <g id="xtick_19">
     <g id="line2d_20">
      <defs>
       <path d="
M0 0
L0 -2" id="m11aa28e0b1"/>
      </defs>
      <g>
       <use style="stroke:#000000;stroke-linecap:butt;stroke-width:0.5;" x="467.197083934" xlink:href="#m11aa28e0b1" y="401.004497041"/>
      </g>
     </g>
    </g>
    <g id="xtick_20">
     <g id="line2d_21">
      <defs>
       <path d="
M0 0
L0 -2" id="m11aa28e0b1"/>
      </defs>
      <g>
       <use style="stroke:#000000;stroke-linecap:butt;stroke-width:0.5;" x="493.15674696" xlink:href="#m11aa28e0b1" y="401.004497041"/>
      </g>
     </g>
    </g>
    <g id="xtick_21">
     <g id="line2d_22">
      <defs>
       <path d="
M0 0
L0 -2" id="m11aa28e0b1"/>
      </defs>
      <g>
       <use style="stroke:#000000;stroke-linecap:butt;stroke-width:0.5;" x="519.116409985" xlink:href="#m11aa28e0b1" y="401.004497041"/>
      </g>
     </g>
    </g>
   </g>
   <g id="matplotlib.axis_2">
    <g id="ytick_1">
     <g id="line2d_23">
      <defs>
       <path d="
M0 0
L4 0" id="m6d2dca71b7"/>
      </defs>
      <g>
       <use style="stroke:#000000;stroke-linecap:butt;stroke-width:0.5;" x="25.8828125" xlink:href="#m6d2dca71b7" y="401.004497041"/>
      </g>
     </g>
    </g>
    <g id="ytick_2">
     <g id="line2d_24">
      <defs>
       <path d="
M0 0
L4 0" id="m6d2dca71b7"/>
      </defs>
      <g>
       <use style="stroke:#000000;stroke-linecap:butt;stroke-width:0.5;" x="25.8828125" xlink:href="#m6d2dca71b7" y="332.838199865"/>
      </g>
     </g>
     <g id="text_6">
      <!-- 0.1 -->
      <defs>
       <path d="
M31.7812 66.4062
Q24.1719 66.4062 20.3281 58.9062
Q16.5 51.4219 16.5 36.375
Q16.5 21.3906 20.3281 13.8906
Q24.1719 6.39062 31.7812 6.39062
Q39.4531 6.39062 43.2812 13.8906
Q47.125 21.3906 47.125 36.375
Q47.125 51.4219 43.2812 58.9062
Q39.4531 66.4062 31.7812 66.4062
M31.7812 74.2188
Q44.0469 74.2188 50.5156 64.5156
Q56.9844 54.8281 56.9844 36.375
Q56.9844 17.9688 50.5156 8.26562
Q44.0469 -1.42188 31.7812 -1.42188
Q19.5312 -1.42188 13.0625 8.26562
Q6.59375 17.9688 6.59375 36.375
Q6.59375 54.8281 13.0625 64.5156
Q19.5312 74.2188 31.7812 74.2188" id="BitstreamVeraSans-Roman-30"/>
       <path d="
M10.6875 12.4062
L21 12.4062
L21 0
L10.6875 0
z
" id="BitstreamVeraSans-Roman-2e"/>
      </defs>
      <g transform="translate(7.5625 336.478043615)scale(0.1 -0.1)">
       <use xlink:href="#BitstreamVeraSans-Roman-30"/>
       <use x="63.623046875" xlink:href="#BitstreamVeraSans-Roman-2e"/>
       <use x="95.41015625" xlink:href="#BitstreamVeraSans-Roman-31"/>
      </g>
     </g>
    </g>
    <g id="ytick_3">
     <g id="line2d_25">
      <defs>
       <path d="
M0 0
L4 0" id="m6d2dca71b7"/>
      </defs>
      <g>
       <use style="stroke:#000000;stroke-linecap:butt;stroke-width:0.5;" x="25.8828125" xlink:href="#m6d2dca71b7" y="264.671902688"/>
      </g>
     </g>
     <g id="text_7">
      <!-- 0.2 -->
      <g transform="translate(7.640625 268.311746438)scale(0.1 -0.1)">
       <use xlink:href="#BitstreamVeraSans-Roman-30"/>
       <use x="63.623046875" xlink:href="#BitstreamVeraSans-Roman-2e"/>
       <use x="95.41015625" xlink:href="#BitstreamVeraSans-Roman-32"/>
      </g>
     </g>
    </g>
    <g id="ytick_4">
     <g id="line2d_26">
      <defs>
       <path d="
M0 0
L4 0" id="m6d2dca71b7"/>
      </defs>
      <g>
       <use style="stroke:#000000;stroke-linecap:butt;stroke-width:0.5;" x="25.8828125" xlink:href="#m6d2dca71b7" y="196.505605512"/>
      </g>
     </g>
     <g id="text_8">
      <!-- 0.3 -->
      <defs>
       <path d="
M40.5781 39.3125
Q47.6562 37.7969 51.625 33
Q55.6094 28.2188 55.6094 21.1875
Q55.6094 10.4062 48.1875 4.48438
Q40.7656 -1.42188 27.0938 -1.42188
Q22.5156 -1.42188 17.6562 -0.515625
Q12.7969 0.390625 7.625 2.20312
L7.625 11.7188
Q11.7188 9.32812 16.5938 8.10938
Q21.4844 6.89062 26.8125 6.89062
Q36.0781 6.89062 40.9375 10.5469
Q45.7969 14.2031 45.7969 21.1875
Q45.7969 27.6406 41.2812 31.2656
Q36.7656 34.9062 28.7188 34.9062
L20.2188 34.9062
L20.2188 43.0156
L29.1094 43.0156
Q36.375 43.0156 40.2344 45.9219
Q44.0938 48.8281 44.0938 54.2969
Q44.0938 59.9062 40.1094 62.9062
Q36.1406 65.9219 28.7188 65.9219
Q24.6562 65.9219 20.0156 65.0312
Q15.375 64.1562 9.8125 62.3125
L9.8125 71.0938
Q15.4375 72.6562 20.3438 73.4375
Q25.25 74.2188 29.5938 74.2188
Q40.8281 74.2188 47.3594 69.1094
Q53.9062 64.0156 53.9062 55.3281
Q53.9062 49.2656 50.4375 45.0938
Q46.9688 40.9219 40.5781 39.3125" id="BitstreamVeraSans-Roman-33"/>
      </defs>
      <g transform="translate(7.440625 200.145449262)scale(0.1 -0.1)">
       <use xlink:href="#BitstreamVeraSans-Roman-30"/>
       <use x="63.623046875" xlink:href="#BitstreamVeraSans-Roman-2e"/>
       <use x="95.41015625" xlink:href="#BitstreamVeraSans-Roman-33"/>
      </g>
     </g>
    </g>
    <g id="ytick_5">
     <g id="line2d_27">
      <defs>
       <path d="
M0 0
L4 0" id="m6d2dca71b7"/>
      </defs>
      <g>
       <use style="stroke:#000000;stroke-linecap:butt;stroke-width:0.5;" x="25.8828125" xlink:href="#m6d2dca71b7" y="128.339308335"/>
      </g>
     </g>
     <g id="text_9">
      <!-- 0.4 -->
      <g transform="translate(7.2 131.979152085)scale(0.1 -0.1)">
       <use xlink:href="#BitstreamVeraSans-Roman-30"/>
       <use x="63.623046875" xlink:href="#BitstreamVeraSans-Roman-2e"/>
       <use x="95.41015625" xlink:href="#BitstreamVeraSans-Roman-34"/>
      </g>
     </g>
    </g>
    <g id="ytick_6">
     <g id="line2d_28">
      <defs>
       <path d="
M0 0
L4 0" id="m6d2dca71b7"/>
      </defs>
      <g>
       <use style="stroke:#000000;stroke-linecap:butt;stroke-width:0.5;" x="25.8828125" xlink:href="#m6d2dca71b7" y="60.1730111589"/>
      </g>
     </g>
     <g id="text_10">
      <!-- 0.5 -->
      <defs>
       <path d="
M10.7969 72.9062
L49.5156 72.9062
L49.5156 64.5938
L19.8281 64.5938
L19.8281 46.7344
Q21.9688 47.4688 24.1094 47.8281
Q26.2656 48.1875 28.4219 48.1875
Q40.625 48.1875 47.75 41.5
Q54.8906 34.8125 54.8906 23.3906
Q54.8906 11.625 47.5625 5.09375
Q40.2344 -1.42188 26.9062 -1.42188
Q22.3125 -1.42188 17.5469 -0.640625
Q12.7969 0.140625 7.71875 1.70312
L7.71875 11.625
Q12.1094 9.23438 16.7969 8.0625
Q21.4844 6.89062 26.7031 6.89062
Q35.1562 6.89062 40.0781 11.3281
Q45.0156 15.7656 45.0156 23.3906
Q45.0156 31 40.0781 35.4375
Q35.1562 39.8906 26.7031 39.8906
Q22.75 39.8906 18.8125 39.0156
Q14.8906 38.1406 10.7969 36.2812
z
" id="BitstreamVeraSans-Roman-35"/>
      </defs>
      <g transform="translate(7.5125 63.8128549089)scale(0.1 -0.1)">
       <use xlink:href="#BitstreamVeraSans-Roman-30"/>
       <use x="63.623046875" xlink:href="#BitstreamVeraSans-Roman-2e"/>
       <use x="95.41015625" xlink:href="#BitstreamVeraSans-Roman-35"/>
      </g>
     </g>
    </g>
    <g id="ytick_7">
     <g id="line2d_29">
      <defs>
       <path d="
M0 0
L2 0" id="m3065927de3"/>
      </defs>
      <g>
       <use style="stroke:#000000;stroke-linecap:butt;stroke-width:0.5;" x="25.8828125" xlink:href="#m3065927de3" y="387.371237606"/>
      </g>
     </g>
    </g>
    <g id="ytick_8">
     <g id="line2d_30">
      <defs>
       <path d="
M0 0
L2 0" id="m3065927de3"/>
      </defs>
      <g>
       <use style="stroke:#000000;stroke-linecap:butt;stroke-width:0.5;" x="25.8828125" xlink:href="#m3065927de3" y="373.737978171"/>
      </g>
     </g>
    </g>
    <g id="ytick_9">
     <g id="line2d_31">
      <defs>
       <path d="
M0 0
L2 0" id="m3065927de3"/>
      </defs>
      <g>
       <use style="stroke:#000000;stroke-linecap:butt;stroke-width:0.5;" x="25.8828125" xlink:href="#m3065927de3" y="360.104718736"/>
      </g>
     </g>
    </g>
    <g id="ytick_10">
     <g id="line2d_32">
      <defs>
       <path d="
M0 0
L2 0" id="m3065927de3"/>
      </defs>
      <g>
       <use style="stroke:#000000;stroke-linecap:butt;stroke-width:0.5;" x="25.8828125" xlink:href="#m3065927de3" y="346.4714593"/>
      </g>
     </g>
    </g>
    <g id="ytick_11">
     <g id="line2d_33">
      <defs>
       <path d="
M0 0
L2 0" id="m3065927de3"/>
      </defs>
      <g>
       <use style="stroke:#000000;stroke-linecap:butt;stroke-width:0.5;" x="25.8828125" xlink:href="#m3065927de3" y="319.20494043"/>
      </g>
     </g>
    </g>
    <g id="ytick_12">
     <g id="line2d_34">
      <defs>
       <path d="
M0 0
L2 0" id="m3065927de3"/>
      </defs>
      <g>
       <use style="stroke:#000000;stroke-linecap:butt;stroke-width:0.5;" x="25.8828125" xlink:href="#m3065927de3" y="305.571680994"/>
      </g>
     </g>
    </g>
    <g id="ytick_13">
     <g id="line2d_35">
      <defs>
       <path d="
M0 0
L2 0" id="m3065927de3"/>
      </defs>
      <g>
       <use style="stroke:#000000;stroke-linecap:butt;stroke-width:0.5;" x="25.8828125" xlink:href="#m3065927de3" y="291.938421559"/>
      </g>
     </g>
    </g>
    <g id="ytick_14">
     <g id="line2d_36">
      <defs>
       <path d="
M0 0
L2 0" id="m3065927de3"/>
      </defs>
      <g>
       <use style="stroke:#000000;stroke-linecap:butt;stroke-width:0.5;" x="25.8828125" xlink:href="#m3065927de3" y="278.305162124"/>
      </g>
     </g>
    </g>
    <g id="ytick_15">
     <g id="line2d_37">
      <defs>
       <path d="
M0 0
L2 0" id="m3065927de3"/>
      </defs>
      <g>
       <use style="stroke:#000000;stroke-linecap:butt;stroke-width:0.5;" x="25.8828125" xlink:href="#m3065927de3" y="251.038643253"/>
      </g>
     </g>
    </g>
    <g id="ytick_16">
     <g id="line2d_38">
      <defs>
       <path d="
M0 0
L2 0" id="m3065927de3"/>
      </defs>
      <g>
       <use style="stroke:#000000;stroke-linecap:butt;stroke-width:0.5;" x="25.8828125" xlink:href="#m3065927de3" y="237.405383818"/>
      </g>
     </g>
    </g>
    <g id="ytick_17">
     <g id="line2d_39">
      <defs>
       <path d="
M0 0
L2 0" id="m3065927de3"/>
      </defs>
      <g>
       <use style="stroke:#000000;stroke-linecap:butt;stroke-width:0.5;" x="25.8828125" xlink:href="#m3065927de3" y="223.772124383"/>
      </g>
     </g>
    </g>
    <g id="ytick_18">
     <g id="line2d_40">
      <defs>
       <path d="
M0 0
L2 0" id="m3065927de3"/>
      </defs>
      <g>
       <use style="stroke:#000000;stroke-linecap:butt;stroke-width:0.5;" x="25.8828125" xlink:href="#m3065927de3" y="210.138864947"/>
      </g>
     </g>
    </g>
    <g id="ytick_19">
     <g id="line2d_41">
      <defs>
       <path d="
M0 0
L2 0" id="m3065927de3"/>
      </defs>
      <g>
       <use style="stroke:#000000;stroke-linecap:butt;stroke-width:0.5;" x="25.8828125" xlink:href="#m3065927de3" y="182.872346077"/>
      </g>
     </g>
    </g>
    <g id="ytick_20">
     <g id="line2d_42">
      <defs>
       <path d="
M0 0
L2 0" id="m3065927de3"/>
      </defs>
      <g>
       <use style="stroke:#000000;stroke-linecap:butt;stroke-width:0.5;" x="25.8828125" xlink:href="#m3065927de3" y="169.239086641"/>
      </g>
     </g>
    </g>
    <g id="ytick_21">
     <g id="line2d_43">
      <defs>
       <path d="
M0 0
L2 0" id="m3065927de3"/>
      </defs>
      <g>
       <use style="stroke:#000000;stroke-linecap:butt;stroke-width:0.5;" x="25.8828125" xlink:href="#m3065927de3" y="155.605827206"/>
      </g>
     </g>
    </g>
    <g id="ytick_22">
     <g id="line2d_44">
      <defs>
       <path d="
M0 0
L2 0" id="m3065927de3"/>
      </defs>
      <g>
       <use style="stroke:#000000;stroke-linecap:butt;stroke-width:0.5;" x="25.8828125" xlink:href="#m3065927de3" y="141.972567771"/>
      </g>
     </g>
    </g>
    <g id="ytick_23">
     <g id="line2d_45">
      <defs>
       <path d="
M0 0
L2 0" id="m3065927de3"/>
      </defs>
      <g>
       <use style="stroke:#000000;stroke-linecap:butt;stroke-width:0.5;" x="25.8828125" xlink:href="#m3065927de3" y="114.7060489"/>
      </g>
     </g>
    </g>
    <g id="ytick_24">
     <g id="line2d_46">
      <defs>
       <path d="
M0 0
L2 0" id="m3065927de3"/>
      </defs>
      <g>
       <use style="stroke:#000000;stroke-linecap:butt;stroke-width:0.5;" x="25.8828125" xlink:href="#m3065927de3" y="101.072789465"/>
      </g>
     </g>
    </g>
    <g id="ytick_25">
     <g id="line2d_47">
      <defs>
       <path d="
M0 0
L2 0" id="m3065927de3"/>
      </defs>
      <g>
       <use style="stroke:#000000;stroke-linecap:butt;stroke-width:0.5;" x="25.8828125" xlink:href="#m3065927de3" y="87.4395300295"/>
      </g>
     </g>
    </g>
    <g id="ytick_26">
     <g id="line2d_48">
      <defs>
       <path d="
M0 0
L2 0" id="m3065927de3"/>
      </defs>
      <g>
       <use style="stroke:#000000;stroke-linecap:butt;stroke-width:0.5;" x="25.8828125" xlink:href="#m3065927de3" y="73.8062705942"/>
      </g>
     </g>
    </g>
    <g id="ytick_27">
     <g id="line2d_49">
      <defs>
       <path d="
M0 0
L2 0" id="m3065927de3"/>
      </defs>
      <g>
       <use style="stroke:#000000;stroke-linecap:butt;stroke-width:0.5;" x="25.8828125" xlink:href="#m3065927de3" y="46.5397517236"/>
      </g>
     </g>
    </g>
    <g id="ytick_28">
     <g id="line2d_50">
      <defs>
       <path d="
M0 0
L2 0" id="m3065927de3"/>
      </defs>
      <g>
       <use style="stroke:#000000;stroke-linecap:butt;stroke-width:0.5;" x="25.8828125" xlink:href="#m3065927de3" y="32.9064922883"/>
      </g>
     </g>
    </g>
    <g id="ytick_29">
     <g id="line2d_51">
      <defs>
       <path d="
M0 0
L2 0" id="m3065927de3"/>
      </defs>
      <g>
       <use style="stroke:#000000;stroke-linecap:butt;stroke-width:0.5;" x="25.8828125" xlink:href="#m3065927de3" y="19.273232853"/>
      </g>
     </g>
    </g>
   </g>
   <g id="patch_3">
    <path d="
M15.4995 401.004
L555.43 401.004" style="fill:none;stroke:#000000;stroke-width:0.8;"/>
   </g>
   <g id="patch_4">
    <path d="
M25.8828 408.726
L25.8828 7.2" style="fill:none;stroke:#000000;stroke-width:0.8;"/>
   </g>
  </g>
 </g>
 <defs>
  <clipPath id="pc4ff94fdb4">
   <rect height="401.526153846" width="539.930304948" x="15.4995477887" y="7.2"/>
  </clipPath>
 </defs>
</svg>
