<?xml version="1.0" encoding="utf-8" standalone="no"?>
<!DOCTYPE svg PUBLIC "-//W3C//DTD SVG 1.1//EN"
  "http://www.w3.org/Graphics/SVG/1.1/DTD/svg11.dtd">
<!-- Created with matplotlib (http://matplotlib.sourceforge.net/) -->
<svg height="420pt" version="1.1" viewBox="0 0 562 420" width="562pt" xmlns="http://www.w3.org/2000/svg" xmlns:xlink="http://www.w3.org/1999/xlink">
 <defs>
  <style type="text/css">
*{stroke-linecap:square;stroke-linejoin:round;}
  </style>
 </defs>
 <g id="figure_1">
  <g id="patch_1">
   <path d="
M-4.44089e-16 420.48
L562.773 420.48
L562.773 0
L-4.44089e-16 0
z
" style="fill:#ffffff;"/>
  </g>
  <g id="axes_1">
   <g id="patch_2">
    <path d="
M25.8362 413.28
L555.573 413.28
L555.573 7.2
L25.8362 7.2
z
" style="fill:#ffffff;"/>
   </g>
   <g id="line2d_1">
    <path clip-path="url(#p7800641b54)" d="
M36.0234 299.007
L36.0778 299.007
L36.0778 405.471
L36.14 358.555
L36.2052 358.555
L36.2724 318.366
L36.3409 318.366
L36.4108 293.438
L36.4811 293.438
L36.5528 278.69
L36.6247 278.69
L36.6975 266.527
L36.7708 266.527
L36.8449 256.883
L36.9192 256.883
L36.9938 248.951
L37.0688 248.951
L37.1444 241.093
L37.2205 241.093
L37.2967 235.019
L37.373 235.019
L37.4499 229.908
L37.5269 229.908
L37.6043 225.428
L37.6814 225.428
L37.7593 221.756
L37.8381 221.756
L37.9159 218.371
L37.9943 218.371
L38.0732 214.979
L38.152 214.979
L38.2313 211.752
L38.3101 211.752
L38.3899 208.426
L38.4696 208.426
L38.5488 205.222
L38.6288 205.222
L38.7088 202.015
L38.7891 202.015
L38.8698 199.439
L38.9506 199.439
L39.0314 197.026
L39.1123 197.026
L39.1934 194.475
L39.2743 194.475
L39.3558 192.02
L39.4372 192.02
L39.5183 189.765
L39.5996 189.765
L39.6813 187.824
L39.7633 187.824
L39.8454 186.15
L39.9274 186.15
L40.0098 184.724
L40.0918 184.724
L40.1748 183.215
L40.257 183.215
L40.3399 181.726
L40.422 181.726
L40.5044 180.241
L40.5876 180.241
L40.6711 178.9
L40.7537 178.9
L40.837 177.513
L40.9203 177.513
L41.0037 176.117
L41.0873 176.117
L41.1712 175.004
L41.2547 175.004
L41.3384 173.902
L41.4219 173.902
L41.5055 172.676
L41.5894 172.676
L41.6733 171.494
L41.7572 171.494
L41.8419 170.255
L41.9258 170.255
L42.0099 168.923
L42.0943 168.923
L42.1788 167.744
L42.2634 167.744
L42.3474 166.739
L42.4325 166.739
L42.5167 165.8
L42.6016 165.8
L42.6872 164.739
L42.7721 164.739
L42.8572 163.632
L42.9428 163.632
L43.0275 162.502
L43.1121 162.502
L43.1979 161.514
L43.2833 161.514
L43.368 160.621
L43.4536 160.621
L43.5393 159.666
L43.6249 159.666
L43.7107 158.683
L43.7965 158.683
L43.8827 157.622
L43.9678 157.622
L44.0538 156.618
L44.1394 156.618
L44.2255 155.632
L44.3114 155.632
L44.3978 154.632
L44.4839 154.632
L44.57 153.68
L44.656 153.68
L44.7417 152.795
L44.8287 152.795
L44.9144 151.95
L45.0003 151.95
L45.087 151.112
L45.1733 151.112
L45.2604 150.327
L45.3467 150.327
L45.4337 149.571
L45.5203 149.571
L45.6072 148.806
L45.694 148.806
L45.7809 148.055
L45.8678 148.055
L45.9547 147.323
L46.0422 147.323
L46.1288 146.575
L46.2156 146.575
L46.3025 145.893
L46.3903 145.893
L46.4776 145.242
L46.5646 145.242
L46.6519 144.626
L46.7392 144.626
L46.827 144.12
L46.9143 144.12
L47.0018 143.652
L47.089 143.652
L47.1763 143.198
L47.2633 143.198
L47.3521 142.72
L47.44 142.72
L47.5275 142.273
L47.615 142.273
L47.7027 141.805
L47.7905 141.805
L47.8784 141.318
L47.9663 141.318
L48.0543 140.815
L48.1425 140.815
L48.2307 140.352
L48.3188 140.352
L48.406 139.889
L48.4943 139.889
L48.5826 139.426
L48.6705 139.426
L48.7589 138.976
L48.8473 138.976
L48.9363 138.508
L49.0249 138.508
L49.1133 137.995
L49.201 137.995
L49.2894 137.46
L49.3781 137.46
L49.4669 136.944
L49.5545 136.944
L49.6434 136.47
L49.732 136.47
L49.8204 135.97
L49.9091 135.97
L49.9979 135.438
L50.0861 135.438
L50.1752 134.918
L50.2642 134.918
L50.353 134.397
L50.4414 134.397
L50.5309 133.863
L50.6193 133.863
L50.7089 133.36
L50.7978 133.36
L50.8873 132.868
L50.9759 132.868
L51.0655 132.371
L51.1544 132.371
L51.2435 131.876
L51.3319 131.876
L51.4205 131.378
L51.5094 131.378
L51.5992 130.865
L51.6879 130.865
L51.7771 130.362
L51.8676 130.362
L51.957 129.865
L52.0465 129.865
L52.1361 129.393
L52.2257 129.393
L52.3149 128.966
L52.4042 128.966
L52.4941 128.564
L52.5834 128.564
L52.6729 128.167
L52.7628 128.167
L52.8523 127.778
L52.942 127.778
L53.031 127.383
L53.121 127.383
L53.2111 127.005
L53.3004 127.005
L53.3912 126.647
L53.4817 126.647
L53.5724 126.269
L53.662 126.269
L53.7525 125.905
L53.842 125.905
L53.9325 125.57
L54.0224 125.57
L54.1125 125.253
L54.2024 125.253
L54.2925 124.925
L54.3826 124.925
L54.4732 124.589
L54.5628 124.589
L54.6532 124.264
L54.7439 124.264
L54.8347 123.968
L54.9242 123.968
L55.0145 123.674
L55.1051 123.674
L55.1951 123.363
L55.2857 123.363
L55.3764 123.04
L55.4662 123.04
L55.556 122.73
L55.6462 122.73
L55.7374 122.41
L55.827 122.41
L55.9177 122.109
L56.0079 122.109
L56.0979 121.794
L56.1884 121.794
L56.2786 121.486
L56.3698 121.486
L56.4605 121.181
L56.5511 121.181
L56.6416 120.86
L56.733 120.86
L56.8228 120.536
L56.9142 120.536
L57.0047 120.212
L57.096 120.212
L57.1869 119.914
L57.2784 119.914
L57.3689 119.631
L57.4609 119.631
L57.5512 119.38
L57.6421 119.38
L57.7331 119.104
L57.8241 119.104
L57.9159 118.801
L58.0071 118.801
L58.0982 118.491
L58.1888 118.491
L58.2803 118.171
L58.3716 118.171
L58.4625 117.846
L58.5542 117.846
L58.6454 117.507
L58.7363 117.507
L58.8268 117.186
L58.9186 117.186
L59.0095 116.872
L59.1006 116.872
L59.191 116.581
L59.2822 116.581
L59.3741 116.288
L59.4649 116.288
L59.5567 115.99
L59.6484 115.99
L59.7399 115.713
L59.8312 115.713
L59.9223 115.453
L60.0146 115.453
L60.1056 115.195
L60.1974 115.195
L60.2889 114.938
L60.3811 114.938
L60.4727 114.686
L60.5646 114.686
L60.6564 114.418
L60.7481 114.418
L60.8403 114.135
L60.932 114.135
L61.0241 113.852
L61.1154 113.852
L61.2068 113.579
L61.2978 113.579
L61.3898 113.303
L61.4813 113.303
L61.5733 113.046
L61.6651 113.046
L61.7572 112.799
L61.8489 112.799
L61.9405 112.544
L62.0333 112.544
L62.1252 112.276
L62.2166 112.276
L62.3085 112.001
L62.4008 112.001
L62.4923 111.724
L62.5845 111.724
L62.6771 111.45
L62.769 111.45
L62.8612 111.19
L62.9531 111.19
L63.0453 110.923
L63.1371 110.923
L63.2295 110.632
L63.3225 110.632
L63.4145 110.331
L63.5068 110.331
L63.5988 110.038
L63.6919 110.038
L63.7847 109.741
L63.8761 109.741
L63.9691 109.449
L64.0615 109.449
L64.1535 109.169
L64.246 109.169
L64.3388 108.898
L64.4302 108.898
L64.5231 108.625
L64.6149 108.625
L64.707 108.347
L64.8003 108.347
L64.8924 108.057
L64.9842 108.057
L65.077 107.768
L65.1694 107.768
L65.2611 107.47
L65.354 107.47
L65.4472 107.166
L65.5398 107.166
L65.6326 106.864
L65.7255 106.864
L65.8181 106.571
L65.9105 106.571
L66.0024 106.292
L66.0954 106.292
L66.1885 106.02
L66.2821 106.02
L66.3745 105.759
L66.4672 105.759
L66.5597 105.5
L66.6529 105.5
L66.7455 105.253
L66.8378 105.253
L66.9307 105.01
L67.0226 105.01
L67.1156 104.783
L67.2093 104.783
L67.3028 104.559
L67.489 104.45
L67.5818 104.231
L67.7674 104.12
L67.8606 103.902
L68.0467 103.799
L68.14 103.6
L68.3258 103.506
L68.4187 103.325
L68.604 103.236
L68.697 103.059
L68.8835 102.965
L68.9773 102.783
L69.164 102.689
L69.2577 102.491
L69.4439 102.391
L69.5377 102.206
L69.7237 102.115
L69.8158 101.924
L70.0018 101.827
L70.0954 101.632
L70.2824 101.538
L70.3752 101.354
L70.5619 101.266
L70.6549 101.084
L70.8421 100.992
L70.936 100.804
L71.1231 100.71
L71.2167 100.516
L71.4035 100.418
L71.4968 100.216
L71.6843 100.114
L71.7778 99.9162
L71.9641 99.8167
L72.0583 99.6269
L72.246 99.5354
L72.3397 99.3543
L72.5261 99.2645
L72.6207 99.0907
L72.8071 99.0057
L72.9006 98.8416
L73.0887 98.7564
L73.1819 98.5849
L73.37 98.5004
L73.4642 98.336
L73.6513 98.2562
L73.7454 98.1026
L73.9339 98.0308
L74.0277 97.8815
L74.2156 97.8097
L74.3097 97.6529
L74.4964 97.5706
L74.5906 97.4069
L74.7779 97.3277
L74.8722 97.1722
L75.0611 97.0948
L75.1558 96.9442
L75.3433 96.8692
L75.4376 96.7122
L75.6262 96.6319
L75.72 96.4733
L75.909 96.3931
L76.0039 96.2338
L76.192 96.1558
L76.2862 95.9938
L76.4747 95.9119
L76.569 95.7428
L76.7572 95.6591
L76.8522 95.4925
L77.0401 95.4114
L77.1349 95.2527
L77.3219 95.1741
L77.4156 95.012
L77.6046 94.9348
L77.6994 94.7949
L77.8876 94.7295
L77.9828 94.5909
L78.1715 94.5198
L78.2654 94.3816
L78.4549 94.3111
L78.5499 94.1737
L78.7385 94.1062
L78.8321 93.9689
L79.0226 93.8976
L79.117 93.7593
L79.3065 93.6898
L79.4016 93.5555
L79.5901 93.4896
L79.6855 93.3629
L79.8739 93.2995
L79.9694 93.1651
L80.1579 93.0931
L80.2529 92.9471
L80.4425 92.8722
L80.5372 92.724
L80.7275 92.6532
L80.8219 92.5151
L81.0102 92.4454
L81.1054 92.2987
L81.2954 92.2219
L81.3901 92.0761
L81.5794 92.0029
L81.6748 91.8627
L81.8661 91.7947
L81.96 91.6545
L82.1496 91.5858
L82.2448 91.447
L82.4345 91.3775
L82.5285 91.2351
L82.7189 91.1652
L82.8141 91.0272
L83.0039 90.9559
L83.0996 90.8231
L83.2891 90.7598
L83.3842 90.6311
L83.575 90.5645
L83.6699 90.4387
L83.8604 90.3754
L83.9548 90.2498
L84.1456 90.1824
L84.2407 90.0388
L84.4295 89.97
L84.525 89.8311
L84.7148 89.7622
L84.811 89.6299
L85.0011 89.5644
L85.0965 89.4345
L85.2863 89.3711
L85.3821 89.2457
L85.5728 89.1863
L85.6681 89.0618
L85.8572 89.0013
L85.953 88.8799
L86.1437 88.8177
L86.2388 88.6958
L86.4313 88.6365
L86.5261 88.5154
L86.7177 88.4546
L86.8126 88.334
L87.0034 88.2773
L87.0984 88.1633
L87.2901 88.1066
L87.3863 87.9888
L87.5764 87.9263
L87.6715 87.8054
L87.8629 87.745
L87.958 87.625
L88.148 87.5628
L88.2434 87.4418
L88.4345 87.3814
L88.5301 87.2638
L88.7211 87.2045
L88.8175 87.085
L89.0084 87.0257
L89.1035 86.9097
L89.2942 86.8536
L89.3903 86.7406
L89.6773 86.6318
L89.7731 86.5245
L90.0604 86.4194
L90.157 86.321
L90.4438 86.2291
L90.5394 86.1325
L90.8264 86.0338
L90.9215 85.9267
L91.2092 85.8166
L91.3038 85.703
L91.4958 85.6426
L91.5917 85.5224
L91.7828 85.4634
L91.8786 85.3476
L92.0699 85.2894
L92.1658 85.1742
L92.3594 85.115
L92.455 84.9979
L92.6468 84.941
L92.7429 84.8312
L93.0314 84.7221
L93.127 84.614
L93.4154 84.5098
L93.5111 84.4015
L93.799 84.295
L93.8958 84.1886
L94.1847 84.0805
L94.2804 83.9696
L94.4741 83.9125
L94.5701 83.8015
L94.859 83.6992
L94.955 83.5919
L95.2429 83.483
L95.3385 83.3765
L95.6274 83.2718
L95.724 83.1684
L96.0136 83.0629
L96.1089 82.9576
L96.3978 82.8496
L96.494 82.7456
L96.785 82.6444
L96.8813 82.5423
L97.1696 82.4351
L97.2657 82.3319
L97.5566 82.2318
L97.6529 82.1276
L97.9421 82.025
L98.0383 81.9187
L98.3277 81.816
L98.4253 81.7154
L98.7145 81.6152
L98.8106 81.51
L99.0993 81.4067
L99.1953 81.3058
L99.4853 81.205
L99.5814 81.1039
L99.8708 81.0031
L99.9675 80.9086
L100.257 80.8147
L100.353 80.7175
L100.643 80.6222
L100.74 80.5319
L101.031 80.4418
L101.127 80.3488
L101.417 80.2537
L101.514 80.1571
L101.803 80.061
L101.899 79.9648
L102.19 79.8707
L102.287 79.7794
L102.578 79.6872
L102.675 79.5945
L102.964 79.5009
L103.061 79.4072
L103.352 79.3169
L103.449 79.2306
L103.74 79.1497
L103.836 79.072
L104.129 78.994
L104.226 78.9139
L104.516 78.8252
L104.613 78.7328
L104.903 78.6381
L105.001 78.5436
L105.293 78.444
L105.39 78.3443
L105.68 78.2404
L105.777 78.1313
L106.068 78.0258
L106.165 77.921
L106.458 77.8166
L106.555 77.7125
L106.846 77.6052
L106.944 77.5003
L107.234 77.3965
L107.331 77.2962
L107.624 77.1963
L107.72 77.0939
L108.013 76.9901
L108.111 76.8815
L108.401 76.7726
L108.498 76.6605
L108.693 76.6048
L108.79 76.4923
L108.984 76.4362
L109.08 76.3252
L109.372 76.216
L109.469 76.1109
L109.761 76.0085
L109.859 75.9075
L110.152 75.8086
L110.248 75.7045
L110.443 75.6482
L110.54 75.5357
L110.833 75.4263
L110.929 75.3202
L111.221 75.212
L111.319 75.1051
L111.612 74.9985
L111.709 74.8911
L112.002 74.7831
L112.099 74.6688
L112.294 74.6125
L112.392 74.4997
L112.587 74.4432
L112.685 74.3323
L112.88 74.2755
L112.978 74.1619
L113.174 74.1057
L113.271 73.9959
L113.565 73.8855
L113.664 73.7776
L113.956 73.6749
L114.052 73.5772
L114.345 73.477
L114.443 73.3777
L114.736 73.2762
L114.833 73.1722
L115.127 73.0714
L115.225 72.9782
L115.517 72.8856
L115.615 72.7905
L115.908 72.6965
L116.006 72.6013
L116.299 72.5075
L116.397 72.4188
L116.691 72.3342
L116.788 72.2508
L117.082 72.1623
L117.181 72.0728
L117.474 71.9825
L117.572 71.8925
L117.865 71.8061
L117.962 71.7211
L118.257 71.6381
L118.355 71.5527
L118.649 71.4664
L118.747 71.3809
L119.041 71.2952
L119.139 71.2115
L119.431 71.1291
L119.529 71.0433
L119.824 70.9592
L119.921 70.8754
L120.216 70.7869
L120.315 70.6997
L120.609 70.6136
L120.707 70.5279
L121 70.4415
L121.099 70.3515
L121.393 70.2615
L121.49 70.1742
L121.785 70.087
L121.883 70.0021
L122.177 69.9169
L122.275 69.8366
L122.569 69.7576
L122.667 69.6766
L122.962 69.595
L123.06 69.5117
L123.353 69.43
L123.452 69.3463
L123.746 69.2623
L123.844 69.178
L124.14 69.0962
L124.238 69.015
L124.532 68.934
L124.63 68.8527
L124.925 68.7704
L125.025 68.6856
L125.319 68.6005
L125.416 68.5159
L125.711 68.433
L125.81 68.3549
L126.105 68.2789
L126.203 68.2062
L126.596 68.0987
L126.694 68.0314
L127.088 67.9321
L127.186 67.8679
L127.579 67.7671
L127.677 67.7004
L128.073 67.5999
L128.171 67.532
L128.567 67.4326
L128.664 67.3686
L129.06 67.2711
L129.16 67.2078
L129.553 67.1116
L129.652 67.0487
L130.045 66.9551
L130.143 66.8948
L130.537 66.8065
L130.636 66.7429
L131.031 66.644
L131.129 66.5771
L131.523 66.4737
L131.622 66.4066
L132.017 66.3025
L132.117 66.2333
L132.51 66.1325
L132.61 66.0656
L133.004 65.9619
L133.104 65.8924
L133.5 65.7892
L133.599 65.7208
L133.995 65.6215
L134.094 65.5582
L134.489 65.4652
L134.588 65.4044
L134.982 65.3109
L135.08 65.2479
L135.475 65.1512
L135.575 65.0863
L135.97 64.9915
L136.07 64.9282
L136.466 64.831
L136.565 64.7673
L136.963 64.6699
L137.062 64.6006
L137.458 64.4974
L137.557 64.4306
L137.952 64.3317
L138.05 64.2673
L138.448 64.1724
L138.546 64.1095
L138.942 64.0158
L139.042 63.9533
L139.439 63.8591
L139.537 63.7964
L139.933 63.6986
L140.032 63.634
L140.428 63.5411
L140.529 63.4813
L140.925 63.3889
L141.024 63.3281
L141.42 63.2376
L141.52 63.1778
L141.916 63.0912
L142.016 63.0326
L142.413 62.9436
L142.512 62.8838
L142.908 62.7928
L143.007 62.7338
L143.405 62.6418
L143.505 62.5787
L143.901 62.4859
L144.001 62.4239
L144.398 62.3326
L144.498 62.2714
L144.896 62.1814
L144.996 62.1235
L145.393 62.0374
L145.491 61.9786
L145.889 61.8884
L145.988 61.8247
L146.386 61.7304
L146.486 61.6673
L146.884 61.5796
L146.984 61.5231
L147.481 61.4125
L147.58 61.3574
L147.978 61.2732
L148.079 61.2183
L148.478 61.1307
L148.577 61.0702
L148.975 60.9821
L149.074 60.9229
L149.471 60.8352
L149.571 60.7778
L150.067 60.6679
L150.167 60.6138
L150.665 60.5034
L150.765 60.4512
L151.264 60.3471
L151.364 60.2935
L151.861 60.1833
L151.961 60.1298
L152.461 60.0242
L152.56 59.9724
L153.059 59.8649
L153.159 59.8147
L153.656 59.7184
L153.756 59.671
L154.255 59.5695
L154.355 59.5177
L154.855 59.4155
L154.955 59.363
L155.455 59.2587
L155.556 59.2069
L156.052 59.1012
L156.153 59.0474
L156.652 58.9427
L156.751 58.8887
L157.249 58.7824
L157.349 58.7316
L157.849 58.6265
L157.949 58.5693
L158.348 58.4842
L158.447 58.4278
L158.847 58.3426
L158.946 58.2868
L159.448 58.177
L159.548 58.1213
L159.948 58.0377
L160.049 57.9829
L160.55 57.8744
L160.65 57.8239
L161.148 57.7253
L161.248 57.6752
L161.749 57.5745
L161.849 57.5222
L162.35 57.424
L162.451 57.3775
L162.95 57.2873
L163.05 57.242
L163.551 57.1501
L163.652 57.1031
L164.152 57.0107
L164.253 56.9644
L164.754 56.8704
L164.854 56.8227
L165.355 56.7293
L165.456 56.6819
L165.956 56.5926
L166.057 56.5491
L166.658 56.4442
L166.76 56.4022
L167.361 56.2949
L167.461 56.251
L168.064 56.1428
L168.163 56.1019
L168.766 56.0024
L168.867 55.9603
L169.468 55.859
L169.568 55.8195
L170.17 55.7166
L170.271 55.6749
L170.875 55.5761
L170.976 55.5354
L171.576 55.4385
L171.677 55.4001
L172.383 55.2916
L172.483 55.2572
L173.186 55.1568
L173.286 55.1214
L173.992 55.0151
L174.093 54.9809
L174.798 54.8823
L174.898 54.8495
L175.602 54.7444
L175.703 54.7096
L176.507 54.5997
L176.607 54.5675
L177.413 54.4573
L177.513 54.4239
L178.22 54.3169
L178.321 54.2816
L179.024 54.1775
L179.125 54.1408
L179.831 54.0301
L179.932 53.9942
L180.536 53.9002
L180.637 53.8616
L181.244 53.765
L181.346 53.7271
L182.052 53.6188
L182.153 53.5831
L182.859 53.4725
L182.96 53.4371
L183.665 53.3297
L183.766 53.2913
L184.372 53.1954
L184.473 53.1578
L185.078 53.0602
L185.179 53.0201
L185.785 52.9166
L185.886 52.8742
L186.493 52.7718
L186.594 52.7305
L187.2 52.6295
L187.301 52.5886
L187.907 52.4862
L188.008 52.4461
L188.616 52.3443
L188.717 52.3034
L189.322 52.1989
L189.424 52.1555
L189.929 52.0667
L190.031 52.0211
L190.537 51.9282
L190.638 51.8832
L191.145 51.7912
L191.246 51.7463
L191.852 51.6395
L191.952 51.5982
L192.56 51.4946
L192.661 51.4563
L193.368 51.3464
L193.469 51.3104
L194.178 51.2042
L194.28 51.1672
L194.889 51.0749
L194.99 51.0367
L195.597 50.9407
L195.698 50.9023
L196.408 50.792
L196.51 50.7555
L197.119 50.6604
L197.22 50.6206
L197.828 50.5241
L197.929 50.4856
L198.54 50.387
L198.641 50.3489
L199.25 50.2533
L199.352 50.2144
L199.961 50.1138
L200.063 50.0739
L200.672 49.9743
L200.774 49.9317
L201.382 49.8287
L201.484 49.7886
L202.092 49.6849
L202.193 49.6428
L202.803 49.5396
L202.904 49.498
L203.515 49.3977
L203.616 49.3593
L204.226 49.2596
L204.328 49.2197
L204.938 49.1211
L205.039 49.0802
L205.648 48.9808
L205.75 48.9411
L206.361 48.8415
L206.463 48.8024
L207.073 48.7073
L207.175 48.6689
L207.785 48.5712
L207.887 48.5323
L208.498 48.4338
L208.6 48.3928
L209.21 48.2932
L209.31 48.2546
L209.921 48.1555
L210.022 48.1161
L210.633 48.0175
L210.736 47.9799
L211.345 47.8853
L211.445 47.8472
L212.058 47.7515
L212.16 47.7141
L212.771 47.6185
L212.873 47.5798
L213.486 47.4804
L213.588 47.4405
L214.198 47.3434
L214.299 47.3052
L214.911 47.2101
L215.013 47.172
L215.625 47.0767
L215.727 47.0411
L216.441 46.9324
L216.543 46.8962
L217.257 46.786
L217.359 46.7486
L218.073 46.6405
L218.175 46.6062
L218.889 46.5039
L218.991 46.4712
L219.81 46.3612
L219.912 46.3288
L220.626 46.2306
L220.728 46.1963
L221.443 46.0923
L221.544 46.0568
L222.259 45.9494
L222.361 45.9126
L223.076 45.8028
L223.177 45.7672
L223.893 45.6607
L223.996 45.6252
L224.712 45.5213
L224.815 45.4876
L225.531 45.3888
L225.633 45.356
L226.349 45.2547
L226.451 45.2222
L227.164 45.1232
L227.267 45.0915
L227.982 44.996
L228.084 44.9631
L228.797 44.8642
L228.9 44.8282
L229.615 44.7181
L229.718 44.6813
L230.433 44.5733
L230.535 44.5382
L231.252 44.4312
L231.354 44.3958
L232.072 44.2882
L232.175 44.2537
L232.893 44.1442
L232.996 44.107
L233.711 43.9967
L233.813 43.9588
L234.429 43.8641
L234.531 43.828
L235.25 43.7198
L235.353 43.6839
L236.068 43.5738
L236.171 43.5366
L236.89 43.4276
L236.993 43.3926
L237.71 43.2893
L237.814 43.2554
L238.532 43.1535
L238.634 43.1193
L239.353 43.0161
L239.456 42.9813
L240.172 42.8777
L240.275 42.8431
L240.994 42.7376
L241.096 42.7038
L241.815 42.6025
L241.917 42.5686
L242.636 42.4646
L242.739 42.4299
L243.456 42.3277
L243.56 42.2936
L244.279 42.1932
L244.382 42.1605
L245.102 42.0611
L245.204 42.0286
L245.923 41.9311
L246.027 41.8974
L246.746 41.8005
L246.848 41.7684
L247.669 41.6593
L247.773 41.6271
L248.594 41.5171
L248.697 41.4859
L249.418 41.3889
L249.521 41.3561
L250.243 41.2588
L250.345 41.2279
L251.169 41.1187
L251.271 41.0866
L251.991 40.9881
L252.094 40.9543
L252.812 40.8524
L252.914 40.8186
L253.637 40.7162
L253.74 40.6827
L254.459 40.58
L254.562 40.5444
L255.284 40.4379
L255.388 40.4022
L256.109 40.2955
L256.212 40.2593
L256.935 40.1549
L257.037 40.1209
L257.758 40.0205
L257.861 39.9883
L258.582 39.8921
L258.686 39.86
L259.407 39.7585
L259.51 39.7249
L260.232 39.6259
L260.335 39.5924
L261.055 39.4946
L261.158 39.4617
L261.878 39.3621
L261.981 39.3287
L262.704 39.2302
L262.807 39.198
L263.633 39.0895
L263.736 39.0577
L264.561 38.9468
L264.665 38.9142
L265.491 38.8053
L265.594 38.7743
L266.316 38.6776
L266.419 38.6462
L267.142 38.5493
L267.245 38.5171
L268.071 38.407
L268.174 38.3754
L269 38.2662
L269.104 38.235
L269.931 38.1274
L270.034 38.0978
L270.862 37.9934
L270.965 37.9646
L271.791 37.8671
L271.893 37.8391
L272.721 37.7361
L272.824 37.7067
L273.65 37.6045
L273.754 37.5753
L274.581 37.4694
L274.684 37.4384
L275.512 37.3329
L275.616 37.303
L276.442 37.2014
L276.545 37.173
L277.479 37.0662
L277.582 37.0403
L278.515 36.935
L278.619 36.9084
L279.548 36.8028
L279.651 36.7761
L280.581 36.6673
L280.685 36.6403
L281.515 36.543
L281.618 36.515
L282.551 36.4068
L282.653 36.3798
L283.586 36.2716
L283.689 36.2445
L284.623 36.1381
L284.726 36.1121
L285.659 36.0092
L285.762 35.9834
L286.696 35.8771
L286.799 35.8501
L287.733 35.7429
L287.837 35.7167
L288.768 35.6121
L288.872 35.5864
L289.806 35.4814
L289.91 35.4554
L290.844 35.3562
L290.947 35.3313
L291.885 35.2314
L291.988 35.2061
L293.028 35.0972
L293.131 35.0736
L294.17 34.9703
L294.274 34.9484
L295.314 34.8485
L295.417 34.8255
L296.46 34.7238
L296.563 34.7014
L297.705 34.5926
L297.809 34.5715
L298.954 34.4644
L299.057 34.4434
L300.199 34.3391
L300.302 34.3186
L301.447 34.214
L301.552 34.1936
L302.693 34.0892
L302.799 34.0673
L303.84 33.9664
L303.943 33.9436
L304.982 33.8433
L305.086 33.8214
L306.23 33.7147
L306.334 33.6929
L307.48 33.584
L307.583 33.5618
L308.727 33.4509
L308.831 33.4278
L309.873 33.3242
L309.977 33.3008
L311.018 33.195
L311.122 33.1714
L312.269 33.0604
L312.373 33.0391
L313.522 32.9307
L313.626 32.908
L314.771 32.8007
L314.875 32.7799
L316.125 32.6709
L316.23 32.6508
L317.478 32.5459
L317.583 32.5271
L318.833 32.4202
L318.938 32.4009
L320.19 32.2946
L320.294 32.275
L321.547 32.1661
L321.651 32.1459
L322.799 32.0434
L322.903 32.0228
L324.157 31.9171
L324.261 31.8981
L325.513 31.7875
L325.618 31.7675
L326.873 31.6568
L326.977 31.6365
L328.125 31.5341
L328.229 31.5135
L329.379 31.4101
L329.484 31.3891
L330.633 31.2825
L330.737 31.2599
L331.782 31.1581
L331.887 31.1356
L332.932 31.0347
L333.036 31.0121
L334.083 30.9103
L334.188 30.8874
L335.233 30.7866
L335.338 30.7645
L336.488 30.6535
L336.593 30.6321
L337.741 30.5266
L337.845 30.506
L338.997 30.4041
L339.102 30.3833
L340.249 30.2779
L340.354 30.257
L341.509 30.1494
L341.614 30.1281
L342.764 30.0245
L342.869 30.0042
L344.122 29.8933
L344.228 29.8725
L345.381 29.766
L345.486 29.7439
L346.639 29.6339
L346.744 29.6111
L347.793 29.5076
L347.898 29.4844
L348.944 29.382
L349.05 29.3591
L350.203 29.2483
L350.308 29.2262
L351.465 29.117
L351.569 29.0961
L352.722 28.9904
L352.827 28.9695
L353.981 28.8667
L354.086 28.8464
L355.24 28.7424
L355.345 28.7217
L356.497 28.6185
L356.602 28.5982
L357.862 28.4889
L357.967 28.4695
L359.229 28.3597
L359.334 28.34
L360.593 28.2335
L360.697 28.2148
L361.958 28.109
L362.063 28.09
L363.429 27.9795
L363.534 27.961
L364.901 27.8537
L365.006 27.8362
L366.371 27.7296
L366.476 27.7122
L367.947 27.6021
L368.053 27.5851
L369.524 27.4769
L369.63 27.4606
L371.101 27.3536
L371.207 27.3366
L372.574 27.2305
L372.679 27.2129
L374.046 27.1066
L374.15 27.0894
L375.625 26.9853
L375.73 26.9692
L377.205 26.865
L377.311 26.8486
L378.784 26.7426
L378.889 26.727
L380.365 26.6223
L380.47 26.6058
L381.84 26.5023
L381.946 26.4846
L383.317 26.3768
L383.422 26.3592
L384.792 26.2551
L384.898 26.2381
L386.265 26.1314
L386.371 26.1136
L387.845 26.0031
L387.95 25.9865
L389.428 25.8787
L389.533 25.8623
L390.902 25.7588
L391.007 25.7417
L392.38 25.6377
L392.486 25.6198
L393.751 25.5177
L393.856 25.4994
L395.228 25.3909
L395.335 25.3733
L396.706 25.2633
L396.811 25.2445
L398.185 25.1363
L398.29 25.1185
L399.662 25.0116
L399.768 24.9937
L401.144 24.8858
L401.249 24.8671
L402.516 24.7646
L402.622 24.7461
L403.994 24.6358
L404.1 24.6177
L405.473 24.5067
L405.579 24.4884
L406.952 24.3823
L407.058 24.3647
L408.436 24.2578
L408.54 24.2396
L409.916 24.1313
L410.022 24.1138
L411.398 24.0056
L411.504 23.9874
L412.878 23.8834
L412.983 23.8668
L414.356 23.7639
L414.462 23.7466
L415.84 23.6423
L415.946 23.6247
L417.324 23.519
L417.43 23.5008
L418.702 23.3986
L418.808 23.3802
L420.186 23.2706
L420.292 23.252
L421.664 23.1429
L421.771 23.1254
L423.15 23.0199
L423.256 23.0023
L424.737 22.8931
L424.844 22.8766
L426.332 22.7722
L426.439 22.7569
L428.026 22.6505
L428.131 22.635
L429.613 22.5307
L429.719 22.514
L431.098 22.41
L431.205 22.3923
L432.585 22.2849
L432.691 22.2669
L434.068 22.1587
L434.174 22.1406
L435.552 22.0352
L435.659 22.0176
L437.143 21.9114
L437.249 21.8953
L438.731 21.7881
L438.837 21.7713
L440.324 21.6627
L440.43 21.6464
L441.917 21.541
L442.023 21.5254
L443.615 21.4188
L443.721 21.4036
L445.315 21.2969
L445.422 21.2815
L447.011 21.177
L447.117 21.1627
L448.816 21.0554
L448.923 21.0403
L450.519 20.9336
L450.626 20.9184
L452.217 20.8127
L452.323 20.798
L454.026 20.6905
L454.132 20.6766
L455.833 20.5684
L455.941 20.5537
L457.643 20.4444
L457.75 20.4297
L459.451 20.3209
L459.558 20.3064
L461.152 20.1999
L461.259 20.1852
L462.961 20.0778
L463.067 20.0639
L464.877 19.957
L464.983 19.944
L466.899 19.8333
L467.006 19.8205
L468.923 19.713
L469.029 19.7003
L470.947 19.5922
L471.054 19.5793
L472.866 19.4722
L472.972 19.4584
L474.68 19.354
L474.788 19.3403
L476.598 19.2321
L476.704 19.2185
L478.41 19.1133
L478.516 19.0994
L480.222 18.9939
L480.329 18.9795
L482.035 18.8684
L482.143 18.853
L483.744 18.745
L483.851 18.7294
L485.453 18.6239
L485.559 18.6092
L487.269 18.4999
L487.375 18.4858
L489.19 18.3764
L489.296 18.3628
L491.11 18.2537
L491.217 18.24
L492.928 18.1345
L493.035 18.1201
L494.851 18.0114
L494.957 17.9979
L496.774 17.8868
L496.883 17.8723
L498.589 17.7622
L498.696 17.7476
L500.402 17.6396
L500.509 17.6252
L502.217 17.5206
L502.324 17.507
L504.141 17.4009
L504.247 17.3883
L506.172 17.2786
L506.279 17.2654
L508.204 17.1563
L508.311 17.1438
L510.348 17.033
L510.454 17.0203
L512.271 16.9153
L512.378 16.9018
L514.198 16.7969
L514.305 16.7838
L516.234 16.6736
L516.341 16.6608
L518.268 16.5515
L518.376 16.5381
L520.195 16.4319
L520.302 16.4189
L522.229 16.3126
L522.336 16.3001
L524.37 16.1912
L524.477 16.1797
L526.617 16.0698
L526.724 16.0577
L528.762 15.9468
L528.869 15.9346
L530.904 15.826
L531.011 15.8142
L533.051 15.7077
L533.159 15.6961
L535.197 15.5885
L535.304 15.5759
L537.339 15.4671
L537.447 15.455
L539.484 15.3463
L539.592 15.334
L541.631 15.225
L541.738 15.2131
L543.776 15.1046
L543.883 15.0923
L545.386 15.015
L545.386 15.0092" style="fill:none;stroke:#ff0000;stroke-width:0.5;"/>
   </g>
   <g id="matplotlib.axis_1">
    <g id="xtick_1">
     <g id="line2d_2">
      <path d="
M36.0234 413.28
L36.0234 7.2" style="fill:none;stroke:#000000;stroke-dasharray:1.000000,3.000000;stroke-dashoffset:0.0;stroke-linecap:butt;stroke-width:0.5;"/>
     </g>
     <g id="line2d_3">
      <defs>
       <path d="
M0 0
L0 -4" id="mdd8bac8cf7"/>
      </defs>
      <g>
       <use style="stroke:#000000;stroke-linecap:butt;stroke-width:0.5;" x="36.0234375" xlink:href="#mdd8bac8cf7" y="299.006855521"/>
      </g>
     </g>
    </g>
    <g id="xtick_2">
     <g id="line2d_4">
      <path d="
M137.901 413.28
L137.901 7.2" style="fill:none;stroke:#000000;stroke-dasharray:1.000000,3.000000;stroke-dashoffset:0.0;stroke-linecap:butt;stroke-width:0.5;"/>
     </g>
     <g id="line2d_5">
      <defs>
       <path d="
M0 0
L0 -4" id="mdd8bac8cf7"/>
      </defs>
      <g>
       <use style="stroke:#000000;stroke-linecap:butt;stroke-width:0.5;" x="137.901264335" xlink:href="#mdd8bac8cf7" y="299.006855521"/>
      </g>
     </g>
     <g id="text_1">
      <!-- 2e8 -->
      <defs>
       <path d="
M19.1875 8.29688
L53.6094 8.29688
L53.6094 0
L7.32812 0
L7.32812 8.29688
Q12.9375 14.1094 22.625 23.8906
Q32.3281 33.6875 34.8125 36.5312
Q39.5469 41.8438 41.4219 45.5312
Q43.3125 49.2188 43.3125 52.7812
Q43.3125 58.5938 39.2344 62.25
Q35.1562 65.9219 28.6094 65.9219
Q23.9688 65.9219 18.8125 64.3125
Q13.6719 62.7031 7.8125 59.4219
L7.8125 69.3906
Q13.7656 71.7812 18.9375 73
Q24.125 74.2188 28.4219 74.2188
Q39.75 74.2188 46.4844 68.5469
Q53.2188 62.8906 53.2188 53.4219
Q53.2188 48.9219 51.5312 44.8906
Q49.8594 40.875 45.4062 35.4062
Q44.1875 33.9844 37.6406 27.2188
Q31.1094 20.4531 19.1875 8.29688" id="BitstreamVeraSans-Roman-32"/>
       <path d="
M56.2031 29.5938
L56.2031 25.2031
L14.8906 25.2031
Q15.4844 15.9219 20.4844 11.0625
Q25.4844 6.20312 34.4219 6.20312
Q39.5938 6.20312 44.4531 7.46875
Q49.3125 8.73438 54.1094 11.2812
L54.1094 2.78125
Q49.2656 0.734375 44.1875 -0.34375
Q39.1094 -1.42188 33.8906 -1.42188
Q20.7969 -1.42188 13.1562 6.1875
Q5.51562 13.8125 5.51562 26.8125
Q5.51562 40.2344 12.7656 48.1094
Q20.0156 56 32.3281 56
Q43.3594 56 49.7812 48.8906
Q56.2031 41.7969 56.2031 29.5938
M47.2188 32.2344
Q47.125 39.5938 43.0938 43.9844
Q39.0625 48.3906 32.4219 48.3906
Q24.9062 48.3906 20.3906 44.1406
Q15.875 39.8906 15.1875 32.1719
z
" id="BitstreamVeraSans-Roman-65"/>
       <path d="
M31.7812 34.625
Q24.75 34.625 20.7188 30.8594
Q16.7031 27.0938 16.7031 20.5156
Q16.7031 13.9219 20.7188 10.1562
Q24.75 6.39062 31.7812 6.39062
Q38.8125 6.39062 42.8594 10.1719
Q46.9219 13.9688 46.9219 20.5156
Q46.9219 27.0938 42.8906 30.8594
Q38.875 34.625 31.7812 34.625
M21.9219 38.8125
Q15.5781 40.375 12.0312 44.7188
Q8.5 49.0781 8.5 55.3281
Q8.5 64.0625 14.7188 69.1406
Q20.9531 74.2188 31.7812 74.2188
Q42.6719 74.2188 48.875 69.1406
Q55.0781 64.0625 55.0781 55.3281
Q55.0781 49.0781 51.5312 44.7188
Q48 40.375 41.7031 38.8125
Q48.8281 37.1562 52.7969 32.3125
Q56.7812 27.4844 56.7812 20.5156
Q56.7812 9.90625 50.3125 4.23438
Q43.8438 -1.42188 31.7812 -1.42188
Q19.7344 -1.42188 13.25 4.23438
Q6.78125 9.90625 6.78125 20.5156
Q6.78125 27.4844 10.7812 32.3125
Q14.7969 37.1562 21.9219 38.8125
M18.3125 54.3906
Q18.3125 48.7344 21.8438 45.5625
Q25.3906 42.3906 31.7812 42.3906
Q38.1406 42.3906 41.7188 45.5625
Q45.3125 48.7344 45.3125 54.3906
Q45.3125 60.0625 41.7188 63.2344
Q38.1406 66.4062 31.7812 66.4062
Q25.3906 66.4062 21.8438 63.2344
Q18.3125 60.0625 18.3125 54.3906" id="BitstreamVeraSans-Roman-38"/>
      </defs>
      <g transform="translate(129.170795585 310.428730521)scale(0.1 -0.1)">
       <use xlink:href="#BitstreamVeraSans-Roman-32"/>
       <use x="63.623046875" xlink:href="#BitstreamVeraSans-Roman-65"/>
       <use x="125.146484375" xlink:href="#BitstreamVeraSans-Roman-38"/>
      </g>
     </g>
    </g>
    <g id="xtick_3">
     <g id="line2d_6">
      <path d="
M239.779 413.28
L239.779 7.2" style="fill:none;stroke:#000000;stroke-dasharray:1.000000,3.000000;stroke-dashoffset:0.0;stroke-linecap:butt;stroke-width:0.5;"/>
     </g>
     <g id="line2d_7">
      <defs>
       <path d="
M0 0
L0 -4" id="mdd8bac8cf7"/>
      </defs>
      <g>
       <use style="stroke:#000000;stroke-linecap:butt;stroke-width:0.5;" x="239.77909117" xlink:href="#mdd8bac8cf7" y="299.006855521"/>
      </g>
     </g>
     <g id="text_2">
      <!-- 4e8 -->
      <defs>
       <path d="
M37.7969 64.3125
L12.8906 25.3906
L37.7969 25.3906
z

M35.2031 72.9062
L47.6094 72.9062
L47.6094 25.3906
L58.0156 25.3906
L58.0156 17.1875
L47.6094 17.1875
L47.6094 0
L37.7969 0
L37.7969 17.1875
L4.89062 17.1875
L4.89062 26.7031
z
" id="BitstreamVeraSans-Roman-34"/>
      </defs>
      <g transform="translate(230.92674742 310.428730521)scale(0.1 -0.1)">
       <use xlink:href="#BitstreamVeraSans-Roman-34"/>
       <use x="63.623046875" xlink:href="#BitstreamVeraSans-Roman-65"/>
       <use x="125.146484375" xlink:href="#BitstreamVeraSans-Roman-38"/>
      </g>
     </g>
    </g>
    <g id="xtick_4">
     <g id="line2d_8">
      <path d="
M341.657 413.28
L341.657 7.2" style="fill:none;stroke:#000000;stroke-dasharray:1.000000,3.000000;stroke-dashoffset:0.0;stroke-linecap:butt;stroke-width:0.5;"/>
     </g>
     <g id="line2d_9">
      <defs>
       <path d="
M0 0
L0 -4" id="mdd8bac8cf7"/>
      </defs>
      <g>
       <use style="stroke:#000000;stroke-linecap:butt;stroke-width:0.5;" x="341.656918004" xlink:href="#mdd8bac8cf7" y="299.006855521"/>
      </g>
     </g>
     <g id="text_3">
      <!-- 6e8 -->
      <defs>
       <path d="
M33.0156 40.375
Q26.375 40.375 22.4844 35.8281
Q18.6094 31.2969 18.6094 23.3906
Q18.6094 15.5312 22.4844 10.9531
Q26.375 6.39062 33.0156 6.39062
Q39.6562 6.39062 43.5312 10.9531
Q47.4062 15.5312 47.4062 23.3906
Q47.4062 31.2969 43.5312 35.8281
Q39.6562 40.375 33.0156 40.375
M52.5938 71.2969
L52.5938 62.3125
Q48.875 64.0625 45.0938 64.9844
Q41.3125 65.9219 37.5938 65.9219
Q27.8281 65.9219 22.6719 59.3281
Q17.5312 52.7344 16.7969 39.4062
Q19.6719 43.6562 24.0156 45.9219
Q28.375 48.1875 33.5938 48.1875
Q44.5781 48.1875 50.9531 41.5156
Q57.3281 34.8594 57.3281 23.3906
Q57.3281 12.1562 50.6875 5.35938
Q44.0469 -1.42188 33.0156 -1.42188
Q20.3594 -1.42188 13.6719 8.26562
Q6.98438 17.9688 6.98438 36.375
Q6.98438 53.6562 15.1875 63.9375
Q23.3906 74.2188 37.2031 74.2188
Q40.9219 74.2188 44.7031 73.4844
Q48.4844 72.75 52.5938 71.2969" id="BitstreamVeraSans-Roman-36"/>
      </defs>
      <g transform="translate(332.909261754 310.428730521)scale(0.1 -0.1)">
       <use xlink:href="#BitstreamVeraSans-Roman-36"/>
       <use x="63.623046875" xlink:href="#BitstreamVeraSans-Roman-65"/>
       <use x="125.146484375" xlink:href="#BitstreamVeraSans-Roman-38"/>
      </g>
     </g>
    </g>
    <g id="xtick_5">
     <g id="line2d_10">
      <path d="
M443.535 413.28
L443.535 7.2" style="fill:none;stroke:#000000;stroke-dasharray:1.000000,3.000000;stroke-dashoffset:0.0;stroke-linecap:butt;stroke-width:0.5;"/>
     </g>
     <g id="line2d_11">
      <defs>
       <path d="
M0 0
L0 -4" id="mdd8bac8cf7"/>
      </defs>
      <g>
       <use style="stroke:#000000;stroke-linecap:butt;stroke-width:0.5;" x="443.534744839" xlink:href="#mdd8bac8cf7" y="299.006855521"/>
      </g>
     </g>
     <g id="text_4">
      <!-- 8e8 -->
      <g transform="translate(434.776932339 310.428730521)scale(0.1 -0.1)">
       <use xlink:href="#BitstreamVeraSans-Roman-38"/>
       <use x="63.623046875" xlink:href="#BitstreamVeraSans-Roman-65"/>
       <use x="125.146484375" xlink:href="#BitstreamVeraSans-Roman-38"/>
      </g>
     </g>
    </g>
    <g id="xtick_6">
     <g id="line2d_12">
      <path d="
M545.413 413.28
L545.413 7.2" style="fill:none;stroke:#000000;stroke-dasharray:1.000000,3.000000;stroke-dashoffset:0.0;stroke-linecap:butt;stroke-width:0.5;"/>
     </g>
     <g id="line2d_13">
      <defs>
       <path d="
M0 0
L0 -4" id="mdd8bac8cf7"/>
      </defs>
      <g>
       <use style="stroke:#000000;stroke-linecap:butt;stroke-width:0.5;" x="545.412571674" xlink:href="#mdd8bac8cf7" y="299.006855521"/>
      </g>
     </g>
     <g id="text_5">
      <!-- 1e9 -->
      <defs>
       <path d="
M10.9844 1.51562
L10.9844 10.5
Q14.7031 8.73438 18.5 7.8125
Q22.3125 6.89062 25.9844 6.89062
Q35.75 6.89062 40.8906 13.4531
Q46.0469 20.0156 46.7812 33.4062
Q43.9531 29.2031 39.5938 26.9531
Q35.25 24.7031 29.9844 24.7031
Q19.0469 24.7031 12.6719 31.3125
Q6.29688 37.9375 6.29688 49.4219
Q6.29688 60.6406 12.9375 67.4219
Q19.5781 74.2188 30.6094 74.2188
Q43.2656 74.2188 49.9219 64.5156
Q56.5938 54.8281 56.5938 36.375
Q56.5938 19.1406 48.4062 8.85938
Q40.2344 -1.42188 26.4219 -1.42188
Q22.7031 -1.42188 18.8906 -0.6875
Q15.0938 0.046875 10.9844 1.51562
M30.6094 32.4219
Q37.25 32.4219 41.125 36.9531
Q45.0156 41.5 45.0156 49.4219
Q45.0156 57.2812 41.125 61.8438
Q37.25 66.4062 30.6094 66.4062
Q23.9688 66.4062 20.0938 61.8438
Q16.2188 57.2812 16.2188 49.4219
Q16.2188 41.5 20.0938 36.9531
Q23.9688 32.4219 30.6094 32.4219" id="BitstreamVeraSans-Roman-39"/>
       <path d="
M12.4062 8.29688
L28.5156 8.29688
L28.5156 63.9219
L10.9844 60.4062
L10.9844 69.3906
L28.4219 72.9062
L38.2812 72.9062
L38.2812 8.29688
L54.3906 8.29688
L54.3906 0
L12.4062 0
z
" id="BitstreamVeraSans-Roman-31"/>
      </defs>
      <g transform="translate(536.874290424 310.428730521)scale(0.1 -0.1)">
       <use xlink:href="#BitstreamVeraSans-Roman-31"/>
       <use x="63.623046875" xlink:href="#BitstreamVeraSans-Roman-65"/>
       <use x="125.146484375" xlink:href="#BitstreamVeraSans-Roman-39"/>
      </g>
     </g>
    </g>
    <g id="xtick_7">
     <g id="line2d_14">
      <defs>
       <path d="
M0 0
L0 -2" id="m47f65f1af8"/>
      </defs>
      <g>
       <use style="stroke:#000000;stroke-linecap:butt;stroke-width:0.5;" x="61.4928942087" xlink:href="#m47f65f1af8" y="299.006855521"/>
      </g>
     </g>
    </g>
    <g id="xtick_8">
     <g id="line2d_15">
      <defs>
       <path d="
M0 0
L0 -2" id="m47f65f1af8"/>
      </defs>
      <g>
       <use style="stroke:#000000;stroke-linecap:butt;stroke-width:0.5;" x="86.9623509174" xlink:href="#m47f65f1af8" y="299.006855521"/>
      </g>
     </g>
    </g>
    <g id="xtick_9">
     <g id="line2d_16">
      <defs>
       <path d="
M0 0
L0 -2" id="m47f65f1af8"/>
      </defs>
      <g>
       <use style="stroke:#000000;stroke-linecap:butt;stroke-width:0.5;" x="112.431807626" xlink:href="#m47f65f1af8" y="299.006855521"/>
      </g>
     </g>
    </g>
    <g id="xtick_10">
     <g id="line2d_17">
      <defs>
       <path d="
M0 0
L0 -2" id="m47f65f1af8"/>
      </defs>
      <g>
       <use style="stroke:#000000;stroke-linecap:butt;stroke-width:0.5;" x="163.370721043" xlink:href="#m47f65f1af8" y="299.006855521"/>
      </g>
     </g>
    </g>
    <g id="xtick_11">
     <g id="line2d_18">
      <defs>
       <path d="
M0 0
L0 -2" id="m47f65f1af8"/>
      </defs>
      <g>
       <use style="stroke:#000000;stroke-linecap:butt;stroke-width:0.5;" x="188.840177752" xlink:href="#m47f65f1af8" y="299.006855521"/>
      </g>
     </g>
    </g>
    <g id="xtick_12">
     <g id="line2d_19">
      <defs>
       <path d="
M0 0
L0 -2" id="m47f65f1af8"/>
      </defs>
      <g>
       <use style="stroke:#000000;stroke-linecap:butt;stroke-width:0.5;" x="214.309634461" xlink:href="#m47f65f1af8" y="299.006855521"/>
      </g>
     </g>
    </g>
    <g id="xtick_13">
     <g id="line2d_20">
      <defs>
       <path d="
M0 0
L0 -2" id="m47f65f1af8"/>
      </defs>
      <g>
       <use style="stroke:#000000;stroke-linecap:butt;stroke-width:0.5;" x="265.248547878" xlink:href="#m47f65f1af8" y="299.006855521"/>
      </g>
     </g>
    </g>
    <g id="xtick_14">
     <g id="line2d_21">
      <defs>
       <path d="
M0 0
L0 -2" id="m47f65f1af8"/>
      </defs>
      <g>
       <use style="stroke:#000000;stroke-linecap:butt;stroke-width:0.5;" x="290.718004587" xlink:href="#m47f65f1af8" y="299.006855521"/>
      </g>
     </g>
    </g>
    <g id="xtick_15">
     <g id="line2d_22">
      <defs>
       <path d="
M0 0
L0 -2" id="m47f65f1af8"/>
      </defs>
      <g>
       <use style="stroke:#000000;stroke-linecap:butt;stroke-width:0.5;" x="316.187461296" xlink:href="#m47f65f1af8" y="299.006855521"/>
      </g>
     </g>
    </g>
    <g id="xtick_16">
     <g id="line2d_23">
      <defs>
       <path d="
M0 0
L0 -2" id="m47f65f1af8"/>
      </defs>
      <g>
       <use style="stroke:#000000;stroke-linecap:butt;stroke-width:0.5;" x="367.126374713" xlink:href="#m47f65f1af8" y="299.006855521"/>
      </g>
     </g>
    </g>
    <g id="xtick_17">
     <g id="line2d_24">
      <defs>
       <path d="
M0 0
L0 -2" id="m47f65f1af8"/>
      </defs>
      <g>
       <use style="stroke:#000000;stroke-linecap:butt;stroke-width:0.5;" x="392.595831422" xlink:href="#m47f65f1af8" y="299.006855521"/>
      </g>
     </g>
    </g>
    <g id="xtick_18">
     <g id="line2d_25">
      <defs>
       <path d="
M0 0
L0 -2" id="m47f65f1af8"/>
      </defs>
      <g>
       <use style="stroke:#000000;stroke-linecap:butt;stroke-width:0.5;" x="418.06528813" xlink:href="#m47f65f1af8" y="299.006855521"/>
      </g>
     </g>
    </g>
    <g id="xtick_19">
     <g id="line2d_26">
      <defs>
       <path d="
M0 0
L0 -2" id="m47f65f1af8"/>
      </defs>
      <g>
       <use style="stroke:#000000;stroke-linecap:butt;stroke-width:0.5;" x="469.004201548" xlink:href="#m47f65f1af8" y="299.006855521"/>
      </g>
     </g>
    </g>
    <g id="xtick_20">
     <g id="line2d_27">
      <defs>
       <path d="
M0 0
L0 -2" id="m47f65f1af8"/>
      </defs>
      <g>
       <use style="stroke:#000000;stroke-linecap:butt;stroke-width:0.5;" x="494.473658257" xlink:href="#m47f65f1af8" y="299.006855521"/>
      </g>
     </g>
    </g>
    <g id="xtick_21">
     <g id="line2d_28">
      <defs>
       <path d="
M0 0
L0 -2" id="m47f65f1af8"/>
      </defs>
      <g>
       <use style="stroke:#000000;stroke-linecap:butt;stroke-width:0.5;" x="519.943114965" xlink:href="#m47f65f1af8" y="299.006855521"/>
      </g>
     </g>
    </g>
   </g>
   <g id="matplotlib.axis_2">
    <g id="ytick_1">
     <g id="line2d_29">
      <path d="
M25.8362 398.28
L555.573 398.28" style="fill:none;stroke:#000000;stroke-dasharray:1.000000,3.000000;stroke-dashoffset:0.0;stroke-linecap:butt;stroke-width:0.5;"/>
     </g>
     <g id="line2d_30">
      <defs>
       <path d="
M0 0
L4 0" id="m1d946a4650"/>
      </defs>
      <g>
       <use style="stroke:#000000;stroke-linecap:butt;stroke-width:0.5;" x="36.0234375" xlink:href="#m1d946a4650" y="398.280087731"/>
      </g>
     </g>
     <g id="text_6">
      <!-- -0.04 -->
      <defs>
       <path d="
M31.7812 66.4062
Q24.1719 66.4062 20.3281 58.9062
Q16.5 51.4219 16.5 36.375
Q16.5 21.3906 20.3281 13.8906
Q24.1719 6.39062 31.7812 6.39062
Q39.4531 6.39062 43.2812 13.8906
Q47.125 21.3906 47.125 36.375
Q47.125 51.4219 43.2812 58.9062
Q39.4531 66.4062 31.7812 66.4062
M31.7812 74.2188
Q44.0469 74.2188 50.5156 64.5156
Q56.9844 54.8281 56.9844 36.375
Q56.9844 17.9688 50.5156 8.26562
Q44.0469 -1.42188 31.7812 -1.42188
Q19.5312 -1.42188 13.0625 8.26562
Q6.59375 17.9688 6.59375 36.375
Q6.59375 54.8281 13.0625 64.5156
Q19.5312 74.2188 31.7812 74.2188" id="BitstreamVeraSans-Roman-30"/>
       <path d="
M10.6875 12.4062
L21 12.4062
L21 0
L10.6875 0
z
" id="BitstreamVeraSans-Roman-2e"/>
       <path d="
M4.89062 31.3906
L31.2031 31.3906
L31.2031 23.3906
L4.89062 23.3906
z
" id="BitstreamVeraSans-Roman-2d"/>
      </defs>
      <g transform="translate(7.2 401.919931481)scale(0.1 -0.1)">
       <use xlink:href="#BitstreamVeraSans-Roman-2d"/>
       <use x="36.083984375" xlink:href="#BitstreamVeraSans-Roman-30"/>
       <use x="99.70703125" xlink:href="#BitstreamVeraSans-Roman-2e"/>
       <use x="131.494140625" xlink:href="#BitstreamVeraSans-Roman-30"/>
       <use x="195.1171875" xlink:href="#BitstreamVeraSans-Roman-34"/>
      </g>
     </g>
    </g>
    <g id="ytick_2">
     <g id="line2d_31">
      <path d="
M25.8362 348.643
L555.573 348.643" style="fill:none;stroke:#000000;stroke-dasharray:1.000000,3.000000;stroke-dashoffset:0.0;stroke-linecap:butt;stroke-width:0.5;"/>
     </g>
     <g id="line2d_32">
      <defs>
       <path d="
M0 0
L4 0" id="m1d946a4650"/>
      </defs>
      <g>
       <use style="stroke:#000000;stroke-linecap:butt;stroke-width:0.5;" x="36.0234375" xlink:href="#m1d946a4650" y="348.643471626"/>
      </g>
     </g>
     <g id="text_7">
      <!-- -0.02 -->
      <g transform="translate(7.640625 352.283315376)scale(0.1 -0.1)">
       <use xlink:href="#BitstreamVeraSans-Roman-2d"/>
       <use x="36.083984375" xlink:href="#BitstreamVeraSans-Roman-30"/>
       <use x="99.70703125" xlink:href="#BitstreamVeraSans-Roman-2e"/>
       <use x="131.494140625" xlink:href="#BitstreamVeraSans-Roman-30"/>
       <use x="195.1171875" xlink:href="#BitstreamVeraSans-Roman-32"/>
      </g>
     </g>
    </g>
    <g id="ytick_3">
     <g id="line2d_33">
      <path d="
M25.8362 299.007
L555.573 299.007" style="fill:none;stroke:#000000;stroke-dasharray:1.000000,3.000000;stroke-dashoffset:0.0;stroke-linecap:butt;stroke-width:0.5;"/>
     </g>
     <g id="line2d_34">
      <defs>
       <path d="
M0 0
L4 0" id="m1d946a4650"/>
      </defs>
      <g>
       <use style="stroke:#000000;stroke-linecap:butt;stroke-width:0.5;" x="36.0234375" xlink:href="#m1d946a4650" y="299.006855521"/>
      </g>
     </g>
    </g>
    <g id="ytick_4">
     <g id="line2d_35">
      <path d="
M25.8362 249.37
L555.573 249.37" style="fill:none;stroke:#000000;stroke-dasharray:1.000000,3.000000;stroke-dashoffset:0.0;stroke-linecap:butt;stroke-width:0.5;"/>
     </g>
     <g id="line2d_36">
      <defs>
       <path d="
M0 0
L4 0" id="m1d946a4650"/>
      </defs>
      <g>
       <use style="stroke:#000000;stroke-linecap:butt;stroke-width:0.5;" x="36.0234375" xlink:href="#m1d946a4650" y="249.370239416"/>
      </g>
     </g>
     <g id="text_8">
      <!-- 0.02 -->
      <g transform="translate(11.41875 253.010083166)scale(0.1 -0.1)">
       <use xlink:href="#BitstreamVeraSans-Roman-30"/>
       <use x="63.623046875" xlink:href="#BitstreamVeraSans-Roman-2e"/>
       <use x="95.41015625" xlink:href="#BitstreamVeraSans-Roman-30"/>
       <use x="159.033203125" xlink:href="#BitstreamVeraSans-Roman-32"/>
      </g>
     </g>
    </g>
    <g id="ytick_5">
     <g id="line2d_37">
      <path d="
M25.8362 199.734
L555.573 199.734" style="fill:none;stroke:#000000;stroke-dasharray:1.000000,3.000000;stroke-dashoffset:0.0;stroke-linecap:butt;stroke-width:0.5;"/>
     </g>
     <g id="line2d_38">
      <defs>
       <path d="
M0 0
L4 0" id="m1d946a4650"/>
      </defs>
      <g>
       <use style="stroke:#000000;stroke-linecap:butt;stroke-width:0.5;" x="36.0234375" xlink:href="#m1d946a4650" y="199.733623311"/>
      </g>
     </g>
     <g id="text_9">
      <!-- 0.04 -->
      <g transform="translate(10.978125 203.373467061)scale(0.1 -0.1)">
       <use xlink:href="#BitstreamVeraSans-Roman-30"/>
       <use x="63.623046875" xlink:href="#BitstreamVeraSans-Roman-2e"/>
       <use x="95.41015625" xlink:href="#BitstreamVeraSans-Roman-30"/>
       <use x="159.033203125" xlink:href="#BitstreamVeraSans-Roman-34"/>
      </g>
     </g>
    </g>
    <g id="ytick_6">
     <g id="line2d_39">
      <path d="
M25.8362 150.097
L555.573 150.097" style="fill:none;stroke:#000000;stroke-dasharray:1.000000,3.000000;stroke-dashoffset:0.0;stroke-linecap:butt;stroke-width:0.5;"/>
     </g>
     <g id="line2d_40">
      <defs>
       <path d="
M0 0
L4 0" id="m1d946a4650"/>
      </defs>
      <g>
       <use style="stroke:#000000;stroke-linecap:butt;stroke-width:0.5;" x="36.0234375" xlink:href="#m1d946a4650" y="150.097007206"/>
      </g>
     </g>
     <g id="text_10">
      <!-- 0.06 -->
      <g transform="translate(11.046875 153.736850956)scale(0.1 -0.1)">
       <use xlink:href="#BitstreamVeraSans-Roman-30"/>
       <use x="63.623046875" xlink:href="#BitstreamVeraSans-Roman-2e"/>
       <use x="95.41015625" xlink:href="#BitstreamVeraSans-Roman-30"/>
       <use x="159.033203125" xlink:href="#BitstreamVeraSans-Roman-36"/>
      </g>
     </g>
    </g>
    <g id="ytick_7">
     <g id="line2d_41">
      <path d="
M25.8362 100.46
L555.573 100.46" style="fill:none;stroke:#000000;stroke-dasharray:1.000000,3.000000;stroke-dashoffset:0.0;stroke-linecap:butt;stroke-width:0.5;"/>
     </g>
     <g id="line2d_42">
      <defs>
       <path d="
M0 0
L4 0" id="m1d946a4650"/>
      </defs>
      <g>
       <use style="stroke:#000000;stroke-linecap:butt;stroke-width:0.5;" x="36.0234375" xlink:href="#m1d946a4650" y="100.460391102"/>
      </g>
     </g>
     <g id="text_11">
      <!-- 0.08 -->
      <g transform="translate(11.1015625 104.100234852)scale(0.1 -0.1)">
       <use xlink:href="#BitstreamVeraSans-Roman-30"/>
       <use x="63.623046875" xlink:href="#BitstreamVeraSans-Roman-2e"/>
       <use x="95.41015625" xlink:href="#BitstreamVeraSans-Roman-30"/>
       <use x="159.033203125" xlink:href="#BitstreamVeraSans-Roman-38"/>
      </g>
     </g>
    </g>
    <g id="ytick_8">
     <g id="line2d_43">
      <path d="
M25.8362 50.8238
L555.573 50.8238" style="fill:none;stroke:#000000;stroke-dasharray:1.000000,3.000000;stroke-dashoffset:0.0;stroke-linecap:butt;stroke-width:0.5;"/>
     </g>
     <g id="line2d_44">
      <defs>
       <path d="
M0 0
L4 0" id="m1d946a4650"/>
      </defs>
      <g>
       <use style="stroke:#000000;stroke-linecap:butt;stroke-width:0.5;" x="36.0234375" xlink:href="#m1d946a4650" y="50.8237749967"/>
      </g>
     </g>
     <g id="text_12">
      <!-- 0.1 -->
      <g transform="translate(17.703125 54.4636187467)scale(0.1 -0.1)">
       <use xlink:href="#BitstreamVeraSans-Roman-30"/>
       <use x="63.623046875" xlink:href="#BitstreamVeraSans-Roman-2e"/>
       <use x="95.41015625" xlink:href="#BitstreamVeraSans-Roman-31"/>
      </g>
     </g>
    </g>
    <g id="ytick_9">
     <g id="line2d_45">
      <defs>
       <path d="
M0 0
L2 0" id="mbf97d3bfcb"/>
      </defs>
      <g>
       <use style="stroke:#000000;stroke-linecap:butt;stroke-width:0.5;" x="36.0234375" xlink:href="#mbf97d3bfcb" y="410.689241757"/>
      </g>
     </g>
    </g>
    <g id="ytick_10">
     <g id="line2d_46">
      <defs>
       <path d="
M0 0
L2 0" id="mbf97d3bfcb"/>
      </defs>
      <g>
       <use style="stroke:#000000;stroke-linecap:butt;stroke-width:0.5;" x="36.0234375" xlink:href="#mbf97d3bfcb" y="385.870933705"/>
      </g>
     </g>
    </g>
    <g id="ytick_11">
     <g id="line2d_47">
      <defs>
       <path d="
M0 0
L2 0" id="mbf97d3bfcb"/>
      </defs>
      <g>
       <use style="stroke:#000000;stroke-linecap:butt;stroke-width:0.5;" x="36.0234375" xlink:href="#mbf97d3bfcb" y="373.461779678"/>
      </g>
     </g>
    </g>
    <g id="ytick_12">
     <g id="line2d_48">
      <defs>
       <path d="
M0 0
L2 0" id="mbf97d3bfcb"/>
      </defs>
      <g>
       <use style="stroke:#000000;stroke-linecap:butt;stroke-width:0.5;" x="36.0234375" xlink:href="#mbf97d3bfcb" y="361.052625652"/>
      </g>
     </g>
    </g>
    <g id="ytick_13">
     <g id="line2d_49">
      <defs>
       <path d="
M0 0
L2 0" id="mbf97d3bfcb"/>
      </defs>
      <g>
       <use style="stroke:#000000;stroke-linecap:butt;stroke-width:0.5;" x="36.0234375" xlink:href="#mbf97d3bfcb" y="336.2343176"/>
      </g>
     </g>
    </g>
    <g id="ytick_14">
     <g id="line2d_50">
      <defs>
       <path d="
M0 0
L2 0" id="mbf97d3bfcb"/>
      </defs>
      <g>
       <use style="stroke:#000000;stroke-linecap:butt;stroke-width:0.5;" x="36.0234375" xlink:href="#mbf97d3bfcb" y="323.825163574"/>
      </g>
     </g>
    </g>
    <g id="ytick_15">
     <g id="line2d_51">
      <defs>
       <path d="
M0 0
L2 0" id="mbf97d3bfcb"/>
      </defs>
      <g>
       <use style="stroke:#000000;stroke-linecap:butt;stroke-width:0.5;" x="36.0234375" xlink:href="#mbf97d3bfcb" y="311.416009547"/>
      </g>
     </g>
    </g>
    <g id="ytick_16">
     <g id="line2d_52">
      <defs>
       <path d="
M0 0
L2 0" id="mbf97d3bfcb"/>
      </defs>
      <g>
       <use style="stroke:#000000;stroke-linecap:butt;stroke-width:0.5;" x="36.0234375" xlink:href="#mbf97d3bfcb" y="286.597701495"/>
      </g>
     </g>
    </g>
    <g id="ytick_17">
     <g id="line2d_53">
      <defs>
       <path d="
M0 0
L2 0" id="mbf97d3bfcb"/>
      </defs>
      <g>
       <use style="stroke:#000000;stroke-linecap:butt;stroke-width:0.5;" x="36.0234375" xlink:href="#mbf97d3bfcb" y="274.188547469"/>
      </g>
     </g>
    </g>
    <g id="ytick_18">
     <g id="line2d_54">
      <defs>
       <path d="
M0 0
L2 0" id="mbf97d3bfcb"/>
      </defs>
      <g>
       <use style="stroke:#000000;stroke-linecap:butt;stroke-width:0.5;" x="36.0234375" xlink:href="#mbf97d3bfcb" y="261.779393442"/>
      </g>
     </g>
    </g>
    <g id="ytick_19">
     <g id="line2d_55">
      <defs>
       <path d="
M0 0
L2 0" id="mbf97d3bfcb"/>
      </defs>
      <g>
       <use style="stroke:#000000;stroke-linecap:butt;stroke-width:0.5;" x="36.0234375" xlink:href="#mbf97d3bfcb" y="236.96108539"/>
      </g>
     </g>
    </g>
    <g id="ytick_20">
     <g id="line2d_56">
      <defs>
       <path d="
M0 0
L2 0" id="mbf97d3bfcb"/>
      </defs>
      <g>
       <use style="stroke:#000000;stroke-linecap:butt;stroke-width:0.5;" x="36.0234375" xlink:href="#mbf97d3bfcb" y="224.551931364"/>
      </g>
     </g>
    </g>
    <g id="ytick_21">
     <g id="line2d_57">
      <defs>
       <path d="
M0 0
L2 0" id="mbf97d3bfcb"/>
      </defs>
      <g>
       <use style="stroke:#000000;stroke-linecap:butt;stroke-width:0.5;" x="36.0234375" xlink:href="#mbf97d3bfcb" y="212.142777338"/>
      </g>
     </g>
    </g>
    <g id="ytick_22">
     <g id="line2d_58">
      <defs>
       <path d="
M0 0
L2 0" id="mbf97d3bfcb"/>
      </defs>
      <g>
       <use style="stroke:#000000;stroke-linecap:butt;stroke-width:0.5;" x="36.0234375" xlink:href="#mbf97d3bfcb" y="187.324469285"/>
      </g>
     </g>
    </g>
    <g id="ytick_23">
     <g id="line2d_59">
      <defs>
       <path d="
M0 0
L2 0" id="mbf97d3bfcb"/>
      </defs>
      <g>
       <use style="stroke:#000000;stroke-linecap:butt;stroke-width:0.5;" x="36.0234375" xlink:href="#mbf97d3bfcb" y="174.915315259"/>
      </g>
     </g>
    </g>
    <g id="ytick_24">
     <g id="line2d_60">
      <defs>
       <path d="
M0 0
L2 0" id="mbf97d3bfcb"/>
      </defs>
      <g>
       <use style="stroke:#000000;stroke-linecap:butt;stroke-width:0.5;" x="36.0234375" xlink:href="#mbf97d3bfcb" y="162.506161233"/>
      </g>
     </g>
    </g>
    <g id="ytick_25">
     <g id="line2d_61">
      <defs>
       <path d="
M0 0
L2 0" id="mbf97d3bfcb"/>
      </defs>
      <g>
       <use style="stroke:#000000;stroke-linecap:butt;stroke-width:0.5;" x="36.0234375" xlink:href="#mbf97d3bfcb" y="137.68785318"/>
      </g>
     </g>
    </g>
    <g id="ytick_26">
     <g id="line2d_62">
      <defs>
       <path d="
M0 0
L2 0" id="mbf97d3bfcb"/>
      </defs>
      <g>
       <use style="stroke:#000000;stroke-linecap:butt;stroke-width:0.5;" x="36.0234375" xlink:href="#mbf97d3bfcb" y="125.278699154"/>
      </g>
     </g>
    </g>
    <g id="ytick_27">
     <g id="line2d_63">
      <defs>
       <path d="
M0 0
L2 0" id="mbf97d3bfcb"/>
      </defs>
      <g>
       <use style="stroke:#000000;stroke-linecap:butt;stroke-width:0.5;" x="36.0234375" xlink:href="#mbf97d3bfcb" y="112.869545128"/>
      </g>
     </g>
    </g>
    <g id="ytick_28">
     <g id="line2d_64">
      <defs>
       <path d="
M0 0
L2 0" id="mbf97d3bfcb"/>
      </defs>
      <g>
       <use style="stroke:#000000;stroke-linecap:butt;stroke-width:0.5;" x="36.0234375" xlink:href="#mbf97d3bfcb" y="88.0512370754"/>
      </g>
     </g>
    </g>
    <g id="ytick_29">
     <g id="line2d_65">
      <defs>
       <path d="
M0 0
L2 0" id="mbf97d3bfcb"/>
      </defs>
      <g>
       <use style="stroke:#000000;stroke-linecap:butt;stroke-width:0.5;" x="36.0234375" xlink:href="#mbf97d3bfcb" y="75.6420830492"/>
      </g>
     </g>
    </g>
    <g id="ytick_30">
     <g id="line2d_66">
      <defs>
       <path d="
M0 0
L2 0" id="mbf97d3bfcb"/>
      </defs>
      <g>
       <use style="stroke:#000000;stroke-linecap:butt;stroke-width:0.5;" x="36.0234375" xlink:href="#mbf97d3bfcb" y="63.2329290229"/>
      </g>
     </g>
    </g>
    <g id="ytick_31">
     <g id="line2d_67">
      <defs>
       <path d="
M0 0
L2 0" id="mbf97d3bfcb"/>
      </defs>
      <g>
       <use style="stroke:#000000;stroke-linecap:butt;stroke-width:0.5;" x="36.0234375" xlink:href="#mbf97d3bfcb" y="38.4146209705"/>
      </g>
     </g>
    </g>
    <g id="ytick_32">
     <g id="line2d_68">
      <defs>
       <path d="
M0 0
L2 0" id="mbf97d3bfcb"/>
      </defs>
      <g>
       <use style="stroke:#000000;stroke-linecap:butt;stroke-width:0.5;" x="36.0234375" xlink:href="#mbf97d3bfcb" y="26.0054669443"/>
      </g>
     </g>
    </g>
   </g>
   <g id="patch_3">
    <path d="
M25.8362 299.007
L555.573 299.007" style="fill:none;stroke:#000000;stroke-width:0.8;"/>
   </g>
   <g id="patch_4">
    <path d="
M36.0234 413.28
L36.0234 7.2" style="fill:none;stroke:#000000;stroke-width:0.8;"/>
   </g>
  </g>
 </g>
 <defs>
  <clipPath id="p7800641b54">
   <rect height="406.08" width="529.736698828" x="25.8361943106" y="7.2"/>
  </clipPath>
 </defs>
</svg>
