<?xml version="1.0" encoding="utf-8" standalone="no"?>
<!DOCTYPE svg PUBLIC "-//W3C//DTD SVG 1.1//EN"
  "http://www.w3.org/Graphics/SVG/1.1/DTD/svg11.dtd">
<!-- Created with matplotlib (http://matplotlib.sourceforge.net/) -->
<svg height="420pt" version="1.1" viewBox="0 0 562 420" width="562pt" xmlns="http://www.w3.org/2000/svg" xmlns:xlink="http://www.w3.org/1999/xlink">
 <defs>
  <style type="text/css">
*{stroke-linecap:square;stroke-linejoin:round;}
  </style>
 </defs>
 <g id="figure_1">
  <g id="patch_1">
   <path d="
M2.22045e-16 420.48
L562.632 420.48
L562.632 0
L2.22045e-16 0
z
" style="fill:#ffffff;"/>
  </g>
  <g id="axes_1">
   <g id="patch_2">
    <path d="
M15.4995 413.28
L555.432 413.28
L555.432 7.2
L15.4995 7.2
z
" style="fill:#ffffff;"/>
   </g>
   <g id="line2d_1">
    <path clip-path="url(#pd9e1e77c85)" d="
M25.8828 383.649
L25.9382 383.649
L25.9382 405.471
L26.0016 405.471
L26.0016 405.471
L26.0681 297.714
L26.1366 297.714
L26.2064 276.945
L26.2776 276.945
L26.3493 296.161
L26.4223 296.161
L26.4957 294.527
L26.5699 294.527
L26.6446 289.849
L26.7201 289.849
L26.7958 284.703
L26.8719 284.703
L26.9483 282.326
L27.0254 282.326
L27.1029 277.731
L27.1806 277.731
L27.2583 270.472
L27.3367 270.472
L27.4152 263.676
L27.4941 263.676
L27.5727 259.48
L27.652 259.48
L27.7324 253.568
L27.8117 253.568
L27.8916 245.748
L27.972 245.748
L28.0524 236.883
L28.1332 236.883
L28.2134 226.954
L28.2948 226.954
L28.376 218.026
L28.4568 218.026
L28.5384 208.866
L28.6199 208.866
L28.7017 200.573
L28.784 200.573
L28.8663 193.31
L28.9487 193.31
L29.0311 187.487
L29.1138 187.487
L29.1963 181.969
L29.2793 181.969
L29.3623 177.417
L29.445 177.417
L29.5278 172.682
L29.6111 172.682
L29.6946 168.363
L29.7783 168.363
L29.8619 165.505
L29.9459 165.505
L30.0294 162.185
L30.1141 162.185
L30.1978 158.913
L30.2824 158.913
L30.366 156.098
L30.45 156.098
L30.5348 154.234
L30.6199 154.234
L30.7041 151.915
L30.789 151.915
L30.8739 149.511
L30.9589 149.511
L31.0441 147.324
L31.1296 147.324
L31.2147 145.936
L31.3 145.936
L31.3852 144.028
L31.4704 144.028
L31.5559 141.805
L31.6414 141.805
L31.7269 139.355
L31.8132 139.355
L31.8987 136.358
L31.9845 136.358
L32.0705 133.683
L32.1566 133.683
L32.2429 131.826
L32.3285 131.826
L32.4153 130.184
L32.5011 130.184
L32.5876 128.272
L32.6748 128.272
L32.7614 126.215
L32.8481 126.215
L32.9354 124.027
L33.0217 124.027
L33.1079 122.36
L33.1954 122.36
L33.2824 121.231
L33.3688 121.231
L33.456 120.223
L33.5433 120.223
L33.6306 118.926
L33.7181 118.926
L33.8054 117.329
L33.8933 117.329
L33.9801 115.59
L34.0677 115.59
L34.1549 113.697
L34.2428 113.697
L34.3303 111.941
L34.4183 111.941
L34.5061 110.282
L34.5938 110.282
L34.6815 108.871
L34.7689 108.871
L34.8576 107.589
L34.9449 107.589
L35.0325 106.17
L35.1208 106.17
L35.2088 104.885
L35.2976 104.885
L35.3856 103.849
L35.4742 103.849
L35.5625 102.681
L35.651 102.681
L35.7395 101.414
L35.8281 101.414
L35.9167 100.031
L36.0053 100.031
L36.0944 98.6573
L36.1827 98.6573
L36.2712 97.179
L36.3597 97.179
L36.4492 95.9799
L36.5381 95.9799
L36.6269 95.0531
L36.7159 95.0531
L36.8048 94.502
L36.9833 94.4183
L37.0724 94.1955
L37.1613 94.1955
L37.2503 93.9217
L37.339 93.9217
L37.4295 93.6218
L37.5191 93.6218
L37.6083 93.365
L37.6975 93.365
L37.7869 93.191
L37.966 93.1221
L38.0556 92.9593
L38.325 92.8831
L38.4148 92.7249
L38.5937 92.6762
L38.6837 92.4837
L38.8634 92.384
L38.9535 92.0977
L39.0442 92.0977
L39.1345 91.6959
L39.2246 91.6959
L39.314 91.3119
L39.4041 91.3119
L39.4945 90.8484
L39.585 90.8484
L39.6743 90.4591
L39.7649 90.4591
L39.8552 90.0453
L39.9453 90.0453
L40.0357 89.568
L40.1262 89.568
L40.2161 88.9481
L40.307 88.9481
L40.3976 88.3326
L40.4882 88.3326
L40.5783 87.6974
L40.6694 87.6974
L40.7595 87.0424
L40.8509 87.0424
L40.9416 86.4513
L41.0327 86.4513
L41.1231 85.8054
L41.2143 85.8054
L41.3049 85.2084
L41.3958 85.2084
L41.4859 84.6409
L41.5762 84.6409
L41.6669 84.0477
L41.7584 84.0477
L41.8488 83.4855
L41.9396 83.4855
L42.0319 82.9993
L42.123 82.9993
L42.2142 82.5776
L42.3056 82.5776
L42.3969 82.2663
L42.4879 82.2663
L42.5788 82.0262
L42.6705 82.0262
L42.7615 81.7739
L42.8527 81.7739
L42.9443 81.5818
L43.0356 81.5818
L43.127 81.3037
L43.2177 81.3037
L43.3094 81.0088
L43.4012 81.0088
L43.4922 80.7063
L43.5848 80.7063
L43.6771 80.3407
L43.7696 80.3407
L43.8608 79.8987
L43.953 79.8987
L44.0443 79.5363
L44.1365 79.5363
L44.2281 79.2593
L44.32 79.2593
L44.4117 78.9458
L44.5035 78.9458
L44.5953 78.5878
L44.6877 78.5878
L44.779 78.2785
L44.9636 78.177
L45.0562 78.0887
L45.3317 77.9843
L45.4234 77.844
L45.6082 77.7447
L45.6998 77.5843
L45.8832 77.491
L45.9762 77.2694
L46.0675 77.2694
L46.16 77.0688
L46.3436 76.9639
L46.4358 76.7873
L46.5278 76.7873
L46.6207 76.523
L46.7132 76.523
L46.8055 76.1928
L46.8978 76.1928
L46.991 75.8214
L47.0824 75.8214
L47.1757 75.5604
L47.2679 75.5604
L47.3609 75.2999
L47.5469 75.1937
L47.6391 75.0549
L48.0103 74.9653
L48.103 74.7318
L48.1966 74.7318
L48.2895 74.423
L48.3824 74.423
L48.4747 74.0393
L48.5681 74.0393
L48.6611 73.6474
L48.7537 73.6474
L48.8472 73.269
L48.9402 73.269
L49.0328 72.9439
L49.1251 72.9439
L49.2187 72.6413
L49.3113 72.6413
L49.4042 72.4167
L49.5893 72.3388
L49.6829 72.1622
L49.869 72.0527
L49.9624 71.8561
L50.1488 71.783
L50.2416 71.6093
L50.3357 71.6093
L50.4284 71.3889
L50.5221 71.3889
L50.6153 71.148
L50.7092 71.148
L50.8026 70.8988
L50.8963 70.8988
L50.9899 70.6441
L51.0833 70.6441
L51.1773 70.3544
L51.2708 70.3544
L51.3646 70.0651
L51.4577 70.0651
L51.5509 69.7683
L51.6436 69.7683
L51.7374 69.4497
L51.8306 69.4497
L51.9244 69.1708
L52.1119 69.0742
L52.2053 68.8792
L52.3933 68.7783
L52.4869 68.4969
L52.5801 68.4969
L52.6737 68.1833
L52.7679 68.1833
L52.8611 67.8394
L52.9551 67.8394
L53.0494 67.5019
L53.1432 67.5019
L53.237 67.2421
L53.3308 67.2421
L53.4248 66.9686
L53.5183 66.9686
L53.6125 66.6018
L53.7073 66.6018
L53.801 66.2149
L53.8951 66.2149
L53.9889 65.8442
L54.0837 65.8442
L54.1784 65.4627
L54.2715 65.4627
L54.3663 65.0871
L54.4605 65.0871
L54.5543 64.7245
L54.6486 64.7245
L54.7431 64.3705
L54.8363 64.3705
L54.931 64.0426
L55.0245 64.0426
L55.1184 63.6851
L55.2135 63.6851
L55.3074 63.3096
L55.401 63.3096
L55.4956 62.9331
L55.5897 62.9331
L55.6832 62.5373
L55.7779 62.5373
L55.8729 62.1558
L55.9673 62.1558
L56.0619 61.7699
L56.1566 61.7699
L56.2509 61.3996
L56.345 61.3996
L56.4387 61.0875
L56.5335 61.0875
L56.6284 60.8099
L56.7238 60.8099
L56.8181 60.5732
L57.0068 60.4711
L57.1018 60.2721
L57.2902 60.1741
L57.3849 59.9746
L57.5733 59.9029
L57.6688 59.7592
L57.954 59.6512
L58.0485 59.5679
L58.3327 59.4882
L58.428 59.423
L60.0421 59.527
L60.1367 59.5853
L60.9905 59.679
L61.086 59.7582
L62.23 59.6686
L62.3253 59.6035
L62.7072 59.511
L62.8025 59.4654
L63.1845 59.3672
L63.2803 59.3303
L64.3307 59.4027
L64.4269 59.5291
L64.7142 59.6256
L64.8101 59.7111
L65.4793 59.8166
L65.5755 59.8277
L68.2642 59.9087
L68.3609 60.0162
L68.746 60.1269
L68.8421 60.1564
L72.6077 60.2599
L72.7035 60.2834
L73.6708 60.3817
L73.7675 60.4139
L74.2527 60.5184
L74.3496 60.5613
L74.8341 60.6671
L74.9311 60.681
L76.3858 60.7856
L76.483 60.8069
L77.7468 60.9132
L77.8439 60.9351
L79.6929 60.8293
L79.7907 60.8129
L81.0582 60.9069
L81.1554 60.9749
L82.5205 60.8742
L82.618 60.8053
L83.008 60.7152
L83.1057 60.6585
L83.4005 60.5804
L83.498 60.4889
L83.7923 60.4091
L83.8904 60.3209
L84.1833 60.2344
L84.2815 60.1609
L84.5751 60.0723
L84.6722 59.9817
L84.9676 59.8806
L85.0657 59.7765
L85.3605 59.6695
L85.4584 59.5418
L85.7521 59.4353
L85.8507 59.3195
L86.047 59.2582
L86.1438 59.1225
L86.3395 59.0588
L86.4376 58.9318
L86.6339 58.8772
L86.7323 58.7646
L86.9289 58.7103
L87.0276 58.5856
L87.2232 58.5209
L87.3212 58.3779
L87.5172 58.3013
L87.6162 58.1599
L87.8138 58.0776
L87.9119 57.9148
L88.1085 57.8265
L88.2058 57.671
L88.4025 57.597
L88.5013 57.4582
L88.6984 57.3838
L88.7961 57.2278
L88.9931 57.1539
L89.0912 57.0063
L89.2874 56.9343
L89.3862 56.8108
L89.5839 56.748
L89.6812 56.6205
L89.8783 56.5453
L89.976 56.4037
L90.1726 56.3293
L90.2704 56.1833
L90.4669 56.1112
L90.5661 55.9667
L90.7625 55.8906
L90.8613 55.7511
L91.0576 55.689
L91.1565 55.5706
L91.3527 55.5136
L91.4509 55.395
L91.6476 55.3344
L91.7464 55.2227
L92.0424 55.1124
L92.141 54.9994
L92.3375 54.9417
L92.436 54.8232
L92.6334 54.7575
L92.7314 54.6307
L92.9286 54.5576
L93.0267 54.416
L93.2236 54.3489
L93.3224 54.2208
L93.5209 54.1544
L93.6198 54.0237
L93.8167 53.9573
L93.9149 53.8182
L94.1118 53.7491
L94.211 53.5985
L94.4083 53.5244
L94.5074 53.3821
L94.7048 53.3181
L94.8039 53.202
L95.1007 53.0982
L95.1991 53.001
L95.4964 52.9004
L95.595 52.7645
L95.7928 52.6918
L95.8912 52.535
L96.0881 52.4582
L96.1876 52.2922
L96.3864 52.2028
L96.4851 52.0276
L96.6834 51.9383
L96.7812 51.7477
L96.9788 51.6422
L97.0779 51.4396
L97.275 51.3422
L97.3742 51.1467
L97.5734 51.0481
L97.6734 50.8589
L97.8709 50.765
L97.9701 50.5743
L98.1679 50.4824
L98.2665 50.2951
L98.4642 50.2053
L98.5627 50.0203
L98.7614 49.9306
L98.861 49.7479
L99.0598 49.6558
L99.1594 49.4621
L99.3576 49.3617
L99.4563 49.1584
L99.6535 49.0537
L99.7525 48.8333
L99.9505 48.7232
L100.05 48.4959
L100.148 48.4959
L100.247 48.2712
L100.445 48.1613
L100.544 47.9589
L100.742 47.868
L100.841 47.6861
L101.039 47.6044
L101.139 47.4528
L101.338 47.3836
L101.438 47.2432
L101.636 47.1622
L101.734 46.9787
L101.933 46.8864
L102.033 46.7054
L102.23 46.6153
L102.329 46.4207
L102.528 46.3201
L102.628 46.1338
L102.826 46.0449
L102.926 45.855
L103.124 45.7672
L103.224 45.594
L103.423 45.4989
L103.523 45.3105
L103.721 45.2186
L103.821 45.034
L104.02 44.9443
L104.119 44.7699
L104.319 44.6813
L104.418 44.5087
L104.617 44.4259
L104.717 44.2672
L104.917 44.182
L105.017 44.0138
L105.215 43.9355
L105.315 43.7955
L105.514 43.7323
L105.613 43.5956
L105.811 43.5261
L105.912 43.3895
L106.111 43.3099
L106.21 43.1462
L106.409 43.0595
L106.509 42.9033
L106.708 42.8348
L106.807 42.697
L107.006 42.6201
L107.106 42.4727
L107.305 42.4013
L107.404 42.2588
L107.604 42.1936
L107.703 42.0739
L108.003 41.9659
L108.103 41.8681
L108.403 41.7638
L108.502 41.6466
L108.702 41.5833
L108.802 41.4627
L109 41.4028
L109.1 41.2863
L109.398 41.1848
L109.498 41.0866
L109.798 40.987
L109.899 40.8926
L110.198 40.8051
L110.298 40.7222
L110.598 40.6441
L110.697 40.5685
L110.995 40.4846
L111.096 40.3947
L111.395 40.3195
L111.496 40.2238
L111.796 40.1168
L111.897 40.0144
L112.196 39.9232
L112.296 39.8235
L112.495 39.767
L112.596 39.6504
L112.795 39.5893
L112.895 39.4776
L113.195 39.3781
L113.295 39.2867
L113.595 39.1935
L113.694 39.1087
L113.994 39.0341
L114.094 38.9521
L114.494 38.8431
L114.594 38.7695
L114.994 38.6635
L115.093 38.5856
L115.394 38.5085
L115.494 38.4449
L115.994 38.3358
L116.094 38.2751
L116.496 38.1904
L116.597 38.1258
L116.996 38.0311
L117.096 37.9691
L117.498 37.8823
L117.598 37.8316
L118.298 37.7335
L118.398 37.7058
L119.401 37.5971
L119.502 37.568
L120.307 37.464
L120.408 37.44
L121.514 37.3358
L121.614 37.3011
L122.317 37.1905
L122.417 37.1483
L122.919 37.0405
L123.02 36.9822
L123.422 36.8911
L123.522 36.8294
L123.926 36.7298
L124.026 36.6564
L124.329 36.5817
L124.429 36.4921
L124.73 36.3949
L124.832 36.2937
L125.134 36.1988
L125.235 36.102
L125.539 36.0005
L125.641 35.9108
L125.941 35.8275
L126.041 35.7475
L126.444 35.6453
L126.544 35.5687
L126.846 35.4877
L126.947 35.4005
L127.248 35.3168
L127.35 35.2383
L127.753 35.13
L127.855 35.0574
L128.158 34.9748
L128.259 34.8987
L128.563 34.8233
L128.664 34.7431
L128.966 34.6491
L129.067 34.5553
L129.37 34.4688
L129.471 34.3953
L129.873 34.2908
L129.975 34.2303
L130.48 34.1221
L130.581 34.0648
L130.984 33.9587
L131.086 33.8877
L131.49 33.7882
L131.591 33.7135
L131.995 33.6087
L132.095 33.5471
L132.5 33.458
L132.601 33.4041
L133.107 33.2998
L133.208 33.259
L134.523 33.1544
L134.623 33.141
L135.736 33.0316
L135.836 32.9922
L136.647 32.8887
L136.748 32.8664
L137.862 32.7674
L137.964 32.7306
L138.573 32.6323
L138.674 32.5974
L139.891 32.4955
L139.992 32.4774
L140.805 32.3816
L140.907 32.3476
L141.616 32.2481
L141.717 32.2222
L143.138 32.1126
L143.24 32.0954
L144.968 31.9871
L145.07 31.9793
L147.308 31.8781
L147.41 31.85
L148.426 31.7521
L148.527 31.7214
L149.341 31.6189
L149.442 31.5868
L150.155 31.4804
L150.256 31.4316
L150.764 31.3382
L150.866 31.2864
L151.376 31.1869
L151.478 31.1438
L151.99 31.0423
L152.092 30.9939
L152.603 30.8982
L152.704 30.8611
L153.517 30.7558
L153.62 30.7241
L154.539 30.6139
L154.641 30.5995
L156.375 30.4897
L156.477 30.4795
L157.806 30.3768
L157.908 30.3613
L160.771 30.4667
L160.874 30.4977
L161.997 30.6034
L162.099 30.6245
L164.866 30.7326
L164.968 30.7535
L166.199 30.8552
L166.302 30.8762
L167.329 30.9782
L167.43 31.0049
L168.558 31.1104
L168.66 31.149
L169.276 31.246
L169.378 31.2781
L170.198 31.3852
L170.301 31.4015
L171.636 31.5106
L171.739 31.519
L176.78 31.6283
L176.882 31.6368
L182.75 31.5384
L182.854 31.5059
L183.681 31.3982
L183.784 31.3681
L184.813 31.2606
L184.917 31.2442
L188.941 31.1366
L189.044 31.1301
L191.319 31.025
L191.423 31.0124
L193.079 30.9097
L193.183 30.8906
L194.216 30.7861
L194.321 30.7659
L195.665 30.6603
L195.768 30.6384
L196.805 30.5367
L196.908 30.5139
L198.256 30.4051
L198.36 30.3935
L200.639 30.2829
L200.743 30.2682
L201.987 30.1669
L202.091 30.1449
L203.23 30.0399
L203.334 30.023
L204.785 29.921
L204.89 29.9007
L206.344 29.7944
L206.448 29.7746
L208.318 29.6653
L208.422 29.6504
L222.576 29.542
L222.68 29.5345
L228.106 29.428
L228.211 29.4202
L229.883 29.3163
L229.988 29.2981
L231.451 29.1929
L231.557 29.1802
L232.916 29.0796
L233.021 29.0559
L234.065 28.9555
L234.171 28.9304
L235.217 28.8259
L235.32 28.8082
L236.68 28.7048
L236.785 28.6885
L241.288 28.5792
L241.394 28.5763
L245.902 28.4652
L246.007 28.4429
L247.053 28.3318
L247.158 28.3107
L248.313 28.2043
L248.417 28.18
L249.257 28.0801
L249.363 28.0516
L250.31 27.9428
L250.414 27.9141
L251.36 27.808
L251.464 27.7835
L252.514 27.6762
L252.62 27.6552
L253.461 27.5543
L253.566 27.5265
L254.512 27.4265
L254.616 27.4036
L255.664 27.2954
L255.769 27.2687
L256.715 27.1617
L256.821 27.1387
L258.293 27.0322
L258.398 27.0182
L259.767 26.9089
L259.872 26.8895
L260.818 26.7915
L260.924 26.7638
L261.871 26.6603
L261.976 26.6392
L263.026 26.5302
L263.131 26.5127
L265.346 26.4017
L265.451 26.3944
L267.451 26.2866
L267.557 26.271
L269.347 26.1615
L269.453 26.1439
L271.247 26.0343
L271.352 26.0292
L276.732 25.9206
L276.837 25.91
L278.526 25.801
L278.632 25.786
L280.534 25.681
L280.64 25.665
L281.803 25.5628
L281.909 25.5428
L283.282 25.436
L283.386 25.4235
L285.079 25.3157
L285.184 25.3064
L287.093 25.1996
L287.198 25.1905
L290.057 25.0795
L290.163 25.067
L292.283 24.9602
L292.389 24.9498
L294.614 24.8405
L294.719 24.8308
L298.004 24.7236
L298.111 24.7081
L299.488 24.6057
L299.595 24.5849
L300.866 24.4812
L300.971 24.4601
L302.034 24.3559
L302.139 24.3321
L303.094 24.2248
L303.2 24.195
L304.048 24.0905
L304.154 24.0602
L304.896 23.9659
L305.003 23.9305
L305.746 23.8222
L305.852 23.7837
L306.489 23.6892
L306.594 23.6552
L307.339 23.5567
L307.445 23.5236
L308.297 23.4174
L308.403 23.386
L309.147 23.2825
L309.252 23.2514
L310.101 23.1487
L310.207 23.123
L311.269 23.0128
L311.376 22.9865
L312.436 22.8778
L312.542 22.8531
L313.603 22.7503
L313.71 22.7267
L314.88 22.6182
L314.987 22.5968
L316.156 22.4919
L316.263 22.4698
L317.328 22.3601
L317.435 22.335
L318.39 22.2246
L318.497 22.1935
L319.455 22.086
L319.562 22.0613
L320.52 21.9526
L320.626 21.9254
L321.583 21.816
L321.69 21.7899
L322.756 21.6858
L322.862 21.6638
L323.926 21.5609
L324.033 21.5374
L325.204 21.4291
L325.31 21.4078
L326.269 21.3016
L326.376 21.27
L327.228 21.1613
L327.334 21.1308
L328.187 21.0313
L328.293 21.0017
L329.144 20.8931
L329.252 20.8622
L330.105 20.7608
L330.213 20.732
L331.171 20.6284
L331.279 20.5998
L332.237 20.498
L332.343 20.4765
L333.513 20.3753
L333.621 20.3549
L334.795 20.2546
L334.901 20.2309
L335.857 20.1217
L335.964 20.0962
L336.926 19.9852
L337.034 19.9551
L337.994 19.8526
L338.101 19.8281
L339.166 19.7267
L339.273 19.7074
L340.554 19.5985
L340.661 19.5754
L341.621 19.4726
L341.728 19.4461
L342.584 19.3458
L342.691 19.317
L343.546 19.2185
L343.653 19.189
L344.612 19.0794
L344.72 19.0527
L345.788 18.9428
L345.895 18.9213
L347.073 18.8122
L347.18 18.7892
L348.356 18.6813
L348.463 18.6588
L349.639 18.5531
L349.747 18.5309
L350.815 18.4244
L350.923 18.3996
L351.989 18.2931
L352.096 18.2717
L353.38 18.1624
L353.488 18.1437
L354.774 18.0384
L354.881 18.0169
L356.164 17.9085
L356.271 17.892
L357.877 17.7885
L357.984 17.7727
L360.018 17.6659
L360.126 17.6566
L362.911 17.5474
L363.018 17.5393
L369.124 17.4298
L369.232 17.4247
L382.221 17.3157
L382.329 17.3059
L384.903 17.1977
L385.011 17.1899
L388.99 17.0801
L389.098 17.0758
L391.785 16.9664
L391.894 16.9584
L395.122 16.8475
L395.229 16.8403
L398.783 16.7323
L398.891 16.7243
L401.903 16.6166
L402.011 16.6072
L405.248 16.4977
L405.355 16.488
L407.619 16.3802
L407.727 16.3679
L409.668 16.2595
L409.775 16.2501
L411.93 16.1437
L412.037 16.1313
L413.659 16.0236
L413.767 16.0099
L415.278 15.9055
L415.387 15.8874
L416.789 15.7774
L416.897 15.7598
L418.514 15.6523
L418.622 15.6402
L421 15.5331
L421.109 15.5253
L427.698 15.4154
L427.805 15.4098
L430.617 15.3038
L430.725 15.2916
L432.884 15.1846
L432.992 15.1758
L436.774 15.0661
L436.882 15.0598
L462.448 15.1689
L462.556 15.1767
L465.269 15.2838
L465.378 15.2932
L467.766 15.402
L467.875 15.4117
L470.806 15.5225
L470.916 15.5284
L474.503 15.6395
L474.611 15.6465
L479.391 15.7572
L479.499 15.7598
L487.443 15.8684
L487.552 15.8756
L490.6 15.9841
L490.709 15.9909
L493.866 16.1001
L493.976 16.11
L497.569 16.221
L497.678 16.2269
L501.158 16.3354
L501.266 16.3437
L503.553 16.4499
L503.662 16.463
L505.625 16.5734
L505.734 16.5872
L507.479 16.6934
L507.589 16.7079
L509.336 16.8165
L509.444 16.8294
L511.732 16.9353
L511.84 16.9456
L514.245 17.0534
L514.353 17.0631
L516.755 17.173
L516.863 17.1824
L519.919 17.2888
L520.028 17.2988
L522.539 17.4093
L522.647 17.4205
L524.499 17.5288
L524.607 17.5425
L526.464 17.6515
L526.573 17.6613
L528.868 17.7686
L528.978 17.7795
L531.164 17.8877
L531.273 17.8978
L533.678 18.0074
L533.788 18.0164
L537.066 18.1253
L537.176 18.1338
L539.799 18.2411
L539.909 18.2512
L542.314 18.357
L542.424 18.3687
L544.608 18.4787
L544.718 18.4926
L545.048 18.5065
L545.048 18.5139" style="fill:none;stroke:#ff0000;stroke-width:0.5;"/>
   </g>
   <g id="matplotlib.axis_1">
    <g id="xtick_1">
     <g id="line2d_2">
      <defs>
       <path d="
M0 0
L0 -4" id="m8ab080e46e"/>
      </defs>
      <g>
       <use style="stroke:#000000;stroke-linecap:butt;stroke-width:0.5;" x="25.8828125" xlink:href="#m8ab080e46e" y="383.648655759"/>
      </g>
     </g>
    </g>
    <g id="xtick_2">
     <g id="line2d_3">
      <defs>
       <path d="
M0 0
L0 -4" id="m8ab080e46e"/>
      </defs>
      <g>
       <use style="stroke:#000000;stroke-linecap:butt;stroke-width:0.5;" x="129.721379989" xlink:href="#m8ab080e46e" y="383.648655759"/>
      </g>
     </g>
     <g id="text_1">
      <!-- 2e8 -->
      <defs>
       <path d="
M19.1875 8.29688
L53.6094 8.29688
L53.6094 0
L7.32812 0
L7.32812 8.29688
Q12.9375 14.1094 22.625 23.8906
Q32.3281 33.6875 34.8125 36.5312
Q39.5469 41.8438 41.4219 45.5312
Q43.3125 49.2188 43.3125 52.7812
Q43.3125 58.5938 39.2344 62.25
Q35.1562 65.9219 28.6094 65.9219
Q23.9688 65.9219 18.8125 64.3125
Q13.6719 62.7031 7.8125 59.4219
L7.8125 69.3906
Q13.7656 71.7812 18.9375 73
Q24.125 74.2188 28.4219 74.2188
Q39.75 74.2188 46.4844 68.5469
Q53.2188 62.8906 53.2188 53.4219
Q53.2188 48.9219 51.5312 44.8906
Q49.8594 40.875 45.4062 35.4062
Q44.1875 33.9844 37.6406 27.2188
Q31.1094 20.4531 19.1875 8.29688" id="BitstreamVeraSans-Roman-32"/>
       <path d="
M56.2031 29.5938
L56.2031 25.2031
L14.8906 25.2031
Q15.4844 15.9219 20.4844 11.0625
Q25.4844 6.20312 34.4219 6.20312
Q39.5938 6.20312 44.4531 7.46875
Q49.3125 8.73438 54.1094 11.2812
L54.1094 2.78125
Q49.2656 0.734375 44.1875 -0.34375
Q39.1094 -1.42188 33.8906 -1.42188
Q20.7969 -1.42188 13.1562 6.1875
Q5.51562 13.8125 5.51562 26.8125
Q5.51562 40.2344 12.7656 48.1094
Q20.0156 56 32.3281 56
Q43.3594 56 49.7812 48.8906
Q56.2031 41.7969 56.2031 29.5938
M47.2188 32.2344
Q47.125 39.5938 43.0938 43.9844
Q39.0625 48.3906 32.4219 48.3906
Q24.9062 48.3906 20.3906 44.1406
Q15.875 39.8906 15.1875 32.1719
z
" id="BitstreamVeraSans-Roman-65"/>
       <path d="
M31.7812 34.625
Q24.75 34.625 20.7188 30.8594
Q16.7031 27.0938 16.7031 20.5156
Q16.7031 13.9219 20.7188 10.1562
Q24.75 6.39062 31.7812 6.39062
Q38.8125 6.39062 42.8594 10.1719
Q46.9219 13.9688 46.9219 20.5156
Q46.9219 27.0938 42.8906 30.8594
Q38.875 34.625 31.7812 34.625
M21.9219 38.8125
Q15.5781 40.375 12.0312 44.7188
Q8.5 49.0781 8.5 55.3281
Q8.5 64.0625 14.7188 69.1406
Q20.9531 74.2188 31.7812 74.2188
Q42.6719 74.2188 48.875 69.1406
Q55.0781 64.0625 55.0781 55.3281
Q55.0781 49.0781 51.5312 44.7188
Q48 40.375 41.7031 38.8125
Q48.8281 37.1562 52.7969 32.3125
Q56.7812 27.4844 56.7812 20.5156
Q56.7812 9.90625 50.3125 4.23438
Q43.8438 -1.42188 31.7812 -1.42188
Q19.7344 -1.42188 13.25 4.23438
Q6.78125 9.90625 6.78125 20.5156
Q6.78125 27.4844 10.7812 32.3125
Q14.7969 37.1562 21.9219 38.8125
M18.3125 54.3906
Q18.3125 48.7344 21.8438 45.5625
Q25.3906 42.3906 31.7812 42.3906
Q38.1406 42.3906 41.7188 45.5625
Q45.3125 48.7344 45.3125 54.3906
Q45.3125 60.0625 41.7188 63.2344
Q38.1406 66.4062 31.7812 66.4062
Q25.3906 66.4062 21.8438 63.2344
Q18.3125 60.0625 18.3125 54.3906" id="BitstreamVeraSans-Roman-38"/>
      </defs>
      <g transform="translate(120.990911239 395.070530759)scale(0.1 -0.1)">
       <use xlink:href="#BitstreamVeraSans-Roman-32"/>
       <use x="63.623046875" xlink:href="#BitstreamVeraSans-Roman-65"/>
       <use x="125.146484375" xlink:href="#BitstreamVeraSans-Roman-38"/>
      </g>
     </g>
    </g>
    <g id="xtick_3">
     <g id="line2d_4">
      <defs>
       <path d="
M0 0
L0 -4" id="m8ab080e46e"/>
      </defs>
      <g>
       <use style="stroke:#000000;stroke-linecap:butt;stroke-width:0.5;" x="233.559947478" xlink:href="#m8ab080e46e" y="383.648655759"/>
      </g>
     </g>
     <g id="text_2">
      <!-- 4e8 -->
      <defs>
       <path d="
M37.7969 64.3125
L12.8906 25.3906
L37.7969 25.3906
z

M35.2031 72.9062
L47.6094 72.9062
L47.6094 25.3906
L58.0156 25.3906
L58.0156 17.1875
L47.6094 17.1875
L47.6094 0
L37.7969 0
L37.7969 17.1875
L4.89062 17.1875
L4.89062 26.7031
z
" id="BitstreamVeraSans-Roman-34"/>
      </defs>
      <g transform="translate(224.707603728 395.070530759)scale(0.1 -0.1)">
       <use xlink:href="#BitstreamVeraSans-Roman-34"/>
       <use x="63.623046875" xlink:href="#BitstreamVeraSans-Roman-65"/>
       <use x="125.146484375" xlink:href="#BitstreamVeraSans-Roman-38"/>
      </g>
     </g>
    </g>
    <g id="xtick_4">
     <g id="line2d_5">
      <defs>
       <path d="
M0 0
L0 -4" id="m8ab080e46e"/>
      </defs>
      <g>
       <use style="stroke:#000000;stroke-linecap:butt;stroke-width:0.5;" x="337.398514967" xlink:href="#m8ab080e46e" y="383.648655759"/>
      </g>
     </g>
     <g id="text_3">
      <!-- 6e8 -->
      <defs>
       <path d="
M33.0156 40.375
Q26.375 40.375 22.4844 35.8281
Q18.6094 31.2969 18.6094 23.3906
Q18.6094 15.5312 22.4844 10.9531
Q26.375 6.39062 33.0156 6.39062
Q39.6562 6.39062 43.5312 10.9531
Q47.4062 15.5312 47.4062 23.3906
Q47.4062 31.2969 43.5312 35.8281
Q39.6562 40.375 33.0156 40.375
M52.5938 71.2969
L52.5938 62.3125
Q48.875 64.0625 45.0938 64.9844
Q41.3125 65.9219 37.5938 65.9219
Q27.8281 65.9219 22.6719 59.3281
Q17.5312 52.7344 16.7969 39.4062
Q19.6719 43.6562 24.0156 45.9219
Q28.375 48.1875 33.5938 48.1875
Q44.5781 48.1875 50.9531 41.5156
Q57.3281 34.8594 57.3281 23.3906
Q57.3281 12.1562 50.6875 5.35938
Q44.0469 -1.42188 33.0156 -1.42188
Q20.3594 -1.42188 13.6719 8.26562
Q6.98438 17.9688 6.98438 36.375
Q6.98438 53.6562 15.1875 63.9375
Q23.3906 74.2188 37.2031 74.2188
Q40.9219 74.2188 44.7031 73.4844
Q48.4844 72.75 52.5938 71.2969" id="BitstreamVeraSans-Roman-36"/>
      </defs>
      <g transform="translate(328.650858717 395.070530759)scale(0.1 -0.1)">
       <use xlink:href="#BitstreamVeraSans-Roman-36"/>
       <use x="63.623046875" xlink:href="#BitstreamVeraSans-Roman-65"/>
       <use x="125.146484375" xlink:href="#BitstreamVeraSans-Roman-38"/>
      </g>
     </g>
    </g>
    <g id="xtick_5">
     <g id="line2d_6">
      <defs>
       <path d="
M0 0
L0 -4" id="m8ab080e46e"/>
      </defs>
      <g>
       <use style="stroke:#000000;stroke-linecap:butt;stroke-width:0.5;" x="441.237082456" xlink:href="#m8ab080e46e" y="383.648655759"/>
      </g>
     </g>
     <g id="text_4">
      <!-- 8e8 -->
      <g transform="translate(432.479269956 395.070530759)scale(0.1 -0.1)">
       <use xlink:href="#BitstreamVeraSans-Roman-38"/>
       <use x="63.623046875" xlink:href="#BitstreamVeraSans-Roman-65"/>
       <use x="125.146484375" xlink:href="#BitstreamVeraSans-Roman-38"/>
      </g>
     </g>
    </g>
    <g id="xtick_6">
     <g id="line2d_7">
      <defs>
       <path d="
M0 0
L0 -4" id="m8ab080e46e"/>
      </defs>
      <g>
       <use style="stroke:#000000;stroke-linecap:butt;stroke-width:0.5;" x="545.075649945" xlink:href="#m8ab080e46e" y="383.648655759"/>
      </g>
     </g>
     <g id="text_5">
      <!-- 1e9 -->
      <defs>
       <path d="
M10.9844 1.51562
L10.9844 10.5
Q14.7031 8.73438 18.5 7.8125
Q22.3125 6.89062 25.9844 6.89062
Q35.75 6.89062 40.8906 13.4531
Q46.0469 20.0156 46.7812 33.4062
Q43.9531 29.2031 39.5938 26.9531
Q35.25 24.7031 29.9844 24.7031
Q19.0469 24.7031 12.6719 31.3125
Q6.29688 37.9375 6.29688 49.4219
Q6.29688 60.6406 12.9375 67.4219
Q19.5781 74.2188 30.6094 74.2188
Q43.2656 74.2188 49.9219 64.5156
Q56.5938 54.8281 56.5938 36.375
Q56.5938 19.1406 48.4062 8.85938
Q40.2344 -1.42188 26.4219 -1.42188
Q22.7031 -1.42188 18.8906 -0.6875
Q15.0938 0.046875 10.9844 1.51562
M30.6094 32.4219
Q37.25 32.4219 41.125 36.9531
Q45.0156 41.5 45.0156 49.4219
Q45.0156 57.2812 41.125 61.8438
Q37.25 66.4062 30.6094 66.4062
Q23.9688 66.4062 20.0938 61.8438
Q16.2188 57.2812 16.2188 49.4219
Q16.2188 41.5 20.0938 36.9531
Q23.9688 32.4219 30.6094 32.4219" id="BitstreamVeraSans-Roman-39"/>
       <path d="
M12.4062 8.29688
L28.5156 8.29688
L28.5156 63.9219
L10.9844 60.4062
L10.9844 69.3906
L28.4219 72.9062
L38.2812 72.9062
L38.2812 8.29688
L54.3906 8.29688
L54.3906 0
L12.4062 0
z
" id="BitstreamVeraSans-Roman-31"/>
      </defs>
      <g transform="translate(536.537368695 395.070530759)scale(0.1 -0.1)">
       <use xlink:href="#BitstreamVeraSans-Roman-31"/>
       <use x="63.623046875" xlink:href="#BitstreamVeraSans-Roman-65"/>
       <use x="125.146484375" xlink:href="#BitstreamVeraSans-Roman-39"/>
      </g>
     </g>
    </g>
    <g id="xtick_7">
     <g id="line2d_8">
      <defs>
       <path d="
M0 0
L0 -2" id="m4bffc88caa"/>
      </defs>
      <g>
       <use style="stroke:#000000;stroke-linecap:butt;stroke-width:0.5;" x="51.8424543722" xlink:href="#m4bffc88caa" y="383.648655759"/>
      </g>
     </g>
    </g>
    <g id="xtick_8">
     <g id="line2d_9">
      <defs>
       <path d="
M0 0
L0 -2" id="m4bffc88caa"/>
      </defs>
      <g>
       <use style="stroke:#000000;stroke-linecap:butt;stroke-width:0.5;" x="77.8020962445" xlink:href="#m4bffc88caa" y="383.648655759"/>
      </g>
     </g>
    </g>
    <g id="xtick_9">
     <g id="line2d_10">
      <defs>
       <path d="
M0 0
L0 -2" id="m4bffc88caa"/>
      </defs>
      <g>
       <use style="stroke:#000000;stroke-linecap:butt;stroke-width:0.5;" x="103.761738117" xlink:href="#m4bffc88caa" y="383.648655759"/>
      </g>
     </g>
    </g>
    <g id="xtick_10">
     <g id="line2d_11">
      <defs>
       <path d="
M0 0
L0 -2" id="m4bffc88caa"/>
      </defs>
      <g>
       <use style="stroke:#000000;stroke-linecap:butt;stroke-width:0.5;" x="155.681021861" xlink:href="#m4bffc88caa" y="383.648655759"/>
      </g>
     </g>
    </g>
    <g id="xtick_11">
     <g id="line2d_12">
      <defs>
       <path d="
M0 0
L0 -2" id="m4bffc88caa"/>
      </defs>
      <g>
       <use style="stroke:#000000;stroke-linecap:butt;stroke-width:0.5;" x="181.640663733" xlink:href="#m4bffc88caa" y="383.648655759"/>
      </g>
     </g>
    </g>
    <g id="xtick_12">
     <g id="line2d_13">
      <defs>
       <path d="
M0 0
L0 -2" id="m4bffc88caa"/>
      </defs>
      <g>
       <use style="stroke:#000000;stroke-linecap:butt;stroke-width:0.5;" x="207.600305606" xlink:href="#m4bffc88caa" y="383.648655759"/>
      </g>
     </g>
    </g>
    <g id="xtick_13">
     <g id="line2d_14">
      <defs>
       <path d="
M0 0
L0 -2" id="m4bffc88caa"/>
      </defs>
      <g>
       <use style="stroke:#000000;stroke-linecap:butt;stroke-width:0.5;" x="259.51958935" xlink:href="#m4bffc88caa" y="383.648655759"/>
      </g>
     </g>
    </g>
    <g id="xtick_14">
     <g id="line2d_15">
      <defs>
       <path d="
M0 0
L0 -2" id="m4bffc88caa"/>
      </defs>
      <g>
       <use style="stroke:#000000;stroke-linecap:butt;stroke-width:0.5;" x="285.479231222" xlink:href="#m4bffc88caa" y="383.648655759"/>
      </g>
     </g>
    </g>
    <g id="xtick_15">
     <g id="line2d_16">
      <defs>
       <path d="
M0 0
L0 -2" id="m4bffc88caa"/>
      </defs>
      <g>
       <use style="stroke:#000000;stroke-linecap:butt;stroke-width:0.5;" x="311.438873095" xlink:href="#m4bffc88caa" y="383.648655759"/>
      </g>
     </g>
    </g>
    <g id="xtick_16">
     <g id="line2d_17">
      <defs>
       <path d="
M0 0
L0 -2" id="m4bffc88caa"/>
      </defs>
      <g>
       <use style="stroke:#000000;stroke-linecap:butt;stroke-width:0.5;" x="363.358156839" xlink:href="#m4bffc88caa" y="383.648655759"/>
      </g>
     </g>
    </g>
    <g id="xtick_17">
     <g id="line2d_18">
      <defs>
       <path d="
M0 0
L0 -2" id="m4bffc88caa"/>
      </defs>
      <g>
       <use style="stroke:#000000;stroke-linecap:butt;stroke-width:0.5;" x="389.317798711" xlink:href="#m4bffc88caa" y="383.648655759"/>
      </g>
     </g>
    </g>
    <g id="xtick_18">
     <g id="line2d_19">
      <defs>
       <path d="
M0 0
L0 -2" id="m4bffc88caa"/>
      </defs>
      <g>
       <use style="stroke:#000000;stroke-linecap:butt;stroke-width:0.5;" x="415.277440584" xlink:href="#m4bffc88caa" y="383.648655759"/>
      </g>
     </g>
    </g>
    <g id="xtick_19">
     <g id="line2d_20">
      <defs>
       <path d="
M0 0
L0 -2" id="m4bffc88caa"/>
      </defs>
      <g>
       <use style="stroke:#000000;stroke-linecap:butt;stroke-width:0.5;" x="467.196724328" xlink:href="#m4bffc88caa" y="383.648655759"/>
      </g>
     </g>
    </g>
    <g id="xtick_20">
     <g id="line2d_21">
      <defs>
       <path d="
M0 0
L0 -2" id="m4bffc88caa"/>
      </defs>
      <g>
       <use style="stroke:#000000;stroke-linecap:butt;stroke-width:0.5;" x="493.1563662" xlink:href="#m4bffc88caa" y="383.648655759"/>
      </g>
     </g>
    </g>
    <g id="xtick_21">
     <g id="line2d_22">
      <defs>
       <path d="
M0 0
L0 -2" id="m4bffc88caa"/>
      </defs>
      <g>
       <use style="stroke:#000000;stroke-linecap:butt;stroke-width:0.5;" x="519.116008073" xlink:href="#m4bffc88caa" y="383.648655759"/>
      </g>
     </g>
    </g>
   </g>
   <g id="matplotlib.axis_2">
    <g id="ytick_1">
     <g id="line2d_23">
      <defs>
       <path d="
M0 0
L4 0" id="m5a30030f68"/>
      </defs>
      <g>
       <use style="stroke:#000000;stroke-linecap:butt;stroke-width:0.5;" x="25.8828125" xlink:href="#m5a30030f68" y="383.648655759"/>
      </g>
     </g>
    </g>
    <g id="ytick_2">
     <g id="line2d_24">
      <defs>
       <path d="
M0 0
L4 0" id="m5a30030f68"/>
      </defs>
      <g>
       <use style="stroke:#000000;stroke-linecap:butt;stroke-width:0.5;" x="25.8828125" xlink:href="#m5a30030f68" y="335.10526892"/>
      </g>
     </g>
     <g id="text_6">
      <!-- 0.1 -->
      <defs>
       <path d="
M31.7812 66.4062
Q24.1719 66.4062 20.3281 58.9062
Q16.5 51.4219 16.5 36.375
Q16.5 21.3906 20.3281 13.8906
Q24.1719 6.39062 31.7812 6.39062
Q39.4531 6.39062 43.2812 13.8906
Q47.125 21.3906 47.125 36.375
Q47.125 51.4219 43.2812 58.9062
Q39.4531 66.4062 31.7812 66.4062
M31.7812 74.2188
Q44.0469 74.2188 50.5156 64.5156
Q56.9844 54.8281 56.9844 36.375
Q56.9844 17.9688 50.5156 8.26562
Q44.0469 -1.42188 31.7812 -1.42188
Q19.5312 -1.42188 13.0625 8.26562
Q6.59375 17.9688 6.59375 36.375
Q6.59375 54.8281 13.0625 64.5156
Q19.5312 74.2188 31.7812 74.2188" id="BitstreamVeraSans-Roman-30"/>
       <path d="
M10.6875 12.4062
L21 12.4062
L21 0
L10.6875 0
z
" id="BitstreamVeraSans-Roman-2e"/>
      </defs>
      <g transform="translate(7.5625 338.74511267)scale(0.1 -0.1)">
       <use xlink:href="#BitstreamVeraSans-Roman-30"/>
       <use x="63.623046875" xlink:href="#BitstreamVeraSans-Roman-2e"/>
       <use x="95.41015625" xlink:href="#BitstreamVeraSans-Roman-31"/>
      </g>
     </g>
    </g>
    <g id="ytick_3">
     <g id="line2d_25">
      <defs>
       <path d="
M0 0
L4 0" id="m5a30030f68"/>
      </defs>
      <g>
       <use style="stroke:#000000;stroke-linecap:butt;stroke-width:0.5;" x="25.8828125" xlink:href="#m5a30030f68" y="286.561882081"/>
      </g>
     </g>
     <g id="text_7">
      <!-- 0.2 -->
      <g transform="translate(7.640625 290.201725831)scale(0.1 -0.1)">
       <use xlink:href="#BitstreamVeraSans-Roman-30"/>
       <use x="63.623046875" xlink:href="#BitstreamVeraSans-Roman-2e"/>
       <use x="95.41015625" xlink:href="#BitstreamVeraSans-Roman-32"/>
      </g>
     </g>
    </g>
    <g id="ytick_4">
     <g id="line2d_26">
      <defs>
       <path d="
M0 0
L4 0" id="m5a30030f68"/>
      </defs>
      <g>
       <use style="stroke:#000000;stroke-linecap:butt;stroke-width:0.5;" x="25.8828125" xlink:href="#m5a30030f68" y="238.018495242"/>
      </g>
     </g>
     <g id="text_8">
      <!-- 0.3 -->
      <defs>
       <path d="
M40.5781 39.3125
Q47.6562 37.7969 51.625 33
Q55.6094 28.2188 55.6094 21.1875
Q55.6094 10.4062 48.1875 4.48438
Q40.7656 -1.42188 27.0938 -1.42188
Q22.5156 -1.42188 17.6562 -0.515625
Q12.7969 0.390625 7.625 2.20312
L7.625 11.7188
Q11.7188 9.32812 16.5938 8.10938
Q21.4844 6.89062 26.8125 6.89062
Q36.0781 6.89062 40.9375 10.5469
Q45.7969 14.2031 45.7969 21.1875
Q45.7969 27.6406 41.2812 31.2656
Q36.7656 34.9062 28.7188 34.9062
L20.2188 34.9062
L20.2188 43.0156
L29.1094 43.0156
Q36.375 43.0156 40.2344 45.9219
Q44.0938 48.8281 44.0938 54.2969
Q44.0938 59.9062 40.1094 62.9062
Q36.1406 65.9219 28.7188 65.9219
Q24.6562 65.9219 20.0156 65.0312
Q15.375 64.1562 9.8125 62.3125
L9.8125 71.0938
Q15.4375 72.6562 20.3438 73.4375
Q25.25 74.2188 29.5938 74.2188
Q40.8281 74.2188 47.3594 69.1094
Q53.9062 64.0156 53.9062 55.3281
Q53.9062 49.2656 50.4375 45.0938
Q46.9688 40.9219 40.5781 39.3125" id="BitstreamVeraSans-Roman-33"/>
      </defs>
      <g transform="translate(7.440625 241.658338992)scale(0.1 -0.1)">
       <use xlink:href="#BitstreamVeraSans-Roman-30"/>
       <use x="63.623046875" xlink:href="#BitstreamVeraSans-Roman-2e"/>
       <use x="95.41015625" xlink:href="#BitstreamVeraSans-Roman-33"/>
      </g>
     </g>
    </g>
    <g id="ytick_5">
     <g id="line2d_27">
      <defs>
       <path d="
M0 0
L4 0" id="m5a30030f68"/>
      </defs>
      <g>
       <use style="stroke:#000000;stroke-linecap:butt;stroke-width:0.5;" x="25.8828125" xlink:href="#m5a30030f68" y="189.475108403"/>
      </g>
     </g>
     <g id="text_9">
      <!-- 0.4 -->
      <g transform="translate(7.2 193.114952153)scale(0.1 -0.1)">
       <use xlink:href="#BitstreamVeraSans-Roman-30"/>
       <use x="63.623046875" xlink:href="#BitstreamVeraSans-Roman-2e"/>
       <use x="95.41015625" xlink:href="#BitstreamVeraSans-Roman-34"/>
      </g>
     </g>
    </g>
    <g id="ytick_6">
     <g id="line2d_28">
      <defs>
       <path d="
M0 0
L4 0" id="m5a30030f68"/>
      </defs>
      <g>
       <use style="stroke:#000000;stroke-linecap:butt;stroke-width:0.5;" x="25.8828125" xlink:href="#m5a30030f68" y="140.931721564"/>
      </g>
     </g>
     <g id="text_10">
      <!-- 0.5 -->
      <defs>
       <path d="
M10.7969 72.9062
L49.5156 72.9062
L49.5156 64.5938
L19.8281 64.5938
L19.8281 46.7344
Q21.9688 47.4688 24.1094 47.8281
Q26.2656 48.1875 28.4219 48.1875
Q40.625 48.1875 47.75 41.5
Q54.8906 34.8125 54.8906 23.3906
Q54.8906 11.625 47.5625 5.09375
Q40.2344 -1.42188 26.9062 -1.42188
Q22.3125 -1.42188 17.5469 -0.640625
Q12.7969 0.140625 7.71875 1.70312
L7.71875 11.625
Q12.1094 9.23438 16.7969 8.0625
Q21.4844 6.89062 26.7031 6.89062
Q35.1562 6.89062 40.0781 11.3281
Q45.0156 15.7656 45.0156 23.3906
Q45.0156 31 40.0781 35.4375
Q35.1562 39.8906 26.7031 39.8906
Q22.75 39.8906 18.8125 39.0156
Q14.8906 38.1406 10.7969 36.2812
z
" id="BitstreamVeraSans-Roman-35"/>
      </defs>
      <g transform="translate(7.5125 144.571565314)scale(0.1 -0.1)">
       <use xlink:href="#BitstreamVeraSans-Roman-30"/>
       <use x="63.623046875" xlink:href="#BitstreamVeraSans-Roman-2e"/>
       <use x="95.41015625" xlink:href="#BitstreamVeraSans-Roman-35"/>
      </g>
     </g>
    </g>
    <g id="ytick_7">
     <g id="line2d_29">
      <defs>
       <path d="
M0 0
L4 0" id="m5a30030f68"/>
      </defs>
      <g>
       <use style="stroke:#000000;stroke-linecap:butt;stroke-width:0.5;" x="25.8828125" xlink:href="#m5a30030f68" y="92.3883347253"/>
      </g>
     </g>
     <g id="text_11">
      <!-- 0.6 -->
      <g transform="translate(7.26875 96.0281784753)scale(0.1 -0.1)">
       <use xlink:href="#BitstreamVeraSans-Roman-30"/>
       <use x="63.623046875" xlink:href="#BitstreamVeraSans-Roman-2e"/>
       <use x="95.41015625" xlink:href="#BitstreamVeraSans-Roman-36"/>
      </g>
     </g>
    </g>
    <g id="ytick_8">
     <g id="line2d_30">
      <defs>
       <path d="
M0 0
L4 0" id="m5a30030f68"/>
      </defs>
      <g>
       <use style="stroke:#000000;stroke-linecap:butt;stroke-width:0.5;" x="25.8828125" xlink:href="#m5a30030f68" y="43.8449478864"/>
      </g>
     </g>
     <g id="text_12">
      <!-- 0.7 -->
      <defs>
       <path d="
M8.20312 72.9062
L55.0781 72.9062
L55.0781 68.7031
L28.6094 0
L18.3125 0
L43.2188 64.5938
L8.20312 64.5938
z
" id="BitstreamVeraSans-Roman-37"/>
      </defs>
      <g transform="translate(7.49375 47.4847916364)scale(0.1 -0.1)">
       <use xlink:href="#BitstreamVeraSans-Roman-30"/>
       <use x="63.623046875" xlink:href="#BitstreamVeraSans-Roman-2e"/>
       <use x="95.41015625" xlink:href="#BitstreamVeraSans-Roman-37"/>
      </g>
     </g>
    </g>
    <g id="ytick_9">
     <g id="line2d_31">
      <defs>
       <path d="
M0 0
L2 0" id="m49a37a8170"/>
      </defs>
      <g>
       <use style="stroke:#000000;stroke-linecap:butt;stroke-width:0.5;" x="25.8828125" xlink:href="#m49a37a8170" y="412.774687862"/>
      </g>
     </g>
    </g>
    <g id="ytick_10">
     <g id="line2d_32">
      <defs>
       <path d="
M0 0
L2 0" id="m49a37a8170"/>
      </defs>
      <g>
       <use style="stroke:#000000;stroke-linecap:butt;stroke-width:0.5;" x="25.8828125" xlink:href="#m49a37a8170" y="403.066010494"/>
      </g>
     </g>
    </g>
    <g id="ytick_11">
     <g id="line2d_33">
      <defs>
       <path d="
M0 0
L2 0" id="m49a37a8170"/>
      </defs>
      <g>
       <use style="stroke:#000000;stroke-linecap:butt;stroke-width:0.5;" x="25.8828125" xlink:href="#m49a37a8170" y="393.357333126"/>
      </g>
     </g>
    </g>
    <g id="ytick_12">
     <g id="line2d_34">
      <defs>
       <path d="
M0 0
L2 0" id="m49a37a8170"/>
      </defs>
      <g>
       <use style="stroke:#000000;stroke-linecap:butt;stroke-width:0.5;" x="25.8828125" xlink:href="#m49a37a8170" y="383.648655759"/>
      </g>
     </g>
    </g>
    <g id="ytick_13">
     <g id="line2d_35">
      <defs>
       <path d="
M0 0
L2 0" id="m49a37a8170"/>
      </defs>
      <g>
       <use style="stroke:#000000;stroke-linecap:butt;stroke-width:0.5;" x="25.8828125" xlink:href="#m49a37a8170" y="373.939978391"/>
      </g>
     </g>
    </g>
    <g id="ytick_14">
     <g id="line2d_36">
      <defs>
       <path d="
M0 0
L2 0" id="m49a37a8170"/>
      </defs>
      <g>
       <use style="stroke:#000000;stroke-linecap:butt;stroke-width:0.5;" x="25.8828125" xlink:href="#m49a37a8170" y="364.231301023"/>
      </g>
     </g>
    </g>
    <g id="ytick_15">
     <g id="line2d_37">
      <defs>
       <path d="
M0 0
L2 0" id="m49a37a8170"/>
      </defs>
      <g>
       <use style="stroke:#000000;stroke-linecap:butt;stroke-width:0.5;" x="25.8828125" xlink:href="#m49a37a8170" y="354.522623655"/>
      </g>
     </g>
    </g>
    <g id="ytick_16">
     <g id="line2d_38">
      <defs>
       <path d="
M0 0
L2 0" id="m49a37a8170"/>
      </defs>
      <g>
       <use style="stroke:#000000;stroke-linecap:butt;stroke-width:0.5;" x="25.8828125" xlink:href="#m49a37a8170" y="344.813946287"/>
      </g>
     </g>
    </g>
    <g id="ytick_17">
     <g id="line2d_39">
      <defs>
       <path d="
M0 0
L2 0" id="m49a37a8170"/>
      </defs>
      <g>
       <use style="stroke:#000000;stroke-linecap:butt;stroke-width:0.5;" x="25.8828125" xlink:href="#m49a37a8170" y="335.10526892"/>
      </g>
     </g>
    </g>
    <g id="ytick_18">
     <g id="line2d_40">
      <defs>
       <path d="
M0 0
L2 0" id="m49a37a8170"/>
      </defs>
      <g>
       <use style="stroke:#000000;stroke-linecap:butt;stroke-width:0.5;" x="25.8828125" xlink:href="#m49a37a8170" y="325.396591552"/>
      </g>
     </g>
    </g>
    <g id="ytick_19">
     <g id="line2d_41">
      <defs>
       <path d="
M0 0
L2 0" id="m49a37a8170"/>
      </defs>
      <g>
       <use style="stroke:#000000;stroke-linecap:butt;stroke-width:0.5;" x="25.8828125" xlink:href="#m49a37a8170" y="315.687914184"/>
      </g>
     </g>
    </g>
    <g id="ytick_20">
     <g id="line2d_42">
      <defs>
       <path d="
M0 0
L2 0" id="m49a37a8170"/>
      </defs>
      <g>
       <use style="stroke:#000000;stroke-linecap:butt;stroke-width:0.5;" x="25.8828125" xlink:href="#m49a37a8170" y="305.979236816"/>
      </g>
     </g>
    </g>
    <g id="ytick_21">
     <g id="line2d_43">
      <defs>
       <path d="
M0 0
L2 0" id="m49a37a8170"/>
      </defs>
      <g>
       <use style="stroke:#000000;stroke-linecap:butt;stroke-width:0.5;" x="25.8828125" xlink:href="#m49a37a8170" y="296.270559449"/>
      </g>
     </g>
    </g>
    <g id="ytick_22">
     <g id="line2d_44">
      <defs>
       <path d="
M0 0
L2 0" id="m49a37a8170"/>
      </defs>
      <g>
       <use style="stroke:#000000;stroke-linecap:butt;stroke-width:0.5;" x="25.8828125" xlink:href="#m49a37a8170" y="286.561882081"/>
      </g>
     </g>
    </g>
    <g id="ytick_23">
     <g id="line2d_45">
      <defs>
       <path d="
M0 0
L2 0" id="m49a37a8170"/>
      </defs>
      <g>
       <use style="stroke:#000000;stroke-linecap:butt;stroke-width:0.5;" x="25.8828125" xlink:href="#m49a37a8170" y="276.853204713"/>
      </g>
     </g>
    </g>
    <g id="ytick_24">
     <g id="line2d_46">
      <defs>
       <path d="
M0 0
L2 0" id="m49a37a8170"/>
      </defs>
      <g>
       <use style="stroke:#000000;stroke-linecap:butt;stroke-width:0.5;" x="25.8828125" xlink:href="#m49a37a8170" y="267.144527345"/>
      </g>
     </g>
    </g>
    <g id="ytick_25">
     <g id="line2d_47">
      <defs>
       <path d="
M0 0
L2 0" id="m49a37a8170"/>
      </defs>
      <g>
       <use style="stroke:#000000;stroke-linecap:butt;stroke-width:0.5;" x="25.8828125" xlink:href="#m49a37a8170" y="257.435849977"/>
      </g>
     </g>
    </g>
    <g id="ytick_26">
     <g id="line2d_48">
      <defs>
       <path d="
M0 0
L2 0" id="m49a37a8170"/>
      </defs>
      <g>
       <use style="stroke:#000000;stroke-linecap:butt;stroke-width:0.5;" x="25.8828125" xlink:href="#m49a37a8170" y="247.72717261"/>
      </g>
     </g>
    </g>
    <g id="ytick_27">
     <g id="line2d_49">
      <defs>
       <path d="
M0 0
L2 0" id="m49a37a8170"/>
      </defs>
      <g>
       <use style="stroke:#000000;stroke-linecap:butt;stroke-width:0.5;" x="25.8828125" xlink:href="#m49a37a8170" y="238.018495242"/>
      </g>
     </g>
    </g>
    <g id="ytick_28">
     <g id="line2d_50">
      <defs>
       <path d="
M0 0
L2 0" id="m49a37a8170"/>
      </defs>
      <g>
       <use style="stroke:#000000;stroke-linecap:butt;stroke-width:0.5;" x="25.8828125" xlink:href="#m49a37a8170" y="228.309817874"/>
      </g>
     </g>
    </g>
    <g id="ytick_29">
     <g id="line2d_51">
      <defs>
       <path d="
M0 0
L2 0" id="m49a37a8170"/>
      </defs>
      <g>
       <use style="stroke:#000000;stroke-linecap:butt;stroke-width:0.5;" x="25.8828125" xlink:href="#m49a37a8170" y="218.601140506"/>
      </g>
     </g>
    </g>
    <g id="ytick_30">
     <g id="line2d_52">
      <defs>
       <path d="
M0 0
L2 0" id="m49a37a8170"/>
      </defs>
      <g>
       <use style="stroke:#000000;stroke-linecap:butt;stroke-width:0.5;" x="25.8828125" xlink:href="#m49a37a8170" y="208.892463139"/>
      </g>
     </g>
    </g>
    <g id="ytick_31">
     <g id="line2d_53">
      <defs>
       <path d="
M0 0
L2 0" id="m49a37a8170"/>
      </defs>
      <g>
       <use style="stroke:#000000;stroke-linecap:butt;stroke-width:0.5;" x="25.8828125" xlink:href="#m49a37a8170" y="199.183785771"/>
      </g>
     </g>
    </g>
    <g id="ytick_32">
     <g id="line2d_54">
      <defs>
       <path d="
M0 0
L2 0" id="m49a37a8170"/>
      </defs>
      <g>
       <use style="stroke:#000000;stroke-linecap:butt;stroke-width:0.5;" x="25.8828125" xlink:href="#m49a37a8170" y="189.475108403"/>
      </g>
     </g>
    </g>
    <g id="ytick_33">
     <g id="line2d_55">
      <defs>
       <path d="
M0 0
L2 0" id="m49a37a8170"/>
      </defs>
      <g>
       <use style="stroke:#000000;stroke-linecap:butt;stroke-width:0.5;" x="25.8828125" xlink:href="#m49a37a8170" y="179.766431035"/>
      </g>
     </g>
    </g>
    <g id="ytick_34">
     <g id="line2d_56">
      <defs>
       <path d="
M0 0
L2 0" id="m49a37a8170"/>
      </defs>
      <g>
       <use style="stroke:#000000;stroke-linecap:butt;stroke-width:0.5;" x="25.8828125" xlink:href="#m49a37a8170" y="170.057753668"/>
      </g>
     </g>
    </g>
    <g id="ytick_35">
     <g id="line2d_57">
      <defs>
       <path d="
M0 0
L2 0" id="m49a37a8170"/>
      </defs>
      <g>
       <use style="stroke:#000000;stroke-linecap:butt;stroke-width:0.5;" x="25.8828125" xlink:href="#m49a37a8170" y="160.3490763"/>
      </g>
     </g>
    </g>
    <g id="ytick_36">
     <g id="line2d_58">
      <defs>
       <path d="
M0 0
L2 0" id="m49a37a8170"/>
      </defs>
      <g>
       <use style="stroke:#000000;stroke-linecap:butt;stroke-width:0.5;" x="25.8828125" xlink:href="#m49a37a8170" y="150.640398932"/>
      </g>
     </g>
    </g>
    <g id="ytick_37">
     <g id="line2d_59">
      <defs>
       <path d="
M0 0
L2 0" id="m49a37a8170"/>
      </defs>
      <g>
       <use style="stroke:#000000;stroke-linecap:butt;stroke-width:0.5;" x="25.8828125" xlink:href="#m49a37a8170" y="140.931721564"/>
      </g>
     </g>
    </g>
    <g id="ytick_38">
     <g id="line2d_60">
      <defs>
       <path d="
M0 0
L2 0" id="m49a37a8170"/>
      </defs>
      <g>
       <use style="stroke:#000000;stroke-linecap:butt;stroke-width:0.5;" x="25.8828125" xlink:href="#m49a37a8170" y="131.223044196"/>
      </g>
     </g>
    </g>
    <g id="ytick_39">
     <g id="line2d_61">
      <defs>
       <path d="
M0 0
L2 0" id="m49a37a8170"/>
      </defs>
      <g>
       <use style="stroke:#000000;stroke-linecap:butt;stroke-width:0.5;" x="25.8828125" xlink:href="#m49a37a8170" y="121.514366829"/>
      </g>
     </g>
    </g>
    <g id="ytick_40">
     <g id="line2d_62">
      <defs>
       <path d="
M0 0
L2 0" id="m49a37a8170"/>
      </defs>
      <g>
       <use style="stroke:#000000;stroke-linecap:butt;stroke-width:0.5;" x="25.8828125" xlink:href="#m49a37a8170" y="111.805689461"/>
      </g>
     </g>
    </g>
    <g id="ytick_41">
     <g id="line2d_63">
      <defs>
       <path d="
M0 0
L2 0" id="m49a37a8170"/>
      </defs>
      <g>
       <use style="stroke:#000000;stroke-linecap:butt;stroke-width:0.5;" x="25.8828125" xlink:href="#m49a37a8170" y="102.097012093"/>
      </g>
     </g>
    </g>
    <g id="ytick_42">
     <g id="line2d_64">
      <defs>
       <path d="
M0 0
L2 0" id="m49a37a8170"/>
      </defs>
      <g>
       <use style="stroke:#000000;stroke-linecap:butt;stroke-width:0.5;" x="25.8828125" xlink:href="#m49a37a8170" y="92.3883347253"/>
      </g>
     </g>
    </g>
    <g id="ytick_43">
     <g id="line2d_65">
      <defs>
       <path d="
M0 0
L2 0" id="m49a37a8170"/>
      </defs>
      <g>
       <use style="stroke:#000000;stroke-linecap:butt;stroke-width:0.5;" x="25.8828125" xlink:href="#m49a37a8170" y="82.6796573575"/>
      </g>
     </g>
    </g>
    <g id="ytick_44">
     <g id="line2d_66">
      <defs>
       <path d="
M0 0
L2 0" id="m49a37a8170"/>
      </defs>
      <g>
       <use style="stroke:#000000;stroke-linecap:butt;stroke-width:0.5;" x="25.8828125" xlink:href="#m49a37a8170" y="72.9709799897"/>
      </g>
     </g>
    </g>
    <g id="ytick_45">
     <g id="line2d_67">
      <defs>
       <path d="
M0 0
L2 0" id="m49a37a8170"/>
      </defs>
      <g>
       <use style="stroke:#000000;stroke-linecap:butt;stroke-width:0.5;" x="25.8828125" xlink:href="#m49a37a8170" y="63.262302622"/>
      </g>
     </g>
    </g>
    <g id="ytick_46">
     <g id="line2d_68">
      <defs>
       <path d="
M0 0
L2 0" id="m49a37a8170"/>
      </defs>
      <g>
       <use style="stroke:#000000;stroke-linecap:butt;stroke-width:0.5;" x="25.8828125" xlink:href="#m49a37a8170" y="53.5536252542"/>
      </g>
     </g>
    </g>
    <g id="ytick_47">
     <g id="line2d_69">
      <defs>
       <path d="
M0 0
L2 0" id="m49a37a8170"/>
      </defs>
      <g>
       <use style="stroke:#000000;stroke-linecap:butt;stroke-width:0.5;" x="25.8828125" xlink:href="#m49a37a8170" y="43.8449478864"/>
      </g>
     </g>
    </g>
    <g id="ytick_48">
     <g id="line2d_70">
      <defs>
       <path d="
M0 0
L2 0" id="m49a37a8170"/>
      </defs>
      <g>
       <use style="stroke:#000000;stroke-linecap:butt;stroke-width:0.5;" x="25.8828125" xlink:href="#m49a37a8170" y="34.1362705186"/>
      </g>
     </g>
    </g>
    <g id="ytick_49">
     <g id="line2d_71">
      <defs>
       <path d="
M0 0
L2 0" id="m49a37a8170"/>
      </defs>
      <g>
       <use style="stroke:#000000;stroke-linecap:butt;stroke-width:0.5;" x="25.8828125" xlink:href="#m49a37a8170" y="24.4275931509"/>
      </g>
     </g>
    </g>
   </g>
   <g id="patch_3">
    <path d="
M15.4995 383.649
L555.432 383.649" style="fill:none;stroke:#000000;stroke-width:0.8;"/>
   </g>
   <g id="patch_4">
    <path d="
M25.8828 413.28
L25.8828 7.2" style="fill:none;stroke:#000000;stroke-width:0.8;"/>
   </g>
  </g>
 </g>
 <defs>
  <clipPath id="pd9e1e77c85">
   <rect height="406.08" width="539.932011328" x="15.4995056282" y="7.2"/>
  </clipPath>
 </defs>
</svg>
