<?xml version="1.0" encoding="utf-8" standalone="no"?>
<!DOCTYPE svg PUBLIC "-//W3C//DTD SVG 1.1//EN"
  "http://www.w3.org/Graphics/SVG/1.1/DTD/svg11.dtd">
<!-- Created with matplotlib (http://matplotlib.sourceforge.net/) -->
<svg height="204pt" version="1.1" viewBox="0 0 562 204" width="562pt" xmlns="http://www.w3.org/2000/svg" xmlns:xlink="http://www.w3.org/1999/xlink">
 <defs>
  <style type="text/css">
*{stroke-linecap:square;stroke-linejoin:round;}
  </style>
 </defs>
 <g id="figure_1">
  <g id="patch_1">
   <path d="
M-4.44089e-16 204.48
L562.57 204.48
L562.57 0
L-4.44089e-16 0
z
" style="fill:#ffffff;"/>
  </g>
  <g id="axes_1">
   <g id="patch_2">
    <path d="
M9.25561 197.28
L555.37 197.28
L555.37 7.2
L9.25561 7.2
z
" style="fill:#ffffff;"/>
   </g>
   <g id="line2d_1">
    <path clip-path="url(#p65219a0bf4)" d="
M19.7579 90.7281
L19.7647 193.625
L19.8688 134.116
L20.0483 88.4097
L20.0975 83.2338
L20.1643 87.4793
L20.5112 128.352
L20.7677 135.34
L20.8612 135.863
L20.898 135.7
L20.9824 133.535
L21.1812 129.609
L21.1813 129.609
L21.1904 129.636
L21.198 129.6
L21.198 129.6
L21.4034 126.45
L21.5464 125.403
L21.6473 124.942
L21.679 125.161
L21.8631 129.556
L21.9891 131.748
L22.0398 131.509
L22.6891 124.687
L22.7317 124.968
L22.8287 125.431
L22.8773 125.294
L23.0535 124.953
L23.0619 124.966
L23.131 125.247
L23.1514 125.298
L23.1784 125.237
L23.1784 125.237
L23.3254 125.174
L23.336 125.186
L23.4558 125.296
L23.4996 125.15
L23.5932 125.222
L23.6183 125.237
L23.6406 125.191
L23.6406 125.191
L23.7113 124.979
L23.7661 125.142
L23.8528 125.694
L23.9627 126.188
L24.0327 126.174
L24.0784 126.131
L24.0916 126.078
L24.4456 123.381
L24.646 122.33
L24.71 122.3
L24.7443 122.378
L24.9611 122.593
L24.9825 122.557
L25.0677 122.096
L25.442 119.622
L25.5266 119.459
L25.5793 119.53
L25.617 119.578
L25.6999 119.521
L25.7756 119.63
L25.8424 119.731
L25.8981 119.633
L26.2176 118.733
L26.3563 118.648
L26.3593 118.651
L26.4855 118.617
L26.5548 118.6
L26.5765 118.541
L26.9599 116.951
L27.5009 113.981
L27.9609 112.91
L28.1704 111.985
L28.6218 108.922
L29.2644 104.661
L29.518 104.135
L29.643 104.192
L29.7899 104.656
L30.7262 106.707
L30.8917 106.787
L31.3613 107.234
L31.8557 108.079
L31.943 107.985
L32.1707 107.885
L32.1714 107.886
L32.5186 108.307
L35.3127 115.318
L35.8142 115.786
L36.4176 117.209
L36.9153 118.734
L37.6204 119.779
L37.8883 120.201
L38.2994 120.621
L38.5821 120.955
L39.2249 121.859
L39.5932 122.4
L40.5059 123.514
L40.7657 123.985
L41.4243 125.132
L41.8414 125.937
L42.1279 126.251
L43.4611 128.517
L44.6188 129.809
L45.2936 129.686
L46.1257 129.569
L46.4739 129.529
L46.8917 129.262
L47.1855 129.159
L48.5076 128.596
L49.7536 128.588
L50.1917 128.468
L50.7467 128.524
L51.1506 128.755
L51.6031 128.933
L52.6198 128.581
L52.9389 128.494
L53.9268 128.176
L54.3725 128.119
L54.8739 128.099
L55.1819 128.201
L55.4693 128.466
L56.0872 129.277
L56.6498 129.975
L57.4901 130.98
L58.3439 132.404
L59.6525 135.476
L60.5309 137.352
L61.9101 139.382
L62.8868 140.508
L65.2013 142.507
L67.6347 143.648
L69.4964 142.749
L70.4476 141.814
L71.0975 141.077
L71.7906 140.399
L72.9375 139.458
L73.4584 138.926
L74.3486 138.1
L76.3866 136.185
L76.9719 135.566
L77.8349 134.58
L85.0207 125.409
L85.9054 124.288
L89.0704 121.552
L89.6641 121.318
L91.9638 120.917
L93.9692 120.931
L95.0763 120.927
L95.9361 121.067
L97.9247 121.263
L99.1047 121.265
L100.223 121.337
L103.595 121.687
L104.637 121.866
L106.965 121.851
L109.225 121.928
L111.759 121.193
L112.678 120.978
L114.744 120.774
L117.491 120.68
L118.143 120.648
L119.902 120.558
L121.219 120.588
L122.141 120.637
L123.189 120.77
L123.988 120.908
L125.368 121.256
L126.222 121.502
L127.584 121.801
L129.707 121.845
L131.431 121.929
L133.245 121.886
L134.881 121.86
L136.38 122.054
L137.666 122.146
L139.688 121.866
L144.16 120.98
L145.909 120.908
L147.037 120.708
L147.849 120.633
L148.88 120.525
L151.434 120.036
L160.796 118.849
L167.364 118.778
L180.995 117.056
L182.466 116.84
L186.413 116.251
L189.731 115.909
L191.153 115.592
L192.738 115.071
L194.688 114.381
L197.27 113.203
L200.312 111.947
L202.803 111.096
L204.89 110.616
L208.109 109.796
L212.017 108.772
L218.38 107.348
L229.928 104.076
L234.648 102.701
L236.538 102.098
L240.248 100.672
L243.941 99.1732
L251.209 96.6241
L262.629 92.1659
L264.757 91.4078
L285.45 84.4423
L287.971 83.9385
L290.159 83.6216
L293.385 83.4495
L296.889 83.2296
L314.489 81.2914
L332.471 80.2044
L337.17 79.9525
L341.188 79.8058
L355.284 79.0893
L359.096 78.9248
L368.698 78.6779
L371.355 78.3551
L377.475 77.454
L388.029 75.9676
L393.587 75.0929
L397.876 74.4516
L404.994 73.3535
L410.476 72.5202
L415.458 71.6259
L424.425 70.2946
L433.248 69.0938
L448.771 66.5218
L478.623 63.1043
L485.815 61.8449
L502.232 59.2742
L512.002 58.131
L520.447 57.0796
L527.766 56.3604
L544.868 54.569
L544.868 54.569" style="fill:none;stroke:#0000ff;"/>
   </g>
   <g id="line2d_2">
    <path clip-path="url(#p65219a0bf4)" d="
M19.7578 10.8554
L544.868 10.8554" style="fill:none;stroke:#ff0000;"/>
   </g>
   <g id="matplotlib.axis_1">
    <g id="xtick_1">
     <g id="line2d_3">
      <defs>
       <path d="
M0 0
L0 -4" id="m363d37d68a"/>
      </defs>
      <g>
       <use style="stroke:#000000;stroke-linecap:butt;stroke-width:0.5;" x="19.7578125" xlink:href="#m363d37d68a" y="90.7281220559"/>
      </g>
     </g>
    </g>
    <g id="xtick_2">
     <g id="line2d_4">
      <defs>
       <path d="
M0 0
L0 -4" id="m363d37d68a"/>
      </defs>
      <g>
       <use style="stroke:#000000;stroke-linecap:butt;stroke-width:0.5;" x="124.77985392" xlink:href="#m363d37d68a" y="90.7281220559"/>
      </g>
     </g>
     <g id="text_1">
      <!-- 2e6 -->
      <defs>
       <path d="
M19.1875 8.29688
L53.6094 8.29688
L53.6094 0
L7.32812 0
L7.32812 8.29688
Q12.9375 14.1094 22.625 23.8906
Q32.3281 33.6875 34.8125 36.5312
Q39.5469 41.8438 41.4219 45.5312
Q43.3125 49.2188 43.3125 52.7812
Q43.3125 58.5938 39.2344 62.25
Q35.1562 65.9219 28.6094 65.9219
Q23.9688 65.9219 18.8125 64.3125
Q13.6719 62.7031 7.8125 59.4219
L7.8125 69.3906
Q13.7656 71.7812 18.9375 73
Q24.125 74.2188 28.4219 74.2188
Q39.75 74.2188 46.4844 68.5469
Q53.2188 62.8906 53.2188 53.4219
Q53.2188 48.9219 51.5312 44.8906
Q49.8594 40.875 45.4062 35.4062
Q44.1875 33.9844 37.6406 27.2188
Q31.1094 20.4531 19.1875 8.29688" id="BitstreamVeraSans-Roman-32"/>
       <path d="
M56.2031 29.5938
L56.2031 25.2031
L14.8906 25.2031
Q15.4844 15.9219 20.4844 11.0625
Q25.4844 6.20312 34.4219 6.20312
Q39.5938 6.20312 44.4531 7.46875
Q49.3125 8.73438 54.1094 11.2812
L54.1094 2.78125
Q49.2656 0.734375 44.1875 -0.34375
Q39.1094 -1.42188 33.8906 -1.42188
Q20.7969 -1.42188 13.1562 6.1875
Q5.51562 13.8125 5.51562 26.8125
Q5.51562 40.2344 12.7656 48.1094
Q20.0156 56 32.3281 56
Q43.3594 56 49.7812 48.8906
Q56.2031 41.7969 56.2031 29.5938
M47.2188 32.2344
Q47.125 39.5938 43.0938 43.9844
Q39.0625 48.3906 32.4219 48.3906
Q24.9062 48.3906 20.3906 44.1406
Q15.875 39.8906 15.1875 32.1719
z
" id="BitstreamVeraSans-Roman-65"/>
       <path d="
M33.0156 40.375
Q26.375 40.375 22.4844 35.8281
Q18.6094 31.2969 18.6094 23.3906
Q18.6094 15.5312 22.4844 10.9531
Q26.375 6.39062 33.0156 6.39062
Q39.6562 6.39062 43.5312 10.9531
Q47.4062 15.5312 47.4062 23.3906
Q47.4062 31.2969 43.5312 35.8281
Q39.6562 40.375 33.0156 40.375
M52.5938 71.2969
L52.5938 62.3125
Q48.875 64.0625 45.0938 64.9844
Q41.3125 65.9219 37.5938 65.9219
Q27.8281 65.9219 22.6719 59.3281
Q17.5312 52.7344 16.7969 39.4062
Q19.6719 43.6562 24.0156 45.9219
Q28.375 48.1875 33.5938 48.1875
Q44.5781 48.1875 50.9531 41.5156
Q57.3281 34.8594 57.3281 23.3906
Q57.3281 12.1562 50.6875 5.35938
Q44.0469 -1.42188 33.0156 -1.42188
Q20.3594 -1.42188 13.6719 8.26562
Q6.98438 17.9688 6.98438 36.375
Q6.98438 53.6562 15.1875 63.9375
Q23.3906 74.2188 37.2031 74.2188
Q40.9219 74.2188 44.7031 73.4844
Q48.4844 72.75 52.5938 71.2969" id="BitstreamVeraSans-Roman-36"/>
      </defs>
      <g transform="translate(116.02204142 102.149997056)scale(0.1 -0.1)">
       <use xlink:href="#BitstreamVeraSans-Roman-32"/>
       <use x="63.623046875" xlink:href="#BitstreamVeraSans-Roman-65"/>
       <use x="125.146484375" xlink:href="#BitstreamVeraSans-Roman-36"/>
      </g>
     </g>
    </g>
    <g id="xtick_3">
     <g id="line2d_5">
      <defs>
       <path d="
M0 0
L0 -4" id="m363d37d68a"/>
      </defs>
      <g>
       <use style="stroke:#000000;stroke-linecap:butt;stroke-width:0.5;" x="229.80189534" xlink:href="#m363d37d68a" y="90.7281220559"/>
      </g>
     </g>
     <g id="text_2">
      <!-- 4e6 -->
      <defs>
       <path d="
M37.7969 64.3125
L12.8906 25.3906
L37.7969 25.3906
z

M35.2031 72.9062
L47.6094 72.9062
L47.6094 25.3906
L58.0156 25.3906
L58.0156 17.1875
L47.6094 17.1875
L47.6094 0
L37.7969 0
L37.7969 17.1875
L4.89062 17.1875
L4.89062 26.7031
z
" id="BitstreamVeraSans-Roman-34"/>
      </defs>
      <g transform="translate(220.92220784 102.149997056)scale(0.1 -0.1)">
       <use xlink:href="#BitstreamVeraSans-Roman-34"/>
       <use x="63.623046875" xlink:href="#BitstreamVeraSans-Roman-65"/>
       <use x="125.146484375" xlink:href="#BitstreamVeraSans-Roman-36"/>
      </g>
     </g>
    </g>
    <g id="xtick_4">
     <g id="line2d_6">
      <defs>
       <path d="
M0 0
L0 -4" id="m363d37d68a"/>
      </defs>
      <g>
       <use style="stroke:#000000;stroke-linecap:butt;stroke-width:0.5;" x="334.82393676" xlink:href="#m363d37d68a" y="90.7281220559"/>
      </g>
     </g>
     <g id="text_3">
      <!-- 6e6 -->
      <g transform="translate(326.04893676 102.149997056)scale(0.1 -0.1)">
       <use xlink:href="#BitstreamVeraSans-Roman-36"/>
       <use x="63.623046875" xlink:href="#BitstreamVeraSans-Roman-65"/>
       <use x="125.146484375" xlink:href="#BitstreamVeraSans-Roman-36"/>
      </g>
     </g>
    </g>
    <g id="xtick_5">
     <g id="line2d_7">
      <defs>
       <path d="
M0 0
L0 -4" id="m363d37d68a"/>
      </defs>
      <g>
       <use style="stroke:#000000;stroke-linecap:butt;stroke-width:0.5;" x="439.84597818" xlink:href="#m363d37d68a" y="90.7281220559"/>
      </g>
     </g>
     <g id="text_4">
      <!-- 8e6 -->
      <defs>
       <path d="
M31.7812 34.625
Q24.75 34.625 20.7188 30.8594
Q16.7031 27.0938 16.7031 20.5156
Q16.7031 13.9219 20.7188 10.1562
Q24.75 6.39062 31.7812 6.39062
Q38.8125 6.39062 42.8594 10.1719
Q46.9219 13.9688 46.9219 20.5156
Q46.9219 27.0938 42.8906 30.8594
Q38.875 34.625 31.7812 34.625
M21.9219 38.8125
Q15.5781 40.375 12.0312 44.7188
Q8.5 49.0781 8.5 55.3281
Q8.5 64.0625 14.7188 69.1406
Q20.9531 74.2188 31.7812 74.2188
Q42.6719 74.2188 48.875 69.1406
Q55.0781 64.0625 55.0781 55.3281
Q55.0781 49.0781 51.5312 44.7188
Q48 40.375 41.7031 38.8125
Q48.8281 37.1562 52.7969 32.3125
Q56.7812 27.4844 56.7812 20.5156
Q56.7812 9.90625 50.3125 4.23438
Q43.8438 -1.42188 31.7812 -1.42188
Q19.7344 -1.42188 13.25 4.23438
Q6.78125 9.90625 6.78125 20.5156
Q6.78125 27.4844 10.7812 32.3125
Q14.7969 37.1562 21.9219 38.8125
M18.3125 54.3906
Q18.3125 48.7344 21.8438 45.5625
Q25.3906 42.3906 31.7812 42.3906
Q38.1406 42.3906 41.7188 45.5625
Q45.3125 48.7344 45.3125 54.3906
Q45.3125 60.0625 41.7188 63.2344
Q38.1406 66.4062 31.7812 66.4062
Q25.3906 66.4062 21.8438 63.2344
Q18.3125 60.0625 18.3125 54.3906" id="BitstreamVeraSans-Roman-38"/>
      </defs>
      <g transform="translate(431.06082193 102.149997056)scale(0.1 -0.1)">
       <use xlink:href="#BitstreamVeraSans-Roman-38"/>
       <use x="63.623046875" xlink:href="#BitstreamVeraSans-Roman-65"/>
       <use x="125.146484375" xlink:href="#BitstreamVeraSans-Roman-36"/>
      </g>
     </g>
    </g>
    <g id="xtick_6">
     <g id="line2d_8">
      <defs>
       <path d="
M0 0
L0 -4" id="m363d37d68a"/>
      </defs>
      <g>
       <use style="stroke:#000000;stroke-linecap:butt;stroke-width:0.5;" x="544.868019601" xlink:href="#m363d37d68a" y="90.7281220559"/>
      </g>
     </g>
     <g id="text_5">
      <!-- 1e7 -->
      <defs>
       <path d="
M12.4062 8.29688
L28.5156 8.29688
L28.5156 63.9219
L10.9844 60.4062
L10.9844 69.3906
L28.4219 72.9062
L38.2812 72.9062
L38.2812 8.29688
L54.3906 8.29688
L54.3906 0
L12.4062 0
z
" id="BitstreamVeraSans-Roman-31"/>
       <path d="
M8.20312 72.9062
L55.0781 72.9062
L55.0781 68.7031
L28.6094 0
L18.3125 0
L43.2188 64.5938
L8.20312 64.5938
z
" id="BitstreamVeraSans-Roman-37"/>
      </defs>
      <g transform="translate(536.405519601 102.018747056)scale(0.1 -0.1)">
       <use xlink:href="#BitstreamVeraSans-Roman-31"/>
       <use x="63.623046875" xlink:href="#BitstreamVeraSans-Roman-65"/>
       <use x="125.146484375" xlink:href="#BitstreamVeraSans-Roman-37"/>
      </g>
     </g>
    </g>
    <g id="xtick_7">
     <g id="line2d_9">
      <defs>
       <path d="
M0 0
L0 -2" id="m390cf05f50"/>
      </defs>
      <g>
       <use style="stroke:#000000;stroke-linecap:butt;stroke-width:0.5;" x="46.013322855" xlink:href="#m390cf05f50" y="90.7281220559"/>
      </g>
     </g>
    </g>
    <g id="xtick_8">
     <g id="line2d_10">
      <defs>
       <path d="
M0 0
L0 -2" id="m390cf05f50"/>
      </defs>
      <g>
       <use style="stroke:#000000;stroke-linecap:butt;stroke-width:0.5;" x="72.2688332101" xlink:href="#m390cf05f50" y="90.7281220559"/>
      </g>
     </g>
    </g>
    <g id="xtick_9">
     <g id="line2d_11">
      <defs>
       <path d="
M0 0
L0 -2" id="m390cf05f50"/>
      </defs>
      <g>
       <use style="stroke:#000000;stroke-linecap:butt;stroke-width:0.5;" x="98.5243435651" xlink:href="#m390cf05f50" y="90.7281220559"/>
      </g>
     </g>
    </g>
    <g id="xtick_10">
     <g id="line2d_12">
      <defs>
       <path d="
M0 0
L0 -2" id="m390cf05f50"/>
      </defs>
      <g>
       <use style="stroke:#000000;stroke-linecap:butt;stroke-width:0.5;" x="151.035364275" xlink:href="#m390cf05f50" y="90.7281220559"/>
      </g>
     </g>
    </g>
    <g id="xtick_11">
     <g id="line2d_13">
      <defs>
       <path d="
M0 0
L0 -2" id="m390cf05f50"/>
      </defs>
      <g>
       <use style="stroke:#000000;stroke-linecap:butt;stroke-width:0.5;" x="177.29087463" xlink:href="#m390cf05f50" y="90.7281220559"/>
      </g>
     </g>
    </g>
    <g id="xtick_12">
     <g id="line2d_14">
      <defs>
       <path d="
M0 0
L0 -2" id="m390cf05f50"/>
      </defs>
      <g>
       <use style="stroke:#000000;stroke-linecap:butt;stroke-width:0.5;" x="203.546384985" xlink:href="#m390cf05f50" y="90.7281220559"/>
      </g>
     </g>
    </g>
    <g id="xtick_13">
     <g id="line2d_15">
      <defs>
       <path d="
M0 0
L0 -2" id="m390cf05f50"/>
      </defs>
      <g>
       <use style="stroke:#000000;stroke-linecap:butt;stroke-width:0.5;" x="256.057405695" xlink:href="#m390cf05f50" y="90.7281220559"/>
      </g>
     </g>
    </g>
    <g id="xtick_14">
     <g id="line2d_16">
      <defs>
       <path d="
M0 0
L0 -2" id="m390cf05f50"/>
      </defs>
      <g>
       <use style="stroke:#000000;stroke-linecap:butt;stroke-width:0.5;" x="282.31291605" xlink:href="#m390cf05f50" y="90.7281220559"/>
      </g>
     </g>
    </g>
    <g id="xtick_15">
     <g id="line2d_17">
      <defs>
       <path d="
M0 0
L0 -2" id="m390cf05f50"/>
      </defs>
      <g>
       <use style="stroke:#000000;stroke-linecap:butt;stroke-width:0.5;" x="308.568426405" xlink:href="#m390cf05f50" y="90.7281220559"/>
      </g>
     </g>
    </g>
    <g id="xtick_16">
     <g id="line2d_18">
      <defs>
       <path d="
M0 0
L0 -2" id="m390cf05f50"/>
      </defs>
      <g>
       <use style="stroke:#000000;stroke-linecap:butt;stroke-width:0.5;" x="361.079447115" xlink:href="#m390cf05f50" y="90.7281220559"/>
      </g>
     </g>
    </g>
    <g id="xtick_17">
     <g id="line2d_19">
      <defs>
       <path d="
M0 0
L0 -2" id="m390cf05f50"/>
      </defs>
      <g>
       <use style="stroke:#000000;stroke-linecap:butt;stroke-width:0.5;" x="387.33495747" xlink:href="#m390cf05f50" y="90.7281220559"/>
      </g>
     </g>
    </g>
    <g id="xtick_18">
     <g id="line2d_20">
      <defs>
       <path d="
M0 0
L0 -2" id="m390cf05f50"/>
      </defs>
      <g>
       <use style="stroke:#000000;stroke-linecap:butt;stroke-width:0.5;" x="413.590467825" xlink:href="#m390cf05f50" y="90.7281220559"/>
      </g>
     </g>
    </g>
    <g id="xtick_19">
     <g id="line2d_21">
      <defs>
       <path d="
M0 0
L0 -2" id="m390cf05f50"/>
      </defs>
      <g>
       <use style="stroke:#000000;stroke-linecap:butt;stroke-width:0.5;" x="466.101488536" xlink:href="#m390cf05f50" y="90.7281220559"/>
      </g>
     </g>
    </g>
    <g id="xtick_20">
     <g id="line2d_22">
      <defs>
       <path d="
M0 0
L0 -2" id="m390cf05f50"/>
      </defs>
      <g>
       <use style="stroke:#000000;stroke-linecap:butt;stroke-width:0.5;" x="492.356998891" xlink:href="#m390cf05f50" y="90.7281220559"/>
      </g>
     </g>
    </g>
    <g id="xtick_21">
     <g id="line2d_23">
      <defs>
       <path d="
M0 0
L0 -2" id="m390cf05f50"/>
      </defs>
      <g>
       <use style="stroke:#000000;stroke-linecap:butt;stroke-width:0.5;" x="518.612509246" xlink:href="#m390cf05f50" y="90.7281220559"/>
      </g>
     </g>
    </g>
   </g>
   <g id="matplotlib.axis_2">
    <g id="ytick_1">
     <g id="line2d_24">
      <defs>
       <path d="
M0 0
L4 0" id="m479c23141a"/>
      </defs>
      <g>
       <use style="stroke:#000000;stroke-linecap:butt;stroke-width:0.5;" x="19.7578125" xlink:href="#m479c23141a" y="164.553540041"/>
      </g>
     </g>
     <g id="text_6">
      <!-- -2 -->
      <defs>
       <path d="
M4.89062 31.3906
L31.2031 31.3906
L31.2031 23.3906
L4.89062 23.3906
z
" id="BitstreamVeraSans-Roman-2d"/>
      </defs>
      <g transform="translate(7.278125 168.264477541)scale(0.1 -0.1)">
       <use xlink:href="#BitstreamVeraSans-Roman-2d"/>
       <use x="36.083984375" xlink:href="#BitstreamVeraSans-Roman-32"/>
      </g>
     </g>
    </g>
    <g id="ytick_2">
     <g id="line2d_25">
      <defs>
       <path d="
M0 0
L4 0" id="m479c23141a"/>
      </defs>
      <g>
       <use style="stroke:#000000;stroke-linecap:butt;stroke-width:0.5;" x="19.7578125" xlink:href="#m479c23141a" y="127.640831048"/>
      </g>
     </g>
     <g id="text_7">
      <!-- -1 -->
      <g transform="translate(7.2 131.286143548)scale(0.1 -0.1)">
       <use xlink:href="#BitstreamVeraSans-Roman-2d"/>
       <use x="36.083984375" xlink:href="#BitstreamVeraSans-Roman-31"/>
      </g>
     </g>
    </g>
    <g id="ytick_3">
     <g id="line2d_26">
      <defs>
       <path d="
M0 0
L4 0" id="m479c23141a"/>
      </defs>
      <g>
       <use style="stroke:#000000;stroke-linecap:butt;stroke-width:0.5;" x="19.7578125" xlink:href="#m479c23141a" y="90.7281220559"/>
      </g>
     </g>
    </g>
    <g id="ytick_4">
     <g id="line2d_27">
      <defs>
       <path d="
M0 0
L4 0" id="m479c23141a"/>
      </defs>
      <g>
       <use style="stroke:#000000;stroke-linecap:butt;stroke-width:0.5;" x="19.7578125" xlink:href="#m479c23141a" y="53.8154130636"/>
      </g>
     </g>
     <g id="text_8">
      <!-- 1 -->
      <g transform="translate(11.4171875 57.4607255636)scale(0.1 -0.1)">
       <use xlink:href="#BitstreamVeraSans-Roman-31"/>
      </g>
     </g>
    </g>
    <g id="ytick_5">
     <g id="line2d_28">
      <defs>
       <path d="
M0 0
L4 0" id="m479c23141a"/>
      </defs>
      <g>
       <use style="stroke:#000000;stroke-linecap:butt;stroke-width:0.5;" x="19.7578125" xlink:href="#m479c23141a" y="16.9027040712"/>
      </g>
     </g>
     <g id="text_9">
      <!-- 2 -->
      <g transform="translate(11.1296875 20.6136415712)scale(0.1 -0.1)">
       <use xlink:href="#BitstreamVeraSans-Roman-32"/>
      </g>
     </g>
    </g>
    <g id="ytick_6">
     <g id="line2d_29">
      <defs>
       <path d="
M0 0
L2 0" id="mc77a8a1c3f"/>
      </defs>
      <g>
       <use style="stroke:#000000;stroke-linecap:butt;stroke-width:0.5;" x="19.7578125" xlink:href="#mc77a8a1c3f" y="194.083707234"/>
      </g>
     </g>
    </g>
    <g id="ytick_7">
     <g id="line2d_30">
      <defs>
       <path d="
M0 0
L2 0" id="mc77a8a1c3f"/>
      </defs>
      <g>
       <use style="stroke:#000000;stroke-linecap:butt;stroke-width:0.5;" x="19.7578125" xlink:href="#mc77a8a1c3f" y="186.701165436"/>
      </g>
     </g>
    </g>
    <g id="ytick_8">
     <g id="line2d_31">
      <defs>
       <path d="
M0 0
L2 0" id="mc77a8a1c3f"/>
      </defs>
      <g>
       <use style="stroke:#000000;stroke-linecap:butt;stroke-width:0.5;" x="19.7578125" xlink:href="#mc77a8a1c3f" y="179.318623638"/>
      </g>
     </g>
    </g>
    <g id="ytick_9">
     <g id="line2d_32">
      <defs>
       <path d="
M0 0
L2 0" id="mc77a8a1c3f"/>
      </defs>
      <g>
       <use style="stroke:#000000;stroke-linecap:butt;stroke-width:0.5;" x="19.7578125" xlink:href="#mc77a8a1c3f" y="171.936081839"/>
      </g>
     </g>
    </g>
    <g id="ytick_10">
     <g id="line2d_33">
      <defs>
       <path d="
M0 0
L2 0" id="mc77a8a1c3f"/>
      </defs>
      <g>
       <use style="stroke:#000000;stroke-linecap:butt;stroke-width:0.5;" x="19.7578125" xlink:href="#mc77a8a1c3f" y="157.170998242"/>
      </g>
     </g>
    </g>
    <g id="ytick_11">
     <g id="line2d_34">
      <defs>
       <path d="
M0 0
L2 0" id="mc77a8a1c3f"/>
      </defs>
      <g>
       <use style="stroke:#000000;stroke-linecap:butt;stroke-width:0.5;" x="19.7578125" xlink:href="#mc77a8a1c3f" y="149.788456444"/>
      </g>
     </g>
    </g>
    <g id="ytick_12">
     <g id="line2d_35">
      <defs>
       <path d="
M0 0
L2 0" id="mc77a8a1c3f"/>
      </defs>
      <g>
       <use style="stroke:#000000;stroke-linecap:butt;stroke-width:0.5;" x="19.7578125" xlink:href="#mc77a8a1c3f" y="142.405914645"/>
      </g>
     </g>
    </g>
    <g id="ytick_13">
     <g id="line2d_36">
      <defs>
       <path d="
M0 0
L2 0" id="mc77a8a1c3f"/>
      </defs>
      <g>
       <use style="stroke:#000000;stroke-linecap:butt;stroke-width:0.5;" x="19.7578125" xlink:href="#mc77a8a1c3f" y="135.023372847"/>
      </g>
     </g>
    </g>
    <g id="ytick_14">
     <g id="line2d_37">
      <defs>
       <path d="
M0 0
L2 0" id="mc77a8a1c3f"/>
      </defs>
      <g>
       <use style="stroke:#000000;stroke-linecap:butt;stroke-width:0.5;" x="19.7578125" xlink:href="#mc77a8a1c3f" y="120.25828925"/>
      </g>
     </g>
    </g>
    <g id="ytick_15">
     <g id="line2d_38">
      <defs>
       <path d="
M0 0
L2 0" id="mc77a8a1c3f"/>
      </defs>
      <g>
       <use style="stroke:#000000;stroke-linecap:butt;stroke-width:0.5;" x="19.7578125" xlink:href="#mc77a8a1c3f" y="112.875747451"/>
      </g>
     </g>
    </g>
    <g id="ytick_16">
     <g id="line2d_39">
      <defs>
       <path d="
M0 0
L2 0" id="mc77a8a1c3f"/>
      </defs>
      <g>
       <use style="stroke:#000000;stroke-linecap:butt;stroke-width:0.5;" x="19.7578125" xlink:href="#mc77a8a1c3f" y="105.493205653"/>
      </g>
     </g>
    </g>
    <g id="ytick_17">
     <g id="line2d_40">
      <defs>
       <path d="
M0 0
L2 0" id="mc77a8a1c3f"/>
      </defs>
      <g>
       <use style="stroke:#000000;stroke-linecap:butt;stroke-width:0.5;" x="19.7578125" xlink:href="#mc77a8a1c3f" y="98.1106638544"/>
      </g>
     </g>
    </g>
    <g id="ytick_18">
     <g id="line2d_41">
      <defs>
       <path d="
M0 0
L2 0" id="mc77a8a1c3f"/>
      </defs>
      <g>
       <use style="stroke:#000000;stroke-linecap:butt;stroke-width:0.5;" x="19.7578125" xlink:href="#mc77a8a1c3f" y="83.3455802574"/>
      </g>
     </g>
    </g>
    <g id="ytick_19">
     <g id="line2d_42">
      <defs>
       <path d="
M0 0
L2 0" id="mc77a8a1c3f"/>
      </defs>
      <g>
       <use style="stroke:#000000;stroke-linecap:butt;stroke-width:0.5;" x="19.7578125" xlink:href="#mc77a8a1c3f" y="75.963038459"/>
      </g>
     </g>
    </g>
    <g id="ytick_20">
     <g id="line2d_43">
      <defs>
       <path d="
M0 0
L2 0" id="mc77a8a1c3f"/>
      </defs>
      <g>
       <use style="stroke:#000000;stroke-linecap:butt;stroke-width:0.5;" x="19.7578125" xlink:href="#mc77a8a1c3f" y="68.5804966605"/>
      </g>
     </g>
    </g>
    <g id="ytick_21">
     <g id="line2d_44">
      <defs>
       <path d="
M0 0
L2 0" id="mc77a8a1c3f"/>
      </defs>
      <g>
       <use style="stroke:#000000;stroke-linecap:butt;stroke-width:0.5;" x="19.7578125" xlink:href="#mc77a8a1c3f" y="61.197954862"/>
      </g>
     </g>
    </g>
    <g id="ytick_22">
     <g id="line2d_45">
      <defs>
       <path d="
M0 0
L2 0" id="mc77a8a1c3f"/>
      </defs>
      <g>
       <use style="stroke:#000000;stroke-linecap:butt;stroke-width:0.5;" x="19.7578125" xlink:href="#mc77a8a1c3f" y="46.4328712651"/>
      </g>
     </g>
    </g>
    <g id="ytick_23">
     <g id="line2d_46">
      <defs>
       <path d="
M0 0
L2 0" id="mc77a8a1c3f"/>
      </defs>
      <g>
       <use style="stroke:#000000;stroke-linecap:butt;stroke-width:0.5;" x="19.7578125" xlink:href="#mc77a8a1c3f" y="39.0503294666"/>
      </g>
     </g>
    </g>
    <g id="ytick_24">
     <g id="line2d_47">
      <defs>
       <path d="
M0 0
L2 0" id="mc77a8a1c3f"/>
      </defs>
      <g>
       <use style="stroke:#000000;stroke-linecap:butt;stroke-width:0.5;" x="19.7578125" xlink:href="#mc77a8a1c3f" y="31.6677876682"/>
      </g>
     </g>
    </g>
    <g id="ytick_25">
     <g id="line2d_48">
      <defs>
       <path d="
M0 0
L2 0" id="mc77a8a1c3f"/>
      </defs>
      <g>
       <use style="stroke:#000000;stroke-linecap:butt;stroke-width:0.5;" x="19.7578125" xlink:href="#mc77a8a1c3f" y="24.2852458697"/>
      </g>
     </g>
    </g>
   </g>
   <g id="patch_3">
    <path d="
M9.25561 90.7281
L555.37 90.7281" style="fill:none;stroke:#000000;stroke-width:0.8;"/>
   </g>
   <g id="patch_4">
    <path d="
M19.7578 197.28
L19.7578 7.2" style="fill:none;stroke:#000000;stroke-width:0.8;"/>
   </g>
  </g>
 </g>
 <defs>
  <clipPath id="p65219a0bf4">
   <rect height="190.08" width="546.114615385" x="9.25560835799" y="7.2"/>
  </clipPath>
 </defs>
</svg>
