<?xml version="1.0" encoding="utf-8" standalone="no"?>
<!DOCTYPE svg PUBLIC "-//W3C//DTD SVG 1.1//EN"
  "http://www.w3.org/Graphics/SVG/1.1/DTD/svg11.dtd">
<!-- Created with matplotlib (http://matplotlib.sourceforge.net/) -->
<svg height="420pt" version="1.1" viewBox="0 0 562 420" width="562pt" xmlns="http://www.w3.org/2000/svg" xmlns:xlink="http://www.w3.org/1999/xlink">
 <defs>
  <style type="text/css">
*{stroke-linecap:square;stroke-linejoin:round;}
  </style>
 </defs>
 <g id="figure_1">
  <g id="patch_1">
   <path d="
M2.22045e-16 420.48
L562.698 420.48
L562.698 0
L2.22045e-16 0
z
" style="fill:#ffffff;"/>
  </g>
  <g id="axes_1">
   <g id="patch_2">
    <path d="
M19.3504 413.28
L555.498 413.28
L555.498 7.2
L19.3504 7.2
z
" style="fill:#ffffff;"/>
   </g>
   <g id="line2d_1">
    <path clip-path="url(#p4ae238b7d9)" d="
M29.6609 15.0092
L29.709 15.0092
L29.7661 405.471
L29.8271 405.471
L29.8892 390.732
L29.9538 390.732
L30.0205 378.573
L30.0863 378.573
L30.1539 372.221
L30.2231 372.221
L30.2924 365.436
L30.3626 365.436
L30.4329 358.207
L30.5042 358.207
L30.5765 348.475
L30.6481 348.475
L30.7207 345.578
L30.7936 345.578
L30.8667 343.743
L30.9402 343.743
L30.9402 343.209
L31.015 343.547
L31.0882 343.547
L31.1635 344.567
L31.3131 344.524
L31.3883 345.821
L31.4641 345.821
L31.5403 346.494
L31.6175 346.494
L31.6929 347.104
L31.7715 347.104
L31.8477 348.355
L31.9241 348.355
L32.002 349.759
L32.0803 349.759
L32.0803 350.302
L32.1565 350.164
L32.2344 350.164
L32.3128 349.708
L32.39 349.708
L32.4695 348.954
L32.5485 348.954
L32.6275 348.679
L32.7048 348.679
L32.7048 348.551
L32.7842 348.551
L32.7842 348.551
L32.7842 348.729
L32.8625 348.729
L32.8625 348.729
L32.9431 348.117
L33.0242 348.117
L33.1032 347.722
L33.1835 347.722
L33.2623 348.593
L33.3417 348.593
L33.4222 349.866
L33.5039 349.866
L33.5844 352.334
L33.6643 352.334
L33.7445 354.401
L33.8247 354.401
L33.9052 355.754
L33.9862 355.754
L34.0686 356.881
L34.1478 356.881
L34.2294 357.645
L34.3115 357.645
L34.3929 358.111
L34.4744 358.111
L34.557 357.643
L34.6387 357.643
L34.7218 356.658
L34.8046 356.658
L34.8852 355.854
L34.967 355.854
L35.0496 354.923
L35.1342 354.923
L35.217 353.958
L35.2989 353.958
L35.38 352.79
L35.4632 352.79
L35.5454 351.42
L35.629 351.42
L35.7108 350.011
L35.7915 350.011
L35.8763 348.52
L35.9592 348.52
L36.0449 346.996
L36.1282 346.996
L36.2099 345.613
L36.2937 345.613
L36.378 344.44
L36.4615 344.44
L36.5464 343.652
L36.6304 343.652
L36.7144 343.251
L36.8795 343.154
L36.9668 342.993
L37.3857 342.89
L37.4685 342.737
L37.7252 342.644
L37.7252 342.613
L37.8103 342.63
L38.4064 342.524
L38.4912 342.335
L38.5774 342.335
L38.6641 341.875
L38.7501 341.875
L38.8348 341.554
L38.9197 341.554
L39.0048 341.326
L39.0896 341.326
L39.1762 341.134
L39.4312 341.03
L39.5177 340.902
L40.1188 341.007
L40.205 341.199
L40.7239 341.131
L40.8099 341.02
L41.3326 340.975
L41.4177 340.757
L41.5069 340.757
L41.594 340.436
L41.683 340.436
L41.7704 340.137
L41.8567 340.137
L41.9443 339.953
L42.1191 339.898
L42.2073 339.664
L42.3812 339.604
L42.4706 339.311
L42.5575 339.311
L42.6452 339.067
L42.7308 339.067
L42.8206 338.823
L42.9077 338.823
L42.9931 338.57
L43.1696 338.462
L43.2574 338.23
L43.4331 338.143
L43.521 337.969
L43.8737 337.869
L43.9609 337.757
L44.1381 337.702
L44.2224 337.523
L44.3988 337.432
L44.4886 337.17
L44.5777 337.17
L44.6658 336.902
L44.7549 336.902
L44.8439 336.65
L45.0219 336.542
L45.1099 336.356
L45.2875 336.265
L45.3769 336.021
L45.554 335.932
L45.6429 335.696
L45.7311 335.696
L45.8192 335.445
L45.9094 335.445
L45.9976 335.182
L46.1717 335.086
L46.2606 334.909
L46.348 334.909
L46.4384 334.619
L46.5273 334.619
L46.6161 334.198
L46.7066 334.198
L46.7957 333.736
L46.885 333.736
L46.9762 333.144
L47.065 333.144
L47.1543 332.554
L47.2422 332.554
L47.3307 332.026
L47.418 332.026
L47.5091 331.521
L47.6012 331.521
L47.6924 331.072
L47.7823 331.072
L47.8743 330.698
L47.9658 330.698
L48.0545 330.311
L48.1451 330.311
L48.234 329.899
L48.3209 329.899
L48.4093 329.501
L48.5031 329.501
L48.5918 329.122
L48.6797 329.122
L48.7683 328.776
L48.8584 328.776
L48.9468 328.457
L49.0361 328.457
L49.1292 328.031
L49.2193 328.031
L49.3088 327.611
L49.3976 327.611
L49.4868 327.215
L49.5779 327.215
L49.669 326.806
L49.7574 326.806
L49.8485 326.378
L49.9374 326.378
L50.0264 325.924
L50.1199 325.924
L50.2107 325.423
L50.3023 325.423
L50.3927 324.939
L50.4807 324.939
L50.5701 324.48
L50.6608 324.48
L50.7505 324.063
L50.8406 324.063
L50.933 323.58
L51.0248 323.58
L51.1146 323.035
L51.205 323.035
L51.2941 322.475
L51.3841 322.475
L51.4757 321.849
L51.5677 321.849
L51.6573 321.295
L51.7496 321.295
L51.8415 320.759
L51.9313 320.759
L52.0228 320.233
L52.1153 320.233
L52.2062 319.717
L52.297 319.717
L52.3899 319.163
L52.478 319.163
L52.5664 318.582
L52.6564 318.582
L52.7469 318.02
L52.8367 318.02
L52.9293 317.533
L53.0212 317.533
L53.1137 316.964
L53.2033 316.964
L53.2942 316.364
L53.3864 316.364
L53.4757 315.736
L53.5679 315.736
L53.6602 315.17
L53.7516 315.17
L53.8405 314.645
L53.9326 314.645
L54.0235 314.125
L54.1136 314.125
L54.2066 313.599
L54.2986 313.599
L54.3913 313.03
L54.4822 313.03
L54.5747 312.474
L54.6647 312.474
L54.7552 311.932
L54.8471 311.932
L54.9344 311.437
L55.0278 311.437
L55.1193 310.893
L55.2097 310.893
L55.2999 310.329
L55.3894 310.329
L55.4826 309.82
L55.5747 309.82
L55.6663 309.315
L55.7593 309.315
L55.8507 308.88
L55.9418 308.88
L56.035 308.503
L56.126 308.503
L56.2182 308.187
L56.3103 308.187
L56.4033 307.953
L56.4943 307.953
L56.5856 307.736
L56.6779 307.736
L56.7686 307.505
L56.8595 307.505
L56.9526 307.219
L57.0449 307.219
L57.1372 306.889
L57.2271 306.889
L57.3206 306.574
L57.4113 306.574
L57.5046 306.302
L57.5971 306.302
L57.6894 306.013
L57.7805 306.013
L57.873 305.718
L57.9662 305.718
L58.0569 305.45
L58.152 305.45
L58.2446 305.157
L58.3374 305.157
L58.4301 304.885
L58.5224 304.885
L58.6152 304.641
L58.8009 304.536
L58.8952 304.307
L59.0777 304.207
L59.169 304.01
L59.3553 303.914
L59.4497 303.686
L59.5435 303.686
L59.6357 303.425
L59.7284 303.425
L59.8206 303.154
L59.9144 303.154
L60.0051 302.906
L60.1867 302.803
L60.2787 302.59
L60.3721 302.59
L60.466 302.337
L60.5592 302.337
L60.6503 302.119
L60.8381 302.019
L60.9305 301.839
L61.1159 301.736
L61.2084 301.538
L61.3938 301.442
L61.4861 301.245
L61.6734 301.144
L61.7681 300.943
L61.9528 300.855
L62.0446 300.659
L62.2281 300.567
L62.3206 300.35
L62.4147 300.35
L62.5086 300.1
L62.6047 300.1
L62.6976 299.861
L62.8858 299.752
L62.9775 299.591
L63.1655 299.508
L63.2579 299.323
L63.4442 299.243
L63.5368 299.067
L63.7211 298.979
L63.8147 298.822
L64.0038 298.728
L64.097 298.467
L64.1907 298.467
L64.2819 298.159
L64.3748 298.159
L64.4684 297.85
L64.5613 297.85
L64.6555 297.548
L64.7496 297.548
L64.8424 297.267
L64.9364 297.267
L65.0278 296.997
L65.12 296.997
L65.2119 296.731
L65.3064 296.731
L65.4009 296.433
L65.4925 296.433
L65.5846 296.124
L65.68 296.124
L65.7728 295.788
L65.8667 295.788
L65.9582 295.45
L66.0502 295.45
L66.1458 295.128
L66.2388 295.128
L66.3309 294.837
L66.4281 294.837
L66.5215 294.538
L66.6149 294.538
L66.7105 294.224
L66.803 294.224
L66.8975 293.894
L66.9918 293.894
L67.0856 293.548
L67.1779 293.548
L67.2715 293.245
L67.3673 293.245
L67.4597 292.973
L67.5561 292.973
L67.6486 292.676
L67.7414 292.676
L67.8375 292.372
L67.9316 292.372
L68.0253 292.043
L68.1184 292.043
L68.2133 291.693
L68.3098 291.693
L68.404 291.35
L68.4988 291.35
L68.5912 291.04
L68.6858 291.04
L68.7813 290.719
L68.8728 290.719
L68.9683 290.408
L69.0614 290.408
L69.1547 290.106
L69.2491 290.106
L69.342 289.808
L69.4374 289.808
L69.5319 289.537
L69.6277 289.537
L69.7231 289.26
L69.8183 289.26
L69.9114 288.971
L70.0053 288.971
L70.0991 288.668
L70.1922 288.668
L70.2854 288.344
L70.3795 288.344
L70.4744 288.002
L70.5684 288.002
L70.6627 287.645
L70.7585 287.645
L70.8511 287.31
L70.9472 287.31
L71.0419 286.982
L71.1375 286.982
L71.2301 286.66
L71.3263 286.66
L71.4232 286.344
L71.5176 286.344
L71.6115 286.025
L71.7063 286.025
L71.8009 285.744
L71.8946 285.744
L71.9885 285.493
L72.0824 285.493
L72.176 285.232
L72.2732 285.232
L72.3669 284.974
L72.461 284.974
L72.555 284.701
L72.6513 284.701
L72.744 284.449
L72.8406 284.449
L72.935 284.2
L73.0302 284.2
L73.1258 283.934
L73.2229 283.934
L73.3177 283.668
L73.4104 283.668
L73.5054 283.396
L73.599 283.396
L73.6922 283.131
L73.7862 283.131
L73.8798 282.879
L73.9756 282.879
L74.0685 282.621
L74.1649 282.621
L74.2599 282.339
L74.353 282.339
L74.4488 282.043
L74.5428 282.043
L74.6366 281.728
L74.7311 281.728
L74.826 281.404
L74.9207 281.404
L75.0146 281.064
L75.1103 281.064
L75.2062 280.718
L75.3016 280.718
L75.3991 280.391
L75.4935 280.391
L75.5895 280.071
L75.6813 280.071
L75.7771 279.766
L75.8741 279.766
L75.9688 279.43
L76.0617 279.43
L76.1613 279.092
L76.2565 279.092
L76.3526 278.753
L76.4478 278.753
L76.5422 278.421
L76.6374 278.421
L76.7352 278.111
L76.8282 278.111
L76.9239 277.832
L77.0186 277.832
L77.1143 277.564
L77.2078 277.564
L77.3018 277.292
L77.3954 277.292
L77.4919 277.017
L77.5879 277.017
L77.6821 276.759
L77.7786 276.759
L77.8723 276.49
L77.9672 276.49
L78.0637 276.201
L78.1592 276.201
L78.2563 275.913
L78.3526 275.913
L78.4489 275.616
L78.5444 275.616
L78.6406 275.338
L78.7353 275.338
L78.8307 275.075
L78.9257 275.075
L79.0218 274.824
L79.1131 274.824
L79.2106 274.585
L79.3054 274.585
L79.4006 274.333
L79.4959 274.333
L79.5909 274.077
L79.6885 274.077
L79.7848 273.809
L79.8781 273.809
L79.9743 273.539
L80.0716 273.539
L80.1669 273.276
L80.2624 273.276
L80.3559 273.032
L80.4548 273.032
L80.5508 272.785
L80.647 272.785
L80.7437 272.542
L80.8402 272.542
L80.9351 272.286
L81.0324 272.286
L81.1294 272.012
L81.2271 272.012
L81.3225 271.75
L81.4168 271.75
L81.5122 271.475
L81.6076 271.475
L81.7028 271.217
L81.7986 271.217
L81.8944 270.967
L81.9892 270.967
L82.0862 270.725
L82.1827 270.725
L82.281 270.479
L82.3772 270.479
L82.4733 270.237
L82.5676 270.237
L82.6628 269.996
L82.7589 269.996
L82.856 269.736
L82.9515 269.736
L83.0487 269.463
L83.1428 269.463
L83.2401 269.198
L83.3349 269.198
L83.4292 268.949
L83.5243 268.949
L83.6208 268.694
L83.7162 268.694
L83.8109 268.456
L83.9077 268.456
L84.0044 268.201
L84.0989 268.201
L84.1956 267.954
L84.2907 267.954
L84.3879 267.694
L84.4837 267.694
L84.5785 267.431
L84.6753 267.431
L84.7678 267.157
L84.8638 267.157
L84.9592 266.869
L85.0557 266.869
L85.1531 266.593
L85.2508 266.593
L85.3478 266.302
L85.4445 266.302
L85.5411 266.019
L85.6353 266.019
L85.7316 265.762
L85.8298 265.762
L85.9249 265.504
L86.02 265.504
L86.1141 265.268
L86.211 265.268
L86.3081 265.036
L86.5027 264.926
L86.5995 264.696
L86.7892 264.586
L86.8848 264.364
L87.081 264.255
L87.1755 264.037
L87.3661 263.929
L87.4625 263.741
L87.6567 263.641
L87.7531 263.438
L87.9487 263.328
L88.0443 263.102
L88.1421 263.102
L88.2378 262.868
L88.3359 262.868
L88.4322 262.618
L88.5292 262.618
L88.6268 262.364
L88.722 262.364
L88.8158 262.119
L88.9152 262.119
L89.0116 261.878
L89.1077 261.878
L89.2019 261.647
L89.2979 261.647
L89.3943 261.413
L89.4915 261.413
L89.5835 261.193
L89.7784 261.083
L89.8774 260.869
L89.9733 260.869
L90.0699 260.632
L90.1666 260.632
L90.2635 260.418
L90.4566 260.321
L90.5521 260.13
L90.7496 260.033
L90.844 259.829
L91.0374 259.728
L91.1346 259.53
L91.3246 259.431
L91.4237 259.235
L91.6163 259.135
L91.7147 258.922
L91.9077 258.813
L92.0063 258.604
L92.2008 258.5
L92.295 258.275
L92.3935 258.275
L92.491 258.032
L92.5893 258.032
L92.6846 257.792
L92.781 257.792
L92.879 257.557
L92.9755 257.557
L93.0719 257.328
L93.1659 257.328
L93.2648 257.085
L93.3623 257.085
L93.4557 256.834
L93.5534 256.834
L93.6484 256.572
L93.745 256.572
L93.8429 256.309
L93.9408 256.309
L94.037 256.062
L94.1383 256.062
L94.2314 255.813
L94.331 255.813
L94.4291 255.548
L94.5266 255.548
L94.623 255.28
L94.7183 255.28
L94.8162 255.009
L94.9142 255.009
L95.0127 254.728
L95.1089 254.728
L95.2058 254.454
L95.301 254.454
L95.3963 254.188
L95.4929 254.188
L95.5899 253.92
L95.6857 253.92
L95.7842 253.664
L95.8813 253.664
L95.9773 253.42
L96.0751 253.42
L96.174 253.18
L96.2723 253.18
L96.3712 252.947
L96.4691 252.947
L96.5672 252.696
L96.6649 252.696
L96.7616 252.443
L96.86 252.443
L96.9561 252.191
L97.0577 252.191
L97.1552 251.929
L97.2534 251.929
L97.3509 251.669
L97.4485 251.669
L97.5475 251.401
L97.6432 251.401
L97.7389 251.134
L97.8359 251.134
L97.9349 250.868
L98.0333 250.868
L98.1286 250.612
L98.2279 250.612
L98.3233 250.371
L98.5201 250.261
L98.6156 250.045
L98.8127 249.946
L98.9104 249.749
L99.1077 249.653
L99.2047 249.451
L99.4015 249.355
L99.5005 249.154
L99.6951 249.048
L99.7923 248.843
L99.9853 248.74
L100.082 248.519
L100.275 248.414
L100.374 248.203
L100.568 248.099
L100.668 247.893
L100.861 247.795
L100.959 247.587
L101.154 247.479
L101.249 247.243
L101.344 247.243
L101.442 246.998
L101.54 246.998
L101.64 246.741
L101.74 246.741
L101.839 246.478
L101.938 246.478
L102.035 246.229
L102.135 246.229
L102.231 245.992
L102.328 245.992
L102.424 245.771
L102.523 245.771
L102.62 245.55
L102.719 245.55
L102.818 245.318
L102.917 245.318
L103.016 245.083
L103.112 245.083
L103.209 244.844
L103.306 244.844
L103.405 244.587
L103.502 244.587
L103.599 244.327
L103.693 244.327
L103.791 244.07
L103.887 244.07
L103.986 243.81
L104.085 243.81
L104.183 243.55
L104.281 243.55
L104.379 243.296
L104.478 243.296
L104.576 243.038
L104.675 243.038
L104.772 242.771
L104.869 242.771
L104.967 242.508
L105.068 242.508
L105.165 242.239
L105.265 242.239
L105.361 241.996
L105.461 241.996
L105.556 241.761
L105.655 241.761
L105.752 241.532
L105.947 241.428
L106.045 241.199
L106.143 241.199
L106.242 240.965
L106.339 240.965
L106.439 240.735
L106.539 240.735
L106.637 240.505
L106.733 240.505
L106.835 240.269
L106.935 240.269
L107.031 240.03
L107.129 240.03
L107.227 239.799
L107.325 239.799
L107.425 239.557
L107.522 239.557
L107.621 239.308
L107.72 239.308
L107.818 239.069
L108.015 238.963
L108.114 238.729
L108.212 238.729
L108.309 238.503
L108.504 238.394
L108.603 238.174
L108.798 238.066
L108.896 237.843
L108.998 237.843
L109.099 237.612
L109.297 237.502
L109.395 237.281
L109.591 237.18
L109.686 236.993
L109.881 236.894
L109.979 236.688
L110.175 236.586
L110.273 236.373
L110.469 236.264
L110.568 236.051
L110.766 235.944
L110.864 235.726
L111.062 235.617
L111.162 235.403
L111.358 235.301
L111.453 235.109
L111.65 235.01
L111.749 234.815
L111.947 234.722
L112.045 234.527
L112.243 234.431
L112.341 234.236
L112.538 234.133
L112.638 233.94
L112.835 233.84
L112.934 233.645
L113.134 233.552
L113.231 233.37
L113.426 233.28
L113.525 233.108
L113.721 233.02
L113.821 232.849
L114.023 232.761
L114.122 232.595
L114.319 232.515
L114.415 232.361
L114.613 232.283
L114.71 232.135
L114.909 232.06
L115.011 231.907
L115.207 231.835
L115.304 231.691
L115.502 231.615
L115.6 231.47
L115.799 231.398
L115.898 231.244
L116.092 231.169
L116.191 231.011
L116.386 230.932
L116.486 230.774
L116.685 230.696
L116.785 230.549
L116.983 230.478
L117.078 230.339
L117.274 230.268
L117.371 230.133
L117.57 230.066
L117.667 229.929
L117.865 229.86
L117.964 229.736
L118.166 229.673
L118.267 229.548
L118.563 229.438
L118.663 229.338
L118.956 229.246
L119.054 229.151
L119.352 229.057
L119.447 228.961
L119.746 228.856
L119.841 228.759
L120.137 228.666
L120.237 228.581
L120.533 228.497
L120.631 228.416
L120.932 228.331
L121.031 228.244
L121.332 228.16
L121.429 228.08
L121.731 227.987
L121.827 227.892
L122.127 227.788
L122.222 227.683
L122.415 227.622
L122.517 227.493
L122.719 227.423
L122.818 227.278
L123.018 227.202
L123.119 227.061
L123.319 226.997
L123.419 226.87
L123.617 226.809
L123.713 226.695
L123.909 226.635
L124.009 226.517
L124.205 226.462
L124.307 226.347
L124.605 226.241
L124.707 226.143
L125.007 226.051
L125.109 225.969
L125.406 225.895
L125.504 225.804
L125.799 225.711
L125.897 225.62
L126.201 225.533
L126.296 225.439
L126.596 225.329
L126.697 225.217
L126.895 225.159
L126.993 225.04
L127.196 224.981
L127.293 224.866
L127.493 224.809
L127.591 224.696
L127.791 224.638
L127.89 224.521
L128.09 224.458
L128.193 224.334
L128.39 224.276
L128.489 224.165
L128.69 224.108
L128.791 223.996
L129.09 223.886
L129.189 223.776
L129.486 223.671
L129.586 223.565
L129.881 223.458
L129.978 223.351
L130.183 223.295
L130.282 223.188
L130.587 223.086
L130.688 222.977
L130.885 222.92
L130.987 222.81
L131.283 222.714
L131.385 222.615
L131.682 222.523
L131.779 222.439
L132.079 222.359
L132.178 222.275
L132.479 222.187
L132.576 222.098
L132.876 222.001
L132.975 221.905
L133.273 221.811
L133.374 221.716
L133.673 221.624
L133.774 221.533
L134.076 221.435
L134.178 221.337
L134.478 221.243
L134.579 221.142
L134.878 221.038
L134.979 220.923
L135.283 220.813
L135.38 220.705
L135.68 220.596
L135.78 220.483
L136.08 220.374
L136.18 220.279
L136.474 220.188
L136.575 220.099
L136.876 220.018
L136.977 219.932
L137.278 219.842
L137.378 219.752
L137.681 219.663
L137.783 219.575
L138.078 219.491
L138.178 219.405
L138.48 219.325
L138.58 219.249
L138.884 219.172
L138.984 219.099
L139.383 218.998
L139.483 218.928
L139.886 218.823
L139.985 218.76
L140.482 218.653
L140.586 218.601
L141.187 218.495
L141.29 218.458
L142.089 218.354
L142.188 218.323
L143.189 218.215
L143.285 218.185
L143.895 218.085
L143.996 218.035
L144.504 217.933
L144.606 217.879
L145.11 217.775
L145.21 217.723
L145.716 217.628
L145.815 217.584
L146.416 217.476
L146.516 217.431
L147.015 217.338
L147.118 217.286
L147.621 217.175
L147.721 217.119
L148.124 217.028
L148.225 216.973
L148.727 216.865
L148.826 216.796
L149.231 216.692
L149.334 216.62
L149.733 216.516
L149.833 216.444
L150.236 216.333
L150.34 216.259
L150.739 216.151
L150.843 216.08
L151.246 215.978
L151.347 215.917
L151.75 215.83
L151.85 215.776
L152.358 215.679
L152.46 215.627
L152.961 215.523
L153.065 215.474
L153.467 215.387
L153.57 215.324
L153.974 215.233
L154.077 215.168
L154.478 215.077
L154.576 215.014
L154.976 214.915
L155.079 214.848
L155.481 214.746
L155.582 214.675
L155.888 214.599
L155.99 214.529
L156.392 214.423
L156.494 214.354
L156.897 214.256
L156.996 214.19
L157.398 214.085
L157.501 214.021
L157.907 213.919
L158.01 213.855
L158.416 213.757
L158.517 213.689
L158.923 213.593
L159.023 213.528
L159.43 213.428
L159.53 213.358
L159.943 213.25
L160.044 213.181
L160.452 213.076
L160.552 213.006
L160.954 212.906
L161.055 212.844
L161.462 212.754
L161.563 212.699
L161.968 212.612
L162.072 212.554
L162.576 212.447
L162.677 212.398
L163.18 212.293
L163.283 212.237
L163.686 212.146
L163.789 212.088
L164.194 211.994
L164.298 211.933
L164.703 211.845
L164.806 211.786
L165.214 211.698
L165.315 211.646
L165.819 211.555
L165.917 211.511
L166.526 211.402
L166.626 211.364
L167.235 211.26
L167.339 211.217
L167.951 211.116
L168.054 211.071
L168.558 210.978
L168.66 210.931
L169.169 210.84
L169.268 210.799
L169.877 210.689
L169.979 210.643
L170.492 210.538
L170.594 210.486
L171.1 210.388
L171.201 210.343
L171.813 210.239
L171.912 210.2
L172.627 210.094
L172.723 210.061
L173.342 209.954
L173.443 209.912
L174.051 209.804
L174.149 209.769
L174.865 209.663
L174.969 209.619
L175.476 209.517
L175.575 209.47
L176.192 209.362
L176.292 209.32
L176.799 209.223
L176.901 209.173
L177.411 209.074
L177.512 209.02
L178.025 208.92
L178.126 208.868
L178.64 208.763
L178.741 208.713
L179.252 208.607
L179.354 208.553
L179.764 208.461
L179.866 208.403
L180.276 208.318
L180.382 208.262
L180.887 208.153
L180.988 208.101
L181.504 207.998
L181.607 207.942
L182.117 207.836
L182.219 207.785
L182.729 207.689
L182.829 207.65
L183.447 207.557
L183.549 207.513
L184.05 207.423
L184.154 207.374
L184.66 207.276
L184.76 207.222
L185.272 207.115
L185.372 207.065
L185.882 206.959
L185.985 206.911
L186.495 206.809
L186.601 206.754
L187.012 206.669
L187.112 206.609
L187.519 206.518
L187.622 206.455
L188.029 206.362
L188.129 206.298
L188.542 206.21
L188.642 206.157
L189.05 206.068
L189.153 206.007
L189.567 205.92
L189.668 205.868
L190.087 205.776
L190.186 205.713
L190.6 205.616
L190.701 205.548
L191.108 205.446
L191.211 205.378
L191.623 205.271
L191.726 205.192
L192.039 205.111
L192.143 205.027
L192.448 204.945
L192.55 204.869
L192.96 204.759
L193.062 204.685
L193.372 204.608
L193.475 204.53
L193.781 204.453
L193.882 204.38
L194.294 204.273
L194.395 204.198
L194.702 204.118
L194.808 204.041
L195.117 203.965
L195.215 203.891
L195.627 203.783
L195.732 203.71
L196.142 203.609
L196.243 203.542
L196.654 203.444
L196.757 203.382
L197.166 203.288
L197.268 203.222
L197.676 203.118
L197.78 203.051
L198.191 202.949
L198.295 202.877
L198.707 202.773
L198.809 202.705
L199.222 202.604
L199.325 202.541
L199.732 202.452
L199.835 202.388
L200.251 202.286
L200.353 202.224
L200.762 202.139
L200.867 202.082
L201.275 201.996
L201.378 201.939
L201.785 201.845
L201.888 201.784
L202.299 201.691
L202.403 201.626
L202.817 201.521
L202.921 201.449
L203.333 201.342
L203.436 201.269
L203.844 201.161
L203.95 201.088
L204.358 200.982
L204.462 200.914
L204.88 200.809
L204.981 200.736
L205.397 200.629
L205.5 200.557
L205.919 200.449
L206.022 200.385
L206.436 200.293
L206.539 200.232
L206.956 200.144
L207.06 200.085
L207.471 199.996
L207.575 199.944
L208.087 199.846
L208.193 199.792
L208.611 199.705
L208.713 199.648
L209.126 199.56
L209.231 199.505
L209.64 199.415
L209.739 199.354
L210.155 199.267
L210.259 199.21
L210.673 199.121
L210.779 199.066
L211.191 198.977
L211.293 198.918
L211.705 198.831
L211.808 198.77
L212.219 198.678
L212.322 198.614
L212.738 198.519
L212.841 198.453
L213.254 198.359
L213.359 198.296
L213.772 198.202
L213.874 198.139
L214.285 198.053
L214.389 197.997
L214.909 197.891
L215.013 197.837
L215.527 197.732
L215.633 197.677
L216.148 197.573
L216.254 197.516
L216.664 197.428
L216.764 197.374
L217.175 197.283
L217.281 197.222
L217.695 197.129
L217.797 197.068
L218.214 196.977
L218.315 196.92
L218.731 196.833
L218.836 196.772
L219.249 196.68
L219.353 196.622
L219.769 196.532
L219.877 196.471
L220.292 196.382
L220.393 196.323
L220.807 196.233
L220.908 196.172
L221.318 196.084
L221.42 196.023
L221.841 195.928
L221.945 195.859
L222.357 195.752
L222.459 195.682
L222.876 195.578
L222.979 195.508
L223.392 195.403
L223.496 195.328
L223.807 195.253
L223.907 195.181
L224.219 195.106
L224.324 195.03
L224.637 194.953
L224.739 194.873
L225.053 194.793
L225.157 194.717
L225.469 194.64
L225.573 194.567
L225.982 194.458
L226.088 194.386
L226.5 194.284
L226.602 194.218
L227.014 194.121
L227.114 194.058
L227.531 193.957
L227.636 193.892
L228.049 193.799
L228.155 193.742
L228.571 193.659
L228.675 193.601
L229.092 193.517
L229.195 193.461
L229.607 193.375
L229.706 193.32
L230.119 193.236
L230.223 193.18
L230.639 193.095
L230.745 193.032
L231.16 192.94
L231.263 192.88
L231.677 192.79
L231.782 192.732
L232.194 192.647
L232.295 192.594
L232.812 192.485
L232.915 192.43
L233.33 192.343
L233.43 192.288
L233.948 192.177
L234.051 192.122
L234.469 192.037
L234.573 191.985
L235.093 191.887
L235.198 191.838
L235.723 191.738
L235.827 191.684
L236.349 191.576
L236.451 191.524
L236.972 191.43
L237.077 191.383
L237.693 191.273
L237.797 191.226
L238.319 191.129
L238.423 191.082
L238.946 190.983
L239.052 190.936
L239.573 190.846
L239.671 190.802
L240.292 190.694
L240.395 190.65
L241.025 190.545
L241.131 190.5
L241.65 190.41
L241.755 190.364
L242.382 190.257
L242.486 190.215
L243.112 190.112
L243.219 190.07
L243.842 189.968
L243.945 189.927
L244.475 189.838
L244.579 189.794
L245.2 189.685
L245.303 189.642
L245.933 189.538
L246.038 189.497
L246.771 189.388
L246.877 189.357
L247.599 189.259
L247.702 189.225
L248.433 189.122
L248.538 189.086
L249.269 188.986
L249.373 188.952
L250.208 188.85
L250.311 188.824
L251.153 188.722
L251.259 188.689
L251.99 188.589
L252.095 188.554
L252.827 188.456
L252.931 188.427
L253.764 188.322
L253.868 188.288
L254.597 188.183
L254.703 188.144
L255.439 188.037
L255.547 188.004
L256.275 187.906
L256.377 187.875
L257.113 187.781
L257.218 187.747
L257.947 187.645
L258.05 187.61
L258.68 187.508
L258.786 187.466
L259.415 187.364
L259.516 187.323
L260.141 187.22
L260.246 187.179
L260.874 187.082
L260.978 187.045
L261.712 186.936
L261.816 186.9
L262.549 186.792
L262.653 186.757
L263.376 186.651
L263.479 186.617
L264.21 186.516
L264.315 186.482
L265.046 186.381
L265.149 186.349
L265.781 186.256
L265.885 186.216
L266.614 186.108
L266.724 186.075
L267.457 185.976
L267.564 185.943
L268.406 185.833
L268.509 185.804
L269.349 185.699
L269.45 185.671
L270.393 185.565
L270.498 185.539
L271.337 185.44
L271.44 185.411
L272.392 185.304
L272.498 185.28
L273.752 185.172
L273.859 185.151
L275.013 185.047
L275.117 185.026
L276.174 184.926
L276.28 184.904
L277.546 184.8
L277.649 184.779
L278.806 184.672
L278.911 184.65
L280.071 184.544
L280.174 184.523
L281.437 184.416
L281.545 184.394
L282.806 184.288
L282.913 184.269
L283.963 184.169
L284.069 184.145
L285.006 184.04
L285.113 184.012
L285.953 183.908
L286.059 183.879
L287.002 183.772
L287.107 183.747
L288.057 183.639
L288.16 183.611
L289.006 183.504
L289.109 183.475
L289.955 183.368
L290.06 183.339
L291.006 183.237
L291.112 183.212
L291.949 183.109
L292.057 183.073
L292.8 182.965
L292.908 182.935
L293.753 182.828
L293.856 182.797
L294.694 182.688
L294.799 182.658
L295.644 182.549
L295.748 182.52
L296.595 182.419
L296.7 182.393
L297.751 182.287
L297.857 182.264
L299.021 182.157
L299.125 182.135
L300.289 182.032
L300.395 182.013
L301.766 181.902
L301.873 181.885
L303.246 181.781
L303.351 181.763
L304.615 181.658
L304.718 181.638
L305.894 181.536
L305.999 181.515
L307.378 181.404
L307.479 181.388
L308.961 181.278
L309.066 181.261
L310.342 181.151
L310.45 181.13
L311.608 181.027
L311.717 181.006
L312.892 180.895
L312.992 180.874
L314.259 180.77
L314.364 180.753
L316.064 180.643
L316.169 180.629
L317.539 180.526
L317.643 180.505
L318.81 180.4
L318.914 180.379
L320.079 180.269
L320.182 180.244
L321.251 180.137
L321.357 180.114
L322.511 180.009
L322.615 179.987
L323.573 179.887
L323.681 179.859
L324.741 179.757
L324.844 179.739
L326.327 179.631
L326.434 179.613
L327.93 179.508
L328.034 179.492
L329.31 179.389
L329.414 179.367
L330.689 179.258
L330.796 179.236
L331.855 179.134
L331.961 179.112
L333.017 179.009
L333.125 178.986
L334.404 178.88
L334.511 178.865
L336.22 178.758
L336.326 178.745
L338.879 178.635
L338.984 178.627
L341.429 178.521
L341.533 178.508
L343.128 178.405
L343.232 178.388
L344.613 178.279
L344.723 178.258
L346.012 178.15
L346.116 178.131
L347.507 178.024
L347.611 178.007
L348.893 177.897
L348.996 177.876
L350.274 177.766
L350.38 177.746
L351.979 177.641
L352.085 177.626
L353.903 177.52
L354.006 177.506
L356.357 177.396
L356.462 177.387
L358.38 177.278
L358.487 177.262
L360.08 177.153
L360.185 177.136
L361.468 177.025
L361.575 177.008
L362.972 176.899
L363.078 176.88
L364.257 176.777
L364.365 176.757
L365.543 176.655
L365.648 176.636
L367.038 176.528
L367.144 176.512
L368.643 176.408
L368.752 176.392
L370.24 176.286
L370.346 176.267
L371.517 176.161
L371.622 176.139
L372.689 176.034
L372.798 176.011
L374.081 175.901
L374.188 175.882
L375.583 175.776
L375.687 175.758
L377.182 175.652
L377.29 175.635
L378.891 175.528
L378.997 175.513
L380.496 175.41
L380.605 175.391
L382 175.282
L382.107 175.263
L383.394 175.156
L383.503 175.134
L384.579 175.03
L384.686 175.01
L385.973 174.9
L386.078 174.879
L387.262 174.768
L387.369 174.745
L388.431 174.635
L388.54 174.611
L389.611 174.501
L389.715 174.476
L390.689 174.376
L390.797 174.348
L391.658 174.25
L391.763 174.223
L392.723 174.115
L392.829 174.088
L393.793 173.987
L393.793 173.974
L394.877 173.87
L394.984 173.85
L396.165 173.748
L396.271 173.728
L397.669 173.617
L397.778 173.598
L399.164 173.494
L399.27 173.477
L400.676 173.371
L400.784 173.352
L402.06 173.242
L402.17 173.219
L403.134 173.118
L403.244 173.093
L404.213 172.992
L404.322 172.966
L405.395 172.856
L405.501 172.831
L406.466 172.731
L406.574 172.707
L407.654 172.596
L407.762 172.573
L408.841 172.471
L408.946 172.449
L410.128 172.344
L410.237 172.325
L411.532 172.221
L411.532 172.211
L412.828 172.103
L412.935 172.082
L414.23 171.977
L414.333 171.961
L415.84 171.851
L415.949 171.835
L417.35 171.725
L417.454 171.707
L418.85 171.597
L418.956 171.579
L420.361 171.475
L420.466 171.459
L421.861 171.357
L421.97 171.338
L423.378 171.229
L423.483 171.214
L424.891 171.109
L424.891 171.099
L426.19 170.996
L426.299 170.979
L427.802 170.872
L427.909 170.857
L429.641 170.752
L429.75 170.737
L431.475 170.63
L431.583 170.617
L433.856 170.508
L433.856 170.504
L437.101 170.393
L437.21 170.388
L440.559 170.277
L440.665 170.271
L444.129 170.162
L444.232 170.156
L448.002 170.046
L448.108 170.04
L473.584 170.15
L473.692 170.152
L488.901 170.041
L489.01 170.036
L495.111 169.925
L495.216 169.924
L501.09 169.814
L501.199 169.809
L505.009 169.699
L505.119 169.692
L507.736 169.584
L507.842 169.576
L512.649 169.466
L512.649 169.464
L527.588 169.353
L527.698 169.349
L530.978 169.239
L531.083 169.23
L533.258 169.122
L533.368 169.108
L535.224 169.001
L535.334 168.987
L536.976 168.883
L537.086 168.868
L538.835 168.759
L538.835 168.752
L540.48 168.647
L540.48 168.64
L542.129 168.534
L542.129 168.526
L543.545 168.422
L543.545 168.413
L545.187 168.303
L545.187 168.295
L545.187 168.295" style="fill:none;stroke:#ff0000;stroke-width:0.5;"/>
   </g>
   <g id="matplotlib.axis_1">
    <g id="xtick_1">
     <g id="line2d_2">
      <defs>
       <path d="
M0 0
L0 -4" id="mf245d0a6b0"/>
      </defs>
      <g>
       <use style="stroke:#000000;stroke-linecap:butt;stroke-width:0.5;" x="29.6609375" xlink:href="#mf245d0a6b0" y="15.0092307692"/>
      </g>
     </g>
    </g>
    <g id="xtick_2">
     <g id="line2d_3">
      <defs>
       <path d="
M0 0
L0 -4" id="mf245d0a6b0"/>
      </defs>
      <g>
       <use style="stroke:#000000;stroke-linecap:butt;stroke-width:0.5;" x="132.772084316" xlink:href="#mf245d0a6b0" y="15.0092307692"/>
      </g>
     </g>
     <g id="text_1">
      <!-- 2e7 -->
      <defs>
       <path d="
M19.1875 8.29688
L53.6094 8.29688
L53.6094 0
L7.32812 0
L7.32812 8.29688
Q12.9375 14.1094 22.625 23.8906
Q32.3281 33.6875 34.8125 36.5312
Q39.5469 41.8438 41.4219 45.5312
Q43.3125 49.2188 43.3125 52.7812
Q43.3125 58.5938 39.2344 62.25
Q35.1562 65.9219 28.6094 65.9219
Q23.9688 65.9219 18.8125 64.3125
Q13.6719 62.7031 7.8125 59.4219
L7.8125 69.3906
Q13.7656 71.7812 18.9375 73
Q24.125 74.2188 28.4219 74.2188
Q39.75 74.2188 46.4844 68.5469
Q53.2188 62.8906 53.2188 53.4219
Q53.2188 48.9219 51.5312 44.8906
Q49.8594 40.875 45.4062 35.4062
Q44.1875 33.9844 37.6406 27.2188
Q31.1094 20.4531 19.1875 8.29688" id="BitstreamVeraSans-Roman-32"/>
       <path d="
M56.2031 29.5938
L56.2031 25.2031
L14.8906 25.2031
Q15.4844 15.9219 20.4844 11.0625
Q25.4844 6.20312 34.4219 6.20312
Q39.5938 6.20312 44.4531 7.46875
Q49.3125 8.73438 54.1094 11.2812
L54.1094 2.78125
Q49.2656 0.734375 44.1875 -0.34375
Q39.1094 -1.42188 33.8906 -1.42188
Q20.7969 -1.42188 13.1562 6.1875
Q5.51562 13.8125 5.51562 26.8125
Q5.51562 40.2344 12.7656 48.1094
Q20.0156 56 32.3281 56
Q43.3594 56 49.7812 48.8906
Q56.2031 41.7969 56.2031 29.5938
M47.2188 32.2344
Q47.125 39.5938 43.0938 43.9844
Q39.0625 48.3906 32.4219 48.3906
Q24.9062 48.3906 20.3906 44.1406
Q15.875 39.8906 15.1875 32.1719
z
" id="BitstreamVeraSans-Roman-65"/>
       <path d="
M8.20312 72.9062
L55.0781 72.9062
L55.0781 68.7031
L28.6094 0
L18.3125 0
L43.2188 64.5938
L8.20312 64.5938
z
" id="BitstreamVeraSans-Roman-37"/>
      </defs>
      <g transform="translate(124.126771816 26.4311057692)scale(0.1 -0.1)">
       <use xlink:href="#BitstreamVeraSans-Roman-32"/>
       <use x="63.623046875" xlink:href="#BitstreamVeraSans-Roman-65"/>
       <use x="125.146484375" xlink:href="#BitstreamVeraSans-Roman-37"/>
      </g>
     </g>
    </g>
    <g id="xtick_3">
     <g id="line2d_4">
      <defs>
       <path d="
M0 0
L0 -4" id="mf245d0a6b0"/>
      </defs>
      <g>
       <use style="stroke:#000000;stroke-linecap:butt;stroke-width:0.5;" x="235.883231132" xlink:href="#mf245d0a6b0" y="15.0092307692"/>
      </g>
     </g>
     <g id="text_2">
      <!-- 4e7 -->
      <defs>
       <path d="
M37.7969 64.3125
L12.8906 25.3906
L37.7969 25.3906
z

M35.2031 72.9062
L47.6094 72.9062
L47.6094 25.3906
L58.0156 25.3906
L58.0156 17.1875
L47.6094 17.1875
L47.6094 0
L37.7969 0
L37.7969 17.1875
L4.89062 17.1875
L4.89062 26.7031
z
" id="BitstreamVeraSans-Roman-34"/>
      </defs>
      <g transform="translate(227.116043632 26.2998557692)scale(0.1 -0.1)">
       <use xlink:href="#BitstreamVeraSans-Roman-34"/>
       <use x="63.623046875" xlink:href="#BitstreamVeraSans-Roman-65"/>
       <use x="125.146484375" xlink:href="#BitstreamVeraSans-Roman-37"/>
      </g>
     </g>
    </g>
    <g id="xtick_4">
     <g id="line2d_5">
      <defs>
       <path d="
M0 0
L0 -4" id="mf245d0a6b0"/>
      </defs>
      <g>
       <use style="stroke:#000000;stroke-linecap:butt;stroke-width:0.5;" x="338.994377947" xlink:href="#mf245d0a6b0" y="15.0092307692"/>
      </g>
     </g>
     <g id="text_3">
      <!-- 6e7 -->
      <defs>
       <path d="
M33.0156 40.375
Q26.375 40.375 22.4844 35.8281
Q18.6094 31.2969 18.6094 23.3906
Q18.6094 15.5312 22.4844 10.9531
Q26.375 6.39062 33.0156 6.39062
Q39.6562 6.39062 43.5312 10.9531
Q47.4062 15.5312 47.4062 23.3906
Q47.4062 31.2969 43.5312 35.8281
Q39.6562 40.375 33.0156 40.375
M52.5938 71.2969
L52.5938 62.3125
Q48.875 64.0625 45.0938 64.9844
Q41.3125 65.9219 37.5938 65.9219
Q27.8281 65.9219 22.6719 59.3281
Q17.5312 52.7344 16.7969 39.4062
Q19.6719 43.6562 24.0156 45.9219
Q28.375 48.1875 33.5938 48.1875
Q44.5781 48.1875 50.9531 41.5156
Q57.3281 34.8594 57.3281 23.3906
Q57.3281 12.1562 50.6875 5.35938
Q44.0469 -1.42188 33.0156 -1.42188
Q20.3594 -1.42188 13.6719 8.26562
Q6.98438 17.9688 6.98438 36.375
Q6.98438 53.6562 15.1875 63.9375
Q23.3906 74.2188 37.2031 74.2188
Q40.9219 74.2188 44.7031 73.4844
Q48.4844 72.75 52.5938 71.2969" id="BitstreamVeraSans-Roman-36"/>
      </defs>
      <g transform="translate(330.331877947 26.4311057692)scale(0.1 -0.1)">
       <use xlink:href="#BitstreamVeraSans-Roman-36"/>
       <use x="63.623046875" xlink:href="#BitstreamVeraSans-Roman-65"/>
       <use x="125.146484375" xlink:href="#BitstreamVeraSans-Roman-37"/>
      </g>
     </g>
    </g>
    <g id="xtick_5">
     <g id="line2d_6">
      <defs>
       <path d="
M0 0
L0 -4" id="mf245d0a6b0"/>
      </defs>
      <g>
       <use style="stroke:#000000;stroke-linecap:butt;stroke-width:0.5;" x="442.105524763" xlink:href="#mf245d0a6b0" y="15.0092307692"/>
      </g>
     </g>
     <g id="text_4">
      <!-- 8e7 -->
      <defs>
       <path d="
M31.7812 34.625
Q24.75 34.625 20.7188 30.8594
Q16.7031 27.0938 16.7031 20.5156
Q16.7031 13.9219 20.7188 10.1562
Q24.75 6.39062 31.7812 6.39062
Q38.8125 6.39062 42.8594 10.1719
Q46.9219 13.9688 46.9219 20.5156
Q46.9219 27.0938 42.8906 30.8594
Q38.875 34.625 31.7812 34.625
M21.9219 38.8125
Q15.5781 40.375 12.0312 44.7188
Q8.5 49.0781 8.5 55.3281
Q8.5 64.0625 14.7188 69.1406
Q20.9531 74.2188 31.7812 74.2188
Q42.6719 74.2188 48.875 69.1406
Q55.0781 64.0625 55.0781 55.3281
Q55.0781 49.0781 51.5312 44.7188
Q48 40.375 41.7031 38.8125
Q48.8281 37.1562 52.7969 32.3125
Q56.7812 27.4844 56.7812 20.5156
Q56.7812 9.90625 50.3125 4.23438
Q43.8438 -1.42188 31.7812 -1.42188
Q19.7344 -1.42188 13.25 4.23438
Q6.78125 9.90625 6.78125 20.5156
Q6.78125 27.4844 10.7812 32.3125
Q14.7969 37.1562 21.9219 38.8125
M18.3125 54.3906
Q18.3125 48.7344 21.8438 45.5625
Q25.3906 42.3906 31.7812 42.3906
Q38.1406 42.3906 41.7188 45.5625
Q45.3125 48.7344 45.3125 54.3906
Q45.3125 60.0625 41.7188 63.2344
Q38.1406 66.4062 31.7812 66.4062
Q25.3906 66.4062 21.8438 63.2344
Q18.3125 60.0625 18.3125 54.3906" id="BitstreamVeraSans-Roman-38"/>
      </defs>
      <g transform="translate(433.432868513 26.4311057692)scale(0.1 -0.1)">
       <use xlink:href="#BitstreamVeraSans-Roman-38"/>
       <use x="63.623046875" xlink:href="#BitstreamVeraSans-Roman-65"/>
       <use x="125.146484375" xlink:href="#BitstreamVeraSans-Roman-37"/>
      </g>
     </g>
    </g>
    <g id="xtick_6">
     <g id="line2d_7">
      <defs>
       <path d="
M0 0
L0 -4" id="mf245d0a6b0"/>
      </defs>
      <g>
       <use style="stroke:#000000;stroke-linecap:butt;stroke-width:0.5;" x="545.216671579" xlink:href="#mf245d0a6b0" y="15.0092307692"/>
      </g>
     </g>
     <g id="text_5">
      <!-- 1e8 -->
      <defs>
       <path d="
M12.4062 8.29688
L28.5156 8.29688
L28.5156 63.9219
L10.9844 60.4062
L10.9844 69.3906
L28.4219 72.9062
L38.2812 72.9062
L38.2812 8.29688
L54.3906 8.29688
L54.3906 0
L12.4062 0
z
" id="BitstreamVeraSans-Roman-31"/>
      </defs>
      <g transform="translate(536.669015329 26.4311057692)scale(0.1 -0.1)">
       <use xlink:href="#BitstreamVeraSans-Roman-31"/>
       <use x="63.623046875" xlink:href="#BitstreamVeraSans-Roman-65"/>
       <use x="125.146484375" xlink:href="#BitstreamVeraSans-Roman-38"/>
      </g>
     </g>
    </g>
    <g id="xtick_7">
     <g id="line2d_8">
      <defs>
       <path d="
M0 0
L0 -2" id="m5153cf3988"/>
      </defs>
      <g>
       <use style="stroke:#000000;stroke-linecap:butt;stroke-width:0.5;" x="55.4387242039" xlink:href="#m5153cf3988" y="15.0092307692"/>
      </g>
     </g>
    </g>
    <g id="xtick_8">
     <g id="line2d_9">
      <defs>
       <path d="
M0 0
L0 -2" id="m5153cf3988"/>
      </defs>
      <g>
       <use style="stroke:#000000;stroke-linecap:butt;stroke-width:0.5;" x="81.2165109079" xlink:href="#m5153cf3988" y="15.0092307692"/>
      </g>
     </g>
    </g>
    <g id="xtick_9">
     <g id="line2d_10">
      <defs>
       <path d="
M0 0
L0 -2" id="m5153cf3988"/>
      </defs>
      <g>
       <use style="stroke:#000000;stroke-linecap:butt;stroke-width:0.5;" x="106.994297612" xlink:href="#m5153cf3988" y="15.0092307692"/>
      </g>
     </g>
    </g>
    <g id="xtick_10">
     <g id="line2d_11">
      <defs>
       <path d="
M0 0
L0 -2" id="m5153cf3988"/>
      </defs>
      <g>
       <use style="stroke:#000000;stroke-linecap:butt;stroke-width:0.5;" x="158.54987102" xlink:href="#m5153cf3988" y="15.0092307692"/>
      </g>
     </g>
    </g>
    <g id="xtick_11">
     <g id="line2d_12">
      <defs>
       <path d="
M0 0
L0 -2" id="m5153cf3988"/>
      </defs>
      <g>
       <use style="stroke:#000000;stroke-linecap:butt;stroke-width:0.5;" x="184.327657724" xlink:href="#m5153cf3988" y="15.0092307692"/>
      </g>
     </g>
    </g>
    <g id="xtick_12">
     <g id="line2d_13">
      <defs>
       <path d="
M0 0
L0 -2" id="m5153cf3988"/>
      </defs>
      <g>
       <use style="stroke:#000000;stroke-linecap:butt;stroke-width:0.5;" x="210.105444428" xlink:href="#m5153cf3988" y="15.0092307692"/>
      </g>
     </g>
    </g>
    <g id="xtick_13">
     <g id="line2d_14">
      <defs>
       <path d="
M0 0
L0 -2" id="m5153cf3988"/>
      </defs>
      <g>
       <use style="stroke:#000000;stroke-linecap:butt;stroke-width:0.5;" x="261.661017835" xlink:href="#m5153cf3988" y="15.0092307692"/>
      </g>
     </g>
    </g>
    <g id="xtick_14">
     <g id="line2d_15">
      <defs>
       <path d="
M0 0
L0 -2" id="m5153cf3988"/>
      </defs>
      <g>
       <use style="stroke:#000000;stroke-linecap:butt;stroke-width:0.5;" x="287.438804539" xlink:href="#m5153cf3988" y="15.0092307692"/>
      </g>
     </g>
    </g>
    <g id="xtick_15">
     <g id="line2d_16">
      <defs>
       <path d="
M0 0
L0 -2" id="m5153cf3988"/>
      </defs>
      <g>
       <use style="stroke:#000000;stroke-linecap:butt;stroke-width:0.5;" x="313.216591243" xlink:href="#m5153cf3988" y="15.0092307692"/>
      </g>
     </g>
    </g>
    <g id="xtick_16">
     <g id="line2d_17">
      <defs>
       <path d="
M0 0
L0 -2" id="m5153cf3988"/>
      </defs>
      <g>
       <use style="stroke:#000000;stroke-linecap:butt;stroke-width:0.5;" x="364.772164651" xlink:href="#m5153cf3988" y="15.0092307692"/>
      </g>
     </g>
    </g>
    <g id="xtick_17">
     <g id="line2d_18">
      <defs>
       <path d="
M0 0
L0 -2" id="m5153cf3988"/>
      </defs>
      <g>
       <use style="stroke:#000000;stroke-linecap:butt;stroke-width:0.5;" x="390.549951355" xlink:href="#m5153cf3988" y="15.0092307692"/>
      </g>
     </g>
    </g>
    <g id="xtick_18">
     <g id="line2d_19">
      <defs>
       <path d="
M0 0
L0 -2" id="m5153cf3988"/>
      </defs>
      <g>
       <use style="stroke:#000000;stroke-linecap:butt;stroke-width:0.5;" x="416.327738059" xlink:href="#m5153cf3988" y="15.0092307692"/>
      </g>
     </g>
    </g>
    <g id="xtick_19">
     <g id="line2d_20">
      <defs>
       <path d="
M0 0
L0 -2" id="m5153cf3988"/>
      </defs>
      <g>
       <use style="stroke:#000000;stroke-linecap:butt;stroke-width:0.5;" x="467.883311467" xlink:href="#m5153cf3988" y="15.0092307692"/>
      </g>
     </g>
    </g>
    <g id="xtick_20">
     <g id="line2d_21">
      <defs>
       <path d="
M0 0
L0 -2" id="m5153cf3988"/>
      </defs>
      <g>
       <use style="stroke:#000000;stroke-linecap:butt;stroke-width:0.5;" x="493.661098171" xlink:href="#m5153cf3988" y="15.0092307692"/>
      </g>
     </g>
    </g>
    <g id="xtick_21">
     <g id="line2d_22">
      <defs>
       <path d="
M0 0
L0 -2" id="m5153cf3988"/>
      </defs>
      <g>
       <use style="stroke:#000000;stroke-linecap:butt;stroke-width:0.5;" x="519.438884875" xlink:href="#m5153cf3988" y="15.0092307692"/>
      </g>
     </g>
    </g>
   </g>
   <g id="matplotlib.axis_2">
    <g id="ytick_1">
     <g id="line2d_23">
      <defs>
       <path d="
M0 0
L4 0" id="mc4bfc34620"/>
      </defs>
      <g>
       <use style="stroke:#000000;stroke-linecap:butt;stroke-width:0.5;" x="29.6609375" xlink:href="#mc4bfc34620" y="408.993741937"/>
      </g>
     </g>
     <g id="text_6">
      <!-- -1.2 -->
      <defs>
       <path d="
M10.6875 12.4062
L21 12.4062
L21 0
L10.6875 0
z
" id="BitstreamVeraSans-Roman-2e"/>
       <path d="
M4.89062 31.3906
L31.2031 31.3906
L31.2031 23.3906
L4.89062 23.3906
z
" id="BitstreamVeraSans-Roman-2d"/>
      </defs>
      <g transform="translate(7.640625 412.704679437)scale(0.1 -0.1)">
       <use xlink:href="#BitstreamVeraSans-Roman-2d"/>
       <use x="36.083984375" xlink:href="#BitstreamVeraSans-Roman-31"/>
       <use x="99.70703125" xlink:href="#BitstreamVeraSans-Roman-2e"/>
       <use x="131.494140625" xlink:href="#BitstreamVeraSans-Roman-32"/>
      </g>
     </g>
    </g>
    <g id="ytick_2">
     <g id="line2d_24">
      <defs>
       <path d="
M0 0
L4 0" id="mc4bfc34620"/>
      </defs>
      <g>
       <use style="stroke:#000000;stroke-linecap:butt;stroke-width:0.5;" x="29.6609375" xlink:href="#mc4bfc34620" y="343.329656743"/>
      </g>
     </g>
     <g id="text_7">
      <!-- -1 -->
      <g transform="translate(17.103125 346.974969243)scale(0.1 -0.1)">
       <use xlink:href="#BitstreamVeraSans-Roman-2d"/>
       <use x="36.083984375" xlink:href="#BitstreamVeraSans-Roman-31"/>
      </g>
     </g>
    </g>
    <g id="ytick_3">
     <g id="line2d_25">
      <defs>
       <path d="
M0 0
L4 0" id="mc4bfc34620"/>
      </defs>
      <g>
       <use style="stroke:#000000;stroke-linecap:butt;stroke-width:0.5;" x="29.6609375" xlink:href="#mc4bfc34620" y="277.665571548"/>
      </g>
     </g>
     <g id="text_8">
      <!-- -0.8 -->
      <defs>
       <path d="
M31.7812 66.4062
Q24.1719 66.4062 20.3281 58.9062
Q16.5 51.4219 16.5 36.375
Q16.5 21.3906 20.3281 13.8906
Q24.1719 6.39062 31.7812 6.39062
Q39.4531 6.39062 43.2812 13.8906
Q47.125 21.3906 47.125 36.375
Q47.125 51.4219 43.2812 58.9062
Q39.4531 66.4062 31.7812 66.4062
M31.7812 74.2188
Q44.0469 74.2188 50.5156 64.5156
Q56.9844 54.8281 56.9844 36.375
Q56.9844 17.9688 50.5156 8.26562
Q44.0469 -1.42188 31.7812 -1.42188
Q19.5312 -1.42188 13.0625 8.26562
Q6.59375 17.9688 6.59375 36.375
Q6.59375 54.8281 13.0625 64.5156
Q19.5312 74.2188 31.7812 74.2188" id="BitstreamVeraSans-Roman-30"/>
      </defs>
      <g transform="translate(7.3234375 281.305415298)scale(0.1 -0.1)">
       <use xlink:href="#BitstreamVeraSans-Roman-2d"/>
       <use x="36.083984375" xlink:href="#BitstreamVeraSans-Roman-30"/>
       <use x="99.70703125" xlink:href="#BitstreamVeraSans-Roman-2e"/>
       <use x="131.494140625" xlink:href="#BitstreamVeraSans-Roman-38"/>
      </g>
     </g>
    </g>
    <g id="ytick_4">
     <g id="line2d_26">
      <defs>
       <path d="
M0 0
L4 0" id="mc4bfc34620"/>
      </defs>
      <g>
       <use style="stroke:#000000;stroke-linecap:butt;stroke-width:0.5;" x="29.6609375" xlink:href="#mc4bfc34620" y="212.001486353"/>
      </g>
     </g>
     <g id="text_9">
      <!-- -0.6 -->
      <g transform="translate(7.26875 215.641330103)scale(0.1 -0.1)">
       <use xlink:href="#BitstreamVeraSans-Roman-2d"/>
       <use x="36.083984375" xlink:href="#BitstreamVeraSans-Roman-30"/>
       <use x="99.70703125" xlink:href="#BitstreamVeraSans-Roman-2e"/>
       <use x="131.494140625" xlink:href="#BitstreamVeraSans-Roman-36"/>
      </g>
     </g>
    </g>
    <g id="ytick_5">
     <g id="line2d_27">
      <defs>
       <path d="
M0 0
L4 0" id="mc4bfc34620"/>
      </defs>
      <g>
       <use style="stroke:#000000;stroke-linecap:butt;stroke-width:0.5;" x="29.6609375" xlink:href="#mc4bfc34620" y="146.337401159"/>
      </g>
     </g>
     <g id="text_10">
      <!-- -0.4 -->
      <g transform="translate(7.2 149.977244909)scale(0.1 -0.1)">
       <use xlink:href="#BitstreamVeraSans-Roman-2d"/>
       <use x="36.083984375" xlink:href="#BitstreamVeraSans-Roman-30"/>
       <use x="99.70703125" xlink:href="#BitstreamVeraSans-Roman-2e"/>
       <use x="131.494140625" xlink:href="#BitstreamVeraSans-Roman-34"/>
      </g>
     </g>
    </g>
    <g id="ytick_6">
     <g id="line2d_28">
      <defs>
       <path d="
M0 0
L4 0" id="mc4bfc34620"/>
      </defs>
      <g>
       <use style="stroke:#000000;stroke-linecap:butt;stroke-width:0.5;" x="29.6609375" xlink:href="#mc4bfc34620" y="80.6733159639"/>
      </g>
     </g>
     <g id="text_11">
      <!-- -0.2 -->
      <g transform="translate(7.640625 84.3131597139)scale(0.1 -0.1)">
       <use xlink:href="#BitstreamVeraSans-Roman-2d"/>
       <use x="36.083984375" xlink:href="#BitstreamVeraSans-Roman-30"/>
       <use x="99.70703125" xlink:href="#BitstreamVeraSans-Roman-2e"/>
       <use x="131.494140625" xlink:href="#BitstreamVeraSans-Roman-32"/>
      </g>
     </g>
    </g>
    <g id="ytick_7">
     <g id="line2d_29">
      <defs>
       <path d="
M0 0
L4 0" id="mc4bfc34620"/>
      </defs>
      <g>
       <use style="stroke:#000000;stroke-linecap:butt;stroke-width:0.5;" x="29.6609375" xlink:href="#mc4bfc34620" y="15.0092307692"/>
      </g>
     </g>
    </g>
    <g id="ytick_8">
     <g id="line2d_30">
      <defs>
       <path d="
M0 0
L2 0" id="m7fb7732971"/>
      </defs>
      <g>
       <use style="stroke:#000000;stroke-linecap:butt;stroke-width:0.5;" x="29.6609375" xlink:href="#m7fb7732971" y="392.577720639"/>
      </g>
     </g>
    </g>
    <g id="ytick_9">
     <g id="line2d_31">
      <defs>
       <path d="
M0 0
L2 0" id="m7fb7732971"/>
      </defs>
      <g>
       <use style="stroke:#000000;stroke-linecap:butt;stroke-width:0.5;" x="29.6609375" xlink:href="#m7fb7732971" y="376.16169934"/>
      </g>
     </g>
    </g>
    <g id="ytick_10">
     <g id="line2d_32">
      <defs>
       <path d="
M0 0
L2 0" id="m7fb7732971"/>
      </defs>
      <g>
       <use style="stroke:#000000;stroke-linecap:butt;stroke-width:0.5;" x="29.6609375" xlink:href="#m7fb7732971" y="359.745678041"/>
      </g>
     </g>
    </g>
    <g id="ytick_11">
     <g id="line2d_33">
      <defs>
       <path d="
M0 0
L2 0" id="m7fb7732971"/>
      </defs>
      <g>
       <use style="stroke:#000000;stroke-linecap:butt;stroke-width:0.5;" x="29.6609375" xlink:href="#m7fb7732971" y="326.913635444"/>
      </g>
     </g>
    </g>
    <g id="ytick_12">
     <g id="line2d_34">
      <defs>
       <path d="
M0 0
L2 0" id="m7fb7732971"/>
      </defs>
      <g>
       <use style="stroke:#000000;stroke-linecap:butt;stroke-width:0.5;" x="29.6609375" xlink:href="#m7fb7732971" y="310.497614145"/>
      </g>
     </g>
    </g>
    <g id="ytick_13">
     <g id="line2d_35">
      <defs>
       <path d="
M0 0
L2 0" id="m7fb7732971"/>
      </defs>
      <g>
       <use style="stroke:#000000;stroke-linecap:butt;stroke-width:0.5;" x="29.6609375" xlink:href="#m7fb7732971" y="294.081592847"/>
      </g>
     </g>
    </g>
    <g id="ytick_14">
     <g id="line2d_36">
      <defs>
       <path d="
M0 0
L2 0" id="m7fb7732971"/>
      </defs>
      <g>
       <use style="stroke:#000000;stroke-linecap:butt;stroke-width:0.5;" x="29.6609375" xlink:href="#m7fb7732971" y="261.249550249"/>
      </g>
     </g>
    </g>
    <g id="ytick_15">
     <g id="line2d_37">
      <defs>
       <path d="
M0 0
L2 0" id="m7fb7732971"/>
      </defs>
      <g>
       <use style="stroke:#000000;stroke-linecap:butt;stroke-width:0.5;" x="29.6609375" xlink:href="#m7fb7732971" y="244.833528951"/>
      </g>
     </g>
    </g>
    <g id="ytick_16">
     <g id="line2d_38">
      <defs>
       <path d="
M0 0
L2 0" id="m7fb7732971"/>
      </defs>
      <g>
       <use style="stroke:#000000;stroke-linecap:butt;stroke-width:0.5;" x="29.6609375" xlink:href="#m7fb7732971" y="228.417507652"/>
      </g>
     </g>
    </g>
    <g id="ytick_17">
     <g id="line2d_39">
      <defs>
       <path d="
M0 0
L2 0" id="m7fb7732971"/>
      </defs>
      <g>
       <use style="stroke:#000000;stroke-linecap:butt;stroke-width:0.5;" x="29.6609375" xlink:href="#m7fb7732971" y="195.585465055"/>
      </g>
     </g>
    </g>
    <g id="ytick_18">
     <g id="line2d_40">
      <defs>
       <path d="
M0 0
L2 0" id="m7fb7732971"/>
      </defs>
      <g>
       <use style="stroke:#000000;stroke-linecap:butt;stroke-width:0.5;" x="29.6609375" xlink:href="#m7fb7732971" y="179.169443756"/>
      </g>
     </g>
    </g>
    <g id="ytick_19">
     <g id="line2d_41">
      <defs>
       <path d="
M0 0
L2 0" id="m7fb7732971"/>
      </defs>
      <g>
       <use style="stroke:#000000;stroke-linecap:butt;stroke-width:0.5;" x="29.6609375" xlink:href="#m7fb7732971" y="162.753422457"/>
      </g>
     </g>
    </g>
    <g id="ytick_20">
     <g id="line2d_42">
      <defs>
       <path d="
M0 0
L2 0" id="m7fb7732971"/>
      </defs>
      <g>
       <use style="stroke:#000000;stroke-linecap:butt;stroke-width:0.5;" x="29.6609375" xlink:href="#m7fb7732971" y="129.92137986"/>
      </g>
     </g>
    </g>
    <g id="ytick_21">
     <g id="line2d_43">
      <defs>
       <path d="
M0 0
L2 0" id="m7fb7732971"/>
      </defs>
      <g>
       <use style="stroke:#000000;stroke-linecap:butt;stroke-width:0.5;" x="29.6609375" xlink:href="#m7fb7732971" y="113.505358561"/>
      </g>
     </g>
    </g>
    <g id="ytick_22">
     <g id="line2d_44">
      <defs>
       <path d="
M0 0
L2 0" id="m7fb7732971"/>
      </defs>
      <g>
       <use style="stroke:#000000;stroke-linecap:butt;stroke-width:0.5;" x="29.6609375" xlink:href="#m7fb7732971" y="97.0893372626"/>
      </g>
     </g>
    </g>
    <g id="ytick_23">
     <g id="line2d_45">
      <defs>
       <path d="
M0 0
L2 0" id="m7fb7732971"/>
      </defs>
      <g>
       <use style="stroke:#000000;stroke-linecap:butt;stroke-width:0.5;" x="29.6609375" xlink:href="#m7fb7732971" y="64.2572946652"/>
      </g>
     </g>
    </g>
    <g id="ytick_24">
     <g id="line2d_46">
      <defs>
       <path d="
M0 0
L2 0" id="m7fb7732971"/>
      </defs>
      <g>
       <use style="stroke:#000000;stroke-linecap:butt;stroke-width:0.5;" x="29.6609375" xlink:href="#m7fb7732971" y="47.8412733666"/>
      </g>
     </g>
    </g>
    <g id="ytick_25">
     <g id="line2d_47">
      <defs>
       <path d="
M0 0
L2 0" id="m7fb7732971"/>
      </defs>
      <g>
       <use style="stroke:#000000;stroke-linecap:butt;stroke-width:0.5;" x="29.6609375" xlink:href="#m7fb7732971" y="31.4252520679"/>
      </g>
     </g>
    </g>
   </g>
   <g id="patch_3">
    <path d="
M19.3504 15.0092
L555.498 15.0092" style="fill:none;stroke:#000000;stroke-width:0.8;"/>
   </g>
   <g id="patch_4">
    <path d="
M29.6609 413.28
L29.6609 7.2" style="fill:none;stroke:#000000;stroke-width:0.8;"/>
   </g>
  </g>
 </g>
 <defs>
  <clipPath id="p4ae238b7d9">
   <rect height="406.08" width="536.147492448" x="19.3504191102" y="7.2"/>
  </clipPath>
 </defs>
</svg>
