<?xml version="1.0" encoding="utf-8" standalone="no"?>
<!DOCTYPE svg PUBLIC "-//W3C//DTD SVG 1.1//EN"
  "http://www.w3.org/Graphics/SVG/1.1/DTD/svg11.dtd">
<!-- Created with matplotlib (http://matplotlib.sourceforge.net/) -->
<svg height="420pt" version="1.1" viewBox="0 0 562 420" width="562pt" xmlns="http://www.w3.org/2000/svg" xmlns:xlink="http://www.w3.org/1999/xlink">
 <defs>
  <style type="text/css">
*{stroke-linecap:square;stroke-linejoin:round;}
  </style>
 </defs>
 <g id="figure_1">
  <g id="patch_1">
   <path d="
M0 420.48
L562.744 420.48
L562.744 0
L0 0
z
" style="fill:#ffffff;"/>
  </g>
  <g id="axes_1">
   <g id="patch_2">
    <path d="
M19.0309 413.28
L555.544 413.28
L555.544 7.2
L19.0309 7.2
z
" style="fill:#ffffff;"/>
   </g>
   <g id="line2d_1">
    <path clip-path="url(#p13c0847ff8)" d="
M29.3484 197.867
L29.3965 197.867
L29.3965 405.471
L29.4537 364.372
L29.5147 364.372
L29.5768 324.205
L29.6415 324.205
L29.7082 310.531
L29.7741 310.531
L29.7741 312.515
L29.8417 310.603
L29.911 310.603
L29.9804 301.8
L30.0506 301.8
L30.1209 293.521
L30.1923 293.521
L30.2646 290.495
L30.3362 290.495
L30.4089 290.059
L30.4818 290.059
L30.4818 290.352
L30.555 290.309
L30.6286 290.309
L30.7035 288.687
L30.7767 288.687
L30.852 287.078
L30.9277 287.078
L31.0018 284.92
L31.077 284.92
L31.1528 281.838
L31.2291 281.838
L31.3063 278.323
L31.3818 278.323
L31.4605 274.488
L31.5366 274.488
L31.6132 272.375
L31.6911 272.375
L31.7694 270.813
L31.8457 270.813
L31.9236 268.929
L32.0021 268.929
L32.0794 267.732
L32.1589 267.732
L32.238 267.109
L32.317 267.109
L32.3944 266.108
L32.4739 266.108
L32.5522 263.779
L32.6328 263.779
L32.714 261.213
L32.7931 261.213
L32.8734 258.284
L32.9523 258.284
L33.0317 254.798
L33.1123 254.798
L33.194 251.266
L33.2745 251.266
L33.3546 248.366
L33.4347 248.366
L33.5151 246.194
L33.5956 246.194
L33.6766 244.295
L33.7591 244.295
L33.8384 242.067
L33.92 242.067
L34.0021 240.03
L34.0836 240.03
L34.1652 238.382
L34.2478 238.382
L34.3296 236.865
L34.4128 236.865
L34.4956 235.433
L34.5762 235.433
L34.6582 233.546
L34.7408 233.546
L34.8254 231.129
L34.9083 231.129
L34.9903 228.755
L35.0714 228.755
L35.1546 226.684
L35.2369 226.684
L35.3205 224.724
L35.4024 224.724
L35.4832 222.934
L35.568 222.934
L35.651 221.483
L35.7368 221.483
L35.8201 219.966
L35.9019 219.966
L35.9858 218.735
L36.07 218.735
L36.1537 217.411
L36.2385 217.411
L36.3227 216.029
L36.4067 216.029
L36.4904 214.44
L36.5719 214.44
L36.6593 212.942
L36.7427 212.942
L36.8268 211.684
L36.9095 211.684
L36.9945 210.484
L37.0784 210.484
L37.1613 209.389
L37.2476 209.389
L37.3337 208.197
L37.4182 208.197
L37.5034 207.09
L37.59 207.09
L37.675 206.018
L37.7588 206.018
L37.8443 205.033
L37.9297 205.033
L38.0132 204.024
L38.0999 204.024
L38.1847 202.965
L38.2709 202.965
L38.3577 201.704
L38.4438 201.704
L38.5285 200.563
L38.6136 200.563
L38.6986 199.555
L38.7835 199.555
L38.8702 198.626
L38.9548 198.626
L39.0397 197.897
L39.1254 197.897
L39.212 197.23
L39.2965 197.23
L39.3825 196.645
L39.4688 196.645
L39.5582 195.833
L39.6435 195.833
L39.728 195.004
L39.8134 195.004
L39.8997 194.264
L39.9869 194.264
L40.074 193.532
L40.1606 193.532
L40.2471 192.829
L40.3335 192.829
L40.4189 192.244
L40.505 192.244
L40.5921 191.692
L40.6796 191.692
L40.7667 191.174
L40.8544 191.174
L40.9421 190.639
L41.0281 190.639
L41.1133 190.056
L41.2025 190.056
L41.2896 189.384
L41.3787 189.384
L41.4661 188.752
L41.5525 188.752
L41.6402 188.144
L41.727 188.144
L41.8151 187.606
L41.9033 187.606
L41.991 186.977
L42.0774 186.977
L42.1668 186.456
L42.2538 186.456
L42.3416 186.019
L42.4273 186.019
L42.517 185.587
L42.6043 185.587
L42.6897 185.084
L42.778 185.084
L42.8664 184.64
L42.9542 184.64
L43.0413 184.282
L43.13 184.282
L43.218 183.851
L43.3043 183.851
L43.3918 183.475
L43.4827 183.475
L43.5709 183.087
L43.6582 183.087
L43.7483 182.777
L43.8354 182.777
L43.9198 182.476
L44.0077 182.476
L44.0964 182.17
L44.1862 182.17
L44.2753 181.862
L44.3635 181.862
L44.4527 181.467
L44.5417 181.467
L44.6313 181.065
L44.7199 181.065
L44.8079 180.689
L44.8952 180.689
L44.9857 180.372
L45.0751 180.372
L45.1661 180.13
L45.3413 180.052
L45.4295 179.893
L45.608 179.818
L45.6963 179.681
L45.8705 179.605
L45.9595 179.496
L46.1373 179.399
L46.2263 179.198
L46.4057 179.098
L46.4949 178.891
L46.5842 178.891
L46.6755 178.612
L46.7643 178.612
L46.8537 178.246
L46.9417 178.246
L47.0303 177.914
L47.1176 177.914
L47.2087 177.567
L47.3009 177.567
L47.3922 177.248
L47.4822 177.248
L47.5742 176.925
L47.6658 176.925
L47.7546 176.656
L47.8452 176.656
L47.9341 176.414
L48.0212 176.414
L48.1095 176.168
L48.2922 176.064
L48.3802 175.84
L48.4688 175.84
L48.559 175.626
L48.7368 175.533
L48.83 175.373
L49.0097 175.304
L49.0986 175.189
L49.5498 175.08
L49.6387 175.032
L50.0944 174.952
L50.1824 174.852
L50.3626 174.795
L50.4524 174.659
L50.635 174.586
L50.7269 174.398
L50.9072 174.307
L50.9963 174.138
L51.1781 174.051
L51.2702 173.824
L51.3598 173.824
L51.4522 173.567
L51.5441 173.567
L51.634 173.297
L51.7256 173.297
L51.8181 173.037
L51.9091 173.037
L52 172.756
L52.0929 172.756
L52.181 172.504
L52.2695 172.504
L52.3596 172.196
L52.4502 172.196
L52.54 171.902
L52.6326 171.902
L52.7246 171.602
L52.8172 171.602
L52.9069 171.339
L53.0901 171.228
L53.1794 170.96
L53.2717 170.96
L53.3641 170.711
L53.4555 170.711
L53.5445 170.464
L53.6367 170.464
L53.7277 170.154
L53.8178 170.154
L53.9109 169.785
L54.0029 169.785
L54.0957 169.406
L54.1866 169.406
L54.2792 169.077
L54.3692 169.077
L54.4598 168.8
L54.5518 168.8
L54.6391 168.554
L54.7326 168.554
L54.8242 168.272
L54.9146 168.272
L55.0049 167.982
L55.0945 167.982
L55.1877 167.716
L55.2799 167.716
L55.3716 167.454
L55.4646 167.454
L55.5561 167.18
L55.6472 167.18
L55.7405 166.9
L55.8316 166.9
L55.9238 166.622
L56.016 166.622
L56.109 166.322
L56.2001 166.322
L56.2914 166.041
L56.3838 166.041
L56.4746 165.755
L56.5656 165.755
L56.6588 165.478
L56.7511 165.478
L56.8435 165.202
L56.9334 165.202
L57.027 164.909
L57.1178 164.909
L57.211 164.595
L57.3037 164.595
L57.396 164.242
L57.4872 164.242
L57.5798 163.896
L57.673 163.896
L57.7638 163.587
L57.8589 163.587
L57.9516 163.325
L58.0444 163.325
L58.1372 163.098
L58.2295 163.098
L58.3225 162.87
L58.5083 162.766
L58.6026 162.539
L58.6958 162.539
L58.7853 162.316
L58.9706 162.205
L59.0631 161.978
L59.1575 161.978
L59.2514 161.753
L59.4364 161.656
L59.5287 161.417
L59.6226 161.417
L59.7133 161.137
L59.8048 161.137
L59.895 160.858
L59.987 160.858
L60.0806 160.56
L60.1745 160.56
L60.2677 160.276
L60.3589 160.276
L60.4499 159.965
L60.5468 159.965
L60.6394 159.61
L60.7327 159.61
L60.8248 159.266
L60.9174 159.266
L61.0115 158.909
L61.1029 158.909
L61.1953 158.561
L61.2912 158.561
L61.3827 158.199
L61.4774 158.199
L61.5705 157.831
L61.6623 157.831
L61.7542 157.457
L61.8446 157.457
L61.9378 157.075
L62.0303 157.075
L62.1245 156.678
L62.2185 156.678
L62.3147 156.283
L62.4076 156.283
L62.5003 155.919
L62.596 155.919
L62.6878 155.583
L62.7825 155.583
L62.8758 155.245
L62.9683 155.245
L63.0614 154.887
L63.1547 154.887
L63.2474 154.541
L63.3387 154.541
L63.4318 154.189
L63.5254 154.189
L63.6193 153.84
L63.7147 153.84
L63.8079 153.505
L63.9018 153.505
L63.9931 153.199
L64.0859 153.199
L64.1796 152.897
L64.2726 152.897
L64.3669 152.587
L64.461 152.587
L64.5539 152.269
L64.648 152.269
L64.7394 151.977
L64.8317 151.977
L64.9236 151.649
L65.0182 151.649
L65.1127 151.302
L65.2045 151.302
L65.2966 150.959
L65.3921 150.959
L65.485 150.618
L65.5789 150.618
L65.6704 150.297
L65.7625 150.297
L65.8582 149.981
L65.9513 149.981
L66.0434 149.626
L66.1407 149.626
L66.2341 149.241
L66.3276 149.241
L66.4232 148.861
L66.5158 148.861
L66.6104 148.501
L66.7047 148.501
L66.7987 148.139
L66.8909 148.139
L66.9846 147.773
L67.0805 147.773
L67.173 147.413
L67.2694 147.413
L67.362 147.064
L67.4549 147.064
L67.551 146.727
L67.6452 146.727
L67.739 146.4
L67.8321 146.4
L67.927 146.053
L68.0237 146.053
L68.1179 145.726
L68.2128 145.726
L68.3052 145.412
L68.3999 145.412
L68.4954 145.116
L68.587 145.116
L68.6826 144.83
L68.7758 144.83
L68.8691 144.535
L68.9636 144.535
L69.0566 144.255
L69.152 144.255
L69.2465 143.958
L69.3425 143.958
L69.4379 143.661
L69.5332 143.661
L69.6264 143.375
L69.7204 143.375
L69.8142 143.093
L69.9073 143.093
L70.0006 142.817
L70.0947 142.817
L70.1897 142.535
L70.2838 142.535
L70.3781 142.27
L70.474 142.27
L70.5667 142.002
L70.6629 142.002
L70.7577 141.729
L70.8533 141.729
L70.946 141.469
L71.0422 141.469
L71.1392 141.223
L71.2336 141.223
L71.3276 140.991
L71.4225 140.991
L71.5171 140.744
L71.6109 140.744
L71.7048 140.495
L71.7988 140.495
L71.8925 140.241
L71.9898 140.241
L72.0835 139.965
L72.1777 139.965
L72.2717 139.687
L72.3681 139.687
L72.4609 139.413
L72.5575 139.413
L72.652 139.128
L72.7473 139.128
L72.8429 138.841
L72.9401 138.841
L73.0349 138.562
L73.1277 138.562
L73.2228 138.274
L73.3165 138.274
L73.4097 137.987
L73.5038 137.987
L73.5974 137.704
L73.6933 137.704
L73.7863 137.427
L73.8827 137.427
L73.9778 137.138
L74.071 137.138
L74.1668 136.852
L74.2609 136.852
L74.3548 136.566
L74.4494 136.566
L74.5443 136.28
L74.6391 136.28
L74.7331 135.993
L74.8288 135.993
L74.9248 135.71
L75.0203 135.71
L75.1178 135.434
L75.2123 135.434
L75.3083 135.168
L75.4002 135.168
L75.496 134.909
L75.5931 134.909
L75.6878 134.643
L75.7808 134.643
L75.8805 134.388
L75.9758 134.388
L76.072 134.135
L76.1672 134.135
L76.2617 133.886
L76.3569 133.886
L76.4548 133.619
L76.5479 133.619
L76.6436 133.338
L76.7383 133.338
L76.8342 133.038
L76.9277 133.038
L77.0218 132.724
L77.1154 132.724
L77.212 132.415
L77.3081 132.415
L77.4024 132.117
L77.4989 132.117
L77.5927 131.837
L77.6876 131.837
L77.7842 131.551
L77.8798 131.551
L77.977 131.272
L78.0733 131.272
L78.1696 130.997
L78.2652 130.997
L78.3615 130.72
L78.4562 130.72
L78.5518 130.453
L78.6468 130.453
L78.743 130.198
L78.8343 130.198
L78.9319 129.952
L79.0267 129.952
L79.122 129.717
L79.2174 129.717
L79.3124 129.477
L79.4102 129.477
L79.5065 129.227
L79.5999 129.227
L79.6961 128.981
L79.7934 128.981
L79.8888 128.727
L79.9844 128.727
L80.0779 128.461
L80.177 128.461
L80.273 128.176
L80.3693 128.176
L80.466 127.894
L80.5626 127.894
L80.6575 127.612
L80.7549 127.612
L80.852 127.325
L80.9498 127.325
L81.0452 127.045
L81.1396 127.045
L81.235 126.786
L81.3305 126.786
L81.4258 126.531
L81.5216 126.531
L81.6175 126.276
L81.7124 126.276
L81.8095 126.031
L81.906 126.031
L82.0044 125.769
L82.1006 125.769
L82.1968 125.518
L82.2912 125.518
L82.3864 125.281
L82.4826 125.281
L82.5798 125.052
L82.7726 124.946
L82.8668 124.733
L82.9642 124.733
L83.059 124.511
L83.2485 124.405
L83.3451 124.201
L83.5353 124.104
L83.6322 123.92
L83.8235 123.831
L83.9203 123.665
L84.1127 123.584
L84.2086 123.421
L84.4003 123.347
L84.4929 123.197
L84.6844 123.125
L84.781 122.979
L84.9762 122.899
L85.0733 122.726
L85.2667 122.637
L85.361 122.473
L85.5556 122.387
L85.6508 122.199
L85.8401 122.106
L85.9371 121.93
L86.1314 121.836
L86.2289 121.646
L86.4203 121.55
L86.5156 121.367
L86.7071 121.273
L86.8077 121.063
L86.9974 120.962
L87.0929 120.754
L87.2881 120.654
L87.3838 120.45
L87.5786 120.347
L87.676 120.141
L87.8695 120.041
L87.9653 119.842
L88.1598 119.744
L88.2568 119.553
L88.4497 119.461
L88.5436 119.278
L88.7396 119.176
L88.8358 118.975
L89.0261 118.879
L89.1225 118.68
L89.3119 118.58
L89.4125 118.393
L89.606 118.305
L89.702 118.127
L89.8954 118.04
L89.9924 117.857
L90.1856 117.759
L90.2812 117.582
L90.4788 117.499
L90.5733 117.334
L90.7667 117.252
L90.864 117.078
L91.0541 116.993
L91.1533 116.822
L91.3461 116.74
L91.4446 116.566
L91.6376 116.476
L91.7363 116.3
L91.9309 116.211
L92.0252 116.032
L92.2214 115.944
L92.3197 115.775
L92.5116 115.695
L92.6096 115.535
L92.8026 115.459
L92.8967 115.313
L93.0933 115.242
L93.1867 115.096
L93.3795 115.015
L93.4762 114.863
L93.6721 114.787
L93.7684 114.633
L93.9629 114.554
L94.0626 114.405
L94.2584 114.331
L94.3548 114.191
L94.5481 114.124
L94.6462 113.992
L94.841 113.928
L94.938 113.801
L95.1286 113.739
L95.2253 113.618
L95.4182 113.559
L95.5168 113.442
L95.8079 113.334
L95.9069 113.223
L96.2021 113.115
L96.3003 113.014
L96.5934 112.911
L96.6895 112.802
L96.987 112.696
L97.0845 112.599
L97.377 112.501
L97.4729 112.403
L97.7674 112.297
L97.8628 112.195
L98.0577 112.139
L98.156 112.024
L98.3501 111.965
L98.4484 111.847
L98.6452 111.784
L98.7428 111.667
L98.9397 111.608
L99.0378 111.49
L99.2357 111.432
L99.333 111.309
L99.5276 111.248
L99.6226 111.129
L99.913 111.021
L100.011 110.912
L100.303 110.803
L100.404 110.702
L100.695 110.609
L100.791 110.52
L101.081 110.439
L101.178 110.349
L101.477 110.246
L101.576 110.136
L101.771 110.08
L101.872 109.969
L102.161 109.865
L102.26 109.763
L102.555 109.654
L102.655 109.547
L102.946 109.438
L103.043 109.321
L103.24 109.263
L103.337 109.156
L103.625 109.05
L103.724 108.94
L103.921 108.882
L104.019 108.778
L104.315 108.681
L104.413 108.579
L104.706 108.472
L104.807 108.364
L105.1 108.258
L105.2 108.154
L105.492 108.053
L105.587 107.946
L105.883 107.84
L105.981 107.727
L106.179 107.67
L106.279 107.552
L106.473 107.493
L106.575 107.375
L106.771 107.315
L106.87 107.201
L107.066 107.143
L107.166 107.034
L107.362 106.98
L107.46 106.864
L107.756 106.757
L107.855 106.648
L108.147 106.538
L108.245 106.427
L108.539 106.318
L108.638 106.209
L108.841 106.15
L108.939 106.04
L109.236 105.936
L109.333 105.838
L109.623 105.743
L109.722 105.655
L110.016 105.572
L110.115 105.484
L110.409 105.395
L110.509 105.299
L110.805 105.2
L110.905 105.093
L111.196 104.983
L111.294 104.872
L111.589 104.761
L111.69 104.656
L111.986 104.552
L112.084 104.448
L112.382 104.339
L112.481 104.232
L112.778 104.124
L112.879 104.012
L113.073 103.958
L113.171 103.842
L113.369 103.781
L113.466 103.655
L113.669 103.59
L113.768 103.469
L113.965 103.41
L114.064 103.295
L114.262 103.238
L114.359 103.121
L114.555 103.066
L114.655 102.953
L114.856 102.894
L114.953 102.777
L115.248 102.669
L115.346 102.56
L115.644 102.452
L115.741 102.339
L115.938 102.282
L116.035 102.168
L116.233 102.114
L116.333 101.994
L116.532 101.936
L116.63 101.818
L116.825 101.757
L116.922 101.636
L117.118 101.572
L117.216 101.448
L117.415 101.383
L117.515 101.262
L117.712 101.203
L117.812 101.081
L118.015 101.018
L118.115 100.895
L118.312 100.836
L118.411 100.727
L118.705 100.62
L118.802 100.512
L119.002 100.455
L119.101 100.346
L119.296 100.291
L119.396 100.174
L119.688 100.07
L119.789 99.9672
L120.083 99.8676
L120.184 99.7708
L120.484 99.674
L120.583 99.5763
L120.881 99.4862
L120.984 99.3855
L121.279 99.2949
L121.379 99.2053
L121.677 99.1122
L121.778 99.0194
L122.069 98.9307
L122.166 98.8476
L122.47 98.7669
L122.569 98.6895
L122.968 98.5818
L123.071 98.5084
L123.465 98.402
L123.564 98.3286
L123.858 98.2531
L123.957 98.179
L124.358 98.0751
L124.46 98.012
L124.862 97.9149
L124.96 97.8527
L125.356 97.7586
L125.454 97.688
L125.854 97.5802
L125.954 97.5003
L126.349 97.3918
L126.451 97.3341
L126.849 97.2506
L126.95 97.1956
L127.446 97.0965
L127.545 97.0457
L128.046 96.9469
L128.145 96.8999
L128.646 96.7956
L128.744 96.7499
L129.242 96.6497
L129.342 96.6047
L129.94 96.5027
L130.038 96.4602
L130.641 96.3638
L130.743 96.322
L131.24 96.2323
L131.339 96.1889
L131.837 96.1021
L131.936 96.0522
L132.436 95.9537
L132.534 95.9087
L133.132 95.8001
L133.233 95.76
L133.835 95.6641
L133.937 95.6233
L134.435 95.5271
L134.534 95.4739
L134.94 95.3884
L135.042 95.3277
L135.44 95.2357
L135.54 95.176
L135.94 95.0893
L136.039 95.0289
L136.435 94.9392
L136.536 94.8803
L136.939 94.7942
L137.039 94.7381
L137.442 94.651
L137.544 94.5954
L137.94 94.511
L138.039 94.4594
L138.547 94.3583
L138.646 94.3029
L139.049 94.2145
L139.146 94.1573
L139.649 94.0501
L139.748 94.0028
L140.245 93.9126
L140.35 93.8584
L140.849 93.7486
L140.951 93.6942
L141.452 93.5834
L141.551 93.525
L141.953 93.4292
L142.053 93.3669
L142.453 93.2788
L142.551 93.2227
L142.954 93.14
L143.05 93.0803
L143.459 92.9891
L143.559 92.9312
L143.966 92.8398
L144.068 92.7785
L144.471 92.6864
L144.571 92.6231
L144.976 92.5157
L145.078 92.4421
L145.381 92.3628
L145.483 92.2754
L145.781 92.1873
L145.879 92.0949
L146.183 92.0031
L146.283 91.9176
L146.583 91.836
L146.683 91.7514
L146.987 91.6639
L147.09 91.5769
L147.389 91.4888
L147.489 91.3969
L147.792 91.3056
L147.893 91.2122
L148.191 91.1215
L148.291 91.0295
L148.595 90.9362
L148.7 90.8401
L149 90.7484
L149.103 90.6486
L149.404 90.548
L149.503 90.4446
L149.805 90.3395
L149.904 90.2281
L150.109 90.1711
L150.211 90.0566
L150.411 90.0012
L150.509 89.8883
L150.715 89.8285
L150.815 89.7145
L151.117 89.6035
L151.219 89.4922
L151.42 89.4348
L151.52 89.3225
L151.725 89.2677
L151.827 89.1514
L152.028 89.095
L152.13 88.9813
L152.333 88.925
L152.437 88.8125
L152.733 88.7041
L152.836 88.6011
L153.139 88.5007
L153.239 88.4051
L153.541 88.3086
L153.644 88.2107
L153.948 88.1119
L154.047 88.0197
L154.349 87.9267
L154.451 87.8384
L154.749 87.7545
L154.852 87.669
L155.154 87.5837
L155.254 87.4974
L155.561 87.4134
L155.661 87.3268
L155.964 87.2356
L156.065 87.1414
L156.371 87.0409
L156.472 86.9367
L156.771 86.8302
L156.871 86.7249
L157.173 86.6157
L157.275 86.5098
L157.583 86.4018
L157.682 86.2987
L157.99 86.1912
L158.092 86.0832
L158.391 85.9804
L158.496 85.8779
L158.798 85.7781
L158.898 85.6838
L159.206 85.5927
L159.306 85.5072
L159.618 85.414
L159.719 85.3193
L160.022 85.2265
L160.124 85.1341
L160.428 85.0394
L160.532 84.9435
L160.832 84.8497
L160.937 84.7517
L161.24 84.656
L161.34 84.5582
L161.643 84.4564
L161.746 84.3578
L162.049 84.2577
L162.153 84.1593
L162.455 84.061
L162.554 83.9637
L162.859 83.8689
L162.959 83.7722
L163.265 83.6793
L163.365 83.5837
L163.67 83.4862
L163.771 83.3882
L164.077 83.2895
L164.176 83.1909
L164.483 83.0913
L164.585 82.995
L164.892 82.9013
L164.994 82.8076
L165.298 82.7165
L165.4 82.6259
L165.698 82.5366
L165.804 82.4456
L166.104 82.3561
L166.207 82.2651
L166.51 82.1787
L166.611 82.0901
L166.916 82.0052
L167.016 81.9197
L167.325 81.832
L167.429 81.7418
L167.733 81.6564
L167.836 81.5738
L168.138 81.489
L168.238 81.4092
L168.544 81.3295
L168.644 81.2506
L168.951 81.1686
L169.05 81.0887
L169.354 81.0089
L169.454 80.9241
L169.762 80.8372
L169.864 80.7483
L170.172 80.6573
L170.275 80.5692
L170.583 80.4827
L170.683 80.3923
L170.985 80.306
L171.089 80.2147
L171.395 80.1218
L171.496 80.0315
L171.796 79.9415
L171.899 79.8468
L172.209 79.7452
L172.31 79.6423
L172.611 79.5434
L172.715 79.4423
L173.026 79.3412
L173.128 79.24
L173.428 79.1415
L173.53 79.0396
L173.837 78.937
L173.935 78.837
L174.244 78.7342
L174.346 78.633
L174.652 78.5298
L174.756 78.4279
L175.059 78.3262
L175.162 78.2272
L175.462 78.133
L175.565 78.0398
L175.875 77.9438
L175.979 77.845
L176.285 77.7499
L176.383 77.654
L176.689 77.5603
L176.792 77.4663
L177.097 77.3696
L177.199 77.2736
L177.507 77.1788
L177.608 77.0853
L177.915 76.9915
L178.022 76.8956
L178.325 76.8005
L178.429 76.7022
L178.734 76.6072
L178.839 76.5115
L179.144 76.4197
L179.246 76.3245
L179.554 76.2274
L179.656 76.1353
L179.965 76.0442
L180.066 75.9555
L180.375 75.8622
L180.475 75.7736
L180.779 75.6851
L180.88 75.5973
L181.192 75.5073
L181.295 75.4138
L181.602 75.3194
L181.703 75.2208
L182.011 75.1222
L182.113 75.0228
L182.418 74.9222
L182.521 74.8207
L182.824 74.725
L182.929 74.6221
L183.24 74.5176
L183.341 74.4176
L183.643 74.3232
L183.745 74.2263
L184.048 74.1319
L184.148 74.0377
L184.454 73.9416
L184.553 73.8471
L184.86 73.7481
L184.963 73.65
L185.268 73.5539
L185.37 73.4555
L185.676 73.3557
L185.779 73.2574
L186.086 73.1585
L186.186 73.0588
L186.499 72.9547
L186.602 72.854
L186.907 72.7565
L187.012 72.6625
L187.314 72.5718
L187.417 72.4777
L187.72 72.3862
L187.824 72.2935
L188.132 72.2027
L188.234 72.1145
L188.541 72.0251
L188.642 71.9368
L188.949 71.851
L189.053 71.7625
L189.363 71.6735
L189.465 71.5878
L189.78 71.4995
L189.884 71.4098
L190.19 71.3226
L190.294 71.2305
L190.603 71.1425
L190.706 71.0561
L191.009 70.9757
L191.111 70.895
L191.421 70.8124
L191.524 70.7316
L191.837 70.6535
L191.941 70.575
L192.247 70.4966
L192.348 70.421
L192.657 70.3465
L192.759 70.2736
L193.172 70.1656
L193.274 70.0965
L193.682 69.9953
L193.783 69.9271
L194.195 69.8253
L194.298 69.7575
L194.711 69.6504
L194.814 69.5798
L195.221 69.4706
L195.324 69.3983
L195.637 69.3225
L195.737 69.2483
L196.148 69.1387
L196.25 69.0692
L196.66 68.9686
L196.764 68.9044
L197.174 68.809
L197.276 68.744
L197.683 68.6543
L197.79 68.5944
L198.199 68.5041
L198.302 68.4469
L198.718 68.3631
L198.821 68.3067
L199.332 68.1985
L199.432 68.1453
L199.952 68.0347
L200.055 67.9777
L200.464 67.8894
L200.566 67.8315
L200.977 67.7438
L201.08 67.6842
L201.489 67.5873
L201.59 67.5198
L202.002 67.4143
L202.105 67.344
L202.519 67.2408
L202.623 67.1716
L203.035 67.069
L203.139 67.0048
L203.548 66.9058
L203.65 66.8422
L204.061 66.7465
L204.164 66.688
L204.582 66.6016
L204.687 66.5461
L205.1 66.4609
L205.204 66.4015
L205.62 66.3138
L205.726 66.2545
L206.14 66.1664
L206.244 66.1102
L206.663 66.0239
L206.765 65.9664
L207.28 65.8561
L207.384 65.8013
L207.795 65.7169
L207.896 65.6609
L208.316 65.574
L208.42 65.5158
L208.834 65.4289
L208.936 65.3714
L209.347 65.2833
L209.45 65.228
L209.863 65.1446
L209.966 65.0873
L210.383 64.9995
L210.484 64.9439
L211.002 64.8345
L211.104 64.7823
L211.62 64.6753
L211.722 64.6193
L212.134 64.5325
L212.238 64.4711
L212.653 64.3842
L212.754 64.3289
L213.171 64.2416
L213.272 64.1818
L213.687 64.0855
L213.788 64.0231
L214.203 63.9283
L214.305 63.8668
L214.723 63.7708
L214.827 63.7069
L215.235 63.6085
L215.341 63.5462
L215.754 63.4566
L215.857 63.3961
L216.274 63.3073
L216.378 63.2531
L216.889 63.1477
L216.99 63.0936
L217.511 62.9851
L217.612 62.935
L218.131 62.8338
L218.234 62.7843
L218.653 62.702
L218.757 62.6448
L219.272 62.5347
L219.379 62.4777
L219.802 62.3894
L219.904 62.3331
L220.417 62.2274
L220.522 62.1749
L221.031 62.0736
L221.136 62.0211
L221.659 61.9112
L221.764 61.8552
L222.278 61.7499
L222.38 61.7004
L222.898 61.5939
L223.002 61.5394
L223.418 61.454
L223.522 61.4008
L224.039 61.2897
L224.144 61.2333
L224.664 61.1226
L224.77 61.0692
L225.29 60.9692
L225.394 60.9193
L225.91 60.8208
L226.012 60.7698
L226.528 60.6707
L226.631 60.6205
L227.145 60.5263
L227.251 60.481
L227.872 60.3716
L227.977 60.3253
L228.498 60.2277
L228.602 60.1763
L229.119 60.0812
L229.221 60.0381
L229.84 59.933
L229.943 59.892
L230.57 59.7877
L230.672 59.745
L231.191 59.6543
L231.295 59.6076
L231.813 59.513
L231.919 59.4666
L232.429 59.3763
L232.535 59.3312
L233.156 59.2221
L233.257 59.18
L233.878 59.0782
L233.983 59.0405
L234.711 58.9298
L234.817 58.888
L235.446 58.7803
L235.551 58.7377
L236.178 58.6366
L236.279 58.5996
L237.01 58.4912
L237.112 58.4529
L237.835 58.3457
L237.94 58.3103
L238.671 58.2052
L238.777 58.1725
L239.502 58.0759
L239.606 58.0444
L240.334 57.9444
L240.441 57.907
L241.174 57.7968
L241.276 57.7591
L241.897 57.661
L242.003 57.6195
L242.629 57.5197
L242.733 57.4793
L243.363 57.3743
L243.466 57.3335
L244.099 57.2278
L244.205 57.1831
L244.828 57.0755
L244.933 57.0326
L245.554 56.9237
L245.663 56.8759
L246.191 56.7753
L246.293 56.7239
L246.813 56.6236
L246.918 56.5761
L247.435 56.4814
L247.538 56.4339
L248.059 56.3361
L248.164 56.2882
L248.683 56.193
L248.788 56.1446
L249.315 56.0476
L249.416 56.0001
L249.942 55.9067
L250.046 55.8587
L250.569 55.7614
L250.677 55.7116
L251.201 55.6128
L251.309 55.5619
L251.829 55.4634
L251.934 55.4128
L252.455 55.3075
L252.561 55.2551
L253.083 55.1522
L253.186 55.1018
L253.708 54.9982
L253.809 54.9484
L254.334 54.844
L254.438 54.7911
L254.967 54.6929
L255.073 54.6433
L255.596 54.5456
L255.701 54.4971
L256.219 54.4014
L256.323 54.3534
L256.849 54.2548
L256.955 54.204
L257.477 54.0963
L257.584 54.0401
L258 53.9549
L258.105 53.8974
L258.523 53.8117
L258.63 53.7555
L259.049 53.6703
L259.154 53.6135
L259.568 53.529
L259.672 53.47
L260.09 53.3828
L260.194 53.3232
L260.612 53.2352
L260.72 53.1765
L261.243 53.0665
L261.346 53.0146
L261.866 52.9089
L261.971 52.8572
L262.499 52.7542
L262.606 52.7049
L263.121 52.6078
L263.222 52.559
L263.746 52.458
L263.849 52.411
L264.373 52.3158
L264.478 52.2658
L264.997 52.1677
L265.104 52.1175
L265.629 52.0199
L265.734 51.9686
L266.254 51.8658
L266.359 51.8159
L266.888 51.7169
L266.99 51.6689
L267.519 51.5706
L267.623 51.5225
L268.151 51.4248
L268.256 51.3762
L268.779 51.2849
L268.883 51.2407
L269.408 51.1515
L269.514 51.1054
L270.036 51.0165
L270.14 50.9701
L270.666 50.8776
L270.77 50.8313
L271.292 50.7385
L271.397 50.693
L271.923 50.5974
L272.028 50.5491
L272.557 50.45
L272.661 50.4029
L273.189 50.3099
L273.291 50.2639
L273.816 50.1736
L273.922 50.1304
L274.553 50.0212
L274.657 49.9736
L275.186 49.8795
L275.293 49.8337
L275.925 49.7246
L276.03 49.6819
L276.659 49.5783
L276.764 49.5357
L277.296 49.447
L277.403 49.4013
L278.032 49.2927
L278.14 49.2485
L278.769 49.138
L278.875 49.0942
L279.402 49.0035
L279.507 48.9607
L280.137 48.8514
L280.243 48.8057
L280.773 48.7144
L280.882 48.6672
L281.404 48.5755
L281.509 48.531
L282.141 48.4243
L282.246 48.3788
L282.773 48.2835
L282.88 48.2356
L283.403 48.1457
L283.506 48.1026
L284.033 48.0121
L284.137 47.9666
L284.66 47.8751
L284.763 47.8303
L285.286 47.7414
L285.39 47.6965
L285.921 47.6024
L286.024 47.5551
L286.55 47.4592
L286.657 47.4116
L287.181 47.319
L287.287 47.273
L287.817 47.1785
L287.921 47.1302
L288.449 47.037
L288.554 46.9927
L289.079 46.9019
L289.186 46.8556
L289.82 46.7475
L289.925 46.7048
L290.554 46.5954
L290.66 46.5518
L291.29 46.4448
L291.395 46.4031
L292.027 46.3001
L292.135 46.2593
L292.775 46.1533
L292.879 46.111
L293.513 46.008
L293.621 45.965
L294.253 45.8594
L294.356 45.8172
L294.99 45.7114
L295.093 45.6714
L295.725 45.5773
L295.831 45.5405
L296.569 45.4366
L296.673 45.4056
L297.515 45.2953
L297.622 45.2644
L298.47 45.1641
L298.573 45.137
L299.525 45.0299
L299.63 45.0029
L300.585 44.8986
L300.692 44.8734
L301.64 44.7724
L301.746 44.7487
L302.911 44.6396
L303.013 44.6176
L304.174 44.507
L304.28 44.4835
L305.343 44.3811
L305.448 44.3612
L306.826 44.2511
L306.934 44.2327
L308.309 44.1296
L308.411 44.1124
L310.009 44.0022
L310.118 43.9875
L311.81 43.8818
L311.916 43.8663
L313.607 43.7607
L313.715 43.7438
L314.99 43.638
L315.094 43.6184
L316.263 43.5137
L316.368 43.4929
L317.527 43.3882
L317.635 43.3662
L318.904 43.2579
L319.009 43.2396
L320.284 43.1372
L320.39 43.1177
L321.561 43.0166
L321.665 42.9968
L322.828 42.8942
L322.93 42.8718
L323.993 42.7665
L324.098 42.7425
L325.05 42.64
L325.155 42.6155
L326.216 42.5127
L326.324 42.4904
L327.392 42.3894
L327.498 42.3666
L328.567 42.2657
L328.673 42.242
L329.734 42.1354
L329.84 42.1113
L330.903 42.0019
L331.01 41.9765
L331.854 41.8795
L331.96 41.8488
L332.805 41.7409
L332.911 41.7116
L333.768 41.6123
L333.874 41.5835
L334.725 41.481
L334.835 41.453
L335.69 41.3546
L335.8 41.3258
L336.647 41.2255
L336.755 41.1946
L337.606 41.0851
L337.711 41.0559
L338.562 40.9543
L338.669 40.9253
L339.524 40.8251
L339.63 40.7947
L340.585 40.6875
L340.692 40.6628
L341.756 40.552
L341.864 40.5259
L342.814 40.4248
L342.922 40.3987
L343.877 40.291
L343.984 40.2621
L344.949 40.1511
L345.057 40.1236
L345.916 40.0258
L346.02 39.997
L346.873 39.8939
L346.983 39.8635
L347.836 39.7589
L347.942 39.7288
L348.69 39.6314
L348.798 39.5983
L349.543 39.5014
L349.648 39.4668
L350.394 39.3626
L350.501 39.3287
L351.247 39.2288
L351.351 39.1946
L352.102 39.0908
L352.212 39.0545
L352.959 38.9479
L353.064 38.9107
L353.704 38.816
L353.812 38.7775
L354.45 38.6813
L354.558 38.6436
L355.306 38.534
L355.412 38.4976
L356.054 38.4019
L356.163 38.3622
L356.796 38.2694
L356.902 38.2323
L357.651 38.1243
L357.758 38.0897
L358.501 37.9921
L358.607 37.9623
L359.351 37.8647
L359.459 37.8307
L360.206 37.7328
L360.312 37.7022
L361.167 37.5954
L361.274 37.5639
L362.023 37.4683
L362.132 37.4347
L362.886 37.3338
L362.993 37.3005
L363.747 37.2033
L363.852 37.1731
L364.708 37.0678
L364.814 37.0373
L365.674 36.9329
L365.782 36.9037
L366.639 36.8062
L366.748 36.7775
L367.702 36.6667
L367.811 36.6384
L368.67 36.5373
L368.779 36.507
L369.631 36.4045
L369.736 36.3766
L370.589 36.2783
L370.697 36.2499
L371.65 36.1416
L371.758 36.1146
L372.611 36.0168
L372.72 35.9871
L373.573 35.8792
L373.681 35.8474
L374.541 35.7378
L374.647 35.706
L375.507 35.599
L375.611 35.5685
L376.467 35.4617
L376.574 35.434
L377.532 35.3278
L377.639 35.301
L378.604 35.1924
L378.71 35.1647
L379.569 35.0636
L379.675 35.0341
L380.532 34.9351
L380.638 34.9067
L381.497 34.8087
L381.604 34.7807
L382.467 34.683
L382.572 34.6546
L383.432 34.5542
L383.539 34.5248
L384.403 34.4195
L384.508 34.3893
L385.363 34.2862
L385.473 34.2553
L386.335 34.1491
L386.441 34.1185
L387.301 34.0156
L387.403 33.9877
L388.256 33.8867
L388.364 33.8575
L389.219 33.7562
L389.326 33.7274
L390.189 33.6236
L390.298 33.5952
L391.161 33.4951
L391.268 33.4663
L392.123 33.3689
L392.231 33.3404
L393.083 33.2402
L393.194 33.2117
L394.057 33.112
L394.165 33.0864
L395.244 32.9759
L395.35 32.952
L396.317 32.8523
L396.422 32.8253
L397.395 32.7168
L397.501 32.6901
L398.461 32.5845
L398.567 32.5585
L399.65 32.4511
L399.759 32.4257
L400.833 32.3186
L400.942 32.2949
L402.002 32.1846
L402.111 32.1598
L403.076 32.0604
L403.186 32.0344
L404.156 31.928
L404.265 31.8992
L405.124 31.7986
L405.229 31.7697
L406.088 31.6695
L406.194 31.6402
L407.063 31.5362
L407.17 31.5067
L408.141 31.3962
L408.248 31.3703
L409.215 31.2635
L409.323 31.235
L410.29 31.1246
L410.397 31.0966
L411.26 30.9956
L411.369 30.9664
L412.343 30.8564
L412.452 30.8296
L413.42 30.7227
L413.53 30.696
L414.501 30.59
L414.501 30.5772
L415.469 30.4708
L415.58 30.4427
L416.445 30.3427
L416.553 30.3136
L417.514 30.2027
L417.622 30.1756
L418.586 30.0689
L418.694 30.0412
L419.56 29.9421
L419.667 29.9153
L420.528 29.8156
L420.633 29.786
L421.49 29.6813
L421.599 29.6523
L422.463 29.5484
L422.571 29.5197
L423.439 29.4184
L423.549 29.3899
L424.413 29.2884
L424.413 29.2735
L425.286 29.1688
L425.396 29.1398
L426.257 29.0364
L426.362 29.0064
L427.225 28.9057
L427.331 28.8765
L428.305 28.7672
L428.41 28.7413
L429.385 28.6338
L429.494 28.6068
L430.467 28.498
L430.575 28.4711
L431.545 28.3638
L431.654 28.3374
L432.625 28.2371
L432.731 28.2127
L433.712 28.1117
L433.819 28.0854
L434.793 27.9743
L434.903 27.9462
L435.871 27.8359
L435.981 27.808
L436.849 27.7099
L436.849 27.6961
L437.82 27.5864
L437.927 27.5599
L438.905 27.4576
L439.013 27.432
L439.985 27.3258
L440.095 27.301
L441.068 27.199
L441.177 27.1733
L442.157 27.074
L442.265 27.05
L443.344 26.9476
L443.451 26.9252
L444.528 26.8163
L444.635 26.7916
L445.615 26.6903
L445.721 26.6646
L446.688 26.5629
L446.797 26.5375
L447.759 26.4326
L447.865 26.4056
L448.844 26.2982
L448.952 26.2722
L449.922 26.1706
L450.033 26.1447
L451.008 26.0438
L451.115 26.0184
L452.09 25.917
L452.198 25.891
L453.168 25.7857
L453.278 25.7582
L454.152 25.6599
L454.261 25.6315
L455.131 25.5282
L455.237 25.4993
L456.098 25.3982
L456.208 25.37
L457.179 25.259
L457.286 25.2311
L458.266 25.1212
L458.374 25.0941
L459.356 24.9844
L459.466 24.9568
L460.44 24.8467
L460.549 24.8189
L461.416 24.7205
L461.524 24.6932
L462.49 24.5821
L462.598 24.5555
L463.584 24.4478
L463.693 24.4212
L464.67 24.3187
L464.78 24.2931
L465.756 24.186
L465.863 24.1581
L466.734 24.0601
L466.842 24.0318
L467.712 23.9335
L467.823 23.9059
L468.804 23.7987
L468.912 23.7715
L469.888 23.6646
L469.995 23.6398
L470.972 23.5402
L471.08 23.5144
L472.057 23.4143
L472.166 23.389
L473.145 23.2895
L473.251 23.2646
L474.233 23.1571
L474.34 23.1296
L475.315 23.0209
L475.423 22.9942
L476.399 22.8851
L476.508 22.8563
L477.378 22.7572
L477.487 22.7291
L478.464 22.6215
L478.57 22.595
L479.549 22.4899
L479.658 22.4639
L480.643 22.3591
L480.643 22.3459
L481.621 22.2401
L481.73 22.214
L482.71 22.1071
L482.817 22.08
L483.789 21.9744
L483.897 21.9483
L484.869 21.8425
L484.869 21.8293
L485.853 21.7237
L485.964 21.6966
L486.95 21.5906
L487.057 21.5646
L488.031 21.4608
L488.136 21.4361
L489.117 21.3337
L489.117 21.3209
L490.092 21.2163
L490.201 21.1913
L491.297 21.0827
L491.408 21.0578
L492.509 20.9478
L492.619 20.9234
L493.708 20.8183
L493.814 20.7969
L495.006 20.688
L495.116 20.6666
L496.304 20.5608
L496.414 20.5385
L497.617 20.4308
L497.725 20.4092
L498.813 20.3077
L498.923 20.2844
L500.009 20.1762
L500.115 20.1507
L501.099 20.0502
L501.208 20.0242
L502.187 19.9179
L502.297 19.8903
L503.171 19.7926
L503.281 19.7645
L504.261 19.6561
L504.369 19.6299
L505.351 19.5244
L505.459 19.4978
L506.442 19.3921
L506.552 19.3658
L507.533 19.26
L507.64 19.2335
L508.618 19.1237
L508.726 19.0956
L509.613 18.9939
L509.72 18.966
L510.702 18.856
L510.813 18.8279
L511.788 18.7201
L511.898 18.6938
L512.888 18.5893
L512.995 18.5637
L513.973 18.4601
L514.084 18.433
L515.064 18.3254
L515.17 18.2984
L516.156 18.1888
L516.265 18.1611
L517.249 18.0556
L517.358 18.0302
L518.338 17.9297
L518.447 17.9054
L519.524 17.7946
L519.524 17.7819
L520.512 17.679
L520.62 17.6536
L521.603 17.547
L521.709 17.5216
L522.692 17.4209
L522.803 17.396
L523.896 17.2859
L524.005 17.2615
L525.097 17.1507
L525.205 17.1278
L526.304 17.0225
L526.413 16.9998
L527.507 16.8984
L527.615 16.8765
L528.702 16.7742
L528.81 16.7515
L529.901 16.6469
L530.011 16.6239
L531.113 16.5177
L531.222 16.4949
L532.312 16.3936
L532.416 16.3721
L533.508 16.27
L533.614 16.2467
L534.703 16.1403
L534.814 16.1154
L535.811 16.0134
L535.919 15.9878
L537.01 15.8776
L537.12 15.8534
L538.207 15.7505
L538.315 15.7283
L539.42 15.624
L539.53 15.6015
L540.739 15.4929
L540.845 15.4718
L542.058 15.3618
L542.166 15.339
L543.256 15.2326
L543.361 15.2104
L544.464 15.1036
L544.574 15.0792
L545.226 15.0206
L545.226 15.0092" style="fill:none;stroke:#ff0000;stroke-width:0.5;"/>
   </g>
   <g id="matplotlib.axis_1">
    <g id="xtick_1">
     <g id="line2d_2">
      <defs>
       <path d="
M0 0
L0 -4" id="m5ea5f632d1"/>
      </defs>
      <g>
       <use style="stroke:#000000;stroke-linecap:butt;stroke-width:0.5;" x="29.3484375" xlink:href="#m5ea5f632d1" y="197.866894964"/>
      </g>
     </g>
    </g>
    <g id="xtick_2">
     <g id="line2d_3">
      <defs>
       <path d="
M0 0
L0 -4" id="m5ea5f632d1"/>
      </defs>
      <g>
       <use style="stroke:#000000;stroke-linecap:butt;stroke-width:0.5;" x="132.529900812" xlink:href="#m5ea5f632d1" y="197.866894964"/>
      </g>
     </g>
     <g id="text_1">
      <!-- 2e7 -->
      <defs>
       <path d="
M19.1875 8.29688
L53.6094 8.29688
L53.6094 0
L7.32812 0
L7.32812 8.29688
Q12.9375 14.1094 22.625 23.8906
Q32.3281 33.6875 34.8125 36.5312
Q39.5469 41.8438 41.4219 45.5312
Q43.3125 49.2188 43.3125 52.7812
Q43.3125 58.5938 39.2344 62.25
Q35.1562 65.9219 28.6094 65.9219
Q23.9688 65.9219 18.8125 64.3125
Q13.6719 62.7031 7.8125 59.4219
L7.8125 69.3906
Q13.7656 71.7812 18.9375 73
Q24.125 74.2188 28.4219 74.2188
Q39.75 74.2188 46.4844 68.5469
Q53.2188 62.8906 53.2188 53.4219
Q53.2188 48.9219 51.5312 44.8906
Q49.8594 40.875 45.4062 35.4062
Q44.1875 33.9844 37.6406 27.2188
Q31.1094 20.4531 19.1875 8.29688" id="BitstreamVeraSans-Roman-32"/>
       <path d="
M56.2031 29.5938
L56.2031 25.2031
L14.8906 25.2031
Q15.4844 15.9219 20.4844 11.0625
Q25.4844 6.20312 34.4219 6.20312
Q39.5938 6.20312 44.4531 7.46875
Q49.3125 8.73438 54.1094 11.2812
L54.1094 2.78125
Q49.2656 0.734375 44.1875 -0.34375
Q39.1094 -1.42188 33.8906 -1.42188
Q20.7969 -1.42188 13.1562 6.1875
Q5.51562 13.8125 5.51562 26.8125
Q5.51562 40.2344 12.7656 48.1094
Q20.0156 56 32.3281 56
Q43.3594 56 49.7812 48.8906
Q56.2031 41.7969 56.2031 29.5938
M47.2188 32.2344
Q47.125 39.5938 43.0938 43.9844
Q39.0625 48.3906 32.4219 48.3906
Q24.9062 48.3906 20.3906 44.1406
Q15.875 39.8906 15.1875 32.1719
z
" id="BitstreamVeraSans-Roman-65"/>
       <path d="
M8.20312 72.9062
L55.0781 72.9062
L55.0781 68.7031
L28.6094 0
L18.3125 0
L43.2188 64.5938
L8.20312 64.5938
z
" id="BitstreamVeraSans-Roman-37"/>
      </defs>
      <g transform="translate(123.884588312 209.288769964)scale(0.1 -0.1)">
       <use xlink:href="#BitstreamVeraSans-Roman-32"/>
       <use x="63.623046875" xlink:href="#BitstreamVeraSans-Roman-65"/>
       <use x="125.146484375" xlink:href="#BitstreamVeraSans-Roman-37"/>
      </g>
     </g>
    </g>
    <g id="xtick_3">
     <g id="line2d_4">
      <defs>
       <path d="
M0 0
L0 -4" id="m5ea5f632d1"/>
      </defs>
      <g>
       <use style="stroke:#000000;stroke-linecap:butt;stroke-width:0.5;" x="235.711364124" xlink:href="#m5ea5f632d1" y="197.866894964"/>
      </g>
     </g>
     <g id="text_2">
      <!-- 4e7 -->
      <defs>
       <path d="
M37.7969 64.3125
L12.8906 25.3906
L37.7969 25.3906
z

M35.2031 72.9062
L47.6094 72.9062
L47.6094 25.3906
L58.0156 25.3906
L58.0156 17.1875
L47.6094 17.1875
L47.6094 0
L37.7969 0
L37.7969 17.1875
L4.89062 17.1875
L4.89062 26.7031
z
" id="BitstreamVeraSans-Roman-34"/>
      </defs>
      <g transform="translate(226.944176624 209.157519964)scale(0.1 -0.1)">
       <use xlink:href="#BitstreamVeraSans-Roman-34"/>
       <use x="63.623046875" xlink:href="#BitstreamVeraSans-Roman-65"/>
       <use x="125.146484375" xlink:href="#BitstreamVeraSans-Roman-37"/>
      </g>
     </g>
    </g>
    <g id="xtick_4">
     <g id="line2d_5">
      <defs>
       <path d="
M0 0
L0 -4" id="m5ea5f632d1"/>
      </defs>
      <g>
       <use style="stroke:#000000;stroke-linecap:butt;stroke-width:0.5;" x="338.892827436" xlink:href="#m5ea5f632d1" y="197.866894964"/>
      </g>
     </g>
     <g id="text_3">
      <!-- 6e7 -->
      <defs>
       <path d="
M33.0156 40.375
Q26.375 40.375 22.4844 35.8281
Q18.6094 31.2969 18.6094 23.3906
Q18.6094 15.5312 22.4844 10.9531
Q26.375 6.39062 33.0156 6.39062
Q39.6562 6.39062 43.5312 10.9531
Q47.4062 15.5312 47.4062 23.3906
Q47.4062 31.2969 43.5312 35.8281
Q39.6562 40.375 33.0156 40.375
M52.5938 71.2969
L52.5938 62.3125
Q48.875 64.0625 45.0938 64.9844
Q41.3125 65.9219 37.5938 65.9219
Q27.8281 65.9219 22.6719 59.3281
Q17.5312 52.7344 16.7969 39.4062
Q19.6719 43.6562 24.0156 45.9219
Q28.375 48.1875 33.5938 48.1875
Q44.5781 48.1875 50.9531 41.5156
Q57.3281 34.8594 57.3281 23.3906
Q57.3281 12.1562 50.6875 5.35938
Q44.0469 -1.42188 33.0156 -1.42188
Q20.3594 -1.42188 13.6719 8.26562
Q6.98438 17.9688 6.98438 36.375
Q6.98438 53.6562 15.1875 63.9375
Q23.3906 74.2188 37.2031 74.2188
Q40.9219 74.2188 44.7031 73.4844
Q48.4844 72.75 52.5938 71.2969" id="BitstreamVeraSans-Roman-36"/>
      </defs>
      <g transform="translate(330.230327436 209.288769964)scale(0.1 -0.1)">
       <use xlink:href="#BitstreamVeraSans-Roman-36"/>
       <use x="63.623046875" xlink:href="#BitstreamVeraSans-Roman-65"/>
       <use x="125.146484375" xlink:href="#BitstreamVeraSans-Roman-37"/>
      </g>
     </g>
    </g>
    <g id="xtick_5">
     <g id="line2d_6">
      <defs>
       <path d="
M0 0
L0 -4" id="m5ea5f632d1"/>
      </defs>
      <g>
       <use style="stroke:#000000;stroke-linecap:butt;stroke-width:0.5;" x="442.074290747" xlink:href="#m5ea5f632d1" y="197.866894964"/>
      </g>
     </g>
     <g id="text_4">
      <!-- 8e7 -->
      <defs>
       <path d="
M31.7812 34.625
Q24.75 34.625 20.7188 30.8594
Q16.7031 27.0938 16.7031 20.5156
Q16.7031 13.9219 20.7188 10.1562
Q24.75 6.39062 31.7812 6.39062
Q38.8125 6.39062 42.8594 10.1719
Q46.9219 13.9688 46.9219 20.5156
Q46.9219 27.0938 42.8906 30.8594
Q38.875 34.625 31.7812 34.625
M21.9219 38.8125
Q15.5781 40.375 12.0312 44.7188
Q8.5 49.0781 8.5 55.3281
Q8.5 64.0625 14.7188 69.1406
Q20.9531 74.2188 31.7812 74.2188
Q42.6719 74.2188 48.875 69.1406
Q55.0781 64.0625 55.0781 55.3281
Q55.0781 49.0781 51.5312 44.7188
Q48 40.375 41.7031 38.8125
Q48.8281 37.1562 52.7969 32.3125
Q56.7812 27.4844 56.7812 20.5156
Q56.7812 9.90625 50.3125 4.23438
Q43.8438 -1.42188 31.7812 -1.42188
Q19.7344 -1.42188 13.25 4.23438
Q6.78125 9.90625 6.78125 20.5156
Q6.78125 27.4844 10.7812 32.3125
Q14.7969 37.1562 21.9219 38.8125
M18.3125 54.3906
Q18.3125 48.7344 21.8438 45.5625
Q25.3906 42.3906 31.7812 42.3906
Q38.1406 42.3906 41.7188 45.5625
Q45.3125 48.7344 45.3125 54.3906
Q45.3125 60.0625 41.7188 63.2344
Q38.1406 66.4062 31.7812 66.4062
Q25.3906 66.4062 21.8438 63.2344
Q18.3125 60.0625 18.3125 54.3906" id="BitstreamVeraSans-Roman-38"/>
      </defs>
      <g transform="translate(433.401634497 209.288769964)scale(0.1 -0.1)">
       <use xlink:href="#BitstreamVeraSans-Roman-38"/>
       <use x="63.623046875" xlink:href="#BitstreamVeraSans-Roman-65"/>
       <use x="125.146484375" xlink:href="#BitstreamVeraSans-Roman-37"/>
      </g>
     </g>
    </g>
    <g id="xtick_6">
     <g id="line2d_7">
      <defs>
       <path d="
M0 0
L0 -4" id="m5ea5f632d1"/>
      </defs>
      <g>
       <use style="stroke:#000000;stroke-linecap:butt;stroke-width:0.5;" x="545.255754059" xlink:href="#m5ea5f632d1" y="197.866894964"/>
      </g>
     </g>
     <g id="text_5">
      <!-- 1e8 -->
      <defs>
       <path d="
M12.4062 8.29688
L28.5156 8.29688
L28.5156 63.9219
L10.9844 60.4062
L10.9844 69.3906
L28.4219 72.9062
L38.2812 72.9062
L38.2812 8.29688
L54.3906 8.29688
L54.3906 0
L12.4062 0
z
" id="BitstreamVeraSans-Roman-31"/>
      </defs>
      <g transform="translate(536.708097809 209.288769964)scale(0.1 -0.1)">
       <use xlink:href="#BitstreamVeraSans-Roman-31"/>
       <use x="63.623046875" xlink:href="#BitstreamVeraSans-Roman-65"/>
       <use x="125.146484375" xlink:href="#BitstreamVeraSans-Roman-38"/>
      </g>
     </g>
    </g>
    <g id="xtick_7">
     <g id="line2d_8">
      <defs>
       <path d="
M0 0
L0 -2" id="m40156523ef"/>
      </defs>
      <g>
       <use style="stroke:#000000;stroke-linecap:butt;stroke-width:0.5;" x="55.143803328" xlink:href="#m40156523ef" y="197.866894964"/>
      </g>
     </g>
    </g>
    <g id="xtick_8">
     <g id="line2d_9">
      <defs>
       <path d="
M0 0
L0 -2" id="m40156523ef"/>
      </defs>
      <g>
       <use style="stroke:#000000;stroke-linecap:butt;stroke-width:0.5;" x="80.9391691559" xlink:href="#m40156523ef" y="197.866894964"/>
      </g>
     </g>
    </g>
    <g id="xtick_9">
     <g id="line2d_10">
      <defs>
       <path d="
M0 0
L0 -2" id="m40156523ef"/>
      </defs>
      <g>
       <use style="stroke:#000000;stroke-linecap:butt;stroke-width:0.5;" x="106.734534984" xlink:href="#m40156523ef" y="197.866894964"/>
      </g>
     </g>
    </g>
    <g id="xtick_10">
     <g id="line2d_11">
      <defs>
       <path d="
M0 0
L0 -2" id="m40156523ef"/>
      </defs>
      <g>
       <use style="stroke:#000000;stroke-linecap:butt;stroke-width:0.5;" x="158.32526664" xlink:href="#m40156523ef" y="197.866894964"/>
      </g>
     </g>
    </g>
    <g id="xtick_11">
     <g id="line2d_12">
      <defs>
       <path d="
M0 0
L0 -2" id="m40156523ef"/>
      </defs>
      <g>
       <use style="stroke:#000000;stroke-linecap:butt;stroke-width:0.5;" x="184.120632468" xlink:href="#m40156523ef" y="197.866894964"/>
      </g>
     </g>
    </g>
    <g id="xtick_12">
     <g id="line2d_13">
      <defs>
       <path d="
M0 0
L0 -2" id="m40156523ef"/>
      </defs>
      <g>
       <use style="stroke:#000000;stroke-linecap:butt;stroke-width:0.5;" x="209.915998296" xlink:href="#m40156523ef" y="197.866894964"/>
      </g>
     </g>
    </g>
    <g id="xtick_13">
     <g id="line2d_14">
      <defs>
       <path d="
M0 0
L0 -2" id="m40156523ef"/>
      </defs>
      <g>
       <use style="stroke:#000000;stroke-linecap:butt;stroke-width:0.5;" x="261.506729952" xlink:href="#m40156523ef" y="197.866894964"/>
      </g>
     </g>
    </g>
    <g id="xtick_14">
     <g id="line2d_15">
      <defs>
       <path d="
M0 0
L0 -2" id="m40156523ef"/>
      </defs>
      <g>
       <use style="stroke:#000000;stroke-linecap:butt;stroke-width:0.5;" x="287.30209578" xlink:href="#m40156523ef" y="197.866894964"/>
      </g>
     </g>
    </g>
    <g id="xtick_15">
     <g id="line2d_16">
      <defs>
       <path d="
M0 0
L0 -2" id="m40156523ef"/>
      </defs>
      <g>
       <use style="stroke:#000000;stroke-linecap:butt;stroke-width:0.5;" x="313.097461608" xlink:href="#m40156523ef" y="197.866894964"/>
      </g>
     </g>
    </g>
    <g id="xtick_16">
     <g id="line2d_17">
      <defs>
       <path d="
M0 0
L0 -2" id="m40156523ef"/>
      </defs>
      <g>
       <use style="stroke:#000000;stroke-linecap:butt;stroke-width:0.5;" x="364.688193263" xlink:href="#m40156523ef" y="197.866894964"/>
      </g>
     </g>
    </g>
    <g id="xtick_17">
     <g id="line2d_18">
      <defs>
       <path d="
M0 0
L0 -2" id="m40156523ef"/>
      </defs>
      <g>
       <use style="stroke:#000000;stroke-linecap:butt;stroke-width:0.5;" x="390.483559091" xlink:href="#m40156523ef" y="197.866894964"/>
      </g>
     </g>
    </g>
    <g id="xtick_18">
     <g id="line2d_19">
      <defs>
       <path d="
M0 0
L0 -2" id="m40156523ef"/>
      </defs>
      <g>
       <use style="stroke:#000000;stroke-linecap:butt;stroke-width:0.5;" x="416.278924919" xlink:href="#m40156523ef" y="197.866894964"/>
      </g>
     </g>
    </g>
    <g id="xtick_19">
     <g id="line2d_20">
      <defs>
       <path d="
M0 0
L0 -2" id="m40156523ef"/>
      </defs>
      <g>
       <use style="stroke:#000000;stroke-linecap:butt;stroke-width:0.5;" x="467.869656575" xlink:href="#m40156523ef" y="197.866894964"/>
      </g>
     </g>
    </g>
    <g id="xtick_20">
     <g id="line2d_21">
      <defs>
       <path d="
M0 0
L0 -2" id="m40156523ef"/>
      </defs>
      <g>
       <use style="stroke:#000000;stroke-linecap:butt;stroke-width:0.5;" x="493.665022403" xlink:href="#m40156523ef" y="197.866894964"/>
      </g>
     </g>
    </g>
    <g id="xtick_21">
     <g id="line2d_22">
      <defs>
       <path d="
M0 0
L0 -2" id="m40156523ef"/>
      </defs>
      <g>
       <use style="stroke:#000000;stroke-linecap:butt;stroke-width:0.5;" x="519.460388231" xlink:href="#m40156523ef" y="197.866894964"/>
      </g>
     </g>
    </g>
   </g>
   <g id="matplotlib.axis_2">
    <g id="ytick_1">
     <g id="line2d_23">
      <defs>
       <path d="
M0 0
L4 0" id="ma2a3a4a376"/>
      </defs>
      <g>
       <use style="stroke:#000000;stroke-linecap:butt;stroke-width:0.5;" x="29.3484375" xlink:href="#ma2a3a4a376" y="311.627689306"/>
      </g>
     </g>
     <g id="text_6">
      <!-- -0.5 -->
      <defs>
       <path d="
M31.7812 66.4062
Q24.1719 66.4062 20.3281 58.9062
Q16.5 51.4219 16.5 36.375
Q16.5 21.3906 20.3281 13.8906
Q24.1719 6.39062 31.7812 6.39062
Q39.4531 6.39062 43.2812 13.8906
Q47.125 21.3906 47.125 36.375
Q47.125 51.4219 43.2812 58.9062
Q39.4531 66.4062 31.7812 66.4062
M31.7812 74.2188
Q44.0469 74.2188 50.5156 64.5156
Q56.9844 54.8281 56.9844 36.375
Q56.9844 17.9688 50.5156 8.26562
Q44.0469 -1.42188 31.7812 -1.42188
Q19.5312 -1.42188 13.0625 8.26562
Q6.59375 17.9688 6.59375 36.375
Q6.59375 54.8281 13.0625 64.5156
Q19.5312 74.2188 31.7812 74.2188" id="BitstreamVeraSans-Roman-30"/>
       <path d="
M10.6875 12.4062
L21 12.4062
L21 0
L10.6875 0
z
" id="BitstreamVeraSans-Roman-2e"/>
       <path d="
M4.89062 31.3906
L31.2031 31.3906
L31.2031 23.3906
L4.89062 23.3906
z
" id="BitstreamVeraSans-Roman-2d"/>
       <path d="
M10.7969 72.9062
L49.5156 72.9062
L49.5156 64.5938
L19.8281 64.5938
L19.8281 46.7344
Q21.9688 47.4688 24.1094 47.8281
Q26.2656 48.1875 28.4219 48.1875
Q40.625 48.1875 47.75 41.5
Q54.8906 34.8125 54.8906 23.3906
Q54.8906 11.625 47.5625 5.09375
Q40.2344 -1.42188 26.9062 -1.42188
Q22.3125 -1.42188 17.5469 -0.640625
Q12.7969 0.140625 7.71875 1.70312
L7.71875 11.625
Q12.1094 9.23438 16.7969 8.0625
Q21.4844 6.89062 26.7031 6.89062
Q35.1562 6.89062 40.0781 11.3281
Q45.0156 15.7656 45.0156 23.3906
Q45.0156 31 40.0781 35.4375
Q35.1562 39.8906 26.7031 39.8906
Q22.75 39.8906 18.8125 39.0156
Q14.8906 38.1406 10.7969 36.2812
z
" id="BitstreamVeraSans-Roman-35"/>
      </defs>
      <g transform="translate(7.2 315.267533056)scale(0.1 -0.1)">
       <use xlink:href="#BitstreamVeraSans-Roman-2d"/>
       <use x="36.083984375" xlink:href="#BitstreamVeraSans-Roman-30"/>
       <use x="99.70703125" xlink:href="#BitstreamVeraSans-Roman-2e"/>
       <use x="131.494140625" xlink:href="#BitstreamVeraSans-Roman-35"/>
      </g>
     </g>
    </g>
    <g id="ytick_2">
     <g id="line2d_24">
      <defs>
       <path d="
M0 0
L4 0" id="ma2a3a4a376"/>
      </defs>
      <g>
       <use style="stroke:#000000;stroke-linecap:butt;stroke-width:0.5;" x="29.3484375" xlink:href="#ma2a3a4a376" y="197.866894964"/>
      </g>
     </g>
    </g>
    <g id="ytick_3">
     <g id="line2d_25">
      <defs>
       <path d="
M0 0
L4 0" id="ma2a3a4a376"/>
      </defs>
      <g>
       <use style="stroke:#000000;stroke-linecap:butt;stroke-width:0.5;" x="29.3484375" xlink:href="#ma2a3a4a376" y="84.1061006217"/>
      </g>
     </g>
     <g id="text_7">
      <!-- 0.5 -->
      <g transform="translate(10.978125 87.7459443717)scale(0.1 -0.1)">
       <use xlink:href="#BitstreamVeraSans-Roman-30"/>
       <use x="63.623046875" xlink:href="#BitstreamVeraSans-Roman-2e"/>
       <use x="95.41015625" xlink:href="#BitstreamVeraSans-Roman-35"/>
      </g>
     </g>
    </g>
    <g id="ytick_4">
     <g id="line2d_26">
      <defs>
       <path d="
M0 0
L2 0" id="md12bee93d5"/>
      </defs>
      <g>
       <use style="stroke:#000000;stroke-linecap:butt;stroke-width:0.5;" x="29.3484375" xlink:href="#md12bee93d5" y="402.63632478"/>
      </g>
     </g>
    </g>
    <g id="ytick_5">
     <g id="line2d_27">
      <defs>
       <path d="
M0 0
L2 0" id="md12bee93d5"/>
      </defs>
      <g>
       <use style="stroke:#000000;stroke-linecap:butt;stroke-width:0.5;" x="29.3484375" xlink:href="#md12bee93d5" y="379.884165911"/>
      </g>
     </g>
    </g>
    <g id="ytick_6">
     <g id="line2d_28">
      <defs>
       <path d="
M0 0
L2 0" id="md12bee93d5"/>
      </defs>
      <g>
       <use style="stroke:#000000;stroke-linecap:butt;stroke-width:0.5;" x="29.3484375" xlink:href="#md12bee93d5" y="357.132007043"/>
      </g>
     </g>
    </g>
    <g id="ytick_7">
     <g id="line2d_29">
      <defs>
       <path d="
M0 0
L2 0" id="md12bee93d5"/>
      </defs>
      <g>
       <use style="stroke:#000000;stroke-linecap:butt;stroke-width:0.5;" x="29.3484375" xlink:href="#md12bee93d5" y="334.379848174"/>
      </g>
     </g>
    </g>
    <g id="ytick_8">
     <g id="line2d_30">
      <defs>
       <path d="
M0 0
L2 0" id="md12bee93d5"/>
      </defs>
      <g>
       <use style="stroke:#000000;stroke-linecap:butt;stroke-width:0.5;" x="29.3484375" xlink:href="#md12bee93d5" y="288.875530438"/>
      </g>
     </g>
    </g>
    <g id="ytick_9">
     <g id="line2d_31">
      <defs>
       <path d="
M0 0
L2 0" id="md12bee93d5"/>
      </defs>
      <g>
       <use style="stroke:#000000;stroke-linecap:butt;stroke-width:0.5;" x="29.3484375" xlink:href="#md12bee93d5" y="266.123371569"/>
      </g>
     </g>
    </g>
    <g id="ytick_10">
     <g id="line2d_32">
      <defs>
       <path d="
M0 0
L2 0" id="md12bee93d5"/>
      </defs>
      <g>
       <use style="stroke:#000000;stroke-linecap:butt;stroke-width:0.5;" x="29.3484375" xlink:href="#md12bee93d5" y="243.371212701"/>
      </g>
     </g>
    </g>
    <g id="ytick_11">
     <g id="line2d_33">
      <defs>
       <path d="
M0 0
L2 0" id="md12bee93d5"/>
      </defs>
      <g>
       <use style="stroke:#000000;stroke-linecap:butt;stroke-width:0.5;" x="29.3484375" xlink:href="#md12bee93d5" y="220.619053832"/>
      </g>
     </g>
    </g>
    <g id="ytick_12">
     <g id="line2d_34">
      <defs>
       <path d="
M0 0
L2 0" id="md12bee93d5"/>
      </defs>
      <g>
       <use style="stroke:#000000;stroke-linecap:butt;stroke-width:0.5;" x="29.3484375" xlink:href="#md12bee93d5" y="175.114736095"/>
      </g>
     </g>
    </g>
    <g id="ytick_13">
     <g id="line2d_35">
      <defs>
       <path d="
M0 0
L2 0" id="md12bee93d5"/>
      </defs>
      <g>
       <use style="stroke:#000000;stroke-linecap:butt;stroke-width:0.5;" x="29.3484375" xlink:href="#md12bee93d5" y="152.362577227"/>
      </g>
     </g>
    </g>
    <g id="ytick_14">
     <g id="line2d_36">
      <defs>
       <path d="
M0 0
L2 0" id="md12bee93d5"/>
      </defs>
      <g>
       <use style="stroke:#000000;stroke-linecap:butt;stroke-width:0.5;" x="29.3484375" xlink:href="#md12bee93d5" y="129.610418359"/>
      </g>
     </g>
    </g>
    <g id="ytick_15">
     <g id="line2d_37">
      <defs>
       <path d="
M0 0
L2 0" id="md12bee93d5"/>
      </defs>
      <g>
       <use style="stroke:#000000;stroke-linecap:butt;stroke-width:0.5;" x="29.3484375" xlink:href="#md12bee93d5" y="106.85825949"/>
      </g>
     </g>
    </g>
    <g id="ytick_16">
     <g id="line2d_38">
      <defs>
       <path d="
M0 0
L2 0" id="md12bee93d5"/>
      </defs>
      <g>
       <use style="stroke:#000000;stroke-linecap:butt;stroke-width:0.5;" x="29.3484375" xlink:href="#md12bee93d5" y="61.3539417533"/>
      </g>
     </g>
    </g>
    <g id="ytick_17">
     <g id="line2d_39">
      <defs>
       <path d="
M0 0
L2 0" id="md12bee93d5"/>
      </defs>
      <g>
       <use style="stroke:#000000;stroke-linecap:butt;stroke-width:0.5;" x="29.3484375" xlink:href="#md12bee93d5" y="38.6017828848"/>
      </g>
     </g>
    </g>
   </g>
   <g id="patch_3">
    <path d="
M19.0309 197.867
L555.544 197.867" style="fill:none;stroke:#000000;stroke-width:0.8;"/>
   </g>
   <g id="patch_4">
    <path d="
M29.3484 413.28
L29.3484 7.2" style="fill:none;stroke:#000000;stroke-width:0.8;"/>
   </g>
  </g>
 </g>
 <defs>
  <clipPath id="p13c0847ff8">
   <rect height="406.08" width="536.513117448" x="19.0308878672" y="7.2"/>
  </clipPath>
 </defs>
</svg>
