<?xml version="1.0" encoding="utf-8" standalone="no"?>
<!DOCTYPE svg PUBLIC "-//W3C//DTD SVG 1.1//EN"
  "http://www.w3.org/Graphics/SVG/1.1/DTD/svg11.dtd">
<!-- Created with matplotlib (http://matplotlib.sourceforge.net/) -->
<svg height="420pt" version="1.1" viewBox="0 0 562 420" width="562pt" xmlns="http://www.w3.org/2000/svg" xmlns:xlink="http://www.w3.org/1999/xlink">
 <defs>
  <style type="text/css">
*{stroke-linecap:square;stroke-linejoin:round;}
  </style>
 </defs>
 <g id="figure_1">
  <g id="patch_1">
   <path d="
M0 420.48
L562.744 420.48
L562.744 0
L0 0
z
" style="fill:#ffffff;"/>
  </g>
  <g id="axes_1">
   <g id="patch_2">
    <path d="
M19.0309 413.28
L555.544 413.28
L555.544 7.2
L19.0309 7.2
z
" style="fill:#ffffff;"/>
   </g>
   <g id="line2d_1">
    <path clip-path="url(#p13c0847ff8)" d="
M29.3484 15.0092
L29.3965 15.0092
L29.4537 366.976
L29.5147 366.976
L29.5768 386.436
L29.6415 386.436
L29.7082 396.585
L29.7741 396.585
L29.8417 399.496
L29.911 399.496
L29.9804 401.62
L30.0506 401.62
L30.1209 403.26
L30.1923 403.26
L30.1923 403.512
L30.2646 403.512
L30.2646 403.512
L30.3362 402.216
L30.4089 402.216
L30.4818 403.102
L30.6286 403.116
L30.6286 402.799
L30.7035 402.799
L30.7035 402.799
L30.7767 403.777
L30.852 403.777
L30.9277 404.98
L31.0018 404.98
L31.0018 405.471
L31.077 405.408
L31.1528 405.408
L31.2291 403.804
L31.3063 403.804
L31.3818 401.699
L31.4605 401.699
L31.5366 399.465
L31.6132 399.465
L31.6911 397.397
L31.7694 397.397
L31.8457 395.591
L31.9236 395.591
L32.0021 393.918
L32.0794 393.918
L32.1589 392.239
L32.238 392.239
L32.317 390.582
L32.3944 390.582
L32.4739 388.197
L32.5522 388.197
L32.6328 386.071
L32.714 386.071
L32.7931 383.978
L32.8734 383.978
L32.9523 381.9
L33.0317 381.9
L33.1123 379.969
L33.194 379.969
L33.2745 378.049
L33.3546 378.049
L33.4347 376.417
L33.5151 376.417
L33.5956 374.594
L33.6766 374.594
L33.7591 373.303
L33.8384 373.303
L33.92 372.301
L34.0021 372.301
L34.0836 371.445
L34.1652 371.445
L34.2478 370.486
L34.3296 370.486
L34.4128 369.762
L34.4956 369.762
L34.5762 369.066
L34.6582 369.066
L34.7408 368.453
L34.8254 368.453
L34.9083 367.975
L34.9903 367.975
L35.0714 367.298
L35.1546 367.298
L35.2369 366.649
L35.3205 366.649
L35.4024 365.97
L35.4832 365.97
L35.568 365.23
L35.651 365.23
L35.7368 364.626
L35.8201 364.626
L35.9019 364.096
L35.9858 364.096
L36.07 363.808
L36.1537 363.808
L36.2385 363.574
L36.3227 363.574
L36.4067 363.209
L36.4904 363.209
L36.5719 362.777
L36.6593 362.777
L36.7427 362.329
L36.8268 362.329
L36.9095 361.876
L36.9945 361.876
L37.0784 361.548
L37.1613 361.548
L37.2476 361.274
L37.3337 361.274
L37.4182 361.111
L37.59 361.05
L37.675 360.894
L37.9297 360.813
L38.0132 360.763
L39.0397 360.838
L39.1254 360.978
L39.4688 361.087
L39.5582 361.109
L40.2471 361.025
L40.3335 360.919
L41.0281 360.833
L41.1133 360.766
L41.3787 360.662
L41.4661 360.523
L41.6402 360.452
L41.727 360.277
L41.8151 360.277
L41.9033 360.072
L42.0774 359.996
L42.1668 359.821
L42.3416 359.747
L42.4273 359.594
L42.6043 359.506
L42.6897 359.321
L42.8664 359.247
L42.9542 359.099
L43.13 359.03
L43.218 358.94
L43.4827 358.851
L43.5709 358.716
L43.8354 358.612
L43.9198 358.541
L44.5417 358.453
L44.6313 358.385
L45.1661 358.291
L45.2524 358.214
L45.5177 358.121
L45.608 357.997
L45.9595 357.887
L46.0469 357.809
L46.3151 357.723
L46.4057 357.61
L46.5842 357.543
L46.6755 357.378
L46.8537 357.287
L46.9417 357.07
L47.0303 357.07
L47.1176 356.824
L47.2087 356.824
L47.3009 356.517
L47.3922 356.517
L47.4822 356.223
L47.5742 356.223
L47.6658 355.983
L47.8452 355.884
L47.9341 355.662
L48.1095 355.565
L48.2034 355.364
L48.2922 355.364
L48.3802 355.113
L48.559 355.007
L48.6474 354.783
L48.7368 354.783
L48.83 354.521
L48.9202 354.521
L49.0097 354.295
L49.0986 354.295
L49.1879 354.053
L49.279 354.053
L49.3701 353.808
L49.5498 353.704
L49.6387 353.513
L49.8213 353.406
L49.9123 353.218
L50.0944 353.136
L50.1824 352.983
L50.3626 352.903
L50.4524 352.761
L50.635 352.685
L50.7269 352.536
L50.9072 352.458
L50.9963 352.334
L51.1781 352.279
L51.2702 352.154
L51.5441 352.066
L51.634 351.985
L51.9091 351.878
L52 351.796
L52.3596 351.705
L52.4502 351.669
L53.7277 351.565
L53.8178 351.516
L54.1866 351.42
L54.2792 351.376
L55.2799 351.274
L55.3716 351.247
L57.211 351.161
L57.3037 351.098
L57.8589 350.989
L57.9516 350.939
L58.7853 351.031
L58.8766 351.072
L59.3437 351.162
L59.4364 351.241
L59.8048 351.344
L59.895 351.439
L60.1745 351.532
L60.2677 351.611
L60.6394 351.713
L60.7327 351.772
L61.3827 351.697
L61.4774 351.594
L61.6623 351.537
L61.7542 351.437
L62.0303 351.348
L62.1245 351.25
L62.4076 351.171
L62.5003 351.108
L62.8758 351.002
L62.9683 350.927
L63.2474 350.838
L63.3387 350.716
L63.5254 350.65
L63.6193 350.524
L63.8079 350.458
L63.9018 350.336
L64.1796 350.227
L64.2726 350.132
L64.5539 350.05
L64.648 349.97
L64.9236 349.883
L65.0182 349.783
L65.2045 349.719
L65.2966 349.587
L65.485 349.515
L65.5789 349.385
L65.7625 349.323
L65.8582 349.172
L66.0434 349.086
L66.1407 348.907
L66.3276 348.821
L66.4232 348.646
L66.6104 348.559
L66.7047 348.385
L66.8909 348.303
L66.9846 348.141
L67.173 348.053
L67.2694 347.882
L67.4549 347.801
L67.551 347.641
L67.739 347.564
L67.8321 347.397
L68.0237 347.311
L68.1179 347.137
L68.3052 347.05
L68.3999 346.887
L68.587 346.802
L68.6826 346.628
L68.8691 346.546
L68.9636 346.374
L69.152 346.289
L69.2465 346.121
L69.4379 346.031
L69.5332 345.848
L69.7204 345.757
L69.8142 345.574
L70.0006 345.479
L70.0947 345.294
L70.2838 345.201
L70.3781 345.031
L70.5667 344.948
L70.6629 344.786
L70.8533 344.706
L70.946 344.562
L71.1392 344.497
L71.2336 344.389
L71.5171 344.283
L71.6109 344.178
L71.8925 344.081
L71.9898 343.979
L72.2717 343.87
L72.3681 343.764
L72.652 343.664
L72.7473 343.552
L73.0349 343.444
L73.1277 343.335
L73.4097 343.238
L73.5038 343.148
L73.7863 343.062
L73.8827 342.983
L74.1668 342.889
L74.2609 342.773
L74.4494 342.715
L74.5443 342.598
L74.7331 342.54
L74.8288 342.417
L75.0203 342.358
L75.1178 342.228
L75.3083 342.163
L75.4002 342.038
L75.5931 341.98
L75.6878 341.864
L75.8805 341.806
L75.9758 341.687
L76.2617 341.592
L76.3569 341.514
L76.6436 341.438
L76.7383 341.359
L77.212 341.249
L77.3081 341.194
L77.6876 341.107
L77.7842 341.045
L78.1696 340.948
L78.2652 340.896
L78.8343 340.785
L78.9319 340.743
L79.5065 340.649
L79.5999 340.61
L80.177 340.503
L80.273 340.472
L85.2667 340.363
L85.361 340.313
L85.9371 340.211
L86.0343 340.17
L86.9022 340.061
L86.9974 340.028
L87.5786 339.937
L87.676 339.897
L88.1598 339.807
L88.2568 339.762
L88.7396 339.66
L88.8358 339.606
L89.4125 339.499
L89.5069 339.452
L89.9924 339.354
L90.0908 339.303
L90.4788 339.21
L90.5733 339.154
L91.1533 339.049
L91.2486 339.009
L91.8338 338.9
L91.9309 338.861
L92.6096 338.766
L92.7062 338.728
L93.1867 338.626
L93.2845 338.571
L93.6721 338.473
L93.7684 338.406
L94.1608 338.312
L94.2584 338.255
L94.6462 338.164
L94.7448 338.099
L95.1286 338.004
L95.2253 337.946
L95.71 337.837
L95.8079 337.779
L96.3003 337.673
L96.3981 337.623
L96.8888 337.532
L96.987 337.493
L97.669 337.391
L97.7674 337.371
L99.5276 337.261
L99.6226 337.254
L100.597 337.15
L100.695 337.134
L101.771 337.026
L101.872 337.009
L104.216 336.903
L104.315 336.893
L106.575 336.791
L106.675 336.764
L107.559 336.653
L107.655 336.631
L109.038 336.528
L109.137 336.509
L110.607 336.403
L110.707 336.387
L111.986 336.282
L112.084 336.269
L112.975 336.163
L113.073 336.135
L114.064 336.03
L114.16 336.01
L115.05 335.907
L115.149 335.88
L115.938 335.783
L116.035 335.753
L116.922 335.644
L117.021 335.623
L118.608 335.52
L118.705 335.489
L119.495 335.383
L119.59 335.355
L120.381 335.244
L120.484 335.215
L121.379 335.107
L121.481 335.088
L122.368 334.982
L122.47 334.956
L123.17 334.853
L123.27 334.82
L123.957 334.719
L124.059 334.68
L124.659 334.581
L124.76 334.543
L125.356 334.44
L125.454 334.401
L126.249 334.292
L126.349 334.261
L127.146 334.161
L127.247 334.128
L127.948 334.026
L128.046 333.995
L128.646 333.9
L128.744 333.863
L129.342 333.754
L129.441 333.704
L129.94 333.601
L130.038 333.548
L130.543 333.452
L130.641 333.409
L131.24 333.311
L131.339 333.276
L132.136 333.165
L132.236 333.14
L133.031 333.042
L133.132 333.012
L133.835 332.918
L133.937 332.881
L134.638 332.778
L134.738 332.743
L135.34 332.646
L135.44 332.608
L136.137 332.505
L136.235 332.469
L136.939 332.368
L137.039 332.335
L137.741 332.224
L137.839 332.189
L138.547 332.083
L138.646 332.05
L139.548 331.951
L139.649 331.924
L140.653 331.814
L140.751 331.793
L141.651 331.687
L141.751 331.657
L142.65 331.549
L142.752 331.523
L143.559 331.419
L143.661 331.39
L144.471 331.28
L144.571 331.249
L145.281 331.15
L145.381 331.113
L146.183 331.002
L146.283 330.976
L147.19 330.873
L147.288 330.846
L148.191 330.736
L148.291 330.712
L149.204 330.609
L149.305 330.588
L150.411 330.477
L150.509 330.457
L151.725 330.353
L151.827 330.333
L152.938 330.232
L153.04 330.211
L154.25 330.109
L154.349 330.093
L155.763 329.988
L155.864 329.966
L156.771 329.857
L156.871 329.832
L157.682 329.735
L157.785 329.701
L158.496 329.599
L158.599 329.566
L159.306 329.463
L159.411 329.433
L160.329 329.329
L160.428 329.306
L161.34 329.199
L161.441 329.17
L162.252 329.068
L162.354 329.037
L163.062 328.932
L163.161 328.899
L163.973 328.793
L164.077 328.76
L164.792 328.667
L164.892 328.632
L165.599 328.522
L165.698 328.491
L166.407 328.391
L166.51 328.357
L167.325 328.249
L167.429 328.217
L168.138 328.118
L168.238 328.087
L169.05 327.986
L169.15 327.957
L169.966 327.853
L170.072 327.824
L170.884 327.713
L170.985 327.686
L171.796 327.584
L171.899 327.554
L172.817 327.448
L172.921 327.418
L173.735 327.311
L173.837 327.281
L174.652 327.17
L174.756 327.138
L175.565 327.037
L175.671 327.005
L176.484 326.905
L176.587 326.879
L177.814 326.773
L177.915 326.757
L180.172 326.648
L180.275 326.638
L183.539 326.527
L183.643 326.517
L186.396 326.407
L186.499 326.399
L192.348 326.288
L192.453 326.283
L205.83 326.39
L205.933 326.402
L208.732 326.511
L208.834 326.516
L212.446 326.626
L212.55 326.632
L219.272 326.743
L219.379 326.746
L254.334 326.635
L254.438 326.632
L289.82 326.522
L289.925 326.519
L294.145 326.41
L294.253 326.402
L296.776 326.295
L296.881 326.285
L298.784 326.175
L298.893 326.161
L300.795 326.055
L300.9 326.042
L302.803 325.934
L302.911 325.921
L304.702 325.81
L304.81 325.795
L306.405 325.685
L306.51 325.67
L308.202 325.564
L308.309 325.551
L310.118 325.445
L310.221 325.43
L312.022 325.324
L312.127 325.312
L314.034 325.206
L314.141 325.192
L315.732 325.085
L315.84 325.069
L317.527 324.963
L317.635 324.95
L320.068 324.84
L320.176 324.833
L323.037 324.724
L323.14 324.713
L325.155 324.606
L325.257 324.593
L327.498 324.485
L327.605 324.474
L329.84 324.368
L329.944 324.357
L332.176 324.247
L332.281 324.237
L334.193 324.129
L334.299 324.115
L335.8 324.011
L335.903 323.995
L337.285 323.888
L337.392 323.87
L338.778 323.768
L338.882 323.75
L340.265 323.641
L340.375 323.622
L341.649 323.519
L341.756 323.501
L343.029 323.392
L343.133 323.374
L344.407 323.265
L344.516 323.245
L345.808 323.137
L345.916 323.118
L347.303 323.013
L347.411 322.997
L348.902 322.89
L349.009 322.873
L350.501 322.769
L350.61 322.752
L352.102 322.645
L352.212 322.629
L353.812 322.518
L353.915 322.502
L355.519 322.392
L355.625 322.376
L357.222 322.267
L357.328 322.253
L359.351 322.145
L359.459 322.135
L361.807 322.028
L361.914 322.017
L364.495 321.906
L364.602 321.897
L367.062 321.789
L367.163 321.778
L369.201 321.669
L369.201 321.663
L371.228 321.556
L371.335 321.545
L373.253 321.439
L373.359 321.427
L375.186 321.321
L375.29 321.306
L376.787 321.201
L376.893 321.186
L378.496 321.076
L378.604 321.059
L380.101 320.952
L380.209 320.934
L381.604 320.828
L381.71 320.81
L383.109 320.701
L383.216 320.682
L384.508 320.579
L384.615 320.56
L385.904 320.459
L386.009 320.44
L387.301 320.329
L387.403 320.31
L388.687 320.208
L388.792 320.19
L390.189 320.082
L390.298 320.064
L391.803 319.954
L391.912 319.939
L393.514 319.831
L393.619 319.815
L395.135 319.709
L395.244 319.692
L396.854 319.587
L396.962 319.573
L398.674 319.467
L398.78 319.454
L400.617 319.343
L400.724 319.331
L402.43 319.226
L402.537 319.212
L404.156 319.101
L404.265 319.085
L405.981 318.975
L406.088 318.96
L407.923 318.851
L408.03 318.838
L409.858 318.731
L409.967 318.719
L412.343 318.61
L412.452 318.601
L415.148 318.493
L415.255 318.483
L417.838 318.377
L417.945 318.367
L420.315 318.26
L420.42 318.25
L422.789 318.143
L422.789 318.137
L424.961 318.031
L425.068 318.019
L427.546 317.91
L427.654 317.899
L430.255 317.79
L430.359 317.782
L433.168 317.674
L433.278 317.664
L435.981 317.556
L436.09 317.547
L438.691 317.439
L438.799 317.43
L441.717 317.322
L441.824 317.313
L444.203 317.203
L444.313 317.193
L446.905 317.084
L447.013 317.074
L449.382 316.966
L449.489 316.955
L452.519 316.847
L452.628 316.841
L456.208 316.733
L456.208 316.729
L459.247 316.618
L459.356 316.61
L462.065 316.502
L462.172 316.492
L464.67 316.386
L464.78 316.376
L467.389 316.268
L467.5 316.26
L470.317 316.15
L470.428 316.141
L473.251 316.032
L473.36 316.023
L476.399 315.914
L476.508 315.906
L479.875 315.796
L479.875 315.793
L483.145 315.683
L483.252 315.675
L486.189 315.567
L486.298 315.558
L489.117 315.45
L489.117 315.446
L492.398 315.336
L492.509 315.329
L496.304 315.219
L496.414 315.213
L499.688 315.103
L499.795 315.095
L502.838 314.985
L502.947 314.978
L507.426 314.867
L507.533 314.86
L510.813 314.751
L510.92 314.743
L513.973 314.635
L514.084 314.627
L517.249 314.52
L517.358 314.512
L520.405 314.403
L520.512 314.396
L524.005 314.287
L524.113 314.281
L528.486 314.17
L528.593 314.166
L540.739 314.055
L540.845 314.055
L545.226 314.05
L545.226 314.05" style="fill:none;stroke:#ff0000;stroke-width:0.5;"/>
   </g>
   <g id="matplotlib.axis_1">
    <g id="xtick_1">
     <g id="line2d_2">
      <defs>
       <path d="
M0 0
L0 -4" id="m68ff777589"/>
      </defs>
      <g>
       <use style="stroke:#000000;stroke-linecap:butt;stroke-width:0.5;" x="29.3484375" xlink:href="#m68ff777589" y="15.0092307692"/>
      </g>
     </g>
    </g>
    <g id="xtick_2">
     <g id="line2d_3">
      <defs>
       <path d="
M0 0
L0 -4" id="m68ff777589"/>
      </defs>
      <g>
       <use style="stroke:#000000;stroke-linecap:butt;stroke-width:0.5;" x="132.529900812" xlink:href="#m68ff777589" y="15.0092307692"/>
      </g>
     </g>
     <g id="text_1">
      <!-- 2e7 -->
      <defs>
       <path d="
M19.1875 8.29688
L53.6094 8.29688
L53.6094 0
L7.32812 0
L7.32812 8.29688
Q12.9375 14.1094 22.625 23.8906
Q32.3281 33.6875 34.8125 36.5312
Q39.5469 41.8438 41.4219 45.5312
Q43.3125 49.2188 43.3125 52.7812
Q43.3125 58.5938 39.2344 62.25
Q35.1562 65.9219 28.6094 65.9219
Q23.9688 65.9219 18.8125 64.3125
Q13.6719 62.7031 7.8125 59.4219
L7.8125 69.3906
Q13.7656 71.7812 18.9375 73
Q24.125 74.2188 28.4219 74.2188
Q39.75 74.2188 46.4844 68.5469
Q53.2188 62.8906 53.2188 53.4219
Q53.2188 48.9219 51.5312 44.8906
Q49.8594 40.875 45.4062 35.4062
Q44.1875 33.9844 37.6406 27.2188
Q31.1094 20.4531 19.1875 8.29688" id="BitstreamVeraSans-Roman-32"/>
       <path d="
M56.2031 29.5938
L56.2031 25.2031
L14.8906 25.2031
Q15.4844 15.9219 20.4844 11.0625
Q25.4844 6.20312 34.4219 6.20312
Q39.5938 6.20312 44.4531 7.46875
Q49.3125 8.73438 54.1094 11.2812
L54.1094 2.78125
Q49.2656 0.734375 44.1875 -0.34375
Q39.1094 -1.42188 33.8906 -1.42188
Q20.7969 -1.42188 13.1562 6.1875
Q5.51562 13.8125 5.51562 26.8125
Q5.51562 40.2344 12.7656 48.1094
Q20.0156 56 32.3281 56
Q43.3594 56 49.7812 48.8906
Q56.2031 41.7969 56.2031 29.5938
M47.2188 32.2344
Q47.125 39.5938 43.0938 43.9844
Q39.0625 48.3906 32.4219 48.3906
Q24.9062 48.3906 20.3906 44.1406
Q15.875 39.8906 15.1875 32.1719
z
" id="BitstreamVeraSans-Roman-65"/>
       <path d="
M8.20312 72.9062
L55.0781 72.9062
L55.0781 68.7031
L28.6094 0
L18.3125 0
L43.2188 64.5938
L8.20312 64.5938
z
" id="BitstreamVeraSans-Roman-37"/>
      </defs>
      <g transform="translate(123.884588312 26.4311057692)scale(0.1 -0.1)">
       <use xlink:href="#BitstreamVeraSans-Roman-32"/>
       <use x="63.623046875" xlink:href="#BitstreamVeraSans-Roman-65"/>
       <use x="125.146484375" xlink:href="#BitstreamVeraSans-Roman-37"/>
      </g>
     </g>
    </g>
    <g id="xtick_3">
     <g id="line2d_4">
      <defs>
       <path d="
M0 0
L0 -4" id="m68ff777589"/>
      </defs>
      <g>
       <use style="stroke:#000000;stroke-linecap:butt;stroke-width:0.5;" x="235.711364124" xlink:href="#m68ff777589" y="15.0092307692"/>
      </g>
     </g>
     <g id="text_2">
      <!-- 4e7 -->
      <defs>
       <path d="
M37.7969 64.3125
L12.8906 25.3906
L37.7969 25.3906
z

M35.2031 72.9062
L47.6094 72.9062
L47.6094 25.3906
L58.0156 25.3906
L58.0156 17.1875
L47.6094 17.1875
L47.6094 0
L37.7969 0
L37.7969 17.1875
L4.89062 17.1875
L4.89062 26.7031
z
" id="BitstreamVeraSans-Roman-34"/>
      </defs>
      <g transform="translate(226.944176624 26.2998557692)scale(0.1 -0.1)">
       <use xlink:href="#BitstreamVeraSans-Roman-34"/>
       <use x="63.623046875" xlink:href="#BitstreamVeraSans-Roman-65"/>
       <use x="125.146484375" xlink:href="#BitstreamVeraSans-Roman-37"/>
      </g>
     </g>
    </g>
    <g id="xtick_4">
     <g id="line2d_5">
      <defs>
       <path d="
M0 0
L0 -4" id="m68ff777589"/>
      </defs>
      <g>
       <use style="stroke:#000000;stroke-linecap:butt;stroke-width:0.5;" x="338.892827436" xlink:href="#m68ff777589" y="15.0092307692"/>
      </g>
     </g>
     <g id="text_3">
      <!-- 6e7 -->
      <defs>
       <path d="
M33.0156 40.375
Q26.375 40.375 22.4844 35.8281
Q18.6094 31.2969 18.6094 23.3906
Q18.6094 15.5312 22.4844 10.9531
Q26.375 6.39062 33.0156 6.39062
Q39.6562 6.39062 43.5312 10.9531
Q47.4062 15.5312 47.4062 23.3906
Q47.4062 31.2969 43.5312 35.8281
Q39.6562 40.375 33.0156 40.375
M52.5938 71.2969
L52.5938 62.3125
Q48.875 64.0625 45.0938 64.9844
Q41.3125 65.9219 37.5938 65.9219
Q27.8281 65.9219 22.6719 59.3281
Q17.5312 52.7344 16.7969 39.4062
Q19.6719 43.6562 24.0156 45.9219
Q28.375 48.1875 33.5938 48.1875
Q44.5781 48.1875 50.9531 41.5156
Q57.3281 34.8594 57.3281 23.3906
Q57.3281 12.1562 50.6875 5.35938
Q44.0469 -1.42188 33.0156 -1.42188
Q20.3594 -1.42188 13.6719 8.26562
Q6.98438 17.9688 6.98438 36.375
Q6.98438 53.6562 15.1875 63.9375
Q23.3906 74.2188 37.2031 74.2188
Q40.9219 74.2188 44.7031 73.4844
Q48.4844 72.75 52.5938 71.2969" id="BitstreamVeraSans-Roman-36"/>
      </defs>
      <g transform="translate(330.230327436 26.4311057692)scale(0.1 -0.1)">
       <use xlink:href="#BitstreamVeraSans-Roman-36"/>
       <use x="63.623046875" xlink:href="#BitstreamVeraSans-Roman-65"/>
       <use x="125.146484375" xlink:href="#BitstreamVeraSans-Roman-37"/>
      </g>
     </g>
    </g>
    <g id="xtick_5">
     <g id="line2d_6">
      <defs>
       <path d="
M0 0
L0 -4" id="m68ff777589"/>
      </defs>
      <g>
       <use style="stroke:#000000;stroke-linecap:butt;stroke-width:0.5;" x="442.074290747" xlink:href="#m68ff777589" y="15.0092307692"/>
      </g>
     </g>
     <g id="text_4">
      <!-- 8e7 -->
      <defs>
       <path d="
M31.7812 34.625
Q24.75 34.625 20.7188 30.8594
Q16.7031 27.0938 16.7031 20.5156
Q16.7031 13.9219 20.7188 10.1562
Q24.75 6.39062 31.7812 6.39062
Q38.8125 6.39062 42.8594 10.1719
Q46.9219 13.9688 46.9219 20.5156
Q46.9219 27.0938 42.8906 30.8594
Q38.875 34.625 31.7812 34.625
M21.9219 38.8125
Q15.5781 40.375 12.0312 44.7188
Q8.5 49.0781 8.5 55.3281
Q8.5 64.0625 14.7188 69.1406
Q20.9531 74.2188 31.7812 74.2188
Q42.6719 74.2188 48.875 69.1406
Q55.0781 64.0625 55.0781 55.3281
Q55.0781 49.0781 51.5312 44.7188
Q48 40.375 41.7031 38.8125
Q48.8281 37.1562 52.7969 32.3125
Q56.7812 27.4844 56.7812 20.5156
Q56.7812 9.90625 50.3125 4.23438
Q43.8438 -1.42188 31.7812 -1.42188
Q19.7344 -1.42188 13.25 4.23438
Q6.78125 9.90625 6.78125 20.5156
Q6.78125 27.4844 10.7812 32.3125
Q14.7969 37.1562 21.9219 38.8125
M18.3125 54.3906
Q18.3125 48.7344 21.8438 45.5625
Q25.3906 42.3906 31.7812 42.3906
Q38.1406 42.3906 41.7188 45.5625
Q45.3125 48.7344 45.3125 54.3906
Q45.3125 60.0625 41.7188 63.2344
Q38.1406 66.4062 31.7812 66.4062
Q25.3906 66.4062 21.8438 63.2344
Q18.3125 60.0625 18.3125 54.3906" id="BitstreamVeraSans-Roman-38"/>
      </defs>
      <g transform="translate(433.401634497 26.4311057692)scale(0.1 -0.1)">
       <use xlink:href="#BitstreamVeraSans-Roman-38"/>
       <use x="63.623046875" xlink:href="#BitstreamVeraSans-Roman-65"/>
       <use x="125.146484375" xlink:href="#BitstreamVeraSans-Roman-37"/>
      </g>
     </g>
    </g>
    <g id="xtick_6">
     <g id="line2d_7">
      <defs>
       <path d="
M0 0
L0 -4" id="m68ff777589"/>
      </defs>
      <g>
       <use style="stroke:#000000;stroke-linecap:butt;stroke-width:0.5;" x="545.255754059" xlink:href="#m68ff777589" y="15.0092307692"/>
      </g>
     </g>
     <g id="text_5">
      <!-- 1e8 -->
      <defs>
       <path d="
M12.4062 8.29688
L28.5156 8.29688
L28.5156 63.9219
L10.9844 60.4062
L10.9844 69.3906
L28.4219 72.9062
L38.2812 72.9062
L38.2812 8.29688
L54.3906 8.29688
L54.3906 0
L12.4062 0
z
" id="BitstreamVeraSans-Roman-31"/>
      </defs>
      <g transform="translate(536.708097809 26.4311057692)scale(0.1 -0.1)">
       <use xlink:href="#BitstreamVeraSans-Roman-31"/>
       <use x="63.623046875" xlink:href="#BitstreamVeraSans-Roman-65"/>
       <use x="125.146484375" xlink:href="#BitstreamVeraSans-Roman-38"/>
      </g>
     </g>
    </g>
    <g id="xtick_7">
     <g id="line2d_8">
      <defs>
       <path d="
M0 0
L0 -2" id="me6cfb6af71"/>
      </defs>
      <g>
       <use style="stroke:#000000;stroke-linecap:butt;stroke-width:0.5;" x="55.143803328" xlink:href="#me6cfb6af71" y="15.0092307692"/>
      </g>
     </g>
    </g>
    <g id="xtick_8">
     <g id="line2d_9">
      <defs>
       <path d="
M0 0
L0 -2" id="me6cfb6af71"/>
      </defs>
      <g>
       <use style="stroke:#000000;stroke-linecap:butt;stroke-width:0.5;" x="80.9391691559" xlink:href="#me6cfb6af71" y="15.0092307692"/>
      </g>
     </g>
    </g>
    <g id="xtick_9">
     <g id="line2d_10">
      <defs>
       <path d="
M0 0
L0 -2" id="me6cfb6af71"/>
      </defs>
      <g>
       <use style="stroke:#000000;stroke-linecap:butt;stroke-width:0.5;" x="106.734534984" xlink:href="#me6cfb6af71" y="15.0092307692"/>
      </g>
     </g>
    </g>
    <g id="xtick_10">
     <g id="line2d_11">
      <defs>
       <path d="
M0 0
L0 -2" id="me6cfb6af71"/>
      </defs>
      <g>
       <use style="stroke:#000000;stroke-linecap:butt;stroke-width:0.5;" x="158.32526664" xlink:href="#me6cfb6af71" y="15.0092307692"/>
      </g>
     </g>
    </g>
    <g id="xtick_11">
     <g id="line2d_12">
      <defs>
       <path d="
M0 0
L0 -2" id="me6cfb6af71"/>
      </defs>
      <g>
       <use style="stroke:#000000;stroke-linecap:butt;stroke-width:0.5;" x="184.120632468" xlink:href="#me6cfb6af71" y="15.0092307692"/>
      </g>
     </g>
    </g>
    <g id="xtick_12">
     <g id="line2d_13">
      <defs>
       <path d="
M0 0
L0 -2" id="me6cfb6af71"/>
      </defs>
      <g>
       <use style="stroke:#000000;stroke-linecap:butt;stroke-width:0.5;" x="209.915998296" xlink:href="#me6cfb6af71" y="15.0092307692"/>
      </g>
     </g>
    </g>
    <g id="xtick_13">
     <g id="line2d_14">
      <defs>
       <path d="
M0 0
L0 -2" id="me6cfb6af71"/>
      </defs>
      <g>
       <use style="stroke:#000000;stroke-linecap:butt;stroke-width:0.5;" x="261.506729952" xlink:href="#me6cfb6af71" y="15.0092307692"/>
      </g>
     </g>
    </g>
    <g id="xtick_14">
     <g id="line2d_15">
      <defs>
       <path d="
M0 0
L0 -2" id="me6cfb6af71"/>
      </defs>
      <g>
       <use style="stroke:#000000;stroke-linecap:butt;stroke-width:0.5;" x="287.30209578" xlink:href="#me6cfb6af71" y="15.0092307692"/>
      </g>
     </g>
    </g>
    <g id="xtick_15">
     <g id="line2d_16">
      <defs>
       <path d="
M0 0
L0 -2" id="me6cfb6af71"/>
      </defs>
      <g>
       <use style="stroke:#000000;stroke-linecap:butt;stroke-width:0.5;" x="313.097461608" xlink:href="#me6cfb6af71" y="15.0092307692"/>
      </g>
     </g>
    </g>
    <g id="xtick_16">
     <g id="line2d_17">
      <defs>
       <path d="
M0 0
L0 -2" id="me6cfb6af71"/>
      </defs>
      <g>
       <use style="stroke:#000000;stroke-linecap:butt;stroke-width:0.5;" x="364.688193263" xlink:href="#me6cfb6af71" y="15.0092307692"/>
      </g>
     </g>
    </g>
    <g id="xtick_17">
     <g id="line2d_18">
      <defs>
       <path d="
M0 0
L0 -2" id="me6cfb6af71"/>
      </defs>
      <g>
       <use style="stroke:#000000;stroke-linecap:butt;stroke-width:0.5;" x="390.483559091" xlink:href="#me6cfb6af71" y="15.0092307692"/>
      </g>
     </g>
    </g>
    <g id="xtick_18">
     <g id="line2d_19">
      <defs>
       <path d="
M0 0
L0 -2" id="me6cfb6af71"/>
      </defs>
      <g>
       <use style="stroke:#000000;stroke-linecap:butt;stroke-width:0.5;" x="416.278924919" xlink:href="#me6cfb6af71" y="15.0092307692"/>
      </g>
     </g>
    </g>
    <g id="xtick_19">
     <g id="line2d_20">
      <defs>
       <path d="
M0 0
L0 -2" id="me6cfb6af71"/>
      </defs>
      <g>
       <use style="stroke:#000000;stroke-linecap:butt;stroke-width:0.5;" x="467.869656575" xlink:href="#me6cfb6af71" y="15.0092307692"/>
      </g>
     </g>
    </g>
    <g id="xtick_20">
     <g id="line2d_21">
      <defs>
       <path d="
M0 0
L0 -2" id="me6cfb6af71"/>
      </defs>
      <g>
       <use style="stroke:#000000;stroke-linecap:butt;stroke-width:0.5;" x="493.665022403" xlink:href="#me6cfb6af71" y="15.0092307692"/>
      </g>
     </g>
    </g>
    <g id="xtick_21">
     <g id="line2d_22">
      <defs>
       <path d="
M0 0
L0 -2" id="me6cfb6af71"/>
      </defs>
      <g>
       <use style="stroke:#000000;stroke-linecap:butt;stroke-width:0.5;" x="519.460388231" xlink:href="#me6cfb6af71" y="15.0092307692"/>
      </g>
     </g>
    </g>
   </g>
   <g id="matplotlib.axis_2">
    <g id="ytick_1">
     <g id="line2d_23">
      <defs>
       <path d="
M0 0
L4 0" id="m919501619d"/>
      </defs>
      <g>
       <use style="stroke:#000000;stroke-linecap:butt;stroke-width:0.5;" x="29.3484375" xlink:href="#m919501619d" y="408.413894319"/>
      </g>
     </g>
     <g id="text_6">
      <!-- -2.5 -->
      <defs>
       <path d="
M10.6875 12.4062
L21 12.4062
L21 0
L10.6875 0
z
" id="BitstreamVeraSans-Roman-2e"/>
       <path d="
M4.89062 31.3906
L31.2031 31.3906
L31.2031 23.3906
L4.89062 23.3906
z
" id="BitstreamVeraSans-Roman-2d"/>
       <path d="
M10.7969 72.9062
L49.5156 72.9062
L49.5156 64.5938
L19.8281 64.5938
L19.8281 46.7344
Q21.9688 47.4688 24.1094 47.8281
Q26.2656 48.1875 28.4219 48.1875
Q40.625 48.1875 47.75 41.5
Q54.8906 34.8125 54.8906 23.3906
Q54.8906 11.625 47.5625 5.09375
Q40.2344 -1.42188 26.9062 -1.42188
Q22.3125 -1.42188 17.5469 -0.640625
Q12.7969 0.140625 7.71875 1.70312
L7.71875 11.625
Q12.1094 9.23438 16.7969 8.0625
Q21.4844 6.89062 26.7031 6.89062
Q35.1562 6.89062 40.0781 11.3281
Q45.0156 15.7656 45.0156 23.3906
Q45.0156 31 40.0781 35.4375
Q35.1562 39.8906 26.7031 39.8906
Q22.75 39.8906 18.8125 39.0156
Q14.8906 38.1406 10.7969 36.2812
z
" id="BitstreamVeraSans-Roman-35"/>
      </defs>
      <g transform="translate(7.2 412.053738069)scale(0.1 -0.1)">
       <use xlink:href="#BitstreamVeraSans-Roman-2d"/>
       <use x="36.083984375" xlink:href="#BitstreamVeraSans-Roman-32"/>
       <use x="99.70703125" xlink:href="#BitstreamVeraSans-Roman-2e"/>
       <use x="131.494140625" xlink:href="#BitstreamVeraSans-Roman-35"/>
      </g>
     </g>
    </g>
    <g id="ytick_2">
     <g id="line2d_24">
      <defs>
       <path d="
M0 0
L4 0" id="m919501619d"/>
      </defs>
      <g>
       <use style="stroke:#000000;stroke-linecap:butt;stroke-width:0.5;" x="29.3484375" xlink:href="#m919501619d" y="329.732961609"/>
      </g>
     </g>
     <g id="text_7">
      <!-- -2 -->
      <g transform="translate(16.86875 333.443899109)scale(0.1 -0.1)">
       <use xlink:href="#BitstreamVeraSans-Roman-2d"/>
       <use x="36.083984375" xlink:href="#BitstreamVeraSans-Roman-32"/>
      </g>
     </g>
    </g>
    <g id="ytick_3">
     <g id="line2d_25">
      <defs>
       <path d="
M0 0
L4 0" id="m919501619d"/>
      </defs>
      <g>
       <use style="stroke:#000000;stroke-linecap:butt;stroke-width:0.5;" x="29.3484375" xlink:href="#m919501619d" y="251.052028899"/>
      </g>
     </g>
     <g id="text_8">
      <!-- -1.5 -->
      <g transform="translate(7.2 254.626247649)scale(0.1 -0.1)">
       <use xlink:href="#BitstreamVeraSans-Roman-2d"/>
       <use x="36.083984375" xlink:href="#BitstreamVeraSans-Roman-31"/>
       <use x="99.70703125" xlink:href="#BitstreamVeraSans-Roman-2e"/>
       <use x="131.494140625" xlink:href="#BitstreamVeraSans-Roman-35"/>
      </g>
     </g>
    </g>
    <g id="ytick_4">
     <g id="line2d_26">
      <defs>
       <path d="
M0 0
L4 0" id="m919501619d"/>
      </defs>
      <g>
       <use style="stroke:#000000;stroke-linecap:butt;stroke-width:0.5;" x="29.3484375" xlink:href="#m919501619d" y="172.371096189"/>
      </g>
     </g>
     <g id="text_9">
      <!-- -1 -->
      <g transform="translate(16.790625 176.016408689)scale(0.1 -0.1)">
       <use xlink:href="#BitstreamVeraSans-Roman-2d"/>
       <use x="36.083984375" xlink:href="#BitstreamVeraSans-Roman-31"/>
      </g>
     </g>
    </g>
    <g id="ytick_5">
     <g id="line2d_27">
      <defs>
       <path d="
M0 0
L4 0" id="m919501619d"/>
      </defs>
      <g>
       <use style="stroke:#000000;stroke-linecap:butt;stroke-width:0.5;" x="29.3484375" xlink:href="#m919501619d" y="93.6901634792"/>
      </g>
     </g>
     <g id="text_10">
      <!-- -0.5 -->
      <defs>
       <path d="
M31.7812 66.4062
Q24.1719 66.4062 20.3281 58.9062
Q16.5 51.4219 16.5 36.375
Q16.5 21.3906 20.3281 13.8906
Q24.1719 6.39062 31.7812 6.39062
Q39.4531 6.39062 43.2812 13.8906
Q47.125 21.3906 47.125 36.375
Q47.125 51.4219 43.2812 58.9062
Q39.4531 66.4062 31.7812 66.4062
M31.7812 74.2188
Q44.0469 74.2188 50.5156 64.5156
Q56.9844 54.8281 56.9844 36.375
Q56.9844 17.9688 50.5156 8.26562
Q44.0469 -1.42188 31.7812 -1.42188
Q19.5312 -1.42188 13.0625 8.26562
Q6.59375 17.9688 6.59375 36.375
Q6.59375 54.8281 13.0625 64.5156
Q19.5312 74.2188 31.7812 74.2188" id="BitstreamVeraSans-Roman-30"/>
      </defs>
      <g transform="translate(7.2 97.3300072292)scale(0.1 -0.1)">
       <use xlink:href="#BitstreamVeraSans-Roman-2d"/>
       <use x="36.083984375" xlink:href="#BitstreamVeraSans-Roman-30"/>
       <use x="99.70703125" xlink:href="#BitstreamVeraSans-Roman-2e"/>
       <use x="131.494140625" xlink:href="#BitstreamVeraSans-Roman-35"/>
      </g>
     </g>
    </g>
    <g id="ytick_6">
     <g id="line2d_28">
      <defs>
       <path d="
M0 0
L4 0" id="m919501619d"/>
      </defs>
      <g>
       <use style="stroke:#000000;stroke-linecap:butt;stroke-width:0.5;" x="29.3484375" xlink:href="#m919501619d" y="15.0092307692"/>
      </g>
     </g>
    </g>
    <g id="ytick_7">
     <g id="line2d_29">
      <defs>
       <path d="
M0 0
L2 0" id="m53389b261c"/>
      </defs>
      <g>
       <use style="stroke:#000000;stroke-linecap:butt;stroke-width:0.5;" x="29.3484375" xlink:href="#m53389b261c" y="392.677707777"/>
      </g>
     </g>
    </g>
    <g id="ytick_8">
     <g id="line2d_30">
      <defs>
       <path d="
M0 0
L2 0" id="m53389b261c"/>
      </defs>
      <g>
       <use style="stroke:#000000;stroke-linecap:butt;stroke-width:0.5;" x="29.3484375" xlink:href="#m53389b261c" y="376.941521235"/>
      </g>
     </g>
    </g>
    <g id="ytick_9">
     <g id="line2d_31">
      <defs>
       <path d="
M0 0
L2 0" id="m53389b261c"/>
      </defs>
      <g>
       <use style="stroke:#000000;stroke-linecap:butt;stroke-width:0.5;" x="29.3484375" xlink:href="#m53389b261c" y="361.205334693"/>
      </g>
     </g>
    </g>
    <g id="ytick_10">
     <g id="line2d_32">
      <defs>
       <path d="
M0 0
L2 0" id="m53389b261c"/>
      </defs>
      <g>
       <use style="stroke:#000000;stroke-linecap:butt;stroke-width:0.5;" x="29.3484375" xlink:href="#m53389b261c" y="345.469148151"/>
      </g>
     </g>
    </g>
    <g id="ytick_11">
     <g id="line2d_33">
      <defs>
       <path d="
M0 0
L2 0" id="m53389b261c"/>
      </defs>
      <g>
       <use style="stroke:#000000;stroke-linecap:butt;stroke-width:0.5;" x="29.3484375" xlink:href="#m53389b261c" y="313.996775067"/>
      </g>
     </g>
    </g>
    <g id="ytick_12">
     <g id="line2d_34">
      <defs>
       <path d="
M0 0
L2 0" id="m53389b261c"/>
      </defs>
      <g>
       <use style="stroke:#000000;stroke-linecap:butt;stroke-width:0.5;" x="29.3484375" xlink:href="#m53389b261c" y="298.260588525"/>
      </g>
     </g>
    </g>
    <g id="ytick_13">
     <g id="line2d_35">
      <defs>
       <path d="
M0 0
L2 0" id="m53389b261c"/>
      </defs>
      <g>
       <use style="stroke:#000000;stroke-linecap:butt;stroke-width:0.5;" x="29.3484375" xlink:href="#m53389b261c" y="282.524401983"/>
      </g>
     </g>
    </g>
    <g id="ytick_14">
     <g id="line2d_36">
      <defs>
       <path d="
M0 0
L2 0" id="m53389b261c"/>
      </defs>
      <g>
       <use style="stroke:#000000;stroke-linecap:butt;stroke-width:0.5;" x="29.3484375" xlink:href="#m53389b261c" y="266.788215441"/>
      </g>
     </g>
    </g>
    <g id="ytick_15">
     <g id="line2d_37">
      <defs>
       <path d="
M0 0
L2 0" id="m53389b261c"/>
      </defs>
      <g>
       <use style="stroke:#000000;stroke-linecap:butt;stroke-width:0.5;" x="29.3484375" xlink:href="#m53389b261c" y="251.052028899"/>
      </g>
     </g>
    </g>
    <g id="ytick_16">
     <g id="line2d_38">
      <defs>
       <path d="
M0 0
L2 0" id="m53389b261c"/>
      </defs>
      <g>
       <use style="stroke:#000000;stroke-linecap:butt;stroke-width:0.5;" x="29.3484375" xlink:href="#m53389b261c" y="235.315842357"/>
      </g>
     </g>
    </g>
    <g id="ytick_17">
     <g id="line2d_39">
      <defs>
       <path d="
M0 0
L2 0" id="m53389b261c"/>
      </defs>
      <g>
       <use style="stroke:#000000;stroke-linecap:butt;stroke-width:0.5;" x="29.3484375" xlink:href="#m53389b261c" y="219.579655815"/>
      </g>
     </g>
    </g>
    <g id="ytick_18">
     <g id="line2d_40">
      <defs>
       <path d="
M0 0
L2 0" id="m53389b261c"/>
      </defs>
      <g>
       <use style="stroke:#000000;stroke-linecap:butt;stroke-width:0.5;" x="29.3484375" xlink:href="#m53389b261c" y="203.843469273"/>
      </g>
     </g>
    </g>
    <g id="ytick_19">
     <g id="line2d_41">
      <defs>
       <path d="
M0 0
L2 0" id="m53389b261c"/>
      </defs>
      <g>
       <use style="stroke:#000000;stroke-linecap:butt;stroke-width:0.5;" x="29.3484375" xlink:href="#m53389b261c" y="188.107282731"/>
      </g>
     </g>
    </g>
    <g id="ytick_20">
     <g id="line2d_42">
      <defs>
       <path d="
M0 0
L2 0" id="m53389b261c"/>
      </defs>
      <g>
       <use style="stroke:#000000;stroke-linecap:butt;stroke-width:0.5;" x="29.3484375" xlink:href="#m53389b261c" y="172.371096189"/>
      </g>
     </g>
    </g>
    <g id="ytick_21">
     <g id="line2d_43">
      <defs>
       <path d="
M0 0
L2 0" id="m53389b261c"/>
      </defs>
      <g>
       <use style="stroke:#000000;stroke-linecap:butt;stroke-width:0.5;" x="29.3484375" xlink:href="#m53389b261c" y="156.634909647"/>
      </g>
     </g>
    </g>
    <g id="ytick_22">
     <g id="line2d_44">
      <defs>
       <path d="
M0 0
L2 0" id="m53389b261c"/>
      </defs>
      <g>
       <use style="stroke:#000000;stroke-linecap:butt;stroke-width:0.5;" x="29.3484375" xlink:href="#m53389b261c" y="140.898723105"/>
      </g>
     </g>
    </g>
    <g id="ytick_23">
     <g id="line2d_45">
      <defs>
       <path d="
M0 0
L2 0" id="m53389b261c"/>
      </defs>
      <g>
       <use style="stroke:#000000;stroke-linecap:butt;stroke-width:0.5;" x="29.3484375" xlink:href="#m53389b261c" y="125.162536563"/>
      </g>
     </g>
    </g>
    <g id="ytick_24">
     <g id="line2d_46">
      <defs>
       <path d="
M0 0
L2 0" id="m53389b261c"/>
      </defs>
      <g>
       <use style="stroke:#000000;stroke-linecap:butt;stroke-width:0.5;" x="29.3484375" xlink:href="#m53389b261c" y="109.426350021"/>
      </g>
     </g>
    </g>
    <g id="ytick_25">
     <g id="line2d_47">
      <defs>
       <path d="
M0 0
L2 0" id="m53389b261c"/>
      </defs>
      <g>
       <use style="stroke:#000000;stroke-linecap:butt;stroke-width:0.5;" x="29.3484375" xlink:href="#m53389b261c" y="93.6901634792"/>
      </g>
     </g>
    </g>
    <g id="ytick_26">
     <g id="line2d_48">
      <defs>
       <path d="
M0 0
L2 0" id="m53389b261c"/>
      </defs>
      <g>
       <use style="stroke:#000000;stroke-linecap:butt;stroke-width:0.5;" x="29.3484375" xlink:href="#m53389b261c" y="77.9539769372"/>
      </g>
     </g>
    </g>
    <g id="ytick_27">
     <g id="line2d_49">
      <defs>
       <path d="
M0 0
L2 0" id="m53389b261c"/>
      </defs>
      <g>
       <use style="stroke:#000000;stroke-linecap:butt;stroke-width:0.5;" x="29.3484375" xlink:href="#m53389b261c" y="62.2177903952"/>
      </g>
     </g>
    </g>
    <g id="ytick_28">
     <g id="line2d_50">
      <defs>
       <path d="
M0 0
L2 0" id="m53389b261c"/>
      </defs>
      <g>
       <use style="stroke:#000000;stroke-linecap:butt;stroke-width:0.5;" x="29.3484375" xlink:href="#m53389b261c" y="46.4816038532"/>
      </g>
     </g>
    </g>
    <g id="ytick_29">
     <g id="line2d_51">
      <defs>
       <path d="
M0 0
L2 0" id="m53389b261c"/>
      </defs>
      <g>
       <use style="stroke:#000000;stroke-linecap:butt;stroke-width:0.5;" x="29.3484375" xlink:href="#m53389b261c" y="30.7454173112"/>
      </g>
     </g>
    </g>
   </g>
   <g id="patch_3">
    <path d="
M19.0309 15.0092
L555.544 15.0092" style="fill:none;stroke:#000000;stroke-width:0.8;"/>
   </g>
   <g id="patch_4">
    <path d="
M29.3484 413.28
L29.3484 7.2" style="fill:none;stroke:#000000;stroke-width:0.8;"/>
   </g>
  </g>
 </g>
 <defs>
  <clipPath id="p13c0847ff8">
   <rect height="406.08" width="536.513117448" x="19.0308878672" y="7.2"/>
  </clipPath>
 </defs>
</svg>
