<?xml version="1.0" encoding="utf-8" standalone="no"?>
<!DOCTYPE svg PUBLIC "-//W3C//DTD SVG 1.1//EN"
  "http://www.w3.org/Graphics/SVG/1.1/DTD/svg11.dtd">
<!-- Created with matplotlib (http://matplotlib.sourceforge.net/) -->
<svg height="204pt" version="1.1" viewBox="0 0 563 204" width="563pt" xmlns="http://www.w3.org/2000/svg" xmlns:xlink="http://www.w3.org/1999/xlink">
 <defs>
  <style type="text/css">
*{stroke-linecap:square;stroke-linejoin:round;}
  </style>
 </defs>
 <g id="figure_1">
  <g id="patch_1">
   <path d="
M2.22045e-16 204.844
L563.749 204.844
L563.749 0
L2.22045e-16 0
z
" style="fill:#ffffff;"/>
  </g>
  <g id="axes_1">
   <g id="patch_2">
    <path d="
M7.2 176.08
L556.549 176.08
L556.549 7.2
L7.2 7.2
z
" style="fill:#ffffff;"/>
   </g>
   <g id="line2d_1">
    <path clip-path="url(#p76d0bf994c)" d="
M17.7645 172.832
L17.773 59.1042
L17.876 109.69
L17.9901 117.497
L18.0269 117.176
L18.0278 117.183
L18.0287 117.176
L18.0287 117.176
L18.0639 115.773
L18.1329 107.352
L18.35 89.8554
L19.3704 64.4781
L19.7128 61.047
L19.7367 61.1633
L20.2194 64.4216
L20.5614 65.4422
L20.9141 69.0229
L21.5038 75.2643
L23.2496 94.7039
L23.5845 95.9751
L23.729 96.1944
L23.7632 96.162
L23.87 96.2414
L24.0555 96.3969
L24.0993 96.3623
L24.343 96.3844
L24.7099 96.6992
L24.9216 97.2616
L25.6126 99.4489
L26.0955 100.44
L26.9913 103.211
L27.125 103.177
L27.3152 102.778
L27.7668 101.459
L28.5869 100.492
L28.8126 100.014
L29.2304 99.3052
L30.9804 97.083
L31.8767 95.8737
L32.1335 95.9105
L32.5655 96.1315
L32.8111 96.3618
L33.057 96.8033
L33.4328 97.2862
L33.9004 97.3794
L34.5237 97.2134
L34.8603 96.9722
L35.241 96.5777
L36.3977 95.3858
L36.7851 95.1489
L37.3324 95.1329
L38.4122 95.9045
L40.06 98.0924
L40.9281 98.9234
L43.3862 99.9202
L43.8163 100.009
L44.1502 100.032
L44.4289 100.101
L44.7211 100.142
L45.218 99.9518
L46.4633 99.252
L47.9437 98.6297
L50.9789 96.0202
L51.8293 95.0402
L53.0532 93.3635
L53.76 92.4281
L54.3665 91.9796
L56.0967 91.0005
L57.636 89.9605
L58.7142 89.4754
L59.6733 89.0791
L60.788 88.3295
L61.8168 87.7703
L63.5759 86.8121
L64.0723 86.554
L64.7885 85.9238
L65.8947 85.0028
L67.0261 84.3153
L68.0719 83.5479
L69.167 82.2058
L71.3662 79.4471
L76.3603 74.0433
L77.2073 73.2951
L83.5068 68.249
L84.3906 67.6532
L86.0673 66.531
L87.1978 65.8116
L88.3437 65.2848
L90.7238 63.9817
L95.7756 60.5637
L97.2883 59.6647
L99.2262 58.8518
L103.251 57.9138
L106.871 57.2812
L108.195 56.6793
L110.826 55.5118
L114.241 54.1453
L115.738 53.5431
L117.195 53.2205
L124.738 51.8177
L128.683 50.5424
L131.715 49.7678
L134.083 49.1481
L136.699 48.4014
L138.065 47.9987
L142.141 46.7757
L144.691 45.9129
L147.662 44.932
L152.215 43.0714
L163.436 37.3441
L166.137 36.2709
L173.718 34.0411
L183.238 31.6839
L185.841 31.0506
L195.625 28.9873
L199.027 28.3464
L201.981 27.602
L205.22 26.7471
L214.059 24.6503
L219.53 23.3883
L230.92 20.9567
L233.731 20.5831
L238.166 20.1066
L240.55 19.954
L243.048 19.7586
L245.407 19.597
L252.184 19.6288
L256.205 19.701
L264.419 19.555
L270.552 19.0551
L278.814 18.3631
L288.896 17.2382
L295.017 16.8714
L300.35 16.6917
L303.232 16.5687
L319.285 15.5842
L324.123 15.144
L332.95 14.335
L341.737 13.7896
L352.931 12.8224
L359.707 12.4228
L365.513 12.1271
L387.847 10.7216
L391.368 10.8749
L398.003 11.1702
L416.842 11.9241
L437.33 12.3698
L457.668 12.2399
L461.841 12.0138
L471.705 11.4879
L477.244 11.3475
L491.4 11.1708
L498.69 11.0483
L508.72 10.8483
L528.07 10.4897
L545.984 10.5638
L545.984 10.5638" style="fill:none;stroke:#0000ff;"/>
   </g>
   <g id="line2d_2">
    <path clip-path="url(#p76d0bf994c)" d="
M17.7644 92.6184
L545.985 92.6184" style="fill:none;stroke:#ff0000;"/>
   </g>
   <g id="matplotlib.axis_1">
    <g id="xtick_1">
     <g id="line2d_3">
      <defs>
       <path d="
M0 0
L0 -4" id="m363d37d68a"/>
      </defs>
      <g>
       <use style="stroke:#000000;stroke-linecap:butt;stroke-width:0.5;" x="17.7644036612" xlink:href="#m363d37d68a" y="186.08"/>
      </g>
     </g>
     <g id="text_1">
      <!-- 0 -->
      <defs>
       <path d="
M31.7812 66.4062
Q24.1719 66.4062 20.3281 58.9062
Q16.5 51.4219 16.5 36.375
Q16.5 21.3906 20.3281 13.8906
Q24.1719 6.39062 31.7812 6.39062
Q39.4531 6.39062 43.2812 13.8906
Q47.125 21.3906 47.125 36.375
Q47.125 51.4219 43.2812 58.9062
Q39.4531 66.4062 31.7812 66.4062
M31.7812 74.2188
Q44.0469 74.2188 50.5156 64.5156
Q56.9844 54.8281 56.9844 36.375
Q56.9844 17.9688 50.5156 8.26562
Q44.0469 -1.42188 31.7812 -1.42188
Q19.5312 -1.42188 13.0625 8.26562
Q6.59375 17.9688 6.59375 36.375
Q6.59375 54.8281 13.0625 64.5156
Q19.5312 74.2188 31.7812 74.2188" id="BitstreamVeraSans-Roman-30"/>
      </defs>
      <g transform="translate(15.2448724112 197.501875)scale(0.1 -0.1)">
       <use xlink:href="#BitstreamVeraSans-Roman-30"/>
      </g>
     </g>
    </g>
    <g id="xtick_2">
     <g id="line2d_4">
      <defs>
       <path d="
M0 0
L0 -4" id="m363d37d68a"/>
      </defs>
      <g>
       <use style="stroke:#000000;stroke-linecap:butt;stroke-width:0.5;" x="123.408440274" xlink:href="#m363d37d68a" y="186.08"/>
      </g>
     </g>
     <g id="text_2">
      <!-- 2e6 -->
      <defs>
       <path d="
M19.1875 8.29688
L53.6094 8.29688
L53.6094 0
L7.32812 0
L7.32812 8.29688
Q12.9375 14.1094 22.625 23.8906
Q32.3281 33.6875 34.8125 36.5312
Q39.5469 41.8438 41.4219 45.5312
Q43.3125 49.2188 43.3125 52.7812
Q43.3125 58.5938 39.2344 62.25
Q35.1562 65.9219 28.6094 65.9219
Q23.9688 65.9219 18.8125 64.3125
Q13.6719 62.7031 7.8125 59.4219
L7.8125 69.3906
Q13.7656 71.7812 18.9375 73
Q24.125 74.2188 28.4219 74.2188
Q39.75 74.2188 46.4844 68.5469
Q53.2188 62.8906 53.2188 53.4219
Q53.2188 48.9219 51.5312 44.8906
Q49.8594 40.875 45.4062 35.4062
Q44.1875 33.9844 37.6406 27.2188
Q31.1094 20.4531 19.1875 8.29688" id="BitstreamVeraSans-Roman-32"/>
       <path d="
M56.2031 29.5938
L56.2031 25.2031
L14.8906 25.2031
Q15.4844 15.9219 20.4844 11.0625
Q25.4844 6.20312 34.4219 6.20312
Q39.5938 6.20312 44.4531 7.46875
Q49.3125 8.73438 54.1094 11.2812
L54.1094 2.78125
Q49.2656 0.734375 44.1875 -0.34375
Q39.1094 -1.42188 33.8906 -1.42188
Q20.7969 -1.42188 13.1562 6.1875
Q5.51562 13.8125 5.51562 26.8125
Q5.51562 40.2344 12.7656 48.1094
Q20.0156 56 32.3281 56
Q43.3594 56 49.7812 48.8906
Q56.2031 41.7969 56.2031 29.5938
M47.2188 32.2344
Q47.125 39.5938 43.0938 43.9844
Q39.0625 48.3906 32.4219 48.3906
Q24.9062 48.3906 20.3906 44.1406
Q15.875 39.8906 15.1875 32.1719
z
" id="BitstreamVeraSans-Roman-65"/>
       <path d="
M33.0156 40.375
Q26.375 40.375 22.4844 35.8281
Q18.6094 31.2969 18.6094 23.3906
Q18.6094 15.5312 22.4844 10.9531
Q26.375 6.39062 33.0156 6.39062
Q39.6562 6.39062 43.5312 10.9531
Q47.4062 15.5312 47.4062 23.3906
Q47.4062 31.2969 43.5312 35.8281
Q39.6562 40.375 33.0156 40.375
M52.5938 71.2969
L52.5938 62.3125
Q48.875 64.0625 45.0938 64.9844
Q41.3125 65.9219 37.5938 65.9219
Q27.8281 65.9219 22.6719 59.3281
Q17.5312 52.7344 16.7969 39.4062
Q19.6719 43.6562 24.0156 45.9219
Q28.375 48.1875 33.5938 48.1875
Q44.5781 48.1875 50.9531 41.5156
Q57.3281 34.8594 57.3281 23.3906
Q57.3281 12.1562 50.6875 5.35938
Q44.0469 -1.42188 33.0156 -1.42188
Q20.3594 -1.42188 13.6719 8.26562
Q6.98438 17.9688 6.98438 36.375
Q6.98438 53.6562 15.1875 63.9375
Q23.3906 74.2188 37.2031 74.2188
Q40.9219 74.2188 44.7031 73.4844
Q48.4844 72.75 52.5938 71.2969" id="BitstreamVeraSans-Roman-36"/>
      </defs>
      <g transform="translate(114.650627774 197.501875)scale(0.1 -0.1)">
       <use xlink:href="#BitstreamVeraSans-Roman-32"/>
       <use x="63.623046875" xlink:href="#BitstreamVeraSans-Roman-65"/>
       <use x="125.146484375" xlink:href="#BitstreamVeraSans-Roman-36"/>
      </g>
     </g>
    </g>
    <g id="xtick_3">
     <g id="line2d_5">
      <defs>
       <path d="
M0 0
L0 -4" id="m363d37d68a"/>
      </defs>
      <g>
       <use style="stroke:#000000;stroke-linecap:butt;stroke-width:0.5;" x="229.052476886" xlink:href="#m363d37d68a" y="186.08"/>
      </g>
     </g>
     <g id="text_3">
      <!-- 4e6 -->
      <defs>
       <path d="
M37.7969 64.3125
L12.8906 25.3906
L37.7969 25.3906
z

M35.2031 72.9062
L47.6094 72.9062
L47.6094 25.3906
L58.0156 25.3906
L58.0156 17.1875
L47.6094 17.1875
L47.6094 0
L37.7969 0
L37.7969 17.1875
L4.89062 17.1875
L4.89062 26.7031
z
" id="BitstreamVeraSans-Roman-34"/>
      </defs>
      <g transform="translate(220.172789386 197.501875)scale(0.1 -0.1)">
       <use xlink:href="#BitstreamVeraSans-Roman-34"/>
       <use x="63.623046875" xlink:href="#BitstreamVeraSans-Roman-65"/>
       <use x="125.146484375" xlink:href="#BitstreamVeraSans-Roman-36"/>
      </g>
     </g>
    </g>
    <g id="xtick_4">
     <g id="line2d_6">
      <defs>
       <path d="
M0 0
L0 -4" id="m363d37d68a"/>
      </defs>
      <g>
       <use style="stroke:#000000;stroke-linecap:butt;stroke-width:0.5;" x="334.696513499" xlink:href="#m363d37d68a" y="186.08"/>
      </g>
     </g>
     <g id="text_4">
      <!-- 6e6 -->
      <g transform="translate(325.921513499 197.501875)scale(0.1 -0.1)">
       <use xlink:href="#BitstreamVeraSans-Roman-36"/>
       <use x="63.623046875" xlink:href="#BitstreamVeraSans-Roman-65"/>
       <use x="125.146484375" xlink:href="#BitstreamVeraSans-Roman-36"/>
      </g>
     </g>
    </g>
    <g id="xtick_5">
     <g id="line2d_7">
      <defs>
       <path d="
M0 0
L0 -4" id="m363d37d68a"/>
      </defs>
      <g>
       <use style="stroke:#000000;stroke-linecap:butt;stroke-width:0.5;" x="440.340550111" xlink:href="#m363d37d68a" y="186.08"/>
      </g>
     </g>
     <g id="text_5">
      <!-- 8e6 -->
      <defs>
       <path d="
M31.7812 34.625
Q24.75 34.625 20.7188 30.8594
Q16.7031 27.0938 16.7031 20.5156
Q16.7031 13.9219 20.7188 10.1562
Q24.75 6.39062 31.7812 6.39062
Q38.8125 6.39062 42.8594 10.1719
Q46.9219 13.9688 46.9219 20.5156
Q46.9219 27.0938 42.8906 30.8594
Q38.875 34.625 31.7812 34.625
M21.9219 38.8125
Q15.5781 40.375 12.0312 44.7188
Q8.5 49.0781 8.5 55.3281
Q8.5 64.0625 14.7188 69.1406
Q20.9531 74.2188 31.7812 74.2188
Q42.6719 74.2188 48.875 69.1406
Q55.0781 64.0625 55.0781 55.3281
Q55.0781 49.0781 51.5312 44.7188
Q48 40.375 41.7031 38.8125
Q48.8281 37.1562 52.7969 32.3125
Q56.7812 27.4844 56.7812 20.5156
Q56.7812 9.90625 50.3125 4.23438
Q43.8438 -1.42188 31.7812 -1.42188
Q19.7344 -1.42188 13.25 4.23438
Q6.78125 9.90625 6.78125 20.5156
Q6.78125 27.4844 10.7812 32.3125
Q14.7969 37.1562 21.9219 38.8125
M18.3125 54.3906
Q18.3125 48.7344 21.8438 45.5625
Q25.3906 42.3906 31.7812 42.3906
Q38.1406 42.3906 41.7188 45.5625
Q45.3125 48.7344 45.3125 54.3906
Q45.3125 60.0625 41.7188 63.2344
Q38.1406 66.4062 31.7812 66.4062
Q25.3906 66.4062 21.8438 63.2344
Q18.3125 60.0625 18.3125 54.3906" id="BitstreamVeraSans-Roman-38"/>
      </defs>
      <g transform="translate(431.555393861 197.501875)scale(0.1 -0.1)">
       <use xlink:href="#BitstreamVeraSans-Roman-38"/>
       <use x="63.623046875" xlink:href="#BitstreamVeraSans-Roman-65"/>
       <use x="125.146484375" xlink:href="#BitstreamVeraSans-Roman-36"/>
      </g>
     </g>
    </g>
    <g id="xtick_6">
     <g id="line2d_8">
      <defs>
       <path d="
M0 0
L0 -4" id="m363d37d68a"/>
      </defs>
      <g>
       <use style="stroke:#000000;stroke-linecap:butt;stroke-width:0.5;" x="545.984586723" xlink:href="#m363d37d68a" y="186.08"/>
      </g>
     </g>
     <g id="text_6">
      <!-- 1e7 -->
      <defs>
       <path d="
M12.4062 8.29688
L28.5156 8.29688
L28.5156 63.9219
L10.9844 60.4062
L10.9844 69.3906
L28.4219 72.9062
L38.2812 72.9062
L38.2812 8.29688
L54.3906 8.29688
L54.3906 0
L12.4062 0
z
" id="BitstreamVeraSans-Roman-31"/>
       <path d="
M8.20312 72.9062
L55.0781 72.9062
L55.0781 68.7031
L28.6094 0
L18.3125 0
L43.2188 64.5938
L8.20312 64.5938
z
" id="BitstreamVeraSans-Roman-37"/>
      </defs>
      <g transform="translate(537.522086723 197.370625)scale(0.1 -0.1)">
       <use xlink:href="#BitstreamVeraSans-Roman-31"/>
       <use x="63.623046875" xlink:href="#BitstreamVeraSans-Roman-65"/>
       <use x="125.146484375" xlink:href="#BitstreamVeraSans-Roman-37"/>
      </g>
     </g>
    </g>
    <g id="xtick_7">
     <g id="line2d_9">
      <defs>
       <path d="
M0 0
L0 -2" id="m390cf05f50"/>
      </defs>
      <g>
       <use style="stroke:#000000;stroke-linecap:butt;stroke-width:0.5;" x="44.1754128143" xlink:href="#m390cf05f50" y="186.08"/>
      </g>
     </g>
    </g>
    <g id="xtick_8">
     <g id="line2d_10">
      <defs>
       <path d="
M0 0
L0 -2" id="m390cf05f50"/>
      </defs>
      <g>
       <use style="stroke:#000000;stroke-linecap:butt;stroke-width:0.5;" x="70.5864219675" xlink:href="#m390cf05f50" y="186.08"/>
      </g>
     </g>
    </g>
    <g id="xtick_9">
     <g id="line2d_11">
      <defs>
       <path d="
M0 0
L0 -2" id="m390cf05f50"/>
      </defs>
      <g>
       <use style="stroke:#000000;stroke-linecap:butt;stroke-width:0.5;" x="96.9974311206" xlink:href="#m390cf05f50" y="186.08"/>
      </g>
     </g>
    </g>
    <g id="xtick_10">
     <g id="line2d_12">
      <defs>
       <path d="
M0 0
L0 -2" id="m390cf05f50"/>
      </defs>
      <g>
       <use style="stroke:#000000;stroke-linecap:butt;stroke-width:0.5;" x="149.819449427" xlink:href="#m390cf05f50" y="186.08"/>
      </g>
     </g>
    </g>
    <g id="xtick_11">
     <g id="line2d_13">
      <defs>
       <path d="
M0 0
L0 -2" id="m390cf05f50"/>
      </defs>
      <g>
       <use style="stroke:#000000;stroke-linecap:butt;stroke-width:0.5;" x="176.23045858" xlink:href="#m390cf05f50" y="186.08"/>
      </g>
     </g>
    </g>
    <g id="xtick_12">
     <g id="line2d_14">
      <defs>
       <path d="
M0 0
L0 -2" id="m390cf05f50"/>
      </defs>
      <g>
       <use style="stroke:#000000;stroke-linecap:butt;stroke-width:0.5;" x="202.641467733" xlink:href="#m390cf05f50" y="186.08"/>
      </g>
     </g>
    </g>
    <g id="xtick_13">
     <g id="line2d_15">
      <defs>
       <path d="
M0 0
L0 -2" id="m390cf05f50"/>
      </defs>
      <g>
       <use style="stroke:#000000;stroke-linecap:butt;stroke-width:0.5;" x="255.463486039" xlink:href="#m390cf05f50" y="186.08"/>
      </g>
     </g>
    </g>
    <g id="xtick_14">
     <g id="line2d_16">
      <defs>
       <path d="
M0 0
L0 -2" id="m390cf05f50"/>
      </defs>
      <g>
       <use style="stroke:#000000;stroke-linecap:butt;stroke-width:0.5;" x="281.874495192" xlink:href="#m390cf05f50" y="186.08"/>
      </g>
     </g>
    </g>
    <g id="xtick_15">
     <g id="line2d_17">
      <defs>
       <path d="
M0 0
L0 -2" id="m390cf05f50"/>
      </defs>
      <g>
       <use style="stroke:#000000;stroke-linecap:butt;stroke-width:0.5;" x="308.285504345" xlink:href="#m390cf05f50" y="186.08"/>
      </g>
     </g>
    </g>
    <g id="xtick_16">
     <g id="line2d_18">
      <defs>
       <path d="
M0 0
L0 -2" id="m390cf05f50"/>
      </defs>
      <g>
       <use style="stroke:#000000;stroke-linecap:butt;stroke-width:0.5;" x="361.107522652" xlink:href="#m390cf05f50" y="186.08"/>
      </g>
     </g>
    </g>
    <g id="xtick_17">
     <g id="line2d_19">
      <defs>
       <path d="
M0 0
L0 -2" id="m390cf05f50"/>
      </defs>
      <g>
       <use style="stroke:#000000;stroke-linecap:butt;stroke-width:0.5;" x="387.518531805" xlink:href="#m390cf05f50" y="186.08"/>
      </g>
     </g>
    </g>
    <g id="xtick_18">
     <g id="line2d_20">
      <defs>
       <path d="
M0 0
L0 -2" id="m390cf05f50"/>
      </defs>
      <g>
       <use style="stroke:#000000;stroke-linecap:butt;stroke-width:0.5;" x="413.929540958" xlink:href="#m390cf05f50" y="186.08"/>
      </g>
     </g>
    </g>
    <g id="xtick_19">
     <g id="line2d_21">
      <defs>
       <path d="
M0 0
L0 -2" id="m390cf05f50"/>
      </defs>
      <g>
       <use style="stroke:#000000;stroke-linecap:butt;stroke-width:0.5;" x="466.751559264" xlink:href="#m390cf05f50" y="186.08"/>
      </g>
     </g>
    </g>
    <g id="xtick_20">
     <g id="line2d_22">
      <defs>
       <path d="
M0 0
L0 -2" id="m390cf05f50"/>
      </defs>
      <g>
       <use style="stroke:#000000;stroke-linecap:butt;stroke-width:0.5;" x="493.162568417" xlink:href="#m390cf05f50" y="186.08"/>
      </g>
     </g>
    </g>
    <g id="xtick_21">
     <g id="line2d_23">
      <defs>
       <path d="
M0 0
L0 -2" id="m390cf05f50"/>
      </defs>
      <g>
       <use style="stroke:#000000;stroke-linecap:butt;stroke-width:0.5;" x="519.57357757" xlink:href="#m390cf05f50" y="186.08"/>
      </g>
     </g>
    </g>
   </g>
   <g id="matplotlib.axis_2">
    <g id="ytick_1">
     <g id="line2d_24">
      <defs>
       <path d="
M0 0
L4 0" id="m479c23141a"/>
      </defs>
      <g>
       <use style="stroke:#000000;stroke-linecap:butt;stroke-width:0.5;" x="17.7644036612" xlink:href="#m479c23141a" y="157.711002607"/>
      </g>
     </g>
     <g id="text_7">
      <!-- 1 -->
      <g transform="translate(9.42377866124 161.356315107)scale(0.1 -0.1)">
       <use xlink:href="#BitstreamVeraSans-Roman-31"/>
      </g>
     </g>
    </g>
    <g id="ytick_2">
     <g id="line2d_25">
      <defs>
       <path d="
M0 0
L4 0" id="m479c23141a"/>
      </defs>
      <g>
       <use style="stroke:#000000;stroke-linecap:butt;stroke-width:0.5;" x="17.7644036612" xlink:href="#m479c23141a" y="137.681071833"/>
      </g>
     </g>
     <g id="text_8">
      <!-- 2 -->
      <g transform="translate(9.13627866124 141.392009333)scale(0.1 -0.1)">
       <use xlink:href="#BitstreamVeraSans-Roman-32"/>
      </g>
     </g>
    </g>
    <g id="ytick_3">
     <g id="line2d_26">
      <defs>
       <path d="
M0 0
L4 0" id="m479c23141a"/>
      </defs>
      <g>
       <use style="stroke:#000000;stroke-linecap:butt;stroke-width:0.5;" x="17.7644036612" xlink:href="#m479c23141a" y="117.651141059"/>
      </g>
     </g>
     <g id="text_9">
      <!-- 3 -->
      <defs>
       <path d="
M40.5781 39.3125
Q47.6562 37.7969 51.625 33
Q55.6094 28.2188 55.6094 21.1875
Q55.6094 10.4062 48.1875 4.48438
Q40.7656 -1.42188 27.0938 -1.42188
Q22.5156 -1.42188 17.6562 -0.515625
Q12.7969 0.390625 7.625 2.20312
L7.625 11.7188
Q11.7188 9.32812 16.5938 8.10938
Q21.4844 6.89062 26.8125 6.89062
Q36.0781 6.89062 40.9375 10.5469
Q45.7969 14.2031 45.7969 21.1875
Q45.7969 27.6406 41.2812 31.2656
Q36.7656 34.9062 28.7188 34.9062
L20.2188 34.9062
L20.2188 43.0156
L29.1094 43.0156
Q36.375 43.0156 40.2344 45.9219
Q44.0938 48.8281 44.0938 54.2969
Q44.0938 59.9062 40.1094 62.9062
Q36.1406 65.9219 28.7188 65.9219
Q24.6562 65.9219 20.0156 65.0312
Q15.375 64.1562 9.8125 62.3125
L9.8125 71.0938
Q15.4375 72.6562 20.3438 73.4375
Q25.25 74.2188 29.5938 74.2188
Q40.8281 74.2188 47.3594 69.1094
Q53.9062 64.0156 53.9062 55.3281
Q53.9062 49.2656 50.4375 45.0938
Q46.9688 40.9219 40.5781 39.3125" id="BitstreamVeraSans-Roman-33"/>
      </defs>
      <g transform="translate(8.96596616124 121.290984809)scale(0.1 -0.1)">
       <use xlink:href="#BitstreamVeraSans-Roman-33"/>
      </g>
     </g>
    </g>
    <g id="ytick_4">
     <g id="line2d_27">
      <defs>
       <path d="
M0 0
L4 0" id="m479c23141a"/>
      </defs>
      <g>
       <use style="stroke:#000000;stroke-linecap:butt;stroke-width:0.5;" x="17.7644036612" xlink:href="#m479c23141a" y="97.6212102854"/>
      </g>
     </g>
     <g id="text_10">
      <!-- 4 -->
      <g transform="translate(8.45190366124 101.266522785)scale(0.1 -0.1)">
       <use xlink:href="#BitstreamVeraSans-Roman-34"/>
      </g>
     </g>
    </g>
    <g id="ytick_5">
     <g id="line2d_28">
      <defs>
       <path d="
M0 0
L4 0" id="m479c23141a"/>
      </defs>
      <g>
       <use style="stroke:#000000;stroke-linecap:butt;stroke-width:0.5;" x="17.7644036612" xlink:href="#m479c23141a" y="77.5912795115"/>
      </g>
     </g>
     <g id="text_11">
      <!-- 5 -->
      <defs>
       <path d="
M10.7969 72.9062
L49.5156 72.9062
L49.5156 64.5938
L19.8281 64.5938
L19.8281 46.7344
Q21.9688 47.4688 24.1094 47.8281
Q26.2656 48.1875 28.4219 48.1875
Q40.625 48.1875 47.75 41.5
Q54.8906 34.8125 54.8906 23.3906
Q54.8906 11.625 47.5625 5.09375
Q40.2344 -1.42188 26.9062 -1.42188
Q22.3125 -1.42188 17.5469 -0.640625
Q12.7969 0.140625 7.71875 1.70312
L7.71875 11.625
Q12.1094 9.23438 16.7969 8.0625
Q21.4844 6.89062 26.7031 6.89062
Q35.1562 6.89062 40.0781 11.3281
Q45.0156 15.7656 45.0156 23.3906
Q45.0156 31 40.0781 35.4375
Q35.1562 39.8906 26.7031 39.8906
Q22.75 39.8906 18.8125 39.0156
Q14.8906 38.1406 10.7969 36.2812
z
" id="BitstreamVeraSans-Roman-35"/>
      </defs>
      <g transform="translate(9.04721616124 81.1654982615)scale(0.1 -0.1)">
       <use xlink:href="#BitstreamVeraSans-Roman-35"/>
      </g>
     </g>
    </g>
    <g id="ytick_6">
     <g id="line2d_29">
      <defs>
       <path d="
M0 0
L4 0" id="m479c23141a"/>
      </defs>
      <g>
       <use style="stroke:#000000;stroke-linecap:butt;stroke-width:0.5;" x="17.7644036612" xlink:href="#m479c23141a" y="57.5613487376"/>
      </g>
     </g>
     <g id="text_12">
      <!-- 6 -->
      <g transform="translate(8.73002866124 61.2011924876)scale(0.1 -0.1)">
       <use xlink:href="#BitstreamVeraSans-Roman-36"/>
      </g>
     </g>
    </g>
    <g id="ytick_7">
     <g id="line2d_30">
      <defs>
       <path d="
M0 0
L4 0" id="m479c23141a"/>
      </defs>
      <g>
       <use style="stroke:#000000;stroke-linecap:butt;stroke-width:0.5;" x="17.7644036612" xlink:href="#m479c23141a" y="37.5314179638"/>
      </g>
     </g>
     <g id="text_13">
      <!-- 7 -->
      <g transform="translate(9.07690366124 41.1767304638)scale(0.1 -0.1)">
       <use xlink:href="#BitstreamVeraSans-Roman-37"/>
      </g>
     </g>
    </g>
    <g id="ytick_8">
     <g id="line2d_31">
      <defs>
       <path d="
M0 0
L4 0" id="m479c23141a"/>
      </defs>
      <g>
       <use style="stroke:#000000;stroke-linecap:butt;stroke-width:0.5;" x="17.7644036612" xlink:href="#m479c23141a" y="17.5014871899"/>
      </g>
     </g>
     <g id="text_14">
      <!-- 8 -->
      <g transform="translate(8.76440366124 21.1413309399)scale(0.1 -0.1)">
       <use xlink:href="#BitstreamVeraSans-Roman-38"/>
      </g>
     </g>
    </g>
    <g id="ytick_9">
     <g id="line2d_32">
      <defs>
       <path d="
M0 0
L2 0" id="mc77a8a1c3f"/>
      </defs>
      <g>
       <use style="stroke:#000000;stroke-linecap:butt;stroke-width:0.5;" x="17.7644036612" xlink:href="#mc77a8a1c3f" y="173.734947226"/>
      </g>
     </g>
    </g>
    <g id="ytick_10">
     <g id="line2d_33">
      <defs>
       <path d="
M0 0
L2 0" id="mc77a8a1c3f"/>
      </defs>
      <g>
       <use style="stroke:#000000;stroke-linecap:butt;stroke-width:0.5;" x="17.7644036612" xlink:href="#mc77a8a1c3f" y="169.728961071"/>
      </g>
     </g>
    </g>
    <g id="ytick_11">
     <g id="line2d_34">
      <defs>
       <path d="
M0 0
L2 0" id="mc77a8a1c3f"/>
      </defs>
      <g>
       <use style="stroke:#000000;stroke-linecap:butt;stroke-width:0.5;" x="17.7644036612" xlink:href="#mc77a8a1c3f" y="165.722974917"/>
      </g>
     </g>
    </g>
    <g id="ytick_12">
     <g id="line2d_35">
      <defs>
       <path d="
M0 0
L2 0" id="mc77a8a1c3f"/>
      </defs>
      <g>
       <use style="stroke:#000000;stroke-linecap:butt;stroke-width:0.5;" x="17.7644036612" xlink:href="#mc77a8a1c3f" y="161.716988762"/>
      </g>
     </g>
    </g>
    <g id="ytick_13">
     <g id="line2d_36">
      <defs>
       <path d="
M0 0
L2 0" id="mc77a8a1c3f"/>
      </defs>
      <g>
       <use style="stroke:#000000;stroke-linecap:butt;stroke-width:0.5;" x="17.7644036612" xlink:href="#mc77a8a1c3f" y="153.705016452"/>
      </g>
     </g>
    </g>
    <g id="ytick_14">
     <g id="line2d_37">
      <defs>
       <path d="
M0 0
L2 0" id="mc77a8a1c3f"/>
      </defs>
      <g>
       <use style="stroke:#000000;stroke-linecap:butt;stroke-width:0.5;" x="17.7644036612" xlink:href="#mc77a8a1c3f" y="149.699030297"/>
      </g>
     </g>
    </g>
    <g id="ytick_15">
     <g id="line2d_38">
      <defs>
       <path d="
M0 0
L2 0" id="mc77a8a1c3f"/>
      </defs>
      <g>
       <use style="stroke:#000000;stroke-linecap:butt;stroke-width:0.5;" x="17.7644036612" xlink:href="#mc77a8a1c3f" y="145.693044143"/>
      </g>
     </g>
    </g>
    <g id="ytick_16">
     <g id="line2d_39">
      <defs>
       <path d="
M0 0
L2 0" id="mc77a8a1c3f"/>
      </defs>
      <g>
       <use style="stroke:#000000;stroke-linecap:butt;stroke-width:0.5;" x="17.7644036612" xlink:href="#mc77a8a1c3f" y="141.687057988"/>
      </g>
     </g>
    </g>
    <g id="ytick_17">
     <g id="line2d_40">
      <defs>
       <path d="
M0 0
L2 0" id="mc77a8a1c3f"/>
      </defs>
      <g>
       <use style="stroke:#000000;stroke-linecap:butt;stroke-width:0.5;" x="17.7644036612" xlink:href="#mc77a8a1c3f" y="133.675085678"/>
      </g>
     </g>
    </g>
    <g id="ytick_18">
     <g id="line2d_41">
      <defs>
       <path d="
M0 0
L2 0" id="mc77a8a1c3f"/>
      </defs>
      <g>
       <use style="stroke:#000000;stroke-linecap:butt;stroke-width:0.5;" x="17.7644036612" xlink:href="#mc77a8a1c3f" y="129.669099524"/>
      </g>
     </g>
    </g>
    <g id="ytick_19">
     <g id="line2d_42">
      <defs>
       <path d="
M0 0
L2 0" id="mc77a8a1c3f"/>
      </defs>
      <g>
       <use style="stroke:#000000;stroke-linecap:butt;stroke-width:0.5;" x="17.7644036612" xlink:href="#mc77a8a1c3f" y="125.663113369"/>
      </g>
     </g>
    </g>
    <g id="ytick_20">
     <g id="line2d_43">
      <defs>
       <path d="
M0 0
L2 0" id="mc77a8a1c3f"/>
      </defs>
      <g>
       <use style="stroke:#000000;stroke-linecap:butt;stroke-width:0.5;" x="17.7644036612" xlink:href="#mc77a8a1c3f" y="121.657127214"/>
      </g>
     </g>
    </g>
    <g id="ytick_21">
     <g id="line2d_44">
      <defs>
       <path d="
M0 0
L2 0" id="mc77a8a1c3f"/>
      </defs>
      <g>
       <use style="stroke:#000000;stroke-linecap:butt;stroke-width:0.5;" x="17.7644036612" xlink:href="#mc77a8a1c3f" y="113.645154904"/>
      </g>
     </g>
    </g>
    <g id="ytick_22">
     <g id="line2d_45">
      <defs>
       <path d="
M0 0
L2 0" id="mc77a8a1c3f"/>
      </defs>
      <g>
       <use style="stroke:#000000;stroke-linecap:butt;stroke-width:0.5;" x="17.7644036612" xlink:href="#mc77a8a1c3f" y="109.63916875"/>
      </g>
     </g>
    </g>
    <g id="ytick_23">
     <g id="line2d_46">
      <defs>
       <path d="
M0 0
L2 0" id="mc77a8a1c3f"/>
      </defs>
      <g>
       <use style="stroke:#000000;stroke-linecap:butt;stroke-width:0.5;" x="17.7644036612" xlink:href="#mc77a8a1c3f" y="105.633182595"/>
      </g>
     </g>
    </g>
    <g id="ytick_24">
     <g id="line2d_47">
      <defs>
       <path d="
M0 0
L2 0" id="mc77a8a1c3f"/>
      </defs>
      <g>
       <use style="stroke:#000000;stroke-linecap:butt;stroke-width:0.5;" x="17.7644036612" xlink:href="#mc77a8a1c3f" y="101.62719644"/>
      </g>
     </g>
    </g>
    <g id="ytick_25">
     <g id="line2d_48">
      <defs>
       <path d="
M0 0
L2 0" id="mc77a8a1c3f"/>
      </defs>
      <g>
       <use style="stroke:#000000;stroke-linecap:butt;stroke-width:0.5;" x="17.7644036612" xlink:href="#mc77a8a1c3f" y="93.6152241306"/>
      </g>
     </g>
    </g>
    <g id="ytick_26">
     <g id="line2d_49">
      <defs>
       <path d="
M0 0
L2 0" id="mc77a8a1c3f"/>
      </defs>
      <g>
       <use style="stroke:#000000;stroke-linecap:butt;stroke-width:0.5;" x="17.7644036612" xlink:href="#mc77a8a1c3f" y="89.6092379758"/>
      </g>
     </g>
    </g>
    <g id="ytick_27">
     <g id="line2d_50">
      <defs>
       <path d="
M0 0
L2 0" id="mc77a8a1c3f"/>
      </defs>
      <g>
       <use style="stroke:#000000;stroke-linecap:butt;stroke-width:0.5;" x="17.7644036612" xlink:href="#mc77a8a1c3f" y="85.603251821"/>
      </g>
     </g>
    </g>
    <g id="ytick_28">
     <g id="line2d_51">
      <defs>
       <path d="
M0 0
L2 0" id="mc77a8a1c3f"/>
      </defs>
      <g>
       <use style="stroke:#000000;stroke-linecap:butt;stroke-width:0.5;" x="17.7644036612" xlink:href="#mc77a8a1c3f" y="81.5972656663"/>
      </g>
     </g>
    </g>
    <g id="ytick_29">
     <g id="line2d_52">
      <defs>
       <path d="
M0 0
L2 0" id="mc77a8a1c3f"/>
      </defs>
      <g>
       <use style="stroke:#000000;stroke-linecap:butt;stroke-width:0.5;" x="17.7644036612" xlink:href="#mc77a8a1c3f" y="73.5852933567"/>
      </g>
     </g>
    </g>
    <g id="ytick_30">
     <g id="line2d_53">
      <defs>
       <path d="
M0 0
L2 0" id="mc77a8a1c3f"/>
      </defs>
      <g>
       <use style="stroke:#000000;stroke-linecap:butt;stroke-width:0.5;" x="17.7644036612" xlink:href="#mc77a8a1c3f" y="69.5793072019"/>
      </g>
     </g>
    </g>
    <g id="ytick_31">
     <g id="line2d_54">
      <defs>
       <path d="
M0 0
L2 0" id="mc77a8a1c3f"/>
      </defs>
      <g>
       <use style="stroke:#000000;stroke-linecap:butt;stroke-width:0.5;" x="17.7644036612" xlink:href="#mc77a8a1c3f" y="65.5733210472"/>
      </g>
     </g>
    </g>
    <g id="ytick_32">
     <g id="line2d_55">
      <defs>
       <path d="
M0 0
L2 0" id="mc77a8a1c3f"/>
      </defs>
      <g>
       <use style="stroke:#000000;stroke-linecap:butt;stroke-width:0.5;" x="17.7644036612" xlink:href="#mc77a8a1c3f" y="61.5673348924"/>
      </g>
     </g>
    </g>
    <g id="ytick_33">
     <g id="line2d_56">
      <defs>
       <path d="
M0 0
L2 0" id="mc77a8a1c3f"/>
      </defs>
      <g>
       <use style="stroke:#000000;stroke-linecap:butt;stroke-width:0.5;" x="17.7644036612" xlink:href="#mc77a8a1c3f" y="53.5553625829"/>
      </g>
     </g>
    </g>
    <g id="ytick_34">
     <g id="line2d_57">
      <defs>
       <path d="
M0 0
L2 0" id="mc77a8a1c3f"/>
      </defs>
      <g>
       <use style="stroke:#000000;stroke-linecap:butt;stroke-width:0.5;" x="17.7644036612" xlink:href="#mc77a8a1c3f" y="49.5493764281"/>
      </g>
     </g>
    </g>
    <g id="ytick_35">
     <g id="line2d_58">
      <defs>
       <path d="
M0 0
L2 0" id="mc77a8a1c3f"/>
      </defs>
      <g>
       <use style="stroke:#000000;stroke-linecap:butt;stroke-width:0.5;" x="17.7644036612" xlink:href="#mc77a8a1c3f" y="45.5433902733"/>
      </g>
     </g>
    </g>
    <g id="ytick_36">
     <g id="line2d_59">
      <defs>
       <path d="
M0 0
L2 0" id="mc77a8a1c3f"/>
      </defs>
      <g>
       <use style="stroke:#000000;stroke-linecap:butt;stroke-width:0.5;" x="17.7644036612" xlink:href="#mc77a8a1c3f" y="41.5374041185"/>
      </g>
     </g>
    </g>
    <g id="ytick_37">
     <g id="line2d_60">
      <defs>
       <path d="
M0 0
L2 0" id="mc77a8a1c3f"/>
      </defs>
      <g>
       <use style="stroke:#000000;stroke-linecap:butt;stroke-width:0.5;" x="17.7644036612" xlink:href="#mc77a8a1c3f" y="33.525431809"/>
      </g>
     </g>
    </g>
    <g id="ytick_38">
     <g id="line2d_61">
      <defs>
       <path d="
M0 0
L2 0" id="mc77a8a1c3f"/>
      </defs>
      <g>
       <use style="stroke:#000000;stroke-linecap:butt;stroke-width:0.5;" x="17.7644036612" xlink:href="#mc77a8a1c3f" y="29.5194456542"/>
      </g>
     </g>
    </g>
    <g id="ytick_39">
     <g id="line2d_62">
      <defs>
       <path d="
M0 0
L2 0" id="mc77a8a1c3f"/>
      </defs>
      <g>
       <use style="stroke:#000000;stroke-linecap:butt;stroke-width:0.5;" x="17.7644036612" xlink:href="#mc77a8a1c3f" y="25.5134594994"/>
      </g>
     </g>
    </g>
    <g id="ytick_40">
     <g id="line2d_63">
      <defs>
       <path d="
M0 0
L2 0" id="mc77a8a1c3f"/>
      </defs>
      <g>
       <use style="stroke:#000000;stroke-linecap:butt;stroke-width:0.5;" x="17.7644036612" xlink:href="#mc77a8a1c3f" y="21.5074733447"/>
      </g>
     </g>
    </g>
    <g id="ytick_41">
     <g id="line2d_64">
      <defs>
       <path d="
M0 0
L2 0" id="mc77a8a1c3f"/>
      </defs>
      <g>
       <use style="stroke:#000000;stroke-linecap:butt;stroke-width:0.5;" x="17.7644036612" xlink:href="#mc77a8a1c3f" y="13.4955010351"/>
      </g>
     </g>
    </g>
   </g>
   <g id="patch_3">
    <path d="
M7.2 186.08
L556.549 186.08" style="fill:none;stroke:#000000;stroke-width:0.8;"/>
   </g>
   <g id="patch_4">
    <path d="
M17.7644 176.08
L17.7644 7.2" style="fill:none;stroke:#000000;stroke-width:0.8;"/>
   </g>
  </g>
 </g>
 <defs>
  <clipPath id="p76d0bf994c">
   <rect height="168.88" width="549.348990385" x="7.2" y="7.2"/>
  </clipPath>
 </defs>
</svg>
