<?xml version="1.0" encoding="utf-8" standalone="no"?>
<!DOCTYPE svg PUBLIC "-//W3C//DTD SVG 1.1//EN"
  "http://www.w3.org/Graphics/SVG/1.1/DTD/svg11.dtd">
<!-- Created with matplotlib (http://matplotlib.sourceforge.net/) -->
<svg height="419pt" version="1.1" viewBox="0 0 563 419" width="563pt" xmlns="http://www.w3.org/2000/svg" xmlns:xlink="http://www.w3.org/1999/xlink">
 <defs>
  <style type="text/css">
*{stroke-linecap:square;stroke-linejoin:round;}
  </style>
 </defs>
 <g id="figure_1">
  <g id="patch_1">
   <path d="
M0 419.769
L563.668 419.769
L563.668 0
L0 0
z
" style="fill:#ffffff;"/>
  </g>
  <g id="axes_1">
   <g id="patch_2">
    <path d="
M7.2 408.726
L556.468 408.726
L556.468 7.2
L7.2 7.2
z
" style="fill:#ffffff;"/>
   </g>
   <g id="line2d_1">
    <path clip-path="url(#p8536303459)" d="
M17.7628 401.004
L17.8121 401.004
L17.8706 87.8036
L17.9331 87.8036
L17.9967 74.7952
L18.0629 74.7952
L18.0629 73.3664
L18.1312 74.7494
L18.1986 74.7494
L18.2679 79.7337
L18.3388 79.7337
L18.4098 81.6806
L18.4816 81.6806
L18.5537 83.1259
L18.6267 83.1259
L18.7008 84.8327
L18.7741 84.8327
L18.8485 84.2937
L18.9232 84.2937
L18.9981 83.7756
L19.0734 83.7756
L19.1501 83.1254
L19.3022 83.1564
L19.3797 83.6491
L19.5325 83.5766
L19.6101 83.1575
L19.6882 83.1575
L19.6882 83.029
L19.7672 83.1145
L19.8445 83.1145
L19.9251 83.7408
L20.0031 83.7408
L20.0814 84.332
L20.1612 84.332
L20.2414 84.6314
L20.3195 84.6314
L20.3993 84.8292
L20.6401 84.779
L20.7211 84.6427
L20.8019 84.6427
L20.8812 84.3189
L20.9625 84.3189
L21.0428 83.8964
L21.1253 83.8964
L21.2084 83.3045
L21.2894 83.3045
L21.3716 82.6036
L21.4523 82.6036
L21.5337 82.2569
L21.6162 82.2569
L21.6998 81.8428
L21.7823 81.8428
L21.8642 81.5066
L21.9463 81.5066
L22.0285 81.1509
L22.111 81.1509
L22.1939 80.7657
L22.2783 80.7657
L22.3595 80.416
L22.4431 80.416
L22.5272 79.902
L22.6106 79.902
L22.6941 79.455
L22.7787 79.455
L22.8624 78.8606
L22.9476 78.8606
L23.0324 78.063
L23.1149 78.063
L23.1988 77.3786
L23.2834 77.3786
L23.37 76.7016
L23.4548 76.7016
L23.5388 75.9309
L23.6218 75.9309
L23.707 75.2568
L23.7913 75.2568
L23.8769 74.6669
L23.9607 74.6669
L24.0434 74.0888
L24.1303 74.0888
L24.2152 73.4845
L24.303 73.4845
L24.3884 72.862
L24.472 72.862
L24.5579 72.3324
L24.6442 72.3324
L24.7299 71.796
L24.8167 71.796
L24.9029 71.3397
L24.9889 71.3397
L25.0745 70.8345
L25.158 70.8345
L25.2475 70.2953
L25.3329 70.2953
L25.419 69.7175
L25.5037 69.7175
L25.5906 69.1676
L25.6766 69.1676
L25.7615 68.6795
L25.8497 68.6795
L25.9379 68.2565
L26.0244 68.2565
L26.1116 67.8941
L26.2003 67.8941
L26.2873 67.5764
L26.3731 67.5764
L26.4607 67.3163
L26.5481 67.3163
L26.6336 66.9947
L26.7224 66.9947
L26.8091 66.5748
L26.8974 66.5748
L26.9863 66.1313
L27.0744 66.1313
L27.1611 65.7281
L27.2482 65.7281
L27.3353 65.3339
L27.4222 65.3339
L27.511 64.9007
L27.5976 64.9007
L27.6845 64.5676
L27.7722 64.5676
L27.8609 64.2668
L27.9474 64.2668
L28.0354 63.9819
L28.1238 63.9819
L28.2153 63.6869
L28.3027 63.6869
L28.3892 63.4084
L28.4766 63.4084
L28.565 63.0627
L28.6542 63.0627
L28.7434 62.6987
L28.832 62.6987
L28.9206 62.3588
L29.009 62.3588
L29.0965 62.0425
L29.1846 62.0425
L29.2738 61.7327
L29.3633 61.7327
L29.4526 61.4123
L29.5424 61.4123
L29.6321 61.0794
L29.7201 61.0794
L29.8073 60.7486
L29.8987 60.7486
L29.9879 60.4454
L30.0791 60.4454
L30.1686 60.0843
L30.257 60.0843
L30.3468 59.7246
L30.4357 59.7246
L30.5259 59.3906
L30.6162 59.3906
L30.7059 59.046
L30.7944 59.046
L30.886 58.6759
L30.975 58.6759
L31.0649 58.303
L31.1526 58.303
L31.2445 57.8895
L31.3338 57.8895
L31.4212 57.4568
L31.5116 57.4568
L31.6021 57.006
L31.6921 57.006
L31.7812 56.563
L31.872 56.563
L31.9621 56.1568
L32.0505 56.1568
L32.14 55.7327
L32.2331 55.7327
L32.3234 55.2998
L32.4127 55.2998
L32.5051 54.9118
L32.5942 54.9118
L32.6806 54.5692
L32.7706 54.5692
L32.8614 54.2275
L32.9533 54.2275
L33.0446 53.8796
L33.1349 53.8796
L33.2262 53.5702
L33.3173 53.5702
L33.409 53.2752
L33.4997 53.2752
L33.5898 52.9883
L33.6792 52.9883
L33.7718 52.6747
L33.8634 52.6747
L33.9565 52.3735
L34.0449 52.3735
L34.1359 52.0859
L34.2262 52.0859
L34.3165 51.7864
L34.4089 51.7864
L34.4993 51.489
L34.5898 51.489
L34.6777 51.2152
L34.7687 51.2152
L34.8582 50.9357
L34.9509 50.9357
L35.0419 50.6727
L35.1329 50.6727
L35.2256 50.3963
L35.317 50.3963
L35.4084 50.1104
L35.5018 50.1104
L35.5928 49.8596
L35.6843 49.8596
L35.7744 49.6057
L35.865 49.6057
L35.9544 49.3412
L36.0477 49.3412
L36.1421 49.0469
L36.2355 49.0469
L36.3277 48.7369
L36.4219 48.7369
L36.5157 48.4463
L36.6065 48.4463
L36.6993 48.1505
L36.7904 48.1505
L36.8795 47.88
L36.97 47.88
L37.066 47.6115
L37.157 47.6115
L37.2471 47.3404
L37.3378 47.3404
L37.4301 47.0661
L37.5206 47.0661
L37.6121 46.8003
L37.7075 46.8003
L37.7998 46.5142
L37.8915 46.5142
L37.9825 46.2458
L38.0739 46.2458
L38.1672 45.9804
L38.2605 45.9804
L38.3511 45.7105
L38.4445 45.7105
L38.5355 45.4503
L38.6266 45.4503
L38.7224 45.1918
L38.8155 45.1918
L38.9093 44.9249
L39.0019 44.9249
L39.0921 44.6799
L39.1836 44.6799
L39.2766 44.4559
L39.4608 44.3556
L39.5554 44.155
L39.7415 44.0501
L39.8341 43.8423
L40.0176 43.7517
L40.1114 43.5799
L40.2974 43.4862
L40.392 43.2866
L40.5782 43.1972
L40.6719 43.0401
L40.8598 42.9605
L40.9529 42.8165
L41.1382 42.7483
L41.2288 42.6303
L41.4138 42.5706
L41.5057 42.4384
L41.6947 42.3676
L41.7895 42.2196
L41.9744 42.1434
L42.0689 42.0106
L42.2548 41.9416
L42.3494 41.7914
L42.5341 41.7109
L42.6285 41.5512
L42.8139 41.4628
L42.9092 41.2777
L43.0984 41.1893
L43.1915 41.0253
L43.3784 40.9434
L43.4712 40.7811
L43.6547 40.6907
L43.7505 40.5105
L43.9368 40.4156
L44.0292 40.2312
L44.2164 40.1365
L44.3108 39.9371
L44.4998 39.8394
L44.5935 39.6563
L44.7823 39.5674
L44.8756 39.4046
L45.0643 39.3219
L45.1596 39.1631
L45.3463 39.0872
L45.4409 38.9375
L45.627 38.8638
L45.7224 38.7232
L45.9115 38.6529
L46.0035 38.5158
L46.1923 38.4502
L46.2878 38.303
L46.4772 38.2262
L46.5705 38.0764
L46.7608 37.9994
L46.8537 37.8545
L47.046 37.7818
L47.141 37.6342
L47.3305 37.5631
L47.4257 37.4193
L47.6159 37.3441
L47.7125 37.1969
L47.8995 37.118
L47.993 36.9565
L48.1839 36.873
L48.2805 36.7167
L48.4712 36.634
L48.5661 36.4648
L48.7567 36.3752
L48.8495 36.2125
L49.0356 36.1368
L49.1298 35.9896
L49.3217 35.9147
L49.4172 35.7773
L49.6037 35.7098
L49.7029 35.5647
L49.8932 35.492
L49.9875 35.3509
L50.1787 35.2778
L50.2722 35.1244
L50.465 35.0481
L50.5587 34.8975
L50.751 34.82
L50.8449 34.668
L51.0315 34.5918
L51.1269 34.4444
L51.3181 34.3697
L51.4143 34.2247
L51.6079 34.1521
L51.7029 34.0167
L51.8947 33.9466
L51.9917 33.8224
L52.1819 33.7607
L52.2773 33.6351
L52.4677 33.5709
L52.5612 33.4339
L52.7523 33.3675
L52.8484 33.2347
L53.0415 33.1615
L53.1376 33.0241
L53.3262 32.9594
L53.4221 32.816
L53.6138 32.7444
L53.7102 32.6077
L53.9015 32.5409
L53.9951 32.4
L54.1838 32.3296
L54.2806 32.1954
L54.4713 32.1305
L54.5656 32.0154
L54.8546 31.9121
L54.9483 31.8297
L55.3302 31.7236
L55.4297 31.6391
L55.8138 31.5324
L55.9106 31.462
L56.2937 31.3557
L56.3919 31.279
L56.6801 31.2032
L56.7752 31.1242
L57.1614 31.0167
L57.2586 30.9463
L57.6457 30.8416
L57.7427 30.7669
L58.1275 30.6576
L58.2231 30.5885
L58.6095 30.484
L58.7077 30.405
L58.9983 30.326
L59.0945 30.2544
L59.3814 30.1754
L59.4778 30.0935
L59.7679 30.0105
L59.8661 29.9236
L60.1565 29.8395
L60.2544 29.7568
L60.5471 29.6748
L60.6437 29.5912
L60.934 29.5109
L61.03 29.4316
L61.3183 29.3458
L61.4179 29.2516
L61.7065 29.1643
L61.8052 29.072
L62.0959 28.9665
L62.1934 28.8568
L62.4879 28.7471
L62.5829 28.6408
L62.8716 28.5368
L62.9679 28.4345
L63.2571 28.3351
L63.3558 28.2391
L63.6467 28.1499
L63.743 28.0666
L64.0332 27.9897
L64.1302 27.9117
L64.4227 27.826
L64.5204 27.7433
L64.8153 27.6583
L64.9094 27.5771
L65.2039 27.4873
L65.2991 27.3992
L65.5971 27.3161
L65.6947 27.233
L65.9891 27.1532
L66.0843 27.0733
L66.3775 26.9893
L66.4732 26.9071
L66.7643 26.8229
L66.8626 26.7363
L67.154 26.6501
L67.2512 26.5625
L67.5474 26.469
L67.646 26.3802
L67.9411 26.2997
L68.0381 26.2216
L68.3317 26.1416
L68.4252 26.0701
L68.8173 25.9671
L68.9146 25.8946
L69.2089 25.8179
L69.3074 25.7466
L69.6983 25.6483
L69.7997 25.5821
L70.1946 25.4838
L70.2917 25.4202
L70.6886 25.3272
L70.7852 25.2684
L71.1763 25.1786
L71.2745 25.1214
L71.6706 25.0369
L71.7691 24.9809
L72.1602 24.8958
L72.2596 24.8354
L72.7503 24.728
L72.8469 24.6792
L73.4362 24.5709
L73.533 24.5288
L74.1234 24.4207
L74.2182 24.3794
L74.713 24.2884
L74.8125 24.2305
L75.2056 24.1452
L75.3063 24.0899
L75.6968 24.0027
L75.7963 23.9438
L76.1914 23.8589
L76.2891 23.8037
L76.6849 23.7131
L76.7823 23.6528
L77.1779 23.5518
L77.2766 23.4838
L77.6751 23.3773
L77.7732 23.3091
L78.1717 23.2094
L78.2692 23.1412
L78.6644 23.0388
L78.7608 22.9742
L79.1518 22.872
L79.2548 22.8109
L79.6501 22.7153
L79.7492 22.6487
L80.1441 22.548
L80.2428 22.4818
L80.6413 22.374
L80.7408 22.2982
L81.037 22.2248
L81.1345 22.1511
L81.5328 22.0435
L81.6339 21.9704
L82.0306 21.8621
L82.1305 21.7869
L82.4275 21.7104
L82.5279 21.6286
L82.8219 21.5462
L82.9231 21.4647
L83.2188 21.3896
L83.3162 21.3158
L83.6157 21.2393
L83.7143 21.1623
L84.0155 21.0883
L84.116 21.012
L84.5126 20.9028
L84.6129 20.831
L85.0092 20.7234
L85.1068 20.6528
L85.5042 20.546
L85.6037 20.4692
L85.9036 20.3905
L86.0043 20.3104
L86.4065 20.2041
L86.5056 20.1375
L86.9088 20.0428
L87.0094 19.9803
L87.4087 19.8806
L87.5068 19.8117
L87.906 19.7076
L88.0077 19.6387
L88.4049 19.538
L88.5055 19.472
L88.9091 19.3675
L89.0085 19.2961
L89.4111 19.1946
L89.5108 19.1271
L89.9076 19.0319
L90.005 18.9687
L90.4046 18.8711
L90.5076 18.8079
L90.9042 18.7146
L91.005 18.6493
L91.401 18.5573
L91.5031 18.4971
L91.9075 18.4091
L92.0103 18.3492
L92.5076 18.2388
L92.6089 18.1881
L93.1104 18.077
L93.2098 18.0234
L93.6065 17.9363
L93.7074 17.8776
L94.1081 17.7875
L94.209 17.7308
L94.7123 17.6231
L94.8114 17.5708
L95.3153 17.4669
L95.4174 17.4185
L95.916 17.3249
L96.0165 17.28
L96.6226 17.1822
L96.7211 17.1485
L97.43 17.0461
L97.5289 17.0114
L98.1357 16.9169
L98.2359 16.8811
L98.9372 16.7759
L99.0413 16.7367
L99.7467 16.6285
L99.8473 16.5918
L100.549 16.4856
L100.65 16.4523
L101.359 16.3555
L101.46 16.3264
L102.365 16.2197
L102.466 16.1976
L103.679 16.0911
L103.781 16.0719
L105.202 15.9617
L105.303 15.9441
L106.917 15.8341
L107.019 15.822
L110.25 15.7118
L110.353 15.7062
L114.018 15.5976
L114.116 15.5886
L116.865 15.4779
L116.967 15.4723
L119.421 15.3619
L119.522 15.3519
L121.872 15.2434
L121.976 15.2337
L123.91 15.1279
L124.014 15.1161
L126.479 15.0055
L126.58 15.001
L140.571 15.1105
L140.673 15.1208
L142.634 15.2314
L142.736 15.2454
L143.981 15.349
L144.081 15.3704
L145.426 15.4796
L145.53 15.4959
L146.87 15.6051
L146.976 15.627
L148.113 15.7328
L148.214 15.7522
L149.356 15.8604
L149.463 15.8835
L150.495 15.9936
L150.602 16.0191
L151.543 16.1192
L151.648 16.1426
L152.685 16.2518
L152.79 16.2756
L153.826 16.3797
L153.931 16.4035
L155.068 16.5144
L155.173 16.5355
L156.317 16.6453
L156.426 16.6676
L157.462 16.7738
L157.566 16.7977
L158.6 16.9014
L158.703 16.9219
L160.059 17.0289
L160.163 17.0471
L161.41 17.1502
L161.514 17.1723
L162.561 17.275
L162.663 17.2978
L163.808 17.4038
L163.912 17.4265
L164.96 17.5294
L165.063 17.5517
L166.207 17.6612
L166.314 17.6837
L167.456 17.7928
L167.564 17.8168
L168.711 17.9278
L168.815 17.9518
L169.861 18.0569
L169.971 18.0812
L171.015 18.1864
L171.119 18.209
L172.172 18.3147
L172.277 18.3388
L173.216 18.4377
L173.322 18.4641
L174.263 18.5717
L174.368 18.5992
L175.207 18.6995
L175.312 18.7278
L176.14 18.8336
L176.243 18.8627
L177.077 18.9627
L177.182 18.9902
L178.013 19.0887
L178.119 19.1178
L178.964 19.2253
L179.067 19.2539
L180.006 19.3552
L180.109 19.3784
L181.158 19.4868
L181.264 19.5125
L182.321 19.6151
L182.429 19.6388
L183.478 19.742
L183.583 19.763
L184.848 19.8723
L184.954 19.8905
L186.425 19.9986
L186.528 20.0132
L188.422 20.1213
L188.528 20.1334
L190.839 20.2404
L190.946 20.2495
L193.577 20.3564
L193.682 20.3658
L195.896 20.4731
L196.002 20.4844
L198.546 20.5928
L198.653 20.6022
L201.515 20.711
L201.62 20.7194
L204.367 20.8279
L204.472 20.8363
L207.332 20.9461
L207.44 20.9533
L210.821 21.0612
L210.931 21.0679
L215.707 21.177
L215.812 21.1823
L220.582 21.2913
L220.688 21.2964
L226.627 21.4072
L226.734 21.4092
L231.74 21.5188
L231.847 21.5238
L236.011 21.6342
L236.114 21.6397
L240.824 21.7496
L240.928 21.7543
L251.103 21.8648
L251.209 21.866
L260.514 21.9765
L260.514 21.9775
L266.86 22.0868
L266.967 22.0911
L287.668 21.9824
L287.772 21.9757
L290.8 21.8688
L290.908 21.8597
L293.715 21.7507
L293.821 21.7423
L297.829 21.6314
L297.934 21.6268
L328.761 21.5168
L328.869 21.5137
L335.313 21.4036
L335.421 21.3994
L341.194 21.2884
L341.303 21.2832
L346.441 21.1726
L346.551 21.1685
L352.014 21.0593
L352.122 21.0541
L357.579 20.9443
L357.69 20.9406
L365.81 20.8304
L365.916 20.8274
L413.504 20.7165
L413.504 20.7157
L427.642 20.6047
L427.642 20.6032
L435.945 20.4925
L436.055 20.4895
L443.256 20.3796
L443.256 20.3777
L449.669 20.2681
L449.669 20.2658
L454.657 20.1557
L454.657 20.1535
L460.325 20.0451
L460.436 20.0398
L465.325 19.9305
L465.434 19.926
L471.439 19.815
L471.55 19.8115
L476.888 19.7019
L476.888 19.6996
L482.235 19.5886
L482.235 19.586
L487.457 19.4757
L487.568 19.4718
L493.384 19.3626
L493.492 19.3587
L501.175 19.2488
L501.284 19.2457
L508.993 19.1349
L508.993 19.1332
L516.367 19.0227
L516.367 19.0213
L527.988 18.911
L528.095 18.9093
L544.448 18.7982
L544.448 18.7976
L545.905 18.789
L545.905 18.7881" style="fill:none;stroke:#ff0000;stroke-width:0.5;"/>
   </g>
   <g id="matplotlib.axis_1">
    <g id="xtick_1">
     <g id="line2d_2">
      <defs>
       <path d="
M0 0
L0 -4" id="me2ec79df32"/>
      </defs>
      <g>
       <use style="stroke:#000000;stroke-linecap:butt;stroke-width:0.5;" x="17.7628318394" xlink:href="#me2ec79df32" y="401.004497041"/>
      </g>
     </g>
    </g>
    <g id="xtick_2">
     <g id="line2d_3">
      <defs>
       <path d="
M0 0
L0 -4" id="me2ec79df32"/>
      </defs>
      <g>
       <use style="stroke:#000000;stroke-linecap:butt;stroke-width:0.5;" x="123.397259072" xlink:href="#me2ec79df32" y="401.004497041"/>
      </g>
     </g>
     <g id="text_1">
      <!-- 2e7 -->
      <defs>
       <path d="
M19.1875 8.29688
L53.6094 8.29688
L53.6094 0
L7.32812 0
L7.32812 8.29688
Q12.9375 14.1094 22.625 23.8906
Q32.3281 33.6875 34.8125 36.5312
Q39.5469 41.8438 41.4219 45.5312
Q43.3125 49.2188 43.3125 52.7812
Q43.3125 58.5938 39.2344 62.25
Q35.1562 65.9219 28.6094 65.9219
Q23.9688 65.9219 18.8125 64.3125
Q13.6719 62.7031 7.8125 59.4219
L7.8125 69.3906
Q13.7656 71.7812 18.9375 73
Q24.125 74.2188 28.4219 74.2188
Q39.75 74.2188 46.4844 68.5469
Q53.2188 62.8906 53.2188 53.4219
Q53.2188 48.9219 51.5312 44.8906
Q49.8594 40.875 45.4062 35.4062
Q44.1875 33.9844 37.6406 27.2188
Q31.1094 20.4531 19.1875 8.29688" id="BitstreamVeraSans-Roman-32"/>
       <path d="
M56.2031 29.5938
L56.2031 25.2031
L14.8906 25.2031
Q15.4844 15.9219 20.4844 11.0625
Q25.4844 6.20312 34.4219 6.20312
Q39.5938 6.20312 44.4531 7.46875
Q49.3125 8.73438 54.1094 11.2812
L54.1094 2.78125
Q49.2656 0.734375 44.1875 -0.34375
Q39.1094 -1.42188 33.8906 -1.42188
Q20.7969 -1.42188 13.1562 6.1875
Q5.51562 13.8125 5.51562 26.8125
Q5.51562 40.2344 12.7656 48.1094
Q20.0156 56 32.3281 56
Q43.3594 56 49.7812 48.8906
Q56.2031 41.7969 56.2031 29.5938
M47.2188 32.2344
Q47.125 39.5938 43.0938 43.9844
Q39.0625 48.3906 32.4219 48.3906
Q24.9062 48.3906 20.3906 44.1406
Q15.875 39.8906 15.1875 32.1719
z
" id="BitstreamVeraSans-Roman-65"/>
       <path d="
M8.20312 72.9062
L55.0781 72.9062
L55.0781 68.7031
L28.6094 0
L18.3125 0
L43.2188 64.5938
L8.20312 64.5938
z
" id="BitstreamVeraSans-Roman-37"/>
      </defs>
      <g transform="translate(114.751946572 412.426372041)scale(0.1 -0.1)">
       <use xlink:href="#BitstreamVeraSans-Roman-32"/>
       <use x="63.623046875" xlink:href="#BitstreamVeraSans-Roman-65"/>
       <use x="125.146484375" xlink:href="#BitstreamVeraSans-Roman-37"/>
      </g>
     </g>
    </g>
    <g id="xtick_3">
     <g id="line2d_4">
      <defs>
       <path d="
M0 0
L0 -4" id="me2ec79df32"/>
      </defs>
      <g>
       <use style="stroke:#000000;stroke-linecap:butt;stroke-width:0.5;" x="229.031686305" xlink:href="#me2ec79df32" y="401.004497041"/>
      </g>
     </g>
     <g id="text_2">
      <!-- 4e7 -->
      <defs>
       <path d="
M37.7969 64.3125
L12.8906 25.3906
L37.7969 25.3906
z

M35.2031 72.9062
L47.6094 72.9062
L47.6094 25.3906
L58.0156 25.3906
L58.0156 17.1875
L47.6094 17.1875
L47.6094 0
L37.7969 0
L37.7969 17.1875
L4.89062 17.1875
L4.89062 26.7031
z
" id="BitstreamVeraSans-Roman-34"/>
      </defs>
      <g transform="translate(220.264498805 412.295122041)scale(0.1 -0.1)">
       <use xlink:href="#BitstreamVeraSans-Roman-34"/>
       <use x="63.623046875" xlink:href="#BitstreamVeraSans-Roman-65"/>
       <use x="125.146484375" xlink:href="#BitstreamVeraSans-Roman-37"/>
      </g>
     </g>
    </g>
    <g id="xtick_4">
     <g id="line2d_5">
      <defs>
       <path d="
M0 0
L0 -4" id="me2ec79df32"/>
      </defs>
      <g>
       <use style="stroke:#000000;stroke-linecap:butt;stroke-width:0.5;" x="334.666113538" xlink:href="#me2ec79df32" y="401.004497041"/>
      </g>
     </g>
     <g id="text_3">
      <!-- 6e7 -->
      <defs>
       <path d="
M33.0156 40.375
Q26.375 40.375 22.4844 35.8281
Q18.6094 31.2969 18.6094 23.3906
Q18.6094 15.5312 22.4844 10.9531
Q26.375 6.39062 33.0156 6.39062
Q39.6562 6.39062 43.5312 10.9531
Q47.4062 15.5312 47.4062 23.3906
Q47.4062 31.2969 43.5312 35.8281
Q39.6562 40.375 33.0156 40.375
M52.5938 71.2969
L52.5938 62.3125
Q48.875 64.0625 45.0938 64.9844
Q41.3125 65.9219 37.5938 65.9219
Q27.8281 65.9219 22.6719 59.3281
Q17.5312 52.7344 16.7969 39.4062
Q19.6719 43.6562 24.0156 45.9219
Q28.375 48.1875 33.5938 48.1875
Q44.5781 48.1875 50.9531 41.5156
Q57.3281 34.8594 57.3281 23.3906
Q57.3281 12.1562 50.6875 5.35938
Q44.0469 -1.42188 33.0156 -1.42188
Q20.3594 -1.42188 13.6719 8.26562
Q6.98438 17.9688 6.98438 36.375
Q6.98438 53.6562 15.1875 63.9375
Q23.3906 74.2188 37.2031 74.2188
Q40.9219 74.2188 44.7031 73.4844
Q48.4844 72.75 52.5938 71.2969" id="BitstreamVeraSans-Roman-36"/>
      </defs>
      <g transform="translate(326.003613538 412.426372041)scale(0.1 -0.1)">
       <use xlink:href="#BitstreamVeraSans-Roman-36"/>
       <use x="63.623046875" xlink:href="#BitstreamVeraSans-Roman-65"/>
       <use x="125.146484375" xlink:href="#BitstreamVeraSans-Roman-37"/>
      </g>
     </g>
    </g>
    <g id="xtick_5">
     <g id="line2d_6">
      <defs>
       <path d="
M0 0
L0 -4" id="me2ec79df32"/>
      </defs>
      <g>
       <use style="stroke:#000000;stroke-linecap:butt;stroke-width:0.5;" x="440.300540771" xlink:href="#me2ec79df32" y="401.004497041"/>
      </g>
     </g>
     <g id="text_4">
      <!-- 8e7 -->
      <defs>
       <path d="
M31.7812 34.625
Q24.75 34.625 20.7188 30.8594
Q16.7031 27.0938 16.7031 20.5156
Q16.7031 13.9219 20.7188 10.1562
Q24.75 6.39062 31.7812 6.39062
Q38.8125 6.39062 42.8594 10.1719
Q46.9219 13.9688 46.9219 20.5156
Q46.9219 27.0938 42.8906 30.8594
Q38.875 34.625 31.7812 34.625
M21.9219 38.8125
Q15.5781 40.375 12.0312 44.7188
Q8.5 49.0781 8.5 55.3281
Q8.5 64.0625 14.7188 69.1406
Q20.9531 74.2188 31.7812 74.2188
Q42.6719 74.2188 48.875 69.1406
Q55.0781 64.0625 55.0781 55.3281
Q55.0781 49.0781 51.5312 44.7188
Q48 40.375 41.7031 38.8125
Q48.8281 37.1562 52.7969 32.3125
Q56.7812 27.4844 56.7812 20.5156
Q56.7812 9.90625 50.3125 4.23438
Q43.8438 -1.42188 31.7812 -1.42188
Q19.7344 -1.42188 13.25 4.23438
Q6.78125 9.90625 6.78125 20.5156
Q6.78125 27.4844 10.7812 32.3125
Q14.7969 37.1562 21.9219 38.8125
M18.3125 54.3906
Q18.3125 48.7344 21.8438 45.5625
Q25.3906 42.3906 31.7812 42.3906
Q38.1406 42.3906 41.7188 45.5625
Q45.3125 48.7344 45.3125 54.3906
Q45.3125 60.0625 41.7188 63.2344
Q38.1406 66.4062 31.7812 66.4062
Q25.3906 66.4062 21.8438 63.2344
Q18.3125 60.0625 18.3125 54.3906" id="BitstreamVeraSans-Roman-38"/>
      </defs>
      <g transform="translate(431.627884521 412.426372041)scale(0.1 -0.1)">
       <use xlink:href="#BitstreamVeraSans-Roman-38"/>
       <use x="63.623046875" xlink:href="#BitstreamVeraSans-Roman-65"/>
       <use x="125.146484375" xlink:href="#BitstreamVeraSans-Roman-37"/>
      </g>
     </g>
    </g>
    <g id="xtick_6">
     <g id="line2d_7">
      <defs>
       <path d="
M0 0
L0 -4" id="me2ec79df32"/>
      </defs>
      <g>
       <use style="stroke:#000000;stroke-linecap:butt;stroke-width:0.5;" x="545.934968004" xlink:href="#me2ec79df32" y="401.004497041"/>
      </g>
     </g>
     <g id="text_5">
      <!-- 1e8 -->
      <defs>
       <path d="
M12.4062 8.29688
L28.5156 8.29688
L28.5156 63.9219
L10.9844 60.4062
L10.9844 69.3906
L28.4219 72.9062
L38.2812 72.9062
L38.2812 8.29688
L54.3906 8.29688
L54.3906 0
L12.4062 0
z
" id="BitstreamVeraSans-Roman-31"/>
      </defs>
      <g transform="translate(537.387311754 412.426372041)scale(0.1 -0.1)">
       <use xlink:href="#BitstreamVeraSans-Roman-31"/>
       <use x="63.623046875" xlink:href="#BitstreamVeraSans-Roman-65"/>
       <use x="125.146484375" xlink:href="#BitstreamVeraSans-Roman-38"/>
      </g>
     </g>
    </g>
    <g id="xtick_7">
     <g id="line2d_8">
      <defs>
       <path d="
M0 0
L0 -2" id="m9c5732dfff"/>
      </defs>
      <g>
       <use style="stroke:#000000;stroke-linecap:butt;stroke-width:0.5;" x="44.1714386477" xlink:href="#m9c5732dfff" y="401.004497041"/>
      </g>
     </g>
    </g>
    <g id="xtick_8">
     <g id="line2d_9">
      <defs>
       <path d="
M0 0
L0 -2" id="m9c5732dfff"/>
      </defs>
      <g>
       <use style="stroke:#000000;stroke-linecap:butt;stroke-width:0.5;" x="70.5800454559" xlink:href="#m9c5732dfff" y="401.004497041"/>
      </g>
     </g>
    </g>
    <g id="xtick_9">
     <g id="line2d_10">
      <defs>
       <path d="
M0 0
L0 -2" id="m9c5732dfff"/>
      </defs>
      <g>
       <use style="stroke:#000000;stroke-linecap:butt;stroke-width:0.5;" x="96.9886522642" xlink:href="#m9c5732dfff" y="401.004497041"/>
      </g>
     </g>
    </g>
    <g id="xtick_10">
     <g id="line2d_11">
      <defs>
       <path d="
M0 0
L0 -2" id="m9c5732dfff"/>
      </defs>
      <g>
       <use style="stroke:#000000;stroke-linecap:butt;stroke-width:0.5;" x="149.805865881" xlink:href="#m9c5732dfff" y="401.004497041"/>
      </g>
     </g>
    </g>
    <g id="xtick_11">
     <g id="line2d_12">
      <defs>
       <path d="
M0 0
L0 -2" id="m9c5732dfff"/>
      </defs>
      <g>
       <use style="stroke:#000000;stroke-linecap:butt;stroke-width:0.5;" x="176.214472689" xlink:href="#m9c5732dfff" y="401.004497041"/>
      </g>
     </g>
    </g>
    <g id="xtick_12">
     <g id="line2d_13">
      <defs>
       <path d="
M0 0
L0 -2" id="m9c5732dfff"/>
      </defs>
      <g>
       <use style="stroke:#000000;stroke-linecap:butt;stroke-width:0.5;" x="202.623079497" xlink:href="#m9c5732dfff" y="401.004497041"/>
      </g>
     </g>
    </g>
    <g id="xtick_13">
     <g id="line2d_14">
      <defs>
       <path d="
M0 0
L0 -2" id="m9c5732dfff"/>
      </defs>
      <g>
       <use style="stroke:#000000;stroke-linecap:butt;stroke-width:0.5;" x="255.440293114" xlink:href="#m9c5732dfff" y="401.004497041"/>
      </g>
     </g>
    </g>
    <g id="xtick_14">
     <g id="line2d_15">
      <defs>
       <path d="
M0 0
L0 -2" id="m9c5732dfff"/>
      </defs>
      <g>
       <use style="stroke:#000000;stroke-linecap:butt;stroke-width:0.5;" x="281.848899922" xlink:href="#m9c5732dfff" y="401.004497041"/>
      </g>
     </g>
    </g>
    <g id="xtick_15">
     <g id="line2d_16">
      <defs>
       <path d="
M0 0
L0 -2" id="m9c5732dfff"/>
      </defs>
      <g>
       <use style="stroke:#000000;stroke-linecap:butt;stroke-width:0.5;" x="308.25750673" xlink:href="#m9c5732dfff" y="401.004497041"/>
      </g>
     </g>
    </g>
    <g id="xtick_16">
     <g id="line2d_17">
      <defs>
       <path d="
M0 0
L0 -2" id="m9c5732dfff"/>
      </defs>
      <g>
       <use style="stroke:#000000;stroke-linecap:butt;stroke-width:0.5;" x="361.074720347" xlink:href="#m9c5732dfff" y="401.004497041"/>
      </g>
     </g>
    </g>
    <g id="xtick_17">
     <g id="line2d_18">
      <defs>
       <path d="
M0 0
L0 -2" id="m9c5732dfff"/>
      </defs>
      <g>
       <use style="stroke:#000000;stroke-linecap:butt;stroke-width:0.5;" x="387.483327155" xlink:href="#m9c5732dfff" y="401.004497041"/>
      </g>
     </g>
    </g>
    <g id="xtick_18">
     <g id="line2d_19">
      <defs>
       <path d="
M0 0
L0 -2" id="m9c5732dfff"/>
      </defs>
      <g>
       <use style="stroke:#000000;stroke-linecap:butt;stroke-width:0.5;" x="413.891933963" xlink:href="#m9c5732dfff" y="401.004497041"/>
      </g>
     </g>
    </g>
    <g id="xtick_19">
     <g id="line2d_20">
      <defs>
       <path d="
M0 0
L0 -2" id="m9c5732dfff"/>
      </defs>
      <g>
       <use style="stroke:#000000;stroke-linecap:butt;stroke-width:0.5;" x="466.70914758" xlink:href="#m9c5732dfff" y="401.004497041"/>
      </g>
     </g>
    </g>
    <g id="xtick_20">
     <g id="line2d_21">
      <defs>
       <path d="
M0 0
L0 -2" id="m9c5732dfff"/>
      </defs>
      <g>
       <use style="stroke:#000000;stroke-linecap:butt;stroke-width:0.5;" x="493.117754388" xlink:href="#m9c5732dfff" y="401.004497041"/>
      </g>
     </g>
    </g>
    <g id="xtick_21">
     <g id="line2d_22">
      <defs>
       <path d="
M0 0
L0 -2" id="m9c5732dfff"/>
      </defs>
      <g>
       <use style="stroke:#000000;stroke-linecap:butt;stroke-width:0.5;" x="519.526361196" xlink:href="#m9c5732dfff" y="401.004497041"/>
      </g>
     </g>
    </g>
   </g>
   <g id="matplotlib.axis_2">
    <g id="ytick_1">
     <g id="line2d_23">
      <defs>
       <path d="
M0 0
L4 0" id="md95e8dfef4"/>
      </defs>
      <g>
       <use style="stroke:#000000;stroke-linecap:butt;stroke-width:0.5;" x="17.7628318394" xlink:href="#md95e8dfef4" y="401.004497041"/>
      </g>
     </g>
    </g>
    <g id="ytick_2">
     <g id="line2d_24">
      <defs>
       <path d="
M0 0
L4 0" id="md95e8dfef4"/>
      </defs>
      <g>
       <use style="stroke:#000000;stroke-linecap:butt;stroke-width:0.5;" x="17.7628318394" xlink:href="#md95e8dfef4" y="320.200627074"/>
      </g>
     </g>
     <g id="text_6">
      <!-- 1 -->
      <g transform="translate(9.42220683941 323.845939574)scale(0.1 -0.1)">
       <use xlink:href="#BitstreamVeraSans-Roman-31"/>
      </g>
     </g>
    </g>
    <g id="ytick_3">
     <g id="line2d_25">
      <defs>
       <path d="
M0 0
L4 0" id="md95e8dfef4"/>
      </defs>
      <g>
       <use style="stroke:#000000;stroke-linecap:butt;stroke-width:0.5;" x="17.7628318394" xlink:href="#md95e8dfef4" y="239.396757107"/>
      </g>
     </g>
     <g id="text_7">
      <!-- 2 -->
      <g transform="translate(9.13470683941 243.107694607)scale(0.1 -0.1)">
       <use xlink:href="#BitstreamVeraSans-Roman-32"/>
      </g>
     </g>
    </g>
    <g id="ytick_4">
     <g id="line2d_26">
      <defs>
       <path d="
M0 0
L4 0" id="md95e8dfef4"/>
      </defs>
      <g>
       <use style="stroke:#000000;stroke-linecap:butt;stroke-width:0.5;" x="17.7628318394" xlink:href="#md95e8dfef4" y="158.59288714"/>
      </g>
     </g>
     <g id="text_8">
      <!-- 3 -->
      <defs>
       <path d="
M40.5781 39.3125
Q47.6562 37.7969 51.625 33
Q55.6094 28.2188 55.6094 21.1875
Q55.6094 10.4062 48.1875 4.48438
Q40.7656 -1.42188 27.0938 -1.42188
Q22.5156 -1.42188 17.6562 -0.515625
Q12.7969 0.390625 7.625 2.20312
L7.625 11.7188
Q11.7188 9.32812 16.5938 8.10938
Q21.4844 6.89062 26.8125 6.89062
Q36.0781 6.89062 40.9375 10.5469
Q45.7969 14.2031 45.7969 21.1875
Q45.7969 27.6406 41.2812 31.2656
Q36.7656 34.9062 28.7188 34.9062
L20.2188 34.9062
L20.2188 43.0156
L29.1094 43.0156
Q36.375 43.0156 40.2344 45.9219
Q44.0938 48.8281 44.0938 54.2969
Q44.0938 59.9062 40.1094 62.9062
Q36.1406 65.9219 28.7188 65.9219
Q24.6562 65.9219 20.0156 65.0312
Q15.375 64.1562 9.8125 62.3125
L9.8125 71.0938
Q15.4375 72.6562 20.3438 73.4375
Q25.25 74.2188 29.5938 74.2188
Q40.8281 74.2188 47.3594 69.1094
Q53.9062 64.0156 53.9062 55.3281
Q53.9062 49.2656 50.4375 45.0938
Q46.9688 40.9219 40.5781 39.3125" id="BitstreamVeraSans-Roman-33"/>
      </defs>
      <g transform="translate(8.96439433941 162.23273089)scale(0.1 -0.1)">
       <use xlink:href="#BitstreamVeraSans-Roman-33"/>
      </g>
     </g>
    </g>
    <g id="ytick_5">
     <g id="line2d_27">
      <defs>
       <path d="
M0 0
L4 0" id="md95e8dfef4"/>
      </defs>
      <g>
       <use style="stroke:#000000;stroke-linecap:butt;stroke-width:0.5;" x="17.7628318394" xlink:href="#md95e8dfef4" y="77.7890171725"/>
      </g>
     </g>
     <g id="text_9">
      <!-- 4 -->
      <g transform="translate(8.45033183941 81.4343296725)scale(0.1 -0.1)">
       <use xlink:href="#BitstreamVeraSans-Roman-34"/>
      </g>
     </g>
    </g>
    <g id="ytick_6">
     <g id="line2d_28">
      <defs>
       <path d="
M0 0
L2 0" id="mbcc6c67864"/>
      </defs>
      <g>
       <use style="stroke:#000000;stroke-linecap:butt;stroke-width:0.5;" x="17.7628318394" xlink:href="#mbcc6c67864" y="384.843723048"/>
      </g>
     </g>
    </g>
    <g id="ytick_7">
     <g id="line2d_29">
      <defs>
       <path d="
M0 0
L2 0" id="mbcc6c67864"/>
      </defs>
      <g>
       <use style="stroke:#000000;stroke-linecap:butt;stroke-width:0.5;" x="17.7628318394" xlink:href="#mbcc6c67864" y="368.682949055"/>
      </g>
     </g>
    </g>
    <g id="ytick_8">
     <g id="line2d_30">
      <defs>
       <path d="
M0 0
L2 0" id="mbcc6c67864"/>
      </defs>
      <g>
       <use style="stroke:#000000;stroke-linecap:butt;stroke-width:0.5;" x="17.7628318394" xlink:href="#mbcc6c67864" y="352.522175061"/>
      </g>
     </g>
    </g>
    <g id="ytick_9">
     <g id="line2d_31">
      <defs>
       <path d="
M0 0
L2 0" id="mbcc6c67864"/>
      </defs>
      <g>
       <use style="stroke:#000000;stroke-linecap:butt;stroke-width:0.5;" x="17.7628318394" xlink:href="#mbcc6c67864" y="336.361401068"/>
      </g>
     </g>
    </g>
    <g id="ytick_10">
     <g id="line2d_32">
      <defs>
       <path d="
M0 0
L2 0" id="mbcc6c67864"/>
      </defs>
      <g>
       <use style="stroke:#000000;stroke-linecap:butt;stroke-width:0.5;" x="17.7628318394" xlink:href="#mbcc6c67864" y="320.200627074"/>
      </g>
     </g>
    </g>
    <g id="ytick_11">
     <g id="line2d_33">
      <defs>
       <path d="
M0 0
L2 0" id="mbcc6c67864"/>
      </defs>
      <g>
       <use style="stroke:#000000;stroke-linecap:butt;stroke-width:0.5;" x="17.7628318394" xlink:href="#mbcc6c67864" y="304.039853081"/>
      </g>
     </g>
    </g>
    <g id="ytick_12">
     <g id="line2d_34">
      <defs>
       <path d="
M0 0
L2 0" id="mbcc6c67864"/>
      </defs>
      <g>
       <use style="stroke:#000000;stroke-linecap:butt;stroke-width:0.5;" x="17.7628318394" xlink:href="#mbcc6c67864" y="287.879079087"/>
      </g>
     </g>
    </g>
    <g id="ytick_13">
     <g id="line2d_35">
      <defs>
       <path d="
M0 0
L2 0" id="mbcc6c67864"/>
      </defs>
      <g>
       <use style="stroke:#000000;stroke-linecap:butt;stroke-width:0.5;" x="17.7628318394" xlink:href="#mbcc6c67864" y="271.718305094"/>
      </g>
     </g>
    </g>
    <g id="ytick_14">
     <g id="line2d_36">
      <defs>
       <path d="
M0 0
L2 0" id="mbcc6c67864"/>
      </defs>
      <g>
       <use style="stroke:#000000;stroke-linecap:butt;stroke-width:0.5;" x="17.7628318394" xlink:href="#mbcc6c67864" y="255.5575311"/>
      </g>
     </g>
    </g>
    <g id="ytick_15">
     <g id="line2d_37">
      <defs>
       <path d="
M0 0
L2 0" id="mbcc6c67864"/>
      </defs>
      <g>
       <use style="stroke:#000000;stroke-linecap:butt;stroke-width:0.5;" x="17.7628318394" xlink:href="#mbcc6c67864" y="239.396757107"/>
      </g>
     </g>
    </g>
    <g id="ytick_16">
     <g id="line2d_38">
      <defs>
       <path d="
M0 0
L2 0" id="mbcc6c67864"/>
      </defs>
      <g>
       <use style="stroke:#000000;stroke-linecap:butt;stroke-width:0.5;" x="17.7628318394" xlink:href="#mbcc6c67864" y="223.235983114"/>
      </g>
     </g>
    </g>
    <g id="ytick_17">
     <g id="line2d_39">
      <defs>
       <path d="
M0 0
L2 0" id="mbcc6c67864"/>
      </defs>
      <g>
       <use style="stroke:#000000;stroke-linecap:butt;stroke-width:0.5;" x="17.7628318394" xlink:href="#mbcc6c67864" y="207.07520912"/>
      </g>
     </g>
    </g>
    <g id="ytick_18">
     <g id="line2d_40">
      <defs>
       <path d="
M0 0
L2 0" id="mbcc6c67864"/>
      </defs>
      <g>
       <use style="stroke:#000000;stroke-linecap:butt;stroke-width:0.5;" x="17.7628318394" xlink:href="#mbcc6c67864" y="190.914435127"/>
      </g>
     </g>
    </g>
    <g id="ytick_19">
     <g id="line2d_41">
      <defs>
       <path d="
M0 0
L2 0" id="mbcc6c67864"/>
      </defs>
      <g>
       <use style="stroke:#000000;stroke-linecap:butt;stroke-width:0.5;" x="17.7628318394" xlink:href="#mbcc6c67864" y="174.753661133"/>
      </g>
     </g>
    </g>
    <g id="ytick_20">
     <g id="line2d_42">
      <defs>
       <path d="
M0 0
L2 0" id="mbcc6c67864"/>
      </defs>
      <g>
       <use style="stroke:#000000;stroke-linecap:butt;stroke-width:0.5;" x="17.7628318394" xlink:href="#mbcc6c67864" y="158.59288714"/>
      </g>
     </g>
    </g>
    <g id="ytick_21">
     <g id="line2d_43">
      <defs>
       <path d="
M0 0
L2 0" id="mbcc6c67864"/>
      </defs>
      <g>
       <use style="stroke:#000000;stroke-linecap:butt;stroke-width:0.5;" x="17.7628318394" xlink:href="#mbcc6c67864" y="142.432113146"/>
      </g>
     </g>
    </g>
    <g id="ytick_22">
     <g id="line2d_44">
      <defs>
       <path d="
M0 0
L2 0" id="mbcc6c67864"/>
      </defs>
      <g>
       <use style="stroke:#000000;stroke-linecap:butt;stroke-width:0.5;" x="17.7628318394" xlink:href="#mbcc6c67864" y="126.271339153"/>
      </g>
     </g>
    </g>
    <g id="ytick_23">
     <g id="line2d_45">
      <defs>
       <path d="
M0 0
L2 0" id="mbcc6c67864"/>
      </defs>
      <g>
       <use style="stroke:#000000;stroke-linecap:butt;stroke-width:0.5;" x="17.7628318394" xlink:href="#mbcc6c67864" y="110.110565159"/>
      </g>
     </g>
    </g>
    <g id="ytick_24">
     <g id="line2d_46">
      <defs>
       <path d="
M0 0
L2 0" id="mbcc6c67864"/>
      </defs>
      <g>
       <use style="stroke:#000000;stroke-linecap:butt;stroke-width:0.5;" x="17.7628318394" xlink:href="#mbcc6c67864" y="93.9497911659"/>
      </g>
     </g>
    </g>
    <g id="ytick_25">
     <g id="line2d_47">
      <defs>
       <path d="
M0 0
L2 0" id="mbcc6c67864"/>
      </defs>
      <g>
       <use style="stroke:#000000;stroke-linecap:butt;stroke-width:0.5;" x="17.7628318394" xlink:href="#mbcc6c67864" y="77.7890171725"/>
      </g>
     </g>
    </g>
    <g id="ytick_26">
     <g id="line2d_48">
      <defs>
       <path d="
M0 0
L2 0" id="mbcc6c67864"/>
      </defs>
      <g>
       <use style="stroke:#000000;stroke-linecap:butt;stroke-width:0.5;" x="17.7628318394" xlink:href="#mbcc6c67864" y="61.6282431791"/>
      </g>
     </g>
    </g>
    <g id="ytick_27">
     <g id="line2d_49">
      <defs>
       <path d="
M0 0
L2 0" id="mbcc6c67864"/>
      </defs>
      <g>
       <use style="stroke:#000000;stroke-linecap:butt;stroke-width:0.5;" x="17.7628318394" xlink:href="#mbcc6c67864" y="45.4674691856"/>
      </g>
     </g>
    </g>
    <g id="ytick_28">
     <g id="line2d_50">
      <defs>
       <path d="
M0 0
L2 0" id="mbcc6c67864"/>
      </defs>
      <g>
       <use style="stroke:#000000;stroke-linecap:butt;stroke-width:0.5;" x="17.7628318394" xlink:href="#mbcc6c67864" y="29.3066951922"/>
      </g>
     </g>
    </g>
    <g id="ytick_29">
     <g id="line2d_51">
      <defs>
       <path d="
M0 0
L2 0" id="mbcc6c67864"/>
      </defs>
      <g>
       <use style="stroke:#000000;stroke-linecap:butt;stroke-width:0.5;" x="17.7628318394" xlink:href="#mbcc6c67864" y="13.1459211987"/>
      </g>
     </g>
    </g>
   </g>
   <g id="patch_3">
    <path d="
M7.2 401.004
L556.468 401.004" style="fill:none;stroke:#000000;stroke-width:0.8;"/>
   </g>
   <g id="patch_4">
    <path d="
M17.7628 408.726
L17.7628 7.2" style="fill:none;stroke:#000000;stroke-width:0.8;"/>
   </g>
  </g>
 </g>
 <defs>
  <clipPath id="p8536303459">
   <rect height="401.526153846" width="549.267804948" x="7.2" y="7.2"/>
  </clipPath>
 </defs>
</svg>
