<?xml version="1.0" encoding="utf-8" standalone="no"?>
<!DOCTYPE svg PUBLIC "-//W3C//DTD SVG 1.1//EN"
  "http://www.w3.org/Graphics/SVG/1.1/DTD/svg11.dtd">
<!-- Created with matplotlib (http://matplotlib.sourceforge.net/) -->
<svg height="420pt" version="1.1" viewBox="0 0 562 420" width="562pt" xmlns="http://www.w3.org/2000/svg" xmlns:xlink="http://www.w3.org/1999/xlink">
 <defs>
  <style type="text/css">
*{stroke-linecap:square;stroke-linejoin:round;}
  </style>
 </defs>
 <g id="figure_1">
  <g id="patch_1">
   <path d="
M2.22045e-16 420.48
L562.536 420.48
L562.536 0
L2.22045e-16 0
z
" style="fill:#ffffff;"/>
  </g>
  <g id="axes_1">
   <g id="patch_2">
    <path d="
M9.6259 413.28
L555.336 413.28
L555.336 7.2
L9.6259 7.2
z
" style="fill:#ffffff;"/>
   </g>
   <g id="line2d_1">
    <path clip-path="url(#pbf9a93ed35)" d="
M20.1203 15.0092
L20.1692 15.0092
L20.2274 397.725
L20.2895 397.725
L20.2895 398.6
L20.3526 398.6
L20.3526 398.6
L20.3526 394.53
L20.4184 395.202
L20.4863 395.202
L20.5532 398.639
L20.6221 398.639
L20.6925 400.097
L20.7631 400.097
L20.8345 402.808
L20.906 402.808
L20.9786 404.558
L21.0522 404.558
L21.125 405.291
L21.199 405.291
L21.199 405.471
L21.2731 405.471
L21.2731 405.471
L21.3476 404.535
L21.4224 404.535
L21.4986 402.462
L21.5731 402.462
L21.6497 401.114
L21.7267 401.114
L21.802 399.158
L21.8785 399.158
L21.9556 397.763
L22.0332 397.763
L22.1117 396.72
L22.1885 396.72
L22.2685 395.461
L22.346 395.461
L22.4239 394.948
L22.5031 394.948
L22.5828 395.408
L22.6604 395.408
L22.6604 395.581
L22.7397 395.57
L22.898 395.472
L22.9789 395.288
L23.0594 395.288
L23.1397 394.998
L23.2185 394.998
L23.2993 394.703
L23.461 394.709
L23.5436 394.967
L23.624 394.967
L23.7057 395.438
L23.7859 395.438
L23.8667 396.175
L23.9487 396.175
L24.0318 396.866
L24.1137 396.866
L24.1951 397.518
L24.2767 397.518
L24.3584 398.025
L24.4403 398.025
L24.5227 398.509
L24.6066 398.509
L24.6872 398.944
L24.7703 398.944
L24.8538 399.17
L25.1868 399.232
L25.2715 399.334
L25.6051 399.235
L25.6912 399.086
L25.8588 399.002
L25.9413 398.88
L26.1097 398.826
L26.1948 398.662
L26.3602 398.567
L26.4465 398.366
L26.6181 398.262
L26.6181 398.237
L26.7029 398.243
L26.9571 398.317
L27.0422 398.441
L27.3847 398.541
L27.4676 398.558
L27.9828 398.462
L28.0671 398.341
L28.2424 398.236
L28.3284 398.01
L28.5032 397.919
L28.5896 397.679
L28.7618 397.589
L28.8486 397.44
L29.108 397.361
L29.1958 397.268
L29.7171 397.165
L29.8053 397.097
L29.9777 397.021
L30.0648 396.88
L30.2389 396.821
L30.3264 396.696
L30.5051 396.625
L30.5919 396.478
L30.7647 396.412
L30.8525 396.319
L31.2936 396.403
L31.3805 396.463
L32.7111 396.557
L32.8007 396.621
L32.9796 396.693
L33.0675 396.834
L33.2469 396.918
L33.3362 397.061
L33.6902 397.165
L33.6902 397.179
L33.7801 397.175
L34.3154 397.074
L34.4044 397.034
L34.6753 396.949
L34.7671 396.828
L34.9414 396.763
L35.0309 396.662
L35.3031 396.569
L35.3928 396.527
L36.6586 396.416
L36.7484 396.368
L37.197 396.266
L37.2875 396.208
L37.5607 396.126
L37.6516 396.059
L38.0152 395.977
L38.1052 395.905
L38.9342 395.795
L39.0246 395.765
L39.7501 395.654
L39.841 395.597
L40.849 395.487
L40.9442 395.46
L41.586 395.364
L41.6777 395.318
L42.0487 395.237
L42.1393 395.171
L42.7879 395.066
L42.881 395.028
L43.5259 394.922
L43.618 394.895
L46.6841 394.999
L46.7772 395.015
L48.3656 394.904
L48.4605 394.876
L49.0227 394.769
L49.1195 394.743
L49.9708 394.649
L50.0618 394.613
L52.1362 394.505
L52.2304 394.492
L54.6932 394.395
L54.7879 394.353
L55.5486 394.255
L55.6431 394.218
L56.2118 394.117
L56.3053 394.089
L56.7818 394
L56.8763 393.945
L57.2559 393.847
L57.3506 393.786
L57.8307 393.696
L57.9248 393.647
L58.5933 393.545
L58.6914 393.514
L59.2637 393.417
L59.3602 393.385
L60.0315 393.283
L60.1287 393.245
L60.7024 393.145
L60.7999 393.092
L61.3744 392.985
L61.4693 392.943
L62.0451 392.834
L62.1429 392.786
L62.6274 392.69
L62.7235 392.641
L63.2028 392.544
L63.2984 392.497
L63.7794 392.391
L63.8774 392.339
L64.3604 392.243
L64.4592 392.199
L65.0326 392.096
L65.1278 392.052
L65.707 391.956
L65.8026 391.92
L66.3803 391.83
L66.4779 391.786
L67.059 391.685
L67.1577 391.649
L67.6448 391.558
L67.7417 391.506
L68.3226 391.396
L68.4201 391.353
L68.9021 391.26
L68.998 391.206
L69.4836 391.102
L69.5824 391.047
L70.0699 390.939
L70.1671 390.887
L70.6502 390.782
L70.7471 390.726
L71.2332 390.625
L71.331 390.585
L71.9178 390.473
L72.0158 390.427
L72.5067 390.33
L72.6062 390.277
L73.0904 390.167
L73.1878 390.117
L73.6789 390.021
L73.7768 389.982
L74.3613 389.891
L74.4603 389.849
L75.0426 389.745
L75.1397 389.708
L75.7244 389.606
L75.8234 389.573
L76.5031 389.464
L76.6022 389.425
L77.191 389.321
L77.291 389.28
L77.9758 389.176
L78.0745 389.144
L79.0532 389.04
L79.1505 389.022
L80.1379 388.924
L80.2347 388.892
L80.8209 388.794
L80.9191 388.762
L82.1956 388.654
L82.2985 388.645
L87.8197 388.746
L87.9198 388.772
L89.0175 388.882
L89.1169 388.902
L90.4048 389.008
L90.5054 389.024
L93.1812 389.135
L93.2815 389.138
L96.0713 389.245
L96.1711 389.256
L98.3691 389.361
L98.4693 389.379
L100.369 389.49
L100.47 389.505
L101.97 389.614
L102.07 389.629
L103.47 389.735
L103.571 389.756
L104.98 389.864
L105.082 389.876
L106.788 389.98
L106.889 389.996
L108.194 390.106
L108.292 390.129
L109.395 390.236
L109.494 390.259
L110.51 390.362
L110.608 390.382
L111.812 390.492
L111.909 390.508
L115.85 390.617
L115.951 390.623
L118.177 390.729
L118.28 390.748
L119.594 390.856
L119.697 390.873
L120.915 390.978
L121.018 390.998
L122.331 391.105
L122.436 391.122
L124.365 391.23
L124.466 391.237
L126.909 391.344
L127.008 391.357
L128.942 391.465
L129.043 391.475
L131.393 391.586
L131.498 391.597
L135.364 391.707
L135.468 391.713
L142.846 391.823
L142.951 391.832
L145.006 391.942
L145.109 391.952
L146.957 392.062
L147.06 392.077
L148.804 392.182
L148.906 392.197
L150.553 392.302
L150.654 392.315
L152.931 392.424
L153.034 392.433
L155.406 392.54
L155.509 392.553
L157.675 392.664
L157.777 392.67
L162.838 392.781
L162.941 392.786
L168.636 392.896
L168.739 392.9
L171.131 393.01
L171.234 393.024
L173.005 393.129
L173.109 393.142
L174.776 393.251
L174.879 393.267
L176.44 393.373
L176.545 393.387
L179.233 393.496
L179.333 393.5
L182.669 393.608
L182.775 393.616
L185.5 393.728
L185.605 393.734
L188.732 393.845
L188.836 393.849
L193.962 393.96
L194.067 393.961
L216.461 393.852
L216.569 393.845
L219.103 393.735
L219.207 393.726
L221.519 393.616
L221.626 393.606
L224.259 393.495
L224.365 393.489
L228.793 393.38
L228.897 393.374
L231.653 393.268
L231.756 393.256
L233.982 393.149
L234.088 393.139
L236.742 393.028
L236.848 393.017
L239.294 392.908
L239.4 392.899
L241.419 392.792
L241.526 392.779
L243.215 392.674
L243.322 392.66
L245.024 392.552
L245.133 392.537
L246.839 392.429
L246.944 392.415
L248.746 392.305
L248.852 392.291
L250.777 392.185
L250.88 392.173
L253.012 392.065
L253.12 392.054
L255.026 391.943
L255.134 391.929
L256.731 391.824
L256.839 391.807
L258.431 391.698
L258.536 391.682
L260.234 391.572
L260.34 391.558
L262.05 391.451
L262.157 391.437
L263.977 391.33
L264.083 391.316
L266.001 391.209
L266.107 391.197
L268.141 391.091
L268.245 391.08
L270.388 390.969
L270.496 390.958
L272.853 390.847
L272.96 390.837
L275.637 390.729
L275.745 390.719
L278.212 390.612
L278.316 390.603
L281.41 390.493
L281.516 390.487
L284.843 390.376
L284.949 390.371
L289.352 390.261
L289.456 390.254
L294.174 390.143
L294.285 390.141
L299.338 390.03
L299.441 390.026
L309.794 389.916
L309.901 389.913
L315.391 389.802
L315.499 389.796
L319.169 389.688
L319.275 389.681
L323.164 389.572
L323.273 389.566
L328.032 389.456
L328.139 389.452
L334.197 389.343
L334.306 389.338
L341.785 389.228
L341.893 389.225
L349.062 389.114
L349.17 389.111
L354.267 389.003
L354.377 388.996
L357.954 388.885
L358.061 388.878
L361.441 388.768
L361.552 388.762
L365.913 388.653
L366.018 388.648
L370.574 388.539
L370.683 388.532
L374.058 388.424
L374.164 388.417
L377.761 388.306
L377.871 388.299
L381.477 388.19
L381.585 388.182
L384.531 388.072
L384.64 388.063
L387.917 387.956
L388.025 387.948
L391.297 387.837
L391.405 387.83
L395.343 387.722
L395.45 387.716
L399.273 387.606
L399.381 387.599
L402.773 387.491
L402.882 387.483
L406.387 387.374
L406.387 387.37
L409.792 387.261
L409.901 387.254
L413.519 387.143
L413.628 387.137
L417.13 387.028
L417.24 387.02
L420.751 386.912
L420.859 386.906
L425.471 386.797
L425.471 386.795
L430.862 386.685
L430.862 386.683
L435.375 386.574
L435.484 386.568
L438.786 386.457
L438.786 386.454
L442.416 386.346
L442.526 386.339
L447.027 386.229
L447.136 386.224
L452.428 386.113
L452.537 386.109
L457.499 385.999
L457.499 385.997
L464.892 385.886
L464.892 385.884
L472.851 385.774
L472.961 385.77
L480.257 385.659
L480.367 385.656
L503.838 385.545
L503.946 385.544
L522.816 385.433
L522.926 385.432
L540.163 385.321
L540.163 385.32
L544.841 385.253
L544.841 385.252" style="fill:none;stroke:#ff0000;stroke-width:0.5;"/>
   </g>
   <g id="matplotlib.axis_1">
    <g id="xtick_1">
     <g id="line2d_2">
      <defs>
       <path d="
M0 0
L0 -4" id="m51944e5cf3"/>
      </defs>
      <g>
       <use style="stroke:#000000;stroke-linecap:butt;stroke-width:0.5;" x="20.1203125" xlink:href="#m51944e5cf3" y="15.0092307692"/>
      </g>
     </g>
    </g>
    <g id="xtick_2">
     <g id="line2d_3">
      <defs>
       <path d="
M0 0
L0 -4" id="m51944e5cf3"/>
      </defs>
      <g>
       <use style="stroke:#000000;stroke-linecap:butt;stroke-width:0.5;" x="125.070506136" xlink:href="#m51944e5cf3" y="15.0092307692"/>
      </g>
     </g>
     <g id="text_1">
      <!-- 2e7 -->
      <defs>
       <path d="
M19.1875 8.29688
L53.6094 8.29688
L53.6094 0
L7.32812 0
L7.32812 8.29688
Q12.9375 14.1094 22.625 23.8906
Q32.3281 33.6875 34.8125 36.5312
Q39.5469 41.8438 41.4219 45.5312
Q43.3125 49.2188 43.3125 52.7812
Q43.3125 58.5938 39.2344 62.25
Q35.1562 65.9219 28.6094 65.9219
Q23.9688 65.9219 18.8125 64.3125
Q13.6719 62.7031 7.8125 59.4219
L7.8125 69.3906
Q13.7656 71.7812 18.9375 73
Q24.125 74.2188 28.4219 74.2188
Q39.75 74.2188 46.4844 68.5469
Q53.2188 62.8906 53.2188 53.4219
Q53.2188 48.9219 51.5312 44.8906
Q49.8594 40.875 45.4062 35.4062
Q44.1875 33.9844 37.6406 27.2188
Q31.1094 20.4531 19.1875 8.29688" id="BitstreamVeraSans-Roman-32"/>
       <path d="
M56.2031 29.5938
L56.2031 25.2031
L14.8906 25.2031
Q15.4844 15.9219 20.4844 11.0625
Q25.4844 6.20312 34.4219 6.20312
Q39.5938 6.20312 44.4531 7.46875
Q49.3125 8.73438 54.1094 11.2812
L54.1094 2.78125
Q49.2656 0.734375 44.1875 -0.34375
Q39.1094 -1.42188 33.8906 -1.42188
Q20.7969 -1.42188 13.1562 6.1875
Q5.51562 13.8125 5.51562 26.8125
Q5.51562 40.2344 12.7656 48.1094
Q20.0156 56 32.3281 56
Q43.3594 56 49.7812 48.8906
Q56.2031 41.7969 56.2031 29.5938
M47.2188 32.2344
Q47.125 39.5938 43.0938 43.9844
Q39.0625 48.3906 32.4219 48.3906
Q24.9062 48.3906 20.3906 44.1406
Q15.875 39.8906 15.1875 32.1719
z
" id="BitstreamVeraSans-Roman-65"/>
       <path d="
M8.20312 72.9062
L55.0781 72.9062
L55.0781 68.7031
L28.6094 0
L18.3125 0
L43.2188 64.5938
L8.20312 64.5938
z
" id="BitstreamVeraSans-Roman-37"/>
      </defs>
      <g transform="translate(116.425193636 26.4311057692)scale(0.1 -0.1)">
       <use xlink:href="#BitstreamVeraSans-Roman-32"/>
       <use x="63.623046875" xlink:href="#BitstreamVeraSans-Roman-65"/>
       <use x="125.146484375" xlink:href="#BitstreamVeraSans-Roman-37"/>
      </g>
     </g>
    </g>
    <g id="xtick_3">
     <g id="line2d_4">
      <defs>
       <path d="
M0 0
L0 -4" id="m51944e5cf3"/>
      </defs>
      <g>
       <use style="stroke:#000000;stroke-linecap:butt;stroke-width:0.5;" x="230.020699773" xlink:href="#m51944e5cf3" y="15.0092307692"/>
      </g>
     </g>
     <g id="text_2">
      <!-- 4e7 -->
      <defs>
       <path d="
M37.7969 64.3125
L12.8906 25.3906
L37.7969 25.3906
z

M35.2031 72.9062
L47.6094 72.9062
L47.6094 25.3906
L58.0156 25.3906
L58.0156 17.1875
L47.6094 17.1875
L47.6094 0
L37.7969 0
L37.7969 17.1875
L4.89062 17.1875
L4.89062 26.7031
z
" id="BitstreamVeraSans-Roman-34"/>
      </defs>
      <g transform="translate(221.253512273 26.2998557692)scale(0.1 -0.1)">
       <use xlink:href="#BitstreamVeraSans-Roman-34"/>
       <use x="63.623046875" xlink:href="#BitstreamVeraSans-Roman-65"/>
       <use x="125.146484375" xlink:href="#BitstreamVeraSans-Roman-37"/>
      </g>
     </g>
    </g>
    <g id="xtick_4">
     <g id="line2d_5">
      <defs>
       <path d="
M0 0
L0 -4" id="m51944e5cf3"/>
      </defs>
      <g>
       <use style="stroke:#000000;stroke-linecap:butt;stroke-width:0.5;" x="334.970893409" xlink:href="#m51944e5cf3" y="15.0092307692"/>
      </g>
     </g>
     <g id="text_3">
      <!-- 6e7 -->
      <defs>
       <path d="
M33.0156 40.375
Q26.375 40.375 22.4844 35.8281
Q18.6094 31.2969 18.6094 23.3906
Q18.6094 15.5312 22.4844 10.9531
Q26.375 6.39062 33.0156 6.39062
Q39.6562 6.39062 43.5312 10.9531
Q47.4062 15.5312 47.4062 23.3906
Q47.4062 31.2969 43.5312 35.8281
Q39.6562 40.375 33.0156 40.375
M52.5938 71.2969
L52.5938 62.3125
Q48.875 64.0625 45.0938 64.9844
Q41.3125 65.9219 37.5938 65.9219
Q27.8281 65.9219 22.6719 59.3281
Q17.5312 52.7344 16.7969 39.4062
Q19.6719 43.6562 24.0156 45.9219
Q28.375 48.1875 33.5938 48.1875
Q44.5781 48.1875 50.9531 41.5156
Q57.3281 34.8594 57.3281 23.3906
Q57.3281 12.1562 50.6875 5.35938
Q44.0469 -1.42188 33.0156 -1.42188
Q20.3594 -1.42188 13.6719 8.26562
Q6.98438 17.9688 6.98438 36.375
Q6.98438 53.6562 15.1875 63.9375
Q23.3906 74.2188 37.2031 74.2188
Q40.9219 74.2188 44.7031 73.4844
Q48.4844 72.75 52.5938 71.2969" id="BitstreamVeraSans-Roman-36"/>
      </defs>
      <g transform="translate(326.308393409 26.4311057692)scale(0.1 -0.1)">
       <use xlink:href="#BitstreamVeraSans-Roman-36"/>
       <use x="63.623046875" xlink:href="#BitstreamVeraSans-Roman-65"/>
       <use x="125.146484375" xlink:href="#BitstreamVeraSans-Roman-37"/>
      </g>
     </g>
    </g>
    <g id="xtick_5">
     <g id="line2d_6">
      <defs>
       <path d="
M0 0
L0 -4" id="m51944e5cf3"/>
      </defs>
      <g>
       <use style="stroke:#000000;stroke-linecap:butt;stroke-width:0.5;" x="439.921087046" xlink:href="#m51944e5cf3" y="15.0092307692"/>
      </g>
     </g>
     <g id="text_4">
      <!-- 8e7 -->
      <defs>
       <path d="
M31.7812 34.625
Q24.75 34.625 20.7188 30.8594
Q16.7031 27.0938 16.7031 20.5156
Q16.7031 13.9219 20.7188 10.1562
Q24.75 6.39062 31.7812 6.39062
Q38.8125 6.39062 42.8594 10.1719
Q46.9219 13.9688 46.9219 20.5156
Q46.9219 27.0938 42.8906 30.8594
Q38.875 34.625 31.7812 34.625
M21.9219 38.8125
Q15.5781 40.375 12.0312 44.7188
Q8.5 49.0781 8.5 55.3281
Q8.5 64.0625 14.7188 69.1406
Q20.9531 74.2188 31.7812 74.2188
Q42.6719 74.2188 48.875 69.1406
Q55.0781 64.0625 55.0781 55.3281
Q55.0781 49.0781 51.5312 44.7188
Q48 40.375 41.7031 38.8125
Q48.8281 37.1562 52.7969 32.3125
Q56.7812 27.4844 56.7812 20.5156
Q56.7812 9.90625 50.3125 4.23438
Q43.8438 -1.42188 31.7812 -1.42188
Q19.7344 -1.42188 13.25 4.23438
Q6.78125 9.90625 6.78125 20.5156
Q6.78125 27.4844 10.7812 32.3125
Q14.7969 37.1562 21.9219 38.8125
M18.3125 54.3906
Q18.3125 48.7344 21.8438 45.5625
Q25.3906 42.3906 31.7812 42.3906
Q38.1406 42.3906 41.7188 45.5625
Q45.3125 48.7344 45.3125 54.3906
Q45.3125 60.0625 41.7188 63.2344
Q38.1406 66.4062 31.7812 66.4062
Q25.3906 66.4062 21.8438 63.2344
Q18.3125 60.0625 18.3125 54.3906" id="BitstreamVeraSans-Roman-38"/>
      </defs>
      <g transform="translate(431.248430796 26.4311057692)scale(0.1 -0.1)">
       <use xlink:href="#BitstreamVeraSans-Roman-38"/>
       <use x="63.623046875" xlink:href="#BitstreamVeraSans-Roman-65"/>
       <use x="125.146484375" xlink:href="#BitstreamVeraSans-Roman-37"/>
      </g>
     </g>
    </g>
    <g id="xtick_6">
     <g id="line2d_7">
      <defs>
       <path d="
M0 0
L0 -4" id="m51944e5cf3"/>
      </defs>
      <g>
       <use style="stroke:#000000;stroke-linecap:butt;stroke-width:0.5;" x="544.871280682" xlink:href="#m51944e5cf3" y="15.0092307692"/>
      </g>
     </g>
     <g id="text_5">
      <!-- 1e8 -->
      <defs>
       <path d="
M12.4062 8.29688
L28.5156 8.29688
L28.5156 63.9219
L10.9844 60.4062
L10.9844 69.3906
L28.4219 72.9062
L38.2812 72.9062
L38.2812 8.29688
L54.3906 8.29688
L54.3906 0
L12.4062 0
z
" id="BitstreamVeraSans-Roman-31"/>
      </defs>
      <g transform="translate(536.323624432 26.4311057692)scale(0.1 -0.1)">
       <use xlink:href="#BitstreamVeraSans-Roman-31"/>
       <use x="63.623046875" xlink:href="#BitstreamVeraSans-Roman-65"/>
       <use x="125.146484375" xlink:href="#BitstreamVeraSans-Roman-38"/>
      </g>
     </g>
    </g>
    <g id="xtick_7">
     <g id="line2d_8">
      <defs>
       <path d="
M0 0
L0 -2" id="m18643c667c"/>
      </defs>
      <g>
       <use style="stroke:#000000;stroke-linecap:butt;stroke-width:0.5;" x="46.3578609091" xlink:href="#m18643c667c" y="15.0092307692"/>
      </g>
     </g>
    </g>
    <g id="xtick_8">
     <g id="line2d_9">
      <defs>
       <path d="
M0 0
L0 -2" id="m18643c667c"/>
      </defs>
      <g>
       <use style="stroke:#000000;stroke-linecap:butt;stroke-width:0.5;" x="72.5954093182" xlink:href="#m18643c667c" y="15.0092307692"/>
      </g>
     </g>
    </g>
    <g id="xtick_9">
     <g id="line2d_10">
      <defs>
       <path d="
M0 0
L0 -2" id="m18643c667c"/>
      </defs>
      <g>
       <use style="stroke:#000000;stroke-linecap:butt;stroke-width:0.5;" x="98.8329577274" xlink:href="#m18643c667c" y="15.0092307692"/>
      </g>
     </g>
    </g>
    <g id="xtick_10">
     <g id="line2d_11">
      <defs>
       <path d="
M0 0
L0 -2" id="m18643c667c"/>
      </defs>
      <g>
       <use style="stroke:#000000;stroke-linecap:butt;stroke-width:0.5;" x="151.308054546" xlink:href="#m18643c667c" y="15.0092307692"/>
      </g>
     </g>
    </g>
    <g id="xtick_11">
     <g id="line2d_12">
      <defs>
       <path d="
M0 0
L0 -2" id="m18643c667c"/>
      </defs>
      <g>
       <use style="stroke:#000000;stroke-linecap:butt;stroke-width:0.5;" x="177.545602955" xlink:href="#m18643c667c" y="15.0092307692"/>
      </g>
     </g>
    </g>
    <g id="xtick_12">
     <g id="line2d_13">
      <defs>
       <path d="
M0 0
L0 -2" id="m18643c667c"/>
      </defs>
      <g>
       <use style="stroke:#000000;stroke-linecap:butt;stroke-width:0.5;" x="203.783151364" xlink:href="#m18643c667c" y="15.0092307692"/>
      </g>
     </g>
    </g>
    <g id="xtick_13">
     <g id="line2d_14">
      <defs>
       <path d="
M0 0
L0 -2" id="m18643c667c"/>
      </defs>
      <g>
       <use style="stroke:#000000;stroke-linecap:butt;stroke-width:0.5;" x="256.258248182" xlink:href="#m18643c667c" y="15.0092307692"/>
      </g>
     </g>
    </g>
    <g id="xtick_14">
     <g id="line2d_15">
      <defs>
       <path d="
M0 0
L0 -2" id="m18643c667c"/>
      </defs>
      <g>
       <use style="stroke:#000000;stroke-linecap:butt;stroke-width:0.5;" x="282.495796591" xlink:href="#m18643c667c" y="15.0092307692"/>
      </g>
     </g>
    </g>
    <g id="xtick_15">
     <g id="line2d_16">
      <defs>
       <path d="
M0 0
L0 -2" id="m18643c667c"/>
      </defs>
      <g>
       <use style="stroke:#000000;stroke-linecap:butt;stroke-width:0.5;" x="308.733345" xlink:href="#m18643c667c" y="15.0092307692"/>
      </g>
     </g>
    </g>
    <g id="xtick_16">
     <g id="line2d_17">
      <defs>
       <path d="
M0 0
L0 -2" id="m18643c667c"/>
      </defs>
      <g>
       <use style="stroke:#000000;stroke-linecap:butt;stroke-width:0.5;" x="361.208441819" xlink:href="#m18643c667c" y="15.0092307692"/>
      </g>
     </g>
    </g>
    <g id="xtick_17">
     <g id="line2d_18">
      <defs>
       <path d="
M0 0
L0 -2" id="m18643c667c"/>
      </defs>
      <g>
       <use style="stroke:#000000;stroke-linecap:butt;stroke-width:0.5;" x="387.445990228" xlink:href="#m18643c667c" y="15.0092307692"/>
      </g>
     </g>
    </g>
    <g id="xtick_18">
     <g id="line2d_19">
      <defs>
       <path d="
M0 0
L0 -2" id="m18643c667c"/>
      </defs>
      <g>
       <use style="stroke:#000000;stroke-linecap:butt;stroke-width:0.5;" x="413.683538637" xlink:href="#m18643c667c" y="15.0092307692"/>
      </g>
     </g>
    </g>
    <g id="xtick_19">
     <g id="line2d_20">
      <defs>
       <path d="
M0 0
L0 -2" id="m18643c667c"/>
      </defs>
      <g>
       <use style="stroke:#000000;stroke-linecap:butt;stroke-width:0.5;" x="466.158635455" xlink:href="#m18643c667c" y="15.0092307692"/>
      </g>
     </g>
    </g>
    <g id="xtick_20">
     <g id="line2d_21">
      <defs>
       <path d="
M0 0
L0 -2" id="m18643c667c"/>
      </defs>
      <g>
       <use style="stroke:#000000;stroke-linecap:butt;stroke-width:0.5;" x="492.396183864" xlink:href="#m18643c667c" y="15.0092307692"/>
      </g>
     </g>
    </g>
    <g id="xtick_21">
     <g id="line2d_22">
      <defs>
       <path d="
M0 0
L0 -2" id="m18643c667c"/>
      </defs>
      <g>
       <use style="stroke:#000000;stroke-linecap:butt;stroke-width:0.5;" x="518.633732273" xlink:href="#m18643c667c" y="15.0092307692"/>
      </g>
     </g>
    </g>
   </g>
   <g id="matplotlib.axis_2">
    <g id="ytick_1">
     <g id="line2d_23">
      <defs>
       <path d="
M0 0
L4 0" id="mf803068d76"/>
      </defs>
      <g>
       <use style="stroke:#000000;stroke-linecap:butt;stroke-width:0.5;" x="20.1203125" xlink:href="#mf803068d76" y="399.496757094"/>
      </g>
     </g>
     <g id="text_6">
      <!-- -4 -->
      <defs>
       <path d="
M4.89062 31.3906
L31.2031 31.3906
L31.2031 23.3906
L4.89062 23.3906
z
" id="BitstreamVeraSans-Roman-2d"/>
      </defs>
      <g transform="translate(7.2 403.142069594)scale(0.1 -0.1)">
       <use xlink:href="#BitstreamVeraSans-Roman-2d"/>
       <use x="36.083984375" xlink:href="#BitstreamVeraSans-Roman-34"/>
      </g>
     </g>
    </g>
    <g id="ytick_2">
     <g id="line2d_24">
      <defs>
       <path d="
M0 0
L4 0" id="mf803068d76"/>
      </defs>
      <g>
       <use style="stroke:#000000;stroke-linecap:butt;stroke-width:0.5;" x="20.1203125" xlink:href="#mf803068d76" y="303.374875513"/>
      </g>
     </g>
     <g id="text_7">
      <!-- -3 -->
      <defs>
       <path d="
M40.5781 39.3125
Q47.6562 37.7969 51.625 33
Q55.6094 28.2188 55.6094 21.1875
Q55.6094 10.4062 48.1875 4.48438
Q40.7656 -1.42188 27.0938 -1.42188
Q22.5156 -1.42188 17.6562 -0.515625
Q12.7969 0.390625 7.625 2.20312
L7.625 11.7188
Q11.7188 9.32812 16.5938 8.10938
Q21.4844 6.89062 26.8125 6.89062
Q36.0781 6.89062 40.9375 10.5469
Q45.7969 14.2031 45.7969 21.1875
Q45.7969 27.6406 41.2812 31.2656
Q36.7656 34.9062 28.7188 34.9062
L20.2188 34.9062
L20.2188 43.0156
L29.1094 43.0156
Q36.375 43.0156 40.2344 45.9219
Q44.0938 48.8281 44.0938 54.2969
Q44.0938 59.9062 40.1094 62.9062
Q36.1406 65.9219 28.7188 65.9219
Q24.6562 65.9219 20.0156 65.0312
Q15.375 64.1562 9.8125 62.3125
L9.8125 71.0938
Q15.4375 72.6562 20.3438 73.4375
Q25.25 74.2188 29.5938 74.2188
Q40.8281 74.2188 47.3594 69.1094
Q53.9062 64.0156 53.9062 55.3281
Q53.9062 49.2656 50.4375 45.0938
Q46.9688 40.9219 40.5781 39.3125" id="BitstreamVeraSans-Roman-33"/>
      </defs>
      <g transform="translate(7.440625 307.014719263)scale(0.1 -0.1)">
       <use xlink:href="#BitstreamVeraSans-Roman-2d"/>
       <use x="36.083984375" xlink:href="#BitstreamVeraSans-Roman-33"/>
      </g>
     </g>
    </g>
    <g id="ytick_3">
     <g id="line2d_25">
      <defs>
       <path d="
M0 0
L4 0" id="mf803068d76"/>
      </defs>
      <g>
       <use style="stroke:#000000;stroke-linecap:butt;stroke-width:0.5;" x="20.1203125" xlink:href="#mf803068d76" y="207.252993932"/>
      </g>
     </g>
     <g id="text_8">
      <!-- -2 -->
      <g transform="translate(7.640625 210.963931432)scale(0.1 -0.1)">
       <use xlink:href="#BitstreamVeraSans-Roman-2d"/>
       <use x="36.083984375" xlink:href="#BitstreamVeraSans-Roman-32"/>
      </g>
     </g>
    </g>
    <g id="ytick_4">
     <g id="line2d_26">
      <defs>
       <path d="
M0 0
L4 0" id="mf803068d76"/>
      </defs>
      <g>
       <use style="stroke:#000000;stroke-linecap:butt;stroke-width:0.5;" x="20.1203125" xlink:href="#mf803068d76" y="111.13111235"/>
      </g>
     </g>
     <g id="text_9">
      <!-- -1 -->
      <g transform="translate(7.5625 114.77642485)scale(0.1 -0.1)">
       <use xlink:href="#BitstreamVeraSans-Roman-2d"/>
       <use x="36.083984375" xlink:href="#BitstreamVeraSans-Roman-31"/>
      </g>
     </g>
    </g>
    <g id="ytick_5">
     <g id="line2d_27">
      <defs>
       <path d="
M0 0
L4 0" id="mf803068d76"/>
      </defs>
      <g>
       <use style="stroke:#000000;stroke-linecap:butt;stroke-width:0.5;" x="20.1203125" xlink:href="#mf803068d76" y="15.0092307692"/>
      </g>
     </g>
    </g>
    <g id="ytick_6">
     <g id="line2d_28">
      <defs>
       <path d="
M0 0
L2 0" id="m63d2c23063"/>
      </defs>
      <g>
       <use style="stroke:#000000;stroke-linecap:butt;stroke-width:0.5;" x="20.1203125" xlink:href="#m63d2c23063" y="380.272380778"/>
      </g>
     </g>
    </g>
    <g id="ytick_7">
     <g id="line2d_29">
      <defs>
       <path d="
M0 0
L2 0" id="m63d2c23063"/>
      </defs>
      <g>
       <use style="stroke:#000000;stroke-linecap:butt;stroke-width:0.5;" x="20.1203125" xlink:href="#m63d2c23063" y="361.048004461"/>
      </g>
     </g>
    </g>
    <g id="ytick_8">
     <g id="line2d_30">
      <defs>
       <path d="
M0 0
L2 0" id="m63d2c23063"/>
      </defs>
      <g>
       <use style="stroke:#000000;stroke-linecap:butt;stroke-width:0.5;" x="20.1203125" xlink:href="#m63d2c23063" y="341.823628145"/>
      </g>
     </g>
    </g>
    <g id="ytick_9">
     <g id="line2d_31">
      <defs>
       <path d="
M0 0
L2 0" id="m63d2c23063"/>
      </defs>
      <g>
       <use style="stroke:#000000;stroke-linecap:butt;stroke-width:0.5;" x="20.1203125" xlink:href="#m63d2c23063" y="322.599251829"/>
      </g>
     </g>
    </g>
    <g id="ytick_10">
     <g id="line2d_32">
      <defs>
       <path d="
M0 0
L2 0" id="m63d2c23063"/>
      </defs>
      <g>
       <use style="stroke:#000000;stroke-linecap:butt;stroke-width:0.5;" x="20.1203125" xlink:href="#m63d2c23063" y="284.150499196"/>
      </g>
     </g>
    </g>
    <g id="ytick_11">
     <g id="line2d_33">
      <defs>
       <path d="
M0 0
L2 0" id="m63d2c23063"/>
      </defs>
      <g>
       <use style="stroke:#000000;stroke-linecap:butt;stroke-width:0.5;" x="20.1203125" xlink:href="#m63d2c23063" y="264.92612288"/>
      </g>
     </g>
    </g>
    <g id="ytick_12">
     <g id="line2d_34">
      <defs>
       <path d="
M0 0
L2 0" id="m63d2c23063"/>
      </defs>
      <g>
       <use style="stroke:#000000;stroke-linecap:butt;stroke-width:0.5;" x="20.1203125" xlink:href="#m63d2c23063" y="245.701746564"/>
      </g>
     </g>
    </g>
    <g id="ytick_13">
     <g id="line2d_35">
      <defs>
       <path d="
M0 0
L2 0" id="m63d2c23063"/>
      </defs>
      <g>
       <use style="stroke:#000000;stroke-linecap:butt;stroke-width:0.5;" x="20.1203125" xlink:href="#m63d2c23063" y="226.477370248"/>
      </g>
     </g>
    </g>
    <g id="ytick_14">
     <g id="line2d_36">
      <defs>
       <path d="
M0 0
L2 0" id="m63d2c23063"/>
      </defs>
      <g>
       <use style="stroke:#000000;stroke-linecap:butt;stroke-width:0.5;" x="20.1203125" xlink:href="#m63d2c23063" y="207.252993932"/>
      </g>
     </g>
    </g>
    <g id="ytick_15">
     <g id="line2d_37">
      <defs>
       <path d="
M0 0
L2 0" id="m63d2c23063"/>
      </defs>
      <g>
       <use style="stroke:#000000;stroke-linecap:butt;stroke-width:0.5;" x="20.1203125" xlink:href="#m63d2c23063" y="188.028617615"/>
      </g>
     </g>
    </g>
    <g id="ytick_16">
     <g id="line2d_38">
      <defs>
       <path d="
M0 0
L2 0" id="m63d2c23063"/>
      </defs>
      <g>
       <use style="stroke:#000000;stroke-linecap:butt;stroke-width:0.5;" x="20.1203125" xlink:href="#m63d2c23063" y="168.804241299"/>
      </g>
     </g>
    </g>
    <g id="ytick_17">
     <g id="line2d_39">
      <defs>
       <path d="
M0 0
L2 0" id="m63d2c23063"/>
      </defs>
      <g>
       <use style="stroke:#000000;stroke-linecap:butt;stroke-width:0.5;" x="20.1203125" xlink:href="#m63d2c23063" y="149.579864983"/>
      </g>
     </g>
    </g>
    <g id="ytick_18">
     <g id="line2d_40">
      <defs>
       <path d="
M0 0
L2 0" id="m63d2c23063"/>
      </defs>
      <g>
       <use style="stroke:#000000;stroke-linecap:butt;stroke-width:0.5;" x="20.1203125" xlink:href="#m63d2c23063" y="130.355488667"/>
      </g>
     </g>
    </g>
    <g id="ytick_19">
     <g id="line2d_41">
      <defs>
       <path d="
M0 0
L2 0" id="m63d2c23063"/>
      </defs>
      <g>
       <use style="stroke:#000000;stroke-linecap:butt;stroke-width:0.5;" x="20.1203125" xlink:href="#m63d2c23063" y="111.13111235"/>
      </g>
     </g>
    </g>
    <g id="ytick_20">
     <g id="line2d_42">
      <defs>
       <path d="
M0 0
L2 0" id="m63d2c23063"/>
      </defs>
      <g>
       <use style="stroke:#000000;stroke-linecap:butt;stroke-width:0.5;" x="20.1203125" xlink:href="#m63d2c23063" y="91.9067360342"/>
      </g>
     </g>
    </g>
    <g id="ytick_21">
     <g id="line2d_43">
      <defs>
       <path d="
M0 0
L2 0" id="m63d2c23063"/>
      </defs>
      <g>
       <use style="stroke:#000000;stroke-linecap:butt;stroke-width:0.5;" x="20.1203125" xlink:href="#m63d2c23063" y="72.6823597179"/>
      </g>
     </g>
    </g>
    <g id="ytick_22">
     <g id="line2d_44">
      <defs>
       <path d="
M0 0
L2 0" id="m63d2c23063"/>
      </defs>
      <g>
       <use style="stroke:#000000;stroke-linecap:butt;stroke-width:0.5;" x="20.1203125" xlink:href="#m63d2c23063" y="53.4579834017"/>
      </g>
     </g>
    </g>
    <g id="ytick_23">
     <g id="line2d_45">
      <defs>
       <path d="
M0 0
L2 0" id="m63d2c23063"/>
      </defs>
      <g>
       <use style="stroke:#000000;stroke-linecap:butt;stroke-width:0.5;" x="20.1203125" xlink:href="#m63d2c23063" y="34.2336070855"/>
      </g>
     </g>
    </g>
   </g>
   <g id="patch_3">
    <path d="
M9.6259 15.0092
L555.336 15.0092" style="fill:none;stroke:#000000;stroke-width:0.8;"/>
   </g>
   <g id="patch_4">
    <path d="
M20.1203 413.28
L20.1203 7.2" style="fill:none;stroke:#000000;stroke-width:0.8;"/>
   </g>
  </g>
 </g>
 <defs>
  <clipPath id="pbf9a93ed35">
   <rect height="406.08" width="545.709992448" x="9.62590006332" y="7.2"/>
  </clipPath>
 </defs>
</svg>
