<?xml version="1.0" encoding="utf-8" standalone="no"?>
<!DOCTYPE svg PUBLIC "-//W3C//DTD SVG 1.1//EN"
  "http://www.w3.org/Graphics/SVG/1.1/DTD/svg11.dtd">
<!-- Created with matplotlib (http://matplotlib.sourceforge.net/) -->
<svg height="420pt" version="1.1" viewBox="0 0 562 420" width="562pt" xmlns="http://www.w3.org/2000/svg" xmlns:xlink="http://www.w3.org/1999/xlink">
 <defs>
  <style type="text/css">
*{stroke-linecap:square;stroke-linejoin:round;}
  </style>
 </defs>
 <g id="figure_1">
  <g id="patch_1">
   <path d="
M2.22045e-16 420.48
L562.536 420.48
L562.536 0
L2.22045e-16 0
z
" style="fill:#ffffff;"/>
  </g>
  <g id="axes_1">
   <g id="patch_2">
    <path d="
M9.6259 413.28
L555.336 413.28
L555.336 7.2
L9.6259 7.2
z
" style="fill:#ffffff;"/>
   </g>
   <g id="line2d_1">
    <path clip-path="url(#pbf9a93ed35)" d="
M20.1203 15.0092
L20.1692 15.0092
L20.2274 348.981
L20.2895 348.981
L20.3526 358.485
L20.4184 358.485
L20.4863 367.988
L20.5532 367.988
L20.6221 375.196
L20.6925 375.196
L20.7631 379.652
L20.8345 379.652
L20.906 382.38
L20.9786 382.38
L21.0522 384.669
L21.125 384.669
L21.199 386.532
L21.2731 386.532
L21.3476 387.627
L21.4224 387.627
L21.4986 387.796
L21.5731 387.796
L21.6497 388.165
L21.7267 388.165
L21.802 387.846
L22.0332 387.914
L22.1117 388.542
L22.1885 388.542
L22.2685 388.895
L22.346 388.895
L22.4239 389.312
L22.5031 389.312
L22.5828 390.394
L22.6604 390.394
L22.7397 391.114
L22.898 391.213
L22.9789 391.342
L23.0594 391.342
L23.1397 391.61
L23.2185 391.61
L23.2993 392.089
L23.379 392.089
L23.461 392.827
L23.5436 392.827
L23.624 393.636
L23.7057 393.636
L23.7859 394.678
L23.8667 394.678
L23.9487 395.833
L24.0318 395.833
L24.1137 396.72
L24.1951 396.72
L24.2767 397.553
L24.3584 397.553
L24.4403 398.32
L24.5227 398.32
L24.6066 399.27
L24.6872 399.27
L24.7703 400.029
L24.8538 400.029
L24.9366 400.623
L25.0196 400.623
L25.1037 401.185
L25.1868 401.185
L25.2715 401.719
L25.3557 401.719
L25.4377 402.082
L25.521 402.082
L25.6051 402.389
L25.7754 402.459
L25.8588 402.679
L25.9413 402.679
L26.026 402.885
L26.1948 402.981
L26.2781 403.179
L26.4465 403.283
L26.5309 403.52
L26.6181 403.52
L26.7029 403.874
L26.7861 403.874
L26.8714 404.27
L26.9571 404.27
L27.0422 404.665
L27.1285 404.665
L27.2141 404.944
L27.2996 404.944
L27.3847 405.177
L27.5565 405.253
L27.6413 405.382
L29.1958 405.271
L29.284 405.193
L29.6308 405.106
L29.7171 404.998
L29.8913 404.949
L29.9777 404.818
L30.2389 404.725
L30.3264 404.624
L30.5051 404.567
L30.5919 404.431
L30.7647 404.36
L30.8525 404.229
L31.5567 404.139
L31.6457 404.084
L31.9127 404.007
L32.0002 403.869
L32.1776 403.815
L32.2662 403.694
L32.5336 403.618
L32.6228 403.485
L32.8904 403.381
L32.9796 403.333
L33.3362 403.259
L33.4233 403.157
L33.6034 403.073
L33.6902 402.908
L33.87 402.801
L33.9593 402.563
L34.0478 402.563
L34.1381 402.298
L34.2276 402.298
L34.3154 402.032
L34.4044 402.032
L34.4968 401.738
L34.5865 401.738
L34.6753 401.403
L34.7671 401.403
L34.8556 401.015
L34.9414 401.015
L35.0309 400.667
L35.1211 400.667
L35.2124 400.324
L35.3031 400.324
L35.3928 400.048
L35.4835 400.048
L35.5741 399.803
L35.6652 399.803
L35.7553 399.573
L35.9336 399.469
L36.0256 399.247
L36.2091 399.141
L36.2969 398.914
L36.3873 398.914
L36.4771 398.666
L36.5668 398.666
L36.6586 398.412
L36.7484 398.412
L36.8383 398.16
L36.9256 398.16
L37.0161 397.896
L37.105 397.896
L37.197 397.633
L37.2875 397.633
L37.3779 397.355
L37.47 397.355
L37.5607 397.07
L37.6516 397.07
L37.7444 396.801
L37.8348 396.801
L37.9257 396.549
L38.0152 396.549
L38.1052 396.305
L38.1941 396.305
L38.2868 396.08
L38.4734 395.974
L38.5649 395.786
L38.7517 395.71
L38.842 395.551
L39.0246 395.456
L39.1131 395.261
L39.2985 395.162
L39.3888 394.964
L39.5684 394.864
L39.6602 394.653
L39.7501 394.653
L39.841 394.43
L40.0275 394.324
L40.1186 394.143
L40.2998 394.069
L40.3925 393.904
L40.5752 393.823
L40.668 393.653
L40.849 393.562
L40.9442 393.385
L41.1298 393.307
L41.2219 393.16
L41.4024 393.088
L41.4947 392.941
L41.6777 392.871
L41.7718 392.72
L41.9566 392.644
L42.0487 392.487
L42.2309 392.409
L42.3241 392.259
L42.509 392.194
L42.6029 392.072
L42.7879 392.005
L42.881 391.868
L43.0677 391.794
L43.1601 391.658
L43.3443 391.596
L43.4343 391.49
L43.7094 391.386
L43.8037 391.279
L43.9913 391.222
L44.0826 391.114
L44.3598 391.016
L44.4536 390.938
L44.8249 390.847
L44.9174 390.796
L45.2918 390.712
L45.3843 390.639
L45.7557 390.53
L45.8445 390.455
L46.2166 390.364
L46.3077 390.314
L46.6841 390.219
L46.7772 390.172
L47.1513 390.084
L47.245 390.037
L47.8988 389.937
L47.9927 389.91
L48.4605 389.821
L48.5548 389.769
L48.9304 389.684
L49.0227 389.635
L49.78 389.525
L49.876 389.492
L51.9476 389.39
L52.0426 389.358
L53.6517 389.247
L53.7462 389.224
L54.6004 389.122
L54.6932 389.068
L55.0757 388.968
L55.1705 388.905
L55.6431 388.808
L55.739 388.746
L56.2118 388.636
L56.3053 388.592
L56.6847 388.508
L56.7818 388.45
L57.1586 388.355
L57.2559 388.279
L57.6383 388.191
L57.7334 388.14
L58.2125 388.039
L58.3064 387.999
L58.88 387.911
L58.9778 387.865
L59.5544 387.769
L59.6508 387.729
L60.2235 387.629
L60.3185 387.599
L60.897 387.489
L60.9939 387.441
L61.4693 387.352
L61.5651 387.304
L62.0451 387.205
L62.1429 387.151
L62.5288 387.066
L62.6274 387.007
L63.0119 386.916
L63.1073 386.852
L63.4926 386.76
L63.588 386.698
L64.0701 386.59
L64.1662 386.544
L64.7468 386.441
L64.8421 386.407
L65.5147 386.3
L65.6095 386.263
L66.3803 386.154
L66.4779 386.118
L67.059 386.015
L67.1577 385.974
L67.6448 385.872
L67.7417 385.812
L68.2262 385.708
L68.3226 385.657
L68.8044 385.549
L68.9021 385.493
L69.2881 385.406
L69.3863 385.346
L69.7784 385.244
L69.8756 385.175
L70.2637 385.081
L70.3616 385.017
L70.7471 384.925
L70.8441 384.859
L71.2332 384.77
L71.331 384.713
L71.7194 384.621
L71.8202 384.566
L72.2124 384.479
L72.3089 384.423
L72.7033 384.33
L72.7993 384.264
L73.1878 384.167
L73.2854 384.107
L73.6789 384.012
L73.7768 383.96
L74.2641 383.86
L74.3613 383.803
L74.7516 383.716
L74.8476 383.661
L75.3346 383.555
L75.433 383.5
L75.9209 383.392
L76.0174 383.336
L76.4048 383.252
L76.5031 383.19
L76.8989 383.098
L76.9971 383.035
L77.3878 382.941
L77.4846 382.886
L77.8766 382.803
L77.9758 382.747
L78.4622 382.647
L78.5645 382.598
L79.0532 382.505
L79.1505 382.466
L79.742 382.369
L79.8418 382.333
L80.3302 382.244
L80.4315 382.194
L80.9191 382.092
L81.018 382.043
L81.6067 381.937
L81.7052 381.899
L82.3946 381.801
L82.4928 381.775
L83.6768 381.665
L83.7756 381.655
L95.5729 381.765
L95.6698 381.776
L97.8671 381.886
L97.9666 381.907
L98.9703 382.013
L99.0696 382.029
L100.57 382.139
L100.669 382.163
L101.771 382.267
L101.871 382.282
L103.47 382.391
L103.571 382.41
L105.48 382.519
L105.581 382.529
L107.392 382.639
L107.492 382.658
L108.494 382.759
L108.596 382.781
L109.696 382.891
L109.798 382.912
L111.108 383.019
L111.209 383.033
L115.55 383.144
L115.652 383.146
L118.784 383.252
L118.887 383.268
L120.204 383.373
L120.305 383.393
L121.523 383.498
L121.625 383.518
L123.355 383.628
L123.456 383.635
L126.807 383.745
L126.909 383.751
L135.063 383.642
L135.164 383.636
L138.346 383.527
L138.447 383.518
L144.8 383.628
L144.903 383.638
L146.856 383.745
L146.957 383.757
L149.423 383.866
L149.526 383.873
L152.517 383.983
L152.623 383.992
L155.302 384.101
L155.406 384.111
L159.22 384.222
L159.325 384.224
L163.567 384.334
L163.67 384.34
L168.844 384.45
L168.951 384.457
L171.234 384.567
L171.343 384.58
L173.53 384.691
L173.634 384.703
L175.504 384.811
L175.606 384.823
L177.574 384.93
L177.676 384.942
L181.73 385.052
L181.835 385.058
L184.656 385.165
L184.762 385.176
L186.752 385.284
L186.856 385.296
L188.836 385.406
L188.941 385.418
L191.132 385.526
L191.238 385.536
L194.484 385.646
L194.589 385.655
L198.464 385.764
L198.567 385.771
L201.626 385.878
L201.729 385.887
L203.622 385.998
L203.729 386.012
L205.621 386.118
L205.728 386.13
L208.248 386.238
L208.354 386.246
L210.979 386.357
L211.086 386.366
L214.151 386.474
L214.254 386.48
L223.213 386.591
L223.315 386.597
L225.952 386.708
L226.055 386.717
L230.176 386.827
L230.282 386.831
L246.099 386.723
L246.202 386.716
L249.393 386.607
L249.5 386.602
L253.758 386.494
L253.865 386.487
L256.522 386.381
L256.624 386.37
L258.96 386.264
L259.064 386.255
L261.94 386.148
L262.05 386.139
L265.146 386.029
L265.252 386.022
L269.102 385.911
L269.211 385.906
L272.744 385.797
L272.853 385.791
L277.781 385.68
L277.889 385.675
L283.02 385.566
L283.125 385.561
L289.027 385.451
L289.135 385.447
L296.007 385.337
L296.115 385.333
L300.953 385.224
L301.063 385.22
L306.987 385.109
L307.096 385.106
L311.739 384.995
L311.848 384.989
L314.853 384.879
L314.957 384.87
L317.447 384.759
L317.554 384.749
L319.815 384.642
L319.923 384.632
L322.293 384.524
L322.403 384.515
L324.788 384.408
L324.895 384.397
L327.275 384.291
L327.382 384.281
L329.866 384.173
L329.97 384.164
L332.796 384.054
L332.904 384.045
L335.392 383.937
L335.502 383.928
L338.313 383.819
L338.421 383.811
L341.348 383.704
L341.456 383.695
L344.175 383.586
L344.286 383.578
L347.537 383.469
L347.643 383.462
L351.017 383.353
L351.12 383.344
L353.833 383.235
L353.941 383.224
L356.109 383.117
L356.217 383.106
L358.498 382.998
L358.608 382.987
L360.794 382.88
L360.903 382.869
L363.514 382.761
L363.623 382.752
L366.774 382.642
L366.882 382.634
L370.246 382.523
L370.355 382.515
L373.298 382.407
L373.404 382.399
L376.886 382.291
L376.995 382.284
L381.038 382.173
L381.145 382.169
L384.856 382.059
L384.966 382.053
L389.114 381.942
L389.224 381.935
L393.38 381.825
L393.486 381.82
L398.083 381.71
L398.19 381.705
L402.012 381.597
L402.124 381.59
L405.627 381.481
L405.737 381.474
L409.242 381.365
L409.353 381.358
L412.973 381.25
L412.973 381.247
L416.582 381.137
L416.582 381.133
L420.197 381.023
L420.306 381.017
L424.817 380.908
L424.926 380.903
L430.53 380.792
L430.639 380.787
L435.924 380.679
L435.924 380.676
L440.224 380.566
L440.334 380.56
L445.811 380.451
L445.811 380.449
L452.647 380.34
L452.756 380.336
L458.381 380.226
L458.381 380.224
L469.202 380.114
L469.202 380.113
L478.038 380.002
L478.149 379.999
L486.227 379.889
L486.336 379.886
L509.725 379.775
L509.725 379.774
L526.928 379.663
L526.928 379.662
L537.925 379.552
L537.925 379.55
L543.056 379.439
L543.056 379.437
L544.841 379.4
L544.841 379.398" style="fill:none;stroke:#ff0000;stroke-width:0.5;"/>
   </g>
   <g id="matplotlib.axis_1">
    <g id="xtick_1">
     <g id="line2d_2">
      <defs>
       <path d="
M0 0
L0 -4" id="m51944e5cf3"/>
      </defs>
      <g>
       <use style="stroke:#000000;stroke-linecap:butt;stroke-width:0.5;" x="20.1203125" xlink:href="#m51944e5cf3" y="15.0092307692"/>
      </g>
     </g>
    </g>
    <g id="xtick_2">
     <g id="line2d_3">
      <defs>
       <path d="
M0 0
L0 -4" id="m51944e5cf3"/>
      </defs>
      <g>
       <use style="stroke:#000000;stroke-linecap:butt;stroke-width:0.5;" x="125.070506136" xlink:href="#m51944e5cf3" y="15.0092307692"/>
      </g>
     </g>
     <g id="text_1">
      <!-- 2e7 -->
      <defs>
       <path d="
M19.1875 8.29688
L53.6094 8.29688
L53.6094 0
L7.32812 0
L7.32812 8.29688
Q12.9375 14.1094 22.625 23.8906
Q32.3281 33.6875 34.8125 36.5312
Q39.5469 41.8438 41.4219 45.5312
Q43.3125 49.2188 43.3125 52.7812
Q43.3125 58.5938 39.2344 62.25
Q35.1562 65.9219 28.6094 65.9219
Q23.9688 65.9219 18.8125 64.3125
Q13.6719 62.7031 7.8125 59.4219
L7.8125 69.3906
Q13.7656 71.7812 18.9375 73
Q24.125 74.2188 28.4219 74.2188
Q39.75 74.2188 46.4844 68.5469
Q53.2188 62.8906 53.2188 53.4219
Q53.2188 48.9219 51.5312 44.8906
Q49.8594 40.875 45.4062 35.4062
Q44.1875 33.9844 37.6406 27.2188
Q31.1094 20.4531 19.1875 8.29688" id="BitstreamVeraSans-Roman-32"/>
       <path d="
M56.2031 29.5938
L56.2031 25.2031
L14.8906 25.2031
Q15.4844 15.9219 20.4844 11.0625
Q25.4844 6.20312 34.4219 6.20312
Q39.5938 6.20312 44.4531 7.46875
Q49.3125 8.73438 54.1094 11.2812
L54.1094 2.78125
Q49.2656 0.734375 44.1875 -0.34375
Q39.1094 -1.42188 33.8906 -1.42188
Q20.7969 -1.42188 13.1562 6.1875
Q5.51562 13.8125 5.51562 26.8125
Q5.51562 40.2344 12.7656 48.1094
Q20.0156 56 32.3281 56
Q43.3594 56 49.7812 48.8906
Q56.2031 41.7969 56.2031 29.5938
M47.2188 32.2344
Q47.125 39.5938 43.0938 43.9844
Q39.0625 48.3906 32.4219 48.3906
Q24.9062 48.3906 20.3906 44.1406
Q15.875 39.8906 15.1875 32.1719
z
" id="BitstreamVeraSans-Roman-65"/>
       <path d="
M8.20312 72.9062
L55.0781 72.9062
L55.0781 68.7031
L28.6094 0
L18.3125 0
L43.2188 64.5938
L8.20312 64.5938
z
" id="BitstreamVeraSans-Roman-37"/>
      </defs>
      <g transform="translate(116.425193636 26.4311057692)scale(0.1 -0.1)">
       <use xlink:href="#BitstreamVeraSans-Roman-32"/>
       <use x="63.623046875" xlink:href="#BitstreamVeraSans-Roman-65"/>
       <use x="125.146484375" xlink:href="#BitstreamVeraSans-Roman-37"/>
      </g>
     </g>
    </g>
    <g id="xtick_3">
     <g id="line2d_4">
      <defs>
       <path d="
M0 0
L0 -4" id="m51944e5cf3"/>
      </defs>
      <g>
       <use style="stroke:#000000;stroke-linecap:butt;stroke-width:0.5;" x="230.020699773" xlink:href="#m51944e5cf3" y="15.0092307692"/>
      </g>
     </g>
     <g id="text_2">
      <!-- 4e7 -->
      <defs>
       <path d="
M37.7969 64.3125
L12.8906 25.3906
L37.7969 25.3906
z

M35.2031 72.9062
L47.6094 72.9062
L47.6094 25.3906
L58.0156 25.3906
L58.0156 17.1875
L47.6094 17.1875
L47.6094 0
L37.7969 0
L37.7969 17.1875
L4.89062 17.1875
L4.89062 26.7031
z
" id="BitstreamVeraSans-Roman-34"/>
      </defs>
      <g transform="translate(221.253512273 26.2998557692)scale(0.1 -0.1)">
       <use xlink:href="#BitstreamVeraSans-Roman-34"/>
       <use x="63.623046875" xlink:href="#BitstreamVeraSans-Roman-65"/>
       <use x="125.146484375" xlink:href="#BitstreamVeraSans-Roman-37"/>
      </g>
     </g>
    </g>
    <g id="xtick_4">
     <g id="line2d_5">
      <defs>
       <path d="
M0 0
L0 -4" id="m51944e5cf3"/>
      </defs>
      <g>
       <use style="stroke:#000000;stroke-linecap:butt;stroke-width:0.5;" x="334.970893409" xlink:href="#m51944e5cf3" y="15.0092307692"/>
      </g>
     </g>
     <g id="text_3">
      <!-- 6e7 -->
      <defs>
       <path d="
M33.0156 40.375
Q26.375 40.375 22.4844 35.8281
Q18.6094 31.2969 18.6094 23.3906
Q18.6094 15.5312 22.4844 10.9531
Q26.375 6.39062 33.0156 6.39062
Q39.6562 6.39062 43.5312 10.9531
Q47.4062 15.5312 47.4062 23.3906
Q47.4062 31.2969 43.5312 35.8281
Q39.6562 40.375 33.0156 40.375
M52.5938 71.2969
L52.5938 62.3125
Q48.875 64.0625 45.0938 64.9844
Q41.3125 65.9219 37.5938 65.9219
Q27.8281 65.9219 22.6719 59.3281
Q17.5312 52.7344 16.7969 39.4062
Q19.6719 43.6562 24.0156 45.9219
Q28.375 48.1875 33.5938 48.1875
Q44.5781 48.1875 50.9531 41.5156
Q57.3281 34.8594 57.3281 23.3906
Q57.3281 12.1562 50.6875 5.35938
Q44.0469 -1.42188 33.0156 -1.42188
Q20.3594 -1.42188 13.6719 8.26562
Q6.98438 17.9688 6.98438 36.375
Q6.98438 53.6562 15.1875 63.9375
Q23.3906 74.2188 37.2031 74.2188
Q40.9219 74.2188 44.7031 73.4844
Q48.4844 72.75 52.5938 71.2969" id="BitstreamVeraSans-Roman-36"/>
      </defs>
      <g transform="translate(326.308393409 26.4311057692)scale(0.1 -0.1)">
       <use xlink:href="#BitstreamVeraSans-Roman-36"/>
       <use x="63.623046875" xlink:href="#BitstreamVeraSans-Roman-65"/>
       <use x="125.146484375" xlink:href="#BitstreamVeraSans-Roman-37"/>
      </g>
     </g>
    </g>
    <g id="xtick_5">
     <g id="line2d_6">
      <defs>
       <path d="
M0 0
L0 -4" id="m51944e5cf3"/>
      </defs>
      <g>
       <use style="stroke:#000000;stroke-linecap:butt;stroke-width:0.5;" x="439.921087046" xlink:href="#m51944e5cf3" y="15.0092307692"/>
      </g>
     </g>
     <g id="text_4">
      <!-- 8e7 -->
      <defs>
       <path d="
M31.7812 34.625
Q24.75 34.625 20.7188 30.8594
Q16.7031 27.0938 16.7031 20.5156
Q16.7031 13.9219 20.7188 10.1562
Q24.75 6.39062 31.7812 6.39062
Q38.8125 6.39062 42.8594 10.1719
Q46.9219 13.9688 46.9219 20.5156
Q46.9219 27.0938 42.8906 30.8594
Q38.875 34.625 31.7812 34.625
M21.9219 38.8125
Q15.5781 40.375 12.0312 44.7188
Q8.5 49.0781 8.5 55.3281
Q8.5 64.0625 14.7188 69.1406
Q20.9531 74.2188 31.7812 74.2188
Q42.6719 74.2188 48.875 69.1406
Q55.0781 64.0625 55.0781 55.3281
Q55.0781 49.0781 51.5312 44.7188
Q48 40.375 41.7031 38.8125
Q48.8281 37.1562 52.7969 32.3125
Q56.7812 27.4844 56.7812 20.5156
Q56.7812 9.90625 50.3125 4.23438
Q43.8438 -1.42188 31.7812 -1.42188
Q19.7344 -1.42188 13.25 4.23438
Q6.78125 9.90625 6.78125 20.5156
Q6.78125 27.4844 10.7812 32.3125
Q14.7969 37.1562 21.9219 38.8125
M18.3125 54.3906
Q18.3125 48.7344 21.8438 45.5625
Q25.3906 42.3906 31.7812 42.3906
Q38.1406 42.3906 41.7188 45.5625
Q45.3125 48.7344 45.3125 54.3906
Q45.3125 60.0625 41.7188 63.2344
Q38.1406 66.4062 31.7812 66.4062
Q25.3906 66.4062 21.8438 63.2344
Q18.3125 60.0625 18.3125 54.3906" id="BitstreamVeraSans-Roman-38"/>
      </defs>
      <g transform="translate(431.248430796 26.4311057692)scale(0.1 -0.1)">
       <use xlink:href="#BitstreamVeraSans-Roman-38"/>
       <use x="63.623046875" xlink:href="#BitstreamVeraSans-Roman-65"/>
       <use x="125.146484375" xlink:href="#BitstreamVeraSans-Roman-37"/>
      </g>
     </g>
    </g>
    <g id="xtick_6">
     <g id="line2d_7">
      <defs>
       <path d="
M0 0
L0 -4" id="m51944e5cf3"/>
      </defs>
      <g>
       <use style="stroke:#000000;stroke-linecap:butt;stroke-width:0.5;" x="544.871280682" xlink:href="#m51944e5cf3" y="15.0092307692"/>
      </g>
     </g>
     <g id="text_5">
      <!-- 1e8 -->
      <defs>
       <path d="
M12.4062 8.29688
L28.5156 8.29688
L28.5156 63.9219
L10.9844 60.4062
L10.9844 69.3906
L28.4219 72.9062
L38.2812 72.9062
L38.2812 8.29688
L54.3906 8.29688
L54.3906 0
L12.4062 0
z
" id="BitstreamVeraSans-Roman-31"/>
      </defs>
      <g transform="translate(536.323624432 26.4311057692)scale(0.1 -0.1)">
       <use xlink:href="#BitstreamVeraSans-Roman-31"/>
       <use x="63.623046875" xlink:href="#BitstreamVeraSans-Roman-65"/>
       <use x="125.146484375" xlink:href="#BitstreamVeraSans-Roman-38"/>
      </g>
     </g>
    </g>
    <g id="xtick_7">
     <g id="line2d_8">
      <defs>
       <path d="
M0 0
L0 -2" id="m18643c667c"/>
      </defs>
      <g>
       <use style="stroke:#000000;stroke-linecap:butt;stroke-width:0.5;" x="46.3578609091" xlink:href="#m18643c667c" y="15.0092307692"/>
      </g>
     </g>
    </g>
    <g id="xtick_8">
     <g id="line2d_9">
      <defs>
       <path d="
M0 0
L0 -2" id="m18643c667c"/>
      </defs>
      <g>
       <use style="stroke:#000000;stroke-linecap:butt;stroke-width:0.5;" x="72.5954093182" xlink:href="#m18643c667c" y="15.0092307692"/>
      </g>
     </g>
    </g>
    <g id="xtick_9">
     <g id="line2d_10">
      <defs>
       <path d="
M0 0
L0 -2" id="m18643c667c"/>
      </defs>
      <g>
       <use style="stroke:#000000;stroke-linecap:butt;stroke-width:0.5;" x="98.8329577274" xlink:href="#m18643c667c" y="15.0092307692"/>
      </g>
     </g>
    </g>
    <g id="xtick_10">
     <g id="line2d_11">
      <defs>
       <path d="
M0 0
L0 -2" id="m18643c667c"/>
      </defs>
      <g>
       <use style="stroke:#000000;stroke-linecap:butt;stroke-width:0.5;" x="151.308054546" xlink:href="#m18643c667c" y="15.0092307692"/>
      </g>
     </g>
    </g>
    <g id="xtick_11">
     <g id="line2d_12">
      <defs>
       <path d="
M0 0
L0 -2" id="m18643c667c"/>
      </defs>
      <g>
       <use style="stroke:#000000;stroke-linecap:butt;stroke-width:0.5;" x="177.545602955" xlink:href="#m18643c667c" y="15.0092307692"/>
      </g>
     </g>
    </g>
    <g id="xtick_12">
     <g id="line2d_13">
      <defs>
       <path d="
M0 0
L0 -2" id="m18643c667c"/>
      </defs>
      <g>
       <use style="stroke:#000000;stroke-linecap:butt;stroke-width:0.5;" x="203.783151364" xlink:href="#m18643c667c" y="15.0092307692"/>
      </g>
     </g>
    </g>
    <g id="xtick_13">
     <g id="line2d_14">
      <defs>
       <path d="
M0 0
L0 -2" id="m18643c667c"/>
      </defs>
      <g>
       <use style="stroke:#000000;stroke-linecap:butt;stroke-width:0.5;" x="256.258248182" xlink:href="#m18643c667c" y="15.0092307692"/>
      </g>
     </g>
    </g>
    <g id="xtick_14">
     <g id="line2d_15">
      <defs>
       <path d="
M0 0
L0 -2" id="m18643c667c"/>
      </defs>
      <g>
       <use style="stroke:#000000;stroke-linecap:butt;stroke-width:0.5;" x="282.495796591" xlink:href="#m18643c667c" y="15.0092307692"/>
      </g>
     </g>
    </g>
    <g id="xtick_15">
     <g id="line2d_16">
      <defs>
       <path d="
M0 0
L0 -2" id="m18643c667c"/>
      </defs>
      <g>
       <use style="stroke:#000000;stroke-linecap:butt;stroke-width:0.5;" x="308.733345" xlink:href="#m18643c667c" y="15.0092307692"/>
      </g>
     </g>
    </g>
    <g id="xtick_16">
     <g id="line2d_17">
      <defs>
       <path d="
M0 0
L0 -2" id="m18643c667c"/>
      </defs>
      <g>
       <use style="stroke:#000000;stroke-linecap:butt;stroke-width:0.5;" x="361.208441819" xlink:href="#m18643c667c" y="15.0092307692"/>
      </g>
     </g>
    </g>
    <g id="xtick_17">
     <g id="line2d_18">
      <defs>
       <path d="
M0 0
L0 -2" id="m18643c667c"/>
      </defs>
      <g>
       <use style="stroke:#000000;stroke-linecap:butt;stroke-width:0.5;" x="387.445990228" xlink:href="#m18643c667c" y="15.0092307692"/>
      </g>
     </g>
    </g>
    <g id="xtick_18">
     <g id="line2d_19">
      <defs>
       <path d="
M0 0
L0 -2" id="m18643c667c"/>
      </defs>
      <g>
       <use style="stroke:#000000;stroke-linecap:butt;stroke-width:0.5;" x="413.683538637" xlink:href="#m18643c667c" y="15.0092307692"/>
      </g>
     </g>
    </g>
    <g id="xtick_19">
     <g id="line2d_20">
      <defs>
       <path d="
M0 0
L0 -2" id="m18643c667c"/>
      </defs>
      <g>
       <use style="stroke:#000000;stroke-linecap:butt;stroke-width:0.5;" x="466.158635455" xlink:href="#m18643c667c" y="15.0092307692"/>
      </g>
     </g>
    </g>
    <g id="xtick_20">
     <g id="line2d_21">
      <defs>
       <path d="
M0 0
L0 -2" id="m18643c667c"/>
      </defs>
      <g>
       <use style="stroke:#000000;stroke-linecap:butt;stroke-width:0.5;" x="492.396183864" xlink:href="#m18643c667c" y="15.0092307692"/>
      </g>
     </g>
    </g>
    <g id="xtick_21">
     <g id="line2d_22">
      <defs>
       <path d="
M0 0
L0 -2" id="m18643c667c"/>
      </defs>
      <g>
       <use style="stroke:#000000;stroke-linecap:butt;stroke-width:0.5;" x="518.633732273" xlink:href="#m18643c667c" y="15.0092307692"/>
      </g>
     </g>
    </g>
   </g>
   <g id="matplotlib.axis_2">
    <g id="ytick_1">
     <g id="line2d_23">
      <defs>
       <path d="
M0 0
L4 0" id="mf803068d76"/>
      </defs>
      <g>
       <use style="stroke:#000000;stroke-linecap:butt;stroke-width:0.5;" x="20.1203125" xlink:href="#mf803068d76" y="389.014728824"/>
      </g>
     </g>
     <g id="text_6">
      <!-- -4 -->
      <defs>
       <path d="
M4.89062 31.3906
L31.2031 31.3906
L31.2031 23.3906
L4.89062 23.3906
z
" id="BitstreamVeraSans-Roman-2d"/>
      </defs>
      <g transform="translate(7.2 392.660041324)scale(0.1 -0.1)">
       <use xlink:href="#BitstreamVeraSans-Roman-2d"/>
       <use x="36.083984375" xlink:href="#BitstreamVeraSans-Roman-34"/>
      </g>
     </g>
    </g>
    <g id="ytick_2">
     <g id="line2d_24">
      <defs>
       <path d="
M0 0
L4 0" id="mf803068d76"/>
      </defs>
      <g>
       <use style="stroke:#000000;stroke-linecap:butt;stroke-width:0.5;" x="20.1203125" xlink:href="#mf803068d76" y="295.51335431"/>
      </g>
     </g>
     <g id="text_7">
      <!-- -3 -->
      <defs>
       <path d="
M40.5781 39.3125
Q47.6562 37.7969 51.625 33
Q55.6094 28.2188 55.6094 21.1875
Q55.6094 10.4062 48.1875 4.48438
Q40.7656 -1.42188 27.0938 -1.42188
Q22.5156 -1.42188 17.6562 -0.515625
Q12.7969 0.390625 7.625 2.20312
L7.625 11.7188
Q11.7188 9.32812 16.5938 8.10938
Q21.4844 6.89062 26.8125 6.89062
Q36.0781 6.89062 40.9375 10.5469
Q45.7969 14.2031 45.7969 21.1875
Q45.7969 27.6406 41.2812 31.2656
Q36.7656 34.9062 28.7188 34.9062
L20.2188 34.9062
L20.2188 43.0156
L29.1094 43.0156
Q36.375 43.0156 40.2344 45.9219
Q44.0938 48.8281 44.0938 54.2969
Q44.0938 59.9062 40.1094 62.9062
Q36.1406 65.9219 28.7188 65.9219
Q24.6562 65.9219 20.0156 65.0312
Q15.375 64.1562 9.8125 62.3125
L9.8125 71.0938
Q15.4375 72.6562 20.3438 73.4375
Q25.25 74.2188 29.5938 74.2188
Q40.8281 74.2188 47.3594 69.1094
Q53.9062 64.0156 53.9062 55.3281
Q53.9062 49.2656 50.4375 45.0938
Q46.9688 40.9219 40.5781 39.3125" id="BitstreamVeraSans-Roman-33"/>
      </defs>
      <g transform="translate(7.440625 299.15319806)scale(0.1 -0.1)">
       <use xlink:href="#BitstreamVeraSans-Roman-2d"/>
       <use x="36.083984375" xlink:href="#BitstreamVeraSans-Roman-33"/>
      </g>
     </g>
    </g>
    <g id="ytick_3">
     <g id="line2d_25">
      <defs>
       <path d="
M0 0
L4 0" id="mf803068d76"/>
      </defs>
      <g>
       <use style="stroke:#000000;stroke-linecap:butt;stroke-width:0.5;" x="20.1203125" xlink:href="#mf803068d76" y="202.011979797"/>
      </g>
     </g>
     <g id="text_8">
      <!-- -2 -->
      <g transform="translate(7.640625 205.722917297)scale(0.1 -0.1)">
       <use xlink:href="#BitstreamVeraSans-Roman-2d"/>
       <use x="36.083984375" xlink:href="#BitstreamVeraSans-Roman-32"/>
      </g>
     </g>
    </g>
    <g id="ytick_4">
     <g id="line2d_26">
      <defs>
       <path d="
M0 0
L4 0" id="mf803068d76"/>
      </defs>
      <g>
       <use style="stroke:#000000;stroke-linecap:butt;stroke-width:0.5;" x="20.1203125" xlink:href="#mf803068d76" y="108.510605283"/>
      </g>
     </g>
     <g id="text_9">
      <!-- -1 -->
      <g transform="translate(7.5625 112.155917783)scale(0.1 -0.1)">
       <use xlink:href="#BitstreamVeraSans-Roman-2d"/>
       <use x="36.083984375" xlink:href="#BitstreamVeraSans-Roman-31"/>
      </g>
     </g>
    </g>
    <g id="ytick_5">
     <g id="line2d_27">
      <defs>
       <path d="
M0 0
L4 0" id="mf803068d76"/>
      </defs>
      <g>
       <use style="stroke:#000000;stroke-linecap:butt;stroke-width:0.5;" x="20.1203125" xlink:href="#mf803068d76" y="15.0092307692"/>
      </g>
     </g>
    </g>
    <g id="ytick_6">
     <g id="line2d_28">
      <defs>
       <path d="
M0 0
L2 0" id="m63d2c23063"/>
      </defs>
      <g>
       <use style="stroke:#000000;stroke-linecap:butt;stroke-width:0.5;" x="20.1203125" xlink:href="#m63d2c23063" y="407.715003727"/>
      </g>
     </g>
    </g>
    <g id="ytick_7">
     <g id="line2d_29">
      <defs>
       <path d="
M0 0
L2 0" id="m63d2c23063"/>
      </defs>
      <g>
       <use style="stroke:#000000;stroke-linecap:butt;stroke-width:0.5;" x="20.1203125" xlink:href="#m63d2c23063" y="370.314453921"/>
      </g>
     </g>
    </g>
    <g id="ytick_8">
     <g id="line2d_30">
      <defs>
       <path d="
M0 0
L2 0" id="m63d2c23063"/>
      </defs>
      <g>
       <use style="stroke:#000000;stroke-linecap:butt;stroke-width:0.5;" x="20.1203125" xlink:href="#m63d2c23063" y="351.614179018"/>
      </g>
     </g>
    </g>
    <g id="ytick_9">
     <g id="line2d_31">
      <defs>
       <path d="
M0 0
L2 0" id="m63d2c23063"/>
      </defs>
      <g>
       <use style="stroke:#000000;stroke-linecap:butt;stroke-width:0.5;" x="20.1203125" xlink:href="#m63d2c23063" y="332.913904116"/>
      </g>
     </g>
    </g>
    <g id="ytick_10">
     <g id="line2d_32">
      <defs>
       <path d="
M0 0
L2 0" id="m63d2c23063"/>
      </defs>
      <g>
       <use style="stroke:#000000;stroke-linecap:butt;stroke-width:0.5;" x="20.1203125" xlink:href="#m63d2c23063" y="314.213629213"/>
      </g>
     </g>
    </g>
    <g id="ytick_11">
     <g id="line2d_33">
      <defs>
       <path d="
M0 0
L2 0" id="m63d2c23063"/>
      </defs>
      <g>
       <use style="stroke:#000000;stroke-linecap:butt;stroke-width:0.5;" x="20.1203125" xlink:href="#m63d2c23063" y="276.813079407"/>
      </g>
     </g>
    </g>
    <g id="ytick_12">
     <g id="line2d_34">
      <defs>
       <path d="
M0 0
L2 0" id="m63d2c23063"/>
      </defs>
      <g>
       <use style="stroke:#000000;stroke-linecap:butt;stroke-width:0.5;" x="20.1203125" xlink:href="#m63d2c23063" y="258.112804505"/>
      </g>
     </g>
    </g>
    <g id="ytick_13">
     <g id="line2d_35">
      <defs>
       <path d="
M0 0
L2 0" id="m63d2c23063"/>
      </defs>
      <g>
       <use style="stroke:#000000;stroke-linecap:butt;stroke-width:0.5;" x="20.1203125" xlink:href="#m63d2c23063" y="239.412529602"/>
      </g>
     </g>
    </g>
    <g id="ytick_14">
     <g id="line2d_36">
      <defs>
       <path d="
M0 0
L2 0" id="m63d2c23063"/>
      </defs>
      <g>
       <use style="stroke:#000000;stroke-linecap:butt;stroke-width:0.5;" x="20.1203125" xlink:href="#m63d2c23063" y="220.712254699"/>
      </g>
     </g>
    </g>
    <g id="ytick_15">
     <g id="line2d_37">
      <defs>
       <path d="
M0 0
L2 0" id="m63d2c23063"/>
      </defs>
      <g>
       <use style="stroke:#000000;stroke-linecap:butt;stroke-width:0.5;" x="20.1203125" xlink:href="#m63d2c23063" y="202.011979797"/>
      </g>
     </g>
    </g>
    <g id="ytick_16">
     <g id="line2d_38">
      <defs>
       <path d="
M0 0
L2 0" id="m63d2c23063"/>
      </defs>
      <g>
       <use style="stroke:#000000;stroke-linecap:butt;stroke-width:0.5;" x="20.1203125" xlink:href="#m63d2c23063" y="183.311704894"/>
      </g>
     </g>
    </g>
    <g id="ytick_17">
     <g id="line2d_39">
      <defs>
       <path d="
M0 0
L2 0" id="m63d2c23063"/>
      </defs>
      <g>
       <use style="stroke:#000000;stroke-linecap:butt;stroke-width:0.5;" x="20.1203125" xlink:href="#m63d2c23063" y="164.611429991"/>
      </g>
     </g>
    </g>
    <g id="ytick_18">
     <g id="line2d_40">
      <defs>
       <path d="
M0 0
L2 0" id="m63d2c23063"/>
      </defs>
      <g>
       <use style="stroke:#000000;stroke-linecap:butt;stroke-width:0.5;" x="20.1203125" xlink:href="#m63d2c23063" y="145.911155088"/>
      </g>
     </g>
    </g>
    <g id="ytick_19">
     <g id="line2d_41">
      <defs>
       <path d="
M0 0
L2 0" id="m63d2c23063"/>
      </defs>
      <g>
       <use style="stroke:#000000;stroke-linecap:butt;stroke-width:0.5;" x="20.1203125" xlink:href="#m63d2c23063" y="127.210880186"/>
      </g>
     </g>
    </g>
    <g id="ytick_20">
     <g id="line2d_42">
      <defs>
       <path d="
M0 0
L2 0" id="m63d2c23063"/>
      </defs>
      <g>
       <use style="stroke:#000000;stroke-linecap:butt;stroke-width:0.5;" x="20.1203125" xlink:href="#m63d2c23063" y="108.510605283"/>
      </g>
     </g>
    </g>
    <g id="ytick_21">
     <g id="line2d_43">
      <defs>
       <path d="
M0 0
L2 0" id="m63d2c23063"/>
      </defs>
      <g>
       <use style="stroke:#000000;stroke-linecap:butt;stroke-width:0.5;" x="20.1203125" xlink:href="#m63d2c23063" y="89.8103303802"/>
      </g>
     </g>
    </g>
    <g id="ytick_22">
     <g id="line2d_44">
      <defs>
       <path d="
M0 0
L2 0" id="m63d2c23063"/>
      </defs>
      <g>
       <use style="stroke:#000000;stroke-linecap:butt;stroke-width:0.5;" x="20.1203125" xlink:href="#m63d2c23063" y="71.1100554774"/>
      </g>
     </g>
    </g>
    <g id="ytick_23">
     <g id="line2d_45">
      <defs>
       <path d="
M0 0
L2 0" id="m63d2c23063"/>
      </defs>
      <g>
       <use style="stroke:#000000;stroke-linecap:butt;stroke-width:0.5;" x="20.1203125" xlink:href="#m63d2c23063" y="52.4097805747"/>
      </g>
     </g>
    </g>
    <g id="ytick_24">
     <g id="line2d_46">
      <defs>
       <path d="
M0 0
L2 0" id="m63d2c23063"/>
      </defs>
      <g>
       <use style="stroke:#000000;stroke-linecap:butt;stroke-width:0.5;" x="20.1203125" xlink:href="#m63d2c23063" y="33.709505672"/>
      </g>
     </g>
    </g>
   </g>
   <g id="patch_3">
    <path d="
M9.6259 15.0092
L555.336 15.0092" style="fill:none;stroke:#000000;stroke-width:0.8;"/>
   </g>
   <g id="patch_4">
    <path d="
M20.1203 413.28
L20.1203 7.2" style="fill:none;stroke:#000000;stroke-width:0.8;"/>
   </g>
  </g>
 </g>
 <defs>
  <clipPath id="pbf9a93ed35">
   <rect height="406.08" width="545.709992448" x="9.62590006332" y="7.2"/>
  </clipPath>
 </defs>
</svg>
