<?xml version="1.0" encoding="utf-8" standalone="no"?>
<!DOCTYPE svg PUBLIC "-//W3C//DTD SVG 1.1//EN"
  "http://www.w3.org/Graphics/SVG/1.1/DTD/svg11.dtd">
<!-- Created with matplotlib (http://matplotlib.sourceforge.net/) -->
<svg height="419pt" version="1.1" viewBox="0 0 563 419" width="563pt" xmlns="http://www.w3.org/2000/svg" xmlns:xlink="http://www.w3.org/1999/xlink">
 <defs>
  <style type="text/css">
*{stroke-linecap:square;stroke-linejoin:round;}
  </style>
 </defs>
 <g id="figure_1">
  <g id="patch_1">
   <path d="
M0 419.769
L563.668 419.769
L563.668 0
L0 0
z
" style="fill:#ffffff;"/>
  </g>
  <g id="axes_1">
   <g id="patch_2">
    <path d="
M7.2 408.726
L556.468 408.726
L556.468 7.2
L7.2 7.2
z
" style="fill:#ffffff;"/>
   </g>
   <g id="line2d_1">
    <path clip-path="url(#p8536303459)" d="
M17.7628 401.004
L17.8121 401.004
L17.8706 20.4919
L17.9331 20.4919
L17.9331 18.6578
L17.9967 18.6865
L18.0629 18.6865
L18.1312 14.9217
L18.1986 14.9217
L18.2679 15.6296
L18.3388 15.6296
L18.4098 19.492
L18.4816 19.492
L18.5537 22.2543
L18.6267 22.2543
L18.7008 22.872
L18.7741 22.872
L18.8485 23.3252
L18.9232 23.3252
L18.9981 24.6956
L19.0734 24.6956
L19.1501 26.3424
L19.2251 26.3424
L19.3022 29.2722
L19.3797 29.2722
L19.4555 31.1475
L19.5325 31.1475
L19.6101 32.4113
L19.6882 32.4113
L19.7672 33.527
L19.8445 33.527
L19.9251 34.4921
L20.0031 34.4921
L20.0814 35.0406
L20.1612 35.0406
L20.2414 35.8452
L20.3195 35.8452
L20.3993 37.174
L20.4795 37.174
L20.5587 38.4886
L20.6401 38.4886
L20.7211 39.3482
L20.8019 39.3482
L20.8812 40.3481
L20.9625 40.3481
L21.0428 41.393
L21.1253 41.393
L21.2084 42.4974
L21.2894 42.4974
L21.3716 43.7272
L21.4523 43.7272
L21.5337 45.0878
L21.6162 45.0878
L21.6998 46.4569
L21.7823 46.4569
L21.8642 47.7295
L21.9463 47.7295
L22.0285 48.9742
L22.111 48.9742
L22.1939 49.9812
L22.2783 49.9812
L22.3595 50.6662
L22.4431 50.6662
L22.5272 51.581
L22.6106 51.581
L22.6941 52.6399
L22.7787 52.6399
L22.8624 53.6891
L22.9476 53.6891
L23.0324 54.6702
L23.1149 54.6702
L23.1988 55.3866
L23.2834 55.3866
L23.37 56.1828
L23.4548 56.1828
L23.5388 57.023
L23.6218 57.023
L23.707 57.7887
L23.7913 57.7887
L23.8769 58.4965
L23.9607 58.4965
L24.0434 59.261
L24.1303 59.261
L24.2152 59.9684
L24.303 59.9684
L24.3884 60.7569
L24.472 60.7569
L24.5579 61.604
L24.6442 61.604
L24.7299 62.3555
L24.8167 62.3555
L24.9029 63.0216
L24.9889 63.0216
L25.0745 63.6231
L25.158 63.6231
L25.2475 64.1394
L25.3329 64.1394
L25.419 64.6432
L25.5037 64.6432
L25.5906 65.1895
L25.6766 65.1895
L25.7615 65.7572
L25.8497 65.7572
L25.9379 66.3889
L26.0244 66.3889
L26.1116 66.9956
L26.2003 66.9956
L26.2873 67.5195
L26.3731 67.5195
L26.4607 68.0795
L26.5481 68.0795
L26.6336 68.6179
L26.7224 68.6179
L26.8091 69.1902
L26.8974 69.1902
L26.9863 69.8133
L27.0744 69.8133
L27.1611 70.3736
L27.2482 70.3736
L27.3353 70.8232
L27.4222 70.8232
L27.511 71.2815
L27.5976 71.2815
L27.6845 71.6207
L27.7722 71.6207
L27.8609 72.0234
L27.9474 72.0234
L28.0354 72.4756
L28.1238 72.4756
L28.2153 72.8585
L28.3027 72.8585
L28.3892 73.1347
L28.565 73.2323
L28.6542 73.4293
L28.832 73.5206
L28.9206 73.6495
L29.0965 73.709
L29.1846 73.8638
L29.3633 73.9575
L29.4526 74.137
L29.6321 74.1924
L29.7201 74.3211
L29.8987 74.3932
L29.9879 74.5215
L30.1686 74.5949
L30.257 74.7231
L30.4357 74.7927
L30.5259 74.9231
L30.7059 75.0031
L30.7944 75.1607
L30.975 75.2312
L31.0649 75.3536
L31.3338 75.4565
L31.4212 75.5516
L31.6021 75.6104
L31.6921 75.7299
L31.872 75.7947
L31.9621 75.9615
L32.14 76.0515
L32.2331 76.2
L32.4127 76.2667
L32.5051 76.3737
L32.7706 76.4647
L32.8614 76.5393
L33.3173 76.6394
L33.409 76.6671
L34.4993 76.5777
L34.5898 76.4915
L38.7224 76.596
L38.8155 76.6452
L39.2766 76.7537
L39.3685 76.7778
L40.0176 76.88
L40.1114 76.9074
L40.7667 77.0081
L40.8598 77.0445
L42.8139 77.1556
L42.9092 77.1857
L43.3784 77.2771
L43.4712 77.3249
L43.8442 77.4255
L43.9368 77.4997
L44.3108 77.5922
L44.4046 77.6664
L44.6868 77.7487
L44.7823 77.8309
L45.0643 77.9076
L45.1596 77.978
L45.5338 78.0727
L45.627 78.1289
L46.0035 78.2356
L46.0994 78.3063
L46.3827 78.381
L46.4772 78.4514
L46.8537 78.5468
L46.9511 78.611
L47.4257 78.7153
L47.5203 78.7487
L50.5587 78.6402
L50.6557 78.5825
L51.0315 78.4877
L51.1269 78.4304
L51.5128 78.3407
L51.6079 78.2585
L51.8947 78.1721
L51.9917 78.0909
L52.2773 78.0103
L52.3728 77.9327
L52.7523 77.8277
L52.8484 77.7645
L53.2311 77.6685
L53.3262 77.6068
L53.7102 77.5172
L53.8053 77.4613
L54.1838 77.3642
L54.2806 77.285
L54.5656 77.2019
L54.6633 77.109
L54.9483 77.0147
L55.0426 76.9301
L55.3302 76.8391
L55.4297 76.7537
L55.719 76.6689
L55.8138 76.5869
L56.1034 76.5008
L56.1978 76.4207
L56.4866 76.3395
L56.5853 76.2573
L56.8736 76.1746
L56.97 76.1011
L57.2586 76.0227
L57.3575 75.944
L57.6457 75.8591
L57.7427 75.7682
L58.0321 75.6809
L58.1275 75.6029
L58.5127 75.5016
L58.6095 75.4416
L58.9983 75.3451
L59.0945 75.2791
L59.4778 75.1764
L59.575 75.0982
L59.8661 75.0208
L59.961 74.9512
L60.3493 74.8548
L60.4478 74.7906
L60.8371 74.6971
L60.934 74.6343
L61.3183 74.5328
L61.4179 74.4649
L61.8052 74.3594
L61.9002 74.2848
L62.2914 74.1797
L62.3908 74.1116
L62.7762 74.0041
L62.8716 73.9331
L63.2571 73.8348
L63.3558 73.7745
L63.743 73.6864
L63.8391 73.6318
L64.2264 73.5326
L64.3244 73.461
L64.717 73.3574
L64.8153 73.2924
L65.2039 73.2012
L65.2991 73.1366
L65.6947 73.0332
L65.7914 72.9732
L66.1824 72.8836
L66.2794 72.8262
L66.6654 72.7418
L66.7643 72.6823
L67.2512 72.5764
L67.3501 72.5238
L67.8425 72.4248
L67.9411 72.3792
L68.4252 72.2905
L68.5251 72.2391
L69.0147 72.1431
L69.1133 72.0863
L69.5047 71.9978
L69.6026 71.9354
L69.9966 71.8431
L70.0957 71.7804
L70.4908 71.6832
L70.5909 71.6171
L70.9807 71.5236
L71.0782 71.4598
L71.4711 71.3656
L71.5698 71.303
L71.9642 71.2104
L72.0617 71.1543
L72.5535 71.0464
L72.6532 70.9876
L73.0432 70.8951
L73.1409 70.8299
L73.4362 70.7558
L73.533 70.6817
L73.829 70.6075
L73.9272 70.5331
L74.3166 70.4273
L74.4143 70.3659
L74.8125 70.2747
L74.9115 70.2222
L75.3063 70.1372
L75.4036 70.0782
L75.7963 69.9905
L75.8957 69.9374
L76.387 69.8315
L76.4851 69.7758
L76.8801 69.6877
L76.9789 69.6266
L77.3773 69.5353
L77.477 69.4792
L77.9723 69.3714
L78.0717 69.3153
L78.5659 69.2112
L78.6644 69.1604
L79.1518 69.0653
L79.2548 69.0161
L79.7492 68.9244
L79.8485 68.8767
L80.3464 68.7824
L80.4432 68.7369
L81.037 68.6328
L81.1345 68.5936
L81.7337 68.4935
L81.8331 68.4464
L82.3288 68.3538
L82.4275 68.3077
L83.0231 68.2111
L83.1187 68.1793
L83.9134 68.0776
L84.0155 68.0454
L84.7139 67.9483
L84.8124 67.9155
L85.4033 67.825
L85.5042 67.782
L86.1056 67.6842
L86.2059 67.6426
L86.8089 67.5406
L86.9088 67.5037
L87.6062 67.4034
L87.7076 67.3676
L88.5055 67.2579
L88.6068 67.2266
L89.3115 67.1272
L89.4111 67.0858
L90.005 66.9817
L90.1053 66.9391
L90.6046 66.8457
L90.7051 66.798
L91.2005 66.7061
L91.3 66.6632
L91.9075 66.5567
L92.0103 66.5193
L92.7101 66.4108
L92.8121 66.3704
L93.4106 66.2721
L93.5107 66.2355
L94.209 66.1321
L94.3095 66.1017
L95.217 65.998
L95.3153 65.9741
L96.2175 65.8657
L96.3174 65.8391
L97.2268 65.7393
L97.3276 65.7147
L98.3352 65.6136
L98.4346 65.5927
L99.7467 65.4844
L99.8473 65.4698
L102.163 65.3599
L102.263 65.3505
L105.402 65.2413
L105.502 65.2301
L106.713 65.126
L106.815 65.1022
L107.719 65.0006
L107.823 64.9752
L108.639 64.8733
L108.741 64.844
L109.548 64.7381
L109.649 64.7089
L110.555 64.6055
L110.654 64.5796
L111.677 64.4742
L111.776 64.4535
L113.2 64.3461
L113.305 64.333
L115.339 64.2234
L115.442 64.2149
L122.28 64.3243
L122.38 64.3307
L128.116 64.4409
L128.22 64.4461
L138.61 64.3352
L138.712 64.33
L141.703 64.2209
L141.804 64.2125
L144.081 64.1033
L144.186 64.0932
L149.046 63.9833
L149.147 63.98
L154.655 63.8693
L154.756 63.8644
L160.993 63.7552
L161.097 63.7425
L162.978 63.6346
L163.083 63.6205
L164.748 63.5136
L164.856 63.5011
L167.043 63.3903
L167.146 63.3784
L169.652 63.2677
L169.758 63.2591
L172.172 63.1513
L172.277 63.1379
L174.055 63.0312
L174.159 63.0189
L176.036 62.9153
L176.14 62.9006
L177.807 62.7908
L177.913 62.7771
L180.006 62.6684
L180.109 62.6577
L182.321 62.5487
L182.429 62.5366
L185.481 62.4282
L185.586 62.4217
L189.263 62.3129
L189.367 62.304
L191.369 62.1946
L191.474 62.1803
L193.159 62.0757
L193.263 62.0594
L194.626 61.9545
L194.732 61.9366
L196.002 61.829
L196.104 61.8088
L197.27 61.7023
L197.373 61.6794
L198.44 61.5784
L198.546 61.5571
L199.819 61.4465
L199.924 61.4292
L201.411 61.3188
L201.515 61.3017
L202.887 61.1922
L202.995 61.1734
L204.262 61.0695
L204.367 61.0516
L205.849 60.9415
L205.956 60.9246
L207.224 60.8228
L207.332 60.803
L208.6 60.6943
L208.705 60.6758
L209.974 60.5712
L210.08 60.551
L211.353 60.4473
L211.459 60.4282
L212.848 60.3201
L212.955 60.3034
L214.321 60.1985
L214.43 60.1797
L215.812 60.0747
L215.914 60.0562
L217.296 59.9527
L217.402 59.9361
L218.888 59.8287
L218.997 59.8122
L220.582 59.7061
L220.688 59.6924
L222.387 59.5862
L222.495 59.5726
L224.298 59.4674
L224.404 59.4548
L226.205 59.3493
L226.311 59.3337
L227.9 59.2252
L228.007 59.2096
L229.613 59.0991
L229.718 59.0833
L231.097 58.9806
L231.205 58.9609
L232.492 58.8567
L232.599 58.8386
L233.981 58.7332
L234.088 58.7159
L235.58 58.6075
L235.689 58.5904
L237.185 58.4854
L237.29 58.4694
L238.894 58.3594
L239.003 58.3433
L240.717 58.236
L240.824 58.2238
L242.958 58.1165
L243.062 58.1061
L245.424 57.999
L245.532 57.9899
L248.097 57.8831
L248.204 57.8735
L250.672 57.7671
L250.781 57.7573
L253.139 57.6476
L253.243 57.6382
L255.492 57.5299
L255.599 57.5188
L257.733 57.4107
L257.838 57.3996
L259.878 57.2923
L259.983 57.2789
L261.702 57.1713
L261.807 57.1574
L263.638 57.0489
L263.746 57.0369
L265.675 56.929
L265.783 56.9139
L267.29 56.8101
L267.4 56.7939
L268.903 56.6901
L269.011 56.6739
L270.627 56.5634
L270.734 56.5482
L272.251 56.4414
L272.358 56.4243
L273.869 56.3155
L273.973 56.2994
L275.491 56.1922
L275.595 56.1765
L276.999 56.0735
L277.103 56.0558
L278.396 55.9516
L278.502 55.931
L279.678 55.828
L279.785 55.8072
L280.974 55.6994
L281.079 55.6775
L282.267 55.5732
L282.377 55.552
L283.56 55.4457
L283.668 55.4252
L284.854 55.318
L284.962 55.2966
L286.15 55.187
L286.254 55.1645
L287.341 55.0632
L287.452 55.0407
L288.64 54.9354
L288.75 54.915
L289.931 54.8132
L290.042 54.7929
L291.336 54.6838
L291.443 54.6642
L292.737 54.5545
L292.844 54.5351
L294.15 54.4258
L294.257 54.4066
L295.557 54.2984
L295.663 54.2791
L296.961 54.1736
L297.067 54.1541
L298.369 54.0496
L298.475 54.0319
L299.988 53.921
L300.097 53.9043
L301.729 53.7959
L301.837 53.7811
L303.677 53.6722
L303.786 53.6586
L305.643 53.5526
L305.748 53.5392
L307.594 53.4325
L307.594 53.4261
L309.433 53.3153
L309.54 53.3017
L311.392 53.1935
L311.498 53.1792
L313.342 53.0692
L313.449 53.0552
L315.288 52.9445
L315.394 52.9299
L317.135 52.8241
L317.24 52.8113
L319.195 52.7046
L319.301 52.6924
L321.474 52.5821
L321.582 52.5712
L323.873 52.4603
L323.981 52.4496
L326.047 52.3445
L326.158 52.332
L328.221 52.224
L328.329 52.2117
L330.399 52.1035
L330.399 52.0981
L332.477 51.9912
L332.585 51.9788
L334.548 51.8733
L334.655 51.8601
L336.508 51.7517
L336.614 51.7375
L338.468 51.6303
L338.577 51.6165
L340.423 51.5087
L340.423 51.5017
L342.185 51.3955
L342.292 51.3818
L344.154 51.2727
L344.262 51.2589
L346.11 51.1511
L346.11 51.1437
L347.86 51.0356
L347.968 51.021
L349.83 50.9116
L349.94 50.8989
L351.796 50.7935
L351.904 50.7805
L353.87 50.6723
L353.98 50.6597
L355.832 50.5513
L355.942 50.5367
L357.69 50.4313
L357.799 50.4172
L359.779 50.3062
L359.779 50.2998
L361.752 50.1903
L361.752 50.1838
L363.717 50.0751
L363.717 50.0687
L365.695 49.9582
L365.695 49.9517
L367.656 49.8451
L367.656 49.8389
L369.623 49.7312
L369.733 49.7187
L371.71 49.6132
L371.71 49.6069
L373.681 49.5002
L373.788 49.4881
L375.98 49.3802
L375.98 49.3746
L378.283 49.2638
L378.393 49.2525
L380.701 49.1417
L380.812 49.1319
L383.457 49.0239
L383.457 49.019
L385.971 48.9124
L386.081 48.9033
L388.618 48.7937
L388.726 48.7832
L391.032 48.6748
L391.142 48.664
L393.563 48.5562
L393.563 48.5515
L396.417 48.4421
L396.417 48.4382
L399.387 48.3279
L399.496 48.3188
L402.472 48.2102
L402.579 48.2029
L406.112 48.0941
L406.222 48.087
L409.422 47.976
L409.533 47.9675
L412.514 47.8574
L412.624 47.8491
L415.597 47.739
L415.707 47.7304
L418.57 47.6234
L418.68 47.6146
L421.779 47.5065
L421.779 47.5022
L424.654 47.3913
L424.765 47.3813
L427.309 47.2721
L427.309 47.2674
L429.964 47.1592
L430.074 47.1493
L432.627 47.0384
L432.738 47.0283
L435.285 46.9179
L435.393 46.9085
L438.274 46.8013
L438.38 46.7937
L441.601 46.6854
L441.71 46.6786
L445.135 46.5706
L445.246 46.5637
L448.669 46.4536
L448.669 46.4496
L451.658 46.3394
L451.658 46.3355
L454.994 46.2255
L455.101 46.2177
L457.993 46.1073
L457.993 46.1028
L460.987 45.9928
L461.095 45.9841
L463.985 45.8739
L464.094 45.8652
L466.889 45.7547
L466.889 45.7497
L469.885 45.641
L469.995 45.6333
L473.224 45.5233
L473.333 45.515
L476.33 45.4076
L476.33 45.4032
L479.454 45.2954
L479.454 45.2912
L482.679 45.1829
L482.789 45.1752
L486.017 45.0658
L486.128 45.0582
L489.683 44.9481
L489.683 44.9444
L493.27 44.8336
L493.27 44.8303
L497.163 44.7218
L497.274 44.7156
L501.061 44.6071
L501.061 44.604
L504.97 44.4933
L505.081 44.4864
L509.445 44.3777
L509.555 44.372
L513.579 44.2623
L513.689 44.2565
L518.155 44.1455
L518.155 44.1425
L521.942 44.0328
L522.049 44.0258
L525.521 43.9166
L525.521 43.9127
L528.876 43.805
L528.876 43.8016
L532.464 43.6907
L532.571 43.6832
L536.038 43.5734
L536.038 43.5696
L539.284 43.4608
L539.284 43.457
L542.661 43.3466
L542.661 43.3424
L545.794 43.232
L545.794 43.228
L545.905 43.228
L545.905 43.2239" style="fill:none;stroke:#ff0000;stroke-width:0.5;"/>
   </g>
   <g id="matplotlib.axis_1">
    <g id="xtick_1">
     <g id="line2d_2">
      <defs>
       <path d="
M0 0
L0 -4" id="me2ec79df32"/>
      </defs>
      <g>
       <use style="stroke:#000000;stroke-linecap:butt;stroke-width:0.5;" x="17.7628318394" xlink:href="#me2ec79df32" y="401.004497041"/>
      </g>
     </g>
    </g>
    <g id="xtick_2">
     <g id="line2d_3">
      <defs>
       <path d="
M0 0
L0 -4" id="me2ec79df32"/>
      </defs>
      <g>
       <use style="stroke:#000000;stroke-linecap:butt;stroke-width:0.5;" x="123.397259072" xlink:href="#me2ec79df32" y="401.004497041"/>
      </g>
     </g>
     <g id="text_1">
      <!-- 2e7 -->
      <defs>
       <path d="
M19.1875 8.29688
L53.6094 8.29688
L53.6094 0
L7.32812 0
L7.32812 8.29688
Q12.9375 14.1094 22.625 23.8906
Q32.3281 33.6875 34.8125 36.5312
Q39.5469 41.8438 41.4219 45.5312
Q43.3125 49.2188 43.3125 52.7812
Q43.3125 58.5938 39.2344 62.25
Q35.1562 65.9219 28.6094 65.9219
Q23.9688 65.9219 18.8125 64.3125
Q13.6719 62.7031 7.8125 59.4219
L7.8125 69.3906
Q13.7656 71.7812 18.9375 73
Q24.125 74.2188 28.4219 74.2188
Q39.75 74.2188 46.4844 68.5469
Q53.2188 62.8906 53.2188 53.4219
Q53.2188 48.9219 51.5312 44.8906
Q49.8594 40.875 45.4062 35.4062
Q44.1875 33.9844 37.6406 27.2188
Q31.1094 20.4531 19.1875 8.29688" id="BitstreamVeraSans-Roman-32"/>
       <path d="
M56.2031 29.5938
L56.2031 25.2031
L14.8906 25.2031
Q15.4844 15.9219 20.4844 11.0625
Q25.4844 6.20312 34.4219 6.20312
Q39.5938 6.20312 44.4531 7.46875
Q49.3125 8.73438 54.1094 11.2812
L54.1094 2.78125
Q49.2656 0.734375 44.1875 -0.34375
Q39.1094 -1.42188 33.8906 -1.42188
Q20.7969 -1.42188 13.1562 6.1875
Q5.51562 13.8125 5.51562 26.8125
Q5.51562 40.2344 12.7656 48.1094
Q20.0156 56 32.3281 56
Q43.3594 56 49.7812 48.8906
Q56.2031 41.7969 56.2031 29.5938
M47.2188 32.2344
Q47.125 39.5938 43.0938 43.9844
Q39.0625 48.3906 32.4219 48.3906
Q24.9062 48.3906 20.3906 44.1406
Q15.875 39.8906 15.1875 32.1719
z
" id="BitstreamVeraSans-Roman-65"/>
       <path d="
M8.20312 72.9062
L55.0781 72.9062
L55.0781 68.7031
L28.6094 0
L18.3125 0
L43.2188 64.5938
L8.20312 64.5938
z
" id="BitstreamVeraSans-Roman-37"/>
      </defs>
      <g transform="translate(114.751946572 412.426372041)scale(0.1 -0.1)">
       <use xlink:href="#BitstreamVeraSans-Roman-32"/>
       <use x="63.623046875" xlink:href="#BitstreamVeraSans-Roman-65"/>
       <use x="125.146484375" xlink:href="#BitstreamVeraSans-Roman-37"/>
      </g>
     </g>
    </g>
    <g id="xtick_3">
     <g id="line2d_4">
      <defs>
       <path d="
M0 0
L0 -4" id="me2ec79df32"/>
      </defs>
      <g>
       <use style="stroke:#000000;stroke-linecap:butt;stroke-width:0.5;" x="229.031686305" xlink:href="#me2ec79df32" y="401.004497041"/>
      </g>
     </g>
     <g id="text_2">
      <!-- 4e7 -->
      <defs>
       <path d="
M37.7969 64.3125
L12.8906 25.3906
L37.7969 25.3906
z

M35.2031 72.9062
L47.6094 72.9062
L47.6094 25.3906
L58.0156 25.3906
L58.0156 17.1875
L47.6094 17.1875
L47.6094 0
L37.7969 0
L37.7969 17.1875
L4.89062 17.1875
L4.89062 26.7031
z
" id="BitstreamVeraSans-Roman-34"/>
      </defs>
      <g transform="translate(220.264498805 412.295122041)scale(0.1 -0.1)">
       <use xlink:href="#BitstreamVeraSans-Roman-34"/>
       <use x="63.623046875" xlink:href="#BitstreamVeraSans-Roman-65"/>
       <use x="125.146484375" xlink:href="#BitstreamVeraSans-Roman-37"/>
      </g>
     </g>
    </g>
    <g id="xtick_4">
     <g id="line2d_5">
      <defs>
       <path d="
M0 0
L0 -4" id="me2ec79df32"/>
      </defs>
      <g>
       <use style="stroke:#000000;stroke-linecap:butt;stroke-width:0.5;" x="334.666113538" xlink:href="#me2ec79df32" y="401.004497041"/>
      </g>
     </g>
     <g id="text_3">
      <!-- 6e7 -->
      <defs>
       <path d="
M33.0156 40.375
Q26.375 40.375 22.4844 35.8281
Q18.6094 31.2969 18.6094 23.3906
Q18.6094 15.5312 22.4844 10.9531
Q26.375 6.39062 33.0156 6.39062
Q39.6562 6.39062 43.5312 10.9531
Q47.4062 15.5312 47.4062 23.3906
Q47.4062 31.2969 43.5312 35.8281
Q39.6562 40.375 33.0156 40.375
M52.5938 71.2969
L52.5938 62.3125
Q48.875 64.0625 45.0938 64.9844
Q41.3125 65.9219 37.5938 65.9219
Q27.8281 65.9219 22.6719 59.3281
Q17.5312 52.7344 16.7969 39.4062
Q19.6719 43.6562 24.0156 45.9219
Q28.375 48.1875 33.5938 48.1875
Q44.5781 48.1875 50.9531 41.5156
Q57.3281 34.8594 57.3281 23.3906
Q57.3281 12.1562 50.6875 5.35938
Q44.0469 -1.42188 33.0156 -1.42188
Q20.3594 -1.42188 13.6719 8.26562
Q6.98438 17.9688 6.98438 36.375
Q6.98438 53.6562 15.1875 63.9375
Q23.3906 74.2188 37.2031 74.2188
Q40.9219 74.2188 44.7031 73.4844
Q48.4844 72.75 52.5938 71.2969" id="BitstreamVeraSans-Roman-36"/>
      </defs>
      <g transform="translate(326.003613538 412.426372041)scale(0.1 -0.1)">
       <use xlink:href="#BitstreamVeraSans-Roman-36"/>
       <use x="63.623046875" xlink:href="#BitstreamVeraSans-Roman-65"/>
       <use x="125.146484375" xlink:href="#BitstreamVeraSans-Roman-37"/>
      </g>
     </g>
    </g>
    <g id="xtick_5">
     <g id="line2d_6">
      <defs>
       <path d="
M0 0
L0 -4" id="me2ec79df32"/>
      </defs>
      <g>
       <use style="stroke:#000000;stroke-linecap:butt;stroke-width:0.5;" x="440.300540771" xlink:href="#me2ec79df32" y="401.004497041"/>
      </g>
     </g>
     <g id="text_4">
      <!-- 8e7 -->
      <defs>
       <path d="
M31.7812 34.625
Q24.75 34.625 20.7188 30.8594
Q16.7031 27.0938 16.7031 20.5156
Q16.7031 13.9219 20.7188 10.1562
Q24.75 6.39062 31.7812 6.39062
Q38.8125 6.39062 42.8594 10.1719
Q46.9219 13.9688 46.9219 20.5156
Q46.9219 27.0938 42.8906 30.8594
Q38.875 34.625 31.7812 34.625
M21.9219 38.8125
Q15.5781 40.375 12.0312 44.7188
Q8.5 49.0781 8.5 55.3281
Q8.5 64.0625 14.7188 69.1406
Q20.9531 74.2188 31.7812 74.2188
Q42.6719 74.2188 48.875 69.1406
Q55.0781 64.0625 55.0781 55.3281
Q55.0781 49.0781 51.5312 44.7188
Q48 40.375 41.7031 38.8125
Q48.8281 37.1562 52.7969 32.3125
Q56.7812 27.4844 56.7812 20.5156
Q56.7812 9.90625 50.3125 4.23438
Q43.8438 -1.42188 31.7812 -1.42188
Q19.7344 -1.42188 13.25 4.23438
Q6.78125 9.90625 6.78125 20.5156
Q6.78125 27.4844 10.7812 32.3125
Q14.7969 37.1562 21.9219 38.8125
M18.3125 54.3906
Q18.3125 48.7344 21.8438 45.5625
Q25.3906 42.3906 31.7812 42.3906
Q38.1406 42.3906 41.7188 45.5625
Q45.3125 48.7344 45.3125 54.3906
Q45.3125 60.0625 41.7188 63.2344
Q38.1406 66.4062 31.7812 66.4062
Q25.3906 66.4062 21.8438 63.2344
Q18.3125 60.0625 18.3125 54.3906" id="BitstreamVeraSans-Roman-38"/>
      </defs>
      <g transform="translate(431.627884521 412.426372041)scale(0.1 -0.1)">
       <use xlink:href="#BitstreamVeraSans-Roman-38"/>
       <use x="63.623046875" xlink:href="#BitstreamVeraSans-Roman-65"/>
       <use x="125.146484375" xlink:href="#BitstreamVeraSans-Roman-37"/>
      </g>
     </g>
    </g>
    <g id="xtick_6">
     <g id="line2d_7">
      <defs>
       <path d="
M0 0
L0 -4" id="me2ec79df32"/>
      </defs>
      <g>
       <use style="stroke:#000000;stroke-linecap:butt;stroke-width:0.5;" x="545.934968004" xlink:href="#me2ec79df32" y="401.004497041"/>
      </g>
     </g>
     <g id="text_5">
      <!-- 1e8 -->
      <defs>
       <path d="
M12.4062 8.29688
L28.5156 8.29688
L28.5156 63.9219
L10.9844 60.4062
L10.9844 69.3906
L28.4219 72.9062
L38.2812 72.9062
L38.2812 8.29688
L54.3906 8.29688
L54.3906 0
L12.4062 0
z
" id="BitstreamVeraSans-Roman-31"/>
      </defs>
      <g transform="translate(537.387311754 412.426372041)scale(0.1 -0.1)">
       <use xlink:href="#BitstreamVeraSans-Roman-31"/>
       <use x="63.623046875" xlink:href="#BitstreamVeraSans-Roman-65"/>
       <use x="125.146484375" xlink:href="#BitstreamVeraSans-Roman-38"/>
      </g>
     </g>
    </g>
    <g id="xtick_7">
     <g id="line2d_8">
      <defs>
       <path d="
M0 0
L0 -2" id="m9c5732dfff"/>
      </defs>
      <g>
       <use style="stroke:#000000;stroke-linecap:butt;stroke-width:0.5;" x="44.1714386477" xlink:href="#m9c5732dfff" y="401.004497041"/>
      </g>
     </g>
    </g>
    <g id="xtick_8">
     <g id="line2d_9">
      <defs>
       <path d="
M0 0
L0 -2" id="m9c5732dfff"/>
      </defs>
      <g>
       <use style="stroke:#000000;stroke-linecap:butt;stroke-width:0.5;" x="70.5800454559" xlink:href="#m9c5732dfff" y="401.004497041"/>
      </g>
     </g>
    </g>
    <g id="xtick_9">
     <g id="line2d_10">
      <defs>
       <path d="
M0 0
L0 -2" id="m9c5732dfff"/>
      </defs>
      <g>
       <use style="stroke:#000000;stroke-linecap:butt;stroke-width:0.5;" x="96.9886522642" xlink:href="#m9c5732dfff" y="401.004497041"/>
      </g>
     </g>
    </g>
    <g id="xtick_10">
     <g id="line2d_11">
      <defs>
       <path d="
M0 0
L0 -2" id="m9c5732dfff"/>
      </defs>
      <g>
       <use style="stroke:#000000;stroke-linecap:butt;stroke-width:0.5;" x="149.805865881" xlink:href="#m9c5732dfff" y="401.004497041"/>
      </g>
     </g>
    </g>
    <g id="xtick_11">
     <g id="line2d_12">
      <defs>
       <path d="
M0 0
L0 -2" id="m9c5732dfff"/>
      </defs>
      <g>
       <use style="stroke:#000000;stroke-linecap:butt;stroke-width:0.5;" x="176.214472689" xlink:href="#m9c5732dfff" y="401.004497041"/>
      </g>
     </g>
    </g>
    <g id="xtick_12">
     <g id="line2d_13">
      <defs>
       <path d="
M0 0
L0 -2" id="m9c5732dfff"/>
      </defs>
      <g>
       <use style="stroke:#000000;stroke-linecap:butt;stroke-width:0.5;" x="202.623079497" xlink:href="#m9c5732dfff" y="401.004497041"/>
      </g>
     </g>
    </g>
    <g id="xtick_13">
     <g id="line2d_14">
      <defs>
       <path d="
M0 0
L0 -2" id="m9c5732dfff"/>
      </defs>
      <g>
       <use style="stroke:#000000;stroke-linecap:butt;stroke-width:0.5;" x="255.440293114" xlink:href="#m9c5732dfff" y="401.004497041"/>
      </g>
     </g>
    </g>
    <g id="xtick_14">
     <g id="line2d_15">
      <defs>
       <path d="
M0 0
L0 -2" id="m9c5732dfff"/>
      </defs>
      <g>
       <use style="stroke:#000000;stroke-linecap:butt;stroke-width:0.5;" x="281.848899922" xlink:href="#m9c5732dfff" y="401.004497041"/>
      </g>
     </g>
    </g>
    <g id="xtick_15">
     <g id="line2d_16">
      <defs>
       <path d="
M0 0
L0 -2" id="m9c5732dfff"/>
      </defs>
      <g>
       <use style="stroke:#000000;stroke-linecap:butt;stroke-width:0.5;" x="308.25750673" xlink:href="#m9c5732dfff" y="401.004497041"/>
      </g>
     </g>
    </g>
    <g id="xtick_16">
     <g id="line2d_17">
      <defs>
       <path d="
M0 0
L0 -2" id="m9c5732dfff"/>
      </defs>
      <g>
       <use style="stroke:#000000;stroke-linecap:butt;stroke-width:0.5;" x="361.074720347" xlink:href="#m9c5732dfff" y="401.004497041"/>
      </g>
     </g>
    </g>
    <g id="xtick_17">
     <g id="line2d_18">
      <defs>
       <path d="
M0 0
L0 -2" id="m9c5732dfff"/>
      </defs>
      <g>
       <use style="stroke:#000000;stroke-linecap:butt;stroke-width:0.5;" x="387.483327155" xlink:href="#m9c5732dfff" y="401.004497041"/>
      </g>
     </g>
    </g>
    <g id="xtick_18">
     <g id="line2d_19">
      <defs>
       <path d="
M0 0
L0 -2" id="m9c5732dfff"/>
      </defs>
      <g>
       <use style="stroke:#000000;stroke-linecap:butt;stroke-width:0.5;" x="413.891933963" xlink:href="#m9c5732dfff" y="401.004497041"/>
      </g>
     </g>
    </g>
    <g id="xtick_19">
     <g id="line2d_20">
      <defs>
       <path d="
M0 0
L0 -2" id="m9c5732dfff"/>
      </defs>
      <g>
       <use style="stroke:#000000;stroke-linecap:butt;stroke-width:0.5;" x="466.70914758" xlink:href="#m9c5732dfff" y="401.004497041"/>
      </g>
     </g>
    </g>
    <g id="xtick_20">
     <g id="line2d_21">
      <defs>
       <path d="
M0 0
L0 -2" id="m9c5732dfff"/>
      </defs>
      <g>
       <use style="stroke:#000000;stroke-linecap:butt;stroke-width:0.5;" x="493.117754388" xlink:href="#m9c5732dfff" y="401.004497041"/>
      </g>
     </g>
    </g>
    <g id="xtick_21">
     <g id="line2d_22">
      <defs>
       <path d="
M0 0
L0 -2" id="m9c5732dfff"/>
      </defs>
      <g>
       <use style="stroke:#000000;stroke-linecap:butt;stroke-width:0.5;" x="519.526361196" xlink:href="#m9c5732dfff" y="401.004497041"/>
      </g>
     </g>
    </g>
   </g>
   <g id="matplotlib.axis_2">
    <g id="ytick_1">
     <g id="line2d_23">
      <defs>
       <path d="
M0 0
L4 0" id="m43bc6b1b30"/>
      </defs>
      <g>
       <use style="stroke:#000000;stroke-linecap:butt;stroke-width:0.5;" x="17.7628318394" xlink:href="#m43bc6b1b30" y="401.004497041"/>
      </g>
     </g>
    </g>
    <g id="ytick_2">
     <g id="line2d_24">
      <defs>
       <path d="
M0 0
L4 0" id="m43bc6b1b30"/>
      </defs>
      <g>
       <use style="stroke:#000000;stroke-linecap:butt;stroke-width:0.5;" x="17.7628318394" xlink:href="#m43bc6b1b30" y="315.95636668"/>
      </g>
     </g>
     <g id="text_6">
      <!-- 1 -->
      <g transform="translate(9.42220683941 319.60167918)scale(0.1 -0.1)">
       <use xlink:href="#BitstreamVeraSans-Roman-31"/>
      </g>
     </g>
    </g>
    <g id="ytick_3">
     <g id="line2d_25">
      <defs>
       <path d="
M0 0
L4 0" id="m43bc6b1b30"/>
      </defs>
      <g>
       <use style="stroke:#000000;stroke-linecap:butt;stroke-width:0.5;" x="17.7628318394" xlink:href="#m43bc6b1b30" y="230.908236318"/>
      </g>
     </g>
     <g id="text_7">
      <!-- 2 -->
      <g transform="translate(9.13470683941 234.619173818)scale(0.1 -0.1)">
       <use xlink:href="#BitstreamVeraSans-Roman-32"/>
      </g>
     </g>
    </g>
    <g id="ytick_4">
     <g id="line2d_26">
      <defs>
       <path d="
M0 0
L4 0" id="m43bc6b1b30"/>
      </defs>
      <g>
       <use style="stroke:#000000;stroke-linecap:butt;stroke-width:0.5;" x="17.7628318394" xlink:href="#m43bc6b1b30" y="145.860105956"/>
      </g>
     </g>
     <g id="text_8">
      <!-- 3 -->
      <defs>
       <path d="
M40.5781 39.3125
Q47.6562 37.7969 51.625 33
Q55.6094 28.2188 55.6094 21.1875
Q55.6094 10.4062 48.1875 4.48438
Q40.7656 -1.42188 27.0938 -1.42188
Q22.5156 -1.42188 17.6562 -0.515625
Q12.7969 0.390625 7.625 2.20312
L7.625 11.7188
Q11.7188 9.32812 16.5938 8.10938
Q21.4844 6.89062 26.8125 6.89062
Q36.0781 6.89062 40.9375 10.5469
Q45.7969 14.2031 45.7969 21.1875
Q45.7969 27.6406 41.2812 31.2656
Q36.7656 34.9062 28.7188 34.9062
L20.2188 34.9062
L20.2188 43.0156
L29.1094 43.0156
Q36.375 43.0156 40.2344 45.9219
Q44.0938 48.8281 44.0938 54.2969
Q44.0938 59.9062 40.1094 62.9062
Q36.1406 65.9219 28.7188 65.9219
Q24.6562 65.9219 20.0156 65.0312
Q15.375 64.1562 9.8125 62.3125
L9.8125 71.0938
Q15.4375 72.6562 20.3438 73.4375
Q25.25 74.2188 29.5938 74.2188
Q40.8281 74.2188 47.3594 69.1094
Q53.9062 64.0156 53.9062 55.3281
Q53.9062 49.2656 50.4375 45.0938
Q46.9688 40.9219 40.5781 39.3125" id="BitstreamVeraSans-Roman-33"/>
      </defs>
      <g transform="translate(8.96439433941 149.499949706)scale(0.1 -0.1)">
       <use xlink:href="#BitstreamVeraSans-Roman-33"/>
      </g>
     </g>
    </g>
    <g id="ytick_5">
     <g id="line2d_27">
      <defs>
       <path d="
M0 0
L4 0" id="m43bc6b1b30"/>
      </defs>
      <g>
       <use style="stroke:#000000;stroke-linecap:butt;stroke-width:0.5;" x="17.7628318394" xlink:href="#m43bc6b1b30" y="60.8119755945"/>
      </g>
     </g>
     <g id="text_9">
      <!-- 4 -->
      <g transform="translate(8.45033183941 64.4572880945)scale(0.1 -0.1)">
       <use xlink:href="#BitstreamVeraSans-Roman-34"/>
      </g>
     </g>
    </g>
    <g id="ytick_6">
     <g id="line2d_28">
      <defs>
       <path d="
M0 0
L2 0" id="m990e956c1b"/>
      </defs>
      <g>
       <use style="stroke:#000000;stroke-linecap:butt;stroke-width:0.5;" x="17.7628318394" xlink:href="#m990e956c1b" y="383.994870969"/>
      </g>
     </g>
    </g>
    <g id="ytick_7">
     <g id="line2d_29">
      <defs>
       <path d="
M0 0
L2 0" id="m990e956c1b"/>
      </defs>
      <g>
       <use style="stroke:#000000;stroke-linecap:butt;stroke-width:0.5;" x="17.7628318394" xlink:href="#m990e956c1b" y="366.985244897"/>
      </g>
     </g>
    </g>
    <g id="ytick_8">
     <g id="line2d_30">
      <defs>
       <path d="
M0 0
L2 0" id="m990e956c1b"/>
      </defs>
      <g>
       <use style="stroke:#000000;stroke-linecap:butt;stroke-width:0.5;" x="17.7628318394" xlink:href="#m990e956c1b" y="349.975618824"/>
      </g>
     </g>
    </g>
    <g id="ytick_9">
     <g id="line2d_31">
      <defs>
       <path d="
M0 0
L2 0" id="m990e956c1b"/>
      </defs>
      <g>
       <use style="stroke:#000000;stroke-linecap:butt;stroke-width:0.5;" x="17.7628318394" xlink:href="#m990e956c1b" y="332.965992752"/>
      </g>
     </g>
    </g>
    <g id="ytick_10">
     <g id="line2d_32">
      <defs>
       <path d="
M0 0
L2 0" id="m990e956c1b"/>
      </defs>
      <g>
       <use style="stroke:#000000;stroke-linecap:butt;stroke-width:0.5;" x="17.7628318394" xlink:href="#m990e956c1b" y="315.95636668"/>
      </g>
     </g>
    </g>
    <g id="ytick_11">
     <g id="line2d_33">
      <defs>
       <path d="
M0 0
L2 0" id="m990e956c1b"/>
      </defs>
      <g>
       <use style="stroke:#000000;stroke-linecap:butt;stroke-width:0.5;" x="17.7628318394" xlink:href="#m990e956c1b" y="298.946740607"/>
      </g>
     </g>
    </g>
    <g id="ytick_12">
     <g id="line2d_34">
      <defs>
       <path d="
M0 0
L2 0" id="m990e956c1b"/>
      </defs>
      <g>
       <use style="stroke:#000000;stroke-linecap:butt;stroke-width:0.5;" x="17.7628318394" xlink:href="#m990e956c1b" y="281.937114535"/>
      </g>
     </g>
    </g>
    <g id="ytick_13">
     <g id="line2d_35">
      <defs>
       <path d="
M0 0
L2 0" id="m990e956c1b"/>
      </defs>
      <g>
       <use style="stroke:#000000;stroke-linecap:butt;stroke-width:0.5;" x="17.7628318394" xlink:href="#m990e956c1b" y="264.927488463"/>
      </g>
     </g>
    </g>
    <g id="ytick_14">
     <g id="line2d_36">
      <defs>
       <path d="
M0 0
L2 0" id="m990e956c1b"/>
      </defs>
      <g>
       <use style="stroke:#000000;stroke-linecap:butt;stroke-width:0.5;" x="17.7628318394" xlink:href="#m990e956c1b" y="247.91786239"/>
      </g>
     </g>
    </g>
    <g id="ytick_15">
     <g id="line2d_37">
      <defs>
       <path d="
M0 0
L2 0" id="m990e956c1b"/>
      </defs>
      <g>
       <use style="stroke:#000000;stroke-linecap:butt;stroke-width:0.5;" x="17.7628318394" xlink:href="#m990e956c1b" y="230.908236318"/>
      </g>
     </g>
    </g>
    <g id="ytick_16">
     <g id="line2d_38">
      <defs>
       <path d="
M0 0
L2 0" id="m990e956c1b"/>
      </defs>
      <g>
       <use style="stroke:#000000;stroke-linecap:butt;stroke-width:0.5;" x="17.7628318394" xlink:href="#m990e956c1b" y="213.898610246"/>
      </g>
     </g>
    </g>
    <g id="ytick_17">
     <g id="line2d_39">
      <defs>
       <path d="
M0 0
L2 0" id="m990e956c1b"/>
      </defs>
      <g>
       <use style="stroke:#000000;stroke-linecap:butt;stroke-width:0.5;" x="17.7628318394" xlink:href="#m990e956c1b" y="196.888984173"/>
      </g>
     </g>
    </g>
    <g id="ytick_18">
     <g id="line2d_40">
      <defs>
       <path d="
M0 0
L2 0" id="m990e956c1b"/>
      </defs>
      <g>
       <use style="stroke:#000000;stroke-linecap:butt;stroke-width:0.5;" x="17.7628318394" xlink:href="#m990e956c1b" y="179.879358101"/>
      </g>
     </g>
    </g>
    <g id="ytick_19">
     <g id="line2d_41">
      <defs>
       <path d="
M0 0
L2 0" id="m990e956c1b"/>
      </defs>
      <g>
       <use style="stroke:#000000;stroke-linecap:butt;stroke-width:0.5;" x="17.7628318394" xlink:href="#m990e956c1b" y="162.869732029"/>
      </g>
     </g>
    </g>
    <g id="ytick_20">
     <g id="line2d_42">
      <defs>
       <path d="
M0 0
L2 0" id="m990e956c1b"/>
      </defs>
      <g>
       <use style="stroke:#000000;stroke-linecap:butt;stroke-width:0.5;" x="17.7628318394" xlink:href="#m990e956c1b" y="145.860105956"/>
      </g>
     </g>
    </g>
    <g id="ytick_21">
     <g id="line2d_43">
      <defs>
       <path d="
M0 0
L2 0" id="m990e956c1b"/>
      </defs>
      <g>
       <use style="stroke:#000000;stroke-linecap:butt;stroke-width:0.5;" x="17.7628318394" xlink:href="#m990e956c1b" y="128.850479884"/>
      </g>
     </g>
    </g>
    <g id="ytick_22">
     <g id="line2d_44">
      <defs>
       <path d="
M0 0
L2 0" id="m990e956c1b"/>
      </defs>
      <g>
       <use style="stroke:#000000;stroke-linecap:butt;stroke-width:0.5;" x="17.7628318394" xlink:href="#m990e956c1b" y="111.840853812"/>
      </g>
     </g>
    </g>
    <g id="ytick_23">
     <g id="line2d_45">
      <defs>
       <path d="
M0 0
L2 0" id="m990e956c1b"/>
      </defs>
      <g>
       <use style="stroke:#000000;stroke-linecap:butt;stroke-width:0.5;" x="17.7628318394" xlink:href="#m990e956c1b" y="94.8312277392"/>
      </g>
     </g>
    </g>
    <g id="ytick_24">
     <g id="line2d_46">
      <defs>
       <path d="
M0 0
L2 0" id="m990e956c1b"/>
      </defs>
      <g>
       <use style="stroke:#000000;stroke-linecap:butt;stroke-width:0.5;" x="17.7628318394" xlink:href="#m990e956c1b" y="77.8216016669"/>
      </g>
     </g>
    </g>
    <g id="ytick_25">
     <g id="line2d_47">
      <defs>
       <path d="
M0 0
L2 0" id="m990e956c1b"/>
      </defs>
      <g>
       <use style="stroke:#000000;stroke-linecap:butt;stroke-width:0.5;" x="17.7628318394" xlink:href="#m990e956c1b" y="60.8119755945"/>
      </g>
     </g>
    </g>
    <g id="ytick_26">
     <g id="line2d_48">
      <defs>
       <path d="
M0 0
L2 0" id="m990e956c1b"/>
      </defs>
      <g>
       <use style="stroke:#000000;stroke-linecap:butt;stroke-width:0.5;" x="17.7628318394" xlink:href="#m990e956c1b" y="43.8023495222"/>
      </g>
     </g>
    </g>
    <g id="ytick_27">
     <g id="line2d_49">
      <defs>
       <path d="
M0 0
L2 0" id="m990e956c1b"/>
      </defs>
      <g>
       <use style="stroke:#000000;stroke-linecap:butt;stroke-width:0.5;" x="17.7628318394" xlink:href="#m990e956c1b" y="26.7927234498"/>
      </g>
     </g>
    </g>
   </g>
   <g id="patch_3">
    <path d="
M7.2 401.004
L556.468 401.004" style="fill:none;stroke:#000000;stroke-width:0.8;"/>
   </g>
   <g id="patch_4">
    <path d="
M17.7628 408.726
L17.7628 7.2" style="fill:none;stroke:#000000;stroke-width:0.8;"/>
   </g>
  </g>
 </g>
 <defs>
  <clipPath id="p8536303459">
   <rect height="401.526153846" width="549.267804948" x="7.2" y="7.2"/>
  </clipPath>
 </defs>
</svg>
