<?xml version="1.0" encoding="utf-8" standalone="no"?>
<!DOCTYPE svg PUBLIC "-//W3C//DTD SVG 1.1//EN"
  "http://www.w3.org/Graphics/SVG/1.1/DTD/svg11.dtd">
<!-- Created with matplotlib (http://matplotlib.sourceforge.net/) -->
<svg height="419pt" version="1.1" viewBox="0 0 562 419" width="562pt" xmlns="http://www.w3.org/2000/svg" xmlns:xlink="http://www.w3.org/1999/xlink">
 <defs>
  <style type="text/css">
*{stroke-linecap:square;stroke-linejoin:round;}
  </style>
 </defs>
 <g id="figure_1">
  <g id="patch_1">
   <path d="
M4.44089e-16 419.769
L562.676 419.769
L562.676 0
L4.44089e-16 0
z
" style="fill:#ffffff;"/>
  </g>
  <g id="axes_1">
   <g id="patch_2">
    <path d="
M15.18 408.726
L555.476 408.726
L555.476 7.2
L15.18 7.2
z
" style="fill:#ffffff;"/>
   </g>
   <g id="line2d_1">
    <path clip-path="url(#pbdfec9549d)" d="
M25.5703 401.004
L25.6187 401.004
L25.6763 14.9217
L25.7378 14.9217
L25.8003 28.0951
L25.8655 28.0951
L25.9326 38.2237
L25.9989 38.2237
L26.0671 59.3796
L26.1369 59.3796
L26.2067 80.7093
L26.2774 80.7093
L26.3482 99.4002
L26.4201 99.4002
L26.493 106.774
L26.5651 106.774
L26.6383 111.032
L26.7117 111.032
L26.7854 118.417
L26.8595 118.417
L26.9349 126.185
L27.0087 126.185
L27.0845 135.597
L27.1607 135.597
L27.2353 142.342
L27.311 142.342
L27.3874 146.438
L27.4642 146.438
L27.542 149.813
L27.618 149.813
L27.6972 152.035
L27.7739 152.035
L27.851 153.624
L27.9295 153.624
L28.0084 155.148
L28.0852 155.148
L28.1637 157.35
L28.2426 157.35
L28.3205 158.922
L28.6377 158.939
L28.7178 159.461
L28.7967 159.461
L28.8778 160.383
L28.9596 160.383
L29.0392 161.206
L29.1201 161.206
L29.1996 162.542
L29.2795 162.542
L29.3607 164.036
L29.443 164.036
L29.5241 165.373
L29.6047 165.373
L29.6854 166.716
L29.7663 166.716
L29.8474 167.513
L29.929 167.513
L29.929 167.71
L30.012 167.626
L30.0919 167.626
L30.0919 167.512
L30.1742 167.561
L30.2568 167.561
L30.3389 167.954
L30.421 167.954
L30.5043 168.602
L30.5866 168.602
L30.6704 169.184
L30.7538 169.184
L30.835 169.547
L31.0007 169.547
L31.0859 169.863
L31.1693 169.863
L31.2519 170.575
L31.3336 170.575
L31.4174 171.297
L31.5003 171.297
L31.5845 171.998
L31.667 171.998
L31.7483 172.691
L31.8338 172.691
L31.9173 173.197
L32.0037 173.197
L32.0876 173.883
L32.1699 173.883
L32.2544 174.512
L32.3393 174.512
L32.4235 174.826
L33.1014 174.897
L33.1847 175.183
L33.2702 175.183
L33.3548 175.634
L33.4383 175.634
L33.5251 176.094
L33.6118 176.094
L33.6969 176.731
L33.7828 176.731
L33.87 177.284
L33.9556 177.284
L34.0399 177.833
L34.1261 177.833
L34.212 178.386
L34.2962 178.386
L34.3835 179.035
L34.4689 179.035
L34.5557 179.922
L34.6431 179.922
L34.7298 180.931
L34.8151 180.931
L34.9008 181.709
L34.9864 181.709
L35.0719 182.488
L35.1592 182.488
L35.2444 183.19
L35.3299 183.19
L35.4162 183.752
L35.5034 183.752
L35.5885 184.462
L35.6751 184.462
L35.7621 185.093
L35.8521 185.093
L35.938 185.653
L36.0231 185.653
L36.1091 185.884
L36.196 185.884
L36.2838 186.146
L36.3715 186.146
L36.4587 186.372
L36.6328 186.448
L36.7188 186.608
L36.8055 186.608
L36.8932 186.895
L36.9813 186.895
L37.0691 187.263
L37.2457 187.366
L37.3323 187.629
L37.4181 187.629
L37.508 187.948
L37.5957 187.948
L37.6854 188.207
L37.8604 188.302
L37.9488 188.479
L38.1249 188.552
L38.2137 188.734
L38.302 188.734
L38.389 188.962
L38.5667 189.062
L38.6551 189.182
L38.9196 189.27
L39.0056 189.375
L39.1835 189.46
L39.272 189.622
L39.4491 189.718
L39.5376 190.003
L39.6246 190.003
L39.7127 190.247
L39.893 190.34
L39.9809 190.453
L40.2444 190.554
L40.3329 190.647
L40.6024 190.742
L40.6912 190.856
L40.8707 190.931
L40.9609 191.054
L41.1388 191.13
L41.2267 191.287
L41.4079 191.39
L41.4995 191.567
L41.9445 191.66
L42.0334 191.695
L42.3865 191.803
L42.4776 191.914
L42.6567 192.001
L42.7479 192.216
L42.8377 192.216
L42.9276 192.476
L43.0195 192.476
L43.109 192.698
L43.2876 192.805
L43.3768 192.97
L43.5565 193.054
L43.6494 193.18
L44.0168 193.276
L44.1062 193.328
L44.3747 193.431
L44.4637 193.52
L44.6477 193.591
L44.7363 193.745
L44.9163 193.82
L45.0054 193.955
L45.1892 194.019
L45.28 194.134
L45.5496 194.231
L45.6414 194.343
L45.8223 194.404
L45.9141 194.52
L46.0933 194.602
L46.1876 194.817
L46.2791 194.817
L46.3714 195.072
L46.5512 195.179
L46.6412 195.398
L46.8231 195.492
L46.9138 195.616
L47.19 195.72
L47.2811 195.873
L47.4616 195.942
L47.5539 196.053
L47.7368 196.124
L47.8299 196.277
L48.013 196.359
L48.1052 196.518
L48.2901 196.599
L48.3815 196.73
L48.5639 196.794
L48.653 196.899
L48.9254 197.006
L49.0187 197.053
L49.8473 197.161
L49.937 197.271
L50.1214 197.338
L50.2122 197.42
L50.4921 197.529
L50.5836 197.658
L50.7675 197.722
L50.8587 197.832
L51.1335 197.939
L51.2257 198.069
L51.4979 198.174
L51.5918 198.244
L51.8706 198.343
L51.9627 198.457
L52.2402 198.567
L52.3331 198.663
L52.6113 198.752
L52.7033 198.835
L53.0732 198.945
L53.1662 199.049
L53.444 199.153
L53.5354 199.253
L53.7227 199.323
L53.8156 199.444
L54.0007 199.501
L54.0946 199.624
L54.2818 199.696
L54.3752 199.837
L54.5621 199.903
L54.6551 200.04
L54.9358 200.142
L55.0308 200.198
L55.6841 200.299
L55.777 200.358
L56.0579 200.458
L56.1493 200.567
L56.4249 200.672
L56.5191 200.798
L56.7076 200.866
L56.7995 200.967
L57.0819 201.039
L57.1759 201.101
L58.0196 201.015
L58.112 200.966
L58.8626 200.881
L58.956 200.791
L59.2401 200.694
L59.3341 200.595
L59.6149 200.51
L59.7083 200.431
L60.1789 200.331
L60.2728 200.293
L60.8357 200.188
L60.9305 200.15
L61.3963 200.043
L61.4916 199.937
L61.7719 199.829
L61.8681 199.715
L62.0562 199.654
L62.1484 199.558
L62.4312 199.471
L62.524 199.394
L62.9065 199.288
L62.9997 199.222
L63.3775 199.116
L63.4719 199.05
L63.8519 198.948
L63.9454 198.878
L64.3253 198.784
L64.4209 198.711
L64.8018 198.624
L64.8972 198.558
L66.0384 198.45
L66.1322 198.426
L66.6039 198.341
L66.6996 198.276
L67.0792 198.175
L67.176 198.143
L68.6067 198.053
L68.7016 198.009
L69.1792 197.902
L69.2751 197.862
L69.8484 197.757
L69.9422 197.712
L70.6082 197.616
L70.7047 197.585
L71.2749 197.496
L71.3713 197.446
L71.8542 197.347
L71.9468 197.304
L72.5264 197.194
L72.6233 197.147
L73.5798 197.051
L73.6741 197.016
L74.4439 196.916
L74.5417 196.882
L75.0243 196.792
L75.1205 196.744
L75.5034 196.657
L75.5989 196.591
L75.985 196.514
L76.082 196.435
L76.371 196.347
L76.4671 196.247
L76.7572 196.153
L76.8539 196.056
L77.1456 195.955
L77.2412 195.849
L77.5355 195.74
L77.6316 195.631
L77.9189 195.532
L78.0148 195.433
L78.3034 195.342
L78.4013 195.249
L78.6944 195.149
L78.7913 195.064
L79.177 194.961
L79.2732 194.892
L79.5641 194.814
L79.6596 194.726
L79.9477 194.625
L80.0439 194.523
L80.2369 194.463
L80.3343 194.343
L80.527 194.28
L80.6227 194.15
L80.8173 194.083
L80.9128 193.95
L81.1036 193.886
L81.2004 193.766
L81.4919 193.66
L81.5903 193.555
L81.8828 193.47
L81.9778 193.382
L82.2696 193.276
L82.3655 193.176
L82.6558 193.07
L82.7536 192.978
L83.0445 192.891
L83.1406 192.802
L83.4347 192.711
L83.5299 192.613
L83.8191 192.508
L83.9185 192.399
L84.211 192.29
L84.3091 192.183
L84.6004 192.081
L84.6993 191.967
L84.8941 191.911
L84.9924 191.798
L85.2831 191.693
L85.3802 191.593
L85.6687 191.491
L85.7659 191.392
L86.0579 191.302
L86.1529 191.211
L86.4467 191.122
L86.5442 191.032
L86.8364 190.932
L86.9327 190.85
L87.2268 190.768
L87.324 190.698
L87.7111 190.602
L87.8109 190.551
L88.2987 190.446
L88.3981 190.388
L88.7883 190.286
L88.8866 190.215
L89.1788 190.134
L89.2775 190.054
L89.6663 189.955
L89.7646 189.904
L90.2489 189.809
L90.3475 189.771
L90.9379 189.661
L91.0351 189.62
L91.5247 189.528
L91.6223 189.48
L92.106 189.376
L92.2052 189.309
L92.598 189.216
L92.6971 189.164
L93.0927 189.071
L93.1902 189.006
L93.5869 188.895
L93.6858 188.839
L94.1751 188.734
L94.2728 188.673
L94.6678 188.583
L94.764 188.523
L95.2571 188.419
L95.3556 188.364
L95.751 188.27
L95.8504 188.204
L96.1463 188.123
L96.2443 188.039
L96.5366 187.952
L96.6324 187.86
L96.9293 187.766
L97.0256 187.666
L97.3211 187.562
L97.4197 187.459
L97.7126 187.367
L97.8085 187.285
L98.1061 187.193
L98.207 187.093
L98.5039 186.992
L98.605 186.898
L98.896 186.808
L98.9958 186.713
L99.2933 186.617
L99.3937 186.517
L99.6872 186.422
L99.7849 186.331
L100.081 186.235
L100.175 186.158
L100.47 186.08
L100.57 186.001
L100.966 185.897
L101.065 185.835
L101.459 185.735
L101.561 185.673
L101.956 185.589
L102.053 185.523
L102.447 185.427
L102.546 185.354
L102.942 185.247
L103.043 185.178
L103.442 185.083
L103.539 185.017
L103.936 184.916
L104.033 184.846
L104.429 184.754
L104.531 184.689
L104.924 184.586
L105.023 184.521
L105.419 184.421
L105.521 184.352
L106.022 184.241
L106.118 184.19
L106.608 184.089
L106.707 184.042
L107.202 183.945
L107.303 183.892
L107.801 183.792
L107.9 183.756
L108.493 183.666
L108.591 183.618
L109.089 183.526
L109.19 183.48
L109.787 183.372
L109.885 183.323
L110.382 183.223
L110.485 183.169
L110.98 183.075
L111.082 183.031
L111.581 182.932
L111.681 182.882
L112.175 182.775
L112.274 182.706
L112.671 182.599
L112.77 182.523
L113.067 182.443
L113.168 182.357
L113.467 182.274
L113.568 182.188
L113.861 182.101
L113.959 182.014
L114.257 181.927
L114.358 181.837
L114.658 181.747
L114.76 181.658
L115.063 181.576
L115.161 181.492
L115.459 181.406
L115.557 181.323
L115.856 181.237
L115.955 181.152
L116.252 181.072
L116.352 180.99
L116.648 180.91
L116.746 180.824
L117.046 180.736
L117.146 180.647
L117.448 180.553
L117.547 180.466
L117.852 180.382
L117.95 180.3
L118.25 180.217
L118.353 180.13
L118.652 180.051
L118.751 179.973
L119.145 179.87
L119.246 179.805
L119.65 179.711
L119.751 179.653
L120.154 179.558
L120.253 179.494
L120.648 179.398
L120.746 179.333
L121.152 179.245
L121.249 179.188
L121.654 179.099
L121.757 179.043
L122.255 178.95
L122.353 178.903
L122.953 178.802
L123.053 178.761
L123.556 178.657
L123.656 178.608
L124.159 178.506
L124.259 178.451
L124.761 178.353
L124.865 178.303
L125.365 178.206
L125.467 178.157
L125.868 178.069
L125.967 178.008
L126.368 177.913
L126.466 177.858
L126.969 177.753
L127.072 177.697
L127.479 177.61
L127.577 177.552
L128.082 177.446
L128.18 177.397
L128.681 177.299
L128.781 177.245
L129.184 177.15
L129.281 177.081
L129.684 176.985
L129.783 176.925
L130.289 176.833
L130.387 176.793
L130.997 176.695
L131.096 176.656
L131.807 176.548
L131.906 176.511
L132.51 176.416
L132.61 176.376
L133.112 176.283
L133.21 176.233
L133.717 176.136
L133.822 176.094
L134.529 175.992
L134.627 175.952
L135.13 175.858
L135.232 175.813
L135.74 175.713
L135.843 175.653
L136.345 175.546
L136.445 175.491
L136.952 175.393
L137.049 175.344
L137.557 175.252
L137.659 175.208
L138.163 175.117
L138.263 175.071
L138.766 174.978
L138.869 174.935
L139.472 174.834
L139.571 174.793
L140.074 174.704
L140.175 174.658
L140.689 174.553
L140.79 174.497
L141.2 174.412
L141.302 174.355
L141.708 174.269
L141.81 174.211
L142.221 174.127
L142.32 174.07
L142.823 173.962
L142.922 173.909
L143.431 173.812
L143.53 173.767
L144.039 173.668
L144.142 173.614
L144.643 173.513
L144.746 173.464
L145.25 173.369
L145.352 173.317
L145.763 173.228
L145.864 173.17
L146.271 173.083
L146.372 173.021
L146.772 172.934
L146.876 172.876
L147.285 172.79
L147.386 172.734
L147.792 172.645
L147.893 172.583
L148.3 172.488
L148.401 172.426
L148.81 172.335
L148.913 172.276
L149.422 172.165
L149.526 172.109
L149.929 172.024
L150.031 171.965
L150.538 171.86
L150.639 171.809
L151.148 171.717
L151.251 171.672
L151.855 171.564
L151.959 171.52
L152.673 171.41
L152.774 171.375
L153.59 171.265
L153.692 171.236
L154.501 171.134
L154.607 171.102
L155.523 171.001
L155.628 170.973
L156.444 170.87
L156.549 170.841
L157.373 170.744
L157.474 170.717
L158.288 170.619
L158.392 170.592
L159.206 170.491
L159.311 170.463
L160.326 170.355
L160.431 170.33
L161.451 170.226
L161.554 170.204
L162.683 170.102
L162.782 170.078
L163.699 169.972
L163.801 169.944
L164.625 169.839
L164.727 169.807
L165.44 169.712
L165.542 169.675
L166.158 169.567
L166.257 169.524
L166.767 169.431
L166.872 169.385
L167.491 169.277
L167.593 169.236
L168.206 169.129
L168.31 169.085
L168.822 168.993
L168.922 168.943
L169.439 168.843
L169.54 168.795
L170.05 168.703
L170.155 168.659
L170.769 168.55
L170.871 168.506
L171.487 168.401
L171.59 168.358
L172.106 168.27
L172.208 168.223
L172.715 168.13
L172.818 168.083
L173.336 167.989
L173.437 167.944
L174.053 167.841
L174.155 167.8
L174.774 167.703
L174.876 167.662
L175.496 167.558
L175.598 167.52
L176.216 167.429
L176.319 167.388
L176.938 167.29
L177.041 167.248
L177.662 167.139
L177.763 167.094
L178.376 166.983
L178.484 166.936
L178.999 166.841
L179.102 166.797
L179.719 166.697
L179.823 166.66
L180.443 166.563
L180.547 166.524
L181.154 166.423
L181.258 166.381
L181.869 166.272
L181.973 166.227
L182.589 166.12
L182.692 166.081
L183.307 165.981
L183.413 165.943
L184.139 165.832
L184.24 165.799
L185.059 165.69
L185.163 165.656
L185.987 165.554
L186.09 165.529
L186.925 165.429
L187.027 165.399
L187.962 165.294
L188.066 165.272
L189.309 165.163
L189.414 165.144
L191.062 165.038
L191.165 165.028
L193.238 164.923
L193.34 164.909
L194.579 164.799
L194.681 164.774
L195.611 164.67
L195.715 164.64
L196.444 164.542
L196.547 164.507
L197.272 164.403
L197.377 164.367
L197.996 164.273
L198.101 164.231
L198.719 164.126
L198.821 164.081
L199.441 163.97
L199.545 163.925
L200.067 163.828
L200.17 163.776
L200.69 163.67
L200.794 163.616
L201.307 163.508
L201.412 163.455
L201.826 163.368
L201.933 163.308
L202.353 163.218
L202.456 163.16
L202.875 163.074
L202.98 163.015
L203.4 162.928
L203.506 162.873
L204.03 162.767
L204.135 162.715
L204.653 162.619
L204.756 162.575
L205.377 162.466
L205.484 162.422
L206.115 162.315
L206.219 162.273
L206.838 162.165
L206.942 162.122
L207.566 162.013
L207.671 161.967
L208.193 161.872
L208.295 161.826
L208.814 161.727
L208.919 161.679
L209.541 161.572
L209.645 161.532
L210.269 161.43
L210.373 161.389
L210.999 161.286
L211.106 161.244
L211.728 161.133
L211.831 161.087
L212.356 160.992
L212.462 160.943
L212.981 160.849
L213.083 160.802
L213.607 160.711
L213.713 160.665
L214.227 160.576
L214.329 160.53
L214.852 160.437
L214.957 160.393
L215.583 160.287
L215.684 160.246
L216.315 160.142
L216.42 160.099
L217.046 159.993
L217.149 159.953
L217.778 159.852
L217.882 159.812
L218.501 159.713
L218.604 159.673
L219.237 159.565
L219.342 159.522
L219.963 159.421
L220.07 159.379
L220.589 159.287
L220.693 159.242
L221.319 159.141
L221.425 159.1
L222.055 158.995
L222.158 158.952
L222.789 158.841
L222.893 158.798
L223.518 158.688
L223.62 158.642
L224.14 158.552
L224.244 158.508
L224.868 158.405
L224.971 158.367
L225.6 158.271
L225.7 158.23
L226.336 158.122
L226.44 158.081
L227.063 157.975
L227.164 157.934
L227.789 157.829
L227.89 157.787
L228.523 157.682
L228.628 157.638
L229.255 157.534
L229.36 157.495
L229.979 157.395
L230.082 157.354
L230.712 157.244
L230.815 157.199
L231.337 157.105
L231.438 157.059
L231.963 156.97
L232.068 156.924
L232.592 156.833
L232.697 156.787
L233.226 156.697
L233.332 156.653
L233.96 156.544
L234.063 156.502
L234.696 156.398
L234.799 156.354
L235.317 156.262
L235.42 156.214
L235.947 156.121
L236.052 156.076
L236.582 155.986
L236.689 155.943
L237.311 155.838
L237.415 155.796
L238.044 155.693
L238.151 155.65
L238.782 155.547
L238.889 155.506
L239.514 155.398
L239.617 155.353
L240.148 155.263
L240.253 155.218
L240.781 155.128
L240.883 155.085
L241.512 154.986
L241.62 154.942
L242.253 154.84
L242.36 154.801
L242.984 154.705
L243.089 154.668
L243.729 154.574
L243.835 154.539
L244.568 154.442
L244.673 154.412
L245.506 154.315
L245.613 154.285
L246.451 154.184
L246.558 154.154
L247.402 154.044
L247.506 154.012
L248.35 153.903
L248.459 153.872
L249.307 153.771
L249.409 153.743
L250.357 153.641
L250.463 153.616
L251.3 153.519
L251.407 153.487
L252.247 153.384
L252.354 153.355
L253.307 153.246
L253.413 153.219
L254.359 153.11
L254.463 153.081
L255.308 152.984
L255.415 152.954
L256.361 152.844
L256.468 152.817
L257.413 152.718
L257.518 152.694
L258.464 152.593
L258.573 152.566
L259.522 152.459
L259.627 152.435
L260.574 152.332
L260.678 152.306
L261.621 152.204
L261.724 152.181
L262.776 152.071
L262.88 152.046
L263.731 151.949
L263.834 151.919
L264.676 151.81
L264.784 151.778
L265.525 151.676
L265.628 151.643
L266.372 151.542
L266.478 151.508
L267.215 151.406
L267.322 151.374
L268.165 151.266
L268.27 151.233
L269.012 151.129
L269.117 151.092
L269.75 150.995
L269.855 150.956
L270.493 150.855
L270.599 150.815
L271.233 150.718
L271.338 150.68
L271.974 150.585
L272.082 150.548
L272.715 150.455
L272.821 150.417
L273.462 150.323
L273.566 150.286
L274.2 150.192
L274.304 150.156
L275.051 150.047
L275.156 150.01
L275.796 149.91
L275.901 149.871
L276.539 149.768
L276.643 149.728
L277.282 149.63
L277.387 149.592
L278.022 149.496
L278.127 149.459
L278.768 149.364
L278.877 149.324
L279.508 149.227
L279.614 149.186
L280.251 149.083
L280.359 149.039
L280.994 148.93
L281.101 148.884
L281.628 148.791
L281.736 148.742
L282.262 148.643
L282.366 148.593
L282.892 148.492
L282.999 148.441
L283.525 148.336
L283.632 148.283
L284.162 148.175
L284.268 148.12
L284.693 148.036
L284.796 147.983
L285.327 147.88
L285.435 147.828
L285.966 147.727
L286.07 147.676
L286.603 147.57
L286.712 147.518
L287.24 147.417
L287.347 147.366
L287.879 147.263
L287.984 147.212
L288.513 147.11
L288.618 147.06
L289.15 146.959
L289.253 146.909
L289.782 146.809
L289.887 146.758
L290.427 146.657
L290.53 146.608
L291.067 146.509
L291.169 146.461
L291.706 146.364
L291.809 146.317
L292.342 146.227
L292.446 146.181
L293.085 146.071
L293.189 146.029
L293.825 145.924
L293.931 145.881
L294.57 145.776
L294.675 145.734
L295.31 145.629
L295.415 145.587
L296.053 145.483
L296.158 145.443
L296.801 145.339
L296.905 145.299
L297.548 145.198
L297.652 145.158
L298.293 145.055
L298.399 145.013
L299.036 144.909
L299.143 144.869
L299.781 144.771
L299.888 144.734
L300.525 144.637
L300.634 144.596
L301.272 144.5
L301.378 144.463
L302.12 144.355
L302.229 144.32
L302.974 144.212
L303.081 144.177
L303.941 144.066
L304.046 144.037
L304.899 143.938
L305.005 143.911
L305.963 143.807
L306.068 143.782
L307.032 143.681
L307.137 143.657
L308.209 143.549
L308.319 143.525
L309.276 143.424
L309.382 143.398
L310.342 143.293
L310.45 143.266
L311.413 143.157
L311.518 143.13
L312.476 143.026
L312.581 143.001
L313.544 142.899
L313.65 142.874
L314.614 142.768
L314.722 142.74
L315.676 142.637
L315.781 142.613
L316.853 142.503
L316.957 142.48
L318.018 142.37
L318.125 142.346
L319.096 142.243
L319.203 142.219
L320.261 142.114
L320.366 142.09
L321.433 141.985
L321.542 141.963
L322.612 141.859
L322.719 141.837
L323.996 141.728
L324.105 141.708
L325.284 141.608
L325.392 141.585
L326.574 141.483
L326.681 141.463
L327.859 141.359
L327.964 141.336
L329.036 141.229
L329.142 141.205
L330.209 141.098
L330.316 141.075
L331.382 140.973
L331.489 140.948
L332.564 140.842
L332.671 140.82
L333.748 140.719
L333.854 140.698
L334.928 140.593
L335.035 140.569
L336.107 140.459
L336.214 140.436
L337.181 140.334
L337.286 140.308
L338.253 140.206
L338.363 140.178
L339.321 140.068
L339.426 140.04
L340.396 139.93
L340.503 139.903
L341.463 139.793
L341.568 139.764
L342.53 139.658
L342.636 139.631
L343.504 139.531
L343.611 139.502
L344.474 139.399
L344.582 139.37
L345.553 139.26
L345.658 139.232
L346.63 139.124
L346.736 139.097
L347.698 138.989
L347.807 138.963
L348.771 138.853
L348.879 138.825
L349.739 138.727
L349.843 138.697
L350.71 138.594
L350.817 138.566
L351.781 138.457
L351.89 138.43
L352.856 138.329
L352.964 138.303
L353.933 138.199
L354.04 138.172
L355.007 138.064
L355.115 138.038
L356.079 137.936
L356.188 137.91
L357.151 137.806
L357.257 137.779
L358.117 137.681
L358.226 137.652
L359.085 137.551
L359.191 137.522
L360.052 137.418
L360.158 137.389
L361.133 137.281
L361.242 137.256
L362.326 137.147
L362.432 137.122
L363.504 137.013
L363.614 136.99
L364.699 136.884
L364.805 136.861
L365.873 136.757
L365.983 136.732
L366.958 136.629
L367.069 136.605
L368.036 136.504
L368.144 136.48
L369.216 136.372
L369.326 136.348
L370.394 136.238
L370.497 136.214
L371.578 136.108
L371.683 136.084
L372.764 135.977
L372.764 135.965
L373.846 135.855
L373.951 135.831
L374.925 135.73
L375.031 135.703
L375.996 135.601
L376.101 135.576
L377.074 135.475
L377.18 135.452
L378.26 135.347
L378.367 135.324
L379.447 135.22
L379.553 135.198
L380.636 135.092
L380.743 135.067
L381.825 134.961
L381.933 134.939
L383.128 134.833
L383.234 134.812
L384.53 134.708
L384.64 134.688
L385.938 134.581
L386.046 134.562
L387.335 134.459
L387.443 134.44
L388.74 134.336
L388.847 134.317
L390.15 134.211
L390.257 134.193
L391.549 134.086
L391.549 134.076
L392.85 133.967
L392.959 133.947
L394.26 133.841
L394.369 133.822
L395.776 133.713
L395.883 133.696
L397.392 133.589
L397.5 133.572
L399.13 133.464
L399.237 133.448
L400.744 133.343
L400.851 133.325
L402.262 133.22
L402.371 133.203
L403.996 133.094
L404.101 133.079
L405.838 132.971
L405.948 132.956
L407.684 132.846
L407.79 132.831
L409.415 132.725
L409.52 132.709
L410.941 132.605
L411.051 132.587
L412.461 132.479
L412.571 132.46
L413.874 132.357
L413.982 132.339
L415.283 132.235
L415.283 132.226
L416.582 132.118
L416.689 132.097
L417.878 131.995
L417.988 131.974
L419.294 131.864
L419.399 131.844
L420.695 131.735
L420.805 131.716
L422.116 131.612
L422.226 131.593
L423.533 131.486
L423.642 131.467
L424.951 131.362
L425.059 131.343
L426.359 131.234
L426.466 131.214
L427.774 131.106
L427.883 131.086
L429.304 130.977
L429.409 130.96
L430.821 130.856
L430.931 130.839
L432.348 130.732
L432.457 130.714
L433.767 130.608
L433.874 130.589
L435.179 130.481
L435.179 130.472
L436.594 130.364
L436.594 130.356
L438.228 130.245
L438.228 130.239
L440.082 130.129
L440.192 130.116
L442.159 130.009
L442.268 129.998
L444.444 129.89
L444.551 129.879
L446.717 129.77
L446.823 129.759
L448.998 129.651
L448.998 129.645
L450.858 129.536
L450.968 129.522
L452.932 129.415
L453.043 129.403
L455.22 129.296
L455.329 129.284
L457.07 129.178
L457.18 129.164
L458.83 129.059
L458.939 129.046
L460.904 128.939
L461.013 128.927
L462.977 128.817
L462.977 128.811
L464.724 128.705
L464.834 128.69
L466.477 128.582
L466.477 128.574
L468.014 128.467
L468.125 128.452
L469.866 128.341
L469.974 128.329
L472.055 128.221
L472.164 128.208
L474.026 128.103
L474.026 128.097
L475.773 127.991
L475.882 127.977
L477.634 127.869
L477.742 127.856
L479.606 127.749
L479.606 127.742
L481.692 127.634
L481.802 127.623
L484.087 127.513
L484.197 127.502
L486.398 127.395
L486.506 127.384
L488.8 127.277
L488.909 127.267
L491.108 127.16
L491.217 127.149
L493.636 127.041
L493.636 127.036
L496.812 126.927
L496.92 126.92
L499.981 126.812
L499.981 126.808
L503.283 126.699
L503.389 126.692
L506.467 126.582
L506.467 126.578
L509.765 126.472
L509.765 126.467
L512.519 126.357
L512.627 126.349
L515.81 126.239
L515.92 126.231
L518.439 126.123
L518.55 126.112
L520.745 126.004
L520.856 125.992
L522.835 125.885
L522.835 125.879
L524.705 125.772
L524.814 125.757
L526.576 125.649
L526.576 125.642
L528.445 125.532
L528.553 125.519
L530.542 125.409
L530.542 125.403
L532.511 125.293
L532.62 125.28
L534.712 125.169
L534.712 125.164
L536.922 125.056
L537.03 125.045
L539.238 124.935
L539.238 124.929
L541.23 124.824
L541.23 124.817
L542.997 124.709
L543.101 124.695
L544.758 124.588
L544.867 124.573
L545.086 124.566
L545.086 124.558" style="fill:none;stroke:#ff0000;stroke-width:0.5;"/>
   </g>
   <g id="matplotlib.axis_1">
    <g id="xtick_1">
     <g id="line2d_2">
      <defs>
       <path d="
M0 0
L0 -4" id="me2ec79df32"/>
      </defs>
      <g>
       <use style="stroke:#000000;stroke-linecap:butt;stroke-width:0.5;" x="25.5703125" xlink:href="#me2ec79df32" y="401.004497041"/>
      </g>
     </g>
    </g>
    <g id="xtick_2">
     <g id="line2d_3">
      <defs>
       <path d="
M0 0
L0 -4" id="me2ec79df32"/>
      </defs>
      <g>
       <use style="stroke:#000000;stroke-linecap:butt;stroke-width:0.5;" x="129.479281098" xlink:href="#me2ec79df32" y="401.004497041"/>
      </g>
     </g>
     <g id="text_1">
      <!-- 2e7 -->
      <defs>
       <path d="
M19.1875 8.29688
L53.6094 8.29688
L53.6094 0
L7.32812 0
L7.32812 8.29688
Q12.9375 14.1094 22.625 23.8906
Q32.3281 33.6875 34.8125 36.5312
Q39.5469 41.8438 41.4219 45.5312
Q43.3125 49.2188 43.3125 52.7812
Q43.3125 58.5938 39.2344 62.25
Q35.1562 65.9219 28.6094 65.9219
Q23.9688 65.9219 18.8125 64.3125
Q13.6719 62.7031 7.8125 59.4219
L7.8125 69.3906
Q13.7656 71.7812 18.9375 73
Q24.125 74.2188 28.4219 74.2188
Q39.75 74.2188 46.4844 68.5469
Q53.2188 62.8906 53.2188 53.4219
Q53.2188 48.9219 51.5312 44.8906
Q49.8594 40.875 45.4062 35.4062
Q44.1875 33.9844 37.6406 27.2188
Q31.1094 20.4531 19.1875 8.29688" id="BitstreamVeraSans-Roman-32"/>
       <path d="
M56.2031 29.5938
L56.2031 25.2031
L14.8906 25.2031
Q15.4844 15.9219 20.4844 11.0625
Q25.4844 6.20312 34.4219 6.20312
Q39.5938 6.20312 44.4531 7.46875
Q49.3125 8.73438 54.1094 11.2812
L54.1094 2.78125
Q49.2656 0.734375 44.1875 -0.34375
Q39.1094 -1.42188 33.8906 -1.42188
Q20.7969 -1.42188 13.1562 6.1875
Q5.51562 13.8125 5.51562 26.8125
Q5.51562 40.2344 12.7656 48.1094
Q20.0156 56 32.3281 56
Q43.3594 56 49.7812 48.8906
Q56.2031 41.7969 56.2031 29.5938
M47.2188 32.2344
Q47.125 39.5938 43.0938 43.9844
Q39.0625 48.3906 32.4219 48.3906
Q24.9062 48.3906 20.3906 44.1406
Q15.875 39.8906 15.1875 32.1719
z
" id="BitstreamVeraSans-Roman-65"/>
       <path d="
M8.20312 72.9062
L55.0781 72.9062
L55.0781 68.7031
L28.6094 0
L18.3125 0
L43.2188 64.5938
L8.20312 64.5938
z
" id="BitstreamVeraSans-Roman-37"/>
      </defs>
      <g transform="translate(120.833968598 412.426372041)scale(0.1 -0.1)">
       <use xlink:href="#BitstreamVeraSans-Roman-32"/>
       <use x="63.623046875" xlink:href="#BitstreamVeraSans-Roman-65"/>
       <use x="125.146484375" xlink:href="#BitstreamVeraSans-Roman-37"/>
      </g>
     </g>
    </g>
    <g id="xtick_3">
     <g id="line2d_4">
      <defs>
       <path d="
M0 0
L0 -4" id="me2ec79df32"/>
      </defs>
      <g>
       <use style="stroke:#000000;stroke-linecap:butt;stroke-width:0.5;" x="233.388249697" xlink:href="#me2ec79df32" y="401.004497041"/>
      </g>
     </g>
     <g id="text_2">
      <!-- 4e7 -->
      <defs>
       <path d="
M37.7969 64.3125
L12.8906 25.3906
L37.7969 25.3906
z

M35.2031 72.9062
L47.6094 72.9062
L47.6094 25.3906
L58.0156 25.3906
L58.0156 17.1875
L47.6094 17.1875
L47.6094 0
L37.7969 0
L37.7969 17.1875
L4.89062 17.1875
L4.89062 26.7031
z
" id="BitstreamVeraSans-Roman-34"/>
      </defs>
      <g transform="translate(224.621062197 412.295122041)scale(0.1 -0.1)">
       <use xlink:href="#BitstreamVeraSans-Roman-34"/>
       <use x="63.623046875" xlink:href="#BitstreamVeraSans-Roman-65"/>
       <use x="125.146484375" xlink:href="#BitstreamVeraSans-Roman-37"/>
      </g>
     </g>
    </g>
    <g id="xtick_4">
     <g id="line2d_5">
      <defs>
       <path d="
M0 0
L0 -4" id="me2ec79df32"/>
      </defs>
      <g>
       <use style="stroke:#000000;stroke-linecap:butt;stroke-width:0.5;" x="337.297218295" xlink:href="#me2ec79df32" y="401.004497041"/>
      </g>
     </g>
     <g id="text_3">
      <!-- 6e7 -->
      <defs>
       <path d="
M33.0156 40.375
Q26.375 40.375 22.4844 35.8281
Q18.6094 31.2969 18.6094 23.3906
Q18.6094 15.5312 22.4844 10.9531
Q26.375 6.39062 33.0156 6.39062
Q39.6562 6.39062 43.5312 10.9531
Q47.4062 15.5312 47.4062 23.3906
Q47.4062 31.2969 43.5312 35.8281
Q39.6562 40.375 33.0156 40.375
M52.5938 71.2969
L52.5938 62.3125
Q48.875 64.0625 45.0938 64.9844
Q41.3125 65.9219 37.5938 65.9219
Q27.8281 65.9219 22.6719 59.3281
Q17.5312 52.7344 16.7969 39.4062
Q19.6719 43.6562 24.0156 45.9219
Q28.375 48.1875 33.5938 48.1875
Q44.5781 48.1875 50.9531 41.5156
Q57.3281 34.8594 57.3281 23.3906
Q57.3281 12.1562 50.6875 5.35938
Q44.0469 -1.42188 33.0156 -1.42188
Q20.3594 -1.42188 13.6719 8.26562
Q6.98438 17.9688 6.98438 36.375
Q6.98438 53.6562 15.1875 63.9375
Q23.3906 74.2188 37.2031 74.2188
Q40.9219 74.2188 44.7031 73.4844
Q48.4844 72.75 52.5938 71.2969" id="BitstreamVeraSans-Roman-36"/>
      </defs>
      <g transform="translate(328.634718295 412.426372041)scale(0.1 -0.1)">
       <use xlink:href="#BitstreamVeraSans-Roman-36"/>
       <use x="63.623046875" xlink:href="#BitstreamVeraSans-Roman-65"/>
       <use x="125.146484375" xlink:href="#BitstreamVeraSans-Roman-37"/>
      </g>
     </g>
    </g>
    <g id="xtick_5">
     <g id="line2d_6">
      <defs>
       <path d="
M0 0
L0 -4" id="me2ec79df32"/>
      </defs>
      <g>
       <use style="stroke:#000000;stroke-linecap:butt;stroke-width:0.5;" x="441.206186893" xlink:href="#me2ec79df32" y="401.004497041"/>
      </g>
     </g>
     <g id="text_4">
      <!-- 8e7 -->
      <defs>
       <path d="
M31.7812 34.625
Q24.75 34.625 20.7188 30.8594
Q16.7031 27.0938 16.7031 20.5156
Q16.7031 13.9219 20.7188 10.1562
Q24.75 6.39062 31.7812 6.39062
Q38.8125 6.39062 42.8594 10.1719
Q46.9219 13.9688 46.9219 20.5156
Q46.9219 27.0938 42.8906 30.8594
Q38.875 34.625 31.7812 34.625
M21.9219 38.8125
Q15.5781 40.375 12.0312 44.7188
Q8.5 49.0781 8.5 55.3281
Q8.5 64.0625 14.7188 69.1406
Q20.9531 74.2188 31.7812 74.2188
Q42.6719 74.2188 48.875 69.1406
Q55.0781 64.0625 55.0781 55.3281
Q55.0781 49.0781 51.5312 44.7188
Q48 40.375 41.7031 38.8125
Q48.8281 37.1562 52.7969 32.3125
Q56.7812 27.4844 56.7812 20.5156
Q56.7812 9.90625 50.3125 4.23438
Q43.8438 -1.42188 31.7812 -1.42188
Q19.7344 -1.42188 13.25 4.23438
Q6.78125 9.90625 6.78125 20.5156
Q6.78125 27.4844 10.7812 32.3125
Q14.7969 37.1562 21.9219 38.8125
M18.3125 54.3906
Q18.3125 48.7344 21.8438 45.5625
Q25.3906 42.3906 31.7812 42.3906
Q38.1406 42.3906 41.7188 45.5625
Q45.3125 48.7344 45.3125 54.3906
Q45.3125 60.0625 41.7188 63.2344
Q38.1406 66.4062 31.7812 66.4062
Q25.3906 66.4062 21.8438 63.2344
Q18.3125 60.0625 18.3125 54.3906" id="BitstreamVeraSans-Roman-38"/>
      </defs>
      <g transform="translate(432.533530643 412.426372041)scale(0.1 -0.1)">
       <use xlink:href="#BitstreamVeraSans-Roman-38"/>
       <use x="63.623046875" xlink:href="#BitstreamVeraSans-Roman-65"/>
       <use x="125.146484375" xlink:href="#BitstreamVeraSans-Roman-37"/>
      </g>
     </g>
    </g>
    <g id="xtick_6">
     <g id="line2d_7">
      <defs>
       <path d="
M0 0
L0 -4" id="me2ec79df32"/>
      </defs>
      <g>
       <use style="stroke:#000000;stroke-linecap:butt;stroke-width:0.5;" x="545.115155491" xlink:href="#me2ec79df32" y="401.004497041"/>
      </g>
     </g>
     <g id="text_5">
      <!-- 1e8 -->
      <defs>
       <path d="
M12.4062 8.29688
L28.5156 8.29688
L28.5156 63.9219
L10.9844 60.4062
L10.9844 69.3906
L28.4219 72.9062
L38.2812 72.9062
L38.2812 8.29688
L54.3906 8.29688
L54.3906 0
L12.4062 0
z
" id="BitstreamVeraSans-Roman-31"/>
      </defs>
      <g transform="translate(536.567499241 412.426372041)scale(0.1 -0.1)">
       <use xlink:href="#BitstreamVeraSans-Roman-31"/>
       <use x="63.623046875" xlink:href="#BitstreamVeraSans-Roman-65"/>
       <use x="125.146484375" xlink:href="#BitstreamVeraSans-Roman-38"/>
      </g>
     </g>
    </g>
    <g id="xtick_7">
     <g id="line2d_8">
      <defs>
       <path d="
M0 0
L0 -2" id="m9c5732dfff"/>
      </defs>
      <g>
       <use style="stroke:#000000;stroke-linecap:butt;stroke-width:0.5;" x="51.5475546496" xlink:href="#m9c5732dfff" y="401.004497041"/>
      </g>
     </g>
    </g>
    <g id="xtick_8">
     <g id="line2d_9">
      <defs>
       <path d="
M0 0
L0 -2" id="m9c5732dfff"/>
      </defs>
      <g>
       <use style="stroke:#000000;stroke-linecap:butt;stroke-width:0.5;" x="77.5247967991" xlink:href="#m9c5732dfff" y="401.004497041"/>
      </g>
     </g>
    </g>
    <g id="xtick_9">
     <g id="line2d_10">
      <defs>
       <path d="
M0 0
L0 -2" id="m9c5732dfff"/>
      </defs>
      <g>
       <use style="stroke:#000000;stroke-linecap:butt;stroke-width:0.5;" x="103.502038949" xlink:href="#m9c5732dfff" y="401.004497041"/>
      </g>
     </g>
    </g>
    <g id="xtick_10">
     <g id="line2d_11">
      <defs>
       <path d="
M0 0
L0 -2" id="m9c5732dfff"/>
      </defs>
      <g>
       <use style="stroke:#000000;stroke-linecap:butt;stroke-width:0.5;" x="155.456523248" xlink:href="#m9c5732dfff" y="401.004497041"/>
      </g>
     </g>
    </g>
    <g id="xtick_11">
     <g id="line2d_12">
      <defs>
       <path d="
M0 0
L0 -2" id="m9c5732dfff"/>
      </defs>
      <g>
       <use style="stroke:#000000;stroke-linecap:butt;stroke-width:0.5;" x="181.433765397" xlink:href="#m9c5732dfff" y="401.004497041"/>
      </g>
     </g>
    </g>
    <g id="xtick_12">
     <g id="line2d_13">
      <defs>
       <path d="
M0 0
L0 -2" id="m9c5732dfff"/>
      </defs>
      <g>
       <use style="stroke:#000000;stroke-linecap:butt;stroke-width:0.5;" x="207.411007547" xlink:href="#m9c5732dfff" y="401.004497041"/>
      </g>
     </g>
    </g>
    <g id="xtick_13">
     <g id="line2d_14">
      <defs>
       <path d="
M0 0
L0 -2" id="m9c5732dfff"/>
      </defs>
      <g>
       <use style="stroke:#000000;stroke-linecap:butt;stroke-width:0.5;" x="259.365491846" xlink:href="#m9c5732dfff" y="401.004497041"/>
      </g>
     </g>
    </g>
    <g id="xtick_14">
     <g id="line2d_15">
      <defs>
       <path d="
M0 0
L0 -2" id="m9c5732dfff"/>
      </defs>
      <g>
       <use style="stroke:#000000;stroke-linecap:butt;stroke-width:0.5;" x="285.342733996" xlink:href="#m9c5732dfff" y="401.004497041"/>
      </g>
     </g>
    </g>
    <g id="xtick_15">
     <g id="line2d_16">
      <defs>
       <path d="
M0 0
L0 -2" id="m9c5732dfff"/>
      </defs>
      <g>
       <use style="stroke:#000000;stroke-linecap:butt;stroke-width:0.5;" x="311.319976145" xlink:href="#m9c5732dfff" y="401.004497041"/>
      </g>
     </g>
    </g>
    <g id="xtick_16">
     <g id="line2d_17">
      <defs>
       <path d="
M0 0
L0 -2" id="m9c5732dfff"/>
      </defs>
      <g>
       <use style="stroke:#000000;stroke-linecap:butt;stroke-width:0.5;" x="363.274460444" xlink:href="#m9c5732dfff" y="401.004497041"/>
      </g>
     </g>
    </g>
    <g id="xtick_17">
     <g id="line2d_18">
      <defs>
       <path d="
M0 0
L0 -2" id="m9c5732dfff"/>
      </defs>
      <g>
       <use style="stroke:#000000;stroke-linecap:butt;stroke-width:0.5;" x="389.251702594" xlink:href="#m9c5732dfff" y="401.004497041"/>
      </g>
     </g>
    </g>
    <g id="xtick_18">
     <g id="line2d_19">
      <defs>
       <path d="
M0 0
L0 -2" id="m9c5732dfff"/>
      </defs>
      <g>
       <use style="stroke:#000000;stroke-linecap:butt;stroke-width:0.5;" x="415.228944744" xlink:href="#m9c5732dfff" y="401.004497041"/>
      </g>
     </g>
    </g>
    <g id="xtick_19">
     <g id="line2d_20">
      <defs>
       <path d="
M0 0
L0 -2" id="m9c5732dfff"/>
      </defs>
      <g>
       <use style="stroke:#000000;stroke-linecap:butt;stroke-width:0.5;" x="467.183429043" xlink:href="#m9c5732dfff" y="401.004497041"/>
      </g>
     </g>
    </g>
    <g id="xtick_20">
     <g id="line2d_21">
      <defs>
       <path d="
M0 0
L0 -2" id="m9c5732dfff"/>
      </defs>
      <g>
       <use style="stroke:#000000;stroke-linecap:butt;stroke-width:0.5;" x="493.160671192" xlink:href="#m9c5732dfff" y="401.004497041"/>
      </g>
     </g>
    </g>
    <g id="xtick_21">
     <g id="line2d_22">
      <defs>
       <path d="
M0 0
L0 -2" id="m9c5732dfff"/>
      </defs>
      <g>
       <use style="stroke:#000000;stroke-linecap:butt;stroke-width:0.5;" x="519.137913342" xlink:href="#m9c5732dfff" y="401.004497041"/>
      </g>
     </g>
    </g>
   </g>
   <g id="matplotlib.axis_2">
    <g id="ytick_1">
     <g id="line2d_23">
      <defs>
       <path d="
M0 0
L4 0" id="m43bc6b1b30"/>
      </defs>
      <g>
       <use style="stroke:#000000;stroke-linecap:butt;stroke-width:0.5;" x="25.5703125" xlink:href="#m43bc6b1b30" y="401.004497041"/>
      </g>
     </g>
    </g>
    <g id="ytick_2">
     <g id="line2d_24">
      <defs>
       <path d="
M0 0
L4 0" id="m43bc6b1b30"/>
      </defs>
      <g>
       <use style="stroke:#000000;stroke-linecap:butt;stroke-width:0.5;" x="25.5703125" xlink:href="#m43bc6b1b30" y="297.86827191"/>
      </g>
     </g>
     <g id="text_6">
      <!-- 0.5 -->
      <defs>
       <path d="
M31.7812 66.4062
Q24.1719 66.4062 20.3281 58.9062
Q16.5 51.4219 16.5 36.375
Q16.5 21.3906 20.3281 13.8906
Q24.1719 6.39062 31.7812 6.39062
Q39.4531 6.39062 43.2812 13.8906
Q47.125 21.3906 47.125 36.375
Q47.125 51.4219 43.2812 58.9062
Q39.4531 66.4062 31.7812 66.4062
M31.7812 74.2188
Q44.0469 74.2188 50.5156 64.5156
Q56.9844 54.8281 56.9844 36.375
Q56.9844 17.9688 50.5156 8.26562
Q44.0469 -1.42188 31.7812 -1.42188
Q19.5312 -1.42188 13.0625 8.26562
Q6.59375 17.9688 6.59375 36.375
Q6.59375 54.8281 13.0625 64.5156
Q19.5312 74.2188 31.7812 74.2188" id="BitstreamVeraSans-Roman-30"/>
       <path d="
M10.6875 12.4062
L21 12.4062
L21 0
L10.6875 0
z
" id="BitstreamVeraSans-Roman-2e"/>
       <path d="
M10.7969 72.9062
L49.5156 72.9062
L49.5156 64.5938
L19.8281 64.5938
L19.8281 46.7344
Q21.9688 47.4688 24.1094 47.8281
Q26.2656 48.1875 28.4219 48.1875
Q40.625 48.1875 47.75 41.5
Q54.8906 34.8125 54.8906 23.3906
Q54.8906 11.625 47.5625 5.09375
Q40.2344 -1.42188 26.9062 -1.42188
Q22.3125 -1.42188 17.5469 -0.640625
Q12.7969 0.140625 7.71875 1.70312
L7.71875 11.625
Q12.1094 9.23438 16.7969 8.0625
Q21.4844 6.89062 26.7031 6.89062
Q35.1562 6.89062 40.0781 11.3281
Q45.0156 15.7656 45.0156 23.3906
Q45.0156 31 40.0781 35.4375
Q35.1562 39.8906 26.7031 39.8906
Q22.75 39.8906 18.8125 39.0156
Q14.8906 38.1406 10.7969 36.2812
z
" id="BitstreamVeraSans-Roman-35"/>
      </defs>
      <g transform="translate(7.2 301.50811566)scale(0.1 -0.1)">
       <use xlink:href="#BitstreamVeraSans-Roman-30"/>
       <use x="63.623046875" xlink:href="#BitstreamVeraSans-Roman-2e"/>
       <use x="95.41015625" xlink:href="#BitstreamVeraSans-Roman-35"/>
      </g>
     </g>
    </g>
    <g id="ytick_3">
     <g id="line2d_25">
      <defs>
       <path d="
M0 0
L4 0" id="m43bc6b1b30"/>
      </defs>
      <g>
       <use style="stroke:#000000;stroke-linecap:butt;stroke-width:0.5;" x="25.5703125" xlink:href="#m43bc6b1b30" y="194.732046779"/>
      </g>
     </g>
     <g id="text_7">
      <!-- 1 -->
      <g transform="translate(17.2296875 198.377359279)scale(0.1 -0.1)">
       <use xlink:href="#BitstreamVeraSans-Roman-31"/>
      </g>
     </g>
    </g>
    <g id="ytick_4">
     <g id="line2d_26">
      <defs>
       <path d="
M0 0
L4 0" id="m43bc6b1b30"/>
      </defs>
      <g>
       <use style="stroke:#000000;stroke-linecap:butt;stroke-width:0.5;" x="25.5703125" xlink:href="#m43bc6b1b30" y="91.5958216485"/>
      </g>
     </g>
     <g id="text_8">
      <!-- 1.5 -->
      <g transform="translate(7.6390625 95.1700403985)scale(0.1 -0.1)">
       <use xlink:href="#BitstreamVeraSans-Roman-31"/>
       <use x="63.623046875" xlink:href="#BitstreamVeraSans-Roman-2e"/>
       <use x="95.41015625" xlink:href="#BitstreamVeraSans-Roman-35"/>
      </g>
     </g>
    </g>
    <g id="ytick_5">
     <g id="line2d_27">
      <defs>
       <path d="
M0 0
L2 0" id="m990e956c1b"/>
      </defs>
      <g>
       <use style="stroke:#000000;stroke-linecap:butt;stroke-width:0.5;" x="25.5703125" xlink:href="#m990e956c1b" y="380.377252015"/>
      </g>
     </g>
    </g>
    <g id="ytick_6">
     <g id="line2d_28">
      <defs>
       <path d="
M0 0
L2 0" id="m990e956c1b"/>
      </defs>
      <g>
       <use style="stroke:#000000;stroke-linecap:butt;stroke-width:0.5;" x="25.5703125" xlink:href="#m990e956c1b" y="359.750006989"/>
      </g>
     </g>
    </g>
    <g id="ytick_7">
     <g id="line2d_29">
      <defs>
       <path d="
M0 0
L2 0" id="m990e956c1b"/>
      </defs>
      <g>
       <use style="stroke:#000000;stroke-linecap:butt;stroke-width:0.5;" x="25.5703125" xlink:href="#m990e956c1b" y="339.122761963"/>
      </g>
     </g>
    </g>
    <g id="ytick_8">
     <g id="line2d_30">
      <defs>
       <path d="
M0 0
L2 0" id="m990e956c1b"/>
      </defs>
      <g>
       <use style="stroke:#000000;stroke-linecap:butt;stroke-width:0.5;" x="25.5703125" xlink:href="#m990e956c1b" y="318.495516937"/>
      </g>
     </g>
    </g>
    <g id="ytick_9">
     <g id="line2d_31">
      <defs>
       <path d="
M0 0
L2 0" id="m990e956c1b"/>
      </defs>
      <g>
       <use style="stroke:#000000;stroke-linecap:butt;stroke-width:0.5;" x="25.5703125" xlink:href="#m990e956c1b" y="297.86827191"/>
      </g>
     </g>
    </g>
    <g id="ytick_10">
     <g id="line2d_32">
      <defs>
       <path d="
M0 0
L2 0" id="m990e956c1b"/>
      </defs>
      <g>
       <use style="stroke:#000000;stroke-linecap:butt;stroke-width:0.5;" x="25.5703125" xlink:href="#m990e956c1b" y="277.241026884"/>
      </g>
     </g>
    </g>
    <g id="ytick_11">
     <g id="line2d_33">
      <defs>
       <path d="
M0 0
L2 0" id="m990e956c1b"/>
      </defs>
      <g>
       <use style="stroke:#000000;stroke-linecap:butt;stroke-width:0.5;" x="25.5703125" xlink:href="#m990e956c1b" y="256.613781858"/>
      </g>
     </g>
    </g>
    <g id="ytick_12">
     <g id="line2d_34">
      <defs>
       <path d="
M0 0
L2 0" id="m990e956c1b"/>
      </defs>
      <g>
       <use style="stroke:#000000;stroke-linecap:butt;stroke-width:0.5;" x="25.5703125" xlink:href="#m990e956c1b" y="235.986536832"/>
      </g>
     </g>
    </g>
    <g id="ytick_13">
     <g id="line2d_35">
      <defs>
       <path d="
M0 0
L2 0" id="m990e956c1b"/>
      </defs>
      <g>
       <use style="stroke:#000000;stroke-linecap:butt;stroke-width:0.5;" x="25.5703125" xlink:href="#m990e956c1b" y="215.359291806"/>
      </g>
     </g>
    </g>
    <g id="ytick_14">
     <g id="line2d_36">
      <defs>
       <path d="
M0 0
L2 0" id="m990e956c1b"/>
      </defs>
      <g>
       <use style="stroke:#000000;stroke-linecap:butt;stroke-width:0.5;" x="25.5703125" xlink:href="#m990e956c1b" y="194.732046779"/>
      </g>
     </g>
    </g>
    <g id="ytick_15">
     <g id="line2d_37">
      <defs>
       <path d="
M0 0
L2 0" id="m990e956c1b"/>
      </defs>
      <g>
       <use style="stroke:#000000;stroke-linecap:butt;stroke-width:0.5;" x="25.5703125" xlink:href="#m990e956c1b" y="174.104801753"/>
      </g>
     </g>
    </g>
    <g id="ytick_16">
     <g id="line2d_38">
      <defs>
       <path d="
M0 0
L2 0" id="m990e956c1b"/>
      </defs>
      <g>
       <use style="stroke:#000000;stroke-linecap:butt;stroke-width:0.5;" x="25.5703125" xlink:href="#m990e956c1b" y="153.477556727"/>
      </g>
     </g>
    </g>
    <g id="ytick_17">
     <g id="line2d_39">
      <defs>
       <path d="
M0 0
L2 0" id="m990e956c1b"/>
      </defs>
      <g>
       <use style="stroke:#000000;stroke-linecap:butt;stroke-width:0.5;" x="25.5703125" xlink:href="#m990e956c1b" y="132.850311701"/>
      </g>
     </g>
    </g>
    <g id="ytick_18">
     <g id="line2d_40">
      <defs>
       <path d="
M0 0
L2 0" id="m990e956c1b"/>
      </defs>
      <g>
       <use style="stroke:#000000;stroke-linecap:butt;stroke-width:0.5;" x="25.5703125" xlink:href="#m990e956c1b" y="112.223066675"/>
      </g>
     </g>
    </g>
    <g id="ytick_19">
     <g id="line2d_41">
      <defs>
       <path d="
M0 0
L2 0" id="m990e956c1b"/>
      </defs>
      <g>
       <use style="stroke:#000000;stroke-linecap:butt;stroke-width:0.5;" x="25.5703125" xlink:href="#m990e956c1b" y="91.5958216485"/>
      </g>
     </g>
    </g>
    <g id="ytick_20">
     <g id="line2d_42">
      <defs>
       <path d="
M0 0
L2 0" id="m990e956c1b"/>
      </defs>
      <g>
       <use style="stroke:#000000;stroke-linecap:butt;stroke-width:0.5;" x="25.5703125" xlink:href="#m990e956c1b" y="70.9685766223"/>
      </g>
     </g>
    </g>
    <g id="ytick_21">
     <g id="line2d_43">
      <defs>
       <path d="
M0 0
L2 0" id="m990e956c1b"/>
      </defs>
      <g>
       <use style="stroke:#000000;stroke-linecap:butt;stroke-width:0.5;" x="25.5703125" xlink:href="#m990e956c1b" y="50.3413315961"/>
      </g>
     </g>
    </g>
    <g id="ytick_22">
     <g id="line2d_44">
      <defs>
       <path d="
M0 0
L2 0" id="m990e956c1b"/>
      </defs>
      <g>
       <use style="stroke:#000000;stroke-linecap:butt;stroke-width:0.5;" x="25.5703125" xlink:href="#m990e956c1b" y="29.7140865699"/>
      </g>
     </g>
    </g>
    <g id="ytick_23">
     <g id="line2d_45">
      <defs>
       <path d="
M0 0
L2 0" id="m990e956c1b"/>
      </defs>
      <g>
       <use style="stroke:#000000;stroke-linecap:butt;stroke-width:0.5;" x="25.5703125" xlink:href="#m990e956c1b" y="9.08684154368"/>
      </g>
     </g>
    </g>
   </g>
   <g id="patch_3">
    <path d="
M15.18 401.004
L555.476 401.004" style="fill:none;stroke:#000000;stroke-width:0.8;"/>
   </g>
   <g id="patch_4">
    <path d="
M25.5703 408.726
L25.5703 7.2" style="fill:none;stroke:#000000;stroke-width:0.8;"/>
   </g>
  </g>
 </g>
 <defs>
  <clipPath id="pbdfec9549d">
   <rect height="401.526153846" width="540.295929948" x="15.1800165457" y="7.2"/>
  </clipPath>
 </defs>
</svg>
