<?xml version="1.0" encoding="utf-8" standalone="no"?>
<!DOCTYPE svg PUBLIC "-//W3C//DTD SVG 1.1//EN"
  "http://www.w3.org/Graphics/SVG/1.1/DTD/svg11.dtd">
<!-- Created with matplotlib (http://matplotlib.sourceforge.net/) -->
<svg height="204pt" version="1.1" viewBox="0 0 562 204" width="562pt" xmlns="http://www.w3.org/2000/svg" xmlns:xlink="http://www.w3.org/1999/xlink">
 <defs>
  <style type="text/css">
*{stroke-linecap:square;stroke-linejoin:round;}
  </style>
 </defs>
 <g id="figure_1">
  <g id="patch_1">
   <path d="
M-4.44089e-16 204.48
L562.616 204.48
L562.616 0
L-4.44089e-16 0
z
" style="fill:#ffffff;"/>
  </g>
  <g id="axes_1">
   <g id="patch_2">
    <path d="
M9.62433 197.28
L555.416 197.28
L555.416 7.2
L9.62433 7.2
z
" style="fill:#ffffff;"/>
   </g>
   <g id="line2d_1">
    <path clip-path="url(#p46290ced4e)" d="
M20.1204 10.8554
L20.1975 193.625
L20.2325 174.319
L20.2777 161.198
L20.3454 172.758
L20.3791 174.235
L20.3904 172.795
L20.3904 172.795
L20.6045 146.355
L20.6213 146.539
L20.6694 145.388
L20.7103 146.527
L20.7103 146.527
L20.7484 147.905
L20.773 146.55
L20.773 146.55
L21.0345 118.433
L21.2215 108.195
L21.4422 104.033
L21.4742 103.758
L21.5035 104.043
L21.5035 104.043
L21.5757 104.6
L21.6359 104.34
L21.6676 104.066
L21.7083 104.342
L21.7083 104.342
L22.0583 108.569
L22.0946 108.25
L22.5128 103.903
L22.5288 103.914
L22.6693 104.522
L22.7074 104.159
L23.0251 96.9511
L23.6177 82.3547
L23.9641 76.0079
L24.3692 69.8575
L24.487 69.1869
L24.7811 66.5752
L25.0974 63.7497
L25.2676 61.5063
L25.5684 54.5733
L25.8759 50.6696
L26.364 46.0042
L26.5461 45.3954
L26.5508 45.398
L27.0986 46.0104
L27.1484 45.9398
L27.1877 45.902
L27.2543 45.9789
L27.3629 46.062
L27.4081 46.0209
L27.5483 45.9844
L27.576 46.0728
L27.8481 46.4842
L27.9979 46.7033
L28.1696 47.6758
L28.908 54.1471
L29.3021 58.1484
L29.7782 63.6242
L30.4977 70.8045
L30.8221 72.3648
L31.0867 73.1343
L31.2772 73.5866
L31.6629 74.3459
L31.8707 74.9486
L32.2228 76.0166
L33.5735 79.3015
L34.0147 80.8054
L35.14 83.3002
L36.0006 85.6376
L36.2922 86.6969
L36.7346 89.5406
L37.617 95.0768
L38.0347 96.6284
L39.1133 100.426
L39.5493 102.006
L40.3381 106.386
L41.2346 112.654
L41.9128 117.13
L45.605 138.092
L47.8353 147.74
L48.4413 149.181
L48.9692 150.853
L49.6412 152.516
L51.7553 156.323
L52.0983 156.377
L53.0898 156.375
L53.9158 156.917
L55.4142 157.236
L55.8408 157.528
L56.3903 158.26
L57.1429 159.865
L57.6536 161.195
L58.9743 164.641
L59.5984 166.03
L60.3782 167.161
L62.2938 169.804
L65.7829 175.709
L66.9322 176.751
L67.7405 177.067
L68.4361 177.351
L68.9616 177.496
L71.1885 177.622
L71.7956 177.673
L72.4265 177.702
L73.8706 177.797
L74.3993 178.109
L75.0977 178.592
L76.043 178.816
L77.5758 178.846
L79.3467 178.479
L80.9969 177.829
L83.0124 178.308
L83.4625 178.229
L85.0063 177.737
L86.4642 177.174
L89.4967 175.378
L90.2027 174.568
L90.8659 173.998
L91.4037 173.434
L92.7532 171.95
L93.5351 171.27
L94.2268 170.657
L95.0699 169.888
L97.4531 167.982
L98.1683 167.521
L99.1554 166.951
L100.853 165.423
L104.176 161.829
L105.625 160.384
L106.783 159.246
L109.067 156.898
L111.097 154.721
L112.985 152.443
L114.826 150.628
L117.252 149.228
L118.511 148.876
L119.894 148.758
L124.823 149.222
L127.009 149.192
L127.574 149.13
L128.746 149.03
L130.161 148.895
L131.132 148.715
L133.493 148.133
L136.78 147.828
L139.664 147.476
L142.61 147.396
L144.555 146.946
L148.296 145.661
L149.273 145.505
L151.728 145.339
L152.962 145.258
L154.143 144.869
L155.366 144.57
L156.592 144.346
L158.363 144.243
L160.451 144.403
L168.72 145.618
L170.217 145.778
L172.501 145.772
L173.836 145.805
L175.014 146.081
L176.404 146.564
L179.295 147.748
L182.531 148.815
L184.487 149.395
L188.277 150.082
L190.661 150.454
L193.214 150.697
L195.206 150.639
L199.724 150.317
L204.199 150.884
L208.717 151.455
L212.395 151.779
L214.863 152.122
L219.257 152.872
L224.035 153.352
L233.19 153.767
L239.888 154.463
L241.516 154.8
L246.865 156.418
L248.254 156.996
L255.733 160.113
L259.653 161.743
L264.703 163.841
L265.988 164.203
L270.131 165.284
L273.064 166.056
L274.922 166.299
L277.272 166.612
L280.893 167.065
L284.304 167.204
L289.366 167.157
L295.825 166.799
L297.547 166.745
L301.854 166.591
L305.666 166.531
L314.189 167.024
L317.016 167.365
L329.078 168.794
L334.813 168.933
L339.755 168.729
L345.79 168.446
L348.741 168.279
L351.878 168.065
L358.37 167.569
L365.752 166.804
L377.659 166.171
L384.135 166.307
L389.477 166.604
L394.245 166.886
L397.595 167.237
L401.633 167.674
L405.434 167.976
L407.974 168.165
L417.319 168.741
L429.192 169.646
L439.169 169.682
L446.721 169.326
L454.152 169.204
L474.231 167.94
L480.478 167.78
L483.959 167.623
L487.654 167.535
L492.725 167.291
L497.265 167.036
L502.006 167.006
L505.964 167.214
L509.91 167.41
L518.515 167.594
L532.499 168.689
L536.02 169.14
L541.063 169.775
L544.919 170.244
L544.919 170.244" style="fill:none;stroke:#0000ff;"/>
   </g>
   <g id="line2d_2">
    <path clip-path="url(#p46290ced4e)" d="
M20.1203 33.4707
L544.92 33.4707" style="fill:none;stroke:#ff0000;"/>
   </g>
   <g id="matplotlib.axis_1">
    <g id="xtick_1">
     <g id="line2d_3">
      <defs>
       <path d="
M0 0
L0 -4" id="m363d37d68a"/>
      </defs>
      <g>
       <use style="stroke:#000000;stroke-linecap:butt;stroke-width:0.5;" x="20.1203125" xlink:href="#m363d37d68a" y="10.8553846154"/>
      </g>
     </g>
    </g>
    <g id="xtick_2">
     <g id="line2d_4">
      <defs>
       <path d="
M0 0
L0 -4" id="m363d37d68a"/>
      </defs>
      <g>
       <use style="stroke:#000000;stroke-linecap:butt;stroke-width:0.5;" x="125.080154401" xlink:href="#m363d37d68a" y="10.8553846154"/>
      </g>
     </g>
     <g id="text_1">
      <!-- 2e6 -->
      <defs>
       <path d="
M19.1875 8.29688
L53.6094 8.29688
L53.6094 0
L7.32812 0
L7.32812 8.29688
Q12.9375 14.1094 22.625 23.8906
Q32.3281 33.6875 34.8125 36.5312
Q39.5469 41.8438 41.4219 45.5312
Q43.3125 49.2188 43.3125 52.7812
Q43.3125 58.5938 39.2344 62.25
Q35.1562 65.9219 28.6094 65.9219
Q23.9688 65.9219 18.8125 64.3125
Q13.6719 62.7031 7.8125 59.4219
L7.8125 69.3906
Q13.7656 71.7812 18.9375 73
Q24.125 74.2188 28.4219 74.2188
Q39.75 74.2188 46.4844 68.5469
Q53.2188 62.8906 53.2188 53.4219
Q53.2188 48.9219 51.5312 44.8906
Q49.8594 40.875 45.4062 35.4062
Q44.1875 33.9844 37.6406 27.2188
Q31.1094 20.4531 19.1875 8.29688" id="BitstreamVeraSans-Roman-32"/>
       <path d="
M56.2031 29.5938
L56.2031 25.2031
L14.8906 25.2031
Q15.4844 15.9219 20.4844 11.0625
Q25.4844 6.20312 34.4219 6.20312
Q39.5938 6.20312 44.4531 7.46875
Q49.3125 8.73438 54.1094 11.2812
L54.1094 2.78125
Q49.2656 0.734375 44.1875 -0.34375
Q39.1094 -1.42188 33.8906 -1.42188
Q20.7969 -1.42188 13.1562 6.1875
Q5.51562 13.8125 5.51562 26.8125
Q5.51562 40.2344 12.7656 48.1094
Q20.0156 56 32.3281 56
Q43.3594 56 49.7812 48.8906
Q56.2031 41.7969 56.2031 29.5938
M47.2188 32.2344
Q47.125 39.5938 43.0938 43.9844
Q39.0625 48.3906 32.4219 48.3906
Q24.9062 48.3906 20.3906 44.1406
Q15.875 39.8906 15.1875 32.1719
z
" id="BitstreamVeraSans-Roman-65"/>
       <path d="
M33.0156 40.375
Q26.375 40.375 22.4844 35.8281
Q18.6094 31.2969 18.6094 23.3906
Q18.6094 15.5312 22.4844 10.9531
Q26.375 6.39062 33.0156 6.39062
Q39.6562 6.39062 43.5312 10.9531
Q47.4062 15.5312 47.4062 23.3906
Q47.4062 31.2969 43.5312 35.8281
Q39.6562 40.375 33.0156 40.375
M52.5938 71.2969
L52.5938 62.3125
Q48.875 64.0625 45.0938 64.9844
Q41.3125 65.9219 37.5938 65.9219
Q27.8281 65.9219 22.6719 59.3281
Q17.5312 52.7344 16.7969 39.4062
Q19.6719 43.6562 24.0156 45.9219
Q28.375 48.1875 33.5938 48.1875
Q44.5781 48.1875 50.9531 41.5156
Q57.3281 34.8594 57.3281 23.3906
Q57.3281 12.1562 50.6875 5.35938
Q44.0469 -1.42188 33.0156 -1.42188
Q20.3594 -1.42188 13.6719 8.26562
Q6.98438 17.9688 6.98438 36.375
Q6.98438 53.6562 15.1875 63.9375
Q23.3906 74.2188 37.2031 74.2188
Q40.9219 74.2188 44.7031 73.4844
Q48.4844 72.75 52.5938 71.2969" id="BitstreamVeraSans-Roman-36"/>
      </defs>
      <g transform="translate(116.322341901 22.2772596154)scale(0.1 -0.1)">
       <use xlink:href="#BitstreamVeraSans-Roman-32"/>
       <use x="63.623046875" xlink:href="#BitstreamVeraSans-Roman-65"/>
       <use x="125.146484375" xlink:href="#BitstreamVeraSans-Roman-36"/>
      </g>
     </g>
    </g>
    <g id="xtick_3">
     <g id="line2d_5">
      <defs>
       <path d="
M0 0
L0 -4" id="m363d37d68a"/>
      </defs>
      <g>
       <use style="stroke:#000000;stroke-linecap:butt;stroke-width:0.5;" x="230.039996302" xlink:href="#m363d37d68a" y="10.8553846154"/>
      </g>
     </g>
     <g id="text_2">
      <!-- 4e6 -->
      <defs>
       <path d="
M37.7969 64.3125
L12.8906 25.3906
L37.7969 25.3906
z

M35.2031 72.9062
L47.6094 72.9062
L47.6094 25.3906
L58.0156 25.3906
L58.0156 17.1875
L47.6094 17.1875
L47.6094 0
L37.7969 0
L37.7969 17.1875
L4.89062 17.1875
L4.89062 26.7031
z
" id="BitstreamVeraSans-Roman-34"/>
      </defs>
      <g transform="translate(221.160308802 22.2772596154)scale(0.1 -0.1)">
       <use xlink:href="#BitstreamVeraSans-Roman-34"/>
       <use x="63.623046875" xlink:href="#BitstreamVeraSans-Roman-65"/>
       <use x="125.146484375" xlink:href="#BitstreamVeraSans-Roman-36"/>
      </g>
     </g>
    </g>
    <g id="xtick_4">
     <g id="line2d_6">
      <defs>
       <path d="
M0 0
L0 -4" id="m363d37d68a"/>
      </defs>
      <g>
       <use style="stroke:#000000;stroke-linecap:butt;stroke-width:0.5;" x="334.999838203" xlink:href="#m363d37d68a" y="10.8553846154"/>
      </g>
     </g>
     <g id="text_3">
      <!-- 6e6 -->
      <g transform="translate(326.224838203 22.2772596154)scale(0.1 -0.1)">
       <use xlink:href="#BitstreamVeraSans-Roman-36"/>
       <use x="63.623046875" xlink:href="#BitstreamVeraSans-Roman-65"/>
       <use x="125.146484375" xlink:href="#BitstreamVeraSans-Roman-36"/>
      </g>
     </g>
    </g>
    <g id="xtick_5">
     <g id="line2d_7">
      <defs>
       <path d="
M0 0
L0 -4" id="m363d37d68a"/>
      </defs>
      <g>
       <use style="stroke:#000000;stroke-linecap:butt;stroke-width:0.5;" x="439.959680104" xlink:href="#m363d37d68a" y="10.8553846154"/>
      </g>
     </g>
     <g id="text_4">
      <!-- 8e6 -->
      <defs>
       <path d="
M31.7812 34.625
Q24.75 34.625 20.7188 30.8594
Q16.7031 27.0938 16.7031 20.5156
Q16.7031 13.9219 20.7188 10.1562
Q24.75 6.39062 31.7812 6.39062
Q38.8125 6.39062 42.8594 10.1719
Q46.9219 13.9688 46.9219 20.5156
Q46.9219 27.0938 42.8906 30.8594
Q38.875 34.625 31.7812 34.625
M21.9219 38.8125
Q15.5781 40.375 12.0312 44.7188
Q8.5 49.0781 8.5 55.3281
Q8.5 64.0625 14.7188 69.1406
Q20.9531 74.2188 31.7812 74.2188
Q42.6719 74.2188 48.875 69.1406
Q55.0781 64.0625 55.0781 55.3281
Q55.0781 49.0781 51.5312 44.7188
Q48 40.375 41.7031 38.8125
Q48.8281 37.1562 52.7969 32.3125
Q56.7812 27.4844 56.7812 20.5156
Q56.7812 9.90625 50.3125 4.23438
Q43.8438 -1.42188 31.7812 -1.42188
Q19.7344 -1.42188 13.25 4.23438
Q6.78125 9.90625 6.78125 20.5156
Q6.78125 27.4844 10.7812 32.3125
Q14.7969 37.1562 21.9219 38.8125
M18.3125 54.3906
Q18.3125 48.7344 21.8438 45.5625
Q25.3906 42.3906 31.7812 42.3906
Q38.1406 42.3906 41.7188 45.5625
Q45.3125 48.7344 45.3125 54.3906
Q45.3125 60.0625 41.7188 63.2344
Q38.1406 66.4062 31.7812 66.4062
Q25.3906 66.4062 21.8438 63.2344
Q18.3125 60.0625 18.3125 54.3906" id="BitstreamVeraSans-Roman-38"/>
      </defs>
      <g transform="translate(431.174523854 22.2772596154)scale(0.1 -0.1)">
       <use xlink:href="#BitstreamVeraSans-Roman-38"/>
       <use x="63.623046875" xlink:href="#BitstreamVeraSans-Roman-65"/>
       <use x="125.146484375" xlink:href="#BitstreamVeraSans-Roman-36"/>
      </g>
     </g>
    </g>
    <g id="xtick_6">
     <g id="line2d_8">
      <defs>
       <path d="
M0 0
L0 -4" id="m363d37d68a"/>
      </defs>
      <g>
       <use style="stroke:#000000;stroke-linecap:butt;stroke-width:0.5;" x="544.919522004" xlink:href="#m363d37d68a" y="10.8553846154"/>
      </g>
     </g>
     <g id="text_5">
      <!-- 1e7 -->
      <defs>
       <path d="
M12.4062 8.29688
L28.5156 8.29688
L28.5156 63.9219
L10.9844 60.4062
L10.9844 69.3906
L28.4219 72.9062
L38.2812 72.9062
L38.2812 8.29688
L54.3906 8.29688
L54.3906 0
L12.4062 0
z
" id="BitstreamVeraSans-Roman-31"/>
       <path d="
M8.20312 72.9062
L55.0781 72.9062
L55.0781 68.7031
L28.6094 0
L18.3125 0
L43.2188 64.5938
L8.20312 64.5938
z
" id="BitstreamVeraSans-Roman-37"/>
      </defs>
      <g transform="translate(536.457022004 22.1460096154)scale(0.1 -0.1)">
       <use xlink:href="#BitstreamVeraSans-Roman-31"/>
       <use x="63.623046875" xlink:href="#BitstreamVeraSans-Roman-65"/>
       <use x="125.146484375" xlink:href="#BitstreamVeraSans-Roman-37"/>
      </g>
     </g>
    </g>
    <g id="xtick_7">
     <g id="line2d_9">
      <defs>
       <path d="
M0 0
L0 -2" id="m390cf05f50"/>
      </defs>
      <g>
       <use style="stroke:#000000;stroke-linecap:butt;stroke-width:0.5;" x="46.3602729752" xlink:href="#m390cf05f50" y="10.8553846154"/>
      </g>
     </g>
    </g>
    <g id="xtick_8">
     <g id="line2d_10">
      <defs>
       <path d="
M0 0
L0 -2" id="m390cf05f50"/>
      </defs>
      <g>
       <use style="stroke:#000000;stroke-linecap:butt;stroke-width:0.5;" x="72.6002334504" xlink:href="#m390cf05f50" y="10.8553846154"/>
      </g>
     </g>
    </g>
    <g id="xtick_9">
     <g id="line2d_11">
      <defs>
       <path d="
M0 0
L0 -2" id="m390cf05f50"/>
      </defs>
      <g>
       <use style="stroke:#000000;stroke-linecap:butt;stroke-width:0.5;" x="98.8401939257" xlink:href="#m390cf05f50" y="10.8553846154"/>
      </g>
     </g>
    </g>
    <g id="xtick_10">
     <g id="line2d_12">
      <defs>
       <path d="
M0 0
L0 -2" id="m390cf05f50"/>
      </defs>
      <g>
       <use style="stroke:#000000;stroke-linecap:butt;stroke-width:0.5;" x="151.320114876" xlink:href="#m390cf05f50" y="10.8553846154"/>
      </g>
     </g>
    </g>
    <g id="xtick_11">
     <g id="line2d_13">
      <defs>
       <path d="
M0 0
L0 -2" id="m390cf05f50"/>
      </defs>
      <g>
       <use style="stroke:#000000;stroke-linecap:butt;stroke-width:0.5;" x="177.560075351" xlink:href="#m390cf05f50" y="10.8553846154"/>
      </g>
     </g>
    </g>
    <g id="xtick_12">
     <g id="line2d_14">
      <defs>
       <path d="
M0 0
L0 -2" id="m390cf05f50"/>
      </defs>
      <g>
       <use style="stroke:#000000;stroke-linecap:butt;stroke-width:0.5;" x="203.800035827" xlink:href="#m390cf05f50" y="10.8553846154"/>
      </g>
     </g>
    </g>
    <g id="xtick_13">
     <g id="line2d_15">
      <defs>
       <path d="
M0 0
L0 -2" id="m390cf05f50"/>
      </defs>
      <g>
       <use style="stroke:#000000;stroke-linecap:butt;stroke-width:0.5;" x="256.279956777" xlink:href="#m390cf05f50" y="10.8553846154"/>
      </g>
     </g>
    </g>
    <g id="xtick_14">
     <g id="line2d_16">
      <defs>
       <path d="
M0 0
L0 -2" id="m390cf05f50"/>
      </defs>
      <g>
       <use style="stroke:#000000;stroke-linecap:butt;stroke-width:0.5;" x="282.519917252" xlink:href="#m390cf05f50" y="10.8553846154"/>
      </g>
     </g>
    </g>
    <g id="xtick_15">
     <g id="line2d_17">
      <defs>
       <path d="
M0 0
L0 -2" id="m390cf05f50"/>
      </defs>
      <g>
       <use style="stroke:#000000;stroke-linecap:butt;stroke-width:0.5;" x="308.759877727" xlink:href="#m390cf05f50" y="10.8553846154"/>
      </g>
     </g>
    </g>
    <g id="xtick_16">
     <g id="line2d_18">
      <defs>
       <path d="
M0 0
L0 -2" id="m390cf05f50"/>
      </defs>
      <g>
       <use style="stroke:#000000;stroke-linecap:butt;stroke-width:0.5;" x="361.239798678" xlink:href="#m390cf05f50" y="10.8553846154"/>
      </g>
     </g>
    </g>
    <g id="xtick_17">
     <g id="line2d_19">
      <defs>
       <path d="
M0 0
L0 -2" id="m390cf05f50"/>
      </defs>
      <g>
       <use style="stroke:#000000;stroke-linecap:butt;stroke-width:0.5;" x="387.479759153" xlink:href="#m390cf05f50" y="10.8553846154"/>
      </g>
     </g>
    </g>
    <g id="xtick_18">
     <g id="line2d_20">
      <defs>
       <path d="
M0 0
L0 -2" id="m390cf05f50"/>
      </defs>
      <g>
       <use style="stroke:#000000;stroke-linecap:butt;stroke-width:0.5;" x="413.719719628" xlink:href="#m390cf05f50" y="10.8553846154"/>
      </g>
     </g>
    </g>
    <g id="xtick_19">
     <g id="line2d_21">
      <defs>
       <path d="
M0 0
L0 -2" id="m390cf05f50"/>
      </defs>
      <g>
       <use style="stroke:#000000;stroke-linecap:butt;stroke-width:0.5;" x="466.199640579" xlink:href="#m390cf05f50" y="10.8553846154"/>
      </g>
     </g>
    </g>
    <g id="xtick_20">
     <g id="line2d_22">
      <defs>
       <path d="
M0 0
L0 -2" id="m390cf05f50"/>
      </defs>
      <g>
       <use style="stroke:#000000;stroke-linecap:butt;stroke-width:0.5;" x="492.439601054" xlink:href="#m390cf05f50" y="10.8553846154"/>
      </g>
     </g>
    </g>
    <g id="xtick_21">
     <g id="line2d_23">
      <defs>
       <path d="
M0 0
L0 -2" id="m390cf05f50"/>
      </defs>
      <g>
       <use style="stroke:#000000;stroke-linecap:butt;stroke-width:0.5;" x="518.679561529" xlink:href="#m390cf05f50" y="10.8553846154"/>
      </g>
     </g>
    </g>
   </g>
   <g id="matplotlib.axis_2">
    <g id="ytick_1">
     <g id="line2d_24">
      <defs>
       <path d="
M0 0
L4 0" id="m479c23141a"/>
      </defs>
      <g>
       <use style="stroke:#000000;stroke-linecap:butt;stroke-width:0.5;" x="20.1203125" xlink:href="#m479c23141a" y="173.830147966"/>
      </g>
     </g>
     <g id="text_6">
      <!-- -4 -->
      <defs>
       <path d="
M4.89062 31.3906
L31.2031 31.3906
L31.2031 23.3906
L4.89062 23.3906
z
" id="BitstreamVeraSans-Roman-2d"/>
      </defs>
      <g transform="translate(7.2 177.475460466)scale(0.1 -0.1)">
       <use xlink:href="#BitstreamVeraSans-Roman-2d"/>
       <use x="36.083984375" xlink:href="#BitstreamVeraSans-Roman-34"/>
      </g>
     </g>
    </g>
    <g id="ytick_2">
     <g id="line2d_25">
      <defs>
       <path d="
M0 0
L4 0" id="m479c23141a"/>
      </defs>
      <g>
       <use style="stroke:#000000;stroke-linecap:butt;stroke-width:0.5;" x="20.1203125" xlink:href="#m479c23141a" y="133.086457128"/>
      </g>
     </g>
     <g id="text_7">
      <!-- -3 -->
      <defs>
       <path d="
M40.5781 39.3125
Q47.6562 37.7969 51.625 33
Q55.6094 28.2188 55.6094 21.1875
Q55.6094 10.4062 48.1875 4.48438
Q40.7656 -1.42188 27.0938 -1.42188
Q22.5156 -1.42188 17.6562 -0.515625
Q12.7969 0.390625 7.625 2.20312
L7.625 11.7188
Q11.7188 9.32812 16.5938 8.10938
Q21.4844 6.89062 26.8125 6.89062
Q36.0781 6.89062 40.9375 10.5469
Q45.7969 14.2031 45.7969 21.1875
Q45.7969 27.6406 41.2812 31.2656
Q36.7656 34.9062 28.7188 34.9062
L20.2188 34.9062
L20.2188 43.0156
L29.1094 43.0156
Q36.375 43.0156 40.2344 45.9219
Q44.0938 48.8281 44.0938 54.2969
Q44.0938 59.9062 40.1094 62.9062
Q36.1406 65.9219 28.7188 65.9219
Q24.6562 65.9219 20.0156 65.0312
Q15.375 64.1562 9.8125 62.3125
L9.8125 71.0938
Q15.4375 72.6562 20.3438 73.4375
Q25.25 74.2188 29.5938 74.2188
Q40.8281 74.2188 47.3594 69.1094
Q53.9062 64.0156 53.9062 55.3281
Q53.9062 49.2656 50.4375 45.0938
Q46.9688 40.9219 40.5781 39.3125" id="BitstreamVeraSans-Roman-33"/>
      </defs>
      <g transform="translate(7.440625 136.726300878)scale(0.1 -0.1)">
       <use xlink:href="#BitstreamVeraSans-Roman-2d"/>
       <use x="36.083984375" xlink:href="#BitstreamVeraSans-Roman-33"/>
      </g>
     </g>
    </g>
    <g id="ytick_3">
     <g id="line2d_26">
      <defs>
       <path d="
M0 0
L4 0" id="m479c23141a"/>
      </defs>
      <g>
       <use style="stroke:#000000;stroke-linecap:butt;stroke-width:0.5;" x="20.1203125" xlink:href="#m479c23141a" y="92.3427662905"/>
      </g>
     </g>
     <g id="text_8">
      <!-- -2 -->
      <g transform="translate(7.640625 96.0537037905)scale(0.1 -0.1)">
       <use xlink:href="#BitstreamVeraSans-Roman-2d"/>
       <use x="36.083984375" xlink:href="#BitstreamVeraSans-Roman-32"/>
      </g>
     </g>
    </g>
    <g id="ytick_4">
     <g id="line2d_27">
      <defs>
       <path d="
M0 0
L4 0" id="m479c23141a"/>
      </defs>
      <g>
       <use style="stroke:#000000;stroke-linecap:butt;stroke-width:0.5;" x="20.1203125" xlink:href="#m479c23141a" y="51.599075453"/>
      </g>
     </g>
     <g id="text_9">
      <!-- -1 -->
      <g transform="translate(7.5625 55.244387953)scale(0.1 -0.1)">
       <use xlink:href="#BitstreamVeraSans-Roman-2d"/>
       <use x="36.083984375" xlink:href="#BitstreamVeraSans-Roman-31"/>
      </g>
     </g>
    </g>
    <g id="ytick_5">
     <g id="line2d_28">
      <defs>
       <path d="
M0 0
L4 0" id="m479c23141a"/>
      </defs>
      <g>
       <use style="stroke:#000000;stroke-linecap:butt;stroke-width:0.5;" x="20.1203125" xlink:href="#m479c23141a" y="10.8553846154"/>
      </g>
     </g>
    </g>
    <g id="ytick_6">
     <g id="line2d_29">
      <defs>
       <path d="
M0 0
L2 0" id="mc77a8a1c3f"/>
      </defs>
      <g>
       <use style="stroke:#000000;stroke-linecap:butt;stroke-width:0.5;" x="20.1203125" xlink:href="#mc77a8a1c3f" y="190.127624301"/>
      </g>
     </g>
    </g>
    <g id="ytick_7">
     <g id="line2d_30">
      <defs>
       <path d="
M0 0
L2 0" id="mc77a8a1c3f"/>
      </defs>
      <g>
       <use style="stroke:#000000;stroke-linecap:butt;stroke-width:0.5;" x="20.1203125" xlink:href="#mc77a8a1c3f" y="181.978886133"/>
      </g>
     </g>
    </g>
    <g id="ytick_8">
     <g id="line2d_31">
      <defs>
       <path d="
M0 0
L2 0" id="mc77a8a1c3f"/>
      </defs>
      <g>
       <use style="stroke:#000000;stroke-linecap:butt;stroke-width:0.5;" x="20.1203125" xlink:href="#mc77a8a1c3f" y="165.681409798"/>
      </g>
     </g>
    </g>
    <g id="ytick_9">
     <g id="line2d_32">
      <defs>
       <path d="
M0 0
L2 0" id="mc77a8a1c3f"/>
      </defs>
      <g>
       <use style="stroke:#000000;stroke-linecap:butt;stroke-width:0.5;" x="20.1203125" xlink:href="#mc77a8a1c3f" y="157.532671631"/>
      </g>
     </g>
    </g>
    <g id="ytick_10">
     <g id="line2d_33">
      <defs>
       <path d="
M0 0
L2 0" id="mc77a8a1c3f"/>
      </defs>
      <g>
       <use style="stroke:#000000;stroke-linecap:butt;stroke-width:0.5;" x="20.1203125" xlink:href="#mc77a8a1c3f" y="149.383933463"/>
      </g>
     </g>
    </g>
    <g id="ytick_11">
     <g id="line2d_34">
      <defs>
       <path d="
M0 0
L2 0" id="mc77a8a1c3f"/>
      </defs>
      <g>
       <use style="stroke:#000000;stroke-linecap:butt;stroke-width:0.5;" x="20.1203125" xlink:href="#mc77a8a1c3f" y="141.235195296"/>
      </g>
     </g>
    </g>
    <g id="ytick_12">
     <g id="line2d_35">
      <defs>
       <path d="
M0 0
L2 0" id="mc77a8a1c3f"/>
      </defs>
      <g>
       <use style="stroke:#000000;stroke-linecap:butt;stroke-width:0.5;" x="20.1203125" xlink:href="#mc77a8a1c3f" y="124.937718961"/>
      </g>
     </g>
    </g>
    <g id="ytick_13">
     <g id="line2d_36">
      <defs>
       <path d="
M0 0
L2 0" id="mc77a8a1c3f"/>
      </defs>
      <g>
       <use style="stroke:#000000;stroke-linecap:butt;stroke-width:0.5;" x="20.1203125" xlink:href="#mc77a8a1c3f" y="116.788980793"/>
      </g>
     </g>
    </g>
    <g id="ytick_14">
     <g id="line2d_37">
      <defs>
       <path d="
M0 0
L2 0" id="mc77a8a1c3f"/>
      </defs>
      <g>
       <use style="stroke:#000000;stroke-linecap:butt;stroke-width:0.5;" x="20.1203125" xlink:href="#mc77a8a1c3f" y="108.640242626"/>
      </g>
     </g>
    </g>
    <g id="ytick_15">
     <g id="line2d_38">
      <defs>
       <path d="
M0 0
L2 0" id="mc77a8a1c3f"/>
      </defs>
      <g>
       <use style="stroke:#000000;stroke-linecap:butt;stroke-width:0.5;" x="20.1203125" xlink:href="#mc77a8a1c3f" y="100.491504458"/>
      </g>
     </g>
    </g>
    <g id="ytick_16">
     <g id="line2d_39">
      <defs>
       <path d="
M0 0
L2 0" id="mc77a8a1c3f"/>
      </defs>
      <g>
       <use style="stroke:#000000;stroke-linecap:butt;stroke-width:0.5;" x="20.1203125" xlink:href="#mc77a8a1c3f" y="92.3427662905"/>
      </g>
     </g>
    </g>
    <g id="ytick_17">
     <g id="line2d_40">
      <defs>
       <path d="
M0 0
L2 0" id="mc77a8a1c3f"/>
      </defs>
      <g>
       <use style="stroke:#000000;stroke-linecap:butt;stroke-width:0.5;" x="20.1203125" xlink:href="#mc77a8a1c3f" y="84.194028123"/>
      </g>
     </g>
    </g>
    <g id="ytick_18">
     <g id="line2d_41">
      <defs>
       <path d="
M0 0
L2 0" id="mc77a8a1c3f"/>
      </defs>
      <g>
       <use style="stroke:#000000;stroke-linecap:butt;stroke-width:0.5;" x="20.1203125" xlink:href="#mc77a8a1c3f" y="76.0452899555"/>
      </g>
     </g>
    </g>
    <g id="ytick_19">
     <g id="line2d_42">
      <defs>
       <path d="
M0 0
L2 0" id="mc77a8a1c3f"/>
      </defs>
      <g>
       <use style="stroke:#000000;stroke-linecap:butt;stroke-width:0.5;" x="20.1203125" xlink:href="#mc77a8a1c3f" y="67.896551788"/>
      </g>
     </g>
    </g>
    <g id="ytick_20">
     <g id="line2d_43">
      <defs>
       <path d="
M0 0
L2 0" id="mc77a8a1c3f"/>
      </defs>
      <g>
       <use style="stroke:#000000;stroke-linecap:butt;stroke-width:0.5;" x="20.1203125" xlink:href="#mc77a8a1c3f" y="59.7478136205"/>
      </g>
     </g>
    </g>
    <g id="ytick_21">
     <g id="line2d_44">
      <defs>
       <path d="
M0 0
L2 0" id="mc77a8a1c3f"/>
      </defs>
      <g>
       <use style="stroke:#000000;stroke-linecap:butt;stroke-width:0.5;" x="20.1203125" xlink:href="#mc77a8a1c3f" y="51.599075453"/>
      </g>
     </g>
    </g>
    <g id="ytick_22">
     <g id="line2d_45">
      <defs>
       <path d="
M0 0
L2 0" id="mc77a8a1c3f"/>
      </defs>
      <g>
       <use style="stroke:#000000;stroke-linecap:butt;stroke-width:0.5;" x="20.1203125" xlink:href="#mc77a8a1c3f" y="43.4503372854"/>
      </g>
     </g>
    </g>
    <g id="ytick_23">
     <g id="line2d_46">
      <defs>
       <path d="
M0 0
L2 0" id="mc77a8a1c3f"/>
      </defs>
      <g>
       <use style="stroke:#000000;stroke-linecap:butt;stroke-width:0.5;" x="20.1203125" xlink:href="#mc77a8a1c3f" y="35.3015991179"/>
      </g>
     </g>
    </g>
    <g id="ytick_24">
     <g id="line2d_47">
      <defs>
       <path d="
M0 0
L2 0" id="mc77a8a1c3f"/>
      </defs>
      <g>
       <use style="stroke:#000000;stroke-linecap:butt;stroke-width:0.5;" x="20.1203125" xlink:href="#mc77a8a1c3f" y="27.1528609504"/>
      </g>
     </g>
    </g>
    <g id="ytick_25">
     <g id="line2d_48">
      <defs>
       <path d="
M0 0
L2 0" id="mc77a8a1c3f"/>
      </defs>
      <g>
       <use style="stroke:#000000;stroke-linecap:butt;stroke-width:0.5;" x="20.1203125" xlink:href="#mc77a8a1c3f" y="19.0041227829"/>
      </g>
     </g>
    </g>
   </g>
   <g id="patch_3">
    <path d="
M9.62433 10.8554
L555.416 10.8554" style="fill:none;stroke:#000000;stroke-width:0.8;"/>
   </g>
   <g id="patch_4">
    <path d="
M20.1203 197.28
L20.1203 7.2" style="fill:none;stroke:#000000;stroke-width:0.8;"/>
   </g>
  </g>
 </g>
 <defs>
  <clipPath id="p46290ced4e">
   <rect height="190.08" width="545.791177885" x="9.62432830991" y="7.2"/>
  </clipPath>
 </defs>
</svg>
