<?xml version="1.0" encoding="utf-8" standalone="no"?>
<!DOCTYPE svg PUBLIC "-//W3C//DTD SVG 1.1//EN"
  "http://www.w3.org/Graphics/SVG/1.1/DTD/svg11.dtd">
<!-- Created with matplotlib (http://matplotlib.sourceforge.net/) -->
<svg height="420pt" version="1.1" viewBox="0 0 562 420" width="562pt" xmlns="http://www.w3.org/2000/svg" xmlns:xlink="http://www.w3.org/1999/xlink">
 <defs>
  <style type="text/css">
*{stroke-linecap:square;stroke-linejoin:round;}
  </style>
 </defs>
 <g id="figure_1">
  <g id="patch_1">
   <path d="
M0 420.48
L562.744 420.48
L562.744 0
L0 0
z
" style="fill:#ffffff;"/>
  </g>
  <g id="axes_1">
   <g id="patch_2">
    <path d="
M19.0309 413.28
L555.544 413.28
L555.544 7.2
L19.0309 7.2
z
" style="fill:#ffffff;"/>
   </g>
   <g id="line2d_1">
    <path clip-path="url(#p13c0847ff8)" d="
M29.3484 15.0092
L29.3965 15.0092
L29.3965 405.471
L29.4537 392.934
L29.5147 392.934
L29.5768 383.556
L29.6415 383.556
L29.7082 373.249
L29.7741 373.249
L29.8417 364.889
L29.911 364.889
L29.9804 356.371
L30.0506 356.371
L30.1209 353.261
L30.1923 353.261
L30.1923 352.937
L30.2646 352.937
L30.2646 352.937
L30.3362 354.268
L30.4089 354.268
L30.4089 354.469
L30.4818 354.469
L30.4818 354.469
L30.555 353.798
L30.6286 353.798
L30.7035 353.52
L30.7767 353.52
L30.7767 353.324
L30.852 353.343
L31.0018 353.38
L31.077 354.67
L31.1528 354.67
L31.2291 355.305
L31.3063 355.305
L31.3818 356.733
L31.4605 356.733
L31.5366 358.739
L31.6132 358.739
L31.6911 360.603
L31.7694 360.603
L31.8457 362.504
L31.9236 362.504
L32.0021 364.177
L32.0794 364.177
L32.1589 365.424
L32.238 365.424
L32.317 366.446
L32.3944 366.446
L32.4739 367.234
L32.6328 367.334
L32.714 367.727
L32.7931 367.727
L32.8734 368.12
L32.9523 368.12
L33.0317 369.019
L33.1123 369.019
L33.194 370.121
L33.2745 370.121
L33.3546 370.859
L33.4347 370.859
L33.5151 371.61
L33.5956 371.61
L33.6766 372.463
L33.7591 372.463
L33.8384 373.257
L33.92 373.257
L34.0021 373.799
L34.0836 373.799
L34.1652 374.178
L34.2478 374.178
L34.3296 374.472
L34.4128 374.472
L34.4956 374.75
L34.5762 374.75
L34.6582 375.045
L34.7408 375.045
L34.8254 375.468
L34.9083 375.468
L34.9903 375.729
L35.1546 375.837
L35.2369 375.958
L35.4024 375.996
L35.4832 376.304
L35.568 376.304
L35.651 376.453
L35.8201 376.528
L35.9019 376.609
L36.3227 376.526
L36.4067 376.378
L36.5719 376.286
L36.6593 376.15
L36.8268 376.089
L36.9095 375.973
L37.1613 375.889
L37.2476 375.75
L37.3337 375.75
L37.4182 375.528
L37.5034 375.528
L37.59 375.266
L37.675 375.266
L37.7588 375.031
L37.8443 375.031
L37.9297 374.775
L38.0132 374.775
L38.0999 374.527
L38.1847 374.527
L38.2709 374.254
L38.3577 374.254
L38.4438 373.911
L38.5285 373.911
L38.6136 373.62
L38.7835 373.521
L38.8702 373.377
L39.5582 373.485
L39.6435 373.527
L41.6402 373.468
L41.727 373.356
L42.0774 373.253
L42.1668 373.242
L42.6897 373.15
L42.778 373.103
L43.3918 373.202
L43.4827 373.245
L43.8354 373.347
L43.9198 373.429
L44.5417 373.516
L44.6313 373.612
L44.8079 373.684
L44.8952 373.847
L45.0751 373.908
L45.1661 374.038
L45.3413 374.092
L45.4295 374.212
L45.6963 374.307
L45.7847 374.385
L46.1373 374.49
L46.2263 374.553
L47.3009 374.635
L47.3922 374.701
L47.7546 374.793
L47.8452 374.855
L48.2922 374.948
L48.3802 374.998
L48.6474 375.072
L48.7368 375.155
L49.0986 375.249
L49.1879 375.299
L49.7278 375.391
L49.8213 375.419
L50.3626 375.522
L50.4524 375.568
L50.9072 375.671
L50.9963 375.737
L51.2702 375.839
L51.3598 375.964
L51.5441 376.021
L51.634 376.139
L51.8181 376.215
L51.9091 376.369
L52.0929 376.448
L52.181 376.617
L52.3596 376.695
L52.4502 376.85
L52.6326 376.925
L52.7246 377.088
L52.9069 377.168
L52.9978 377.331
L53.1794 377.415
L53.2717 377.573
L53.4555 377.655
L53.5445 377.777
L53.8178 377.886
L53.9109 378.002
L54.0957 378.065
L54.1866 378.18
L54.5518 378.289
L54.6391 378.363
L55.0049 378.473
L55.0945 378.53
L55.7405 378.639
L55.8316 378.648
L57.396 378.757
L57.4872 378.793
L58.0444 378.9
L58.1372 378.947
L58.5083 379.034
L58.6026 379.103
L58.9706 379.202
L59.0631 379.278
L59.4364 379.383
L59.5287 379.44
L60.0806 379.545
L60.1745 379.575
L64.9236 379.676
L65.0182 379.698
L65.5789 379.792
L65.6704 379.831
L66.2341 379.931
L66.3276 379.982
L66.7047 380.078
L66.7987 380.132
L67.2694 380.22
L67.362 380.274
L68.0237 380.383
L68.1179 380.432
L68.587 380.526
L68.6826 380.584
L69.152 380.684
L69.2465 380.73
L70.0947 380.839
L70.1897 380.867
L74.5443 380.973
L74.6391 380.985
L77.1154 381.083
L77.212 381.12
L78.1696 381.22
L78.2652 381.247
L78.8343 381.344
L78.9319 381.384
L79.5065 381.479
L79.5999 381.524
L80.0779 381.63
L80.177 381.692
L80.5626 381.776
L80.6575 381.828
L81.1396 381.937
L81.235 381.982
L81.906 382.091
L82.0044 382.132
L82.5798 382.239
L82.6753 382.277
L83.4406 382.387
L83.5353 382.414
L84.4003 382.514
L84.4929 382.544
L85.2667 382.645
L85.361 382.669
L86.2289 382.772
L86.3259 382.809
L87.1894 382.912
L87.2881 382.937
L88.1598 383.035
L88.2568 383.065
L88.93 383.174
L89.0261 383.209
L89.8954 383.319
L89.9924 383.341
L91.0541 383.448
L91.1533 383.463
L92.1238 383.568
L92.2214 383.588
L93.9629 383.698
L94.0626 383.709
L98.4484 383.604
L98.5473 383.586
L101.477 383.48
L101.576 383.463
L103.143 383.355
L103.24 383.34
L104.608 383.237
L104.706 383.218
L106.079 383.108
L106.179 383.098
L108.147 382.993
L108.245 382.978
L109.236 382.871
L109.333 382.844
L110.212 382.736
L110.311 382.702
L111.102 382.595
L111.196 382.568
L112.084 382.467
L112.186 382.444
L113.073 382.334
L113.171 382.3
L113.867 382.204
L113.965 382.174
L114.757 382.073
L114.856 382.045
L115.741 381.939
L115.839 381.908
L116.532 381.803
L116.63 381.768
L117.318 381.67
L117.415 381.636
L118.214 381.528
L118.312 381.494
L119.002 381.395
L119.101 381.365
L120.083 381.254
L120.184 381.228
L121.082 381.13
L121.179 381.104
L121.972 381.003
L122.069 380.979
L122.87 380.874
L122.968 380.841
L123.761 380.741
L123.858 380.713
L124.659 380.614
L124.76 380.583
L125.454 380.482
L125.552 380.443
L126.149 380.348
L126.249 380.309
L126.95 380.202
L127.047 380.168
L127.745 380.064
L127.844 380.03
L128.546 379.93
L128.646 379.893
L129.342 379.787
L129.441 379.755
L130.242 379.652
L130.343 379.624
L131.24 379.523
L131.339 379.499
L132.333 379.394
L132.436 379.371
L133.334 379.27
L133.431 379.242
L134.237 379.143
L134.338 379.115
L135.34 379.007
L135.44 378.985
L136.738 378.874
L136.842 378.86
L139.748 378.753
L139.848 378.745
L142.154 378.638
L142.253 378.626
L144.471 378.518
L144.571 378.511
L147.792 378.401
L147.893 378.397
L151.621 378.291
L151.725 378.282
L154.149 378.172
L154.25 378.161
L155.763 378.057
L155.864 378.042
L157.275 377.935
L157.377 377.914
L158.496 377.803
L158.599 377.778
L159.618 377.671
L159.719 377.646
L160.633 377.545
L160.732 377.521
L161.746 377.411
L161.85 377.389
L162.959 377.288
L163.062 377.266
L164.176 377.163
L164.278 377.141
L165.298 377.032
L165.4 377.008
L166.307 376.903
L166.407 376.876
L167.22 376.775
L167.325 376.742
L168.037 376.643
L168.138 376.607
L168.849 376.497
L168.951 376.46
L169.556 376.364
L169.66 376.324
L170.275 376.226
L170.377 376.189
L171.089 376.082
L171.192 376.047
L171.899 375.937
L172.002 375.901
L172.715 375.801
L172.817 375.767
L173.53 375.66
L173.632 375.62
L174.244 375.523
L174.346 375.484
L174.959 375.383
L175.059 375.346
L175.772 375.236
L175.875 375.199
L176.484 375.1
L176.587 375.059
L177.199 374.955
L177.3 374.914
L177.915 374.809
L178.022 374.767
L178.631 374.662
L178.734 374.619
L179.246 374.53
L179.351 374.485
L179.863 374.394
L179.965 374.349
L180.576 374.238
L180.678 374.197
L181.295 374.089
L181.398 374.047
L182.011 373.939
L182.113 373.896
L182.719 373.792
L182.824 373.753
L183.539 373.642
L183.643 373.607
L184.351 373.503
L184.454 373.468
L185.166 373.367
L185.268 373.336
L186.086 373.226
L186.186 373.194
L187.012 373.089
L187.112 373.062
L188.029 372.96
L188.132 372.935
L189.053 372.833
L189.157 372.805
L189.983 372.703
L190.085 372.674
L190.906 372.571
L191.009 372.544
L191.837 372.442
L191.941 372.413
L192.759 372.314
L192.861 372.286
L193.682 372.177
L193.783 372.145
L194.502 372.049
L194.608 372.018
L195.428 371.908
L195.533 371.876
L196.352 371.774
L196.455 371.745
L197.276 371.642
L197.379 371.612
L198.199 371.508
L198.302 371.479
L199.128 371.378
L199.231 371.349
L200.055 371.25
L200.157 371.222
L201.08 371.12
L201.182 371.095
L202.105 370.994
L202.208 370.969
L203.139 370.868
L203.242 370.843
L204.164 370.744
L204.268 370.718
L205.307 370.612
L205.411 370.59
L206.452 370.489
L206.558 370.466
L207.692 370.356
L207.795 370.333
L208.936 370.226
L209.041 370.205
L210.174 370.099
L210.279 370.079
L211.414 369.976
L211.517 369.952
L212.55 369.843
L212.653 369.818
L213.585 369.719
L213.687 369.692
L214.621 369.585
L214.723 369.559
L215.65 369.458
L215.754 369.432
L216.685 369.333
L216.785 369.309
L217.718 369.208
L217.822 369.183
L218.862 369.073
L218.965 369.049
L219.904 368.946
L220.008 368.92
L220.928 368.818
L221.031 368.792
L221.97 368.693
L222.073 368.669
L223.105 368.563
L223.211 368.54
L224.352 368.431
L224.458 368.41
L225.602 368.308
L225.704 368.289
L226.936 368.184
L227.041 368.166
L228.394 368.061
L228.498 368.043
L229.84 367.936
L229.943 367.917
L231.295 367.813
L231.398 367.796
L232.95 367.686
L233.054 367.67
L234.606 367.562
L234.711 367.547
L236.381 367.437
L236.485 367.423
L238.045 367.314
L238.149 367.301
L239.812 367.195
L239.916 367.182
L241.587 367.074
L241.691 367.06
L243.154 366.955
L243.256 366.938
L244.828 366.828
L244.933 366.81
L246.085 366.706
L246.191 366.685
L247.435 366.578
L247.538 366.557
L248.683 366.456
L248.788 366.435
L249.942 366.329
L250.046 366.309
L251.309 366.201
L251.412 366.182
L252.666 366.074
L252.77 366.055
L254.018 365.946
L254.121 365.928
L255.491 365.821
L255.596 365.803
L256.849 365.696
L256.955 365.676
L258.21 365.567
L258.315 365.546
L259.463 365.441
L259.568 365.42
L260.72 365.311
L260.823 365.288
L261.971 365.177
L262.077 365.155
L263.222 365.047
L263.326 365.026
L264.373 364.921
L264.478 364.895
L265.415 364.791
L265.52 364.766
L266.463 364.661
L266.573 364.633
L267.519 364.524
L267.623 364.497
L268.465 364.398
L268.57 364.37
L269.408 364.271
L269.514 364.244
L270.457 364.135
L270.561 364.107
L271.397 364.005
L271.503 363.976
L272.351 363.872
L272.455 363.842
L273.291 363.736
L273.395 363.706
L274.241 363.604
L274.343 363.576
L275.186 363.47
L275.293 363.438
L276.135 363.33
L276.237 363.3
L277.083 363.192
L277.187 363.161
L277.927 363.064
L278.032 363.031
L278.769 362.929
L278.875 362.895
L279.609 362.793
L279.713 362.761
L280.454 362.66
L280.559 362.627
L281.297 362.529
L281.404 362.497
L282.246 362.386
L282.354 362.354
L283.192 362.243
L283.295 362.213
L284.033 362.116
L284.137 362.085
L284.975 361.978
L285.079 361.948
L285.921 361.846
L286.024 361.817
L286.865 361.716
L286.97 361.688
L287.817 361.588
L287.921 361.56
L288.766 361.462
L288.87 361.434
L289.714 361.337
L289.82 361.309
L290.767 361.2
L290.872 361.173
L291.815 361.071
L291.924 361.047
L292.986 360.94
L293.088 360.915
L294.043 360.816
L294.145 360.792
L295.093 360.692
L295.197 360.667
L296.151 360.565
L296.257 360.54
L297.304 360.438
L297.409 360.417
L298.573 360.315
L298.68 360.295
L299.949 360.185
L300.055 360.164
L301.218 360.054
L301.322 360.032
L302.378 359.931
L302.486 359.909
L303.542 359.802
L303.646 359.779
L304.594 359.679
L304.702 359.653
L305.662 359.546
L305.77 359.519
L306.721 359.416
L306.826 359.391
L307.778 359.287
L307.883 359.262
L308.839 359.157
L308.944 359.13
L309.902 359.026
L310.009 358.999
L310.964 358.899
L311.067 358.874
L312.022 358.771
L312.127 358.745
L313.084 358.643
L313.19 358.618
L314.141 358.517
L314.246 358.492
L315.306 358.382
L315.411 358.359
L316.476 358.252
L316.58 358.228
L317.635 358.125
L317.741 358.101
L318.799 357.997
L318.904 357.975
L319.965 357.874
L320.068 357.851
L321.137 357.746
L321.243 357.722
L322.292 357.615
L322.398 357.591
L323.569 357.48
L323.677 357.459
L324.842 357.352
L324.944 357.331
L326.113 357.225
L326.216 357.205
L327.498 357.097
L327.605 357.079
L328.778 356.978
L328.882 356.958
L330.16 356.85
L330.265 356.83
L331.432 356.727
L331.537 356.708
L332.805 356.605
L332.911 356.587
L334.299 356.478
L334.406 356.46
L335.8 356.354
L335.903 356.336
L337.285 356.227
L337.392 356.209
L338.778 356.104
L338.882 356.088
L340.585 355.982
L340.692 355.969
L342.391 355.863
L342.499 355.847
L343.984 355.742
L344.089 355.727
L345.699 355.618
L345.808 355.602
L347.411 355.499
L347.516 355.483
L349.009 355.378
L349.117 355.361
L350.61 355.25
L350.715 355.233
L352.212 355.124
L352.318 355.107
L353.812 355
L353.915 354.984
L355.519 354.874
L355.625 354.858
L357.222 354.751
L357.328 354.736
L359.033 354.628
L359.136 354.613
L360.742 354.505
L360.85 354.489
L362.452 354.382
L362.562 354.367
L364.387 354.257
L364.495 354.244
L366.208 354.137
L366.314 354.122
L367.919 354.013
L368.026 353.997
L369.736 353.886
L369.842 353.873
L371.543 353.765
L371.65 353.75
L373.359 353.642
L373.464 353.627
L375.076 353.523
L375.186 353.509
L376.893 353.399
L377.001 353.384
L378.71 353.279
L378.816 353.266
L380.748 353.159
L380.852 353.147
L383.109 353.036
L383.216 353.026
L385.581 352.915
L385.687 352.904
L388.046 352.793
L388.152 352.783
L390.622 352.674
L390.73 352.664
L393.194 352.557
L393.3 352.547
L395.997 352.437
L396.102 352.428
L399.322 352.32
L399.429 352.312
L402.323 352.206
L402.43 352.196
L404.914 352.087
L405.017 352.077
L407.386 351.969
L407.494 351.959
L409.967 351.852
L410.075 351.842
L412.777 351.733
L412.884 351.724
L416.009 351.615
L416.117 351.608
L419.56 351.498
L419.667 351.491
L423.334 351.38
L423.439 351.374
L427.654 351.264
L427.761 351.258
L431.329 351.149
L431.437 351.143
L437.605 351.033
L437.712 351.03
L445.18 350.919
L445.289 350.914
L453.828 350.804
L453.937 350.801
L464.562 350.691
L464.67 350.689
L485.853 350.578
L485.964 350.575
L491.189 350.465
L491.297 350.46
L495.762 350.352
L495.762 350.349
L499.688 350.24
L499.795 350.234
L504.042 350.126
L504.152 350.119
L507.968 350.01
L508.076 350.003
L511.571 349.896
L511.682 349.888
L514.952 349.78
L514.952 349.777
L518.231 349.668
L518.338 349.662
L522.359 349.551
L522.47 349.545
L527.067 349.435
L527.177 349.43
L531.771 349.321
L531.878 349.315
L537.446 349.205
L537.556 349.201
L542.714 349.09
L542.714 349.088
L545.226 349.045
L545.226 349.044" style="fill:none;stroke:#ff0000;stroke-width:0.5;"/>
   </g>
   <g id="matplotlib.axis_1">
    <g id="xtick_1">
     <g id="line2d_2">
      <defs>
       <path d="
M0 0
L0 -4" id="m7ad385bedf"/>
      </defs>
      <g>
       <use style="stroke:#000000;stroke-linecap:butt;stroke-width:0.5;" x="29.3484375" xlink:href="#m7ad385bedf" y="15.0092307692"/>
      </g>
     </g>
    </g>
    <g id="xtick_2">
     <g id="line2d_3">
      <defs>
       <path d="
M0 0
L0 -4" id="m7ad385bedf"/>
      </defs>
      <g>
       <use style="stroke:#000000;stroke-linecap:butt;stroke-width:0.5;" x="132.529900812" xlink:href="#m7ad385bedf" y="15.0092307692"/>
      </g>
     </g>
     <g id="text_1">
      <!-- 2e7 -->
      <defs>
       <path d="
M19.1875 8.29688
L53.6094 8.29688
L53.6094 0
L7.32812 0
L7.32812 8.29688
Q12.9375 14.1094 22.625 23.8906
Q32.3281 33.6875 34.8125 36.5312
Q39.5469 41.8438 41.4219 45.5312
Q43.3125 49.2188 43.3125 52.7812
Q43.3125 58.5938 39.2344 62.25
Q35.1562 65.9219 28.6094 65.9219
Q23.9688 65.9219 18.8125 64.3125
Q13.6719 62.7031 7.8125 59.4219
L7.8125 69.3906
Q13.7656 71.7812 18.9375 73
Q24.125 74.2188 28.4219 74.2188
Q39.75 74.2188 46.4844 68.5469
Q53.2188 62.8906 53.2188 53.4219
Q53.2188 48.9219 51.5312 44.8906
Q49.8594 40.875 45.4062 35.4062
Q44.1875 33.9844 37.6406 27.2188
Q31.1094 20.4531 19.1875 8.29688" id="BitstreamVeraSans-Roman-32"/>
       <path d="
M56.2031 29.5938
L56.2031 25.2031
L14.8906 25.2031
Q15.4844 15.9219 20.4844 11.0625
Q25.4844 6.20312 34.4219 6.20312
Q39.5938 6.20312 44.4531 7.46875
Q49.3125 8.73438 54.1094 11.2812
L54.1094 2.78125
Q49.2656 0.734375 44.1875 -0.34375
Q39.1094 -1.42188 33.8906 -1.42188
Q20.7969 -1.42188 13.1562 6.1875
Q5.51562 13.8125 5.51562 26.8125
Q5.51562 40.2344 12.7656 48.1094
Q20.0156 56 32.3281 56
Q43.3594 56 49.7812 48.8906
Q56.2031 41.7969 56.2031 29.5938
M47.2188 32.2344
Q47.125 39.5938 43.0938 43.9844
Q39.0625 48.3906 32.4219 48.3906
Q24.9062 48.3906 20.3906 44.1406
Q15.875 39.8906 15.1875 32.1719
z
" id="BitstreamVeraSans-Roman-65"/>
       <path d="
M8.20312 72.9062
L55.0781 72.9062
L55.0781 68.7031
L28.6094 0
L18.3125 0
L43.2188 64.5938
L8.20312 64.5938
z
" id="BitstreamVeraSans-Roman-37"/>
      </defs>
      <g transform="translate(123.884588312 26.4311057692)scale(0.1 -0.1)">
       <use xlink:href="#BitstreamVeraSans-Roman-32"/>
       <use x="63.623046875" xlink:href="#BitstreamVeraSans-Roman-65"/>
       <use x="125.146484375" xlink:href="#BitstreamVeraSans-Roman-37"/>
      </g>
     </g>
    </g>
    <g id="xtick_3">
     <g id="line2d_4">
      <defs>
       <path d="
M0 0
L0 -4" id="m7ad385bedf"/>
      </defs>
      <g>
       <use style="stroke:#000000;stroke-linecap:butt;stroke-width:0.5;" x="235.711364124" xlink:href="#m7ad385bedf" y="15.0092307692"/>
      </g>
     </g>
     <g id="text_2">
      <!-- 4e7 -->
      <defs>
       <path d="
M37.7969 64.3125
L12.8906 25.3906
L37.7969 25.3906
z

M35.2031 72.9062
L47.6094 72.9062
L47.6094 25.3906
L58.0156 25.3906
L58.0156 17.1875
L47.6094 17.1875
L47.6094 0
L37.7969 0
L37.7969 17.1875
L4.89062 17.1875
L4.89062 26.7031
z
" id="BitstreamVeraSans-Roman-34"/>
      </defs>
      <g transform="translate(226.944176624 26.2998557692)scale(0.1 -0.1)">
       <use xlink:href="#BitstreamVeraSans-Roman-34"/>
       <use x="63.623046875" xlink:href="#BitstreamVeraSans-Roman-65"/>
       <use x="125.146484375" xlink:href="#BitstreamVeraSans-Roman-37"/>
      </g>
     </g>
    </g>
    <g id="xtick_4">
     <g id="line2d_5">
      <defs>
       <path d="
M0 0
L0 -4" id="m7ad385bedf"/>
      </defs>
      <g>
       <use style="stroke:#000000;stroke-linecap:butt;stroke-width:0.5;" x="338.892827436" xlink:href="#m7ad385bedf" y="15.0092307692"/>
      </g>
     </g>
     <g id="text_3">
      <!-- 6e7 -->
      <defs>
       <path d="
M33.0156 40.375
Q26.375 40.375 22.4844 35.8281
Q18.6094 31.2969 18.6094 23.3906
Q18.6094 15.5312 22.4844 10.9531
Q26.375 6.39062 33.0156 6.39062
Q39.6562 6.39062 43.5312 10.9531
Q47.4062 15.5312 47.4062 23.3906
Q47.4062 31.2969 43.5312 35.8281
Q39.6562 40.375 33.0156 40.375
M52.5938 71.2969
L52.5938 62.3125
Q48.875 64.0625 45.0938 64.9844
Q41.3125 65.9219 37.5938 65.9219
Q27.8281 65.9219 22.6719 59.3281
Q17.5312 52.7344 16.7969 39.4062
Q19.6719 43.6562 24.0156 45.9219
Q28.375 48.1875 33.5938 48.1875
Q44.5781 48.1875 50.9531 41.5156
Q57.3281 34.8594 57.3281 23.3906
Q57.3281 12.1562 50.6875 5.35938
Q44.0469 -1.42188 33.0156 -1.42188
Q20.3594 -1.42188 13.6719 8.26562
Q6.98438 17.9688 6.98438 36.375
Q6.98438 53.6562 15.1875 63.9375
Q23.3906 74.2188 37.2031 74.2188
Q40.9219 74.2188 44.7031 73.4844
Q48.4844 72.75 52.5938 71.2969" id="BitstreamVeraSans-Roman-36"/>
      </defs>
      <g transform="translate(330.230327436 26.4311057692)scale(0.1 -0.1)">
       <use xlink:href="#BitstreamVeraSans-Roman-36"/>
       <use x="63.623046875" xlink:href="#BitstreamVeraSans-Roman-65"/>
       <use x="125.146484375" xlink:href="#BitstreamVeraSans-Roman-37"/>
      </g>
     </g>
    </g>
    <g id="xtick_5">
     <g id="line2d_6">
      <defs>
       <path d="
M0 0
L0 -4" id="m7ad385bedf"/>
      </defs>
      <g>
       <use style="stroke:#000000;stroke-linecap:butt;stroke-width:0.5;" x="442.074290747" xlink:href="#m7ad385bedf" y="15.0092307692"/>
      </g>
     </g>
     <g id="text_4">
      <!-- 8e7 -->
      <defs>
       <path d="
M31.7812 34.625
Q24.75 34.625 20.7188 30.8594
Q16.7031 27.0938 16.7031 20.5156
Q16.7031 13.9219 20.7188 10.1562
Q24.75 6.39062 31.7812 6.39062
Q38.8125 6.39062 42.8594 10.1719
Q46.9219 13.9688 46.9219 20.5156
Q46.9219 27.0938 42.8906 30.8594
Q38.875 34.625 31.7812 34.625
M21.9219 38.8125
Q15.5781 40.375 12.0312 44.7188
Q8.5 49.0781 8.5 55.3281
Q8.5 64.0625 14.7188 69.1406
Q20.9531 74.2188 31.7812 74.2188
Q42.6719 74.2188 48.875 69.1406
Q55.0781 64.0625 55.0781 55.3281
Q55.0781 49.0781 51.5312 44.7188
Q48 40.375 41.7031 38.8125
Q48.8281 37.1562 52.7969 32.3125
Q56.7812 27.4844 56.7812 20.5156
Q56.7812 9.90625 50.3125 4.23438
Q43.8438 -1.42188 31.7812 -1.42188
Q19.7344 -1.42188 13.25 4.23438
Q6.78125 9.90625 6.78125 20.5156
Q6.78125 27.4844 10.7812 32.3125
Q14.7969 37.1562 21.9219 38.8125
M18.3125 54.3906
Q18.3125 48.7344 21.8438 45.5625
Q25.3906 42.3906 31.7812 42.3906
Q38.1406 42.3906 41.7188 45.5625
Q45.3125 48.7344 45.3125 54.3906
Q45.3125 60.0625 41.7188 63.2344
Q38.1406 66.4062 31.7812 66.4062
Q25.3906 66.4062 21.8438 63.2344
Q18.3125 60.0625 18.3125 54.3906" id="BitstreamVeraSans-Roman-38"/>
      </defs>
      <g transform="translate(433.401634497 26.4311057692)scale(0.1 -0.1)">
       <use xlink:href="#BitstreamVeraSans-Roman-38"/>
       <use x="63.623046875" xlink:href="#BitstreamVeraSans-Roman-65"/>
       <use x="125.146484375" xlink:href="#BitstreamVeraSans-Roman-37"/>
      </g>
     </g>
    </g>
    <g id="xtick_6">
     <g id="line2d_7">
      <defs>
       <path d="
M0 0
L0 -4" id="m7ad385bedf"/>
      </defs>
      <g>
       <use style="stroke:#000000;stroke-linecap:butt;stroke-width:0.5;" x="545.255754059" xlink:href="#m7ad385bedf" y="15.0092307692"/>
      </g>
     </g>
     <g id="text_5">
      <!-- 1e8 -->
      <defs>
       <path d="
M12.4062 8.29688
L28.5156 8.29688
L28.5156 63.9219
L10.9844 60.4062
L10.9844 69.3906
L28.4219 72.9062
L38.2812 72.9062
L38.2812 8.29688
L54.3906 8.29688
L54.3906 0
L12.4062 0
z
" id="BitstreamVeraSans-Roman-31"/>
      </defs>
      <g transform="translate(536.708097809 26.4311057692)scale(0.1 -0.1)">
       <use xlink:href="#BitstreamVeraSans-Roman-31"/>
       <use x="63.623046875" xlink:href="#BitstreamVeraSans-Roman-65"/>
       <use x="125.146484375" xlink:href="#BitstreamVeraSans-Roman-38"/>
      </g>
     </g>
    </g>
    <g id="xtick_7">
     <g id="line2d_8">
      <defs>
       <path d="
M0 0
L0 -2" id="m09145b714f"/>
      </defs>
      <g>
       <use style="stroke:#000000;stroke-linecap:butt;stroke-width:0.5;" x="55.143803328" xlink:href="#m09145b714f" y="15.0092307692"/>
      </g>
     </g>
    </g>
    <g id="xtick_8">
     <g id="line2d_9">
      <defs>
       <path d="
M0 0
L0 -2" id="m09145b714f"/>
      </defs>
      <g>
       <use style="stroke:#000000;stroke-linecap:butt;stroke-width:0.5;" x="80.9391691559" xlink:href="#m09145b714f" y="15.0092307692"/>
      </g>
     </g>
    </g>
    <g id="xtick_9">
     <g id="line2d_10">
      <defs>
       <path d="
M0 0
L0 -2" id="m09145b714f"/>
      </defs>
      <g>
       <use style="stroke:#000000;stroke-linecap:butt;stroke-width:0.5;" x="106.734534984" xlink:href="#m09145b714f" y="15.0092307692"/>
      </g>
     </g>
    </g>
    <g id="xtick_10">
     <g id="line2d_11">
      <defs>
       <path d="
M0 0
L0 -2" id="m09145b714f"/>
      </defs>
      <g>
       <use style="stroke:#000000;stroke-linecap:butt;stroke-width:0.5;" x="158.32526664" xlink:href="#m09145b714f" y="15.0092307692"/>
      </g>
     </g>
    </g>
    <g id="xtick_11">
     <g id="line2d_12">
      <defs>
       <path d="
M0 0
L0 -2" id="m09145b714f"/>
      </defs>
      <g>
       <use style="stroke:#000000;stroke-linecap:butt;stroke-width:0.5;" x="184.120632468" xlink:href="#m09145b714f" y="15.0092307692"/>
      </g>
     </g>
    </g>
    <g id="xtick_12">
     <g id="line2d_13">
      <defs>
       <path d="
M0 0
L0 -2" id="m09145b714f"/>
      </defs>
      <g>
       <use style="stroke:#000000;stroke-linecap:butt;stroke-width:0.5;" x="209.915998296" xlink:href="#m09145b714f" y="15.0092307692"/>
      </g>
     </g>
    </g>
    <g id="xtick_13">
     <g id="line2d_14">
      <defs>
       <path d="
M0 0
L0 -2" id="m09145b714f"/>
      </defs>
      <g>
       <use style="stroke:#000000;stroke-linecap:butt;stroke-width:0.5;" x="261.506729952" xlink:href="#m09145b714f" y="15.0092307692"/>
      </g>
     </g>
    </g>
    <g id="xtick_14">
     <g id="line2d_15">
      <defs>
       <path d="
M0 0
L0 -2" id="m09145b714f"/>
      </defs>
      <g>
       <use style="stroke:#000000;stroke-linecap:butt;stroke-width:0.5;" x="287.30209578" xlink:href="#m09145b714f" y="15.0092307692"/>
      </g>
     </g>
    </g>
    <g id="xtick_15">
     <g id="line2d_16">
      <defs>
       <path d="
M0 0
L0 -2" id="m09145b714f"/>
      </defs>
      <g>
       <use style="stroke:#000000;stroke-linecap:butt;stroke-width:0.5;" x="313.097461608" xlink:href="#m09145b714f" y="15.0092307692"/>
      </g>
     </g>
    </g>
    <g id="xtick_16">
     <g id="line2d_17">
      <defs>
       <path d="
M0 0
L0 -2" id="m09145b714f"/>
      </defs>
      <g>
       <use style="stroke:#000000;stroke-linecap:butt;stroke-width:0.5;" x="364.688193263" xlink:href="#m09145b714f" y="15.0092307692"/>
      </g>
     </g>
    </g>
    <g id="xtick_17">
     <g id="line2d_18">
      <defs>
       <path d="
M0 0
L0 -2" id="m09145b714f"/>
      </defs>
      <g>
       <use style="stroke:#000000;stroke-linecap:butt;stroke-width:0.5;" x="390.483559091" xlink:href="#m09145b714f" y="15.0092307692"/>
      </g>
     </g>
    </g>
    <g id="xtick_18">
     <g id="line2d_19">
      <defs>
       <path d="
M0 0
L0 -2" id="m09145b714f"/>
      </defs>
      <g>
       <use style="stroke:#000000;stroke-linecap:butt;stroke-width:0.5;" x="416.278924919" xlink:href="#m09145b714f" y="15.0092307692"/>
      </g>
     </g>
    </g>
    <g id="xtick_19">
     <g id="line2d_20">
      <defs>
       <path d="
M0 0
L0 -2" id="m09145b714f"/>
      </defs>
      <g>
       <use style="stroke:#000000;stroke-linecap:butt;stroke-width:0.5;" x="467.869656575" xlink:href="#m09145b714f" y="15.0092307692"/>
      </g>
     </g>
    </g>
    <g id="xtick_20">
     <g id="line2d_21">
      <defs>
       <path d="
M0 0
L0 -2" id="m09145b714f"/>
      </defs>
      <g>
       <use style="stroke:#000000;stroke-linecap:butt;stroke-width:0.5;" x="493.665022403" xlink:href="#m09145b714f" y="15.0092307692"/>
      </g>
     </g>
    </g>
    <g id="xtick_21">
     <g id="line2d_22">
      <defs>
       <path d="
M0 0
L0 -2" id="m09145b714f"/>
      </defs>
      <g>
       <use style="stroke:#000000;stroke-linecap:butt;stroke-width:0.5;" x="519.460388231" xlink:href="#m09145b714f" y="15.0092307692"/>
      </g>
     </g>
    </g>
   </g>
   <g id="matplotlib.axis_2">
    <g id="ytick_1">
     <g id="line2d_23">
      <defs>
       <path d="
M0 0
L4 0" id="m53d7c914d4"/>
      </defs>
      <g>
       <use style="stroke:#000000;stroke-linecap:butt;stroke-width:0.5;" x="29.3484375" xlink:href="#m53d7c914d4" y="397.37167668"/>
      </g>
     </g>
     <g id="text_6">
      <!-- -3.5 -->
      <defs>
       <path d="
M40.5781 39.3125
Q47.6562 37.7969 51.625 33
Q55.6094 28.2188 55.6094 21.1875
Q55.6094 10.4062 48.1875 4.48438
Q40.7656 -1.42188 27.0938 -1.42188
Q22.5156 -1.42188 17.6562 -0.515625
Q12.7969 0.390625 7.625 2.20312
L7.625 11.7188
Q11.7188 9.32812 16.5938 8.10938
Q21.4844 6.89062 26.8125 6.89062
Q36.0781 6.89062 40.9375 10.5469
Q45.7969 14.2031 45.7969 21.1875
Q45.7969 27.6406 41.2812 31.2656
Q36.7656 34.9062 28.7188 34.9062
L20.2188 34.9062
L20.2188 43.0156
L29.1094 43.0156
Q36.375 43.0156 40.2344 45.9219
Q44.0938 48.8281 44.0938 54.2969
Q44.0938 59.9062 40.1094 62.9062
Q36.1406 65.9219 28.7188 65.9219
Q24.6562 65.9219 20.0156 65.0312
Q15.375 64.1562 9.8125 62.3125
L9.8125 71.0938
Q15.4375 72.6562 20.3438 73.4375
Q25.25 74.2188 29.5938 74.2188
Q40.8281 74.2188 47.3594 69.1094
Q53.9062 64.0156 53.9062 55.3281
Q53.9062 49.2656 50.4375 45.0938
Q46.9688 40.9219 40.5781 39.3125" id="BitstreamVeraSans-Roman-33"/>
       <path d="
M10.6875 12.4062
L21 12.4062
L21 0
L10.6875 0
z
" id="BitstreamVeraSans-Roman-2e"/>
       <path d="
M4.89062 31.3906
L31.2031 31.3906
L31.2031 23.3906
L4.89062 23.3906
z
" id="BitstreamVeraSans-Roman-2d"/>
       <path d="
M10.7969 72.9062
L49.5156 72.9062
L49.5156 64.5938
L19.8281 64.5938
L19.8281 46.7344
Q21.9688 47.4688 24.1094 47.8281
Q26.2656 48.1875 28.4219 48.1875
Q40.625 48.1875 47.75 41.5
Q54.8906 34.8125 54.8906 23.3906
Q54.8906 11.625 47.5625 5.09375
Q40.2344 -1.42188 26.9062 -1.42188
Q22.3125 -1.42188 17.5469 -0.640625
Q12.7969 0.140625 7.71875 1.70312
L7.71875 11.625
Q12.1094 9.23438 16.7969 8.0625
Q21.4844 6.89062 26.7031 6.89062
Q35.1562 6.89062 40.0781 11.3281
Q45.0156 15.7656 45.0156 23.3906
Q45.0156 31 40.0781 35.4375
Q35.1562 39.8906 26.7031 39.8906
Q22.75 39.8906 18.8125 39.0156
Q14.8906 38.1406 10.7969 36.2812
z
" id="BitstreamVeraSans-Roman-35"/>
      </defs>
      <g transform="translate(7.2 401.01152043)scale(0.1 -0.1)">
       <use xlink:href="#BitstreamVeraSans-Roman-2d"/>
       <use x="36.083984375" xlink:href="#BitstreamVeraSans-Roman-33"/>
       <use x="99.70703125" xlink:href="#BitstreamVeraSans-Roman-2e"/>
       <use x="131.494140625" xlink:href="#BitstreamVeraSans-Roman-35"/>
      </g>
     </g>
    </g>
    <g id="ytick_2">
     <g id="line2d_24">
      <defs>
       <path d="
M0 0
L4 0" id="m53d7c914d4"/>
      </defs>
      <g>
       <use style="stroke:#000000;stroke-linecap:butt;stroke-width:0.5;" x="29.3484375" xlink:href="#m53d7c914d4" y="342.748470121"/>
      </g>
     </g>
     <g id="text_7">
      <!-- -3 -->
      <g transform="translate(16.66875 346.388313871)scale(0.1 -0.1)">
       <use xlink:href="#BitstreamVeraSans-Roman-2d"/>
       <use x="36.083984375" xlink:href="#BitstreamVeraSans-Roman-33"/>
      </g>
     </g>
    </g>
    <g id="ytick_3">
     <g id="line2d_25">
      <defs>
       <path d="
M0 0
L4 0" id="m53d7c914d4"/>
      </defs>
      <g>
       <use style="stroke:#000000;stroke-linecap:butt;stroke-width:0.5;" x="29.3484375" xlink:href="#m53d7c914d4" y="288.125263563"/>
      </g>
     </g>
     <g id="text_8">
      <!-- -2.5 -->
      <g transform="translate(7.2 291.765107313)scale(0.1 -0.1)">
       <use xlink:href="#BitstreamVeraSans-Roman-2d"/>
       <use x="36.083984375" xlink:href="#BitstreamVeraSans-Roman-32"/>
       <use x="99.70703125" xlink:href="#BitstreamVeraSans-Roman-2e"/>
       <use x="131.494140625" xlink:href="#BitstreamVeraSans-Roman-35"/>
      </g>
     </g>
    </g>
    <g id="ytick_4">
     <g id="line2d_26">
      <defs>
       <path d="
M0 0
L4 0" id="m53d7c914d4"/>
      </defs>
      <g>
       <use style="stroke:#000000;stroke-linecap:butt;stroke-width:0.5;" x="29.3484375" xlink:href="#m53d7c914d4" y="233.502057004"/>
      </g>
     </g>
     <g id="text_9">
      <!-- -2 -->
      <g transform="translate(16.86875 237.212994504)scale(0.1 -0.1)">
       <use xlink:href="#BitstreamVeraSans-Roman-2d"/>
       <use x="36.083984375" xlink:href="#BitstreamVeraSans-Roman-32"/>
      </g>
     </g>
    </g>
    <g id="ytick_5">
     <g id="line2d_27">
      <defs>
       <path d="
M0 0
L4 0" id="m53d7c914d4"/>
      </defs>
      <g>
       <use style="stroke:#000000;stroke-linecap:butt;stroke-width:0.5;" x="29.3484375" xlink:href="#m53d7c914d4" y="178.878850445"/>
      </g>
     </g>
     <g id="text_10">
      <!-- -1.5 -->
      <g transform="translate(7.2 182.453069195)scale(0.1 -0.1)">
       <use xlink:href="#BitstreamVeraSans-Roman-2d"/>
       <use x="36.083984375" xlink:href="#BitstreamVeraSans-Roman-31"/>
       <use x="99.70703125" xlink:href="#BitstreamVeraSans-Roman-2e"/>
       <use x="131.494140625" xlink:href="#BitstreamVeraSans-Roman-35"/>
      </g>
     </g>
    </g>
    <g id="ytick_6">
     <g id="line2d_28">
      <defs>
       <path d="
M0 0
L4 0" id="m53d7c914d4"/>
      </defs>
      <g>
       <use style="stroke:#000000;stroke-linecap:butt;stroke-width:0.5;" x="29.3484375" xlink:href="#m53d7c914d4" y="124.255643887"/>
      </g>
     </g>
     <g id="text_11">
      <!-- -1 -->
      <g transform="translate(16.790625 127.900956387)scale(0.1 -0.1)">
       <use xlink:href="#BitstreamVeraSans-Roman-2d"/>
       <use x="36.083984375" xlink:href="#BitstreamVeraSans-Roman-31"/>
      </g>
     </g>
    </g>
    <g id="ytick_7">
     <g id="line2d_29">
      <defs>
       <path d="
M0 0
L4 0" id="m53d7c914d4"/>
      </defs>
      <g>
       <use style="stroke:#000000;stroke-linecap:butt;stroke-width:0.5;" x="29.3484375" xlink:href="#m53d7c914d4" y="69.6324373279"/>
      </g>
     </g>
     <g id="text_12">
      <!-- -0.5 -->
      <defs>
       <path d="
M31.7812 66.4062
Q24.1719 66.4062 20.3281 58.9062
Q16.5 51.4219 16.5 36.375
Q16.5 21.3906 20.3281 13.8906
Q24.1719 6.39062 31.7812 6.39062
Q39.4531 6.39062 43.2812 13.8906
Q47.125 21.3906 47.125 36.375
Q47.125 51.4219 43.2812 58.9062
Q39.4531 66.4062 31.7812 66.4062
M31.7812 74.2188
Q44.0469 74.2188 50.5156 64.5156
Q56.9844 54.8281 56.9844 36.375
Q56.9844 17.9688 50.5156 8.26562
Q44.0469 -1.42188 31.7812 -1.42188
Q19.5312 -1.42188 13.0625 8.26562
Q6.59375 17.9688 6.59375 36.375
Q6.59375 54.8281 13.0625 64.5156
Q19.5312 74.2188 31.7812 74.2188" id="BitstreamVeraSans-Roman-30"/>
      </defs>
      <g transform="translate(7.2 73.2722810779)scale(0.1 -0.1)">
       <use xlink:href="#BitstreamVeraSans-Roman-2d"/>
       <use x="36.083984375" xlink:href="#BitstreamVeraSans-Roman-30"/>
       <use x="99.70703125" xlink:href="#BitstreamVeraSans-Roman-2e"/>
       <use x="131.494140625" xlink:href="#BitstreamVeraSans-Roman-35"/>
      </g>
     </g>
    </g>
    <g id="ytick_8">
     <g id="line2d_30">
      <defs>
       <path d="
M0 0
L4 0" id="m53d7c914d4"/>
      </defs>
      <g>
       <use style="stroke:#000000;stroke-linecap:butt;stroke-width:0.5;" x="29.3484375" xlink:href="#m53d7c914d4" y="15.0092307692"/>
      </g>
     </g>
    </g>
    <g id="ytick_9">
     <g id="line2d_31">
      <defs>
       <path d="
M0 0
L2 0" id="maf1b3d3428"/>
      </defs>
      <g>
       <use style="stroke:#000000;stroke-linecap:butt;stroke-width:0.5;" x="29.3484375" xlink:href="#maf1b3d3428" y="408.296317992"/>
      </g>
     </g>
    </g>
    <g id="ytick_10">
     <g id="line2d_32">
      <defs>
       <path d="
M0 0
L2 0" id="maf1b3d3428"/>
      </defs>
      <g>
       <use style="stroke:#000000;stroke-linecap:butt;stroke-width:0.5;" x="29.3484375" xlink:href="#maf1b3d3428" y="386.447035368"/>
      </g>
     </g>
    </g>
    <g id="ytick_11">
     <g id="line2d_33">
      <defs>
       <path d="
M0 0
L2 0" id="maf1b3d3428"/>
      </defs>
      <g>
       <use style="stroke:#000000;stroke-linecap:butt;stroke-width:0.5;" x="29.3484375" xlink:href="#maf1b3d3428" y="375.522394057"/>
      </g>
     </g>
    </g>
    <g id="ytick_12">
     <g id="line2d_34">
      <defs>
       <path d="
M0 0
L2 0" id="maf1b3d3428"/>
      </defs>
      <g>
       <use style="stroke:#000000;stroke-linecap:butt;stroke-width:0.5;" x="29.3484375" xlink:href="#maf1b3d3428" y="364.597752745"/>
      </g>
     </g>
    </g>
    <g id="ytick_13">
     <g id="line2d_35">
      <defs>
       <path d="
M0 0
L2 0" id="maf1b3d3428"/>
      </defs>
      <g>
       <use style="stroke:#000000;stroke-linecap:butt;stroke-width:0.5;" x="29.3484375" xlink:href="#maf1b3d3428" y="353.673111433"/>
      </g>
     </g>
    </g>
    <g id="ytick_14">
     <g id="line2d_36">
      <defs>
       <path d="
M0 0
L2 0" id="maf1b3d3428"/>
      </defs>
      <g>
       <use style="stroke:#000000;stroke-linecap:butt;stroke-width:0.5;" x="29.3484375" xlink:href="#maf1b3d3428" y="331.82382881"/>
      </g>
     </g>
    </g>
    <g id="ytick_15">
     <g id="line2d_37">
      <defs>
       <path d="
M0 0
L2 0" id="maf1b3d3428"/>
      </defs>
      <g>
       <use style="stroke:#000000;stroke-linecap:butt;stroke-width:0.5;" x="29.3484375" xlink:href="#maf1b3d3428" y="320.899187498"/>
      </g>
     </g>
    </g>
    <g id="ytick_16">
     <g id="line2d_38">
      <defs>
       <path d="
M0 0
L2 0" id="maf1b3d3428"/>
      </defs>
      <g>
       <use style="stroke:#000000;stroke-linecap:butt;stroke-width:0.5;" x="29.3484375" xlink:href="#maf1b3d3428" y="309.974546186"/>
      </g>
     </g>
    </g>
    <g id="ytick_17">
     <g id="line2d_39">
      <defs>
       <path d="
M0 0
L2 0" id="maf1b3d3428"/>
      </defs>
      <g>
       <use style="stroke:#000000;stroke-linecap:butt;stroke-width:0.5;" x="29.3484375" xlink:href="#maf1b3d3428" y="299.049904874"/>
      </g>
     </g>
    </g>
    <g id="ytick_18">
     <g id="line2d_40">
      <defs>
       <path d="
M0 0
L2 0" id="maf1b3d3428"/>
      </defs>
      <g>
       <use style="stroke:#000000;stroke-linecap:butt;stroke-width:0.5;" x="29.3484375" xlink:href="#maf1b3d3428" y="288.125263563"/>
      </g>
     </g>
    </g>
    <g id="ytick_19">
     <g id="line2d_41">
      <defs>
       <path d="
M0 0
L2 0" id="maf1b3d3428"/>
      </defs>
      <g>
       <use style="stroke:#000000;stroke-linecap:butt;stroke-width:0.5;" x="29.3484375" xlink:href="#maf1b3d3428" y="277.200622251"/>
      </g>
     </g>
    </g>
    <g id="ytick_20">
     <g id="line2d_42">
      <defs>
       <path d="
M0 0
L2 0" id="maf1b3d3428"/>
      </defs>
      <g>
       <use style="stroke:#000000;stroke-linecap:butt;stroke-width:0.5;" x="29.3484375" xlink:href="#maf1b3d3428" y="266.275980939"/>
      </g>
     </g>
    </g>
    <g id="ytick_21">
     <g id="line2d_43">
      <defs>
       <path d="
M0 0
L2 0" id="maf1b3d3428"/>
      </defs>
      <g>
       <use style="stroke:#000000;stroke-linecap:butt;stroke-width:0.5;" x="29.3484375" xlink:href="#maf1b3d3428" y="255.351339628"/>
      </g>
     </g>
    </g>
    <g id="ytick_22">
     <g id="line2d_44">
      <defs>
       <path d="
M0 0
L2 0" id="maf1b3d3428"/>
      </defs>
      <g>
       <use style="stroke:#000000;stroke-linecap:butt;stroke-width:0.5;" x="29.3484375" xlink:href="#maf1b3d3428" y="244.426698316"/>
      </g>
     </g>
    </g>
    <g id="ytick_23">
     <g id="line2d_45">
      <defs>
       <path d="
M0 0
L2 0" id="maf1b3d3428"/>
      </defs>
      <g>
       <use style="stroke:#000000;stroke-linecap:butt;stroke-width:0.5;" x="29.3484375" xlink:href="#maf1b3d3428" y="233.502057004"/>
      </g>
     </g>
    </g>
    <g id="ytick_24">
     <g id="line2d_46">
      <defs>
       <path d="
M0 0
L2 0" id="maf1b3d3428"/>
      </defs>
      <g>
       <use style="stroke:#000000;stroke-linecap:butt;stroke-width:0.5;" x="29.3484375" xlink:href="#maf1b3d3428" y="222.577415692"/>
      </g>
     </g>
    </g>
    <g id="ytick_25">
     <g id="line2d_47">
      <defs>
       <path d="
M0 0
L2 0" id="maf1b3d3428"/>
      </defs>
      <g>
       <use style="stroke:#000000;stroke-linecap:butt;stroke-width:0.5;" x="29.3484375" xlink:href="#maf1b3d3428" y="211.652774381"/>
      </g>
     </g>
    </g>
    <g id="ytick_26">
     <g id="line2d_48">
      <defs>
       <path d="
M0 0
L2 0" id="maf1b3d3428"/>
      </defs>
      <g>
       <use style="stroke:#000000;stroke-linecap:butt;stroke-width:0.5;" x="29.3484375" xlink:href="#maf1b3d3428" y="200.728133069"/>
      </g>
     </g>
    </g>
    <g id="ytick_27">
     <g id="line2d_49">
      <defs>
       <path d="
M0 0
L2 0" id="maf1b3d3428"/>
      </defs>
      <g>
       <use style="stroke:#000000;stroke-linecap:butt;stroke-width:0.5;" x="29.3484375" xlink:href="#maf1b3d3428" y="189.803491757"/>
      </g>
     </g>
    </g>
    <g id="ytick_28">
     <g id="line2d_50">
      <defs>
       <path d="
M0 0
L2 0" id="maf1b3d3428"/>
      </defs>
      <g>
       <use style="stroke:#000000;stroke-linecap:butt;stroke-width:0.5;" x="29.3484375" xlink:href="#maf1b3d3428" y="178.878850445"/>
      </g>
     </g>
    </g>
    <g id="ytick_29">
     <g id="line2d_51">
      <defs>
       <path d="
M0 0
L2 0" id="maf1b3d3428"/>
      </defs>
      <g>
       <use style="stroke:#000000;stroke-linecap:butt;stroke-width:0.5;" x="29.3484375" xlink:href="#maf1b3d3428" y="167.954209134"/>
      </g>
     </g>
    </g>
    <g id="ytick_30">
     <g id="line2d_52">
      <defs>
       <path d="
M0 0
L2 0" id="maf1b3d3428"/>
      </defs>
      <g>
       <use style="stroke:#000000;stroke-linecap:butt;stroke-width:0.5;" x="29.3484375" xlink:href="#maf1b3d3428" y="157.029567822"/>
      </g>
     </g>
    </g>
    <g id="ytick_31">
     <g id="line2d_53">
      <defs>
       <path d="
M0 0
L2 0" id="maf1b3d3428"/>
      </defs>
      <g>
       <use style="stroke:#000000;stroke-linecap:butt;stroke-width:0.5;" x="29.3484375" xlink:href="#maf1b3d3428" y="146.10492651"/>
      </g>
     </g>
    </g>
    <g id="ytick_32">
     <g id="line2d_54">
      <defs>
       <path d="
M0 0
L2 0" id="maf1b3d3428"/>
      </defs>
      <g>
       <use style="stroke:#000000;stroke-linecap:butt;stroke-width:0.5;" x="29.3484375" xlink:href="#maf1b3d3428" y="135.180285198"/>
      </g>
     </g>
    </g>
    <g id="ytick_33">
     <g id="line2d_55">
      <defs>
       <path d="
M0 0
L2 0" id="maf1b3d3428"/>
      </defs>
      <g>
       <use style="stroke:#000000;stroke-linecap:butt;stroke-width:0.5;" x="29.3484375" xlink:href="#maf1b3d3428" y="124.255643887"/>
      </g>
     </g>
    </g>
    <g id="ytick_34">
     <g id="line2d_56">
      <defs>
       <path d="
M0 0
L2 0" id="maf1b3d3428"/>
      </defs>
      <g>
       <use style="stroke:#000000;stroke-linecap:butt;stroke-width:0.5;" x="29.3484375" xlink:href="#maf1b3d3428" y="113.331002575"/>
      </g>
     </g>
    </g>
    <g id="ytick_35">
     <g id="line2d_57">
      <defs>
       <path d="
M0 0
L2 0" id="maf1b3d3428"/>
      </defs>
      <g>
       <use style="stroke:#000000;stroke-linecap:butt;stroke-width:0.5;" x="29.3484375" xlink:href="#maf1b3d3428" y="102.406361263"/>
      </g>
     </g>
    </g>
    <g id="ytick_36">
     <g id="line2d_58">
      <defs>
       <path d="
M0 0
L2 0" id="maf1b3d3428"/>
      </defs>
      <g>
       <use style="stroke:#000000;stroke-linecap:butt;stroke-width:0.5;" x="29.3484375" xlink:href="#maf1b3d3428" y="91.4817199514"/>
      </g>
     </g>
    </g>
    <g id="ytick_37">
     <g id="line2d_59">
      <defs>
       <path d="
M0 0
L2 0" id="maf1b3d3428"/>
      </defs>
      <g>
       <use style="stroke:#000000;stroke-linecap:butt;stroke-width:0.5;" x="29.3484375" xlink:href="#maf1b3d3428" y="80.5570786397"/>
      </g>
     </g>
    </g>
    <g id="ytick_38">
     <g id="line2d_60">
      <defs>
       <path d="
M0 0
L2 0" id="maf1b3d3428"/>
      </defs>
      <g>
       <use style="stroke:#000000;stroke-linecap:butt;stroke-width:0.5;" x="29.3484375" xlink:href="#maf1b3d3428" y="69.6324373279"/>
      </g>
     </g>
    </g>
    <g id="ytick_39">
     <g id="line2d_61">
      <defs>
       <path d="
M0 0
L2 0" id="maf1b3d3428"/>
      </defs>
      <g>
       <use style="stroke:#000000;stroke-linecap:butt;stroke-width:0.5;" x="29.3484375" xlink:href="#maf1b3d3428" y="58.7077960162"/>
      </g>
     </g>
    </g>
    <g id="ytick_40">
     <g id="line2d_62">
      <defs>
       <path d="
M0 0
L2 0" id="maf1b3d3428"/>
      </defs>
      <g>
       <use style="stroke:#000000;stroke-linecap:butt;stroke-width:0.5;" x="29.3484375" xlink:href="#maf1b3d3428" y="47.7831547045"/>
      </g>
     </g>
    </g>
    <g id="ytick_41">
     <g id="line2d_63">
      <defs>
       <path d="
M0 0
L2 0" id="maf1b3d3428"/>
      </defs>
      <g>
       <use style="stroke:#000000;stroke-linecap:butt;stroke-width:0.5;" x="29.3484375" xlink:href="#maf1b3d3428" y="36.8585133927"/>
      </g>
     </g>
    </g>
    <g id="ytick_42">
     <g id="line2d_64">
      <defs>
       <path d="
M0 0
L2 0" id="maf1b3d3428"/>
      </defs>
      <g>
       <use style="stroke:#000000;stroke-linecap:butt;stroke-width:0.5;" x="29.3484375" xlink:href="#maf1b3d3428" y="25.933872081"/>
      </g>
     </g>
    </g>
   </g>
   <g id="patch_3">
    <path d="
M19.0309 15.0092
L555.544 15.0092" style="fill:none;stroke:#000000;stroke-width:0.8;"/>
   </g>
   <g id="patch_4">
    <path d="
M29.3484 413.28
L29.3484 7.2" style="fill:none;stroke:#000000;stroke-width:0.8;"/>
   </g>
  </g>
 </g>
 <defs>
  <clipPath id="p13c0847ff8">
   <rect height="406.08" width="536.513117448" x="19.0308878672" y="7.2"/>
  </clipPath>
 </defs>
</svg>
