<?xml version="1.0" encoding="utf-8" standalone="no"?>
<!DOCTYPE svg PUBLIC "-//W3C//DTD SVG 1.1//EN"
  "http://www.w3.org/Graphics/SVG/1.1/DTD/svg11.dtd">
<!-- Created with matplotlib (http://matplotlib.sourceforge.net/) -->
<svg height="420pt" version="1.1" viewBox="0 0 562 420" width="562pt" xmlns="http://www.w3.org/2000/svg" xmlns:xlink="http://www.w3.org/1999/xlink">
 <defs>
  <style type="text/css">
*{stroke-linecap:square;stroke-linejoin:round;}
  </style>
 </defs>
 <g id="figure_1">
  <g id="patch_1">
   <path d="
M0 420.48
L562.744 420.48
L562.744 0
L0 0
z
" style="fill:#ffffff;"/>
  </g>
  <g id="axes_1">
   <g id="patch_2">
    <path d="
M19.0309 413.28
L555.544 413.28
L555.544 7.2
L19.0309 7.2
z
" style="fill:#ffffff;"/>
   </g>
   <g id="line2d_1">
    <path clip-path="url(#p13c0847ff8)" d="
M29.3484 15.0092
L29.3965 15.0092
L29.3965 405.471
L29.4537 396.117
L29.5147 396.117
L29.5768 388.977
L29.6415 388.977
L29.7082 380.925
L29.7741 380.925
L29.8417 378.643
L29.911 378.643
L29.9804 374.674
L30.0506 374.674
L30.1209 373.572
L30.1923 373.572
L30.2646 370.996
L30.3362 370.996
L30.4089 369.267
L30.4818 369.267
L30.555 367.016
L30.6286 367.016
L30.7035 364.905
L30.7767 364.905
L30.852 363.375
L30.9277 363.375
L31.0018 361.874
L31.077 361.874
L31.1528 361.141
L31.2291 361.141
L31.3063 360.821
L31.4605 360.798
L31.5366 360.577
L31.6911 360.472
L31.7694 360.138
L31.8457 360.138
L31.9236 359.26
L32.0021 359.26
L32.0794 358.111
L32.1589 358.111
L32.238 356.985
L32.317 356.985
L32.3944 356.054
L32.4739 356.054
L32.5522 355.355
L32.6328 355.355
L32.714 354.574
L32.7931 354.574
L32.8734 354.17
L32.9523 354.17
L33.0317 353.394
L33.1123 353.394
L33.194 352.598
L33.2745 352.598
L33.3546 351.913
L33.4347 351.913
L33.5151 351.453
L33.5956 351.453
L33.6766 351.087
L33.7591 351.087
L33.8384 350.749
L33.92 350.749
L34.0021 350.245
L34.0836 350.245
L34.1652 349.775
L34.2478 349.775
L34.3296 349.387
L34.4128 349.387
L34.4956 348.875
L34.5762 348.875
L34.6582 348.303
L34.7408 348.303
L34.8254 347.791
L34.9083 347.791
L34.9903 347.366
L35.0714 347.366
L35.1546 347.12
L35.2369 347.12
L35.3205 346.841
L35.4832 346.746
L35.568 346.557
L36.1537 346.644
L36.2385 346.798
L36.9095 346.773
L36.9945 346.564
L37.1613 346.479
L37.2476 346.271
L37.3337 346.271
L37.4182 346.064
L37.59 345.966
L37.675 345.78
L37.8443 345.677
L37.9297 345.486
L38.0999 345.398
L38.1847 345.199
L38.3577 345.099
L38.4438 344.8
L38.5285 344.8
L38.6136 344.446
L38.6986 344.446
L38.7835 344.15
L38.8702 344.15
L38.9548 343.875
L39.0397 343.875
L39.1254 343.542
L39.212 343.542
L39.2965 343.234
L39.3825 343.234
L39.4688 342.936
L39.5582 342.936
L39.6435 342.666
L39.8134 342.568
L39.8997 342.35
L40.074 342.241
L40.1606 342.077
L40.4189 341.995
L40.505 341.844
L40.6796 341.746
L40.7667 341.524
L40.9421 341.414
L41.0281 341.196
L41.2025 341.09
L41.2896 340.887
L41.4661 340.807
L41.5525 340.651
L41.727 340.579
L41.8151 340.45
L41.991 340.379
L42.0774 340.279
L42.2538 340.209
L42.3416 340.029
L42.517 339.952
L42.6043 339.863
L42.8664 339.779
L42.9542 339.71
L43.13 339.655
L43.218 339.519
L43.3918 339.458
L43.4827 339.331
L43.6582 339.253
L43.7483 339.104
L43.9198 339.016
L44.0077 338.826
L44.1862 338.743
L44.2753 338.568
L44.4527 338.483
L44.5417 338.278
L44.7199 338.182
L44.8079 338.018
L44.9857 337.93
L45.0751 337.743
L45.2524 337.663
L45.3413 337.501
L45.5177 337.429
L45.608 337.286
L45.7847 337.224
L45.8705 337.109
L46.0469 337.043
L46.1373 336.91
L46.3151 336.84
L46.4057 336.711
L46.6755 336.604
L46.7643 336.48
L47.0303 336.398
L47.1176 336.346
L47.9341 336.238
L48.0212 336.191
L48.559 336.095
L48.6474 336.067
L49.3701 335.959
L49.4586 335.905
L49.8213 335.802
L49.9123 335.731
L50.1824 335.644
L50.2718 335.582
L50.635 335.478
L50.7269 335.419
L51.3598 335.321
L51.4522 335.28
L51.8181 335.198
L51.9091 335.125
L52.2695 335.04
L52.3596 334.974
L52.6326 334.903
L52.7246 334.803
L52.9978 334.732
L53.0901 334.657
L53.4555 334.554
L53.5445 334.508
L53.9109 334.411
L54.0029 334.358
L54.4598 334.264
L54.5518 334.178
L54.9146 334.075
L55.0049 334.006
L55.3716 333.898
L55.4646 333.846
L56.5656 333.735
L56.6588 333.687
L56.9334 333.616
L57.027 333.532
L57.3037 333.436
L57.396 333.33
L57.673 333.252
L57.7638 333.182
L58.0444 333.103
L58.1372 333.034
L58.4149 332.958
L58.5083 332.883
L58.7853 332.794
L58.8766 332.709
L59.1575 332.629
L59.2514 332.555
L59.6226 332.447
L59.7133 332.366
L59.987 332.279
L60.0806 332.199
L60.4499 332.098
L60.5468 332.027
L60.9174 331.927
L61.0115 331.867
L61.4774 331.762
L61.5705 331.724
L63.7147 331.618
L63.8079 331.596
L64.5539 331.491
L64.648 331.445
L65.0182 331.358
L65.1127 331.312
L65.6704 331.205
L65.7625 331.171
L66.3276 331.067
L66.4232 331.046
L66.9846 330.952
L67.0805 330.914
L67.551 330.819
L67.6452 330.776
L68.2128 330.675
L68.3052 330.644
L68.9636 330.541
L69.0566 330.495
L69.6264 330.388
L69.7204 330.36
L70.3781 330.25
L70.474 330.217
L71.0422 330.113
L71.1392 330.08
L72.0835 329.976
L72.1777 329.965
L73.1277 329.86
L73.2228 329.835
L74.1668 329.727
L74.2609 329.692
L74.8288 329.595
L74.9248 329.56
L75.496 329.466
L75.5931 329.415
L75.9758 329.328
L76.072 329.276
L76.4548 329.183
L76.5479 329.121
L76.9277 329.034
L77.0218 328.977
L77.4024 328.889
L77.4989 328.838
L77.977 328.743
L78.0733 328.686
L78.5518 328.591
L78.6468 328.538
L79.122 328.45
L79.2174 328.398
L79.5999 328.309
L79.6961 328.246
L80.0779 328.16
L80.177 328.092
L80.5626 327.986
L80.6575 327.926
L81.0452 327.84
L81.1396 327.79
L81.7124 327.682
L81.8095 327.632
L82.3864 327.527
L82.4826 327.492
L83.059 327.392
L83.1534 327.358
L84.0154 327.252
L84.1127 327.215
L84.8785 327.112
L84.9762 327.081
L85.746 326.972
L85.8401 326.93
L86.3259 326.833
L86.4203 326.78
L86.8077 326.699
L86.9022 326.642
L87.2881 326.552
L87.3838 326.488
L87.7716 326.395
L87.8695 326.331
L88.2568 326.233
L88.3545 326.167
L88.7396 326.07
L88.8358 326.012
L89.3119 325.902
L89.4125 325.856
L89.9924 325.751
L90.0908 325.704
L90.5733 325.603
L90.6697 325.558
L91.1533 325.457
L91.2486 325.406
L91.7363 325.305
L91.8338 325.253
L92.3197 325.144
L92.4151 325.088
L92.8026 325.003
L92.8967 324.943
L93.2845 324.855
L93.3795 324.798
L93.8698 324.697
L93.9629 324.645
L94.4501 324.551
L94.5481 324.508
L95.1286 324.415
L95.2253 324.374
L95.8079 324.275
L95.9069 324.236
L96.5934 324.134
L96.6895 324.102
L97.377 324.002
L97.4729 323.967
L98.0577 323.871
L98.156 323.826
L98.6452 323.729
L98.7428 323.679
L99.333 323.581
L99.4303 323.545
L100.109 323.436
L100.208 323.402
L101.675 323.294
L101.771 323.284
L109.429 323.395
L109.527 323.413
L110.607 323.521
L110.707 323.54
L131.537 323.429
L131.637 323.417
L133.233 323.312
L133.334 323.293
L134.638 323.191
L134.738 323.17
L135.741 323.07
L135.84 323.042
L136.842 322.935
L136.939 322.911
L137.839 322.809
L137.94 322.786
L138.951 322.679
L139.049 322.655
L140.245 322.549
L140.35 322.531
L141.751 322.427
L141.854 322.409
L142.954 322.307
L143.05 322.285
L144.169 322.18
L144.27 322.162
L145.483 322.059
L145.582 322.041
L146.987 321.934
L147.09 321.914
L148.191 321.805
L148.291 321.775
L149.204 321.666
L149.305 321.641
L150.211 321.539
L150.311 321.51
L151.117 321.402
L151.219 321.376
L152.333 321.272
L152.437 321.254
L153.541 321.15
L153.644 321.125
L154.65 321.014
L154.749 320.992
L155.964 320.885
L156.065 320.87
L157.377 320.76
L157.482 320.743
L158.599 320.637
L158.699 320.615
L159.82 320.51
L159.92 320.49
L161.038 320.384
L161.137 320.364
L162.354 320.261
L162.455 320.245
L163.67 320.14
L163.771 320.12
L164.792 320.017
L164.892 319.995
L166.005 319.886
L166.104 319.864
L167.12 319.762
L167.22 319.738
L168.34 319.633
L168.442 319.617
L169.864 319.512
L169.966 319.496
L171.598 319.386
L171.697 319.369
L173.328 319.259
L173.428 319.248
L175.979 319.141
L176.079 319.13
L177.71 319.02
L177.814 319.004
L179.452 318.9
L179.554 318.886
L181.398 318.775
L181.499 318.765
L183.946 318.656
L184.048 318.645
L185.779 318.536
L185.878 318.522
L187.617 318.413
L187.72 318.398
L189.465 318.291
L189.573 318.278
L191.111 318.17
L191.215 318.155
L192.657 318.052
L192.759 318.033
L193.99 317.925
L194.094 317.907
L195.428 317.796
L195.533 317.779
L197.07 317.673
L197.174 317.657
L198.821 317.55
L198.924 317.535
L200.464 317.424
L200.566 317.409
L202.208 317.301
L202.315 317.287
L203.757 317.18
L203.855 317.164
L205.411 317.054
L205.516 317.039
L207.077 316.929
L207.177 316.913
L208.522 316.811
L208.629 316.793
L209.966 316.686
L210.07 316.668
L211.309 316.562
L211.414 316.542
L212.754 316.436
L212.858 316.42
L214.932 316.309
L215.033 316.3
L218.234 316.191
L218.338 316.18
L220.726 316.072
L220.827 316.06
L223.418 315.95
L223.522 315.94
L226.321 315.831
L226.424 315.825
L234.504 315.714
L234.606 315.709
L238.045 315.599
L238.149 315.591
L244.514 315.481
L244.62 315.479
L252.35 315.368
L252.455 315.365
L256.017 315.255
L256.117 315.247
L260.194 315.137
L260.295 315.13
L263.849 315.02
L263.95 315.016
L270.036 314.906
L270.14 314.903
L276.976 314.793
L277.083 314.789
L282.984 314.678
L283.09 314.676
L287.394 314.567
L287.499 314.561
L294.253 314.451
L294.356 314.448
L314.884 314.337
L314.99 314.334
L321.665 314.224
L321.769 314.217
L328.673 314.108
L328.778 314.104
L334.725 313.993
L334.835 313.989
L339.951 313.879
L340.053 313.873
L344.194 313.763
L344.302 313.758
L347.624 313.65
L347.732 313.642
L351.029 313.533
L351.138 313.526
L354.45 313.416
L354.558 313.408
L357.758 313.3
L357.863 313.293
L361.594 313.183
L361.699 313.177
L365.46 313.066
L365.565 313.06
L370.16 312.951
L370.266 312.945
L374.111 312.836
L374.221 312.83
L377.639 312.721
L377.747 312.714
L381.71 312.605
L381.821 312.598
L384.937 312.49
L385.046 312.482
L387.832 312.373
L387.938 312.364
L391.376 312.255
L391.482 312.25
L397.819 312.139
L397.925 312.136
L408.248 312.025
L408.359 312.024
L424.525 311.913
L424.633 311.909
L432.194 311.799
L432.303 311.796
L440.198 311.686
L440.304 311.682
L446.259 311.572
L446.366 311.568
L451.551 311.459
L451.658 311.454
L456.96 311.344
L457.07 311.339
L462.172 311.228
L462.28 311.224
L468.263 311.114
L468.368 311.111
L475.315 311
L475.423 310.996
L484.008 310.886
L484.008 310.885
L492.731 310.774
L492.838 310.772
L501.754 310.661
L501.864 310.658
L508.947 310.548
L508.947 310.546
L515.719 310.435
L515.826 310.432
L523.243 310.323
L523.353 310.319
L533.069 310.21
L533.178 310.206
L539.093 310.096
L539.203 310.092
L545.226 309.999
L545.226 309.998" style="fill:none;stroke:#ff0000;stroke-width:0.5;"/>
   </g>
   <g id="matplotlib.axis_1">
    <g id="xtick_1">
     <g id="line2d_2">
      <defs>
       <path d="
M0 0
L0 -4" id="mb786db9a03"/>
      </defs>
      <g>
       <use style="stroke:#000000;stroke-linecap:butt;stroke-width:0.5;" x="29.3484375" xlink:href="#mb786db9a03" y="15.0092307692"/>
      </g>
     </g>
    </g>
    <g id="xtick_2">
     <g id="line2d_3">
      <defs>
       <path d="
M0 0
L0 -4" id="mb786db9a03"/>
      </defs>
      <g>
       <use style="stroke:#000000;stroke-linecap:butt;stroke-width:0.5;" x="132.529900812" xlink:href="#mb786db9a03" y="15.0092307692"/>
      </g>
     </g>
     <g id="text_1">
      <!-- 2e7 -->
      <defs>
       <path d="
M19.1875 8.29688
L53.6094 8.29688
L53.6094 0
L7.32812 0
L7.32812 8.29688
Q12.9375 14.1094 22.625 23.8906
Q32.3281 33.6875 34.8125 36.5312
Q39.5469 41.8438 41.4219 45.5312
Q43.3125 49.2188 43.3125 52.7812
Q43.3125 58.5938 39.2344 62.25
Q35.1562 65.9219 28.6094 65.9219
Q23.9688 65.9219 18.8125 64.3125
Q13.6719 62.7031 7.8125 59.4219
L7.8125 69.3906
Q13.7656 71.7812 18.9375 73
Q24.125 74.2188 28.4219 74.2188
Q39.75 74.2188 46.4844 68.5469
Q53.2188 62.8906 53.2188 53.4219
Q53.2188 48.9219 51.5312 44.8906
Q49.8594 40.875 45.4062 35.4062
Q44.1875 33.9844 37.6406 27.2188
Q31.1094 20.4531 19.1875 8.29688" id="BitstreamVeraSans-Roman-32"/>
       <path d="
M56.2031 29.5938
L56.2031 25.2031
L14.8906 25.2031
Q15.4844 15.9219 20.4844 11.0625
Q25.4844 6.20312 34.4219 6.20312
Q39.5938 6.20312 44.4531 7.46875
Q49.3125 8.73438 54.1094 11.2812
L54.1094 2.78125
Q49.2656 0.734375 44.1875 -0.34375
Q39.1094 -1.42188 33.8906 -1.42188
Q20.7969 -1.42188 13.1562 6.1875
Q5.51562 13.8125 5.51562 26.8125
Q5.51562 40.2344 12.7656 48.1094
Q20.0156 56 32.3281 56
Q43.3594 56 49.7812 48.8906
Q56.2031 41.7969 56.2031 29.5938
M47.2188 32.2344
Q47.125 39.5938 43.0938 43.9844
Q39.0625 48.3906 32.4219 48.3906
Q24.9062 48.3906 20.3906 44.1406
Q15.875 39.8906 15.1875 32.1719
z
" id="BitstreamVeraSans-Roman-65"/>
       <path d="
M8.20312 72.9062
L55.0781 72.9062
L55.0781 68.7031
L28.6094 0
L18.3125 0
L43.2188 64.5938
L8.20312 64.5938
z
" id="BitstreamVeraSans-Roman-37"/>
      </defs>
      <g transform="translate(123.884588312 26.4311057692)scale(0.1 -0.1)">
       <use xlink:href="#BitstreamVeraSans-Roman-32"/>
       <use x="63.623046875" xlink:href="#BitstreamVeraSans-Roman-65"/>
       <use x="125.146484375" xlink:href="#BitstreamVeraSans-Roman-37"/>
      </g>
     </g>
    </g>
    <g id="xtick_3">
     <g id="line2d_4">
      <defs>
       <path d="
M0 0
L0 -4" id="mb786db9a03"/>
      </defs>
      <g>
       <use style="stroke:#000000;stroke-linecap:butt;stroke-width:0.5;" x="235.711364124" xlink:href="#mb786db9a03" y="15.0092307692"/>
      </g>
     </g>
     <g id="text_2">
      <!-- 4e7 -->
      <defs>
       <path d="
M37.7969 64.3125
L12.8906 25.3906
L37.7969 25.3906
z

M35.2031 72.9062
L47.6094 72.9062
L47.6094 25.3906
L58.0156 25.3906
L58.0156 17.1875
L47.6094 17.1875
L47.6094 0
L37.7969 0
L37.7969 17.1875
L4.89062 17.1875
L4.89062 26.7031
z
" id="BitstreamVeraSans-Roman-34"/>
      </defs>
      <g transform="translate(226.944176624 26.2998557692)scale(0.1 -0.1)">
       <use xlink:href="#BitstreamVeraSans-Roman-34"/>
       <use x="63.623046875" xlink:href="#BitstreamVeraSans-Roman-65"/>
       <use x="125.146484375" xlink:href="#BitstreamVeraSans-Roman-37"/>
      </g>
     </g>
    </g>
    <g id="xtick_4">
     <g id="line2d_5">
      <defs>
       <path d="
M0 0
L0 -4" id="mb786db9a03"/>
      </defs>
      <g>
       <use style="stroke:#000000;stroke-linecap:butt;stroke-width:0.5;" x="338.892827436" xlink:href="#mb786db9a03" y="15.0092307692"/>
      </g>
     </g>
     <g id="text_3">
      <!-- 6e7 -->
      <defs>
       <path d="
M33.0156 40.375
Q26.375 40.375 22.4844 35.8281
Q18.6094 31.2969 18.6094 23.3906
Q18.6094 15.5312 22.4844 10.9531
Q26.375 6.39062 33.0156 6.39062
Q39.6562 6.39062 43.5312 10.9531
Q47.4062 15.5312 47.4062 23.3906
Q47.4062 31.2969 43.5312 35.8281
Q39.6562 40.375 33.0156 40.375
M52.5938 71.2969
L52.5938 62.3125
Q48.875 64.0625 45.0938 64.9844
Q41.3125 65.9219 37.5938 65.9219
Q27.8281 65.9219 22.6719 59.3281
Q17.5312 52.7344 16.7969 39.4062
Q19.6719 43.6562 24.0156 45.9219
Q28.375 48.1875 33.5938 48.1875
Q44.5781 48.1875 50.9531 41.5156
Q57.3281 34.8594 57.3281 23.3906
Q57.3281 12.1562 50.6875 5.35938
Q44.0469 -1.42188 33.0156 -1.42188
Q20.3594 -1.42188 13.6719 8.26562
Q6.98438 17.9688 6.98438 36.375
Q6.98438 53.6562 15.1875 63.9375
Q23.3906 74.2188 37.2031 74.2188
Q40.9219 74.2188 44.7031 73.4844
Q48.4844 72.75 52.5938 71.2969" id="BitstreamVeraSans-Roman-36"/>
      </defs>
      <g transform="translate(330.230327436 26.4311057692)scale(0.1 -0.1)">
       <use xlink:href="#BitstreamVeraSans-Roman-36"/>
       <use x="63.623046875" xlink:href="#BitstreamVeraSans-Roman-65"/>
       <use x="125.146484375" xlink:href="#BitstreamVeraSans-Roman-37"/>
      </g>
     </g>
    </g>
    <g id="xtick_5">
     <g id="line2d_6">
      <defs>
       <path d="
M0 0
L0 -4" id="mb786db9a03"/>
      </defs>
      <g>
       <use style="stroke:#000000;stroke-linecap:butt;stroke-width:0.5;" x="442.074290747" xlink:href="#mb786db9a03" y="15.0092307692"/>
      </g>
     </g>
     <g id="text_4">
      <!-- 8e7 -->
      <defs>
       <path d="
M31.7812 34.625
Q24.75 34.625 20.7188 30.8594
Q16.7031 27.0938 16.7031 20.5156
Q16.7031 13.9219 20.7188 10.1562
Q24.75 6.39062 31.7812 6.39062
Q38.8125 6.39062 42.8594 10.1719
Q46.9219 13.9688 46.9219 20.5156
Q46.9219 27.0938 42.8906 30.8594
Q38.875 34.625 31.7812 34.625
M21.9219 38.8125
Q15.5781 40.375 12.0312 44.7188
Q8.5 49.0781 8.5 55.3281
Q8.5 64.0625 14.7188 69.1406
Q20.9531 74.2188 31.7812 74.2188
Q42.6719 74.2188 48.875 69.1406
Q55.0781 64.0625 55.0781 55.3281
Q55.0781 49.0781 51.5312 44.7188
Q48 40.375 41.7031 38.8125
Q48.8281 37.1562 52.7969 32.3125
Q56.7812 27.4844 56.7812 20.5156
Q56.7812 9.90625 50.3125 4.23438
Q43.8438 -1.42188 31.7812 -1.42188
Q19.7344 -1.42188 13.25 4.23438
Q6.78125 9.90625 6.78125 20.5156
Q6.78125 27.4844 10.7812 32.3125
Q14.7969 37.1562 21.9219 38.8125
M18.3125 54.3906
Q18.3125 48.7344 21.8438 45.5625
Q25.3906 42.3906 31.7812 42.3906
Q38.1406 42.3906 41.7188 45.5625
Q45.3125 48.7344 45.3125 54.3906
Q45.3125 60.0625 41.7188 63.2344
Q38.1406 66.4062 31.7812 66.4062
Q25.3906 66.4062 21.8438 63.2344
Q18.3125 60.0625 18.3125 54.3906" id="BitstreamVeraSans-Roman-38"/>
      </defs>
      <g transform="translate(433.401634497 26.4311057692)scale(0.1 -0.1)">
       <use xlink:href="#BitstreamVeraSans-Roman-38"/>
       <use x="63.623046875" xlink:href="#BitstreamVeraSans-Roman-65"/>
       <use x="125.146484375" xlink:href="#BitstreamVeraSans-Roman-37"/>
      </g>
     </g>
    </g>
    <g id="xtick_6">
     <g id="line2d_7">
      <defs>
       <path d="
M0 0
L0 -4" id="mb786db9a03"/>
      </defs>
      <g>
       <use style="stroke:#000000;stroke-linecap:butt;stroke-width:0.5;" x="545.255754059" xlink:href="#mb786db9a03" y="15.0092307692"/>
      </g>
     </g>
     <g id="text_5">
      <!-- 1e8 -->
      <defs>
       <path d="
M12.4062 8.29688
L28.5156 8.29688
L28.5156 63.9219
L10.9844 60.4062
L10.9844 69.3906
L28.4219 72.9062
L38.2812 72.9062
L38.2812 8.29688
L54.3906 8.29688
L54.3906 0
L12.4062 0
z
" id="BitstreamVeraSans-Roman-31"/>
      </defs>
      <g transform="translate(536.708097809 26.4311057692)scale(0.1 -0.1)">
       <use xlink:href="#BitstreamVeraSans-Roman-31"/>
       <use x="63.623046875" xlink:href="#BitstreamVeraSans-Roman-65"/>
       <use x="125.146484375" xlink:href="#BitstreamVeraSans-Roman-38"/>
      </g>
     </g>
    </g>
    <g id="xtick_7">
     <g id="line2d_8">
      <defs>
       <path d="
M0 0
L0 -2" id="m8c0385d0a1"/>
      </defs>
      <g>
       <use style="stroke:#000000;stroke-linecap:butt;stroke-width:0.5;" x="55.143803328" xlink:href="#m8c0385d0a1" y="15.0092307692"/>
      </g>
     </g>
    </g>
    <g id="xtick_8">
     <g id="line2d_9">
      <defs>
       <path d="
M0 0
L0 -2" id="m8c0385d0a1"/>
      </defs>
      <g>
       <use style="stroke:#000000;stroke-linecap:butt;stroke-width:0.5;" x="80.9391691559" xlink:href="#m8c0385d0a1" y="15.0092307692"/>
      </g>
     </g>
    </g>
    <g id="xtick_9">
     <g id="line2d_10">
      <defs>
       <path d="
M0 0
L0 -2" id="m8c0385d0a1"/>
      </defs>
      <g>
       <use style="stroke:#000000;stroke-linecap:butt;stroke-width:0.5;" x="106.734534984" xlink:href="#m8c0385d0a1" y="15.0092307692"/>
      </g>
     </g>
    </g>
    <g id="xtick_10">
     <g id="line2d_11">
      <defs>
       <path d="
M0 0
L0 -2" id="m8c0385d0a1"/>
      </defs>
      <g>
       <use style="stroke:#000000;stroke-linecap:butt;stroke-width:0.5;" x="158.32526664" xlink:href="#m8c0385d0a1" y="15.0092307692"/>
      </g>
     </g>
    </g>
    <g id="xtick_11">
     <g id="line2d_12">
      <defs>
       <path d="
M0 0
L0 -2" id="m8c0385d0a1"/>
      </defs>
      <g>
       <use style="stroke:#000000;stroke-linecap:butt;stroke-width:0.5;" x="184.120632468" xlink:href="#m8c0385d0a1" y="15.0092307692"/>
      </g>
     </g>
    </g>
    <g id="xtick_12">
     <g id="line2d_13">
      <defs>
       <path d="
M0 0
L0 -2" id="m8c0385d0a1"/>
      </defs>
      <g>
       <use style="stroke:#000000;stroke-linecap:butt;stroke-width:0.5;" x="209.915998296" xlink:href="#m8c0385d0a1" y="15.0092307692"/>
      </g>
     </g>
    </g>
    <g id="xtick_13">
     <g id="line2d_14">
      <defs>
       <path d="
M0 0
L0 -2" id="m8c0385d0a1"/>
      </defs>
      <g>
       <use style="stroke:#000000;stroke-linecap:butt;stroke-width:0.5;" x="261.506729952" xlink:href="#m8c0385d0a1" y="15.0092307692"/>
      </g>
     </g>
    </g>
    <g id="xtick_14">
     <g id="line2d_15">
      <defs>
       <path d="
M0 0
L0 -2" id="m8c0385d0a1"/>
      </defs>
      <g>
       <use style="stroke:#000000;stroke-linecap:butt;stroke-width:0.5;" x="287.30209578" xlink:href="#m8c0385d0a1" y="15.0092307692"/>
      </g>
     </g>
    </g>
    <g id="xtick_15">
     <g id="line2d_16">
      <defs>
       <path d="
M0 0
L0 -2" id="m8c0385d0a1"/>
      </defs>
      <g>
       <use style="stroke:#000000;stroke-linecap:butt;stroke-width:0.5;" x="313.097461608" xlink:href="#m8c0385d0a1" y="15.0092307692"/>
      </g>
     </g>
    </g>
    <g id="xtick_16">
     <g id="line2d_17">
      <defs>
       <path d="
M0 0
L0 -2" id="m8c0385d0a1"/>
      </defs>
      <g>
       <use style="stroke:#000000;stroke-linecap:butt;stroke-width:0.5;" x="364.688193263" xlink:href="#m8c0385d0a1" y="15.0092307692"/>
      </g>
     </g>
    </g>
    <g id="xtick_17">
     <g id="line2d_18">
      <defs>
       <path d="
M0 0
L0 -2" id="m8c0385d0a1"/>
      </defs>
      <g>
       <use style="stroke:#000000;stroke-linecap:butt;stroke-width:0.5;" x="390.483559091" xlink:href="#m8c0385d0a1" y="15.0092307692"/>
      </g>
     </g>
    </g>
    <g id="xtick_18">
     <g id="line2d_19">
      <defs>
       <path d="
M0 0
L0 -2" id="m8c0385d0a1"/>
      </defs>
      <g>
       <use style="stroke:#000000;stroke-linecap:butt;stroke-width:0.5;" x="416.278924919" xlink:href="#m8c0385d0a1" y="15.0092307692"/>
      </g>
     </g>
    </g>
    <g id="xtick_19">
     <g id="line2d_20">
      <defs>
       <path d="
M0 0
L0 -2" id="m8c0385d0a1"/>
      </defs>
      <g>
       <use style="stroke:#000000;stroke-linecap:butt;stroke-width:0.5;" x="467.869656575" xlink:href="#m8c0385d0a1" y="15.0092307692"/>
      </g>
     </g>
    </g>
    <g id="xtick_20">
     <g id="line2d_21">
      <defs>
       <path d="
M0 0
L0 -2" id="m8c0385d0a1"/>
      </defs>
      <g>
       <use style="stroke:#000000;stroke-linecap:butt;stroke-width:0.5;" x="493.665022403" xlink:href="#m8c0385d0a1" y="15.0092307692"/>
      </g>
     </g>
    </g>
    <g id="xtick_21">
     <g id="line2d_22">
      <defs>
       <path d="
M0 0
L0 -2" id="m8c0385d0a1"/>
      </defs>
      <g>
       <use style="stroke:#000000;stroke-linecap:butt;stroke-width:0.5;" x="519.460388231" xlink:href="#m8c0385d0a1" y="15.0092307692"/>
      </g>
     </g>
    </g>
   </g>
   <g id="matplotlib.axis_2">
    <g id="ytick_1">
     <g id="line2d_23">
      <defs>
       <path d="
M0 0
L4 0" id="m25e31b5a08"/>
      </defs>
      <g>
       <use style="stroke:#000000;stroke-linecap:butt;stroke-width:0.5;" x="29.3484375" xlink:href="#m25e31b5a08" y="372.371088886"/>
      </g>
     </g>
     <g id="text_6">
      <!-- -2.5 -->
      <defs>
       <path d="
M10.6875 12.4062
L21 12.4062
L21 0
L10.6875 0
z
" id="BitstreamVeraSans-Roman-2e"/>
       <path d="
M4.89062 31.3906
L31.2031 31.3906
L31.2031 23.3906
L4.89062 23.3906
z
" id="BitstreamVeraSans-Roman-2d"/>
       <path d="
M10.7969 72.9062
L49.5156 72.9062
L49.5156 64.5938
L19.8281 64.5938
L19.8281 46.7344
Q21.9688 47.4688 24.1094 47.8281
Q26.2656 48.1875 28.4219 48.1875
Q40.625 48.1875 47.75 41.5
Q54.8906 34.8125 54.8906 23.3906
Q54.8906 11.625 47.5625 5.09375
Q40.2344 -1.42188 26.9062 -1.42188
Q22.3125 -1.42188 17.5469 -0.640625
Q12.7969 0.140625 7.71875 1.70312
L7.71875 11.625
Q12.1094 9.23438 16.7969 8.0625
Q21.4844 6.89062 26.7031 6.89062
Q35.1562 6.89062 40.0781 11.3281
Q45.0156 15.7656 45.0156 23.3906
Q45.0156 31 40.0781 35.4375
Q35.1562 39.8906 26.7031 39.8906
Q22.75 39.8906 18.8125 39.0156
Q14.8906 38.1406 10.7969 36.2812
z
" id="BitstreamVeraSans-Roman-35"/>
      </defs>
      <g transform="translate(7.2 376.010932636)scale(0.1 -0.1)">
       <use xlink:href="#BitstreamVeraSans-Roman-2d"/>
       <use x="36.083984375" xlink:href="#BitstreamVeraSans-Roman-32"/>
       <use x="99.70703125" xlink:href="#BitstreamVeraSans-Roman-2e"/>
       <use x="131.494140625" xlink:href="#BitstreamVeraSans-Roman-35"/>
      </g>
     </g>
    </g>
    <g id="ytick_2">
     <g id="line2d_24">
      <defs>
       <path d="
M0 0
L4 0" id="m25e31b5a08"/>
      </defs>
      <g>
       <use style="stroke:#000000;stroke-linecap:butt;stroke-width:0.5;" x="29.3484375" xlink:href="#m25e31b5a08" y="300.898717263"/>
      </g>
     </g>
     <g id="text_7">
      <!-- -2 -->
      <g transform="translate(16.86875 304.609654763)scale(0.1 -0.1)">
       <use xlink:href="#BitstreamVeraSans-Roman-2d"/>
       <use x="36.083984375" xlink:href="#BitstreamVeraSans-Roman-32"/>
      </g>
     </g>
    </g>
    <g id="ytick_3">
     <g id="line2d_25">
      <defs>
       <path d="
M0 0
L4 0" id="m25e31b5a08"/>
      </defs>
      <g>
       <use style="stroke:#000000;stroke-linecap:butt;stroke-width:0.5;" x="29.3484375" xlink:href="#m25e31b5a08" y="229.426345639"/>
      </g>
     </g>
     <g id="text_8">
      <!-- -1.5 -->
      <g transform="translate(7.2 233.000564389)scale(0.1 -0.1)">
       <use xlink:href="#BitstreamVeraSans-Roman-2d"/>
       <use x="36.083984375" xlink:href="#BitstreamVeraSans-Roman-31"/>
       <use x="99.70703125" xlink:href="#BitstreamVeraSans-Roman-2e"/>
       <use x="131.494140625" xlink:href="#BitstreamVeraSans-Roman-35"/>
      </g>
     </g>
    </g>
    <g id="ytick_4">
     <g id="line2d_26">
      <defs>
       <path d="
M0 0
L4 0" id="m25e31b5a08"/>
      </defs>
      <g>
       <use style="stroke:#000000;stroke-linecap:butt;stroke-width:0.5;" x="29.3484375" xlink:href="#m25e31b5a08" y="157.953974016"/>
      </g>
     </g>
     <g id="text_9">
      <!-- -1 -->
      <g transform="translate(16.790625 161.599286516)scale(0.1 -0.1)">
       <use xlink:href="#BitstreamVeraSans-Roman-2d"/>
       <use x="36.083984375" xlink:href="#BitstreamVeraSans-Roman-31"/>
      </g>
     </g>
    </g>
    <g id="ytick_5">
     <g id="line2d_27">
      <defs>
       <path d="
M0 0
L4 0" id="m25e31b5a08"/>
      </defs>
      <g>
       <use style="stroke:#000000;stroke-linecap:butt;stroke-width:0.5;" x="29.3484375" xlink:href="#m25e31b5a08" y="86.4816023926"/>
      </g>
     </g>
     <g id="text_10">
      <!-- -0.5 -->
      <defs>
       <path d="
M31.7812 66.4062
Q24.1719 66.4062 20.3281 58.9062
Q16.5 51.4219 16.5 36.375
Q16.5 21.3906 20.3281 13.8906
Q24.1719 6.39062 31.7812 6.39062
Q39.4531 6.39062 43.2812 13.8906
Q47.125 21.3906 47.125 36.375
Q47.125 51.4219 43.2812 58.9062
Q39.4531 66.4062 31.7812 66.4062
M31.7812 74.2188
Q44.0469 74.2188 50.5156 64.5156
Q56.9844 54.8281 56.9844 36.375
Q56.9844 17.9688 50.5156 8.26562
Q44.0469 -1.42188 31.7812 -1.42188
Q19.5312 -1.42188 13.0625 8.26562
Q6.59375 17.9688 6.59375 36.375
Q6.59375 54.8281 13.0625 64.5156
Q19.5312 74.2188 31.7812 74.2188" id="BitstreamVeraSans-Roman-30"/>
      </defs>
      <g transform="translate(7.2 90.1214461426)scale(0.1 -0.1)">
       <use xlink:href="#BitstreamVeraSans-Roman-2d"/>
       <use x="36.083984375" xlink:href="#BitstreamVeraSans-Roman-30"/>
       <use x="99.70703125" xlink:href="#BitstreamVeraSans-Roman-2e"/>
       <use x="131.494140625" xlink:href="#BitstreamVeraSans-Roman-35"/>
      </g>
     </g>
    </g>
    <g id="ytick_6">
     <g id="line2d_28">
      <defs>
       <path d="
M0 0
L4 0" id="m25e31b5a08"/>
      </defs>
      <g>
       <use style="stroke:#000000;stroke-linecap:butt;stroke-width:0.5;" x="29.3484375" xlink:href="#m25e31b5a08" y="15.0092307692"/>
      </g>
     </g>
    </g>
    <g id="ytick_7">
     <g id="line2d_29">
      <defs>
       <path d="
M0 0
L2 0" id="mac47af6d7a"/>
      </defs>
      <g>
       <use style="stroke:#000000;stroke-linecap:butt;stroke-width:0.5;" x="29.3484375" xlink:href="#mac47af6d7a" y="400.960037535"/>
      </g>
     </g>
    </g>
    <g id="ytick_8">
     <g id="line2d_30">
      <defs>
       <path d="
M0 0
L2 0" id="mac47af6d7a"/>
      </defs>
      <g>
       <use style="stroke:#000000;stroke-linecap:butt;stroke-width:0.5;" x="29.3484375" xlink:href="#mac47af6d7a" y="386.665563211"/>
      </g>
     </g>
    </g>
    <g id="ytick_9">
     <g id="line2d_31">
      <defs>
       <path d="
M0 0
L2 0" id="mac47af6d7a"/>
      </defs>
      <g>
       <use style="stroke:#000000;stroke-linecap:butt;stroke-width:0.5;" x="29.3484375" xlink:href="#mac47af6d7a" y="358.076614561"/>
      </g>
     </g>
    </g>
    <g id="ytick_10">
     <g id="line2d_32">
      <defs>
       <path d="
M0 0
L2 0" id="mac47af6d7a"/>
      </defs>
      <g>
       <use style="stroke:#000000;stroke-linecap:butt;stroke-width:0.5;" x="29.3484375" xlink:href="#mac47af6d7a" y="343.782140237"/>
      </g>
     </g>
    </g>
    <g id="ytick_11">
     <g id="line2d_33">
      <defs>
       <path d="
M0 0
L2 0" id="mac47af6d7a"/>
      </defs>
      <g>
       <use style="stroke:#000000;stroke-linecap:butt;stroke-width:0.5;" x="29.3484375" xlink:href="#mac47af6d7a" y="329.487665912"/>
      </g>
     </g>
    </g>
    <g id="ytick_12">
     <g id="line2d_34">
      <defs>
       <path d="
M0 0
L2 0" id="mac47af6d7a"/>
      </defs>
      <g>
       <use style="stroke:#000000;stroke-linecap:butt;stroke-width:0.5;" x="29.3484375" xlink:href="#mac47af6d7a" y="315.193191587"/>
      </g>
     </g>
    </g>
    <g id="ytick_13">
     <g id="line2d_35">
      <defs>
       <path d="
M0 0
L2 0" id="mac47af6d7a"/>
      </defs>
      <g>
       <use style="stroke:#000000;stroke-linecap:butt;stroke-width:0.5;" x="29.3484375" xlink:href="#mac47af6d7a" y="286.604242938"/>
      </g>
     </g>
    </g>
    <g id="ytick_14">
     <g id="line2d_36">
      <defs>
       <path d="
M0 0
L2 0" id="mac47af6d7a"/>
      </defs>
      <g>
       <use style="stroke:#000000;stroke-linecap:butt;stroke-width:0.5;" x="29.3484375" xlink:href="#mac47af6d7a" y="272.309768613"/>
      </g>
     </g>
    </g>
    <g id="ytick_15">
     <g id="line2d_37">
      <defs>
       <path d="
M0 0
L2 0" id="mac47af6d7a"/>
      </defs>
      <g>
       <use style="stroke:#000000;stroke-linecap:butt;stroke-width:0.5;" x="29.3484375" xlink:href="#mac47af6d7a" y="258.015294289"/>
      </g>
     </g>
    </g>
    <g id="ytick_16">
     <g id="line2d_38">
      <defs>
       <path d="
M0 0
L2 0" id="mac47af6d7a"/>
      </defs>
      <g>
       <use style="stroke:#000000;stroke-linecap:butt;stroke-width:0.5;" x="29.3484375" xlink:href="#mac47af6d7a" y="243.720819964"/>
      </g>
     </g>
    </g>
    <g id="ytick_17">
     <g id="line2d_39">
      <defs>
       <path d="
M0 0
L2 0" id="mac47af6d7a"/>
      </defs>
      <g>
       <use style="stroke:#000000;stroke-linecap:butt;stroke-width:0.5;" x="29.3484375" xlink:href="#mac47af6d7a" y="229.426345639"/>
      </g>
     </g>
    </g>
    <g id="ytick_18">
     <g id="line2d_40">
      <defs>
       <path d="
M0 0
L2 0" id="mac47af6d7a"/>
      </defs>
      <g>
       <use style="stroke:#000000;stroke-linecap:butt;stroke-width:0.5;" x="29.3484375" xlink:href="#mac47af6d7a" y="215.131871315"/>
      </g>
     </g>
    </g>
    <g id="ytick_19">
     <g id="line2d_41">
      <defs>
       <path d="
M0 0
L2 0" id="mac47af6d7a"/>
      </defs>
      <g>
       <use style="stroke:#000000;stroke-linecap:butt;stroke-width:0.5;" x="29.3484375" xlink:href="#mac47af6d7a" y="200.83739699"/>
      </g>
     </g>
    </g>
    <g id="ytick_20">
     <g id="line2d_42">
      <defs>
       <path d="
M0 0
L2 0" id="mac47af6d7a"/>
      </defs>
      <g>
       <use style="stroke:#000000;stroke-linecap:butt;stroke-width:0.5;" x="29.3484375" xlink:href="#mac47af6d7a" y="186.542922665"/>
      </g>
     </g>
    </g>
    <g id="ytick_21">
     <g id="line2d_43">
      <defs>
       <path d="
M0 0
L2 0" id="mac47af6d7a"/>
      </defs>
      <g>
       <use style="stroke:#000000;stroke-linecap:butt;stroke-width:0.5;" x="29.3484375" xlink:href="#mac47af6d7a" y="172.248448341"/>
      </g>
     </g>
    </g>
    <g id="ytick_22">
     <g id="line2d_44">
      <defs>
       <path d="
M0 0
L2 0" id="mac47af6d7a"/>
      </defs>
      <g>
       <use style="stroke:#000000;stroke-linecap:butt;stroke-width:0.5;" x="29.3484375" xlink:href="#mac47af6d7a" y="157.953974016"/>
      </g>
     </g>
    </g>
    <g id="ytick_23">
     <g id="line2d_45">
      <defs>
       <path d="
M0 0
L2 0" id="mac47af6d7a"/>
      </defs>
      <g>
       <use style="stroke:#000000;stroke-linecap:butt;stroke-width:0.5;" x="29.3484375" xlink:href="#mac47af6d7a" y="143.659499691"/>
      </g>
     </g>
    </g>
    <g id="ytick_24">
     <g id="line2d_46">
      <defs>
       <path d="
M0 0
L2 0" id="mac47af6d7a"/>
      </defs>
      <g>
       <use style="stroke:#000000;stroke-linecap:butt;stroke-width:0.5;" x="29.3484375" xlink:href="#mac47af6d7a" y="129.365025367"/>
      </g>
     </g>
    </g>
    <g id="ytick_25">
     <g id="line2d_47">
      <defs>
       <path d="
M0 0
L2 0" id="mac47af6d7a"/>
      </defs>
      <g>
       <use style="stroke:#000000;stroke-linecap:butt;stroke-width:0.5;" x="29.3484375" xlink:href="#mac47af6d7a" y="115.070551042"/>
      </g>
     </g>
    </g>
    <g id="ytick_26">
     <g id="line2d_48">
      <defs>
       <path d="
M0 0
L2 0" id="mac47af6d7a"/>
      </defs>
      <g>
       <use style="stroke:#000000;stroke-linecap:butt;stroke-width:0.5;" x="29.3484375" xlink:href="#mac47af6d7a" y="100.776076717"/>
      </g>
     </g>
    </g>
    <g id="ytick_27">
     <g id="line2d_49">
      <defs>
       <path d="
M0 0
L2 0" id="mac47af6d7a"/>
      </defs>
      <g>
       <use style="stroke:#000000;stroke-linecap:butt;stroke-width:0.5;" x="29.3484375" xlink:href="#mac47af6d7a" y="86.4816023926"/>
      </g>
     </g>
    </g>
    <g id="ytick_28">
     <g id="line2d_50">
      <defs>
       <path d="
M0 0
L2 0" id="mac47af6d7a"/>
      </defs>
      <g>
       <use style="stroke:#000000;stroke-linecap:butt;stroke-width:0.5;" x="29.3484375" xlink:href="#mac47af6d7a" y="72.1871280679"/>
      </g>
     </g>
    </g>
    <g id="ytick_29">
     <g id="line2d_51">
      <defs>
       <path d="
M0 0
L2 0" id="mac47af6d7a"/>
      </defs>
      <g>
       <use style="stroke:#000000;stroke-linecap:butt;stroke-width:0.5;" x="29.3484375" xlink:href="#mac47af6d7a" y="57.8926537433"/>
      </g>
     </g>
    </g>
    <g id="ytick_30">
     <g id="line2d_52">
      <defs>
       <path d="
M0 0
L2 0" id="mac47af6d7a"/>
      </defs>
      <g>
       <use style="stroke:#000000;stroke-linecap:butt;stroke-width:0.5;" x="29.3484375" xlink:href="#mac47af6d7a" y="43.5981794186"/>
      </g>
     </g>
    </g>
    <g id="ytick_31">
     <g id="line2d_53">
      <defs>
       <path d="
M0 0
L2 0" id="mac47af6d7a"/>
      </defs>
      <g>
       <use style="stroke:#000000;stroke-linecap:butt;stroke-width:0.5;" x="29.3484375" xlink:href="#mac47af6d7a" y="29.3037050939"/>
      </g>
     </g>
    </g>
   </g>
   <g id="patch_3">
    <path d="
M19.0309 15.0092
L555.544 15.0092" style="fill:none;stroke:#000000;stroke-width:0.8;"/>
   </g>
   <g id="patch_4">
    <path d="
M29.3484 413.28
L29.3484 7.2" style="fill:none;stroke:#000000;stroke-width:0.8;"/>
   </g>
  </g>
 </g>
 <defs>
  <clipPath id="p13c0847ff8">
   <rect height="406.08" width="536.513117448" x="19.0308878672" y="7.2"/>
  </clipPath>
 </defs>
</svg>
