<?xml version="1.0" encoding="utf-8" standalone="no"?>
<!DOCTYPE svg PUBLIC "-//W3C//DTD SVG 1.1//EN"
  "http://www.w3.org/Graphics/SVG/1.1/DTD/svg11.dtd">
<!-- Created with matplotlib (http://matplotlib.sourceforge.net/) -->
<svg height="420pt" version="1.1" viewBox="0 0 562 420" width="562pt" xmlns="http://www.w3.org/2000/svg" xmlns:xlink="http://www.w3.org/1999/xlink">
 <defs>
  <style type="text/css">
*{stroke-linecap:square;stroke-linejoin:round;}
  </style>
 </defs>
 <g id="figure_1">
  <g id="patch_1">
   <path d="
M0 420.48
L562.7 420.48
L562.7 0
L0 0
z
" style="fill:#ffffff;"/>
  </g>
  <g id="axes_1">
   <g id="patch_2">
    <path d="
M19.3504 413.28
L555.5 413.28
L555.5 7.2
L19.3504 7.2
z
" style="fill:#ffffff;"/>
   </g>
   <g id="line2d_1">
    <path clip-path="url(#p9594e53bbf)" d="
M29.6609 15.0092
L29.7159 15.0092
L29.7159 405.471
L29.7789 401.082
L29.8449 401.082
L29.913 396.993
L29.9823 396.993
L30.053 394.032
L30.1242 394.032
L30.1967 392.167
L30.2695 392.167
L30.3432 391.114
L30.4174 391.114
L30.4923 390.316
L30.5675 390.316
L30.6431 389.332
L30.719 389.332
L30.7955 388.51
L30.8725 388.51
L30.9496 387.813
L31.0268 387.813
L31.1047 387.245
L31.1826 387.245
L31.2609 386.609
L31.3389 386.609
L31.4178 386.097
L31.4976 386.097
L31.5763 385.762
L31.6556 385.762
L31.7355 385.425
L31.8153 385.425
L31.8955 385.111
L31.9752 385.111
L32.056 384.774
L32.1367 384.774
L32.2169 384.471
L32.2979 384.471
L32.3788 384.222
L32.4601 384.222
L32.5418 383.908
L32.6236 383.908
L32.7053 383.604
L32.7871 383.604
L32.8693 383.334
L33.0337 383.243
L33.116 383.075
L33.2804 382.971
L33.3631 382.764
L33.5292 382.665
L33.6122 382.47
L33.7785 382.373
L33.8626 382.189
L34.0297 382.117
L34.1127 381.962
L34.2803 381.877
L34.3648 381.687
L34.5328 381.586
L34.6171 381.4
L34.7861 381.303
L34.871 381.108
L35.0402 381.023
L35.1248 380.873
L35.2943 380.802
L35.3792 380.643
L35.5498 380.55
L35.6347 380.36
L35.8053 380.28
L35.8908 380.113
L36.0615 380.026
L36.1476 379.855
L36.3188 379.782
L36.4053 379.642
L36.5774 379.574
L36.6641 379.426
L36.8354 379.359
L36.9223 379.261
L37.181 379.177
L37.2678 379.111
L37.6153 379.019
L37.7014 378.972
L38.1366 378.864
L38.2239 378.781
L38.5728 378.695
L38.6595 378.632
L39.0971 378.542
L39.1851 378.491
L39.6245 378.383
L39.7125 378.321
L40.0644 378.212
L40.1533 378.135
L40.4181 378.051
L40.5064 377.965
L40.7721 377.883
L40.8605 377.809
L41.1268 377.732
L41.2157 377.656
L41.5705 377.547
L41.6594 377.462
L41.9267 377.375
L42.016 377.301
L42.2828 377.222
L42.3722 377.151
L42.7301 377.042
L42.8198 376.968
L43.1772 376.865
L43.2671 376.79
L43.6249 376.681
L43.7147 376.617
L44.0741 376.525
L44.164 376.471
L44.5241 376.39
L44.6142 376.331
L45.0652 376.222
L45.1547 376.172
L45.5151 376.088
L45.6053 376.033
L45.9686 375.948
L46.0594 375.887
L46.4214 375.796
L46.512 375.741
L46.8744 375.657
L46.9654 375.604
L47.3306 375.519
L47.4224 375.463
L47.7868 375.377
L47.8777 375.317
L48.3341 375.217
L48.4247 375.177
L48.9736 375.066
L49.0646 375.024
L49.7042 374.913
L49.796 374.883
L50.4371 374.779
L50.5287 374.741
L51.1732 374.644
L51.2648 374.615
L52.0029 374.509
L52.0946 374.476
L52.7404 374.374
L52.8333 374.339
L53.5719 374.23
L53.6645 374.201
L54.4062 374.104
L54.4992 374.075
L55.2413 373.976
L55.3344 373.946
L56.1712 373.837
L56.2642 373.813
L57.2905 373.704
L57.3835 373.681
L58.4116 373.572
L58.5056 373.549
L59.4409 373.439
L59.5346 373.415
L60.4732 373.306
L60.5669 373.282
L61.4134 373.176
L61.5074 373.148
L62.2601 373.05
L62.3543 373.022
L63.2026 372.916
L63.2975 372.89
L64.2403 372.78
L64.3346 372.753
L65.1855 372.65
L65.2802 372.622
L66.132 372.518
L66.2274 372.498
L67.3643 372.396
L67.4595 372.377
L68.8845 372.267
L68.98 372.247
L70.1254 372.143
L70.2202 372.126
L71.3647 372.021
L71.4594 372.003
L72.606 371.892
L72.7022 371.872
L73.8516 371.769
L73.9468 371.751
L75.2886 371.642
L75.3854 371.626
L76.7289 371.521
L76.8256 371.505
L78.1725 371.396
L78.2692 371.38
L79.713 371.27
L79.8101 371.256
L81.1616 371.149
L81.258 371.134
L82.7065 371.025
L82.8032 371.01
L84.4498 370.901
L84.5463 370.887
L86.0953 370.783
L86.1922 370.768
L87.7476 370.657
L87.8445 370.643
L89.2087 370.533
L89.3059 370.516
L90.6689 370.411
L90.7661 370.394
L92.2311 370.288
L92.3291 370.273
L93.8911 370.162
L93.9882 370.149
L95.9439 370.039
L96.0411 370.026
L97.7063 369.921
L97.8048 369.906
L99.3744 369.8
L99.4731 369.786
L101.44 369.68
L101.538 369.669
L103.799 369.564
L103.897 369.551
L105.671 369.441
L105.769 369.43
L107.745 369.319
L107.844 369.307
L110.117 369.199
L110.216 369.19
L112.789 369.082
L112.89 369.074
L115.567 368.964
L115.666 368.955
L117.949 368.846
L118.048 368.835
L120.634 368.724
L120.734 368.717
L123.624 368.608
L123.724 368.6
L126.717 368.489
L126.817 368.483
L130.018 368.375
L130.117 368.368
L133.425 368.258
L133.525 368.251
L137.036 368.141
L137.137 368.136
L141.46 368.025
L141.561 368.02
L145.792 367.909
L145.893 367.903
L149.323 367.794
L149.425 367.787
L152.859 367.679
L152.961 367.672
L156.097 367.564
L156.199 367.558
L160.051 367.449
L160.153 367.443
L164.314 367.333
L164.417 367.327
L168.585 367.218
L168.688 367.213
L173.068 367.103
L173.169 367.099
L178.681 366.988
L178.784 366.984
L184.203 366.874
L184.305 366.869
L189.32 366.76
L189.422 366.755
L194.555 366.646
L194.658 366.641
L198.87 366.531
L198.973 366.525
L202.884 366.415
L202.986 366.409
L206.694 366.3
L206.796 366.293
L211.024 366.184
L211.128 366.178
L215.466 366.068
L215.569 366.062
L220.117 365.952
L220.22 365.947
L224.873 365.838
L224.976 365.832
L229.741 365.722
L229.845 365.718
L236.905 365.607
L237.008 365.603
L244.286 365.493
L244.39 365.49
L251.263 365.38
L251.367 365.376
L257.728 365.267
L257.833 365.263
L264.622 365.153
L264.726 365.149
L271.21 365.039
L271.315 365.035
L278.543 364.925
L278.648 364.922
L285.99 364.811
L286.094 364.808
L292.826 364.699
L292.931 364.695
L299.771 364.584
L299.875 364.581
L306.614 364.471
L306.72 364.467
L313.679 364.357
L313.785 364.354
L321.493 364.243
L321.599 364.24
L330.163 364.13
L330.268 364.127
L338.844 364.017
L338.951 364.014
L348.39 363.903
L348.495 363.901
L359.116 363.79
L359.222 363.788
L369.647 363.677
L369.753 363.675
L382.971 363.565
L383.078 363.563
L399.628 363.453
L399.735 363.451
L416.221 363.341
L416.328 363.339
L430.379 363.228
L430.485 363.226
L447.129 363.116
L447.237 363.114
L464.89 363.004
L464.998 363.002
L484.745 362.891
L484.853 362.89
L502.687 362.779
L502.795 362.778
L519.367 362.667
L519.476 362.666
L535.202 362.555
L535.312 362.553
L545.189 362.47
L545.189 362.469" style="fill:none;stroke:#ff0000;stroke-width:0.5;"/>
   </g>
   <g id="matplotlib.axis_1">
    <g id="xtick_1">
     <g id="line2d_2">
      <defs>
       <path d="
M0 0
L0 -4" id="me27b94e650"/>
      </defs>
      <g>
       <use style="stroke:#000000;stroke-linecap:butt;stroke-width:0.5;" x="29.6609375" xlink:href="#me27b94e650" y="15.0092307692"/>
      </g>
     </g>
    </g>
    <g id="xtick_2">
     <g id="line2d_3">
      <defs>
       <path d="
M0 0
L0 -4" id="me27b94e650"/>
      </defs>
      <g>
       <use style="stroke:#000000;stroke-linecap:butt;stroke-width:0.5;" x="132.772002595" xlink:href="#me27b94e650" y="15.0092307692"/>
      </g>
     </g>
     <g id="text_1">
      <!-- 2e8 -->
      <defs>
       <path d="
M19.1875 8.29688
L53.6094 8.29688
L53.6094 0
L7.32812 0
L7.32812 8.29688
Q12.9375 14.1094 22.625 23.8906
Q32.3281 33.6875 34.8125 36.5312
Q39.5469 41.8438 41.4219 45.5312
Q43.3125 49.2188 43.3125 52.7812
Q43.3125 58.5938 39.2344 62.25
Q35.1562 65.9219 28.6094 65.9219
Q23.9688 65.9219 18.8125 64.3125
Q13.6719 62.7031 7.8125 59.4219
L7.8125 69.3906
Q13.7656 71.7812 18.9375 73
Q24.125 74.2188 28.4219 74.2188
Q39.75 74.2188 46.4844 68.5469
Q53.2188 62.8906 53.2188 53.4219
Q53.2188 48.9219 51.5312 44.8906
Q49.8594 40.875 45.4062 35.4062
Q44.1875 33.9844 37.6406 27.2188
Q31.1094 20.4531 19.1875 8.29688" id="BitstreamVeraSans-Roman-32"/>
       <path d="
M56.2031 29.5938
L56.2031 25.2031
L14.8906 25.2031
Q15.4844 15.9219 20.4844 11.0625
Q25.4844 6.20312 34.4219 6.20312
Q39.5938 6.20312 44.4531 7.46875
Q49.3125 8.73438 54.1094 11.2812
L54.1094 2.78125
Q49.2656 0.734375 44.1875 -0.34375
Q39.1094 -1.42188 33.8906 -1.42188
Q20.7969 -1.42188 13.1562 6.1875
Q5.51562 13.8125 5.51562 26.8125
Q5.51562 40.2344 12.7656 48.1094
Q20.0156 56 32.3281 56
Q43.3594 56 49.7812 48.8906
Q56.2031 41.7969 56.2031 29.5938
M47.2188 32.2344
Q47.125 39.5938 43.0938 43.9844
Q39.0625 48.3906 32.4219 48.3906
Q24.9062 48.3906 20.3906 44.1406
Q15.875 39.8906 15.1875 32.1719
z
" id="BitstreamVeraSans-Roman-65"/>
       <path d="
M31.7812 34.625
Q24.75 34.625 20.7188 30.8594
Q16.7031 27.0938 16.7031 20.5156
Q16.7031 13.9219 20.7188 10.1562
Q24.75 6.39062 31.7812 6.39062
Q38.8125 6.39062 42.8594 10.1719
Q46.9219 13.9688 46.9219 20.5156
Q46.9219 27.0938 42.8906 30.8594
Q38.875 34.625 31.7812 34.625
M21.9219 38.8125
Q15.5781 40.375 12.0312 44.7188
Q8.5 49.0781 8.5 55.3281
Q8.5 64.0625 14.7188 69.1406
Q20.9531 74.2188 31.7812 74.2188
Q42.6719 74.2188 48.875 69.1406
Q55.0781 64.0625 55.0781 55.3281
Q55.0781 49.0781 51.5312 44.7188
Q48 40.375 41.7031 38.8125
Q48.8281 37.1562 52.7969 32.3125
Q56.7812 27.4844 56.7812 20.5156
Q56.7812 9.90625 50.3125 4.23438
Q43.8438 -1.42188 31.7812 -1.42188
Q19.7344 -1.42188 13.25 4.23438
Q6.78125 9.90625 6.78125 20.5156
Q6.78125 27.4844 10.7812 32.3125
Q14.7969 37.1562 21.9219 38.8125
M18.3125 54.3906
Q18.3125 48.7344 21.8438 45.5625
Q25.3906 42.3906 31.7812 42.3906
Q38.1406 42.3906 41.7188 45.5625
Q45.3125 48.7344 45.3125 54.3906
Q45.3125 60.0625 41.7188 63.2344
Q38.1406 66.4062 31.7812 66.4062
Q25.3906 66.4062 21.8438 63.2344
Q18.3125 60.0625 18.3125 54.3906" id="BitstreamVeraSans-Roman-38"/>
      </defs>
      <g transform="translate(124.041533845 26.4311057692)scale(0.1 -0.1)">
       <use xlink:href="#BitstreamVeraSans-Roman-32"/>
       <use x="63.623046875" xlink:href="#BitstreamVeraSans-Roman-65"/>
       <use x="125.146484375" xlink:href="#BitstreamVeraSans-Roman-38"/>
      </g>
     </g>
    </g>
    <g id="xtick_3">
     <g id="line2d_4">
      <defs>
       <path d="
M0 0
L0 -4" id="me27b94e650"/>
      </defs>
      <g>
       <use style="stroke:#000000;stroke-linecap:butt;stroke-width:0.5;" x="235.883067689" xlink:href="#me27b94e650" y="15.0092307692"/>
      </g>
     </g>
     <g id="text_2">
      <!-- 4e8 -->
      <defs>
       <path d="
M37.7969 64.3125
L12.8906 25.3906
L37.7969 25.3906
z

M35.2031 72.9062
L47.6094 72.9062
L47.6094 25.3906
L58.0156 25.3906
L58.0156 17.1875
L47.6094 17.1875
L47.6094 0
L37.7969 0
L37.7969 17.1875
L4.89062 17.1875
L4.89062 26.7031
z
" id="BitstreamVeraSans-Roman-34"/>
      </defs>
      <g transform="translate(227.030723939 26.4311057692)scale(0.1 -0.1)">
       <use xlink:href="#BitstreamVeraSans-Roman-34"/>
       <use x="63.623046875" xlink:href="#BitstreamVeraSans-Roman-65"/>
       <use x="125.146484375" xlink:href="#BitstreamVeraSans-Roman-38"/>
      </g>
     </g>
    </g>
    <g id="xtick_4">
     <g id="line2d_5">
      <defs>
       <path d="
M0 0
L0 -4" id="me27b94e650"/>
      </defs>
      <g>
       <use style="stroke:#000000;stroke-linecap:butt;stroke-width:0.5;" x="338.994132784" xlink:href="#me27b94e650" y="15.0092307692"/>
      </g>
     </g>
     <g id="text_3">
      <!-- 6e8 -->
      <defs>
       <path d="
M33.0156 40.375
Q26.375 40.375 22.4844 35.8281
Q18.6094 31.2969 18.6094 23.3906
Q18.6094 15.5312 22.4844 10.9531
Q26.375 6.39062 33.0156 6.39062
Q39.6562 6.39062 43.5312 10.9531
Q47.4062 15.5312 47.4062 23.3906
Q47.4062 31.2969 43.5312 35.8281
Q39.6562 40.375 33.0156 40.375
M52.5938 71.2969
L52.5938 62.3125
Q48.875 64.0625 45.0938 64.9844
Q41.3125 65.9219 37.5938 65.9219
Q27.8281 65.9219 22.6719 59.3281
Q17.5312 52.7344 16.7969 39.4062
Q19.6719 43.6562 24.0156 45.9219
Q28.375 48.1875 33.5938 48.1875
Q44.5781 48.1875 50.9531 41.5156
Q57.3281 34.8594 57.3281 23.3906
Q57.3281 12.1562 50.6875 5.35938
Q44.0469 -1.42188 33.0156 -1.42188
Q20.3594 -1.42188 13.6719 8.26562
Q6.98438 17.9688 6.98438 36.375
Q6.98438 53.6562 15.1875 63.9375
Q23.3906 74.2188 37.2031 74.2188
Q40.9219 74.2188 44.7031 73.4844
Q48.4844 72.75 52.5938 71.2969" id="BitstreamVeraSans-Roman-36"/>
      </defs>
      <g transform="translate(330.246476534 26.4311057692)scale(0.1 -0.1)">
       <use xlink:href="#BitstreamVeraSans-Roman-36"/>
       <use x="63.623046875" xlink:href="#BitstreamVeraSans-Roman-65"/>
       <use x="125.146484375" xlink:href="#BitstreamVeraSans-Roman-38"/>
      </g>
     </g>
    </g>
    <g id="xtick_5">
     <g id="line2d_6">
      <defs>
       <path d="
M0 0
L0 -4" id="me27b94e650"/>
      </defs>
      <g>
       <use style="stroke:#000000;stroke-linecap:butt;stroke-width:0.5;" x="442.105197878" xlink:href="#me27b94e650" y="15.0092307692"/>
      </g>
     </g>
     <g id="text_4">
      <!-- 8e8 -->
      <g transform="translate(433.347385378 26.4311057692)scale(0.1 -0.1)">
       <use xlink:href="#BitstreamVeraSans-Roman-38"/>
       <use x="63.623046875" xlink:href="#BitstreamVeraSans-Roman-65"/>
       <use x="125.146484375" xlink:href="#BitstreamVeraSans-Roman-38"/>
      </g>
     </g>
    </g>
    <g id="xtick_6">
     <g id="line2d_7">
      <defs>
       <path d="
M0 0
L0 -4" id="me27b94e650"/>
      </defs>
      <g>
       <use style="stroke:#000000;stroke-linecap:butt;stroke-width:0.5;" x="545.216262973" xlink:href="#me27b94e650" y="15.0092307692"/>
      </g>
     </g>
     <g id="text_5">
      <!-- 1e9 -->
      <defs>
       <path d="
M10.9844 1.51562
L10.9844 10.5
Q14.7031 8.73438 18.5 7.8125
Q22.3125 6.89062 25.9844 6.89062
Q35.75 6.89062 40.8906 13.4531
Q46.0469 20.0156 46.7812 33.4062
Q43.9531 29.2031 39.5938 26.9531
Q35.25 24.7031 29.9844 24.7031
Q19.0469 24.7031 12.6719 31.3125
Q6.29688 37.9375 6.29688 49.4219
Q6.29688 60.6406 12.9375 67.4219
Q19.5781 74.2188 30.6094 74.2188
Q43.2656 74.2188 49.9219 64.5156
Q56.5938 54.8281 56.5938 36.375
Q56.5938 19.1406 48.4062 8.85938
Q40.2344 -1.42188 26.4219 -1.42188
Q22.7031 -1.42188 18.8906 -0.6875
Q15.0938 0.046875 10.9844 1.51562
M30.6094 32.4219
Q37.25 32.4219 41.125 36.9531
Q45.0156 41.5 45.0156 49.4219
Q45.0156 57.2812 41.125 61.8438
Q37.25 66.4062 30.6094 66.4062
Q23.9688 66.4062 20.0938 61.8438
Q16.2188 57.2812 16.2188 49.4219
Q16.2188 41.5 20.0938 36.9531
Q23.9688 32.4219 30.6094 32.4219" id="BitstreamVeraSans-Roman-39"/>
       <path d="
M12.4062 8.29688
L28.5156 8.29688
L28.5156 63.9219
L10.9844 60.4062
L10.9844 69.3906
L28.4219 72.9062
L38.2812 72.9062
L38.2812 8.29688
L54.3906 8.29688
L54.3906 0
L12.4062 0
z
" id="BitstreamVeraSans-Roman-31"/>
      </defs>
      <g transform="translate(536.677981723 26.4311057692)scale(0.1 -0.1)">
       <use xlink:href="#BitstreamVeraSans-Roman-31"/>
       <use x="63.623046875" xlink:href="#BitstreamVeraSans-Roman-65"/>
       <use x="125.146484375" xlink:href="#BitstreamVeraSans-Roman-39"/>
      </g>
     </g>
    </g>
    <g id="xtick_7">
     <g id="line2d_8">
      <defs>
       <path d="
M0 0
L0 -2" id="m4bc8f8d22d"/>
      </defs>
      <g>
       <use style="stroke:#000000;stroke-linecap:butt;stroke-width:0.5;" x="55.4387037736" xlink:href="#m4bc8f8d22d" y="15.0092307692"/>
      </g>
     </g>
    </g>
    <g id="xtick_8">
     <g id="line2d_9">
      <defs>
       <path d="
M0 0
L0 -2" id="m4bc8f8d22d"/>
      </defs>
      <g>
       <use style="stroke:#000000;stroke-linecap:butt;stroke-width:0.5;" x="81.2164700473" xlink:href="#m4bc8f8d22d" y="15.0092307692"/>
      </g>
     </g>
    </g>
    <g id="xtick_9">
     <g id="line2d_10">
      <defs>
       <path d="
M0 0
L0 -2" id="m4bc8f8d22d"/>
      </defs>
      <g>
       <use style="stroke:#000000;stroke-linecap:butt;stroke-width:0.5;" x="106.994236321" xlink:href="#m4bc8f8d22d" y="15.0092307692"/>
      </g>
     </g>
    </g>
    <g id="xtick_10">
     <g id="line2d_11">
      <defs>
       <path d="
M0 0
L0 -2" id="m4bc8f8d22d"/>
      </defs>
      <g>
       <use style="stroke:#000000;stroke-linecap:butt;stroke-width:0.5;" x="158.549768868" xlink:href="#m4bc8f8d22d" y="15.0092307692"/>
      </g>
     </g>
    </g>
    <g id="xtick_11">
     <g id="line2d_12">
      <defs>
       <path d="
M0 0
L0 -2" id="m4bc8f8d22d"/>
      </defs>
      <g>
       <use style="stroke:#000000;stroke-linecap:butt;stroke-width:0.5;" x="184.327535142" xlink:href="#m4bc8f8d22d" y="15.0092307692"/>
      </g>
     </g>
    </g>
    <g id="xtick_12">
     <g id="line2d_13">
      <defs>
       <path d="
M0 0
L0 -2" id="m4bc8f8d22d"/>
      </defs>
      <g>
       <use style="stroke:#000000;stroke-linecap:butt;stroke-width:0.5;" x="210.105301415" xlink:href="#m4bc8f8d22d" y="15.0092307692"/>
      </g>
     </g>
    </g>
    <g id="xtick_13">
     <g id="line2d_14">
      <defs>
       <path d="
M0 0
L0 -2" id="m4bc8f8d22d"/>
      </defs>
      <g>
       <use style="stroke:#000000;stroke-linecap:butt;stroke-width:0.5;" x="261.660833963" xlink:href="#m4bc8f8d22d" y="15.0092307692"/>
      </g>
     </g>
    </g>
    <g id="xtick_14">
     <g id="line2d_15">
      <defs>
       <path d="
M0 0
L0 -2" id="m4bc8f8d22d"/>
      </defs>
      <g>
       <use style="stroke:#000000;stroke-linecap:butt;stroke-width:0.5;" x="287.438600236" xlink:href="#m4bc8f8d22d" y="15.0092307692"/>
      </g>
     </g>
    </g>
    <g id="xtick_15">
     <g id="line2d_16">
      <defs>
       <path d="
M0 0
L0 -2" id="m4bc8f8d22d"/>
      </defs>
      <g>
       <use style="stroke:#000000;stroke-linecap:butt;stroke-width:0.5;" x="313.21636651" xlink:href="#m4bc8f8d22d" y="15.0092307692"/>
      </g>
     </g>
    </g>
    <g id="xtick_16">
     <g id="line2d_17">
      <defs>
       <path d="
M0 0
L0 -2" id="m4bc8f8d22d"/>
      </defs>
      <g>
       <use style="stroke:#000000;stroke-linecap:butt;stroke-width:0.5;" x="364.771899057" xlink:href="#m4bc8f8d22d" y="15.0092307692"/>
      </g>
     </g>
    </g>
    <g id="xtick_17">
     <g id="line2d_18">
      <defs>
       <path d="
M0 0
L0 -2" id="m4bc8f8d22d"/>
      </defs>
      <g>
       <use style="stroke:#000000;stroke-linecap:butt;stroke-width:0.5;" x="390.549665331" xlink:href="#m4bc8f8d22d" y="15.0092307692"/>
      </g>
     </g>
    </g>
    <g id="xtick_18">
     <g id="line2d_19">
      <defs>
       <path d="
M0 0
L0 -2" id="m4bc8f8d22d"/>
      </defs>
      <g>
       <use style="stroke:#000000;stroke-linecap:butt;stroke-width:0.5;" x="416.327431604" xlink:href="#m4bc8f8d22d" y="15.0092307692"/>
      </g>
     </g>
    </g>
    <g id="xtick_19">
     <g id="line2d_20">
      <defs>
       <path d="
M0 0
L0 -2" id="m4bc8f8d22d"/>
      </defs>
      <g>
       <use style="stroke:#000000;stroke-linecap:butt;stroke-width:0.5;" x="467.882964152" xlink:href="#m4bc8f8d22d" y="15.0092307692"/>
      </g>
     </g>
    </g>
    <g id="xtick_20">
     <g id="line2d_21">
      <defs>
       <path d="
M0 0
L0 -2" id="m4bc8f8d22d"/>
      </defs>
      <g>
       <use style="stroke:#000000;stroke-linecap:butt;stroke-width:0.5;" x="493.660730425" xlink:href="#m4bc8f8d22d" y="15.0092307692"/>
      </g>
     </g>
    </g>
    <g id="xtick_21">
     <g id="line2d_22">
      <defs>
       <path d="
M0 0
L0 -2" id="m4bc8f8d22d"/>
      </defs>
      <g>
       <use style="stroke:#000000;stroke-linecap:butt;stroke-width:0.5;" x="519.438496699" xlink:href="#m4bc8f8d22d" y="15.0092307692"/>
      </g>
     </g>
    </g>
   </g>
   <g id="matplotlib.axis_2">
    <g id="ytick_1">
     <g id="line2d_23">
      <defs>
       <path d="
M0 0
L4 0" id="me869f5826e"/>
      </defs>
      <g>
       <use style="stroke:#000000;stroke-linecap:butt;stroke-width:0.5;" x="29.6609375" xlink:href="#me869f5826e" y="355.633962028"/>
      </g>
     </g>
     <g id="text_6">
      <!-- -0.8 -->
      <defs>
       <path d="
M31.7812 66.4062
Q24.1719 66.4062 20.3281 58.9062
Q16.5 51.4219 16.5 36.375
Q16.5 21.3906 20.3281 13.8906
Q24.1719 6.39062 31.7812 6.39062
Q39.4531 6.39062 43.2812 13.8906
Q47.125 21.3906 47.125 36.375
Q47.125 51.4219 43.2812 58.9062
Q39.4531 66.4062 31.7812 66.4062
M31.7812 74.2188
Q44.0469 74.2188 50.5156 64.5156
Q56.9844 54.8281 56.9844 36.375
Q56.9844 17.9688 50.5156 8.26562
Q44.0469 -1.42188 31.7812 -1.42188
Q19.5312 -1.42188 13.0625 8.26562
Q6.59375 17.9688 6.59375 36.375
Q6.59375 54.8281 13.0625 64.5156
Q19.5312 74.2188 31.7812 74.2188" id="BitstreamVeraSans-Roman-30"/>
       <path d="
M10.6875 12.4062
L21 12.4062
L21 0
L10.6875 0
z
" id="BitstreamVeraSans-Roman-2e"/>
       <path d="
M4.89062 31.3906
L31.2031 31.3906
L31.2031 23.3906
L4.89062 23.3906
z
" id="BitstreamVeraSans-Roman-2d"/>
      </defs>
      <g transform="translate(7.3234375 359.273805778)scale(0.1 -0.1)">
       <use xlink:href="#BitstreamVeraSans-Roman-2d"/>
       <use x="36.083984375" xlink:href="#BitstreamVeraSans-Roman-30"/>
       <use x="99.70703125" xlink:href="#BitstreamVeraSans-Roman-2e"/>
       <use x="131.494140625" xlink:href="#BitstreamVeraSans-Roman-38"/>
      </g>
     </g>
    </g>
    <g id="ytick_2">
     <g id="line2d_24">
      <defs>
       <path d="
M0 0
L4 0" id="me869f5826e"/>
      </defs>
      <g>
       <use style="stroke:#000000;stroke-linecap:butt;stroke-width:0.5;" x="29.6609375" xlink:href="#me869f5826e" y="270.477779213"/>
      </g>
     </g>
     <g id="text_7">
      <!-- -0.6 -->
      <g transform="translate(7.26875 274.117622963)scale(0.1 -0.1)">
       <use xlink:href="#BitstreamVeraSans-Roman-2d"/>
       <use x="36.083984375" xlink:href="#BitstreamVeraSans-Roman-30"/>
       <use x="99.70703125" xlink:href="#BitstreamVeraSans-Roman-2e"/>
       <use x="131.494140625" xlink:href="#BitstreamVeraSans-Roman-36"/>
      </g>
     </g>
    </g>
    <g id="ytick_3">
     <g id="line2d_25">
      <defs>
       <path d="
M0 0
L4 0" id="me869f5826e"/>
      </defs>
      <g>
       <use style="stroke:#000000;stroke-linecap:butt;stroke-width:0.5;" x="29.6609375" xlink:href="#me869f5826e" y="185.321596399"/>
      </g>
     </g>
     <g id="text_8">
      <!-- -0.4 -->
      <g transform="translate(7.2 188.961440149)scale(0.1 -0.1)">
       <use xlink:href="#BitstreamVeraSans-Roman-2d"/>
       <use x="36.083984375" xlink:href="#BitstreamVeraSans-Roman-30"/>
       <use x="99.70703125" xlink:href="#BitstreamVeraSans-Roman-2e"/>
       <use x="131.494140625" xlink:href="#BitstreamVeraSans-Roman-34"/>
      </g>
     </g>
    </g>
    <g id="ytick_4">
     <g id="line2d_26">
      <defs>
       <path d="
M0 0
L4 0" id="me869f5826e"/>
      </defs>
      <g>
       <use style="stroke:#000000;stroke-linecap:butt;stroke-width:0.5;" x="29.6609375" xlink:href="#me869f5826e" y="100.165413584"/>
      </g>
     </g>
     <g id="text_9">
      <!-- -0.2 -->
      <g transform="translate(7.640625 103.805257334)scale(0.1 -0.1)">
       <use xlink:href="#BitstreamVeraSans-Roman-2d"/>
       <use x="36.083984375" xlink:href="#BitstreamVeraSans-Roman-30"/>
       <use x="99.70703125" xlink:href="#BitstreamVeraSans-Roman-2e"/>
       <use x="131.494140625" xlink:href="#BitstreamVeraSans-Roman-32"/>
      </g>
     </g>
    </g>
    <g id="ytick_5">
     <g id="line2d_27">
      <defs>
       <path d="
M0 0
L4 0" id="me869f5826e"/>
      </defs>
      <g>
       <use style="stroke:#000000;stroke-linecap:butt;stroke-width:0.5;" x="29.6609375" xlink:href="#me869f5826e" y="15.0092307692"/>
      </g>
     </g>
    </g>
    <g id="ytick_6">
     <g id="line2d_28">
      <defs>
       <path d="
M0 0
L2 0" id="mf1d37f288d"/>
      </defs>
      <g>
       <use style="stroke:#000000;stroke-linecap:butt;stroke-width:0.5;" x="29.6609375" xlink:href="#mf1d37f288d" y="398.212053436"/>
      </g>
     </g>
    </g>
    <g id="ytick_7">
     <g id="line2d_29">
      <defs>
       <path d="
M0 0
L2 0" id="mf1d37f288d"/>
      </defs>
      <g>
       <use style="stroke:#000000;stroke-linecap:butt;stroke-width:0.5;" x="29.6609375" xlink:href="#mf1d37f288d" y="376.923007732"/>
      </g>
     </g>
    </g>
    <g id="ytick_8">
     <g id="line2d_30">
      <defs>
       <path d="
M0 0
L2 0" id="mf1d37f288d"/>
      </defs>
      <g>
       <use style="stroke:#000000;stroke-linecap:butt;stroke-width:0.5;" x="29.6609375" xlink:href="#mf1d37f288d" y="334.344916324"/>
      </g>
     </g>
    </g>
    <g id="ytick_9">
     <g id="line2d_31">
      <defs>
       <path d="
M0 0
L2 0" id="mf1d37f288d"/>
      </defs>
      <g>
       <use style="stroke:#000000;stroke-linecap:butt;stroke-width:0.5;" x="29.6609375" xlink:href="#mf1d37f288d" y="313.055870621"/>
      </g>
     </g>
    </g>
    <g id="ytick_10">
     <g id="line2d_32">
      <defs>
       <path d="
M0 0
L2 0" id="mf1d37f288d"/>
      </defs>
      <g>
       <use style="stroke:#000000;stroke-linecap:butt;stroke-width:0.5;" x="29.6609375" xlink:href="#mf1d37f288d" y="291.766824917"/>
      </g>
     </g>
    </g>
    <g id="ytick_11">
     <g id="line2d_33">
      <defs>
       <path d="
M0 0
L2 0" id="mf1d37f288d"/>
      </defs>
      <g>
       <use style="stroke:#000000;stroke-linecap:butt;stroke-width:0.5;" x="29.6609375" xlink:href="#mf1d37f288d" y="249.18873351"/>
      </g>
     </g>
    </g>
    <g id="ytick_12">
     <g id="line2d_34">
      <defs>
       <path d="
M0 0
L2 0" id="mf1d37f288d"/>
      </defs>
      <g>
       <use style="stroke:#000000;stroke-linecap:butt;stroke-width:0.5;" x="29.6609375" xlink:href="#mf1d37f288d" y="227.899687806"/>
      </g>
     </g>
    </g>
    <g id="ytick_13">
     <g id="line2d_35">
      <defs>
       <path d="
M0 0
L2 0" id="mf1d37f288d"/>
      </defs>
      <g>
       <use style="stroke:#000000;stroke-linecap:butt;stroke-width:0.5;" x="29.6609375" xlink:href="#mf1d37f288d" y="206.610642102"/>
      </g>
     </g>
    </g>
    <g id="ytick_14">
     <g id="line2d_36">
      <defs>
       <path d="
M0 0
L2 0" id="mf1d37f288d"/>
      </defs>
      <g>
       <use style="stroke:#000000;stroke-linecap:butt;stroke-width:0.5;" x="29.6609375" xlink:href="#mf1d37f288d" y="164.032550695"/>
      </g>
     </g>
    </g>
    <g id="ytick_15">
     <g id="line2d_37">
      <defs>
       <path d="
M0 0
L2 0" id="mf1d37f288d"/>
      </defs>
      <g>
       <use style="stroke:#000000;stroke-linecap:butt;stroke-width:0.5;" x="29.6609375" xlink:href="#mf1d37f288d" y="142.743504991"/>
      </g>
     </g>
    </g>
    <g id="ytick_16">
     <g id="line2d_38">
      <defs>
       <path d="
M0 0
L2 0" id="mf1d37f288d"/>
      </defs>
      <g>
       <use style="stroke:#000000;stroke-linecap:butt;stroke-width:0.5;" x="29.6609375" xlink:href="#mf1d37f288d" y="121.454459288"/>
      </g>
     </g>
    </g>
    <g id="ytick_17">
     <g id="line2d_39">
      <defs>
       <path d="
M0 0
L2 0" id="mf1d37f288d"/>
      </defs>
      <g>
       <use style="stroke:#000000;stroke-linecap:butt;stroke-width:0.5;" x="29.6609375" xlink:href="#mf1d37f288d" y="78.8763678803"/>
      </g>
     </g>
    </g>
    <g id="ytick_18">
     <g id="line2d_40">
      <defs>
       <path d="
M0 0
L2 0" id="mf1d37f288d"/>
      </defs>
      <g>
       <use style="stroke:#000000;stroke-linecap:butt;stroke-width:0.5;" x="29.6609375" xlink:href="#mf1d37f288d" y="57.5873221766"/>
      </g>
     </g>
    </g>
    <g id="ytick_19">
     <g id="line2d_41">
      <defs>
       <path d="
M0 0
L2 0" id="mf1d37f288d"/>
      </defs>
      <g>
       <use style="stroke:#000000;stroke-linecap:butt;stroke-width:0.5;" x="29.6609375" xlink:href="#mf1d37f288d" y="36.2982764729"/>
      </g>
     </g>
    </g>
   </g>
   <g id="patch_3">
    <path d="
M19.3504 15.0092
L555.5 15.0092" style="fill:none;stroke:#000000;stroke-width:0.8;"/>
   </g>
   <g id="patch_4">
    <path d="
M29.6609 413.28
L29.6609 7.2" style="fill:none;stroke:#000000;stroke-width:0.8;"/>
   </g>
  </g>
 </g>
 <defs>
  <clipPath id="p9594e53bbf">
   <rect height="406.08" width="536.149198828" x="19.3503770152" y="7.2"/>
  </clipPath>
 </defs>
</svg>
