<?xml version="1.0" encoding="utf-8" standalone="no"?>
<!DOCTYPE svg PUBLIC "-//W3C//DTD SVG 1.1//EN"
  "http://www.w3.org/Graphics/SVG/1.1/DTD/svg11.dtd">
<!-- Created with matplotlib (http://matplotlib.sourceforge.net/) -->
<svg height="420pt" version="1.1" viewBox="0 0 562 420" width="562pt" xmlns="http://www.w3.org/2000/svg" xmlns:xlink="http://www.w3.org/1999/xlink">
 <defs>
  <style type="text/css">
*{stroke-linecap:square;stroke-linejoin:round;}
  </style>
 </defs>
 <g id="figure_1">
  <g id="patch_1">
   <path d="
M2.22045e-16 420.48
L562.746 420.48
L562.746 0
L2.22045e-16 0
z
" style="fill:#ffffff;"/>
  </g>
  <g id="axes_1">
   <g id="patch_2">
    <path d="
M19.0308 413.28
L555.546 413.28
L555.546 7.2
L19.0308 7.2
z
" style="fill:#ffffff;"/>
   </g>
   <g id="line2d_1">
    <path clip-path="url(#pe376afc05f)" d="
M29.3484 15.0092
L29.4035 15.0092
L29.4035 405.471
L29.4665 385.689
L29.5325 385.689
L29.6006 371.997
L29.67 371.997
L29.7408 362.711
L29.812 362.711
L29.8845 367.656
L29.9574 367.656
L30.0312 373.755
L30.1054 373.755
L30.1804 375.841
L30.2556 375.841
L30.3312 376.436
L30.4072 376.436
L30.4838 377.1
L30.5608 377.1
L30.5608 377.466
L30.638 377.412
L30.7152 377.412
L30.7931 376.225
L30.8711 376.225
L30.9495 374.602
L31.0276 374.602
L31.1065 373.662
L31.1863 373.662
L31.2651 374.143
L31.4244 374.172
L31.5043 373.481
L31.5846 373.481
L31.6643 372.862
L31.7452 372.862
L31.8259 372.091
L31.9062 372.091
L31.9872 371.243
L32.0682 371.243
L32.1495 369.87
L32.2312 369.87
L32.3131 368.223
L32.3949 368.223
L32.4768 366.595
L32.559 366.595
L32.6409 365.841
L32.8059 365.798
L32.888 365.374
L32.9703 365.374
L32.9703 365.241
L33.0531 365.298
L33.1361 365.298
L33.2193 365.542
L33.3024 365.542
L33.3858 365.809
L33.5529 365.9
L33.6361 366.226
L33.8033 366.325
L33.8867 366.439
L34.0555 366.413
L34.1392 366.167
L34.2236 366.167
L34.308 365.899
L34.3924 365.899
L34.4771 365.41
L34.562 365.41
L34.6466 365.005
L34.7314 365.005
L34.816 364.67
L34.9006 364.67
L34.9856 364.342
L35.0706 364.342
L35.1556 363.761
L35.2413 363.761
L35.3263 363.117
L35.4115 363.117
L35.497 362.611
L35.5825 362.611
L35.6683 361.883
L35.7533 361.883
L35.8395 360.915
L35.9248 360.915
L36.0108 359.986
L36.0974 359.986
L36.1834 359.016
L36.2696 359.016
L36.3564 357.997
L36.4421 357.997
L36.5278 357.262
L36.6147 357.262
L36.7012 356.737
L36.787 356.737
L36.8737 356.404
L37.1341 356.294
L37.1341 356.266
L37.2209 356.289
L37.4815 356.324
L37.5682 356.482
L38.0915 356.561
L38.1783 356.668
L38.528 356.774
L38.6154 357.007
L38.7036 357.007
L38.791 357.182
L39.1427 357.28
L39.2308 357.347
L39.4954 357.437
L39.5831 357.537
L39.759 357.625
L39.848 357.703
L40.644 357.801
L40.7321 357.877
L40.9997 357.949
L41.0884 358.035
L41.4441 357.947
L41.5333 357.766
L41.7119 357.696
L41.8011 357.559
L41.9789 357.466
L42.0683 357.351
L42.2469 357.276
L42.3364 357.116
L42.5162 357.042
L42.6057 356.891
L42.7842 356.848
L42.874 356.712
L43.0526 356.638
L43.1427 356.512
L43.7714 356.408
L43.8614 356.332
L44.131 356.26
L44.2218 356.124
L44.4024 356.048
L44.4923 355.871
L44.673 355.789
L44.7632 355.648
L44.9425 355.588
L45.0326 355.423
L45.2134 355.325
L45.3036 355.162
L45.4859 355.093
L45.5765 354.949
L45.758 354.88
L45.8484 354.725
L46.1203 354.619
L46.211 354.515
L46.3926 354.451
L46.4835 354.3
L46.6647 354.23
L46.756 354.041
L46.8464 354.041
L46.9384 353.805
L47.122 353.696
L47.2127 353.472
L47.3043 353.472
L47.395 353.24
L47.5777 353.135
L47.6689 352.914
L47.8513 352.827
L47.9425 352.711
L48.2166 352.644
L48.3084 352.534
L48.491 352.485
L48.5825 352.355
L48.7654 352.283
L48.8571 352.134
L49.04 352.036
L49.1309 351.904
L49.4053 351.801
L49.4973 351.693
L49.6798 351.627
L49.7714 351.47
L49.9551 351.389
L50.047 351.203
L50.2304 351.113
L50.323 350.928
L50.5065 350.848
L50.5982 350.678
L50.7827 350.597
L50.8754 350.436
L51.0602 350.361
L51.1517 350.188
L51.3359 350.109
L51.428 349.987
L51.6133 349.924
L51.7057 349.781
L51.8901 349.7
L51.9826 349.516
L52.1675 349.416
L52.2599 349.232
L52.4436 349.137
L52.5366 348.915
L52.6286 348.915
L52.7209 348.687
L52.9049 348.6
L52.9979 348.425
L53.1828 348.343
L53.2757 348.181
L53.4609 348.093
L53.5531 347.921
L53.7387 347.83
L53.8318 347.642
L54.0177 347.552
L54.1105 347.366
L54.2966 347.271
L54.3895 347.056
L54.4828 347.056
L54.5758 346.84
L54.7615 346.753
L54.854 346.58
L55.0394 346.486
L55.132 346.3
L55.3182 346.219
L55.4115 346.042
L55.5971 345.958
L55.6911 345.789
L55.8768 345.693
L55.9698 345.529
L56.156 345.446
L56.2493 345.293
L56.4363 345.217
L56.5295 345.055
L56.7161 344.959
L56.809 344.786
L56.9968 344.701
L57.0899 344.503
L57.2767 344.396
L57.3709 344.215
L57.5575 344.133
L57.6516 343.953
L57.8385 343.86
L57.9321 343.676
L58.1187 343.584
L58.2128 343.413
L58.399 343.322
L58.4935 343.125
L58.6798 343.027
L58.7738 342.849
L58.9602 342.77
L59.0543 342.601
L59.2425 342.516
L59.3365 342.351
L59.5244 342.264
L59.6179 342.093
L59.8052 342.007
L59.8994 341.827
L60.0879 341.734
L60.1817 341.541
L60.3698 341.449
L60.4636 341.258
L60.6511 341.167
L60.7443 340.977
L60.9333 340.883
L61.0281 340.684
L61.2166 340.58
L61.3106 340.376
L61.4986 340.275
L61.5929 340.061
L61.6877 340.061
L61.7814 339.828
L61.8759 339.828
L61.9699 339.579
L62.0641 339.579
L62.1582 339.322
L62.2525 339.322
L62.3459 339.07
L62.4401 339.07
L62.5346 338.823
L62.629 338.823
L62.7239 338.591
L62.8192 338.591
L62.913 338.372
L63.1023 338.265
L63.1965 338.048
L63.2915 338.048
L63.3856 337.823
L63.4799 337.823
L63.5731 337.588
L63.6674 337.588
L63.7616 337.349
L63.8564 337.349
L63.9513 337.099
L64.0457 337.099
L64.1398 336.843
L64.2339 336.843
L64.3289 336.601
L64.423 336.601
L64.518 336.359
L64.6126 336.359
L64.7077 336.106
L64.8022 336.106
L64.8972 335.843
L64.992 335.843
L65.0876 335.574
L65.1812 335.574
L65.2757 335.311
L65.3702 335.311
L65.4656 335.07
L65.5603 335.07
L65.6549 334.843
L65.8444 334.734
L65.9398 334.535
L66.1294 334.444
L66.2237 334.269
L66.414 334.181
L66.5092 334.004
L66.6975 333.909
L66.7924 333.706
L66.9824 333.609
L67.0775 333.424
L67.2683 333.333
L67.3626 333.175
L67.553 333.105
L67.6485 332.962
L67.8389 332.891
L67.934 332.742
L68.1246 332.677
L68.2191 332.553
L68.4091 332.487
L68.5037 332.35
L68.6943 332.276
L68.7899 332.112
L68.9815 332.02
L69.0763 331.848
L69.2669 331.765
L69.3625 331.622
L69.5529 331.549
L69.6484 331.396
L69.8405 331.319
L69.9354 331.179
L70.1264 331.108
L70.2216 330.96
L70.4127 330.887
L70.5082 330.748
L70.6996 330.678
L70.7948 330.54
L70.9859 330.475
L71.0807 330.341
L71.2703 330.276
L71.3659 330.14
L71.5577 330.07
L71.6528 329.919
L71.8447 329.849
L71.9403 329.714
L72.1309 329.644
L72.227 329.492
L72.419 329.413
L72.5149 329.255
L72.7049 329.184
L72.8021 329.045
L72.9934 328.976
L73.0892 328.841
L73.2817 328.775
L73.3774 328.642
L73.5692 328.572
L73.6645 328.441
L73.8567 328.375
L73.9522 328.238
L74.1439 328.172
L74.2399 328.038
L74.4317 327.967
L74.5281 327.835
L74.7201 327.779
L74.8156 327.663
L75.1041 327.563
L75.1997 327.467
L75.4873 327.365
L75.5839 327.276
L75.8728 327.183
L75.9684 327.088
L76.257 326.982
L76.3533 326.891
L76.6414 326.806
L76.7378 326.712
L77.027 326.609
L77.1232 326.502
L77.4122 326.396
L77.5084 326.279
L77.7016 326.22
L77.7975 326.099
L77.9899 326.042
L78.0863 325.932
L78.2784 325.876
L78.3738 325.765
L78.5671 325.706
L78.6629 325.579
L78.8559 325.516
L78.9528 325.4
L79.1464 325.341
L79.2416 325.227
L79.4347 325.169
L79.5318 325.05
L79.7239 324.99
L79.8198 324.863
L80.014 324.792
L80.11 324.645
L80.3036 324.57
L80.4012 324.426
L80.5949 324.356
L80.6913 324.215
L80.8842 324.145
L80.9807 324.004
L81.1741 323.934
L81.271 323.791
L81.4645 323.717
L81.561 323.588
L81.7541 323.526
L81.8512 323.417
L82.1399 323.307
L82.2365 323.208
L82.527 323.1
L82.6246 323.004
L82.9151 322.914
L83.0114 322.824
L83.3009 322.733
L83.3982 322.643
L83.6889 322.556
L83.7858 322.474
L84.0768 322.383
L84.1746 322.295
L84.4651 322.216
L84.5619 322.142
L84.8526 322.07
L84.949 321.989
L85.2403 321.898
L85.3361 321.797
L85.6277 321.696
L85.7246 321.593
L86.0153 321.489
L86.112 321.383
L86.4052 321.282
L86.5021 321.19
L86.7937 321.088
L86.8915 320.988
L87.1827 320.886
L87.28 320.788
L87.5717 320.702
L87.6693 320.607
L87.9613 320.498
L88.0593 320.383
L88.2539 320.324
L88.3508 320.209
L88.6442 320.1
L88.7418 319.988
L89.0341 319.882
L89.1318 319.777
L89.4225 319.676
L89.52 319.575
L89.8128 319.475
L89.9104 319.373
L90.2027 319.268
L90.3006 319.153
L90.5928 319.046
L90.6912 318.94
L90.8875 318.883
L90.985 318.771
L91.1803 318.714
L91.277 318.604
L91.5706 318.496
L91.6689 318.395
L91.9613 318.3
L92.0593 318.198
L92.3518 318.088
L92.4499 317.988
L92.7431 317.892
L92.8416 317.8
L93.1342 317.705
L93.2314 317.605
L93.5237 317.512
L93.6224 317.418
L93.9157 317.325
L94.0128 317.245
L94.3064 317.169
L94.404 317.089
L94.697 317.001
L94.7952 316.917
L95.0893 316.835
L95.1873 316.758
L95.4804 316.683
L95.5788 316.6
L95.8713 316.51
L95.9699 316.418
L96.2631 316.324
L96.3612 316.239
L96.6567 316.146
L96.7549 316.049
L97.0478 315.95
L97.1456 315.838
L97.4402 315.73
L97.5387 315.623
L97.8333 315.523
L97.9318 315.427
L98.226 315.337
L98.3249 315.253
L98.6194 315.163
L98.7174 315.077
L99.0115 314.993
L99.1094 314.909
L99.4059 314.818
L99.5039 314.729
L99.7981 314.643
L99.8958 314.566
L100.192 314.488
L100.289 314.409
L100.685 314.302
L100.782 314.242
L101.176 314.154
L101.274 314.096
L101.766 314.006
L101.865 313.954
L102.358 313.854
L102.456 313.806
L102.947 313.699
L103.046 313.639
L103.438 313.544
L103.537 313.467
L103.832 313.383
L103.931 313.3
L104.227 313.215
L104.326 313.125
L104.622 313.033
L104.72 312.944
L105.016 312.86
L105.115 312.78
L105.41 312.699
L105.509 312.624
L105.805 312.55
L105.904 312.475
L106.2 312.397
L106.299 312.317
L106.595 312.237
L106.694 312.162
L107.09 312.052
L107.189 311.977
L107.486 311.903
L107.584 311.826
L107.982 311.721
L108.081 311.652
L108.475 311.56
L108.574 311.499
L108.97 311.41
L109.069 311.35
L109.464 311.26
L109.564 311.2
L110.057 311.091
L110.156 311.043
L110.651 310.95
L110.751 310.908
L111.346 310.797
L111.444 310.748
L111.94 310.649
L112.039 310.6
L112.534 310.497
L112.634 310.452
L113.23 310.35
L113.329 310.305
L113.823 310.217
L113.922 310.165
L114.319 310.077
L114.419 310.023
L114.818 309.929
L114.917 309.867
L115.313 309.774
L115.413 309.714
L115.81 309.621
L115.909 309.555
L116.307 309.455
L116.406 309.386
L116.802 309.287
L116.902 309.221
L117.299 309.124
L117.399 309.059
L117.796 308.962
L117.895 308.894
L118.293 308.793
L118.392 308.736
L118.889 308.627
L118.989 308.577
L119.488 308.486
L119.587 308.439
L120.085 308.343
L120.184 308.294
L120.781 308.19
L120.881 308.156
L121.479 308.059
L121.579 308.012
L122.076 307.919
L122.175 307.881
L122.675 307.794
L122.775 307.747
L123.275 307.656
L123.375 307.608
L123.976 307.513
L124.075 307.473
L124.672 307.37
L124.772 307.325
L125.371 307.219
L125.472 307.18
L126.07 307.087
L126.171 307.053
L126.97 306.944
L127.07 306.903
L127.671 306.81
L127.771 306.772
L128.574 306.667
L128.674 306.643
L129.672 306.538
L129.773 306.51
L130.676 306.405
L130.775 306.381
L131.88 306.271
L131.98 306.247
L132.882 306.141
L132.982 306.113
L134.087 306.008
L134.187 305.987
L135.391 305.88
L135.492 305.864
L140.72 305.755
L140.821 305.741
L142.232 305.638
L142.333 305.619
L143.241 305.523
L143.342 305.492
L144.148 305.393
L144.248 305.367
L145.053 305.27
L145.154 305.238
L145.862 305.138
L145.963 305.105
L146.77 304.999
L146.872 304.962
L147.477 304.857
L147.578 304.808
L148.083 304.709
L148.185 304.657
L148.688 304.549
L148.789 304.499
L149.295 304.392
L149.397 304.338
L149.903 304.237
L150.005 304.19
L150.611 304.083
L150.712 304.036
L151.217 303.934
L151.318 303.884
L151.823 303.784
L151.924 303.737
L152.428 303.646
L152.529 303.597
L153.036 303.496
L153.138 303.441
L153.641 303.331
L153.743 303.273
L154.149 303.183
L154.25 303.125
L154.657 303.04
L154.758 302.984
L155.266 302.876
L155.367 302.821
L155.871 302.712
L155.972 302.66
L156.481 302.564
L156.581 302.518
L157.089 302.42
L157.19 302.373
L157.696 302.28
L157.798 302.234
L158.305 302.139
L158.407 302.092
L158.913 302.001
L159.015 301.956
L159.624 301.846
L159.726 301.806
L160.335 301.71
L160.437 301.673
L161.147 301.572
L161.248 301.54
L162.061 301.432
L162.163 301.406
L163.078 301.301
L163.179 301.276
L164.196 301.167
L164.297 301.145
L165.211 301.037
L165.313 301.006
L166.23 300.895
L166.331 300.868
L167.248 300.767
L167.351 300.742
L168.367 300.641
L168.47 300.618
L169.39 300.518
L169.492 300.488
L170.307 300.388
L170.409 300.36
L171.325 300.257
L171.426 300.231
L172.344 300.128
L172.445 300.102
L173.569 299.999
L173.669 299.981
L175.098 299.877
L175.2 299.861
L177.144 299.75
L177.246 299.741
L179.29 299.636
L179.392 299.624
L180.925 299.521
L181.026 299.505
L182.971 299.396
L183.073 299.385
L185.429 299.277
L185.531 299.269
L188.399 299.161
L188.501 299.155
L197.747 299.044
L197.85 299.035
L200.219 298.928
L200.321 298.918
L202.276 298.812
L202.379 298.794
L203.72 298.684
L203.823 298.666
L205.059 298.558
L205.161 298.542
L206.605 298.439
L206.707 298.422
L209.081 298.312
L209.185 298.305
L212.074 298.195
L212.177 298.184
L215.59 298.076
L215.694 298.07
L220.141 297.96
L220.244 297.954
L223.867 297.844
L223.97 297.837
L226.558 297.727
L226.661 297.717
L230.085 297.606
L230.188 297.605
L236.109 297.715
L236.213 297.723
L238.915 297.834
L239.019 297.841
L242.663 297.952
L242.767 297.957
L247.141 298.067
L247.247 298.073
L259.453 297.962
L259.557 297.959
L278.295 298.07
L278.401 298.078
L281.444 298.186
L281.55 298.194
L283.965 298.304
L284.069 298.314
L286.799 298.422
L286.904 298.429
L291.746 298.54
L291.85 298.547
L295.539 298.655
L295.644 298.664
L298.379 298.774
L298.485 298.779
L302.275 298.887
L302.381 298.894
L305.541 299.005
L305.646 299.011
L309.446 299.121
L309.552 299.129
L312.612 299.237
L312.719 299.244
L318.42 299.354
L318.525 299.357
L322.332 299.467
L322.437 299.475
L326.14 299.583
L326.246 299.59
L330.056 299.698
L330.161 299.706
L333.025 299.814
L333.131 299.821
L336.516 299.929
L336.622 299.937
L341.709 300.047
L341.815 300.051
L345.107 300.16
L345.213 300.17
L347.762 300.278
L347.868 300.287
L350.631 300.397
L350.738 300.406
L353.497 300.516
L353.604 300.524
L356.158 300.634
L356.265 300.644
L358.922 300.754
L359.028 300.764
L362.647 300.874
L362.753 300.882
L365.733 300.989
L365.84 300.998
L368.077 301.109
L368.182 301.121
L370.417 301.228
L370.524 301.238
L372.656 301.345
L372.762 301.357
L374.789 301.463
L374.896 301.475
L377.134 301.585
L377.242 301.595
L379.484 301.706
L379.59 301.72
L381.192 301.829
L381.299 301.845
L382.9 301.955
L383.006 301.969
L384.819 302.074
L384.925 302.088
L386.739 302.197
L386.846 302.212
L388.552 302.318
L388.66 302.329
L390.479 302.435
L390.585 302.447
L392.615 302.556
L392.722 302.569
L394.859 302.677
L394.966 302.687
L397.105 302.798
L397.212 302.811
L399.033 302.921
L399.141 302.934
L401.065 303.044
L401.171 303.055
L403.525 303.165
L403.632 303.174
L406.313 303.285
L406.419 303.293
L409.739 303.402
L409.847 303.408
L413.489 303.518
L413.595 303.525
L417.139 303.636
L417.245 303.643
L422.073 303.753
L422.18 303.756
L428.727 303.866
L428.835 303.869
L434.204 303.979
L434.311 303.985
L438.178 304.094
L438.285 304.102
L441.292 304.213
L441.399 304.222
L443.877 304.332
L443.985 304.342
L446.134 304.449
L446.241 304.46
L448.501 304.571
L448.61 304.582
L450.761 304.692
L450.867 304.704
L453.13 304.812
L453.238 304.822
L455.501 304.931
L455.609 304.942
L458.087 305.051
L458.194 305.059
L461.104 305.166
L461.212 305.174
L464.442 305.283
L464.55 305.291
L467.787 305.401
L467.894 305.408
L471.023 305.515
L471.131 305.525
L473.834 305.634
L473.941 305.644
L476.855 305.753
L476.962 305.76
L480.311 305.871
L480.419 305.878
L483.772 305.988
L483.88 305.995
L487.771 306.105
L487.879 306.111
L493.831 306.221
L493.938 306.225
L503.888 306.336
L503.996 306.338
L513.099 306.449
L513.208 306.451
L518.629 306.56
L518.737 306.565
L526.978 306.676
L527.087 306.677
L545.228 306.632
L545.228 306.631" style="fill:none;stroke:#ff0000;stroke-width:0.5;"/>
   </g>
   <g id="matplotlib.axis_1">
    <g id="xtick_1">
     <g id="line2d_2">
      <path d="
M29.3484 413.28
L29.3484 7.2" style="fill:none;stroke:#000000;stroke-dasharray:1.000000,3.000000;stroke-dashoffset:0.0;stroke-linecap:butt;stroke-width:0.5;"/>
     </g>
     <g id="line2d_3">
      <defs>
       <path d="
M0 0
L0 -4" id="mba7c2522da"/>
      </defs>
      <g>
       <use style="stroke:#000000;stroke-linecap:butt;stroke-width:0.5;" x="29.3484375" xlink:href="#mba7c2522da" y="15.0092307692"/>
      </g>
     </g>
    </g>
    <g id="xtick_2">
     <g id="line2d_4">
      <path d="
M132.53 413.28
L132.53 7.2" style="fill:none;stroke:#000000;stroke-dasharray:1.000000,3.000000;stroke-dashoffset:0.0;stroke-linecap:butt;stroke-width:0.5;"/>
     </g>
     <g id="line2d_5">
      <defs>
       <path d="
M0 0
L0 -4" id="mba7c2522da"/>
      </defs>
      <g>
       <use style="stroke:#000000;stroke-linecap:butt;stroke-width:0.5;" x="132.529818811" xlink:href="#mba7c2522da" y="15.0092307692"/>
      </g>
     </g>
     <g id="text_1">
      <!-- 2e8 -->
      <defs>
       <path d="
M19.1875 8.29688
L53.6094 8.29688
L53.6094 0
L7.32812 0
L7.32812 8.29688
Q12.9375 14.1094 22.625 23.8906
Q32.3281 33.6875 34.8125 36.5312
Q39.5469 41.8438 41.4219 45.5312
Q43.3125 49.2188 43.3125 52.7812
Q43.3125 58.5938 39.2344 62.25
Q35.1562 65.9219 28.6094 65.9219
Q23.9688 65.9219 18.8125 64.3125
Q13.6719 62.7031 7.8125 59.4219
L7.8125 69.3906
Q13.7656 71.7812 18.9375 73
Q24.125 74.2188 28.4219 74.2188
Q39.75 74.2188 46.4844 68.5469
Q53.2188 62.8906 53.2188 53.4219
Q53.2188 48.9219 51.5312 44.8906
Q49.8594 40.875 45.4062 35.4062
Q44.1875 33.9844 37.6406 27.2188
Q31.1094 20.4531 19.1875 8.29688" id="BitstreamVeraSans-Roman-32"/>
       <path d="
M56.2031 29.5938
L56.2031 25.2031
L14.8906 25.2031
Q15.4844 15.9219 20.4844 11.0625
Q25.4844 6.20312 34.4219 6.20312
Q39.5938 6.20312 44.4531 7.46875
Q49.3125 8.73438 54.1094 11.2812
L54.1094 2.78125
Q49.2656 0.734375 44.1875 -0.34375
Q39.1094 -1.42188 33.8906 -1.42188
Q20.7969 -1.42188 13.1562 6.1875
Q5.51562 13.8125 5.51562 26.8125
Q5.51562 40.2344 12.7656 48.1094
Q20.0156 56 32.3281 56
Q43.3594 56 49.7812 48.8906
Q56.2031 41.7969 56.2031 29.5938
M47.2188 32.2344
Q47.125 39.5938 43.0938 43.9844
Q39.0625 48.3906 32.4219 48.3906
Q24.9062 48.3906 20.3906 44.1406
Q15.875 39.8906 15.1875 32.1719
z
" id="BitstreamVeraSans-Roman-65"/>
       <path d="
M31.7812 34.625
Q24.75 34.625 20.7188 30.8594
Q16.7031 27.0938 16.7031 20.5156
Q16.7031 13.9219 20.7188 10.1562
Q24.75 6.39062 31.7812 6.39062
Q38.8125 6.39062 42.8594 10.1719
Q46.9219 13.9688 46.9219 20.5156
Q46.9219 27.0938 42.8906 30.8594
Q38.875 34.625 31.7812 34.625
M21.9219 38.8125
Q15.5781 40.375 12.0312 44.7188
Q8.5 49.0781 8.5 55.3281
Q8.5 64.0625 14.7188 69.1406
Q20.9531 74.2188 31.7812 74.2188
Q42.6719 74.2188 48.875 69.1406
Q55.0781 64.0625 55.0781 55.3281
Q55.0781 49.0781 51.5312 44.7188
Q48 40.375 41.7031 38.8125
Q48.8281 37.1562 52.7969 32.3125
Q56.7812 27.4844 56.7812 20.5156
Q56.7812 9.90625 50.3125 4.23438
Q43.8438 -1.42188 31.7812 -1.42188
Q19.7344 -1.42188 13.25 4.23438
Q6.78125 9.90625 6.78125 20.5156
Q6.78125 27.4844 10.7812 32.3125
Q14.7969 37.1562 21.9219 38.8125
M18.3125 54.3906
Q18.3125 48.7344 21.8438 45.5625
Q25.3906 42.3906 31.7812 42.3906
Q38.1406 42.3906 41.7188 45.5625
Q45.3125 48.7344 45.3125 54.3906
Q45.3125 60.0625 41.7188 63.2344
Q38.1406 66.4062 31.7812 66.4062
Q25.3906 66.4062 21.8438 63.2344
Q18.3125 60.0625 18.3125 54.3906" id="BitstreamVeraSans-Roman-38"/>
      </defs>
      <g transform="translate(123.799350061 26.4311057692)scale(0.1 -0.1)">
       <use xlink:href="#BitstreamVeraSans-Roman-32"/>
       <use x="63.623046875" xlink:href="#BitstreamVeraSans-Roman-65"/>
       <use x="125.146484375" xlink:href="#BitstreamVeraSans-Roman-38"/>
      </g>
     </g>
    </g>
    <g id="xtick_3">
     <g id="line2d_6">
      <path d="
M235.711 413.28
L235.711 7.2" style="fill:none;stroke:#000000;stroke-dasharray:1.000000,3.000000;stroke-dashoffset:0.0;stroke-linecap:butt;stroke-width:0.5;"/>
     </g>
     <g id="line2d_7">
      <defs>
       <path d="
M0 0
L0 -4" id="mba7c2522da"/>
      </defs>
      <g>
       <use style="stroke:#000000;stroke-linecap:butt;stroke-width:0.5;" x="235.711200122" xlink:href="#mba7c2522da" y="15.0092307692"/>
      </g>
     </g>
     <g id="text_2">
      <!-- 4e8 -->
      <defs>
       <path d="
M37.7969 64.3125
L12.8906 25.3906
L37.7969 25.3906
z

M35.2031 72.9062
L47.6094 72.9062
L47.6094 25.3906
L58.0156 25.3906
L58.0156 17.1875
L47.6094 17.1875
L47.6094 0
L37.7969 0
L37.7969 17.1875
L4.89062 17.1875
L4.89062 26.7031
z
" id="BitstreamVeraSans-Roman-34"/>
      </defs>
      <g transform="translate(226.858856372 26.4311057692)scale(0.1 -0.1)">
       <use xlink:href="#BitstreamVeraSans-Roman-34"/>
       <use x="63.623046875" xlink:href="#BitstreamVeraSans-Roman-65"/>
       <use x="125.146484375" xlink:href="#BitstreamVeraSans-Roman-38"/>
      </g>
     </g>
    </g>
    <g id="xtick_4">
     <g id="line2d_8">
      <path d="
M338.893 413.28
L338.893 7.2" style="fill:none;stroke:#000000;stroke-dasharray:1.000000,3.000000;stroke-dashoffset:0.0;stroke-linecap:butt;stroke-width:0.5;"/>
     </g>
     <g id="line2d_9">
      <defs>
       <path d="
M0 0
L0 -4" id="mba7c2522da"/>
      </defs>
      <g>
       <use style="stroke:#000000;stroke-linecap:butt;stroke-width:0.5;" x="338.892581433" xlink:href="#mba7c2522da" y="15.0092307692"/>
      </g>
     </g>
     <g id="text_3">
      <!-- 6e8 -->
      <defs>
       <path d="
M33.0156 40.375
Q26.375 40.375 22.4844 35.8281
Q18.6094 31.2969 18.6094 23.3906
Q18.6094 15.5312 22.4844 10.9531
Q26.375 6.39062 33.0156 6.39062
Q39.6562 6.39062 43.5312 10.9531
Q47.4062 15.5312 47.4062 23.3906
Q47.4062 31.2969 43.5312 35.8281
Q39.6562 40.375 33.0156 40.375
M52.5938 71.2969
L52.5938 62.3125
Q48.875 64.0625 45.0938 64.9844
Q41.3125 65.9219 37.5938 65.9219
Q27.8281 65.9219 22.6719 59.3281
Q17.5312 52.7344 16.7969 39.4062
Q19.6719 43.6562 24.0156 45.9219
Q28.375 48.1875 33.5938 48.1875
Q44.5781 48.1875 50.9531 41.5156
Q57.3281 34.8594 57.3281 23.3906
Q57.3281 12.1562 50.6875 5.35938
Q44.0469 -1.42188 33.0156 -1.42188
Q20.3594 -1.42188 13.6719 8.26562
Q6.98438 17.9688 6.98438 36.375
Q6.98438 53.6562 15.1875 63.9375
Q23.3906 74.2188 37.2031 74.2188
Q40.9219 74.2188 44.7031 73.4844
Q48.4844 72.75 52.5938 71.2969" id="BitstreamVeraSans-Roman-36"/>
      </defs>
      <g transform="translate(330.144925183 26.4311057692)scale(0.1 -0.1)">
       <use xlink:href="#BitstreamVeraSans-Roman-36"/>
       <use x="63.623046875" xlink:href="#BitstreamVeraSans-Roman-65"/>
       <use x="125.146484375" xlink:href="#BitstreamVeraSans-Roman-38"/>
      </g>
     </g>
    </g>
    <g id="xtick_5">
     <g id="line2d_10">
      <path d="
M442.074 413.28
L442.074 7.2" style="fill:none;stroke:#000000;stroke-dasharray:1.000000,3.000000;stroke-dashoffset:0.0;stroke-linecap:butt;stroke-width:0.5;"/>
     </g>
     <g id="line2d_11">
      <defs>
       <path d="
M0 0
L0 -4" id="mba7c2522da"/>
      </defs>
      <g>
       <use style="stroke:#000000;stroke-linecap:butt;stroke-width:0.5;" x="442.073962744" xlink:href="#mba7c2522da" y="15.0092307692"/>
      </g>
     </g>
     <g id="text_4">
      <!-- 8e8 -->
      <g transform="translate(433.316150244 26.4311057692)scale(0.1 -0.1)">
       <use xlink:href="#BitstreamVeraSans-Roman-38"/>
       <use x="63.623046875" xlink:href="#BitstreamVeraSans-Roman-65"/>
       <use x="125.146484375" xlink:href="#BitstreamVeraSans-Roman-38"/>
      </g>
     </g>
    </g>
    <g id="xtick_6">
     <g id="line2d_12">
      <path d="
M545.255 413.28
L545.255 7.2" style="fill:none;stroke:#000000;stroke-dasharray:1.000000,3.000000;stroke-dashoffset:0.0;stroke-linecap:butt;stroke-width:0.5;"/>
     </g>
     <g id="line2d_13">
      <defs>
       <path d="
M0 0
L0 -4" id="mba7c2522da"/>
      </defs>
      <g>
       <use style="stroke:#000000;stroke-linecap:butt;stroke-width:0.5;" x="545.255344055" xlink:href="#mba7c2522da" y="15.0092307692"/>
      </g>
     </g>
     <g id="text_5">
      <!-- 1e9 -->
      <defs>
       <path d="
M10.9844 1.51562
L10.9844 10.5
Q14.7031 8.73438 18.5 7.8125
Q22.3125 6.89062 25.9844 6.89062
Q35.75 6.89062 40.8906 13.4531
Q46.0469 20.0156 46.7812 33.4062
Q43.9531 29.2031 39.5938 26.9531
Q35.25 24.7031 29.9844 24.7031
Q19.0469 24.7031 12.6719 31.3125
Q6.29688 37.9375 6.29688 49.4219
Q6.29688 60.6406 12.9375 67.4219
Q19.5781 74.2188 30.6094 74.2188
Q43.2656 74.2188 49.9219 64.5156
Q56.5938 54.8281 56.5938 36.375
Q56.5938 19.1406 48.4062 8.85938
Q40.2344 -1.42188 26.4219 -1.42188
Q22.7031 -1.42188 18.8906 -0.6875
Q15.0938 0.046875 10.9844 1.51562
M30.6094 32.4219
Q37.25 32.4219 41.125 36.9531
Q45.0156 41.5 45.0156 49.4219
Q45.0156 57.2812 41.125 61.8438
Q37.25 66.4062 30.6094 66.4062
Q23.9688 66.4062 20.0938 61.8438
Q16.2188 57.2812 16.2188 49.4219
Q16.2188 41.5 20.0938 36.9531
Q23.9688 32.4219 30.6094 32.4219" id="BitstreamVeraSans-Roman-39"/>
       <path d="
M12.4062 8.29688
L28.5156 8.29688
L28.5156 63.9219
L10.9844 60.4062
L10.9844 69.3906
L28.4219 72.9062
L38.2812 72.9062
L38.2812 8.29688
L54.3906 8.29688
L54.3906 0
L12.4062 0
z
" id="BitstreamVeraSans-Roman-31"/>
      </defs>
      <g transform="translate(536.717062805 26.4311057692)scale(0.1 -0.1)">
       <use xlink:href="#BitstreamVeraSans-Roman-31"/>
       <use x="63.623046875" xlink:href="#BitstreamVeraSans-Roman-65"/>
       <use x="125.146484375" xlink:href="#BitstreamVeraSans-Roman-39"/>
      </g>
     </g>
    </g>
    <g id="xtick_7">
     <g id="line2d_14">
      <defs>
       <path d="
M0 0
L0 -2" id="m76dfd2dc14"/>
      </defs>
      <g>
       <use style="stroke:#000000;stroke-linecap:butt;stroke-width:0.5;" x="55.1437828278" xlink:href="#m76dfd2dc14" y="15.0092307692"/>
      </g>
     </g>
    </g>
    <g id="xtick_8">
     <g id="line2d_15">
      <defs>
       <path d="
M0 0
L0 -2" id="m76dfd2dc14"/>
      </defs>
      <g>
       <use style="stroke:#000000;stroke-linecap:butt;stroke-width:0.5;" x="80.9391281555" xlink:href="#m76dfd2dc14" y="15.0092307692"/>
      </g>
     </g>
    </g>
    <g id="xtick_9">
     <g id="line2d_16">
      <defs>
       <path d="
M0 0
L0 -2" id="m76dfd2dc14"/>
      </defs>
      <g>
       <use style="stroke:#000000;stroke-linecap:butt;stroke-width:0.5;" x="106.734473483" xlink:href="#m76dfd2dc14" y="15.0092307692"/>
      </g>
     </g>
    </g>
    <g id="xtick_10">
     <g id="line2d_17">
      <defs>
       <path d="
M0 0
L0 -2" id="m76dfd2dc14"/>
      </defs>
      <g>
       <use style="stroke:#000000;stroke-linecap:butt;stroke-width:0.5;" x="158.325164139" xlink:href="#m76dfd2dc14" y="15.0092307692"/>
      </g>
     </g>
    </g>
    <g id="xtick_11">
     <g id="line2d_18">
      <defs>
       <path d="
M0 0
L0 -2" id="m76dfd2dc14"/>
      </defs>
      <g>
       <use style="stroke:#000000;stroke-linecap:butt;stroke-width:0.5;" x="184.120509467" xlink:href="#m76dfd2dc14" y="15.0092307692"/>
      </g>
     </g>
    </g>
    <g id="xtick_12">
     <g id="line2d_19">
      <defs>
       <path d="
M0 0
L0 -2" id="m76dfd2dc14"/>
      </defs>
      <g>
       <use style="stroke:#000000;stroke-linecap:butt;stroke-width:0.5;" x="209.915854794" xlink:href="#m76dfd2dc14" y="15.0092307692"/>
      </g>
     </g>
    </g>
    <g id="xtick_13">
     <g id="line2d_20">
      <defs>
       <path d="
M0 0
L0 -2" id="m76dfd2dc14"/>
      </defs>
      <g>
       <use style="stroke:#000000;stroke-linecap:butt;stroke-width:0.5;" x="261.50654545" xlink:href="#m76dfd2dc14" y="15.0092307692"/>
      </g>
     </g>
    </g>
    <g id="xtick_14">
     <g id="line2d_21">
      <defs>
       <path d="
M0 0
L0 -2" id="m76dfd2dc14"/>
      </defs>
      <g>
       <use style="stroke:#000000;stroke-linecap:butt;stroke-width:0.5;" x="287.301890778" xlink:href="#m76dfd2dc14" y="15.0092307692"/>
      </g>
     </g>
    </g>
    <g id="xtick_15">
     <g id="line2d_22">
      <defs>
       <path d="
M0 0
L0 -2" id="m76dfd2dc14"/>
      </defs>
      <g>
       <use style="stroke:#000000;stroke-linecap:butt;stroke-width:0.5;" x="313.097236105" xlink:href="#m76dfd2dc14" y="15.0092307692"/>
      </g>
     </g>
    </g>
    <g id="xtick_16">
     <g id="line2d_23">
      <defs>
       <path d="
M0 0
L0 -2" id="m76dfd2dc14"/>
      </defs>
      <g>
       <use style="stroke:#000000;stroke-linecap:butt;stroke-width:0.5;" x="364.687926761" xlink:href="#m76dfd2dc14" y="15.0092307692"/>
      </g>
     </g>
    </g>
    <g id="xtick_17">
     <g id="line2d_24">
      <defs>
       <path d="
M0 0
L0 -2" id="m76dfd2dc14"/>
      </defs>
      <g>
       <use style="stroke:#000000;stroke-linecap:butt;stroke-width:0.5;" x="390.483272089" xlink:href="#m76dfd2dc14" y="15.0092307692"/>
      </g>
     </g>
    </g>
    <g id="xtick_18">
     <g id="line2d_25">
      <defs>
       <path d="
M0 0
L0 -2" id="m76dfd2dc14"/>
      </defs>
      <g>
       <use style="stroke:#000000;stroke-linecap:butt;stroke-width:0.5;" x="416.278617417" xlink:href="#m76dfd2dc14" y="15.0092307692"/>
      </g>
     </g>
    </g>
    <g id="xtick_19">
     <g id="line2d_26">
      <defs>
       <path d="
M0 0
L0 -2" id="m76dfd2dc14"/>
      </defs>
      <g>
       <use style="stroke:#000000;stroke-linecap:butt;stroke-width:0.5;" x="467.869308072" xlink:href="#m76dfd2dc14" y="15.0092307692"/>
      </g>
     </g>
    </g>
    <g id="xtick_20">
     <g id="line2d_27">
      <defs>
       <path d="
M0 0
L0 -2" id="m76dfd2dc14"/>
      </defs>
      <g>
       <use style="stroke:#000000;stroke-linecap:butt;stroke-width:0.5;" x="493.6646534" xlink:href="#m76dfd2dc14" y="15.0092307692"/>
      </g>
     </g>
    </g>
    <g id="xtick_21">
     <g id="line2d_28">
      <defs>
       <path d="
M0 0
L0 -2" id="m76dfd2dc14"/>
      </defs>
      <g>
       <use style="stroke:#000000;stroke-linecap:butt;stroke-width:0.5;" x="519.459998728" xlink:href="#m76dfd2dc14" y="15.0092307692"/>
      </g>
     </g>
    </g>
   </g>
   <g id="matplotlib.axis_2">
    <g id="ytick_1">
     <g id="line2d_29">
      <path d="
M19.0308 324.89
L555.546 324.89" style="fill:none;stroke:#000000;stroke-dasharray:1.000000,3.000000;stroke-dashoffset:0.0;stroke-linecap:butt;stroke-width:0.5;"/>
     </g>
     <g id="line2d_30">
      <defs>
       <path d="
M0 0
L4 0" id="m3ebf9620a1"/>
      </defs>
      <g>
       <use style="stroke:#000000;stroke-linecap:butt;stroke-width:0.5;" x="29.3484375" xlink:href="#m3ebf9620a1" y="324.889994835"/>
      </g>
     </g>
     <g id="text_6">
      <!-- -1.5 -->
      <defs>
       <path d="
M10.6875 12.4062
L21 12.4062
L21 0
L10.6875 0
z
" id="BitstreamVeraSans-Roman-2e"/>
       <path d="
M4.89062 31.3906
L31.2031 31.3906
L31.2031 23.3906
L4.89062 23.3906
z
" id="BitstreamVeraSans-Roman-2d"/>
       <path d="
M10.7969 72.9062
L49.5156 72.9062
L49.5156 64.5938
L19.8281 64.5938
L19.8281 46.7344
Q21.9688 47.4688 24.1094 47.8281
Q26.2656 48.1875 28.4219 48.1875
Q40.625 48.1875 47.75 41.5
Q54.8906 34.8125 54.8906 23.3906
Q54.8906 11.625 47.5625 5.09375
Q40.2344 -1.42188 26.9062 -1.42188
Q22.3125 -1.42188 17.5469 -0.640625
Q12.7969 0.140625 7.71875 1.70312
L7.71875 11.625
Q12.1094 9.23438 16.7969 8.0625
Q21.4844 6.89062 26.7031 6.89062
Q35.1562 6.89062 40.0781 11.3281
Q45.0156 15.7656 45.0156 23.3906
Q45.0156 31 40.0781 35.4375
Q35.1562 39.8906 26.7031 39.8906
Q22.75 39.8906 18.8125 39.0156
Q14.8906 38.1406 10.7969 36.2812
z
" id="BitstreamVeraSans-Roman-35"/>
      </defs>
      <g transform="translate(7.2 328.464213585)scale(0.1 -0.1)">
       <use xlink:href="#BitstreamVeraSans-Roman-2d"/>
       <use x="36.083984375" xlink:href="#BitstreamVeraSans-Roman-31"/>
       <use x="99.70703125" xlink:href="#BitstreamVeraSans-Roman-2e"/>
       <use x="131.494140625" xlink:href="#BitstreamVeraSans-Roman-35"/>
      </g>
     </g>
    </g>
    <g id="ytick_2">
     <g id="line2d_31">
      <path d="
M19.0308 221.596
L555.546 221.596" style="fill:none;stroke:#000000;stroke-dasharray:1.000000,3.000000;stroke-dashoffset:0.0;stroke-linecap:butt;stroke-width:0.5;"/>
     </g>
     <g id="line2d_32">
      <defs>
       <path d="
M0 0
L4 0" id="m3ebf9620a1"/>
      </defs>
      <g>
       <use style="stroke:#000000;stroke-linecap:butt;stroke-width:0.5;" x="29.3484375" xlink:href="#m3ebf9620a1" y="221.596406813"/>
      </g>
     </g>
     <g id="text_7">
      <!-- -1 -->
      <g transform="translate(16.790625 225.241719313)scale(0.1 -0.1)">
       <use xlink:href="#BitstreamVeraSans-Roman-2d"/>
       <use x="36.083984375" xlink:href="#BitstreamVeraSans-Roman-31"/>
      </g>
     </g>
    </g>
    <g id="ytick_3">
     <g id="line2d_33">
      <path d="
M19.0308 118.303
L555.546 118.303" style="fill:none;stroke:#000000;stroke-dasharray:1.000000,3.000000;stroke-dashoffset:0.0;stroke-linecap:butt;stroke-width:0.5;"/>
     </g>
     <g id="line2d_34">
      <defs>
       <path d="
M0 0
L4 0" id="m3ebf9620a1"/>
      </defs>
      <g>
       <use style="stroke:#000000;stroke-linecap:butt;stroke-width:0.5;" x="29.3484375" xlink:href="#m3ebf9620a1" y="118.302818791"/>
      </g>
     </g>
     <g id="text_8">
      <!-- -0.5 -->
      <defs>
       <path d="
M31.7812 66.4062
Q24.1719 66.4062 20.3281 58.9062
Q16.5 51.4219 16.5 36.375
Q16.5 21.3906 20.3281 13.8906
Q24.1719 6.39062 31.7812 6.39062
Q39.4531 6.39062 43.2812 13.8906
Q47.125 21.3906 47.125 36.375
Q47.125 51.4219 43.2812 58.9062
Q39.4531 66.4062 31.7812 66.4062
M31.7812 74.2188
Q44.0469 74.2188 50.5156 64.5156
Q56.9844 54.8281 56.9844 36.375
Q56.9844 17.9688 50.5156 8.26562
Q44.0469 -1.42188 31.7812 -1.42188
Q19.5312 -1.42188 13.0625 8.26562
Q6.59375 17.9688 6.59375 36.375
Q6.59375 54.8281 13.0625 64.5156
Q19.5312 74.2188 31.7812 74.2188" id="BitstreamVeraSans-Roman-30"/>
      </defs>
      <g transform="translate(7.2 121.942662541)scale(0.1 -0.1)">
       <use xlink:href="#BitstreamVeraSans-Roman-2d"/>
       <use x="36.083984375" xlink:href="#BitstreamVeraSans-Roman-30"/>
       <use x="99.70703125" xlink:href="#BitstreamVeraSans-Roman-2e"/>
       <use x="131.494140625" xlink:href="#BitstreamVeraSans-Roman-35"/>
      </g>
     </g>
    </g>
    <g id="ytick_4">
     <g id="line2d_35">
      <path d="
M19.0308 15.0092
L555.546 15.0092" style="fill:none;stroke:#000000;stroke-dasharray:1.000000,3.000000;stroke-dashoffset:0.0;stroke-linecap:butt;stroke-width:0.5;"/>
     </g>
     <g id="line2d_36">
      <defs>
       <path d="
M0 0
L4 0" id="m3ebf9620a1"/>
      </defs>
      <g>
       <use style="stroke:#000000;stroke-linecap:butt;stroke-width:0.5;" x="29.3484375" xlink:href="#m3ebf9620a1" y="15.0092307692"/>
      </g>
     </g>
    </g>
    <g id="ytick_5">
     <g id="line2d_37">
      <defs>
       <path d="
M0 0
L2 0" id="mf0020cb5fc"/>
      </defs>
      <g>
       <use style="stroke:#000000;stroke-linecap:butt;stroke-width:0.5;" x="29.3484375" xlink:href="#mf0020cb5fc" y="407.524865252"/>
      </g>
     </g>
    </g>
    <g id="ytick_6">
     <g id="line2d_38">
      <defs>
       <path d="
M0 0
L2 0" id="mf0020cb5fc"/>
      </defs>
      <g>
       <use style="stroke:#000000;stroke-linecap:butt;stroke-width:0.5;" x="29.3484375" xlink:href="#mf0020cb5fc" y="386.866147648"/>
      </g>
     </g>
    </g>
    <g id="ytick_7">
     <g id="line2d_39">
      <defs>
       <path d="
M0 0
L2 0" id="mf0020cb5fc"/>
      </defs>
      <g>
       <use style="stroke:#000000;stroke-linecap:butt;stroke-width:0.5;" x="29.3484375" xlink:href="#mf0020cb5fc" y="366.207430043"/>
      </g>
     </g>
    </g>
    <g id="ytick_8">
     <g id="line2d_40">
      <defs>
       <path d="
M0 0
L2 0" id="mf0020cb5fc"/>
      </defs>
      <g>
       <use style="stroke:#000000;stroke-linecap:butt;stroke-width:0.5;" x="29.3484375" xlink:href="#mf0020cb5fc" y="345.548712439"/>
      </g>
     </g>
    </g>
    <g id="ytick_9">
     <g id="line2d_41">
      <defs>
       <path d="
M0 0
L2 0" id="mf0020cb5fc"/>
      </defs>
      <g>
       <use style="stroke:#000000;stroke-linecap:butt;stroke-width:0.5;" x="29.3484375" xlink:href="#mf0020cb5fc" y="304.23127723"/>
      </g>
     </g>
    </g>
    <g id="ytick_10">
     <g id="line2d_42">
      <defs>
       <path d="
M0 0
L2 0" id="mf0020cb5fc"/>
      </defs>
      <g>
       <use style="stroke:#000000;stroke-linecap:butt;stroke-width:0.5;" x="29.3484375" xlink:href="#mf0020cb5fc" y="283.572559626"/>
      </g>
     </g>
    </g>
    <g id="ytick_11">
     <g id="line2d_43">
      <defs>
       <path d="
M0 0
L2 0" id="mf0020cb5fc"/>
      </defs>
      <g>
       <use style="stroke:#000000;stroke-linecap:butt;stroke-width:0.5;" x="29.3484375" xlink:href="#mf0020cb5fc" y="262.913842022"/>
      </g>
     </g>
    </g>
    <g id="ytick_12">
     <g id="line2d_44">
      <defs>
       <path d="
M0 0
L2 0" id="mf0020cb5fc"/>
      </defs>
      <g>
       <use style="stroke:#000000;stroke-linecap:butt;stroke-width:0.5;" x="29.3484375" xlink:href="#mf0020cb5fc" y="242.255124417"/>
      </g>
     </g>
    </g>
    <g id="ytick_13">
     <g id="line2d_45">
      <defs>
       <path d="
M0 0
L2 0" id="mf0020cb5fc"/>
      </defs>
      <g>
       <use style="stroke:#000000;stroke-linecap:butt;stroke-width:0.5;" x="29.3484375" xlink:href="#mf0020cb5fc" y="200.937689209"/>
      </g>
     </g>
    </g>
    <g id="ytick_14">
     <g id="line2d_46">
      <defs>
       <path d="
M0 0
L2 0" id="mf0020cb5fc"/>
      </defs>
      <g>
       <use style="stroke:#000000;stroke-linecap:butt;stroke-width:0.5;" x="29.3484375" xlink:href="#mf0020cb5fc" y="180.278971604"/>
      </g>
     </g>
    </g>
    <g id="ytick_15">
     <g id="line2d_47">
      <defs>
       <path d="
M0 0
L2 0" id="mf0020cb5fc"/>
      </defs>
      <g>
       <use style="stroke:#000000;stroke-linecap:butt;stroke-width:0.5;" x="29.3484375" xlink:href="#mf0020cb5fc" y="159.620254"/>
      </g>
     </g>
    </g>
    <g id="ytick_16">
     <g id="line2d_48">
      <defs>
       <path d="
M0 0
L2 0" id="mf0020cb5fc"/>
      </defs>
      <g>
       <use style="stroke:#000000;stroke-linecap:butt;stroke-width:0.5;" x="29.3484375" xlink:href="#mf0020cb5fc" y="138.961536395"/>
      </g>
     </g>
    </g>
    <g id="ytick_17">
     <g id="line2d_49">
      <defs>
       <path d="
M0 0
L2 0" id="mf0020cb5fc"/>
      </defs>
      <g>
       <use style="stroke:#000000;stroke-linecap:butt;stroke-width:0.5;" x="29.3484375" xlink:href="#mf0020cb5fc" y="97.6441011867"/>
      </g>
     </g>
    </g>
    <g id="ytick_18">
     <g id="line2d_50">
      <defs>
       <path d="
M0 0
L2 0" id="mf0020cb5fc"/>
      </defs>
      <g>
       <use style="stroke:#000000;stroke-linecap:butt;stroke-width:0.5;" x="29.3484375" xlink:href="#mf0020cb5fc" y="76.9853835823"/>
      </g>
     </g>
    </g>
    <g id="ytick_19">
     <g id="line2d_51">
      <defs>
       <path d="
M0 0
L2 0" id="mf0020cb5fc"/>
      </defs>
      <g>
       <use style="stroke:#000000;stroke-linecap:butt;stroke-width:0.5;" x="29.3484375" xlink:href="#mf0020cb5fc" y="56.326665978"/>
      </g>
     </g>
    </g>
    <g id="ytick_20">
     <g id="line2d_52">
      <defs>
       <path d="
M0 0
L2 0" id="mf0020cb5fc"/>
      </defs>
      <g>
       <use style="stroke:#000000;stroke-linecap:butt;stroke-width:0.5;" x="29.3484375" xlink:href="#mf0020cb5fc" y="35.6679483736"/>
      </g>
     </g>
    </g>
   </g>
   <g id="patch_3">
    <path d="
M19.0308 15.0092
L555.546 15.0092" style="fill:none;stroke:#000000;stroke-width:0.8;"/>
   </g>
   <g id="patch_4">
    <path d="
M29.3484 413.28
L29.3484 7.2" style="fill:none;stroke:#000000;stroke-width:0.8;"/>
   </g>
  </g>
 </g>
 <defs>
  <clipPath id="pe376afc05f">
   <rect height="406.08" width="536.514823828" x="19.0308457659" y="7.2"/>
  </clipPath>
 </defs>
</svg>
