<?xml version="1.0" encoding="utf-8" standalone="no"?>
<!DOCTYPE svg PUBLIC "-//W3C//DTD SVG 1.1//EN"
  "http://www.w3.org/Graphics/SVG/1.1/DTD/svg11.dtd">
<!-- Created with matplotlib (http://matplotlib.sourceforge.net/) -->
<svg height="420pt" version="1.1" viewBox="0 0 562 420" width="562pt" xmlns="http://www.w3.org/2000/svg" xmlns:xlink="http://www.w3.org/1999/xlink">
 <defs>
  <style type="text/css">
*{stroke-linecap:square;stroke-linejoin:round;}
  </style>
 </defs>
 <g id="figure_1">
  <g id="patch_1">
   <path d="
M2.22045e-16 420.48
L562.746 420.48
L562.746 0
L2.22045e-16 0
z
" style="fill:#ffffff;"/>
  </g>
  <g id="axes_1">
   <g id="patch_2">
    <path d="
M19.0308 413.28
L555.546 413.28
L555.546 7.2
L19.0308 7.2
z
" style="fill:#ffffff;"/>
   </g>
   <g id="line2d_1">
    <path clip-path="url(#pe376afc05f)" d="
M29.3484 15.0092
L29.4035 15.0092
L29.4035 405.471
L29.4665 395.265
L29.5325 395.265
L29.6006 386.641
L29.67 386.641
L29.7408 378.66
L29.812 378.66
L29.8845 374.219
L29.9574 374.219
L29.9574 372.682
L30.0312 372.768
L30.1804 372.66
L30.2556 370.689
L30.3312 370.689
L30.4072 367.959
L30.4838 367.959
L30.5608 366.257
L30.638 366.257
L30.7152 365.118
L30.7931 365.118
L30.8711 363.576
L30.9495 363.576
L31.0276 362.139
L31.1065 362.139
L31.1863 361.436
L31.2651 361.436
L31.3445 361.106
L31.4244 361.106
L31.5043 360.509
L31.5846 360.509
L31.6643 359.996
L31.7452 359.996
L31.8259 359.365
L31.9062 359.365
L31.9872 358.789
L32.1495 358.705
L32.2312 357.945
L32.3131 357.945
L32.3949 357.188
L32.4768 357.188
L32.559 356.576
L32.8059 356.47
L32.888 356.213
L32.9703 356.213
L33.0531 355.821
L33.1361 355.821
L33.2193 355.428
L33.3024 355.428
L33.3858 355.078
L33.4688 355.078
L33.5529 354.725
L33.7202 354.649
L33.8033 354.423
L33.8867 354.423
L33.971 354.066
L34.0555 354.066
L34.1392 353.51
L34.2236 353.51
L34.308 353.039
L34.3924 353.039
L34.4771 352.461
L34.562 352.461
L34.6466 352.015
L34.7314 352.015
L34.816 351.704
L34.9006 351.704
L34.9856 351.41
L35.0706 351.41
L35.1556 350.89
L35.2413 350.89
L35.3263 350.299
L35.4115 350.299
L35.497 349.853
L35.5825 349.853
L35.6683 349.353
L35.7533 349.353
L35.8395 348.835
L35.9248 348.835
L36.0108 348.462
L36.0974 348.462
L36.1834 348.137
L36.2696 348.137
L36.3564 347.729
L36.4421 347.729
L36.5278 347.485
L36.787 347.388
L36.787 347.373
L36.8737 347.386
L37.3082 347.491
L37.3944 347.618
L37.5682 347.721
L37.6555 347.782
L37.9172 347.683
L37.9172 347.627
L38.0043 347.641
L38.7036 347.719
L38.791 347.803
L39.4954 347.733
L39.5831 347.587
L39.759 347.527
L39.848 347.364
L40.0245 347.271
L40.1129 347.039
L40.2013 347.039
L40.2902 346.807
L40.4672 346.71
L40.5556 346.544
L40.7321 346.457
L40.8221 346.256
L40.9997 346.169
L41.0884 346.004
L41.2661 345.911
L41.3551 345.661
L41.4441 345.661
L41.5333 345.393
L41.7119 345.292
L41.8011 345.087
L41.8894 345.087
L41.9789 344.881
L42.1573 344.802
L42.2469 344.613
L42.4265 344.512
L42.5162 344.31
L42.6946 344.221
L42.7842 344.043
L42.9639 343.934
L43.0526 343.724
L43.2324 343.615
L43.3219 343.441
L43.5017 343.361
L43.591 343.219
L43.7714 343.145
L43.8614 343.044
L44.131 342.956
L44.2218 342.81
L44.4024 342.746
L44.4923 342.614
L44.7632 342.518
L44.8527 342.422
L45.0326 342.358
L45.1235 342.224
L45.3036 342.157
L45.3953 342.031
L45.5765 341.957
L45.6673 341.807
L45.8484 341.715
L45.9388 341.536
L46.1203 341.461
L46.211 341.322
L46.3926 341.251
L46.4835 341.102
L46.6647 341.031
L46.756 340.887
L46.9384 340.806
L47.0301 340.661
L47.2127 340.585
L47.3043 340.421
L47.4866 340.337
L47.5777 340.155
L47.76 340.072
L47.8513 339.95
L48.2166 339.843
L48.3084 339.754
L48.5825 339.66
L48.6743 339.571
L48.949 339.492
L49.04 339.409
L49.8628 339.307
L49.9551 339.254
L50.323 339.151
L50.4139 339.111
L51.1517 339.003
L51.2437 338.97
L51.8901 338.868
L51.9826 338.798
L52.3519 338.71
L52.4436 338.654
L52.8125 338.554
L52.9049 338.505
L53.5531 338.407
L53.6465 338.373
L54.2966 338.271
L54.3895 338.223
L54.9462 338.134
L55.0394 338.079
L55.5043 337.984
L55.5971 337.954
L57.2767 337.844
L57.2767 337.842
L57.3709 337.842
L57.3709 337.842
L57.3709 337.844
L57.4649 337.844
L58.399 337.739
L58.4935 337.697
L59.1487 337.59
L59.2425 337.557
L59.8994 337.447
L59.9943 337.403
L60.4636 337.315
L60.5571 337.261
L60.9333 337.176
L61.0281 337.112
L61.4042 337.002
L61.4986 336.935
L61.8759 336.832
L61.9699 336.759
L62.3459 336.655
L62.4401 336.596
L62.8192 336.503
L62.913 336.44
L63.3856 336.339
L63.4799 336.287
L63.8564 336.198
L63.9513 336.134
L64.3289 336.035
L64.423 335.982
L64.8022 335.882
L64.8972 335.808
L65.1812 335.723
L65.2757 335.642
L65.6549 335.549
L65.749 335.493
L66.6975 335.396
L66.7924 335.363
L68.5988 335.254
L68.6943 335.221
L69.2669 335.119
L69.3625 335.096
L70.2216 334.993
L70.3172 334.958
L70.8899 334.864
L70.9859 334.826
L71.5577 334.721
L71.6528 334.67
L72.227 334.564
L72.3228 334.515
L72.8978 334.411
L72.9934 334.37
L73.6645 334.263
L73.76 334.231
L74.5281 334.121
L74.6245 334.1
L75.4873 333.995
L75.5839 333.969
L76.4485 333.863
L76.5453 333.84
L77.2188 333.742
L77.3152 333.71
L77.9899 333.605
L78.0863 333.574
L78.8559 333.465
L78.9528 333.436
L79.9169 333.328
L80.014 333.291
L80.5949 333.193
L80.6913 333.16
L81.3685 333.065
L81.4645 333.027
L82.1399 332.928
L82.2365 332.9
L83.3982 332.792
L83.4951 332.768
L84.3682 332.668
L84.4651 332.643
L85.4337 332.539
L85.5306 332.511
L86.2092 332.408
L86.3079 332.375
L87.0858 332.265
L87.1827 332.229
L87.8633 332.122
L87.9613 332.068
L88.4497 331.966
L88.547 331.919
L89.0341 331.827
L89.1318 331.781
L89.6179 331.689
L89.715 331.646
L90.2027 331.56
L90.3006 331.508
L90.7897 331.416
L90.8875 331.372
L91.4724 331.273
L91.5706 331.238
L92.1568 331.141
L92.2546 331.098
L92.8416 330.998
L92.9389 330.962
L93.6224 330.852
L93.7196 330.821
L94.9909 330.711
L95.0893 330.694
L96.0674 330.587
L96.1648 330.56
L97.0478 330.452
L97.1456 330.411
L97.7348 330.303
L97.8333 330.261
L98.4232 330.163
L98.5215 330.124
L99.2082 330.014
L99.3067 329.981
L100.289 329.876
L100.387 329.854
L102.456 329.744
L102.555 329.735
L103.734 329.629
L103.832 329.594
L104.523 329.486
L104.622 329.449
L105.311 329.346
L105.41 329.314
L106.2 329.216
L106.299 329.187
L107.189 329.078
L107.288 329.049
L108.179 328.946
L108.278 328.927
L109.86 328.818
L109.959 328.806
L112.237 328.702
L112.335 328.688
L114.618 328.583
L114.718 328.57
L116.008 328.465
L116.108 328.443
L117.101 328.341
L117.199 328.316
L118.094 328.214
L118.194 328.19
L119.786 328.08
L119.885 328.067
L122.275 327.958
L122.375 327.948
L124.474 327.842
L124.573 327.83
L126.671 327.722
L126.771 327.715
L129.873 327.605
L129.972 327.597
L132.782 327.492
L132.882 327.478
L135.994 327.368
L136.094 327.361
L146.77 327.253
L146.872 327.244
L148.386 327.14
L148.486 327.123
L150.005 327.017
L150.106 327.006
L151.924 326.899
L152.025 326.889
L153.641 326.782
L153.743 326.761
L154.961 326.652
L155.062 326.635
L156.784 326.527
L156.886 326.516
L159.218 326.41
L159.32 326.399
L162.163 326.291
L162.264 326.285
L164.906 326.177
L165.007 326.166
L167.351 326.056
L167.452 326.048
L170.205 325.941
L170.307 325.932
L174.485 325.821
L174.587 325.821
L184.097 325.71
L184.201 325.705
L187.888 325.595
L187.99 325.588
L191.991 325.478
L192.094 325.473
L194.767 325.362
L194.868 325.351
L196.513 325.246
L196.617 325.228
L198.159 325.118
L198.262 325.102
L199.599 324.996
L199.703 324.976
L201.041 324.87
L201.144 324.853
L202.482 324.743
L202.586 324.723
L203.72 324.616
L203.823 324.595
L204.956 324.485
L205.059 324.464
L206.296 324.355
L206.399 324.333
L207.636 324.222
L207.738 324.206
L209.392 324.097
L209.495 324.082
L211.042 323.977
L211.146 323.962
L212.59 323.857
L212.693 323.842
L214.244 323.732
L214.348 323.716
L215.9 323.605
L216.003 323.589
L217.658 323.481
L217.761 323.468
L219.415 323.363
L219.519 323.348
L221.281 323.238
L221.384 323.225
L223.143 323.12
L223.246 323.107
L224.9 322.997
L225.004 322.981
L226.558 322.87
L226.661 322.855
L228.425 322.747
L228.53 322.735
L231.331 322.625
L231.436 322.62
L243.078 322.51
L243.182 322.504
L248.703 322.393
L248.807 322.385
L252.145 322.276
L252.25 322.269
L255.902 322.16
L256.008 322.152
L258.72 322.042
L258.825 322.036
L262.692 321.926
L262.797 321.921
L265.83 321.811
L265.935 321.801
L268.76 321.692
L268.865 321.685
L272.007 321.575
L272.11 321.566
L275.677 321.458
L275.781 321.453
L280.919 321.342
L281.023 321.336
L284.594 321.226
L284.699 321.219
L287.745 321.109
L287.85 321.101
L290.483 320.992
L290.588 320.983
L293.222 320.875
L293.327 320.865
L296.274 320.756
L296.379 320.748
L299.011 320.638
L299.116 320.627
L301.539 320.517
L301.643 320.507
L304.173 320.397
L304.278 320.387
L306.807 320.28
L306.913 320.269
L309.446 320.161
L309.552 320.151
L312.296 320.041
L312.401 320.031
L315.142 319.92
L315.248 319.91
L318.315 319.799
L318.42 319.792
L323.177 319.683
L323.284 319.678
L327.833 319.569
L327.94 319.563
L332.069 319.455
L332.175 319.449
L336.199 319.338
L336.305 319.333
L340.12 319.225
L340.226 319.219
L346.061 319.109
L346.167 319.106
L353.497 318.996
L353.604 318.991
L361.797 318.881
L361.904 318.876
L368.821 318.766
L368.928 318.764
L402.241 318.875
L402.348 318.876
L509.308 318.765
L509.416 318.763
L523.727 318.652
L523.835 318.651
L532.409 318.542
L532.518 318.538
L537.839 318.429
L537.948 318.424
L542.186 318.315
L542.295 318.309
L545.228 318.23
L545.228 318.226" style="fill:none;stroke:#ff0000;stroke-width:0.5;"/>
   </g>
   <g id="matplotlib.axis_1">
    <g id="xtick_1">
     <g id="line2d_2">
      <defs>
       <path d="
M0 0
L0 -4" id="me27b94e650"/>
      </defs>
      <g>
       <use style="stroke:#000000;stroke-linecap:butt;stroke-width:0.5;" x="29.3484375" xlink:href="#me27b94e650" y="15.0092307692"/>
      </g>
     </g>
    </g>
    <g id="xtick_2">
     <g id="line2d_3">
      <defs>
       <path d="
M0 0
L0 -4" id="me27b94e650"/>
      </defs>
      <g>
       <use style="stroke:#000000;stroke-linecap:butt;stroke-width:0.5;" x="132.529818811" xlink:href="#me27b94e650" y="15.0092307692"/>
      </g>
     </g>
     <g id="text_1">
      <!-- 2e8 -->
      <defs>
       <path d="
M19.1875 8.29688
L53.6094 8.29688
L53.6094 0
L7.32812 0
L7.32812 8.29688
Q12.9375 14.1094 22.625 23.8906
Q32.3281 33.6875 34.8125 36.5312
Q39.5469 41.8438 41.4219 45.5312
Q43.3125 49.2188 43.3125 52.7812
Q43.3125 58.5938 39.2344 62.25
Q35.1562 65.9219 28.6094 65.9219
Q23.9688 65.9219 18.8125 64.3125
Q13.6719 62.7031 7.8125 59.4219
L7.8125 69.3906
Q13.7656 71.7812 18.9375 73
Q24.125 74.2188 28.4219 74.2188
Q39.75 74.2188 46.4844 68.5469
Q53.2188 62.8906 53.2188 53.4219
Q53.2188 48.9219 51.5312 44.8906
Q49.8594 40.875 45.4062 35.4062
Q44.1875 33.9844 37.6406 27.2188
Q31.1094 20.4531 19.1875 8.29688" id="BitstreamVeraSans-Roman-32"/>
       <path d="
M56.2031 29.5938
L56.2031 25.2031
L14.8906 25.2031
Q15.4844 15.9219 20.4844 11.0625
Q25.4844 6.20312 34.4219 6.20312
Q39.5938 6.20312 44.4531 7.46875
Q49.3125 8.73438 54.1094 11.2812
L54.1094 2.78125
Q49.2656 0.734375 44.1875 -0.34375
Q39.1094 -1.42188 33.8906 -1.42188
Q20.7969 -1.42188 13.1562 6.1875
Q5.51562 13.8125 5.51562 26.8125
Q5.51562 40.2344 12.7656 48.1094
Q20.0156 56 32.3281 56
Q43.3594 56 49.7812 48.8906
Q56.2031 41.7969 56.2031 29.5938
M47.2188 32.2344
Q47.125 39.5938 43.0938 43.9844
Q39.0625 48.3906 32.4219 48.3906
Q24.9062 48.3906 20.3906 44.1406
Q15.875 39.8906 15.1875 32.1719
z
" id="BitstreamVeraSans-Roman-65"/>
       <path d="
M31.7812 34.625
Q24.75 34.625 20.7188 30.8594
Q16.7031 27.0938 16.7031 20.5156
Q16.7031 13.9219 20.7188 10.1562
Q24.75 6.39062 31.7812 6.39062
Q38.8125 6.39062 42.8594 10.1719
Q46.9219 13.9688 46.9219 20.5156
Q46.9219 27.0938 42.8906 30.8594
Q38.875 34.625 31.7812 34.625
M21.9219 38.8125
Q15.5781 40.375 12.0312 44.7188
Q8.5 49.0781 8.5 55.3281
Q8.5 64.0625 14.7188 69.1406
Q20.9531 74.2188 31.7812 74.2188
Q42.6719 74.2188 48.875 69.1406
Q55.0781 64.0625 55.0781 55.3281
Q55.0781 49.0781 51.5312 44.7188
Q48 40.375 41.7031 38.8125
Q48.8281 37.1562 52.7969 32.3125
Q56.7812 27.4844 56.7812 20.5156
Q56.7812 9.90625 50.3125 4.23438
Q43.8438 -1.42188 31.7812 -1.42188
Q19.7344 -1.42188 13.25 4.23438
Q6.78125 9.90625 6.78125 20.5156
Q6.78125 27.4844 10.7812 32.3125
Q14.7969 37.1562 21.9219 38.8125
M18.3125 54.3906
Q18.3125 48.7344 21.8438 45.5625
Q25.3906 42.3906 31.7812 42.3906
Q38.1406 42.3906 41.7188 45.5625
Q45.3125 48.7344 45.3125 54.3906
Q45.3125 60.0625 41.7188 63.2344
Q38.1406 66.4062 31.7812 66.4062
Q25.3906 66.4062 21.8438 63.2344
Q18.3125 60.0625 18.3125 54.3906" id="BitstreamVeraSans-Roman-38"/>
      </defs>
      <g transform="translate(123.799350061 26.4311057692)scale(0.1 -0.1)">
       <use xlink:href="#BitstreamVeraSans-Roman-32"/>
       <use x="63.623046875" xlink:href="#BitstreamVeraSans-Roman-65"/>
       <use x="125.146484375" xlink:href="#BitstreamVeraSans-Roman-38"/>
      </g>
     </g>
    </g>
    <g id="xtick_3">
     <g id="line2d_4">
      <defs>
       <path d="
M0 0
L0 -4" id="me27b94e650"/>
      </defs>
      <g>
       <use style="stroke:#000000;stroke-linecap:butt;stroke-width:0.5;" x="235.711200122" xlink:href="#me27b94e650" y="15.0092307692"/>
      </g>
     </g>
     <g id="text_2">
      <!-- 4e8 -->
      <defs>
       <path d="
M37.7969 64.3125
L12.8906 25.3906
L37.7969 25.3906
z

M35.2031 72.9062
L47.6094 72.9062
L47.6094 25.3906
L58.0156 25.3906
L58.0156 17.1875
L47.6094 17.1875
L47.6094 0
L37.7969 0
L37.7969 17.1875
L4.89062 17.1875
L4.89062 26.7031
z
" id="BitstreamVeraSans-Roman-34"/>
      </defs>
      <g transform="translate(226.858856372 26.4311057692)scale(0.1 -0.1)">
       <use xlink:href="#BitstreamVeraSans-Roman-34"/>
       <use x="63.623046875" xlink:href="#BitstreamVeraSans-Roman-65"/>
       <use x="125.146484375" xlink:href="#BitstreamVeraSans-Roman-38"/>
      </g>
     </g>
    </g>
    <g id="xtick_4">
     <g id="line2d_5">
      <defs>
       <path d="
M0 0
L0 -4" id="me27b94e650"/>
      </defs>
      <g>
       <use style="stroke:#000000;stroke-linecap:butt;stroke-width:0.5;" x="338.892581433" xlink:href="#me27b94e650" y="15.0092307692"/>
      </g>
     </g>
     <g id="text_3">
      <!-- 6e8 -->
      <defs>
       <path d="
M33.0156 40.375
Q26.375 40.375 22.4844 35.8281
Q18.6094 31.2969 18.6094 23.3906
Q18.6094 15.5312 22.4844 10.9531
Q26.375 6.39062 33.0156 6.39062
Q39.6562 6.39062 43.5312 10.9531
Q47.4062 15.5312 47.4062 23.3906
Q47.4062 31.2969 43.5312 35.8281
Q39.6562 40.375 33.0156 40.375
M52.5938 71.2969
L52.5938 62.3125
Q48.875 64.0625 45.0938 64.9844
Q41.3125 65.9219 37.5938 65.9219
Q27.8281 65.9219 22.6719 59.3281
Q17.5312 52.7344 16.7969 39.4062
Q19.6719 43.6562 24.0156 45.9219
Q28.375 48.1875 33.5938 48.1875
Q44.5781 48.1875 50.9531 41.5156
Q57.3281 34.8594 57.3281 23.3906
Q57.3281 12.1562 50.6875 5.35938
Q44.0469 -1.42188 33.0156 -1.42188
Q20.3594 -1.42188 13.6719 8.26562
Q6.98438 17.9688 6.98438 36.375
Q6.98438 53.6562 15.1875 63.9375
Q23.3906 74.2188 37.2031 74.2188
Q40.9219 74.2188 44.7031 73.4844
Q48.4844 72.75 52.5938 71.2969" id="BitstreamVeraSans-Roman-36"/>
      </defs>
      <g transform="translate(330.144925183 26.4311057692)scale(0.1 -0.1)">
       <use xlink:href="#BitstreamVeraSans-Roman-36"/>
       <use x="63.623046875" xlink:href="#BitstreamVeraSans-Roman-65"/>
       <use x="125.146484375" xlink:href="#BitstreamVeraSans-Roman-38"/>
      </g>
     </g>
    </g>
    <g id="xtick_5">
     <g id="line2d_6">
      <defs>
       <path d="
M0 0
L0 -4" id="me27b94e650"/>
      </defs>
      <g>
       <use style="stroke:#000000;stroke-linecap:butt;stroke-width:0.5;" x="442.073962744" xlink:href="#me27b94e650" y="15.0092307692"/>
      </g>
     </g>
     <g id="text_4">
      <!-- 8e8 -->
      <g transform="translate(433.316150244 26.4311057692)scale(0.1 -0.1)">
       <use xlink:href="#BitstreamVeraSans-Roman-38"/>
       <use x="63.623046875" xlink:href="#BitstreamVeraSans-Roman-65"/>
       <use x="125.146484375" xlink:href="#BitstreamVeraSans-Roman-38"/>
      </g>
     </g>
    </g>
    <g id="xtick_6">
     <g id="line2d_7">
      <defs>
       <path d="
M0 0
L0 -4" id="me27b94e650"/>
      </defs>
      <g>
       <use style="stroke:#000000;stroke-linecap:butt;stroke-width:0.5;" x="545.255344055" xlink:href="#me27b94e650" y="15.0092307692"/>
      </g>
     </g>
     <g id="text_5">
      <!-- 1e9 -->
      <defs>
       <path d="
M10.9844 1.51562
L10.9844 10.5
Q14.7031 8.73438 18.5 7.8125
Q22.3125 6.89062 25.9844 6.89062
Q35.75 6.89062 40.8906 13.4531
Q46.0469 20.0156 46.7812 33.4062
Q43.9531 29.2031 39.5938 26.9531
Q35.25 24.7031 29.9844 24.7031
Q19.0469 24.7031 12.6719 31.3125
Q6.29688 37.9375 6.29688 49.4219
Q6.29688 60.6406 12.9375 67.4219
Q19.5781 74.2188 30.6094 74.2188
Q43.2656 74.2188 49.9219 64.5156
Q56.5938 54.8281 56.5938 36.375
Q56.5938 19.1406 48.4062 8.85938
Q40.2344 -1.42188 26.4219 -1.42188
Q22.7031 -1.42188 18.8906 -0.6875
Q15.0938 0.046875 10.9844 1.51562
M30.6094 32.4219
Q37.25 32.4219 41.125 36.9531
Q45.0156 41.5 45.0156 49.4219
Q45.0156 57.2812 41.125 61.8438
Q37.25 66.4062 30.6094 66.4062
Q23.9688 66.4062 20.0938 61.8438
Q16.2188 57.2812 16.2188 49.4219
Q16.2188 41.5 20.0938 36.9531
Q23.9688 32.4219 30.6094 32.4219" id="BitstreamVeraSans-Roman-39"/>
       <path d="
M12.4062 8.29688
L28.5156 8.29688
L28.5156 63.9219
L10.9844 60.4062
L10.9844 69.3906
L28.4219 72.9062
L38.2812 72.9062
L38.2812 8.29688
L54.3906 8.29688
L54.3906 0
L12.4062 0
z
" id="BitstreamVeraSans-Roman-31"/>
      </defs>
      <g transform="translate(536.717062805 26.4311057692)scale(0.1 -0.1)">
       <use xlink:href="#BitstreamVeraSans-Roman-31"/>
       <use x="63.623046875" xlink:href="#BitstreamVeraSans-Roman-65"/>
       <use x="125.146484375" xlink:href="#BitstreamVeraSans-Roman-39"/>
      </g>
     </g>
    </g>
    <g id="xtick_7">
     <g id="line2d_8">
      <defs>
       <path d="
M0 0
L0 -2" id="m4bc8f8d22d"/>
      </defs>
      <g>
       <use style="stroke:#000000;stroke-linecap:butt;stroke-width:0.5;" x="55.1437828278" xlink:href="#m4bc8f8d22d" y="15.0092307692"/>
      </g>
     </g>
    </g>
    <g id="xtick_8">
     <g id="line2d_9">
      <defs>
       <path d="
M0 0
L0 -2" id="m4bc8f8d22d"/>
      </defs>
      <g>
       <use style="stroke:#000000;stroke-linecap:butt;stroke-width:0.5;" x="80.9391281555" xlink:href="#m4bc8f8d22d" y="15.0092307692"/>
      </g>
     </g>
    </g>
    <g id="xtick_9">
     <g id="line2d_10">
      <defs>
       <path d="
M0 0
L0 -2" id="m4bc8f8d22d"/>
      </defs>
      <g>
       <use style="stroke:#000000;stroke-linecap:butt;stroke-width:0.5;" x="106.734473483" xlink:href="#m4bc8f8d22d" y="15.0092307692"/>
      </g>
     </g>
    </g>
    <g id="xtick_10">
     <g id="line2d_11">
      <defs>
       <path d="
M0 0
L0 -2" id="m4bc8f8d22d"/>
      </defs>
      <g>
       <use style="stroke:#000000;stroke-linecap:butt;stroke-width:0.5;" x="158.325164139" xlink:href="#m4bc8f8d22d" y="15.0092307692"/>
      </g>
     </g>
    </g>
    <g id="xtick_11">
     <g id="line2d_12">
      <defs>
       <path d="
M0 0
L0 -2" id="m4bc8f8d22d"/>
      </defs>
      <g>
       <use style="stroke:#000000;stroke-linecap:butt;stroke-width:0.5;" x="184.120509467" xlink:href="#m4bc8f8d22d" y="15.0092307692"/>
      </g>
     </g>
    </g>
    <g id="xtick_12">
     <g id="line2d_13">
      <defs>
       <path d="
M0 0
L0 -2" id="m4bc8f8d22d"/>
      </defs>
      <g>
       <use style="stroke:#000000;stroke-linecap:butt;stroke-width:0.5;" x="209.915854794" xlink:href="#m4bc8f8d22d" y="15.0092307692"/>
      </g>
     </g>
    </g>
    <g id="xtick_13">
     <g id="line2d_14">
      <defs>
       <path d="
M0 0
L0 -2" id="m4bc8f8d22d"/>
      </defs>
      <g>
       <use style="stroke:#000000;stroke-linecap:butt;stroke-width:0.5;" x="261.50654545" xlink:href="#m4bc8f8d22d" y="15.0092307692"/>
      </g>
     </g>
    </g>
    <g id="xtick_14">
     <g id="line2d_15">
      <defs>
       <path d="
M0 0
L0 -2" id="m4bc8f8d22d"/>
      </defs>
      <g>
       <use style="stroke:#000000;stroke-linecap:butt;stroke-width:0.5;" x="287.301890778" xlink:href="#m4bc8f8d22d" y="15.0092307692"/>
      </g>
     </g>
    </g>
    <g id="xtick_15">
     <g id="line2d_16">
      <defs>
       <path d="
M0 0
L0 -2" id="m4bc8f8d22d"/>
      </defs>
      <g>
       <use style="stroke:#000000;stroke-linecap:butt;stroke-width:0.5;" x="313.097236105" xlink:href="#m4bc8f8d22d" y="15.0092307692"/>
      </g>
     </g>
    </g>
    <g id="xtick_16">
     <g id="line2d_17">
      <defs>
       <path d="
M0 0
L0 -2" id="m4bc8f8d22d"/>
      </defs>
      <g>
       <use style="stroke:#000000;stroke-linecap:butt;stroke-width:0.5;" x="364.687926761" xlink:href="#m4bc8f8d22d" y="15.0092307692"/>
      </g>
     </g>
    </g>
    <g id="xtick_17">
     <g id="line2d_18">
      <defs>
       <path d="
M0 0
L0 -2" id="m4bc8f8d22d"/>
      </defs>
      <g>
       <use style="stroke:#000000;stroke-linecap:butt;stroke-width:0.5;" x="390.483272089" xlink:href="#m4bc8f8d22d" y="15.0092307692"/>
      </g>
     </g>
    </g>
    <g id="xtick_18">
     <g id="line2d_19">
      <defs>
       <path d="
M0 0
L0 -2" id="m4bc8f8d22d"/>
      </defs>
      <g>
       <use style="stroke:#000000;stroke-linecap:butt;stroke-width:0.5;" x="416.278617417" xlink:href="#m4bc8f8d22d" y="15.0092307692"/>
      </g>
     </g>
    </g>
    <g id="xtick_19">
     <g id="line2d_20">
      <defs>
       <path d="
M0 0
L0 -2" id="m4bc8f8d22d"/>
      </defs>
      <g>
       <use style="stroke:#000000;stroke-linecap:butt;stroke-width:0.5;" x="467.869308072" xlink:href="#m4bc8f8d22d" y="15.0092307692"/>
      </g>
     </g>
    </g>
    <g id="xtick_20">
     <g id="line2d_21">
      <defs>
       <path d="
M0 0
L0 -2" id="m4bc8f8d22d"/>
      </defs>
      <g>
       <use style="stroke:#000000;stroke-linecap:butt;stroke-width:0.5;" x="493.6646534" xlink:href="#m4bc8f8d22d" y="15.0092307692"/>
      </g>
     </g>
    </g>
    <g id="xtick_21">
     <g id="line2d_22">
      <defs>
       <path d="
M0 0
L0 -2" id="m4bc8f8d22d"/>
      </defs>
      <g>
       <use style="stroke:#000000;stroke-linecap:butt;stroke-width:0.5;" x="519.459998728" xlink:href="#m4bc8f8d22d" y="15.0092307692"/>
      </g>
     </g>
    </g>
   </g>
   <g id="matplotlib.axis_2">
    <g id="ytick_1">
     <g id="line2d_23">
      <defs>
       <path d="
M0 0
L4 0" id="me869f5826e"/>
      </defs>
      <g>
       <use style="stroke:#000000;stroke-linecap:butt;stroke-width:0.5;" x="29.3484375" xlink:href="#me869f5826e" y="400.382315598"/>
      </g>
     </g>
     <g id="text_6">
      <!-- -2.5 -->
      <defs>
       <path d="
M10.6875 12.4062
L21 12.4062
L21 0
L10.6875 0
z
" id="BitstreamVeraSans-Roman-2e"/>
       <path d="
M4.89062 31.3906
L31.2031 31.3906
L31.2031 23.3906
L4.89062 23.3906
z
" id="BitstreamVeraSans-Roman-2d"/>
       <path d="
M10.7969 72.9062
L49.5156 72.9062
L49.5156 64.5938
L19.8281 64.5938
L19.8281 46.7344
Q21.9688 47.4688 24.1094 47.8281
Q26.2656 48.1875 28.4219 48.1875
Q40.625 48.1875 47.75 41.5
Q54.8906 34.8125 54.8906 23.3906
Q54.8906 11.625 47.5625 5.09375
Q40.2344 -1.42188 26.9062 -1.42188
Q22.3125 -1.42188 17.5469 -0.640625
Q12.7969 0.140625 7.71875 1.70312
L7.71875 11.625
Q12.1094 9.23438 16.7969 8.0625
Q21.4844 6.89062 26.7031 6.89062
Q35.1562 6.89062 40.0781 11.3281
Q45.0156 15.7656 45.0156 23.3906
Q45.0156 31 40.0781 35.4375
Q35.1562 39.8906 26.7031 39.8906
Q22.75 39.8906 18.8125 39.0156
Q14.8906 38.1406 10.7969 36.2812
z
" id="BitstreamVeraSans-Roman-35"/>
      </defs>
      <g transform="translate(7.2 404.022159348)scale(0.1 -0.1)">
       <use xlink:href="#BitstreamVeraSans-Roman-2d"/>
       <use x="36.083984375" xlink:href="#BitstreamVeraSans-Roman-32"/>
       <use x="99.70703125" xlink:href="#BitstreamVeraSans-Roman-2e"/>
       <use x="131.494140625" xlink:href="#BitstreamVeraSans-Roman-35"/>
      </g>
     </g>
    </g>
    <g id="ytick_2">
     <g id="line2d_24">
      <defs>
       <path d="
M0 0
L4 0" id="me869f5826e"/>
      </defs>
      <g>
       <use style="stroke:#000000;stroke-linecap:butt;stroke-width:0.5;" x="29.3484375" xlink:href="#me869f5826e" y="323.307698633"/>
      </g>
     </g>
     <g id="text_7">
      <!-- -2 -->
      <g transform="translate(16.86875 327.018636133)scale(0.1 -0.1)">
       <use xlink:href="#BitstreamVeraSans-Roman-2d"/>
       <use x="36.083984375" xlink:href="#BitstreamVeraSans-Roman-32"/>
      </g>
     </g>
    </g>
    <g id="ytick_3">
     <g id="line2d_25">
      <defs>
       <path d="
M0 0
L4 0" id="me869f5826e"/>
      </defs>
      <g>
       <use style="stroke:#000000;stroke-linecap:butt;stroke-width:0.5;" x="29.3484375" xlink:href="#me869f5826e" y="246.233081667"/>
      </g>
     </g>
     <g id="text_8">
      <!-- -1.5 -->
      <g transform="translate(7.2 249.807300417)scale(0.1 -0.1)">
       <use xlink:href="#BitstreamVeraSans-Roman-2d"/>
       <use x="36.083984375" xlink:href="#BitstreamVeraSans-Roman-31"/>
       <use x="99.70703125" xlink:href="#BitstreamVeraSans-Roman-2e"/>
       <use x="131.494140625" xlink:href="#BitstreamVeraSans-Roman-35"/>
      </g>
     </g>
    </g>
    <g id="ytick_4">
     <g id="line2d_26">
      <defs>
       <path d="
M0 0
L4 0" id="me869f5826e"/>
      </defs>
      <g>
       <use style="stroke:#000000;stroke-linecap:butt;stroke-width:0.5;" x="29.3484375" xlink:href="#me869f5826e" y="169.158464701"/>
      </g>
     </g>
     <g id="text_9">
      <!-- -1 -->
      <g transform="translate(16.790625 172.803777201)scale(0.1 -0.1)">
       <use xlink:href="#BitstreamVeraSans-Roman-2d"/>
       <use x="36.083984375" xlink:href="#BitstreamVeraSans-Roman-31"/>
      </g>
     </g>
    </g>
    <g id="ytick_5">
     <g id="line2d_27">
      <defs>
       <path d="
M0 0
L4 0" id="me869f5826e"/>
      </defs>
      <g>
       <use style="stroke:#000000;stroke-linecap:butt;stroke-width:0.5;" x="29.3484375" xlink:href="#me869f5826e" y="92.0838477351"/>
      </g>
     </g>
     <g id="text_10">
      <!-- -0.5 -->
      <defs>
       <path d="
M31.7812 66.4062
Q24.1719 66.4062 20.3281 58.9062
Q16.5 51.4219 16.5 36.375
Q16.5 21.3906 20.3281 13.8906
Q24.1719 6.39062 31.7812 6.39062
Q39.4531 6.39062 43.2812 13.8906
Q47.125 21.3906 47.125 36.375
Q47.125 51.4219 43.2812 58.9062
Q39.4531 66.4062 31.7812 66.4062
M31.7812 74.2188
Q44.0469 74.2188 50.5156 64.5156
Q56.9844 54.8281 56.9844 36.375
Q56.9844 17.9688 50.5156 8.26562
Q44.0469 -1.42188 31.7812 -1.42188
Q19.5312 -1.42188 13.0625 8.26562
Q6.59375 17.9688 6.59375 36.375
Q6.59375 54.8281 13.0625 64.5156
Q19.5312 74.2188 31.7812 74.2188" id="BitstreamVeraSans-Roman-30"/>
      </defs>
      <g transform="translate(7.2 95.7236914851)scale(0.1 -0.1)">
       <use xlink:href="#BitstreamVeraSans-Roman-2d"/>
       <use x="36.083984375" xlink:href="#BitstreamVeraSans-Roman-30"/>
       <use x="99.70703125" xlink:href="#BitstreamVeraSans-Roman-2e"/>
       <use x="131.494140625" xlink:href="#BitstreamVeraSans-Roman-35"/>
      </g>
     </g>
    </g>
    <g id="ytick_6">
     <g id="line2d_28">
      <defs>
       <path d="
M0 0
L4 0" id="me869f5826e"/>
      </defs>
      <g>
       <use style="stroke:#000000;stroke-linecap:butt;stroke-width:0.5;" x="29.3484375" xlink:href="#me869f5826e" y="15.0092307692"/>
      </g>
     </g>
    </g>
    <g id="ytick_7">
     <g id="line2d_29">
      <defs>
       <path d="
M0 0
L2 0" id="mf1d37f288d"/>
      </defs>
      <g>
       <use style="stroke:#000000;stroke-linecap:butt;stroke-width:0.5;" x="29.3484375" xlink:href="#mf1d37f288d" y="384.967392205"/>
      </g>
     </g>
    </g>
    <g id="ytick_8">
     <g id="line2d_30">
      <defs>
       <path d="
M0 0
L2 0" id="mf1d37f288d"/>
      </defs>
      <g>
       <use style="stroke:#000000;stroke-linecap:butt;stroke-width:0.5;" x="29.3484375" xlink:href="#mf1d37f288d" y="369.552468812"/>
      </g>
     </g>
    </g>
    <g id="ytick_9">
     <g id="line2d_31">
      <defs>
       <path d="
M0 0
L2 0" id="mf1d37f288d"/>
      </defs>
      <g>
       <use style="stroke:#000000;stroke-linecap:butt;stroke-width:0.5;" x="29.3484375" xlink:href="#mf1d37f288d" y="354.137545419"/>
      </g>
     </g>
    </g>
    <g id="ytick_10">
     <g id="line2d_32">
      <defs>
       <path d="
M0 0
L2 0" id="mf1d37f288d"/>
      </defs>
      <g>
       <use style="stroke:#000000;stroke-linecap:butt;stroke-width:0.5;" x="29.3484375" xlink:href="#mf1d37f288d" y="338.722622026"/>
      </g>
     </g>
    </g>
    <g id="ytick_11">
     <g id="line2d_33">
      <defs>
       <path d="
M0 0
L2 0" id="mf1d37f288d"/>
      </defs>
      <g>
       <use style="stroke:#000000;stroke-linecap:butt;stroke-width:0.5;" x="29.3484375" xlink:href="#mf1d37f288d" y="307.892775239"/>
      </g>
     </g>
    </g>
    <g id="ytick_12">
     <g id="line2d_34">
      <defs>
       <path d="
M0 0
L2 0" id="mf1d37f288d"/>
      </defs>
      <g>
       <use style="stroke:#000000;stroke-linecap:butt;stroke-width:0.5;" x="29.3484375" xlink:href="#mf1d37f288d" y="292.477851846"/>
      </g>
     </g>
    </g>
    <g id="ytick_13">
     <g id="line2d_35">
      <defs>
       <path d="
M0 0
L2 0" id="mf1d37f288d"/>
      </defs>
      <g>
       <use style="stroke:#000000;stroke-linecap:butt;stroke-width:0.5;" x="29.3484375" xlink:href="#mf1d37f288d" y="277.062928453"/>
      </g>
     </g>
    </g>
    <g id="ytick_14">
     <g id="line2d_36">
      <defs>
       <path d="
M0 0
L2 0" id="mf1d37f288d"/>
      </defs>
      <g>
       <use style="stroke:#000000;stroke-linecap:butt;stroke-width:0.5;" x="29.3484375" xlink:href="#mf1d37f288d" y="261.64800506"/>
      </g>
     </g>
    </g>
    <g id="ytick_15">
     <g id="line2d_37">
      <defs>
       <path d="
M0 0
L2 0" id="mf1d37f288d"/>
      </defs>
      <g>
       <use style="stroke:#000000;stroke-linecap:butt;stroke-width:0.5;" x="29.3484375" xlink:href="#mf1d37f288d" y="246.233081667"/>
      </g>
     </g>
    </g>
    <g id="ytick_16">
     <g id="line2d_38">
      <defs>
       <path d="
M0 0
L2 0" id="mf1d37f288d"/>
      </defs>
      <g>
       <use style="stroke:#000000;stroke-linecap:butt;stroke-width:0.5;" x="29.3484375" xlink:href="#mf1d37f288d" y="230.818158274"/>
      </g>
     </g>
    </g>
    <g id="ytick_17">
     <g id="line2d_39">
      <defs>
       <path d="
M0 0
L2 0" id="mf1d37f288d"/>
      </defs>
      <g>
       <use style="stroke:#000000;stroke-linecap:butt;stroke-width:0.5;" x="29.3484375" xlink:href="#mf1d37f288d" y="215.40323488"/>
      </g>
     </g>
    </g>
    <g id="ytick_18">
     <g id="line2d_40">
      <defs>
       <path d="
M0 0
L2 0" id="mf1d37f288d"/>
      </defs>
      <g>
       <use style="stroke:#000000;stroke-linecap:butt;stroke-width:0.5;" x="29.3484375" xlink:href="#mf1d37f288d" y="199.988311487"/>
      </g>
     </g>
    </g>
    <g id="ytick_19">
     <g id="line2d_41">
      <defs>
       <path d="
M0 0
L2 0" id="mf1d37f288d"/>
      </defs>
      <g>
       <use style="stroke:#000000;stroke-linecap:butt;stroke-width:0.5;" x="29.3484375" xlink:href="#mf1d37f288d" y="184.573388094"/>
      </g>
     </g>
    </g>
    <g id="ytick_20">
     <g id="line2d_42">
      <defs>
       <path d="
M0 0
L2 0" id="mf1d37f288d"/>
      </defs>
      <g>
       <use style="stroke:#000000;stroke-linecap:butt;stroke-width:0.5;" x="29.3484375" xlink:href="#mf1d37f288d" y="169.158464701"/>
      </g>
     </g>
    </g>
    <g id="ytick_21">
     <g id="line2d_43">
      <defs>
       <path d="
M0 0
L2 0" id="mf1d37f288d"/>
      </defs>
      <g>
       <use style="stroke:#000000;stroke-linecap:butt;stroke-width:0.5;" x="29.3484375" xlink:href="#mf1d37f288d" y="153.743541308"/>
      </g>
     </g>
    </g>
    <g id="ytick_22">
     <g id="line2d_44">
      <defs>
       <path d="
M0 0
L2 0" id="mf1d37f288d"/>
      </defs>
      <g>
       <use style="stroke:#000000;stroke-linecap:butt;stroke-width:0.5;" x="29.3484375" xlink:href="#mf1d37f288d" y="138.328617915"/>
      </g>
     </g>
    </g>
    <g id="ytick_23">
     <g id="line2d_45">
      <defs>
       <path d="
M0 0
L2 0" id="mf1d37f288d"/>
      </defs>
      <g>
       <use style="stroke:#000000;stroke-linecap:butt;stroke-width:0.5;" x="29.3484375" xlink:href="#mf1d37f288d" y="122.913694521"/>
      </g>
     </g>
    </g>
    <g id="ytick_24">
     <g id="line2d_46">
      <defs>
       <path d="
M0 0
L2 0" id="mf1d37f288d"/>
      </defs>
      <g>
       <use style="stroke:#000000;stroke-linecap:butt;stroke-width:0.5;" x="29.3484375" xlink:href="#mf1d37f288d" y="107.498771128"/>
      </g>
     </g>
    </g>
    <g id="ytick_25">
     <g id="line2d_47">
      <defs>
       <path d="
M0 0
L2 0" id="mf1d37f288d"/>
      </defs>
      <g>
       <use style="stroke:#000000;stroke-linecap:butt;stroke-width:0.5;" x="29.3484375" xlink:href="#mf1d37f288d" y="92.0838477351"/>
      </g>
     </g>
    </g>
    <g id="ytick_26">
     <g id="line2d_48">
      <defs>
       <path d="
M0 0
L2 0" id="mf1d37f288d"/>
      </defs>
      <g>
       <use style="stroke:#000000;stroke-linecap:butt;stroke-width:0.5;" x="29.3484375" xlink:href="#mf1d37f288d" y="76.6689243419"/>
      </g>
     </g>
    </g>
    <g id="ytick_27">
     <g id="line2d_49">
      <defs>
       <path d="
M0 0
L2 0" id="mf1d37f288d"/>
      </defs>
      <g>
       <use style="stroke:#000000;stroke-linecap:butt;stroke-width:0.5;" x="29.3484375" xlink:href="#mf1d37f288d" y="61.2540009487"/>
      </g>
     </g>
    </g>
    <g id="ytick_28">
     <g id="line2d_50">
      <defs>
       <path d="
M0 0
L2 0" id="mf1d37f288d"/>
      </defs>
      <g>
       <use style="stroke:#000000;stroke-linecap:butt;stroke-width:0.5;" x="29.3484375" xlink:href="#mf1d37f288d" y="45.8390775556"/>
      </g>
     </g>
    </g>
    <g id="ytick_29">
     <g id="line2d_51">
      <defs>
       <path d="
M0 0
L2 0" id="mf1d37f288d"/>
      </defs>
      <g>
       <use style="stroke:#000000;stroke-linecap:butt;stroke-width:0.5;" x="29.3484375" xlink:href="#mf1d37f288d" y="30.4241541624"/>
      </g>
     </g>
    </g>
   </g>
   <g id="patch_3">
    <path d="
M19.0308 15.0092
L555.546 15.0092" style="fill:none;stroke:#000000;stroke-width:0.8;"/>
   </g>
   <g id="patch_4">
    <path d="
M29.3484 413.28
L29.3484 7.2" style="fill:none;stroke:#000000;stroke-width:0.8;"/>
   </g>
  </g>
 </g>
 <defs>
  <clipPath id="pe376afc05f">
   <rect height="406.08" width="536.514823828" x="19.0308457659" y="7.2"/>
  </clipPath>
 </defs>
</svg>
