<?xml version="1.0" encoding="utf-8" standalone="no"?>
<!DOCTYPE svg PUBLIC "-//W3C//DTD SVG 1.1//EN"
  "http://www.w3.org/Graphics/SVG/1.1/DTD/svg11.dtd">
<!-- Created with matplotlib (http://matplotlib.sourceforge.net/) -->
<svg height="420pt" version="1.1" viewBox="0 0 562 420" width="562pt" xmlns="http://www.w3.org/2000/svg" xmlns:xlink="http://www.w3.org/1999/xlink">
 <defs>
  <style type="text/css">
*{stroke-linecap:square;stroke-linejoin:round;}
  </style>
 </defs>
 <g id="figure_1">
  <g id="patch_1">
   <path d="
M2.22045e-16 420.48
L562.746 420.48
L562.746 0
L2.22045e-16 0
z
" style="fill:#ffffff;"/>
  </g>
  <g id="axes_1">
   <g id="patch_2">
    <path d="
M19.0308 413.28
L555.546 413.28
L555.546 7.2
L19.0308 7.2
z
" style="fill:#ffffff;"/>
   </g>
   <g id="line2d_1">
    <path clip-path="url(#pe376afc05f)" d="
M29.3484 15.0092
L29.4035 15.0092
L29.4035 405.471
L29.4665 398.761
L29.5325 398.761
L29.6006 389.778
L29.67 389.778
L29.7408 394.465
L29.812 394.465
L29.812 395.675
L29.8845 394.844
L29.9574 394.844
L30.0312 391.344
L30.1054 391.344
L30.1804 387.46
L30.2556 387.46
L30.3312 383.958
L30.4072 383.958
L30.4838 380.473
L30.5608 380.473
L30.638 377.009
L30.7152 377.009
L30.7931 373.603
L30.8711 373.603
L30.9495 370.351
L31.0276 370.351
L31.1065 366.52
L31.1863 366.52
L31.2651 363.555
L31.3445 363.555
L31.4244 361.188
L31.5043 361.188
L31.5846 358.558
L31.6643 358.558
L31.7452 356.624
L31.8259 356.624
L31.9062 354.849
L31.9872 354.849
L32.0682 353.155
L32.1495 353.155
L32.2312 351.636
L32.3131 351.636
L32.3949 350.292
L32.4768 350.292
L32.559 349.031
L32.6409 349.031
L32.7235 347.447
L32.8059 347.447
L32.888 345.813
L32.9703 345.813
L33.0531 344.607
L33.1361 344.607
L33.2193 343.562
L33.3024 343.562
L33.3858 342.784
L33.4688 342.784
L33.5529 342.114
L33.6361 342.114
L33.7202 341.343
L33.8033 341.343
L33.8867 340.535
L33.971 340.535
L34.0555 339.756
L34.1392 339.756
L34.2236 338.961
L34.308 338.961
L34.3924 337.947
L34.4771 337.947
L34.562 336.964
L34.6466 336.964
L34.7314 336.023
L34.816 336.023
L34.9006 335.126
L34.9856 335.126
L35.0706 334.346
L35.1556 334.346
L35.2413 333.6
L35.3263 333.6
L35.4115 332.942
L35.497 332.942
L35.5825 332.312
L35.6683 332.312
L35.7533 331.613
L35.8395 331.613
L35.9248 330.902
L36.0108 330.902
L36.0974 330.089
L36.1834 330.089
L36.2696 329.419
L36.3564 329.419
L36.4421 328.756
L36.5278 328.756
L36.6147 328.16
L36.7012 328.16
L36.787 327.5
L36.8737 327.5
L36.9605 326.811
L37.0472 326.811
L37.1341 326.111
L37.2209 326.111
L37.3082 325.353
L37.3944 325.353
L37.4815 324.631
L37.5682 324.631
L37.6555 323.978
L37.7424 323.978
L37.8299 323.369
L37.9172 323.369
L38.0043 322.68
L38.0915 322.68
L38.1783 321.971
L38.2664 321.971
L38.3531 321.21
L38.4402 321.21
L38.528 320.494
L38.6154 320.494
L38.7036 319.815
L38.791 319.815
L38.8791 319.133
L38.9669 319.133
L39.0548 318.416
L39.1427 318.416
L39.2308 317.695
L39.3188 317.695
L39.4068 316.92
L39.4954 316.92
L39.5831 316.161
L39.671 316.161
L39.759 315.398
L39.848 315.398
L39.9363 314.66
L40.0245 314.66
L40.1129 313.993
L40.2013 313.993
L40.2902 313.367
L40.3786 313.367
L40.4672 312.759
L40.5556 312.759
L40.644 312.233
L40.7321 312.233
L40.8221 311.807
L40.9111 311.807
L40.9997 311.454
L41.0884 311.454
L41.1772 311.141
L41.2661 311.141
L41.3551 310.811
L41.4441 310.811
L41.5333 310.483
L41.6226 310.483
L41.7119 310.165
L41.8011 310.165
L41.8894 309.849
L41.9789 309.849
L42.0683 309.533
L42.1573 309.533
L42.2469 309.247
L42.3364 309.247
L42.4265 308.985
L42.5162 308.985
L42.6057 308.74
L42.6946 308.74
L42.7842 308.49
L42.874 308.49
L42.9639 308.265
L43.1427 308.166
L43.2324 307.968
L43.3219 307.968
L43.4118 307.755
L43.591 307.673
L43.6813 307.483
L43.8614 307.388
L43.9509 307.19
L44.131 307.101
L44.2218 306.948
L44.4024 306.878
L44.4923 306.75
L44.673 306.686
L44.7632 306.581
L44.9425 306.515
L45.0326 306.355
L45.2134 306.26
L45.3036 306.06
L45.4859 305.965
L45.5765 305.774
L45.758 305.679
L45.8484 305.469
L45.9388 305.469
L46.0299 305.236
L46.211 305.133
L46.302 304.915
L46.4835 304.807
L46.5736 304.59
L46.6647 304.59
L46.756 304.36
L46.9384 304.258
L47.0301 304.061
L47.2127 303.972
L47.3043 303.818
L47.4866 303.754
L47.5777 303.65
L47.8513 303.555
L47.9425 303.448
L48.125 303.392
L48.2166 303.251
L48.4004 303.173
L48.491 303.022
L48.6743 302.943
L48.7654 302.784
L48.949 302.7
L49.04 302.539
L49.2223 302.463
L49.3147 302.295
L49.4973 302.208
L49.5886 302.041
L49.8628 301.934
L49.9551 301.851
L51.7974 301.76
L51.8901 301.711
L52.5366 301.616
L52.6286 301.568
L52.9979 301.463
L53.0898 301.369
L53.2757 301.314
L53.3684 301.193
L53.6465 301.088
L53.7387 300.994
L54.0177 300.914
L54.1105 300.835
L54.3895 300.743
L54.4828 300.658
L54.7615 300.568
L54.854 300.479
L55.132 300.394
L55.2252 300.299
L55.5043 300.197
L55.5971 300.09
L55.7842 300.033
L55.8768 299.922
L56.0633 299.865
L56.156 299.758
L56.4363 299.66
L56.5295 299.568
L56.809 299.478
L56.9026 299.38
L57.1834 299.27
L57.2767 299.147
L57.4649 299.089
L57.5575 298.974
L57.7452 298.915
L57.8385 298.796
L58.1187 298.689
L58.2128 298.586
L58.399 298.526
L58.4935 298.397
L58.6798 298.33
L58.7738 298.186
L58.9602 298.113
L59.0543 297.984
L59.2425 297.925
L59.3365 297.813
L59.6179 297.707
L59.711 297.606
L59.9943 297.526
L60.0879 297.441
L60.3698 297.365
L60.4636 297.288
L60.8384 297.196
L60.9333 297.122
L61.3106 297.029
L61.4042 296.979
L61.7814 296.886
L61.8759 296.821
L62.1582 296.75
L62.2525 296.666
L62.5346 296.585
L62.629 296.51
L62.913 296.429
L63.0079 296.338
L63.2915 296.244
L63.3856 296.149
L63.6674 296.055
L63.7616 295.961
L64.0457 295.866
L64.1398 295.774
L64.423 295.677
L64.518 295.574
L64.8022 295.464
L64.8972 295.353
L65.1812 295.249
L65.2757 295.148
L65.5603 295.051
L65.6549 294.951
L65.9398 294.851
L66.0345 294.761
L66.3182 294.663
L66.414 294.561
L66.6975 294.471
L66.7924 294.38
L67.0775 294.278
L67.1728 294.179
L67.4577 294.077
L67.553 293.979
L67.8389 293.886
L67.934 293.794
L68.2191 293.699
L68.3137 293.604
L68.5988 293.502
L68.6943 293.397
L68.8856 293.339
L68.9815 293.224
L69.2669 293.117
L69.3625 293.008
L69.6484 292.909
L69.7443 292.814
L70.031 292.716
L70.1264 292.622
L70.4127 292.537
L70.5082 292.457
L70.8899 292.355
L70.9859 292.289
L71.3659 292.193
L71.4616 292.125
L71.8447 292.023
L71.9403 291.953
L72.3228 291.861
L72.419 291.797
L72.8021 291.686
L72.8978 291.601
L73.1853 291.518
L73.2817 291.436
L73.5692 291.359
L73.6645 291.285
L74.0476 291.188
L74.1439 291.128
L74.6245 291.031
L74.7201 290.979
L75.1997 290.89
L75.2956 290.84
L75.8728 290.729
L75.9684 290.693
L76.5453 290.596
L76.6414 290.565
L77.4122 290.46
L77.5084 290.425
L78.1827 290.324
L78.2784 290.297
L79.1464 290.191
L79.2416 290.163
L80.7875 290.053
L80.8842 290.042
L82.527 289.935
L82.6246 289.918
L84.2713 289.807
L84.3682 289.791
L86.8915 289.681
L86.9889 289.673
L89.228 289.565
L89.3256 289.543
L90.2027 289.432
L90.3006 289.407
L91.3743 289.298
L91.4724 289.276
L92.2546 289.174
L92.3518 289.144
L93.6224 289.042
L93.7196 289.023
L95.0893 288.916
L95.1873 288.905
L104.326 288.799
L104.425 288.786
L106.003 288.679
L106.101 288.662
L107.288 288.554
L107.387 288.532
L108.376 288.423
L108.475 288.399
L109.464 288.288
L109.564 288.26
L110.453 288.158
L110.552 288.133
L111.544 288.022
L111.643 287.998
L112.634 287.895
L112.733 287.876
L113.823 287.774
L113.922 287.753
L115.313 287.644
L115.413 287.627
L116.704 287.521
L116.802 287.505
L125.371 287.615
L125.472 287.619
L128.873 287.729
L128.974 287.734
L131.78 287.843
L131.88 287.856
L133.886 287.964
L133.986 287.974
L145.255 287.865
L145.357 287.852
L146.77 287.745
L146.872 287.729
L148.386 287.62
L148.486 287.604
L150.106 287.499
L150.207 287.478
L151.217 287.373
L151.318 287.35
L152.529 287.24
L152.631 287.222
L153.946 287.116
L154.048 287.101
L155.469 286.994
L155.569 286.976
L156.987 286.866
L157.089 286.851
L158.61 286.743
L158.711 286.728
L160.335 286.621
L160.437 286.605
L162.366 286.497
L162.468 286.488
L164.804 286.38
L164.906 286.37
L167.961 286.26
L168.063 286.254
L170.713 286.146
L170.815 286.14
L175.711 286.03
L175.812 286.026
L183.792 285.919
L183.894 285.911
L187.478 285.803
L187.581 285.795
L191.991 285.687
L192.094 285.677
L194.664 285.568
L194.767 285.558
L197.131 285.451
L197.233 285.441
L199.703 285.331
L199.806 285.318
L201.247 285.211
L201.35 285.194
L202.792 285.091
L202.895 285.074
L204.751 284.964
L204.853 284.954
L208.151 284.844
L208.255 284.837
L212.074 284.726
L212.177 284.72
L214.76 284.612
L214.864 284.601
L232.37 284.709
L232.474 284.718
L236.109 284.827
L236.213 284.832
L239.852 284.942
L239.957 284.947
L245.057 285.056
L245.16 285.062
L248.391 285.169
L248.494 285.178
L251.415 285.289
L251.519 285.297
L254.233 285.407
L254.338 285.415
L257.26 285.521
L257.364 285.531
L259.661 285.64
L259.765 285.652
L262.17 285.762
L262.274 285.77
L264.783 285.88
L264.887 285.889
L266.983 285.995
L267.087 286.007
L269.179 286.117
L269.284 286.131
L270.958 286.236
L271.062 286.249
L272.948 286.354
L273.054 286.367
L275.153 286.477
L275.258 286.488
L277.351 286.597
L277.456 286.609
L279.449 286.717
L279.554 286.729
L281.55 286.837
L281.655 286.849
L283.965 286.957
L284.069 286.967
L286.799 287.075
L286.904 287.082
L290.063 287.192
L290.168 287.199
L293.011 287.307
L293.117 287.315
L297.43 287.426
L297.534 287.431
L302.486 287.542
L302.591 287.546
L309.023 287.656
L309.129 287.659
L313.877 287.767
L313.983 287.773
L317.256 287.883
L317.362 287.89
L320.111 288.001
L320.216 288.01
L322.649 288.119
L322.754 288.128
L325.399 288.238
L325.505 288.246
L328.152 288.356
L328.256 288.365
L331.328 288.474
L331.433 288.48
L335.139 288.59
L335.245 288.598
L338.637 288.706
L338.742 288.715
L341.283 288.822
L341.389 288.831
L344.151 288.94
L344.256 288.949
L346.804 289.056
L346.91 289.066
L349.142 289.172
L349.249 289.183
L351.374 289.292
L351.48 289.304
L353.391 289.409
L353.497 289.422
L355.518 289.531
L355.624 289.543
L357.645 289.651
L357.751 289.662
L359.772 289.772
L359.878 289.785
L361.797 289.894
L361.904 289.907
L363.817 290.015
L363.923 290.027
L365.947 290.133
L366.053 290.145
L368.182 290.256
L368.288 290.267
L370.417 290.376
L370.524 290.387
L372.548 290.495
L372.656 290.508
L374.469 290.615
L374.576 290.629
L376.388 290.734
L376.494 290.747
L378.31 290.858
L378.416 290.872
L380.23 290.979
L380.337 290.992
L382.155 291.1
L382.26 291.114
L383.965 291.219
L384.071 291.233
L385.778 291.344
L385.884 291.358
L387.807 291.469
L387.914 291.482
L389.837 291.593
L389.945 291.605
L391.76 291.711
L391.866 291.724
L393.791 291.834
L393.897 291.846
L396.037 291.956
L396.144 291.967
L398.391 292.074
L398.497 292.085
L400.638 292.191
L400.744 292.202
L402.775 292.313
L402.883 292.326
L404.702 292.433
L404.809 292.447
L406.632 292.555
L406.739 292.568
L408.776 292.676
L408.883 292.688
L411.025 292.795
L411.131 292.807
L413.167 292.914
L413.274 292.926
L415.313 293.035
L415.42 293.047
L417.673 293.155
L417.78 293.166
L420.032 293.273
L420.139 293.284
L422.286 293.393
L422.393 293.403
L424.651 293.511
L424.759 293.522
L427.009 293.633
L427.116 293.644
L429.37 293.754
L429.478 293.764
L431.735 293.87
L431.843 293.881
L433.989 293.987
L434.097 293.999
L436.139 294.109
L436.246 294.121
L438.285 294.231
L438.393 294.243
L440.436 294.349
L440.543 294.361
L442.693 294.472
L442.8 294.483
L444.844 294.589
L444.951 294.6
L447.209 294.71
L447.316 294.72
L449.578 294.828
L449.685 294.838
L451.945 294.949
L452.053 294.959
L454.422 295.067
L454.53 295.077
L456.793 295.184
L456.902 295.194
L459.057 295.301
L459.164 295.312
L461.535 295.419
L461.643 295.429
L464.014 295.538
L464.121 295.548
L466.603 295.655
L466.71 295.665
L469.299 295.773
L469.407 295.782
L471.888 295.891
L471.996 295.901
L474.481 296.012
L474.59 296.021
L477.178 296.131
L477.287 296.14
L480.203 296.251
L480.311 296.259
L483.122 296.37
L483.229 296.378
L486.367 296.485
L486.475 296.494
L489.612 296.604
L489.721 296.612
L493.074 296.722
L493.181 296.729
L496.752 296.838
L496.861 296.844
L500.208 296.953
L500.316 296.961
L503.348 297.068
L503.455 297.076
L506.379 297.185
L506.488 297.193
L509.416 297.302
L509.524 297.31
L512.123 297.417
L512.231 297.427
L514.944 297.537
L515.052 297.546
L517.763 297.655
L517.873 297.664
L520.582 297.772
L520.691 297.781
L523.618 297.891
L523.727 297.899
L526.545 298.007
L526.653 298.015
L530.234 298.125
L530.343 298.131
L534.582 298.241
L534.691 298.247
L539.142 298.357
L539.251 298.363
L543.381 298.473
L543.489 298.48
L545.228 298.524
L545.228 298.527" style="fill:none;stroke:#ff0000;stroke-width:0.5;"/>
   </g>
   <g id="matplotlib.axis_1">
    <g id="xtick_1">
     <g id="line2d_2">
      <path d="
M29.3484 413.28
L29.3484 7.2" style="fill:none;stroke:#000000;stroke-dasharray:1.000000,3.000000;stroke-dashoffset:0.0;stroke-linecap:butt;stroke-width:0.5;"/>
     </g>
     <g id="line2d_3">
      <defs>
       <path d="
M0 0
L0 -4" id="mfd16954694"/>
      </defs>
      <g>
       <use style="stroke:#000000;stroke-linecap:butt;stroke-width:0.5;" x="29.3484375" xlink:href="#mfd16954694" y="15.0092307692"/>
      </g>
     </g>
    </g>
    <g id="xtick_2">
     <g id="line2d_4">
      <path d="
M132.53 413.28
L132.53 7.2" style="fill:none;stroke:#000000;stroke-dasharray:1.000000,3.000000;stroke-dashoffset:0.0;stroke-linecap:butt;stroke-width:0.5;"/>
     </g>
     <g id="line2d_5">
      <defs>
       <path d="
M0 0
L0 -4" id="mfd16954694"/>
      </defs>
      <g>
       <use style="stroke:#000000;stroke-linecap:butt;stroke-width:0.5;" x="132.529818811" xlink:href="#mfd16954694" y="15.0092307692"/>
      </g>
     </g>
     <g id="text_1">
      <!-- 2e8 -->
      <defs>
       <path d="
M19.1875 8.29688
L53.6094 8.29688
L53.6094 0
L7.32812 0
L7.32812 8.29688
Q12.9375 14.1094 22.625 23.8906
Q32.3281 33.6875 34.8125 36.5312
Q39.5469 41.8438 41.4219 45.5312
Q43.3125 49.2188 43.3125 52.7812
Q43.3125 58.5938 39.2344 62.25
Q35.1562 65.9219 28.6094 65.9219
Q23.9688 65.9219 18.8125 64.3125
Q13.6719 62.7031 7.8125 59.4219
L7.8125 69.3906
Q13.7656 71.7812 18.9375 73
Q24.125 74.2188 28.4219 74.2188
Q39.75 74.2188 46.4844 68.5469
Q53.2188 62.8906 53.2188 53.4219
Q53.2188 48.9219 51.5312 44.8906
Q49.8594 40.875 45.4062 35.4062
Q44.1875 33.9844 37.6406 27.2188
Q31.1094 20.4531 19.1875 8.29688" id="BitstreamVeraSans-Roman-32"/>
       <path d="
M56.2031 29.5938
L56.2031 25.2031
L14.8906 25.2031
Q15.4844 15.9219 20.4844 11.0625
Q25.4844 6.20312 34.4219 6.20312
Q39.5938 6.20312 44.4531 7.46875
Q49.3125 8.73438 54.1094 11.2812
L54.1094 2.78125
Q49.2656 0.734375 44.1875 -0.34375
Q39.1094 -1.42188 33.8906 -1.42188
Q20.7969 -1.42188 13.1562 6.1875
Q5.51562 13.8125 5.51562 26.8125
Q5.51562 40.2344 12.7656 48.1094
Q20.0156 56 32.3281 56
Q43.3594 56 49.7812 48.8906
Q56.2031 41.7969 56.2031 29.5938
M47.2188 32.2344
Q47.125 39.5938 43.0938 43.9844
Q39.0625 48.3906 32.4219 48.3906
Q24.9062 48.3906 20.3906 44.1406
Q15.875 39.8906 15.1875 32.1719
z
" id="BitstreamVeraSans-Roman-65"/>
       <path d="
M31.7812 34.625
Q24.75 34.625 20.7188 30.8594
Q16.7031 27.0938 16.7031 20.5156
Q16.7031 13.9219 20.7188 10.1562
Q24.75 6.39062 31.7812 6.39062
Q38.8125 6.39062 42.8594 10.1719
Q46.9219 13.9688 46.9219 20.5156
Q46.9219 27.0938 42.8906 30.8594
Q38.875 34.625 31.7812 34.625
M21.9219 38.8125
Q15.5781 40.375 12.0312 44.7188
Q8.5 49.0781 8.5 55.3281
Q8.5 64.0625 14.7188 69.1406
Q20.9531 74.2188 31.7812 74.2188
Q42.6719 74.2188 48.875 69.1406
Q55.0781 64.0625 55.0781 55.3281
Q55.0781 49.0781 51.5312 44.7188
Q48 40.375 41.7031 38.8125
Q48.8281 37.1562 52.7969 32.3125
Q56.7812 27.4844 56.7812 20.5156
Q56.7812 9.90625 50.3125 4.23438
Q43.8438 -1.42188 31.7812 -1.42188
Q19.7344 -1.42188 13.25 4.23438
Q6.78125 9.90625 6.78125 20.5156
Q6.78125 27.4844 10.7812 32.3125
Q14.7969 37.1562 21.9219 38.8125
M18.3125 54.3906
Q18.3125 48.7344 21.8438 45.5625
Q25.3906 42.3906 31.7812 42.3906
Q38.1406 42.3906 41.7188 45.5625
Q45.3125 48.7344 45.3125 54.3906
Q45.3125 60.0625 41.7188 63.2344
Q38.1406 66.4062 31.7812 66.4062
Q25.3906 66.4062 21.8438 63.2344
Q18.3125 60.0625 18.3125 54.3906" id="BitstreamVeraSans-Roman-38"/>
      </defs>
      <g transform="translate(123.799350061 26.4311057692)scale(0.1 -0.1)">
       <use xlink:href="#BitstreamVeraSans-Roman-32"/>
       <use x="63.623046875" xlink:href="#BitstreamVeraSans-Roman-65"/>
       <use x="125.146484375" xlink:href="#BitstreamVeraSans-Roman-38"/>
      </g>
     </g>
    </g>
    <g id="xtick_3">
     <g id="line2d_6">
      <path d="
M235.711 413.28
L235.711 7.2" style="fill:none;stroke:#000000;stroke-dasharray:1.000000,3.000000;stroke-dashoffset:0.0;stroke-linecap:butt;stroke-width:0.5;"/>
     </g>
     <g id="line2d_7">
      <defs>
       <path d="
M0 0
L0 -4" id="mfd16954694"/>
      </defs>
      <g>
       <use style="stroke:#000000;stroke-linecap:butt;stroke-width:0.5;" x="235.711200122" xlink:href="#mfd16954694" y="15.0092307692"/>
      </g>
     </g>
     <g id="text_2">
      <!-- 4e8 -->
      <defs>
       <path d="
M37.7969 64.3125
L12.8906 25.3906
L37.7969 25.3906
z

M35.2031 72.9062
L47.6094 72.9062
L47.6094 25.3906
L58.0156 25.3906
L58.0156 17.1875
L47.6094 17.1875
L47.6094 0
L37.7969 0
L37.7969 17.1875
L4.89062 17.1875
L4.89062 26.7031
z
" id="BitstreamVeraSans-Roman-34"/>
      </defs>
      <g transform="translate(226.858856372 26.4311057692)scale(0.1 -0.1)">
       <use xlink:href="#BitstreamVeraSans-Roman-34"/>
       <use x="63.623046875" xlink:href="#BitstreamVeraSans-Roman-65"/>
       <use x="125.146484375" xlink:href="#BitstreamVeraSans-Roman-38"/>
      </g>
     </g>
    </g>
    <g id="xtick_4">
     <g id="line2d_8">
      <path d="
M338.893 413.28
L338.893 7.2" style="fill:none;stroke:#000000;stroke-dasharray:1.000000,3.000000;stroke-dashoffset:0.0;stroke-linecap:butt;stroke-width:0.5;"/>
     </g>
     <g id="line2d_9">
      <defs>
       <path d="
M0 0
L0 -4" id="mfd16954694"/>
      </defs>
      <g>
       <use style="stroke:#000000;stroke-linecap:butt;stroke-width:0.5;" x="338.892581433" xlink:href="#mfd16954694" y="15.0092307692"/>
      </g>
     </g>
     <g id="text_3">
      <!-- 6e8 -->
      <defs>
       <path d="
M33.0156 40.375
Q26.375 40.375 22.4844 35.8281
Q18.6094 31.2969 18.6094 23.3906
Q18.6094 15.5312 22.4844 10.9531
Q26.375 6.39062 33.0156 6.39062
Q39.6562 6.39062 43.5312 10.9531
Q47.4062 15.5312 47.4062 23.3906
Q47.4062 31.2969 43.5312 35.8281
Q39.6562 40.375 33.0156 40.375
M52.5938 71.2969
L52.5938 62.3125
Q48.875 64.0625 45.0938 64.9844
Q41.3125 65.9219 37.5938 65.9219
Q27.8281 65.9219 22.6719 59.3281
Q17.5312 52.7344 16.7969 39.4062
Q19.6719 43.6562 24.0156 45.9219
Q28.375 48.1875 33.5938 48.1875
Q44.5781 48.1875 50.9531 41.5156
Q57.3281 34.8594 57.3281 23.3906
Q57.3281 12.1562 50.6875 5.35938
Q44.0469 -1.42188 33.0156 -1.42188
Q20.3594 -1.42188 13.6719 8.26562
Q6.98438 17.9688 6.98438 36.375
Q6.98438 53.6562 15.1875 63.9375
Q23.3906 74.2188 37.2031 74.2188
Q40.9219 74.2188 44.7031 73.4844
Q48.4844 72.75 52.5938 71.2969" id="BitstreamVeraSans-Roman-36"/>
      </defs>
      <g transform="translate(330.144925183 26.4311057692)scale(0.1 -0.1)">
       <use xlink:href="#BitstreamVeraSans-Roman-36"/>
       <use x="63.623046875" xlink:href="#BitstreamVeraSans-Roman-65"/>
       <use x="125.146484375" xlink:href="#BitstreamVeraSans-Roman-38"/>
      </g>
     </g>
    </g>
    <g id="xtick_5">
     <g id="line2d_10">
      <path d="
M442.074 413.28
L442.074 7.2" style="fill:none;stroke:#000000;stroke-dasharray:1.000000,3.000000;stroke-dashoffset:0.0;stroke-linecap:butt;stroke-width:0.5;"/>
     </g>
     <g id="line2d_11">
      <defs>
       <path d="
M0 0
L0 -4" id="mfd16954694"/>
      </defs>
      <g>
       <use style="stroke:#000000;stroke-linecap:butt;stroke-width:0.5;" x="442.073962744" xlink:href="#mfd16954694" y="15.0092307692"/>
      </g>
     </g>
     <g id="text_4">
      <!-- 8e8 -->
      <g transform="translate(433.316150244 26.4311057692)scale(0.1 -0.1)">
       <use xlink:href="#BitstreamVeraSans-Roman-38"/>
       <use x="63.623046875" xlink:href="#BitstreamVeraSans-Roman-65"/>
       <use x="125.146484375" xlink:href="#BitstreamVeraSans-Roman-38"/>
      </g>
     </g>
    </g>
    <g id="xtick_6">
     <g id="line2d_12">
      <path d="
M545.255 413.28
L545.255 7.2" style="fill:none;stroke:#000000;stroke-dasharray:1.000000,3.000000;stroke-dashoffset:0.0;stroke-linecap:butt;stroke-width:0.5;"/>
     </g>
     <g id="line2d_13">
      <defs>
       <path d="
M0 0
L0 -4" id="mfd16954694"/>
      </defs>
      <g>
       <use style="stroke:#000000;stroke-linecap:butt;stroke-width:0.5;" x="545.255344055" xlink:href="#mfd16954694" y="15.0092307692"/>
      </g>
     </g>
     <g id="text_5">
      <!-- 1e9 -->
      <defs>
       <path d="
M10.9844 1.51562
L10.9844 10.5
Q14.7031 8.73438 18.5 7.8125
Q22.3125 6.89062 25.9844 6.89062
Q35.75 6.89062 40.8906 13.4531
Q46.0469 20.0156 46.7812 33.4062
Q43.9531 29.2031 39.5938 26.9531
Q35.25 24.7031 29.9844 24.7031
Q19.0469 24.7031 12.6719 31.3125
Q6.29688 37.9375 6.29688 49.4219
Q6.29688 60.6406 12.9375 67.4219
Q19.5781 74.2188 30.6094 74.2188
Q43.2656 74.2188 49.9219 64.5156
Q56.5938 54.8281 56.5938 36.375
Q56.5938 19.1406 48.4062 8.85938
Q40.2344 -1.42188 26.4219 -1.42188
Q22.7031 -1.42188 18.8906 -0.6875
Q15.0938 0.046875 10.9844 1.51562
M30.6094 32.4219
Q37.25 32.4219 41.125 36.9531
Q45.0156 41.5 45.0156 49.4219
Q45.0156 57.2812 41.125 61.8438
Q37.25 66.4062 30.6094 66.4062
Q23.9688 66.4062 20.0938 61.8438
Q16.2188 57.2812 16.2188 49.4219
Q16.2188 41.5 20.0938 36.9531
Q23.9688 32.4219 30.6094 32.4219" id="BitstreamVeraSans-Roman-39"/>
       <path d="
M12.4062 8.29688
L28.5156 8.29688
L28.5156 63.9219
L10.9844 60.4062
L10.9844 69.3906
L28.4219 72.9062
L38.2812 72.9062
L38.2812 8.29688
L54.3906 8.29688
L54.3906 0
L12.4062 0
z
" id="BitstreamVeraSans-Roman-31"/>
      </defs>
      <g transform="translate(536.717062805 26.4311057692)scale(0.1 -0.1)">
       <use xlink:href="#BitstreamVeraSans-Roman-31"/>
       <use x="63.623046875" xlink:href="#BitstreamVeraSans-Roman-65"/>
       <use x="125.146484375" xlink:href="#BitstreamVeraSans-Roman-39"/>
      </g>
     </g>
    </g>
    <g id="xtick_7">
     <g id="line2d_14">
      <defs>
       <path d="
M0 0
L0 -2" id="md11d5a7b11"/>
      </defs>
      <g>
       <use style="stroke:#000000;stroke-linecap:butt;stroke-width:0.5;" x="55.1437828278" xlink:href="#md11d5a7b11" y="15.0092307692"/>
      </g>
     </g>
    </g>
    <g id="xtick_8">
     <g id="line2d_15">
      <defs>
       <path d="
M0 0
L0 -2" id="md11d5a7b11"/>
      </defs>
      <g>
       <use style="stroke:#000000;stroke-linecap:butt;stroke-width:0.5;" x="80.9391281555" xlink:href="#md11d5a7b11" y="15.0092307692"/>
      </g>
     </g>
    </g>
    <g id="xtick_9">
     <g id="line2d_16">
      <defs>
       <path d="
M0 0
L0 -2" id="md11d5a7b11"/>
      </defs>
      <g>
       <use style="stroke:#000000;stroke-linecap:butt;stroke-width:0.5;" x="106.734473483" xlink:href="#md11d5a7b11" y="15.0092307692"/>
      </g>
     </g>
    </g>
    <g id="xtick_10">
     <g id="line2d_17">
      <defs>
       <path d="
M0 0
L0 -2" id="md11d5a7b11"/>
      </defs>
      <g>
       <use style="stroke:#000000;stroke-linecap:butt;stroke-width:0.5;" x="158.325164139" xlink:href="#md11d5a7b11" y="15.0092307692"/>
      </g>
     </g>
    </g>
    <g id="xtick_11">
     <g id="line2d_18">
      <defs>
       <path d="
M0 0
L0 -2" id="md11d5a7b11"/>
      </defs>
      <g>
       <use style="stroke:#000000;stroke-linecap:butt;stroke-width:0.5;" x="184.120509467" xlink:href="#md11d5a7b11" y="15.0092307692"/>
      </g>
     </g>
    </g>
    <g id="xtick_12">
     <g id="line2d_19">
      <defs>
       <path d="
M0 0
L0 -2" id="md11d5a7b11"/>
      </defs>
      <g>
       <use style="stroke:#000000;stroke-linecap:butt;stroke-width:0.5;" x="209.915854794" xlink:href="#md11d5a7b11" y="15.0092307692"/>
      </g>
     </g>
    </g>
    <g id="xtick_13">
     <g id="line2d_20">
      <defs>
       <path d="
M0 0
L0 -2" id="md11d5a7b11"/>
      </defs>
      <g>
       <use style="stroke:#000000;stroke-linecap:butt;stroke-width:0.5;" x="261.50654545" xlink:href="#md11d5a7b11" y="15.0092307692"/>
      </g>
     </g>
    </g>
    <g id="xtick_14">
     <g id="line2d_21">
      <defs>
       <path d="
M0 0
L0 -2" id="md11d5a7b11"/>
      </defs>
      <g>
       <use style="stroke:#000000;stroke-linecap:butt;stroke-width:0.5;" x="287.301890778" xlink:href="#md11d5a7b11" y="15.0092307692"/>
      </g>
     </g>
    </g>
    <g id="xtick_15">
     <g id="line2d_22">
      <defs>
       <path d="
M0 0
L0 -2" id="md11d5a7b11"/>
      </defs>
      <g>
       <use style="stroke:#000000;stroke-linecap:butt;stroke-width:0.5;" x="313.097236105" xlink:href="#md11d5a7b11" y="15.0092307692"/>
      </g>
     </g>
    </g>
    <g id="xtick_16">
     <g id="line2d_23">
      <defs>
       <path d="
M0 0
L0 -2" id="md11d5a7b11"/>
      </defs>
      <g>
       <use style="stroke:#000000;stroke-linecap:butt;stroke-width:0.5;" x="364.687926761" xlink:href="#md11d5a7b11" y="15.0092307692"/>
      </g>
     </g>
    </g>
    <g id="xtick_17">
     <g id="line2d_24">
      <defs>
       <path d="
M0 0
L0 -2" id="md11d5a7b11"/>
      </defs>
      <g>
       <use style="stroke:#000000;stroke-linecap:butt;stroke-width:0.5;" x="390.483272089" xlink:href="#md11d5a7b11" y="15.0092307692"/>
      </g>
     </g>
    </g>
    <g id="xtick_18">
     <g id="line2d_25">
      <defs>
       <path d="
M0 0
L0 -2" id="md11d5a7b11"/>
      </defs>
      <g>
       <use style="stroke:#000000;stroke-linecap:butt;stroke-width:0.5;" x="416.278617417" xlink:href="#md11d5a7b11" y="15.0092307692"/>
      </g>
     </g>
    </g>
    <g id="xtick_19">
     <g id="line2d_26">
      <defs>
       <path d="
M0 0
L0 -2" id="md11d5a7b11"/>
      </defs>
      <g>
       <use style="stroke:#000000;stroke-linecap:butt;stroke-width:0.5;" x="467.869308072" xlink:href="#md11d5a7b11" y="15.0092307692"/>
      </g>
     </g>
    </g>
    <g id="xtick_20">
     <g id="line2d_27">
      <defs>
       <path d="
M0 0
L0 -2" id="md11d5a7b11"/>
      </defs>
      <g>
       <use style="stroke:#000000;stroke-linecap:butt;stroke-width:0.5;" x="493.6646534" xlink:href="#md11d5a7b11" y="15.0092307692"/>
      </g>
     </g>
    </g>
    <g id="xtick_21">
     <g id="line2d_28">
      <defs>
       <path d="
M0 0
L0 -2" id="md11d5a7b11"/>
      </defs>
      <g>
       <use style="stroke:#000000;stroke-linecap:butt;stroke-width:0.5;" x="519.459998728" xlink:href="#md11d5a7b11" y="15.0092307692"/>
      </g>
     </g>
    </g>
   </g>
   <g id="matplotlib.axis_2">
    <g id="ytick_1">
     <g id="line2d_29">
      <path d="
M19.0308 388.377
L555.546 388.377" style="fill:none;stroke:#000000;stroke-dasharray:1.000000,3.000000;stroke-dashoffset:0.0;stroke-linecap:butt;stroke-width:0.5;"/>
     </g>
     <g id="line2d_30">
      <defs>
       <path d="
M0 0
L4 0" id="m60cfad5420"/>
      </defs>
      <g>
       <use style="stroke:#000000;stroke-linecap:butt;stroke-width:0.5;" x="29.3484375" xlink:href="#m60cfad5420" y="388.377424337"/>
      </g>
     </g>
     <g id="text_6">
      <!-- -3.5 -->
      <defs>
       <path d="
M40.5781 39.3125
Q47.6562 37.7969 51.625 33
Q55.6094 28.2188 55.6094 21.1875
Q55.6094 10.4062 48.1875 4.48438
Q40.7656 -1.42188 27.0938 -1.42188
Q22.5156 -1.42188 17.6562 -0.515625
Q12.7969 0.390625 7.625 2.20312
L7.625 11.7188
Q11.7188 9.32812 16.5938 8.10938
Q21.4844 6.89062 26.8125 6.89062
Q36.0781 6.89062 40.9375 10.5469
Q45.7969 14.2031 45.7969 21.1875
Q45.7969 27.6406 41.2812 31.2656
Q36.7656 34.9062 28.7188 34.9062
L20.2188 34.9062
L20.2188 43.0156
L29.1094 43.0156
Q36.375 43.0156 40.2344 45.9219
Q44.0938 48.8281 44.0938 54.2969
Q44.0938 59.9062 40.1094 62.9062
Q36.1406 65.9219 28.7188 65.9219
Q24.6562 65.9219 20.0156 65.0312
Q15.375 64.1562 9.8125 62.3125
L9.8125 71.0938
Q15.4375 72.6562 20.3438 73.4375
Q25.25 74.2188 29.5938 74.2188
Q40.8281 74.2188 47.3594 69.1094
Q53.9062 64.0156 53.9062 55.3281
Q53.9062 49.2656 50.4375 45.0938
Q46.9688 40.9219 40.5781 39.3125" id="BitstreamVeraSans-Roman-33"/>
       <path d="
M10.6875 12.4062
L21 12.4062
L21 0
L10.6875 0
z
" id="BitstreamVeraSans-Roman-2e"/>
       <path d="
M4.89062 31.3906
L31.2031 31.3906
L31.2031 23.3906
L4.89062 23.3906
z
" id="BitstreamVeraSans-Roman-2d"/>
       <path d="
M10.7969 72.9062
L49.5156 72.9062
L49.5156 64.5938
L19.8281 64.5938
L19.8281 46.7344
Q21.9688 47.4688 24.1094 47.8281
Q26.2656 48.1875 28.4219 48.1875
Q40.625 48.1875 47.75 41.5
Q54.8906 34.8125 54.8906 23.3906
Q54.8906 11.625 47.5625 5.09375
Q40.2344 -1.42188 26.9062 -1.42188
Q22.3125 -1.42188 17.5469 -0.640625
Q12.7969 0.140625 7.71875 1.70312
L7.71875 11.625
Q12.1094 9.23438 16.7969 8.0625
Q21.4844 6.89062 26.7031 6.89062
Q35.1562 6.89062 40.0781 11.3281
Q45.0156 15.7656 45.0156 23.3906
Q45.0156 31 40.0781 35.4375
Q35.1562 39.8906 26.7031 39.8906
Q22.75 39.8906 18.8125 39.0156
Q14.8906 38.1406 10.7969 36.2812
z
" id="BitstreamVeraSans-Roman-35"/>
      </defs>
      <g transform="translate(7.2 392.017268087)scale(0.1 -0.1)">
       <use xlink:href="#BitstreamVeraSans-Roman-2d"/>
       <use x="36.083984375" xlink:href="#BitstreamVeraSans-Roman-33"/>
       <use x="99.70703125" xlink:href="#BitstreamVeraSans-Roman-2e"/>
       <use x="131.494140625" xlink:href="#BitstreamVeraSans-Roman-35"/>
      </g>
     </g>
    </g>
    <g id="ytick_2">
     <g id="line2d_31">
      <path d="
M19.0308 335.039
L555.546 335.039" style="fill:none;stroke:#000000;stroke-dasharray:1.000000,3.000000;stroke-dashoffset:0.0;stroke-linecap:butt;stroke-width:0.5;"/>
     </g>
     <g id="line2d_32">
      <defs>
       <path d="
M0 0
L4 0" id="m60cfad5420"/>
      </defs>
      <g>
       <use style="stroke:#000000;stroke-linecap:butt;stroke-width:0.5;" x="29.3484375" xlink:href="#m60cfad5420" y="335.03911097"/>
      </g>
     </g>
     <g id="text_7">
      <!-- -3 -->
      <g transform="translate(16.66875 338.67895472)scale(0.1 -0.1)">
       <use xlink:href="#BitstreamVeraSans-Roman-2d"/>
       <use x="36.083984375" xlink:href="#BitstreamVeraSans-Roman-33"/>
      </g>
     </g>
    </g>
    <g id="ytick_3">
     <g id="line2d_33">
      <path d="
M19.0308 281.701
L555.546 281.701" style="fill:none;stroke:#000000;stroke-dasharray:1.000000,3.000000;stroke-dashoffset:0.0;stroke-linecap:butt;stroke-width:0.5;"/>
     </g>
     <g id="line2d_34">
      <defs>
       <path d="
M0 0
L4 0" id="m60cfad5420"/>
      </defs>
      <g>
       <use style="stroke:#000000;stroke-linecap:butt;stroke-width:0.5;" x="29.3484375" xlink:href="#m60cfad5420" y="281.700797603"/>
      </g>
     </g>
     <g id="text_8">
      <!-- -2.5 -->
      <g transform="translate(7.2 285.340641353)scale(0.1 -0.1)">
       <use xlink:href="#BitstreamVeraSans-Roman-2d"/>
       <use x="36.083984375" xlink:href="#BitstreamVeraSans-Roman-32"/>
       <use x="99.70703125" xlink:href="#BitstreamVeraSans-Roman-2e"/>
       <use x="131.494140625" xlink:href="#BitstreamVeraSans-Roman-35"/>
      </g>
     </g>
    </g>
    <g id="ytick_4">
     <g id="line2d_35">
      <path d="
M19.0308 228.362
L555.546 228.362" style="fill:none;stroke:#000000;stroke-dasharray:1.000000,3.000000;stroke-dashoffset:0.0;stroke-linecap:butt;stroke-width:0.5;"/>
     </g>
     <g id="line2d_36">
      <defs>
       <path d="
M0 0
L4 0" id="m60cfad5420"/>
      </defs>
      <g>
       <use style="stroke:#000000;stroke-linecap:butt;stroke-width:0.5;" x="29.3484375" xlink:href="#m60cfad5420" y="228.362484236"/>
      </g>
     </g>
     <g id="text_9">
      <!-- -2 -->
      <g transform="translate(16.86875 232.073421736)scale(0.1 -0.1)">
       <use xlink:href="#BitstreamVeraSans-Roman-2d"/>
       <use x="36.083984375" xlink:href="#BitstreamVeraSans-Roman-32"/>
      </g>
     </g>
    </g>
    <g id="ytick_5">
     <g id="line2d_37">
      <path d="
M19.0308 175.024
L555.546 175.024" style="fill:none;stroke:#000000;stroke-dasharray:1.000000,3.000000;stroke-dashoffset:0.0;stroke-linecap:butt;stroke-width:0.5;"/>
     </g>
     <g id="line2d_38">
      <defs>
       <path d="
M0 0
L4 0" id="m60cfad5420"/>
      </defs>
      <g>
       <use style="stroke:#000000;stroke-linecap:butt;stroke-width:0.5;" x="29.3484375" xlink:href="#m60cfad5420" y="175.02417087"/>
      </g>
     </g>
     <g id="text_10">
      <!-- -1.5 -->
      <g transform="translate(7.2 178.59838962)scale(0.1 -0.1)">
       <use xlink:href="#BitstreamVeraSans-Roman-2d"/>
       <use x="36.083984375" xlink:href="#BitstreamVeraSans-Roman-31"/>
       <use x="99.70703125" xlink:href="#BitstreamVeraSans-Roman-2e"/>
       <use x="131.494140625" xlink:href="#BitstreamVeraSans-Roman-35"/>
      </g>
     </g>
    </g>
    <g id="ytick_6">
     <g id="line2d_39">
      <path d="
M19.0308 121.686
L555.546 121.686" style="fill:none;stroke:#000000;stroke-dasharray:1.000000,3.000000;stroke-dashoffset:0.0;stroke-linecap:butt;stroke-width:0.5;"/>
     </g>
     <g id="line2d_40">
      <defs>
       <path d="
M0 0
L4 0" id="m60cfad5420"/>
      </defs>
      <g>
       <use style="stroke:#000000;stroke-linecap:butt;stroke-width:0.5;" x="29.3484375" xlink:href="#m60cfad5420" y="121.685857503"/>
      </g>
     </g>
     <g id="text_11">
      <!-- -1 -->
      <g transform="translate(16.790625 125.331170003)scale(0.1 -0.1)">
       <use xlink:href="#BitstreamVeraSans-Roman-2d"/>
       <use x="36.083984375" xlink:href="#BitstreamVeraSans-Roman-31"/>
      </g>
     </g>
    </g>
    <g id="ytick_7">
     <g id="line2d_41">
      <path d="
M19.0308 68.3475
L555.546 68.3475" style="fill:none;stroke:#000000;stroke-dasharray:1.000000,3.000000;stroke-dashoffset:0.0;stroke-linecap:butt;stroke-width:0.5;"/>
     </g>
     <g id="line2d_42">
      <defs>
       <path d="
M0 0
L4 0" id="m60cfad5420"/>
      </defs>
      <g>
       <use style="stroke:#000000;stroke-linecap:butt;stroke-width:0.5;" x="29.3484375" xlink:href="#m60cfad5420" y="68.347544136"/>
      </g>
     </g>
     <g id="text_12">
      <!-- -0.5 -->
      <defs>
       <path d="
M31.7812 66.4062
Q24.1719 66.4062 20.3281 58.9062
Q16.5 51.4219 16.5 36.375
Q16.5 21.3906 20.3281 13.8906
Q24.1719 6.39062 31.7812 6.39062
Q39.4531 6.39062 43.2812 13.8906
Q47.125 21.3906 47.125 36.375
Q47.125 51.4219 43.2812 58.9062
Q39.4531 66.4062 31.7812 66.4062
M31.7812 74.2188
Q44.0469 74.2188 50.5156 64.5156
Q56.9844 54.8281 56.9844 36.375
Q56.9844 17.9688 50.5156 8.26562
Q44.0469 -1.42188 31.7812 -1.42188
Q19.5312 -1.42188 13.0625 8.26562
Q6.59375 17.9688 6.59375 36.375
Q6.59375 54.8281 13.0625 64.5156
Q19.5312 74.2188 31.7812 74.2188" id="BitstreamVeraSans-Roman-30"/>
      </defs>
      <g transform="translate(7.2 71.987387886)scale(0.1 -0.1)">
       <use xlink:href="#BitstreamVeraSans-Roman-2d"/>
       <use x="36.083984375" xlink:href="#BitstreamVeraSans-Roman-30"/>
       <use x="99.70703125" xlink:href="#BitstreamVeraSans-Roman-2e"/>
       <use x="131.494140625" xlink:href="#BitstreamVeraSans-Roman-35"/>
      </g>
     </g>
    </g>
    <g id="ytick_8">
     <g id="line2d_43">
      <path d="
M19.0308 15.0092
L555.546 15.0092" style="fill:none;stroke:#000000;stroke-dasharray:1.000000,3.000000;stroke-dashoffset:0.0;stroke-linecap:butt;stroke-width:0.5;"/>
     </g>
     <g id="line2d_44">
      <defs>
       <path d="
M0 0
L4 0" id="m60cfad5420"/>
      </defs>
      <g>
       <use style="stroke:#000000;stroke-linecap:butt;stroke-width:0.5;" x="29.3484375" xlink:href="#m60cfad5420" y="15.0092307692"/>
      </g>
     </g>
    </g>
    <g id="ytick_9">
     <g id="line2d_45">
      <defs>
       <path d="
M0 0
L2 0" id="mfc86346b65"/>
      </defs>
      <g>
       <use style="stroke:#000000;stroke-linecap:butt;stroke-width:0.5;" x="29.3484375" xlink:href="#mfc86346b65" y="409.712749683"/>
      </g>
     </g>
    </g>
    <g id="ytick_10">
     <g id="line2d_46">
      <defs>
       <path d="
M0 0
L2 0" id="mfc86346b65"/>
      </defs>
      <g>
       <use style="stroke:#000000;stroke-linecap:butt;stroke-width:0.5;" x="29.3484375" xlink:href="#mfc86346b65" y="399.04508701"/>
      </g>
     </g>
    </g>
    <g id="ytick_11">
     <g id="line2d_47">
      <defs>
       <path d="
M0 0
L2 0" id="mfc86346b65"/>
      </defs>
      <g>
       <use style="stroke:#000000;stroke-linecap:butt;stroke-width:0.5;" x="29.3484375" xlink:href="#mfc86346b65" y="377.709761663"/>
      </g>
     </g>
    </g>
    <g id="ytick_12">
     <g id="line2d_48">
      <defs>
       <path d="
M0 0
L2 0" id="mfc86346b65"/>
      </defs>
      <g>
       <use style="stroke:#000000;stroke-linecap:butt;stroke-width:0.5;" x="29.3484375" xlink:href="#mfc86346b65" y="367.04209899"/>
      </g>
     </g>
    </g>
    <g id="ytick_13">
     <g id="line2d_49">
      <defs>
       <path d="
M0 0
L2 0" id="mfc86346b65"/>
      </defs>
      <g>
       <use style="stroke:#000000;stroke-linecap:butt;stroke-width:0.5;" x="29.3484375" xlink:href="#mfc86346b65" y="356.374436317"/>
      </g>
     </g>
    </g>
    <g id="ytick_14">
     <g id="line2d_50">
      <defs>
       <path d="
M0 0
L2 0" id="mfc86346b65"/>
      </defs>
      <g>
       <use style="stroke:#000000;stroke-linecap:butt;stroke-width:0.5;" x="29.3484375" xlink:href="#mfc86346b65" y="345.706773643"/>
      </g>
     </g>
    </g>
    <g id="ytick_15">
     <g id="line2d_51">
      <defs>
       <path d="
M0 0
L2 0" id="mfc86346b65"/>
      </defs>
      <g>
       <use style="stroke:#000000;stroke-linecap:butt;stroke-width:0.5;" x="29.3484375" xlink:href="#mfc86346b65" y="324.371448297"/>
      </g>
     </g>
    </g>
    <g id="ytick_16">
     <g id="line2d_52">
      <defs>
       <path d="
M0 0
L2 0" id="mfc86346b65"/>
      </defs>
      <g>
       <use style="stroke:#000000;stroke-linecap:butt;stroke-width:0.5;" x="29.3484375" xlink:href="#mfc86346b65" y="313.703785623"/>
      </g>
     </g>
    </g>
    <g id="ytick_17">
     <g id="line2d_53">
      <defs>
       <path d="
M0 0
L2 0" id="mfc86346b65"/>
      </defs>
      <g>
       <use style="stroke:#000000;stroke-linecap:butt;stroke-width:0.5;" x="29.3484375" xlink:href="#mfc86346b65" y="303.03612295"/>
      </g>
     </g>
    </g>
    <g id="ytick_18">
     <g id="line2d_54">
      <defs>
       <path d="
M0 0
L2 0" id="mfc86346b65"/>
      </defs>
      <g>
       <use style="stroke:#000000;stroke-linecap:butt;stroke-width:0.5;" x="29.3484375" xlink:href="#mfc86346b65" y="292.368460276"/>
      </g>
     </g>
    </g>
    <g id="ytick_19">
     <g id="line2d_55">
      <defs>
       <path d="
M0 0
L2 0" id="mfc86346b65"/>
      </defs>
      <g>
       <use style="stroke:#000000;stroke-linecap:butt;stroke-width:0.5;" x="29.3484375" xlink:href="#mfc86346b65" y="271.03313493"/>
      </g>
     </g>
    </g>
    <g id="ytick_20">
     <g id="line2d_56">
      <defs>
       <path d="
M0 0
L2 0" id="mfc86346b65"/>
      </defs>
      <g>
       <use style="stroke:#000000;stroke-linecap:butt;stroke-width:0.5;" x="29.3484375" xlink:href="#mfc86346b65" y="260.365472256"/>
      </g>
     </g>
    </g>
    <g id="ytick_21">
     <g id="line2d_57">
      <defs>
       <path d="
M0 0
L2 0" id="mfc86346b65"/>
      </defs>
      <g>
       <use style="stroke:#000000;stroke-linecap:butt;stroke-width:0.5;" x="29.3484375" xlink:href="#mfc86346b65" y="249.697809583"/>
      </g>
     </g>
    </g>
    <g id="ytick_22">
     <g id="line2d_58">
      <defs>
       <path d="
M0 0
L2 0" id="mfc86346b65"/>
      </defs>
      <g>
       <use style="stroke:#000000;stroke-linecap:butt;stroke-width:0.5;" x="29.3484375" xlink:href="#mfc86346b65" y="239.03014691"/>
      </g>
     </g>
    </g>
    <g id="ytick_23">
     <g id="line2d_59">
      <defs>
       <path d="
M0 0
L2 0" id="mfc86346b65"/>
      </defs>
      <g>
       <use style="stroke:#000000;stroke-linecap:butt;stroke-width:0.5;" x="29.3484375" xlink:href="#mfc86346b65" y="217.694821563"/>
      </g>
     </g>
    </g>
    <g id="ytick_24">
     <g id="line2d_60">
      <defs>
       <path d="
M0 0
L2 0" id="mfc86346b65"/>
      </defs>
      <g>
       <use style="stroke:#000000;stroke-linecap:butt;stroke-width:0.5;" x="29.3484375" xlink:href="#mfc86346b65" y="207.02715889"/>
      </g>
     </g>
    </g>
    <g id="ytick_25">
     <g id="line2d_61">
      <defs>
       <path d="
M0 0
L2 0" id="mfc86346b65"/>
      </defs>
      <g>
       <use style="stroke:#000000;stroke-linecap:butt;stroke-width:0.5;" x="29.3484375" xlink:href="#mfc86346b65" y="196.359496216"/>
      </g>
     </g>
    </g>
    <g id="ytick_26">
     <g id="line2d_62">
      <defs>
       <path d="
M0 0
L2 0" id="mfc86346b65"/>
      </defs>
      <g>
       <use style="stroke:#000000;stroke-linecap:butt;stroke-width:0.5;" x="29.3484375" xlink:href="#mfc86346b65" y="185.691833543"/>
      </g>
     </g>
    </g>
    <g id="ytick_27">
     <g id="line2d_63">
      <defs>
       <path d="
M0 0
L2 0" id="mfc86346b65"/>
      </defs>
      <g>
       <use style="stroke:#000000;stroke-linecap:butt;stroke-width:0.5;" x="29.3484375" xlink:href="#mfc86346b65" y="175.02417087"/>
      </g>
     </g>
    </g>
    <g id="ytick_28">
     <g id="line2d_64">
      <defs>
       <path d="
M0 0
L2 0" id="mfc86346b65"/>
      </defs>
      <g>
       <use style="stroke:#000000;stroke-linecap:butt;stroke-width:0.5;" x="29.3484375" xlink:href="#mfc86346b65" y="164.356508196"/>
      </g>
     </g>
    </g>
    <g id="ytick_29">
     <g id="line2d_65">
      <defs>
       <path d="
M0 0
L2 0" id="mfc86346b65"/>
      </defs>
      <g>
       <use style="stroke:#000000;stroke-linecap:butt;stroke-width:0.5;" x="29.3484375" xlink:href="#mfc86346b65" y="153.688845523"/>
      </g>
     </g>
    </g>
    <g id="ytick_30">
     <g id="line2d_66">
      <defs>
       <path d="
M0 0
L2 0" id="mfc86346b65"/>
      </defs>
      <g>
       <use style="stroke:#000000;stroke-linecap:butt;stroke-width:0.5;" x="29.3484375" xlink:href="#mfc86346b65" y="143.021182849"/>
      </g>
     </g>
    </g>
    <g id="ytick_31">
     <g id="line2d_67">
      <defs>
       <path d="
M0 0
L2 0" id="mfc86346b65"/>
      </defs>
      <g>
       <use style="stroke:#000000;stroke-linecap:butt;stroke-width:0.5;" x="29.3484375" xlink:href="#mfc86346b65" y="132.353520176"/>
      </g>
     </g>
    </g>
    <g id="ytick_32">
     <g id="line2d_68">
      <defs>
       <path d="
M0 0
L2 0" id="mfc86346b65"/>
      </defs>
      <g>
       <use style="stroke:#000000;stroke-linecap:butt;stroke-width:0.5;" x="29.3484375" xlink:href="#mfc86346b65" y="121.685857503"/>
      </g>
     </g>
    </g>
    <g id="ytick_33">
     <g id="line2d_69">
      <defs>
       <path d="
M0 0
L2 0" id="mfc86346b65"/>
      </defs>
      <g>
       <use style="stroke:#000000;stroke-linecap:butt;stroke-width:0.5;" x="29.3484375" xlink:href="#mfc86346b65" y="111.018194829"/>
      </g>
     </g>
    </g>
    <g id="ytick_34">
     <g id="line2d_70">
      <defs>
       <path d="
M0 0
L2 0" id="mfc86346b65"/>
      </defs>
      <g>
       <use style="stroke:#000000;stroke-linecap:butt;stroke-width:0.5;" x="29.3484375" xlink:href="#mfc86346b65" y="100.350532156"/>
      </g>
     </g>
    </g>
    <g id="ytick_35">
     <g id="line2d_71">
      <defs>
       <path d="
M0 0
L2 0" id="mfc86346b65"/>
      </defs>
      <g>
       <use style="stroke:#000000;stroke-linecap:butt;stroke-width:0.5;" x="29.3484375" xlink:href="#mfc86346b65" y="89.6828694827"/>
      </g>
     </g>
    </g>
    <g id="ytick_36">
     <g id="line2d_72">
      <defs>
       <path d="
M0 0
L2 0" id="mfc86346b65"/>
      </defs>
      <g>
       <use style="stroke:#000000;stroke-linecap:butt;stroke-width:0.5;" x="29.3484375" xlink:href="#mfc86346b65" y="79.0152068094"/>
      </g>
     </g>
    </g>
    <g id="ytick_37">
     <g id="line2d_73">
      <defs>
       <path d="
M0 0
L2 0" id="mfc86346b65"/>
      </defs>
      <g>
       <use style="stroke:#000000;stroke-linecap:butt;stroke-width:0.5;" x="29.3484375" xlink:href="#mfc86346b65" y="68.347544136"/>
      </g>
     </g>
    </g>
    <g id="ytick_38">
     <g id="line2d_74">
      <defs>
       <path d="
M0 0
L2 0" id="mfc86346b65"/>
      </defs>
      <g>
       <use style="stroke:#000000;stroke-linecap:butt;stroke-width:0.5;" x="29.3484375" xlink:href="#mfc86346b65" y="57.6798814626"/>
      </g>
     </g>
    </g>
    <g id="ytick_39">
     <g id="line2d_75">
      <defs>
       <path d="
M0 0
L2 0" id="mfc86346b65"/>
      </defs>
      <g>
       <use style="stroke:#000000;stroke-linecap:butt;stroke-width:0.5;" x="29.3484375" xlink:href="#mfc86346b65" y="47.0122187893"/>
      </g>
     </g>
    </g>
    <g id="ytick_40">
     <g id="line2d_76">
      <defs>
       <path d="
M0 0
L2 0" id="mfc86346b65"/>
      </defs>
      <g>
       <use style="stroke:#000000;stroke-linecap:butt;stroke-width:0.5;" x="29.3484375" xlink:href="#mfc86346b65" y="36.3445561159"/>
      </g>
     </g>
    </g>
    <g id="ytick_41">
     <g id="line2d_77">
      <defs>
       <path d="
M0 0
L2 0" id="mfc86346b65"/>
      </defs>
      <g>
       <use style="stroke:#000000;stroke-linecap:butt;stroke-width:0.5;" x="29.3484375" xlink:href="#mfc86346b65" y="25.6768934426"/>
      </g>
     </g>
    </g>
   </g>
   <g id="patch_3">
    <path d="
M19.0308 15.0092
L555.546 15.0092" style="fill:none;stroke:#000000;stroke-width:0.8;"/>
   </g>
   <g id="patch_4">
    <path d="
M29.3484 413.28
L29.3484 7.2" style="fill:none;stroke:#000000;stroke-width:0.8;"/>
   </g>
  </g>
 </g>
 <defs>
  <clipPath id="pe376afc05f">
   <rect height="406.08" width="536.514823828" x="19.0308457659" y="7.2"/>
  </clipPath>
 </defs>
</svg>
