<?xml version="1.0" encoding="utf-8" standalone="no"?>
<!DOCTYPE svg PUBLIC "-//W3C//DTD SVG 1.1//EN"
  "http://www.w3.org/Graphics/SVG/1.1/DTD/svg11.dtd">
<!-- Created with matplotlib (http://matplotlib.sourceforge.net/) -->
<svg height="420pt" version="1.1" viewBox="0 0 562 420" width="562pt" xmlns="http://www.w3.org/2000/svg" xmlns:xlink="http://www.w3.org/1999/xlink">
 <defs>
  <style type="text/css">
*{stroke-linecap:square;stroke-linejoin:round;}
  </style>
 </defs>
 <g id="figure_1">
  <g id="patch_1">
   <path d="
M2.22045e-16 420.48
L562.538 420.48
L562.538 0
L2.22045e-16 0
z
" style="fill:#ffffff;"/>
  </g>
  <g id="axes_1">
   <g id="patch_2">
    <path d="
M9.62586 413.28
L555.338 413.28
L555.338 7.2
L9.62586 7.2
z
" style="fill:#ffffff;"/>
   </g>
   <g id="line2d_1">
    <path clip-path="url(#p602998282e)" d="
M20.1203 15.0092
L20.1763 15.0092
L20.1763 405.471
L20.2404 400.955
L20.3076 400.955
L20.3076 401.222
L20.3768 401.091
L20.4474 401.091
L20.5194 395.499
L20.5918 395.499
L20.6656 394.181
L20.7397 394.181
L20.8148 393.057
L20.8902 393.057
L20.8902 392.916
L20.9665 392.916
L20.9665 392.916
L21.0431 393.461
L21.12 393.461
L21.1972 392.79
L21.2751 392.79
L21.3535 392.229
L21.6691 392.219
L21.7488 391.71
L21.8282 391.71
L21.9085 391.512
L21.9897 391.512
L22.0699 391.111
L22.1506 391.111
L22.2319 390.465
L22.3131 390.465
L22.3948 389.918
L22.4759 389.918
L22.5581 389.479
L22.6402 389.479
L22.7219 388.902
L22.8043 388.902
L22.8866 388.101
L22.9694 388.101
L23.0525 387.691
L23.1358 387.691
L23.219 387.281
L23.3023 387.281
L23.3859 387.006
L23.4693 387.006
L23.5532 386.687
L23.637 386.687
L23.7206 386.402
L23.8885 386.296
L23.9729 386.22
L24.2269 386.142
L24.2269 386.102
L24.3113 386.119
L24.567 386.033
L24.6515 385.903
L24.8221 385.811
L24.9081 385.555
L25.079 385.452
L25.1649 385.407
L25.5955 385.308
L25.6816 385.244
L26.027 385.146
L26.1142 385.053
L26.2873 384.986
L26.3743 384.833
L26.635 384.724
L26.7227 384.62
L26.8969 384.554
L26.985 384.418
L27.1602 384.359
L27.2484 384.242
L28.5698 384.132
L28.6582 384.102
L29.5461 383.994
L29.6358 383.965
L30.0825 383.872
L30.1721 383.842
L30.4412 383.75
L30.5305 383.616
L30.7093 383.542
L30.7998 383.392
L30.9794 383.324
L31.0693 383.214
L31.5196 383.141
L31.6095 383.084
L32.0615 382.985
L32.1518 382.957
L32.6957 383.06
L32.7864 383.105
L34.4247 383
L34.5162 382.962
L35.0652 382.86
L35.1563 382.819
L37.0877 382.728
L37.1797 382.673
L37.5491 382.567
L37.6408 382.466
L37.9182 382.37
L38.0118 382.268
L38.2908 382.187
L38.384 382.113
L38.662 382.04
L38.7548 381.952
L39.0331 381.844
L39.1265 381.761
L39.4053 381.675
L39.4989 381.61
L39.8701 381.52
L39.9634 381.456
L40.2419 381.379
L40.3348 381.299
L40.6145 381.222
L40.7075 381.121
L40.9863 381.013
L41.0802 380.894
L41.267 380.828
L41.3602 380.705
L41.5469 380.649
L41.6411 380.539
L41.922 380.447
L42.0163 380.348
L42.2973 380.257
L42.3909 380.187
L42.7669 380.079
L42.8608 380.019
L43.236 379.923
L43.3305 379.87
L43.706 379.784
L43.7996 379.724
L44.1752 379.616
L44.2687 379.543
L44.6461 379.439
L44.7398 379.398
L45.4016 379.293
L45.4961 379.258
L46.0631 379.153
L46.1569 379.095
L46.5352 378.995
L46.6301 378.938
L47.1034 378.83
L47.198 378.762
L47.4824 378.684
L47.5777 378.615
L47.9571 378.519
L48.0516 378.455
L48.4324 378.357
L48.5273 378.299
L48.9087 378.218
L49.0039 378.153
L49.4795 378.047
L49.5739 378.003
L50.3354 377.896
L50.4314 377.881
L51.195 377.777
L51.2915 377.728
L51.8639 377.624
L51.9596 377.584
L52.9175 377.481
L53.0139 377.463
L54.1648 377.358
L54.2603 377.339
L56.2785 377.233
L56.3749 377.22
L58.2061 377.119
L58.3034 377.087
L59.6573 376.98
L59.7535 376.956
L60.626 376.854
L60.7231 376.832
L61.8885 376.725
L61.9856 376.703
L65.196 376.596
L65.2931 376.582
L68.224 376.686
L68.322 376.704
L69.889 376.81
L69.9861 376.824
L71.5556 376.933
L71.6544 376.944
L77.5612 377.051
L77.6598 377.06
L81.7204 377.169
L81.8199 377.182
L84.9995 377.289
L85.0983 377.302
L92.9792 377.192
L93.0787 377.187
L102.112 377.081
L102.213 377.068
L104.63 376.961
L104.731 376.953
L108.064 376.844
L108.165 376.835
L110.792 376.725
L110.894 376.718
L114.639 376.608
L114.741 376.606
L117.281 376.495
L117.382 376.485
L119.415 376.375
L119.517 376.36
L121.047 376.253
L121.148 376.239
L122.571 376.132
L122.674 376.113
L123.9 376.008
L124.001 375.989
L125.123 375.88
L125.224 375.859
L126.347 375.755
L126.45 375.735
L127.47 375.631
L127.572 375.608
L128.696 375.498
L128.798 375.477
L129.821 375.371
L129.923 375.347
L130.843 375.244
L130.945 375.219
L131.866 375.117
L131.967 375.091
L132.889 374.985
L132.991 374.958
L134.017 374.848
L134.119 374.823
L135.144 374.716
L135.246 374.694
L136.375 374.584
L136.478 374.561
L137.603 374.455
L137.707 374.437
L138.836 374.333
L138.939 374.312
L140.171 374.201
L140.274 374.18
L141.506 374.078
L141.608 374.057
L142.845 373.949
L142.948 373.931
L144.181 373.826
L144.284 373.806
L145.516 373.702
L145.619 373.683
L147.06 373.576
L147.163 373.56
L148.709 373.45
L148.812 373.434
L150.257 373.325
L150.36 373.308
L151.701 373.201
L151.803 373.181
L153.146 373.071
L153.25 373.052
L154.487 372.947
L154.59 372.929
L155.832 372.823
L155.935 372.802
L157.28 372.692
L157.382 372.674
L158.729 372.565
L158.832 372.548
L160.695 372.437
L160.798 372.429
L164.84 372.319
L164.944 372.313
L172.632 372.203
L172.736 372.2
L184.82 372.307
L184.923 372.316
L188.897 372.424
L189.002 372.43
L196.747 372.541
L196.852 372.545
L215.133 372.435
L215.237 372.428
L218.289 372.317
L218.393 372.308
L223.033 372.198
L223.138 372.195
L239.632 372.085
L239.738 372.082
L245.78 371.972
L245.886 371.967
L251.726 371.858
L251.832 371.854
L263.849 371.744
L263.956 371.741
L284.127 371.631
L284.233 371.629
L293.011 371.519
L293.119 371.516
L298.154 371.406
L298.26 371.4
L302.549 371.292
L302.657 371.285
L306.953 371.176
L307.061 371.169
L310.384 371.061
L310.49 371.053
L314.9 370.943
L315.007 370.938
L318.986 370.829
L319.094 370.823
L322.539 370.714
L322.646 370.708
L326.519 370.599
L326.628 370.593
L330.829 370.483
L330.936 370.478
L336.757 370.367
L336.865 370.364
L344.534 370.253
L344.641 370.25
L352.207 370.141
L352.315 370.137
L362.921 370.027
L363.029 370.025
L373.651 369.914
L373.759 369.912
L383.966 369.801
L384.074 369.798
L395.38 369.688
L395.489 369.687
L426.237 369.798
L426.345 369.799
L479.143 369.688
L479.251 369.687
L516.356 369.576
L516.466 369.575
L533.683 369.464
L533.683 369.463
L544.843 369.395
L544.843 369.394" style="fill:none;stroke:#ff0000;stroke-width:0.5;"/>
   </g>
   <g id="matplotlib.axis_1">
    <g id="xtick_1">
     <g id="line2d_2">
      <defs>
       <path d="
M0 0
L0 -4" id="mbe3e8904bb"/>
      </defs>
      <g>
       <use style="stroke:#000000;stroke-linecap:butt;stroke-width:0.5;" x="20.1203125" xlink:href="#mbe3e8904bb" y="15.0092307692"/>
      </g>
     </g>
    </g>
    <g id="xtick_2">
     <g id="line2d_3">
      <defs>
       <path d="
M0 0
L0 -4" id="mbe3e8904bb"/>
      </defs>
      <g>
       <use style="stroke:#000000;stroke-linecap:butt;stroke-width:0.5;" x="125.070417105" xlink:href="#mbe3e8904bb" y="15.0092307692"/>
      </g>
     </g>
     <g id="text_1">
      <!-- 2e8 -->
      <defs>
       <path d="
M19.1875 8.29688
L53.6094 8.29688
L53.6094 0
L7.32812 0
L7.32812 8.29688
Q12.9375 14.1094 22.625 23.8906
Q32.3281 33.6875 34.8125 36.5312
Q39.5469 41.8438 41.4219 45.5312
Q43.3125 49.2188 43.3125 52.7812
Q43.3125 58.5938 39.2344 62.25
Q35.1562 65.9219 28.6094 65.9219
Q23.9688 65.9219 18.8125 64.3125
Q13.6719 62.7031 7.8125 59.4219
L7.8125 69.3906
Q13.7656 71.7812 18.9375 73
Q24.125 74.2188 28.4219 74.2188
Q39.75 74.2188 46.4844 68.5469
Q53.2188 62.8906 53.2188 53.4219
Q53.2188 48.9219 51.5312 44.8906
Q49.8594 40.875 45.4062 35.4062
Q44.1875 33.9844 37.6406 27.2188
Q31.1094 20.4531 19.1875 8.29688" id="BitstreamVeraSans-Roman-32"/>
       <path d="
M56.2031 29.5938
L56.2031 25.2031
L14.8906 25.2031
Q15.4844 15.9219 20.4844 11.0625
Q25.4844 6.20312 34.4219 6.20312
Q39.5938 6.20312 44.4531 7.46875
Q49.3125 8.73438 54.1094 11.2812
L54.1094 2.78125
Q49.2656 0.734375 44.1875 -0.34375
Q39.1094 -1.42188 33.8906 -1.42188
Q20.7969 -1.42188 13.1562 6.1875
Q5.51562 13.8125 5.51562 26.8125
Q5.51562 40.2344 12.7656 48.1094
Q20.0156 56 32.3281 56
Q43.3594 56 49.7812 48.8906
Q56.2031 41.7969 56.2031 29.5938
M47.2188 32.2344
Q47.125 39.5938 43.0938 43.9844
Q39.0625 48.3906 32.4219 48.3906
Q24.9062 48.3906 20.3906 44.1406
Q15.875 39.8906 15.1875 32.1719
z
" id="BitstreamVeraSans-Roman-65"/>
       <path d="
M31.7812 34.625
Q24.75 34.625 20.7188 30.8594
Q16.7031 27.0938 16.7031 20.5156
Q16.7031 13.9219 20.7188 10.1562
Q24.75 6.39062 31.7812 6.39062
Q38.8125 6.39062 42.8594 10.1719
Q46.9219 13.9688 46.9219 20.5156
Q46.9219 27.0938 42.8906 30.8594
Q38.875 34.625 31.7812 34.625
M21.9219 38.8125
Q15.5781 40.375 12.0312 44.7188
Q8.5 49.0781 8.5 55.3281
Q8.5 64.0625 14.7188 69.1406
Q20.9531 74.2188 31.7812 74.2188
Q42.6719 74.2188 48.875 69.1406
Q55.0781 64.0625 55.0781 55.3281
Q55.0781 49.0781 51.5312 44.7188
Q48 40.375 41.7031 38.8125
Q48.8281 37.1562 52.7969 32.3125
Q56.7812 27.4844 56.7812 20.5156
Q56.7812 9.90625 50.3125 4.23438
Q43.8438 -1.42188 31.7812 -1.42188
Q19.7344 -1.42188 13.25 4.23438
Q6.78125 9.90625 6.78125 20.5156
Q6.78125 27.4844 10.7812 32.3125
Q14.7969 37.1562 21.9219 38.8125
M18.3125 54.3906
Q18.3125 48.7344 21.8438 45.5625
Q25.3906 42.3906 31.7812 42.3906
Q38.1406 42.3906 41.7188 45.5625
Q45.3125 48.7344 45.3125 54.3906
Q45.3125 60.0625 41.7188 63.2344
Q38.1406 66.4062 31.7812 66.4062
Q25.3906 66.4062 21.8438 63.2344
Q18.3125 60.0625 18.3125 54.3906" id="BitstreamVeraSans-Roman-38"/>
      </defs>
      <g transform="translate(116.339948355 26.4311057692)scale(0.1 -0.1)">
       <use xlink:href="#BitstreamVeraSans-Roman-32"/>
       <use x="63.623046875" xlink:href="#BitstreamVeraSans-Roman-65"/>
       <use x="125.146484375" xlink:href="#BitstreamVeraSans-Roman-38"/>
      </g>
     </g>
    </g>
    <g id="xtick_3">
     <g id="line2d_4">
      <defs>
       <path d="
M0 0
L0 -4" id="mbe3e8904bb"/>
      </defs>
      <g>
       <use style="stroke:#000000;stroke-linecap:butt;stroke-width:0.5;" x="230.020521709" xlink:href="#mbe3e8904bb" y="15.0092307692"/>
      </g>
     </g>
     <g id="text_2">
      <!-- 4e8 -->
      <defs>
       <path d="
M37.7969 64.3125
L12.8906 25.3906
L37.7969 25.3906
z

M35.2031 72.9062
L47.6094 72.9062
L47.6094 25.3906
L58.0156 25.3906
L58.0156 17.1875
L47.6094 17.1875
L47.6094 0
L37.7969 0
L37.7969 17.1875
L4.89062 17.1875
L4.89062 26.7031
z
" id="BitstreamVeraSans-Roman-34"/>
      </defs>
      <g transform="translate(221.168177959 26.4311057692)scale(0.1 -0.1)">
       <use xlink:href="#BitstreamVeraSans-Roman-34"/>
       <use x="63.623046875" xlink:href="#BitstreamVeraSans-Roman-65"/>
       <use x="125.146484375" xlink:href="#BitstreamVeraSans-Roman-38"/>
      </g>
     </g>
    </g>
    <g id="xtick_4">
     <g id="line2d_5">
      <defs>
       <path d="
M0 0
L0 -4" id="mbe3e8904bb"/>
      </defs>
      <g>
       <use style="stroke:#000000;stroke-linecap:butt;stroke-width:0.5;" x="334.970626314" xlink:href="#mbe3e8904bb" y="15.0092307692"/>
      </g>
     </g>
     <g id="text_3">
      <!-- 6e8 -->
      <defs>
       <path d="
M33.0156 40.375
Q26.375 40.375 22.4844 35.8281
Q18.6094 31.2969 18.6094 23.3906
Q18.6094 15.5312 22.4844 10.9531
Q26.375 6.39062 33.0156 6.39062
Q39.6562 6.39062 43.5312 10.9531
Q47.4062 15.5312 47.4062 23.3906
Q47.4062 31.2969 43.5312 35.8281
Q39.6562 40.375 33.0156 40.375
M52.5938 71.2969
L52.5938 62.3125
Q48.875 64.0625 45.0938 64.9844
Q41.3125 65.9219 37.5938 65.9219
Q27.8281 65.9219 22.6719 59.3281
Q17.5312 52.7344 16.7969 39.4062
Q19.6719 43.6562 24.0156 45.9219
Q28.375 48.1875 33.5938 48.1875
Q44.5781 48.1875 50.9531 41.5156
Q57.3281 34.8594 57.3281 23.3906
Q57.3281 12.1562 50.6875 5.35938
Q44.0469 -1.42188 33.0156 -1.42188
Q20.3594 -1.42188 13.6719 8.26562
Q6.98438 17.9688 6.98438 36.375
Q6.98438 53.6562 15.1875 63.9375
Q23.3906 74.2188 37.2031 74.2188
Q40.9219 74.2188 44.7031 73.4844
Q48.4844 72.75 52.5938 71.2969" id="BitstreamVeraSans-Roman-36"/>
      </defs>
      <g transform="translate(326.222970064 26.4311057692)scale(0.1 -0.1)">
       <use xlink:href="#BitstreamVeraSans-Roman-36"/>
       <use x="63.623046875" xlink:href="#BitstreamVeraSans-Roman-65"/>
       <use x="125.146484375" xlink:href="#BitstreamVeraSans-Roman-38"/>
      </g>
     </g>
    </g>
    <g id="xtick_5">
     <g id="line2d_6">
      <defs>
       <path d="
M0 0
L0 -4" id="mbe3e8904bb"/>
      </defs>
      <g>
       <use style="stroke:#000000;stroke-linecap:butt;stroke-width:0.5;" x="439.920730919" xlink:href="#mbe3e8904bb" y="15.0092307692"/>
      </g>
     </g>
     <g id="text_4">
      <!-- 8e8 -->
      <g transform="translate(431.162918419 26.4311057692)scale(0.1 -0.1)">
       <use xlink:href="#BitstreamVeraSans-Roman-38"/>
       <use x="63.623046875" xlink:href="#BitstreamVeraSans-Roman-65"/>
       <use x="125.146484375" xlink:href="#BitstreamVeraSans-Roman-38"/>
      </g>
     </g>
    </g>
    <g id="xtick_6">
     <g id="line2d_7">
      <defs>
       <path d="
M0 0
L0 -4" id="mbe3e8904bb"/>
      </defs>
      <g>
       <use style="stroke:#000000;stroke-linecap:butt;stroke-width:0.5;" x="544.870835523" xlink:href="#mbe3e8904bb" y="15.0092307692"/>
      </g>
     </g>
     <g id="text_5">
      <!-- 1e9 -->
      <defs>
       <path d="
M10.9844 1.51562
L10.9844 10.5
Q14.7031 8.73438 18.5 7.8125
Q22.3125 6.89062 25.9844 6.89062
Q35.75 6.89062 40.8906 13.4531
Q46.0469 20.0156 46.7812 33.4062
Q43.9531 29.2031 39.5938 26.9531
Q35.25 24.7031 29.9844 24.7031
Q19.0469 24.7031 12.6719 31.3125
Q6.29688 37.9375 6.29688 49.4219
Q6.29688 60.6406 12.9375 67.4219
Q19.5781 74.2188 30.6094 74.2188
Q43.2656 74.2188 49.9219 64.5156
Q56.5938 54.8281 56.5938 36.375
Q56.5938 19.1406 48.4062 8.85938
Q40.2344 -1.42188 26.4219 -1.42188
Q22.7031 -1.42188 18.8906 -0.6875
Q15.0938 0.046875 10.9844 1.51562
M30.6094 32.4219
Q37.25 32.4219 41.125 36.9531
Q45.0156 41.5 45.0156 49.4219
Q45.0156 57.2812 41.125 61.8438
Q37.25 66.4062 30.6094 66.4062
Q23.9688 66.4062 20.0938 61.8438
Q16.2188 57.2812 16.2188 49.4219
Q16.2188 41.5 20.0938 36.9531
Q23.9688 32.4219 30.6094 32.4219" id="BitstreamVeraSans-Roman-39"/>
       <path d="
M12.4062 8.29688
L28.5156 8.29688
L28.5156 63.9219
L10.9844 60.4062
L10.9844 69.3906
L28.4219 72.9062
L38.2812 72.9062
L38.2812 8.29688
L54.3906 8.29688
L54.3906 0
L12.4062 0
z
" id="BitstreamVeraSans-Roman-31"/>
      </defs>
      <g transform="translate(536.332554273 26.4311057692)scale(0.1 -0.1)">
       <use xlink:href="#BitstreamVeraSans-Roman-31"/>
       <use x="63.623046875" xlink:href="#BitstreamVeraSans-Roman-65"/>
       <use x="125.146484375" xlink:href="#BitstreamVeraSans-Roman-39"/>
      </g>
     </g>
    </g>
    <g id="xtick_7">
     <g id="line2d_8">
      <defs>
       <path d="
M0 0
L0 -2" id="m26a0c6c1f0"/>
      </defs>
      <g>
       <use style="stroke:#000000;stroke-linecap:butt;stroke-width:0.5;" x="46.3578386512" xlink:href="#m26a0c6c1f0" y="15.0092307692"/>
      </g>
     </g>
    </g>
    <g id="xtick_8">
     <g id="line2d_9">
      <defs>
       <path d="
M0 0
L0 -2" id="m26a0c6c1f0"/>
      </defs>
      <g>
       <use style="stroke:#000000;stroke-linecap:butt;stroke-width:0.5;" x="72.5953648023" xlink:href="#m26a0c6c1f0" y="15.0092307692"/>
      </g>
     </g>
    </g>
    <g id="xtick_9">
     <g id="line2d_10">
      <defs>
       <path d="
M0 0
L0 -2" id="m26a0c6c1f0"/>
      </defs>
      <g>
       <use style="stroke:#000000;stroke-linecap:butt;stroke-width:0.5;" x="98.8328909535" xlink:href="#m26a0c6c1f0" y="15.0092307692"/>
      </g>
     </g>
    </g>
    <g id="xtick_10">
     <g id="line2d_11">
      <defs>
       <path d="
M0 0
L0 -2" id="m26a0c6c1f0"/>
      </defs>
      <g>
       <use style="stroke:#000000;stroke-linecap:butt;stroke-width:0.5;" x="151.307943256" xlink:href="#m26a0c6c1f0" y="15.0092307692"/>
      </g>
     </g>
    </g>
    <g id="xtick_11">
     <g id="line2d_12">
      <defs>
       <path d="
M0 0
L0 -2" id="m26a0c6c1f0"/>
      </defs>
      <g>
       <use style="stroke:#000000;stroke-linecap:butt;stroke-width:0.5;" x="177.545469407" xlink:href="#m26a0c6c1f0" y="15.0092307692"/>
      </g>
     </g>
    </g>
    <g id="xtick_12">
     <g id="line2d_13">
      <defs>
       <path d="
M0 0
L0 -2" id="m26a0c6c1f0"/>
      </defs>
      <g>
       <use style="stroke:#000000;stroke-linecap:butt;stroke-width:0.5;" x="203.782995558" xlink:href="#m26a0c6c1f0" y="15.0092307692"/>
      </g>
     </g>
    </g>
    <g id="xtick_13">
     <g id="line2d_14">
      <defs>
       <path d="
M0 0
L0 -2" id="m26a0c6c1f0"/>
      </defs>
      <g>
       <use style="stroke:#000000;stroke-linecap:butt;stroke-width:0.5;" x="256.25804786" xlink:href="#m26a0c6c1f0" y="15.0092307692"/>
      </g>
     </g>
    </g>
    <g id="xtick_14">
     <g id="line2d_15">
      <defs>
       <path d="
M0 0
L0 -2" id="m26a0c6c1f0"/>
      </defs>
      <g>
       <use style="stroke:#000000;stroke-linecap:butt;stroke-width:0.5;" x="282.495574012" xlink:href="#m26a0c6c1f0" y="15.0092307692"/>
      </g>
     </g>
    </g>
    <g id="xtick_15">
     <g id="line2d_16">
      <defs>
       <path d="
M0 0
L0 -2" id="m26a0c6c1f0"/>
      </defs>
      <g>
       <use style="stroke:#000000;stroke-linecap:butt;stroke-width:0.5;" x="308.733100163" xlink:href="#m26a0c6c1f0" y="15.0092307692"/>
      </g>
     </g>
    </g>
    <g id="xtick_16">
     <g id="line2d_17">
      <defs>
       <path d="
M0 0
L0 -2" id="m26a0c6c1f0"/>
      </defs>
      <g>
       <use style="stroke:#000000;stroke-linecap:butt;stroke-width:0.5;" x="361.208152465" xlink:href="#m26a0c6c1f0" y="15.0092307692"/>
      </g>
     </g>
    </g>
    <g id="xtick_17">
     <g id="line2d_18">
      <defs>
       <path d="
M0 0
L0 -2" id="m26a0c6c1f0"/>
      </defs>
      <g>
       <use style="stroke:#000000;stroke-linecap:butt;stroke-width:0.5;" x="387.445678616" xlink:href="#m26a0c6c1f0" y="15.0092307692"/>
      </g>
     </g>
    </g>
    <g id="xtick_18">
     <g id="line2d_19">
      <defs>
       <path d="
M0 0
L0 -2" id="m26a0c6c1f0"/>
      </defs>
      <g>
       <use style="stroke:#000000;stroke-linecap:butt;stroke-width:0.5;" x="413.683204767" xlink:href="#m26a0c6c1f0" y="15.0092307692"/>
      </g>
     </g>
    </g>
    <g id="xtick_19">
     <g id="line2d_20">
      <defs>
       <path d="
M0 0
L0 -2" id="m26a0c6c1f0"/>
      </defs>
      <g>
       <use style="stroke:#000000;stroke-linecap:butt;stroke-width:0.5;" x="466.15825707" xlink:href="#m26a0c6c1f0" y="15.0092307692"/>
      </g>
     </g>
    </g>
    <g id="xtick_20">
     <g id="line2d_21">
      <defs>
       <path d="
M0 0
L0 -2" id="m26a0c6c1f0"/>
      </defs>
      <g>
       <use style="stroke:#000000;stroke-linecap:butt;stroke-width:0.5;" x="492.395783221" xlink:href="#m26a0c6c1f0" y="15.0092307692"/>
      </g>
     </g>
    </g>
    <g id="xtick_21">
     <g id="line2d_22">
      <defs>
       <path d="
M0 0
L0 -2" id="m26a0c6c1f0"/>
      </defs>
      <g>
       <use style="stroke:#000000;stroke-linecap:butt;stroke-width:0.5;" x="518.633309372" xlink:href="#m26a0c6c1f0" y="15.0092307692"/>
      </g>
     </g>
    </g>
   </g>
   <g id="matplotlib.axis_2">
    <g id="ytick_1">
     <g id="line2d_23">
      <defs>
       <path d="
M0 0
L4 0" id="md11a3f90d2"/>
      </defs>
      <g>
       <use style="stroke:#000000;stroke-linecap:butt;stroke-width:0.5;" x="20.1203125" xlink:href="#md11a3f90d2" y="355.213402482"/>
      </g>
     </g>
     <g id="text_6">
      <!-- -4 -->
      <defs>
       <path d="
M4.89062 31.3906
L31.2031 31.3906
L31.2031 23.3906
L4.89062 23.3906
z
" id="BitstreamVeraSans-Roman-2d"/>
      </defs>
      <g transform="translate(7.2 358.858714982)scale(0.1 -0.1)">
       <use xlink:href="#BitstreamVeraSans-Roman-2d"/>
       <use x="36.083984375" xlink:href="#BitstreamVeraSans-Roman-34"/>
      </g>
     </g>
    </g>
    <g id="ytick_2">
     <g id="line2d_24">
      <defs>
       <path d="
M0 0
L4 0" id="md11a3f90d2"/>
      </defs>
      <g>
       <use style="stroke:#000000;stroke-linecap:butt;stroke-width:0.5;" x="20.1203125" xlink:href="#md11a3f90d2" y="270.162359554"/>
      </g>
     </g>
     <g id="text_7">
      <!-- -3 -->
      <defs>
       <path d="
M40.5781 39.3125
Q47.6562 37.7969 51.625 33
Q55.6094 28.2188 55.6094 21.1875
Q55.6094 10.4062 48.1875 4.48438
Q40.7656 -1.42188 27.0938 -1.42188
Q22.5156 -1.42188 17.6562 -0.515625
Q12.7969 0.390625 7.625 2.20312
L7.625 11.7188
Q11.7188 9.32812 16.5938 8.10938
Q21.4844 6.89062 26.8125 6.89062
Q36.0781 6.89062 40.9375 10.5469
Q45.7969 14.2031 45.7969 21.1875
Q45.7969 27.6406 41.2812 31.2656
Q36.7656 34.9062 28.7188 34.9062
L20.2188 34.9062
L20.2188 43.0156
L29.1094 43.0156
Q36.375 43.0156 40.2344 45.9219
Q44.0938 48.8281 44.0938 54.2969
Q44.0938 59.9062 40.1094 62.9062
Q36.1406 65.9219 28.7188 65.9219
Q24.6562 65.9219 20.0156 65.0312
Q15.375 64.1562 9.8125 62.3125
L9.8125 71.0938
Q15.4375 72.6562 20.3438 73.4375
Q25.25 74.2188 29.5938 74.2188
Q40.8281 74.2188 47.3594 69.1094
Q53.9062 64.0156 53.9062 55.3281
Q53.9062 49.2656 50.4375 45.0938
Q46.9688 40.9219 40.5781 39.3125" id="BitstreamVeraSans-Roman-33"/>
      </defs>
      <g transform="translate(7.440625 273.802203304)scale(0.1 -0.1)">
       <use xlink:href="#BitstreamVeraSans-Roman-2d"/>
       <use x="36.083984375" xlink:href="#BitstreamVeraSans-Roman-33"/>
      </g>
     </g>
    </g>
    <g id="ytick_3">
     <g id="line2d_25">
      <defs>
       <path d="
M0 0
L4 0" id="md11a3f90d2"/>
      </defs>
      <g>
       <use style="stroke:#000000;stroke-linecap:butt;stroke-width:0.5;" x="20.1203125" xlink:href="#md11a3f90d2" y="185.111316626"/>
      </g>
     </g>
     <g id="text_8">
      <!-- -2 -->
      <g transform="translate(7.640625 188.822254126)scale(0.1 -0.1)">
       <use xlink:href="#BitstreamVeraSans-Roman-2d"/>
       <use x="36.083984375" xlink:href="#BitstreamVeraSans-Roman-32"/>
      </g>
     </g>
    </g>
    <g id="ytick_4">
     <g id="line2d_26">
      <defs>
       <path d="
M0 0
L4 0" id="md11a3f90d2"/>
      </defs>
      <g>
       <use style="stroke:#000000;stroke-linecap:butt;stroke-width:0.5;" x="20.1203125" xlink:href="#md11a3f90d2" y="100.060273697"/>
      </g>
     </g>
     <g id="text_9">
      <!-- -1 -->
      <g transform="translate(7.5625 103.705586197)scale(0.1 -0.1)">
       <use xlink:href="#BitstreamVeraSans-Roman-2d"/>
       <use x="36.083984375" xlink:href="#BitstreamVeraSans-Roman-31"/>
      </g>
     </g>
    </g>
    <g id="ytick_5">
     <g id="line2d_27">
      <defs>
       <path d="
M0 0
L4 0" id="md11a3f90d2"/>
      </defs>
      <g>
       <use style="stroke:#000000;stroke-linecap:butt;stroke-width:0.5;" x="20.1203125" xlink:href="#md11a3f90d2" y="15.0092307692"/>
      </g>
     </g>
    </g>
    <g id="ytick_6">
     <g id="line2d_28">
      <defs>
       <path d="
M0 0
L2 0" id="me79b45f6fb"/>
      </defs>
      <g>
       <use style="stroke:#000000;stroke-linecap:butt;stroke-width:0.5;" x="20.1203125" xlink:href="#me79b45f6fb" y="406.244028239"/>
      </g>
     </g>
    </g>
    <g id="ytick_7">
     <g id="line2d_29">
      <defs>
       <path d="
M0 0
L2 0" id="me79b45f6fb"/>
      </defs>
      <g>
       <use style="stroke:#000000;stroke-linecap:butt;stroke-width:0.5;" x="20.1203125" xlink:href="#me79b45f6fb" y="389.233819653"/>
      </g>
     </g>
    </g>
    <g id="ytick_8">
     <g id="line2d_30">
      <defs>
       <path d="
M0 0
L2 0" id="me79b45f6fb"/>
      </defs>
      <g>
       <use style="stroke:#000000;stroke-linecap:butt;stroke-width:0.5;" x="20.1203125" xlink:href="#me79b45f6fb" y="372.223611068"/>
      </g>
     </g>
    </g>
    <g id="ytick_9">
     <g id="line2d_31">
      <defs>
       <path d="
M0 0
L2 0" id="me79b45f6fb"/>
      </defs>
      <g>
       <use style="stroke:#000000;stroke-linecap:butt;stroke-width:0.5;" x="20.1203125" xlink:href="#me79b45f6fb" y="338.203193896"/>
      </g>
     </g>
    </g>
    <g id="ytick_10">
     <g id="line2d_32">
      <defs>
       <path d="
M0 0
L2 0" id="me79b45f6fb"/>
      </defs>
      <g>
       <use style="stroke:#000000;stroke-linecap:butt;stroke-width:0.5;" x="20.1203125" xlink:href="#me79b45f6fb" y="321.192985311"/>
      </g>
     </g>
    </g>
    <g id="ytick_11">
     <g id="line2d_33">
      <defs>
       <path d="
M0 0
L2 0" id="me79b45f6fb"/>
      </defs>
      <g>
       <use style="stroke:#000000;stroke-linecap:butt;stroke-width:0.5;" x="20.1203125" xlink:href="#me79b45f6fb" y="304.182776725"/>
      </g>
     </g>
    </g>
    <g id="ytick_12">
     <g id="line2d_34">
      <defs>
       <path d="
M0 0
L2 0" id="me79b45f6fb"/>
      </defs>
      <g>
       <use style="stroke:#000000;stroke-linecap:butt;stroke-width:0.5;" x="20.1203125" xlink:href="#me79b45f6fb" y="287.172568139"/>
      </g>
     </g>
    </g>
    <g id="ytick_13">
     <g id="line2d_35">
      <defs>
       <path d="
M0 0
L2 0" id="me79b45f6fb"/>
      </defs>
      <g>
       <use style="stroke:#000000;stroke-linecap:butt;stroke-width:0.5;" x="20.1203125" xlink:href="#me79b45f6fb" y="253.152150968"/>
      </g>
     </g>
    </g>
    <g id="ytick_14">
     <g id="line2d_36">
      <defs>
       <path d="
M0 0
L2 0" id="me79b45f6fb"/>
      </defs>
      <g>
       <use style="stroke:#000000;stroke-linecap:butt;stroke-width:0.5;" x="20.1203125" xlink:href="#me79b45f6fb" y="236.141942383"/>
      </g>
     </g>
    </g>
    <g id="ytick_15">
     <g id="line2d_37">
      <defs>
       <path d="
M0 0
L2 0" id="me79b45f6fb"/>
      </defs>
      <g>
       <use style="stroke:#000000;stroke-linecap:butt;stroke-width:0.5;" x="20.1203125" xlink:href="#me79b45f6fb" y="219.131733797"/>
      </g>
     </g>
    </g>
    <g id="ytick_16">
     <g id="line2d_38">
      <defs>
       <path d="
M0 0
L2 0" id="me79b45f6fb"/>
      </defs>
      <g>
       <use style="stroke:#000000;stroke-linecap:butt;stroke-width:0.5;" x="20.1203125" xlink:href="#me79b45f6fb" y="202.121525211"/>
      </g>
     </g>
    </g>
    <g id="ytick_17">
     <g id="line2d_39">
      <defs>
       <path d="
M0 0
L2 0" id="me79b45f6fb"/>
      </defs>
      <g>
       <use style="stroke:#000000;stroke-linecap:butt;stroke-width:0.5;" x="20.1203125" xlink:href="#me79b45f6fb" y="168.10110804"/>
      </g>
     </g>
    </g>
    <g id="ytick_18">
     <g id="line2d_40">
      <defs>
       <path d="
M0 0
L2 0" id="me79b45f6fb"/>
      </defs>
      <g>
       <use style="stroke:#000000;stroke-linecap:butt;stroke-width:0.5;" x="20.1203125" xlink:href="#me79b45f6fb" y="151.090899454"/>
      </g>
     </g>
    </g>
    <g id="ytick_19">
     <g id="line2d_41">
      <defs>
       <path d="
M0 0
L2 0" id="me79b45f6fb"/>
      </defs>
      <g>
       <use style="stroke:#000000;stroke-linecap:butt;stroke-width:0.5;" x="20.1203125" xlink:href="#me79b45f6fb" y="134.080690869"/>
      </g>
     </g>
    </g>
    <g id="ytick_20">
     <g id="line2d_42">
      <defs>
       <path d="
M0 0
L2 0" id="me79b45f6fb"/>
      </defs>
      <g>
       <use style="stroke:#000000;stroke-linecap:butt;stroke-width:0.5;" x="20.1203125" xlink:href="#me79b45f6fb" y="117.070482283"/>
      </g>
     </g>
    </g>
    <g id="ytick_21">
     <g id="line2d_43">
      <defs>
       <path d="
M0 0
L2 0" id="me79b45f6fb"/>
      </defs>
      <g>
       <use style="stroke:#000000;stroke-linecap:butt;stroke-width:0.5;" x="20.1203125" xlink:href="#me79b45f6fb" y="83.0500651118"/>
      </g>
     </g>
    </g>
    <g id="ytick_22">
     <g id="line2d_44">
      <defs>
       <path d="
M0 0
L2 0" id="me79b45f6fb"/>
      </defs>
      <g>
       <use style="stroke:#000000;stroke-linecap:butt;stroke-width:0.5;" x="20.1203125" xlink:href="#me79b45f6fb" y="66.0398565261"/>
      </g>
     </g>
    </g>
    <g id="ytick_23">
     <g id="line2d_45">
      <defs>
       <path d="
M0 0
L2 0" id="me79b45f6fb"/>
      </defs>
      <g>
       <use style="stroke:#000000;stroke-linecap:butt;stroke-width:0.5;" x="20.1203125" xlink:href="#me79b45f6fb" y="49.0296479405"/>
      </g>
     </g>
    </g>
    <g id="ytick_24">
     <g id="line2d_46">
      <defs>
       <path d="
M0 0
L2 0" id="me79b45f6fb"/>
      </defs>
      <g>
       <use style="stroke:#000000;stroke-linecap:butt;stroke-width:0.5;" x="20.1203125" xlink:href="#me79b45f6fb" y="32.0194393549"/>
      </g>
     </g>
    </g>
   </g>
   <g id="patch_3">
    <path d="
M9.62586 15.0092
L555.338 15.0092" style="fill:none;stroke:#000000;stroke-width:0.8;"/>
   </g>
   <g id="patch_4">
    <path d="
M20.1203 413.28
L20.1203 7.2" style="fill:none;stroke:#000000;stroke-width:0.8;"/>
   </g>
  </g>
 </g>
 <defs>
  <clipPath id="p602998282e">
   <rect height="406.08" width="545.711698828" x="9.62585780281" y="7.2"/>
  </clipPath>
 </defs>
</svg>
