<?xml version="1.0" encoding="utf-8" standalone="no"?>
<!DOCTYPE svg PUBLIC "-//W3C//DTD SVG 1.1//EN"
  "http://www.w3.org/Graphics/SVG/1.1/DTD/svg11.dtd">
<!-- Created with matplotlib (http://matplotlib.sourceforge.net/) -->
<svg height="420pt" version="1.1" viewBox="0 0 562 420" width="562pt" xmlns="http://www.w3.org/2000/svg" xmlns:xlink="http://www.w3.org/1999/xlink">
 <defs>
  <style type="text/css">
*{stroke-linecap:square;stroke-linejoin:round;}
  </style>
 </defs>
 <g id="figure_1">
  <g id="patch_1">
   <path d="
M2.22045e-16 420.48
L562.536 420.48
L562.536 0
L2.22045e-16 0
z
" style="fill:#ffffff;"/>
  </g>
  <g id="axes_1">
   <g id="patch_2">
    <path d="
M9.6259 413.28
L555.336 413.28
L555.336 7.2
L9.6259 7.2
z
" style="fill:#ffffff;"/>
   </g>
   <g id="line2d_1">
    <path clip-path="url(#pbf9a93ed35)" d="
M20.1203 15.0092
L20.1692 15.0092
L20.2274 401.268
L20.2895 401.268
L20.2895 405.471
L20.3526 404.085
L20.4184 404.085
L20.4863 397.479
L20.5532 397.479
L20.6221 393.361
L20.6925 393.361
L20.7631 389.304
L20.8345 389.304
L20.906 386.401
L20.9786 386.401
L21.0522 385.122
L21.125 385.122
L21.125 384.756
L21.199 384.873
L21.4224 384.879
L21.4986 384.601
L21.8785 384.694
L21.9556 385.035
L22.1117 385.138
L22.1885 385.441
L22.4239 385.504
L22.5031 385.857
L22.5828 385.857
L22.6604 386.029
L22.8194 385.931
L22.898 385.539
L22.9789 385.539
L23.0594 385.131
L23.1397 385.131
L23.2185 384.701
L23.2993 384.701
L23.379 383.912
L23.461 383.912
L23.5436 383.008
L23.624 383.008
L23.7057 382.24
L23.7859 382.24
L23.8667 381.666
L23.9487 381.666
L24.0318 381.304
L24.1137 381.304
L24.1951 380.912
L24.2767 380.912
L24.3584 380.643
L24.5227 380.559
L24.6066 380.362
L24.7703 380.27
L24.8538 380.071
L25.0196 379.982
L25.1037 379.758
L25.2715 379.668
L25.3557 379.419
L25.4377 379.419
L25.521 379.141
L25.6051 379.141
L25.6912 378.934
L25.8588 378.837
L25.9413 378.666
L26.1097 378.565
L26.1948 378.23
L26.2781 378.23
L26.3602 377.985
L26.5309 377.933
L26.6181 377.744
L26.7861 377.678
L26.8714 377.561
L27.0422 377.478
L27.1285 377.326
L27.3847 377.247
L27.4676 377.153
L27.7268 377.071
L27.811 376.967
L27.9828 376.907
L28.0671 376.785
L28.5032 376.685
L28.5896 376.656
L28.9336 376.744
L29.0218 376.84
L29.7171 376.735
L29.8053 376.655
L30.5051 376.55
L30.5919 376.488
L30.8525 376.379
L30.9412 376.287
L31.2058 376.206
L31.2936 376.137
L31.6457 376.06
L31.7343 375.97
L32.0002 375.867
L32.0868 375.757
L32.3568 375.679
L32.4457 375.599
L32.8904 375.499
L32.9796 375.461
L33.4233 375.353
L33.5146 375.288
L33.9593 375.193
L34.0478 375.154
L34.4968 375.047
L34.5865 374.953
L34.8556 374.844
L34.9414 374.726
L35.1211 374.662
L35.2124 374.508
L35.3928 374.426
L35.4835 374.249
L35.6652 374.145
L35.7553 373.945
L35.9336 373.858
L36.0256 373.684
L36.2091 373.592
L36.2969 373.408
L36.4771 373.32
L36.5668 373.156
L36.7484 373.068
L36.8383 372.895
L37.0161 372.811
L37.105 372.646
L37.2875 372.567
L37.3779 372.423
L37.5607 372.358
L37.6516 372.24
L37.8348 372.158
L37.9257 371.993
L38.1052 371.922
L38.1941 371.784
L38.3805 371.713
L38.4734 371.57
L38.6585 371.488
L38.7517 371.316
L38.9342 371.226
L39.0246 371.06
L39.203 370.983
L39.2985 370.803
L39.4783 370.709
L39.5684 370.515
L39.7501 370.411
L39.841 370.21
L40.0275 370.106
L40.1186 369.93
L40.2998 369.849
L40.3925 369.679
L40.5752 369.588
L40.668 369.416
L40.849 369.33
L40.9442 369.16
L41.1298 369.081
L41.2219 368.918
L41.4024 368.838
L41.4947 368.664
L41.6777 368.577
L41.7718 368.41
L41.9566 368.326
L42.0487 368.146
L42.2309 368.051
L42.3241 367.867
L42.509 367.777
L42.6029 367.605
L42.7879 367.514
L42.881 367.325
L43.0677 367.231
L43.1601 367.059
L43.3443 366.974
L43.4343 366.813
L43.618 366.724
L43.7094 366.545
L43.8972 366.455
L43.9913 366.276
L44.1751 366.19
L44.2689 366.016
L44.4536 365.931
L44.5476 365.762
L44.7311 365.68
L44.8249 365.525
L45.0092 365.45
L45.1038 365.294
L45.2918 365.219
L45.3843 365.059
L45.57 364.98
L45.6621 364.815
L45.8445 364.724
L45.9396 364.545
L46.1248 364.446
L46.2166 364.253
L46.4025 364.162
L46.4963 363.986
L46.6841 363.902
L46.7772 363.728
L46.9648 363.64
L47.0574 363.471
L47.245 363.389
L47.3396 363.217
L47.5252 363.134
L47.6191 362.979
L47.804 362.905
L47.8988 362.769
L48.0867 362.704
L48.1781 362.578
L48.3656 362.512
L48.4605 362.376
L48.6487 362.302
L48.7414 362.153
L48.9304 362.078
L49.0227 361.94
L49.2138 361.87
L49.3082 361.739
L49.4965 361.675
L49.591 361.545
L49.78 361.481
L49.876 361.356
L50.0618 361.29
L50.1546 361.158
L50.3443 361.087
L50.4403 360.945
L50.6297 360.876
L50.724 360.75
L50.9134 360.688
L51.0057 360.573
L51.2841 360.465
L51.3793 360.368
L51.6624 360.267
L51.7549 360.16
L51.9476 360.099
L52.0426 359.981
L52.2304 359.92
L52.3262 359.798
L52.5131 359.742
L52.6106 359.622
L52.8948 359.518
L52.9881 359.419
L53.2683 359.323
L53.3625 359.222
L53.6517 359.112
L53.7462 358.995
L53.9378 358.935
L54.0311 358.818
L54.3165 358.708
L54.4112 358.582
L54.6004 358.517
L54.6932 358.395
L54.8832 358.334
L54.9786 358.215
L55.1705 358.158
L55.266 358.045
L55.5486 357.937
L55.6431 357.832
L55.9293 357.735
L56.0249 357.647
L56.3053 357.555
L56.4016 357.458
L56.6847 357.366
L56.7818 357.271
L57.0649 357.178
L57.1586 357.083
L57.4443 356.991
L57.5432 356.901
L57.8307 356.806
L57.9248 356.705
L58.2125 356.608
L58.3064 356.513
L58.5933 356.418
L58.6914 356.331
L58.9778 356.251
L59.0736 356.172
L59.3602 356.094
L59.4585 356.015
L59.7449 355.938
L59.8412 355.864
L60.1287 355.789
L60.2235 355.709
L60.5092 355.63
L60.6062 355.552
L60.897 355.472
L60.9939 355.398
L61.3744 355.291
L61.4693 355.226
L61.8533 355.129
L61.9508 355.056
L62.3366 354.945
L62.4309 354.871
L62.7235 354.783
L62.8191 354.692
L63.1073 354.603
L63.2028 354.516
L63.4926 354.434
L63.588 354.35
L63.8774 354.262
L63.9718 354.173
L64.2631 354.082
L64.3604 353.991
L64.65 353.9
L64.7468 353.807
L65.0326 353.706
L65.1278 353.605
L65.418 353.505
L65.5147 353.409
L65.8026 353.313
L65.8982 353.217
L66.1874 353.118
L66.2829 353.022
L66.575 352.929
L66.6742 352.842
L66.9615 352.754
L67.059 352.666
L67.3487 352.575
L67.45 352.481
L67.7417 352.385
L67.8378 352.291
L68.1288 352.194
L68.2262 352.104
L68.5152 352.015
L68.6109 351.93
L68.9021 351.843
L68.998 351.755
L69.2881 351.666
L69.3863 351.582
L69.6804 351.506
L69.7784 351.433
L70.1671 351.325
L70.2637 351.253
L70.5537 351.178
L70.6502 351.102
L70.9408 351.024
L71.0402 350.951
L71.43 350.849
L71.5271 350.781
L71.9178 350.686
L72.0158 350.623
L72.408 350.529
L72.5067 350.467
L72.8963 350.375
L72.9935 350.314
L73.3818 350.223
L73.4807 350.166
L73.8746 350.078
L73.9706 350.02
L74.3613 349.932
L74.4603 349.871
L74.8476 349.779
L74.9444 349.72
L75.3346 349.625
L75.433 349.559
L75.8234 349.462
L75.9209 349.403
L76.3078 349.314
L76.4048 349.248
L76.8004 349.151
L76.8989 349.085
L77.291 348.992
L77.3878 348.934
L77.7779 348.844
L77.8766 348.78
L78.2675 348.674
L78.3648 348.602
L78.7574 348.494
L78.8547 348.424
L79.2486 348.324
L79.3486 348.259
L79.742 348.167
L79.8418 348.109
L80.2347 348.018
L80.3302 347.958
L80.7232 347.87
L80.8209 347.815
L81.214 347.731
L81.31 347.677
L81.8038 347.572
L81.9039 347.519
L82.3946 347.417
L82.4928 347.366
L82.9846 347.261
L83.0815 347.21
L83.5777 347.116
L83.6768 347.074
L84.268 346.973
L84.3662 346.931
L84.8585 346.836
L84.9578 346.789
L85.447 346.701
L85.5466 346.654
L86.1429 346.544
L86.241 346.503
L86.8342 346.399
L86.9311 346.356
L87.5217 346.25
L87.6194 346.211
L88.2199 346.11
L88.3193 346.072
L88.9183 345.977
L89.0175 345.938
L89.612 345.843
L89.7122 345.799
L90.3048 345.692
L90.4048 345.649
L91.0043 345.544
L91.1047 345.502
L91.6989 345.4
L91.7977 345.36
L92.4903 345.25
L92.5901 345.218
L93.2815 345.113
L93.383 345.072
L93.9847 344.978
L94.0835 344.944
L94.7832 344.839
L94.8811 344.802
L95.5729 344.692
L95.6698 344.66
L96.372 344.561
L96.472 344.527
L97.1705 344.428
L97.2719 344.392
L97.9666 344.284
L98.0668 344.249
L98.7721 344.139
L98.8704 344.101
L99.4708 344.005
L99.5712 343.967
L100.171 343.868
L100.27 343.827
L100.769 343.736
L100.872 343.691
L101.378 343.602
L101.476 343.558
L102.07 343.451
L102.17 343.41
L102.772 343.31
L102.873 343.271
L103.571 343.168
L103.672 343.136
L104.378 343.034
L104.476 343.001
L105.181 342.897
L105.28 342.864
L105.987 342.768
L106.087 342.734
L106.788 342.632
L106.889 342.601
L107.592 342.504
L107.693 342.469
L108.392 342.359
L108.494 342.326
L109.196 342.221
L109.296 342.19
L109.998 342.096
L110.101 342.061
L110.812 341.956
L110.91 341.919
L111.507 341.823
L111.61 341.787
L112.312 341.691
L112.41 341.659
L113.12 341.56
L113.222 341.527
L113.93 341.424
L114.031 341.388
L114.735 341.292
L114.838 341.26
L115.652 341.157
L115.752 341.129
L116.557 341.023
L116.66 340.994
L117.472 340.891
L117.573 340.861
L118.382 340.759
L118.479 340.731
L119.292 340.626
L119.395 340.596
L120.305 340.488
L120.41 340.462
L121.22 340.36
L121.323 340.331
L122.128 340.221
L122.227 340.188
L122.949 340.083
L123.05 340.047
L123.659 339.955
L123.759 339.915
L124.365 339.818
L124.466 339.777
L125.074 339.678
L125.176 339.638
L125.786 339.538
L125.889 339.497
L126.501 339.395
L126.603 339.353
L127.214 339.249
L127.316 339.209
L127.929 339.111
L128.03 339.074
L128.64 338.975
L128.739 338.938
L129.456 338.833
L129.555 338.799
L130.27 338.702
L130.371 338.672
L131.191 338.569
L131.291 338.542
L132.209 338.436
L132.311 338.408
L133.128 338.303
L133.23 338.272
L134.043 338.162
L134.146 338.132
L135.063 338.022
L135.164 337.996
L136.083 337.897
L136.187 337.872
L137.116 337.77
L137.216 337.746
L138.142 337.645
L138.245 337.62
L139.262 337.516
L139.364 337.493
L140.387 337.389
L140.49 337.366
L141.823 337.256
L141.928 337.24
L143.358 337.132
L143.463 337.115
L144.903 337.01
L145.006 336.993
L146.34 336.886
L146.442 336.867
L147.671 336.763
L147.776 336.743
L148.804 336.641
L148.906 336.617
L149.828 336.516
L149.932 336.489
L150.861 336.38
L150.967 336.353
L151.992 336.245
L152.099 336.222
L153.138 336.113
L153.244 336.089
L154.375 335.981
L154.478 335.96
L155.712 335.852
L155.815 335.832
L157.053 335.728
L157.158 335.709
L158.401 335.605
L158.504 335.586
L159.736 335.48
L159.84 335.461
L161.186 335.352
L161.289 335.335
L162.627 335.224
L162.731 335.204
L163.878 335.098
L163.981 335.077
L165.115 334.97
L165.22 334.947
L166.364 334.838
L166.466 334.817
L167.603 334.715
L167.709 334.696
L168.951 334.591
L169.054 334.571
L170.299 334.461
L170.401 334.442
L171.756 334.332
L171.859 334.315
L173.215 334.207
L173.319 334.188
L174.672 334.083
L174.776 334.067
L176.334 333.958
L176.44 333.943
L178.196 333.832
L178.298 333.818
L179.965 333.709
L180.07 333.694
L181.835 333.584
L181.937 333.57
L183.612 333.46
L183.719 333.445
L185.5 333.335
L185.605 333.322
L187.584 333.212
L187.69 333.201
L189.468 333.096
L189.571 333.083
L191.238 332.978
L191.341 332.964
L193.018 332.857
L193.12 332.842
L194.484 332.739
L194.589 332.722
L196.052 332.619
L196.156 332.602
L197.518 332.495
L197.618 332.476
L198.991 332.368
L199.095 332.349
L200.474 332.246
L200.578 332.23
L202.262 332.125
L202.365 332.11
L204.045 332
L204.153 331.985
L205.728 331.88
L205.831 331.864
L207.301 331.759
L207.407 331.741
L208.778 331.635
L208.885 331.618
L210.459 331.51
L210.56 331.496
L212.139 331.386
L212.244 331.372
L214.048 331.265
L214.151 331.252
L216.044 331.144
L216.148 331.131
L217.831 331.026
L217.938 331.012
L219.527 330.907
L219.63 330.892
L221.202 330.785
L221.308 330.769
L222.897 330.661
L223.003 330.645
L224.574 330.535
L224.683 330.518
L226.055 330.412
L226.163 330.393
L227.524 330.287
L227.631 330.271
L228.897 330.168
L229.003 330.149
L230.282 330.04
L230.39 330.019
L231.653 329.908
L231.756 329.89
L233.031 329.789
L233.139 329.769
L234.402 329.666
L234.508 329.647
L235.89 329.539
L235.997 329.523
L237.487 329.414
L237.591 329.397
L238.974 329.293
L239.082 329.277
L240.465 329.175
L240.572 329.157
L242.05 329.053
L242.152 329.038
L243.96 328.928
L244.068 328.915
L246.099 328.806
L246.202 328.796
L248.641 328.685
L248.746 328.675
L251.093 328.566
L251.201 328.555
L253.437 328.447
L253.544 328.437
L255.67 328.331
L255.776 328.32
L257.9 328.211
L258.003 328.198
L259.917 328.092
L260.023 328.08
L262.05 327.974
L262.157 327.963
L264.51 327.856
L264.618 327.847
L267.711 327.739
L267.815 327.731
L270.923 327.621
L271.03 327.614
L274.245 327.506
L274.355 327.498
L277.567 327.388
L277.677 327.381
L280.768 327.27
L280.875 327.26
L283.662 327.152
L283.769 327.143
L286.552 327.036
L286.659 327.027
L289.243 326.917
L289.352 326.907
L291.604 326.801
L291.708 326.79
L294.174 326.68
L294.285 326.67
L296.866 326.559
L296.974 326.549
L299.441 326.441
L299.551 326.431
L302.355 326.322
L302.464 326.313
L305.592 326.205
L305.703 326.197
L308.614 326.087
L308.72 326.079
L311.739 325.971
L311.848 325.964
L315.933 325.854
L316.043 325.848
L321.972 325.737
L322.077 325.734
L328.139 325.625
L328.245 325.62
L332.039 325.512
L332.147 325.505
L336.478 325.396
L336.586 325.389
L341.24 325.279
L341.348 325.275
L348.079 325.165
L348.187 325.161
L353.723 325.052
L353.833 325.047
L360.579 324.938
L360.684 324.934
L414.287 324.823
L414.398 324.821
L422.515 324.71
L422.623 324.708
L430.418 324.597
L430.418 324.595
L436.807 324.485
L436.913 324.48
L443.851 324.37
L443.958 324.368
L459.816 324.257
L459.926 324.255
L470.529 324.146
L470.637 324.143
L481.253 324.032
L481.362 324.03
L541.957 323.919
L541.957 323.918
L544.841 323.883
L544.841 323.882" style="fill:none;stroke:#ff0000;stroke-width:0.5;"/>
   </g>
   <g id="matplotlib.axis_1">
    <g id="xtick_1">
     <g id="line2d_2">
      <defs>
       <path d="
M0 0
L0 -4" id="me710317776"/>
      </defs>
      <g>
       <use style="stroke:#000000;stroke-linecap:butt;stroke-width:0.5;" x="20.1203125" xlink:href="#me710317776" y="15.0092307692"/>
      </g>
     </g>
    </g>
    <g id="xtick_2">
     <g id="line2d_3">
      <defs>
       <path d="
M0 0
L0 -4" id="me710317776"/>
      </defs>
      <g>
       <use style="stroke:#000000;stroke-linecap:butt;stroke-width:0.5;" x="125.070506136" xlink:href="#me710317776" y="15.0092307692"/>
      </g>
     </g>
     <g id="text_1">
      <!-- 2e7 -->
      <defs>
       <path d="
M19.1875 8.29688
L53.6094 8.29688
L53.6094 0
L7.32812 0
L7.32812 8.29688
Q12.9375 14.1094 22.625 23.8906
Q32.3281 33.6875 34.8125 36.5312
Q39.5469 41.8438 41.4219 45.5312
Q43.3125 49.2188 43.3125 52.7812
Q43.3125 58.5938 39.2344 62.25
Q35.1562 65.9219 28.6094 65.9219
Q23.9688 65.9219 18.8125 64.3125
Q13.6719 62.7031 7.8125 59.4219
L7.8125 69.3906
Q13.7656 71.7812 18.9375 73
Q24.125 74.2188 28.4219 74.2188
Q39.75 74.2188 46.4844 68.5469
Q53.2188 62.8906 53.2188 53.4219
Q53.2188 48.9219 51.5312 44.8906
Q49.8594 40.875 45.4062 35.4062
Q44.1875 33.9844 37.6406 27.2188
Q31.1094 20.4531 19.1875 8.29688" id="BitstreamVeraSans-Roman-32"/>
       <path d="
M56.2031 29.5938
L56.2031 25.2031
L14.8906 25.2031
Q15.4844 15.9219 20.4844 11.0625
Q25.4844 6.20312 34.4219 6.20312
Q39.5938 6.20312 44.4531 7.46875
Q49.3125 8.73438 54.1094 11.2812
L54.1094 2.78125
Q49.2656 0.734375 44.1875 -0.34375
Q39.1094 -1.42188 33.8906 -1.42188
Q20.7969 -1.42188 13.1562 6.1875
Q5.51562 13.8125 5.51562 26.8125
Q5.51562 40.2344 12.7656 48.1094
Q20.0156 56 32.3281 56
Q43.3594 56 49.7812 48.8906
Q56.2031 41.7969 56.2031 29.5938
M47.2188 32.2344
Q47.125 39.5938 43.0938 43.9844
Q39.0625 48.3906 32.4219 48.3906
Q24.9062 48.3906 20.3906 44.1406
Q15.875 39.8906 15.1875 32.1719
z
" id="BitstreamVeraSans-Roman-65"/>
       <path d="
M8.20312 72.9062
L55.0781 72.9062
L55.0781 68.7031
L28.6094 0
L18.3125 0
L43.2188 64.5938
L8.20312 64.5938
z
" id="BitstreamVeraSans-Roman-37"/>
      </defs>
      <g transform="translate(116.425193636 26.4311057692)scale(0.1 -0.1)">
       <use xlink:href="#BitstreamVeraSans-Roman-32"/>
       <use x="63.623046875" xlink:href="#BitstreamVeraSans-Roman-65"/>
       <use x="125.146484375" xlink:href="#BitstreamVeraSans-Roman-37"/>
      </g>
     </g>
    </g>
    <g id="xtick_3">
     <g id="line2d_4">
      <defs>
       <path d="
M0 0
L0 -4" id="me710317776"/>
      </defs>
      <g>
       <use style="stroke:#000000;stroke-linecap:butt;stroke-width:0.5;" x="230.020699773" xlink:href="#me710317776" y="15.0092307692"/>
      </g>
     </g>
     <g id="text_2">
      <!-- 4e7 -->
      <defs>
       <path d="
M37.7969 64.3125
L12.8906 25.3906
L37.7969 25.3906
z

M35.2031 72.9062
L47.6094 72.9062
L47.6094 25.3906
L58.0156 25.3906
L58.0156 17.1875
L47.6094 17.1875
L47.6094 0
L37.7969 0
L37.7969 17.1875
L4.89062 17.1875
L4.89062 26.7031
z
" id="BitstreamVeraSans-Roman-34"/>
      </defs>
      <g transform="translate(221.253512273 26.2998557692)scale(0.1 -0.1)">
       <use xlink:href="#BitstreamVeraSans-Roman-34"/>
       <use x="63.623046875" xlink:href="#BitstreamVeraSans-Roman-65"/>
       <use x="125.146484375" xlink:href="#BitstreamVeraSans-Roman-37"/>
      </g>
     </g>
    </g>
    <g id="xtick_4">
     <g id="line2d_5">
      <defs>
       <path d="
M0 0
L0 -4" id="me710317776"/>
      </defs>
      <g>
       <use style="stroke:#000000;stroke-linecap:butt;stroke-width:0.5;" x="334.970893409" xlink:href="#me710317776" y="15.0092307692"/>
      </g>
     </g>
     <g id="text_3">
      <!-- 6e7 -->
      <defs>
       <path d="
M33.0156 40.375
Q26.375 40.375 22.4844 35.8281
Q18.6094 31.2969 18.6094 23.3906
Q18.6094 15.5312 22.4844 10.9531
Q26.375 6.39062 33.0156 6.39062
Q39.6562 6.39062 43.5312 10.9531
Q47.4062 15.5312 47.4062 23.3906
Q47.4062 31.2969 43.5312 35.8281
Q39.6562 40.375 33.0156 40.375
M52.5938 71.2969
L52.5938 62.3125
Q48.875 64.0625 45.0938 64.9844
Q41.3125 65.9219 37.5938 65.9219
Q27.8281 65.9219 22.6719 59.3281
Q17.5312 52.7344 16.7969 39.4062
Q19.6719 43.6562 24.0156 45.9219
Q28.375 48.1875 33.5938 48.1875
Q44.5781 48.1875 50.9531 41.5156
Q57.3281 34.8594 57.3281 23.3906
Q57.3281 12.1562 50.6875 5.35938
Q44.0469 -1.42188 33.0156 -1.42188
Q20.3594 -1.42188 13.6719 8.26562
Q6.98438 17.9688 6.98438 36.375
Q6.98438 53.6562 15.1875 63.9375
Q23.3906 74.2188 37.2031 74.2188
Q40.9219 74.2188 44.7031 73.4844
Q48.4844 72.75 52.5938 71.2969" id="BitstreamVeraSans-Roman-36"/>
      </defs>
      <g transform="translate(326.308393409 26.4311057692)scale(0.1 -0.1)">
       <use xlink:href="#BitstreamVeraSans-Roman-36"/>
       <use x="63.623046875" xlink:href="#BitstreamVeraSans-Roman-65"/>
       <use x="125.146484375" xlink:href="#BitstreamVeraSans-Roman-37"/>
      </g>
     </g>
    </g>
    <g id="xtick_5">
     <g id="line2d_6">
      <defs>
       <path d="
M0 0
L0 -4" id="me710317776"/>
      </defs>
      <g>
       <use style="stroke:#000000;stroke-linecap:butt;stroke-width:0.5;" x="439.921087046" xlink:href="#me710317776" y="15.0092307692"/>
      </g>
     </g>
     <g id="text_4">
      <!-- 8e7 -->
      <defs>
       <path d="
M31.7812 34.625
Q24.75 34.625 20.7188 30.8594
Q16.7031 27.0938 16.7031 20.5156
Q16.7031 13.9219 20.7188 10.1562
Q24.75 6.39062 31.7812 6.39062
Q38.8125 6.39062 42.8594 10.1719
Q46.9219 13.9688 46.9219 20.5156
Q46.9219 27.0938 42.8906 30.8594
Q38.875 34.625 31.7812 34.625
M21.9219 38.8125
Q15.5781 40.375 12.0312 44.7188
Q8.5 49.0781 8.5 55.3281
Q8.5 64.0625 14.7188 69.1406
Q20.9531 74.2188 31.7812 74.2188
Q42.6719 74.2188 48.875 69.1406
Q55.0781 64.0625 55.0781 55.3281
Q55.0781 49.0781 51.5312 44.7188
Q48 40.375 41.7031 38.8125
Q48.8281 37.1562 52.7969 32.3125
Q56.7812 27.4844 56.7812 20.5156
Q56.7812 9.90625 50.3125 4.23438
Q43.8438 -1.42188 31.7812 -1.42188
Q19.7344 -1.42188 13.25 4.23438
Q6.78125 9.90625 6.78125 20.5156
Q6.78125 27.4844 10.7812 32.3125
Q14.7969 37.1562 21.9219 38.8125
M18.3125 54.3906
Q18.3125 48.7344 21.8438 45.5625
Q25.3906 42.3906 31.7812 42.3906
Q38.1406 42.3906 41.7188 45.5625
Q45.3125 48.7344 45.3125 54.3906
Q45.3125 60.0625 41.7188 63.2344
Q38.1406 66.4062 31.7812 66.4062
Q25.3906 66.4062 21.8438 63.2344
Q18.3125 60.0625 18.3125 54.3906" id="BitstreamVeraSans-Roman-38"/>
      </defs>
      <g transform="translate(431.248430796 26.4311057692)scale(0.1 -0.1)">
       <use xlink:href="#BitstreamVeraSans-Roman-38"/>
       <use x="63.623046875" xlink:href="#BitstreamVeraSans-Roman-65"/>
       <use x="125.146484375" xlink:href="#BitstreamVeraSans-Roman-37"/>
      </g>
     </g>
    </g>
    <g id="xtick_6">
     <g id="line2d_7">
      <defs>
       <path d="
M0 0
L0 -4" id="me710317776"/>
      </defs>
      <g>
       <use style="stroke:#000000;stroke-linecap:butt;stroke-width:0.5;" x="544.871280682" xlink:href="#me710317776" y="15.0092307692"/>
      </g>
     </g>
     <g id="text_5">
      <!-- 1e8 -->
      <defs>
       <path d="
M12.4062 8.29688
L28.5156 8.29688
L28.5156 63.9219
L10.9844 60.4062
L10.9844 69.3906
L28.4219 72.9062
L38.2812 72.9062
L38.2812 8.29688
L54.3906 8.29688
L54.3906 0
L12.4062 0
z
" id="BitstreamVeraSans-Roman-31"/>
      </defs>
      <g transform="translate(536.323624432 26.4311057692)scale(0.1 -0.1)">
       <use xlink:href="#BitstreamVeraSans-Roman-31"/>
       <use x="63.623046875" xlink:href="#BitstreamVeraSans-Roman-65"/>
       <use x="125.146484375" xlink:href="#BitstreamVeraSans-Roman-38"/>
      </g>
     </g>
    </g>
    <g id="xtick_7">
     <g id="line2d_8">
      <defs>
       <path d="
M0 0
L0 -2" id="meb98f11492"/>
      </defs>
      <g>
       <use style="stroke:#000000;stroke-linecap:butt;stroke-width:0.5;" x="46.3578609091" xlink:href="#meb98f11492" y="15.0092307692"/>
      </g>
     </g>
    </g>
    <g id="xtick_8">
     <g id="line2d_9">
      <defs>
       <path d="
M0 0
L0 -2" id="meb98f11492"/>
      </defs>
      <g>
       <use style="stroke:#000000;stroke-linecap:butt;stroke-width:0.5;" x="72.5954093182" xlink:href="#meb98f11492" y="15.0092307692"/>
      </g>
     </g>
    </g>
    <g id="xtick_9">
     <g id="line2d_10">
      <defs>
       <path d="
M0 0
L0 -2" id="meb98f11492"/>
      </defs>
      <g>
       <use style="stroke:#000000;stroke-linecap:butt;stroke-width:0.5;" x="98.8329577274" xlink:href="#meb98f11492" y="15.0092307692"/>
      </g>
     </g>
    </g>
    <g id="xtick_10">
     <g id="line2d_11">
      <defs>
       <path d="
M0 0
L0 -2" id="meb98f11492"/>
      </defs>
      <g>
       <use style="stroke:#000000;stroke-linecap:butt;stroke-width:0.5;" x="151.308054546" xlink:href="#meb98f11492" y="15.0092307692"/>
      </g>
     </g>
    </g>
    <g id="xtick_11">
     <g id="line2d_12">
      <defs>
       <path d="
M0 0
L0 -2" id="meb98f11492"/>
      </defs>
      <g>
       <use style="stroke:#000000;stroke-linecap:butt;stroke-width:0.5;" x="177.545602955" xlink:href="#meb98f11492" y="15.0092307692"/>
      </g>
     </g>
    </g>
    <g id="xtick_12">
     <g id="line2d_13">
      <defs>
       <path d="
M0 0
L0 -2" id="meb98f11492"/>
      </defs>
      <g>
       <use style="stroke:#000000;stroke-linecap:butt;stroke-width:0.5;" x="203.783151364" xlink:href="#meb98f11492" y="15.0092307692"/>
      </g>
     </g>
    </g>
    <g id="xtick_13">
     <g id="line2d_14">
      <defs>
       <path d="
M0 0
L0 -2" id="meb98f11492"/>
      </defs>
      <g>
       <use style="stroke:#000000;stroke-linecap:butt;stroke-width:0.5;" x="256.258248182" xlink:href="#meb98f11492" y="15.0092307692"/>
      </g>
     </g>
    </g>
    <g id="xtick_14">
     <g id="line2d_15">
      <defs>
       <path d="
M0 0
L0 -2" id="meb98f11492"/>
      </defs>
      <g>
       <use style="stroke:#000000;stroke-linecap:butt;stroke-width:0.5;" x="282.495796591" xlink:href="#meb98f11492" y="15.0092307692"/>
      </g>
     </g>
    </g>
    <g id="xtick_15">
     <g id="line2d_16">
      <defs>
       <path d="
M0 0
L0 -2" id="meb98f11492"/>
      </defs>
      <g>
       <use style="stroke:#000000;stroke-linecap:butt;stroke-width:0.5;" x="308.733345" xlink:href="#meb98f11492" y="15.0092307692"/>
      </g>
     </g>
    </g>
    <g id="xtick_16">
     <g id="line2d_17">
      <defs>
       <path d="
M0 0
L0 -2" id="meb98f11492"/>
      </defs>
      <g>
       <use style="stroke:#000000;stroke-linecap:butt;stroke-width:0.5;" x="361.208441819" xlink:href="#meb98f11492" y="15.0092307692"/>
      </g>
     </g>
    </g>
    <g id="xtick_17">
     <g id="line2d_18">
      <defs>
       <path d="
M0 0
L0 -2" id="meb98f11492"/>
      </defs>
      <g>
       <use style="stroke:#000000;stroke-linecap:butt;stroke-width:0.5;" x="387.445990228" xlink:href="#meb98f11492" y="15.0092307692"/>
      </g>
     </g>
    </g>
    <g id="xtick_18">
     <g id="line2d_19">
      <defs>
       <path d="
M0 0
L0 -2" id="meb98f11492"/>
      </defs>
      <g>
       <use style="stroke:#000000;stroke-linecap:butt;stroke-width:0.5;" x="413.683538637" xlink:href="#meb98f11492" y="15.0092307692"/>
      </g>
     </g>
    </g>
    <g id="xtick_19">
     <g id="line2d_20">
      <defs>
       <path d="
M0 0
L0 -2" id="meb98f11492"/>
      </defs>
      <g>
       <use style="stroke:#000000;stroke-linecap:butt;stroke-width:0.5;" x="466.158635455" xlink:href="#meb98f11492" y="15.0092307692"/>
      </g>
     </g>
    </g>
    <g id="xtick_20">
     <g id="line2d_21">
      <defs>
       <path d="
M0 0
L0 -2" id="meb98f11492"/>
      </defs>
      <g>
       <use style="stroke:#000000;stroke-linecap:butt;stroke-width:0.5;" x="492.396183864" xlink:href="#meb98f11492" y="15.0092307692"/>
      </g>
     </g>
    </g>
    <g id="xtick_21">
     <g id="line2d_22">
      <defs>
       <path d="
M0 0
L0 -2" id="meb98f11492"/>
      </defs>
      <g>
       <use style="stroke:#000000;stroke-linecap:butt;stroke-width:0.5;" x="518.633732273" xlink:href="#meb98f11492" y="15.0092307692"/>
      </g>
     </g>
    </g>
   </g>
   <g id="matplotlib.axis_2">
    <g id="ytick_1">
     <g id="line2d_23">
      <defs>
       <path d="
M0 0
L4 0" id="m026aa5c960"/>
      </defs>
      <g>
       <use style="stroke:#000000;stroke-linecap:butt;stroke-width:0.5;" x="20.1203125" xlink:href="#m026aa5c960" y="388.707509453"/>
      </g>
     </g>
     <g id="text_6">
      <!-- -5 -->
      <defs>
       <path d="
M4.89062 31.3906
L31.2031 31.3906
L31.2031 23.3906
L4.89062 23.3906
z
" id="BitstreamVeraSans-Roman-2d"/>
       <path d="
M10.7969 72.9062
L49.5156 72.9062
L49.5156 64.5938
L19.8281 64.5938
L19.8281 46.7344
Q21.9688 47.4688 24.1094 47.8281
Q26.2656 48.1875 28.4219 48.1875
Q40.625 48.1875 47.75 41.5
Q54.8906 34.8125 54.8906 23.3906
Q54.8906 11.625 47.5625 5.09375
Q40.2344 -1.42188 26.9062 -1.42188
Q22.3125 -1.42188 17.5469 -0.640625
Q12.7969 0.140625 7.71875 1.70312
L7.71875 11.625
Q12.1094 9.23438 16.7969 8.0625
Q21.4844 6.89062 26.7031 6.89062
Q35.1562 6.89062 40.0781 11.3281
Q45.0156 15.7656 45.0156 23.3906
Q45.0156 31 40.0781 35.4375
Q35.1562 39.8906 26.7031 39.8906
Q22.75 39.8906 18.8125 39.0156
Q14.8906 38.1406 10.7969 36.2812
z
" id="BitstreamVeraSans-Roman-35"/>
      </defs>
      <g transform="translate(7.5125 392.281728203)scale(0.1 -0.1)">
       <use xlink:href="#BitstreamVeraSans-Roman-2d"/>
       <use x="36.083984375" xlink:href="#BitstreamVeraSans-Roman-35"/>
      </g>
     </g>
    </g>
    <g id="ytick_2">
     <g id="line2d_24">
      <defs>
       <path d="
M0 0
L4 0" id="m026aa5c960"/>
      </defs>
      <g>
       <use style="stroke:#000000;stroke-linecap:butt;stroke-width:0.5;" x="20.1203125" xlink:href="#m026aa5c960" y="313.967853716"/>
      </g>
     </g>
     <g id="text_7">
      <!-- -4 -->
      <g transform="translate(7.2 317.613166216)scale(0.1 -0.1)">
       <use xlink:href="#BitstreamVeraSans-Roman-2d"/>
       <use x="36.083984375" xlink:href="#BitstreamVeraSans-Roman-34"/>
      </g>
     </g>
    </g>
    <g id="ytick_3">
     <g id="line2d_25">
      <defs>
       <path d="
M0 0
L4 0" id="m026aa5c960"/>
      </defs>
      <g>
       <use style="stroke:#000000;stroke-linecap:butt;stroke-width:0.5;" x="20.1203125" xlink:href="#m026aa5c960" y="239.22819798"/>
      </g>
     </g>
     <g id="text_8">
      <!-- -3 -->
      <defs>
       <path d="
M40.5781 39.3125
Q47.6562 37.7969 51.625 33
Q55.6094 28.2188 55.6094 21.1875
Q55.6094 10.4062 48.1875 4.48438
Q40.7656 -1.42188 27.0938 -1.42188
Q22.5156 -1.42188 17.6562 -0.515625
Q12.7969 0.390625 7.625 2.20312
L7.625 11.7188
Q11.7188 9.32812 16.5938 8.10938
Q21.4844 6.89062 26.8125 6.89062
Q36.0781 6.89062 40.9375 10.5469
Q45.7969 14.2031 45.7969 21.1875
Q45.7969 27.6406 41.2812 31.2656
Q36.7656 34.9062 28.7188 34.9062
L20.2188 34.9062
L20.2188 43.0156
L29.1094 43.0156
Q36.375 43.0156 40.2344 45.9219
Q44.0938 48.8281 44.0938 54.2969
Q44.0938 59.9062 40.1094 62.9062
Q36.1406 65.9219 28.7188 65.9219
Q24.6562 65.9219 20.0156 65.0312
Q15.375 64.1562 9.8125 62.3125
L9.8125 71.0938
Q15.4375 72.6562 20.3438 73.4375
Q25.25 74.2188 29.5938 74.2188
Q40.8281 74.2188 47.3594 69.1094
Q53.9062 64.0156 53.9062 55.3281
Q53.9062 49.2656 50.4375 45.0938
Q46.9688 40.9219 40.5781 39.3125" id="BitstreamVeraSans-Roman-33"/>
      </defs>
      <g transform="translate(7.440625 242.86804173)scale(0.1 -0.1)">
       <use xlink:href="#BitstreamVeraSans-Roman-2d"/>
       <use x="36.083984375" xlink:href="#BitstreamVeraSans-Roman-33"/>
      </g>
     </g>
    </g>
    <g id="ytick_4">
     <g id="line2d_26">
      <defs>
       <path d="
M0 0
L4 0" id="m026aa5c960"/>
      </defs>
      <g>
       <use style="stroke:#000000;stroke-linecap:butt;stroke-width:0.5;" x="20.1203125" xlink:href="#m026aa5c960" y="164.488542243"/>
      </g>
     </g>
     <g id="text_9">
      <!-- -2 -->
      <g transform="translate(7.640625 168.199479743)scale(0.1 -0.1)">
       <use xlink:href="#BitstreamVeraSans-Roman-2d"/>
       <use x="36.083984375" xlink:href="#BitstreamVeraSans-Roman-32"/>
      </g>
     </g>
    </g>
    <g id="ytick_5">
     <g id="line2d_27">
      <defs>
       <path d="
M0 0
L4 0" id="m026aa5c960"/>
      </defs>
      <g>
       <use style="stroke:#000000;stroke-linecap:butt;stroke-width:0.5;" x="20.1203125" xlink:href="#m026aa5c960" y="89.748886506"/>
      </g>
     </g>
     <g id="text_10">
      <!-- -1 -->
      <g transform="translate(7.5625 93.394199006)scale(0.1 -0.1)">
       <use xlink:href="#BitstreamVeraSans-Roman-2d"/>
       <use x="36.083984375" xlink:href="#BitstreamVeraSans-Roman-31"/>
      </g>
     </g>
    </g>
    <g id="ytick_6">
     <g id="line2d_28">
      <defs>
       <path d="
M0 0
L4 0" id="m026aa5c960"/>
      </defs>
      <g>
       <use style="stroke:#000000;stroke-linecap:butt;stroke-width:0.5;" x="20.1203125" xlink:href="#m026aa5c960" y="15.0092307692"/>
      </g>
     </g>
    </g>
    <g id="ytick_7">
     <g id="line2d_29">
      <defs>
       <path d="
M0 0
L2 0" id="mf205476bd8"/>
      </defs>
      <g>
       <use style="stroke:#000000;stroke-linecap:butt;stroke-width:0.5;" x="20.1203125" xlink:href="#mf205476bd8" y="403.655440601"/>
      </g>
     </g>
    </g>
    <g id="ytick_8">
     <g id="line2d_30">
      <defs>
       <path d="
M0 0
L2 0" id="mf205476bd8"/>
      </defs>
      <g>
       <use style="stroke:#000000;stroke-linecap:butt;stroke-width:0.5;" x="20.1203125" xlink:href="#mf205476bd8" y="373.759578306"/>
      </g>
     </g>
    </g>
    <g id="ytick_9">
     <g id="line2d_31">
      <defs>
       <path d="
M0 0
L2 0" id="mf205476bd8"/>
      </defs>
      <g>
       <use style="stroke:#000000;stroke-linecap:butt;stroke-width:0.5;" x="20.1203125" xlink:href="#mf205476bd8" y="358.811647158"/>
      </g>
     </g>
    </g>
    <g id="ytick_10">
     <g id="line2d_32">
      <defs>
       <path d="
M0 0
L2 0" id="mf205476bd8"/>
      </defs>
      <g>
       <use style="stroke:#000000;stroke-linecap:butt;stroke-width:0.5;" x="20.1203125" xlink:href="#mf205476bd8" y="343.863716011"/>
      </g>
     </g>
    </g>
    <g id="ytick_11">
     <g id="line2d_33">
      <defs>
       <path d="
M0 0
L2 0" id="mf205476bd8"/>
      </defs>
      <g>
       <use style="stroke:#000000;stroke-linecap:butt;stroke-width:0.5;" x="20.1203125" xlink:href="#mf205476bd8" y="328.915784864"/>
      </g>
     </g>
    </g>
    <g id="ytick_12">
     <g id="line2d_34">
      <defs>
       <path d="
M0 0
L2 0" id="mf205476bd8"/>
      </defs>
      <g>
       <use style="stroke:#000000;stroke-linecap:butt;stroke-width:0.5;" x="20.1203125" xlink:href="#mf205476bd8" y="299.019922569"/>
      </g>
     </g>
    </g>
    <g id="ytick_13">
     <g id="line2d_35">
      <defs>
       <path d="
M0 0
L2 0" id="mf205476bd8"/>
      </defs>
      <g>
       <use style="stroke:#000000;stroke-linecap:butt;stroke-width:0.5;" x="20.1203125" xlink:href="#mf205476bd8" y="284.071991422"/>
      </g>
     </g>
    </g>
    <g id="ytick_14">
     <g id="line2d_36">
      <defs>
       <path d="
M0 0
L2 0" id="mf205476bd8"/>
      </defs>
      <g>
       <use style="stroke:#000000;stroke-linecap:butt;stroke-width:0.5;" x="20.1203125" xlink:href="#mf205476bd8" y="269.124060274"/>
      </g>
     </g>
    </g>
    <g id="ytick_15">
     <g id="line2d_37">
      <defs>
       <path d="
M0 0
L2 0" id="mf205476bd8"/>
      </defs>
      <g>
       <use style="stroke:#000000;stroke-linecap:butt;stroke-width:0.5;" x="20.1203125" xlink:href="#mf205476bd8" y="254.176129127"/>
      </g>
     </g>
    </g>
    <g id="ytick_16">
     <g id="line2d_38">
      <defs>
       <path d="
M0 0
L2 0" id="mf205476bd8"/>
      </defs>
      <g>
       <use style="stroke:#000000;stroke-linecap:butt;stroke-width:0.5;" x="20.1203125" xlink:href="#mf205476bd8" y="239.22819798"/>
      </g>
     </g>
    </g>
    <g id="ytick_17">
     <g id="line2d_39">
      <defs>
       <path d="
M0 0
L2 0" id="mf205476bd8"/>
      </defs>
      <g>
       <use style="stroke:#000000;stroke-linecap:butt;stroke-width:0.5;" x="20.1203125" xlink:href="#mf205476bd8" y="224.280266832"/>
      </g>
     </g>
    </g>
    <g id="ytick_18">
     <g id="line2d_40">
      <defs>
       <path d="
M0 0
L2 0" id="mf205476bd8"/>
      </defs>
      <g>
       <use style="stroke:#000000;stroke-linecap:butt;stroke-width:0.5;" x="20.1203125" xlink:href="#mf205476bd8" y="209.332335685"/>
      </g>
     </g>
    </g>
    <g id="ytick_19">
     <g id="line2d_41">
      <defs>
       <path d="
M0 0
L2 0" id="mf205476bd8"/>
      </defs>
      <g>
       <use style="stroke:#000000;stroke-linecap:butt;stroke-width:0.5;" x="20.1203125" xlink:href="#mf205476bd8" y="194.384404538"/>
      </g>
     </g>
    </g>
    <g id="ytick_20">
     <g id="line2d_42">
      <defs>
       <path d="
M0 0
L2 0" id="mf205476bd8"/>
      </defs>
      <g>
       <use style="stroke:#000000;stroke-linecap:butt;stroke-width:0.5;" x="20.1203125" xlink:href="#mf205476bd8" y="179.43647339"/>
      </g>
     </g>
    </g>
    <g id="ytick_21">
     <g id="line2d_43">
      <defs>
       <path d="
M0 0
L2 0" id="mf205476bd8"/>
      </defs>
      <g>
       <use style="stroke:#000000;stroke-linecap:butt;stroke-width:0.5;" x="20.1203125" xlink:href="#mf205476bd8" y="164.488542243"/>
      </g>
     </g>
    </g>
    <g id="ytick_22">
     <g id="line2d_44">
      <defs>
       <path d="
M0 0
L2 0" id="mf205476bd8"/>
      </defs>
      <g>
       <use style="stroke:#000000;stroke-linecap:butt;stroke-width:0.5;" x="20.1203125" xlink:href="#mf205476bd8" y="149.540611095"/>
      </g>
     </g>
    </g>
    <g id="ytick_23">
     <g id="line2d_45">
      <defs>
       <path d="
M0 0
L2 0" id="mf205476bd8"/>
      </defs>
      <g>
       <use style="stroke:#000000;stroke-linecap:butt;stroke-width:0.5;" x="20.1203125" xlink:href="#mf205476bd8" y="134.592679948"/>
      </g>
     </g>
    </g>
    <g id="ytick_24">
     <g id="line2d_46">
      <defs>
       <path d="
M0 0
L2 0" id="mf205476bd8"/>
      </defs>
      <g>
       <use style="stroke:#000000;stroke-linecap:butt;stroke-width:0.5;" x="20.1203125" xlink:href="#mf205476bd8" y="119.644748801"/>
      </g>
     </g>
    </g>
    <g id="ytick_25">
     <g id="line2d_47">
      <defs>
       <path d="
M0 0
L2 0" id="mf205476bd8"/>
      </defs>
      <g>
       <use style="stroke:#000000;stroke-linecap:butt;stroke-width:0.5;" x="20.1203125" xlink:href="#mf205476bd8" y="104.696817653"/>
      </g>
     </g>
    </g>
    <g id="ytick_26">
     <g id="line2d_48">
      <defs>
       <path d="
M0 0
L2 0" id="mf205476bd8"/>
      </defs>
      <g>
       <use style="stroke:#000000;stroke-linecap:butt;stroke-width:0.5;" x="20.1203125" xlink:href="#mf205476bd8" y="89.748886506"/>
      </g>
     </g>
    </g>
    <g id="ytick_27">
     <g id="line2d_49">
      <defs>
       <path d="
M0 0
L2 0" id="mf205476bd8"/>
      </defs>
      <g>
       <use style="stroke:#000000;stroke-linecap:butt;stroke-width:0.5;" x="20.1203125" xlink:href="#mf205476bd8" y="74.8009553587"/>
      </g>
     </g>
    </g>
    <g id="ytick_28">
     <g id="line2d_50">
      <defs>
       <path d="
M0 0
L2 0" id="mf205476bd8"/>
      </defs>
      <g>
       <use style="stroke:#000000;stroke-linecap:butt;stroke-width:0.5;" x="20.1203125" xlink:href="#mf205476bd8" y="59.8530242113"/>
      </g>
     </g>
    </g>
    <g id="ytick_29">
     <g id="line2d_51">
      <defs>
       <path d="
M0 0
L2 0" id="mf205476bd8"/>
      </defs>
      <g>
       <use style="stroke:#000000;stroke-linecap:butt;stroke-width:0.5;" x="20.1203125" xlink:href="#mf205476bd8" y="44.9050930639"/>
      </g>
     </g>
    </g>
    <g id="ytick_30">
     <g id="line2d_52">
      <defs>
       <path d="
M0 0
L2 0" id="mf205476bd8"/>
      </defs>
      <g>
       <use style="stroke:#000000;stroke-linecap:butt;stroke-width:0.5;" x="20.1203125" xlink:href="#mf205476bd8" y="29.9571619166"/>
      </g>
     </g>
    </g>
   </g>
   <g id="patch_3">
    <path d="
M9.6259 15.0092
L555.336 15.0092" style="fill:none;stroke:#000000;stroke-width:0.8;"/>
   </g>
   <g id="patch_4">
    <path d="
M20.1203 413.28
L20.1203 7.2" style="fill:none;stroke:#000000;stroke-width:0.8;"/>
   </g>
  </g>
 </g>
 <defs>
  <clipPath id="pbf9a93ed35">
   <rect height="406.08" width="545.709992448" x="9.62590006332" y="7.2"/>
  </clipPath>
 </defs>
</svg>
