<?xml version="1.0" encoding="utf-8" standalone="no"?>
<!DOCTYPE svg PUBLIC "-//W3C//DTD SVG 1.1//EN"
  "http://www.w3.org/Graphics/SVG/1.1/DTD/svg11.dtd">
<!-- Created with matplotlib (http://matplotlib.sourceforge.net/) -->
<svg height="420pt" version="1.1" viewBox="0 0 562 420" width="562pt" xmlns="http://www.w3.org/2000/svg" xmlns:xlink="http://www.w3.org/1999/xlink">
 <defs>
  <style type="text/css">
*{stroke-linecap:square;stroke-linejoin:round;}
  </style>
 </defs>
 <g id="figure_1">
  <g id="patch_1">
   <path d="
M0 420.48
L562.7 420.48
L562.7 0
L0 0
z
" style="fill:#ffffff;"/>
  </g>
  <g id="axes_1">
   <g id="patch_2">
    <path d="
M19.3504 413.28
L555.5 413.28
L555.5 7.2
L19.3504 7.2
z
" style="fill:#ffffff;"/>
   </g>
   <g id="line2d_1">
    <path clip-path="url(#p9594e53bbf)" d="
M29.6609 15.0092
L29.7159 15.0092
L29.7159 405.471
L29.7789 351.014
L29.8449 351.014
L29.913 322.543
L29.9823 322.543
L30.053 298.694
L30.1242 298.694
L30.1967 284.268
L30.2695 284.268
L30.3432 275.961
L30.4174 275.961
L30.4923 270.027
L30.5675 270.027
L30.6431 264.434
L30.719 264.434
L30.7955 260.771
L30.8725 260.771
L30.9496 256.904
L31.0268 256.904
L31.1047 255.475
L31.1826 255.475
L31.2609 253.343
L31.3389 253.343
L31.4178 250.433
L31.4976 250.433
L31.5763 248.752
L31.6556 248.752
L31.7355 247.518
L31.8153 247.518
L31.8955 247.014
L31.9752 247.014
L32.056 247.262
L32.2169 247.314
L32.2979 246.442
L32.3788 246.442
L32.4601 244.809
L32.5418 244.809
L32.6236 243.041
L32.7053 243.041
L32.7871 240.864
L32.8693 240.864
L32.9512 238.774
L33.0337 238.774
L33.116 236.371
L33.1981 236.371
L33.2804 234.034
L33.3631 234.034
L33.446 232.63
L33.5292 232.63
L33.6122 231.874
L33.6955 231.874
L33.7785 231.202
L33.8626 231.202
L33.9457 229.708
L34.0297 229.708
L34.1127 228.298
L34.1961 228.298
L34.2803 226.835
L34.3648 226.835
L34.4484 225.276
L34.5328 225.276
L34.6171 223.732
L34.7015 223.732
L34.7861 222.481
L34.871 222.481
L34.9555 221.271
L35.0402 221.271
L35.1248 220.024
L35.2093 220.024
L35.2943 218.804
L35.3792 218.804
L35.4641 217.213
L35.5498 217.213
L35.6347 215.984
L35.7199 215.984
L35.8053 214.758
L35.8908 214.758
L35.9765 213.753
L36.0615 213.753
L36.1476 212.862
L36.2328 212.862
L36.3188 212.059
L36.4053 212.059
L36.4913 211.456
L36.5774 211.456
L36.6641 210.806
L36.7498 210.806
L36.8354 210.152
L36.9223 210.152
L37.0087 209.441
L37.0945 209.441
L37.181 208.764
L37.2678 208.764
L37.3544 207.998
L37.4413 207.998
L37.5281 207.203
L37.6153 207.203
L37.7014 206.529
L37.7885 206.529
L37.8751 205.915
L37.9623 205.915
L38.0492 205.499
L38.1366 205.499
L38.2239 205.046
L38.3109 205.046
L38.398 204.51
L38.4848 204.51
L38.5728 204.077
L38.6595 204.077
L38.7465 203.706
L38.8342 203.706
L38.9216 203.32
L39.0097 203.32
L39.0971 202.941
L39.1851 202.941
L39.2728 202.623
L39.3607 202.623
L39.4485 202.218
L39.5366 202.218
L39.6245 201.87
L39.7125 201.87
L39.801 201.355
L39.8887 201.355
L39.9765 200.772
L40.0644 200.772
L40.1533 200.226
L40.2416 200.226
L40.3297 199.781
L40.4181 199.781
L40.5064 199.392
L40.5953 199.392
L40.6836 198.974
L40.7721 198.974
L40.8605 198.594
L40.9488 198.594
L41.0368 198.254
L41.1268 198.254
L41.2157 197.935
L41.3042 197.935
L41.3929 197.555
L41.4816 197.555
L41.5705 197.133
L41.6594 197.133
L41.7484 196.555
L41.8375 196.555
L41.9267 195.972
L42.016 195.972
L42.1051 195.464
L42.1933 195.464
L42.2828 194.985
L42.3722 194.985
L42.4611 194.524
L42.5506 194.524
L42.64 194.039
L42.7301 194.039
L42.8198 193.612
L42.9092 193.612
L42.998 193.258
L43.0875 193.258
L43.1772 192.821
L43.2671 192.821
L43.3558 192.187
L43.4458 192.187
L43.5354 191.554
L43.6249 191.554
L43.7147 191.004
L43.8046 191.004
L43.8938 190.459
L43.984 190.459
L44.0741 189.919
L44.164 189.919
L44.2535 189.387
L44.344 189.387
L44.4334 188.848
L44.5241 188.848
L44.6142 188.336
L44.7047 188.336
L44.7944 187.826
L44.885 187.826
L44.975 187.369
L45.0652 187.369
L45.1547 186.959
L45.2444 186.959
L45.3344 186.572
L45.4253 186.572
L45.5151 186.197
L45.6053 186.197
L45.6969 185.767
L45.7874 185.767
L45.8779 185.352
L45.9686 185.352
L46.0594 184.959
L46.1496 184.959
L46.24 184.562
L46.331 184.562
L46.4214 184.189
L46.512 184.189
L46.6029 183.822
L46.6935 183.822
L46.7843 183.479
L46.8744 183.479
L46.9654 183.173
L47.0566 183.173
L47.147 182.938
L47.3306 182.844
L47.4224 182.666
L47.6046 182.587
L47.6952 182.402
L47.8777 182.304
L47.9689 182.097
L48.1512 181.992
L48.2423 181.744
L48.4247 181.646
L48.5162 181.484
L48.6999 181.395
L48.7905 181.214
L48.9736 181.11
L49.0646 180.919
L49.2481 180.833
L49.3391 180.682
L49.5212 180.6
L49.6136 180.454
L49.8874 180.347
L49.9784 180.191
L50.1613 180.105
L50.2536 179.954
L50.5287 179.85
L50.6212 179.727
L50.8962 179.622
L50.9886 179.576
L51.2648 179.502
L51.3579 179.413
L51.7255 179.332
L51.8184 179.273
L52.0946 179.207
L52.1872 179.075
L52.4644 178.985
L52.5567 178.93
L52.9253 178.84
L53.0175 178.784
L53.7569 178.692
L53.8491 178.638
L54.1276 178.538
L54.2202 178.458
L54.4992 178.37
L54.5921 178.257
L54.7782 178.193
L54.8711 178.043
L55.1492 177.936
L55.2413 177.807
L55.52 177.72
L55.613 177.65
L55.9856 177.578
L56.0787 177.491
L56.3576 177.399
L56.4502 177.306
L56.6372 177.251
L56.7303 177.108
L56.9166 177.05
L57.01 176.935
L57.2905 176.824
L57.3835 176.699
L57.5701 176.635
L57.6643 176.49
L57.8508 176.401
L57.9449 176.229
L58.1315 176.148
L58.2251 175.97
L58.4116 175.885
L58.5056 175.709
L58.6917 175.636
L58.7861 175.48
L58.9723 175.404
L59.0662 175.244
L59.2525 175.167
L59.3466 175.013
L59.5346 174.943
L59.6286 174.788
L59.8163 174.712
L59.9097 174.56
L60.0969 174.474
L60.1911 174.31
L60.3794 174.227
L60.4732 174.069
L60.6612 173.998
L60.7549 173.883
L60.9423 173.817
L61.0354 173.682
L61.2243 173.61
L61.319 173.448
L61.5074 173.356
L61.6013 173.163
L61.7892 173.058
L61.8835 172.852
L62.0718 172.752
L62.1663 172.548
L62.2601 172.548
L62.3543 172.325
L62.5425 172.226
L62.6359 172.034
L62.8244 171.939
L62.9188 171.759
L63.1089 171.686
L63.2026 171.546
L63.3918 171.478
L63.486 171.354
L63.6749 171.293
L63.7691 171.156
L63.9566 171.081
L64.0506 170.911
L64.2403 170.833
L64.3346 170.67
L64.5227 170.586
L64.6175 170.434
L64.8065 170.359
L64.9011 170.207
L65.0905 170.128
L65.1855 169.992
L65.3758 169.926
L65.4693 169.806
L65.6582 169.733
L65.7535 169.58
L65.9427 169.504
L66.0367 169.358
L66.2274 169.275
L66.322 169.121
L66.5111 169.04
L66.6055 168.884
L66.7964 168.81
L66.8899 168.656
L67.0794 168.578
L67.1749 168.418
L67.3643 168.342
L67.4595 168.19
L67.6492 168.109
L67.7442 167.946
L67.9349 167.873
L68.0303 167.739
L68.2203 167.666
L68.3155 167.536
L68.5051 167.477
L68.5996 167.35
L68.7896 167.282
L68.8845 167.154
L69.0755 167.083
L69.1712 166.94
L69.3617 166.862
L69.4568 166.702
L69.6477 166.621
L69.7431 166.47
L69.9334 166.395
L70.0293 166.25
L70.2202 166.178
L70.3158 166.032
L70.5063 165.952
L70.6018 165.792
L70.7926 165.71
L70.8878 165.536
L71.079 165.45
L71.1741 165.28
L71.3647 165.191
L71.4594 165.019
L71.6498 164.946
L71.7454 164.8
L71.9365 164.732
L72.0319 164.605
L72.2238 164.538
L72.3192 164.408
L72.5102 164.351
L72.606 164.217
L72.798 164.14
L72.8931 163.982
L73.085 163.908
L73.1806 163.755
L73.3719 163.679
L73.4679 163.528
L73.6598 163.456
L73.755 163.311
L73.9468 163.246
L74.0422 163.119
L74.2343 163.051
L74.3297 162.922
L74.5218 162.857
L74.6177 162.73
L74.8098 162.664
L74.9061 162.532
L75.0971 162.469
L75.1923 162.363
L75.4809 162.263
L75.5768 162.174
L75.8649 162.078
L75.9624 161.975
L76.2491 161.889
L76.3455 161.811
L76.6338 161.729
L76.7289 161.653
L77.2101 161.55
L77.307 161.501
L77.8841 161.409
L77.9812 161.366
L78.5576 161.261
L78.6529 161.225
L79.3281 161.117
L79.4249 161.064
L79.8101 160.977
L79.9066 160.93
L80.5814 160.829
L80.6789 160.809
L85.9987 160.698
L86.0953 160.676
L89.5972 160.786
L89.694 160.825
L90.4737 160.919
L90.5715 160.962
L91.1581 161.07
L91.2554 161.103
L94.8672 161.001
L94.965 160.971
L95.65 160.869
L95.7479 160.826
L101.145 160.718
L101.243 160.707
L102.522 160.601
L102.621 160.573
L103.504 160.472
L103.602 160.442
L104.489 160.336
L104.588 160.305
L105.473 160.199
L105.572 160.176
L106.855 160.072
L106.954 160.057
L108.734 159.947
L108.833 159.935
L110.611 159.827
L110.711 159.814
L112.097 159.718
L112.196 159.687
L112.989 159.582
L113.088 159.551
L113.683 159.46
L113.783 159.415
L114.277 159.32
L114.376 159.259
L114.773 159.161
L114.873 159.103
L115.27 159.018
L115.37 158.952
L115.766 158.854
L115.865 158.793
L116.262 158.709
L116.361 158.652
L116.758 158.557
L116.857 158.49
L117.254 158.385
L117.353 158.32
L117.751 158.231
L117.85 158.177
L118.346 158.067
L118.446 158.006
L118.844 157.923
L118.943 157.864
L119.341 157.771
L119.44 157.709
L119.839 157.616
L119.938 157.553
L120.435 157.458
L120.534 157.415
L121.031 157.31
L121.131 157.261
L121.629 157.173
L121.729 157.122
L122.226 157.027
L122.325 156.981
L122.824 156.887
L122.924 156.844
L123.524 156.733
L123.624 156.691
L124.323 156.587
L124.423 156.56
L126.118 156.45
L126.217 156.444
L130.618 156.551
L130.717 156.573
L131.823 156.678
L131.923 156.699
L132.823 156.803
L132.923 156.834
L133.726 156.943
L133.826 156.98
L134.428 157.076
L134.528 157.121
L135.03 157.218
L135.129 157.267
L135.832 157.377
L135.933 157.405
L137.036 157.513
L137.137 157.531
L138.544 157.634
L138.644 157.653
L140.254 157.762
L140.354 157.769
L143.778 157.661
L143.879 157.642
L144.984 157.538
L145.085 157.518
L146.296 157.408
L146.397 157.39
L150.74 157.496
L150.841 157.518
L152.354 157.624
L152.455 157.637
L154.783 157.538
L154.884 157.513
L155.996 157.404
L156.097 157.387
L157.416 157.278
L157.517 157.254
L158.428 157.145
L158.53 157.115
L159.341 157.006
L159.442 156.973
L160.153 156.871
L160.254 156.84
L161.167 156.734
L161.268 156.704
L162.082 156.604
L162.182 156.578
L163.198 156.468
L163.299 156.445
L164.314 156.336
L164.417 156.315
L165.431 156.205
L165.533 156.178
L166.55 156.072
L166.651 156.05
L167.772 155.946
L167.874 155.925
L169.096 155.821
L169.197 155.803
L170.421 155.698
L170.524 155.676
L172.05 155.568
L172.151 155.557
L173.986 155.452
L174.088 155.438
L175.413 155.328
L175.515 155.3
L176.333 155.199
L176.435 155.167
L177.253 155.063
L177.356 155.038
L178.58 154.929
L178.681 154.911
L180.011 154.803
L180.112 154.781
L181.134 154.673
L181.235 154.646
L182.157 154.537
L182.259 154.512
L183.383 154.401
L183.485 154.378
L184.407 154.279
L184.51 154.25
L185.429 154.143
L185.532 154.118
L186.558 154.013
L186.66 153.992
L187.683 153.889
L187.786 153.863
L188.91 153.755
L189.012 153.731
L190.038 153.629
L190.141 153.61
L191.269 153.505
L191.371 153.482
L192.5 153.373
L192.603 153.352
L193.63 153.251
L193.732 153.226
L194.658 153.123
L194.761 153.095
L195.48 153
L195.583 152.963
L196.302 152.856
L196.405 152.819
L197.022 152.724
L197.124 152.685
L197.74 152.592
L197.842 152.556
L198.562 152.45
L198.664 152.419
L199.59 152.309
L199.692 152.283
L200.62 152.185
L200.723 152.158
L201.649 152.052
L201.752 152.023
L202.573 151.923
L202.677 151.893
L203.501 151.794
L203.605 151.769
L204.841 151.666
L204.944 151.648
L206.075 151.541
L206.177 151.518
L207.206 151.41
L207.31 151.383
L208.237 151.282
L208.342 151.263
L210.198 151.152
L210.301 151.141
L214.638 151.032
L214.74 151.022
L217.945 150.912
L218.048 150.901
L219.805 150.795
L219.908 150.777
L221.152 150.669
L221.256 150.65
L222.704 150.544
L222.807 150.529
L224.562 150.422
L224.665 150.412
L226.527 150.308
L226.632 150.291
L228.187 150.183
L228.291 150.164
L229.431 150.059
L229.535 150.038
L230.884 149.931
L230.988 149.912
L232.232 149.808
L232.336 149.786
L233.685 149.681
L233.789 149.667
L236.49 149.557
L236.595 149.548
L238.671 149.443
L238.774 149.428
L240.751 149.32
L240.855 149.312
L242.726 149.207
L242.83 149.191
L244.39 149.08
L244.493 149.062
L245.952 148.952
L246.056 148.934
L247.514 148.832
L247.619 148.814
L248.762 148.707
L248.866 148.684
L249.909 148.578
L250.013 148.553
L251.055 148.444
L251.159 148.418
L252.202 148.308
L252.305 148.282
L253.247 148.179
L253.35 148.153
L254.392 148.043
L254.497 148.02
L255.54 147.914
L255.644 147.892
L256.895 147.789
L256.999 147.769
L258.249 147.666
L258.353 147.644
L259.4 147.535
L259.504 147.509
L260.339 147.408
L260.443 147.379
L261.279 147.28
L261.383 147.252
L262.324 147.142
L262.428 147.116
L263.264 147.018
L263.368 146.99
L264.31 146.881
L264.413 146.855
L265.353 146.754
L265.458 146.732
L266.609 146.622
L266.714 146.599
L267.656 146.493
L267.76 146.466
L268.7 146.357
L268.804 146.329
L269.642 146.226
L269.747 146.198
L270.688 146.092
L270.792 146.068
L271.839 145.959
L271.944 145.933
L272.781 145.834
L272.886 145.807
L273.83 145.701
L273.935 145.673
L274.88 145.564
L274.984 145.536
L275.925 145.428
L276.03 145.402
L276.97 145.292
L277.074 145.262
L277.809 145.162
L277.913 145.126
L278.648 145.016
L278.753 144.981
L279.486 144.874
L279.591 144.838
L280.325 144.729
L280.43 144.694
L281.164 144.589
L281.269 144.553
L281.9 144.46
L282.004 144.423
L282.634 144.325
L282.738 144.284
L283.368 144.188
L283.472 144.151
L284.104 144.056
L284.208 144.017
L284.837 143.924
L284.942 143.887
L285.675 143.784
L285.781 143.749
L286.515 143.641
L286.62 143.603
L287.251 143.506
L287.356 143.469
L287.986 143.374
L288.092 143.336
L288.724 143.239
L288.829 143.2
L289.46 143.106
L289.566 143.071
L290.302 142.966
L290.408 142.932
L291.143 142.832
L291.249 142.799
L291.984 142.703
L292.09 142.672
L292.931 142.562
L293.038 142.53
L293.774 142.429
L293.879 142.396
L294.721 142.285
L294.827 142.255
L295.67 142.144
L295.775 142.112
L296.509 142.007
L296.614 141.972
L297.35 141.865
L297.454 141.829
L298.192 141.722
L298.297 141.687
L299.035 141.579
L299.14 141.543
L299.875 141.434
L299.982 141.395
L300.613 141.302
L300.719 141.264
L301.456 141.154
L301.56 141.115
L302.19 141.018
L302.297 140.98
L302.927 140.881
L303.032 140.842
L303.666 140.746
L303.771 140.708
L304.403 140.611
L304.508 140.573
L305.141 140.478
L305.247 140.441
L305.983 140.335
L306.088 140.3
L306.825 140.199
L306.931 140.166
L307.668 140.06
L307.773 140.024
L308.405 139.929
L308.511 139.892
L309.145 139.796
L309.251 139.757
L309.885 139.661
L309.991 139.622
L310.624 139.521
L310.729 139.481
L311.362 139.38
L311.468 139.338
L312.099 139.235
L312.204 139.196
L312.838 139.096
L312.943 139.056
L313.575 138.956
L313.679 138.915
L314.311 138.814
L314.417 138.774
L315.048 138.674
L315.155 138.634
L315.789 138.532
L315.894 138.493
L316.528 138.39
L316.634 138.35
L317.268 138.253
L317.373 138.212
L318.007 138.104
L318.113 138.06
L318.746 137.951
L318.852 137.91
L319.485 137.809
L319.591 137.768
L320.225 137.666
L320.331 137.624
L320.965 137.513
L321.07 137.467
L321.599 137.375
L321.705 137.329
L322.234 137.236
L322.339 137.19
L322.973 137.083
L323.078 137.041
L323.713 136.934
L323.819 136.891
L324.454 136.783
L324.56 136.74
L325.193 136.631
L325.298 136.587
L325.934 136.481
L326.039 136.437
L326.674 136.326
L326.78 136.281
L327.413 136.17
L327.519 136.125
L328.049 136.035
L328.155 135.991
L328.789 135.884
L328.895 135.843
L329.529 135.739
L329.635 135.698
L330.268 135.597
L330.375 135.557
L331.01 135.46
L331.116 135.423
L331.752 135.326
L331.859 135.287
L332.493 135.189
L332.598 135.15
L333.236 135.054
L333.341 135.015
L333.974 134.918
L334.08 134.879
L334.713 134.781
L334.818 134.74
L335.455 134.635
L335.563 134.592
L336.196 134.484
L336.302 134.441
L336.935 134.334
L337.04 134.292
L337.676 134.188
L337.783 134.146
L338.419 134.042
L338.525 134.002
L339.161 133.897
L339.267 133.853
L339.902 133.744
L340.009 133.704
L340.644 133.604
L340.749 133.567
L341.383 133.473
L341.489 133.434
L342.128 133.335
L342.234 133.294
L342.87 133.191
L342.976 133.148
L343.612 133.04
L343.719 132.997
L344.354 132.892
L344.46 132.849
L345.099 132.74
L345.205 132.697
L345.838 132.588
L345.944 132.543
L346.476 132.452
L346.583 132.405
L347.111 132.317
L347.218 132.271
L347.75 132.18
L347.857 132.134
L348.495 132.025
L348.601 131.981
L349.236 131.87
L349.344 131.827
L349.981 131.718
L350.087 131.674
L350.724 131.567
L350.831 131.524
L351.467 131.416
L351.573 131.372
L352.211 131.266
L352.317 131.224
L352.954 131.118
L353.06 131.075
L353.696 130.968
L353.801 130.925
L354.439 130.826
L354.546 130.788
L355.183 130.692
L355.289 130.654
L355.928 130.557
L356.034 130.518
L356.673 130.417
L356.779 130.375
L357.417 130.272
L357.522 130.232
L358.159 130.13
L358.265 130.089
L358.903 129.987
L359.01 129.945
L359.647 129.84
L359.753 129.797
L360.39 129.686
L360.497 129.641
L361.029 129.55
L361.136 129.504
L361.668 129.414
L361.775 129.37
L362.415 129.261
L362.52 129.217
L363.158 129.11
L363.264 129.067
L363.902 128.961
L364.008 128.918
L364.646 128.81
L364.753 128.767
L365.39 128.659
L365.495 128.616
L366.136 128.506
L366.242 128.461
L366.774 128.371
L366.879 128.328
L367.519 128.225
L367.626 128.183
L368.264 128.077
L368.37 128.036
L369.009 127.933
L369.115 127.893
L369.753 127.795
L369.859 127.756
L370.498 127.662
L370.604 127.625
L371.348 127.517
L371.455 127.482
L372.2 127.378
L372.307 127.342
L373.054 127.235
L373.16 127.201
L373.906 127.097
L374.013 127.062
L374.759 126.958
L374.866 126.924
L375.61 126.828
L375.717 126.797
L376.57 126.686
L376.677 126.654
L377.424 126.558
L377.53 126.526
L378.277 126.428
L378.385 126.395
L379.132 126.297
L379.239 126.265
L380.09 126.154
L380.197 126.123
L380.945 126.028
L381.051 125.995
L381.8 125.896
L381.907 125.864
L382.652 125.768
L382.758 125.736
L383.503 125.627
L383.61 125.591
L384.357 125.488
L384.462 125.453
L385.209 125.348
L385.315 125.313
L386.06 125.211
L386.166 125.175
L386.915 125.069
L387.023 125.031
L387.769 124.922
L387.876 124.885
L388.62 124.776
L388.728 124.741
L389.477 124.635
L389.583 124.601
L390.332 124.497
L390.438 124.463
L391.186 124.357
L391.292 124.322
L392.039 124.218
L392.146 124.183
L392.892 124.077
L393 124.042
L393.749 123.94
L393.855 123.907
L394.603 123.804
L394.71 123.771
L395.456 123.673
L395.563 123.641
L396.313 123.539
L396.419 123.505
L397.167 123.402
L397.273 123.368
L398.022 123.266
L398.131 123.231
L398.881 123.125
L398.987 123.089
L399.628 122.995
L399.735 122.956
L400.377 122.859
L400.483 122.82
L401.124 122.725
L401.23 122.688
L401.873 122.593
L401.979 122.556
L402.727 122.445
L402.833 122.408
L403.476 122.316
L403.583 122.278
L404.333 122.172
L404.44 122.137
L405.187 122.034
L405.294 121.998
L406.046 121.892
L406.153 121.856
L406.903 121.748
L407.009 121.713
L407.758 121.605
L407.865 121.569
L408.615 121.463
L408.723 121.427
L409.366 121.334
L409.472 121.297
L410.222 121.189
L410.328 121.154
L411.077 121.053
L411.184 121.021
L412.038 120.911
L412.145 120.879
L412.896 120.78
L413.003 120.748
L413.861 120.642
L413.968 120.612
L414.827 120.512
L414.934 120.482
L415.793 120.376
L415.9 120.346
L416.757 120.242
L416.865 120.211
L417.721 120.106
L417.828 120.078
L418.688 119.977
L418.795 119.947
L419.648 119.839
L419.755 119.809
L420.615 119.702
L420.723 119.673
L421.581 119.57
L421.688 119.541
L422.545 119.434
L422.652 119.404
L423.511 119.299
L423.618 119.268
L424.479 119.158
L424.587 119.128
L425.444 119.026
L425.552 118.998
L426.515 118.887
L426.622 118.86
L427.586 118.755
L427.694 118.729
L428.661 118.629
L428.768 118.605
L429.841 118.501
L429.95 118.477
L431.022 118.376
L431.13 118.352
L432.203 118.247
L432.31 118.223
L433.382 118.118
L433.489 118.094
L434.562 117.994
L434.67 117.97
L435.743 117.869
L435.851 117.847
L436.923 117.748
L437.03 117.725
L438.104 117.622
L438.212 117.6
L439.393 117.49
L439.502 117.468
L440.681 117.359
L440.788 117.337
L441.864 117.237
L441.972 117.215
L443.154 117.109
L443.26 117.089
L444.445 116.986
L444.552 116.965
L445.731 116.862
L445.838 116.841
L447.021 116.738
L447.129 116.72
L448.421 116.611
L448.528 116.589
L449.604 116.487
L449.711 116.465
L450.893 116.364
L451 116.344
L452.292 116.234
L452.4 116.214
L453.477 116.111
L453.586 116.086
L454.553 115.982
L454.661 115.956
L455.738 115.849
L455.846 115.827
L456.923 115.725
L457.03 115.701
L457.998 115.601
L458.107 115.576
L459.076 115.475
L459.184 115.451
L460.26 115.349
L460.367 115.327
L461.553 115.221
L461.66 115.2
L462.952 115.093
L463.059 115.073
L464.351 114.969
L464.458 114.949
L465.753 114.839
L465.861 114.818
L467.049 114.715
L467.156 114.694
L468.34 114.59
L468.448 114.569
L469.635 114.465
L469.742 114.444
L471.034 114.34
L471.143 114.321
L472.33 114.22
L472.437 114.199
L473.628 114.097
L473.736 114.076
L474.922 113.969
L475.03 113.948
L476.325 113.837
L476.433 113.818
L477.726 113.709
L477.834 113.69
L479.237 113.582
L479.345 113.565
L480.746 113.458
L480.854 113.443
L482.37 113.336
L482.478 113.318
L483.883 113.21
L483.991 113.192
L485.286 113.088
L485.394 113.069
L486.692 112.961
L486.8 112.941
L488.203 112.831
L488.313 112.812
L489.72 112.701
L489.827 112.682
L491.23 112.572
L491.339 112.554
L492.745 112.451
L492.852 112.434
L494.258 112.329
L494.365 112.311
L495.665 112.208
L495.773 112.188
L497.07 112.078
L497.178 112.059
L498.473 111.949
L498.581 111.93
L499.876 111.824
L499.984 111.806
L501.389 111.7
L501.498 111.685
L503.122 111.574
L503.229 111.557
L504.633 111.449
L504.742 111.431
L506.15 111.321
L506.259 111.303
L507.665 111.199
L507.774 111.182
L509.294 111.078
L509.401 111.062
L510.917 110.955
L511.025 110.937
L512.54 110.832
L512.648 110.817
L514.168 110.712
L514.277 110.696
L516.01 110.587
L516.119 110.574
L517.852 110.468
L517.959 110.454
L519.694 110.345
L519.802 110.33
L521.643 110.224
L521.752 110.213
L524.46 110.102
L524.568 110.093
L527.06 109.984
L527.17 109.974
L529.339 109.867
L529.447 109.855
L531.618 109.744
L531.727 109.733
L534.008 109.623
L534.116 109.611
L536.396 109.504
L536.504 109.493
L538.782 109.386
L538.891 109.375
L541.063 109.266
L541.171 109.255
L543.343 109.146
L543.451 109.135
L545.189 109.054
L545.189 109.048" style="fill:none;stroke:#ff0000;stroke-width:0.5;"/>
   </g>
   <g id="matplotlib.axis_1">
    <g id="xtick_1">
     <g id="line2d_2">
      <defs>
       <path d="
M0 0
L0 -4" id="m53e10e88e7"/>
      </defs>
      <g>
       <use style="stroke:#000000;stroke-linecap:butt;stroke-width:0.5;" x="29.6609375" xlink:href="#m53e10e88e7" y="15.0092307692"/>
      </g>
     </g>
    </g>
    <g id="xtick_2">
     <g id="line2d_3">
      <defs>
       <path d="
M0 0
L0 -4" id="m53e10e88e7"/>
      </defs>
      <g>
       <use style="stroke:#000000;stroke-linecap:butt;stroke-width:0.5;" x="132.772002595" xlink:href="#m53e10e88e7" y="15.0092307692"/>
      </g>
     </g>
     <g id="text_1">
      <!-- 2e8 -->
      <defs>
       <path d="
M19.1875 8.29688
L53.6094 8.29688
L53.6094 0
L7.32812 0
L7.32812 8.29688
Q12.9375 14.1094 22.625 23.8906
Q32.3281 33.6875 34.8125 36.5312
Q39.5469 41.8438 41.4219 45.5312
Q43.3125 49.2188 43.3125 52.7812
Q43.3125 58.5938 39.2344 62.25
Q35.1562 65.9219 28.6094 65.9219
Q23.9688 65.9219 18.8125 64.3125
Q13.6719 62.7031 7.8125 59.4219
L7.8125 69.3906
Q13.7656 71.7812 18.9375 73
Q24.125 74.2188 28.4219 74.2188
Q39.75 74.2188 46.4844 68.5469
Q53.2188 62.8906 53.2188 53.4219
Q53.2188 48.9219 51.5312 44.8906
Q49.8594 40.875 45.4062 35.4062
Q44.1875 33.9844 37.6406 27.2188
Q31.1094 20.4531 19.1875 8.29688" id="BitstreamVeraSans-Roman-32"/>
       <path d="
M56.2031 29.5938
L56.2031 25.2031
L14.8906 25.2031
Q15.4844 15.9219 20.4844 11.0625
Q25.4844 6.20312 34.4219 6.20312
Q39.5938 6.20312 44.4531 7.46875
Q49.3125 8.73438 54.1094 11.2812
L54.1094 2.78125
Q49.2656 0.734375 44.1875 -0.34375
Q39.1094 -1.42188 33.8906 -1.42188
Q20.7969 -1.42188 13.1562 6.1875
Q5.51562 13.8125 5.51562 26.8125
Q5.51562 40.2344 12.7656 48.1094
Q20.0156 56 32.3281 56
Q43.3594 56 49.7812 48.8906
Q56.2031 41.7969 56.2031 29.5938
M47.2188 32.2344
Q47.125 39.5938 43.0938 43.9844
Q39.0625 48.3906 32.4219 48.3906
Q24.9062 48.3906 20.3906 44.1406
Q15.875 39.8906 15.1875 32.1719
z
" id="BitstreamVeraSans-Roman-65"/>
       <path d="
M31.7812 34.625
Q24.75 34.625 20.7188 30.8594
Q16.7031 27.0938 16.7031 20.5156
Q16.7031 13.9219 20.7188 10.1562
Q24.75 6.39062 31.7812 6.39062
Q38.8125 6.39062 42.8594 10.1719
Q46.9219 13.9688 46.9219 20.5156
Q46.9219 27.0938 42.8906 30.8594
Q38.875 34.625 31.7812 34.625
M21.9219 38.8125
Q15.5781 40.375 12.0312 44.7188
Q8.5 49.0781 8.5 55.3281
Q8.5 64.0625 14.7188 69.1406
Q20.9531 74.2188 31.7812 74.2188
Q42.6719 74.2188 48.875 69.1406
Q55.0781 64.0625 55.0781 55.3281
Q55.0781 49.0781 51.5312 44.7188
Q48 40.375 41.7031 38.8125
Q48.8281 37.1562 52.7969 32.3125
Q56.7812 27.4844 56.7812 20.5156
Q56.7812 9.90625 50.3125 4.23438
Q43.8438 -1.42188 31.7812 -1.42188
Q19.7344 -1.42188 13.25 4.23438
Q6.78125 9.90625 6.78125 20.5156
Q6.78125 27.4844 10.7812 32.3125
Q14.7969 37.1562 21.9219 38.8125
M18.3125 54.3906
Q18.3125 48.7344 21.8438 45.5625
Q25.3906 42.3906 31.7812 42.3906
Q38.1406 42.3906 41.7188 45.5625
Q45.3125 48.7344 45.3125 54.3906
Q45.3125 60.0625 41.7188 63.2344
Q38.1406 66.4062 31.7812 66.4062
Q25.3906 66.4062 21.8438 63.2344
Q18.3125 60.0625 18.3125 54.3906" id="BitstreamVeraSans-Roman-38"/>
      </defs>
      <g transform="translate(124.041533845 26.4311057692)scale(0.1 -0.1)">
       <use xlink:href="#BitstreamVeraSans-Roman-32"/>
       <use x="63.623046875" xlink:href="#BitstreamVeraSans-Roman-65"/>
       <use x="125.146484375" xlink:href="#BitstreamVeraSans-Roman-38"/>
      </g>
     </g>
    </g>
    <g id="xtick_3">
     <g id="line2d_4">
      <defs>
       <path d="
M0 0
L0 -4" id="m53e10e88e7"/>
      </defs>
      <g>
       <use style="stroke:#000000;stroke-linecap:butt;stroke-width:0.5;" x="235.883067689" xlink:href="#m53e10e88e7" y="15.0092307692"/>
      </g>
     </g>
     <g id="text_2">
      <!-- 4e8 -->
      <defs>
       <path d="
M37.7969 64.3125
L12.8906 25.3906
L37.7969 25.3906
z

M35.2031 72.9062
L47.6094 72.9062
L47.6094 25.3906
L58.0156 25.3906
L58.0156 17.1875
L47.6094 17.1875
L47.6094 0
L37.7969 0
L37.7969 17.1875
L4.89062 17.1875
L4.89062 26.7031
z
" id="BitstreamVeraSans-Roman-34"/>
      </defs>
      <g transform="translate(227.030723939 26.4311057692)scale(0.1 -0.1)">
       <use xlink:href="#BitstreamVeraSans-Roman-34"/>
       <use x="63.623046875" xlink:href="#BitstreamVeraSans-Roman-65"/>
       <use x="125.146484375" xlink:href="#BitstreamVeraSans-Roman-38"/>
      </g>
     </g>
    </g>
    <g id="xtick_4">
     <g id="line2d_5">
      <defs>
       <path d="
M0 0
L0 -4" id="m53e10e88e7"/>
      </defs>
      <g>
       <use style="stroke:#000000;stroke-linecap:butt;stroke-width:0.5;" x="338.994132784" xlink:href="#m53e10e88e7" y="15.0092307692"/>
      </g>
     </g>
     <g id="text_3">
      <!-- 6e8 -->
      <defs>
       <path d="
M33.0156 40.375
Q26.375 40.375 22.4844 35.8281
Q18.6094 31.2969 18.6094 23.3906
Q18.6094 15.5312 22.4844 10.9531
Q26.375 6.39062 33.0156 6.39062
Q39.6562 6.39062 43.5312 10.9531
Q47.4062 15.5312 47.4062 23.3906
Q47.4062 31.2969 43.5312 35.8281
Q39.6562 40.375 33.0156 40.375
M52.5938 71.2969
L52.5938 62.3125
Q48.875 64.0625 45.0938 64.9844
Q41.3125 65.9219 37.5938 65.9219
Q27.8281 65.9219 22.6719 59.3281
Q17.5312 52.7344 16.7969 39.4062
Q19.6719 43.6562 24.0156 45.9219
Q28.375 48.1875 33.5938 48.1875
Q44.5781 48.1875 50.9531 41.5156
Q57.3281 34.8594 57.3281 23.3906
Q57.3281 12.1562 50.6875 5.35938
Q44.0469 -1.42188 33.0156 -1.42188
Q20.3594 -1.42188 13.6719 8.26562
Q6.98438 17.9688 6.98438 36.375
Q6.98438 53.6562 15.1875 63.9375
Q23.3906 74.2188 37.2031 74.2188
Q40.9219 74.2188 44.7031 73.4844
Q48.4844 72.75 52.5938 71.2969" id="BitstreamVeraSans-Roman-36"/>
      </defs>
      <g transform="translate(330.246476534 26.4311057692)scale(0.1 -0.1)">
       <use xlink:href="#BitstreamVeraSans-Roman-36"/>
       <use x="63.623046875" xlink:href="#BitstreamVeraSans-Roman-65"/>
       <use x="125.146484375" xlink:href="#BitstreamVeraSans-Roman-38"/>
      </g>
     </g>
    </g>
    <g id="xtick_5">
     <g id="line2d_6">
      <defs>
       <path d="
M0 0
L0 -4" id="m53e10e88e7"/>
      </defs>
      <g>
       <use style="stroke:#000000;stroke-linecap:butt;stroke-width:0.5;" x="442.105197878" xlink:href="#m53e10e88e7" y="15.0092307692"/>
      </g>
     </g>
     <g id="text_4">
      <!-- 8e8 -->
      <g transform="translate(433.347385378 26.4311057692)scale(0.1 -0.1)">
       <use xlink:href="#BitstreamVeraSans-Roman-38"/>
       <use x="63.623046875" xlink:href="#BitstreamVeraSans-Roman-65"/>
       <use x="125.146484375" xlink:href="#BitstreamVeraSans-Roman-38"/>
      </g>
     </g>
    </g>
    <g id="xtick_6">
     <g id="line2d_7">
      <defs>
       <path d="
M0 0
L0 -4" id="m53e10e88e7"/>
      </defs>
      <g>
       <use style="stroke:#000000;stroke-linecap:butt;stroke-width:0.5;" x="545.216262973" xlink:href="#m53e10e88e7" y="15.0092307692"/>
      </g>
     </g>
     <g id="text_5">
      <!-- 1e9 -->
      <defs>
       <path d="
M10.9844 1.51562
L10.9844 10.5
Q14.7031 8.73438 18.5 7.8125
Q22.3125 6.89062 25.9844 6.89062
Q35.75 6.89062 40.8906 13.4531
Q46.0469 20.0156 46.7812 33.4062
Q43.9531 29.2031 39.5938 26.9531
Q35.25 24.7031 29.9844 24.7031
Q19.0469 24.7031 12.6719 31.3125
Q6.29688 37.9375 6.29688 49.4219
Q6.29688 60.6406 12.9375 67.4219
Q19.5781 74.2188 30.6094 74.2188
Q43.2656 74.2188 49.9219 64.5156
Q56.5938 54.8281 56.5938 36.375
Q56.5938 19.1406 48.4062 8.85938
Q40.2344 -1.42188 26.4219 -1.42188
Q22.7031 -1.42188 18.8906 -0.6875
Q15.0938 0.046875 10.9844 1.51562
M30.6094 32.4219
Q37.25 32.4219 41.125 36.9531
Q45.0156 41.5 45.0156 49.4219
Q45.0156 57.2812 41.125 61.8438
Q37.25 66.4062 30.6094 66.4062
Q23.9688 66.4062 20.0938 61.8438
Q16.2188 57.2812 16.2188 49.4219
Q16.2188 41.5 20.0938 36.9531
Q23.9688 32.4219 30.6094 32.4219" id="BitstreamVeraSans-Roman-39"/>
       <path d="
M12.4062 8.29688
L28.5156 8.29688
L28.5156 63.9219
L10.9844 60.4062
L10.9844 69.3906
L28.4219 72.9062
L38.2812 72.9062
L38.2812 8.29688
L54.3906 8.29688
L54.3906 0
L12.4062 0
z
" id="BitstreamVeraSans-Roman-31"/>
      </defs>
      <g transform="translate(536.677981723 26.4311057692)scale(0.1 -0.1)">
       <use xlink:href="#BitstreamVeraSans-Roman-31"/>
       <use x="63.623046875" xlink:href="#BitstreamVeraSans-Roman-65"/>
       <use x="125.146484375" xlink:href="#BitstreamVeraSans-Roman-39"/>
      </g>
     </g>
    </g>
    <g id="xtick_7">
     <g id="line2d_8">
      <defs>
       <path d="
M0 0
L0 -2" id="m86ca90c098"/>
      </defs>
      <g>
       <use style="stroke:#000000;stroke-linecap:butt;stroke-width:0.5;" x="55.4387037736" xlink:href="#m86ca90c098" y="15.0092307692"/>
      </g>
     </g>
    </g>
    <g id="xtick_8">
     <g id="line2d_9">
      <defs>
       <path d="
M0 0
L0 -2" id="m86ca90c098"/>
      </defs>
      <g>
       <use style="stroke:#000000;stroke-linecap:butt;stroke-width:0.5;" x="81.2164700473" xlink:href="#m86ca90c098" y="15.0092307692"/>
      </g>
     </g>
    </g>
    <g id="xtick_9">
     <g id="line2d_10">
      <defs>
       <path d="
M0 0
L0 -2" id="m86ca90c098"/>
      </defs>
      <g>
       <use style="stroke:#000000;stroke-linecap:butt;stroke-width:0.5;" x="106.994236321" xlink:href="#m86ca90c098" y="15.0092307692"/>
      </g>
     </g>
    </g>
    <g id="xtick_10">
     <g id="line2d_11">
      <defs>
       <path d="
M0 0
L0 -2" id="m86ca90c098"/>
      </defs>
      <g>
       <use style="stroke:#000000;stroke-linecap:butt;stroke-width:0.5;" x="158.549768868" xlink:href="#m86ca90c098" y="15.0092307692"/>
      </g>
     </g>
    </g>
    <g id="xtick_11">
     <g id="line2d_12">
      <defs>
       <path d="
M0 0
L0 -2" id="m86ca90c098"/>
      </defs>
      <g>
       <use style="stroke:#000000;stroke-linecap:butt;stroke-width:0.5;" x="184.327535142" xlink:href="#m86ca90c098" y="15.0092307692"/>
      </g>
     </g>
    </g>
    <g id="xtick_12">
     <g id="line2d_13">
      <defs>
       <path d="
M0 0
L0 -2" id="m86ca90c098"/>
      </defs>
      <g>
       <use style="stroke:#000000;stroke-linecap:butt;stroke-width:0.5;" x="210.105301415" xlink:href="#m86ca90c098" y="15.0092307692"/>
      </g>
     </g>
    </g>
    <g id="xtick_13">
     <g id="line2d_14">
      <defs>
       <path d="
M0 0
L0 -2" id="m86ca90c098"/>
      </defs>
      <g>
       <use style="stroke:#000000;stroke-linecap:butt;stroke-width:0.5;" x="261.660833963" xlink:href="#m86ca90c098" y="15.0092307692"/>
      </g>
     </g>
    </g>
    <g id="xtick_14">
     <g id="line2d_15">
      <defs>
       <path d="
M0 0
L0 -2" id="m86ca90c098"/>
      </defs>
      <g>
       <use style="stroke:#000000;stroke-linecap:butt;stroke-width:0.5;" x="287.438600236" xlink:href="#m86ca90c098" y="15.0092307692"/>
      </g>
     </g>
    </g>
    <g id="xtick_15">
     <g id="line2d_16">
      <defs>
       <path d="
M0 0
L0 -2" id="m86ca90c098"/>
      </defs>
      <g>
       <use style="stroke:#000000;stroke-linecap:butt;stroke-width:0.5;" x="313.21636651" xlink:href="#m86ca90c098" y="15.0092307692"/>
      </g>
     </g>
    </g>
    <g id="xtick_16">
     <g id="line2d_17">
      <defs>
       <path d="
M0 0
L0 -2" id="m86ca90c098"/>
      </defs>
      <g>
       <use style="stroke:#000000;stroke-linecap:butt;stroke-width:0.5;" x="364.771899057" xlink:href="#m86ca90c098" y="15.0092307692"/>
      </g>
     </g>
    </g>
    <g id="xtick_17">
     <g id="line2d_18">
      <defs>
       <path d="
M0 0
L0 -2" id="m86ca90c098"/>
      </defs>
      <g>
       <use style="stroke:#000000;stroke-linecap:butt;stroke-width:0.5;" x="390.549665331" xlink:href="#m86ca90c098" y="15.0092307692"/>
      </g>
     </g>
    </g>
    <g id="xtick_18">
     <g id="line2d_19">
      <defs>
       <path d="
M0 0
L0 -2" id="m86ca90c098"/>
      </defs>
      <g>
       <use style="stroke:#000000;stroke-linecap:butt;stroke-width:0.5;" x="416.327431604" xlink:href="#m86ca90c098" y="15.0092307692"/>
      </g>
     </g>
    </g>
    <g id="xtick_19">
     <g id="line2d_20">
      <defs>
       <path d="
M0 0
L0 -2" id="m86ca90c098"/>
      </defs>
      <g>
       <use style="stroke:#000000;stroke-linecap:butt;stroke-width:0.5;" x="467.882964152" xlink:href="#m86ca90c098" y="15.0092307692"/>
      </g>
     </g>
    </g>
    <g id="xtick_20">
     <g id="line2d_21">
      <defs>
       <path d="
M0 0
L0 -2" id="m86ca90c098"/>
      </defs>
      <g>
       <use style="stroke:#000000;stroke-linecap:butt;stroke-width:0.5;" x="493.660730425" xlink:href="#m86ca90c098" y="15.0092307692"/>
      </g>
     </g>
    </g>
    <g id="xtick_21">
     <g id="line2d_22">
      <defs>
       <path d="
M0 0
L0 -2" id="m86ca90c098"/>
      </defs>
      <g>
       <use style="stroke:#000000;stroke-linecap:butt;stroke-width:0.5;" x="519.438496699" xlink:href="#m86ca90c098" y="15.0092307692"/>
      </g>
     </g>
    </g>
   </g>
   <g id="matplotlib.axis_2">
    <g id="ytick_1">
     <g id="line2d_23">
      <defs>
       <path d="
M0 0
L4 0" id="mcee90f17e7"/>
      </defs>
      <g>
       <use style="stroke:#000000;stroke-linecap:butt;stroke-width:0.5;" x="29.6609375" xlink:href="#mcee90f17e7" y="374.730706143"/>
      </g>
     </g>
     <g id="text_6">
      <!-- -1.4 -->
      <defs>
       <path d="
M10.6875 12.4062
L21 12.4062
L21 0
L10.6875 0
z
" id="BitstreamVeraSans-Roman-2e"/>
       <path d="
M4.89062 31.3906
L31.2031 31.3906
L31.2031 23.3906
L4.89062 23.3906
z
" id="BitstreamVeraSans-Roman-2d"/>
      </defs>
      <g transform="translate(7.2 378.376018643)scale(0.1 -0.1)">
       <use xlink:href="#BitstreamVeraSans-Roman-2d"/>
       <use x="36.083984375" xlink:href="#BitstreamVeraSans-Roman-31"/>
       <use x="99.70703125" xlink:href="#BitstreamVeraSans-Roman-2e"/>
       <use x="131.494140625" xlink:href="#BitstreamVeraSans-Roman-34"/>
      </g>
     </g>
    </g>
    <g id="ytick_2">
     <g id="line2d_24">
      <defs>
       <path d="
M0 0
L4 0" id="mcee90f17e7"/>
      </defs>
      <g>
       <use style="stroke:#000000;stroke-linecap:butt;stroke-width:0.5;" x="29.6609375" xlink:href="#mcee90f17e7" y="323.341923947"/>
      </g>
     </g>
     <g id="text_7">
      <!-- -1.2 -->
      <g transform="translate(7.640625 327.052861447)scale(0.1 -0.1)">
       <use xlink:href="#BitstreamVeraSans-Roman-2d"/>
       <use x="36.083984375" xlink:href="#BitstreamVeraSans-Roman-31"/>
       <use x="99.70703125" xlink:href="#BitstreamVeraSans-Roman-2e"/>
       <use x="131.494140625" xlink:href="#BitstreamVeraSans-Roman-32"/>
      </g>
     </g>
    </g>
    <g id="ytick_3">
     <g id="line2d_25">
      <defs>
       <path d="
M0 0
L4 0" id="mcee90f17e7"/>
      </defs>
      <g>
       <use style="stroke:#000000;stroke-linecap:butt;stroke-width:0.5;" x="29.6609375" xlink:href="#mcee90f17e7" y="271.95314175"/>
      </g>
     </g>
     <g id="text_8">
      <!-- -1 -->
      <g transform="translate(17.103125 275.59845425)scale(0.1 -0.1)">
       <use xlink:href="#BitstreamVeraSans-Roman-2d"/>
       <use x="36.083984375" xlink:href="#BitstreamVeraSans-Roman-31"/>
      </g>
     </g>
    </g>
    <g id="ytick_4">
     <g id="line2d_26">
      <defs>
       <path d="
M0 0
L4 0" id="mcee90f17e7"/>
      </defs>
      <g>
       <use style="stroke:#000000;stroke-linecap:butt;stroke-width:0.5;" x="29.6609375" xlink:href="#mcee90f17e7" y="220.564359554"/>
      </g>
     </g>
     <g id="text_9">
      <!-- -0.8 -->
      <defs>
       <path d="
M31.7812 66.4062
Q24.1719 66.4062 20.3281 58.9062
Q16.5 51.4219 16.5 36.375
Q16.5 21.3906 20.3281 13.8906
Q24.1719 6.39062 31.7812 6.39062
Q39.4531 6.39062 43.2812 13.8906
Q47.125 21.3906 47.125 36.375
Q47.125 51.4219 43.2812 58.9062
Q39.4531 66.4062 31.7812 66.4062
M31.7812 74.2188
Q44.0469 74.2188 50.5156 64.5156
Q56.9844 54.8281 56.9844 36.375
Q56.9844 17.9688 50.5156 8.26562
Q44.0469 -1.42188 31.7812 -1.42188
Q19.5312 -1.42188 13.0625 8.26562
Q6.59375 17.9688 6.59375 36.375
Q6.59375 54.8281 13.0625 64.5156
Q19.5312 74.2188 31.7812 74.2188" id="BitstreamVeraSans-Roman-30"/>
      </defs>
      <g transform="translate(7.3234375 224.204203304)scale(0.1 -0.1)">
       <use xlink:href="#BitstreamVeraSans-Roman-2d"/>
       <use x="36.083984375" xlink:href="#BitstreamVeraSans-Roman-30"/>
       <use x="99.70703125" xlink:href="#BitstreamVeraSans-Roman-2e"/>
       <use x="131.494140625" xlink:href="#BitstreamVeraSans-Roman-38"/>
      </g>
     </g>
    </g>
    <g id="ytick_5">
     <g id="line2d_27">
      <defs>
       <path d="
M0 0
L4 0" id="mcee90f17e7"/>
      </defs>
      <g>
       <use style="stroke:#000000;stroke-linecap:butt;stroke-width:0.5;" x="29.6609375" xlink:href="#mcee90f17e7" y="169.175577358"/>
      </g>
     </g>
     <g id="text_10">
      <!-- -0.6 -->
      <g transform="translate(7.26875 172.815421108)scale(0.1 -0.1)">
       <use xlink:href="#BitstreamVeraSans-Roman-2d"/>
       <use x="36.083984375" xlink:href="#BitstreamVeraSans-Roman-30"/>
       <use x="99.70703125" xlink:href="#BitstreamVeraSans-Roman-2e"/>
       <use x="131.494140625" xlink:href="#BitstreamVeraSans-Roman-36"/>
      </g>
     </g>
    </g>
    <g id="ytick_6">
     <g id="line2d_28">
      <defs>
       <path d="
M0 0
L4 0" id="mcee90f17e7"/>
      </defs>
      <g>
       <use style="stroke:#000000;stroke-linecap:butt;stroke-width:0.5;" x="29.6609375" xlink:href="#mcee90f17e7" y="117.786795162"/>
      </g>
     </g>
     <g id="text_11">
      <!-- -0.4 -->
      <g transform="translate(7.2 121.426638912)scale(0.1 -0.1)">
       <use xlink:href="#BitstreamVeraSans-Roman-2d"/>
       <use x="36.083984375" xlink:href="#BitstreamVeraSans-Roman-30"/>
       <use x="99.70703125" xlink:href="#BitstreamVeraSans-Roman-2e"/>
       <use x="131.494140625" xlink:href="#BitstreamVeraSans-Roman-34"/>
      </g>
     </g>
    </g>
    <g id="ytick_7">
     <g id="line2d_29">
      <defs>
       <path d="
M0 0
L4 0" id="mcee90f17e7"/>
      </defs>
      <g>
       <use style="stroke:#000000;stroke-linecap:butt;stroke-width:0.5;" x="29.6609375" xlink:href="#mcee90f17e7" y="66.3980129655"/>
      </g>
     </g>
     <g id="text_12">
      <!-- -0.2 -->
      <g transform="translate(7.640625 70.0378567155)scale(0.1 -0.1)">
       <use xlink:href="#BitstreamVeraSans-Roman-2d"/>
       <use x="36.083984375" xlink:href="#BitstreamVeraSans-Roman-30"/>
       <use x="99.70703125" xlink:href="#BitstreamVeraSans-Roman-2e"/>
       <use x="131.494140625" xlink:href="#BitstreamVeraSans-Roman-32"/>
      </g>
     </g>
    </g>
    <g id="ytick_8">
     <g id="line2d_30">
      <defs>
       <path d="
M0 0
L4 0" id="mcee90f17e7"/>
      </defs>
      <g>
       <use style="stroke:#000000;stroke-linecap:butt;stroke-width:0.5;" x="29.6609375" xlink:href="#mcee90f17e7" y="15.0092307692"/>
      </g>
     </g>
    </g>
    <g id="ytick_9">
     <g id="line2d_31">
      <defs>
       <path d="
M0 0
L2 0" id="m77414749ab"/>
      </defs>
      <g>
       <use style="stroke:#000000;stroke-linecap:butt;stroke-width:0.5;" x="29.6609375" xlink:href="#m77414749ab" y="413.27229279"/>
      </g>
     </g>
    </g>
    <g id="ytick_10">
     <g id="line2d_32">
      <defs>
       <path d="
M0 0
L2 0" id="m77414749ab"/>
      </defs>
      <g>
       <use style="stroke:#000000;stroke-linecap:butt;stroke-width:0.5;" x="29.6609375" xlink:href="#m77414749ab" y="400.425097241"/>
      </g>
     </g>
    </g>
    <g id="ytick_11">
     <g id="line2d_33">
      <defs>
       <path d="
M0 0
L2 0" id="m77414749ab"/>
      </defs>
      <g>
       <use style="stroke:#000000;stroke-linecap:butt;stroke-width:0.5;" x="29.6609375" xlink:href="#m77414749ab" y="387.577901692"/>
      </g>
     </g>
    </g>
    <g id="ytick_12">
     <g id="line2d_34">
      <defs>
       <path d="
M0 0
L2 0" id="m77414749ab"/>
      </defs>
      <g>
       <use style="stroke:#000000;stroke-linecap:butt;stroke-width:0.5;" x="29.6609375" xlink:href="#m77414749ab" y="361.883510594"/>
      </g>
     </g>
    </g>
    <g id="ytick_13">
     <g id="line2d_35">
      <defs>
       <path d="
M0 0
L2 0" id="m77414749ab"/>
      </defs>
      <g>
       <use style="stroke:#000000;stroke-linecap:butt;stroke-width:0.5;" x="29.6609375" xlink:href="#m77414749ab" y="349.036315045"/>
      </g>
     </g>
    </g>
    <g id="ytick_14">
     <g id="line2d_36">
      <defs>
       <path d="
M0 0
L2 0" id="m77414749ab"/>
      </defs>
      <g>
       <use style="stroke:#000000;stroke-linecap:butt;stroke-width:0.5;" x="29.6609375" xlink:href="#m77414749ab" y="336.189119496"/>
      </g>
     </g>
    </g>
    <g id="ytick_15">
     <g id="line2d_37">
      <defs>
       <path d="
M0 0
L2 0" id="m77414749ab"/>
      </defs>
      <g>
       <use style="stroke:#000000;stroke-linecap:butt;stroke-width:0.5;" x="29.6609375" xlink:href="#m77414749ab" y="310.494728398"/>
      </g>
     </g>
    </g>
    <g id="ytick_16">
     <g id="line2d_38">
      <defs>
       <path d="
M0 0
L2 0" id="m77414749ab"/>
      </defs>
      <g>
       <use style="stroke:#000000;stroke-linecap:butt;stroke-width:0.5;" x="29.6609375" xlink:href="#m77414749ab" y="297.647532849"/>
      </g>
     </g>
    </g>
    <g id="ytick_17">
     <g id="line2d_39">
      <defs>
       <path d="
M0 0
L2 0" id="m77414749ab"/>
      </defs>
      <g>
       <use style="stroke:#000000;stroke-linecap:butt;stroke-width:0.5;" x="29.6609375" xlink:href="#m77414749ab" y="284.800337299"/>
      </g>
     </g>
    </g>
    <g id="ytick_18">
     <g id="line2d_40">
      <defs>
       <path d="
M0 0
L2 0" id="m77414749ab"/>
      </defs>
      <g>
       <use style="stroke:#000000;stroke-linecap:butt;stroke-width:0.5;" x="29.6609375" xlink:href="#m77414749ab" y="259.105946201"/>
      </g>
     </g>
    </g>
    <g id="ytick_19">
     <g id="line2d_41">
      <defs>
       <path d="
M0 0
L2 0" id="m77414749ab"/>
      </defs>
      <g>
       <use style="stroke:#000000;stroke-linecap:butt;stroke-width:0.5;" x="29.6609375" xlink:href="#m77414749ab" y="246.258750652"/>
      </g>
     </g>
    </g>
    <g id="ytick_20">
     <g id="line2d_42">
      <defs>
       <path d="
M0 0
L2 0" id="m77414749ab"/>
      </defs>
      <g>
       <use style="stroke:#000000;stroke-linecap:butt;stroke-width:0.5;" x="29.6609375" xlink:href="#m77414749ab" y="233.411555103"/>
      </g>
     </g>
    </g>
    <g id="ytick_21">
     <g id="line2d_43">
      <defs>
       <path d="
M0 0
L2 0" id="m77414749ab"/>
      </defs>
      <g>
       <use style="stroke:#000000;stroke-linecap:butt;stroke-width:0.5;" x="29.6609375" xlink:href="#m77414749ab" y="207.717164005"/>
      </g>
     </g>
    </g>
    <g id="ytick_22">
     <g id="line2d_44">
      <defs>
       <path d="
M0 0
L2 0" id="m77414749ab"/>
      </defs>
      <g>
       <use style="stroke:#000000;stroke-linecap:butt;stroke-width:0.5;" x="29.6609375" xlink:href="#m77414749ab" y="194.869968456"/>
      </g>
     </g>
    </g>
    <g id="ytick_23">
     <g id="line2d_45">
      <defs>
       <path d="
M0 0
L2 0" id="m77414749ab"/>
      </defs>
      <g>
       <use style="stroke:#000000;stroke-linecap:butt;stroke-width:0.5;" x="29.6609375" xlink:href="#m77414749ab" y="182.022772907"/>
      </g>
     </g>
    </g>
    <g id="ytick_24">
     <g id="line2d_46">
      <defs>
       <path d="
M0 0
L2 0" id="m77414749ab"/>
      </defs>
      <g>
       <use style="stroke:#000000;stroke-linecap:butt;stroke-width:0.5;" x="29.6609375" xlink:href="#m77414749ab" y="156.328381809"/>
      </g>
     </g>
    </g>
    <g id="ytick_25">
     <g id="line2d_47">
      <defs>
       <path d="
M0 0
L2 0" id="m77414749ab"/>
      </defs>
      <g>
       <use style="stroke:#000000;stroke-linecap:butt;stroke-width:0.5;" x="29.6609375" xlink:href="#m77414749ab" y="143.48118626"/>
      </g>
     </g>
    </g>
    <g id="ytick_26">
     <g id="line2d_48">
      <defs>
       <path d="
M0 0
L2 0" id="m77414749ab"/>
      </defs>
      <g>
       <use style="stroke:#000000;stroke-linecap:butt;stroke-width:0.5;" x="29.6609375" xlink:href="#m77414749ab" y="130.633990711"/>
      </g>
     </g>
    </g>
    <g id="ytick_27">
     <g id="line2d_49">
      <defs>
       <path d="
M0 0
L2 0" id="m77414749ab"/>
      </defs>
      <g>
       <use style="stroke:#000000;stroke-linecap:butt;stroke-width:0.5;" x="29.6609375" xlink:href="#m77414749ab" y="104.939599613"/>
      </g>
     </g>
    </g>
    <g id="ytick_28">
     <g id="line2d_50">
      <defs>
       <path d="
M0 0
L2 0" id="m77414749ab"/>
      </defs>
      <g>
       <use style="stroke:#000000;stroke-linecap:butt;stroke-width:0.5;" x="29.6609375" xlink:href="#m77414749ab" y="92.0924040636"/>
      </g>
     </g>
    </g>
    <g id="ytick_29">
     <g id="line2d_51">
      <defs>
       <path d="
M0 0
L2 0" id="m77414749ab"/>
      </defs>
      <g>
       <use style="stroke:#000000;stroke-linecap:butt;stroke-width:0.5;" x="29.6609375" xlink:href="#m77414749ab" y="79.2452085145"/>
      </g>
     </g>
    </g>
    <g id="ytick_30">
     <g id="line2d_52">
      <defs>
       <path d="
M0 0
L2 0" id="m77414749ab"/>
      </defs>
      <g>
       <use style="stroke:#000000;stroke-linecap:butt;stroke-width:0.5;" x="29.6609375" xlink:href="#m77414749ab" y="53.5508174164"/>
      </g>
     </g>
    </g>
    <g id="ytick_31">
     <g id="line2d_53">
      <defs>
       <path d="
M0 0
L2 0" id="m77414749ab"/>
      </defs>
      <g>
       <use style="stroke:#000000;stroke-linecap:butt;stroke-width:0.5;" x="29.6609375" xlink:href="#m77414749ab" y="40.7036218673"/>
      </g>
     </g>
    </g>
    <g id="ytick_32">
     <g id="line2d_54">
      <defs>
       <path d="
M0 0
L2 0" id="m77414749ab"/>
      </defs>
      <g>
       <use style="stroke:#000000;stroke-linecap:butt;stroke-width:0.5;" x="29.6609375" xlink:href="#m77414749ab" y="27.8564263183"/>
      </g>
     </g>
    </g>
   </g>
   <g id="patch_3">
    <path d="
M19.3504 15.0092
L555.5 15.0092" style="fill:none;stroke:#000000;stroke-width:0.8;"/>
   </g>
   <g id="patch_4">
    <path d="
M29.6609 413.28
L29.6609 7.2" style="fill:none;stroke:#000000;stroke-width:0.8;"/>
   </g>
  </g>
 </g>
 <defs>
  <clipPath id="p9594e53bbf">
   <rect height="406.08" width="536.149198828" x="19.3503770152" y="7.2"/>
  </clipPath>
 </defs>
</svg>
