<?xml version="1.0" encoding="utf-8" standalone="no"?>
<!DOCTYPE svg PUBLIC "-//W3C//DTD SVG 1.1//EN"
  "http://www.w3.org/Graphics/SVG/1.1/DTD/svg11.dtd">
<!-- Created with matplotlib (http://matplotlib.sourceforge.net/) -->
<svg height="420pt" version="1.1" viewBox="0 0 562 420" width="562pt" xmlns="http://www.w3.org/2000/svg" xmlns:xlink="http://www.w3.org/1999/xlink">
 <defs>
  <style type="text/css">
*{stroke-linecap:square;stroke-linejoin:round;}
  </style>
 </defs>
 <g id="figure_1">
  <g id="patch_1">
   <path d="
M0 420.48
L562.744 420.48
L562.744 0
L0 0
z
" style="fill:#ffffff;"/>
  </g>
  <g id="axes_1">
   <g id="patch_2">
    <path d="
M19.0309 413.28
L555.544 413.28
L555.544 7.2
L19.0309 7.2
z
" style="fill:#ffffff;"/>
   </g>
   <g id="line2d_1">
    <path clip-path="url(#p13c0847ff8)" d="
M29.3484 15.0092
L29.3965 15.0092
L29.3965 405.471
L29.4537 377.426
L29.5147 377.426
L29.5768 332.599
L29.6415 332.599
L29.7082 300.578
L29.7741 300.578
L29.8417 283.331
L29.911 283.331
L29.9804 270.85
L30.0506 270.85
L30.1209 259.01
L30.1923 259.01
L30.2646 251.309
L30.3362 251.309
L30.4089 245.426
L30.4818 245.426
L30.555 240.199
L30.6286 240.199
L30.7035 235.134
L30.7767 235.134
L30.852 232.396
L30.9277 232.396
L31.0018 230.061
L31.077 230.061
L31.1528 227.895
L31.2291 227.895
L31.3063 226.545
L31.3818 226.545
L31.4605 224.924
L31.5366 224.924
L31.6132 223.898
L31.6911 223.898
L31.7694 222.873
L31.8457 222.873
L31.9236 221.278
L32.0021 221.278
L32.0794 219.417
L32.1589 219.417
L32.238 217.513
L32.317 217.513
L32.3944 215.603
L32.4739 215.603
L32.5522 213.257
L32.6328 213.257
L32.714 211.064
L32.7931 211.064
L32.8734 209.082
L32.9523 209.082
L33.0317 207.846
L33.1123 207.846
L33.194 206.498
L33.2745 206.498
L33.3546 205.113
L33.4347 205.113
L33.5151 203.617
L33.5956 203.617
L33.6766 202.018
L33.7591 202.018
L33.8384 200.696
L33.92 200.696
L34.0021 199.743
L34.0836 199.743
L34.1652 198.714
L34.2478 198.714
L34.3296 197.855
L34.4128 197.855
L34.4956 196.992
L34.5762 196.992
L34.6582 196.365
L34.7408 196.365
L34.8254 195.589
L34.9083 195.589
L34.9903 195.054
L35.0714 195.054
L35.1546 194.726
L35.2369 194.726
L35.3205 194.156
L35.4024 194.156
L35.4832 193.461
L35.568 193.461
L35.651 192.682
L35.7368 192.682
L35.8201 191.906
L35.9019 191.906
L35.9858 191.22
L36.07 191.22
L36.1537 190.625
L36.2385 190.625
L36.3227 189.956
L36.4067 189.956
L36.4904 189.437
L36.5719 189.437
L36.6593 188.977
L36.7427 188.977
L36.8268 188.471
L36.9095 188.471
L36.9945 187.991
L37.0784 187.991
L37.1613 187.642
L37.2476 187.642
L37.3337 187.331
L37.4182 187.331
L37.5034 186.99
L37.59 186.99
L37.675 186.529
L37.7588 186.529
L37.8443 185.911
L37.9297 185.911
L38.0132 185.316
L38.0999 185.316
L38.1847 184.801
L38.2709 184.801
L38.3577 184.296
L38.4438 184.296
L38.5285 183.923
L38.6136 183.923
L38.6986 183.66
L38.7835 183.66
L38.8702 183.267
L38.9548 183.267
L39.0397 182.958
L39.212 182.855
L39.2965 182.622
L39.4688 182.532
L39.5582 182.342
L39.6435 182.342
L39.728 182.089
L39.8134 182.089
L39.8997 181.806
L39.9869 181.806
L40.074 181.532
L40.2471 181.433
L40.3335 181.18
L40.4189 181.18
L40.505 180.81
L40.5921 180.81
L40.6796 180.372
L40.7667 180.372
L40.8544 179.98
L40.9421 179.98
L41.0281 179.559
L41.1133 179.559
L41.2025 179.201
L41.2896 179.201
L41.3787 178.916
L41.4661 178.916
L41.5525 178.662
L41.6402 178.662
L41.727 178.405
L41.8151 178.405
L41.9033 178.156
L42.0774 178.046
L42.1668 177.814
L42.3416 177.714
L42.4273 177.548
L42.6043 177.482
L42.6897 177.419
L43.13 177.313
L43.218 177.247
L43.4827 177.154
L43.5709 176.99
L43.7483 176.891
L43.8354 176.721
L44.0077 176.628
L44.0964 176.398
L44.1862 176.398
L44.2753 176.137
L44.4527 176.04
L44.5417 175.896
L44.7199 175.817
L44.8079 175.677
L44.9857 175.615
L45.0751 175.49
L45.3413 175.381
L45.4295 175.282
L45.608 175.221
L45.6963 175.059
L45.7847 175.059
L45.8705 174.845
L45.9595 174.845
L46.0469 174.615
L46.1373 174.615
L46.2263 174.361
L46.3151 174.361
L46.4057 174.115
L46.4949 174.115
L46.5842 173.854
L46.6755 173.854
L46.7643 173.587
L46.8537 173.587
L46.9417 173.356
L47.1176 173.266
L47.2087 173.134
L47.3922 173.069
L47.4822 172.939
L47.6658 172.878
L47.7546 172.772
L47.9341 172.713
L48.0212 172.58
L48.2034 172.521
L48.2922 172.412
L48.4688 172.351
L48.559 172.203
L48.7368 172.116
L48.83 171.962
L49.0986 171.861
L49.1879 171.747
L49.5498 171.642
L49.6387 171.561
L49.9123 171.471
L50.0039 171.436
L50.4524 171.347
L50.5425 171.281
L51.2702 171.17
L51.3598 171.126
L53.3641 171.233
L53.4555 171.246
L54.9146 171.148
L55.0049 171.061
L55.2799 170.963
L55.3716 170.867
L55.6472 170.774
L55.7405 170.683
L55.9238 170.624
L56.016 170.505
L56.2001 170.43
L56.2914 170.301
L56.4746 170.239
L56.5656 170.129
L56.7511 170.068
L56.8435 169.954
L57.027 169.899
L57.1178 169.762
L57.3037 169.694
L57.396 169.563
L57.5798 169.502
L57.673 169.386
L57.8589 169.322
L57.9516 169.207
L58.1372 169.151
L58.2295 169.012
L58.4149 168.939
L58.5083 168.811
L58.6958 168.746
L58.7853 168.595
L58.9706 168.509
L59.0631 168.336
L59.2514 168.258
L59.3437 168.11
L59.5287 168.032
L59.6226 167.856
L59.8048 167.766
L59.895 167.596
L60.0806 167.52
L60.1745 167.363
L60.3589 167.285
L60.4499 167.109
L60.6394 167.013
L60.7327 166.842
L60.9174 166.763
L61.0115 166.608
L61.1953 166.529
L61.2912 166.371
L61.4774 166.296
L61.5705 166.147
L61.7542 166.075
L61.8446 165.928
L62.0303 165.85
L62.1245 165.676
L62.3147 165.582
L62.4076 165.403
L62.596 165.315
L62.6878 165.131
L62.8758 165.036
L62.9683 164.844
L63.1547 164.742
L63.2474 164.561
L63.4318 164.479
L63.5254 164.307
L63.7147 164.214
L63.8079 164.025
L63.9931 163.932
L64.0859 163.749
L64.2726 163.658
L64.3669 163.457
L64.5539 163.358
L64.648 163.165
L64.8317 163.073
L64.9236 162.892
L65.1127 162.799
L65.2045 162.639
L65.3921 162.565
L65.485 162.407
L65.6704 162.331
L65.7625 162.192
L65.9513 162.123
L66.0434 161.996
L66.2341 161.932
L66.3276 161.819
L66.6104 161.715
L66.7047 161.614
L66.9846 161.532
L67.0805 161.451
L67.362 161.377
L67.4549 161.297
L67.8321 161.193
L67.927 161.119
L68.3052 161.027
L68.3999 160.973
L69.0566 160.863
L69.152 160.813
L69.7204 160.722
L69.8142 160.668
L70.1897 160.559
L70.2838 160.495
L70.7577 160.393
L70.8533 160.307
L71.1392 160.216
L71.2336 160.109
L71.4225 160.047
L71.5171 159.923
L71.7048 159.857
L71.7988 159.731
L71.9898 159.664
L72.0835 159.527
L72.2717 159.462
L72.3681 159.341
L72.5575 159.283
L72.652 159.175
L72.9401 159.072
L73.0349 158.968
L73.3165 158.875
L73.4097 158.774
L73.5974 158.713
L73.6933 158.592
L73.9778 158.488
L74.071 158.379
L74.2609 158.319
L74.3548 158.197
L74.5443 158.142
L74.6391 158.028
L74.8288 157.972
L74.9248 157.859
L75.1178 157.804
L75.2123 157.693
L75.496 157.59
L75.5931 157.487
L75.8805 157.381
L75.9758 157.273
L76.1672 157.217
L76.2617 157.104
L76.4548 157.047
L76.5479 156.938
L76.7383 156.88
L76.8342 156.749
L77.0218 156.684
L77.1154 156.552
L77.3081 156.481
L77.4024 156.34
L77.5927 156.272
L77.6876 156.147
L77.8798 156.089
L77.977 155.972
L78.1696 155.914
L78.2652 155.792
L78.4562 155.735
L78.5518 155.622
L78.8343 155.514
L78.9319 155.416
L79.2174 155.32
L79.3124 155.242
L79.5999 155.151
L79.6961 155.061
L79.9844 154.963
L80.0779 154.861
L80.3693 154.761
L80.466 154.657
L80.7549 154.557
L80.852 154.462
L81.1396 154.369
L81.235 154.278
L81.5216 154.189
L81.6175 154.094
L81.906 154.011
L82.0044 153.919
L82.2912 153.823
L82.3864 153.726
L82.6753 153.627
L82.7726 153.525
L83.059 153.433
L83.1534 153.333
L83.4406 153.233
L83.5353 153.144
L83.8235 153.059
L83.9203 152.968
L84.2086 152.874
L84.3035 152.793
L84.589 152.715
L84.6844 152.631
L84.9762 152.533
L85.0733 152.432
L85.361 152.334
L85.4573 152.239
L85.746 152.135
L85.8401 152.023
L86.0343 151.966
L86.1314 151.845
L86.3259 151.783
L86.4203 151.662
L86.6113 151.603
L86.7071 151.481
L86.9022 151.413
L86.9974 151.279
L87.1894 151.215
L87.2881 151.101
L87.4803 151.047
L87.5786 150.935
L87.8695 150.843
L87.9653 150.762
L88.2568 150.681
L88.3545 150.587
L88.6432 150.486
L88.7396 150.389
L89.0261 150.295
L89.1225 150.2
L89.4125 150.104
L89.5069 150
L89.7986 149.905
L89.8954 149.812
L90.1856 149.718
L90.2812 149.63
L90.5733 149.538
L90.6697 149.449
L90.9605 149.36
L91.0541 149.274
L91.3461 149.197
L91.4446 149.122
L91.7363 149.048
L91.8338 148.972
L92.1238 148.898
L92.2214 148.821
L92.6096 148.711
L92.7062 148.633
L92.9956 148.556
L93.0933 148.482
L93.4762 148.375
L93.5742 148.31
L93.9629 148.217
L94.0626 148.157
L94.4501 148.069
L94.5481 148.007
L94.938 147.912
L95.0333 147.854
L95.4182 147.76
L95.5168 147.695
L95.9069 147.608
L96.0053 147.548
L96.4949 147.438
L96.5934 147.387
L97.0845 147.292
L97.1823 147.254
L97.7674 147.158
L97.8628 147.118
L98.4484 147.011
L98.5473 146.965
L99.0378 146.863
L99.1365 146.806
L99.5276 146.714
L99.6226 146.657
L100.109 146.552
L100.208 146.508
L100.695 146.415
L100.791 146.362
L101.277 146.266
L101.376 146.219
L101.872 146.114
L101.968 146.062
L102.358 145.973
L102.457 145.912
L102.946 145.804
L103.043 145.753
L103.529 145.644
L103.625 145.587
L104.118 145.479
L104.216 145.429
L104.706 145.34
L104.807 145.287
L105.2 145.204
L105.295 145.147
L105.687 145.058
L105.785 144.993
L106.179 144.903
L106.279 144.843
L106.675 144.746
L106.771 144.684
L107.166 144.593
L107.262 144.534
L107.655 144.442
L107.756 144.385
L108.147 144.298
L108.245 144.241
L108.74 144.135
L108.841 144.084
L109.333 143.977
L109.429 143.93
L109.918 143.835
L110.016 143.788
L110.509 143.692
L110.607 143.647
L111.102 143.554
L111.196 143.507
L111.69 143.415
L111.788 143.373
L112.481 143.269
L112.58 143.241
L113.466 143.133
L113.566 143.101
L114.262 143.008
L114.359 142.967
L114.953 142.874
L115.05 142.837
L115.644 142.732
L115.741 142.687
L116.333 142.58
L116.432 142.544
L117.118 142.438
L117.216 142.404
L117.914 142.293
L118.015 142.258
L118.902 142.149
L119.002 142.12
L119.789 142.023
L119.886 141.995
L120.681 141.892
L120.781 141.862
L121.577 141.766
L121.677 141.733
L122.47 141.628
L122.569 141.597
L123.369 141.49
L123.465 141.463
L124.358 141.361
L124.46 141.337
L125.454 141.233
L125.552 141.208
L126.349 141.107
L126.451 141.078
L127.146 140.978
L127.247 140.945
L128.145 140.84
L128.244 140.819
L129.043 140.722
L129.143 140.687
L129.837 140.582
L129.94 140.538
L130.543 140.437
L130.641 140.396
L131.142 140.305
L131.24 140.254
L131.737 140.162
L131.837 140.118
L132.436 140.016
L132.534 139.975
L133.031 139.885
L133.132 139.84
L133.735 139.729
L133.835 139.689
L134.534 139.581
L134.638 139.546
L135.34 139.44
L135.44 139.404
L136.235 139.294
L136.336 139.26
L137.139 139.156
L137.241 139.127
L138.039 139.028
L138.141 139.002
L138.849 138.903
L138.951 138.868
L139.649 138.772
L139.748 138.74
L140.551 138.634
L140.653 138.605
L141.551 138.496
L141.651 138.47
L142.551 138.365
L142.65 138.34
L143.559 138.24
L143.661 138.214
L144.673 138.107
L144.774 138.082
L145.681 137.978
L145.781 137.947
L146.583 137.84
L146.683 137.81
L147.489 137.714
L147.588 137.68
L148.291 137.581
L148.392 137.543
L149 137.45
L149.103 137.407
L149.602 137.319
L149.702 137.272
L150.211 137.173
L150.311 137.127
L150.815 137.036
L150.915 136.994
L151.52 136.885
L151.621 136.84
L152.13 136.75
L152.231 136.706
L152.836 136.612
L152.938 136.575
L153.541 136.475
L153.644 136.436
L154.349 136.327
L154.451 136.289
L155.154 136.184
L155.254 136.147
L155.864 136.053
L155.964 136.016
L156.573 135.921
L156.671 135.887
L157.377 135.79
L157.482 135.755
L158.092 135.659
L158.191 135.622
L158.898 135.511
L158.998 135.476
L159.719 135.372
L159.82 135.339
L160.532 135.241
L160.633 135.209
L161.441 135.104
L161.544 135.073
L162.554 134.963
L162.655 134.935
L163.465 134.832
L163.568 134.803
L164.278 134.699
L164.381 134.661
L164.994 134.553
L165.095 134.505
L165.599 134.406
L165.698 134.358
L166.207 134.261
L166.307 134.212
L166.813 134.109
L166.916 134.059
L167.429 133.961
L167.531 133.912
L168.037 133.819
L168.138 133.775
L168.746 133.665
L168.849 133.622
L169.454 133.52
L169.556 133.479
L170.172 133.377
L170.275 133.337
L170.884 133.234
L170.985 133.191
L171.598 133.083
L171.697 133.043
L172.31 132.937
L172.412 132.893
L173.026 132.793
L173.128 132.752
L173.735 132.654
L173.837 132.614
L174.45 132.515
L174.55 132.477
L175.162 132.374
L175.263 132.33
L175.875 132.231
L175.979 132.19
L176.587 132.087
L176.689 132.045
L177.3 131.94
L177.403 131.9
L178.022 131.805
L178.123 131.767
L178.734 131.671
L178.839 131.629
L179.452 131.526
L179.554 131.487
L180.172 131.392
L180.275 131.354
L180.88 131.259
L180.982 131.224
L181.703 131.115
L181.805 131.08
L182.521 130.978
L182.621 130.945
L183.341 130.844
L183.439 130.815
L184.249 130.709
L184.351 130.68
L185.166 130.574
L185.268 130.544
L186.086 130.44
L186.186 130.414
L187.112 130.308
L187.211 130.28
L188.029 130.173
L188.132 130.141
L188.846 130.046
L188.949 130.014
L189.674 129.915
L189.78 129.879
L190.498 129.779
L190.603 129.746
L191.421 129.637
L191.524 129.608
L192.348 129.507
L192.453 129.48
L193.274 129.372
L193.378 129.339
L194.094 129.244
L194.195 129.213
L195.015 129.106
L195.119 129.079
L196.045 128.968
L196.148 128.94
L196.967 128.837
L197.07 128.81
L197.89 128.713
L197.994 128.686
L198.821 128.586
L198.924 128.559
L199.848 128.456
L199.952 128.427
L200.876 128.323
L200.977 128.297
L202.002 128.187
L202.105 128.165
L203.345 128.061
L203.449 128.043
L204.893 127.937
L204.996 127.924
L206.663 127.817
L206.765 127.804
L208.629 127.696
L208.732 127.682
L210.383 127.571
L210.484 127.557
L212.134 127.446
L212.238 127.429
L213.687 127.322
L213.788 127.302
L215.033 127.195
L215.134 127.177
L216.785 127.068
L216.889 127.055
L218.757 126.951
L218.862 126.937
L220.624 126.827
L220.726 126.813
L222.278 126.704
L222.38 126.69
L224.039 126.585
L224.144 126.571
L226.115 126.465
L226.219 126.454
L228.077 126.345
L228.185 126.332
L230.984 126.224
L231.087 126.212
L233.054 126.103
L233.156 126.091
L235.025 125.984
L235.131 125.974
L237.94 125.868
L238.045 125.857
L240.756 125.747
L240.857 125.741
L245.451 125.632
L245.554 125.626
L250.677 125.516
L250.782 125.512
L254.121 125.406
L254.225 125.394
L257.893 125.284
L258 125.28
L263.849 125.169
L263.95 125.168
L272.028 125.057
L272.137 125.049
L275.714 124.941
L275.82 124.934
L278.769 124.827
L278.875 124.818
L281.092 124.708
L281.194 124.696
L284.033 124.586
L284.137 124.576
L287.077 124.466
L287.181 124.459
L292.351 124.351
L292.453 124.343
L295.939 124.234
L296.045 124.225
L298.996 124.118
L299.106 124.107
L301.537 123.997
L301.64 123.989
L304.49 123.88
L304.594 123.869
L307.149 123.76
L307.255 123.75
L309.477 123.642
L309.583 123.631
L311.38 123.523
L311.488 123.51
L313.399 123.403
L313.503 123.39
L315.306 123.281
L315.411 123.268
L317.211 123.162
L317.316 123.147
L319.323 123.04
L319.429 123.027
L321.561 122.917
L321.665 122.905
L323.677 122.796
L323.781 122.784
L325.793 122.678
L325.902 122.665
L328.03 122.559
L328.137 122.548
L330.16 122.442
L330.265 122.431
L332.388 122.32
L332.492 122.307
L334.406 122.196
L334.516 122.184
L336.434 122.079
L336.54 122.066
L338.669 121.958
L338.778 121.948
L341.433 121.839
L341.542 121.828
L343.877 121.719
L343.984 121.708
L346.02 121.6
L346.127 121.586
L347.836 121.48
L347.942 121.466
L349.543 121.36
L349.648 121.343
L351.247 121.233
L351.351 121.217
L352.959 121.108
L353.064 121.093
L354.668 120.985
L354.77 120.969
L356.163 120.865
L356.267 120.848
L357.863 120.742
L357.972 120.727
L359.675 120.619
L359.78 120.604
L361.489 120.496
L361.594 120.482
L363.747 120.373
L363.852 120.362
L366.208 120.253
L366.314 120.243
L368.884 120.136
L368.99 120.126
L371.228 120.02
L371.335 120.008
L373.253 119.899
L373.359 119.886
L375.399 119.778
L375.507 119.765
L377.425 119.657
L377.532 119.645
L379.675 119.535
L379.781 119.524
L381.928 119.415
L382.035 119.403
L384.183 119.295
L384.289 119.286
L386.875 119.177
L386.982 119.168
L389.219 119.06
L389.326 119.049
L391.376 118.943
L391.482 118.932
L393.619 118.824
L393.729 118.811
L395.779 118.705
L395.779 118.699
L397.819 118.59
L397.925 118.578
L400.077 118.467
L400.185 118.457
L402.218 118.35
L402.323 118.338
L404.37 118.228
L404.478 118.216
L406.628 118.106
L406.735 118.094
L408.787 117.987
L408.892 117.974
L410.933 117.864
L411.043 117.853
L413.42 117.745
L413.53 117.733
L415.9 117.625
L416.009 117.615
L418.586 117.508
L418.694 117.499
L421.173 117.388
L421.278 117.378
L423.549 117.273
L423.655 117.262
L425.824 117.153
L425.933 117.141
L427.981 117.031
L428.088 117.018
L430.255 116.908
L430.359 116.896
L432.516 116.789
L432.625 116.778
L434.903 116.669
L435.012 116.658
L437.066 116.552
L437.175 116.54
L439.228 116.431
L439.334 116.419
L441.283 116.308
L441.391 116.295
L443.344 116.184
L443.451 116.171
L445.289 116.065
L445.396 116.052
L447.228 115.943
L447.33 115.932
L449.489 115.823
L449.595 115.812
L451.984 115.703
L452.09 115.694
L454.586 115.584
L454.693 115.574
L457.286 115.466
L457.394 115.457
L459.682 115.35
L459.79 115.338
L461.85 115.23
L461.956 115.218
L464.13 115.109
L464.238 115.097
L466.411 114.987
L466.518 114.975
L468.695 114.869
L468.804 114.858
L471.08 114.748
L471.188 114.738
L473.683 114.632
L473.683 114.627
L476.185 114.517
L476.289 114.507
L478.792 114.4
L478.902 114.39
L481.401 114.28
L481.512 114.27
L484.225 114.16
L484.225 114.156
L487.492 114.047
L487.599 114.04
L491.079 113.929
L491.189 113.921
L494.677 113.811
L494.677 113.808
L498.701 113.698
L498.701 113.695
L504.152 113.586
L504.261 113.581
L512.118 113.47
L512.118 113.469
L520.074 113.359
L520.074 113.358
L527.831 113.248
L527.94 113.243
L534.383 113.134
L534.488 113.131
L545.226 113.043
L545.226 113.042" style="fill:none;stroke:#ff0000;stroke-width:0.5;"/>
   </g>
   <g id="matplotlib.axis_1">
    <g id="xtick_1">
     <g id="line2d_2">
      <defs>
       <path d="
M0 0
L0 -4" id="m6f039bb1ea"/>
      </defs>
      <g>
       <use style="stroke:#000000;stroke-linecap:butt;stroke-width:0.5;" x="29.3484375" xlink:href="#m6f039bb1ea" y="15.0092307692"/>
      </g>
     </g>
    </g>
    <g id="xtick_2">
     <g id="line2d_3">
      <defs>
       <path d="
M0 0
L0 -4" id="m6f039bb1ea"/>
      </defs>
      <g>
       <use style="stroke:#000000;stroke-linecap:butt;stroke-width:0.5;" x="132.529900812" xlink:href="#m6f039bb1ea" y="15.0092307692"/>
      </g>
     </g>
     <g id="text_1">
      <!-- 2e7 -->
      <defs>
       <path d="
M19.1875 8.29688
L53.6094 8.29688
L53.6094 0
L7.32812 0
L7.32812 8.29688
Q12.9375 14.1094 22.625 23.8906
Q32.3281 33.6875 34.8125 36.5312
Q39.5469 41.8438 41.4219 45.5312
Q43.3125 49.2188 43.3125 52.7812
Q43.3125 58.5938 39.2344 62.25
Q35.1562 65.9219 28.6094 65.9219
Q23.9688 65.9219 18.8125 64.3125
Q13.6719 62.7031 7.8125 59.4219
L7.8125 69.3906
Q13.7656 71.7812 18.9375 73
Q24.125 74.2188 28.4219 74.2188
Q39.75 74.2188 46.4844 68.5469
Q53.2188 62.8906 53.2188 53.4219
Q53.2188 48.9219 51.5312 44.8906
Q49.8594 40.875 45.4062 35.4062
Q44.1875 33.9844 37.6406 27.2188
Q31.1094 20.4531 19.1875 8.29688" id="BitstreamVeraSans-Roman-32"/>
       <path d="
M56.2031 29.5938
L56.2031 25.2031
L14.8906 25.2031
Q15.4844 15.9219 20.4844 11.0625
Q25.4844 6.20312 34.4219 6.20312
Q39.5938 6.20312 44.4531 7.46875
Q49.3125 8.73438 54.1094 11.2812
L54.1094 2.78125
Q49.2656 0.734375 44.1875 -0.34375
Q39.1094 -1.42188 33.8906 -1.42188
Q20.7969 -1.42188 13.1562 6.1875
Q5.51562 13.8125 5.51562 26.8125
Q5.51562 40.2344 12.7656 48.1094
Q20.0156 56 32.3281 56
Q43.3594 56 49.7812 48.8906
Q56.2031 41.7969 56.2031 29.5938
M47.2188 32.2344
Q47.125 39.5938 43.0938 43.9844
Q39.0625 48.3906 32.4219 48.3906
Q24.9062 48.3906 20.3906 44.1406
Q15.875 39.8906 15.1875 32.1719
z
" id="BitstreamVeraSans-Roman-65"/>
       <path d="
M8.20312 72.9062
L55.0781 72.9062
L55.0781 68.7031
L28.6094 0
L18.3125 0
L43.2188 64.5938
L8.20312 64.5938
z
" id="BitstreamVeraSans-Roman-37"/>
      </defs>
      <g transform="translate(123.884588312 26.4311057692)scale(0.1 -0.1)">
       <use xlink:href="#BitstreamVeraSans-Roman-32"/>
       <use x="63.623046875" xlink:href="#BitstreamVeraSans-Roman-65"/>
       <use x="125.146484375" xlink:href="#BitstreamVeraSans-Roman-37"/>
      </g>
     </g>
    </g>
    <g id="xtick_3">
     <g id="line2d_4">
      <defs>
       <path d="
M0 0
L0 -4" id="m6f039bb1ea"/>
      </defs>
      <g>
       <use style="stroke:#000000;stroke-linecap:butt;stroke-width:0.5;" x="235.711364124" xlink:href="#m6f039bb1ea" y="15.0092307692"/>
      </g>
     </g>
     <g id="text_2">
      <!-- 4e7 -->
      <defs>
       <path d="
M37.7969 64.3125
L12.8906 25.3906
L37.7969 25.3906
z

M35.2031 72.9062
L47.6094 72.9062
L47.6094 25.3906
L58.0156 25.3906
L58.0156 17.1875
L47.6094 17.1875
L47.6094 0
L37.7969 0
L37.7969 17.1875
L4.89062 17.1875
L4.89062 26.7031
z
" id="BitstreamVeraSans-Roman-34"/>
      </defs>
      <g transform="translate(226.944176624 26.2998557692)scale(0.1 -0.1)">
       <use xlink:href="#BitstreamVeraSans-Roman-34"/>
       <use x="63.623046875" xlink:href="#BitstreamVeraSans-Roman-65"/>
       <use x="125.146484375" xlink:href="#BitstreamVeraSans-Roman-37"/>
      </g>
     </g>
    </g>
    <g id="xtick_4">
     <g id="line2d_5">
      <defs>
       <path d="
M0 0
L0 -4" id="m6f039bb1ea"/>
      </defs>
      <g>
       <use style="stroke:#000000;stroke-linecap:butt;stroke-width:0.5;" x="338.892827436" xlink:href="#m6f039bb1ea" y="15.0092307692"/>
      </g>
     </g>
     <g id="text_3">
      <!-- 6e7 -->
      <defs>
       <path d="
M33.0156 40.375
Q26.375 40.375 22.4844 35.8281
Q18.6094 31.2969 18.6094 23.3906
Q18.6094 15.5312 22.4844 10.9531
Q26.375 6.39062 33.0156 6.39062
Q39.6562 6.39062 43.5312 10.9531
Q47.4062 15.5312 47.4062 23.3906
Q47.4062 31.2969 43.5312 35.8281
Q39.6562 40.375 33.0156 40.375
M52.5938 71.2969
L52.5938 62.3125
Q48.875 64.0625 45.0938 64.9844
Q41.3125 65.9219 37.5938 65.9219
Q27.8281 65.9219 22.6719 59.3281
Q17.5312 52.7344 16.7969 39.4062
Q19.6719 43.6562 24.0156 45.9219
Q28.375 48.1875 33.5938 48.1875
Q44.5781 48.1875 50.9531 41.5156
Q57.3281 34.8594 57.3281 23.3906
Q57.3281 12.1562 50.6875 5.35938
Q44.0469 -1.42188 33.0156 -1.42188
Q20.3594 -1.42188 13.6719 8.26562
Q6.98438 17.9688 6.98438 36.375
Q6.98438 53.6562 15.1875 63.9375
Q23.3906 74.2188 37.2031 74.2188
Q40.9219 74.2188 44.7031 73.4844
Q48.4844 72.75 52.5938 71.2969" id="BitstreamVeraSans-Roman-36"/>
      </defs>
      <g transform="translate(330.230327436 26.4311057692)scale(0.1 -0.1)">
       <use xlink:href="#BitstreamVeraSans-Roman-36"/>
       <use x="63.623046875" xlink:href="#BitstreamVeraSans-Roman-65"/>
       <use x="125.146484375" xlink:href="#BitstreamVeraSans-Roman-37"/>
      </g>
     </g>
    </g>
    <g id="xtick_5">
     <g id="line2d_6">
      <defs>
       <path d="
M0 0
L0 -4" id="m6f039bb1ea"/>
      </defs>
      <g>
       <use style="stroke:#000000;stroke-linecap:butt;stroke-width:0.5;" x="442.074290747" xlink:href="#m6f039bb1ea" y="15.0092307692"/>
      </g>
     </g>
     <g id="text_4">
      <!-- 8e7 -->
      <defs>
       <path d="
M31.7812 34.625
Q24.75 34.625 20.7188 30.8594
Q16.7031 27.0938 16.7031 20.5156
Q16.7031 13.9219 20.7188 10.1562
Q24.75 6.39062 31.7812 6.39062
Q38.8125 6.39062 42.8594 10.1719
Q46.9219 13.9688 46.9219 20.5156
Q46.9219 27.0938 42.8906 30.8594
Q38.875 34.625 31.7812 34.625
M21.9219 38.8125
Q15.5781 40.375 12.0312 44.7188
Q8.5 49.0781 8.5 55.3281
Q8.5 64.0625 14.7188 69.1406
Q20.9531 74.2188 31.7812 74.2188
Q42.6719 74.2188 48.875 69.1406
Q55.0781 64.0625 55.0781 55.3281
Q55.0781 49.0781 51.5312 44.7188
Q48 40.375 41.7031 38.8125
Q48.8281 37.1562 52.7969 32.3125
Q56.7812 27.4844 56.7812 20.5156
Q56.7812 9.90625 50.3125 4.23438
Q43.8438 -1.42188 31.7812 -1.42188
Q19.7344 -1.42188 13.25 4.23438
Q6.78125 9.90625 6.78125 20.5156
Q6.78125 27.4844 10.7812 32.3125
Q14.7969 37.1562 21.9219 38.8125
M18.3125 54.3906
Q18.3125 48.7344 21.8438 45.5625
Q25.3906 42.3906 31.7812 42.3906
Q38.1406 42.3906 41.7188 45.5625
Q45.3125 48.7344 45.3125 54.3906
Q45.3125 60.0625 41.7188 63.2344
Q38.1406 66.4062 31.7812 66.4062
Q25.3906 66.4062 21.8438 63.2344
Q18.3125 60.0625 18.3125 54.3906" id="BitstreamVeraSans-Roman-38"/>
      </defs>
      <g transform="translate(433.401634497 26.4311057692)scale(0.1 -0.1)">
       <use xlink:href="#BitstreamVeraSans-Roman-38"/>
       <use x="63.623046875" xlink:href="#BitstreamVeraSans-Roman-65"/>
       <use x="125.146484375" xlink:href="#BitstreamVeraSans-Roman-37"/>
      </g>
     </g>
    </g>
    <g id="xtick_6">
     <g id="line2d_7">
      <defs>
       <path d="
M0 0
L0 -4" id="m6f039bb1ea"/>
      </defs>
      <g>
       <use style="stroke:#000000;stroke-linecap:butt;stroke-width:0.5;" x="545.255754059" xlink:href="#m6f039bb1ea" y="15.0092307692"/>
      </g>
     </g>
     <g id="text_5">
      <!-- 1e8 -->
      <defs>
       <path d="
M12.4062 8.29688
L28.5156 8.29688
L28.5156 63.9219
L10.9844 60.4062
L10.9844 69.3906
L28.4219 72.9062
L38.2812 72.9062
L38.2812 8.29688
L54.3906 8.29688
L54.3906 0
L12.4062 0
z
" id="BitstreamVeraSans-Roman-31"/>
      </defs>
      <g transform="translate(536.708097809 26.4311057692)scale(0.1 -0.1)">
       <use xlink:href="#BitstreamVeraSans-Roman-31"/>
       <use x="63.623046875" xlink:href="#BitstreamVeraSans-Roman-65"/>
       <use x="125.146484375" xlink:href="#BitstreamVeraSans-Roman-38"/>
      </g>
     </g>
    </g>
    <g id="xtick_7">
     <g id="line2d_8">
      <defs>
       <path d="
M0 0
L0 -2" id="m78dd377780"/>
      </defs>
      <g>
       <use style="stroke:#000000;stroke-linecap:butt;stroke-width:0.5;" x="55.143803328" xlink:href="#m78dd377780" y="15.0092307692"/>
      </g>
     </g>
    </g>
    <g id="xtick_8">
     <g id="line2d_9">
      <defs>
       <path d="
M0 0
L0 -2" id="m78dd377780"/>
      </defs>
      <g>
       <use style="stroke:#000000;stroke-linecap:butt;stroke-width:0.5;" x="80.9391691559" xlink:href="#m78dd377780" y="15.0092307692"/>
      </g>
     </g>
    </g>
    <g id="xtick_9">
     <g id="line2d_10">
      <defs>
       <path d="
M0 0
L0 -2" id="m78dd377780"/>
      </defs>
      <g>
       <use style="stroke:#000000;stroke-linecap:butt;stroke-width:0.5;" x="106.734534984" xlink:href="#m78dd377780" y="15.0092307692"/>
      </g>
     </g>
    </g>
    <g id="xtick_10">
     <g id="line2d_11">
      <defs>
       <path d="
M0 0
L0 -2" id="m78dd377780"/>
      </defs>
      <g>
       <use style="stroke:#000000;stroke-linecap:butt;stroke-width:0.5;" x="158.32526664" xlink:href="#m78dd377780" y="15.0092307692"/>
      </g>
     </g>
    </g>
    <g id="xtick_11">
     <g id="line2d_12">
      <defs>
       <path d="
M0 0
L0 -2" id="m78dd377780"/>
      </defs>
      <g>
       <use style="stroke:#000000;stroke-linecap:butt;stroke-width:0.5;" x="184.120632468" xlink:href="#m78dd377780" y="15.0092307692"/>
      </g>
     </g>
    </g>
    <g id="xtick_12">
     <g id="line2d_13">
      <defs>
       <path d="
M0 0
L0 -2" id="m78dd377780"/>
      </defs>
      <g>
       <use style="stroke:#000000;stroke-linecap:butt;stroke-width:0.5;" x="209.915998296" xlink:href="#m78dd377780" y="15.0092307692"/>
      </g>
     </g>
    </g>
    <g id="xtick_13">
     <g id="line2d_14">
      <defs>
       <path d="
M0 0
L0 -2" id="m78dd377780"/>
      </defs>
      <g>
       <use style="stroke:#000000;stroke-linecap:butt;stroke-width:0.5;" x="261.506729952" xlink:href="#m78dd377780" y="15.0092307692"/>
      </g>
     </g>
    </g>
    <g id="xtick_14">
     <g id="line2d_15">
      <defs>
       <path d="
M0 0
L0 -2" id="m78dd377780"/>
      </defs>
      <g>
       <use style="stroke:#000000;stroke-linecap:butt;stroke-width:0.5;" x="287.30209578" xlink:href="#m78dd377780" y="15.0092307692"/>
      </g>
     </g>
    </g>
    <g id="xtick_15">
     <g id="line2d_16">
      <defs>
       <path d="
M0 0
L0 -2" id="m78dd377780"/>
      </defs>
      <g>
       <use style="stroke:#000000;stroke-linecap:butt;stroke-width:0.5;" x="313.097461608" xlink:href="#m78dd377780" y="15.0092307692"/>
      </g>
     </g>
    </g>
    <g id="xtick_16">
     <g id="line2d_17">
      <defs>
       <path d="
M0 0
L0 -2" id="m78dd377780"/>
      </defs>
      <g>
       <use style="stroke:#000000;stroke-linecap:butt;stroke-width:0.5;" x="364.688193263" xlink:href="#m78dd377780" y="15.0092307692"/>
      </g>
     </g>
    </g>
    <g id="xtick_17">
     <g id="line2d_18">
      <defs>
       <path d="
M0 0
L0 -2" id="m78dd377780"/>
      </defs>
      <g>
       <use style="stroke:#000000;stroke-linecap:butt;stroke-width:0.5;" x="390.483559091" xlink:href="#m78dd377780" y="15.0092307692"/>
      </g>
     </g>
    </g>
    <g id="xtick_18">
     <g id="line2d_19">
      <defs>
       <path d="
M0 0
L0 -2" id="m78dd377780"/>
      </defs>
      <g>
       <use style="stroke:#000000;stroke-linecap:butt;stroke-width:0.5;" x="416.278924919" xlink:href="#m78dd377780" y="15.0092307692"/>
      </g>
     </g>
    </g>
    <g id="xtick_19">
     <g id="line2d_20">
      <defs>
       <path d="
M0 0
L0 -2" id="m78dd377780"/>
      </defs>
      <g>
       <use style="stroke:#000000;stroke-linecap:butt;stroke-width:0.5;" x="467.869656575" xlink:href="#m78dd377780" y="15.0092307692"/>
      </g>
     </g>
    </g>
    <g id="xtick_20">
     <g id="line2d_21">
      <defs>
       <path d="
M0 0
L0 -2" id="m78dd377780"/>
      </defs>
      <g>
       <use style="stroke:#000000;stroke-linecap:butt;stroke-width:0.5;" x="493.665022403" xlink:href="#m78dd377780" y="15.0092307692"/>
      </g>
     </g>
    </g>
    <g id="xtick_21">
     <g id="line2d_22">
      <defs>
       <path d="
M0 0
L0 -2" id="m78dd377780"/>
      </defs>
      <g>
       <use style="stroke:#000000;stroke-linecap:butt;stroke-width:0.5;" x="519.460388231" xlink:href="#m78dd377780" y="15.0092307692"/>
      </g>
     </g>
    </g>
   </g>
   <g id="matplotlib.axis_2">
    <g id="ytick_1">
     <g id="line2d_23">
      <defs>
       <path d="
M0 0
L4 0" id="m5f623cf542"/>
      </defs>
      <g>
       <use style="stroke:#000000;stroke-linecap:butt;stroke-width:0.5;" x="29.3484375" xlink:href="#m5f623cf542" y="360.683558756"/>
      </g>
     </g>
     <g id="text_6">
      <!-- -2 -->
      <defs>
       <path d="
M4.89062 31.3906
L31.2031 31.3906
L31.2031 23.3906
L4.89062 23.3906
z
" id="BitstreamVeraSans-Roman-2d"/>
      </defs>
      <g transform="translate(16.86875 364.394496256)scale(0.1 -0.1)">
       <use xlink:href="#BitstreamVeraSans-Roman-2d"/>
       <use x="36.083984375" xlink:href="#BitstreamVeraSans-Roman-32"/>
      </g>
     </g>
    </g>
    <g id="ytick_2">
     <g id="line2d_24">
      <defs>
       <path d="
M0 0
L4 0" id="m5f623cf542"/>
      </defs>
      <g>
       <use style="stroke:#000000;stroke-linecap:butt;stroke-width:0.5;" x="29.3484375" xlink:href="#m5f623cf542" y="274.26497676"/>
      </g>
     </g>
     <g id="text_7">
      <!-- -1.5 -->
      <defs>
       <path d="
M10.6875 12.4062
L21 12.4062
L21 0
L10.6875 0
z
" id="BitstreamVeraSans-Roman-2e"/>
       <path d="
M10.7969 72.9062
L49.5156 72.9062
L49.5156 64.5938
L19.8281 64.5938
L19.8281 46.7344
Q21.9688 47.4688 24.1094 47.8281
Q26.2656 48.1875 28.4219 48.1875
Q40.625 48.1875 47.75 41.5
Q54.8906 34.8125 54.8906 23.3906
Q54.8906 11.625 47.5625 5.09375
Q40.2344 -1.42188 26.9062 -1.42188
Q22.3125 -1.42188 17.5469 -0.640625
Q12.7969 0.140625 7.71875 1.70312
L7.71875 11.625
Q12.1094 9.23438 16.7969 8.0625
Q21.4844 6.89062 26.7031 6.89062
Q35.1562 6.89062 40.0781 11.3281
Q45.0156 15.7656 45.0156 23.3906
Q45.0156 31 40.0781 35.4375
Q35.1562 39.8906 26.7031 39.8906
Q22.75 39.8906 18.8125 39.0156
Q14.8906 38.1406 10.7969 36.2812
z
" id="BitstreamVeraSans-Roman-35"/>
      </defs>
      <g transform="translate(7.2 277.83919551)scale(0.1 -0.1)">
       <use xlink:href="#BitstreamVeraSans-Roman-2d"/>
       <use x="36.083984375" xlink:href="#BitstreamVeraSans-Roman-31"/>
       <use x="99.70703125" xlink:href="#BitstreamVeraSans-Roman-2e"/>
       <use x="131.494140625" xlink:href="#BitstreamVeraSans-Roman-35"/>
      </g>
     </g>
    </g>
    <g id="ytick_3">
     <g id="line2d_25">
      <defs>
       <path d="
M0 0
L4 0" id="m5f623cf542"/>
      </defs>
      <g>
       <use style="stroke:#000000;stroke-linecap:butt;stroke-width:0.5;" x="29.3484375" xlink:href="#m5f623cf542" y="187.846394763"/>
      </g>
     </g>
     <g id="text_8">
      <!-- -1 -->
      <g transform="translate(16.790625 191.491707263)scale(0.1 -0.1)">
       <use xlink:href="#BitstreamVeraSans-Roman-2d"/>
       <use x="36.083984375" xlink:href="#BitstreamVeraSans-Roman-31"/>
      </g>
     </g>
    </g>
    <g id="ytick_4">
     <g id="line2d_26">
      <defs>
       <path d="
M0 0
L4 0" id="m5f623cf542"/>
      </defs>
      <g>
       <use style="stroke:#000000;stroke-linecap:butt;stroke-width:0.5;" x="29.3484375" xlink:href="#m5f623cf542" y="101.427812766"/>
      </g>
     </g>
     <g id="text_9">
      <!-- -0.5 -->
      <defs>
       <path d="
M31.7812 66.4062
Q24.1719 66.4062 20.3281 58.9062
Q16.5 51.4219 16.5 36.375
Q16.5 21.3906 20.3281 13.8906
Q24.1719 6.39062 31.7812 6.39062
Q39.4531 6.39062 43.2812 13.8906
Q47.125 21.3906 47.125 36.375
Q47.125 51.4219 43.2812 58.9062
Q39.4531 66.4062 31.7812 66.4062
M31.7812 74.2188
Q44.0469 74.2188 50.5156 64.5156
Q56.9844 54.8281 56.9844 36.375
Q56.9844 17.9688 50.5156 8.26562
Q44.0469 -1.42188 31.7812 -1.42188
Q19.5312 -1.42188 13.0625 8.26562
Q6.59375 17.9688 6.59375 36.375
Q6.59375 54.8281 13.0625 64.5156
Q19.5312 74.2188 31.7812 74.2188" id="BitstreamVeraSans-Roman-30"/>
      </defs>
      <g transform="translate(7.2 105.067656516)scale(0.1 -0.1)">
       <use xlink:href="#BitstreamVeraSans-Roman-2d"/>
       <use x="36.083984375" xlink:href="#BitstreamVeraSans-Roman-30"/>
       <use x="99.70703125" xlink:href="#BitstreamVeraSans-Roman-2e"/>
       <use x="131.494140625" xlink:href="#BitstreamVeraSans-Roman-35"/>
      </g>
     </g>
    </g>
    <g id="ytick_5">
     <g id="line2d_27">
      <defs>
       <path d="
M0 0
L4 0" id="m5f623cf542"/>
      </defs>
      <g>
       <use style="stroke:#000000;stroke-linecap:butt;stroke-width:0.5;" x="29.3484375" xlink:href="#m5f623cf542" y="15.0092307692"/>
      </g>
     </g>
    </g>
    <g id="ytick_6">
     <g id="line2d_28">
      <defs>
       <path d="
M0 0
L2 0" id="m1cc79b83f2"/>
      </defs>
      <g>
       <use style="stroke:#000000;stroke-linecap:butt;stroke-width:0.5;" x="29.3484375" xlink:href="#m1cc79b83f2" y="412.534707954"/>
      </g>
     </g>
    </g>
    <g id="ytick_7">
     <g id="line2d_29">
      <defs>
       <path d="
M0 0
L2 0" id="m1cc79b83f2"/>
      </defs>
      <g>
       <use style="stroke:#000000;stroke-linecap:butt;stroke-width:0.5;" x="29.3484375" xlink:href="#m1cc79b83f2" y="395.250991555"/>
      </g>
     </g>
    </g>
    <g id="ytick_8">
     <g id="line2d_30">
      <defs>
       <path d="
M0 0
L2 0" id="m1cc79b83f2"/>
      </defs>
      <g>
       <use style="stroke:#000000;stroke-linecap:butt;stroke-width:0.5;" x="29.3484375" xlink:href="#m1cc79b83f2" y="377.967275156"/>
      </g>
     </g>
    </g>
    <g id="ytick_9">
     <g id="line2d_31">
      <defs>
       <path d="
M0 0
L2 0" id="m1cc79b83f2"/>
      </defs>
      <g>
       <use style="stroke:#000000;stroke-linecap:butt;stroke-width:0.5;" x="29.3484375" xlink:href="#m1cc79b83f2" y="343.399842357"/>
      </g>
     </g>
    </g>
    <g id="ytick_10">
     <g id="line2d_32">
      <defs>
       <path d="
M0 0
L2 0" id="m1cc79b83f2"/>
      </defs>
      <g>
       <use style="stroke:#000000;stroke-linecap:butt;stroke-width:0.5;" x="29.3484375" xlink:href="#m1cc79b83f2" y="326.116125958"/>
      </g>
     </g>
    </g>
    <g id="ytick_11">
     <g id="line2d_33">
      <defs>
       <path d="
M0 0
L2 0" id="m1cc79b83f2"/>
      </defs>
      <g>
       <use style="stroke:#000000;stroke-linecap:butt;stroke-width:0.5;" x="29.3484375" xlink:href="#m1cc79b83f2" y="308.832409558"/>
      </g>
     </g>
    </g>
    <g id="ytick_12">
     <g id="line2d_34">
      <defs>
       <path d="
M0 0
L2 0" id="m1cc79b83f2"/>
      </defs>
      <g>
       <use style="stroke:#000000;stroke-linecap:butt;stroke-width:0.5;" x="29.3484375" xlink:href="#m1cc79b83f2" y="291.548693159"/>
      </g>
     </g>
    </g>
    <g id="ytick_13">
     <g id="line2d_35">
      <defs>
       <path d="
M0 0
L2 0" id="m1cc79b83f2"/>
      </defs>
      <g>
       <use style="stroke:#000000;stroke-linecap:butt;stroke-width:0.5;" x="29.3484375" xlink:href="#m1cc79b83f2" y="256.98126036"/>
      </g>
     </g>
    </g>
    <g id="ytick_14">
     <g id="line2d_36">
      <defs>
       <path d="
M0 0
L2 0" id="m1cc79b83f2"/>
      </defs>
      <g>
       <use style="stroke:#000000;stroke-linecap:butt;stroke-width:0.5;" x="29.3484375" xlink:href="#m1cc79b83f2" y="239.697543961"/>
      </g>
     </g>
    </g>
    <g id="ytick_15">
     <g id="line2d_37">
      <defs>
       <path d="
M0 0
L2 0" id="m1cc79b83f2"/>
      </defs>
      <g>
       <use style="stroke:#000000;stroke-linecap:butt;stroke-width:0.5;" x="29.3484375" xlink:href="#m1cc79b83f2" y="222.413827561"/>
      </g>
     </g>
    </g>
    <g id="ytick_16">
     <g id="line2d_38">
      <defs>
       <path d="
M0 0
L2 0" id="m1cc79b83f2"/>
      </defs>
      <g>
       <use style="stroke:#000000;stroke-linecap:butt;stroke-width:0.5;" x="29.3484375" xlink:href="#m1cc79b83f2" y="205.130111162"/>
      </g>
     </g>
    </g>
    <g id="ytick_17">
     <g id="line2d_39">
      <defs>
       <path d="
M0 0
L2 0" id="m1cc79b83f2"/>
      </defs>
      <g>
       <use style="stroke:#000000;stroke-linecap:butt;stroke-width:0.5;" x="29.3484375" xlink:href="#m1cc79b83f2" y="170.562678363"/>
      </g>
     </g>
    </g>
    <g id="ytick_18">
     <g id="line2d_40">
      <defs>
       <path d="
M0 0
L2 0" id="m1cc79b83f2"/>
      </defs>
      <g>
       <use style="stroke:#000000;stroke-linecap:butt;stroke-width:0.5;" x="29.3484375" xlink:href="#m1cc79b83f2" y="153.278961964"/>
      </g>
     </g>
    </g>
    <g id="ytick_19">
     <g id="line2d_41">
      <defs>
       <path d="
M0 0
L2 0" id="m1cc79b83f2"/>
      </defs>
      <g>
       <use style="stroke:#000000;stroke-linecap:butt;stroke-width:0.5;" x="29.3484375" xlink:href="#m1cc79b83f2" y="135.995245565"/>
      </g>
     </g>
    </g>
    <g id="ytick_20">
     <g id="line2d_42">
      <defs>
       <path d="
M0 0
L2 0" id="m1cc79b83f2"/>
      </defs>
      <g>
       <use style="stroke:#000000;stroke-linecap:butt;stroke-width:0.5;" x="29.3484375" xlink:href="#m1cc79b83f2" y="118.711529165"/>
      </g>
     </g>
    </g>
    <g id="ytick_21">
     <g id="line2d_43">
      <defs>
       <path d="
M0 0
L2 0" id="m1cc79b83f2"/>
      </defs>
      <g>
       <use style="stroke:#000000;stroke-linecap:butt;stroke-width:0.5;" x="29.3484375" xlink:href="#m1cc79b83f2" y="84.1440963666"/>
      </g>
     </g>
    </g>
    <g id="ytick_22">
     <g id="line2d_44">
      <defs>
       <path d="
M0 0
L2 0" id="m1cc79b83f2"/>
      </defs>
      <g>
       <use style="stroke:#000000;stroke-linecap:butt;stroke-width:0.5;" x="29.3484375" xlink:href="#m1cc79b83f2" y="66.8603799673"/>
      </g>
     </g>
    </g>
    <g id="ytick_23">
     <g id="line2d_45">
      <defs>
       <path d="
M0 0
L2 0" id="m1cc79b83f2"/>
      </defs>
      <g>
       <use style="stroke:#000000;stroke-linecap:butt;stroke-width:0.5;" x="29.3484375" xlink:href="#m1cc79b83f2" y="49.5766635679"/>
      </g>
     </g>
    </g>
    <g id="ytick_24">
     <g id="line2d_46">
      <defs>
       <path d="
M0 0
L2 0" id="m1cc79b83f2"/>
      </defs>
      <g>
       <use style="stroke:#000000;stroke-linecap:butt;stroke-width:0.5;" x="29.3484375" xlink:href="#m1cc79b83f2" y="32.2929471686"/>
      </g>
     </g>
    </g>
   </g>
   <g id="patch_3">
    <path d="
M19.0309 15.0092
L555.544 15.0092" style="fill:none;stroke:#000000;stroke-width:0.8;"/>
   </g>
   <g id="patch_4">
    <path d="
M29.3484 413.28
L29.3484 7.2" style="fill:none;stroke:#000000;stroke-width:0.8;"/>
   </g>
  </g>
 </g>
 <defs>
  <clipPath id="p13c0847ff8">
   <rect height="406.08" width="536.513117448" x="19.0308878672" y="7.2"/>
  </clipPath>
 </defs>
</svg>
