<?xml version="1.0" encoding="utf-8" standalone="no"?>
<!DOCTYPE svg PUBLIC "-//W3C//DTD SVG 1.1//EN"
  "http://www.w3.org/Graphics/SVG/1.1/DTD/svg11.dtd">
<!-- Created with matplotlib (http://matplotlib.sourceforge.net/) -->
<svg height="420pt" version="1.1" viewBox="0 0 562 420" width="562pt" xmlns="http://www.w3.org/2000/svg" xmlns:xlink="http://www.w3.org/1999/xlink">
 <defs>
  <style type="text/css">
*{stroke-linecap:square;stroke-linejoin:round;}
  </style>
 </defs>
 <g id="figure_1">
  <g id="patch_1">
   <path d="
M0 420.48
L562.744 420.48
L562.744 0
L0 0
z
" style="fill:#ffffff;"/>
  </g>
  <g id="axes_1">
   <g id="patch_2">
    <path d="
M19.0309 413.28
L555.544 413.28
L555.544 7.2
L19.0309 7.2
z
" style="fill:#ffffff;"/>
   </g>
   <g id="line2d_1">
    <path clip-path="url(#p13c0847ff8)" d="
M29.3484 15.0092
L29.3965 15.0092
L29.3965 405.471
L29.4537 393.062
L29.5147 393.062
L29.5768 386.118
L29.6415 386.118
L29.7082 376.796
L29.7741 376.796
L29.8417 375.827
L29.911 375.827
L29.9804 374.384
L30.0506 374.384
L30.1209 371.693
L30.1923 371.693
L30.2646 369.546
L30.3362 369.546
L30.4089 367.773
L30.4818 367.773
L30.555 367.213
L30.6286 367.213
L30.7035 365.552
L30.7767 365.552
L30.852 364.004
L30.9277 364.004
L31.0018 362.433
L31.077 362.433
L31.1528 361.209
L31.3818 361.196
L31.4605 360.622
L31.5366 360.622
L31.5366 360.399
L31.6132 360.445
L31.9236 360.361
L32.0021 360.099
L32.0794 360.099
L32.1589 359.91
L32.317 359.824
L32.3944 359.438
L32.4739 359.438
L32.5522 358.754
L32.6328 358.754
L32.714 357.844
L32.7931 357.844
L32.8734 356.557
L32.9523 356.557
L33.0317 355.758
L33.1123 355.758
L33.194 355.04
L33.2745 355.04
L33.3546 354.216
L33.4347 354.216
L33.5151 353.395
L33.5956 353.395
L33.6766 352.489
L33.7591 352.489
L33.8384 351.871
L33.92 351.871
L34.0021 351.478
L34.0836 351.478
L34.1652 351.033
L34.2478 351.033
L34.3296 350.75
L34.4128 350.75
L34.4956 350.539
L34.8254 350.437
L34.9083 350.314
L35.2369 350.238
L35.3205 350.003
L35.4024 350.003
L35.4832 349.65
L35.568 349.65
L35.651 349.199
L35.7368 349.199
L35.8201 348.83
L35.9019 348.83
L35.9858 348.504
L36.07 348.504
L36.1537 348.288
L36.2385 348.288
L36.3227 348.035
L36.5719 347.924
L36.6593 347.812
L36.7427 347.812
L36.8268 347.61
L36.9945 347.531
L37.0784 347.487
L37.4182 347.396
L37.5034 347.333
L37.7588 347.236
L37.8443 347.054
L37.9297 347.054
L38.0132 346.806
L38.1847 346.699
L38.2709 346.502
L38.3577 346.502
L38.4438 346.284
L38.6136 346.19
L38.6986 346.05
L38.8702 345.943
L38.9548 345.734
L39.2965 345.648
L39.3825 345.598
L39.6435 345.541
L39.728 345.434
L39.8997 345.369
L39.9869 345.283
L40.4189 345.182
L40.505 345.076
L40.6796 344.993
L40.7667 344.832
L40.9421 344.746
L41.0281 344.554
L41.2025 344.463
L41.2896 344.313
L41.4661 344.258
L41.5525 344.119
L41.727 344.039
L41.8151 343.861
L41.991 343.77
L42.0774 343.609
L42.2538 343.517
L42.3416 343.353
L42.517 343.285
L42.6043 343.155
L42.8664 343.075
L42.9542 343.006
L43.3043 342.898
L43.3918 342.788
L43.5709 342.722
L43.6582 342.538
L43.8354 342.46
L43.9198 342.298
L44.0964 342.21
L44.1862 341.99
L44.2753 341.99
L44.3635 341.78
L44.5417 341.711
L44.6313 341.551
L44.8079 341.481
L44.8952 341.366
L45.0751 341.294
L45.1661 341.16
L45.3413 341.09
L45.4295 340.958
L45.608 340.895
L45.6963 340.761
L45.8705 340.674
L45.9595 340.495
L46.1373 340.401
L46.2263 340.179
L46.4057 340.069
L46.4949 339.839
L46.5842 339.839
L46.6755 339.602
L46.8537 339.493
L46.9417 339.312
L47.1176 339.24
L47.2087 339.123
L47.3922 339.063
L47.4822 338.962
L47.7546 338.874
L47.8452 338.783
L48.0212 338.727
L48.1095 338.605
L48.2922 338.54
L48.3802 338.438
L48.559 338.379
L48.6474 338.25
L48.83 338.182
L48.9202 338.089
L49.1879 337.991
L49.279 337.895
L49.5498 337.812
L49.6387 337.702
L49.8213 337.644
L49.9123 337.536
L50.1824 337.435
L50.2718 337.313
L50.4524 337.251
L50.5425 337.122
L50.7269 337.054
L50.8167 336.934
L50.9963 336.868
L51.0864 336.741
L51.2702 336.676
L51.3598 336.554
L51.5441 336.492
L51.634 336.394
L51.9091 336.299
L52 336.227
L52.6326 336.119
L52.7246 336.072
L54.7326 335.977
L54.8242 335.919
L55.1877 335.822
L55.2799 335.758
L55.7405 335.658
L55.8316 335.606
L56.2001 335.511
L56.2914 335.448
L56.6588 335.367
L56.7511 335.301
L57.1178 335.216
L57.211 335.16
L57.7638 335.052
L57.8589 335.006
L58.3225 334.903
L58.4149 334.849
L58.7853 334.771
L58.8766 334.679
L59.1575 334.581
L59.2514 334.499
L59.5287 334.421
L59.6226 334.328
L59.895 334.229
L59.987 334.145
L60.2677 334.06
L60.3589 333.972
L60.6394 333.868
L60.7327 333.773
L61.0115 333.692
L61.1029 333.614
L61.3827 333.528
L61.4774 333.446
L61.7542 333.369
L61.8446 333.293
L62.1245 333.21
L62.2185 333.123
L62.596 333.021
L62.6878 332.963
L63.0614 332.876
L63.1547 332.809
L63.6193 332.713
L63.7147 332.667
L64.2726 332.563
L64.3669 332.515
L64.9236 332.417
L65.0182 332.381
L66.1407 332.274
L66.2341 332.255
L67.739 332.349
L67.8321 332.381
L68.4954 332.475
L68.587 332.525
L69.0566 332.635
L69.152 332.683
L69.6264 332.785
L69.7204 332.821
L70.5667 332.924
L70.6629 332.953
L72.4609 332.846
L72.5575 332.837
L74.5443 332.73
L74.6391 332.702
L75.4002 332.593
L75.496 332.554
L75.8805 332.473
L75.9758 332.411
L76.3569 332.322
L76.4548 332.26
L76.8342 332.176
L76.9277 332.111
L77.3081 332.025
L77.4024 331.964
L77.8798 331.865
L77.977 331.82
L78.4562 331.713
L78.5518 331.663
L79.122 331.562
L79.2174 331.529
L79.8888 331.42
L79.9844 331.377
L80.466 331.288
L80.5626 331.241
L81.3305 331.139
L81.4258 331.107
L82.1006 331.009
L82.1968 330.974
L82.8668 330.866
L82.9642 330.828
L83.5353 330.723
L83.6322 330.691
L84.2086 330.597
L84.3035 330.565
L84.8785 330.476
L84.9762 330.428
L85.4573 330.333
L85.5556 330.285
L86.0343 330.187
L86.1314 330.136
L86.5156 330.05
L86.6113 329.994
L86.9974 329.9
L87.0929 329.836
L87.4803 329.75
L87.5786 329.689
L88.0634 329.593
L88.1598 329.548
L88.6432 329.437
L88.7396 329.382
L89.2198 329.272
L89.3119 329.22
L89.702 329.136
L89.7986 329.081
L90.2812 328.97
L90.3776 328.924
L90.864 328.833
L90.9605 328.792
L91.7363 328.682
L91.8338 328.655
L92.7062 328.553
L92.8026 328.525
L93.6721 328.429
L93.7684 328.393
L94.3548 328.292
L94.4501 328.25
L94.938 328.146
L95.0333 328.099
L95.5168 328
L95.6139 327.954
L96.2021 327.855
L96.3003 327.818
L96.8888 327.722
L96.987 327.686
L97.669 327.586
L97.7674 327.553
L98.4484 327.451
L98.5473 327.409
L99.0378 327.315
L99.1365 327.263
L99.6226 327.162
L99.7207 327.115
L100.303 327.01
L100.404 326.972
L100.986 326.868
L101.081 326.829
L101.771 326.718
L101.872 326.688
L102.555 326.592
L102.655 326.562
L103.431 326.457
L103.529 326.427
L104.315 326.323
L104.413 326.303
L105.295 326.197
L105.394 326.167
L106.179 326.067
L106.279 326.039
L107.066 325.932
L107.166 325.906
L108.147 325.798
L108.245 325.776
L109.137 325.676
L109.236 325.652
L110.311 325.547
L110.409 325.522
L111.294 325.419
L111.393 325.393
L112.481 325.286
L112.58 325.265
L113.768 325.16
L113.867 325.144
L115.149 325.043
L115.248 325.021
L116.132 324.915
L116.233 324.89
L117.318 324.787
L117.415 324.765
L119.002 324.657
L119.101 324.643
L120.781 324.534
L120.881 324.521
L122.069 324.413
L122.166 324.389
L122.968 324.291
L123.071 324.262
L123.858 324.159
L123.957 324.132
L124.862 324.022
L124.96 323.996
L125.854 323.89
L125.954 323.865
L126.849 323.768
L126.95 323.738
L127.844 323.636
L127.948 323.615
L129.043 323.508
L129.143 323.481
L130.139 323.371
L130.242 323.343
L131.142 323.245
L131.24 323.218
L132.333 323.111
L132.436 323.092
L133.635 322.984
L133.735 322.967
L135.44 322.86
L135.54 322.849
L139.049 322.739
L139.146 322.735
L169.966 322.626
L170.072 322.621
L173.328 322.512
L173.428 322.506
L175.875 322.398
L175.979 322.385
L177.71 322.276
L177.814 322.265
L179.965 322.158
L180.066 322.149
L182.418 322.041
L182.521 322.035
L185.166 321.927
L185.268 321.917
L187.515 321.808
L187.617 321.797
L189.573 321.692
L189.674 321.676
L191.319 321.569
L191.421 321.556
L193.682 321.449
L193.783 321.437
L196.148 321.331
L196.25 321.319
L198.199 321.212
L198.302 321.198
L199.848 321.087
L199.952 321.069
L201.489 320.959
L201.59 320.943
L203.345 320.838
L203.449 320.825
L205.726 320.716
L205.83 320.706
L208.105 320.597
L208.213 320.585
L210.07 320.478
L210.174 320.464
L212.134 320.356
L212.238 320.344
L214.41 320.237
L214.515 320.227
L216.99 320.121
L217.096 320.11
L219.17 320.003
L219.272 319.991
L221.136 319.884
L221.238 319.872
L223.211 319.766
L223.315 319.754
L225.704 319.644
L225.803 319.636
L228.394 319.528
L228.498 319.522
L231.502 319.412
L231.608 319.397
L233.467 319.289
L233.572 319.275
L235.551 319.166
L235.655 319.156
L238.149 319.049
L238.253 319.038
L240.226 318.931
L240.334 318.919
L243.256 318.809
L243.363 318.799
L245.873 318.688
L245.98 318.68
L250.046 318.571
L250.149 318.564
L254.018 318.456
L254.121 318.447
L258.315 318.337
L258.421 318.332
L262.077 318.221
L262.18 318.214
L266.675 318.103
L266.78 318.099
L271.19 317.99
L271.292 317.984
L275.078 317.874
L275.186 317.869
L279.083 317.758
L279.191 317.751
L283.295 317.641
L283.403 317.638
L288.662 317.529
L288.766 317.524
L295.405 317.414
L295.513 317.409
L299.738 317.3
L299.846 317.29
L303.86 317.18
L303.962 317.174
L307.356 317.066
L307.462 317.06
L311.067 316.949
L311.173 316.942
L314.034 316.834
L314.141 316.824
L316.58 316.716
L316.684 316.706
L319.429 316.599
L319.539 316.59
L322.502 316.479
L322.609 316.471
L326.007 316.36
L326.113 316.353
L330.582 316.243
L330.689 316.239
L336.116 316.129
L336.223 316.126
L344.625 316.016
L344.731 316.012
L349.648 315.901
L349.753 315.894
L353.383 315.786
L353.488 315.779
L356.479 315.668
L356.586 315.66
L359.993 315.552
L360.098 315.544
L363.963 315.435
L364.07 315.429
L367.919 315.318
L368.026 315.311
L371.437 315.2
L371.543 315.194
L374.97 315.084
L375.076 315.076
L378.923 314.967
L379.034 314.962
L383.109 314.851
L383.216 314.845
L387.938 314.736
L388.046 314.73
L392.446 314.62
L392.554 314.615
L397.068 314.505
L397.177 314.499
L401.153 314.39
L401.259 314.383
L404.048 314.275
L404.156 314.266
L407.278 314.157
L407.386 314.15
L410.717 314.041
L410.828 314.034
L414.612 313.924
L414.719 313.918
L418.586 313.809
L418.694 313.803
L422.248 313.692
L422.356 313.684
L425.716 313.574
L425.824 313.567
L429.819 313.458
L429.926 313.453
L434.687 313.344
L434.793 313.339
L438.364 313.23
L438.474 313.223
L442.265 313.114
L442.373 313.108
L447.119 312.997
L447.228 312.992
L452.519 312.882
L452.628 312.878
L458.157 312.769
L458.266 312.764
L462.386 312.654
L462.49 312.648
L466.411 312.538
L466.518 312.532
L470.534 312.421
L470.64 312.415
L475.641 312.305
L475.744 312.301
L481.512 312.191
L481.621 312.187
L490.092 312.076
L490.201 312.073
L498.27 311.964
L498.381 311.959
L510.048 311.848
L510.153 311.846
L517.684 311.735
L517.794 311.732
L525.758 311.621
L525.869 311.617
L531.878 311.506
L531.987 311.502
L544.681 311.392
L544.791 311.39
L545.226 311.387
L545.226 311.387" style="fill:none;stroke:#ff0000;stroke-width:0.5;"/>
   </g>
   <g id="matplotlib.axis_1">
    <g id="xtick_1">
     <g id="line2d_2">
      <defs>
       <path d="
M0 0
L0 -4" id="m6f039bb1ea"/>
      </defs>
      <g>
       <use style="stroke:#000000;stroke-linecap:butt;stroke-width:0.5;" x="29.3484375" xlink:href="#m6f039bb1ea" y="15.0092307692"/>
      </g>
     </g>
    </g>
    <g id="xtick_2">
     <g id="line2d_3">
      <defs>
       <path d="
M0 0
L0 -4" id="m6f039bb1ea"/>
      </defs>
      <g>
       <use style="stroke:#000000;stroke-linecap:butt;stroke-width:0.5;" x="132.529900812" xlink:href="#m6f039bb1ea" y="15.0092307692"/>
      </g>
     </g>
     <g id="text_1">
      <!-- 2e7 -->
      <defs>
       <path d="
M19.1875 8.29688
L53.6094 8.29688
L53.6094 0
L7.32812 0
L7.32812 8.29688
Q12.9375 14.1094 22.625 23.8906
Q32.3281 33.6875 34.8125 36.5312
Q39.5469 41.8438 41.4219 45.5312
Q43.3125 49.2188 43.3125 52.7812
Q43.3125 58.5938 39.2344 62.25
Q35.1562 65.9219 28.6094 65.9219
Q23.9688 65.9219 18.8125 64.3125
Q13.6719 62.7031 7.8125 59.4219
L7.8125 69.3906
Q13.7656 71.7812 18.9375 73
Q24.125 74.2188 28.4219 74.2188
Q39.75 74.2188 46.4844 68.5469
Q53.2188 62.8906 53.2188 53.4219
Q53.2188 48.9219 51.5312 44.8906
Q49.8594 40.875 45.4062 35.4062
Q44.1875 33.9844 37.6406 27.2188
Q31.1094 20.4531 19.1875 8.29688" id="BitstreamVeraSans-Roman-32"/>
       <path d="
M56.2031 29.5938
L56.2031 25.2031
L14.8906 25.2031
Q15.4844 15.9219 20.4844 11.0625
Q25.4844 6.20312 34.4219 6.20312
Q39.5938 6.20312 44.4531 7.46875
Q49.3125 8.73438 54.1094 11.2812
L54.1094 2.78125
Q49.2656 0.734375 44.1875 -0.34375
Q39.1094 -1.42188 33.8906 -1.42188
Q20.7969 -1.42188 13.1562 6.1875
Q5.51562 13.8125 5.51562 26.8125
Q5.51562 40.2344 12.7656 48.1094
Q20.0156 56 32.3281 56
Q43.3594 56 49.7812 48.8906
Q56.2031 41.7969 56.2031 29.5938
M47.2188 32.2344
Q47.125 39.5938 43.0938 43.9844
Q39.0625 48.3906 32.4219 48.3906
Q24.9062 48.3906 20.3906 44.1406
Q15.875 39.8906 15.1875 32.1719
z
" id="BitstreamVeraSans-Roman-65"/>
       <path d="
M8.20312 72.9062
L55.0781 72.9062
L55.0781 68.7031
L28.6094 0
L18.3125 0
L43.2188 64.5938
L8.20312 64.5938
z
" id="BitstreamVeraSans-Roman-37"/>
      </defs>
      <g transform="translate(123.884588312 26.4311057692)scale(0.1 -0.1)">
       <use xlink:href="#BitstreamVeraSans-Roman-32"/>
       <use x="63.623046875" xlink:href="#BitstreamVeraSans-Roman-65"/>
       <use x="125.146484375" xlink:href="#BitstreamVeraSans-Roman-37"/>
      </g>
     </g>
    </g>
    <g id="xtick_3">
     <g id="line2d_4">
      <defs>
       <path d="
M0 0
L0 -4" id="m6f039bb1ea"/>
      </defs>
      <g>
       <use style="stroke:#000000;stroke-linecap:butt;stroke-width:0.5;" x="235.711364124" xlink:href="#m6f039bb1ea" y="15.0092307692"/>
      </g>
     </g>
     <g id="text_2">
      <!-- 4e7 -->
      <defs>
       <path d="
M37.7969 64.3125
L12.8906 25.3906
L37.7969 25.3906
z

M35.2031 72.9062
L47.6094 72.9062
L47.6094 25.3906
L58.0156 25.3906
L58.0156 17.1875
L47.6094 17.1875
L47.6094 0
L37.7969 0
L37.7969 17.1875
L4.89062 17.1875
L4.89062 26.7031
z
" id="BitstreamVeraSans-Roman-34"/>
      </defs>
      <g transform="translate(226.944176624 26.2998557692)scale(0.1 -0.1)">
       <use xlink:href="#BitstreamVeraSans-Roman-34"/>
       <use x="63.623046875" xlink:href="#BitstreamVeraSans-Roman-65"/>
       <use x="125.146484375" xlink:href="#BitstreamVeraSans-Roman-37"/>
      </g>
     </g>
    </g>
    <g id="xtick_4">
     <g id="line2d_5">
      <defs>
       <path d="
M0 0
L0 -4" id="m6f039bb1ea"/>
      </defs>
      <g>
       <use style="stroke:#000000;stroke-linecap:butt;stroke-width:0.5;" x="338.892827436" xlink:href="#m6f039bb1ea" y="15.0092307692"/>
      </g>
     </g>
     <g id="text_3">
      <!-- 6e7 -->
      <defs>
       <path d="
M33.0156 40.375
Q26.375 40.375 22.4844 35.8281
Q18.6094 31.2969 18.6094 23.3906
Q18.6094 15.5312 22.4844 10.9531
Q26.375 6.39062 33.0156 6.39062
Q39.6562 6.39062 43.5312 10.9531
Q47.4062 15.5312 47.4062 23.3906
Q47.4062 31.2969 43.5312 35.8281
Q39.6562 40.375 33.0156 40.375
M52.5938 71.2969
L52.5938 62.3125
Q48.875 64.0625 45.0938 64.9844
Q41.3125 65.9219 37.5938 65.9219
Q27.8281 65.9219 22.6719 59.3281
Q17.5312 52.7344 16.7969 39.4062
Q19.6719 43.6562 24.0156 45.9219
Q28.375 48.1875 33.5938 48.1875
Q44.5781 48.1875 50.9531 41.5156
Q57.3281 34.8594 57.3281 23.3906
Q57.3281 12.1562 50.6875 5.35938
Q44.0469 -1.42188 33.0156 -1.42188
Q20.3594 -1.42188 13.6719 8.26562
Q6.98438 17.9688 6.98438 36.375
Q6.98438 53.6562 15.1875 63.9375
Q23.3906 74.2188 37.2031 74.2188
Q40.9219 74.2188 44.7031 73.4844
Q48.4844 72.75 52.5938 71.2969" id="BitstreamVeraSans-Roman-36"/>
      </defs>
      <g transform="translate(330.230327436 26.4311057692)scale(0.1 -0.1)">
       <use xlink:href="#BitstreamVeraSans-Roman-36"/>
       <use x="63.623046875" xlink:href="#BitstreamVeraSans-Roman-65"/>
       <use x="125.146484375" xlink:href="#BitstreamVeraSans-Roman-37"/>
      </g>
     </g>
    </g>
    <g id="xtick_5">
     <g id="line2d_6">
      <defs>
       <path d="
M0 0
L0 -4" id="m6f039bb1ea"/>
      </defs>
      <g>
       <use style="stroke:#000000;stroke-linecap:butt;stroke-width:0.5;" x="442.074290747" xlink:href="#m6f039bb1ea" y="15.0092307692"/>
      </g>
     </g>
     <g id="text_4">
      <!-- 8e7 -->
      <defs>
       <path d="
M31.7812 34.625
Q24.75 34.625 20.7188 30.8594
Q16.7031 27.0938 16.7031 20.5156
Q16.7031 13.9219 20.7188 10.1562
Q24.75 6.39062 31.7812 6.39062
Q38.8125 6.39062 42.8594 10.1719
Q46.9219 13.9688 46.9219 20.5156
Q46.9219 27.0938 42.8906 30.8594
Q38.875 34.625 31.7812 34.625
M21.9219 38.8125
Q15.5781 40.375 12.0312 44.7188
Q8.5 49.0781 8.5 55.3281
Q8.5 64.0625 14.7188 69.1406
Q20.9531 74.2188 31.7812 74.2188
Q42.6719 74.2188 48.875 69.1406
Q55.0781 64.0625 55.0781 55.3281
Q55.0781 49.0781 51.5312 44.7188
Q48 40.375 41.7031 38.8125
Q48.8281 37.1562 52.7969 32.3125
Q56.7812 27.4844 56.7812 20.5156
Q56.7812 9.90625 50.3125 4.23438
Q43.8438 -1.42188 31.7812 -1.42188
Q19.7344 -1.42188 13.25 4.23438
Q6.78125 9.90625 6.78125 20.5156
Q6.78125 27.4844 10.7812 32.3125
Q14.7969 37.1562 21.9219 38.8125
M18.3125 54.3906
Q18.3125 48.7344 21.8438 45.5625
Q25.3906 42.3906 31.7812 42.3906
Q38.1406 42.3906 41.7188 45.5625
Q45.3125 48.7344 45.3125 54.3906
Q45.3125 60.0625 41.7188 63.2344
Q38.1406 66.4062 31.7812 66.4062
Q25.3906 66.4062 21.8438 63.2344
Q18.3125 60.0625 18.3125 54.3906" id="BitstreamVeraSans-Roman-38"/>
      </defs>
      <g transform="translate(433.401634497 26.4311057692)scale(0.1 -0.1)">
       <use xlink:href="#BitstreamVeraSans-Roman-38"/>
       <use x="63.623046875" xlink:href="#BitstreamVeraSans-Roman-65"/>
       <use x="125.146484375" xlink:href="#BitstreamVeraSans-Roman-37"/>
      </g>
     </g>
    </g>
    <g id="xtick_6">
     <g id="line2d_7">
      <defs>
       <path d="
M0 0
L0 -4" id="m6f039bb1ea"/>
      </defs>
      <g>
       <use style="stroke:#000000;stroke-linecap:butt;stroke-width:0.5;" x="545.255754059" xlink:href="#m6f039bb1ea" y="15.0092307692"/>
      </g>
     </g>
     <g id="text_5">
      <!-- 1e8 -->
      <defs>
       <path d="
M12.4062 8.29688
L28.5156 8.29688
L28.5156 63.9219
L10.9844 60.4062
L10.9844 69.3906
L28.4219 72.9062
L38.2812 72.9062
L38.2812 8.29688
L54.3906 8.29688
L54.3906 0
L12.4062 0
z
" id="BitstreamVeraSans-Roman-31"/>
      </defs>
      <g transform="translate(536.708097809 26.4311057692)scale(0.1 -0.1)">
       <use xlink:href="#BitstreamVeraSans-Roman-31"/>
       <use x="63.623046875" xlink:href="#BitstreamVeraSans-Roman-65"/>
       <use x="125.146484375" xlink:href="#BitstreamVeraSans-Roman-38"/>
      </g>
     </g>
    </g>
    <g id="xtick_7">
     <g id="line2d_8">
      <defs>
       <path d="
M0 0
L0 -2" id="m78dd377780"/>
      </defs>
      <g>
       <use style="stroke:#000000;stroke-linecap:butt;stroke-width:0.5;" x="55.143803328" xlink:href="#m78dd377780" y="15.0092307692"/>
      </g>
     </g>
    </g>
    <g id="xtick_8">
     <g id="line2d_9">
      <defs>
       <path d="
M0 0
L0 -2" id="m78dd377780"/>
      </defs>
      <g>
       <use style="stroke:#000000;stroke-linecap:butt;stroke-width:0.5;" x="80.9391691559" xlink:href="#m78dd377780" y="15.0092307692"/>
      </g>
     </g>
    </g>
    <g id="xtick_9">
     <g id="line2d_10">
      <defs>
       <path d="
M0 0
L0 -2" id="m78dd377780"/>
      </defs>
      <g>
       <use style="stroke:#000000;stroke-linecap:butt;stroke-width:0.5;" x="106.734534984" xlink:href="#m78dd377780" y="15.0092307692"/>
      </g>
     </g>
    </g>
    <g id="xtick_10">
     <g id="line2d_11">
      <defs>
       <path d="
M0 0
L0 -2" id="m78dd377780"/>
      </defs>
      <g>
       <use style="stroke:#000000;stroke-linecap:butt;stroke-width:0.5;" x="158.32526664" xlink:href="#m78dd377780" y="15.0092307692"/>
      </g>
     </g>
    </g>
    <g id="xtick_11">
     <g id="line2d_12">
      <defs>
       <path d="
M0 0
L0 -2" id="m78dd377780"/>
      </defs>
      <g>
       <use style="stroke:#000000;stroke-linecap:butt;stroke-width:0.5;" x="184.120632468" xlink:href="#m78dd377780" y="15.0092307692"/>
      </g>
     </g>
    </g>
    <g id="xtick_12">
     <g id="line2d_13">
      <defs>
       <path d="
M0 0
L0 -2" id="m78dd377780"/>
      </defs>
      <g>
       <use style="stroke:#000000;stroke-linecap:butt;stroke-width:0.5;" x="209.915998296" xlink:href="#m78dd377780" y="15.0092307692"/>
      </g>
     </g>
    </g>
    <g id="xtick_13">
     <g id="line2d_14">
      <defs>
       <path d="
M0 0
L0 -2" id="m78dd377780"/>
      </defs>
      <g>
       <use style="stroke:#000000;stroke-linecap:butt;stroke-width:0.5;" x="261.506729952" xlink:href="#m78dd377780" y="15.0092307692"/>
      </g>
     </g>
    </g>
    <g id="xtick_14">
     <g id="line2d_15">
      <defs>
       <path d="
M0 0
L0 -2" id="m78dd377780"/>
      </defs>
      <g>
       <use style="stroke:#000000;stroke-linecap:butt;stroke-width:0.5;" x="287.30209578" xlink:href="#m78dd377780" y="15.0092307692"/>
      </g>
     </g>
    </g>
    <g id="xtick_15">
     <g id="line2d_16">
      <defs>
       <path d="
M0 0
L0 -2" id="m78dd377780"/>
      </defs>
      <g>
       <use style="stroke:#000000;stroke-linecap:butt;stroke-width:0.5;" x="313.097461608" xlink:href="#m78dd377780" y="15.0092307692"/>
      </g>
     </g>
    </g>
    <g id="xtick_16">
     <g id="line2d_17">
      <defs>
       <path d="
M0 0
L0 -2" id="m78dd377780"/>
      </defs>
      <g>
       <use style="stroke:#000000;stroke-linecap:butt;stroke-width:0.5;" x="364.688193263" xlink:href="#m78dd377780" y="15.0092307692"/>
      </g>
     </g>
    </g>
    <g id="xtick_17">
     <g id="line2d_18">
      <defs>
       <path d="
M0 0
L0 -2" id="m78dd377780"/>
      </defs>
      <g>
       <use style="stroke:#000000;stroke-linecap:butt;stroke-width:0.5;" x="390.483559091" xlink:href="#m78dd377780" y="15.0092307692"/>
      </g>
     </g>
    </g>
    <g id="xtick_18">
     <g id="line2d_19">
      <defs>
       <path d="
M0 0
L0 -2" id="m78dd377780"/>
      </defs>
      <g>
       <use style="stroke:#000000;stroke-linecap:butt;stroke-width:0.5;" x="416.278924919" xlink:href="#m78dd377780" y="15.0092307692"/>
      </g>
     </g>
    </g>
    <g id="xtick_19">
     <g id="line2d_20">
      <defs>
       <path d="
M0 0
L0 -2" id="m78dd377780"/>
      </defs>
      <g>
       <use style="stroke:#000000;stroke-linecap:butt;stroke-width:0.5;" x="467.869656575" xlink:href="#m78dd377780" y="15.0092307692"/>
      </g>
     </g>
    </g>
    <g id="xtick_20">
     <g id="line2d_21">
      <defs>
       <path d="
M0 0
L0 -2" id="m78dd377780"/>
      </defs>
      <g>
       <use style="stroke:#000000;stroke-linecap:butt;stroke-width:0.5;" x="493.665022403" xlink:href="#m78dd377780" y="15.0092307692"/>
      </g>
     </g>
    </g>
    <g id="xtick_21">
     <g id="line2d_22">
      <defs>
       <path d="
M0 0
L0 -2" id="m78dd377780"/>
      </defs>
      <g>
       <use style="stroke:#000000;stroke-linecap:butt;stroke-width:0.5;" x="519.460388231" xlink:href="#m78dd377780" y="15.0092307692"/>
      </g>
     </g>
    </g>
   </g>
   <g id="matplotlib.axis_2">
    <g id="ytick_1">
     <g id="line2d_23">
      <defs>
       <path d="
M0 0
L4 0" id="m5f623cf542"/>
      </defs>
      <g>
       <use style="stroke:#000000;stroke-linecap:butt;stroke-width:0.5;" x="29.3484375" xlink:href="#m5f623cf542" y="386.372213386"/>
      </g>
     </g>
     <g id="text_6">
      <!-- -2.5 -->
      <defs>
       <path d="
M10.6875 12.4062
L21 12.4062
L21 0
L10.6875 0
z
" id="BitstreamVeraSans-Roman-2e"/>
       <path d="
M4.89062 31.3906
L31.2031 31.3906
L31.2031 23.3906
L4.89062 23.3906
z
" id="BitstreamVeraSans-Roman-2d"/>
       <path d="
M10.7969 72.9062
L49.5156 72.9062
L49.5156 64.5938
L19.8281 64.5938
L19.8281 46.7344
Q21.9688 47.4688 24.1094 47.8281
Q26.2656 48.1875 28.4219 48.1875
Q40.625 48.1875 47.75 41.5
Q54.8906 34.8125 54.8906 23.3906
Q54.8906 11.625 47.5625 5.09375
Q40.2344 -1.42188 26.9062 -1.42188
Q22.3125 -1.42188 17.5469 -0.640625
Q12.7969 0.140625 7.71875 1.70312
L7.71875 11.625
Q12.1094 9.23438 16.7969 8.0625
Q21.4844 6.89062 26.7031 6.89062
Q35.1562 6.89062 40.0781 11.3281
Q45.0156 15.7656 45.0156 23.3906
Q45.0156 31 40.0781 35.4375
Q35.1562 39.8906 26.7031 39.8906
Q22.75 39.8906 18.8125 39.0156
Q14.8906 38.1406 10.7969 36.2812
z
" id="BitstreamVeraSans-Roman-35"/>
      </defs>
      <g transform="translate(7.2 390.012057136)scale(0.1 -0.1)">
       <use xlink:href="#BitstreamVeraSans-Roman-2d"/>
       <use x="36.083984375" xlink:href="#BitstreamVeraSans-Roman-32"/>
       <use x="99.70703125" xlink:href="#BitstreamVeraSans-Roman-2e"/>
       <use x="131.494140625" xlink:href="#BitstreamVeraSans-Roman-35"/>
      </g>
     </g>
    </g>
    <g id="ytick_2">
     <g id="line2d_24">
      <defs>
       <path d="
M0 0
L4 0" id="m5f623cf542"/>
      </defs>
      <g>
       <use style="stroke:#000000;stroke-linecap:butt;stroke-width:0.5;" x="29.3484375" xlink:href="#m5f623cf542" y="312.099616863"/>
      </g>
     </g>
     <g id="text_7">
      <!-- -2 -->
      <g transform="translate(16.86875 315.810554363)scale(0.1 -0.1)">
       <use xlink:href="#BitstreamVeraSans-Roman-2d"/>
       <use x="36.083984375" xlink:href="#BitstreamVeraSans-Roman-32"/>
      </g>
     </g>
    </g>
    <g id="ytick_3">
     <g id="line2d_25">
      <defs>
       <path d="
M0 0
L4 0" id="m5f623cf542"/>
      </defs>
      <g>
       <use style="stroke:#000000;stroke-linecap:butt;stroke-width:0.5;" x="29.3484375" xlink:href="#m5f623cf542" y="237.827020339"/>
      </g>
     </g>
     <g id="text_8">
      <!-- -1.5 -->
      <g transform="translate(7.2 241.401239089)scale(0.1 -0.1)">
       <use xlink:href="#BitstreamVeraSans-Roman-2d"/>
       <use x="36.083984375" xlink:href="#BitstreamVeraSans-Roman-31"/>
       <use x="99.70703125" xlink:href="#BitstreamVeraSans-Roman-2e"/>
       <use x="131.494140625" xlink:href="#BitstreamVeraSans-Roman-35"/>
      </g>
     </g>
    </g>
    <g id="ytick_4">
     <g id="line2d_26">
      <defs>
       <path d="
M0 0
L4 0" id="m5f623cf542"/>
      </defs>
      <g>
       <use style="stroke:#000000;stroke-linecap:butt;stroke-width:0.5;" x="29.3484375" xlink:href="#m5f623cf542" y="163.554423816"/>
      </g>
     </g>
     <g id="text_9">
      <!-- -1 -->
      <g transform="translate(16.790625 167.199736316)scale(0.1 -0.1)">
       <use xlink:href="#BitstreamVeraSans-Roman-2d"/>
       <use x="36.083984375" xlink:href="#BitstreamVeraSans-Roman-31"/>
      </g>
     </g>
    </g>
    <g id="ytick_5">
     <g id="line2d_27">
      <defs>
       <path d="
M0 0
L4 0" id="m5f623cf542"/>
      </defs>
      <g>
       <use style="stroke:#000000;stroke-linecap:butt;stroke-width:0.5;" x="29.3484375" xlink:href="#m5f623cf542" y="89.2818272926"/>
      </g>
     </g>
     <g id="text_10">
      <!-- -0.5 -->
      <defs>
       <path d="
M31.7812 66.4062
Q24.1719 66.4062 20.3281 58.9062
Q16.5 51.4219 16.5 36.375
Q16.5 21.3906 20.3281 13.8906
Q24.1719 6.39062 31.7812 6.39062
Q39.4531 6.39062 43.2812 13.8906
Q47.125 21.3906 47.125 36.375
Q47.125 51.4219 43.2812 58.9062
Q39.4531 66.4062 31.7812 66.4062
M31.7812 74.2188
Q44.0469 74.2188 50.5156 64.5156
Q56.9844 54.8281 56.9844 36.375
Q56.9844 17.9688 50.5156 8.26562
Q44.0469 -1.42188 31.7812 -1.42188
Q19.5312 -1.42188 13.0625 8.26562
Q6.59375 17.9688 6.59375 36.375
Q6.59375 54.8281 13.0625 64.5156
Q19.5312 74.2188 31.7812 74.2188" id="BitstreamVeraSans-Roman-30"/>
      </defs>
      <g transform="translate(7.2 92.9216710426)scale(0.1 -0.1)">
       <use xlink:href="#BitstreamVeraSans-Roman-2d"/>
       <use x="36.083984375" xlink:href="#BitstreamVeraSans-Roman-30"/>
       <use x="99.70703125" xlink:href="#BitstreamVeraSans-Roman-2e"/>
       <use x="131.494140625" xlink:href="#BitstreamVeraSans-Roman-35"/>
      </g>
     </g>
    </g>
    <g id="ytick_6">
     <g id="line2d_28">
      <defs>
       <path d="
M0 0
L4 0" id="m5f623cf542"/>
      </defs>
      <g>
       <use style="stroke:#000000;stroke-linecap:butt;stroke-width:0.5;" x="29.3484375" xlink:href="#m5f623cf542" y="15.0092307692"/>
      </g>
     </g>
    </g>
    <g id="ytick_7">
     <g id="line2d_29">
      <defs>
       <path d="
M0 0
L2 0" id="m1cc79b83f2"/>
      </defs>
      <g>
       <use style="stroke:#000000;stroke-linecap:butt;stroke-width:0.5;" x="29.3484375" xlink:href="#m1cc79b83f2" y="401.226732691"/>
      </g>
     </g>
    </g>
    <g id="ytick_8">
     <g id="line2d_30">
      <defs>
       <path d="
M0 0
L2 0" id="m1cc79b83f2"/>
      </defs>
      <g>
       <use style="stroke:#000000;stroke-linecap:butt;stroke-width:0.5;" x="29.3484375" xlink:href="#m1cc79b83f2" y="371.517694081"/>
      </g>
     </g>
    </g>
    <g id="ytick_9">
     <g id="line2d_31">
      <defs>
       <path d="
M0 0
L2 0" id="m1cc79b83f2"/>
      </defs>
      <g>
       <use style="stroke:#000000;stroke-linecap:butt;stroke-width:0.5;" x="29.3484375" xlink:href="#m1cc79b83f2" y="356.663174777"/>
      </g>
     </g>
    </g>
    <g id="ytick_10">
     <g id="line2d_32">
      <defs>
       <path d="
M0 0
L2 0" id="m1cc79b83f2"/>
      </defs>
      <g>
       <use style="stroke:#000000;stroke-linecap:butt;stroke-width:0.5;" x="29.3484375" xlink:href="#m1cc79b83f2" y="341.808655472"/>
      </g>
     </g>
    </g>
    <g id="ytick_11">
     <g id="line2d_33">
      <defs>
       <path d="
M0 0
L2 0" id="m1cc79b83f2"/>
      </defs>
      <g>
       <use style="stroke:#000000;stroke-linecap:butt;stroke-width:0.5;" x="29.3484375" xlink:href="#m1cc79b83f2" y="326.954136167"/>
      </g>
     </g>
    </g>
    <g id="ytick_12">
     <g id="line2d_34">
      <defs>
       <path d="
M0 0
L2 0" id="m1cc79b83f2"/>
      </defs>
      <g>
       <use style="stroke:#000000;stroke-linecap:butt;stroke-width:0.5;" x="29.3484375" xlink:href="#m1cc79b83f2" y="297.245097558"/>
      </g>
     </g>
    </g>
    <g id="ytick_13">
     <g id="line2d_35">
      <defs>
       <path d="
M0 0
L2 0" id="m1cc79b83f2"/>
      </defs>
      <g>
       <use style="stroke:#000000;stroke-linecap:butt;stroke-width:0.5;" x="29.3484375" xlink:href="#m1cc79b83f2" y="282.390578253"/>
      </g>
     </g>
    </g>
    <g id="ytick_14">
     <g id="line2d_36">
      <defs>
       <path d="
M0 0
L2 0" id="m1cc79b83f2"/>
      </defs>
      <g>
       <use style="stroke:#000000;stroke-linecap:butt;stroke-width:0.5;" x="29.3484375" xlink:href="#m1cc79b83f2" y="267.536058949"/>
      </g>
     </g>
    </g>
    <g id="ytick_15">
     <g id="line2d_37">
      <defs>
       <path d="
M0 0
L2 0" id="m1cc79b83f2"/>
      </defs>
      <g>
       <use style="stroke:#000000;stroke-linecap:butt;stroke-width:0.5;" x="29.3484375" xlink:href="#m1cc79b83f2" y="252.681539644"/>
      </g>
     </g>
    </g>
    <g id="ytick_16">
     <g id="line2d_38">
      <defs>
       <path d="
M0 0
L2 0" id="m1cc79b83f2"/>
      </defs>
      <g>
       <use style="stroke:#000000;stroke-linecap:butt;stroke-width:0.5;" x="29.3484375" xlink:href="#m1cc79b83f2" y="237.827020339"/>
      </g>
     </g>
    </g>
    <g id="ytick_17">
     <g id="line2d_39">
      <defs>
       <path d="
M0 0
L2 0" id="m1cc79b83f2"/>
      </defs>
      <g>
       <use style="stroke:#000000;stroke-linecap:butt;stroke-width:0.5;" x="29.3484375" xlink:href="#m1cc79b83f2" y="222.972501035"/>
      </g>
     </g>
    </g>
    <g id="ytick_18">
     <g id="line2d_40">
      <defs>
       <path d="
M0 0
L2 0" id="m1cc79b83f2"/>
      </defs>
      <g>
       <use style="stroke:#000000;stroke-linecap:butt;stroke-width:0.5;" x="29.3484375" xlink:href="#m1cc79b83f2" y="208.11798173"/>
      </g>
     </g>
    </g>
    <g id="ytick_19">
     <g id="line2d_41">
      <defs>
       <path d="
M0 0
L2 0" id="m1cc79b83f2"/>
      </defs>
      <g>
       <use style="stroke:#000000;stroke-linecap:butt;stroke-width:0.5;" x="29.3484375" xlink:href="#m1cc79b83f2" y="193.263462425"/>
      </g>
     </g>
    </g>
    <g id="ytick_20">
     <g id="line2d_42">
      <defs>
       <path d="
M0 0
L2 0" id="m1cc79b83f2"/>
      </defs>
      <g>
       <use style="stroke:#000000;stroke-linecap:butt;stroke-width:0.5;" x="29.3484375" xlink:href="#m1cc79b83f2" y="178.408943121"/>
      </g>
     </g>
    </g>
    <g id="ytick_21">
     <g id="line2d_43">
      <defs>
       <path d="
M0 0
L2 0" id="m1cc79b83f2"/>
      </defs>
      <g>
       <use style="stroke:#000000;stroke-linecap:butt;stroke-width:0.5;" x="29.3484375" xlink:href="#m1cc79b83f2" y="163.554423816"/>
      </g>
     </g>
    </g>
    <g id="ytick_22">
     <g id="line2d_44">
      <defs>
       <path d="
M0 0
L2 0" id="m1cc79b83f2"/>
      </defs>
      <g>
       <use style="stroke:#000000;stroke-linecap:butt;stroke-width:0.5;" x="29.3484375" xlink:href="#m1cc79b83f2" y="148.699904511"/>
      </g>
     </g>
    </g>
    <g id="ytick_23">
     <g id="line2d_45">
      <defs>
       <path d="
M0 0
L2 0" id="m1cc79b83f2"/>
      </defs>
      <g>
       <use style="stroke:#000000;stroke-linecap:butt;stroke-width:0.5;" x="29.3484375" xlink:href="#m1cc79b83f2" y="133.845385207"/>
      </g>
     </g>
    </g>
    <g id="ytick_24">
     <g id="line2d_46">
      <defs>
       <path d="
M0 0
L2 0" id="m1cc79b83f2"/>
      </defs>
      <g>
       <use style="stroke:#000000;stroke-linecap:butt;stroke-width:0.5;" x="29.3484375" xlink:href="#m1cc79b83f2" y="118.990865902"/>
      </g>
     </g>
    </g>
    <g id="ytick_25">
     <g id="line2d_47">
      <defs>
       <path d="
M0 0
L2 0" id="m1cc79b83f2"/>
      </defs>
      <g>
       <use style="stroke:#000000;stroke-linecap:butt;stroke-width:0.5;" x="29.3484375" xlink:href="#m1cc79b83f2" y="104.136346597"/>
      </g>
     </g>
    </g>
    <g id="ytick_26">
     <g id="line2d_48">
      <defs>
       <path d="
M0 0
L2 0" id="m1cc79b83f2"/>
      </defs>
      <g>
       <use style="stroke:#000000;stroke-linecap:butt;stroke-width:0.5;" x="29.3484375" xlink:href="#m1cc79b83f2" y="89.2818272926"/>
      </g>
     </g>
    </g>
    <g id="ytick_27">
     <g id="line2d_49">
      <defs>
       <path d="
M0 0
L2 0" id="m1cc79b83f2"/>
      </defs>
      <g>
       <use style="stroke:#000000;stroke-linecap:butt;stroke-width:0.5;" x="29.3484375" xlink:href="#m1cc79b83f2" y="74.4273079879"/>
      </g>
     </g>
    </g>
    <g id="ytick_28">
     <g id="line2d_50">
      <defs>
       <path d="
M0 0
L2 0" id="m1cc79b83f2"/>
      </defs>
      <g>
       <use style="stroke:#000000;stroke-linecap:butt;stroke-width:0.5;" x="29.3484375" xlink:href="#m1cc79b83f2" y="59.5727886832"/>
      </g>
     </g>
    </g>
    <g id="ytick_29">
     <g id="line2d_51">
      <defs>
       <path d="
M0 0
L2 0" id="m1cc79b83f2"/>
      </defs>
      <g>
       <use style="stroke:#000000;stroke-linecap:butt;stroke-width:0.5;" x="29.3484375" xlink:href="#m1cc79b83f2" y="44.7182693786"/>
      </g>
     </g>
    </g>
    <g id="ytick_30">
     <g id="line2d_52">
      <defs>
       <path d="
M0 0
L2 0" id="m1cc79b83f2"/>
      </defs>
      <g>
       <use style="stroke:#000000;stroke-linecap:butt;stroke-width:0.5;" x="29.3484375" xlink:href="#m1cc79b83f2" y="29.8637500739"/>
      </g>
     </g>
    </g>
   </g>
   <g id="patch_3">
    <path d="
M19.0309 15.0092
L555.544 15.0092" style="fill:none;stroke:#000000;stroke-width:0.8;"/>
   </g>
   <g id="patch_4">
    <path d="
M29.3484 413.28
L29.3484 7.2" style="fill:none;stroke:#000000;stroke-width:0.8;"/>
   </g>
  </g>
 </g>
 <defs>
  <clipPath id="p13c0847ff8">
   <rect height="406.08" width="536.513117448" x="19.0308878672" y="7.2"/>
  </clipPath>
 </defs>
</svg>
