<?xml version="1.0" encoding="utf-8" standalone="no"?>
<!DOCTYPE svg PUBLIC "-//W3C//DTD SVG 1.1//EN"
  "http://www.w3.org/Graphics/SVG/1.1/DTD/svg11.dtd">
<!-- Created with matplotlib (http://matplotlib.sourceforge.net/) -->
<svg height="420pt" version="1.1" viewBox="0 0 562 420" width="562pt" xmlns="http://www.w3.org/2000/svg" xmlns:xlink="http://www.w3.org/1999/xlink">
 <defs>
  <style type="text/css">
*{stroke-linecap:square;stroke-linejoin:round;}
  </style>
 </defs>
 <g id="figure_1">
  <g id="patch_1">
   <path d="
M2.22045e-16 420.48
L562.538 420.48
L562.538 0
L2.22045e-16 0
z
" style="fill:#ffffff;"/>
  </g>
  <g id="axes_1">
   <g id="patch_2">
    <path d="
M9.62586 413.28
L555.338 413.28
L555.338 7.2
L9.62586 7.2
z
" style="fill:#ffffff;"/>
   </g>
   <g id="line2d_1">
    <path clip-path="url(#p602998282e)" d="
M20.1203 15.0092
L20.1763 15.0092
L20.1763 391.972
L20.2404 389.526
L20.3076 389.526
L20.3768 391.672
L20.5194 391.6
L20.5918 393.348
L20.7397 393.265
L20.7397 393.729
L20.8148 393.729
L20.8148 393.729
L20.8902 392.03
L20.9665 392.03
L21.0431 390.546
L21.12 390.546
L21.1972 389.793
L21.2751 389.793
L21.3535 389.558
L21.432 389.558
L21.5105 389.842
L21.5898 389.842
L21.6691 390.865
L21.7488 390.865
L21.8282 391.961
L21.9085 391.961
L21.9897 392.826
L22.0699 392.826
L22.1506 393.015
L22.5581 392.915
L22.6402 392.701
L22.8043 392.794
L22.8866 393.075
L22.9694 393.075
L23.0525 393.623
L23.1358 393.623
L23.219 394.392
L23.3023 394.392
L23.3859 395.222
L23.4693 395.222
L23.5532 395.981
L23.637 395.981
L23.7206 396.471
L23.8043 396.471
L23.8885 396.799
L24.0575 396.908
L24.142 397.026
L24.3113 397.102
L24.3969 397.294
L24.567 397.361
L24.6515 397.485
L24.9932 397.558
L25.079 397.697
L25.6816 397.649
L25.7677 397.479
L25.9405 397.411
L26.027 397.298
L26.7227 397.197
L26.8094 397.179
L27.2484 397.095
L27.3356 397.021
L27.8628 396.911
L27.951 396.834
L28.836 396.724
L28.9246 396.608
L29.1015 396.529
L29.1912 396.307
L29.2794 396.307
L29.3679 396.099
L29.5461 396.025
L29.6358 395.903
L29.8143 395.833
L29.9036 395.719
L30.1721 395.626
L30.2616 395.52
L30.5305 395.43
L30.6199 395.336
L30.8897 395.243
L30.9794 395.132
L31.2496 395.022
L31.3396 394.921
L31.5196 394.862
L31.6095 394.719
L31.7906 394.637
L31.8811 394.45
L32.0615 394.355
L32.1518 394.156
L32.3328 394.068
L32.4234 393.925
L32.6049 393.864
L32.6957 393.717
L32.8762 393.638
L32.9673 393.485
L33.2399 393.376
L33.3309 393.299
L33.7863 393.193
L33.8777 393.114
L34.151 393.017
L34.2423 392.944
L34.5162 392.865
L34.6071 392.792
L34.882 392.706
L34.9731 392.634
L35.3403 392.54
L35.4324 392.466
L35.7075 392.375
L35.7993 392.291
L36.2572 392.183
L36.349 392.114
L36.7189 392.021
L36.8112 391.968
L37.4567 391.86
L37.5491 391.809
L39.7774 391.703
L39.8701 391.669
L40.7075 391.566
L40.8001 391.55
L42.7669 391.448
L42.8608 391.425
L43.4245 391.32
L43.5181 391.26
L43.8934 391.153
L43.9866 391.077
L44.3633 390.969
L44.4577 390.891
L44.7398 390.815
L44.8349 390.739
L45.1176 390.663
L45.2125 390.582
L45.4961 390.5
L45.5906 390.423
L45.969 390.335
L46.0631 390.276
L46.4406 390.184
L46.5352 390.132
L46.9145 390.029
L47.0092 389.959
L47.4824 389.848
L47.5777 389.797
L48.2426 389.687
L48.3374 389.662
L49.0987 389.554
L49.194 389.506
L49.6689 389.41
L49.765 389.358
L50.3354 389.25
L50.4314 389.204
L51.0991 389.096
L51.195 389.064
L52.2466 388.966
L52.343 388.931
L53.0139 388.831
L53.1092 388.794
L53.7792 388.694
L53.8753 388.668
L54.8368 388.564
L54.9317 388.539
L61.3064 388.65
L61.403 388.658
L62.858 388.768
L62.9554 388.786
L64.0267 388.892
L64.1235 388.923
L65.8789 389.032
L65.9764 389.046
L66.9522 389.146
L67.0501 389.168
L68.0278 389.271
L68.1262 389.288
L73.1298 389.394
L73.2279 389.404
L75.1951 389.511
L75.2936 389.525
L79.9367 389.634
L80.0355 389.643
L81.7204 389.752
L81.8199 389.764
L84.6016 389.872
L84.7019 389.883
L87.1872 389.994
L87.2863 390.01
L89.2792 390.117
L89.3793 390.134
L90.3792 390.233
L90.4791 390.263
L91.2778 390.36
L91.3786 390.387
L92.5784 390.493
L92.6794 390.508
L94.1812 390.619
L94.281 390.637
L95.3803 390.741
L95.4802 390.761
L96.4839 390.86
L96.5837 390.885
L97.5859 390.983
L97.6868 391.01
L98.4901 391.118
L98.5912 391.144
L99.3961 391.243
L99.4962 391.271
L100.502 391.382
L100.604 391.404
L101.609 391.511
L101.711 391.536
L102.515 391.642
L102.616 391.676
L103.321 391.771
L103.423 391.803
L104.228 391.902
L104.329 391.93
L105.238 392.04
L105.338 392.067
L106.144 392.168
L106.245 392.195
L107.156 392.297
L107.257 392.322
L108.064 392.42
L108.165 392.449
L108.973 392.554
L109.073 392.584
L109.882 392.695
L109.983 392.729
L110.691 392.839
L110.792 392.874
L111.5 392.982
L111.602 393.016
L112.31 393.12
L112.412 393.153
L113.222 393.264
L113.323 393.292
L114.235 393.4
L114.336 393.431
L115.047 393.532
L115.148 393.564
L115.962 393.674
L116.065 393.704
L116.876 393.813
L116.977 393.843
L117.789 393.951
L117.891 393.984
L118.704 394.093
L118.804 394.122
L119.62 394.22
L119.721 394.249
L120.639 394.356
L120.741 394.383
L121.758 394.491
L121.86 394.513
L122.979 394.621
L123.081 394.643
L124.104 394.747
L124.206 394.772
L125.429 394.879
L125.531 394.897
L126.96 395.008
L127.062 395.025
L128.288 395.127
L128.389 395.148
L129.616 395.254
L129.718 395.271
L130.945 395.374
L131.047 395.393
L132.481 395.497
L132.584 395.513
L134.017 395.624
L134.119 395.639
L135.76 395.743
L135.863 395.758
L137.603 395.866
L137.707 395.878
L139.658 395.984
L139.762 395.996
L141.711 396.106
L141.814 396.115
L143.975 396.222
L144.078 396.233
L147.06 396.342
L147.163 396.347
L152.009 396.457
L152.113 396.463
L157.382 396.571
L157.486 396.581
L159.864 396.688
L159.97 396.698
L161.939 396.804
L162.043 396.815
L164.012 396.924
L164.115 396.94
L165.567 397.049
L165.67 397.067
L167.226 397.174
L167.33 397.19
L168.785 397.296
L168.889 397.311
L170.657 397.419
L170.761 397.431
L172.527 397.536
L172.632 397.55
L174.606 397.659
L174.71 397.671
L176.48 397.781
L176.584 397.797
L178.25 397.907
L178.354 397.921
L179.816 398.025
L179.92 398.042
L181.481 398.15
L181.586 398.165
L183.15 398.274
L183.254 398.289
L185.237 398.399
L185.341 398.412
L187.328 398.52
L187.432 398.531
L190.046 398.64
L190.151 398.648
L192.872 398.755
L192.977 398.763
L196.222 398.871
L196.328 398.879
L199.576 398.988
L199.68 398.994
L203.772 399.102
L203.877 399.109
L207.239 399.218
L207.344 399.224
L213.234 399.335
L213.34 399.339
L221.236 399.449
L221.342 399.455
L225.987 399.562
L226.092 399.571
L228.736 399.678
L228.841 399.687
L230.85 399.791
L230.955 399.805
L232.646 399.914
L232.752 399.929
L234.445 400.037
L234.552 400.051
L236.456 400.159
L236.562 400.171
L238.467 400.28
L238.573 400.291
L240.482 400.399
L240.589 400.409
L242.918 400.517
L243.023 400.527
L245.25 400.638
L245.356 400.65
L247.374 400.76
L247.48 400.772
L249.603 400.878
L249.709 400.89
L251.832 401
L251.938 401.011
L254.062 401.12
L254.17 401.132
L255.975 401.242
L256.081 401.256
L257.89 401.367
L257.996 401.38
L259.696 401.486
L259.802 401.5
L261.508 401.608
L261.615 401.621
L263.423 401.73
L263.529 401.744
L265.446 401.851
L265.552 401.862
L268.003 401.971
L268.111 401.981
L270.671 402.089
L270.777 402.098
L273.655 402.207
L273.761 402.215
L276.645 402.324
L276.752 402.334
L279.101 402.441
L279.208 402.452
L281.769 402.563
L281.876 402.571
L284.875 402.68
L284.982 402.687
L288.624 402.796
L288.73 402.802
L293.011 402.911
L293.119 402.917
L298.367 403.028
L298.475 403.032
L303.944 403.143
L304.051 403.146
L308.669 403.256
L308.777 403.262
L312.427 403.371
L312.534 403.377
L316.081 403.487
L316.189 403.494
L319.633 403.604
L319.741 403.611
L323.508 403.72
L323.615 403.727
L327.276 403.837
L327.383 403.844
L330.613 403.952
L330.72 403.959
L334.71 404.07
L334.818 404.077
L339.346 404.186
L339.454 404.19
L345.181 404.301
L345.289 404.306
L350.042 404.416
L350.15 404.421
L355.018 404.531
L355.126 404.536
L361.945 404.646
L362.054 404.65
L369.313 404.76
L369.421 404.762
L380.49 404.872
L380.599 404.875
L393.529 404.986
L393.638 404.987
L417.063 405.097
L417.172 405.099
L443.066 405.21
L443.174 405.21
L474.2 405.321
L474.309 405.322
L530.588 405.433
L530.699 405.434
L544.843 405.471
L544.843 405.471" style="fill:none;stroke:#ff0000;stroke-width:0.5;"/>
   </g>
   <g id="matplotlib.axis_1">
    <g id="xtick_1">
     <g id="line2d_2">
      <defs>
       <path d="
M0 0
L0 -4" id="m61e295cfcf"/>
      </defs>
      <g>
       <use style="stroke:#000000;stroke-linecap:butt;stroke-width:0.5;" x="20.1203125" xlink:href="#m61e295cfcf" y="15.0092307692"/>
      </g>
     </g>
    </g>
    <g id="xtick_2">
     <g id="line2d_3">
      <defs>
       <path d="
M0 0
L0 -4" id="m61e295cfcf"/>
      </defs>
      <g>
       <use style="stroke:#000000;stroke-linecap:butt;stroke-width:0.5;" x="125.070417105" xlink:href="#m61e295cfcf" y="15.0092307692"/>
      </g>
     </g>
     <g id="text_1">
      <!-- 2e8 -->
      <defs>
       <path d="
M19.1875 8.29688
L53.6094 8.29688
L53.6094 0
L7.32812 0
L7.32812 8.29688
Q12.9375 14.1094 22.625 23.8906
Q32.3281 33.6875 34.8125 36.5312
Q39.5469 41.8438 41.4219 45.5312
Q43.3125 49.2188 43.3125 52.7812
Q43.3125 58.5938 39.2344 62.25
Q35.1562 65.9219 28.6094 65.9219
Q23.9688 65.9219 18.8125 64.3125
Q13.6719 62.7031 7.8125 59.4219
L7.8125 69.3906
Q13.7656 71.7812 18.9375 73
Q24.125 74.2188 28.4219 74.2188
Q39.75 74.2188 46.4844 68.5469
Q53.2188 62.8906 53.2188 53.4219
Q53.2188 48.9219 51.5312 44.8906
Q49.8594 40.875 45.4062 35.4062
Q44.1875 33.9844 37.6406 27.2188
Q31.1094 20.4531 19.1875 8.29688" id="BitstreamVeraSans-Roman-32"/>
       <path d="
M56.2031 29.5938
L56.2031 25.2031
L14.8906 25.2031
Q15.4844 15.9219 20.4844 11.0625
Q25.4844 6.20312 34.4219 6.20312
Q39.5938 6.20312 44.4531 7.46875
Q49.3125 8.73438 54.1094 11.2812
L54.1094 2.78125
Q49.2656 0.734375 44.1875 -0.34375
Q39.1094 -1.42188 33.8906 -1.42188
Q20.7969 -1.42188 13.1562 6.1875
Q5.51562 13.8125 5.51562 26.8125
Q5.51562 40.2344 12.7656 48.1094
Q20.0156 56 32.3281 56
Q43.3594 56 49.7812 48.8906
Q56.2031 41.7969 56.2031 29.5938
M47.2188 32.2344
Q47.125 39.5938 43.0938 43.9844
Q39.0625 48.3906 32.4219 48.3906
Q24.9062 48.3906 20.3906 44.1406
Q15.875 39.8906 15.1875 32.1719
z
" id="BitstreamVeraSans-Roman-65"/>
       <path d="
M31.7812 34.625
Q24.75 34.625 20.7188 30.8594
Q16.7031 27.0938 16.7031 20.5156
Q16.7031 13.9219 20.7188 10.1562
Q24.75 6.39062 31.7812 6.39062
Q38.8125 6.39062 42.8594 10.1719
Q46.9219 13.9688 46.9219 20.5156
Q46.9219 27.0938 42.8906 30.8594
Q38.875 34.625 31.7812 34.625
M21.9219 38.8125
Q15.5781 40.375 12.0312 44.7188
Q8.5 49.0781 8.5 55.3281
Q8.5 64.0625 14.7188 69.1406
Q20.9531 74.2188 31.7812 74.2188
Q42.6719 74.2188 48.875 69.1406
Q55.0781 64.0625 55.0781 55.3281
Q55.0781 49.0781 51.5312 44.7188
Q48 40.375 41.7031 38.8125
Q48.8281 37.1562 52.7969 32.3125
Q56.7812 27.4844 56.7812 20.5156
Q56.7812 9.90625 50.3125 4.23438
Q43.8438 -1.42188 31.7812 -1.42188
Q19.7344 -1.42188 13.25 4.23438
Q6.78125 9.90625 6.78125 20.5156
Q6.78125 27.4844 10.7812 32.3125
Q14.7969 37.1562 21.9219 38.8125
M18.3125 54.3906
Q18.3125 48.7344 21.8438 45.5625
Q25.3906 42.3906 31.7812 42.3906
Q38.1406 42.3906 41.7188 45.5625
Q45.3125 48.7344 45.3125 54.3906
Q45.3125 60.0625 41.7188 63.2344
Q38.1406 66.4062 31.7812 66.4062
Q25.3906 66.4062 21.8438 63.2344
Q18.3125 60.0625 18.3125 54.3906" id="BitstreamVeraSans-Roman-38"/>
      </defs>
      <g transform="translate(116.339948355 26.4311057692)scale(0.1 -0.1)">
       <use xlink:href="#BitstreamVeraSans-Roman-32"/>
       <use x="63.623046875" xlink:href="#BitstreamVeraSans-Roman-65"/>
       <use x="125.146484375" xlink:href="#BitstreamVeraSans-Roman-38"/>
      </g>
     </g>
    </g>
    <g id="xtick_3">
     <g id="line2d_4">
      <defs>
       <path d="
M0 0
L0 -4" id="m61e295cfcf"/>
      </defs>
      <g>
       <use style="stroke:#000000;stroke-linecap:butt;stroke-width:0.5;" x="230.020521709" xlink:href="#m61e295cfcf" y="15.0092307692"/>
      </g>
     </g>
     <g id="text_2">
      <!-- 4e8 -->
      <defs>
       <path d="
M37.7969 64.3125
L12.8906 25.3906
L37.7969 25.3906
z

M35.2031 72.9062
L47.6094 72.9062
L47.6094 25.3906
L58.0156 25.3906
L58.0156 17.1875
L47.6094 17.1875
L47.6094 0
L37.7969 0
L37.7969 17.1875
L4.89062 17.1875
L4.89062 26.7031
z
" id="BitstreamVeraSans-Roman-34"/>
      </defs>
      <g transform="translate(221.168177959 26.4311057692)scale(0.1 -0.1)">
       <use xlink:href="#BitstreamVeraSans-Roman-34"/>
       <use x="63.623046875" xlink:href="#BitstreamVeraSans-Roman-65"/>
       <use x="125.146484375" xlink:href="#BitstreamVeraSans-Roman-38"/>
      </g>
     </g>
    </g>
    <g id="xtick_4">
     <g id="line2d_5">
      <defs>
       <path d="
M0 0
L0 -4" id="m61e295cfcf"/>
      </defs>
      <g>
       <use style="stroke:#000000;stroke-linecap:butt;stroke-width:0.5;" x="334.970626314" xlink:href="#m61e295cfcf" y="15.0092307692"/>
      </g>
     </g>
     <g id="text_3">
      <!-- 6e8 -->
      <defs>
       <path d="
M33.0156 40.375
Q26.375 40.375 22.4844 35.8281
Q18.6094 31.2969 18.6094 23.3906
Q18.6094 15.5312 22.4844 10.9531
Q26.375 6.39062 33.0156 6.39062
Q39.6562 6.39062 43.5312 10.9531
Q47.4062 15.5312 47.4062 23.3906
Q47.4062 31.2969 43.5312 35.8281
Q39.6562 40.375 33.0156 40.375
M52.5938 71.2969
L52.5938 62.3125
Q48.875 64.0625 45.0938 64.9844
Q41.3125 65.9219 37.5938 65.9219
Q27.8281 65.9219 22.6719 59.3281
Q17.5312 52.7344 16.7969 39.4062
Q19.6719 43.6562 24.0156 45.9219
Q28.375 48.1875 33.5938 48.1875
Q44.5781 48.1875 50.9531 41.5156
Q57.3281 34.8594 57.3281 23.3906
Q57.3281 12.1562 50.6875 5.35938
Q44.0469 -1.42188 33.0156 -1.42188
Q20.3594 -1.42188 13.6719 8.26562
Q6.98438 17.9688 6.98438 36.375
Q6.98438 53.6562 15.1875 63.9375
Q23.3906 74.2188 37.2031 74.2188
Q40.9219 74.2188 44.7031 73.4844
Q48.4844 72.75 52.5938 71.2969" id="BitstreamVeraSans-Roman-36"/>
      </defs>
      <g transform="translate(326.222970064 26.4311057692)scale(0.1 -0.1)">
       <use xlink:href="#BitstreamVeraSans-Roman-36"/>
       <use x="63.623046875" xlink:href="#BitstreamVeraSans-Roman-65"/>
       <use x="125.146484375" xlink:href="#BitstreamVeraSans-Roman-38"/>
      </g>
     </g>
    </g>
    <g id="xtick_5">
     <g id="line2d_6">
      <defs>
       <path d="
M0 0
L0 -4" id="m61e295cfcf"/>
      </defs>
      <g>
       <use style="stroke:#000000;stroke-linecap:butt;stroke-width:0.5;" x="439.920730919" xlink:href="#m61e295cfcf" y="15.0092307692"/>
      </g>
     </g>
     <g id="text_4">
      <!-- 8e8 -->
      <g transform="translate(431.162918419 26.4311057692)scale(0.1 -0.1)">
       <use xlink:href="#BitstreamVeraSans-Roman-38"/>
       <use x="63.623046875" xlink:href="#BitstreamVeraSans-Roman-65"/>
       <use x="125.146484375" xlink:href="#BitstreamVeraSans-Roman-38"/>
      </g>
     </g>
    </g>
    <g id="xtick_6">
     <g id="line2d_7">
      <defs>
       <path d="
M0 0
L0 -4" id="m61e295cfcf"/>
      </defs>
      <g>
       <use style="stroke:#000000;stroke-linecap:butt;stroke-width:0.5;" x="544.870835523" xlink:href="#m61e295cfcf" y="15.0092307692"/>
      </g>
     </g>
     <g id="text_5">
      <!-- 1e9 -->
      <defs>
       <path d="
M10.9844 1.51562
L10.9844 10.5
Q14.7031 8.73438 18.5 7.8125
Q22.3125 6.89062 25.9844 6.89062
Q35.75 6.89062 40.8906 13.4531
Q46.0469 20.0156 46.7812 33.4062
Q43.9531 29.2031 39.5938 26.9531
Q35.25 24.7031 29.9844 24.7031
Q19.0469 24.7031 12.6719 31.3125
Q6.29688 37.9375 6.29688 49.4219
Q6.29688 60.6406 12.9375 67.4219
Q19.5781 74.2188 30.6094 74.2188
Q43.2656 74.2188 49.9219 64.5156
Q56.5938 54.8281 56.5938 36.375
Q56.5938 19.1406 48.4062 8.85938
Q40.2344 -1.42188 26.4219 -1.42188
Q22.7031 -1.42188 18.8906 -0.6875
Q15.0938 0.046875 10.9844 1.51562
M30.6094 32.4219
Q37.25 32.4219 41.125 36.9531
Q45.0156 41.5 45.0156 49.4219
Q45.0156 57.2812 41.125 61.8438
Q37.25 66.4062 30.6094 66.4062
Q23.9688 66.4062 20.0938 61.8438
Q16.2188 57.2812 16.2188 49.4219
Q16.2188 41.5 20.0938 36.9531
Q23.9688 32.4219 30.6094 32.4219" id="BitstreamVeraSans-Roman-39"/>
       <path d="
M12.4062 8.29688
L28.5156 8.29688
L28.5156 63.9219
L10.9844 60.4062
L10.9844 69.3906
L28.4219 72.9062
L38.2812 72.9062
L38.2812 8.29688
L54.3906 8.29688
L54.3906 0
L12.4062 0
z
" id="BitstreamVeraSans-Roman-31"/>
      </defs>
      <g transform="translate(536.332554273 26.4311057692)scale(0.1 -0.1)">
       <use xlink:href="#BitstreamVeraSans-Roman-31"/>
       <use x="63.623046875" xlink:href="#BitstreamVeraSans-Roman-65"/>
       <use x="125.146484375" xlink:href="#BitstreamVeraSans-Roman-39"/>
      </g>
     </g>
    </g>
    <g id="xtick_7">
     <g id="line2d_8">
      <defs>
       <path d="
M0 0
L0 -2" id="mc8bb6cf4a5"/>
      </defs>
      <g>
       <use style="stroke:#000000;stroke-linecap:butt;stroke-width:0.5;" x="46.3578386512" xlink:href="#mc8bb6cf4a5" y="15.0092307692"/>
      </g>
     </g>
    </g>
    <g id="xtick_8">
     <g id="line2d_9">
      <defs>
       <path d="
M0 0
L0 -2" id="mc8bb6cf4a5"/>
      </defs>
      <g>
       <use style="stroke:#000000;stroke-linecap:butt;stroke-width:0.5;" x="72.5953648023" xlink:href="#mc8bb6cf4a5" y="15.0092307692"/>
      </g>
     </g>
    </g>
    <g id="xtick_9">
     <g id="line2d_10">
      <defs>
       <path d="
M0 0
L0 -2" id="mc8bb6cf4a5"/>
      </defs>
      <g>
       <use style="stroke:#000000;stroke-linecap:butt;stroke-width:0.5;" x="98.8328909535" xlink:href="#mc8bb6cf4a5" y="15.0092307692"/>
      </g>
     </g>
    </g>
    <g id="xtick_10">
     <g id="line2d_11">
      <defs>
       <path d="
M0 0
L0 -2" id="mc8bb6cf4a5"/>
      </defs>
      <g>
       <use style="stroke:#000000;stroke-linecap:butt;stroke-width:0.5;" x="151.307943256" xlink:href="#mc8bb6cf4a5" y="15.0092307692"/>
      </g>
     </g>
    </g>
    <g id="xtick_11">
     <g id="line2d_12">
      <defs>
       <path d="
M0 0
L0 -2" id="mc8bb6cf4a5"/>
      </defs>
      <g>
       <use style="stroke:#000000;stroke-linecap:butt;stroke-width:0.5;" x="177.545469407" xlink:href="#mc8bb6cf4a5" y="15.0092307692"/>
      </g>
     </g>
    </g>
    <g id="xtick_12">
     <g id="line2d_13">
      <defs>
       <path d="
M0 0
L0 -2" id="mc8bb6cf4a5"/>
      </defs>
      <g>
       <use style="stroke:#000000;stroke-linecap:butt;stroke-width:0.5;" x="203.782995558" xlink:href="#mc8bb6cf4a5" y="15.0092307692"/>
      </g>
     </g>
    </g>
    <g id="xtick_13">
     <g id="line2d_14">
      <defs>
       <path d="
M0 0
L0 -2" id="mc8bb6cf4a5"/>
      </defs>
      <g>
       <use style="stroke:#000000;stroke-linecap:butt;stroke-width:0.5;" x="256.25804786" xlink:href="#mc8bb6cf4a5" y="15.0092307692"/>
      </g>
     </g>
    </g>
    <g id="xtick_14">
     <g id="line2d_15">
      <defs>
       <path d="
M0 0
L0 -2" id="mc8bb6cf4a5"/>
      </defs>
      <g>
       <use style="stroke:#000000;stroke-linecap:butt;stroke-width:0.5;" x="282.495574012" xlink:href="#mc8bb6cf4a5" y="15.0092307692"/>
      </g>
     </g>
    </g>
    <g id="xtick_15">
     <g id="line2d_16">
      <defs>
       <path d="
M0 0
L0 -2" id="mc8bb6cf4a5"/>
      </defs>
      <g>
       <use style="stroke:#000000;stroke-linecap:butt;stroke-width:0.5;" x="308.733100163" xlink:href="#mc8bb6cf4a5" y="15.0092307692"/>
      </g>
     </g>
    </g>
    <g id="xtick_16">
     <g id="line2d_17">
      <defs>
       <path d="
M0 0
L0 -2" id="mc8bb6cf4a5"/>
      </defs>
      <g>
       <use style="stroke:#000000;stroke-linecap:butt;stroke-width:0.5;" x="361.208152465" xlink:href="#mc8bb6cf4a5" y="15.0092307692"/>
      </g>
     </g>
    </g>
    <g id="xtick_17">
     <g id="line2d_18">
      <defs>
       <path d="
M0 0
L0 -2" id="mc8bb6cf4a5"/>
      </defs>
      <g>
       <use style="stroke:#000000;stroke-linecap:butt;stroke-width:0.5;" x="387.445678616" xlink:href="#mc8bb6cf4a5" y="15.0092307692"/>
      </g>
     </g>
    </g>
    <g id="xtick_18">
     <g id="line2d_19">
      <defs>
       <path d="
M0 0
L0 -2" id="mc8bb6cf4a5"/>
      </defs>
      <g>
       <use style="stroke:#000000;stroke-linecap:butt;stroke-width:0.5;" x="413.683204767" xlink:href="#mc8bb6cf4a5" y="15.0092307692"/>
      </g>
     </g>
    </g>
    <g id="xtick_19">
     <g id="line2d_20">
      <defs>
       <path d="
M0 0
L0 -2" id="mc8bb6cf4a5"/>
      </defs>
      <g>
       <use style="stroke:#000000;stroke-linecap:butt;stroke-width:0.5;" x="466.15825707" xlink:href="#mc8bb6cf4a5" y="15.0092307692"/>
      </g>
     </g>
    </g>
    <g id="xtick_20">
     <g id="line2d_21">
      <defs>
       <path d="
M0 0
L0 -2" id="mc8bb6cf4a5"/>
      </defs>
      <g>
       <use style="stroke:#000000;stroke-linecap:butt;stroke-width:0.5;" x="492.395783221" xlink:href="#mc8bb6cf4a5" y="15.0092307692"/>
      </g>
     </g>
    </g>
    <g id="xtick_21">
     <g id="line2d_22">
      <defs>
       <path d="
M0 0
L0 -2" id="mc8bb6cf4a5"/>
      </defs>
      <g>
       <use style="stroke:#000000;stroke-linecap:butt;stroke-width:0.5;" x="518.633309372" xlink:href="#mc8bb6cf4a5" y="15.0092307692"/>
      </g>
     </g>
    </g>
   </g>
   <g id="matplotlib.axis_2">
    <g id="ytick_1">
     <g id="line2d_23">
      <defs>
       <path d="
M0 0
L4 0" id="m43a40685fb"/>
      </defs>
      <g>
       <use style="stroke:#000000;stroke-linecap:butt;stroke-width:0.5;" x="20.1203125" xlink:href="#m43a40685fb" y="388.439831277"/>
      </g>
     </g>
     <g id="text_6">
      <!-- -5 -->
      <defs>
       <path d="
M4.89062 31.3906
L31.2031 31.3906
L31.2031 23.3906
L4.89062 23.3906
z
" id="BitstreamVeraSans-Roman-2d"/>
       <path d="
M10.7969 72.9062
L49.5156 72.9062
L49.5156 64.5938
L19.8281 64.5938
L19.8281 46.7344
Q21.9688 47.4688 24.1094 47.8281
Q26.2656 48.1875 28.4219 48.1875
Q40.625 48.1875 47.75 41.5
Q54.8906 34.8125 54.8906 23.3906
Q54.8906 11.625 47.5625 5.09375
Q40.2344 -1.42188 26.9062 -1.42188
Q22.3125 -1.42188 17.5469 -0.640625
Q12.7969 0.140625 7.71875 1.70312
L7.71875 11.625
Q12.1094 9.23438 16.7969 8.0625
Q21.4844 6.89062 26.7031 6.89062
Q35.1562 6.89062 40.0781 11.3281
Q45.0156 15.7656 45.0156 23.3906
Q45.0156 31 40.0781 35.4375
Q35.1562 39.8906 26.7031 39.8906
Q22.75 39.8906 18.8125 39.0156
Q14.8906 38.1406 10.7969 36.2812
z
" id="BitstreamVeraSans-Roman-35"/>
      </defs>
      <g transform="translate(7.5125 392.014050027)scale(0.1 -0.1)">
       <use xlink:href="#BitstreamVeraSans-Roman-2d"/>
       <use x="36.083984375" xlink:href="#BitstreamVeraSans-Roman-35"/>
      </g>
     </g>
    </g>
    <g id="ytick_2">
     <g id="line2d_24">
      <defs>
       <path d="
M0 0
L4 0" id="m43a40685fb"/>
      </defs>
      <g>
       <use style="stroke:#000000;stroke-linecap:butt;stroke-width:0.5;" x="20.1203125" xlink:href="#m43a40685fb" y="313.753711175"/>
      </g>
     </g>
     <g id="text_7">
      <!-- -4 -->
      <g transform="translate(7.2 317.399023675)scale(0.1 -0.1)">
       <use xlink:href="#BitstreamVeraSans-Roman-2d"/>
       <use x="36.083984375" xlink:href="#BitstreamVeraSans-Roman-34"/>
      </g>
     </g>
    </g>
    <g id="ytick_3">
     <g id="line2d_25">
      <defs>
       <path d="
M0 0
L4 0" id="m43a40685fb"/>
      </defs>
      <g>
       <use style="stroke:#000000;stroke-linecap:butt;stroke-width:0.5;" x="20.1203125" xlink:href="#m43a40685fb" y="239.067591074"/>
      </g>
     </g>
     <g id="text_8">
      <!-- -3 -->
      <defs>
       <path d="
M40.5781 39.3125
Q47.6562 37.7969 51.625 33
Q55.6094 28.2188 55.6094 21.1875
Q55.6094 10.4062 48.1875 4.48438
Q40.7656 -1.42188 27.0938 -1.42188
Q22.5156 -1.42188 17.6562 -0.515625
Q12.7969 0.390625 7.625 2.20312
L7.625 11.7188
Q11.7188 9.32812 16.5938 8.10938
Q21.4844 6.89062 26.8125 6.89062
Q36.0781 6.89062 40.9375 10.5469
Q45.7969 14.2031 45.7969 21.1875
Q45.7969 27.6406 41.2812 31.2656
Q36.7656 34.9062 28.7188 34.9062
L20.2188 34.9062
L20.2188 43.0156
L29.1094 43.0156
Q36.375 43.0156 40.2344 45.9219
Q44.0938 48.8281 44.0938 54.2969
Q44.0938 59.9062 40.1094 62.9062
Q36.1406 65.9219 28.7188 65.9219
Q24.6562 65.9219 20.0156 65.0312
Q15.375 64.1562 9.8125 62.3125
L9.8125 71.0938
Q15.4375 72.6562 20.3438 73.4375
Q25.25 74.2188 29.5938 74.2188
Q40.8281 74.2188 47.3594 69.1094
Q53.9062 64.0156 53.9062 55.3281
Q53.9062 49.2656 50.4375 45.0938
Q46.9688 40.9219 40.5781 39.3125" id="BitstreamVeraSans-Roman-33"/>
      </defs>
      <g transform="translate(7.440625 242.707434824)scale(0.1 -0.1)">
       <use xlink:href="#BitstreamVeraSans-Roman-2d"/>
       <use x="36.083984375" xlink:href="#BitstreamVeraSans-Roman-33"/>
      </g>
     </g>
    </g>
    <g id="ytick_4">
     <g id="line2d_26">
      <defs>
       <path d="
M0 0
L4 0" id="m43a40685fb"/>
      </defs>
      <g>
       <use style="stroke:#000000;stroke-linecap:butt;stroke-width:0.5;" x="20.1203125" xlink:href="#m43a40685fb" y="164.381470972"/>
      </g>
     </g>
     <g id="text_9">
      <!-- -2 -->
      <g transform="translate(7.640625 168.092408472)scale(0.1 -0.1)">
       <use xlink:href="#BitstreamVeraSans-Roman-2d"/>
       <use x="36.083984375" xlink:href="#BitstreamVeraSans-Roman-32"/>
      </g>
     </g>
    </g>
    <g id="ytick_5">
     <g id="line2d_27">
      <defs>
       <path d="
M0 0
L4 0" id="m43a40685fb"/>
      </defs>
      <g>
       <use style="stroke:#000000;stroke-linecap:butt;stroke-width:0.5;" x="20.1203125" xlink:href="#m43a40685fb" y="89.6953508707"/>
      </g>
     </g>
     <g id="text_10">
      <!-- -1 -->
      <g transform="translate(7.5625 93.3406633707)scale(0.1 -0.1)">
       <use xlink:href="#BitstreamVeraSans-Roman-2d"/>
       <use x="36.083984375" xlink:href="#BitstreamVeraSans-Roman-31"/>
      </g>
     </g>
    </g>
    <g id="ytick_6">
     <g id="line2d_28">
      <defs>
       <path d="
M0 0
L4 0" id="m43a40685fb"/>
      </defs>
      <g>
       <use style="stroke:#000000;stroke-linecap:butt;stroke-width:0.5;" x="20.1203125" xlink:href="#m43a40685fb" y="15.0092307692"/>
      </g>
     </g>
    </g>
    <g id="ytick_7">
     <g id="line2d_29">
      <defs>
       <path d="
M0 0
L2 0" id="me15bc687f7"/>
      </defs>
      <g>
       <use style="stroke:#000000;stroke-linecap:butt;stroke-width:0.5;" x="20.1203125" xlink:href="#me15bc687f7" y="403.377055297"/>
      </g>
     </g>
    </g>
    <g id="ytick_8">
     <g id="line2d_30">
      <defs>
       <path d="
M0 0
L2 0" id="me15bc687f7"/>
      </defs>
      <g>
       <use style="stroke:#000000;stroke-linecap:butt;stroke-width:0.5;" x="20.1203125" xlink:href="#me15bc687f7" y="373.502607256"/>
      </g>
     </g>
    </g>
    <g id="ytick_9">
     <g id="line2d_31">
      <defs>
       <path d="
M0 0
L2 0" id="me15bc687f7"/>
      </defs>
      <g>
       <use style="stroke:#000000;stroke-linecap:butt;stroke-width:0.5;" x="20.1203125" xlink:href="#me15bc687f7" y="358.565383236"/>
      </g>
     </g>
    </g>
    <g id="ytick_10">
     <g id="line2d_32">
      <defs>
       <path d="
M0 0
L2 0" id="me15bc687f7"/>
      </defs>
      <g>
       <use style="stroke:#000000;stroke-linecap:butt;stroke-width:0.5;" x="20.1203125" xlink:href="#me15bc687f7" y="343.628159216"/>
      </g>
     </g>
    </g>
    <g id="ytick_11">
     <g id="line2d_33">
      <defs>
       <path d="
M0 0
L2 0" id="me15bc687f7"/>
      </defs>
      <g>
       <use style="stroke:#000000;stroke-linecap:butt;stroke-width:0.5;" x="20.1203125" xlink:href="#me15bc687f7" y="328.690935196"/>
      </g>
     </g>
    </g>
    <g id="ytick_12">
     <g id="line2d_34">
      <defs>
       <path d="
M0 0
L2 0" id="me15bc687f7"/>
      </defs>
      <g>
       <use style="stroke:#000000;stroke-linecap:butt;stroke-width:0.5;" x="20.1203125" xlink:href="#me15bc687f7" y="298.816487155"/>
      </g>
     </g>
    </g>
    <g id="ytick_13">
     <g id="line2d_35">
      <defs>
       <path d="
M0 0
L2 0" id="me15bc687f7"/>
      </defs>
      <g>
       <use style="stroke:#000000;stroke-linecap:butt;stroke-width:0.5;" x="20.1203125" xlink:href="#me15bc687f7" y="283.879263135"/>
      </g>
     </g>
    </g>
    <g id="ytick_14">
     <g id="line2d_36">
      <defs>
       <path d="
M0 0
L2 0" id="me15bc687f7"/>
      </defs>
      <g>
       <use style="stroke:#000000;stroke-linecap:butt;stroke-width:0.5;" x="20.1203125" xlink:href="#me15bc687f7" y="268.942039114"/>
      </g>
     </g>
    </g>
    <g id="ytick_15">
     <g id="line2d_37">
      <defs>
       <path d="
M0 0
L2 0" id="me15bc687f7"/>
      </defs>
      <g>
       <use style="stroke:#000000;stroke-linecap:butt;stroke-width:0.5;" x="20.1203125" xlink:href="#me15bc687f7" y="254.004815094"/>
      </g>
     </g>
    </g>
    <g id="ytick_16">
     <g id="line2d_38">
      <defs>
       <path d="
M0 0
L2 0" id="me15bc687f7"/>
      </defs>
      <g>
       <use style="stroke:#000000;stroke-linecap:butt;stroke-width:0.5;" x="20.1203125" xlink:href="#me15bc687f7" y="239.067591074"/>
      </g>
     </g>
    </g>
    <g id="ytick_17">
     <g id="line2d_39">
      <defs>
       <path d="
M0 0
L2 0" id="me15bc687f7"/>
      </defs>
      <g>
       <use style="stroke:#000000;stroke-linecap:butt;stroke-width:0.5;" x="20.1203125" xlink:href="#me15bc687f7" y="224.130367053"/>
      </g>
     </g>
    </g>
    <g id="ytick_18">
     <g id="line2d_40">
      <defs>
       <path d="
M0 0
L2 0" id="me15bc687f7"/>
      </defs>
      <g>
       <use style="stroke:#000000;stroke-linecap:butt;stroke-width:0.5;" x="20.1203125" xlink:href="#me15bc687f7" y="209.193143033"/>
      </g>
     </g>
    </g>
    <g id="ytick_19">
     <g id="line2d_41">
      <defs>
       <path d="
M0 0
L2 0" id="me15bc687f7"/>
      </defs>
      <g>
       <use style="stroke:#000000;stroke-linecap:butt;stroke-width:0.5;" x="20.1203125" xlink:href="#me15bc687f7" y="194.255919013"/>
      </g>
     </g>
    </g>
    <g id="ytick_20">
     <g id="line2d_42">
      <defs>
       <path d="
M0 0
L2 0" id="me15bc687f7"/>
      </defs>
      <g>
       <use style="stroke:#000000;stroke-linecap:butt;stroke-width:0.5;" x="20.1203125" xlink:href="#me15bc687f7" y="179.318694993"/>
      </g>
     </g>
    </g>
    <g id="ytick_21">
     <g id="line2d_43">
      <defs>
       <path d="
M0 0
L2 0" id="me15bc687f7"/>
      </defs>
      <g>
       <use style="stroke:#000000;stroke-linecap:butt;stroke-width:0.5;" x="20.1203125" xlink:href="#me15bc687f7" y="164.381470972"/>
      </g>
     </g>
    </g>
    <g id="ytick_22">
     <g id="line2d_44">
      <defs>
       <path d="
M0 0
L2 0" id="me15bc687f7"/>
      </defs>
      <g>
       <use style="stroke:#000000;stroke-linecap:butt;stroke-width:0.5;" x="20.1203125" xlink:href="#me15bc687f7" y="149.444246952"/>
      </g>
     </g>
    </g>
    <g id="ytick_23">
     <g id="line2d_45">
      <defs>
       <path d="
M0 0
L2 0" id="me15bc687f7"/>
      </defs>
      <g>
       <use style="stroke:#000000;stroke-linecap:butt;stroke-width:0.5;" x="20.1203125" xlink:href="#me15bc687f7" y="134.507022932"/>
      </g>
     </g>
    </g>
    <g id="ytick_24">
     <g id="line2d_46">
      <defs>
       <path d="
M0 0
L2 0" id="me15bc687f7"/>
      </defs>
      <g>
       <use style="stroke:#000000;stroke-linecap:butt;stroke-width:0.5;" x="20.1203125" xlink:href="#me15bc687f7" y="119.569798911"/>
      </g>
     </g>
    </g>
    <g id="ytick_25">
     <g id="line2d_47">
      <defs>
       <path d="
M0 0
L2 0" id="me15bc687f7"/>
      </defs>
      <g>
       <use style="stroke:#000000;stroke-linecap:butt;stroke-width:0.5;" x="20.1203125" xlink:href="#me15bc687f7" y="104.632574891"/>
      </g>
     </g>
    </g>
    <g id="ytick_26">
     <g id="line2d_48">
      <defs>
       <path d="
M0 0
L2 0" id="me15bc687f7"/>
      </defs>
      <g>
       <use style="stroke:#000000;stroke-linecap:butt;stroke-width:0.5;" x="20.1203125" xlink:href="#me15bc687f7" y="89.6953508707"/>
      </g>
     </g>
    </g>
    <g id="ytick_27">
     <g id="line2d_49">
      <defs>
       <path d="
M0 0
L2 0" id="me15bc687f7"/>
      </defs>
      <g>
       <use style="stroke:#000000;stroke-linecap:butt;stroke-width:0.5;" x="20.1203125" xlink:href="#me15bc687f7" y="74.7581268504"/>
      </g>
     </g>
    </g>
    <g id="ytick_28">
     <g id="line2d_50">
      <defs>
       <path d="
M0 0
L2 0" id="me15bc687f7"/>
      </defs>
      <g>
       <use style="stroke:#000000;stroke-linecap:butt;stroke-width:0.5;" x="20.1203125" xlink:href="#me15bc687f7" y="59.8209028301"/>
      </g>
     </g>
    </g>
    <g id="ytick_29">
     <g id="line2d_51">
      <defs>
       <path d="
M0 0
L2 0" id="me15bc687f7"/>
      </defs>
      <g>
       <use style="stroke:#000000;stroke-linecap:butt;stroke-width:0.5;" x="20.1203125" xlink:href="#me15bc687f7" y="44.8836788098"/>
      </g>
     </g>
    </g>
    <g id="ytick_30">
     <g id="line2d_52">
      <defs>
       <path d="
M0 0
L2 0" id="me15bc687f7"/>
      </defs>
      <g>
       <use style="stroke:#000000;stroke-linecap:butt;stroke-width:0.5;" x="20.1203125" xlink:href="#me15bc687f7" y="29.9464547895"/>
      </g>
     </g>
    </g>
   </g>
   <g id="patch_3">
    <path d="
M9.62586 15.0092
L555.338 15.0092" style="fill:none;stroke:#000000;stroke-width:0.8;"/>
   </g>
   <g id="patch_4">
    <path d="
M20.1203 413.28
L20.1203 7.2" style="fill:none;stroke:#000000;stroke-width:0.8;"/>
   </g>
  </g>
 </g>
 <defs>
  <clipPath id="p602998282e">
   <rect height="406.08" width="545.711698828" x="9.62585780281" y="7.2"/>
  </clipPath>
 </defs>
</svg>
