<?xml version="1.0" encoding="utf-8" standalone="no"?>
<!DOCTYPE svg PUBLIC "-//W3C//DTD SVG 1.1//EN"
  "http://www.w3.org/Graphics/SVG/1.1/DTD/svg11.dtd">
<!-- Created with matplotlib (http://matplotlib.sourceforge.net/) -->
<svg height="419pt" version="1.1" viewBox="0 0 562 419" width="562pt" xmlns="http://www.w3.org/2000/svg" xmlns:xlink="http://www.w3.org/1999/xlink">
 <defs>
  <style type="text/css">
*{stroke-linecap:square;stroke-linejoin:round;}
  </style>
 </defs>
 <g id="figure_1">
  <g id="patch_1">
   <path d="
M4.44089e-16 419.769
L562.676 419.769
L562.676 0
L4.44089e-16 0
z
" style="fill:#ffffff;"/>
  </g>
  <g id="axes_1">
   <g id="patch_2">
    <path d="
M15.18 408.726
L555.476 408.726
L555.476 7.2
L15.18 7.2
z
" style="fill:#ffffff;"/>
   </g>
   <g id="line2d_1">
    <path clip-path="url(#pbdfec9549d)" d="
M25.5703 401.004
L25.6187 401.004
L25.6187 14.9217
L25.6763 25.7272
L25.7378 25.7272
L25.7378 44.3438
L25.8003 42.5553
L25.8655 42.5553
L25.9326 58.6928
L25.9989 58.6928
L26.0671 80.0625
L26.1369 80.0625
L26.2067 100.052
L26.2774 100.052
L26.3482 111.182
L26.4201 111.182
L26.493 118.974
L26.5651 118.974
L26.6383 126.199
L26.7117 126.199
L26.7854 133.577
L26.8595 133.577
L26.9349 140.555
L27.0087 140.555
L27.0845 147.012
L27.1607 147.012
L27.2353 152.143
L27.311 152.143
L27.3874 156.422
L27.4642 156.422
L27.542 158.515
L27.7739 158.422
L27.851 159.745
L27.9295 159.745
L28.0084 160.582
L28.0852 160.582
L28.1637 160.961
L28.2426 160.961
L28.2426 161.08
L28.3205 161.08
L28.3205 161.08
L28.3205 160.821
L28.4006 160.972
L28.4802 160.972
L28.5598 161.866
L28.6377 161.866
L28.7178 162.796
L28.7967 162.796
L28.8778 163.654
L28.9596 163.654
L29.0392 165.125
L29.1201 165.125
L29.1996 166.803
L29.2795 166.803
L29.3607 168.563
L29.443 168.563
L29.5241 169.941
L29.6047 169.941
L29.6854 171.289
L29.7663 171.289
L29.8474 172.679
L29.929 172.679
L30.012 174.155
L30.0919 174.155
L30.1742 175.62
L30.2568 175.62
L30.3389 177.086
L30.421 177.086
L30.5043 178.336
L30.5866 178.336
L30.6704 178.641
L30.7538 178.641
L30.835 179.086
L30.9175 179.086
L31.0007 179.849
L31.0859 179.849
L31.1693 180.71
L31.2519 180.71
L31.3336 181.186
L31.4174 181.186
L31.5003 181.406
L31.5845 181.406
L31.667 181.704
L31.7483 181.704
L31.8338 182.094
L31.9173 182.094
L32.0037 182.73
L32.0876 182.73
L32.1699 183.293
L32.2544 183.293
L32.3393 184.155
L32.4235 184.155
L32.509 184.87
L32.5937 184.87
L32.6783 185.193
L32.7626 185.193
L32.8447 185.527
L32.9327 185.527
L33.0167 185.932
L33.1014 185.932
L33.1847 186.355
L33.2702 186.355
L33.3548 186.947
L33.4383 186.947
L33.5251 187.532
L33.6118 187.532
L33.6969 188.304
L33.7828 188.304
L33.87 189.165
L33.9556 189.165
L34.0399 189.906
L34.1261 189.906
L34.212 190.704
L34.2962 190.704
L34.3835 191.533
L34.4689 191.533
L34.5557 192.552
L34.6431 192.552
L34.7298 193.736
L34.8151 193.736
L34.9008 194.95
L34.9864 194.95
L35.0719 195.988
L35.1592 195.988
L35.2444 196.889
L35.3299 196.889
L35.4162 197.696
L35.5034 197.696
L35.5885 198.247
L35.6751 198.247
L35.7621 198.667
L35.8521 198.667
L35.938 199.041
L36.0231 199.041
L36.1091 199.415
L36.196 199.415
L36.2838 199.745
L36.4587 199.855
L36.5459 200.004
L36.8055 200.097
L36.8932 200.218
L36.9813 200.218
L37.0691 200.46
L37.1574 200.46
L37.2457 200.732
L37.3323 200.732
L37.4181 201.031
L37.508 201.031
L37.5957 201.293
L37.7734 201.401
L37.8604 201.65
L37.9488 201.65
L38.0362 201.963
L38.1249 201.963
L38.2137 202.22
L38.302 202.22
L38.389 202.457
L38.5667 202.561
L38.6551 202.782
L38.7413 202.782
L38.8318 202.993
L39.0056 203.087
L39.0945 203.315
L39.1835 203.315
L39.272 203.632
L39.3597 203.632
L39.4491 203.975
L39.5376 203.975
L39.6246 204.302
L39.7127 204.302
L39.8042 204.595
L39.893 204.595
L39.9809 204.911
L40.0717 204.911
L40.1594 205.236
L40.2444 205.236
L40.3329 205.544
L40.4222 205.544
L40.5127 205.863
L40.6024 205.863
L40.6912 206.219
L40.7811 206.219
L40.8707 206.549
L40.9609 206.549
L41.0501 206.849
L41.1388 206.849
L41.2267 207.072
L41.4079 207.163
L41.4995 207.264
L41.7648 207.363
L41.8536 207.437
L42.0334 207.496
L42.1224 207.625
L42.3865 207.714
L42.4776 207.798
L43.4648 207.903
L43.4648 207.915
L43.5565 207.909
L44.0168 207.802
L44.1062 207.698
L44.4637 207.593
L44.5582 207.538
L44.8255 207.444
L44.9163 207.377
L45.0954 207.317
L45.1892 207.119
L45.28 207.119
L45.3702 206.911
L45.5496 206.804
L45.6414 206.585
L45.8223 206.497
L45.9141 206.344
L46.0933 206.274
L46.1876 206.138
L46.3714 206.051
L46.4625 205.861
L46.6412 205.763
L46.7326 205.527
L46.8231 205.527
L46.9138 205.24
L47.007 205.24
L47.0995 204.947
L47.19 204.947
L47.2811 204.607
L47.3708 204.607
L47.4616 204.272
L47.5539 204.272
L47.6466 203.951
L47.7368 203.951
L47.8299 203.671
L47.9225 203.671
L48.013 203.387
L48.1052 203.387
L48.1984 203.079
L48.2901 203.079
L48.3815 202.755
L48.4752 202.755
L48.5639 202.474
L48.653 202.474
L48.7437 202.2
L48.8349 202.2
L48.9254 201.91
L49.0187 201.91
L49.1113 201.542
L49.2045 201.542
L49.2949 201.182
L49.3864 201.182
L49.4794 200.805
L49.5693 200.805
L49.6622 200.432
L49.7553 200.432
L49.8473 200.054
L49.937 200.054
L50.0298 199.679
L50.1214 199.679
L50.2122 199.33
L50.3059 199.33
L50.3986 199.003
L50.4921 199.003
L50.5836 198.684
L50.6769 198.684
L50.7675 198.37
L50.8587 198.37
L50.9514 198.056
L51.0393 198.056
L51.1335 197.798
L51.2257 197.798
L51.3168 197.563
L51.4077 197.563
L51.4979 197.335
L51.6846 197.226
L51.7769 197.025
L51.9627 196.918
L52.0545 196.689
L52.1484 196.689
L52.2402 196.432
L52.3331 196.432
L52.4259 196.182
L52.6113 196.074
L52.7033 195.857
L52.8877 195.754
L52.9793 195.54
L53.1662 195.437
L53.2592 195.241
L53.444 195.15
L53.5354 194.97
L53.7227 194.888
L53.8156 194.737
L54.0007 194.661
L54.0946 194.481
L54.2818 194.393
L54.3752 194.196
L54.5621 194.105
L54.6551 193.938
L54.8417 193.862
L54.9358 193.704
L55.1246 193.625
L55.2147 193.457
L55.4013 193.376
L55.4945 193.217
L55.6841 193.125
L55.777 192.924
L55.9634 192.823
L56.0579 192.608
L56.2414 192.521
L56.3322 192.357
L56.5191 192.278
L56.6137 192.11
L56.7995 192.023
L56.891 191.837
L56.9887 191.837
L57.0819 191.607
L57.2686 191.497
L57.3619 191.279
L57.4567 191.279
L57.5487 191.035
L57.6417 191.035
L57.7383 190.792
L57.8305 190.792
L57.9259 190.55
L58.0196 190.55
L58.112 190.317
L58.2046 190.317
L58.2956 190.099
L58.3894 190.099
L58.4827 189.856
L58.5775 189.856
L58.6721 189.624
L58.769 189.624
L58.8626 189.392
L58.956 189.392
L59.0523 189.163
L59.1447 189.163
L59.2401 188.918
L59.3341 188.918
L59.4272 188.674
L59.521 188.674
L59.6149 188.427
L59.7083 188.427
L59.8002 188.162
L59.894 188.162
L59.9883 187.893
L60.0828 187.893
L60.1789 187.672
L60.3673 187.583
L60.4592 187.401
L60.6471 187.311
L60.7407 187.115
L60.9305 187.014
L61.024 186.801
L61.1187 186.801
L61.2108 186.569
L61.3038 186.569
L61.3963 186.323
L61.4916 186.323
L61.5868 186.038
L61.6791 186.038
L61.7719 185.766
L61.8681 185.766
L61.9616 185.491
L62.0562 185.491
L62.1484 185.221
L62.2411 185.221
L62.3375 184.971
L62.4312 184.971
L62.524 184.735
L62.622 184.735
L62.7161 184.508
L62.8102 184.508
L62.9065 184.26
L62.9997 184.26
L63.095 184.023
L63.19 184.023
L63.2846 183.777
L63.3775 183.777
L63.4719 183.542
L63.5684 183.542
L63.6616 183.31
L63.7587 183.31
L63.8519 183.071
L63.9454 183.071
L64.0422 182.839
L64.1371 182.839
L64.2315 182.596
L64.3253 182.596
L64.4209 182.362
L64.5182 182.362
L64.6132 182.135
L64.8018 182.031
L64.8972 181.814
L65.0855 181.704
L65.1818 181.5
L65.3697 181.398
L65.4648 181.193
L65.6546 181.089
L65.7497 180.863
L65.8464 180.863
L65.9424 180.648
L66.1322 180.543
L66.2269 180.346
L66.4151 180.256
L66.5091 180.083
L66.6996 179.998
L66.7943 179.839
L66.9858 179.757
L67.0792 179.589
L67.2715 179.51
L67.3678 179.359
L67.5581 179.283
L67.6557 179.112
L67.8455 179.022
L67.941 178.829
L68.1308 178.737
L68.2253 178.577
L68.4144 178.509
L68.5123 178.369
L68.7016 178.304
L68.7962 178.171
L68.9868 178.11
L69.0841 177.976
L69.2751 177.914
L69.3715 177.81
L69.6582 177.718
L69.7541 177.628
L70.037 177.535
L70.1313 177.442
L70.4186 177.358
L70.5143 177.291
L70.7994 177.216
L70.894 177.137
L71.1803 177.053
L71.2749 176.962
L71.5642 176.867
L71.6624 176.765
L71.9468 176.667
L72.0433 176.569
L72.2364 176.515
L72.3301 176.398
L72.5264 176.339
L72.6233 176.208
L72.8144 176.137
L72.9102 176.003
L73.1025 175.937
L73.199 175.797
L73.3909 175.728
L73.485 175.583
L73.6741 175.516
L73.7714 175.366
L73.9631 175.29
L74.0603 175.155
L74.2503 175.094
L74.3476 174.98
L74.5417 174.921
L74.6387 174.807
L74.929 174.703
L75.0243 174.611
L75.3131 174.527
L75.4051 174.465
L75.7909 174.37
L75.8866 174.294
L76.1761 174.205
L76.2729 174.116
L76.5633 174.019
L76.6575 173.928
L76.9509 173.843
L77.0483 173.76
L77.437 173.655
L77.5355 173.586
L77.9189 173.49
L78.0148 173.441
L78.4984 173.357
L78.5975 173.295
L78.8863 173.223
L78.9822 173.145
L79.3712 173.042
L79.466 172.98
L79.8504 172.892
L79.9477 172.839
L80.3343 172.732
L80.4295 172.644
L80.7207 172.548
L80.8173 172.462
L81.1036 172.377
L81.2004 172.304
L81.4919 172.228
L81.5903 172.136
L81.8828 172.035
L81.9778 171.93
L82.2696 171.822
L82.3655 171.739
L82.6558 171.662
L82.7536 171.586
L83.0445 171.504
L83.1406 171.414
L83.4347 171.313
L83.5299 171.216
L83.7219 171.161
L83.8191 171.045
L84.0148 170.984
L84.112 170.872
L84.3091 170.812
L84.4054 170.68
L84.6004 170.612
L84.6993 170.477
L84.8941 170.405
L84.9924 170.261
L85.1829 170.197
L85.2831 170.069
L85.4771 170.005
L85.5719 169.881
L85.7659 169.82
L85.8638 169.712
L86.1529 169.624
L86.2527 169.529
L86.5442 169.427
L86.6418 169.328
L86.9327 169.233
L87.0297 169.135
L87.324 169.04
L87.4217 168.939
L87.7111 168.83
L87.8109 168.72
L88.1043 168.609
L88.2025 168.504
L88.4963 168.404
L88.594 168.315
L88.8866 168.218
L88.9856 168.118
L89.2775 168.014
L89.3748 167.903
L89.6663 167.802
L89.7646 167.696
L90.0529 167.603
L90.1502 167.515
L90.4445 167.425
L90.5466 167.34
L90.9379 167.248
L91.0351 167.183
L91.4278 167.085
L91.5247 167.012
L91.9117 166.922
L92.0094 166.863
L92.3998 166.771
L92.4984 166.711
L92.9943 166.617
L93.0927 166.572
L93.6858 166.469
L93.784 166.441
L94.5678 166.332
L94.6678 166.304
L95.454 166.197
L95.5544 166.161
L100.966 166.052
L101.065 166.039
L103.341 165.929
L103.442 165.917
L104.924 165.812
L105.023 165.794
L106.51 165.684
L106.608 165.679
L109.69 165.568
L109.787 165.555
L112.671 165.444
L112.77 165.434
L114.358 165.323
L114.457 165.312
L115.261 165.21
L115.362 165.175
L116.352 165.064
L116.448 165.042
L117.648 164.936
L117.748 164.91
L118.751 164.809
L118.847 164.782
L119.552 164.671
L119.65 164.63
L120.154 164.539
L120.253 164.491
L120.746 164.387
L120.846 164.332
L121.249 164.247
L121.352 164.193
L121.757 164.107
L121.856 164.053
L122.353 163.945
L122.453 163.894
L122.953 163.788
L123.053 163.739
L123.556 163.646
L123.656 163.598
L124.159 163.5
L124.259 163.447
L124.761 163.349
L124.865 163.304
L125.467 163.195
L125.568 163.157
L126.268 163.047
L126.368 163.015
L127.277 162.907
L127.379 162.881
L128.28 162.787
L128.381 162.753
L129.083 162.65
L129.184 162.618
L129.884 162.518
L129.984 162.491
L130.793 162.382
L130.896 162.355
L131.602 162.252
L131.703 162.217
L132.41 162.118
L132.51 162.09
L133.312 161.986
L133.412 161.958
L134.727 161.85
L134.826 161.831
L135.74 161.728
L135.843 161.7
L136.849 161.595
L136.952 161.569
L137.959 161.466
L138.063 161.449
L139.271 161.342
L139.373 161.328
L146.976 161.437
L147.079 161.446
L152.466 161.34
L152.569 161.324
L153.59 161.217
L153.692 161.186
L154.399 161.084
L154.501 161.049
L155.119 160.952
L155.222 160.911
L155.833 160.81
L155.933 160.765
L156.444 160.666
L156.549 160.616
L157.063 160.51
L157.165 160.46
L157.679 160.363
L157.781 160.315
L158.392 160.206
L158.493 160.158
L159.006 160.056
L159.107 160.012
L159.715 159.914
L159.816 159.875
L160.431 159.779
L160.532 159.741
L161.249 159.64
L161.348 159.605
L162.07 159.496
L162.172 159.458
L162.881 159.35
L162.988 159.318
L163.801 159.209
L163.904 159.178
L164.727 159.076
L164.828 159.046
L165.747 158.936
L165.848 158.909
L166.663 158.804
L166.767 158.774
L167.593 158.67
L167.695 158.643
L168.517 158.539
L168.619 158.506
L169.23 158.41
L169.332 158.368
L170.05 158.261
L170.155 158.224
L170.871 158.12
L170.975 158.085
L171.796 157.975
L171.898 157.943
L172.715 157.838
L172.818 157.805
L173.543 157.707
L173.641 157.675
L174.565 157.566
L174.669 157.537
L175.496 157.431
L175.598 157.404
L176.422 157.303
L176.525 157.273
L177.249 157.174
L177.351 157.142
L178.069 157.038
L178.17 157.002
L178.794 156.905
L178.897 156.868
L179.618 156.766
L179.719 156.731
L180.34 156.638
L180.443 156.598
L181.056 156.496
L181.154 156.452
L181.769 156.343
L181.869 156.303
L182.487 156.202
L182.589 156.162
L183.307 156.054
L183.413 156.019
L184.139 155.921
L184.24 155.89
L185.059 155.788
L185.163 155.761
L186.09 155.661
L186.192 155.635
L187.133 155.529
L187.237 155.5
L188.165 155.391
L188.267 155.367
L189.204 155.262
L189.309 155.235
L190.235 155.124
L190.339 155.096
L191.165 154.994
L191.269 154.962
L191.995 154.862
L192.099 154.821
L192.716 154.726
L192.821 154.69
L193.648 154.581
L193.751 154.553
L194.681 154.448
L194.786 154.422
L195.611 154.322
L195.715 154.292
L196.547 154.188
L196.651 154.157
L197.48 154.053
L197.583 154.023
L198.409 153.915
L198.513 153.882
L199.337 153.779
L199.441 153.751
L200.38 153.643
L200.482 153.615
L201.515 153.505
L201.619 153.483
L202.77 153.376
L202.875 153.35
L203.923 153.24
L204.03 153.218
L205.067 153.116
L205.171 153.091
L206.115 152.984
L206.219 152.957
L207.15 152.854
L207.252 152.825
L208.295 152.719
L208.403 152.696
L209.337 152.588
L209.438 152.556
L210.269 152.449
L210.373 152.415
L210.999 152.323
L211.106 152.284
L211.728 152.183
L211.831 152.144
L212.462 152.042
L212.564 152.001
L213.185 151.901
L213.29 151.863
L213.918 151.762
L214.02 151.721
L214.642 151.618
L214.746 151.581
L215.475 151.482
L215.583 151.448
L216.315 151.344
L216.42 151.311
L217.149 151.213
L217.258 151.181
L217.986 151.085
L218.092 151.053
L218.918 150.942
L219.025 150.913
L219.963 150.805
L220.07 150.779
L221.008 150.68
L221.113 150.655
L222.055 150.548
L222.158 150.52
L222.998 150.415
L223.101 150.385
L224.035 150.282
L224.14 150.258
L225.077 150.153
L225.181 150.126
L226.019 150.023
L226.124 149.991
L226.852 149.896
L226.958 149.863
L227.684 149.765
L227.789 149.73
L228.523 149.621
L228.628 149.584
L229.255 149.486
L229.36 149.446
L230.082 149.339
L230.19 149.303
L230.916 149.202
L231.022 149.169
L231.751 149.072
L231.854 149.043
L232.697 148.94
L232.803 148.909
L233.542 148.807
L233.647 148.771
L234.378 148.665
L234.485 148.63
L235.212 148.53
L235.317 148.494
L236.052 148.389
L236.157 148.353
L236.897 148.245
L237.002 148.209
L237.726 148.101
L237.831 148.061
L238.468 147.957
L238.57 147.919
L239.306 147.809
L239.41 147.773
L240.148 147.663
L240.253 147.627
L240.986 147.521
L241.094 147.486
L241.835 147.382
L241.942 147.348
L242.675 147.252
L242.777 147.22
L243.621 147.109
L243.729 147.077
L244.568 146.978
L244.673 146.951
L245.613 146.841
L245.717 146.812
L246.558 146.711
L246.663 146.677
L247.402 146.569
L247.506 146.533
L248.139 146.435
L248.243 146.393
L248.883 146.292
L248.987 146.255
L249.726 146.145
L249.827 146.109
L250.463 146.012
L250.568 145.971
L251.197 145.876
L251.3 145.838
L251.927 145.743
L252.033 145.704
L252.674 145.603
L252.78 145.564
L253.413 145.468
L253.519 145.432
L254.145 145.335
L254.251 145.295
L254.888 145.196
L254.994 145.156
L255.623 145.055
L255.726 145.017
L256.361 144.918
L256.468 144.879
L257.102 144.783
L257.204 144.745
L257.834 144.642
L257.939 144.6
L258.573 144.499
L258.677 144.46
L259.416 144.352
L259.522 144.318
L260.26 144.214
L260.365 144.177
L260.991 144.083
L261.093 144.045
L261.724 143.951
L261.826 143.917
L262.564 143.812
L262.669 143.775
L263.407 143.668
L263.517 143.632
L264.251 143.527
L264.357 143.494
L265.1 143.389
L265.206 143.354
L265.948 143.244
L266.057 143.204
L266.689 143.102
L266.794 143.06
L267.429 142.955
L267.536 142.912
L268.06 142.821
L268.165 142.776
L268.799 142.667
L268.905 142.623
L269.433 142.533
L269.539 142.488
L270.07 142.4
L270.18 142.353
L270.704 142.262
L270.807 142.218
L271.338 142.128
L271.443 142.083
L271.974 141.988
L272.082 141.941
L272.609 141.848
L272.715 141.804
L273.355 141.693
L273.462 141.651
L274.097 141.543
L274.2 141.5
L274.837 141.395
L274.944 141.352
L275.583 141.244
L275.687 141.202
L276.329 141.093
L276.433 141.05
L277.066 140.94
L277.174 140.896
L277.807 140.789
L277.918 140.746
L278.552 140.643
L278.659 140.603
L279.295 140.498
L279.403 140.455
L280.039 140.346
L280.145 140.304
L280.781 140.199
L280.889 140.155
L281.52 140.051
L281.628 140.01
L282.262 139.91
L282.366 139.871
L282.999 139.776
L283.104 139.74
L283.738 139.645
L283.845 139.606
L284.482 139.509
L284.585 139.471
L285.22 139.373
L285.327 139.334
L286.07 139.223
L286.177 139.188
L286.922 139.088
L287.026 139.054
L287.772 138.951
L287.879 138.919
L288.724 138.81
L288.832 138.778
L289.676 138.669
L289.782 138.638
L290.639 138.529
L290.745 138.499
L291.597 138.39
L291.706 138.359
L292.547 138.256
L292.654 138.228
L293.503 138.122
L293.612 138.091
L294.36 137.993
L294.463 137.959
L295.203 137.856
L295.31 137.821
L296.053 137.718
L296.158 137.682
L296.905 137.576
L297.015 137.54
L297.758 137.433
L297.866 137.401
L298.719 137.291
L298.827 137.26
L299.678 137.157
L299.781 137.128
L300.634 137.03
L300.74 137.001
L301.593 136.904
L301.697 136.877
L302.652 136.774
L302.756 136.748
L303.617 136.65
L303.726 136.622
L304.58 136.521
L304.686 136.49
L305.538 136.383
L305.644 136.353
L306.39 136.255
L306.497 136.22
L307.248 136.112
L307.354 136.075
L308.102 135.97
L308.209 135.935
L308.957 135.836
L309.065 135.803
L309.918 135.693
L310.023 135.663
L310.993 135.554
L311.094 135.53
L312.263 135.421
L312.37 135.399
L313.544 135.296
L313.65 135.277
L314.932 135.168
L315.037 135.148
L316.214 135.043
L316.321 135.021
L317.379 134.92
L317.482 134.896
L318.557 134.789
L318.664 134.767
L319.947 134.661
L320.053 134.643
L321.542 134.534
L321.653 134.516
L323.038 134.408
L323.147 134.39
L324.531 134.283
L324.639 134.264
L325.822 134.162
L325.93 134.14
L327.005 134.032
L327.111 134.01
L328.181 133.909
L328.285 133.885
L329.359 133.774
L329.467 133.751
L330.533 133.643
L330.638 133.618
L331.701 133.509
L331.809 133.486
L332.889 133.385
L332.996 133.362
L334.071 133.256
L334.071 133.244
L335.144 133.139
L335.251 133.116
L336.321 133.011
L336.426 132.986
L337.392 132.879
L337.501 132.851
L338.363 132.75
L338.466 132.722
L339.426 132.611
L339.532 132.583
L340.396 132.483
L340.503 132.455
L341.355 132.356
L341.463 132.327
L342.317 132.227
L342.425 132.198
L343.285 132.099
L343.285 132.085
L344.261 131.977
L344.369 131.95
L345.225 131.852
L345.334 131.824
L346.304 131.717
L346.41 131.694
L347.485 131.593
L347.594 131.57
L348.771 131.461
L348.879 131.439
L350.059 131.329
L350.166 131.306
L351.249 131.204
L351.356 131.184
L352.532 131.083
L352.639 131.062
L353.827 130.954
L353.933 130.933
L355.115 130.829
L355.219 130.81
L356.401 130.707
L356.511 130.686
L357.683 130.583
L357.793 130.562
L358.978 130.451
L359.085 130.428
L360.158 130.325
L360.264 130.304
L361.352 130.201
L361.46 130.179
L362.652 130.075
L362.755 130.055
L364.052 129.944
L364.157 129.923
L365.349 129.818
L365.452 129.796
L366.636 129.693
L366.747 129.673
L367.932 129.567
L368.036 129.545
L369.107 129.442
L369.216 129.419
L370.285 129.317
L370.394 129.293
L371.472 129.183
L371.578 129.159
L372.655 129.056
L372.764 129.033
L373.846 128.928
L373.951 128.905
L375.137 128.799
L375.244 128.78
L376.426 128.676
L376.534 128.655
L377.721 128.55
L377.828 128.529
L379.12 128.424
L379.23 128.404
L380.528 128.295
L380.636 128.275
L381.933 128.168
L382.04 128.149
L383.449 128.043
L383.557 128.026
L384.963 127.92
L385.074 127.902
L386.473 127.795
L386.581 127.778
L388.086 127.672
L388.194 127.656
L389.934 127.546
L390.042 127.533
L392.088 127.427
L392.197 127.413
L394.046 127.306
L394.152 127.293
L396.212 127.186
L396.318 127.175
L398.261 127.068
L398.366 127.054
L400.211 126.947
L400.318 126.934
L402.152 126.824
L402.262 126.81
L404.101 126.705
L404.212 126.691
L406.273 126.583
L406.382 126.57
L408.224 126.464
L408.33 126.449
L409.74 126.341
L409.845 126.324
L411.484 126.216
L411.595 126.204
L413.874 126.093
L413.982 126.081
L415.936 125.976
L416.044 125.963
L417.878 125.857
L417.988 125.844
L419.831 125.74
L419.939 125.727
L422.007 125.618
L422.116 125.604
L424.19 125.494
L424.299 125.485
L426.466 125.376
L426.576 125.363
L428.755 125.253
L428.864 125.241
L431.146 125.134
L431.256 125.124
L433.444 125.019
L433.552 125.006
L435.619 124.895
L435.73 124.882
L437.47 124.773
L437.47 124.766
L439.424 124.655
L439.424 124.649
L441.175 124.544
L441.175 124.536
L442.807 124.425
L442.916 124.409
L444.444 124.299
L444.551 124.282
L446.071 124.177
L446.18 124.16
L447.585 124.054
L447.692 124.035
L449.109 123.925
L449.109 123.916
L450.641 123.807
L450.749 123.791
L452.27 123.687
L452.378 123.672
L453.806 123.567
L453.913 123.549
L455.22 123.443
L455.329 123.424
L456.634 123.318
L456.745 123.298
L458.065 123.196
L458.173 123.177
L459.483 123.066
L459.483 123.056
L460.684 122.952
L460.793 122.93
L461.983 122.823
L462.093 122.802
L463.307 122.694
L463.417 122.673
L464.611 122.57
L464.611 122.559
L465.822 122.449
L465.929 122.427
L467.025 122.324
L467.025 122.313
L468.125 122.206
L468.234 122.183
L469.324 122.077
L469.432 122.054
L470.525 121.951
L470.633 121.928
L471.728 121.824
L471.836 121.802
L473.037 121.7
L473.037 121.69
L474.356 121.58
L474.464 121.56
L475.773 121.453
L475.882 121.433
L477.196 121.323
L477.307 121.303
L478.51 121.199
L478.62 121.179
L479.83 121.076
L479.939 121.057
L481.251 120.946
L481.251 120.936
L482.456 120.827
L482.566 120.805
L483.654 120.698
L483.654 120.687
L484.745 120.581
L484.855 120.557
L485.96 120.453
L486.066 120.43
L487.161 120.325
L487.269 120.301
L488.364 120.199
L488.474 120.176
L489.562 120.074
L489.673 120.051
L490.776 119.944
L490.776 119.932
L491.884 119.827
L491.884 119.816
L493.095 119.705
L493.204 119.684
L494.511 119.574
L494.622 119.554
L495.929 119.444
L495.929 119.434
L497.249 119.326
L497.359 119.306
L498.676 119.199
L498.785 119.179
L500.095 119.068
L500.205 119.045
L501.306 118.943
L501.417 118.919
L502.509 118.818
L502.509 118.806
L503.61 118.705
L503.61 118.693
L504.707 118.591
L504.707 118.579
L505.81 118.479
L505.919 118.457
L507.018 118.356
L507.127 118.333
L508.219 118.233
L508.327 118.211
L509.549 118.102
L509.659 118.081
L510.975 117.974
L510.975 117.964
L512.296 117.857
L512.296 117.847
L513.612 117.743
L513.612 117.734
L514.932 117.63
L515.038 117.612
L516.47 117.503
L516.578 117.485
L518.008 117.381
L518.118 117.365
L519.756 117.258
L519.756 117.25
L521.514 117.141
L521.619 117.128
L523.387 117.023
L523.496 117.01
L525.592 116.901
L525.699 116.889
L527.786 116.778
L527.895 116.766
L529.763 116.659
L529.873 116.645
L531.535 116.542
L531.643 116.526
L533.284 116.416
L533.392 116.401
L535.046 116.292
L535.156 116.277
L536.922 116.167
L537.03 116.153
L538.8 116.042
L538.909 116.028
L540.674 115.923
L540.674 115.916
L542.34 115.812
L542.445 115.797
L544.098 115.69
L544.209 115.674
L545.086 115.62
L545.086 115.612" style="fill:none;stroke:#ff0000;stroke-width:0.5;"/>
   </g>
   <g id="matplotlib.axis_1">
    <g id="xtick_1">
     <g id="line2d_2">
      <defs>
       <path d="
M0 0
L0 -4" id="macfa92c2db"/>
      </defs>
      <g>
       <use style="stroke:#000000;stroke-linecap:butt;stroke-width:0.5;" x="25.5703125" xlink:href="#macfa92c2db" y="401.004497041"/>
      </g>
     </g>
    </g>
    <g id="xtick_2">
     <g id="line2d_3">
      <defs>
       <path d="
M0 0
L0 -4" id="macfa92c2db"/>
      </defs>
      <g>
       <use style="stroke:#000000;stroke-linecap:butt;stroke-width:0.5;" x="129.479281098" xlink:href="#macfa92c2db" y="401.004497041"/>
      </g>
     </g>
     <g id="text_1">
      <!-- 2e7 -->
      <defs>
       <path d="
M19.1875 8.29688
L53.6094 8.29688
L53.6094 0
L7.32812 0
L7.32812 8.29688
Q12.9375 14.1094 22.625 23.8906
Q32.3281 33.6875 34.8125 36.5312
Q39.5469 41.8438 41.4219 45.5312
Q43.3125 49.2188 43.3125 52.7812
Q43.3125 58.5938 39.2344 62.25
Q35.1562 65.9219 28.6094 65.9219
Q23.9688 65.9219 18.8125 64.3125
Q13.6719 62.7031 7.8125 59.4219
L7.8125 69.3906
Q13.7656 71.7812 18.9375 73
Q24.125 74.2188 28.4219 74.2188
Q39.75 74.2188 46.4844 68.5469
Q53.2188 62.8906 53.2188 53.4219
Q53.2188 48.9219 51.5312 44.8906
Q49.8594 40.875 45.4062 35.4062
Q44.1875 33.9844 37.6406 27.2188
Q31.1094 20.4531 19.1875 8.29688" id="BitstreamVeraSans-Roman-32"/>
       <path d="
M56.2031 29.5938
L56.2031 25.2031
L14.8906 25.2031
Q15.4844 15.9219 20.4844 11.0625
Q25.4844 6.20312 34.4219 6.20312
Q39.5938 6.20312 44.4531 7.46875
Q49.3125 8.73438 54.1094 11.2812
L54.1094 2.78125
Q49.2656 0.734375 44.1875 -0.34375
Q39.1094 -1.42188 33.8906 -1.42188
Q20.7969 -1.42188 13.1562 6.1875
Q5.51562 13.8125 5.51562 26.8125
Q5.51562 40.2344 12.7656 48.1094
Q20.0156 56 32.3281 56
Q43.3594 56 49.7812 48.8906
Q56.2031 41.7969 56.2031 29.5938
M47.2188 32.2344
Q47.125 39.5938 43.0938 43.9844
Q39.0625 48.3906 32.4219 48.3906
Q24.9062 48.3906 20.3906 44.1406
Q15.875 39.8906 15.1875 32.1719
z
" id="BitstreamVeraSans-Roman-65"/>
       <path d="
M8.20312 72.9062
L55.0781 72.9062
L55.0781 68.7031
L28.6094 0
L18.3125 0
L43.2188 64.5938
L8.20312 64.5938
z
" id="BitstreamVeraSans-Roman-37"/>
      </defs>
      <g transform="translate(120.833968598 412.426372041)scale(0.1 -0.1)">
       <use xlink:href="#BitstreamVeraSans-Roman-32"/>
       <use x="63.623046875" xlink:href="#BitstreamVeraSans-Roman-65"/>
       <use x="125.146484375" xlink:href="#BitstreamVeraSans-Roman-37"/>
      </g>
     </g>
    </g>
    <g id="xtick_3">
     <g id="line2d_4">
      <defs>
       <path d="
M0 0
L0 -4" id="macfa92c2db"/>
      </defs>
      <g>
       <use style="stroke:#000000;stroke-linecap:butt;stroke-width:0.5;" x="233.388249697" xlink:href="#macfa92c2db" y="401.004497041"/>
      </g>
     </g>
     <g id="text_2">
      <!-- 4e7 -->
      <defs>
       <path d="
M37.7969 64.3125
L12.8906 25.3906
L37.7969 25.3906
z

M35.2031 72.9062
L47.6094 72.9062
L47.6094 25.3906
L58.0156 25.3906
L58.0156 17.1875
L47.6094 17.1875
L47.6094 0
L37.7969 0
L37.7969 17.1875
L4.89062 17.1875
L4.89062 26.7031
z
" id="BitstreamVeraSans-Roman-34"/>
      </defs>
      <g transform="translate(224.621062197 412.295122041)scale(0.1 -0.1)">
       <use xlink:href="#BitstreamVeraSans-Roman-34"/>
       <use x="63.623046875" xlink:href="#BitstreamVeraSans-Roman-65"/>
       <use x="125.146484375" xlink:href="#BitstreamVeraSans-Roman-37"/>
      </g>
     </g>
    </g>
    <g id="xtick_4">
     <g id="line2d_5">
      <defs>
       <path d="
M0 0
L0 -4" id="macfa92c2db"/>
      </defs>
      <g>
       <use style="stroke:#000000;stroke-linecap:butt;stroke-width:0.5;" x="337.297218295" xlink:href="#macfa92c2db" y="401.004497041"/>
      </g>
     </g>
     <g id="text_3">
      <!-- 6e7 -->
      <defs>
       <path d="
M33.0156 40.375
Q26.375 40.375 22.4844 35.8281
Q18.6094 31.2969 18.6094 23.3906
Q18.6094 15.5312 22.4844 10.9531
Q26.375 6.39062 33.0156 6.39062
Q39.6562 6.39062 43.5312 10.9531
Q47.4062 15.5312 47.4062 23.3906
Q47.4062 31.2969 43.5312 35.8281
Q39.6562 40.375 33.0156 40.375
M52.5938 71.2969
L52.5938 62.3125
Q48.875 64.0625 45.0938 64.9844
Q41.3125 65.9219 37.5938 65.9219
Q27.8281 65.9219 22.6719 59.3281
Q17.5312 52.7344 16.7969 39.4062
Q19.6719 43.6562 24.0156 45.9219
Q28.375 48.1875 33.5938 48.1875
Q44.5781 48.1875 50.9531 41.5156
Q57.3281 34.8594 57.3281 23.3906
Q57.3281 12.1562 50.6875 5.35938
Q44.0469 -1.42188 33.0156 -1.42188
Q20.3594 -1.42188 13.6719 8.26562
Q6.98438 17.9688 6.98438 36.375
Q6.98438 53.6562 15.1875 63.9375
Q23.3906 74.2188 37.2031 74.2188
Q40.9219 74.2188 44.7031 73.4844
Q48.4844 72.75 52.5938 71.2969" id="BitstreamVeraSans-Roman-36"/>
      </defs>
      <g transform="translate(328.634718295 412.426372041)scale(0.1 -0.1)">
       <use xlink:href="#BitstreamVeraSans-Roman-36"/>
       <use x="63.623046875" xlink:href="#BitstreamVeraSans-Roman-65"/>
       <use x="125.146484375" xlink:href="#BitstreamVeraSans-Roman-37"/>
      </g>
     </g>
    </g>
    <g id="xtick_5">
     <g id="line2d_6">
      <defs>
       <path d="
M0 0
L0 -4" id="macfa92c2db"/>
      </defs>
      <g>
       <use style="stroke:#000000;stroke-linecap:butt;stroke-width:0.5;" x="441.206186893" xlink:href="#macfa92c2db" y="401.004497041"/>
      </g>
     </g>
     <g id="text_4">
      <!-- 8e7 -->
      <defs>
       <path d="
M31.7812 34.625
Q24.75 34.625 20.7188 30.8594
Q16.7031 27.0938 16.7031 20.5156
Q16.7031 13.9219 20.7188 10.1562
Q24.75 6.39062 31.7812 6.39062
Q38.8125 6.39062 42.8594 10.1719
Q46.9219 13.9688 46.9219 20.5156
Q46.9219 27.0938 42.8906 30.8594
Q38.875 34.625 31.7812 34.625
M21.9219 38.8125
Q15.5781 40.375 12.0312 44.7188
Q8.5 49.0781 8.5 55.3281
Q8.5 64.0625 14.7188 69.1406
Q20.9531 74.2188 31.7812 74.2188
Q42.6719 74.2188 48.875 69.1406
Q55.0781 64.0625 55.0781 55.3281
Q55.0781 49.0781 51.5312 44.7188
Q48 40.375 41.7031 38.8125
Q48.8281 37.1562 52.7969 32.3125
Q56.7812 27.4844 56.7812 20.5156
Q56.7812 9.90625 50.3125 4.23438
Q43.8438 -1.42188 31.7812 -1.42188
Q19.7344 -1.42188 13.25 4.23438
Q6.78125 9.90625 6.78125 20.5156
Q6.78125 27.4844 10.7812 32.3125
Q14.7969 37.1562 21.9219 38.8125
M18.3125 54.3906
Q18.3125 48.7344 21.8438 45.5625
Q25.3906 42.3906 31.7812 42.3906
Q38.1406 42.3906 41.7188 45.5625
Q45.3125 48.7344 45.3125 54.3906
Q45.3125 60.0625 41.7188 63.2344
Q38.1406 66.4062 31.7812 66.4062
Q25.3906 66.4062 21.8438 63.2344
Q18.3125 60.0625 18.3125 54.3906" id="BitstreamVeraSans-Roman-38"/>
      </defs>
      <g transform="translate(432.533530643 412.426372041)scale(0.1 -0.1)">
       <use xlink:href="#BitstreamVeraSans-Roman-38"/>
       <use x="63.623046875" xlink:href="#BitstreamVeraSans-Roman-65"/>
       <use x="125.146484375" xlink:href="#BitstreamVeraSans-Roman-37"/>
      </g>
     </g>
    </g>
    <g id="xtick_6">
     <g id="line2d_7">
      <defs>
       <path d="
M0 0
L0 -4" id="macfa92c2db"/>
      </defs>
      <g>
       <use style="stroke:#000000;stroke-linecap:butt;stroke-width:0.5;" x="545.115155491" xlink:href="#macfa92c2db" y="401.004497041"/>
      </g>
     </g>
     <g id="text_5">
      <!-- 1e8 -->
      <defs>
       <path d="
M12.4062 8.29688
L28.5156 8.29688
L28.5156 63.9219
L10.9844 60.4062
L10.9844 69.3906
L28.4219 72.9062
L38.2812 72.9062
L38.2812 8.29688
L54.3906 8.29688
L54.3906 0
L12.4062 0
z
" id="BitstreamVeraSans-Roman-31"/>
      </defs>
      <g transform="translate(536.567499241 412.426372041)scale(0.1 -0.1)">
       <use xlink:href="#BitstreamVeraSans-Roman-31"/>
       <use x="63.623046875" xlink:href="#BitstreamVeraSans-Roman-65"/>
       <use x="125.146484375" xlink:href="#BitstreamVeraSans-Roman-38"/>
      </g>
     </g>
    </g>
    <g id="xtick_7">
     <g id="line2d_8">
      <defs>
       <path d="
M0 0
L0 -2" id="m20327d5932"/>
      </defs>
      <g>
       <use style="stroke:#000000;stroke-linecap:butt;stroke-width:0.5;" x="51.5475546496" xlink:href="#m20327d5932" y="401.004497041"/>
      </g>
     </g>
    </g>
    <g id="xtick_8">
     <g id="line2d_9">
      <defs>
       <path d="
M0 0
L0 -2" id="m20327d5932"/>
      </defs>
      <g>
       <use style="stroke:#000000;stroke-linecap:butt;stroke-width:0.5;" x="77.5247967991" xlink:href="#m20327d5932" y="401.004497041"/>
      </g>
     </g>
    </g>
    <g id="xtick_9">
     <g id="line2d_10">
      <defs>
       <path d="
M0 0
L0 -2" id="m20327d5932"/>
      </defs>
      <g>
       <use style="stroke:#000000;stroke-linecap:butt;stroke-width:0.5;" x="103.502038949" xlink:href="#m20327d5932" y="401.004497041"/>
      </g>
     </g>
    </g>
    <g id="xtick_10">
     <g id="line2d_11">
      <defs>
       <path d="
M0 0
L0 -2" id="m20327d5932"/>
      </defs>
      <g>
       <use style="stroke:#000000;stroke-linecap:butt;stroke-width:0.5;" x="155.456523248" xlink:href="#m20327d5932" y="401.004497041"/>
      </g>
     </g>
    </g>
    <g id="xtick_11">
     <g id="line2d_12">
      <defs>
       <path d="
M0 0
L0 -2" id="m20327d5932"/>
      </defs>
      <g>
       <use style="stroke:#000000;stroke-linecap:butt;stroke-width:0.5;" x="181.433765397" xlink:href="#m20327d5932" y="401.004497041"/>
      </g>
     </g>
    </g>
    <g id="xtick_12">
     <g id="line2d_13">
      <defs>
       <path d="
M0 0
L0 -2" id="m20327d5932"/>
      </defs>
      <g>
       <use style="stroke:#000000;stroke-linecap:butt;stroke-width:0.5;" x="207.411007547" xlink:href="#m20327d5932" y="401.004497041"/>
      </g>
     </g>
    </g>
    <g id="xtick_13">
     <g id="line2d_14">
      <defs>
       <path d="
M0 0
L0 -2" id="m20327d5932"/>
      </defs>
      <g>
       <use style="stroke:#000000;stroke-linecap:butt;stroke-width:0.5;" x="259.365491846" xlink:href="#m20327d5932" y="401.004497041"/>
      </g>
     </g>
    </g>
    <g id="xtick_14">
     <g id="line2d_15">
      <defs>
       <path d="
M0 0
L0 -2" id="m20327d5932"/>
      </defs>
      <g>
       <use style="stroke:#000000;stroke-linecap:butt;stroke-width:0.5;" x="285.342733996" xlink:href="#m20327d5932" y="401.004497041"/>
      </g>
     </g>
    </g>
    <g id="xtick_15">
     <g id="line2d_16">
      <defs>
       <path d="
M0 0
L0 -2" id="m20327d5932"/>
      </defs>
      <g>
       <use style="stroke:#000000;stroke-linecap:butt;stroke-width:0.5;" x="311.319976145" xlink:href="#m20327d5932" y="401.004497041"/>
      </g>
     </g>
    </g>
    <g id="xtick_16">
     <g id="line2d_17">
      <defs>
       <path d="
M0 0
L0 -2" id="m20327d5932"/>
      </defs>
      <g>
       <use style="stroke:#000000;stroke-linecap:butt;stroke-width:0.5;" x="363.274460444" xlink:href="#m20327d5932" y="401.004497041"/>
      </g>
     </g>
    </g>
    <g id="xtick_17">
     <g id="line2d_18">
      <defs>
       <path d="
M0 0
L0 -2" id="m20327d5932"/>
      </defs>
      <g>
       <use style="stroke:#000000;stroke-linecap:butt;stroke-width:0.5;" x="389.251702594" xlink:href="#m20327d5932" y="401.004497041"/>
      </g>
     </g>
    </g>
    <g id="xtick_18">
     <g id="line2d_19">
      <defs>
       <path d="
M0 0
L0 -2" id="m20327d5932"/>
      </defs>
      <g>
       <use style="stroke:#000000;stroke-linecap:butt;stroke-width:0.5;" x="415.228944744" xlink:href="#m20327d5932" y="401.004497041"/>
      </g>
     </g>
    </g>
    <g id="xtick_19">
     <g id="line2d_20">
      <defs>
       <path d="
M0 0
L0 -2" id="m20327d5932"/>
      </defs>
      <g>
       <use style="stroke:#000000;stroke-linecap:butt;stroke-width:0.5;" x="467.183429043" xlink:href="#m20327d5932" y="401.004497041"/>
      </g>
     </g>
    </g>
    <g id="xtick_20">
     <g id="line2d_21">
      <defs>
       <path d="
M0 0
L0 -2" id="m20327d5932"/>
      </defs>
      <g>
       <use style="stroke:#000000;stroke-linecap:butt;stroke-width:0.5;" x="493.160671192" xlink:href="#m20327d5932" y="401.004497041"/>
      </g>
     </g>
    </g>
    <g id="xtick_21">
     <g id="line2d_22">
      <defs>
       <path d="
M0 0
L0 -2" id="m20327d5932"/>
      </defs>
      <g>
       <use style="stroke:#000000;stroke-linecap:butt;stroke-width:0.5;" x="519.137913342" xlink:href="#m20327d5932" y="401.004497041"/>
      </g>
     </g>
    </g>
   </g>
   <g id="matplotlib.axis_2">
    <g id="ytick_1">
     <g id="line2d_23">
      <defs>
       <path d="
M0 0
L4 0" id="m3502574d3a"/>
      </defs>
      <g>
       <use style="stroke:#000000;stroke-linecap:butt;stroke-width:0.5;" x="25.5703125" xlink:href="#m3502574d3a" y="401.004497041"/>
      </g>
     </g>
    </g>
    <g id="ytick_2">
     <g id="line2d_24">
      <defs>
       <path d="
M0 0
L4 0" id="m3502574d3a"/>
      </defs>
      <g>
       <use style="stroke:#000000;stroke-linecap:butt;stroke-width:0.5;" x="25.5703125" xlink:href="#m3502574d3a" y="298.801978426"/>
      </g>
     </g>
     <g id="text_6">
      <!-- 0.5 -->
      <defs>
       <path d="
M31.7812 66.4062
Q24.1719 66.4062 20.3281 58.9062
Q16.5 51.4219 16.5 36.375
Q16.5 21.3906 20.3281 13.8906
Q24.1719 6.39062 31.7812 6.39062
Q39.4531 6.39062 43.2812 13.8906
Q47.125 21.3906 47.125 36.375
Q47.125 51.4219 43.2812 58.9062
Q39.4531 66.4062 31.7812 66.4062
M31.7812 74.2188
Q44.0469 74.2188 50.5156 64.5156
Q56.9844 54.8281 56.9844 36.375
Q56.9844 17.9688 50.5156 8.26562
Q44.0469 -1.42188 31.7812 -1.42188
Q19.5312 -1.42188 13.0625 8.26562
Q6.59375 17.9688 6.59375 36.375
Q6.59375 54.8281 13.0625 64.5156
Q19.5312 74.2188 31.7812 74.2188" id="BitstreamVeraSans-Roman-30"/>
       <path d="
M10.6875 12.4062
L21 12.4062
L21 0
L10.6875 0
z
" id="BitstreamVeraSans-Roman-2e"/>
       <path d="
M10.7969 72.9062
L49.5156 72.9062
L49.5156 64.5938
L19.8281 64.5938
L19.8281 46.7344
Q21.9688 47.4688 24.1094 47.8281
Q26.2656 48.1875 28.4219 48.1875
Q40.625 48.1875 47.75 41.5
Q54.8906 34.8125 54.8906 23.3906
Q54.8906 11.625 47.5625 5.09375
Q40.2344 -1.42188 26.9062 -1.42188
Q22.3125 -1.42188 17.5469 -0.640625
Q12.7969 0.140625 7.71875 1.70312
L7.71875 11.625
Q12.1094 9.23438 16.7969 8.0625
Q21.4844 6.89062 26.7031 6.89062
Q35.1562 6.89062 40.0781 11.3281
Q45.0156 15.7656 45.0156 23.3906
Q45.0156 31 40.0781 35.4375
Q35.1562 39.8906 26.7031 39.8906
Q22.75 39.8906 18.8125 39.0156
Q14.8906 38.1406 10.7969 36.2812
z
" id="BitstreamVeraSans-Roman-35"/>
      </defs>
      <g transform="translate(7.2 302.441822176)scale(0.1 -0.1)">
       <use xlink:href="#BitstreamVeraSans-Roman-30"/>
       <use x="63.623046875" xlink:href="#BitstreamVeraSans-Roman-2e"/>
       <use x="95.41015625" xlink:href="#BitstreamVeraSans-Roman-35"/>
      </g>
     </g>
    </g>
    <g id="ytick_3">
     <g id="line2d_25">
      <defs>
       <path d="
M0 0
L4 0" id="m3502574d3a"/>
      </defs>
      <g>
       <use style="stroke:#000000;stroke-linecap:butt;stroke-width:0.5;" x="25.5703125" xlink:href="#m3502574d3a" y="196.59945981"/>
      </g>
     </g>
     <g id="text_7">
      <!-- 1 -->
      <g transform="translate(17.2296875 200.24477231)scale(0.1 -0.1)">
       <use xlink:href="#BitstreamVeraSans-Roman-31"/>
      </g>
     </g>
    </g>
    <g id="ytick_4">
     <g id="line2d_26">
      <defs>
       <path d="
M0 0
L4 0" id="m3502574d3a"/>
      </defs>
      <g>
       <use style="stroke:#000000;stroke-linecap:butt;stroke-width:0.5;" x="25.5703125" xlink:href="#m3502574d3a" y="94.3969411948"/>
      </g>
     </g>
     <g id="text_8">
      <!-- 1.5 -->
      <g transform="translate(7.6390625 97.9711599448)scale(0.1 -0.1)">
       <use xlink:href="#BitstreamVeraSans-Roman-31"/>
       <use x="63.623046875" xlink:href="#BitstreamVeraSans-Roman-2e"/>
       <use x="95.41015625" xlink:href="#BitstreamVeraSans-Roman-35"/>
      </g>
     </g>
    </g>
    <g id="ytick_5">
     <g id="line2d_27">
      <defs>
       <path d="
M0 0
L2 0" id="mb65be09d11"/>
      </defs>
      <g>
       <use style="stroke:#000000;stroke-linecap:butt;stroke-width:0.5;" x="25.5703125" xlink:href="#mb65be09d11" y="380.563993318"/>
      </g>
     </g>
    </g>
    <g id="ytick_6">
     <g id="line2d_28">
      <defs>
       <path d="
M0 0
L2 0" id="mb65be09d11"/>
      </defs>
      <g>
       <use style="stroke:#000000;stroke-linecap:butt;stroke-width:0.5;" x="25.5703125" xlink:href="#mb65be09d11" y="360.123489595"/>
      </g>
     </g>
    </g>
    <g id="ytick_7">
     <g id="line2d_29">
      <defs>
       <path d="
M0 0
L2 0" id="mb65be09d11"/>
      </defs>
      <g>
       <use style="stroke:#000000;stroke-linecap:butt;stroke-width:0.5;" x="25.5703125" xlink:href="#mb65be09d11" y="339.682985872"/>
      </g>
     </g>
    </g>
    <g id="ytick_8">
     <g id="line2d_30">
      <defs>
       <path d="
M0 0
L2 0" id="mb65be09d11"/>
      </defs>
      <g>
       <use style="stroke:#000000;stroke-linecap:butt;stroke-width:0.5;" x="25.5703125" xlink:href="#mb65be09d11" y="319.242482149"/>
      </g>
     </g>
    </g>
    <g id="ytick_9">
     <g id="line2d_31">
      <defs>
       <path d="
M0 0
L2 0" id="mb65be09d11"/>
      </defs>
      <g>
       <use style="stroke:#000000;stroke-linecap:butt;stroke-width:0.5;" x="25.5703125" xlink:href="#mb65be09d11" y="298.801978426"/>
      </g>
     </g>
    </g>
    <g id="ytick_10">
     <g id="line2d_32">
      <defs>
       <path d="
M0 0
L2 0" id="mb65be09d11"/>
      </defs>
      <g>
       <use style="stroke:#000000;stroke-linecap:butt;stroke-width:0.5;" x="25.5703125" xlink:href="#mb65be09d11" y="278.361474703"/>
      </g>
     </g>
    </g>
    <g id="ytick_11">
     <g id="line2d_33">
      <defs>
       <path d="
M0 0
L2 0" id="mb65be09d11"/>
      </defs>
      <g>
       <use style="stroke:#000000;stroke-linecap:butt;stroke-width:0.5;" x="25.5703125" xlink:href="#mb65be09d11" y="257.92097098"/>
      </g>
     </g>
    </g>
    <g id="ytick_12">
     <g id="line2d_34">
      <defs>
       <path d="
M0 0
L2 0" id="mb65be09d11"/>
      </defs>
      <g>
       <use style="stroke:#000000;stroke-linecap:butt;stroke-width:0.5;" x="25.5703125" xlink:href="#mb65be09d11" y="237.480467257"/>
      </g>
     </g>
    </g>
    <g id="ytick_13">
     <g id="line2d_35">
      <defs>
       <path d="
M0 0
L2 0" id="mb65be09d11"/>
      </defs>
      <g>
       <use style="stroke:#000000;stroke-linecap:butt;stroke-width:0.5;" x="25.5703125" xlink:href="#mb65be09d11" y="217.039963533"/>
      </g>
     </g>
    </g>
    <g id="ytick_14">
     <g id="line2d_36">
      <defs>
       <path d="
M0 0
L2 0" id="mb65be09d11"/>
      </defs>
      <g>
       <use style="stroke:#000000;stroke-linecap:butt;stroke-width:0.5;" x="25.5703125" xlink:href="#mb65be09d11" y="196.59945981"/>
      </g>
     </g>
    </g>
    <g id="ytick_15">
     <g id="line2d_37">
      <defs>
       <path d="
M0 0
L2 0" id="mb65be09d11"/>
      </defs>
      <g>
       <use style="stroke:#000000;stroke-linecap:butt;stroke-width:0.5;" x="25.5703125" xlink:href="#mb65be09d11" y="176.158956087"/>
      </g>
     </g>
    </g>
    <g id="ytick_16">
     <g id="line2d_38">
      <defs>
       <path d="
M0 0
L2 0" id="mb65be09d11"/>
      </defs>
      <g>
       <use style="stroke:#000000;stroke-linecap:butt;stroke-width:0.5;" x="25.5703125" xlink:href="#mb65be09d11" y="155.718452364"/>
      </g>
     </g>
    </g>
    <g id="ytick_17">
     <g id="line2d_39">
      <defs>
       <path d="
M0 0
L2 0" id="mb65be09d11"/>
      </defs>
      <g>
       <use style="stroke:#000000;stroke-linecap:butt;stroke-width:0.5;" x="25.5703125" xlink:href="#mb65be09d11" y="135.277948641"/>
      </g>
     </g>
    </g>
    <g id="ytick_18">
     <g id="line2d_40">
      <defs>
       <path d="
M0 0
L2 0" id="mb65be09d11"/>
      </defs>
      <g>
       <use style="stroke:#000000;stroke-linecap:butt;stroke-width:0.5;" x="25.5703125" xlink:href="#mb65be09d11" y="114.837444918"/>
      </g>
     </g>
    </g>
    <g id="ytick_19">
     <g id="line2d_41">
      <defs>
       <path d="
M0 0
L2 0" id="mb65be09d11"/>
      </defs>
      <g>
       <use style="stroke:#000000;stroke-linecap:butt;stroke-width:0.5;" x="25.5703125" xlink:href="#mb65be09d11" y="94.3969411948"/>
      </g>
     </g>
    </g>
    <g id="ytick_20">
     <g id="line2d_42">
      <defs>
       <path d="
M0 0
L2 0" id="mb65be09d11"/>
      </defs>
      <g>
       <use style="stroke:#000000;stroke-linecap:butt;stroke-width:0.5;" x="25.5703125" xlink:href="#mb65be09d11" y="73.9564374717"/>
      </g>
     </g>
    </g>
    <g id="ytick_21">
     <g id="line2d_43">
      <defs>
       <path d="
M0 0
L2 0" id="mb65be09d11"/>
      </defs>
      <g>
       <use style="stroke:#000000;stroke-linecap:butt;stroke-width:0.5;" x="25.5703125" xlink:href="#mb65be09d11" y="53.5159337486"/>
      </g>
     </g>
    </g>
    <g id="ytick_22">
     <g id="line2d_44">
      <defs>
       <path d="
M0 0
L2 0" id="mb65be09d11"/>
      </defs>
      <g>
       <use style="stroke:#000000;stroke-linecap:butt;stroke-width:0.5;" x="25.5703125" xlink:href="#mb65be09d11" y="33.0754300255"/>
      </g>
     </g>
    </g>
    <g id="ytick_23">
     <g id="line2d_45">
      <defs>
       <path d="
M0 0
L2 0" id="mb65be09d11"/>
      </defs>
      <g>
       <use style="stroke:#000000;stroke-linecap:butt;stroke-width:0.5;" x="25.5703125" xlink:href="#mb65be09d11" y="12.6349263024"/>
      </g>
     </g>
    </g>
   </g>
   <g id="patch_3">
    <path d="
M15.18 401.004
L555.476 401.004" style="fill:none;stroke:#000000;stroke-width:0.8;"/>
   </g>
   <g id="patch_4">
    <path d="
M25.5703 408.726
L25.5703 7.2" style="fill:none;stroke:#000000;stroke-width:0.8;"/>
   </g>
  </g>
 </g>
 <defs>
  <clipPath id="pbdfec9549d">
   <rect height="401.526153846" width="540.295929948" x="15.1800165457" y="7.2"/>
  </clipPath>
 </defs>
</svg>
