<?xml version="1.0" encoding="utf-8" standalone="no"?>
<!DOCTYPE svg PUBLIC "-//W3C//DTD SVG 1.1//EN"
  "http://www.w3.org/Graphics/SVG/1.1/DTD/svg11.dtd">
<!-- Created with matplotlib (http://matplotlib.sourceforge.net/) -->
<svg height="419pt" version="1.1" viewBox="0 0 562 419" width="562pt" xmlns="http://www.w3.org/2000/svg" xmlns:xlink="http://www.w3.org/1999/xlink">
 <defs>
  <style type="text/css">
*{stroke-linecap:square;stroke-linejoin:round;}
  </style>
 </defs>
 <g id="figure_1">
  <g id="patch_1">
   <path d="
M4.44089e-16 419.769
L562.63 419.769
L562.63 0
L4.44089e-16 0
z
" style="fill:#ffffff;"/>
  </g>
  <g id="axes_1">
   <g id="patch_2">
    <path d="
M15.4995 408.726
L555.43 408.726
L555.43 7.2
L15.4995 7.2
z
" style="fill:#ffffff;"/>
   </g>
   <g id="line2d_1">
    <path clip-path="url(#pc4ff94fdb4)" d="
M25.8828 401.004
L25.9312 401.004
L25.9887 58.1214
L26.0502 58.1214
L26.1127 67.8065
L26.1778 67.8065
L26.2449 90.9887
L26.3111 90.9887
L26.3792 121.805
L26.449 121.805
L26.5188 134.605
L26.5894 134.605
L26.6602 129.54
L26.732 129.54
L26.8048 119.924
L26.8769 119.924
L26.9501 117.104
L27.0234 117.104
L27.0971 111.311
L27.1711 111.311
L27.2465 104.857
L27.3202 104.857
L27.396 98.4433
L27.4722 98.4433
L27.5467 95.8589
L27.6224 95.8589
L27.6987 93.7516
L27.7755 93.7516
L27.8531 90.1311
L27.9291 90.1311
L28.0083 84.5377
L28.085 84.5377
L28.162 79.8907
L28.2404 79.8907
L28.3192 74.7912
L28.396 74.7912
L28.4744 68.937
L28.5533 68.937
L28.6311 64.14
L28.7112 64.14
L28.7908 59.8663
L28.8703 59.8663
L28.9482 55.1841
L29.0281 55.1841
L29.107 51.4168
L29.1881 51.4168
L29.2698 49.213
L29.3494 49.213
L29.4302 47.4654
L29.5096 47.4654
L29.5895 45.2932
L29.6706 45.2932
L29.7529 44.2315
L29.8339 44.2315
L29.9145 42.9828
L29.9951 42.9828
L30.076 41.2638
L30.157 41.2638
L30.2386 40.0965
L30.3215 40.0965
L30.4014 39.835
L30.4835 39.835
L30.5661 40.2156
L30.8957 40.1358
L30.8957 39.954
L30.9794 39.9851
L31.3095 39.9129
L31.3947 39.3247
L31.478 39.3247
L31.5606 38.3063
L31.6422 38.3063
L31.726 37.2109
L31.8088 37.2109
L31.8929 36.2154
L31.9754 36.2154
L32.0566 35.537
L32.142 35.537
L32.2255 34.7887
L32.3118 34.7887
L32.3957 33.9628
L32.478 33.9628
L32.5624 33.525
L32.7314 33.4152
L32.8168 32.8514
L32.9015 32.8514
L32.986 32.0934
L33.0702 32.0934
L33.1523 31.5886
L33.2403 31.5886
L33.3242 30.9558
L33.4088 30.9558
L33.4921 30.4281
L33.5775 30.4281
L33.6621 29.546
L33.7455 29.546
L33.8322 28.7341
L33.9189 28.7341
L34.0039 27.7639
L34.0897 27.7639
L34.1769 27.1176
L34.2624 27.1176
L34.3467 26.9591
L34.6028 27.0162
L34.69 27.4177
L34.7753 27.4177
L34.8621 27.9335
L34.9495 27.9335
L35.0361 28.1539
L35.1214 28.1539
L35.2069 28.4881
L35.2926 28.4881
L35.378 28.971
L35.4652 28.971
L35.5504 29.3107
L35.6358 29.3107
L35.722 29.7558
L35.8092 29.7558
L35.8942 30.0044
L35.9808 30.0044
L36.0677 30.2737
L36.1576 30.2737
L36.2435 30.5813
L36.3285 30.5813
L36.4144 31.0006
L36.5013 31.0006
L36.589 31.4152
L36.6767 31.4152
L36.7639 31.6398
L36.8509 31.6398
L36.9378 32.0508
L37.0238 32.0508
L37.1104 32.3256
L37.1981 32.3256
L37.2861 32.6593
L37.3738 32.6593
L37.4621 33.1655
L37.5503 33.1655
L37.6368 33.5516
L37.8124 33.6035
L37.9001 33.7437
L38.0777 33.834
L38.1646 33.9783
L38.3402 34.0069
L38.4289 34.148
L39.0449 34.2208
L39.1353 34.2801
L39.3979 34.3842
L39.4868 34.569
L39.6628 34.6376
L39.7522 34.779
L40.0156 34.8882
L40.1071 35.0163
L40.2837 35.0626
L40.3744 35.2562
L40.6354 35.3464
L40.7247 35.4559
L40.9935 35.3506
L41.0833 35.1964
L41.263 35.1367
L41.3522 35.0364
L41.5286 34.9333
L41.6197 34.6774
L41.7097 34.6774
L41.8012 34.2778
L41.888 34.2778
L41.9776 33.877
L42.0663 33.877
L42.1551 33.5569
L42.2459 33.5569
L42.3348 33.2529
L42.4237 33.2529
L42.5101 32.9385
L42.5996 32.9385
L42.6876 32.5963
L42.7787 32.5963
L42.8682 32.214
L42.9576 32.214
L43.0487 31.7765
L43.1385 31.7765
L43.2284 31.3633
L43.3202 31.3633
L43.4096 31.0421
L43.4996 31.0421
L43.5881 30.753
L43.6773 30.753
L43.7651 30.5202
L44.0415 30.4156
L44.132 30.3683
L45.125 30.275
L45.2157 30.1484
L45.6693 30.2082
L45.7588 30.3217
L46.3919 30.2261
L46.4861 30.1652
L46.6698 30.0872
L46.7609 29.8949
L46.9395 29.7882
L47.0308 29.5749
L47.2119 29.4838
L47.3049 29.4183
L47.5789 29.3485
L47.6686 29.2354
L47.8515 29.1907
L47.9442 29.0357
L48.0343 29.0357
L48.1273 28.8112
L48.3103 28.7178
L48.4025 28.5131
L48.4956 28.5131
L48.5872 28.2802
L48.6786 28.2802
L48.7722 28.0492
L48.9498 27.9695
L49.0405 27.7789
L49.2221 27.6806
L49.3153 27.4375
L49.4079 27.4375
L49.501 27.1705
L49.6828 27.0792
L49.7757 26.8606
L49.8656 26.8606
L49.9584 26.5639
L50.0514 26.5639
L50.1434 26.2581
L50.233 26.2581
L50.3258 26.0065
L50.6017 25.9051
L50.6943 25.8589
L51.5208 25.9631
L51.6119 26.0482
L52.0717 26.1587
L52.1653 26.278
L52.3491 26.3412
L52.4429 26.4723
L52.7202 26.5572
L52.8138 26.6438
L52.9974 26.7096
L53.0904 26.8463
L53.2733 26.9536
L53.3671 27.1255
L53.6434 27.2253
L53.7377 27.2908
L54.109 27.3749
L54.2008 27.4807
L54.855 27.5838
L54.9479 27.6479
L55.2284 27.745
L55.3233 27.9193
L55.5071 28.0189
L55.599 28.271
L55.6936 28.271
L55.7867 28.5265
L55.9762 28.6348
L56.0691 28.8167
L56.2553 28.9048
L56.3498 29.1404
L56.5331 29.2415
L56.6239 29.3655
L57.1823 29.4734
L57.2799 29.4994
L57.7476 29.57
L57.8396 29.6947
L58.029 29.7724
L58.1211 29.9014
L58.3102 29.9552
L58.4025 30.0797
L58.5859 30.1607
L58.6797 30.3095
L58.9622 30.413
L59.059 30.438
L60.2775 30.5226
L60.3719 30.5688
L61.2191 30.4735
L61.3125 30.3792
L61.5921 30.2928
L61.6846 30.2203
L62.0599 30.128
L62.156 30.0512
L63.477 30.1361
L63.5716 30.2415
L63.7587 30.2927
L63.8552 30.4557
L64.0453 30.5466
L64.1385 30.7686
L64.2319 30.7686
L64.3287 31.0157
L64.4235 31.0157
L64.5179 31.2841
L64.6116 31.2841
L64.7071 31.582
L64.8044 31.582
L64.8993 31.8684
L64.9947 31.8684
L65.0877 32.1676
L65.183 32.1676
L65.2792 32.5033
L65.3713 32.5033
L65.4675 32.8303
L65.5613 32.8303
L65.6552 33.15
L65.7503 33.15
L65.8439 33.4739
L65.9399 33.4739
L66.035 33.7892
L66.1316 33.7892
L66.2276 34.0935
L66.3235 34.0935
L66.4173 34.3917
L66.5119 34.3917
L66.6063 34.7228
L66.7 34.7228
L66.7939 35.0238
L66.8886 35.0238
L66.9842 35.3119
L67.0789 35.3119
L67.1738 35.5385
L67.3636 35.6405
L67.4604 35.8434
L67.652 35.9261
L67.7453 36.0962
L67.9397 36.2
L68.0348 36.409
L68.1294 36.409
L68.2248 36.6303
L68.4145 36.735
L68.509 36.9213
L68.6979 37.0091
L68.7958 37.2048
L68.9849 37.2937
L69.0795 37.457
L69.2699 37.5336
L69.3671 37.6914
L69.5581 37.7656
L69.6544 37.9146
L69.8476 37.9942
L69.9409 38.1416
L70.1309 38.2215
L70.2247 38.3685
L70.4136 38.428
L70.5101 38.5652
L70.7007 38.6273
L70.7964 38.7787
L70.9866 38.8468
L71.0813 38.9768
L71.271 39.0403
L71.3666 39.1606
L71.5565 39.2202
L71.6528 39.3617
L71.8455 39.4385
L71.9437 39.5953
L72.1354 39.6648
L72.2279 39.8217
L72.4221 39.9107
L72.5174 40.0596
L72.7112 40.1285
L72.8071 40.2815
L72.9998 40.3487
L73.0949 40.5042
L73.2893 40.5943
L73.3829 40.7982
L73.5746 40.892
L73.671 41.0656
L73.8598 41.1477
L73.954 41.2989
L74.1479 41.3754
L74.2428 41.5318
L74.4343 41.6155
L74.5299 41.7619
L74.7233 41.8332
L74.8211 41.9816
L75.015 42.061
L75.1111 42.2284
L75.3034 42.3126
L75.3995 42.4833
L75.592 42.569
L75.6839 42.7415
L75.8775 42.8306
L75.9734 43.0013
L76.165 43.0878
L76.2634 43.3013
L76.3603 43.3013
L76.4543 43.5373
L76.5511 43.5373
L76.6491 43.7717
L76.8413 43.8828
L76.9354 44.0578
L77.1317 44.1307
L77.2286 44.2654
L77.4232 44.3319
L77.5187 44.469
L77.7144 44.5423
L77.8128 44.6851
L78.0039 44.7488
L78.0999 44.8949
L78.2918 44.9585
L78.3883 45.0895
L78.5802 45.1561
L78.678 45.3083
L78.8742 45.4006
L78.971 45.5668
L79.1627 45.6484
L79.2586 45.8151
L79.4532 45.9012
L79.5493 46.0802
L79.7421 46.1741
L79.84 46.3577
L80.0305 46.4479
L80.1262 46.6365
L80.3195 46.7354
L80.4148 46.9079
L80.6097 47.0002
L80.7049 47.1759
L80.898 47.2553
L80.9959 47.4267
L81.1879 47.5217
L81.2853 47.7119
L81.4752 47.8009
L81.5712 47.9803
L81.7665 48.0733
L81.8649 48.2457
L82.06 48.3286
L82.1572 48.4658
L82.3491 48.5342
L82.448 48.6916
L82.6396 48.7685
L82.7343 48.9298
L82.9297 49.0191
L83.0274 49.2
L83.2232 49.2936
L83.3181 49.4802
L83.5104 49.5827
L83.6068 49.7731
L83.8032 49.8662
L83.8989 50.0392
L84.0922 50.1289
L84.1915 50.3339
L84.2878 50.3339
L84.3849 50.5645
L84.4838 50.5645
L84.5818 50.8036
L84.7766 50.9069
L84.873 51.1386
L84.9718 51.1386
L85.0687 51.3967
L85.1664 51.3967
L85.2647 51.6488
L85.3605 51.6488
L85.455 51.8975
L85.5552 51.8975
L85.6522 52.1379
L85.8438 52.2489
L85.9405 52.4593
L86.1355 52.558
L86.2282 52.7237
L86.4244 52.7977
L86.5242 52.9492
L86.718 53.0222
L86.8154 53.1642
L87.0121 53.2388
L87.1075 53.3859
L87.3006 53.4553
L87.4025 53.5902
L87.5947 53.6608
L87.6923 53.7941
L87.8873 53.864
L87.9815 54.0076
L88.1772 54.0886
L88.2753 54.2249
L88.4726 54.2891
L88.5687 54.4195
L88.7662 54.4876
L88.8639 54.6107
L89.058 54.6731
L89.1562 54.8278
L89.3511 54.9059
L89.4482 55.0619
L89.6441 55.1403
L89.7411 55.3026
L89.9354 55.3826
L90.0336 55.5564
L90.2261 55.6324
L90.3218 55.7927
L90.5176 55.8749
L90.6162 56.0446
L90.8151 56.1262
L90.9089 56.3011
L91.108 56.3936
L91.2062 56.5634
L91.3991 56.6384
L91.4978 56.796
L91.6957 56.8783
L91.7925 57.0487
L91.986 57.1295
L92.082 57.295
L92.2769 57.3757
L92.3734 57.546
L92.5703 57.634
L92.667 57.7959
L92.8652 57.8714
L92.9642 58.013
L93.1623 58.0764
L93.2612 58.1906
L93.556 58.2875
L93.6528 58.3713
L93.9522 58.4728
L94.0503 58.5643
L94.3447 58.6562
L94.4411 58.7531
L94.7376 58.85
L94.8336 58.941
L95.1287 59.0392
L95.2278 59.1457
L95.5224 59.2383
L95.6209 59.3274
L95.9173 59.4218
L96.016 59.5039
L96.3131 59.5844
L96.4111 59.6817
L96.6046 59.7417
L96.7033 59.8676
L96.8969 59.9371
L96.9955 60.0573
L97.1935 60.116
L97.2897 60.2319
L97.4863 60.293
L97.5851 60.4066
L97.8799 60.5142
L97.9763 60.6266
L98.1699 60.6835
L98.2691 60.7949
L98.5702 60.8844
L98.67 60.9672
L98.9649 61.0474
L99.0626 61.1178
L99.4565 61.2197
L99.556 61.2826
L99.9495 61.3846
L100.047 61.4509
L100.343 61.5382
L100.437 61.6245
L100.732 61.7046
L100.832 61.7752
L101.426 61.8784
L101.524 61.913
L102.607 62.0234
L102.707 62.0433
L105.881 62.1537
L105.98 62.1896
L108.45 62.0847
L108.55 62.0616
L109.345 61.9514
L109.446 61.9253
L113.621 62.033
L113.72 62.0585
L114.31 62.1521
L114.412 62.2035
L114.91 62.3136
L115.012 62.3779
L115.413 62.4692
L115.513 62.5362
L115.907 62.6365
L116.007 62.6986
L116.403 62.7855
L116.503 62.8439
L116.899 62.9341
L116.997 62.9885
L117.495 63.0938
L117.599 63.1358
L118.2 63.2307
L118.298 63.2741
L118.799 63.3709
L118.902 63.4155
L122.203 63.5157
L122.303 63.5429
L123.003 63.6445
L123.104 63.6853
L123.604 63.7888
L123.702 63.8479
L124.204 63.9418
L124.303 63.9941
L124.705 64.0866
L124.805 64.149
L125.209 64.2404
L125.309 64.2847
L125.912 64.388
L126.014 64.4475
L126.412 64.5344
L126.513 64.6047
L126.908 64.7051
L127.011 64.773
L127.419 64.8829
L127.521 64.9646
L127.821 65.0572
L127.923 65.1505
L128.222 65.2303
L128.325 65.3158
L128.722 65.4216
L128.822 65.4904
L129.227 65.5965
L129.325 65.6619
L129.826 65.7718
L129.926 65.8154
L130.429 65.9077
L130.531 65.9554
L131.035 66.0473
L131.137 66.0937
L131.541 66.1801
L131.639 66.2447
L132.048 66.3339
L132.147 66.3802
L132.75 66.4865
L132.85 66.5194
L133.351 66.6165
L133.45 66.6757
L133.854 66.765
L133.956 66.8259
L134.462 66.9334
L134.562 66.9846
L135.064 67.0723
L135.166 67.1206
L135.777 67.2259
L135.876 67.2627
L136.784 67.3716
L136.885 67.407
L137.693 67.5143
L137.794 67.5435
L138.8 67.6464
L138.901 67.6669
L147.206 67.559
L147.309 67.5331
L148.631 67.4254
L148.732 67.4025
L149.856 67.2922
L149.956 67.2651
L150.766 67.1661
L150.867 67.1292
L151.58 67.019
L151.68 66.9839
L152.795 66.8759
L152.899 66.8545
L153.611 66.748
L153.714 66.7105
L154.521 66.6106
L154.624 66.5837
L155.648 66.4744
L155.747 66.4468
L156.464 66.3433
L156.567 66.3145
L157.596 66.2144
L157.697 66.1903
L158.715 66.0857
L158.817 66.062
L159.936 65.9574
L160.038 65.944
L161.264 65.8352
L161.365 65.8071
L162.29 65.7024
L162.392 65.6841
L163.613 65.5736
L163.713 65.553
L164.633 65.4501
L164.738 65.4271
L165.657 65.3174
L165.76 65.2876
L166.575 65.1782
L166.678 65.145
L167.396 65.034
L167.502 64.9951
L168.422 64.8915
L168.526 64.8678
L169.342 64.768
L169.445 64.7342
L170.163 64.6283
L170.265 64.5974
L170.983 64.5014
L171.085 64.4665
L171.908 64.3573
L172.01 64.3266
L173.137 64.2207
L173.239 64.2083
L175.087 64.1037
L175.189 64.0867
L176.22 63.9923
L176.325 63.957
L177.148 63.8476
L177.251 63.8194
L178.278 63.7123
L178.379 63.6957
L179.518 63.5871
L179.62 63.5622
L180.651 63.4517
L180.754 63.4368
L181.976 63.3344
L182.076 63.3179
L183.513 63.2179
L183.619 63.1923
L184.551 63.0814
L184.652 63.0575
L186.604 62.9529
L186.71 62.9349
L188.573 62.8259
L188.676 62.8123
L207.339 62.9185
L207.441 62.9287
L209.418 63.0383
L209.525 63.0456
L213.579 63.1551
L213.686 63.1624
L215.141 63.2705
L215.243 63.2887
L217.124 63.399
L217.228 63.4091
L224.008 63.2999
L224.11 63.2936
L229.743 63.1833
L229.845 63.1758
L231.924 63.0712
L232.027 63.0564
L234.029 62.9484
L234.132 62.9403
L237.48 62.8294
L237.584 62.8163
L240.948 62.7078
L241.05 62.6986
L244.316 62.5926
L244.42 62.5812
L245.987 62.478
L246.093 62.4613
L248.512 62.3544
L248.621 62.3425
L250.411 62.2315
L250.517 62.2142
L251.773 62.1109
L251.88 62.088
L253.045 61.9771
L253.148 61.9495
L253.995 61.8466
L254.096 61.8182
L254.94 61.7077
L255.045 61.6727
L255.78 61.5638
L255.883 61.5265
L256.625 61.4252
L256.728 61.3902
L257.463 61.2798
L257.568 61.2425
L258.3 61.1325
L258.407 61.0977
L259.149 60.9997
L259.255 60.9681
L259.987 60.8662
L260.094 60.8301
L260.831 60.7209
L260.937 60.6864
L261.67 60.581
L261.774 60.545
L262.51 60.4371
L262.611 60.4029
L263.453 60.2965
L263.558 60.2683
L264.402 60.1598
L264.508 60.1217
L265.142 60.0203
L265.25 59.9763
L265.778 59.8864
L265.885 59.8422
L266.522 59.7313
L266.628 59.6869
L267.157 59.5936
L267.262 59.5488
L267.893 59.4474
L267.997 59.4115
L268.737 59.3059
L268.843 59.2712
L269.58 59.1687
L269.686 59.135
L270.327 59.043
L270.433 59.0025
L270.954 58.9131
L271.061 58.8699
L271.696 58.7689
L271.804 58.7302
L272.437 58.6266
L272.542 58.585
L273.177 58.4783
L273.286 58.4351
L273.818 58.3446
L273.924 58.2996
L274.448 58.2101
L274.553 58.1651
L275.195 58.0577
L275.3 58.014
L275.831 57.9207
L275.939 57.8746
L276.472 57.7826
L276.576 57.7353
L277.104 57.637
L277.208 57.5896
L277.738 57.4858
L277.842 57.4354
L278.375 57.3329
L278.484 57.2802
L278.909 57.1967
L279.018 57.1392
L279.544 57.0295
L279.649 56.9736
L280.073 56.8875
L280.179 56.8287
L280.603 56.7406
L280.712 56.6837
L281.134 56.5973
L281.241 56.5423
L281.767 56.4382
L281.875 56.3873
L282.4 56.2836
L282.505 56.2304
L283.03 56.1228
L283.137 56.0669
L283.663 55.96
L283.77 55.9066
L284.299 55.8007
L284.405 55.7489
L284.933 55.6427
L285.039 55.5854
L285.464 55.4988
L285.572 55.4446
L286.102 55.3441
L286.206 55.2985
L286.739 55.1996
L286.848 55.148
L287.376 55.0464
L287.483 54.996
L288.014 54.8947
L288.119 54.8421
L288.647 54.7375
L288.752 54.6847
L289.284 54.5751
L289.387 54.522
L289.916 54.4137
L290.021 54.359
L290.56 54.2496
L290.663 54.1951
L291.2 54.0942
L291.302 54.0448
L291.838 53.9463
L291.942 53.9
L292.474 53.8031
L292.578 53.7557
L293.112 53.6612
L293.217 53.6153
L293.743 53.5186
L293.847 53.4678
L294.385 53.3643
L294.491 53.3125
L295.014 53.2092
L295.119 53.1603
L295.65 53.0715
L295.758 53.0248
L296.287 52.9295
L296.393 52.8799
L296.93 52.7856
L297.034 52.7422
L297.677 52.632
L297.78 52.5893
L298.421 52.4816
L298.527 52.4381
L299.164 52.3276
L299.27 52.2834
L299.805 52.1885
L299.908 52.1401
L300.439 52.0389
L300.547 51.9848
L301.079 51.8774
L301.188 51.8206
L301.719 51.7137
L301.823 51.6623
L302.354 51.5572
L302.459 51.5046
L302.99 51.4
L303.099 51.3432
L303.635 51.234
L303.741 51.1806
L304.28 51.0738
L304.386 51.0185
L304.914 50.9097
L305.022 50.8532
L305.453 50.7679
L305.559 50.712
L306.086 50.6033
L306.191 50.5522
L306.722 50.4433
L306.832 50.3895
L307.37 50.2852
L307.476 50.2316
L308.005 50.1285
L308.115 50.0802
L308.653 49.983
L308.759 49.9341
L309.292 49.8374
L309.396 49.7895
L309.929 49.6959
L310.038 49.6493
L310.57 49.5569
L310.68 49.509
L311.213 49.416
L311.321 49.3697
L311.952 49.2612
L312.06 49.2194
L312.7 49.1208
L312.809 49.0832
L313.448 48.9903
L313.557 48.9529
L314.307 48.8419
L314.412 48.8035
L315.049 48.7095
L315.154 48.6746
L315.897 48.5748
L316.005 48.5452
L316.968 48.4419
L317.072 48.4173
L318.026 48.317
L318.133 48.293
L318.997 48.1903
L319.104 48.1576
L319.956 48.0495
L320.061 48.0212
L320.903 47.9252
L321.012 47.8939
L321.869 47.789
L321.977 47.7583
L322.724 47.6618
L322.831 47.6294
L323.573 47.5234
L323.676 47.4869
L324.325 47.3869
L324.431 47.3451
L325.072 47.2455
L325.18 47.205
L325.825 47.1104
L325.931 47.0742
L326.682 46.9656
L326.789 46.9326
L327.537 46.8348
L327.646 46.8027
L328.288 46.7076
L328.393 46.668
L329.143 46.5584
L329.249 46.5243
L329.996 46.4183
L330.102 46.3828
L330.852 46.2812
L330.957 46.2474
L331.807 46.1394
L331.914 46.1107
L332.669 46.0153
L332.776 45.9834
L333.533 45.8843
L333.639 45.8551
L334.498 45.7566
L334.604 45.7269
L335.457 45.6207
L335.567 45.5895
L336.316 45.4945
L336.423 45.4622
L337.283 45.3512
L337.388 45.3206
L338.141 45.223
L338.246 45.1922
L338.997 45.0972
L339.102 45.0644
L339.955 44.9598
L340.065 44.9324
L341.028 44.824
L341.136 44.7947
L341.986 44.6974
L342.092 44.6698
L342.948 44.5681
L343.058 44.539
L343.923 44.4391
L344.028 44.4117
L345 44.306
L345.105 44.2808
L346.077 44.1817
L346.186 44.1556
L347.15 44.0469
L347.259 44.0194
L348.117 43.9209
L348.223 43.8911
L349.081 43.7897
L349.19 43.763
L350.044 43.6608
L350.152 43.6312
L351.017 43.5294
L351.126 43.5013
L351.873 43.4053
L351.981 43.3705
L352.73 43.2647
L352.839 43.2294
L353.593 43.1265
L353.702 43.0915
L354.452 42.9925
L354.558 42.9605
L355.416 42.8597
L355.523 42.8324
L356.49 42.7263
L356.599 42.6988
L357.558 42.5978
L357.667 42.5727
L358.633 42.4673
L358.739 42.4408
L359.706 42.3313
L359.815 42.3035
L360.786 42.1941
L360.891 42.1648
L361.758 42.0652
L361.867 42.0404
L362.84 41.9295
L362.949 41.903
L363.807 41.7948
L363.914 41.7645
L364.782 41.6584
L364.888 41.6263
L365.64 41.5307
L365.747 41.4989
L366.501 41.3973
L366.61 41.3636
L367.366 41.2568
L367.475 41.2204
L368.225 41.1098
L368.333 41.0725
L368.972 40.9786
L369.08 40.9429
L369.828 40.8347
L369.828 40.8184
L370.576 40.7183
L370.684 40.6839
L371.441 40.5771
L371.55 40.5402
L372.3 40.4326
L372.408 40.3978
L373.163 40.2911
L373.163 40.2735
L373.813 40.1799
L373.923 40.1409
L374.571 40.0463
L374.678 40.0075
L375.32 39.9115
L375.425 39.8735
L376.072 39.7749
L376.177 39.7372
L376.93 39.6313
L376.93 39.6138
L377.684 39.5115
L377.684 39.4945
L378.441 39.3949
L378.548 39.3607
L379.303 39.2558
L379.409 39.2205
L380.166 39.1224
L380.274 39.0908
L381.033 38.9937
L381.14 38.9638
L382.004 38.8586
L382.111 38.8288
L382.978 38.7288
L383.084 38.7022
L383.955 38.6018
L384.06 38.5716
L384.925 38.468
L385.032 38.4405
L385.901 38.3429
L386.007 38.3142
L386.865 38.2103
L386.972 38.181
L387.831 38.078
L387.94 38.0504
L388.914 37.9479
L389.022 37.9241
L390 37.8148
L390.108 37.7864
L390.968 37.6789
L391.077 37.6497
L391.83 37.5547
L391.935 37.5218
L392.699 37.4187
L392.806 37.3804
L393.568 37.2714
L393.675 37.2367
L394.432 37.1303
L394.541 37.0926
L395.189 36.9948
L395.294 36.9556
L395.945 36.8539
L396.054 36.8134
L396.701 36.7091
L396.807 36.6673
L397.453 36.5649
L397.561 36.5265
L398.213 36.4333
L398.321 36.3966
L399.082 36.2972
L399.19 36.2653
L400.055 36.1563
L400.162 36.1265
L401.02 36.026
L401.127 35.9971
L401.991 35.896
L402.102 35.8668
L403.078 35.7656
L403.188 35.7391
L404.157 35.6366
L404.268 35.6091
L405.238 35.5072
L405.346 35.4785
L406.22 35.3706
L406.328 35.3405
L407.088 35.2423
L407.196 35.2091
L407.949 35.1089
L408.058 35.0753
L408.816 34.9753
L408.926 34.9411
L409.681 34.8418
L409.681 34.8261
L410.448 34.7289
L410.448 34.711
L411.206 34.6057
L411.317 34.5724
L412.078 34.4731
L412.184 34.4423
L413.059 34.334
L413.165 34.303
L413.923 34.2089
L414.032 34.1743
L414.786 34.0646
L414.896 34.0282
L415.554 33.9351
L415.661 33.899
L416.412 33.7922
L416.521 33.7582
L417.171 33.6631
L417.279 33.6247
L417.925 33.5319
L418.034 33.4934
L418.688 33.3989
L418.797 33.3609
L419.554 33.2549
L419.66 33.223
L420.522 33.1198
L420.632 33.0901
L421.394 32.9948
L421.501 32.9633
L422.27 32.865
L422.377 32.8339
L423.249 32.7243
L423.355 32.6946
L424.233 32.5911
L424.342 32.5604
L425.21 32.4567
L425.32 32.4286
L426.182 32.3298
L426.293 32.3034
L427.269 32.1928
L427.269 32.1791
L428.251 32.0732
L428.36 32.0467
L429.343 31.9459
L429.448 31.9217
L430.423 31.8183
L430.532 31.7926
L431.509 31.6907
L431.618 31.6612
L432.494 31.5557
L432.494 31.541
L433.371 31.4422
L433.48 31.4148
L434.345 31.3141
L434.345 31.2993
L435.215 31.1909
L435.215 31.1747
L435.979 31.0714
L435.979 31.0545
L436.739 30.9511
L436.847 30.915
L437.503 30.8209
L437.503 30.8017
L438.156 30.7067
L438.261 30.6698
L438.917 30.571
L439.026 30.5326
L439.68 30.4374
L439.787 30.3999
L440.55 30.2895
L440.657 30.2548
L441.43 30.1482
L441.538 30.1116
L442.19 30.0189
L442.299 29.9805
L442.946 29.8877
L443.055 29.8471
L443.706 29.75
L443.815 29.7118
L444.473 29.6151
L444.58 29.5768
L445.341 29.4681
L445.449 29.4318
L446.099 29.3371
L446.207 29.2985
L446.85 29.2043
L446.959 29.1671
L447.612 29.0709
L447.718 29.0317
L448.376 28.931
L448.485 28.8916
L449.135 28.7929
L449.135 28.7725
L449.791 28.6714
L449.901 28.6298
L450.558 28.531
L450.665 28.4919
L451.317 28.3912
L451.426 28.3524
L452.073 28.2579
L452.183 28.2207
L452.842 28.1224
L452.842 28.1033
L453.501 28.0048
L453.612 27.9653
L454.267 27.8683
L454.377 27.8314
L455.136 27.7262
L455.242 27.691
L456.003 27.5871
L456.108 27.5549
L456.873 27.452
L456.978 27.4189
L457.752 27.3147
L457.752 27.2978
L458.52 27.1988
L458.629 27.1667
L459.392 27.0678
L459.502 27.0346
L460.271 26.9299
L460.379 26.8952
L461.139 26.7941
L461.245 26.7627
L462.111 26.6536
L462.219 26.6216
L462.993 26.517
L462.993 26.4989
L463.65 26.4053
L463.758 26.37
L464.519 26.2659
L464.626 26.2312
L465.291 26.139
L465.4 26.1023
L466.163 25.9998
L466.163 25.9828
L466.932 25.8793
L467.039 25.845
L467.698 25.7487
L467.698 25.7294
L468.357 25.6281
L468.468 25.5855
L469.12 25.4792
L469.229 25.4376
L469.878 25.3333
L469.985 25.2906
L470.644 25.1825
L470.754 25.1384
L471.303 25.0467
L471.411 24.9988
L471.956 24.9035
L472.065 24.8573
L472.613 24.7669
L472.723 24.7237
L473.377 24.6156
L473.487 24.573
L474.148 24.4643
L474.255 24.4202
L474.908 24.3116
L475.018 24.2687
L475.67 24.1603
L475.781 24.1186
L476.438 24.0125
L476.546 23.9696
L477.091 23.8806
L477.091 23.8584
L477.641 23.7648
L477.748 23.7215
L478.408 23.6156
L478.516 23.5752
L479.172 23.4748
L479.279 23.4348
L479.944 23.3342
L480.052 23.2957
L480.709 23.2004
L480.815 23.1622
L481.477 23.0604
L481.587 23.0185
L482.239 22.9168
L482.239 22.8959
L482.896 22.7921
L483.003 22.7517
L483.657 22.6554
L483.657 22.6376
L484.416 22.5306
L484.525 22.4956
L485.295 22.385
L485.295 22.3658
L486.067 22.2561
L486.177 22.2211
L486.944 22.1142
L487.053 22.0795
L487.812 21.9782
L487.922 21.9445
L488.692 21.8467
L488.799 21.8135
L489.561 21.7158
L489.671 21.6838
L490.554 21.5783
L490.665 21.5479
L491.548 21.4399
L491.548 21.425
L492.43 21.3187
L492.43 21.3029
L493.2 21.204
L493.306 21.1714
L494.068 21.0738
L494.176 21.0428
L495.049 20.932
L495.16 20.9014
L496.037 20.7927
L496.146 20.7609
L497.028 20.6504
L497.134 20.6193
L498.007 20.512
L498.113 20.4817
L498.888 20.3805
L498.998 20.3459
L499.758 20.2407
L499.866 20.2064
L500.638 20.1006
L500.748 20.0654
L501.514 19.9662
L501.623 19.9356
L502.388 19.8403
L502.498 19.8084
L503.378 19.6984
L503.378 19.6826
L504.148 19.5863
L504.255 19.5552
L505.136 19.4452
L505.136 19.4293
L505.906 19.3324
L506.015 19.3009
L506.784 19.2014
L506.893 19.1689
L507.66 19.0714
L507.768 19.0389
L508.537 18.9338
L508.537 18.9159
L509.314 18.8098
L509.425 18.7757
L510.193 18.6783
L510.302 18.6468
L511.176 18.5397
L511.176 18.5252
L512.059 18.4243
L512.168 18.3953
L513.049 18.2928
L513.049 18.2787
L513.927 18.18
L514.036 18.1528
L515.02 18.0474
L515.129 18.0197
L516.011 17.921
L516.122 17.8934
L517.108 17.7884
L517.218 17.7625
L518.097 17.6648
L518.204 17.636
L519.072 17.5333
L519.18 17.5035
L520.067 17.3988
L520.175 17.3712
L521.164 17.2617
L521.272 17.2347
L522.256 17.1293
L522.256 17.1161
L523.254 17.0078
L523.363 16.981
L524.344 16.8783
L524.344 16.866
L525.455 16.763
L525.455 16.7515
L526.44 16.6515
L526.55 16.6251
L527.54 16.5152
L527.65 16.4897
L528.634 16.3883
L528.634 16.3763
L529.734 16.2696
L529.845 16.2467
L530.953 16.1431
L531.062 16.1198
L532.155 16.0183
L532.265 15.9974
L533.473 15.8928
L533.58 15.8724
L534.905 15.7624
L535.013 15.7438
L536.34 15.6364
L536.448 15.6168
L537.874 15.5087
L537.983 15.4904
L539.427 15.3872
L539.427 15.3787
L540.86 15.2749
L540.86 15.2672
L542.303 15.1601
L542.407 15.1424
L543.838 15.0323
L543.947 15.0148
L545.047 14.931
L545.047 14.9217" style="fill:none;stroke:#ff0000;stroke-width:0.5;"/>
   </g>
   <g id="matplotlib.axis_1">
    <g id="xtick_1">
     <g id="line2d_2">
      <defs>
       <path d="
M0 0
L0 -4" id="me2ec79df32"/>
      </defs>
      <g>
       <use style="stroke:#000000;stroke-linecap:butt;stroke-width:0.5;" x="25.8828125" xlink:href="#me2ec79df32" y="401.004497041"/>
      </g>
     </g>
    </g>
    <g id="xtick_2">
     <g id="line2d_3">
      <defs>
       <path d="
M0 0
L0 -4" id="me2ec79df32"/>
      </defs>
      <g>
       <use style="stroke:#000000;stroke-linecap:butt;stroke-width:0.5;" x="129.721464602" xlink:href="#me2ec79df32" y="401.004497041"/>
      </g>
     </g>
     <g id="text_1">
      <!-- 2e7 -->
      <defs>
       <path d="
M19.1875 8.29688
L53.6094 8.29688
L53.6094 0
L7.32812 0
L7.32812 8.29688
Q12.9375 14.1094 22.625 23.8906
Q32.3281 33.6875 34.8125 36.5312
Q39.5469 41.8438 41.4219 45.5312
Q43.3125 49.2188 43.3125 52.7812
Q43.3125 58.5938 39.2344 62.25
Q35.1562 65.9219 28.6094 65.9219
Q23.9688 65.9219 18.8125 64.3125
Q13.6719 62.7031 7.8125 59.4219
L7.8125 69.3906
Q13.7656 71.7812 18.9375 73
Q24.125 74.2188 28.4219 74.2188
Q39.75 74.2188 46.4844 68.5469
Q53.2188 62.8906 53.2188 53.4219
Q53.2188 48.9219 51.5312 44.8906
Q49.8594 40.875 45.4062 35.4062
Q44.1875 33.9844 37.6406 27.2188
Q31.1094 20.4531 19.1875 8.29688" id="BitstreamVeraSans-Roman-32"/>
       <path d="
M56.2031 29.5938
L56.2031 25.2031
L14.8906 25.2031
Q15.4844 15.9219 20.4844 11.0625
Q25.4844 6.20312 34.4219 6.20312
Q39.5938 6.20312 44.4531 7.46875
Q49.3125 8.73438 54.1094 11.2812
L54.1094 2.78125
Q49.2656 0.734375 44.1875 -0.34375
Q39.1094 -1.42188 33.8906 -1.42188
Q20.7969 -1.42188 13.1562 6.1875
Q5.51562 13.8125 5.51562 26.8125
Q5.51562 40.2344 12.7656 48.1094
Q20.0156 56 32.3281 56
Q43.3594 56 49.7812 48.8906
Q56.2031 41.7969 56.2031 29.5938
M47.2188 32.2344
Q47.125 39.5938 43.0938 43.9844
Q39.0625 48.3906 32.4219 48.3906
Q24.9062 48.3906 20.3906 44.1406
Q15.875 39.8906 15.1875 32.1719
z
" id="BitstreamVeraSans-Roman-65"/>
       <path d="
M8.20312 72.9062
L55.0781 72.9062
L55.0781 68.7031
L28.6094 0
L18.3125 0
L43.2188 64.5938
L8.20312 64.5938
z
" id="BitstreamVeraSans-Roman-37"/>
      </defs>
      <g transform="translate(121.076152102 412.426372041)scale(0.1 -0.1)">
       <use xlink:href="#BitstreamVeraSans-Roman-32"/>
       <use x="63.623046875" xlink:href="#BitstreamVeraSans-Roman-65"/>
       <use x="125.146484375" xlink:href="#BitstreamVeraSans-Roman-37"/>
      </g>
     </g>
    </g>
    <g id="xtick_3">
     <g id="line2d_4">
      <defs>
       <path d="
M0 0
L0 -4" id="me2ec79df32"/>
      </defs>
      <g>
       <use style="stroke:#000000;stroke-linecap:butt;stroke-width:0.5;" x="233.560116704" xlink:href="#me2ec79df32" y="401.004497041"/>
      </g>
     </g>
     <g id="text_2">
      <!-- 4e7 -->
      <defs>
       <path d="
M37.7969 64.3125
L12.8906 25.3906
L37.7969 25.3906
z

M35.2031 72.9062
L47.6094 72.9062
L47.6094 25.3906
L58.0156 25.3906
L58.0156 17.1875
L47.6094 17.1875
L47.6094 0
L37.7969 0
L37.7969 17.1875
L4.89062 17.1875
L4.89062 26.7031
z
" id="BitstreamVeraSans-Roman-34"/>
      </defs>
      <g transform="translate(224.792929204 412.295122041)scale(0.1 -0.1)">
       <use xlink:href="#BitstreamVeraSans-Roman-34"/>
       <use x="63.623046875" xlink:href="#BitstreamVeraSans-Roman-65"/>
       <use x="125.146484375" xlink:href="#BitstreamVeraSans-Roman-37"/>
      </g>
     </g>
    </g>
    <g id="xtick_4">
     <g id="line2d_5">
      <defs>
       <path d="
M0 0
L0 -4" id="me2ec79df32"/>
      </defs>
      <g>
       <use style="stroke:#000000;stroke-linecap:butt;stroke-width:0.5;" x="337.398768807" xlink:href="#me2ec79df32" y="401.004497041"/>
      </g>
     </g>
     <g id="text_3">
      <!-- 6e7 -->
      <defs>
       <path d="
M33.0156 40.375
Q26.375 40.375 22.4844 35.8281
Q18.6094 31.2969 18.6094 23.3906
Q18.6094 15.5312 22.4844 10.9531
Q26.375 6.39062 33.0156 6.39062
Q39.6562 6.39062 43.5312 10.9531
Q47.4062 15.5312 47.4062 23.3906
Q47.4062 31.2969 43.5312 35.8281
Q39.6562 40.375 33.0156 40.375
M52.5938 71.2969
L52.5938 62.3125
Q48.875 64.0625 45.0938 64.9844
Q41.3125 65.9219 37.5938 65.9219
Q27.8281 65.9219 22.6719 59.3281
Q17.5312 52.7344 16.7969 39.4062
Q19.6719 43.6562 24.0156 45.9219
Q28.375 48.1875 33.5938 48.1875
Q44.5781 48.1875 50.9531 41.5156
Q57.3281 34.8594 57.3281 23.3906
Q57.3281 12.1562 50.6875 5.35938
Q44.0469 -1.42188 33.0156 -1.42188
Q20.3594 -1.42188 13.6719 8.26562
Q6.98438 17.9688 6.98438 36.375
Q6.98438 53.6562 15.1875 63.9375
Q23.3906 74.2188 37.2031 74.2188
Q40.9219 74.2188 44.7031 73.4844
Q48.4844 72.75 52.5938 71.2969" id="BitstreamVeraSans-Roman-36"/>
      </defs>
      <g transform="translate(328.736268807 412.426372041)scale(0.1 -0.1)">
       <use xlink:href="#BitstreamVeraSans-Roman-36"/>
       <use x="63.623046875" xlink:href="#BitstreamVeraSans-Roman-65"/>
       <use x="125.146484375" xlink:href="#BitstreamVeraSans-Roman-37"/>
      </g>
     </g>
    </g>
    <g id="xtick_5">
     <g id="line2d_6">
      <defs>
       <path d="
M0 0
L0 -4" id="me2ec79df32"/>
      </defs>
      <g>
       <use style="stroke:#000000;stroke-linecap:butt;stroke-width:0.5;" x="441.237420909" xlink:href="#me2ec79df32" y="401.004497041"/>
      </g>
     </g>
     <g id="text_4">
      <!-- 8e7 -->
      <defs>
       <path d="
M31.7812 34.625
Q24.75 34.625 20.7188 30.8594
Q16.7031 27.0938 16.7031 20.5156
Q16.7031 13.9219 20.7188 10.1562
Q24.75 6.39062 31.7812 6.39062
Q38.8125 6.39062 42.8594 10.1719
Q46.9219 13.9688 46.9219 20.5156
Q46.9219 27.0938 42.8906 30.8594
Q38.875 34.625 31.7812 34.625
M21.9219 38.8125
Q15.5781 40.375 12.0312 44.7188
Q8.5 49.0781 8.5 55.3281
Q8.5 64.0625 14.7188 69.1406
Q20.9531 74.2188 31.7812 74.2188
Q42.6719 74.2188 48.875 69.1406
Q55.0781 64.0625 55.0781 55.3281
Q55.0781 49.0781 51.5312 44.7188
Q48 40.375 41.7031 38.8125
Q48.8281 37.1562 52.7969 32.3125
Q56.7812 27.4844 56.7812 20.5156
Q56.7812 9.90625 50.3125 4.23438
Q43.8438 -1.42188 31.7812 -1.42188
Q19.7344 -1.42188 13.25 4.23438
Q6.78125 9.90625 6.78125 20.5156
Q6.78125 27.4844 10.7812 32.3125
Q14.7969 37.1562 21.9219 38.8125
M18.3125 54.3906
Q18.3125 48.7344 21.8438 45.5625
Q25.3906 42.3906 31.7812 42.3906
Q38.1406 42.3906 41.7188 45.5625
Q45.3125 48.7344 45.3125 54.3906
Q45.3125 60.0625 41.7188 63.2344
Q38.1406 66.4062 31.7812 66.4062
Q25.3906 66.4062 21.8438 63.2344
Q18.3125 60.0625 18.3125 54.3906" id="BitstreamVeraSans-Roman-38"/>
      </defs>
      <g transform="translate(432.564764659 412.426372041)scale(0.1 -0.1)">
       <use xlink:href="#BitstreamVeraSans-Roman-38"/>
       <use x="63.623046875" xlink:href="#BitstreamVeraSans-Roman-65"/>
       <use x="125.146484375" xlink:href="#BitstreamVeraSans-Roman-37"/>
      </g>
     </g>
    </g>
    <g id="xtick_6">
     <g id="line2d_7">
      <defs>
       <path d="
M0 0
L0 -4" id="me2ec79df32"/>
      </defs>
      <g>
       <use style="stroke:#000000;stroke-linecap:butt;stroke-width:0.5;" x="545.076073011" xlink:href="#me2ec79df32" y="401.004497041"/>
      </g>
     </g>
     <g id="text_5">
      <!-- 1e8 -->
      <defs>
       <path d="
M12.4062 8.29688
L28.5156 8.29688
L28.5156 63.9219
L10.9844 60.4062
L10.9844 69.3906
L28.4219 72.9062
L38.2812 72.9062
L38.2812 8.29688
L54.3906 8.29688
L54.3906 0
L12.4062 0
z
" id="BitstreamVeraSans-Roman-31"/>
      </defs>
      <g transform="translate(536.528416761 412.426372041)scale(0.1 -0.1)">
       <use xlink:href="#BitstreamVeraSans-Roman-31"/>
       <use x="63.623046875" xlink:href="#BitstreamVeraSans-Roman-65"/>
       <use x="125.146484375" xlink:href="#BitstreamVeraSans-Roman-38"/>
      </g>
     </g>
    </g>
    <g id="xtick_7">
     <g id="line2d_8">
      <defs>
       <path d="
M0 0
L0 -2" id="m9c5732dfff"/>
      </defs>
      <g>
       <use style="stroke:#000000;stroke-linecap:butt;stroke-width:0.5;" x="51.8424755255" xlink:href="#m9c5732dfff" y="401.004497041"/>
      </g>
     </g>
    </g>
    <g id="xtick_8">
     <g id="line2d_9">
      <defs>
       <path d="
M0 0
L0 -2" id="m9c5732dfff"/>
      </defs>
      <g>
       <use style="stroke:#000000;stroke-linecap:butt;stroke-width:0.5;" x="77.8021385511" xlink:href="#m9c5732dfff" y="401.004497041"/>
      </g>
     </g>
    </g>
    <g id="xtick_9">
     <g id="line2d_10">
      <defs>
       <path d="
M0 0
L0 -2" id="m9c5732dfff"/>
      </defs>
      <g>
       <use style="stroke:#000000;stroke-linecap:butt;stroke-width:0.5;" x="103.761801577" xlink:href="#m9c5732dfff" y="401.004497041"/>
      </g>
     </g>
    </g>
    <g id="xtick_10">
     <g id="line2d_11">
      <defs>
       <path d="
M0 0
L0 -2" id="m9c5732dfff"/>
      </defs>
      <g>
       <use style="stroke:#000000;stroke-linecap:butt;stroke-width:0.5;" x="155.681127628" xlink:href="#m9c5732dfff" y="401.004497041"/>
      </g>
     </g>
    </g>
    <g id="xtick_11">
     <g id="line2d_12">
      <defs>
       <path d="
M0 0
L0 -2" id="m9c5732dfff"/>
      </defs>
      <g>
       <use style="stroke:#000000;stroke-linecap:butt;stroke-width:0.5;" x="181.640790653" xlink:href="#m9c5732dfff" y="401.004497041"/>
      </g>
     </g>
    </g>
    <g id="xtick_12">
     <g id="line2d_13">
      <defs>
       <path d="
M0 0
L0 -2" id="m9c5732dfff"/>
      </defs>
      <g>
       <use style="stroke:#000000;stroke-linecap:butt;stroke-width:0.5;" x="207.600453679" xlink:href="#m9c5732dfff" y="401.004497041"/>
      </g>
     </g>
    </g>
    <g id="xtick_13">
     <g id="line2d_14">
      <defs>
       <path d="
M0 0
L0 -2" id="m9c5732dfff"/>
      </defs>
      <g>
       <use style="stroke:#000000;stroke-linecap:butt;stroke-width:0.5;" x="259.51977973" xlink:href="#m9c5732dfff" y="401.004497041"/>
      </g>
     </g>
    </g>
    <g id="xtick_14">
     <g id="line2d_15">
      <defs>
       <path d="
M0 0
L0 -2" id="m9c5732dfff"/>
      </defs>
      <g>
       <use style="stroke:#000000;stroke-linecap:butt;stroke-width:0.5;" x="285.479442755" xlink:href="#m9c5732dfff" y="401.004497041"/>
      </g>
     </g>
    </g>
    <g id="xtick_15">
     <g id="line2d_16">
      <defs>
       <path d="
M0 0
L0 -2" id="m9c5732dfff"/>
      </defs>
      <g>
       <use style="stroke:#000000;stroke-linecap:butt;stroke-width:0.5;" x="311.439105781" xlink:href="#m9c5732dfff" y="401.004497041"/>
      </g>
     </g>
    </g>
    <g id="xtick_16">
     <g id="line2d_17">
      <defs>
       <path d="
M0 0
L0 -2" id="m9c5732dfff"/>
      </defs>
      <g>
       <use style="stroke:#000000;stroke-linecap:butt;stroke-width:0.5;" x="363.358431832" xlink:href="#m9c5732dfff" y="401.004497041"/>
      </g>
     </g>
    </g>
    <g id="xtick_17">
     <g id="line2d_18">
      <defs>
       <path d="
M0 0
L0 -2" id="m9c5732dfff"/>
      </defs>
      <g>
       <use style="stroke:#000000;stroke-linecap:butt;stroke-width:0.5;" x="389.318094858" xlink:href="#m9c5732dfff" y="401.004497041"/>
      </g>
     </g>
    </g>
    <g id="xtick_18">
     <g id="line2d_19">
      <defs>
       <path d="
M0 0
L0 -2" id="m9c5732dfff"/>
      </defs>
      <g>
       <use style="stroke:#000000;stroke-linecap:butt;stroke-width:0.5;" x="415.277757883" xlink:href="#m9c5732dfff" y="401.004497041"/>
      </g>
     </g>
    </g>
    <g id="xtick_19">
     <g id="line2d_20">
      <defs>
       <path d="
M0 0
L0 -2" id="m9c5732dfff"/>
      </defs>
      <g>
       <use style="stroke:#000000;stroke-linecap:butt;stroke-width:0.5;" x="467.197083934" xlink:href="#m9c5732dfff" y="401.004497041"/>
      </g>
     </g>
    </g>
    <g id="xtick_20">
     <g id="line2d_21">
      <defs>
       <path d="
M0 0
L0 -2" id="m9c5732dfff"/>
      </defs>
      <g>
       <use style="stroke:#000000;stroke-linecap:butt;stroke-width:0.5;" x="493.15674696" xlink:href="#m9c5732dfff" y="401.004497041"/>
      </g>
     </g>
    </g>
    <g id="xtick_21">
     <g id="line2d_22">
      <defs>
       <path d="
M0 0
L0 -2" id="m9c5732dfff"/>
      </defs>
      <g>
       <use style="stroke:#000000;stroke-linecap:butt;stroke-width:0.5;" x="519.116409985" xlink:href="#m9c5732dfff" y="401.004497041"/>
      </g>
     </g>
    </g>
   </g>
   <g id="matplotlib.axis_2">
    <g id="ytick_1">
     <g id="line2d_23">
      <defs>
       <path d="
M0 0
L4 0" id="me6d16c797d"/>
      </defs>
      <g>
       <use style="stroke:#000000;stroke-linecap:butt;stroke-width:0.5;" x="25.8828125" xlink:href="#me6d16c797d" y="401.004497041"/>
      </g>
     </g>
    </g>
    <g id="ytick_2">
     <g id="line2d_24">
      <defs>
       <path d="
M0 0
L4 0" id="me6d16c797d"/>
      </defs>
      <g>
       <use style="stroke:#000000;stroke-linecap:butt;stroke-width:0.5;" x="25.8828125" xlink:href="#me6d16c797d" y="322.18231259"/>
      </g>
     </g>
     <g id="text_6">
      <!-- 0.2 -->
      <defs>
       <path d="
M31.7812 66.4062
Q24.1719 66.4062 20.3281 58.9062
Q16.5 51.4219 16.5 36.375
Q16.5 21.3906 20.3281 13.8906
Q24.1719 6.39062 31.7812 6.39062
Q39.4531 6.39062 43.2812 13.8906
Q47.125 21.3906 47.125 36.375
Q47.125 51.4219 43.2812 58.9062
Q39.4531 66.4062 31.7812 66.4062
M31.7812 74.2188
Q44.0469 74.2188 50.5156 64.5156
Q56.9844 54.8281 56.9844 36.375
Q56.9844 17.9688 50.5156 8.26562
Q44.0469 -1.42188 31.7812 -1.42188
Q19.5312 -1.42188 13.0625 8.26562
Q6.59375 17.9688 6.59375 36.375
Q6.59375 54.8281 13.0625 64.5156
Q19.5312 74.2188 31.7812 74.2188" id="BitstreamVeraSans-Roman-30"/>
       <path d="
M10.6875 12.4062
L21 12.4062
L21 0
L10.6875 0
z
" id="BitstreamVeraSans-Roman-2e"/>
      </defs>
      <g transform="translate(7.640625 325.82215634)scale(0.1 -0.1)">
       <use xlink:href="#BitstreamVeraSans-Roman-30"/>
       <use x="63.623046875" xlink:href="#BitstreamVeraSans-Roman-2e"/>
       <use x="95.41015625" xlink:href="#BitstreamVeraSans-Roman-32"/>
      </g>
     </g>
    </g>
    <g id="ytick_3">
     <g id="line2d_25">
      <defs>
       <path d="
M0 0
L4 0" id="me6d16c797d"/>
      </defs>
      <g>
       <use style="stroke:#000000;stroke-linecap:butt;stroke-width:0.5;" x="25.8828125" xlink:href="#me6d16c797d" y="243.360128139"/>
      </g>
     </g>
     <g id="text_7">
      <!-- 0.4 -->
      <g transform="translate(7.2 246.999971889)scale(0.1 -0.1)">
       <use xlink:href="#BitstreamVeraSans-Roman-30"/>
       <use x="63.623046875" xlink:href="#BitstreamVeraSans-Roman-2e"/>
       <use x="95.41015625" xlink:href="#BitstreamVeraSans-Roman-34"/>
      </g>
     </g>
    </g>
    <g id="ytick_4">
     <g id="line2d_26">
      <defs>
       <path d="
M0 0
L4 0" id="me6d16c797d"/>
      </defs>
      <g>
       <use style="stroke:#000000;stroke-linecap:butt;stroke-width:0.5;" x="25.8828125" xlink:href="#me6d16c797d" y="164.537943687"/>
      </g>
     </g>
     <g id="text_8">
      <!-- 0.6 -->
      <g transform="translate(7.26875 168.177787437)scale(0.1 -0.1)">
       <use xlink:href="#BitstreamVeraSans-Roman-30"/>
       <use x="63.623046875" xlink:href="#BitstreamVeraSans-Roman-2e"/>
       <use x="95.41015625" xlink:href="#BitstreamVeraSans-Roman-36"/>
      </g>
     </g>
    </g>
    <g id="ytick_5">
     <g id="line2d_27">
      <defs>
       <path d="
M0 0
L4 0" id="me6d16c797d"/>
      </defs>
      <g>
       <use style="stroke:#000000;stroke-linecap:butt;stroke-width:0.5;" x="25.8828125" xlink:href="#me6d16c797d" y="85.7157592357"/>
      </g>
     </g>
     <g id="text_9">
      <!-- 0.8 -->
      <g transform="translate(7.3234375 89.3556029857)scale(0.1 -0.1)">
       <use xlink:href="#BitstreamVeraSans-Roman-30"/>
       <use x="63.623046875" xlink:href="#BitstreamVeraSans-Roman-2e"/>
       <use x="95.41015625" xlink:href="#BitstreamVeraSans-Roman-38"/>
      </g>
     </g>
    </g>
    <g id="ytick_6">
     <g id="line2d_28">
      <defs>
       <path d="
M0 0
L2 0" id="m473220213b"/>
      </defs>
      <g>
       <use style="stroke:#000000;stroke-linecap:butt;stroke-width:0.5;" x="25.8828125" xlink:href="#m473220213b" y="381.298950929"/>
      </g>
     </g>
    </g>
    <g id="ytick_7">
     <g id="line2d_29">
      <defs>
       <path d="
M0 0
L2 0" id="m473220213b"/>
      </defs>
      <g>
       <use style="stroke:#000000;stroke-linecap:butt;stroke-width:0.5;" x="25.8828125" xlink:href="#m473220213b" y="361.593404816"/>
      </g>
     </g>
    </g>
    <g id="ytick_8">
     <g id="line2d_30">
      <defs>
       <path d="
M0 0
L2 0" id="m473220213b"/>
      </defs>
      <g>
       <use style="stroke:#000000;stroke-linecap:butt;stroke-width:0.5;" x="25.8828125" xlink:href="#m473220213b" y="341.887858703"/>
      </g>
     </g>
    </g>
    <g id="ytick_9">
     <g id="line2d_31">
      <defs>
       <path d="
M0 0
L2 0" id="m473220213b"/>
      </defs>
      <g>
       <use style="stroke:#000000;stroke-linecap:butt;stroke-width:0.5;" x="25.8828125" xlink:href="#m473220213b" y="322.18231259"/>
      </g>
     </g>
    </g>
    <g id="ytick_10">
     <g id="line2d_32">
      <defs>
       <path d="
M0 0
L2 0" id="m473220213b"/>
      </defs>
      <g>
       <use style="stroke:#000000;stroke-linecap:butt;stroke-width:0.5;" x="25.8828125" xlink:href="#m473220213b" y="302.476766477"/>
      </g>
     </g>
    </g>
    <g id="ytick_11">
     <g id="line2d_33">
      <defs>
       <path d="
M0 0
L2 0" id="m473220213b"/>
      </defs>
      <g>
       <use style="stroke:#000000;stroke-linecap:butt;stroke-width:0.5;" x="25.8828125" xlink:href="#m473220213b" y="282.771220364"/>
      </g>
     </g>
    </g>
    <g id="ytick_12">
     <g id="line2d_34">
      <defs>
       <path d="
M0 0
L2 0" id="m473220213b"/>
      </defs>
      <g>
       <use style="stroke:#000000;stroke-linecap:butt;stroke-width:0.5;" x="25.8828125" xlink:href="#m473220213b" y="263.065674251"/>
      </g>
     </g>
    </g>
    <g id="ytick_13">
     <g id="line2d_35">
      <defs>
       <path d="
M0 0
L2 0" id="m473220213b"/>
      </defs>
      <g>
       <use style="stroke:#000000;stroke-linecap:butt;stroke-width:0.5;" x="25.8828125" xlink:href="#m473220213b" y="243.360128139"/>
      </g>
     </g>
    </g>
    <g id="ytick_14">
     <g id="line2d_36">
      <defs>
       <path d="
M0 0
L2 0" id="m473220213b"/>
      </defs>
      <g>
       <use style="stroke:#000000;stroke-linecap:butt;stroke-width:0.5;" x="25.8828125" xlink:href="#m473220213b" y="223.654582026"/>
      </g>
     </g>
    </g>
    <g id="ytick_15">
     <g id="line2d_37">
      <defs>
       <path d="
M0 0
L2 0" id="m473220213b"/>
      </defs>
      <g>
       <use style="stroke:#000000;stroke-linecap:butt;stroke-width:0.5;" x="25.8828125" xlink:href="#m473220213b" y="203.949035913"/>
      </g>
     </g>
    </g>
    <g id="ytick_16">
     <g id="line2d_38">
      <defs>
       <path d="
M0 0
L2 0" id="m473220213b"/>
      </defs>
      <g>
       <use style="stroke:#000000;stroke-linecap:butt;stroke-width:0.5;" x="25.8828125" xlink:href="#m473220213b" y="184.2434898"/>
      </g>
     </g>
    </g>
    <g id="ytick_17">
     <g id="line2d_39">
      <defs>
       <path d="
M0 0
L2 0" id="m473220213b"/>
      </defs>
      <g>
       <use style="stroke:#000000;stroke-linecap:butt;stroke-width:0.5;" x="25.8828125" xlink:href="#m473220213b" y="164.537943687"/>
      </g>
     </g>
    </g>
    <g id="ytick_18">
     <g id="line2d_40">
      <defs>
       <path d="
M0 0
L2 0" id="m473220213b"/>
      </defs>
      <g>
       <use style="stroke:#000000;stroke-linecap:butt;stroke-width:0.5;" x="25.8828125" xlink:href="#m473220213b" y="144.832397574"/>
      </g>
     </g>
    </g>
    <g id="ytick_19">
     <g id="line2d_41">
      <defs>
       <path d="
M0 0
L2 0" id="m473220213b"/>
      </defs>
      <g>
       <use style="stroke:#000000;stroke-linecap:butt;stroke-width:0.5;" x="25.8828125" xlink:href="#m473220213b" y="125.126851461"/>
      </g>
     </g>
    </g>
    <g id="ytick_20">
     <g id="line2d_42">
      <defs>
       <path d="
M0 0
L2 0" id="m473220213b"/>
      </defs>
      <g>
       <use style="stroke:#000000;stroke-linecap:butt;stroke-width:0.5;" x="25.8828125" xlink:href="#m473220213b" y="105.421305349"/>
      </g>
     </g>
    </g>
    <g id="ytick_21">
     <g id="line2d_43">
      <defs>
       <path d="
M0 0
L2 0" id="m473220213b"/>
      </defs>
      <g>
       <use style="stroke:#000000;stroke-linecap:butt;stroke-width:0.5;" x="25.8828125" xlink:href="#m473220213b" y="85.7157592357"/>
      </g>
     </g>
    </g>
    <g id="ytick_22">
     <g id="line2d_44">
      <defs>
       <path d="
M0 0
L2 0" id="m473220213b"/>
      </defs>
      <g>
       <use style="stroke:#000000;stroke-linecap:butt;stroke-width:0.5;" x="25.8828125" xlink:href="#m473220213b" y="66.0102131229"/>
      </g>
     </g>
    </g>
    <g id="ytick_23">
     <g id="line2d_45">
      <defs>
       <path d="
M0 0
L2 0" id="m473220213b"/>
      </defs>
      <g>
       <use style="stroke:#000000;stroke-linecap:butt;stroke-width:0.5;" x="25.8828125" xlink:href="#m473220213b" y="46.30466701"/>
      </g>
     </g>
    </g>
    <g id="ytick_24">
     <g id="line2d_46">
      <defs>
       <path d="
M0 0
L2 0" id="m473220213b"/>
      </defs>
      <g>
       <use style="stroke:#000000;stroke-linecap:butt;stroke-width:0.5;" x="25.8828125" xlink:href="#m473220213b" y="26.5991208972"/>
      </g>
     </g>
    </g>
   </g>
   <g id="patch_3">
    <path d="
M15.4995 401.004
L555.43 401.004" style="fill:none;stroke:#000000;stroke-width:0.8;"/>
   </g>
   <g id="patch_4">
    <path d="
M25.8828 408.726
L25.8828 7.2" style="fill:none;stroke:#000000;stroke-width:0.8;"/>
   </g>
  </g>
 </g>
 <defs>
  <clipPath id="pc4ff94fdb4">
   <rect height="401.526153846" width="539.930304948" x="15.4995477887" y="7.2"/>
  </clipPath>
 </defs>
</svg>
