<?xml version="1.0" encoding="utf-8" standalone="no"?>
<!DOCTYPE svg PUBLIC "-//W3C//DTD SVG 1.1//EN"
  "http://www.w3.org/Graphics/SVG/1.1/DTD/svg11.dtd">
<!-- Created with matplotlib (http://matplotlib.sourceforge.net/) -->
<svg height="420pt" version="1.1" viewBox="0 0 562 420" width="562pt" xmlns="http://www.w3.org/2000/svg" xmlns:xlink="http://www.w3.org/1999/xlink">
 <defs>
  <style type="text/css">
*{stroke-linecap:square;stroke-linejoin:round;}
  </style>
 </defs>
 <g id="figure_1">
  <g id="patch_1">
   <path d="
M2.22045e-16 420.48
L562.698 420.48
L562.698 0
L2.22045e-16 0
z
" style="fill:#ffffff;"/>
  </g>
  <g id="axes_1">
   <g id="patch_2">
    <path d="
M19.3504 413.28
L555.498 413.28
L555.498 7.2
L19.3504 7.2
z
" style="fill:#ffffff;"/>
   </g>
   <g id="line2d_1">
    <path clip-path="url(#p4ae238b7d9)" d="
M29.6609 17.2393
L29.709 17.2393
L29.709 15.0092
L29.7661 15.0092
L29.7661 15.0092
L29.8271 118.267
L29.8892 118.267
L29.9538 178.758
L30.0205 178.758
L30.0863 245.346
L30.1539 245.346
L30.2231 314.297
L30.2924 314.297
L30.3626 338.913
L30.4329 338.913
L30.5042 351.671
L30.5765 351.671
L30.6481 364.167
L30.7207 364.167
L30.7936 374.972
L30.8667 374.972
L30.9402 381.902
L31.015 381.902
L31.0882 385.073
L31.1635 385.073
L31.2392 389.121
L31.3131 389.121
L31.3883 396.119
L31.4641 396.119
L31.5403 402.352
L31.6175 402.352
L31.6929 404.785
L31.7715 404.785
L31.7715 405.471
L31.8477 405.04
L31.9241 405.04
L32.002 403.755
L32.0803 403.755
L32.1565 399.378
L32.2344 399.378
L32.3128 395.888
L32.39 395.888
L32.4695 393.781
L32.5485 393.781
L32.6275 391.065
L32.7048 391.065
L32.7842 387.622
L32.8625 387.622
L32.9431 385.632
L33.0242 385.632
L33.1032 383.887
L33.1835 383.887
L33.2623 381.401
L33.3417 381.401
L33.4222 378.988
L33.5039 378.988
L33.5844 377.195
L33.6643 377.195
L33.7445 374.233
L33.8247 374.233
L33.9052 371.421
L33.9862 371.421
L34.0686 369.692
L34.1478 369.692
L34.1478 369.398
L34.2294 369.53
L34.3115 369.53
L34.3929 370.023
L34.4744 370.023
L34.557 370.498
L34.6387 370.498
L34.7218 371.175
L34.8046 371.175
L34.8852 371.743
L35.1342 371.723
L35.217 371.247
L35.2989 371.247
L35.38 370.303
L35.4632 370.303
L35.5454 369.337
L35.629 369.337
L35.7108 368.786
L35.7915 368.786
L35.8763 368.336
L35.9592 368.336
L36.0449 367.634
L36.1282 367.634
L36.2099 366.973
L36.2937 366.973
L36.378 366.541
L36.4615 366.541
L36.5464 365.827
L36.6304 365.827
L36.7144 364.94
L36.798 364.94
L36.8795 364.47
L36.9668 364.47
L37.0501 363.691
L37.1342 363.691
L37.2169 363.027
L37.3017 363.027
L37.3857 361.713
L37.4685 361.713
L37.5547 360.193
L37.6407 360.193
L37.7252 358.473
L37.8103 358.473
L37.8969 357.356
L37.9818 357.356
L38.0655 356.766
L38.151 356.766
L38.2363 356.367
L38.4912 356.421
L38.5774 356.631
L38.8348 356.588
L38.8348 356.504
L38.9197 356.517
L39.0896 356.58
L39.0896 356.659
L39.1762 356.584
L39.3456 356.504
L39.4312 356.379
L39.5177 356.379
L39.6022 356.047
L39.6881 356.047
L39.7744 355.781
L39.949 355.684
L40.0334 355.416
L40.205 355.314
L40.2922 355.084
L40.3792 355.084
L40.4657 354.622
L40.5522 354.622
L40.6385 354.383
L40.7239 354.383
L40.8099 353.944
L40.8969 353.944
L40.9843 353.508
L41.0714 353.508
L41.1591 353.083
L41.2467 353.083
L41.3326 352.416
L41.4177 352.416
L41.5069 351.438
L41.594 351.438
L41.683 350.38
L41.7704 350.38
L41.8567 349.33
L41.9443 349.33
L42.0311 348.294
L42.1191 348.294
L42.2073 347.228
L42.2949 347.228
L42.3812 346.063
L42.4706 346.063
L42.5575 345.065
L42.6452 345.065
L42.7308 344.083
L42.8206 344.083
L42.9077 343
L42.9931 343
L43.0813 342.054
L43.1696 342.054
L43.2574 341.233
L43.3444 341.233
L43.4331 340.399
L43.521 340.399
L43.6073 339.665
L43.6947 339.665
L43.7855 338.967
L43.8737 338.967
L43.9609 338.302
L44.051 338.302
L44.1381 337.558
L44.2224 337.558
L44.3102 336.81
L44.3988 336.81
L44.4886 335.866
L44.5777 335.866
L44.6658 334.947
L44.7549 334.947
L44.8439 333.974
L44.9334 333.974
L45.0219 333.165
L45.1099 333.165
L45.1972 332.338
L45.2875 332.338
L45.3769 331.435
L45.4678 331.435
L45.554 330.505
L45.6429 330.505
L45.7311 329.756
L45.8192 329.756
L45.9094 329.065
L45.9976 329.065
L46.086 328.226
L46.1717 328.226
L46.2606 327.479
L46.348 327.479
L46.4384 326.648
L46.5273 326.648
L46.6161 325.725
L46.7066 325.725
L46.7957 324.83
L46.885 324.83
L46.9762 323.957
L47.065 323.957
L47.1543 323.214
L47.2422 323.214
L47.3307 322.444
L47.418 322.444
L47.5091 321.713
L47.6012 321.713
L47.6924 321.056
L47.7823 321.056
L47.8743 320.251
L47.9658 320.251
L48.0545 319.506
L48.1451 319.506
L48.234 318.641
L48.3209 318.641
L48.4093 317.783
L48.5031 317.783
L48.5918 316.846
L48.6797 316.846
L48.7683 315.942
L48.8584 315.942
L48.9468 315.1
L49.0361 315.1
L49.1292 314.42
L49.2193 314.42
L49.3088 313.938
L49.3976 313.938
L49.4868 313.524
L49.5779 313.524
L49.669 312.934
L49.7574 312.934
L49.8485 312.349
L49.9374 312.349
L50.0264 311.784
L50.1199 311.784
L50.2107 311.17
L50.3023 311.17
L50.3927 310.505
L50.4807 310.505
L50.5701 309.817
L50.6608 309.817
L50.7505 309.147
L50.8406 309.147
L50.933 308.613
L51.0248 308.613
L51.1146 308.069
L51.205 308.069
L51.2941 307.408
L51.3841 307.408
L51.4757 306.728
L51.5677 306.728
L51.6573 305.923
L51.7496 305.923
L51.8415 305.063
L51.9313 305.063
L52.0228 304.209
L52.1153 304.209
L52.2062 303.276
L52.297 303.276
L52.3899 302.33
L52.478 302.33
L52.5664 301.406
L52.6564 301.406
L52.7469 300.432
L52.8367 300.432
L52.9293 299.421
L53.0212 299.421
L53.1137 298.408
L53.2033 298.408
L53.2942 297.496
L53.3864 297.496
L53.4757 296.58
L53.5679 296.58
L53.6602 295.651
L53.7516 295.651
L53.8405 294.784
L53.9326 294.784
L54.0235 294.057
L54.1136 294.057
L54.2066 293.43
L54.2986 293.43
L54.3913 292.864
L54.4822 292.864
L54.5747 292.346
L54.6647 292.346
L54.7552 291.949
L54.8471 291.949
L54.9344 291.515
L55.0278 291.515
L55.1193 291.09
L55.2097 291.09
L55.2999 290.707
L55.3894 290.707
L55.4826 290.23
L55.5747 290.23
L55.6663 289.769
L55.7593 289.769
L55.8507 289.363
L55.9418 289.363
L56.035 289.005
L56.126 289.005
L56.2182 288.64
L56.3103 288.64
L56.4033 288.303
L56.4943 288.303
L56.5856 288.033
L56.6779 288.033
L56.7686 287.841
L56.9526 287.734
L57.0449 287.47
L57.1372 287.47
L57.2271 287.171
L57.3206 287.171
L57.4113 286.865
L57.5046 286.865
L57.5971 286.561
L57.6894 286.561
L57.7805 286.3
L57.873 286.3
L57.9662 286.003
L58.0569 286.003
L58.152 285.642
L58.2446 285.642
L58.3374 285.269
L58.4301 285.269
L58.5224 284.956
L58.6152 284.956
L58.7076 284.708
L58.8952 284.626
L58.9883 284.485
L59.4497 284.382
L59.5435 284.291
L59.8206 284.193
L59.9144 284.107
L60.0965 284.048
L60.1867 283.847
L60.2787 283.847
L60.3721 283.568
L60.466 283.568
L60.5592 283.311
L60.7412 283.2
L60.8381 282.958
L60.9305 282.958
L61.0238 282.669
L61.1159 282.669
L61.2084 282.411
L61.3938 282.307
L61.4861 282.155
L61.6734 282.095
L61.7681 281.952
L61.9528 281.886
L62.0446 281.752
L62.2281 281.682
L62.3206 281.516
L62.4147 281.516
L62.5086 281.269
L62.6047 281.269
L62.6976 280.965
L62.7902 280.965
L62.8858 280.619
L62.9775 280.619
L63.0722 280.333
L63.1655 280.333
L63.2579 280.093
L63.351 280.093
L63.4442 279.871
L63.628 279.763
L63.7211 279.558
L63.9084 279.464
L64.0038 279.208
L64.097 279.208
L64.1907 278.946
L64.2819 278.946
L64.3748 278.638
L64.4684 278.638
L64.5613 278.277
L64.6555 278.277
L64.7496 277.911
L64.8424 277.911
L64.9364 277.532
L65.0278 277.532
L65.12 277.19
L65.2119 277.19
L65.3064 276.833
L65.4009 276.833
L65.4925 276.494
L65.5846 276.494
L65.68 276.146
L65.7728 276.146
L65.8667 275.856
L65.9582 275.856
L66.0502 275.598
L66.1458 275.598
L66.2388 275.341
L66.3309 275.341
L66.4281 275.094
L66.5215 275.094
L66.6149 274.873
L66.803 274.77
L66.8975 274.537
L67.0856 274.448
L67.1779 274.286
L67.4597 274.193
L67.5561 274.161
L68.0253 274.256
L68.1184 274.348
L68.404 274.445
L68.4988 274.519
L68.6858 274.578
L68.7813 274.743
L68.9683 274.831
L69.0614 275.009
L69.2491 275.092
L69.342 275.248
L69.5319 275.323
L69.6277 275.471
L69.8183 275.542
L69.9114 275.701
L70.0991 275.796
L70.1922 275.992
L70.3795 276.075
L70.4744 276.209
L70.9472 276.308
L70.9472 276.322
L71.0419 276.318
L71.9885 276.419
L72.0824 276.437
L73.6922 276.354
L73.7862 276.269
L74.0685 276.199
L74.1649 276.128
L74.4488 276.059
L74.5428 275.979
L74.826 275.869
L74.9207 275.755
L75.2062 275.658
L75.3016 275.605
L75.6813 275.496
L75.7771 275.467
L76.3526 275.36
L76.4478 275.314
L79.7848 275.398
L79.8781 275.47
L80.1669 275.55
L80.2624 275.606
L80.8402 275.51
L80.9351 275.474
L82.6628 275.548
L82.7589 275.628
L83.1428 275.736
L83.2401 275.817
L83.5243 275.915
L83.6208 276.033
L83.8109 276.095
L83.9077 276.22
L84.0989 276.285
L84.1956 276.391
L84.3879 276.448
L84.4837 276.596
L84.6753 276.672
L84.7678 276.817
L84.9592 276.891
L85.0557 277.021
L85.2508 277.08
L85.3478 277.187
L85.6353 277.265
L85.7316 277.351
L86.02 277.448
L86.1141 277.564
L86.3081 277.629
L86.4052 277.747
L86.5995 277.809
L86.6939 277.92
L86.8848 277.986
L86.9805 278.108
L87.2706 278.212
L87.3661 278.326
L87.5611 278.392
L87.6567 278.564
L87.8514 278.664
L87.9487 278.864
L88.1421 278.943
L88.2378 279.118
L88.4322 279.214
L88.5292 279.406
L88.722 279.504
L88.8158 279.708
L89.0116 279.811
L89.1077 280
L89.2979 280.091
L89.3943 280.277
L89.5835 280.365
L89.6841 280.516
L89.8774 280.6
L89.9733 280.782
L90.1666 280.865
L90.2635 281.026
L90.4566 281.112
L90.5521 281.278
L90.7496 281.358
L90.844 281.533
L91.0374 281.62
L91.1346 281.801
L91.3246 281.895
L91.4237 282.088
L91.6163 282.178
L91.7147 282.366
L91.9077 282.463
L92.0063 282.669
L92.2008 282.774
L92.295 282.97
L92.3935 282.97
L92.491 283.209
L92.5893 283.209
L92.6846 283.453
L92.781 283.453
L92.879 283.702
L92.9755 283.702
L93.0719 283.953
L93.1659 283.953
L93.2648 284.226
L93.3623 284.226
L93.4557 284.489
L93.5534 284.489
L93.6484 284.75
L93.745 284.75
L93.8429 285.016
L93.9408 285.016
L94.037 285.282
L94.1383 285.282
L94.2314 285.552
L94.331 285.552
L94.4291 285.822
L94.5266 285.822
L94.623 286.072
L94.7183 286.072
L94.8162 286.297
L95.0127 286.405
L95.1089 286.622
L95.301 286.726
L95.3963 286.928
L95.5899 287.027
L95.6857 287.242
L95.7842 287.242
L95.8813 287.467
L96.0751 287.574
L96.174 287.778
L96.3712 287.875
L96.4691 288.052
L96.6649 288.14
L96.7616 288.293
L96.9561 288.36
L97.0577 288.489
L97.2534 288.553
L97.3509 288.675
L97.5475 288.735
L97.6432 288.864
L97.8359 288.932
L97.9349 289.069
L98.1286 289.137
L98.2279 289.278
L98.4216 289.345
L98.5201 289.499
L98.7138 289.566
L98.8127 289.69
L99.008 289.759
L99.1077 289.906
L99.3028 289.975
L99.4015 290.111
L99.5978 290.176
L99.6951 290.317
L99.8872 290.401
L99.9853 290.581
L100.177 290.674
L100.275 290.849
L100.472 290.939
L100.568 291.118
L100.763 291.213
L100.861 291.389
L101.055 291.474
L101.154 291.647
L101.344 291.738
L101.442 291.925
L101.64 292.019
L101.74 292.201
L101.938 292.291
L102.035 292.483
L102.231 292.58
L102.328 292.767
L102.523 292.864
L102.62 293.067
L102.818 293.166
L102.917 293.367
L103.112 293.467
L103.209 293.651
L103.405 293.751
L103.502 293.962
L103.693 294.065
L103.791 294.261
L103.986 294.351
L104.085 294.531
L104.281 294.616
L104.379 294.778
L104.576 294.852
L104.675 294.996
L104.869 295.065
L104.967 295.186
L105.165 295.246
L105.265 295.355
L105.556 295.453
L105.655 295.554
L105.947 295.649
L106.045 295.721
L106.439 295.813
L106.539 295.859
L106.935 295.95
L107.031 296.022
L107.425 296.114
L107.522 296.182
L107.914 296.279
L108.015 296.352
L108.309 296.43
L108.406 296.509
L108.701 296.588
L108.798 296.67
L109.099 296.759
L109.197 296.859
L109.495 296.954
L109.591 297.028
L109.979 297.123
L110.076 297.197
L110.469 297.299
L110.568 297.365
L111.062 297.473
L111.162 297.521
L111.65 297.631
L111.749 297.68
L112.341 297.791
L112.442 297.835
L112.835 297.92
L112.934 297.993
L113.329 298.102
L113.426 298.178
L113.821 298.286
L113.924 298.366
L114.22 298.439
L114.319 298.513
L114.613 298.59
L114.71 298.673
L115.011 298.758
L115.11 298.841
L115.403 298.926
L115.502 299.007
L115.799 299.083
L115.898 299.158
L116.288 299.267
L116.386 299.349
L116.685 299.445
L116.785 299.539
L117.078 299.647
L117.175 299.758
L117.371 299.818
L117.468 299.949
L117.667 300.02
L117.767 300.156
L117.964 300.227
L118.064 300.376
L118.267 300.452
L118.367 300.6
L118.563 300.676
L118.663 300.833
L118.86 300.915
L118.956 301.076
L119.154 301.153
L119.253 301.307
L119.447 301.384
L119.547 301.533
L119.746 301.606
L119.841 301.761
L120.039 301.839
L120.137 301.999
L120.334 302.079
L120.435 302.232
L120.631 302.305
L120.734 302.445
L120.932 302.516
L121.031 302.654
L121.234 302.725
L121.332 302.873
L121.528 302.945
L121.629 303.095
L121.827 303.174
L121.926 303.331
L122.127 303.406
L122.222 303.533
L122.415 303.593
L122.517 303.708
L122.818 303.811
L122.921 303.92
L123.119 303.975
L123.216 304.089
L123.519 304.19
L123.617 304.279
L123.909 304.374
L124.009 304.463
L124.307 304.542
L124.408 304.622
L124.707 304.702
L124.805 304.797
L125.109 304.903
L125.208 305.019
L125.406 305.077
L125.504 305.192
L125.701 305.252
L125.799 305.372
L126 305.434
L126.101 305.563
L126.296 305.631
L126.396 305.775
L126.596 305.851
L126.697 306.003
L126.895 306.08
L126.993 306.227
L127.196 306.298
L127.293 306.442
L127.493 306.52
L127.591 306.69
L127.791 306.778
L127.89 306.956
L128.09 307.051
L128.193 307.233
L128.39 307.314
L128.489 307.467
L128.69 307.541
L128.791 307.701
L128.989 307.786
L129.09 307.966
L129.287 308.056
L129.387 308.232
L129.586 308.324
L129.685 308.502
L129.881 308.585
L129.978 308.746
L130.183 308.834
L130.282 309.005
L130.485 309.092
L130.587 309.269
L130.787 309.358
L130.885 309.531
L131.086 309.617
L131.186 309.773
L131.385 309.847
L131.483 309.998
L131.682 310.067
L131.779 310.206
L131.98 310.275
L132.079 310.415
L132.281 310.484
L132.379 310.618
L132.576 310.682
L132.678 310.808
L132.876 310.873
L132.975 310.996
L133.173 311.057
L133.273 311.187
L133.475 311.256
L133.576 311.39
L133.774 311.456
L133.876 311.585
L134.076 311.647
L134.178 311.773
L134.377 311.836
L134.478 311.97
L134.676 312.044
L134.775 312.187
L134.979 312.259
L135.082 312.394
L135.283 312.458
L135.38 312.594
L135.581 312.658
L135.68 312.783
L135.879 312.844
L135.981 312.969
L136.18 313.033
L136.279 313.172
L136.474 313.24
L136.575 313.374
L136.776 313.442
L136.876 313.573
L137.081 313.638
L137.178 313.757
L137.378 313.819
L137.48 313.94
L137.681 313.998
L137.783 314.108
L138.078 314.217
L138.178 314.329
L138.48 314.432
L138.58 314.537
L138.884 314.632
L138.984 314.724
L139.287 314.816
L139.383 314.899
L139.685 314.987
L139.785 315.075
L140.086 315.165
L140.187 315.261
L140.482 315.343
L140.586 315.43
L140.889 315.527
L140.988 315.621
L141.29 315.708
L141.389 315.799
L141.688 315.888
L141.787 315.983
L142.089 316.079
L142.188 316.175
L142.489 316.277
L142.589 316.374
L142.885 316.455
L142.988 316.532
L143.285 316.614
L143.386 316.705
L143.693 316.806
L143.794 316.913
L144.099 317.011
L144.2 317.096
L144.504 317.185
L144.606 317.28
L144.907 317.377
L145.008 317.481
L145.312 317.579
L145.416 317.671
L145.716 317.759
L145.815 317.845
L146.112 317.926
L146.213 318.014
L146.516 318.109
L146.617 318.201
L146.915 318.288
L147.015 318.376
L147.322 318.474
L147.422 318.566
L147.721 318.65
L147.82 318.739
L148.124 318.832
L148.225 318.928
L148.523 319.021
L148.623 319.104
L149.031 319.204
L149.126 319.259
L149.535 319.352
L149.635 319.416
L150.036 319.514
L150.134 319.573
L150.541 319.675
L150.641 319.746
L150.945 319.822
L151.044 319.903
L151.347 319.983
L151.448 320.058
L151.85 320.165
L151.954 320.238
L152.257 320.318
L152.358 320.393
L152.765 320.494
L152.865 320.556
L153.268 320.649
L153.367 320.708
L153.872 320.811
L153.974 320.855
L154.478 320.95
L154.576 320.994
L155.079 321.095
L155.181 321.157
L155.582 321.243
L155.684 321.303
L156.291 321.413
L156.392 321.443
L157.096 321.536
L157.198 321.571
L157.808 321.668
L157.907 321.714
L158.517 321.818
L158.616 321.852
L159.738 321.952
L159.842 321.98
L160.954 322.09
L161.055 322.102
L168.66 321.996
L168.761 321.964
L169.469 321.863
L169.571 321.827
L170.183 321.728
L170.288 321.683
L171 321.578
L171.1 321.547
L171.611 321.459
L171.712 321.408
L172.115 321.321
L172.218 321.258
L172.627 321.162
L172.723 321.098
L173.135 321.01
L173.24 320.952
L173.643 320.862
L173.745 320.797
L174.149 320.703
L174.252 320.64
L174.663 320.552
L174.764 320.494
L175.173 320.406
L175.272 320.359
L175.778 320.267
L175.884 320.224
L176.498 320.117
L176.595 320.068
L177.208 319.958
L177.309 319.912
L177.82 319.801
L177.921 319.74
L178.335 319.647
L178.435 319.592
L178.841 319.498
L178.945 319.428
L179.354 319.317
L179.457 319.256
L179.866 319.165
L179.969 319.109
L180.382 319.021
L180.484 318.962
L180.988 318.862
L181.089 318.819
L181.607 318.717
L181.708 318.668
L182.219 318.564
L182.321 318.509
L182.829 318.401
L182.927 318.352
L183.447 318.253
L183.549 318.207
L184.05 318.114
L184.154 318.069
L184.66 317.972
L184.76 317.931
L185.372 317.824
L185.474 317.782
L186.084 317.679
L186.187 317.643
L186.808 317.547
L186.911 317.498
L187.519 317.396
L187.622 317.361
L188.439 317.254
L188.542 317.216
L189.153 317.12
L189.256 317.078
L189.983 316.978
L190.087 316.943
L190.805 316.837
L190.909 316.792
L191.521 316.689
L191.623 316.657
L192.448 316.549
L192.55 316.519
L193.372 316.422
L193.475 316.391
L194.294 316.281
L194.395 316.248
L195.117 316.152
L195.215 316.12
L195.936 316.018
L196.041 315.989
L197.064 315.882
L197.166 315.86
L198.088 315.754
L198.191 315.728
L199.12 315.625
L199.222 315.604
L200.251 315.497
L200.353 315.47
L201.275 315.361
L201.378 315.339
L202.094 315.238
L202.197 315.199
L202.921 315.095
L203.024 315.063
L204.048 314.96
L204.153 314.934
L204.88 314.836
L204.981 314.8
L205.813 314.689
L205.919 314.658
L206.644 314.558
L206.75 314.519
L207.369 314.423
L207.471 314.392
L208.193 314.286
L208.296 314.253
L209.024 314.146
L209.126 314.104
L209.739 314.002
L209.846 313.97
L210.779 313.866
L210.881 313.839
L211.602 313.734
L211.705 313.694
L212.322 313.588
L212.426 313.546
L212.942 313.455
L213.045 313.407
L213.562 313.314
L213.665 313.265
L214.181 313.171
L214.285 313.125
L214.807 313.031
L214.909 312.986
L215.421 312.892
L215.527 312.841
L216.042 312.735
L216.148 312.687
L216.764 312.578
L216.869 312.547
L217.593 312.444
L217.695 312.411
L218.418 312.306
L218.522 312.272
L219.249 312.166
L219.353 312.125
L219.985 312.019
L220.087 311.971
L220.599 311.869
L220.704 311.815
L221.11 311.73
L221.213 311.668
L221.63 311.579
L221.735 311.523
L222.254 311.419
L222.357 311.365
L222.773 311.277
L222.876 311.216
L223.286 311.124
L223.392 311.065
L223.807 310.982
L223.907 310.923
L224.324 310.837
L224.427 310.783
L224.949 310.677
L225.053 310.626
L225.573 310.524
L225.675 310.478
L226.19 310.381
L226.294 310.333
L226.809 310.237
L226.911 310.195
L227.531 310.087
L227.636 310.04
L228.155 309.949
L228.254 309.906
L229.092 309.796
L229.195 309.766
L229.812 309.672
L229.914 309.627
L230.532 309.519
L230.639 309.476
L231.16 309.383
L231.263 309.333
L231.782 309.238
L231.886 309.192
L232.396 309.101
L232.5 309.057
L233.124 308.946
L233.227 308.899
L233.746 308.803
L233.848 308.753
L234.361 308.644
L234.469 308.591
L234.99 308.48
L235.093 308.426
L235.618 308.33
L235.723 308.28
L236.246 308.185
L236.349 308.135
L236.866 308.038
L236.972 307.99
L237.487 307.894
L237.588 307.842
L238.11 307.744
L238.215 307.696
L238.735 307.6
L238.841 307.552
L239.365 307.447
L239.47 307.394
L239.879 307.31
L239.981 307.255
L240.503 307.151
L240.61 307.099
L241.131 306.997
L241.236 306.948
L241.859 306.841
L241.962 306.8
L242.486 306.706
L242.591 306.655
L243.219 306.545
L243.321 306.5
L243.945 306.392
L244.052 306.351
L244.786 306.243
L244.89 306.209
L245.51 306.102
L245.616 306.051
L246.144 305.95
L246.25 305.899
L246.771 305.797
L246.877 305.744
L247.394 305.637
L247.495 305.578
L247.908 305.489
L248.014 305.427
L248.433 305.332
L248.538 305.271
L248.951 305.185
L249.056 305.127
L249.477 305.042
L249.578 304.989
L250.105 304.882
L250.208 304.829
L250.73 304.721
L250.838 304.661
L251.259 304.569
L251.362 304.505
L251.781 304.412
L251.884 304.351
L252.3 304.26
L252.406 304.199
L252.827 304.1
L252.931 304.033
L253.346 303.935
L253.451 303.869
L253.868 303.765
L253.969 303.696
L254.385 303.597
L254.493 303.533
L254.916 303.438
L255.021 303.373
L255.439 303.268
L255.547 303.189
L255.859 303.112
L255.964 303.035
L256.275 302.958
L256.377 302.884
L256.693 302.804
L256.796 302.724
L257.113 302.645
L257.218 302.563
L257.531 302.48
L257.634 302.395
L257.947 302.309
L258.05 302.225
L258.366 302.142
L258.472 302.06
L258.786 301.979
L258.889 301.897
L259.205 301.812
L259.31 301.726
L259.619 301.64
L259.723 301.555
L260.038 301.469
L260.141 301.385
L260.45 301.301
L260.556 301.219
L260.874 301.138
L260.978 301.058
L261.293 300.981
L261.398 300.905
L261.712 300.832
L261.816 300.757
L262.125 300.682
L262.231 300.606
L262.549 300.53
L262.653 300.453
L263.068 300.342
L263.17 300.266
L263.584 300.156
L263.689 300.081
L264.001 300.006
L264.102 299.932
L264.418 299.854
L264.525 299.778
L264.835 299.704
L264.939 299.63
L265.36 299.523
L265.466 299.449
L265.885 299.341
L265.993 299.268
L266.406 299.158
L266.51 299.077
L266.826 298.989
L266.931 298.906
L267.244 298.819
L267.351 298.731
L267.67 298.643
L267.773 298.556
L268.088 298.471
L268.193 298.384
L268.509 298.297
L268.614 298.212
L268.929 298.125
L269.032 298.038
L269.349 297.95
L269.45 297.869
L269.768 297.788
L269.874 297.709
L270.185 297.635
L270.289 297.56
L270.605 297.485
L270.709 297.411
L271.127 297.303
L271.233 297.231
L271.651 297.124
L271.756 297.055
L272.175 296.949
L272.284 296.877
L272.602 296.804
L272.704 296.728
L273.015 296.651
L273.122 296.575
L273.437 296.499
L273.542 296.425
L273.962 296.317
L274.068 296.246
L274.387 296.171
L274.488 296.098
L274.908 295.988
L275.013 295.911
L275.331 295.833
L275.438 295.751
L275.753 295.669
L275.859 295.586
L276.174 295.504
L276.28 295.422
L276.589 295.341
L276.696 295.26
L277.014 295.181
L277.12 295.101
L277.44 295.021
L277.546 294.937
L277.858 294.852
L277.965 294.768
L278.283 294.685
L278.389 294.6
L278.703 294.514
L278.806 294.427
L279.122 294.338
L279.225 294.251
L279.544 294.159
L279.649 294.07
L279.961 293.983
L280.071 293.893
L280.384 293.809
L280.493 293.721
L280.807 293.631
L280.914 293.538
L281.233 293.449
L281.334 293.365
L281.649 293.282
L281.754 293.2
L282.07 293.115
L282.176 293.03
L282.494 292.944
L282.597 292.861
L282.913 292.776
L283.019 292.689
L283.332 292.605
L283.434 292.526
L283.752 292.445
L283.859 292.366
L284.172 292.285
L284.276 292.206
L284.591 292.125
L284.696 292.044
L285.006 291.967
L285.113 291.886
L285.424 291.808
L285.528 291.729
L285.846 291.651
L285.953 291.572
L286.267 291.498
L286.372 291.423
L286.687 291.347
L286.794 291.269
L287.107 291.185
L287.213 291.099
L287.531 291.017
L287.636 290.938
L287.954 290.861
L288.057 290.787
L288.482 290.676
L288.585 290.599
L288.902 290.52
L289.006 290.441
L289.322 290.36
L289.428 290.278
L289.745 290.196
L289.849 290.116
L290.162 290.034
L290.269 289.951
L290.584 289.868
L290.689 289.783
L291.006 289.697
L291.112 289.611
L291.424 289.528
L291.529 289.442
L291.844 289.36
L291.949 289.276
L292.268 289.192
L292.377 289.109
L292.694 289.026
L292.8 288.947
L293.119 288.869
L293.221 288.793
L293.54 288.716
L293.645 288.643
L294.067 288.536
L294.175 288.463
L294.588 288.355
L294.694 288.282
L295.018 288.207
L295.122 288.133
L295.537 288.023
L295.644 287.95
L295.962 287.873
L296.07 287.795
L296.387 287.717
L296.489 287.64
L296.803 287.561
L296.906 287.485
L297.33 287.375
L297.434 287.304
L297.857 287.194
L297.963 287.12
L298.276 287.045
L298.384 286.97
L298.809 286.863
L298.913 286.796
L299.341 286.694
L299.446 286.627
L299.866 286.53
L299.974 286.466
L300.395 286.374
L300.503 286.311
L300.923 286.216
L301.027 286.155
L301.449 286.059
L301.557 285.994
L301.978 285.896
L302.084 285.826
L302.505 285.717
L302.612 285.643
L303.037 285.533
L303.139 285.458
L303.456 285.383
L303.564 285.31
L303.986 285.201
L304.087 285.129
L304.508 285.021
L304.615 284.952
L305.041 284.842
L305.145 284.77
L305.573 284.662
L305.681 284.59
L306.108 284.482
L306.213 284.409
L306.633 284.302
L306.737 284.232
L307.163 284.121
L307.272 284.05
L307.692 283.948
L307.797 283.88
L308.221 283.78
L308.325 283.711
L308.745 283.61
L308.852 283.547
L309.281 283.453
L309.389 283.39
L309.807 283.3
L309.916 283.242
L310.342 283.155
L310.45 283.098
L310.979 282.989
L311.084 282.934
L311.608 282.827
L311.717 282.772
L312.141 282.687
L312.246 282.634
L312.783 282.525
L312.892 282.472
L313.413 282.369
L313.518 282.32
L314.045 282.222
L314.152 282.174
L314.791 282.064
L314.894 282.021
L315.529 281.91
L315.636 281.866
L316.277 281.757
L316.38 281.714
L317.011 281.614
L317.115 281.575
L317.857 281.474
L317.965 281.44
L318.81 281.332
L318.914 281.302
L319.654 281.201
L319.758 281.168
L320.504 281.062
L320.613 281.023
L321.251 280.929
L321.357 280.892
L322.088 280.793
L322.193 280.761
L322.94 280.651
L323.042 280.617
L323.789 280.509
L323.893 280.472
L324.636 280.366
L324.741 280.329
L325.368 280.231
L325.476 280.192
L326.117 280.089
L326.223 280.048
L326.861 279.945
L326.966 279.903
L327.607 279.799
L327.714 279.758
L328.353 279.656
L328.459 279.618
L329.095 279.521
L329.201 279.484
L329.842 279.384
L329.948 279.341
L330.581 279.242
L330.689 279.205
L331.326 279.111
L331.433 279.074
L332.177 278.964
L332.282 278.926
L333.017 278.823
L333.125 278.791
L333.874 278.696
L333.979 278.662
L334.726 278.553
L334.829 278.517
L335.578 278.417
L335.685 278.385
L336.432 278.279
L336.537 278.243
L337.282 278.137
L337.387 278.103
L338.13 278.001
L338.234 277.966
L338.984 277.858
L339.088 277.823
L339.836 277.721
L339.943 277.689
L340.686 277.585
L340.792 277.549
L341.533 277.449
L341.642 277.418
L342.49 277.309
L342.598 277.276
L343.335 277.176
L343.439 277.144
L344.187 277.04
L344.292 277.006
L345.047 276.906
L345.154 276.873
L346.012 276.763
L346.116 276.733
L346.969 276.624
L347.079 276.595
L347.932 276.491
L348.037 276.462
L348.893 276.36
L348.996 276.331
L349.847 276.226
L349.952 276.196
L350.809 276.092
L350.913 276.064
L351.764 275.965
L351.873 275.939
L352.839 275.834
L352.945 275.806
L353.796 275.699
L353.903 275.666
L354.759 275.558
L354.86 275.528
L355.715 275.42
L355.821 275.391
L356.885 275.28
L356.992 275.258
L358.276 275.151
L358.38 275.131
L359.868 275.02
L359.976 275.003
L361.36 274.899
L361.468 274.88
L362.864 274.771
L362.972 274.751
L364.257 274.642
L364.365 274.622
L365.433 274.512
L365.543 274.486
L366.504 274.379
L366.61 274.353
L367.46 274.253
L367.57 274.223
L368.428 274.118
L368.537 274.087
L369.394 273.979
L369.498 273.948
L370.346 273.839
L370.454 273.811
L371.415 273.699
L371.517 273.676
L372.37 273.571
L372.479 273.539
L373.224 273.436
L373.331 273.4
L374.081 273.294
L374.188 273.258
L374.94 273.148
L375.047 273.113
L375.797 273.002
L375.906 272.963
L376.65 272.853
L376.754 272.817
L377.501 272.707
L377.608 272.675
L378.465 272.569
L378.571 272.538
L379.43 272.43
L379.533 272.4
L380.39 272.291
L380.496 272.26
L381.356 272.159
L381.462 272.134
L382.43 272.029
L382.539 272.006
L383.717 271.895
L383.825 271.875
L385.117 271.772
L385.224 271.749
L386.404 271.645
L386.51 271.624
L387.793 271.514
L387.9 271.492
L389.073 271.386
L389.181 271.366
L390.582 271.263
L390.689 271.245
L391.868 271.144
L391.977 271.123
L393.148 271.015
L393.259 270.989
L394.229 270.879
L394.333 270.85
L395.307 270.739
L395.413 270.711
L396.271 270.6
L396.38 270.567
L397.13 270.466
L397.239 270.433
L397.986 270.333
L398.09 270.301
L398.84 270.204
L398.947 270.173
L399.819 270.067
L399.925 270.04
L400.892 269.935
L401.001 269.91
L402.06 269.803
L402.17 269.779
L403.134 269.679
L403.244 269.655
L404.535 269.548
L404.643 269.529
L405.823 269.427
L405.931 269.408
L407.009 269.31
L407.118 269.284
L408.084 269.183
L408.084 269.17
L409.05 269.062
L409.159 269.034
L410.128 268.93
L410.237 268.904
L411.203 268.805
L411.312 268.78
L412.182 268.677
L412.285 268.646
L413.044 268.548
L413.15 268.515
L414.013 268.405
L414.013 268.391
L414.876 268.286
L414.983 268.253
L415.739 268.148
L415.84 268.115
L416.602 268.013
L416.708 267.98
L417.454 267.881
L417.562 267.851
L418.315 267.748
L418.419 267.715
L419.175 267.618
L419.284 267.584
L420.036 267.482
L420.036 267.465
L420.894 267.357
L421.001 267.33
L421.861 267.234
L421.97 267.203
L422.834 267.094
L422.945 267.061
L423.808 266.956
L423.916 266.926
L424.891 266.815
L424.891 266.801
L425.758 266.699
L425.867 266.67
L426.724 266.572
L426.833 266.544
L427.802 266.436
L427.909 266.408
L428.777 266.306
L428.884 266.276
L429.75 266.171
L429.859 266.141
L430.614 266.047
L430.724 266.013
L431.475 265.913
L431.583 265.882
L432.34 265.787
L432.446 265.753
L433.205 265.646
L433.315 265.61
L434.077 265.505
L434.185 265.472
L434.939 265.372
L435.048 265.339
L435.802 265.237
L435.907 265.204
L436.672 265.094
L436.775 265.056
L437.422 264.96
L437.529 264.92
L438.179 264.81
L438.288 264.762
L438.832 264.669
L438.939 264.623
L439.478 264.532
L439.583 264.483
L440.127 264.388
L440.231 264.343
L440.772 264.248
L440.772 264.224
L441.315 264.13
L441.423 264.085
L442.075 263.974
L442.075 263.951
L442.615 263.86
L442.723 263.817
L443.27 263.724
L443.375 263.681
L444.022 263.571
L444.129 263.525
L444.772 263.419
L444.882 263.375
L445.533 263.269
L445.644 263.227
L446.287 263.128
L446.395 263.087
L447.041 262.981
L447.147 262.939
L447.787 262.835
L447.893 262.792
L448.435 262.703
L448.541 262.657
L449.087 262.565
L449.194 262.52
L449.729 262.43
L449.837 262.385
L450.384 262.295
L450.49 262.25
L451.033 262.16
L451.14 262.117
L451.792 262.011
L451.898 261.968
L452.543 261.866
L452.652 261.827
L453.302 261.73
L453.409 261.69
L454.068 261.589
L454.175 261.549
L454.825 261.449
L454.933 261.409
L455.584 261.315
L455.692 261.277
L456.448 261.167
L456.552 261.133
L457.307 261.029
L457.415 260.995
L458.177 260.89
L458.287 260.854
L459.05 260.747
L459.158 260.713
L459.917 260.609
L459.917 260.592
L460.676 260.486
L460.782 260.451
L461.542 260.344
L461.652 260.311
L462.507 260.204
L462.615 260.174
L463.381 260.077
L463.49 260.044
L464.254 259.937
L464.361 259.902
L465.118 259.798
L465.224 259.763
L465.991 259.652
L466.099 259.616
L466.856 259.51
L466.856 259.492
L467.62 259.383
L467.726 259.347
L468.381 259.245
L468.381 259.225
L469.035 259.117
L469.145 259.072
L469.682 258.982
L469.682 258.96
L470.329 258.853
L470.44 258.808
L470.983 258.718
L471.091 258.673
L471.636 258.58
L471.743 258.533
L472.283 258.434
L472.393 258.384
L472.934 258.287
L473.044 258.239
L473.584 258.148
L473.692 258.101
L474.242 258.01
L474.349 257.965
L474.892 257.874
L475.001 257.827
L475.54 257.735
L475.649 257.689
L476.193 257.593
L476.297 257.547
L476.842 257.452
L476.952 257.406
L477.494 257.309
L477.601 257.259
L478.147 257.154
L478.254 257.103
L478.798 257.006
L478.908 256.957
L479.446 256.863
L479.555 256.817
L480.1 256.725
L480.21 256.679
L480.761 256.589
L480.864 256.544
L481.516 256.434
L481.625 256.388
L482.173 256.296
L482.281 256.249
L482.82 256.159
L482.82 256.136
L483.363 256.043
L483.472 255.997
L484.123 255.89
L484.227 255.849
L484.871 255.747
L484.871 255.728
L485.525 255.628
L485.633 255.588
L486.299 255.483
L486.41 255.444
L487.058 255.351
L487.166 255.313
L487.815 255.219
L487.922 255.183
L488.684 255.077
L488.794 255.043
L489.551 254.94
L489.658 254.906
L490.421 254.806
L490.531 254.774
L491.406 254.668
L491.515 254.636
L492.395 254.534
L492.506 254.506
L493.379 254.397
L493.488 254.366
L494.245 254.268
L494.352 254.235
L495.111 254.14
L495.216 254.108
L495.977 254.012
L496.083 253.98
L496.849 253.882
L496.956 253.85
L497.827 253.739
L497.935 253.709
L498.806 253.603
L498.915 253.571
L499.68 253.467
L499.786 253.432
L500.542 253.33
L500.651 253.295
L501.415 253.191
L501.526 253.158
L502.392 253.05
L502.501 253.02
L503.379 252.912
L503.488 252.882
L504.358 252.775
L504.465 252.744
L505.339 252.639
L505.447 252.61
L506.321 252.505
L506.43 252.476
L507.301 252.365
L507.301 252.349
L508.17 252.244
L508.277 252.214
L509.045 252.115
L509.045 252.098
L509.816 251.998
L509.923 251.967
L510.797 251.862
L510.904 251.832
L511.771 251.729
L511.881 251.701
L512.871 251.591
L512.978 251.563
L513.847 251.466
L513.956 251.437
L514.934 251.328
L514.934 251.314
L515.807 251.214
L515.915 251.184
L516.792 251.083
L516.898 251.056
L517.88 250.947
L517.88 250.932
L518.746 250.829
L518.856 250.799
L519.724 250.695
L519.833 250.666
L520.818 250.556
L520.926 250.529
L521.901 250.422
L521.901 250.409
L522.889 250.307
L522.997 250.281
L523.98 250.173
L524.088 250.147
L525.072 250.04
L525.18 250.014
L526.169 249.906
L526.277 249.877
L527.15 249.775
L527.15 249.76
L528.02 249.66
L528.129 249.632
L529.111 249.523
L529.111 249.509
L530.092 249.401
L530.202 249.373
L531.192 249.268
L531.301 249.242
L532.281 249.142
L532.386 249.118
L533.368 249.018
L533.476 248.994
L534.56 248.887
L534.56 248.875
L535.666 248.772
L535.666 248.761
L536.866 248.65
L536.976 248.629
L538.173 248.528
L538.281 248.507
L539.495 248.405
L539.495 248.395
L540.809 248.29
L540.809 248.282
L542.129 248.173
L542.129 248.163
L543.323 248.054
L543.433 248.032
L544.535 247.932
L544.643 247.909
L545.187 247.865
L545.187 247.853" style="fill:none;stroke:#ff0000;stroke-width:0.5;"/>
   </g>
   <g id="matplotlib.axis_1">
    <g id="xtick_1">
     <g id="line2d_2">
      <defs>
       <path d="
M0 0
L0 -4" id="me2ec79df32"/>
      </defs>
      <g>
       <use style="stroke:#000000;stroke-linecap:butt;stroke-width:0.5;" x="29.6609375" xlink:href="#me2ec79df32" y="17.239297322"/>
      </g>
     </g>
    </g>
    <g id="xtick_2">
     <g id="line2d_3">
      <defs>
       <path d="
M0 0
L0 -4" id="me2ec79df32"/>
      </defs>
      <g>
       <use style="stroke:#000000;stroke-linecap:butt;stroke-width:0.5;" x="132.772084316" xlink:href="#me2ec79df32" y="17.239297322"/>
      </g>
     </g>
     <g id="text_1">
      <!-- 2e7 -->
      <defs>
       <path d="
M19.1875 8.29688
L53.6094 8.29688
L53.6094 0
L7.32812 0
L7.32812 8.29688
Q12.9375 14.1094 22.625 23.8906
Q32.3281 33.6875 34.8125 36.5312
Q39.5469 41.8438 41.4219 45.5312
Q43.3125 49.2188 43.3125 52.7812
Q43.3125 58.5938 39.2344 62.25
Q35.1562 65.9219 28.6094 65.9219
Q23.9688 65.9219 18.8125 64.3125
Q13.6719 62.7031 7.8125 59.4219
L7.8125 69.3906
Q13.7656 71.7812 18.9375 73
Q24.125 74.2188 28.4219 74.2188
Q39.75 74.2188 46.4844 68.5469
Q53.2188 62.8906 53.2188 53.4219
Q53.2188 48.9219 51.5312 44.8906
Q49.8594 40.875 45.4062 35.4062
Q44.1875 33.9844 37.6406 27.2188
Q31.1094 20.4531 19.1875 8.29688" id="BitstreamVeraSans-Roman-32"/>
       <path d="
M56.2031 29.5938
L56.2031 25.2031
L14.8906 25.2031
Q15.4844 15.9219 20.4844 11.0625
Q25.4844 6.20312 34.4219 6.20312
Q39.5938 6.20312 44.4531 7.46875
Q49.3125 8.73438 54.1094 11.2812
L54.1094 2.78125
Q49.2656 0.734375 44.1875 -0.34375
Q39.1094 -1.42188 33.8906 -1.42188
Q20.7969 -1.42188 13.1562 6.1875
Q5.51562 13.8125 5.51562 26.8125
Q5.51562 40.2344 12.7656 48.1094
Q20.0156 56 32.3281 56
Q43.3594 56 49.7812 48.8906
Q56.2031 41.7969 56.2031 29.5938
M47.2188 32.2344
Q47.125 39.5938 43.0938 43.9844
Q39.0625 48.3906 32.4219 48.3906
Q24.9062 48.3906 20.3906 44.1406
Q15.875 39.8906 15.1875 32.1719
z
" id="BitstreamVeraSans-Roman-65"/>
       <path d="
M8.20312 72.9062
L55.0781 72.9062
L55.0781 68.7031
L28.6094 0
L18.3125 0
L43.2188 64.5938
L8.20312 64.5938
z
" id="BitstreamVeraSans-Roman-37"/>
      </defs>
      <g transform="translate(124.126771816 28.661172322)scale(0.1 -0.1)">
       <use xlink:href="#BitstreamVeraSans-Roman-32"/>
       <use x="63.623046875" xlink:href="#BitstreamVeraSans-Roman-65"/>
       <use x="125.146484375" xlink:href="#BitstreamVeraSans-Roman-37"/>
      </g>
     </g>
    </g>
    <g id="xtick_3">
     <g id="line2d_4">
      <defs>
       <path d="
M0 0
L0 -4" id="me2ec79df32"/>
      </defs>
      <g>
       <use style="stroke:#000000;stroke-linecap:butt;stroke-width:0.5;" x="235.883231132" xlink:href="#me2ec79df32" y="17.239297322"/>
      </g>
     </g>
     <g id="text_2">
      <!-- 4e7 -->
      <defs>
       <path d="
M37.7969 64.3125
L12.8906 25.3906
L37.7969 25.3906
z

M35.2031 72.9062
L47.6094 72.9062
L47.6094 25.3906
L58.0156 25.3906
L58.0156 17.1875
L47.6094 17.1875
L47.6094 0
L37.7969 0
L37.7969 17.1875
L4.89062 17.1875
L4.89062 26.7031
z
" id="BitstreamVeraSans-Roman-34"/>
      </defs>
      <g transform="translate(227.116043632 28.529922322)scale(0.1 -0.1)">
       <use xlink:href="#BitstreamVeraSans-Roman-34"/>
       <use x="63.623046875" xlink:href="#BitstreamVeraSans-Roman-65"/>
       <use x="125.146484375" xlink:href="#BitstreamVeraSans-Roman-37"/>
      </g>
     </g>
    </g>
    <g id="xtick_4">
     <g id="line2d_5">
      <defs>
       <path d="
M0 0
L0 -4" id="me2ec79df32"/>
      </defs>
      <g>
       <use style="stroke:#000000;stroke-linecap:butt;stroke-width:0.5;" x="338.994377947" xlink:href="#me2ec79df32" y="17.239297322"/>
      </g>
     </g>
     <g id="text_3">
      <!-- 6e7 -->
      <defs>
       <path d="
M33.0156 40.375
Q26.375 40.375 22.4844 35.8281
Q18.6094 31.2969 18.6094 23.3906
Q18.6094 15.5312 22.4844 10.9531
Q26.375 6.39062 33.0156 6.39062
Q39.6562 6.39062 43.5312 10.9531
Q47.4062 15.5312 47.4062 23.3906
Q47.4062 31.2969 43.5312 35.8281
Q39.6562 40.375 33.0156 40.375
M52.5938 71.2969
L52.5938 62.3125
Q48.875 64.0625 45.0938 64.9844
Q41.3125 65.9219 37.5938 65.9219
Q27.8281 65.9219 22.6719 59.3281
Q17.5312 52.7344 16.7969 39.4062
Q19.6719 43.6562 24.0156 45.9219
Q28.375 48.1875 33.5938 48.1875
Q44.5781 48.1875 50.9531 41.5156
Q57.3281 34.8594 57.3281 23.3906
Q57.3281 12.1562 50.6875 5.35938
Q44.0469 -1.42188 33.0156 -1.42188
Q20.3594 -1.42188 13.6719 8.26562
Q6.98438 17.9688 6.98438 36.375
Q6.98438 53.6562 15.1875 63.9375
Q23.3906 74.2188 37.2031 74.2188
Q40.9219 74.2188 44.7031 73.4844
Q48.4844 72.75 52.5938 71.2969" id="BitstreamVeraSans-Roman-36"/>
      </defs>
      <g transform="translate(330.331877947 28.661172322)scale(0.1 -0.1)">
       <use xlink:href="#BitstreamVeraSans-Roman-36"/>
       <use x="63.623046875" xlink:href="#BitstreamVeraSans-Roman-65"/>
       <use x="125.146484375" xlink:href="#BitstreamVeraSans-Roman-37"/>
      </g>
     </g>
    </g>
    <g id="xtick_5">
     <g id="line2d_6">
      <defs>
       <path d="
M0 0
L0 -4" id="me2ec79df32"/>
      </defs>
      <g>
       <use style="stroke:#000000;stroke-linecap:butt;stroke-width:0.5;" x="442.105524763" xlink:href="#me2ec79df32" y="17.239297322"/>
      </g>
     </g>
     <g id="text_4">
      <!-- 8e7 -->
      <defs>
       <path d="
M31.7812 34.625
Q24.75 34.625 20.7188 30.8594
Q16.7031 27.0938 16.7031 20.5156
Q16.7031 13.9219 20.7188 10.1562
Q24.75 6.39062 31.7812 6.39062
Q38.8125 6.39062 42.8594 10.1719
Q46.9219 13.9688 46.9219 20.5156
Q46.9219 27.0938 42.8906 30.8594
Q38.875 34.625 31.7812 34.625
M21.9219 38.8125
Q15.5781 40.375 12.0312 44.7188
Q8.5 49.0781 8.5 55.3281
Q8.5 64.0625 14.7188 69.1406
Q20.9531 74.2188 31.7812 74.2188
Q42.6719 74.2188 48.875 69.1406
Q55.0781 64.0625 55.0781 55.3281
Q55.0781 49.0781 51.5312 44.7188
Q48 40.375 41.7031 38.8125
Q48.8281 37.1562 52.7969 32.3125
Q56.7812 27.4844 56.7812 20.5156
Q56.7812 9.90625 50.3125 4.23438
Q43.8438 -1.42188 31.7812 -1.42188
Q19.7344 -1.42188 13.25 4.23438
Q6.78125 9.90625 6.78125 20.5156
Q6.78125 27.4844 10.7812 32.3125
Q14.7969 37.1562 21.9219 38.8125
M18.3125 54.3906
Q18.3125 48.7344 21.8438 45.5625
Q25.3906 42.3906 31.7812 42.3906
Q38.1406 42.3906 41.7188 45.5625
Q45.3125 48.7344 45.3125 54.3906
Q45.3125 60.0625 41.7188 63.2344
Q38.1406 66.4062 31.7812 66.4062
Q25.3906 66.4062 21.8438 63.2344
Q18.3125 60.0625 18.3125 54.3906" id="BitstreamVeraSans-Roman-38"/>
      </defs>
      <g transform="translate(433.432868513 28.661172322)scale(0.1 -0.1)">
       <use xlink:href="#BitstreamVeraSans-Roman-38"/>
       <use x="63.623046875" xlink:href="#BitstreamVeraSans-Roman-65"/>
       <use x="125.146484375" xlink:href="#BitstreamVeraSans-Roman-37"/>
      </g>
     </g>
    </g>
    <g id="xtick_6">
     <g id="line2d_7">
      <defs>
       <path d="
M0 0
L0 -4" id="me2ec79df32"/>
      </defs>
      <g>
       <use style="stroke:#000000;stroke-linecap:butt;stroke-width:0.5;" x="545.216671579" xlink:href="#me2ec79df32" y="17.239297322"/>
      </g>
     </g>
     <g id="text_5">
      <!-- 1e8 -->
      <defs>
       <path d="
M12.4062 8.29688
L28.5156 8.29688
L28.5156 63.9219
L10.9844 60.4062
L10.9844 69.3906
L28.4219 72.9062
L38.2812 72.9062
L38.2812 8.29688
L54.3906 8.29688
L54.3906 0
L12.4062 0
z
" id="BitstreamVeraSans-Roman-31"/>
      </defs>
      <g transform="translate(536.669015329 28.661172322)scale(0.1 -0.1)">
       <use xlink:href="#BitstreamVeraSans-Roman-31"/>
       <use x="63.623046875" xlink:href="#BitstreamVeraSans-Roman-65"/>
       <use x="125.146484375" xlink:href="#BitstreamVeraSans-Roman-38"/>
      </g>
     </g>
    </g>
    <g id="xtick_7">
     <g id="line2d_8">
      <defs>
       <path d="
M0 0
L0 -2" id="m9c5732dfff"/>
      </defs>
      <g>
       <use style="stroke:#000000;stroke-linecap:butt;stroke-width:0.5;" x="55.4387242039" xlink:href="#m9c5732dfff" y="17.239297322"/>
      </g>
     </g>
    </g>
    <g id="xtick_8">
     <g id="line2d_9">
      <defs>
       <path d="
M0 0
L0 -2" id="m9c5732dfff"/>
      </defs>
      <g>
       <use style="stroke:#000000;stroke-linecap:butt;stroke-width:0.5;" x="81.2165109079" xlink:href="#m9c5732dfff" y="17.239297322"/>
      </g>
     </g>
    </g>
    <g id="xtick_9">
     <g id="line2d_10">
      <defs>
       <path d="
M0 0
L0 -2" id="m9c5732dfff"/>
      </defs>
      <g>
       <use style="stroke:#000000;stroke-linecap:butt;stroke-width:0.5;" x="106.994297612" xlink:href="#m9c5732dfff" y="17.239297322"/>
      </g>
     </g>
    </g>
    <g id="xtick_10">
     <g id="line2d_11">
      <defs>
       <path d="
M0 0
L0 -2" id="m9c5732dfff"/>
      </defs>
      <g>
       <use style="stroke:#000000;stroke-linecap:butt;stroke-width:0.5;" x="158.54987102" xlink:href="#m9c5732dfff" y="17.239297322"/>
      </g>
     </g>
    </g>
    <g id="xtick_11">
     <g id="line2d_12">
      <defs>
       <path d="
M0 0
L0 -2" id="m9c5732dfff"/>
      </defs>
      <g>
       <use style="stroke:#000000;stroke-linecap:butt;stroke-width:0.5;" x="184.327657724" xlink:href="#m9c5732dfff" y="17.239297322"/>
      </g>
     </g>
    </g>
    <g id="xtick_12">
     <g id="line2d_13">
      <defs>
       <path d="
M0 0
L0 -2" id="m9c5732dfff"/>
      </defs>
      <g>
       <use style="stroke:#000000;stroke-linecap:butt;stroke-width:0.5;" x="210.105444428" xlink:href="#m9c5732dfff" y="17.239297322"/>
      </g>
     </g>
    </g>
    <g id="xtick_13">
     <g id="line2d_14">
      <defs>
       <path d="
M0 0
L0 -2" id="m9c5732dfff"/>
      </defs>
      <g>
       <use style="stroke:#000000;stroke-linecap:butt;stroke-width:0.5;" x="261.661017835" xlink:href="#m9c5732dfff" y="17.239297322"/>
      </g>
     </g>
    </g>
    <g id="xtick_14">
     <g id="line2d_15">
      <defs>
       <path d="
M0 0
L0 -2" id="m9c5732dfff"/>
      </defs>
      <g>
       <use style="stroke:#000000;stroke-linecap:butt;stroke-width:0.5;" x="287.438804539" xlink:href="#m9c5732dfff" y="17.239297322"/>
      </g>
     </g>
    </g>
    <g id="xtick_15">
     <g id="line2d_16">
      <defs>
       <path d="
M0 0
L0 -2" id="m9c5732dfff"/>
      </defs>
      <g>
       <use style="stroke:#000000;stroke-linecap:butt;stroke-width:0.5;" x="313.216591243" xlink:href="#m9c5732dfff" y="17.239297322"/>
      </g>
     </g>
    </g>
    <g id="xtick_16">
     <g id="line2d_17">
      <defs>
       <path d="
M0 0
L0 -2" id="m9c5732dfff"/>
      </defs>
      <g>
       <use style="stroke:#000000;stroke-linecap:butt;stroke-width:0.5;" x="364.772164651" xlink:href="#m9c5732dfff" y="17.239297322"/>
      </g>
     </g>
    </g>
    <g id="xtick_17">
     <g id="line2d_18">
      <defs>
       <path d="
M0 0
L0 -2" id="m9c5732dfff"/>
      </defs>
      <g>
       <use style="stroke:#000000;stroke-linecap:butt;stroke-width:0.5;" x="390.549951355" xlink:href="#m9c5732dfff" y="17.239297322"/>
      </g>
     </g>
    </g>
    <g id="xtick_18">
     <g id="line2d_19">
      <defs>
       <path d="
M0 0
L0 -2" id="m9c5732dfff"/>
      </defs>
      <g>
       <use style="stroke:#000000;stroke-linecap:butt;stroke-width:0.5;" x="416.327738059" xlink:href="#m9c5732dfff" y="17.239297322"/>
      </g>
     </g>
    </g>
    <g id="xtick_19">
     <g id="line2d_20">
      <defs>
       <path d="
M0 0
L0 -2" id="m9c5732dfff"/>
      </defs>
      <g>
       <use style="stroke:#000000;stroke-linecap:butt;stroke-width:0.5;" x="467.883311467" xlink:href="#m9c5732dfff" y="17.239297322"/>
      </g>
     </g>
    </g>
    <g id="xtick_20">
     <g id="line2d_21">
      <defs>
       <path d="
M0 0
L0 -2" id="m9c5732dfff"/>
      </defs>
      <g>
       <use style="stroke:#000000;stroke-linecap:butt;stroke-width:0.5;" x="493.661098171" xlink:href="#m9c5732dfff" y="17.239297322"/>
      </g>
     </g>
    </g>
    <g id="xtick_21">
     <g id="line2d_22">
      <defs>
       <path d="
M0 0
L0 -2" id="m9c5732dfff"/>
      </defs>
      <g>
       <use style="stroke:#000000;stroke-linecap:butt;stroke-width:0.5;" x="519.438884875" xlink:href="#m9c5732dfff" y="17.239297322"/>
      </g>
     </g>
    </g>
   </g>
   <g id="matplotlib.axis_2">
    <g id="ytick_1">
     <g id="line2d_23">
      <defs>
       <path d="
M0 0
L4 0" id="me6d16c797d"/>
      </defs>
      <g>
       <use style="stroke:#000000;stroke-linecap:butt;stroke-width:0.5;" x="29.6609375" xlink:href="#me6d16c797d" y="369.066857334"/>
      </g>
     </g>
     <g id="text_6">
      <!-- -0.8 -->
      <defs>
       <path d="
M31.7812 66.4062
Q24.1719 66.4062 20.3281 58.9062
Q16.5 51.4219 16.5 36.375
Q16.5 21.3906 20.3281 13.8906
Q24.1719 6.39062 31.7812 6.39062
Q39.4531 6.39062 43.2812 13.8906
Q47.125 21.3906 47.125 36.375
Q47.125 51.4219 43.2812 58.9062
Q39.4531 66.4062 31.7812 66.4062
M31.7812 74.2188
Q44.0469 74.2188 50.5156 64.5156
Q56.9844 54.8281 56.9844 36.375
Q56.9844 17.9688 50.5156 8.26562
Q44.0469 -1.42188 31.7812 -1.42188
Q19.5312 -1.42188 13.0625 8.26562
Q6.59375 17.9688 6.59375 36.375
Q6.59375 54.8281 13.0625 64.5156
Q19.5312 74.2188 31.7812 74.2188" id="BitstreamVeraSans-Roman-30"/>
       <path d="
M10.6875 12.4062
L21 12.4062
L21 0
L10.6875 0
z
" id="BitstreamVeraSans-Roman-2e"/>
       <path d="
M4.89062 31.3906
L31.2031 31.3906
L31.2031 23.3906
L4.89062 23.3906
z
" id="BitstreamVeraSans-Roman-2d"/>
      </defs>
      <g transform="translate(7.3234375 372.706701084)scale(0.1 -0.1)">
       <use xlink:href="#BitstreamVeraSans-Roman-2d"/>
       <use x="36.083984375" xlink:href="#BitstreamVeraSans-Roman-30"/>
       <use x="99.70703125" xlink:href="#BitstreamVeraSans-Roman-2e"/>
       <use x="131.494140625" xlink:href="#BitstreamVeraSans-Roman-38"/>
      </g>
     </g>
    </g>
    <g id="ytick_2">
     <g id="line2d_24">
      <defs>
       <path d="
M0 0
L4 0" id="me6d16c797d"/>
      </defs>
      <g>
       <use style="stroke:#000000;stroke-linecap:butt;stroke-width:0.5;" x="29.6609375" xlink:href="#me6d16c797d" y="281.109967331"/>
      </g>
     </g>
     <g id="text_7">
      <!-- -0.6 -->
      <g transform="translate(7.26875 284.749811081)scale(0.1 -0.1)">
       <use xlink:href="#BitstreamVeraSans-Roman-2d"/>
       <use x="36.083984375" xlink:href="#BitstreamVeraSans-Roman-30"/>
       <use x="99.70703125" xlink:href="#BitstreamVeraSans-Roman-2e"/>
       <use x="131.494140625" xlink:href="#BitstreamVeraSans-Roman-36"/>
      </g>
     </g>
    </g>
    <g id="ytick_3">
     <g id="line2d_25">
      <defs>
       <path d="
M0 0
L4 0" id="me6d16c797d"/>
      </defs>
      <g>
       <use style="stroke:#000000;stroke-linecap:butt;stroke-width:0.5;" x="29.6609375" xlink:href="#me6d16c797d" y="193.153077328"/>
      </g>
     </g>
     <g id="text_8">
      <!-- -0.4 -->
      <g transform="translate(7.2 196.792921078)scale(0.1 -0.1)">
       <use xlink:href="#BitstreamVeraSans-Roman-2d"/>
       <use x="36.083984375" xlink:href="#BitstreamVeraSans-Roman-30"/>
       <use x="99.70703125" xlink:href="#BitstreamVeraSans-Roman-2e"/>
       <use x="131.494140625" xlink:href="#BitstreamVeraSans-Roman-34"/>
      </g>
     </g>
    </g>
    <g id="ytick_4">
     <g id="line2d_26">
      <defs>
       <path d="
M0 0
L4 0" id="me6d16c797d"/>
      </defs>
      <g>
       <use style="stroke:#000000;stroke-linecap:butt;stroke-width:0.5;" x="29.6609375" xlink:href="#me6d16c797d" y="105.196187325"/>
      </g>
     </g>
     <g id="text_9">
      <!-- -0.2 -->
      <g transform="translate(7.640625 108.836031075)scale(0.1 -0.1)">
       <use xlink:href="#BitstreamVeraSans-Roman-2d"/>
       <use x="36.083984375" xlink:href="#BitstreamVeraSans-Roman-30"/>
       <use x="99.70703125" xlink:href="#BitstreamVeraSans-Roman-2e"/>
       <use x="131.494140625" xlink:href="#BitstreamVeraSans-Roman-32"/>
      </g>
     </g>
    </g>
    <g id="ytick_5">
     <g id="line2d_27">
      <defs>
       <path d="
M0 0
L4 0" id="me6d16c797d"/>
      </defs>
      <g>
       <use style="stroke:#000000;stroke-linecap:butt;stroke-width:0.5;" x="29.6609375" xlink:href="#me6d16c797d" y="17.239297322"/>
      </g>
     </g>
    </g>
    <g id="ytick_6">
     <g id="line2d_28">
      <defs>
       <path d="
M0 0
L2 0" id="m473220213b"/>
      </defs>
      <g>
       <use style="stroke:#000000;stroke-linecap:butt;stroke-width:0.5;" x="29.6609375" xlink:href="#m473220213b" y="413.045302336"/>
      </g>
     </g>
    </g>
    <g id="ytick_7">
     <g id="line2d_29">
      <defs>
       <path d="
M0 0
L2 0" id="m473220213b"/>
      </defs>
      <g>
       <use style="stroke:#000000;stroke-linecap:butt;stroke-width:0.5;" x="29.6609375" xlink:href="#m473220213b" y="391.056079835"/>
      </g>
     </g>
    </g>
    <g id="ytick_8">
     <g id="line2d_30">
      <defs>
       <path d="
M0 0
L2 0" id="m473220213b"/>
      </defs>
      <g>
       <use style="stroke:#000000;stroke-linecap:butt;stroke-width:0.5;" x="29.6609375" xlink:href="#m473220213b" y="347.077634834"/>
      </g>
     </g>
    </g>
    <g id="ytick_9">
     <g id="line2d_31">
      <defs>
       <path d="
M0 0
L2 0" id="m473220213b"/>
      </defs>
      <g>
       <use style="stroke:#000000;stroke-linecap:butt;stroke-width:0.5;" x="29.6609375" xlink:href="#m473220213b" y="325.088412333"/>
      </g>
     </g>
    </g>
    <g id="ytick_10">
     <g id="line2d_32">
      <defs>
       <path d="
M0 0
L2 0" id="m473220213b"/>
      </defs>
      <g>
       <use style="stroke:#000000;stroke-linecap:butt;stroke-width:0.5;" x="29.6609375" xlink:href="#m473220213b" y="303.099189832"/>
      </g>
     </g>
    </g>
    <g id="ytick_11">
     <g id="line2d_33">
      <defs>
       <path d="
M0 0
L2 0" id="m473220213b"/>
      </defs>
      <g>
       <use style="stroke:#000000;stroke-linecap:butt;stroke-width:0.5;" x="29.6609375" xlink:href="#m473220213b" y="259.120744831"/>
      </g>
     </g>
    </g>
    <g id="ytick_12">
     <g id="line2d_34">
      <defs>
       <path d="
M0 0
L2 0" id="m473220213b"/>
      </defs>
      <g>
       <use style="stroke:#000000;stroke-linecap:butt;stroke-width:0.5;" x="29.6609375" xlink:href="#m473220213b" y="237.13152233"/>
      </g>
     </g>
    </g>
    <g id="ytick_13">
     <g id="line2d_35">
      <defs>
       <path d="
M0 0
L2 0" id="m473220213b"/>
      </defs>
      <g>
       <use style="stroke:#000000;stroke-linecap:butt;stroke-width:0.5;" x="29.6609375" xlink:href="#m473220213b" y="215.142299829"/>
      </g>
     </g>
    </g>
    <g id="ytick_14">
     <g id="line2d_36">
      <defs>
       <path d="
M0 0
L2 0" id="m473220213b"/>
      </defs>
      <g>
       <use style="stroke:#000000;stroke-linecap:butt;stroke-width:0.5;" x="29.6609375" xlink:href="#m473220213b" y="171.163854827"/>
      </g>
     </g>
    </g>
    <g id="ytick_15">
     <g id="line2d_37">
      <defs>
       <path d="
M0 0
L2 0" id="m473220213b"/>
      </defs>
      <g>
       <use style="stroke:#000000;stroke-linecap:butt;stroke-width:0.5;" x="29.6609375" xlink:href="#m473220213b" y="149.174632327"/>
      </g>
     </g>
    </g>
    <g id="ytick_16">
     <g id="line2d_38">
      <defs>
       <path d="
M0 0
L2 0" id="m473220213b"/>
      </defs>
      <g>
       <use style="stroke:#000000;stroke-linecap:butt;stroke-width:0.5;" x="29.6609375" xlink:href="#m473220213b" y="127.185409826"/>
      </g>
     </g>
    </g>
    <g id="ytick_17">
     <g id="line2d_39">
      <defs>
       <path d="
M0 0
L2 0" id="m473220213b"/>
      </defs>
      <g>
       <use style="stroke:#000000;stroke-linecap:butt;stroke-width:0.5;" x="29.6609375" xlink:href="#m473220213b" y="83.2069648243"/>
      </g>
     </g>
    </g>
    <g id="ytick_18">
     <g id="line2d_40">
      <defs>
       <path d="
M0 0
L2 0" id="m473220213b"/>
      </defs>
      <g>
       <use style="stroke:#000000;stroke-linecap:butt;stroke-width:0.5;" x="29.6609375" xlink:href="#m473220213b" y="61.2177423235"/>
      </g>
     </g>
    </g>
    <g id="ytick_19">
     <g id="line2d_41">
      <defs>
       <path d="
M0 0
L2 0" id="m473220213b"/>
      </defs>
      <g>
       <use style="stroke:#000000;stroke-linecap:butt;stroke-width:0.5;" x="29.6609375" xlink:href="#m473220213b" y="39.2285198228"/>
      </g>
     </g>
    </g>
   </g>
   <g id="patch_3">
    <path d="
M19.3504 17.2393
L555.498 17.2393" style="fill:none;stroke:#000000;stroke-width:0.8;"/>
   </g>
   <g id="patch_4">
    <path d="
M29.6609 413.28
L29.6609 7.2" style="fill:none;stroke:#000000;stroke-width:0.8;"/>
   </g>
  </g>
 </g>
 <defs>
  <clipPath id="p4ae238b7d9">
   <rect height="406.08" width="536.147492448" x="19.3504191102" y="7.2"/>
  </clipPath>
 </defs>
</svg>
