<?xml version="1.0" encoding="utf-8" standalone="no"?>
<!DOCTYPE svg PUBLIC "-//W3C//DTD SVG 1.1//EN"
  "http://www.w3.org/Graphics/SVG/1.1/DTD/svg11.dtd">
<!-- Created with matplotlib (http://matplotlib.sourceforge.net/) -->
<svg height="420pt" version="1.1" viewBox="0 0 564 420" width="564pt" xmlns="http://www.w3.org/2000/svg" xmlns:xlink="http://www.w3.org/1999/xlink">
 <defs>
  <style type="text/css">
*{stroke-linecap:square;stroke-linejoin:round;}
  </style>
 </defs>
 <g id="figure_1">
  <g id="patch_1">
   <path d="
M2.22045e-16 420.48
L564.455 420.48
L564.455 0
L2.22045e-16 0
z
" style="fill:#ffffff;"/>
  </g>
  <g id="axes_1">
   <g id="patch_2">
    <path d="
M46.0234 413.28
L557.255 413.28
L557.255 7.2
L46.0234 7.2
z
" style="fill:#ffffff;"/>
   </g>
   <g id="line2d_1">
    <path clip-path="url(#p29dd9b8f0a)" d="
M55.8548 329.048
L56.0583 335.127
L56.3126 338.466
L56.5669 334.178
L56.8212 324.163
L57.4824 295.378
L57.6858 292.05
L58.0927 289.776
L58.1944 290.187
L58.2453 290.165
L58.3978 290.175
L58.6013 289.3
L58.6522 289.133
L59.0082 299.885
L59.8219 326.356
L60.2797 337.506
L60.3814 338.324
L60.4323 338.24
L60.4831 338.107
L60.5849 337.331
L60.6357 337.44
L60.9917 336.747
L61.0935 336.105
L61.246 335.582
L61.3478 335.378
L61.3986 335.495
L61.6021 337.033
L61.9072 340.157
L62.009 340.518
L62.0598 340.399
L62.1107 340.326
L62.365 338.702
L62.4158 338.632
L63.3313 345.801
L64.2468 366.107
L64.8572 386.252
L65.264 396.589
L65.5692 400.266
L65.8235 405.471
L65.8744 404.583
L66.0778 397.288
L66.6881 364.982
L67.1968 336.875
L67.8071 308.734
L68.4683 275.075
L69.0277 250.393
L69.9432 214.835
L70.5027 196.044
L71.4691 172.594
L71.9268 156.861
L72.6388 129.524
L73.0966 108.555
L73.6561 80.5939
L73.9612 76.1459
L74.1647 74.0349
L74.5716 68.6978
L74.6733 68.6571
L74.775 69.9625
L75.5888 84.1803
L75.9448 86.3073
L75.9957 86.1965
L76.0974 85.936
L76.25 84.8759
L76.606 81.335
L76.6568 81.0127
L76.7077 81.0488
L77.0637 83.3856
L77.1146 83.3073
L77.2163 83.5075
L77.3689 83.449
L77.5723 83.683
L77.8775 86.3088
L77.9792 87.3504
L78.0301 87.2714
L78.2335 86.9473
L78.3352 86.3949
L78.7421 92.9875
L78.9456 95.1371
L79.3016 92.8059
L79.4542 96.6721
L81.0309 146.964
L81.2343 148.785
L81.4886 154.334
L82.0989 177.693
L82.9636 215.728
L83.6248 233.062
L83.9808 243.149
L84.0316 243.714
L84.0825 243.448
L84.8963 232.132
L85.4557 223.067
L85.8118 219.693
L85.8626 220.088
L86.0661 223.028
L86.5238 237.381
L86.7781 246.706
L87.0324 249.252
L87.2359 250.537
L87.3376 250.155
L87.4393 249.98
L87.8462 252.126
L87.8971 252.154
L88.0496 251.829
L88.2022 249.644
L88.4057 241.743
L88.7617 230.49
L89.7789 208.167
L90.0332 201.584
L90.0841 201.512
L90.1858 202.27
L90.491 205.422
L90.847 211.784
L91.4065 231.646
L91.9151 255.952
L92.3219 285.968
L93.034 327.714
L93.1357 328.273
L93.3392 329.714
L93.5426 330.011
L94.3564 324.181
L94.6615 319.515
L95.4753 297.807
L96.4417 259.476
L96.7468 251.701
L97.1029 241.306
L97.7132 222.369
L98.1201 217.794
L98.6795 212.976
L98.7304 212.889
L98.8321 213.132
L98.883 213.076
L99.0356 212.48
L99.1881 212.908
L99.239 212.964
L99.5442 214.482
L99.9002 215.414
L100.002 214.859
L100.256 210.743
L100.612 198.636
L101.731 143.584
L102.291 97.1359
L102.901 68.7819
L103.918 37.6374
L104.478 26.6763
L105.037 22.9338
L105.597 15.0092
L105.647 15.1352
L105.851 16.9898
L106.054 20.1567
L106.41 32.0923
L106.919 59.4789
L107.275 76.425
L107.733 97.2507
L108.953 173.633
L109.513 206.338
L110.632 258.418
L110.988 269.105
L111.903 294.599
L112.208 307.811
L112.565 320.928
L112.87 325.406
L112.971 325.864
L113.022 325.847
L113.073 325.769
L113.175 324.86
L113.48 318.771
L114.701 284.4
L115.209 273.181
L115.718 262.698
L115.87 261.915
L115.972 261.9
L116.074 261.742
L116.125 261.846
L116.379 265.218
L116.633 270.642
L118.719 316.222
L118.82 316.756
L118.871 316.675
L118.973 316.243
L119.176 313.571
L119.431 308.104
L119.736 295.308
L120.143 280.545
L121.669 236.735
L123.144 165.242
L123.703 134.999
L125.89 60.4624
L126.144 59.0252
L126.246 58.7838
L126.297 58.8787
L126.551 61.9601
L127.111 69.1552
L127.212 69.6926
L127.67 75.3961
L128.789 101.01
L129.349 119.152
L129.755 135.33
L130.874 188.142
L131.79 208.889
L131.993 210.224
L132.197 210.147
L132.858 208.113
L132.909 208.13
L133.061 208.486
L133.214 208.355
L133.316 208.747
L133.367 208.509
L133.417 208.613
L133.773 211.243
L134.231 214.825
L134.485 219.515
L136.367 255.68
L136.774 263.188
L137.69 270.393
L137.842 270.537
L138.046 270.97
L138.147 271.014
L138.351 271.623
L138.453 271.386
L138.707 270.309
L138.961 267.517
L139.216 258.86
L140.64 213.639
L141.199 204.742
L141.606 202.055
L141.809 200.926
L141.86 200.961
L141.962 201.194
L142.115 204.211
L142.521 209.853
L143.234 216.173
L143.539 221.062
L143.793 224.291
L143.895 224.517
L143.946 224.495
L144.047 224.463
L144.352 223.614
L144.556 223.195
L144.658 223.3
L144.861 222.574
L145.014 221.972
L145.268 219.733
L145.624 212.721
L146.031 209.002
L146.082 208.822
L146.133 209.005
L146.692 211.444
L147.862 218.32
L148.014 217.048
L149.235 201.549
L150.303 183.928
L150.71 180.563
L151.015 179.627
L151.422 175.765
L151.88 170.036
L152.592 162.096
L152.846 162.838
L152.999 163.37
L153.151 162.869
L153.457 161.358
L153.558 161.117
L153.609 161.26
L153.863 161.821
L153.965 161.943
L154.169 161.358
L154.372 161.224
L154.83 161.803
L155.135 161.606
L155.186 161.518
L155.237 161.577
L155.644 163.365
L155.949 164.215
L156.406 163.756
L157.017 161.096
L157.22 160.485
L157.271 160.556
L157.373 160.875
L158.237 165.43
L158.492 168.18
L159 177.545
L160.018 188.863
L160.526 193.867
L160.933 196.471
L161.696 201.5
L162.154 206.67
L162.51 210.342
L163.171 215.32
L163.68 221.391
L164.239 226.679
L165.256 237.27
L165.816 242.591
L166.07 243.844
L166.528 241.303
L166.833 239.818
L168.054 230.445
L168.359 229.06
L168.715 227.291
L169.529 225.247
L169.732 225.195
L169.834 225.167
L170.037 224.865
L170.495 223.499
L170.749 223.214
L170.953 223.188
L171.614 222.489
L171.919 221.189
L173.292 213.416
L173.75 213.179
L173.953 213.014
L174.309 213.16
L174.462 213.618
L175.377 217.794
L175.581 217.99
L175.886 217.118
L176.039 216.291
L176.547 204.865
L177.31 190.844
L178.073 181.481
L179.548 168.577
L181.328 154.893
L183.312 144.627
L183.566 144.258
L184.024 143.948
L184.176 143.989
L184.532 145.085
L185.143 147.709
L185.906 152.96
L186.719 160.251
L187.482 169.41
L188.194 180.965
L189.059 198.267
L189.822 217.474
L190.687 244.88
L191.449 276.094
L192.162 314.264
L192.721 355.608
L193.026 390.02
L193.077 389.452
L193.484 345.774
L194.145 300.559
L194.908 263.099
L195.773 231.519
L196.637 207.581
L197.451 190.284
L198.367 174.895
L199.129 165.898
L199.841 159.578
L200.808 153.608
L201.215 151.868
L201.927 150.12
L202.232 150.294
L202.69 150.999
L202.944 151.773
L203.605 155.142
L204.419 159.424
L205.436 165.599
L206.352 172.171
L206.962 176.244
L207.725 182.342
L208.742 192.051
L209.251 199.116
L210.268 213.886
L210.522 214.4
L210.573 214.366
L210.827 214.023
L211.336 211.94
L211.794 210.377
L212.099 210.232
L212.302 210.271
L212.608 210.452
L212.811 210.448
L212.862 210.458
L213.32 212.293
L214.235 216.362
L214.591 217.256
L215.252 217.483
L215.456 217.5
L215.71 217.731
L216.27 218.672
L216.422 218.623
L216.626 218.683
L217.592 220.463
L218.05 222.053
L218.304 222.969
L219.474 229.055
L219.83 230.099
L220.033 230.888
L220.084 230.8
L220.288 229.89
L220.796 226.389
L221.864 218.369
L222.475 214.201
L223.085 209.445
L223.441 207.601
L223.644 206.744
L224.051 203.535
L224.662 199.817
L225.831 194.436
L227.154 185.299
L227.967 177.882
L228.883 175.516
L228.985 175.715
L229.849 178.032
L230.205 178.179
L230.409 177.894
L230.917 176.83
L230.968 176.901
L231.172 177.045
L231.375 177.086
L231.833 176.967
L232.087 177.318
L232.189 177.472
L232.24 177.43
L232.545 177.104
L232.596 177.226
L232.799 177.636
L233.155 178.627
L233.511 177.994
L233.664 178.749
L235.241 188.88
L235.444 189.236
L235.698 190.393
L236.258 194.836
L237.122 203.482
L238.241 210.175
L238.292 210.115
L239.106 207.642
L239.665 205.614
L240.021 204.854
L240.072 204.966
L240.276 205.678
L240.734 209.129
L240.988 211.349
L241.242 211.993
L241.598 212.258
L241.649 212.24
L242.056 212.833
L242.259 212.794
L242.412 212.283
L242.615 210.383
L242.971 207.701
L243.938 202.723
L244.243 200.649
L244.345 200.698
L244.853 202.315
L245.158 204.097
L246.023 213.081
L246.43 220.614
L247.193 233.2
L247.447 233.985
L247.752 234.292
L248.566 233.118
L248.82 232.262
L249.583 227.772
L250.448 218.366
L251.974 206.214
L252.686 203.992
L252.94 203.855
L253.093 203.908
L253.245 203.754
L253.296 203.837
L253.5 204.008
L254.008 204.599
L254.161 204.571
L254.313 204.015
L254.517 202.908
L254.924 198.404
L255.229 195.121
L255.687 189.499
L255.992 182.289
L256.449 171.129
L257.009 162.881
L257.619 156.728
L258.636 148.617
L259.298 146.785
L259.806 144.352
L259.857 144.363
L260.061 144.811
L260.264 145.665
L260.569 148.513
L261.027 155.223
L261.586 163.439
L262.4 175.591
L262.909 185.931
L263.519 198.999
L265.147 221.859
L266.164 231.211
L266.978 240.469
L267.181 241.098
L267.334 241.017
L267.537 239.95
L268.249 234.529
L268.605 230.916
L270.08 220.855
L270.385 221.061
L270.741 223.173
L272.013 233.318
L272.318 236.321
L272.928 239.893
L273.081 240.089
L273.183 239.972
L273.386 239.116
L273.64 237.304
L273.946 232.969
L274.352 228.005
L275.827 213.717
L276.743 199.713
L277.15 192.422
L278.218 173.055
L278.879 164.5
L279.184 160.386
L279.591 154.343
L279.998 150.431
L280.252 149.444
L280.507 149.152
L280.761 150.182
L281.32 152.59
L281.422 152.756
L281.88 154.697
L282.897 162.87
L283.406 168.255
L284.169 180.399
L284.677 191.647
L285.186 196.687
L285.389 198.722
L285.796 202.624
L286.101 203.942
L286.254 204.058
L286.457 203.976
L286.661 203.758
L287.068 203.283
L287.475 203.492
L287.729 203.794
L288.543 206.491
L289.356 212.227
L289.611 213.501
L290.984 224.764
L291.899 227.707
L292.103 227.865
L292.306 228.004
L292.459 228.182
L292.561 228.302
L292.611 228.264
L292.866 227.959
L293.12 227.222
L293.374 224.165
L294.442 209.068
L295.205 202.956
L295.511 201.718
L295.765 201.124
L296.07 200.594
L296.121 200.627
L296.172 200.692
L296.375 202.279
L296.731 204.175
L297.494 207.009
L297.748 208.745
L298.003 210.047
L298.155 210.133
L298.308 210.085
L299.223 209.158
L299.478 208.244
L299.834 205.394
L300.241 203.886
L300.291 203.831
L300.342 203.9
L300.953 205.055
L301.461 206.553
L302.072 207.787
L302.122 207.673
L302.428 206.212
L302.784 204.552
L303.394 201.197
L304.665 192.735
L304.971 191.963
L305.225 191.613
L305.683 189.74
L306.802 184.116
L306.903 184.163
L307.056 184.41
L307.208 184.616
L307.361 184.384
L307.666 183.72
L307.819 183.671
L308.124 183.922
L308.175 183.929
L308.378 183.662
L308.633 183.623
L309.294 183.747
L309.446 183.672
L310.26 184.701
L310.616 184.512
L311.226 183.313
L311.532 183.097
L312.396 184.958
L312.651 185.956
L313.719 192.815
L314.075 194.661
L314.736 197.498
L315.143 198.64
L315.906 200.868
L316.363 203.173
L316.719 204.802
L317.381 207.039
L317.94 210.042
L318.805 213.8
L319.364 216.387
L319.873 218.865
L320.28 220.009
L320.737 218.892
L321.043 218.238
L322.263 214.064
L322.568 213.445
L322.924 212.659
L323.789 211.748
L324.399 211.41
L324.755 210.971
L325.823 210.586
L326.129 209.993
L327.502 206.432
L328.57 206.392
L328.824 206.894
L329.689 208.6
L329.841 208.583
L330.198 208.029
L330.299 207.135
L330.91 200.979
L331.672 194.82
L332.385 190.932
L334.775 181.108
L336.962 174.554
L337.572 173.327
L338.03 173.034
L338.386 173.003
L338.793 173.592
L339.454 175.022
L340.522 178.814
L341.082 181.543
L341.946 186.993
L342.658 193.155
L343.625 203.522
L344.54 216.441
L345.354 231.342
L346.117 249.719
L346.727 269.541
L347.185 291.628
L347.236 295.398
L347.287 294.687
L347.694 273.05
L348.355 250.553
L349.118 231.853
L349.982 216.025
L350.898 203.346
L351.762 194.238
L352.678 186.679
L353.441 182.237
L354.102 179.329
L355.17 175.987
L355.679 175.087
L356.136 174.529
L356.543 174.664
L357.103 175.208
L357.662 176.539
L358.476 178.771
L359.341 181.277
L360.46 185.279
L362.799 195.1
L363.41 199.309
L364.528 207.54
L364.783 207.73
L365.037 207.552
L365.698 206.138
L366.054 205.624
L367.072 205.71
L367.529 206.694
L368.445 208.873
L368.801 209.353
L370.072 209.818
L370.377 210.115
L370.632 210.126
L370.886 210.216
L372.005 211.632
L372.819 213.393
L373.683 215.835
L374.039 216.417
L374.243 216.844
L374.294 216.796
L374.497 216.308
L375.006 214.429
L376.074 210.119
L376.684 207.863
L377.295 205.288
L377.651 204.295
L377.854 203.824
L378.261 202.074
L378.871 200.05
L380.041 197.097
L381.363 192.059
L382.177 187.966
L383.093 186.639
L383.296 186.885
L383.805 187.677
L384.059 188
L384.466 188.044
L384.72 187.754
L385.127 187.303
L385.483 187.447
L385.941 187.325
L386.246 187.469
L386.449 187.594
L386.856 187.508
L387.365 188.234
L387.416 188.168
L387.67 187.907
L387.721 187.875
L387.772 187.97
L388.28 189.894
L389.196 193.44
L389.45 193.923
L389.705 194.21
L389.959 194.972
L390.417 196.965
L391.434 202.433
L392.451 205.888
L392.553 205.772
L393.163 204.798
L394.231 202.896
L394.485 203.374
L394.943 205.346
L395.198 206.593
L395.452 206.958
L396.316 207.452
L396.52 207.362
L396.672 206.946
L397.283 204.272
L397.893 202.823
L398.249 201.124
L398.402 200.542
L398.554 200.549
L399.165 201.704
L399.368 202.507
L400.233 207.666
L400.64 212.006
L401.403 219.238
L401.657 219.69
L401.962 219.874
L402.827 219.155
L403.132 218.417
L403.59 217.078
L403.742 216.466
L405.268 208.057
L405.878 205.047
L406.234 203.637
L406.539 203.148
L407.099 202.391
L407.658 202.416
L408.116 202.822
L408.37 202.804
L408.574 202.363
L408.777 201.562
L409.642 195.947
L409.947 193.444
L410.303 187.94
L410.71 182.682
L411.32 177.685
L412.388 171.738
L412.948 169.79
L413.609 168.488
L413.965 167.435
L414.067 167.371
L414.118 167.412
L414.423 167.941
L414.677 169.134
L415.186 173.277
L417.068 191.179
L418.034 202.481
L419.102 211.752
L419.56 214.146
L420.272 218.149
L420.526 220.024
L420.984 223.628
L421.34 224.628
L421.492 224.673
L421.645 224.365
L422.255 221.974
L422.561 220.017
L423.629 214.774
L424.137 212.77
L424.29 212.65
L424.595 212.786
L424.951 214.068
L426.223 220.211
L426.528 222.023
L427.138 224.192
L427.291 224.311
L427.443 224.157
L427.799 222.909
L428.054 221.025
L428.613 216.764
L429.274 213.268
L429.783 210.247
L430.19 207.022
L431.563 192.725
L432.122 186.197
L433.445 175.358
L434.004 170.916
L434.309 169.54
L434.615 169.108
L434.716 169.096
L435.021 169.879
L435.479 171.132
L435.632 171.256
L436.09 172.428
L437.107 177.394
L437.615 180.686
L438.378 188.136
L438.887 195.021
L439.446 198.337
L439.701 200.115
L440.158 202.225
L440.464 202.631
L440.718 202.503
L441.43 202.247
L441.888 202.364
L442.295 203.046
L442.447 203.251
L442.752 204.155
L443.566 207.707
L443.82 208.505
L445.194 215.504
L446.16 217.36
L446.516 217.541
L446.974 217.615
L447.177 217.344
L447.33 217.061
L447.584 215.151
L448.703 205.474
L449.262 202.658
L449.669 201.317
L449.974 200.83
L450.331 200.522
L450.432 200.752
L450.788 202.378
L451.246 203.478
L451.551 204.009
L452.314 206.485
L452.67 206.367
L453.026 206.195
L453.128 206.174
L453.636 205.463
L453.738 204.92
L454.043 203.51
L454.45 202.567
L454.552 202.582
L455.162 203.316
L455.671 204.259
L456.281 205.036
L456.332 204.961
L456.637 204.036
L457.044 202.839
L457.909 199.475
L458.926 195.396
L459.18 195.036
L459.435 194.81
L459.943 193.46
L461.011 190.048
L461.062 190.068
L461.215 190.153
L461.418 190.355
L461.622 190.095
L461.927 189.751
L462.028 189.749
L462.334 189.902
L462.435 189.827
L462.741 189.684
L463.097 189.777
L463.453 189.786
L463.707 189.773
L464.368 190.402
L464.877 190.16
L465.284 189.616
L465.69 189.308
L465.843 189.457
L466.759 190.843
L466.911 191.39
L467.42 193.973
L468.64 197.653
L469.251 199.132
L469.505 199.522
L469.963 200.328
L470.37 201.408
L471.031 203.396
L471.234 203.733
L471.794 205.303
L472.811 208.428
L473.676 211.098
L474.286 212.792
L474.489 213.049
L474.896 212.381
L475.252 211.908
L476.473 209.227
L476.829 208.729
L477.185 208.285
L478.1 207.736
L478.355 207.706
L479.525 207.162
L480.084 206.956
L480.389 206.527
L480.898 205.609
L481.864 204.299
L482.169 204.247
L482.474 204.217
L482.881 204.407
L483.848 205.725
L484.102 205.689
L484.407 205.365
L484.509 204.764
L485.119 200.743
L485.882 196.714
L486.594 194.166
L488.985 187.692
L491.223 183.261
L491.884 182.463
L492.596 182.296
L493.054 182.739
L493.715 183.721
L494.885 186.534
L495.647 189.247
L496.309 192.291
L497.173 197.592
L497.987 203.762
L498.801 211.621
L499.615 221.719
L500.377 234.226
L500.988 247.851
L501.395 261.316
L501.446 263.867
L501.496 263.1
L501.903 248.764
L502.564 233.805
L503.327 221.354
L504.192 210.801
L505.108 202.331
L505.972 196.237
L506.888 191.169
L507.651 188.184
L508.363 186.106
L509.278 184.142
L509.787 183.466
L510.346 182.971
L510.855 183.107
L511.363 183.483
L512.126 184.823
L513.194 186.707
L514.212 188.976
L516.805 196.024
L517.518 199.134
L518.28 203.464
L518.586 205.088
L518.942 205.371
L519.298 205.173
L520.366 203.929
L520.773 203.941
L521.383 204.13
L523.01 206.484
L524.384 206.889
L524.74 207.047
L525.045 207.053
L526.113 207.906
L526.571 208.444
L526.978 209.176
L528.046 211.085
L528.503 211.613
L528.554 211.556
L528.91 210.809
L529.572 208.889
L530.436 206.713
L531.046 204.978
L531.657 203.393
L532.521 201.386
L533.03 200.222
L534.352 197.851
L535.675 194.194
L536.336 191.869
L537.15 190.947
L537.353 190.901
L538.32 191.826
L538.726 191.815
L539.54 191.397
L540.507 191.481
L540.659 191.511
L541.066 191.451
L541.626 191.899
L541.88 191.719
L541.982 191.767
L542.49 193.103
L543.406 195.555
L543.66 195.885
L543.914 196.085
L544.169 196.618
L544.626 198.006
L545.643 201.802
L546.661 204.205
L546.762 204.12
L547.373 203.443
L547.424 203.374
L547.424 203.374" style="fill:none;stroke:#0000ff;"/>
   </g>
   <g id="matplotlib.axis_1">
    <g id="xtick_1">
     <g id="line2d_2">
      <defs>
       <path d="
M0 0
L0 -4" id="m9b623ebbd6"/>
      </defs>
      <g>
       <use style="stroke:#000000;stroke-linecap:butt;stroke-width:0.5;" x="161.557078659" xlink:href="#m9b623ebbd6" y="200.344075863"/>
      </g>
     </g>
     <g id="text_1">
      <!-- 5 -->
      <defs>
       <path d="
M10.7969 72.9062
L49.5156 72.9062
L49.5156 64.5938
L19.8281 64.5938
L19.8281 46.7344
Q21.9688 47.4688 24.1094 47.8281
Q26.2656 48.1875 28.4219 48.1875
Q40.625 48.1875 47.75 41.5
Q54.8906 34.8125 54.8906 23.3906
Q54.8906 11.625 47.5625 5.09375
Q40.2344 -1.42188 26.9062 -1.42188
Q22.3125 -1.42188 17.5469 -0.640625
Q12.7969 0.140625 7.71875 1.70312
L7.71875 11.625
Q12.1094 9.23438 16.7969 8.0625
Q21.4844 6.89062 26.7031 6.89062
Q35.1562 6.89062 40.0781 11.3281
Q45.0156 15.7656 45.0156 23.3906
Q45.0156 31 40.0781 35.4375
Q35.1562 39.8906 26.7031 39.8906
Q22.75 39.8906 18.8125 39.0156
Q14.8906 38.1406 10.7969 36.2812
z
" id="BitstreamVeraSans-Roman-35"/>
      </defs>
      <g transform="translate(159.198484909 211.634700863)scale(0.1 -0.1)">
       <use xlink:href="#BitstreamVeraSans-Roman-35"/>
      </g>
     </g>
    </g>
    <g id="xtick_2">
     <g id="line2d_3">
      <defs>
       <path d="
M0 0
L0 -4" id="m9b623ebbd6"/>
      </defs>
      <g>
       <use style="stroke:#000000;stroke-linecap:butt;stroke-width:0.5;" x="284.271122288" xlink:href="#m9b623ebbd6" y="200.344075863"/>
      </g>
     </g>
     <g id="text_2">
      <!-- 10 -->
      <defs>
       <path d="
M31.7812 66.4062
Q24.1719 66.4062 20.3281 58.9062
Q16.5 51.4219 16.5 36.375
Q16.5 21.3906 20.3281 13.8906
Q24.1719 6.39062 31.7812 6.39062
Q39.4531 6.39062 43.2812 13.8906
Q47.125 21.3906 47.125 36.375
Q47.125 51.4219 43.2812 58.9062
Q39.4531 66.4062 31.7812 66.4062
M31.7812 74.2188
Q44.0469 74.2188 50.5156 64.5156
Q56.9844 54.8281 56.9844 36.375
Q56.9844 17.9688 50.5156 8.26562
Q44.0469 -1.42188 31.7812 -1.42188
Q19.5312 -1.42188 13.0625 8.26562
Q6.59375 17.9688 6.59375 36.375
Q6.59375 54.8281 13.0625 64.5156
Q19.5312 74.2188 31.7812 74.2188" id="BitstreamVeraSans-Roman-30"/>
       <path d="
M12.4062 8.29688
L28.5156 8.29688
L28.5156 63.9219
L10.9844 60.4062
L10.9844 69.3906
L28.4219 72.9062
L38.2812 72.9062
L38.2812 8.29688
L54.3906 8.29688
L54.3906 0
L12.4062 0
z
" id="BitstreamVeraSans-Roman-31"/>
      </defs>
      <g transform="translate(278.789872288 211.765950863)scale(0.1 -0.1)">
       <use xlink:href="#BitstreamVeraSans-Roman-31"/>
       <use x="63.623046875" xlink:href="#BitstreamVeraSans-Roman-30"/>
      </g>
     </g>
    </g>
    <g id="xtick_3">
     <g id="line2d_4">
      <defs>
       <path d="
M0 0
L0 -4" id="m9b623ebbd6"/>
      </defs>
      <g>
       <use style="stroke:#000000;stroke-linecap:butt;stroke-width:0.5;" x="406.985165916" xlink:href="#m9b623ebbd6" y="200.344075863"/>
      </g>
     </g>
     <g id="text_3">
      <!-- 15 -->
      <g transform="translate(401.608603416 211.634700863)scale(0.1 -0.1)">
       <use xlink:href="#BitstreamVeraSans-Roman-31"/>
       <use x="63.623046875" xlink:href="#BitstreamVeraSans-Roman-35"/>
      </g>
     </g>
    </g>
    <g id="xtick_4">
     <g id="line2d_5">
      <defs>
       <path d="
M0 0
L0 -4" id="m9b623ebbd6"/>
      </defs>
      <g>
       <use style="stroke:#000000;stroke-linecap:butt;stroke-width:0.5;" x="529.699209545" xlink:href="#m9b623ebbd6" y="200.344075863"/>
      </g>
     </g>
     <g id="text_4">
      <!-- 20 -->
      <defs>
       <path d="
M19.1875 8.29688
L53.6094 8.29688
L53.6094 0
L7.32812 0
L7.32812 8.29688
Q12.9375 14.1094 22.625 23.8906
Q32.3281 33.6875 34.8125 36.5312
Q39.5469 41.8438 41.4219 45.5312
Q43.3125 49.2188 43.3125 52.7812
Q43.3125 58.5938 39.2344 62.25
Q35.1562 65.9219 28.6094 65.9219
Q23.9688 65.9219 18.8125 64.3125
Q13.6719 62.7031 7.8125 59.4219
L7.8125 69.3906
Q13.7656 71.7812 18.9375 73
Q24.125 74.2188 28.4219 74.2188
Q39.75 74.2188 46.4844 68.5469
Q53.2188 62.8906 53.2188 53.4219
Q53.2188 48.9219 51.5312 44.8906
Q49.8594 40.875 45.4062 35.4062
Q44.1875 33.9844 37.6406 27.2188
Q31.1094 20.4531 19.1875 8.29688" id="BitstreamVeraSans-Roman-32"/>
      </defs>
      <g transform="translate(524.035147045 211.765950863)scale(0.1 -0.1)">
       <use xlink:href="#BitstreamVeraSans-Roman-32"/>
       <use x="63.623046875" xlink:href="#BitstreamVeraSans-Roman-30"/>
      </g>
     </g>
    </g>
    <g id="xtick_5">
     <g id="line2d_6">
      <defs>
       <path d="
M0 0
L0 -2" id="m2c03b16492"/>
      </defs>
      <g>
       <use style="stroke:#000000;stroke-linecap:butt;stroke-width:0.5;" x="63.3858437564" xlink:href="#m2c03b16492" y="200.344075863"/>
      </g>
     </g>
    </g>
    <g id="xtick_6">
     <g id="line2d_7">
      <defs>
       <path d="
M0 0
L0 -2" id="m2c03b16492"/>
      </defs>
      <g>
       <use style="stroke:#000000;stroke-linecap:butt;stroke-width:0.5;" x="87.9286524821" xlink:href="#m2c03b16492" y="200.344075863"/>
      </g>
     </g>
    </g>
    <g id="xtick_7">
     <g id="line2d_8">
      <defs>
       <path d="
M0 0
L0 -2" id="m2c03b16492"/>
      </defs>
      <g>
       <use style="stroke:#000000;stroke-linecap:butt;stroke-width:0.5;" x="112.471461208" xlink:href="#m2c03b16492" y="200.344075863"/>
      </g>
     </g>
    </g>
    <g id="xtick_8">
     <g id="line2d_9">
      <defs>
       <path d="
M0 0
L0 -2" id="m2c03b16492"/>
      </defs>
      <g>
       <use style="stroke:#000000;stroke-linecap:butt;stroke-width:0.5;" x="137.014269933" xlink:href="#m2c03b16492" y="200.344075863"/>
      </g>
     </g>
    </g>
    <g id="xtick_9">
     <g id="line2d_10">
      <defs>
       <path d="
M0 0
L0 -2" id="m2c03b16492"/>
      </defs>
      <g>
       <use style="stroke:#000000;stroke-linecap:butt;stroke-width:0.5;" x="186.099887385" xlink:href="#m2c03b16492" y="200.344075863"/>
      </g>
     </g>
    </g>
    <g id="xtick_10">
     <g id="line2d_11">
      <defs>
       <path d="
M0 0
L0 -2" id="m2c03b16492"/>
      </defs>
      <g>
       <use style="stroke:#000000;stroke-linecap:butt;stroke-width:0.5;" x="210.642696111" xlink:href="#m2c03b16492" y="200.344075863"/>
      </g>
     </g>
    </g>
    <g id="xtick_11">
     <g id="line2d_12">
      <defs>
       <path d="
M0 0
L0 -2" id="m2c03b16492"/>
      </defs>
      <g>
       <use style="stroke:#000000;stroke-linecap:butt;stroke-width:0.5;" x="235.185504836" xlink:href="#m2c03b16492" y="200.344075863"/>
      </g>
     </g>
    </g>
    <g id="xtick_12">
     <g id="line2d_13">
      <defs>
       <path d="
M0 0
L0 -2" id="m2c03b16492"/>
      </defs>
      <g>
       <use style="stroke:#000000;stroke-linecap:butt;stroke-width:0.5;" x="259.728313562" xlink:href="#m2c03b16492" y="200.344075863"/>
      </g>
     </g>
    </g>
    <g id="xtick_13">
     <g id="line2d_14">
      <defs>
       <path d="
M0 0
L0 -2" id="m2c03b16492"/>
      </defs>
      <g>
       <use style="stroke:#000000;stroke-linecap:butt;stroke-width:0.5;" x="308.813931013" xlink:href="#m2c03b16492" y="200.344075863"/>
      </g>
     </g>
    </g>
    <g id="xtick_14">
     <g id="line2d_15">
      <defs>
       <path d="
M0 0
L0 -2" id="m2c03b16492"/>
      </defs>
      <g>
       <use style="stroke:#000000;stroke-linecap:butt;stroke-width:0.5;" x="333.356739739" xlink:href="#m2c03b16492" y="200.344075863"/>
      </g>
     </g>
    </g>
    <g id="xtick_15">
     <g id="line2d_16">
      <defs>
       <path d="
M0 0
L0 -2" id="m2c03b16492"/>
      </defs>
      <g>
       <use style="stroke:#000000;stroke-linecap:butt;stroke-width:0.5;" x="357.899548465" xlink:href="#m2c03b16492" y="200.344075863"/>
      </g>
     </g>
    </g>
    <g id="xtick_16">
     <g id="line2d_17">
      <defs>
       <path d="
M0 0
L0 -2" id="m2c03b16492"/>
      </defs>
      <g>
       <use style="stroke:#000000;stroke-linecap:butt;stroke-width:0.5;" x="382.44235719" xlink:href="#m2c03b16492" y="200.344075863"/>
      </g>
     </g>
    </g>
    <g id="xtick_17">
     <g id="line2d_18">
      <defs>
       <path d="
M0 0
L0 -2" id="m2c03b16492"/>
      </defs>
      <g>
       <use style="stroke:#000000;stroke-linecap:butt;stroke-width:0.5;" x="431.527974642" xlink:href="#m2c03b16492" y="200.344075863"/>
      </g>
     </g>
    </g>
    <g id="xtick_18">
     <g id="line2d_19">
      <defs>
       <path d="
M0 0
L0 -2" id="m2c03b16492"/>
      </defs>
      <g>
       <use style="stroke:#000000;stroke-linecap:butt;stroke-width:0.5;" x="456.070783368" xlink:href="#m2c03b16492" y="200.344075863"/>
      </g>
     </g>
    </g>
    <g id="xtick_19">
     <g id="line2d_20">
      <defs>
       <path d="
M0 0
L0 -2" id="m2c03b16492"/>
      </defs>
      <g>
       <use style="stroke:#000000;stroke-linecap:butt;stroke-width:0.5;" x="480.613592093" xlink:href="#m2c03b16492" y="200.344075863"/>
      </g>
     </g>
    </g>
    <g id="xtick_20">
     <g id="line2d_21">
      <defs>
       <path d="
M0 0
L0 -2" id="m2c03b16492"/>
      </defs>
      <g>
       <use style="stroke:#000000;stroke-linecap:butt;stroke-width:0.5;" x="505.156400819" xlink:href="#m2c03b16492" y="200.344075863"/>
      </g>
     </g>
    </g>
   </g>
   <g id="matplotlib.axis_2">
    <g id="ytick_1">
     <g id="line2d_22">
      <defs>
       <path d="
M0 0
L4 0" id="m0d7c9f1c98"/>
      </defs>
      <g>
       <use style="stroke:#000000;stroke-linecap:butt;stroke-width:0.5;" x="36.0234375" xlink:href="#m0d7c9f1c98" y="380.05264923"/>
      </g>
     </g>
     <g id="text_5">
      <!-- -0.04 -->
      <defs>
       <path d="
M10.6875 12.4062
L21 12.4062
L21 0
L10.6875 0
z
" id="BitstreamVeraSans-Roman-2e"/>
       <path d="
M4.89062 31.3906
L31.2031 31.3906
L31.2031 23.3906
L4.89062 23.3906
z
" id="BitstreamVeraSans-Roman-2d"/>
       <path d="
M37.7969 64.3125
L12.8906 25.3906
L37.7969 25.3906
z

M35.2031 72.9062
L47.6094 72.9062
L47.6094 25.3906
L58.0156 25.3906
L58.0156 17.1875
L47.6094 17.1875
L47.6094 0
L37.7969 0
L37.7969 17.1875
L4.89062 17.1875
L4.89062 26.7031
z
" id="BitstreamVeraSans-Roman-34"/>
      </defs>
      <g transform="translate(7.2 383.69249298)scale(0.1 -0.1)">
       <use xlink:href="#BitstreamVeraSans-Roman-2d"/>
       <use x="36.083984375" xlink:href="#BitstreamVeraSans-Roman-30"/>
       <use x="99.70703125" xlink:href="#BitstreamVeraSans-Roman-2e"/>
       <use x="131.494140625" xlink:href="#BitstreamVeraSans-Roman-30"/>
       <use x="195.1171875" xlink:href="#BitstreamVeraSans-Roman-34"/>
      </g>
     </g>
    </g>
    <g id="ytick_2">
     <g id="line2d_23">
      <defs>
       <path d="
M0 0
L4 0" id="m0d7c9f1c98"/>
      </defs>
      <g>
       <use style="stroke:#000000;stroke-linecap:butt;stroke-width:0.5;" x="36.0234375" xlink:href="#m0d7c9f1c98" y="290.198362546"/>
      </g>
     </g>
     <g id="text_6">
      <!-- -0.02 -->
      <g transform="translate(7.640625 293.838206296)scale(0.1 -0.1)">
       <use xlink:href="#BitstreamVeraSans-Roman-2d"/>
       <use x="36.083984375" xlink:href="#BitstreamVeraSans-Roman-30"/>
       <use x="99.70703125" xlink:href="#BitstreamVeraSans-Roman-2e"/>
       <use x="131.494140625" xlink:href="#BitstreamVeraSans-Roman-30"/>
       <use x="195.1171875" xlink:href="#BitstreamVeraSans-Roman-32"/>
      </g>
     </g>
    </g>
    <g id="ytick_3">
     <g id="line2d_24">
      <defs>
       <path d="
M0 0
L4 0" id="m0d7c9f1c98"/>
      </defs>
      <g>
       <use style="stroke:#000000;stroke-linecap:butt;stroke-width:0.5;" x="36.0234375" xlink:href="#m0d7c9f1c98" y="200.344075863"/>
      </g>
     </g>
     <g id="text_7">
      <!-- 0 -->
      <g transform="translate(26.984375 203.983919613)scale(0.1 -0.1)">
       <use xlink:href="#BitstreamVeraSans-Roman-30"/>
      </g>
     </g>
    </g>
    <g id="ytick_4">
     <g id="line2d_25">
      <defs>
       <path d="
M0 0
L4 0" id="m0d7c9f1c98"/>
      </defs>
      <g>
       <use style="stroke:#000000;stroke-linecap:butt;stroke-width:0.5;" x="36.0234375" xlink:href="#m0d7c9f1c98" y="110.48978918"/>
      </g>
     </g>
     <g id="text_8">
      <!-- 0.02 -->
      <g transform="translate(11.41875 114.12963293)scale(0.1 -0.1)">
       <use xlink:href="#BitstreamVeraSans-Roman-30"/>
       <use x="63.623046875" xlink:href="#BitstreamVeraSans-Roman-2e"/>
       <use x="95.41015625" xlink:href="#BitstreamVeraSans-Roman-30"/>
       <use x="159.033203125" xlink:href="#BitstreamVeraSans-Roman-32"/>
      </g>
     </g>
    </g>
    <g id="ytick_5">
     <g id="line2d_26">
      <defs>
       <path d="
M0 0
L4 0" id="m0d7c9f1c98"/>
      </defs>
      <g>
       <use style="stroke:#000000;stroke-linecap:butt;stroke-width:0.5;" x="36.0234375" xlink:href="#m0d7c9f1c98" y="20.6355024961"/>
      </g>
     </g>
     <g id="text_9">
      <!-- 0.04 -->
      <g transform="translate(10.978125 24.2753462461)scale(0.1 -0.1)">
       <use xlink:href="#BitstreamVeraSans-Roman-30"/>
       <use x="63.623046875" xlink:href="#BitstreamVeraSans-Roman-2e"/>
       <use x="95.41015625" xlink:href="#BitstreamVeraSans-Roman-30"/>
       <use x="159.033203125" xlink:href="#BitstreamVeraSans-Roman-34"/>
      </g>
     </g>
    </g>
    <g id="ytick_6">
     <g id="line2d_27">
      <defs>
       <path d="
M0 0
L2 0" id="m809fc4c4ed"/>
      </defs>
      <g>
       <use style="stroke:#000000;stroke-linecap:butt;stroke-width:0.5;" x="36.0234375" xlink:href="#m809fc4c4ed" y="402.516220901"/>
      </g>
     </g>
    </g>
    <g id="ytick_7">
     <g id="line2d_28">
      <defs>
       <path d="
M0 0
L2 0" id="m809fc4c4ed"/>
      </defs>
      <g>
       <use style="stroke:#000000;stroke-linecap:butt;stroke-width:0.5;" x="36.0234375" xlink:href="#m809fc4c4ed" y="357.589077559"/>
      </g>
     </g>
    </g>
    <g id="ytick_8">
     <g id="line2d_29">
      <defs>
       <path d="
M0 0
L2 0" id="m809fc4c4ed"/>
      </defs>
      <g>
       <use style="stroke:#000000;stroke-linecap:butt;stroke-width:0.5;" x="36.0234375" xlink:href="#m809fc4c4ed" y="335.125505888"/>
      </g>
     </g>
    </g>
    <g id="ytick_9">
     <g id="line2d_30">
      <defs>
       <path d="
M0 0
L2 0" id="m809fc4c4ed"/>
      </defs>
      <g>
       <use style="stroke:#000000;stroke-linecap:butt;stroke-width:0.5;" x="36.0234375" xlink:href="#m809fc4c4ed" y="312.661934217"/>
      </g>
     </g>
    </g>
    <g id="ytick_10">
     <g id="line2d_31">
      <defs>
       <path d="
M0 0
L2 0" id="m809fc4c4ed"/>
      </defs>
      <g>
       <use style="stroke:#000000;stroke-linecap:butt;stroke-width:0.5;" x="36.0234375" xlink:href="#m809fc4c4ed" y="267.734790876"/>
      </g>
     </g>
    </g>
    <g id="ytick_11">
     <g id="line2d_32">
      <defs>
       <path d="
M0 0
L2 0" id="m809fc4c4ed"/>
      </defs>
      <g>
       <use style="stroke:#000000;stroke-linecap:butt;stroke-width:0.5;" x="36.0234375" xlink:href="#m809fc4c4ed" y="245.271219205"/>
      </g>
     </g>
    </g>
    <g id="ytick_12">
     <g id="line2d_33">
      <defs>
       <path d="
M0 0
L2 0" id="m809fc4c4ed"/>
      </defs>
      <g>
       <use style="stroke:#000000;stroke-linecap:butt;stroke-width:0.5;" x="36.0234375" xlink:href="#m809fc4c4ed" y="222.807647534"/>
      </g>
     </g>
    </g>
    <g id="ytick_13">
     <g id="line2d_34">
      <defs>
       <path d="
M0 0
L2 0" id="m809fc4c4ed"/>
      </defs>
      <g>
       <use style="stroke:#000000;stroke-linecap:butt;stroke-width:0.5;" x="36.0234375" xlink:href="#m809fc4c4ed" y="177.880504192"/>
      </g>
     </g>
    </g>
    <g id="ytick_14">
     <g id="line2d_35">
      <defs>
       <path d="
M0 0
L2 0" id="m809fc4c4ed"/>
      </defs>
      <g>
       <use style="stroke:#000000;stroke-linecap:butt;stroke-width:0.5;" x="36.0234375" xlink:href="#m809fc4c4ed" y="155.416932521"/>
      </g>
     </g>
    </g>
    <g id="ytick_15">
     <g id="line2d_36">
      <defs>
       <path d="
M0 0
L2 0" id="m809fc4c4ed"/>
      </defs>
      <g>
       <use style="stroke:#000000;stroke-linecap:butt;stroke-width:0.5;" x="36.0234375" xlink:href="#m809fc4c4ed" y="132.95336085"/>
      </g>
     </g>
    </g>
    <g id="ytick_16">
     <g id="line2d_37">
      <defs>
       <path d="
M0 0
L2 0" id="m809fc4c4ed"/>
      </defs>
      <g>
       <use style="stroke:#000000;stroke-linecap:butt;stroke-width:0.5;" x="36.0234375" xlink:href="#m809fc4c4ed" y="88.0262175087"/>
      </g>
     </g>
    </g>
    <g id="ytick_17">
     <g id="line2d_38">
      <defs>
       <path d="
M0 0
L2 0" id="m809fc4c4ed"/>
      </defs>
      <g>
       <use style="stroke:#000000;stroke-linecap:butt;stroke-width:0.5;" x="36.0234375" xlink:href="#m809fc4c4ed" y="65.5626458378"/>
      </g>
     </g>
    </g>
    <g id="ytick_18">
     <g id="line2d_39">
      <defs>
       <path d="
M0 0
L2 0" id="m809fc4c4ed"/>
      </defs>
      <g>
       <use style="stroke:#000000;stroke-linecap:butt;stroke-width:0.5;" x="36.0234375" xlink:href="#m809fc4c4ed" y="43.099074167"/>
      </g>
     </g>
    </g>
   </g>
   <g id="patch_3">
    <path d="
M46.0234 200.344
L557.255 200.344" style="fill:none;stroke:#000000;stroke-width:0.8;"/>
   </g>
   <g id="patch_4">
    <path d="
M36.0234 413.28
L36.0234 7.2" style="fill:none;stroke:#000000;stroke-width:0.8;"/>
   </g>
  </g>
 </g>
 <defs>
  <clipPath id="p29dd9b8f0a">
   <rect height="406.08" width="511.2315625" x="46.0234375" y="7.2"/>
  </clipPath>
 </defs>
</svg>
