<?xml version="1.0" encoding="utf-8" standalone="no"?>
<!DOCTYPE svg PUBLIC "-//W3C//DTD SVG 1.1//EN"
  "http://www.w3.org/Graphics/SVG/1.1/DTD/svg11.dtd">
<!-- Created with matplotlib (http://matplotlib.sourceforge.net/) -->
<svg height="420pt" version="1.1" viewBox="0 0 564 420" width="564pt" xmlns="http://www.w3.org/2000/svg" xmlns:xlink="http://www.w3.org/1999/xlink">
 <defs>
  <style type="text/css">
*{stroke-linecap:square;stroke-linejoin:round;}
  </style>
 </defs>
 <g id="figure_1">
  <g id="patch_1">
   <path d="
M-4.44089e-16 420.48
L564.466 420.48
L564.466 0
L-4.44089e-16 0
z
" style="fill:#ffffff;"/>
  </g>
  <g id="axes_1">
   <g id="patch_2">
    <path d="
M39.2984 413.28
L557.266 413.28
L557.266 7.2
L39.2984 7.2
z
" style="fill:#ffffff;"/>
   </g>
   <g id="line2d_1">
    <path clip-path="url(#pbda54c63f9)" d="
M49.2594 401.072
L50.4961 362.291
L51.7328 330.319
L52.9696 303.789
L54.2578 280.817
L55.5461 261.708
L56.8344 245.754
L58.1227 232.4
L59.4109 219.933
L61.0084 180.924
L62.6574 146.013
L64.3579 114.741
L66.0584 87.4717
L67.8105 62.8813
L69.614 40.6926
L71.4176 21.1801
L72.0875 15.0092
L73.9942 17.658
L76.4161 21.4276
L79.5595 26.7593
L80.384 28.2109
L80.5386 30.4921
L83.1151 73.4435
L85.7432 113.525
L87.0315 130.813
L89.7626 159.594
L91.9784 182.932
L94.7611 221.491
L96.204 241.971
L99.0382 288.097
L101.924 331.454
L102.903 344.03
L105.325 369.3
L108.417 391.103
L110.066 401.736
L112.075 405.167
L113.982 402.207
L115.734 405.471
L115.786 405.392
L118.774 394.287
L121.763 384.008
L121.815 383.849
L124.391 394.146
L125.577 393.936
L127.792 385.588
L129.081 386.962
L130.781 389.368
L133.461 384.75
L135.007 373.105
L136.81 359.82
L138.305 342.573
L138.975 333.888
L140.933 315.987
L143.252 301.474
L144.849 292.099
L146.91 279.253
L147.992 271.545
L150.414 254.579
L151.651 245.345
L152.527 236.806
L154.176 215.589
L154.846 208.704
L156.65 195.081
L157.474 190.91
L157.886 189.217
L159.329 186.346
L159.381 186.4
L159.638 186.574
L160.154 186.192
L160.205 186.266
L161.287 188.804
L162.782 194.063
L163.555 197.828
L164.328 200.699
L165.255 204.597
L167.162 216.394
L167.677 217.465
L168.244 217.799
L169.79 222.977
L170.254 225.659
L171.13 230.778
L172.16 236.429
L172.47 237.467
L173.088 238.78
L173.346 238.95
L174.479 238.575
L174.789 238.093
L174.84 238.125
L175.046 238.373
L175.561 238.965
L176.386 239.657
L176.798 239.512
L177.726 238.424
L177.983 238.63
L178.705 239.684
L179.066 240.071
L179.478 240.775
L180.508 243.153
L181.333 245.852
L182.467 251.418
L183.343 255.736
L183.909 257.041
L184.837 257.286
L185.404 258.234
L186.074 259.562
L186.641 261.612
L187.053 263.069
L187.774 264.703
L188.135 264.842
L188.547 264.889
L188.856 265.544
L190.042 269.421
L190.66 271.02
L191.175 273.461
L192.361 282.016
L193.906 295.898
L196.741 324.979
L197.359 328.779
L197.771 330.062
L198.184 331.566
L199.317 336.949
L199.936 340.394
L200.296 343.245
L200.863 347.421
L201.842 351.271
L202.203 352.552
L203.337 357.746
L203.8 359.164
L204.573 360.534
L204.883 361.073
L205.14 361.188
L205.346 361.25
L205.604 361.543
L205.965 361.86
L206.789 363.29
L207.201 363.444
L207.356 363.385
L207.665 362.759
L208.953 359.423
L210.036 357.05
L210.602 355.204
L213.179 345.392
L213.694 343.973
L214.931 339.388
L215.24 338.58
L215.704 337.845
L215.859 337.521
L216.58 335.522
L217.044 334.14
L217.405 333.061
L218.023 332.131
L218.177 332.041
L218.796 332.519
L219.569 332.159
L219.93 331.706
L220.445 330.492
L220.909 329.436
L222.042 325.533
L222.403 325.308
L222.918 325.243
L223.124 325.322
L224 325.771
L224.207 325.628
L224.67 324.864
L225.237 324.69
L225.598 324.836
L226.216 324.632
L226.422 324.37
L227.092 322.743
L227.865 319.126
L229.72 308.43
L231.009 300.809
L234.977 281.095
L235.595 278.951
L236.162 277.09
L236.986 275.033
L237.708 273.529
L238.068 272.634
L238.841 270.722
L239.099 270.126
L239.769 268.738
L240.078 268.291
L241.006 265.915
L241.985 262.335
L242.552 259.529
L243.067 257.048
L243.788 253.497
L244.664 250.377
L244.87 250.367
L245.128 250.376
L245.695 250.334
L246.519 249.474
L246.829 249.631
L247.241 250.557
L247.859 252.043
L248.168 252.722
L248.89 253.304
L249.148 253.275
L249.302 253.538
L249.611 254.101
L249.972 254.355
L250.23 254.387
L250.487 254.524
L250.797 254.398
L251.466 253.892
L251.827 253.597
L252.136 252.969
L253.373 248.66
L254.352 244.385
L255.383 239.772
L256.104 236.106
L256.723 234.729
L258.114 232.439
L258.372 232.037
L259.196 230.001
L259.608 228.254
L260.381 225.357
L260.639 225.134
L261.051 225.306
L261.824 225.892
L262.958 228.479
L263.679 232.241
L265.122 240.905
L265.689 243.308
L266.977 248.171
L268.008 251.975
L268.935 255.381
L269.348 256.544
L269.863 257.816
L270.224 258.517
L270.842 260.269
L271.203 260.698
L271.615 261.55
L272.233 263.162
L272.646 264.522
L273.212 267.145
L274.14 271.239
L274.604 273.467
L275.48 279.323
L276.253 285.084
L276.974 288.767
L278.623 295.454
L279.551 298.536
L280.375 301.844
L282.643 308.477
L283.416 310.206
L283.931 311.609
L284.549 312.708
L285.992 314.826
L286.765 315.252
L286.971 315.232
L287.744 314.29
L288.208 313.531
L288.517 313.414
L288.775 312.871
L289.805 310.255
L290.115 309.931
L290.372 310.013
L290.939 310.596
L291.094 310.712
L291.609 311.232
L292.124 311.515
L292.536 311.87
L292.897 312.101
L294.546 314.994
L294.752 315.073
L295.319 315.033
L295.731 315.776
L296.607 316.905
L296.865 317.015
L297.123 317.295
L298.05 318.876
L298.514 320.136
L299.081 321.5
L300.884 324.666
L302.121 328.216
L303.1 331.594
L304.079 332.319
L305.368 332.399
L305.677 332.349
L306.45 332.68
L306.656 332.59
L307.171 332.101
L307.532 331.629
L308.15 330.785
L308.408 330.258
L309.593 327.264
L309.954 326.904
L310.16 326.881
L310.933 327.008
L311.088 326.897
L311.551 326.119
L312.221 324.144
L312.685 323.372
L312.994 322.831
L313.355 321.59
L313.973 319.235
L315.004 315.511
L315.468 313.903
L317.117 308.805
L317.632 308.057
L318.147 307.277
L318.92 306.35
L319.384 305.259
L320.157 303.139
L321.188 300.146
L321.754 296.934
L322.631 292.311
L323.146 290.563
L324.073 288.33
L325.671 282.247
L329.587 267.198
L331.03 262.993
L331.391 262.179
L332.009 260.831
L332.524 259.972
L332.885 258.766
L333.452 256.943
L333.916 256.034
L334.586 255.338
L334.843 255.303
L335.101 255.244
L335.462 255.215
L336.132 255.475
L336.853 256.145
L337.265 256.137
L337.626 256.403
L337.935 256.838
L338.399 257.383
L338.863 257.539
L339.12 257.426
L339.43 257.2
L339.996 257.229
L340.306 257.447
L340.563 257.533
L341.336 258.3
L341.748 258.671
L342.006 258.673
L342.47 258.375
L343.346 257.403
L344.273 257.748
L344.531 257.807
L345.356 258.485
L346.747 259.897
L347.056 259.997
L347.314 259.859
L347.829 259.402
L348.757 258.09
L349.117 257.977
L349.736 257.793
L350.509 258.097
L350.818 258.302
L351.591 258.553
L351.952 258.928
L352.57 258.92
L354.167 256.95
L354.528 256.64
L355.043 256.632
L355.765 257.166
L356.023 257.627
L356.538 258.379
L358.187 260.34
L358.444 260.559
L358.702 260.755
L359.217 261.571
L360.66 265.407
L360.969 265.645
L361.176 265.772
L361.588 266.27
L361.949 266.87
L363.855 269.377
L364.834 271.673
L365.71 274.606
L366.174 276.128
L367.875 283.781
L368.596 287.116
L370.915 295.48
L371.842 296.908
L372.152 297.121
L372.512 296.869
L373.028 296.442
L373.234 296.431
L373.646 296.753
L374.934 298.487
L375.553 299.707
L376.171 300.503
L376.429 301.095
L379.572 309.313
L381.427 312.999
L381.943 314.252
L382.252 314.896
L382.819 316.142
L383.488 317.454
L383.849 318.242
L384.107 318.662
L385.189 319.004
L385.498 318.886
L385.962 318.426
L386.271 318.418
L386.993 319.34
L387.662 320.509
L388.126 320.903
L388.951 321.914
L389.363 322.163
L389.672 322.428
L390.084 322.531
L390.497 322.427
L390.651 322.451
L391.27 323.043
L391.63 322.998
L392.816 321.804
L394.516 318.806
L395.031 317.798
L395.598 317.342
L396.114 317.236
L396.423 317.21
L396.732 317.164
L396.99 316.995
L398.535 315.293
L398.742 314.991
L399.36 313.804
L399.875 312.404
L401.215 308.826
L401.576 308.223
L402.349 307.737
L403.431 307.431
L403.74 307.202
L405.183 304.809
L405.956 302.168
L409.408 289.036
L410.181 287.333
L410.542 286.957
L411.212 286.397
L411.521 286.123
L411.779 286.039
L411.985 286.034
L412.758 286.441
L412.913 286.242
L413.273 285.695
L413.634 285.469
L413.84 285.517
L415.128 286.179
L415.695 286.185
L417.344 287.518
L417.55 287.397
L417.911 287.131
L418.736 287.118
L419.148 286.696
L419.457 286.53
L419.766 286.569
L420.333 286.596
L420.797 286.117
L421.57 284.759
L422.034 284.263
L422.291 283.928
L423.064 282.092
L423.734 280.111
L424.61 276.758
L426.414 270.731
L428.939 262.482
L430.588 258.908
L432.082 254.37
L432.494 253.714
L432.855 253.518
L433.267 253.39
L434.195 252.73
L434.762 251.941
L435.792 250.338
L436.05 250.188
L437.029 250.516
L437.493 250.995
L437.905 251.492
L438.575 252.537
L439.039 253.126
L439.348 253.669
L440.842 257.022
L441.306 257.647
L441.976 258.911
L442.8 261.148
L443.573 263.104
L443.934 264.03
L446.253 271.371
L447.387 273.219
L448.366 274.535
L449.139 275.981
L449.499 276.438
L450.994 278.485
L451.458 279.199
L451.87 279.598
L453.21 280.952
L455.065 283.177
L455.632 283.843
L456.868 285.758
L457.178 286.289
L459.084 290.537
L460.991 292.293
L461.352 292.622
L462.743 293.419
L463.052 293.559
L463.31 293.575
L464.134 293.604
L464.856 293.864
L465.268 293.916
L466.968 294.757
L467.226 295.354
L467.844 296.946
L468.514 297.92
L468.772 298.176
L470.06 300.525
L472.534 307.496
L473.255 308.741
L473.925 309.492
L474.698 310.591
L475.162 311.688
L475.729 312.795
L476.141 313.174
L476.605 313.281
L477.532 312.745
L478.614 311.198
L478.924 311.025
L479.284 311.015
L479.851 310.989
L480.16 311.203
L480.573 311.294
L480.985 311.685
L481.603 312.527
L481.912 312.692
L482.479 313.066
L483.561 313.835
L486.292 314.211
L486.808 313.826
L488.302 312.772
L488.766 312.251
L489.281 311.605
L489.59 311.428
L489.848 311.424
L490.054 311.446
L490.466 311.211
L490.827 310.619
L491.291 309.944
L492.064 308.927
L492.425 307.864
L493.095 305.982
L494.331 302.888
L495.207 301.785
L495.517 301.675
L495.98 301.389
L496.702 300.437
L497.835 298.54
L498.918 296.521
L499.587 295.516
L500.463 294.342
L501.133 293.569
L502.061 293.122
L503.143 291.598
L503.658 290.308
L504.277 288.36
L504.998 286.084
L505.514 284.358
L506.235 281.789
L507.266 279.211
L508.863 275.684
L509.378 274.481
L509.894 273.734
L511.8 272.361
L512.316 272.16
L513.243 271.445
L514.119 270.488
L514.738 269.886
L516.232 269.112
L517.211 268.791
L517.829 268.813
L518.036 268.865
L519.169 269.616
L519.53 269.661
L520.251 269.973
L520.561 270.164
L521.746 270.497
L522.416 270.421
L522.828 270.284
L523.343 270.173
L523.962 270.071
L526.023 268.057
L526.487 267.648
L526.847 267.027
L527.26 266.396
L527.775 265.896
L528.239 265.772
L528.702 265.612
L529.012 265.77
L529.269 265.819
L530.557 265.735
L530.867 265.884
L532.155 267.129
L532.928 267.747
L533.443 268.066
L534.628 269.229
L535.092 269.618
L536.329 270.08
L536.638 270.164
L537.153 270.738
L537.875 272.063
L540.297 275.289
L540.658 275.401
L541.224 275.46
L541.843 275.442
L542.203 275.616
L542.925 276.002
L545.759 279.698
L546.274 280.77
L547.047 282.255
L547.305 282.663
L547.305 282.663" style="fill:none;stroke:#0000ff;"/>
   </g>
   <g id="matplotlib.axis_1">
    <g id="xtick_1">
     <g id="line2d_2">
      <defs>
       <path d="
M0 0
L0 -4" id="m668f720b54"/>
      </defs>
      <g>
       <use style="stroke:#000000;stroke-linecap:butt;stroke-width:0.5;" x="156.354338713" xlink:href="#m668f720b54" y="287.812038615"/>
      </g>
     </g>
     <g id="text_1">
      <!-- 5 -->
      <defs>
       <path d="
M10.7969 72.9062
L49.5156 72.9062
L49.5156 64.5938
L19.8281 64.5938
L19.8281 46.7344
Q21.9688 47.4688 24.1094 47.8281
Q26.2656 48.1875 28.4219 48.1875
Q40.625 48.1875 47.75 41.5
Q54.8906 34.8125 54.8906 23.3906
Q54.8906 11.625 47.5625 5.09375
Q40.2344 -1.42188 26.9062 -1.42188
Q22.3125 -1.42188 17.5469 -0.640625
Q12.7969 0.140625 7.71875 1.70312
L7.71875 11.625
Q12.1094 9.23438 16.7969 8.0625
Q21.4844 6.89062 26.7031 6.89062
Q35.1562 6.89062 40.0781 11.3281
Q45.0156 15.7656 45.0156 23.3906
Q45.0156 31 40.0781 35.4375
Q35.1562 39.8906 26.7031 39.8906
Q22.75 39.8906 18.8125 39.0156
Q14.8906 38.1406 10.7969 36.2812
z
" id="BitstreamVeraSans-Roman-35"/>
      </defs>
      <g transform="translate(153.995744963 299.102663615)scale(0.1 -0.1)">
       <use xlink:href="#BitstreamVeraSans-Roman-35"/>
      </g>
     </g>
    </g>
    <g id="xtick_2">
     <g id="line2d_3">
      <defs>
       <path d="
M0 0
L0 -4" id="m668f720b54"/>
      </defs>
      <g>
       <use style="stroke:#000000;stroke-linecap:butt;stroke-width:0.5;" x="280.685250683" xlink:href="#m668f720b54" y="287.812038615"/>
      </g>
     </g>
     <g id="text_2">
      <!-- 10 -->
      <defs>
       <path d="
M31.7812 66.4062
Q24.1719 66.4062 20.3281 58.9062
Q16.5 51.4219 16.5 36.375
Q16.5 21.3906 20.3281 13.8906
Q24.1719 6.39062 31.7812 6.39062
Q39.4531 6.39062 43.2812 13.8906
Q47.125 21.3906 47.125 36.375
Q47.125 51.4219 43.2812 58.9062
Q39.4531 66.4062 31.7812 66.4062
M31.7812 74.2188
Q44.0469 74.2188 50.5156 64.5156
Q56.9844 54.8281 56.9844 36.375
Q56.9844 17.9688 50.5156 8.26562
Q44.0469 -1.42188 31.7812 -1.42188
Q19.5312 -1.42188 13.0625 8.26562
Q6.59375 17.9688 6.59375 36.375
Q6.59375 54.8281 13.0625 64.5156
Q19.5312 74.2188 31.7812 74.2188" id="BitstreamVeraSans-Roman-30"/>
       <path d="
M12.4062 8.29688
L28.5156 8.29688
L28.5156 63.9219
L10.9844 60.4062
L10.9844 69.3906
L28.4219 72.9062
L38.2812 72.9062
L38.2812 8.29688
L54.3906 8.29688
L54.3906 0
L12.4062 0
z
" id="BitstreamVeraSans-Roman-31"/>
      </defs>
      <g transform="translate(275.204000683 299.233913615)scale(0.1 -0.1)">
       <use xlink:href="#BitstreamVeraSans-Roman-31"/>
       <use x="63.623046875" xlink:href="#BitstreamVeraSans-Roman-30"/>
      </g>
     </g>
    </g>
    <g id="xtick_3">
     <g id="line2d_4">
      <defs>
       <path d="
M0 0
L0 -4" id="m668f720b54"/>
      </defs>
      <g>
       <use style="stroke:#000000;stroke-linecap:butt;stroke-width:0.5;" x="405.016162652" xlink:href="#m668f720b54" y="287.812038615"/>
      </g>
     </g>
     <g id="text_3">
      <!-- 15 -->
      <g transform="translate(399.639600152 299.102663615)scale(0.1 -0.1)">
       <use xlink:href="#BitstreamVeraSans-Roman-31"/>
       <use x="63.623046875" xlink:href="#BitstreamVeraSans-Roman-35"/>
      </g>
     </g>
    </g>
    <g id="xtick_4">
     <g id="line2d_5">
      <defs>
       <path d="
M0 0
L0 -4" id="m668f720b54"/>
      </defs>
      <g>
       <use style="stroke:#000000;stroke-linecap:butt;stroke-width:0.5;" x="529.347074621" xlink:href="#m668f720b54" y="287.812038615"/>
      </g>
     </g>
     <g id="text_4">
      <!-- 20 -->
      <defs>
       <path d="
M19.1875 8.29688
L53.6094 8.29688
L53.6094 0
L7.32812 0
L7.32812 8.29688
Q12.9375 14.1094 22.625 23.8906
Q32.3281 33.6875 34.8125 36.5312
Q39.5469 41.8438 41.4219 45.5312
Q43.3125 49.2188 43.3125 52.7812
Q43.3125 58.5938 39.2344 62.25
Q35.1562 65.9219 28.6094 65.9219
Q23.9688 65.9219 18.8125 64.3125
Q13.6719 62.7031 7.8125 59.4219
L7.8125 69.3906
Q13.7656 71.7812 18.9375 73
Q24.125 74.2188 28.4219 74.2188
Q39.75 74.2188 46.4844 68.5469
Q53.2188 62.8906 53.2188 53.4219
Q53.2188 48.9219 51.5312 44.8906
Q49.8594 40.875 45.4062 35.4062
Q44.1875 33.9844 37.6406 27.2188
Q31.1094 20.4531 19.1875 8.29688" id="BitstreamVeraSans-Roman-32"/>
      </defs>
      <g transform="translate(523.683012121 299.233913615)scale(0.1 -0.1)">
       <use xlink:href="#BitstreamVeraSans-Roman-32"/>
       <use x="63.623046875" xlink:href="#BitstreamVeraSans-Roman-30"/>
      </g>
     </g>
    </g>
    <g id="xtick_5">
     <g id="line2d_6">
      <defs>
       <path d="
M0 0
L0 -2" id="mc0785d8667"/>
      </defs>
      <g>
       <use style="stroke:#000000;stroke-linecap:butt;stroke-width:0.5;" x="56.8896091378" xlink:href="#mc0785d8667" y="287.812038615"/>
      </g>
     </g>
    </g>
    <g id="xtick_6">
     <g id="line2d_7">
      <defs>
       <path d="
M0 0
L0 -2" id="mc0785d8667"/>
      </defs>
      <g>
       <use style="stroke:#000000;stroke-linecap:butt;stroke-width:0.5;" x="81.7557915317" xlink:href="#mc0785d8667" y="287.812038615"/>
      </g>
     </g>
    </g>
    <g id="xtick_7">
     <g id="line2d_8">
      <defs>
       <path d="
M0 0
L0 -2" id="mc0785d8667"/>
      </defs>
      <g>
       <use style="stroke:#000000;stroke-linecap:butt;stroke-width:0.5;" x="106.621973926" xlink:href="#mc0785d8667" y="287.812038615"/>
      </g>
     </g>
    </g>
    <g id="xtick_8">
     <g id="line2d_9">
      <defs>
       <path d="
M0 0
L0 -2" id="mc0785d8667"/>
      </defs>
      <g>
       <use style="stroke:#000000;stroke-linecap:butt;stroke-width:0.5;" x="131.488156319" xlink:href="#mc0785d8667" y="287.812038615"/>
      </g>
     </g>
    </g>
    <g id="xtick_9">
     <g id="line2d_10">
      <defs>
       <path d="
M0 0
L0 -2" id="mc0785d8667"/>
      </defs>
      <g>
       <use style="stroke:#000000;stroke-linecap:butt;stroke-width:0.5;" x="181.220521107" xlink:href="#mc0785d8667" y="287.812038615"/>
      </g>
     </g>
    </g>
    <g id="xtick_10">
     <g id="line2d_11">
      <defs>
       <path d="
M0 0
L0 -2" id="mc0785d8667"/>
      </defs>
      <g>
       <use style="stroke:#000000;stroke-linecap:butt;stroke-width:0.5;" x="206.086703501" xlink:href="#mc0785d8667" y="287.812038615"/>
      </g>
     </g>
    </g>
    <g id="xtick_11">
     <g id="line2d_12">
      <defs>
       <path d="
M0 0
L0 -2" id="mc0785d8667"/>
      </defs>
      <g>
       <use style="stroke:#000000;stroke-linecap:butt;stroke-width:0.5;" x="230.952885895" xlink:href="#mc0785d8667" y="287.812038615"/>
      </g>
     </g>
    </g>
    <g id="xtick_12">
     <g id="line2d_13">
      <defs>
       <path d="
M0 0
L0 -2" id="mc0785d8667"/>
      </defs>
      <g>
       <use style="stroke:#000000;stroke-linecap:butt;stroke-width:0.5;" x="255.819068289" xlink:href="#mc0785d8667" y="287.812038615"/>
      </g>
     </g>
    </g>
    <g id="xtick_13">
     <g id="line2d_14">
      <defs>
       <path d="
M0 0
L0 -2" id="mc0785d8667"/>
      </defs>
      <g>
       <use style="stroke:#000000;stroke-linecap:butt;stroke-width:0.5;" x="305.551433077" xlink:href="#mc0785d8667" y="287.812038615"/>
      </g>
     </g>
    </g>
    <g id="xtick_14">
     <g id="line2d_15">
      <defs>
       <path d="
M0 0
L0 -2" id="mc0785d8667"/>
      </defs>
      <g>
       <use style="stroke:#000000;stroke-linecap:butt;stroke-width:0.5;" x="330.41761547" xlink:href="#mc0785d8667" y="287.812038615"/>
      </g>
     </g>
    </g>
    <g id="xtick_15">
     <g id="line2d_16">
      <defs>
       <path d="
M0 0
L0 -2" id="mc0785d8667"/>
      </defs>
      <g>
       <use style="stroke:#000000;stroke-linecap:butt;stroke-width:0.5;" x="355.283797864" xlink:href="#mc0785d8667" y="287.812038615"/>
      </g>
     </g>
    </g>
    <g id="xtick_16">
     <g id="line2d_17">
      <defs>
       <path d="
M0 0
L0 -2" id="mc0785d8667"/>
      </defs>
      <g>
       <use style="stroke:#000000;stroke-linecap:butt;stroke-width:0.5;" x="380.149980258" xlink:href="#mc0785d8667" y="287.812038615"/>
      </g>
     </g>
    </g>
    <g id="xtick_17">
     <g id="line2d_18">
      <defs>
       <path d="
M0 0
L0 -2" id="mc0785d8667"/>
      </defs>
      <g>
       <use style="stroke:#000000;stroke-linecap:butt;stroke-width:0.5;" x="429.882345046" xlink:href="#mc0785d8667" y="287.812038615"/>
      </g>
     </g>
    </g>
    <g id="xtick_18">
     <g id="line2d_19">
      <defs>
       <path d="
M0 0
L0 -2" id="mc0785d8667"/>
      </defs>
      <g>
       <use style="stroke:#000000;stroke-linecap:butt;stroke-width:0.5;" x="454.74852744" xlink:href="#mc0785d8667" y="287.812038615"/>
      </g>
     </g>
    </g>
    <g id="xtick_19">
     <g id="line2d_20">
      <defs>
       <path d="
M0 0
L0 -2" id="mc0785d8667"/>
      </defs>
      <g>
       <use style="stroke:#000000;stroke-linecap:butt;stroke-width:0.5;" x="479.614709834" xlink:href="#mc0785d8667" y="287.812038615"/>
      </g>
     </g>
    </g>
    <g id="xtick_20">
     <g id="line2d_21">
      <defs>
       <path d="
M0 0
L0 -2" id="mc0785d8667"/>
      </defs>
      <g>
       <use style="stroke:#000000;stroke-linecap:butt;stroke-width:0.5;" x="504.480892228" xlink:href="#mc0785d8667" y="287.812038615"/>
      </g>
     </g>
    </g>
   </g>
   <g id="matplotlib.axis_2">
    <g id="ytick_1">
     <g id="line2d_22">
      <defs>
       <path d="
M0 0
L4 0" id="m8c4644b6f3"/>
      </defs>
      <g>
       <use style="stroke:#000000;stroke-linecap:butt;stroke-width:0.5;" x="29.2984375" xlink:href="#m8c4644b6f3" y="356.341402231"/>
      </g>
     </g>
     <g id="text_5">
      <!-- -0.1 -->
      <defs>
       <path d="
M10.6875 12.4062
L21 12.4062
L21 0
L10.6875 0
z
" id="BitstreamVeraSans-Roman-2e"/>
       <path d="
M4.89062 31.3906
L31.2031 31.3906
L31.2031 23.3906
L4.89062 23.3906
z
" id="BitstreamVeraSans-Roman-2d"/>
      </defs>
      <g transform="translate(7.2 359.981245981)scale(0.1 -0.1)">
       <use xlink:href="#BitstreamVeraSans-Roman-2d"/>
       <use x="36.083984375" xlink:href="#BitstreamVeraSans-Roman-30"/>
       <use x="99.70703125" xlink:href="#BitstreamVeraSans-Roman-2e"/>
       <use x="131.494140625" xlink:href="#BitstreamVeraSans-Roman-31"/>
      </g>
     </g>
    </g>
    <g id="ytick_2">
     <g id="line2d_23">
      <defs>
       <path d="
M0 0
L4 0" id="m8c4644b6f3"/>
      </defs>
      <g>
       <use style="stroke:#000000;stroke-linecap:butt;stroke-width:0.5;" x="29.2984375" xlink:href="#m8c4644b6f3" y="287.812038615"/>
      </g>
     </g>
     <g id="text_6">
      <!-- 0 -->
      <g transform="translate(20.259375 291.451882365)scale(0.1 -0.1)">
       <use xlink:href="#BitstreamVeraSans-Roman-30"/>
      </g>
     </g>
    </g>
    <g id="ytick_3">
     <g id="line2d_24">
      <defs>
       <path d="
M0 0
L4 0" id="m8c4644b6f3"/>
      </defs>
      <g>
       <use style="stroke:#000000;stroke-linecap:butt;stroke-width:0.5;" x="29.2984375" xlink:href="#m8c4644b6f3" y="219.282674999"/>
      </g>
     </g>
     <g id="text_7">
      <!-- 0.1 -->
      <g transform="translate(10.978125 222.922518749)scale(0.1 -0.1)">
       <use xlink:href="#BitstreamVeraSans-Roman-30"/>
       <use x="63.623046875" xlink:href="#BitstreamVeraSans-Roman-2e"/>
       <use x="95.41015625" xlink:href="#BitstreamVeraSans-Roman-31"/>
      </g>
     </g>
    </g>
    <g id="ytick_4">
     <g id="line2d_25">
      <defs>
       <path d="
M0 0
L4 0" id="m8c4644b6f3"/>
      </defs>
      <g>
       <use style="stroke:#000000;stroke-linecap:butt;stroke-width:0.5;" x="29.2984375" xlink:href="#m8c4644b6f3" y="150.753311383"/>
      </g>
     </g>
     <g id="text_8">
      <!-- 0.2 -->
      <g transform="translate(11.05625 154.393155133)scale(0.1 -0.1)">
       <use xlink:href="#BitstreamVeraSans-Roman-30"/>
       <use x="63.623046875" xlink:href="#BitstreamVeraSans-Roman-2e"/>
       <use x="95.41015625" xlink:href="#BitstreamVeraSans-Roman-32"/>
      </g>
     </g>
    </g>
    <g id="ytick_5">
     <g id="line2d_26">
      <defs>
       <path d="
M0 0
L4 0" id="m8c4644b6f3"/>
      </defs>
      <g>
       <use style="stroke:#000000;stroke-linecap:butt;stroke-width:0.5;" x="29.2984375" xlink:href="#m8c4644b6f3" y="82.2239477672"/>
      </g>
     </g>
     <g id="text_9">
      <!-- 0.3 -->
      <defs>
       <path d="
M40.5781 39.3125
Q47.6562 37.7969 51.625 33
Q55.6094 28.2188 55.6094 21.1875
Q55.6094 10.4062 48.1875 4.48438
Q40.7656 -1.42188 27.0938 -1.42188
Q22.5156 -1.42188 17.6562 -0.515625
Q12.7969 0.390625 7.625 2.20312
L7.625 11.7188
Q11.7188 9.32812 16.5938 8.10938
Q21.4844 6.89062 26.8125 6.89062
Q36.0781 6.89062 40.9375 10.5469
Q45.7969 14.2031 45.7969 21.1875
Q45.7969 27.6406 41.2812 31.2656
Q36.7656 34.9062 28.7188 34.9062
L20.2188 34.9062
L20.2188 43.0156
L29.1094 43.0156
Q36.375 43.0156 40.2344 45.9219
Q44.0938 48.8281 44.0938 54.2969
Q44.0938 59.9062 40.1094 62.9062
Q36.1406 65.9219 28.7188 65.9219
Q24.6562 65.9219 20.0156 65.0312
Q15.375 64.1562 9.8125 62.3125
L9.8125 71.0938
Q15.4375 72.6562 20.3438 73.4375
Q25.25 74.2188 29.5938 74.2188
Q40.8281 74.2188 47.3594 69.1094
Q53.9062 64.0156 53.9062 55.3281
Q53.9062 49.2656 50.4375 45.0938
Q46.9688 40.9219 40.5781 39.3125" id="BitstreamVeraSans-Roman-33"/>
      </defs>
      <g transform="translate(10.85625 85.8637915172)scale(0.1 -0.1)">
       <use xlink:href="#BitstreamVeraSans-Roman-30"/>
       <use x="63.623046875" xlink:href="#BitstreamVeraSans-Roman-2e"/>
       <use x="95.41015625" xlink:href="#BitstreamVeraSans-Roman-33"/>
      </g>
     </g>
    </g>
    <g id="ytick_6">
     <g id="line2d_27">
      <defs>
       <path d="
M0 0
L4 0" id="m8c4644b6f3"/>
      </defs>
      <g>
       <use style="stroke:#000000;stroke-linecap:butt;stroke-width:0.5;" x="29.2984375" xlink:href="#m8c4644b6f3" y="13.6945841511"/>
      </g>
     </g>
     <g id="text_10">
      <!-- 0.4 -->
      <defs>
       <path d="
M37.7969 64.3125
L12.8906 25.3906
L37.7969 25.3906
z

M35.2031 72.9062
L47.6094 72.9062
L47.6094 25.3906
L58.0156 25.3906
L58.0156 17.1875
L47.6094 17.1875
L47.6094 0
L37.7969 0
L37.7969 17.1875
L4.89062 17.1875
L4.89062 26.7031
z
" id="BitstreamVeraSans-Roman-34"/>
      </defs>
      <g transform="translate(10.615625 17.3344279011)scale(0.1 -0.1)">
       <use xlink:href="#BitstreamVeraSans-Roman-30"/>
       <use x="63.623046875" xlink:href="#BitstreamVeraSans-Roman-2e"/>
       <use x="95.41015625" xlink:href="#BitstreamVeraSans-Roman-34"/>
      </g>
     </g>
    </g>
    <g id="ytick_7">
     <g id="line2d_28">
      <defs>
       <path d="
M0 0
L2 0" id="m1a13190729"/>
      </defs>
      <g>
       <use style="stroke:#000000;stroke-linecap:butt;stroke-width:0.5;" x="29.2984375" xlink:href="#m1a13190729" y="411.164893124"/>
      </g>
     </g>
    </g>
    <g id="ytick_8">
     <g id="line2d_29">
      <defs>
       <path d="
M0 0
L2 0" id="m1a13190729"/>
      </defs>
      <g>
       <use style="stroke:#000000;stroke-linecap:butt;stroke-width:0.5;" x="29.2984375" xlink:href="#m1a13190729" y="397.459020401"/>
      </g>
     </g>
    </g>
    <g id="ytick_9">
     <g id="line2d_30">
      <defs>
       <path d="
M0 0
L2 0" id="m1a13190729"/>
      </defs>
      <g>
       <use style="stroke:#000000;stroke-linecap:butt;stroke-width:0.5;" x="29.2984375" xlink:href="#m1a13190729" y="383.753147678"/>
      </g>
     </g>
    </g>
    <g id="ytick_10">
     <g id="line2d_31">
      <defs>
       <path d="
M0 0
L2 0" id="m1a13190729"/>
      </defs>
      <g>
       <use style="stroke:#000000;stroke-linecap:butt;stroke-width:0.5;" x="29.2984375" xlink:href="#m1a13190729" y="370.047274955"/>
      </g>
     </g>
    </g>
    <g id="ytick_11">
     <g id="line2d_32">
      <defs>
       <path d="
M0 0
L2 0" id="m1a13190729"/>
      </defs>
      <g>
       <use style="stroke:#000000;stroke-linecap:butt;stroke-width:0.5;" x="29.2984375" xlink:href="#m1a13190729" y="342.635529508"/>
      </g>
     </g>
    </g>
    <g id="ytick_12">
     <g id="line2d_33">
      <defs>
       <path d="
M0 0
L2 0" id="m1a13190729"/>
      </defs>
      <g>
       <use style="stroke:#000000;stroke-linecap:butt;stroke-width:0.5;" x="29.2984375" xlink:href="#m1a13190729" y="328.929656785"/>
      </g>
     </g>
    </g>
    <g id="ytick_13">
     <g id="line2d_34">
      <defs>
       <path d="
M0 0
L2 0" id="m1a13190729"/>
      </defs>
      <g>
       <use style="stroke:#000000;stroke-linecap:butt;stroke-width:0.5;" x="29.2984375" xlink:href="#m1a13190729" y="315.223784062"/>
      </g>
     </g>
    </g>
    <g id="ytick_14">
     <g id="line2d_35">
      <defs>
       <path d="
M0 0
L2 0" id="m1a13190729"/>
      </defs>
      <g>
       <use style="stroke:#000000;stroke-linecap:butt;stroke-width:0.5;" x="29.2984375" xlink:href="#m1a13190729" y="301.517911339"/>
      </g>
     </g>
    </g>
    <g id="ytick_15">
     <g id="line2d_36">
      <defs>
       <path d="
M0 0
L2 0" id="m1a13190729"/>
      </defs>
      <g>
       <use style="stroke:#000000;stroke-linecap:butt;stroke-width:0.5;" x="29.2984375" xlink:href="#m1a13190729" y="287.812038615"/>
      </g>
     </g>
    </g>
    <g id="ytick_16">
     <g id="line2d_37">
      <defs>
       <path d="
M0 0
L2 0" id="m1a13190729"/>
      </defs>
      <g>
       <use style="stroke:#000000;stroke-linecap:butt;stroke-width:0.5;" x="29.2984375" xlink:href="#m1a13190729" y="274.106165892"/>
      </g>
     </g>
    </g>
    <g id="ytick_17">
     <g id="line2d_38">
      <defs>
       <path d="
M0 0
L2 0" id="m1a13190729"/>
      </defs>
      <g>
       <use style="stroke:#000000;stroke-linecap:butt;stroke-width:0.5;" x="29.2984375" xlink:href="#m1a13190729" y="260.400293169"/>
      </g>
     </g>
    </g>
    <g id="ytick_18">
     <g id="line2d_39">
      <defs>
       <path d="
M0 0
L2 0" id="m1a13190729"/>
      </defs>
      <g>
       <use style="stroke:#000000;stroke-linecap:butt;stroke-width:0.5;" x="29.2984375" xlink:href="#m1a13190729" y="246.694420446"/>
      </g>
     </g>
    </g>
    <g id="ytick_19">
     <g id="line2d_40">
      <defs>
       <path d="
M0 0
L2 0" id="m1a13190729"/>
      </defs>
      <g>
       <use style="stroke:#000000;stroke-linecap:butt;stroke-width:0.5;" x="29.2984375" xlink:href="#m1a13190729" y="232.988547723"/>
      </g>
     </g>
    </g>
    <g id="ytick_20">
     <g id="line2d_41">
      <defs>
       <path d="
M0 0
L2 0" id="m1a13190729"/>
      </defs>
      <g>
       <use style="stroke:#000000;stroke-linecap:butt;stroke-width:0.5;" x="29.2984375" xlink:href="#m1a13190729" y="205.576802276"/>
      </g>
     </g>
    </g>
    <g id="ytick_21">
     <g id="line2d_42">
      <defs>
       <path d="
M0 0
L2 0" id="m1a13190729"/>
      </defs>
      <g>
       <use style="stroke:#000000;stroke-linecap:butt;stroke-width:0.5;" x="29.2984375" xlink:href="#m1a13190729" y="191.870929553"/>
      </g>
     </g>
    </g>
    <g id="ytick_22">
     <g id="line2d_43">
      <defs>
       <path d="
M0 0
L2 0" id="m1a13190729"/>
      </defs>
      <g>
       <use style="stroke:#000000;stroke-linecap:butt;stroke-width:0.5;" x="29.2984375" xlink:href="#m1a13190729" y="178.16505683"/>
      </g>
     </g>
    </g>
    <g id="ytick_23">
     <g id="line2d_44">
      <defs>
       <path d="
M0 0
L2 0" id="m1a13190729"/>
      </defs>
      <g>
       <use style="stroke:#000000;stroke-linecap:butt;stroke-width:0.5;" x="29.2984375" xlink:href="#m1a13190729" y="164.459184106"/>
      </g>
     </g>
    </g>
    <g id="ytick_24">
     <g id="line2d_45">
      <defs>
       <path d="
M0 0
L2 0" id="m1a13190729"/>
      </defs>
      <g>
       <use style="stroke:#000000;stroke-linecap:butt;stroke-width:0.5;" x="29.2984375" xlink:href="#m1a13190729" y="137.04743866"/>
      </g>
     </g>
    </g>
    <g id="ytick_25">
     <g id="line2d_46">
      <defs>
       <path d="
M0 0
L2 0" id="m1a13190729"/>
      </defs>
      <g>
       <use style="stroke:#000000;stroke-linecap:butt;stroke-width:0.5;" x="29.2984375" xlink:href="#m1a13190729" y="123.341565937"/>
      </g>
     </g>
    </g>
    <g id="ytick_26">
     <g id="line2d_47">
      <defs>
       <path d="
M0 0
L2 0" id="m1a13190729"/>
      </defs>
      <g>
       <use style="stroke:#000000;stroke-linecap:butt;stroke-width:0.5;" x="29.2984375" xlink:href="#m1a13190729" y="109.635693214"/>
      </g>
     </g>
    </g>
    <g id="ytick_27">
     <g id="line2d_48">
      <defs>
       <path d="
M0 0
L2 0" id="m1a13190729"/>
      </defs>
      <g>
       <use style="stroke:#000000;stroke-linecap:butt;stroke-width:0.5;" x="29.2984375" xlink:href="#m1a13190729" y="95.9298204904"/>
      </g>
     </g>
    </g>
    <g id="ytick_28">
     <g id="line2d_49">
      <defs>
       <path d="
M0 0
L2 0" id="m1a13190729"/>
      </defs>
      <g>
       <use style="stroke:#000000;stroke-linecap:butt;stroke-width:0.5;" x="29.2984375" xlink:href="#m1a13190729" y="82.2239477672"/>
      </g>
     </g>
    </g>
    <g id="ytick_29">
     <g id="line2d_50">
      <defs>
       <path d="
M0 0
L2 0" id="m1a13190729"/>
      </defs>
      <g>
       <use style="stroke:#000000;stroke-linecap:butt;stroke-width:0.5;" x="29.2984375" xlink:href="#m1a13190729" y="68.518075044"/>
      </g>
     </g>
    </g>
    <g id="ytick_30">
     <g id="line2d_51">
      <defs>
       <path d="
M0 0
L2 0" id="m1a13190729"/>
      </defs>
      <g>
       <use style="stroke:#000000;stroke-linecap:butt;stroke-width:0.5;" x="29.2984375" xlink:href="#m1a13190729" y="54.8122023208"/>
      </g>
     </g>
    </g>
    <g id="ytick_31">
     <g id="line2d_52">
      <defs>
       <path d="
M0 0
L2 0" id="m1a13190729"/>
      </defs>
      <g>
       <use style="stroke:#000000;stroke-linecap:butt;stroke-width:0.5;" x="29.2984375" xlink:href="#m1a13190729" y="41.1063295976"/>
      </g>
     </g>
    </g>
    <g id="ytick_32">
     <g id="line2d_53">
      <defs>
       <path d="
M0 0
L2 0" id="m1a13190729"/>
      </defs>
      <g>
       <use style="stroke:#000000;stroke-linecap:butt;stroke-width:0.5;" x="29.2984375" xlink:href="#m1a13190729" y="27.4004568744"/>
      </g>
     </g>
    </g>
   </g>
   <g id="patch_3">
    <path d="
M39.2984 287.812
L557.266 287.812" style="fill:none;stroke:#000000;stroke-width:0.8;"/>
   </g>
   <g id="patch_4">
    <path d="
M29.2984 413.28
L29.2984 7.2" style="fill:none;stroke:#000000;stroke-width:0.8;"/>
   </g>
  </g>
 </g>
 <defs>
  <clipPath id="pbda54c63f9">
   <rect height="406.08" width="517.9675" x="39.2984375" y="7.2"/>
  </clipPath>
 </defs>
</svg>
