<?xml version="1.0" encoding="utf-8" standalone="no"?>
<!DOCTYPE svg PUBLIC "-//W3C//DTD SVG 1.1//EN"
  "http://www.w3.org/Graphics/SVG/1.1/DTD/svg11.dtd">
<!-- Created with matplotlib (http://matplotlib.sourceforge.net/) -->
<svg height="420pt" version="1.1" viewBox="0 0 564 420" width="564pt" xmlns="http://www.w3.org/2000/svg" xmlns:xlink="http://www.w3.org/1999/xlink">
 <defs>
  <style type="text/css">
*{stroke-linecap:square;stroke-linejoin:round;}
  </style>
 </defs>
 <g id="figure_1">
  <g id="patch_1">
   <path d="
M2.22045e-16 420.48
L564.508 420.48
L564.508 0
L2.22045e-16 0
z
" style="fill:#ffffff;"/>
  </g>
  <g id="axes_1">
   <g id="patch_2">
    <path d="
M45.7109 413.28
L557.308 413.28
L557.308 7.2
L45.7109 7.2
z
" style="fill:#ffffff;"/>
   </g>
   <g id="line2d_1">
    <path clip-path="url(#p5895cd3558)" d="
M55.5493 15.0092
L56.3128 23.2263
L57.2798 36.3278
L58.4505 55.4498
L59.9265 83.5058
L61.7588 122.835
L64.151 179.298
L65.5252 213.028
L65.5761 212.884
L66.085 211.799
L66.4922 211.377
L66.8485 211.317
L67.1539 211.485
L67.5611 212.011
L68.0191 212.994
L68.6299 214.914
L69.3425 217.974
L70.2077 222.778
L71.2256 229.814
L72.3963 239.554
L73.7705 252.966
L75.3483 270.639
L77.1806 293.749
L78.2494 306.687
L79.3692 313.608
L80.6416 322.912
L82.1176 335.423
L83.7972 351.647
L85.7313 372.617
L86.3421 379.399
L86.393 379.384
L86.8511 379.371
L87.3091 379.57
L87.8181 380.032
L88.4289 380.908
L89.1414 382.356
L89.9558 384.548
L90.9228 387.856
L91.9917 392.349
L92.6024 394.762
L93.1114 395.051
L93.7222 395.684
L94.3838 396.71
L95.1473 398.318
L96.0634 400.819
L97.0814 404.292
L97.3868 405.471
L97.4376 405.38
L98.9137 389.835
L100.339 377.078
L101.56 367.025
L103.545 317.384
L105.479 274.424
L107.413 236.334
L108.381 220.326
L110.06 200.801
L110.824 192.804
L110.874 192.87
L112.961 209.812
L115.252 230.25
L115.557 232.86
L115.608 232.779
L116.422 231.696
L117.186 231.04
L117.644 230.86
L118.305 231.289
L119.069 232.072
L119.476 232.632
L121.817 247.508
L122.886 252.797
L125.889 285.536
L127.569 305.624
L129.91 336.886
L131.284 342.065
L132.506 345.566
L133.32 347.809
L134.134 349.173
L134.185 349.055
L135.254 346.864
L136.069 345.616
L136.781 345.864
L137.545 346.372
L138.359 347.182
L139.275 348.417
L139.58 349.028
L141.006 353.72
L141.922 356.631
L142.685 356.814
L143.194 357.067
L143.347 356.246
L143.958 352.723
L144.721 352.567
L145.485 352.647
L145.841 352.763
L146.757 348.849
L147.164 346.179
L149.913 317.157
L151.083 305.066
L151.948 300.15
L152.407 300.177
L153.323 301.056
L153.424 300.939
L153.781 300.376
L155.104 291.24
L157.852 270.075
L158.616 266.211
L159.939 260.294
L161.517 248.7
L161.772 247.728
L161.822 247.799
L162.688 249.14
L163.044 250.662
L163.858 254.753
L164.367 258.467
L166.658 280.079
L168.388 289.67
L168.541 289.817
L169.762 287.407
L170.17 286.881
L171.086 286.274
L171.544 286.156
L171.747 286.166
L173.122 289.118
L173.223 289.214
L173.274 289.136
L174.343 286.563
L174.903 284.07
L175.565 283.697
L175.921 283.636
L176.125 284.198
L176.888 288.921
L177.193 289.801
L177.804 288.789
L178.16 287.947
L179.077 287.491
L179.178 287.456
L179.535 286.429
L179.586 286.458
L179.789 286.475
L180.247 286.508
L181.062 286.821
L181.571 287.185
L181.978 287.064
L182.232 287.402
L182.639 288.524
L182.69 288.496
L183.047 288.365
L183.25 288.804
L183.708 289.912
L184.064 290.425
L184.421 291.438
L185.541 297.489
L186.202 304.589
L187.424 320.76
L187.933 326.378
L188.493 330.597
L189.816 340.151
L190.325 343.204
L190.783 347.317
L191.343 351.491
L191.954 353.706
L192.513 355.744
L193.43 359.271
L193.837 360.19
L193.888 360.142
L194.091 359.997
L194.498 360.379
L194.702 360.402
L195.364 359.16
L195.618 359.105
L195.771 358.675
L196.331 356.433
L196.992 352.467
L197.705 349.42
L199.792 335.333
L200.352 331.501
L201.064 326.657
L201.675 324.428
L201.878 323.561
L202.846 316.588
L203.507 309.977
L206.154 284.902
L206.815 280.52
L207.426 278.058
L207.63 277.747
L207.783 277.769
L208.037 277.243
L208.444 276.248
L208.597 276.3
L209.004 276.709
L209.411 277.548
L209.462 277.503
L209.666 277.272
L210.175 274.937
L210.684 273.049
L211.142 271.629
L211.753 269.463
L212.312 267.799
L212.516 267.535
L212.974 266.765
L213.178 266.488
L213.687 265.354
L214.145 264.143
L214.348 263.882
L214.45 263.83
L214.755 262.957
L215.417 259.832
L216.028 258.236
L216.231 257.988
L216.486 257.974
L216.69 258.37
L216.995 259.513
L217.707 262.184
L218.369 264.004
L218.827 265.685
L219.082 266.23
L219.387 266.483
L219.998 267.963
L220.151 268.032
L220.965 267.615
L221.168 267.79
L222.085 270.117
L222.441 270.589
L222.95 272.513
L224.019 278.246
L224.68 282.93
L225.342 288.36
L227.632 312.517
L228.192 316.042
L228.599 317.85
L230.992 325.214
L231.653 326.153
L231.806 326.04
L232.417 324.819
L232.722 325.029
L233.027 324.821
L233.282 325.011
L234.045 324.514
L234.249 324.431
L235.267 322.492
L235.318 322.528
L235.725 322.742
L235.929 322.743
L236.132 322.931
L236.59 322.639
L236.997 321.867
L237.405 320.32
L238.219 316.077
L238.779 313.235
L239.593 308.933
L240.306 305.573
L241.12 304.214
L241.324 304.084
L241.578 303.619
L241.833 302.766
L242.189 301.896
L242.342 301.755
L242.698 301.959
L242.952 302.731
L243.919 307.015
L244.632 310.191
L245.09 310.637
L245.294 310.731
L245.65 311.267
L246.872 314.995
L247.788 317.218
L248.755 320.058
L249.162 320.47
L249.416 320.471
L250.078 321.113
L250.383 321.731
L250.74 322.359
L250.943 322.307
L251.249 322.001
L251.401 321.933
L251.809 321.559
L251.859 321.628
L252.267 322.217
L252.674 323.207
L253.081 324.304
L253.488 324.236
L253.844 323.571
L254.201 322.911
L255.371 320.132
L255.422 320.158
L255.626 320.533
L256.033 321.204
L256.186 321.068
L256.44 320.61
L256.949 319.239
L257.458 316.852
L258.883 310.076
L259.239 308.981
L260.003 305.569
L260.461 303.298
L261.021 299.048
L261.632 295.262
L262.242 291.721
L263.006 287.617
L265.398 278.549
L265.703 277.242
L266.263 273.622
L267.383 266.05
L268.045 263.151
L268.452 261.865
L268.706 261.333
L269.826 258.043
L270.03 257.818
L270.946 259.729
L271.506 262.52
L274.305 278.917
L276.188 286.692
L276.697 289.104
L277.104 290.011
L278.529 292.855
L278.733 293.567
L279.598 297.191
L280.158 298.8
L280.667 299.504
L280.922 299.779
L281.176 300.209
L282.041 302.467
L282.194 302.647
L283.059 304.928
L283.467 306.684
L284.383 310.369
L284.841 312.13
L285.197 313.826
L286.52 323.417
L286.877 324.722
L287.844 326.839
L288.149 326.913
L288.302 326.872
L289.065 325.966
L289.625 325.208
L290.032 325.425
L290.338 325.091
L290.592 325.169
L290.847 325.305
L290.948 325.327
L291.406 325.655
L291.661 325.749
L292.73 327.341
L293.086 328.141
L293.29 328.22
L293.391 328.14
L294.562 326.557
L294.664 326.653
L295.071 327.184
L295.326 326.852
L295.835 326.307
L296.242 326.317
L296.598 325.627
L296.954 323.797
L297.565 319.61
L298.278 315.257
L299.041 310.553
L299.448 308.152
L300.11 305.621
L300.313 305.395
L300.619 305.556
L300.772 305.692
L301.077 306.391
L301.382 307.066
L301.789 307.642
L302.807 308.285
L303.52 309.402
L303.978 310.312
L304.131 310.28
L304.233 310.245
L304.538 310.418
L304.741 310.337
L304.945 309.944
L305.301 309.391
L305.81 309.19
L306.014 309.172
L306.472 308.888
L306.777 308.56
L307.032 308.063
L307.337 306.613
L307.999 303.661
L309.373 297.481
L309.933 294.945
L310.696 292.567
L311.307 291.306
L312.02 289.061
L312.783 286.268
L313.089 285.56
L313.954 282.661
L314.157 282.545
L314.31 282.415
L314.565 281.922
L315.023 280.62
L315.532 279.204
L315.837 278.693
L316.499 278.753
L317.059 280.122
L317.568 281.29
L318.229 282.908
L319.094 285.586
L319.502 286.082
L319.705 286.208
L319.909 286.189
L320.163 286.02
L321.13 285.981
L321.334 286.313
L321.538 286.884
L322.25 289.473
L323.115 291.503
L323.421 291.88
L323.573 291.855
L323.777 291.527
L324.082 291.083
L324.337 291.082
L324.54 290.774
L324.795 290.157
L324.999 289.854
L325.66 290.234
L326.118 290.975
L326.525 291.53
L326.678 291.531
L326.882 291.52
L327.238 291.82
L327.798 292.625
L328.307 293.903
L329.528 297.879
L329.936 299.052
L330.139 298.974
L330.394 298.76
L330.648 298.525
L330.75 298.474
L331.717 296.345
L332.073 295.685
L332.277 295.254
L332.531 294.909
L332.684 294.968
L333.498 296.488
L334.109 297.858
L334.822 299.755
L335.127 301.003
L335.585 302.607
L335.738 302.96
L336.094 303.892
L336.349 304.172
L336.552 304.446
L337.061 304.664
L337.316 305.196
L338.13 306.753
L338.334 307.074
L338.741 308.35
L339.453 310.669
L340.064 313.094
L340.675 314.699
L341.744 316.458
L342.507 319.485
L342.762 319.817
L342.965 319.838
L343.067 319.821
L343.271 319.799
L344.339 319.232
L344.594 319.466
L344.747 319.282
L345.001 318.889
L345.205 318.796
L346.019 317.527
L346.274 317.222
L346.426 317.164
L346.63 317.155
L346.884 317.147
L347.139 317.157
L347.546 317.601
L347.851 317.736
L348.055 318.071
L348.767 319.348
L348.92 319.314
L349.327 318.878
L349.531 318.304
L349.989 316.629
L350.243 316.403
L350.702 316.507
L350.956 316.649
L351.312 316.554
L351.516 316.625
L351.669 316.687
L351.872 316.926
L352.585 317.935
L352.992 317.685
L353.45 317.429
L353.603 317.264
L354.01 316.656
L354.366 316.027
L354.722 315.501
L354.926 315.507
L355.079 315.374
L355.689 314.104
L356.351 312.268
L356.707 311.455
L357.115 310.216
L359.354 300.809
L359.71 299.919
L359.914 299.404
L361.085 295.755
L361.492 295.109
L362.459 294.442
L362.764 294.61
L362.917 294.611
L363.324 294.254
L363.833 294.025
L364.037 294.122
L364.24 294.362
L364.495 294.745
L364.953 294.436
L365.564 293.434
L366.072 293.615
L366.48 293.511
L366.836 293.643
L366.989 293.523
L367.294 292.81
L367.498 292.431
L368.108 291.877
L368.312 291.553
L368.668 290.381
L369.33 288.491
L370.093 286.869
L370.704 284.366
L372.231 277.571
L373.554 274.314
L374.725 272.141
L374.929 272.087
L375.081 272.048
L375.438 271.475
L375.59 271.593
L376.048 272.069
L376.455 272.423
L377.168 274.319
L377.677 276.323
L378.288 278.218
L378.644 279.555
L379 280.919
L379.56 283.821
L380.222 288.087
L381.749 300.608
L383.021 309.357
L383.886 313.217
L385.057 315.728
L385.566 316.62
L385.77 316.927
L386.94 319.734
L387.551 320.968
L388.009 321.976
L388.365 322.199
L388.976 322.302
L389.332 322.186
L389.689 321.795
L389.892 321.763
L390.147 321.542
L390.91 320.083
L391.267 320.043
L391.826 320.372
L392.335 319.955
L393.048 319.736
L393.201 319.631
L393.506 319.737
L393.71 319.663
L394.473 318.718
L394.677 318.118
L395.695 313.727
L396.051 312.693
L397.272 309.429
L397.781 307.469
L398.952 304.686
L399.665 303.545
L399.919 303.5
L400.224 303.698
L400.377 303.767
L400.632 303.984
L401.446 304.78
L401.802 304.74
L402.108 304.585
L402.922 303.914
L403.227 303.939
L403.431 303.983
L403.635 304.101
L404.245 304.343
L404.5 304.087
L405.009 303.679
L406.179 303.948
L406.739 303.815
L406.994 303.93
L408.215 305.783
L408.368 305.892
L408.521 305.916
L409.131 305.305
L409.488 305.091
L409.742 305.004
L410.149 304.916
L411.116 304.204
L411.371 304.069
L412.083 303.768
L413.254 302.56
L413.61 302.331
L414.323 301.619
L414.679 301.653
L414.985 301.369
L415.544 301.223
L416.257 300.113
L416.664 299.787
L417.071 299.253
L417.733 298.889
L418.191 297.566
L418.751 295.522
L419.718 293.034
L420.431 291.823
L421.856 289.867
L422.161 289.642
L422.365 289.625
L422.975 288.852
L423.23 288.601
L423.434 288.46
L423.586 288.197
L424.146 287.053
L424.401 286.662
L424.553 286.817
L424.91 287.137
L425.164 287.099
L425.418 287.006
L425.571 287.115
L425.877 287.365
L426.029 287.319
L428.065 285.432
L428.421 285.149
L428.625 285.258
L429.083 285.782
L429.439 286.091
L429.694 286.066
L429.948 286.167
L430.305 286.338
L430.712 286.829
L431.017 287.43
L431.628 288.509
L431.832 288.867
L432.188 289.344
L432.493 289.537
L434.325 291.769
L435.242 294.245
L436.514 299.607
L436.972 300.658
L437.278 300.946
L437.583 301.378
L438.143 302.592
L439.415 304.575
L439.822 305.478
L441.298 308.994
L441.604 309.645
L441.96 310.138
L442.724 311.897
L443.385 314.623
L445.37 325.588
L445.777 326.854
L446.49 328.095
L446.744 328.16
L446.897 328.21
L447.253 328.324
L447.457 328.051
L447.762 327.228
L448.729 324.004
L448.882 323.952
L449.086 324.024
L449.34 323.77
L449.544 323.3
L450.002 322.272
L450.816 321.288
L451.274 320.175
L452.038 317.837
L452.445 316.543
L453.056 314.218
L453.615 311.539
L454.277 308.756
L454.786 307.157
L455.091 306.526
L455.295 306.483
L455.448 306.451
L456.364 305.585
L456.924 305.403
L457.636 304.807
L458.044 304.249
L458.654 303.236
L459.214 302.218
L460.741 297.988
L461.199 296.768
L462.268 294.185
L462.828 293.381
L463.388 292.589
L464.253 291.17
L464.558 290.867
L464.813 290.26
L465.271 289.179
L466.085 287.533
L466.645 287
L466.798 287.14
L467.052 287.737
L467.51 288.911
L468.121 289.679
L468.783 290.137
L469.241 290.163
L470.666 290.853
L471.022 291.546
L471.531 292.764
L472.244 294.015
L472.498 294.088
L473.109 293.899
L473.974 293.788
L474.381 294.375
L474.89 295.277
L475.247 295.368
L475.858 295.018
L476.112 294.933
L476.926 295.215
L478.097 296.529
L478.402 296.373
L479.013 295.828
L479.471 295.449
L480.184 294.272
L480.795 294.057
L481.202 294.092
L481.558 294.005
L481.711 294.124
L482.169 295.051
L482.729 296.611
L483.034 297.342
L484.001 300.041
L484.866 301.894
L485.579 302.652
L486.19 302.826
L486.393 302.517
L487.258 300.977
L488.989 297.703
L489.396 297.58
L490.312 297.371
L490.669 298.086
L490.974 298.957
L492.908 304.768
L493.264 305.561
L494.028 308.49
L494.588 310.341
L495.046 311.21
L495.402 311.65
L496.165 312.359
L496.471 312.674
L496.725 312.941
L496.878 313.006
L497.998 315.083
L499.372 317.379
L499.677 317.592
L499.83 317.629
L500.237 317.562
L500.492 317.406
L500.746 317.344
L501.052 317.568
L501.561 317.935
L502.222 317.301
L502.629 316.538
L503.342 315.725
L504.105 314.51
L505.022 312.352
L506.09 308.509
L508.126 304.834
L508.737 304.724
L508.941 304.712
L510.009 303.802
L510.417 303.385
L510.926 303.189
L511.129 303.348
L511.944 303.658
L512.096 303.582
L513.114 302.503
L514.896 299.667
L515.201 299.313
L515.71 298.764
L515.914 298.538
L516.728 297.232
L517.949 295.761
L518.509 295.589
L518.866 295.367
L519.273 295.447
L519.883 294.924
L520.342 294.693
L520.545 294.648
L520.851 294.469
L521.054 294.512
L522.225 295.484
L522.632 295.356
L523.141 295.052
L523.395 295.055
L523.803 294.608
L524.617 292.552
L525.788 289.432
L527.213 287.243
L527.569 287.052
L527.976 286.816
L528.536 287.023
L529.249 287.115
L530.216 286.525
L530.419 286.496
L530.725 286.605
L531.437 287.634
L532.251 289.604
L532.608 290.03
L532.964 290.244
L533.269 290.247
L533.422 290.355
L533.778 291.061
L534.338 292.088
L534.847 292.716
L535.102 293.331
L536.272 296.451
L537.138 298.162
L538.257 301.324
L539.988 305.335
L541.26 309.839
L542.685 312.801
L543.602 314.063
L543.856 314.701
L544.619 316.816
L545.078 317.494
L545.383 317.643
L545.637 317.727
L545.892 317.775
L546.452 317.635
L547.012 317.141
L547.164 317.03
L547.47 316.522
L547.47 316.522" style="fill:none;stroke:#0000ff;"/>
   </g>
   <g id="matplotlib.axis_1">
    <g id="xtick_1">
     <g id="line2d_2">
      <defs>
       <path d="
M0 0
L0 -4" id="ma11ffdc939"/>
      </defs>
      <g>
       <use style="stroke:#000000;stroke-linecap:butt;stroke-width:0.5;" x="161.327206554" xlink:href="#ma11ffdc939" y="301.740257585"/>
      </g>
     </g>
     <g id="text_1">
      <!-- 5 -->
      <defs>
       <path d="
M10.7969 72.9062
L49.5156 72.9062
L49.5156 64.5938
L19.8281 64.5938
L19.8281 46.7344
Q21.9688 47.4688 24.1094 47.8281
Q26.2656 48.1875 28.4219 48.1875
Q40.625 48.1875 47.75 41.5
Q54.8906 34.8125 54.8906 23.3906
Q54.8906 11.625 47.5625 5.09375
Q40.2344 -1.42188 26.9062 -1.42188
Q22.3125 -1.42188 17.5469 -0.640625
Q12.7969 0.140625 7.71875 1.70312
L7.71875 11.625
Q12.1094 9.23438 16.7969 8.0625
Q21.4844 6.89062 26.7031 6.89062
Q35.1562 6.89062 40.0781 11.3281
Q45.0156 15.7656 45.0156 23.3906
Q45.0156 31 40.0781 35.4375
Q35.1562 39.8906 26.7031 39.8906
Q22.75 39.8906 18.8125 39.0156
Q14.8906 38.1406 10.7969 36.2812
z
" id="BitstreamVeraSans-Roman-35"/>
      </defs>
      <g transform="translate(158.968612804 313.030882585)scale(0.1 -0.1)">
       <use xlink:href="#BitstreamVeraSans-Roman-35"/>
      </g>
     </g>
    </g>
    <g id="xtick_2">
     <g id="line2d_3">
      <defs>
       <path d="
M0 0
L0 -4" id="ma11ffdc939"/>
      </defs>
      <g>
       <use style="stroke:#000000;stroke-linecap:butt;stroke-width:0.5;" x="284.129013391" xlink:href="#ma11ffdc939" y="301.740257585"/>
      </g>
     </g>
     <g id="text_2">
      <!-- 10 -->
      <defs>
       <path d="
M31.7812 66.4062
Q24.1719 66.4062 20.3281 58.9062
Q16.5 51.4219 16.5 36.375
Q16.5 21.3906 20.3281 13.8906
Q24.1719 6.39062 31.7812 6.39062
Q39.4531 6.39062 43.2812 13.8906
Q47.125 21.3906 47.125 36.375
Q47.125 51.4219 43.2812 58.9062
Q39.4531 66.4062 31.7812 66.4062
M31.7812 74.2188
Q44.0469 74.2188 50.5156 64.5156
Q56.9844 54.8281 56.9844 36.375
Q56.9844 17.9688 50.5156 8.26562
Q44.0469 -1.42188 31.7812 -1.42188
Q19.5312 -1.42188 13.0625 8.26562
Q6.59375 17.9688 6.59375 36.375
Q6.59375 54.8281 13.0625 64.5156
Q19.5312 74.2188 31.7812 74.2188" id="BitstreamVeraSans-Roman-30"/>
       <path d="
M12.4062 8.29688
L28.5156 8.29688
L28.5156 63.9219
L10.9844 60.4062
L10.9844 69.3906
L28.4219 72.9062
L38.2812 72.9062
L38.2812 8.29688
L54.3906 8.29688
L54.3906 0
L12.4062 0
z
" id="BitstreamVeraSans-Roman-31"/>
      </defs>
      <g transform="translate(278.647763391 313.162132585)scale(0.1 -0.1)">
       <use xlink:href="#BitstreamVeraSans-Roman-31"/>
       <use x="63.623046875" xlink:href="#BitstreamVeraSans-Roman-30"/>
      </g>
     </g>
    </g>
    <g id="xtick_3">
     <g id="line2d_4">
      <defs>
       <path d="
M0 0
L0 -4" id="ma11ffdc939"/>
      </defs>
      <g>
       <use style="stroke:#000000;stroke-linecap:butt;stroke-width:0.5;" x="406.930820228" xlink:href="#ma11ffdc939" y="301.740257585"/>
      </g>
     </g>
     <g id="text_3">
      <!-- 15 -->
      <g transform="translate(401.554257728 313.030882585)scale(0.1 -0.1)">
       <use xlink:href="#BitstreamVeraSans-Roman-31"/>
       <use x="63.623046875" xlink:href="#BitstreamVeraSans-Roman-35"/>
      </g>
     </g>
    </g>
    <g id="xtick_4">
     <g id="line2d_5">
      <defs>
       <path d="
M0 0
L0 -4" id="ma11ffdc939"/>
      </defs>
      <g>
       <use style="stroke:#000000;stroke-linecap:butt;stroke-width:0.5;" x="529.732627065" xlink:href="#ma11ffdc939" y="301.740257585"/>
      </g>
     </g>
     <g id="text_4">
      <!-- 20 -->
      <defs>
       <path d="
M19.1875 8.29688
L53.6094 8.29688
L53.6094 0
L7.32812 0
L7.32812 8.29688
Q12.9375 14.1094 22.625 23.8906
Q32.3281 33.6875 34.8125 36.5312
Q39.5469 41.8438 41.4219 45.5312
Q43.3125 49.2188 43.3125 52.7812
Q43.3125 58.5938 39.2344 62.25
Q35.1562 65.9219 28.6094 65.9219
Q23.9688 65.9219 18.8125 64.3125
Q13.6719 62.7031 7.8125 59.4219
L7.8125 69.3906
Q13.7656 71.7812 18.9375 73
Q24.125 74.2188 28.4219 74.2188
Q39.75 74.2188 46.4844 68.5469
Q53.2188 62.8906 53.2188 53.4219
Q53.2188 48.9219 51.5312 44.8906
Q49.8594 40.875 45.4062 35.4062
Q44.1875 33.9844 37.6406 27.2188
Q31.1094 20.4531 19.1875 8.29688" id="BitstreamVeraSans-Roman-32"/>
      </defs>
      <g transform="translate(524.068564565 313.162132585)scale(0.1 -0.1)">
       <use xlink:href="#BitstreamVeraSans-Roman-32"/>
       <use x="63.623046875" xlink:href="#BitstreamVeraSans-Roman-30"/>
      </g>
     </g>
    </g>
    <g id="xtick_5">
     <g id="line2d_6">
      <defs>
       <path d="
M0 0
L0 -2" id="m11cbad7e4e"/>
      </defs>
      <g>
       <use style="stroke:#000000;stroke-linecap:butt;stroke-width:0.5;" x="63.085761084" xlink:href="#m11cbad7e4e" y="301.740257585"/>
      </g>
     </g>
    </g>
    <g id="xtick_6">
     <g id="line2d_7">
      <defs>
       <path d="
M0 0
L0 -2" id="m11cbad7e4e"/>
      </defs>
      <g>
       <use style="stroke:#000000;stroke-linecap:butt;stroke-width:0.5;" x="87.6461224514" xlink:href="#m11cbad7e4e" y="301.740257585"/>
      </g>
     </g>
    </g>
    <g id="xtick_7">
     <g id="line2d_8">
      <defs>
       <path d="
M0 0
L0 -2" id="m11cbad7e4e"/>
      </defs>
      <g>
       <use style="stroke:#000000;stroke-linecap:butt;stroke-width:0.5;" x="112.206483819" xlink:href="#m11cbad7e4e" y="301.740257585"/>
      </g>
     </g>
    </g>
    <g id="xtick_8">
     <g id="line2d_9">
      <defs>
       <path d="
M0 0
L0 -2" id="m11cbad7e4e"/>
      </defs>
      <g>
       <use style="stroke:#000000;stroke-linecap:butt;stroke-width:0.5;" x="136.766845186" xlink:href="#m11cbad7e4e" y="301.740257585"/>
      </g>
     </g>
    </g>
    <g id="xtick_9">
     <g id="line2d_10">
      <defs>
       <path d="
M0 0
L0 -2" id="m11cbad7e4e"/>
      </defs>
      <g>
       <use style="stroke:#000000;stroke-linecap:butt;stroke-width:0.5;" x="185.887567921" xlink:href="#m11cbad7e4e" y="301.740257585"/>
      </g>
     </g>
    </g>
    <g id="xtick_10">
     <g id="line2d_11">
      <defs>
       <path d="
M0 0
L0 -2" id="m11cbad7e4e"/>
      </defs>
      <g>
       <use style="stroke:#000000;stroke-linecap:butt;stroke-width:0.5;" x="210.447929288" xlink:href="#m11cbad7e4e" y="301.740257585"/>
      </g>
     </g>
    </g>
    <g id="xtick_11">
     <g id="line2d_12">
      <defs>
       <path d="
M0 0
L0 -2" id="m11cbad7e4e"/>
      </defs>
      <g>
       <use style="stroke:#000000;stroke-linecap:butt;stroke-width:0.5;" x="235.008290656" xlink:href="#m11cbad7e4e" y="301.740257585"/>
      </g>
     </g>
    </g>
    <g id="xtick_12">
     <g id="line2d_13">
      <defs>
       <path d="
M0 0
L0 -2" id="m11cbad7e4e"/>
      </defs>
      <g>
       <use style="stroke:#000000;stroke-linecap:butt;stroke-width:0.5;" x="259.568652023" xlink:href="#m11cbad7e4e" y="301.740257585"/>
      </g>
     </g>
    </g>
    <g id="xtick_13">
     <g id="line2d_14">
      <defs>
       <path d="
M0 0
L0 -2" id="m11cbad7e4e"/>
      </defs>
      <g>
       <use style="stroke:#000000;stroke-linecap:butt;stroke-width:0.5;" x="308.689374758" xlink:href="#m11cbad7e4e" y="301.740257585"/>
      </g>
     </g>
    </g>
    <g id="xtick_14">
     <g id="line2d_15">
      <defs>
       <path d="
M0 0
L0 -2" id="m11cbad7e4e"/>
      </defs>
      <g>
       <use style="stroke:#000000;stroke-linecap:butt;stroke-width:0.5;" x="333.249736125" xlink:href="#m11cbad7e4e" y="301.740257585"/>
      </g>
     </g>
    </g>
    <g id="xtick_15">
     <g id="line2d_16">
      <defs>
       <path d="
M0 0
L0 -2" id="m11cbad7e4e"/>
      </defs>
      <g>
       <use style="stroke:#000000;stroke-linecap:butt;stroke-width:0.5;" x="357.810097493" xlink:href="#m11cbad7e4e" y="301.740257585"/>
      </g>
     </g>
    </g>
    <g id="xtick_16">
     <g id="line2d_17">
      <defs>
       <path d="
M0 0
L0 -2" id="m11cbad7e4e"/>
      </defs>
      <g>
       <use style="stroke:#000000;stroke-linecap:butt;stroke-width:0.5;" x="382.37045886" xlink:href="#m11cbad7e4e" y="301.740257585"/>
      </g>
     </g>
    </g>
    <g id="xtick_17">
     <g id="line2d_18">
      <defs>
       <path d="
M0 0
L0 -2" id="m11cbad7e4e"/>
      </defs>
      <g>
       <use style="stroke:#000000;stroke-linecap:butt;stroke-width:0.5;" x="431.491181595" xlink:href="#m11cbad7e4e" y="301.740257585"/>
      </g>
     </g>
    </g>
    <g id="xtick_18">
     <g id="line2d_19">
      <defs>
       <path d="
M0 0
L0 -2" id="m11cbad7e4e"/>
      </defs>
      <g>
       <use style="stroke:#000000;stroke-linecap:butt;stroke-width:0.5;" x="456.051542962" xlink:href="#m11cbad7e4e" y="301.740257585"/>
      </g>
     </g>
    </g>
    <g id="xtick_19">
     <g id="line2d_20">
      <defs>
       <path d="
M0 0
L0 -2" id="m11cbad7e4e"/>
      </defs>
      <g>
       <use style="stroke:#000000;stroke-linecap:butt;stroke-width:0.5;" x="480.61190433" xlink:href="#m11cbad7e4e" y="301.740257585"/>
      </g>
     </g>
    </g>
    <g id="xtick_20">
     <g id="line2d_21">
      <defs>
       <path d="
M0 0
L0 -2" id="m11cbad7e4e"/>
      </defs>
      <g>
       <use style="stroke:#000000;stroke-linecap:butt;stroke-width:0.5;" x="505.172265697" xlink:href="#m11cbad7e4e" y="301.740257585"/>
      </g>
     </g>
    </g>
   </g>
   <g id="matplotlib.axis_2">
    <g id="ytick_1">
     <g id="line2d_22">
      <defs>
       <path d="
M0 0
L4 0" id="m387564ea25"/>
      </defs>
      <g>
       <use style="stroke:#000000;stroke-linecap:butt;stroke-width:0.5;" x="35.7109375" xlink:href="#m387564ea25" y="405.624447577"/>
      </g>
     </g>
     <g id="text_5">
      <!-- -0.1 -->
      <defs>
       <path d="
M10.6875 12.4062
L21 12.4062
L21 0
L10.6875 0
z
" id="BitstreamVeraSans-Roman-2e"/>
       <path d="
M4.89062 31.3906
L31.2031 31.3906
L31.2031 23.3906
L4.89062 23.3906
z
" id="BitstreamVeraSans-Roman-2d"/>
      </defs>
      <g transform="translate(13.6125 409.264291327)scale(0.1 -0.1)">
       <use xlink:href="#BitstreamVeraSans-Roman-2d"/>
       <use x="36.083984375" xlink:href="#BitstreamVeraSans-Roman-30"/>
       <use x="99.70703125" xlink:href="#BitstreamVeraSans-Roman-2e"/>
       <use x="131.494140625" xlink:href="#BitstreamVeraSans-Roman-31"/>
      </g>
     </g>
    </g>
    <g id="ytick_2">
     <g id="line2d_23">
      <defs>
       <path d="
M0 0
L4 0" id="m387564ea25"/>
      </defs>
      <g>
       <use style="stroke:#000000;stroke-linecap:butt;stroke-width:0.5;" x="35.7109375" xlink:href="#m387564ea25" y="353.682352581"/>
      </g>
     </g>
     <g id="text_6">
      <!-- -0.05 -->
      <g transform="translate(7.2 357.322196331)scale(0.1 -0.1)">
       <use xlink:href="#BitstreamVeraSans-Roman-2d"/>
       <use x="36.083984375" xlink:href="#BitstreamVeraSans-Roman-30"/>
       <use x="99.70703125" xlink:href="#BitstreamVeraSans-Roman-2e"/>
       <use x="131.494140625" xlink:href="#BitstreamVeraSans-Roman-30"/>
       <use x="195.1171875" xlink:href="#BitstreamVeraSans-Roman-35"/>
      </g>
     </g>
    </g>
    <g id="ytick_3">
     <g id="line2d_24">
      <defs>
       <path d="
M0 0
L4 0" id="m387564ea25"/>
      </defs>
      <g>
       <use style="stroke:#000000;stroke-linecap:butt;stroke-width:0.5;" x="35.7109375" xlink:href="#m387564ea25" y="301.740257585"/>
      </g>
     </g>
     <g id="text_7">
      <!-- 0 -->
      <g transform="translate(26.671875 305.380101335)scale(0.1 -0.1)">
       <use xlink:href="#BitstreamVeraSans-Roman-30"/>
      </g>
     </g>
    </g>
    <g id="ytick_4">
     <g id="line2d_25">
      <defs>
       <path d="
M0 0
L4 0" id="m387564ea25"/>
      </defs>
      <g>
       <use style="stroke:#000000;stroke-linecap:butt;stroke-width:0.5;" x="35.7109375" xlink:href="#m387564ea25" y="249.798162588"/>
      </g>
     </g>
     <g id="text_8">
      <!-- 0.05 -->
      <g transform="translate(10.978125 253.438006338)scale(0.1 -0.1)">
       <use xlink:href="#BitstreamVeraSans-Roman-30"/>
       <use x="63.623046875" xlink:href="#BitstreamVeraSans-Roman-2e"/>
       <use x="95.41015625" xlink:href="#BitstreamVeraSans-Roman-30"/>
       <use x="159.033203125" xlink:href="#BitstreamVeraSans-Roman-35"/>
      </g>
     </g>
    </g>
    <g id="ytick_5">
     <g id="line2d_26">
      <defs>
       <path d="
M0 0
L4 0" id="m387564ea25"/>
      </defs>
      <g>
       <use style="stroke:#000000;stroke-linecap:butt;stroke-width:0.5;" x="35.7109375" xlink:href="#m387564ea25" y="197.856067592"/>
      </g>
     </g>
     <g id="text_9">
      <!-- 0.1 -->
      <g transform="translate(17.390625 201.495911342)scale(0.1 -0.1)">
       <use xlink:href="#BitstreamVeraSans-Roman-30"/>
       <use x="63.623046875" xlink:href="#BitstreamVeraSans-Roman-2e"/>
       <use x="95.41015625" xlink:href="#BitstreamVeraSans-Roman-31"/>
      </g>
     </g>
    </g>
    <g id="ytick_6">
     <g id="line2d_27">
      <defs>
       <path d="
M0 0
L4 0" id="m387564ea25"/>
      </defs>
      <g>
       <use style="stroke:#000000;stroke-linecap:butt;stroke-width:0.5;" x="35.7109375" xlink:href="#m387564ea25" y="145.913972596"/>
      </g>
     </g>
     <g id="text_10">
      <!-- 0.15 -->
      <g transform="translate(10.978125 149.553816346)scale(0.1 -0.1)">
       <use xlink:href="#BitstreamVeraSans-Roman-30"/>
       <use x="63.623046875" xlink:href="#BitstreamVeraSans-Roman-2e"/>
       <use x="95.41015625" xlink:href="#BitstreamVeraSans-Roman-31"/>
       <use x="159.033203125" xlink:href="#BitstreamVeraSans-Roman-35"/>
      </g>
     </g>
    </g>
    <g id="ytick_7">
     <g id="line2d_28">
      <defs>
       <path d="
M0 0
L4 0" id="m387564ea25"/>
      </defs>
      <g>
       <use style="stroke:#000000;stroke-linecap:butt;stroke-width:0.5;" x="35.7109375" xlink:href="#m387564ea25" y="93.9718775995"/>
      </g>
     </g>
     <g id="text_11">
      <!-- 0.2 -->
      <g transform="translate(17.46875 97.6117213495)scale(0.1 -0.1)">
       <use xlink:href="#BitstreamVeraSans-Roman-30"/>
       <use x="63.623046875" xlink:href="#BitstreamVeraSans-Roman-2e"/>
       <use x="95.41015625" xlink:href="#BitstreamVeraSans-Roman-32"/>
      </g>
     </g>
    </g>
    <g id="ytick_8">
     <g id="line2d_29">
      <defs>
       <path d="
M0 0
L4 0" id="m387564ea25"/>
      </defs>
      <g>
       <use style="stroke:#000000;stroke-linecap:butt;stroke-width:0.5;" x="35.7109375" xlink:href="#m387564ea25" y="42.0297826033"/>
      </g>
     </g>
     <g id="text_12">
      <!-- 0.25 -->
      <g transform="translate(10.978125 45.6696263533)scale(0.1 -0.1)">
       <use xlink:href="#BitstreamVeraSans-Roman-30"/>
       <use x="63.623046875" xlink:href="#BitstreamVeraSans-Roman-2e"/>
       <use x="95.41015625" xlink:href="#BitstreamVeraSans-Roman-32"/>
       <use x="159.033203125" xlink:href="#BitstreamVeraSans-Roman-35"/>
      </g>
     </g>
    </g>
    <g id="ytick_9">
     <g id="line2d_30">
      <defs>
       <path d="
M0 0
L2 0" id="mf5054d730c"/>
      </defs>
      <g>
       <use style="stroke:#000000;stroke-linecap:butt;stroke-width:0.5;" x="35.7109375" xlink:href="#mf5054d730c" y="395.236028578"/>
      </g>
     </g>
    </g>
    <g id="ytick_10">
     <g id="line2d_31">
      <defs>
       <path d="
M0 0
L2 0" id="mf5054d730c"/>
      </defs>
      <g>
       <use style="stroke:#000000;stroke-linecap:butt;stroke-width:0.5;" x="35.7109375" xlink:href="#mf5054d730c" y="384.847609579"/>
      </g>
     </g>
    </g>
    <g id="ytick_11">
     <g id="line2d_32">
      <defs>
       <path d="
M0 0
L2 0" id="mf5054d730c"/>
      </defs>
      <g>
       <use style="stroke:#000000;stroke-linecap:butt;stroke-width:0.5;" x="35.7109375" xlink:href="#mf5054d730c" y="374.459190579"/>
      </g>
     </g>
    </g>
    <g id="ytick_12">
     <g id="line2d_33">
      <defs>
       <path d="
M0 0
L2 0" id="mf5054d730c"/>
      </defs>
      <g>
       <use style="stroke:#000000;stroke-linecap:butt;stroke-width:0.5;" x="35.7109375" xlink:href="#mf5054d730c" y="364.07077158"/>
      </g>
     </g>
    </g>
    <g id="ytick_13">
     <g id="line2d_34">
      <defs>
       <path d="
M0 0
L2 0" id="mf5054d730c"/>
      </defs>
      <g>
       <use style="stroke:#000000;stroke-linecap:butt;stroke-width:0.5;" x="35.7109375" xlink:href="#mf5054d730c" y="343.293933582"/>
      </g>
     </g>
    </g>
    <g id="ytick_14">
     <g id="line2d_35">
      <defs>
       <path d="
M0 0
L2 0" id="mf5054d730c"/>
      </defs>
      <g>
       <use style="stroke:#000000;stroke-linecap:butt;stroke-width:0.5;" x="35.7109375" xlink:href="#mf5054d730c" y="332.905514582"/>
      </g>
     </g>
    </g>
    <g id="ytick_15">
     <g id="line2d_36">
      <defs>
       <path d="
M0 0
L2 0" id="mf5054d730c"/>
      </defs>
      <g>
       <use style="stroke:#000000;stroke-linecap:butt;stroke-width:0.5;" x="35.7109375" xlink:href="#mf5054d730c" y="322.517095583"/>
      </g>
     </g>
    </g>
    <g id="ytick_16">
     <g id="line2d_37">
      <defs>
       <path d="
M0 0
L2 0" id="mf5054d730c"/>
      </defs>
      <g>
       <use style="stroke:#000000;stroke-linecap:butt;stroke-width:0.5;" x="35.7109375" xlink:href="#mf5054d730c" y="312.128676584"/>
      </g>
     </g>
    </g>
    <g id="ytick_17">
     <g id="line2d_38">
      <defs>
       <path d="
M0 0
L2 0" id="mf5054d730c"/>
      </defs>
      <g>
       <use style="stroke:#000000;stroke-linecap:butt;stroke-width:0.5;" x="35.7109375" xlink:href="#mf5054d730c" y="291.351838585"/>
      </g>
     </g>
    </g>
    <g id="ytick_18">
     <g id="line2d_39">
      <defs>
       <path d="
M0 0
L2 0" id="mf5054d730c"/>
      </defs>
      <g>
       <use style="stroke:#000000;stroke-linecap:butt;stroke-width:0.5;" x="35.7109375" xlink:href="#mf5054d730c" y="280.963419586"/>
      </g>
     </g>
    </g>
    <g id="ytick_19">
     <g id="line2d_40">
      <defs>
       <path d="
M0 0
L2 0" id="mf5054d730c"/>
      </defs>
      <g>
       <use style="stroke:#000000;stroke-linecap:butt;stroke-width:0.5;" x="35.7109375" xlink:href="#mf5054d730c" y="270.575000587"/>
      </g>
     </g>
    </g>
    <g id="ytick_20">
     <g id="line2d_41">
      <defs>
       <path d="
M0 0
L2 0" id="mf5054d730c"/>
      </defs>
      <g>
       <use style="stroke:#000000;stroke-linecap:butt;stroke-width:0.5;" x="35.7109375" xlink:href="#mf5054d730c" y="260.186581588"/>
      </g>
     </g>
    </g>
    <g id="ytick_21">
     <g id="line2d_42">
      <defs>
       <path d="
M0 0
L2 0" id="mf5054d730c"/>
      </defs>
      <g>
       <use style="stroke:#000000;stroke-linecap:butt;stroke-width:0.5;" x="35.7109375" xlink:href="#mf5054d730c" y="239.409743589"/>
      </g>
     </g>
    </g>
    <g id="ytick_22">
     <g id="line2d_43">
      <defs>
       <path d="
M0 0
L2 0" id="mf5054d730c"/>
      </defs>
      <g>
       <use style="stroke:#000000;stroke-linecap:butt;stroke-width:0.5;" x="35.7109375" xlink:href="#mf5054d730c" y="229.02132459"/>
      </g>
     </g>
    </g>
    <g id="ytick_23">
     <g id="line2d_44">
      <defs>
       <path d="
M0 0
L2 0" id="mf5054d730c"/>
      </defs>
      <g>
       <use style="stroke:#000000;stroke-linecap:butt;stroke-width:0.5;" x="35.7109375" xlink:href="#mf5054d730c" y="218.632905591"/>
      </g>
     </g>
    </g>
    <g id="ytick_24">
     <g id="line2d_45">
      <defs>
       <path d="
M0 0
L2 0" id="mf5054d730c"/>
      </defs>
      <g>
       <use style="stroke:#000000;stroke-linecap:butt;stroke-width:0.5;" x="35.7109375" xlink:href="#mf5054d730c" y="208.244486591"/>
      </g>
     </g>
    </g>
    <g id="ytick_25">
     <g id="line2d_46">
      <defs>
       <path d="
M0 0
L2 0" id="mf5054d730c"/>
      </defs>
      <g>
       <use style="stroke:#000000;stroke-linecap:butt;stroke-width:0.5;" x="35.7109375" xlink:href="#mf5054d730c" y="187.467648593"/>
      </g>
     </g>
    </g>
    <g id="ytick_26">
     <g id="line2d_47">
      <defs>
       <path d="
M0 0
L2 0" id="mf5054d730c"/>
      </defs>
      <g>
       <use style="stroke:#000000;stroke-linecap:butt;stroke-width:0.5;" x="35.7109375" xlink:href="#mf5054d730c" y="177.079229594"/>
      </g>
     </g>
    </g>
    <g id="ytick_27">
     <g id="line2d_48">
      <defs>
       <path d="
M0 0
L2 0" id="mf5054d730c"/>
      </defs>
      <g>
       <use style="stroke:#000000;stroke-linecap:butt;stroke-width:0.5;" x="35.7109375" xlink:href="#mf5054d730c" y="166.690810594"/>
      </g>
     </g>
    </g>
    <g id="ytick_28">
     <g id="line2d_49">
      <defs>
       <path d="
M0 0
L2 0" id="mf5054d730c"/>
      </defs>
      <g>
       <use style="stroke:#000000;stroke-linecap:butt;stroke-width:0.5;" x="35.7109375" xlink:href="#mf5054d730c" y="156.302391595"/>
      </g>
     </g>
    </g>
    <g id="ytick_29">
     <g id="line2d_50">
      <defs>
       <path d="
M0 0
L2 0" id="mf5054d730c"/>
      </defs>
      <g>
       <use style="stroke:#000000;stroke-linecap:butt;stroke-width:0.5;" x="35.7109375" xlink:href="#mf5054d730c" y="135.525553597"/>
      </g>
     </g>
    </g>
    <g id="ytick_30">
     <g id="line2d_51">
      <defs>
       <path d="
M0 0
L2 0" id="mf5054d730c"/>
      </defs>
      <g>
       <use style="stroke:#000000;stroke-linecap:butt;stroke-width:0.5;" x="35.7109375" xlink:href="#mf5054d730c" y="125.137134597"/>
      </g>
     </g>
    </g>
    <g id="ytick_31">
     <g id="line2d_52">
      <defs>
       <path d="
M0 0
L2 0" id="mf5054d730c"/>
      </defs>
      <g>
       <use style="stroke:#000000;stroke-linecap:butt;stroke-width:0.5;" x="35.7109375" xlink:href="#mf5054d730c" y="114.748715598"/>
      </g>
     </g>
    </g>
    <g id="ytick_32">
     <g id="line2d_53">
      <defs>
       <path d="
M0 0
L2 0" id="mf5054d730c"/>
      </defs>
      <g>
       <use style="stroke:#000000;stroke-linecap:butt;stroke-width:0.5;" x="35.7109375" xlink:href="#mf5054d730c" y="104.360296599"/>
      </g>
     </g>
    </g>
    <g id="ytick_33">
     <g id="line2d_54">
      <defs>
       <path d="
M0 0
L2 0" id="mf5054d730c"/>
      </defs>
      <g>
       <use style="stroke:#000000;stroke-linecap:butt;stroke-width:0.5;" x="35.7109375" xlink:href="#mf5054d730c" y="83.5834586003"/>
      </g>
     </g>
    </g>
    <g id="ytick_34">
     <g id="line2d_55">
      <defs>
       <path d="
M0 0
L2 0" id="mf5054d730c"/>
      </defs>
      <g>
       <use style="stroke:#000000;stroke-linecap:butt;stroke-width:0.5;" x="35.7109375" xlink:href="#mf5054d730c" y="73.195039601"/>
      </g>
     </g>
    </g>
    <g id="ytick_35">
     <g id="line2d_56">
      <defs>
       <path d="
M0 0
L2 0" id="mf5054d730c"/>
      </defs>
      <g>
       <use style="stroke:#000000;stroke-linecap:butt;stroke-width:0.5;" x="35.7109375" xlink:href="#mf5054d730c" y="62.8066206018"/>
      </g>
     </g>
    </g>
    <g id="ytick_36">
     <g id="line2d_57">
      <defs>
       <path d="
M0 0
L2 0" id="mf5054d730c"/>
      </defs>
      <g>
       <use style="stroke:#000000;stroke-linecap:butt;stroke-width:0.5;" x="35.7109375" xlink:href="#mf5054d730c" y="52.4182016025"/>
      </g>
     </g>
    </g>
    <g id="ytick_37">
     <g id="line2d_58">
      <defs>
       <path d="
M0 0
L2 0" id="mf5054d730c"/>
      </defs>
      <g>
       <use style="stroke:#000000;stroke-linecap:butt;stroke-width:0.5;" x="35.7109375" xlink:href="#mf5054d730c" y="31.641363604"/>
      </g>
     </g>
    </g>
    <g id="ytick_38">
     <g id="line2d_59">
      <defs>
       <path d="
M0 0
L2 0" id="mf5054d730c"/>
      </defs>
      <g>
       <use style="stroke:#000000;stroke-linecap:butt;stroke-width:0.5;" x="35.7109375" xlink:href="#mf5054d730c" y="21.2529446048"/>
      </g>
     </g>
    </g>
   </g>
   <g id="patch_3">
    <path d="
M45.7109 301.74
L557.308 301.74" style="fill:none;stroke:#000000;stroke-width:0.8;"/>
   </g>
   <g id="patch_4">
    <path d="
M35.7109 413.28
L35.7109 7.2" style="fill:none;stroke:#000000;stroke-width:0.8;"/>
   </g>
  </g>
 </g>
 <defs>
  <clipPath id="p5895cd3558">
   <rect height="406.08" width="511.5971875" x="45.7109375" y="7.2"/>
  </clipPath>
 </defs>
</svg>
