<?xml version="1.0" encoding="utf-8" standalone="no"?>
<!DOCTYPE svg PUBLIC "-//W3C//DTD SVG 1.1//EN"
  "http://www.w3.org/Graphics/SVG/1.1/DTD/svg11.dtd">
<!-- Created with matplotlib (http://matplotlib.sourceforge.net/) -->
<svg height="420pt" version="1.1" viewBox="0 0 564 420" width="564pt" xmlns="http://www.w3.org/2000/svg" xmlns:xlink="http://www.w3.org/1999/xlink">
 <defs>
  <style type="text/css">
*{stroke-linecap:square;stroke-linejoin:round;}
  </style>
 </defs>
 <g id="figure_1">
  <g id="patch_1">
   <path d="
M-4.44089e-16 420.48
L564.466 420.48
L564.466 0
L-4.44089e-16 0
z
" style="fill:#ffffff;"/>
  </g>
  <g id="axes_1">
   <g id="patch_2">
    <path d="
M39.2984 413.28
L557.266 413.28
L557.266 7.2
L39.2984 7.2
z
" style="fill:#ffffff;"/>
   </g>
   <g id="line2d_1">
    <path clip-path="url(#pbda54c63f9)" d="
M49.2594 296.352
L50.4446 237.807
L51.6298 189.913
L52.815 150.714
L54.0002 118.686
L55.1854 92.6337
L56.3191 72.4234
L57.4528 56.1301
L58.5349 43.721
L59.5655 34.3832
L60.5446 27.4819
L61.4206 22.7543
L62.2451 19.4282
L62.9666 17.3323
L63.6365 16.0121
L64.2033 15.3332
L64.7186 15.043
L65.1824 15.0338
L65.6462 15.2516
L66.1615 15.7466
L66.7798 16.6734
L67.5013 18.1858
L68.3258 20.4432
L69.3049 23.7985
L70.4385 28.5166
L71.7268 34.8535
L72.139 37.5769
L75.2309 71.8941
L78.9927 116.231
L80.7962 136.817
L83.5789 161.849
L86.8253 193.166
L90.5871 231.708
L91.8238 243.582
L93.3698 249.568
L95.0703 257.062
L95.9978 261.909
L98.6774 281.271
L101.666 304.515
L102.645 311.683
L104.346 318.246
L105.325 322.613
L108.365 344.976
L110.323 359.046
L112.23 368.187
L114.755 382.644
L115.889 388.802
L116.868 389.716
L117.435 390.41
L119.135 395.733
L120.99 402.306
L121.815 405.463
L121.918 405.36
L122.897 404.555
L123.824 404.067
L124.391 403.749
L125.577 397.125
L126.504 396.691
L127.432 396.507
L127.741 396.499
L127.947 397.124
L128.926 400.103
L129.854 400.351
L130.884 400.693
L131.915 400.003
L132.894 399.62
L133.821 399.495
L134.285 399.397
L135.78 395.434
L136.862 392.546
L138.717 385.533
L140.984 368.893
L143.097 354.51
L147.168 328.978
L147.426 328.508
L148.662 327.157
L149.59 325.072
L152.27 315.302
L152.682 313.229
L153.455 307.948
L154.588 298.359
L154.898 297.219
L156.392 294.153
L156.804 293.205
L157.886 289.639
L159.123 281.105
L159.69 277.357
L160.721 271.915
L161.751 266.583
L162.885 258.801
L163.709 252.525
L168.45 232.823
L171.078 209.531
L171.542 206.686
L173.758 194.628
L174.943 188.775
L176.437 184.63
L176.747 184.01
L176.798 184.036
L177.365 184.445
L178.396 185.723
L178.705 186.339
L179.22 187.472
L181.024 191.545
L181.23 191.708
L181.591 191.963
L182.312 193.751
L183.188 198.33
L185.61 215.301
L186.692 226.998
L187.877 240.035
L188.65 245.731
L189.578 251.385
L190.196 256.994
L191.381 271.147
L192.515 285.159
L196.792 336.277
L197.72 345.286
L199.832 364.946
L200.296 368.806
L201.018 373.141
L201.894 376.814
L202.873 380.341
L204.573 386.693
L204.831 387.484
L205.243 389.452
L207.768 404.392
L208.335 405.401
L208.747 405.44
L209.057 405.408
L209.366 405.323
L210.139 404
L210.396 403.128
L210.86 400.213
L214.725 372.111
L215.91 366.089
L216.632 361.151
L219.105 347.283
L219.466 346.353
L220.136 345.231
L220.496 344.619
L220.806 344.179
L221.63 341.638
L222.042 340.199
L223.279 335.507
L223.691 334.677
L224 334.42
L224.258 334.203
L224.413 334.309
L225.649 336.353
L226.165 337.426
L227.195 339.987
L227.762 340.486
L228.071 341.088
L228.278 341.235
L228.535 341.333
L228.793 340.94
L229.566 339.502
L230.699 337.804
L230.906 337.536
L231.266 337.237
L232.194 336.829
L232.452 336.526
L233.173 334.783
L233.791 332.179
L234.564 328.051
L235.028 324.862
L237.914 303.11
L238.996 296.443
L239.923 289.63
L240.851 283.28
L241.521 279.841
L242.5 276.539
L242.861 275.7
L242.912 275.726
L243.221 275.844
L243.891 275.677
L244.201 275.827
L244.51 275.712
L244.87 275.643
L245.128 275.948
L245.437 276.389
L246.107 277.745
L246.674 279.947
L247.086 281.162
L247.756 283.332
L248.168 284.863
L248.89 288.143
L249.663 291.472
L249.92 291.755
L250.281 291.804
L250.693 291.185
L251.518 289.908
L252.033 288.407
L253.425 284.892
L254.198 283.763
L254.971 282.498
L255.383 282.103
L256.413 280.053
L256.723 279.615
L256.877 279.6
L257.392 279.828
L257.65 279.772
L257.805 279.735
L258.062 279.498
L258.887 278.321
L259.093 278.313
L259.299 278.4
L259.763 278.325
L260.278 278.645
L260.536 278.699
L260.948 279.117
L262.391 281.232
L262.649 281.331
L263.009 281.132
L264.04 280.126
L264.401 279.56
L264.864 278.509
L265.689 275.048
L266.513 270.754
L267.183 267.305
L267.802 264.782
L268.214 263.788
L268.626 262.93
L269.193 262.3
L269.554 262.001
L270.069 262.294
L270.533 262.667
L270.79 262.738
L271.306 263.215
L271.77 263.205
L271.976 262.986
L272.285 262.623
L272.491 262.636
L273.109 262.897
L273.367 262.997
L273.522 263.171
L274.037 264.275
L274.604 265.225
L274.913 265.611
L275.325 265.967
L275.583 266.084
L275.841 266.338
L276.768 266.304
L277.129 266.887
L277.438 267.179
L277.799 267.395
L278.159 268.179
L279.242 271.321
L281.354 279.901
L281.973 282.785
L282.746 284.682
L283.364 285.373
L283.57 285.731
L283.931 286.335
L284.343 287.034
L286.147 291.775
L286.61 292.926
L286.868 293.454
L288.105 297.797
L289.496 302.978
L290.063 304.6
L290.63 305.435
L291.506 306.526
L293.413 310.641
L294.031 312.764
L294.907 316.248
L295.577 318.366
L296.092 320.102
L296.762 322.045
L297.483 323.777
L298.102 324.915
L299.029 325.736
L299.339 326.02
L299.802 326.37
L300.524 326.21
L301.039 326.532
L301.761 326.604
L301.967 326.225
L302.688 325.478
L303.306 325.116
L303.513 325.252
L303.77 325.657
L304.492 328.011
L306.965 337.564
L308.769 339.931
L309.748 342.056
L310.366 343.51
L311.088 344.949
L311.912 346.188
L312.582 346.41
L312.943 346.203
L313.561 345.853
L313.87 346.101
L314.231 346.689
L314.798 347.395
L315.622 348.048
L316.395 348.327
L316.859 348.642
L317.22 348.557
L317.426 348.559
L318.457 348.976
L318.714 349.072
L319.178 348.942
L319.436 348.951
L320.157 348.289
L321.188 346.247
L321.858 345.778
L322.167 345.666
L323.455 344.217
L323.919 343.094
L324.383 342.106
L324.743 341.247
L325.001 340.887
L325.928 340.33
L326.238 340.251
L327.938 338.127
L328.247 337.952
L328.66 337.64
L329.175 337.619
L329.639 336.824
L330.515 335.21
L330.875 335.124
L331.133 335.307
L331.855 336.252
L332.37 336.504
L332.937 336.332
L333.143 336.138
L333.452 335.481
L334.895 331.417
L335.462 329.366
L336.801 321.976
L337.781 316.205
L339.069 308.296
L339.79 304.956
L340.512 301.685
L341.13 297.772
L342.367 289.944
L343.088 285.33
L346.129 264.401
L347.726 256.155
L348.293 253.926
L349.014 251.829
L349.839 249.715
L350.457 248.308
L350.818 248.008
L351.797 247.57
L352.158 247.297
L352.467 247.474
L353.394 248.297
L353.807 248.134
L354.013 248.216
L354.58 248.855
L354.94 249.633
L355.25 250.003
L355.507 249.97
L355.713 249.997
L356.074 250.39
L356.899 251.342
L357.156 251.065
L357.517 250.764
L357.981 250.705
L358.341 250.903
L358.599 250.877
L359.166 250.674
L359.475 251.042
L359.99 252.3
L360.66 253.881
L360.918 254.362
L361.227 255.319
L361.949 258.234
L362.618 261.666
L364.164 269.906
L364.628 272.327
L365.195 275.007
L366.019 278.555
L366.844 282.281
L367.668 285.654
L368.184 287.397
L368.648 288.815
L369.369 291.146
L369.884 292.788
L371.07 297.241
L371.636 298.864
L372.1 299.874
L372.512 300.293
L372.77 300.567
L373.337 301.214
L373.595 301.456
L373.852 301.964
L374.522 303.478
L374.78 303.755
L375.192 304.509
L375.913 305.776
L376.429 306.528
L376.996 307.175
L377.459 307.537
L377.82 308.391
L378.954 310.982
L379.727 312.695
L380.448 314.496
L381.015 315.75
L381.582 317.176
L384.107 322.259
L384.777 324.076
L385.859 327.179
L386.271 327.77
L386.58 327.835
L386.889 327.738
L388.075 328.381
L388.332 328.585
L389.054 328.659
L389.311 328.767
L389.775 328.665
L390.187 328.801
L390.445 328.687
L391.218 327.974
L391.579 327.655
L391.94 327.329
L392.352 326.728
L393.382 325.42
L393.743 325.363
L395.186 325.111
L395.701 325.143
L395.907 325.193
L396.268 325.346
L396.526 325.518
L397.196 326.332
L398.226 328.166
L398.742 328.905
L399.463 329.843
L399.772 329.904
L400.184 329.684
L401.009 329.199
L401.524 328.837
L402.194 328.113
L402.452 327.787
L402.864 327.452
L404.101 325.833
L405.183 323.618
L405.595 323.302
L405.904 323.142
L407.038 323.484
L407.811 322.936
L408.893 323.394
L409.46 323.938
L409.666 323.978
L409.924 324.135
L410.439 324.059
L410.903 323.808
L411.161 323.763
L411.47 323.643
L411.676 323.549
L412.14 323.249
L412.346 323.041
L413.479 321.091
L414.149 319.874
L414.562 319.564
L414.871 319.346
L415.798 318.802
L416.262 318.549
L417.241 317.272
L417.499 317.195
L417.756 317.235
L418.066 317.127
L418.22 317.095
L418.478 316.764
L418.736 316.233
L420.333 311.952
L420.591 311.591
L420.848 311.529
L421.003 311.67
L421.673 312.372
L422.343 312.775
L423.219 314.003
L423.579 314.48
L424.146 315.652
L424.507 316.885
L425.435 319.656
L427.444 323.892
L427.599 323.807
L428.217 322.896
L429.505 320.92
L430.072 320.65
L430.691 320.383
L430.948 319.861
L432.34 316.518
L432.803 314.802
L434.143 308.38
L434.865 306.053
L435.277 305.092
L436.72 300.369
L437.596 297.355
L438.369 294.745
L440.121 290.252
L440.739 288.342
L441.512 286.296
L442.646 282.742
L443.161 281.831
L443.676 280.857
L444.81 278.934
L445.635 278.26
L445.892 278.085
L446.717 277.069
L447.129 276.954
L447.696 276.628
L448.057 276.599
L448.263 276.674
L449.139 277.316
L449.396 277.85
L449.809 278.643
L450.53 279.645
L451.355 281.171
L451.664 281.382
L452.231 281.493
L453.21 281.091
L455.116 278.662
L455.426 278.819
L455.838 279.119
L456.25 279.273
L456.765 279.734
L458.363 281.873
L458.672 282.448
L458.981 282.91
L460.012 283.563
L460.733 284.156
L460.991 284.219
L461.197 284.335
L461.867 285.115
L462.794 285.337
L463.258 285.502
L464.701 286.074
L465.68 287.466
L466.299 288.269
L467.226 289.058
L467.69 289.108
L469.287 289.7
L469.751 289.996
L471.349 290.503
L471.864 290.283
L472.791 290.579
L473.874 291.681
L474.647 293.667
L475.471 295.638
L475.832 296.228
L476.141 296.625
L477.172 298.434
L477.996 300.682
L478.872 302.025
L479.851 302.847
L480.624 304.298
L484.025 313.429
L485.004 315.383
L486.396 317.683
L487.065 319.397
L487.993 322.293
L488.457 323.686
L489.848 328.137
L490.518 330.165
L491.085 331.837
L491.703 333.176
L492.27 334.001
L492.631 333.995
L492.94 334.016
L493.455 334.294
L494.022 335.4
L494.744 336.841
L496.083 339.249
L497.423 341.466
L497.887 341.455
L498.351 341.339
L499.175 341.536
L499.536 341.737
L500.154 342.169
L500.567 342.442
L500.979 342.81
L501.391 342.603
L502.267 341.879
L502.525 341.495
L503.04 340.609
L503.401 340.437
L503.813 340.093
L504.637 339.285
L505.05 339.171
L505.462 338.893
L506.39 337.466
L506.802 337.406
L507.626 337.484
L508.09 336.82
L508.915 335.337
L510.667 331.984
L511.079 331.441
L511.594 330.963
L512.161 330.026
L512.831 328.15
L516.387 315.551
L518.139 308.254
L519.066 305.403
L519.891 301.895
L522.364 290.663
L525.456 280.461
L526.074 279.554
L526.796 279.249
L527.363 279.612
L527.723 279.916
L529.888 282.038
L530.145 281.951
L530.351 281.865
L530.609 281.829
L530.867 281.767
L531.743 282.465
L532.825 283.667
L533.083 284.065
L533.443 284.578
L533.907 284.997
L534.371 285.508
L534.835 285.726
L535.144 285.941
L535.504 286.125
L535.968 286.317
L536.38 286.495
L536.69 286.586
L537.308 287.087
L538.957 287.912
L539.266 287.961
L540.348 287.75
L541.585 286.752
L542.822 285.434
L544.059 285.178
L545.038 285.225
L546.841 286.332
L547.253 286.375
L547.305 286.434
L547.305 286.434" style="fill:none;stroke:#0000ff;"/>
   </g>
   <g id="matplotlib.axis_1">
    <g id="xtick_1">
     <g id="line2d_2">
      <defs>
       <path d="
M0 0
L0 -4" id="m623879360e"/>
      </defs>
      <g>
       <use style="stroke:#000000;stroke-linecap:butt;stroke-width:0.5;" x="156.354338713" xlink:href="#m623879360e" y="305.668266262"/>
      </g>
     </g>
     <g id="text_1">
      <!-- 5 -->
      <defs>
       <path d="
M10.7969 72.9062
L49.5156 72.9062
L49.5156 64.5938
L19.8281 64.5938
L19.8281 46.7344
Q21.9688 47.4688 24.1094 47.8281
Q26.2656 48.1875 28.4219 48.1875
Q40.625 48.1875 47.75 41.5
Q54.8906 34.8125 54.8906 23.3906
Q54.8906 11.625 47.5625 5.09375
Q40.2344 -1.42188 26.9062 -1.42188
Q22.3125 -1.42188 17.5469 -0.640625
Q12.7969 0.140625 7.71875 1.70312
L7.71875 11.625
Q12.1094 9.23438 16.7969 8.0625
Q21.4844 6.89062 26.7031 6.89062
Q35.1562 6.89062 40.0781 11.3281
Q45.0156 15.7656 45.0156 23.3906
Q45.0156 31 40.0781 35.4375
Q35.1562 39.8906 26.7031 39.8906
Q22.75 39.8906 18.8125 39.0156
Q14.8906 38.1406 10.7969 36.2812
z
" id="BitstreamVeraSans-Roman-35"/>
      </defs>
      <g transform="translate(153.995744963 316.958891262)scale(0.1 -0.1)">
       <use xlink:href="#BitstreamVeraSans-Roman-35"/>
      </g>
     </g>
    </g>
    <g id="xtick_2">
     <g id="line2d_3">
      <defs>
       <path d="
M0 0
L0 -4" id="m623879360e"/>
      </defs>
      <g>
       <use style="stroke:#000000;stroke-linecap:butt;stroke-width:0.5;" x="280.685250683" xlink:href="#m623879360e" y="305.668266262"/>
      </g>
     </g>
     <g id="text_2">
      <!-- 10 -->
      <defs>
       <path d="
M31.7812 66.4062
Q24.1719 66.4062 20.3281 58.9062
Q16.5 51.4219 16.5 36.375
Q16.5 21.3906 20.3281 13.8906
Q24.1719 6.39062 31.7812 6.39062
Q39.4531 6.39062 43.2812 13.8906
Q47.125 21.3906 47.125 36.375
Q47.125 51.4219 43.2812 58.9062
Q39.4531 66.4062 31.7812 66.4062
M31.7812 74.2188
Q44.0469 74.2188 50.5156 64.5156
Q56.9844 54.8281 56.9844 36.375
Q56.9844 17.9688 50.5156 8.26562
Q44.0469 -1.42188 31.7812 -1.42188
Q19.5312 -1.42188 13.0625 8.26562
Q6.59375 17.9688 6.59375 36.375
Q6.59375 54.8281 13.0625 64.5156
Q19.5312 74.2188 31.7812 74.2188" id="BitstreamVeraSans-Roman-30"/>
       <path d="
M12.4062 8.29688
L28.5156 8.29688
L28.5156 63.9219
L10.9844 60.4062
L10.9844 69.3906
L28.4219 72.9062
L38.2812 72.9062
L38.2812 8.29688
L54.3906 8.29688
L54.3906 0
L12.4062 0
z
" id="BitstreamVeraSans-Roman-31"/>
      </defs>
      <g transform="translate(275.204000683 317.090141262)scale(0.1 -0.1)">
       <use xlink:href="#BitstreamVeraSans-Roman-31"/>
       <use x="63.623046875" xlink:href="#BitstreamVeraSans-Roman-30"/>
      </g>
     </g>
    </g>
    <g id="xtick_3">
     <g id="line2d_4">
      <defs>
       <path d="
M0 0
L0 -4" id="m623879360e"/>
      </defs>
      <g>
       <use style="stroke:#000000;stroke-linecap:butt;stroke-width:0.5;" x="405.016162652" xlink:href="#m623879360e" y="305.668266262"/>
      </g>
     </g>
     <g id="text_3">
      <!-- 15 -->
      <g transform="translate(399.639600152 316.958891262)scale(0.1 -0.1)">
       <use xlink:href="#BitstreamVeraSans-Roman-31"/>
       <use x="63.623046875" xlink:href="#BitstreamVeraSans-Roman-35"/>
      </g>
     </g>
    </g>
    <g id="xtick_4">
     <g id="line2d_5">
      <defs>
       <path d="
M0 0
L0 -4" id="m623879360e"/>
      </defs>
      <g>
       <use style="stroke:#000000;stroke-linecap:butt;stroke-width:0.5;" x="529.347074621" xlink:href="#m623879360e" y="305.668266262"/>
      </g>
     </g>
     <g id="text_4">
      <!-- 20 -->
      <defs>
       <path d="
M19.1875 8.29688
L53.6094 8.29688
L53.6094 0
L7.32812 0
L7.32812 8.29688
Q12.9375 14.1094 22.625 23.8906
Q32.3281 33.6875 34.8125 36.5312
Q39.5469 41.8438 41.4219 45.5312
Q43.3125 49.2188 43.3125 52.7812
Q43.3125 58.5938 39.2344 62.25
Q35.1562 65.9219 28.6094 65.9219
Q23.9688 65.9219 18.8125 64.3125
Q13.6719 62.7031 7.8125 59.4219
L7.8125 69.3906
Q13.7656 71.7812 18.9375 73
Q24.125 74.2188 28.4219 74.2188
Q39.75 74.2188 46.4844 68.5469
Q53.2188 62.8906 53.2188 53.4219
Q53.2188 48.9219 51.5312 44.8906
Q49.8594 40.875 45.4062 35.4062
Q44.1875 33.9844 37.6406 27.2188
Q31.1094 20.4531 19.1875 8.29688" id="BitstreamVeraSans-Roman-32"/>
      </defs>
      <g transform="translate(523.683012121 317.090141262)scale(0.1 -0.1)">
       <use xlink:href="#BitstreamVeraSans-Roman-32"/>
       <use x="63.623046875" xlink:href="#BitstreamVeraSans-Roman-30"/>
      </g>
     </g>
    </g>
    <g id="xtick_5">
     <g id="line2d_6">
      <defs>
       <path d="
M0 0
L0 -2" id="m97af96993a"/>
      </defs>
      <g>
       <use style="stroke:#000000;stroke-linecap:butt;stroke-width:0.5;" x="56.8896091378" xlink:href="#m97af96993a" y="305.668266262"/>
      </g>
     </g>
    </g>
    <g id="xtick_6">
     <g id="line2d_7">
      <defs>
       <path d="
M0 0
L0 -2" id="m97af96993a"/>
      </defs>
      <g>
       <use style="stroke:#000000;stroke-linecap:butt;stroke-width:0.5;" x="81.7557915317" xlink:href="#m97af96993a" y="305.668266262"/>
      </g>
     </g>
    </g>
    <g id="xtick_7">
     <g id="line2d_8">
      <defs>
       <path d="
M0 0
L0 -2" id="m97af96993a"/>
      </defs>
      <g>
       <use style="stroke:#000000;stroke-linecap:butt;stroke-width:0.5;" x="106.621973926" xlink:href="#m97af96993a" y="305.668266262"/>
      </g>
     </g>
    </g>
    <g id="xtick_8">
     <g id="line2d_9">
      <defs>
       <path d="
M0 0
L0 -2" id="m97af96993a"/>
      </defs>
      <g>
       <use style="stroke:#000000;stroke-linecap:butt;stroke-width:0.5;" x="131.488156319" xlink:href="#m97af96993a" y="305.668266262"/>
      </g>
     </g>
    </g>
    <g id="xtick_9">
     <g id="line2d_10">
      <defs>
       <path d="
M0 0
L0 -2" id="m97af96993a"/>
      </defs>
      <g>
       <use style="stroke:#000000;stroke-linecap:butt;stroke-width:0.5;" x="181.220521107" xlink:href="#m97af96993a" y="305.668266262"/>
      </g>
     </g>
    </g>
    <g id="xtick_10">
     <g id="line2d_11">
      <defs>
       <path d="
M0 0
L0 -2" id="m97af96993a"/>
      </defs>
      <g>
       <use style="stroke:#000000;stroke-linecap:butt;stroke-width:0.5;" x="206.086703501" xlink:href="#m97af96993a" y="305.668266262"/>
      </g>
     </g>
    </g>
    <g id="xtick_11">
     <g id="line2d_12">
      <defs>
       <path d="
M0 0
L0 -2" id="m97af96993a"/>
      </defs>
      <g>
       <use style="stroke:#000000;stroke-linecap:butt;stroke-width:0.5;" x="230.952885895" xlink:href="#m97af96993a" y="305.668266262"/>
      </g>
     </g>
    </g>
    <g id="xtick_12">
     <g id="line2d_13">
      <defs>
       <path d="
M0 0
L0 -2" id="m97af96993a"/>
      </defs>
      <g>
       <use style="stroke:#000000;stroke-linecap:butt;stroke-width:0.5;" x="255.819068289" xlink:href="#m97af96993a" y="305.668266262"/>
      </g>
     </g>
    </g>
    <g id="xtick_13">
     <g id="line2d_14">
      <defs>
       <path d="
M0 0
L0 -2" id="m97af96993a"/>
      </defs>
      <g>
       <use style="stroke:#000000;stroke-linecap:butt;stroke-width:0.5;" x="305.551433077" xlink:href="#m97af96993a" y="305.668266262"/>
      </g>
     </g>
    </g>
    <g id="xtick_14">
     <g id="line2d_15">
      <defs>
       <path d="
M0 0
L0 -2" id="m97af96993a"/>
      </defs>
      <g>
       <use style="stroke:#000000;stroke-linecap:butt;stroke-width:0.5;" x="330.41761547" xlink:href="#m97af96993a" y="305.668266262"/>
      </g>
     </g>
    </g>
    <g id="xtick_15">
     <g id="line2d_16">
      <defs>
       <path d="
M0 0
L0 -2" id="m97af96993a"/>
      </defs>
      <g>
       <use style="stroke:#000000;stroke-linecap:butt;stroke-width:0.5;" x="355.283797864" xlink:href="#m97af96993a" y="305.668266262"/>
      </g>
     </g>
    </g>
    <g id="xtick_16">
     <g id="line2d_17">
      <defs>
       <path d="
M0 0
L0 -2" id="m97af96993a"/>
      </defs>
      <g>
       <use style="stroke:#000000;stroke-linecap:butt;stroke-width:0.5;" x="380.149980258" xlink:href="#m97af96993a" y="305.668266262"/>
      </g>
     </g>
    </g>
    <g id="xtick_17">
     <g id="line2d_18">
      <defs>
       <path d="
M0 0
L0 -2" id="m97af96993a"/>
      </defs>
      <g>
       <use style="stroke:#000000;stroke-linecap:butt;stroke-width:0.5;" x="429.882345046" xlink:href="#m97af96993a" y="305.668266262"/>
      </g>
     </g>
    </g>
    <g id="xtick_18">
     <g id="line2d_19">
      <defs>
       <path d="
M0 0
L0 -2" id="m97af96993a"/>
      </defs>
      <g>
       <use style="stroke:#000000;stroke-linecap:butt;stroke-width:0.5;" x="454.74852744" xlink:href="#m97af96993a" y="305.668266262"/>
      </g>
     </g>
    </g>
    <g id="xtick_19">
     <g id="line2d_20">
      <defs>
       <path d="
M0 0
L0 -2" id="m97af96993a"/>
      </defs>
      <g>
       <use style="stroke:#000000;stroke-linecap:butt;stroke-width:0.5;" x="479.614709834" xlink:href="#m97af96993a" y="305.668266262"/>
      </g>
     </g>
    </g>
    <g id="xtick_20">
     <g id="line2d_21">
      <defs>
       <path d="
M0 0
L0 -2" id="m97af96993a"/>
      </defs>
      <g>
       <use style="stroke:#000000;stroke-linecap:butt;stroke-width:0.5;" x="504.480892228" xlink:href="#m97af96993a" y="305.668266262"/>
      </g>
     </g>
    </g>
   </g>
   <g id="matplotlib.axis_2">
    <g id="ytick_1">
     <g id="line2d_22">
      <defs>
       <path d="
M0 0
L4 0" id="m95c6bf3522"/>
      </defs>
      <g>
       <use style="stroke:#000000;stroke-linecap:butt;stroke-width:0.5;" x="29.2984375" xlink:href="#m95c6bf3522" y="370.545012214"/>
      </g>
     </g>
     <g id="text_5">
      <!-- -0.1 -->
      <defs>
       <path d="
M10.6875 12.4062
L21 12.4062
L21 0
L10.6875 0
z
" id="BitstreamVeraSans-Roman-2e"/>
       <path d="
M4.89062 31.3906
L31.2031 31.3906
L31.2031 23.3906
L4.89062 23.3906
z
" id="BitstreamVeraSans-Roman-2d"/>
      </defs>
      <g transform="translate(7.2 374.184855964)scale(0.1 -0.1)">
       <use xlink:href="#BitstreamVeraSans-Roman-2d"/>
       <use x="36.083984375" xlink:href="#BitstreamVeraSans-Roman-30"/>
       <use x="99.70703125" xlink:href="#BitstreamVeraSans-Roman-2e"/>
       <use x="131.494140625" xlink:href="#BitstreamVeraSans-Roman-31"/>
      </g>
     </g>
    </g>
    <g id="ytick_2">
     <g id="line2d_23">
      <defs>
       <path d="
M0 0
L4 0" id="m95c6bf3522"/>
      </defs>
      <g>
       <use style="stroke:#000000;stroke-linecap:butt;stroke-width:0.5;" x="29.2984375" xlink:href="#m95c6bf3522" y="305.668266262"/>
      </g>
     </g>
     <g id="text_6">
      <!-- 0 -->
      <g transform="translate(20.259375 309.308110012)scale(0.1 -0.1)">
       <use xlink:href="#BitstreamVeraSans-Roman-30"/>
      </g>
     </g>
    </g>
    <g id="ytick_3">
     <g id="line2d_24">
      <defs>
       <path d="
M0 0
L4 0" id="m95c6bf3522"/>
      </defs>
      <g>
       <use style="stroke:#000000;stroke-linecap:butt;stroke-width:0.5;" x="29.2984375" xlink:href="#m95c6bf3522" y="240.791520311"/>
      </g>
     </g>
     <g id="text_7">
      <!-- 0.1 -->
      <g transform="translate(10.978125 244.431364061)scale(0.1 -0.1)">
       <use xlink:href="#BitstreamVeraSans-Roman-30"/>
       <use x="63.623046875" xlink:href="#BitstreamVeraSans-Roman-2e"/>
       <use x="95.41015625" xlink:href="#BitstreamVeraSans-Roman-31"/>
      </g>
     </g>
    </g>
    <g id="ytick_4">
     <g id="line2d_25">
      <defs>
       <path d="
M0 0
L4 0" id="m95c6bf3522"/>
      </defs>
      <g>
       <use style="stroke:#000000;stroke-linecap:butt;stroke-width:0.5;" x="29.2984375" xlink:href="#m95c6bf3522" y="175.914774359"/>
      </g>
     </g>
     <g id="text_8">
      <!-- 0.2 -->
      <g transform="translate(11.05625 179.554618109)scale(0.1 -0.1)">
       <use xlink:href="#BitstreamVeraSans-Roman-30"/>
       <use x="63.623046875" xlink:href="#BitstreamVeraSans-Roman-2e"/>
       <use x="95.41015625" xlink:href="#BitstreamVeraSans-Roman-32"/>
      </g>
     </g>
    </g>
    <g id="ytick_5">
     <g id="line2d_26">
      <defs>
       <path d="
M0 0
L4 0" id="m95c6bf3522"/>
      </defs>
      <g>
       <use style="stroke:#000000;stroke-linecap:butt;stroke-width:0.5;" x="29.2984375" xlink:href="#m95c6bf3522" y="111.038028407"/>
      </g>
     </g>
     <g id="text_9">
      <!-- 0.3 -->
      <defs>
       <path d="
M40.5781 39.3125
Q47.6562 37.7969 51.625 33
Q55.6094 28.2188 55.6094 21.1875
Q55.6094 10.4062 48.1875 4.48438
Q40.7656 -1.42188 27.0938 -1.42188
Q22.5156 -1.42188 17.6562 -0.515625
Q12.7969 0.390625 7.625 2.20312
L7.625 11.7188
Q11.7188 9.32812 16.5938 8.10938
Q21.4844 6.89062 26.8125 6.89062
Q36.0781 6.89062 40.9375 10.5469
Q45.7969 14.2031 45.7969 21.1875
Q45.7969 27.6406 41.2812 31.2656
Q36.7656 34.9062 28.7188 34.9062
L20.2188 34.9062
L20.2188 43.0156
L29.1094 43.0156
Q36.375 43.0156 40.2344 45.9219
Q44.0938 48.8281 44.0938 54.2969
Q44.0938 59.9062 40.1094 62.9062
Q36.1406 65.9219 28.7188 65.9219
Q24.6562 65.9219 20.0156 65.0312
Q15.375 64.1562 9.8125 62.3125
L9.8125 71.0938
Q15.4375 72.6562 20.3438 73.4375
Q25.25 74.2188 29.5938 74.2188
Q40.8281 74.2188 47.3594 69.1094
Q53.9062 64.0156 53.9062 55.3281
Q53.9062 49.2656 50.4375 45.0938
Q46.9688 40.9219 40.5781 39.3125" id="BitstreamVeraSans-Roman-33"/>
      </defs>
      <g transform="translate(10.85625 114.677872157)scale(0.1 -0.1)">
       <use xlink:href="#BitstreamVeraSans-Roman-30"/>
       <use x="63.623046875" xlink:href="#BitstreamVeraSans-Roman-2e"/>
       <use x="95.41015625" xlink:href="#BitstreamVeraSans-Roman-33"/>
      </g>
     </g>
    </g>
    <g id="ytick_6">
     <g id="line2d_27">
      <defs>
       <path d="
M0 0
L4 0" id="m95c6bf3522"/>
      </defs>
      <g>
       <use style="stroke:#000000;stroke-linecap:butt;stroke-width:0.5;" x="29.2984375" xlink:href="#m95c6bf3522" y="46.1612824555"/>
      </g>
     </g>
     <g id="text_10">
      <!-- 0.4 -->
      <defs>
       <path d="
M37.7969 64.3125
L12.8906 25.3906
L37.7969 25.3906
z

M35.2031 72.9062
L47.6094 72.9062
L47.6094 25.3906
L58.0156 25.3906
L58.0156 17.1875
L47.6094 17.1875
L47.6094 0
L37.7969 0
L37.7969 17.1875
L4.89062 17.1875
L4.89062 26.7031
z
" id="BitstreamVeraSans-Roman-34"/>
      </defs>
      <g transform="translate(10.615625 49.8011262055)scale(0.1 -0.1)">
       <use xlink:href="#BitstreamVeraSans-Roman-30"/>
       <use x="63.623046875" xlink:href="#BitstreamVeraSans-Roman-2e"/>
       <use x="95.41015625" xlink:href="#BitstreamVeraSans-Roman-34"/>
      </g>
     </g>
    </g>
    <g id="ytick_7">
     <g id="line2d_28">
      <defs>
       <path d="
M0 0
L2 0" id="mb1d107de51"/>
      </defs>
      <g>
       <use style="stroke:#000000;stroke-linecap:butt;stroke-width:0.5;" x="29.2984375" xlink:href="#mb1d107de51" y="409.471059785"/>
      </g>
     </g>
    </g>
    <g id="ytick_8">
     <g id="line2d_29">
      <defs>
       <path d="
M0 0
L2 0" id="mb1d107de51"/>
      </defs>
      <g>
       <use style="stroke:#000000;stroke-linecap:butt;stroke-width:0.5;" x="29.2984375" xlink:href="#mb1d107de51" y="396.495710595"/>
      </g>
     </g>
    </g>
    <g id="ytick_9">
     <g id="line2d_30">
      <defs>
       <path d="
M0 0
L2 0" id="mb1d107de51"/>
      </defs>
      <g>
       <use style="stroke:#000000;stroke-linecap:butt;stroke-width:0.5;" x="29.2984375" xlink:href="#mb1d107de51" y="383.520361404"/>
      </g>
     </g>
    </g>
    <g id="ytick_10">
     <g id="line2d_31">
      <defs>
       <path d="
M0 0
L2 0" id="mb1d107de51"/>
      </defs>
      <g>
       <use style="stroke:#000000;stroke-linecap:butt;stroke-width:0.5;" x="29.2984375" xlink:href="#mb1d107de51" y="370.545012214"/>
      </g>
     </g>
    </g>
    <g id="ytick_11">
     <g id="line2d_32">
      <defs>
       <path d="
M0 0
L2 0" id="mb1d107de51"/>
      </defs>
      <g>
       <use style="stroke:#000000;stroke-linecap:butt;stroke-width:0.5;" x="29.2984375" xlink:href="#mb1d107de51" y="357.569663024"/>
      </g>
     </g>
    </g>
    <g id="ytick_12">
     <g id="line2d_33">
      <defs>
       <path d="
M0 0
L2 0" id="mb1d107de51"/>
      </defs>
      <g>
       <use style="stroke:#000000;stroke-linecap:butt;stroke-width:0.5;" x="29.2984375" xlink:href="#mb1d107de51" y="344.594313833"/>
      </g>
     </g>
    </g>
    <g id="ytick_13">
     <g id="line2d_34">
      <defs>
       <path d="
M0 0
L2 0" id="mb1d107de51"/>
      </defs>
      <g>
       <use style="stroke:#000000;stroke-linecap:butt;stroke-width:0.5;" x="29.2984375" xlink:href="#mb1d107de51" y="331.618964643"/>
      </g>
     </g>
    </g>
    <g id="ytick_14">
     <g id="line2d_35">
      <defs>
       <path d="
M0 0
L2 0" id="mb1d107de51"/>
      </defs>
      <g>
       <use style="stroke:#000000;stroke-linecap:butt;stroke-width:0.5;" x="29.2984375" xlink:href="#mb1d107de51" y="318.643615453"/>
      </g>
     </g>
    </g>
    <g id="ytick_15">
     <g id="line2d_36">
      <defs>
       <path d="
M0 0
L2 0" id="mb1d107de51"/>
      </defs>
      <g>
       <use style="stroke:#000000;stroke-linecap:butt;stroke-width:0.5;" x="29.2984375" xlink:href="#mb1d107de51" y="305.668266262"/>
      </g>
     </g>
    </g>
    <g id="ytick_16">
     <g id="line2d_37">
      <defs>
       <path d="
M0 0
L2 0" id="mb1d107de51"/>
      </defs>
      <g>
       <use style="stroke:#000000;stroke-linecap:butt;stroke-width:0.5;" x="29.2984375" xlink:href="#mb1d107de51" y="292.692917072"/>
      </g>
     </g>
    </g>
    <g id="ytick_17">
     <g id="line2d_38">
      <defs>
       <path d="
M0 0
L2 0" id="mb1d107de51"/>
      </defs>
      <g>
       <use style="stroke:#000000;stroke-linecap:butt;stroke-width:0.5;" x="29.2984375" xlink:href="#mb1d107de51" y="279.717567882"/>
      </g>
     </g>
    </g>
    <g id="ytick_18">
     <g id="line2d_39">
      <defs>
       <path d="
M0 0
L2 0" id="mb1d107de51"/>
      </defs>
      <g>
       <use style="stroke:#000000;stroke-linecap:butt;stroke-width:0.5;" x="29.2984375" xlink:href="#mb1d107de51" y="266.742218691"/>
      </g>
     </g>
    </g>
    <g id="ytick_19">
     <g id="line2d_40">
      <defs>
       <path d="
M0 0
L2 0" id="mb1d107de51"/>
      </defs>
      <g>
       <use style="stroke:#000000;stroke-linecap:butt;stroke-width:0.5;" x="29.2984375" xlink:href="#mb1d107de51" y="253.766869501"/>
      </g>
     </g>
    </g>
    <g id="ytick_20">
     <g id="line2d_41">
      <defs>
       <path d="
M0 0
L2 0" id="mb1d107de51"/>
      </defs>
      <g>
       <use style="stroke:#000000;stroke-linecap:butt;stroke-width:0.5;" x="29.2984375" xlink:href="#mb1d107de51" y="240.791520311"/>
      </g>
     </g>
    </g>
    <g id="ytick_21">
     <g id="line2d_42">
      <defs>
       <path d="
M0 0
L2 0" id="mb1d107de51"/>
      </defs>
      <g>
       <use style="stroke:#000000;stroke-linecap:butt;stroke-width:0.5;" x="29.2984375" xlink:href="#mb1d107de51" y="227.81617112"/>
      </g>
     </g>
    </g>
    <g id="ytick_22">
     <g id="line2d_43">
      <defs>
       <path d="
M0 0
L2 0" id="mb1d107de51"/>
      </defs>
      <g>
       <use style="stroke:#000000;stroke-linecap:butt;stroke-width:0.5;" x="29.2984375" xlink:href="#mb1d107de51" y="214.84082193"/>
      </g>
     </g>
    </g>
    <g id="ytick_23">
     <g id="line2d_44">
      <defs>
       <path d="
M0 0
L2 0" id="mb1d107de51"/>
      </defs>
      <g>
       <use style="stroke:#000000;stroke-linecap:butt;stroke-width:0.5;" x="29.2984375" xlink:href="#mb1d107de51" y="201.86547274"/>
      </g>
     </g>
    </g>
    <g id="ytick_24">
     <g id="line2d_45">
      <defs>
       <path d="
M0 0
L2 0" id="mb1d107de51"/>
      </defs>
      <g>
       <use style="stroke:#000000;stroke-linecap:butt;stroke-width:0.5;" x="29.2984375" xlink:href="#mb1d107de51" y="188.890123549"/>
      </g>
     </g>
    </g>
    <g id="ytick_25">
     <g id="line2d_46">
      <defs>
       <path d="
M0 0
L2 0" id="mb1d107de51"/>
      </defs>
      <g>
       <use style="stroke:#000000;stroke-linecap:butt;stroke-width:0.5;" x="29.2984375" xlink:href="#mb1d107de51" y="175.914774359"/>
      </g>
     </g>
    </g>
    <g id="ytick_26">
     <g id="line2d_47">
      <defs>
       <path d="
M0 0
L2 0" id="mb1d107de51"/>
      </defs>
      <g>
       <use style="stroke:#000000;stroke-linecap:butt;stroke-width:0.5;" x="29.2984375" xlink:href="#mb1d107de51" y="162.939425169"/>
      </g>
     </g>
    </g>
    <g id="ytick_27">
     <g id="line2d_48">
      <defs>
       <path d="
M0 0
L2 0" id="mb1d107de51"/>
      </defs>
      <g>
       <use style="stroke:#000000;stroke-linecap:butt;stroke-width:0.5;" x="29.2984375" xlink:href="#mb1d107de51" y="149.964075978"/>
      </g>
     </g>
    </g>
    <g id="ytick_28">
     <g id="line2d_49">
      <defs>
       <path d="
M0 0
L2 0" id="mb1d107de51"/>
      </defs>
      <g>
       <use style="stroke:#000000;stroke-linecap:butt;stroke-width:0.5;" x="29.2984375" xlink:href="#mb1d107de51" y="136.988726788"/>
      </g>
     </g>
    </g>
    <g id="ytick_29">
     <g id="line2d_50">
      <defs>
       <path d="
M0 0
L2 0" id="mb1d107de51"/>
      </defs>
      <g>
       <use style="stroke:#000000;stroke-linecap:butt;stroke-width:0.5;" x="29.2984375" xlink:href="#mb1d107de51" y="124.013377598"/>
      </g>
     </g>
    </g>
    <g id="ytick_30">
     <g id="line2d_51">
      <defs>
       <path d="
M0 0
L2 0" id="mb1d107de51"/>
      </defs>
      <g>
       <use style="stroke:#000000;stroke-linecap:butt;stroke-width:0.5;" x="29.2984375" xlink:href="#mb1d107de51" y="111.038028407"/>
      </g>
     </g>
    </g>
    <g id="ytick_31">
     <g id="line2d_52">
      <defs>
       <path d="
M0 0
L2 0" id="mb1d107de51"/>
      </defs>
      <g>
       <use style="stroke:#000000;stroke-linecap:butt;stroke-width:0.5;" x="29.2984375" xlink:href="#mb1d107de51" y="98.0626792169"/>
      </g>
     </g>
    </g>
    <g id="ytick_32">
     <g id="line2d_53">
      <defs>
       <path d="
M0 0
L2 0" id="mb1d107de51"/>
      </defs>
      <g>
       <use style="stroke:#000000;stroke-linecap:butt;stroke-width:0.5;" x="29.2984375" xlink:href="#mb1d107de51" y="85.0873300266"/>
      </g>
     </g>
    </g>
    <g id="ytick_33">
     <g id="line2d_54">
      <defs>
       <path d="
M0 0
L2 0" id="mb1d107de51"/>
      </defs>
      <g>
       <use style="stroke:#000000;stroke-linecap:butt;stroke-width:0.5;" x="29.2984375" xlink:href="#mb1d107de51" y="72.1119808362"/>
      </g>
     </g>
    </g>
    <g id="ytick_34">
     <g id="line2d_55">
      <defs>
       <path d="
M0 0
L2 0" id="mb1d107de51"/>
      </defs>
      <g>
       <use style="stroke:#000000;stroke-linecap:butt;stroke-width:0.5;" x="29.2984375" xlink:href="#mb1d107de51" y="59.1366316459"/>
      </g>
     </g>
    </g>
    <g id="ytick_35">
     <g id="line2d_56">
      <defs>
       <path d="
M0 0
L2 0" id="mb1d107de51"/>
      </defs>
      <g>
       <use style="stroke:#000000;stroke-linecap:butt;stroke-width:0.5;" x="29.2984375" xlink:href="#mb1d107de51" y="46.1612824555"/>
      </g>
     </g>
    </g>
    <g id="ytick_36">
     <g id="line2d_57">
      <defs>
       <path d="
M0 0
L2 0" id="mb1d107de51"/>
      </defs>
      <g>
       <use style="stroke:#000000;stroke-linecap:butt;stroke-width:0.5;" x="29.2984375" xlink:href="#mb1d107de51" y="33.1859332652"/>
      </g>
     </g>
    </g>
    <g id="ytick_37">
     <g id="line2d_58">
      <defs>
       <path d="
M0 0
L2 0" id="mb1d107de51"/>
      </defs>
      <g>
       <use style="stroke:#000000;stroke-linecap:butt;stroke-width:0.5;" x="29.2984375" xlink:href="#mb1d107de51" y="20.2105840749"/>
      </g>
     </g>
    </g>
   </g>
   <g id="patch_3">
    <path d="
M39.2984 305.668
L557.266 305.668" style="fill:none;stroke:#000000;stroke-width:0.8;"/>
   </g>
   <g id="patch_4">
    <path d="
M29.2984 413.28
L29.2984 7.2" style="fill:none;stroke:#000000;stroke-width:0.8;"/>
   </g>
  </g>
 </g>
 <defs>
  <clipPath id="pbda54c63f9">
   <rect height="406.08" width="517.9675" x="39.2984375" y="7.2"/>
  </clipPath>
 </defs>
</svg>
