<?xml version="1.0" encoding="utf-8" standalone="no"?>
<!DOCTYPE svg PUBLIC "-//W3C//DTD SVG 1.1//EN"
  "http://www.w3.org/Graphics/SVG/1.1/DTD/svg11.dtd">
<!-- Created with matplotlib (http://matplotlib.sourceforge.net/) -->
<svg height="420pt" version="1.1" viewBox="0 0 564 420" width="564pt" xmlns="http://www.w3.org/2000/svg" xmlns:xlink="http://www.w3.org/1999/xlink">
 <defs>
  <style type="text/css">
*{stroke-linecap:square;stroke-linejoin:round;}
  </style>
 </defs>
 <g id="figure_1">
  <g id="patch_1">
   <path d="
M-4.44089e-16 420.48
L564.466 420.48
L564.466 0
L-4.44089e-16 0
z
" style="fill:#ffffff;"/>
  </g>
  <g id="axes_1">
   <g id="patch_2">
    <path d="
M39.2984 413.28
L557.266 413.28
L557.266 7.2
L39.2984 7.2
z
" style="fill:#ffffff;"/>
   </g>
   <g id="line2d_1">
    <path clip-path="url(#pbda54c63f9)" d="
M49.2594 33.218
L49.9808 24.5829
L50.5992 19.5526
L51.166 16.6504
L51.5782 15.4723
L51.939 15.0367
L52.1966 15.046
L52.4543 15.3095
L52.815 16.0846
L53.2788 17.7373
L53.8456 20.6866
L54.567 25.787
L55.4431 33.7925
L56.4737 45.4389
L57.7104 62.141
L59.1533 84.7832
L59.514 89.3098
L60.4931 98.0474
L61.6268 110.231
L62.9666 127.124
L64.564 150.292
L66.4191 180.661
L68.5834 219.957
L71.1084 270.028
L72.2421 291.529
L73.7365 307.812
L75.437 328.876
L77.3952 356.055
L79.611 390.067
L80.4355 403.009
L80.487 402.835
L81.26 400.66
L81.9299 399.415
L82.4967 398.805
L82.9605 398.599
L83.4243 398.648
L83.8881 398.944
L84.4034 399.555
L85.0218 400.669
L85.7432 402.472
L86.5677 405.171
L86.6707 405.471
L87.5468 402.44
L88.3197 400.514
L88.9896 399.39
L89.5565 398.819
L90.0718 398.593
L90.5356 398.621
L90.9993 398.864
L91.5662 399.443
L91.6177 399.511
L91.7208 398.575
L93.2152 379.564
L94.6065 364.557
L95.7917 353.687
L96.0494 353.124
L96.7193 352.162
L97.3376 351.646
L97.8529 351.482
L98.3683 351.552
L98.8836 351.852
L99.4504 352.439
L100.12 353.473
L100.893 355.11
L101.769 357.519
L103.006 361.014
L103.882 363.354
L104.861 366.619
L105.428 369.088
L106.871 377.707
L108.468 388.692
L110.014 400.426
L110.117 400.145
L110.993 398.098
L111.818 396.715
L112.127 396.119
L113.261 391.557
L114.034 389.184
L114.6 389.176
L115.167 389.389
L115.734 389.817
L115.889 388.814
L117.332 378.722
L117.589 376.469
L119.187 361.967
L120.681 350.353
L123.824 328.687
L124.546 323.66
L127.638 294.64
L127.947 291.145
L129.081 277.743
L130.73 263.92
L132.585 249.786
L133.461 244.184
L134.234 243.465
L134.543 244.089
L135.574 246.621
L136.604 249.752
L140.83 275.103
L141.551 277.145
L142.273 279.208
L143.406 282.193
L143.767 283.507
L145.416 292.2
L145.983 295.909
L147.013 305.101
L147.786 314.987
L149.641 338.994
L151.445 353.555
L153.352 371.36
L154.898 381.218
L156.959 390.509
L158.711 393.542
L159.278 393.088
L159.999 393.795
L160.308 393.855
L161.081 393.572
L161.545 391.818
L162.833 386.7
L163.039 386.342
L163.503 385.939
L163.812 385.809
L164.585 385.412
L165.101 385.289
L165.977 387.522
L167.574 391.62
L168.244 391.286
L168.45 391.337
L168.914 391.729
L169.738 392.43
L170.099 392.642
L170.666 392.326
L171.181 392.42
L171.387 391.791
L172.676 384.673
L173.397 379.614
L175.252 366.294
L176.747 358.01
L177.777 351.523
L178.086 350.728
L178.55 349.649
L179.117 348.365
L179.529 347.512
L179.787 346.678
L180.354 344.697
L180.972 342.94
L181.333 341.013
L182.415 334.252
L183.549 326.97
L184.322 324.012
L184.785 321.74
L187.723 305.538
L188.187 304.752
L189.063 303.895
L189.629 303.701
L189.99 303.248
L190.454 302.45
L191.072 301.153
L191.278 300.17
L192.051 296.66
L192.773 293.672
L193.082 293.066
L193.958 292.11
L194.679 292.624
L195.658 294.15
L196.071 295.466
L196.535 296.701
L196.792 296.963
L196.895 297.01
L197.514 297.85
L197.926 298.262
L199.163 300.466
L199.214 300.437
L199.575 300.128
L199.936 299.865
L200.296 300.035
L200.812 300.619
L202.667 306.894
L203.234 309.694
L204.47 313.177
L204.779 313.821
L205.089 314.031
L205.346 314.076
L205.655 314.655
L206.428 316.073
L206.789 316.493
L207.304 316.315
L207.511 316.27
L207.717 316.212
L208.335 315.438
L208.85 314.855
L209.057 314.758
L209.366 314.543
L210.036 313.471
L210.139 313.521
L210.345 314.062
L211.015 317.336
L212.097 322.585
L213.127 327.364
L214.313 333.426
L215.549 339.567
L216.786 346.464
L218.59 355.534
L219.414 358.231
L220.033 360.038
L220.393 361.812
L221.063 365.366
L221.372 365.886
L221.733 366.042
L222.351 367.101
L222.661 367.863
L223.331 369.762
L223.64 370.303
L224.516 371.227
L224.876 371.005
L225.083 370.852
L225.907 370.712
L226.268 370.561
L226.886 369.334
L227.453 367.56
L228.484 363.453
L229.102 361.73
L229.514 360.4
L230.133 358.725
L230.596 357.8
L230.854 357.34
L231.369 356.238
L231.472 356.286
L231.782 356.565
L232.142 356.433
L232.503 356.14
L233.07 356.788
L233.482 357.132
L234.049 357.513
L234.513 357.318
L234.822 356.954
L235.698 355.476
L236.11 355.226
L236.213 355.291
L237.398 357.054
L239.305 361.397
L239.563 361.743
L239.975 362.647
L240.8 363.664
L241.006 364.133
L241.366 365.105
L241.779 365.773
L242.191 366.448
L242.912 367.063
L243.118 367.045
L243.325 366.768
L243.685 365.8
L243.994 364.404
L245.386 357.482
L245.901 354.438
L248.787 332.203
L249.405 327.605
L251.003 318.967
L252.085 315.603
L253.012 312.484
L253.579 310.558
L254.713 308.197
L255.28 308.059
L255.589 308.077
L255.743 308.087
L255.95 308.368
L256.516 309.247
L256.723 309.406
L256.929 309.545
L257.496 309.973
L257.959 310.319
L258.165 310.498
L258.681 311.029
L259.041 310.966
L259.505 310.484
L259.711 310.532
L260.072 311.169
L260.484 312.059
L261.103 313.478
L261.566 314.636
L262.391 317.521
L262.7 318.308
L263.164 319.072
L264.401 322.328
L265.019 323.035
L265.74 323.18
L265.947 323.513
L266.256 324.546
L266.823 326.946
L268.111 330.348
L268.884 331.643
L269.141 331.753
L269.708 331.987
L270.842 333.078
L271.151 333.64
L271.409 333.79
L271.718 334.095
L272.13 333.715
L272.491 332.589
L273.212 330.912
L273.47 330.749
L273.779 330.588
L274.14 330.274
L274.346 330.126
L274.552 329.984
L275.068 329.467
L275.686 329.785
L275.944 329.905
L276.15 329.735
L276.562 329.35
L277.232 328.5
L278.056 327.271
L278.108 327.313
L278.417 327.722
L279.551 329.205
L279.757 329.145
L280.118 328.643
L280.478 328.213
L281.045 328.011
L281.612 328.204
L282.127 327.686
L282.488 327.356
L282.694 327.511
L283.416 328.071
L284.188 327.503
L284.446 327.145
L284.755 326.781
L285.786 325.474
L286.765 324.647
L287.126 324.654
L287.332 324.962
L287.744 325.618
L287.899 325.668
L288.053 325.682
L288.362 326.194
L289.908 329.583
L291.454 335.661
L292.124 339.416
L294.289 351.367
L295.113 356.625
L295.628 358.683
L296.453 361.626
L296.917 363.29
L297.38 364.337
L299.802 370.459
L300.215 370.794
L300.781 371.158
L301.709 371.863
L301.915 371.585
L302.637 370.577
L303.203 370.018
L303.77 368.805
L304.801 366.324
L305.007 366.063
L306.45 363.031
L306.656 362.545
L307.532 359.57
L307.893 358.444
L308.305 357.811
L309.387 357.169
L309.902 356.107
L310.263 355.416
L310.624 354.945
L311.191 353.919
L311.964 352.456
L312.582 350.849
L314.179 345.673
L314.695 344.568
L316.035 342.638
L316.344 342.234
L316.704 341.868
L317.014 341.789
L317.89 342.412
L318.405 342.845
L318.714 342.852
L319.023 342.467
L319.59 341.456
L319.848 341.069
L320.466 339.574
L320.982 337.879
L322.064 333.529
L322.785 329.56
L324.073 325.198
L324.846 323.885
L327.165 317.883
L328.299 315.204
L329.433 311.105
L330.515 307.151
L330.979 306.209
L331.391 305.662
L331.751 305.437
L332.164 304.545
L333.658 301.056
L334.534 300.137
L334.895 300.023
L335.41 299.464
L335.719 299.061
L336.492 297.737
L336.853 297.526
L337.523 298.171
L338.09 299.434
L339.378 302.454
L340.254 305.836
L340.821 308.884
L341.697 313.373
L342.315 315.889
L343.191 318.902
L344.067 320.804
L344.583 323.113
L345.407 327.233
L347.52 339.205
L349.272 347.238
L349.787 348.489
L350.354 350.086
L350.869 351.798
L351.385 354.611
L352.621 361.09
L353.91 366.385
L354.27 367.228
L354.889 368.253
L355.198 367.894
L356.177 366.209
L356.744 364.623
L357.259 363.584
L357.62 363.194
L358.135 363.167
L358.548 363.371
L359.114 363.79
L359.424 363.833
L360.145 364.55
L360.763 365.27
L362.103 367.303
L362.618 368.199
L363.082 368.776
L363.701 368.687
L364.422 367.645
L365.504 365.342
L366.741 359.825
L369.781 344.329
L370.348 342.188
L371.018 339.382
L371.688 336.341
L372.615 332.862
L373.079 332.218
L374.007 331.349
L375.089 329.44
L375.45 329.156
L375.759 329.281
L376.068 329.303
L376.532 329.187
L376.789 329.305
L377.253 329.777
L377.717 330.096
L378.645 330.427
L379.005 330.762
L380.139 332.166
L380.654 332.741
L381.17 332.403
L381.943 330.998
L382.458 329.89
L382.87 329.267
L383.179 328.761
L383.54 328.221
L384.313 327.454
L384.674 327.229
L385.24 327.442
L385.653 327.578
L385.91 327.941
L386.58 329.372
L387.559 331.646
L388.332 332.731
L389.466 333.204
L389.672 333.144
L389.981 332.914
L390.394 333.075
L390.909 333.409
L391.527 334.387
L392.3 335.555
L393.022 336.826
L393.434 337.164
L393.588 337.018
L394.052 336.3
L394.516 335.359
L395.495 334.002
L396.268 334.05
L396.423 333.857
L397.041 332.855
L397.402 332.287
L397.711 331.22
L398.948 327.002
L399.308 326.557
L399.824 326.47
L400.7 326.849
L401.112 327.653
L401.524 328.427
L402.091 328.951
L403.792 328.204
L404.462 328.472
L404.822 328.709
L405.028 328.898
L405.698 329.671
L406.059 330.047
L406.523 330.497
L406.78 330.559
L407.399 330.312
L408.275 330.543
L408.739 330.929
L408.893 330.903
L409.202 330.823
L409.615 330.794
L409.975 330.826
L410.233 330.912
L411.006 331.638
L411.521 332.251
L412.088 332.535
L412.552 332.861
L412.913 332.972
L413.531 333.11
L413.995 332.682
L414.458 332.116
L414.819 331.792
L415.231 331.274
L415.953 329.98
L416.417 329.737
L417.035 329.604
L417.756 330.187
L418.066 330.451
L418.632 330.595
L418.942 330.831
L419.663 330.519
L420.024 330.376
L420.333 330.433
L420.591 330.497
L421.054 330.35
L422.085 329.798
L422.291 329.861
L423.167 330.806
L423.528 331.289
L423.786 331.711
L424.146 332.67
L424.507 333.485
L424.971 334.269
L425.177 334.473
L427.135 338.009
L427.857 339.817
L429.196 343.218
L430.021 345.031
L430.433 346.161
L431.309 348.88
L432.649 353.479
L435.38 361.927
L436.205 363.409
L436.72 364.751
L437.184 365.146
L438.266 365.117
L438.626 364.836
L439.193 363.815
L439.709 362.663
L440.275 361.542
L440.585 361.115
L441.512 360.479
L441.718 360.267
L443.47 357.372
L445.789 351.938
L447.078 348.37
L447.902 347.46
L448.314 346.636
L449.963 341.903
L450.53 340.687
L451.148 339.22
L452.54 336.699
L453.004 336.287
L453.519 335.709
L454.189 334.289
L455.168 331.211
L455.992 328.73
L457.59 324.968
L458.054 323.984
L458.569 323.227
L458.878 322.493
L459.548 320.028
L460.476 316.807
L460.939 315.55
L461.918 312.706
L462.743 310.975
L463.155 310.44
L463.722 309.845
L464.34 308.894
L464.959 308.505
L465.423 308.395
L465.783 308.751
L466.762 310.092
L466.968 310.17
L467.329 310.464
L467.741 311.254
L468.669 313.147
L470.679 319.963
L471.503 322.727
L472.534 325.383
L473.204 326.491
L474.75 327.968
L475.059 327.999
L475.265 327.991
L475.574 328.178
L476.399 329.664
L476.965 330.416
L477.275 330.694
L477.584 330.97
L478.048 331.327
L478.511 331.668
L478.821 332.119
L479.903 334.531
L480.366 335.732
L480.985 337.565
L481.758 339.848
L482.479 342.027
L483.819 345.947
L484.231 346.922
L485.416 350.357
L485.777 351.053
L486.344 351.937
L487.22 353.243
L487.426 353.329
L488.096 353.201
L488.302 353.434
L488.611 353.605
L488.972 353.678
L489.281 353.724
L489.487 353.724
L489.848 354.243
L490.621 355.496
L491.085 356.083
L491.6 356.322
L492.012 356.164
L492.425 355.924
L492.888 355.4
L494.228 353.03
L496.959 345.848
L497.681 344.661
L498.454 343.409
L499.072 342.588
L500.154 342.015
L500.927 342.561
L502.267 344.699
L502.731 344.981
L503.246 345.177
L504.225 345.493
L504.895 345.814
L506.132 345.676
L506.39 345.603
L507.008 345.03
L507.317 344.58
L507.729 343.957
L508.348 343.206
L508.966 342.226
L509.378 341.976
L509.739 341.797
L510.151 341.966
L510.512 342.165
L511.646 343.058
L512.161 343.726
L512.522 343.897
L513.14 344.021
L514.222 343.015
L514.583 342.249
L516.644 336.634
L517.056 335.964
L517.417 335.32
L518.963 332.775
L519.221 332.36
L519.581 331.735
L519.994 331.39
L520.612 331.292
L521.488 330.155
L523.086 326.734
L523.498 325.953
L525.198 322.613
L525.611 322.543
L526.023 322.89
L526.899 323.933
L527.672 325.024
L529.321 328.453
L530.351 330.075
L530.712 330.64
L531.382 331.692
L531.846 332.039
L532.464 332.12
L532.928 332.187
L533.392 332.287
L534.268 332.941
L534.525 333.006
L535.092 333.525
L535.814 333.959
L536.741 333.376
L537.308 333.038
L537.669 332.839
L538.029 332.55
L538.854 331.775
L539.318 331.442
L539.936 331.37
L540.297 331.479
L540.761 331.563
L541.74 331.904
L541.997 331.694
L542.461 331.184
L544.162 329.35
L544.832 329.298
L545.347 329.562
L545.708 329.833
L546.532 329.904
L546.944 329.715
L547.305 329.37
L547.305 329.37" style="fill:none;stroke:#0000ff;"/>
   </g>
   <g id="matplotlib.axis_1">
    <g id="xtick_1">
     <g id="line2d_2">
      <defs>
       <path d="
M0 0
L0 -4" id="m4603e4ecc3"/>
      </defs>
      <g>
       <use style="stroke:#000000;stroke-linecap:butt;stroke-width:0.5;" x="156.354338713" xlink:href="#m4603e4ecc3" y="337.371242413"/>
      </g>
     </g>
     <g id="text_1">
      <!-- 5 -->
      <defs>
       <path d="
M10.7969 72.9062
L49.5156 72.9062
L49.5156 64.5938
L19.8281 64.5938
L19.8281 46.7344
Q21.9688 47.4688 24.1094 47.8281
Q26.2656 48.1875 28.4219 48.1875
Q40.625 48.1875 47.75 41.5
Q54.8906 34.8125 54.8906 23.3906
Q54.8906 11.625 47.5625 5.09375
Q40.2344 -1.42188 26.9062 -1.42188
Q22.3125 -1.42188 17.5469 -0.640625
Q12.7969 0.140625 7.71875 1.70312
L7.71875 11.625
Q12.1094 9.23438 16.7969 8.0625
Q21.4844 6.89062 26.7031 6.89062
Q35.1562 6.89062 40.0781 11.3281
Q45.0156 15.7656 45.0156 23.3906
Q45.0156 31 40.0781 35.4375
Q35.1562 39.8906 26.7031 39.8906
Q22.75 39.8906 18.8125 39.0156
Q14.8906 38.1406 10.7969 36.2812
z
" id="BitstreamVeraSans-Roman-35"/>
      </defs>
      <g transform="translate(153.995744963 348.661867413)scale(0.1 -0.1)">
       <use xlink:href="#BitstreamVeraSans-Roman-35"/>
      </g>
     </g>
    </g>
    <g id="xtick_2">
     <g id="line2d_3">
      <defs>
       <path d="
M0 0
L0 -4" id="m4603e4ecc3"/>
      </defs>
      <g>
       <use style="stroke:#000000;stroke-linecap:butt;stroke-width:0.5;" x="280.685250683" xlink:href="#m4603e4ecc3" y="337.371242413"/>
      </g>
     </g>
     <g id="text_2">
      <!-- 10 -->
      <defs>
       <path d="
M31.7812 66.4062
Q24.1719 66.4062 20.3281 58.9062
Q16.5 51.4219 16.5 36.375
Q16.5 21.3906 20.3281 13.8906
Q24.1719 6.39062 31.7812 6.39062
Q39.4531 6.39062 43.2812 13.8906
Q47.125 21.3906 47.125 36.375
Q47.125 51.4219 43.2812 58.9062
Q39.4531 66.4062 31.7812 66.4062
M31.7812 74.2188
Q44.0469 74.2188 50.5156 64.5156
Q56.9844 54.8281 56.9844 36.375
Q56.9844 17.9688 50.5156 8.26562
Q44.0469 -1.42188 31.7812 -1.42188
Q19.5312 -1.42188 13.0625 8.26562
Q6.59375 17.9688 6.59375 36.375
Q6.59375 54.8281 13.0625 64.5156
Q19.5312 74.2188 31.7812 74.2188" id="BitstreamVeraSans-Roman-30"/>
       <path d="
M12.4062 8.29688
L28.5156 8.29688
L28.5156 63.9219
L10.9844 60.4062
L10.9844 69.3906
L28.4219 72.9062
L38.2812 72.9062
L38.2812 8.29688
L54.3906 8.29688
L54.3906 0
L12.4062 0
z
" id="BitstreamVeraSans-Roman-31"/>
      </defs>
      <g transform="translate(275.204000683 348.793117413)scale(0.1 -0.1)">
       <use xlink:href="#BitstreamVeraSans-Roman-31"/>
       <use x="63.623046875" xlink:href="#BitstreamVeraSans-Roman-30"/>
      </g>
     </g>
    </g>
    <g id="xtick_3">
     <g id="line2d_4">
      <defs>
       <path d="
M0 0
L0 -4" id="m4603e4ecc3"/>
      </defs>
      <g>
       <use style="stroke:#000000;stroke-linecap:butt;stroke-width:0.5;" x="405.016162652" xlink:href="#m4603e4ecc3" y="337.371242413"/>
      </g>
     </g>
     <g id="text_3">
      <!-- 15 -->
      <g transform="translate(399.639600152 348.661867413)scale(0.1 -0.1)">
       <use xlink:href="#BitstreamVeraSans-Roman-31"/>
       <use x="63.623046875" xlink:href="#BitstreamVeraSans-Roman-35"/>
      </g>
     </g>
    </g>
    <g id="xtick_4">
     <g id="line2d_5">
      <defs>
       <path d="
M0 0
L0 -4" id="m4603e4ecc3"/>
      </defs>
      <g>
       <use style="stroke:#000000;stroke-linecap:butt;stroke-width:0.5;" x="529.347074621" xlink:href="#m4603e4ecc3" y="337.371242413"/>
      </g>
     </g>
     <g id="text_4">
      <!-- 20 -->
      <defs>
       <path d="
M19.1875 8.29688
L53.6094 8.29688
L53.6094 0
L7.32812 0
L7.32812 8.29688
Q12.9375 14.1094 22.625 23.8906
Q32.3281 33.6875 34.8125 36.5312
Q39.5469 41.8438 41.4219 45.5312
Q43.3125 49.2188 43.3125 52.7812
Q43.3125 58.5938 39.2344 62.25
Q35.1562 65.9219 28.6094 65.9219
Q23.9688 65.9219 18.8125 64.3125
Q13.6719 62.7031 7.8125 59.4219
L7.8125 69.3906
Q13.7656 71.7812 18.9375 73
Q24.125 74.2188 28.4219 74.2188
Q39.75 74.2188 46.4844 68.5469
Q53.2188 62.8906 53.2188 53.4219
Q53.2188 48.9219 51.5312 44.8906
Q49.8594 40.875 45.4062 35.4062
Q44.1875 33.9844 37.6406 27.2188
Q31.1094 20.4531 19.1875 8.29688" id="BitstreamVeraSans-Roman-32"/>
      </defs>
      <g transform="translate(523.683012121 348.793117413)scale(0.1 -0.1)">
       <use xlink:href="#BitstreamVeraSans-Roman-32"/>
       <use x="63.623046875" xlink:href="#BitstreamVeraSans-Roman-30"/>
      </g>
     </g>
    </g>
    <g id="xtick_5">
     <g id="line2d_6">
      <defs>
       <path d="
M0 0
L0 -2" id="m146883a18b"/>
      </defs>
      <g>
       <use style="stroke:#000000;stroke-linecap:butt;stroke-width:0.5;" x="56.8896091378" xlink:href="#m146883a18b" y="337.371242413"/>
      </g>
     </g>
    </g>
    <g id="xtick_6">
     <g id="line2d_7">
      <defs>
       <path d="
M0 0
L0 -2" id="m146883a18b"/>
      </defs>
      <g>
       <use style="stroke:#000000;stroke-linecap:butt;stroke-width:0.5;" x="81.7557915317" xlink:href="#m146883a18b" y="337.371242413"/>
      </g>
     </g>
    </g>
    <g id="xtick_7">
     <g id="line2d_8">
      <defs>
       <path d="
M0 0
L0 -2" id="m146883a18b"/>
      </defs>
      <g>
       <use style="stroke:#000000;stroke-linecap:butt;stroke-width:0.5;" x="106.621973926" xlink:href="#m146883a18b" y="337.371242413"/>
      </g>
     </g>
    </g>
    <g id="xtick_8">
     <g id="line2d_9">
      <defs>
       <path d="
M0 0
L0 -2" id="m146883a18b"/>
      </defs>
      <g>
       <use style="stroke:#000000;stroke-linecap:butt;stroke-width:0.5;" x="131.488156319" xlink:href="#m146883a18b" y="337.371242413"/>
      </g>
     </g>
    </g>
    <g id="xtick_9">
     <g id="line2d_10">
      <defs>
       <path d="
M0 0
L0 -2" id="m146883a18b"/>
      </defs>
      <g>
       <use style="stroke:#000000;stroke-linecap:butt;stroke-width:0.5;" x="181.220521107" xlink:href="#m146883a18b" y="337.371242413"/>
      </g>
     </g>
    </g>
    <g id="xtick_10">
     <g id="line2d_11">
      <defs>
       <path d="
M0 0
L0 -2" id="m146883a18b"/>
      </defs>
      <g>
       <use style="stroke:#000000;stroke-linecap:butt;stroke-width:0.5;" x="206.086703501" xlink:href="#m146883a18b" y="337.371242413"/>
      </g>
     </g>
    </g>
    <g id="xtick_11">
     <g id="line2d_12">
      <defs>
       <path d="
M0 0
L0 -2" id="m146883a18b"/>
      </defs>
      <g>
       <use style="stroke:#000000;stroke-linecap:butt;stroke-width:0.5;" x="230.952885895" xlink:href="#m146883a18b" y="337.371242413"/>
      </g>
     </g>
    </g>
    <g id="xtick_12">
     <g id="line2d_13">
      <defs>
       <path d="
M0 0
L0 -2" id="m146883a18b"/>
      </defs>
      <g>
       <use style="stroke:#000000;stroke-linecap:butt;stroke-width:0.5;" x="255.819068289" xlink:href="#m146883a18b" y="337.371242413"/>
      </g>
     </g>
    </g>
    <g id="xtick_13">
     <g id="line2d_14">
      <defs>
       <path d="
M0 0
L0 -2" id="m146883a18b"/>
      </defs>
      <g>
       <use style="stroke:#000000;stroke-linecap:butt;stroke-width:0.5;" x="305.551433077" xlink:href="#m146883a18b" y="337.371242413"/>
      </g>
     </g>
    </g>
    <g id="xtick_14">
     <g id="line2d_15">
      <defs>
       <path d="
M0 0
L0 -2" id="m146883a18b"/>
      </defs>
      <g>
       <use style="stroke:#000000;stroke-linecap:butt;stroke-width:0.5;" x="330.41761547" xlink:href="#m146883a18b" y="337.371242413"/>
      </g>
     </g>
    </g>
    <g id="xtick_15">
     <g id="line2d_16">
      <defs>
       <path d="
M0 0
L0 -2" id="m146883a18b"/>
      </defs>
      <g>
       <use style="stroke:#000000;stroke-linecap:butt;stroke-width:0.5;" x="355.283797864" xlink:href="#m146883a18b" y="337.371242413"/>
      </g>
     </g>
    </g>
    <g id="xtick_16">
     <g id="line2d_17">
      <defs>
       <path d="
M0 0
L0 -2" id="m146883a18b"/>
      </defs>
      <g>
       <use style="stroke:#000000;stroke-linecap:butt;stroke-width:0.5;" x="380.149980258" xlink:href="#m146883a18b" y="337.371242413"/>
      </g>
     </g>
    </g>
    <g id="xtick_17">
     <g id="line2d_18">
      <defs>
       <path d="
M0 0
L0 -2" id="m146883a18b"/>
      </defs>
      <g>
       <use style="stroke:#000000;stroke-linecap:butt;stroke-width:0.5;" x="429.882345046" xlink:href="#m146883a18b" y="337.371242413"/>
      </g>
     </g>
    </g>
    <g id="xtick_18">
     <g id="line2d_19">
      <defs>
       <path d="
M0 0
L0 -2" id="m146883a18b"/>
      </defs>
      <g>
       <use style="stroke:#000000;stroke-linecap:butt;stroke-width:0.5;" x="454.74852744" xlink:href="#m146883a18b" y="337.371242413"/>
      </g>
     </g>
    </g>
    <g id="xtick_19">
     <g id="line2d_20">
      <defs>
       <path d="
M0 0
L0 -2" id="m146883a18b"/>
      </defs>
      <g>
       <use style="stroke:#000000;stroke-linecap:butt;stroke-width:0.5;" x="479.614709834" xlink:href="#m146883a18b" y="337.371242413"/>
      </g>
     </g>
    </g>
    <g id="xtick_20">
     <g id="line2d_21">
      <defs>
       <path d="
M0 0
L0 -2" id="m146883a18b"/>
      </defs>
      <g>
       <use style="stroke:#000000;stroke-linecap:butt;stroke-width:0.5;" x="504.480892228" xlink:href="#m146883a18b" y="337.371242413"/>
      </g>
     </g>
    </g>
   </g>
   <g id="matplotlib.axis_2">
    <g id="ytick_1">
     <g id="line2d_22">
      <defs>
       <path d="
M0 0
L4 0" id="mc32363b4b3"/>
      </defs>
      <g>
       <use style="stroke:#000000;stroke-linecap:butt;stroke-width:0.5;" x="29.2984375" xlink:href="#mc32363b4b3" y="406.884732446"/>
      </g>
     </g>
     <g id="text_5">
      <!-- -0.1 -->
      <defs>
       <path d="
M10.6875 12.4062
L21 12.4062
L21 0
L10.6875 0
z
" id="BitstreamVeraSans-Roman-2e"/>
       <path d="
M4.89062 31.3906
L31.2031 31.3906
L31.2031 23.3906
L4.89062 23.3906
z
" id="BitstreamVeraSans-Roman-2d"/>
      </defs>
      <g transform="translate(7.2 410.524576196)scale(0.1 -0.1)">
       <use xlink:href="#BitstreamVeraSans-Roman-2d"/>
       <use x="36.083984375" xlink:href="#BitstreamVeraSans-Roman-30"/>
       <use x="99.70703125" xlink:href="#BitstreamVeraSans-Roman-2e"/>
       <use x="131.494140625" xlink:href="#BitstreamVeraSans-Roman-31"/>
      </g>
     </g>
    </g>
    <g id="ytick_2">
     <g id="line2d_23">
      <defs>
       <path d="
M0 0
L4 0" id="mc32363b4b3"/>
      </defs>
      <g>
       <use style="stroke:#000000;stroke-linecap:butt;stroke-width:0.5;" x="29.2984375" xlink:href="#mc32363b4b3" y="337.371242413"/>
      </g>
     </g>
     <g id="text_6">
      <!-- 0 -->
      <g transform="translate(20.259375 341.011086163)scale(0.1 -0.1)">
       <use xlink:href="#BitstreamVeraSans-Roman-30"/>
      </g>
     </g>
    </g>
    <g id="ytick_3">
     <g id="line2d_24">
      <defs>
       <path d="
M0 0
L4 0" id="mc32363b4b3"/>
      </defs>
      <g>
       <use style="stroke:#000000;stroke-linecap:butt;stroke-width:0.5;" x="29.2984375" xlink:href="#mc32363b4b3" y="267.85775238"/>
      </g>
     </g>
     <g id="text_7">
      <!-- 0.1 -->
      <g transform="translate(10.978125 271.49759613)scale(0.1 -0.1)">
       <use xlink:href="#BitstreamVeraSans-Roman-30"/>
       <use x="63.623046875" xlink:href="#BitstreamVeraSans-Roman-2e"/>
       <use x="95.41015625" xlink:href="#BitstreamVeraSans-Roman-31"/>
      </g>
     </g>
    </g>
    <g id="ytick_4">
     <g id="line2d_25">
      <defs>
       <path d="
M0 0
L4 0" id="mc32363b4b3"/>
      </defs>
      <g>
       <use style="stroke:#000000;stroke-linecap:butt;stroke-width:0.5;" x="29.2984375" xlink:href="#mc32363b4b3" y="198.344262347"/>
      </g>
     </g>
     <g id="text_8">
      <!-- 0.2 -->
      <g transform="translate(11.05625 201.984106097)scale(0.1 -0.1)">
       <use xlink:href="#BitstreamVeraSans-Roman-30"/>
       <use x="63.623046875" xlink:href="#BitstreamVeraSans-Roman-2e"/>
       <use x="95.41015625" xlink:href="#BitstreamVeraSans-Roman-32"/>
      </g>
     </g>
    </g>
    <g id="ytick_5">
     <g id="line2d_26">
      <defs>
       <path d="
M0 0
L4 0" id="mc32363b4b3"/>
      </defs>
      <g>
       <use style="stroke:#000000;stroke-linecap:butt;stroke-width:0.5;" x="29.2984375" xlink:href="#mc32363b4b3" y="128.830772315"/>
      </g>
     </g>
     <g id="text_9">
      <!-- 0.3 -->
      <defs>
       <path d="
M40.5781 39.3125
Q47.6562 37.7969 51.625 33
Q55.6094 28.2188 55.6094 21.1875
Q55.6094 10.4062 48.1875 4.48438
Q40.7656 -1.42188 27.0938 -1.42188
Q22.5156 -1.42188 17.6562 -0.515625
Q12.7969 0.390625 7.625 2.20312
L7.625 11.7188
Q11.7188 9.32812 16.5938 8.10938
Q21.4844 6.89062 26.8125 6.89062
Q36.0781 6.89062 40.9375 10.5469
Q45.7969 14.2031 45.7969 21.1875
Q45.7969 27.6406 41.2812 31.2656
Q36.7656 34.9062 28.7188 34.9062
L20.2188 34.9062
L20.2188 43.0156
L29.1094 43.0156
Q36.375 43.0156 40.2344 45.9219
Q44.0938 48.8281 44.0938 54.2969
Q44.0938 59.9062 40.1094 62.9062
Q36.1406 65.9219 28.7188 65.9219
Q24.6562 65.9219 20.0156 65.0312
Q15.375 64.1562 9.8125 62.3125
L9.8125 71.0938
Q15.4375 72.6562 20.3438 73.4375
Q25.25 74.2188 29.5938 74.2188
Q40.8281 74.2188 47.3594 69.1094
Q53.9062 64.0156 53.9062 55.3281
Q53.9062 49.2656 50.4375 45.0938
Q46.9688 40.9219 40.5781 39.3125" id="BitstreamVeraSans-Roman-33"/>
      </defs>
      <g transform="translate(10.85625 132.470616065)scale(0.1 -0.1)">
       <use xlink:href="#BitstreamVeraSans-Roman-30"/>
       <use x="63.623046875" xlink:href="#BitstreamVeraSans-Roman-2e"/>
       <use x="95.41015625" xlink:href="#BitstreamVeraSans-Roman-33"/>
      </g>
     </g>
    </g>
    <g id="ytick_6">
     <g id="line2d_27">
      <defs>
       <path d="
M0 0
L4 0" id="mc32363b4b3"/>
      </defs>
      <g>
       <use style="stroke:#000000;stroke-linecap:butt;stroke-width:0.5;" x="29.2984375" xlink:href="#mc32363b4b3" y="59.3172822816"/>
      </g>
     </g>
     <g id="text_10">
      <!-- 0.4 -->
      <defs>
       <path d="
M37.7969 64.3125
L12.8906 25.3906
L37.7969 25.3906
z

M35.2031 72.9062
L47.6094 72.9062
L47.6094 25.3906
L58.0156 25.3906
L58.0156 17.1875
L47.6094 17.1875
L47.6094 0
L37.7969 0
L37.7969 17.1875
L4.89062 17.1875
L4.89062 26.7031
z
" id="BitstreamVeraSans-Roman-34"/>
      </defs>
      <g transform="translate(10.615625 62.9571260316)scale(0.1 -0.1)">
       <use xlink:href="#BitstreamVeraSans-Roman-30"/>
       <use x="63.623046875" xlink:href="#BitstreamVeraSans-Roman-2e"/>
       <use x="95.41015625" xlink:href="#BitstreamVeraSans-Roman-34"/>
      </g>
     </g>
    </g>
    <g id="ytick_7">
     <g id="line2d_28">
      <defs>
       <path d="
M0 0
L2 0" id="mc3ca7363f3"/>
      </defs>
      <g>
       <use style="stroke:#000000;stroke-linecap:butt;stroke-width:0.5;" x="29.2984375" xlink:href="#mc3ca7363f3" y="392.98203444"/>
      </g>
     </g>
    </g>
    <g id="ytick_8">
     <g id="line2d_29">
      <defs>
       <path d="
M0 0
L2 0" id="mc3ca7363f3"/>
      </defs>
      <g>
       <use style="stroke:#000000;stroke-linecap:butt;stroke-width:0.5;" x="29.2984375" xlink:href="#mc3ca7363f3" y="379.079336433"/>
      </g>
     </g>
    </g>
    <g id="ytick_9">
     <g id="line2d_30">
      <defs>
       <path d="
M0 0
L2 0" id="mc3ca7363f3"/>
      </defs>
      <g>
       <use style="stroke:#000000;stroke-linecap:butt;stroke-width:0.5;" x="29.2984375" xlink:href="#mc3ca7363f3" y="365.176638427"/>
      </g>
     </g>
    </g>
    <g id="ytick_10">
     <g id="line2d_31">
      <defs>
       <path d="
M0 0
L2 0" id="mc3ca7363f3"/>
      </defs>
      <g>
       <use style="stroke:#000000;stroke-linecap:butt;stroke-width:0.5;" x="29.2984375" xlink:href="#mc3ca7363f3" y="351.27394042"/>
      </g>
     </g>
    </g>
    <g id="ytick_11">
     <g id="line2d_32">
      <defs>
       <path d="
M0 0
L2 0" id="mc3ca7363f3"/>
      </defs>
      <g>
       <use style="stroke:#000000;stroke-linecap:butt;stroke-width:0.5;" x="29.2984375" xlink:href="#mc3ca7363f3" y="323.468544407"/>
      </g>
     </g>
    </g>
    <g id="ytick_12">
     <g id="line2d_33">
      <defs>
       <path d="
M0 0
L2 0" id="mc3ca7363f3"/>
      </defs>
      <g>
       <use style="stroke:#000000;stroke-linecap:butt;stroke-width:0.5;" x="29.2984375" xlink:href="#mc3ca7363f3" y="309.5658464"/>
      </g>
     </g>
    </g>
    <g id="ytick_13">
     <g id="line2d_34">
      <defs>
       <path d="
M0 0
L2 0" id="mc3ca7363f3"/>
      </defs>
      <g>
       <use style="stroke:#000000;stroke-linecap:butt;stroke-width:0.5;" x="29.2984375" xlink:href="#mc3ca7363f3" y="295.663148394"/>
      </g>
     </g>
    </g>
    <g id="ytick_14">
     <g id="line2d_35">
      <defs>
       <path d="
M0 0
L2 0" id="mc3ca7363f3"/>
      </defs>
      <g>
       <use style="stroke:#000000;stroke-linecap:butt;stroke-width:0.5;" x="29.2984375" xlink:href="#mc3ca7363f3" y="281.760450387"/>
      </g>
     </g>
    </g>
    <g id="ytick_15">
     <g id="line2d_36">
      <defs>
       <path d="
M0 0
L2 0" id="mc3ca7363f3"/>
      </defs>
      <g>
       <use style="stroke:#000000;stroke-linecap:butt;stroke-width:0.5;" x="29.2984375" xlink:href="#mc3ca7363f3" y="253.955054374"/>
      </g>
     </g>
    </g>
    <g id="ytick_16">
     <g id="line2d_37">
      <defs>
       <path d="
M0 0
L2 0" id="mc3ca7363f3"/>
      </defs>
      <g>
       <use style="stroke:#000000;stroke-linecap:butt;stroke-width:0.5;" x="29.2984375" xlink:href="#mc3ca7363f3" y="240.052356367"/>
      </g>
     </g>
    </g>
    <g id="ytick_17">
     <g id="line2d_38">
      <defs>
       <path d="
M0 0
L2 0" id="mc3ca7363f3"/>
      </defs>
      <g>
       <use style="stroke:#000000;stroke-linecap:butt;stroke-width:0.5;" x="29.2984375" xlink:href="#mc3ca7363f3" y="226.149658361"/>
      </g>
     </g>
    </g>
    <g id="ytick_18">
     <g id="line2d_39">
      <defs>
       <path d="
M0 0
L2 0" id="mc3ca7363f3"/>
      </defs>
      <g>
       <use style="stroke:#000000;stroke-linecap:butt;stroke-width:0.5;" x="29.2984375" xlink:href="#mc3ca7363f3" y="212.246960354"/>
      </g>
     </g>
    </g>
    <g id="ytick_19">
     <g id="line2d_40">
      <defs>
       <path d="
M0 0
L2 0" id="mc3ca7363f3"/>
      </defs>
      <g>
       <use style="stroke:#000000;stroke-linecap:butt;stroke-width:0.5;" x="29.2984375" xlink:href="#mc3ca7363f3" y="184.441564341"/>
      </g>
     </g>
    </g>
    <g id="ytick_20">
     <g id="line2d_41">
      <defs>
       <path d="
M0 0
L2 0" id="mc3ca7363f3"/>
      </defs>
      <g>
       <use style="stroke:#000000;stroke-linecap:butt;stroke-width:0.5;" x="29.2984375" xlink:href="#mc3ca7363f3" y="170.538866334"/>
      </g>
     </g>
    </g>
    <g id="ytick_21">
     <g id="line2d_42">
      <defs>
       <path d="
M0 0
L2 0" id="mc3ca7363f3"/>
      </defs>
      <g>
       <use style="stroke:#000000;stroke-linecap:butt;stroke-width:0.5;" x="29.2984375" xlink:href="#mc3ca7363f3" y="156.636168328"/>
      </g>
     </g>
    </g>
    <g id="ytick_22">
     <g id="line2d_43">
      <defs>
       <path d="
M0 0
L2 0" id="mc3ca7363f3"/>
      </defs>
      <g>
       <use style="stroke:#000000;stroke-linecap:butt;stroke-width:0.5;" x="29.2984375" xlink:href="#mc3ca7363f3" y="142.733470321"/>
      </g>
     </g>
    </g>
    <g id="ytick_23">
     <g id="line2d_44">
      <defs>
       <path d="
M0 0
L2 0" id="mc3ca7363f3"/>
      </defs>
      <g>
       <use style="stroke:#000000;stroke-linecap:butt;stroke-width:0.5;" x="29.2984375" xlink:href="#mc3ca7363f3" y="114.928074308"/>
      </g>
     </g>
    </g>
    <g id="ytick_24">
     <g id="line2d_45">
      <defs>
       <path d="
M0 0
L2 0" id="mc3ca7363f3"/>
      </defs>
      <g>
       <use style="stroke:#000000;stroke-linecap:butt;stroke-width:0.5;" x="29.2984375" xlink:href="#mc3ca7363f3" y="101.025376301"/>
      </g>
     </g>
    </g>
    <g id="ytick_25">
     <g id="line2d_46">
      <defs>
       <path d="
M0 0
L2 0" id="mc3ca7363f3"/>
      </defs>
      <g>
       <use style="stroke:#000000;stroke-linecap:butt;stroke-width:0.5;" x="29.2984375" xlink:href="#mc3ca7363f3" y="87.1226782948"/>
      </g>
     </g>
    </g>
    <g id="ytick_26">
     <g id="line2d_47">
      <defs>
       <path d="
M0 0
L2 0" id="mc3ca7363f3"/>
      </defs>
      <g>
       <use style="stroke:#000000;stroke-linecap:butt;stroke-width:0.5;" x="29.2984375" xlink:href="#mc3ca7363f3" y="73.2199802882"/>
      </g>
     </g>
    </g>
    <g id="ytick_27">
     <g id="line2d_48">
      <defs>
       <path d="
M0 0
L2 0" id="mc3ca7363f3"/>
      </defs>
      <g>
       <use style="stroke:#000000;stroke-linecap:butt;stroke-width:0.5;" x="29.2984375" xlink:href="#mc3ca7363f3" y="45.414584275"/>
      </g>
     </g>
    </g>
    <g id="ytick_28">
     <g id="line2d_49">
      <defs>
       <path d="
M0 0
L2 0" id="mc3ca7363f3"/>
      </defs>
      <g>
       <use style="stroke:#000000;stroke-linecap:butt;stroke-width:0.5;" x="29.2984375" xlink:href="#mc3ca7363f3" y="31.5118862684"/>
      </g>
     </g>
    </g>
    <g id="ytick_29">
     <g id="line2d_50">
      <defs>
       <path d="
M0 0
L2 0" id="mc3ca7363f3"/>
      </defs>
      <g>
       <use style="stroke:#000000;stroke-linecap:butt;stroke-width:0.5;" x="29.2984375" xlink:href="#mc3ca7363f3" y="17.6091882618"/>
      </g>
     </g>
    </g>
   </g>
   <g id="patch_3">
    <path d="
M39.2984 337.371
L557.266 337.371" style="fill:none;stroke:#000000;stroke-width:0.8;"/>
   </g>
   <g id="patch_4">
    <path d="
M29.2984 413.28
L29.2984 7.2" style="fill:none;stroke:#000000;stroke-width:0.8;"/>
   </g>
  </g>
 </g>
 <defs>
  <clipPath id="pbda54c63f9">
   <rect height="406.08" width="517.9675" x="39.2984375" y="7.2"/>
  </clipPath>
 </defs>
</svg>
