<?xml version="1.0" encoding="utf-8" standalone="no"?>
<!DOCTYPE svg PUBLIC "-//W3C//DTD SVG 1.1//EN"
  "http://www.w3.org/Graphics/SVG/1.1/DTD/svg11.dtd">
<!-- Created with matplotlib (http://matplotlib.sourceforge.net/) -->
<svg height="420pt" version="1.1" viewBox="0 0 564 420" width="564pt" xmlns="http://www.w3.org/2000/svg" xmlns:xlink="http://www.w3.org/1999/xlink">
 <defs>
  <style type="text/css">
*{stroke-linecap:square;stroke-linejoin:round;}
  </style>
 </defs>
 <g id="figure_1">
  <g id="patch_1">
   <path d="
M-2.22045e-16 420.48
L564.388 420.48
L564.388 0
L-2.22045e-16 0
z
" style="fill:#ffffff;"/>
  </g>
  <g id="axes_1">
   <g id="patch_2">
    <path d="
M39.2203 413.28
L557.188 413.28
L557.188 7.2
L39.2203 7.2
z
" style="fill:#ffffff;"/>
   </g>
   <g id="line2d_1">
    <path clip-path="url(#p8d06c6b202)" d="
M49.1812 79.8899
L50.1088 57.3676
L50.8302 45.4338
L52.067 29.9789
L52.3761 28.2356
L52.6853 26.8809
L53.1491 24.4496
L53.6129 23.0828
L53.819 22.6942
L54.0767 21.5779
L55.3134 15.3707
L55.5195 15.072
L55.8802 15.0276
L56.0864 15.1362
L56.6532 15.7633
L57.0139 16.8297
L57.22 17.3638
L57.5292 18.668
L57.8899 21.5264
L59.4874 35.3382
L60.2088 36.3467
L60.9303 37.5276
L61.394 39.817
L61.8578 42.4996
L63.0946 52.0474
L63.7129 56.4072
L64.8466 62.6973
L65.7742 69.7524
L66.5471 79.3164
L67.7839 96.3816
L69.742 130.076
L70.7211 150.454
L72.6278 188.774
L73.813 207.753
L74.7921 223.321
L76.441 246.606
L76.9048 252.669
L77.8324 264.564
L78.4507 271.433
L79.3268 278.506
L82.2125 298.877
L82.7793 302.715
L83.4492 306.04
L84.0676 309.331
L84.8406 314.14
L86.7472 325.195
L87.211 327.698
L87.7263 329.225
L88.3447 330.807
L89.4784 335.235
L90.2513 338.147
L91.1789 339.842
L91.4881 340.456
L91.7457 341.464
L91.9003 341.351
L92.158 340.45
L92.6217 337.497
L93.2401 334.385
L93.5493 333.516
L93.9615 331.924
L94.3738 328.592
L95.0952 320.149
L96.2804 306.924
L96.8988 303.084
L98.084 299.206
L98.5478 298.846
L98.96 298.859
L99.1146 299.003
L99.4238 299.168
L99.733 299.453
L100.094 299.887
L100.403 300.123
L101.227 299.711
L101.537 299.805
L102.206 301.063
L102.825 303.107
L103.082 303.427
L103.392 303.692
L103.649 303.987
L104.422 305.494
L104.474 305.402
L104.577 305.46
L104.835 306.319
L105.298 308.911
L106.38 313.866
L106.793 315.138
L107.772 316.814
L108.029 316.888
L109.06 315.809
L109.524 315.077
L109.885 314.802
L110.142 314.644
L110.761 314.69
L111.791 315.162
L112.307 314.952
L112.667 314.333
L113.543 311.938
L114.832 305.928
L115.604 302.427
L115.862 302.266
L116.944 300.223
L117.511 299.336
L117.82 298.129
L118.13 297.381
L118.954 296.277
L119.263 296.171
L119.882 296.262
L121.324 294.849
L121.943 294.848
L122.149 295.009
L122.613 295.888
L123.592 298.588
L124.159 301.361
L124.468 303.916
L125.55 312.033
L126.065 314.829
L126.374 315.623
L127.147 316.604
L127.663 318.08
L127.972 319.021
L128.23 319.331
L128.384 319.249
L128.539 318.907
L128.796 318.009
L130.136 315.237
L130.703 313.215
L131.321 311.154
L131.991 309.551
L132.764 307.861
L133.228 306.428
L135.186 299.272
L137.402 292.351
L137.866 290.738
L139.051 286.286
L139.824 284.116
L140.648 281.471
L141.37 279.219
L142.143 276.15
L143.637 268.7
L144.307 265.72
L148.945 241.829
L150.388 234.192
L151.315 230.608
L153.067 225.755
L153.995 224.38
L154.459 224.027
L154.819 224.06
L155.541 224.387
L156.881 225.429
L158.272 226.046
L159.045 226.867
L159.457 227.575
L160.849 230.363
L161.312 230.566
L162.291 230.958
L162.652 231.297
L163.116 232.125
L165.023 236.559
L166.311 240.618
L168.114 245.763
L169.403 250.728
L170.382 254.991
L171.979 263.365
L173.783 274.456
L176.565 293.181
L178.627 308.605
L181.152 328.978
L183.264 347.814
L185.223 367.117
L186.717 384.043
L187.748 398.092
L188.16 405.471
L188.211 405.353
L188.727 395.682
L189.757 380.755
L191.149 363.952
L192.746 347.307
L194.704 329.349
L196.611 313.888
L198.518 300.273
L200.63 286.687
L202.382 276.962
L204.289 267.507
L205.423 262.802
L206.711 258.373
L208.051 254.727
L208.772 253.263
L212.482 246.963
L213.255 246.187
L213.771 245.798
L214.183 245.761
L215.677 245.918
L217.584 244.438
L218.254 244.382
L218.821 244.456
L219.388 244.621
L220.161 244.68
L221.552 244.801
L222.016 245.041
L222.634 245.816
L223.304 246.768
L223.974 248.061
L225.571 251.97
L226.55 255.14
L229.333 264.801
L230.106 267.28
L231.858 272.667
L232.683 274.932
L233.146 276.224
L234.28 279.419
L234.95 280.864
L235.826 282.341
L238.351 286.643
L238.969 287.764
L241.546 291.642
L242.113 292.539
L242.783 293.528
L243.195 294.315
L243.762 294.996
L244.638 295.734
L245.462 296.655
L246.544 298.022
L247.833 299.066
L248.09 299.185
L248.348 299.025
L248.657 298.594
L249.069 297.932
L249.533 297.449
L250.048 297.084
L250.306 296.708
L250.821 295.402
L252.573 289.857
L253.192 288.838
L254.429 287.787
L255.099 287.744
L255.82 287.906
L256.851 288.175
L257.366 288.108
L258.036 288.356
L258.603 288.808
L258.86 289.157
L259.273 289.353
L259.685 289.502
L260.149 289.774
L261.179 290.578
L262.828 293.226
L263.447 293.737
L264.219 294.093
L264.786 293.969
L266.178 293.563
L266.693 293.587
L267.311 293.745
L268.033 293.872
L268.703 293.8
L269.115 293.511
L269.785 292.919
L271.073 290.937
L271.846 289.768
L272.207 289.641
L272.877 289.162
L273.856 288.67
L274.732 287.873
L275.041 287.762
L276.484 287.62
L277.514 287.309
L278.339 287.364
L279.009 287.85
L279.524 288.326
L280.194 289.397
L280.555 290.26
L281.637 293.428
L282.255 294.878
L282.616 295.285
L283.492 295.833
L284.523 296.849
L284.78 296.709
L285.038 296.39
L286.429 295.377
L288.439 293.198
L289.47 292.205
L291.788 288.979
L294.417 285.594
L295.19 284.447
L297.869 281.046
L298.539 279.812
L300.033 276.767
L300.858 275.073
L303.538 269.255
L304.414 267.46
L304.98 265.864
L306.99 261.242
L307.763 260.034
L309.721 257.703
L310.803 257.052
L311.216 257.046
L312.246 257.238
L313.534 257.409
L314.874 257.645
L315.75 258.136
L317.142 259.212
L318.945 259.474
L319.976 260.273
L321.367 261.789
L322.759 263.63
L323.738 264.861
L324.768 266.34
L326.263 269.073
L327.396 271.627
L328.633 274.873
L330.9 281.606
L332.601 287.185
L334.971 295.796
L337.239 304.816
L339.403 314.415
L341.258 323.569
L342.804 332.333
L343.886 339.676
L344.401 344.258
L344.453 344.145
L344.968 339.413
L345.999 332.101
L347.39 323.837
L349.039 315.35
L351.1 305.966
L353.11 297.85
L355.378 289.747
L357.336 283.489
L359.088 278.562
L360.891 274.02
L362.334 271.05
L363.416 269.295
L364.962 267.256
L369.033 263.464
L370.064 262.974
L370.94 262.963
L371.919 262.954
L373.98 262.023
L374.599 261.999
L376.917 262.023
L377.536 262.025
L378.257 262.164
L378.979 262.65
L380.215 263.735
L381.864 265.909
L382.74 267.448
L384.389 270.865
L384.75 271.593
L387.533 276.23
L388.873 278.394
L389.594 279.535
L390.831 281.38
L391.913 282.495
L392.892 283.44
L394.953 285.483
L395.675 286.079
L396.86 287.085
L400.312 290.045
L401.807 290.97
L402.786 291.69
L404.538 292.329
L404.95 291.989
L405.723 291.418
L406.342 291.171
L406.702 290.797
L407.218 289.92
L408.918 286.888
L409.536 286.352
L410.309 285.919
L410.825 285.789
L412.061 285.887
L413.247 286.021
L413.865 286.032
L414.483 286.235
L414.844 286.437
L415.153 286.67
L415.875 286.844
L416.493 287.065
L417.627 287.739
L418.039 288.16
L419.327 289.228
L420.306 289.606
L420.873 289.59
L422.677 289.33
L424.841 289.518
L425.305 289.353
L426.129 288.9
L427.263 287.847
L428.139 287.094
L428.397 287.048
L429.221 286.713
L429.943 286.527
L430.355 286.212
L430.716 286.067
L431.54 285.873
L433.55 285.653
L434.271 285.627
L434.89 285.79
L435.766 286.264
L436.539 287.048
L436.899 287.677
L437.827 289.327
L438.548 290.366
L438.961 290.602
L439.94 291.062
L440.764 291.553
L441.022 291.467
L441.279 291.275
L442.774 290.588
L444.32 289.501
L445.814 288.625
L446.793 287.786
L448.391 286.431
L449.112 285.865
L450.246 285.044
L452.152 283.409
L454.265 281.611
L454.935 280.776
L457.151 277.905
L459.779 274.268
L460.655 273.113
L461.273 272.012
L463.335 268.996
L464.365 268.018
L465.396 267.098
L466.323 266.6
L467.045 266.366
L467.663 266.358
L468.797 266.5
L469.673 266.541
L470.807 266.606
L471.786 266.858
L473.589 267.643
L475.341 267.831
L476.733 268.575
L477.712 269.32
L479.155 270.512
L480.907 272.024
L482.607 274.042
L483.947 276.061
L485.235 278.346
L486.987 281.776
L488.842 285.757
L491.213 291.447
L493.48 297.435
L495.593 303.676
L497.448 309.779
L498.994 315.627
L500.128 320.773
L500.643 323.858
L500.695 323.74
L501.261 320.343
L502.292 315.555
L503.735 309.921
L505.435 304.165
L507.445 298.114
L509.506 292.593
L512.031 286.604
L513.99 282.51
L516.205 278.442
L517.803 275.918
L519.349 273.991
L521.049 272.378
L523.214 270.903
L524.708 269.916
L526.202 269.319
L527.027 269.277
L528.315 269.207
L530.067 268.623
L531.098 268.573
L534.602 268.674
L535.323 269.019
L536.354 269.622
L537.694 270.776
L538.621 271.768
L539.549 273.02
L541.662 275.791
L542.692 277.032
L544.702 279.383
L547.227 281.997
L547.227 281.997" style="fill:none;stroke:#0000ff;"/>
   </g>
   <g id="matplotlib.axis_1">
    <g id="xtick_1">
     <g id="line2d_2">
      <defs>
       <path d="
M0 0
L0 -4" id="mee2858cecf"/>
      </defs>
      <g>
       <use style="stroke:#000000;stroke-linecap:butt;stroke-width:0.5;" x="156.276213713" xlink:href="#mee2858cecf" y="282.991250486"/>
      </g>
     </g>
     <g id="text_1">
      <!-- 5 -->
      <defs>
       <path d="
M10.7969 72.9062
L49.5156 72.9062
L49.5156 64.5938
L19.8281 64.5938
L19.8281 46.7344
Q21.9688 47.4688 24.1094 47.8281
Q26.2656 48.1875 28.4219 48.1875
Q40.625 48.1875 47.75 41.5
Q54.8906 34.8125 54.8906 23.3906
Q54.8906 11.625 47.5625 5.09375
Q40.2344 -1.42188 26.9062 -1.42188
Q22.3125 -1.42188 17.5469 -0.640625
Q12.7969 0.140625 7.71875 1.70312
L7.71875 11.625
Q12.1094 9.23438 16.7969 8.0625
Q21.4844 6.89062 26.7031 6.89062
Q35.1562 6.89062 40.0781 11.3281
Q45.0156 15.7656 45.0156 23.3906
Q45.0156 31 40.0781 35.4375
Q35.1562 39.8906 26.7031 39.8906
Q22.75 39.8906 18.8125 39.0156
Q14.8906 38.1406 10.7969 36.2812
z
" id="BitstreamVeraSans-Roman-35"/>
      </defs>
      <g transform="translate(153.917619963 294.281875486)scale(0.1 -0.1)">
       <use xlink:href="#BitstreamVeraSans-Roman-35"/>
      </g>
     </g>
    </g>
    <g id="xtick_2">
     <g id="line2d_3">
      <defs>
       <path d="
M0 0
L0 -4" id="mee2858cecf"/>
      </defs>
      <g>
       <use style="stroke:#000000;stroke-linecap:butt;stroke-width:0.5;" x="280.607125683" xlink:href="#mee2858cecf" y="282.991250486"/>
      </g>
     </g>
     <g id="text_2">
      <!-- 10 -->
      <defs>
       <path d="
M31.7812 66.4062
Q24.1719 66.4062 20.3281 58.9062
Q16.5 51.4219 16.5 36.375
Q16.5 21.3906 20.3281 13.8906
Q24.1719 6.39062 31.7812 6.39062
Q39.4531 6.39062 43.2812 13.8906
Q47.125 21.3906 47.125 36.375
Q47.125 51.4219 43.2812 58.9062
Q39.4531 66.4062 31.7812 66.4062
M31.7812 74.2188
Q44.0469 74.2188 50.5156 64.5156
Q56.9844 54.8281 56.9844 36.375
Q56.9844 17.9688 50.5156 8.26562
Q44.0469 -1.42188 31.7812 -1.42188
Q19.5312 -1.42188 13.0625 8.26562
Q6.59375 17.9688 6.59375 36.375
Q6.59375 54.8281 13.0625 64.5156
Q19.5312 74.2188 31.7812 74.2188" id="BitstreamVeraSans-Roman-30"/>
       <path d="
M12.4062 8.29688
L28.5156 8.29688
L28.5156 63.9219
L10.9844 60.4062
L10.9844 69.3906
L28.4219 72.9062
L38.2812 72.9062
L38.2812 8.29688
L54.3906 8.29688
L54.3906 0
L12.4062 0
z
" id="BitstreamVeraSans-Roman-31"/>
      </defs>
      <g transform="translate(275.125875683 294.413125486)scale(0.1 -0.1)">
       <use xlink:href="#BitstreamVeraSans-Roman-31"/>
       <use x="63.623046875" xlink:href="#BitstreamVeraSans-Roman-30"/>
      </g>
     </g>
    </g>
    <g id="xtick_3">
     <g id="line2d_4">
      <defs>
       <path d="
M0 0
L0 -4" id="mee2858cecf"/>
      </defs>
      <g>
       <use style="stroke:#000000;stroke-linecap:butt;stroke-width:0.5;" x="404.938037652" xlink:href="#mee2858cecf" y="282.991250486"/>
      </g>
     </g>
     <g id="text_3">
      <!-- 15 -->
      <g transform="translate(399.561475152 294.281875486)scale(0.1 -0.1)">
       <use xlink:href="#BitstreamVeraSans-Roman-31"/>
       <use x="63.623046875" xlink:href="#BitstreamVeraSans-Roman-35"/>
      </g>
     </g>
    </g>
    <g id="xtick_4">
     <g id="line2d_5">
      <defs>
       <path d="
M0 0
L0 -4" id="mee2858cecf"/>
      </defs>
      <g>
       <use style="stroke:#000000;stroke-linecap:butt;stroke-width:0.5;" x="529.268949621" xlink:href="#mee2858cecf" y="282.991250486"/>
      </g>
     </g>
     <g id="text_4">
      <!-- 20 -->
      <defs>
       <path d="
M19.1875 8.29688
L53.6094 8.29688
L53.6094 0
L7.32812 0
L7.32812 8.29688
Q12.9375 14.1094 22.625 23.8906
Q32.3281 33.6875 34.8125 36.5312
Q39.5469 41.8438 41.4219 45.5312
Q43.3125 49.2188 43.3125 52.7812
Q43.3125 58.5938 39.2344 62.25
Q35.1562 65.9219 28.6094 65.9219
Q23.9688 65.9219 18.8125 64.3125
Q13.6719 62.7031 7.8125 59.4219
L7.8125 69.3906
Q13.7656 71.7812 18.9375 73
Q24.125 74.2188 28.4219 74.2188
Q39.75 74.2188 46.4844 68.5469
Q53.2188 62.8906 53.2188 53.4219
Q53.2188 48.9219 51.5312 44.8906
Q49.8594 40.875 45.4062 35.4062
Q44.1875 33.9844 37.6406 27.2188
Q31.1094 20.4531 19.1875 8.29688" id="BitstreamVeraSans-Roman-32"/>
      </defs>
      <g transform="translate(523.604887121 294.413125486)scale(0.1 -0.1)">
       <use xlink:href="#BitstreamVeraSans-Roman-32"/>
       <use x="63.623046875" xlink:href="#BitstreamVeraSans-Roman-30"/>
      </g>
     </g>
    </g>
    <g id="xtick_5">
     <g id="line2d_6">
      <defs>
       <path d="
M0 0
L0 -2" id="m726917a4f2"/>
      </defs>
      <g>
       <use style="stroke:#000000;stroke-linecap:butt;stroke-width:0.5;" x="56.8114841378" xlink:href="#m726917a4f2" y="282.991250486"/>
      </g>
     </g>
    </g>
    <g id="xtick_6">
     <g id="line2d_7">
      <defs>
       <path d="
M0 0
L0 -2" id="m726917a4f2"/>
      </defs>
      <g>
       <use style="stroke:#000000;stroke-linecap:butt;stroke-width:0.5;" x="81.6776665317" xlink:href="#m726917a4f2" y="282.991250486"/>
      </g>
     </g>
    </g>
    <g id="xtick_7">
     <g id="line2d_8">
      <defs>
       <path d="
M0 0
L0 -2" id="m726917a4f2"/>
      </defs>
      <g>
       <use style="stroke:#000000;stroke-linecap:butt;stroke-width:0.5;" x="106.543848926" xlink:href="#m726917a4f2" y="282.991250486"/>
      </g>
     </g>
    </g>
    <g id="xtick_8">
     <g id="line2d_9">
      <defs>
       <path d="
M0 0
L0 -2" id="m726917a4f2"/>
      </defs>
      <g>
       <use style="stroke:#000000;stroke-linecap:butt;stroke-width:0.5;" x="131.410031319" xlink:href="#m726917a4f2" y="282.991250486"/>
      </g>
     </g>
    </g>
    <g id="xtick_9">
     <g id="line2d_10">
      <defs>
       <path d="
M0 0
L0 -2" id="m726917a4f2"/>
      </defs>
      <g>
       <use style="stroke:#000000;stroke-linecap:butt;stroke-width:0.5;" x="181.142396107" xlink:href="#m726917a4f2" y="282.991250486"/>
      </g>
     </g>
    </g>
    <g id="xtick_10">
     <g id="line2d_11">
      <defs>
       <path d="
M0 0
L0 -2" id="m726917a4f2"/>
      </defs>
      <g>
       <use style="stroke:#000000;stroke-linecap:butt;stroke-width:0.5;" x="206.008578501" xlink:href="#m726917a4f2" y="282.991250486"/>
      </g>
     </g>
    </g>
    <g id="xtick_11">
     <g id="line2d_12">
      <defs>
       <path d="
M0 0
L0 -2" id="m726917a4f2"/>
      </defs>
      <g>
       <use style="stroke:#000000;stroke-linecap:butt;stroke-width:0.5;" x="230.874760895" xlink:href="#m726917a4f2" y="282.991250486"/>
      </g>
     </g>
    </g>
    <g id="xtick_12">
     <g id="line2d_13">
      <defs>
       <path d="
M0 0
L0 -2" id="m726917a4f2"/>
      </defs>
      <g>
       <use style="stroke:#000000;stroke-linecap:butt;stroke-width:0.5;" x="255.740943289" xlink:href="#m726917a4f2" y="282.991250486"/>
      </g>
     </g>
    </g>
    <g id="xtick_13">
     <g id="line2d_14">
      <defs>
       <path d="
M0 0
L0 -2" id="m726917a4f2"/>
      </defs>
      <g>
       <use style="stroke:#000000;stroke-linecap:butt;stroke-width:0.5;" x="305.473308077" xlink:href="#m726917a4f2" y="282.991250486"/>
      </g>
     </g>
    </g>
    <g id="xtick_14">
     <g id="line2d_15">
      <defs>
       <path d="
M0 0
L0 -2" id="m726917a4f2"/>
      </defs>
      <g>
       <use style="stroke:#000000;stroke-linecap:butt;stroke-width:0.5;" x="330.33949047" xlink:href="#m726917a4f2" y="282.991250486"/>
      </g>
     </g>
    </g>
    <g id="xtick_15">
     <g id="line2d_16">
      <defs>
       <path d="
M0 0
L0 -2" id="m726917a4f2"/>
      </defs>
      <g>
       <use style="stroke:#000000;stroke-linecap:butt;stroke-width:0.5;" x="355.205672864" xlink:href="#m726917a4f2" y="282.991250486"/>
      </g>
     </g>
    </g>
    <g id="xtick_16">
     <g id="line2d_17">
      <defs>
       <path d="
M0 0
L0 -2" id="m726917a4f2"/>
      </defs>
      <g>
       <use style="stroke:#000000;stroke-linecap:butt;stroke-width:0.5;" x="380.071855258" xlink:href="#m726917a4f2" y="282.991250486"/>
      </g>
     </g>
    </g>
    <g id="xtick_17">
     <g id="line2d_18">
      <defs>
       <path d="
M0 0
L0 -2" id="m726917a4f2"/>
      </defs>
      <g>
       <use style="stroke:#000000;stroke-linecap:butt;stroke-width:0.5;" x="429.804220046" xlink:href="#m726917a4f2" y="282.991250486"/>
      </g>
     </g>
    </g>
    <g id="xtick_18">
     <g id="line2d_19">
      <defs>
       <path d="
M0 0
L0 -2" id="m726917a4f2"/>
      </defs>
      <g>
       <use style="stroke:#000000;stroke-linecap:butt;stroke-width:0.5;" x="454.67040244" xlink:href="#m726917a4f2" y="282.991250486"/>
      </g>
     </g>
    </g>
    <g id="xtick_19">
     <g id="line2d_20">
      <defs>
       <path d="
M0 0
L0 -2" id="m726917a4f2"/>
      </defs>
      <g>
       <use style="stroke:#000000;stroke-linecap:butt;stroke-width:0.5;" x="479.536584834" xlink:href="#m726917a4f2" y="282.991250486"/>
      </g>
     </g>
    </g>
    <g id="xtick_20">
     <g id="line2d_21">
      <defs>
       <path d="
M0 0
L0 -2" id="m726917a4f2"/>
      </defs>
      <g>
       <use style="stroke:#000000;stroke-linecap:butt;stroke-width:0.5;" x="504.402767228" xlink:href="#m726917a4f2" y="282.991250486"/>
      </g>
     </g>
    </g>
   </g>
   <g id="matplotlib.axis_2">
    <g id="ytick_1">
     <g id="line2d_22">
      <defs>
       <path d="
M0 0
L4 0" id="mc1a80d7287"/>
      </defs>
      <g>
       <use style="stroke:#000000;stroke-linecap:butt;stroke-width:0.5;" x="29.2203125" xlink:href="#mc1a80d7287" y="371.426024207"/>
      </g>
     </g>
     <g id="text_5">
      <!-- -0.2 -->
      <defs>
       <path d="
M10.6875 12.4062
L21 12.4062
L21 0
L10.6875 0
z
" id="BitstreamVeraSans-Roman-2e"/>
       <path d="
M4.89062 31.3906
L31.2031 31.3906
L31.2031 23.3906
L4.89062 23.3906
z
" id="BitstreamVeraSans-Roman-2d"/>
      </defs>
      <g transform="translate(7.2 375.065867957)scale(0.1 -0.1)">
       <use xlink:href="#BitstreamVeraSans-Roman-2d"/>
       <use x="36.083984375" xlink:href="#BitstreamVeraSans-Roman-30"/>
       <use x="99.70703125" xlink:href="#BitstreamVeraSans-Roman-2e"/>
       <use x="131.494140625" xlink:href="#BitstreamVeraSans-Roman-32"/>
      </g>
     </g>
    </g>
    <g id="ytick_2">
     <g id="line2d_23">
      <defs>
       <path d="
M0 0
L4 0" id="mc1a80d7287"/>
      </defs>
      <g>
       <use style="stroke:#000000;stroke-linecap:butt;stroke-width:0.5;" x="29.2203125" xlink:href="#mc1a80d7287" y="282.991250486"/>
      </g>
     </g>
     <g id="text_6">
      <!-- 0 -->
      <g transform="translate(20.18125 286.631094236)scale(0.1 -0.1)">
       <use xlink:href="#BitstreamVeraSans-Roman-30"/>
      </g>
     </g>
    </g>
    <g id="ytick_3">
     <g id="line2d_24">
      <defs>
       <path d="
M0 0
L4 0" id="mc1a80d7287"/>
      </defs>
      <g>
       <use style="stroke:#000000;stroke-linecap:butt;stroke-width:0.5;" x="29.2203125" xlink:href="#mc1a80d7287" y="194.556476764"/>
      </g>
     </g>
     <g id="text_7">
      <!-- 0.2 -->
      <g transform="translate(10.978125 198.196320514)scale(0.1 -0.1)">
       <use xlink:href="#BitstreamVeraSans-Roman-30"/>
       <use x="63.623046875" xlink:href="#BitstreamVeraSans-Roman-2e"/>
       <use x="95.41015625" xlink:href="#BitstreamVeraSans-Roman-32"/>
      </g>
     </g>
    </g>
    <g id="ytick_4">
     <g id="line2d_25">
      <defs>
       <path d="
M0 0
L4 0" id="mc1a80d7287"/>
      </defs>
      <g>
       <use style="stroke:#000000;stroke-linecap:butt;stroke-width:0.5;" x="29.2203125" xlink:href="#mc1a80d7287" y="106.121703043"/>
      </g>
     </g>
     <g id="text_8">
      <!-- 0.4 -->
      <defs>
       <path d="
M37.7969 64.3125
L12.8906 25.3906
L37.7969 25.3906
z

M35.2031 72.9062
L47.6094 72.9062
L47.6094 25.3906
L58.0156 25.3906
L58.0156 17.1875
L47.6094 17.1875
L47.6094 0
L37.7969 0
L37.7969 17.1875
L4.89062 17.1875
L4.89062 26.7031
z
" id="BitstreamVeraSans-Roman-34"/>
      </defs>
      <g transform="translate(10.5375 109.761546793)scale(0.1 -0.1)">
       <use xlink:href="#BitstreamVeraSans-Roman-30"/>
       <use x="63.623046875" xlink:href="#BitstreamVeraSans-Roman-2e"/>
       <use x="95.41015625" xlink:href="#BitstreamVeraSans-Roman-34"/>
      </g>
     </g>
    </g>
    <g id="ytick_5">
     <g id="line2d_26">
      <defs>
       <path d="
M0 0
L4 0" id="mc1a80d7287"/>
      </defs>
      <g>
       <use style="stroke:#000000;stroke-linecap:butt;stroke-width:0.5;" x="29.2203125" xlink:href="#mc1a80d7287" y="17.6869293214"/>
      </g>
     </g>
     <g id="text_9">
      <!-- 0.6 -->
      <defs>
       <path d="
M33.0156 40.375
Q26.375 40.375 22.4844 35.8281
Q18.6094 31.2969 18.6094 23.3906
Q18.6094 15.5312 22.4844 10.9531
Q26.375 6.39062 33.0156 6.39062
Q39.6562 6.39062 43.5312 10.9531
Q47.4062 15.5312 47.4062 23.3906
Q47.4062 31.2969 43.5312 35.8281
Q39.6562 40.375 33.0156 40.375
M52.5938 71.2969
L52.5938 62.3125
Q48.875 64.0625 45.0938 64.9844
Q41.3125 65.9219 37.5938 65.9219
Q27.8281 65.9219 22.6719 59.3281
Q17.5312 52.7344 16.7969 39.4062
Q19.6719 43.6562 24.0156 45.9219
Q28.375 48.1875 33.5938 48.1875
Q44.5781 48.1875 50.9531 41.5156
Q57.3281 34.8594 57.3281 23.3906
Q57.3281 12.1562 50.6875 5.35938
Q44.0469 -1.42188 33.0156 -1.42188
Q20.3594 -1.42188 13.6719 8.26562
Q6.98438 17.9688 6.98438 36.375
Q6.98438 53.6562 15.1875 63.9375
Q23.3906 74.2188 37.2031 74.2188
Q40.9219 74.2188 44.7031 73.4844
Q48.4844 72.75 52.5938 71.2969" id="BitstreamVeraSans-Roman-36"/>
      </defs>
      <g transform="translate(10.60625 21.3267730714)scale(0.1 -0.1)">
       <use xlink:href="#BitstreamVeraSans-Roman-30"/>
       <use x="63.623046875" xlink:href="#BitstreamVeraSans-Roman-2e"/>
       <use x="95.41015625" xlink:href="#BitstreamVeraSans-Roman-36"/>
      </g>
     </g>
    </g>
    <g id="ytick_6">
     <g id="line2d_27">
      <defs>
       <path d="
M0 0
L2 0" id="m91528b0d7c"/>
      </defs>
      <g>
       <use style="stroke:#000000;stroke-linecap:butt;stroke-width:0.5;" x="29.2203125" xlink:href="#m91528b0d7c" y="393.534717637"/>
      </g>
     </g>
    </g>
    <g id="ytick_7">
     <g id="line2d_28">
      <defs>
       <path d="
M0 0
L2 0" id="m91528b0d7c"/>
      </defs>
      <g>
       <use style="stroke:#000000;stroke-linecap:butt;stroke-width:0.5;" x="29.2203125" xlink:href="#m91528b0d7c" y="349.317330777"/>
      </g>
     </g>
    </g>
    <g id="ytick_8">
     <g id="line2d_29">
      <defs>
       <path d="
M0 0
L2 0" id="m91528b0d7c"/>
      </defs>
      <g>
       <use style="stroke:#000000;stroke-linecap:butt;stroke-width:0.5;" x="29.2203125" xlink:href="#m91528b0d7c" y="327.208637346"/>
      </g>
     </g>
    </g>
    <g id="ytick_9">
     <g id="line2d_30">
      <defs>
       <path d="
M0 0
L2 0" id="m91528b0d7c"/>
      </defs>
      <g>
       <use style="stroke:#000000;stroke-linecap:butt;stroke-width:0.5;" x="29.2203125" xlink:href="#m91528b0d7c" y="305.099943916"/>
      </g>
     </g>
    </g>
    <g id="ytick_10">
     <g id="line2d_31">
      <defs>
       <path d="
M0 0
L2 0" id="m91528b0d7c"/>
      </defs>
      <g>
       <use style="stroke:#000000;stroke-linecap:butt;stroke-width:0.5;" x="29.2203125" xlink:href="#m91528b0d7c" y="282.991250486"/>
      </g>
     </g>
    </g>
    <g id="ytick_11">
     <g id="line2d_32">
      <defs>
       <path d="
M0 0
L2 0" id="m91528b0d7c"/>
      </defs>
      <g>
       <use style="stroke:#000000;stroke-linecap:butt;stroke-width:0.5;" x="29.2203125" xlink:href="#m91528b0d7c" y="260.882557055"/>
      </g>
     </g>
    </g>
    <g id="ytick_12">
     <g id="line2d_33">
      <defs>
       <path d="
M0 0
L2 0" id="m91528b0d7c"/>
      </defs>
      <g>
       <use style="stroke:#000000;stroke-linecap:butt;stroke-width:0.5;" x="29.2203125" xlink:href="#m91528b0d7c" y="238.773863625"/>
      </g>
     </g>
    </g>
    <g id="ytick_13">
     <g id="line2d_34">
      <defs>
       <path d="
M0 0
L2 0" id="m91528b0d7c"/>
      </defs>
      <g>
       <use style="stroke:#000000;stroke-linecap:butt;stroke-width:0.5;" x="29.2203125" xlink:href="#m91528b0d7c" y="216.665170194"/>
      </g>
     </g>
    </g>
    <g id="ytick_14">
     <g id="line2d_35">
      <defs>
       <path d="
M0 0
L2 0" id="m91528b0d7c"/>
      </defs>
      <g>
       <use style="stroke:#000000;stroke-linecap:butt;stroke-width:0.5;" x="29.2203125" xlink:href="#m91528b0d7c" y="194.556476764"/>
      </g>
     </g>
    </g>
    <g id="ytick_15">
     <g id="line2d_36">
      <defs>
       <path d="
M0 0
L2 0" id="m91528b0d7c"/>
      </defs>
      <g>
       <use style="stroke:#000000;stroke-linecap:butt;stroke-width:0.5;" x="29.2203125" xlink:href="#m91528b0d7c" y="172.447783334"/>
      </g>
     </g>
    </g>
    <g id="ytick_16">
     <g id="line2d_37">
      <defs>
       <path d="
M0 0
L2 0" id="m91528b0d7c"/>
      </defs>
      <g>
       <use style="stroke:#000000;stroke-linecap:butt;stroke-width:0.5;" x="29.2203125" xlink:href="#m91528b0d7c" y="150.339089903"/>
      </g>
     </g>
    </g>
    <g id="ytick_17">
     <g id="line2d_38">
      <defs>
       <path d="
M0 0
L2 0" id="m91528b0d7c"/>
      </defs>
      <g>
       <use style="stroke:#000000;stroke-linecap:butt;stroke-width:0.5;" x="29.2203125" xlink:href="#m91528b0d7c" y="128.230396473"/>
      </g>
     </g>
    </g>
    <g id="ytick_18">
     <g id="line2d_39">
      <defs>
       <path d="
M0 0
L2 0" id="m91528b0d7c"/>
      </defs>
      <g>
       <use style="stroke:#000000;stroke-linecap:butt;stroke-width:0.5;" x="29.2203125" xlink:href="#m91528b0d7c" y="106.121703043"/>
      </g>
     </g>
    </g>
    <g id="ytick_19">
     <g id="line2d_40">
      <defs>
       <path d="
M0 0
L2 0" id="m91528b0d7c"/>
      </defs>
      <g>
       <use style="stroke:#000000;stroke-linecap:butt;stroke-width:0.5;" x="29.2203125" xlink:href="#m91528b0d7c" y="84.0130096124"/>
      </g>
     </g>
    </g>
    <g id="ytick_20">
     <g id="line2d_41">
      <defs>
       <path d="
M0 0
L2 0" id="m91528b0d7c"/>
      </defs>
      <g>
       <use style="stroke:#000000;stroke-linecap:butt;stroke-width:0.5;" x="29.2203125" xlink:href="#m91528b0d7c" y="61.9043161821"/>
      </g>
     </g>
    </g>
    <g id="ytick_21">
     <g id="line2d_42">
      <defs>
       <path d="
M0 0
L2 0" id="m91528b0d7c"/>
      </defs>
      <g>
       <use style="stroke:#000000;stroke-linecap:butt;stroke-width:0.5;" x="29.2203125" xlink:href="#m91528b0d7c" y="39.7956227517"/>
      </g>
     </g>
    </g>
   </g>
   <g id="patch_3">
    <path d="
M39.2203 282.991
L557.188 282.991" style="fill:none;stroke:#000000;stroke-width:0.8;"/>
   </g>
   <g id="patch_4">
    <path d="
M29.2203 413.28
L29.2203 7.2" style="fill:none;stroke:#000000;stroke-width:0.8;"/>
   </g>
  </g>
 </g>
 <defs>
  <clipPath id="p8d06c6b202">
   <rect height="406.08" width="517.9675" x="39.2203125" y="7.2"/>
  </clipPath>
 </defs>
</svg>
