<?xml version="1.0" encoding="utf-8" standalone="no"?>
<!DOCTYPE svg PUBLIC "-//W3C//DTD SVG 1.1//EN"
  "http://www.w3.org/Graphics/SVG/1.1/DTD/svg11.dtd">
<!-- Created with matplotlib (http://matplotlib.sourceforge.net/) -->
<svg height="420pt" version="1.1" viewBox="0 0 562 420" width="562pt" xmlns="http://www.w3.org/2000/svg" xmlns:xlink="http://www.w3.org/1999/xlink">
 <defs>
  <style type="text/css">
*{stroke-linecap:square;stroke-linejoin:round;}
  </style>
 </defs>
 <g id="figure_1">
  <g id="patch_1">
   <path d="
M0 420.48
L562.696 420.48
L562.696 0
L0 0
z
" style="fill:#ffffff;"/>
  </g>
  <g id="axes_1">
   <g id="patch_2">
    <path d="
M45.9168 413.28
L544.568 413.28
L544.568 7.2
L45.9168 7.2
z
" style="fill:#ffffff;"/>
   </g>
   <g id="line2d_1">
    <path clip-path="url(#pcd671acca0)" d="
M55.5063 254.074
L55.5574 254.074
L55.5574 405.471
L55.616 348.603
L55.6773 348.603
L55.7406 311.378
L55.8051 311.378
L55.8709 303.953
L55.9371 303.953
L56.0045 279.629
L56.0722 279.629
L56.1408 259.942
L56.2098 259.942
L56.2795 238.809
L56.3494 238.809
L56.4197 221.703
L56.4903 221.703
L56.5615 212.462
L56.6331 212.462
L56.7048 202.436
L56.7766 202.436
L56.849 197.978
L56.9215 197.978
L56.9943 195.054
L57.0669 195.054
L57.1402 189.757
L57.2144 189.757
L57.2877 187.78
L57.3615 187.78
L57.4357 186.019
L57.5099 186.019
L57.5846 182.572
L57.6587 182.572
L57.7338 180.193
L57.8089 180.193
L57.8835 178.068
L57.9588 178.068
L58.034 175.794
L58.1097 175.794
L58.1856 174.089
L58.2617 174.089
L58.3377 171.933
L58.4138 171.933
L58.4902 169.491
L58.5664 169.491
L58.6431 167.382
L58.7197 167.382
L58.7961 165.903
L58.8725 165.903
L58.9495 165.018
L59.0266 165.018
L59.1039 164.448
L59.3358 164.408
L59.414 164.299
L59.414 164.394
L59.5695 164.285
L59.6467 163.902
L59.8026 163.832
L59.8811 163.254
L60.0374 163.313
L60.0374 163.378
L60.1158 163.346
L60.7456 163.281
L60.8246 162.979
L61.3801 162.934
L61.4591 162.319
L61.5393 162.319
L61.6185 161.528
L61.6984 161.528
L61.7789 160.284
L61.8589 160.284
L61.939 159.195
L62.0196 159.195
L62.0993 158.484
L62.179 158.484
L62.2597 157.66
L62.3401 157.66
L62.4199 156.693
L62.5004 156.693
L62.5811 155.87
L62.6617 155.87
L62.7425 154.996
L62.8231 154.996
L62.9043 154.354
L62.9844 154.354
L63.0654 153.563
L63.1459 153.563
L63.2271 152.547
L63.3078 152.547
L63.3892 151.363
L63.4703 151.363
L63.5513 150.124
L63.6323 150.124
L63.713 149.206
L63.7949 149.206
L63.8755 148.283
L63.9564 148.283
L64.0379 147.437
L64.1192 147.437
L64.2012 146.512
L64.2825 146.512
L64.3643 145.736
L64.4459 145.736
L64.5276 145.025
L64.6093 145.025
L64.6912 144.385
L64.773 144.385
L64.8548 143.737
L64.9371 143.737
L65.0187 143.264
L65.1004 143.264
L65.1821 142.796
L65.2648 142.796
L65.3469 142.154
L65.4289 142.154
L65.5111 141.487
L65.5932 141.487
L65.6758 140.731
L65.758 140.731
L65.8404 139.822
L65.9225 139.822
L66.0046 138.921
L66.0865 138.921
L66.1702 137.982
L66.2529 137.982
L66.3352 137.099
L66.4176 137.099
L66.5002 136.164
L66.5828 136.164
L66.6656 135.369
L66.7483 135.369
L66.8312 134.73
L66.9142 134.73
L66.9972 134.171
L67.0801 134.171
L67.1622 133.737
L67.2453 133.737
L67.3285 133.36
L67.4112 133.36
L67.4944 132.968
L67.5776 132.968
L67.6613 132.623
L67.7448 132.623
L67.828 132.36
L67.9938 132.275
L68.0772 132.067
L68.1608 132.067
L68.2433 131.724
L68.327 131.724
L68.4104 131.376
L68.4936 131.376
L68.5771 131.014
L68.6607 131.014
L68.7437 130.783
L68.9113 130.708
L68.995 130.512
L69.1624 130.44
L69.2456 130.144
L69.3299 130.144
L69.4137 129.75
L69.4979 129.75
L69.5813 129.297
L69.6656 129.297
L69.7493 128.811
L69.8332 128.811
L69.9164 128.342
L69.9998 128.342
L70.0835 127.928
L70.1681 127.928
L70.2515 127.562
L70.3354 127.562
L70.4206 127.218
L70.5048 127.218
L70.589 126.87
L70.6734 126.87
L70.7578 126.424
L70.8418 126.424
L70.9258 126.022
L71.0104 126.022
L71.0945 125.532
L71.1787 125.532
L71.2633 125.082
L71.3476 125.082
L71.432 124.633
L71.5158 124.633
L71.6005 124.161
L71.6853 124.161
L71.7694 123.777
L71.8548 123.777
L71.9401 123.349
L72.0255 123.349
L72.1098 122.906
L72.1949 122.906
L72.2792 122.406
L72.3644 122.406
L72.449 121.917
L72.5338 121.917
L72.6185 121.445
L72.7033 121.445
L72.7881 120.933
L72.8734 120.933
L72.9577 120.504
L73.0428 120.504
L73.1282 120.113
L73.2137 120.113
L73.2979 119.731
L73.383 119.731
L73.4682 119.306
L73.5529 119.306
L73.6382 118.944
L73.7235 118.944
L73.8081 118.608
L73.8926 118.608
L73.9775 118.264
L74.0634 118.264
L74.1477 117.93
L74.2331 117.93
L74.3181 117.552
L74.4027 117.552
L74.4879 117.215
L74.5728 117.215
L74.6587 116.933
L74.8293 116.824
L74.9145 116.629
L75.0006 116.629
L75.0851 116.391
L75.2563 116.282
L75.3423 116.03
L75.4278 116.03
L75.514 115.751
L75.5992 115.751
L75.6857 115.538
L75.8563 115.439
L75.942 115.18
L76.0276 115.18
L76.114 114.944
L76.1999 114.944
L76.2857 114.624
L76.3709 114.624
L76.4571 114.29
L76.543 114.29
L76.6286 113.985
L76.7149 113.985
L76.8008 113.66
L76.8863 113.66
L76.9715 113.344
L77.058 113.344
L77.1435 113.046
L77.2293 113.046
L77.3144 112.79
L77.4002 112.79
L77.4867 112.524
L77.5722 112.524
L77.6586 112.29
L77.8311 112.205
L77.917 112.088
L78.1752 111.995
L78.2617 111.913
L78.5208 111.804
L78.6073 111.715
L78.9532 111.637
L79.0398 111.558
L79.2975 111.46
L79.3841 111.351
L79.6432 111.261
L79.73 111.14
L79.9025 111.072
L79.9898 110.908
L80.1624 110.83
L80.2489 110.706
L80.4219 110.633
L80.5087 110.505
L80.8557 110.415
L80.9425 110.326
L81.1159 110.274
L81.2034 110.14
L81.3769 110.064
L81.4635 109.921
L81.6385 109.852
L81.7245 109.724
L81.899 109.647
L81.9856 109.511
L82.1601 109.439
L82.2461 109.319
L82.5067 109.209
L82.5945 109.111
L82.7676 109.051
L82.855 108.922
L83.0282 108.853
L83.1157 108.717
L83.2906 108.652
L83.378 108.519
L83.5526 108.453
L83.6395 108.322
L83.8136 108.253
L83.9012 108.142
L84.0763 108.077
L84.1636 107.962
L84.3384 107.904
L84.4255 107.782
L84.5998 107.726
L84.6864 107.59
L84.8621 107.505
L84.9502 107.354
L85.1254 107.294
L85.2127 107.173
L85.3875 107.111
L85.4752 106.931
L85.5632 106.931
L85.6503 106.681
L85.7382 106.681
L85.8255 106.445
L85.9131 106.445
L86.0005 106.178
L86.0882 106.178
L86.175 105.93
L86.2625 105.93
L86.3503 105.665
L86.4381 105.665
L86.5263 105.387
L86.6149 105.387
L86.7021 105.08
L86.7903 105.08
L86.878 104.733
L86.9656 104.733
L87.0539 104.369
L87.1413 104.369
L87.2289 104.022
L87.3156 104.022
L87.4033 103.692
L87.4908 103.692
L87.5788 103.382
L87.6671 103.382
L87.7548 103.083
L87.8423 103.083
L87.9298 102.799
L88.018 102.799
L88.1055 102.538
L88.1938 102.538
L88.2817 102.258
L88.3701 102.258
L88.4579 102.008
L88.5462 102.008
L88.6343 101.756
L88.7232 101.756
L88.8102 101.489
L88.898 101.489
L88.9859 101.213
L89.0745 101.213
L89.1625 100.932
L89.2505 100.932
L89.3379 100.671
L89.4266 100.671
L89.5153 100.404
L89.6033 100.404
L89.6915 100.126
L89.7791 100.126
L89.8669 99.8633
L89.956 99.8633
L90.0445 99.6158
L90.1314 99.6158
L90.2195 99.3792
L90.3077 99.3792
L90.3965 99.1502
L90.4843 99.1502
L90.5727 98.9097
L90.75 98.8018
L90.8376 98.5995
L91.0146 98.5088
L91.1034 98.2991
L91.2804 98.2002
L91.3688 98.0352
L91.5459 97.9566
L91.6337 97.8269
L91.8983 97.7279
L91.9866 97.6422
L92.2532 97.5576
L92.3423 97.4877
L92.6076 97.4172
L92.6964 97.3303
L92.9621 97.2384
L93.0513 97.1213
L93.2289 97.0538
L93.3177 96.9217
L93.4949 96.8556
L93.5838 96.7015
L93.7613 96.6172
L93.8498 96.4542
L94.0276 96.3752
L94.116 96.2115
L94.2933 96.1126
L94.3813 95.957
L94.5584 95.8717
L94.6474 95.6865
L94.8251 95.6019
L94.9138 95.4651
L95.0923 95.3995
L95.1811 95.2812
L95.3587 95.2118
L95.4478 95.0659
L95.6263 94.9983
L95.7148 94.8696
L95.8933 94.7977
L95.9822 94.6409
L96.1602 94.5526
L96.2494 94.3615
L96.4279 94.2628
L96.5164 94.059
L96.6948 93.9583
L96.7835 93.7863
L96.9622 93.7058
L97.0509 93.5513
L97.2296 93.4753
L97.3188 93.3316
L97.4975 93.2624
L97.5871 93.1401
L97.8532 93.0388
L97.9428 92.9306
L98.1217 92.8677
L98.2108 92.7568
L98.4788 92.6518
L98.5694 92.5484
L98.7473 92.4847
L98.8361 92.3435
L99.0154 92.2681
L99.1043 92.1144
L99.2823 92.0401
L99.3723 91.9101
L99.5512 91.8452
L99.6406 91.6972
L99.82 91.633
L99.9094 91.5006
L100.088 91.4367
L100.178 91.3097
L100.357 91.2464
L100.447 91.1231
L100.625 91.0594
L100.715 90.9404
L100.983 90.8297
L101.072 90.7335
L101.34 90.6312
L101.431 90.5322
L101.7 90.4463
L101.79 90.3564
L102.058 90.2526
L102.148 90.147
L102.416 90.0405
L102.506 89.9344
L102.775 89.8481
L102.865 89.7455
L103.136 89.635
L103.226 89.5193
L103.405 89.4526
L103.495 89.3242
L103.674 89.2546
L103.765 89.1016
L103.944 89.0361
L104.034 88.9154
L104.213 88.854
L104.304 88.7217
L104.483 88.6596
L104.572 88.5406
L104.752 88.4766
L104.842 88.3584
L105.112 88.2526
L105.202 88.1533
L105.472 88.0559
L105.561 87.9678
L105.832 87.8585
L105.922 87.7566
L106.192 87.6588
L106.282 87.5472
L106.463 87.4861
L106.553 87.3701
L106.823 87.2611
L106.913 87.1523
L107.183 87.0439
L107.274 86.947
L107.633 86.8473
L107.724 86.8045
L108.264 86.7044
L108.354 86.6471
L108.807 86.5416
L108.897 86.4663
L109.169 86.3846
L109.259 86.3161
L109.621 86.2101
L109.711 86.1305
L110.074 86.0292
L110.164 85.9656
L110.617 85.8659
L110.708 85.819
L111.251 85.7146
L111.341 85.6721
L111.704 85.5687
L111.794 85.4771
L112.066 85.3804
L112.157 85.2981
L112.428 85.2192
L112.52 85.1207
L112.793 85.0333
L112.884 84.9531
L113.246 84.8521
L113.337 84.8
L113.791 84.6911
L113.882 84.6341
L114.337 84.527
L114.427 84.451
L114.79 84.342
L114.881 84.2789
L115.607 84.1691
L115.698 84.1422
L116.516 84.0388
L116.608 84.0148
L117.79 83.9237
L117.882 83.8838
L118.428 83.7749
L118.519 83.7452
L119.249 83.6354
L119.34 83.5849
L119.706 83.4825
L119.798 83.4181
L120.071 83.3434
L120.162 83.2513
L120.436 83.1479
L120.527 83.0416
L120.802 82.9348
L120.894 82.8248
L121.167 82.7223
L121.258 82.6051
L121.44 82.5435
L121.532 82.4131
L121.716 82.3465
L121.808 82.2172
L121.991 82.1564
L122.082 82.0277
L122.265 81.9692
L122.356 81.8533
L122.538 81.7922
L122.629 81.6826
L122.813 81.6218
L122.905 81.5121
L123.18 81.4112
L123.272 81.3064
L123.546 81.2054
L123.637 81.1149
L123.911 81.0127
L124.003 80.9179
L124.276 80.8279
L124.367 80.7295
L124.642 80.6225
L124.733 80.5233
L125.009 80.4167
L125.101 80.3097
L125.376 80.2129
L125.468 80.1268
L125.742 80.0482
L125.834 79.9606
L126.108 79.8732
L126.2 79.786
L126.475 79.6958
L126.567 79.6137
L126.842 79.5301
L126.934 79.4533
L127.301 79.3474
L127.393 79.2689
L127.669 79.1913
L127.761 79.1033
L128.037 79.0115
L128.129 78.9175
L128.405 78.8289
L128.498 78.7309
L128.773 78.621
L128.865 78.5083
L129.141 78.4046
L129.232 78.3037
L129.509 78.2218
L129.6 78.148
L129.968 78.0406
L130.06 77.9743
L130.427 77.8757
L130.519 77.804
L130.887 77.693
L130.979 77.6069
L131.256 77.5272
L131.348 77.4471
L131.626 77.3678
L131.717 77.2989
L132.086 77.1919
L132.177 77.1129
L132.453 77.0332
L132.545 76.9568
L132.914 76.8495
L133.006 76.7626
L133.283 76.6766
L133.375 76.5873
L133.652 76.509
L133.745 76.4342
L134.02 76.3558
L134.111 76.266
L134.389 76.1561
L134.481 76.0501
L134.758 75.9476
L134.851 75.8446
L135.128 75.7547
L135.22 75.6706
L135.497 75.594
L135.589 75.5236
L136.05 75.4133
L136.143 75.3734
L136.697 75.2831
L136.788 75.2414
L137.343 75.1312
L137.435 75.0969
L138.728 74.9886
L138.821 74.9623
L139.931 74.8518
L140.024 74.8264
L140.764 74.7267
L140.856 74.6925
L141.412 74.593
L141.505 74.5444
L141.874 74.4616
L141.968 74.4021
L142.339 74.3154
L142.433 74.2558
L142.897 74.1455
L142.991 74.0835
L143.363 73.9956
L143.456 73.9459
L143.918 73.8541
L144.01 73.798
L144.474 73.6983
L144.567 73.6463
L144.938 73.5619
L145.031 73.5029
L145.402 73.4159
L145.495 73.3577
L145.867 73.2575
L145.961 73.1871
L146.331 73.0838
L146.425 73.0221
L146.796 72.9187
L146.89 72.8475
L147.17 72.7619
L147.263 72.6678
L147.543 72.5812
L147.637 72.5007
L148.007 72.3901
L148.101 72.3084
L148.379 72.2238
L148.472 72.1384
L148.75 72.0461
L148.844 71.9531
L149.122 71.858
L149.216 71.7859
L149.588 71.6902
L149.682 71.6321
L150.148 71.5306
L150.242 71.4914
L150.709 71.3928
L150.802 71.351
L151.268 71.2568
L151.361 71.2142
L151.92 71.1048
L152.013 71.0563
L152.479 70.9613
L152.572 70.9085
L152.946 70.8117
L153.039 70.7392
L153.319 70.6591
L153.412 70.578
L153.692 70.4927
L153.785 70.4023
L154.065 70.3081
L154.159 70.2186
L154.439 70.1305
L154.532 70.0446
L154.812 69.9556
L154.905 69.8753
L155.185 69.7967
L155.279 69.7183
L155.559 69.634
L155.653 69.5514
L155.933 69.4689
L156.026 69.3964
L156.399 69.2865
L156.493 69.2091
L156.774 69.1243
L156.867 69.0386
L157.148 68.9528
L157.241 68.8611
L157.522 68.7761
L157.615 68.6926
L157.896 68.6098
L157.99 68.5313
L158.271 68.4505
L158.365 68.3681
L158.644 68.2843
L158.737 68.2032
L159.018 68.1205
L159.112 68.0458
L159.487 67.9425
L159.581 67.8813
L159.956 67.787
L160.049 67.7271
L160.423 67.6373
L160.517 67.5828
L160.986 67.4861
L161.08 67.4394
L161.548 67.3331
L161.642 67.2725
L162.016 67.185
L162.11 67.1282
L162.577 67.0295
L162.67 66.9787
L163.139 66.874
L163.233 66.8267
L163.704 66.7358
L163.797 66.6881
L164.266 66.5942
L164.359 66.5513
L165.018 66.4433
L165.111 66.4113
L165.768 66.3184
L165.861 66.2795
L166.424 66.1798
L166.517 66.1371
L166.988 66.0384
L167.083 65.9876
L167.553 65.8938
L167.648 65.8459
L168.117 65.7497
L168.211 65.6944
L168.587 65.6007
L168.681 65.5317
L169.057 65.4375
L169.15 65.3741
L169.525 65.2789
L169.618 65.2187
L169.994 65.1353
L170.088 65.0795
L170.465 64.997
L170.559 64.9388
L170.934 64.8468
L171.027 64.7806
L171.405 64.682
L171.499 64.6145
L171.878 64.5079
L171.972 64.4372
L172.348 64.3443
L172.443 64.2874
L172.82 64.1983
L172.912 64.1488
L173.383 64.0518
L173.477 64.0038
L173.949 63.8963
L174.043 63.8398
L174.42 63.7499
L174.515 63.6829
L174.796 63.6085
L174.891 63.5296
L175.173 63.4462
L175.268 63.3601
L175.551 63.274
L175.645 63.1881
L175.928 63.1094
L176.022 63.0271
L176.306 62.9412
L176.4 62.8553
L176.683 62.7721
L176.777 62.6884
L177.06 62.6
L177.155 62.5061
L177.437 62.4093
L177.532 62.3224
L177.814 62.2412
L177.909 62.1598
L178.191 62.0729
L178.286 61.9826
L178.571 61.8922
L178.666 61.8032
L178.948 61.7147
L179.042 61.6255
L179.325 61.5329
L179.42 61.4396
L179.704 61.3457
L179.798 61.2521
L180.082 61.1565
L180.176 61.0636
L180.459 60.9753
L180.554 60.8875
L180.837 60.7954
L180.931 60.7094
L181.214 60.625
L181.308 60.5458
L181.591 60.4657
L181.686 60.3832
L181.971 60.3032
L182.066 60.2229
L182.35 60.139
L182.445 60.0554
L182.728 59.9709
L182.821 59.8898
L183.105 59.8141
L183.199 59.7302
L183.485 59.6426
L183.579 59.5524
L183.864 59.4608
L183.958 59.3724
L184.242 59.2847
L184.337 59.1967
L184.62 59.1075
L184.714 59.0187
L185 58.9312
L185.095 58.8444
L185.379 58.7532
L185.474 58.6592
L185.759 58.5655
L185.854 58.4749
L186.138 58.3837
L186.231 58.2953
L186.517 58.2115
L186.611 58.1222
L186.895 58.0329
L186.989 57.9449
L187.273 57.8576
L187.367 57.7705
L187.651 57.6881
L187.746 57.6033
L188.031 57.5206
L188.127 57.4395
L188.41 57.3628
L188.505 57.2816
L188.788 57.2006
L188.883 57.1142
L189.169 57.025
L189.263 56.9337
L189.548 56.8449
L189.642 56.7578
L189.926 56.6645
L190.021 56.5724
L190.306 56.4755
L190.4 56.3818
L190.685 56.2874
L190.78 56.1834
L191.064 56.0833
L191.16 55.9838
L191.445 55.8823
L191.539 55.7851
L191.825 55.6844
L191.92 55.5833
L192.206 55.4775
L192.302 55.371
L192.586 55.2691
L192.68 55.1709
L192.966 55.0815
L193.061 54.9958
L193.345 54.9079
L193.44 54.8191
L193.726 54.7286
L193.82 54.6384
L194.104 54.5481
L194.2 54.4539
L194.484 54.3576
L194.579 54.2638
L194.866 54.1732
L194.961 54.0876
L195.245 54.0039
L195.341 53.9249
L195.625 53.8477
L195.719 53.7718
L196.1 53.6668
L196.196 53.6006
L196.575 53.5016
L196.669 53.4335
L197.051 53.336
L197.146 53.2743
L197.527 53.1825
L197.622 53.1183
L198.003 53.0192
L198.097 52.9532
L198.478 52.8506
L198.572 52.7785
L198.86 52.7
L198.954 52.616
L199.24 52.5328
L199.334 52.4511
L199.62 52.366
L199.715 52.2779
L200 52.1906
L200.095 52.1022
L200.38 52.0128
L200.476 51.9281
L200.763 51.8437
L200.857 51.7592
L201.144 51.6745
L201.24 51.5883
L201.525 51.5009
L201.62 51.4134
L201.906 51.3248
L202.001 51.2461
L202.285 51.1675
L202.381 51.0846
L202.667 51.0007
L202.762 50.9201
L203.048 50.8411
L203.144 50.7598
L203.427 50.6799
L203.523 50.5911
L203.808 50.499
L203.904 50.4074
L204.189 50.318
L204.285 50.2321
L204.572 50.1497
L204.667 50.0645
L204.955 49.9774
L205.05 49.8938
L205.334 49.8137
L205.43 49.7334
L205.716 49.6514
L205.811 49.5644
L206.097 49.4736
L206.193 49.3834
L206.479 49.2944
L206.575 49.205
L206.861 49.1147
L206.957 49.0312
L207.243 48.9474
L207.339 48.8647
L207.625 48.7823
L207.721 48.6995
L208.007 48.6162
L208.102 48.5338
L208.39 48.4517
L208.486 48.3668
L208.773 48.283
L208.868 48.1971
L209.155 48.1128
L209.251 48.0277
L209.536 47.9431
L209.632 47.8605
L209.92 47.7804
L210.015 47.7056
L210.301 47.631
L210.397 47.5545
L210.684 47.4783
L210.779 47.4037
L211.067 47.3241
L211.162 47.2493
L211.448 47.1727
L211.543 47.0939
L211.83 47.0103
L211.925 46.9234
L212.212 46.8337
L212.308 46.7437
L212.595 46.6535
L212.69 46.5612
L212.977 46.4658
L213.073 46.3703
L213.36 46.2771
L213.456 46.1855
L213.742 46.0969
L213.838 46.0081
L214.126 45.9193
L214.222 45.8307
L214.509 45.7469
L214.604 45.6647
L214.892 45.5842
L214.987 45.5038
L215.274 45.4247
L215.369 45.3473
L215.657 45.273
L215.753 45.1985
L216.04 45.124
L216.135 45.047
L216.422 44.9724
L216.518 44.8972
L216.806 44.8218
L216.901 44.7434
L217.188 44.6682
L217.285 44.5953
L217.668 44.4886
L217.764 44.4168
L218.146 44.3136
L218.243 44.2424
L218.625 44.1341
L218.72 44.0603
L219.104 43.9564
L219.2 43.8864
L219.582 43.7815
L219.677 43.7125
L220.062 43.6115
L220.158 43.5422
L220.54 43.4358
L220.634 43.3633
L220.923 43.2865
L221.019 43.208
L221.307 43.1283
L221.402 43.0514
L221.69 42.9725
L221.787 42.8905
L222.074 42.8053
L222.17 42.7227
L222.459 42.6423
L222.555 42.5625
L222.844 42.4829
L222.939 42.4025
L223.226 42.3233
L223.321 42.2433
L223.609 42.1613
L223.705 42.0744
L223.993 41.9899
L224.09 41.9015
L224.377 41.8146
L224.474 41.7288
L224.761 41.6457
L224.856 41.5668
L225.145 41.4906
L225.241 41.4172
L225.624 41.3099
L225.72 41.2372
L226.105 41.132
L226.201 41.0621
L226.584 40.9578
L226.681 40.8874
L227.065 40.7826
L227.161 40.717
L227.546 40.6255
L227.641 40.5676
L228.026 40.4822
L228.122 40.4257
L228.508 40.3388
L228.604 40.28
L228.988 40.1944
L229.085 40.1384
L229.469 40.053
L229.565 39.9932
L229.949 39.9059
L230.045 39.8533
L230.526 39.7473
L230.622 39.6971
L231.101 39.5949
L231.198 39.5401
L231.582 39.4562
L231.678 39.4007
L232.063 39.3174
L232.159 39.2597
L232.642 39.1526
L232.738 39.1043
L233.22 39.0102
L233.316 38.9669
L233.893 38.8671
L233.989 38.8304
L234.568 38.7392
L234.664 38.6987
L235.24 38.5905
L235.335 38.5432
L235.816 38.4464
L235.913 38.3986
L236.393 38.3053
L236.489 38.2594
L237.065 38.1483
L237.161 38.103
L237.642 38.0122
L237.738 37.9692
L238.316 37.8639
L238.411 37.8211
L238.989 37.7125
L239.086 37.6679
L239.568 37.579
L239.665 37.5355
L240.244 37.435
L240.341 37.3963
L241.016 37.2857
L241.113 37.2435
L241.593 37.1529
L241.69 37.1041
L242.172 36.9982
L242.269 36.9436
L242.753 36.8396
L242.849 36.7898
L243.332 36.6871
L243.428 36.6335
L243.812 36.5499
L243.909 36.4912
L244.393 36.3831
L244.49 36.3337
L244.971 36.2415
L245.067 36.194
L245.553 36.098
L245.649 36.0488
L246.132 35.9542
L246.228 35.9071
L246.711 35.8123
L246.808 35.7641
L247.289 35.6672
L247.385 35.6168
L247.87 35.5148
L247.967 35.4623
L248.449 35.3528
L248.545 35.2961
L248.931 35.2075
L249.028 35.1465
L249.415 35.0564
L249.512 34.9994
L249.994 34.8918
L250.091 34.8388
L250.575 34.7297
L250.67 34.675
L251.058 34.5906
L251.154 34.5335
L251.542 34.4437
L251.638 34.3877
L252.025 34.3038
L252.122 34.2453
L252.508 34.1549
L252.605 34.0974
L252.992 34.0092
L253.089 33.9502
L253.477 33.8653
L253.573 33.8115
L254.056 33.7038
L254.153 33.6537
L254.636 33.5507
L254.732 33.4981
L255.217 33.393
L255.314 33.3376
L255.7 33.2541
L255.797 33.1966
L256.185 33.1076
L256.282 33.0492
L256.67 32.9652
L256.767 32.91
L257.252 32.8019
L257.349 32.7473
L257.832 32.6418
L257.929 32.5917
L258.413 32.4869
L258.511 32.4363
L258.994 32.3377
L259.091 32.2868
L259.573 32.1895
L259.67 32.1401
L260.156 32.0423
L260.253 31.9965
L260.738 31.9038
L260.835 31.8602
L261.319 31.7651
L261.416 31.7166
L261.901 31.6227
L261.998 31.5732
L262.483 31.4746
L262.579 31.423
L263.065 31.3201
L263.162 31.2689
L263.648 31.1656
L263.744 31.1115
L264.229 31.0036
L264.326 30.9493
L264.811 30.8439
L264.908 30.7898
L265.394 30.6846
L265.491 30.6338
L265.975 30.5365
L266.072 30.4892
L266.655 30.3783
L266.752 30.3348
L267.236 30.2435
L267.333 30.2006
L267.914 30.1024
L268.01 30.0641
L268.69 29.9571
L268.788 29.9234
L269.469 29.8164
L269.565 29.778
L270.148 29.6769
L270.245 29.64
L270.827 29.5417
L270.925 29.5037
L271.605 29.399
L271.703 29.3667
L272.382 29.2686
L272.48 29.2307
L273.16 29.1244
L273.258 29.0897
L273.84 28.9949
L273.937 28.9563
L274.616 28.8537
L274.714 28.8191
L275.396 28.7234
L275.494 28.6889
L276.175 28.5826
L276.272 28.5485
L277.05 28.4453
L277.148 28.4182
L277.924 28.3178
L278.022 28.2889
L278.801 28.1863
L278.898 28.157
L279.676 28.0529
L279.773 28.0209
L280.552 27.9102
L280.649 27.8848
L281.526 27.7832
L281.623 27.7571
L282.501 27.6527
L282.598 27.6284
L283.575 27.5245
L283.671 27.4972
L284.45 27.3976
L284.547 27.3709
L285.325 27.2647
L285.421 27.2342
L286.201 27.1314
L286.299 27.1032
L287.177 26.9942
L287.274 26.9681
L288.054 26.8675
L288.153 26.839
L288.931 26.742
L289.03 26.7116
L289.909 26.6016
L290.007 26.5777
L290.981 26.4688
L291.079 26.4452
L292.055 26.3346
L292.153 26.3081
L293.03 26.1988
L293.128 26.1691
L293.908 26.0681
L294.005 26.0416
L294.787 25.9426
L294.885 25.9142
L295.961 25.8098
L296.06 25.7897
L297.233 25.6851
L297.331 25.663
L298.31 25.5549
L298.407 25.5302
L299.385 25.4238
L299.483 25.402
L300.66 25.3005
L300.757 25.2798
L301.832 25.1711
L301.93 25.1502
L303.008 25.0444
L303.105 25.0229
L304.277 24.9169
L304.375 24.8999
L305.943 24.7893
L306.041 24.7765
L307.607 24.6686
L307.705 24.6534
L308.975 24.5498
L309.074 24.5297
L310.348 24.423
L310.446 24.403
L311.72 24.2997
L311.818 24.284
L313.286 24.1775
L313.384 24.163
L315.149 24.0538
L315.247 24.0438
L317.309 23.9389
L317.407 23.9252
L318.78 23.8218
L318.878 23.8055
L320.347 23.6981
L320.445 23.6816
L321.918 23.5747
L322.016 23.56
L323.686 23.4535
L323.784 23.4383
L325.257 23.3328
L325.355 23.3194
L327.617 23.2088
L327.715 23.2023
L332.238 23.0918
L332.336 23.0809
L334.206 22.9739
L334.304 22.9574
L335.582 22.8524
L335.681 22.8351
L337.158 22.7265
L337.257 22.7082
L338.438 22.5994
L338.536 22.5774
L339.617 22.4735
L339.716 22.451
L340.701 22.3499
L340.8 22.327
L341.782 22.2181
L341.88 22.1933
L342.868 22.0876
L342.967 22.0666
L343.951 21.9649
L344.05 21.9419
L345.132 21.8323
L345.23 21.8124
L346.317 21.7106
L346.415 21.6891
L347.599 21.5815
L347.698 21.5621
L348.883 21.4558
L348.981 21.4373
L350.361 21.3293
L350.459 21.3118
L351.746 21.2056
L351.845 21.1901
L353.325 21.0813
L353.423 21.0646
L354.708 20.9573
L354.806 20.9355
L355.893 20.8296
L355.991 20.8088
L357.174 20.6985
L357.273 20.6777
L358.36 20.5748
L358.459 20.5547
L359.647 20.4448
L359.746 20.4245
L360.931 20.3153
L361.03 20.2935
L362.118 20.1863
L362.216 20.1656
L363.204 20.063
L363.303 20.0405
L364.493 19.9334
L364.592 19.9171
L365.876 19.8103
L365.975 19.7897
L367.063 19.6889
L367.162 19.6671
L368.251 19.5572
L368.35 19.5358
L369.537 19.4294
L369.636 19.4103
L371.021 19.3017
L371.121 19.2868
L372.505 19.1805
L372.604 19.1633
L373.89 19.0537
L373.99 19.0346
L375.378 18.925
L375.477 18.9078
L376.864 18.8006
L376.964 18.7885
L379.741 18.6785
L379.841 18.6739
L382.719 18.567
L382.818 18.5566
L384.997 18.4501
L385.096 18.4397
L387.575 18.3306
L387.675 18.3223
L389.858 18.2156
L389.958 18.2025
L391.647 18.0946
L391.746 18.0818
L393.633 17.9736
L393.733 17.9641
L396.416 17.8562
L396.515 17.8481
L400.295 17.7389
L400.394 17.7333
L404.569 17.6238
L404.668 17.6207
L408.455 17.5098
L408.555 17.5009
L410.942 17.3925
L411.041 17.3824
L413.834 17.2754
L413.934 17.267
L428.297 17.1583
L428.396 17.1511
L432.089 17.0414
L432.189 17.0357
L435.683 16.926
L435.782 16.9193
L438.881 16.8088
L438.981 16.8
L441.878 16.6926
L441.979 16.6834
L445.18 16.5741
L445.279 16.5674
L450.682 16.4565
L450.783 16.4533
L471.132 16.3436
L471.232 16.3401
L474.944 16.2322
L475.043 16.2238
L480.272 16.1128
L480.372 16.1088
L485.197 15.9992
L485.298 15.9949
L489.722 15.8872
L489.823 15.8789
L492.434 15.7686
L492.534 15.7579
L494.746 15.6511
L494.845 15.6421
L498.167 15.5332
L498.267 15.5272
L501.895 15.4192
L501.997 15.4099
L504.411 15.3019
L504.511 15.2926
L507.134 15.1828
L507.236 15.1751
L511.064 15.0651
L511.165 15.0602
L534.979 15.1066
L534.979 15.1071" style="fill:none;stroke:#0000ff;stroke-width:5.0;"/>
   </g>
   <g id="matplotlib.axis_1">
    <g id="xtick_1">
     <g id="line2d_2">
      <path d="
M55.5063 413.28
L55.5063 7.2" style="fill:none;stroke:#000000;stroke-dasharray:1.000000,3.000000;stroke-dashoffset:0.0;stroke-linecap:butt;stroke-width:0.5;"/>
     </g>
     <g id="line2d_3">
      <defs>
       <path d="
M0 0
L0 -4" id="m47a86fce68"/>
      </defs>
      <g>
       <use style="stroke:#000000;stroke-linecap:butt;stroke-width:0.5;" x="55.50625" xlink:href="#m47a86fce68" y="254.07379025"/>
      </g>
     </g>
    </g>
    <g id="xtick_2">
     <g id="line2d_4">
      <path d="
M151.406 413.28
L151.406 7.2" style="fill:none;stroke:#000000;stroke-dasharray:1.000000,3.000000;stroke-dashoffset:0.0;stroke-linecap:butt;stroke-width:0.5;"/>
     </g>
     <g id="line2d_5">
      <defs>
       <path d="
M0 0
L0 -4" id="m47a86fce68"/>
      </defs>
      <g>
       <use style="stroke:#000000;stroke-linecap:butt;stroke-width:0.5;" x="151.405846192" xlink:href="#m47a86fce68" y="254.07379025"/>
      </g>
     </g>
     <g id="text_1">
      <!-- 2e8 -->
      <defs>
       <path d="
M19.1875 8.29688
L53.6094 8.29688
L53.6094 0
L7.32812 0
L7.32812 8.29688
Q12.9375 14.1094 22.625 23.8906
Q32.3281 33.6875 34.8125 36.5312
Q39.5469 41.8438 41.4219 45.5312
Q43.3125 49.2188 43.3125 52.7812
Q43.3125 58.5938 39.2344 62.25
Q35.1562 65.9219 28.6094 65.9219
Q23.9688 65.9219 18.8125 64.3125
Q13.6719 62.7031 7.8125 59.4219
L7.8125 69.3906
Q13.7656 71.7812 18.9375 73
Q24.125 74.2188 28.4219 74.2188
Q39.75 74.2188 46.4844 68.5469
Q53.2188 62.8906 53.2188 53.4219
Q53.2188 48.9219 51.5312 44.8906
Q49.8594 40.875 45.4062 35.4062
Q44.1875 33.9844 37.6406 27.2188
Q31.1094 20.4531 19.1875 8.29688" id="BitstreamVeraSans-Roman-32"/>
       <path d="
M56.2031 29.5938
L56.2031 25.2031
L14.8906 25.2031
Q15.4844 15.9219 20.4844 11.0625
Q25.4844 6.20312 34.4219 6.20312
Q39.5938 6.20312 44.4531 7.46875
Q49.3125 8.73438 54.1094 11.2812
L54.1094 2.78125
Q49.2656 0.734375 44.1875 -0.34375
Q39.1094 -1.42188 33.8906 -1.42188
Q20.7969 -1.42188 13.1562 6.1875
Q5.51562 13.8125 5.51562 26.8125
Q5.51562 40.2344 12.7656 48.1094
Q20.0156 56 32.3281 56
Q43.3594 56 49.7812 48.8906
Q56.2031 41.7969 56.2031 29.5938
M47.2188 32.2344
Q47.125 39.5938 43.0938 43.9844
Q39.0625 48.3906 32.4219 48.3906
Q24.9062 48.3906 20.3906 44.1406
Q15.875 39.8906 15.1875 32.1719
z
" id="BitstreamVeraSans-Roman-65"/>
       <path d="
M31.7812 34.625
Q24.75 34.625 20.7188 30.8594
Q16.7031 27.0938 16.7031 20.5156
Q16.7031 13.9219 20.7188 10.1562
Q24.75 6.39062 31.7812 6.39062
Q38.8125 6.39062 42.8594 10.1719
Q46.9219 13.9688 46.9219 20.5156
Q46.9219 27.0938 42.8906 30.8594
Q38.875 34.625 31.7812 34.625
M21.9219 38.8125
Q15.5781 40.375 12.0312 44.7188
Q8.5 49.0781 8.5 55.3281
Q8.5 64.0625 14.7188 69.1406
Q20.9531 74.2188 31.7812 74.2188
Q42.6719 74.2188 48.875 69.1406
Q55.0781 64.0625 55.0781 55.3281
Q55.0781 49.0781 51.5312 44.7188
Q48 40.375 41.7031 38.8125
Q48.8281 37.1562 52.7969 32.3125
Q56.7812 27.4844 56.7812 20.5156
Q56.7812 9.90625 50.3125 4.23438
Q43.8438 -1.42188 31.7812 -1.42188
Q19.7344 -1.42188 13.25 4.23438
Q6.78125 9.90625 6.78125 20.5156
Q6.78125 27.4844 10.7812 32.3125
Q14.7969 37.1562 21.9219 38.8125
M18.3125 54.3906
Q18.3125 48.7344 21.8438 45.5625
Q25.3906 42.3906 31.7812 42.3906
Q38.1406 42.3906 41.7188 45.5625
Q45.3125 48.7344 45.3125 54.3906
Q45.3125 60.0625 41.7188 63.2344
Q38.1406 66.4062 31.7812 66.4062
Q25.3906 66.4062 21.8438 63.2344
Q18.3125 60.0625 18.3125 54.3906" id="BitstreamVeraSans-Roman-38"/>
      </defs>
      <g transform="translate(130.452721192 275.88629025)scale(0.24 -0.24)">
       <use xlink:href="#BitstreamVeraSans-Roman-32"/>
       <use x="63.623046875" xlink:href="#BitstreamVeraSans-Roman-65"/>
       <use x="125.146484375" xlink:href="#BitstreamVeraSans-Roman-38"/>
      </g>
     </g>
    </g>
    <g id="xtick_3">
     <g id="line2d_6">
      <path d="
M247.305 413.28
L247.305 7.2" style="fill:none;stroke:#000000;stroke-dasharray:1.000000,3.000000;stroke-dashoffset:0.0;stroke-linecap:butt;stroke-width:0.5;"/>
     </g>
     <g id="line2d_7">
      <defs>
       <path d="
M0 0
L0 -4" id="m47a86fce68"/>
      </defs>
      <g>
       <use style="stroke:#000000;stroke-linecap:butt;stroke-width:0.5;" x="247.305442384" xlink:href="#m47a86fce68" y="254.07379025"/>
      </g>
     </g>
     <g id="text_2">
      <!-- 4e8 -->
      <defs>
       <path d="
M37.7969 64.3125
L12.8906 25.3906
L37.7969 25.3906
z

M35.2031 72.9062
L47.6094 72.9062
L47.6094 25.3906
L58.0156 25.3906
L58.0156 17.1875
L47.6094 17.1875
L47.6094 0
L37.7969 0
L37.7969 17.1875
L4.89062 17.1875
L4.89062 26.7031
z
" id="BitstreamVeraSans-Roman-34"/>
      </defs>
      <g transform="translate(226.059817384 275.88629025)scale(0.24 -0.24)">
       <use xlink:href="#BitstreamVeraSans-Roman-34"/>
       <use x="63.623046875" xlink:href="#BitstreamVeraSans-Roman-65"/>
       <use x="125.146484375" xlink:href="#BitstreamVeraSans-Roman-38"/>
      </g>
     </g>
    </g>
    <g id="xtick_4">
     <g id="line2d_8">
      <path d="
M343.205 413.28
L343.205 7.2" style="fill:none;stroke:#000000;stroke-dasharray:1.000000,3.000000;stroke-dashoffset:0.0;stroke-linecap:butt;stroke-width:0.5;"/>
     </g>
     <g id="line2d_9">
      <defs>
       <path d="
M0 0
L0 -4" id="m47a86fce68"/>
      </defs>
      <g>
       <use style="stroke:#000000;stroke-linecap:butt;stroke-width:0.5;" x="343.205038576" xlink:href="#m47a86fce68" y="254.07379025"/>
      </g>
     </g>
     <g id="text_3">
      <!-- 6e8 -->
      <defs>
       <path d="
M33.0156 40.375
Q26.375 40.375 22.4844 35.8281
Q18.6094 31.2969 18.6094 23.3906
Q18.6094 15.5312 22.4844 10.9531
Q26.375 6.39062 33.0156 6.39062
Q39.6562 6.39062 43.5312 10.9531
Q47.4062 15.5312 47.4062 23.3906
Q47.4062 31.2969 43.5312 35.8281
Q39.6562 40.375 33.0156 40.375
M52.5938 71.2969
L52.5938 62.3125
Q48.875 64.0625 45.0938 64.9844
Q41.3125 65.9219 37.5938 65.9219
Q27.8281 65.9219 22.6719 59.3281
Q17.5312 52.7344 16.7969 39.4062
Q19.6719 43.6562 24.0156 45.9219
Q28.375 48.1875 33.5938 48.1875
Q44.5781 48.1875 50.9531 41.5156
Q57.3281 34.8594 57.3281 23.3906
Q57.3281 12.1562 50.6875 5.35938
Q44.0469 -1.42188 33.0156 -1.42188
Q20.3594 -1.42188 13.6719 8.26562
Q6.98438 17.9688 6.98438 36.375
Q6.98438 53.6562 15.1875 63.9375
Q23.3906 74.2188 37.2031 74.2188
Q40.9219 74.2188 44.7031 73.4844
Q48.4844 72.75 52.5938 71.2969" id="BitstreamVeraSans-Roman-36"/>
      </defs>
      <g transform="translate(322.210663576 275.88629025)scale(0.24 -0.24)">
       <use xlink:href="#BitstreamVeraSans-Roman-36"/>
       <use x="63.623046875" xlink:href="#BitstreamVeraSans-Roman-65"/>
       <use x="125.146484375" xlink:href="#BitstreamVeraSans-Roman-38"/>
      </g>
     </g>
    </g>
    <g id="xtick_5">
     <g id="line2d_10">
      <path d="
M439.105 413.28
L439.105 7.2" style="fill:none;stroke:#000000;stroke-dasharray:1.000000,3.000000;stroke-dashoffset:0.0;stroke-linecap:butt;stroke-width:0.5;"/>
     </g>
     <g id="line2d_11">
      <defs>
       <path d="
M0 0
L0 -4" id="m47a86fce68"/>
      </defs>
      <g>
       <use style="stroke:#000000;stroke-linecap:butt;stroke-width:0.5;" x="439.104634768" xlink:href="#m47a86fce68" y="254.07379025"/>
      </g>
     </g>
     <g id="text_4">
      <!-- 8e8 -->
      <g transform="translate(418.085884768 275.88629025)scale(0.24 -0.24)">
       <use xlink:href="#BitstreamVeraSans-Roman-38"/>
       <use x="63.623046875" xlink:href="#BitstreamVeraSans-Roman-65"/>
       <use x="125.146484375" xlink:href="#BitstreamVeraSans-Roman-38"/>
      </g>
     </g>
    </g>
    <g id="xtick_6">
     <g id="line2d_12">
      <path d="
M535.004 413.28
L535.004 7.2" style="fill:none;stroke:#000000;stroke-dasharray:1.000000,3.000000;stroke-dashoffset:0.0;stroke-linecap:butt;stroke-width:0.5;"/>
     </g>
     <g id="line2d_13">
      <defs>
       <path d="
M0 0
L0 -4" id="m47a86fce68"/>
      </defs>
      <g>
       <use style="stroke:#000000;stroke-linecap:butt;stroke-width:0.5;" x="535.00423096" xlink:href="#m47a86fce68" y="254.07379025"/>
      </g>
     </g>
     <g id="text_5">
      <!-- 1e9 -->
      <defs>
       <path d="
M10.9844 1.51562
L10.9844 10.5
Q14.7031 8.73438 18.5 7.8125
Q22.3125 6.89062 25.9844 6.89062
Q35.75 6.89062 40.8906 13.4531
Q46.0469 20.0156 46.7812 33.4062
Q43.9531 29.2031 39.5938 26.9531
Q35.25 24.7031 29.9844 24.7031
Q19.0469 24.7031 12.6719 31.3125
Q6.29688 37.9375 6.29688 49.4219
Q6.29688 60.6406 12.9375 67.4219
Q19.5781 74.2188 30.6094 74.2188
Q43.2656 74.2188 49.9219 64.5156
Q56.5938 54.8281 56.5938 36.375
Q56.5938 19.1406 48.4062 8.85938
Q40.2344 -1.42188 26.4219 -1.42188
Q22.7031 -1.42188 18.8906 -0.6875
Q15.0938 0.046875 10.9844 1.51562
M30.6094 32.4219
Q37.25 32.4219 41.125 36.9531
Q45.0156 41.5 45.0156 49.4219
Q45.0156 57.2812 41.125 61.8438
Q37.25 66.4062 30.6094 66.4062
Q23.9688 66.4062 20.0938 61.8438
Q16.2188 57.2812 16.2188 49.4219
Q16.2188 41.5 20.0938 36.9531
Q23.9688 32.4219 30.6094 32.4219" id="BitstreamVeraSans-Roman-39"/>
       <path d="
M12.4062 8.29688
L28.5156 8.29688
L28.5156 63.9219
L10.9844 60.4062
L10.9844 69.3906
L28.4219 72.9062
L38.2812 72.9062
L38.2812 8.29688
L54.3906 8.29688
L54.3906 0
L12.4062 0
z
" id="BitstreamVeraSans-Roman-31"/>
      </defs>
      <g transform="translate(514.51235596 275.88629025)scale(0.24 -0.24)">
       <use xlink:href="#BitstreamVeraSans-Roman-31"/>
       <use x="63.623046875" xlink:href="#BitstreamVeraSans-Roman-65"/>
       <use x="125.146484375" xlink:href="#BitstreamVeraSans-Roman-39"/>
      </g>
     </g>
    </g>
    <g id="xtick_7">
     <g id="line2d_14">
      <defs>
       <path d="
M0 0
L0 -2" id="m5f0f4d6099"/>
      </defs>
      <g>
       <use style="stroke:#000000;stroke-linecap:butt;stroke-width:0.5;" x="79.481149048" xlink:href="#m5f0f4d6099" y="254.07379025"/>
      </g>
     </g>
    </g>
    <g id="xtick_8">
     <g id="line2d_15">
      <defs>
       <path d="
M0 0
L0 -2" id="m5f0f4d6099"/>
      </defs>
      <g>
       <use style="stroke:#000000;stroke-linecap:butt;stroke-width:0.5;" x="103.456048096" xlink:href="#m5f0f4d6099" y="254.07379025"/>
      </g>
     </g>
    </g>
    <g id="xtick_9">
     <g id="line2d_16">
      <defs>
       <path d="
M0 0
L0 -2" id="m5f0f4d6099"/>
      </defs>
      <g>
       <use style="stroke:#000000;stroke-linecap:butt;stroke-width:0.5;" x="127.430947144" xlink:href="#m5f0f4d6099" y="254.07379025"/>
      </g>
     </g>
    </g>
    <g id="xtick_10">
     <g id="line2d_17">
      <defs>
       <path d="
M0 0
L0 -2" id="m5f0f4d6099"/>
      </defs>
      <g>
       <use style="stroke:#000000;stroke-linecap:butt;stroke-width:0.5;" x="175.38074524" xlink:href="#m5f0f4d6099" y="254.07379025"/>
      </g>
     </g>
    </g>
    <g id="xtick_11">
     <g id="line2d_18">
      <defs>
       <path d="
M0 0
L0 -2" id="m5f0f4d6099"/>
      </defs>
      <g>
       <use style="stroke:#000000;stroke-linecap:butt;stroke-width:0.5;" x="199.355644288" xlink:href="#m5f0f4d6099" y="254.07379025"/>
      </g>
     </g>
    </g>
    <g id="xtick_12">
     <g id="line2d_19">
      <defs>
       <path d="
M0 0
L0 -2" id="m5f0f4d6099"/>
      </defs>
      <g>
       <use style="stroke:#000000;stroke-linecap:butt;stroke-width:0.5;" x="223.330543336" xlink:href="#m5f0f4d6099" y="254.07379025"/>
      </g>
     </g>
    </g>
    <g id="xtick_13">
     <g id="line2d_20">
      <defs>
       <path d="
M0 0
L0 -2" id="m5f0f4d6099"/>
      </defs>
      <g>
       <use style="stroke:#000000;stroke-linecap:butt;stroke-width:0.5;" x="271.280341432" xlink:href="#m5f0f4d6099" y="254.07379025"/>
      </g>
     </g>
    </g>
    <g id="xtick_14">
     <g id="line2d_21">
      <defs>
       <path d="
M0 0
L0 -2" id="m5f0f4d6099"/>
      </defs>
      <g>
       <use style="stroke:#000000;stroke-linecap:butt;stroke-width:0.5;" x="295.25524048" xlink:href="#m5f0f4d6099" y="254.07379025"/>
      </g>
     </g>
    </g>
    <g id="xtick_15">
     <g id="line2d_22">
      <defs>
       <path d="
M0 0
L0 -2" id="m5f0f4d6099"/>
      </defs>
      <g>
       <use style="stroke:#000000;stroke-linecap:butt;stroke-width:0.5;" x="319.230139528" xlink:href="#m5f0f4d6099" y="254.07379025"/>
      </g>
     </g>
    </g>
    <g id="xtick_16">
     <g id="line2d_23">
      <defs>
       <path d="
M0 0
L0 -2" id="m5f0f4d6099"/>
      </defs>
      <g>
       <use style="stroke:#000000;stroke-linecap:butt;stroke-width:0.5;" x="367.179937624" xlink:href="#m5f0f4d6099" y="254.07379025"/>
      </g>
     </g>
    </g>
    <g id="xtick_17">
     <g id="line2d_24">
      <defs>
       <path d="
M0 0
L0 -2" id="m5f0f4d6099"/>
      </defs>
      <g>
       <use style="stroke:#000000;stroke-linecap:butt;stroke-width:0.5;" x="391.154836672" xlink:href="#m5f0f4d6099" y="254.07379025"/>
      </g>
     </g>
    </g>
    <g id="xtick_18">
     <g id="line2d_25">
      <defs>
       <path d="
M0 0
L0 -2" id="m5f0f4d6099"/>
      </defs>
      <g>
       <use style="stroke:#000000;stroke-linecap:butt;stroke-width:0.5;" x="415.12973572" xlink:href="#m5f0f4d6099" y="254.07379025"/>
      </g>
     </g>
    </g>
    <g id="xtick_19">
     <g id="line2d_26">
      <defs>
       <path d="
M0 0
L0 -2" id="m5f0f4d6099"/>
      </defs>
      <g>
       <use style="stroke:#000000;stroke-linecap:butt;stroke-width:0.5;" x="463.079533816" xlink:href="#m5f0f4d6099" y="254.07379025"/>
      </g>
     </g>
    </g>
    <g id="xtick_20">
     <g id="line2d_27">
      <defs>
       <path d="
M0 0
L0 -2" id="m5f0f4d6099"/>
      </defs>
      <g>
       <use style="stroke:#000000;stroke-linecap:butt;stroke-width:0.5;" x="487.054432864" xlink:href="#m5f0f4d6099" y="254.07379025"/>
      </g>
     </g>
    </g>
    <g id="xtick_21">
     <g id="line2d_28">
      <defs>
       <path d="
M0 0
L0 -2" id="m5f0f4d6099"/>
      </defs>
      <g>
       <use style="stroke:#000000;stroke-linecap:butt;stroke-width:0.5;" x="511.029331912" xlink:href="#m5f0f4d6099" y="254.07379025"/>
      </g>
     </g>
    </g>
   </g>
   <g id="matplotlib.axis_2">
    <g id="ytick_1">
     <g id="line2d_29">
      <path d="
M45.9168 401.705
L544.568 401.705" style="fill:none;stroke:#000000;stroke-dasharray:1.000000,3.000000;stroke-dashoffset:0.0;stroke-linecap:butt;stroke-width:0.5;"/>
     </g>
     <g id="line2d_30">
      <defs>
       <path d="
M0 0
L4 0" id="m4399c2aa61"/>
      </defs>
      <g>
       <use style="stroke:#000000;stroke-linecap:butt;stroke-width:0.5;" x="55.50625" xlink:href="#m4399c2aa61" y="401.704698118"/>
      </g>
     </g>
     <g id="text_6">
      <!-- -0.4 -->
      <defs>
       <path d="
M31.7812 66.4062
Q24.1719 66.4062 20.3281 58.9062
Q16.5 51.4219 16.5 36.375
Q16.5 21.3906 20.3281 13.8906
Q24.1719 6.39062 31.7812 6.39062
Q39.4531 6.39062 43.2812 13.8906
Q47.125 21.3906 47.125 36.375
Q47.125 51.4219 43.2812 58.9062
Q39.4531 66.4062 31.7812 66.4062
M31.7812 74.2188
Q44.0469 74.2188 50.5156 64.5156
Q56.9844 54.8281 56.9844 36.375
Q56.9844 17.9688 50.5156 8.26562
Q44.0469 -1.42188 31.7812 -1.42188
Q19.5312 -1.42188 13.0625 8.26562
Q6.59375 17.9688 6.59375 36.375
Q6.59375 54.8281 13.0625 64.5156
Q19.5312 74.2188 31.7812 74.2188" id="BitstreamVeraSans-Roman-30"/>
       <path d="
M10.6875 12.4062
L21 12.4062
L21 0
L10.6875 0
z
" id="BitstreamVeraSans-Roman-2e"/>
       <path d="
M4.89062 31.3906
L31.2031 31.3906
L31.2031 23.3906
L4.89062 23.3906
z
" id="BitstreamVeraSans-Roman-2d"/>
      </defs>
      <g transform="translate(7.2 410.440323118)scale(0.24 -0.24)">
       <use xlink:href="#BitstreamVeraSans-Roman-2d"/>
       <use x="36.083984375" xlink:href="#BitstreamVeraSans-Roman-30"/>
       <use x="99.70703125" xlink:href="#BitstreamVeraSans-Roman-2e"/>
       <use x="131.494140625" xlink:href="#BitstreamVeraSans-Roman-34"/>
      </g>
     </g>
    </g>
    <g id="ytick_2">
     <g id="line2d_31">
      <path d="
M45.9168 327.889
L544.568 327.889" style="fill:none;stroke:#000000;stroke-dasharray:1.000000,3.000000;stroke-dashoffset:0.0;stroke-linecap:butt;stroke-width:0.5;"/>
     </g>
     <g id="line2d_32">
      <defs>
       <path d="
M0 0
L4 0" id="m4399c2aa61"/>
      </defs>
      <g>
       <use style="stroke:#000000;stroke-linecap:butt;stroke-width:0.5;" x="55.50625" xlink:href="#m4399c2aa61" y="327.889244184"/>
      </g>
     </g>
     <g id="text_7">
      <!-- -0.2 -->
      <g transform="translate(8.2575 336.624869184)scale(0.24 -0.24)">
       <use xlink:href="#BitstreamVeraSans-Roman-2d"/>
       <use x="36.083984375" xlink:href="#BitstreamVeraSans-Roman-30"/>
       <use x="99.70703125" xlink:href="#BitstreamVeraSans-Roman-2e"/>
       <use x="131.494140625" xlink:href="#BitstreamVeraSans-Roman-32"/>
      </g>
     </g>
    </g>
    <g id="ytick_3">
     <g id="line2d_33">
      <path d="
M45.9168 254.074
L544.568 254.074" style="fill:none;stroke:#000000;stroke-dasharray:1.000000,3.000000;stroke-dashoffset:0.0;stroke-linecap:butt;stroke-width:0.5;"/>
     </g>
     <g id="line2d_34">
      <defs>
       <path d="
M0 0
L4 0" id="m4399c2aa61"/>
      </defs>
      <g>
       <use style="stroke:#000000;stroke-linecap:butt;stroke-width:0.5;" x="55.50625" xlink:href="#m4399c2aa61" y="254.07379025"/>
      </g>
     </g>
    </g>
    <g id="ytick_4">
     <g id="line2d_35">
      <path d="
M45.9168 180.258
L544.568 180.258" style="fill:none;stroke:#000000;stroke-dasharray:1.000000,3.000000;stroke-dashoffset:0.0;stroke-linecap:butt;stroke-width:0.5;"/>
     </g>
     <g id="line2d_36">
      <defs>
       <path d="
M0 0
L4 0" id="m4399c2aa61"/>
      </defs>
      <g>
       <use style="stroke:#000000;stroke-linecap:butt;stroke-width:0.5;" x="55.50625" xlink:href="#m4399c2aa61" y="180.258336315"/>
      </g>
     </g>
     <g id="text_8">
      <!-- 0.2 -->
      <g transform="translate(17.325 188.993961315)scale(0.24 -0.24)">
       <use xlink:href="#BitstreamVeraSans-Roman-30"/>
       <use x="63.623046875" xlink:href="#BitstreamVeraSans-Roman-2e"/>
       <use x="95.41015625" xlink:href="#BitstreamVeraSans-Roman-32"/>
      </g>
     </g>
    </g>
    <g id="ytick_5">
     <g id="line2d_37">
      <path d="
M45.9168 106.443
L544.568 106.443" style="fill:none;stroke:#000000;stroke-dasharray:1.000000,3.000000;stroke-dashoffset:0.0;stroke-linecap:butt;stroke-width:0.5;"/>
     </g>
     <g id="line2d_38">
      <defs>
       <path d="
M0 0
L4 0" id="m4399c2aa61"/>
      </defs>
      <g>
       <use style="stroke:#000000;stroke-linecap:butt;stroke-width:0.5;" x="55.50625" xlink:href="#m4399c2aa61" y="106.442882381"/>
      </g>
     </g>
     <g id="text_9">
      <!-- 0.4 -->
      <g transform="translate(16.2675 115.178507381)scale(0.24 -0.24)">
       <use xlink:href="#BitstreamVeraSans-Roman-30"/>
       <use x="63.623046875" xlink:href="#BitstreamVeraSans-Roman-2e"/>
       <use x="95.41015625" xlink:href="#BitstreamVeraSans-Roman-34"/>
      </g>
     </g>
    </g>
    <g id="ytick_6">
     <g id="line2d_39">
      <path d="
M45.9168 32.6274
L544.568 32.6274" style="fill:none;stroke:#000000;stroke-dasharray:1.000000,3.000000;stroke-dashoffset:0.0;stroke-linecap:butt;stroke-width:0.5;"/>
     </g>
     <g id="line2d_40">
      <defs>
       <path d="
M0 0
L4 0" id="m4399c2aa61"/>
      </defs>
      <g>
       <use style="stroke:#000000;stroke-linecap:butt;stroke-width:0.5;" x="55.50625" xlink:href="#m4399c2aa61" y="32.6274284467"/>
      </g>
     </g>
     <g id="text_10">
      <!-- 0.6 -->
      <g transform="translate(16.4325 41.3630534467)scale(0.24 -0.24)">
       <use xlink:href="#BitstreamVeraSans-Roman-30"/>
       <use x="63.623046875" xlink:href="#BitstreamVeraSans-Roman-2e"/>
       <use x="95.41015625" xlink:href="#BitstreamVeraSans-Roman-36"/>
      </g>
     </g>
    </g>
    <g id="ytick_7">
     <g id="line2d_41">
      <defs>
       <path d="
M0 0
L2 0" id="m4f90f0057a"/>
      </defs>
      <g>
       <use style="stroke:#000000;stroke-linecap:butt;stroke-width:0.5;" x="55.50625" xlink:href="#m4f90f0057a" y="383.250834635"/>
      </g>
     </g>
    </g>
    <g id="ytick_8">
     <g id="line2d_42">
      <defs>
       <path d="
M0 0
L2 0" id="m4f90f0057a"/>
      </defs>
      <g>
       <use style="stroke:#000000;stroke-linecap:butt;stroke-width:0.5;" x="55.50625" xlink:href="#m4f90f0057a" y="364.796971151"/>
      </g>
     </g>
    </g>
    <g id="ytick_9">
     <g id="line2d_43">
      <defs>
       <path d="
M0 0
L2 0" id="m4f90f0057a"/>
      </defs>
      <g>
       <use style="stroke:#000000;stroke-linecap:butt;stroke-width:0.5;" x="55.50625" xlink:href="#m4f90f0057a" y="346.343107668"/>
      </g>
     </g>
    </g>
    <g id="ytick_10">
     <g id="line2d_44">
      <defs>
       <path d="
M0 0
L2 0" id="m4f90f0057a"/>
      </defs>
      <g>
       <use style="stroke:#000000;stroke-linecap:butt;stroke-width:0.5;" x="55.50625" xlink:href="#m4f90f0057a" y="327.889244184"/>
      </g>
     </g>
    </g>
    <g id="ytick_11">
     <g id="line2d_45">
      <defs>
       <path d="
M0 0
L2 0" id="m4f90f0057a"/>
      </defs>
      <g>
       <use style="stroke:#000000;stroke-linecap:butt;stroke-width:0.5;" x="55.50625" xlink:href="#m4f90f0057a" y="309.4353807"/>
      </g>
     </g>
    </g>
    <g id="ytick_12">
     <g id="line2d_46">
      <defs>
       <path d="
M0 0
L2 0" id="m4f90f0057a"/>
      </defs>
      <g>
       <use style="stroke:#000000;stroke-linecap:butt;stroke-width:0.5;" x="55.50625" xlink:href="#m4f90f0057a" y="290.981517217"/>
      </g>
     </g>
    </g>
    <g id="ytick_13">
     <g id="line2d_47">
      <defs>
       <path d="
M0 0
L2 0" id="m4f90f0057a"/>
      </defs>
      <g>
       <use style="stroke:#000000;stroke-linecap:butt;stroke-width:0.5;" x="55.50625" xlink:href="#m4f90f0057a" y="272.527653733"/>
      </g>
     </g>
    </g>
    <g id="ytick_14">
     <g id="line2d_48">
      <defs>
       <path d="
M0 0
L2 0" id="m4f90f0057a"/>
      </defs>
      <g>
       <use style="stroke:#000000;stroke-linecap:butt;stroke-width:0.5;" x="55.50625" xlink:href="#m4f90f0057a" y="254.07379025"/>
      </g>
     </g>
    </g>
    <g id="ytick_15">
     <g id="line2d_49">
      <defs>
       <path d="
M0 0
L2 0" id="m4f90f0057a"/>
      </defs>
      <g>
       <use style="stroke:#000000;stroke-linecap:butt;stroke-width:0.5;" x="55.50625" xlink:href="#m4f90f0057a" y="235.619926766"/>
      </g>
     </g>
    </g>
    <g id="ytick_16">
     <g id="line2d_50">
      <defs>
       <path d="
M0 0
L2 0" id="m4f90f0057a"/>
      </defs>
      <g>
       <use style="stroke:#000000;stroke-linecap:butt;stroke-width:0.5;" x="55.50625" xlink:href="#m4f90f0057a" y="217.166063282"/>
      </g>
     </g>
    </g>
    <g id="ytick_17">
     <g id="line2d_51">
      <defs>
       <path d="
M0 0
L2 0" id="m4f90f0057a"/>
      </defs>
      <g>
       <use style="stroke:#000000;stroke-linecap:butt;stroke-width:0.5;" x="55.50625" xlink:href="#m4f90f0057a" y="198.712199799"/>
      </g>
     </g>
    </g>
    <g id="ytick_18">
     <g id="line2d_52">
      <defs>
       <path d="
M0 0
L2 0" id="m4f90f0057a"/>
      </defs>
      <g>
       <use style="stroke:#000000;stroke-linecap:butt;stroke-width:0.5;" x="55.50625" xlink:href="#m4f90f0057a" y="180.258336315"/>
      </g>
     </g>
    </g>
    <g id="ytick_19">
     <g id="line2d_53">
      <defs>
       <path d="
M0 0
L2 0" id="m4f90f0057a"/>
      </defs>
      <g>
       <use style="stroke:#000000;stroke-linecap:butt;stroke-width:0.5;" x="55.50625" xlink:href="#m4f90f0057a" y="161.804472832"/>
      </g>
     </g>
    </g>
    <g id="ytick_20">
     <g id="line2d_54">
      <defs>
       <path d="
M0 0
L2 0" id="m4f90f0057a"/>
      </defs>
      <g>
       <use style="stroke:#000000;stroke-linecap:butt;stroke-width:0.5;" x="55.50625" xlink:href="#m4f90f0057a" y="143.350609348"/>
      </g>
     </g>
    </g>
    <g id="ytick_21">
     <g id="line2d_55">
      <defs>
       <path d="
M0 0
L2 0" id="m4f90f0057a"/>
      </defs>
      <g>
       <use style="stroke:#000000;stroke-linecap:butt;stroke-width:0.5;" x="55.50625" xlink:href="#m4f90f0057a" y="124.896745865"/>
      </g>
     </g>
    </g>
    <g id="ytick_22">
     <g id="line2d_56">
      <defs>
       <path d="
M0 0
L2 0" id="m4f90f0057a"/>
      </defs>
      <g>
       <use style="stroke:#000000;stroke-linecap:butt;stroke-width:0.5;" x="55.50625" xlink:href="#m4f90f0057a" y="106.442882381"/>
      </g>
     </g>
    </g>
    <g id="ytick_23">
     <g id="line2d_57">
      <defs>
       <path d="
M0 0
L2 0" id="m4f90f0057a"/>
      </defs>
      <g>
       <use style="stroke:#000000;stroke-linecap:butt;stroke-width:0.5;" x="55.50625" xlink:href="#m4f90f0057a" y="87.9890188974"/>
      </g>
     </g>
    </g>
    <g id="ytick_24">
     <g id="line2d_58">
      <defs>
       <path d="
M0 0
L2 0" id="m4f90f0057a"/>
      </defs>
      <g>
       <use style="stroke:#000000;stroke-linecap:butt;stroke-width:0.5;" x="55.50625" xlink:href="#m4f90f0057a" y="69.5351554138"/>
      </g>
     </g>
    </g>
    <g id="ytick_25">
     <g id="line2d_59">
      <defs>
       <path d="
M0 0
L2 0" id="m4f90f0057a"/>
      </defs>
      <g>
       <use style="stroke:#000000;stroke-linecap:butt;stroke-width:0.5;" x="55.50625" xlink:href="#m4f90f0057a" y="51.0812919302"/>
      </g>
     </g>
    </g>
    <g id="ytick_26">
     <g id="line2d_60">
      <defs>
       <path d="
M0 0
L2 0" id="m4f90f0057a"/>
      </defs>
      <g>
       <use style="stroke:#000000;stroke-linecap:butt;stroke-width:0.5;" x="55.50625" xlink:href="#m4f90f0057a" y="32.6274284467"/>
      </g>
     </g>
    </g>
   </g>
   <g id="patch_3">
    <path d="
M45.9168 254.074
L544.568 254.074" style="fill:none;stroke:#000000;stroke-width:0.8;"/>
   </g>
   <g id="patch_4">
    <path d="
M55.5063 413.28
L55.5063 7.2" style="fill:none;stroke:#000000;stroke-width:0.8;"/>
   </g>
  </g>
 </g>
 <defs>
  <clipPath id="pcd671acca0">
   <rect height="406.08" width="498.651542578" x="45.9167982171" y="7.2"/>
  </clipPath>
 </defs>
</svg>
