<?xml version="1.0" encoding="utf-8" standalone="no"?>
<!DOCTYPE svg PUBLIC "-//W3C//DTD SVG 1.1//EN"
  "http://www.w3.org/Graphics/SVG/1.1/DTD/svg11.dtd">
<!-- Created with matplotlib (http://matplotlib.sourceforge.net/) -->
<svg height="419pt" version="1.1" viewBox="0 0 564 419" width="564pt" xmlns="http://www.w3.org/2000/svg" xmlns:xlink="http://www.w3.org/1999/xlink">
 <defs>
  <style type="text/css">
*{stroke-linecap:square;stroke-linejoin:round;}
  </style>
 </defs>
 <g id="figure_1">
  <g id="patch_1">
   <path d="
M2.22045e-16 419.509
L564.686 419.509
L564.686 0
L2.22045e-16 0
z
" style="fill:#ffffff;"/>
  </g>
  <g id="axes_1">
   <g id="patch_2">
    <path d="
M65.5062 412.309
L557.486 412.309
L557.486 8.95623
L65.5062 8.95623
z
" style="fill:#ffffff;"/>
   </g>
   <g id="line2d_1">
    <path clip-path="url(#p963b287e84)" d="
M74.9674 167.892
L84.5434 167.892
L84.5434 242.94
L96.6077 242.94
L96.6077 328.433
L104.554 328.433
L104.554 349.918
L115.229 349.918
L115.229 395.795
L119.174 395.795
L119.174 404.552
L125.51 404.552
L125.51 397.034
L128.137 397.034
L128.137 397.318
L138.124 397.408
L138.124 399.223
L139.699 399.223
L139.699 399.555
L143.877 399.555
L143.877 390.644
L146.302 390.644
L146.302 383.8
L147.427 383.8
L147.427 383.063
L149.527 383.063
L149.527 384.709
L152.365 384.709
L152.365 381.661
L154.898 381.661
L154.898 381.954
L155.685 381.954
L155.685 381.305
L157.901 381.305
L157.901 374.979
L159.27 374.979
L159.27 372.726
L159.926 372.726
L159.926 371.959
L161.792 371.959
L161.792 368.746
L162.958 368.746
L162.958 368.343
L164.607 368.343
L164.607 368.989
L166.64 368.989
L166.64 366.107
L167.594 366.107
L167.594 365.51
L168.057 365.51
L168.057 365.122
L168.957 365.122
L168.957 365.846
L169.394 365.846
L169.394 365.402
L170.245 365.402
L170.245 363.719
L173.004 363.719
L173.004 356.192
L173.736 356.192
L173.736 353.782
L174.794 353.782
L174.794 351.905
L175.136 351.905
L175.136 351.491
L176.777 351.491
L176.777 348.303
L177.092 348.303
L177.092 347.927
L178.012 347.927
L178.012 346.711
L178.898 346.711
L178.898 345.973
L179.47 345.973
L179.47 345.349
L180.304 345.349
L180.304 345.081
L181.372 345.112
L181.372 345.353
L182.642 345.353
L182.642 345.963
L182.888 345.963
L182.888 345.841
L183.372 345.841
L183.372 345.495
L183.611 345.495
L183.611 345.35
L184.994 345.35
L184.994 344.51
L186.3 344.51
L186.3 342.935
L186.72 342.935
L186.72 342.055
L186.927 342.055
L186.927 341.448
L187.336 341.448
L187.336 339.973
L187.937 339.973
L187.937 337.177
L188.133 337.177
L188.133 336.534
L189.094 336.534
L189.094 333.773
L189.651 333.773
L189.651 332.739
L190.196 332.739
L190.196 331.784
L190.729 331.784
L190.729 330.56
L190.904 330.56
L190.904 330.092
L191.421 330.092
L191.421 329.285
L191.76 329.285
L191.76 328.787
L191.927 328.787
L191.927 328.656
L192.748 328.656
L192.748 327.896
L193.85 327.896
L193.85 325.933
L194.156 325.933
L194.156 325.312
L194.307 325.312
L194.307 324.943
L194.607 324.943
L194.607 324.226
L195.628 324.226
L195.628 321.38
L196.052 321.38
L196.052 320.121
L196.742 320.121
L196.742 318.576
L196.878 318.576
L196.878 318.158
L197.147 318.158
L197.147 317.087
L197.545 317.087
L197.545 315.767
L198.066 315.767
L198.066 314.368
L198.449 314.368
L198.449 313.538
L198.826 313.538
L198.826 313.007
L199.074 313.007
L199.074 312.695
L199.441 312.695
L199.441 312.246
L199.922 312.246
L199.922 311.858
L200.158 311.858
L200.158 311.68
L200.625 311.68
L200.625 311.307
L201.862 311.237
L201.972 310.565
L202.297 310.565
L202.297 310.447
L202.511 310.447
L202.511 310.16
L202.829 310.16
L202.829 309.822
L203.246 309.822
L203.246 309.034
L203.452 309.034
L203.554 308.514
L203.757 308.514
L203.757 308.186
L204.356 308.186
L204.356 307.596
L204.747 307.596
L204.747 307.039
L204.941 307.039
L204.941 306.669
L205.322 306.669
L205.322 306.007
L205.511 306.007
L205.511 305.601
L205.791 305.601
L205.791 305.156
L206.341 305.156
L206.432 303.951
L207.231 303.951
L207.231 302.772
L207.491 302.772
L207.491 302.433
L207.919 302.433
L207.919 301.812
L208.172 301.812
L208.172 301.457
L208.423 301.457
L208.505 300.966
L208.752 300.966
L208.752 300.734
L209.158 300.734
L209.158 300.108
L209.398 300.108
L209.398 299.617
L209.636 299.617
L209.715 298.668
L209.949 298.668
L209.949 297.835
L210.182 297.835
L210.182 297.105
L210.335 297.105
L210.412 296.426
L210.865 296.426
L210.865 295.199
L211.237 295.199
L211.31 293.996
L211.457 293.996
L211.457 293.6
L211.675 293.6
L211.675 293.037
L211.891 293.037
L211.962 292.48
L212.387 292.48
L212.387 291.358
L212.527 291.358
L212.527 290.96
L212.735 290.96
L212.735 290.507
L213.01 290.507
L213.01 289.982
L213.35 289.982
L213.35 289.25
L213.618 289.25
L213.618 288.667
L213.949 288.667
L213.949 288.076
L214.21 288.076
L214.21 287.555
L214.404 287.555
L214.404 287.161
L214.597 287.161
L214.597 286.872
L214.724 286.872
L214.724 286.59
L214.977 286.59
L214.977 286.017
L215.165 286.017
L215.165 285.656
L215.289 285.656
L215.289 285.455
L215.536 285.455
L215.536 285.018
L215.659 285.018
L215.659 284.768
L216.083 284.768
L216.083 283.943
L216.381 283.943
L216.381 283.496
L216.734 283.496
L216.792 282.594
L217.082 282.594
L217.139 281.996
L217.254 281.996
L217.311 281.612
L217.594 281.612
L217.594 281.018
L217.985 281.018
L218.095 279.988
L218.15 279.988
L218.26 279.633
L218.64 279.633
L218.748 278.493
L218.908 278.403
L218.908 278.218
L219.434 278.218
L219.538 277.315
L219.745 277.315
L219.745 277.016
L220 277.016
L220 276.62
L220.203 276.62
L220.304 276.247
L220.454 276.247
L220.454 275.982
L220.603 275.982
L220.603 275.766
L220.947 275.766
L221.045 274.995
L221.19 274.995
L221.19 274.707
L221.335 274.707
L221.335 274.465
L221.526 274.465
L221.526 274.065
L221.669 274.065
L221.669 273.78
L221.951 273.78
L222.045 272.891
L222.184 272.891
L222.231 272.398
L222.461 272.398
L222.507 271.612
L222.643 271.612
L222.643 271.209
L222.87 271.209
L222.915 270.426
L223.138 270.426
L223.183 269.782
L223.316 269.782
L223.316 269.42
L223.71 269.42
L223.797 268.208
L223.926 268.122
L223.926 267.993
L224.055 267.993
L224.055 267.853
L224.353 267.777
L224.353 267.727
L224.605 267.631
L224.605 267.507
L225.061 267.507
L225.102 266.785
L225.306 266.785
L225.306 266.546
L225.468 266.546
L225.468 266.307
L225.669 266.307
L225.669 266.017
L225.788 266.017
L225.788 265.864
L225.908 265.864
L225.908 265.724
L226.065 265.724
L226.065 265.57
L226.3 265.57
L226.378 265.289
L226.763 265.181
L226.763 265.095
L226.991 265.095
L226.991 264.89
L227.179 264.89
L227.179 264.658
L227.515 264.658
L227.625 264.257
L228.063 264.149
L228.063 264.072
L228.279 264.072
L228.315 263.755
L228.422 263.755
L228.422 263.603
L229.019 263.603
L229.123 262.222
L229.226 262.222
L229.226 262.07
L229.364 262.07
L229.364 261.827
L229.669 261.827
L229.669 261.45
L229.838 261.45
L229.838 261.166
L230.071 261.166
L230.171 260.626
L230.335 260.55
L230.335 260.396
L230.466 260.396
L230.564 260.007
L230.661 260.007
L230.661 259.85
L230.855 259.85
L230.855 259.566
L231.015 259.566
L231.11 259.108
L231.205 259.025
L231.3 258.654
L231.488 258.654
L231.488 258.16
L231.675 258.16
L231.675 257.623
L231.799 257.623
L231.799 257.304
L231.983 257.304
L232.075 256.557
L232.136 256.557
L232.227 256.225
L232.348 256.225
L232.408 255.953
L232.528 255.953
L232.588 255.774
L232.796 255.774
L232.855 255.496
L233.031 255.385
L233.119 255.237
L233.235 255.212
L233.235 255.125
L233.38 255.125
L233.38 254.906
L233.667 254.906
L233.752 254.266
L233.837 254.168
L233.837 254.111
L234.174 254.111
L234.258 253.137
L234.397 253.137
L234.397 252.822
L234.562 252.822
L234.589 252.44
L234.726 252.44
L234.835 252.034
L234.916 252.034
L234.997 251.781
L235.078 251.781
L235.078 251.653
L235.318 251.653
L235.398 251.222
L235.477 251.13
L235.477 251.094
L235.635 251.094
L235.635 250.865
L235.766 250.865
L235.766 250.636
L235.922 250.636
L236.025 250.2
L236.23 250.2
L236.23 249.948
L236.409 249.948
L236.485 249.687
L236.611 249.578
L236.636 249.472
L236.762 249.472
L236.762 249.311
L236.911 249.311
L236.986 248.905
L237.06 248.905
L237.06 248.771
L237.281 248.771
L237.305 248.381
L237.5 248.381
L237.524 247.995
L237.789 247.995
L237.861 247.482
L237.956 247.482
L238.027 247.155
L238.145 247.055
L238.24 246.906
L238.427 246.836
L238.45 246.702
L238.566 246.702
L238.566 246.532
L238.728 246.532
L238.728 246.245
L238.843 246.245
L238.911 245.833
L239.048 245.833
L239.138 245.196
L239.251 245.196
L239.251 244.832
L239.386 244.832
L239.408 244.304
L239.586 244.304
L239.675 243.584
L239.719 243.584
L239.741 243.401
L239.851 243.401
L239.939 242.995
L240.135 242.995
L240.135 242.621
L240.393 242.621
L240.5 241.993
L240.585 241.993
L240.585 241.83
L240.755 241.83
L240.818 241.352
L240.902 241.352
L240.902 241.202
L241.07 241.202
L241.132 240.816
L241.215 240.816
L241.277 240.507
L241.339 240.507
L241.38 240.263
L241.503 240.263
L241.524 239.945
L241.747 239.945
L241.828 239.196
L241.889 239.196
L241.989 238.745
L242.129 238.745
L242.228 238.199
L242.308 238.157
L242.406 237.854
L242.524 237.854
L242.583 237.548
L242.777 237.442
L242.874 237.076
L242.99 237.076
L243.066 236.804
L243.162 236.73
L243.162 236.682
L243.408 236.682
L243.408 236.325
L243.578 236.325
L243.671 235.903
L243.746 235.903
L243.839 235.554
L243.913 235.515
L243.913 235.422
L244.115 235.422
L244.225 234.874
L244.388 234.846
L244.496 234.447
L244.604 234.447
L244.604 234.269
L244.73 234.269
L244.836 233.832
L244.943 233.752
L245.049 233.296
L245.101 233.205
L245.189 232.929
L245.259 232.929
L245.363 232.519
L245.45 232.519
L245.554 232.132
L245.622 232.132
L245.657 231.949
L245.777 231.949
L245.862 231.505
L245.964 231.505
L246.065 231.078
L246.216 231.041
L246.216 230.721
L246.333 230.721
L246.417 230.279
L246.483 230.279
L246.566 229.987
L246.714 229.987
L246.779 229.68
L246.91 229.589
L246.959 229.456
L247.104 229.368
L247.201 229.095
L247.313 229.095
L247.393 228.884
L247.678 228.839
L247.772 228.64
L247.976 228.563
L248.069 228.316
L248.161 228.316
L248.208 228.142
L248.3 228.142
L248.377 227.911
L248.529 227.911
L248.62 227.529
L248.741 227.529
L248.741 227.345
L248.936 227.345
L248.98 226.979
L249.07 226.979
L249.144 226.7
L249.232 226.7
L249.335 226.373
L249.423 226.322
L249.423 226.24
L249.584 226.24
L249.642 225.88
L249.729 225.88
L249.729 225.733
L249.93 225.733
L250.03 225.2
L250.101 225.11
L250.158 224.95
L250.243 224.95
L250.271 224.79
L250.356 224.79
L250.454 224.565
L250.691 224.473
L250.732 224.309
L250.87 224.309
L250.98 224.05
L251.117 223.945
L251.117 223.937
L251.401 223.87
L251.508 223.744
L251.708 223.649
L251.801 223.497
L252.038 223.387
L252.142 223.255
L252.376 223.145
L252.466 222.977
L252.696 222.902
L252.76 222.793
L252.887 222.718
L252.887 222.672
L253.025 222.672
L253.075 222.49
L253.225 222.439
L253.288 222.332
L253.473 222.233
L253.584 222.053
L253.743 221.985
L253.816 221.796
L253.925 221.796
L254.021 221.581
L254.141 221.532
L254.165 221.426
L254.415 221.351
L254.522 221.28
L254.78 221.175
L254.815 221.159
L255.058 221.069
L255.127 220.985
L255.253 220.882
L255.287 220.822
L255.401 220.711
L255.503 220.587
L255.638 220.587
L255.739 220.303
L255.873 220.195
L255.973 220.072
L256.128 219.97
L256.172 219.913
L256.456 219.812
L256.532 219.777
L256.95 219.669
L257.035 219.499
L257.162 219.45
L257.225 219.235
L257.33 219.135
L257.382 219.028
L257.507 219.028
L257.611 218.738
L257.735 218.639
L257.797 218.529
L257.97 218.421
L258.072 218.171
L258.183 218.069
L258.244 217.923
L258.394 217.822
L258.454 217.591
L258.544 217.591
L258.584 217.367
L258.702 217.367
L258.791 217.015
L258.85 217.015
L258.938 216.745
L259.085 216.745
L259.162 216.429
L259.288 216.335
L259.365 216.11
L259.432 216.014
L259.518 215.843
L259.594 215.798
L259.689 215.537
L259.746 215.482
L259.849 215.193
L259.934 215.172
L260.027 214.787
L260.111 214.787
L260.213 214.336
L260.278 214.236
L260.306 214.089
L260.435 214.089
L260.545 213.449
L260.627 213.346
L260.718 213.003
L260.799 213.003
L260.844 212.722
L260.952 212.722
L261.042 212.272
L261.113 212.272
L261.167 211.982
L261.229 211.982
L261.335 211.614
L261.485 211.578
L261.564 211.103
L261.625 211.02
L261.729 210.688
L261.781 210.622
L261.877 210.31
L261.928 210.219
L262.031 209.897
L262.083 209.897
L262.134 209.623
L262.245 209.623
L262.347 209.088
L262.389 209.088
L262.389 208.974
L262.524 208.974
L262.624 208.339
L262.666 208.262
L262.774 207.933
L262.816 207.867
L262.915 207.571
L262.998 207.571
L263.047 207.266
L263.17 207.266
L263.26 206.73
L263.309 206.657
L263.414 206.304
L263.454 206.258
L263.535 205.977
L263.583 205.872
L263.671 205.643
L263.751 205.643
L263.815 205.31
L263.871 205.31
L263.981 204.86
L264.084 204.795
L264.17 204.332
L264.225 204.24
L264.319 203.947
L264.365 203.889
L264.451 203.602
L264.497 203.602
L264.574 203.267
L264.613 203.267
L264.689 202.91
L264.728 202.91
L264.827 202.477
L264.873 202.425
L264.941 202.101
L265.009 202.101
L265.1 201.669
L265.16 201.614
L265.25 201.351
L265.317 201.27
L265.406 201.057
L265.481 200.97
L265.569 200.808
L265.658 200.808
L265.768 200.546
L265.848 200.447
L265.914 200.344
L266.023 200.344
L266.131 200.043
L266.225 199.947
L266.332 199.791
L266.439 199.742
L266.525 199.596
L266.673 199.485
L266.779 199.401
L266.981 199.294
L267.092 199.155
L267.251 199.051
L267.354 198.953
L267.517 198.911
L267.619 198.75
L267.828 198.641
L267.929 198.536
L268.102 198.43
L268.201 198.33
L268.503 198.227
L268.535 198.204
L268.846 198.095
L268.91 198.072
L269.649 197.968
L269.704 197.923
L269.945 197.82
L270.031 197.752
L270.219 197.693
L270.322 197.529
L270.455 197.434
L270.557 197.315
L270.83 197.211
L270.901 197.164
L271.176 197.063
L271.281 196.954
L271.46 196.85
L271.557 196.728
L271.683 196.636
L271.768 196.554
L272.056 196.462
L272.135 196.328
L272.357 196.224
L272.457 196.143
L272.671 196.047
L272.78 195.961
L272.916 195.869
L272.997 195.754
L273.11 195.696
L273.206 195.508
L273.334 195.401
L273.429 195.219
L273.535 195.137
L273.635 194.987
L273.74 194.891
L273.808 194.729
L273.901 194.633
L273.989 194.431
L274.051 194.331
L274.159 194.09
L274.221 193.993
L274.297 193.821
L274.358 193.727
L274.465 193.516
L274.531 193.421
L274.637 193.24
L274.707 193.151
L274.817 192.953
L274.887 192.873
L274.991 192.609
L275.125 192.531
L275.233 192.193
L275.345 192.096
L275.452 191.894
L275.564 191.799
L275.67 191.609
L275.766 191.521
L275.852 191.4
L275.981 191.313
L276.057 191.206
L276.208 191.111
L276.307 190.964
L276.433 190.874
L276.535 190.674
L276.614 190.61
L276.725 190.342
L276.794 190.286
L276.903 190.006
L276.976 189.905
L277.045 189.704
L277.108 189.704
L277.19 189.421
L277.271 189.332
L277.343 189.158
L277.423 189.056
L277.526 188.864
L277.61 188.776
L277.699 188.602
L277.805 188.503
L277.914 188.395
L278.071 188.286
L278.175 188.193
L278.314 188.095
L278.378 188.015
L278.549 187.916
L278.651 187.789
L278.749 187.683
L278.825 187.59
L278.951 187.487
L279.051 187.349
L279.18 187.241
L279.263 187.094
L279.354 187.023
L279.46 186.789
L279.583 186.683
L279.693 186.428
L279.782 186.357
L279.891 186.117
L279.984 186.082
L280.092 185.805
L280.155 185.776
L280.247 185.529
L280.31 185.421
L280.401 185.258
L280.499 185.197
L280.57 185.038
L280.706 184.935
L280.811 184.732
L280.892 184.649
L280.989 184.46
L281.054 184.417
L281.161 184.153
L281.226 184.055
L281.309 183.874
L281.374 183.766
L281.479 183.569
L281.547 183.475
L281.656 183.28
L281.745 183.201
L281.845 183.007
L281.949 182.9
L282.048 182.782
L282.147 182.684
L282.257 182.53
L282.377 182.419
L282.485 182.239
L282.647 182.136
L282.751 182.008
L282.851 181.905
L282.925 181.81
L283.027 181.727
L283.133 181.584
L283.249 181.481
L283.343 181.363
L283.44 181.257
L283.55 181.133
L283.695 181.035
L283.797 180.959
L284.603 180.855
L284.711 180.791
L284.878 180.685
L284.989 180.583
L285.092 180.499
L285.192 180.32
L285.295 180.209
L285.4 180.07
L285.505 179.959
L285.613 179.813
L285.717 179.746
L285.827 179.551
L285.911 179.443
L286.008 179.287
L286.101 179.187
L286.209 178.987
L286.292 178.888
L286.396 178.701
L286.46 178.638
L286.561 178.444
L286.652 178.343
L286.748 178.195
L286.829 178.085
L286.937 177.892
L287.012 177.858
L287.107 177.64
L287.208 177.538
L287.314 177.323
L287.425 177.213
L287.504 177.11
L287.612 177.003
L287.716 176.838
L287.82 176.747
L287.929 176.519
L288.015 176.425
L288.117 176.267
L288.219 176.177
L288.321 176.068
L288.473 175.974
L288.573 175.763
L288.643 175.654
L288.726 175.488
L288.801 175.386
L288.906 175.25
L289.007 175.163
L289.111 175.003
L289.203 174.898
L289.314 174.741
L289.406 174.641
L289.508 174.478
L289.583 174.37
L289.687 174.212
L289.788 174.109
L289.899 173.948
L289.978 173.84
L290.083 173.678
L290.158 173.6
L290.262 173.362
L290.33 173.279
L290.43 173.054
L290.495 172.958
L290.6 172.749
L290.671 172.657
L290.768 172.483
L290.854 172.391
L290.965 172.17
L291.033 172.062
L291.116 171.891
L291.179 171.78
L291.281 171.606
L291.365 171.507
L291.474 171.324
L291.587 171.215
L291.69 171.115
L291.841 171.013
L291.945 170.911
L292.087 170.826
L292.197 170.641
L292.302 170.542
L292.405 170.404
L292.516 170.304
L292.624 170.169
L292.727 170.059
L292.827 169.921
L292.967 169.816
L293.055 169.716
L293.181 169.627
L293.282 169.514
L293.405 169.415
L293.516 169.277
L293.622 169.175
L293.718 169.076
L293.853 168.972
L293.959 168.897
L294.163 168.794
L294.218 168.719
L294.419 168.654
L294.512 168.517
L294.7 168.475
L294.797 168.351
L295.006 168.276
L295.107 168.175
L295.593 168.095
L295.69 167.978
L295.875 167.88
L295.985 167.724
L296.168 167.657
L296.273 167.554
L296.463 167.494
L296.561 167.283
L296.656 167.283
L296.755 167.037
L296.857 167.037
L296.963 166.716
L297.072 166.716
L297.148 166.43
L297.254 166.43
L297.352 166.111
L297.448 166.111
L297.536 165.84
L297.645 165.84
L297.734 165.618
L297.83 165.618
L297.933 165.272
L298.044 165.272
L298.128 164.995
L298.25 164.995
L298.322 164.807
L298.522 164.726
L298.614 164.515
L298.714 164.515
L298.815 164.239
L298.912 164.239
L299.009 163.973
L299.202 163.871
L299.298 163.681
L299.593 163.59
L299.689 163.458
L299.892 163.351
L299.994 163.14
L300.283 163.062
L300.388 162.982
L300.964 162.879
L301.063 162.823
L301.366 162.745
L301.454 162.596
L301.648 162.513
L301.749 162.413
L302.054 162.322
L302.137 162.22
L302.334 162.132
L302.432 162.005
L302.632 161.916
L302.728 161.747
L302.933 161.681
L303.021 161.549
L303.227 161.442
L303.314 161.258
L303.511 161.157
L303.611 160.953
L303.809 160.844
L303.901 160.627
L304.002 160.627
L304.097 160.322
L304.197 160.322
L304.296 159.996
L304.394 159.996
L304.494 159.674
L304.586 159.674
L304.688 159.395
L304.799 159.395
L304.877 159.086
L304.979 159.086
L304.979 158.896
L305.108 158.896
L305.173 158.545
L305.272 158.545
L305.367 158.191
L305.47 158.191
L305.577 157.832
L305.666 157.832
L305.762 157.465
L305.856 157.465
L305.963 157.082
L306.057 157.082
L306.156 156.696
L306.262 156.696
L306.349 156.359
L306.444 156.359
L306.545 156.114
L306.739 156.017
L306.836 155.835
L307.032 155.735
L307.129 155.56
L307.326 155.452
L307.427 155.207
L307.619 155.111
L307.72 154.939
L307.916 154.87
L308.016 154.705
L308.213 154.596
L308.311 154.347
L308.402 154.347
L308.502 154.077
L308.602 154.077
L308.699 153.854
L308.794 153.854
L308.898 153.604
L308.997 153.604
L309.089 153.26
L309.189 153.26
L309.294 152.912
L309.385 152.912
L309.489 152.617
L309.577 152.617
L309.68 152.267
L309.776 152.267
L309.878 151.855
L309.972 151.855
L310.07 151.366
L310.171 151.366
L310.261 150.893
L310.371 150.893
L310.457 150.49
L310.558 150.49
L310.656 150.043
L310.783 150.043
L310.852 149.613
L310.957 149.613
L311.053 149.223
L311.144 149.223
L311.245 148.878
L311.352 148.878
L311.441 148.594
L311.536 148.594
L311.634 148.381
L311.832 148.301
L311.925 148.176
L312.133 148.098
L312.23 147.831
L312.319 147.831
L312.417 147.559
L312.514 147.559
L312.614 147.284
L312.714 147.284
L312.81 147.003
L312.915 147.003
L313.01 146.699
L313.203 146.59
L313.3 146.39
L313.496 146.301
L313.591 146.134
L313.787 146.04
L313.883 145.789
L313.988 145.789
L314.08 145.53
L314.179 145.53
L314.278 145.296
L314.47 145.203
L314.576 144.994
L314.766 144.889
L314.865 144.625
L315.062 144.519
L315.159 144.274
L315.359 144.169
L315.453 143.967
L315.645 143.865
L315.751 143.657
L315.943 143.578
L316.044 143.422
L316.239 143.346
L316.331 143.139
L316.429 143.139
L316.527 142.914
L316.723 142.809
L316.824 142.623
L317.018 142.526
L317.114 142.318
L317.219 142.318
L317.31 142.085
L317.414 142.085
L317.505 141.796
L317.603 141.796
L317.705 141.471
L317.8 141.471
L317.903 141.197
L317.996 141.197
L318.097 140.963
L318.29 140.854
L318.39 140.647
L318.584 140.543
L318.681 140.315
L318.784 140.315
L318.877 140.089
L318.974 140.089
L319.073 139.865
L319.277 139.792
L319.37 139.653
L319.562 139.563
L319.663 139.354
L319.854 139.245
L319.953 139.055
L320.15 138.945
L320.248 138.807
L320.445 138.732
L320.54 138.645
L320.737 138.582
L320.836 138.445
L321.324 138.339
L321.423 138.289
L322.013 138.197
L322.111 138.093
L323.868 138.021
L323.968 137.926
L324.164 137.862
L324.26 137.729
L324.456 137.661
L324.556 137.528
L324.847 137.419
L324.946 137.275
L325.238 137.18
L325.338 137.043
L325.532 136.958
L325.629 136.759
L325.825 136.65
L325.926 136.421
L326.021 136.421
L326.119 136.148
L326.216 136.148
L326.317 135.865
L326.418 135.865
L326.512 135.572
L326.61 135.572
L326.707 135.276
L326.805 135.276
L326.909 134.994
L327.005 134.994
L327.098 134.719
L327.196 134.719
L327.294 134.399
L327.394 134.399
L327.492 134.063
L327.589 134.063
L327.688 133.711
L327.786 133.711
L327.882 133.39
L327.978 133.39
L328.078 133.093
L328.175 133.093
L328.273 132.851
L328.469 132.763
L328.569 132.609
L328.762 132.531
L328.859 132.366
L329.056 132.256
L329.156 132.011
L329.252 132.011
L329.349 131.766
L329.447 131.766
L329.548 131.522
L329.643 131.522
L329.745 131.215
L329.838 131.215
L329.94 130.944
L330.034 130.944
L330.133 130.665
L330.232 130.665
L330.33 130.395
L330.426 130.395
L330.526 130.181
L330.719 130.076
L330.818 129.856
L331.013 129.767
L331.118 129.536
L331.307 129.439
L331.406 129.258
L331.507 129.258
L331.603 128.992
L331.699 128.992
L331.799 128.683
L331.897 128.683
L331.996 128.427
L332.09 128.427
L332.197 128.175
L332.383 128.072
L332.483 127.866
L332.68 127.77
L332.778 127.55
L332.873 127.55
L332.972 127.305
L333.167 127.2
L333.268 126.925
L333.362 126.925
L333.463 126.676
L333.559 126.676
L333.658 126.447
L333.853 126.367
L333.951 126.189
L334.145 126.12
L334.243 125.953
L334.44 125.879
L334.537 125.676
L334.734 125.567
L334.831 125.323
L334.929 125.323
L335.027 125.079
L335.223 124.978
L335.324 124.792
L335.516 124.693
L335.614 124.477
L335.714 124.477
L335.81 124.239
L335.909 124.239
L336.005 123.987
L336.106 123.987
L336.202 123.745
L336.302 123.745
L336.401 123.495
L336.498 123.495
L336.596 123.271
L336.69 123.271
L336.791 123.016
L336.886 123.016
L336.985 122.75
L337.083 122.75
L337.18 122.524
L337.279 122.524
L337.379 122.318
L337.573 122.253
L337.67 122.153
L337.963 122.061
L338.061 121.901
L338.257 121.807
L338.356 121.644
L338.551 121.534
L338.65 121.305
L338.749 121.305
L338.844 121.072
L339.04 120.994
L339.14 120.877
L339.431 120.773
L339.53 120.677
L339.725 120.592
L339.824 120.454
L340.019 120.396
L340.116 120.28
L340.312 120.219
L340.413 120.098
L340.608 120.031
L340.706 119.886
L340.9 119.814
L341.005 119.695
L342.271 119.628
L342.37 119.543
L342.661 119.451
L342.759 119.382
L343.152 119.272
L343.249 119.171
L343.445 119.108
L343.543 118.911
L343.747 118.817
L343.838 118.625
L344.033 118.518
L344.132 118.328
L344.326 118.252
L344.424 118.075
L344.62 117.967
L344.717 117.74
L344.913 117.648
L345.011 117.488
L345.305 117.395
L345.404 117.294
L346.381 117.202
L346.479 117.12
L346.775 117.01
L346.872 116.853
L347.263 116.764
L347.366 116.666
L347.556 116.607
L347.656 116.485
L347.947 116.421
L348.045 116.305
L348.34 116.201
L348.438 116.014
L348.633 115.942
L348.73 115.802
L348.928 115.704
L349.024 115.467
L349.124 115.467
L349.22 115.218
L349.318 115.218
L349.419 114.964
L349.513 114.964
L349.612 114.706
L349.709 114.706
L349.809 114.449
L349.905 114.449
L350.003 114.23
L350.199 114.14
L350.298 113.953
L350.395 113.953
L350.493 113.728
L350.69 113.622
L350.786 113.43
L350.982 113.332
L351.081 113.15
L351.276 113.048
L351.373 112.858
L351.569 112.752
L351.667 112.512
L351.766 112.512
L351.863 112.226
L351.961 112.226
L352.059 111.958
L352.156 111.958
L352.254 111.653
L352.352 111.653
L352.452 111.355
L352.551 111.355
L352.648 111.089
L352.745 111.089
L352.842 110.8
L352.941 110.8
L353.037 110.494
L353.136 110.494
L353.233 110.168
L353.331 110.168
L353.429 109.873
L353.528 109.873
L353.627 109.643
L353.823 109.533
L353.918 109.325
L354.114 109.217
L354.212 109.022
L354.31 109.022
L354.409 108.797
L354.605 108.686
L354.701 108.477
L354.897 108.394
L354.995 108.234
L355.191 108.15
L355.288 108.014
L355.484 107.96
L355.583 107.841
L355.779 107.776
L355.877 107.645
L356.072 107.566
L356.17 107.402
L356.368 107.33
L356.463 107.161
L356.66 107.087
L356.757 106.944
L357.051 106.849
L357.148 106.756
L357.442 106.654
L357.541 106.546
L357.833 106.445
L357.932 106.324
L358.127 106.261
L358.227 106.132
L358.519 106.053
L358.619 105.989
L358.912 105.913
L359.008 105.844
L359.4 105.744
L359.498 105.647
L360.183 105.558
L360.281 105.481
L360.575 105.38
L360.673 105.331
L360.868 105.274
L360.966 105.113
L361.162 105.013
L361.261 104.827
L361.456 104.742
L361.553 104.526
L361.651 104.526
L361.75 104.279
L361.847 104.279
L361.945 104.053
L362.043 104.053
L362.142 103.808
L362.239 103.808
L362.337 103.57
L362.434 103.57
L362.532 103.338
L362.63 103.338
L362.728 103.053
L362.826 103.053
L362.924 102.833
L363.12 102.725
L363.217 102.516
L363.414 102.406
L363.512 102.193
L363.609 102.193
L363.707 101.949
L363.804 101.949
L363.903 101.705
L364 101.705
L364.098 101.463
L364.196 101.463
L364.294 101.196
L364.392 101.196
L364.49 100.952
L364.685 100.846
L364.783 100.552
L364.882 100.552
L364.98 100.32
L365.175 100.216
L365.273 100.018
L365.469 99.91
L365.568 99.7361
L365.764 99.6718
L365.86 99.5554
L366.056 99.4925
L366.155 99.3918
L366.449 99.2969
L366.546 99.2312
L366.839 99.1448
L366.937 98.9974
L367.133 98.9274
L367.231 98.8147
L367.818 98.7158
L367.917 98.6668
L368.21 98.5779
L368.307 98.4663
L368.504 98.4023
L368.601 98.2884
L368.797 98.2278
L368.895 98.087
L369.092 98.0216
L369.188 97.8874
L369.482 97.7814
L369.58 97.6921
L369.972 97.6024
L370.069 97.511
L370.461 97.4128
L370.559 97.3037
L370.755 97.243
L370.853 97.1236
L371.048 97.0629
L371.146 96.9661
L371.44 96.8916
L371.538 96.8162
L371.831 96.708
L371.929 96.5704
L372.517 96.4688
L372.615 96.4166
L373.104 96.3385
L373.202 96.233
L373.594 96.1309
L373.691 96.0751
L374.278 95.9648
L374.376 95.9267
L374.768 95.8273
L374.866 95.7264
L375.061 95.6649
L375.159 95.516
L375.355 95.4551
L375.453 95.3263
L375.649 95.2429
L375.747 95.086
L375.943 95.0361
L376.04 94.9076
L376.236 94.8411
L376.334 94.707
L376.53 94.6228
L376.628 94.4373
L376.823 94.3347
L376.922 94.1864
L377.117 94.1198
L377.215 93.9995
L377.411 93.9446
L377.509 93.8121
L377.802 93.7012
L377.901 93.579
L378.097 93.4928
L378.194 93.3074
L378.39 93.2143
L378.488 92.994
L378.585 92.994
L378.684 92.7482
L378.781 92.7482
L378.879 92.4547
L378.977 92.4547
L379.075 92.1552
L379.173 92.1552
L379.27 91.8567
L379.368 91.8567
L379.466 91.5388
L379.564 91.5388
L379.662 91.2675
L379.76 91.2675
L379.858 90.9662
L379.956 90.9662
L380.055 90.6779
L380.152 90.6779
L380.249 90.42
L380.445 90.311
L380.543 90.1021
L380.739 90.0075
L380.837 89.7786
L380.934 89.7786
L381.033 89.4931
L381.13 89.4931
L381.228 89.1897
L381.327 89.1897
L381.424 88.9018
L381.522 88.9018
L381.62 88.648
L381.718 88.648
L381.816 88.4264
L381.914 88.4264
L382.011 88.2018
L382.109 88.2018
L382.207 87.9719
L382.403 87.8614
L382.501 87.6465
L382.599 87.6465
L382.696 87.4047
L382.794 87.4047
L382.892 87.1781
L383.088 87.077
L383.186 86.8795
L383.382 86.794
L383.48 86.5905
L383.675 86.4981
L383.774 86.3367
L383.969 86.2441
L384.068 86.0802
L384.361 85.9982
L384.459 85.9042
L384.654 85.8501
L384.752 85.7184
L385.046 85.6446
L385.144 85.5637
L385.437 85.481
L385.535 85.353
L385.731 85.2633
L385.829 85.1056
L386.025 85.0526
L386.123 84.9225
L386.417 84.8169
L386.514 84.7123
L386.808 84.6122
L386.906 84.535
L388.178 84.6374
L388.276 84.6708
L389.256 84.5966
L389.353 84.5087
L389.646 84.4152
L389.744 84.3646
L390.331 84.2696
L390.429 84.2154
L390.919 84.1061
L391.017 84.0199
L391.702 83.9093
L391.8 83.8952
L392.289 83.8132
L392.387 83.7324
L392.779 83.6238
L392.877 83.5074
L393.17 83.4008
L393.268 83.2597
L393.464 83.1849
L393.562 83.0279
L393.758 82.9489
L393.855 82.7964
L394.051 82.7321
L394.149 82.6001
L394.345 82.4896
L394.443 82.2414
L394.541 82.2414
L394.639 82.0296
L394.834 81.9496
L394.932 81.7875
L395.128 81.6834
L395.226 81.5288
L395.422 81.4689
L395.519 81.3302
L395.715 81.2601
L395.813 81.1187
L396.009 81.0479
L396.107 80.9233
L396.303 80.8393
L396.4 80.6781
L396.596 80.6104
L396.694 80.4711
L396.89 80.3964
L396.988 80.2289
L397.184 80.1312
L397.281 79.9415
L397.379 79.9415
L397.477 79.71
L397.673 79.6096
L397.771 79.4295
L397.967 79.3266
L398.064 79.0854
L398.26 78.9926
L398.358 78.8653
L398.554 78.7928
L398.652 78.6584
L398.848 78.5789
L398.945 78.4326
L399.142 78.3497
L399.239 78.1585
L399.435 78.0688
L399.533 77.9259
L399.826 77.8221
L399.924 77.7151
L400.218 77.6093
L400.316 77.5503
L400.609 77.4514
L400.707 77.3857
L401.099 77.2859
L401.197 77.2048
L401.686 77.1363
L401.784 77.0368
L401.98 76.9694
L402.078 76.7854
L402.176 76.7854
L402.274 76.5489
L402.469 76.4402
L402.567 76.2272
L402.763 76.1313
L402.861 75.987
L403.155 75.9047
L403.252 75.8073
L403.448 75.7343
L403.546 75.5664
L403.742 75.4712
L403.84 75.2847
L404.035 75.1846
L404.133 74.9391
L404.329 74.83
L404.427 74.6228
L404.623 74.5187
L404.721 74.3277
L404.917 74.2268
L405.014 74.0444
L405.21 73.9571
L405.308 73.8177
L405.504 73.7467
L405.602 73.6123
L405.797 73.547
L405.895 73.4118
L406.091 73.3397
L406.189 73.1587
L406.385 73.0611
L406.483 72.8917
L406.581 72.8917
L406.679 72.6618
L406.874 72.5771
L406.972 72.4381
L407.168 72.3771
L407.266 72.2637
L407.461 72.2077
L407.559 72.0694
L407.853 71.9589
L407.951 71.8719
L409.321 71.769
L409.419 71.6818
L409.713 71.5992
L409.811 71.5449
L410.3 71.436
L410.398 71.3555
L410.692 71.2494
L410.79 71.1821
L411.867 71.0735
L411.964 71.0239
L412.258 70.9427
L412.356 70.8369
L412.551 70.7711
L412.65 70.5876
L412.845 70.4863
L412.943 70.3165
L413.139 70.2382
L413.237 70.0861
L413.432 70.0117
L413.53 69.8447
L413.726 69.7607
L413.824 69.6396
L414.02 69.5712
L414.118 69.467
L414.901 69.3666
L414.999 69.3355
L415.488 69.2346
L415.586 69.1317
L416.075 69.0343
L416.173 68.9829
L417.25 68.8779
L417.348 68.8217
L417.837 68.7117
L417.935 68.6053
L418.131 68.5379
L418.229 68.4213
L418.523 68.3135
L418.62 68.1609
L418.816 68.0748
L418.914 67.8827
L419.11 67.7828
L419.208 67.5705
L419.306 67.5705
L419.404 67.3492
L419.599 67.2383
L419.697 67.0334
L419.893 66.9646
L419.991 66.8027
L420.187 66.6958
L420.284 66.4742
L420.48 66.3758
L420.578 66.1905
L420.774 66.1157
L420.872 65.9724
L421.263 65.8811
L421.361 65.8294
L422.144 65.7205
L422.242 65.6117
L422.438 65.5374
L422.536 65.3723
L422.732 65.2912
L422.829 65.1455
L423.025 65.0756
L423.123 64.955
L423.417 64.8678
L423.515 64.7396
L423.808 64.6313
L423.906 64.5461
L424.396 64.4501
L424.493 64.4015
L425.179 64.3208
L425.277 64.2375
L425.864 64.1726
L425.962 64.0628
L426.255 63.9815
L426.353 63.8672
L426.549 63.7895
L426.647 63.6859
L426.843 63.6366
L426.941 63.4888
L427.136 63.4063
L427.234 63.208
L427.43 63.0987
L427.528 62.9377
L427.724 62.8508
L427.822 62.7073
L428.017 62.641
L428.115 62.4848
L428.311 62.406
L428.409 62.2245
L428.605 62.1229
L428.703 61.9603
L428.898 61.8742
L428.996 61.696
L429.192 61.5959
L429.29 61.3929
L429.388 61.3929
L429.486 61.1692
L429.681 61.0675
L429.779 60.9024
L429.975 60.8235
L430.073 60.6873
L430.269 60.6247
L430.367 60.5105
L430.66 60.4272
L430.758 60.349
L431.052 60.2409
L431.15 60.0936
L431.345 60.034
L431.443 59.9327
L431.737 59.8218
L431.835 59.7197
L432.226 59.634
L432.324 59.5717
L432.618 59.4927
L432.716 59.4195
L433.401 59.3287
L433.499 59.2822
L433.891 59.1848
L433.988 59.132
L434.674 59.0517
L434.771 58.9752
L435.163 58.8671
L435.261 58.7783
L435.457 58.7155
L435.555 58.5832
L435.946 58.4737
L436.044 58.4098
L436.533 58.3254
L436.631 58.2155
L436.925 58.1168
L437.023 58.0363
L437.708 57.9304
L437.806 57.8568
L438.197 57.7639
L438.295 57.6439
L438.491 57.5779
L438.589 57.4666
L438.785 57.3996
L438.883 57.2824
L439.078 57.2102
L439.176 57.0621
L439.372 56.9998
L439.47 56.8644
L439.666 56.7942
L439.764 56.7012
L440.253 56.596
L440.351 56.5461
L441.036 56.4384
L441.134 56.3872
L441.623 56.2775
L441.721 56.1834
L442.113 56.0782
L442.211 56.0299
L442.896 55.921
L442.994 55.8849
L443.875 55.7925
L443.973 55.7298
L444.266 55.6554
L444.364 55.5542
L444.658 55.476
L444.756 55.411
L445.049 55.339
L445.147 55.2213
L445.343 55.155
L445.441 55.009
L445.637 54.9382
L445.735 54.7925
L445.93 54.7161
L446.028 54.5754
L446.224 54.5156
L446.322 54.4355
L446.714 54.3383
L446.811 54.2572
L447.007 54.2019
L447.105 54.0816
L447.301 54.0215
L447.399 53.9006
L447.595 53.8443
L447.692 53.6677
L447.888 53.5886
L447.986 53.429
L448.182 53.3659
L448.28 53.2417
L448.475 53.181
L448.573 53.0336
L448.769 52.9503
L448.867 52.8274
L449.063 52.763
L449.161 52.6406
L449.356 52.5727
L449.454 52.4524
L449.748 52.3802
L449.846 52.2618
L450.042 52.1902
L450.14 52.03
L450.335 51.9484
L450.433 51.7969
L450.629 51.7151
L450.727 51.5367
L450.923 51.444
L451.021 51.271
L451.216 51.1886
L451.314 50.9872
L451.412 50.9872
L451.51 50.7649
L451.706 50.6755
L451.804 50.5263
L451.999 50.45
L452.097 50.3179
L452.293 50.2516
L452.391 50.0903
L452.587 50.0109
L452.685 49.8598
L452.88 49.7828
L452.978 49.6149
L453.174 49.5342
L453.272 49.3904
L453.468 49.3294
L453.566 49.2238
L453.859 49.1128
L453.957 49.0126
L454.349 48.9135
L454.446 48.8772
L455.034 48.7832
L455.132 48.7466
L455.621 48.6596
L455.719 48.5883
L456.013 48.5029
L456.111 48.3715
L456.404 48.2618
L456.502 48.1494
L456.796 48.0692
L456.894 47.9846
L457.187 47.8928
L457.285 47.7751
L457.481 47.7047
L457.579 47.6001
L457.775 47.5296
L457.872 47.4056
L458.166 47.3014
L458.264 47.1917
L458.46 47.1231
L458.558 47.0256
L458.753 46.9571
L458.851 46.8039
L459.047 46.7378
L459.145 46.6419
L459.537 46.5541
L459.634 46.5051
L460.222 46.5922
L460.32 46.6902
L460.711 46.784
L460.809 46.8262
L461.201 46.9189
L461.298 46.9875
L461.69 47.0936
L461.788 47.1571
L464.529 47.0531
L464.627 46.977
L464.92 46.8814
L465.018 46.7729
L465.214 46.7202
L465.312 46.5934
L465.508 46.5211
L465.605 46.3642
L465.899 46.269
L465.997 46.1647
L466.291 46.0835
L466.389 45.9672
L466.584 45.8952
L466.682 45.7577
L466.976 45.656
L467.074 45.5373
L467.367 45.4332
L467.465 45.3093
L467.661 45.2439
L467.759 45.1019
L468.15 44.9984
L468.248 44.9191
L468.542 44.8376
L468.64 44.7208
L468.836 44.6436
L468.934 44.4454
L469.129 44.3429
L469.227 44.1534
L469.423 44.0448
L469.521 43.8171
L469.717 43.7085
L469.815 43.5266
L470.01 43.4266
L470.108 43.219
L470.304 43.1101
L470.402 42.8752
L470.598 42.7644
L470.695 42.5826
L470.891 42.5067
L470.989 42.3451
L471.185 42.2625
L471.283 42.0788
L471.479 41.9938
L471.576 41.817
L471.772 41.7408
L471.87 41.6264
L472.066 41.5672
L472.164 41.4579
L472.457 41.3588
L472.555 41.271
L472.849 41.1869
L472.947 41.0898
L473.241 41.007
L473.338 40.9326
L473.632 40.8258
L473.73 40.7204
L473.926 40.6692
L474.024 40.546
L474.317 40.4504
L474.415 40.3401
L474.611 40.2747
L474.709 40.1424
L474.905 40.0835
L475.002 39.9871
L475.296 39.9066
L475.394 39.8318
L477.352 39.9383
L477.45 39.9555
L478.135 39.864
L478.233 39.8185
L479.016 39.7175
L479.114 39.6499
L479.701 39.5445
L479.799 39.5203
L480.778 39.4185
L480.876 39.4037
L481.169 39.3423
L481.267 39.2327
L481.463 39.1729
L481.561 39.0737
L481.854 38.987
L481.952 38.8912
L482.246 38.7852
L482.344 38.7139
L482.638 38.6544
L482.735 38.5479
L483.029 38.441
L483.127 38.3345
L483.421 38.2289
L483.519 38.1099
L483.714 38.0325
L483.812 37.8705
L484.008 37.8012
L484.106 37.6683
L484.302 37.5967
L484.399 37.4621
L484.595 37.4037
L484.693 37.2947
L484.987 37.1837
L485.085 37.0767
L485.378 36.9736
L485.476 36.8956
L485.672 36.8418
L485.77 36.7193
L486.064 36.6239
L486.161 36.5366
L486.455 36.4348
L486.553 36.3295
L486.749 36.2672
L486.847 36.1568
L488.511 36.0529
L488.609 36.0078
L491.643 35.9221
L491.741 35.8355
L492.035 35.7534
L492.132 35.6739
L492.426 35.5726
L492.524 35.4839
L492.818 35.4043
L492.916 35.3177
L493.209 35.2355
L493.307 35.1593
L493.503 35.1039
L493.601 34.9571
L493.796 34.8878
L493.894 34.7553
L494.09 34.7031
L494.188 34.5775
L494.384 34.5105
L494.482 34.389
L494.775 34.2874
L494.873 34.189
L495.167 34.0782
L495.265 33.9705
L495.558 33.8725
L495.656 33.8253
L496.048 33.7367
L496.146 33.6513
L496.342 33.5867
L496.439 33.4674
L496.635 33.3997
L496.733 33.2771
L496.929 33.2218
L497.027 33.1054
L497.32 33.002
L497.418 32.9005
L497.614 32.8317
L497.712 32.7042
L497.908 32.6152
L498.006 32.4563
L498.201 32.3873
L498.299 32.2486
L498.495 32.1912
L498.593 32.066
L498.789 32.0045
L498.887 31.9148
L499.18 31.8332
L499.278 31.7565
L500.061 31.6526
L500.159 31.637
L500.746 31.5452
L500.844 31.4412
L501.04 31.3857
L501.138 31.2652
L501.334 31.1967
L501.432 31.0614
L501.627 30.9877
L501.725 30.85
L501.921 30.7823
L502.019 30.6884
L502.313 30.6054
L502.41 30.496
L502.704 30.4187
L502.802 30.3599
L503.193 30.2692
L503.291 30.207
L503.585 30.1256
L503.683 30.0352
L504.074 29.9408
L504.172 29.9058
L504.858 29.8
L504.955 29.7686
L505.445 29.6582
L505.543 29.5559
L505.836 29.4697
L505.934 29.4251
L506.424 29.319
L506.424 29.3133
L506.522 29.3161
L508.284 29.4217
L508.381 29.4438
L510.143 29.3398
L510.241 29.3089
L510.731 29.2239
L510.829 29.1676
L511.416 29.0685
L511.514 29.0039
L511.807 28.9109
L511.905 28.8084
L512.199 28.7238
L512.297 28.6549
L512.591 28.5495
L512.688 28.4546
L513.08 28.3514
L513.178 28.3014
L513.863 28.2223
L513.961 28.1462
L514.352 28.0502
L514.45 27.9687
L514.744 27.8594
L514.842 27.8152
L515.331 27.7337
L515.429 27.6549
L515.723 27.5507
L515.821 27.4406
L516.017 27.3823
L516.114 27.2674
L516.408 27.1623
L516.506 27.0806
L516.897 26.9824
L516.995 26.8787
L517.289 26.7756
L517.387 26.6695
L517.681 26.5622
L517.778 26.4576
L517.974 26.3986
L518.072 26.2848
L518.268 26.2232
L518.366 26.1104
L518.659 26.0108
L518.757 25.9175
L519.051 25.826
L519.149 25.7688
L519.736 25.6681
L519.834 25.5705
L520.03 25.5141
L520.128 25.4133
L520.421 25.3137
L520.519 25.2084
L520.813 25.1182
L520.911 25.0422
L521.204 24.9544
L521.302 24.8515
L521.596 24.743
L521.694 24.5833
L521.89 24.4936
L521.988 24.3363
L522.183 24.2758
L522.281 24.1563
L522.477 24.0931
L522.575 23.9841
L522.868 23.8886
L522.966 23.7469
L523.162 23.6687
L523.26 23.545
L523.456 23.4791
L523.554 23.3899
L524.239 23.2878
L524.337 23.2602
L525.12 23.154
L525.218 23.143
L526.588 23.039
L526.686 22.958
L526.98 22.8765
L527.078 22.7986
L527.371 22.7279
L527.469 22.6195
L527.763 22.5393
L527.861 22.479
L528.35 22.3821
L528.448 22.3222
L528.84 22.2266
L528.937 22.1986
L530.504 22.2975
L530.601 22.3584
L531.189 22.4471
L531.287 22.4867
L533.44 22.3768
L533.538 22.3531
L534.027 22.2668
L534.125 22.1698
L534.419 22.0687
L534.517 21.9719
L535.104 21.8746
L535.202 21.8322
L535.496 21.7508
L535.594 21.6658
L535.887 21.574
L535.985 21.4631
L536.279 21.3608
L536.377 21.2705
L536.768 21.1651
L536.866 21.1081
L537.16 21.0302
L537.258 20.9331
L537.551 20.8355
L537.649 20.7105
L537.943 20.5997
L538.041 20.4832
L538.334 20.3896
L538.432 20.2676
L538.628 20.1954
L538.726 20.0818
L539.02 19.9898
L539.118 19.8827
L539.411 19.7969
L539.509 19.7284
L539.803 19.6348
L539.901 19.5812
L540.292 19.4913
L540.39 19.441
L540.977 19.3428
L541.075 19.2645
L541.369 19.1849
L541.467 19.1349
L542.25 19.0479
L542.348 18.9892
L542.641 18.9105
L542.739 18.7998
L543.033 18.6974
L543.131 18.5976
L543.424 18.4956
L543.522 18.3989
L543.816 18.2919
L543.914 18.187
L544.403 18.084
L544.501 18.0127
L544.795 17.9191
L544.893 17.8027
L545.089 17.7406
L545.186 17.6216
L545.382 17.5648
L545.48 17.4505
L545.774 17.3587
L545.872 17.2639
L546.165 17.1725
L546.263 17.1138
L546.557 17.0076
L546.655 16.8947
L547.046 16.7836
L547.144 16.7455
L548.025 16.7673
L548.025 16.7963" style="fill:none;stroke:#0000ff;stroke-width:5.0;"/>
   </g>
   <g id="matplotlib.axis_1">
    <g id="xtick_1">
     <g id="line2d_2">
      <path d="
M176.684 412.309
L176.684 8.95623" style="fill:none;stroke:#000000;stroke-dasharray:1.000000,3.000000;stroke-dashoffset:0.0;stroke-linecap:butt;stroke-width:0.5;"/>
     </g>
     <g id="line2d_3">
      <defs>
       <path d="
M0 0
L0 -4" id="m3fbe6c24f1"/>
      </defs>
      <g>
       <use style="stroke:#000000;stroke-linecap:butt;stroke-width:0.5;" x="176.683719023" xlink:href="#m3fbe6c24f1" y="167.89216537"/>
      </g>
     </g>
     <g id="text_1">
      <!-- 5 -->
      <defs>
       <path d="
M10.7969 72.9062
L49.5156 72.9062
L49.5156 64.5938
L19.8281 64.5938
L19.8281 46.7344
Q21.9688 47.4688 24.1094 47.8281
Q26.2656 48.1875 28.4219 48.1875
Q40.625 48.1875 47.75 41.5
Q54.8906 34.8125 54.8906 23.3906
Q54.8906 11.625 47.5625 5.09375
Q40.2344 -1.42188 26.9062 -1.42188
Q22.3125 -1.42188 17.5469 -0.640625
Q12.7969 0.140625 7.71875 1.70312
L7.71875 11.625
Q12.1094 9.23438 16.7969 8.0625
Q21.4844 6.89062 26.7031 6.89062
Q35.1562 6.89062 40.0781 11.3281
Q45.0156 15.7656 45.0156 23.3906
Q45.0156 31 40.0781 35.4375
Q35.1562 39.8906 26.7031 39.8906
Q22.75 39.8906 18.8125 39.0156
Q14.8906 38.1406 10.7969 36.2812
z
" id="BitstreamVeraSans-Roman-35"/>
      </defs>
      <g transform="translate(171.023094023 189.38966537)scale(0.24 -0.24)">
       <use xlink:href="#BitstreamVeraSans-Roman-35"/>
      </g>
     </g>
    </g>
    <g id="xtick_2">
     <g id="line2d_4">
      <path d="
M294.77 412.309
L294.77 8.95623" style="fill:none;stroke:#000000;stroke-dasharray:1.000000,3.000000;stroke-dashoffset:0.0;stroke-linecap:butt;stroke-width:0.5;"/>
     </g>
     <g id="line2d_5">
      <defs>
       <path d="
M0 0
L0 -4" id="m3fbe6c24f1"/>
      </defs>
      <g>
       <use style="stroke:#000000;stroke-linecap:butt;stroke-width:0.5;" x="294.770311996" xlink:href="#m3fbe6c24f1" y="167.89216537"/>
      </g>
     </g>
     <g id="text_2">
      <!-- 10 -->
      <defs>
       <path d="
M31.7812 66.4062
Q24.1719 66.4062 20.3281 58.9062
Q16.5 51.4219 16.5 36.375
Q16.5 21.3906 20.3281 13.8906
Q24.1719 6.39062 31.7812 6.39062
Q39.4531 6.39062 43.2812 13.8906
Q47.125 21.3906 47.125 36.375
Q47.125 51.4219 43.2812 58.9062
Q39.4531 66.4062 31.7812 66.4062
M31.7812 74.2188
Q44.0469 74.2188 50.5156 64.5156
Q56.9844 54.8281 56.9844 36.375
Q56.9844 17.9688 50.5156 8.26562
Q44.0469 -1.42188 31.7812 -1.42188
Q19.5312 -1.42188 13.0625 8.26562
Q6.59375 17.9688 6.59375 36.375
Q6.59375 54.8281 13.0625 64.5156
Q19.5312 74.2188 31.7812 74.2188" id="BitstreamVeraSans-Roman-30"/>
       <path d="
M12.4062 8.29688
L28.5156 8.29688
L28.5156 63.9219
L10.9844 60.4062
L10.9844 69.3906
L28.4219 72.9062
L38.2812 72.9062
L38.2812 8.29688
L54.3906 8.29688
L54.3906 0
L12.4062 0
z
" id="BitstreamVeraSans-Roman-31"/>
      </defs>
      <g transform="translate(281.615311996 189.70466537)scale(0.24 -0.24)">
       <use xlink:href="#BitstreamVeraSans-Roman-31"/>
       <use x="63.623046875" xlink:href="#BitstreamVeraSans-Roman-30"/>
      </g>
     </g>
    </g>
    <g id="xtick_3">
     <g id="line2d_6">
      <path d="
M412.857 412.309
L412.857 8.95623" style="fill:none;stroke:#000000;stroke-dasharray:1.000000,3.000000;stroke-dashoffset:0.0;stroke-linecap:butt;stroke-width:0.5;"/>
     </g>
     <g id="line2d_7">
      <defs>
       <path d="
M0 0
L0 -4" id="m3fbe6c24f1"/>
      </defs>
      <g>
       <use style="stroke:#000000;stroke-linecap:butt;stroke-width:0.5;" x="412.856904969" xlink:href="#m3fbe6c24f1" y="167.89216537"/>
      </g>
     </g>
     <g id="text_3">
      <!-- 15 -->
      <g transform="translate(399.953154969 189.38966537)scale(0.24 -0.24)">
       <use xlink:href="#BitstreamVeraSans-Roman-31"/>
       <use x="63.623046875" xlink:href="#BitstreamVeraSans-Roman-35"/>
      </g>
     </g>
    </g>
    <g id="xtick_4">
     <g id="line2d_8">
      <path d="
M530.943 412.309
L530.943 8.95623" style="fill:none;stroke:#000000;stroke-dasharray:1.000000,3.000000;stroke-dashoffset:0.0;stroke-linecap:butt;stroke-width:0.5;"/>
     </g>
     <g id="line2d_9">
      <defs>
       <path d="
M0 0
L0 -4" id="m3fbe6c24f1"/>
      </defs>
      <g>
       <use style="stroke:#000000;stroke-linecap:butt;stroke-width:0.5;" x="530.943497942" xlink:href="#m3fbe6c24f1" y="167.89216537"/>
      </g>
     </g>
     <g id="text_4">
      <!-- 20 -->
      <defs>
       <path d="
M19.1875 8.29688
L53.6094 8.29688
L53.6094 0
L7.32812 0
L7.32812 8.29688
Q12.9375 14.1094 22.625 23.8906
Q32.3281 33.6875 34.8125 36.5312
Q39.5469 41.8438 41.4219 45.5312
Q43.3125 49.2188 43.3125 52.7812
Q43.3125 58.5938 39.2344 62.25
Q35.1562 65.9219 28.6094 65.9219
Q23.9688 65.9219 18.8125 64.3125
Q13.6719 62.7031 7.8125 59.4219
L7.8125 69.3906
Q13.7656 71.7812 18.9375 73
Q24.125 74.2188 28.4219 74.2188
Q39.75 74.2188 46.4844 68.5469
Q53.2188 62.8906 53.2188 53.4219
Q53.2188 48.9219 51.5312 44.8906
Q49.8594 40.875 45.4062 35.4062
Q44.1875 33.9844 37.6406 27.2188
Q31.1094 20.4531 19.1875 8.29688" id="BitstreamVeraSans-Roman-32"/>
      </defs>
      <g transform="translate(517.349747942 189.70466537)scale(0.24 -0.24)">
       <use xlink:href="#BitstreamVeraSans-Roman-32"/>
       <use x="63.623046875" xlink:href="#BitstreamVeraSans-Roman-30"/>
      </g>
     </g>
    </g>
    <g id="xtick_5">
     <g id="line2d_10">
      <defs>
       <path d="
M0 0
L0 -2" id="mf0ff38ea95"/>
      </defs>
      <g>
       <use style="stroke:#000000;stroke-linecap:butt;stroke-width:0.5;" x="82.2144446445" xlink:href="#mf0ff38ea95" y="167.89216537"/>
      </g>
     </g>
    </g>
    <g id="xtick_6">
     <g id="line2d_11">
      <defs>
       <path d="
M0 0
L0 -2" id="mf0ff38ea95"/>
      </defs>
      <g>
       <use style="stroke:#000000;stroke-linecap:butt;stroke-width:0.5;" x="105.831763239" xlink:href="#mf0ff38ea95" y="167.89216537"/>
      </g>
     </g>
    </g>
    <g id="xtick_7">
     <g id="line2d_12">
      <defs>
       <path d="
M0 0
L0 -2" id="mf0ff38ea95"/>
      </defs>
      <g>
       <use style="stroke:#000000;stroke-linecap:butt;stroke-width:0.5;" x="129.449081834" xlink:href="#mf0ff38ea95" y="167.89216537"/>
      </g>
     </g>
    </g>
    <g id="xtick_8">
     <g id="line2d_13">
      <defs>
       <path d="
M0 0
L0 -2" id="mf0ff38ea95"/>
      </defs>
      <g>
       <use style="stroke:#000000;stroke-linecap:butt;stroke-width:0.5;" x="153.066400428" xlink:href="#mf0ff38ea95" y="167.89216537"/>
      </g>
     </g>
    </g>
    <g id="xtick_9">
     <g id="line2d_14">
      <defs>
       <path d="
M0 0
L0 -2" id="mf0ff38ea95"/>
      </defs>
      <g>
       <use style="stroke:#000000;stroke-linecap:butt;stroke-width:0.5;" x="200.301037618" xlink:href="#mf0ff38ea95" y="167.89216537"/>
      </g>
     </g>
    </g>
    <g id="xtick_10">
     <g id="line2d_15">
      <defs>
       <path d="
M0 0
L0 -2" id="mf0ff38ea95"/>
      </defs>
      <g>
       <use style="stroke:#000000;stroke-linecap:butt;stroke-width:0.5;" x="223.918356212" xlink:href="#mf0ff38ea95" y="167.89216537"/>
      </g>
     </g>
    </g>
    <g id="xtick_11">
     <g id="line2d_16">
      <defs>
       <path d="
M0 0
L0 -2" id="mf0ff38ea95"/>
      </defs>
      <g>
       <use style="stroke:#000000;stroke-linecap:butt;stroke-width:0.5;" x="247.535674807" xlink:href="#mf0ff38ea95" y="167.89216537"/>
      </g>
     </g>
    </g>
    <g id="xtick_12">
     <g id="line2d_17">
      <defs>
       <path d="
M0 0
L0 -2" id="mf0ff38ea95"/>
      </defs>
      <g>
       <use style="stroke:#000000;stroke-linecap:butt;stroke-width:0.5;" x="271.152993401" xlink:href="#mf0ff38ea95" y="167.89216537"/>
      </g>
     </g>
    </g>
    <g id="xtick_13">
     <g id="line2d_18">
      <defs>
       <path d="
M0 0
L0 -2" id="mf0ff38ea95"/>
      </defs>
      <g>
       <use style="stroke:#000000;stroke-linecap:butt;stroke-width:0.5;" x="318.387630591" xlink:href="#mf0ff38ea95" y="167.89216537"/>
      </g>
     </g>
    </g>
    <g id="xtick_14">
     <g id="line2d_19">
      <defs>
       <path d="
M0 0
L0 -2" id="mf0ff38ea95"/>
      </defs>
      <g>
       <use style="stroke:#000000;stroke-linecap:butt;stroke-width:0.5;" x="342.004949185" xlink:href="#mf0ff38ea95" y="167.89216537"/>
      </g>
     </g>
    </g>
    <g id="xtick_15">
     <g id="line2d_20">
      <defs>
       <path d="
M0 0
L0 -2" id="mf0ff38ea95"/>
      </defs>
      <g>
       <use style="stroke:#000000;stroke-linecap:butt;stroke-width:0.5;" x="365.62226778" xlink:href="#mf0ff38ea95" y="167.89216537"/>
      </g>
     </g>
    </g>
    <g id="xtick_16">
     <g id="line2d_21">
      <defs>
       <path d="
M0 0
L0 -2" id="mf0ff38ea95"/>
      </defs>
      <g>
       <use style="stroke:#000000;stroke-linecap:butt;stroke-width:0.5;" x="389.239586374" xlink:href="#mf0ff38ea95" y="167.89216537"/>
      </g>
     </g>
    </g>
    <g id="xtick_17">
     <g id="line2d_22">
      <defs>
       <path d="
M0 0
L0 -2" id="mf0ff38ea95"/>
      </defs>
      <g>
       <use style="stroke:#000000;stroke-linecap:butt;stroke-width:0.5;" x="436.474223564" xlink:href="#mf0ff38ea95" y="167.89216537"/>
      </g>
     </g>
    </g>
    <g id="xtick_18">
     <g id="line2d_23">
      <defs>
       <path d="
M0 0
L0 -2" id="mf0ff38ea95"/>
      </defs>
      <g>
       <use style="stroke:#000000;stroke-linecap:butt;stroke-width:0.5;" x="460.091542158" xlink:href="#mf0ff38ea95" y="167.89216537"/>
      </g>
     </g>
    </g>
    <g id="xtick_19">
     <g id="line2d_24">
      <defs>
       <path d="
M0 0
L0 -2" id="mf0ff38ea95"/>
      </defs>
      <g>
       <use style="stroke:#000000;stroke-linecap:butt;stroke-width:0.5;" x="483.708860753" xlink:href="#mf0ff38ea95" y="167.89216537"/>
      </g>
     </g>
    </g>
    <g id="xtick_20">
     <g id="line2d_25">
      <defs>
       <path d="
M0 0
L0 -2" id="mf0ff38ea95"/>
      </defs>
      <g>
       <use style="stroke:#000000;stroke-linecap:butt;stroke-width:0.5;" x="507.326179347" xlink:href="#mf0ff38ea95" y="167.89216537"/>
      </g>
     </g>
    </g>
   </g>
   <g id="matplotlib.axis_2">
    <g id="ytick_1">
     <g id="line2d_26">
      <path d="
M65.5062 370.046
L557.486 370.046" style="fill:none;stroke:#000000;stroke-dasharray:1.000000,3.000000;stroke-dashoffset:0.0;stroke-linecap:butt;stroke-width:0.5;"/>
     </g>
     <g id="line2d_27">
      <defs>
       <path d="
M0 0
L4 0" id="mc91e532072"/>
      </defs>
      <g>
       <use style="stroke:#000000;stroke-linecap:butt;stroke-width:0.5;" x="55.50625" xlink:href="#mc91e532072" y="370.045885864"/>
      </g>
     </g>
     <g id="text_5">
      <!-- -0.8 -->
      <defs>
       <path d="
M31.7812 34.625
Q24.75 34.625 20.7188 30.8594
Q16.7031 27.0938 16.7031 20.5156
Q16.7031 13.9219 20.7188 10.1562
Q24.75 6.39062 31.7812 6.39062
Q38.8125 6.39062 42.8594 10.1719
Q46.9219 13.9688 46.9219 20.5156
Q46.9219 27.0938 42.8906 30.8594
Q38.875 34.625 31.7812 34.625
M21.9219 38.8125
Q15.5781 40.375 12.0312 44.7188
Q8.5 49.0781 8.5 55.3281
Q8.5 64.0625 14.7188 69.1406
Q20.9531 74.2188 31.7812 74.2188
Q42.6719 74.2188 48.875 69.1406
Q55.0781 64.0625 55.0781 55.3281
Q55.0781 49.0781 51.5312 44.7188
Q48 40.375 41.7031 38.8125
Q48.8281 37.1562 52.7969 32.3125
Q56.7812 27.4844 56.7812 20.5156
Q56.7812 9.90625 50.3125 4.23438
Q43.8438 -1.42188 31.7812 -1.42188
Q19.7344 -1.42188 13.25 4.23438
Q6.78125 9.90625 6.78125 20.5156
Q6.78125 27.4844 10.7812 32.3125
Q14.7969 37.1562 21.9219 38.8125
M18.3125 54.3906
Q18.3125 48.7344 21.8438 45.5625
Q25.3906 42.3906 31.7812 42.3906
Q38.1406 42.3906 41.7188 45.5625
Q45.3125 48.7344 45.3125 54.3906
Q45.3125 60.0625 41.7188 63.2344
Q38.1406 66.4062 31.7812 66.4062
Q25.3906 66.4062 21.8438 63.2344
Q18.3125 60.0625 18.3125 54.3906" id="BitstreamVeraSans-Roman-38"/>
       <path d="
M10.6875 12.4062
L21 12.4062
L21 0
L10.6875 0
z
" id="BitstreamVeraSans-Roman-2e"/>
       <path d="
M4.89062 31.3906
L31.2031 31.3906
L31.2031 23.3906
L4.89062 23.3906
z
" id="BitstreamVeraSans-Roman-2d"/>
      </defs>
      <g transform="translate(7.49625 378.781510864)scale(0.24 -0.24)">
       <use xlink:href="#BitstreamVeraSans-Roman-2d"/>
       <use x="36.083984375" xlink:href="#BitstreamVeraSans-Roman-30"/>
       <use x="99.70703125" xlink:href="#BitstreamVeraSans-Roman-2e"/>
       <use x="131.494140625" xlink:href="#BitstreamVeraSans-Roman-38"/>
      </g>
     </g>
    </g>
    <g id="ytick_2">
     <g id="line2d_28">
      <path d="
M65.5062 319.507
L557.486 319.507" style="fill:none;stroke:#000000;stroke-dasharray:1.000000,3.000000;stroke-dashoffset:0.0;stroke-linecap:butt;stroke-width:0.5;"/>
     </g>
     <g id="line2d_29">
      <defs>
       <path d="
M0 0
L4 0" id="mc91e532072"/>
      </defs>
      <g>
       <use style="stroke:#000000;stroke-linecap:butt;stroke-width:0.5;" x="55.50625" xlink:href="#mc91e532072" y="319.507455741"/>
      </g>
     </g>
     <g id="text_6">
      <!-- -0.6 -->
      <defs>
       <path d="
M33.0156 40.375
Q26.375 40.375 22.4844 35.8281
Q18.6094 31.2969 18.6094 23.3906
Q18.6094 15.5312 22.4844 10.9531
Q26.375 6.39062 33.0156 6.39062
Q39.6562 6.39062 43.5312 10.9531
Q47.4062 15.5312 47.4062 23.3906
Q47.4062 31.2969 43.5312 35.8281
Q39.6562 40.375 33.0156 40.375
M52.5938 71.2969
L52.5938 62.3125
Q48.875 64.0625 45.0938 64.9844
Q41.3125 65.9219 37.5938 65.9219
Q27.8281 65.9219 22.6719 59.3281
Q17.5312 52.7344 16.7969 39.4062
Q19.6719 43.6562 24.0156 45.9219
Q28.375 48.1875 33.5938 48.1875
Q44.5781 48.1875 50.9531 41.5156
Q57.3281 34.8594 57.3281 23.3906
Q57.3281 12.1562 50.6875 5.35938
Q44.0469 -1.42188 33.0156 -1.42188
Q20.3594 -1.42188 13.6719 8.26562
Q6.98438 17.9688 6.98438 36.375
Q6.98438 53.6562 15.1875 63.9375
Q23.3906 74.2188 37.2031 74.2188
Q40.9219 74.2188 44.7031 73.4844
Q48.4844 72.75 52.5938 71.2969" id="BitstreamVeraSans-Roman-36"/>
      </defs>
      <g transform="translate(7.365 328.243080741)scale(0.24 -0.24)">
       <use xlink:href="#BitstreamVeraSans-Roman-2d"/>
       <use x="36.083984375" xlink:href="#BitstreamVeraSans-Roman-30"/>
       <use x="99.70703125" xlink:href="#BitstreamVeraSans-Roman-2e"/>
       <use x="131.494140625" xlink:href="#BitstreamVeraSans-Roman-36"/>
      </g>
     </g>
    </g>
    <g id="ytick_3">
     <g id="line2d_30">
      <path d="
M65.5062 268.969
L557.486 268.969" style="fill:none;stroke:#000000;stroke-dasharray:1.000000,3.000000;stroke-dashoffset:0.0;stroke-linecap:butt;stroke-width:0.5;"/>
     </g>
     <g id="line2d_31">
      <defs>
       <path d="
M0 0
L4 0" id="mc91e532072"/>
      </defs>
      <g>
       <use style="stroke:#000000;stroke-linecap:butt;stroke-width:0.5;" x="55.50625" xlink:href="#mc91e532072" y="268.969025617"/>
      </g>
     </g>
     <g id="text_7">
      <!-- -0.4 -->
      <defs>
       <path d="
M37.7969 64.3125
L12.8906 25.3906
L37.7969 25.3906
z

M35.2031 72.9062
L47.6094 72.9062
L47.6094 25.3906
L58.0156 25.3906
L58.0156 17.1875
L47.6094 17.1875
L47.6094 0
L37.7969 0
L37.7969 17.1875
L4.89062 17.1875
L4.89062 26.7031
z
" id="BitstreamVeraSans-Roman-34"/>
      </defs>
      <g transform="translate(7.2 277.704650617)scale(0.24 -0.24)">
       <use xlink:href="#BitstreamVeraSans-Roman-2d"/>
       <use x="36.083984375" xlink:href="#BitstreamVeraSans-Roman-30"/>
       <use x="99.70703125" xlink:href="#BitstreamVeraSans-Roman-2e"/>
       <use x="131.494140625" xlink:href="#BitstreamVeraSans-Roman-34"/>
      </g>
     </g>
    </g>
    <g id="ytick_4">
     <g id="line2d_32">
      <path d="
M65.5062 218.431
L557.486 218.431" style="fill:none;stroke:#000000;stroke-dasharray:1.000000,3.000000;stroke-dashoffset:0.0;stroke-linecap:butt;stroke-width:0.5;"/>
     </g>
     <g id="line2d_33">
      <defs>
       <path d="
M0 0
L4 0" id="mc91e532072"/>
      </defs>
      <g>
       <use style="stroke:#000000;stroke-linecap:butt;stroke-width:0.5;" x="55.50625" xlink:href="#mc91e532072" y="218.430595494"/>
      </g>
     </g>
     <g id="text_8">
      <!-- -0.2 -->
      <g transform="translate(8.2575 227.166220494)scale(0.24 -0.24)">
       <use xlink:href="#BitstreamVeraSans-Roman-2d"/>
       <use x="36.083984375" xlink:href="#BitstreamVeraSans-Roman-30"/>
       <use x="99.70703125" xlink:href="#BitstreamVeraSans-Roman-2e"/>
       <use x="131.494140625" xlink:href="#BitstreamVeraSans-Roman-32"/>
      </g>
     </g>
    </g>
    <g id="ytick_5">
     <g id="line2d_34">
      <path d="
M65.5062 167.892
L557.486 167.892" style="fill:none;stroke:#000000;stroke-dasharray:1.000000,3.000000;stroke-dashoffset:0.0;stroke-linecap:butt;stroke-width:0.5;"/>
     </g>
     <g id="line2d_35">
      <defs>
       <path d="
M0 0
L4 0" id="mc91e532072"/>
      </defs>
      <g>
       <use style="stroke:#000000;stroke-linecap:butt;stroke-width:0.5;" x="55.50625" xlink:href="#mc91e532072" y="167.89216537"/>
      </g>
     </g>
     <g id="text_9">
      <!-- 0 -->
      <g transform="translate(39.4125 176.62779037)scale(0.24 -0.24)">
       <use xlink:href="#BitstreamVeraSans-Roman-30"/>
      </g>
     </g>
    </g>
    <g id="ytick_6">
     <g id="line2d_36">
      <path d="
M65.5062 117.354
L557.486 117.354" style="fill:none;stroke:#000000;stroke-dasharray:1.000000,3.000000;stroke-dashoffset:0.0;stroke-linecap:butt;stroke-width:0.5;"/>
     </g>
     <g id="line2d_37">
      <defs>
       <path d="
M0 0
L4 0" id="mc91e532072"/>
      </defs>
      <g>
       <use style="stroke:#000000;stroke-linecap:butt;stroke-width:0.5;" x="55.50625" xlink:href="#mc91e532072" y="117.353735247"/>
      </g>
     </g>
     <g id="text_10">
      <!-- 0.2 -->
      <g transform="translate(17.325 126.089360247)scale(0.24 -0.24)">
       <use xlink:href="#BitstreamVeraSans-Roman-30"/>
       <use x="63.623046875" xlink:href="#BitstreamVeraSans-Roman-2e"/>
       <use x="95.41015625" xlink:href="#BitstreamVeraSans-Roman-32"/>
      </g>
     </g>
    </g>
    <g id="ytick_7">
     <g id="line2d_38">
      <path d="
M65.5062 66.8153
L557.486 66.8153" style="fill:none;stroke:#000000;stroke-dasharray:1.000000,3.000000;stroke-dashoffset:0.0;stroke-linecap:butt;stroke-width:0.5;"/>
     </g>
     <g id="line2d_39">
      <defs>
       <path d="
M0 0
L4 0" id="mc91e532072"/>
      </defs>
      <g>
       <use style="stroke:#000000;stroke-linecap:butt;stroke-width:0.5;" x="55.50625" xlink:href="#mc91e532072" y="66.8153051234"/>
      </g>
     </g>
     <g id="text_11">
      <!-- 0.4 -->
      <g transform="translate(16.2675 75.5509301234)scale(0.24 -0.24)">
       <use xlink:href="#BitstreamVeraSans-Roman-30"/>
       <use x="63.623046875" xlink:href="#BitstreamVeraSans-Roman-2e"/>
       <use x="95.41015625" xlink:href="#BitstreamVeraSans-Roman-34"/>
      </g>
     </g>
    </g>
    <g id="ytick_8">
     <g id="line2d_40">
      <path d="
M65.5062 16.2769
L557.486 16.2769" style="fill:none;stroke:#000000;stroke-dasharray:1.000000,3.000000;stroke-dashoffset:0.0;stroke-linecap:butt;stroke-width:0.5;"/>
     </g>
     <g id="line2d_41">
      <defs>
       <path d="
M0 0
L4 0" id="mc91e532072"/>
      </defs>
      <g>
       <use style="stroke:#000000;stroke-linecap:butt;stroke-width:0.5;" x="55.50625" xlink:href="#mc91e532072" y="16.276875"/>
      </g>
     </g>
     <g id="text_12">
      <!-- 0.6 -->
      <g transform="translate(16.4325 25.0125)scale(0.24 -0.24)">
       <use xlink:href="#BitstreamVeraSans-Roman-30"/>
       <use x="63.623046875" xlink:href="#BitstreamVeraSans-Roman-2e"/>
       <use x="95.41015625" xlink:href="#BitstreamVeraSans-Roman-36"/>
      </g>
     </g>
    </g>
    <g id="ytick_9">
     <g id="line2d_42">
      <defs>
       <path d="
M0 0
L2 0" id="m0789224b6b"/>
      </defs>
      <g>
       <use style="stroke:#000000;stroke-linecap:butt;stroke-width:0.5;" x="55.50625" xlink:href="#m0789224b6b" y="407.949708457"/>
      </g>
     </g>
    </g>
    <g id="ytick_10">
     <g id="line2d_43">
      <defs>
       <path d="
M0 0
L2 0" id="m0789224b6b"/>
      </defs>
      <g>
       <use style="stroke:#000000;stroke-linecap:butt;stroke-width:0.5;" x="55.50625" xlink:href="#m0789224b6b" y="395.315100926"/>
      </g>
     </g>
    </g>
    <g id="ytick_11">
     <g id="line2d_44">
      <defs>
       <path d="
M0 0
L2 0" id="m0789224b6b"/>
      </defs>
      <g>
       <use style="stroke:#000000;stroke-linecap:butt;stroke-width:0.5;" x="55.50625" xlink:href="#m0789224b6b" y="382.680493395"/>
      </g>
     </g>
    </g>
    <g id="ytick_12">
     <g id="line2d_45">
      <defs>
       <path d="
M0 0
L2 0" id="m0789224b6b"/>
      </defs>
      <g>
       <use style="stroke:#000000;stroke-linecap:butt;stroke-width:0.5;" x="55.50625" xlink:href="#m0789224b6b" y="357.411278333"/>
      </g>
     </g>
    </g>
    <g id="ytick_13">
     <g id="line2d_46">
      <defs>
       <path d="
M0 0
L2 0" id="m0789224b6b"/>
      </defs>
      <g>
       <use style="stroke:#000000;stroke-linecap:butt;stroke-width:0.5;" x="55.50625" xlink:href="#m0789224b6b" y="344.776670802"/>
      </g>
     </g>
    </g>
    <g id="ytick_14">
     <g id="line2d_47">
      <defs>
       <path d="
M0 0
L2 0" id="m0789224b6b"/>
      </defs>
      <g>
       <use style="stroke:#000000;stroke-linecap:butt;stroke-width:0.5;" x="55.50625" xlink:href="#m0789224b6b" y="332.142063271"/>
      </g>
     </g>
    </g>
    <g id="ytick_15">
     <g id="line2d_48">
      <defs>
       <path d="
M0 0
L2 0" id="m0789224b6b"/>
      </defs>
      <g>
       <use style="stroke:#000000;stroke-linecap:butt;stroke-width:0.5;" x="55.50625" xlink:href="#m0789224b6b" y="306.87284821"/>
      </g>
     </g>
    </g>
    <g id="ytick_16">
     <g id="line2d_49">
      <defs>
       <path d="
M0 0
L2 0" id="m0789224b6b"/>
      </defs>
      <g>
       <use style="stroke:#000000;stroke-linecap:butt;stroke-width:0.5;" x="55.50625" xlink:href="#m0789224b6b" y="294.238240679"/>
      </g>
     </g>
    </g>
    <g id="ytick_17">
     <g id="line2d_50">
      <defs>
       <path d="
M0 0
L2 0" id="m0789224b6b"/>
      </defs>
      <g>
       <use style="stroke:#000000;stroke-linecap:butt;stroke-width:0.5;" x="55.50625" xlink:href="#m0789224b6b" y="281.603633148"/>
      </g>
     </g>
    </g>
    <g id="ytick_18">
     <g id="line2d_51">
      <defs>
       <path d="
M0 0
L2 0" id="m0789224b6b"/>
      </defs>
      <g>
       <use style="stroke:#000000;stroke-linecap:butt;stroke-width:0.5;" x="55.50625" xlink:href="#m0789224b6b" y="256.334418086"/>
      </g>
     </g>
    </g>
    <g id="ytick_19">
     <g id="line2d_52">
      <defs>
       <path d="
M0 0
L2 0" id="m0789224b6b"/>
      </defs>
      <g>
       <use style="stroke:#000000;stroke-linecap:butt;stroke-width:0.5;" x="55.50625" xlink:href="#m0789224b6b" y="243.699810555"/>
      </g>
     </g>
    </g>
    <g id="ytick_20">
     <g id="line2d_53">
      <defs>
       <path d="
M0 0
L2 0" id="m0789224b6b"/>
      </defs>
      <g>
       <use style="stroke:#000000;stroke-linecap:butt;stroke-width:0.5;" x="55.50625" xlink:href="#m0789224b6b" y="231.065203025"/>
      </g>
     </g>
    </g>
    <g id="ytick_21">
     <g id="line2d_54">
      <defs>
       <path d="
M0 0
L2 0" id="m0789224b6b"/>
      </defs>
      <g>
       <use style="stroke:#000000;stroke-linecap:butt;stroke-width:0.5;" x="55.50625" xlink:href="#m0789224b6b" y="205.795987963"/>
      </g>
     </g>
    </g>
    <g id="ytick_22">
     <g id="line2d_55">
      <defs>
       <path d="
M0 0
L2 0" id="m0789224b6b"/>
      </defs>
      <g>
       <use style="stroke:#000000;stroke-linecap:butt;stroke-width:0.5;" x="55.50625" xlink:href="#m0789224b6b" y="193.161380432"/>
      </g>
     </g>
    </g>
    <g id="ytick_23">
     <g id="line2d_56">
      <defs>
       <path d="
M0 0
L2 0" id="m0789224b6b"/>
      </defs>
      <g>
       <use style="stroke:#000000;stroke-linecap:butt;stroke-width:0.5;" x="55.50625" xlink:href="#m0789224b6b" y="180.526772901"/>
      </g>
     </g>
    </g>
    <g id="ytick_24">
     <g id="line2d_57">
      <defs>
       <path d="
M0 0
L2 0" id="m0789224b6b"/>
      </defs>
      <g>
       <use style="stroke:#000000;stroke-linecap:butt;stroke-width:0.5;" x="55.50625" xlink:href="#m0789224b6b" y="155.257557839"/>
      </g>
     </g>
    </g>
    <g id="ytick_25">
     <g id="line2d_58">
      <defs>
       <path d="
M0 0
L2 0" id="m0789224b6b"/>
      </defs>
      <g>
       <use style="stroke:#000000;stroke-linecap:butt;stroke-width:0.5;" x="55.50625" xlink:href="#m0789224b6b" y="142.622950309"/>
      </g>
     </g>
    </g>
    <g id="ytick_26">
     <g id="line2d_59">
      <defs>
       <path d="
M0 0
L2 0" id="m0789224b6b"/>
      </defs>
      <g>
       <use style="stroke:#000000;stroke-linecap:butt;stroke-width:0.5;" x="55.50625" xlink:href="#m0789224b6b" y="129.988342778"/>
      </g>
     </g>
    </g>
    <g id="ytick_27">
     <g id="line2d_60">
      <defs>
       <path d="
M0 0
L2 0" id="m0789224b6b"/>
      </defs>
      <g>
       <use style="stroke:#000000;stroke-linecap:butt;stroke-width:0.5;" x="55.50625" xlink:href="#m0789224b6b" y="104.719127716"/>
      </g>
     </g>
    </g>
    <g id="ytick_28">
     <g id="line2d_61">
      <defs>
       <path d="
M0 0
L2 0" id="m0789224b6b"/>
      </defs>
      <g>
       <use style="stroke:#000000;stroke-linecap:butt;stroke-width:0.5;" x="55.50625" xlink:href="#m0789224b6b" y="92.0845201852"/>
      </g>
     </g>
    </g>
    <g id="ytick_29">
     <g id="line2d_62">
      <defs>
       <path d="
M0 0
L2 0" id="m0789224b6b"/>
      </defs>
      <g>
       <use style="stroke:#000000;stroke-linecap:butt;stroke-width:0.5;" x="55.50625" xlink:href="#m0789224b6b" y="79.4499126543"/>
      </g>
     </g>
    </g>
    <g id="ytick_30">
     <g id="line2d_63">
      <defs>
       <path d="
M0 0
L2 0" id="m0789224b6b"/>
      </defs>
      <g>
       <use style="stroke:#000000;stroke-linecap:butt;stroke-width:0.5;" x="55.50625" xlink:href="#m0789224b6b" y="54.1806975926"/>
      </g>
     </g>
    </g>
    <g id="ytick_31">
     <g id="line2d_64">
      <defs>
       <path d="
M0 0
L2 0" id="m0789224b6b"/>
      </defs>
      <g>
       <use style="stroke:#000000;stroke-linecap:butt;stroke-width:0.5;" x="55.50625" xlink:href="#m0789224b6b" y="41.5460900617"/>
      </g>
     </g>
    </g>
    <g id="ytick_32">
     <g id="line2d_65">
      <defs>
       <path d="
M0 0
L2 0" id="m0789224b6b"/>
      </defs>
      <g>
       <use style="stroke:#000000;stroke-linecap:butt;stroke-width:0.5;" x="55.50625" xlink:href="#m0789224b6b" y="28.9114825309"/>
      </g>
     </g>
    </g>
   </g>
   <g id="patch_3">
    <path d="
M65.5062 167.892
L557.486 167.892" style="fill:none;stroke:#000000;stroke-width:0.8;"/>
   </g>
   <g id="patch_4">
    <path d="
M55.5062 412.309
L55.5062 8.95623" style="fill:none;stroke:#000000;stroke-width:0.8;"/>
   </g>
  </g>
 </g>
 <defs>
  <clipPath id="p963b287e84">
   <rect height="403.352470607" width="491.98" x="65.50625" y="8.95622535799"/>
  </clipPath>
 </defs>
</svg>
