<?xml version="1.0" encoding="utf-8" standalone="no"?>
<!DOCTYPE svg PUBLIC "-//W3C//DTD SVG 1.1//EN"
  "http://www.w3.org/Graphics/SVG/1.1/DTD/svg11.dtd">
<!-- Created with matplotlib (http://matplotlib.sourceforge.net/) -->
<svg height="420pt" version="1.1" viewBox="0 0 564 420" width="564pt" xmlns="http://www.w3.org/2000/svg" xmlns:xlink="http://www.w3.org/1999/xlink">
 <defs>
  <style type="text/css">
*{stroke-linecap:square;stroke-linejoin:round;}
  </style>
 </defs>
 <g id="figure_1">
  <g id="patch_1">
   <path d="
M2.22045e-16 420.48
L564.604 420.48
L564.604 0
L2.22045e-16 0
z
" style="fill:#ffffff;"/>
  </g>
  <g id="axes_1">
   <g id="patch_2">
    <path d="
M64.6363 413.28
L557.404 413.28
L557.404 7.2
L64.6363 7.2
z
" style="fill:#ffffff;"/>
   </g>
   <g id="line2d_1">
    <path clip-path="url(#pdbed04beec)" d="
M74.1125 265.417
L83.7039 265.417
L83.7039 265.417
L83.7039 265.417
L95.7875 265.417
L95.7875 405.471
L103.747 405.471
L103.747 388.223
L114.439 388.223
L114.439 293.234
L118.39 293.234
L118.39 260.539
L124.736 260.539
L124.736 208.539
L127.367 208.539
L127.367 194.659
L131.887 194.659
L131.887 179.406
L137.37 179.406
L137.37 173.968
L138.947 173.968
L138.947 175.888
L143.133 175.888
L143.133 180.626
L145.561 180.626
L145.561 177.223
L148.792 177.245
L148.792 179.887
L151.634 179.887
L151.634 179.159
L154.171 179.159
L154.171 180.994
L154.959 180.994
L154.959 183.092
L157.179 183.092
L157.179 188.176
L158.55 188.176
L158.55 192.796
L159.207 192.796
L159.207 195.827
L161.076 195.827
L161.076 201.378
L162.244 201.378
L162.244 203.802
L163.895 203.802
L163.895 206.207
L165.931 206.207
L165.931 209.378
L166.887 209.378
L166.887 210.958
L167.351 210.958
L167.351 211.913
L168.252 211.913
L168.252 213.483
L168.69 213.483
L168.69 214.175
L169.543 214.175
L169.543 215.837
L172.306 215.837
L172.306 220.648
L173.039 220.648
L173.039 222.516
L174.099 222.516
L174.099 224.82
L174.442 224.82
L174.442 225.381
L176.085 225.381
L176.085 227.205
L177.322 227.289
L177.322 227.696
L178.209 227.696
L178.209 227.403
L178.783 227.403
L178.783 227.265
L179.618 227.265
L179.618 226.41
L180.424 226.41
L180.424 225.053
L180.687 225.053
L180.687 224.559
L181.959 224.559
L181.959 222.126
L182.206 222.126
L182.206 221.53
L182.691 221.53
L182.691 220.4
L182.93 220.4
L182.93 219.958
L184.315 219.958
L184.315 217.27
L185.623 217.27
L185.623 213.961
L186.044 213.961
L186.044 212.92
L186.251 212.92
L186.251 212.513
L186.661 212.513
L186.661 211.873
L187.262 211.873
L187.262 211.234
L187.46 211.234
L187.46 210.903
L188.421 210.903
L188.421 209.364
L188.98 209.364
L188.98 208.241
L189.526 208.241
L189.526 206.925
L190.06 206.925
L190.06 205.804
L190.235 205.804
L190.235 205.399
L190.753 205.399
L190.753 204.305
L191.092 204.305
L191.092 203.641
L191.26 203.641
L191.26 203.379
L192.081 203.379
L192.081 202.216
L193.185 202.216
L193.185 201.003
L193.492 201.003
L193.492 200.779
L193.643 200.779
L193.643 200.588
L193.944 200.588
L193.944 200.155
L194.966 200.155
L194.966 198.817
L195.391 198.817
L195.391 198.376
L196.083 198.376
L196.083 197.835
L196.219 197.835
L196.219 197.689
L196.488 197.689
L196.488 197.356
L196.887 197.356
L196.887 196.749
L197.408 196.749
L197.408 195.931
L197.792 195.931
L197.792 195.288
L198.169 195.288
L198.169 194.603
L198.418 194.603
L198.418 194.148
L198.785 194.148
L198.785 193.478
L199.267 193.478
L199.267 192.54
L199.504 192.54
L199.504 192.103
L199.971 192.103
L199.971 191.049
L200.543 191.049
L200.543 189.698
L200.655 189.698
L200.655 189.473
L201.211 189.473
L201.32 187.913
L201.646 187.913
L201.646 187.172
L201.86 187.172
L201.86 186.786
L202.178 186.786
L202.178 186.24
L202.596 186.24
L202.596 185.704
L202.802 185.704
L202.905 185.323
L203.108 185.323
L203.108 185.037
L203.708 185.037
L203.708 184.102
L204.1 184.102
L204.1 183.499
L204.294 183.499
L204.294 183.159
L204.676 183.159
L204.676 182.45
L204.865 182.45
L204.865 182.056
L205.145 182.056
L205.145 181.535
L205.697 181.535
L205.787 180.472
L206.588 180.472
L206.588 179.441
L206.849 179.441
L206.849 179.02
L207.277 179.02
L207.277 178.174
L207.531 178.174
L207.531 177.673
L207.781 177.673
L207.864 177.054
L208.112 177.054
L208.112 176.641
L208.518 176.641
L208.518 175.959
L208.759 175.959
L208.759 175.484
L208.997 175.484
L209.076 174.803
L209.311 174.803
L209.311 174.22
L209.543 174.22
L209.543 173.612
L209.697 173.612
L209.774 172.948
L210.228 172.948
L210.228 171.83
L210.6 171.83
L210.674 170.562
L210.82 170.562
L210.82 170.168
L211.039 170.168
L211.039 169.604
L211.255 169.604
L211.327 168.764
L211.752 168.764
L211.752 167.403
L211.892 167.403
L211.892 166.959
L212.101 166.959
L212.101 166.337
L212.377 166.337
L212.377 165.431
L212.716 165.431
L212.716 164.305
L212.985 164.305
L212.985 163.417
L213.316 163.417
L213.316 162.381
L213.578 162.381
L213.578 161.613
L213.772 161.613
L213.772 161.028
L213.965 161.028
L213.965 160.459
L214.093 160.459
L214.093 160.099
L214.346 160.099
L214.346 159.466
L214.534 159.466
L214.534 159.007
L214.659 159.007
L214.659 158.744
L214.907 158.744
L214.907 158.206
L215.029 158.206
L215.029 157.968
L215.454 157.968
L215.454 157.301
L215.753 157.301
L215.753 156.793
L216.106 156.793
L216.164 156.052
L216.454 156.052
L216.512 155.401
L216.627 155.401
L216.684 155.05
L216.967 155.05
L216.967 154.523
L217.359 154.523
L217.469 153.472
L217.525 153.472
L217.635 153.083
L218.015 153.083
L218.123 151.815
L218.176 151.815
L218.283 151.479
L218.811 151.479
L218.915 150.359
L219.122 150.359
L219.122 150.005
L219.378 150.005
L219.378 149.618
L219.581 149.618
L219.681 149.089
L219.832 149.089
L219.832 148.833
L219.981 148.833
L219.981 148.57
L220.326 148.57
L220.424 147.674
L220.569 147.674
L220.569 147.425
L220.714 147.425
L220.714 147.157
L220.906 147.157
L220.906 146.822
L221.049 146.822
L221.049 146.585
L221.332 146.585
L221.425 146.079
L221.565 146.079
L221.611 145.824
L221.842 145.824
L221.888 145.394
L222.025 145.394
L222.025 145.192
L222.251 145.192
L222.297 144.85
L222.521 144.85
L222.565 144.564
L222.698 144.564
L222.698 144.378
L223.093 144.378
L223.18 143.798
L223.31 143.735
L223.31 143.621
L223.439 143.621
L223.439 143.453
L223.567 143.453
L223.567 143.273
L223.737 143.273
L223.737 143.022
L223.864 143.022
L223.864 142.86
L223.99 142.86
L223.99 142.701
L224.447 142.701
L224.488 142.169
L224.692 142.169
L224.692 142.015
L225.055 141.929
L225.055 141.812
L225.294 141.729
L225.294 141.664
L225.688 141.599
L225.765 141.414
L225.998 141.35
L226.036 141.271
L226.379 141.194
L226.379 141.034
L226.568 141.034
L226.568 140.912
L226.904 140.912
L227.015 140.676
L227.271 140.602
L227.381 140.503
L227.812 140.409
L227.812 140.38
L228.411 140.38
L228.515 140.135
L229.062 140.046
L229.062 139.985
L229.465 139.945
L229.564 139.835
L229.958 139.724
L230.056 139.66
L230.41 139.554
L230.505 139.449
L231.071 139.36
L231.071 139.327
L231.38 139.284
L231.472 139.176
L231.925 139.075
L231.985 138.983
L232.193 138.983
L232.253 138.832
L232.429 138.757
L232.517 138.649
L233.066 138.566
L233.151 138.414
L233.574 138.357
L233.658 138.169
L233.99 138.068
L233.99 138.055
L234.236 137.972
L234.317 137.843
L234.72 137.744
L234.8 137.505
L235.037 137.42
L235.037 137.24
L235.168 137.24
L235.168 137.098
L235.324 137.098
L235.428 136.869
L235.634 136.869
L235.634 136.696
L235.812 136.696
L235.889 136.469
L236.04 136.364
L236.04 136.344
L236.315 136.249
L236.39 136.075
L236.686 136.031
L236.71 135.92
L236.905 135.92
L236.93 135.783
L237.195 135.783
L237.267 135.58
L237.646 135.484
L237.717 135.435
L238.135 135.377
L238.135 135.315
L238.455 135.231
L238.546 135.105
L238.794 135.017
L238.816 134.89
L238.995 134.89
L239.084 134.669
L239.26 134.612
L239.348 134.435
L239.544 134.435
L239.544 134.247
L239.803 134.247
L239.91 133.879
L240.165 133.782
L240.229 133.545
L240.481 133.458
L240.543 133.263
L240.75 133.172
L240.792 133.112
L241.159 133.002
L241.24 132.742
L241.402 132.659
L241.402 132.605
L241.542 132.605
L241.641 132.356
L241.76 132.282
L241.819 132.181
L241.937 132.181
L241.996 132.015
L242.191 131.957
L242.288 131.741
L242.481 131.642
L242.576 131.499
L242.823 131.499
L242.823 131.344
L242.993 131.344
L243.086 131.183
L243.531 131.081
L243.641 131.005
L244.885 130.895
L244.972 130.875
L247.952 130.774
L248.043 130.753
L249.355 130.646
L249.455 130.611
L250.693 130.549
L250.747 130.465
L251.136 130.373
L251.229 130.324
L251.701 130.221
L251.805 130.178
L252.19 130.074
L252.279 130.009
L252.493 129.907
L252.568 129.859
L252.83 129.792
L252.904 129.682
L253.174 129.59
L253.247 129.509
L253.573 129.412
L253.597 129.359
L253.919 129.256
L254.025 129.191
L254.341 129.094
L254.445 128.99
L254.687 128.886
L254.721 128.864
L255.073 128.758
L255.174 128.64
L255.397 128.551
L255.475 128.479
L255.772 128.408
L255.837 128.303
L256.151 128.194
L256.216 128.158
L256.599 128.049
L256.662 128
L257.018 127.895
L257.049 127.866
L259.234 127.756
L259.3 127.749
L259.968 127.647
L260.069 127.557
L260.242 127.491
L260.287 127.397
L260.449 127.323
L260.556 127.212
L260.779 127.106
L260.796 127.052
L260.955 126.957
L261.042 126.894
L261.321 126.816
L261.373 126.734
L261.579 126.629
L261.69 126.565
L261.969 126.47
L262.07 126.293
L262.22 126.207
L262.295 126.072
L262.444 126.008
L262.493 125.88
L262.616 125.88
L262.706 125.671
L262.861 125.564
L262.95 125.428
L263.095 125.345
L263.199 125.168
L263.429 125.065
L263.532 124.892
L263.689 124.787
L263.79 124.696
L263.946 124.612
L264.023 124.534
L264.268 124.444
L264.36 124.309
L264.496 124.209
L264.572 124.104
L264.722 123.994
L264.819 123.897
L264.99 123.796
L265.02 123.748
L265.211 123.679
L265.299 123.563
L265.474 123.511
L265.582 123.363
L265.784 123.258
L265.891 123.189
L266.118 123.095
L266.181 123.045
L266.392 122.967
L266.475 122.879
L266.704 122.77
L266.807 122.709
L267.14 122.599
L267.242 122.576
L268.088 122.47
L268.172 122.439
L271.331 122.344
L271.432 122.284
L271.746 122.196
L271.852 122.12
L272.231 122.014
L272.329 121.971
L272.572 121.877
L272.668 121.808
L272.908 121.7
L273.019 121.654
L273.333 121.564
L273.442 121.501
L274.728 121.391
L274.816 121.364
L275.136 121.255
L275.247 121.175
L275.419 121.07
L275.524 120.989
L275.732 120.879
L275.83 120.772
L276.003 120.671
L276.11 120.583
L276.262 120.495
L276.372 120.365
L276.495 120.3
L276.591 120.171
L276.74 120.067
L276.812 119.983
L276.942 119.909
L277.035 119.775
L277.16 119.701
L277.261 119.555
L277.367 119.456
L277.476 119.291
L277.589 119.191
L277.646 119.076
L277.75 118.966
L277.849 118.808
L277.943 118.738
L278.042 118.532
L278.122 118.447
L278.22 118.262
L278.296 118.198
L278.397 117.99
L278.477 117.906
L278.585 117.708
L278.673 117.609
L278.776 117.415
L278.859 117.327
L278.949 117.162
L279.056 117.095
L279.166 116.864
L279.255 116.797
L279.364 116.593
L279.457 116.562
L279.565 116.323
L279.677 116.232
L279.784 116.054
L279.914 115.947
L279.997 115.799
L280.099 115.691
L280.208 115.556
L280.313 115.451
L280.413 115.308
L280.529 115.224
L280.636 115.055
L280.739 114.956
L280.849 114.812
L280.966 114.707
L281.075 114.564
L281.165 114.464
L281.266 114.325
L281.359 114.226
L281.47 114.079
L281.591 114.012
L281.686 113.818
L281.796 113.731
L281.883 113.597
L281.981 113.494
L282.089 113.368
L282.207 113.259
L282.318 113.12
L282.453 113.028
L282.548 112.866
L282.646 112.768
L282.752 112.632
L282.856 112.523
L282.946 112.401
L283.05 112.298
L283.143 112.166
L283.256 112.088
L283.349 111.957
L283.484 111.875
L283.566 111.738
L283.684 111.63
L283.787 111.508
L283.918 111.413
L284.017 111.31
L284.162 111.217
L284.264 111.09
L284.382 110.991
L284.48 110.864
L284.587 110.755
L284.674 110.657
L284.796 110.547
L284.905 110.445
L285.057 110.361
L285.152 110.256
L285.294 110.152
L285.397 110.051
L285.534 109.942
L285.631 109.833
L285.76 109.722
L285.868 109.606
L285.996 109.508
L286.081 109.407
L286.199 109.307
L286.308 109.185
L286.434 109.075
L286.541 108.939
L286.645 108.863
L286.755 108.71
L286.858 108.601
L286.913 108.519
L287.024 108.42
L287.106 108.276
L287.202 108.169
L287.306 108.025
L287.401 107.949
L287.51 107.779
L287.621 107.673
L287.723 107.546
L287.842 107.452
L287.92 107.323
L288.03 107.228
L288.13 107.087
L288.247 106.989
L288.33 106.849
L288.421 106.756
L288.495 106.633
L288.582 106.522
L288.691 106.376
L288.781 106.286
L288.878 106.119
L288.956 106.038
L289.053 105.86
L289.133 105.768
L289.237 105.563
L289.311 105.466
L289.412 105.272
L289.509 105.167
L289.619 104.94
L289.713 104.829
L289.822 104.623
L289.9 104.514
L290.008 104.353
L290.09 104.248
L290.192 104.105
L290.289 104.021
L290.396 103.854
L290.487 103.765
L290.595 103.605
L290.705 103.516
L290.809 103.354
L290.921 103.274
L291.032 103.104
L291.143 103.001
L291.253 102.864
L291.35 102.754
L291.457 102.621
L291.58 102.545
L291.69 102.328
L291.795 102.231
L291.898 102.082
L292.009 101.979
L292.118 101.864
L292.242 101.764
L292.333 101.653
L292.445 101.544
L292.549 101.44
L292.675 101.355
L292.776 101.223
L292.9 101.119
L293.002 100.996
L293.117 100.886
L293.214 100.753
L293.315 100.643
L293.415 100.508
L293.519 100.412
L293.621 100.285
L293.804 100.189
L293.804 100.095
L294.009 99.9847
L294.1 99.806
L294.294 99.7231
L294.396 99.535
L294.605 99.4327
L294.7 99.2301
L294.889 99.1288
L294.979 98.9427
L295.091 98.9427
L295.188 98.7158
L295.374 98.6284
L295.484 98.4519
L295.667 98.3762
L295.772 98.1945
L295.963 98.1081
L296.06 97.9377
L296.255 97.86
L296.357 97.6915
L296.572 97.6028
L296.648 97.4416
L296.853 97.3544
L296.949 97.1721
L297.146 97.0946
L297.235 96.9157
L297.435 96.8351
L297.546 96.6589
L297.753 96.5904
L297.825 96.4418
L298.025 96.3691
L298.117 96.2304
L298.318 96.1565
L298.416 95.9922
L298.622 95.9189
L298.706 95.7836
L298.908 95.7074
L298.998 95.5653
L299.194 95.4909
L299.293 95.3675
L299.499 95.2993
L299.587 95.1681
L299.788 95.1043
L299.894 94.9826
L300.176 94.878
L300.273 94.7791
L300.57 94.7037
L300.665 94.6219
L300.961 94.5317
L301.068 94.4759
L301.458 94.3844
L301.562 94.2803
L301.941 94.1693
L302.039 94.1276
L302.639 94.0436
L302.738 93.9799
L303.122 93.8967
L303.22 93.8165
L303.513 93.713
L303.609 93.5812
L303.808 93.5163
L303.907 93.3814
L304.099 93.3202
L304.201 93.1957
L304.39 93.1183
L304.492 92.9939
L304.687 92.917
L304.786 92.8204
L304.984 92.765
L305.091 92.6395
L305.277 92.5795
L305.371 92.4513
L305.572 92.3894
L305.671 92.2796
L305.864 92.2168
L305.96 92.0882
L306.171 92.0106
L306.256 91.8624
L306.454 91.7788
L306.549 91.6317
L306.751 91.5608
L306.843 91.4194
L307.042 91.351
L307.137 91.2132
L307.337 91.1395
L307.434 91.0014
L307.628 90.9376
L307.731 90.8351
L308.021 90.7442
L308.121 90.6362
L308.314 90.5685
L308.418 90.4167
L308.609 90.3382
L308.709 90.1997
L308.905 90.1232
L309.009 89.9701
L309.201 89.9062
L309.297 89.7813
L309.592 89.6709
L309.693 89.5496
L309.893 89.494
L309.98 89.3528
L310.179 89.2782
L310.179 89.2085
L310.374 89.1236
L310.479 88.9997
L310.667 88.9264
L310.769 88.7788
L310.965 88.6947
L311.06 88.5405
L311.261 88.4563
L311.356 88.2872
L311.551 88.2083
L311.658 88.0439
L311.844 87.9753
L311.942 87.8551
L312.14 87.7917
L312.239 87.6378
L312.441 87.566
L312.536 87.4225
L312.73 87.362
L312.827 87.2268
L313.023 87.1629
L313.118 87.0407
L313.315 86.9704
L313.411 86.809
L313.608 86.723
L313.707 86.5736
L313.901 86.4987
L313.999 86.3432
L314.198 86.2553
L314.295 86.0887
L314.49 86.005
L314.591 85.8298
L314.783 85.7343
L314.889 85.543
L315.077 85.4451
L315.175 85.26
L315.374 85.1559
L315.474 84.9968
L315.67 84.9285
L315.77 84.8115
L315.961 84.7562
L316.058 84.6218
L316.255 84.5573
L316.357 84.4479
L316.647 84.3497
L316.752 84.2364
L317.039 84.1351
L317.136 84.0436
L317.437 83.9388
L317.53 83.8312
L317.825 83.7454
L317.924 83.6498
L318.216 83.5487
L318.319 83.4368
L318.609 83.3305
L318.713 83.2209
L319.007 83.1284
L319.099 83.0478
L319.391 82.9688
L319.49 82.8979
L319.885 82.7935
L319.983 82.7206
L320.374 82.6257
L320.47 82.5596
L321.062 82.4504
L321.161 82.4067
L321.744 82.3164
L321.843 82.2589
L322.136 82.184
L322.235 82.0994
L322.534 81.9975
L322.631 81.8956
L322.921 81.7951
L323.022 81.6993
L323.316 81.6206
L323.411 81.548
L324.001 81.4484
L324.1 81.4211
L324.589 81.3198
L324.686 81.2571
L325.176 81.1469
L325.275 81.1219
L326.256 81.0311
L326.354 80.9939
L327.922 80.8896
L328.02 80.8698
L328.902 80.7605
L328.999 80.6951
L329.391 80.5994
L329.493 80.5469
L329.884 80.4609
L329.98 80.3893
L330.372 80.2812
L330.471 80.2175
L330.863 80.1303
L330.961 80.0847
L331.647 79.9779
L331.753 79.9444
L332.336 79.8468
L332.431 79.8054
L333.903 79.9153
L333.903 79.9251
L334 79.9245
L334.885 79.8337
L334.98 79.7789
L335.669 79.674
L335.765 79.6637
L337.434 79.5588
L337.529 79.5413
L339.393 79.4342
L339.491 79.4226
L340.765 79.3168
L340.862 79.2883
L341.648 79.1837
L341.745 79.1604
L342.235 79.0748
L342.333 79.0226
L342.923 78.9177
L343.02 78.8721
L343.414 78.7738
L343.51 78.7185
L344.49 78.6141
L344.588 78.5772
L345.079 78.4667
L345.178 78.3979
L345.569 78.3029
L345.667 78.2272
L345.961 78.1406
L346.059 78.0638
L346.355 77.9851
L346.452 77.893
L346.745 77.8012
L346.844 77.7108
L347.138 77.6132
L347.237 77.5023
L347.529 77.3932
L347.627 77.2985
L347.923 77.2193
L348.021 77.1337
L348.314 77.0387
L348.412 76.9365
L348.708 76.8274
L348.804 76.7091
L349.098 76.598
L349.197 76.495
L349.49 76.4037
L349.588 76.3126
L349.884 76.2305
L349.981 76.165
L350.276 76.0866
L350.373 76.0065
L350.668 75.9217
L350.765 75.8176
L351.059 75.7204
L351.157 75.6289
L351.452 75.5301
L351.549 75.4254
L351.843 75.3174
L351.941 75.2134
L352.237 75.1027
L352.335 75.0045
L352.627 74.9129
L352.726 74.8373
L353.119 74.7283
L353.218 74.6625
L353.608 74.5793
L353.706 74.5188
L354.001 74.4379
L354.098 74.3406
L354.393 74.2558
L354.49 74.1593
L354.784 74.0634
L354.882 73.9805
L355.177 73.8861
L355.276 73.797
L355.569 73.6958
L355.667 73.588
L355.964 73.4825
L356.059 73.3732
L356.354 73.2694
L356.452 73.1641
L356.745 73.067
L356.845 72.97
L357.138 72.8713
L357.236 72.7777
L357.53 72.6945
L357.629 72.6231
L358.02 72.5148
L358.118 72.4596
L358.511 72.3714
L358.608 72.3292
L359.099 72.2184
L359.198 72.1389
L359.59 72.0348
L359.687 71.97
L359.981 71.8851
L360.079 71.7996
L360.373 71.7132
L360.471 71.6247
L360.765 71.5338
L360.865 71.4357
L361.157 71.3507
L361.255 71.268
L361.549 71.1849
L361.648 71.095
L361.942 70.9935
L362.04 70.896
L362.334 70.8136
L362.431 70.7313
L362.824 70.6262
L362.922 70.5683
L363.314 70.4793
L363.412 70.4256
L363.902 70.3237
L364 70.2692
L364.491 70.161
L364.589 70.0896
L364.883 70.0163
L364.981 69.9365
L365.275 69.8406
L365.374 69.7521
L365.667 69.6717
L365.766 69.5706
L365.963 69.5148
L366.061 69.4018
L366.354 69.2964
L366.452 69.1996
L366.746 69.1097
L366.844 69.0193
L367.138 68.9203
L367.236 68.8256
L367.531 68.7257
L367.628 68.6203
L367.922 68.521
L368.02 68.4126
L368.314 68.3214
L368.413 68.232
L368.708 68.1341
L368.804 68.0339
L369 67.978
L369.098 67.8495
L369.295 67.7782
L369.393 67.643
L369.589 67.5848
L369.687 67.4574
L369.883 67.3926
L369.981 67.2706
L370.177 67.2139
L370.275 67.0996
L370.569 66.9978
L370.667 66.9125
L370.962 66.8235
L371.059 66.7289
L371.355 66.6229
L371.451 66.514
L371.746 66.4155
L371.844 66.3247
L372.138 66.233
L372.236 66.1333
L372.53 66.0316
L372.628 65.9345
L372.923 65.8371
L373.021 65.7395
L373.315 65.6336
L373.413 65.5213
L373.707 65.414
L373.805 65.3008
L374.001 65.2407
L374.099 65.1202
L374.295 65.0608
L374.393 64.9271
L374.589 64.8533
L374.687 64.7081
L374.883 64.6396
L374.981 64.517
L375.177 64.4546
L375.276 64.3305
L375.472 64.2636
L375.57 64.1248
L375.766 64.0488
L375.863 63.8876
L376.06 63.8105
L376.158 63.6562
L376.354 63.5782
L376.452 63.422
L376.648 63.3517
L376.746 63.2004
L376.942 63.1211
L377.041 62.9572
L377.236 62.8832
L377.334 62.7176
L377.531 62.6328
L377.628 62.4729
L377.824 62.3955
L377.923 62.2533
L378.119 62.1855
L378.216 62.0472
L378.413 61.9751
L378.511 61.8295
L378.707 61.7612
L378.805 61.6211
L379.001 61.5518
L379.099 61.4051
L379.295 61.3301
L379.393 61.1782
L379.589 61.1002
L379.688 60.9638
L379.883 60.9034
L379.981 60.7917
L380.275 60.6837
L380.374 60.5728
L380.668 60.4687
L380.765 60.377
L381.06 60.286
L381.158 60.1966
L381.551 60.0974
L381.648 60.0387
L382.138 59.9277
L382.236 59.861
L382.53 59.7821
L382.629 59.6959
L382.922 59.6072
L383.021 59.5183
L383.315 59.4281
L383.413 59.3333
L383.708 59.2432
L383.805 59.148
L384.001 59.0919
L384.099 58.9809
L384.393 58.8749
L384.491 58.7753
L384.786 58.6872
L384.884 58.5922
L385.177 58.4993
L385.275 58.3944
L385.471 58.3364
L385.57 58.2194
L385.767 58.1624
L385.864 58.0481
L386.061 57.9947
L386.158 57.8796
L386.452 57.7699
L386.55 57.6616
L386.746 57.5995
L386.845 57.4831
L387.041 57.425
L387.139 57.3011
L387.335 57.2421
L387.433 57.1113
L387.628 57.0465
L387.727 56.9313
L388.021 56.8307
L388.119 56.7234
L388.413 56.6176
L388.511 56.5181
L388.805 56.4213
L388.904 56.3161
L389.197 56.2203
L389.295 56.1237
L389.589 56.021
L389.687 55.9069
L389.981 55.8012
L390.079 55.6936
L390.276 55.6323
L390.374 55.5174
L390.668 55.4134
L390.767 55.3156
L390.962 55.2596
L391.06 55.1459
L391.354 55.0442
L391.452 54.9417
L391.746 54.838
L391.844 54.7365
L392.138 54.641
L392.237 54.5414
L392.531 54.431
L392.629 54.3366
L393.021 54.2298
L393.119 54.1553
L393.413 54.0801
L393.511 54.0033
L393.903 53.9077
L394.001 53.8513
L394.491 53.7514
L394.59 53.6857
L394.883 53.6107
L394.982 53.533
L395.276 53.445
L395.374 53.3447
L395.668 53.2447
L395.766 53.1395
L396.06 53.0475
L396.158 52.9696
L396.453 52.8895
L396.55 52.8015
L396.845 52.7133
L396.942 52.6238
L397.237 52.5346
L397.335 52.4576
L397.629 52.3851
L397.727 52.2979
L398.021 52.2173
L398.119 52.1484
L398.511 52.0415
L398.609 51.9787
L399.001 51.8778
L399.099 51.7969
L399.394 51.7143
L399.492 51.6324
L399.884 51.5349
L399.982 51.486
L400.472 51.3862
L400.57 51.3402
L401.06 51.2386
L401.158 51.1975
L401.747 51.1003
L401.845 51.0598
L402.531 50.9578
L402.629 50.9315
L403.217 50.8399
L403.316 50.7925
L403.707 50.7037
L403.805 50.6373
L404.198 50.5466
L404.296 50.4817
L404.688 50.3821
L404.786 50.3228
L405.276 50.2251
L405.374 50.1752
L405.864 50.0813
L405.962 50.0393
L406.452 49.9362
L406.551 49.8925
L407.237 49.7872
L407.335 49.7645
L408.511 49.6613
L408.61 49.6334
L409.296 49.5332
L409.394 49.4822
L409.884 49.3825
L409.982 49.3172
L410.374 49.2158
L410.472 49.1624
L410.864 49.0679
L410.963 49.0129
L411.453 48.9073
L411.551 48.8679
L412.139 48.7628
L412.237 48.7196
L414.198 48.6106
L414.296 48.6046
L417.335 48.4991
L417.433 48.4626
L417.923 48.3693
L418.021 48.3147
L418.512 48.2188
L418.61 48.1728
L419.002 48.0875
L419.1 48.03
L419.492 47.9234
L419.59 47.8445
L419.982 47.7433
L420.08 47.7017
L420.669 47.594
L420.767 47.5375
L421.159 47.4325
L421.257 47.3569
L421.649 47.2521
L421.747 47.1823
L422.139 47.0788
L422.237 47.0165
L422.629 46.9287
L422.727 46.8584
L423.12 46.7477
L423.218 46.6717
L423.512 46.59
L423.61 46.5097
L423.904 46.4332
L424.002 46.3618
L424.394 46.2659
L424.492 46.2155
L424.982 46.1094
L425.081 46.044
L425.473 45.9527
L425.571 45.8945
L426.061 45.8013
L426.159 45.7491
L426.551 45.6605
L426.649 45.5948
L427.041 45.5013
L427.139 45.4409
L427.728 45.3335
L427.826 45.3034
L428.414 45.212
L428.512 45.1704
L429.1 45.0617
L429.198 45.0347
L430.375 44.9273
L430.473 44.9196
L433.806 44.8124
L433.904 44.8052
L435.473 44.7021
L435.571 44.6694
L436.453 44.5624
L436.551 44.5361
L438.218 44.4305
L438.316 44.4105
L438.904 44.3156
L439.002 44.264
L439.493 44.1566
L439.591 44.1041
L440.081 44.0074
L440.179 43.9644
L440.767 43.8654
L440.865 43.8315
L441.65 43.7206
L441.748 43.6787
L442.238 43.5777
L442.336 43.5202
L442.728 43.4249
L442.826 43.3614
L443.218 43.255
L443.316 43.1827
L443.709 43.0777
L443.807 42.9983
L444.101 42.9141
L444.199 42.8324
L444.493 42.7527
L444.591 42.6789
L444.885 42.6031
L444.983 42.5254
L445.277 42.4409
L445.375 42.3476
L445.669 42.253
L445.768 42.1531
L446.062 42.0667
L446.16 41.9777
L446.454 41.8864
L446.552 41.8034
L446.846 41.7275
L446.944 41.6519
L447.238 41.57
L447.336 41.4851
L447.63 41.4024
L447.728 41.3126
L448.022 41.2188
L448.12 41.1174
L448.415 41.0212
L448.513 40.9246
L448.807 40.8235
L448.905 40.7282
L449.199 40.6401
L449.297 40.5538
L449.591 40.4596
L449.689 40.3542
L449.983 40.2518
L450.081 40.1582
L450.375 40.0635
L450.473 39.9578
L450.768 39.8467
L450.866 39.7315
L451.062 39.6723
L451.16 39.5611
L451.454 39.4572
L451.552 39.3627
L451.846 39.2769
L451.944 39.1947
L452.238 39.1048
L452.336 39.0139
L452.728 38.9073
L452.826 38.8361
L453.219 38.7324
L453.317 38.6623
L453.611 38.5874
L453.709 38.5007
L454.003 38.4147
L454.101 38.3291
L454.395 38.2423
L454.493 38.1668
L454.885 38.0567
L454.983 37.9844
L455.376 37.8803
L455.474 37.8065
L455.768 37.7309
L455.866 37.6565
L456.16 37.5828
L456.258 37.4945
L456.552 37.4109
L456.65 37.3354
L457.042 37.2346
L457.14 37.1641
L457.532 37.0636
L457.631 36.9985
L458.023 36.8916
L458.121 36.8207
L458.513 36.7131
L458.611 36.6378
L459.003 36.5275
L459.101 36.452
L459.493 36.345
L459.591 36.2746
L459.984 36.1713
L460.082 36.103
L460.474 36.0003
L460.572 35.9283
L460.866 35.8532
L460.964 35.7774
L461.258 35.6977
L461.356 35.6212
L461.65 35.5471
L461.748 35.47
L462.042 35.3978
L462.14 35.3184
L462.435 35.2314
L462.533 35.1414
L462.827 35.0508
L462.925 34.9643
L463.219 34.8738
L463.317 34.7799
L463.611 34.6936
L463.709 34.6154
L464.101 34.5099
L464.199 34.443
L464.592 34.3378
L464.69 34.2729
L465.082 34.1797
L465.18 34.1139
L465.572 34.0112
L465.67 33.9464
L466.062 33.8423
L466.16 33.78
L466.552 33.681
L466.65 33.617
L467.043 33.5239
L467.141 33.4646
L467.631 33.3543
L467.729 33.2936
L468.219 33.1859
L468.317 33.137
L468.807 33.0266
L468.905 32.9652
L469.298 32.8813
L469.396 32.8227
L469.886 32.7125
L469.984 32.6531
L470.376 32.5672
L470.474 32.512
L470.866 32.4281
L470.964 32.3662
L471.356 32.273
L471.454 32.211
L471.749 32.13
L471.847 32.0373
L472.141 31.9481
L472.239 31.8625
L472.533 31.7854
L472.631 31.7101
L473.023 31.6071
L473.121 31.5449
L473.513 31.434
L473.611 31.3669
L474.004 31.2559
L474.102 31.176
L474.396 31.0941
L474.494 31.0022
L474.788 30.9116
L474.886 30.8175
L475.18 30.7235
L475.278 30.6266
L475.572 30.5238
L475.67 30.4348
L475.964 30.3489
L476.062 30.2647
L476.357 30.1806
L476.455 30.091
L476.749 30.003
L476.847 29.925
L477.141 29.8485
L477.239 29.777
L477.631 29.6694
L477.729 29.6055
L478.121 29.5034
L478.219 29.4351
L478.514 29.3603
L478.612 29.2908
L479.004 29.1847
L479.102 29.0997
L479.396 29.0159
L479.494 28.9344
L479.788 28.8591
L479.886 28.7879
L480.278 28.6955
L480.376 28.6373
L480.867 28.5385
L480.965 28.4925
L481.553 28.3857
L481.651 28.3553
L482.435 28.2487
L482.533 28.2149
L483.023 28.1259
L483.122 28.0768
L483.612 27.9842
L483.71 27.9304
L484.102 27.8402
L484.2 27.7887
L484.592 27.7052
L484.69 27.6439
L485.082 27.5374
L485.18 27.4694
L485.573 27.3782
L485.671 27.3216
L486.063 27.2355
L486.161 27.174
L486.553 27.0809
L486.651 27.0177
L487.043 26.9315
L487.141 26.8762
L487.631 26.7744
L487.729 26.7208
L488.22 26.6179
L488.318 26.5653
L488.808 26.4617
L488.906 26.4092
L489.396 26.3061
L489.494 26.256
L490.083 26.1459
L490.181 26.1041
L490.769 26.0025
L490.867 25.9584
L491.455 25.8611
L491.553 25.8259
L492.239 25.7192
L492.337 25.693
L493.024 25.5837
L493.122 25.5397
L493.612 25.4411
L493.71 25.3991
L494.494 25.2961
L494.592 25.2675
L495.279 25.1678
L495.377 25.1456
L497.338 25.0393
L497.436 25.0152
L498.22 24.9064
L498.318 24.8768
L498.906 24.7717
L499.004 24.7327
L499.789 24.623
L499.887 24.5975
L500.769 24.497
L500.867 24.4695
L501.848 24.3676
L501.946 24.3435
L502.73 24.2439
L502.828 24.2103
L503.71 24.1001
L503.808 24.0667
L504.397 23.9665
L504.495 23.9243
L505.181 23.8184
L505.279 23.789
L506.259 23.682
L506.358 23.6693
L509.789 23.5624
L509.887 23.5405
L511.162 23.4347
L511.26 23.4171
L512.338 23.3166
L512.436 23.2817
L513.122 23.1768
L513.22 23.1395
L513.907 23.0358
L514.005 22.9954
L514.593 22.8901
L514.691 22.8534
L515.377 22.746
L515.475 22.7125
L516.162 22.6135
L516.26 22.5853
L516.946 22.4898
L517.044 22.4532
L517.73 22.3458
L517.828 22.307
L518.417 22.2063
L518.515 22.1678
L519.103 22.0683
L519.201 22.0271
L519.691 21.9294
L519.789 21.8896
L520.28 21.7945
L520.378 21.7372
L520.868 21.6264
L520.966 21.5796
L521.456 21.4904
L521.554 21.4411
L522.044 21.3463
L522.142 21.2928
L522.633 21.1904
L522.731 21.1434
L523.221 21.0487
L523.319 20.9997
L523.907 20.8895
L524.005 20.8457
L524.593 20.7423
L524.691 20.7048
L525.28 20.6009
L525.378 20.5579
L526.064 20.4493
L526.162 20.4184
L526.946 20.3111
L527.044 20.2794
L527.731 20.1838
L527.829 20.1495
L528.711 20.0515
L528.809 20.0234
L529.496 19.9261
L529.594 19.8847
L530.182 19.7923
L530.28 19.7488
L530.77 19.6515
L530.868 19.6093
L531.456 19.5104
L531.554 19.4678
L532.045 19.3787
L532.143 19.333
L532.633 19.2263
L532.731 19.1703
L533.221 19.0627
L533.319 19.008
L533.809 18.9003
L533.907 18.8453
L534.398 18.7491
L534.496 18.703
L534.986 18.5969
L535.084 18.5428
L535.574 18.4349
L535.672 18.3814
L536.162 18.2704
L536.26 18.2202
L536.751 18.1241
L536.849 18.0739
L537.339 17.9811
L537.437 17.9405
L537.927 17.8482
L538.025 17.7951
L538.417 17.7047
L538.515 17.6377
L538.908 17.545
L539.006 17.4857
L539.398 17.4026
L539.496 17.3407
L539.888 17.2509
L539.986 17.1924
L540.378 17.1026
L540.476 17.04
L540.966 16.9334
L541.064 16.8788
L541.555 16.7809
L541.653 16.7368
L542.241 16.6316
L542.339 16.5934
L542.927 16.4838
L543.025 16.4374
L543.516 16.3418
L543.614 16.2965
L544.104 16.1887
L544.202 16.13
L544.594 16.0428
L544.692 15.9868
L545.182 15.8773
L545.28 15.8286
L545.672 15.7447
L545.771 15.6899
L546.163 15.6039
L546.261 15.5457
L546.653 15.4461
L546.751 15.3818
L547.143 15.2868
L547.241 15.2261
L547.633 15.1307
L547.731 15.0691
L547.927 15.0392
L547.927 15.0092" style="fill:none;stroke:#0000ff;stroke-width:5.0;"/>
   </g>
   <g id="matplotlib.axis_1">
    <g id="xtick_1">
     <g id="line2d_2">
      <path d="
M175.992 413.28
L175.992 7.2" style="fill:none;stroke:#000000;stroke-dasharray:1.000000,3.000000;stroke-dashoffset:0.0;stroke-linecap:butt;stroke-width:0.5;"/>
     </g>
     <g id="line2d_3">
      <defs>
       <path d="
M0 0
L0 -4" id="m3fbe6c24f1"/>
      </defs>
      <g>
       <use style="stroke:#000000;stroke-linecap:butt;stroke-width:0.5;" x="175.991677999" xlink:href="#m3fbe6c24f1" y="265.417404347"/>
      </g>
     </g>
     <g id="text_1">
      <!-- 5 -->
      <defs>
       <path d="
M10.7969 72.9062
L49.5156 72.9062
L49.5156 64.5938
L19.8281 64.5938
L19.8281 46.7344
Q21.9688 47.4688 24.1094 47.8281
Q26.2656 48.1875 28.4219 48.1875
Q40.625 48.1875 47.75 41.5
Q54.8906 34.8125 54.8906 23.3906
Q54.8906 11.625 47.5625 5.09375
Q40.2344 -1.42188 26.9062 -1.42188
Q22.3125 -1.42188 17.5469 -0.640625
Q12.7969 0.140625 7.71875 1.70312
L7.71875 11.625
Q12.1094 9.23438 16.7969 8.0625
Q21.4844 6.89062 26.7031 6.89062
Q35.1562 6.89062 40.0781 11.3281
Q45.0156 15.7656 45.0156 23.3906
Q45.0156 31 40.0781 35.4375
Q35.1562 39.8906 26.7031 39.8906
Q22.75 39.8906 18.8125 39.0156
Q14.8906 38.1406 10.7969 36.2812
z
" id="BitstreamVeraSans-Roman-35"/>
      </defs>
      <g transform="translate(170.331052999 286.914904347)scale(0.24 -0.24)">
       <use xlink:href="#BitstreamVeraSans-Roman-35"/>
      </g>
     </g>
    </g>
    <g id="xtick_2">
     <g id="line2d_4">
      <path d="
M294.267 413.28
L294.267 7.2" style="fill:none;stroke:#000000;stroke-dasharray:1.000000,3.000000;stroke-dashoffset:0.0;stroke-linecap:butt;stroke-width:0.5;"/>
     </g>
     <g id="line2d_5">
      <defs>
       <path d="
M0 0
L0 -4" id="m3fbe6c24f1"/>
      </defs>
      <g>
       <use style="stroke:#000000;stroke-linecap:butt;stroke-width:0.5;" x="294.267289208" xlink:href="#m3fbe6c24f1" y="265.417404347"/>
      </g>
     </g>
     <g id="text_2">
      <!-- 10 -->
      <defs>
       <path d="
M31.7812 66.4062
Q24.1719 66.4062 20.3281 58.9062
Q16.5 51.4219 16.5 36.375
Q16.5 21.3906 20.3281 13.8906
Q24.1719 6.39062 31.7812 6.39062
Q39.4531 6.39062 43.2812 13.8906
Q47.125 21.3906 47.125 36.375
Q47.125 51.4219 43.2812 58.9062
Q39.4531 66.4062 31.7812 66.4062
M31.7812 74.2188
Q44.0469 74.2188 50.5156 64.5156
Q56.9844 54.8281 56.9844 36.375
Q56.9844 17.9688 50.5156 8.26562
Q44.0469 -1.42188 31.7812 -1.42188
Q19.5312 -1.42188 13.0625 8.26562
Q6.59375 17.9688 6.59375 36.375
Q6.59375 54.8281 13.0625 64.5156
Q19.5312 74.2188 31.7812 74.2188" id="BitstreamVeraSans-Roman-30"/>
       <path d="
M12.4062 8.29688
L28.5156 8.29688
L28.5156 63.9219
L10.9844 60.4062
L10.9844 69.3906
L28.4219 72.9062
L38.2812 72.9062
L38.2812 8.29688
L54.3906 8.29688
L54.3906 0
L12.4062 0
z
" id="BitstreamVeraSans-Roman-31"/>
      </defs>
      <g transform="translate(281.112289208 287.229904347)scale(0.24 -0.24)">
       <use xlink:href="#BitstreamVeraSans-Roman-31"/>
       <use x="63.623046875" xlink:href="#BitstreamVeraSans-Roman-30"/>
      </g>
     </g>
    </g>
    <g id="xtick_3">
     <g id="line2d_6">
      <path d="
M412.543 413.28
L412.543 7.2" style="fill:none;stroke:#000000;stroke-dasharray:1.000000,3.000000;stroke-dashoffset:0.0;stroke-linecap:butt;stroke-width:0.5;"/>
     </g>
     <g id="line2d_7">
      <defs>
       <path d="
M0 0
L0 -4" id="m3fbe6c24f1"/>
      </defs>
      <g>
       <use style="stroke:#000000;stroke-linecap:butt;stroke-width:0.5;" x="412.542900418" xlink:href="#m3fbe6c24f1" y="265.417404347"/>
      </g>
     </g>
     <g id="text_3">
      <!-- 15 -->
      <g transform="translate(399.639150418 286.914904347)scale(0.24 -0.24)">
       <use xlink:href="#BitstreamVeraSans-Roman-31"/>
       <use x="63.623046875" xlink:href="#BitstreamVeraSans-Roman-35"/>
      </g>
     </g>
    </g>
    <g id="xtick_4">
     <g id="line2d_8">
      <path d="
M530.819 413.28
L530.819 7.2" style="fill:none;stroke:#000000;stroke-dasharray:1.000000,3.000000;stroke-dashoffset:0.0;stroke-linecap:butt;stroke-width:0.5;"/>
     </g>
     <g id="line2d_9">
      <defs>
       <path d="
M0 0
L0 -4" id="m3fbe6c24f1"/>
      </defs>
      <g>
       <use style="stroke:#000000;stroke-linecap:butt;stroke-width:0.5;" x="530.818511627" xlink:href="#m3fbe6c24f1" y="265.417404347"/>
      </g>
     </g>
     <g id="text_4">
      <!-- 20 -->
      <defs>
       <path d="
M19.1875 8.29688
L53.6094 8.29688
L53.6094 0
L7.32812 0
L7.32812 8.29688
Q12.9375 14.1094 22.625 23.8906
Q32.3281 33.6875 34.8125 36.5312
Q39.5469 41.8438 41.4219 45.5312
Q43.3125 49.2188 43.3125 52.7812
Q43.3125 58.5938 39.2344 62.25
Q35.1562 65.9219 28.6094 65.9219
Q23.9688 65.9219 18.8125 64.3125
Q13.6719 62.7031 7.8125 59.4219
L7.8125 69.3906
Q13.7656 71.7812 18.9375 73
Q24.125 74.2188 28.4219 74.2188
Q39.75 74.2188 46.4844 68.5469
Q53.2188 62.8906 53.2188 53.4219
Q53.2188 48.9219 51.5312 44.8906
Q49.8594 40.875 45.4062 35.4062
Q44.1875 33.9844 37.6406 27.2188
Q31.1094 20.4531 19.1875 8.29688" id="BitstreamVeraSans-Roman-32"/>
      </defs>
      <g transform="translate(517.224761627 287.229904347)scale(0.24 -0.24)">
       <use xlink:href="#BitstreamVeraSans-Roman-32"/>
       <use x="63.623046875" xlink:href="#BitstreamVeraSans-Roman-30"/>
      </g>
     </g>
    </g>
    <g id="xtick_5">
     <g id="line2d_10">
      <defs>
       <path d="
M0 0
L0 -2" id="mf0ff38ea95"/>
      </defs>
      <g>
       <use style="stroke:#000000;stroke-linecap:butt;stroke-width:0.5;" x="81.371189031" xlink:href="#mf0ff38ea95" y="265.417404347"/>
      </g>
     </g>
    </g>
    <g id="xtick_6">
     <g id="line2d_11">
      <defs>
       <path d="
M0 0
L0 -2" id="mf0ff38ea95"/>
      </defs>
      <g>
       <use style="stroke:#000000;stroke-linecap:butt;stroke-width:0.5;" x="105.026311273" xlink:href="#mf0ff38ea95" y="265.417404347"/>
      </g>
     </g>
    </g>
    <g id="xtick_7">
     <g id="line2d_12">
      <defs>
       <path d="
M0 0
L0 -2" id="mf0ff38ea95"/>
      </defs>
      <g>
       <use style="stroke:#000000;stroke-linecap:butt;stroke-width:0.5;" x="128.681433515" xlink:href="#mf0ff38ea95" y="265.417404347"/>
      </g>
     </g>
    </g>
    <g id="xtick_8">
     <g id="line2d_13">
      <defs>
       <path d="
M0 0
L0 -2" id="mf0ff38ea95"/>
      </defs>
      <g>
       <use style="stroke:#000000;stroke-linecap:butt;stroke-width:0.5;" x="152.336555757" xlink:href="#mf0ff38ea95" y="265.417404347"/>
      </g>
     </g>
    </g>
    <g id="xtick_9">
     <g id="line2d_14">
      <defs>
       <path d="
M0 0
L0 -2" id="mf0ff38ea95"/>
      </defs>
      <g>
       <use style="stroke:#000000;stroke-linecap:butt;stroke-width:0.5;" x="199.646800241" xlink:href="#mf0ff38ea95" y="265.417404347"/>
      </g>
     </g>
    </g>
    <g id="xtick_10">
     <g id="line2d_15">
      <defs>
       <path d="
M0 0
L0 -2" id="mf0ff38ea95"/>
      </defs>
      <g>
       <use style="stroke:#000000;stroke-linecap:butt;stroke-width:0.5;" x="223.301922482" xlink:href="#mf0ff38ea95" y="265.417404347"/>
      </g>
     </g>
    </g>
    <g id="xtick_11">
     <g id="line2d_16">
      <defs>
       <path d="
M0 0
L0 -2" id="mf0ff38ea95"/>
      </defs>
      <g>
       <use style="stroke:#000000;stroke-linecap:butt;stroke-width:0.5;" x="246.957044724" xlink:href="#mf0ff38ea95" y="265.417404347"/>
      </g>
     </g>
    </g>
    <g id="xtick_12">
     <g id="line2d_17">
      <defs>
       <path d="
M0 0
L0 -2" id="mf0ff38ea95"/>
      </defs>
      <g>
       <use style="stroke:#000000;stroke-linecap:butt;stroke-width:0.5;" x="270.612166966" xlink:href="#mf0ff38ea95" y="265.417404347"/>
      </g>
     </g>
    </g>
    <g id="xtick_13">
     <g id="line2d_18">
      <defs>
       <path d="
M0 0
L0 -2" id="mf0ff38ea95"/>
      </defs>
      <g>
       <use style="stroke:#000000;stroke-linecap:butt;stroke-width:0.5;" x="317.92241145" xlink:href="#mf0ff38ea95" y="265.417404347"/>
      </g>
     </g>
    </g>
    <g id="xtick_14">
     <g id="line2d_19">
      <defs>
       <path d="
M0 0
L0 -2" id="mf0ff38ea95"/>
      </defs>
      <g>
       <use style="stroke:#000000;stroke-linecap:butt;stroke-width:0.5;" x="341.577533692" xlink:href="#mf0ff38ea95" y="265.417404347"/>
      </g>
     </g>
    </g>
    <g id="xtick_15">
     <g id="line2d_20">
      <defs>
       <path d="
M0 0
L0 -2" id="mf0ff38ea95"/>
      </defs>
      <g>
       <use style="stroke:#000000;stroke-linecap:butt;stroke-width:0.5;" x="365.232655934" xlink:href="#mf0ff38ea95" y="265.417404347"/>
      </g>
     </g>
    </g>
    <g id="xtick_16">
     <g id="line2d_21">
      <defs>
       <path d="
M0 0
L0 -2" id="mf0ff38ea95"/>
      </defs>
      <g>
       <use style="stroke:#000000;stroke-linecap:butt;stroke-width:0.5;" x="388.887778176" xlink:href="#mf0ff38ea95" y="265.417404347"/>
      </g>
     </g>
    </g>
    <g id="xtick_17">
     <g id="line2d_22">
      <defs>
       <path d="
M0 0
L0 -2" id="mf0ff38ea95"/>
      </defs>
      <g>
       <use style="stroke:#000000;stroke-linecap:butt;stroke-width:0.5;" x="436.198022659" xlink:href="#mf0ff38ea95" y="265.417404347"/>
      </g>
     </g>
    </g>
    <g id="xtick_18">
     <g id="line2d_23">
      <defs>
       <path d="
M0 0
L0 -2" id="mf0ff38ea95"/>
      </defs>
      <g>
       <use style="stroke:#000000;stroke-linecap:butt;stroke-width:0.5;" x="459.853144901" xlink:href="#mf0ff38ea95" y="265.417404347"/>
      </g>
     </g>
    </g>
    <g id="xtick_19">
     <g id="line2d_24">
      <defs>
       <path d="
M0 0
L0 -2" id="mf0ff38ea95"/>
      </defs>
      <g>
       <use style="stroke:#000000;stroke-linecap:butt;stroke-width:0.5;" x="483.508267143" xlink:href="#mf0ff38ea95" y="265.417404347"/>
      </g>
     </g>
    </g>
    <g id="xtick_20">
     <g id="line2d_25">
      <defs>
       <path d="
M0 0
L0 -2" id="mf0ff38ea95"/>
      </defs>
      <g>
       <use style="stroke:#000000;stroke-linecap:butt;stroke-width:0.5;" x="507.163389385" xlink:href="#mf0ff38ea95" y="265.417404347"/>
      </g>
     </g>
    </g>
   </g>
   <g id="matplotlib.axis_2">
    <g id="ytick_1">
     <g id="line2d_26">
      <path d="
M64.6363 346.018
L557.404 346.018" style="fill:none;stroke:#000000;stroke-dasharray:1.000000,3.000000;stroke-dashoffset:0.0;stroke-linecap:butt;stroke-width:0.5;"/>
     </g>
     <g id="line2d_27">
      <defs>
       <path d="
M0 0
L4 0" id="mc91e532072"/>
      </defs>
      <g>
       <use style="stroke:#000000;stroke-linecap:butt;stroke-width:0.5;" x="54.63625" xlink:href="#mc91e532072" y="346.017652984"/>
      </g>
     </g>
     <g id="text_5">
      <!-- -0.1 -->
      <defs>
       <path d="
M10.6875 12.4062
L21 12.4062
L21 0
L10.6875 0
z
" id="BitstreamVeraSans-Roman-2e"/>
       <path d="
M4.89062 31.3906
L31.2031 31.3906
L31.2031 23.3906
L4.89062 23.3906
z
" id="BitstreamVeraSans-Roman-2d"/>
      </defs>
      <g transform="translate(7.2 354.753277984)scale(0.24 -0.24)">
       <use xlink:href="#BitstreamVeraSans-Roman-2d"/>
       <use x="36.083984375" xlink:href="#BitstreamVeraSans-Roman-30"/>
       <use x="99.70703125" xlink:href="#BitstreamVeraSans-Roman-2e"/>
       <use x="131.494140625" xlink:href="#BitstreamVeraSans-Roman-31"/>
      </g>
     </g>
    </g>
    <g id="ytick_2">
     <g id="line2d_28">
      <path d="
M64.6363 265.417
L557.404 265.417" style="fill:none;stroke:#000000;stroke-dasharray:1.000000,3.000000;stroke-dashoffset:0.0;stroke-linecap:butt;stroke-width:0.5;"/>
     </g>
     <g id="line2d_29">
      <defs>
       <path d="
M0 0
L4 0" id="mc91e532072"/>
      </defs>
      <g>
       <use style="stroke:#000000;stroke-linecap:butt;stroke-width:0.5;" x="54.63625" xlink:href="#mc91e532072" y="265.417404347"/>
      </g>
     </g>
     <g id="text_6">
      <!-- 0 -->
      <g transform="translate(38.5425 274.153029347)scale(0.24 -0.24)">
       <use xlink:href="#BitstreamVeraSans-Roman-30"/>
      </g>
     </g>
    </g>
    <g id="ytick_3">
     <g id="line2d_30">
      <path d="
M64.6363 184.817
L557.404 184.817" style="fill:none;stroke:#000000;stroke-dasharray:1.000000,3.000000;stroke-dashoffset:0.0;stroke-linecap:butt;stroke-width:0.5;"/>
     </g>
     <g id="line2d_31">
      <defs>
       <path d="
M0 0
L4 0" id="mc91e532072"/>
      </defs>
      <g>
       <use style="stroke:#000000;stroke-linecap:butt;stroke-width:0.5;" x="54.63625" xlink:href="#mc91e532072" y="184.81715571"/>
      </g>
     </g>
     <g id="text_7">
      <!-- 0.1 -->
      <g transform="translate(16.2675 193.55278071)scale(0.24 -0.24)">
       <use xlink:href="#BitstreamVeraSans-Roman-30"/>
       <use x="63.623046875" xlink:href="#BitstreamVeraSans-Roman-2e"/>
       <use x="95.41015625" xlink:href="#BitstreamVeraSans-Roman-31"/>
      </g>
     </g>
    </g>
    <g id="ytick_4">
     <g id="line2d_32">
      <path d="
M64.6363 104.217
L557.404 104.217" style="fill:none;stroke:#000000;stroke-dasharray:1.000000,3.000000;stroke-dashoffset:0.0;stroke-linecap:butt;stroke-width:0.5;"/>
     </g>
     <g id="line2d_33">
      <defs>
       <path d="
M0 0
L4 0" id="mc91e532072"/>
      </defs>
      <g>
       <use style="stroke:#000000;stroke-linecap:butt;stroke-width:0.5;" x="54.63625" xlink:href="#mc91e532072" y="104.216907073"/>
      </g>
     </g>
     <g id="text_8">
      <!-- 0.2 -->
      <g transform="translate(16.455 112.952532073)scale(0.24 -0.24)">
       <use xlink:href="#BitstreamVeraSans-Roman-30"/>
       <use x="63.623046875" xlink:href="#BitstreamVeraSans-Roman-2e"/>
       <use x="95.41015625" xlink:href="#BitstreamVeraSans-Roman-32"/>
      </g>
     </g>
    </g>
    <g id="ytick_5">
     <g id="line2d_34">
      <path d="
M64.6363 23.6167
L557.404 23.6167" style="fill:none;stroke:#000000;stroke-dasharray:1.000000,3.000000;stroke-dashoffset:0.0;stroke-linecap:butt;stroke-width:0.5;"/>
     </g>
     <g id="line2d_35">
      <defs>
       <path d="
M0 0
L4 0" id="mc91e532072"/>
      </defs>
      <g>
       <use style="stroke:#000000;stroke-linecap:butt;stroke-width:0.5;" x="54.63625" xlink:href="#mc91e532072" y="23.6166584354"/>
      </g>
     </g>
     <g id="text_9">
      <!-- 0.3 -->
      <defs>
       <path d="
M40.5781 39.3125
Q47.6562 37.7969 51.625 33
Q55.6094 28.2188 55.6094 21.1875
Q55.6094 10.4062 48.1875 4.48438
Q40.7656 -1.42188 27.0938 -1.42188
Q22.5156 -1.42188 17.6562 -0.515625
Q12.7969 0.390625 7.625 2.20312
L7.625 11.7188
Q11.7188 9.32812 16.5938 8.10938
Q21.4844 6.89062 26.8125 6.89062
Q36.0781 6.89062 40.9375 10.5469
Q45.7969 14.2031 45.7969 21.1875
Q45.7969 27.6406 41.2812 31.2656
Q36.7656 34.9062 28.7188 34.9062
L20.2188 34.9062
L20.2188 43.0156
L29.1094 43.0156
Q36.375 43.0156 40.2344 45.9219
Q44.0938 48.8281 44.0938 54.2969
Q44.0938 59.9062 40.1094 62.9062
Q36.1406 65.9219 28.7188 65.9219
Q24.6562 65.9219 20.0156 65.0312
Q15.375 64.1562 9.8125 62.3125
L9.8125 71.0938
Q15.4375 72.6562 20.3438 73.4375
Q25.25 74.2188 29.5938 74.2188
Q40.8281 74.2188 47.3594 69.1094
Q53.9062 64.0156 53.9062 55.3281
Q53.9062 49.2656 50.4375 45.0938
Q46.9688 40.9219 40.5781 39.3125" id="BitstreamVeraSans-Roman-33"/>
      </defs>
      <g transform="translate(15.975 32.3522834354)scale(0.24 -0.24)">
       <use xlink:href="#BitstreamVeraSans-Roman-30"/>
       <use x="63.623046875" xlink:href="#BitstreamVeraSans-Roman-2e"/>
       <use x="95.41015625" xlink:href="#BitstreamVeraSans-Roman-33"/>
      </g>
     </g>
    </g>
    <g id="ytick_6">
     <g id="line2d_36">
      <defs>
       <path d="
M0 0
L2 0" id="m0789224b6b"/>
      </defs>
      <g>
       <use style="stroke:#000000;stroke-linecap:butt;stroke-width:0.5;" x="54.63625" xlink:href="#m0789224b6b" y="410.497851894"/>
      </g>
     </g>
    </g>
    <g id="ytick_7">
     <g id="line2d_37">
      <defs>
       <path d="
M0 0
L2 0" id="m0789224b6b"/>
      </defs>
      <g>
       <use style="stroke:#000000;stroke-linecap:butt;stroke-width:0.5;" x="54.63625" xlink:href="#m0789224b6b" y="394.377802166"/>
      </g>
     </g>
    </g>
    <g id="ytick_8">
     <g id="line2d_38">
      <defs>
       <path d="
M0 0
L2 0" id="m0789224b6b"/>
      </defs>
      <g>
       <use style="stroke:#000000;stroke-linecap:butt;stroke-width:0.5;" x="54.63625" xlink:href="#m0789224b6b" y="378.257752439"/>
      </g>
     </g>
    </g>
    <g id="ytick_9">
     <g id="line2d_39">
      <defs>
       <path d="
M0 0
L2 0" id="m0789224b6b"/>
      </defs>
      <g>
       <use style="stroke:#000000;stroke-linecap:butt;stroke-width:0.5;" x="54.63625" xlink:href="#m0789224b6b" y="362.137702711"/>
      </g>
     </g>
    </g>
    <g id="ytick_10">
     <g id="line2d_40">
      <defs>
       <path d="
M0 0
L2 0" id="m0789224b6b"/>
      </defs>
      <g>
       <use style="stroke:#000000;stroke-linecap:butt;stroke-width:0.5;" x="54.63625" xlink:href="#m0789224b6b" y="329.897603257"/>
      </g>
     </g>
    </g>
    <g id="ytick_11">
     <g id="line2d_41">
      <defs>
       <path d="
M0 0
L2 0" id="m0789224b6b"/>
      </defs>
      <g>
       <use style="stroke:#000000;stroke-linecap:butt;stroke-width:0.5;" x="54.63625" xlink:href="#m0789224b6b" y="313.777553529"/>
      </g>
     </g>
    </g>
    <g id="ytick_12">
     <g id="line2d_42">
      <defs>
       <path d="
M0 0
L2 0" id="m0789224b6b"/>
      </defs>
      <g>
       <use style="stroke:#000000;stroke-linecap:butt;stroke-width:0.5;" x="54.63625" xlink:href="#m0789224b6b" y="297.657503802"/>
      </g>
     </g>
    </g>
    <g id="ytick_13">
     <g id="line2d_43">
      <defs>
       <path d="
M0 0
L2 0" id="m0789224b6b"/>
      </defs>
      <g>
       <use style="stroke:#000000;stroke-linecap:butt;stroke-width:0.5;" x="54.63625" xlink:href="#m0789224b6b" y="281.537454074"/>
      </g>
     </g>
    </g>
    <g id="ytick_14">
     <g id="line2d_44">
      <defs>
       <path d="
M0 0
L2 0" id="m0789224b6b"/>
      </defs>
      <g>
       <use style="stroke:#000000;stroke-linecap:butt;stroke-width:0.5;" x="54.63625" xlink:href="#m0789224b6b" y="265.417404347"/>
      </g>
     </g>
    </g>
    <g id="ytick_15">
     <g id="line2d_45">
      <defs>
       <path d="
M0 0
L2 0" id="m0789224b6b"/>
      </defs>
      <g>
       <use style="stroke:#000000;stroke-linecap:butt;stroke-width:0.5;" x="54.63625" xlink:href="#m0789224b6b" y="249.297354619"/>
      </g>
     </g>
    </g>
    <g id="ytick_16">
     <g id="line2d_46">
      <defs>
       <path d="
M0 0
L2 0" id="m0789224b6b"/>
      </defs>
      <g>
       <use style="stroke:#000000;stroke-linecap:butt;stroke-width:0.5;" x="54.63625" xlink:href="#m0789224b6b" y="233.177304892"/>
      </g>
     </g>
    </g>
    <g id="ytick_17">
     <g id="line2d_47">
      <defs>
       <path d="
M0 0
L2 0" id="m0789224b6b"/>
      </defs>
      <g>
       <use style="stroke:#000000;stroke-linecap:butt;stroke-width:0.5;" x="54.63625" xlink:href="#m0789224b6b" y="217.057255165"/>
      </g>
     </g>
    </g>
    <g id="ytick_18">
     <g id="line2d_48">
      <defs>
       <path d="
M0 0
L2 0" id="m0789224b6b"/>
      </defs>
      <g>
       <use style="stroke:#000000;stroke-linecap:butt;stroke-width:0.5;" x="54.63625" xlink:href="#m0789224b6b" y="200.937205437"/>
      </g>
     </g>
    </g>
    <g id="ytick_19">
     <g id="line2d_49">
      <defs>
       <path d="
M0 0
L2 0" id="m0789224b6b"/>
      </defs>
      <g>
       <use style="stroke:#000000;stroke-linecap:butt;stroke-width:0.5;" x="54.63625" xlink:href="#m0789224b6b" y="168.697105982"/>
      </g>
     </g>
    </g>
    <g id="ytick_20">
     <g id="line2d_50">
      <defs>
       <path d="
M0 0
L2 0" id="m0789224b6b"/>
      </defs>
      <g>
       <use style="stroke:#000000;stroke-linecap:butt;stroke-width:0.5;" x="54.63625" xlink:href="#m0789224b6b" y="152.577056255"/>
      </g>
     </g>
    </g>
    <g id="ytick_21">
     <g id="line2d_51">
      <defs>
       <path d="
M0 0
L2 0" id="m0789224b6b"/>
      </defs>
      <g>
       <use style="stroke:#000000;stroke-linecap:butt;stroke-width:0.5;" x="54.63625" xlink:href="#m0789224b6b" y="136.457006527"/>
      </g>
     </g>
    </g>
    <g id="ytick_22">
     <g id="line2d_52">
      <defs>
       <path d="
M0 0
L2 0" id="m0789224b6b"/>
      </defs>
      <g>
       <use style="stroke:#000000;stroke-linecap:butt;stroke-width:0.5;" x="54.63625" xlink:href="#m0789224b6b" y="120.3369568"/>
      </g>
     </g>
    </g>
    <g id="ytick_23">
     <g id="line2d_53">
      <defs>
       <path d="
M0 0
L2 0" id="m0789224b6b"/>
      </defs>
      <g>
       <use style="stroke:#000000;stroke-linecap:butt;stroke-width:0.5;" x="54.63625" xlink:href="#m0789224b6b" y="88.0968573451"/>
      </g>
     </g>
    </g>
    <g id="ytick_24">
     <g id="line2d_54">
      <defs>
       <path d="
M0 0
L2 0" id="m0789224b6b"/>
      </defs>
      <g>
       <use style="stroke:#000000;stroke-linecap:butt;stroke-width:0.5;" x="54.63625" xlink:href="#m0789224b6b" y="71.9768076177"/>
      </g>
     </g>
    </g>
    <g id="ytick_25">
     <g id="line2d_55">
      <defs>
       <path d="
M0 0
L2 0" id="m0789224b6b"/>
      </defs>
      <g>
       <use style="stroke:#000000;stroke-linecap:butt;stroke-width:0.5;" x="54.63625" xlink:href="#m0789224b6b" y="55.8567578903"/>
      </g>
     </g>
    </g>
    <g id="ytick_26">
     <g id="line2d_56">
      <defs>
       <path d="
M0 0
L2 0" id="m0789224b6b"/>
      </defs>
      <g>
       <use style="stroke:#000000;stroke-linecap:butt;stroke-width:0.5;" x="54.63625" xlink:href="#m0789224b6b" y="39.7367081629"/>
      </g>
     </g>
    </g>
    <g id="ytick_27">
     <g id="line2d_57">
      <defs>
       <path d="
M0 0
L2 0" id="m0789224b6b"/>
      </defs>
      <g>
       <use style="stroke:#000000;stroke-linecap:butt;stroke-width:0.5;" x="54.63625" xlink:href="#m0789224b6b" y="23.6166584354"/>
      </g>
     </g>
    </g>
   </g>
   <g id="patch_3">
    <path d="
M64.6363 265.417
L557.404 265.417" style="fill:none;stroke:#000000;stroke-width:0.8;"/>
   </g>
   <g id="patch_4">
    <path d="
M54.6363 413.28
L54.6363 7.2" style="fill:none;stroke:#000000;stroke-width:0.8;"/>
   </g>
  </g>
 </g>
 <defs>
  <clipPath id="pdbed04beec">
   <rect height="406.08" width="492.7675" x="64.63625" y="7.2"/>
  </clipPath>
 </defs>
</svg>
