<?xml version="1.0" encoding="utf-8" standalone="no"?>
<!DOCTYPE svg PUBLIC "-//W3C//DTD SVG 1.1//EN"
  "http://www.w3.org/Graphics/SVG/1.1/DTD/svg11.dtd">
<!-- Created with matplotlib (http://matplotlib.sourceforge.net/) -->
<svg height="419pt" version="1.1" viewBox="0 0 564 419" width="564pt" xmlns="http://www.w3.org/2000/svg" xmlns:xlink="http://www.w3.org/1999/xlink">
 <defs>
  <style type="text/css">
*{stroke-linecap:square;stroke-linejoin:round;}
  </style>
 </defs>
 <g id="figure_1">
  <g id="patch_1">
   <path d="
M0 419.232
L564.611 419.232
L564.611 0
L0 0
z
" style="fill:#ffffff;"/>
  </g>
  <g id="axes_1">
   <g id="patch_2">
    <path d="
M64.7562 410.274
L557.411 410.274
L557.411 7.2
L64.7562 7.2
z
" style="fill:#ffffff;"/>
   </g>
   <g id="line2d_1">
    <path clip-path="url(#paba9eb1d17)" d="
M74.2304 182.564
L83.8195 182.564
L83.8195 228.917
L95.9004 228.917
L95.9004 310.091
L103.858 310.091
L103.858 371.596
L114.547 371.596
L114.547 396.863
L118.498 396.863
L118.498 393.219
L124.842 393.219
L124.842 402.522
L127.473 402.522
L127.473 399.895
L131.991 399.895
L131.991 386.652
L137.473 386.652
L137.473 362.883
L139.05 362.883
L139.05 359.381
L143.235 359.381
L143.235 357.263
L145.663 357.263
L145.663 352.434
L146.789 352.434
L146.789 348.671
L148.893 348.671
L148.893 339.045
L151.734 339.045
L151.734 330.613
L154.27 330.613
L154.27 320.471
L155.059 320.471
L155.059 318.407
L157.277 318.407
L157.277 310.254
L158.649 310.254
L158.649 306.986
L159.306 306.986
L159.306 306.181
L161.174 306.181
L161.174 301.963
L162.342 301.963
L162.342 298.219
L163.993 298.219
L163.993 294.772
L166.028 294.772
L166.028 292.661
L167.448 292.59
L167.448 292.979
L168.349 292.979
L168.349 294.531
L168.787 294.531
L168.787 294.874
L172.401 294.77
L172.401 292.065
L174.194 291.969
L174.194 290.973
L174.537 290.973
L174.537 290.383
L176.18 290.383
L176.18 286.347
L176.495 286.347
L176.495 285.832
L177.416 285.832
L177.416 283.655
L178.303 283.655
L178.303 282.258
L178.877 282.258
L178.877 281.786
L180.518 281.702
L180.518 282.181
L180.781 282.181
L180.781 282.516
L182.052 282.516
L182.052 283.225
L182.784 283.191
L182.784 282.801
L184.408 282.768
L184.408 281.671
L185.716 281.671
L185.716 281.482
L186.136 281.482
L186.136 281.158
L186.344 281.158
L186.344 280.871
L186.753 280.871
L186.753 280.559
L187.552 280.468
L187.552 280.319
L188.513 280.319
L188.513 280.17
L189.072 280.17
L189.072 280.408
L190.151 280.318
L190.151 279.924
L190.844 279.894
L190.844 280.098
L191.183 280.098
L191.183 280.418
L191.351 280.418
L191.351 280.667
L192.172 280.667
L192.172 282.319
L193.276 282.319
L193.276 283.876
L193.582 283.876
L193.582 284.135
L193.734 284.135
L193.734 284.341
L194.034 284.341
L194.034 284.906
L195.056 284.906
L195.056 286.256
L195.481 286.256
L195.481 286.585
L196.173 286.585
L196.173 286.762
L196.578 286.863
L196.578 287.197
L196.977 287.197
L196.977 287.488
L197.498 287.488
L197.498 288.116
L197.881 288.116
L197.881 288.384
L198.507 288.463
L198.507 288.632
L199.593 288.569
L199.593 288.392
L200.06 288.392
L200.06 288.261
L200.632 288.261
L200.632 287.838
L200.744 287.838
L200.744 287.704
L201.299 287.704
L201.409 287.168
L201.734 287.168
L201.734 286.931
L201.949 286.931
L201.949 286.68
L202.267 286.68
L202.267 286.451
L202.685 286.451
L202.685 285.969
L202.891 285.969
L202.993 285.704
L203.197 285.704
L203.197 285.384
L203.797 285.384
L203.797 284.704
L204.188 284.704
L204.188 284.431
L205.233 284.539
L205.233 284.81
L205.784 284.81
L205.875 285.119
L206.675 285.119
L206.675 284.89
L206.936 284.89
L206.936 284.711
L207.365 284.711
L207.365 284.249
L207.618 284.249
L207.618 283.877
L207.869 283.877
L207.952 283.228
L208.199 283.228
L208.199 282.581
L208.605 282.581
L208.605 281.369
L208.846 281.369
L208.846 280.75
L209.084 280.75
L209.163 280.091
L209.398 280.091
L209.398 279.583
L209.63 279.583
L209.63 278.995
L209.784 278.995
L209.861 278.301
L210.315 278.301
L210.315 276.662
L210.686 276.662
L210.76 275.263
L210.907 275.263
L210.907 274.797
L211.125 274.797
L211.125 274.187
L211.341 274.187
L211.413 273.308
L211.839 273.308
L211.839 272.289
L211.979 272.289
L211.979 271.906
L212.187 271.906
L212.187 271.412
L212.463 271.412
L212.463 270.862
L212.803 270.862
L212.803 270.308
L213.071 270.308
L213.071 269.779
L213.402 269.779
L213.402 269.247
L213.664 269.247
L213.664 268.738
L213.858 268.738
L213.858 268.295
L214.051 268.295
L214.051 267.924
L214.179 267.924
L214.179 267.723
L214.432 267.723
L214.432 267.24
L214.62 267.24
L214.62 266.947
L214.745 266.947
L214.745 266.711
L214.992 266.711
L214.992 266.328
L215.115 266.328
L215.115 266.098
L215.539 266.098
L215.539 265.165
L215.838 265.165
L215.838 264.613
L216.191 264.613
L216.25 263.974
L216.54 263.974
L216.597 263.211
L216.712 263.211
L216.769 262.864
L217.053 262.864
L217.053 262.263
L217.444 262.263
L217.555 261.013
L217.61 261.013
L217.72 260.582
L218.1 260.582
L218.208 259.454
L218.368 259.361
L218.368 259.142
L218.896 259.142
L219 258.026
L219.206 258.026
L219.206 257.546
L219.462 257.546
L219.462 256.878
L219.665 256.878
L219.766 255.967
L219.916 255.967
L219.916 255.534
L220.066 255.534
L220.066 255.06
L220.411 255.06
L220.508 253.77
L220.654 253.77
L220.654 253.358
L220.799 253.358
L220.799 252.993
L220.99 252.993
L220.99 252.569
L221.133 252.569
L221.133 252.296
L221.416 252.296
L221.51 251.499
L221.649 251.499
L221.696 251.19
L221.926 251.19
L221.972 250.766
L222.109 250.766
L222.109 250.55
L222.335 250.55
L222.381 250.216
L222.604 250.216
L222.649 249.887
L223.177 249.795
L223.264 249.301
L223.394 249.235
L223.394 249.127
L223.523 249.127
L223.523 249.003
L223.651 249.003
L223.651 248.843
L223.821 248.843
L223.821 248.585
L223.948 248.585
L223.948 248.429
L224.074 248.429
L224.074 248.309
L224.53 248.309
L224.571 247.712
L224.775 247.712
L224.775 247.465
L224.937 247.465
L224.937 247.313
L225.139 247.313
L225.139 247.071
L225.258 247.071
L225.258 246.895
L225.378 246.895
L225.378 246.753
L225.536 246.753
L225.536 246.522
L225.771 246.522
L225.849 245.962
L225.965 245.962
L225.965 245.763
L226.081 245.763
L226.119 245.53
L226.234 245.53
L226.234 245.365
L226.462 245.365
L226.462 245.099
L226.651 245.099
L226.651 244.83
L226.987 244.83
L227.098 244.034
L227.208 244.034
L227.245 243.665
L227.354 243.665
L227.463 243.171
L227.536 243.171
L227.536 243.014
L227.752 243.014
L227.788 242.415
L227.895 242.415
L227.895 242.157
L228.493 242.157
L228.597 240.334
L228.701 240.334
L228.701 240.117
L228.838 240.117
L228.838 239.863
L229.145 239.863
L229.145 239.378
L229.313 239.378
L229.313 239.154
L229.547 239.154
L229.646 238.615
L229.713 238.615
L229.811 238.294
L229.943 238.294
L230.04 237.802
L230.138 237.802
L230.138 237.604
L230.332 237.604
L230.332 237.165
L230.492 237.165
L230.587 236.564
L230.683 236.508
L230.778 236.245
L230.966 236.245
L230.966 235.959
L231.153 235.959
L231.153 235.723
L231.277 235.723
L231.277 235.596
L231.462 235.596
L231.553 235.227
L231.706 235.151
L231.706 235.015
L231.827 235.015
L231.887 234.804
L232.007 234.804
L232.067 234.595
L232.275 234.595
L232.334 234.404
L232.511 234.307
L232.599 234.148
L232.86 234.039
L232.86 233.93
L233.147 233.93
L233.233 233.755
L233.656 233.704
L233.739 233.282
L234.044 233.179
L234.071 232.999
L234.479 232.893
L234.56 232.865
L234.934 232.757
L234.96 232.728
L236.02 232.623
L236.121 232.505
L236.246 232.505
L236.246 232.335
L236.396 232.335
L236.471 232
L236.545 232
L236.545 231.884
L236.767 231.884
L236.791 231.455
L236.986 231.455
L237.01 231.066
L237.275 231.066
L237.347 230.493
L237.443 230.493
L237.514 230.22
L237.585 230.138
L237.632 230.04
L237.797 229.937
L237.797 229.874
L238.054 229.784
L238.054 229.705
L238.215 229.705
L238.215 229.563
L238.33 229.563
L238.399 229.35
L238.536 229.35
L238.627 229.068
L238.739 229.068
L238.739 228.901
L238.874 228.901
L238.897 228.632
L239.075 228.632
L239.164 228.109
L239.23 228.027
L239.34 227.785
L239.428 227.785
L239.428 227.605
L239.624 227.605
L239.624 227.242
L239.883 227.242
L239.99 226.676
L240.245 226.588
L240.309 226.414
L240.56 226.361
L240.623 226.15
L240.706 226.15
L240.768 225.958
L240.871 225.87
L240.871 225.82
L240.995 225.82
L241.015 225.679
L241.239 225.679
L241.32 225.509
L241.681 225.4
L241.741 225.364
L242.271 225.314
L242.367 225.165
L242.617 225.07
L242.656 225.001
L242.903 225.001
L242.903 224.806
L243.166 224.704
L243.24 224.559
L243.61 224.449
L243.72 224.226
L243.956 224.126
L243.992 224.089
L244.225 224.045
L244.332 223.886
L244.439 223.846
L244.545 223.587
L244.633 223.493
L244.686 223.341
L244.755 223.341
L244.86 223.037
L244.947 223.037
L245.051 222.792
L245.154 222.703
L245.154 222.665
L245.359 222.554
L245.461 222.367
L245.563 222.284
L245.58 222.207
L245.714 222.207
L245.714 221.966
L245.831 221.966
L245.915 221.619
L245.981 221.619
L246.064 221.293
L246.212 221.293
L246.278 220.814
L246.36 220.814
L246.458 220.378
L246.522 220.378
L246.603 219.957
L246.7 219.957
L246.7 219.688
L246.813 219.688
L246.893 219.116
L246.94 219.116
L246.956 218.921
L247.178 218.921
L247.273 217.941
L247.335 217.941
L247.367 217.641
L247.476 217.641
L247.569 217.06
L247.662 217.06
L247.708 216.69
L247.801 216.69
L247.877 216.296
L248.03 216.296
L248.121 215.781
L248.242 215.781
L248.242 215.538
L248.437 215.538
L248.482 215.023
L248.571 215.023
L248.646 214.714
L248.734 214.714
L248.838 214.339
L248.926 214.271
L248.926 214.146
L249.086 214.146
L249.144 213.716
L249.231 213.716
L249.231 213.517
L249.433 213.517
L249.533 212.871
L249.604 212.767
L249.661 212.558
L249.746 212.558
L249.775 212.288
L249.859 212.288
L249.958 211.879
L250.069 211.879
L250.083 211.656
L250.195 211.656
L250.236 211.333
L250.375 211.333
L250.484 210.804
L250.539 210.804
L250.621 210.532
L250.771 210.532
L250.825 210.076
L250.906 210.076
L251.013 209.611
L251.094 209.5
L251.147 209.221
L251.214 209.221
L251.307 208.802
L251.373 208.802
L251.452 208.487
L251.544 208.487
L251.648 208.064
L251.74 207.968
L251.779 207.807
L251.882 207.807
L251.973 207.411
L252.088 207.356
L252.152 207.067
L252.267 206.99
L252.356 206.776
L252.533 206.731
L252.583 206.541
L252.733 206.485
L252.795 206.346
L253.067 206.237
L253.165 206.099
L253.324 206.016
L253.433 205.886
L253.566 205.779
L253.674 205.631
L253.794 205.631
L253.794 205.476
L253.924 205.476
L254.031 205.195
L254.149 205.106
L254.149 205.061
L254.278 205.061
L254.324 204.862
L254.452 204.77
L254.533 204.628
L254.637 204.584
L254.74 204.405
L254.9 204.306
L254.911 204.276
L255.014 204.276
L255.014 204.161
L255.149 204.161
L255.25 203.885
L255.44 203.775
L255.551 203.652
L255.848 203.602
L255.914 203.52
L256.098 203.444
L256.195 203.357
L256.356 203.283
L256.463 203.168
L256.738 203.057
L256.843 202.921
L257.094 202.825
L257.125 202.781
L257.617 202.887
L257.698 202.944
L257.969 203.055
L258.059 203.061
L258.6 203.149
L258.678 203.18
L259.063 203.071
L259.139 203.008
L259.768 203.108
L259.823 203.154
L260.099 203.262
L260.181 203.333
L260.47 203.424
L260.56 203.565
L261.396 203.666
L261.448 203.708
L261.816 203.817
L261.909 203.85
L263.169 203.753
L263.193 203.736
L263.273 203.738
L263.693 203.843
L263.787 203.899
L264.343 203.992
L264.434 204.061
L265.183 203.955
L265.293 203.937
L265.829 203.829
L265.901 203.749
L266.15 203.646
L266.255 203.555
L266.508 203.447
L266.549 203.422
L266.826 203.313
L266.922 203.208
L267.085 203.107
L267.194 203.01
L267.356 202.907
L267.456 202.815
L267.63 202.723
L267.729 202.629
L268.162 202.556
L268.246 202.463
L268.516 202.358
L268.593 202.304
L268.815 202.195
L268.91 202.107
L269.085 202.002
L269.191 201.913
L269.383 201.827
L269.488 201.749
L270.106 201.651
L270.195 201.57
L270.497 201.477
L270.585 201.439
L271.335 201.546
L271.432 201.602
L271.724 201.709
L271.819 201.777
L272.04 201.875
L272.117 201.948
L272.314 202.056
L272.418 202.154
L272.531 202.25
L272.591 202.362
L272.687 202.453
L272.768 202.591
L272.869 202.648
L272.965 202.809
L273.07 202.89
L273.171 203.052
L273.275 203.152
L273.343 203.271
L273.437 203.345
L273.525 203.499
L273.618 203.597
L273.711 203.801
L273.788 203.87
L273.895 204.076
L273.992 204.168
L274.068 204.287
L274.174 204.377
L274.279 204.569
L274.379 204.679
L274.474 204.834
L274.563 204.936
L274.662 205.118
L274.751 205.224
L274.844 205.324
L275.02 205.431
L275.107 205.498
L275.305 205.605
L275.391 205.677
L275.581 205.778
L275.681 205.908
L275.803 205.987
L275.902 206.183
L276.014 206.289
L276.112 206.486
L276.181 206.558
L276.292 206.814
L276.361 206.898
L276.457 207.127
L276.567 207.238
L276.662 207.49
L276.762 207.597
L276.843 207.757
L276.946 207.812
L277.053 208.091
L277.125 208.194
L277.231 208.416
L277.311 208.506
L277.416 208.717
L277.548 208.825
L277.626 209.113
L277.704 209.211
L277.804 209.419
L277.869 209.517
L277.972 209.743
L278.036 209.825
L278.113 210.027
L278.168 210.133
L278.279 210.351
L278.367 210.437
L278.468 210.627
L278.548 210.712
L278.657 210.935
L278.723 211.002
L278.806 211.198
L278.897 211.279
L279.004 211.474
L279.127 211.535
L279.237 211.703
L279.371 211.807
L279.459 211.883
L279.588 211.983
L279.652 212.07
L279.791 212.178
L279.891 212.25
L280.115 212.359
L280.205 212.386
L280.461 212.488
L280.557 212.576
L280.695 212.654
L280.787 212.78
L280.912 212.886
L281.014 213.024
L281.146 213.127
L281.236 213.237
L281.351 213.342
L281.429 213.443
L281.537 213.542
L281.596 213.629
L281.713 213.732
L281.815 213.855
L281.924 213.942
L282.033 214.13
L282.184 214.239
L282.277 214.317
L282.452 214.427
L282.548 214.52
L282.78 214.627
L282.874 214.671
L283.275 214.779
L283.378 214.833
L283.612 214.94
L283.713 215.089
L284.087 215.198
L284.196 215.252
L284.383 215.354
L284.478 215.416
L284.702 215.527
L284.808 215.583
L284.974 215.689
L285.076 215.756
L285.298 215.864
L285.407 215.935
L285.604 216.041
L285.7 216.133
L285.873 216.244
L285.983 216.317
L286.148 216.426
L286.25 216.504
L286.458 216.614
L286.566 216.675
L286.927 216.784
L286.983 216.815
L287.14 216.913
L287.242 217.032
L287.375 217.116
L287.484 217.248
L287.69 217.355
L287.792 217.467
L287.944 217.571
L288.054 217.675
L288.224 217.781
L288.316 217.854
L289.202 217.964
L289.306 217.993
L289.662 218.101
L289.756 218.149
L290.097 218.259
L290.2 218.281
L291.299 218.176
L291.409 218.081
L291.648 217.98
L291.758 217.903
L292.529 218.011
L292.617 218.081
L292.824 218.186
L292.933 218.243
L293.063 218.345
L293.165 218.44
L293.362 218.546
L293.461 218.632
L293.587 218.727
L293.689 218.827
L294.672 218.735
L294.767 218.649
L295.158 218.579
L295.256 218.495
L295.643 218.424
L295.734 218.337
L296.03 218.235
L296.128 218.054
L296.322 217.944
L296.424 217.729
L296.64 217.629
L296.715 217.433
L296.92 217.339
L297.016 217.162
L297.213 217.073
L297.302 216.878
L297.613 216.78
L297.697 216.702
L297.998 216.624
L298.092 216.516
L300.636 216.417
L300.731 216.339
L300.94 216.263
L301.027 216.136
L301.222 216.04
L301.323 215.871
L301.524 215.79
L301.628 215.569
L301.817 215.488
L301.909 215.341
L302.597 215.237
L302.704 215.21
L304.752 215.101
L304.851 215.083
L305.049 215.04
L305.156 214.878
L305.342 214.797
L305.436 214.707
L307.009 214.641
L307.107 214.511
L307.302 214.436
L307.401 214.277
L307.598 214.186
L307.692 214.054
L307.894 213.973
L307.985 213.775
L308.086 213.775
L308.185 213.498
L308.283 213.498
L308.378 213.198
L308.482 213.198
L308.581 212.933
L308.773 212.846
L308.878 212.636
L309.073 212.527
L309.162 212.286
L309.265 212.286
L309.361 212.002
L309.463 212.002
L309.558 211.751
L309.656 211.751
L309.757 211.464
L309.957 211.364
L310.044 211.131
L310.144 211.131
L310.243 210.893
L310.37 210.893
L310.438 210.68
L310.543 210.68
L310.639 210.459
L310.833 210.374
L310.939 210.21
L312.399 210.101
L312.505 210.058
L314.168 210.158
L314.261 210.197
L315.344 210.302
L315.437 210.314
L316.419 210.208
L316.513 210.135
L316.814 210.043
L316.905 209.909
L317.101 209.819
L317.199 209.683
L317.499 209.595
L317.592 209.538
L318.475 209.603
L318.572 209.684
L319.847 209.576
L319.947 209.508
L320.436 209.4
L320.532 209.342
L320.828 209.237
L320.925 209.126
L321.123 209.046
L321.222 208.914
L321.415 208.845
L321.524 208.683
L321.713 208.617
L321.806 208.419
L322.005 208.323
L322.101 208.085
L322.197 208.085
L322.296 207.862
L322.497 207.772
L322.595 207.575
L322.786 207.487
L322.889 207.27
L323.083 207.18
L323.181 206.955
L323.276 206.955
L323.377 206.696
L323.472 206.696
L323.573 206.455
L323.768 206.357
L323.865 206.152
L323.962 206.152
L324.062 205.89
L324.161 205.89
L324.257 205.673
L324.36 205.673
L324.452 205.459
L324.552 205.459
L324.65 205.207
L324.746 205.207
L324.844 204.927
L324.945 204.927
L325.04 204.677
L325.138 204.677
L325.236 204.407
L325.335 204.407
L325.432 204.121
L325.533 204.121
L325.629 203.829
L325.726 203.829
L325.824 203.54
L325.924 203.54
L326.026 203.283
L326.218 203.177
L326.316 202.905
L326.414 202.905
L326.518 202.606
L326.614 202.606
L326.707 202.294
L326.805 202.294
L326.903 202.006
L327.003 202.006
L327.102 201.733
L327.198 201.733
L327.298 201.409
L327.396 201.409
L327.492 201.09
L327.588 201.09
L327.688 200.758
L327.785 200.758
L327.884 200.357
L327.981 200.357
L328.08 199.95
L328.18 199.95
L328.284 199.554
L328.373 199.554
L328.471 199.173
L328.572 199.173
L328.668 198.703
L328.768 198.703
L328.864 198.24
L328.961 198.24
L329.059 197.781
L329.16 197.781
L329.256 197.309
L329.357 197.309
L329.451 196.875
L329.552 196.875
L329.647 196.481
L329.746 196.481
L329.846 196.047
L329.944 196.047
L330.039 195.676
L330.139 195.676
L330.236 195.311
L330.333 195.311
L330.432 194.939
L330.53 194.939
L330.628 194.562
L330.732 194.562
L330.824 194.199
L330.922 194.199
L331.021 193.817
L331.121 193.817
L331.218 193.382
L331.314 193.382
L331.415 192.972
L331.513 192.972
L331.611 192.569
L331.706 192.569
L331.813 192.105
L331.904 192.105
L331.999 191.686
L332.099 191.686
L332.196 191.273
L332.296 191.273
L332.395 190.918
L332.49 190.918
L332.589 190.55
L332.687 190.55
L332.785 190.204
L332.886 190.204
L332.98 189.873
L333.08 189.873
L333.176 189.56
L333.276 189.56
L333.373 189.244
L333.472 189.244
L333.569 188.953
L333.764 188.842
L333.862 188.57
L333.961 188.57
L334.059 188.335
L334.353 188.247
L334.451 188.133
L334.744 188.024
L334.843 187.858
L335.038 187.749
L335.136 187.52
L335.235 187.52
L335.334 187.287
L335.53 187.181
L335.626 186.942
L335.727 186.942
L335.823 186.668
L335.923 186.668
L336.023 186.391
L336.12 186.391
L336.218 186.134
L336.413 186.039
L336.509 185.804
L336.608 185.804
L336.706 185.56
L336.802 185.56
L336.902 185.317
L337.002 185.317
L337.096 185.09
L337.197 185.09
L337.293 184.842
L337.392 184.842
L337.491 184.543
L337.587 184.543
L337.685 184.295
L337.786 184.295
L337.881 184.052
L337.981 184.052
L338.082 183.768
L338.176 183.768
L338.274 183.52
L338.374 183.52
L338.469 183.241
L338.568 183.241
L338.665 182.907
L338.765 182.907
L338.862 182.572
L338.959 182.572
L339.057 182.273
L339.156 182.273
L339.255 181.974
L339.351 181.974
L339.45 181.613
L339.548 181.613
L339.645 181.231
L339.743 181.231
L339.841 180.797
L339.939 180.797
L340.04 180.37
L340.137 180.37
L340.235 179.896
L340.333 179.896
L340.429 179.406
L340.528 179.406
L340.633 178.868
L340.725 178.868
L340.822 178.325
L340.919 178.325
L341.017 177.783
L341.115 177.783
L341.216 177.265
L341.312 177.265
L341.41 176.66
L341.511 176.66
L341.606 176.018
L341.705 176.018
L341.801 175.412
L341.901 175.412
L341.999 174.815
L342.096 174.815
L342.195 174.228
L342.292 174.228
L342.39 173.758
L342.488 173.758
L342.589 173.363
L342.684 173.363
L342.782 172.949
L342.88 172.949
L342.979 172.508
L343.076 172.508
L343.175 172.065
L343.273 172.065
L343.378 171.634
L343.47 171.634
L343.566 171.243
L343.665 171.243
L343.764 170.885
L343.86 170.885
L343.959 170.552
L344.056 170.552
L344.155 170.183
L344.253 170.183
L344.35 169.792
L344.448 169.792
L344.546 169.34
L344.644 169.34
L344.743 168.873
L344.841 168.873
L344.939 168.455
L345.038 168.455
L345.135 167.956
L345.234 167.956
L345.33 167.419
L345.43 167.419
L345.53 166.91
L345.624 166.91
L345.723 166.406
L345.82 166.406
L345.918 165.869
L346.016 165.869
L346.114 165.308
L346.213 165.308
L346.31 164.74
L346.411 164.74
L346.508 164.209
L346.607 164.209
L346.703 163.674
L346.801 163.674
L346.899 163.141
L347.003 163.141
L347.095 162.609
L347.193 162.609
L347.293 162.139
L347.389 162.139
L347.487 161.663
L347.585 161.663
L347.683 161.177
L347.781 161.177
L347.88 160.684
L347.978 160.684
L348.076 160.231
L348.173 160.231
L348.271 159.782
L348.369 159.782
L348.467 159.364
L348.567 159.364
L348.663 158.981
L348.763 158.981
L348.859 158.64
L348.958 158.64
L349.058 158.311
L349.153 158.311
L349.252 157.985
L349.349 157.985
L349.449 157.632
L349.545 157.632
L349.643 157.31
L349.742 157.31
L349.84 156.962
L349.939 156.962
L350.035 156.586
L350.134 156.586
L350.231 156.216
L350.331 156.216
L350.428 155.849
L350.527 155.849
L350.624 155.519
L350.723 155.519
L350.82 155.171
L350.918 155.171
L351.015 154.864
L351.113 154.864
L351.212 154.508
L351.31 154.508
L351.408 154.148
L351.506 154.148
L351.604 153.793
L351.702 153.793
L351.8 153.503
L351.898 153.503
L351.995 153.238
L352.096 153.238
L352.195 152.948
L352.292 152.948
L352.389 152.709
L352.586 152.6
L352.681 152.398
L352.878 152.29
L352.976 152.059
L353.174 151.957
L353.272 151.722
L353.368 151.722
L353.468 151.483
L353.662 151.372
L353.76 151.122
L353.956 151.02
L354.055 150.812
L354.252 150.703
L354.348 150.496
L354.544 150.392
L354.642 150.127
L354.741 150.127
L354.838 149.865
L354.936 149.865
L355.035 149.607
L355.132 149.607
L355.231 149.301
L355.329 149.301
L355.427 149.037
L355.525 149.037
L355.623 148.756
L355.72 148.756
L355.819 148.471
L356.017 148.363
L356.112 148.137
L356.31 148.031
L356.407 147.88
L356.602 147.784
L356.701 147.578
L356.898 147.481
L356.994 147.315
L357.192 147.234
L357.29 147.079
L357.484 146.994
L357.583 146.803
L357.779 146.709
L357.878 146.503
L358.073 146.396
L358.171 146.209
L358.367 146.119
L358.465 145.95
L358.661 145.848
L358.759 145.618
L358.858 145.618
L358.956 145.335
L359.053 145.335
L359.151 145.032
L359.25 145.032
L359.348 144.673
L359.446 144.673
L359.543 144.319
L359.643 144.319
L359.739 144.01
L359.837 144.01
L359.936 143.761
L360.131 143.66
L360.23 143.454
L360.328 143.454
L360.426 143.19
L360.523 143.19
L360.622 142.911
L360.719 142.911
L360.817 142.655
L361.013 142.56
L361.112 142.358
L361.308 142.257
L361.406 142.051
L361.601 141.96
L361.7 141.767
L361.896 141.685
L361.994 141.546
L362.19 141.452
L362.288 141.286
L362.483 141.234
L362.582 141.084
L362.778 141.012
L362.876 140.874
L363.073 140.808
L363.171 140.672
L363.366 140.621
L363.464 140.464
L363.66 140.38
L363.758 140.224
L364.052 140.139
L364.15 140.052
L364.543 139.945
L364.641 139.842
L364.836 139.772
L364.935 139.604
L365.131 139.516
L365.23 139.33
L365.426 139.258
L365.522 139.128
L365.719 139.058
L365.817 138.88
L366.014 138.791
L366.112 138.596
L366.209 138.596
L366.306 138.363
L366.405 138.363
L366.503 138.13
L366.6 138.13
L366.699 137.88
L366.797 137.88
L366.895 137.618
L366.994 137.618
L367.091 137.378
L367.188 137.378
L367.287 137.153
L367.385 137.153
L367.483 136.926
L367.679 136.829
L367.777 136.658
L367.973 136.586
L368.071 136.435
L368.267 136.363
L368.365 136.231
L368.659 136.127
L368.758 136.072
L369.051 135.984
L369.149 135.874
L369.345 135.805
L369.444 135.695
L369.639 135.604
L369.737 135.415
L369.933 135.336
L370.032 135.148
L370.227 135.06
L370.325 134.875
L370.522 134.767
L370.619 134.592
L370.816 134.518
L370.913 134.385
L371.109 134.3
L371.208 134.168
L371.501 134.071
L371.599 134.021
L373.756 134.13
L373.854 134.237
L374.148 134.342
L374.246 134.493
L374.442 134.571
L374.54 134.723
L374.736 134.784
L374.834 134.954
L375.03 135.047
L375.128 135.232
L375.226 135.232
L375.325 135.446
L375.521 135.553
L375.619 135.781
L375.815 135.886
L375.912 136.054
L376.109 136.138
L376.207 136.295
L376.402 136.382
L376.5 136.585
L376.599 136.585
L376.697 136.824
L376.795 136.824
L376.893 137.061
L376.991 137.061
L377.089 137.353
L377.187 137.353
L377.285 137.656
L377.383 137.656
L377.481 137.971
L377.579 137.971
L377.677 138.256
L377.776 138.256
L377.873 138.597
L377.972 138.597
L378.069 138.95
L378.167 138.95
L378.265 139.271
L378.363 139.271
L378.461 139.58
L378.559 139.58
L378.657 139.88
L378.755 139.88
L378.853 140.2
L378.951 140.2
L379.049 140.515
L379.147 140.515
L379.245 140.833
L379.343 140.833
L379.441 141.134
L379.539 141.134
L379.637 141.399
L379.833 141.492
L379.931 141.641
L380.128 141.728
L380.225 141.884
L380.421 141.972
L380.52 142.165
L380.715 142.246
L380.813 142.363
L381.108 142.468
L381.206 142.561
L381.598 142.639
L381.696 142.702
L382.186 142.791
L382.284 142.833
L383.166 142.73
L383.264 142.66
L385.126 142.573
L385.224 142.515
L385.91 142.415
L386.008 142.363
L386.694 142.263
L386.793 142.236
L387.283 142.136
L387.381 142.093
L387.773 142.01
L387.871 141.957
L388.753 142.056
L388.851 142.093
L390.419 141.996
L390.517 141.959
L391.203 141.855
L391.301 141.795
L391.694 141.711
L391.791 141.617
L392.086 141.53
L392.184 141.38
L392.38 141.297
L392.478 141.117
L392.674 141.007
L392.772 140.728
L392.87 140.728
L392.968 140.478
L393.164 140.374
L393.262 140.188
L393.458 140.097
L393.556 139.972
L393.752 139.902
L393.85 139.704
L394.046 139.611
L394.144 139.444
L394.341 139.362
L394.438 139.227
L394.634 139.166
L394.733 139.067
L395.026 138.975
L395.124 138.882
L395.419 138.792
L395.516 138.717
L395.909 138.607
L396.006 138.54
L396.594 138.437
L396.693 138.346
L396.986 138.252
L397.085 138.108
L397.281 138.024
L397.379 137.871
L397.575 137.805
L397.673 137.684
L397.967 137.59
L398.065 137.513
L398.457 137.42
L398.555 137.381
L399.143 137.3
L399.241 137.214
L399.535 137.105
L399.633 137.03
L400.907 136.921
L401.005 136.811
L401.201 136.75
L401.299 136.645
L401.594 136.54
L401.691 136.414
L401.888 136.35
L401.986 136.271
L402.378 136.161
L402.476 136.09
L402.868 135.987
L402.966 135.868
L403.162 135.779
L403.26 135.637
L403.554 135.532
L403.652 135.448
L403.946 135.376
L404.044 135.254
L404.24 135.145
L404.338 134.922
L404.436 134.922
L404.535 134.672
L404.73 134.561
L404.828 134.345
L404.926 134.345
L405.025 134.113
L405.22 134.003
L405.318 133.782
L405.514 133.69
L405.612 133.489
L405.808 133.393
L405.906 133.153
L406.004 133.153
L406.102 132.889
L406.2 132.889
L406.299 132.622
L406.397 132.622
L406.494 132.373
L406.592 132.373
L406.691 132.14
L406.789 132.14
L406.886 131.93
L407.083 131.824
L407.181 131.608
L407.279 131.608
L407.377 131.366
L407.475 131.366
L407.573 131.148
L407.769 131.042
L407.867 130.833
L408.063 130.723
L408.161 130.51
L408.357 130.41
L408.455 130.23
L408.651 130.147
L408.749 129.987
L408.945 129.896
L409.043 129.663
L409.141 129.663
L409.239 129.397
L409.337 129.397
L409.435 129.13
L409.533 129.13
L409.632 128.873
L409.729 128.873
L409.827 128.567
L409.925 128.567
L410.023 128.253
L410.121 128.253
L410.219 127.933
L410.317 127.933
L410.415 127.651
L410.513 127.651
L410.611 127.443
L410.808 127.347
L410.905 127.178
L411.101 127.109
L411.199 126.988
L411.395 126.915
L411.493 126.725
L411.689 126.64
L411.788 126.487
L411.984 126.41
L412.082 126.28
L412.376 126.178
L412.474 126.11
L412.67 126.055
L412.768 125.899
L412.964 125.816
L413.062 125.626
L413.258 125.523
L413.356 125.262
L413.454 125.262
L413.552 124.975
L413.65 124.975
L413.748 124.678
L413.846 124.678
L413.944 124.417
L414.042 124.417
L414.14 124.152
L414.238 124.152
L414.336 123.847
L414.434 123.847
L414.532 123.549
L414.63 123.549
L414.728 123.231
L414.826 123.231
L414.924 122.877
L415.022 122.877
L415.12 122.505
L415.219 122.505
L415.316 122.093
L415.414 122.093
L415.512 121.729
L415.61 121.729
L415.708 121.38
L415.806 121.38
L415.904 121.018
L416.002 121.018
L416.101 120.692
L416.198 120.692
L416.296 120.374
L416.395 120.374
L416.492 120.017
L416.591 120.017
L416.689 119.617
L416.787 119.617
L416.885 119.185
L416.983 119.185
L417.081 118.784
L417.179 118.784
L417.277 118.373
L417.375 118.373
L417.473 117.961
L417.571 117.961
L417.669 117.554
L417.767 117.554
L417.865 117.13
L417.963 117.13
L418.061 116.697
L418.159 116.697
L418.257 116.175
L418.355 116.175
L418.453 115.675
L418.551 115.675
L418.649 115.171
L418.747 115.171
L418.845 114.64
L418.943 114.64
L419.041 114.171
L419.139 114.171
L419.237 113.689
L419.335 113.689
L419.433 113.153
L419.531 113.153
L419.629 112.602
L419.727 112.602
L419.825 112.031
L419.923 112.031
L420.021 111.476
L420.119 111.476
L420.217 110.995
L420.315 110.995
L420.413 110.528
L420.511 110.528
L420.609 110.046
L420.707 110.046
L420.805 109.569
L420.903 109.569
L421.002 109.1
L421.099 109.1
L421.197 108.577
L421.295 108.577
L421.393 108.05
L421.491 108.05
L421.59 107.512
L421.688 107.512
L421.786 106.965
L421.884 106.965
L421.982 106.428
L422.08 106.428
L422.178 105.888
L422.276 105.888
L422.374 105.374
L422.472 105.374
L422.57 104.824
L422.668 104.824
L422.766 104.269
L422.864 104.269
L422.962 103.682
L423.06 103.682
L423.158 103.127
L423.256 103.127
L423.354 102.609
L423.452 102.609
L423.55 102.083
L423.648 102.083
L423.746 101.562
L423.844 101.562
L423.942 101.077
L424.04 101.077
L424.138 100.572
L424.236 100.572
L424.334 100.008
L424.432 100.008
L424.53 99.4617
L424.628 99.4617
L424.726 98.9252
L424.824 98.9252
L424.922 98.4142
L425.02 98.4142
L425.118 97.8857
L425.216 97.8857
L425.314 97.3868
L425.412 97.3868
L425.51 96.8924
L425.608 96.8924
L425.706 96.448
L425.804 96.448
L425.902 96.0631
L426 96.0631
L426.098 95.652
L426.196 95.652
L426.295 95.2374
L426.393 95.2374
L426.49 94.8481
L426.588 94.8481
L426.687 94.4571
L426.785 94.4571
L426.883 94.0453
L426.981 94.0453
L427.079 93.6194
L427.177 93.6194
L427.275 93.2076
L427.373 93.2076
L427.471 92.8139
L427.569 92.8139
L427.667 92.3538
L427.765 92.3538
L427.863 91.8802
L427.961 91.8802
L428.059 91.4683
L428.157 91.4683
L428.255 91.1308
L428.353 91.1308
L428.451 90.7843
L428.549 90.7843
L428.647 90.4287
L428.745 90.4287
L428.843 90.045
L428.941 90.045
L429.039 89.697
L429.137 89.697
L429.235 89.3701
L429.333 89.3701
L429.431 89.0252
L429.529 89.0252
L429.627 88.6663
L429.725 88.6663
L429.823 88.2679
L429.921 88.2679
L430.019 87.8804
L430.117 87.8804
L430.215 87.4524
L430.313 87.4524
L430.411 87.094
L430.509 87.094
L430.607 86.7377
L430.705 86.7377
L430.803 86.3768
L430.901 86.3768
L430.999 86.0014
L431.097 86.0014
L431.195 85.6486
L431.293 85.6486
L431.391 85.2972
L431.49 85.2972
L431.588 84.9233
L431.686 84.9233
L431.784 84.5667
L431.882 84.5667
L431.98 84.2542
L432.078 84.2542
L432.176 84.0104
L432.372 83.9144
L432.47 83.6958
L432.666 83.5849
L432.764 83.3448
L432.862 83.3448
L432.96 83.0917
L433.058 83.0917
L433.156 82.7814
L433.254 82.7814
L433.352 82.4678
L433.45 82.4678
L433.548 82.1427
L433.646 82.1427
L433.744 81.8126
L433.842 81.8126
L433.94 81.5207
L434.038 81.5207
L434.136 81.2243
L434.234 81.2243
L434.332 80.8933
L434.43 80.8933
L434.528 80.579
L434.626 80.579
L434.724 80.2696
L434.822 80.2696
L434.92 79.9828
L435.018 79.9828
L435.116 79.7105
L435.214 79.7105
L435.312 79.4146
L435.41 79.4146
L435.508 79.1537
L435.606 79.1537
L435.704 78.9305
L435.802 78.9305
L435.9 78.7218
L436.096 78.6372
L436.194 78.5025
L436.391 78.3963
L436.489 78.1873
L436.587 78.1873
L436.685 77.9511
L436.783 77.9511
L436.881 77.698
L436.979 77.698
L437.077 77.4526
L437.175 77.4526
L437.273 77.2013
L437.371 77.2013
L437.469 76.9425
L437.567 76.9425
L437.665 76.6773
L437.763 76.6773
L437.861 76.4214
L437.959 76.4214
L438.057 76.1555
L438.155 76.1555
L438.253 75.8666
L438.351 75.8666
L438.449 75.5827
L438.547 75.5827
L438.645 75.3427
L438.841 75.2481
L438.939 75.0566
L439.135 74.9675
L439.233 74.8074
L439.429 74.7295
L439.527 74.5721
L439.723 74.4997
L439.821 74.3565
L440.017 74.2471
L440.115 73.9951
L440.213 73.9951
L440.311 73.7254
L440.409 73.7254
L440.507 73.4658
L440.605 73.4658
L440.703 73.2082
L440.801 73.2082
L440.899 72.9281
L440.997 72.9281
L441.095 72.6399
L441.193 72.6399
L441.291 72.3768
L441.39 72.3768
L441.488 72.0881
L441.586 72.0881
L441.684 71.7307
L441.782 71.7307
L441.88 71.3899
L441.978 71.3899
L442.076 71.0179
L442.174 71.0179
L442.272 70.6155
L442.37 70.6155
L442.468 70.2133
L442.566 70.2133
L442.664 69.815
L442.762 69.815
L442.86 69.4401
L442.958 69.4401
L443.056 69.1005
L443.154 69.1005
L443.252 68.7994
L443.35 68.7994
L443.448 68.5536
L443.546 68.5536
L443.644 68.2966
L443.742 68.2966
L443.84 68.0465
L443.938 68.0465
L444.036 67.8006
L444.134 67.8006
L444.232 67.5744
L444.33 67.5744
L444.428 67.3511
L444.526 67.3511
L444.624 67.1116
L444.722 67.1116
L444.82 66.8356
L444.918 66.8356
L445.016 66.5415
L445.114 66.5415
L445.212 66.2396
L445.31 66.2396
L445.408 65.957
L445.506 65.957
L445.604 65.6361
L445.702 65.6361
L445.8 65.3049
L445.898 65.3049
L445.996 64.9753
L446.094 64.9753
L446.192 64.6442
L446.29 64.6442
L446.389 64.3393
L446.487 64.3393
L446.585 64.0867
L446.683 64.0867
L446.781 63.8331
L446.977 63.722
L447.075 63.5207
L447.271 63.4325
L447.369 63.2738
L447.565 63.1986
L447.663 63.0441
L447.859 62.969
L447.957 62.786
L448.055 62.786
L448.153 62.5539
L448.349 62.4495
L448.447 62.2527
L448.545 62.2527
L448.643 62.0212
L448.741 62.0212
L448.839 61.753
L448.937 61.753
L449.035 61.4525
L449.133 61.4525
L449.231 61.1693
L449.329 61.1693
L449.427 60.8579
L449.525 60.8579
L449.623 60.5354
L449.721 60.5354
L449.819 60.188
L449.917 60.188
L450.015 59.8639
L450.113 59.8639
L450.211 59.5461
L450.309 59.5461
L450.407 59.2336
L450.505 59.2336
L450.603 58.9089
L450.701 58.9089
L450.799 58.5845
L450.897 58.5845
L450.995 58.3094
L451.094 58.3094
L451.192 58.0332
L451.29 58.0332
L451.388 57.7747
L451.486 57.7747
L451.584 57.519
L451.682 57.519
L451.78 57.2653
L451.878 57.2653
L451.976 57.0375
L452.074 57.0375
L452.172 56.7656
L452.27 56.7656
L452.368 56.4878
L452.466 56.4878
L452.564 56.2106
L452.662 56.2106
L452.76 55.9542
L452.858 55.9542
L452.956 55.7348
L453.152 55.6375
L453.25 55.4268
L453.348 55.4268
L453.446 55.1962
L453.544 55.1962
L453.642 54.9557
L453.74 54.9557
L453.838 54.7062
L453.936 54.7062
L454.034 54.4441
L454.132 54.4441
L454.23 54.1731
L454.328 54.1731
L454.426 53.8829
L454.524 53.8829
L454.622 53.5872
L454.72 53.5872
L454.818 53.3179
L454.916 53.3179
L455.014 52.9983
L455.112 52.9983
L455.21 52.6692
L455.308 52.6692
L455.406 52.3462
L455.504 52.3462
L455.602 52.051
L455.7 52.051
L455.798 51.8052
L455.896 51.8052
L455.994 51.5856
L456.191 51.4807
L456.289 51.2843
L456.485 51.2102
L456.583 51.1023
L457.171 50.9991
L457.269 50.9251
L457.661 50.8294
L457.759 50.773
L458.053 50.6838
L458.151 50.6276
L458.543 50.5291
L458.641 50.4998
L459.229 50.411
L459.327 50.3642
L460.111 50.266
L460.209 50.2242
L460.601 50.1405
L460.699 50.0635
L460.993 49.9846
L461.092 49.8701
L461.386 49.768
L461.484 49.6583
L461.68 49.5913
L461.778 49.4613
L461.974 49.3926
L462.072 49.2855
L462.366 49.1809
L462.464 49.0525
L462.66 48.9906
L462.758 48.8372
L462.954 48.7428
L463.052 48.5606
L463.248 48.4751
L463.346 48.2834
L463.542 48.1913
L463.64 47.9927
L463.836 47.8876
L463.934 47.6904
L464.13 47.59
L464.228 47.415
L464.424 47.3092
L464.522 47.1093
L464.718 47.0169
L464.816 46.8291
L465.012 46.7326
L465.11 46.5579
L465.306 46.4578
L465.404 46.2643
L465.6 46.1673
L465.698 45.9994
L465.894 45.9203
L465.992 45.7632
L466.189 45.6932
L466.287 45.5822
L466.581 45.4846
L466.679 45.4107
L466.973 45.3217
L467.071 45.2445
L467.365 45.1776
L467.463 45.057
L467.757 44.9615
L467.855 44.8552
L468.051 44.7948
L468.149 44.6614
L468.345 44.583
L468.443 44.4223
L468.639 44.3539
L468.737 44.2324
L469.031 44.1374
L469.129 44.0099
L469.325 43.9427
L469.423 43.8049
L469.717 43.7026
L469.815 43.6409
L470.403 43.5394
L470.501 43.4667
L470.893 43.3673
L470.992 43.2821
L471.286 43.1862
L471.384 43.1061
L471.678 43.033
L471.776 42.9207
L471.972 42.8604
L472.07 42.7034
L472.266 42.6226
L472.364 42.5045
L472.56 42.4417
L472.658 42.3405
L473.246 42.2304
L473.344 42.146
L473.54 42.0846
L473.638 41.939
L473.834 41.8561
L473.932 41.6704
L474.128 41.5819
L474.226 41.4096
L474.422 41.333
L474.52 41.1908
L474.716 41.1169
L474.814 41.0293
L475.108 40.9481
L475.206 40.8466
L475.5 40.7642
L475.598 40.6764
L475.892 40.5692
L475.991 40.4419
L476.187 40.3821
L476.285 40.2565
L476.481 40.1858
L476.579 40.0358
L476.775 39.963
L476.873 39.8021
L477.069 39.7208
L477.167 39.5743
L477.461 39.4759
L477.559 39.3603
L477.755 39.2795
L477.853 39.11
L478.049 39.017
L478.147 38.8319
L478.343 38.7514
L478.441 38.6151
L478.637 38.5263
L478.735 38.3128
L478.931 38.2078
L479.029 37.9953
L479.225 37.8899
L479.323 37.6777
L479.519 37.5732
L479.617 37.3717
L479.813 37.2778
L479.911 37.0697
L480.107 36.9616
L480.205 36.737
L480.303 36.737
L480.401 36.5019
L480.499 36.5019
L480.597 36.2747
L480.695 36.2747
L480.793 36.0484
L480.99 35.9461
L481.088 35.7773
L481.284 35.7014
L481.382 35.5742
L481.578 35.5131
L481.676 35.3894
L481.97 35.3001
L482.068 35.2353
L482.558 35.1399
L482.656 35.1227
L484.028 35.2323
L484.126 35.2518
L485.596 35.1458
L485.694 35.1073
L486.577 35.2103
L486.675 35.2761
L488.733 35.368
L488.831 35.4508
L491.282 35.5588
L491.38 35.5697
L491.968 35.6667
L492.066 35.7122
L493.438 35.8202
L493.536 35.8353
L495.791 35.7349
L495.889 35.6573
L496.183 35.5627
L496.281 35.4717
L496.575 35.3658
L496.673 35.2459
L496.869 35.1729
L496.967 35.0394
L497.163 34.9618
L497.261 34.8287
L497.457 34.7563
L497.555 34.5884
L497.751 34.4935
L497.849 34.3046
L498.045 34.2202
L498.143 34.0378
L498.339 33.9596
L498.437 33.7954
L498.633 33.7055
L498.731 33.5238
L498.927 33.4417
L499.025 33.2946
L499.221 33.2244
L499.319 33.0808
L499.515 33.0003
L499.613 32.8234
L499.809 32.7411
L499.907 32.5652
L500.103 32.4673
L500.201 32.3014
L500.397 32.234
L500.495 32.0726
L500.692 31.9682
L500.79 31.7341
L500.888 31.7341
L500.986 31.4649
L501.084 31.4649
L501.182 31.2028
L501.28 31.2028
L501.378 30.9468
L501.476 30.9468
L501.574 30.6929
L501.672 30.6929
L501.77 30.4109
L501.868 30.4109
L501.966 30.0944
L502.064 30.0944
L502.162 29.8139
L502.26 29.8139
L502.358 29.6021
L502.456 29.6021
L502.554 29.3432
L502.652 29.3432
L502.75 29.0676
L502.848 29.0676
L502.946 28.8004
L503.044 28.8004
L503.142 28.5314
L503.24 28.5314
L503.338 28.2793
L503.436 28.2793
L503.534 28.0422
L503.73 27.942
L503.828 27.7091
L503.926 27.7091
L504.024 27.4848
L504.122 27.4848
L504.22 27.2728
L504.416 27.1894
L504.514 27.016
L504.71 26.9215
L504.808 26.7617
L505.004 26.6893
L505.102 26.5625
L505.298 26.4916
L505.396 26.3394
L505.593 26.2624
L505.691 26.0779
L505.887 25.9978
L505.985 25.8601
L506.181 25.7959
L506.279 25.6729
L506.573 25.5665
L506.671 25.4653
L506.965 25.3585
L507.063 25.2906
L507.553 25.1977
L507.651 25.1492
L508.141 25.0593
L508.239 24.9714
L508.533 24.8613
L508.631 24.7232
L508.827 24.6319
L508.925 24.4545
L509.121 24.3779
L509.219 24.2339
L509.415 24.1556
L509.513 24.0126
L509.709 23.9398
L509.807 23.7713
L510.003 23.7054
L510.101 23.592
L510.297 23.5225
L510.396 23.3873
L510.592 23.3303
L510.69 23.237
L511.278 23.1463
L511.376 23.0804
L511.866 22.9719
L511.964 22.9206
L512.356 22.8471
L512.454 22.7785
L513.14 22.676
L513.14 22.666
L513.238 22.6695
L513.826 22.5765
L513.924 22.5114
L514.218 22.4298
L514.316 22.3162
L514.512 22.2619
L514.61 22.1548
L515.002 22.0498
L515.1 22.0157
L516.865 22.103
L516.963 22.1521
L517.355 22.2388
L517.453 22.3153
L517.845 22.4194
L517.943 22.459
L519.903 22.38
L520.001 22.3236
L521.08 22.2133
L521.178 22.1646
L521.57 22.0709
L521.668 22.0024
L522.256 21.8975
L522.354 21.8418
L522.746 21.7526
L522.844 21.6976
L523.432 21.5963
L523.53 21.569
L525.883 21.4732
L525.981 21.4092
L526.373 21.3066
L526.471 21.223
L527.353 21.1191
L527.451 21.0967
L527.843 21.0075
L527.941 20.9158
L528.137 20.8584
L528.235 20.7518
L528.529 20.6476
L528.627 20.5471
L528.921 20.4451
L529.019 20.376
L529.313 20.2827
L529.411 20.1821
L529.901 20.0886
L529.999 20.0271
L530.784 19.9224
L530.882 19.8607
L531.274 19.7588
L531.372 19.6798
L531.764 19.5874
L531.862 19.5465
L532.352 19.4468
L532.45 19.4034
L532.842 19.3279
L532.94 19.2333
L533.136 19.1739
L533.234 19.0286
L533.43 18.9387
L533.528 18.7729
L533.724 18.6904
L533.822 18.5581
L534.018 18.499
L534.116 18.3858
L534.312 18.3305
L534.41 18.1911
L534.606 18.1236
L534.704 17.9886
L534.9 17.9288
L534.998 17.8017
L535.195 17.7201
L535.293 17.5612
L535.489 17.4892
L535.587 17.3704
L535.783 17.3104
L535.881 17.1607
L536.077 17.097
L536.175 16.9734
L536.371 16.8943
L536.469 16.7436
L536.665 16.6824
L536.763 16.5596
L536.959 16.492
L537.057 16.3701
L537.253 16.3131
L537.351 16.2153
L537.743 16.1203
L537.841 16.0795
L539.213 15.9692
L539.311 15.924
L539.801 15.8299
L539.899 15.7783
L540.39 15.6834
L540.488 15.6339
L540.782 15.5617
L540.88 15.4845
L541.174 15.3868
L541.272 15.2691
L541.664 15.1625
L541.762 15.147
L542.252 15.0362
L542.35 14.9874
L544.114 15.0873
L544.212 15.165
L544.702 15.266
L544.8 15.295
L545.389 15.3877
L545.487 15.4505
L545.879 15.5327
L545.977 15.6141
L546.173 15.6683
L546.271 15.7857
L546.565 15.8718
L546.663 15.954
L546.957 16.0304
L547.055 16.1448
L547.349 16.2402
L547.447 16.3279
L547.741 16.3997
L547.839 16.4893
L547.937 16.4893
L547.937 16.5444" style="fill:none;stroke:#0000ff;stroke-width:5.0;"/>
   </g>
   <g id="matplotlib.axis_1">
    <g id="xtick_1">
     <g id="line2d_2">
      <path d="
M176.086 410.274
L176.086 7.2" style="fill:none;stroke:#000000;stroke-dasharray:1.000000,3.000000;stroke-dashoffset:0.0;stroke-linecap:butt;stroke-width:0.5;"/>
     </g>
     <g id="line2d_3">
      <defs>
       <path d="
M0 0
L0 -4" id="m3fbe6c24f1"/>
      </defs>
      <g>
       <use style="stroke:#000000;stroke-linecap:butt;stroke-width:0.5;" x="176.086255288" xlink:href="#m3fbe6c24f1" y="182.564394198"/>
      </g>
     </g>
     <g id="text_1">
      <!-- 5 -->
      <defs>
       <path d="
M10.7969 72.9062
L49.5156 72.9062
L49.5156 64.5938
L19.8281 64.5938
L19.8281 46.7344
Q21.9688 47.4688 24.1094 47.8281
Q26.2656 48.1875 28.4219 48.1875
Q40.625 48.1875 47.75 41.5
Q54.8906 34.8125 54.8906 23.3906
Q54.8906 11.625 47.5625 5.09375
Q40.2344 -1.42188 26.9062 -1.42188
Q22.3125 -1.42188 17.5469 -0.640625
Q12.7969 0.140625 7.71875 1.70312
L7.71875 11.625
Q12.1094 9.23438 16.7969 8.0625
Q21.4844 6.89062 26.7031 6.89062
Q35.1562 6.89062 40.0781 11.3281
Q45.0156 15.7656 45.0156 23.3906
Q45.0156 31 40.0781 35.4375
Q35.1562 39.8906 26.7031 39.8906
Q22.75 39.8906 18.8125 39.0156
Q14.8906 38.1406 10.7969 36.2812
z
" id="BitstreamVeraSans-Roman-35"/>
      </defs>
      <g transform="translate(170.425630288 204.061894198)scale(0.24 -0.24)">
       <use xlink:href="#BitstreamVeraSans-Roman-35"/>
      </g>
     </g>
    </g>
    <g id="xtick_2">
     <g id="line2d_4">
      <path d="
M294.335 410.274
L294.335 7.2" style="fill:none;stroke:#000000;stroke-dasharray:1.000000,3.000000;stroke-dashoffset:0.0;stroke-linecap:butt;stroke-width:0.5;"/>
     </g>
     <g id="line2d_5">
      <defs>
       <path d="
M0 0
L0 -4" id="m3fbe6c24f1"/>
      </defs>
      <g>
       <use style="stroke:#000000;stroke-linecap:butt;stroke-width:0.5;" x="294.334863892" xlink:href="#m3fbe6c24f1" y="182.564394198"/>
      </g>
     </g>
     <g id="text_2">
      <!-- 10 -->
      <defs>
       <path d="
M31.7812 66.4062
Q24.1719 66.4062 20.3281 58.9062
Q16.5 51.4219 16.5 36.375
Q16.5 21.3906 20.3281 13.8906
Q24.1719 6.39062 31.7812 6.39062
Q39.4531 6.39062 43.2812 13.8906
Q47.125 21.3906 47.125 36.375
Q47.125 51.4219 43.2812 58.9062
Q39.4531 66.4062 31.7812 66.4062
M31.7812 74.2188
Q44.0469 74.2188 50.5156 64.5156
Q56.9844 54.8281 56.9844 36.375
Q56.9844 17.9688 50.5156 8.26562
Q44.0469 -1.42188 31.7812 -1.42188
Q19.5312 -1.42188 13.0625 8.26562
Q6.59375 17.9688 6.59375 36.375
Q6.59375 54.8281 13.0625 64.5156
Q19.5312 74.2188 31.7812 74.2188" id="BitstreamVeraSans-Roman-30"/>
       <path d="
M12.4062 8.29688
L28.5156 8.29688
L28.5156 63.9219
L10.9844 60.4062
L10.9844 69.3906
L28.4219 72.9062
L38.2812 72.9062
L38.2812 8.29688
L54.3906 8.29688
L54.3906 0
L12.4062 0
z
" id="BitstreamVeraSans-Roman-31"/>
      </defs>
      <g transform="translate(281.179863892 204.376894198)scale(0.24 -0.24)">
       <use xlink:href="#BitstreamVeraSans-Roman-31"/>
       <use x="63.623046875" xlink:href="#BitstreamVeraSans-Roman-30"/>
      </g>
     </g>
    </g>
    <g id="xtick_3">
     <g id="line2d_6">
      <path d="
M412.583 410.274
L412.583 7.2" style="fill:none;stroke:#000000;stroke-dasharray:1.000000,3.000000;stroke-dashoffset:0.0;stroke-linecap:butt;stroke-width:0.5;"/>
     </g>
     <g id="line2d_7">
      <defs>
       <path d="
M0 0
L0 -4" id="m3fbe6c24f1"/>
      </defs>
      <g>
       <use style="stroke:#000000;stroke-linecap:butt;stroke-width:0.5;" x="412.583472496" xlink:href="#m3fbe6c24f1" y="182.564394198"/>
      </g>
     </g>
     <g id="text_3">
      <!-- 15 -->
      <g transform="translate(399.679722496 204.061894198)scale(0.24 -0.24)">
       <use xlink:href="#BitstreamVeraSans-Roman-31"/>
       <use x="63.623046875" xlink:href="#BitstreamVeraSans-Roman-35"/>
      </g>
     </g>
    </g>
    <g id="xtick_4">
     <g id="line2d_8">
      <path d="
M530.832 410.274
L530.832 7.2" style="fill:none;stroke:#000000;stroke-dasharray:1.000000,3.000000;stroke-dashoffset:0.0;stroke-linecap:butt;stroke-width:0.5;"/>
     </g>
     <g id="line2d_9">
      <defs>
       <path d="
M0 0
L0 -4" id="m3fbe6c24f1"/>
      </defs>
      <g>
       <use style="stroke:#000000;stroke-linecap:butt;stroke-width:0.5;" x="530.832081101" xlink:href="#m3fbe6c24f1" y="182.564394198"/>
      </g>
     </g>
     <g id="text_4">
      <!-- 20 -->
      <defs>
       <path d="
M19.1875 8.29688
L53.6094 8.29688
L53.6094 0
L7.32812 0
L7.32812 8.29688
Q12.9375 14.1094 22.625 23.8906
Q32.3281 33.6875 34.8125 36.5312
Q39.5469 41.8438 41.4219 45.5312
Q43.3125 49.2188 43.3125 52.7812
Q43.3125 58.5938 39.2344 62.25
Q35.1562 65.9219 28.6094 65.9219
Q23.9688 65.9219 18.8125 64.3125
Q13.6719 62.7031 7.8125 59.4219
L7.8125 69.3906
Q13.7656 71.7812 18.9375 73
Q24.125 74.2188 28.4219 74.2188
Q39.75 74.2188 46.4844 68.5469
Q53.2188 62.8906 53.2188 53.4219
Q53.2188 48.9219 51.5312 44.8906
Q49.8594 40.875 45.4062 35.4062
Q44.1875 33.9844 37.6406 27.2188
Q31.1094 20.4531 19.1875 8.29688" id="BitstreamVeraSans-Roman-32"/>
      </defs>
      <g transform="translate(517.238331101 204.376894198)scale(0.24 -0.24)">
       <use xlink:href="#BitstreamVeraSans-Roman-32"/>
       <use x="63.623046875" xlink:href="#BitstreamVeraSans-Roman-30"/>
      </g>
     </g>
    </g>
    <g id="xtick_5">
     <g id="line2d_10">
      <defs>
       <path d="
M0 0
L0 -2" id="mf0ff38ea95"/>
      </defs>
      <g>
       <use style="stroke:#000000;stroke-linecap:butt;stroke-width:0.5;" x="81.4873684044" xlink:href="#mf0ff38ea95" y="182.564394198"/>
      </g>
     </g>
    </g>
    <g id="xtick_6">
     <g id="line2d_11">
      <defs>
       <path d="
M0 0
L0 -2" id="mf0ff38ea95"/>
      </defs>
      <g>
       <use style="stroke:#000000;stroke-linecap:butt;stroke-width:0.5;" x="105.137090125" xlink:href="#mf0ff38ea95" y="182.564394198"/>
      </g>
     </g>
    </g>
    <g id="xtick_7">
     <g id="line2d_12">
      <defs>
       <path d="
M0 0
L0 -2" id="mf0ff38ea95"/>
      </defs>
      <g>
       <use style="stroke:#000000;stroke-linecap:butt;stroke-width:0.5;" x="128.786811846" xlink:href="#mf0ff38ea95" y="182.564394198"/>
      </g>
     </g>
    </g>
    <g id="xtick_8">
     <g id="line2d_13">
      <defs>
       <path d="
M0 0
L0 -2" id="mf0ff38ea95"/>
      </defs>
      <g>
       <use style="stroke:#000000;stroke-linecap:butt;stroke-width:0.5;" x="152.436533567" xlink:href="#mf0ff38ea95" y="182.564394198"/>
      </g>
     </g>
    </g>
    <g id="xtick_9">
     <g id="line2d_14">
      <defs>
       <path d="
M0 0
L0 -2" id="mf0ff38ea95"/>
      </defs>
      <g>
       <use style="stroke:#000000;stroke-linecap:butt;stroke-width:0.5;" x="199.735977009" xlink:href="#mf0ff38ea95" y="182.564394198"/>
      </g>
     </g>
    </g>
    <g id="xtick_10">
     <g id="line2d_15">
      <defs>
       <path d="
M0 0
L0 -2" id="mf0ff38ea95"/>
      </defs>
      <g>
       <use style="stroke:#000000;stroke-linecap:butt;stroke-width:0.5;" x="223.38569873" xlink:href="#mf0ff38ea95" y="182.564394198"/>
      </g>
     </g>
    </g>
    <g id="xtick_11">
     <g id="line2d_16">
      <defs>
       <path d="
M0 0
L0 -2" id="mf0ff38ea95"/>
      </defs>
      <g>
       <use style="stroke:#000000;stroke-linecap:butt;stroke-width:0.5;" x="247.03542045" xlink:href="#mf0ff38ea95" y="182.564394198"/>
      </g>
     </g>
    </g>
    <g id="xtick_12">
     <g id="line2d_17">
      <defs>
       <path d="
M0 0
L0 -2" id="mf0ff38ea95"/>
      </defs>
      <g>
       <use style="stroke:#000000;stroke-linecap:butt;stroke-width:0.5;" x="270.685142171" xlink:href="#mf0ff38ea95" y="182.564394198"/>
      </g>
     </g>
    </g>
    <g id="xtick_13">
     <g id="line2d_18">
      <defs>
       <path d="
M0 0
L0 -2" id="mf0ff38ea95"/>
      </defs>
      <g>
       <use style="stroke:#000000;stroke-linecap:butt;stroke-width:0.5;" x="317.984585613" xlink:href="#mf0ff38ea95" y="182.564394198"/>
      </g>
     </g>
    </g>
    <g id="xtick_14">
     <g id="line2d_19">
      <defs>
       <path d="
M0 0
L0 -2" id="mf0ff38ea95"/>
      </defs>
      <g>
       <use style="stroke:#000000;stroke-linecap:butt;stroke-width:0.5;" x="341.634307334" xlink:href="#mf0ff38ea95" y="182.564394198"/>
      </g>
     </g>
    </g>
    <g id="xtick_15">
     <g id="line2d_20">
      <defs>
       <path d="
M0 0
L0 -2" id="mf0ff38ea95"/>
      </defs>
      <g>
       <use style="stroke:#000000;stroke-linecap:butt;stroke-width:0.5;" x="365.284029055" xlink:href="#mf0ff38ea95" y="182.564394198"/>
      </g>
     </g>
    </g>
    <g id="xtick_16">
     <g id="line2d_21">
      <defs>
       <path d="
M0 0
L0 -2" id="mf0ff38ea95"/>
      </defs>
      <g>
       <use style="stroke:#000000;stroke-linecap:butt;stroke-width:0.5;" x="388.933750775" xlink:href="#mf0ff38ea95" y="182.564394198"/>
      </g>
     </g>
    </g>
    <g id="xtick_17">
     <g id="line2d_22">
      <defs>
       <path d="
M0 0
L0 -2" id="mf0ff38ea95"/>
      </defs>
      <g>
       <use style="stroke:#000000;stroke-linecap:butt;stroke-width:0.5;" x="436.233194217" xlink:href="#mf0ff38ea95" y="182.564394198"/>
      </g>
     </g>
    </g>
    <g id="xtick_18">
     <g id="line2d_23">
      <defs>
       <path d="
M0 0
L0 -2" id="mf0ff38ea95"/>
      </defs>
      <g>
       <use style="stroke:#000000;stroke-linecap:butt;stroke-width:0.5;" x="459.882915938" xlink:href="#mf0ff38ea95" y="182.564394198"/>
      </g>
     </g>
    </g>
    <g id="xtick_19">
     <g id="line2d_24">
      <defs>
       <path d="
M0 0
L0 -2" id="mf0ff38ea95"/>
      </defs>
      <g>
       <use style="stroke:#000000;stroke-linecap:butt;stroke-width:0.5;" x="483.532637659" xlink:href="#mf0ff38ea95" y="182.564394198"/>
      </g>
     </g>
    </g>
    <g id="xtick_20">
     <g id="line2d_25">
      <defs>
       <path d="
M0 0
L0 -2" id="mf0ff38ea95"/>
      </defs>
      <g>
       <use style="stroke:#000000;stroke-linecap:butt;stroke-width:0.5;" x="507.18235938" xlink:href="#mf0ff38ea95" y="182.564394198"/>
      </g>
     </g>
    </g>
   </g>
   <g id="matplotlib.axis_2">
    <g id="ytick_1">
     <g id="line2d_26">
      <path d="
M64.7562 403.283
L557.411 403.283" style="fill:none;stroke:#000000;stroke-dasharray:1.000000,3.000000;stroke-dashoffset:0.0;stroke-linecap:butt;stroke-width:0.5;"/>
     </g>
     <g id="line2d_27">
      <defs>
       <path d="
M0 0
L4 0" id="mc91e532072"/>
      </defs>
      <g>
       <use style="stroke:#000000;stroke-linecap:butt;stroke-width:0.5;" x="54.75625" xlink:href="#mc91e532072" y="403.283206111"/>
      </g>
     </g>
     <g id="text_5">
      <!-- -1 -->
      <defs>
       <path d="
M4.89062 31.3906
L31.2031 31.3906
L31.2031 23.3906
L4.89062 23.3906
z
" id="BitstreamVeraSans-Roman-2d"/>
      </defs>
      <g transform="translate(30.2175 412.031956111)scale(0.24 -0.24)">
       <use xlink:href="#BitstreamVeraSans-Roman-2d"/>
       <use x="36.083984375" xlink:href="#BitstreamVeraSans-Roman-31"/>
      </g>
     </g>
    </g>
    <g id="ytick_2">
     <g id="line2d_28">
      <path d="
M64.7562 292.924
L557.411 292.924" style="fill:none;stroke:#000000;stroke-dasharray:1.000000,3.000000;stroke-dashoffset:0.0;stroke-linecap:butt;stroke-width:0.5;"/>
     </g>
     <g id="line2d_29">
      <defs>
       <path d="
M0 0
L4 0" id="mc91e532072"/>
      </defs>
      <g>
       <use style="stroke:#000000;stroke-linecap:butt;stroke-width:0.5;" x="54.75625" xlink:href="#mc91e532072" y="292.923800155"/>
      </g>
     </g>
     <g id="text_6">
      <!-- -0.5 -->
      <defs>
       <path d="
M10.6875 12.4062
L21 12.4062
L21 0
L10.6875 0
z
" id="BitstreamVeraSans-Roman-2e"/>
      </defs>
      <g transform="translate(7.2 301.659425155)scale(0.24 -0.24)">
       <use xlink:href="#BitstreamVeraSans-Roman-2d"/>
       <use x="36.083984375" xlink:href="#BitstreamVeraSans-Roman-30"/>
       <use x="99.70703125" xlink:href="#BitstreamVeraSans-Roman-2e"/>
       <use x="131.494140625" xlink:href="#BitstreamVeraSans-Roman-35"/>
      </g>
     </g>
    </g>
    <g id="ytick_3">
     <g id="line2d_30">
      <path d="
M64.7562 182.564
L557.411 182.564" style="fill:none;stroke:#000000;stroke-dasharray:1.000000,3.000000;stroke-dashoffset:0.0;stroke-linecap:butt;stroke-width:0.5;"/>
     </g>
     <g id="line2d_31">
      <defs>
       <path d="
M0 0
L4 0" id="mc91e532072"/>
      </defs>
      <g>
       <use style="stroke:#000000;stroke-linecap:butt;stroke-width:0.5;" x="54.75625" xlink:href="#mc91e532072" y="182.564394198"/>
      </g>
     </g>
     <g id="text_7">
      <!-- 0 -->
      <g transform="translate(38.6625 191.300019198)scale(0.24 -0.24)">
       <use xlink:href="#BitstreamVeraSans-Roman-30"/>
      </g>
     </g>
    </g>
    <g id="ytick_4">
     <g id="line2d_32">
      <path d="
M64.7562 72.205
L557.411 72.205" style="fill:none;stroke:#000000;stroke-dasharray:1.000000,3.000000;stroke-dashoffset:0.0;stroke-linecap:butt;stroke-width:0.5;"/>
     </g>
     <g id="line2d_33">
      <defs>
       <path d="
M0 0
L4 0" id="mc91e532072"/>
      </defs>
      <g>
       <use style="stroke:#000000;stroke-linecap:butt;stroke-width:0.5;" x="54.75625" xlink:href="#mc91e532072" y="72.2049882414"/>
      </g>
     </g>
     <g id="text_8">
      <!-- 0.5 -->
      <g transform="translate(16.2675 80.9406132414)scale(0.24 -0.24)">
       <use xlink:href="#BitstreamVeraSans-Roman-30"/>
       <use x="63.623046875" xlink:href="#BitstreamVeraSans-Roman-2e"/>
       <use x="95.41015625" xlink:href="#BitstreamVeraSans-Roman-35"/>
      </g>
     </g>
    </g>
    <g id="ytick_5">
     <g id="line2d_34">
      <defs>
       <path d="
M0 0
L2 0" id="m0789224b6b"/>
      </defs>
      <g>
       <use style="stroke:#000000;stroke-linecap:butt;stroke-width:0.5;" x="54.75625" xlink:href="#m0789224b6b" y="381.21132492"/>
      </g>
     </g>
    </g>
    <g id="ytick_6">
     <g id="line2d_35">
      <defs>
       <path d="
M0 0
L2 0" id="m0789224b6b"/>
      </defs>
      <g>
       <use style="stroke:#000000;stroke-linecap:butt;stroke-width:0.5;" x="54.75625" xlink:href="#m0789224b6b" y="359.139443729"/>
      </g>
     </g>
    </g>
    <g id="ytick_7">
     <g id="line2d_36">
      <defs>
       <path d="
M0 0
L2 0" id="m0789224b6b"/>
      </defs>
      <g>
       <use style="stroke:#000000;stroke-linecap:butt;stroke-width:0.5;" x="54.75625" xlink:href="#m0789224b6b" y="337.067562537"/>
      </g>
     </g>
    </g>
    <g id="ytick_8">
     <g id="line2d_37">
      <defs>
       <path d="
M0 0
L2 0" id="m0789224b6b"/>
      </defs>
      <g>
       <use style="stroke:#000000;stroke-linecap:butt;stroke-width:0.5;" x="54.75625" xlink:href="#m0789224b6b" y="314.995681346"/>
      </g>
     </g>
    </g>
    <g id="ytick_9">
     <g id="line2d_38">
      <defs>
       <path d="
M0 0
L2 0" id="m0789224b6b"/>
      </defs>
      <g>
       <use style="stroke:#000000;stroke-linecap:butt;stroke-width:0.5;" x="54.75625" xlink:href="#m0789224b6b" y="292.923800155"/>
      </g>
     </g>
    </g>
    <g id="ytick_10">
     <g id="line2d_39">
      <defs>
       <path d="
M0 0
L2 0" id="m0789224b6b"/>
      </defs>
      <g>
       <use style="stroke:#000000;stroke-linecap:butt;stroke-width:0.5;" x="54.75625" xlink:href="#m0789224b6b" y="270.851918963"/>
      </g>
     </g>
    </g>
    <g id="ytick_11">
     <g id="line2d_40">
      <defs>
       <path d="
M0 0
L2 0" id="m0789224b6b"/>
      </defs>
      <g>
       <use style="stroke:#000000;stroke-linecap:butt;stroke-width:0.5;" x="54.75625" xlink:href="#m0789224b6b" y="248.780037772"/>
      </g>
     </g>
    </g>
    <g id="ytick_12">
     <g id="line2d_41">
      <defs>
       <path d="
M0 0
L2 0" id="m0789224b6b"/>
      </defs>
      <g>
       <use style="stroke:#000000;stroke-linecap:butt;stroke-width:0.5;" x="54.75625" xlink:href="#m0789224b6b" y="226.708156581"/>
      </g>
     </g>
    </g>
    <g id="ytick_13">
     <g id="line2d_42">
      <defs>
       <path d="
M0 0
L2 0" id="m0789224b6b"/>
      </defs>
      <g>
       <use style="stroke:#000000;stroke-linecap:butt;stroke-width:0.5;" x="54.75625" xlink:href="#m0789224b6b" y="204.636275389"/>
      </g>
     </g>
    </g>
    <g id="ytick_14">
     <g id="line2d_43">
      <defs>
       <path d="
M0 0
L2 0" id="m0789224b6b"/>
      </defs>
      <g>
       <use style="stroke:#000000;stroke-linecap:butt;stroke-width:0.5;" x="54.75625" xlink:href="#m0789224b6b" y="182.564394198"/>
      </g>
     </g>
    </g>
    <g id="ytick_15">
     <g id="line2d_44">
      <defs>
       <path d="
M0 0
L2 0" id="m0789224b6b"/>
      </defs>
      <g>
       <use style="stroke:#000000;stroke-linecap:butt;stroke-width:0.5;" x="54.75625" xlink:href="#m0789224b6b" y="160.492513007"/>
      </g>
     </g>
    </g>
    <g id="ytick_16">
     <g id="line2d_45">
      <defs>
       <path d="
M0 0
L2 0" id="m0789224b6b"/>
      </defs>
      <g>
       <use style="stroke:#000000;stroke-linecap:butt;stroke-width:0.5;" x="54.75625" xlink:href="#m0789224b6b" y="138.420631815"/>
      </g>
     </g>
    </g>
    <g id="ytick_17">
     <g id="line2d_46">
      <defs>
       <path d="
M0 0
L2 0" id="m0789224b6b"/>
      </defs>
      <g>
       <use style="stroke:#000000;stroke-linecap:butt;stroke-width:0.5;" x="54.75625" xlink:href="#m0789224b6b" y="116.348750624"/>
      </g>
     </g>
    </g>
    <g id="ytick_18">
     <g id="line2d_47">
      <defs>
       <path d="
M0 0
L2 0" id="m0789224b6b"/>
      </defs>
      <g>
       <use style="stroke:#000000;stroke-linecap:butt;stroke-width:0.5;" x="54.75625" xlink:href="#m0789224b6b" y="94.2768694328"/>
      </g>
     </g>
    </g>
    <g id="ytick_19">
     <g id="line2d_48">
      <defs>
       <path d="
M0 0
L2 0" id="m0789224b6b"/>
      </defs>
      <g>
       <use style="stroke:#000000;stroke-linecap:butt;stroke-width:0.5;" x="54.75625" xlink:href="#m0789224b6b" y="72.2049882414"/>
      </g>
     </g>
    </g>
    <g id="ytick_20">
     <g id="line2d_49">
      <defs>
       <path d="
M0 0
L2 0" id="m0789224b6b"/>
      </defs>
      <g>
       <use style="stroke:#000000;stroke-linecap:butt;stroke-width:0.5;" x="54.75625" xlink:href="#m0789224b6b" y="50.1331070501"/>
      </g>
     </g>
    </g>
   </g>
   <g id="patch_3">
    <path d="
M64.7562 182.564
L557.411 182.564" style="fill:none;stroke:#000000;stroke-width:0.8;"/>
   </g>
   <g id="patch_4">
    <path d="
M54.7562 410.274
L54.7562 7.2" style="fill:none;stroke:#000000;stroke-width:0.8;"/>
   </g>
  </g>
 </g>
 <defs>
  <clipPath id="paba9eb1d17">
   <rect height="403.073886744" width="492.655" x="64.75625" y="7.2"/>
  </clipPath>
 </defs>
</svg>
