<?xml version="1.0" encoding="utf-8" standalone="no"?>
<!DOCTYPE svg PUBLIC "-//W3C//DTD SVG 1.1//EN"
  "http://www.w3.org/Graphics/SVG/1.1/DTD/svg11.dtd">
<!-- Created with matplotlib (http://matplotlib.sourceforge.net/) -->
<svg height="419pt" version="1.1" viewBox="0 0 564 419" width="564pt" xmlns="http://www.w3.org/2000/svg" xmlns:xlink="http://www.w3.org/1999/xlink">
 <defs>
  <style type="text/css">
*{stroke-linecap:square;stroke-linejoin:round;}
  </style>
 </defs>
 <g id="figure_1">
  <g id="patch_1">
   <path d="
M2.22045e-16 419.333
L564.619 419.333
L564.619 0
L2.22045e-16 0
z
" style="fill:#ffffff;"/>
  </g>
  <g id="axes_1">
   <g id="patch_2">
    <path d="
M56.4387 397.415
L557.419 397.415
L557.419 10.7445
L56.4387 10.7445
z
" style="fill:#ffffff;"/>
   </g>
   <g id="line2d_1">
    <path clip-path="url(#pdc6e8e9464)" d="
M66.073 389.979
L75.8242 389.979
L75.8242 374.14
L88.1092 374.14
L88.1092 288.889
L96.2011 288.889
L96.2011 235.714
L107.071 235.714
L107.071 201.712
L111.089 201.712
L111.089 182.735
L117.54 182.735
L117.54 156.89
L120.215 156.89
L120.215 141.777
L124.81 141.777
L124.81 133.501
L130.385 133.501
L130.385 120.272
L131.988 120.272
L131.988 116.474
L136.244 116.474
L136.244 107.863
L138.712 107.863
L138.712 102.932
L139.858 102.932
L139.858 99.8701
L141.997 99.8701
L141.997 93.4398
L144.886 93.4398
L144.886 82.9632
L147.465 82.9632
L147.465 74.088
L148.267 74.088
L148.267 72.3905
L150.523 72.3905
L150.523 67.7434
L151.918 67.7434
L151.918 64.6713
L152.586 64.6713
L152.586 62.8764
L154.486 62.8764
L154.486 58.8175
L155.674 58.8175
L155.674 57.6451
L157.352 57.6451
L157.352 54.9322
L159.422 54.9322
L159.422 51.1938
L160.394 51.1938
L160.394 49.0715
L160.866 49.0715
L160.866 48.2048
L161.782 48.2048
L161.782 46.5692
L162.227 46.5692
L162.227 45.5609
L163.094 45.5609
L163.094 43.4245
L165.903 43.4245
L165.903 34.9336
L166.649 34.9336
L166.649 32.6022
L167.726 32.6022
L167.726 29.4856
L168.074 29.4856
L168.074 28.4329
L169.745 28.4329
L169.745 24.6148
L170.066 24.6148
L170.066 23.813
L171.003 23.813
L171.003 21.955
L171.905 21.955
L171.905 20.4766
L172.488 20.4766
L172.488 19.6727
L173.337 19.6727
L173.337 19.0607
L174.157 19.0607
L174.157 18.2957
L174.424 18.2957
L174.424 18.1805
L176.461 18.2714
L176.461 18.5273
L176.704 18.5273
L176.704 18.644
L178.112 18.644
L178.112 19.8004
L179.442 19.8004
L179.442 20.5896
L179.87 20.5896
L179.87 20.909
L180.081 20.909
L180.081 21.0214
L180.497 21.0214
L180.497 21.3183
L181.109 21.3183
L181.109 21.6923
L181.309 21.6923
L181.309 21.8426
L182.287 21.8426
L182.287 22.5457
L182.855 22.5457
L182.855 22.9562
L183.41 22.9562
L183.41 23.6162
L183.952 23.6162
L183.952 23.9981
L184.657 24.0661
L184.657 24.2999
L185.002 24.2999
L185.002 24.5035
L185.173 24.5035
L185.173 24.6283
L186.008 24.6283
L186.008 25.1031
L187.13 25.1031
L187.13 25.8376
L187.442 25.8376
L187.442 25.9954
L187.596 25.9954
L187.596 26.1121
L187.901 26.1121
L187.901 26.4562
L188.94 26.4562
L188.94 27.6985
L189.373 27.6985
L189.373 28.1928
L190.076 28.1928
L190.076 28.7895
L190.214 28.7895
L190.214 28.937
L190.488 28.937
L190.488 29.1758
L190.893 29.1758
L190.893 29.5375
L191.423 29.5375
L191.423 30.1875
L191.813 30.1875
L191.813 30.5689
L192.197 30.5689
L192.197 30.9514
L192.45 30.9514
L192.45 31.1829
L192.824 31.1829
L192.824 31.4675
L193.313 31.4675
L193.313 31.7939
L193.554 31.7939
L193.554 31.9863
L194.029 31.9863
L194.029 32.5142
L194.61 32.5142
L194.61 33.0848
L194.725 33.0848
L194.725 33.2373
L195.289 33.2373
L195.289 34.0949
L195.401 34.0949
L195.401 34.2635
L195.732 34.2635
L195.732 34.8248
L195.95 34.8248
L195.95 35.2661
L196.273 35.2661
L196.273 35.8865
L196.698 35.8865
L196.698 36.7864
L196.908 36.7864
L197.012 37.5174
L197.219 37.5174
L197.219 38.0623
L197.829 38.0623
L197.829 39.5476
L198.227 39.5476
L198.227 40.4392
L198.424 40.4392
L198.424 40.8951
L198.812 40.8951
L198.812 41.7811
L199.004 41.7811
L199.004 42.1787
L199.29 42.1787
L199.29 42.8482
L199.85 42.8482
L199.942 44.285
L200.756 44.285
L200.756 46.0535
L201.021 46.0535
L201.021 46.5811
L201.457 46.5811
L201.457 47.4998
L201.715 47.4998
L201.715 48.0635
L201.97 48.0635
L202.054 48.8818
L202.305 48.8818
L202.305 49.511
L202.719 49.511
L202.719 50.5256
L202.963 50.5256
L202.963 51.1523
L203.205 51.1523
L203.285 51.9393
L203.524 51.9393
L203.524 52.4859
L203.761 52.4859
L203.761 52.9824
L203.917 52.9824
L203.995 53.4656
L204.457 53.4656
L204.457 54.2942
L204.835 54.2942
L204.91 55.0839
L205.059 55.0839
L205.059 55.3157
L205.281 55.3157
L205.281 55.7024
L205.501 55.7024
L205.574 56.1421
L206.007 56.1421
L206.007 56.7648
L206.149 56.7648
L206.149 57.0025
L206.361 57.0025
L206.361 57.3109
L206.641 57.3109
L206.641 57.7449
L206.987 57.7449
L206.987 58.3462
L207.26 58.3462
L207.26 58.7853
L207.597 58.7853
L207.597 59.2839
L207.863 59.2839
L207.863 59.6765
L208.06 59.6765
L208.06 59.9749
L208.256 59.9749
L208.256 60.2288
L208.386 60.2288
L208.386 60.4133
L208.644 60.4133
L208.644 60.7785
L208.835 60.7785
L208.835 61.0152
L208.962 61.0152
L208.962 61.1863
L209.213 61.1863
L209.213 61.5186
L209.338 61.5186
L209.338 61.6756
L209.77 61.6756
L209.77 62.1692
L210.074 62.1692
L210.074 62.5206
L210.433 62.5206
L210.492 62.9648
L210.787 62.9648
L210.846 63.4203
L210.962 63.4203
L211.02 63.6139
L211.309 63.6139
L211.309 63.9445
L211.707 63.9445
L211.707 64.3372
L211.875 64.4281
L211.875 64.4781
L211.987 64.4781
L211.987 64.5965
L212.374 64.5965
L212.483 65.0802
L212.647 65.1321
L212.647 65.253
L213.183 65.253
L213.289 66.0076
L213.499 66.0076
L213.499 66.2825
L213.759 66.2825
L213.759 66.6588
L213.965 66.6588
L214.068 67.0624
L214.221 67.0624
L214.221 67.2768
L214.373 67.2768
L214.373 67.4917
L214.723 67.4917
L214.823 68.0497
L214.971 68.0497
L214.971 68.2233
L215.118 68.2233
L215.118 68.4005
L215.313 68.4005
L215.313 68.6143
L215.458 68.6143
L215.458 68.7582
L215.746 68.7582
L215.841 69.0939
L216.03 69.1954
L216.03 69.2274
L216.265 69.2274
L216.311 69.4154
L216.681 69.501
L216.727 69.6447
L217.135 69.7499
L217.135 69.8085
L217.537 69.8085
L217.625 69.9811
L218.191 70.0851
L218.191 70.1187
L218.912 70.1906
L218.954 70.303
L221.411 70.3721
L221.448 70.4239
L222.943 70.4938
L223.049 70.5866
L225.072 70.4766
L225.169 70.4541
L226.209 70.5548
L226.209 70.5653
L226.939 70.6657
L227.028 70.724
L227.675 70.8032
L227.762 70.8704
L228.947 70.9649
L229.03 71.0046
L229.438 71.1079
L229.519 71.1495
L229.972 71.259
L230.077 71.3339
L230.597 71.4435
L230.699 71.498
L230.979 71.553
L231.055 71.653
L231.873 71.7459
L231.946 71.7867
L232.523 71.8808
L232.546 71.9139
L232.946 72.0206
L233.016 72.0919
L233.362 72.1721
L233.362 72.2311
L233.703 72.3147
L233.793 72.4793
L234.062 72.5695
L234.062 72.6128
L234.262 72.6128
L234.262 72.7284
L234.525 72.7284
L234.634 72.9457
L234.893 73.0034
L234.958 73.1692
L235.214 73.2402
L235.277 73.4293
L235.425 73.4937
L235.53 73.6175
L235.904 73.7237
L235.986 73.926
L236.292 74.0352
L236.394 74.1749
L236.695 74.2631
L236.755 74.3494
L237.051 74.4561
L237.051 74.4851
L237.344 74.5959
L237.344 74.6094
L237.768 74.7145
L237.863 74.8186
L238.109 74.9223
L238.109 74.9589
L238.315 74.9589
L238.315 75.0852
L238.593 75.1621
L238.703 75.3104
L238.941 75.3734
L239.049 75.5415
L239.212 75.6231
L239.319 75.7468
L239.48 75.8097
L239.586 75.937
L239.85 76.0478
L239.885 76.0958
L240.197 76.1817
L240.301 76.2969
L240.574 76.3947
L240.659 76.5432
L240.81 76.6388
L240.81 76.6659
L240.961 76.6659
L241.028 76.8515
L241.161 76.9247
L241.21 77.0195
L241.359 77.0799
L241.457 77.2366
L241.604 77.3354
L241.701 77.4345
L241.943 77.4459
L242.039 77.6832
L242.246 77.7457
L242.341 77.8736
L242.576 77.9535
L242.654 78.0681
L242.887 78.1785
L242.902 78.2388
L243.224 78.3235
L243.269 78.496
L243.436 78.5881
L243.526 78.6693
L243.72 78.767
L243.72 78.8119
L243.884 78.8119
L243.943 78.9757
L244.236 79.0405
L244.338 79.2558
L244.555 79.3603
L244.584 79.4536
L244.755 79.5312
L244.77 79.6037
L245.011 79.7072
L245.053 79.8089
L245.305 79.9041
L245.403 80.0544
L245.597 80.0881
L245.652 80.2549
L245.843 80.3554
L245.939 80.4776
L246.141 80.5527
L246.222 80.652
L246.423 80.7499
L246.489 80.8019
L246.806 80.9117
L246.845 80.959
L247.118 81.0514
L247.208 81.128
L247.439 81.2387
L247.503 81.2816
L247.769 81.3614
L247.844 81.4508
L248.304 81.553
L248.402 81.5894
L248.804 81.6702
L248.912 81.7399
L249.411 81.843
L249.458 81.8774
L249.911 81.971
L249.911 82.0018
L250.277 82.1066
L250.379 82.1448
L251.952 82.2522
L252.058 82.2966
L252.496 82.4052
L252.558 82.4262
L252.896 82.5295
L252.916 82.5523
L253.199 82.661
L253.26 82.6847
L253.696 82.7835
L253.795 82.8324
L254.174 82.9341
L254.28 82.9863
L254.708 83.0827
L254.802 83.1297
L255.129 83.2248
L255.221 83.2836
L255.542 83.3889
L255.651 83.4397
L256.056 83.5463
L256.163 83.5692
L259.491 83.4609
L259.591 83.4318
L259.935 83.3324
L260.026 83.2831
L260.274 83.1763
L260.364 83.1182
L260.624 83.0344
L260.734 82.9103
L260.982 82.81
L261.048 82.7607
L261.343 82.6618
L261.407 82.6205
L261.712 82.5359
L261.776 82.4762
L262.02 82.368
L262.041 82.348
L262.228 82.2398
L262.332 82.1691
L262.564 82.0587
L262.598 82.0177
L262.841 81.9251
L262.929 81.833
L263.129 81.7322
L263.182 81.6848
L263.36 81.59
L263.446 81.5161
L263.7 81.4145
L263.772 81.3503
L264.01 81.244
L264.119 81.172
L264.372 81.0638
L264.461 81.0051
L264.748 80.8971
L264.804 80.8543
L265.057 80.7549
L265.167 80.6934
L265.519 80.6001
L265.591 80.5552
L266.224 80.4454
L266.335 80.4104
L266.676 80.3018
L266.779 80.2473
L267.102 80.1376
L267.203 80.0925
L267.504 79.9837
L267.609 79.9405
L267.998 79.8326
L268.085 79.8045
L268.481 79.6995
L268.551 79.6659
L268.867 79.5586
L268.971 79.509
L269.344 79.4115
L269.451 79.3607
L269.892 79.2617
L270.002 79.2052
L272.504 79.095
L272.598 79.0861
L272.607 79.0861
L273.741 79.1959
L273.843 79.2139
L274.593 79.3193
L274.684 79.3493
L275.305 79.4588
L275.389 79.4666
L277.705 79.3556
L277.813 79.3354
L281.463 79.2288
L281.571 79.1977
L281.996 79.0948
L282.093 79.0576
L282.483 78.9565
L282.587 78.8901
L282.819 78.7974
L282.922 78.7272
L283.226 78.6173
L283.33 78.5757
L283.725 78.4654
L283.832 78.4317
L284.319 78.3231
L284.418 78.3
L284.912 78.1899
L285.017 78.158
L285.322 78.048
L285.425 77.9976
L285.676 77.8955
L285.77 77.8407
L286.053 77.735
L286.163 77.6905
L286.54 77.5839
L286.64 77.5419
L287.005 77.4362
L287.101 77.4064
L287.572 77.2961
L287.683 77.2717
L288.278 77.164
L288.381 77.1297
L288.75 77.0217
L288.851 76.9724
L289.105 76.8725
L289.211 76.8148
L289.539 76.721
L289.634 76.629
L290.028 76.518
L290.136 76.4216
L290.441 76.3382
L290.529 76.2701
L290.833 76.1932
L290.93 76.1221
L291.227 76.0425
L291.32 75.9655
L291.62 75.8929
L291.72 75.8107
L292.022 75.722
L292.129 75.618
L292.426 75.519
L292.526 75.4062
L292.713 75.346
L292.824 75.2183
L293.012 75.159
L293.118 75.0244
L293.315 74.9484
L293.315 74.8921
L293.514 74.8078
L293.622 74.6977
L293.912 74.6025
L294.016 74.4763
L294.213 74.4125
L294.324 74.2958
L294.615 74.1999
L294.707 74.095
L295.007 73.998
L295.113 73.8826
L295.305 73.8149
L295.406 73.684
L295.617 73.6095
L295.711 73.4755
L295.904 73.4152
L296.003 73.2934
L296.204 73.2332
L296.304 73.1136
L296.613 73.0026
L296.702 72.914
L297.003 72.8202
L297.099 72.7326
L297.398 72.6383
L297.505 72.5613
L297.798 72.4802
L297.903 72.3928
L298.299 72.2853
L298.408 72.2252
L298.797 72.1328
L298.899 72.0678
L299.195 71.9764
L299.297 71.8758
L299.596 71.7681
L299.697 71.6722
L299.996 71.5951
L299.996 71.5585
L300.49 71.4478
L300.591 71.4078
L301.784 71.3003
L301.887 71.2819
L304.779 71.3882
L304.884 71.4121
L306.074 71.5074
L306.074 71.5256
L306.969 71.6257
L307.069 71.6527
L309.559 71.5531
L309.661 71.5191
L310.958 71.4128
L311.054 71.4015
L312.156 71.2971
L312.251 71.2844
L313.048 71.3853
L313.147 71.4188
L313.847 71.5296
L313.948 71.5755
L314.644 71.6651
L314.75 71.72
L315.245 71.813
L315.346 71.8611
L315.841 71.9653
L315.941 72.0099
L316.439 72.1066
L316.536 72.1484
L317.138 72.2537
L317.239 72.3001
L317.738 72.3946
L317.832 72.4572
L318.23 72.5522
L318.331 72.6224
L318.733 72.7102
L318.828 72.7615
L319.23 72.8678
L319.327 72.9377
L319.728 73.0308
L319.828 73.1015
L320.126 73.1803
L320.227 73.2556
L320.625 73.3607
L320.724 73.4366
L321.024 73.5224
L321.121 73.6128
L321.421 73.7078
L321.52 73.7985
L321.819 73.9063
L321.918 74.024
L322.123 74.0851
L322.219 74.21
L322.418 74.2724
L322.518 74.4038
L322.721 74.4748
L322.816 74.6
L323.015 74.6677
L323.117 74.8116
L323.316 74.8896
L323.417 75.0391
L323.614 75.1129
L323.712 75.2525
L323.912 75.3237
L324.013 75.4716
L324.212 75.5372
L324.314 75.6562
L324.61 75.7646
L324.712 75.8802
L324.912 75.9334
L325.009 76.044
L325.311 76.1494
L325.408 76.254
L325.71 76.3566
L325.806 76.4571
L326.107 76.5671
L326.204 76.6737
L326.404 76.7319
L326.504 76.8368
L326.803 76.9325
L326.909 77.0193
L327.203 77.1063
L327.305 77.1903
L327.603 77.2677
L327.703 77.3481
L328.008 77.434
L328.101 77.5322
L328.398 77.6163
L328.5 77.6955
L328.897 77.8015
L328.996 77.8588
L329.595 77.9593
L329.695 78.0146
L330.092 78.1034
L330.193 78.1731
L330.691 78.2809
L330.79 78.3349
L331.288 78.4344
L331.388 78.4755
L331.988 78.5758
L332.086 78.6276
L332.584 78.7379
L332.686 78.7967
L333.082 78.9041
L333.184 78.9908
L333.483 79.0782
L333.581 79.1677
L333.88 79.2784
L333.979 79.3943
L334.28 79.5043
L334.383 79.6203
L334.579 79.6768
L334.68 79.7911
L334.976 79.8958
L335.078 80.0035
L335.374 80.0951
L335.475 80.1959
L335.775 80.2937
L335.874 80.3875
L336.172 80.4778
L336.272 80.5704
L336.573 80.6731
L336.673 80.7803
L336.977 80.8779
L337.071 80.9854
L337.268 81.0404
L337.368 81.1542
L337.57 81.2134
L337.668 81.3343
L337.871 81.3956
L337.966 81.516
L338.166 81.5749
L338.267 81.6838
L338.565 81.7915
L338.664 81.9109
L338.864 81.9706
L338.966 82.0934
L339.263 82.2013
L339.363 82.2963
L339.662 82.3855
L339.769 82.4777
L340.161 82.5814
L340.259 82.6437
L340.757 82.7539
L340.857 82.8035
L341.356 82.9046
L341.457 82.9568
L341.855 83.0585
L341.957 83.1303
L342.352 83.2298
L342.452 83.2927
L342.951 83.3824
L343.053 83.4387
L343.549 83.5362
L343.648 83.5854
L344.246 83.6796
L344.346 83.7197
L344.844 83.8124
L344.943 83.8519
L345.742 83.9601
L345.841 83.9875
L346.738 84.0904
L346.839 84.1262
L347.635 84.2338
L347.735 84.2449
L349.83 84.3511
L349.927 84.3857
L350.525 84.492
L350.626 84.5465
L351.123 84.6493
L351.223 84.6987
L351.623 84.7798
L351.721 84.8516
L352.021 84.9292
L352.121 85.0073
L352.519 85.0991
L352.622 85.1516
L353.217 85.2616
L353.317 85.2967
L354.114 85.4025
L354.214 85.4203
L356.406 85.5286
L356.506 85.5386
L357.403 85.6373
L357.503 85.6727
L358.102 85.7757
L358.2 85.8246
L358.799 85.9285
L358.899 85.9792
L359.397 86.0882
L359.497 86.1439
L359.896 86.2469
L359.995 86.3138
L360.393 86.4224
L360.493 86.4926
L360.892 86.5874
L360.992 86.6465
L361.391 86.7399
L361.49 86.8037
L362.088 86.9107
L362.189 86.9404
L362.887 87.043
L362.985 87.0798
L363.583 87.1798
L363.683 87.2191
L364.48 87.3191
L364.58 87.3463
L365.378 87.4447
L365.477 87.4735
L366.474 87.5743
L366.573 87.6004
L367.072 87.6872
L367.172 87.7403
L367.57 87.829
L367.67 87.8926
L368.168 87.9971
L368.269 88.0395
L368.866 88.1378
L368.965 88.1808
L369.763 88.2772
L369.863 88.3119
L370.76 88.4186
L370.859 88.4362
L372.754 88.5282
L372.853 88.5761
L373.351 88.675
L373.451 88.7156
L373.95 88.8115
L374.05 88.8645
L374.448 88.9514
L374.548 89.0123
L374.947 89.1017
L375.046 89.1587
L375.445 89.2455
L375.545 89.3103
L375.943 89.4213
L376.042 89.4851
L376.541 89.5946
L376.64 89.6472
L377.139 89.7505
L377.239 89.8003
L377.936 89.9091
L378.037 89.9541
L378.534 90.0558
L378.635 90.0864
L379.431 90.1805
L379.531 90.2176
L380.029 90.3116
L380.129 90.356
L381.126 90.466
L381.226 90.4679
L382.82 90.5744
L382.921 90.5917
L384.716 90.6936
L384.814 90.7238
L385.512 90.8292
L385.611 90.857
L386.409 90.9672
L386.508 90.9978
L387.206 91.0984
L387.306 91.1406
L388.004 91.2404
L388.103 91.2732
L388.702 91.3772
L388.801 91.4108
L391.891 91.5218
L391.991 91.5323
L393.187 91.6338
L393.286 91.6583
L400.961 91.5532
L401.061 91.5364
L402.656 91.4257
L402.756 91.4064
L404.051 91.3048
L404.151 91.2745
L404.849 91.1723
L404.948 91.1326
L405.547 91.0301
L405.646 90.9792
L406.145 90.8822
L406.244 90.8452
L407.042 90.7448
L407.142 90.7115
L408.138 90.6012
L408.238 90.5659
L409.035 90.4632
L409.135 90.4283
L409.733 90.3292
L409.833 90.289
L410.431 90.1908
L410.53 90.1443
L411.128 90.045
L411.228 90.0028
L411.726 89.9057
L411.826 89.8473
L412.325 89.7479
L412.424 89.7017
L413.022 89.5992
L413.122 89.5542
L413.62 89.4547
L413.72 89.4031
L414.218 89.3042
L414.318 89.2472
L414.717 89.1612
L414.816 89.1038
L415.215 89.0106
L415.315 88.958
L415.913 88.8541
L416.013 88.8108
L416.91 88.7005
L417.009 88.6797
L419.202 88.575
L419.302 88.5515
L420.498 88.4446
L420.598 88.4248
L423.588 88.3203
L423.688 88.3015
L425.183 88.1972
L425.282 88.1782
L426.379 88.073
L426.479 88.0538
L427.575 87.9495
L427.675 87.921
L433.257 87.8181
L433.356 87.7973
L434.752 87.6895
L434.851 87.6744
L437.343 87.5637
L437.443 87.5573
L442.028 87.4518
L442.128 87.4303
L444.62 87.3193
L444.719 87.315
L449.504 87.4247
L449.603 87.4489
L450.301 87.543
L450.401 87.582
L451.099 87.6813
L451.198 87.7043
L452.295 87.8098
L452.394 87.8311
L453.491 87.9308
L453.59 87.9542
L454.587 88.0583
L454.687 88.0788
L455.484 88.1858
L455.584 88.2167
L456.282 88.3178
L456.381 88.3521
L456.979 88.4446
L457.079 88.4852
L457.677 88.5867
L457.777 88.6312
L458.176 88.7158
L458.275 88.7678
L458.674 88.8571
L458.774 88.9218
L459.172 89.0234
L459.272 89.0933
L459.671 89.2004
L459.77 89.269
L460.169 89.3676
L460.269 89.4359
L460.667 89.5458
L460.767 89.6124
L461.166 89.7152
L461.266 89.791
L461.565 89.866
L461.664 89.9444
L462.063 90.0511
L462.163 90.1188
L462.561 90.213
L462.661 90.2752
L463.06 90.3755
L463.159 90.4492
L463.458 90.5245
L463.558 90.6033
L463.857 90.6786
L463.957 90.7525
L464.355 90.8518
L464.455 90.9197
L464.854 91.0175
L464.954 91.0752
L465.452 91.1653
L465.552 91.2081
L466.15 91.3174
L466.249 91.3664
L466.748 91.4654
L466.847 91.5133
L467.346 91.6117
L467.445 91.6622
L467.944 91.7729
L468.044 91.8254
L468.542 91.9279
L468.642 91.9772
L469.24 92.0838
L469.339 92.1254
L469.937 92.219
L470.037 92.2555
L470.635 92.352
L470.735 92.3881
L471.532 92.4913
L471.632 92.5186
L472.629 92.6227
L472.728 92.6474
L473.725 92.7512
L473.825 92.7708
L474.822 92.872
L474.921 92.8928
L479.407 93.0004
L479.506 93.0118
L481.4 93.1208
L481.5 93.128
L483.194 93.2373
L483.294 93.2566
L484.191 93.3668
L484.291 93.3794
L485.288 93.489
L485.387 93.5178
L486.185 93.617
L486.284 93.647
L487.48 93.7563
L487.58 93.7705
L489.972 93.8812
L490.072 93.904
L491.268 94.0085
L491.368 94.033
L492.365 94.1411
L492.464 94.1622
L494.258 94.2686
L494.358 94.2857
L495.255 94.3939
L495.355 94.4234
L496.152 94.527
L496.252 94.5624
L497.149 94.6686
L497.249 94.6889
L498.046 94.7852
L498.146 94.8205
L498.843 94.9193
L498.943 94.9523
L499.741 95.0576
L499.84 95.0857
L500.737 95.1877
L500.837 95.2106
L501.933 95.3116
L502.033 95.3346
L502.93 95.4393
L503.03 95.4622
L503.927 95.5677
L504.027 95.5978
L504.824 95.6979
L504.924 95.7225
L505.821 95.8302
L505.92 95.8671
L506.618 95.9734
L506.718 96.0083
L507.416 96.1129
L507.515 96.151
L508.213 96.2581
L508.313 96.2946
L509.01 96.3967
L509.11 96.43
L510.207 96.5402
L510.306 96.554
L511.403 96.6597
L511.502 96.6786
L512.499 96.7825
L512.599 96.8071
L513.496 96.9152
L513.596 96.9384
L514.692 97.0475
L514.792 97.0717
L515.888 97.1804
L515.988 97.1919
L518.579 97.3007
L518.679 97.3143
L521.071 97.4211
L521.171 97.4312
L523.264 97.5401
L523.364 97.5497
L527.849 97.6599
L527.849 97.6617
L527.949 97.6616
L529.942 97.5588
L530.042 97.5403
L531.637 97.4337
L531.737 97.4131
L532.833 97.3074
L532.933 97.2887
L534.328 97.1853
L534.428 97.1685
L535.923 97.0598
L536.023 97.045
L542.302 96.9353
L542.402 96.9252
L543.997 96.818
L544.096 96.8039
L545.791 96.6936
L545.891 96.676
L546.987 96.5689
L547.087 96.5445
L547.785 96.4566
L547.785 96.4418" style="fill:none;stroke:#0000ff;stroke-width:5.0;"/>
   </g>
   <g id="matplotlib.axis_1">
    <g id="xtick_1">
     <g id="line2d_2">
      <path d="
M169.65 397.415
L169.65 10.7445" style="fill:none;stroke:#000000;stroke-dasharray:1.000000,3.000000;stroke-dashoffset:0.0;stroke-linecap:butt;stroke-width:0.5;"/>
     </g>
     <g id="line2d_3">
      <defs>
       <path d="
M0 0
L0 -4" id="m3fbe6c24f1"/>
      </defs>
      <g>
       <use style="stroke:#000000;stroke-linecap:butt;stroke-width:0.5;" x="169.650035888" xlink:href="#m3fbe6c24f1" y="389.979416728"/>
      </g>
     </g>
     <g id="text_1">
      <!-- 5 -->
      <defs>
       <path d="
M10.7969 72.9062
L49.5156 72.9062
L49.5156 64.5938
L19.8281 64.5938
L19.8281 46.7344
Q21.9688 47.4688 24.1094 47.8281
Q26.2656 48.1875 28.4219 48.1875
Q40.625 48.1875 47.75 41.5
Q54.8906 34.8125 54.8906 23.3906
Q54.8906 11.625 47.5625 5.09375
Q40.2344 -1.42188 26.9062 -1.42188
Q22.3125 -1.42188 17.5469 -0.640625
Q12.7969 0.140625 7.71875 1.70312
L7.71875 11.625
Q12.1094 9.23438 16.7969 8.0625
Q21.4844 6.89062 26.7031 6.89062
Q35.1562 6.89062 40.0781 11.3281
Q45.0156 15.7656 45.0156 23.3906
Q45.0156 31 40.0781 35.4375
Q35.1562 39.8906 26.7031 39.8906
Q22.75 39.8906 18.8125 39.0156
Q14.8906 38.1406 10.7969 36.2812
z
" id="BitstreamVeraSans-Roman-35"/>
      </defs>
      <g transform="translate(163.989410888 411.476916728)scale(0.24 -0.24)">
       <use xlink:href="#BitstreamVeraSans-Roman-35"/>
      </g>
     </g>
    </g>
    <g id="xtick_2">
     <g id="line2d_4">
      <path d="
M289.897 397.415
L289.897 10.7445" style="fill:none;stroke:#000000;stroke-dasharray:1.000000,3.000000;stroke-dashoffset:0.0;stroke-linecap:butt;stroke-width:0.5;"/>
     </g>
     <g id="line2d_5">
      <defs>
       <path d="
M0 0
L0 -4" id="m3fbe6c24f1"/>
      </defs>
      <g>
       <use style="stroke:#000000;stroke-linecap:butt;stroke-width:0.5;" x="289.896837277" xlink:href="#m3fbe6c24f1" y="389.979416728"/>
      </g>
     </g>
     <g id="text_2">
      <!-- 10 -->
      <defs>
       <path d="
M31.7812 66.4062
Q24.1719 66.4062 20.3281 58.9062
Q16.5 51.4219 16.5 36.375
Q16.5 21.3906 20.3281 13.8906
Q24.1719 6.39062 31.7812 6.39062
Q39.4531 6.39062 43.2812 13.8906
Q47.125 21.3906 47.125 36.375
Q47.125 51.4219 43.2812 58.9062
Q39.4531 66.4062 31.7812 66.4062
M31.7812 74.2188
Q44.0469 74.2188 50.5156 64.5156
Q56.9844 54.8281 56.9844 36.375
Q56.9844 17.9688 50.5156 8.26562
Q44.0469 -1.42188 31.7812 -1.42188
Q19.5312 -1.42188 13.0625 8.26562
Q6.59375 17.9688 6.59375 36.375
Q6.59375 54.8281 13.0625 64.5156
Q19.5312 74.2188 31.7812 74.2188" id="BitstreamVeraSans-Roman-30"/>
       <path d="
M12.4062 8.29688
L28.5156 8.29688
L28.5156 63.9219
L10.9844 60.4062
L10.9844 69.3906
L28.4219 72.9062
L38.2812 72.9062
L38.2812 8.29688
L54.3906 8.29688
L54.3906 0
L12.4062 0
z
" id="BitstreamVeraSans-Roman-31"/>
      </defs>
      <g transform="translate(276.741837277 411.791916728)scale(0.24 -0.24)">
       <use xlink:href="#BitstreamVeraSans-Roman-31"/>
       <use x="63.623046875" xlink:href="#BitstreamVeraSans-Roman-30"/>
      </g>
     </g>
    </g>
    <g id="xtick_3">
     <g id="line2d_6">
      <path d="
M410.144 397.415
L410.144 10.7445" style="fill:none;stroke:#000000;stroke-dasharray:1.000000,3.000000;stroke-dashoffset:0.0;stroke-linecap:butt;stroke-width:0.5;"/>
     </g>
     <g id="line2d_7">
      <defs>
       <path d="
M0 0
L0 -4" id="m3fbe6c24f1"/>
      </defs>
      <g>
       <use style="stroke:#000000;stroke-linecap:butt;stroke-width:0.5;" x="410.143638667" xlink:href="#m3fbe6c24f1" y="389.979416728"/>
      </g>
     </g>
     <g id="text_3">
      <!-- 15 -->
      <g transform="translate(397.239888667 411.476916728)scale(0.24 -0.24)">
       <use xlink:href="#BitstreamVeraSans-Roman-31"/>
       <use x="63.623046875" xlink:href="#BitstreamVeraSans-Roman-35"/>
      </g>
     </g>
    </g>
    <g id="xtick_4">
     <g id="line2d_8">
      <path d="
M530.39 397.415
L530.39 10.7445" style="fill:none;stroke:#000000;stroke-dasharray:1.000000,3.000000;stroke-dashoffset:0.0;stroke-linecap:butt;stroke-width:0.5;"/>
     </g>
     <g id="line2d_9">
      <defs>
       <path d="
M0 0
L0 -4" id="m3fbe6c24f1"/>
      </defs>
      <g>
       <use style="stroke:#000000;stroke-linecap:butt;stroke-width:0.5;" x="530.390440056" xlink:href="#m3fbe6c24f1" y="389.979416728"/>
      </g>
     </g>
     <g id="text_4">
      <!-- 20 -->
      <defs>
       <path d="
M19.1875 8.29688
L53.6094 8.29688
L53.6094 0
L7.32812 0
L7.32812 8.29688
Q12.9375 14.1094 22.625 23.8906
Q32.3281 33.6875 34.8125 36.5312
Q39.5469 41.8438 41.4219 45.5312
Q43.3125 49.2188 43.3125 52.7812
Q43.3125 58.5938 39.2344 62.25
Q35.1562 65.9219 28.6094 65.9219
Q23.9688 65.9219 18.8125 64.3125
Q13.6719 62.7031 7.8125 59.4219
L7.8125 69.3906
Q13.7656 71.7812 18.9375 73
Q24.125 74.2188 28.4219 74.2188
Q39.75 74.2188 46.4844 68.5469
Q53.2188 62.8906 53.2188 53.4219
Q53.2188 48.9219 51.5312 44.8906
Q49.8594 40.875 45.4062 35.4062
Q44.1875 33.9844 37.6406 27.2188
Q31.1094 20.4531 19.1875 8.29688" id="BitstreamVeraSans-Roman-32"/>
      </defs>
      <g transform="translate(516.796690056 411.791916728)scale(0.24 -0.24)">
       <use xlink:href="#BitstreamVeraSans-Roman-32"/>
       <use x="63.623046875" xlink:href="#BitstreamVeraSans-Roman-30"/>
      </g>
     </g>
    </g>
    <g id="xtick_5">
     <g id="line2d_10">
      <defs>
       <path d="
M0 0
L0 -2" id="mf0ff38ea95"/>
      </defs>
      <g>
       <use style="stroke:#000000;stroke-linecap:butt;stroke-width:0.5;" x="73.4525947762" xlink:href="#mf0ff38ea95" y="389.979416728"/>
      </g>
     </g>
    </g>
    <g id="xtick_6">
     <g id="line2d_11">
      <defs>
       <path d="
M0 0
L0 -2" id="mf0ff38ea95"/>
      </defs>
      <g>
       <use style="stroke:#000000;stroke-linecap:butt;stroke-width:0.5;" x="97.5019550541" xlink:href="#mf0ff38ea95" y="389.979416728"/>
      </g>
     </g>
    </g>
    <g id="xtick_7">
     <g id="line2d_12">
      <defs>
       <path d="
M0 0
L0 -2" id="mf0ff38ea95"/>
      </defs>
      <g>
       <use style="stroke:#000000;stroke-linecap:butt;stroke-width:0.5;" x="121.551315332" xlink:href="#mf0ff38ea95" y="389.979416728"/>
      </g>
     </g>
    </g>
    <g id="xtick_8">
     <g id="line2d_13">
      <defs>
       <path d="
M0 0
L0 -2" id="mf0ff38ea95"/>
      </defs>
      <g>
       <use style="stroke:#000000;stroke-linecap:butt;stroke-width:0.5;" x="145.60067561" xlink:href="#mf0ff38ea95" y="389.979416728"/>
      </g>
     </g>
    </g>
    <g id="xtick_9">
     <g id="line2d_14">
      <defs>
       <path d="
M0 0
L0 -2" id="mf0ff38ea95"/>
      </defs>
      <g>
       <use style="stroke:#000000;stroke-linecap:butt;stroke-width:0.5;" x="193.699396166" xlink:href="#mf0ff38ea95" y="389.979416728"/>
      </g>
     </g>
    </g>
    <g id="xtick_10">
     <g id="line2d_15">
      <defs>
       <path d="
M0 0
L0 -2" id="mf0ff38ea95"/>
      </defs>
      <g>
       <use style="stroke:#000000;stroke-linecap:butt;stroke-width:0.5;" x="217.748756444" xlink:href="#mf0ff38ea95" y="389.979416728"/>
      </g>
     </g>
    </g>
    <g id="xtick_11">
     <g id="line2d_16">
      <defs>
       <path d="
M0 0
L0 -2" id="mf0ff38ea95"/>
      </defs>
      <g>
       <use style="stroke:#000000;stroke-linecap:butt;stroke-width:0.5;" x="241.798116722" xlink:href="#mf0ff38ea95" y="389.979416728"/>
      </g>
     </g>
    </g>
    <g id="xtick_12">
     <g id="line2d_17">
      <defs>
       <path d="
M0 0
L0 -2" id="mf0ff38ea95"/>
      </defs>
      <g>
       <use style="stroke:#000000;stroke-linecap:butt;stroke-width:0.5;" x="265.847476999" xlink:href="#mf0ff38ea95" y="389.979416728"/>
      </g>
     </g>
    </g>
    <g id="xtick_13">
     <g id="line2d_18">
      <defs>
       <path d="
M0 0
L0 -2" id="mf0ff38ea95"/>
      </defs>
      <g>
       <use style="stroke:#000000;stroke-linecap:butt;stroke-width:0.5;" x="313.946197555" xlink:href="#mf0ff38ea95" y="389.979416728"/>
      </g>
     </g>
    </g>
    <g id="xtick_14">
     <g id="line2d_19">
      <defs>
       <path d="
M0 0
L0 -2" id="mf0ff38ea95"/>
      </defs>
      <g>
       <use style="stroke:#000000;stroke-linecap:butt;stroke-width:0.5;" x="337.995557833" xlink:href="#mf0ff38ea95" y="389.979416728"/>
      </g>
     </g>
    </g>
    <g id="xtick_15">
     <g id="line2d_20">
      <defs>
       <path d="
M0 0
L0 -2" id="mf0ff38ea95"/>
      </defs>
      <g>
       <use style="stroke:#000000;stroke-linecap:butt;stroke-width:0.5;" x="362.044918111" xlink:href="#mf0ff38ea95" y="389.979416728"/>
      </g>
     </g>
    </g>
    <g id="xtick_16">
     <g id="line2d_21">
      <defs>
       <path d="
M0 0
L0 -2" id="mf0ff38ea95"/>
      </defs>
      <g>
       <use style="stroke:#000000;stroke-linecap:butt;stroke-width:0.5;" x="386.094278389" xlink:href="#mf0ff38ea95" y="389.979416728"/>
      </g>
     </g>
    </g>
    <g id="xtick_17">
     <g id="line2d_22">
      <defs>
       <path d="
M0 0
L0 -2" id="mf0ff38ea95"/>
      </defs>
      <g>
       <use style="stroke:#000000;stroke-linecap:butt;stroke-width:0.5;" x="434.192998945" xlink:href="#mf0ff38ea95" y="389.979416728"/>
      </g>
     </g>
    </g>
    <g id="xtick_18">
     <g id="line2d_23">
      <defs>
       <path d="
M0 0
L0 -2" id="mf0ff38ea95"/>
      </defs>
      <g>
       <use style="stroke:#000000;stroke-linecap:butt;stroke-width:0.5;" x="458.242359223" xlink:href="#mf0ff38ea95" y="389.979416728"/>
      </g>
     </g>
    </g>
    <g id="xtick_19">
     <g id="line2d_24">
      <defs>
       <path d="
M0 0
L0 -2" id="mf0ff38ea95"/>
      </defs>
      <g>
       <use style="stroke:#000000;stroke-linecap:butt;stroke-width:0.5;" x="482.291719501" xlink:href="#mf0ff38ea95" y="389.979416728"/>
      </g>
     </g>
    </g>
    <g id="xtick_20">
     <g id="line2d_25">
      <defs>
       <path d="
M0 0
L0 -2" id="mf0ff38ea95"/>
      </defs>
      <g>
       <use style="stroke:#000000;stroke-linecap:butt;stroke-width:0.5;" x="506.341079779" xlink:href="#mf0ff38ea95" y="389.979416728"/>
      </g>
     </g>
    </g>
   </g>
   <g id="matplotlib.axis_2">
    <g id="ytick_1">
     <g id="line2d_26">
      <path d="
M56.4387 389.979
L557.419 389.979" style="fill:none;stroke:#000000;stroke-dasharray:1.000000,3.000000;stroke-dashoffset:0.0;stroke-linecap:butt;stroke-width:0.5;"/>
     </g>
     <g id="line2d_27">
      <defs>
       <path d="
M0 0
L4 0" id="mc91e532072"/>
      </defs>
      <g>
       <use style="stroke:#000000;stroke-linecap:butt;stroke-width:0.5;" x="46.43875" xlink:href="#mc91e532072" y="389.979416728"/>
      </g>
     </g>
     <g id="text_5">
      <!-- 0 -->
      <g transform="translate(30.345 398.715041728)scale(0.24 -0.24)">
       <use xlink:href="#BitstreamVeraSans-Roman-30"/>
      </g>
     </g>
    </g>
    <g id="ytick_2">
     <g id="line2d_28">
      <path d="
M56.4387 336.593
L557.419 336.593" style="fill:none;stroke:#000000;stroke-dasharray:1.000000,3.000000;stroke-dashoffset:0.0;stroke-linecap:butt;stroke-width:0.5;"/>
     </g>
     <g id="line2d_29">
      <defs>
       <path d="
M0 0
L4 0" id="mc91e532072"/>
      </defs>
      <g>
       <use style="stroke:#000000;stroke-linecap:butt;stroke-width:0.5;" x="46.43875" xlink:href="#mc91e532072" y="336.593339338"/>
      </g>
     </g>
     <g id="text_6">
      <!-- 0.1 -->
      <defs>
       <path d="
M10.6875 12.4062
L21 12.4062
L21 0
L10.6875 0
z
" id="BitstreamVeraSans-Roman-2e"/>
      </defs>
      <g transform="translate(8.07 345.328964338)scale(0.24 -0.24)">
       <use xlink:href="#BitstreamVeraSans-Roman-30"/>
       <use x="63.623046875" xlink:href="#BitstreamVeraSans-Roman-2e"/>
       <use x="95.41015625" xlink:href="#BitstreamVeraSans-Roman-31"/>
      </g>
     </g>
    </g>
    <g id="ytick_3">
     <g id="line2d_30">
      <path d="
M56.4387 283.207
L557.419 283.207" style="fill:none;stroke:#000000;stroke-dasharray:1.000000,3.000000;stroke-dashoffset:0.0;stroke-linecap:butt;stroke-width:0.5;"/>
     </g>
     <g id="line2d_31">
      <defs>
       <path d="
M0 0
L4 0" id="mc91e532072"/>
      </defs>
      <g>
       <use style="stroke:#000000;stroke-linecap:butt;stroke-width:0.5;" x="46.43875" xlink:href="#mc91e532072" y="283.207261948"/>
      </g>
     </g>
     <g id="text_7">
      <!-- 0.2 -->
      <g transform="translate(8.2575 291.942886948)scale(0.24 -0.24)">
       <use xlink:href="#BitstreamVeraSans-Roman-30"/>
       <use x="63.623046875" xlink:href="#BitstreamVeraSans-Roman-2e"/>
       <use x="95.41015625" xlink:href="#BitstreamVeraSans-Roman-32"/>
      </g>
     </g>
    </g>
    <g id="ytick_4">
     <g id="line2d_32">
      <path d="
M56.4387 229.821
L557.419 229.821" style="fill:none;stroke:#000000;stroke-dasharray:1.000000,3.000000;stroke-dashoffset:0.0;stroke-linecap:butt;stroke-width:0.5;"/>
     </g>
     <g id="line2d_33">
      <defs>
       <path d="
M0 0
L4 0" id="mc91e532072"/>
      </defs>
      <g>
       <use style="stroke:#000000;stroke-linecap:butt;stroke-width:0.5;" x="46.43875" xlink:href="#mc91e532072" y="229.821184559"/>
      </g>
     </g>
     <g id="text_8">
      <!-- 0.3 -->
      <defs>
       <path d="
M40.5781 39.3125
Q47.6562 37.7969 51.625 33
Q55.6094 28.2188 55.6094 21.1875
Q55.6094 10.4062 48.1875 4.48438
Q40.7656 -1.42188 27.0938 -1.42188
Q22.5156 -1.42188 17.6562 -0.515625
Q12.7969 0.390625 7.625 2.20312
L7.625 11.7188
Q11.7188 9.32812 16.5938 8.10938
Q21.4844 6.89062 26.8125 6.89062
Q36.0781 6.89062 40.9375 10.5469
Q45.7969 14.2031 45.7969 21.1875
Q45.7969 27.6406 41.2812 31.2656
Q36.7656 34.9062 28.7188 34.9062
L20.2188 34.9062
L20.2188 43.0156
L29.1094 43.0156
Q36.375 43.0156 40.2344 45.9219
Q44.0938 48.8281 44.0938 54.2969
Q44.0938 59.9062 40.1094 62.9062
Q36.1406 65.9219 28.7188 65.9219
Q24.6562 65.9219 20.0156 65.0312
Q15.375 64.1562 9.8125 62.3125
L9.8125 71.0938
Q15.4375 72.6562 20.3438 73.4375
Q25.25 74.2188 29.5938 74.2188
Q40.8281 74.2188 47.3594 69.1094
Q53.9062 64.0156 53.9062 55.3281
Q53.9062 49.2656 50.4375 45.0938
Q46.9688 40.9219 40.5781 39.3125" id="BitstreamVeraSans-Roman-33"/>
      </defs>
      <g transform="translate(7.7775 238.556809559)scale(0.24 -0.24)">
       <use xlink:href="#BitstreamVeraSans-Roman-30"/>
       <use x="63.623046875" xlink:href="#BitstreamVeraSans-Roman-2e"/>
       <use x="95.41015625" xlink:href="#BitstreamVeraSans-Roman-33"/>
      </g>
     </g>
    </g>
    <g id="ytick_5">
     <g id="line2d_34">
      <path d="
M56.4387 176.435
L557.419 176.435" style="fill:none;stroke:#000000;stroke-dasharray:1.000000,3.000000;stroke-dashoffset:0.0;stroke-linecap:butt;stroke-width:0.5;"/>
     </g>
     <g id="line2d_35">
      <defs>
       <path d="
M0 0
L4 0" id="mc91e532072"/>
      </defs>
      <g>
       <use style="stroke:#000000;stroke-linecap:butt;stroke-width:0.5;" x="46.43875" xlink:href="#mc91e532072" y="176.435107169"/>
      </g>
     </g>
     <g id="text_9">
      <!-- 0.4 -->
      <defs>
       <path d="
M37.7969 64.3125
L12.8906 25.3906
L37.7969 25.3906
z

M35.2031 72.9062
L47.6094 72.9062
L47.6094 25.3906
L58.0156 25.3906
L58.0156 17.1875
L47.6094 17.1875
L47.6094 0
L37.7969 0
L37.7969 17.1875
L4.89062 17.1875
L4.89062 26.7031
z
" id="BitstreamVeraSans-Roman-34"/>
      </defs>
      <g transform="translate(7.2 185.170732169)scale(0.24 -0.24)">
       <use xlink:href="#BitstreamVeraSans-Roman-30"/>
       <use x="63.623046875" xlink:href="#BitstreamVeraSans-Roman-2e"/>
       <use x="95.41015625" xlink:href="#BitstreamVeraSans-Roman-34"/>
      </g>
     </g>
    </g>
    <g id="ytick_6">
     <g id="line2d_36">
      <path d="
M56.4387 123.049
L557.419 123.049" style="fill:none;stroke:#000000;stroke-dasharray:1.000000,3.000000;stroke-dashoffset:0.0;stroke-linecap:butt;stroke-width:0.5;"/>
     </g>
     <g id="line2d_37">
      <defs>
       <path d="
M0 0
L4 0" id="mc91e532072"/>
      </defs>
      <g>
       <use style="stroke:#000000;stroke-linecap:butt;stroke-width:0.5;" x="46.43875" xlink:href="#mc91e532072" y="123.049029779"/>
      </g>
     </g>
     <g id="text_10">
      <!-- 0.5 -->
      <g transform="translate(7.95 131.784654779)scale(0.24 -0.24)">
       <use xlink:href="#BitstreamVeraSans-Roman-30"/>
       <use x="63.623046875" xlink:href="#BitstreamVeraSans-Roman-2e"/>
       <use x="95.41015625" xlink:href="#BitstreamVeraSans-Roman-35"/>
      </g>
     </g>
    </g>
    <g id="ytick_7">
     <g id="line2d_38">
      <path d="
M56.4387 69.663
L557.419 69.663" style="fill:none;stroke:#000000;stroke-dasharray:1.000000,3.000000;stroke-dashoffset:0.0;stroke-linecap:butt;stroke-width:0.5;"/>
     </g>
     <g id="line2d_39">
      <defs>
       <path d="
M0 0
L4 0" id="mc91e532072"/>
      </defs>
      <g>
       <use style="stroke:#000000;stroke-linecap:butt;stroke-width:0.5;" x="46.43875" xlink:href="#mc91e532072" y="69.6629523896"/>
      </g>
     </g>
     <g id="text_11">
      <!-- 0.6 -->
      <defs>
       <path d="
M33.0156 40.375
Q26.375 40.375 22.4844 35.8281
Q18.6094 31.2969 18.6094 23.3906
Q18.6094 15.5312 22.4844 10.9531
Q26.375 6.39062 33.0156 6.39062
Q39.6562 6.39062 43.5312 10.9531
Q47.4062 15.5312 47.4062 23.3906
Q47.4062 31.2969 43.5312 35.8281
Q39.6562 40.375 33.0156 40.375
M52.5938 71.2969
L52.5938 62.3125
Q48.875 64.0625 45.0938 64.9844
Q41.3125 65.9219 37.5938 65.9219
Q27.8281 65.9219 22.6719 59.3281
Q17.5312 52.7344 16.7969 39.4062
Q19.6719 43.6562 24.0156 45.9219
Q28.375 48.1875 33.5938 48.1875
Q44.5781 48.1875 50.9531 41.5156
Q57.3281 34.8594 57.3281 23.3906
Q57.3281 12.1562 50.6875 5.35938
Q44.0469 -1.42188 33.0156 -1.42188
Q20.3594 -1.42188 13.6719 8.26562
Q6.98438 17.9688 6.98438 36.375
Q6.98438 53.6562 15.1875 63.9375
Q23.3906 74.2188 37.2031 74.2188
Q40.9219 74.2188 44.7031 73.4844
Q48.4844 72.75 52.5938 71.2969" id="BitstreamVeraSans-Roman-36"/>
      </defs>
      <g transform="translate(7.365 78.3985773896)scale(0.24 -0.24)">
       <use xlink:href="#BitstreamVeraSans-Roman-30"/>
       <use x="63.623046875" xlink:href="#BitstreamVeraSans-Roman-2e"/>
       <use x="95.41015625" xlink:href="#BitstreamVeraSans-Roman-36"/>
      </g>
     </g>
    </g>
    <g id="ytick_8">
     <g id="line2d_40">
      <path d="
M56.4387 16.2769
L557.419 16.2769" style="fill:none;stroke:#000000;stroke-dasharray:1.000000,3.000000;stroke-dashoffset:0.0;stroke-linecap:butt;stroke-width:0.5;"/>
     </g>
     <g id="line2d_41">
      <defs>
       <path d="
M0 0
L4 0" id="mc91e532072"/>
      </defs>
      <g>
       <use style="stroke:#000000;stroke-linecap:butt;stroke-width:0.5;" x="46.43875" xlink:href="#mc91e532072" y="16.276875"/>
      </g>
     </g>
     <g id="text_12">
      <!-- 0.7 -->
      <defs>
       <path d="
M8.20312 72.9062
L55.0781 72.9062
L55.0781 68.7031
L28.6094 0
L18.3125 0
L43.2188 64.5938
L8.20312 64.5938
z
" id="BitstreamVeraSans-Roman-37"/>
      </defs>
      <g transform="translate(7.905 25.0125)scale(0.24 -0.24)">
       <use xlink:href="#BitstreamVeraSans-Roman-30"/>
       <use x="63.623046875" xlink:href="#BitstreamVeraSans-Roman-2e"/>
       <use x="95.41015625" xlink:href="#BitstreamVeraSans-Roman-37"/>
      </g>
     </g>
    </g>
    <g id="ytick_9">
     <g id="line2d_42">
      <defs>
       <path d="
M0 0
L2 0" id="m0789224b6b"/>
      </defs>
      <g>
       <use style="stroke:#000000;stroke-linecap:butt;stroke-width:0.5;" x="46.43875" xlink:href="#m0789224b6b" y="379.30220125"/>
      </g>
     </g>
    </g>
    <g id="ytick_10">
     <g id="line2d_43">
      <defs>
       <path d="
M0 0
L2 0" id="m0789224b6b"/>
      </defs>
      <g>
       <use style="stroke:#000000;stroke-linecap:butt;stroke-width:0.5;" x="46.43875" xlink:href="#m0789224b6b" y="368.624985772"/>
      </g>
     </g>
    </g>
    <g id="ytick_11">
     <g id="line2d_44">
      <defs>
       <path d="
M0 0
L2 0" id="m0789224b6b"/>
      </defs>
      <g>
       <use style="stroke:#000000;stroke-linecap:butt;stroke-width:0.5;" x="46.43875" xlink:href="#m0789224b6b" y="357.947770294"/>
      </g>
     </g>
    </g>
    <g id="ytick_12">
     <g id="line2d_45">
      <defs>
       <path d="
M0 0
L2 0" id="m0789224b6b"/>
      </defs>
      <g>
       <use style="stroke:#000000;stroke-linecap:butt;stroke-width:0.5;" x="46.43875" xlink:href="#m0789224b6b" y="347.270554816"/>
      </g>
     </g>
    </g>
    <g id="ytick_13">
     <g id="line2d_46">
      <defs>
       <path d="
M0 0
L2 0" id="m0789224b6b"/>
      </defs>
      <g>
       <use style="stroke:#000000;stroke-linecap:butt;stroke-width:0.5;" x="46.43875" xlink:href="#m0789224b6b" y="325.91612386"/>
      </g>
     </g>
    </g>
    <g id="ytick_14">
     <g id="line2d_47">
      <defs>
       <path d="
M0 0
L2 0" id="m0789224b6b"/>
      </defs>
      <g>
       <use style="stroke:#000000;stroke-linecap:butt;stroke-width:0.5;" x="46.43875" xlink:href="#m0789224b6b" y="315.238908382"/>
      </g>
     </g>
    </g>
    <g id="ytick_15">
     <g id="line2d_48">
      <defs>
       <path d="
M0 0
L2 0" id="m0789224b6b"/>
      </defs>
      <g>
       <use style="stroke:#000000;stroke-linecap:butt;stroke-width:0.5;" x="46.43875" xlink:href="#m0789224b6b" y="304.561692904"/>
      </g>
     </g>
    </g>
    <g id="ytick_16">
     <g id="line2d_49">
      <defs>
       <path d="
M0 0
L2 0" id="m0789224b6b"/>
      </defs>
      <g>
       <use style="stroke:#000000;stroke-linecap:butt;stroke-width:0.5;" x="46.43875" xlink:href="#m0789224b6b" y="293.884477426"/>
      </g>
     </g>
    </g>
    <g id="ytick_17">
     <g id="line2d_50">
      <defs>
       <path d="
M0 0
L2 0" id="m0789224b6b"/>
      </defs>
      <g>
       <use style="stroke:#000000;stroke-linecap:butt;stroke-width:0.5;" x="46.43875" xlink:href="#m0789224b6b" y="272.53004647"/>
      </g>
     </g>
    </g>
    <g id="ytick_18">
     <g id="line2d_51">
      <defs>
       <path d="
M0 0
L2 0" id="m0789224b6b"/>
      </defs>
      <g>
       <use style="stroke:#000000;stroke-linecap:butt;stroke-width:0.5;" x="46.43875" xlink:href="#m0789224b6b" y="261.852830992"/>
      </g>
     </g>
    </g>
    <g id="ytick_19">
     <g id="line2d_52">
      <defs>
       <path d="
M0 0
L2 0" id="m0789224b6b"/>
      </defs>
      <g>
       <use style="stroke:#000000;stroke-linecap:butt;stroke-width:0.5;" x="46.43875" xlink:href="#m0789224b6b" y="251.175615514"/>
      </g>
     </g>
    </g>
    <g id="ytick_20">
     <g id="line2d_53">
      <defs>
       <path d="
M0 0
L2 0" id="m0789224b6b"/>
      </defs>
      <g>
       <use style="stroke:#000000;stroke-linecap:butt;stroke-width:0.5;" x="46.43875" xlink:href="#m0789224b6b" y="240.498400037"/>
      </g>
     </g>
    </g>
    <g id="ytick_21">
     <g id="line2d_54">
      <defs>
       <path d="
M0 0
L2 0" id="m0789224b6b"/>
      </defs>
      <g>
       <use style="stroke:#000000;stroke-linecap:butt;stroke-width:0.5;" x="46.43875" xlink:href="#m0789224b6b" y="219.143969081"/>
      </g>
     </g>
    </g>
    <g id="ytick_22">
     <g id="line2d_55">
      <defs>
       <path d="
M0 0
L2 0" id="m0789224b6b"/>
      </defs>
      <g>
       <use style="stroke:#000000;stroke-linecap:butt;stroke-width:0.5;" x="46.43875" xlink:href="#m0789224b6b" y="208.466753603"/>
      </g>
     </g>
    </g>
    <g id="ytick_23">
     <g id="line2d_56">
      <defs>
       <path d="
M0 0
L2 0" id="m0789224b6b"/>
      </defs>
      <g>
       <use style="stroke:#000000;stroke-linecap:butt;stroke-width:0.5;" x="46.43875" xlink:href="#m0789224b6b" y="197.789538125"/>
      </g>
     </g>
    </g>
    <g id="ytick_24">
     <g id="line2d_57">
      <defs>
       <path d="
M0 0
L2 0" id="m0789224b6b"/>
      </defs>
      <g>
       <use style="stroke:#000000;stroke-linecap:butt;stroke-width:0.5;" x="46.43875" xlink:href="#m0789224b6b" y="187.112322647"/>
      </g>
     </g>
    </g>
    <g id="ytick_25">
     <g id="line2d_58">
      <defs>
       <path d="
M0 0
L2 0" id="m0789224b6b"/>
      </defs>
      <g>
       <use style="stroke:#000000;stroke-linecap:butt;stroke-width:0.5;" x="46.43875" xlink:href="#m0789224b6b" y="165.757891691"/>
      </g>
     </g>
    </g>
    <g id="ytick_26">
     <g id="line2d_59">
      <defs>
       <path d="
M0 0
L2 0" id="m0789224b6b"/>
      </defs>
      <g>
       <use style="stroke:#000000;stroke-linecap:butt;stroke-width:0.5;" x="46.43875" xlink:href="#m0789224b6b" y="155.080676213"/>
      </g>
     </g>
    </g>
    <g id="ytick_27">
     <g id="line2d_60">
      <defs>
       <path d="
M0 0
L2 0" id="m0789224b6b"/>
      </defs>
      <g>
       <use style="stroke:#000000;stroke-linecap:butt;stroke-width:0.5;" x="46.43875" xlink:href="#m0789224b6b" y="144.403460735"/>
      </g>
     </g>
    </g>
    <g id="ytick_28">
     <g id="line2d_61">
      <defs>
       <path d="
M0 0
L2 0" id="m0789224b6b"/>
      </defs>
      <g>
       <use style="stroke:#000000;stroke-linecap:butt;stroke-width:0.5;" x="46.43875" xlink:href="#m0789224b6b" y="133.726245257"/>
      </g>
     </g>
    </g>
    <g id="ytick_29">
     <g id="line2d_62">
      <defs>
       <path d="
M0 0
L2 0" id="m0789224b6b"/>
      </defs>
      <g>
       <use style="stroke:#000000;stroke-linecap:butt;stroke-width:0.5;" x="46.43875" xlink:href="#m0789224b6b" y="112.371814301"/>
      </g>
     </g>
    </g>
    <g id="ytick_30">
     <g id="line2d_63">
      <defs>
       <path d="
M0 0
L2 0" id="m0789224b6b"/>
      </defs>
      <g>
       <use style="stroke:#000000;stroke-linecap:butt;stroke-width:0.5;" x="46.43875" xlink:href="#m0789224b6b" y="101.694598823"/>
      </g>
     </g>
    </g>
    <g id="ytick_31">
     <g id="line2d_64">
      <defs>
       <path d="
M0 0
L2 0" id="m0789224b6b"/>
      </defs>
      <g>
       <use style="stroke:#000000;stroke-linecap:butt;stroke-width:0.5;" x="46.43875" xlink:href="#m0789224b6b" y="91.0173833455"/>
      </g>
     </g>
    </g>
    <g id="ytick_32">
     <g id="line2d_65">
      <defs>
       <path d="
M0 0
L2 0" id="m0789224b6b"/>
      </defs>
      <g>
       <use style="stroke:#000000;stroke-linecap:butt;stroke-width:0.5;" x="46.43875" xlink:href="#m0789224b6b" y="80.3401678676"/>
      </g>
     </g>
    </g>
    <g id="ytick_33">
     <g id="line2d_66">
      <defs>
       <path d="
M0 0
L2 0" id="m0789224b6b"/>
      </defs>
      <g>
       <use style="stroke:#000000;stroke-linecap:butt;stroke-width:0.5;" x="46.43875" xlink:href="#m0789224b6b" y="58.9857369117"/>
      </g>
     </g>
    </g>
    <g id="ytick_34">
     <g id="line2d_67">
      <defs>
       <path d="
M0 0
L2 0" id="m0789224b6b"/>
      </defs>
      <g>
       <use style="stroke:#000000;stroke-linecap:butt;stroke-width:0.5;" x="46.43875" xlink:href="#m0789224b6b" y="48.3085214338"/>
      </g>
     </g>
    </g>
    <g id="ytick_35">
     <g id="line2d_68">
      <defs>
       <path d="
M0 0
L2 0" id="m0789224b6b"/>
      </defs>
      <g>
       <use style="stroke:#000000;stroke-linecap:butt;stroke-width:0.5;" x="46.43875" xlink:href="#m0789224b6b" y="37.6313059559"/>
      </g>
     </g>
    </g>
    <g id="ytick_36">
     <g id="line2d_69">
      <defs>
       <path d="
M0 0
L2 0" id="m0789224b6b"/>
      </defs>
      <g>
       <use style="stroke:#000000;stroke-linecap:butt;stroke-width:0.5;" x="46.43875" xlink:href="#m0789224b6b" y="26.9540904779"/>
      </g>
     </g>
    </g>
   </g>
   <g id="patch_3">
    <path d="
M56.4387 389.979
L557.419 389.979" style="fill:none;stroke:#000000;stroke-width:0.8;"/>
   </g>
   <g id="patch_4">
    <path d="
M46.4387 397.415
L46.4387 10.7445" style="fill:none;stroke:#000000;stroke-width:0.8;"/>
   </g>
  </g>
 </g>
 <defs>
  <clipPath id="pdc6e8e9464">
   <rect height="386.670916789" width="500.98" x="56.43875" y="10.7444791072"/>
  </clipPath>
 </defs>
</svg>
