<?xml version="1.0" encoding="utf-8" standalone="no"?>
<!DOCTYPE svg PUBLIC "-//W3C//DTD SVG 1.1//EN"
  "http://www.w3.org/Graphics/SVG/1.1/DTD/svg11.dtd">
<!-- Created with matplotlib (http://matplotlib.sourceforge.net/) -->
<svg height="419pt" version="1.1" viewBox="0 0 564 419" width="564pt" xmlns="http://www.w3.org/2000/svg" xmlns:xlink="http://www.w3.org/1999/xlink">
 <defs>
  <style type="text/css">
*{stroke-linecap:square;stroke-linejoin:round;}
  </style>
 </defs>
 <g id="figure_1">
  <g id="patch_1">
   <path d="
M4.44089e-16 419.439
L564.626 419.439
L564.626 0
L4.44089e-16 0
z
" style="fill:#ffffff;"/>
  </g>
  <g id="axes_1">
   <g id="patch_2">
    <path d="
M42.6088 412.239
L557.426 412.239
L557.426 8.51291
L42.6088 8.51291
z
" style="fill:#ffffff;"/>
   </g>
   <g id="line2d_1">
    <path clip-path="url(#p51b3ba9df9)" d="
M52.5091 16.2769
L62.5296 16.2769
L62.5296 16.2769
L62.5296 16.2769
L75.154 16.2769
L75.154 28.2609
L83.4694 28.2609
L83.4694 43.9364
L94.6396 43.9364
L94.6396 83.0383
L98.7681 83.0383
L98.7681 101.779
L105.398 101.779
L105.398 121.154
L108.147 121.154
L108.147 128.46
L112.868 128.46
L112.868 138.47
L118.597 138.47
L118.597 156.269
L120.245 156.269
L120.245 162.655
L124.618 162.655
L124.618 179.906
L127.155 179.906
L127.155 189.251
L128.332 189.251
L128.332 193.959
L130.53 193.959
L130.53 202.622
L133.499 202.622
L133.499 215.158
L136.15 215.158
L136.15 225.472
L136.973 225.472
L136.973 227.896
L139.292 227.896
L139.292 233.478
L140.725 233.478
L140.725 236.115
L141.412 236.115
L141.412 237.471
L143.364 237.471
L143.364 241.022
L144.584 241.022
L144.584 243.802
L146.309 243.802
L146.309 247.82
L148.437 247.82
L148.437 251.873
L149.435 251.873
L149.435 253.34
L149.92 253.34
L149.92 253.845
L150.861 253.845
L150.861 254.51
L151.319 254.51
L151.319 254.803
L152.21 254.803
L152.21 255.566
L155.096 255.566
L155.096 259.678
L155.863 259.678
L155.863 261.096
L156.969 261.096
L156.969 263.258
L157.328 263.258
L157.328 264.028
L159.045 264.028
L159.045 267.754
L159.374 267.754
L159.374 268.525
L160.337 268.525
L160.337 270.967
L161.264 270.967
L161.264 273.323
L161.863 273.323
L161.863 275.028
L162.735 275.028
L162.735 277.165
L163.578 277.165
L163.578 279.273
L163.853 279.273
L163.853 280.064
L165.182 280.064
L165.182 284.057
L165.439 284.057
L165.439 284.793
L165.946 284.793
L165.946 286.08
L166.196 286.08
L166.196 286.676
L167.643 286.676
L167.643 290.154
L169.01 290.154
L169.01 292.797
L169.449 292.797
L169.449 293.645
L169.666 293.645
L169.666 294.003
L170.094 294.003
L170.094 294.886
L170.722 294.886
L170.722 296.341
L170.928 296.341
L170.928 296.8
L171.933 296.8
L171.933 298.828
L172.517 298.828
L172.517 299.969
L173.087 299.969
L173.087 301.21
L173.645 301.21
L173.645 302.331
L173.828 302.331
L173.828 302.762
L174.369 302.762
L174.369 304.24
L174.723 304.24
L174.723 305.192
L174.898 305.192
L174.898 305.726
L175.757 305.726
L175.757 308.15
L176.91 308.15
L176.91 311.335
L177.23 311.335
L177.23 312.242
L177.388 312.242
L177.388 312.626
L177.702 312.626
L177.702 313.454
L178.77 313.454
L178.77 315.981
L179.214 315.981
L179.214 317.14
L179.937 317.14
L179.937 319.001
L180.079 319.001
L180.079 319.332
L180.361 319.332
L180.361 319.91
L180.777 319.91
L180.777 320.656
L181.322 320.656
L181.322 321.699
L181.723 321.699
L181.723 322.401
L182.117 322.401
L182.117 323.125
L182.376 323.125
L182.376 323.672
L182.761 323.672
L182.761 324.424
L183.264 324.424
L183.264 325.341
L183.511 325.341
L183.511 325.853
L184 325.853
L184 326.958
L184.597 326.958
L184.597 328.327
L184.714 328.327
L184.714 328.621
L185.294 328.621
L185.294 330.015
L185.409 330.015
L185.409 330.305
L185.749 330.305
L185.749 331.098
L185.973 331.098
L185.973 331.552
L186.306 331.552
L186.306 332.223
L186.742 332.223
L186.742 333.039
L186.957 333.039
L187.064 333.69
L187.277 333.69
L187.277 334.153
L187.904 334.153
L187.904 335.557
L188.313 335.557
L188.313 336.455
L188.516 336.455
L188.516 336.899
L188.915 336.899
L188.915 337.742
L189.112 337.742
L189.112 338.138
L189.405 338.138
L189.405 338.713
L189.981 338.713
L190.076 340.079
L190.912 340.079
L190.912 341.414
L191.185 341.414
L191.185 341.861
L191.632 341.861
L191.632 342.509
L191.897 342.509
L191.897 342.89
L192.159 342.89
L192.246 343.433
L192.504 343.433
L192.504 343.842
L192.929 343.842
L192.929 344.542
L193.18 344.542
L193.18 344.937
L193.429 344.937
L193.511 345.53
L193.757 345.53
L193.757 346.048
L194 346.048
L194 346.525
L194.161 346.525
L194.241 346.993
L194.715 346.993
L194.715 347.948
L195.104 347.948
L195.181 348.794
L195.334 348.794
L195.334 349.041
L195.562 349.041
L195.562 349.38
L195.788 349.38
L195.863 349.846
L196.308 349.846
L196.308 350.461
L196.454 350.461
L196.454 350.639
L196.672 350.639
L196.672 350.91
L196.96 350.91
L196.96 351.245
L197.315 351.245
L197.315 351.63
L197.596 351.63
L197.596 351.924
L197.942 351.924
L197.942 352.298
L198.215 352.298
L198.215 352.55
L198.418 352.55
L198.418 352.701
L198.62 352.701
L198.62 352.863
L198.753 352.863
L198.753 352.989
L199.018 352.989
L199.018 353.258
L199.215 353.258
L199.215 353.506
L199.345 353.506
L199.345 353.641
L199.603 353.641
L199.603 353.902
L199.731 353.902
L199.731 354.051
L200.175 354.051
L200.175 354.562
L200.487 354.562
L200.487 354.874
L200.856 354.874
L200.917 355.277
L201.22 355.277
L201.28 355.661
L201.46 355.768
L201.46 355.837
L201.756 355.837
L201.756 356.226
L202.165 356.226
L202.165 356.817
L202.281 356.817
L202.338 357.032
L202.453 357.032
L202.453 357.178
L202.851 357.178
L202.851 357.631
L202.963 357.631
L203.019 357.832
L203.682 357.938
L203.791 358.462
L204.007 358.462
L204.007 358.66
L204.275 358.66
L204.275 358.884
L204.486 358.884
L204.592 359.166
L204.749 359.166
L204.749 359.282
L205.265 359.364
L205.367 359.569
L205.671 359.658
L205.671 359.778
L205.871 359.778
L205.871 359.941
L206.316 360.043
L206.414 360.365
L206.608 360.455
L206.608 360.495
L206.849 360.495
L206.897 360.7
L207.04 360.7
L207.04 360.835
L207.277 360.835
L207.324 361.122
L207.558 361.122
L207.604 361.443
L207.744 361.443
L207.744 361.574
L208.156 361.574
L208.247 362.011
L208.383 362.051
L208.383 362.125
L208.517 362.125
L208.517 362.245
L208.651 362.245
L208.651 362.36
L208.829 362.36
L208.829 362.517
L208.961 362.517
L208.961 362.637
L209.093 362.637
L209.093 362.783
L209.57 362.783
L209.613 363.394
L209.826 363.394
L209.826 363.631
L209.996 363.631
L209.996 363.827
L210.206 363.827
L210.206 364.104
L210.331 364.104
L210.331 364.268
L210.456 364.268
L210.456 364.433
L210.621 364.433
L210.621 364.622
L210.867 364.622
L210.948 365.022
L211.07 365.022
L211.07 365.185
L211.191 365.185
L211.231 365.379
L211.351 365.379
L211.351 365.512
L211.589 365.512
L211.589 365.789
L211.787 365.789
L211.787 366.052
L212.137 366.052
L212.176 366.574
L212.369 366.663
L212.407 366.819
L212.598 366.909
L212.636 366.973
L212.937 367.01
L212.975 367.129
L213.712 367.161
L213.821 367.386
L214.392 367.477
L214.392 367.591
L214.813 367.673
L214.917 367.803
L215.633 367.899
L215.633 367.926
L216.099 368.025
L216.099 368.068
L216.621 368.154
L216.621 368.195
L217.069 368.284
L217.069 368.31
L217.446 368.415
L217.446 368.425
L218.002 368.516
L218.032 368.544
L218.575 368.602
L218.664 368.661
L219.512 368.762
L219.54 368.816
L220.303 368.916
L220.386 368.992
L220.935 369.057
L221.043 369.159
L221.445 369.236
L221.524 369.348
L221.814 369.432
L221.814 369.486
L222.126 369.593
L222.126 369.62
L223.212 369.724
L223.262 369.752
L223.556 369.843
L223.581 369.94
L223.871 370.037
L223.871 370.166
L224.063 370.239
L224.063 370.279
L224.301 370.388
L224.301 370.402
L224.56 370.476
L224.583 370.573
L224.862 370.674
L224.931 370.72
L225.343 370.787
L225.343 370.89
L225.614 370.89
L225.659 371.04
L225.992 371.127
L226.059 371.273
L226.322 371.324
L226.387 371.444
L226.603 371.53
L226.647 371.616
L226.797 371.717
L226.797 371.735
L227.031 371.735
L227.115 372.008
L227.284 372.093
L227.284 372.142
L227.493 372.244
L227.555 372.339
L227.72 372.413
L227.72 372.461
L227.905 372.566
L227.966 372.659
L228.109 372.659
L228.21 372.843
L228.411 372.94
L228.511 373.105
L228.769 373.105
L228.769 373.358
L228.946 373.358
L229.044 373.647
L229.161 373.733
L229.239 373.869
L229.508 373.934
L229.508 374.176
L229.623 374.176
L229.642 374.346
L229.794 374.346
L229.87 374.655
L230.02 374.705
L230.02 374.856
L230.151 374.856
L230.245 375.138
L230.375 375.203
L230.485 375.437
L230.632 375.541
L230.742 375.731
L230.905 375.808
L231.014 376.019
L231.122 376.095
L231.122 376.136
L231.247 376.136
L231.336 376.366
L231.443 376.366
L231.549 376.62
L231.707 376.641
L231.707 376.794
L231.83 376.794
L231.917 377.01
L232.038 377.073
L232.073 377.163
L232.228 377.163
L232.296 377.376
L232.433 377.46
L232.484 377.55
L232.636 377.605
L232.738 377.768
L232.888 377.859
L232.989 377.984
L233.237 378
L233.336 378.324
L233.548 378.406
L233.646 378.521
L233.888 378.588
L233.968 378.689
L234.207 378.792
L234.222 378.854
L234.553 378.946
L234.6 379.125
L234.863 379.205
L234.971 379.296
L235.277 379.4
L235.383 379.454
L235.608 379.565
L235.698 379.608
L236.039 379.718
L236.141 379.83
L236.389 379.911
L236.433 380.006
L236.692 380.105
L236.792 380.25
L236.991 380.283
L237.048 380.465
L237.245 380.567
L237.343 380.717
L237.468 380.818
L237.551 380.894
L237.799 381.001
L237.908 381.144
L238.153 381.237
L238.247 381.359
L238.555 381.457
L238.648 381.495
L238.95 381.584
L239.042 381.64
L239.417 381.75
L239.494 381.775
L240 381.882
L240.025 381.899
L240.802 381.988
L240.911 382.042
L241.425 382.149
L241.425 382.192
L241.905 382.295
L241.987 382.333
L242.297 382.385
L242.365 382.479
L242.66 382.562
L242.761 382.618
L243.523 382.729
L243.631 382.805
L244.145 382.913
L244.23 382.955
L244.607 383.05
L244.649 383.09
L244.928 383.185
L245.02 383.256
L245.254 383.365
L245.315 383.427
L245.466 383.502
L245.556 383.619
L245.706 383.712
L245.805 383.851
L245.914 383.936
L245.983 384.053
L246.12 384.152
L246.16 384.274
L246.247 384.274
L246.354 384.517
L246.586 384.622
L246.682 384.878
L246.825 384.987
L246.882 385.091
L246.986 385.186
L247.014 385.237
L247.127 385.237
L247.221 385.462
L247.324 385.547
L247.417 385.684
L247.528 385.734
L247.546 385.826
L247.684 385.826
L247.767 386.085
L247.858 386.187
L247.968 386.345
L248.094 386.384
L248.149 386.601
L248.239 386.71
L248.346 386.861
L248.48 386.886
L248.586 387.179
L248.772 387.238
L248.877 387.543
L248.973 387.608
L249.077 387.802
L249.181 387.9
L249.285 388.07
L249.448 388.119
L249.542 388.435
L249.627 388.509
L249.72 388.683
L249.796 388.773
L249.88 388.928
L249.973 389.03
L250.073 389.216
L250.181 389.295
L250.181 389.385
L250.297 389.385
L250.404 389.736
L250.495 389.763
L250.593 390.037
L250.674 390.124
L250.747 390.276
L250.837 390.342
L250.917 390.539
L250.99 390.601
L251.078 390.775
L251.174 390.775
L251.269 391.029
L251.372 391.068
L251.467 391.256
L251.577 391.327
L251.671 391.478
L251.788 391.563
L251.889 391.714
L252.051 391.797
L252.159 392.034
L252.281 392.142
L252.319 392.225
L252.433 392.225
L252.532 392.472
L252.645 392.564
L252.727 392.653
L252.869 392.716
L252.958 392.836
L253.106 392.922
L253.173 393.004
L253.327 393.061
L253.436 393.217
L253.617 393.315
L253.725 393.406
L253.997 393.512
L254.104 393.646
L254.28 393.744
L254.385 393.831
L254.609 393.939
L254.713 394.03
L254.857 394.126
L254.946 394.224
L255.165 394.328
L255.253 394.473
L255.455 394.563
L255.535 394.66
L255.748 394.765
L255.854 394.824
L256.084 394.93
L256.188 395.021
L256.441 395.123
L256.55 395.216
L256.913 395.309
L256.989 395.357
L257.538 395.464
L257.648 395.497
L259.527 395.607
L259.612 395.614
L260.742 395.718
L260.834 395.754
L261.188 395.857
L261.267 395.898
L263.545 395.787
L263.651 395.754
L264.033 395.646
L264.118 395.605
L264.642 395.494
L264.748 395.489
L265.51 395.379
L265.617 395.352
L266.262 395.242
L266.34 395.236
L268.298 395.125
L268.39 395.07
L268.651 394.966
L268.749 394.92
L269.272 394.82
L269.371 394.79
L269.893 394.682
L269.986 394.657
L273.627 394.765
L273.733 394.793
L274.054 394.902
L274.121 394.955
L274.3 395.065
L274.397 395.129
L274.601 395.233
L274.712 395.317
L274.948 395.424
L275.033 395.468
L275.446 395.578
L275.553 395.61
L275.943 395.721
L276.031 395.759
L276.447 395.868
L276.544 395.913
L276.927 396.022
L277.009 396.037
L277.917 396.144
L278.025 396.185
L278.417 396.295
L278.526 396.341
L278.864 396.442
L278.967 396.488
L279.274 396.597
L279.381 396.639
L279.707 396.745
L279.805 396.792
L282.031 396.885
L282.031 396.922
L282.543 397.028
L282.65 397.067
L283.671 397.175
L283.671 397.198
L284.182 397.304
L284.286 397.347
L285.825 397.447
L285.825 397.463
L286.343 397.57
L286.441 397.631
L286.85 397.715
L286.951 397.776
L287.458 397.867
L287.562 397.925
L288.073 398.015
L288.177 398.073
L290.742 397.966
L290.842 397.93
L291.365 397.834
L291.456 397.785
L291.868 397.689
L291.974 397.607
L292.379 397.505
L292.483 397.424
L292.787 397.314
L292.893 397.213
L293.198 397.114
L293.198 397.053
L293.401 396.976
L293.505 396.866
L293.711 396.794
L293.711 396.714
L293.917 396.633
L294.017 396.509
L294.228 396.444
L294.325 396.302
L294.54 396.241
L294.631 396.141
L294.952 396.031
L295.04 395.935
L295.247 395.87
L295.346 395.732
L295.558 395.661
L295.654 395.512
L295.861 395.431
L295.961 395.269
L296.169 395.178
L296.271 395.011
L296.474 394.927
L296.582 394.767
L296.779 394.689
L296.885 394.562
L297.19 394.455
L297.299 394.372
L297.713 394.268
L297.808 394.181
L298.117 394.102
L298.217 394.016
L298.525 393.912
L298.631 393.858
L299.271 393.758
L299.343 393.71
L299.755 393.62
L299.755 393.586
L300.162 393.496
L300.269 393.457
L300.879 393.371
L300.981 393.313
L303.85 393.41
L303.949 393.484
L304.359 393.574
L304.47 393.632
L304.98 393.739
L305.077 393.813
L305.389 393.905
L305.487 393.998
L305.796 394.108
L305.896 394.232
L306.21 394.318
L306.306 394.397
L306.721 394.474
L306.819 394.55
L307.231 394.661
L307.333 394.751
L307.643 394.831
L307.741 394.924
L308.055 395.003
L308.159 395.068
L308.458 395.162
L308.564 395.261
L308.867 395.349
L308.867 395.402
L309.073 395.47
L309.175 395.606
L309.381 395.677
L309.481 395.773
L309.79 395.852
L309.891 395.907
L310.814 396.012
L310.814 396.028
L311.222 396.111
L311.325 396.173
L311.631 396.254
L311.735 396.332
L312.246 396.439
L312.354 396.508
L312.758 396.61
L312.864 396.668
L313.273 396.774
L313.374 396.837
L313.783 396.946
L313.891 397.026
L314.194 397.116
L314.295 397.222
L314.502 397.282
L314.602 397.401
L314.91 397.485
L315.012 397.598
L315.319 397.693
L315.421 397.793
L315.632 397.851
L315.73 397.957
L316.037 398.041
L316.146 398.116
L316.548 398.199
L316.653 398.266
L317.164 398.365
L317.265 398.419
L317.883 398.517
L317.992 398.573
L320.748 398.66
L320.851 398.734
L321.365 398.833
L321.469 398.893
L321.874 398.995
L321.978 399.083
L322.287 399.174
L322.387 399.28
L322.592 399.334
L322.695 399.449
L323.003 399.539
L323.104 399.632
L323.309 399.695
L323.412 399.829
L323.616 399.91
L323.718 400.09
L323.924 400.181
L324.026 400.354
L324.231 400.437
L324.334 400.569
L324.538 400.625
L324.641 400.739
L324.951 400.843
L325.05 400.955
L325.255 401.016
L325.359 401.124
L325.87 401.223
L325.974 401.265
L326.486 401.372
L326.586 401.454
L326.893 401.556
L326.998 401.626
L327.406 401.722
L327.509 401.806
L327.815 401.882
L327.921 401.95
L328.328 402.034
L328.431 402.095
L328.839 402.189
L328.944 402.259
L329.456 402.35
L329.557 402.412
L329.864 402.49
L329.966 402.573
L330.277 402.659
L330.377 402.749
L330.683 402.86
L330.786 402.953
L331.093 403.061
L331.195 403.166
L331.505 403.266
L331.606 403.369
L331.912 403.455
L332.016 403.535
L332.528 403.638
L332.629 403.676
L333.655 403.786
L333.765 403.847
L334.168 403.951
L334.268 404.016
L334.679 404.1
L334.781 404.149
L335.6 404.257
L335.704 404.28
L337.444 404.37
L337.553 404.435
L338.98 404.348
L339.082 404.287
L339.392 404.206
L339.492 404.115
L339.902 404.007
L340.004 403.919
L340.312 403.832
L340.415 403.756
L340.721 403.672
L340.824 403.571
L341.03 403.515
L341.131 403.396
L341.336 403.33
L341.44 403.198
L341.643 403.134
L341.745 402.999
L341.95 402.922
L342.053 402.754
L342.258 402.664
L342.36 402.481
L342.565 402.389
L342.667 402.219
L342.875 402.141
L342.978 401.982
L343.181 401.913
L343.282 401.765
L343.487 401.687
L343.59 401.567
L343.794 401.514
L343.897 401.385
L344.104 401.31
L344.204 401.177
L344.512 401.083
L344.613 401.003
L344.922 400.929
L345.024 400.856
L345.433 400.747
L345.535 400.663
L345.74 400.603
L345.843 400.459
L346.047 400.385
L346.151 400.252
L346.355 400.191
L346.458 400.035
L346.662 399.959
L346.765 399.795
L346.973 399.706
L347.072 399.529
L347.278 399.433
L347.38 399.237
L347.584 399.135
L347.687 398.954
L347.893 398.876
L347.994 398.703
L348.2 398.619
L348.302 398.449
L348.506 398.376
L348.608 398.234
L348.813 398.167
L348.917 398.027
L349.12 397.958
L349.223 397.821
L349.428 397.739
L349.53 397.612
L349.735 397.551
L349.838 397.435
L350.043 397.372
L350.145 397.23
L350.351 397.145
L350.453 396.996
L350.657 396.925
L350.761 396.828
L351.169 396.726
L351.271 396.653
L351.579 396.572
L351.681 396.487
L351.988 396.401
L352.093 396.31
L352.297 396.26
L352.398 396.127
L352.604 396.044
L352.705 395.884
L352.911 395.805
L353.014 395.637
L353.218 395.555
L353.32 395.403
L353.525 395.334
L353.627 395.186
L353.832 395.113
L353.935 394.976
L354.139 394.916
L354.242 394.788
L354.448 394.724
L354.55 394.605
L354.857 394.499
L354.959 394.387
L355.266 394.277
L355.368 394.181
L355.778 394.093
L355.881 394.021
L357.315 394.13
L357.419 394.193
L357.724 394.277
L357.827 394.358
L358.237 394.461
L358.339 394.53
L361.412 394.423
L361.514 394.385
L362.129 394.292
L362.231 394.247
L362.847 394.141
L362.948 394.099
L363.46 393.996
L363.563 393.93
L364.076 393.833
L364.178 393.791
L365.816 393.883
L365.919 393.933
L366.431 394.035
L366.533 394.087
L366.943 394.196
L367.046 394.296
L367.353 394.405
L367.455 394.518
L367.661 394.581
L367.763 394.706
L367.968 394.773
L368.07 394.918
L368.275 394.991
L368.377 395.138
L368.582 395.215
L368.685 395.365
L368.89 395.435
L368.992 395.57
L369.197 395.637
L369.299 395.75
L369.504 395.811
L369.606 395.938
L369.811 396.008
L369.915 396.144
L370.119 396.205
L370.221 396.333
L370.426 396.402
L370.529 396.534
L370.733 396.594
L370.836 396.709
L371.04 396.765
L371.143 396.89
L371.45 396.981
L371.553 397.065
L371.86 397.15
L371.962 397.236
L372.269 397.341
L372.372 397.471
L372.577 397.54
L372.679 397.661
L372.986 397.745
L373.09 397.835
L373.396 397.931
L373.498 398.031
L373.806 398.118
L373.908 398.164
L375.65 398.258
L375.753 398.292
L378.109 398.188
L378.21 398.13
L378.722 398.035
L378.825 397.994
L379.644 397.888
L379.747 397.85
L380.259 397.753
L380.362 397.701
L380.873 397.592
L380.976 397.523
L381.386 397.438
L381.488 397.376
L383.844 397.483
L383.947 397.503
L387.02 397.42
L387.122 397.352
L387.429 397.27
L387.531 397.188
L387.839 397.1
L387.941 397.015
L388.249 396.943
L388.351 396.854
L388.658 396.75
L388.76 396.666
L389.068 396.591
L389.17 396.525
L389.785 396.421
L389.887 396.392
L390.604 396.284
L390.707 396.262
L391.936 396.159
L392.038 396.105
L392.448 395.997
L392.55 395.933
L392.96 395.85
L393.062 395.785
L393.472 395.698
L393.575 395.621
L393.984 395.519
L394.087 395.452
L396.238 395.548
L396.34 395.584
L398.798 395.693
L398.901 395.779
L399.208 395.861
L399.311 395.96
L399.618 396.049
L399.72 396.129
L401.871 396.02
L401.974 395.952
L402.281 395.865
L402.384 395.778
L402.793 395.681
L402.896 395.614
L404.739 395.51
L404.842 395.488
L405.559 395.386
L405.661 395.341
L406.173 395.259
L406.276 395.198
L406.788 395.087
L406.89 395.046
L407.403 394.937
L407.505 394.889
L408.734 394.793
L408.837 394.759
L409.554 394.661
L409.656 394.615
L410.988 394.505
L411.09 394.487
L411.705 394.396
L411.807 394.346
L412.217 394.264
L412.319 394.2
L413.036 394.103
L413.139 394.061
L413.856 393.955
L413.958 393.93
L416.826 394.038
L416.928 394.061
L418.362 393.966
L418.465 393.93
L418.977 393.824
L419.079 393.791
L419.796 393.7
L419.899 393.66
L421.538 393.556
L421.64 393.538
L423.484 393.435
L423.586 393.373
L424.201 393.262
L424.303 393.193
L424.713 393.116
L424.816 393.043
L425.123 392.951
L425.225 392.845
L425.532 392.774
L425.635 392.695
L426.147 392.587
L426.25 392.522
L426.659 392.437
L426.762 392.378
L427.171 392.287
L427.274 392.219
L427.581 392.131
L427.684 392.056
L427.991 391.979
L428.093 391.903
L428.401 391.816
L428.503 391.73
L428.81 391.642
L428.913 391.553
L429.22 391.455
L429.323 391.361
L429.63 391.273
L429.732 391.195
L430.039 391.112
L430.142 391.038
L430.552 390.932
L430.654 390.852
L430.961 390.77
L431.064 390.696
L431.371 390.6
L431.473 390.506
L431.781 390.418
L431.883 390.319
L432.19 390.209
L432.293 390.097
L432.6 389.986
L432.703 389.873
L432.907 389.815
L433.01 389.704
L433.317 389.612
L433.42 389.514
L433.727 389.408
L433.829 389.286
L434.034 389.227
L434.137 389.118
L434.444 389.032
L434.546 388.942
L434.854 388.846
L434.956 388.757
L435.263 388.665
L435.366 388.583
L435.673 388.489
L435.775 388.388
L436.083 388.303
L436.185 388.221
L436.697 388.111
L436.8 388.067
L437.209 387.961
L437.312 387.864
L437.824 387.757
L437.926 387.728
L440.078 387.832
L440.18 387.904
L440.692 388.009
L440.795 388.064
L441.307 388.161
L441.409 388.189
L442.741 388.287
L442.843 388.332
L443.56 388.414
L443.663 388.474
L444.277 388.569
L444.38 388.622
L444.892 388.723
L444.994 388.772
L445.404 388.875
L445.506 388.93
L446.018 389.021
L446.121 389.067
L446.531 389.161
L446.633 389.243
L446.94 389.32
L447.043 389.405
L447.35 389.485
L447.452 389.559
L448.374 389.662
L448.477 389.682
L449.194 389.788
L449.296 389.857
L449.706 389.967
L449.808 390.044
L450.116 390.122
L450.218 390.193
L450.73 390.296
L450.833 390.328
L451.345 390.411
L451.447 390.471
L451.959 390.565
L452.062 390.604
L452.676 390.715
L452.779 390.746
L454.52 390.852
L454.622 390.881
L455.135 390.984
L455.237 391.039
L455.647 391.142
L455.749 391.208
L456.159 391.317
L456.261 391.387
L456.773 391.494
L456.876 391.542
L457.286 391.633
L457.388 391.696
L458.207 391.805
L458.31 391.83
L459.334 391.935
L459.437 391.96
L459.846 392.045
L459.949 392.121
L460.256 392.199
L460.359 392.286
L460.666 392.382
L460.768 392.466
L461.28 392.561
L461.383 392.598
L461.793 392.678
L461.895 392.738
L462.407 392.844
L462.51 392.892
L463.227 392.997
L463.329 393.016
L466.402 392.911
L466.504 392.843
L466.812 392.768
L466.914 392.683
L467.221 392.601
L467.324 392.542
L467.938 392.434
L468.041 392.371
L468.348 392.287
L468.45 392.198
L468.758 392.123
L468.86 392.039
L469.167 391.956
L469.27 391.854
L469.475 391.797
L469.577 391.673
L469.782 391.61
L469.884 391.483
L470.089 391.423
L470.192 391.306
L470.499 391.198
L470.601 391.098
L470.806 391.038
L470.909 390.903
L471.114 390.828
L471.216 390.687
L471.421 390.621
L471.523 390.49
L471.728 390.428
L471.831 390.304
L472.035 390.246
L472.138 390.137
L472.343 390.082
L472.445 389.973
L472.752 389.877
L472.855 389.789
L473.162 389.692
L473.265 389.61
L473.572 389.536
L473.674 389.459
L474.084 389.381
L474.186 389.316
L474.699 389.214
L474.801 389.166
L475.416 389.065
L475.518 389.034
L476.337 388.934
L476.44 388.868
L476.747 388.795
L476.85 388.721
L477.259 388.613
L477.362 388.556
L477.874 388.465
L477.976 388.411
L478.591 388.316
L478.693 388.269
L479.308 388.168
L479.41 388.107
L479.718 388.016
L479.82 387.93
L480.127 387.837
L480.23 387.763
L480.64 387.663
L480.742 387.577
L481.049 387.481
L481.152 387.387
L481.459 387.294
L481.561 387.184
L481.869 387.078
L481.971 386.97
L482.278 386.875
L482.381 386.789
L482.688 386.696
L482.791 386.593
L483.098 386.488
L483.2 386.386
L483.508 386.279
L483.61 386.18
L483.917 386.073
L484.02 385.974
L484.327 385.897
L484.429 385.829
L484.737 385.753
L484.839 385.668
L485.044 385.612
L485.146 385.495
L485.454 385.396
L485.556 385.313
L485.863 385.238
L485.966 385.16
L486.376 385.057
L486.478 385.003
L486.99 384.897
L487.093 384.841
L487.605 384.731
L487.707 384.691
L489.039 384.59
L489.141 384.567
L490.37 384.461
L490.473 384.401
L490.882 384.311
L490.985 384.263
L491.497 384.162
L491.599 384.128
L493.853 384.227
L493.955 384.259
L494.672 384.356
L494.775 384.424
L495.184 384.522
L495.287 384.589
L495.697 384.688
L495.799 384.76
L496.209 384.867
L496.311 384.949
L496.721 385.051
L496.823 385.113
L497.438 385.223
L497.54 385.251
L498.257 385.35
L498.36 385.389
L499.282 385.497
L499.384 385.523
L501.433 385.412
L501.535 385.352
L501.945 385.252
L502.047 385.192
L502.457 385.093
L502.559 385.038
L503.276 384.93
L503.379 384.906
L504.506 384.797
L504.608 384.76
L505.735 384.652
L505.837 384.639
L508.705 384.746
L508.808 384.774
L511.471 384.673
L511.573 384.641
L512.085 384.559
L512.188 384.501
L512.7 384.402
L512.802 384.372
L515.158 384.455
L515.261 384.512
L515.67 384.599
L515.773 384.663
L516.183 384.746
L516.285 384.804
L516.695 384.901
L516.797 384.967
L517.412 385.071
L517.514 385.09
L518.334 385.197
L518.436 385.223
L519.358 385.333
L519.46 385.344
L522.021 385.447
L522.123 385.49
L522.636 385.596
L522.738 385.641
L523.762 385.749
L523.865 385.788
L524.479 385.896
L524.582 385.936
L526.733 385.833
L526.835 385.771
L527.245 385.671
L527.347 385.616
L527.757 385.522
L527.859 385.455
L528.167 385.377
L528.269 385.302
L528.576 385.219
L528.679 385.132
L528.986 385.04
L529.089 384.949
L529.396 384.864
L529.498 384.792
L529.908 384.691
L530.01 384.62
L530.42 384.526
L530.523 384.466
L530.932 384.376
L531.035 384.301
L531.444 384.197
L531.547 384.136
L532.059 384.037
L532.162 384.003
L533.083 383.902
L533.186 383.882
L533.903 383.793
L534.005 383.748
L534.722 383.643
L534.825 383.61
L535.337 383.519
L535.439 383.477
L536.156 383.367
L536.259 383.361
L540.868 383.264
L540.97 383.231
L541.687 383.138
L541.79 383.104
L545.887 382.998
L545.989 382.97
L547.526 382.886
L547.526 382.887" style="fill:none;stroke:#0000ff;stroke-width:5.0;"/>
   </g>
   <g id="matplotlib.axis_1">
    <g id="xtick_1">
     <g id="line2d_2">
      <path d="
M158.947 412.239
L158.947 8.51291" style="fill:none;stroke:#000000;stroke-dasharray:1.000000,3.000000;stroke-dashoffset:0.0;stroke-linecap:butt;stroke-width:0.5;"/>
     </g>
     <g id="line2d_3">
      <defs>
       <path d="
M0 0
L0 -4" id="m3fbe6c24f1"/>
      </defs>
      <g>
       <use style="stroke:#000000;stroke-linecap:butt;stroke-width:0.5;" x="158.947029318" xlink:href="#m3fbe6c24f1" y="16.276875"/>
      </g>
     </g>
     <g id="text_1">
      <!-- 5 -->
      <defs>
       <path d="
M10.7969 72.9062
L49.5156 72.9062
L49.5156 64.5938
L19.8281 64.5938
L19.8281 46.7344
Q21.9688 47.4688 24.1094 47.8281
Q26.2656 48.1875 28.4219 48.1875
Q40.625 48.1875 47.75 41.5
Q54.8906 34.8125 54.8906 23.3906
Q54.8906 11.625 47.5625 5.09375
Q40.2344 -1.42188 26.9062 -1.42188
Q22.3125 -1.42188 17.5469 -0.640625
Q12.7969 0.140625 7.71875 1.70312
L7.71875 11.625
Q12.1094 9.23438 16.7969 8.0625
Q21.4844 6.89062 26.7031 6.89062
Q35.1562 6.89062 40.0781 11.3281
Q45.0156 15.7656 45.0156 23.3906
Q45.0156 31 40.0781 35.4375
Q35.1562 39.8906 26.7031 39.8906
Q22.75 39.8906 18.8125 39.0156
Q14.8906 38.1406 10.7969 36.2812
z
" id="BitstreamVeraSans-Roman-35"/>
      </defs>
      <g transform="translate(153.286404318 37.774375)scale(0.24 -0.24)">
       <use xlink:href="#BitstreamVeraSans-Roman-35"/>
      </g>
     </g>
    </g>
    <g id="xtick_2">
     <g id="line2d_4">
      <path d="
M282.515 412.239
L282.515 8.51291" style="fill:none;stroke:#000000;stroke-dasharray:1.000000,3.000000;stroke-dashoffset:0.0;stroke-linecap:butt;stroke-width:0.5;"/>
     </g>
     <g id="line2d_5">
      <defs>
       <path d="
M0 0
L0 -4" id="m3fbe6c24f1"/>
      </defs>
      <g>
       <use style="stroke:#000000;stroke-linecap:butt;stroke-width:0.5;" x="282.515151148" xlink:href="#m3fbe6c24f1" y="16.276875"/>
      </g>
     </g>
     <g id="text_2">
      <!-- 10 -->
      <defs>
       <path d="
M31.7812 66.4062
Q24.1719 66.4062 20.3281 58.9062
Q16.5 51.4219 16.5 36.375
Q16.5 21.3906 20.3281 13.8906
Q24.1719 6.39062 31.7812 6.39062
Q39.4531 6.39062 43.2812 13.8906
Q47.125 21.3906 47.125 36.375
Q47.125 51.4219 43.2812 58.9062
Q39.4531 66.4062 31.7812 66.4062
M31.7812 74.2188
Q44.0469 74.2188 50.5156 64.5156
Q56.9844 54.8281 56.9844 36.375
Q56.9844 17.9688 50.5156 8.26562
Q44.0469 -1.42188 31.7812 -1.42188
Q19.5312 -1.42188 13.0625 8.26562
Q6.59375 17.9688 6.59375 36.375
Q6.59375 54.8281 13.0625 64.5156
Q19.5312 74.2188 31.7812 74.2188" id="BitstreamVeraSans-Roman-30"/>
       <path d="
M12.4062 8.29688
L28.5156 8.29688
L28.5156 63.9219
L10.9844 60.4062
L10.9844 69.3906
L28.4219 72.9062
L38.2812 72.9062
L38.2812 8.29688
L54.3906 8.29688
L54.3906 0
L12.4062 0
z
" id="BitstreamVeraSans-Roman-31"/>
      </defs>
      <g transform="translate(269.360151148 38.089375)scale(0.24 -0.24)">
       <use xlink:href="#BitstreamVeraSans-Roman-31"/>
       <use x="63.623046875" xlink:href="#BitstreamVeraSans-Roman-30"/>
      </g>
     </g>
    </g>
    <g id="xtick_3">
     <g id="line2d_6">
      <path d="
M406.083 412.239
L406.083 8.51291" style="fill:none;stroke:#000000;stroke-dasharray:1.000000,3.000000;stroke-dashoffset:0.0;stroke-linecap:butt;stroke-width:0.5;"/>
     </g>
     <g id="line2d_7">
      <defs>
       <path d="
M0 0
L0 -4" id="m3fbe6c24f1"/>
      </defs>
      <g>
       <use style="stroke:#000000;stroke-linecap:butt;stroke-width:0.5;" x="406.083272978" xlink:href="#m3fbe6c24f1" y="16.276875"/>
      </g>
     </g>
     <g id="text_3">
      <!-- 15 -->
      <g transform="translate(393.179522978 37.774375)scale(0.24 -0.24)">
       <use xlink:href="#BitstreamVeraSans-Roman-31"/>
       <use x="63.623046875" xlink:href="#BitstreamVeraSans-Roman-35"/>
      </g>
     </g>
    </g>
    <g id="xtick_4">
     <g id="line2d_8">
      <path d="
M529.651 412.239
L529.651 8.51291" style="fill:none;stroke:#000000;stroke-dasharray:1.000000,3.000000;stroke-dashoffset:0.0;stroke-linecap:butt;stroke-width:0.5;"/>
     </g>
     <g id="line2d_9">
      <defs>
       <path d="
M0 0
L0 -4" id="m3fbe6c24f1"/>
      </defs>
      <g>
       <use style="stroke:#000000;stroke-linecap:butt;stroke-width:0.5;" x="529.651394807" xlink:href="#m3fbe6c24f1" y="16.276875"/>
      </g>
     </g>
     <g id="text_4">
      <!-- 20 -->
      <defs>
       <path d="
M19.1875 8.29688
L53.6094 8.29688
L53.6094 0
L7.32812 0
L7.32812 8.29688
Q12.9375 14.1094 22.625 23.8906
Q32.3281 33.6875 34.8125 36.5312
Q39.5469 41.8438 41.4219 45.5312
Q43.3125 49.2188 43.3125 52.7812
Q43.3125 58.5938 39.2344 62.25
Q35.1562 65.9219 28.6094 65.9219
Q23.9688 65.9219 18.8125 64.3125
Q13.6719 62.7031 7.8125 59.4219
L7.8125 69.3906
Q13.7656 71.7812 18.9375 73
Q24.125 74.2188 28.4219 74.2188
Q39.75 74.2188 46.4844 68.5469
Q53.2188 62.8906 53.2188 53.4219
Q53.2188 48.9219 51.5312 44.8906
Q49.8594 40.875 45.4062 35.4062
Q44.1875 33.9844 37.6406 27.2188
Q31.1094 20.4531 19.1875 8.29688" id="BitstreamVeraSans-Roman-32"/>
      </defs>
      <g transform="translate(516.057644807 38.089375)scale(0.24 -0.24)">
       <use xlink:href="#BitstreamVeraSans-Roman-32"/>
       <use x="63.623046875" xlink:href="#BitstreamVeraSans-Roman-30"/>
      </g>
     </g>
    </g>
    <g id="xtick_5">
     <g id="line2d_10">
      <defs>
       <path d="
M0 0
L0 -2" id="mf0ff38ea95"/>
      </defs>
      <g>
       <use style="stroke:#000000;stroke-linecap:butt;stroke-width:0.5;" x="60.0925318537" xlink:href="#mf0ff38ea95" y="16.276875"/>
      </g>
     </g>
    </g>
    <g id="xtick_6">
     <g id="line2d_11">
      <defs>
       <path d="
M0 0
L0 -2" id="mf0ff38ea95"/>
      </defs>
      <g>
       <use style="stroke:#000000;stroke-linecap:butt;stroke-width:0.5;" x="84.8061562197" xlink:href="#mf0ff38ea95" y="16.276875"/>
      </g>
     </g>
    </g>
    <g id="xtick_7">
     <g id="line2d_12">
      <defs>
       <path d="
M0 0
L0 -2" id="mf0ff38ea95"/>
      </defs>
      <g>
       <use style="stroke:#000000;stroke-linecap:butt;stroke-width:0.5;" x="109.519780586" xlink:href="#mf0ff38ea95" y="16.276875"/>
      </g>
     </g>
    </g>
    <g id="xtick_8">
     <g id="line2d_13">
      <defs>
       <path d="
M0 0
L0 -2" id="mf0ff38ea95"/>
      </defs>
      <g>
       <use style="stroke:#000000;stroke-linecap:butt;stroke-width:0.5;" x="134.233404952" xlink:href="#mf0ff38ea95" y="16.276875"/>
      </g>
     </g>
    </g>
    <g id="xtick_9">
     <g id="line2d_14">
      <defs>
       <path d="
M0 0
L0 -2" id="mf0ff38ea95"/>
      </defs>
      <g>
       <use style="stroke:#000000;stroke-linecap:butt;stroke-width:0.5;" x="183.660653684" xlink:href="#mf0ff38ea95" y="16.276875"/>
      </g>
     </g>
    </g>
    <g id="xtick_10">
     <g id="line2d_15">
      <defs>
       <path d="
M0 0
L0 -2" id="mf0ff38ea95"/>
      </defs>
      <g>
       <use style="stroke:#000000;stroke-linecap:butt;stroke-width:0.5;" x="208.37427805" xlink:href="#mf0ff38ea95" y="16.276875"/>
      </g>
     </g>
    </g>
    <g id="xtick_11">
     <g id="line2d_16">
      <defs>
       <path d="
M0 0
L0 -2" id="mf0ff38ea95"/>
      </defs>
      <g>
       <use style="stroke:#000000;stroke-linecap:butt;stroke-width:0.5;" x="233.087902416" xlink:href="#mf0ff38ea95" y="16.276875"/>
      </g>
     </g>
    </g>
    <g id="xtick_12">
     <g id="line2d_17">
      <defs>
       <path d="
M0 0
L0 -2" id="mf0ff38ea95"/>
      </defs>
      <g>
       <use style="stroke:#000000;stroke-linecap:butt;stroke-width:0.5;" x="257.801526782" xlink:href="#mf0ff38ea95" y="16.276875"/>
      </g>
     </g>
    </g>
    <g id="xtick_13">
     <g id="line2d_18">
      <defs>
       <path d="
M0 0
L0 -2" id="mf0ff38ea95"/>
      </defs>
      <g>
       <use style="stroke:#000000;stroke-linecap:butt;stroke-width:0.5;" x="307.228775514" xlink:href="#mf0ff38ea95" y="16.276875"/>
      </g>
     </g>
    </g>
    <g id="xtick_14">
     <g id="line2d_19">
      <defs>
       <path d="
M0 0
L0 -2" id="mf0ff38ea95"/>
      </defs>
      <g>
       <use style="stroke:#000000;stroke-linecap:butt;stroke-width:0.5;" x="331.94239988" xlink:href="#mf0ff38ea95" y="16.276875"/>
      </g>
     </g>
    </g>
    <g id="xtick_15">
     <g id="line2d_20">
      <defs>
       <path d="
M0 0
L0 -2" id="mf0ff38ea95"/>
      </defs>
      <g>
       <use style="stroke:#000000;stroke-linecap:butt;stroke-width:0.5;" x="356.656024246" xlink:href="#mf0ff38ea95" y="16.276875"/>
      </g>
     </g>
    </g>
    <g id="xtick_16">
     <g id="line2d_21">
      <defs>
       <path d="
M0 0
L0 -2" id="mf0ff38ea95"/>
      </defs>
      <g>
       <use style="stroke:#000000;stroke-linecap:butt;stroke-width:0.5;" x="381.369648612" xlink:href="#mf0ff38ea95" y="16.276875"/>
      </g>
     </g>
    </g>
    <g id="xtick_17">
     <g id="line2d_22">
      <defs>
       <path d="
M0 0
L0 -2" id="mf0ff38ea95"/>
      </defs>
      <g>
       <use style="stroke:#000000;stroke-linecap:butt;stroke-width:0.5;" x="430.796897344" xlink:href="#mf0ff38ea95" y="16.276875"/>
      </g>
     </g>
    </g>
    <g id="xtick_18">
     <g id="line2d_23">
      <defs>
       <path d="
M0 0
L0 -2" id="mf0ff38ea95"/>
      </defs>
      <g>
       <use style="stroke:#000000;stroke-linecap:butt;stroke-width:0.5;" x="455.510521709" xlink:href="#mf0ff38ea95" y="16.276875"/>
      </g>
     </g>
    </g>
    <g id="xtick_19">
     <g id="line2d_24">
      <defs>
       <path d="
M0 0
L0 -2" id="mf0ff38ea95"/>
      </defs>
      <g>
       <use style="stroke:#000000;stroke-linecap:butt;stroke-width:0.5;" x="480.224146075" xlink:href="#mf0ff38ea95" y="16.276875"/>
      </g>
     </g>
    </g>
    <g id="xtick_20">
     <g id="line2d_25">
      <defs>
       <path d="
M0 0
L0 -2" id="mf0ff38ea95"/>
      </defs>
      <g>
       <use style="stroke:#000000;stroke-linecap:butt;stroke-width:0.5;" x="504.937770441" xlink:href="#mf0ff38ea95" y="16.276875"/>
      </g>
     </g>
    </g>
   </g>
   <g id="matplotlib.axis_2">
    <g id="ytick_1">
     <g id="line2d_26">
      <path d="
M42.6088 398.519
L557.426 398.519" style="fill:none;stroke:#000000;stroke-dasharray:1.000000,3.000000;stroke-dashoffset:0.0;stroke-linecap:butt;stroke-width:0.5;"/>
     </g>
     <g id="line2d_27">
      <defs>
       <path d="
M0 0
L4 0" id="mc91e532072"/>
      </defs>
      <g>
       <use style="stroke:#000000;stroke-linecap:butt;stroke-width:0.5;" x="32.60875" xlink:href="#mc91e532072" y="398.519202796"/>
      </g>
     </g>
     <g id="text_5">
      <!-- -4 -->
      <defs>
       <path d="
M4.89062 31.3906
L31.2031 31.3906
L31.2031 23.3906
L4.89062 23.3906
z
" id="BitstreamVeraSans-Roman-2d"/>
       <path d="
M37.7969 64.3125
L12.8906 25.3906
L37.7969 25.3906
z

M35.2031 72.9062
L47.6094 72.9062
L47.6094 25.3906
L58.0156 25.3906
L58.0156 17.1875
L47.6094 17.1875
L47.6094 0
L37.7969 0
L37.7969 17.1875
L4.89062 17.1875
L4.89062 26.7031
z
" id="BitstreamVeraSans-Roman-34"/>
      </defs>
      <g transform="translate(7.2 407.267952796)scale(0.24 -0.24)">
       <use xlink:href="#BitstreamVeraSans-Roman-2d"/>
       <use x="36.083984375" xlink:href="#BitstreamVeraSans-Roman-34"/>
      </g>
     </g>
    </g>
    <g id="ytick_2">
     <g id="line2d_28">
      <path d="
M42.6088 302.959
L557.426 302.959" style="fill:none;stroke:#000000;stroke-dasharray:1.000000,3.000000;stroke-dashoffset:0.0;stroke-linecap:butt;stroke-width:0.5;"/>
     </g>
     <g id="line2d_29">
      <defs>
       <path d="
M0 0
L4 0" id="mc91e532072"/>
      </defs>
      <g>
       <use style="stroke:#000000;stroke-linecap:butt;stroke-width:0.5;" x="32.60875" xlink:href="#mc91e532072" y="302.958620847"/>
      </g>
     </g>
     <g id="text_6">
      <!-- -3 -->
      <defs>
       <path d="
M40.5781 39.3125
Q47.6562 37.7969 51.625 33
Q55.6094 28.2188 55.6094 21.1875
Q55.6094 10.4062 48.1875 4.48438
Q40.7656 -1.42188 27.0938 -1.42188
Q22.5156 -1.42188 17.6562 -0.515625
Q12.7969 0.390625 7.625 2.20312
L7.625 11.7188
Q11.7188 9.32812 16.5938 8.10938
Q21.4844 6.89062 26.8125 6.89062
Q36.0781 6.89062 40.9375 10.5469
Q45.7969 14.2031 45.7969 21.1875
Q45.7969 27.6406 41.2812 31.2656
Q36.7656 34.9062 28.7188 34.9062
L20.2188 34.9062
L20.2188 43.0156
L29.1094 43.0156
Q36.375 43.0156 40.2344 45.9219
Q44.0938 48.8281 44.0938 54.2969
Q44.0938 59.9062 40.1094 62.9062
Q36.1406 65.9219 28.7188 65.9219
Q24.6562 65.9219 20.0156 65.0312
Q15.375 64.1562 9.8125 62.3125
L9.8125 71.0938
Q15.4375 72.6562 20.3438 73.4375
Q25.25 74.2188 29.5938 74.2188
Q40.8281 74.2188 47.3594 69.1094
Q53.9062 64.0156 53.9062 55.3281
Q53.9062 49.2656 50.4375 45.0938
Q46.9688 40.9219 40.5781 39.3125" id="BitstreamVeraSans-Roman-33"/>
      </defs>
      <g transform="translate(7.7775 311.694245847)scale(0.24 -0.24)">
       <use xlink:href="#BitstreamVeraSans-Roman-2d"/>
       <use x="36.083984375" xlink:href="#BitstreamVeraSans-Roman-33"/>
      </g>
     </g>
    </g>
    <g id="ytick_3">
     <g id="line2d_30">
      <path d="
M42.6088 207.398
L557.426 207.398" style="fill:none;stroke:#000000;stroke-dasharray:1.000000,3.000000;stroke-dashoffset:0.0;stroke-linecap:butt;stroke-width:0.5;"/>
     </g>
     <g id="line2d_31">
      <defs>
       <path d="
M0 0
L4 0" id="mc91e532072"/>
      </defs>
      <g>
       <use style="stroke:#000000;stroke-linecap:butt;stroke-width:0.5;" x="32.60875" xlink:href="#mc91e532072" y="207.398038898"/>
      </g>
     </g>
     <g id="text_7">
      <!-- -2 -->
      <g transform="translate(8.2575 216.304288898)scale(0.24 -0.24)">
       <use xlink:href="#BitstreamVeraSans-Roman-2d"/>
       <use x="36.083984375" xlink:href="#BitstreamVeraSans-Roman-32"/>
      </g>
     </g>
    </g>
    <g id="ytick_4">
     <g id="line2d_32">
      <path d="
M42.6088 111.837
L557.426 111.837" style="fill:none;stroke:#000000;stroke-dasharray:1.000000,3.000000;stroke-dashoffset:0.0;stroke-linecap:butt;stroke-width:0.5;"/>
     </g>
     <g id="line2d_33">
      <defs>
       <path d="
M0 0
L4 0" id="mc91e532072"/>
      </defs>
      <g>
       <use style="stroke:#000000;stroke-linecap:butt;stroke-width:0.5;" x="32.60875" xlink:href="#mc91e532072" y="111.837456949"/>
      </g>
     </g>
     <g id="text_8">
      <!-- -1 -->
      <g transform="translate(8.07 120.586206949)scale(0.24 -0.24)">
       <use xlink:href="#BitstreamVeraSans-Roman-2d"/>
       <use x="36.083984375" xlink:href="#BitstreamVeraSans-Roman-31"/>
      </g>
     </g>
    </g>
    <g id="ytick_5">
     <g id="line2d_34">
      <path d="
M42.6088 16.2769
L557.426 16.2769" style="fill:none;stroke:#000000;stroke-dasharray:1.000000,3.000000;stroke-dashoffset:0.0;stroke-linecap:butt;stroke-width:0.5;"/>
     </g>
     <g id="line2d_35">
      <defs>
       <path d="
M0 0
L4 0" id="mc91e532072"/>
      </defs>
      <g>
       <use style="stroke:#000000;stroke-linecap:butt;stroke-width:0.5;" x="32.60875" xlink:href="#mc91e532072" y="16.276875"/>
      </g>
     </g>
     <g id="text_9">
      <!-- 0 -->
      <g transform="translate(16.515 25.0125)scale(0.24 -0.24)">
       <use xlink:href="#BitstreamVeraSans-Roman-30"/>
      </g>
     </g>
    </g>
    <g id="ytick_6">
     <g id="line2d_36">
      <defs>
       <path d="
M0 0
L2 0" id="m0789224b6b"/>
      </defs>
      <g>
       <use style="stroke:#000000;stroke-linecap:butt;stroke-width:0.5;" x="32.60875" xlink:href="#m0789224b6b" y="379.407086406"/>
      </g>
     </g>
    </g>
    <g id="ytick_7">
     <g id="line2d_37">
      <defs>
       <path d="
M0 0
L2 0" id="m0789224b6b"/>
      </defs>
      <g>
       <use style="stroke:#000000;stroke-linecap:butt;stroke-width:0.5;" x="32.60875" xlink:href="#m0789224b6b" y="360.294970016"/>
      </g>
     </g>
    </g>
    <g id="ytick_8">
     <g id="line2d_38">
      <defs>
       <path d="
M0 0
L2 0" id="m0789224b6b"/>
      </defs>
      <g>
       <use style="stroke:#000000;stroke-linecap:butt;stroke-width:0.5;" x="32.60875" xlink:href="#m0789224b6b" y="341.182853627"/>
      </g>
     </g>
    </g>
    <g id="ytick_9">
     <g id="line2d_39">
      <defs>
       <path d="
M0 0
L2 0" id="m0789224b6b"/>
      </defs>
      <g>
       <use style="stroke:#000000;stroke-linecap:butt;stroke-width:0.5;" x="32.60875" xlink:href="#m0789224b6b" y="322.070737237"/>
      </g>
     </g>
    </g>
    <g id="ytick_10">
     <g id="line2d_40">
      <defs>
       <path d="
M0 0
L2 0" id="m0789224b6b"/>
      </defs>
      <g>
       <use style="stroke:#000000;stroke-linecap:butt;stroke-width:0.5;" x="32.60875" xlink:href="#m0789224b6b" y="283.846504457"/>
      </g>
     </g>
    </g>
    <g id="ytick_11">
     <g id="line2d_41">
      <defs>
       <path d="
M0 0
L2 0" id="m0789224b6b"/>
      </defs>
      <g>
       <use style="stroke:#000000;stroke-linecap:butt;stroke-width:0.5;" x="32.60875" xlink:href="#m0789224b6b" y="264.734388067"/>
      </g>
     </g>
    </g>
    <g id="ytick_12">
     <g id="line2d_42">
      <defs>
       <path d="
M0 0
L2 0" id="m0789224b6b"/>
      </defs>
      <g>
       <use style="stroke:#000000;stroke-linecap:butt;stroke-width:0.5;" x="32.60875" xlink:href="#m0789224b6b" y="245.622271678"/>
      </g>
     </g>
    </g>
    <g id="ytick_13">
     <g id="line2d_43">
      <defs>
       <path d="
M0 0
L2 0" id="m0789224b6b"/>
      </defs>
      <g>
       <use style="stroke:#000000;stroke-linecap:butt;stroke-width:0.5;" x="32.60875" xlink:href="#m0789224b6b" y="226.510155288"/>
      </g>
     </g>
    </g>
    <g id="ytick_14">
     <g id="line2d_44">
      <defs>
       <path d="
M0 0
L2 0" id="m0789224b6b"/>
      </defs>
      <g>
       <use style="stroke:#000000;stroke-linecap:butt;stroke-width:0.5;" x="32.60875" xlink:href="#m0789224b6b" y="207.398038898"/>
      </g>
     </g>
    </g>
    <g id="ytick_15">
     <g id="line2d_45">
      <defs>
       <path d="
M0 0
L2 0" id="m0789224b6b"/>
      </defs>
      <g>
       <use style="stroke:#000000;stroke-linecap:butt;stroke-width:0.5;" x="32.60875" xlink:href="#m0789224b6b" y="188.285922508"/>
      </g>
     </g>
    </g>
    <g id="ytick_16">
     <g id="line2d_46">
      <defs>
       <path d="
M0 0
L2 0" id="m0789224b6b"/>
      </defs>
      <g>
       <use style="stroke:#000000;stroke-linecap:butt;stroke-width:0.5;" x="32.60875" xlink:href="#m0789224b6b" y="169.173806118"/>
      </g>
     </g>
    </g>
    <g id="ytick_17">
     <g id="line2d_47">
      <defs>
       <path d="
M0 0
L2 0" id="m0789224b6b"/>
      </defs>
      <g>
       <use style="stroke:#000000;stroke-linecap:butt;stroke-width:0.5;" x="32.60875" xlink:href="#m0789224b6b" y="150.061689729"/>
      </g>
     </g>
    </g>
    <g id="ytick_18">
     <g id="line2d_48">
      <defs>
       <path d="
M0 0
L2 0" id="m0789224b6b"/>
      </defs>
      <g>
       <use style="stroke:#000000;stroke-linecap:butt;stroke-width:0.5;" x="32.60875" xlink:href="#m0789224b6b" y="130.949573339"/>
      </g>
     </g>
    </g>
    <g id="ytick_19">
     <g id="line2d_49">
      <defs>
       <path d="
M0 0
L2 0" id="m0789224b6b"/>
      </defs>
      <g>
       <use style="stroke:#000000;stroke-linecap:butt;stroke-width:0.5;" x="32.60875" xlink:href="#m0789224b6b" y="111.837456949"/>
      </g>
     </g>
    </g>
    <g id="ytick_20">
     <g id="line2d_50">
      <defs>
       <path d="
M0 0
L2 0" id="m0789224b6b"/>
      </defs>
      <g>
       <use style="stroke:#000000;stroke-linecap:butt;stroke-width:0.5;" x="32.60875" xlink:href="#m0789224b6b" y="92.7253405592"/>
      </g>
     </g>
    </g>
    <g id="ytick_21">
     <g id="line2d_51">
      <defs>
       <path d="
M0 0
L2 0" id="m0789224b6b"/>
      </defs>
      <g>
       <use style="stroke:#000000;stroke-linecap:butt;stroke-width:0.5;" x="32.60875" xlink:href="#m0789224b6b" y="73.6132241694"/>
      </g>
     </g>
    </g>
    <g id="ytick_22">
     <g id="line2d_52">
      <defs>
       <path d="
M0 0
L2 0" id="m0789224b6b"/>
      </defs>
      <g>
       <use style="stroke:#000000;stroke-linecap:butt;stroke-width:0.5;" x="32.60875" xlink:href="#m0789224b6b" y="54.5011077796"/>
      </g>
     </g>
    </g>
    <g id="ytick_23">
     <g id="line2d_53">
      <defs>
       <path d="
M0 0
L2 0" id="m0789224b6b"/>
      </defs>
      <g>
       <use style="stroke:#000000;stroke-linecap:butt;stroke-width:0.5;" x="32.60875" xlink:href="#m0789224b6b" y="35.3889913898"/>
      </g>
     </g>
    </g>
   </g>
   <g id="patch_3">
    <path d="
M42.6088 16.2769
L557.426 16.2769" style="fill:none;stroke:#000000;stroke-width:0.8;"/>
   </g>
   <g id="patch_4">
    <path d="
M32.6088 412.239
L32.6088 8.51291" style="fill:none;stroke:#000000;stroke-width:0.8;"/>
   </g>
  </g>
 </g>
 <defs>
  <clipPath id="p51b3ba9df9">
   <rect height="403.726153846" width="514.8175" x="42.60875" y="8.51291050296"/>
  </clipPath>
 </defs>
</svg>
