<?xml version="1.0" encoding="utf-8" standalone="no"?>
<!DOCTYPE svg PUBLIC "-//W3C//DTD SVG 1.1//EN"
  "http://www.w3.org/Graphics/SVG/1.1/DTD/svg11.dtd">
<!-- Created with matplotlib (http://matplotlib.sourceforge.net/) -->
<svg height="419pt" version="1.1" viewBox="0 0 564 419" width="564pt" xmlns="http://www.w3.org/2000/svg" xmlns:xlink="http://www.w3.org/1999/xlink">
 <defs>
  <style type="text/css">
*{stroke-linecap:square;stroke-linejoin:round;}
  </style>
 </defs>
 <g id="figure_1">
  <g id="patch_1">
   <path d="
M4.44089e-16 419.439
L564.626 419.439
L564.626 0
L4.44089e-16 0
z
" style="fill:#ffffff;"/>
  </g>
  <g id="axes_1">
   <g id="patch_2">
    <path d="
M42.6088 412.239
L557.426 412.239
L557.426 8.51291
L42.6088 8.51291
z
" style="fill:#ffffff;"/>
   </g>
   <g id="line2d_1">
    <path clip-path="url(#p51b3ba9df9)" d="
M52.5091 16.2769
L62.5296 16.2769
L62.5296 16.2769
L62.5296 16.2769
L75.154 16.2769
L75.154 36.4688
L83.4694 36.4688
L83.4694 56.4382
L94.6396 56.4382
L94.6396 87.3402
L98.7681 87.3402
L98.7681 100.087
L105.398 100.087
L105.398 110.629
L108.147 110.629
L108.147 116.636
L112.868 116.636
L112.868 121.818
L118.597 121.818
L118.597 130.927
L120.245 130.927
L120.245 134.307
L124.618 134.307
L124.618 145.064
L127.155 145.064
L127.155 152.06
L128.332 152.06
L128.332 155.772
L130.53 155.772
L130.53 163.52
L133.499 163.52
L133.499 174.634
L136.15 174.634
L136.15 184.941
L136.973 184.941
L136.973 187.558
L139.292 187.558
L139.292 193.443
L140.725 193.443
L140.725 196.191
L141.412 196.191
L141.412 197.756
L143.364 197.756
L143.364 201.155
L144.584 201.155
L144.584 203.655
L146.309 203.655
L146.309 207.686
L148.437 207.686
L148.437 211.485
L149.435 211.485
L149.435 212.783
L149.92 212.783
L149.92 213.213
L150.861 213.213
L150.861 213.672
L152.21 213.72
L152.21 214.115
L155.096 214.115
L155.096 216.206
L155.863 216.206
L155.863 216.958
L156.969 216.958
L156.969 218.354
L157.328 218.354
L157.328 218.906
L159.045 218.906
L159.045 221.973
L159.374 221.973
L159.374 222.639
L160.337 222.639
L160.337 224.829
L161.264 224.829
L161.264 227.139
L161.863 227.139
L161.863 228.765
L162.735 228.765
L162.735 230.821
L163.578 230.821
L163.578 232.983
L163.853 232.983
L163.853 233.751
L165.182 233.751
L165.182 237.724
L165.439 237.724
L165.439 238.403
L165.946 238.403
L165.946 239.585
L166.196 239.585
L166.196 240.092
L167.643 240.092
L167.643 243.316
L169.01 243.316
L169.01 245.856
L169.449 245.856
L169.449 246.754
L169.666 246.754
L169.666 247.137
L170.094 247.137
L170.094 247.99
L170.722 247.99
L170.722 249.37
L170.928 249.37
L170.928 249.766
L171.933 249.766
L171.933 251.409
L172.517 251.409
L172.517 252.196
L173.087 252.196
L173.087 253.077
L173.645 253.077
L173.645 253.791
L173.828 253.791
L173.828 254.063
L174.369 254.063
L174.369 254.978
L174.723 254.978
L174.723 255.646
L174.898 255.646
L174.898 256.013
L175.757 256.013
L175.757 257.581
L176.91 257.581
L176.91 259.857
L177.23 259.857
L177.23 260.538
L177.388 260.538
L177.388 260.839
L177.702 260.839
L177.702 261.495
L178.77 261.495
L178.77 263.45
L179.214 263.45
L179.214 264.329
L179.937 264.329
L179.937 265.875
L180.079 265.875
L180.079 266.145
L180.361 266.145
L180.361 266.62
L180.777 266.62
L180.777 267.23
L181.322 267.23
L181.322 268.118
L181.723 268.118
L181.723 268.68
L182.117 268.68
L182.117 269.301
L182.376 269.301
L182.376 269.753
L182.761 269.753
L182.761 270.341
L183.264 270.341
L183.264 271.002
L183.511 271.002
L183.511 271.368
L184 271.368
L184 272.17
L184.597 272.17
L184.597 273.239
L184.714 273.239
L184.714 273.468
L185.294 273.468
L185.294 274.478
L185.409 274.478
L185.409 274.695
L185.749 274.695
L185.749 275.273
L185.973 275.273
L185.973 275.61
L186.306 275.61
L186.306 276.163
L186.742 276.163
L186.742 276.8
L186.957 276.8
L187.064 277.338
L187.277 277.338
L187.277 277.751
L187.904 277.751
L187.904 279.057
L188.313 279.057
L188.313 279.963
L188.516 279.963
L188.516 280.439
L188.915 280.439
L188.915 281.303
L189.112 281.303
L189.112 281.692
L189.405 281.692
L189.405 282.215
L189.981 282.215
L190.076 283.485
L190.912 283.485
L190.912 284.768
L191.185 284.768
L191.185 285.221
L191.632 285.221
L191.632 285.882
L191.897 285.882
L191.897 286.309
L192.159 286.309
L192.246 286.933
L192.504 286.933
L192.504 287.379
L192.929 287.379
L192.929 288.169
L193.18 288.169
L193.18 288.592
L193.429 288.592
L193.511 289.206
L193.757 289.206
L193.757 289.721
L194 289.721
L194 290.19
L194.161 290.19
L194.241 290.626
L194.715 290.626
L194.715 291.591
L195.104 291.591
L195.181 292.44
L195.334 292.44
L195.334 292.675
L195.562 292.675
L195.562 292.987
L195.788 292.987
L195.863 293.428
L196.308 293.428
L196.308 293.956
L196.454 293.956
L196.454 294.106
L196.672 294.106
L196.672 294.359
L196.96 294.359
L196.96 294.648
L197.315 294.648
L197.315 294.948
L197.596 294.948
L197.596 295.141
L197.942 295.141
L197.942 295.423
L198.215 295.423
L198.215 295.604
L198.62 295.708
L198.62 295.838
L199.018 295.941
L199.018 296.181
L199.215 296.181
L199.215 296.383
L199.345 296.383
L199.345 296.498
L199.603 296.498
L199.603 296.689
L199.731 296.689
L199.731 296.801
L200.175 296.801
L200.175 297.239
L200.487 297.239
L200.487 297.499
L200.856 297.499
L200.917 297.803
L201.22 297.803
L201.28 298.149
L201.46 298.259
L201.46 298.322
L201.756 298.322
L201.756 298.668
L202.165 298.668
L202.165 299.19
L202.281 299.19
L202.338 299.394
L202.453 299.394
L202.453 299.552
L202.851 299.552
L202.851 300.045
L202.963 300.045
L203.019 300.279
L203.131 300.279
L203.131 300.429
L203.682 300.429
L203.791 301.202
L204.007 301.202
L204.007 301.455
L204.275 301.455
L204.275 301.731
L204.486 301.731
L204.592 302.079
L204.749 302.079
L204.749 302.218
L204.905 302.218
L204.905 302.335
L205.265 302.335
L205.367 302.634
L205.52 302.634
L205.52 302.763
L205.671 302.763
L205.671 302.908
L205.871 302.908
L205.871 303.122
L206.02 303.122
L206.02 303.263
L206.316 303.263
L206.414 303.664
L206.56 303.664
L206.608 303.824
L206.849 303.824
L206.897 304.057
L207.04 304.057
L207.04 304.202
L207.277 304.202
L207.324 304.524
L207.558 304.524
L207.604 304.892
L207.744 304.892
L207.744 305.044
L208.156 305.044
L208.247 305.537
L208.383 305.579
L208.383 305.654
L208.517 305.654
L208.517 305.78
L208.829 305.89
L208.829 306.054
L208.961 306.054
L208.961 306.19
L209.093 306.19
L209.093 306.339
L209.57 306.339
L209.613 306.981
L209.826 306.981
L209.826 307.238
L209.996 307.238
L209.996 307.459
L210.206 307.459
L210.206 307.754
L210.331 307.754
L210.331 307.943
L210.456 307.943
L210.456 308.142
L210.621 308.142
L210.621 308.388
L210.867 308.388
L210.948 308.895
L211.07 308.895
L211.07 309.086
L211.191 309.086
L211.231 309.314
L211.351 309.314
L211.351 309.462
L211.589 309.462
L211.589 309.777
L211.787 309.777
L211.787 310.056
L212.137 310.056
L212.176 310.637
L212.369 310.736
L212.407 310.911
L212.598 311.02
L212.636 311.112
L212.937 311.175
L212.975 311.362
L213.712 311.419
L213.821 311.867
L214.072 311.952
L214.072 312.049
L214.392 312.049
L214.392 312.295
L214.568 312.295
L214.568 312.445
L214.813 312.445
L214.917 312.698
L215.226 312.797
L215.328 312.906
L215.633 312.959
L215.633 313.043
L215.9 313.149
L215.999 313.248
L216.296 313.307
L216.296 313.403
L216.621 313.479
L216.621 313.541
L216.909 313.613
L216.973 313.681
L217.446 313.79
L217.446 313.794
L218.275 313.889
L218.275 313.938
L219.106 314.04
L219.194 314.209
L219.512 314.278
L219.54 314.393
L219.797 314.472
L219.882 314.591
L220.051 314.645
L220.051 314.705
L220.303 314.705
L220.386 314.965
L220.635 315.013
L220.635 315.114
L220.935 315.208
L221.043 315.407
L221.258 315.407
L221.258 315.532
L221.445 315.532
L221.524 315.715
L221.682 315.812
L221.682 315.827
L221.97 315.889
L222.048 316.025
L222.357 316.067
L222.383 316.182
L223.138 316.292
L223.212 316.326
L223.556 316.402
L223.581 316.477
L223.871 316.556
L223.871 316.652
L224.206 316.738
L224.301 316.815
L224.583 316.923
L224.583 316.93
L225.343 317.039
L225.343 317.095
L225.992 317.192
L226.059 317.243
L226.775 317.34
L226.797 317.376
L227.284 317.483
L227.284 317.492
L228.471 317.591
L228.511 317.614
L228.946 317.678
L229.044 317.773
L229.508 317.875
L229.508 317.955
L229.794 318.015
L229.87 318.143
L230.151 318.238
L230.245 318.359
L230.485 318.462
L230.577 318.531
L230.905 318.639
L231.014 318.718
L231.336 318.811
L231.443 318.88
L231.707 318.945
L231.707 319.008
L231.986 319.105
L232.073 319.181
L232.296 319.258
L232.382 319.35
L232.636 319.431
L232.738 319.527
L232.989 319.631
L233.005 319.675
L233.237 319.675
L233.336 319.883
L233.743 319.98
L233.791 320.018
L234.127 320.091
L234.222 320.242
L234.553 320.338
L234.6 320.539
L234.863 320.646
L234.971 320.756
L235.231 320.795
L235.292 320.899
L235.593 320.94
L235.698 321.099
L235.95 321.196
L236.053 321.277
L236.258 321.333
L236.273 321.432
L236.433 321.518
L236.433 321.547
L236.692 321.653
L236.792 321.82
L236.991 321.86
L237.048 322.083
L237.175 322.17
L237.259 322.313
L237.385 322.404
L237.468 322.543
L237.62 322.626
L237.703 322.769
L237.84 322.853
L237.908 322.952
L238.153 323.061
L238.247 323.201
L238.488 323.308
L238.555 323.374
L238.832 323.443
L238.885 323.571
L239.107 323.681
L239.107 323.701
L239.391 323.81
L239.494 323.927
L239.774 324.009
L239.875 324.118
L240.15 324.187
L240.15 324.246
L240.472 324.353
L240.521 324.392
L240.802 324.469
L240.911 324.582
L241.199 324.693
L241.306 324.77
L241.567 324.841
L241.672 324.963
L241.917 325.073
L241.987 325.128
L242.297 325.225
L242.365 325.408
L242.502 325.497
L242.558 325.572
L242.761 325.675
L242.839 325.775
L243.028 325.882
L243.062 325.915
L243.337 326.022
L243.392 326.074
L243.599 326.179
L243.631 326.253
L243.793 326.346
L243.825 326.388
L244.007 326.447
L244.113 326.568
L244.293 326.647
L244.356 326.72
L244.607 326.814
L244.649 326.896
L244.825 327.006
L244.928 327.099
L245.173 327.163
L245.254 327.34
L245.385 327.394
L245.466 327.542
L245.586 327.64
L245.656 327.752
L245.805 327.841
L245.914 328.053
L246.062 328.144
L246.16 328.375
L246.247 328.375
L246.354 328.628
L246.586 328.73
L246.682 328.971
L246.825 329.072
L246.882 329.166
L246.995 329.271
L247.014 329.298
L247.127 329.298
L247.221 329.505
L247.352 329.606
L247.417 329.696
L247.546 329.798
L247.546 329.817
L247.684 329.817
L247.767 330.043
L247.913 330.14
L247.995 330.293
L248.094 330.293
L248.149 330.468
L248.257 330.563
L248.364 330.695
L248.48 330.695
L248.586 330.953
L248.772 331.008
L248.877 331.295
L249.034 331.401
L249.112 331.561
L249.268 331.64
L249.319 331.809
L249.448 331.809
L249.542 332.095
L249.652 332.198
L249.754 332.341
L249.872 332.435
L249.973 332.604
L250.073 332.701
L250.181 332.855
L250.297 332.855
L250.404 333.121
L250.495 333.143
L250.593 333.365
L250.699 333.471
L250.788 333.635
L250.869 333.706
L250.958 333.877
L251.078 333.988
L251.182 334.179
L251.301 334.286
L251.412 334.46
L251.53 334.556
L251.624 334.718
L251.726 334.804
L251.819 334.953
L251.928 335.036
L251.959 335.122
L252.051 335.122
L252.159 335.371
L252.251 335.47
L252.319 335.578
L252.433 335.578
L252.532 335.842
L252.645 335.942
L252.727 336.038
L252.869 336.106
L252.958 336.232
L253.106 336.324
L253.173 336.41
L253.327 336.47
L253.436 336.636
L253.675 336.744
L253.769 336.836
L253.997 336.902
L254.104 337.023
L254.322 337.123
L254.427 337.203
L254.629 337.309
L254.74 337.402
L254.905 337.489
L255.008 337.626
L255.165 337.674
L255.253 337.834
L255.394 337.94
L255.455 338.001
L255.595 338.07
L255.668 338.172
L255.827 338.279
L255.913 338.345
L256.084 338.44
L256.188 338.537
L256.376 338.647
L256.479 338.741
L256.672 338.832
L256.729 338.889
L256.951 338.999
L257.027 339.056
L257.259 339.161
L257.333 339.205
L257.605 339.315
L257.697 339.404
L258.153 339.515
L258.225 339.529
L258.986 339.634
L259.097 339.669
L259.47 339.777
L259.578 339.819
L259.894 339.92
L259.978 339.967
L260.294 340.076
L260.399 340.119
L260.645 340.206
L260.742 340.288
L260.936 340.384
L261.044 340.482
L261.236 340.592
L261.336 340.69
L261.552 340.796
L261.662 340.859
L261.957 340.944
L262.065 341.033
L262.372 341.141
L262.478 341.188
L262.809 341.299
L262.918 341.366
L263.194 341.47
L263.273 341.509
L264.558 341.62
L264.651 341.646
L265.51 341.755
L265.617 341.769
L266.236 341.877
L266.34 341.914
L266.623 342.009
L266.712 342.077
L267.042 342.179
L267.147 342.241
L267.421 342.349
L267.528 342.398
L270.327 342.507
L270.415 342.53
L270.756 342.64
L270.832 342.668
L271.14 342.776
L271.25 342.833
L271.468 342.941
L271.577 342.994
L271.827 343.099
L271.92 343.155
L272.188 343.263
L272.29 343.331
L272.519 343.433
L272.62 343.489
L273.071 343.597
L273.17 343.645
L273.557 343.756
L273.656 343.811
L273.896 343.918
L274.001 344
L274.19 344.1
L274.3 344.266
L274.443 344.375
L274.552 344.461
L274.703 344.549
L274.811 344.668
L274.997 344.775
L275.103 344.852
L275.296 344.954
L275.404 345.031
L275.634 345.136
L275.743 345.194
L275.969 345.296
L276.06 345.361
L276.283 345.467
L276.39 345.541
L276.544 345.648
L276.63 345.721
L276.789 345.832
L276.885 345.906
L277.084 346.013
L277.179 346.083
L277.401 346.194
L277.511 346.245
L277.773 346.353
L277.876 346.415
L278.071 346.524
L278.178 346.591
L278.386 346.698
L278.494 346.785
L278.678 346.893
L278.757 346.968
L278.903 347.063
L278.975 347.135
L279.13 347.235
L279.235 347.354
L279.366 347.464
L279.475 347.575
L279.594 347.678
L279.642 347.734
L279.768 347.834
L279.873 347.93
L280.052 348.039
L280.158 348.102
L280.399 348.205
L280.494 348.257
L280.749 348.363
L280.859 348.429
L281.157 348.535
L281.264 348.588
L281.562 348.698
L281.667 348.748
L281.879 348.858
L281.937 348.926
L282.147 348.993
L282.245 349.126
L282.543 349.219
L282.65 349.308
L282.967 349.413
L283.075 349.501
L283.376 349.572
L283.477 349.677
L283.671 349.735
L283.671 349.792
L283.882 349.864
L283.977 350.004
L284.182 350.083
L284.286 350.203
L284.591 350.282
L284.699 350.359
L285.114 350.469
L285.217 350.586
L285.409 350.654
L285.409 350.716
L285.616 350.794
L285.717 350.933
L285.94 351.009
L286.028 351.157
L286.232 351.248
L286.232 351.302
L286.441 351.388
L286.537 351.519
L286.748 351.598
L286.85 351.773
L287.065 351.855
L287.153 352.01
L287.364 352.087
L287.458 352.248
L287.663 352.338
L287.766 352.511
L287.981 352.605
L288.073 352.77
L288.283 352.869
L288.393 353.066
L288.589 353.151
L288.689 353.349
L288.894 353.451
L288.996 353.645
L289.199 353.728
L289.199 353.799
L289.417 353.888
L289.509 354.019
L289.712 354.103
L289.818 354.275
L290.027 354.35
L290.136 354.491
L290.334 354.544
L290.43 354.662
L290.634 354.72
L290.742 354.849
L291.057 354.949
L291.149 355.06
L291.365 355.129
L291.456 355.244
L291.661 355.31
L291.766 355.406
L292.07 355.494
L292.175 355.575
L292.586 355.686
L292.69 355.737
L293.009 355.811
L293.091 355.877
L293.711 355.981
L293.711 355.989
L294.228 356.077
L294.325 356.121
L294.731 356.211
L294.836 356.261
L295.558 356.362
L295.654 356.378
L296.474 356.476
L296.582 356.526
L297.091 356.622
L297.19 356.693
L297.603 356.793
L297.713 356.851
L298.117 356.951
L298.217 357.035
L298.631 357.145
L298.725 357.254
L298.931 357.319
L299.035 357.429
L299.271 357.486
L299.343 357.585
L299.649 357.669
L299.755 357.756
L300.059 357.835
L300.162 357.93
L300.368 357.993
L300.466 358.121
L300.684 358.184
L300.786 358.303
L301.083 358.392
L301.187 358.487
L301.392 358.544
L301.503 358.685
L301.698 358.754
L301.804 358.904
L302.003 358.98
L302.11 359.137
L302.31 359.211
L302.415 359.34
L302.625 359.398
L302.721 359.506
L303.027 359.615
L303.13 359.718
L303.337 359.779
L303.439 359.912
L303.643 359.986
L303.748 360.14
L303.949 360.216
L304.059 360.361
L304.256 360.429
L304.359 360.569
L304.566 360.651
L304.671 360.792
L304.876 360.875
L304.98 361.052
L305.179 361.137
L305.281 361.331
L305.487 361.434
L305.593 361.644
L305.796 361.754
L305.896 361.996
L306.006 361.996
L306.101 362.21
L306.21 362.21
L306.306 362.419
L306.515 362.514
L306.614 362.694
L306.819 362.805
L306.924 363.006
L307.127 363.1
L307.231 363.303
L307.434 363.401
L307.536 363.594
L307.741 363.7
L307.842 363.909
L308.055 364.012
L308.159 364.224
L308.362 364.332
L308.458 364.57
L308.564 364.57
L308.667 364.807
L308.867 364.908
L308.867 365.026
L308.98 365.026
L309.073 365.28
L309.175 365.28
L309.279 365.551
L309.381 365.551
L309.481 365.791
L309.586 365.791
L309.687 366.021
L309.891 366.124
L309.993 366.301
L310.2 366.391
L310.301 366.564
L310.508 366.648
L310.612 366.824
L310.814 366.919
L310.814 367.013
L310.927 367.013
L311.023 367.24
L311.125 367.24
L311.222 367.478
L311.325 367.478
L311.43 367.716
L311.53 367.716
L311.631 367.961
L311.735 367.961
L311.842 368.203
L312.047 368.307
L312.148 368.501
L312.354 368.592
L312.451 368.8
L312.659 368.903
L312.758 369.082
L312.963 369.182
L313.068 369.388
L313.273 369.49
L313.374 369.686
L313.579 369.793
L313.683 370.01
L313.891 370.118
L313.988 370.352
L314.092 370.352
L314.194 370.598
L314.295 370.598
L314.397 370.839
L314.502 370.839
L314.602 371.071
L314.807 371.168
L314.91 371.376
L315.117 371.485
L315.217 371.692
L315.421 371.791
L315.526 372.009
L315.73 372.119
L315.833 372.301
L316.037 372.391
L316.146 372.561
L316.343 372.637
L316.446 372.785
L316.653 372.867
L316.756 373.042
L316.961 373.125
L317.063 373.266
L317.265 373.34
L317.369 373.484
L317.573 373.549
L317.675 373.683
L317.883 373.748
L317.992 373.893
L318.187 373.954
L318.292 374.09
L318.497 374.156
L318.598 374.275
L318.907 374.378
L319.007 374.49
L319.317 374.587
L319.416 374.678
L319.726 374.756
L319.826 374.826
L320.236 374.937
L320.339 375.031
L320.55 375.086
L320.646 375.207
L320.851 375.274
L320.957 375.401
L321.158 375.457
L321.263 375.572
L321.469 375.633
L321.567 375.769
L321.774 375.85
L321.874 375.987
L322.08 376.062
L322.184 376.215
L322.387 376.294
L322.491 376.462
L322.695 376.552
L322.8 376.73
L323.003 376.801
L323.104 376.974
L323.309 377.073
L323.412 377.282
L323.515 377.282
L323.616 377.511
L323.718 377.511
L323.82 377.763
L323.924 377.763
L324.026 377.996
L324.128 377.996
L324.231 378.215
L324.436 378.315
L324.538 378.501
L324.742 378.584
L324.846 378.747
L325.05 378.834
L325.152 379.001
L325.359 379.081
L325.459 379.205
L325.87 379.315
L325.974 379.389
L326.282 379.481
L326.381 379.594
L326.586 379.663
L326.69 379.806
L326.893 379.873
L326.998 379.978
L327.2 380.037
L327.305 380.162
L327.509 380.232
L327.613 380.375
L327.815 380.44
L327.921 380.564
L328.23 380.673
L328.328 380.771
L328.635 380.863
L328.738 380.977
L328.944 381.032
L329.045 381.143
L329.353 381.225
L329.456 381.297
L329.762 381.395
L329.864 381.508
L330.068 381.567
L330.171 381.682
L330.481 381.785
L330.583 381.904
L330.786 381.955
L330.896 382.087
L331.093 382.151
L331.195 382.289
L331.4 382.366
L331.505 382.512
L331.708 382.58
L331.814 382.709
L332.016 382.77
L332.117 382.883
L332.324 382.938
L332.425 383.043
L332.732 383.14
L332.834 383.221
L333.244 383.304
L333.348 383.389
L333.655 383.483
L333.765 383.596
L333.961 383.65
L334.064 383.774
L334.268 383.833
L334.371 383.943
L334.577 384.001
L334.679 384.131
L334.883 384.189
L334.985 384.291
L335.294 384.387
L335.396 384.473
L335.6 384.532
L335.704 384.626
L336.112 384.727
L336.215 384.791
L336.522 384.87
L336.624 384.976
L336.934 385.085
L337.035 385.2
L337.239 385.26
L337.341 385.396
L337.553 385.474
L337.649 385.611
L337.956 385.716
L338.059 385.819
L338.366 385.923
L338.469 385.997
L338.775 386.085
L338.878 386.163
L339.392 386.273
L339.492 386.321
L339.902 386.415
L340.004 386.468
L340.415 386.557
L340.517 386.633
L341.03 386.741
L341.131 386.786
L343.794 386.891
L343.897 386.915
L344.613 387.003
L344.716 387.059
L345.228 387.158
L345.331 387.202
L347.687 387.094
L347.789 387.059
L349.223 386.951
L349.327 386.93
L350.964 387.025
L351.067 387.1
L351.477 387.207
L351.579 387.295
L351.886 387.373
L351.988 387.45
L352.398 387.552
L352.501 387.589
L353.218 387.687
L353.32 387.729
L353.832 387.825
L353.935 387.873
L354.754 387.982
L354.857 388.006
L355.574 388.109
L355.676 388.155
L356.188 388.241
L356.291 388.317
L356.6 388.427
L356.7 388.531
L356.905 388.59
L357.009 388.705
L357.213 388.762
L357.315 388.902
L357.521 388.979
L357.622 389.135
L357.827 389.21
L357.93 389.358
L358.134 389.427
L358.237 389.575
L358.443 389.642
L358.544 389.762
L358.749 389.816
L358.852 389.925
L359.158 390.013
L359.261 390.089
L359.671 390.186
L359.773 390.223
L360.695 390.333
L360.798 390.372
L362.231 390.475
L362.334 390.512
L362.948 390.611
L363.052 390.668
L363.46 390.761
L363.563 390.819
L363.973 390.929
L364.076 391.012
L364.382 391.101
L364.485 391.203
L364.792 391.311
L364.895 391.424
L365.1 391.488
L365.202 391.63
L365.407 391.692
L365.509 391.812
L365.714 391.877
L365.816 392.024
L366.021 392.096
L366.124 392.234
L366.329 392.304
L366.431 392.445
L366.636 392.506
L366.738 392.641
L366.943 392.72
L367.046 392.887
L367.25 392.976
L367.353 393.158
L367.558 393.253
L367.661 393.452
L367.865 393.55
L367.968 393.772
L368.07 393.772
L368.173 394.009
L368.275 394.009
L368.377 394.25
L368.48 394.25
L368.582 394.478
L368.787 394.584
L368.89 394.774
L369.094 394.869
L369.197 395.041
L369.401 395.12
L369.504 395.291
L369.71 395.375
L369.811 395.56
L370.016 395.654
L370.119 395.822
L370.324 395.907
L370.426 396.092
L370.631 396.179
L370.733 396.345
L370.938 396.428
L371.04 396.595
L371.245 396.682
L371.347 396.838
L371.553 396.919
L371.655 397.072
L371.86 397.16
L371.962 397.331
L372.167 397.42
L372.269 397.634
L372.372 397.634
L372.474 397.867
L372.577 397.867
L372.679 398.086
L372.884 398.178
L372.986 398.355
L373.191 398.444
L373.294 398.622
L373.498 398.709
L373.601 398.888
L373.806 398.974
L373.908 399.126
L374.113 399.199
L374.215 399.345
L374.421 399.419
L374.523 399.552
L374.728 399.612
L374.83 399.744
L375.035 399.808
L375.137 399.951
L375.343 400.022
L375.445 400.157
L375.65 400.223
L375.753 400.359
L375.958 400.424
L376.059 400.553
L376.264 400.627
L376.367 400.754
L376.674 400.863
L376.776 400.955
L377.084 401.042
L377.187 401.13
L377.493 401.224
L377.596 401.314
L378.005 401.411
L378.109 401.445
L378.62 401.533
L378.722 401.596
L379.132 401.703
L379.235 401.77
L379.644 401.856
L379.747 401.908
L380.156 401.993
L380.259 402.045
L380.669 402.141
L380.771 402.198
L381.181 402.295
L381.283 402.367
L381.693 402.475
L381.795 402.551
L382.103 402.652
L382.205 402.758
L382.41 402.82
L382.512 402.955
L382.717 403.018
L382.82 403.137
L383.025 403.205
L383.127 403.346
L383.333 403.421
L383.434 403.552
L383.639 403.606
L383.741 403.723
L384.049 403.824
L384.151 403.906
L384.458 403.993
L384.561 404.08
L384.971 404.188
L385.073 404.246
L385.585 404.338
L385.688 404.383
L390.194 404.279
L390.297 404.249
L391.219 404.146
L391.321 404.104
L391.833 404.004
L391.936 403.962
L392.346 403.873
L392.448 403.811
L392.96 403.727
L393.062 403.672
L393.575 403.573
L393.677 403.499
L394.087 403.41
L394.189 403.338
L394.599 403.239
L394.701 403.199
L396.34 403.099
L396.443 403.075
L396.852 402.979
L396.955 402.9
L397.364 402.796
L397.467 402.725
L397.979 402.644
L398.081 402.569
L398.389 402.493
L398.491 402.427
L399.311 402.323
L399.413 402.289
L399.823 402.205
L399.925 402.112
L400.233 402.01
L400.335 401.9
L400.54 401.832
L400.642 401.687
L400.847 401.608
L400.95 401.445
L401.154 401.358
L401.257 401.183
L401.462 401.093
L401.564 400.917
L401.769 400.816
L401.871 400.604
L401.974 400.604
L402.076 400.365
L402.179 400.365
L402.281 400.102
L402.384 400.102
L402.486 399.852
L402.588 399.852
L402.691 399.617
L402.793 399.617
L402.896 399.382
L403.101 399.277
L403.203 399.091
L403.408 399.002
L403.51 398.835
L403.715 398.755
L403.818 398.591
L404.022 398.517
L404.125 398.356
L404.33 398.278
L404.432 398.118
L404.637 398.034
L404.739 397.865
L404.944 397.77
L405.047 397.579
L405.252 397.487
L405.354 397.291
L405.559 397.198
L405.661 396.993
L405.866 396.886
L405.969 396.686
L406.173 396.578
L406.276 396.36
L406.378 396.36
L406.481 396.136
L406.686 396.026
L406.788 395.82
L406.993 395.717
L407.095 395.514
L407.3 395.415
L407.403 395.226
L407.607 395.135
L407.71 394.965
L407.915 394.888
L408.017 394.761
L408.222 394.697
L408.325 394.551
L408.53 394.468
L408.632 394.298
L408.837 394.211
L408.939 394.044
L409.144 393.954
L409.246 393.773
L409.451 393.673
L409.554 393.476
L409.759 393.386
L409.861 393.222
L410.066 393.155
L410.168 393.007
L410.373 392.932
L410.475 392.78
L410.68 392.698
L410.783 392.528
L410.988 392.452
L411.09 392.31
L411.295 392.242
L411.397 392.101
L411.602 392.03
L411.705 391.892
L411.91 391.819
L412.012 391.672
L412.217 391.595
L412.319 391.441
L412.524 391.366
L412.626 391.238
L412.831 391.178
L412.934 391.045
L413.139 390.976
L413.241 390.828
L413.446 390.761
L413.548 390.638
L413.753 390.584
L413.856 390.474
L414.061 390.418
L414.163 390.303
L414.368 390.246
L414.47 390.135
L414.777 390.045
L414.88 389.978
L415.29 389.886
L415.392 389.83
L415.699 389.751
L415.802 389.669
L416.109 389.587
L416.211 389.5
L416.621 389.413
L416.724 389.336
L417.133 389.245
L417.236 389.177
L417.748 389.077
L417.85 389.04
L418.465 388.929
L418.567 388.867
L418.977 388.759
L419.079 388.71
L419.694 388.611
L419.796 388.565
L421.538 388.455
L421.64 388.439
L422.767 388.33
L422.869 388.303
L423.381 388.217
L423.484 388.128
L423.791 388.028
L423.894 387.952
L424.201 387.866
L424.303 387.772
L424.611 387.701
L424.713 387.615
L425.02 387.523
L425.123 387.41
L425.43 387.308
L425.532 387.226
L425.84 387.144
L425.942 387.081
L426.352 386.986
L426.454 386.919
L426.864 386.817
L426.967 386.751
L427.376 386.66
L427.479 386.575
L427.786 386.495
L427.888 386.411
L428.196 386.324
L428.298 386.227
L428.605 386.122
L428.708 386.01
L428.913 385.951
L429.015 385.836
L429.323 385.729
L429.425 385.642
L429.835 385.532
L429.937 385.461
L430.347 385.357
L430.449 385.296
L430.859 385.191
L430.961 385.112
L431.269 385.017
L431.371 384.9
L431.678 384.796
L431.781 384.686
L431.986 384.629
L432.088 384.509
L432.293 384.444
L432.395 384.3
L432.6 384.235
L432.703 384.101
L432.907 384.032
L433.01 383.9
L433.215 383.838
L433.317 383.709
L433.522 383.649
L433.624 383.522
L433.829 383.452
L433.932 383.305
L434.137 383.238
L434.239 383.104
L434.444 383.05
L434.546 382.924
L434.751 382.857
L434.854 382.729
L435.058 382.67
L435.161 382.543
L435.366 382.477
L435.468 382.34
L435.673 382.268
L435.775 382.117
L435.98 382.046
L436.083 381.912
L436.288 381.846
L436.39 381.728
L436.595 381.669
L436.697 381.57
L437.005 381.477
L437.107 381.364
L437.312 381.297
L437.414 381.171
L437.722 381.064
L437.824 380.973
L438.234 380.876
L438.336 380.82
L439.156 380.711
L439.258 380.708
L441.409 380.818
L441.512 380.833
L442.946 380.942
L443.048 380.963
L443.56 381.046
L443.663 381.123
L444.175 381.221
L444.277 381.292
L444.687 381.399
L444.789 381.445
L445.301 381.554
L445.404 381.612
L446.121 381.705
L446.223 381.766
L446.531 381.839
L446.633 381.919
L446.94 381.999
L447.043 382.075
L447.452 382.169
L447.555 382.212
L449.091 382.307
L449.194 382.358
L449.603 382.455
L449.706 382.528
L450.013 382.606
L450.116 382.685
L450.628 382.78
L450.73 382.813
L453.598 382.714
L453.701 382.674
L455.237 382.772
L455.339 382.829
L455.749 382.923
L455.852 382.968
L456.466 383.071
L456.569 383.113
L457.081 383.202
L457.183 383.259
L458.105 383.367
L458.207 383.401
L458.924 383.503
L459.027 383.524
L459.744 383.631
L459.846 383.696
L460.256 383.796
L460.359 383.869
L460.666 383.949
L460.768 384.024
L461.28 384.121
L461.383 384.152
L461.895 384.245
L461.997 384.307
L462.305 384.384
L462.407 384.464
L462.714 384.545
L462.817 384.615
L463.329 384.726
L463.431 384.78
L464.046 384.885
L464.148 384.931
L464.558 385.029
L464.661 385.125
L464.968 385.217
L465.07 385.291
L465.48 385.39
L465.582 385.463
L465.992 385.552
L466.095 385.605
L467.221 385.699
L467.324 385.76
L467.733 385.864
L467.836 385.91
L469.987 385.807
L470.089 385.738
L470.601 385.637
L470.704 385.577
L471.011 385.493
L471.114 385.399
L471.421 385.318
L471.523 385.239
L471.933 385.132
L472.035 385.071
L472.445 384.979
L472.548 384.914
L473.06 384.818
L473.162 384.77
L473.674 384.675
L473.777 384.633
L474.391 384.535
L474.494 384.5
L475.006 384.41
L475.108 384.358
L475.62 384.263
L475.723 384.225
L476.133 384.139
L476.235 384.062
L476.542 383.958
L476.645 383.839
L476.85 383.779
L476.952 383.662
L477.157 383.605
L477.259 383.483
L477.464 383.426
L477.567 383.309
L477.874 383.206
L477.976 383.091
L478.284 382.982
L478.386 382.882
L478.693 382.777
L478.796 382.673
L479.103 382.583
L479.206 382.491
L479.41 382.435
L479.513 382.308
L479.718 382.237
L479.82 382.098
L480.025 382.025
L480.127 381.9
L480.435 381.795
L480.537 381.698
L480.844 381.591
L480.947 381.486
L481.254 381.397
L481.357 381.315
L481.664 381.227
L481.766 381.144
L482.074 381.056
L482.176 380.972
L482.483 380.901
L482.586 380.821
L482.893 380.725
L482.995 380.623
L483.303 380.52
L483.405 380.42
L483.712 380.321
L483.815 380.216
L484.122 380.119
L484.225 380.043
L484.634 379.943
L484.737 379.87
L485.044 379.792
L485.146 379.702
L485.556 379.597
L485.659 379.542
L486.068 379.444
L486.171 379.375
L486.785 379.277
L486.888 379.242
L487.4 379.14
L487.502 379.084
L488.731 378.979
L488.834 378.941
L489.756 378.832
L489.858 378.805
L490.37 378.714
L490.473 378.623
L490.78 378.528
L490.882 378.443
L491.19 378.362
L491.292 378.28
L491.599 378.2
L491.702 378.132
L492.112 378.033
L492.214 377.967
L492.624 377.86
L492.726 377.791
L493.136 377.685
L493.238 377.635
L493.955 377.543
L494.058 377.489
L494.57 377.378
L494.672 377.336
L495.287 377.23
L495.389 377.202
L496.516 377.092
L496.619 377.077
L497.336 376.966
L497.438 376.919
L497.95 376.808
L498.053 376.74
L498.462 376.636
L498.565 376.555
L498.872 376.466
L498.974 376.38
L499.282 376.29
L499.384 376.205
L499.691 376.109
L499.794 375.999
L500.101 375.89
L500.204 375.78
L500.408 375.719
L500.511 375.596
L500.716 375.532
L500.818 375.392
L501.023 375.32
L501.125 375.182
L501.33 375.112
L501.433 374.971
L501.638 374.893
L501.74 374.746
L501.945 374.684
L502.047 374.553
L502.252 374.489
L502.355 374.359
L502.559 374.302
L502.662 374.193
L502.969 374.1
L503.072 374.006
L503.379 373.913
L503.481 373.832
L503.789 373.755
L503.891 373.683
L504.198 373.614
L504.301 373.516
L504.506 373.461
L504.608 373.328
L504.813 373.262
L504.915 373.131
L505.12 373.065
L505.223 372.955
L505.53 372.871
L505.632 372.791
L505.94 372.681
L506.042 372.542
L506.247 372.484
L506.349 372.357
L506.554 372.286
L506.657 372.14
L506.861 372.066
L506.964 371.934
L507.169 371.872
L507.271 371.752
L507.476 371.693
L507.578 371.576
L507.886 371.48
L507.988 371.363
L508.193 371.303
L508.295 371.19
L508.603 371.086
L508.705 370.979
L508.91 370.923
L509.012 370.804
L509.217 370.739
L509.32 370.608
L509.525 370.53
L509.627 370.37
L509.832 370.291
L509.934 370.14
L510.139 370.064
L510.242 369.887
L510.446 369.793
L510.549 369.599
L510.754 369.507
L510.856 369.311
L511.061 369.208
L511.163 369.002
L511.368 368.898
L511.471 368.685
L511.676 368.578
L511.778 368.359
L511.88 368.359
L511.983 368.119
L512.085 368.119
L512.188 367.87
L512.29 367.87
L512.393 367.635
L512.495 367.635
L512.597 367.409
L512.7 367.409
L512.802 367.187
L513.007 367.085
L513.11 366.873
L513.314 366.774
L513.417 366.581
L513.622 366.488
L513.724 366.315
L513.929 366.23
L514.032 366.055
L514.236 365.975
L514.339 365.822
L514.544 365.747
L514.646 365.598
L514.851 365.529
L514.953 365.396
L515.158 365.331
L515.261 365.201
L515.466 365.135
L515.568 365.016
L515.773 364.951
L515.875 364.831
L516.08 364.771
L516.183 364.648
L516.387 364.586
L516.49 364.469
L516.797 364.36
L516.9 364.254
L517.207 364.154
L517.309 364.035
L517.514 363.973
L517.617 363.862
L517.924 363.753
L518.026 363.632
L518.231 363.567
L518.334 363.436
L518.538 363.372
L518.641 363.241
L518.846 363.172
L518.948 363.049
L519.255 362.94
L519.358 362.812
L519.665 362.701
L519.768 362.61
L519.972 362.556
L520.075 362.435
L520.28 362.366
L520.382 362.209
L520.587 362.123
L520.689 361.953
L520.894 361.878
L520.997 361.739
L521.202 361.668
L521.304 361.518
L521.509 361.445
L521.611 361.298
L521.816 361.227
L521.919 361.103
L522.123 361.043
L522.226 360.928
L522.533 360.818
L522.636 360.709
L522.84 360.649
L522.943 360.527
L523.148 360.461
L523.25 360.315
L523.455 360.234
L523.557 360.074
L523.762 359.997
L523.865 359.85
L524.07 359.779
L524.172 359.645
L524.377 359.578
L524.479 359.449
L524.684 359.376
L524.787 359.221
L524.991 359.143
L525.094 358.982
L525.299 358.9
L525.401 358.722
L525.606 358.626
L525.708 358.427
L525.913 358.325
L526.016 358.105
L526.118 358.105
L526.221 357.876
L526.425 357.771
L526.528 357.563
L526.733 357.457
L526.835 357.239
L527.04 357.129
L527.142 356.91
L527.347 356.804
L527.45 356.597
L527.655 356.493
L527.757 356.291
L527.962 356.189
L528.064 355.984
L528.269 355.883
L528.372 355.673
L528.576 355.565
L528.679 355.348
L528.884 355.237
L528.986 355.013
L529.191 354.907
L529.293 354.702
L529.498 354.603
L529.601 354.416
L529.806 354.319
L529.908 354.123
L530.113 354.019
L530.215 353.824
L530.42 353.731
L530.523 353.546
L530.727 353.448
L530.83 353.264
L531.035 353.162
L531.137 352.954
L531.342 352.856
L531.444 352.671
L531.649 352.582
L531.752 352.414
L531.957 352.335
L532.059 352.185
L532.264 352.119
L532.366 351.997
L532.571 351.936
L532.674 351.804
L532.879 351.733
L532.981 351.587
L533.186 351.517
L533.288 351.374
L533.493 351.3
L533.596 351.157
L533.8 351.082
L533.903 350.936
L534.108 350.867
L534.21 350.719
L534.415 350.655
L534.517 350.539
L534.825 350.434
L534.927 350.317
L535.132 350.254
L535.234 350.119
L535.439 350.055
L535.542 349.929
L535.747 349.859
L535.849 349.734
L536.156 349.632
L536.259 349.542
L536.566 349.453
L536.668 349.36
L536.976 349.269
L537.078 349.184
L537.385 349.101
L537.488 349.014
L537.795 348.912
L537.898 348.807
L538.205 348.702
L538.307 348.582
L538.615 348.482
L538.717 348.392
L539.024 348.29
L539.127 348.178
L539.434 348.073
L539.536 347.964
L539.844 347.854
L539.946 347.743
L540.151 347.675
L540.253 347.532
L540.458 347.459
L540.561 347.33
L540.766 347.268
L540.868 347.131
L541.073 347.056
L541.175 346.904
L541.38 346.825
L541.483 346.672
L541.687 346.595
L541.79 346.442
L541.995 346.375
L542.097 346.256
L542.404 346.157
L542.507 346.066
L542.814 345.982
L542.917 345.901
L543.224 345.822
L543.326 345.734
L543.634 345.655
L543.736 345.572
L544.043 345.483
L544.146 345.407
L544.453 345.326
L544.555 345.226
L544.863 345.14
L544.965 345.059
L545.272 344.975
L545.375 344.9
L545.682 344.825
L545.785 344.752
L546.194 344.652
L546.297 344.592
L546.706 344.493
L546.809 344.424
L547.219 344.315
L547.321 344.258
L547.526 344.224
L547.526 344.188" style="fill:none;stroke:#0000ff;stroke-width:5.0;"/>
   </g>
   <g id="matplotlib.axis_1">
    <g id="xtick_1">
     <g id="line2d_2">
      <path d="
M158.947 412.239
L158.947 8.51291" style="fill:none;stroke:#000000;stroke-dasharray:1.000000,3.000000;stroke-dashoffset:0.0;stroke-linecap:butt;stroke-width:0.5;"/>
     </g>
     <g id="line2d_3">
      <defs>
       <path d="
M0 0
L0 -4" id="m3fbe6c24f1"/>
      </defs>
      <g>
       <use style="stroke:#000000;stroke-linecap:butt;stroke-width:0.5;" x="158.947029318" xlink:href="#m3fbe6c24f1" y="16.276875"/>
      </g>
     </g>
     <g id="text_1">
      <!-- 5 -->
      <defs>
       <path d="
M10.7969 72.9062
L49.5156 72.9062
L49.5156 64.5938
L19.8281 64.5938
L19.8281 46.7344
Q21.9688 47.4688 24.1094 47.8281
Q26.2656 48.1875 28.4219 48.1875
Q40.625 48.1875 47.75 41.5
Q54.8906 34.8125 54.8906 23.3906
Q54.8906 11.625 47.5625 5.09375
Q40.2344 -1.42188 26.9062 -1.42188
Q22.3125 -1.42188 17.5469 -0.640625
Q12.7969 0.140625 7.71875 1.70312
L7.71875 11.625
Q12.1094 9.23438 16.7969 8.0625
Q21.4844 6.89062 26.7031 6.89062
Q35.1562 6.89062 40.0781 11.3281
Q45.0156 15.7656 45.0156 23.3906
Q45.0156 31 40.0781 35.4375
Q35.1562 39.8906 26.7031 39.8906
Q22.75 39.8906 18.8125 39.0156
Q14.8906 38.1406 10.7969 36.2812
z
" id="BitstreamVeraSans-Roman-35"/>
      </defs>
      <g transform="translate(153.286404318 37.774375)scale(0.24 -0.24)">
       <use xlink:href="#BitstreamVeraSans-Roman-35"/>
      </g>
     </g>
    </g>
    <g id="xtick_2">
     <g id="line2d_4">
      <path d="
M282.515 412.239
L282.515 8.51291" style="fill:none;stroke:#000000;stroke-dasharray:1.000000,3.000000;stroke-dashoffset:0.0;stroke-linecap:butt;stroke-width:0.5;"/>
     </g>
     <g id="line2d_5">
      <defs>
       <path d="
M0 0
L0 -4" id="m3fbe6c24f1"/>
      </defs>
      <g>
       <use style="stroke:#000000;stroke-linecap:butt;stroke-width:0.5;" x="282.515151148" xlink:href="#m3fbe6c24f1" y="16.276875"/>
      </g>
     </g>
     <g id="text_2">
      <!-- 10 -->
      <defs>
       <path d="
M31.7812 66.4062
Q24.1719 66.4062 20.3281 58.9062
Q16.5 51.4219 16.5 36.375
Q16.5 21.3906 20.3281 13.8906
Q24.1719 6.39062 31.7812 6.39062
Q39.4531 6.39062 43.2812 13.8906
Q47.125 21.3906 47.125 36.375
Q47.125 51.4219 43.2812 58.9062
Q39.4531 66.4062 31.7812 66.4062
M31.7812 74.2188
Q44.0469 74.2188 50.5156 64.5156
Q56.9844 54.8281 56.9844 36.375
Q56.9844 17.9688 50.5156 8.26562
Q44.0469 -1.42188 31.7812 -1.42188
Q19.5312 -1.42188 13.0625 8.26562
Q6.59375 17.9688 6.59375 36.375
Q6.59375 54.8281 13.0625 64.5156
Q19.5312 74.2188 31.7812 74.2188" id="BitstreamVeraSans-Roman-30"/>
       <path d="
M12.4062 8.29688
L28.5156 8.29688
L28.5156 63.9219
L10.9844 60.4062
L10.9844 69.3906
L28.4219 72.9062
L38.2812 72.9062
L38.2812 8.29688
L54.3906 8.29688
L54.3906 0
L12.4062 0
z
" id="BitstreamVeraSans-Roman-31"/>
      </defs>
      <g transform="translate(269.360151148 38.089375)scale(0.24 -0.24)">
       <use xlink:href="#BitstreamVeraSans-Roman-31"/>
       <use x="63.623046875" xlink:href="#BitstreamVeraSans-Roman-30"/>
      </g>
     </g>
    </g>
    <g id="xtick_3">
     <g id="line2d_6">
      <path d="
M406.083 412.239
L406.083 8.51291" style="fill:none;stroke:#000000;stroke-dasharray:1.000000,3.000000;stroke-dashoffset:0.0;stroke-linecap:butt;stroke-width:0.5;"/>
     </g>
     <g id="line2d_7">
      <defs>
       <path d="
M0 0
L0 -4" id="m3fbe6c24f1"/>
      </defs>
      <g>
       <use style="stroke:#000000;stroke-linecap:butt;stroke-width:0.5;" x="406.083272978" xlink:href="#m3fbe6c24f1" y="16.276875"/>
      </g>
     </g>
     <g id="text_3">
      <!-- 15 -->
      <g transform="translate(393.179522978 37.774375)scale(0.24 -0.24)">
       <use xlink:href="#BitstreamVeraSans-Roman-31"/>
       <use x="63.623046875" xlink:href="#BitstreamVeraSans-Roman-35"/>
      </g>
     </g>
    </g>
    <g id="xtick_4">
     <g id="line2d_8">
      <path d="
M529.651 412.239
L529.651 8.51291" style="fill:none;stroke:#000000;stroke-dasharray:1.000000,3.000000;stroke-dashoffset:0.0;stroke-linecap:butt;stroke-width:0.5;"/>
     </g>
     <g id="line2d_9">
      <defs>
       <path d="
M0 0
L0 -4" id="m3fbe6c24f1"/>
      </defs>
      <g>
       <use style="stroke:#000000;stroke-linecap:butt;stroke-width:0.5;" x="529.651394807" xlink:href="#m3fbe6c24f1" y="16.276875"/>
      </g>
     </g>
     <g id="text_4">
      <!-- 20 -->
      <defs>
       <path d="
M19.1875 8.29688
L53.6094 8.29688
L53.6094 0
L7.32812 0
L7.32812 8.29688
Q12.9375 14.1094 22.625 23.8906
Q32.3281 33.6875 34.8125 36.5312
Q39.5469 41.8438 41.4219 45.5312
Q43.3125 49.2188 43.3125 52.7812
Q43.3125 58.5938 39.2344 62.25
Q35.1562 65.9219 28.6094 65.9219
Q23.9688 65.9219 18.8125 64.3125
Q13.6719 62.7031 7.8125 59.4219
L7.8125 69.3906
Q13.7656 71.7812 18.9375 73
Q24.125 74.2188 28.4219 74.2188
Q39.75 74.2188 46.4844 68.5469
Q53.2188 62.8906 53.2188 53.4219
Q53.2188 48.9219 51.5312 44.8906
Q49.8594 40.875 45.4062 35.4062
Q44.1875 33.9844 37.6406 27.2188
Q31.1094 20.4531 19.1875 8.29688" id="BitstreamVeraSans-Roman-32"/>
      </defs>
      <g transform="translate(516.057644807 38.089375)scale(0.24 -0.24)">
       <use xlink:href="#BitstreamVeraSans-Roman-32"/>
       <use x="63.623046875" xlink:href="#BitstreamVeraSans-Roman-30"/>
      </g>
     </g>
    </g>
    <g id="xtick_5">
     <g id="line2d_10">
      <defs>
       <path d="
M0 0
L0 -2" id="mf0ff38ea95"/>
      </defs>
      <g>
       <use style="stroke:#000000;stroke-linecap:butt;stroke-width:0.5;" x="60.0925318537" xlink:href="#mf0ff38ea95" y="16.276875"/>
      </g>
     </g>
    </g>
    <g id="xtick_6">
     <g id="line2d_11">
      <defs>
       <path d="
M0 0
L0 -2" id="mf0ff38ea95"/>
      </defs>
      <g>
       <use style="stroke:#000000;stroke-linecap:butt;stroke-width:0.5;" x="84.8061562197" xlink:href="#mf0ff38ea95" y="16.276875"/>
      </g>
     </g>
    </g>
    <g id="xtick_7">
     <g id="line2d_12">
      <defs>
       <path d="
M0 0
L0 -2" id="mf0ff38ea95"/>
      </defs>
      <g>
       <use style="stroke:#000000;stroke-linecap:butt;stroke-width:0.5;" x="109.519780586" xlink:href="#mf0ff38ea95" y="16.276875"/>
      </g>
     </g>
    </g>
    <g id="xtick_8">
     <g id="line2d_13">
      <defs>
       <path d="
M0 0
L0 -2" id="mf0ff38ea95"/>
      </defs>
      <g>
       <use style="stroke:#000000;stroke-linecap:butt;stroke-width:0.5;" x="134.233404952" xlink:href="#mf0ff38ea95" y="16.276875"/>
      </g>
     </g>
    </g>
    <g id="xtick_9">
     <g id="line2d_14">
      <defs>
       <path d="
M0 0
L0 -2" id="mf0ff38ea95"/>
      </defs>
      <g>
       <use style="stroke:#000000;stroke-linecap:butt;stroke-width:0.5;" x="183.660653684" xlink:href="#mf0ff38ea95" y="16.276875"/>
      </g>
     </g>
    </g>
    <g id="xtick_10">
     <g id="line2d_15">
      <defs>
       <path d="
M0 0
L0 -2" id="mf0ff38ea95"/>
      </defs>
      <g>
       <use style="stroke:#000000;stroke-linecap:butt;stroke-width:0.5;" x="208.37427805" xlink:href="#mf0ff38ea95" y="16.276875"/>
      </g>
     </g>
    </g>
    <g id="xtick_11">
     <g id="line2d_16">
      <defs>
       <path d="
M0 0
L0 -2" id="mf0ff38ea95"/>
      </defs>
      <g>
       <use style="stroke:#000000;stroke-linecap:butt;stroke-width:0.5;" x="233.087902416" xlink:href="#mf0ff38ea95" y="16.276875"/>
      </g>
     </g>
    </g>
    <g id="xtick_12">
     <g id="line2d_17">
      <defs>
       <path d="
M0 0
L0 -2" id="mf0ff38ea95"/>
      </defs>
      <g>
       <use style="stroke:#000000;stroke-linecap:butt;stroke-width:0.5;" x="257.801526782" xlink:href="#mf0ff38ea95" y="16.276875"/>
      </g>
     </g>
    </g>
    <g id="xtick_13">
     <g id="line2d_18">
      <defs>
       <path d="
M0 0
L0 -2" id="mf0ff38ea95"/>
      </defs>
      <g>
       <use style="stroke:#000000;stroke-linecap:butt;stroke-width:0.5;" x="307.228775514" xlink:href="#mf0ff38ea95" y="16.276875"/>
      </g>
     </g>
    </g>
    <g id="xtick_14">
     <g id="line2d_19">
      <defs>
       <path d="
M0 0
L0 -2" id="mf0ff38ea95"/>
      </defs>
      <g>
       <use style="stroke:#000000;stroke-linecap:butt;stroke-width:0.5;" x="331.94239988" xlink:href="#mf0ff38ea95" y="16.276875"/>
      </g>
     </g>
    </g>
    <g id="xtick_15">
     <g id="line2d_20">
      <defs>
       <path d="
M0 0
L0 -2" id="mf0ff38ea95"/>
      </defs>
      <g>
       <use style="stroke:#000000;stroke-linecap:butt;stroke-width:0.5;" x="356.656024246" xlink:href="#mf0ff38ea95" y="16.276875"/>
      </g>
     </g>
    </g>
    <g id="xtick_16">
     <g id="line2d_21">
      <defs>
       <path d="
M0 0
L0 -2" id="mf0ff38ea95"/>
      </defs>
      <g>
       <use style="stroke:#000000;stroke-linecap:butt;stroke-width:0.5;" x="381.369648612" xlink:href="#mf0ff38ea95" y="16.276875"/>
      </g>
     </g>
    </g>
    <g id="xtick_17">
     <g id="line2d_22">
      <defs>
       <path d="
M0 0
L0 -2" id="mf0ff38ea95"/>
      </defs>
      <g>
       <use style="stroke:#000000;stroke-linecap:butt;stroke-width:0.5;" x="430.796897344" xlink:href="#mf0ff38ea95" y="16.276875"/>
      </g>
     </g>
    </g>
    <g id="xtick_18">
     <g id="line2d_23">
      <defs>
       <path d="
M0 0
L0 -2" id="mf0ff38ea95"/>
      </defs>
      <g>
       <use style="stroke:#000000;stroke-linecap:butt;stroke-width:0.5;" x="455.510521709" xlink:href="#mf0ff38ea95" y="16.276875"/>
      </g>
     </g>
    </g>
    <g id="xtick_19">
     <g id="line2d_24">
      <defs>
       <path d="
M0 0
L0 -2" id="mf0ff38ea95"/>
      </defs>
      <g>
       <use style="stroke:#000000;stroke-linecap:butt;stroke-width:0.5;" x="480.224146075" xlink:href="#mf0ff38ea95" y="16.276875"/>
      </g>
     </g>
    </g>
    <g id="xtick_20">
     <g id="line2d_25">
      <defs>
       <path d="
M0 0
L0 -2" id="mf0ff38ea95"/>
      </defs>
      <g>
       <use style="stroke:#000000;stroke-linecap:butt;stroke-width:0.5;" x="504.937770441" xlink:href="#mf0ff38ea95" y="16.276875"/>
      </g>
     </g>
    </g>
   </g>
   <g id="matplotlib.axis_2">
    <g id="ytick_1">
     <g id="line2d_26">
      <path d="
M42.6088 388.114
L557.426 388.114" style="fill:none;stroke:#000000;stroke-dasharray:1.000000,3.000000;stroke-dashoffset:0.0;stroke-linecap:butt;stroke-width:0.5;"/>
     </g>
     <g id="line2d_27">
      <defs>
       <path d="
M0 0
L4 0" id="mc91e532072"/>
      </defs>
      <g>
       <use style="stroke:#000000;stroke-linecap:butt;stroke-width:0.5;" x="32.60875" xlink:href="#mc91e532072" y="388.114359497"/>
      </g>
     </g>
     <g id="text_5">
      <!-- -4 -->
      <defs>
       <path d="
M4.89062 31.3906
L31.2031 31.3906
L31.2031 23.3906
L4.89062 23.3906
z
" id="BitstreamVeraSans-Roman-2d"/>
       <path d="
M37.7969 64.3125
L12.8906 25.3906
L37.7969 25.3906
z

M35.2031 72.9062
L47.6094 72.9062
L47.6094 25.3906
L58.0156 25.3906
L58.0156 17.1875
L47.6094 17.1875
L47.6094 0
L37.7969 0
L37.7969 17.1875
L4.89062 17.1875
L4.89062 26.7031
z
" id="BitstreamVeraSans-Roman-34"/>
      </defs>
      <g transform="translate(7.2 396.863109497)scale(0.24 -0.24)">
       <use xlink:href="#BitstreamVeraSans-Roman-2d"/>
       <use x="36.083984375" xlink:href="#BitstreamVeraSans-Roman-34"/>
      </g>
     </g>
    </g>
    <g id="ytick_2">
     <g id="line2d_28">
      <path d="
M42.6088 295.155
L557.426 295.155" style="fill:none;stroke:#000000;stroke-dasharray:1.000000,3.000000;stroke-dashoffset:0.0;stroke-linecap:butt;stroke-width:0.5;"/>
     </g>
     <g id="line2d_29">
      <defs>
       <path d="
M0 0
L4 0" id="mc91e532072"/>
      </defs>
      <g>
       <use style="stroke:#000000;stroke-linecap:butt;stroke-width:0.5;" x="32.60875" xlink:href="#mc91e532072" y="295.154988373"/>
      </g>
     </g>
     <g id="text_6">
      <!-- -3 -->
      <defs>
       <path d="
M40.5781 39.3125
Q47.6562 37.7969 51.625 33
Q55.6094 28.2188 55.6094 21.1875
Q55.6094 10.4062 48.1875 4.48438
Q40.7656 -1.42188 27.0938 -1.42188
Q22.5156 -1.42188 17.6562 -0.515625
Q12.7969 0.390625 7.625 2.20312
L7.625 11.7188
Q11.7188 9.32812 16.5938 8.10938
Q21.4844 6.89062 26.8125 6.89062
Q36.0781 6.89062 40.9375 10.5469
Q45.7969 14.2031 45.7969 21.1875
Q45.7969 27.6406 41.2812 31.2656
Q36.7656 34.9062 28.7188 34.9062
L20.2188 34.9062
L20.2188 43.0156
L29.1094 43.0156
Q36.375 43.0156 40.2344 45.9219
Q44.0938 48.8281 44.0938 54.2969
Q44.0938 59.9062 40.1094 62.9062
Q36.1406 65.9219 28.7188 65.9219
Q24.6562 65.9219 20.0156 65.0312
Q15.375 64.1562 9.8125 62.3125
L9.8125 71.0938
Q15.4375 72.6562 20.3438 73.4375
Q25.25 74.2188 29.5938 74.2188
Q40.8281 74.2188 47.3594 69.1094
Q53.9062 64.0156 53.9062 55.3281
Q53.9062 49.2656 50.4375 45.0938
Q46.9688 40.9219 40.5781 39.3125" id="BitstreamVeraSans-Roman-33"/>
      </defs>
      <g transform="translate(7.7775 303.890613373)scale(0.24 -0.24)">
       <use xlink:href="#BitstreamVeraSans-Roman-2d"/>
       <use x="36.083984375" xlink:href="#BitstreamVeraSans-Roman-33"/>
      </g>
     </g>
    </g>
    <g id="ytick_3">
     <g id="line2d_30">
      <path d="
M42.6088 202.196
L557.426 202.196" style="fill:none;stroke:#000000;stroke-dasharray:1.000000,3.000000;stroke-dashoffset:0.0;stroke-linecap:butt;stroke-width:0.5;"/>
     </g>
     <g id="line2d_31">
      <defs>
       <path d="
M0 0
L4 0" id="mc91e532072"/>
      </defs>
      <g>
       <use style="stroke:#000000;stroke-linecap:butt;stroke-width:0.5;" x="32.60875" xlink:href="#mc91e532072" y="202.195617249"/>
      </g>
     </g>
     <g id="text_7">
      <!-- -2 -->
      <g transform="translate(8.2575 211.101867249)scale(0.24 -0.24)">
       <use xlink:href="#BitstreamVeraSans-Roman-2d"/>
       <use x="36.083984375" xlink:href="#BitstreamVeraSans-Roman-32"/>
      </g>
     </g>
    </g>
    <g id="ytick_4">
     <g id="line2d_32">
      <path d="
M42.6088 109.236
L557.426 109.236" style="fill:none;stroke:#000000;stroke-dasharray:1.000000,3.000000;stroke-dashoffset:0.0;stroke-linecap:butt;stroke-width:0.5;"/>
     </g>
     <g id="line2d_33">
      <defs>
       <path d="
M0 0
L4 0" id="mc91e532072"/>
      </defs>
      <g>
       <use style="stroke:#000000;stroke-linecap:butt;stroke-width:0.5;" x="32.60875" xlink:href="#mc91e532072" y="109.236246124"/>
      </g>
     </g>
     <g id="text_8">
      <!-- -1 -->
      <g transform="translate(8.07 117.984996124)scale(0.24 -0.24)">
       <use xlink:href="#BitstreamVeraSans-Roman-2d"/>
       <use x="36.083984375" xlink:href="#BitstreamVeraSans-Roman-31"/>
      </g>
     </g>
    </g>
    <g id="ytick_5">
     <g id="line2d_34">
      <path d="
M42.6088 16.2769
L557.426 16.2769" style="fill:none;stroke:#000000;stroke-dasharray:1.000000,3.000000;stroke-dashoffset:0.0;stroke-linecap:butt;stroke-width:0.5;"/>
     </g>
     <g id="line2d_35">
      <defs>
       <path d="
M0 0
L4 0" id="mc91e532072"/>
      </defs>
      <g>
       <use style="stroke:#000000;stroke-linecap:butt;stroke-width:0.5;" x="32.60875" xlink:href="#mc91e532072" y="16.276875"/>
      </g>
     </g>
     <g id="text_9">
      <!-- 0 -->
      <g transform="translate(16.515 25.0125)scale(0.24 -0.24)">
       <use xlink:href="#BitstreamVeraSans-Roman-30"/>
      </g>
     </g>
    </g>
    <g id="ytick_6">
     <g id="line2d_36">
      <defs>
       <path d="
M0 0
L2 0" id="m0789224b6b"/>
      </defs>
      <g>
       <use style="stroke:#000000;stroke-linecap:butt;stroke-width:0.5;" x="32.60875" xlink:href="#m0789224b6b" y="406.706233722"/>
      </g>
     </g>
    </g>
    <g id="ytick_7">
     <g id="line2d_37">
      <defs>
       <path d="
M0 0
L2 0" id="m0789224b6b"/>
      </defs>
      <g>
       <use style="stroke:#000000;stroke-linecap:butt;stroke-width:0.5;" x="32.60875" xlink:href="#m0789224b6b" y="369.522485272"/>
      </g>
     </g>
    </g>
    <g id="ytick_8">
     <g id="line2d_38">
      <defs>
       <path d="
M0 0
L2 0" id="m0789224b6b"/>
      </defs>
      <g>
       <use style="stroke:#000000;stroke-linecap:butt;stroke-width:0.5;" x="32.60875" xlink:href="#m0789224b6b" y="350.930611047"/>
      </g>
     </g>
    </g>
    <g id="ytick_9">
     <g id="line2d_39">
      <defs>
       <path d="
M0 0
L2 0" id="m0789224b6b"/>
      </defs>
      <g>
       <use style="stroke:#000000;stroke-linecap:butt;stroke-width:0.5;" x="32.60875" xlink:href="#m0789224b6b" y="332.338736823"/>
      </g>
     </g>
    </g>
    <g id="ytick_10">
     <g id="line2d_40">
      <defs>
       <path d="
M0 0
L2 0" id="m0789224b6b"/>
      </defs>
      <g>
       <use style="stroke:#000000;stroke-linecap:butt;stroke-width:0.5;" x="32.60875" xlink:href="#m0789224b6b" y="313.746862598"/>
      </g>
     </g>
    </g>
    <g id="ytick_11">
     <g id="line2d_41">
      <defs>
       <path d="
M0 0
L2 0" id="m0789224b6b"/>
      </defs>
      <g>
       <use style="stroke:#000000;stroke-linecap:butt;stroke-width:0.5;" x="32.60875" xlink:href="#m0789224b6b" y="276.563114148"/>
      </g>
     </g>
    </g>
    <g id="ytick_12">
     <g id="line2d_42">
      <defs>
       <path d="
M0 0
L2 0" id="m0789224b6b"/>
      </defs>
      <g>
       <use style="stroke:#000000;stroke-linecap:butt;stroke-width:0.5;" x="32.60875" xlink:href="#m0789224b6b" y="257.971239923"/>
      </g>
     </g>
    </g>
    <g id="ytick_13">
     <g id="line2d_43">
      <defs>
       <path d="
M0 0
L2 0" id="m0789224b6b"/>
      </defs>
      <g>
       <use style="stroke:#000000;stroke-linecap:butt;stroke-width:0.5;" x="32.60875" xlink:href="#m0789224b6b" y="239.379365698"/>
      </g>
     </g>
    </g>
    <g id="ytick_14">
     <g id="line2d_44">
      <defs>
       <path d="
M0 0
L2 0" id="m0789224b6b"/>
      </defs>
      <g>
       <use style="stroke:#000000;stroke-linecap:butt;stroke-width:0.5;" x="32.60875" xlink:href="#m0789224b6b" y="220.787491473"/>
      </g>
     </g>
    </g>
    <g id="ytick_15">
     <g id="line2d_45">
      <defs>
       <path d="
M0 0
L2 0" id="m0789224b6b"/>
      </defs>
      <g>
       <use style="stroke:#000000;stroke-linecap:butt;stroke-width:0.5;" x="32.60875" xlink:href="#m0789224b6b" y="202.195617249"/>
      </g>
     </g>
    </g>
    <g id="ytick_16">
     <g id="line2d_46">
      <defs>
       <path d="
M0 0
L2 0" id="m0789224b6b"/>
      </defs>
      <g>
       <use style="stroke:#000000;stroke-linecap:butt;stroke-width:0.5;" x="32.60875" xlink:href="#m0789224b6b" y="183.603743024"/>
      </g>
     </g>
    </g>
    <g id="ytick_17">
     <g id="line2d_47">
      <defs>
       <path d="
M0 0
L2 0" id="m0789224b6b"/>
      </defs>
      <g>
       <use style="stroke:#000000;stroke-linecap:butt;stroke-width:0.5;" x="32.60875" xlink:href="#m0789224b6b" y="165.011868799"/>
      </g>
     </g>
    </g>
    <g id="ytick_18">
     <g id="line2d_48">
      <defs>
       <path d="
M0 0
L2 0" id="m0789224b6b"/>
      </defs>
      <g>
       <use style="stroke:#000000;stroke-linecap:butt;stroke-width:0.5;" x="32.60875" xlink:href="#m0789224b6b" y="146.419994574"/>
      </g>
     </g>
    </g>
    <g id="ytick_19">
     <g id="line2d_49">
      <defs>
       <path d="
M0 0
L2 0" id="m0789224b6b"/>
      </defs>
      <g>
       <use style="stroke:#000000;stroke-linecap:butt;stroke-width:0.5;" x="32.60875" xlink:href="#m0789224b6b" y="127.828120349"/>
      </g>
     </g>
    </g>
    <g id="ytick_20">
     <g id="line2d_50">
      <defs>
       <path d="
M0 0
L2 0" id="m0789224b6b"/>
      </defs>
      <g>
       <use style="stroke:#000000;stroke-linecap:butt;stroke-width:0.5;" x="32.60875" xlink:href="#m0789224b6b" y="109.236246124"/>
      </g>
     </g>
    </g>
    <g id="ytick_21">
     <g id="line2d_51">
      <defs>
       <path d="
M0 0
L2 0" id="m0789224b6b"/>
      </defs>
      <g>
       <use style="stroke:#000000;stroke-linecap:butt;stroke-width:0.5;" x="32.60875" xlink:href="#m0789224b6b" y="90.6443718994"/>
      </g>
     </g>
    </g>
    <g id="ytick_22">
     <g id="line2d_52">
      <defs>
       <path d="
M0 0
L2 0" id="m0789224b6b"/>
      </defs>
      <g>
       <use style="stroke:#000000;stroke-linecap:butt;stroke-width:0.5;" x="32.60875" xlink:href="#m0789224b6b" y="72.0524976746"/>
      </g>
     </g>
    </g>
    <g id="ytick_23">
     <g id="line2d_53">
      <defs>
       <path d="
M0 0
L2 0" id="m0789224b6b"/>
      </defs>
      <g>
       <use style="stroke:#000000;stroke-linecap:butt;stroke-width:0.5;" x="32.60875" xlink:href="#m0789224b6b" y="53.4606234497"/>
      </g>
     </g>
    </g>
    <g id="ytick_24">
     <g id="line2d_54">
      <defs>
       <path d="
M0 0
L2 0" id="m0789224b6b"/>
      </defs>
      <g>
       <use style="stroke:#000000;stroke-linecap:butt;stroke-width:0.5;" x="32.60875" xlink:href="#m0789224b6b" y="34.8687492249"/>
      </g>
     </g>
    </g>
   </g>
   <g id="patch_3">
    <path d="
M42.6088 16.2769
L557.426 16.2769" style="fill:none;stroke:#000000;stroke-width:0.8;"/>
   </g>
   <g id="patch_4">
    <path d="
M32.6088 412.239
L32.6088 8.51291" style="fill:none;stroke:#000000;stroke-width:0.8;"/>
   </g>
  </g>
 </g>
 <defs>
  <clipPath id="p51b3ba9df9">
   <rect height="403.726153846" width="514.8175" x="42.60875" y="8.51291050296"/>
  </clipPath>
 </defs>
</svg>
