<?xml version="1.0" encoding="utf-8" standalone="no"?>
<!DOCTYPE svg PUBLIC "-//W3C//DTD SVG 1.1//EN"
  "http://www.w3.org/Graphics/SVG/1.1/DTD/svg11.dtd">
<!-- Created with matplotlib (http://matplotlib.sourceforge.net/) -->
<svg height="419pt" version="1.1" viewBox="0 0 564 419" width="564pt" xmlns="http://www.w3.org/2000/svg" xmlns:xlink="http://www.w3.org/1999/xlink">
 <defs>
  <style type="text/css">
*{stroke-linecap:square;stroke-linejoin:round;}
  </style>
 </defs>
 <g id="figure_1">
  <g id="patch_1">
   <path d="
M2.22045e-16 419.41
L564.604 419.41
L564.604 0
L2.22045e-16 0
z
" style="fill:#ffffff;"/>
  </g>
  <g id="axes_1">
   <g id="patch_2">
    <path d="
M64.6363 412.21
L557.404 412.21
L557.404 7.2
L64.6363 7.2
z
" style="fill:#ffffff;"/>
   </g>
   <g id="line2d_1">
    <path clip-path="url(#p4a37abbc68)" d="
M74.1125 342.137
L83.7039 342.137
L83.7039 360.17
L95.7875 360.17
L95.7875 404.422
L103.747 404.422
L103.747 395.116
L114.439 395.116
L114.439 371.72
L118.39 371.72
L118.39 358.793
L124.736 358.793
L124.736 342.507
L127.367 342.507
L127.367 337.014
L131.887 337.014
L131.887 325.149
L137.37 325.149
L137.37 302.925
L138.947 302.925
L138.947 296.975
L143.133 296.975
L143.133 279.092
L145.561 279.092
L145.561 274.41
L146.688 274.41
L146.688 274.622
L148.792 274.622
L148.792 276.961
L151.634 276.961
L151.634 281.468
L154.171 281.468
L154.171 288.181
L154.959 288.181
L154.959 291.334
L157.179 291.334
L157.179 300.924
L158.55 300.924
L158.55 305.077
L159.207 305.077
L159.207 307.01
L161.076 307.01
L161.076 313.208
L162.244 313.208
L162.244 316.835
L163.895 316.835
L163.895 321.311
L165.931 321.311
L165.931 325.667
L166.887 325.667
L166.887 327.193
L167.351 327.193
L167.351 327.59
L168.252 327.59
L168.252 328.395
L168.69 328.395
L168.69 328.712
L169.543 328.712
L169.543 329.743
L172.306 329.743
L172.306 332.676
L173.039 332.676
L173.039 332.935
L174.099 332.935
L174.099 332.629
L174.442 332.629
L174.442 332.44
L176.085 332.44
L176.085 330.778
L176.4 330.778
L176.4 330.282
L177.322 330.282
L177.322 328.766
L178.209 328.766
L178.209 327.141
L178.783 327.141
L178.783 325.846
L179.618 325.846
L179.618 323.57
L180.424 323.57
L180.424 321.049
L180.687 321.049
L180.687 320.065
L181.959 320.065
L181.959 315.046
L182.206 315.046
L182.206 314.111
L182.691 314.111
L182.691 312.237
L182.93 312.237
L182.93 311.27
L184.315 311.27
L184.315 305.771
L185.623 305.771
L185.623 300.275
L186.044 300.275
L186.044 298.402
L186.251 298.402
L186.251 297.468
L186.661 297.468
L186.661 295.763
L187.262 295.763
L187.262 293.037
L187.46 293.037
L187.46 292.128
L188.421 292.128
L188.421 287.72
L188.98 287.72
L188.98 284.999
L189.526 284.999
L189.526 282.316
L190.06 282.316
L190.06 279.578
L190.235 279.578
L190.235 278.668
L190.753 278.668
L190.753 276.236
L191.092 276.236
L191.092 274.721
L191.26 274.721
L191.26 273.949
L192.081 273.949
L192.081 270.341
L193.185 270.341
L193.185 266.105
L193.492 266.105
L193.492 265.039
L193.643 265.039
L193.643 264.47
L193.944 264.47
L193.944 263.306
L194.966 263.306
L194.966 259.889
L195.391 259.889
L195.391 258.436
L196.083 258.436
L196.083 256.289
L196.219 256.289
L196.219 255.871
L196.488 255.871
L196.488 254.969
L196.887 254.969
L196.887 253.615
L197.408 253.615
L197.408 251.636
L197.792 251.636
L197.792 250.158
L198.169 250.158
L198.169 248.734
L198.418 248.734
L198.418 247.906
L198.785 247.906
L198.785 246.605
L199.267 246.605
L199.267 244.886
L199.504 244.886
L199.504 244.067
L199.971 244.067
L199.971 242.441
L200.543 242.441
L200.543 240.327
L200.655 240.327
L200.655 239.886
L201.211 239.886
L201.32 237.121
L201.646 237.121
L201.646 235.873
L201.86 235.873
L201.86 234.986
L202.178 234.986
L202.178 233.674
L202.596 233.674
L202.596 231.868
L202.802 231.868
L202.905 230.604
L203.108 230.604
L203.108 229.731
L203.708 229.731
L203.708 227.377
L204.1 227.377
L204.1 225.884
L204.294 225.884
L204.294 225.172
L204.676 225.172
L204.676 223.786
L204.865 223.786
L204.865 223.091
L205.145 223.091
L205.145 221.981
L205.697 221.981
L205.787 219.406
L206.588 219.406
L206.588 216.157
L206.849 216.157
L206.849 215.043
L207.277 215.043
L207.277 213.173
L207.531 213.173
L207.531 212.075
L207.781 212.075
L207.864 210.643
L208.112 210.643
L208.112 209.603
L208.518 209.603
L208.518 207.865
L208.759 207.865
L208.759 206.797
L208.997 206.797
L209.076 205.333
L209.311 205.333
L209.311 204.208
L209.543 204.208
L209.543 203.089
L209.697 203.089
L209.774 202.024
L210.228 202.024
L210.228 199.959
L210.6 199.959
L210.674 197.889
L210.82 197.889
L210.82 197.243
L211.039 197.243
L211.039 196.274
L211.255 196.274
L211.327 194.976
L211.752 194.976
L211.752 193.167
L211.892 193.167
L211.892 192.592
L212.101 192.592
L212.101 191.705
L212.377 191.705
L212.377 190.474
L212.716 190.474
L212.716 188.951
L212.985 188.951
L212.985 187.779
L213.316 187.779
L213.316 186.425
L213.578 186.425
L213.578 185.407
L213.772 185.407
L213.772 184.644
L213.965 184.644
L213.965 183.905
L214.093 183.905
L214.093 183.411
L214.346 183.411
L214.346 182.429
L214.534 182.429
L214.534 181.736
L214.659 181.736
L214.659 181.254
L214.907 181.254
L214.907 180.294
L215.029 180.294
L215.029 179.849
L215.454 179.849
L215.454 178.358
L215.753 178.358
L215.753 177.319
L216.106 177.319
L216.164 175.885
L216.454 175.885
L216.512 174.756
L216.627 174.756
L216.684 174.21
L216.967 174.21
L216.967 173.242
L217.359 173.242
L217.469 171.649
L217.525 171.649
L217.635 171.124
L218.015 171.124
L218.123 169.578
L218.176 169.578
L218.283 169.014
L218.811 169.014
L218.915 166.733
L219.122 166.733
L219.122 165.931
L219.378 165.931
L219.378 164.985
L219.581 164.985
L219.681 163.833
L219.832 163.833
L219.832 163.301
L219.981 163.301
L219.981 162.747
L220.326 162.747
L220.424 161.138
L220.569 161.138
L220.569 160.614
L220.714 160.614
L220.714 160.099
L220.906 160.099
L220.906 159.444
L221.049 159.444
L221.049 158.956
L221.332 158.956
L221.425 157.698
L221.565 157.698
L221.611 157.07
L221.842 157.07
L221.888 156.179
L222.025 156.179
L222.025 155.718
L222.251 155.718
L222.297 154.858
L222.521 154.858
L222.565 154.015
L222.698 154.015
L222.698 153.62
L223.093 153.62
L223.18 152.123
L223.223 152.123
L223.31 151.702
L223.439 151.702
L223.439 151.292
L223.567 151.292
L223.567 150.876
L223.737 150.876
L223.737 150.349
L223.864 150.349
L223.864 149.942
L223.99 149.942
L223.99 149.543
L224.447 149.543
L224.488 148.055
L224.692 148.055
L224.692 147.433
L224.854 147.433
L224.854 146.955
L225.055 146.955
L225.055 146.339
L225.175 146.339
L225.175 145.96
L225.294 145.96
L225.294 145.578
L225.452 145.578
L225.452 145.062
L225.688 145.062
L225.765 143.998
L225.882 143.998
L225.882 143.589
L225.998 143.589
L226.036 143.04
L226.151 143.04
L226.151 142.641
L226.379 142.641
L226.379 141.848
L226.568 141.848
L226.568 141.174
L226.904 141.174
L227.015 139.485
L227.125 139.485
L227.162 138.905
L227.271 138.905
L227.381 138.045
L227.453 138.045
L227.453 137.758
L227.669 137.758
L227.705 136.734
L227.812 136.734
L227.812 136.312
L228.411 136.312
L228.515 133.685
L228.618 133.685
L228.618 133.307
L228.756 133.307
L228.756 132.805
L229.062 132.805
L229.062 131.681
L229.231 131.681
L229.231 131.085
L229.465 131.085
L229.564 129.944
L229.63 129.944
L229.729 129.394
L229.86 129.394
L229.958 128.637
L230.056 128.637
L230.056 128.303
L230.249 128.303
L230.249 127.621
L230.41 127.621
L230.505 126.761
L230.601 126.659
L230.695 126.152
L230.884 126.152
L230.884 125.58
L231.071 125.58
L231.071 125.031
L231.195 125.031
L231.195 124.652
L231.38 124.652
L231.472 123.781
L231.533 123.781
L231.624 123.337
L231.745 123.337
L231.805 122.84
L231.925 122.84
L231.985 122.365
L232.193 122.365
L232.253 121.657
L232.341 121.657
L232.429 121.177
L232.517 121.177
L232.546 120.837
L232.634 120.837
L232.634 120.582
L232.779 120.582
L232.779 120.161
L233.066 120.161
L233.151 119.1
L233.208 119.1
L233.237 118.87
L233.574 118.87
L233.658 117.814
L233.797 117.814
L233.797 117.458
L233.962 117.458
L233.99 116.934
L234.127 116.934
L234.236 116.292
L234.317 116.292
L234.398 115.886
L234.479 115.886
L234.479 115.697
L234.72 115.697
L234.8 114.918
L234.853 114.918
L234.879 114.722
L235.037 114.722
L235.037 114.317
L235.168 114.317
L235.168 113.983
L235.324 113.983
L235.428 113.32
L235.634 113.32
L235.634 112.781
L235.812 112.781
L235.889 112.123
L235.939 112.123
L236.04 111.716
L236.166 111.716
L236.166 111.376
L236.315 111.376
L236.39 110.782
L236.464 110.782
L236.464 110.588
L236.686 110.588
L236.71 109.969
L236.905 109.969
L236.93 109.427
L237.195 109.427
L237.267 108.567
L237.362 108.567
L237.433 108.152
L237.481 108.152
L237.552 107.862
L237.646 107.862
L237.717 107.494
L237.834 107.494
L237.857 107.191
L237.973 107.191
L237.973 106.92
L238.135 106.92
L238.135 106.543
L238.25 106.543
L238.319 106.133
L238.455 106.133
L238.546 105.641
L238.659 105.641
L238.659 105.401
L238.794 105.401
L238.816 105.089
L238.995 105.089
L239.084 104.592
L239.15 104.513
L239.26 104.296
L239.348 104.296
L239.348 104.156
L239.544 104.156
L239.544 103.853
L239.803 103.853
L239.91 103.271
L239.996 103.271
L239.996 103.144
L240.165 103.144
L240.229 102.802
L240.313 102.802
L240.313 102.687
L240.481 102.687
L240.543 102.353
L240.626 102.353
L240.688 102.143
L240.792 102.06
L240.792 102.009
L240.915 102.009
L240.935 101.844
L241.159 101.844
L241.24 101.504
L241.341 101.425
L241.402 101.307
L241.542 101.307
L241.641 101.022
L241.76 100.936
L241.819 100.839
L241.937 100.839
L241.996 100.663
L242.191 100.602
L242.288 100.376
L242.404 100.376
L242.481 100.173
L242.823 100.082
L242.823 99.8343
L242.993 99.8343
L243.086 99.5754
L243.198 99.499
L243.273 99.3713
L243.531 99.3034
L243.641 98.9355
L243.804 98.9154
L243.913 98.6188
L244.021 98.6188
L244.021 98.4846
L244.146 98.4846
L244.253 98.1866
L244.36 98.1374
L244.466 97.9009
L244.607 97.7962
L244.712 97.6359
L244.868 97.5578
L244.972 97.3305
L245.195 97.2209
L245.281 97.0259
L245.399 96.9266
L245.501 96.8019
L245.636 96.8019
L245.636 96.6695
L245.753 96.6695
L245.836 96.4651
L245.952 96.397
L245.985 96.3084
L246.134 96.3084
L246.199 96.0785
L246.33 95.9816
L246.379 95.8596
L246.525 95.7778
L246.622 95.5553
L246.734 95.5553
L246.814 95.3292
L247.1 95.2528
L247.194 94.9142
L247.398 94.8147
L247.491 94.5855
L247.584 94.5855
L247.63 94.4136
L247.723 94.4136
L247.799 94.2013
L247.952 94.2013
L248.043 93.8971
L248.164 93.8971
L248.164 93.7489
L248.359 93.7489
L248.404 93.4563
L248.493 93.4563
L248.568 93.2329
L248.657 93.2329
L248.76 92.9508
L248.848 92.9045
L248.848 92.8109
L249.008 92.8109
L249.067 92.4711
L249.153 92.4711
L249.153 92.3443
L249.355 92.3443
L249.455 91.8936
L249.569 91.791
L249.668 91.5688
L249.781 91.5209
L249.88 91.2154
L249.992 91.2154
L250.006 91.0016
L250.117 91.0016
L250.159 90.7575
L250.297 90.7575
L250.407 90.3813
L250.489 90.304
L250.544 90.1872
L250.693 90.1872
L250.747 89.8957
L250.828 89.8957
L250.936 89.6183
L251.016 89.5611
L251.07 89.4273
L251.15 89.3277
L251.229 89.1947
L251.374 89.0883
L251.466 88.9011
L251.571 88.8262
L251.662 88.6773
L251.805 88.6327
L251.895 88.4047
L252.011 88.3746
L252.075 88.1843
L252.19 88.1217
L252.279 87.9488
L252.455 87.9071
L252.506 87.6847
L252.656 87.6104
L252.718 87.4193
L252.83 87.4193
L252.904 87.1693
L252.99 87.1693
L253.088 86.9268
L253.198 86.8195
L253.247 86.7237
L253.356 86.7237
L253.453 86.4498
L253.573 86.3814
L253.597 86.2366
L253.717 86.2366
L253.717 86.0643
L253.848 86.0643
L253.954 85.7551
L254.072 85.6546
L254.072 85.6132
L254.201 85.6132
L254.248 85.4098
L254.341 85.4098
L254.445 85.1617
L254.56 85.1036
L254.664 84.8991
L254.801 84.8271
L254.835 84.6923
L254.937 84.6923
L254.937 84.5691
L255.073 84.5691
L255.174 84.3057
L255.297 84.2363
L255.397 84.0544
L255.53 83.9502
L255.607 83.7686
L255.772 83.7686
L255.837 83.4271
L255.935 83.3504
L256.022 83.1772
L256.119 83.1772
L256.216 82.9198
L256.387 82.8163
L256.472 82.5586
L256.599 82.5124
L256.662 82.2892
L256.767 82.1893
L256.82 82.0767
L256.945 82.0767
L257.049 81.7744
L257.173 81.6655
L257.234 81.5204
L257.327 81.5204
L257.419 81.239
L257.51 81.1414
L257.591 80.9582
L257.682 80.91
L257.743 80.7304
L257.833 80.7304
L257.893 80.5161
L257.983 80.5161
L258.023 80.3379
L258.142 80.3379
L258.231 80.0337
L258.309 79.9502
L258.378 79.8286
L258.524 79.8286
L258.602 79.5369
L258.728 79.4592
L258.805 79.2566
L258.891 79.1681
L258.987 79.0354
L259.13 78.9584
L259.234 78.7831
L259.375 78.7029
L259.469 78.4844
L259.571 78.381
L259.664 78.2535
L259.877 78.154
L259.987 77.8744
L260.105 77.7848
L260.16 77.6864
L260.26 77.5956
L260.287 77.5445
L260.395 77.5445
L260.485 77.3183
L260.61 77.2142
L260.717 77.0772
L260.928 76.9939
L261.007 76.7755
L261.147 76.6893
L261.226 76.5553
L261.347 76.4558
L261.45 76.3174
L261.562 76.2267
L261.579 76.1822
L261.69 76.1822
L261.792 75.9629
L261.969 75.923
L262.07 75.7025
L262.22 75.6179
L262.295 75.5068
L262.444 75.4546
L262.493 75.3575
L262.665 75.2523
L262.755 75.1528
L262.901 75.0502
L262.982 74.962
L263.199 74.8536
L263.262 74.7386
L263.429 74.6891
L263.532 74.5152
L263.673 74.4198
L263.767 74.3307
L263.946 74.223
L264.023 74.1212
L264.177 74.018
L264.276 73.8849
L264.39 73.7997
L264.496 73.6571
L264.609 73.5791
L264.7 73.4542
L264.819 73.3567
L264.909 73.233
L265.02 73.1345
L265.13 72.9644
L265.219 72.859
L265.328 72.7196
L265.474 72.6784
L265.582 72.4256
L265.691 72.3208
L265.784 72.191
L265.891 72.1411
L265.976 71.9695
L266.076 71.8934
L266.181 71.7378
L266.329 71.6677
L266.434 71.4419
L266.545 71.3901
L266.607 71.234
L266.704 71.1433
L266.807 70.9973
L266.971 70.9249
L267.073 70.677
L267.194 70.5757
L267.295 70.3982
L267.416 70.2917
L267.516 70.1384
L267.655 70.059
L267.741 69.8713
L267.84 69.8104
L267.938 69.6454
L268.088 69.5891
L268.172 69.411
L268.302 69.3346
L268.366 69.2235
L268.5 69.1528
L268.57 69.0405
L268.71 68.9699
L268.805 68.822
L268.912 68.7229
L269.012 68.592
L269.105 68.523
L269.161 68.404
L269.248 68.3135
L269.347 68.1643
L269.457 68.0833
L269.567 67.9022
L269.677 67.8809
L269.78 67.6621
L269.871 67.595
L269.961 67.4457
L270.069 67.3632
L270.164 67.2083
L270.289 67.1678
L270.36 66.978
L270.466 66.9048
L270.571 66.7393
L270.67 66.6399
L270.781 66.4866
L270.867 66.4169
L270.954 66.2448
L271.074 66.1514
L271.172 65.9208
L271.263 65.8349
L271.359 65.6481
L271.517 65.5381
L271.595 65.2981
L271.746 65.2164
L271.852 64.9324
L271.946 64.8441
L272.045 64.6836
L272.149 64.574
L272.242 64.4322
L272.329 64.3321
L272.437 64.1435
L272.518 64.037
L272.62 63.8621
L272.695 63.7881
L272.797 63.5971
L272.892 63.5738
L272.998 63.3012
L273.093 63.2698
L273.203 62.9987
L273.333 62.8893
L273.442 62.6206
L273.546 62.5101
L273.639 62.3053
L273.715 62.2253
L273.823 61.9757
L273.899 61.9195
L273.995 61.6667
L274.066 61.5727
L274.177 61.3632
L274.277 61.2905
L274.367 61.0434
L274.456 60.9372
L274.501 60.8049
L274.59 60.8049
L274.698 60.4483
L274.772 60.3649
L274.86 60.1377
L274.948 60.0274
L275.035 59.802
L275.117 59.7026
L275.204 59.4886
L275.281 59.4022
L275.367 59.1949
L275.448 59.0912
L275.524 58.9149
L275.604 58.9149
L275.68 58.6291
L275.746 58.5341
L275.849 58.3058
L275.914 58.2039
L276.012 57.9766
L276.082 57.9195
L276.193 57.6042
L276.262 57.5355
L276.372 57.2262
L276.445 57.1324
L276.513 56.9361
L276.577 56.9361
L276.658 56.6443
L276.74 56.5362
L276.812 56.3334
L276.874 56.3334
L276.982 55.9857
L277.053 55.8793
L277.16 55.6319
L277.239 55.5284
L277.345 55.273
L277.406 55.1975
L277.511 54.9631
L277.589 54.8818
L277.646 54.709
L277.706 54.709
L277.814 54.3924
L277.9 54.3257
L277.995 54.0458
L278.084 53.9594
L278.186 53.6999
L278.262 53.6408
L278.359 53.3969
L278.435 53.2858
L278.539 53.0858
L278.623 53.0068
L278.71 52.8203
L278.785 52.7148
L278.888 52.5295
L278.994 52.4276
L279.093 52.196
L279.166 52.1168
L279.263 51.9181
L279.336 51.8521
L279.389 51.7101
L279.457 51.7101
L279.565 51.407
L279.637 51.2985
L279.721 51.1508
L279.808 51.0536
L279.914 50.8586
L279.997 50.7536
L280.099 50.5991
L280.181 50.5499
L280.286 50.3336
L280.367 50.2524
L280.464 50.084
L280.567 49.9783
L280.678 49.7941
L280.773 49.6982
L280.872 49.5146
L280.944 49.409
L281.034 49.2516
L281.124 49.1582
L281.221 48.9408
L281.314 48.8423
L281.411 48.6288
L281.481 48.5351
L281.591 48.3377
L281.686 48.2354
L281.796 47.994
L281.861 47.8921
L281.963 47.7084
L282.06 47.6049
L282.132 47.4245
L282.207 47.3285
L282.318 47.1221
L282.389 47.0185
L282.477 46.8563
L282.548 46.7456
L282.646 46.5651
L282.727 46.4598
L282.821 46.2732
L282.894 46.1736
L283.002 45.9836
L283.074 45.8754
L283.174 45.7119
L283.256 45.641
L283.349 45.438
L283.43 45.3341
L283.491 45.2093
L283.566 45.0986
L283.667 44.9393
L283.787 44.8489
L283.894 44.592
L283.967 44.4828
L284.054 44.3424
L284.126 44.2435
L284.232 44.0587
L284.313 43.9543
L284.408 43.7588
L284.476 43.6567
L284.587 43.4599
L284.651 43.3808
L284.761 43.1647
L284.828 43.0708
L284.93 42.8616
L285 42.7576
L285.111 42.5393
L285.2 42.468
L285.31 42.1972
L285.385 42.093
L285.491 41.8687
L285.556 41.7683
L285.658 41.5599
L285.723 41.4945
L285.822 41.2665
L285.895 41.1585
L285.996 40.9427
L286.06 40.8524
L286.169 40.6246
L286.232 40.5199
L286.332 40.3316
L286.404 40.2212
L286.496 40.0459
L286.568 39.9398
L286.666 39.7677
L286.755 39.6894
L286.858 39.4692
L286.975 39.3825
L287.077 39.1351
L287.173 39.0296
L287.262 38.8532
L287.337 38.7537
L287.424 38.6095
L287.501 38.5268
L287.604 38.3232
L287.68 38.2336
L287.785 38.0623
L287.875 37.9853
L287.985 37.789
L288.088 37.6858
L288.197 37.4985
L288.288 37.3905
L288.393 37.2335
L288.495 37.1292
L288.599 36.9503
L288.691 36.8436
L288.794 36.6947
L288.878 36.6181
L288.972 36.4581
L289.069 36.3516
L289.176 36.1936
L289.264 36.1139
L289.372 35.9319
L289.454 35.8406
L289.556 35.6839
L289.648 35.6013
L289.752 35.4357
L289.866 35.329
L289.975 35.1713
L290.067 35.0632
L290.169 34.9317
L290.289 34.8241
L290.396 34.6555
L290.504 34.5475
L290.607 34.3972
L290.705 34.3177
L290.809 34.1388
L290.921 34.0492
L291.032 33.8663
L291.128 33.776
L291.238 33.6135
L291.321 33.5122
L291.423 33.3563
L291.503 33.2638
L291.611 33.0771
L291.688 32.9831
L291.798 32.7969
L291.881 32.7136
L291.981 32.5308
L292.068 32.4199
L292.174 32.2603
L292.256 32.1666
L292.363 32.0019
L292.452 31.8935
L292.549 31.7455
L292.627 31.6356
L292.731 31.4888
L292.817 31.3871
L292.922 31.2384
L293.011 31.1386
L293.119 30.9946
L293.214 30.8887
L293.321 30.7565
L293.439 30.6466
L293.526 30.5192
L293.659 30.4171
L293.714 30.323
L293.915 30.2319
L294.009 30.022
L294.197 29.9333
L294.294 29.751
L294.503 29.6513
L294.605 29.444
L294.803 29.3548
L294.889 29.1772
L295.091 29.0886
L295.188 28.8981
L295.374 28.8138
L295.484 28.6419
L295.667 28.5658
L295.772 28.4046
L295.963 28.3308
L296.06 28.1763
L296.255 28.1067
L296.357 27.9413
L296.572 27.8437
L296.648 27.672
L296.853 27.5761
L296.949 27.3994
L297.146 27.3203
L297.235 27.1606
L297.435 27.0779
L297.546 26.8972
L297.753 26.8364
L297.825 26.7046
L298.025 26.631
L298.117 26.5147
L298.318 26.4578
L298.416 26.3484
L298.706 26.2377
L298.802 26.1319
L298.998 26.0576
L299.098 25.9069
L299.293 25.8306
L299.397 25.675
L299.587 25.5967
L299.686 25.458
L299.894 25.3826
L299.987 25.2396
L300.176 25.1663
L300.273 25.032
L300.471 24.9736
L300.57 24.8744
L300.874 24.7757
L300.961 24.6828
L301.257 24.578
L301.351 24.4647
L301.562 24.4045
L301.646 24.3031
L301.941 24.2134
L302.039 24.128
L302.334 24.0342
L302.443 23.9393
L302.738 23.8402
L302.825 23.734
L303.122 23.6338
L303.22 23.5404
L303.609 23.441
L303.709 23.3783
L304.099 23.2893
L304.201 23.2291
L304.687 23.1214
L304.786 23.0652
L305.181 22.9727
L305.277 22.8829
L305.572 22.7759
L305.671 22.6531
L305.864 22.5822
L305.96 22.458
L306.171 22.3871
L306.256 22.2529
L306.454 22.1919
L306.549 22.0891
L306.751 22.0363
L306.843 21.9286
L307.137 21.8328
L307.238 21.7366
L307.534 21.643
L307.628 21.5473
L307.92 21.4669
L308.021 21.396
L308.314 21.3146
L308.418 21.2227
L308.709 21.1189
L308.814 20.9951
L309.009 20.9381
L309.098 20.8113
L309.297 20.7449
L309.399 20.6177
L309.592 20.5569
L309.693 20.4393
L309.893 20.3866
L309.98 20.283
L310.306 20.1952
L310.374 20.1041
L310.667 20.0077
L310.769 19.9236
L311.06 19.8278
L311.158 19.7177
L311.356 19.6594
L311.45 19.5487
L311.658 19.4874
L311.755 19.3633
L311.942 19.3028
L312.04 19.1696
L312.239 19.103
L312.336 18.9721
L312.536 18.9021
L312.629 18.788
L312.827 18.7284
L312.921 18.6269
L313.215 18.5247
L313.315 18.4139
L313.515 18.3512
L313.608 18.2125
L313.806 18.1429
L313.901 17.9984
L314.105 17.9233
L314.198 17.7824
L314.394 17.7114
L314.49 17.5578
L314.688 17.4742
L314.783 17.313
L314.984 17.2295
L315.077 17.0946
L315.281 17.0265
L315.374 16.8933
L315.575 16.8335
L315.67 16.7224
L315.961 16.6251
L316.058 16.5279
L316.357 16.4312
L316.451 16.3324
L316.752 16.2272
L316.843 16.1134
L317.136 16.003
L317.239 15.8915
L317.437 15.8348
L317.53 15.716
L317.825 15.6069
L317.924 15.4971
L318.119 15.4358
L318.216 15.3266
L318.51 15.2367
L318.609 15.1705
L319.299 15.0709
L319.391 15.0454
L321.554 15.1329
L321.652 15.1968
L322.04 15.2886
L322.136 15.3522
L322.534 15.4393
L322.631 15.4978
L323.022 15.5858
L323.12 15.6332
L323.805 15.7428
L323.902 15.784
L324.491 15.8843
L324.589 15.9129
L325.764 16.0116
L325.864 16.0508
L326.943 16.1552
L327.042 16.187
L327.824 16.2965
L327.922 16.3335
L328.608 16.4346
L328.708 16.4707
L329.391 16.568
L329.493 16.6051
L329.98 16.6936
L330.08 16.7388
L330.673 16.844
L330.765 16.9044
L331.159 16.997
L331.255 17.061
L331.647 17.1701
L331.753 17.2586
L332.04 17.347
L332.137 17.4361
L332.431 17.5267
L332.531 17.6284
L332.726 17.6862
L332.827 17.8095
L333.021 17.8738
L333.118 18.0156
L333.314 18.088
L333.413 18.2295
L333.608 18.3027
L333.705 18.4396
L333.903 18.5104
L334 18.6564
L334.196 18.7284
L334.295 18.8812
L334.49 18.963
L334.589 19.1222
L334.785 19.2014
L334.885 19.3647
L335.078 19.4453
L335.177 19.6223
L335.372 19.7108
L335.472 19.8848
L335.669 19.9675
L335.765 20.1463
L335.965 20.2361
L336.062 20.4071
L336.255 20.4893
L336.355 20.6549
L336.55 20.7382
L336.648 20.8985
L336.844 20.9696
L336.944 21.0965
L337.139 21.1507
L337.235 21.2632
L337.529 21.3728
L337.627 21.4731
L337.923 21.5629
L338.024 21.6626
L338.217 21.7145
L338.316 21.8363
L338.608 21.9423
L338.708 22.0399
L338.999 22.1291
L339.099 22.2164
L339.393 22.3038
L339.491 22.3992
L339.784 22.493
L339.882 22.5876
L340.178 22.685
L340.276 22.7818
L340.576 22.8795
L340.669 22.9525
L341.159 23.0504
L341.255 23.0905
L342.039 23.1987
L342.138 23.2057
L345.863 23.3152
L345.961 23.3318
L347.138 23.4422
L347.237 23.4827
L347.824 23.5863
L347.923 23.6515
L348.314 23.7476
L348.412 23.818
L348.708 23.9037
L348.804 23.9986
L349.098 24.0836
L349.197 24.1632
L349.49 24.2571
L349.588 24.3542
L349.884 24.4453
L349.981 24.5279
L350.276 24.6215
L350.373 24.7062
L350.765 24.8101
L350.863 24.8805
L351.157 24.9572
L351.255 25.0309
L351.549 25.1103
L351.648 25.2028
L351.941 25.3037
L352.042 25.4114
L352.237 25.468
L352.335 25.5886
L352.531 25.6572
L352.627 25.8
L352.824 25.8727
L352.922 26.0172
L353.119 26.0892
L353.218 26.2369
L353.414 26.3104
L353.51 26.4709
L353.706 26.5515
L353.804 26.7163
L354.001 26.8019
L354.098 26.9711
L354.294 27.0539
L354.393 27.2019
L354.588 27.2721
L354.687 27.4113
L354.882 27.4786
L354.982 27.6239
L355.177 27.6958
L355.276 27.8469
L355.472 27.9189
L355.569 28.0604
L355.765 28.1376
L355.863 28.2893
L356.059 28.3635
L356.157 28.5058
L356.354 28.5754
L356.452 28.7005
L356.745 28.8082
L356.845 28.908
L357.138 28.9999
L357.236 29.1033
L357.53 29.2027
L357.629 29.2983
L357.922 29.3911
L358.02 29.4732
L358.314 29.5502
L358.412 29.6274
L358.805 29.7348
L358.903 29.8057
L359.198 29.8859
L359.295 29.9588
L359.59 30.0308
L359.687 30.1082
L359.981 30.1892
L360.079 30.2814
L360.373 30.3646
L360.471 30.4378
L360.865 30.5487
L360.961 30.6069
L361.451 30.7094
L361.549 30.7718
L362.04 30.8655
L362.138 30.9102
L362.628 31.0064
L362.726 31.0582
L363.216 31.1683
L363.314 31.2128
L363.902 31.3142
L364 31.3442
L364.589 31.4404
L364.687 31.478
L365.471 31.5889
L365.57 31.6042
L366.157 31.693
L366.255 31.7474
L366.648 31.833
L366.746 31.8917
L367.138 31.9736
L367.236 32.0369
L367.531 32.1135
L367.628 32.1817
L368.02 32.2745
L368.119 32.3459
L368.511 32.4345
L368.608 32.4892
L369.098 32.5925
L369.197 32.6328
L372.432 32.7373
L372.53 32.7696
L373.217 32.8781
L373.315 32.9159
L374.197 33.0263
L374.295 33.0528
L374.981 33.1632
L375.079 33.2142
L375.57 33.3196
L375.667 33.3822
L376.06 33.4684
L376.158 33.5273
L376.55 33.6189
L376.648 33.6846
L377.041 33.787
L377.138 33.8606
L377.531 33.9498
L377.628 34.0004
L378.02 34.0971
L378.119 34.1674
L378.511 34.2668
L378.609 34.3202
L379.001 34.4277
L379.099 34.4867
L379.589 34.5819
L379.688 34.6245
L381.844 34.7344
L381.942 34.7475
L382.629 34.8476
L382.727 34.8832
L383.315 34.9904
L383.413 35.0298
L384.001 35.1233
L384.099 35.1636
L385.079 35.2718
L385.177 35.2792
L386.061 35.3807
L386.158 35.4267
L386.648 35.5305
L386.746 35.5864
L387.236 35.6891
L387.335 35.743
L387.825 35.8451
L387.923 35.9009
L388.315 35.9853
L388.413 36.0383
L388.904 36.1345
L389.001 36.1755
L389.492 36.2664
L389.589 36.3211
L389.981 36.41
L390.079 36.4662
L390.57 36.5732
L390.668 36.6132
L391.648 36.7221
L391.746 36.7342
L393.413 36.8344
L393.511 36.8766
L394.001 36.9706
L394.099 37.0176
L394.59 37.1103
L394.688 37.1672
L395.08 37.263
L395.178 37.3262
L395.57 37.4139
L395.668 37.4683
L396.06 37.5539
L396.158 37.6196
L396.55 37.7077
L396.648 37.7689
L397.041 37.8729
L397.139 37.9586
L397.433 38.0484
L397.531 38.1478
L397.825 38.2572
L397.923 38.3568
L398.217 38.4485
L398.315 38.5338
L398.609 38.6145
L398.707 38.7056
L399.001 38.8002
L399.099 38.8854
L399.492 38.9847
L399.59 39.0594
L399.884 39.1374
L399.982 39.2263
L400.276 39.3171
L400.374 39.3949
L400.668 39.4693
L400.766 39.5437
L401.256 39.6428
L401.354 39.6848
L401.845 39.7757
L401.943 39.8185
L402.629 39.9238
L402.727 39.9692
L403.119 40.0503
L403.217 40.1133
L403.707 40.2012
L403.805 40.2508
L404.198 40.3364
L404.296 40.39
L404.884 40.5001
L404.982 40.5414
L405.57 40.6364
L405.668 40.6875
L406.257 40.7957
L406.355 40.829
L407.041 40.9256
L407.139 40.9652
L407.727 41.0717
L407.825 41.1264
L408.315 41.2373
L408.413 41.2819
L409.1 41.3848
L409.198 41.4184
L409.884 41.5238
L409.982 41.5651
L410.57 41.6683
L410.668 41.7119
L411.158 41.8057
L411.257 41.8367
L412.139 41.9457
L412.237 41.9813
L412.727 42.0699
L412.825 42.1257
L413.217 42.2187
L413.316 42.2737
L413.806 42.3753
L413.904 42.4248
L414.59 42.5226
L414.688 42.5541
L415.276 42.6558
L415.374 42.704
L415.865 42.7982
L415.963 42.8424
L416.551 42.9441
L416.649 42.9879
L417.139 43.0911
L417.237 43.1556
L417.629 43.2547
L417.727 43.3164
L418.218 43.4062
L418.316 43.4574
L418.806 43.5526
L418.904 43.6055
L419.394 43.7156
L419.492 43.7664
L419.982 43.8594
L420.08 43.9007
L420.865 43.9972
L420.963 44.0377
L421.453 44.1304
L421.551 44.178
L422.041 44.2793
L422.139 44.327
L422.629 44.4239
L422.727 44.467
L423.218 44.5657
L423.316 44.6126
L423.904 44.7208
L424.002 44.7674
L424.492 44.868
L424.59 44.9223
L424.982 45.0058
L425.081 45.0644
L425.571 45.1708
L425.669 45.2059
L426.257 45.2951
L426.355 45.3466
L426.845 45.4567
L426.943 45.5116
L427.728 45.621
L427.826 45.6343
L430.081 45.7443
L430.081 45.7495
L430.179 45.7487
L434.1 45.8527
L434.199 45.8744
L436.846 45.9805
L436.944 45.9932
L439.983 45.8888
L440.081 45.8673
L440.767 45.7657
L440.865 45.7432
L441.748 45.6456
L441.846 45.6147
L442.63 45.5082
L442.728 45.4834
L444.101 45.3755
L444.199 45.3694
L445.964 45.2631
L446.062 45.2469
L446.748 45.1466
L446.846 45.112
L447.434 45.0141
L447.532 44.9769
L448.415 44.8762
L448.513 44.8497
L449.395 44.7465
L449.493 44.7279
L450.866 44.6181
L450.964 44.5981
L451.552 44.5061
L451.65 44.4588
L452.14 44.3661
L452.238 44.3212
L452.728 44.2236
L452.826 44.1779
L453.513 44.0742
L453.611 44.0442
L454.493 43.9401
L454.591 43.9067
L455.278 43.8089
L455.376 43.7691
L456.258 43.6682
L456.356 43.6379
L457.14 43.5301
L457.238 43.4996
L457.925 43.4042
L458.023 43.3625
L458.611 43.266
L458.709 43.2289
L459.199 43.1387
L459.297 43.0909
L459.787 42.9971
L459.885 42.9583
L460.768 42.8533
L460.866 42.8295
L461.944 42.7239
L462.042 42.7037
L462.729 42.607
L462.827 42.5668
L463.415 42.4557
L463.513 42.4134
L464.101 42.3052
L464.199 42.2657
L464.69 42.1749
L464.788 42.1329
L465.278 42.0427
L465.376 42.0012
L466.16 41.8929
L466.258 41.8728
L467.239 41.775
L467.337 41.7321
L467.729 41.6519
L467.827 41.5868
L468.219 41.4803
L468.317 41.4195
L468.709 41.3369
L468.807 41.2758
L469.2 41.1934
L469.298 41.1317
L469.69 41.0394
L469.788 40.9821
L470.18 40.8969
L470.278 40.8363
L470.67 40.746
L470.768 40.6825
L471.16 40.5925
L471.258 40.5302
L471.651 40.4335
L471.749 40.3655
L472.141 40.2641
L472.239 40.1965
L472.631 40.096
L472.729 40.0285
L473.121 39.939
L473.219 39.8899
L473.709 39.7877
L473.807 39.738
L474.298 39.638
L474.396 39.5909
L474.886 39.4944
L474.984 39.4464
L475.376 39.3565
L475.474 39.2958
L475.866 39.1898
L475.964 39.1197
L476.357 39.0111
L476.455 38.9381
L476.749 38.8593
L476.847 38.7668
L477.141 38.6656
L477.239 38.5676
L477.533 38.4692
L477.631 38.3728
L477.925 38.2845
L478.023 38.1992
L478.317 38.1148
L478.415 38.0315
L478.71 37.953
L478.808 37.8864
L479.2 37.799
L479.298 37.7371
L479.69 37.6435
L479.788 37.5829
L480.18 37.4926
L480.278 37.4356
L480.768 37.327
L480.867 37.2662
L481.259 37.1762
L481.357 37.1123
L481.749 37.0082
L481.847 36.9366
L482.239 36.8281
L482.337 36.754
L482.729 36.6466
L482.827 36.5752
L483.122 36.4979
L483.22 36.426
L483.612 36.3229
L483.71 36.2524
L484.102 36.1469
L484.2 36.0728
L484.592 35.9672
L484.69 35.9022
L485.082 35.8093
L485.18 35.7465
L485.573 35.6529
L485.671 35.5967
L486.063 35.5097
L486.161 35.4559
L486.553 35.3675
L486.651 35.3027
L487.043 35.1991
L487.141 35.1319
L487.533 35.0289
L487.631 34.9647
L488.024 34.8628
L488.122 34.8049
L488.612 34.7023
L488.71 34.6487
L489.2 34.5382
L489.298 34.4813
L489.69 34.3909
L489.788 34.3287
L490.181 34.2417
L490.279 34.1815
L490.769 34.0738
L490.867 34.0202
L491.357 33.9256
L491.455 33.881
L491.945 33.7883
L492.043 33.7417
L492.436 33.661
L492.534 33.5981
L492.926 33.5021
L493.024 33.441
L493.416 33.3492
L493.514 33.2787
L493.906 33.1824
L494.004 33.1166
L494.396 33.0314
L494.494 32.968
L494.887 32.8666
L494.985 32.8024
L495.377 32.715
L495.475 32.6583
L495.867 32.5691
L495.965 32.5097
L496.357 32.4109
L496.455 32.3453
L496.847 32.2538
L496.945 32.1976
L497.338 32.112
L497.436 32.06
L497.926 31.9651
L498.024 31.9187
L498.416 31.8338
L498.514 31.7795
L499.004 31.6715
L499.102 31.6154
L499.495 31.5275
L499.593 31.4739
L500.083 31.3631
L500.181 31.3179
L500.769 31.2183
L500.867 31.1753
L501.357 31.0875
L501.455 31.0354
L501.946 30.9437
L502.044 30.8948
L502.534 30.7957
L502.632 30.7498
L503.22 30.6433
L503.318 30.5888
L503.71 30.5051
L503.808 30.4475
L504.299 30.346
L504.397 30.2975
L504.985 30.1939
L505.083 30.1466
L505.573 30.0381
L505.671 29.982
L506.063 29.8945
L506.161 29.8413
L506.652 29.7441
L506.75 29.6995
L507.338 29.5978
L507.436 29.5642
L508.122 29.4636
L508.22 29.4309
L508.907 29.3284
L509.005 29.2984
L509.789 29.1952
L509.887 29.1595
L510.573 29.0532
L510.671 29.0166
L511.26 28.9067
L511.358 28.8657
L511.946 28.7547
L512.044 28.7127
L512.534 28.618
L512.632 28.571
L513.22 28.4713
L513.319 28.4243
L513.809 28.3214
L513.907 28.2666
L514.397 28.158
L514.495 28.0994
L514.887 28.0099
L514.985 27.9572
L515.377 27.8731
L515.475 27.8192
L515.966 27.7243
L516.064 27.6751
L516.456 27.5883
L516.554 27.5266
L516.946 27.4384
L517.044 27.3782
L517.436 27.2886
L517.534 27.2279
L517.927 27.1355
L518.025 27.0775
L518.417 26.991
L518.515 26.9304
L518.907 26.8426
L519.005 26.7886
L519.495 26.6805
L519.593 26.6242
L519.985 26.5326
L520.083 26.4637
L520.476 26.3726
L520.574 26.3097
L520.966 26.2104
L521.064 26.1451
L521.456 26.0464
L521.554 25.9726
L521.848 25.89
L521.946 25.8077
L522.24 25.7305
L522.338 25.6532
L522.633 25.5789
L522.731 25.5057
L523.123 25.4201
L523.221 25.3651
L523.711 25.2584
L523.809 25.2046
L524.299 25.0973
L524.397 25.0359
L524.789 24.9476
L524.888 24.8845
L525.28 24.7877
L525.378 24.7229
L525.77 24.6169
L525.868 24.5432
L526.26 24.4401
L526.358 24.371
L526.75 24.2795
L526.848 24.2206
L527.241 24.1259
L527.339 24.0587
L527.731 23.9589
L527.829 23.8951
L528.221 23.7986
L528.319 23.7302
L528.711 23.6345
L528.809 23.5716
L529.201 23.4679
L529.299 23.4
L529.692 23.3051
L529.79 23.2507
L530.28 23.1582
L530.378 23.1134
L530.868 23.0163
L530.966 22.9698
L531.456 22.874
L531.554 22.8276
L532.143 22.7348
L532.241 22.6965
L533.123 22.589
L533.221 22.5612
L534.103 22.46
L534.202 22.4318
L535.182 22.3218
L535.28 22.2976
L535.966 22.202
L536.064 22.1652
L536.849 22.0601
L536.947 22.0246
L537.535 21.9279
L537.633 21.8851
L538.221 21.7797
L538.319 21.741
L539.006 21.6375
L539.104 21.5937
L539.692 21.4898
L539.79 21.4539
L540.378 21.3598
L540.476 21.323
L541.359 21.2184
L541.457 21.1958
L542.241 21.0951
L542.339 21.0651
L543.123 20.962
L543.221 20.9342
L544.006 20.8255
L544.104 20.7894
L544.692 20.6796
L544.79 20.6339
L545.28 20.5427
L545.378 20.5015
L545.869 20.4126
L545.967 20.3659
L546.555 20.2643
L546.653 20.2256
L547.241 20.1148
L547.339 20.0726
L547.829 19.9826
L547.927 19.9318
L547.927 19.9318" style="fill:none;stroke:#0000ff;stroke-width:5.0;"/>
   </g>
   <g id="matplotlib.axis_1">
    <g id="xtick_1">
     <g id="line2d_2">
      <path d="
M175.992 412.21
L175.992 7.2" style="fill:none;stroke:#000000;stroke-dasharray:1.000000,3.000000;stroke-dashoffset:0.0;stroke-linecap:butt;stroke-width:0.5;"/>
     </g>
     <g id="line2d_3">
      <defs>
       <path d="
M0 0
L0 -4" id="m3fbe6c24f1"/>
      </defs>
      <g>
       <use style="stroke:#000000;stroke-linecap:butt;stroke-width:0.5;" x="175.991677999" xlink:href="#m3fbe6c24f1" y="342.137097606"/>
      </g>
     </g>
     <g id="text_1">
      <!-- 5 -->
      <defs>
       <path d="
M10.7969 72.9062
L49.5156 72.9062
L49.5156 64.5938
L19.8281 64.5938
L19.8281 46.7344
Q21.9688 47.4688 24.1094 47.8281
Q26.2656 48.1875 28.4219 48.1875
Q40.625 48.1875 47.75 41.5
Q54.8906 34.8125 54.8906 23.3906
Q54.8906 11.625 47.5625 5.09375
Q40.2344 -1.42188 26.9062 -1.42188
Q22.3125 -1.42188 17.5469 -0.640625
Q12.7969 0.140625 7.71875 1.70312
L7.71875 11.625
Q12.1094 9.23438 16.7969 8.0625
Q21.4844 6.89062 26.7031 6.89062
Q35.1562 6.89062 40.0781 11.3281
Q45.0156 15.7656 45.0156 23.3906
Q45.0156 31 40.0781 35.4375
Q35.1562 39.8906 26.7031 39.8906
Q22.75 39.8906 18.8125 39.0156
Q14.8906 38.1406 10.7969 36.2812
z
" id="BitstreamVeraSans-Roman-35"/>
      </defs>
      <g transform="translate(170.331052999 363.634597606)scale(0.24 -0.24)">
       <use xlink:href="#BitstreamVeraSans-Roman-35"/>
      </g>
     </g>
    </g>
    <g id="xtick_2">
     <g id="line2d_4">
      <path d="
M294.267 412.21
L294.267 7.2" style="fill:none;stroke:#000000;stroke-dasharray:1.000000,3.000000;stroke-dashoffset:0.0;stroke-linecap:butt;stroke-width:0.5;"/>
     </g>
     <g id="line2d_5">
      <defs>
       <path d="
M0 0
L0 -4" id="m3fbe6c24f1"/>
      </defs>
      <g>
       <use style="stroke:#000000;stroke-linecap:butt;stroke-width:0.5;" x="294.267289208" xlink:href="#m3fbe6c24f1" y="342.137097606"/>
      </g>
     </g>
     <g id="text_2">
      <!-- 10 -->
      <defs>
       <path d="
M31.7812 66.4062
Q24.1719 66.4062 20.3281 58.9062
Q16.5 51.4219 16.5 36.375
Q16.5 21.3906 20.3281 13.8906
Q24.1719 6.39062 31.7812 6.39062
Q39.4531 6.39062 43.2812 13.8906
Q47.125 21.3906 47.125 36.375
Q47.125 51.4219 43.2812 58.9062
Q39.4531 66.4062 31.7812 66.4062
M31.7812 74.2188
Q44.0469 74.2188 50.5156 64.5156
Q56.9844 54.8281 56.9844 36.375
Q56.9844 17.9688 50.5156 8.26562
Q44.0469 -1.42188 31.7812 -1.42188
Q19.5312 -1.42188 13.0625 8.26562
Q6.59375 17.9688 6.59375 36.375
Q6.59375 54.8281 13.0625 64.5156
Q19.5312 74.2188 31.7812 74.2188" id="BitstreamVeraSans-Roman-30"/>
       <path d="
M12.4062 8.29688
L28.5156 8.29688
L28.5156 63.9219
L10.9844 60.4062
L10.9844 69.3906
L28.4219 72.9062
L38.2812 72.9062
L38.2812 8.29688
L54.3906 8.29688
L54.3906 0
L12.4062 0
z
" id="BitstreamVeraSans-Roman-31"/>
      </defs>
      <g transform="translate(281.112289208 363.949597606)scale(0.24 -0.24)">
       <use xlink:href="#BitstreamVeraSans-Roman-31"/>
       <use x="63.623046875" xlink:href="#BitstreamVeraSans-Roman-30"/>
      </g>
     </g>
    </g>
    <g id="xtick_3">
     <g id="line2d_6">
      <path d="
M412.543 412.21
L412.543 7.2" style="fill:none;stroke:#000000;stroke-dasharray:1.000000,3.000000;stroke-dashoffset:0.0;stroke-linecap:butt;stroke-width:0.5;"/>
     </g>
     <g id="line2d_7">
      <defs>
       <path d="
M0 0
L0 -4" id="m3fbe6c24f1"/>
      </defs>
      <g>
       <use style="stroke:#000000;stroke-linecap:butt;stroke-width:0.5;" x="412.542900418" xlink:href="#m3fbe6c24f1" y="342.137097606"/>
      </g>
     </g>
     <g id="text_3">
      <!-- 15 -->
      <g transform="translate(399.639150418 363.634597606)scale(0.24 -0.24)">
       <use xlink:href="#BitstreamVeraSans-Roman-31"/>
       <use x="63.623046875" xlink:href="#BitstreamVeraSans-Roman-35"/>
      </g>
     </g>
    </g>
    <g id="xtick_4">
     <g id="line2d_8">
      <path d="
M530.819 412.21
L530.819 7.2" style="fill:none;stroke:#000000;stroke-dasharray:1.000000,3.000000;stroke-dashoffset:0.0;stroke-linecap:butt;stroke-width:0.5;"/>
     </g>
     <g id="line2d_9">
      <defs>
       <path d="
M0 0
L0 -4" id="m3fbe6c24f1"/>
      </defs>
      <g>
       <use style="stroke:#000000;stroke-linecap:butt;stroke-width:0.5;" x="530.818511627" xlink:href="#m3fbe6c24f1" y="342.137097606"/>
      </g>
     </g>
     <g id="text_4">
      <!-- 20 -->
      <defs>
       <path d="
M19.1875 8.29688
L53.6094 8.29688
L53.6094 0
L7.32812 0
L7.32812 8.29688
Q12.9375 14.1094 22.625 23.8906
Q32.3281 33.6875 34.8125 36.5312
Q39.5469 41.8438 41.4219 45.5312
Q43.3125 49.2188 43.3125 52.7812
Q43.3125 58.5938 39.2344 62.25
Q35.1562 65.9219 28.6094 65.9219
Q23.9688 65.9219 18.8125 64.3125
Q13.6719 62.7031 7.8125 59.4219
L7.8125 69.3906
Q13.7656 71.7812 18.9375 73
Q24.125 74.2188 28.4219 74.2188
Q39.75 74.2188 46.4844 68.5469
Q53.2188 62.8906 53.2188 53.4219
Q53.2188 48.9219 51.5312 44.8906
Q49.8594 40.875 45.4062 35.4062
Q44.1875 33.9844 37.6406 27.2188
Q31.1094 20.4531 19.1875 8.29688" id="BitstreamVeraSans-Roman-32"/>
      </defs>
      <g transform="translate(517.224761627 363.949597606)scale(0.24 -0.24)">
       <use xlink:href="#BitstreamVeraSans-Roman-32"/>
       <use x="63.623046875" xlink:href="#BitstreamVeraSans-Roman-30"/>
      </g>
     </g>
    </g>
    <g id="xtick_5">
     <g id="line2d_10">
      <defs>
       <path d="
M0 0
L0 -2" id="mf0ff38ea95"/>
      </defs>
      <g>
       <use style="stroke:#000000;stroke-linecap:butt;stroke-width:0.5;" x="81.371189031" xlink:href="#mf0ff38ea95" y="342.137097606"/>
      </g>
     </g>
    </g>
    <g id="xtick_6">
     <g id="line2d_11">
      <defs>
       <path d="
M0 0
L0 -2" id="mf0ff38ea95"/>
      </defs>
      <g>
       <use style="stroke:#000000;stroke-linecap:butt;stroke-width:0.5;" x="105.026311273" xlink:href="#mf0ff38ea95" y="342.137097606"/>
      </g>
     </g>
    </g>
    <g id="xtick_7">
     <g id="line2d_12">
      <defs>
       <path d="
M0 0
L0 -2" id="mf0ff38ea95"/>
      </defs>
      <g>
       <use style="stroke:#000000;stroke-linecap:butt;stroke-width:0.5;" x="128.681433515" xlink:href="#mf0ff38ea95" y="342.137097606"/>
      </g>
     </g>
    </g>
    <g id="xtick_8">
     <g id="line2d_13">
      <defs>
       <path d="
M0 0
L0 -2" id="mf0ff38ea95"/>
      </defs>
      <g>
       <use style="stroke:#000000;stroke-linecap:butt;stroke-width:0.5;" x="152.336555757" xlink:href="#mf0ff38ea95" y="342.137097606"/>
      </g>
     </g>
    </g>
    <g id="xtick_9">
     <g id="line2d_14">
      <defs>
       <path d="
M0 0
L0 -2" id="mf0ff38ea95"/>
      </defs>
      <g>
       <use style="stroke:#000000;stroke-linecap:butt;stroke-width:0.5;" x="199.646800241" xlink:href="#mf0ff38ea95" y="342.137097606"/>
      </g>
     </g>
    </g>
    <g id="xtick_10">
     <g id="line2d_15">
      <defs>
       <path d="
M0 0
L0 -2" id="mf0ff38ea95"/>
      </defs>
      <g>
       <use style="stroke:#000000;stroke-linecap:butt;stroke-width:0.5;" x="223.301922482" xlink:href="#mf0ff38ea95" y="342.137097606"/>
      </g>
     </g>
    </g>
    <g id="xtick_11">
     <g id="line2d_16">
      <defs>
       <path d="
M0 0
L0 -2" id="mf0ff38ea95"/>
      </defs>
      <g>
       <use style="stroke:#000000;stroke-linecap:butt;stroke-width:0.5;" x="246.957044724" xlink:href="#mf0ff38ea95" y="342.137097606"/>
      </g>
     </g>
    </g>
    <g id="xtick_12">
     <g id="line2d_17">
      <defs>
       <path d="
M0 0
L0 -2" id="mf0ff38ea95"/>
      </defs>
      <g>
       <use style="stroke:#000000;stroke-linecap:butt;stroke-width:0.5;" x="270.612166966" xlink:href="#mf0ff38ea95" y="342.137097606"/>
      </g>
     </g>
    </g>
    <g id="xtick_13">
     <g id="line2d_18">
      <defs>
       <path d="
M0 0
L0 -2" id="mf0ff38ea95"/>
      </defs>
      <g>
       <use style="stroke:#000000;stroke-linecap:butt;stroke-width:0.5;" x="317.92241145" xlink:href="#mf0ff38ea95" y="342.137097606"/>
      </g>
     </g>
    </g>
    <g id="xtick_14">
     <g id="line2d_19">
      <defs>
       <path d="
M0 0
L0 -2" id="mf0ff38ea95"/>
      </defs>
      <g>
       <use style="stroke:#000000;stroke-linecap:butt;stroke-width:0.5;" x="341.577533692" xlink:href="#mf0ff38ea95" y="342.137097606"/>
      </g>
     </g>
    </g>
    <g id="xtick_15">
     <g id="line2d_20">
      <defs>
       <path d="
M0 0
L0 -2" id="mf0ff38ea95"/>
      </defs>
      <g>
       <use style="stroke:#000000;stroke-linecap:butt;stroke-width:0.5;" x="365.232655934" xlink:href="#mf0ff38ea95" y="342.137097606"/>
      </g>
     </g>
    </g>
    <g id="xtick_16">
     <g id="line2d_21">
      <defs>
       <path d="
M0 0
L0 -2" id="mf0ff38ea95"/>
      </defs>
      <g>
       <use style="stroke:#000000;stroke-linecap:butt;stroke-width:0.5;" x="388.887778176" xlink:href="#mf0ff38ea95" y="342.137097606"/>
      </g>
     </g>
    </g>
    <g id="xtick_17">
     <g id="line2d_22">
      <defs>
       <path d="
M0 0
L0 -2" id="mf0ff38ea95"/>
      </defs>
      <g>
       <use style="stroke:#000000;stroke-linecap:butt;stroke-width:0.5;" x="436.198022659" xlink:href="#mf0ff38ea95" y="342.137097606"/>
      </g>
     </g>
    </g>
    <g id="xtick_18">
     <g id="line2d_23">
      <defs>
       <path d="
M0 0
L0 -2" id="mf0ff38ea95"/>
      </defs>
      <g>
       <use style="stroke:#000000;stroke-linecap:butt;stroke-width:0.5;" x="459.853144901" xlink:href="#mf0ff38ea95" y="342.137097606"/>
      </g>
     </g>
    </g>
    <g id="xtick_19">
     <g id="line2d_24">
      <defs>
       <path d="
M0 0
L0 -2" id="mf0ff38ea95"/>
      </defs>
      <g>
       <use style="stroke:#000000;stroke-linecap:butt;stroke-width:0.5;" x="483.508267143" xlink:href="#mf0ff38ea95" y="342.137097606"/>
      </g>
     </g>
    </g>
    <g id="xtick_20">
     <g id="line2d_25">
      <defs>
       <path d="
M0 0
L0 -2" id="mf0ff38ea95"/>
      </defs>
      <g>
       <use style="stroke:#000000;stroke-linecap:butt;stroke-width:0.5;" x="507.163389385" xlink:href="#mf0ff38ea95" y="342.137097606"/>
      </g>
     </g>
    </g>
   </g>
   <g id="matplotlib.axis_2">
    <g id="ytick_1">
     <g id="line2d_26">
      <path d="
M64.6363 402.917
L557.404 402.917" style="fill:none;stroke:#000000;stroke-dasharray:1.000000,3.000000;stroke-dashoffset:0.0;stroke-linecap:butt;stroke-width:0.5;"/>
     </g>
     <g id="line2d_27">
      <defs>
       <path d="
M0 0
L4 0" id="mc91e532072"/>
      </defs>
      <g>
       <use style="stroke:#000000;stroke-linecap:butt;stroke-width:0.5;" x="54.63625" xlink:href="#mc91e532072" y="402.916716511"/>
      </g>
     </g>
     <g id="text_5">
      <!-- -0.1 -->
      <defs>
       <path d="
M10.6875 12.4062
L21 12.4062
L21 0
L10.6875 0
z
" id="BitstreamVeraSans-Roman-2e"/>
       <path d="
M4.89062 31.3906
L31.2031 31.3906
L31.2031 23.3906
L4.89062 23.3906
z
" id="BitstreamVeraSans-Roman-2d"/>
      </defs>
      <g transform="translate(7.2 411.652341511)scale(0.24 -0.24)">
       <use xlink:href="#BitstreamVeraSans-Roman-2d"/>
       <use x="36.083984375" xlink:href="#BitstreamVeraSans-Roman-30"/>
       <use x="99.70703125" xlink:href="#BitstreamVeraSans-Roman-2e"/>
       <use x="131.494140625" xlink:href="#BitstreamVeraSans-Roman-31"/>
      </g>
     </g>
    </g>
    <g id="ytick_2">
     <g id="line2d_28">
      <path d="
M64.6363 342.137
L557.404 342.137" style="fill:none;stroke:#000000;stroke-dasharray:1.000000,3.000000;stroke-dashoffset:0.0;stroke-linecap:butt;stroke-width:0.5;"/>
     </g>
     <g id="line2d_29">
      <defs>
       <path d="
M0 0
L4 0" id="mc91e532072"/>
      </defs>
      <g>
       <use style="stroke:#000000;stroke-linecap:butt;stroke-width:0.5;" x="54.63625" xlink:href="#mc91e532072" y="342.137097606"/>
      </g>
     </g>
     <g id="text_6">
      <!-- 0 -->
      <g transform="translate(38.5425 350.872722606)scale(0.24 -0.24)">
       <use xlink:href="#BitstreamVeraSans-Roman-30"/>
      </g>
     </g>
    </g>
    <g id="ytick_3">
     <g id="line2d_30">
      <path d="
M64.6363 281.357
L557.404 281.357" style="fill:none;stroke:#000000;stroke-dasharray:1.000000,3.000000;stroke-dashoffset:0.0;stroke-linecap:butt;stroke-width:0.5;"/>
     </g>
     <g id="line2d_31">
      <defs>
       <path d="
M0 0
L4 0" id="mc91e532072"/>
      </defs>
      <g>
       <use style="stroke:#000000;stroke-linecap:butt;stroke-width:0.5;" x="54.63625" xlink:href="#mc91e532072" y="281.357478701"/>
      </g>
     </g>
     <g id="text_7">
      <!-- 0.1 -->
      <g transform="translate(16.2675 290.093103701)scale(0.24 -0.24)">
       <use xlink:href="#BitstreamVeraSans-Roman-30"/>
       <use x="63.623046875" xlink:href="#BitstreamVeraSans-Roman-2e"/>
       <use x="95.41015625" xlink:href="#BitstreamVeraSans-Roman-31"/>
      </g>
     </g>
    </g>
    <g id="ytick_4">
     <g id="line2d_32">
      <path d="
M64.6363 220.578
L557.404 220.578" style="fill:none;stroke:#000000;stroke-dasharray:1.000000,3.000000;stroke-dashoffset:0.0;stroke-linecap:butt;stroke-width:0.5;"/>
     </g>
     <g id="line2d_33">
      <defs>
       <path d="
M0 0
L4 0" id="mc91e532072"/>
      </defs>
      <g>
       <use style="stroke:#000000;stroke-linecap:butt;stroke-width:0.5;" x="54.63625" xlink:href="#mc91e532072" y="220.577859796"/>
      </g>
     </g>
     <g id="text_8">
      <!-- 0.2 -->
      <g transform="translate(16.455 229.313484796)scale(0.24 -0.24)">
       <use xlink:href="#BitstreamVeraSans-Roman-30"/>
       <use x="63.623046875" xlink:href="#BitstreamVeraSans-Roman-2e"/>
       <use x="95.41015625" xlink:href="#BitstreamVeraSans-Roman-32"/>
      </g>
     </g>
    </g>
    <g id="ytick_5">
     <g id="line2d_34">
      <path d="
M64.6363 159.798
L557.404 159.798" style="fill:none;stroke:#000000;stroke-dasharray:1.000000,3.000000;stroke-dashoffset:0.0;stroke-linecap:butt;stroke-width:0.5;"/>
     </g>
     <g id="line2d_35">
      <defs>
       <path d="
M0 0
L4 0" id="mc91e532072"/>
      </defs>
      <g>
       <use style="stroke:#000000;stroke-linecap:butt;stroke-width:0.5;" x="54.63625" xlink:href="#mc91e532072" y="159.798240891"/>
      </g>
     </g>
     <g id="text_9">
      <!-- 0.3 -->
      <defs>
       <path d="
M40.5781 39.3125
Q47.6562 37.7969 51.625 33
Q55.6094 28.2188 55.6094 21.1875
Q55.6094 10.4062 48.1875 4.48438
Q40.7656 -1.42188 27.0938 -1.42188
Q22.5156 -1.42188 17.6562 -0.515625
Q12.7969 0.390625 7.625 2.20312
L7.625 11.7188
Q11.7188 9.32812 16.5938 8.10938
Q21.4844 6.89062 26.8125 6.89062
Q36.0781 6.89062 40.9375 10.5469
Q45.7969 14.2031 45.7969 21.1875
Q45.7969 27.6406 41.2812 31.2656
Q36.7656 34.9062 28.7188 34.9062
L20.2188 34.9062
L20.2188 43.0156
L29.1094 43.0156
Q36.375 43.0156 40.2344 45.9219
Q44.0938 48.8281 44.0938 54.2969
Q44.0938 59.9062 40.1094 62.9062
Q36.1406 65.9219 28.7188 65.9219
Q24.6562 65.9219 20.0156 65.0312
Q15.375 64.1562 9.8125 62.3125
L9.8125 71.0938
Q15.4375 72.6562 20.3438 73.4375
Q25.25 74.2188 29.5938 74.2188
Q40.8281 74.2188 47.3594 69.1094
Q53.9062 64.0156 53.9062 55.3281
Q53.9062 49.2656 50.4375 45.0938
Q46.9688 40.9219 40.5781 39.3125" id="BitstreamVeraSans-Roman-33"/>
      </defs>
      <g transform="translate(15.975 168.533865891)scale(0.24 -0.24)">
       <use xlink:href="#BitstreamVeraSans-Roman-30"/>
       <use x="63.623046875" xlink:href="#BitstreamVeraSans-Roman-2e"/>
       <use x="95.41015625" xlink:href="#BitstreamVeraSans-Roman-33"/>
      </g>
     </g>
    </g>
    <g id="ytick_6">
     <g id="line2d_36">
      <path d="
M64.6363 99.0186
L557.404 99.0186" style="fill:none;stroke:#000000;stroke-dasharray:1.000000,3.000000;stroke-dashoffset:0.0;stroke-linecap:butt;stroke-width:0.5;"/>
     </g>
     <g id="line2d_37">
      <defs>
       <path d="
M0 0
L4 0" id="mc91e532072"/>
      </defs>
      <g>
       <use style="stroke:#000000;stroke-linecap:butt;stroke-width:0.5;" x="54.63625" xlink:href="#mc91e532072" y="99.0186219853"/>
      </g>
     </g>
     <g id="text_10">
      <!-- 0.4 -->
      <defs>
       <path d="
M37.7969 64.3125
L12.8906 25.3906
L37.7969 25.3906
z

M35.2031 72.9062
L47.6094 72.9062
L47.6094 25.3906
L58.0156 25.3906
L58.0156 17.1875
L47.6094 17.1875
L47.6094 0
L37.7969 0
L37.7969 17.1875
L4.89062 17.1875
L4.89062 26.7031
z
" id="BitstreamVeraSans-Roman-34"/>
      </defs>
      <g transform="translate(15.3975 107.754246985)scale(0.24 -0.24)">
       <use xlink:href="#BitstreamVeraSans-Roman-30"/>
       <use x="63.623046875" xlink:href="#BitstreamVeraSans-Roman-2e"/>
       <use x="95.41015625" xlink:href="#BitstreamVeraSans-Roman-34"/>
      </g>
     </g>
    </g>
    <g id="ytick_7">
     <g id="line2d_38">
      <path d="
M64.6363 38.239
L557.404 38.239" style="fill:none;stroke:#000000;stroke-dasharray:1.000000,3.000000;stroke-dashoffset:0.0;stroke-linecap:butt;stroke-width:0.5;"/>
     </g>
     <g id="line2d_39">
      <defs>
       <path d="
M0 0
L4 0" id="mc91e532072"/>
      </defs>
      <g>
       <use style="stroke:#000000;stroke-linecap:butt;stroke-width:0.5;" x="54.63625" xlink:href="#mc91e532072" y="38.2390030801"/>
      </g>
     </g>
     <g id="text_11">
      <!-- 0.5 -->
      <g transform="translate(16.1475 46.9746280801)scale(0.24 -0.24)">
       <use xlink:href="#BitstreamVeraSans-Roman-30"/>
       <use x="63.623046875" xlink:href="#BitstreamVeraSans-Roman-2e"/>
       <use x="95.41015625" xlink:href="#BitstreamVeraSans-Roman-35"/>
      </g>
     </g>
    </g>
    <g id="ytick_8">
     <g id="line2d_40">
      <defs>
       <path d="
M0 0
L2 0" id="m0789224b6b"/>
      </defs>
      <g>
       <use style="stroke:#000000;stroke-linecap:butt;stroke-width:0.5;" x="54.63625" xlink:href="#m0789224b6b" y="390.76079273"/>
      </g>
     </g>
    </g>
    <g id="ytick_9">
     <g id="line2d_41">
      <defs>
       <path d="
M0 0
L2 0" id="m0789224b6b"/>
      </defs>
      <g>
       <use style="stroke:#000000;stroke-linecap:butt;stroke-width:0.5;" x="54.63625" xlink:href="#m0789224b6b" y="378.604868949"/>
      </g>
     </g>
    </g>
    <g id="ytick_10">
     <g id="line2d_42">
      <defs>
       <path d="
M0 0
L2 0" id="m0789224b6b"/>
      </defs>
      <g>
       <use style="stroke:#000000;stroke-linecap:butt;stroke-width:0.5;" x="54.63625" xlink:href="#m0789224b6b" y="366.448945168"/>
      </g>
     </g>
    </g>
    <g id="ytick_11">
     <g id="line2d_43">
      <defs>
       <path d="
M0 0
L2 0" id="m0789224b6b"/>
      </defs>
      <g>
       <use style="stroke:#000000;stroke-linecap:butt;stroke-width:0.5;" x="54.63625" xlink:href="#m0789224b6b" y="354.293021387"/>
      </g>
     </g>
    </g>
    <g id="ytick_12">
     <g id="line2d_44">
      <defs>
       <path d="
M0 0
L2 0" id="m0789224b6b"/>
      </defs>
      <g>
       <use style="stroke:#000000;stroke-linecap:butt;stroke-width:0.5;" x="54.63625" xlink:href="#m0789224b6b" y="329.981173825"/>
      </g>
     </g>
    </g>
    <g id="ytick_13">
     <g id="line2d_45">
      <defs>
       <path d="
M0 0
L2 0" id="m0789224b6b"/>
      </defs>
      <g>
       <use style="stroke:#000000;stroke-linecap:butt;stroke-width:0.5;" x="54.63625" xlink:href="#m0789224b6b" y="317.825250044"/>
      </g>
     </g>
    </g>
    <g id="ytick_14">
     <g id="line2d_46">
      <defs>
       <path d="
M0 0
L2 0" id="m0789224b6b"/>
      </defs>
      <g>
       <use style="stroke:#000000;stroke-linecap:butt;stroke-width:0.5;" x="54.63625" xlink:href="#m0789224b6b" y="305.669326263"/>
      </g>
     </g>
    </g>
    <g id="ytick_15">
     <g id="line2d_47">
      <defs>
       <path d="
M0 0
L2 0" id="m0789224b6b"/>
      </defs>
      <g>
       <use style="stroke:#000000;stroke-linecap:butt;stroke-width:0.5;" x="54.63625" xlink:href="#m0789224b6b" y="293.513402482"/>
      </g>
     </g>
    </g>
    <g id="ytick_16">
     <g id="line2d_48">
      <defs>
       <path d="
M0 0
L2 0" id="m0789224b6b"/>
      </defs>
      <g>
       <use style="stroke:#000000;stroke-linecap:butt;stroke-width:0.5;" x="54.63625" xlink:href="#m0789224b6b" y="269.20155492"/>
      </g>
     </g>
    </g>
    <g id="ytick_17">
     <g id="line2d_49">
      <defs>
       <path d="
M0 0
L2 0" id="m0789224b6b"/>
      </defs>
      <g>
       <use style="stroke:#000000;stroke-linecap:butt;stroke-width:0.5;" x="54.63625" xlink:href="#m0789224b6b" y="257.045631139"/>
      </g>
     </g>
    </g>
    <g id="ytick_18">
     <g id="line2d_50">
      <defs>
       <path d="
M0 0
L2 0" id="m0789224b6b"/>
      </defs>
      <g>
       <use style="stroke:#000000;stroke-linecap:butt;stroke-width:0.5;" x="54.63625" xlink:href="#m0789224b6b" y="244.889707358"/>
      </g>
     </g>
    </g>
    <g id="ytick_19">
     <g id="line2d_51">
      <defs>
       <path d="
M0 0
L2 0" id="m0789224b6b"/>
      </defs>
      <g>
       <use style="stroke:#000000;stroke-linecap:butt;stroke-width:0.5;" x="54.63625" xlink:href="#m0789224b6b" y="232.733783577"/>
      </g>
     </g>
    </g>
    <g id="ytick_20">
     <g id="line2d_52">
      <defs>
       <path d="
M0 0
L2 0" id="m0789224b6b"/>
      </defs>
      <g>
       <use style="stroke:#000000;stroke-linecap:butt;stroke-width:0.5;" x="54.63625" xlink:href="#m0789224b6b" y="208.421936015"/>
      </g>
     </g>
    </g>
    <g id="ytick_21">
     <g id="line2d_53">
      <defs>
       <path d="
M0 0
L2 0" id="m0789224b6b"/>
      </defs>
      <g>
       <use style="stroke:#000000;stroke-linecap:butt;stroke-width:0.5;" x="54.63625" xlink:href="#m0789224b6b" y="196.266012234"/>
      </g>
     </g>
    </g>
    <g id="ytick_22">
     <g id="line2d_54">
      <defs>
       <path d="
M0 0
L2 0" id="m0789224b6b"/>
      </defs>
      <g>
       <use style="stroke:#000000;stroke-linecap:butt;stroke-width:0.5;" x="54.63625" xlink:href="#m0789224b6b" y="184.110088453"/>
      </g>
     </g>
    </g>
    <g id="ytick_23">
     <g id="line2d_55">
      <defs>
       <path d="
M0 0
L2 0" id="m0789224b6b"/>
      </defs>
      <g>
       <use style="stroke:#000000;stroke-linecap:butt;stroke-width:0.5;" x="54.63625" xlink:href="#m0789224b6b" y="171.954164672"/>
      </g>
     </g>
    </g>
    <g id="ytick_24">
     <g id="line2d_56">
      <defs>
       <path d="
M0 0
L2 0" id="m0789224b6b"/>
      </defs>
      <g>
       <use style="stroke:#000000;stroke-linecap:butt;stroke-width:0.5;" x="54.63625" xlink:href="#m0789224b6b" y="147.642317109"/>
      </g>
     </g>
    </g>
    <g id="ytick_25">
     <g id="line2d_57">
      <defs>
       <path d="
M0 0
L2 0" id="m0789224b6b"/>
      </defs>
      <g>
       <use style="stroke:#000000;stroke-linecap:butt;stroke-width:0.5;" x="54.63625" xlink:href="#m0789224b6b" y="135.486393328"/>
      </g>
     </g>
    </g>
    <g id="ytick_26">
     <g id="line2d_58">
      <defs>
       <path d="
M0 0
L2 0" id="m0789224b6b"/>
      </defs>
      <g>
       <use style="stroke:#000000;stroke-linecap:butt;stroke-width:0.5;" x="54.63625" xlink:href="#m0789224b6b" y="123.330469547"/>
      </g>
     </g>
    </g>
    <g id="ytick_27">
     <g id="line2d_59">
      <defs>
       <path d="
M0 0
L2 0" id="m0789224b6b"/>
      </defs>
      <g>
       <use style="stroke:#000000;stroke-linecap:butt;stroke-width:0.5;" x="54.63625" xlink:href="#m0789224b6b" y="111.174545766"/>
      </g>
     </g>
    </g>
    <g id="ytick_28">
     <g id="line2d_60">
      <defs>
       <path d="
M0 0
L2 0" id="m0789224b6b"/>
      </defs>
      <g>
       <use style="stroke:#000000;stroke-linecap:butt;stroke-width:0.5;" x="54.63625" xlink:href="#m0789224b6b" y="86.8626982042"/>
      </g>
     </g>
    </g>
    <g id="ytick_29">
     <g id="line2d_61">
      <defs>
       <path d="
M0 0
L2 0" id="m0789224b6b"/>
      </defs>
      <g>
       <use style="stroke:#000000;stroke-linecap:butt;stroke-width:0.5;" x="54.63625" xlink:href="#m0789224b6b" y="74.7067744232"/>
      </g>
     </g>
    </g>
    <g id="ytick_30">
     <g id="line2d_62">
      <defs>
       <path d="
M0 0
L2 0" id="m0789224b6b"/>
      </defs>
      <g>
       <use style="stroke:#000000;stroke-linecap:butt;stroke-width:0.5;" x="54.63625" xlink:href="#m0789224b6b" y="62.5508506422"/>
      </g>
     </g>
    </g>
    <g id="ytick_31">
     <g id="line2d_63">
      <defs>
       <path d="
M0 0
L2 0" id="m0789224b6b"/>
      </defs>
      <g>
       <use style="stroke:#000000;stroke-linecap:butt;stroke-width:0.5;" x="54.63625" xlink:href="#m0789224b6b" y="50.3949268611"/>
      </g>
     </g>
    </g>
    <g id="ytick_32">
     <g id="line2d_64">
      <defs>
       <path d="
M0 0
L2 0" id="m0789224b6b"/>
      </defs>
      <g>
       <use style="stroke:#000000;stroke-linecap:butt;stroke-width:0.5;" x="54.63625" xlink:href="#m0789224b6b" y="38.2390030801"/>
      </g>
     </g>
    </g>
    <g id="ytick_33">
     <g id="line2d_65">
      <defs>
       <path d="
M0 0
L2 0" id="m0789224b6b"/>
      </defs>
      <g>
       <use style="stroke:#000000;stroke-linecap:butt;stroke-width:0.5;" x="54.63625" xlink:href="#m0789224b6b" y="26.083079299"/>
      </g>
     </g>
    </g>
   </g>
   <g id="patch_3">
    <path d="
M64.6363 342.137
L557.404 342.137" style="fill:none;stroke:#000000;stroke-width:0.8;"/>
   </g>
   <g id="patch_4">
    <path d="
M54.6363 412.21
L54.6363 7.2" style="fill:none;stroke:#000000;stroke-width:0.8;"/>
   </g>
  </g>
 </g>
 <defs>
  <clipPath id="p4a37abbc68">
   <rect height="405.010437682" width="492.7675" x="64.63625" y="7.2"/>
  </clipPath>
 </defs>
</svg>
