<?xml version="1.0" encoding="utf-8" standalone="no"?>
<!DOCTYPE svg PUBLIC "-//W3C//DTD SVG 1.1//EN"
  "http://www.w3.org/Graphics/SVG/1.1/DTD/svg11.dtd">
<!-- Created with matplotlib (http://matplotlib.sourceforge.net/) -->
<svg height="419pt" version="1.1" viewBox="0 0 564 419" width="564pt" xmlns="http://www.w3.org/2000/svg" xmlns:xlink="http://www.w3.org/1999/xlink">
 <defs>
  <style type="text/css">
*{stroke-linecap:square;stroke-linejoin:round;}
  </style>
 </defs>
 <g id="figure_1">
  <g id="patch_1">
   <path d="
M4.44089e-16 419.12
L564.574 419.12
L564.574 0
L4.44089e-16 0
z
" style="fill:#ffffff;"/>
  </g>
  <g id="axes_1">
   <g id="patch_2">
    <path d="
M65.5062 411.92
L557.374 411.92
L557.374 8.51917
L65.5062 8.51917
z
" style="fill:#ffffff;"/>
   </g>
   <g id="line2d_1">
    <path clip-path="url(#p251e53ff8b)" d="
M74.9652 16.2769
L84.539 16.2769
L84.539 16.2769
L84.539 16.2769
L96.6006 16.2769
L96.6006 40.2014
L104.545 40.2014
L104.545 71.8456
L115.218 71.8456
L115.218 99.9841
L119.162 99.9841
L119.162 115.629
L125.496 115.629
L125.496 126.801
L128.123 126.801
L128.123 133.893
L132.634 133.893
L132.634 148.278
L138.107 148.278
L138.107 161.958
L139.682 161.958
L139.682 166.911
L143.859 166.911
L143.859 180.187
L146.283 180.187
L146.283 186.051
L147.408 186.051
L147.408 189.328
L149.508 189.328
L149.508 196.223
L152.345 196.223
L152.345 206.76
L154.877 206.76
L154.877 214.035
L155.664 214.035
L155.664 216.116
L157.88 216.116
L157.88 221.84
L159.249 221.84
L159.249 225.252
L159.905 225.252
L159.905 226.824
L161.77 226.824
L161.77 230.138
L162.936 230.138
L162.936 232.357
L164.584 232.357
L164.584 235.324
L166.616 235.324
L166.616 239.072
L167.571 239.072
L167.571 240.684
L168.034 240.684
L168.034 241.513
L168.933 241.513
L168.933 242.911
L169.37 242.911
L169.37 243.664
L170.221 243.664
L170.221 245.132
L172.979 245.132
L172.979 248.882
L173.711 248.882
L173.711 249.906
L174.769 249.906
L174.769 251.563
L175.111 251.563
L175.111 252.068
L176.751 252.068
L176.751 254.946
L177.066 254.946
L177.066 255.509
L177.986 255.509
L177.986 256.923
L178.872 256.923
L178.872 258.189
L179.444 258.189
L179.444 259.05
L180.278 259.05
L180.278 260.237
L181.083 260.237
L181.083 261.288
L181.345 261.288
L181.345 261.584
L182.615 261.584
L182.615 262.682
L182.861 262.682
L182.861 262.939
L183.345 262.939
L183.345 263.444
L183.584 263.444
L183.584 263.641
L184.966 263.641
L184.966 264.758
L186.272 264.758
L186.272 266.099
L186.692 266.099
L186.692 266.483
L186.899 266.483
L186.899 266.682
L187.308 266.682
L187.308 267.124
L187.909 267.124
L187.909 267.629
L188.105 267.629
L188.105 267.828
L189.065 267.828
L189.065 268.839
L189.623 268.839
L189.623 269.424
L190.168 269.424
L190.168 269.997
L190.701 269.997
L190.701 270.534
L190.875 270.534
L190.875 270.74
L191.393 270.74
L191.393 271.323
L191.731 271.323
L191.731 271.696
L191.899 271.696
L191.899 271.905
L192.718 271.905
L192.718 272.887
L193.821 272.887
L193.821 274.141
L194.126 274.141
L194.126 274.43
L194.278 274.43
L194.278 274.581
L194.577 274.581
L194.577 274.896
L195.598 274.896
L195.598 276.138
L196.022 276.138
L196.022 276.686
L196.712 276.686
L196.712 277.627
L196.848 277.627
L196.848 277.8
L197.117 277.8
L197.117 278.098
L197.515 278.098
L197.515 278.48
L198.036 278.48
L198.036 278.946
L198.419 278.946
L198.419 279.218
L198.795 279.218
L198.795 279.533
L199.043 279.533
L199.043 279.736
L199.41 279.736
L199.41 280.101
L199.891 280.101
L199.891 280.558
L200.128 280.558
L200.128 280.824
L200.594 280.824
L200.594 281.288
L201.164 281.288
L201.164 281.889
L201.277 281.889
L201.277 282.006
L201.831 282.006
L201.94 282.664
L202.265 282.664
L202.265 282.988
L202.48 282.988
L202.48 283.225
L202.797 283.225
L202.797 283.542
L203.214 283.542
L203.214 284
L203.42 284
L203.522 284.363
L203.725 284.363
L203.725 284.623
L204.324 284.623
L204.324 285.368
L204.715 285.368
L204.715 285.846
L204.909 285.846
L204.909 286.063
L205.29 286.063
L205.29 286.493
L205.479 286.493
L205.479 286.732
L205.759 286.732
L205.759 287.091
L206.309 287.091
L206.399 287.907
L207.198 287.907
L207.198 288.842
L207.459 288.842
L207.459 289.139
L207.887 289.139
L207.887 289.649
L208.14 289.649
L208.14 289.94
L208.39 289.94
L208.473 290.333
L208.72 290.333
L208.72 290.652
L209.125 290.652
L209.125 291.149
L209.365 291.149
L209.365 291.445
L209.603 291.445
L209.682 291.867
L209.916 291.867
L209.916 292.193
L210.149 292.193
L210.149 292.522
L210.302 292.522
L210.379 292.846
L210.832 292.846
L210.832 293.563
L211.203 293.563
L211.277 294.224
L211.423 294.224
L211.423 294.452
L211.641 294.452
L211.641 294.81
L211.857 294.81
L211.929 295.306
L212.354 295.306
L212.354 296.029
L212.493 296.029
L212.493 296.256
L212.702 296.256
L212.702 296.595
L212.977 296.595
L212.977 297.018
L213.316 297.018
L213.316 297.544
L213.584 297.544
L213.584 297.922
L213.915 297.922
L213.915 298.39
L214.176 298.39
L214.176 298.753
L214.37 298.753
L214.37 299.017
L214.562 299.017
L214.562 299.267
L214.69 299.267
L214.69 299.427
L214.943 299.427
L214.943 299.728
L215.131 299.728
L215.131 299.961
L215.255 299.961
L215.255 300.119
L215.502 300.119
L215.502 300.439
L215.625 300.439
L215.625 300.593
L216.048 300.593
L216.048 301.152
L216.346 301.152
L216.346 301.538
L216.699 301.538
L216.758 302.026
L217.047 302.026
L217.104 302.41
L217.219 302.41
L217.276 302.593
L217.559 302.593
L217.559 302.868
L217.95 302.868
L218.06 303.392
L218.225 303.455
L218.225 303.586
L218.605 303.586
L218.712 304.167
L218.873 304.231
L218.873 304.361
L219.399 304.361
L219.503 305.146
L219.71 305.146
L219.71 305.422
L219.965 305.422
L219.965 305.753
L220.168 305.753
L220.268 306.146
L220.418 306.146
L220.418 306.353
L220.567 306.353
L220.567 306.573
L220.912 306.573
L221.009 307.22
L221.155 307.22
L221.155 307.435
L221.299 307.435
L221.299 307.646
L221.491 307.646
L221.491 307.915
L221.633 307.915
L221.633 308.105
L221.916 308.105
L222.009 308.643
L222.148 308.643
L222.195 308.932
L222.425 308.932
L222.471 309.356
L222.607 309.356
L222.607 309.546
L222.834 309.546
L222.879 309.942
L223.102 309.942
L223.147 310.353
L223.28 310.353
L223.28 310.549
L223.674 310.549
L223.761 311.279
L223.89 311.342
L223.89 311.465
L224.019 311.465
L224.019 311.64
L224.147 311.64
L224.147 311.818
L224.317 311.818
L224.317 312.045
L224.443 312.045
L224.443 312.218
L224.569 312.218
L224.569 312.384
L225.025 312.384
L225.066 313.023
L225.27 313.023
L225.27 313.309
L225.431 313.309
L225.431 313.533
L225.632 313.533
L225.632 313.804
L225.752 313.804
L225.752 313.972
L225.871 313.972
L225.871 314.142
L226.029 314.142
L226.029 314.37
L226.263 314.37
L226.341 314.798
L226.457 314.798
L226.457 314.954
L226.573 314.954
L226.611 315.157
L226.726 315.157
L226.726 315.303
L226.954 315.303
L226.954 315.587
L227.142 315.587
L227.142 315.808
L227.477 315.808
L227.588 316.322
L227.698 316.322
L227.735 316.505
L227.844 316.505
L227.953 316.786
L228.242 316.883
L228.277 317.207
L228.384 317.207
L228.384 317.353
L228.982 317.353
L229.086 318.283
L229.189 318.283
L229.189 318.415
L229.326 318.415
L229.326 318.583
L229.632 318.583
L229.632 318.941
L229.8 318.941
L229.8 319.137
L230.034 319.137
L230.133 319.525
L230.298 319.599
L230.298 319.712
L230.428 319.712
L230.526 319.962
L230.817 320.065
L230.817 320.258
L230.977 320.258
L231.072 320.494
L231.262 320.571
L231.262 320.641
L231.45 320.641
L231.45 320.786
L231.637 320.786
L231.637 320.936
L231.945 321.028
L232.037 321.244
L232.189 321.293
L232.189 321.364
L232.37 321.458
L232.37 321.504
L232.55 321.597
L232.55 321.643
L232.757 321.643
L232.816 321.853
L232.993 321.941
L233.08 322.04
L233.342 322.115
L233.342 322.215
L233.628 322.215
L233.714 322.47
L234.136 322.529
L234.219 322.798
L234.523 322.881
L234.551 322.987
L234.796 323.067
L234.877 323.183
L235.279 323.283
L235.359 323.462
L235.596 323.504
L235.596 323.592
L235.883 323.662
L235.986 323.811
L236.37 323.92
L236.446 324.055
L236.722 324.134
L236.722 324.203
L236.946 324.286
L237.02 324.368
L237.242 324.368
L237.266 324.506
L237.75 324.614
L237.821 324.782
L238.059 324.888
L238.106 324.922
L238.387 324.994
L238.411 325.055
L238.688 325.106
L238.688 325.172
L239.008 325.236
L239.099 325.311
L239.546 325.393
L239.635 325.479
L240.095 325.564
L240.095 325.621
L240.46 325.718
L240.545 325.759
L241.029 325.853
L241.092 325.924
L241.463 326.002
L241.483 326.058
L241.768 326.15
L241.848 326.21
L242.188 326.315
L242.267 326.351
L242.737 326.456
L242.833 326.545
L243.083 326.636
L243.121 326.679
L243.368 326.679
L243.368 326.796
L243.63 326.872
L243.705 326.953
L244.074 327.031
L244.184 327.168
L244.563 327.272
L244.563 327.312
L244.955 327.423
L245.06 327.471
L245.512 327.577
L245.616 327.641
L245.922 327.718
L246.024 327.802
L246.292 327.868
L246.375 327.958
L246.672 328.025
L246.738 328.131
L246.982 328.226
L247.063 328.305
L247.272 328.362
L247.351 328.474
L247.637 328.511
L247.731 328.701
L247.934 328.759
L248.027 328.879
L248.258 328.973
L248.335 329.088
L248.563 329.194
L248.578 329.258
L248.894 329.349
L248.938 329.522
L249.102 329.618
L249.19 329.705
L249.381 329.808
L249.381 329.85
L249.542 329.85
L249.6 330.011
L249.888 330.072
L249.988 330.288
L250.201 330.382
L250.229 330.461
L250.397 330.529
L250.411 330.587
L250.648 330.673
L250.69 330.786
L250.938 330.895
L251.033 331.056
L251.223 331.09
L251.277 331.256
L251.466 331.352
L251.559 331.478
L251.758 331.575
L251.838 331.708
L251.995 331.765
L252.1 331.934
L252.333 332.039
L252.423 332.2
L252.577 332.3
L252.654 332.402
L252.806 332.504
L252.844 332.571
L252.982 332.571
L253.033 332.735
L253.182 332.79
L253.245 332.917
L253.43 333.016
L253.541 333.156
L253.7 333.215
L253.773 333.337
L253.942 333.437
L254.026 333.53
L254.242 333.606
L254.242 333.699
L254.443 333.799
L254.549 333.937
L254.725 333.976
L254.771 334.118
L254.968 334.224
L255.014 334.323
L255.175 334.383
L255.244 334.517
L255.459 334.613
L255.459 334.699
L255.595 334.699
L255.696 334.9
L255.83 335.007
L255.93 335.101
L256.084 335.206
L256.128 335.278
L256.293 335.278
L256.358 335.483
L256.488 335.568
L256.542 335.648
L256.671 335.738
L256.736 335.828
L256.907 335.894
L256.992 336.054
L257.118 336.082
L257.181 336.223
L257.318 336.328
L257.339 336.352
L257.536 336.459
L257.567 336.532
L257.722 336.625
L257.753 336.673
L257.926 336.749
L258.028 336.895
L258.2 336.983
L258.26 337.081
L258.41 337.189
L258.5 337.284
L258.658 337.319
L258.747 337.502
L258.894 337.571
L258.894 337.631
L259.04 337.631
L259.118 337.822
L259.272 337.93
L259.378 338.041
L259.55 338.139
L259.645 338.242
L259.805 338.321
L259.889 338.411
L260.067 338.472
L260.169 338.586
L260.39 338.64
L260.5 338.775
L260.754 338.87
L260.799 338.942
L260.997 339.05
L261.095 339.109
L261.44 339.218
L261.519 339.325
L261.736 339.43
L261.832 339.498
L262.038 339.584
L262.089 339.643
L262.302 339.741
L262.344 339.783
L262.546 339.861
L262.629 339.943
L262.845 340.04
L262.953 340.126
L263.174 340.226
L263.263 340.29
L263.482 340.393
L263.538 340.438
L263.77 340.536
L263.825 340.59
L264.038 340.663
L264.125 340.747
L264.359 340.84
L264.451 340.909
L264.682 341.012
L264.781 341.086
L265.024 341.192
L265.114 341.241
L265.383 341.347
L265.457 341.39
L265.715 341.468
L265.803 341.547
L266.071 341.642
L266.179 341.72
L266.45 341.822
L266.542 341.894
L266.83 341.991
L266.935 342.073
L267.205 342.183
L267.308 342.236
L267.593 342.344
L267.695 342.395
L267.996 342.491
L268.082 342.566
L268.352 342.673
L268.456 342.726
L268.742 342.826
L268.806 342.867
L269.068 342.965
L269.15 343.035
L269.371 343.141
L269.471 343.204
L269.713 343.307
L269.818 343.399
L270.027 343.495
L270.081 343.551
L270.293 343.657
L270.366 343.704
L270.605 343.814
L270.694 343.863
L270.96 343.961
L271.065 344.018
L271.413 344.117
L271.51 344.162
L271.919 344.271
L272.02 344.313
L272.409 344.415
L272.509 344.455
L272.928 344.566
L273.008 344.599
L273.382 344.703
L273.487 344.777
L273.822 344.883
L273.931 344.956
L274.204 345.065
L274.311 345.135
L274.539 345.228
L274.644 345.32
L274.889 345.43
L274.988 345.497
L275.214 345.601
L275.302 345.66
L275.55 345.766
L275.636 345.828
L275.89 345.939
L275.994 346.009
L276.216 346.099
L276.314 346.181
L276.524 346.285
L276.593 346.337
L276.819 346.445
L276.928 346.506
L277.173 346.611
L277.254 346.675
L277.451 346.785
L277.562 346.851
L277.787 346.961
L277.888 347.033
L278.088 347.144
L278.192 347.207
L278.381 347.289
L278.475 347.379
L278.662 347.481
L278.742 347.547
L278.914 347.652
L279.019 347.724
L279.189 347.819
L279.263 347.885
L279.473 347.99
L279.571 348.082
L279.741 348.188
L279.842 348.258
L280.023 348.365
L280.114 348.436
L280.297 348.542
L280.399 348.603
L280.657 348.709
L280.762 348.782
L281.005 348.876
L281.112 348.942
L281.362 349.051
L281.471 349.11
L281.711 349.22
L281.796 349.269
L282.065 349.358
L282.16 349.425
L282.436 349.527
L282.54 349.603
L282.79 349.705
L282.875 349.77
L283.118 349.876
L283.223 349.935
L283.452 350.035
L283.556 350.11
L283.778 350.216
L283.884 350.286
L284.103 350.383
L284.197 350.448
L284.424 350.544
L284.523 350.611
L284.782 350.722
L284.877 350.772
L285.119 350.878
L285.229 350.942
L285.455 351.048
L285.563 351.108
L285.814 351.217
L285.917 351.267
L286.189 351.376
L286.288 351.431
L286.544 351.536
L286.646 351.586
L286.961 351.693
L287.056 351.752
L287.374 351.861
L287.453 351.89
L287.769 351.987
L287.878 352.043
L288.18 352.154
L288.27 352.189
L288.572 352.294
L288.675 352.343
L288.956 352.447
L289.06 352.492
L289.379 352.602
L289.457 352.646
L289.697 352.755
L289.795 352.815
L290.005 352.909
L290.109 352.989
L290.325 353.099
L290.433 353.18
L290.62 353.288
L290.717 353.36
L290.906 353.467
L290.982 353.522
L291.177 353.633
L291.274 353.701
L291.484 353.804
L291.584 353.872
L291.789 353.978
L291.893 354.048
L292.115 354.158
L292.224 354.218
L292.452 354.324
L292.558 354.382
L292.775 354.485
L292.871 354.552
L293.072 354.661
L293.182 354.732
L293.373 354.833
L293.482 354.915
L293.666 355.026
L293.774 355.096
L293.971 355.201
L294.073 355.272
L294.366 355.378
L294.46 355.493
L294.744 355.594
L294.847 355.701
L295.055 355.759
L295.15 355.873
L295.338 355.936
L295.428 356.052
L295.637 356.129
L295.732 356.262
L295.932 356.321
L296.024 356.447
L296.22 356.506
L296.31 356.635
L296.508 356.701
L296.603 356.83
L296.804 356.892
L296.91 357.026
L297.201 357.134
L297.299 357.247
L297.591 357.344
L297.68 357.454
L297.88 357.51
L297.99 357.63
L298.269 357.739
L298.376 357.839
L298.66 357.949
L298.762 358.07
L298.956 358.126
L299.065 358.244
L299.35 358.345
L299.44 358.456
L299.636 358.512
L299.735 358.622
L299.94 358.68
L300.028 358.782
L300.334 358.889
L300.427 358.989
L300.713 359.084
L300.812 359.181
L301.104 359.273
L301.104 359.319
L301.4 359.42
L301.506 359.517
L301.789 359.614
L301.895 359.716
L302.188 359.815
L302.28 359.924
L302.578 360.031
L302.673 360.148
L302.879 360.202
L302.967 360.313
L303.26 360.422
L303.366 360.517
L303.654 360.614
L303.755 360.71
L304.043 360.805
L304.142 360.911
L304.34 360.968
L304.439 361.081
L304.633 361.137
L304.744 361.259
L305.053 361.36
L305.118 361.466
L305.415 361.567
L305.522 361.68
L305.801 361.774
L305.908 361.867
L306.207 361.955
L306.294 362.047
L306.6 362.146
L306.684 362.249
L306.977 362.351
L307.074 362.438
L307.372 362.52
L307.469 362.601
L307.763 362.681
L307.861 362.756
L308.256 362.86
L308.346 362.939
L308.644 363.036
L308.739 363.128
L309.033 363.228
L309.133 363.316
L309.433 363.408
L309.521 363.499
L309.822 363.594
L309.917 363.69
L310.205 363.776
L310.315 363.857
L310.6 363.937
L310.6 363.983
L310.9 364.078
L310.996 364.178
L311.296 364.278
L311.385 364.382
L311.68 364.484
L311.775 364.588
L312.076 364.691
L312.174 364.802
L312.458 364.908
L312.558 365.019
L312.859 365.119
L312.953 365.214
L313.243 365.305
L313.337 365.396
L313.631 365.481
L313.731 365.555
L314.122 365.659
L314.221 365.723
L314.612 365.823
L314.709 365.881
L315.102 365.979
L315.196 366.046
L315.588 366.152
L315.694 366.21
L316.274 366.308
L316.372 366.343
L316.861 366.432
L316.961 366.481
L317.545 366.59
L317.648 366.638
L318.133 366.735
L318.232 366.788
L318.82 366.892
L318.916 366.932
L319.605 367.039
L319.704 367.077
L320.19 367.168
L320.289 367.22
L320.679 367.31
L320.777 367.378
L321.266 367.485
L321.365 367.534
L321.863 367.626
L321.955 367.665
L322.536 367.776
L322.635 367.816
L323.319 367.911
L323.42 367.947
L324.104 368.044
L324.201 368.076
L324.887 368.181
L324.985 368.215
L325.57 368.313
L325.669 368.357
L326.358 368.457
L326.452 368.491
L327.234 368.591
L327.334 368.616
L328.213 368.723
L328.311 368.756
L328.996 368.859
L329.096 368.895
L329.778 369
L329.879 369.021
L331.935 369.127
L332.029 369.153
L333.008 369.262
L333.106 369.28
L333.986 369.387
L334.084 369.42
L334.867 369.519
L334.966 369.554
L335.652 369.65
L335.748 369.689
L336.339 369.782
L336.436 369.822
L337.021 369.929
L337.118 369.974
L337.706 370.075
L337.805 370.124
L338.395 370.23
L338.489 370.274
L338.88 370.357
L338.977 370.417
L339.467 370.527
L339.566 370.585
L339.956 370.673
L340.054 370.736
L340.446 370.839
L340.545 370.913
L340.837 370.988
L340.942 371.062
L341.326 371.168
L341.424 371.239
L341.718 371.315
L341.819 371.394
L342.109 371.47
L342.208 371.554
L342.501 371.645
L342.598 371.737
L342.895 371.824
L342.99 371.907
L343.285 371.987
L343.381 372.063
L343.683 372.142
L343.774 372.218
L344.068 372.295
L344.164 372.373
L344.458 372.449
L344.556 372.525
L344.849 372.607
L344.947 372.689
L345.241 372.774
L345.34 372.859
L345.632 372.948
L345.731 373.038
L346.024 373.121
L346.121 373.204
L346.415 373.285
L346.513 373.358
L346.907 373.457
L347.002 373.512
L347.394 373.605
L347.492 373.663
L347.981 373.767
L348.079 373.819
L348.568 373.924
L348.665 373.973
L349.155 374.068
L349.253 374.113
L349.744 374.222
L349.84 374.282
L350.329 374.389
L350.428 374.442
L350.917 374.549
L351.016 374.608
L351.406 374.696
L351.504 374.748
L351.994 374.852
L352.091 374.905
L352.582 375.011
L352.68 375.07
L353.167 375.181
L353.265 375.232
L353.757 375.328
L353.852 375.38
L354.343 375.475
L354.44 375.52
L354.929 375.618
L355.027 375.678
L355.418 375.764
L355.517 375.815
L356.005 375.922
L356.103 375.974
L356.594 376.071
L356.691 376.119
L357.181 376.222
L357.277 376.282
L357.669 376.376
L357.767 376.438
L358.16 376.525
L358.256 376.581
L358.745 376.686
L358.845 376.739
L359.431 376.843
L359.53 376.887
L360.018 376.993
L360.115 377.042
L360.605 377.142
L360.703 377.189
L361.194 377.291
L361.29 377.348
L361.682 377.443
L361.779 377.511
L362.171 377.611
L362.269 377.685
L362.66 377.795
L362.758 377.872
L363.052 377.952
L363.149 378.035
L363.444 378.122
L363.541 378.209
L363.835 378.286
L363.932 378.357
L364.323 378.466
L364.421 378.535
L364.813 378.636
L364.911 378.707
L365.302 378.811
L365.401 378.882
L365.791 378.986
L365.89 379.055
L366.283 379.155
L366.38 379.221
L366.77 379.323
L366.868 379.39
L367.261 379.478
L367.358 379.537
L367.749 379.626
L367.848 379.683
L368.238 379.775
L368.336 379.837
L368.728 379.926
L368.826 379.982
L369.217 380.066
L369.314 380.123
L369.804 380.231
L369.902 380.282
L370.392 380.388
L370.489 380.449
L370.88 380.541
L370.978 380.597
L371.468 380.701
L371.566 380.75
L372.055 380.843
L372.152 380.897
L372.545 380.983
L372.643 381.034
L373.23 381.139
L373.327 381.172
L374.012 381.278
L374.11 381.317
L374.697 381.412
L374.795 381.447
L375.382 381.551
L375.48 381.591
L375.969 381.679
L376.068 381.728
L376.557 381.832
L376.654 381.883
L377.144 381.992
L377.242 382.045
L377.731 382.15
L377.829 382.201
L378.416 382.306
L378.514 382.349
L379.101 382.457
L379.199 382.508
L379.688 382.606
L379.786 382.663
L380.177 382.752
L380.275 382.81
L380.765 382.918
L380.862 382.971
L381.255 383.057
L381.352 383.111
L381.842 383.216
L381.939 383.267
L382.526 383.377
L382.624 383.415
L383.309 383.526
L383.407 383.561
L384.19 383.672
L384.288 383.7
L385.169 383.809
L385.266 383.84
L385.854 383.937
L385.951 383.977
L386.636 384.085
L386.734 384.121
L387.517 384.226
L387.615 384.251
L388.496 384.359
L388.594 384.396
L389.279 384.503
L389.377 384.534
L390.061 384.642
L390.159 384.678
L390.844 384.789
L390.942 384.822
L391.823 384.924
L391.921 384.951
L392.802 385.054
L392.9 385.083
L393.683 385.192
L393.78 385.228
L394.465 385.338
L394.564 385.374
L395.444 385.483
L395.542 385.503
L396.619 385.605
L396.717 385.627
L398.38 385.732
L398.478 385.745
L399.554 385.853
L399.652 385.885
L400.239 385.979
L400.337 386.022
L400.924 386.131
L401.022 386.17
L401.609 386.276
L401.707 386.322
L402.294 386.421
L402.392 386.46
L403.077 386.557
L403.175 386.591
L403.958 386.698
L404.056 386.727
L404.937 386.838
L405.035 386.858
L406.307 386.963
L406.405 386.986
L407.579 387.094
L407.677 387.121
L408.46 387.226
L408.558 387.258
L409.145 387.358
L409.243 387.4
L409.83 387.498
L409.928 387.534
L410.515 387.626
L410.613 387.669
L411.2 387.769
L411.298 387.806
L411.885 387.903
L411.983 387.939
L412.57 388.032
L412.668 388.067
L413.451 388.173
L413.549 388.198
L414.234 388.302
L414.332 388.346
L414.919 388.449
L415.017 388.489
L415.702 388.599
L415.799 388.636
L416.485 388.742
L416.583 388.778
L417.267 388.875
L417.365 388.906
L418.05 389.011
L418.148 389.048
L418.833 389.152
L418.931 389.192
L419.518 389.291
L419.616 389.333
L420.203 389.44
L420.301 389.482
L420.79 389.573
L420.888 389.619
L421.475 389.719
L421.573 389.751
L422.454 389.862
L422.552 389.886
L423.825 389.992
L423.922 390.008
L425.292 390.118
L425.39 390.137
L426.369 390.242
L426.467 390.268
L427.445 390.371
L427.543 390.391
L428.717 390.501
L428.815 390.519
L430.087 390.63
L430.185 390.654
L431.066 390.764
L431.164 390.791
L431.947 390.901
L432.045 390.935
L432.73 391.042
L432.828 391.085
L433.415 391.182
L433.513 391.214
L434.296 391.323
L434.394 391.352
L435.274 391.453
L435.372 391.475
L436.155 391.571
L436.253 391.601
L437.036 391.702
L437.134 391.732
L437.819 391.834
L437.917 391.868
L438.504 391.963
L438.602 392.004
L439.189 392.111
L439.287 392.156
L439.874 392.259
L439.972 392.302
L440.559 392.404
L440.657 392.446
L441.244 392.551
L441.342 392.593
L441.929 392.702
L442.027 392.746
L442.516 392.841
L442.614 392.893
L443.103 392.995
L443.201 393.046
L443.69 393.147
L443.788 393.2
L444.278 393.298
L444.375 393.346
L444.865 393.442
L444.963 393.489
L445.452 393.578
L445.55 393.623
L446.039 393.717
L446.137 393.766
L446.626 393.874
L446.724 393.924
L447.311 394.032
L447.409 394.071
L447.996 394.168
L448.094 394.205
L448.681 394.296
L448.779 394.336
L449.464 394.441
L449.562 394.472
L450.345 394.577
L450.443 394.609
L451.226 394.71
L451.324 394.738
L452.205 394.843
L452.302 394.873
L452.987 394.971
L453.085 395.003
L453.868 395.109
L453.966 395.136
L454.945 395.243
L455.043 395.268
L455.825 395.373
L455.923 395.403
L456.706 395.512
L456.804 395.547
L457.489 395.649
L457.587 395.68
L458.37 395.784
L458.468 395.814
L459.251 395.925
L459.349 395.956
L460.131 396.055
L460.229 396.08
L461.404 396.188
L461.502 396.207
L463.85 396.317
L463.948 396.321
L466.688 396.425
L466.786 396.438
L468.254 396.545
L468.352 396.563
L469.526 396.669
L469.624 396.685
L470.896 396.788
L470.994 396.807
L472.071 396.917
L472.169 396.942
L473.147 397.051
L473.245 397.071
L474.517 397.181
L474.615 397.194
L478.334 397.298
L478.432 397.311
L481.759 397.415
L481.857 397.429
L483.912 397.538
L484.01 397.549
L485.576 397.657
L485.674 397.68
L486.848 397.784
L486.946 397.804
L488.022 397.914
L488.12 397.941
L488.903 398.037
L489.001 398.067
L489.784 398.173
L489.882 398.204
L490.665 398.309
L490.763 398.337
L491.643 398.437
L491.741 398.463
L492.622 398.566
L492.72 398.596
L493.503 398.703
L493.601 398.735
L494.286 398.835
L494.384 398.866
L495.069 398.963
L495.166 398.994
L495.852 399.093
L495.949 399.126
L496.634 399.225
L496.732 399.252
L497.515 399.355
L497.613 399.383
L498.396 399.481
L498.494 399.51
L499.277 399.61
L499.375 399.638
L500.255 399.748
L500.353 399.775
L501.234 399.881
L501.332 399.905
L502.213 400.006
L502.311 400.034
L503.191 400.134
L503.289 400.16
L504.268 400.266
L504.366 400.292
L505.149 400.389
L505.246 400.419
L506.029 400.52
L506.127 400.548
L506.91 400.647
L507.008 400.678
L507.791 400.779
L507.889 400.805
L508.769 400.911
L508.867 400.94
L509.65 401.043
L509.748 401.071
L510.727 401.182
L510.825 401.206
L511.901 401.314
L511.999 401.336
L512.978 401.439
L513.075 401.458
L514.446 401.565
L514.543 401.575
L516.501 401.685
L516.599 401.697
L519.632 401.807
L519.73 401.816
L521.883 401.924
L521.981 401.939
L523.449 402.042
L523.547 402.06
L524.819 402.168
L524.917 402.187
L526.091 402.294
L526.189 402.317
L527.07 402.416
L527.168 402.442
L528.049 402.547
L528.146 402.572
L529.027 402.683
L529.125 402.711
L529.908 402.814
L530.006 402.842
L530.789 402.943
L530.887 402.973
L531.767 403.076
L531.865 403.098
L532.844 403.199
L532.942 403.219
L534.214 403.329
L534.312 403.343
L535.682 403.447
L535.78 403.465
L537.15 403.574
L537.248 403.589
L538.618 403.699
L538.716 403.715
L540.379 403.826
L540.477 403.837
L542.239 403.945
L542.337 403.955
L545.566 404.066
L545.664 404.074
L547.915 404.159
L547.915 404.162" style="fill:none;stroke:#0000ff;stroke-width:5.0;"/>
   </g>
   <g id="matplotlib.axis_1">
    <g id="xtick_1">
     <g id="line2d_2">
      <path d="
M176.658 411.92
L176.658 8.51917" style="fill:none;stroke:#000000;stroke-dasharray:1.000000,3.000000;stroke-dashoffset:0.0;stroke-linecap:butt;stroke-width:0.5;"/>
     </g>
     <g id="line2d_3">
      <defs>
       <path d="
M0 0
L0 -4" id="m3fbe6c24f1"/>
      </defs>
      <g>
       <use style="stroke:#000000;stroke-linecap:butt;stroke-width:0.5;" x="176.658296312" xlink:href="#m3fbe6c24f1" y="16.276875"/>
      </g>
     </g>
     <g id="text_1">
      <!-- 5 -->
      <defs>
       <path d="
M10.7969 72.9062
L49.5156 72.9062
L49.5156 64.5938
L19.8281 64.5938
L19.8281 46.7344
Q21.9688 47.4688 24.1094 47.8281
Q26.2656 48.1875 28.4219 48.1875
Q40.625 48.1875 47.75 41.5
Q54.8906 34.8125 54.8906 23.3906
Q54.8906 11.625 47.5625 5.09375
Q40.2344 -1.42188 26.9062 -1.42188
Q22.3125 -1.42188 17.5469 -0.640625
Q12.7969 0.140625 7.71875 1.70312
L7.71875 11.625
Q12.1094 9.23438 16.7969 8.0625
Q21.4844 6.89062 26.7031 6.89062
Q35.1562 6.89062 40.0781 11.3281
Q45.0156 15.7656 45.0156 23.3906
Q45.0156 31 40.0781 35.4375
Q35.1562 39.8906 26.7031 39.8906
Q22.75 39.8906 18.8125 39.0156
Q14.8906 38.1406 10.7969 36.2812
z
" id="BitstreamVeraSans-Roman-35"/>
      </defs>
      <g transform="translate(170.997671312 37.774375)scale(0.24 -0.24)">
       <use xlink:href="#BitstreamVeraSans-Roman-35"/>
      </g>
     </g>
    </g>
    <g id="xtick_2">
     <g id="line2d_4">
      <path d="
M294.718 411.92
L294.718 8.51917" style="fill:none;stroke:#000000;stroke-dasharray:1.000000,3.000000;stroke-dashoffset:0.0;stroke-linecap:butt;stroke-width:0.5;"/>
     </g>
     <g id="line2d_5">
      <defs>
       <path d="
M0 0
L0 -4" id="m3fbe6c24f1"/>
      </defs>
      <g>
       <use style="stroke:#000000;stroke-linecap:butt;stroke-width:0.5;" x="294.71788668" xlink:href="#m3fbe6c24f1" y="16.276875"/>
      </g>
     </g>
     <g id="text_2">
      <!-- 10 -->
      <defs>
       <path d="
M31.7812 66.4062
Q24.1719 66.4062 20.3281 58.9062
Q16.5 51.4219 16.5 36.375
Q16.5 21.3906 20.3281 13.8906
Q24.1719 6.39062 31.7812 6.39062
Q39.4531 6.39062 43.2812 13.8906
Q47.125 21.3906 47.125 36.375
Q47.125 51.4219 43.2812 58.9062
Q39.4531 66.4062 31.7812 66.4062
M31.7812 74.2188
Q44.0469 74.2188 50.5156 64.5156
Q56.9844 54.8281 56.9844 36.375
Q56.9844 17.9688 50.5156 8.26562
Q44.0469 -1.42188 31.7812 -1.42188
Q19.5312 -1.42188 13.0625 8.26562
Q6.59375 17.9688 6.59375 36.375
Q6.59375 54.8281 13.0625 64.5156
Q19.5312 74.2188 31.7812 74.2188" id="BitstreamVeraSans-Roman-30"/>
       <path d="
M12.4062 8.29688
L28.5156 8.29688
L28.5156 63.9219
L10.9844 60.4062
L10.9844 69.3906
L28.4219 72.9062
L38.2812 72.9062
L38.2812 8.29688
L54.3906 8.29688
L54.3906 0
L12.4062 0
z
" id="BitstreamVeraSans-Roman-31"/>
      </defs>
      <g transform="translate(281.56288668 38.089375)scale(0.24 -0.24)">
       <use xlink:href="#BitstreamVeraSans-Roman-31"/>
       <use x="63.623046875" xlink:href="#BitstreamVeraSans-Roman-30"/>
      </g>
     </g>
    </g>
    <g id="xtick_3">
     <g id="line2d_6">
      <path d="
M412.777 411.92
L412.777 8.51917" style="fill:none;stroke:#000000;stroke-dasharray:1.000000,3.000000;stroke-dashoffset:0.0;stroke-linecap:butt;stroke-width:0.5;"/>
     </g>
     <g id="line2d_7">
      <defs>
       <path d="
M0 0
L0 -4" id="m3fbe6c24f1"/>
      </defs>
      <g>
       <use style="stroke:#000000;stroke-linecap:butt;stroke-width:0.5;" x="412.777477048" xlink:href="#m3fbe6c24f1" y="16.276875"/>
      </g>
     </g>
     <g id="text_3">
      <!-- 15 -->
      <g transform="translate(399.873727048 37.774375)scale(0.24 -0.24)">
       <use xlink:href="#BitstreamVeraSans-Roman-31"/>
       <use x="63.623046875" xlink:href="#BitstreamVeraSans-Roman-35"/>
      </g>
     </g>
    </g>
    <g id="xtick_4">
     <g id="line2d_8">
      <path d="
M530.837 411.92
L530.837 8.51917" style="fill:none;stroke:#000000;stroke-dasharray:1.000000,3.000000;stroke-dashoffset:0.0;stroke-linecap:butt;stroke-width:0.5;"/>
     </g>
     <g id="line2d_9">
      <defs>
       <path d="
M0 0
L0 -4" id="m3fbe6c24f1"/>
      </defs>
      <g>
       <use style="stroke:#000000;stroke-linecap:butt;stroke-width:0.5;" x="530.837067416" xlink:href="#m3fbe6c24f1" y="16.276875"/>
      </g>
     </g>
     <g id="text_4">
      <!-- 20 -->
      <defs>
       <path d="
M19.1875 8.29688
L53.6094 8.29688
L53.6094 0
L7.32812 0
L7.32812 8.29688
Q12.9375 14.1094 22.625 23.8906
Q32.3281 33.6875 34.8125 36.5312
Q39.5469 41.8438 41.4219 45.5312
Q43.3125 49.2188 43.3125 52.7812
Q43.3125 58.5938 39.2344 62.25
Q35.1562 65.9219 28.6094 65.9219
Q23.9688 65.9219 18.8125 64.3125
Q13.6719 62.7031 7.8125 59.4219
L7.8125 69.3906
Q13.7656 71.7812 18.9375 73
Q24.125 74.2188 28.4219 74.2188
Q39.75 74.2188 46.4844 68.5469
Q53.2188 62.8906 53.2188 53.4219
Q53.2188 48.9219 51.5312 44.8906
Q49.8594 40.875 45.4062 35.4062
Q44.1875 33.9844 37.6406 27.2188
Q31.1094 20.4531 19.1875 8.29688" id="BitstreamVeraSans-Roman-32"/>
      </defs>
      <g transform="translate(517.243317416 38.089375)scale(0.24 -0.24)">
       <use xlink:href="#BitstreamVeraSans-Roman-32"/>
       <use x="63.623046875" xlink:href="#BitstreamVeraSans-Roman-30"/>
      </g>
     </g>
    </g>
    <g id="xtick_5">
     <g id="line2d_10">
      <defs>
       <path d="
M0 0
L0 -2" id="mf0ff38ea95"/>
      </defs>
      <g>
       <use style="stroke:#000000;stroke-linecap:butt;stroke-width:0.5;" x="82.2106240179" xlink:href="#mf0ff38ea95" y="16.276875"/>
      </g>
     </g>
    </g>
    <g id="xtick_6">
     <g id="line2d_11">
      <defs>
       <path d="
M0 0
L0 -2" id="mf0ff38ea95"/>
      </defs>
      <g>
       <use style="stroke:#000000;stroke-linecap:butt;stroke-width:0.5;" x="105.822542091" xlink:href="#mf0ff38ea95" y="16.276875"/>
      </g>
     </g>
    </g>
    <g id="xtick_7">
     <g id="line2d_12">
      <defs>
       <path d="
M0 0
L0 -2" id="mf0ff38ea95"/>
      </defs>
      <g>
       <use style="stroke:#000000;stroke-linecap:butt;stroke-width:0.5;" x="129.434460165" xlink:href="#mf0ff38ea95" y="16.276875"/>
      </g>
     </g>
    </g>
    <g id="xtick_8">
     <g id="line2d_13">
      <defs>
       <path d="
M0 0
L0 -2" id="mf0ff38ea95"/>
      </defs>
      <g>
       <use style="stroke:#000000;stroke-linecap:butt;stroke-width:0.5;" x="153.046378239" xlink:href="#mf0ff38ea95" y="16.276875"/>
      </g>
     </g>
    </g>
    <g id="xtick_9">
     <g id="line2d_14">
      <defs>
       <path d="
M0 0
L0 -2" id="mf0ff38ea95"/>
      </defs>
      <g>
       <use style="stroke:#000000;stroke-linecap:butt;stroke-width:0.5;" x="200.270214386" xlink:href="#mf0ff38ea95" y="16.276875"/>
      </g>
     </g>
    </g>
    <g id="xtick_10">
     <g id="line2d_15">
      <defs>
       <path d="
M0 0
L0 -2" id="mf0ff38ea95"/>
      </defs>
      <g>
       <use style="stroke:#000000;stroke-linecap:butt;stroke-width:0.5;" x="223.882132459" xlink:href="#mf0ff38ea95" y="16.276875"/>
      </g>
     </g>
    </g>
    <g id="xtick_11">
     <g id="line2d_16">
      <defs>
       <path d="
M0 0
L0 -2" id="mf0ff38ea95"/>
      </defs>
      <g>
       <use style="stroke:#000000;stroke-linecap:butt;stroke-width:0.5;" x="247.494050533" xlink:href="#mf0ff38ea95" y="16.276875"/>
      </g>
     </g>
    </g>
    <g id="xtick_12">
     <g id="line2d_17">
      <defs>
       <path d="
M0 0
L0 -2" id="mf0ff38ea95"/>
      </defs>
      <g>
       <use style="stroke:#000000;stroke-linecap:butt;stroke-width:0.5;" x="271.105968606" xlink:href="#mf0ff38ea95" y="16.276875"/>
      </g>
     </g>
    </g>
    <g id="xtick_13">
     <g id="line2d_18">
      <defs>
       <path d="
M0 0
L0 -2" id="mf0ff38ea95"/>
      </defs>
      <g>
       <use style="stroke:#000000;stroke-linecap:butt;stroke-width:0.5;" x="318.329804753" xlink:href="#mf0ff38ea95" y="16.276875"/>
      </g>
     </g>
    </g>
    <g id="xtick_14">
     <g id="line2d_19">
      <defs>
       <path d="
M0 0
L0 -2" id="mf0ff38ea95"/>
      </defs>
      <g>
       <use style="stroke:#000000;stroke-linecap:butt;stroke-width:0.5;" x="341.941722827" xlink:href="#mf0ff38ea95" y="16.276875"/>
      </g>
     </g>
    </g>
    <g id="xtick_15">
     <g id="line2d_20">
      <defs>
       <path d="
M0 0
L0 -2" id="mf0ff38ea95"/>
      </defs>
      <g>
       <use style="stroke:#000000;stroke-linecap:butt;stroke-width:0.5;" x="365.553640901" xlink:href="#mf0ff38ea95" y="16.276875"/>
      </g>
     </g>
    </g>
    <g id="xtick_16">
     <g id="line2d_21">
      <defs>
       <path d="
M0 0
L0 -2" id="mf0ff38ea95"/>
      </defs>
      <g>
       <use style="stroke:#000000;stroke-linecap:butt;stroke-width:0.5;" x="389.165558974" xlink:href="#mf0ff38ea95" y="16.276875"/>
      </g>
     </g>
    </g>
    <g id="xtick_17">
     <g id="line2d_22">
      <defs>
       <path d="
M0 0
L0 -2" id="mf0ff38ea95"/>
      </defs>
      <g>
       <use style="stroke:#000000;stroke-linecap:butt;stroke-width:0.5;" x="436.389395121" xlink:href="#mf0ff38ea95" y="16.276875"/>
      </g>
     </g>
    </g>
    <g id="xtick_18">
     <g id="line2d_23">
      <defs>
       <path d="
M0 0
L0 -2" id="mf0ff38ea95"/>
      </defs>
      <g>
       <use style="stroke:#000000;stroke-linecap:butt;stroke-width:0.5;" x="460.001313195" xlink:href="#mf0ff38ea95" y="16.276875"/>
      </g>
     </g>
    </g>
    <g id="xtick_19">
     <g id="line2d_24">
      <defs>
       <path d="
M0 0
L0 -2" id="mf0ff38ea95"/>
      </defs>
      <g>
       <use style="stroke:#000000;stroke-linecap:butt;stroke-width:0.5;" x="483.613231268" xlink:href="#mf0ff38ea95" y="16.276875"/>
      </g>
     </g>
    </g>
    <g id="xtick_20">
     <g id="line2d_25">
      <defs>
       <path d="
M0 0
L0 -2" id="mf0ff38ea95"/>
      </defs>
      <g>
       <use style="stroke:#000000;stroke-linecap:butt;stroke-width:0.5;" x="507.225149342" xlink:href="#mf0ff38ea95" y="16.276875"/>
      </g>
     </g>
    </g>
   </g>
   <g id="matplotlib.axis_2">
    <g id="ytick_1">
     <g id="line2d_26">
      <path d="
M65.5062 401.794
L557.374 401.794" style="fill:none;stroke:#000000;stroke-dasharray:1.000000,3.000000;stroke-dashoffset:0.0;stroke-linecap:butt;stroke-width:0.5;"/>
     </g>
     <g id="line2d_27">
      <defs>
       <path d="
M0 0
L4 0" id="mc91e532072"/>
      </defs>
      <g>
       <use style="stroke:#000000;stroke-linecap:butt;stroke-width:0.5;" x="55.50625" xlink:href="#mc91e532072" y="401.794482352"/>
      </g>
     </g>
     <g id="text_5">
      <!-- -1.4 -->
      <defs>
       <path d="
M10.6875 12.4062
L21 12.4062
L21 0
L10.6875 0
z
" id="BitstreamVeraSans-Roman-2e"/>
       <path d="
M4.89062 31.3906
L31.2031 31.3906
L31.2031 23.3906
L4.89062 23.3906
z
" id="BitstreamVeraSans-Roman-2d"/>
       <path d="
M37.7969 64.3125
L12.8906 25.3906
L37.7969 25.3906
z

M35.2031 72.9062
L47.6094 72.9062
L47.6094 25.3906
L58.0156 25.3906
L58.0156 17.1875
L47.6094 17.1875
L47.6094 0
L37.7969 0
L37.7969 17.1875
L4.89062 17.1875
L4.89062 26.7031
z
" id="BitstreamVeraSans-Roman-34"/>
      </defs>
      <g transform="translate(7.2 410.543232352)scale(0.24 -0.24)">
       <use xlink:href="#BitstreamVeraSans-Roman-2d"/>
       <use x="36.083984375" xlink:href="#BitstreamVeraSans-Roman-31"/>
       <use x="99.70703125" xlink:href="#BitstreamVeraSans-Roman-2e"/>
       <use x="131.494140625" xlink:href="#BitstreamVeraSans-Roman-34"/>
      </g>
     </g>
    </g>
    <g id="ytick_2">
     <g id="line2d_28">
      <path d="
M65.5062 346.721
L557.374 346.721" style="fill:none;stroke:#000000;stroke-dasharray:1.000000,3.000000;stroke-dashoffset:0.0;stroke-linecap:butt;stroke-width:0.5;"/>
     </g>
     <g id="line2d_29">
      <defs>
       <path d="
M0 0
L4 0" id="mc91e532072"/>
      </defs>
      <g>
       <use style="stroke:#000000;stroke-linecap:butt;stroke-width:0.5;" x="55.50625" xlink:href="#mc91e532072" y="346.720538444"/>
      </g>
     </g>
     <g id="text_6">
      <!-- -1.2 -->
      <g transform="translate(8.2575 355.626788444)scale(0.24 -0.24)">
       <use xlink:href="#BitstreamVeraSans-Roman-2d"/>
       <use x="36.083984375" xlink:href="#BitstreamVeraSans-Roman-31"/>
       <use x="99.70703125" xlink:href="#BitstreamVeraSans-Roman-2e"/>
       <use x="131.494140625" xlink:href="#BitstreamVeraSans-Roman-32"/>
      </g>
     </g>
    </g>
    <g id="ytick_3">
     <g id="line2d_30">
      <path d="
M65.5062 291.647
L557.374 291.647" style="fill:none;stroke:#000000;stroke-dasharray:1.000000,3.000000;stroke-dashoffset:0.0;stroke-linecap:butt;stroke-width:0.5;"/>
     </g>
     <g id="line2d_31">
      <defs>
       <path d="
M0 0
L4 0" id="mc91e532072"/>
      </defs>
      <g>
       <use style="stroke:#000000;stroke-linecap:butt;stroke-width:0.5;" x="55.50625" xlink:href="#mc91e532072" y="291.646594537"/>
      </g>
     </g>
     <g id="text_7">
      <!-- -1 -->
      <g transform="translate(30.9675 300.395344537)scale(0.24 -0.24)">
       <use xlink:href="#BitstreamVeraSans-Roman-2d"/>
       <use x="36.083984375" xlink:href="#BitstreamVeraSans-Roman-31"/>
      </g>
     </g>
    </g>
    <g id="ytick_4">
     <g id="line2d_32">
      <path d="
M65.5062 236.573
L557.374 236.573" style="fill:none;stroke:#000000;stroke-dasharray:1.000000,3.000000;stroke-dashoffset:0.0;stroke-linecap:butt;stroke-width:0.5;"/>
     </g>
     <g id="line2d_33">
      <defs>
       <path d="
M0 0
L4 0" id="mc91e532072"/>
      </defs>
      <g>
       <use style="stroke:#000000;stroke-linecap:butt;stroke-width:0.5;" x="55.50625" xlink:href="#mc91e532072" y="236.57265063"/>
      </g>
     </g>
     <g id="text_8">
      <!-- -0.8 -->
      <defs>
       <path d="
M31.7812 34.625
Q24.75 34.625 20.7188 30.8594
Q16.7031 27.0938 16.7031 20.5156
Q16.7031 13.9219 20.7188 10.1562
Q24.75 6.39062 31.7812 6.39062
Q38.8125 6.39062 42.8594 10.1719
Q46.9219 13.9688 46.9219 20.5156
Q46.9219 27.0938 42.8906 30.8594
Q38.875 34.625 31.7812 34.625
M21.9219 38.8125
Q15.5781 40.375 12.0312 44.7188
Q8.5 49.0781 8.5 55.3281
Q8.5 64.0625 14.7188 69.1406
Q20.9531 74.2188 31.7812 74.2188
Q42.6719 74.2188 48.875 69.1406
Q55.0781 64.0625 55.0781 55.3281
Q55.0781 49.0781 51.5312 44.7188
Q48 40.375 41.7031 38.8125
Q48.8281 37.1562 52.7969 32.3125
Q56.7812 27.4844 56.7812 20.5156
Q56.7812 9.90625 50.3125 4.23438
Q43.8438 -1.42188 31.7812 -1.42188
Q19.7344 -1.42188 13.25 4.23438
Q6.78125 9.90625 6.78125 20.5156
Q6.78125 27.4844 10.7812 32.3125
Q14.7969 37.1562 21.9219 38.8125
M18.3125 54.3906
Q18.3125 48.7344 21.8438 45.5625
Q25.3906 42.3906 31.7812 42.3906
Q38.1406 42.3906 41.7188 45.5625
Q45.3125 48.7344 45.3125 54.3906
Q45.3125 60.0625 41.7188 63.2344
Q38.1406 66.4062 31.7812 66.4062
Q25.3906 66.4062 21.8438 63.2344
Q18.3125 60.0625 18.3125 54.3906" id="BitstreamVeraSans-Roman-38"/>
      </defs>
      <g transform="translate(7.49625 245.30827563)scale(0.24 -0.24)">
       <use xlink:href="#BitstreamVeraSans-Roman-2d"/>
       <use x="36.083984375" xlink:href="#BitstreamVeraSans-Roman-30"/>
       <use x="99.70703125" xlink:href="#BitstreamVeraSans-Roman-2e"/>
       <use x="131.494140625" xlink:href="#BitstreamVeraSans-Roman-38"/>
      </g>
     </g>
    </g>
    <g id="ytick_5">
     <g id="line2d_34">
      <path d="
M65.5062 181.499
L557.374 181.499" style="fill:none;stroke:#000000;stroke-dasharray:1.000000,3.000000;stroke-dashoffset:0.0;stroke-linecap:butt;stroke-width:0.5;"/>
     </g>
     <g id="line2d_35">
      <defs>
       <path d="
M0 0
L4 0" id="mc91e532072"/>
      </defs>
      <g>
       <use style="stroke:#000000;stroke-linecap:butt;stroke-width:0.5;" x="55.50625" xlink:href="#mc91e532072" y="181.498706722"/>
      </g>
     </g>
     <g id="text_9">
      <!-- -0.6 -->
      <defs>
       <path d="
M33.0156 40.375
Q26.375 40.375 22.4844 35.8281
Q18.6094 31.2969 18.6094 23.3906
Q18.6094 15.5312 22.4844 10.9531
Q26.375 6.39062 33.0156 6.39062
Q39.6562 6.39062 43.5312 10.9531
Q47.4062 15.5312 47.4062 23.3906
Q47.4062 31.2969 43.5312 35.8281
Q39.6562 40.375 33.0156 40.375
M52.5938 71.2969
L52.5938 62.3125
Q48.875 64.0625 45.0938 64.9844
Q41.3125 65.9219 37.5938 65.9219
Q27.8281 65.9219 22.6719 59.3281
Q17.5312 52.7344 16.7969 39.4062
Q19.6719 43.6562 24.0156 45.9219
Q28.375 48.1875 33.5938 48.1875
Q44.5781 48.1875 50.9531 41.5156
Q57.3281 34.8594 57.3281 23.3906
Q57.3281 12.1562 50.6875 5.35938
Q44.0469 -1.42188 33.0156 -1.42188
Q20.3594 -1.42188 13.6719 8.26562
Q6.98438 17.9688 6.98438 36.375
Q6.98438 53.6562 15.1875 63.9375
Q23.3906 74.2188 37.2031 74.2188
Q40.9219 74.2188 44.7031 73.4844
Q48.4844 72.75 52.5938 71.2969" id="BitstreamVeraSans-Roman-36"/>
      </defs>
      <g transform="translate(7.365 190.234331722)scale(0.24 -0.24)">
       <use xlink:href="#BitstreamVeraSans-Roman-2d"/>
       <use x="36.083984375" xlink:href="#BitstreamVeraSans-Roman-30"/>
       <use x="99.70703125" xlink:href="#BitstreamVeraSans-Roman-2e"/>
       <use x="131.494140625" xlink:href="#BitstreamVeraSans-Roman-36"/>
      </g>
     </g>
    </g>
    <g id="ytick_6">
     <g id="line2d_36">
      <path d="
M65.5062 126.425
L557.374 126.425" style="fill:none;stroke:#000000;stroke-dasharray:1.000000,3.000000;stroke-dashoffset:0.0;stroke-linecap:butt;stroke-width:0.5;"/>
     </g>
     <g id="line2d_37">
      <defs>
       <path d="
M0 0
L4 0" id="mc91e532072"/>
      </defs>
      <g>
       <use style="stroke:#000000;stroke-linecap:butt;stroke-width:0.5;" x="55.50625" xlink:href="#mc91e532072" y="126.424762815"/>
      </g>
     </g>
     <g id="text_10">
      <!-- -0.4 -->
      <g transform="translate(7.2 135.160387815)scale(0.24 -0.24)">
       <use xlink:href="#BitstreamVeraSans-Roman-2d"/>
       <use x="36.083984375" xlink:href="#BitstreamVeraSans-Roman-30"/>
       <use x="99.70703125" xlink:href="#BitstreamVeraSans-Roman-2e"/>
       <use x="131.494140625" xlink:href="#BitstreamVeraSans-Roman-34"/>
      </g>
     </g>
    </g>
    <g id="ytick_7">
     <g id="line2d_38">
      <path d="
M65.5062 71.3508
L557.374 71.3508" style="fill:none;stroke:#000000;stroke-dasharray:1.000000,3.000000;stroke-dashoffset:0.0;stroke-linecap:butt;stroke-width:0.5;"/>
     </g>
     <g id="line2d_39">
      <defs>
       <path d="
M0 0
L4 0" id="mc91e532072"/>
      </defs>
      <g>
       <use style="stroke:#000000;stroke-linecap:butt;stroke-width:0.5;" x="55.50625" xlink:href="#mc91e532072" y="71.3508189074"/>
      </g>
     </g>
     <g id="text_11">
      <!-- -0.2 -->
      <g transform="translate(8.2575 80.0864439074)scale(0.24 -0.24)">
       <use xlink:href="#BitstreamVeraSans-Roman-2d"/>
       <use x="36.083984375" xlink:href="#BitstreamVeraSans-Roman-30"/>
       <use x="99.70703125" xlink:href="#BitstreamVeraSans-Roman-2e"/>
       <use x="131.494140625" xlink:href="#BitstreamVeraSans-Roman-32"/>
      </g>
     </g>
    </g>
    <g id="ytick_8">
     <g id="line2d_40">
      <path d="
M65.5062 16.2769
L557.374 16.2769" style="fill:none;stroke:#000000;stroke-dasharray:1.000000,3.000000;stroke-dashoffset:0.0;stroke-linecap:butt;stroke-width:0.5;"/>
     </g>
     <g id="line2d_41">
      <defs>
       <path d="
M0 0
L4 0" id="mc91e532072"/>
      </defs>
      <g>
       <use style="stroke:#000000;stroke-linecap:butt;stroke-width:0.5;" x="55.50625" xlink:href="#mc91e532072" y="16.276875"/>
      </g>
     </g>
     <g id="text_12">
      <!-- 0 -->
      <g transform="translate(39.4125 25.0125)scale(0.24 -0.24)">
       <use xlink:href="#BitstreamVeraSans-Roman-30"/>
      </g>
     </g>
    </g>
    <g id="ytick_9">
     <g id="line2d_42">
      <defs>
       <path d="
M0 0
L2 0" id="m0789224b6b"/>
      </defs>
      <g>
       <use style="stroke:#000000;stroke-linecap:butt;stroke-width:0.5;" x="55.50625" xlink:href="#m0789224b6b" y="388.025996375"/>
      </g>
     </g>
    </g>
    <g id="ytick_10">
     <g id="line2d_43">
      <defs>
       <path d="
M0 0
L2 0" id="m0789224b6b"/>
      </defs>
      <g>
       <use style="stroke:#000000;stroke-linecap:butt;stroke-width:0.5;" x="55.50625" xlink:href="#m0789224b6b" y="374.257510398"/>
      </g>
     </g>
    </g>
    <g id="ytick_11">
     <g id="line2d_44">
      <defs>
       <path d="
M0 0
L2 0" id="m0789224b6b"/>
      </defs>
      <g>
       <use style="stroke:#000000;stroke-linecap:butt;stroke-width:0.5;" x="55.50625" xlink:href="#m0789224b6b" y="360.489024421"/>
      </g>
     </g>
    </g>
    <g id="ytick_12">
     <g id="line2d_45">
      <defs>
       <path d="
M0 0
L2 0" id="m0789224b6b"/>
      </defs>
      <g>
       <use style="stroke:#000000;stroke-linecap:butt;stroke-width:0.5;" x="55.50625" xlink:href="#m0789224b6b" y="332.952052467"/>
      </g>
     </g>
    </g>
    <g id="ytick_13">
     <g id="line2d_46">
      <defs>
       <path d="
M0 0
L2 0" id="m0789224b6b"/>
      </defs>
      <g>
       <use style="stroke:#000000;stroke-linecap:butt;stroke-width:0.5;" x="55.50625" xlink:href="#m0789224b6b" y="319.183566491"/>
      </g>
     </g>
    </g>
    <g id="ytick_14">
     <g id="line2d_47">
      <defs>
       <path d="
M0 0
L2 0" id="m0789224b6b"/>
      </defs>
      <g>
       <use style="stroke:#000000;stroke-linecap:butt;stroke-width:0.5;" x="55.50625" xlink:href="#m0789224b6b" y="305.415080514"/>
      </g>
     </g>
    </g>
    <g id="ytick_15">
     <g id="line2d_48">
      <defs>
       <path d="
M0 0
L2 0" id="m0789224b6b"/>
      </defs>
      <g>
       <use style="stroke:#000000;stroke-linecap:butt;stroke-width:0.5;" x="55.50625" xlink:href="#m0789224b6b" y="277.87810856"/>
      </g>
     </g>
    </g>
    <g id="ytick_16">
     <g id="line2d_49">
      <defs>
       <path d="
M0 0
L2 0" id="m0789224b6b"/>
      </defs>
      <g>
       <use style="stroke:#000000;stroke-linecap:butt;stroke-width:0.5;" x="55.50625" xlink:href="#m0789224b6b" y="264.109622583"/>
      </g>
     </g>
    </g>
    <g id="ytick_17">
     <g id="line2d_50">
      <defs>
       <path d="
M0 0
L2 0" id="m0789224b6b"/>
      </defs>
      <g>
       <use style="stroke:#000000;stroke-linecap:butt;stroke-width:0.5;" x="55.50625" xlink:href="#m0789224b6b" y="250.341136606"/>
      </g>
     </g>
    </g>
    <g id="ytick_18">
     <g id="line2d_51">
      <defs>
       <path d="
M0 0
L2 0" id="m0789224b6b"/>
      </defs>
      <g>
       <use style="stroke:#000000;stroke-linecap:butt;stroke-width:0.5;" x="55.50625" xlink:href="#m0789224b6b" y="222.804164653"/>
      </g>
     </g>
    </g>
    <g id="ytick_19">
     <g id="line2d_52">
      <defs>
       <path d="
M0 0
L2 0" id="m0789224b6b"/>
      </defs>
      <g>
       <use style="stroke:#000000;stroke-linecap:butt;stroke-width:0.5;" x="55.50625" xlink:href="#m0789224b6b" y="209.035678676"/>
      </g>
     </g>
    </g>
    <g id="ytick_20">
     <g id="line2d_53">
      <defs>
       <path d="
M0 0
L2 0" id="m0789224b6b"/>
      </defs>
      <g>
       <use style="stroke:#000000;stroke-linecap:butt;stroke-width:0.5;" x="55.50625" xlink:href="#m0789224b6b" y="195.267192699"/>
      </g>
     </g>
    </g>
    <g id="ytick_21">
     <g id="line2d_54">
      <defs>
       <path d="
M0 0
L2 0" id="m0789224b6b"/>
      </defs>
      <g>
       <use style="stroke:#000000;stroke-linecap:butt;stroke-width:0.5;" x="55.50625" xlink:href="#m0789224b6b" y="167.730220745"/>
      </g>
     </g>
    </g>
    <g id="ytick_22">
     <g id="line2d_55">
      <defs>
       <path d="
M0 0
L2 0" id="m0789224b6b"/>
      </defs>
      <g>
       <use style="stroke:#000000;stroke-linecap:butt;stroke-width:0.5;" x="55.50625" xlink:href="#m0789224b6b" y="153.961734768"/>
      </g>
     </g>
    </g>
    <g id="ytick_23">
     <g id="line2d_56">
      <defs>
       <path d="
M0 0
L2 0" id="m0789224b6b"/>
      </defs>
      <g>
       <use style="stroke:#000000;stroke-linecap:butt;stroke-width:0.5;" x="55.50625" xlink:href="#m0789224b6b" y="140.193248792"/>
      </g>
     </g>
    </g>
    <g id="ytick_24">
     <g id="line2d_57">
      <defs>
       <path d="
M0 0
L2 0" id="m0789224b6b"/>
      </defs>
      <g>
       <use style="stroke:#000000;stroke-linecap:butt;stroke-width:0.5;" x="55.50625" xlink:href="#m0789224b6b" y="112.656276838"/>
      </g>
     </g>
    </g>
    <g id="ytick_25">
     <g id="line2d_58">
      <defs>
       <path d="
M0 0
L2 0" id="m0789224b6b"/>
      </defs>
      <g>
       <use style="stroke:#000000;stroke-linecap:butt;stroke-width:0.5;" x="55.50625" xlink:href="#m0789224b6b" y="98.8877908611"/>
      </g>
     </g>
    </g>
    <g id="ytick_26">
     <g id="line2d_59">
      <defs>
       <path d="
M0 0
L2 0" id="m0789224b6b"/>
      </defs>
      <g>
       <use style="stroke:#000000;stroke-linecap:butt;stroke-width:0.5;" x="55.50625" xlink:href="#m0789224b6b" y="85.1193048842"/>
      </g>
     </g>
    </g>
    <g id="ytick_27">
     <g id="line2d_60">
      <defs>
       <path d="
M0 0
L2 0" id="m0789224b6b"/>
      </defs>
      <g>
       <use style="stroke:#000000;stroke-linecap:butt;stroke-width:0.5;" x="55.50625" xlink:href="#m0789224b6b" y="57.5823329305"/>
      </g>
     </g>
    </g>
    <g id="ytick_28">
     <g id="line2d_61">
      <defs>
       <path d="
M0 0
L2 0" id="m0789224b6b"/>
      </defs>
      <g>
       <use style="stroke:#000000;stroke-linecap:butt;stroke-width:0.5;" x="55.50625" xlink:href="#m0789224b6b" y="43.8138469537"/>
      </g>
     </g>
    </g>
    <g id="ytick_29">
     <g id="line2d_62">
      <defs>
       <path d="
M0 0
L2 0" id="m0789224b6b"/>
      </defs>
      <g>
       <use style="stroke:#000000;stroke-linecap:butt;stroke-width:0.5;" x="55.50625" xlink:href="#m0789224b6b" y="30.0453609768"/>
      </g>
     </g>
    </g>
   </g>
   <g id="patch_3">
    <path d="
M65.5062 16.2769
L557.374 16.2769" style="fill:none;stroke:#000000;stroke-width:0.8;"/>
   </g>
   <g id="patch_4">
    <path d="
M55.5062 411.92
L55.5062 8.51917" style="fill:none;stroke:#000000;stroke-width:0.8;"/>
   </g>
  </g>
 </g>
 <defs>
  <clipPath id="p251e53ff8b">
   <rect height="403.400914913" width="491.8675" x="65.50625" y="8.51916509783"/>
  </clipPath>
 </defs>
</svg>
