<?xml version="1.0" encoding="utf-8" standalone="no"?>
<!DOCTYPE svg PUBLIC "-//W3C//DTD SVG 1.1//EN"
  "http://www.w3.org/Graphics/SVG/1.1/DTD/svg11.dtd">
<!-- Created with matplotlib (http://matplotlib.sourceforge.net/) -->
<svg height="419pt" version="1.1" viewBox="0 0 564 419" width="564pt" xmlns="http://www.w3.org/2000/svg" xmlns:xlink="http://www.w3.org/1999/xlink">
 <defs>
  <style type="text/css">
*{stroke-linecap:square;stroke-linejoin:round;}
  </style>
 </defs>
 <g id="figure_1">
  <g id="patch_1">
   <path d="
M-4.44089e-16 419.439
L564.499 419.439
L564.499 0
L-4.44089e-16 0
z
" style="fill:#ffffff;"/>
  </g>
  <g id="axes_1">
   <g id="patch_2">
    <path d="
M64.7562 412.239
L557.299 412.239
L557.299 8.51291
L64.7562 8.51291
z
" style="fill:#ffffff;"/>
   </g>
   <g id="line2d_1">
    <path clip-path="url(#p2fe29bff6c)" d="
M74.2282 16.2769
L83.8152 16.2769
L83.8152 16.2769
L83.8152 16.2769
L95.8933 16.2769
L95.8933 39.5529
L103.849 39.5529
L103.849 62.5724
L114.536 62.5724
L114.536 98.1943
L118.486 98.1943
L118.486 112.888
L124.829 112.888
L124.829 125.041
L127.458 125.041
L127.458 131.965
L131.976 131.965
L131.976 146.62
L137.457 146.62
L137.457 165.961
L139.034 165.961
L139.034 172.101
L143.217 172.101
L143.217 189.889
L145.644 189.889
L145.644 197.257
L146.77 197.257
L146.77 201.227
L148.873 201.227
L148.873 209.6
L151.714 209.6
L151.714 221.698
L154.25 221.698
L154.25 229.944
L155.038 229.944
L155.038 231.886
L157.256 231.886
L157.256 238.266
L158.627 238.266
L158.627 242.677
L159.284 242.677
L159.284 245.058
L161.152 245.058
L161.152 250.547
L162.32 250.547
L162.32 254.363
L163.97 254.363
L163.97 260.266
L166.005 260.266
L166.005 267.998
L166.961 267.998
L166.961 270.994
L167.424 270.994
L167.424 272.615
L168.325 272.615
L168.325 275.287
L168.763 275.287
L168.763 276.743
L169.615 276.743
L169.615 279.87
L172.377 279.87
L172.377 288.201
L173.11 288.201
L173.11 290.554
L174.169 290.554
L174.169 294.249
L174.512 294.249
L174.512 295.281
L176.154 295.281
L176.154 300.651
L176.469 300.651
L176.469 301.759
L177.391 301.759
L177.391 304.587
L178.277 304.587
L178.277 306.897
L178.851 306.897
L178.851 308.547
L179.685 308.547
L179.685 310.593
L180.491 310.593
L180.491 312.227
L180.754 312.227
L180.754 312.658
L182.026 312.658
L182.026 314.248
L182.272 314.248
L182.272 314.624
L182.757 314.624
L182.757 315.508
L182.996 315.508
L182.996 315.86
L184.38 315.86
L184.38 318.249
L185.688 318.249
L185.688 320.765
L186.108 320.765
L186.108 321.416
L186.316 321.416
L186.316 321.794
L186.725 321.794
L186.725 322.652
L187.326 322.652
L187.326 323.707
L187.524 323.707
L187.524 324.104
L188.485 324.104
L188.485 326.267
L189.043 326.267
L189.043 327.642
L189.589 327.642
L189.589 329.108
L190.122 329.108
L190.122 330.361
L190.298 330.361
L190.298 330.814
L190.815 330.814
L190.815 331.995
L191.154 331.995
L191.154 332.662
L191.322 332.662
L191.322 333.034
L192.143 333.034
L192.143 334.595
L193.247 334.595
L193.247 336.315
L193.553 336.315
L193.553 336.697
L193.704 336.697
L193.704 336.922
L194.005 336.922
L194.005 337.441
L195.026 337.441
L195.026 339.406
L195.451 339.406
L195.451 340.302
L196.143 340.302
L196.143 341.894
L196.278 341.894
L196.278 342.168
L196.548 342.168
L196.548 342.642
L196.946 342.642
L196.946 343.237
L197.467 343.237
L197.467 343.872
L197.851 343.872
L197.851 344.238
L198.228 344.238
L198.228 344.678
L198.476 344.678
L198.476 344.904
L198.844 344.904
L198.844 345.318
L199.325 345.318
L199.325 345.736
L199.562 345.736
L199.562 345.991
L200.029 345.991
L200.029 346.379
L200.601 346.379
L200.601 346.962
L200.713 346.962
L200.713 347.1
L201.268 347.1
L201.378 347.726
L201.703 347.726
L201.703 348.034
L201.918 348.034
L201.918 348.281
L202.236 348.281
L202.236 348.572
L202.653 348.572
L202.653 349.034
L202.859 349.034
L202.962 349.412
L203.165 349.412
L203.165 349.672
L203.765 349.672
L203.765 350.298
L204.157 350.298
L204.157 350.614
L204.35 350.614
L204.35 350.727
L204.732 350.727
L204.732 351.023
L204.921 351.023
L204.921 351.205
L205.201 351.205
L205.201 351.527
L205.752 351.527
L205.843 352.391
L206.643 352.391
L206.643 353.406
L206.904 353.406
L206.904 353.677
L207.332 353.677
L207.332 354.195
L207.585 354.195
L207.585 354.447
L207.836 354.447
L207.919 354.853
L208.166 354.853
L208.166 355.231
L208.572 355.231
L208.572 355.765
L208.813 355.765
L208.813 356.121
L209.051 356.121
L209.13 356.628
L209.365 356.628
L209.365 357.009
L209.597 357.009
L209.597 357.425
L209.751 357.425
L209.827 357.805
L210.281 357.805
L210.281 358.678
L210.653 358.678
L210.727 359.45
L210.873 359.45
L210.873 359.749
L211.092 359.749
L211.092 360.229
L211.308 360.229
L211.38 360.894
L211.805 360.894
L211.805 361.88
L211.945 361.88
L211.945 362.177
L212.154 362.177
L212.154 362.651
L212.429 362.651
L212.429 363.223
L212.769 363.223
L212.769 363.978
L213.037 363.978
L213.037 364.521
L213.368 364.521
L213.368 365.239
L213.63 365.239
L213.63 365.754
L213.824 365.754
L213.824 366.101
L214.017 366.101
L214.017 366.409
L214.145 366.409
L214.145 366.59
L214.398 366.59
L214.398 366.905
L214.586 366.905
L214.586 367.167
L214.711 367.167
L214.711 367.359
L214.958 367.359
L214.958 367.778
L215.081 367.778
L215.081 367.964
L215.505 367.964
L215.505 368.668
L215.804 368.668
L215.804 369.107
L216.157 369.107
L216.215 369.627
L216.505 369.627
L216.563 369.944
L216.734 370.051
L216.734 370.095
L217.018 370.095
L217.018 370.265
L217.409 370.265
L217.52 370.651
L217.685 370.708
L217.685 370.837
L218.065 370.837
L218.173 371.462
L218.333 371.531
L218.333 371.685
L218.86 371.685
L218.964 372.689
L219.171 372.689
L219.171 373.068
L219.427 373.068
L219.427 373.495
L219.63 373.495
L219.731 374.053
L219.881 374.053
L219.881 374.364
L220.03 374.364
L220.03 374.693
L220.375 374.693
L220.473 375.705
L220.618 375.705
L220.618 376.039
L220.763 376.039
L220.763 376.347
L220.955 376.347
L220.955 376.726
L221.097 376.726
L221.097 376.985
L221.38 376.985
L221.474 377.727
L221.613 377.727
L221.66 378.129
L221.89 378.129
L221.936 378.724
L222.073 378.724
L222.073 378.98
L222.299 378.98
L222.345 379.529
L222.568 379.529
L222.613 380.127
L222.746 380.127
L222.746 380.388
L223.141 380.388
L223.228 381.395
L223.357 381.484
L223.357 381.648
L223.486 381.648
L223.486 381.875
L223.615 381.875
L223.615 382.116
L223.785 382.116
L223.785 382.41
L223.911 382.41
L223.911 382.646
L224.037 382.646
L224.037 382.861
L224.494 382.861
L224.535 383.639
L224.739 383.639
L224.739 384.004
L224.901 384.004
L224.901 384.271
L225.102 384.271
L225.102 384.572
L225.222 384.572
L225.222 384.766
L225.341 384.766
L225.341 384.974
L225.499 384.974
L225.499 385.267
L225.734 385.267
L225.812 385.792
L225.928 385.792
L225.928 385.989
L226.044 385.989
L226.082 386.234
L226.197 386.234
L226.197 386.411
L226.426 386.411
L226.426 386.731
L226.614 386.731
L226.614 386.968
L226.95 386.968
L227.061 387.487
L227.171 387.487
L227.208 387.699
L227.317 387.699
L227.426 388.036
L227.499 388.036
L227.499 388.168
L227.715 388.168
L227.751 388.597
L227.858 388.597
L227.858 388.802
L228.456 388.802
L228.56 390.052
L228.664 390.052
L228.664 390.231
L228.801 390.231
L228.801 390.45
L229.107 390.45
L229.107 390.897
L229.276 390.897
L229.276 391.16
L229.509 391.16
L229.609 391.65
L229.774 391.751
L229.774 391.914
L229.905 391.914
L230.003 392.244
L230.1 392.244
L230.1 392.378
L230.294 392.378
L230.294 392.621
L230.454 392.621
L230.55 392.888
L230.74 392.952
L230.74 393.001
L230.928 393.001
L230.928 393.119
L231.115 393.119
L231.115 393.256
L231.424 393.332
L231.515 393.518
L231.789 393.615
L231.849 393.706
L232.029 393.789
L232.029 393.822
L232.237 393.822
L232.296 393.996
L232.59 394.104
L232.677 394.137
L233.109 394.198
L233.194 394.318
L234.36 394.422
L234.441 394.47
L237.874 394.58
L237.898 394.585
L239.035 394.477
L239.124 394.429
L239.584 394.35
L239.584 394.266
L239.95 394.161
L240.036 394.089
L240.353 393.999
L240.353 393.961
L240.666 393.87
L240.728 393.811
L241.641 393.702
L241.7 393.661
L241.976 393.582
L242.035 393.519
L243.031 393.626
L243.125 393.693
L243.569 393.772
L243.679 393.908
L244.059 394
L244.059 394.029
L245.233 394.127
L245.318 394.163
L245.673 394.234
L245.673 394.285
L246.171 394.37
L246.237 394.435
L246.562 394.523
L246.659 394.606
L247.136 394.709
L247.231 394.824
L247.527 394.932
L247.62 395.024
L247.836 395.128
L247.836 395.156
L248.064 395.262
L248.079 395.318
L248.395 395.411
L248.44 395.567
L248.692 395.666
L248.796 395.805
L249.044 395.864
L249.102 396.019
L249.391 396.067
L249.491 396.257
L249.704 396.352
L249.732 396.423
L249.915 396.526
L249.915 396.535
L250.152 396.611
L250.194 396.728
L250.332 396.728
L250.442 396.939
L250.565 397.027
L250.579 397.067
L250.728 397.067
L250.782 397.255
L250.971 397.365
L251.065 397.52
L251.171 397.566
L251.264 397.759
L251.409 397.86
L251.501 398.069
L251.606 398.15
L251.697 398.291
L251.84 398.337
L251.93 398.588
L252.045 398.622
L252.109 398.833
L252.224 398.907
L252.313 399.12
L252.49 399.169
L252.54 399.424
L252.69 399.504
L252.752 399.681
L252.864 399.681
L252.938 399.887
L253.049 399.989
L253.122 400.101
L253.281 400.212
L253.39 400.364
L253.523 400.453
L253.631 400.6
L253.751 400.6
L253.751 400.718
L253.881 400.718
L253.988 400.942
L254.105 401.021
L254.105 401.055
L254.234 401.055
L254.281 401.217
L254.409 401.306
L254.49 401.413
L254.685 401.501
L254.754 401.627
L254.97 401.72
L254.97 401.821
L255.106 401.821
L255.207 402.032
L255.341 402.143
L255.441 402.225
L255.596 402.317
L255.64 402.388
L255.804 402.388
L255.87 402.584
L256.054 402.678
L256.152 402.801
L256.313 402.879
L256.419 403
L256.631 403.086
L256.694 403.208
L256.977 403.303
L257.081 403.409
L257.44 403.513
L257.542 403.591
L257.865 403.694
L257.925 403.769
L258.173 403.844
L258.262 403.983
L258.556 404.084
L258.634 404.222
L258.836 404.316
L258.923 404.381
L260.479 404.272
L260.587 404.249
L260.959 404.166
L261.038 404.089
L261.351 404.005
L261.403 403.956
L261.999 403.846
L262.1 403.802
L262.366 403.703
L262.474 403.646
L262.736 403.545
L262.842 403.478
L263.228 403.367
L263.292 403.301
L263.577 403.19
L263.679 403.133
L263.889 403.023
L263.975 402.985
L264.297 402.902
L264.389 402.835
L264.578 402.727
L264.683 402.654
L264.885 402.556
L264.982 402.481
L265.159 402.379
L265.247 402.316
L265.502 402.236
L265.611 402.127
L265.812 402.028
L265.919 401.952
L266.174 401.849
L266.273 401.792
L266.503 401.688
L266.607 401.622
L266.834 401.523
L266.896 401.451
L267.066 401.346
L267.168 401.287
L267.443 401.178
L267.543 401.131
L267.887 401.021
L267.985 401.002
L268.271 400.902
L268.335 400.875
L270.574 400.768
L270.679 400.711
L270.893 400.609
L270.98 400.551
L271.169 400.453
L271.254 400.371
L271.452 400.27
L271.554 400.203
L271.772 400.135
L271.877 400.003
L272.037 399.916
L272.125 399.798
L272.256 399.7
L272.354 399.62
L272.597 399.524
L272.693 399.454
L273.118 399.363
L273.228 399.295
L276.105 399.185
L276.216 399.165
L277.987 399.274
L278.064 399.309
L278.382 399.418
L278.474 399.446
L278.955 399.553
L279.021 399.569
L279.358 399.673
L279.41 399.706
L279.77 399.813
L279.865 399.829
L280.307 399.736
L280.416 399.661
L280.646 399.566
L280.738 399.481
L280.961 399.38
L281.055 399.328
L281.335 399.225
L281.446 399.145
L281.619 399.036
L281.729 398.962
L281.929 398.855
L282.034 398.765
L282.206 398.684
L282.296 398.595
L282.473 398.508
L282.568 398.388
L282.73 398.286
L282.824 398.191
L283.001 398.089
L283.105 398.008
L283.328 397.898
L283.433 397.797
L283.582 397.695
L283.687 397.607
L283.858 397.505
L283.937 397.421
L284.073 397.321
L284.182 397.209
L284.31 397.113
L284.402 397.003
L284.545 396.914
L284.651 396.788
L284.78 396.682
L284.876 396.59
L285.02 396.485
L285.131 396.371
L285.247 396.273
L285.357 396.141
L285.47 396.044
L285.575 395.908
L285.677 395.804
L285.785 395.66
L285.88 395.565
L285.99 395.397
L286.079 395.305
L286.188 395.135
L286.317 395.047
L286.422 394.788
L286.515 394.728
L286.61 394.494
L286.681 394.407
L286.773 394.219
L286.853 394.112
L286.932 393.927
L286.993 393.927
L287.095 393.611
L287.165 393.557
L287.263 393.31
L287.333 393.199
L287.442 392.976
L287.519 392.878
L287.622 392.625
L287.699 392.517
L287.803 392.299
L287.893 392.196
L288.003 391.946
L288.07 391.843
L288.173 391.658
L288.265 391.565
L288.348 391.39
L288.419 391.287
L288.513 391.127
L288.595 391.031
L288.698 390.819
L288.766 390.73
L288.869 390.535
L288.942 390.43
L289.014 390.323
L289.121 390.23
L289.23 390.069
L289.329 389.97
L289.429 389.845
L289.563 389.752
L289.668 389.623
L289.793 389.512
L289.901 389.407
L290.064 389.299
L290.161 389.218
L290.332 389.117
L290.435 389.022
L290.586 388.943
L290.687 388.828
L290.834 388.723
L290.938 388.624
L291.059 388.517
L291.169 388.389
L291.284 388.287
L291.389 388.181
L291.519 388.081
L291.628 387.94
L291.735 387.838
L291.843 387.689
L291.94 387.589
L292.035 387.456
L292.127 387.352
L292.237 387.217
L292.349 387.107
L292.456 386.988
L292.558 386.922
L292.657 386.773
L292.772 386.678
L292.881 386.539
L293.027 386.43
L293.135 386.338
L293.254 386.248
L293.364 386.128
L293.504 386.034
L293.608 385.905
L293.819 385.806
L293.819 385.729
L294.024 385.632
L294.115 385.454
L294.309 385.355
L294.411 385.157
L294.62 385.055
L294.715 384.89
L294.904 384.816
L294.994 384.711
L295.203 384.644
L295.298 384.53
L295.499 384.462
L295.59 384.301
L295.786 384.236
L295.877 384.105
L296.075 384.04
L296.17 383.942
L296.477 383.834
L296.587 383.737
L296.769 383.693
L296.867 383.55
L297.051 383.473
L297.16 383.338
L297.449 383.245
L297.56 383.123
L297.766 383.064
L297.838 382.94
L298.13 382.834
L298.23 382.763
L298.636 382.674
L298.719 382.621
L299.111 382.516
L299.207 382.449
L299.6 382.346
L299.699 382.265
L299.999 382.16
L300.093 382.07
L300.385 381.98
L300.483 381.867
L300.677 381.802
L300.677 381.744
L300.886 381.666
L300.973 381.55
L301.269 381.444
L301.363 381.366
L301.763 381.256
L301.855 381.209
L302.836 381.102
L302.942 381.026
L303.332 380.926
L303.424 380.847
L304.323 380.743
L304.401 380.734
L305.582 380.633
L305.681 380.565
L306.265 380.459
L306.362 380.443
L306.76 380.342
L306.853 380.231
L307.051 380.174
L307.146 380.058
L307.346 379.995
L307.443 379.851
L307.637 379.756
L307.74 379.597
L307.929 379.524
L308.03 379.42
L308.323 379.312
L308.427 379.216
L308.617 379.165
L308.718 379.04
L309.018 378.937
L309.106 378.839
L309.407 378.74
L309.502 378.64
L309.701 378.581
L309.791 378.415
L309.988 378.321
L310.088 378.176
L310.313 378.107
L310.382 377.99
L310.675 377.88
L310.776 377.785
L311.067 377.709
L311.165 377.626
L311.457 377.546
L311.558 377.476
L312.147 377.375
L312.246 377.327
L312.736 377.223
L312.833 377.178
L313.221 377.071
L313.321 376.946
L313.522 376.875
L313.614 376.723
L313.812 376.632
L313.907 376.445
L314.111 376.36
L314.204 376.179
L314.4 376.077
L314.496 375.871
L314.694 375.788
L314.789 375.648
L314.989 375.576
L315.083 375.448
L315.287 375.367
L315.379 375.175
L315.48 375.175
L315.58 374.931
L315.676 374.931
L315.775 374.657
L315.868 374.657
L315.966 374.4
L316.064 374.4
L316.167 374.136
L316.26 374.136
L316.362 373.897
L316.456 373.897
L316.556 373.659
L316.652 373.659
L316.757 373.369
L316.848 373.369
L316.952 373.085
L317.044 373.085
L317.141 372.82
L317.244 372.82
L317.339 372.578
L317.441 372.578
L317.534 372.336
L317.635 372.336
L317.73 372.122
L317.929 372.011
L318.026 371.765
L318.123 371.765
L318.221 371.502
L318.323 371.502
L318.417 371.246
L318.514 371.246
L318.613 370.992
L318.717 370.992
L318.817 370.702
L318.91 370.702
L319.011 370.439
L319.103 370.439
L319.204 370.184
L319.303 370.184
L319.395 369.933
L319.494 369.933
L319.602 369.668
L319.789 369.566
L319.888 369.35
L320.082 369.251
L320.182 369.081
L320.377 369.001
L320.473 368.834
L320.673 368.736
L320.769 368.508
L320.966 368.399
L321.064 368.208
L321.263 368.105
L321.357 367.883
L321.465 367.883
L321.557 367.637
L321.655 367.637
L321.747 367.4
L321.946 367.291
L322.042 367.078
L322.139 367.078
L322.238 366.839
L322.34 366.839
L322.438 366.561
L322.537 366.561
L322.633 366.289
L322.727 366.289
L322.83 366.029
L322.923 366.029
L323.024 365.784
L323.122 365.784
L323.217 365.521
L323.318 365.521
L323.413 365.262
L323.514 365.262
L323.611 365.011
L323.709 365.011
L323.806 364.754
L323.903 364.754
L324.002 364.519
L324.102 364.519
L324.198 364.289
L324.301 364.289
L324.393 364.054
L324.493 364.054
L324.591 363.832
L324.785 363.735
L324.885 363.547
L325.079 363.474
L325.177 363.337
L325.373 363.263
L325.474 363.094
L325.667 363.005
L325.765 362.831
L325.966 362.746
L326.06 362.584
L326.256 362.501
L326.354 362.33
L326.554 362.222
L326.647 362.036
L326.843 361.93
L326.943 361.708
L327.042 361.708
L327.138 361.476
L327.238 361.476
L327.336 361.233
L327.432 361.233
L327.528 361.018
L327.725 360.926
L327.824 360.744
L328.019 360.65
L328.12 360.461
L328.224 360.461
L328.313 360.241
L328.41 360.241
L328.512 360.005
L328.708 359.901
L328.804 359.683
L328.999 359.576
L329.1 359.337
L329.195 359.337
L329.297 359.087
L329.391 359.087
L329.492 358.799
L329.587 358.799
L329.686 358.492
L329.785 358.492
L329.883 358.15
L329.979 358.15
L330.079 357.759
L330.175 357.759
L330.273 357.374
L330.371 357.374
L330.47 356.979
L330.567 356.979
L330.671 356.593
L330.763 356.593
L330.861 356.245
L330.96 356.245
L331.061 355.899
L331.157 355.899
L331.253 355.577
L331.354 355.577
L331.452 355.267
L331.55 355.267
L331.645 354.999
L331.752 354.999
L331.843 354.752
L331.938 354.752
L332.038 354.518
L332.135 354.518
L332.235 354.261
L332.334 354.261
L332.429 353.986
L332.528 353.986
L332.626 353.69
L332.723 353.69
L332.825 353.396
L332.919 353.396
L333.019 353.123
L333.115 353.123
L333.215 352.884
L333.312 352.884
L333.41 352.652
L333.508 352.652
L333.605 352.423
L333.702 352.423
L333.801 352.176
L333.9 352.176
L333.997 351.946
L334.095 351.946
L334.193 351.717
L334.292 351.717
L334.389 351.498
L334.586 351.403
L334.683 351.242
L334.882 351.164
L334.977 351.028
L335.173 350.956
L335.272 350.83
L335.468 350.776
L335.564 350.649
L335.761 350.578
L335.861 350.456
L336.058 350.397
L336.156 350.264
L336.351 350.201
L336.447 350.079
L336.74 349.972
L336.84 349.841
L337.034 349.762
L337.134 349.62
L337.329 349.559
L337.429 349.446
L337.622 349.385
L337.723 349.244
L337.918 349.172
L338.019 349.013
L338.212 348.948
L338.311 348.83
L338.602 348.737
L338.703 348.622
L338.897 348.556
L338.994 348.424
L339.193 348.364
L339.289 348.24
L339.485 348.184
L339.583 348.07
L339.877 347.984
L339.978 347.928
L340.856 347.826
L340.954 347.784
L342.228 347.882
L342.326 347.981
L342.817 348.087
L342.916 348.112
L343.503 348.196
L343.601 348.265
L343.895 348.355
L343.993 348.437
L344.286 348.514
L344.384 348.607
L344.679 348.702
L344.777 348.791
L345.17 348.897
L345.266 348.982
L345.56 349.069
L345.659 349.138
L345.952 349.219
L346.05 349.277
L347.423 349.192
L347.52 349.131
L348.012 349.04
L348.108 348.984
L348.502 348.89
L348.598 348.846
L349.48 348.737
L349.578 348.71
L350.166 348.604
L350.266 348.564
L351.146 348.457
L351.244 348.414
L351.637 348.32
L351.734 348.272
L353.989 348.165
L354.086 348.129
L356.732 348.206
L356.831 348.297
L357.026 348.351
L357.125 348.474
L357.32 348.539
L357.418 348.683
L357.615 348.751
L357.712 348.888
L357.908 348.953
L358.006 349.073
L358.204 349.128
L358.3 349.253
L358.497 349.316
L358.594 349.424
L358.986 349.524
L359.084 349.565
L359.379 349.644
L359.476 349.742
L359.868 349.847
L359.966 349.911
L360.554 350.018
L360.652 350.072
L360.946 350.141
L361.045 350.252
L361.24 350.311
L361.339 350.462
L361.534 350.54
L361.632 350.678
L361.829 350.752
L361.926 350.925
L362.122 351.012
L362.22 351.187
L362.416 351.289
L362.514 351.502
L362.612 351.502
L362.71 351.748
L362.808 351.748
L362.906 351.993
L363.005 351.993
L363.103 352.25
L363.2 352.25
L363.298 352.487
L363.494 352.588
L363.592 352.784
L363.788 352.89
L363.886 353.101
L363.983 353.101
L364.081 353.31
L364.277 353.4
L364.375 353.593
L364.572 353.702
L364.67 353.912
L364.866 354.018
L364.964 354.244
L365.062 354.244
L365.161 354.479
L365.357 354.585
L365.454 354.806
L365.553 354.806
L365.65 355.049
L365.748 355.049
L365.845 355.282
L365.945 355.282
L366.043 355.527
L366.14 355.527
L366.237 355.779
L366.336 355.779
L366.434 356.037
L366.531 356.037
L366.63 356.285
L366.826 356.392
L366.925 356.609
L367.022 356.609
L367.119 356.86
L367.218 356.86
L367.316 357.101
L367.513 357.206
L367.61 357.412
L367.708 357.412
L367.806 357.657
L367.903 357.657
L368.002 357.895
L368.1 357.895
L368.198 358.122
L368.296 358.122
L368.394 358.344
L368.589 358.449
L368.689 358.661
L368.785 358.661
L368.884 358.889
L369.079 358.991
L369.178 359.199
L369.374 359.302
L369.472 359.478
L369.667 359.55
L369.765 359.691
L369.962 359.756
L370.06 359.921
L370.256 360.013
L370.354 360.211
L370.55 360.3
L370.648 360.463
L370.843 360.539
L370.942 360.675
L371.138 360.743
L371.236 360.869
L371.431 360.936
L371.529 361.051
L371.725 361.113
L371.823 361.263
L372.019 361.345
L372.118 361.5
L372.315 361.567
L372.412 361.681
L372.803 361.78
L372.902 361.815
L373.489 361.911
L373.588 361.985
L373.881 362.07
L373.979 362.152
L374.469 362.248
L374.567 362.299
L374.96 362.402
L375.057 362.452
L375.351 362.52
L375.45 362.615
L375.744 362.725
L375.841 362.877
L376.038 362.958
L376.136 363.132
L376.331 363.218
L376.429 363.407
L376.625 363.516
L376.723 363.728
L376.92 363.832
L377.018 364.033
L377.214 364.133
L377.312 364.346
L377.508 364.454
L377.605 364.657
L377.801 364.746
L377.9 364.896
L378.095 364.964
L378.193 365.11
L378.389 365.178
L378.488 365.306
L378.683 365.366
L378.781 365.517
L378.977 365.594
L379.075 365.738
L379.271 365.821
L379.369 365.986
L379.565 366.082
L379.664 366.273
L379.859 366.372
L379.957 366.56
L380.153 366.644
L380.251 366.817
L380.448 366.9
L380.545 367.069
L380.741 367.164
L380.839 367.362
L381.035 367.454
L381.133 367.615
L381.329 367.689
L381.427 367.812
L381.623 367.879
L381.721 368.024
L381.917 368.082
L382.015 368.187
L382.309 368.27
L382.407 368.363
L382.701 368.466
L382.799 368.548
L383.093 368.626
L383.191 368.704
L383.583 368.81
L383.682 368.872
L384.073 368.965
L384.171 369.046
L384.563 369.146
L384.661 369.198
L384.955 369.272
L385.053 369.364
L385.347 369.475
L385.445 369.607
L385.641 369.672
L385.74 369.773
L386.034 369.855
L386.131 369.925
L386.425 370.002
L386.523 370.082
L386.916 370.168
L387.013 370.224
L387.797 370.335
L387.895 370.349
L388.189 370.424
L388.287 370.522
L388.581 370.615
L388.679 370.7
L389.267 370.805
L389.365 370.847
L390.149 370.95
L390.247 370.976
L391.423 370.886
L391.521 370.849
L391.913 370.767
L392.011 370.702
L392.501 370.599
L392.599 370.559
L393.089 370.457
L393.187 370.414
L393.677 370.329
L393.775 370.284
L394.461 370.192
L394.559 370.125
L394.853 370.042
L394.951 369.956
L395.245 369.871
L395.343 369.773
L395.637 369.668
L395.735 369.563
L396.029 369.469
L396.127 369.384
L396.421 369.288
L396.519 369.171
L396.813 369.062
L396.911 368.964
L397.205 368.858
L397.303 368.752
L397.499 368.688
L397.597 368.541
L397.793 368.467
L397.891 368.327
L398.087 368.258
L398.185 368.126
L398.381 368.063
L398.479 367.967
L398.773 367.891
L398.871 367.82
L400.733 367.931
L400.831 367.941
L405.044 367.858
L405.142 367.788
L405.73 367.678
L405.828 367.664
L406.906 367.571
L407.005 367.534
L408.278 367.639
L408.376 367.673
L408.866 367.764
L408.964 367.825
L409.944 367.922
L410.043 367.973
L410.336 368.053
L410.435 368.171
L410.729 368.277
L410.826 368.364
L411.12 368.456
L411.218 368.544
L411.513 368.628
L411.61 368.698
L412.002 368.785
L412.1 368.837
L412.59 368.939
L412.688 368.973
L414.158 369.081
L414.256 369.134
L414.746 369.235
L414.844 369.273
L415.432 369.377
L415.53 369.439
L415.922 369.545
L416.02 369.604
L416.51 369.695
L416.608 369.74
L417.49 369.845
L417.588 369.894
L418.078 369.982
L418.176 370.033
L418.568 370.136
L418.666 370.247
L418.862 370.31
L418.96 370.423
L419.156 370.48
L419.254 370.63
L419.45 370.705
L419.548 370.869
L419.744 370.954
L419.842 371.115
L420.038 371.196
L420.136 371.359
L420.332 371.442
L420.43 371.613
L420.626 371.698
L420.724 371.871
L420.92 371.955
L421.018 372.097
L421.214 372.156
L421.312 372.276
L421.508 372.342
L421.606 372.474
L421.9 372.571
L421.998 372.643
L422.292 372.731
L422.39 372.811
L422.88 372.908
L422.978 372.951
L424.448 373.053
L424.546 373.091
L425.036 373.194
L425.134 373.252
L425.428 373.322
L425.526 373.41
L425.82 373.496
L425.918 373.591
L426.212 373.683
L426.31 373.757
L426.8 373.864
L426.898 373.889
L430.328 373.997
L430.426 374.057
L430.818 374.149
L430.916 374.211
L431.21 374.294
L431.308 374.394
L431.602 374.465
L431.7 374.551
L432.092 374.643
L432.19 374.715
L432.484 374.793
L432.582 374.888
L432.876 374.972
L432.974 375.04
L433.562 375.151
L433.66 375.172
L436.894 375.279
L436.992 375.324
L437.384 375.426
L437.482 375.461
L437.874 375.551
L437.972 375.635
L438.266 375.71
L438.364 375.807
L438.56 375.865
L438.658 375.994
L438.854 376.051
L438.952 376.171
L439.246 376.267
L439.344 376.344
L439.638 376.438
L439.736 376.528
L440.128 376.634
L440.226 376.691
L440.618 376.786
L440.716 376.856
L441.107 376.944
L441.206 377.008
L441.597 377.116
L441.696 377.174
L442.087 377.263
L442.186 377.35
L442.479 377.436
L442.578 377.513
L442.969 377.604
L443.068 377.655
L443.557 377.761
L443.655 377.82
L444.341 377.919
L444.439 377.936
L445.909 377.826
L446.007 377.786
L446.987 377.689
L447.085 377.628
L447.673 377.534
L447.771 377.482
L448.163 377.387
L448.261 377.344
L448.947 377.243
L449.045 377.191
L449.339 377.111
L449.437 377.019
L449.731 376.921
L449.829 376.82
L450.123 376.733
L450.221 376.649
L450.515 376.546
L450.613 376.436
L450.907 376.334
L451.005 376.243
L451.299 376.135
L451.397 376.008
L451.593 375.949
L451.691 375.833
L451.887 375.777
L451.985 375.655
L452.279 375.559
L452.377 375.466
L452.671 375.373
L452.769 375.266
L453.063 375.156
L453.161 375.041
L453.455 374.934
L453.553 374.812
L453.749 374.743
L453.847 374.591
L454.043 374.52
L454.141 374.382
L454.337 374.314
L454.435 374.175
L454.631 374.102
L454.729 373.977
L454.925 373.919
L455.023 373.815
L455.317 373.717
L455.415 373.619
L455.611 373.56
L455.709 373.441
L456.003 373.335
L456.101 373.242
L456.493 373.147
L456.591 373.108
L457.277 373.017
L457.375 372.966
L457.865 372.864
L457.963 372.825
L458.747 372.714
L458.845 372.696
L459.531 372.589
L459.629 372.544
L460.021 372.46
L460.119 372.381
L460.413 372.303
L460.511 372.201
L460.707 372.141
L460.805 372.017
L461.001 371.951
L461.099 371.819
L461.295 371.756
L461.393 371.646
L461.589 371.589
L461.687 371.475
L461.883 371.411
L461.981 371.273
L462.177 371.197
L462.275 371.027
L462.471 370.926
L462.569 370.716
L462.765 370.606
L462.863 370.403
L463.059 370.298
L463.157 370.104
L463.353 369.997
L463.451 369.769
L463.647 369.661
L463.745 369.433
L463.843 369.433
L463.941 369.189
L464.039 369.189
L464.137 368.934
L464.235 368.934
L464.333 368.666
L464.431 368.666
L464.529 368.408
L464.627 368.408
L464.725 368.153
L464.823 368.153
L464.921 367.934
L465.117 367.827
L465.215 367.629
L465.411 367.533
L465.509 367.37
L465.705 367.289
L465.803 367.111
L465.999 367.017
L466.097 366.834
L466.293 366.742
L466.391 366.54
L466.587 366.437
L466.685 366.236
L466.881 366.141
L466.979 365.943
L467.175 365.847
L467.273 365.656
L467.469 365.571
L467.567 365.4
L467.763 365.313
L467.861 365.142
L468.057 365.064
L468.155 364.909
L468.351 364.831
L468.449 364.681
L468.645 364.604
L468.743 364.458
L468.939 364.371
L469.037 364.192
L469.233 364.095
L469.331 363.907
L469.527 363.817
L469.625 363.634
L469.821 363.544
L469.919 363.352
L470.115 363.255
L470.213 363.074
L470.409 362.988
L470.507 362.83
L470.703 362.755
L470.801 362.615
L470.997 362.547
L471.095 362.404
L471.291 362.337
L471.389 362.211
L471.585 362.149
L471.683 362.026
L471.879 361.968
L471.977 361.844
L472.173 361.788
L472.271 361.672
L472.467 361.612
L472.565 361.48
L472.761 361.414
L472.859 361.257
L473.055 361.172
L473.153 361.001
L473.349 360.91
L473.447 360.74
L473.643 360.656
L473.741 360.485
L473.937 360.408
L474.035 360.241
L474.231 360.152
L474.329 359.965
L474.525 359.866
L474.623 359.667
L474.819 359.568
L474.917 359.338
L475.015 359.338
L475.113 359.09
L475.211 359.09
L475.309 358.83
L475.407 358.83
L475.505 358.566
L475.603 358.566
L475.701 358.285
L475.799 358.285
L475.897 358.001
L475.995 358.001
L476.093 357.705
L476.191 357.705
L476.289 357.38
L476.387 357.38
L476.485 357.064
L476.583 357.064
L476.681 356.753
L476.779 356.753
L476.877 356.455
L476.975 356.455
L477.073 356.172
L477.171 356.172
L477.269 355.894
L477.367 355.894
L477.465 355.638
L477.563 355.638
L477.661 355.389
L477.759 355.389
L477.857 355.134
L478.053 355.026
L478.151 354.816
L478.249 354.816
L478.347 354.583
L478.445 354.583
L478.543 354.326
L478.641 354.326
L478.739 354.048
L478.837 354.048
L478.935 353.769
L479.033 353.769
L479.131 353.494
L479.229 353.494
L479.327 353.217
L479.425 353.217
L479.523 352.953
L479.621 352.953
L479.719 352.697
L479.817 352.697
L479.915 352.442
L480.013 352.442
L480.111 352.184
L480.208 352.184
L480.307 351.943
L480.404 351.943
L480.502 351.719
L480.6 351.719
L480.698 351.488
L480.797 351.488
L480.894 351.27
L481.09 351.165
L481.188 350.956
L481.384 350.852
L481.482 350.686
L481.678 350.597
L481.776 350.406
L481.972 350.317
L482.07 350.125
L482.266 350.022
L482.364 349.815
L482.56 349.715
L482.658 349.523
L482.854 349.432
L482.952 349.239
L483.148 349.145
L483.246 348.97
L483.442 348.874
L483.54 348.679
L483.736 348.587
L483.834 348.396
L484.03 348.3
L484.128 348.109
L484.324 348.022
L484.422 347.864
L484.618 347.796
L484.716 347.65
L484.912 347.581
L485.01 347.447
L485.206 347.38
L485.304 347.252
L485.598 347.146
L485.696 347.034
L485.892 346.964
L485.99 346.821
L486.186 346.748
L486.284 346.611
L486.48 346.549
L486.578 346.437
L486.872 346.333
L486.97 346.232
L487.264 346.146
L487.362 346.05
L487.656 345.958
L487.754 345.894
L488.244 345.808
L488.342 345.746
L488.93 345.637
L489.028 345.604
L490.302 345.494
L490.4 345.451
L490.792 345.35
L490.89 345.259
L491.184 345.157
L491.282 345.055
L491.576 344.946
L491.674 344.83
L491.87 344.767
L491.968 344.633
L492.164 344.564
L492.262 344.445
L492.556 344.345
L492.654 344.244
L492.948 344.15
L493.046 344.072
L493.34 343.978
L493.438 343.907
L493.928 343.801
L494.026 343.76
L494.418 343.661
L494.516 343.605
L494.908 343.509
L495.006 343.439
L495.398 343.332
L495.496 343.276
L495.888 343.18
L495.986 343.121
L496.378 343.034
L496.476 342.937
L496.77 342.845
L496.868 342.752
L497.26 342.641
L497.358 342.575
L497.75 342.477
L497.848 342.433
L498.338 342.344
L498.436 342.289
L498.828 342.207
L498.926 342.118
L499.22 342.034
L499.318 341.956
L499.71 341.854
L499.808 341.807
L500.298 341.713
L500.396 341.657
L500.984 341.562
L501.082 341.496
L501.474 341.41
L501.572 341.347
L502.062 341.248
L502.16 341.215
L502.944 341.105
L503.042 341.06
L503.63 340.951
L503.728 340.865
L504.022 340.772
L504.12 340.672
L504.414 340.563
L504.512 340.443
L504.806 340.341
L504.904 340.252
L505.198 340.167
L505.296 340.081
L505.59 339.978
L505.688 339.866
L505.884 339.81
L505.982 339.702
L506.276 339.6
L506.374 339.499
L506.668 339.397
L506.766 339.284
L506.962 339.226
L507.06 339.11
L507.256 339.048
L507.354 338.918
L507.55 338.859
L507.648 338.714
L507.844 338.64
L507.942 338.49
L508.138 338.409
L508.236 338.243
L508.432 338.169
L508.53 338.023
L508.726 337.954
L508.824 337.815
L509.02 337.743
L509.118 337.587
L509.314 337.505
L509.412 337.345
L509.608 337.258
L509.706 337.074
L509.902 336.984
L510 336.796
L510.196 336.693
L510.294 336.473
L510.49 336.364
L510.588 336.146
L510.784 336.038
L510.882 335.819
L511.078 335.711
L511.176 335.492
L511.372 335.391
L511.47 335.179
L511.666 335.07
L511.764 334.857
L511.96 334.756
L512.058 334.547
L512.254 334.45
L512.352 334.262
L512.548 334.165
L512.646 333.969
L512.842 333.861
L512.94 333.637
L513.136 333.529
L513.234 333.33
L513.43 333.231
L513.528 333.03
L513.724 332.927
L513.822 332.705
L513.92 332.705
L514.018 332.455
L514.116 332.455
L514.214 332.204
L514.312 332.204
L514.41 331.951
L514.508 331.951
L514.606 331.717
L514.704 331.717
L514.802 331.488
L514.9 331.488
L514.998 331.24
L515.096 331.24
L515.194 331.006
L515.39 330.904
L515.488 330.69
L515.586 330.69
L515.684 330.457
L515.782 330.457
L515.88 330.232
L516.076 330.133
L516.174 329.949
L516.37 329.858
L516.468 329.69
L516.664 329.605
L516.762 329.433
L516.958 329.347
L517.056 329.167
L517.252 329.073
L517.35 328.871
L517.546 328.767
L517.644 328.53
L517.742 328.53
L517.84 328.284
L517.938 328.284
L518.036 328.038
L518.134 328.038
L518.232 327.814
L518.428 327.721
L518.526 327.521
L518.722 327.41
L518.82 327.192
L519.016 327.092
L519.114 326.886
L519.31 326.783
L519.408 326.581
L519.603 326.494
L519.701 326.308
L519.897 326.212
L519.995 326.026
L520.191 325.937
L520.289 325.756
L520.485 325.671
L520.583 325.513
L520.779 325.427
L520.877 325.248
L521.073 325.159
L521.171 324.992
L521.367 324.912
L521.465 324.756
L521.661 324.685
L521.759 324.548
L521.955 324.48
L522.053 324.336
L522.249 324.267
L522.347 324.116
L522.543 324.041
L522.641 323.913
L522.837 323.858
L522.935 323.737
L523.131 323.678
L523.229 323.56
L523.523 323.451
L523.621 323.357
L523.915 323.274
L524.013 323.185
L524.209 323.128
L524.307 322.999
L524.601 322.891
L524.699 322.796
L524.993 322.687
L525.091 322.562
L525.385 322.463
L525.483 322.38
L525.777 322.281
L525.875 322.173
L526.169 322.074
L526.267 321.986
L526.561 321.901
L526.659 321.834
L526.953 321.755
L527.051 321.662
L527.345 321.569
L527.443 321.502
L527.835 321.394
L527.933 321.323
L528.325 321.221
L528.423 321.177
L529.011 321.077
L529.109 321.032
L529.795 320.925
L529.893 320.896
L530.677 320.791
L530.775 320.772
L531.363 320.663
L531.461 320.583
L531.755 320.507
L531.853 320.415
L532.147 320.331
L532.245 320.271
L532.637 320.172
L532.735 320.084
L533.029 319.991
L533.127 319.902
L533.421 319.815
L533.519 319.724
L533.813 319.637
L533.911 319.551
L534.205 319.449
L534.303 319.327
L534.597 319.228
L534.695 319.122
L534.891 319.064
L534.989 318.955
L535.283 318.855
L535.381 318.768
L535.773 318.664
L535.871 318.6
L536.263 318.494
L536.361 318.425
L536.753 318.326
L536.851 318.252
L537.145 318.174
L537.243 318.079
L537.537 317.995
L537.635 317.932
L538.027 317.827
L538.125 317.766
L538.517 317.67
L538.615 317.601
L538.909 317.521
L539.007 317.457
L539.497 317.359
L539.595 317.325
L540.085 317.224
L540.183 317.148
L540.575 317.047
L540.673 316.985
L541.065 316.898
L541.163 316.84
L541.653 316.748
L541.751 316.709
L542.339 316.612
L542.437 316.556
L542.829 316.449
L542.927 316.384
L543.221 316.3
L543.319 316.192
L543.515 316.135
L543.613 315.995
L543.809 315.921
L543.907 315.78
L544.103 315.71
L544.201 315.589
L544.397 315.53
L544.495 315.423
L544.789 315.317
L544.887 315.209
L545.181 315.106
L545.279 314.998
L545.475 314.938
L545.573 314.806
L545.769 314.735
L545.867 314.59
L546.063 314.511
L546.161 314.342
L546.357 314.263
L546.455 314.1
L546.651 314.026
L546.749 313.852
L546.945 313.761
L547.043 313.589
L547.239 313.503
L547.337 313.348
L547.533 313.272
L547.631 313.132
L547.827 313.068
L547.827 313.001
L547.827 313.001" style="fill:none;stroke:#0000ff;stroke-width:5.0;"/>
   </g>
   <g id="matplotlib.axis_1">
    <g id="xtick_1">
     <g id="line2d_2">
      <path d="
M176.061 412.239
L176.061 8.51291" style="fill:none;stroke:#000000;stroke-dasharray:1.000000,3.000000;stroke-dashoffset:0.0;stroke-linecap:butt;stroke-width:0.5;"/>
     </g>
     <g id="line2d_3">
      <defs>
       <path d="
M0 0
L0 -4" id="m3fbe6c24f1"/>
      </defs>
      <g>
       <use style="stroke:#000000;stroke-linecap:butt;stroke-width:0.5;" x="176.060832577" xlink:href="#m3fbe6c24f1" y="16.276875"/>
      </g>
     </g>
     <g id="text_1">
      <!-- 5 -->
      <defs>
       <path d="
M10.7969 72.9062
L49.5156 72.9062
L49.5156 64.5938
L19.8281 64.5938
L19.8281 46.7344
Q21.9688 47.4688 24.1094 47.8281
Q26.2656 48.1875 28.4219 48.1875
Q40.625 48.1875 47.75 41.5
Q54.8906 34.8125 54.8906 23.3906
Q54.8906 11.625 47.5625 5.09375
Q40.2344 -1.42188 26.9062 -1.42188
Q22.3125 -1.42188 17.5469 -0.640625
Q12.7969 0.140625 7.71875 1.70312
L7.71875 11.625
Q12.1094 9.23438 16.7969 8.0625
Q21.4844 6.89062 26.7031 6.89062
Q35.1562 6.89062 40.0781 11.3281
Q45.0156 15.7656 45.0156 23.3906
Q45.0156 31 40.0781 35.4375
Q35.1562 39.8906 26.7031 39.8906
Q22.75 39.8906 18.8125 39.0156
Q14.8906 38.1406 10.7969 36.2812
z
" id="BitstreamVeraSans-Roman-35"/>
      </defs>
      <g transform="translate(170.400207577 37.774375)scale(0.24 -0.24)">
       <use xlink:href="#BitstreamVeraSans-Roman-35"/>
      </g>
     </g>
    </g>
    <g id="xtick_2">
     <g id="line2d_4">
      <path d="
M294.282 412.239
L294.282 8.51291" style="fill:none;stroke:#000000;stroke-dasharray:1.000000,3.000000;stroke-dashoffset:0.0;stroke-linecap:butt;stroke-width:0.5;"/>
     </g>
     <g id="line2d_5">
      <defs>
       <path d="
M0 0
L0 -4" id="m3fbe6c24f1"/>
      </defs>
      <g>
       <use style="stroke:#000000;stroke-linecap:butt;stroke-width:0.5;" x="294.282438576" xlink:href="#m3fbe6c24f1" y="16.276875"/>
      </g>
     </g>
     <g id="text_2">
      <!-- 10 -->
      <defs>
       <path d="
M31.7812 66.4062
Q24.1719 66.4062 20.3281 58.9062
Q16.5 51.4219 16.5 36.375
Q16.5 21.3906 20.3281 13.8906
Q24.1719 6.39062 31.7812 6.39062
Q39.4531 6.39062 43.2812 13.8906
Q47.125 21.3906 47.125 36.375
Q47.125 51.4219 43.2812 58.9062
Q39.4531 66.4062 31.7812 66.4062
M31.7812 74.2188
Q44.0469 74.2188 50.5156 64.5156
Q56.9844 54.8281 56.9844 36.375
Q56.9844 17.9688 50.5156 8.26562
Q44.0469 -1.42188 31.7812 -1.42188
Q19.5312 -1.42188 13.0625 8.26562
Q6.59375 17.9688 6.59375 36.375
Q6.59375 54.8281 13.0625 64.5156
Q19.5312 74.2188 31.7812 74.2188" id="BitstreamVeraSans-Roman-30"/>
       <path d="
M12.4062 8.29688
L28.5156 8.29688
L28.5156 63.9219
L10.9844 60.4062
L10.9844 69.3906
L28.4219 72.9062
L38.2812 72.9062
L38.2812 8.29688
L54.3906 8.29688
L54.3906 0
L12.4062 0
z
" id="BitstreamVeraSans-Roman-31"/>
      </defs>
      <g transform="translate(281.127438576 38.089375)scale(0.24 -0.24)">
       <use xlink:href="#BitstreamVeraSans-Roman-31"/>
       <use x="63.623046875" xlink:href="#BitstreamVeraSans-Roman-30"/>
      </g>
     </g>
    </g>
    <g id="xtick_3">
     <g id="line2d_6">
      <path d="
M412.504 412.239
L412.504 8.51291" style="fill:none;stroke:#000000;stroke-dasharray:1.000000,3.000000;stroke-dashoffset:0.0;stroke-linecap:butt;stroke-width:0.5;"/>
     </g>
     <g id="line2d_7">
      <defs>
       <path d="
M0 0
L0 -4" id="m3fbe6c24f1"/>
      </defs>
      <g>
       <use style="stroke:#000000;stroke-linecap:butt;stroke-width:0.5;" x="412.504044575" xlink:href="#m3fbe6c24f1" y="16.276875"/>
      </g>
     </g>
     <g id="text_3">
      <!-- 15 -->
      <g transform="translate(399.600294575 37.774375)scale(0.24 -0.24)">
       <use xlink:href="#BitstreamVeraSans-Roman-31"/>
       <use x="63.623046875" xlink:href="#BitstreamVeraSans-Roman-35"/>
      </g>
     </g>
    </g>
    <g id="xtick_4">
     <g id="line2d_8">
      <path d="
M530.726 412.239
L530.726 8.51291" style="fill:none;stroke:#000000;stroke-dasharray:1.000000,3.000000;stroke-dashoffset:0.0;stroke-linecap:butt;stroke-width:0.5;"/>
     </g>
     <g id="line2d_9">
      <defs>
       <path d="
M0 0
L0 -4" id="m3fbe6c24f1"/>
      </defs>
      <g>
       <use style="stroke:#000000;stroke-linecap:butt;stroke-width:0.5;" x="530.725650574" xlink:href="#m3fbe6c24f1" y="16.276875"/>
      </g>
     </g>
     <g id="text_4">
      <!-- 20 -->
      <defs>
       <path d="
M19.1875 8.29688
L53.6094 8.29688
L53.6094 0
L7.32812 0
L7.32812 8.29688
Q12.9375 14.1094 22.625 23.8906
Q32.3281 33.6875 34.8125 36.5312
Q39.5469 41.8438 41.4219 45.5312
Q43.3125 49.2188 43.3125 52.7812
Q43.3125 58.5938 39.2344 62.25
Q35.1562 65.9219 28.6094 65.9219
Q23.9688 65.9219 18.8125 64.3125
Q13.6719 62.7031 7.8125 59.4219
L7.8125 69.3906
Q13.7656 71.7812 18.9375 73
Q24.125 74.2188 28.4219 74.2188
Q39.75 74.2188 46.4844 68.5469
Q53.2188 62.8906 53.2188 53.4219
Q53.2188 48.9219 51.5312 44.8906
Q49.8594 40.875 45.4062 35.4062
Q44.1875 33.9844 37.6406 27.2188
Q31.1094 20.4531 19.1875 8.29688" id="BitstreamVeraSans-Roman-32"/>
      </defs>
      <g transform="translate(517.131900574 38.089375)scale(0.24 -0.24)">
       <use xlink:href="#BitstreamVeraSans-Roman-32"/>
       <use x="63.623046875" xlink:href="#BitstreamVeraSans-Roman-30"/>
      </g>
     </g>
    </g>
    <g id="xtick_5">
     <g id="line2d_10">
      <defs>
       <path d="
M0 0
L0 -2" id="mf0ff38ea95"/>
      </defs>
      <g>
       <use style="stroke:#000000;stroke-linecap:butt;stroke-width:0.5;" x="81.4835477778" xlink:href="#mf0ff38ea95" y="16.276875"/>
      </g>
     </g>
    </g>
    <g id="xtick_6">
     <g id="line2d_11">
      <defs>
       <path d="
M0 0
L0 -2" id="mf0ff38ea95"/>
      </defs>
      <g>
       <use style="stroke:#000000;stroke-linecap:butt;stroke-width:0.5;" x="105.127868978" xlink:href="#mf0ff38ea95" y="16.276875"/>
      </g>
     </g>
    </g>
    <g id="xtick_7">
     <g id="line2d_12">
      <defs>
       <path d="
M0 0
L0 -2" id="mf0ff38ea95"/>
      </defs>
      <g>
       <use style="stroke:#000000;stroke-linecap:butt;stroke-width:0.5;" x="128.772190177" xlink:href="#mf0ff38ea95" y="16.276875"/>
      </g>
     </g>
    </g>
    <g id="xtick_8">
     <g id="line2d_13">
      <defs>
       <path d="
M0 0
L0 -2" id="mf0ff38ea95"/>
      </defs>
      <g>
       <use style="stroke:#000000;stroke-linecap:butt;stroke-width:0.5;" x="152.416511377" xlink:href="#mf0ff38ea95" y="16.276875"/>
      </g>
     </g>
    </g>
    <g id="xtick_9">
     <g id="line2d_14">
      <defs>
       <path d="
M0 0
L0 -2" id="mf0ff38ea95"/>
      </defs>
      <g>
       <use style="stroke:#000000;stroke-linecap:butt;stroke-width:0.5;" x="199.705153777" xlink:href="#mf0ff38ea95" y="16.276875"/>
      </g>
     </g>
    </g>
    <g id="xtick_10">
     <g id="line2d_15">
      <defs>
       <path d="
M0 0
L0 -2" id="mf0ff38ea95"/>
      </defs>
      <g>
       <use style="stroke:#000000;stroke-linecap:butt;stroke-width:0.5;" x="223.349474977" xlink:href="#mf0ff38ea95" y="16.276875"/>
      </g>
     </g>
    </g>
    <g id="xtick_11">
     <g id="line2d_16">
      <defs>
       <path d="
M0 0
L0 -2" id="mf0ff38ea95"/>
      </defs>
      <g>
       <use style="stroke:#000000;stroke-linecap:butt;stroke-width:0.5;" x="246.993796176" xlink:href="#mf0ff38ea95" y="16.276875"/>
      </g>
     </g>
    </g>
    <g id="xtick_12">
     <g id="line2d_17">
      <defs>
       <path d="
M0 0
L0 -2" id="mf0ff38ea95"/>
      </defs>
      <g>
       <use style="stroke:#000000;stroke-linecap:butt;stroke-width:0.5;" x="270.638117376" xlink:href="#mf0ff38ea95" y="16.276875"/>
      </g>
     </g>
    </g>
    <g id="xtick_13">
     <g id="line2d_18">
      <defs>
       <path d="
M0 0
L0 -2" id="mf0ff38ea95"/>
      </defs>
      <g>
       <use style="stroke:#000000;stroke-linecap:butt;stroke-width:0.5;" x="317.926759776" xlink:href="#mf0ff38ea95" y="16.276875"/>
      </g>
     </g>
    </g>
    <g id="xtick_14">
     <g id="line2d_19">
      <defs>
       <path d="
M0 0
L0 -2" id="mf0ff38ea95"/>
      </defs>
      <g>
       <use style="stroke:#000000;stroke-linecap:butt;stroke-width:0.5;" x="341.571080976" xlink:href="#mf0ff38ea95" y="16.276875"/>
      </g>
     </g>
    </g>
    <g id="xtick_15">
     <g id="line2d_20">
      <defs>
       <path d="
M0 0
L0 -2" id="mf0ff38ea95"/>
      </defs>
      <g>
       <use style="stroke:#000000;stroke-linecap:butt;stroke-width:0.5;" x="365.215402175" xlink:href="#mf0ff38ea95" y="16.276875"/>
      </g>
     </g>
    </g>
    <g id="xtick_16">
     <g id="line2d_21">
      <defs>
       <path d="
M0 0
L0 -2" id="mf0ff38ea95"/>
      </defs>
      <g>
       <use style="stroke:#000000;stroke-linecap:butt;stroke-width:0.5;" x="388.859723375" xlink:href="#mf0ff38ea95" y="16.276875"/>
      </g>
     </g>
    </g>
    <g id="xtick_17">
     <g id="line2d_22">
      <defs>
       <path d="
M0 0
L0 -2" id="mf0ff38ea95"/>
      </defs>
      <g>
       <use style="stroke:#000000;stroke-linecap:butt;stroke-width:0.5;" x="436.148365775" xlink:href="#mf0ff38ea95" y="16.276875"/>
      </g>
     </g>
    </g>
    <g id="xtick_18">
     <g id="line2d_23">
      <defs>
       <path d="
M0 0
L0 -2" id="mf0ff38ea95"/>
      </defs>
      <g>
       <use style="stroke:#000000;stroke-linecap:butt;stroke-width:0.5;" x="459.792686975" xlink:href="#mf0ff38ea95" y="16.276875"/>
      </g>
     </g>
    </g>
    <g id="xtick_19">
     <g id="line2d_24">
      <defs>
       <path d="
M0 0
L0 -2" id="mf0ff38ea95"/>
      </defs>
      <g>
       <use style="stroke:#000000;stroke-linecap:butt;stroke-width:0.5;" x="483.437008175" xlink:href="#mf0ff38ea95" y="16.276875"/>
      </g>
     </g>
    </g>
    <g id="xtick_20">
     <g id="line2d_25">
      <defs>
       <path d="
M0 0
L0 -2" id="mf0ff38ea95"/>
      </defs>
      <g>
       <use style="stroke:#000000;stroke-linecap:butt;stroke-width:0.5;" x="507.081329374" xlink:href="#mf0ff38ea95" y="16.276875"/>
      </g>
     </g>
    </g>
   </g>
   <g id="matplotlib.axis_2">
    <g id="ytick_1">
     <g id="line2d_26">
      <path d="
M64.7562 391.329
L557.299 391.329" style="fill:none;stroke:#000000;stroke-dasharray:1.000000,3.000000;stroke-dashoffset:0.0;stroke-linecap:butt;stroke-width:0.5;"/>
     </g>
     <g id="line2d_27">
      <defs>
       <path d="
M0 0
L4 0" id="mc91e532072"/>
      </defs>
      <g>
       <use style="stroke:#000000;stroke-linecap:butt;stroke-width:0.5;" x="54.75625" xlink:href="#mc91e532072" y="391.329385408"/>
      </g>
     </g>
     <g id="text_5">
      <!-- -3.5 -->
      <defs>
       <path d="
M40.5781 39.3125
Q47.6562 37.7969 51.625 33
Q55.6094 28.2188 55.6094 21.1875
Q55.6094 10.4062 48.1875 4.48438
Q40.7656 -1.42188 27.0938 -1.42188
Q22.5156 -1.42188 17.6562 -0.515625
Q12.7969 0.390625 7.625 2.20312
L7.625 11.7188
Q11.7188 9.32812 16.5938 8.10938
Q21.4844 6.89062 26.8125 6.89062
Q36.0781 6.89062 40.9375 10.5469
Q45.7969 14.2031 45.7969 21.1875
Q45.7969 27.6406 41.2812 31.2656
Q36.7656 34.9062 28.7188 34.9062
L20.2188 34.9062
L20.2188 43.0156
L29.1094 43.0156
Q36.375 43.0156 40.2344 45.9219
Q44.0938 48.8281 44.0938 54.2969
Q44.0938 59.9062 40.1094 62.9062
Q36.1406 65.9219 28.7188 65.9219
Q24.6562 65.9219 20.0156 65.0312
Q15.375 64.1562 9.8125 62.3125
L9.8125 71.0938
Q15.4375 72.6562 20.3438 73.4375
Q25.25 74.2188 29.5938 74.2188
Q40.8281 74.2188 47.3594 69.1094
Q53.9062 64.0156 53.9062 55.3281
Q53.9062 49.2656 50.4375 45.0938
Q46.9688 40.9219 40.5781 39.3125" id="BitstreamVeraSans-Roman-33"/>
       <path d="
M10.6875 12.4062
L21 12.4062
L21 0
L10.6875 0
z
" id="BitstreamVeraSans-Roman-2e"/>
       <path d="
M4.89062 31.3906
L31.2031 31.3906
L31.2031 23.3906
L4.89062 23.3906
z
" id="BitstreamVeraSans-Roman-2d"/>
      </defs>
      <g transform="translate(7.2 400.065010408)scale(0.24 -0.24)">
       <use xlink:href="#BitstreamVeraSans-Roman-2d"/>
       <use x="36.083984375" xlink:href="#BitstreamVeraSans-Roman-33"/>
       <use x="99.70703125" xlink:href="#BitstreamVeraSans-Roman-2e"/>
       <use x="131.494140625" xlink:href="#BitstreamVeraSans-Roman-35"/>
      </g>
     </g>
    </g>
    <g id="ytick_2">
     <g id="line2d_28">
      <path d="
M64.7562 337.75
L557.299 337.75" style="fill:none;stroke:#000000;stroke-dasharray:1.000000,3.000000;stroke-dashoffset:0.0;stroke-linecap:butt;stroke-width:0.5;"/>
     </g>
     <g id="line2d_29">
      <defs>
       <path d="
M0 0
L4 0" id="mc91e532072"/>
      </defs>
      <g>
       <use style="stroke:#000000;stroke-linecap:butt;stroke-width:0.5;" x="54.75625" xlink:href="#mc91e532072" y="337.75045535"/>
      </g>
     </g>
     <g id="text_6">
      <!-- -3 -->
      <g transform="translate(29.925 346.48608035)scale(0.24 -0.24)">
       <use xlink:href="#BitstreamVeraSans-Roman-2d"/>
       <use x="36.083984375" xlink:href="#BitstreamVeraSans-Roman-33"/>
      </g>
     </g>
    </g>
    <g id="ytick_3">
     <g id="line2d_30">
      <path d="
M64.7562 284.172
L557.299 284.172" style="fill:none;stroke:#000000;stroke-dasharray:1.000000,3.000000;stroke-dashoffset:0.0;stroke-linecap:butt;stroke-width:0.5;"/>
     </g>
     <g id="line2d_31">
      <defs>
       <path d="
M0 0
L4 0" id="mc91e532072"/>
      </defs>
      <g>
       <use style="stroke:#000000;stroke-linecap:butt;stroke-width:0.5;" x="54.75625" xlink:href="#mc91e532072" y="284.171525291"/>
      </g>
     </g>
     <g id="text_7">
      <!-- -2.5 -->
      <g transform="translate(7.2 292.907150291)scale(0.24 -0.24)">
       <use xlink:href="#BitstreamVeraSans-Roman-2d"/>
       <use x="36.083984375" xlink:href="#BitstreamVeraSans-Roman-32"/>
       <use x="99.70703125" xlink:href="#BitstreamVeraSans-Roman-2e"/>
       <use x="131.494140625" xlink:href="#BitstreamVeraSans-Roman-35"/>
      </g>
     </g>
    </g>
    <g id="ytick_4">
     <g id="line2d_32">
      <path d="
M64.7562 230.593
L557.299 230.593" style="fill:none;stroke:#000000;stroke-dasharray:1.000000,3.000000;stroke-dashoffset:0.0;stroke-linecap:butt;stroke-width:0.5;"/>
     </g>
     <g id="line2d_33">
      <defs>
       <path d="
M0 0
L4 0" id="mc91e532072"/>
      </defs>
      <g>
       <use style="stroke:#000000;stroke-linecap:butt;stroke-width:0.5;" x="54.75625" xlink:href="#mc91e532072" y="230.592595233"/>
      </g>
     </g>
     <g id="text_8">
      <!-- -2 -->
      <g transform="translate(30.405 239.498845233)scale(0.24 -0.24)">
       <use xlink:href="#BitstreamVeraSans-Roman-2d"/>
       <use x="36.083984375" xlink:href="#BitstreamVeraSans-Roman-32"/>
      </g>
     </g>
    </g>
    <g id="ytick_5">
     <g id="line2d_34">
      <path d="
M64.7562 177.014
L557.299 177.014" style="fill:none;stroke:#000000;stroke-dasharray:1.000000,3.000000;stroke-dashoffset:0.0;stroke-linecap:butt;stroke-width:0.5;"/>
     </g>
     <g id="line2d_35">
      <defs>
       <path d="
M0 0
L4 0" id="mc91e532072"/>
      </defs>
      <g>
       <use style="stroke:#000000;stroke-linecap:butt;stroke-width:0.5;" x="54.75625" xlink:href="#mc91e532072" y="177.013665175"/>
      </g>
     </g>
     <g id="text_9">
      <!-- -1.5 -->
      <g transform="translate(7.2 185.591790175)scale(0.24 -0.24)">
       <use xlink:href="#BitstreamVeraSans-Roman-2d"/>
       <use x="36.083984375" xlink:href="#BitstreamVeraSans-Roman-31"/>
       <use x="99.70703125" xlink:href="#BitstreamVeraSans-Roman-2e"/>
       <use x="131.494140625" xlink:href="#BitstreamVeraSans-Roman-35"/>
      </g>
     </g>
    </g>
    <g id="ytick_6">
     <g id="line2d_36">
      <path d="
M64.7562 123.435
L557.299 123.435" style="fill:none;stroke:#000000;stroke-dasharray:1.000000,3.000000;stroke-dashoffset:0.0;stroke-linecap:butt;stroke-width:0.5;"/>
     </g>
     <g id="line2d_37">
      <defs>
       <path d="
M0 0
L4 0" id="mc91e532072"/>
      </defs>
      <g>
       <use style="stroke:#000000;stroke-linecap:butt;stroke-width:0.5;" x="54.75625" xlink:href="#mc91e532072" y="123.434735117"/>
      </g>
     </g>
     <g id="text_10">
      <!-- -1 -->
      <g transform="translate(30.2175 132.183485117)scale(0.24 -0.24)">
       <use xlink:href="#BitstreamVeraSans-Roman-2d"/>
       <use x="36.083984375" xlink:href="#BitstreamVeraSans-Roman-31"/>
      </g>
     </g>
    </g>
    <g id="ytick_7">
     <g id="line2d_38">
      <path d="
M64.7562 69.8558
L557.299 69.8558" style="fill:none;stroke:#000000;stroke-dasharray:1.000000,3.000000;stroke-dashoffset:0.0;stroke-linecap:butt;stroke-width:0.5;"/>
     </g>
     <g id="line2d_39">
      <defs>
       <path d="
M0 0
L4 0" id="mc91e532072"/>
      </defs>
      <g>
       <use style="stroke:#000000;stroke-linecap:butt;stroke-width:0.5;" x="54.75625" xlink:href="#mc91e532072" y="69.8558050583"/>
      </g>
     </g>
     <g id="text_11">
      <!-- -0.5 -->
      <g transform="translate(7.2 78.5914300583)scale(0.24 -0.24)">
       <use xlink:href="#BitstreamVeraSans-Roman-2d"/>
       <use x="36.083984375" xlink:href="#BitstreamVeraSans-Roman-30"/>
       <use x="99.70703125" xlink:href="#BitstreamVeraSans-Roman-2e"/>
       <use x="131.494140625" xlink:href="#BitstreamVeraSans-Roman-35"/>
      </g>
     </g>
    </g>
    <g id="ytick_8">
     <g id="line2d_40">
      <path d="
M64.7562 16.2769
L557.299 16.2769" style="fill:none;stroke:#000000;stroke-dasharray:1.000000,3.000000;stroke-dashoffset:0.0;stroke-linecap:butt;stroke-width:0.5;"/>
     </g>
     <g id="line2d_41">
      <defs>
       <path d="
M0 0
L4 0" id="mc91e532072"/>
      </defs>
      <g>
       <use style="stroke:#000000;stroke-linecap:butt;stroke-width:0.5;" x="54.75625" xlink:href="#mc91e532072" y="16.276875"/>
      </g>
     </g>
     <g id="text_12">
      <!-- 0 -->
      <g transform="translate(38.6625 25.0125)scale(0.24 -0.24)">
       <use xlink:href="#BitstreamVeraSans-Roman-30"/>
      </g>
     </g>
    </g>
    <g id="ytick_9">
     <g id="line2d_42">
      <defs>
       <path d="
M0 0
L2 0" id="m0789224b6b"/>
      </defs>
      <g>
       <use style="stroke:#000000;stroke-linecap:butt;stroke-width:0.5;" x="54.75625" xlink:href="#m0789224b6b" y="402.045171419"/>
      </g>
     </g>
    </g>
    <g id="ytick_10">
     <g id="line2d_43">
      <defs>
       <path d="
M0 0
L2 0" id="m0789224b6b"/>
      </defs>
      <g>
       <use style="stroke:#000000;stroke-linecap:butt;stroke-width:0.5;" x="54.75625" xlink:href="#m0789224b6b" y="380.613599396"/>
      </g>
     </g>
    </g>
    <g id="ytick_11">
     <g id="line2d_44">
      <defs>
       <path d="
M0 0
L2 0" id="m0789224b6b"/>
      </defs>
      <g>
       <use style="stroke:#000000;stroke-linecap:butt;stroke-width:0.5;" x="54.75625" xlink:href="#m0789224b6b" y="369.897813384"/>
      </g>
     </g>
    </g>
    <g id="ytick_12">
     <g id="line2d_45">
      <defs>
       <path d="
M0 0
L2 0" id="m0789224b6b"/>
      </defs>
      <g>
       <use style="stroke:#000000;stroke-linecap:butt;stroke-width:0.5;" x="54.75625" xlink:href="#m0789224b6b" y="359.182027373"/>
      </g>
     </g>
    </g>
    <g id="ytick_13">
     <g id="line2d_46">
      <defs>
       <path d="
M0 0
L2 0" id="m0789224b6b"/>
      </defs>
      <g>
       <use style="stroke:#000000;stroke-linecap:butt;stroke-width:0.5;" x="54.75625" xlink:href="#m0789224b6b" y="348.466241361"/>
      </g>
     </g>
    </g>
    <g id="ytick_14">
     <g id="line2d_47">
      <defs>
       <path d="
M0 0
L2 0" id="m0789224b6b"/>
      </defs>
      <g>
       <use style="stroke:#000000;stroke-linecap:butt;stroke-width:0.5;" x="54.75625" xlink:href="#m0789224b6b" y="327.034669338"/>
      </g>
     </g>
    </g>
    <g id="ytick_15">
     <g id="line2d_48">
      <defs>
       <path d="
M0 0
L2 0" id="m0789224b6b"/>
      </defs>
      <g>
       <use style="stroke:#000000;stroke-linecap:butt;stroke-width:0.5;" x="54.75625" xlink:href="#m0789224b6b" y="316.318883326"/>
      </g>
     </g>
    </g>
    <g id="ytick_16">
     <g id="line2d_49">
      <defs>
       <path d="
M0 0
L2 0" id="m0789224b6b"/>
      </defs>
      <g>
       <use style="stroke:#000000;stroke-linecap:butt;stroke-width:0.5;" x="54.75625" xlink:href="#m0789224b6b" y="305.603097315"/>
      </g>
     </g>
    </g>
    <g id="ytick_17">
     <g id="line2d_50">
      <defs>
       <path d="
M0 0
L2 0" id="m0789224b6b"/>
      </defs>
      <g>
       <use style="stroke:#000000;stroke-linecap:butt;stroke-width:0.5;" x="54.75625" xlink:href="#m0789224b6b" y="294.887311303"/>
      </g>
     </g>
    </g>
    <g id="ytick_18">
     <g id="line2d_51">
      <defs>
       <path d="
M0 0
L2 0" id="m0789224b6b"/>
      </defs>
      <g>
       <use style="stroke:#000000;stroke-linecap:butt;stroke-width:0.5;" x="54.75625" xlink:href="#m0789224b6b" y="284.171525291"/>
      </g>
     </g>
    </g>
    <g id="ytick_19">
     <g id="line2d_52">
      <defs>
       <path d="
M0 0
L2 0" id="m0789224b6b"/>
      </defs>
      <g>
       <use style="stroke:#000000;stroke-linecap:butt;stroke-width:0.5;" x="54.75625" xlink:href="#m0789224b6b" y="273.45573928"/>
      </g>
     </g>
    </g>
    <g id="ytick_20">
     <g id="line2d_53">
      <defs>
       <path d="
M0 0
L2 0" id="m0789224b6b"/>
      </defs>
      <g>
       <use style="stroke:#000000;stroke-linecap:butt;stroke-width:0.5;" x="54.75625" xlink:href="#m0789224b6b" y="262.739953268"/>
      </g>
     </g>
    </g>
    <g id="ytick_21">
     <g id="line2d_54">
      <defs>
       <path d="
M0 0
L2 0" id="m0789224b6b"/>
      </defs>
      <g>
       <use style="stroke:#000000;stroke-linecap:butt;stroke-width:0.5;" x="54.75625" xlink:href="#m0789224b6b" y="252.024167256"/>
      </g>
     </g>
    </g>
    <g id="ytick_22">
     <g id="line2d_55">
      <defs>
       <path d="
M0 0
L2 0" id="m0789224b6b"/>
      </defs>
      <g>
       <use style="stroke:#000000;stroke-linecap:butt;stroke-width:0.5;" x="54.75625" xlink:href="#m0789224b6b" y="241.308381245"/>
      </g>
     </g>
    </g>
    <g id="ytick_23">
     <g id="line2d_56">
      <defs>
       <path d="
M0 0
L2 0" id="m0789224b6b"/>
      </defs>
      <g>
       <use style="stroke:#000000;stroke-linecap:butt;stroke-width:0.5;" x="54.75625" xlink:href="#m0789224b6b" y="230.592595233"/>
      </g>
     </g>
    </g>
    <g id="ytick_24">
     <g id="line2d_57">
      <defs>
       <path d="
M0 0
L2 0" id="m0789224b6b"/>
      </defs>
      <g>
       <use style="stroke:#000000;stroke-linecap:butt;stroke-width:0.5;" x="54.75625" xlink:href="#m0789224b6b" y="219.876809221"/>
      </g>
     </g>
    </g>
    <g id="ytick_25">
     <g id="line2d_58">
      <defs>
       <path d="
M0 0
L2 0" id="m0789224b6b"/>
      </defs>
      <g>
       <use style="stroke:#000000;stroke-linecap:butt;stroke-width:0.5;" x="54.75625" xlink:href="#m0789224b6b" y="209.16102321"/>
      </g>
     </g>
    </g>
    <g id="ytick_26">
     <g id="line2d_59">
      <defs>
       <path d="
M0 0
L2 0" id="m0789224b6b"/>
      </defs>
      <g>
       <use style="stroke:#000000;stroke-linecap:butt;stroke-width:0.5;" x="54.75625" xlink:href="#m0789224b6b" y="198.445237198"/>
      </g>
     </g>
    </g>
    <g id="ytick_27">
     <g id="line2d_60">
      <defs>
       <path d="
M0 0
L2 0" id="m0789224b6b"/>
      </defs>
      <g>
       <use style="stroke:#000000;stroke-linecap:butt;stroke-width:0.5;" x="54.75625" xlink:href="#m0789224b6b" y="187.729451186"/>
      </g>
     </g>
    </g>
    <g id="ytick_28">
     <g id="line2d_61">
      <defs>
       <path d="
M0 0
L2 0" id="m0789224b6b"/>
      </defs>
      <g>
       <use style="stroke:#000000;stroke-linecap:butt;stroke-width:0.5;" x="54.75625" xlink:href="#m0789224b6b" y="177.013665175"/>
      </g>
     </g>
    </g>
    <g id="ytick_29">
     <g id="line2d_62">
      <defs>
       <path d="
M0 0
L2 0" id="m0789224b6b"/>
      </defs>
      <g>
       <use style="stroke:#000000;stroke-linecap:butt;stroke-width:0.5;" x="54.75625" xlink:href="#m0789224b6b" y="166.297879163"/>
      </g>
     </g>
    </g>
    <g id="ytick_30">
     <g id="line2d_63">
      <defs>
       <path d="
M0 0
L2 0" id="m0789224b6b"/>
      </defs>
      <g>
       <use style="stroke:#000000;stroke-linecap:butt;stroke-width:0.5;" x="54.75625" xlink:href="#m0789224b6b" y="155.582093151"/>
      </g>
     </g>
    </g>
    <g id="ytick_31">
     <g id="line2d_64">
      <defs>
       <path d="
M0 0
L2 0" id="m0789224b6b"/>
      </defs>
      <g>
       <use style="stroke:#000000;stroke-linecap:butt;stroke-width:0.5;" x="54.75625" xlink:href="#m0789224b6b" y="144.86630714"/>
      </g>
     </g>
    </g>
    <g id="ytick_32">
     <g id="line2d_65">
      <defs>
       <path d="
M0 0
L2 0" id="m0789224b6b"/>
      </defs>
      <g>
       <use style="stroke:#000000;stroke-linecap:butt;stroke-width:0.5;" x="54.75625" xlink:href="#m0789224b6b" y="134.150521128"/>
      </g>
     </g>
    </g>
    <g id="ytick_33">
     <g id="line2d_66">
      <defs>
       <path d="
M0 0
L2 0" id="m0789224b6b"/>
      </defs>
      <g>
       <use style="stroke:#000000;stroke-linecap:butt;stroke-width:0.5;" x="54.75625" xlink:href="#m0789224b6b" y="123.434735117"/>
      </g>
     </g>
    </g>
    <g id="ytick_34">
     <g id="line2d_67">
      <defs>
       <path d="
M0 0
L2 0" id="m0789224b6b"/>
      </defs>
      <g>
       <use style="stroke:#000000;stroke-linecap:butt;stroke-width:0.5;" x="54.75625" xlink:href="#m0789224b6b" y="112.718949105"/>
      </g>
     </g>
    </g>
    <g id="ytick_35">
     <g id="line2d_68">
      <defs>
       <path d="
M0 0
L2 0" id="m0789224b6b"/>
      </defs>
      <g>
       <use style="stroke:#000000;stroke-linecap:butt;stroke-width:0.5;" x="54.75625" xlink:href="#m0789224b6b" y="102.003163093"/>
      </g>
     </g>
    </g>
    <g id="ytick_36">
     <g id="line2d_69">
      <defs>
       <path d="
M0 0
L2 0" id="m0789224b6b"/>
      </defs>
      <g>
       <use style="stroke:#000000;stroke-linecap:butt;stroke-width:0.5;" x="54.75625" xlink:href="#m0789224b6b" y="91.2873770816"/>
      </g>
     </g>
    </g>
    <g id="ytick_37">
     <g id="line2d_70">
      <defs>
       <path d="
M0 0
L2 0" id="m0789224b6b"/>
      </defs>
      <g>
       <use style="stroke:#000000;stroke-linecap:butt;stroke-width:0.5;" x="54.75625" xlink:href="#m0789224b6b" y="80.5715910699"/>
      </g>
     </g>
    </g>
    <g id="ytick_38">
     <g id="line2d_71">
      <defs>
       <path d="
M0 0
L2 0" id="m0789224b6b"/>
      </defs>
      <g>
       <use style="stroke:#000000;stroke-linecap:butt;stroke-width:0.5;" x="54.75625" xlink:href="#m0789224b6b" y="69.8558050583"/>
      </g>
     </g>
    </g>
    <g id="ytick_39">
     <g id="line2d_72">
      <defs>
       <path d="
M0 0
L2 0" id="m0789224b6b"/>
      </defs>
      <g>
       <use style="stroke:#000000;stroke-linecap:butt;stroke-width:0.5;" x="54.75625" xlink:href="#m0789224b6b" y="59.1400190466"/>
      </g>
     </g>
    </g>
    <g id="ytick_40">
     <g id="line2d_73">
      <defs>
       <path d="
M0 0
L2 0" id="m0789224b6b"/>
      </defs>
      <g>
       <use style="stroke:#000000;stroke-linecap:butt;stroke-width:0.5;" x="54.75625" xlink:href="#m0789224b6b" y="48.424233035"/>
      </g>
     </g>
    </g>
    <g id="ytick_41">
     <g id="line2d_74">
      <defs>
       <path d="
M0 0
L2 0" id="m0789224b6b"/>
      </defs>
      <g>
       <use style="stroke:#000000;stroke-linecap:butt;stroke-width:0.5;" x="54.75625" xlink:href="#m0789224b6b" y="37.7084470233"/>
      </g>
     </g>
    </g>
    <g id="ytick_42">
     <g id="line2d_75">
      <defs>
       <path d="
M0 0
L2 0" id="m0789224b6b"/>
      </defs>
      <g>
       <use style="stroke:#000000;stroke-linecap:butt;stroke-width:0.5;" x="54.75625" xlink:href="#m0789224b6b" y="26.9926610117"/>
      </g>
     </g>
    </g>
   </g>
   <g id="patch_3">
    <path d="
M64.7562 16.2769
L557.299 16.2769" style="fill:none;stroke:#000000;stroke-width:0.8;"/>
   </g>
   <g id="patch_4">
    <path d="
M54.7562 412.239
L54.7562 8.51291" style="fill:none;stroke:#000000;stroke-width:0.8;"/>
   </g>
  </g>
 </g>
 <defs>
  <clipPath id="p2fe29bff6c">
   <rect height="403.726153846" width="492.5425" x="64.75625" y="8.51291050296"/>
  </clipPath>
 </defs>
</svg>
