<?xml version="1.0" encoding="utf-8" standalone="no"?>
<!DOCTYPE svg PUBLIC "-//W3C//DTD SVG 1.1//EN"
  "http://www.w3.org/Graphics/SVG/1.1/DTD/svg11.dtd">
<!-- Created with matplotlib (http://matplotlib.sourceforge.net/) -->
<svg height="419pt" version="1.1" viewBox="0 0 564 419" width="564pt" xmlns="http://www.w3.org/2000/svg" xmlns:xlink="http://www.w3.org/1999/xlink">
 <defs>
  <style type="text/css">
*{stroke-linecap:square;stroke-linejoin:round;}
  </style>
 </defs>
 <g id="figure_1">
  <g id="patch_1">
   <path d="
M-4.44089e-16 419.439
L564.499 419.439
L564.499 0
L-4.44089e-16 0
z
" style="fill:#ffffff;"/>
  </g>
  <g id="axes_1">
   <g id="patch_2">
    <path d="
M64.7562 412.239
L557.299 412.239
L557.299 8.51291
L64.7562 8.51291
z
" style="fill:#ffffff;"/>
   </g>
   <g id="line2d_1">
    <path clip-path="url(#p2fe29bff6c)" d="
M74.2282 16.2769
L83.8152 16.2769
L83.8152 46.8645
L95.8933 46.8645
L95.8933 100.43
L103.849 100.43
L103.849 141.018
L114.536 141.018
L114.536 197.877
L118.486 197.877
L118.486 220.078
L124.829 220.078
L124.829 258.685
L127.458 258.685
L127.458 275.771
L131.976 275.771
L131.976 307.16
L137.457 307.16
L137.457 332.034
L139.034 332.034
L139.034 336.442
L143.217 336.442
L143.217 350.991
L145.644 350.991
L145.644 360.639
L146.77 360.639
L146.77 365.853
L148.873 365.853
L148.873 373.056
L151.714 373.056
L151.714 384.215
L154.25 384.215
L154.25 391.029
L155.038 391.029
L155.038 392.36
L157.256 392.36
L157.256 397.488
L158.627 397.488
L158.627 399.373
L159.284 399.373
L159.284 399.744
L161.152 399.744
L161.152 401.97
L162.32 401.97
L162.32 402.429
L163.97 402.429
L163.97 404.041
L166.005 404.041
L166.005 404.475
L166.961 404.475
L166.961 404.021
L167.424 404.021
L167.424 403.509
L168.325 403.509
L168.325 401.97
L168.763 401.97
L168.763 401.484
L169.615 401.484
L169.615 401.029
L173.11 400.966
L173.11 400.501
L174.169 400.501
L174.169 400.37
L174.512 400.37
L174.512 400.498
L176.154 400.498
L176.154 400.189
L177.391 400.277
L177.391 400.052
L178.277 400.052
L178.277 399.377
L178.851 399.377
L178.851 399.208
L179.685 399.208
L179.685 399.336
L180.491 399.336
L180.491 399.057
L180.754 399.057
L180.754 398.842
L182.026 398.842
L182.026 397.211
L182.272 397.211
L182.272 397.004
L182.757 397.004
L182.757 396.807
L182.996 396.807
L182.996 396.603
L184.38 396.603
L184.38 394.812
L185.688 394.812
L185.688 393.661
L186.108 393.661
L186.108 393.458
L186.725 393.441
L186.725 393.237
L187.326 393.237
L187.326 392.689
L188.485 392.587
L188.485 391.699
L189.043 391.699
L189.043 391.394
L190.122 391.296
L190.122 390.99
L191.322 390.955
L191.322 390.853
L192.143 390.853
L192.143 390.049
L193.247 390.049
L193.247 389.348
L194.005 389.263
L194.005 389.17
L195.026 389.17
L195.026 388.483
L195.451 388.483
L195.451 388.335
L196.946 388.336
L196.946 388.18
L197.851 388.137
L197.851 387.977
L198.476 387.936
L198.476 387.828
L198.844 387.828
L198.844 387.55
L199.325 387.55
L199.325 387.034
L199.562 387.034
L199.562 386.852
L200.029 386.852
L200.029 386.348
L200.601 386.348
L200.601 385.558
L200.713 385.558
L200.713 385.368
L201.268 385.368
L201.378 384.483
L201.703 384.483
L201.703 384.033
L201.918 384.033
L201.918 383.675
L202.236 383.675
L202.236 383.051
L202.653 383.051
L202.653 382.114
L202.859 382.114
L202.962 381.307
L203.165 381.307
L203.165 380.796
L203.765 380.796
L203.765 379.467
L204.157 379.467
L204.157 378.495
L204.35 378.495
L204.35 378.071
L204.732 378.071
L204.732 377.341
L204.921 377.341
L204.921 376.929
L205.201 376.929
L205.201 376.243
L205.752 376.243
L205.843 374.881
L206.643 374.881
L206.643 373.592
L206.904 373.592
L206.904 373.105
L207.332 373.105
L207.332 372.194
L207.585 372.194
L207.585 371.724
L207.836 371.724
L207.919 371.214
L208.166 371.214
L208.166 370.821
L208.572 370.821
L208.572 370.072
L208.813 370.072
L208.813 369.692
L209.051 369.692
L209.13 369.251
L209.365 369.251
L209.365 368.939
L209.597 368.939
L209.597 368.688
L209.751 368.688
L209.827 368.364
L210.281 368.364
L210.281 367.762
L210.653 367.762
L210.727 367.299
L210.873 367.299
L210.873 367.14
L211.092 367.14
L211.092 366.957
L211.308 366.957
L211.38 366.8
L212.154 366.691
L212.154 366.66
L212.769 366.553
L212.769 366.498
L213.63 366.456
L213.63 366.347
L213.824 366.347
L213.824 366.22
L214.017 366.22
L214.017 366.051
L214.398 365.967
L214.398 365.744
L214.586 365.744
L214.586 365.535
L214.958 365.425
L214.958 365.261
L215.505 365.152
L215.505 364.867
L215.804 364.867
L215.804 364.731
L216.157 364.731
L216.215 364.437
L216.505 364.437
L216.563 364.062
L216.734 363.983
L216.734 363.931
L217.018 363.931
L217.018 363.735
L217.409 363.735
L217.52 363.256
L217.685 363.205
L217.685 363.128
L218.065 363.128
L218.173 362.863
L218.86 362.761
L218.964 362.159
L219.171 362.159
L219.171 361.884
L219.427 361.884
L219.427 361.595
L219.63 361.595
L219.731 361.172
L219.881 361.172
L219.881 360.973
L220.03 360.973
L220.03 360.745
L220.375 360.745
L220.473 360.003
L220.618 360.003
L220.618 359.81
L220.763 359.81
L220.763 359.59
L220.955 359.59
L220.955 359.262
L221.097 359.262
L221.097 359.046
L221.38 359.046
L221.474 358.568
L221.613 358.568
L221.66 358.314
L221.89 358.314
L221.936 357.959
L222.073 357.959
L222.073 357.779
L222.299 357.779
L222.345 357.482
L222.568 357.482
L222.613 357.29
L223.141 357.191
L223.228 356.903
L223.486 356.797
L223.486 356.676
L223.785 356.579
L223.785 356.481
L224.037 356.385
L224.037 356.312
L224.494 356.312
L224.535 355.939
L224.739 355.939
L224.739 355.782
L225.102 355.686
L225.102 355.603
L225.341 355.532
L225.341 355.482
L225.734 355.443
L225.812 355.324
L226.95 355.431
L227.061 355.544
L228.456 355.509
L228.56 355.391
L229.107 355.296
L229.107 355.145
L230.003 355.251
L230.1 355.315
L230.294 355.315
L230.294 355.433
L230.454 355.433
L230.55 355.621
L230.74 355.718
L230.74 355.804
L230.928 355.804
L230.928 356.002
L231.115 356.002
L231.115 356.227
L231.239 356.227
L231.239 356.394
L231.424 356.394
L231.515 356.734
L231.668 356.824
L231.668 356.945
L231.789 356.945
L231.849 357.201
L231.969 357.201
L232.029 357.398
L232.237 357.398
L232.296 357.691
L232.414 357.79
L232.473 357.883
L232.59 357.994
L232.677 358.145
L232.822 358.145
L232.822 358.348
L233.109 358.348
L233.194 358.819
L233.617 358.927
L233.701 359.441
L233.84 359.441
L233.84 359.584
L234.005 359.584
L234.033 359.814
L234.169 359.814
L234.278 360.156
L234.441 360.249
L234.521 360.398
L234.762 360.398
L234.842 360.631
L235.079 360.688
L235.079 360.841
L235.366 360.947
L235.47 361.132
L235.676 361.132
L235.676 361.324
L235.854 361.324
L235.93 361.511
L236.207 361.584
L236.207 361.643
L236.506 361.727
L236.506 361.772
L236.727 361.772
L236.752 361.95
L236.947 361.95
L236.971 362.105
L237.236 362.105
L237.308 362.355
L237.475 362.421
L237.546 362.527
L237.874 362.601
L237.898 362.68
L238.176 362.742
L238.176 362.806
L238.496 362.911
L238.587 363.052
L238.835 363.139
L238.857 363.278
L239.035 363.278
L239.124 363.536
L239.3 363.601
L239.388 363.811
L239.584 363.811
L239.584 364.059
L239.843 364.059
L239.95 364.46
L240.205 364.564
L240.269 364.821
L240.52 364.9
L240.583 365.1
L240.728 365.199
L240.831 365.408
L240.954 365.408
L240.975 365.579
L241.199 365.579
L241.28 365.94
L241.441 366.048
L241.441 366.109
L241.581 366.109
L241.68 366.312
L241.858 366.423
L241.858 366.489
L241.976 366.489
L242.035 366.671
L242.23 366.728
L242.327 367.002
L242.443 367.002
L242.519 367.244
L242.862 367.354
L242.862 367.586
L243.031 367.586
L243.125 367.786
L243.311 367.896
L243.367 367.952
L243.569 367.952
L243.679 368.17
L243.843 368.181
L243.951 368.366
L244.184 368.46
L244.291 368.699
L244.451 368.782
L244.557 368.896
L244.714 368.955
L244.819 369.099
L245.078 369.209
L245.113 369.285
L245.233 369.285
L245.318 369.466
L245.522 369.568
L245.538 369.582
L248.2 369.688
L248.2 369.717
L248.604 369.826
L248.692 369.887
L249.044 369.998
L249.102 370.14
L249.391 370.214
L249.491 370.418
L249.704 370.496
L249.732 370.574
L249.901 370.642
L249.915 370.7
L250.152 370.76
L250.194 370.837
L250.497 370.943
L250.579 371.006
L250.904 371.1
L251.011 371.178
L251.171 371.249
L251.264 371.383
L251.409 371.451
L251.501 371.573
L251.697 371.668
L251.736 371.713
L252.045 371.808
L252.109 371.834
L255.263 371.742
L255.341 371.676
L255.563 371.588
L255.64 371.509
L255.859 371.399
L255.968 371.298
L256.248 371.204
L256.323 371.155
L256.977 371.048
L257.081 370.981
L257.359 370.903
L257.451 370.817
L257.654 370.709
L257.714 370.641
L257.865 370.588
L257.925 370.444
L258.054 370.357
L258.054 370.316
L258.173 370.316
L258.262 370.102
L258.556 370.014
L258.634 369.861
L258.788 369.767
L258.894 369.68
L259.066 369.577
L259.161 369.474
L259.322 369.379
L259.406 369.276
L259.584 369.214
L259.686 369.063
L259.908 368.977
L260.018 368.771
L260.136 368.687
L260.191 368.588
L260.29 368.495
L260.317 368.443
L260.426 368.443
L260.515 368.221
L260.614 368.127
L260.703 367.998
L260.809 367.947
L260.827 367.848
L260.959 367.848
L261.038 367.553
L261.116 367.466
L261.221 367.318
L261.351 367.28
L261.403 367.104
L261.489 367.003
L261.592 366.852
L261.72 366.829
L261.822 366.529
L261.999 366.46
L262.1 366.091
L262.25 365.983
L262.325 365.824
L262.474 365.747
L262.523 365.584
L262.646 365.584
L262.736 365.358
L262.89 365.268
L262.979 365.146
L263.124 365.066
L263.228 364.877
L263.347 364.803
L263.458 364.609
L263.561 364.58
L263.647 364.379
L263.741 364.291
L263.843 364.147
L263.975 364.049
L264.052 363.91
L264.167 363.823
L264.205 363.704
L264.297 363.704
L264.389 363.474
L264.487 363.438
L264.578 363.22
L264.683 363.14
L264.773 362.979
L264.885 362.889
L264.982 362.739
L265.137 362.666
L265.247 362.41
L265.357 362.299
L265.393 362.203
L265.502 362.203
L265.611 361.87
L265.683 361.766
L265.783 361.576
L265.855 361.526
L265.919 361.353
L265.997 361.259
L266.104 361.064
L266.209 360.967
L266.273 360.828
L266.357 360.828
L266.461 360.545
L266.573 360.491
L266.635 360.342
L266.78 360.235
L266.876 360.069
L266.998 360.043
L267.1 359.781
L267.222 359.684
L267.323 359.514
L267.443 359.425
L267.543 359.299
L267.709 359.19
L267.801 359.104
L268.018 358.999
L268.115 358.945
L268.393 358.853
L268.47 358.793
L268.737 358.683
L268.831 358.588
L268.995 358.479
L269.095 358.353
L269.244 358.261
L269.349 358.101
L269.484 358.017
L269.594 357.903
L269.716 357.797
L269.825 357.675
L269.939 357.601
L270.041 357.477
L270.184 357.394
L270.226 357.334
L270.45 357.236
L270.538 357.16
L270.696 357.054
L270.807 356.968
L270.974 356.872
L271.043 356.805
L271.18 356.7
L271.288 356.589
L271.402 356.492
L271.458 356.418
L271.57 356.322
L271.677 356.191
L271.805 356.085
L271.888 355.964
L272.037 355.865
L272.125 355.749
L272.267 355.639
L272.37 355.534
L272.484 355.435
L272.543 355.342
L272.64 355.262
L272.72 355.123
L272.822 355.055
L272.917 354.828
L272.991 354.747
L273.044 354.609
L273.118 354.609
L273.228 354.3
L273.358 354.19
L273.467 353.895
L273.54 353.788
L273.648 353.577
L273.74 353.481
L273.847 353.276
L273.944 353.17
L274.02 353.053
L274.126 352.971
L274.231 352.829
L274.346 352.732
L274.451 352.601
L274.614 352.513
L274.722 352.271
L274.835 352.175
L274.942 351.993
L275.054 351.899
L275.16 351.696
L275.257 351.613
L275.343 351.471
L275.443 351.365
L275.548 351.217
L275.633 351.108
L275.704 350.997
L275.798 350.901
L275.872 350.755
L275.966 350.649
L276.063 350.505
L276.179 350.426
L276.285 350.265
L276.395 350.156
L276.468 350.068
L276.6 349.987
L276.682 349.806
L276.794 349.695
L276.898 349.511
L276.983 349.41
L277.076 349.24
L277.182 349.142
L277.284 348.924
L277.368 348.862
L277.429 348.734
L277.534 348.642
L277.63 348.493
L277.729 348.436
L277.837 348.198
L277.923 348.144
L278.017 347.927
L278.107 347.86
L278.209 347.663
L278.285 347.615
L278.382 347.389
L278.474 347.278
L278.562 347.12
L278.645 347.039
L278.732 346.829
L278.799 346.737
L278.898 346.563
L279.017 346.461
L279.115 346.282
L279.237 346.19
L279.326 346.035
L279.479 345.941
L279.587 345.77
L279.73 345.663
L279.841 345.549
L280.003 345.441
L280.113 345.365
L280.307 345.277
L280.416 345.147
L280.55 345.07
L280.658 344.948
L280.806 344.843
L280.908 344.75
L281.044 344.643
L281.153 344.552
L281.287 344.452
L281.38 344.354
L281.491 344.244
L281.546 344.188
L281.663 344.078
L281.766 343.966
L281.893 343.865
L282.001 343.765
L282.135 343.662
L282.228 343.567
L282.37 343.462
L282.473 343.345
L282.604 343.251
L282.705 343.133
L282.866 343.033
L282.967 342.93
L283.143 342.84
L283.239 342.744
L283.403 342.633
L283.511 342.523
L283.623 342.415
L283.714 342.323
L283.824 342.212
L283.914 342.116
L284.037 342.043
L284.146 341.887
L284.264 341.776
L284.363 341.653
L284.457 341.544
L284.548 341.406
L284.645 341.305
L284.748 341.141
L284.828 341.041
L284.931 340.901
L285.02 340.8
L285.131 340.637
L285.225 340.528
L285.329 340.403
L285.432 340.307
L285.538 340.175
L285.631 340.07
L285.714 339.952
L285.822 339.843
L285.932 339.682
L286.015 339.603
L286.1 339.432
L286.17 339.341
L286.251 339.186
L286.323 339.082
L286.431 338.898
L286.515 338.853
L286.61 338.646
L286.711 338.557
L286.817 338.399
L286.911 338.307
L287.008 338.161
L287.09 338.085
L287.191 337.913
L287.281 337.812
L287.385 337.628
L287.479 337.548
L287.556 337.387
L287.639 337.292
L287.741 337.127
L287.826 337.017
L287.922 336.877
L288.02 336.772
L288.129 336.6
L288.215 336.495
L288.32 336.331
L288.411 336.237
L288.513 336.055
L288.595 335.969
L288.698 335.76
L288.766 335.673
L288.869 335.476
L288.942 335.368
L289.014 335.247
L289.089 335.138
L289.193 334.982
L289.294 334.877
L289.405 334.729
L289.526 334.62
L289.636 334.43
L289.73 334.331
L289.839 334.138
L289.938 334.031
L290.046 333.847
L290.133 333.764
L290.225 333.609
L290.332 333.501
L290.435 333.328
L290.529 333.22
L290.624 333.099
L290.737 332.989
L290.834 332.849
L290.938 332.768
L291.049 332.561
L291.145 332.451
L291.255 332.261
L291.337 332.151
L291.439 331.998
L291.519 331.906
L291.628 331.711
L291.704 331.612
L291.814 331.413
L291.897 331.317
L291.997 331.109
L292.075 330.998
L292.176 330.792
L292.237 330.718
L292.337 330.491
L292.4 330.392
L292.505 330.168
L292.56 330.06
L292.657 329.865
L292.73 329.757
L292.836 329.537
L292.915 329.435
L293.017 329.233
L293.085 329.135
L293.189 328.937
L293.254 328.861
L293.364 328.601
L293.431 328.516
L293.542 328.26
L293.601 328.154
L293.674 328.009
L293.819 327.9
L293.819 327.726
L293.93 327.726
L294.024 327.341
L294.115 327.341
L294.212 326.97
L294.309 326.97
L294.411 326.615
L294.518 326.615
L294.62 326.301
L294.715 326.301
L294.818 325.989
L294.904 325.989
L294.994 325.705
L295.106 325.705
L295.203 325.452
L295.388 325.362
L295.499 325.152
L295.681 325.055
L295.786 324.819
L295.877 324.819
L295.977 324.56
L296.075 324.56
L296.17 324.298
L296.269 324.298
L296.371 324.066
L296.587 323.955
L296.662 323.773
L296.867 323.67
L296.963 323.492
L297.16 323.433
L297.249 323.28
L297.449 323.18
L297.56 322.955
L297.766 322.885
L297.838 322.74
L298.039 322.651
L298.13 322.506
L298.332 322.424
L298.429 322.282
L298.636 322.197
L298.719 322.006
L298.921 321.902
L299.011 321.686
L299.207 321.593
L299.306 321.449
L299.6 321.342
L299.699 321.228
L299.906 321.158
L299.999 321.037
L300.189 320.95
L300.286 320.761
L300.483 320.674
L300.582 320.521
L300.793 320.454
L300.886 320.299
L301.08 320.235
L301.168 320.112
L301.47 320.014
L301.574 319.877
L301.763 319.798
L301.855 319.615
L302.05 319.513
L302.154 319.332
L302.345 319.251
L302.455 319.083
L302.65 319.002
L302.749 318.808
L302.942 318.702
L303.033 318.469
L303.231 318.361
L303.332 318.188
L303.524 318.119
L303.62 317.976
L303.819 317.893
L303.917 317.697
L304.017 317.697
L304.11 317.439
L304.211 317.439
L304.211 317.306
L304.323 317.306
L304.401 317.088
L304.632 316.993
L304.697 316.778
L304.797 316.778
L304.891 316.546
L304.994 316.546
L305.101 316.32
L305.287 316.233
L305.381 316.043
L305.582 315.933
L305.681 315.755
L305.874 315.667
L305.97 315.521
L306.181 315.428
L306.265 315.26
L306.464 315.172
L306.558 314.976
L306.76 314.876
L306.853 314.671
L306.953 314.671
L307.051 314.449
L307.146 314.449
L307.247 314.192
L307.346 314.192
L307.443 313.968
L307.637 313.861
L307.74 313.714
L307.929 313.65
L308.03 313.521
L308.228 313.446
L308.323 313.273
L308.427 313.273
L308.526 313.03
L308.617 313.03
L308.718 312.771
L308.822 312.771
L308.914 312.484
L309.018 312.484
L309.106 312.184
L309.209 312.184
L309.305 311.883
L309.407 311.883
L309.502 311.602
L309.6 311.602
L309.701 311.295
L309.791 311.295
L309.901 311.035
L310.088 310.94
L310.187 310.722
L310.313 310.722
L310.382 310.51
L310.583 310.404
L310.675 310.207
L310.776 310.207
L310.883 309.953
L310.972 309.953
L311.067 309.699
L311.165 309.699
L311.268 309.434
L311.363 309.434
L311.457 309.192
L311.558 309.192
L311.665 308.912
L311.762 308.912
L311.851 308.676
L311.949 308.676
L312.047 308.425
L312.147 308.425
L312.246 308.161
L312.342 308.161
L312.448 307.9
L312.636 307.79
L312.736 307.584
L312.927 307.494
L313.03 307.307
L313.221 307.233
L313.321 307.091
L313.522 307.017
L313.614 306.865
L313.812 306.776
L313.907 306.62
L314.111 306.557
L314.204 306.449
L314.4 306.396
L314.496 306.276
L314.694 306.217
L314.789 306.104
L314.989 306.02
L315.083 305.867
L315.287 305.788
L315.379 305.594
L315.48 305.594
L315.58 305.356
L315.676 305.356
L315.775 305.099
L315.868 305.099
L315.966 304.878
L316.167 304.77
L316.26 304.545
L316.362 304.545
L316.456 304.274
L316.556 304.274
L316.652 303.998
L316.757 303.998
L316.848 303.796
L316.952 303.796
L317.044 303.579
L317.244 303.47
L317.339 303.235
L317.441 303.235
L317.534 302.989
L317.635 302.989
L317.73 302.751
L317.829 302.751
L317.929 302.513
L318.123 302.403
L318.221 302.189
L318.323 302.189
L318.417 301.949
L318.514 301.949
L318.613 301.679
L318.717 301.679
L318.817 301.375
L318.91 301.375
L319.011 301.129
L319.204 301.02
L319.303 300.752
L319.395 300.752
L319.494 300.487
L319.602 300.487
L319.691 300.207
L319.789 300.207
L319.888 299.936
L319.986 299.936
L320.082 299.638
L320.182 299.638
L320.279 299.373
L320.377 299.373
L320.473 299.139
L320.571 299.139
L320.673 298.852
L320.769 298.852
L320.867 298.563
L320.966 298.563
L321.064 298.276
L321.164 298.276
L321.263 297.987
L321.357 297.987
L321.465 297.722
L321.557 297.722
L321.655 297.49
L321.845 297.387
L321.946 297.14
L322.042 297.14
L322.139 296.906
L322.238 296.906
L322.34 296.624
L322.438 296.624
L322.537 296.365
L322.633 296.365
L322.727 296.139
L322.923 296.028
L323.024 295.826
L323.122 295.826
L323.217 295.599
L323.318 295.599
L323.413 295.38
L323.611 295.287
L323.709 295.098
L323.903 295.014
L324.002 294.858
L324.198 294.785
L324.301 294.686
L324.591 294.611
L324.687 294.51
L324.981 294.405
L325.079 294.33
L325.373 294.253
L325.474 294.149
L325.865 294.056
L325.966 294.005
L326.354 293.895
L326.458 293.792
L326.745 293.702
L326.843 293.622
L327.138 293.525
L327.238 293.46
L327.528 293.387
L327.628 293.288
L328.224 293.184
L328.313 293.118
L328.607 293.035
L328.708 292.976
L329.1 292.877
L329.195 292.79
L329.391 292.734
L329.492 292.621
L329.785 292.542
L329.883 292.476
L330.175 292.393
L330.273 292.294
L330.567 292.227
L330.671 292.13
L330.96 292.034
L331.061 291.919
L331.354 291.826
L331.452 291.685
L331.645 291.6
L331.752 291.43
L331.938 291.365
L332.038 291.226
L332.334 291.133
L332.429 290.997
L332.626 290.921
L332.723 290.804
L333.019 290.695
L333.115 290.553
L333.312 290.483
L333.41 290.342
L333.605 290.277
L333.702 290.152
L333.997 290.056
L334.095 289.99
L334.389 289.89
L334.487 289.784
L334.782 289.681
L334.882 289.576
L335.173 289.488
L335.272 289.404
L335.665 289.315
L335.761 289.283
L336.351 289.175
L336.447 289.135
L336.939 289.031
L337.034 288.976
L337.723 288.892
L337.818 288.826
L338.113 288.742
L338.212 288.644
L338.505 288.546
L338.602 288.418
L338.799 288.336
L338.897 288.159
L339.093 288.071
L339.193 287.926
L339.388 287.843
L339.485 287.659
L339.68 287.552
L339.778 287.38
L339.978 287.296
L340.074 287.124
L340.27 287.057
L340.366 286.919
L340.57 286.849
L340.662 286.686
L340.856 286.588
L340.954 286.401
L341.153 286.315
L341.249 286.124
L341.448 286.013
L341.542 285.801
L341.738 285.695
L341.837 285.487
L342.032 285.407
L342.131 285.247
L342.326 285.157
L342.425 284.967
L342.62 284.861
L342.719 284.649
L342.916 284.544
L343.013 284.332
L343.111 284.332
L343.209 284.108
L343.315 284.108
L343.406 283.886
L343.601 283.782
L343.7 283.589
L343.895 283.5
L343.993 283.32
L344.189 283.229
L344.286 283.067
L344.482 282.988
L344.58 282.839
L344.777 282.743
L344.875 282.523
L345.071 282.433
L345.17 282.286
L345.366 282.213
L345.466 282.033
L345.659 281.933
L345.756 281.761
L345.952 281.673
L346.05 281.526
L346.246 281.44
L346.347 281.279
L346.543 281.199
L346.638 281.047
L346.835 280.975
L346.939 280.803
L347.129 280.72
L347.228 280.517
L347.423 280.413
L347.52 280.225
L347.716 280.138
L347.815 279.955
L348.012 279.86
L348.108 279.691
L348.304 279.588
L348.402 279.368
L348.502 279.368
L348.598 279.136
L348.698 279.136
L348.794 278.889
L348.893 278.889
L348.993 278.622
L349.088 278.622
L349.187 278.326
L349.284 278.326
L349.384 278.01
L349.48 278.01
L349.578 277.703
L349.677 277.703
L349.775 277.4
L349.873 277.4
L349.97 277.081
L350.069 277.081
L350.166 276.744
L350.266 276.744
L350.362 276.423
L350.461 276.423
L350.558 276.112
L350.657 276.112
L350.754 275.842
L350.852 275.842
L350.95 275.581
L351.048 275.581
L351.146 275.338
L351.244 275.338
L351.343 275.112
L351.441 275.112
L351.538 274.877
L351.637 274.877
L351.734 274.624
L351.832 274.624
L351.93 274.371
L352.03 274.371
L352.129 274.149
L352.226 274.149
L352.324 273.918
L352.52 273.808
L352.616 273.601
L352.812 273.528
L352.91 273.368
L353.108 273.288
L353.206 273.105
L353.402 273.025
L353.498 272.859
L353.694 272.78
L353.792 272.644
L354.086 272.537
L354.186 272.442
L354.381 272.383
L354.478 272.247
L354.674 272.18
L354.772 272.042
L355.066 271.961
L355.165 271.871
L355.361 271.815
L355.459 271.704
L355.752 271.6
L355.85 271.488
L356.144 271.393
L356.243 271.282
L356.438 271.22
L356.536 271.061
L356.732 270.978
L356.831 270.843
L357.026 270.775
L357.125 270.611
L357.32 270.533
L357.418 270.406
L357.615 270.319
L357.712 270.185
L357.908 270.118
L358.006 269.977
L358.204 269.896
L358.3 269.769
L359.183 269.671
L359.281 269.627
L359.868 269.529
L359.966 269.497
L361.339 269.394
L361.436 269.349
L363.494 269.249
L363.592 269.187
L364.67 269.082
L364.767 269.031
L365.161 268.95
L365.258 268.893
L365.65 268.809
L365.748 268.737
L366.043 268.66
L366.14 268.592
L366.531 268.508
L366.63 268.443
L366.925 268.357
L367.022 268.259
L367.218 268.197
L367.316 268.089
L367.61 267.997
L367.708 267.872
L367.903 267.801
L368.002 267.661
L368.198 267.576
L368.296 267.411
L368.492 267.327
L368.589 267.134
L368.785 267.026
L368.884 266.836
L369.079 266.743
L369.178 266.578
L369.374 266.498
L369.472 266.316
L369.667 266.227
L369.765 266.045
L369.962 265.948
L370.06 265.751
L370.256 265.656
L370.354 265.439
L370.55 265.349
L370.648 265.152
L370.746 265.152
L370.843 264.887
L370.942 264.887
L371.039 264.645
L371.138 264.645
L371.236 264.436
L371.431 264.333
L371.529 264.104
L371.627 264.104
L371.725 263.855
L371.823 263.855
L371.922 263.642
L372.118 263.546
L372.216 263.33
L372.412 263.228
L372.51 263.033
L372.705 262.935
L372.803 262.775
L373 262.7
L373.097 262.574
L373.294 262.499
L373.392 262.355
L373.588 262.289
L373.685 262.178
L373.881 262.117
L373.979 262
L374.175 261.934
L374.273 261.802
L374.567 261.712
L374.665 261.656
L375.939 261.548
L376.038 261.503
L377.018 261.393
L377.115 261.353
L378.193 261.446
L378.292 261.518
L378.585 261.598
L378.683 261.678
L379.075 261.786
L379.173 261.865
L379.467 261.952
L379.565 262.076
L379.761 262.14
L379.859 262.281
L380.055 262.355
L380.153 262.501
L380.349 262.57
L380.448 262.695
L380.643 262.763
L380.741 262.932
L380.938 263.01
L381.035 263.156
L381.231 263.231
L381.329 263.4
L381.526 263.486
L381.623 263.649
L381.819 263.721
L381.917 263.843
L382.211 263.943
L382.309 264.076
L382.505 264.141
L382.604 264.259
L382.897 264.363
L382.995 264.446
L383.387 264.549
L383.486 264.604
L384.269 264.71
L384.367 264.739
L385.053 264.848
L385.151 264.869
L385.74 264.98
L385.837 265.05
L386.327 265.161
L386.425 265.221
L386.817 265.299
L386.916 265.399
L387.209 265.489
L387.307 265.593
L387.601 265.694
L387.699 265.815
L387.895 265.885
L387.993 266.019
L388.189 266.093
L388.287 266.24
L388.483 266.31
L388.581 266.462
L388.777 266.551
L388.876 266.724
L389.072 266.811
L389.169 266.991
L389.365 267.076
L389.463 267.255
L389.659 267.342
L389.757 267.532
L389.953 267.63
L390.051 267.834
L390.247 267.942
L390.345 268.175
L390.443 268.175
L390.541 268.444
L390.639 268.444
L390.738 268.728
L390.835 268.728
L390.933 268.996
L391.129 269.105
L391.227 269.301
L391.423 269.387
L391.521 269.558
L391.717 269.635
L391.815 269.792
L392.011 269.876
L392.109 270.045
L392.305 270.125
L392.403 270.253
L392.893 270.351
L392.991 270.407
L393.383 270.502
L393.481 270.531
L395.539 270.627
L395.637 270.67
L396.715 270.78
L396.813 270.835
L397.205 270.934
L397.303 271.015
L399.165 271.122
L399.165 271.128
L399.263 271.126
L401.909 271.23
L402.007 271.286
L402.398 271.389
L402.497 271.432
L403.085 271.53
L403.183 271.567
L403.574 271.647
L403.672 271.702
L404.653 271.797
L404.751 271.825
L406.416 271.731
L406.514 271.677
L407.592 271.577
L407.69 271.512
L407.984 271.442
L408.082 271.35
L408.376 271.256
L408.474 271.139
L408.768 271.035
L408.866 270.933
L409.063 270.87
L409.16 270.745
L409.454 270.654
L409.553 270.566
L409.847 270.48
L409.944 270.382
L410.238 270.276
L410.336 270.201
L410.63 270.125
L410.729 270.03
L411.022 269.958
L411.12 269.867
L411.414 269.785
L411.513 269.714
L411.806 269.636
L411.904 269.57
L412.297 269.462
L412.394 269.383
L412.688 269.291
L412.786 269.228
L414.55 269.329
L414.648 269.361
L415.53 269.464
L415.628 269.493
L417.098 269.401
L417.196 269.326
L417.588 269.218
L417.686 269.159
L418.078 269.055
L418.176 269.027
L418.764 268.925
L418.862 268.886
L419.352 268.802
L419.45 268.747
L419.842 268.662
L419.94 268.599
L420.234 268.504
L420.332 268.416
L420.626 268.336
L420.724 268.265
L421.214 268.162
L421.312 268.108
L421.704 268.028
L421.802 267.959
L422.096 267.866
L422.194 267.781
L422.488 267.686
L422.586 267.579
L422.978 267.48
L423.076 267.436
L423.468 267.343
L423.566 267.273
L423.86 267.166
L423.958 267.019
L424.154 266.937
L424.252 266.748
L424.448 266.638
L424.546 266.413
L424.742 266.32
L424.84 266.14
L425.036 266.055
L425.134 265.9
L425.33 265.826
L425.428 265.664
L425.624 265.577
L425.722 265.406
L425.918 265.324
L426.016 265.149
L426.212 265.064
L426.31 264.889
L426.506 264.801
L426.604 264.613
L426.8 264.525
L426.898 264.352
L427.094 264.255
L427.192 264.095
L427.388 264.018
L427.486 263.866
L427.682 263.803
L427.78 263.704
L428.662 263.604
L428.662 263.589
L428.76 263.59
L429.544 263.495
L429.642 263.422
L430.034 263.337
L430.132 263.262
L431.994 263.372
L432.092 263.4
L432.582 263.499
L432.68 263.54
L433.562 263.645
L433.66 263.668
L434.248 263.756
L434.346 263.829
L434.738 263.918
L434.836 263.954
L437.286 263.855
L437.384 263.817
L437.874 263.727
L437.972 263.676
L438.364 263.573
L438.462 263.49
L438.756 263.387
L438.854 263.298
L439.148 263.22
L439.246 263.153
L439.638 263.044
L439.736 262.984
L440.226 262.876
L440.324 262.795
L440.716 262.695
L440.814 262.637
L441.206 262.531
L441.304 262.424
L441.499 262.364
L441.597 262.241
L441.794 262.184
L441.892 262.059
L442.087 261.99
L442.186 261.851
L442.381 261.784
L442.479 261.677
L442.773 261.58
L442.871 261.471
L443.165 261.361
L443.263 261.227
L443.459 261.15
L443.557 261
L443.753 260.912
L443.851 260.719
L443.949 260.719
L444.047 260.507
L444.243 260.407
L444.341 260.185
L444.537 260.077
L444.635 259.881
L444.831 259.775
L444.929 259.558
L445.125 259.455
L445.223 259.235
L445.419 259.129
L445.517 258.898
L445.615 258.898
L445.713 258.671
L445.811 258.671
L445.909 258.419
L446.007 258.419
L446.105 258.181
L446.301 258.07
L446.399 257.858
L446.595 257.76
L446.693 257.615
L446.889 257.55
L446.987 257.416
L447.183 257.351
L447.281 257.225
L447.575 257.126
L447.673 257.034
L448.163 256.929
L448.261 256.912
L449.927 257.012
L450.025 257.031
L451.495 257.134
L451.593 257.156
L452.573 257.267
L452.671 257.345
L452.965 257.426
L453.063 257.494
L453.945 257.579
L454.043 257.623
L455.023 257.725
L455.121 257.765
L455.709 257.867
L455.807 257.896
L457.669 258
L457.767 258.022
L459.335 257.94
L459.433 257.883
L459.825 257.808
L459.923 257.726
L460.413 257.628
L460.511 257.567
L460.903 257.462
L461.001 257.395
L461.491 257.288
L461.589 257.232
L461.981 257.137
L462.079 257.08
L463.157 256.98
L463.255 256.943
L463.843 256.854
L463.941 256.785
L464.235 256.713
L464.333 256.623
L464.627 256.543
L464.725 256.471
L465.117 256.373
L465.215 256.287
L465.509 256.192
L465.607 256.108
L465.901 256.034
L465.999 255.957
L466.293 255.885
L466.391 255.8
L466.783 255.714
L466.881 255.657
L467.273 255.552
L467.371 255.467
L467.665 255.384
L467.763 255.256
L467.959 255.19
L468.057 255.067
L468.253 255.006
L468.351 254.873
L468.547 254.802
L468.645 254.68
L468.841 254.616
L468.939 254.489
L469.233 254.403
L469.331 254.352
L469.723 254.277
L469.821 254.211
L470.115 254.13
L470.213 254.045
L470.507 253.951
L470.605 253.84
L470.997 253.742
L471.095 253.671
L471.389 253.588
L471.487 253.484
L471.683 253.432
L471.781 253.31
L471.977 253.249
L472.075 253.127
L472.271 253.072
L472.369 252.957
L472.565 252.904
L472.663 252.794
L472.957 252.687
L473.055 252.568
L473.349 252.474
L473.447 252.389
L473.741 252.284
L473.839 252.158
L474.035 252.092
L474.133 251.953
L474.329 251.889
L474.427 251.735
L474.623 251.646
L474.721 251.49
L474.917 251.425
L475.015 251.299
L475.211 251.237
L475.309 251.111
L475.505 251.048
L475.603 250.912
L475.799 250.84
L475.897 250.697
L476.093 250.624
L476.191 250.474
L476.387 250.385
L476.485 250.217
L476.681 250.149
L476.779 250.006
L476.975 249.928
L477.073 249.788
L477.269 249.718
L477.367 249.577
L477.563 249.507
L477.661 249.356
L477.857 249.292
L477.955 249.158
L478.151 249.095
L478.249 248.957
L478.445 248.873
L478.543 248.73
L478.739 248.645
L478.837 248.468
L479.033 248.391
L479.131 248.241
L479.327 248.159
L479.425 247.995
L479.621 247.914
L479.719 247.757
L479.915 247.667
L480.013 247.489
L480.208 247.413
L480.307 247.261
L480.502 247.182
L480.6 247.027
L480.797 246.946
L480.894 246.782
L481.09 246.696
L481.188 246.516
L481.384 246.426
L481.482 246.244
L481.678 246.154
L481.776 245.965
L481.972 245.866
L482.07 245.663
L482.266 245.562
L482.364 245.341
L482.462 245.341
L482.56 245.09
L482.658 245.09
L482.756 244.827
L482.854 244.827
L482.952 244.575
L483.05 244.575
L483.148 244.339
L483.344 244.229
L483.442 244.002
L483.54 244.002
L483.638 243.759
L483.736 243.759
L483.834 243.504
L483.932 243.504
L484.03 243.233
L484.128 243.233
L484.226 242.97
L484.324 242.97
L484.422 242.702
L484.52 242.702
L484.618 242.415
L484.716 242.415
L484.814 242.121
L484.912 242.121
L485.01 241.857
L485.108 241.857
L485.206 241.613
L485.402 241.507
L485.5 241.307
L485.696 241.208
L485.794 240.981
L485.99 240.87
L486.088 240.661
L486.284 240.574
L486.382 240.408
L486.578 240.321
L486.676 240.166
L486.872 240.087
L486.97 239.911
L487.166 239.805
L487.264 239.598
L487.46 239.51
L487.558 239.326
L487.754 239.235
L487.852 239.057
L488.048 238.965
L488.146 238.788
L488.342 238.705
L488.44 238.535
L488.636 238.447
L488.734 238.258
L488.93 238.172
L489.028 237.979
L489.224 237.874
L489.322 237.685
L489.518 237.593
L489.616 237.417
L489.812 237.323
L489.91 237.143
L490.106 237.054
L490.204 236.866
L490.4 236.785
L490.498 236.635
L490.694 236.569
L490.792 236.435
L490.988 236.37
L491.086 236.228
L491.282 236.163
L491.38 236.034
L491.576 235.959
L491.674 235.804
L491.87 235.719
L491.968 235.545
L492.164 235.464
L492.262 235.292
L492.458 235.197
L492.556 235.023
L492.752 234.935
L492.85 234.75
L493.046 234.642
L493.144 234.417
L493.34 234.307
L493.438 234.088
L493.634 233.977
L493.732 233.771
L493.928 233.685
L494.026 233.518
L494.222 233.438
L494.32 233.293
L494.516 233.217
L494.614 233.077
L494.81 233.005
L494.908 232.865
L495.104 232.804
L495.202 232.671
L495.398 232.587
L495.496 232.415
L495.692 232.325
L495.79 232.157
L495.986 232.07
L496.084 231.895
L496.28 231.817
L496.378 231.639
L496.574 231.537
L496.672 231.339
L496.868 231.243
L496.966 231.057
L497.162 230.966
L497.26 230.78
L497.456 230.675
L497.554 230.477
L497.75 230.373
L497.848 230.177
L498.044 230.087
L498.142 229.89
L498.338 229.8
L498.436 229.617
L498.632 229.528
L498.73 229.359
L498.926 229.285
L499.024 229.119
L499.22 229.04
L499.318 228.883
L499.514 228.792
L499.612 228.611
L499.808 228.516
L499.906 228.301
L500.102 228.194
L500.2 228.003
L500.396 227.914
L500.494 227.738
L500.69 227.645
L500.788 227.47
L500.984 227.388
L501.082 227.243
L501.278 227.181
L501.376 227.076
L501.67 226.967
L501.768 226.852
L501.964 226.786
L502.062 226.615
L502.258 226.522
L502.356 226.322
L502.552 226.231
L502.65 226.056
L502.846 225.971
L502.944 225.791
L503.14 225.708
L503.238 225.535
L503.434 225.454
L503.532 225.308
L503.728 225.238
L503.826 225.097
L504.022 225.031
L504.12 224.919
L504.414 224.814
L504.512 224.694
L504.708 224.63
L504.806 224.524
L505.1 224.416
L505.198 224.279
L505.394 224.202
L505.492 224.047
L505.688 223.967
L505.786 223.795
L505.982 223.71
L506.08 223.544
L506.276 223.455
L506.374 223.301
L506.57 223.236
L506.668 223.113
L506.864 223.048
L506.962 222.944
L507.158 222.892
L507.256 222.77
L507.452 222.713
L507.55 222.586
L507.844 222.477
L507.942 222.358
L508.138 222.299
L508.236 222.193
L508.53 222.104
L508.628 221.995
L508.922 221.906
L509.02 221.837
L509.314 221.759
L509.412 221.688
L509.804 221.584
L509.902 221.504
L510.294 221.412
L510.392 221.351
L511.666 221.26
L511.764 221.213
L512.156 221.114
L512.254 221.017
L512.548 220.926
L512.646 220.815
L512.94 220.709
L513.038 220.555
L513.234 220.466
L513.332 220.282
L513.528 220.195
L513.626 220.036
L513.822 219.947
L513.92 219.778
L514.116 219.69
L514.214 219.49
L514.41 219.385
L514.508 219.186
L514.704 219.088
L514.802 218.912
L514.998 218.825
L515.096 218.651
L515.292 218.568
L515.39 218.415
L515.586 218.348
L515.684 218.226
L515.978 218.125
L516.076 218.031
L516.37 217.929
L516.468 217.819
L516.762 217.721
L516.86 217.63
L517.154 217.52
L517.252 217.413
L517.546 217.308
L517.644 217.217
L518.036 217.112
L518.134 217.057
L518.624 216.965
L518.722 216.911
L519.114 216.815
L519.212 216.768
L519.799 216.669
L519.897 216.627
L521.465 216.525
L521.563 216.478
L522.053 216.372
L522.151 216.283
L522.445 216.187
L522.543 216.108
L523.033 216.005
L523.131 215.963
L523.719 215.861
L523.817 215.83
L524.601 215.735
L524.699 215.696
L525.189 215.597
L525.287 215.548
L526.463 215.632
L526.561 215.687
L527.247 215.79
L527.345 215.829
L529.403 215.731
L529.501 215.707
L530.579 215.815
L530.677 215.866
L531.069 215.951
L531.167 216.025
L531.657 216.129
L531.755 216.159
L532.245 216.248
L532.343 216.317
L532.833 216.412
L532.931 216.467
L533.421 216.569
L533.519 216.632
L534.107 216.729
L534.205 216.764
L534.695 216.867
L534.793 216.924
L535.185 217.002
L535.283 217.072
L535.675 217.161
L535.773 217.21
L536.263 217.299
L536.361 217.381
L536.655 217.457
L536.753 217.539
L537.047 217.618
L537.145 217.702
L537.537 217.805
L537.635 217.875
L537.929 217.964
L538.027 218.067
L538.321 218.173
L538.419 218.281
L538.713 218.384
L538.811 218.526
L539.007 218.6
L539.105 218.73
L539.301 218.801
L539.399 218.929
L539.595 218.989
L539.693 219.103
L539.889 219.16
L539.987 219.295
L540.183 219.36
L540.281 219.464
L540.575 219.553
L540.673 219.623
L541.065 219.733
L541.163 219.8
L541.653 219.894
L541.751 219.928
L542.241 220.026
L542.339 220.099
L542.633 220.194
L542.731 220.312
L542.927 220.375
L543.025 220.504
L543.221 220.568
L543.319 220.692
L543.613 220.797
L543.711 220.894
L544.005 220.982
L544.103 221.069
L544.397 221.178
L544.495 221.278
L544.789 221.366
L544.887 221.457
L545.279 221.554
L545.377 221.601
L546.063 221.691
L546.161 221.728
L546.651 221.824
L546.749 221.878
L547.827 221.894
L547.827 221.879" style="fill:none;stroke:#0000ff;stroke-width:5.0;"/>
   </g>
   <g id="matplotlib.axis_1">
    <g id="xtick_1">
     <g id="line2d_2">
      <path d="
M176.061 412.239
L176.061 8.51291" style="fill:none;stroke:#000000;stroke-dasharray:1.000000,3.000000;stroke-dashoffset:0.0;stroke-linecap:butt;stroke-width:0.5;"/>
     </g>
     <g id="line2d_3">
      <defs>
       <path d="
M0 0
L0 -4" id="m3fbe6c24f1"/>
      </defs>
      <g>
       <use style="stroke:#000000;stroke-linecap:butt;stroke-width:0.5;" x="176.060832577" xlink:href="#m3fbe6c24f1" y="16.276875"/>
      </g>
     </g>
     <g id="text_1">
      <!-- 5 -->
      <defs>
       <path d="
M10.7969 72.9062
L49.5156 72.9062
L49.5156 64.5938
L19.8281 64.5938
L19.8281 46.7344
Q21.9688 47.4688 24.1094 47.8281
Q26.2656 48.1875 28.4219 48.1875
Q40.625 48.1875 47.75 41.5
Q54.8906 34.8125 54.8906 23.3906
Q54.8906 11.625 47.5625 5.09375
Q40.2344 -1.42188 26.9062 -1.42188
Q22.3125 -1.42188 17.5469 -0.640625
Q12.7969 0.140625 7.71875 1.70312
L7.71875 11.625
Q12.1094 9.23438 16.7969 8.0625
Q21.4844 6.89062 26.7031 6.89062
Q35.1562 6.89062 40.0781 11.3281
Q45.0156 15.7656 45.0156 23.3906
Q45.0156 31 40.0781 35.4375
Q35.1562 39.8906 26.7031 39.8906
Q22.75 39.8906 18.8125 39.0156
Q14.8906 38.1406 10.7969 36.2812
z
" id="BitstreamVeraSans-Roman-35"/>
      </defs>
      <g transform="translate(170.400207577 37.774375)scale(0.24 -0.24)">
       <use xlink:href="#BitstreamVeraSans-Roman-35"/>
      </g>
     </g>
    </g>
    <g id="xtick_2">
     <g id="line2d_4">
      <path d="
M294.282 412.239
L294.282 8.51291" style="fill:none;stroke:#000000;stroke-dasharray:1.000000,3.000000;stroke-dashoffset:0.0;stroke-linecap:butt;stroke-width:0.5;"/>
     </g>
     <g id="line2d_5">
      <defs>
       <path d="
M0 0
L0 -4" id="m3fbe6c24f1"/>
      </defs>
      <g>
       <use style="stroke:#000000;stroke-linecap:butt;stroke-width:0.5;" x="294.282438576" xlink:href="#m3fbe6c24f1" y="16.276875"/>
      </g>
     </g>
     <g id="text_2">
      <!-- 10 -->
      <defs>
       <path d="
M31.7812 66.4062
Q24.1719 66.4062 20.3281 58.9062
Q16.5 51.4219 16.5 36.375
Q16.5 21.3906 20.3281 13.8906
Q24.1719 6.39062 31.7812 6.39062
Q39.4531 6.39062 43.2812 13.8906
Q47.125 21.3906 47.125 36.375
Q47.125 51.4219 43.2812 58.9062
Q39.4531 66.4062 31.7812 66.4062
M31.7812 74.2188
Q44.0469 74.2188 50.5156 64.5156
Q56.9844 54.8281 56.9844 36.375
Q56.9844 17.9688 50.5156 8.26562
Q44.0469 -1.42188 31.7812 -1.42188
Q19.5312 -1.42188 13.0625 8.26562
Q6.59375 17.9688 6.59375 36.375
Q6.59375 54.8281 13.0625 64.5156
Q19.5312 74.2188 31.7812 74.2188" id="BitstreamVeraSans-Roman-30"/>
       <path d="
M12.4062 8.29688
L28.5156 8.29688
L28.5156 63.9219
L10.9844 60.4062
L10.9844 69.3906
L28.4219 72.9062
L38.2812 72.9062
L38.2812 8.29688
L54.3906 8.29688
L54.3906 0
L12.4062 0
z
" id="BitstreamVeraSans-Roman-31"/>
      </defs>
      <g transform="translate(281.127438576 38.089375)scale(0.24 -0.24)">
       <use xlink:href="#BitstreamVeraSans-Roman-31"/>
       <use x="63.623046875" xlink:href="#BitstreamVeraSans-Roman-30"/>
      </g>
     </g>
    </g>
    <g id="xtick_3">
     <g id="line2d_6">
      <path d="
M412.504 412.239
L412.504 8.51291" style="fill:none;stroke:#000000;stroke-dasharray:1.000000,3.000000;stroke-dashoffset:0.0;stroke-linecap:butt;stroke-width:0.5;"/>
     </g>
     <g id="line2d_7">
      <defs>
       <path d="
M0 0
L0 -4" id="m3fbe6c24f1"/>
      </defs>
      <g>
       <use style="stroke:#000000;stroke-linecap:butt;stroke-width:0.5;" x="412.504044575" xlink:href="#m3fbe6c24f1" y="16.276875"/>
      </g>
     </g>
     <g id="text_3">
      <!-- 15 -->
      <g transform="translate(399.600294575 37.774375)scale(0.24 -0.24)">
       <use xlink:href="#BitstreamVeraSans-Roman-31"/>
       <use x="63.623046875" xlink:href="#BitstreamVeraSans-Roman-35"/>
      </g>
     </g>
    </g>
    <g id="xtick_4">
     <g id="line2d_8">
      <path d="
M530.726 412.239
L530.726 8.51291" style="fill:none;stroke:#000000;stroke-dasharray:1.000000,3.000000;stroke-dashoffset:0.0;stroke-linecap:butt;stroke-width:0.5;"/>
     </g>
     <g id="line2d_9">
      <defs>
       <path d="
M0 0
L0 -4" id="m3fbe6c24f1"/>
      </defs>
      <g>
       <use style="stroke:#000000;stroke-linecap:butt;stroke-width:0.5;" x="530.725650574" xlink:href="#m3fbe6c24f1" y="16.276875"/>
      </g>
     </g>
     <g id="text_4">
      <!-- 20 -->
      <defs>
       <path d="
M19.1875 8.29688
L53.6094 8.29688
L53.6094 0
L7.32812 0
L7.32812 8.29688
Q12.9375 14.1094 22.625 23.8906
Q32.3281 33.6875 34.8125 36.5312
Q39.5469 41.8438 41.4219 45.5312
Q43.3125 49.2188 43.3125 52.7812
Q43.3125 58.5938 39.2344 62.25
Q35.1562 65.9219 28.6094 65.9219
Q23.9688 65.9219 18.8125 64.3125
Q13.6719 62.7031 7.8125 59.4219
L7.8125 69.3906
Q13.7656 71.7812 18.9375 73
Q24.125 74.2188 28.4219 74.2188
Q39.75 74.2188 46.4844 68.5469
Q53.2188 62.8906 53.2188 53.4219
Q53.2188 48.9219 51.5312 44.8906
Q49.8594 40.875 45.4062 35.4062
Q44.1875 33.9844 37.6406 27.2188
Q31.1094 20.4531 19.1875 8.29688" id="BitstreamVeraSans-Roman-32"/>
      </defs>
      <g transform="translate(517.131900574 38.089375)scale(0.24 -0.24)">
       <use xlink:href="#BitstreamVeraSans-Roman-32"/>
       <use x="63.623046875" xlink:href="#BitstreamVeraSans-Roman-30"/>
      </g>
     </g>
    </g>
    <g id="xtick_5">
     <g id="line2d_10">
      <defs>
       <path d="
M0 0
L0 -2" id="mf0ff38ea95"/>
      </defs>
      <g>
       <use style="stroke:#000000;stroke-linecap:butt;stroke-width:0.5;" x="81.4835477778" xlink:href="#mf0ff38ea95" y="16.276875"/>
      </g>
     </g>
    </g>
    <g id="xtick_6">
     <g id="line2d_11">
      <defs>
       <path d="
M0 0
L0 -2" id="mf0ff38ea95"/>
      </defs>
      <g>
       <use style="stroke:#000000;stroke-linecap:butt;stroke-width:0.5;" x="105.127868978" xlink:href="#mf0ff38ea95" y="16.276875"/>
      </g>
     </g>
    </g>
    <g id="xtick_7">
     <g id="line2d_12">
      <defs>
       <path d="
M0 0
L0 -2" id="mf0ff38ea95"/>
      </defs>
      <g>
       <use style="stroke:#000000;stroke-linecap:butt;stroke-width:0.5;" x="128.772190177" xlink:href="#mf0ff38ea95" y="16.276875"/>
      </g>
     </g>
    </g>
    <g id="xtick_8">
     <g id="line2d_13">
      <defs>
       <path d="
M0 0
L0 -2" id="mf0ff38ea95"/>
      </defs>
      <g>
       <use style="stroke:#000000;stroke-linecap:butt;stroke-width:0.5;" x="152.416511377" xlink:href="#mf0ff38ea95" y="16.276875"/>
      </g>
     </g>
    </g>
    <g id="xtick_9">
     <g id="line2d_14">
      <defs>
       <path d="
M0 0
L0 -2" id="mf0ff38ea95"/>
      </defs>
      <g>
       <use style="stroke:#000000;stroke-linecap:butt;stroke-width:0.5;" x="199.705153777" xlink:href="#mf0ff38ea95" y="16.276875"/>
      </g>
     </g>
    </g>
    <g id="xtick_10">
     <g id="line2d_15">
      <defs>
       <path d="
M0 0
L0 -2" id="mf0ff38ea95"/>
      </defs>
      <g>
       <use style="stroke:#000000;stroke-linecap:butt;stroke-width:0.5;" x="223.349474977" xlink:href="#mf0ff38ea95" y="16.276875"/>
      </g>
     </g>
    </g>
    <g id="xtick_11">
     <g id="line2d_16">
      <defs>
       <path d="
M0 0
L0 -2" id="mf0ff38ea95"/>
      </defs>
      <g>
       <use style="stroke:#000000;stroke-linecap:butt;stroke-width:0.5;" x="246.993796176" xlink:href="#mf0ff38ea95" y="16.276875"/>
      </g>
     </g>
    </g>
    <g id="xtick_12">
     <g id="line2d_17">
      <defs>
       <path d="
M0 0
L0 -2" id="mf0ff38ea95"/>
      </defs>
      <g>
       <use style="stroke:#000000;stroke-linecap:butt;stroke-width:0.5;" x="270.638117376" xlink:href="#mf0ff38ea95" y="16.276875"/>
      </g>
     </g>
    </g>
    <g id="xtick_13">
     <g id="line2d_18">
      <defs>
       <path d="
M0 0
L0 -2" id="mf0ff38ea95"/>
      </defs>
      <g>
       <use style="stroke:#000000;stroke-linecap:butt;stroke-width:0.5;" x="317.926759776" xlink:href="#mf0ff38ea95" y="16.276875"/>
      </g>
     </g>
    </g>
    <g id="xtick_14">
     <g id="line2d_19">
      <defs>
       <path d="
M0 0
L0 -2" id="mf0ff38ea95"/>
      </defs>
      <g>
       <use style="stroke:#000000;stroke-linecap:butt;stroke-width:0.5;" x="341.571080976" xlink:href="#mf0ff38ea95" y="16.276875"/>
      </g>
     </g>
    </g>
    <g id="xtick_15">
     <g id="line2d_20">
      <defs>
       <path d="
M0 0
L0 -2" id="mf0ff38ea95"/>
      </defs>
      <g>
       <use style="stroke:#000000;stroke-linecap:butt;stroke-width:0.5;" x="365.215402175" xlink:href="#mf0ff38ea95" y="16.276875"/>
      </g>
     </g>
    </g>
    <g id="xtick_16">
     <g id="line2d_21">
      <defs>
       <path d="
M0 0
L0 -2" id="mf0ff38ea95"/>
      </defs>
      <g>
       <use style="stroke:#000000;stroke-linecap:butt;stroke-width:0.5;" x="388.859723375" xlink:href="#mf0ff38ea95" y="16.276875"/>
      </g>
     </g>
    </g>
    <g id="xtick_17">
     <g id="line2d_22">
      <defs>
       <path d="
M0 0
L0 -2" id="mf0ff38ea95"/>
      </defs>
      <g>
       <use style="stroke:#000000;stroke-linecap:butt;stroke-width:0.5;" x="436.148365775" xlink:href="#mf0ff38ea95" y="16.276875"/>
      </g>
     </g>
    </g>
    <g id="xtick_18">
     <g id="line2d_23">
      <defs>
       <path d="
M0 0
L0 -2" id="mf0ff38ea95"/>
      </defs>
      <g>
       <use style="stroke:#000000;stroke-linecap:butt;stroke-width:0.5;" x="459.792686975" xlink:href="#mf0ff38ea95" y="16.276875"/>
      </g>
     </g>
    </g>
    <g id="xtick_19">
     <g id="line2d_24">
      <defs>
       <path d="
M0 0
L0 -2" id="mf0ff38ea95"/>
      </defs>
      <g>
       <use style="stroke:#000000;stroke-linecap:butt;stroke-width:0.5;" x="483.437008175" xlink:href="#mf0ff38ea95" y="16.276875"/>
      </g>
     </g>
    </g>
    <g id="xtick_20">
     <g id="line2d_25">
      <defs>
       <path d="
M0 0
L0 -2" id="mf0ff38ea95"/>
      </defs>
      <g>
       <use style="stroke:#000000;stroke-linecap:butt;stroke-width:0.5;" x="507.081329374" xlink:href="#mf0ff38ea95" y="16.276875"/>
      </g>
     </g>
    </g>
   </g>
   <g id="matplotlib.axis_2">
    <g id="ytick_1">
     <g id="line2d_26">
      <path d="
M64.7562 380.403
L557.299 380.403" style="fill:none;stroke:#000000;stroke-dasharray:1.000000,3.000000;stroke-dashoffset:0.0;stroke-linecap:butt;stroke-width:0.5;"/>
     </g>
     <g id="line2d_27">
      <defs>
       <path d="
M0 0
L4 0" id="mc91e532072"/>
      </defs>
      <g>
       <use style="stroke:#000000;stroke-linecap:butt;stroke-width:0.5;" x="54.75625" xlink:href="#mc91e532072" y="380.403401495"/>
      </g>
     </g>
     <g id="text_5">
      <!-- -2.5 -->
      <defs>
       <path d="
M10.6875 12.4062
L21 12.4062
L21 0
L10.6875 0
z
" id="BitstreamVeraSans-Roman-2e"/>
       <path d="
M4.89062 31.3906
L31.2031 31.3906
L31.2031 23.3906
L4.89062 23.3906
z
" id="BitstreamVeraSans-Roman-2d"/>
      </defs>
      <g transform="translate(7.2 389.139026495)scale(0.24 -0.24)">
       <use xlink:href="#BitstreamVeraSans-Roman-2d"/>
       <use x="36.083984375" xlink:href="#BitstreamVeraSans-Roman-32"/>
       <use x="99.70703125" xlink:href="#BitstreamVeraSans-Roman-2e"/>
       <use x="131.494140625" xlink:href="#BitstreamVeraSans-Roman-35"/>
      </g>
     </g>
    </g>
    <g id="ytick_2">
     <g id="line2d_28">
      <path d="
M64.7562 307.578
L557.299 307.578" style="fill:none;stroke:#000000;stroke-dasharray:1.000000,3.000000;stroke-dashoffset:0.0;stroke-linecap:butt;stroke-width:0.5;"/>
     </g>
     <g id="line2d_29">
      <defs>
       <path d="
M0 0
L4 0" id="mc91e532072"/>
      </defs>
      <g>
       <use style="stroke:#000000;stroke-linecap:butt;stroke-width:0.5;" x="54.75625" xlink:href="#mc91e532072" y="307.578096196"/>
      </g>
     </g>
     <g id="text_6">
      <!-- -2 -->
      <g transform="translate(30.405 316.484346196)scale(0.24 -0.24)">
       <use xlink:href="#BitstreamVeraSans-Roman-2d"/>
       <use x="36.083984375" xlink:href="#BitstreamVeraSans-Roman-32"/>
      </g>
     </g>
    </g>
    <g id="ytick_3">
     <g id="line2d_30">
      <path d="
M64.7562 234.753
L557.299 234.753" style="fill:none;stroke:#000000;stroke-dasharray:1.000000,3.000000;stroke-dashoffset:0.0;stroke-linecap:butt;stroke-width:0.5;"/>
     </g>
     <g id="line2d_31">
      <defs>
       <path d="
M0 0
L4 0" id="mc91e532072"/>
      </defs>
      <g>
       <use style="stroke:#000000;stroke-linecap:butt;stroke-width:0.5;" x="54.75625" xlink:href="#mc91e532072" y="234.752790897"/>
      </g>
     </g>
     <g id="text_7">
      <!-- -1.5 -->
      <g transform="translate(7.2 243.330915897)scale(0.24 -0.24)">
       <use xlink:href="#BitstreamVeraSans-Roman-2d"/>
       <use x="36.083984375" xlink:href="#BitstreamVeraSans-Roman-31"/>
       <use x="99.70703125" xlink:href="#BitstreamVeraSans-Roman-2e"/>
       <use x="131.494140625" xlink:href="#BitstreamVeraSans-Roman-35"/>
      </g>
     </g>
    </g>
    <g id="ytick_4">
     <g id="line2d_32">
      <path d="
M64.7562 161.927
L557.299 161.927" style="fill:none;stroke:#000000;stroke-dasharray:1.000000,3.000000;stroke-dashoffset:0.0;stroke-linecap:butt;stroke-width:0.5;"/>
     </g>
     <g id="line2d_33">
      <defs>
       <path d="
M0 0
L4 0" id="mc91e532072"/>
      </defs>
      <g>
       <use style="stroke:#000000;stroke-linecap:butt;stroke-width:0.5;" x="54.75625" xlink:href="#mc91e532072" y="161.927485598"/>
      </g>
     </g>
     <g id="text_8">
      <!-- -1 -->
      <g transform="translate(30.2175 170.676235598)scale(0.24 -0.24)">
       <use xlink:href="#BitstreamVeraSans-Roman-2d"/>
       <use x="36.083984375" xlink:href="#BitstreamVeraSans-Roman-31"/>
      </g>
     </g>
    </g>
    <g id="ytick_5">
     <g id="line2d_34">
      <path d="
M64.7562 89.1022
L557.299 89.1022" style="fill:none;stroke:#000000;stroke-dasharray:1.000000,3.000000;stroke-dashoffset:0.0;stroke-linecap:butt;stroke-width:0.5;"/>
     </g>
     <g id="line2d_35">
      <defs>
       <path d="
M0 0
L4 0" id="mc91e532072"/>
      </defs>
      <g>
       <use style="stroke:#000000;stroke-linecap:butt;stroke-width:0.5;" x="54.75625" xlink:href="#mc91e532072" y="89.1021802991"/>
      </g>
     </g>
     <g id="text_9">
      <!-- -0.5 -->
      <g transform="translate(7.2 97.8378052991)scale(0.24 -0.24)">
       <use xlink:href="#BitstreamVeraSans-Roman-2d"/>
       <use x="36.083984375" xlink:href="#BitstreamVeraSans-Roman-30"/>
       <use x="99.70703125" xlink:href="#BitstreamVeraSans-Roman-2e"/>
       <use x="131.494140625" xlink:href="#BitstreamVeraSans-Roman-35"/>
      </g>
     </g>
    </g>
    <g id="ytick_6">
     <g id="line2d_36">
      <path d="
M64.7562 16.2769
L557.299 16.2769" style="fill:none;stroke:#000000;stroke-dasharray:1.000000,3.000000;stroke-dashoffset:0.0;stroke-linecap:butt;stroke-width:0.5;"/>
     </g>
     <g id="line2d_37">
      <defs>
       <path d="
M0 0
L4 0" id="mc91e532072"/>
      </defs>
      <g>
       <use style="stroke:#000000;stroke-linecap:butt;stroke-width:0.5;" x="54.75625" xlink:href="#mc91e532072" y="16.276875"/>
      </g>
     </g>
     <g id="text_10">
      <!-- 0 -->
      <g transform="translate(38.6625 25.0125)scale(0.24 -0.24)">
       <use xlink:href="#BitstreamVeraSans-Roman-30"/>
      </g>
     </g>
    </g>
    <g id="ytick_7">
     <g id="line2d_38">
      <defs>
       <path d="
M0 0
L2 0" id="m0789224b6b"/>
      </defs>
      <g>
       <use style="stroke:#000000;stroke-linecap:butt;stroke-width:0.5;" x="54.75625" xlink:href="#m0789224b6b" y="409.533523615"/>
      </g>
     </g>
    </g>
    <g id="ytick_8">
     <g id="line2d_39">
      <defs>
       <path d="
M0 0
L2 0" id="m0789224b6b"/>
      </defs>
      <g>
       <use style="stroke:#000000;stroke-linecap:butt;stroke-width:0.5;" x="54.75625" xlink:href="#m0789224b6b" y="394.968462555"/>
      </g>
     </g>
    </g>
    <g id="ytick_9">
     <g id="line2d_40">
      <defs>
       <path d="
M0 0
L2 0" id="m0789224b6b"/>
      </defs>
      <g>
       <use style="stroke:#000000;stroke-linecap:butt;stroke-width:0.5;" x="54.75625" xlink:href="#m0789224b6b" y="365.838340436"/>
      </g>
     </g>
    </g>
    <g id="ytick_10">
     <g id="line2d_41">
      <defs>
       <path d="
M0 0
L2 0" id="m0789224b6b"/>
      </defs>
      <g>
       <use style="stroke:#000000;stroke-linecap:butt;stroke-width:0.5;" x="54.75625" xlink:href="#m0789224b6b" y="351.273279376"/>
      </g>
     </g>
    </g>
    <g id="ytick_11">
     <g id="line2d_42">
      <defs>
       <path d="
M0 0
L2 0" id="m0789224b6b"/>
      </defs>
      <g>
       <use style="stroke:#000000;stroke-linecap:butt;stroke-width:0.5;" x="54.75625" xlink:href="#m0789224b6b" y="336.708218316"/>
      </g>
     </g>
    </g>
    <g id="ytick_12">
     <g id="line2d_43">
      <defs>
       <path d="
M0 0
L2 0" id="m0789224b6b"/>
      </defs>
      <g>
       <use style="stroke:#000000;stroke-linecap:butt;stroke-width:0.5;" x="54.75625" xlink:href="#m0789224b6b" y="322.143157256"/>
      </g>
     </g>
    </g>
    <g id="ytick_13">
     <g id="line2d_44">
      <defs>
       <path d="
M0 0
L2 0" id="m0789224b6b"/>
      </defs>
      <g>
       <use style="stroke:#000000;stroke-linecap:butt;stroke-width:0.5;" x="54.75625" xlink:href="#m0789224b6b" y="293.013035136"/>
      </g>
     </g>
    </g>
    <g id="ytick_14">
     <g id="line2d_45">
      <defs>
       <path d="
M0 0
L2 0" id="m0789224b6b"/>
      </defs>
      <g>
       <use style="stroke:#000000;stroke-linecap:butt;stroke-width:0.5;" x="54.75625" xlink:href="#m0789224b6b" y="278.447974077"/>
      </g>
     </g>
    </g>
    <g id="ytick_15">
     <g id="line2d_46">
      <defs>
       <path d="
M0 0
L2 0" id="m0789224b6b"/>
      </defs>
      <g>
       <use style="stroke:#000000;stroke-linecap:butt;stroke-width:0.5;" x="54.75625" xlink:href="#m0789224b6b" y="263.882913017"/>
      </g>
     </g>
    </g>
    <g id="ytick_16">
     <g id="line2d_47">
      <defs>
       <path d="
M0 0
L2 0" id="m0789224b6b"/>
      </defs>
      <g>
       <use style="stroke:#000000;stroke-linecap:butt;stroke-width:0.5;" x="54.75625" xlink:href="#m0789224b6b" y="249.317851957"/>
      </g>
     </g>
    </g>
    <g id="ytick_17">
     <g id="line2d_48">
      <defs>
       <path d="
M0 0
L2 0" id="m0789224b6b"/>
      </defs>
      <g>
       <use style="stroke:#000000;stroke-linecap:butt;stroke-width:0.5;" x="54.75625" xlink:href="#m0789224b6b" y="234.752790897"/>
      </g>
     </g>
    </g>
    <g id="ytick_18">
     <g id="line2d_49">
      <defs>
       <path d="
M0 0
L2 0" id="m0789224b6b"/>
      </defs>
      <g>
       <use style="stroke:#000000;stroke-linecap:butt;stroke-width:0.5;" x="54.75625" xlink:href="#m0789224b6b" y="220.187729837"/>
      </g>
     </g>
    </g>
    <g id="ytick_19">
     <g id="line2d_50">
      <defs>
       <path d="
M0 0
L2 0" id="m0789224b6b"/>
      </defs>
      <g>
       <use style="stroke:#000000;stroke-linecap:butt;stroke-width:0.5;" x="54.75625" xlink:href="#m0789224b6b" y="205.622668778"/>
      </g>
     </g>
    </g>
    <g id="ytick_20">
     <g id="line2d_51">
      <defs>
       <path d="
M0 0
L2 0" id="m0789224b6b"/>
      </defs>
      <g>
       <use style="stroke:#000000;stroke-linecap:butt;stroke-width:0.5;" x="54.75625" xlink:href="#m0789224b6b" y="191.057607718"/>
      </g>
     </g>
    </g>
    <g id="ytick_21">
     <g id="line2d_52">
      <defs>
       <path d="
M0 0
L2 0" id="m0789224b6b"/>
      </defs>
      <g>
       <use style="stroke:#000000;stroke-linecap:butt;stroke-width:0.5;" x="54.75625" xlink:href="#m0789224b6b" y="176.492546658"/>
      </g>
     </g>
    </g>
    <g id="ytick_22">
     <g id="line2d_53">
      <defs>
       <path d="
M0 0
L2 0" id="m0789224b6b"/>
      </defs>
      <g>
       <use style="stroke:#000000;stroke-linecap:butt;stroke-width:0.5;" x="54.75625" xlink:href="#m0789224b6b" y="161.927485598"/>
      </g>
     </g>
    </g>
    <g id="ytick_23">
     <g id="line2d_54">
      <defs>
       <path d="
M0 0
L2 0" id="m0789224b6b"/>
      </defs>
      <g>
       <use style="stroke:#000000;stroke-linecap:butt;stroke-width:0.5;" x="54.75625" xlink:href="#m0789224b6b" y="147.362424538"/>
      </g>
     </g>
    </g>
    <g id="ytick_24">
     <g id="line2d_55">
      <defs>
       <path d="
M0 0
L2 0" id="m0789224b6b"/>
      </defs>
      <g>
       <use style="stroke:#000000;stroke-linecap:butt;stroke-width:0.5;" x="54.75625" xlink:href="#m0789224b6b" y="132.797363479"/>
      </g>
     </g>
    </g>
    <g id="ytick_25">
     <g id="line2d_56">
      <defs>
       <path d="
M0 0
L2 0" id="m0789224b6b"/>
      </defs>
      <g>
       <use style="stroke:#000000;stroke-linecap:butt;stroke-width:0.5;" x="54.75625" xlink:href="#m0789224b6b" y="118.232302419"/>
      </g>
     </g>
    </g>
    <g id="ytick_26">
     <g id="line2d_57">
      <defs>
       <path d="
M0 0
L2 0" id="m0789224b6b"/>
      </defs>
      <g>
       <use style="stroke:#000000;stroke-linecap:butt;stroke-width:0.5;" x="54.75625" xlink:href="#m0789224b6b" y="103.667241359"/>
      </g>
     </g>
    </g>
    <g id="ytick_27">
     <g id="line2d_58">
      <defs>
       <path d="
M0 0
L2 0" id="m0789224b6b"/>
      </defs>
      <g>
       <use style="stroke:#000000;stroke-linecap:butt;stroke-width:0.5;" x="54.75625" xlink:href="#m0789224b6b" y="89.1021802991"/>
      </g>
     </g>
    </g>
    <g id="ytick_28">
     <g id="line2d_59">
      <defs>
       <path d="
M0 0
L2 0" id="m0789224b6b"/>
      </defs>
      <g>
       <use style="stroke:#000000;stroke-linecap:butt;stroke-width:0.5;" x="54.75625" xlink:href="#m0789224b6b" y="74.5371192393"/>
      </g>
     </g>
    </g>
    <g id="ytick_29">
     <g id="line2d_60">
      <defs>
       <path d="
M0 0
L2 0" id="m0789224b6b"/>
      </defs>
      <g>
       <use style="stroke:#000000;stroke-linecap:butt;stroke-width:0.5;" x="54.75625" xlink:href="#m0789224b6b" y="59.9720581794"/>
      </g>
     </g>
    </g>
    <g id="ytick_30">
     <g id="line2d_61">
      <defs>
       <path d="
M0 0
L2 0" id="m0789224b6b"/>
      </defs>
      <g>
       <use style="stroke:#000000;stroke-linecap:butt;stroke-width:0.5;" x="54.75625" xlink:href="#m0789224b6b" y="45.4069971196"/>
      </g>
     </g>
    </g>
    <g id="ytick_31">
     <g id="line2d_62">
      <defs>
       <path d="
M0 0
L2 0" id="m0789224b6b"/>
      </defs>
      <g>
       <use style="stroke:#000000;stroke-linecap:butt;stroke-width:0.5;" x="54.75625" xlink:href="#m0789224b6b" y="30.8419360598"/>
      </g>
     </g>
    </g>
   </g>
   <g id="patch_3">
    <path d="
M64.7562 16.2769
L557.299 16.2769" style="fill:none;stroke:#000000;stroke-width:0.8;"/>
   </g>
   <g id="patch_4">
    <path d="
M54.7562 412.239
L54.7562 8.51291" style="fill:none;stroke:#000000;stroke-width:0.8;"/>
   </g>
  </g>
 </g>
 <defs>
  <clipPath id="p2fe29bff6c">
   <rect height="403.726153846" width="492.5425" x="64.75625" y="8.51291050296"/>
  </clipPath>
 </defs>
</svg>
