<?xml version="1.0" encoding="utf-8" standalone="no"?>
<!DOCTYPE svg PUBLIC "-//W3C//DTD SVG 1.1//EN"
  "http://www.w3.org/Graphics/SVG/1.1/DTD/svg11.dtd">
<!-- Created with matplotlib (http://matplotlib.sourceforge.net/) -->
<svg height="420pt" version="1.1" viewBox="0 0 562 420" width="562pt" xmlns="http://www.w3.org/2000/svg" xmlns:xlink="http://www.w3.org/1999/xlink">
 <defs>
  <style type="text/css">
*{stroke-linecap:square;stroke-linejoin:round;}
  </style>
 </defs>
 <g id="figure_1">
  <g id="patch_1">
   <path d="
M2.22045e-16 420.48
L562.487 420.48
L562.487 0
L2.22045e-16 0
z
" style="fill:#ffffff;"/>
  </g>
  <g id="axes_1">
   <g id="patch_2">
    <path d="
M45.156 413.28
L544.37 413.28
L544.37 7.2
L45.156 7.2
z
" style="fill:#ffffff;"/>
   </g>
   <g id="line2d_1">
    <path clip-path="url(#p6b76670bb7)" d="
M54.7563 15.0092
L54.8075 15.0092
L54.8075 405.471
L54.8661 395.265
L54.9275 395.265
L54.9909 386.641
L55.0554 386.641
L55.1213 378.66
L55.1876 378.66
L55.2551 374.219
L55.3229 374.219
L55.3229 372.682
L55.3915 372.768
L55.5304 372.66
L55.6004 370.689
L55.6707 370.689
L55.7414 367.959
L55.8127 367.959
L55.8843 366.257
L55.9562 366.257
L56.028 365.118
L56.1005 365.118
L56.173 363.576
L56.246 363.576
L56.3187 362.139
L56.3921 362.139
L56.4663 361.436
L56.5397 361.436
L56.6135 361.106
L56.6879 361.106
L56.7622 360.509
L56.8369 360.509
L56.9111 359.996
L56.9863 359.996
L57.0614 359.365
L57.1361 359.365
L57.2115 358.789
L57.3626 358.705
L57.4386 357.945
L57.5148 357.945
L57.5909 357.188
L57.6671 357.188
L57.7436 356.576
L57.9733 356.47
L58.0498 356.213
L58.1263 356.213
L58.2034 355.821
L58.2806 355.821
L58.358 355.428
L58.4353 355.428
L58.5129 355.078
L58.5902 355.078
L58.6684 354.725
L58.824 354.649
L58.9014 354.423
L58.979 354.423
L59.0574 354.066
L59.1361 354.066
L59.2139 353.51
L59.2925 353.51
L59.371 353.039
L59.4496 353.039
L59.5284 352.461
L59.6074 352.461
L59.6861 352.015
L59.7649 352.015
L59.8437 351.704
L59.9224 351.704
L60.0015 351.41
L60.0806 351.41
L60.1597 350.89
L60.2394 350.89
L60.3185 350.299
L60.3978 350.299
L60.4773 349.853
L60.5569 349.853
L60.6367 349.353
L60.7158 349.353
L60.7961 348.835
L60.8754 348.835
L60.9554 348.462
L61.036 348.462
L61.1161 348.137
L61.1963 348.137
L61.2769 347.729
L61.3568 347.729
L61.4365 347.485
L61.6777 347.388
L61.6777 347.373
L61.7583 347.386
L62.1626 347.491
L62.2428 347.618
L62.4046 347.721
L62.4858 347.782
L62.7293 347.683
L62.7293 347.627
L62.8103 347.641
L63.461 347.719
L63.5424 347.803
L64.1977 347.733
L64.2794 347.587
L64.443 347.527
L64.5258 347.364
L64.6901 347.271
L64.7723 347.039
L64.8546 347.039
L64.9373 346.807
L65.102 346.71
L65.1842 346.544
L65.3485 346.457
L65.4322 346.256
L65.5975 346.169
L65.68 346.004
L65.8453 345.911
L65.9282 345.661
L66.011 345.661
L66.0939 345.393
L66.2601 345.292
L66.3431 345.087
L66.4253 345.087
L66.5086 344.881
L66.6746 344.802
L66.7579 344.613
L66.9251 344.512
L67.0086 344.31
L67.1746 344.221
L67.2579 344.043
L67.4251 343.934
L67.5077 343.724
L67.6749 343.615
L67.7582 343.441
L67.9255 343.361
L68.0086 343.219
L68.1765 343.145
L68.2602 343.044
L68.5111 342.956
L68.5955 342.81
L68.7636 342.746
L68.8472 342.614
L69.0993 342.518
L69.1826 342.422
L69.35 342.358
L69.4346 342.224
L69.6022 342.157
L69.6875 342.031
L69.8561 341.957
L69.9405 341.807
L70.1091 341.715
L70.1932 341.536
L70.3621 341.461
L70.4464 341.322
L70.6154 341.251
L70.7 341.102
L70.8686 341.031
L70.9536 340.887
L71.1233 340.806
L71.2086 340.661
L71.3785 340.585
L71.4637 340.421
L71.6334 340.337
L71.7181 340.155
L71.8878 340.072
L71.9727 339.95
L72.3126 339.843
L72.3981 339.754
L72.6531 339.66
L72.7385 339.571
L72.9941 339.492
L73.0788 339.409
L73.8444 339.307
L73.9303 339.254
L74.2726 339.151
L74.3571 339.111
L75.0436 339.003
L75.1293 338.97
L75.7307 338.868
L75.8168 338.798
L76.1604 338.71
L76.2457 338.654
L76.589 338.554
L76.6749 338.505
L77.2781 338.407
L77.365 338.373
L77.9699 338.271
L78.0563 338.223
L78.5744 338.134
L78.661 338.079
L79.0937 337.984
L79.18 337.954
L80.7428 337.844
L80.7428 337.842
L80.8304 337.842
L80.8304 337.842
L80.8304 337.844
L80.918 337.844
L81.7871 337.739
L81.875 337.697
L82.4847 337.59
L82.572 337.557
L83.1832 337.447
L83.2715 337.403
L83.7082 337.315
L83.7951 337.261
L84.1452 337.176
L84.2334 337.112
L84.5833 337.002
L84.6712 336.935
L85.0223 336.832
L85.1097 336.759
L85.4596 336.655
L85.5472 336.596
L85.9 336.503
L85.9873 336.44
L86.427 336.339
L86.5147 336.287
L86.865 336.198
L86.9534 336.134
L87.3047 336.035
L87.3923 335.982
L87.7451 335.882
L87.8335 335.808
L88.0978 335.723
L88.1857 335.642
L88.5386 335.549
L88.6261 335.493
L89.5086 335.396
L89.5969 335.363
L91.2778 335.254
L91.3666 335.221
L91.8994 335.119
L91.9883 335.096
L92.7878 334.993
L92.8767 334.958
L93.4096 334.864
L93.4989 334.826
L94.0309 334.721
L94.1195 334.67
L94.6537 334.564
L94.7429 334.515
L95.2778 334.411
L95.3668 334.37
L95.9913 334.263
L96.0801 334.231
L96.7948 334.121
L96.8845 334.1
L97.6874 333.995
L97.7773 333.969
L98.5817 333.863
L98.6718 333.84
L99.2985 333.742
L99.3881 333.71
L100.016 333.605
L100.106 333.574
L100.822 333.465
L100.912 333.436
L101.809 333.328
L101.899 333.291
L102.44 333.193
L102.53 333.16
L103.16 333.065
L103.249 333.027
L103.877 332.928
L103.967 332.9
L105.048 332.792
L105.138 332.768
L105.951 332.668
L106.041 332.643
L106.942 332.539
L107.032 332.511
L107.664 332.408
L107.756 332.375
L108.479 332.265
L108.57 332.229
L109.203 332.122
L109.294 332.068
L109.749 331.966
L109.839 331.919
L110.292 331.827
L110.383 331.781
L110.836 331.689
L110.926 331.646
L111.38 331.56
L111.471 331.508
L111.926 331.416
L112.017 331.372
L112.561 331.273
L112.652 331.238
L113.198 331.141
L113.289 331.098
L113.835 330.998
L113.926 330.962
L114.562 330.852
L114.652 330.821
L115.835 330.711
L115.927 330.694
L116.837 330.587
L116.927 330.56
L117.749 330.452
L117.84 330.411
L118.388 330.303
L118.48 330.261
L119.029 330.163
L119.12 330.124
L119.759 330.014
L119.851 329.981
L120.765 329.876
L120.856 329.854
L122.781 329.744
L122.873 329.735
L123.97 329.629
L124.062 329.594
L124.705 329.486
L124.797 329.449
L125.438 329.346
L125.53 329.314
L126.265 329.216
L126.357 329.187
L127.185 329.078
L127.277 329.049
L128.106 328.946
L128.198 328.927
L129.67 328.818
L129.762 328.806
L131.882 328.702
L131.974 328.688
L134.098 328.583
L134.191 328.57
L135.391 328.465
L135.484 328.443
L136.407 328.341
L136.499 328.316
L137.332 328.214
L137.425 328.19
L138.907 328.08
L138.998 328.067
L141.222 327.958
L141.315 327.948
L143.268 327.842
L143.36 327.83
L145.313 327.722
L145.406 327.715
L148.292 327.605
L148.384 327.597
L150.999 327.492
L151.092 327.478
L153.988 327.368
L154.08 327.361
L164.014 327.253
L164.109 327.244
L165.518 327.14
L165.611 327.123
L167.024 327.017
L167.119 327.006
L168.81 326.899
L168.904 326.889
L170.408 326.782
L170.503 326.761
L171.636 326.652
L171.73 326.635
L173.332 326.527
L173.427 326.516
L175.597 326.41
L175.692 326.399
L178.337 326.291
L178.431 326.285
L180.889 326.177
L180.983 326.166
L183.164 326.056
L183.259 326.048
L185.82 325.941
L185.915 325.932
L189.802 325.821
L189.897 325.821
L198.746 325.71
L198.842 325.705
L202.273 325.595
L202.368 325.588
L206.092 325.478
L206.187 325.473
L208.674 325.362
L208.768 325.351
L210.299 325.246
L210.395 325.228
L211.83 325.118
L211.926 325.102
L213.17 324.996
L213.267 324.976
L214.512 324.87
L214.608 324.853
L215.853 324.743
L215.95 324.723
L217.005 324.616
L217.101 324.595
L218.155 324.485
L218.251 324.464
L219.402 324.355
L219.497 324.333
L220.648 324.222
L220.744 324.206
L222.282 324.097
L222.378 324.082
L223.818 323.977
L223.914 323.962
L225.258 323.857
L225.354 323.842
L226.797 323.732
L226.894 323.716
L228.338 323.605
L228.434 323.589
L229.974 323.481
L230.069 323.468
L231.609 323.363
L231.705 323.348
L233.344 323.238
L233.441 323.225
L235.077 323.12
L235.173 323.107
L236.712 322.997
L236.809 322.981
L238.255 322.87
L238.351 322.855
L239.992 322.747
L240.09 322.735
L242.696 322.625
L242.794 322.62
L253.627 322.51
L253.723 322.504
L258.86 322.393
L258.957 322.385
L262.063 322.276
L262.16 322.269
L265.559 322.16
L265.657 322.152
L268.181 322.042
L268.278 322.036
L271.877 321.926
L271.974 321.921
L274.797 321.811
L274.894 321.801
L277.523 321.692
L277.621 321.685
L280.544 321.575
L280.64 321.566
L283.959 321.458
L284.056 321.453
L288.836 321.342
L288.933 321.336
L292.256 321.226
L292.354 321.219
L295.188 321.109
L295.286 321.101
L297.736 320.992
L297.834 320.983
L300.284 320.875
L300.382 320.865
L303.124 320.756
L303.221 320.748
L305.671 320.638
L305.769 320.627
L308.023 320.517
L308.12 320.507
L310.474 320.397
L310.571 320.387
L312.925 320.28
L313.023 320.269
L315.38 320.161
L315.478 320.151
L318.032 320.041
L318.13 320.031
L320.681 319.92
L320.779 319.91
L323.632 319.799
L323.73 319.792
L328.157 319.683
L328.256 319.678
L332.489 319.569
L332.588 319.563
L336.43 319.455
L336.529 319.449
L340.273 319.338
L340.372 319.333
L343.921 319.225
L344.02 319.219
L349.449 319.109
L349.549 319.106
L356.369 318.996
L356.468 318.991
L364.091 318.881
L364.191 318.876
L370.627 318.766
L370.727 318.764
L401.724 318.875
L401.824 318.876
L501.347 318.765
L501.447 318.763
L514.764 318.652
L514.864 318.651
L522.842 318.542
L522.943 318.538
L527.894 318.429
L527.996 318.424
L531.939 318.315
L532.04 318.309
L534.77 318.23
L534.77 318.226" style="fill:none;stroke:#0000ff;stroke-width:5.0;"/>
   </g>
   <g id="matplotlib.axis_1">
    <g id="xtick_1">
     <g id="line2d_2">
      <path d="
M54.7563 413.28
L54.7563 7.2" style="fill:none;stroke:#000000;stroke-dasharray:1.000000,3.000000;stroke-dashoffset:0.0;stroke-linecap:butt;stroke-width:0.5;"/>
     </g>
     <g id="line2d_3">
      <defs>
       <path d="
M0 0
L0 -4" id="m27aefb36fb"/>
      </defs>
      <g>
       <use style="stroke:#000000;stroke-linecap:butt;stroke-width:0.5;" x="54.75625" xlink:href="#m27aefb36fb" y="15.0092307692"/>
      </g>
     </g>
    </g>
    <g id="xtick_2">
     <g id="line2d_4">
      <path d="
M150.764 413.28
L150.764 7.2" style="fill:none;stroke:#000000;stroke-dasharray:1.000000,3.000000;stroke-dashoffset:0.0;stroke-linecap:butt;stroke-width:0.5;"/>
     </g>
     <g id="line2d_5">
      <defs>
       <path d="
M0 0
L0 -4" id="m27aefb36fb"/>
      </defs>
      <g>
       <use style="stroke:#000000;stroke-linecap:butt;stroke-width:0.5;" x="150.764024987" xlink:href="#m27aefb36fb" y="15.0092307692"/>
      </g>
     </g>
     <g id="text_1">
      <!-- 2e8 -->
      <defs>
       <path d="
M19.1875 8.29688
L53.6094 8.29688
L53.6094 0
L7.32812 0
L7.32812 8.29688
Q12.9375 14.1094 22.625 23.8906
Q32.3281 33.6875 34.8125 36.5312
Q39.5469 41.8438 41.4219 45.5312
Q43.3125 49.2188 43.3125 52.7812
Q43.3125 58.5938 39.2344 62.25
Q35.1562 65.9219 28.6094 65.9219
Q23.9688 65.9219 18.8125 64.3125
Q13.6719 62.7031 7.8125 59.4219
L7.8125 69.3906
Q13.7656 71.7812 18.9375 73
Q24.125 74.2188 28.4219 74.2188
Q39.75 74.2188 46.4844 68.5469
Q53.2188 62.8906 53.2188 53.4219
Q53.2188 48.9219 51.5312 44.8906
Q49.8594 40.875 45.4062 35.4062
Q44.1875 33.9844 37.6406 27.2188
Q31.1094 20.4531 19.1875 8.29688" id="BitstreamVeraSans-Roman-32"/>
       <path d="
M56.2031 29.5938
L56.2031 25.2031
L14.8906 25.2031
Q15.4844 15.9219 20.4844 11.0625
Q25.4844 6.20312 34.4219 6.20312
Q39.5938 6.20312 44.4531 7.46875
Q49.3125 8.73438 54.1094 11.2812
L54.1094 2.78125
Q49.2656 0.734375 44.1875 -0.34375
Q39.1094 -1.42188 33.8906 -1.42188
Q20.7969 -1.42188 13.1562 6.1875
Q5.51562 13.8125 5.51562 26.8125
Q5.51562 40.2344 12.7656 48.1094
Q20.0156 56 32.3281 56
Q43.3594 56 49.7812 48.8906
Q56.2031 41.7969 56.2031 29.5938
M47.2188 32.2344
Q47.125 39.5938 43.0938 43.9844
Q39.0625 48.3906 32.4219 48.3906
Q24.9062 48.3906 20.3906 44.1406
Q15.875 39.8906 15.1875 32.1719
z
" id="BitstreamVeraSans-Roman-65"/>
       <path d="
M31.7812 34.625
Q24.75 34.625 20.7188 30.8594
Q16.7031 27.0938 16.7031 20.5156
Q16.7031 13.9219 20.7188 10.1562
Q24.75 6.39062 31.7812 6.39062
Q38.8125 6.39062 42.8594 10.1719
Q46.9219 13.9688 46.9219 20.5156
Q46.9219 27.0938 42.8906 30.8594
Q38.875 34.625 31.7812 34.625
M21.9219 38.8125
Q15.5781 40.375 12.0312 44.7188
Q8.5 49.0781 8.5 55.3281
Q8.5 64.0625 14.7188 69.1406
Q20.9531 74.2188 31.7812 74.2188
Q42.6719 74.2188 48.875 69.1406
Q55.0781 64.0625 55.0781 55.3281
Q55.0781 49.0781 51.5312 44.7188
Q48 40.375 41.7031 38.8125
Q48.8281 37.1562 52.7969 32.3125
Q56.7812 27.4844 56.7812 20.5156
Q56.7812 9.90625 50.3125 4.23438
Q43.8438 -1.42188 31.7812 -1.42188
Q19.7344 -1.42188 13.25 4.23438
Q6.78125 9.90625 6.78125 20.5156
Q6.78125 27.4844 10.7812 32.3125
Q14.7969 37.1562 21.9219 38.8125
M18.3125 54.3906
Q18.3125 48.7344 21.8438 45.5625
Q25.3906 42.3906 31.7812 42.3906
Q38.1406 42.3906 41.7188 45.5625
Q45.3125 48.7344 45.3125 54.3906
Q45.3125 60.0625 41.7188 63.2344
Q38.1406 66.4062 31.7812 66.4062
Q25.3906 66.4062 21.8438 63.2344
Q18.3125 60.0625 18.3125 54.3906" id="BitstreamVeraSans-Roman-38"/>
      </defs>
      <g transform="translate(129.810899987 36.8217307692)scale(0.24 -0.24)">
       <use xlink:href="#BitstreamVeraSans-Roman-32"/>
       <use x="63.623046875" xlink:href="#BitstreamVeraSans-Roman-65"/>
       <use x="125.146484375" xlink:href="#BitstreamVeraSans-Roman-38"/>
      </g>
     </g>
    </g>
    <g id="xtick_3">
     <g id="line2d_6">
      <path d="
M246.772 413.28
L246.772 7.2" style="fill:none;stroke:#000000;stroke-dasharray:1.000000,3.000000;stroke-dashoffset:0.0;stroke-linecap:butt;stroke-width:0.5;"/>
     </g>
     <g id="line2d_7">
      <defs>
       <path d="
M0 0
L0 -4" id="m27aefb36fb"/>
      </defs>
      <g>
       <use style="stroke:#000000;stroke-linecap:butt;stroke-width:0.5;" x="246.771799973" xlink:href="#m27aefb36fb" y="15.0092307692"/>
      </g>
     </g>
     <g id="text_2">
      <!-- 4e8 -->
      <defs>
       <path d="
M37.7969 64.3125
L12.8906 25.3906
L37.7969 25.3906
z

M35.2031 72.9062
L47.6094 72.9062
L47.6094 25.3906
L58.0156 25.3906
L58.0156 17.1875
L47.6094 17.1875
L47.6094 0
L37.7969 0
L37.7969 17.1875
L4.89062 17.1875
L4.89062 26.7031
z
" id="BitstreamVeraSans-Roman-34"/>
      </defs>
      <g transform="translate(225.526174973 36.8217307692)scale(0.24 -0.24)">
       <use xlink:href="#BitstreamVeraSans-Roman-34"/>
       <use x="63.623046875" xlink:href="#BitstreamVeraSans-Roman-65"/>
       <use x="125.146484375" xlink:href="#BitstreamVeraSans-Roman-38"/>
      </g>
     </g>
    </g>
    <g id="xtick_4">
     <g id="line2d_8">
      <path d="
M342.78 413.28
L342.78 7.2" style="fill:none;stroke:#000000;stroke-dasharray:1.000000,3.000000;stroke-dashoffset:0.0;stroke-linecap:butt;stroke-width:0.5;"/>
     </g>
     <g id="line2d_9">
      <defs>
       <path d="
M0 0
L0 -4" id="m27aefb36fb"/>
      </defs>
      <g>
       <use style="stroke:#000000;stroke-linecap:butt;stroke-width:0.5;" x="342.77957496" xlink:href="#m27aefb36fb" y="15.0092307692"/>
      </g>
     </g>
     <g id="text_3">
      <!-- 6e8 -->
      <defs>
       <path d="
M33.0156 40.375
Q26.375 40.375 22.4844 35.8281
Q18.6094 31.2969 18.6094 23.3906
Q18.6094 15.5312 22.4844 10.9531
Q26.375 6.39062 33.0156 6.39062
Q39.6562 6.39062 43.5312 10.9531
Q47.4062 15.5312 47.4062 23.3906
Q47.4062 31.2969 43.5312 35.8281
Q39.6562 40.375 33.0156 40.375
M52.5938 71.2969
L52.5938 62.3125
Q48.875 64.0625 45.0938 64.9844
Q41.3125 65.9219 37.5938 65.9219
Q27.8281 65.9219 22.6719 59.3281
Q17.5312 52.7344 16.7969 39.4062
Q19.6719 43.6562 24.0156 45.9219
Q28.375 48.1875 33.5938 48.1875
Q44.5781 48.1875 50.9531 41.5156
Q57.3281 34.8594 57.3281 23.3906
Q57.3281 12.1562 50.6875 5.35938
Q44.0469 -1.42188 33.0156 -1.42188
Q20.3594 -1.42188 13.6719 8.26562
Q6.98438 17.9688 6.98438 36.375
Q6.98438 53.6562 15.1875 63.9375
Q23.3906 74.2188 37.2031 74.2188
Q40.9219 74.2188 44.7031 73.4844
Q48.4844 72.75 52.5938 71.2969" id="BitstreamVeraSans-Roman-36"/>
      </defs>
      <g transform="translate(321.78519996 36.8217307692)scale(0.24 -0.24)">
       <use xlink:href="#BitstreamVeraSans-Roman-36"/>
       <use x="63.623046875" xlink:href="#BitstreamVeraSans-Roman-65"/>
       <use x="125.146484375" xlink:href="#BitstreamVeraSans-Roman-38"/>
      </g>
     </g>
    </g>
    <g id="xtick_5">
     <g id="line2d_10">
      <path d="
M438.787 413.28
L438.787 7.2" style="fill:none;stroke:#000000;stroke-dasharray:1.000000,3.000000;stroke-dashoffset:0.0;stroke-linecap:butt;stroke-width:0.5;"/>
     </g>
     <g id="line2d_11">
      <defs>
       <path d="
M0 0
L0 -4" id="m27aefb36fb"/>
      </defs>
      <g>
       <use style="stroke:#000000;stroke-linecap:butt;stroke-width:0.5;" x="438.787349947" xlink:href="#m27aefb36fb" y="15.0092307692"/>
      </g>
     </g>
     <g id="text_4">
      <!-- 8e8 -->
      <g transform="translate(417.768599947 36.8217307692)scale(0.24 -0.24)">
       <use xlink:href="#BitstreamVeraSans-Roman-38"/>
       <use x="63.623046875" xlink:href="#BitstreamVeraSans-Roman-65"/>
       <use x="125.146484375" xlink:href="#BitstreamVeraSans-Roman-38"/>
      </g>
     </g>
    </g>
    <g id="xtick_6">
     <g id="line2d_12">
      <path d="
M534.795 413.28
L534.795 7.2" style="fill:none;stroke:#000000;stroke-dasharray:1.000000,3.000000;stroke-dashoffset:0.0;stroke-linecap:butt;stroke-width:0.5;"/>
     </g>
     <g id="line2d_13">
      <defs>
       <path d="
M0 0
L0 -4" id="m27aefb36fb"/>
      </defs>
      <g>
       <use style="stroke:#000000;stroke-linecap:butt;stroke-width:0.5;" x="534.795124933" xlink:href="#m27aefb36fb" y="15.0092307692"/>
      </g>
     </g>
     <g id="text_5">
      <!-- 1e9 -->
      <defs>
       <path d="
M10.9844 1.51562
L10.9844 10.5
Q14.7031 8.73438 18.5 7.8125
Q22.3125 6.89062 25.9844 6.89062
Q35.75 6.89062 40.8906 13.4531
Q46.0469 20.0156 46.7812 33.4062
Q43.9531 29.2031 39.5938 26.9531
Q35.25 24.7031 29.9844 24.7031
Q19.0469 24.7031 12.6719 31.3125
Q6.29688 37.9375 6.29688 49.4219
Q6.29688 60.6406 12.9375 67.4219
Q19.5781 74.2188 30.6094 74.2188
Q43.2656 74.2188 49.9219 64.5156
Q56.5938 54.8281 56.5938 36.375
Q56.5938 19.1406 48.4062 8.85938
Q40.2344 -1.42188 26.4219 -1.42188
Q22.7031 -1.42188 18.8906 -0.6875
Q15.0938 0.046875 10.9844 1.51562
M30.6094 32.4219
Q37.25 32.4219 41.125 36.9531
Q45.0156 41.5 45.0156 49.4219
Q45.0156 57.2812 41.125 61.8438
Q37.25 66.4062 30.6094 66.4062
Q23.9688 66.4062 20.0938 61.8438
Q16.2188 57.2812 16.2188 49.4219
Q16.2188 41.5 20.0938 36.9531
Q23.9688 32.4219 30.6094 32.4219" id="BitstreamVeraSans-Roman-39"/>
       <path d="
M12.4062 8.29688
L28.5156 8.29688
L28.5156 63.9219
L10.9844 60.4062
L10.9844 69.3906
L28.4219 72.9062
L38.2812 72.9062
L38.2812 8.29688
L54.3906 8.29688
L54.3906 0
L12.4062 0
z
" id="BitstreamVeraSans-Roman-31"/>
      </defs>
      <g transform="translate(514.303249933 36.8217307692)scale(0.24 -0.24)">
       <use xlink:href="#BitstreamVeraSans-Roman-31"/>
       <use x="63.623046875" xlink:href="#BitstreamVeraSans-Roman-65"/>
       <use x="125.146484375" xlink:href="#BitstreamVeraSans-Roman-39"/>
      </g>
     </g>
    </g>
    <g id="xtick_7">
     <g id="line2d_14">
      <defs>
       <path d="
M0 0
L0 -2" id="m68000279ae"/>
      </defs>
      <g>
       <use style="stroke:#000000;stroke-linecap:butt;stroke-width:0.5;" x="78.7581937467" xlink:href="#m68000279ae" y="15.0092307692"/>
      </g>
     </g>
    </g>
    <g id="xtick_8">
     <g id="line2d_15">
      <defs>
       <path d="
M0 0
L0 -2" id="m68000279ae"/>
      </defs>
      <g>
       <use style="stroke:#000000;stroke-linecap:butt;stroke-width:0.5;" x="102.760137493" xlink:href="#m68000279ae" y="15.0092307692"/>
      </g>
     </g>
    </g>
    <g id="xtick_9">
     <g id="line2d_16">
      <defs>
       <path d="
M0 0
L0 -2" id="m68000279ae"/>
      </defs>
      <g>
       <use style="stroke:#000000;stroke-linecap:butt;stroke-width:0.5;" x="126.76208124" xlink:href="#m68000279ae" y="15.0092307692"/>
      </g>
     </g>
    </g>
    <g id="xtick_10">
     <g id="line2d_17">
      <defs>
       <path d="
M0 0
L0 -2" id="m68000279ae"/>
      </defs>
      <g>
       <use style="stroke:#000000;stroke-linecap:butt;stroke-width:0.5;" x="174.765968733" xlink:href="#m68000279ae" y="15.0092307692"/>
      </g>
     </g>
    </g>
    <g id="xtick_11">
     <g id="line2d_18">
      <defs>
       <path d="
M0 0
L0 -2" id="m68000279ae"/>
      </defs>
      <g>
       <use style="stroke:#000000;stroke-linecap:butt;stroke-width:0.5;" x="198.76791248" xlink:href="#m68000279ae" y="15.0092307692"/>
      </g>
     </g>
    </g>
    <g id="xtick_12">
     <g id="line2d_19">
      <defs>
       <path d="
M0 0
L0 -2" id="m68000279ae"/>
      </defs>
      <g>
       <use style="stroke:#000000;stroke-linecap:butt;stroke-width:0.5;" x="222.769856227" xlink:href="#m68000279ae" y="15.0092307692"/>
      </g>
     </g>
    </g>
    <g id="xtick_13">
     <g id="line2d_20">
      <defs>
       <path d="
M0 0
L0 -2" id="m68000279ae"/>
      </defs>
      <g>
       <use style="stroke:#000000;stroke-linecap:butt;stroke-width:0.5;" x="270.77374372" xlink:href="#m68000279ae" y="15.0092307692"/>
      </g>
     </g>
    </g>
    <g id="xtick_14">
     <g id="line2d_21">
      <defs>
       <path d="
M0 0
L0 -2" id="m68000279ae"/>
      </defs>
      <g>
       <use style="stroke:#000000;stroke-linecap:butt;stroke-width:0.5;" x="294.775687467" xlink:href="#m68000279ae" y="15.0092307692"/>
      </g>
     </g>
    </g>
    <g id="xtick_15">
     <g id="line2d_22">
      <defs>
       <path d="
M0 0
L0 -2" id="m68000279ae"/>
      </defs>
      <g>
       <use style="stroke:#000000;stroke-linecap:butt;stroke-width:0.5;" x="318.777631213" xlink:href="#m68000279ae" y="15.0092307692"/>
      </g>
     </g>
    </g>
    <g id="xtick_16">
     <g id="line2d_23">
      <defs>
       <path d="
M0 0
L0 -2" id="m68000279ae"/>
      </defs>
      <g>
       <use style="stroke:#000000;stroke-linecap:butt;stroke-width:0.5;" x="366.781518707" xlink:href="#m68000279ae" y="15.0092307692"/>
      </g>
     </g>
    </g>
    <g id="xtick_17">
     <g id="line2d_24">
      <defs>
       <path d="
M0 0
L0 -2" id="m68000279ae"/>
      </defs>
      <g>
       <use style="stroke:#000000;stroke-linecap:butt;stroke-width:0.5;" x="390.783462453" xlink:href="#m68000279ae" y="15.0092307692"/>
      </g>
     </g>
    </g>
    <g id="xtick_18">
     <g id="line2d_25">
      <defs>
       <path d="
M0 0
L0 -2" id="m68000279ae"/>
      </defs>
      <g>
       <use style="stroke:#000000;stroke-linecap:butt;stroke-width:0.5;" x="414.7854062" xlink:href="#m68000279ae" y="15.0092307692"/>
      </g>
     </g>
    </g>
    <g id="xtick_19">
     <g id="line2d_26">
      <defs>
       <path d="
M0 0
L0 -2" id="m68000279ae"/>
      </defs>
      <g>
       <use style="stroke:#000000;stroke-linecap:butt;stroke-width:0.5;" x="462.789293693" xlink:href="#m68000279ae" y="15.0092307692"/>
      </g>
     </g>
    </g>
    <g id="xtick_20">
     <g id="line2d_27">
      <defs>
       <path d="
M0 0
L0 -2" id="m68000279ae"/>
      </defs>
      <g>
       <use style="stroke:#000000;stroke-linecap:butt;stroke-width:0.5;" x="486.79123744" xlink:href="#m68000279ae" y="15.0092307692"/>
      </g>
     </g>
    </g>
    <g id="xtick_21">
     <g id="line2d_28">
      <defs>
       <path d="
M0 0
L0 -2" id="m68000279ae"/>
      </defs>
      <g>
       <use style="stroke:#000000;stroke-linecap:butt;stroke-width:0.5;" x="510.793181187" xlink:href="#m68000279ae" y="15.0092307692"/>
      </g>
     </g>
    </g>
   </g>
   <g id="matplotlib.axis_2">
    <g id="ytick_1">
     <g id="line2d_29">
      <path d="
M45.156 400.382
L544.37 400.382" style="fill:none;stroke:#000000;stroke-dasharray:1.000000,3.000000;stroke-dashoffset:0.0;stroke-linecap:butt;stroke-width:0.5;"/>
     </g>
     <g id="line2d_30">
      <defs>
       <path d="
M0 0
L4 0" id="m52bd6d68af"/>
      </defs>
      <g>
       <use style="stroke:#000000;stroke-linecap:butt;stroke-width:0.5;" x="54.75625" xlink:href="#m52bd6d68af" y="400.382315598"/>
      </g>
     </g>
     <g id="text_6">
      <!-- -2.5 -->
      <defs>
       <path d="
M10.6875 12.4062
L21 12.4062
L21 0
L10.6875 0
z
" id="BitstreamVeraSans-Roman-2e"/>
       <path d="
M4.89062 31.3906
L31.2031 31.3906
L31.2031 23.3906
L4.89062 23.3906
z
" id="BitstreamVeraSans-Roman-2d"/>
       <path d="
M10.7969 72.9062
L49.5156 72.9062
L49.5156 64.5938
L19.8281 64.5938
L19.8281 46.7344
Q21.9688 47.4688 24.1094 47.8281
Q26.2656 48.1875 28.4219 48.1875
Q40.625 48.1875 47.75 41.5
Q54.8906 34.8125 54.8906 23.3906
Q54.8906 11.625 47.5625 5.09375
Q40.2344 -1.42188 26.9062 -1.42188
Q22.3125 -1.42188 17.5469 -0.640625
Q12.7969 0.140625 7.71875 1.70312
L7.71875 11.625
Q12.1094 9.23438 16.7969 8.0625
Q21.4844 6.89062 26.7031 6.89062
Q35.1562 6.89062 40.0781 11.3281
Q45.0156 15.7656 45.0156 23.3906
Q45.0156 31 40.0781 35.4375
Q35.1562 39.8906 26.7031 39.8906
Q22.75 39.8906 18.8125 39.0156
Q14.8906 38.1406 10.7969 36.2812
z
" id="BitstreamVeraSans-Roman-35"/>
      </defs>
      <g transform="translate(7.2 409.117940598)scale(0.24 -0.24)">
       <use xlink:href="#BitstreamVeraSans-Roman-2d"/>
       <use x="36.083984375" xlink:href="#BitstreamVeraSans-Roman-32"/>
       <use x="99.70703125" xlink:href="#BitstreamVeraSans-Roman-2e"/>
       <use x="131.494140625" xlink:href="#BitstreamVeraSans-Roman-35"/>
      </g>
     </g>
    </g>
    <g id="ytick_2">
     <g id="line2d_31">
      <path d="
M45.156 323.308
L544.37 323.308" style="fill:none;stroke:#000000;stroke-dasharray:1.000000,3.000000;stroke-dashoffset:0.0;stroke-linecap:butt;stroke-width:0.5;"/>
     </g>
     <g id="line2d_32">
      <defs>
       <path d="
M0 0
L4 0" id="m52bd6d68af"/>
      </defs>
      <g>
       <use style="stroke:#000000;stroke-linecap:butt;stroke-width:0.5;" x="54.75625" xlink:href="#m52bd6d68af" y="323.307698633"/>
      </g>
     </g>
     <g id="text_7">
      <!-- -2 -->
      <g transform="translate(30.405 332.213948633)scale(0.24 -0.24)">
       <use xlink:href="#BitstreamVeraSans-Roman-2d"/>
       <use x="36.083984375" xlink:href="#BitstreamVeraSans-Roman-32"/>
      </g>
     </g>
    </g>
    <g id="ytick_3">
     <g id="line2d_33">
      <path d="
M45.156 246.233
L544.37 246.233" style="fill:none;stroke:#000000;stroke-dasharray:1.000000,3.000000;stroke-dashoffset:0.0;stroke-linecap:butt;stroke-width:0.5;"/>
     </g>
     <g id="line2d_34">
      <defs>
       <path d="
M0 0
L4 0" id="m52bd6d68af"/>
      </defs>
      <g>
       <use style="stroke:#000000;stroke-linecap:butt;stroke-width:0.5;" x="54.75625" xlink:href="#m52bd6d68af" y="246.233081667"/>
      </g>
     </g>
     <g id="text_8">
      <!-- -1.5 -->
      <g transform="translate(7.2 254.811206667)scale(0.24 -0.24)">
       <use xlink:href="#BitstreamVeraSans-Roman-2d"/>
       <use x="36.083984375" xlink:href="#BitstreamVeraSans-Roman-31"/>
       <use x="99.70703125" xlink:href="#BitstreamVeraSans-Roman-2e"/>
       <use x="131.494140625" xlink:href="#BitstreamVeraSans-Roman-35"/>
      </g>
     </g>
    </g>
    <g id="ytick_4">
     <g id="line2d_35">
      <path d="
M45.156 169.158
L544.37 169.158" style="fill:none;stroke:#000000;stroke-dasharray:1.000000,3.000000;stroke-dashoffset:0.0;stroke-linecap:butt;stroke-width:0.5;"/>
     </g>
     <g id="line2d_36">
      <defs>
       <path d="
M0 0
L4 0" id="m52bd6d68af"/>
      </defs>
      <g>
       <use style="stroke:#000000;stroke-linecap:butt;stroke-width:0.5;" x="54.75625" xlink:href="#m52bd6d68af" y="169.158464701"/>
      </g>
     </g>
     <g id="text_9">
      <!-- -1 -->
      <g transform="translate(30.2175 177.907214701)scale(0.24 -0.24)">
       <use xlink:href="#BitstreamVeraSans-Roman-2d"/>
       <use x="36.083984375" xlink:href="#BitstreamVeraSans-Roman-31"/>
      </g>
     </g>
    </g>
    <g id="ytick_5">
     <g id="line2d_37">
      <path d="
M45.156 92.0838
L544.37 92.0838" style="fill:none;stroke:#000000;stroke-dasharray:1.000000,3.000000;stroke-dashoffset:0.0;stroke-linecap:butt;stroke-width:0.5;"/>
     </g>
     <g id="line2d_38">
      <defs>
       <path d="
M0 0
L4 0" id="m52bd6d68af"/>
      </defs>
      <g>
       <use style="stroke:#000000;stroke-linecap:butt;stroke-width:0.5;" x="54.75625" xlink:href="#m52bd6d68af" y="92.0838477351"/>
      </g>
     </g>
     <g id="text_10">
      <!-- -0.5 -->
      <defs>
       <path d="
M31.7812 66.4062
Q24.1719 66.4062 20.3281 58.9062
Q16.5 51.4219 16.5 36.375
Q16.5 21.3906 20.3281 13.8906
Q24.1719 6.39062 31.7812 6.39062
Q39.4531 6.39062 43.2812 13.8906
Q47.125 21.3906 47.125 36.375
Q47.125 51.4219 43.2812 58.9062
Q39.4531 66.4062 31.7812 66.4062
M31.7812 74.2188
Q44.0469 74.2188 50.5156 64.5156
Q56.9844 54.8281 56.9844 36.375
Q56.9844 17.9688 50.5156 8.26562
Q44.0469 -1.42188 31.7812 -1.42188
Q19.5312 -1.42188 13.0625 8.26562
Q6.59375 17.9688 6.59375 36.375
Q6.59375 54.8281 13.0625 64.5156
Q19.5312 74.2188 31.7812 74.2188" id="BitstreamVeraSans-Roman-30"/>
      </defs>
      <g transform="translate(7.2 100.819472735)scale(0.24 -0.24)">
       <use xlink:href="#BitstreamVeraSans-Roman-2d"/>
       <use x="36.083984375" xlink:href="#BitstreamVeraSans-Roman-30"/>
       <use x="99.70703125" xlink:href="#BitstreamVeraSans-Roman-2e"/>
       <use x="131.494140625" xlink:href="#BitstreamVeraSans-Roman-35"/>
      </g>
     </g>
    </g>
    <g id="ytick_6">
     <g id="line2d_39">
      <path d="
M45.156 15.0092
L544.37 15.0092" style="fill:none;stroke:#000000;stroke-dasharray:1.000000,3.000000;stroke-dashoffset:0.0;stroke-linecap:butt;stroke-width:0.5;"/>
     </g>
     <g id="line2d_40">
      <defs>
       <path d="
M0 0
L4 0" id="m52bd6d68af"/>
      </defs>
      <g>
       <use style="stroke:#000000;stroke-linecap:butt;stroke-width:0.5;" x="54.75625" xlink:href="#m52bd6d68af" y="15.0092307692"/>
      </g>
     </g>
    </g>
    <g id="ytick_7">
     <g id="line2d_41">
      <defs>
       <path d="
M0 0
L2 0" id="md863c53931"/>
      </defs>
      <g>
       <use style="stroke:#000000;stroke-linecap:butt;stroke-width:0.5;" x="54.75625" xlink:href="#md863c53931" y="384.967392205"/>
      </g>
     </g>
    </g>
    <g id="ytick_8">
     <g id="line2d_42">
      <defs>
       <path d="
M0 0
L2 0" id="md863c53931"/>
      </defs>
      <g>
       <use style="stroke:#000000;stroke-linecap:butt;stroke-width:0.5;" x="54.75625" xlink:href="#md863c53931" y="369.552468812"/>
      </g>
     </g>
    </g>
    <g id="ytick_9">
     <g id="line2d_43">
      <defs>
       <path d="
M0 0
L2 0" id="md863c53931"/>
      </defs>
      <g>
       <use style="stroke:#000000;stroke-linecap:butt;stroke-width:0.5;" x="54.75625" xlink:href="#md863c53931" y="354.137545419"/>
      </g>
     </g>
    </g>
    <g id="ytick_10">
     <g id="line2d_44">
      <defs>
       <path d="
M0 0
L2 0" id="md863c53931"/>
      </defs>
      <g>
       <use style="stroke:#000000;stroke-linecap:butt;stroke-width:0.5;" x="54.75625" xlink:href="#md863c53931" y="338.722622026"/>
      </g>
     </g>
    </g>
    <g id="ytick_11">
     <g id="line2d_45">
      <defs>
       <path d="
M0 0
L2 0" id="md863c53931"/>
      </defs>
      <g>
       <use style="stroke:#000000;stroke-linecap:butt;stroke-width:0.5;" x="54.75625" xlink:href="#md863c53931" y="307.892775239"/>
      </g>
     </g>
    </g>
    <g id="ytick_12">
     <g id="line2d_46">
      <defs>
       <path d="
M0 0
L2 0" id="md863c53931"/>
      </defs>
      <g>
       <use style="stroke:#000000;stroke-linecap:butt;stroke-width:0.5;" x="54.75625" xlink:href="#md863c53931" y="292.477851846"/>
      </g>
     </g>
    </g>
    <g id="ytick_13">
     <g id="line2d_47">
      <defs>
       <path d="
M0 0
L2 0" id="md863c53931"/>
      </defs>
      <g>
       <use style="stroke:#000000;stroke-linecap:butt;stroke-width:0.5;" x="54.75625" xlink:href="#md863c53931" y="277.062928453"/>
      </g>
     </g>
    </g>
    <g id="ytick_14">
     <g id="line2d_48">
      <defs>
       <path d="
M0 0
L2 0" id="md863c53931"/>
      </defs>
      <g>
       <use style="stroke:#000000;stroke-linecap:butt;stroke-width:0.5;" x="54.75625" xlink:href="#md863c53931" y="261.64800506"/>
      </g>
     </g>
    </g>
    <g id="ytick_15">
     <g id="line2d_49">
      <defs>
       <path d="
M0 0
L2 0" id="md863c53931"/>
      </defs>
      <g>
       <use style="stroke:#000000;stroke-linecap:butt;stroke-width:0.5;" x="54.75625" xlink:href="#md863c53931" y="246.233081667"/>
      </g>
     </g>
    </g>
    <g id="ytick_16">
     <g id="line2d_50">
      <defs>
       <path d="
M0 0
L2 0" id="md863c53931"/>
      </defs>
      <g>
       <use style="stroke:#000000;stroke-linecap:butt;stroke-width:0.5;" x="54.75625" xlink:href="#md863c53931" y="230.818158274"/>
      </g>
     </g>
    </g>
    <g id="ytick_17">
     <g id="line2d_51">
      <defs>
       <path d="
M0 0
L2 0" id="md863c53931"/>
      </defs>
      <g>
       <use style="stroke:#000000;stroke-linecap:butt;stroke-width:0.5;" x="54.75625" xlink:href="#md863c53931" y="215.40323488"/>
      </g>
     </g>
    </g>
    <g id="ytick_18">
     <g id="line2d_52">
      <defs>
       <path d="
M0 0
L2 0" id="md863c53931"/>
      </defs>
      <g>
       <use style="stroke:#000000;stroke-linecap:butt;stroke-width:0.5;" x="54.75625" xlink:href="#md863c53931" y="199.988311487"/>
      </g>
     </g>
    </g>
    <g id="ytick_19">
     <g id="line2d_53">
      <defs>
       <path d="
M0 0
L2 0" id="md863c53931"/>
      </defs>
      <g>
       <use style="stroke:#000000;stroke-linecap:butt;stroke-width:0.5;" x="54.75625" xlink:href="#md863c53931" y="184.573388094"/>
      </g>
     </g>
    </g>
    <g id="ytick_20">
     <g id="line2d_54">
      <defs>
       <path d="
M0 0
L2 0" id="md863c53931"/>
      </defs>
      <g>
       <use style="stroke:#000000;stroke-linecap:butt;stroke-width:0.5;" x="54.75625" xlink:href="#md863c53931" y="169.158464701"/>
      </g>
     </g>
    </g>
    <g id="ytick_21">
     <g id="line2d_55">
      <defs>
       <path d="
M0 0
L2 0" id="md863c53931"/>
      </defs>
      <g>
       <use style="stroke:#000000;stroke-linecap:butt;stroke-width:0.5;" x="54.75625" xlink:href="#md863c53931" y="153.743541308"/>
      </g>
     </g>
    </g>
    <g id="ytick_22">
     <g id="line2d_56">
      <defs>
       <path d="
M0 0
L2 0" id="md863c53931"/>
      </defs>
      <g>
       <use style="stroke:#000000;stroke-linecap:butt;stroke-width:0.5;" x="54.75625" xlink:href="#md863c53931" y="138.328617915"/>
      </g>
     </g>
    </g>
    <g id="ytick_23">
     <g id="line2d_57">
      <defs>
       <path d="
M0 0
L2 0" id="md863c53931"/>
      </defs>
      <g>
       <use style="stroke:#000000;stroke-linecap:butt;stroke-width:0.5;" x="54.75625" xlink:href="#md863c53931" y="122.913694521"/>
      </g>
     </g>
    </g>
    <g id="ytick_24">
     <g id="line2d_58">
      <defs>
       <path d="
M0 0
L2 0" id="md863c53931"/>
      </defs>
      <g>
       <use style="stroke:#000000;stroke-linecap:butt;stroke-width:0.5;" x="54.75625" xlink:href="#md863c53931" y="107.498771128"/>
      </g>
     </g>
    </g>
    <g id="ytick_25">
     <g id="line2d_59">
      <defs>
       <path d="
M0 0
L2 0" id="md863c53931"/>
      </defs>
      <g>
       <use style="stroke:#000000;stroke-linecap:butt;stroke-width:0.5;" x="54.75625" xlink:href="#md863c53931" y="92.0838477351"/>
      </g>
     </g>
    </g>
    <g id="ytick_26">
     <g id="line2d_60">
      <defs>
       <path d="
M0 0
L2 0" id="md863c53931"/>
      </defs>
      <g>
       <use style="stroke:#000000;stroke-linecap:butt;stroke-width:0.5;" x="54.75625" xlink:href="#md863c53931" y="76.6689243419"/>
      </g>
     </g>
    </g>
    <g id="ytick_27">
     <g id="line2d_61">
      <defs>
       <path d="
M0 0
L2 0" id="md863c53931"/>
      </defs>
      <g>
       <use style="stroke:#000000;stroke-linecap:butt;stroke-width:0.5;" x="54.75625" xlink:href="#md863c53931" y="61.2540009487"/>
      </g>
     </g>
    </g>
    <g id="ytick_28">
     <g id="line2d_62">
      <defs>
       <path d="
M0 0
L2 0" id="md863c53931"/>
      </defs>
      <g>
       <use style="stroke:#000000;stroke-linecap:butt;stroke-width:0.5;" x="54.75625" xlink:href="#md863c53931" y="45.8390775556"/>
      </g>
     </g>
    </g>
    <g id="ytick_29">
     <g id="line2d_63">
      <defs>
       <path d="
M0 0
L2 0" id="md863c53931"/>
      </defs>
      <g>
       <use style="stroke:#000000;stroke-linecap:butt;stroke-width:0.5;" x="54.75625" xlink:href="#md863c53931" y="30.4241541624"/>
      </g>
     </g>
    </g>
   </g>
   <g id="patch_3">
    <path d="
M45.156 15.0092
L544.37 15.0092" style="fill:none;stroke:#000000;stroke-width:0.8;"/>
   </g>
   <g id="patch_4">
    <path d="
M54.7563 413.28
L54.7563 7.2" style="fill:none;stroke:#000000;stroke-width:0.8;"/>
   </g>
  </g>
 </g>
 <defs>
  <clipPath id="p6b76670bb7">
   <rect height="406.08" width="499.214042578" x="45.1559809105" y="7.2"/>
  </clipPath>
 </defs>
</svg>
