<?xml version="1.0" encoding="utf-8" standalone="no"?>
<!DOCTYPE svg PUBLIC "-//W3C//DTD SVG 1.1//EN"
  "http://www.w3.org/Graphics/SVG/1.1/DTD/svg11.dtd">
<!-- Created with matplotlib (http://matplotlib.sourceforge.net/) -->
<svg height="420pt" version="1.1" viewBox="0 0 562 420" width="562pt" xmlns="http://www.w3.org/2000/svg" xmlns:xlink="http://www.w3.org/1999/xlink">
 <defs>
  <style type="text/css">
*{stroke-linecap:square;stroke-linejoin:round;}
  </style>
 </defs>
 <g id="figure_1">
  <g id="patch_1">
   <path d="
M2.22045e-16 420.48
L562.487 420.48
L562.487 0
L2.22045e-16 0
z
" style="fill:#ffffff;"/>
  </g>
  <g id="axes_1">
   <g id="patch_2">
    <path d="
M45.156 413.28
L544.37 413.28
L544.37 7.2
L45.156 7.2
z
" style="fill:#ffffff;"/>
   </g>
   <g id="line2d_1">
    <path clip-path="url(#p6b76670bb7)" d="
M54.7563 15.0092
L54.8075 15.0092
L54.8075 405.471
L54.8661 398.761
L54.9275 398.761
L54.9909 389.778
L55.0554 389.778
L55.1213 394.465
L55.1876 394.465
L55.1876 395.675
L55.2551 394.844
L55.3229 394.844
L55.3915 391.344
L55.4606 391.344
L55.5304 387.46
L55.6004 387.46
L55.6707 383.958
L55.7414 383.958
L55.8127 380.473
L55.8843 380.473
L55.9562 377.009
L56.028 377.009
L56.1005 373.603
L56.173 373.603
L56.246 370.351
L56.3187 370.351
L56.3921 366.52
L56.4663 366.52
L56.5397 363.555
L56.6135 363.555
L56.6879 361.188
L56.7622 361.188
L56.8369 358.558
L56.9111 358.558
L56.9863 356.624
L57.0614 356.624
L57.1361 354.849
L57.2115 354.849
L57.2869 353.155
L57.3626 353.155
L57.4386 351.636
L57.5148 351.636
L57.5909 350.292
L57.6671 350.292
L57.7436 349.031
L57.8198 349.031
L57.8966 347.447
L57.9733 347.447
L58.0498 345.813
L58.1263 345.813
L58.2034 344.607
L58.2806 344.607
L58.358 343.562
L58.4353 343.562
L58.5129 342.784
L58.5902 342.784
L58.6684 342.114
L58.7458 342.114
L58.824 341.343
L58.9014 341.343
L58.979 340.535
L59.0574 340.535
L59.1361 339.756
L59.2139 339.756
L59.2925 338.961
L59.371 338.961
L59.4496 337.947
L59.5284 337.947
L59.6074 336.964
L59.6861 336.964
L59.7649 336.023
L59.8437 336.023
L59.9224 335.126
L60.0015 335.126
L60.0806 334.346
L60.1597 334.346
L60.2394 333.6
L60.3185 333.6
L60.3978 332.942
L60.4773 332.942
L60.5569 332.312
L60.6367 332.312
L60.7158 331.613
L60.7961 331.613
L60.8754 330.902
L60.9554 330.902
L61.036 330.089
L61.1161 330.089
L61.1963 329.419
L61.2769 329.419
L61.3568 328.756
L61.4365 328.756
L61.5173 328.16
L61.5978 328.16
L61.6777 327.5
L61.7583 327.5
L61.8391 326.811
L61.9197 326.811
L62.0006 326.111
L62.0814 326.111
L62.1626 325.353
L62.2428 325.353
L62.3239 324.631
L62.4046 324.631
L62.4858 323.978
L62.5666 323.978
L62.6481 323.369
L62.7293 323.369
L62.8103 322.68
L62.8914 322.68
L62.9722 321.971
L63.0542 321.971
L63.1349 321.21
L63.2159 321.21
L63.2976 320.494
L63.3789 320.494
L63.461 319.815
L63.5424 319.815
L63.6243 319.133
L63.706 319.133
L63.7878 318.416
L63.8696 318.416
L63.9515 317.695
L64.0334 317.695
L64.1153 316.92
L64.1977 316.92
L64.2794 316.161
L64.3612 316.161
L64.443 315.398
L64.5258 315.398
L64.608 314.66
L64.6901 314.66
L64.7723 313.993
L64.8546 313.993
L64.9373 313.367
L65.0196 313.367
L65.102 312.759
L65.1842 312.759
L65.2665 312.233
L65.3485 312.233
L65.4322 311.807
L65.515 311.807
L65.5975 311.454
L65.68 311.454
L65.7626 311.141
L65.8453 311.141
L65.9282 310.811
L66.011 310.811
L66.0939 310.483
L66.1771 310.483
L66.2601 310.165
L66.3431 310.165
L66.4253 309.849
L66.5086 309.849
L66.5918 309.533
L66.6746 309.533
L66.7579 309.247
L66.8412 309.247
L66.9251 308.985
L67.0086 308.985
L67.0919 308.74
L67.1746 308.74
L67.2579 308.49
L67.3414 308.49
L67.4251 308.265
L67.5914 308.166
L67.6749 307.968
L67.7582 307.968
L67.8419 307.755
L68.0086 307.673
L68.0926 307.483
L68.2602 307.388
L68.3435 307.19
L68.5111 307.101
L68.5955 306.948
L68.7636 306.878
L68.8472 306.75
L69.0153 306.686
L69.0993 306.581
L69.2662 306.515
L69.35 306.355
L69.5182 306.26
L69.6022 306.06
L69.7717 305.965
L69.8561 305.774
L70.025 305.679
L70.1091 305.469
L70.1932 305.469
L70.2779 305.236
L70.4464 305.133
L70.5311 304.915
L70.7 304.807
L70.7839 304.59
L70.8686 304.59
L70.9536 304.36
L71.1233 304.258
L71.2086 304.061
L71.3785 303.972
L71.4637 303.818
L71.6334 303.754
L71.7181 303.65
L71.9727 303.555
L72.0576 303.448
L72.2274 303.392
L72.3126 303.251
L72.4837 303.173
L72.568 303.022
L72.7385 302.943
L72.8232 302.784
L72.9941 302.7
L73.0788 302.539
L73.2484 302.463
L73.3343 302.295
L73.5042 302.208
L73.5893 302.041
L73.8444 301.934
L73.9303 301.851
L75.6445 301.76
L75.7307 301.711
L76.3323 301.616
L76.4179 301.568
L76.7615 301.463
L76.8471 301.369
L77.02 301.314
L77.1062 301.193
L77.365 301.088
L77.4508 300.994
L77.7104 300.914
L77.7968 300.835
L78.0563 300.743
L78.1432 300.658
L78.4024 300.568
L78.4886 300.479
L78.7473 300.394
L78.8339 300.299
L79.0937 300.197
L79.18 300.09
L79.3541 300.033
L79.4402 299.922
L79.6138 299.865
L79.7 299.758
L79.9608 299.66
L80.0476 299.568
L80.3076 299.478
L80.3947 299.38
L80.656 299.27
L80.7428 299.147
L80.918 299.089
L81.0041 298.974
L81.1788 298.915
L81.2655 298.796
L81.5263 298.689
L81.6138 298.586
L81.7871 298.526
L81.875 298.397
L82.0484 298.33
L82.1358 298.186
L82.3093 298.113
L82.3968 297.984
L82.572 297.925
L82.6594 297.813
L82.9212 297.707
L83.0079 297.606
L83.2715 297.526
L83.3586 297.441
L83.6209 297.365
L83.7082 297.288
L84.0569 297.196
L84.1452 297.122
L84.4962 297.029
L84.5833 296.979
L84.9343 296.886
L85.0223 296.821
L85.2849 296.75
L85.3727 296.666
L85.6351 296.585
L85.723 296.51
L85.9873 296.429
L86.0756 296.338
L86.3395 296.244
L86.427 296.149
L86.6893 296.055
L86.7769 295.961
L87.0412 295.866
L87.1287 295.774
L87.3923 295.677
L87.4807 295.574
L87.7451 295.464
L87.8335 295.353
L88.0978 295.249
L88.1857 295.148
L88.4505 295.051
L88.5386 294.951
L88.8036 294.851
L88.8917 294.761
L89.1557 294.663
L89.2449 294.561
L89.5086 294.471
L89.5969 294.38
L89.8622 294.278
L89.9509 294.179
L90.216 294.077
L90.3047 293.979
L90.5707 293.886
L90.6592 293.794
L90.9244 293.699
L91.0125 293.604
L91.2778 293.502
L91.3666 293.397
L91.5446 293.339
L91.6338 293.224
L91.8994 293.117
L91.9883 293.008
L92.2544 292.909
L92.3436 292.814
L92.6104 292.716
L92.6991 292.622
L92.9656 292.537
L93.0544 292.457
L93.4096 292.355
L93.4989 292.289
L93.8525 292.193
L93.9416 292.125
L94.298 292.023
L94.387 291.953
L94.7429 291.861
L94.8324 291.797
L95.1888 291.686
L95.2778 291.601
L95.5454 291.518
L95.635 291.436
L95.9026 291.359
L95.9913 291.285
L96.3478 291.188
L96.4373 291.128
L96.8845 291.031
L96.9735 290.979
L97.4197 290.89
L97.509 290.84
L98.046 290.729
L98.135 290.693
L98.6718 290.596
L98.7612 290.565
L99.4784 290.46
L99.568 290.425
L100.195 290.324
L100.284 290.297
L101.092 290.191
L101.181 290.163
L102.619 290.053
L102.709 290.042
L104.238 289.935
L104.328 289.918
L105.861 289.807
L105.951 289.791
L108.299 289.681
L108.389 289.673
L110.473 289.565
L110.564 289.543
L111.38 289.432
L111.471 289.407
L112.47 289.298
L112.561 289.276
L113.289 289.174
L113.379 289.144
L114.562 289.042
L114.652 289.023
L115.927 288.916
L116.018 288.905
L124.521 288.799
L124.613 288.786
L126.081 288.679
L126.172 288.662
L127.277 288.554
L127.369 288.532
L128.289 288.423
L128.382 288.399
L129.302 288.288
L129.395 288.26
L130.222 288.158
L130.315 288.133
L131.237 288.022
L131.33 287.998
L132.251 287.895
L132.344 287.876
L133.358 287.774
L133.45 287.753
L134.745 287.644
L134.837 287.627
L136.038 287.521
L136.13 287.505
L144.103 287.615
L144.196 287.619
L147.361 287.729
L147.455 287.734
L150.066 287.843
L150.159 287.856
L152.026 287.964
L152.119 287.974
L162.604 287.865
L162.699 287.852
L164.014 287.745
L164.109 287.729
L165.518 287.62
L165.611 287.604
L167.119 287.499
L167.213 287.478
L168.152 287.373
L168.246 287.35
L169.373 287.24
L169.467 287.222
L170.691 287.116
L170.786 287.101
L172.108 286.994
L172.202 286.976
L173.521 286.866
L173.615 286.851
L175.031 286.743
L175.125 286.728
L176.636 286.621
L176.731 286.605
L178.526 286.497
L178.62 286.488
L180.794 286.38
L180.889 286.37
L183.732 286.26
L183.826 286.254
L186.293 286.146
L186.388 286.14
L190.943 286.03
L191.037 286.026
L198.462 285.919
L198.557 285.911
L201.892 285.803
L201.988 285.795
L206.092 285.687
L206.187 285.677
L208.578 285.568
L208.674 285.558
L210.874 285.451
L210.969 285.441
L213.267 285.331
L213.363 285.318
L214.704 285.211
L214.8 285.194
L216.141 285.091
L216.238 285.074
L217.964 284.964
L218.059 284.954
L221.128 284.844
L221.224 284.837
L224.778 284.726
L224.874 284.72
L227.277 284.612
L227.374 284.601
L243.663 284.709
L243.76 284.718
L247.142 284.827
L247.239 284.832
L250.625 284.942
L250.722 284.947
L255.468 285.056
L255.564 285.062
L258.57 285.169
L258.666 285.178
L261.383 285.289
L261.481 285.297
L264.006 285.407
L264.103 285.415
L266.822 285.521
L266.919 285.531
L269.057 285.64
L269.154 285.652
L271.391 285.762
L271.488 285.77
L273.822 285.88
L273.919 285.889
L275.869 285.995
L275.966 286.007
L277.913 286.117
L278.01 286.131
L279.569 286.236
L279.665 286.249
L281.42 286.354
L281.518 286.367
L283.471 286.477
L283.569 286.488
L285.517 286.597
L285.614 286.609
L287.469 286.717
L287.567 286.729
L289.423 286.837
L289.521 286.849
L291.67 286.957
L291.768 286.967
L294.307 287.075
L294.405 287.082
L297.345 287.192
L297.442 287.199
L300.088 287.307
L300.187 287.315
L304.199 287.426
L304.297 287.431
L308.904 287.542
L309.002 287.546
L314.987 287.656
L315.085 287.659
L319.503 287.767
L319.602 287.773
L322.648 287.883
L322.746 287.89
L325.304 288.001
L325.402 288.01
L327.665 288.119
L327.763 288.128
L330.224 288.238
L330.323 288.246
L332.785 288.356
L332.882 288.365
L335.741 288.474
L335.839 288.48
L339.287 288.59
L339.386 288.598
L342.541 288.706
L342.64 288.715
L345.003 288.822
L345.102 288.831
L347.673 288.94
L347.771 288.949
L350.141 289.056
L350.239 289.066
L352.316 289.172
L352.416 289.183
L354.394 289.292
L354.492 289.304
L356.27 289.409
L356.369 289.422
L358.249 289.531
L358.348 289.543
L360.229 289.651
L360.327 289.662
L362.207 289.772
L362.306 289.785
L364.091 289.894
L364.191 289.907
L365.971 290.015
L366.07 290.027
L367.953 290.133
L368.051 290.145
L370.033 290.256
L370.132 290.267
L372.113 290.376
L372.212 290.387
L374.095 290.495
L374.196 290.508
L375.882 290.615
L375.982 290.629
L377.668 290.734
L377.767 290.747
L379.457 290.858
L379.556 290.872
L381.243 290.979
L381.342 290.992
L383.034 291.1
L383.132 291.114
L384.718 291.219
L384.817 291.233
L386.405 291.344
L386.504 291.358
L388.294 291.469
L388.393 291.482
L390.182 291.593
L390.283 291.605
L391.971 291.711
L392.07 291.724
L393.861 291.834
L393.96 291.846
L395.951 291.956
L396.05 291.967
L398.141 292.074
L398.24 292.085
L400.232 292.191
L400.331 292.202
L402.221 292.313
L402.321 292.326
L404.014 292.433
L404.114 292.447
L405.809 292.555
L405.909 292.568
L407.804 292.676
L407.904 292.688
L409.897 292.795
L409.996 292.807
L411.89 292.914
L411.989 292.926
L413.887 293.035
L413.986 293.047
L416.083 293.155
L416.183 293.166
L418.277 293.273
L418.377 293.284
L420.375 293.393
L420.475 293.403
L422.576 293.511
L422.676 293.522
L424.77 293.633
L424.87 293.644
L426.966 293.754
L427.067 293.764
L429.167 293.87
L429.268 293.881
L431.265 293.987
L431.365 293.999
L433.265 294.109
L433.364 294.121
L435.261 294.231
L435.362 294.243
L437.263 294.349
L437.363 294.361
L439.363 294.472
L439.463 294.483
L441.364 294.589
L441.464 294.6
L443.565 294.71
L443.665 294.72
L445.77 294.828
L445.87 294.838
L447.972 294.949
L448.073 294.959
L450.277 295.067
L450.377 295.077
L452.483 295.184
L452.584 295.194
L454.589 295.301
L454.689 295.312
L456.895 295.419
L456.995 295.429
L459.202 295.538
L459.301 295.548
L461.611 295.655
L461.711 295.665
L464.12 295.773
L464.22 295.782
L466.529 295.891
L466.629 295.901
L468.942 296.012
L469.042 296.021
L471.451 296.131
L471.552 296.14
L474.265 296.251
L474.366 296.259
L476.982 296.37
L477.081 296.378
L480.001 296.485
L480.102 296.494
L483.021 296.604
L483.122 296.612
L486.241 296.722
L486.342 296.729
L489.664 296.838
L489.765 296.844
L492.879 296.953
L492.98 296.961
L495.801 297.068
L495.901 297.076
L498.622 297.185
L498.723 297.193
L501.447 297.302
L501.548 297.31
L503.966 297.417
L504.066 297.427
L506.592 297.537
L506.692 297.546
L509.214 297.655
L509.316 297.664
L511.838 297.772
L511.939 297.781
L514.662 297.891
L514.764 297.899
L517.386 298.007
L517.486 298.015
L520.819 298.125
L520.92 298.131
L524.864 298.241
L524.965 298.247
L529.107 298.357
L529.209 298.363
L533.051 298.473
L533.151 298.48
L534.77 298.524
L534.77 298.527" style="fill:none;stroke:#0000ff;stroke-width:5.0;"/>
   </g>
   <g id="matplotlib.axis_1">
    <g id="xtick_1">
     <g id="line2d_2">
      <path d="
M54.7563 413.28
L54.7563 7.2" style="fill:none;stroke:#000000;stroke-dasharray:1.000000,3.000000;stroke-dashoffset:0.0;stroke-linecap:butt;stroke-width:0.5;"/>
     </g>
     <g id="line2d_3">
      <defs>
       <path d="
M0 0
L0 -4" id="m92920315b6"/>
      </defs>
      <g>
       <use style="stroke:#000000;stroke-linecap:butt;stroke-width:0.5;" x="54.75625" xlink:href="#m92920315b6" y="15.0092307692"/>
      </g>
     </g>
    </g>
    <g id="xtick_2">
     <g id="line2d_4">
      <path d="
M150.764 413.28
L150.764 7.2" style="fill:none;stroke:#000000;stroke-dasharray:1.000000,3.000000;stroke-dashoffset:0.0;stroke-linecap:butt;stroke-width:0.5;"/>
     </g>
     <g id="line2d_5">
      <defs>
       <path d="
M0 0
L0 -4" id="m92920315b6"/>
      </defs>
      <g>
       <use style="stroke:#000000;stroke-linecap:butt;stroke-width:0.5;" x="150.764024987" xlink:href="#m92920315b6" y="15.0092307692"/>
      </g>
     </g>
     <g id="text_1">
      <!-- 2e8 -->
      <defs>
       <path d="
M19.1875 8.29688
L53.6094 8.29688
L53.6094 0
L7.32812 0
L7.32812 8.29688
Q12.9375 14.1094 22.625 23.8906
Q32.3281 33.6875 34.8125 36.5312
Q39.5469 41.8438 41.4219 45.5312
Q43.3125 49.2188 43.3125 52.7812
Q43.3125 58.5938 39.2344 62.25
Q35.1562 65.9219 28.6094 65.9219
Q23.9688 65.9219 18.8125 64.3125
Q13.6719 62.7031 7.8125 59.4219
L7.8125 69.3906
Q13.7656 71.7812 18.9375 73
Q24.125 74.2188 28.4219 74.2188
Q39.75 74.2188 46.4844 68.5469
Q53.2188 62.8906 53.2188 53.4219
Q53.2188 48.9219 51.5312 44.8906
Q49.8594 40.875 45.4062 35.4062
Q44.1875 33.9844 37.6406 27.2188
Q31.1094 20.4531 19.1875 8.29688" id="BitstreamVeraSans-Roman-32"/>
       <path d="
M56.2031 29.5938
L56.2031 25.2031
L14.8906 25.2031
Q15.4844 15.9219 20.4844 11.0625
Q25.4844 6.20312 34.4219 6.20312
Q39.5938 6.20312 44.4531 7.46875
Q49.3125 8.73438 54.1094 11.2812
L54.1094 2.78125
Q49.2656 0.734375 44.1875 -0.34375
Q39.1094 -1.42188 33.8906 -1.42188
Q20.7969 -1.42188 13.1562 6.1875
Q5.51562 13.8125 5.51562 26.8125
Q5.51562 40.2344 12.7656 48.1094
Q20.0156 56 32.3281 56
Q43.3594 56 49.7812 48.8906
Q56.2031 41.7969 56.2031 29.5938
M47.2188 32.2344
Q47.125 39.5938 43.0938 43.9844
Q39.0625 48.3906 32.4219 48.3906
Q24.9062 48.3906 20.3906 44.1406
Q15.875 39.8906 15.1875 32.1719
z
" id="BitstreamVeraSans-Roman-65"/>
       <path d="
M31.7812 34.625
Q24.75 34.625 20.7188 30.8594
Q16.7031 27.0938 16.7031 20.5156
Q16.7031 13.9219 20.7188 10.1562
Q24.75 6.39062 31.7812 6.39062
Q38.8125 6.39062 42.8594 10.1719
Q46.9219 13.9688 46.9219 20.5156
Q46.9219 27.0938 42.8906 30.8594
Q38.875 34.625 31.7812 34.625
M21.9219 38.8125
Q15.5781 40.375 12.0312 44.7188
Q8.5 49.0781 8.5 55.3281
Q8.5 64.0625 14.7188 69.1406
Q20.9531 74.2188 31.7812 74.2188
Q42.6719 74.2188 48.875 69.1406
Q55.0781 64.0625 55.0781 55.3281
Q55.0781 49.0781 51.5312 44.7188
Q48 40.375 41.7031 38.8125
Q48.8281 37.1562 52.7969 32.3125
Q56.7812 27.4844 56.7812 20.5156
Q56.7812 9.90625 50.3125 4.23438
Q43.8438 -1.42188 31.7812 -1.42188
Q19.7344 -1.42188 13.25 4.23438
Q6.78125 9.90625 6.78125 20.5156
Q6.78125 27.4844 10.7812 32.3125
Q14.7969 37.1562 21.9219 38.8125
M18.3125 54.3906
Q18.3125 48.7344 21.8438 45.5625
Q25.3906 42.3906 31.7812 42.3906
Q38.1406 42.3906 41.7188 45.5625
Q45.3125 48.7344 45.3125 54.3906
Q45.3125 60.0625 41.7188 63.2344
Q38.1406 66.4062 31.7812 66.4062
Q25.3906 66.4062 21.8438 63.2344
Q18.3125 60.0625 18.3125 54.3906" id="BitstreamVeraSans-Roman-38"/>
      </defs>
      <g transform="translate(129.810899987 36.8217307692)scale(0.24 -0.24)">
       <use xlink:href="#BitstreamVeraSans-Roman-32"/>
       <use x="63.623046875" xlink:href="#BitstreamVeraSans-Roman-65"/>
       <use x="125.146484375" xlink:href="#BitstreamVeraSans-Roman-38"/>
      </g>
     </g>
    </g>
    <g id="xtick_3">
     <g id="line2d_6">
      <path d="
M246.772 413.28
L246.772 7.2" style="fill:none;stroke:#000000;stroke-dasharray:1.000000,3.000000;stroke-dashoffset:0.0;stroke-linecap:butt;stroke-width:0.5;"/>
     </g>
     <g id="line2d_7">
      <defs>
       <path d="
M0 0
L0 -4" id="m92920315b6"/>
      </defs>
      <g>
       <use style="stroke:#000000;stroke-linecap:butt;stroke-width:0.5;" x="246.771799973" xlink:href="#m92920315b6" y="15.0092307692"/>
      </g>
     </g>
     <g id="text_2">
      <!-- 4e8 -->
      <defs>
       <path d="
M37.7969 64.3125
L12.8906 25.3906
L37.7969 25.3906
z

M35.2031 72.9062
L47.6094 72.9062
L47.6094 25.3906
L58.0156 25.3906
L58.0156 17.1875
L47.6094 17.1875
L47.6094 0
L37.7969 0
L37.7969 17.1875
L4.89062 17.1875
L4.89062 26.7031
z
" id="BitstreamVeraSans-Roman-34"/>
      </defs>
      <g transform="translate(225.526174973 36.8217307692)scale(0.24 -0.24)">
       <use xlink:href="#BitstreamVeraSans-Roman-34"/>
       <use x="63.623046875" xlink:href="#BitstreamVeraSans-Roman-65"/>
       <use x="125.146484375" xlink:href="#BitstreamVeraSans-Roman-38"/>
      </g>
     </g>
    </g>
    <g id="xtick_4">
     <g id="line2d_8">
      <path d="
M342.78 413.28
L342.78 7.2" style="fill:none;stroke:#000000;stroke-dasharray:1.000000,3.000000;stroke-dashoffset:0.0;stroke-linecap:butt;stroke-width:0.5;"/>
     </g>
     <g id="line2d_9">
      <defs>
       <path d="
M0 0
L0 -4" id="m92920315b6"/>
      </defs>
      <g>
       <use style="stroke:#000000;stroke-linecap:butt;stroke-width:0.5;" x="342.77957496" xlink:href="#m92920315b6" y="15.0092307692"/>
      </g>
     </g>
     <g id="text_3">
      <!-- 6e8 -->
      <defs>
       <path d="
M33.0156 40.375
Q26.375 40.375 22.4844 35.8281
Q18.6094 31.2969 18.6094 23.3906
Q18.6094 15.5312 22.4844 10.9531
Q26.375 6.39062 33.0156 6.39062
Q39.6562 6.39062 43.5312 10.9531
Q47.4062 15.5312 47.4062 23.3906
Q47.4062 31.2969 43.5312 35.8281
Q39.6562 40.375 33.0156 40.375
M52.5938 71.2969
L52.5938 62.3125
Q48.875 64.0625 45.0938 64.9844
Q41.3125 65.9219 37.5938 65.9219
Q27.8281 65.9219 22.6719 59.3281
Q17.5312 52.7344 16.7969 39.4062
Q19.6719 43.6562 24.0156 45.9219
Q28.375 48.1875 33.5938 48.1875
Q44.5781 48.1875 50.9531 41.5156
Q57.3281 34.8594 57.3281 23.3906
Q57.3281 12.1562 50.6875 5.35938
Q44.0469 -1.42188 33.0156 -1.42188
Q20.3594 -1.42188 13.6719 8.26562
Q6.98438 17.9688 6.98438 36.375
Q6.98438 53.6562 15.1875 63.9375
Q23.3906 74.2188 37.2031 74.2188
Q40.9219 74.2188 44.7031 73.4844
Q48.4844 72.75 52.5938 71.2969" id="BitstreamVeraSans-Roman-36"/>
      </defs>
      <g transform="translate(321.78519996 36.8217307692)scale(0.24 -0.24)">
       <use xlink:href="#BitstreamVeraSans-Roman-36"/>
       <use x="63.623046875" xlink:href="#BitstreamVeraSans-Roman-65"/>
       <use x="125.146484375" xlink:href="#BitstreamVeraSans-Roman-38"/>
      </g>
     </g>
    </g>
    <g id="xtick_5">
     <g id="line2d_10">
      <path d="
M438.787 413.28
L438.787 7.2" style="fill:none;stroke:#000000;stroke-dasharray:1.000000,3.000000;stroke-dashoffset:0.0;stroke-linecap:butt;stroke-width:0.5;"/>
     </g>
     <g id="line2d_11">
      <defs>
       <path d="
M0 0
L0 -4" id="m92920315b6"/>
      </defs>
      <g>
       <use style="stroke:#000000;stroke-linecap:butt;stroke-width:0.5;" x="438.787349947" xlink:href="#m92920315b6" y="15.0092307692"/>
      </g>
     </g>
     <g id="text_4">
      <!-- 8e8 -->
      <g transform="translate(417.768599947 36.8217307692)scale(0.24 -0.24)">
       <use xlink:href="#BitstreamVeraSans-Roman-38"/>
       <use x="63.623046875" xlink:href="#BitstreamVeraSans-Roman-65"/>
       <use x="125.146484375" xlink:href="#BitstreamVeraSans-Roman-38"/>
      </g>
     </g>
    </g>
    <g id="xtick_6">
     <g id="line2d_12">
      <path d="
M534.795 413.28
L534.795 7.2" style="fill:none;stroke:#000000;stroke-dasharray:1.000000,3.000000;stroke-dashoffset:0.0;stroke-linecap:butt;stroke-width:0.5;"/>
     </g>
     <g id="line2d_13">
      <defs>
       <path d="
M0 0
L0 -4" id="m92920315b6"/>
      </defs>
      <g>
       <use style="stroke:#000000;stroke-linecap:butt;stroke-width:0.5;" x="534.795124933" xlink:href="#m92920315b6" y="15.0092307692"/>
      </g>
     </g>
     <g id="text_5">
      <!-- 1e9 -->
      <defs>
       <path d="
M10.9844 1.51562
L10.9844 10.5
Q14.7031 8.73438 18.5 7.8125
Q22.3125 6.89062 25.9844 6.89062
Q35.75 6.89062 40.8906 13.4531
Q46.0469 20.0156 46.7812 33.4062
Q43.9531 29.2031 39.5938 26.9531
Q35.25 24.7031 29.9844 24.7031
Q19.0469 24.7031 12.6719 31.3125
Q6.29688 37.9375 6.29688 49.4219
Q6.29688 60.6406 12.9375 67.4219
Q19.5781 74.2188 30.6094 74.2188
Q43.2656 74.2188 49.9219 64.5156
Q56.5938 54.8281 56.5938 36.375
Q56.5938 19.1406 48.4062 8.85938
Q40.2344 -1.42188 26.4219 -1.42188
Q22.7031 -1.42188 18.8906 -0.6875
Q15.0938 0.046875 10.9844 1.51562
M30.6094 32.4219
Q37.25 32.4219 41.125 36.9531
Q45.0156 41.5 45.0156 49.4219
Q45.0156 57.2812 41.125 61.8438
Q37.25 66.4062 30.6094 66.4062
Q23.9688 66.4062 20.0938 61.8438
Q16.2188 57.2812 16.2188 49.4219
Q16.2188 41.5 20.0938 36.9531
Q23.9688 32.4219 30.6094 32.4219" id="BitstreamVeraSans-Roman-39"/>
       <path d="
M12.4062 8.29688
L28.5156 8.29688
L28.5156 63.9219
L10.9844 60.4062
L10.9844 69.3906
L28.4219 72.9062
L38.2812 72.9062
L38.2812 8.29688
L54.3906 8.29688
L54.3906 0
L12.4062 0
z
" id="BitstreamVeraSans-Roman-31"/>
      </defs>
      <g transform="translate(514.303249933 36.8217307692)scale(0.24 -0.24)">
       <use xlink:href="#BitstreamVeraSans-Roman-31"/>
       <use x="63.623046875" xlink:href="#BitstreamVeraSans-Roman-65"/>
       <use x="125.146484375" xlink:href="#BitstreamVeraSans-Roman-39"/>
      </g>
     </g>
    </g>
    <g id="xtick_7">
     <g id="line2d_14">
      <defs>
       <path d="
M0 0
L0 -2" id="md09256ca22"/>
      </defs>
      <g>
       <use style="stroke:#000000;stroke-linecap:butt;stroke-width:0.5;" x="78.7581937467" xlink:href="#md09256ca22" y="15.0092307692"/>
      </g>
     </g>
    </g>
    <g id="xtick_8">
     <g id="line2d_15">
      <defs>
       <path d="
M0 0
L0 -2" id="md09256ca22"/>
      </defs>
      <g>
       <use style="stroke:#000000;stroke-linecap:butt;stroke-width:0.5;" x="102.760137493" xlink:href="#md09256ca22" y="15.0092307692"/>
      </g>
     </g>
    </g>
    <g id="xtick_9">
     <g id="line2d_16">
      <defs>
       <path d="
M0 0
L0 -2" id="md09256ca22"/>
      </defs>
      <g>
       <use style="stroke:#000000;stroke-linecap:butt;stroke-width:0.5;" x="126.76208124" xlink:href="#md09256ca22" y="15.0092307692"/>
      </g>
     </g>
    </g>
    <g id="xtick_10">
     <g id="line2d_17">
      <defs>
       <path d="
M0 0
L0 -2" id="md09256ca22"/>
      </defs>
      <g>
       <use style="stroke:#000000;stroke-linecap:butt;stroke-width:0.5;" x="174.765968733" xlink:href="#md09256ca22" y="15.0092307692"/>
      </g>
     </g>
    </g>
    <g id="xtick_11">
     <g id="line2d_18">
      <defs>
       <path d="
M0 0
L0 -2" id="md09256ca22"/>
      </defs>
      <g>
       <use style="stroke:#000000;stroke-linecap:butt;stroke-width:0.5;" x="198.76791248" xlink:href="#md09256ca22" y="15.0092307692"/>
      </g>
     </g>
    </g>
    <g id="xtick_12">
     <g id="line2d_19">
      <defs>
       <path d="
M0 0
L0 -2" id="md09256ca22"/>
      </defs>
      <g>
       <use style="stroke:#000000;stroke-linecap:butt;stroke-width:0.5;" x="222.769856227" xlink:href="#md09256ca22" y="15.0092307692"/>
      </g>
     </g>
    </g>
    <g id="xtick_13">
     <g id="line2d_20">
      <defs>
       <path d="
M0 0
L0 -2" id="md09256ca22"/>
      </defs>
      <g>
       <use style="stroke:#000000;stroke-linecap:butt;stroke-width:0.5;" x="270.77374372" xlink:href="#md09256ca22" y="15.0092307692"/>
      </g>
     </g>
    </g>
    <g id="xtick_14">
     <g id="line2d_21">
      <defs>
       <path d="
M0 0
L0 -2" id="md09256ca22"/>
      </defs>
      <g>
       <use style="stroke:#000000;stroke-linecap:butt;stroke-width:0.5;" x="294.775687467" xlink:href="#md09256ca22" y="15.0092307692"/>
      </g>
     </g>
    </g>
    <g id="xtick_15">
     <g id="line2d_22">
      <defs>
       <path d="
M0 0
L0 -2" id="md09256ca22"/>
      </defs>
      <g>
       <use style="stroke:#000000;stroke-linecap:butt;stroke-width:0.5;" x="318.777631213" xlink:href="#md09256ca22" y="15.0092307692"/>
      </g>
     </g>
    </g>
    <g id="xtick_16">
     <g id="line2d_23">
      <defs>
       <path d="
M0 0
L0 -2" id="md09256ca22"/>
      </defs>
      <g>
       <use style="stroke:#000000;stroke-linecap:butt;stroke-width:0.5;" x="366.781518707" xlink:href="#md09256ca22" y="15.0092307692"/>
      </g>
     </g>
    </g>
    <g id="xtick_17">
     <g id="line2d_24">
      <defs>
       <path d="
M0 0
L0 -2" id="md09256ca22"/>
      </defs>
      <g>
       <use style="stroke:#000000;stroke-linecap:butt;stroke-width:0.5;" x="390.783462453" xlink:href="#md09256ca22" y="15.0092307692"/>
      </g>
     </g>
    </g>
    <g id="xtick_18">
     <g id="line2d_25">
      <defs>
       <path d="
M0 0
L0 -2" id="md09256ca22"/>
      </defs>
      <g>
       <use style="stroke:#000000;stroke-linecap:butt;stroke-width:0.5;" x="414.7854062" xlink:href="#md09256ca22" y="15.0092307692"/>
      </g>
     </g>
    </g>
    <g id="xtick_19">
     <g id="line2d_26">
      <defs>
       <path d="
M0 0
L0 -2" id="md09256ca22"/>
      </defs>
      <g>
       <use style="stroke:#000000;stroke-linecap:butt;stroke-width:0.5;" x="462.789293693" xlink:href="#md09256ca22" y="15.0092307692"/>
      </g>
     </g>
    </g>
    <g id="xtick_20">
     <g id="line2d_27">
      <defs>
       <path d="
M0 0
L0 -2" id="md09256ca22"/>
      </defs>
      <g>
       <use style="stroke:#000000;stroke-linecap:butt;stroke-width:0.5;" x="486.79123744" xlink:href="#md09256ca22" y="15.0092307692"/>
      </g>
     </g>
    </g>
    <g id="xtick_21">
     <g id="line2d_28">
      <defs>
       <path d="
M0 0
L0 -2" id="md09256ca22"/>
      </defs>
      <g>
       <use style="stroke:#000000;stroke-linecap:butt;stroke-width:0.5;" x="510.793181187" xlink:href="#md09256ca22" y="15.0092307692"/>
      </g>
     </g>
    </g>
   </g>
   <g id="matplotlib.axis_2">
    <g id="ytick_1">
     <g id="line2d_29">
      <path d="
M45.156 388.377
L544.37 388.377" style="fill:none;stroke:#000000;stroke-dasharray:1.000000,3.000000;stroke-dashoffset:0.0;stroke-linecap:butt;stroke-width:0.5;"/>
     </g>
     <g id="line2d_30">
      <defs>
       <path d="
M0 0
L4 0" id="m4a6ce852de"/>
      </defs>
      <g>
       <use style="stroke:#000000;stroke-linecap:butt;stroke-width:0.5;" x="54.75625" xlink:href="#m4a6ce852de" y="388.377424337"/>
      </g>
     </g>
     <g id="text_6">
      <!-- -3.5 -->
      <defs>
       <path d="
M40.5781 39.3125
Q47.6562 37.7969 51.625 33
Q55.6094 28.2188 55.6094 21.1875
Q55.6094 10.4062 48.1875 4.48438
Q40.7656 -1.42188 27.0938 -1.42188
Q22.5156 -1.42188 17.6562 -0.515625
Q12.7969 0.390625 7.625 2.20312
L7.625 11.7188
Q11.7188 9.32812 16.5938 8.10938
Q21.4844 6.89062 26.8125 6.89062
Q36.0781 6.89062 40.9375 10.5469
Q45.7969 14.2031 45.7969 21.1875
Q45.7969 27.6406 41.2812 31.2656
Q36.7656 34.9062 28.7188 34.9062
L20.2188 34.9062
L20.2188 43.0156
L29.1094 43.0156
Q36.375 43.0156 40.2344 45.9219
Q44.0938 48.8281 44.0938 54.2969
Q44.0938 59.9062 40.1094 62.9062
Q36.1406 65.9219 28.7188 65.9219
Q24.6562 65.9219 20.0156 65.0312
Q15.375 64.1562 9.8125 62.3125
L9.8125 71.0938
Q15.4375 72.6562 20.3438 73.4375
Q25.25 74.2188 29.5938 74.2188
Q40.8281 74.2188 47.3594 69.1094
Q53.9062 64.0156 53.9062 55.3281
Q53.9062 49.2656 50.4375 45.0938
Q46.9688 40.9219 40.5781 39.3125" id="BitstreamVeraSans-Roman-33"/>
       <path d="
M10.6875 12.4062
L21 12.4062
L21 0
L10.6875 0
z
" id="BitstreamVeraSans-Roman-2e"/>
       <path d="
M4.89062 31.3906
L31.2031 31.3906
L31.2031 23.3906
L4.89062 23.3906
z
" id="BitstreamVeraSans-Roman-2d"/>
       <path d="
M10.7969 72.9062
L49.5156 72.9062
L49.5156 64.5938
L19.8281 64.5938
L19.8281 46.7344
Q21.9688 47.4688 24.1094 47.8281
Q26.2656 48.1875 28.4219 48.1875
Q40.625 48.1875 47.75 41.5
Q54.8906 34.8125 54.8906 23.3906
Q54.8906 11.625 47.5625 5.09375
Q40.2344 -1.42188 26.9062 -1.42188
Q22.3125 -1.42188 17.5469 -0.640625
Q12.7969 0.140625 7.71875 1.70312
L7.71875 11.625
Q12.1094 9.23438 16.7969 8.0625
Q21.4844 6.89062 26.7031 6.89062
Q35.1562 6.89062 40.0781 11.3281
Q45.0156 15.7656 45.0156 23.3906
Q45.0156 31 40.0781 35.4375
Q35.1562 39.8906 26.7031 39.8906
Q22.75 39.8906 18.8125 39.0156
Q14.8906 38.1406 10.7969 36.2812
z
" id="BitstreamVeraSans-Roman-35"/>
      </defs>
      <g transform="translate(7.2 397.113049337)scale(0.24 -0.24)">
       <use xlink:href="#BitstreamVeraSans-Roman-2d"/>
       <use x="36.083984375" xlink:href="#BitstreamVeraSans-Roman-33"/>
       <use x="99.70703125" xlink:href="#BitstreamVeraSans-Roman-2e"/>
       <use x="131.494140625" xlink:href="#BitstreamVeraSans-Roman-35"/>
      </g>
     </g>
    </g>
    <g id="ytick_2">
     <g id="line2d_31">
      <path d="
M45.156 335.039
L544.37 335.039" style="fill:none;stroke:#000000;stroke-dasharray:1.000000,3.000000;stroke-dashoffset:0.0;stroke-linecap:butt;stroke-width:0.5;"/>
     </g>
     <g id="line2d_32">
      <defs>
       <path d="
M0 0
L4 0" id="m4a6ce852de"/>
      </defs>
      <g>
       <use style="stroke:#000000;stroke-linecap:butt;stroke-width:0.5;" x="54.75625" xlink:href="#m4a6ce852de" y="335.03911097"/>
      </g>
     </g>
     <g id="text_7">
      <!-- -3 -->
      <g transform="translate(29.925 343.77473597)scale(0.24 -0.24)">
       <use xlink:href="#BitstreamVeraSans-Roman-2d"/>
       <use x="36.083984375" xlink:href="#BitstreamVeraSans-Roman-33"/>
      </g>
     </g>
    </g>
    <g id="ytick_3">
     <g id="line2d_33">
      <path d="
M45.156 281.701
L544.37 281.701" style="fill:none;stroke:#000000;stroke-dasharray:1.000000,3.000000;stroke-dashoffset:0.0;stroke-linecap:butt;stroke-width:0.5;"/>
     </g>
     <g id="line2d_34">
      <defs>
       <path d="
M0 0
L4 0" id="m4a6ce852de"/>
      </defs>
      <g>
       <use style="stroke:#000000;stroke-linecap:butt;stroke-width:0.5;" x="54.75625" xlink:href="#m4a6ce852de" y="281.700797603"/>
      </g>
     </g>
     <g id="text_8">
      <!-- -2.5 -->
      <g transform="translate(7.2 290.436422603)scale(0.24 -0.24)">
       <use xlink:href="#BitstreamVeraSans-Roman-2d"/>
       <use x="36.083984375" xlink:href="#BitstreamVeraSans-Roman-32"/>
       <use x="99.70703125" xlink:href="#BitstreamVeraSans-Roman-2e"/>
       <use x="131.494140625" xlink:href="#BitstreamVeraSans-Roman-35"/>
      </g>
     </g>
    </g>
    <g id="ytick_4">
     <g id="line2d_35">
      <path d="
M45.156 228.362
L544.37 228.362" style="fill:none;stroke:#000000;stroke-dasharray:1.000000,3.000000;stroke-dashoffset:0.0;stroke-linecap:butt;stroke-width:0.5;"/>
     </g>
     <g id="line2d_36">
      <defs>
       <path d="
M0 0
L4 0" id="m4a6ce852de"/>
      </defs>
      <g>
       <use style="stroke:#000000;stroke-linecap:butt;stroke-width:0.5;" x="54.75625" xlink:href="#m4a6ce852de" y="228.362484236"/>
      </g>
     </g>
     <g id="text_9">
      <!-- -2 -->
      <g transform="translate(30.405 237.268734236)scale(0.24 -0.24)">
       <use xlink:href="#BitstreamVeraSans-Roman-2d"/>
       <use x="36.083984375" xlink:href="#BitstreamVeraSans-Roman-32"/>
      </g>
     </g>
    </g>
    <g id="ytick_5">
     <g id="line2d_37">
      <path d="
M45.156 175.024
L544.37 175.024" style="fill:none;stroke:#000000;stroke-dasharray:1.000000,3.000000;stroke-dashoffset:0.0;stroke-linecap:butt;stroke-width:0.5;"/>
     </g>
     <g id="line2d_38">
      <defs>
       <path d="
M0 0
L4 0" id="m4a6ce852de"/>
      </defs>
      <g>
       <use style="stroke:#000000;stroke-linecap:butt;stroke-width:0.5;" x="54.75625" xlink:href="#m4a6ce852de" y="175.02417087"/>
      </g>
     </g>
     <g id="text_10">
      <!-- -1.5 -->
      <g transform="translate(7.2 183.60229587)scale(0.24 -0.24)">
       <use xlink:href="#BitstreamVeraSans-Roman-2d"/>
       <use x="36.083984375" xlink:href="#BitstreamVeraSans-Roman-31"/>
       <use x="99.70703125" xlink:href="#BitstreamVeraSans-Roman-2e"/>
       <use x="131.494140625" xlink:href="#BitstreamVeraSans-Roman-35"/>
      </g>
     </g>
    </g>
    <g id="ytick_6">
     <g id="line2d_39">
      <path d="
M45.156 121.686
L544.37 121.686" style="fill:none;stroke:#000000;stroke-dasharray:1.000000,3.000000;stroke-dashoffset:0.0;stroke-linecap:butt;stroke-width:0.5;"/>
     </g>
     <g id="line2d_40">
      <defs>
       <path d="
M0 0
L4 0" id="m4a6ce852de"/>
      </defs>
      <g>
       <use style="stroke:#000000;stroke-linecap:butt;stroke-width:0.5;" x="54.75625" xlink:href="#m4a6ce852de" y="121.685857503"/>
      </g>
     </g>
     <g id="text_11">
      <!-- -1 -->
      <g transform="translate(30.2175 130.434607503)scale(0.24 -0.24)">
       <use xlink:href="#BitstreamVeraSans-Roman-2d"/>
       <use x="36.083984375" xlink:href="#BitstreamVeraSans-Roman-31"/>
      </g>
     </g>
    </g>
    <g id="ytick_7">
     <g id="line2d_41">
      <path d="
M45.156 68.3475
L544.37 68.3475" style="fill:none;stroke:#000000;stroke-dasharray:1.000000,3.000000;stroke-dashoffset:0.0;stroke-linecap:butt;stroke-width:0.5;"/>
     </g>
     <g id="line2d_42">
      <defs>
       <path d="
M0 0
L4 0" id="m4a6ce852de"/>
      </defs>
      <g>
       <use style="stroke:#000000;stroke-linecap:butt;stroke-width:0.5;" x="54.75625" xlink:href="#m4a6ce852de" y="68.347544136"/>
      </g>
     </g>
     <g id="text_12">
      <!-- -0.5 -->
      <defs>
       <path d="
M31.7812 66.4062
Q24.1719 66.4062 20.3281 58.9062
Q16.5 51.4219 16.5 36.375
Q16.5 21.3906 20.3281 13.8906
Q24.1719 6.39062 31.7812 6.39062
Q39.4531 6.39062 43.2812 13.8906
Q47.125 21.3906 47.125 36.375
Q47.125 51.4219 43.2812 58.9062
Q39.4531 66.4062 31.7812 66.4062
M31.7812 74.2188
Q44.0469 74.2188 50.5156 64.5156
Q56.9844 54.8281 56.9844 36.375
Q56.9844 17.9688 50.5156 8.26562
Q44.0469 -1.42188 31.7812 -1.42188
Q19.5312 -1.42188 13.0625 8.26562
Q6.59375 17.9688 6.59375 36.375
Q6.59375 54.8281 13.0625 64.5156
Q19.5312 74.2188 31.7812 74.2188" id="BitstreamVeraSans-Roman-30"/>
      </defs>
      <g transform="translate(7.2 77.083169136)scale(0.24 -0.24)">
       <use xlink:href="#BitstreamVeraSans-Roman-2d"/>
       <use x="36.083984375" xlink:href="#BitstreamVeraSans-Roman-30"/>
       <use x="99.70703125" xlink:href="#BitstreamVeraSans-Roman-2e"/>
       <use x="131.494140625" xlink:href="#BitstreamVeraSans-Roman-35"/>
      </g>
     </g>
    </g>
    <g id="ytick_8">
     <g id="line2d_43">
      <path d="
M45.156 15.0092
L544.37 15.0092" style="fill:none;stroke:#000000;stroke-dasharray:1.000000,3.000000;stroke-dashoffset:0.0;stroke-linecap:butt;stroke-width:0.5;"/>
     </g>
     <g id="line2d_44">
      <defs>
       <path d="
M0 0
L4 0" id="m4a6ce852de"/>
      </defs>
      <g>
       <use style="stroke:#000000;stroke-linecap:butt;stroke-width:0.5;" x="54.75625" xlink:href="#m4a6ce852de" y="15.0092307692"/>
      </g>
     </g>
    </g>
    <g id="ytick_9">
     <g id="line2d_45">
      <defs>
       <path d="
M0 0
L2 0" id="mc31bed125d"/>
      </defs>
      <g>
       <use style="stroke:#000000;stroke-linecap:butt;stroke-width:0.5;" x="54.75625" xlink:href="#mc31bed125d" y="409.712749683"/>
      </g>
     </g>
    </g>
    <g id="ytick_10">
     <g id="line2d_46">
      <defs>
       <path d="
M0 0
L2 0" id="mc31bed125d"/>
      </defs>
      <g>
       <use style="stroke:#000000;stroke-linecap:butt;stroke-width:0.5;" x="54.75625" xlink:href="#mc31bed125d" y="399.04508701"/>
      </g>
     </g>
    </g>
    <g id="ytick_11">
     <g id="line2d_47">
      <defs>
       <path d="
M0 0
L2 0" id="mc31bed125d"/>
      </defs>
      <g>
       <use style="stroke:#000000;stroke-linecap:butt;stroke-width:0.5;" x="54.75625" xlink:href="#mc31bed125d" y="377.709761663"/>
      </g>
     </g>
    </g>
    <g id="ytick_12">
     <g id="line2d_48">
      <defs>
       <path d="
M0 0
L2 0" id="mc31bed125d"/>
      </defs>
      <g>
       <use style="stroke:#000000;stroke-linecap:butt;stroke-width:0.5;" x="54.75625" xlink:href="#mc31bed125d" y="367.04209899"/>
      </g>
     </g>
    </g>
    <g id="ytick_13">
     <g id="line2d_49">
      <defs>
       <path d="
M0 0
L2 0" id="mc31bed125d"/>
      </defs>
      <g>
       <use style="stroke:#000000;stroke-linecap:butt;stroke-width:0.5;" x="54.75625" xlink:href="#mc31bed125d" y="356.374436317"/>
      </g>
     </g>
    </g>
    <g id="ytick_14">
     <g id="line2d_50">
      <defs>
       <path d="
M0 0
L2 0" id="mc31bed125d"/>
      </defs>
      <g>
       <use style="stroke:#000000;stroke-linecap:butt;stroke-width:0.5;" x="54.75625" xlink:href="#mc31bed125d" y="345.706773643"/>
      </g>
     </g>
    </g>
    <g id="ytick_15">
     <g id="line2d_51">
      <defs>
       <path d="
M0 0
L2 0" id="mc31bed125d"/>
      </defs>
      <g>
       <use style="stroke:#000000;stroke-linecap:butt;stroke-width:0.5;" x="54.75625" xlink:href="#mc31bed125d" y="324.371448297"/>
      </g>
     </g>
    </g>
    <g id="ytick_16">
     <g id="line2d_52">
      <defs>
       <path d="
M0 0
L2 0" id="mc31bed125d"/>
      </defs>
      <g>
       <use style="stroke:#000000;stroke-linecap:butt;stroke-width:0.5;" x="54.75625" xlink:href="#mc31bed125d" y="313.703785623"/>
      </g>
     </g>
    </g>
    <g id="ytick_17">
     <g id="line2d_53">
      <defs>
       <path d="
M0 0
L2 0" id="mc31bed125d"/>
      </defs>
      <g>
       <use style="stroke:#000000;stroke-linecap:butt;stroke-width:0.5;" x="54.75625" xlink:href="#mc31bed125d" y="303.03612295"/>
      </g>
     </g>
    </g>
    <g id="ytick_18">
     <g id="line2d_54">
      <defs>
       <path d="
M0 0
L2 0" id="mc31bed125d"/>
      </defs>
      <g>
       <use style="stroke:#000000;stroke-linecap:butt;stroke-width:0.5;" x="54.75625" xlink:href="#mc31bed125d" y="292.368460276"/>
      </g>
     </g>
    </g>
    <g id="ytick_19">
     <g id="line2d_55">
      <defs>
       <path d="
M0 0
L2 0" id="mc31bed125d"/>
      </defs>
      <g>
       <use style="stroke:#000000;stroke-linecap:butt;stroke-width:0.5;" x="54.75625" xlink:href="#mc31bed125d" y="271.03313493"/>
      </g>
     </g>
    </g>
    <g id="ytick_20">
     <g id="line2d_56">
      <defs>
       <path d="
M0 0
L2 0" id="mc31bed125d"/>
      </defs>
      <g>
       <use style="stroke:#000000;stroke-linecap:butt;stroke-width:0.5;" x="54.75625" xlink:href="#mc31bed125d" y="260.365472256"/>
      </g>
     </g>
    </g>
    <g id="ytick_21">
     <g id="line2d_57">
      <defs>
       <path d="
M0 0
L2 0" id="mc31bed125d"/>
      </defs>
      <g>
       <use style="stroke:#000000;stroke-linecap:butt;stroke-width:0.5;" x="54.75625" xlink:href="#mc31bed125d" y="249.697809583"/>
      </g>
     </g>
    </g>
    <g id="ytick_22">
     <g id="line2d_58">
      <defs>
       <path d="
M0 0
L2 0" id="mc31bed125d"/>
      </defs>
      <g>
       <use style="stroke:#000000;stroke-linecap:butt;stroke-width:0.5;" x="54.75625" xlink:href="#mc31bed125d" y="239.03014691"/>
      </g>
     </g>
    </g>
    <g id="ytick_23">
     <g id="line2d_59">
      <defs>
       <path d="
M0 0
L2 0" id="mc31bed125d"/>
      </defs>
      <g>
       <use style="stroke:#000000;stroke-linecap:butt;stroke-width:0.5;" x="54.75625" xlink:href="#mc31bed125d" y="217.694821563"/>
      </g>
     </g>
    </g>
    <g id="ytick_24">
     <g id="line2d_60">
      <defs>
       <path d="
M0 0
L2 0" id="mc31bed125d"/>
      </defs>
      <g>
       <use style="stroke:#000000;stroke-linecap:butt;stroke-width:0.5;" x="54.75625" xlink:href="#mc31bed125d" y="207.02715889"/>
      </g>
     </g>
    </g>
    <g id="ytick_25">
     <g id="line2d_61">
      <defs>
       <path d="
M0 0
L2 0" id="mc31bed125d"/>
      </defs>
      <g>
       <use style="stroke:#000000;stroke-linecap:butt;stroke-width:0.5;" x="54.75625" xlink:href="#mc31bed125d" y="196.359496216"/>
      </g>
     </g>
    </g>
    <g id="ytick_26">
     <g id="line2d_62">
      <defs>
       <path d="
M0 0
L2 0" id="mc31bed125d"/>
      </defs>
      <g>
       <use style="stroke:#000000;stroke-linecap:butt;stroke-width:0.5;" x="54.75625" xlink:href="#mc31bed125d" y="185.691833543"/>
      </g>
     </g>
    </g>
    <g id="ytick_27">
     <g id="line2d_63">
      <defs>
       <path d="
M0 0
L2 0" id="mc31bed125d"/>
      </defs>
      <g>
       <use style="stroke:#000000;stroke-linecap:butt;stroke-width:0.5;" x="54.75625" xlink:href="#mc31bed125d" y="175.02417087"/>
      </g>
     </g>
    </g>
    <g id="ytick_28">
     <g id="line2d_64">
      <defs>
       <path d="
M0 0
L2 0" id="mc31bed125d"/>
      </defs>
      <g>
       <use style="stroke:#000000;stroke-linecap:butt;stroke-width:0.5;" x="54.75625" xlink:href="#mc31bed125d" y="164.356508196"/>
      </g>
     </g>
    </g>
    <g id="ytick_29">
     <g id="line2d_65">
      <defs>
       <path d="
M0 0
L2 0" id="mc31bed125d"/>
      </defs>
      <g>
       <use style="stroke:#000000;stroke-linecap:butt;stroke-width:0.5;" x="54.75625" xlink:href="#mc31bed125d" y="153.688845523"/>
      </g>
     </g>
    </g>
    <g id="ytick_30">
     <g id="line2d_66">
      <defs>
       <path d="
M0 0
L2 0" id="mc31bed125d"/>
      </defs>
      <g>
       <use style="stroke:#000000;stroke-linecap:butt;stroke-width:0.5;" x="54.75625" xlink:href="#mc31bed125d" y="143.021182849"/>
      </g>
     </g>
    </g>
    <g id="ytick_31">
     <g id="line2d_67">
      <defs>
       <path d="
M0 0
L2 0" id="mc31bed125d"/>
      </defs>
      <g>
       <use style="stroke:#000000;stroke-linecap:butt;stroke-width:0.5;" x="54.75625" xlink:href="#mc31bed125d" y="132.353520176"/>
      </g>
     </g>
    </g>
    <g id="ytick_32">
     <g id="line2d_68">
      <defs>
       <path d="
M0 0
L2 0" id="mc31bed125d"/>
      </defs>
      <g>
       <use style="stroke:#000000;stroke-linecap:butt;stroke-width:0.5;" x="54.75625" xlink:href="#mc31bed125d" y="121.685857503"/>
      </g>
     </g>
    </g>
    <g id="ytick_33">
     <g id="line2d_69">
      <defs>
       <path d="
M0 0
L2 0" id="mc31bed125d"/>
      </defs>
      <g>
       <use style="stroke:#000000;stroke-linecap:butt;stroke-width:0.5;" x="54.75625" xlink:href="#mc31bed125d" y="111.018194829"/>
      </g>
     </g>
    </g>
    <g id="ytick_34">
     <g id="line2d_70">
      <defs>
       <path d="
M0 0
L2 0" id="mc31bed125d"/>
      </defs>
      <g>
       <use style="stroke:#000000;stroke-linecap:butt;stroke-width:0.5;" x="54.75625" xlink:href="#mc31bed125d" y="100.350532156"/>
      </g>
     </g>
    </g>
    <g id="ytick_35">
     <g id="line2d_71">
      <defs>
       <path d="
M0 0
L2 0" id="mc31bed125d"/>
      </defs>
      <g>
       <use style="stroke:#000000;stroke-linecap:butt;stroke-width:0.5;" x="54.75625" xlink:href="#mc31bed125d" y="89.6828694827"/>
      </g>
     </g>
    </g>
    <g id="ytick_36">
     <g id="line2d_72">
      <defs>
       <path d="
M0 0
L2 0" id="mc31bed125d"/>
      </defs>
      <g>
       <use style="stroke:#000000;stroke-linecap:butt;stroke-width:0.5;" x="54.75625" xlink:href="#mc31bed125d" y="79.0152068094"/>
      </g>
     </g>
    </g>
    <g id="ytick_37">
     <g id="line2d_73">
      <defs>
       <path d="
M0 0
L2 0" id="mc31bed125d"/>
      </defs>
      <g>
       <use style="stroke:#000000;stroke-linecap:butt;stroke-width:0.5;" x="54.75625" xlink:href="#mc31bed125d" y="68.347544136"/>
      </g>
     </g>
    </g>
    <g id="ytick_38">
     <g id="line2d_74">
      <defs>
       <path d="
M0 0
L2 0" id="mc31bed125d"/>
      </defs>
      <g>
       <use style="stroke:#000000;stroke-linecap:butt;stroke-width:0.5;" x="54.75625" xlink:href="#mc31bed125d" y="57.6798814626"/>
      </g>
     </g>
    </g>
    <g id="ytick_39">
     <g id="line2d_75">
      <defs>
       <path d="
M0 0
L2 0" id="mc31bed125d"/>
      </defs>
      <g>
       <use style="stroke:#000000;stroke-linecap:butt;stroke-width:0.5;" x="54.75625" xlink:href="#mc31bed125d" y="47.0122187893"/>
      </g>
     </g>
    </g>
    <g id="ytick_40">
     <g id="line2d_76">
      <defs>
       <path d="
M0 0
L2 0" id="mc31bed125d"/>
      </defs>
      <g>
       <use style="stroke:#000000;stroke-linecap:butt;stroke-width:0.5;" x="54.75625" xlink:href="#mc31bed125d" y="36.3445561159"/>
      </g>
     </g>
    </g>
    <g id="ytick_41">
     <g id="line2d_77">
      <defs>
       <path d="
M0 0
L2 0" id="mc31bed125d"/>
      </defs>
      <g>
       <use style="stroke:#000000;stroke-linecap:butt;stroke-width:0.5;" x="54.75625" xlink:href="#mc31bed125d" y="25.6768934426"/>
      </g>
     </g>
    </g>
   </g>
   <g id="patch_3">
    <path d="
M45.156 15.0092
L544.37 15.0092" style="fill:none;stroke:#000000;stroke-width:0.8;"/>
   </g>
   <g id="patch_4">
    <path d="
M54.7563 413.28
L54.7563 7.2" style="fill:none;stroke:#000000;stroke-width:0.8;"/>
   </g>
  </g>
 </g>
 <defs>
  <clipPath id="p6b76670bb7">
   <rect height="406.08" width="499.214042578" x="45.1559809105" y="7.2"/>
  </clipPath>
 </defs>
</svg>
