<?xml version="1.0" encoding="utf-8" standalone="no"?>
<!DOCTYPE svg PUBLIC "-//W3C//DTD SVG 1.1//EN"
  "http://www.w3.org/Graphics/SVG/1.1/DTD/svg11.dtd">
<!-- Created with matplotlib (http://matplotlib.sourceforge.net/) -->
<svg height="419pt" version="1.1" viewBox="0 0 564 419" width="564pt" xmlns="http://www.w3.org/2000/svg" xmlns:xlink="http://www.w3.org/1999/xlink">
 <defs>
  <style type="text/css">
*{stroke-linecap:square;stroke-linejoin:round;}
  </style>
 </defs>
 <g id="figure_1">
  <g id="patch_1">
   <path d="
M4.44089e-16 419.439
L564.626 419.439
L564.626 0
L4.44089e-16 0
z
" style="fill:#ffffff;"/>
  </g>
  <g id="axes_1">
   <g id="patch_2">
    <path d="
M42.6088 412.239
L557.426 412.239
L557.426 8.51291
L42.6088 8.51291
z
" style="fill:#ffffff;"/>
   </g>
   <g id="line2d_1">
    <path clip-path="url(#p51b3ba9df9)" d="
M52.5091 16.2769
L62.5296 16.2769
L62.5296 35.4632
L75.154 35.4632
L75.154 69.0627
L83.4694 69.0627
L83.4694 94.5213
L94.6396 94.5213
L94.6396 130.187
L98.7681 130.187
L98.7681 144.113
L105.398 144.113
L105.398 168.329
L108.147 168.329
L108.147 179.046
L112.868 179.046
L112.868 191.334
L118.597 191.334
L118.597 207.446
L120.245 207.446
L120.245 212.548
L124.618 212.548
L124.618 221.897
L127.155 221.897
L127.155 228.069
L128.332 228.069
L128.332 231.392
L130.53 231.392
L130.53 236.007
L133.499 236.007
L133.499 243.129
L136.15 243.129
L136.15 250.093
L136.973 250.093
L136.973 251.721
L139.292 251.721
L139.292 257.068
L140.725 257.068
L140.725 260.762
L141.412 260.762
L141.412 262.757
L143.364 262.757
L143.364 268.969
L144.584 268.969
L144.584 273.126
L146.309 273.126
L146.309 279.369
L148.437 279.369
L148.437 287.349
L149.435 287.349
L149.435 291.257
L149.92 291.257
L149.92 293.279
L150.861 293.279
L150.861 297.449
L151.319 297.449
L151.319 299.589
L152.21 299.589
L152.21 303.345
L155.096 303.345
L155.096 313.761
L155.863 313.761
L155.863 316.096
L156.969 316.096
L156.969 318.997
L157.328 318.997
L157.328 320.021
L159.045 320.021
L159.045 324.211
L159.374 324.211
L159.374 324.883
L160.337 324.883
L160.337 327.077
L161.264 327.077
L161.264 329.377
L161.863 329.377
L161.863 330.99
L162.735 330.99
L162.735 333.025
L163.578 333.025
L163.578 334.688
L163.853 334.688
L163.853 335.292
L165.182 335.292
L165.182 337.762
L165.439 337.762
L165.439 338.292
L165.946 338.292
L165.946 339.453
L166.196 339.453
L166.196 339.95
L167.643 339.95
L167.643 343.098
L169.01 343.098
L169.01 345.558
L169.449 345.558
L169.449 346.425
L169.666 346.425
L169.666 346.794
L170.094 346.794
L170.094 347.614
L170.722 347.614
L170.722 348.942
L170.928 348.942
L170.928 349.321
L171.933 349.321
L171.933 351.354
L172.517 351.354
L172.517 352.36
L173.087 352.36
L173.087 353.186
L173.645 353.186
L173.645 354.098
L173.828 354.098
L173.828 354.351
L174.369 354.351
L174.369 355.206
L174.723 355.206
L174.723 355.675
L174.898 355.675
L174.898 355.943
L175.757 355.943
L175.757 357.408
L176.91 357.408
L176.91 359.532
L177.23 359.532
L177.23 360.035
L177.388 360.035
L177.388 360.314
L177.702 360.314
L177.702 360.796
L178.77 360.796
L178.77 362.601
L179.214 362.601
L179.214 363.236
L179.937 363.236
L179.937 364.384
L180.079 364.384
L180.079 364.577
L180.361 364.577
L180.361 365.01
L180.777 365.01
L180.777 365.56
L181.322 365.56
L181.322 366.366
L181.723 366.366
L181.723 366.869
L182.117 366.869
L182.117 367.428
L182.376 367.428
L182.376 367.741
L182.761 367.741
L182.761 368.269
L183.264 368.269
L183.264 368.851
L183.511 368.851
L183.511 369.086
L184 369.086
L184 369.628
L184.597 369.628
L184.597 370.379
L184.714 370.379
L184.714 370.546
L185.294 370.546
L185.294 371.457
L185.409 371.457
L185.409 371.613
L185.749 371.613
L185.749 372.012
L185.973 372.012
L185.973 372.232
L186.306 372.232
L186.306 372.494
L186.742 372.494
L186.742 372.905
L186.957 372.905
L187.064 373.276
L187.277 373.276
L187.277 373.577
L187.904 373.577
L187.904 374.342
L188.313 374.342
L188.313 374.759
L188.516 374.759
L188.516 374.928
L188.915 374.928
L188.915 375.32
L189.112 375.32
L189.112 375.543
L189.405 375.543
L189.405 375.918
L189.981 375.918
L190.076 376.631
L190.912 376.631
L190.912 377.233
L191.185 377.233
L191.185 377.465
L191.632 377.465
L191.632 377.767
L191.897 377.767
L191.897 377.899
L192.159 377.899
L192.246 378.136
L192.504 378.136
L192.504 378.298
L192.929 378.298
L192.929 378.622
L193.18 378.622
L193.18 378.847
L193.429 378.847
L193.511 379.077
L193.757 379.077
L193.757 379.252
L194 379.252
L194 379.387
L194.161 379.387
L194.241 379.565
L194.715 379.565
L194.715 379.885
L195.104 379.885
L195.181 380.244
L195.334 380.244
L195.334 380.363
L195.562 380.363
L195.562 380.506
L195.863 380.612
L195.863 380.658
L196.308 380.658
L196.308 380.986
L196.672 381.071
L196.672 381.164
L196.96 381.164
L196.96 381.326
L197.315 381.326
L197.315 381.569
L197.596 381.569
L197.596 381.718
L197.942 381.718
L197.942 381.944
L198.215 381.944
L198.215 382.156
L198.418 382.156
L198.418 382.339
L198.62 382.339
L198.62 382.546
L198.753 382.546
L198.753 382.664
L199.018 382.664
L199.018 382.858
L199.215 382.858
L199.215 383.026
L199.345 383.026
L199.345 383.154
L199.603 383.154
L199.603 383.44
L199.731 383.44
L199.731 383.563
L200.175 383.563
L200.175 384.04
L200.487 384.04
L200.487 384.328
L200.856 384.328
L200.917 384.764
L201.22 384.764
L201.28 385.029
L201.756 385.123
L201.756 385.337
L202.165 385.337
L202.165 385.575
L202.338 385.655
L202.338 385.687
L202.851 385.737
L202.851 385.855
L203.131 385.932
L203.131 386.005
L203.682 386.005
L203.791 386.518
L204.007 386.518
L204.007 386.73
L204.275 386.73
L204.275 386.956
L204.486 386.956
L204.592 387.244
L204.749 387.244
L204.749 387.391
L204.905 387.391
L204.905 387.518
L205.265 387.518
L205.367 387.927
L205.671 388.027
L205.671 388.143
L205.871 388.143
L205.871 388.318
L206.02 388.318
L206.02 388.465
L206.316 388.465
L206.414 388.881
L206.56 388.881
L206.608 389.038
L206.849 389.038
L206.897 389.27
L207.277 389.354
L207.324 389.478
L208.156 389.564
L208.247 389.731
L208.517 389.812
L208.517 389.912
L208.829 389.995
L208.829 390.124
L209.093 390.233
L209.093 390.356
L209.57 390.356
L209.613 390.778
L209.826 390.778
L209.826 390.946
L209.996 390.946
L209.996 391.059
L210.206 391.059
L210.206 391.219
L210.456 391.328
L210.456 391.421
L210.621 391.421
L210.621 391.561
L210.867 391.561
L210.948 391.792
L211.231 391.901
L211.231 391.921
L211.589 391.968
L211.589 392.085
L212.137 392.158
L212.176 392.344
L212.407 392.443
L212.407 392.46
L212.711 392.553
L212.711 392.602
L212.937 392.602
L212.975 392.737
L213.712 392.773
L213.821 393.08
L214.072 393.143
L214.072 393.241
L214.392 393.241
L214.392 393.423
L214.568 393.423
L214.568 393.539
L214.813 393.539
L214.917 393.715
L215.226 393.8
L215.328 393.943
L215.633 393.995
L215.633 394.079
L215.9 394.183
L215.999 394.313
L216.296 394.39
L216.296 394.56
L216.491 394.56
L216.491 394.745
L216.814 394.854
L216.909 395.131
L217.069 395.189
L217.069 395.285
L217.195 395.285
L217.258 395.486
L217.384 395.486
L217.446 395.695
L217.664 395.695
L217.726 395.999
L217.818 395.999
L217.91 396.242
L218.002 396.242
L218.032 396.428
L218.124 396.428
L218.124 396.582
L218.275 396.582
L218.275 396.849
L218.575 396.849
L218.664 397.57
L218.754 397.678
L218.754 397.729
L219.106 397.729
L219.194 398.509
L219.339 398.509
L219.339 398.727
L219.512 398.727
L219.54 399.007
L219.683 399.007
L219.683 399.206
L219.797 399.206
L219.882 399.49
L219.967 399.49
L220.051 399.743
L220.303 399.743
L220.386 400.218
L220.469 400.297
L220.469 400.338
L220.635 400.338
L220.635 400.572
L220.771 400.572
L220.771 400.776
L220.935 400.776
L221.043 401.145
L221.258 401.145
L221.258 401.404
L221.445 401.404
L221.524 401.69
L221.656 401.775
L221.682 401.849
L221.814 401.849
L221.814 401.991
L221.97 401.991
L222.048 402.256
L222.357 402.345
L222.383 402.657
L222.586 402.657
L222.612 402.892
L222.889 402.892
L222.964 403.187
L223.138 403.255
L223.212 403.338
L223.556 403.44
L223.581 403.526
L223.871 403.615
L223.871 403.723
L224.063 403.809
L224.063 403.854
L224.301 403.961
L224.301 403.971
L224.769 404.06
L224.862 404.14
L225.343 404.226
L225.343 404.263
L226.474 404.368
L226.539 404.407
L229.794 404.324
L229.87 404.271
L230.905 404.163
L230.924 404.156
L231.014 404.162
L232.073 404.062
L232.073 404.049
L232.484 403.943
L232.552 403.925
L235.95 403.815
L236.053 403.778
L236.389 403.701
L236.433 403.634
L236.692 403.574
L236.792 403.475
L236.991 403.45
L237.048 403.318
L237.245 403.227
L237.343 403.139
L237.62 403.045
L237.703 402.979
L237.963 402.883
L238.045 402.829
L238.368 402.745
L238.435 402.668
L238.687 402.562
L238.687 402.542
L238.95 402.431
L239.042 402.326
L239.223 402.275
L239.301 402.127
L239.494 402.023
L239.583 401.894
L239.774 401.824
L239.875 401.62
L240 401.56
L240.025 401.444
L240.15 401.444
L240.15 401.297
L240.287 401.297
L240.373 401.043
L240.484 400.936
L240.521 400.889
L240.656 400.889
L240.705 400.711
L240.838 400.619
L240.923 400.507
L241.127 400.413
L241.199 400.252
L241.306 400.163
L241.318 400.128
L241.567 400.021
L241.672 399.778
L241.801 399.712
L241.905 399.579
L242.044 399.506
L242.125 399.36
L242.297 399.36
L242.365 399.08
L242.468 399.01
L242.558 398.848
L242.66 398.848
L242.761 398.62
L242.94 398.537
L243.028 398.339
L243.161 398.307
L243.227 398.158
L243.359 398.055
L243.392 398.008
L243.533 397.905
L243.631 397.832
L243.825 397.727
L243.922 397.651
L244.113 397.561
L244.198 397.488
L244.451 397.391
L244.513 397.306
L244.856 397.195
L244.948 397.172
L248.973 397.064
L249.077 397.039
L251.174 397.128
L251.269 397.193
L253.106 397.086
L253.173 397.042
L253.48 396.932
L253.588 396.873
L253.89 396.765
L253.997 396.711
L254.427 396.601
L254.462 396.594
L255.387 396.495
L255.455 396.458
L255.847 396.354
L255.946 396.31
L256.825 396.199
L256.932 396.165
L258.986 396.276
L259.097 396.317
L259.453 396.414
L259.555 396.463
L259.849 396.559
L259.95 396.629
L260.211 396.739
L260.316 396.793
L260.557 396.9
L260.645 396.945
L260.963 397.055
L261.049 397.084
L264.503 396.974
L264.596 396.948
L265.009 396.843
L265.109 396.8
L265.362 396.697
L265.461 396.64
L265.71 396.53
L265.794 396.48
L266.018 396.37
L266.084 396.309
L266.262 396.207
L266.34 396.148
L266.623 396.037
L266.712 395.958
L266.971 395.854
L267.067 395.785
L267.272 395.683
L267.38 395.575
L267.528 395.465
L267.606 395.399
L267.798 395.288
L267.908 395.165
L268.041 395.07
L268.118 394.983
L268.262 394.907
L268.358 394.788
L268.509 394.684
L268.619 394.584
L268.784 394.484
L268.885 394.376
L269.029 394.269
L269.118 394.198
L269.325 394.093
L269.432 393.999
L269.565 393.89
L269.671 393.8
L269.807 393.691
L269.915 393.593
L270.098 393.486
L270.198 393.413
L270.374 393.311
L270.484 393.23
L270.659 393.121
L270.767 393.039
L270.958 392.93
L271.065 392.863
L271.31 392.764
L271.416 392.685
L271.661 392.578
L271.754 392.521
L272.013 392.42
L272.116 392.354
L272.337 392.246
L272.442 392.137
L272.583 392.03
L272.684 391.933
L272.82 391.828
L272.92 391.722
L273.042 391.655
L273.147 391.51
L273.265 391.407
L273.375 391.278
L273.489 391.18
L273.589 391.061
L273.714 390.965
L273.82 390.861
L273.991 390.758
L274.102 390.646
L274.225 390.547
L274.331 390.429
L274.462 390.318
L274.57 390.19
L274.703 390.084
L274.811 389.919
L274.948 389.812
L275.033 389.684
L275.149 389.577
L275.257 389.445
L275.356 389.343
L275.467 389.205
L275.571 389.101
L275.678 388.953
L275.802 388.845
L275.884 388.706
L275.998 388.606
L276.103 388.451
L276.225 388.34
L276.312 388.173
L276.407 388.062
L276.484 387.934
L276.57 387.854
L276.678 387.661
L276.758 387.557
L276.857 387.402
L276.933 387.298
L277.009 387.179
L277.084 387.092
L277.179 386.928
L277.26 386.843
L277.362 386.661
L277.442 386.566
L277.544 386.405
L277.632 386.316
L277.73 386.167
L277.83 386.057
L277.936 385.93
L278.065 385.819
L278.151 385.703
L278.258 385.593
L278.359 385.484
L278.486 385.378
L278.597 385.271
L278.731 385.189
L278.835 385.063
L278.952 384.967
L279.045 384.849
L279.161 384.743
L279.261 384.615
L279.366 384.505
L279.475 384.384
L279.594 384.284
L279.642 384.227
L279.768 384.118
L279.873 383.998
L279.992 383.902
L280.097 383.779
L280.208 383.683
L280.313 383.55
L280.436 383.439
L280.538 383.313
L280.657 383.209
L280.766 383.062
L280.874 382.96
L280.972 382.839
L281.086 382.737
L281.193 382.616
L281.313 382.516
L281.414 382.397
L281.546 382.289
L281.65 382.186
L281.775 382.104
L281.879 381.975
L282.031 381.918
L282.031 381.836
L282.245 381.749
L282.34 381.611
L282.543 381.53
L282.65 381.357
L282.868 381.263
L282.967 381.086
L283.165 380.996
L283.258 380.834
L283.477 380.729
L283.576 380.536
L283.786 380.442
L283.882 380.233
L284.087 380.132
L284.182 379.921
L284.388 379.832
L284.488 379.677
L284.699 379.601
L284.809 379.449
L285.003 379.354
L285.003 379.286
L285.217 379.193
L285.317 378.997
L285.523 378.917
L285.616 378.754
L285.825 378.684
L285.825 378.607
L286.028 378.522
L286.028 378.466
L286.232 378.385
L286.232 378.336
L286.537 378.243
L286.642 378.158
L286.951 378.071
L286.951 378.03
L287.253 377.952
L287.364 377.855
L287.663 377.751
L287.766 377.657
L287.981 377.597
L288.073 377.473
L288.283 377.396
L288.393 377.222
L288.589 377.135
L288.689 376.954
L288.894 376.869
L288.996 376.718
L289.199 376.645
L289.199 376.579
L289.417 376.507
L289.509 376.39
L289.712 376.308
L289.818 376.151
L290.027 376.094
L290.136 375.967
L290.334 375.915
L290.43 375.772
L290.634 375.692
L290.742 375.51
L290.943 375.422
L290.943 375.318
L291.057 375.318
L291.149 375.091
L291.261 375.091
L291.365 374.854
L291.566 374.765
L291.661 374.577
L291.868 374.487
L291.974 374.32
L292.175 374.241
L292.275 374.055
L292.483 373.965
L292.586 373.802
L292.787 373.724
L292.893 373.582
L293.198 373.472
L293.198 373.4
L293.401 373.31
L293.505 373.212
L293.823 373.102
L293.917 372.986
L294.116 372.927
L294.116 372.872
L294.325 372.812
L294.429 372.696
L294.731 372.59
L294.836 372.483
L295.141 372.406
L295.247 372.309
L295.447 372.252
L295.558 372.115
L295.759 372.048
L295.861 371.914
L296.066 371.853
L296.169 371.726
L296.375 371.665
L296.474 371.546
L296.779 371.437
L296.885 371.306
L297.19 371.196
L297.299 371.056
L297.498 370.983
L297.603 370.826
L297.808 370.731
L297.917 370.551
L298.117 370.466
L298.217 370.265
L298.423 370.164
L298.525 369.974
L298.725 369.871
L298.725 369.775
L298.84 369.775
L298.931 369.546
L299.035 369.546
L299.139 369.325
L299.271 369.325
L299.343 369.12
L299.453 369.12
L299.553 368.88
L299.755 368.775
L299.755 368.664
L299.867 368.664
L299.96 368.465
L300.162 368.384
L300.269 368.23
L300.466 368.16
L300.572 368.03
L300.786 367.935
L300.879 367.764
L301.083 367.685
L301.187 367.519
L301.392 367.438
L301.503 367.258
L301.698 367.184
L301.804 367.035
L302.003 366.96
L302.11 366.813
L302.31 366.748
L302.415 366.621
L302.625 366.546
L302.721 366.39
L302.928 366.31
L303.027 366.146
L303.24 366.056
L303.337 365.872
L303.542 365.792
L303.643 365.63
L303.85 365.557
L303.949 365.387
L304.158 365.284
L304.256 365.093
L304.47 364.99
L304.566 364.771
L304.776 364.663
L304.876 364.458
L305.077 364.364
L305.179 364.186
L305.389 364.095
L305.487 363.917
L305.691 363.824
L305.796 363.664
L306.006 363.582
L306.101 363.433
L306.306 363.359
L306.407 363.218
L306.614 363.153
L306.721 363.027
L306.924 362.954
L307.023 362.821
L307.333 362.718
L307.434 362.624
L307.741 362.545
L307.842 362.459
L308.257 362.362
L308.362 362.332
L309.279 362.234
L309.381 362.197
L309.687 362.125
L309.79 362.031
L309.993 361.976
L310.099 361.841
L310.301 361.771
L310.406 361.629
L310.612 361.562
L310.716 361.431
L310.927 361.365
L311.023 361.208
L311.222 361.134
L311.325 360.987
L311.53 360.912
L311.631 360.764
L311.842 360.683
L311.944 360.505
L312.148 360.422
L312.246 360.275
L312.451 360.191
L312.557 360.007
L312.758 359.903
L312.864 359.676
L313.068 359.568
L313.17 359.313
L313.273 359.313
L313.374 359.078
L313.476 359.078
L313.579 358.856
L313.783 358.753
L313.891 358.542
L314.092 358.447
L314.194 358.236
L314.397 358.133
L314.502 357.899
L314.602 357.899
L314.704 357.67
L314.807 357.67
L314.91 357.425
L315.012 357.425
L315.117 357.156
L315.217 357.156
L315.319 356.916
L315.526 356.814
L315.632 356.601
L315.833 356.492
L315.935 356.234
L316.037 356.234
L316.146 355.953
L316.246 355.953
L316.343 355.68
L316.446 355.68
L316.548 355.391
L316.653 355.391
L316.756 355.091
L316.857 355.091
L316.961 354.807
L317.063 354.807
L317.164 354.554
L317.265 354.554
L317.369 354.314
L317.47 354.314
L317.573 354.069
L317.675 354.069
L317.778 353.838
L317.883 353.838
L317.992 353.597
L318.187 353.493
L318.292 353.266
L318.497 353.168
L318.598 352.958
L318.802 352.851
L318.907 352.651
L319.113 352.56
L319.211 352.37
L319.416 352.282
L319.52 352.121
L319.726 352.037
L319.826 351.883
L320.031 351.807
L320.133 351.659
L320.339 351.576
L320.441 351.414
L320.646 351.331
L320.748 351.185
L320.957 351.117
L321.057 350.971
L321.263 350.897
L321.365 350.762
L321.567 350.701
L321.567 350.638
L321.774 350.559
L321.874 350.419
L322.08 350.351
L322.184 350.241
L322.387 350.182
L322.491 350.055
L322.695 349.99
L322.8 349.884
L323.104 349.784
L323.208 349.699
L323.515 349.625
L323.616 349.544
L323.924 349.462
L324.026 349.38
L324.436 349.272
L324.538 349.226
L325.152 349.116
L325.255 349.08
L325.769 348.97
L325.87 348.914
L326.893 348.804
L326.998 348.796
L329.147 348.69
L329.249 348.651
L329.864 348.561
L329.966 348.519
L331.093 348.415
L331.195 348.383
L331.814 348.272
L331.912 348.222
L332.425 348.134
L332.528 348.092
L334.679 347.989
L334.781 347.94
L335.6 347.844
L335.704 347.795
L336.112 347.693
L336.215 347.637
L336.624 347.542
L336.727 347.495
L337.239 347.405
L337.341 347.325
L337.553 347.264
L337.649 347.133
L337.855 347.06
L337.956 346.908
L338.16 346.827
L338.263 346.652
L338.469 346.568
L338.571 346.394
L338.775 346.309
L338.878 346.119
L339.082 346.015
L339.187 345.801
L339.392 345.702
L339.492 345.525
L339.7 345.436
L339.799 345.283
L340.004 345.207
L340.108 345.073
L340.415 344.962
L340.517 344.848
L340.721 344.779
L340.824 344.628
L341.03 344.542
L341.131 344.348
L341.336 344.249
L341.44 344.062
L341.643 343.976
L341.745 343.777
L341.95 343.679
L342.053 343.512
L342.258 343.441
L342.36 343.333
L342.667 343.224
L342.77 343.104
L343.079 342.997
L343.181 342.884
L343.386 342.819
L343.487 342.706
L343.794 342.611
L343.897 342.513
L344.204 342.414
L344.309 342.313
L344.716 342.205
L344.818 342.13
L345.228 342.021
L345.331 341.944
L345.638 341.856
L345.74 341.779
L346.151 341.687
L346.254 341.612
L346.662 341.514
L346.765 341.454
L347.072 341.373
L347.175 341.267
L347.482 341.176
L347.584 341.073
L347.893 340.977
L347.994 340.891
L348.813 340.781
L348.917 340.727
L349.53 340.628
L349.634 340.604
L351.477 340.512
L351.579 340.471
L351.988 340.396
L352.093 340.318
L352.398 340.225
L352.501 340.131
L352.808 340.021
L352.911 339.913
L353.116 339.856
L353.218 339.735
L353.423 339.677
L353.525 339.566
L353.832 339.459
L353.935 339.346
L354.242 339.246
L354.345 339.142
L354.652 339.031
L354.754 338.916
L354.959 338.857
L355.061 338.745
L355.368 338.651
L355.471 338.576
L355.778 338.5
L355.881 338.416
L356.188 338.33
L356.291 338.224
L356.6 338.119
L356.7 338.033
L357.009 337.955
L357.11 337.863
L357.419 337.764
L357.521 337.671
L357.827 337.572
L357.93 337.472
L358.237 337.388
L358.339 337.299
L360.183 337.376
L360.286 337.466
L360.592 337.561
L360.695 337.665
L361.003 337.745
L361.105 337.817
L361.514 337.921
L361.617 337.992
L362.027 338.084
L362.129 338.149
L362.538 338.249
L362.642 338.328
L362.948 338.418
L363.052 338.493
L363.563 338.593
L363.665 338.637
L364.076 338.73
L364.178 338.776
L364.69 338.872
L364.792 338.916
L365.304 339.006
L365.407 339.085
L365.816 339.191
L365.919 339.266
L366.329 339.368
L366.431 339.445
L366.738 339.536
L366.841 339.65
L367.046 339.712
L367.148 339.835
L367.455 339.939
L367.558 340.046
L367.763 340.106
L367.865 340.219
L368.173 340.314
L368.275 340.414
L368.582 340.504
L368.685 340.599
L368.992 340.706
L369.094 340.812
L369.401 340.917
L369.504 341.028
L369.811 341.136
L369.915 341.21
L370.324 341.311
L370.426 341.384
L370.733 341.46
L370.836 341.537
L371.347 341.639
L371.45 341.671
L372.167 341.776
L372.269 341.835
L372.679 341.916
L372.782 341.974
L373.294 342.079
L373.396 342.133
L373.908 342.241
L374.011 342.271
L375.445 342.171
L375.547 342.148
L376.264 342.048
L376.367 342.01
L376.879 341.903
L376.981 341.838
L377.288 341.759
L377.391 341.689
L377.8 341.594
L377.903 341.527
L378.21 341.437
L378.313 341.366
L378.722 341.258
L378.825 341.181
L379.338 341.072
L379.44 341.005
L379.85 340.896
L379.953 340.827
L380.362 340.725
L380.464 340.646
L380.771 340.559
L380.873 340.44
L381.078 340.376
L381.181 340.256
L381.488 340.165
L381.591 340.063
L381.795 340.005
L381.898 339.887
L382.103 339.828
L382.205 339.705
L382.41 339.644
L382.512 339.512
L382.717 339.438
L382.82 339.291
L383.025 339.212
L383.127 339.053
L383.333 338.965
L383.434 338.801
L383.639 338.721
L383.741 338.574
L383.947 338.5
L384.049 338.331
L384.254 338.247
L384.356 338.087
L384.561 338.006
L384.663 337.838
L384.869 337.756
L384.971 337.582
L385.176 337.502
L385.278 337.354
L385.483 337.288
L385.585 337.163
L385.79 337.107
L385.892 336.999
L386.098 336.94
L386.2 336.809
L386.404 336.743
L386.507 336.626
L386.814 336.518
L386.917 336.413
L387.224 336.31
L387.327 336.19
L387.531 336.124
L387.634 335.983
L387.839 335.913
L387.941 335.763
L388.146 335.685
L388.249 335.533
L388.453 335.452
L388.556 335.299
L388.76 335.223
L388.863 335.046
L389.068 334.954
L389.17 334.782
L389.375 334.696
L389.478 334.514
L389.682 334.428
L389.785 334.263
L389.99 334.191
L390.092 334.052
L390.297 333.989
L390.399 333.857
L390.604 333.787
L390.707 333.644
L390.911 333.575
L391.014 333.433
L391.219 333.36
L391.321 333.237
L391.526 333.178
L391.629 333.06
L391.833 332.998
L391.936 332.856
L392.141 332.776
L392.243 332.616
L392.448 332.535
L392.55 332.384
L392.755 332.31
L392.858 332.181
L393.062 332.116
L393.165 331.972
L393.37 331.89
L393.472 331.723
L393.677 331.635
L393.78 331.46
L393.984 331.373
L394.087 331.216
L394.292 331.148
L394.394 330.986
L394.599 330.909
L394.701 330.755
L394.906 330.678
L395.009 330.513
L395.213 330.42
L395.316 330.246
L395.521 330.165
L395.623 329.989
L395.828 329.891
L395.931 329.684
L396.033 329.684
L396.136 329.455
L396.238 329.455
L396.34 329.227
L396.545 329.117
L396.647 328.929
L396.852 328.837
L396.955 328.636
L397.16 328.534
L397.262 328.326
L397.467 328.226
L397.569 328.014
L397.774 327.904
L397.877 327.685
L398.081 327.579
L398.184 327.351
L398.389 327.251
L398.491 327.068
L398.696 326.989
L398.798 326.836
L399.003 326.756
L399.106 326.591
L399.311 326.502
L399.413 326.332
L399.618 326.248
L399.72 326.058
L399.925 325.956
L400.028 325.752
L400.233 325.649
L400.335 325.425
L400.437 325.425
L400.54 325.208
L400.745 325.109
L400.847 324.908
L401.052 324.805
L401.154 324.613
L401.359 324.512
L401.462 324.287
L401.564 324.287
L401.667 324.051
L401.769 324.051
L401.871 323.823
L401.974 323.823
L402.076 323.593
L402.179 323.593
L402.281 323.359
L402.384 323.359
L402.486 323.122
L402.588 323.122
L402.691 322.892
L402.793 322.892
L402.896 322.655
L402.999 322.655
L403.101 322.426
L403.306 322.321
L403.408 322.123
L403.613 322.026
L403.715 321.833
L403.92 321.736
L404.022 321.524
L404.125 321.524
L404.227 321.285
L404.33 321.285
L404.432 321.044
L404.535 321.044
L404.637 320.793
L404.739 320.793
L404.842 320.546
L404.944 320.546
L405.047 320.274
L405.149 320.274
L405.252 319.964
L405.354 319.964
L405.456 319.662
L405.559 319.662
L405.661 319.364
L405.764 319.364
L405.866 319.053
L405.969 319.053
L406.071 318.755
L406.173 318.755
L406.276 318.467
L406.378 318.467
L406.481 318.155
L406.583 318.155
L406.686 317.863
L406.788 317.863
L406.89 317.594
L406.993 317.594
L407.095 317.337
L407.198 317.337
L407.3 317.081
L407.403 317.081
L407.505 316.825
L407.607 316.825
L407.71 316.559
L407.812 316.559
L407.915 316.299
L408.017 316.299
L408.12 316.049
L408.222 316.049
L408.325 315.804
L408.427 315.804
L408.53 315.567
L408.632 315.567
L408.734 315.318
L408.837 315.318
L408.939 315.082
L409.144 314.976
L409.246 314.779
L409.451 314.682
L409.554 314.476
L409.759 314.372
L409.861 314.15
L409.963 314.15
L410.066 313.925
L410.271 313.819
L410.373 313.612
L410.578 313.511
L410.68 313.302
L410.885 313.198
L410.988 312.992
L411.192 312.887
L411.295 312.668
L411.397 312.668
L411.5 312.446
L411.705 312.335
L411.807 312.091
L411.91 312.091
L412.012 311.843
L412.114 311.843
L412.217 311.581
L412.319 311.581
L412.422 311.309
L412.524 311.309
L412.626 311.053
L412.729 311.053
L412.831 310.792
L412.934 310.792
L413.036 310.524
L413.139 310.524
L413.241 310.26
L413.343 310.26
L413.446 310.032
L413.651 309.934
L413.753 309.746
L413.958 309.655
L414.061 309.469
L414.265 309.386
L414.368 309.222
L414.573 309.129
L414.675 308.931
L414.88 308.836
L414.982 308.643
L415.187 308.533
L415.29 308.323
L415.494 308.225
L415.597 308.025
L415.802 307.925
L415.904 307.733
L416.109 307.646
L416.211 307.478
L416.416 307.383
L416.519 307.178
L416.724 307.07
L416.826 306.864
L417.031 306.766
L417.133 306.584
L417.338 306.494
L417.441 306.305
L417.646 306.206
L417.748 306.012
L417.953 305.915
L418.055 305.723
L418.26 305.621
L418.362 305.423
L418.567 305.321
L418.67 305.124
L418.875 305.031
L418.977 304.859
L419.182 304.781
L419.284 304.612
L419.489 304.526
L419.592 304.348
L419.796 304.252
L419.899 304.073
L420.104 303.976
L420.206 303.792
L420.411 303.704
L420.514 303.544
L420.718 303.473
L420.821 303.343
L421.026 303.275
L421.128 303.129
L421.333 303.046
L421.435 302.884
L421.64 302.799
L421.743 302.606
L421.947 302.503
L422.05 302.276
L422.152 302.276
L422.255 302.047
L422.46 301.938
L422.562 301.705
L422.665 301.705
L422.767 301.483
L422.972 301.372
L423.074 301.147
L423.279 301.038
L423.381 300.818
L423.484 300.818
L423.586 300.572
L423.689 300.572
L423.791 300.307
L423.894 300.307
L423.996 300.042
L424.099 300.042
L424.201 299.798
L424.303 299.798
L424.406 299.584
L424.611 299.494
L424.713 299.301
L424.918 299.206
L425.02 299.014
L425.225 298.914
L425.328 298.731
L425.532 298.643
L425.635 298.459
L425.84 298.372
L425.942 298.202
L426.147 298.123
L426.25 297.957
L426.454 297.872
L426.557 297.705
L426.762 297.623
L426.864 297.467
L427.069 297.389
L427.171 297.254
L427.376 297.192
L427.479 297.087
L427.786 296.976
L427.888 296.857
L428.196 296.746
L428.298 296.628
L428.503 296.565
L428.605 296.448
L428.81 296.391
L428.913 296.274
L429.118 296.209
L429.22 296.063
L429.425 295.984
L429.527 295.83
L429.732 295.751
L429.835 295.608
L430.039 295.536
L430.142 295.381
L430.347 295.296
L430.449 295.138
L430.654 295.061
L430.756 294.924
L430.961 294.847
L431.064 294.696
L431.269 294.618
L431.371 294.455
L431.576 294.38
L431.678 294.221
L431.883 294.138
L431.986 293.98
L432.19 293.902
L432.293 293.736
L432.498 293.652
L432.6 293.454
L432.805 293.346
L432.907 293.12
L433.01 293.12
L433.112 292.894
L433.317 292.79
L433.42 292.565
L433.624 292.455
L433.727 292.248
L433.932 292.144
L434.034 291.949
L434.239 291.844
L434.341 291.642
L434.546 291.534
L434.649 291.319
L434.854 291.215
L434.956 290.999
L435.161 290.893
L435.263 290.702
L435.468 290.599
L435.571 290.392
L435.775 290.294
L435.878 290.104
L436.083 290.01
L436.185 289.84
L436.39 289.754
L436.492 289.583
L436.697 289.497
L436.8 289.315
L437.005 289.219
L437.107 289.028
L437.312 288.938
L437.414 288.775
L437.619 288.699
L437.722 288.55
L437.926 288.468
L438.029 288.304
L438.234 288.226
L438.336 288.069
L438.541 287.985
L438.643 287.804
L438.848 287.707
L438.951 287.522
L439.156 287.431
L439.258 287.252
L439.463 287.152
L439.565 286.962
L439.77 286.862
L439.873 286.644
L439.975 286.644
L440.078 286.423
L440.18 286.423
L440.282 286.195
L440.487 286.086
L440.59 285.899
L440.795 285.801
L440.897 285.616
L441.102 285.525
L441.204 285.338
L441.409 285.242
L441.512 285.047
L441.716 284.95
L441.819 284.77
L442.024 284.685
L442.126 284.513
L442.331 284.423
L442.433 284.225
L442.638 284.124
L442.741 283.92
L442.946 283.816
L443.048 283.604
L443.253 283.503
L443.355 283.283
L443.56 283.177
L443.663 282.96
L443.867 282.85
L443.97 282.614
L444.072 282.614
L444.175 282.367
L444.277 282.367
L444.38 282.124
L444.482 282.124
L444.584 281.885
L444.687 281.885
L444.789 281.647
L444.892 281.647
L444.994 281.411
L445.199 281.3
L445.301 281.089
L445.404 281.089
L445.506 280.866
L445.711 280.761
L445.814 280.564
L446.018 280.457
L446.121 280.236
L446.223 280.236
L446.326 279.993
L446.428 279.993
L446.531 279.741
L446.633 279.741
L446.735 279.492
L446.838 279.492
L446.94 279.232
L447.043 279.232
L447.145 278.974
L447.248 278.974
L447.35 278.693
L447.452 278.693
L447.555 278.409
L447.657 278.409
L447.76 278.136
L447.862 278.136
L447.965 277.891
L448.067 277.891
L448.169 277.637
L448.272 277.637
L448.374 277.382
L448.477 277.382
L448.579 277.132
L448.682 277.132
L448.784 276.866
L448.886 276.866
L448.989 276.597
L449.091 276.597
L449.194 276.321
L449.296 276.321
L449.399 276.034
L449.501 276.034
L449.603 275.753
L449.706 275.753
L449.808 275.462
L449.911 275.462
L450.013 275.158
L450.116 275.158
L450.218 274.836
L450.32 274.836
L450.423 274.524
L450.525 274.524
L450.628 274.217
L450.73 274.217
L450.833 273.905
L450.935 273.905
L451.037 273.583
L451.14 273.583
L451.242 273.266
L451.345 273.266
L451.447 272.955
L451.55 272.955
L451.652 272.672
L451.754 272.672
L451.857 272.383
L451.959 272.383
L452.062 272.104
L452.164 272.104
L452.267 271.837
L452.369 271.837
L452.471 271.57
L452.574 271.57
L452.676 271.298
L452.779 271.298
L452.881 271.049
L452.984 271.049
L453.086 270.822
L453.291 270.723
L453.393 270.53
L453.598 270.438
L453.701 270.272
L453.905 270.193
L454.008 270.04
L454.213 269.967
L454.315 269.825
L454.52 269.744
L454.622 269.585
L454.827 269.505
L454.93 269.348
L455.135 269.269
L455.237 269.114
L455.442 269.037
L455.544 268.886
L455.749 268.802
L455.852 268.632
L456.056 268.559
L456.159 268.415
L456.364 268.343
L456.466 268.194
L456.671 268.127
L456.773 268.002
L456.978 267.936
L457.081 267.809
L457.286 267.741
L457.388 267.61
L457.593 267.546
L457.695 267.43
L458.003 267.323
L458.105 267.219
L458.31 267.158
L458.412 267.036
L458.72 266.937
L458.822 266.841
L459.027 266.782
L459.129 266.673
L459.334 266.618
L459.437 266.503
L459.744 266.407
L459.846 266.315
L460.154 266.233
L460.256 266.158
L460.666 266.049
L460.768 265.985
L461.076 265.898
L461.178 265.801
L461.383 265.742
L461.485 265.619
L461.69 265.557
L461.793 265.439
L461.997 265.38
L462.1 265.257
L462.305 265.197
L462.407 265.063
L462.612 264.99
L462.714 264.836
L462.919 264.767
L463.022 264.627
L463.227 264.554
L463.329 264.41
L463.534 264.335
L463.636 264.18
L463.841 264.105
L463.944 263.968
L464.148 263.902
L464.251 263.77
L464.558 263.661
L464.661 263.565
L465.07 263.458
L465.173 263.389
L465.48 263.312
L465.582 263.229
L465.89 263.12
L465.992 263.013
L466.197 262.953
L466.299 262.833
L466.504 262.776
L466.607 262.65
L466.812 262.588
L466.914 262.469
L467.119 262.408
L467.221 262.275
L467.426 262.204
L467.529 262.081
L467.836 262.001
L467.938 261.935
L470.192 261.83
L470.294 261.794
L471.011 261.704
L471.114 261.651
L471.421 261.574
L471.523 261.482
L471.831 261.371
L471.933 261.274
L472.24 261.188
L472.343 261.117
L472.65 261.036
L472.752 260.951
L473.06 260.868
L473.162 260.78
L473.469 260.697
L473.572 260.604
L473.879 260.502
L473.982 260.393
L474.186 260.337
L474.289 260.223
L474.596 260.116
L474.699 260.018
L475.006 259.925
L475.108 259.826
L475.313 259.769
L475.416 259.644
L475.62 259.581
L475.723 259.457
L475.928 259.395
L476.03 259.266
L476.337 259.159
L476.44 259.026
L476.645 258.952
L476.747 258.794
L476.952 258.713
L477.054 258.574
L477.259 258.51
L477.362 258.389
L477.567 258.329
L477.669 258.232
L477.976 258.134
L478.079 258.046
L478.386 257.968
L478.489 257.888
L478.898 257.78
L479.001 257.714
L479.308 257.633
L479.41 257.544
L479.718 257.441
L479.82 257.346
L480.127 257.238
L480.23 257.118
L480.435 257.058
L480.537 256.936
L480.742 256.876
L480.844 256.754
L481.049 256.692
L481.152 256.559
L481.357 256.486
L481.459 256.341
L481.664 256.272
L481.766 256.137
L481.971 256.072
L482.074 255.936
L482.278 255.874
L482.381 255.737
L482.586 255.67
L482.688 255.545
L482.893 255.474
L482.995 255.332
L483.2 255.261
L483.303 255.124
L483.508 255.059
L483.61 254.924
L483.815 254.853
L483.917 254.7
L484.122 254.615
L484.225 254.453
L484.429 254.372
L484.532 254.225
L484.737 254.152
L484.839 254.011
L485.044 253.947
L485.146 253.834
L485.454 253.732
L485.556 253.631
L485.863 253.524
L485.966 253.419
L486.273 253.319
L486.376 253.194
L486.58 253.127
L486.683 252.994
L486.888 252.933
L486.99 252.821
L487.297 252.722
L487.4 252.644
L487.707 252.567
L487.81 252.483
L488.219 252.379
L488.322 252.31
L488.834 252.205
L488.936 252.145
L489.346 252.057
L489.448 252.01
L489.961 251.912
L490.063 251.883
L491.19 251.783
L491.292 251.737
L492.112 251.639
L492.214 251.605
L493.443 251.507
L493.546 251.481
L494.467 251.388
L494.57 251.326
L495.082 251.217
L495.184 251.172
L495.594 251.075
L495.697 251.017
L496.311 250.919
L496.414 250.88
L497.745 250.772
L497.745 250.769
L497.848 250.769
L497.848 250.769
L497.95 250.782
L500.306 250.688
L500.408 250.646
L500.921 250.538
L501.023 250.472
L501.433 250.37
L501.535 250.293
L501.842 250.219
L501.945 250.145
L502.355 250.038
L502.457 249.974
L502.867 249.884
L502.969 249.828
L503.481 249.724
L503.584 249.669
L506.452 249.778
L506.554 249.81
L507.476 249.902
L507.578 249.945
L508.193 250.049
L508.295 250.07
L510.651 249.969
L510.754 249.911
L511.163 249.809
L511.266 249.746
L511.676 249.661
L511.778 249.567
L512.085 249.471
L512.188 249.39
L512.597 249.283
L512.7 249.208
L513.007 249.131
L513.11 249.061
L513.519 248.958
L513.622 248.894
L514.032 248.802
L514.134 248.759
L514.646 248.664
L514.749 248.627
L515.363 248.537
L515.466 248.493
L516.49 248.384
L516.592 248.366
L517.924 248.267
L518.026 248.236
L518.846 248.131
L518.948 248.1
L519.46 247.998
L519.563 247.938
L520.075 247.834
L520.177 247.767
L520.485 247.668
L520.587 247.573
L520.894 247.491
L520.997 247.432
L521.611 247.339
L521.714 247.298
L522.226 247.2
L522.328 247.14
L524.479 247.235
L524.582 247.284
L525.094 247.37
L525.196 247.423
L525.913 247.519
L526.016 247.563
L526.528 247.674
L526.63 247.736
L527.04 247.836
L527.142 247.895
L527.552 247.999
L527.655 248.083
L528.064 248.192
L528.167 248.272
L528.474 248.362
L528.576 248.455
L528.781 248.513
L528.884 248.62
L529.191 248.718
L529.293 248.816
L529.601 248.913
L529.703 249.015
L530.01 249.115
L530.113 249.2
L530.523 249.305
L530.625 249.372
L531.035 249.481
L531.137 249.539
L531.752 249.646
L531.854 249.69
L532.571 249.79
L532.674 249.836
L533.083 249.928
L533.186 250.003
L533.493 250.093
L533.596 250.19
L533.903 250.28
L534.005 250.371
L534.313 250.454
L534.415 250.517
L534.825 250.621
L534.927 250.702
L535.234 250.798
L535.337 250.89
L535.644 250.99
L535.747 251.104
L535.951 251.166
L536.054 251.299
L536.259 251.364
L536.361 251.495
L536.566 251.562
L536.668 251.702
L536.873 251.773
L536.976 251.906
L537.181 251.973
L537.283 252.102
L537.488 252.169
L537.59 252.318
L537.795 252.393
L537.898 252.552
L538.102 252.63
L538.205 252.79
L538.41 252.874
L538.512 253.037
L538.717 253.114
L538.819 253.272
L539.024 253.35
L539.127 253.49
L539.332 253.555
L539.434 253.693
L539.639 253.77
L539.741 253.938
L539.946 254.019
L540.049 254.164
L540.253 254.237
L540.356 254.391
L540.561 254.461
L540.663 254.599
L540.868 254.674
L540.97 254.815
L541.175 254.887
L541.278 255.031
L541.483 255.102
L541.585 255.254
L541.79 255.337
L541.892 255.499
L542.097 255.579
L542.2 255.738
L542.404 255.813
L542.507 255.961
L542.712 256.038
L542.814 256.183
L543.019 256.259
L543.121 256.41
L543.326 256.484
L543.429 256.627
L543.634 256.695
L543.736 256.836
L543.941 256.909
L544.043 257.05
L544.248 257.111
L544.351 257.242
L544.555 257.299
L544.658 257.417
L544.863 257.475
L544.965 257.584
L545.272 257.687
L545.375 257.806
L545.58 257.871
L545.682 258
L545.887 258.068
L545.989 258.216
L546.194 258.286
L546.297 258.433
L546.502 258.502
L546.604 258.641
L546.809 258.702
L546.911 258.804
L547.219 258.891
L547.321 258.988
L547.526 259.038
L547.526 259.089" style="fill:none;stroke:#0000ff;stroke-width:5.0;"/>
   </g>
   <g id="matplotlib.axis_1">
    <g id="xtick_1">
     <g id="line2d_2">
      <path d="
M158.947 412.239
L158.947 8.51291" style="fill:none;stroke:#000000;stroke-dasharray:1.000000,3.000000;stroke-dashoffset:0.0;stroke-linecap:butt;stroke-width:0.5;"/>
     </g>
     <g id="line2d_3">
      <defs>
       <path d="
M0 0
L0 -4" id="m3fbe6c24f1"/>
      </defs>
      <g>
       <use style="stroke:#000000;stroke-linecap:butt;stroke-width:0.5;" x="158.947029318" xlink:href="#m3fbe6c24f1" y="16.276875"/>
      </g>
     </g>
     <g id="text_1">
      <!-- 5 -->
      <defs>
       <path d="
M10.7969 72.9062
L49.5156 72.9062
L49.5156 64.5938
L19.8281 64.5938
L19.8281 46.7344
Q21.9688 47.4688 24.1094 47.8281
Q26.2656 48.1875 28.4219 48.1875
Q40.625 48.1875 47.75 41.5
Q54.8906 34.8125 54.8906 23.3906
Q54.8906 11.625 47.5625 5.09375
Q40.2344 -1.42188 26.9062 -1.42188
Q22.3125 -1.42188 17.5469 -0.640625
Q12.7969 0.140625 7.71875 1.70312
L7.71875 11.625
Q12.1094 9.23438 16.7969 8.0625
Q21.4844 6.89062 26.7031 6.89062
Q35.1562 6.89062 40.0781 11.3281
Q45.0156 15.7656 45.0156 23.3906
Q45.0156 31 40.0781 35.4375
Q35.1562 39.8906 26.7031 39.8906
Q22.75 39.8906 18.8125 39.0156
Q14.8906 38.1406 10.7969 36.2812
z
" id="BitstreamVeraSans-Roman-35"/>
      </defs>
      <g transform="translate(153.286404318 37.774375)scale(0.24 -0.24)">
       <use xlink:href="#BitstreamVeraSans-Roman-35"/>
      </g>
     </g>
    </g>
    <g id="xtick_2">
     <g id="line2d_4">
      <path d="
M282.515 412.239
L282.515 8.51291" style="fill:none;stroke:#000000;stroke-dasharray:1.000000,3.000000;stroke-dashoffset:0.0;stroke-linecap:butt;stroke-width:0.5;"/>
     </g>
     <g id="line2d_5">
      <defs>
       <path d="
M0 0
L0 -4" id="m3fbe6c24f1"/>
      </defs>
      <g>
       <use style="stroke:#000000;stroke-linecap:butt;stroke-width:0.5;" x="282.515151148" xlink:href="#m3fbe6c24f1" y="16.276875"/>
      </g>
     </g>
     <g id="text_2">
      <!-- 10 -->
      <defs>
       <path d="
M31.7812 66.4062
Q24.1719 66.4062 20.3281 58.9062
Q16.5 51.4219 16.5 36.375
Q16.5 21.3906 20.3281 13.8906
Q24.1719 6.39062 31.7812 6.39062
Q39.4531 6.39062 43.2812 13.8906
Q47.125 21.3906 47.125 36.375
Q47.125 51.4219 43.2812 58.9062
Q39.4531 66.4062 31.7812 66.4062
M31.7812 74.2188
Q44.0469 74.2188 50.5156 64.5156
Q56.9844 54.8281 56.9844 36.375
Q56.9844 17.9688 50.5156 8.26562
Q44.0469 -1.42188 31.7812 -1.42188
Q19.5312 -1.42188 13.0625 8.26562
Q6.59375 17.9688 6.59375 36.375
Q6.59375 54.8281 13.0625 64.5156
Q19.5312 74.2188 31.7812 74.2188" id="BitstreamVeraSans-Roman-30"/>
       <path d="
M12.4062 8.29688
L28.5156 8.29688
L28.5156 63.9219
L10.9844 60.4062
L10.9844 69.3906
L28.4219 72.9062
L38.2812 72.9062
L38.2812 8.29688
L54.3906 8.29688
L54.3906 0
L12.4062 0
z
" id="BitstreamVeraSans-Roman-31"/>
      </defs>
      <g transform="translate(269.360151148 38.089375)scale(0.24 -0.24)">
       <use xlink:href="#BitstreamVeraSans-Roman-31"/>
       <use x="63.623046875" xlink:href="#BitstreamVeraSans-Roman-30"/>
      </g>
     </g>
    </g>
    <g id="xtick_3">
     <g id="line2d_6">
      <path d="
M406.083 412.239
L406.083 8.51291" style="fill:none;stroke:#000000;stroke-dasharray:1.000000,3.000000;stroke-dashoffset:0.0;stroke-linecap:butt;stroke-width:0.5;"/>
     </g>
     <g id="line2d_7">
      <defs>
       <path d="
M0 0
L0 -4" id="m3fbe6c24f1"/>
      </defs>
      <g>
       <use style="stroke:#000000;stroke-linecap:butt;stroke-width:0.5;" x="406.083272978" xlink:href="#m3fbe6c24f1" y="16.276875"/>
      </g>
     </g>
     <g id="text_3">
      <!-- 15 -->
      <g transform="translate(393.179522978 37.774375)scale(0.24 -0.24)">
       <use xlink:href="#BitstreamVeraSans-Roman-31"/>
       <use x="63.623046875" xlink:href="#BitstreamVeraSans-Roman-35"/>
      </g>
     </g>
    </g>
    <g id="xtick_4">
     <g id="line2d_8">
      <path d="
M529.651 412.239
L529.651 8.51291" style="fill:none;stroke:#000000;stroke-dasharray:1.000000,3.000000;stroke-dashoffset:0.0;stroke-linecap:butt;stroke-width:0.5;"/>
     </g>
     <g id="line2d_9">
      <defs>
       <path d="
M0 0
L0 -4" id="m3fbe6c24f1"/>
      </defs>
      <g>
       <use style="stroke:#000000;stroke-linecap:butt;stroke-width:0.5;" x="529.651394807" xlink:href="#m3fbe6c24f1" y="16.276875"/>
      </g>
     </g>
     <g id="text_4">
      <!-- 20 -->
      <defs>
       <path d="
M19.1875 8.29688
L53.6094 8.29688
L53.6094 0
L7.32812 0
L7.32812 8.29688
Q12.9375 14.1094 22.625 23.8906
Q32.3281 33.6875 34.8125 36.5312
Q39.5469 41.8438 41.4219 45.5312
Q43.3125 49.2188 43.3125 52.7812
Q43.3125 58.5938 39.2344 62.25
Q35.1562 65.9219 28.6094 65.9219
Q23.9688 65.9219 18.8125 64.3125
Q13.6719 62.7031 7.8125 59.4219
L7.8125 69.3906
Q13.7656 71.7812 18.9375 73
Q24.125 74.2188 28.4219 74.2188
Q39.75 74.2188 46.4844 68.5469
Q53.2188 62.8906 53.2188 53.4219
Q53.2188 48.9219 51.5312 44.8906
Q49.8594 40.875 45.4062 35.4062
Q44.1875 33.9844 37.6406 27.2188
Q31.1094 20.4531 19.1875 8.29688" id="BitstreamVeraSans-Roman-32"/>
      </defs>
      <g transform="translate(516.057644807 38.089375)scale(0.24 -0.24)">
       <use xlink:href="#BitstreamVeraSans-Roman-32"/>
       <use x="63.623046875" xlink:href="#BitstreamVeraSans-Roman-30"/>
      </g>
     </g>
    </g>
    <g id="xtick_5">
     <g id="line2d_10">
      <defs>
       <path d="
M0 0
L0 -2" id="mf0ff38ea95"/>
      </defs>
      <g>
       <use style="stroke:#000000;stroke-linecap:butt;stroke-width:0.5;" x="60.0925318537" xlink:href="#mf0ff38ea95" y="16.276875"/>
      </g>
     </g>
    </g>
    <g id="xtick_6">
     <g id="line2d_11">
      <defs>
       <path d="
M0 0
L0 -2" id="mf0ff38ea95"/>
      </defs>
      <g>
       <use style="stroke:#000000;stroke-linecap:butt;stroke-width:0.5;" x="84.8061562197" xlink:href="#mf0ff38ea95" y="16.276875"/>
      </g>
     </g>
    </g>
    <g id="xtick_7">
     <g id="line2d_12">
      <defs>
       <path d="
M0 0
L0 -2" id="mf0ff38ea95"/>
      </defs>
      <g>
       <use style="stroke:#000000;stroke-linecap:butt;stroke-width:0.5;" x="109.519780586" xlink:href="#mf0ff38ea95" y="16.276875"/>
      </g>
     </g>
    </g>
    <g id="xtick_8">
     <g id="line2d_13">
      <defs>
       <path d="
M0 0
L0 -2" id="mf0ff38ea95"/>
      </defs>
      <g>
       <use style="stroke:#000000;stroke-linecap:butt;stroke-width:0.5;" x="134.233404952" xlink:href="#mf0ff38ea95" y="16.276875"/>
      </g>
     </g>
    </g>
    <g id="xtick_9">
     <g id="line2d_14">
      <defs>
       <path d="
M0 0
L0 -2" id="mf0ff38ea95"/>
      </defs>
      <g>
       <use style="stroke:#000000;stroke-linecap:butt;stroke-width:0.5;" x="183.660653684" xlink:href="#mf0ff38ea95" y="16.276875"/>
      </g>
     </g>
    </g>
    <g id="xtick_10">
     <g id="line2d_15">
      <defs>
       <path d="
M0 0
L0 -2" id="mf0ff38ea95"/>
      </defs>
      <g>
       <use style="stroke:#000000;stroke-linecap:butt;stroke-width:0.5;" x="208.37427805" xlink:href="#mf0ff38ea95" y="16.276875"/>
      </g>
     </g>
    </g>
    <g id="xtick_11">
     <g id="line2d_16">
      <defs>
       <path d="
M0 0
L0 -2" id="mf0ff38ea95"/>
      </defs>
      <g>
       <use style="stroke:#000000;stroke-linecap:butt;stroke-width:0.5;" x="233.087902416" xlink:href="#mf0ff38ea95" y="16.276875"/>
      </g>
     </g>
    </g>
    <g id="xtick_12">
     <g id="line2d_17">
      <defs>
       <path d="
M0 0
L0 -2" id="mf0ff38ea95"/>
      </defs>
      <g>
       <use style="stroke:#000000;stroke-linecap:butt;stroke-width:0.5;" x="257.801526782" xlink:href="#mf0ff38ea95" y="16.276875"/>
      </g>
     </g>
    </g>
    <g id="xtick_13">
     <g id="line2d_18">
      <defs>
       <path d="
M0 0
L0 -2" id="mf0ff38ea95"/>
      </defs>
      <g>
       <use style="stroke:#000000;stroke-linecap:butt;stroke-width:0.5;" x="307.228775514" xlink:href="#mf0ff38ea95" y="16.276875"/>
      </g>
     </g>
    </g>
    <g id="xtick_14">
     <g id="line2d_19">
      <defs>
       <path d="
M0 0
L0 -2" id="mf0ff38ea95"/>
      </defs>
      <g>
       <use style="stroke:#000000;stroke-linecap:butt;stroke-width:0.5;" x="331.94239988" xlink:href="#mf0ff38ea95" y="16.276875"/>
      </g>
     </g>
    </g>
    <g id="xtick_15">
     <g id="line2d_20">
      <defs>
       <path d="
M0 0
L0 -2" id="mf0ff38ea95"/>
      </defs>
      <g>
       <use style="stroke:#000000;stroke-linecap:butt;stroke-width:0.5;" x="356.656024246" xlink:href="#mf0ff38ea95" y="16.276875"/>
      </g>
     </g>
    </g>
    <g id="xtick_16">
     <g id="line2d_21">
      <defs>
       <path d="
M0 0
L0 -2" id="mf0ff38ea95"/>
      </defs>
      <g>
       <use style="stroke:#000000;stroke-linecap:butt;stroke-width:0.5;" x="381.369648612" xlink:href="#mf0ff38ea95" y="16.276875"/>
      </g>
     </g>
    </g>
    <g id="xtick_17">
     <g id="line2d_22">
      <defs>
       <path d="
M0 0
L0 -2" id="mf0ff38ea95"/>
      </defs>
      <g>
       <use style="stroke:#000000;stroke-linecap:butt;stroke-width:0.5;" x="430.796897344" xlink:href="#mf0ff38ea95" y="16.276875"/>
      </g>
     </g>
    </g>
    <g id="xtick_18">
     <g id="line2d_23">
      <defs>
       <path d="
M0 0
L0 -2" id="mf0ff38ea95"/>
      </defs>
      <g>
       <use style="stroke:#000000;stroke-linecap:butt;stroke-width:0.5;" x="455.510521709" xlink:href="#mf0ff38ea95" y="16.276875"/>
      </g>
     </g>
    </g>
    <g id="xtick_19">
     <g id="line2d_24">
      <defs>
       <path d="
M0 0
L0 -2" id="mf0ff38ea95"/>
      </defs>
      <g>
       <use style="stroke:#000000;stroke-linecap:butt;stroke-width:0.5;" x="480.224146075" xlink:href="#mf0ff38ea95" y="16.276875"/>
      </g>
     </g>
    </g>
    <g id="xtick_20">
     <g id="line2d_25">
      <defs>
       <path d="
M0 0
L0 -2" id="mf0ff38ea95"/>
      </defs>
      <g>
       <use style="stroke:#000000;stroke-linecap:butt;stroke-width:0.5;" x="504.937770441" xlink:href="#mf0ff38ea95" y="16.276875"/>
      </g>
     </g>
    </g>
   </g>
   <g id="matplotlib.axis_2">
    <g id="ytick_1">
     <g id="line2d_26">
      <path d="
M42.6088 381.718
L557.426 381.718" style="fill:none;stroke:#000000;stroke-dasharray:1.000000,3.000000;stroke-dashoffset:0.0;stroke-linecap:butt;stroke-width:0.5;"/>
     </g>
     <g id="line2d_27">
      <defs>
       <path d="
M0 0
L4 0" id="mc91e532072"/>
      </defs>
      <g>
       <use style="stroke:#000000;stroke-linecap:butt;stroke-width:0.5;" x="32.60875" xlink:href="#mc91e532072" y="381.718222057"/>
      </g>
     </g>
     <g id="text_5">
      <!-- -4 -->
      <defs>
       <path d="
M4.89062 31.3906
L31.2031 31.3906
L31.2031 23.3906
L4.89062 23.3906
z
" id="BitstreamVeraSans-Roman-2d"/>
       <path d="
M37.7969 64.3125
L12.8906 25.3906
L37.7969 25.3906
z

M35.2031 72.9062
L47.6094 72.9062
L47.6094 25.3906
L58.0156 25.3906
L58.0156 17.1875
L47.6094 17.1875
L47.6094 0
L37.7969 0
L37.7969 17.1875
L4.89062 17.1875
L4.89062 26.7031
z
" id="BitstreamVeraSans-Roman-34"/>
      </defs>
      <g transform="translate(7.2 390.466972057)scale(0.24 -0.24)">
       <use xlink:href="#BitstreamVeraSans-Roman-2d"/>
       <use x="36.083984375" xlink:href="#BitstreamVeraSans-Roman-34"/>
      </g>
     </g>
    </g>
    <g id="ytick_2">
     <g id="line2d_28">
      <path d="
M42.6088 290.358
L557.426 290.358" style="fill:none;stroke:#000000;stroke-dasharray:1.000000,3.000000;stroke-dashoffset:0.0;stroke-linecap:butt;stroke-width:0.5;"/>
     </g>
     <g id="line2d_29">
      <defs>
       <path d="
M0 0
L4 0" id="mc91e532072"/>
      </defs>
      <g>
       <use style="stroke:#000000;stroke-linecap:butt;stroke-width:0.5;" x="32.60875" xlink:href="#mc91e532072" y="290.357885293"/>
      </g>
     </g>
     <g id="text_6">
      <!-- -3 -->
      <defs>
       <path d="
M40.5781 39.3125
Q47.6562 37.7969 51.625 33
Q55.6094 28.2188 55.6094 21.1875
Q55.6094 10.4062 48.1875 4.48438
Q40.7656 -1.42188 27.0938 -1.42188
Q22.5156 -1.42188 17.6562 -0.515625
Q12.7969 0.390625 7.625 2.20312
L7.625 11.7188
Q11.7188 9.32812 16.5938 8.10938
Q21.4844 6.89062 26.8125 6.89062
Q36.0781 6.89062 40.9375 10.5469
Q45.7969 14.2031 45.7969 21.1875
Q45.7969 27.6406 41.2812 31.2656
Q36.7656 34.9062 28.7188 34.9062
L20.2188 34.9062
L20.2188 43.0156
L29.1094 43.0156
Q36.375 43.0156 40.2344 45.9219
Q44.0938 48.8281 44.0938 54.2969
Q44.0938 59.9062 40.1094 62.9062
Q36.1406 65.9219 28.7188 65.9219
Q24.6562 65.9219 20.0156 65.0312
Q15.375 64.1562 9.8125 62.3125
L9.8125 71.0938
Q15.4375 72.6562 20.3438 73.4375
Q25.25 74.2188 29.5938 74.2188
Q40.8281 74.2188 47.3594 69.1094
Q53.9062 64.0156 53.9062 55.3281
Q53.9062 49.2656 50.4375 45.0938
Q46.9688 40.9219 40.5781 39.3125" id="BitstreamVeraSans-Roman-33"/>
      </defs>
      <g transform="translate(7.7775 299.093510293)scale(0.24 -0.24)">
       <use xlink:href="#BitstreamVeraSans-Roman-2d"/>
       <use x="36.083984375" xlink:href="#BitstreamVeraSans-Roman-33"/>
      </g>
     </g>
    </g>
    <g id="ytick_3">
     <g id="line2d_30">
      <path d="
M42.6088 198.998
L557.426 198.998" style="fill:none;stroke:#000000;stroke-dasharray:1.000000,3.000000;stroke-dashoffset:0.0;stroke-linecap:butt;stroke-width:0.5;"/>
     </g>
     <g id="line2d_31">
      <defs>
       <path d="
M0 0
L4 0" id="mc91e532072"/>
      </defs>
      <g>
       <use style="stroke:#000000;stroke-linecap:butt;stroke-width:0.5;" x="32.60875" xlink:href="#mc91e532072" y="198.997548529"/>
      </g>
     </g>
     <g id="text_7">
      <!-- -2 -->
      <g transform="translate(8.2575 207.903798529)scale(0.24 -0.24)">
       <use xlink:href="#BitstreamVeraSans-Roman-2d"/>
       <use x="36.083984375" xlink:href="#BitstreamVeraSans-Roman-32"/>
      </g>
     </g>
    </g>
    <g id="ytick_4">
     <g id="line2d_32">
      <path d="
M42.6088 107.637
L557.426 107.637" style="fill:none;stroke:#000000;stroke-dasharray:1.000000,3.000000;stroke-dashoffset:0.0;stroke-linecap:butt;stroke-width:0.5;"/>
     </g>
     <g id="line2d_33">
      <defs>
       <path d="
M0 0
L4 0" id="mc91e532072"/>
      </defs>
      <g>
       <use style="stroke:#000000;stroke-linecap:butt;stroke-width:0.5;" x="32.60875" xlink:href="#mc91e532072" y="107.637211764"/>
      </g>
     </g>
     <g id="text_8">
      <!-- -1 -->
      <g transform="translate(8.07 116.385961764)scale(0.24 -0.24)">
       <use xlink:href="#BitstreamVeraSans-Roman-2d"/>
       <use x="36.083984375" xlink:href="#BitstreamVeraSans-Roman-31"/>
      </g>
     </g>
    </g>
    <g id="ytick_5">
     <g id="line2d_34">
      <path d="
M42.6088 16.2769
L557.426 16.2769" style="fill:none;stroke:#000000;stroke-dasharray:1.000000,3.000000;stroke-dashoffset:0.0;stroke-linecap:butt;stroke-width:0.5;"/>
     </g>
     <g id="line2d_35">
      <defs>
       <path d="
M0 0
L4 0" id="mc91e532072"/>
      </defs>
      <g>
       <use style="stroke:#000000;stroke-linecap:butt;stroke-width:0.5;" x="32.60875" xlink:href="#mc91e532072" y="16.276875"/>
      </g>
     </g>
     <g id="text_9">
      <!-- 0 -->
      <g transform="translate(16.515 25.0125)scale(0.24 -0.24)">
       <use xlink:href="#BitstreamVeraSans-Roman-30"/>
      </g>
     </g>
    </g>
    <g id="ytick_6">
     <g id="line2d_36">
      <defs>
       <path d="
M0 0
L2 0" id="m0789224b6b"/>
      </defs>
      <g>
       <use style="stroke:#000000;stroke-linecap:butt;stroke-width:0.5;" x="32.60875" xlink:href="#m0789224b6b" y="399.99028941"/>
      </g>
     </g>
    </g>
    <g id="ytick_7">
     <g id="line2d_37">
      <defs>
       <path d="
M0 0
L2 0" id="m0789224b6b"/>
      </defs>
      <g>
       <use style="stroke:#000000;stroke-linecap:butt;stroke-width:0.5;" x="32.60875" xlink:href="#m0789224b6b" y="363.446154704"/>
      </g>
     </g>
    </g>
    <g id="ytick_8">
     <g id="line2d_38">
      <defs>
       <path d="
M0 0
L2 0" id="m0789224b6b"/>
      </defs>
      <g>
       <use style="stroke:#000000;stroke-linecap:butt;stroke-width:0.5;" x="32.60875" xlink:href="#m0789224b6b" y="345.174087351"/>
      </g>
     </g>
    </g>
    <g id="ytick_9">
     <g id="line2d_39">
      <defs>
       <path d="
M0 0
L2 0" id="m0789224b6b"/>
      </defs>
      <g>
       <use style="stroke:#000000;stroke-linecap:butt;stroke-width:0.5;" x="32.60875" xlink:href="#m0789224b6b" y="326.902019998"/>
      </g>
     </g>
    </g>
    <g id="ytick_10">
     <g id="line2d_40">
      <defs>
       <path d="
M0 0
L2 0" id="m0789224b6b"/>
      </defs>
      <g>
       <use style="stroke:#000000;stroke-linecap:butt;stroke-width:0.5;" x="32.60875" xlink:href="#m0789224b6b" y="308.629952646"/>
      </g>
     </g>
    </g>
    <g id="ytick_11">
     <g id="line2d_41">
      <defs>
       <path d="
M0 0
L2 0" id="m0789224b6b"/>
      </defs>
      <g>
       <use style="stroke:#000000;stroke-linecap:butt;stroke-width:0.5;" x="32.60875" xlink:href="#m0789224b6b" y="272.08581794"/>
      </g>
     </g>
    </g>
    <g id="ytick_12">
     <g id="line2d_42">
      <defs>
       <path d="
M0 0
L2 0" id="m0789224b6b"/>
      </defs>
      <g>
       <use style="stroke:#000000;stroke-linecap:butt;stroke-width:0.5;" x="32.60875" xlink:href="#m0789224b6b" y="253.813750587"/>
      </g>
     </g>
    </g>
    <g id="ytick_13">
     <g id="line2d_43">
      <defs>
       <path d="
M0 0
L2 0" id="m0789224b6b"/>
      </defs>
      <g>
       <use style="stroke:#000000;stroke-linecap:butt;stroke-width:0.5;" x="32.60875" xlink:href="#m0789224b6b" y="235.541683234"/>
      </g>
     </g>
    </g>
    <g id="ytick_14">
     <g id="line2d_44">
      <defs>
       <path d="
M0 0
L2 0" id="m0789224b6b"/>
      </defs>
      <g>
       <use style="stroke:#000000;stroke-linecap:butt;stroke-width:0.5;" x="32.60875" xlink:href="#m0789224b6b" y="217.269615881"/>
      </g>
     </g>
    </g>
    <g id="ytick_15">
     <g id="line2d_45">
      <defs>
       <path d="
M0 0
L2 0" id="m0789224b6b"/>
      </defs>
      <g>
       <use style="stroke:#000000;stroke-linecap:butt;stroke-width:0.5;" x="32.60875" xlink:href="#m0789224b6b" y="198.997548529"/>
      </g>
     </g>
    </g>
    <g id="ytick_16">
     <g id="line2d_46">
      <defs>
       <path d="
M0 0
L2 0" id="m0789224b6b"/>
      </defs>
      <g>
       <use style="stroke:#000000;stroke-linecap:butt;stroke-width:0.5;" x="32.60875" xlink:href="#m0789224b6b" y="180.725481176"/>
      </g>
     </g>
    </g>
    <g id="ytick_17">
     <g id="line2d_47">
      <defs>
       <path d="
M0 0
L2 0" id="m0789224b6b"/>
      </defs>
      <g>
       <use style="stroke:#000000;stroke-linecap:butt;stroke-width:0.5;" x="32.60875" xlink:href="#m0789224b6b" y="162.453413823"/>
      </g>
     </g>
    </g>
    <g id="ytick_18">
     <g id="line2d_48">
      <defs>
       <path d="
M0 0
L2 0" id="m0789224b6b"/>
      </defs>
      <g>
       <use style="stroke:#000000;stroke-linecap:butt;stroke-width:0.5;" x="32.60875" xlink:href="#m0789224b6b" y="144.18134647"/>
      </g>
     </g>
    </g>
    <g id="ytick_19">
     <g id="line2d_49">
      <defs>
       <path d="
M0 0
L2 0" id="m0789224b6b"/>
      </defs>
      <g>
       <use style="stroke:#000000;stroke-linecap:butt;stroke-width:0.5;" x="32.60875" xlink:href="#m0789224b6b" y="125.909279117"/>
      </g>
     </g>
    </g>
    <g id="ytick_20">
     <g id="line2d_50">
      <defs>
       <path d="
M0 0
L2 0" id="m0789224b6b"/>
      </defs>
      <g>
       <use style="stroke:#000000;stroke-linecap:butt;stroke-width:0.5;" x="32.60875" xlink:href="#m0789224b6b" y="107.637211764"/>
      </g>
     </g>
    </g>
    <g id="ytick_21">
     <g id="line2d_51">
      <defs>
       <path d="
M0 0
L2 0" id="m0789224b6b"/>
      </defs>
      <g>
       <use style="stroke:#000000;stroke-linecap:butt;stroke-width:0.5;" x="32.60875" xlink:href="#m0789224b6b" y="89.3651444114"/>
      </g>
     </g>
    </g>
    <g id="ytick_22">
     <g id="line2d_52">
      <defs>
       <path d="
M0 0
L2 0" id="m0789224b6b"/>
      </defs>
      <g>
       <use style="stroke:#000000;stroke-linecap:butt;stroke-width:0.5;" x="32.60875" xlink:href="#m0789224b6b" y="71.0930770586"/>
      </g>
     </g>
    </g>
    <g id="ytick_23">
     <g id="line2d_53">
      <defs>
       <path d="
M0 0
L2 0" id="m0789224b6b"/>
      </defs>
      <g>
       <use style="stroke:#000000;stroke-linecap:butt;stroke-width:0.5;" x="32.60875" xlink:href="#m0789224b6b" y="52.8210097057"/>
      </g>
     </g>
    </g>
    <g id="ytick_24">
     <g id="line2d_54">
      <defs>
       <path d="
M0 0
L2 0" id="m0789224b6b"/>
      </defs>
      <g>
       <use style="stroke:#000000;stroke-linecap:butt;stroke-width:0.5;" x="32.60875" xlink:href="#m0789224b6b" y="34.5489423529"/>
      </g>
     </g>
    </g>
   </g>
   <g id="patch_3">
    <path d="
M42.6088 16.2769
L557.426 16.2769" style="fill:none;stroke:#000000;stroke-width:0.8;"/>
   </g>
   <g id="patch_4">
    <path d="
M32.6088 412.239
L32.6088 8.51291" style="fill:none;stroke:#000000;stroke-width:0.8;"/>
   </g>
  </g>
 </g>
 <defs>
  <clipPath id="p51b3ba9df9">
   <rect height="403.726153846" width="514.8175" x="42.60875" y="8.51291050296"/>
  </clipPath>
 </defs>
</svg>
