<?xml version="1.0" encoding="utf-8" standalone="no"?>
<!DOCTYPE svg PUBLIC "-//W3C//DTD SVG 1.1//EN"
  "http://www.w3.org/Graphics/SVG/1.1/DTD/svg11.dtd">
<!-- Created with matplotlib (http://matplotlib.sourceforge.net/) -->
<svg height="419pt" version="1.1" viewBox="0 0 564 419" width="564pt" xmlns="http://www.w3.org/2000/svg" xmlns:xlink="http://www.w3.org/1999/xlink">
 <defs>
  <style type="text/css">
*{stroke-linecap:square;stroke-linejoin:round;}
  </style>
 </defs>
 <g id="figure_1">
  <g id="patch_1">
   <path d="
M4.44089e-16 419.439
L564.626 419.439
L564.626 0
L4.44089e-16 0
z
" style="fill:#ffffff;"/>
  </g>
  <g id="axes_1">
   <g id="patch_2">
    <path d="
M42.6088 412.239
L557.426 412.239
L557.426 8.51291
L42.6088 8.51291
z
" style="fill:#ffffff;"/>
   </g>
   <g id="line2d_1">
    <path clip-path="url(#p51b3ba9df9)" d="
M52.5091 16.2769
L62.5296 16.2769
L62.5296 31.8744
L75.154 31.8744
L75.154 59.1893
L83.4694 59.1893
L83.4694 79.8859
L94.6396 79.8859
L94.6396 108.88
L98.7681 108.88
L98.7681 120.201
L105.398 120.201
L105.398 139.888
L108.147 139.888
L108.147 148.601
L112.868 148.601
L112.868 164.607
L118.597 164.607
L118.597 177.291
L120.245 177.291
L120.245 179.539
L124.618 179.539
L124.618 186.958
L127.155 186.958
L127.155 191.878
L128.332 191.878
L128.332 194.536
L130.53 194.536
L130.53 200.157
L133.499 200.157
L133.499 205.788
L136.15 205.788
L136.15 211.315
L136.973 211.315
L136.973 213.236
L139.292 213.236
L139.292 219.182
L140.725 219.182
L140.725 223.118
L141.412 223.118
L141.412 225.172
L143.364 225.172
L143.364 231.403
L144.584 231.403
L144.584 234.674
L146.309 234.674
L146.309 238.49
L148.437 238.49
L148.437 242.193
L149.435 242.193
L149.435 244.119
L149.92 244.119
L149.92 245.17
L150.861 245.17
L150.861 247.43
L151.319 247.43
L151.319 248.366
L152.21 248.366
L152.21 250.394
L155.096 250.394
L155.096 255.712
L155.863 255.712
L155.863 256.817
L156.969 256.817
L156.969 258.632
L157.328 258.632
L157.328 259.11
L159.045 259.11
L159.045 260.864
L159.374 260.864
L159.374 261.264
L160.337 261.264
L160.337 262.164
L161.264 262.164
L161.264 262.767
L161.863 262.767
L161.863 263.277
L162.735 263.277
L162.735 263.79
L163.578 263.79
L163.578 264.446
L163.853 264.446
L163.853 264.592
L165.182 264.592
L165.182 265.546
L165.439 265.546
L165.439 265.778
L165.946 265.778
L165.946 266.334
L166.196 266.334
L166.196 266.656
L167.643 266.656
L167.643 268.751
L169.01 268.751
L169.01 270.886
L169.449 270.886
L169.449 271.457
L169.666 271.457
L169.666 271.778
L170.094 271.778
L170.094 272.319
L170.722 272.319
L170.722 273.215
L170.928 273.215
L170.928 273.463
L171.933 273.463
L171.933 274.448
L172.517 274.448
L172.517 275.107
L173.087 275.107
L173.087 275.838
L173.645 275.838
L173.645 276.432
L173.828 276.432
L173.828 276.59
L174.369 276.59
L174.369 276.949
L174.723 276.949
L174.723 277.114
L174.898 277.114
L174.898 277.226
L175.757 277.226
L175.757 277.903
L176.91 277.903
L176.91 278.562
L177.23 278.562
L177.23 278.68
L177.702 278.765
L177.702 278.982
L178.77 278.982
L178.77 279.868
L179.214 279.868
L179.214 280.294
L179.937 280.294
L179.937 281.083
L180.079 281.083
L180.079 281.258
L180.361 281.258
L180.361 281.646
L180.777 281.646
L180.777 282.144
L181.322 282.144
L181.322 282.695
L181.723 282.695
L181.723 283.154
L182.117 283.154
L182.117 283.658
L182.376 283.658
L182.376 284.024
L182.761 284.024
L182.761 284.617
L183.264 284.617
L183.264 285.455
L183.511 285.455
L183.511 285.899
L184 285.899
L184 286.833
L184.597 286.833
L184.597 288.039
L184.714 288.039
L184.714 288.29
L185.294 288.29
L185.294 289.43
L185.409 289.43
L185.409 289.635
L185.749 289.635
L185.749 290.19
L185.973 290.19
L185.973 290.584
L186.306 290.584
L186.306 291.114
L186.742 291.114
L186.742 291.86
L186.957 291.86
L187.064 292.432
L187.277 292.432
L187.277 292.816
L187.904 292.816
L187.904 294.013
L188.313 294.013
L188.313 294.835
L188.516 294.835
L188.516 295.209
L188.915 295.209
L188.915 295.884
L189.112 295.884
L189.112 296.187
L189.405 296.187
L189.405 296.593
L189.981 296.593
L190.076 297.427
L190.912 297.427
L190.912 298.632
L191.185 298.632
L191.185 298.98
L191.632 298.98
L191.632 299.486
L191.897 299.486
L191.897 299.746
L192.159 299.746
L192.246 300.138
L192.504 300.138
L192.504 300.48
L192.929 300.48
L192.929 300.982
L193.18 300.982
L193.18 301.306
L193.429 301.306
L193.511 301.695
L193.757 301.695
L193.757 301.973
L194 301.973
L194 302.274
L194.161 302.274
L194.241 302.608
L194.715 302.608
L194.715 303.35
L195.104 303.35
L195.181 304.017
L195.334 304.017
L195.334 304.231
L195.562 304.231
L195.562 304.573
L195.788 304.573
L195.863 305.064
L196.308 305.064
L196.308 305.764
L196.454 305.764
L196.454 305.975
L196.672 305.975
L196.672 306.262
L196.96 306.262
L196.96 306.668
L197.315 306.668
L197.315 307.203
L197.596 307.203
L197.596 307.652
L197.942 307.652
L197.942 308.159
L198.215 308.159
L198.215 308.585
L198.418 308.585
L198.418 308.921
L198.62 308.921
L198.62 309.273
L198.753 309.273
L198.753 309.491
L199.018 309.491
L199.018 309.889
L199.215 309.889
L199.215 310.16
L199.345 310.16
L199.345 310.324
L199.603 310.324
L199.603 310.675
L199.731 310.675
L199.731 310.834
L200.175 310.834
L200.175 311.328
L200.487 311.328
L200.487 311.636
L200.856 311.636
L200.917 312.092
L201.22 312.092
L201.28 312.468
L201.4 312.468
L201.46 312.66
L201.756 312.66
L201.756 312.964
L202.165 312.964
L202.165 313.334
L202.338 313.425
L202.338 313.476
L202.453 313.476
L202.453 313.59
L202.851 313.59
L202.851 314.017
L202.963 314.017
L203.019 314.218
L203.131 314.218
L203.131 314.347
L203.682 314.347
L203.791 315.17
L204.007 315.17
L204.007 315.474
L204.275 315.474
L204.275 315.872
L204.486 315.872
L204.592 316.379
L204.749 316.379
L204.749 316.623
L204.905 316.623
L204.905 316.849
L205.265 316.849
L205.367 317.562
L205.52 317.562
L205.52 317.791
L205.671 317.791
L205.671 318.002
L205.871 318.002
L205.871 318.299
L206.02 318.299
L206.02 318.532
L206.316 318.532
L206.414 319.169
L206.56 319.169
L206.608 319.452
L206.849 319.452
L206.897 319.911
L207.04 319.911
L207.04 320.139
L207.277 320.139
L207.324 320.556
L207.558 320.556
L207.604 320.911
L207.744 320.911
L207.744 321.062
L208.156 321.062
L208.247 321.654
L208.383 321.714
L208.383 321.841
L208.517 321.841
L208.517 322.043
L208.651 322.043
L208.651 322.23
L208.829 322.23
L208.829 322.493
L208.961 322.493
L208.961 322.675
L209.093 322.675
L209.093 322.844
L209.57 322.844
L209.613 323.449
L209.826 323.449
L209.826 323.695
L209.996 323.695
L209.996 323.903
L210.206 323.903
L210.206 324.178
L210.331 324.178
L210.331 324.329
L210.456 324.329
L210.456 324.489
L210.621 324.489
L210.621 324.687
L210.867 324.687
L210.948 325.094
L211.07 325.094
L211.07 325.225
L211.191 325.225
L211.231 325.381
L211.351 325.381
L211.351 325.498
L211.589 325.498
L211.589 325.75
L211.787 325.75
L211.787 325.973
L212.137 325.973
L212.176 326.436
L212.369 326.515
L212.407 326.686
L212.521 326.686
L212.598 326.918
L212.711 326.966
L212.711 327.066
L212.937 327.066
L212.975 327.437
L213.087 327.437
L213.087 327.593
L213.712 327.593
L213.821 328.643
L213.929 328.643
L213.929 328.796
L214.072 328.796
L214.072 328.986
L214.392 328.986
L214.392 329.433
L214.568 329.433
L214.568 329.689
L214.813 329.689
L214.917 330.17
L215.089 330.257
L215.089 330.396
L215.226 330.396
L215.328 330.686
L215.43 330.686
L215.43 330.805
L215.633 330.805
L215.633 331.055
L215.8 331.055
L215.9 331.359
L215.999 331.399
L216.099 331.62
L216.296 331.62
L216.296 331.902
L216.491 331.902
L216.491 332.194
L216.621 332.194
L216.621 332.397
L216.814 332.397
L216.909 332.83
L217.069 332.923
L217.069 333.054
L217.195 333.054
L217.258 333.324
L217.384 333.324
L217.446 333.598
L217.664 333.598
L217.726 334
L217.818 334
L217.91 334.257
L218.002 334.257
L218.032 334.417
L218.124 334.417
L218.124 334.537
L218.275 334.537
L218.275 334.746
L218.575 334.746
L218.664 335.301
L218.754 335.377
L218.754 335.412
L219.106 335.412
L219.194 335.9
L219.339 335.9
L219.339 336.049
L219.512 336.049
L219.54 336.267
L219.683 336.267
L219.683 336.421
L219.797 336.421
L219.882 336.655
L220.051 336.752
L220.051 336.853
L220.303 336.853
L220.386 337.271
L220.635 337.377
L220.635 337.606
L220.771 337.606
L220.771 337.784
L220.935 337.784
L221.043 338.124
L221.258 338.124
L221.258 338.415
L221.445 338.415
L221.524 338.757
L221.603 338.831
L221.682 338.981
L221.814 338.981
L221.814 339.181
L221.97 339.181
L222.048 339.557
L222.126 339.557
L222.126 339.689
L222.357 339.689
L222.383 340.14
L222.586 340.14
L222.612 340.539
L222.889 340.539
L222.964 341.141
L223.064 341.141
L223.138 341.42
L223.212 341.498
L223.262 341.612
L223.36 341.612
L223.434 341.873
L223.556 341.873
L223.581 342.091
L223.702 342.091
L223.702 342.269
L223.871 342.269
L223.871 342.527
L223.991 342.527
L224.063 342.8
L224.206 342.8
L224.301 343.1
L224.419 343.1
L224.419 343.252
L224.56 343.252
L224.583 343.454
L224.769 343.454
L224.862 343.837
L225.047 343.941
L225.138 344.232
L225.343 344.232
L225.343 344.539
L225.614 344.539
L225.659 345.03
L225.815 345.133
L225.815 345.274
L225.992 345.274
L226.059 345.637
L226.147 345.637
L226.147 345.753
L226.322 345.753
L226.387 346.05
L226.474 346.05
L226.539 346.243
L226.647 346.326
L226.647 346.384
L226.775 346.384
L226.797 346.594
L227.031 346.594
L227.115 347.043
L227.221 347.135
L227.284 347.283
L227.43 347.283
L227.534 347.615
L227.658 347.708
L227.72 347.812
L227.844 347.812
L227.905 347.983
L228.109 348.039
L228.21 348.27
L228.411 348.377
L228.511 348.516
L228.769 348.516
L228.769 348.71
L228.946 348.71
L229.044 348.89
L229.297 348.987
L229.297 349.018
L229.508 349.018
L229.508 349.145
L229.794 349.215
L229.87 349.339
L230.151 349.427
L230.245 349.562
L230.485 349.661
L230.577 349.74
L230.815 349.835
L230.924 349.927
L231.122 350.037
L231.122 350.06
L231.336 350.147
L231.443 350.3
L231.707 350.397
L231.707 350.501
L231.865 350.597
L231.917 350.673
L232.073 350.771
L232.073 350.795
L232.296 350.897
L232.382 350.984
L232.636 351.081
L232.738 351.204
L232.939 351.301
L233.005 351.382
L233.237 351.382
L233.336 351.565
L233.581 351.668
L233.646 351.707
L233.92 351.813
L233.968 351.848
L234.207 351.923
L234.222 351.974
L234.553 352.039
L234.6 352.183
L234.771 352.28
L234.863 352.363
L235.063 352.453
L235.063 352.493
L235.231 352.493
L235.292 352.649
L235.593 352.711
L235.698 352.938
L235.921 353.033
L235.95 353.131
L236.127 353.227
L236.141 353.308
L236.273 353.414
L236.273 353.426
L236.433 353.519
L236.433 353.555
L236.577 353.555
L236.577 353.669
L236.749 353.753
L236.835 353.855
L236.991 353.855
L237.048 354.011
L237.245 354.103
L237.343 354.251
L237.454 354.295
L237.551 354.461
L237.703 354.546
L237.799 354.705
L237.963 354.816
L238.045 354.956
L238.234 355.066
L238.274 355.186
L238.408 355.289
L238.488 355.434
L238.608 355.519
L238.687 355.677
L238.832 355.677
L238.885 355.911
L239.042 355.984
L239.107 356.171
L239.223 356.171
L239.301 356.404
L239.391 356.404
L239.494 356.641
L239.609 356.742
L239.659 356.835
L239.774 356.835
L239.875 357.115
L240 357.18
L240.025 357.312
L240.15 357.312
L240.15 357.474
L240.287 357.474
L240.373 357.775
L240.472 357.862
L240.521 357.984
L240.656 357.984
L240.705 358.246
L240.802 358.246
L240.911 358.545
L241.031 358.613
L241.139 358.867
L241.283 358.948
L241.318 359.117
L241.425 359.117
L241.425 359.263
L241.567 359.263
L241.672 359.606
L241.801 359.709
L241.905 359.932
L241.987 360.03
L242.079 360.179
L242.297 360.244
L242.365 360.574
L242.468 360.653
L242.558 360.837
L242.66 360.837
L242.761 361.117
L242.839 361.212
L242.94 361.369
L243.028 361.451
L243.062 361.554
L243.161 361.554
L243.227 361.807
L243.304 361.807
L243.392 362.07
L243.523 362.07
L243.631 362.474
L243.717 362.474
L243.825 362.797
L243.922 362.797
L244.018 363.137
L244.081 363.235
L244.145 363.369
L244.23 363.465
L244.293 363.638
L244.356 363.638
L244.461 363.951
L244.607 364.046
L244.649 364.289
L244.773 364.289
L244.866 364.691
L244.928 364.691
L245.02 364.974
L245.173 364.974
L245.254 365.418
L245.315 365.418
L245.416 365.731
L245.526 365.833
L245.626 366.152
L245.706 366.212
L245.805 366.512
L245.865 366.57
L245.973 366.82
L246.062 366.838
L246.16 367.136
L246.247 367.136
L246.354 367.471
L246.422 367.54
L246.451 367.64
L246.586 367.64
L246.682 368.038
L246.787 368.137
L246.882 368.394
L246.967 368.394
L247.014 368.642
L247.127 368.642
L247.221 369.045
L247.296 369.045
L247.352 369.285
L247.417 369.285
L247.463 369.496
L247.528 369.496
L247.546 369.652
L247.684 369.652
L247.767 370.086
L247.831 370.156
L247.94 370.419
L248.094 370.523
L248.149 370.811
L248.23 370.811
L248.319 371.112
L248.48 371.19
L248.586 371.587
L248.772 371.668
L248.877 372.125
L248.973 372.219
L249.077 372.466
L249.155 372.527
L249.181 372.647
L249.268 372.647
L249.319 372.881
L249.448 372.881
L249.542 373.239
L249.627 373.322
L249.72 373.526
L249.796 373.616
L249.88 373.776
L249.973 373.877
L250.073 374.074
L250.181 374.153
L250.181 374.242
L250.297 374.242
L250.404 374.589
L250.495 374.615
L250.593 374.89
L250.674 374.989
L250.747 375.148
L250.837 375.21
L250.917 375.41
L251.038 375.519
L251.078 375.654
L251.174 375.654
L251.269 375.957
L251.372 376.008
L251.467 376.275
L251.577 376.37
L251.671 376.582
L251.749 376.665
L251.843 376.846
L251.928 376.923
L251.959 377.042
L252.051 377.042
L252.159 377.361
L252.235 377.374
L252.319 377.628
L252.433 377.628
L252.532 377.98
L252.615 378.079
L252.66 378.184
L252.757 378.292
L252.802 378.415
L252.929 378.524
L253.025 378.771
L253.106 378.839
L253.173 378.99
L253.327 379.086
L253.436 379.359
L253.552 379.424
L253.617 379.632
L253.697 379.714
L253.769 379.847
L253.855 379.93
L253.89 380.023
L253.997 380.023
L254.104 380.32
L254.189 380.417
L254.28 380.568
L254.385 380.647
L254.462 380.829
L254.546 380.829
L254.636 381.074
L254.74 381.181
L254.837 381.355
L254.919 381.449
L255.028 381.617
L255.165 381.666
L255.253 381.927
L255.387 382.036
L255.455 382.204
L255.535 382.204
L255.615 382.434
L255.728 382.515
L255.827 382.751
L255.913 382.84
L256.012 383.02
L256.09 383.129
L256.188 383.283
L256.286 383.357
L256.376 383.544
L256.479 383.646
L256.55 383.779
L256.672 383.887
L256.729 384.03
L256.825 384.03
L256.932 384.322
L257.027 384.404
L257.121 384.593
L257.196 384.677
L257.29 384.849
L257.371 384.916
L257.463 385.111
L257.605 385.219
L257.697 385.462
L257.771 385.56
L257.862 385.721
L257.935 385.721
L258.032 385.98
L258.122 386.037
L258.225 386.296
L258.302 386.404
L258.386 386.584
L258.481 386.682
L258.582 386.909
L258.653 386.977
L258.758 387.184
L258.87 387.29
L258.887 387.379
L258.986 387.379
L259.097 387.69
L259.195 387.791
L259.298 387.992
L259.39 388.078
L259.493 388.264
L259.578 388.349
L259.674 388.506
L259.782 388.58
L259.86 388.738
L259.978 388.838
L260.084 388.977
L260.211 389.088
L260.316 389.199
L260.432 389.31
L260.53 389.409
L260.677 389.512
L260.769 389.619
L260.936 389.72
L261.044 389.829
L261.188 389.923
L261.267 390.008
L261.41 390.112
L261.521 390.21
L261.677 390.314
L261.787 390.396
L261.957 390.449
L262.065 390.585
L262.295 390.694
L262.372 390.763
L262.644 390.872
L262.754 390.932
L263.091 391.04
L263.194 391.098
L263.617 391.206
L263.704 391.234
L264.033 391.325
L264.118 391.387
L264.433 391.496
L264.531 391.534
L264.899 391.64
L265.009 391.665
L265.416 391.772
L265.514 391.831
L265.794 391.929
L265.895 391.994
L266.136 392.103
L266.236 392.155
L266.434 392.266
L266.512 392.32
L266.704 392.407
L266.789 392.485
L267.042 392.596
L267.147 392.714
L267.305 392.821
L267.409 392.906
L267.582 393
L267.656 393.097
L267.811 393.201
L267.92 393.291
L268.078 393.397
L268.174 393.465
L268.334 393.565
L268.429 393.64
L268.619 393.749
L268.713 393.818
L268.901 393.928
L268.99 394.002
L269.18 394.104
L269.28 394.172
L269.546 394.281
L269.603 394.33
L269.818 394.435
L269.915 394.504
L270.098 394.613
L270.198 394.702
L270.374 394.807
L270.484 394.895
L270.622 394.982
L270.724 395.097
L270.872 395.2
L270.972 395.337
L271.09 395.428
L271.197 395.558
L271.313 395.667
L271.416 395.761
L271.566 395.839
L271.661 395.979
L271.806 396.06
L271.91 396.193
L272.044 396.296
L272.147 396.386
L272.286 396.492
L272.388 396.585
L272.543 396.693
L272.653 396.79
L272.8 396.886
L272.903 397.009
L273.042 397.088
L273.147 397.209
L273.304 397.313
L273.414 397.424
L273.557 397.528
L273.656 397.614
L273.82 397.715
L273.925 397.82
L274.086 397.926
L274.196 398.016
L274.397 398.1
L274.496 398.189
L274.703 398.294
L274.811 398.382
L275.033 398.491
L275.133 398.546
L275.365 398.656
L275.476 398.716
L275.734 398.823
L275.837 398.878
L276.083 398.979
L276.19 399.044
L276.447 399.153
L276.544 399.203
L276.927 399.313
L277.009 399.358
L277.287 399.464
L277.393 399.518
L277.868 399.627
L277.974 399.639
L278.864 399.749
L278.967 399.759
L279.933 399.867
L280.04 399.914
L280.377 400.022
L280.482 400.065
L280.792 400.175
L280.893 400.209
L281.167 400.32
L281.273 400.372
L281.534 400.481
L281.625 400.521
L281.879 400.618
L281.937 400.658
L282.245 400.746
L282.34 400.84
L282.65 400.935
L282.65 400.991
L282.868 401.05
L282.967 401.161
L283.165 401.225
L283.258 401.337
L283.477 401.408
L283.576 401.534
L283.786 401.592
L283.882 401.738
L284.087 401.805
L284.182 401.954
L284.388 402.038
L284.488 402.208
L284.699 402.303
L284.809 402.497
L285.003 402.591
L285.003 402.655
L285.217 402.741
L285.317 402.892
L285.523 402.955
L285.616 403.084
L285.825 403.137
L285.825 403.196
L286.156 403.293
L286.232 403.393
L286.537 403.495
L286.642 403.579
L287.065 403.676
L287.153 403.729
L287.458 403.81
L287.562 403.897
L287.875 403.989
L287.981 404.078
L288.393 404.185
L288.49 404.263
L288.996 404.359
L289.1 404.395
L292.07 404.284
L292.175 404.266
L295.558 404.17
L295.654 404.111
L296.066 404.012
L296.169 403.959
L296.582 403.868
L296.684 403.795
L297.091 403.685
L297.19 403.608
L297.498 403.522
L297.603 403.451
L298.009 403.358
L298.117 403.306
L298.631 403.196
L298.725 403.123
L299.271 403.022
L299.343 402.987
L299.96 402.89
L300.059 402.832
L300.466 402.723
L300.572 402.62
L300.879 402.51
L300.981 402.4
L301.187 402.347
L301.291 402.224
L301.503 402.155
L301.601 402
L301.804 401.932
L301.905 401.784
L302.11 401.712
L302.209 401.557
L302.415 401.476
L302.515 401.319
L302.721 401.233
L302.825 401.076
L303.027 400.983
L303.13 400.806
L303.337 400.719
L303.439 400.565
L303.643 400.479
L303.748 400.301
L303.949 400.211
L304.059 400.031
L304.256 399.946
L304.359 399.8
L304.566 399.728
L304.671 399.6
L304.876 399.535
L304.98 399.4
L305.179 399.34
L305.281 399.209
L305.487 399.137
L305.593 399.002
L305.796 398.933
L305.896 398.796
L306.101 398.715
L306.21 398.581
L306.407 398.512
L306.515 398.374
L306.721 398.31
L306.819 398.179
L307.023 398.11
L307.127 397.992
L307.333 397.925
L307.434 397.795
L307.741 397.693
L307.842 397.613
L308.159 397.502
L308.257 397.431
L308.564 397.347
L308.667 397.242
L308.98 397.149
L309.073 397.052
L309.381 396.958
L309.481 396.869
L309.79 396.79
L309.891 396.718
L310.301 396.635
L310.406 396.554
L310.814 396.448
L310.814 396.415
L311.125 396.342
L311.222 396.26
L311.53 396.156
L311.631 396.072
L311.944 395.99
L312.047 395.879
L312.246 395.817
L312.354 395.693
L312.557 395.636
L312.659 395.531
L312.963 395.435
L313.068 395.343
L313.374 395.25
L313.476 395.14
L313.783 395.032
L313.891 394.935
L314.092 394.883
L314.194 394.766
L314.397 394.713
L314.502 394.593
L314.704 394.535
L314.807 394.425
L315.117 394.328
L315.217 394.248
L315.526 394.147
L315.632 394.03
L315.833 393.967
L315.935 393.843
L316.146 393.781
L316.246 393.666
L316.446 393.611
L316.548 393.494
L316.756 393.436
L316.857 393.319
L317.063 393.256
L317.164 393.127
L317.369 393.063
L317.47 392.944
L317.675 392.881
L317.778 392.764
L317.992 392.706
L318.085 392.604
L318.392 392.503
L318.497 392.413
L318.802 392.309
L318.907 392.198
L319.113 392.139
L319.211 392.032
L319.52 391.941
L319.623 391.839
L319.826 391.78
L319.93 391.668
L320.236 391.565
L320.339 391.461
L320.646 391.369
L320.748 391.27
L321.057 391.167
L321.158 391.077
L321.469 390.982
L321.567 390.884
L321.874 390.787
L321.978 390.693
L322.184 390.64
L322.287 390.525
L322.592 390.419
L322.695 390.301
L322.899 390.23
L323.003 390.074
L323.208 389.991
L323.309 389.827
L323.515 389.75
L323.616 389.577
L323.82 389.487
L323.924 389.296
L324.128 389.201
L324.231 389
L324.436 388.89
L324.538 388.661
L324.641 388.661
L324.742 388.425
L324.846 388.425
L324.951 388.192
L325.152 388.084
L325.255 387.853
L325.459 387.745
L325.564 387.549
L325.769 387.449
L325.87 387.249
L326.079 387.162
L326.18 386.994
L326.381 386.913
L326.486 386.761
L326.69 386.683
L326.792 386.519
L326.998 386.44
L327.101 386.307
L327.305 386.247
L327.406 386.131
L327.713 386.053
L327.815 385.958
L328.124 385.866
L328.23 385.776
L328.535 385.691
L328.635 385.6
L328.944 385.512
L329.045 385.47
L329.864 385.364
L329.966 385.323
L330.377 385.245
L330.481 385.163
L330.786 385.07
L330.896 384.984
L331.195 384.899
L331.298 384.84
L331.606 384.769
L331.708 384.682
L332.016 384.583
L332.117 384.512
L332.528 384.42
L332.629 384.362
L333.142 384.276
L333.244 384.223
L333.861 384.124
L333.961 384.09
L334.781 383.991
L334.883 383.936
L335.294 383.828
L335.396 383.779
L342.258 383.671
L342.36 383.655
L344.512 383.548
L344.613 383.54
L348.813 383.65
L348.917 383.671
L349.53 383.781
L349.634 383.823
L350.555 383.93
L350.657 383.96
L351.784 384.07
L351.886 384.089
L353.014 384.198
L353.116 384.235
L353.627 384.328
L353.73 384.376
L355.881 384.477
L355.984 384.531
L356.496 384.626
L356.6 384.665
L357.213 384.764
L357.315 384.805
L357.827 384.903
L357.93 384.937
L359.875 384.837
L359.978 384.767
L360.387 384.681
L360.491 384.62
L361.003 384.532
L361.105 384.482
L361.514 384.394
L361.617 384.337
L362.027 384.238
L362.129 384.173
L362.642 384.065
L362.743 383.995
L363.153 383.893
L363.255 383.842
L363.665 383.74
L363.768 383.661
L364.076 383.562
L364.178 383.444
L364.382 383.378
L364.485 383.236
L364.69 383.161
L364.792 383.023
L364.997 382.958
L365.1 382.826
L365.304 382.759
L365.407 382.627
L365.612 382.556
L365.714 382.404
L365.919 382.329
L366.021 382.162
L366.226 382.079
L366.329 381.91
L366.533 381.833
L366.636 381.698
L366.841 381.625
L366.943 381.486
L367.148 381.424
L367.25 381.293
L367.455 381.231
L367.558 381.12
L367.763 381.059
L367.865 380.946
L368.07 380.891
L368.173 380.776
L368.48 380.678
L368.582 380.604
L368.992 380.505
L369.094 380.429
L369.504 380.322
L369.606 380.26
L370.016 380.15
L370.119 380.083
L370.426 380.001
L370.529 379.901
L370.836 379.826
L370.938 379.75
L371.45 379.647
L371.553 379.619
L372.167 379.522
L372.269 379.478
L372.884 379.375
L372.986 379.333
L373.498 379.245
L373.601 379.196
L374.113 379.089
L374.215 379.059
L374.83 378.954
L374.933 378.889
L375.445 378.785
L375.547 378.739
L376.059 378.648
L376.162 378.592
L376.571 378.492
L376.674 378.425
L377.084 378.318
L377.187 378.243
L377.596 378.138
L377.698 378.074
L378.109 377.976
L378.21 377.936
L378.722 377.838
L378.825 377.782
L379.338 377.687
L379.44 377.643
L379.85 377.551
L379.953 377.465
L380.259 377.367
L380.362 377.257
L380.669 377.156
L380.771 377.062
L381.386 376.954
L381.488 376.915
L381.898 376.832
L382.001 376.767
L382.615 376.656
L382.717 376.621
L383.229 376.535
L383.333 376.48
L383.741 376.381
L383.844 376.344
L384.663 376.245
L384.766 376.22
L385.483 376.12
L385.585 376.091
L386.2 376
L386.302 375.957
L386.814 375.863
L386.917 375.823
L387.531 375.713
L387.634 375.699
L389.785 375.803
L389.887 375.845
L391.526 375.754
L391.629 375.709
L392.346 375.611
L392.448 375.577
L394.087 375.468
L394.189 375.407
L394.701 375.314
L394.804 375.271
L395.418 375.171
L395.521 375.141
L396.238 375.05
L396.34 375.001
L396.852 374.895
L396.955 374.836
L397.364 374.743
L397.467 374.701
L398.081 374.596
L398.184 374.558
L399.208 374.454
L399.311 374.421
L399.925 374.33
L400.028 374.286
L400.95 374.178
L401.052 374.15
L401.667 374.058
L401.769 373.999
L402.179 373.892
L402.281 373.82
L402.588 373.734
L402.691 373.644
L402.999 373.536
L403.101 373.424
L403.306 373.368
L403.408 373.232
L403.613 373.158
L403.715 373.017
L403.92 372.949
L404.022 372.821
L404.227 372.76
L404.33 372.631
L404.535 372.566
L404.637 372.428
L404.842 372.364
L404.944 372.238
L405.149 372.178
L405.252 372.048
L405.456 371.982
L405.559 371.848
L405.764 371.783
L405.866 371.656
L406.071 371.597
L406.173 371.483
L406.481 371.381
L406.583 371.291
L406.788 371.231
L406.89 371.097
L407.095 371.032
L407.198 370.914
L407.403 370.857
L407.505 370.745
L407.71 370.69
L407.812 370.565
L408.017 370.498
L408.12 370.356
L408.325 370.279
L408.427 370.139
L408.632 370.067
L408.734 369.925
L408.939 369.845
L409.041 369.681
L409.246 369.593
L409.349 369.41
L409.554 369.321
L409.656 369.142
L409.861 369.06
L409.963 368.911
L410.168 368.835
L410.271 368.678
L410.475 368.594
L410.578 368.438
L410.783 368.357
L410.885 368.202
L411.09 368.128
L411.192 367.976
L411.397 367.898
L411.5 367.733
L411.705 367.649
L411.807 367.488
L412.012 367.408
L412.114 367.235
L412.319 367.142
L412.422 366.959
L412.626 366.869
L412.729 366.698
L412.934 366.61
L413.036 366.419
L413.241 366.324
L413.343 366.146
L413.548 366.061
L413.651 365.892
L413.856 365.797
L413.958 365.609
L414.163 365.516
L414.265 365.33
L414.47 365.237
L414.573 365.05
L414.777 364.959
L414.88 364.78
L415.085 364.692
L415.187 364.526
L415.392 364.44
L415.494 364.27
L415.699 364.182
L415.802 364.002
L416.007 363.909
L416.109 363.706
L416.314 363.598
L416.416 363.373
L416.621 363.263
L416.724 363.061
L416.928 362.961
L417.031 362.757
L417.236 362.655
L417.338 362.459
L417.543 362.357
L417.646 362.16
L417.85 362.065
L417.953 361.893
L418.158 361.812
L418.26 361.655
L418.465 361.575
L418.567 361.399
L418.772 361.306
L418.875 361.12
L419.079 361.034
L419.182 360.866
L419.387 360.783
L419.489 360.617
L419.694 360.536
L419.796 360.369
L420.001 360.28
L420.104 360.097
L420.309 360.004
L420.411 359.834
L420.616 359.753
L420.718 359.601
L420.923 359.532
L421.026 359.398
L421.23 359.326
L421.333 359.168
L421.538 359.085
L421.64 358.915
L421.845 358.834
L421.947 358.672
L422.152 358.601
L422.255 358.46
L422.46 358.388
L422.562 358.235
L422.767 358.152
L422.869 357.978
L423.074 357.897
L423.177 357.722
L423.381 357.624
L423.484 357.44
L423.689 357.35
L423.791 357.18
L423.996 357.095
L424.099 356.933
L424.303 356.86
L424.406 356.722
L424.611 356.646
L424.713 356.497
L424.918 356.423
L425.02 356.272
L425.225 356.196
L425.328 356.052
L425.532 355.977
L425.635 355.814
L425.84 355.736
L425.942 355.578
L426.147 355.505
L426.25 355.368
L426.454 355.303
L426.557 355.171
L426.762 355.106
L426.864 354.979
L427.069 354.913
L427.171 354.776
L427.376 354.708
L427.479 354.572
L427.684 354.51
L427.786 354.386
L427.991 354.329
L428.093 354.206
L428.298 354.141
L428.401 354.006
L428.605 353.928
L428.708 353.763
L428.913 353.681
L429.015 353.528
L429.22 353.448
L429.323 353.281
L429.527 353.196
L429.63 353.024
L429.835 352.933
L429.937 352.737
L430.142 352.641
L430.244 352.456
L430.449 352.361
L430.552 352.169
L430.756 352.079
L430.859 351.907
L431.064 351.818
L431.166 351.634
L431.371 351.538
L431.473 351.345
L431.678 351.252
L431.781 351.074
L431.986 350.984
L432.088 350.8
L432.293 350.714
L432.395 350.563
L432.6 350.485
L432.703 350.327
L432.907 350.246
L433.01 350.086
L433.215 350.014
L433.317 349.872
L433.522 349.804
L433.624 349.667
L433.829 349.598
L433.932 349.462
L434.137 349.395
L434.239 349.264
L434.444 349.198
L434.546 349.064
L434.751 348.993
L434.854 348.852
L435.058 348.778
L435.161 348.625
L435.366 348.557
L435.468 348.407
L435.673 348.331
L435.775 348.179
L435.98 348.108
L436.083 347.959
L436.288 347.874
L436.39 347.697
L436.595 347.61
L436.697 347.447
L436.902 347.371
L437.005 347.221
L437.209 347.146
L437.312 347
L437.517 346.928
L437.619 346.793
L437.824 346.724
L437.926 346.591
L438.131 346.523
L438.234 346.388
L438.439 346.324
L438.541 346.214
L438.746 346.161
L438.848 346.037
L439.053 345.975
L439.156 345.851
L439.36 345.79
L439.463 345.676
L439.668 345.617
L439.77 345.499
L439.975 345.439
L440.078 345.328
L440.385 345.22
L440.487 345.109
L440.692 345.056
L440.795 344.934
L440.999 344.871
L441.102 344.748
L441.307 344.688
L441.409 344.566
L441.716 344.456
L441.819 344.353
L442.024 344.297
L442.126 344.183
L442.433 344.076
L442.536 343.961
L442.843 343.854
L442.946 343.751
L443.253 343.647
L443.355 343.532
L443.56 343.475
L443.663 343.359
L443.867 343.298
L443.97 343.172
L444.175 343.108
L444.277 342.967
L444.482 342.893
L444.584 342.746
L444.789 342.673
L444.892 342.536
L445.097 342.47
L445.199 342.355
L445.404 342.296
L445.506 342.181
L445.711 342.12
L445.814 342.007
L446.018 341.948
L446.121 341.83
L446.326 341.775
L446.428 341.649
L446.633 341.583
L446.735 341.458
L446.94 341.399
L447.043 341.28
L447.248 341.216
L447.35 341.079
L447.555 341.009
L447.657 340.888
L447.862 340.826
L447.965 340.7
L448.169 340.633
L448.272 340.507
L448.477 340.449
L448.579 340.336
L448.784 340.276
L448.886 340.162
L449.091 340.103
L449.194 339.986
L449.399 339.927
L449.501 339.808
L449.808 339.7
L449.911 339.582
L450.116 339.519
L450.218 339.383
L450.423 339.312
L450.525 339.156
L450.73 339.074
L450.833 338.904
L451.037 338.819
L451.14 338.646
L451.345 338.555
L451.447 338.381
L451.652 338.299
L451.754 338.131
L451.959 338.056
L452.062 337.914
L452.267 337.847
L452.369 337.725
L452.574 337.664
L452.676 337.529
L452.881 337.455
L452.984 337.32
L453.188 337.258
L453.291 337.142
L453.496 337.085
L453.598 336.966
L453.803 336.907
L453.905 336.792
L454.213 336.681
L454.315 336.576
L454.622 336.492
L454.725 336.414
L455.032 336.328
L455.135 336.248
L455.442 336.16
L455.544 336.064
L455.852 335.962
L455.954 335.84
L456.159 335.773
L456.261 335.632
L456.466 335.565
L456.569 335.441
L456.773 335.378
L456.876 335.258
L457.183 335.149
L457.286 335.045
L457.593 334.941
L457.695 334.838
L458.003 334.731
L458.105 334.629
L458.412 334.527
L458.515 334.414
L458.72 334.353
L458.822 334.23
L459.027 334.167
L459.129 334.043
L459.334 333.984
L459.437 333.872
L459.642 333.813
L459.744 333.695
L460.051 333.587
L460.154 333.479
L460.461 333.371
L460.563 333.271
L460.871 333.18
L460.973 333.094
L461.28 333.002
L461.383 332.911
L461.69 332.824
L461.793 332.73
L462.1 332.639
L462.202 332.552
L462.51 332.477
L462.612 332.391
L462.919 332.298
L463.022 332.204
L463.329 332.104
L463.431 331.987
L463.739 331.876
L463.841 331.75
L464.046 331.687
L464.148 331.563
L464.456 331.456
L464.558 331.353
L464.865 331.248
L464.968 331.138
L465.173 331.079
L465.275 330.949
L465.48 330.889
L465.582 330.775
L465.787 330.716
L465.89 330.606
L466.197 330.511
L466.299 330.412
L466.607 330.304
L466.709 330.188
L466.914 330.13
L467.016 330.008
L467.221 329.946
L467.324 329.819
L467.529 329.751
L467.631 329.604
L467.836 329.535
L467.938 329.378
L468.143 329.296
L468.246 329.137
L468.45 329.06
L468.553 328.903
L468.758 328.83
L468.86 328.69
L469.065 328.616
L469.167 328.472
L469.372 328.4
L469.475 328.275
L469.68 328.217
L469.782 328.111
L470.089 328.024
L470.192 327.93
L470.499 327.839
L470.601 327.742
L470.909 327.641
L471.011 327.536
L471.216 327.48
L471.318 327.365
L471.626 327.257
L471.728 327.163
L472.035 327.089
L472.138 327.012
L472.548 326.902
L472.65 326.83
L473.06 326.719
L473.162 326.645
L473.469 326.559
L473.572 326.473
L473.879 326.383
L473.982 326.293
L474.289 326.192
L474.391 326.078
L474.699 325.977
L474.801 325.874
L475.108 325.769
L475.211 325.675
L475.518 325.582
L475.62 325.501
L475.928 325.407
L476.03 325.315
L476.44 325.209
L476.542 325.144
L477.157 325.04
L477.259 324.995
L477.669 324.908
L477.771 324.829
L478.181 324.729
L478.284 324.659
L478.796 324.549
L478.898 324.513
L479.41 324.407
L479.513 324.354
L480.025 324.264
L480.127 324.222
L483.815 324.113
L483.917 324.067
L484.429 323.975
L484.532 323.926
L484.942 323.839
L485.044 323.773
L485.761 323.663
L485.863 323.636
L486.683 323.529
L486.785 323.489
L487.4 323.385
L487.502 323.349
L490.575 323.254
L490.678 323.2
L491.292 323.098
L491.395 323.067
L492.009 322.956
L492.112 322.902
L492.726 322.799
L492.829 322.768
L493.341 322.676
L493.443 322.634
L494.263 322.523
L494.365 322.517
L495.799 322.408
L495.901 322.404
L496.926 322.301
L497.028 322.268
L497.643 322.157
L497.745 322.105
L498.155 322.02
L498.257 321.962
L498.77 321.864
L498.872 321.828
L505.325 321.731
L505.427 321.685
L505.94 321.584
L506.042 321.538
L506.554 321.44
L506.657 321.375
L507.066 321.275
L507.169 321.193
L507.578 321.084
L507.681 321.004
L507.988 320.923
L508.091 320.837
L508.398 320.751
L508.5 320.677
L508.91 320.575
L509.012 320.502
L509.32 320.425
L509.422 320.345
L509.832 320.235
L509.934 320.169
L510.344 320.069
L510.446 319.989
L510.754 319.918
L510.856 319.837
L511.266 319.732
L511.368 319.667
L511.778 319.574
L511.88 319.516
L512.29 319.422
L512.393 319.375
L513.007 319.264
L513.11 319.217
L513.519 319.125
L513.622 319.065
L514.032 318.958
L514.134 318.884
L514.544 318.785
L514.646 318.722
L515.67 318.611
L515.773 318.592
L517.821 318.686
L517.924 318.731
L518.538 318.836
L518.641 318.902
L518.948 318.978
L519.051 319.049
L519.563 319.139
L519.665 319.18
L520.485 319.285
L520.587 319.3
L523.045 319.204
L523.148 319.15
L523.557 319.067
L523.66 319.012
L524.274 318.909
L524.377 318.858
L524.991 318.761
L525.094 318.724
L526.63 318.619
L526.733 318.586
L530.01 318.695
L530.113 318.725
L532.776 318.62
L532.879 318.552
L533.288 318.456
L533.391 318.398
L533.8 318.299
L533.903 318.235
L534.415 318.134
L534.517 318.086
L535.132 317.991
L535.234 317.941
L536.668 317.833
L536.771 317.826
L538.102 317.73
L538.205 317.698
L538.819 317.591
L538.922 317.544
L547.526 317.436
L547.526 317.431
L547.526 317.431" style="fill:none;stroke:#0000ff;stroke-width:5.0;"/>
   </g>
   <g id="matplotlib.axis_1">
    <g id="xtick_1">
     <g id="line2d_2">
      <path d="
M158.947 412.239
L158.947 8.51291" style="fill:none;stroke:#000000;stroke-dasharray:1.000000,3.000000;stroke-dashoffset:0.0;stroke-linecap:butt;stroke-width:0.5;"/>
     </g>
     <g id="line2d_3">
      <defs>
       <path d="
M0 0
L0 -4" id="m3fbe6c24f1"/>
      </defs>
      <g>
       <use style="stroke:#000000;stroke-linecap:butt;stroke-width:0.5;" x="158.947029318" xlink:href="#m3fbe6c24f1" y="16.276875"/>
      </g>
     </g>
     <g id="text_1">
      <!-- 5 -->
      <defs>
       <path d="
M10.7969 72.9062
L49.5156 72.9062
L49.5156 64.5938
L19.8281 64.5938
L19.8281 46.7344
Q21.9688 47.4688 24.1094 47.8281
Q26.2656 48.1875 28.4219 48.1875
Q40.625 48.1875 47.75 41.5
Q54.8906 34.8125 54.8906 23.3906
Q54.8906 11.625 47.5625 5.09375
Q40.2344 -1.42188 26.9062 -1.42188
Q22.3125 -1.42188 17.5469 -0.640625
Q12.7969 0.140625 7.71875 1.70312
L7.71875 11.625
Q12.1094 9.23438 16.7969 8.0625
Q21.4844 6.89062 26.7031 6.89062
Q35.1562 6.89062 40.0781 11.3281
Q45.0156 15.7656 45.0156 23.3906
Q45.0156 31 40.0781 35.4375
Q35.1562 39.8906 26.7031 39.8906
Q22.75 39.8906 18.8125 39.0156
Q14.8906 38.1406 10.7969 36.2812
z
" id="BitstreamVeraSans-Roman-35"/>
      </defs>
      <g transform="translate(153.286404318 37.774375)scale(0.24 -0.24)">
       <use xlink:href="#BitstreamVeraSans-Roman-35"/>
      </g>
     </g>
    </g>
    <g id="xtick_2">
     <g id="line2d_4">
      <path d="
M282.515 412.239
L282.515 8.51291" style="fill:none;stroke:#000000;stroke-dasharray:1.000000,3.000000;stroke-dashoffset:0.0;stroke-linecap:butt;stroke-width:0.5;"/>
     </g>
     <g id="line2d_5">
      <defs>
       <path d="
M0 0
L0 -4" id="m3fbe6c24f1"/>
      </defs>
      <g>
       <use style="stroke:#000000;stroke-linecap:butt;stroke-width:0.5;" x="282.515151148" xlink:href="#m3fbe6c24f1" y="16.276875"/>
      </g>
     </g>
     <g id="text_2">
      <!-- 10 -->
      <defs>
       <path d="
M31.7812 66.4062
Q24.1719 66.4062 20.3281 58.9062
Q16.5 51.4219 16.5 36.375
Q16.5 21.3906 20.3281 13.8906
Q24.1719 6.39062 31.7812 6.39062
Q39.4531 6.39062 43.2812 13.8906
Q47.125 21.3906 47.125 36.375
Q47.125 51.4219 43.2812 58.9062
Q39.4531 66.4062 31.7812 66.4062
M31.7812 74.2188
Q44.0469 74.2188 50.5156 64.5156
Q56.9844 54.8281 56.9844 36.375
Q56.9844 17.9688 50.5156 8.26562
Q44.0469 -1.42188 31.7812 -1.42188
Q19.5312 -1.42188 13.0625 8.26562
Q6.59375 17.9688 6.59375 36.375
Q6.59375 54.8281 13.0625 64.5156
Q19.5312 74.2188 31.7812 74.2188" id="BitstreamVeraSans-Roman-30"/>
       <path d="
M12.4062 8.29688
L28.5156 8.29688
L28.5156 63.9219
L10.9844 60.4062
L10.9844 69.3906
L28.4219 72.9062
L38.2812 72.9062
L38.2812 8.29688
L54.3906 8.29688
L54.3906 0
L12.4062 0
z
" id="BitstreamVeraSans-Roman-31"/>
      </defs>
      <g transform="translate(269.360151148 38.089375)scale(0.24 -0.24)">
       <use xlink:href="#BitstreamVeraSans-Roman-31"/>
       <use x="63.623046875" xlink:href="#BitstreamVeraSans-Roman-30"/>
      </g>
     </g>
    </g>
    <g id="xtick_3">
     <g id="line2d_6">
      <path d="
M406.083 412.239
L406.083 8.51291" style="fill:none;stroke:#000000;stroke-dasharray:1.000000,3.000000;stroke-dashoffset:0.0;stroke-linecap:butt;stroke-width:0.5;"/>
     </g>
     <g id="line2d_7">
      <defs>
       <path d="
M0 0
L0 -4" id="m3fbe6c24f1"/>
      </defs>
      <g>
       <use style="stroke:#000000;stroke-linecap:butt;stroke-width:0.5;" x="406.083272978" xlink:href="#m3fbe6c24f1" y="16.276875"/>
      </g>
     </g>
     <g id="text_3">
      <!-- 15 -->
      <g transform="translate(393.179522978 37.774375)scale(0.24 -0.24)">
       <use xlink:href="#BitstreamVeraSans-Roman-31"/>
       <use x="63.623046875" xlink:href="#BitstreamVeraSans-Roman-35"/>
      </g>
     </g>
    </g>
    <g id="xtick_4">
     <g id="line2d_8">
      <path d="
M529.651 412.239
L529.651 8.51291" style="fill:none;stroke:#000000;stroke-dasharray:1.000000,3.000000;stroke-dashoffset:0.0;stroke-linecap:butt;stroke-width:0.5;"/>
     </g>
     <g id="line2d_9">
      <defs>
       <path d="
M0 0
L0 -4" id="m3fbe6c24f1"/>
      </defs>
      <g>
       <use style="stroke:#000000;stroke-linecap:butt;stroke-width:0.5;" x="529.651394807" xlink:href="#m3fbe6c24f1" y="16.276875"/>
      </g>
     </g>
     <g id="text_4">
      <!-- 20 -->
      <defs>
       <path d="
M19.1875 8.29688
L53.6094 8.29688
L53.6094 0
L7.32812 0
L7.32812 8.29688
Q12.9375 14.1094 22.625 23.8906
Q32.3281 33.6875 34.8125 36.5312
Q39.5469 41.8438 41.4219 45.5312
Q43.3125 49.2188 43.3125 52.7812
Q43.3125 58.5938 39.2344 62.25
Q35.1562 65.9219 28.6094 65.9219
Q23.9688 65.9219 18.8125 64.3125
Q13.6719 62.7031 7.8125 59.4219
L7.8125 69.3906
Q13.7656 71.7812 18.9375 73
Q24.125 74.2188 28.4219 74.2188
Q39.75 74.2188 46.4844 68.5469
Q53.2188 62.8906 53.2188 53.4219
Q53.2188 48.9219 51.5312 44.8906
Q49.8594 40.875 45.4062 35.4062
Q44.1875 33.9844 37.6406 27.2188
Q31.1094 20.4531 19.1875 8.29688" id="BitstreamVeraSans-Roman-32"/>
      </defs>
      <g transform="translate(516.057644807 38.089375)scale(0.24 -0.24)">
       <use xlink:href="#BitstreamVeraSans-Roman-32"/>
       <use x="63.623046875" xlink:href="#BitstreamVeraSans-Roman-30"/>
      </g>
     </g>
    </g>
    <g id="xtick_5">
     <g id="line2d_10">
      <defs>
       <path d="
M0 0
L0 -2" id="mf0ff38ea95"/>
      </defs>
      <g>
       <use style="stroke:#000000;stroke-linecap:butt;stroke-width:0.5;" x="60.0925318537" xlink:href="#mf0ff38ea95" y="16.276875"/>
      </g>
     </g>
    </g>
    <g id="xtick_6">
     <g id="line2d_11">
      <defs>
       <path d="
M0 0
L0 -2" id="mf0ff38ea95"/>
      </defs>
      <g>
       <use style="stroke:#000000;stroke-linecap:butt;stroke-width:0.5;" x="84.8061562197" xlink:href="#mf0ff38ea95" y="16.276875"/>
      </g>
     </g>
    </g>
    <g id="xtick_7">
     <g id="line2d_12">
      <defs>
       <path d="
M0 0
L0 -2" id="mf0ff38ea95"/>
      </defs>
      <g>
       <use style="stroke:#000000;stroke-linecap:butt;stroke-width:0.5;" x="109.519780586" xlink:href="#mf0ff38ea95" y="16.276875"/>
      </g>
     </g>
    </g>
    <g id="xtick_8">
     <g id="line2d_13">
      <defs>
       <path d="
M0 0
L0 -2" id="mf0ff38ea95"/>
      </defs>
      <g>
       <use style="stroke:#000000;stroke-linecap:butt;stroke-width:0.5;" x="134.233404952" xlink:href="#mf0ff38ea95" y="16.276875"/>
      </g>
     </g>
    </g>
    <g id="xtick_9">
     <g id="line2d_14">
      <defs>
       <path d="
M0 0
L0 -2" id="mf0ff38ea95"/>
      </defs>
      <g>
       <use style="stroke:#000000;stroke-linecap:butt;stroke-width:0.5;" x="183.660653684" xlink:href="#mf0ff38ea95" y="16.276875"/>
      </g>
     </g>
    </g>
    <g id="xtick_10">
     <g id="line2d_15">
      <defs>
       <path d="
M0 0
L0 -2" id="mf0ff38ea95"/>
      </defs>
      <g>
       <use style="stroke:#000000;stroke-linecap:butt;stroke-width:0.5;" x="208.37427805" xlink:href="#mf0ff38ea95" y="16.276875"/>
      </g>
     </g>
    </g>
    <g id="xtick_11">
     <g id="line2d_16">
      <defs>
       <path d="
M0 0
L0 -2" id="mf0ff38ea95"/>
      </defs>
      <g>
       <use style="stroke:#000000;stroke-linecap:butt;stroke-width:0.5;" x="233.087902416" xlink:href="#mf0ff38ea95" y="16.276875"/>
      </g>
     </g>
    </g>
    <g id="xtick_12">
     <g id="line2d_17">
      <defs>
       <path d="
M0 0
L0 -2" id="mf0ff38ea95"/>
      </defs>
      <g>
       <use style="stroke:#000000;stroke-linecap:butt;stroke-width:0.5;" x="257.801526782" xlink:href="#mf0ff38ea95" y="16.276875"/>
      </g>
     </g>
    </g>
    <g id="xtick_13">
     <g id="line2d_18">
      <defs>
       <path d="
M0 0
L0 -2" id="mf0ff38ea95"/>
      </defs>
      <g>
       <use style="stroke:#000000;stroke-linecap:butt;stroke-width:0.5;" x="307.228775514" xlink:href="#mf0ff38ea95" y="16.276875"/>
      </g>
     </g>
    </g>
    <g id="xtick_14">
     <g id="line2d_19">
      <defs>
       <path d="
M0 0
L0 -2" id="mf0ff38ea95"/>
      </defs>
      <g>
       <use style="stroke:#000000;stroke-linecap:butt;stroke-width:0.5;" x="331.94239988" xlink:href="#mf0ff38ea95" y="16.276875"/>
      </g>
     </g>
    </g>
    <g id="xtick_15">
     <g id="line2d_20">
      <defs>
       <path d="
M0 0
L0 -2" id="mf0ff38ea95"/>
      </defs>
      <g>
       <use style="stroke:#000000;stroke-linecap:butt;stroke-width:0.5;" x="356.656024246" xlink:href="#mf0ff38ea95" y="16.276875"/>
      </g>
     </g>
    </g>
    <g id="xtick_16">
     <g id="line2d_21">
      <defs>
       <path d="
M0 0
L0 -2" id="mf0ff38ea95"/>
      </defs>
      <g>
       <use style="stroke:#000000;stroke-linecap:butt;stroke-width:0.5;" x="381.369648612" xlink:href="#mf0ff38ea95" y="16.276875"/>
      </g>
     </g>
    </g>
    <g id="xtick_17">
     <g id="line2d_22">
      <defs>
       <path d="
M0 0
L0 -2" id="mf0ff38ea95"/>
      </defs>
      <g>
       <use style="stroke:#000000;stroke-linecap:butt;stroke-width:0.5;" x="430.796897344" xlink:href="#mf0ff38ea95" y="16.276875"/>
      </g>
     </g>
    </g>
    <g id="xtick_18">
     <g id="line2d_23">
      <defs>
       <path d="
M0 0
L0 -2" id="mf0ff38ea95"/>
      </defs>
      <g>
       <use style="stroke:#000000;stroke-linecap:butt;stroke-width:0.5;" x="455.510521709" xlink:href="#mf0ff38ea95" y="16.276875"/>
      </g>
     </g>
    </g>
    <g id="xtick_19">
     <g id="line2d_24">
      <defs>
       <path d="
M0 0
L0 -2" id="mf0ff38ea95"/>
      </defs>
      <g>
       <use style="stroke:#000000;stroke-linecap:butt;stroke-width:0.5;" x="480.224146075" xlink:href="#mf0ff38ea95" y="16.276875"/>
      </g>
     </g>
    </g>
    <g id="xtick_20">
     <g id="line2d_25">
      <defs>
       <path d="
M0 0
L0 -2" id="mf0ff38ea95"/>
      </defs>
      <g>
       <use style="stroke:#000000;stroke-linecap:butt;stroke-width:0.5;" x="504.937770441" xlink:href="#mf0ff38ea95" y="16.276875"/>
      </g>
     </g>
    </g>
   </g>
   <g id="matplotlib.axis_2">
    <g id="ytick_1">
     <g id="line2d_26">
      <path d="
M42.6088 387.635
L557.426 387.635" style="fill:none;stroke:#000000;stroke-dasharray:1.000000,3.000000;stroke-dashoffset:0.0;stroke-linecap:butt;stroke-width:0.5;"/>
     </g>
     <g id="line2d_27">
      <defs>
       <path d="
M0 0
L4 0" id="mc91e532072"/>
      </defs>
      <g>
       <use style="stroke:#000000;stroke-linecap:butt;stroke-width:0.5;" x="32.60875" xlink:href="#mc91e532072" y="387.63484123"/>
      </g>
     </g>
     <g id="text_5">
      <!-- -5 -->
      <defs>
       <path d="
M4.89062 31.3906
L31.2031 31.3906
L31.2031 23.3906
L4.89062 23.3906
z
" id="BitstreamVeraSans-Roman-2d"/>
      </defs>
      <g transform="translate(7.95 396.21296623)scale(0.24 -0.24)">
       <use xlink:href="#BitstreamVeraSans-Roman-2d"/>
       <use x="36.083984375" xlink:href="#BitstreamVeraSans-Roman-35"/>
      </g>
     </g>
    </g>
    <g id="ytick_2">
     <g id="line2d_28">
      <path d="
M42.6088 313.363
L557.426 313.363" style="fill:none;stroke:#000000;stroke-dasharray:1.000000,3.000000;stroke-dashoffset:0.0;stroke-linecap:butt;stroke-width:0.5;"/>
     </g>
     <g id="line2d_29">
      <defs>
       <path d="
M0 0
L4 0" id="mc91e532072"/>
      </defs>
      <g>
       <use style="stroke:#000000;stroke-linecap:butt;stroke-width:0.5;" x="32.60875" xlink:href="#mc91e532072" y="313.363247984"/>
      </g>
     </g>
     <g id="text_6">
      <!-- -4 -->
      <defs>
       <path d="
M37.7969 64.3125
L12.8906 25.3906
L37.7969 25.3906
z

M35.2031 72.9062
L47.6094 72.9062
L47.6094 25.3906
L58.0156 25.3906
L58.0156 17.1875
L47.6094 17.1875
L47.6094 0
L37.7969 0
L37.7969 17.1875
L4.89062 17.1875
L4.89062 26.7031
z
" id="BitstreamVeraSans-Roman-34"/>
      </defs>
      <g transform="translate(7.2 322.111997984)scale(0.24 -0.24)">
       <use xlink:href="#BitstreamVeraSans-Roman-2d"/>
       <use x="36.083984375" xlink:href="#BitstreamVeraSans-Roman-34"/>
      </g>
     </g>
    </g>
    <g id="ytick_3">
     <g id="line2d_30">
      <path d="
M42.6088 239.092
L557.426 239.092" style="fill:none;stroke:#000000;stroke-dasharray:1.000000,3.000000;stroke-dashoffset:0.0;stroke-linecap:butt;stroke-width:0.5;"/>
     </g>
     <g id="line2d_31">
      <defs>
       <path d="
M0 0
L4 0" id="mc91e532072"/>
      </defs>
      <g>
       <use style="stroke:#000000;stroke-linecap:butt;stroke-width:0.5;" x="32.60875" xlink:href="#mc91e532072" y="239.091654738"/>
      </g>
     </g>
     <g id="text_7">
      <!-- -3 -->
      <defs>
       <path d="
M40.5781 39.3125
Q47.6562 37.7969 51.625 33
Q55.6094 28.2188 55.6094 21.1875
Q55.6094 10.4062 48.1875 4.48438
Q40.7656 -1.42188 27.0938 -1.42188
Q22.5156 -1.42188 17.6562 -0.515625
Q12.7969 0.390625 7.625 2.20312
L7.625 11.7188
Q11.7188 9.32812 16.5938 8.10938
Q21.4844 6.89062 26.8125 6.89062
Q36.0781 6.89062 40.9375 10.5469
Q45.7969 14.2031 45.7969 21.1875
Q45.7969 27.6406 41.2812 31.2656
Q36.7656 34.9062 28.7188 34.9062
L20.2188 34.9062
L20.2188 43.0156
L29.1094 43.0156
Q36.375 43.0156 40.2344 45.9219
Q44.0938 48.8281 44.0938 54.2969
Q44.0938 59.9062 40.1094 62.9062
Q36.1406 65.9219 28.7188 65.9219
Q24.6562 65.9219 20.0156 65.0312
Q15.375 64.1562 9.8125 62.3125
L9.8125 71.0938
Q15.4375 72.6562 20.3438 73.4375
Q25.25 74.2188 29.5938 74.2188
Q40.8281 74.2188 47.3594 69.1094
Q53.9062 64.0156 53.9062 55.3281
Q53.9062 49.2656 50.4375 45.0938
Q46.9688 40.9219 40.5781 39.3125" id="BitstreamVeraSans-Roman-33"/>
      </defs>
      <g transform="translate(7.7775 247.827279738)scale(0.24 -0.24)">
       <use xlink:href="#BitstreamVeraSans-Roman-2d"/>
       <use x="36.083984375" xlink:href="#BitstreamVeraSans-Roman-33"/>
      </g>
     </g>
    </g>
    <g id="ytick_4">
     <g id="line2d_32">
      <path d="
M42.6088 164.82
L557.426 164.82" style="fill:none;stroke:#000000;stroke-dasharray:1.000000,3.000000;stroke-dashoffset:0.0;stroke-linecap:butt;stroke-width:0.5;"/>
     </g>
     <g id="line2d_33">
      <defs>
       <path d="
M0 0
L4 0" id="mc91e532072"/>
      </defs>
      <g>
       <use style="stroke:#000000;stroke-linecap:butt;stroke-width:0.5;" x="32.60875" xlink:href="#mc91e532072" y="164.820061492"/>
      </g>
     </g>
     <g id="text_8">
      <!-- -2 -->
      <g transform="translate(8.2575 173.726311492)scale(0.24 -0.24)">
       <use xlink:href="#BitstreamVeraSans-Roman-2d"/>
       <use x="36.083984375" xlink:href="#BitstreamVeraSans-Roman-32"/>
      </g>
     </g>
    </g>
    <g id="ytick_5">
     <g id="line2d_34">
      <path d="
M42.6088 90.5485
L557.426 90.5485" style="fill:none;stroke:#000000;stroke-dasharray:1.000000,3.000000;stroke-dashoffset:0.0;stroke-linecap:butt;stroke-width:0.5;"/>
     </g>
     <g id="line2d_35">
      <defs>
       <path d="
M0 0
L4 0" id="mc91e532072"/>
      </defs>
      <g>
       <use style="stroke:#000000;stroke-linecap:butt;stroke-width:0.5;" x="32.60875" xlink:href="#mc91e532072" y="90.5484682459"/>
      </g>
     </g>
     <g id="text_9">
      <!-- -1 -->
      <g transform="translate(8.07 99.2972182459)scale(0.24 -0.24)">
       <use xlink:href="#BitstreamVeraSans-Roman-2d"/>
       <use x="36.083984375" xlink:href="#BitstreamVeraSans-Roman-31"/>
      </g>
     </g>
    </g>
    <g id="ytick_6">
     <g id="line2d_36">
      <path d="
M42.6088 16.2769
L557.426 16.2769" style="fill:none;stroke:#000000;stroke-dasharray:1.000000,3.000000;stroke-dashoffset:0.0;stroke-linecap:butt;stroke-width:0.5;"/>
     </g>
     <g id="line2d_37">
      <defs>
       <path d="
M0 0
L4 0" id="mc91e532072"/>
      </defs>
      <g>
       <use style="stroke:#000000;stroke-linecap:butt;stroke-width:0.5;" x="32.60875" xlink:href="#mc91e532072" y="16.276875"/>
      </g>
     </g>
     <g id="text_10">
      <!-- 0 -->
      <g transform="translate(16.515 25.0125)scale(0.24 -0.24)">
       <use xlink:href="#BitstreamVeraSans-Roman-30"/>
      </g>
     </g>
    </g>
    <g id="ytick_7">
     <g id="line2d_38">
      <defs>
       <path d="
M0 0
L2 0" id="m0789224b6b"/>
      </defs>
      <g>
       <use style="stroke:#000000;stroke-linecap:butt;stroke-width:0.5;" x="32.60875" xlink:href="#m0789224b6b" y="402.489159879"/>
      </g>
     </g>
    </g>
    <g id="ytick_8">
     <g id="line2d_39">
      <defs>
       <path d="
M0 0
L2 0" id="m0789224b6b"/>
      </defs>
      <g>
       <use style="stroke:#000000;stroke-linecap:butt;stroke-width:0.5;" x="32.60875" xlink:href="#m0789224b6b" y="372.78052258"/>
      </g>
     </g>
    </g>
    <g id="ytick_9">
     <g id="line2d_40">
      <defs>
       <path d="
M0 0
L2 0" id="m0789224b6b"/>
      </defs>
      <g>
       <use style="stroke:#000000;stroke-linecap:butt;stroke-width:0.5;" x="32.60875" xlink:href="#m0789224b6b" y="357.926203931"/>
      </g>
     </g>
    </g>
    <g id="ytick_10">
     <g id="line2d_41">
      <defs>
       <path d="
M0 0
L2 0" id="m0789224b6b"/>
      </defs>
      <g>
       <use style="stroke:#000000;stroke-linecap:butt;stroke-width:0.5;" x="32.60875" xlink:href="#m0789224b6b" y="343.071885282"/>
      </g>
     </g>
    </g>
    <g id="ytick_11">
     <g id="line2d_42">
      <defs>
       <path d="
M0 0
L2 0" id="m0789224b6b"/>
      </defs>
      <g>
       <use style="stroke:#000000;stroke-linecap:butt;stroke-width:0.5;" x="32.60875" xlink:href="#m0789224b6b" y="328.217566633"/>
      </g>
     </g>
    </g>
    <g id="ytick_12">
     <g id="line2d_43">
      <defs>
       <path d="
M0 0
L2 0" id="m0789224b6b"/>
      </defs>
      <g>
       <use style="stroke:#000000;stroke-linecap:butt;stroke-width:0.5;" x="32.60875" xlink:href="#m0789224b6b" y="298.508929334"/>
      </g>
     </g>
    </g>
    <g id="ytick_13">
     <g id="line2d_44">
      <defs>
       <path d="
M0 0
L2 0" id="m0789224b6b"/>
      </defs>
      <g>
       <use style="stroke:#000000;stroke-linecap:butt;stroke-width:0.5;" x="32.60875" xlink:href="#m0789224b6b" y="283.654610685"/>
      </g>
     </g>
    </g>
    <g id="ytick_14">
     <g id="line2d_45">
      <defs>
       <path d="
M0 0
L2 0" id="m0789224b6b"/>
      </defs>
      <g>
       <use style="stroke:#000000;stroke-linecap:butt;stroke-width:0.5;" x="32.60875" xlink:href="#m0789224b6b" y="268.800292036"/>
      </g>
     </g>
    </g>
    <g id="ytick_15">
     <g id="line2d_46">
      <defs>
       <path d="
M0 0
L2 0" id="m0789224b6b"/>
      </defs>
      <g>
       <use style="stroke:#000000;stroke-linecap:butt;stroke-width:0.5;" x="32.60875" xlink:href="#m0789224b6b" y="253.945973387"/>
      </g>
     </g>
    </g>
    <g id="ytick_16">
     <g id="line2d_47">
      <defs>
       <path d="
M0 0
L2 0" id="m0789224b6b"/>
      </defs>
      <g>
       <use style="stroke:#000000;stroke-linecap:butt;stroke-width:0.5;" x="32.60875" xlink:href="#m0789224b6b" y="239.091654738"/>
      </g>
     </g>
    </g>
    <g id="ytick_17">
     <g id="line2d_48">
      <defs>
       <path d="
M0 0
L2 0" id="m0789224b6b"/>
      </defs>
      <g>
       <use style="stroke:#000000;stroke-linecap:butt;stroke-width:0.5;" x="32.60875" xlink:href="#m0789224b6b" y="224.237336089"/>
      </g>
     </g>
    </g>
    <g id="ytick_18">
     <g id="line2d_49">
      <defs>
       <path d="
M0 0
L2 0" id="m0789224b6b"/>
      </defs>
      <g>
       <use style="stroke:#000000;stroke-linecap:butt;stroke-width:0.5;" x="32.60875" xlink:href="#m0789224b6b" y="209.383017439"/>
      </g>
     </g>
    </g>
    <g id="ytick_19">
     <g id="line2d_50">
      <defs>
       <path d="
M0 0
L2 0" id="m0789224b6b"/>
      </defs>
      <g>
       <use style="stroke:#000000;stroke-linecap:butt;stroke-width:0.5;" x="32.60875" xlink:href="#m0789224b6b" y="194.52869879"/>
      </g>
     </g>
    </g>
    <g id="ytick_20">
     <g id="line2d_51">
      <defs>
       <path d="
M0 0
L2 0" id="m0789224b6b"/>
      </defs>
      <g>
       <use style="stroke:#000000;stroke-linecap:butt;stroke-width:0.5;" x="32.60875" xlink:href="#m0789224b6b" y="179.674380141"/>
      </g>
     </g>
    </g>
    <g id="ytick_21">
     <g id="line2d_52">
      <defs>
       <path d="
M0 0
L2 0" id="m0789224b6b"/>
      </defs>
      <g>
       <use style="stroke:#000000;stroke-linecap:butt;stroke-width:0.5;" x="32.60875" xlink:href="#m0789224b6b" y="164.820061492"/>
      </g>
     </g>
    </g>
    <g id="ytick_22">
     <g id="line2d_53">
      <defs>
       <path d="
M0 0
L2 0" id="m0789224b6b"/>
      </defs>
      <g>
       <use style="stroke:#000000;stroke-linecap:butt;stroke-width:0.5;" x="32.60875" xlink:href="#m0789224b6b" y="149.965742843"/>
      </g>
     </g>
    </g>
    <g id="ytick_23">
     <g id="line2d_54">
      <defs>
       <path d="
M0 0
L2 0" id="m0789224b6b"/>
      </defs>
      <g>
       <use style="stroke:#000000;stroke-linecap:butt;stroke-width:0.5;" x="32.60875" xlink:href="#m0789224b6b" y="135.111424193"/>
      </g>
     </g>
    </g>
    <g id="ytick_24">
     <g id="line2d_55">
      <defs>
       <path d="
M0 0
L2 0" id="m0789224b6b"/>
      </defs>
      <g>
       <use style="stroke:#000000;stroke-linecap:butt;stroke-width:0.5;" x="32.60875" xlink:href="#m0789224b6b" y="120.257105544"/>
      </g>
     </g>
    </g>
    <g id="ytick_25">
     <g id="line2d_56">
      <defs>
       <path d="
M0 0
L2 0" id="m0789224b6b"/>
      </defs>
      <g>
       <use style="stroke:#000000;stroke-linecap:butt;stroke-width:0.5;" x="32.60875" xlink:href="#m0789224b6b" y="105.402786895"/>
      </g>
     </g>
    </g>
    <g id="ytick_26">
     <g id="line2d_57">
      <defs>
       <path d="
M0 0
L2 0" id="m0789224b6b"/>
      </defs>
      <g>
       <use style="stroke:#000000;stroke-linecap:butt;stroke-width:0.5;" x="32.60875" xlink:href="#m0789224b6b" y="90.5484682459"/>
      </g>
     </g>
    </g>
    <g id="ytick_27">
     <g id="line2d_58">
      <defs>
       <path d="
M0 0
L2 0" id="m0789224b6b"/>
      </defs>
      <g>
       <use style="stroke:#000000;stroke-linecap:butt;stroke-width:0.5;" x="32.60875" xlink:href="#m0789224b6b" y="75.6941495967"/>
      </g>
     </g>
    </g>
    <g id="ytick_28">
     <g id="line2d_59">
      <defs>
       <path d="
M0 0
L2 0" id="m0789224b6b"/>
      </defs>
      <g>
       <use style="stroke:#000000;stroke-linecap:butt;stroke-width:0.5;" x="32.60875" xlink:href="#m0789224b6b" y="60.8398309475"/>
      </g>
     </g>
    </g>
    <g id="ytick_29">
     <g id="line2d_60">
      <defs>
       <path d="
M0 0
L2 0" id="m0789224b6b"/>
      </defs>
      <g>
       <use style="stroke:#000000;stroke-linecap:butt;stroke-width:0.5;" x="32.60875" xlink:href="#m0789224b6b" y="45.9855122984"/>
      </g>
     </g>
    </g>
    <g id="ytick_30">
     <g id="line2d_61">
      <defs>
       <path d="
M0 0
L2 0" id="m0789224b6b"/>
      </defs>
      <g>
       <use style="stroke:#000000;stroke-linecap:butt;stroke-width:0.5;" x="32.60875" xlink:href="#m0789224b6b" y="31.1311936492"/>
      </g>
     </g>
    </g>
   </g>
   <g id="patch_3">
    <path d="
M42.6088 16.2769
L557.426 16.2769" style="fill:none;stroke:#000000;stroke-width:0.8;"/>
   </g>
   <g id="patch_4">
    <path d="
M32.6088 412.239
L32.6088 8.51291" style="fill:none;stroke:#000000;stroke-width:0.8;"/>
   </g>
  </g>
 </g>
 <defs>
  <clipPath id="p51b3ba9df9">
   <rect height="403.726153846" width="514.8175" x="42.60875" y="8.51291050296"/>
  </clipPath>
 </defs>
</svg>
