<?xml version="1.0" encoding="utf-8" standalone="no"?>
<!DOCTYPE svg PUBLIC "-//W3C//DTD SVG 1.1//EN"
  "http://www.w3.org/Graphics/SVG/1.1/DTD/svg11.dtd">
<!-- Created with matplotlib (http://matplotlib.sourceforge.net/) -->
<svg height="419pt" version="1.1" viewBox="0 0 564 419" width="564pt" xmlns="http://www.w3.org/2000/svg" xmlns:xlink="http://www.w3.org/1999/xlink">
 <defs>
  <style type="text/css">
*{stroke-linecap:square;stroke-linejoin:round;}
  </style>
 </defs>
 <g id="figure_1">
  <g id="patch_1">
   <path d="
M-4.44089e-16 419.439
L564.499 419.439
L564.499 0
L-4.44089e-16 0
z
" style="fill:#ffffff;"/>
  </g>
  <g id="axes_1">
   <g id="patch_2">
    <path d="
M64.7562 412.239
L557.299 412.239
L557.299 8.51291
L64.7562 8.51291
z
" style="fill:#ffffff;"/>
   </g>
   <g id="line2d_1">
    <path clip-path="url(#p8d84e77ebc)" d="
M74.2282 16.2769
L83.8152 16.2769
L83.8152 44.9734
L95.8933 44.9734
L95.8933 95.2275
L103.849 95.2275
L103.849 133.305
L114.536 133.305
L114.536 186.649
L118.486 186.649
L118.486 194.708
L124.829 194.708
L124.829 214.029
L127.458 214.029
L127.458 224.145
L131.976 224.145
L131.976 244.691
L137.457 244.691
L137.457 271.089
L139.034 271.089
L139.034 279.326
L143.217 279.326
L143.217 302.908
L145.644 302.908
L145.644 317.151
L146.77 317.151
L146.77 322.323
L148.873 322.323
L148.873 333.17
L151.714 333.17
L151.714 344.179
L154.25 344.179
L154.25 354.894
L155.038 354.894
L155.038 358.591
L157.256 358.591
L157.256 366.808
L158.627 366.808
L158.627 372.463
L159.284 372.463
L159.284 374.617
L161.152 374.617
L161.152 379.185
L162.32 379.185
L162.32 382.587
L163.97 382.587
L163.97 386.078
L166.005 386.078
L166.005 391.207
L166.961 391.207
L166.961 392.898
L167.424 392.898
L167.424 393.952
L168.325 393.952
L168.325 395.427
L168.763 395.427
L168.763 396.36
L169.615 396.36
L169.615 397.654
L172.377 397.654
L172.377 402.865
L173.11 402.865
L173.11 403.753
L174.169 403.753
L174.169 404.437
L176.154 404.475
L176.154 403.801
L176.469 403.801
L176.469 403.514
L177.391 403.514
L177.391 403.094
L178.851 403.072
L178.851 402.783
L180.491 402.717
L180.491 402.277
L180.754 402.277
L180.754 402.017
L182.026 402.017
L182.026 400.213
L182.272 400.213
L182.272 399.966
L182.757 399.966
L182.757 399.277
L182.996 399.277
L182.996 398.84
L184.38 398.84
L184.38 395.767
L185.688 395.767
L185.688 392.395
L186.108 392.395
L186.108 391.486
L186.316 391.486
L186.316 391.118
L186.725 391.118
L186.725 390.549
L187.326 390.549
L187.326 389.489
L187.524 389.489
L187.524 389.068
L188.485 389.068
L188.485 387.384
L189.043 387.384
L189.043 386.613
L189.589 386.613
L189.589 386.055
L190.122 386.055
L190.122 385.696
L190.815 385.638
L190.815 385.283
L191.154 385.283
L191.154 385.164
L191.322 385.164
L191.322 385.047
L192.143 385.047
L192.143 384.186
L193.247 384.186
L193.247 383.388
L193.553 383.388
L193.553 383.264
L193.704 383.264
L193.704 383.152
L194.005 383.152
L194.005 382.831
L195.026 382.831
L195.026 381.409
L195.451 381.409
L195.451 380.952
L196.143 380.952
L196.143 380.422
L196.278 380.422
L196.278 380.275
L196.548 380.275
L196.548 379.9
L196.946 379.9
L196.946 379.468
L197.467 379.468
L197.467 378.744
L197.851 378.744
L197.851 378.326
L198.228 378.326
L198.228 377.803
L198.476 377.803
L198.476 377.385
L198.844 377.385
L198.844 376.659
L199.325 376.659
L199.325 375.574
L199.562 375.574
L199.562 375.11
L200.029 375.11
L200.029 374.065
L200.601 374.065
L200.601 372.957
L200.713 372.957
L200.713 372.771
L201.268 372.771
L201.378 371.893
L201.703 371.893
L201.703 371.629
L201.918 371.629
L201.918 371.395
L202.236 371.395
L202.236 371.134
L202.653 371.134
L202.653 370.677
L202.859 370.677
L202.962 370.394
L203.165 370.394
L203.165 370.117
L203.765 370.117
L203.765 369.139
L204.157 369.139
L204.157 368.4
L204.35 368.4
L204.35 367.986
L204.732 367.986
L204.732 367.269
L204.921 367.269
L204.921 366.965
L205.201 366.965
L205.201 366.442
L205.752 366.442
L205.843 365.39
L206.643 365.39
L206.643 363.712
L206.904 363.712
L206.904 363.105
L207.332 363.105
L207.332 362.216
L207.585 362.216
L207.585 361.754
L207.836 361.754
L207.919 361.047
L208.166 361.047
L208.166 360.54
L208.572 360.54
L208.572 359.807
L208.813 359.807
L208.813 359.317
L209.051 359.317
L209.13 358.766
L209.365 358.766
L209.365 358.456
L209.597 358.456
L209.597 358.204
L209.751 358.204
L209.827 358.025
L210.281 358.025
L210.281 357.636
L210.653 357.636
L210.727 357.338
L211.092 357.244
L211.092 357.154
L211.805 357.115
L211.805 357.029
L212.154 356.968
L212.154 356.831
L212.429 356.831
L212.429 356.71
L214.017 356.63
L214.017 356.538
L215.081 356.436
L215.081 356.425
L217.409 356.526
L217.52 356.672
L217.685 356.707
L217.685 356.798
L218.065 356.798
L218.173 357.266
L218.86 357.341
L218.964 357.685
L219.171 357.685
L219.171 357.8
L219.427 357.8
L219.427 357.988
L219.63 357.988
L219.731 358.246
L220.03 358.324
L220.03 358.429
L220.375 358.429
L220.473 358.633
L220.763 358.704
L220.763 358.747
L221.097 358.838
L221.097 358.878
L221.613 358.93
L221.66 359.02
L221.89 359.02
L221.936 359.232
L222.299 359.29
L222.345 359.346
L223.141 359.444
L223.141 359.457
L223.228 359.445
L223.615 359.375
L223.615 359.31
L223.785 359.31
L223.785 359.194
L224.037 359.085
L224.037 358.956
L224.494 358.956
L224.535 358.535
L224.739 358.535
L224.739 358.359
L224.901 358.359
L224.901 358.191
L225.102 358.191
L225.102 358.017
L225.341 357.934
L225.341 357.87
L225.734 357.759
L225.812 357.604
L226.95 357.632
L227.061 357.822
L227.317 357.898
L227.426 358.031
L227.715 358.059
L227.751 358.2
L228.456 358.256
L228.56 358.489
L229.107 358.591
L229.107 358.69
L230.294 358.744
L230.294 358.827
L230.55 358.932
L230.581 358.953
L230.645 358.95
L231.115 358.868
L231.115 358.776
L231.424 358.696
L231.515 358.49
L231.668 358.441
L231.668 358.355
L231.849 358.259
L231.849 358.202
L231.969 358.202
L232.029 358.014
L232.237 358.014
L232.296 357.731
L232.414 357.635
L232.473 357.518
L232.59 357.409
L232.677 357.27
L232.822 357.27
L232.822 357.07
L233.109 357.07
L233.194 356.599
L233.617 356.49
L233.701 355.987
L233.84 355.987
L233.84 355.835
L234.005 355.835
L234.033 355.656
L234.169 355.656
L234.278 355.407
L234.441 355.329
L234.521 355.186
L234.762 355.186
L234.842 354.847
L235.079 354.764
L235.079 354.592
L235.21 354.592
L235.21 354.431
L235.366 354.431
L235.47 354.161
L235.676 354.161
L235.676 353.992
L235.854 353.992
L235.93 353.758
L236.057 353.682
L236.082 353.606
L236.207 353.606
L236.207 353.453
L236.357 353.453
L236.432 353.198
L236.727 353.117
L236.752 352.884
L236.947 352.884
L236.971 352.67
L237.236 352.67
L237.308 352.355
L237.475 352.263
L237.546 352.095
L237.687 352.025
L237.758 351.811
L237.874 351.811
L237.898 351.625
L238.014 351.625
L238.014 351.468
L238.176 351.468
L238.176 351.271
L238.291 351.271
L238.359 351.079
L238.496 351.079
L238.587 350.888
L238.835 350.794
L238.857 350.644
L239.035 350.644
L239.124 350.456
L239.3 350.403
L239.388 350.225
L239.584 350.225
L239.584 350.059
L239.843 350.059
L239.95 349.709
L240.205 349.616
L240.269 349.392
L240.52 349.32
L240.583 349.084
L240.728 348.993
L240.831 348.84
L240.975 348.735
L240.975 348.72
L241.199 348.72
L241.28 348.452
L241.581 348.352
L241.68 348.244
L241.858 348.163
L241.858 348.126
L242.035 348.039
L242.094 347.959
L242.23 347.959
L242.327 347.74
L242.443 347.74
L242.519 347.497
L242.615 347.428
L242.615 347.377
L242.862 347.377
L242.862 347.021
L243.031 347.021
L243.125 346.623
L243.199 346.623
L243.292 346.346
L243.367 346.315
L243.367 346.216
L243.569 346.216
L243.679 345.71
L243.843 345.683
L243.951 345.332
L244.059 345.332
L244.059 345.154
L244.184 345.154
L244.291 344.758
L244.398 344.699
L244.504 344.382
L244.592 344.297
L244.644 344.159
L244.714 344.159
L244.819 343.862
L244.906 343.862
L245.01 343.548
L245.113 343.443
L245.113 343.386
L245.233 343.386
L245.318 343.038
L245.42 343.038
L245.522 342.689
L245.673 342.66
L245.673 342.441
L245.79 342.441
L245.873 342.122
L245.99 342.014
L246.023 341.867
L246.171 341.867
L246.237 341.505
L246.318 341.505
L246.416 341.228
L246.562 341.137
L246.659 340.859
L246.771 340.859
L246.851 340.583
L247.136 340.496
L247.231 340.053
L247.325 339.972
L247.434 339.795
L247.527 339.751
L247.62 339.529
L247.759 339.46
L247.836 339.238
L247.988 339.238
L248.079 338.984
L248.2 338.984
L248.2 338.842
L248.395 338.842
L248.44 338.58
L248.574 338.494
L248.604 338.417
L248.737 338.321
L248.825 338.16
L249.044 338.096
L249.102 337.881
L249.391 337.796
L249.491 337.527
L249.605 337.448
L249.704 337.249
L249.817 337.21
L249.915 336.994
L250.027 336.994
L250.041 336.858
L250.152 336.858
L250.194 336.69
L250.332 336.69
L250.442 336.434
L250.565 336.345
L250.579 336.296
L250.728 336.296
L250.782 336.013
L250.863 336.013
L250.971 335.736
L251.065 335.637
L251.171 335.514
L251.33 335.44
L251.409 335.355
L251.658 335.252
L251.736 335.189
L252.045 335.089
L252.109 335.05
L252.69 334.939
L252.715 334.927
L252.752 334.929
L253.122 335.022
L253.232 335.096
L253.535 335.204
L253.631 335.244
L254.754 335.135
L254.857 335.105
L255.804 335.002
L255.87 334.921
L257.654 334.827
L257.714 334.77
L257.905 334.667
L258.015 334.59
L258.321 334.493
L258.409 334.396
L258.604 334.286
L258.692 334.192
L258.951 334.083
L259.018 334.034
L259.265 333.929
L259.331 333.872
L259.584 333.776
L259.686 333.668
L259.908 333.611
L260.018 333.5
L260.191 333.429
L260.299 333.298
L260.479 333.212
L260.587 333.092
L260.809 332.993
L260.827 332.93
L260.959 332.93
L261.038 332.734
L261.178 332.633
L261.256 332.473
L261.377 332.362
L261.48 332.207
L261.592 332.104
L261.609 332.057
L261.72 332.057
L261.822 331.839
L261.999 331.796
L262.1 331.57
L262.25 331.463
L262.325 331.313
L262.474 331.239
L262.523 331.109
L262.662 331.004
L262.76 330.93
L263.011 330.82
L263.06 330.79
L263.347 330.695
L263.458 330.623
L263.679 330.519
L263.741 330.456
L263.928 330.356
L264.005 330.287
L264.32 330.178
L264.419 330.12
L264.683 330.024
L264.773 329.991
L265.24 329.886
L265.327 329.827
L265.654 329.718
L265.719 329.656
L265.919 329.575
L266.004 329.48
L266.174 329.371
L266.273 329.273
L266.461 329.17
L266.503 329.12
L266.69 329.014
L266.78 328.904
L266.998 328.819
L267.1 328.707
L267.31 328.614
L267.41 328.503
L267.583 328.404
L267.683 328.294
L267.801 328.216
L267.907 328.095
L268.115 328.027
L268.199 327.908
L268.47 327.807
L268.546 327.742
L268.768 327.641
L268.863 327.569
L269.038 327.468
L269.144 327.345
L269.336 327.255
L269.441 327.14
L269.703 327.033
L269.806 326.899
L270.041 326.795
L270.148 326.715
L270.386 326.608
L270.492 326.551
L270.766 326.456
L270.859 326.389
L271.254 326.278
L271.356 326.235
L271.772 326.124
L271.877 326.054
L272.158 325.946
L272.267 325.895
L272.543 325.787
L272.645 325.741
L272.917 325.637
L273.023 325.529
L273.228 325.434
L273.296 325.382
L273.57 325.283
L273.663 325.215
L273.837 325.128
L273.944 324.977
L274.075 324.905
L274.181 324.739
L274.301 324.661
L274.391 324.489
L274.515 324.383
L274.614 324.278
L274.752 324.169
L274.84 324.037
L274.972 323.934
L275.059 323.838
L275.204 323.737
L275.304 323.617
L275.429 323.539
L275.533 323.398
L275.699 323.308
L275.798 323.16
L275.938 323.055
L276.036 322.953
L276.179 322.864
L276.285 322.733
L276.409 322.623
L276.518 322.499
L276.659 322.399
L276.767 322.231
L276.898 322.146
L277.005 321.912
L277.076 321.828
L277.182 321.64
L277.262 321.561
L277.368 321.378
L277.499 321.296
L277.577 321.102
L277.729 320.998
L277.837 320.77
L277.923 320.716
L278.017 320.478
L278.107 320.402
L278.209 320.2
L278.318 320.109
L278.419 319.939
L278.524 319.855
L278.612 319.73
L278.732 319.621
L278.807 319.506
L278.91 319.406
L279.021 319.283
L279.155 319.198
L279.237 319.112
L279.386 319.014
L279.491 318.914
L279.699 318.815
L279.806 318.756
L280.132 318.65
L280.241 318.587
L280.485 318.477
L280.589 318.419
L280.76 318.322
L280.871 318.217
L281.097 318.115
L281.186 318.061
L281.343 317.955
L281.446 317.866
L281.612 317.781
L281.707 317.643
L281.875 317.549
L281.983 317.45
L282.135 317.343
L282.228 317.252
L282.349 317.142
L282.424 317.066
L282.551 316.96
L282.653 316.828
L282.772 316.721
L282.877 316.569
L283.001 316.461
L283.105 316.28
L283.194 316.201
L283.297 316.027
L283.399 315.924
L283.505 315.722
L283.582 315.635
L283.687 315.443
L283.807 315.35
L283.914 315.098
L283.984 315
L284.073 314.844
L284.146 314.747
L284.251 314.567
L284.333 314.475
L284.428 314.304
L284.545 314.195
L284.651 313.95
L284.742 313.846
L284.847 313.644
L284.915 313.553
L285.02 313.337
L285.077 313.306
L285.172 313.036
L285.247 312.925
L285.357 312.655
L285.417 312.549
L285.51 312.364
L285.575 312.257
L285.677 312.038
L285.742 311.972
L285.841 311.768
L285.914 311.671
L286.015 311.471
L286.097 311.361
L286.2 311.152
L286.317 311.067
L286.422 310.761
L286.515 310.694
L286.61 310.44
L286.711 310.331
L286.817 310.135
L286.888 310.043
L286.993 309.858
L287.09 309.751
L287.191 309.555
L287.281 309.452
L287.385 309.304
L287.479 309.224
L287.556 309.078
L287.665 308.983
L287.741 308.874
L287.86 308.768
L287.938 308.631
L288.048 308.539
L288.148 308.381
L288.231 308.27
L288.328 308.123
L288.411 308.034
L288.513 307.85
L288.595 307.768
L288.698 307.595
L288.804 307.484
L288.912 307.369
L289.054 307.261
L289.161 307.113
L289.281 307.02
L289.389 306.878
L289.492 306.774
L289.589 306.657
L289.696 306.553
L289.8 306.439
L289.938 306.332
L290.046 306.219
L290.179 306.111
L290.276 305.995
L290.385 305.889
L290.483 305.753
L290.586 305.683
L290.687 305.501
L290.789 305.409
L290.896 305.235
L290.982 305.143
L291.081 304.956
L291.159 304.854
L291.269 304.647
L291.35 304.539
L291.454 304.373
L291.534 304.272
L291.642 304.104
L291.714 304.003
L291.814 303.844
L291.897 303.753
L291.997 303.563
L292.075 303.472
L292.176 303.302
L292.258 303.202
L292.349 303.012
L292.414 302.908
L292.518 302.728
L292.592 302.659
L292.698 302.456
L292.792 302.348
L292.897 302.165
L292.983 302.104
L293.094 301.855
L293.166 301.746
L293.274 301.528
L293.33 301.435
L293.431 301.214
L293.504 301.13
L293.608 300.818
L293.674 300.748
L293.78 300.396
L293.832 300.294
L293.93 300.023
L293.985 299.922
L294.093 299.644
L294.158 299.541
L294.268 299.25
L294.326 299.139
L294.424 298.933
L294.499 298.861
L294.582 298.614
L294.645 298.52
L294.753 298.25
L294.818 298.158
L294.929 297.897
L294.985 297.809
L295.085 297.574
L295.153 297.509
L295.246 297.226
L295.298 297.158
L295.407 296.888
L295.468 296.793
L295.562 296.56
L295.623 296.452
L295.73 296.174
L295.786 296.077
L295.895 295.794
L295.941 295.692
L296.033 295.461
L296.081 295.361
L296.186 295.097
L296.241 294.999
L296.34 294.75
L296.401 294.64
L296.51 294.404
L296.587 294.304
L296.693 293.997
L296.744 293.893
L296.848 293.647
L296.906 293.551
L297 293.293
L297.051 293.205
L297.16 292.938
L297.223 292.846
L297.33 292.576
L297.387 292.466
L297.492 292.218
L297.56 292.148
L297.662 291.807
L297.71 291.7
L297.818 291.419
L297.868 291.324
L297.973 291.034
L298.02 290.927
L298.13 290.626
L298.187 290.516
L298.294 290.238
L298.343 290.144
L298.445 289.857
L298.49 289.758
L298.598 289.459
L298.644 289.362
L298.741 289.097
L298.805 288.987
L298.905 288.685
L298.95 288.599
L299.06 288.281
L299.106 288.2
L299.207 287.891
L299.252 287.854
L299.357 287.492
L299.41 287.404
L299.519 287.085
L299.565 286.977
L299.661 286.743
L299.73 286.649
L299.83 286.367
L299.886 286.28
L299.982 286.064
L300.038 285.968
L300.149 285.719
L300.206 285.614
L300.316 285.371
L300.374 285.262
L300.483 285.021
L300.542 284.916
L300.653 284.715
L300.721 284.619
L300.813 284.464
L300.886 284.38
L300.99 284.193
L301.067 284.089
L301.176 283.927
L301.269 283.823
L301.368 283.69
L301.455 283.591
L301.555 283.434
L301.634 283.327
L301.742 283.144
L301.817 283.051
L301.925 282.849
L302.001 282.741
L302.11 282.541
L302.177 282.462
L302.281 282.213
L302.341 282.129
L302.432 281.895
L302.484 281.786
L302.573 281.582
L302.633 281.481
L302.733 281.226
L302.791 281.13
L302.89 280.906
L302.96 280.802
L303.045 280.606
L303.107 280.499
L303.217 280.287
L303.285 280.188
L303.393 279.956
L303.456 279.876
L303.561 279.679
L303.634 279.574
L303.728 279.423
L303.81 279.318
L303.917 279.151
L304 279.046
L304.11 278.886
L304.187 278.782
L304.296 278.596
L304.365 278.497
L304.472 278.296
L304.545 278.213
L304.656 277.998
L304.732 277.888
L304.838 277.732
L304.917 277.634
L305.024 277.445
L305.101 277.351
L305.207 277.162
L305.287 277.052
L305.385 276.898
L305.469 276.793
L305.574 276.634
L305.681 276.529
L305.792 276.322
L305.874 276.216
L305.984 276.024
L306.056 275.918
L306.152 275.75
L306.239 275.647
L306.348 275.471
L306.431 275.363
L306.533 275.225
L306.648 275.115
L306.75 274.989
L306.84 274.887
L306.947 274.718
L307.019 274.634
L307.119 274.444
L307.201 274.337
L307.301 274.144
L307.373 274.043
L307.462 273.886
L307.543 273.78
L307.649 273.578
L307.725 273.476
L307.819 273.308
L307.886 273.211
L307.997 272.988
L308.058 272.881
L308.166 272.689
L308.231 272.579
L308.331 272.393
L308.395 272.293
L308.503 272.051
L308.56 271.947
L308.666 271.73
L308.728 271.625
L308.836 271.37
L308.888 271.262
L308.996 271.023
L309.049 270.922
L309.145 270.695
L309.202 270.584
L309.313 270.337
L309.384 270.227
L309.493 269.972
L309.55 269.872
L309.66 269.646
L309.724 269.544
L309.828 269.329
L309.901 269.222
L310.012 268.96
L310.065 268.858
L310.172 268.63
L310.229 268.531
L310.333 268.294
L310.395 268.185
L310.493 267.947
L310.564 267.863
L310.675 267.597
L310.735 267.491
L310.842 267.258
L310.901 267.171
L311.009 266.927
L311.067 266.819
L311.178 266.594
L311.237 266.515
L311.347 266.244
L311.398 266.148
L311.504 265.908
L311.558 265.818
L311.668 265.539
L311.719 265.448
L311.828 265.177
L311.889 265.07
L311.996 264.783
L312.047 264.675
L312.153 264.429
L312.201 264.318
L312.306 264.067
L312.357 263.962
L312.466 263.741
L312.529 263.631
L312.636 263.401
L312.691 263.291
L312.797 263.076
L312.866 262.968
L312.976 262.728
L313.03 262.626
L313.134 262.381
L313.184 262.271
L313.289 262.035
L313.347 261.929
L313.456 261.658
L313.508 261.548
L313.614 261.298
L313.665 261.189
L313.775 260.942
L313.822 260.834
L313.925 260.595
L313.981 260.484
L314.092 260.187
L314.134 260.085
L314.245 259.78
L314.286 259.697
L314.393 259.359
L314.432 259.26
L314.534 258.956
L314.58 258.857
L314.684 258.527
L314.724 258.44
L314.832 258.101
L314.876 257.998
L314.981 257.672
L315.021 257.575
L315.131 257.253
L315.176 257.152
L315.287 256.823
L315.333 256.712
L315.441 256.39
L315.482 256.283
L315.58 256.024
L315.624 255.921
L315.73 255.631
L315.775 255.526
L315.884 255.196
L315.928 255.089
L316.03 254.8
L316.079 254.695
L316.19 254.357
L316.232 254.254
L316.34 253.95
L316.382 253.842
L316.485 253.544
L316.526 253.447
L316.633 253.145
L316.683 253.037
L316.794 252.717
L316.835 252.617
L316.94 252.308
L316.981 252.218
L317.09 251.878
L317.134 251.778
L317.244 251.461
L317.3 251.352
L317.41 251.029
L317.453 250.921
L317.564 250.622
L317.61 250.513
L317.719 250.245
L317.777 250.136
L317.886 249.864
L317.945 249.761
L318.043 249.518
L318.101 249.411
L318.212 249.143
L318.265 249.032
L318.37 248.794
L318.422 248.689
L318.528 248.442
L318.581 248.331
L318.689 248.106
L318.744 247.996
L318.84 247.802
L318.904 247.692
L319.012 247.459
L319.065 247.351
L319.172 247.118
L319.223 247.012
L319.332 246.759
L319.387 246.654
L319.494 246.399
L319.543 246.3
L319.651 246.028
L319.706 245.934
L319.815 245.652
L319.868 245.559
L319.975 245.284
L320.027 245.173
L320.133 244.894
L320.182 244.788
L320.292 244.504
L320.35 244.395
L320.459 244.109
L320.512 244.01
L320.622 243.745
L320.681 243.634
L320.789 243.409
L320.846 243.299
L320.956 243.053
L321.01 242.942
L321.12 242.731
L321.188 242.621
L321.292 242.431
L321.361 242.322
L321.471 242.145
L321.542 242.035
L321.648 241.854
L321.721 241.743
L321.832 241.556
L321.898 241.455
L322.007 241.23
L322.069 241.121
L322.179 240.915
L322.242 240.804
L322.344 240.617
L322.411 240.509
L322.522 240.304
L322.588 240.194
L322.697 239.984
L322.76 239.876
L322.866 239.652
L322.919 239.543
L323.03 239.295
L323.085 239.186
L323.196 238.944
L323.256 238.857
L323.364 238.619
L323.422 238.508
L323.529 238.316
L323.594 238.206
L323.702 238.001
L323.767 237.891
L323.876 237.696
L323.936 237.588
L324.047 237.366
L324.102 237.258
L324.21 237.005
L324.264 236.899
L324.374 236.641
L324.428 236.533
L324.539 236.28
L324.588 236.171
L324.689 235.908
L324.733 235.798
L324.844 235.517
L324.893 235.413
L325.002 235.145
L325.051 235.037
L325.162 234.805
L325.22 234.715
L325.329 234.483
L325.399 234.374
L325.508 234.139
L325.571 234.028
L325.678 233.837
L325.745 233.726
L325.853 233.515
L325.923 233.404
L326.03 233.193
L326.089 233.083
L326.197 232.864
L326.256 232.759
L326.364 232.558
L326.428 232.458
L326.539 232.24
L326.602 232.133
L326.711 231.934
L326.772 231.834
L326.882 231.617
L326.947 231.506
L327.057 231.319
L327.134 231.212
L327.244 231.009
L327.31 230.903
L327.421 230.708
L327.498 230.612
L327.609 230.408
L327.686 230.297
L327.795 230.11
L327.864 230.002
L327.974 229.818
L328.042 229.709
L328.152 229.537
L328.224 229.439
L328.328 229.276
L328.412 229.165
L328.521 229.033
L328.622 228.923
L328.732 228.772
L328.814 228.666
L328.923 228.511
L329.016 228.402
L329.126 228.239
L329.209 228.128
L329.318 227.992
L329.397 227.886
L329.507 227.73
L329.607 227.62
L329.715 227.49
L329.808 227.381
L329.914 227.232
L329.998 227.123
L330.105 226.948
L330.173 226.837
L330.28 226.64
L330.339 226.53
L330.449 226.3
L330.504 226.196
L330.615 225.958
L330.671 225.857
L330.782 225.606
L330.833 225.5
L330.939 225.253
L330.993 225.145
L331.104 224.91
L331.157 224.803
L331.267 224.564
L331.322 224.453
L331.432 224.231
L331.49 224.126
L331.601 223.904
L331.662 223.793
L331.766 223.602
L331.828 223.495
L331.938 223.296
L332.012 223.186
L332.123 222.987
L332.194 222.876
L332.3 222.712
L332.375 222.603
L332.484 222.426
L332.554 222.317
L332.664 222.135
L332.738 222.026
L332.848 221.837
L332.919 221.726
L333.024 221.553
L333.097 221.442
L333.206 221.266
L333.275 221.157
L333.385 220.963
L333.455 220.854
L333.566 220.69
L333.647 220.58
L333.758 220.409
L333.838 220.302
L333.948 220.126
L334.017 220.018
L334.128 219.8
L334.189 219.691
L334.298 219.484
L334.36 219.373
L334.466 219.189
L334.532 219.082
L334.64 218.898
L334.71 218.794
L334.82 218.601
L334.884 218.49
L334.995 218.295
L335.064 218.186
L335.176 217.995
L335.238 217.889
L335.348 217.666
L335.406 217.557
L335.512 217.344
L335.57 217.238
L335.68 217.012
L335.741 216.901
L335.851 216.684
L335.913 216.574
L336.023 216.379
L336.084 216.269
L336.193 216.056
L336.253 215.946
L336.363 215.734
L336.426 215.627
L336.537 215.369
L336.59 215.272
L336.697 215.025
L336.748 214.915
L336.857 214.658
L336.909 214.551
L337.02 214.288
L337.077 214.192
L337.187 213.916
L337.237 213.807
L337.348 213.551
L337.399 213.44
L337.503 213.219
L337.556 213.113
L337.667 212.871
L337.718 212.771
L337.828 212.523
L337.882 212.423
L337.992 212.174
L338.042 212.066
L338.151 211.816
L338.205 211.708
L338.314 211.451
L338.366 211.341
L338.477 211.1
L338.534 210.993
L338.645 210.773
L338.703 210.668
L338.814 210.46
L338.881 210.349
L338.992 210.152
L339.059 210.047
L339.169 209.874
L339.242 209.764
L339.351 209.583
L339.421 209.476
L339.53 209.293
L339.602 209.184
L339.711 209.015
L339.786 208.904
L339.894 208.731
L339.969 208.622
L340.08 208.476
L340.167 208.367
L340.277 208.207
L340.351 208.098
L340.462 207.914
L340.535 207.803
L340.643 207.62
L340.715 207.513
L340.822 207.333
L340.887 207.228
L340.997 207.031
L341.062 206.934
L341.172 206.732
L341.238 206.627
L341.349 206.421
L341.411 206.312
L341.522 206.124
L341.593 206.014
L341.704 205.845
L341.785 205.738
L341.895 205.591
L341.982 205.481
L342.09 205.332
L342.167 205.225
L342.276 205.059
L342.356 204.949
L342.464 204.787
L342.536 204.676
L342.646 204.521
L342.736 204.41
L342.845 204.255
L342.922 204.145
L343.028 203.986
L343.106 203.875
L343.217 203.723
L343.292 203.615
L343.402 203.437
L343.476 203.328
L343.587 203.163
L343.665 203.054
L343.773 202.903
L343.871 202.792
L343.981 202.652
L344.068 202.542
L344.178 202.4
L344.264 202.289
L344.369 202.136
L344.447 202.026
L344.558 201.866
L344.637 201.758
L344.748 201.604
L344.834 201.498
L344.945 201.329
L345.021 201.218
L345.131 201.064
L345.212 200.956
L345.32 200.806
L345.409 200.697
L345.52 200.554
L345.617 200.445
L345.727 200.312
L345.822 200.205
L345.931 200.075
L346.031 199.964
L346.14 199.825
L346.227 199.714
L346.338 199.559
L346.413 199.449
L346.523 199.285
L346.6 199.176
L346.711 199.009
L346.794 198.898
L346.903 198.743
L346.976 198.637
L347.087 198.452
L347.157 198.342
L347.266 198.146
L347.333 198.036
L347.442 197.867
L347.522 197.756
L347.633 197.593
L347.705 197.484
L347.816 197.312
L347.892 197.201
L348.002 197.045
L348.077 196.936
L348.188 196.774
L348.27 196.665
L348.38 196.526
L348.489 196.416
L348.599 196.282
L348.692 196.171
L348.801 196.026
L348.883 195.915
L348.994 195.765
L349.078 195.656
L349.189 195.509
L349.28 195.398
L349.391 195.268
L349.476 195.158
L349.586 195.026
L349.677 194.918
L349.788 194.773
L349.879 194.662
L349.99 194.518
L350.075 194.408
L350.185 194.255
L350.262 194.145
L350.372 193.989
L350.459 193.878
L350.567 193.734
L350.644 193.623
L350.754 193.464
L350.838 193.353
L350.949 193.206
L351.036 193.095
L351.146 192.946
L351.224 192.836
L351.335 192.655
L351.406 192.544
L351.516 192.368
L351.588 192.257
L351.699 192.071
L351.767 191.96
L351.878 191.781
L351.948 191.671
L352.059 191.499
L352.133 191.389
L352.242 191.22
L352.321 191.111
L352.431 190.952
L352.509 190.842
L352.619 190.677
L352.702 190.567
L352.812 190.41
L352.894 190.299
L353.004 190.155
L353.098 190.044
L353.208 189.916
L353.312 189.805
L353.422 189.679
L353.521 189.568
L353.632 189.454
L353.753 189.344
L353.863 189.253
L354.018 189.142
L354.129 189.059
L354.257 188.95
L354.367 188.851
L354.488 188.741
L354.597 188.645
L354.73 188.535
L354.841 188.467
L355.015 188.356
L355.125 188.282
L355.307 188.171
L355.417 188.095
L355.622 187.984
L355.733 187.93
L355.937 187.819
L356.048 187.758
L356.263 187.647
L356.373 187.571
L356.515 187.46
L356.626 187.352
L356.746 187.242
L356.856 187.119
L356.954 187.009
L357.064 186.885
L357.162 186.774
L357.273 186.653
L357.377 186.542
L357.488 186.416
L357.585 186.305
L357.696 186.192
L357.809 186.082
L357.92 185.957
L358.018 185.846
L358.129 185.702
L358.218 185.591
L358.329 185.471
L358.438 185.36
L358.549 185.268
L358.699 185.157
L358.809 185.08
L358.994 184.969
L359.104 184.896
L359.308 184.785
L359.419 184.721
L359.619 184.61
L359.73 184.548
L359.91 184.437
L360.02 184.362
L360.199 184.251
L360.309 184.191
L360.563 184.08
L360.674 184.031
L360.943 183.921
L361.05 183.873
L361.262 183.762
L361.373 183.687
L361.519 183.577
L361.629 183.485
L361.772 183.375
L361.883 183.288
L362.036 183.177
L362.147 183.098
L362.294 182.988
L362.405 182.909
L362.566 182.798
L362.676 182.714
L362.836 182.603
L362.946 182.526
L363.107 182.415
L363.218 182.338
L363.4 182.227
L363.511 182.168
L363.704 182.057
L363.815 181.998
L364.043 181.887
L364.154 181.817
L364.378 181.706
L364.488 181.663
L364.759 181.552
L364.87 181.508
L365.085 181.397
L365.195 181.343
L365.455 181.232
L365.565 181.172
L365.784 181.061
L365.895 180.997
L366.106 180.886
L366.215 180.836
L366.395 180.726
L366.505 180.668
L366.729 180.557
L366.839 180.484
L366.965 180.373
L367.076 180.263
L367.194 180.152
L367.304 180.048
L367.44 179.937
L367.551 179.847
L367.671 179.738
L367.782 179.629
L367.902 179.518
L368.013 179.411
L368.118 179.3
L368.229 179.182
L368.339 179.071
L368.447 178.986
L368.587 178.875
L368.697 178.778
L368.809 178.668
L368.92 178.557
L369.022 178.446
L369.132 178.31
L369.217 178.2
L369.328 178.049
L369.414 177.94
L369.525 177.798
L369.616 177.688
L369.726 177.565
L369.836 177.454
L369.945 177.341
L370.059 177.23
L370.17 177.107
L370.261 176.996
L370.373 176.859
L370.468 176.749
L370.578 176.621
L370.677 176.51
L370.788 176.382
L370.876 176.273
L370.986 176.137
L371.081 176.026
L371.191 175.898
L371.282 175.787
L371.393 175.65
L371.481 175.539
L371.592 175.401
L371.686 175.29
L371.797 175.157
L371.892 175.047
L372.003 174.912
L372.089 174.801
L372.2 174.651
L372.286 174.54
L372.397 174.385
L372.474 174.275
L372.584 174.11
L372.658 173.999
L372.769 173.832
L372.835 173.722
L372.946 173.524
L373.009 173.413
L373.12 173.22
L373.18 173.109
L373.291 172.904
L373.35 172.794
L373.461 172.608
L373.531 172.498
L373.641 172.326
L373.718 172.215
L373.829 172.062
L373.912 171.951
L374.022 171.806
L374.106 171.694
L374.216 171.549
L374.295 171.438
L374.406 171.264
L374.472 171.154
L374.583 170.983
L374.656 170.872
L374.767 170.705
L374.844 170.594
L374.954 170.439
L375.033 170.328
L375.144 170.171
L375.227 170.06
L375.338 169.904
L375.423 169.793
L375.534 169.665
L375.638 169.554
L375.749 169.439
L375.87 169.328
L375.98 169.241
L376.114 169.13
L376.225 169.041
L376.34 168.931
L376.45 168.817
L376.557 168.706
L376.668 168.582
L376.78 168.472
L376.891 168.355
L376.994 168.244
L377.105 168.129
L377.218 168.018
L377.329 167.897
L377.435 167.787
L377.546 167.672
L377.657 167.561
L377.768 167.439
L377.862 167.329
L377.973 167.198
L378.075 167.088
L378.186 166.958
L378.281 166.847
L378.391 166.717
L378.488 166.607
L378.599 166.48
L378.696 166.369
L378.807 166.233
L378.896 166.122
L379.007 165.988
L379.098 165.877
L379.209 165.721
L379.286 165.61
L379.396 165.457
L379.479 165.347
L379.589 165.192
L379.665 165.082
L379.776 164.925
L379.853 164.814
L379.964 164.666
L380.045 164.556
L380.155 164.395
L380.233 164.284
L380.345 164.128
L380.426 164.018
L380.537 163.858
L380.621 163.747
L380.732 163.604
L380.822 163.493
L380.933 163.361
L381.041 163.25
L381.152 163.14
L381.272 163.03
L381.383 162.932
L381.5 162.821
L381.611 162.727
L381.742 162.616
L381.853 162.517
L381.971 162.407
L382.082 162.309
L382.205 162.198
L382.316 162.09
L382.427 161.979
L382.538 161.87
L382.653 161.759
L382.764 161.641
L382.859 161.53
L382.97 161.41
L383.077 161.299
L383.187 161.198
L383.328 161.087
L383.439 160.998
L383.592 160.887
L383.703 160.811
L383.85 160.7
L383.961 160.6
L384.075 160.49
L384.185 160.38
L384.305 160.269
L384.416 160.175
L384.575 160.064
L384.685 159.979
L384.847 159.868
L384.959 159.794
L385.139 159.683
L385.25 159.608
L385.38 159.497
L385.491 159.389
L385.615 159.278
L385.726 159.189
L385.868 159.078
L385.979 158.997
L386.168 158.886
L386.279 158.816
L386.44 158.705
L386.551 158.648
L386.812 158.537
L386.923 158.488
L387.25 158.377
L387.361 158.336
L387.555 158.225
L387.666 158.136
L387.805 158.025
L387.916 157.944
L388.063 157.833
L388.173 157.739
L388.311 157.628
L388.422 157.529
L388.535 157.418
L388.646 157.311
L388.773 157.199
L388.884 157.088
L388.988 156.977
L389.099 156.866
L389.22 156.755
L389.331 156.66
L389.449 156.549
L389.56 156.438
L389.673 156.328
L389.784 156.212
L389.89 156.102
L390.001 155.991
L390.11 155.88
L390.222 155.782
L390.356 155.672
L390.467 155.579
L390.604 155.468
L390.715 155.375
L390.866 155.264
L390.977 155.178
L391.108 155.067
L391.219 154.978
L391.344 154.867
L391.455 154.759
L391.565 154.647
L391.676 154.544
L391.8 154.433
L391.911 154.353
L392.09 154.243
L392.201 154.172
L392.392 154.061
L392.503 153.982
L392.669 153.871
L392.779 153.785
L392.917 153.674
L393.028 153.589
L393.186 153.478
L393.297 153.401
L393.446 153.29
L393.557 153.205
L393.706 153.094
L393.816 153.027
L394.002 152.916
L394.113 152.855
L394.346 152.744
L394.458 152.691
L394.709 152.58
L394.82 152.519
L395.025 152.408
L395.136 152.348
L395.341 152.237
L395.452 152.178
L395.609 152.067
L395.72 151.969
L395.841 151.858
L395.952 151.74
L396.056 151.629
L396.167 151.512
L396.283 151.402
L396.393 151.289
L396.503 151.178
L396.614 151.062
L396.728 150.952
L396.839 150.849
L396.956 150.738
L397.067 150.648
L397.195 150.538
L397.306 150.437
L397.439 150.327
L397.55 150.232
L397.673 150.121
L397.784 150.036
L397.954 149.925
L398.065 149.854
L398.287 149.743
L398.398 149.69
L398.611 149.579
L398.722 149.496
L398.869 149.385
L398.98 149.307
L399.131 149.196
L399.242 149.137
L399.482 149.026
L399.593 148.984
L399.848 148.873
L399.959 148.821
L400.258 148.71
L400.369 148.67
L400.667 148.559
L400.777 148.5
L400.995 148.389
L401.106 148.326
L401.284 148.215
L401.395 148.158
L401.593 148.047
L401.704 147.984
L401.941 147.873
L402.052 147.828
L402.262 147.717
L402.373 147.648
L402.529 147.537
L402.641 147.442
L402.763 147.331
L402.874 147.222
L402.986 147.111
L403.097 147.016
L403.229 146.905
L403.34 146.811
L403.467 146.7
L403.578 146.599
L403.697 146.488
L403.808 146.379
L403.929 146.268
L404.04 146.179
L404.195 146.067
L404.306 145.986
L404.49 145.875
L404.601 145.82
L404.784 145.709
L404.895 145.64
L405.078 145.529
L405.189 145.46
L405.383 145.349
L405.494 145.28
L405.7 145.169
L405.811 145.105
L406.011 144.994
L406.122 144.935
L406.384 144.824
L406.495 144.779
L407.037 144.668
L407.148 144.648
L407.903 144.537
L408.014 144.504
L408.381 144.393
L408.492 144.329
L408.72 144.218
L408.831 144.166
L409.044 144.055
L409.155 143.99
L409.322 143.879
L409.433 143.799
L409.581 143.688
L409.692 143.621
L409.959 143.51
L410.07 143.459
L410.325 143.348
L410.436 143.306
L410.732 143.194
L410.843 143.157
L411.202 143.046
L411.313 143.012
L411.598 142.901
L411.709 142.843
L411.884 142.732
L411.996 142.658
L412.145 142.547
L412.256 142.47
L412.406 142.359
L412.517 142.265
L412.657 142.154
L412.768 142.069
L412.91 141.958
L413.021 141.857
L413.151 141.746
L413.262 141.651
L413.401 141.54
L413.512 141.46
L413.71 141.349
L413.821 141.305
L414.085 141.194
L414.196 141.146
L414.494 141.034
L414.605 140.992
L414.852 140.881
L414.963 140.832
L415.251 140.721
L415.362 140.672
L415.572 140.561
L415.684 140.492
L415.88 140.381
L415.991 140.337
L416.262 140.226
L416.373 140.184
L416.79 140.073
L416.901 140.039
L417.415 139.928
L417.526 139.906
L418.039 139.795
L418.15 139.78
L419.07 139.668
L419.181 139.659
L420.319 139.77
L420.425 139.782
L420.43 139.782
L422.386 139.67
L422.497 139.618
L422.739 139.507
L422.85 139.456
L423.11 139.345
L423.221 139.279
L423.399 139.168
L423.511 139.094
L423.693 138.983
L423.805 138.924
L423.994 138.813
L424.105 138.752
L424.271 138.641
L424.382 138.565
L424.551 138.454
L424.662 138.385
L424.843 138.274
L424.955 138.209
L425.136 138.098
L425.247 138.014
L425.404 137.903
L425.515 137.83
L425.656 137.719
L425.767 137.615
L425.889 137.504
L426 137.412
L426.14 137.301
L426.251 137.199
L426.368 137.088
L426.479 136.975
L426.606 136.864
L426.717 136.769
L426.845 136.658
L426.956 136.546
L427.065 136.435
L427.176 136.328
L427.3 136.217
L427.411 136.119
L427.534 136.008
L427.645 135.91
L427.772 135.799
L427.883 135.706
L428.01 135.595
L428.121 135.493
L428.226 135.382
L428.338 135.261
L428.447 135.15
L428.558 135.028
L428.659 134.917
L428.77 134.791
L428.861 134.68
L428.972 134.556
L429.078 134.445
L429.189 134.329
L429.287 134.218
L429.398 134.089
L429.496 133.978
L429.607 133.851
L429.703 133.739
L429.814 133.598
L429.905 133.486
L430.016 133.352
L430.112 133.241
L430.223 133.11
L430.333 132.999
L430.444 132.89
L430.554 132.779
L430.665 132.675
L430.79 132.564
L430.901 132.472
L431.045 132.361
L431.156 132.284
L431.324 132.173
L431.435 132.112
L431.651 132.001
L431.763 131.94
L431.997 131.829
L432.108 131.773
L432.421 131.662
L432.532 131.641
L432.887 131.53
L432.998 131.505
L433.276 131.394
L433.387 131.336
L433.676 131.225
L433.787 131.156
L433.947 131.045
L434.058 130.952
L434.178 130.841
L434.289 130.732
L434.401 130.621
L434.512 130.508
L434.632 130.397
L434.743 130.301
L434.883 130.19
L434.994 130.102
L435.146 129.991
L435.257 129.893
L435.377 129.782
L435.488 129.692
L435.61 129.581
L435.722 129.473
L435.846 129.362
L435.957 129.261
L436.083 129.15
L436.194 129.053
L436.327 128.942
L436.438 128.847
L436.566 128.736
L436.677 128.633
L436.797 128.522
L436.908 128.418
L437.007 128.307
L437.118 128.183
L437.211 128.072
L437.322 127.945
L437.429 127.834
L437.54 127.725
L437.65 127.614
L437.761 127.503
L437.877 127.392
L437.988 127.294
L438.128 127.183
L438.239 127.101
L438.379 126.99
L438.49 126.893
L438.614 126.782
L438.725 126.68
L438.853 126.569
L438.964 126.476
L439.1 126.365
L439.211 126.271
L439.352 126.16
L439.463 126.066
L439.585 125.955
L439.696 125.854
L439.819 125.743
L439.93 125.641
L440.05 125.529
L440.161 125.438
L440.291 125.327
L440.402 125.234
L440.548 125.122
L440.659 125.025
L440.774 124.914
L440.885 124.81
L440.997 124.699
L441.108 124.575
L441.204 124.464
L441.315 124.33
L441.408 124.219
L441.519 124.075
L441.603 123.964
L441.714 123.839
L441.816 123.728
L441.927 123.629
L442.062 123.518
L442.173 123.404
L442.285 123.293
L442.396 123.184
L442.506 123.073
L442.617 122.958
L442.732 122.846
L442.844 122.738
L442.962 122.627
L443.073 122.522
L443.194 122.411
L443.305 122.321
L443.443 122.21
L443.554 122.121
L443.69 122.01
L443.801 121.917
L443.936 121.806
L444.047 121.718
L444.205 121.607
L444.316 121.533
L444.48 121.422
L444.591 121.345
L444.75 121.234
L444.861 121.154
L445.029 121.043
L445.14 120.974
L445.338 120.863
L445.449 120.813
L445.69 120.702
L445.801 120.646
L445.997 120.535
L446.108 120.458
L446.265 120.347
L446.376 120.276
L446.576 120.165
L446.687 120.096
L446.873 119.984
L446.984 119.913
L447.138 119.802
L447.249 119.723
L447.418 119.612
L447.53 119.533
L447.69 119.422
L447.801 119.356
L447.973 119.245
L448.084 119.164
L448.223 119.053
L448.334 118.966
L448.471 118.855
L448.582 118.763
L448.723 118.652
L448.834 118.565
L448.977 118.454
L449.088 118.374
L449.246 118.263
L449.357 118.189
L449.527 118.078
L449.639 118.005
L449.814 117.893
L449.925 117.821
L450.124 117.71
L450.236 117.663
L450.516 117.552
L450.627 117.507
L450.832 117.395
L450.943 117.337
L451.12 117.226
L451.231 117.154
L451.438 117.043
L451.549 116.985
L451.759 116.873
L451.87 116.829
L452.134 116.718
L452.245 116.67
L452.493 116.558
L452.604 116.514
L452.834 116.403
L452.945 116.349
L453.186 116.238
L453.297 116.195
L453.589 116.084
L453.7 116.038
L453.937 115.927
L454.048 115.863
L454.301 115.751
L454.412 115.707
L454.616 115.596
L454.727 115.522
L454.889 115.411
L455 115.323
L455.139 115.212
L455.25 115.131
L455.4 115.02
L455.511 114.935
L455.666 114.824
L455.777 114.755
L455.956 114.643
L456.067 114.582
L456.256 114.471
L456.367 114.414
L456.588 114.303
L456.699 114.237
L456.883 114.126
L456.994 114.06
L457.206 113.949
L457.317 113.893
L457.543 113.782
L457.654 113.728
L457.9 113.617
L458.011 113.564
L458.217 113.453
L458.328 113.387
L458.528 113.276
L458.639 113.204
L458.793 113.093
L458.904 112.999
L459.02 112.888
L459.132 112.785
L459.258 112.674
L459.37 112.574
L459.495 112.463
L459.606 112.38
L459.743 112.269
L459.854 112.185
L460.003 112.074
L460.114 111.987
L460.256 111.876
L460.367 111.798
L460.514 111.687
L460.625 111.6
L460.768 111.489
L460.879 111.409
L461.038 111.298
L461.149 111.226
L461.347 111.115
L461.458 111.044
L461.62 110.933
L461.731 110.838
L461.837 110.727
L461.948 110.604
L462.048 110.493
L462.159 110.367
L462.26 110.256
L462.371 110.142
L462.484 110.031
L462.595 109.925
L462.714 109.814
L462.825 109.706
L462.938 109.595
L463.049 109.484
L463.167 109.373
L463.278 109.268
L463.397 109.157
L463.508 109.047
L463.623 108.936
L463.735 108.825
L463.844 108.714
L463.955 108.611
L464.073 108.5
L464.184 108.388
L464.303 108.277
L464.414 108.172
L464.539 108.061
L464.65 107.966
L464.783 107.855
L464.894 107.77
L465.039 107.659
L465.15 107.573
L465.311 107.462
L465.422 107.382
L465.559 107.271
L465.67 107.177
L465.796 107.066
L465.907 106.971
L466.046 106.86
L466.157 106.777
L466.29 106.666
L466.401 106.572
L466.54 106.46
L466.651 106.378
L466.791 106.267
L466.902 106.184
L467.045 106.073
L467.157 105.993
L467.307 105.882
L467.418 105.801
L467.604 105.69
L467.715 105.634
L467.966 105.523
L468.077 105.48
L468.376 105.369
L468.487 105.324
L468.751 105.213
L468.863 105.157
L469.081 105.045
L469.192 104.981
L469.434 104.87
L469.545 104.828
L469.828 104.717
L469.939 104.668
L470.174 104.557
L470.285 104.507
L470.575 104.396
L470.686 104.353
L471.021 104.242
L471.132 104.212
L471.418 104.101
L471.529 104.051
L471.899 103.94
L472.01 103.905
L472.523 103.794
L472.634 103.772
L473.247 103.661
L473.358 103.644
L473.793 103.533
L473.904 103.5
L474.56 103.389
L474.671 103.373
L475.605 103.262
L475.716 103.23
L476.13 103.119
L476.241 103.081
L476.5 102.97
L476.611 102.932
L476.933 102.821
L477.044 102.793
L477.59 102.682
L477.701 102.649
L478.036 102.538
L478.147 102.485
L478.448 102.374
L478.559 102.33
L478.817 102.219
L478.928 102.166
L479.12 102.055
L479.231 101.992
L479.416 101.881
L479.527 101.816
L479.719 101.705
L479.83 101.644
L480.032 101.533
L480.143 101.472
L480.349 101.361
L480.46 101.303
L480.661 101.192
L480.772 101.131
L480.951 101.02
L481.062 100.955
L481.254 100.844
L481.365 100.794
L481.597 100.683
L481.708 100.624
L481.887 100.513
L481.998 100.434
L482.139 100.323
L482.25 100.236
L482.394 100.125
L482.505 100.035
L482.634 99.9235
L482.745 99.8389
L482.892 99.7278
L483.003 99.6482
L483.198 99.5371
L483.309 99.477
L483.531 99.3659
L483.642 99.302
L483.805 99.1909
L483.916 99.1195
L484.078 99.0083
L484.189 98.9387
L484.365 98.8276
L484.476 98.7544
L484.682 98.6433
L484.793 98.5833
L484.963 98.4722
L485.074 98.4018
L485.241 98.2907
L485.352 98.2145
L485.513 98.1034
L485.625 98.0336
L485.779 97.9225
L485.891 97.845
L486.053 97.7339
L486.164 97.6504
L486.335 97.5393
L486.446 97.4687
L486.639 97.3576
L486.75 97.2922
L486.933 97.1811
L487.044 97.1077
L487.199 96.9966
L487.31 96.9123
L487.465 96.8012
L487.576 96.7244
L487.738 96.6133
L487.849 96.5299
L487.991 96.4188
L488.102 96.325
L488.236 96.2139
L488.347 96.1164
L488.49 96.0053
L488.601 95.9258
L488.774 95.8147
L488.885 95.7407
L489.06 95.6296
L489.171 95.5422
L489.314 95.4311
L489.425 95.3449
L489.57 95.2337
L489.681 95.1501
L489.847 95.039
L489.958 94.9619
L490.124 94.8508
L490.235 94.7739
L490.407 94.6627
L490.518 94.6021
L490.741 94.491
L490.852 94.4298
L491.104 94.3187
L491.215 94.2698
L491.644 94.1587
L491.755 94.1343
L492.246 94.0232
L492.357 94.0014
L492.73 93.8903
L492.842 93.8623
L495.478 93.7512
L495.589 93.7349
L497.086 93.846
L497.197 93.8635
L497.61 93.9746
L497.721 93.9827
L499.109 93.8716
L499.22 93.8354
L501.448 93.7243
L501.559 93.6978
L502.046 93.5867
L502.157 93.5642
L502.693 93.4531
L502.804 93.4373
L503.771 93.3262
L503.882 93.3124
L504.563 93.2012
L504.674 93.1712
L504.993 93.0601
L505.104 93.0042
L505.292 92.8931
L505.403 92.8267
L505.589 92.7156
L505.7 92.6527
L505.865 92.5416
L505.976 92.4704
L506.178 92.3593
L506.289 92.2936
L506.474 92.1825
L506.585 92.1122
L506.803 92.0011
L506.915 91.9405
L507.14 91.8294
L507.251 91.7773
L507.483 91.6662
L507.594 91.6167
L508.067 91.5056
L508.178 91.4962
L509.48 91.6073
L509.591 91.633
L509.93 91.7441
L510.042 91.791
L510.257 91.9022
L510.368 91.9611
L510.758 92.0723
L510.869 92.0933
L512.799 91.9822
L512.853 91.9797
L512.898 91.9822
L512.898 91.9822
L513.009 91.9905
L513.752 92.1016
L513.863 92.1209
L514.534 92.0098
L514.645 91.9829
L514.994 91.8718
L515.105 91.8241
L515.339 91.713
L515.45 91.6693
L515.724 91.5582
L515.835 91.519
L516.157 91.4079
L516.268 91.3633
L516.587 91.2522
L516.698 91.2183
L517.079 91.1071
L517.19 91.0722
L517.729 90.9611
L517.84 90.9316
L518.109 90.8205
L518.221 90.7653
L518.571 90.6542
L518.683 90.6178
L518.95 90.5067
L519.062 90.4583
L519.345 90.3472
L519.456 90.2935
L519.735 90.1824
L519.846 90.1374
L520.125 90.0263
L520.236 89.9853
L520.52 89.8742
L520.631 89.8344
L520.882 89.7233
L520.993 89.6609
L521.16 89.5498
L521.272 89.4718
L521.442 89.3607
L521.553 89.3029
L521.787 89.1918
L521.899 89.1345
L522.103 89.0234
L522.214 88.9786
L522.498 88.8675
L522.609 88.8157
L522.879 88.7046
L522.99 88.682
L523.898 88.5709
L524.009 88.5488
L524.356 88.4377
L524.467 88.3959
L524.843 88.2848
L524.954 88.2604
L525.284 88.1493
L525.395 88.0991
L525.67 87.988
L525.781 87.9389
L526.235 87.8278
L526.346 87.8038
L526.763 87.6926
L526.874 87.6625
L527.172 87.5514
L527.283 87.5066
L527.552 87.3955
L527.663 87.3348
L527.854 87.2237
L527.965 87.1581
L528.146 87.047
L528.257 86.9834
L528.483 86.8723
L528.594 86.8204
L528.772 86.7093
L528.883 86.6292
L529.046 86.5181
L529.157 86.4404
L529.329 86.3293
L529.44 86.2673
L529.605 86.1562
L529.716 86.074
L529.88 85.9629
L529.991 85.8898
L530.147 85.7787
L530.259 85.6986
L530.414 85.5875
L530.525 85.4959
L530.641 85.3848
L530.752 85.2771
L530.869 85.166
L530.98 85.0517
L531.086 84.9406
L531.197 84.8262
L531.313 84.7151
L531.424 84.5994
L531.53 84.4883
L531.641 84.3725
L531.758 84.2614
L531.869 84.1623
L531.991 84.0512
L532.102 83.9508
L532.222 83.8397
L532.333 83.7267
L532.443 83.6156
L532.554 83.4985
L532.657 83.3873
L532.768 83.2633
L532.866 83.1522
L532.977 83.0272
L533.081 82.9161
L533.192 82.8049
L533.293 82.6938
L533.404 82.5663
L533.497 82.4552
L533.609 82.3186
L533.701 82.2075
L533.812 82.0716
L533.902 81.9604
L534.013 81.8248
L534.098 81.7136
L534.209 81.5712
L534.295 81.4601
L534.406 81.3023
L534.487 81.1912
L534.598 81.0426
L534.679 80.9314
L534.791 80.7785
L534.869 80.6674
L534.98 80.516
L535.065 80.4049
L535.176 80.2673
L535.265 80.1562
L535.376 80.0174
L535.46 79.9063
L535.571 79.7507
L535.653 79.6396
L535.764 79.4875
L535.844 79.3764
L535.955 79.2351
L536.037 79.124
L536.148 78.9662
L536.225 78.855
L536.336 78.6876
L536.409 78.5765
L536.52 78.4111
L536.596 78.3
L536.707 78.1373
L536.784 78.0262
L536.895 77.8672
L536.979 77.7561
L537.09 77.6015
L537.169 77.4904
L537.28 77.3292
L537.351 77.2181
L537.462 77.0438
L537.535 76.9327
L537.647 76.764
L537.719 76.6529
L537.83 76.4811
L537.905 76.37
L538.016 76.2118
L538.1 76.1007
L538.212 75.9595
L538.3 75.8484
L538.411 75.7154
L538.506 75.6043
L538.617 75.4715
L538.712 75.3604
L538.823 75.2273
L538.912 75.1162
L539.023 74.9706
L539.108 74.8595
L539.219 74.7076
L539.301 74.5965
L539.412 74.4501
L539.496 74.339
L539.607 74.1922
L539.693 74.0811
L539.805 73.937
L539.888 73.8259
L540 73.6663
L540.074 73.5552
L540.185 73.3929
L540.262 73.2818
L540.373 73.1291
L540.451 73.0179
L540.563 72.8599
L540.639 72.7488
L540.75 72.6024
L540.836 72.4913
L540.947 72.3596
L541.038 72.2485
L541.149 72.1153
L541.239 72.0042
L541.35 71.8686
L541.439 71.7575
L541.55 71.6176
L541.645 71.5065
L541.757 71.3871
L541.871 71.276
L541.983 71.167
L542.097 71.0558
L542.208 70.9498
L542.323 70.8387
L542.434 70.7346
L542.551 70.6235
L542.663 70.5233
L542.786 70.4122
L542.897 70.3164
L543.012 70.2053
L543.123 70.1079
L543.23 69.9968
L543.341 69.8779
L543.444 69.7668
L543.555 69.6467
L543.673 69.5356
L543.784 69.439
L543.906 69.3279
L544.017 69.2219
L544.138 69.1108
L544.249 69.0081
L544.363 68.8969
L544.474 68.7939
L544.603 68.6828
L544.714 68.5944
L544.847 68.4832
L544.958 68.3819
L545.083 68.2708
L545.194 68.172
L545.327 68.0609
L545.438 67.9625
L545.553 67.8514
L545.664 67.747
L545.802 67.6359
L545.913 67.5377
L546.039 67.4266
L546.15 67.3375
L546.287 67.2263
L546.398 67.1388
L546.553 67.0277
L546.664 66.9462
L546.878 66.8351
L546.989 66.7776
L547.176 66.6665
L547.287 66.6019
L547.483 66.4908
L547.594 66.4255
L547.778 66.3144
L547.827 66.287
L547.827 66.287" style="fill:none;stroke:#0000ff;stroke-width:5.0;"/>
   </g>
   <g id="matplotlib.axis_1">
    <g id="xtick_1">
     <g id="line2d_2">
      <path d="
M176.061 412.239
L176.061 8.51291" style="fill:none;stroke:#000000;stroke-dasharray:1.000000,3.000000;stroke-dashoffset:0.0;stroke-linecap:butt;stroke-width:0.5;"/>
     </g>
     <g id="line2d_3">
      <defs>
       <path d="
M0 0
L0 -4" id="m2dc3e7f6a9"/>
      </defs>
      <g>
       <use style="stroke:#000000;stroke-linecap:butt;stroke-width:0.5;" x="176.060832577" xlink:href="#m2dc3e7f6a9" y="16.276875"/>
      </g>
     </g>
     <g id="text_1">
      <!-- 5 -->
      <defs>
       <path d="
M10.7969 72.9062
L49.5156 72.9062
L49.5156 64.5938
L19.8281 64.5938
L19.8281 46.7344
Q21.9688 47.4688 24.1094 47.8281
Q26.2656 48.1875 28.4219 48.1875
Q40.625 48.1875 47.75 41.5
Q54.8906 34.8125 54.8906 23.3906
Q54.8906 11.625 47.5625 5.09375
Q40.2344 -1.42188 26.9062 -1.42188
Q22.3125 -1.42188 17.5469 -0.640625
Q12.7969 0.140625 7.71875 1.70312
L7.71875 11.625
Q12.1094 9.23438 16.7969 8.0625
Q21.4844 6.89062 26.7031 6.89062
Q35.1562 6.89062 40.0781 11.3281
Q45.0156 15.7656 45.0156 23.3906
Q45.0156 31 40.0781 35.4375
Q35.1562 39.8906 26.7031 39.8906
Q22.75 39.8906 18.8125 39.0156
Q14.8906 38.1406 10.7969 36.2812
z
" id="BitstreamVeraSans-Roman-35"/>
      </defs>
      <g transform="translate(170.400207577 37.774375)scale(0.24 -0.24)">
       <use xlink:href="#BitstreamVeraSans-Roman-35"/>
      </g>
     </g>
    </g>
    <g id="xtick_2">
     <g id="line2d_4">
      <path d="
M294.282 412.239
L294.282 8.51291" style="fill:none;stroke:#000000;stroke-dasharray:1.000000,3.000000;stroke-dashoffset:0.0;stroke-linecap:butt;stroke-width:0.5;"/>
     </g>
     <g id="line2d_5">
      <defs>
       <path d="
M0 0
L0 -4" id="m2dc3e7f6a9"/>
      </defs>
      <g>
       <use style="stroke:#000000;stroke-linecap:butt;stroke-width:0.5;" x="294.282438576" xlink:href="#m2dc3e7f6a9" y="16.276875"/>
      </g>
     </g>
     <g id="text_2">
      <!-- 10 -->
      <defs>
       <path d="
M31.7812 66.4062
Q24.1719 66.4062 20.3281 58.9062
Q16.5 51.4219 16.5 36.375
Q16.5 21.3906 20.3281 13.8906
Q24.1719 6.39062 31.7812 6.39062
Q39.4531 6.39062 43.2812 13.8906
Q47.125 21.3906 47.125 36.375
Q47.125 51.4219 43.2812 58.9062
Q39.4531 66.4062 31.7812 66.4062
M31.7812 74.2188
Q44.0469 74.2188 50.5156 64.5156
Q56.9844 54.8281 56.9844 36.375
Q56.9844 17.9688 50.5156 8.26562
Q44.0469 -1.42188 31.7812 -1.42188
Q19.5312 -1.42188 13.0625 8.26562
Q6.59375 17.9688 6.59375 36.375
Q6.59375 54.8281 13.0625 64.5156
Q19.5312 74.2188 31.7812 74.2188" id="BitstreamVeraSans-Roman-30"/>
       <path d="
M12.4062 8.29688
L28.5156 8.29688
L28.5156 63.9219
L10.9844 60.4062
L10.9844 69.3906
L28.4219 72.9062
L38.2812 72.9062
L38.2812 8.29688
L54.3906 8.29688
L54.3906 0
L12.4062 0
z
" id="BitstreamVeraSans-Roman-31"/>
      </defs>
      <g transform="translate(281.127438576 38.089375)scale(0.24 -0.24)">
       <use xlink:href="#BitstreamVeraSans-Roman-31"/>
       <use x="63.623046875" xlink:href="#BitstreamVeraSans-Roman-30"/>
      </g>
     </g>
    </g>
    <g id="xtick_3">
     <g id="line2d_6">
      <path d="
M412.504 412.239
L412.504 8.51291" style="fill:none;stroke:#000000;stroke-dasharray:1.000000,3.000000;stroke-dashoffset:0.0;stroke-linecap:butt;stroke-width:0.5;"/>
     </g>
     <g id="line2d_7">
      <defs>
       <path d="
M0 0
L0 -4" id="m2dc3e7f6a9"/>
      </defs>
      <g>
       <use style="stroke:#000000;stroke-linecap:butt;stroke-width:0.5;" x="412.504044575" xlink:href="#m2dc3e7f6a9" y="16.276875"/>
      </g>
     </g>
     <g id="text_3">
      <!-- 15 -->
      <g transform="translate(399.600294575 37.774375)scale(0.24 -0.24)">
       <use xlink:href="#BitstreamVeraSans-Roman-31"/>
       <use x="63.623046875" xlink:href="#BitstreamVeraSans-Roman-35"/>
      </g>
     </g>
    </g>
    <g id="xtick_4">
     <g id="line2d_8">
      <path d="
M530.726 412.239
L530.726 8.51291" style="fill:none;stroke:#000000;stroke-dasharray:1.000000,3.000000;stroke-dashoffset:0.0;stroke-linecap:butt;stroke-width:0.5;"/>
     </g>
     <g id="line2d_9">
      <defs>
       <path d="
M0 0
L0 -4" id="m2dc3e7f6a9"/>
      </defs>
      <g>
       <use style="stroke:#000000;stroke-linecap:butt;stroke-width:0.5;" x="530.725650574" xlink:href="#m2dc3e7f6a9" y="16.276875"/>
      </g>
     </g>
     <g id="text_4">
      <!-- 20 -->
      <defs>
       <path d="
M19.1875 8.29688
L53.6094 8.29688
L53.6094 0
L7.32812 0
L7.32812 8.29688
Q12.9375 14.1094 22.625 23.8906
Q32.3281 33.6875 34.8125 36.5312
Q39.5469 41.8438 41.4219 45.5312
Q43.3125 49.2188 43.3125 52.7812
Q43.3125 58.5938 39.2344 62.25
Q35.1562 65.9219 28.6094 65.9219
Q23.9688 65.9219 18.8125 64.3125
Q13.6719 62.7031 7.8125 59.4219
L7.8125 69.3906
Q13.7656 71.7812 18.9375 73
Q24.125 74.2188 28.4219 74.2188
Q39.75 74.2188 46.4844 68.5469
Q53.2188 62.8906 53.2188 53.4219
Q53.2188 48.9219 51.5312 44.8906
Q49.8594 40.875 45.4062 35.4062
Q44.1875 33.9844 37.6406 27.2188
Q31.1094 20.4531 19.1875 8.29688" id="BitstreamVeraSans-Roman-32"/>
      </defs>
      <g transform="translate(517.131900574 38.089375)scale(0.24 -0.24)">
       <use xlink:href="#BitstreamVeraSans-Roman-32"/>
       <use x="63.623046875" xlink:href="#BitstreamVeraSans-Roman-30"/>
      </g>
     </g>
    </g>
    <g id="xtick_5">
     <g id="line2d_10">
      <defs>
       <path d="
M0 0
L0 -2" id="mcc5444fa35"/>
      </defs>
      <g>
       <use style="stroke:#000000;stroke-linecap:butt;stroke-width:0.5;" x="81.4835477778" xlink:href="#mcc5444fa35" y="16.276875"/>
      </g>
     </g>
    </g>
    <g id="xtick_6">
     <g id="line2d_11">
      <defs>
       <path d="
M0 0
L0 -2" id="mcc5444fa35"/>
      </defs>
      <g>
       <use style="stroke:#000000;stroke-linecap:butt;stroke-width:0.5;" x="105.127868978" xlink:href="#mcc5444fa35" y="16.276875"/>
      </g>
     </g>
    </g>
    <g id="xtick_7">
     <g id="line2d_12">
      <defs>
       <path d="
M0 0
L0 -2" id="mcc5444fa35"/>
      </defs>
      <g>
       <use style="stroke:#000000;stroke-linecap:butt;stroke-width:0.5;" x="128.772190177" xlink:href="#mcc5444fa35" y="16.276875"/>
      </g>
     </g>
    </g>
    <g id="xtick_8">
     <g id="line2d_13">
      <defs>
       <path d="
M0 0
L0 -2" id="mcc5444fa35"/>
      </defs>
      <g>
       <use style="stroke:#000000;stroke-linecap:butt;stroke-width:0.5;" x="152.416511377" xlink:href="#mcc5444fa35" y="16.276875"/>
      </g>
     </g>
    </g>
    <g id="xtick_9">
     <g id="line2d_14">
      <defs>
       <path d="
M0 0
L0 -2" id="mcc5444fa35"/>
      </defs>
      <g>
       <use style="stroke:#000000;stroke-linecap:butt;stroke-width:0.5;" x="199.705153777" xlink:href="#mcc5444fa35" y="16.276875"/>
      </g>
     </g>
    </g>
    <g id="xtick_10">
     <g id="line2d_15">
      <defs>
       <path d="
M0 0
L0 -2" id="mcc5444fa35"/>
      </defs>
      <g>
       <use style="stroke:#000000;stroke-linecap:butt;stroke-width:0.5;" x="223.349474977" xlink:href="#mcc5444fa35" y="16.276875"/>
      </g>
     </g>
    </g>
    <g id="xtick_11">
     <g id="line2d_16">
      <defs>
       <path d="
M0 0
L0 -2" id="mcc5444fa35"/>
      </defs>
      <g>
       <use style="stroke:#000000;stroke-linecap:butt;stroke-width:0.5;" x="246.993796176" xlink:href="#mcc5444fa35" y="16.276875"/>
      </g>
     </g>
    </g>
    <g id="xtick_12">
     <g id="line2d_17">
      <defs>
       <path d="
M0 0
L0 -2" id="mcc5444fa35"/>
      </defs>
      <g>
       <use style="stroke:#000000;stroke-linecap:butt;stroke-width:0.5;" x="270.638117376" xlink:href="#mcc5444fa35" y="16.276875"/>
      </g>
     </g>
    </g>
    <g id="xtick_13">
     <g id="line2d_18">
      <defs>
       <path d="
M0 0
L0 -2" id="mcc5444fa35"/>
      </defs>
      <g>
       <use style="stroke:#000000;stroke-linecap:butt;stroke-width:0.5;" x="317.926759776" xlink:href="#mcc5444fa35" y="16.276875"/>
      </g>
     </g>
    </g>
    <g id="xtick_14">
     <g id="line2d_19">
      <defs>
       <path d="
M0 0
L0 -2" id="mcc5444fa35"/>
      </defs>
      <g>
       <use style="stroke:#000000;stroke-linecap:butt;stroke-width:0.5;" x="341.571080976" xlink:href="#mcc5444fa35" y="16.276875"/>
      </g>
     </g>
    </g>
    <g id="xtick_15">
     <g id="line2d_20">
      <defs>
       <path d="
M0 0
L0 -2" id="mcc5444fa35"/>
      </defs>
      <g>
       <use style="stroke:#000000;stroke-linecap:butt;stroke-width:0.5;" x="365.215402175" xlink:href="#mcc5444fa35" y="16.276875"/>
      </g>
     </g>
    </g>
    <g id="xtick_16">
     <g id="line2d_21">
      <defs>
       <path d="
M0 0
L0 -2" id="mcc5444fa35"/>
      </defs>
      <g>
       <use style="stroke:#000000;stroke-linecap:butt;stroke-width:0.5;" x="388.859723375" xlink:href="#mcc5444fa35" y="16.276875"/>
      </g>
     </g>
    </g>
    <g id="xtick_17">
     <g id="line2d_22">
      <defs>
       <path d="
M0 0
L0 -2" id="mcc5444fa35"/>
      </defs>
      <g>
       <use style="stroke:#000000;stroke-linecap:butt;stroke-width:0.5;" x="436.148365775" xlink:href="#mcc5444fa35" y="16.276875"/>
      </g>
     </g>
    </g>
    <g id="xtick_18">
     <g id="line2d_23">
      <defs>
       <path d="
M0 0
L0 -2" id="mcc5444fa35"/>
      </defs>
      <g>
       <use style="stroke:#000000;stroke-linecap:butt;stroke-width:0.5;" x="459.792686975" xlink:href="#mcc5444fa35" y="16.276875"/>
      </g>
     </g>
    </g>
    <g id="xtick_19">
     <g id="line2d_24">
      <defs>
       <path d="
M0 0
L0 -2" id="mcc5444fa35"/>
      </defs>
      <g>
       <use style="stroke:#000000;stroke-linecap:butt;stroke-width:0.5;" x="483.437008175" xlink:href="#mcc5444fa35" y="16.276875"/>
      </g>
     </g>
    </g>
    <g id="xtick_20">
     <g id="line2d_25">
      <defs>
       <path d="
M0 0
L0 -2" id="mcc5444fa35"/>
      </defs>
      <g>
       <use style="stroke:#000000;stroke-linecap:butt;stroke-width:0.5;" x="507.081329374" xlink:href="#mcc5444fa35" y="16.276875"/>
      </g>
     </g>
    </g>
   </g>
   <g id="matplotlib.axis_2">
    <g id="ytick_1">
     <g id="line2d_26">
      <path d="
M64.7562 357.891
L557.299 357.891" style="fill:none;stroke:#000000;stroke-dasharray:1.000000,3.000000;stroke-dashoffset:0.0;stroke-linecap:butt;stroke-width:0.5;"/>
     </g>
     <g id="line2d_27">
      <defs>
       <path d="
M0 0
L4 0" id="mae439d8382"/>
      </defs>
      <g>
       <use style="stroke:#000000;stroke-linecap:butt;stroke-width:0.5;" x="54.75625" xlink:href="#mae439d8382" y="357.890962074"/>
      </g>
     </g>
     <g id="text_5">
      <!-- -2.5 -->
      <defs>
       <path d="
M10.6875 12.4062
L21 12.4062
L21 0
L10.6875 0
z
" id="BitstreamVeraSans-Roman-2e"/>
       <path d="
M4.89062 31.3906
L31.2031 31.3906
L31.2031 23.3906
L4.89062 23.3906
z
" id="BitstreamVeraSans-Roman-2d"/>
      </defs>
      <g transform="translate(7.2 366.626587074)scale(0.24 -0.24)">
       <use xlink:href="#BitstreamVeraSans-Roman-2d"/>
       <use x="36.083984375" xlink:href="#BitstreamVeraSans-Roman-32"/>
       <use x="99.70703125" xlink:href="#BitstreamVeraSans-Roman-2e"/>
       <use x="131.494140625" xlink:href="#BitstreamVeraSans-Roman-35"/>
      </g>
     </g>
    </g>
    <g id="ytick_2">
     <g id="line2d_28">
      <path d="
M64.7562 289.568
L557.299 289.568" style="fill:none;stroke:#000000;stroke-dasharray:1.000000,3.000000;stroke-dashoffset:0.0;stroke-linecap:butt;stroke-width:0.5;"/>
     </g>
     <g id="line2d_29">
      <defs>
       <path d="
M0 0
L4 0" id="mae439d8382"/>
      </defs>
      <g>
       <use style="stroke:#000000;stroke-linecap:butt;stroke-width:0.5;" x="54.75625" xlink:href="#mae439d8382" y="289.568144659"/>
      </g>
     </g>
     <g id="text_6">
      <!-- -2 -->
      <g transform="translate(30.405 298.474394659)scale(0.24 -0.24)">
       <use xlink:href="#BitstreamVeraSans-Roman-2d"/>
       <use x="36.083984375" xlink:href="#BitstreamVeraSans-Roman-32"/>
      </g>
     </g>
    </g>
    <g id="ytick_3">
     <g id="line2d_30">
      <path d="
M64.7562 221.245
L557.299 221.245" style="fill:none;stroke:#000000;stroke-dasharray:1.000000,3.000000;stroke-dashoffset:0.0;stroke-linecap:butt;stroke-width:0.5;"/>
     </g>
     <g id="line2d_31">
      <defs>
       <path d="
M0 0
L4 0" id="mae439d8382"/>
      </defs>
      <g>
       <use style="stroke:#000000;stroke-linecap:butt;stroke-width:0.5;" x="54.75625" xlink:href="#mae439d8382" y="221.245327244"/>
      </g>
     </g>
     <g id="text_7">
      <!-- -1.5 -->
      <g transform="translate(7.2 229.823452244)scale(0.24 -0.24)">
       <use xlink:href="#BitstreamVeraSans-Roman-2d"/>
       <use x="36.083984375" xlink:href="#BitstreamVeraSans-Roman-31"/>
       <use x="99.70703125" xlink:href="#BitstreamVeraSans-Roman-2e"/>
       <use x="131.494140625" xlink:href="#BitstreamVeraSans-Roman-35"/>
      </g>
     </g>
    </g>
    <g id="ytick_4">
     <g id="line2d_32">
      <path d="
M64.7562 152.923
L557.299 152.923" style="fill:none;stroke:#000000;stroke-dasharray:1.000000,3.000000;stroke-dashoffset:0.0;stroke-linecap:butt;stroke-width:0.5;"/>
     </g>
     <g id="line2d_33">
      <defs>
       <path d="
M0 0
L4 0" id="mae439d8382"/>
      </defs>
      <g>
       <use style="stroke:#000000;stroke-linecap:butt;stroke-width:0.5;" x="54.75625" xlink:href="#mae439d8382" y="152.92250983"/>
      </g>
     </g>
     <g id="text_8">
      <!-- -1 -->
      <g transform="translate(30.2175 161.67125983)scale(0.24 -0.24)">
       <use xlink:href="#BitstreamVeraSans-Roman-2d"/>
       <use x="36.083984375" xlink:href="#BitstreamVeraSans-Roman-31"/>
      </g>
     </g>
    </g>
    <g id="ytick_5">
     <g id="line2d_34">
      <path d="
M64.7562 84.5997
L557.299 84.5997" style="fill:none;stroke:#000000;stroke-dasharray:1.000000,3.000000;stroke-dashoffset:0.0;stroke-linecap:butt;stroke-width:0.5;"/>
     </g>
     <g id="line2d_35">
      <defs>
       <path d="
M0 0
L4 0" id="mae439d8382"/>
      </defs>
      <g>
       <use style="stroke:#000000;stroke-linecap:butt;stroke-width:0.5;" x="54.75625" xlink:href="#mae439d8382" y="84.5996924148"/>
      </g>
     </g>
     <g id="text_9">
      <!-- -0.5 -->
      <g transform="translate(7.2 93.3353174148)scale(0.24 -0.24)">
       <use xlink:href="#BitstreamVeraSans-Roman-2d"/>
       <use x="36.083984375" xlink:href="#BitstreamVeraSans-Roman-30"/>
       <use x="99.70703125" xlink:href="#BitstreamVeraSans-Roman-2e"/>
       <use x="131.494140625" xlink:href="#BitstreamVeraSans-Roman-35"/>
      </g>
     </g>
    </g>
    <g id="ytick_6">
     <g id="line2d_36">
      <path d="
M64.7562 16.2769
L557.299 16.2769" style="fill:none;stroke:#000000;stroke-dasharray:1.000000,3.000000;stroke-dashoffset:0.0;stroke-linecap:butt;stroke-width:0.5;"/>
     </g>
     <g id="line2d_37">
      <defs>
       <path d="
M0 0
L4 0" id="mae439d8382"/>
      </defs>
      <g>
       <use style="stroke:#000000;stroke-linecap:butt;stroke-width:0.5;" x="54.75625" xlink:href="#mae439d8382" y="16.276875"/>
      </g>
     </g>
     <g id="text_10">
      <!-- 0 -->
      <g transform="translate(38.6625 25.0125)scale(0.24 -0.24)">
       <use xlink:href="#BitstreamVeraSans-Roman-30"/>
      </g>
     </g>
    </g>
    <g id="ytick_7">
     <g id="line2d_38">
      <defs>
       <path d="
M0 0
L2 0" id="m2bd1bb87f8"/>
      </defs>
      <g>
       <use style="stroke:#000000;stroke-linecap:butt;stroke-width:0.5;" x="54.75625" xlink:href="#m2bd1bb87f8" y="398.884652523"/>
      </g>
     </g>
    </g>
    <g id="ytick_8">
     <g id="line2d_39">
      <defs>
       <path d="
M0 0
L2 0" id="m2bd1bb87f8"/>
      </defs>
      <g>
       <use style="stroke:#000000;stroke-linecap:butt;stroke-width:0.5;" x="54.75625" xlink:href="#m2bd1bb87f8" y="385.22008904"/>
      </g>
     </g>
    </g>
    <g id="ytick_9">
     <g id="line2d_40">
      <defs>
       <path d="
M0 0
L2 0" id="m2bd1bb87f8"/>
      </defs>
      <g>
       <use style="stroke:#000000;stroke-linecap:butt;stroke-width:0.5;" x="54.75625" xlink:href="#m2bd1bb87f8" y="371.555525557"/>
      </g>
     </g>
    </g>
    <g id="ytick_10">
     <g id="line2d_41">
      <defs>
       <path d="
M0 0
L2 0" id="m2bd1bb87f8"/>
      </defs>
      <g>
       <use style="stroke:#000000;stroke-linecap:butt;stroke-width:0.5;" x="54.75625" xlink:href="#m2bd1bb87f8" y="344.226398591"/>
      </g>
     </g>
    </g>
    <g id="ytick_11">
     <g id="line2d_42">
      <defs>
       <path d="
M0 0
L2 0" id="m2bd1bb87f8"/>
      </defs>
      <g>
       <use style="stroke:#000000;stroke-linecap:butt;stroke-width:0.5;" x="54.75625" xlink:href="#m2bd1bb87f8" y="330.561835108"/>
      </g>
     </g>
    </g>
    <g id="ytick_12">
     <g id="line2d_43">
      <defs>
       <path d="
M0 0
L2 0" id="m2bd1bb87f8"/>
      </defs>
      <g>
       <use style="stroke:#000000;stroke-linecap:butt;stroke-width:0.5;" x="54.75625" xlink:href="#m2bd1bb87f8" y="316.897271625"/>
      </g>
     </g>
    </g>
    <g id="ytick_13">
     <g id="line2d_44">
      <defs>
       <path d="
M0 0
L2 0" id="m2bd1bb87f8"/>
      </defs>
      <g>
       <use style="stroke:#000000;stroke-linecap:butt;stroke-width:0.5;" x="54.75625" xlink:href="#m2bd1bb87f8" y="303.232708142"/>
      </g>
     </g>
    </g>
    <g id="ytick_14">
     <g id="line2d_45">
      <defs>
       <path d="
M0 0
L2 0" id="m2bd1bb87f8"/>
      </defs>
      <g>
       <use style="stroke:#000000;stroke-linecap:butt;stroke-width:0.5;" x="54.75625" xlink:href="#m2bd1bb87f8" y="275.903581176"/>
      </g>
     </g>
    </g>
    <g id="ytick_15">
     <g id="line2d_46">
      <defs>
       <path d="
M0 0
L2 0" id="m2bd1bb87f8"/>
      </defs>
      <g>
       <use style="stroke:#000000;stroke-linecap:butt;stroke-width:0.5;" x="54.75625" xlink:href="#m2bd1bb87f8" y="262.239017693"/>
      </g>
     </g>
    </g>
    <g id="ytick_16">
     <g id="line2d_47">
      <defs>
       <path d="
M0 0
L2 0" id="m2bd1bb87f8"/>
      </defs>
      <g>
       <use style="stroke:#000000;stroke-linecap:butt;stroke-width:0.5;" x="54.75625" xlink:href="#m2bd1bb87f8" y="248.57445421"/>
      </g>
     </g>
    </g>
    <g id="ytick_17">
     <g id="line2d_48">
      <defs>
       <path d="
M0 0
L2 0" id="m2bd1bb87f8"/>
      </defs>
      <g>
       <use style="stroke:#000000;stroke-linecap:butt;stroke-width:0.5;" x="54.75625" xlink:href="#m2bd1bb87f8" y="234.909890727"/>
      </g>
     </g>
    </g>
    <g id="ytick_18">
     <g id="line2d_49">
      <defs>
       <path d="
M0 0
L2 0" id="m2bd1bb87f8"/>
      </defs>
      <g>
       <use style="stroke:#000000;stroke-linecap:butt;stroke-width:0.5;" x="54.75625" xlink:href="#m2bd1bb87f8" y="207.580763762"/>
      </g>
     </g>
    </g>
    <g id="ytick_19">
     <g id="line2d_50">
      <defs>
       <path d="
M0 0
L2 0" id="m2bd1bb87f8"/>
      </defs>
      <g>
       <use style="stroke:#000000;stroke-linecap:butt;stroke-width:0.5;" x="54.75625" xlink:href="#m2bd1bb87f8" y="193.916200279"/>
      </g>
     </g>
    </g>
    <g id="ytick_20">
     <g id="line2d_51">
      <defs>
       <path d="
M0 0
L2 0" id="m2bd1bb87f8"/>
      </defs>
      <g>
       <use style="stroke:#000000;stroke-linecap:butt;stroke-width:0.5;" x="54.75625" xlink:href="#m2bd1bb87f8" y="180.251636796"/>
      </g>
     </g>
    </g>
    <g id="ytick_21">
     <g id="line2d_52">
      <defs>
       <path d="
M0 0
L2 0" id="m2bd1bb87f8"/>
      </defs>
      <g>
       <use style="stroke:#000000;stroke-linecap:butt;stroke-width:0.5;" x="54.75625" xlink:href="#m2bd1bb87f8" y="166.587073313"/>
      </g>
     </g>
    </g>
    <g id="ytick_22">
     <g id="line2d_53">
      <defs>
       <path d="
M0 0
L2 0" id="m2bd1bb87f8"/>
      </defs>
      <g>
       <use style="stroke:#000000;stroke-linecap:butt;stroke-width:0.5;" x="54.75625" xlink:href="#m2bd1bb87f8" y="139.257946347"/>
      </g>
     </g>
    </g>
    <g id="ytick_23">
     <g id="line2d_54">
      <defs>
       <path d="
M0 0
L2 0" id="m2bd1bb87f8"/>
      </defs>
      <g>
       <use style="stroke:#000000;stroke-linecap:butt;stroke-width:0.5;" x="54.75625" xlink:href="#m2bd1bb87f8" y="125.593382864"/>
      </g>
     </g>
    </g>
    <g id="ytick_24">
     <g id="line2d_55">
      <defs>
       <path d="
M0 0
L2 0" id="m2bd1bb87f8"/>
      </defs>
      <g>
       <use style="stroke:#000000;stroke-linecap:butt;stroke-width:0.5;" x="54.75625" xlink:href="#m2bd1bb87f8" y="111.928819381"/>
      </g>
     </g>
    </g>
    <g id="ytick_25">
     <g id="line2d_56">
      <defs>
       <path d="
M0 0
L2 0" id="m2bd1bb87f8"/>
      </defs>
      <g>
       <use style="stroke:#000000;stroke-linecap:butt;stroke-width:0.5;" x="54.75625" xlink:href="#m2bd1bb87f8" y="98.2642558978"/>
      </g>
     </g>
    </g>
    <g id="ytick_26">
     <g id="line2d_57">
      <defs>
       <path d="
M0 0
L2 0" id="m2bd1bb87f8"/>
      </defs>
      <g>
       <use style="stroke:#000000;stroke-linecap:butt;stroke-width:0.5;" x="54.75625" xlink:href="#m2bd1bb87f8" y="70.9351289319"/>
      </g>
     </g>
    </g>
    <g id="ytick_27">
     <g id="line2d_58">
      <defs>
       <path d="
M0 0
L2 0" id="m2bd1bb87f8"/>
      </defs>
      <g>
       <use style="stroke:#000000;stroke-linecap:butt;stroke-width:0.5;" x="54.75625" xlink:href="#m2bd1bb87f8" y="57.2705654489"/>
      </g>
     </g>
    </g>
    <g id="ytick_28">
     <g id="line2d_59">
      <defs>
       <path d="
M0 0
L2 0" id="m2bd1bb87f8"/>
      </defs>
      <g>
       <use style="stroke:#000000;stroke-linecap:butt;stroke-width:0.5;" x="54.75625" xlink:href="#m2bd1bb87f8" y="43.6060019659"/>
      </g>
     </g>
    </g>
    <g id="ytick_29">
     <g id="line2d_60">
      <defs>
       <path d="
M0 0
L2 0" id="m2bd1bb87f8"/>
      </defs>
      <g>
       <use style="stroke:#000000;stroke-linecap:butt;stroke-width:0.5;" x="54.75625" xlink:href="#m2bd1bb87f8" y="29.941438483"/>
      </g>
     </g>
    </g>
   </g>
   <g id="patch_3">
    <path d="
M64.7562 16.2769
L557.299 16.2769" style="fill:none;stroke:#000000;stroke-width:0.8;"/>
   </g>
   <g id="patch_4">
    <path d="
M54.7562 412.239
L54.7562 8.51291" style="fill:none;stroke:#000000;stroke-width:0.8;"/>
   </g>
  </g>
 </g>
 <defs>
  <clipPath id="p8d84e77ebc">
   <rect height="403.726153846" width="492.5425" x="64.75625" y="8.51291050296"/>
  </clipPath>
 </defs>
</svg>
