<?xml version="1.0" encoding="utf-8" standalone="no"?>
<!DOCTYPE svg PUBLIC "-//W3C//DTD SVG 1.1//EN"
  "http://www.w3.org/Graphics/SVG/1.1/DTD/svg11.dtd">
<!-- Created with matplotlib (http://matplotlib.sourceforge.net/) -->
<svg height="420pt" version="1.1" viewBox="0 0 562 420" width="562pt" xmlns="http://www.w3.org/2000/svg" xmlns:xlink="http://www.w3.org/1999/xlink">
 <defs>
  <style type="text/css">
*{stroke-linecap:square;stroke-linejoin:round;}
  </style>
 </defs>
 <g id="figure_1">
  <g id="patch_1">
   <path d="
M2.22045e-16 420.48
L562.746 420.48
L562.746 0
L2.22045e-16 0
z
" style="fill:#ffffff;"/>
  </g>
  <g id="axes_1">
   <g id="patch_2">
    <path d="
M19.0308 413.28
L555.546 413.28
L555.546 7.2
L19.0308 7.2
z
" style="fill:#ffffff;"/>
   </g>
   <g id="line2d_1">
    <path clip-path="url(#pe376afc05f)" d="
M29.3484 15.0092
L29.4035 15.0092
L29.4035 405.471
L29.4665 397.392
L29.5325 397.392
L29.6006 389.801
L29.67 389.801
L29.7408 383.603
L29.812 383.603
L29.8845 379.073
L29.9574 379.073
L30.0312 376.658
L30.1054 376.658
L30.1804 375.561
L30.2556 375.561
L30.3312 373.845
L30.4072 373.845
L30.4838 373.017
L30.5608 373.017
L30.638 371.427
L30.7152 371.427
L30.7931 370.326
L30.8711 370.326
L30.9495 368.804
L31.0276 368.804
L31.1065 366.967
L31.1863 366.967
L31.2651 365.906
L31.3445 365.906
L31.4244 364.908
L31.5043 364.908
L31.5846 363.747
L31.6643 363.747
L31.7452 363.38
L31.9062 363.402
L31.9872 362.966
L32.0682 362.966
L32.1495 362.406
L32.2312 362.406
L32.3131 361.857
L32.3949 361.857
L32.4768 360.997
L32.559 360.997
L32.6409 360.212
L32.7235 360.212
L32.8059 359.696
L32.888 359.696
L32.9703 359.379
L33.3024 359.469
L33.3858 359.91
L33.4688 359.91
L33.5529 360.061
L33.6361 360.061
L33.7202 359.915
L33.8867 359.872
L33.971 359.6
L34.0555 359.6
L34.1392 359.031
L34.2236 359.031
L34.308 358.563
L34.3924 358.563
L34.4771 358.181
L34.562 358.181
L34.6466 357.881
L34.7314 357.881
L34.816 357.517
L34.9006 357.517
L34.9856 357.113
L35.0706 357.113
L35.1556 356.565
L35.2413 356.565
L35.3263 356.057
L35.4115 356.057
L35.497 355.566
L35.5825 355.566
L35.6683 355.289
L35.7533 355.289
L35.8395 354.995
L35.9248 354.995
L36.0108 354.548
L36.0974 354.548
L36.1834 354.206
L36.2696 354.206
L36.3564 353.795
L36.4421 353.795
L36.5278 353.395
L36.6147 353.395
L36.7012 353.081
L36.787 353.081
L36.8737 352.811
L36.9605 352.811
L37.0472 352.542
L37.1341 352.542
L37.2209 352.285
L37.3082 352.285
L37.3944 352.065
L37.5682 351.955
L37.6555 351.729
L37.8299 351.633
L37.9172 351.47
L38.0043 351.47
L38.0915 351.242
L38.2664 351.143
L38.3531 351.009
L38.528 350.949
L38.6154 350.779
L38.7036 350.779
L38.791 350.508
L38.8791 350.508
L38.9669 350.249
L39.0548 350.249
L39.1427 350
L39.3188 349.896
L39.4068 349.67
L39.4954 349.67
L39.5831 349.43
L39.759 349.337
L39.848 349.174
L40.1129 349.063
L40.2013 349.009
L41.6226 348.906
L41.6226 348.897
L41.7119 348.897
L41.7119 348.897
L41.8011 348.908
L42.7842 349.003
L42.874 349.052
L43.2324 348.948
L43.3219 348.874
L43.6813 348.788
L43.7714 348.71
L44.0415 348.622
L44.131 348.496
L44.4024 348.389
L44.4923 348.288
L44.7632 348.202
L44.8527 348.125
L45.1235 348.019
L45.2134 347.926
L45.3953 347.872
L45.4859 347.733
L45.758 347.634
L45.8484 347.52
L46.1203 347.433
L46.211 347.319
L46.3926 347.247
L46.4835 347.097
L46.6647 347.019
L46.756 346.893
L47.0301 346.791
L47.122 346.69
L47.395 346.585
L47.4866 346.469
L47.6689 346.41
L47.76 346.305
L48.0343 346.203
L48.125 346.115
L48.4004 346.006
L48.491 345.888
L48.6743 345.828
L48.7654 345.718
L49.04 345.621
L49.1309 345.538
L49.4973 345.434
L49.5886 345.332
L49.7714 345.273
L49.8628 345.145
L50.1387 345.051
L50.2304 344.957
L50.4139 344.904
L50.5065 344.789
L50.7827 344.719
L50.8754 344.633
L51.1517 344.544
L51.2437 344.489
L51.7057 344.384
L51.7974 344.325
L52.1675 344.237
L52.2599 344.185
L52.6286 344.091
L52.7209 344.026
L53.1828 343.934
L53.2757 343.883
L53.6465 343.805
L53.7387 343.737
L54.2036 343.629
L54.2966 343.568
L54.669 343.471
L54.7615 343.432
L55.3182 343.325
L55.4115 343.291
L56.0633 343.184
L56.156 343.141
L56.5295 343.038
L56.6227 342.982
L56.9968 342.898
L57.0899 342.83
L57.4649 342.742
L57.5575 342.667
L57.8385 342.592
L57.9321 342.495
L58.2128 342.402
L58.3057 342.322
L58.5868 342.243
L58.6798 342.164
L59.0543 342.061
L59.1487 341.999
L59.6179 341.907
L59.711 341.858
L60.4636 341.754
L60.5571 341.731
L61.1225 341.639
L61.2166 341.597
L61.5929 341.507
L61.6877 341.444
L61.9699 341.371
L62.0641 341.289
L62.4401 341.191
L62.5346 341.118
L63.0079 341.009
L63.1023 340.949
L63.4799 340.846
L63.5731 340.779
L63.9513 340.676
L64.0457 340.611
L64.518 340.5
L64.6126 340.441
L65.0876 340.334
L65.1812 340.288
L65.6549 340.178
L65.749 340.132
L66.2237 340.027
L66.3182 339.969
L66.6975 339.873
L66.7924 339.791
L67.0775 339.712
L67.1728 339.64
L67.553 339.536
L67.6485 339.473
L68.0293 339.379
L68.1246 339.319
L68.5037 339.231
L68.5988 339.163
L68.9815 339.053
L69.0763 338.989
L69.458 338.902
L69.5529 338.851
L70.031 338.755
L70.1264 338.689
L70.5082 338.592
L70.6034 338.531
L71.0807 338.433
L71.1754 338.382
L71.7483 338.273
L71.8447 338.231
L72.419 338.12
L72.5149 338.063
L72.8978 337.976
L72.9934 337.916
L73.3774 337.824
L73.4725 337.767
L73.9522 337.671
L74.0476 337.629
L74.6245 337.527
L74.7201 337.488
L75.5839 337.387
L75.6815 337.362
L76.3533 337.269
L76.4485 337.236
L77.6045 337.137
L77.7016 337.107
L78.4706 336.998
L78.5671 336.972
L79.2416 336.872
L79.3386 336.832
L80.11 336.722
L80.2064 336.709
L83.98 336.6
L84.0768 336.596
L89.4225 336.702
L89.52 336.711
L94.404 336.603
L94.5016 336.593
L98.226 336.7
L98.3249 336.714
L105.41 336.607
L105.509 336.597
L107.883 336.487
L107.982 336.469
L109.662 336.36
L109.761 336.351
L111.544 336.246
L111.643 336.229
L112.634 336.123
L112.733 336.098
L113.626 335.987
L113.725 335.959
L114.319 335.867
L114.419 335.827
L115.016 335.721
L115.115 335.675
L115.611 335.584
L115.711 335.543
L116.307 335.441
L116.406 335.397
L116.902 335.298
L117.001 335.253
L117.598 335.145
L117.696 335.102
L118.293 334.993
L118.392 334.946
L118.889 334.852
L118.989 334.803
L119.488 334.708
L119.587 334.66
L120.184 334.556
L120.284 334.514
L120.781 334.423
L120.881 334.378
L121.479 334.275
L121.579 334.229
L122.175 334.127
L122.275 334.083
L122.875 333.981
L122.975 333.938
L123.575 333.831
L123.676 333.792
L124.275 333.697
L124.375 333.659
L125.071 333.551
L125.172 333.517
L125.97 333.408
L126.07 333.381
L126.871 333.279
L126.97 333.25
L127.771 333.148
L127.872 333.116
L128.574 333.014
L128.674 332.977
L129.473 332.87
L129.573 332.841
L130.374 332.742
L130.473 332.712
L131.278 332.603
L131.379 332.569
L132.081 332.464
L132.181 332.426
L132.882 332.324
L132.982 332.292
L133.785 332.189
L133.886 332.163
L135.089 332.053
L135.191 332.033
L136.094 331.925
L136.195 331.896
L136.999 331.797
L137.099 331.772
L138.003 331.671
L138.104 331.649
L139.614 331.543
L139.715 331.526
L140.821 331.423
L140.921 331.403
L142.03 331.295
L142.131 331.274
L143.443 331.171
L143.543 331.155
L144.75 331.045
L144.852 331.026
L146.164 330.915
L146.265 330.899
L153.946 330.789
L154.048 330.779
L155.77 330.673
L155.871 330.663
L158.407 330.556
L158.508 330.546
L162.773 330.436
L162.874 330.433
L166.636 330.323
L166.737 330.318
L170.713 330.21
L170.815 330.203
L175.711 330.093
L175.812 330.082
L179.29 329.971
L179.392 329.966
L182.562 329.858
L182.665 329.85
L185.531 329.743
L185.634 329.733
L187.786 329.627
L187.888 329.617
L190.452 329.507
L190.553 329.5
L194.15 329.391
L194.253 329.385
L196.309 329.279
L196.411 329.263
L197.953 329.155
L198.056 329.139
L199.909 329.033
L200.013 329.02
L201.866 328.911
L201.969 328.897
L203.617 328.792
L203.72 328.78
L205.985 328.67
L206.089 328.659
L207.945 328.552
L208.047 328.541
L213.52 328.432
L213.624 328.427
L218.381 328.317
L218.483 328.309
L220.764 328.199
L220.867 328.187
L223.246 328.078
L223.349 328.067
L225.935 327.961
L226.039 327.951
L228.737 327.843
L228.841 327.832
L232.162 327.722
L232.266 327.712
L238.293 327.603
L238.397 327.597
L277.246 327.487
L277.351 327.48
L280.709 327.37
L280.814 327.366
L287.009 327.255
L287.114 327.25
L291.009 327.14
L291.114 327.135
L295.539 327.025
L295.644 327.02
L299.537 326.911
L299.642 326.905
L303.118 326.796
L303.224 326.788
L308.179 326.679
L308.283 326.675
L313.034 326.564
L313.14 326.559
L317.891 326.45
L317.997 326.445
L324.764 326.334
L324.871 326.332
L339.06 326.221
L339.166 326.216
L345.847 326.108
L345.954 326.101
L349.993 325.992
L350.1 325.986
L353.391 325.877
L353.497 325.868
L357.433 325.759
L357.54 325.753
L361.156 325.644
L361.263 325.636
L364.987 325.528
L365.093 325.522
L369.354 325.413
L369.46 325.409
L379.697 325.298
L379.804 325.296
L387.382 325.186
L387.488 325.181
L393.47 325.071
L393.577 325.068
L400.317 324.958
L400.424 324.951
L404.168 324.84
L404.276 324.834
L408.348 324.724
L408.455 324.72
L412.952 324.61
L413.059 324.606
L418.962 324.497
L419.068 324.492
L424.651 324.382
L424.759 324.378
L432.809 324.268
L432.917 324.265
L444.093 324.155
L444.201 324.153
L453.345 324.043
L453.453 324.039
L458.41 323.928
L458.518 323.923
L468.003 323.812
L468.111 323.809
L481.825 323.699
L481.934 323.697
L489.287 323.587
L489.396 323.582
L494.912 323.472
L495.021 323.468
L499.129 323.36
L499.236 323.354
L503.78 323.245
L503.888 323.239
L508.006 323.129
L508.114 323.123
L512.665 323.012
L512.774 323.008
L517.763 322.898
L517.873 322.894
L524.16 322.783
L524.268 322.78
L530.452 322.67
L530.561 322.665
L535.235 322.556
L535.344 322.551
L539.686 322.44
L539.795 322.433
L543.489 322.322
L543.598 322.316
L545.228 322.27
L545.228 322.267" style="fill:none;stroke:#ff0000;stroke-width:0.5;"/>
   </g>
   <g id="matplotlib.axis_1">
    <g id="xtick_1">
     <g id="line2d_2">
      <path d="
M29.3484 413.28
L29.3484 7.2" style="fill:none;stroke:#000000;stroke-dasharray:1.000000,3.000000;stroke-dashoffset:0.0;stroke-linecap:butt;stroke-width:0.5;"/>
     </g>
     <g id="line2d_3">
      <defs>
       <path d="
M0 0
L0 -4" id="md3daafd679"/>
      </defs>
      <g>
       <use style="stroke:#000000;stroke-linecap:butt;stroke-width:0.5;" x="29.3484375" xlink:href="#md3daafd679" y="15.0092307692"/>
      </g>
     </g>
    </g>
    <g id="xtick_2">
     <g id="line2d_4">
      <path d="
M132.53 413.28
L132.53 7.2" style="fill:none;stroke:#000000;stroke-dasharray:1.000000,3.000000;stroke-dashoffset:0.0;stroke-linecap:butt;stroke-width:0.5;"/>
     </g>
     <g id="line2d_5">
      <defs>
       <path d="
M0 0
L0 -4" id="md3daafd679"/>
      </defs>
      <g>
       <use style="stroke:#000000;stroke-linecap:butt;stroke-width:0.5;" x="132.529818811" xlink:href="#md3daafd679" y="15.0092307692"/>
      </g>
     </g>
     <g id="text_1">
      <!-- 2e8 -->
      <defs>
       <path d="
M19.1875 8.29688
L53.6094 8.29688
L53.6094 0
L7.32812 0
L7.32812 8.29688
Q12.9375 14.1094 22.625 23.8906
Q32.3281 33.6875 34.8125 36.5312
Q39.5469 41.8438 41.4219 45.5312
Q43.3125 49.2188 43.3125 52.7812
Q43.3125 58.5938 39.2344 62.25
Q35.1562 65.9219 28.6094 65.9219
Q23.9688 65.9219 18.8125 64.3125
Q13.6719 62.7031 7.8125 59.4219
L7.8125 69.3906
Q13.7656 71.7812 18.9375 73
Q24.125 74.2188 28.4219 74.2188
Q39.75 74.2188 46.4844 68.5469
Q53.2188 62.8906 53.2188 53.4219
Q53.2188 48.9219 51.5312 44.8906
Q49.8594 40.875 45.4062 35.4062
Q44.1875 33.9844 37.6406 27.2188
Q31.1094 20.4531 19.1875 8.29688" id="BitstreamVeraSans-Roman-32"/>
       <path d="
M56.2031 29.5938
L56.2031 25.2031
L14.8906 25.2031
Q15.4844 15.9219 20.4844 11.0625
Q25.4844 6.20312 34.4219 6.20312
Q39.5938 6.20312 44.4531 7.46875
Q49.3125 8.73438 54.1094 11.2812
L54.1094 2.78125
Q49.2656 0.734375 44.1875 -0.34375
Q39.1094 -1.42188 33.8906 -1.42188
Q20.7969 -1.42188 13.1562 6.1875
Q5.51562 13.8125 5.51562 26.8125
Q5.51562 40.2344 12.7656 48.1094
Q20.0156 56 32.3281 56
Q43.3594 56 49.7812 48.8906
Q56.2031 41.7969 56.2031 29.5938
M47.2188 32.2344
Q47.125 39.5938 43.0938 43.9844
Q39.0625 48.3906 32.4219 48.3906
Q24.9062 48.3906 20.3906 44.1406
Q15.875 39.8906 15.1875 32.1719
z
" id="BitstreamVeraSans-Roman-65"/>
       <path d="
M31.7812 34.625
Q24.75 34.625 20.7188 30.8594
Q16.7031 27.0938 16.7031 20.5156
Q16.7031 13.9219 20.7188 10.1562
Q24.75 6.39062 31.7812 6.39062
Q38.8125 6.39062 42.8594 10.1719
Q46.9219 13.9688 46.9219 20.5156
Q46.9219 27.0938 42.8906 30.8594
Q38.875 34.625 31.7812 34.625
M21.9219 38.8125
Q15.5781 40.375 12.0312 44.7188
Q8.5 49.0781 8.5 55.3281
Q8.5 64.0625 14.7188 69.1406
Q20.9531 74.2188 31.7812 74.2188
Q42.6719 74.2188 48.875 69.1406
Q55.0781 64.0625 55.0781 55.3281
Q55.0781 49.0781 51.5312 44.7188
Q48 40.375 41.7031 38.8125
Q48.8281 37.1562 52.7969 32.3125
Q56.7812 27.4844 56.7812 20.5156
Q56.7812 9.90625 50.3125 4.23438
Q43.8438 -1.42188 31.7812 -1.42188
Q19.7344 -1.42188 13.25 4.23438
Q6.78125 9.90625 6.78125 20.5156
Q6.78125 27.4844 10.7812 32.3125
Q14.7969 37.1562 21.9219 38.8125
M18.3125 54.3906
Q18.3125 48.7344 21.8438 45.5625
Q25.3906 42.3906 31.7812 42.3906
Q38.1406 42.3906 41.7188 45.5625
Q45.3125 48.7344 45.3125 54.3906
Q45.3125 60.0625 41.7188 63.2344
Q38.1406 66.4062 31.7812 66.4062
Q25.3906 66.4062 21.8438 63.2344
Q18.3125 60.0625 18.3125 54.3906" id="BitstreamVeraSans-Roman-38"/>
      </defs>
      <g transform="translate(123.799350061 26.4311057692)scale(0.1 -0.1)">
       <use xlink:href="#BitstreamVeraSans-Roman-32"/>
       <use x="63.623046875" xlink:href="#BitstreamVeraSans-Roman-65"/>
       <use x="125.146484375" xlink:href="#BitstreamVeraSans-Roman-38"/>
      </g>
     </g>
    </g>
    <g id="xtick_3">
     <g id="line2d_6">
      <path d="
M235.711 413.28
L235.711 7.2" style="fill:none;stroke:#000000;stroke-dasharray:1.000000,3.000000;stroke-dashoffset:0.0;stroke-linecap:butt;stroke-width:0.5;"/>
     </g>
     <g id="line2d_7">
      <defs>
       <path d="
M0 0
L0 -4" id="md3daafd679"/>
      </defs>
      <g>
       <use style="stroke:#000000;stroke-linecap:butt;stroke-width:0.5;" x="235.711200122" xlink:href="#md3daafd679" y="15.0092307692"/>
      </g>
     </g>
     <g id="text_2">
      <!-- 4e8 -->
      <defs>
       <path d="
M37.7969 64.3125
L12.8906 25.3906
L37.7969 25.3906
z

M35.2031 72.9062
L47.6094 72.9062
L47.6094 25.3906
L58.0156 25.3906
L58.0156 17.1875
L47.6094 17.1875
L47.6094 0
L37.7969 0
L37.7969 17.1875
L4.89062 17.1875
L4.89062 26.7031
z
" id="BitstreamVeraSans-Roman-34"/>
      </defs>
      <g transform="translate(226.858856372 26.4311057692)scale(0.1 -0.1)">
       <use xlink:href="#BitstreamVeraSans-Roman-34"/>
       <use x="63.623046875" xlink:href="#BitstreamVeraSans-Roman-65"/>
       <use x="125.146484375" xlink:href="#BitstreamVeraSans-Roman-38"/>
      </g>
     </g>
    </g>
    <g id="xtick_4">
     <g id="line2d_8">
      <path d="
M338.893 413.28
L338.893 7.2" style="fill:none;stroke:#000000;stroke-dasharray:1.000000,3.000000;stroke-dashoffset:0.0;stroke-linecap:butt;stroke-width:0.5;"/>
     </g>
     <g id="line2d_9">
      <defs>
       <path d="
M0 0
L0 -4" id="md3daafd679"/>
      </defs>
      <g>
       <use style="stroke:#000000;stroke-linecap:butt;stroke-width:0.5;" x="338.892581433" xlink:href="#md3daafd679" y="15.0092307692"/>
      </g>
     </g>
     <g id="text_3">
      <!-- 6e8 -->
      <defs>
       <path d="
M33.0156 40.375
Q26.375 40.375 22.4844 35.8281
Q18.6094 31.2969 18.6094 23.3906
Q18.6094 15.5312 22.4844 10.9531
Q26.375 6.39062 33.0156 6.39062
Q39.6562 6.39062 43.5312 10.9531
Q47.4062 15.5312 47.4062 23.3906
Q47.4062 31.2969 43.5312 35.8281
Q39.6562 40.375 33.0156 40.375
M52.5938 71.2969
L52.5938 62.3125
Q48.875 64.0625 45.0938 64.9844
Q41.3125 65.9219 37.5938 65.9219
Q27.8281 65.9219 22.6719 59.3281
Q17.5312 52.7344 16.7969 39.4062
Q19.6719 43.6562 24.0156 45.9219
Q28.375 48.1875 33.5938 48.1875
Q44.5781 48.1875 50.9531 41.5156
Q57.3281 34.8594 57.3281 23.3906
Q57.3281 12.1562 50.6875 5.35938
Q44.0469 -1.42188 33.0156 -1.42188
Q20.3594 -1.42188 13.6719 8.26562
Q6.98438 17.9688 6.98438 36.375
Q6.98438 53.6562 15.1875 63.9375
Q23.3906 74.2188 37.2031 74.2188
Q40.9219 74.2188 44.7031 73.4844
Q48.4844 72.75 52.5938 71.2969" id="BitstreamVeraSans-Roman-36"/>
      </defs>
      <g transform="translate(330.144925183 26.4311057692)scale(0.1 -0.1)">
       <use xlink:href="#BitstreamVeraSans-Roman-36"/>
       <use x="63.623046875" xlink:href="#BitstreamVeraSans-Roman-65"/>
       <use x="125.146484375" xlink:href="#BitstreamVeraSans-Roman-38"/>
      </g>
     </g>
    </g>
    <g id="xtick_5">
     <g id="line2d_10">
      <path d="
M442.074 413.28
L442.074 7.2" style="fill:none;stroke:#000000;stroke-dasharray:1.000000,3.000000;stroke-dashoffset:0.0;stroke-linecap:butt;stroke-width:0.5;"/>
     </g>
     <g id="line2d_11">
      <defs>
       <path d="
M0 0
L0 -4" id="md3daafd679"/>
      </defs>
      <g>
       <use style="stroke:#000000;stroke-linecap:butt;stroke-width:0.5;" x="442.073962744" xlink:href="#md3daafd679" y="15.0092307692"/>
      </g>
     </g>
     <g id="text_4">
      <!-- 8e8 -->
      <g transform="translate(433.316150244 26.4311057692)scale(0.1 -0.1)">
       <use xlink:href="#BitstreamVeraSans-Roman-38"/>
       <use x="63.623046875" xlink:href="#BitstreamVeraSans-Roman-65"/>
       <use x="125.146484375" xlink:href="#BitstreamVeraSans-Roman-38"/>
      </g>
     </g>
    </g>
    <g id="xtick_6">
     <g id="line2d_12">
      <path d="
M545.255 413.28
L545.255 7.2" style="fill:none;stroke:#000000;stroke-dasharray:1.000000,3.000000;stroke-dashoffset:0.0;stroke-linecap:butt;stroke-width:0.5;"/>
     </g>
     <g id="line2d_13">
      <defs>
       <path d="
M0 0
L0 -4" id="md3daafd679"/>
      </defs>
      <g>
       <use style="stroke:#000000;stroke-linecap:butt;stroke-width:0.5;" x="545.255344055" xlink:href="#md3daafd679" y="15.0092307692"/>
      </g>
     </g>
     <g id="text_5">
      <!-- 1e9 -->
      <defs>
       <path d="
M10.9844 1.51562
L10.9844 10.5
Q14.7031 8.73438 18.5 7.8125
Q22.3125 6.89062 25.9844 6.89062
Q35.75 6.89062 40.8906 13.4531
Q46.0469 20.0156 46.7812 33.4062
Q43.9531 29.2031 39.5938 26.9531
Q35.25 24.7031 29.9844 24.7031
Q19.0469 24.7031 12.6719 31.3125
Q6.29688 37.9375 6.29688 49.4219
Q6.29688 60.6406 12.9375 67.4219
Q19.5781 74.2188 30.6094 74.2188
Q43.2656 74.2188 49.9219 64.5156
Q56.5938 54.8281 56.5938 36.375
Q56.5938 19.1406 48.4062 8.85938
Q40.2344 -1.42188 26.4219 -1.42188
Q22.7031 -1.42188 18.8906 -0.6875
Q15.0938 0.046875 10.9844 1.51562
M30.6094 32.4219
Q37.25 32.4219 41.125 36.9531
Q45.0156 41.5 45.0156 49.4219
Q45.0156 57.2812 41.125 61.8438
Q37.25 66.4062 30.6094 66.4062
Q23.9688 66.4062 20.0938 61.8438
Q16.2188 57.2812 16.2188 49.4219
Q16.2188 41.5 20.0938 36.9531
Q23.9688 32.4219 30.6094 32.4219" id="BitstreamVeraSans-Roman-39"/>
       <path d="
M12.4062 8.29688
L28.5156 8.29688
L28.5156 63.9219
L10.9844 60.4062
L10.9844 69.3906
L28.4219 72.9062
L38.2812 72.9062
L38.2812 8.29688
L54.3906 8.29688
L54.3906 0
L12.4062 0
z
" id="BitstreamVeraSans-Roman-31"/>
      </defs>
      <g transform="translate(536.717062805 26.4311057692)scale(0.1 -0.1)">
       <use xlink:href="#BitstreamVeraSans-Roman-31"/>
       <use x="63.623046875" xlink:href="#BitstreamVeraSans-Roman-65"/>
       <use x="125.146484375" xlink:href="#BitstreamVeraSans-Roman-39"/>
      </g>
     </g>
    </g>
    <g id="xtick_7">
     <g id="line2d_14">
      <defs>
       <path d="
M0 0
L0 -2" id="m2270c5f7f9"/>
      </defs>
      <g>
       <use style="stroke:#000000;stroke-linecap:butt;stroke-width:0.5;" x="55.1437828278" xlink:href="#m2270c5f7f9" y="15.0092307692"/>
      </g>
     </g>
    </g>
    <g id="xtick_8">
     <g id="line2d_15">
      <defs>
       <path d="
M0 0
L0 -2" id="m2270c5f7f9"/>
      </defs>
      <g>
       <use style="stroke:#000000;stroke-linecap:butt;stroke-width:0.5;" x="80.9391281555" xlink:href="#m2270c5f7f9" y="15.0092307692"/>
      </g>
     </g>
    </g>
    <g id="xtick_9">
     <g id="line2d_16">
      <defs>
       <path d="
M0 0
L0 -2" id="m2270c5f7f9"/>
      </defs>
      <g>
       <use style="stroke:#000000;stroke-linecap:butt;stroke-width:0.5;" x="106.734473483" xlink:href="#m2270c5f7f9" y="15.0092307692"/>
      </g>
     </g>
    </g>
    <g id="xtick_10">
     <g id="line2d_17">
      <defs>
       <path d="
M0 0
L0 -2" id="m2270c5f7f9"/>
      </defs>
      <g>
       <use style="stroke:#000000;stroke-linecap:butt;stroke-width:0.5;" x="158.325164139" xlink:href="#m2270c5f7f9" y="15.0092307692"/>
      </g>
     </g>
    </g>
    <g id="xtick_11">
     <g id="line2d_18">
      <defs>
       <path d="
M0 0
L0 -2" id="m2270c5f7f9"/>
      </defs>
      <g>
       <use style="stroke:#000000;stroke-linecap:butt;stroke-width:0.5;" x="184.120509467" xlink:href="#m2270c5f7f9" y="15.0092307692"/>
      </g>
     </g>
    </g>
    <g id="xtick_12">
     <g id="line2d_19">
      <defs>
       <path d="
M0 0
L0 -2" id="m2270c5f7f9"/>
      </defs>
      <g>
       <use style="stroke:#000000;stroke-linecap:butt;stroke-width:0.5;" x="209.915854794" xlink:href="#m2270c5f7f9" y="15.0092307692"/>
      </g>
     </g>
    </g>
    <g id="xtick_13">
     <g id="line2d_20">
      <defs>
       <path d="
M0 0
L0 -2" id="m2270c5f7f9"/>
      </defs>
      <g>
       <use style="stroke:#000000;stroke-linecap:butt;stroke-width:0.5;" x="261.50654545" xlink:href="#m2270c5f7f9" y="15.0092307692"/>
      </g>
     </g>
    </g>
    <g id="xtick_14">
     <g id="line2d_21">
      <defs>
       <path d="
M0 0
L0 -2" id="m2270c5f7f9"/>
      </defs>
      <g>
       <use style="stroke:#000000;stroke-linecap:butt;stroke-width:0.5;" x="287.301890778" xlink:href="#m2270c5f7f9" y="15.0092307692"/>
      </g>
     </g>
    </g>
    <g id="xtick_15">
     <g id="line2d_22">
      <defs>
       <path d="
M0 0
L0 -2" id="m2270c5f7f9"/>
      </defs>
      <g>
       <use style="stroke:#000000;stroke-linecap:butt;stroke-width:0.5;" x="313.097236105" xlink:href="#m2270c5f7f9" y="15.0092307692"/>
      </g>
     </g>
    </g>
    <g id="xtick_16">
     <g id="line2d_23">
      <defs>
       <path d="
M0 0
L0 -2" id="m2270c5f7f9"/>
      </defs>
      <g>
       <use style="stroke:#000000;stroke-linecap:butt;stroke-width:0.5;" x="364.687926761" xlink:href="#m2270c5f7f9" y="15.0092307692"/>
      </g>
     </g>
    </g>
    <g id="xtick_17">
     <g id="line2d_24">
      <defs>
       <path d="
M0 0
L0 -2" id="m2270c5f7f9"/>
      </defs>
      <g>
       <use style="stroke:#000000;stroke-linecap:butt;stroke-width:0.5;" x="390.483272089" xlink:href="#m2270c5f7f9" y="15.0092307692"/>
      </g>
     </g>
    </g>
    <g id="xtick_18">
     <g id="line2d_25">
      <defs>
       <path d="
M0 0
L0 -2" id="m2270c5f7f9"/>
      </defs>
      <g>
       <use style="stroke:#000000;stroke-linecap:butt;stroke-width:0.5;" x="416.278617417" xlink:href="#m2270c5f7f9" y="15.0092307692"/>
      </g>
     </g>
    </g>
    <g id="xtick_19">
     <g id="line2d_26">
      <defs>
       <path d="
M0 0
L0 -2" id="m2270c5f7f9"/>
      </defs>
      <g>
       <use style="stroke:#000000;stroke-linecap:butt;stroke-width:0.5;" x="467.869308072" xlink:href="#m2270c5f7f9" y="15.0092307692"/>
      </g>
     </g>
    </g>
    <g id="xtick_20">
     <g id="line2d_27">
      <defs>
       <path d="
M0 0
L0 -2" id="m2270c5f7f9"/>
      </defs>
      <g>
       <use style="stroke:#000000;stroke-linecap:butt;stroke-width:0.5;" x="493.6646534" xlink:href="#m2270c5f7f9" y="15.0092307692"/>
      </g>
     </g>
    </g>
    <g id="xtick_21">
     <g id="line2d_28">
      <defs>
       <path d="
M0 0
L0 -2" id="m2270c5f7f9"/>
      </defs>
      <g>
       <use style="stroke:#000000;stroke-linecap:butt;stroke-width:0.5;" x="519.459998728" xlink:href="#m2270c5f7f9" y="15.0092307692"/>
      </g>
     </g>
    </g>
   </g>
   <g id="matplotlib.axis_2">
    <g id="ytick_1">
     <g id="line2d_29">
      <path d="
M19.0308 337.423
L555.546 337.423" style="fill:none;stroke:#000000;stroke-dasharray:1.000000,3.000000;stroke-dashoffset:0.0;stroke-linecap:butt;stroke-width:0.5;"/>
     </g>
     <g id="line2d_30">
      <defs>
       <path d="
M0 0
L4 0" id="m6ea869be91"/>
      </defs>
      <g>
       <use style="stroke:#000000;stroke-linecap:butt;stroke-width:0.5;" x="29.3484375" xlink:href="#m6ea869be91" y="337.422553779"/>
      </g>
     </g>
     <g id="text_6">
      <!-- -2 -->
      <defs>
       <path d="
M4.89062 31.3906
L31.2031 31.3906
L31.2031 23.3906
L4.89062 23.3906
z
" id="BitstreamVeraSans-Roman-2d"/>
      </defs>
      <g transform="translate(16.86875 341.133491279)scale(0.1 -0.1)">
       <use xlink:href="#BitstreamVeraSans-Roman-2d"/>
       <use x="36.083984375" xlink:href="#BitstreamVeraSans-Roman-32"/>
      </g>
     </g>
    </g>
    <g id="ytick_2">
     <g id="line2d_31">
      <path d="
M19.0308 256.819
L555.546 256.819" style="fill:none;stroke:#000000;stroke-dasharray:1.000000,3.000000;stroke-dashoffset:0.0;stroke-linecap:butt;stroke-width:0.5;"/>
     </g>
     <g id="line2d_32">
      <defs>
       <path d="
M0 0
L4 0" id="m6ea869be91"/>
      </defs>
      <g>
       <use style="stroke:#000000;stroke-linecap:butt;stroke-width:0.5;" x="29.3484375" xlink:href="#m6ea869be91" y="256.819223027"/>
      </g>
     </g>
     <g id="text_7">
      <!-- -1.5 -->
      <defs>
       <path d="
M10.6875 12.4062
L21 12.4062
L21 0
L10.6875 0
z
" id="BitstreamVeraSans-Roman-2e"/>
       <path d="
M10.7969 72.9062
L49.5156 72.9062
L49.5156 64.5938
L19.8281 64.5938
L19.8281 46.7344
Q21.9688 47.4688 24.1094 47.8281
Q26.2656 48.1875 28.4219 48.1875
Q40.625 48.1875 47.75 41.5
Q54.8906 34.8125 54.8906 23.3906
Q54.8906 11.625 47.5625 5.09375
Q40.2344 -1.42188 26.9062 -1.42188
Q22.3125 -1.42188 17.5469 -0.640625
Q12.7969 0.140625 7.71875 1.70312
L7.71875 11.625
Q12.1094 9.23438 16.7969 8.0625
Q21.4844 6.89062 26.7031 6.89062
Q35.1562 6.89062 40.0781 11.3281
Q45.0156 15.7656 45.0156 23.3906
Q45.0156 31 40.0781 35.4375
Q35.1562 39.8906 26.7031 39.8906
Q22.75 39.8906 18.8125 39.0156
Q14.8906 38.1406 10.7969 36.2812
z
" id="BitstreamVeraSans-Roman-35"/>
      </defs>
      <g transform="translate(7.2 260.393441777)scale(0.1 -0.1)">
       <use xlink:href="#BitstreamVeraSans-Roman-2d"/>
       <use x="36.083984375" xlink:href="#BitstreamVeraSans-Roman-31"/>
       <use x="99.70703125" xlink:href="#BitstreamVeraSans-Roman-2e"/>
       <use x="131.494140625" xlink:href="#BitstreamVeraSans-Roman-35"/>
      </g>
     </g>
    </g>
    <g id="ytick_3">
     <g id="line2d_33">
      <path d="
M19.0308 176.216
L555.546 176.216" style="fill:none;stroke:#000000;stroke-dasharray:1.000000,3.000000;stroke-dashoffset:0.0;stroke-linecap:butt;stroke-width:0.5;"/>
     </g>
     <g id="line2d_34">
      <defs>
       <path d="
M0 0
L4 0" id="m6ea869be91"/>
      </defs>
      <g>
       <use style="stroke:#000000;stroke-linecap:butt;stroke-width:0.5;" x="29.3484375" xlink:href="#m6ea869be91" y="176.215892274"/>
      </g>
     </g>
     <g id="text_8">
      <!-- -1 -->
      <g transform="translate(16.790625 179.861204774)scale(0.1 -0.1)">
       <use xlink:href="#BitstreamVeraSans-Roman-2d"/>
       <use x="36.083984375" xlink:href="#BitstreamVeraSans-Roman-31"/>
      </g>
     </g>
    </g>
    <g id="ytick_4">
     <g id="line2d_35">
      <path d="
M19.0308 95.6126
L555.546 95.6126" style="fill:none;stroke:#000000;stroke-dasharray:1.000000,3.000000;stroke-dashoffset:0.0;stroke-linecap:butt;stroke-width:0.5;"/>
     </g>
     <g id="line2d_36">
      <defs>
       <path d="
M0 0
L4 0" id="m6ea869be91"/>
      </defs>
      <g>
       <use style="stroke:#000000;stroke-linecap:butt;stroke-width:0.5;" x="29.3484375" xlink:href="#m6ea869be91" y="95.6125615217"/>
      </g>
     </g>
     <g id="text_9">
      <!-- -0.5 -->
      <defs>
       <path d="
M31.7812 66.4062
Q24.1719 66.4062 20.3281 58.9062
Q16.5 51.4219 16.5 36.375
Q16.5 21.3906 20.3281 13.8906
Q24.1719 6.39062 31.7812 6.39062
Q39.4531 6.39062 43.2812 13.8906
Q47.125 21.3906 47.125 36.375
Q47.125 51.4219 43.2812 58.9062
Q39.4531 66.4062 31.7812 66.4062
M31.7812 74.2188
Q44.0469 74.2188 50.5156 64.5156
Q56.9844 54.8281 56.9844 36.375
Q56.9844 17.9688 50.5156 8.26562
Q44.0469 -1.42188 31.7812 -1.42188
Q19.5312 -1.42188 13.0625 8.26562
Q6.59375 17.9688 6.59375 36.375
Q6.59375 54.8281 13.0625 64.5156
Q19.5312 74.2188 31.7812 74.2188" id="BitstreamVeraSans-Roman-30"/>
      </defs>
      <g transform="translate(7.2 99.2524052717)scale(0.1 -0.1)">
       <use xlink:href="#BitstreamVeraSans-Roman-2d"/>
       <use x="36.083984375" xlink:href="#BitstreamVeraSans-Roman-30"/>
       <use x="99.70703125" xlink:href="#BitstreamVeraSans-Roman-2e"/>
       <use x="131.494140625" xlink:href="#BitstreamVeraSans-Roman-35"/>
      </g>
     </g>
    </g>
    <g id="ytick_5">
     <g id="line2d_37">
      <path d="
M19.0308 15.0092
L555.546 15.0092" style="fill:none;stroke:#000000;stroke-dasharray:1.000000,3.000000;stroke-dashoffset:0.0;stroke-linecap:butt;stroke-width:0.5;"/>
     </g>
     <g id="line2d_38">
      <defs>
       <path d="
M0 0
L4 0" id="m6ea869be91"/>
      </defs>
      <g>
       <use style="stroke:#000000;stroke-linecap:butt;stroke-width:0.5;" x="29.3484375" xlink:href="#m6ea869be91" y="15.0092307692"/>
      </g>
     </g>
    </g>
    <g id="ytick_6">
     <g id="line2d_39">
      <defs>
       <path d="
M0 0
L2 0" id="m6d8545bfea"/>
      </defs>
      <g>
       <use style="stroke:#000000;stroke-linecap:butt;stroke-width:0.5;" x="29.3484375" xlink:href="#m6d8545bfea" y="401.905218381"/>
      </g>
     </g>
    </g>
    <g id="ytick_7">
     <g id="line2d_40">
      <defs>
       <path d="
M0 0
L2 0" id="m6d8545bfea"/>
      </defs>
      <g>
       <use style="stroke:#000000;stroke-linecap:butt;stroke-width:0.5;" x="29.3484375" xlink:href="#m6d8545bfea" y="385.784552231"/>
      </g>
     </g>
    </g>
    <g id="ytick_8">
     <g id="line2d_41">
      <defs>
       <path d="
M0 0
L2 0" id="m6d8545bfea"/>
      </defs>
      <g>
       <use style="stroke:#000000;stroke-linecap:butt;stroke-width:0.5;" x="29.3484375" xlink:href="#m6d8545bfea" y="369.66388608"/>
      </g>
     </g>
    </g>
    <g id="ytick_9">
     <g id="line2d_42">
      <defs>
       <path d="
M0 0
L2 0" id="m6d8545bfea"/>
      </defs>
      <g>
       <use style="stroke:#000000;stroke-linecap:butt;stroke-width:0.5;" x="29.3484375" xlink:href="#m6d8545bfea" y="353.54321993"/>
      </g>
     </g>
    </g>
    <g id="ytick_10">
     <g id="line2d_43">
      <defs>
       <path d="
M0 0
L2 0" id="m6d8545bfea"/>
      </defs>
      <g>
       <use style="stroke:#000000;stroke-linecap:butt;stroke-width:0.5;" x="29.3484375" xlink:href="#m6d8545bfea" y="321.301887629"/>
      </g>
     </g>
    </g>
    <g id="ytick_11">
     <g id="line2d_44">
      <defs>
       <path d="
M0 0
L2 0" id="m6d8545bfea"/>
      </defs>
      <g>
       <use style="stroke:#000000;stroke-linecap:butt;stroke-width:0.5;" x="29.3484375" xlink:href="#m6d8545bfea" y="305.181221478"/>
      </g>
     </g>
    </g>
    <g id="ytick_12">
     <g id="line2d_45">
      <defs>
       <path d="
M0 0
L2 0" id="m6d8545bfea"/>
      </defs>
      <g>
       <use style="stroke:#000000;stroke-linecap:butt;stroke-width:0.5;" x="29.3484375" xlink:href="#m6d8545bfea" y="289.060555328"/>
      </g>
     </g>
    </g>
    <g id="ytick_13">
     <g id="line2d_46">
      <defs>
       <path d="
M0 0
L2 0" id="m6d8545bfea"/>
      </defs>
      <g>
       <use style="stroke:#000000;stroke-linecap:butt;stroke-width:0.5;" x="29.3484375" xlink:href="#m6d8545bfea" y="272.939889177"/>
      </g>
     </g>
    </g>
    <g id="ytick_14">
     <g id="line2d_47">
      <defs>
       <path d="
M0 0
L2 0" id="m6d8545bfea"/>
      </defs>
      <g>
       <use style="stroke:#000000;stroke-linecap:butt;stroke-width:0.5;" x="29.3484375" xlink:href="#m6d8545bfea" y="240.698556876"/>
      </g>
     </g>
    </g>
    <g id="ytick_15">
     <g id="line2d_48">
      <defs>
       <path d="
M0 0
L2 0" id="m6d8545bfea"/>
      </defs>
      <g>
       <use style="stroke:#000000;stroke-linecap:butt;stroke-width:0.5;" x="29.3484375" xlink:href="#m6d8545bfea" y="224.577890726"/>
      </g>
     </g>
    </g>
    <g id="ytick_16">
     <g id="line2d_49">
      <defs>
       <path d="
M0 0
L2 0" id="m6d8545bfea"/>
      </defs>
      <g>
       <use style="stroke:#000000;stroke-linecap:butt;stroke-width:0.5;" x="29.3484375" xlink:href="#m6d8545bfea" y="208.457224575"/>
      </g>
     </g>
    </g>
    <g id="ytick_17">
     <g id="line2d_50">
      <defs>
       <path d="
M0 0
L2 0" id="m6d8545bfea"/>
      </defs>
      <g>
       <use style="stroke:#000000;stroke-linecap:butt;stroke-width:0.5;" x="29.3484375" xlink:href="#m6d8545bfea" y="192.336558425"/>
      </g>
     </g>
    </g>
    <g id="ytick_18">
     <g id="line2d_51">
      <defs>
       <path d="
M0 0
L2 0" id="m6d8545bfea"/>
      </defs>
      <g>
       <use style="stroke:#000000;stroke-linecap:butt;stroke-width:0.5;" x="29.3484375" xlink:href="#m6d8545bfea" y="160.095226124"/>
      </g>
     </g>
    </g>
    <g id="ytick_19">
     <g id="line2d_52">
      <defs>
       <path d="
M0 0
L2 0" id="m6d8545bfea"/>
      </defs>
      <g>
       <use style="stroke:#000000;stroke-linecap:butt;stroke-width:0.5;" x="29.3484375" xlink:href="#m6d8545bfea" y="143.974559973"/>
      </g>
     </g>
    </g>
    <g id="ytick_20">
     <g id="line2d_53">
      <defs>
       <path d="
M0 0
L2 0" id="m6d8545bfea"/>
      </defs>
      <g>
       <use style="stroke:#000000;stroke-linecap:butt;stroke-width:0.5;" x="29.3484375" xlink:href="#m6d8545bfea" y="127.853893823"/>
      </g>
     </g>
    </g>
    <g id="ytick_21">
     <g id="line2d_54">
      <defs>
       <path d="
M0 0
L2 0" id="m6d8545bfea"/>
      </defs>
      <g>
       <use style="stroke:#000000;stroke-linecap:butt;stroke-width:0.5;" x="29.3484375" xlink:href="#m6d8545bfea" y="111.733227672"/>
      </g>
     </g>
    </g>
    <g id="ytick_22">
     <g id="line2d_55">
      <defs>
       <path d="
M0 0
L2 0" id="m6d8545bfea"/>
      </defs>
      <g>
       <use style="stroke:#000000;stroke-linecap:butt;stroke-width:0.5;" x="29.3484375" xlink:href="#m6d8545bfea" y="79.4918953712"/>
      </g>
     </g>
    </g>
    <g id="ytick_23">
     <g id="line2d_56">
      <defs>
       <path d="
M0 0
L2 0" id="m6d8545bfea"/>
      </defs>
      <g>
       <use style="stroke:#000000;stroke-linecap:butt;stroke-width:0.5;" x="29.3484375" xlink:href="#m6d8545bfea" y="63.3712292207"/>
      </g>
     </g>
    </g>
    <g id="ytick_24">
     <g id="line2d_57">
      <defs>
       <path d="
M0 0
L2 0" id="m6d8545bfea"/>
      </defs>
      <g>
       <use style="stroke:#000000;stroke-linecap:butt;stroke-width:0.5;" x="29.3484375" xlink:href="#m6d8545bfea" y="47.2505630702"/>
      </g>
     </g>
    </g>
    <g id="ytick_25">
     <g id="line2d_58">
      <defs>
       <path d="
M0 0
L2 0" id="m6d8545bfea"/>
      </defs>
      <g>
       <use style="stroke:#000000;stroke-linecap:butt;stroke-width:0.5;" x="29.3484375" xlink:href="#m6d8545bfea" y="31.1298969197"/>
      </g>
     </g>
    </g>
   </g>
   <g id="patch_3">
    <path d="
M19.0308 15.0092
L555.546 15.0092" style="fill:none;stroke:#000000;stroke-width:0.8;"/>
   </g>
   <g id="patch_4">
    <path d="
M29.3484 413.28
L29.3484 7.2" style="fill:none;stroke:#000000;stroke-width:0.8;"/>
   </g>
  </g>
 </g>
 <defs>
  <clipPath id="pe376afc05f">
   <rect height="406.08" width="536.514823828" x="19.0308457659" y="7.2"/>
  </clipPath>
 </defs>
</svg>
