<?xml version="1.0" encoding="utf-8" standalone="no"?>
<!DOCTYPE svg PUBLIC "-//W3C//DTD SVG 1.1//EN"
  "http://www.w3.org/Graphics/SVG/1.1/DTD/svg11.dtd">
<!-- Created with matplotlib (http://matplotlib.sourceforge.net/) -->
<svg height="419pt" version="1.1" viewBox="0 0 564 419" width="564pt" xmlns="http://www.w3.org/2000/svg" xmlns:xlink="http://www.w3.org/1999/xlink">
 <defs>
  <style type="text/css">
*{stroke-linecap:square;stroke-linejoin:round;}
  </style>
 </defs>
 <g id="figure_1">
  <g id="patch_1">
   <path d="
M4.44089e-16 419.439
L564.626 419.439
L564.626 0
L4.44089e-16 0
z
" style="fill:#ffffff;"/>
  </g>
  <g id="axes_1">
   <g id="patch_2">
    <path d="
M42.6088 412.239
L557.426 412.239
L557.426 8.51291
L42.6088 8.51291
z
" style="fill:#ffffff;"/>
   </g>
   <g id="line2d_1">
    <path clip-path="url(#p10490cade4)" d="
M52.5091 16.2769
L62.5296 16.2769
L62.5296 31.8705
L75.154 31.8705
L75.154 59.1786
L83.4694 59.1786
L83.4694 79.8701
L94.6396 79.8701
L94.6396 108.857
L98.7681 108.857
L98.7681 120.176
L105.398 120.176
L105.398 139.857
L108.147 139.857
L108.147 148.568
L112.868 148.568
L112.868 164.57
L118.597 164.57
L118.597 183.791
L120.245 183.791
L120.245 189.493
L124.618 189.493
L124.618 205.229
L127.155 205.229
L127.155 214.459
L128.332 214.459
L128.332 219
L130.53 219
L130.53 227.948
L133.499 227.948
L133.499 240.198
L136.15 240.198
L136.15 251.123
L136.973 251.123
L136.973 254.629
L139.292 254.629
L139.292 264.819
L140.725 264.819
L140.725 271.221
L141.412 271.221
L141.412 274.417
L143.364 274.417
L143.364 283.757
L144.584 283.757
L144.584 288.873
L146.309 288.873
L146.309 296.282
L148.437 296.282
L148.437 304.15
L149.435 304.15
L149.435 307.335
L149.92 307.335
L149.92 308.693
L150.861 308.693
L150.861 310.984
L151.319 310.984
L151.319 311.933
L152.21 311.933
L152.21 313.475
L155.096 313.475
L155.096 318.835
L155.863 318.835
L155.863 319.942
L156.969 319.942
L156.969 321.754
L157.328 321.754
L157.328 322.412
L159.045 322.412
L159.045 324.994
L159.374 324.994
L159.374 325.384
L160.337 325.384
L160.337 326.254
L161.264 326.254
L161.264 326.824
L161.863 326.824
L161.863 327.31
L162.735 327.31
L162.735 328.185
L163.578 328.185
L163.578 329.178
L163.853 329.178
L163.853 329.431
L165.182 329.431
L165.182 330.303
L165.439 330.303
L165.439 330.518
L165.946 330.518
L165.946 331.04
L166.196 331.04
L166.196 331.345
L167.643 331.345
L167.643 333.335
L169.01 333.335
L169.01 335.363
L169.449 335.363
L169.449 335.899
L169.666 335.899
L169.666 336.202
L170.094 336.202
L170.094 336.875
L170.722 336.875
L170.722 337.716
L170.928 337.716
L170.928 338.026
L171.933 338.026
L171.933 339.686
L172.517 339.686
L172.517 340.506
L173.087 340.506
L173.087 341.39
L173.645 341.39
L173.645 342.129
L173.828 342.129
L173.828 342.401
L174.369 342.401
L174.369 343.092
L174.723 343.092
L174.723 343.597
L174.898 343.597
L174.898 343.813
L175.757 343.813
L175.757 344.992
L176.91 344.992
L176.91 346.299
L177.23 346.299
L177.23 346.702
L177.388 346.702
L177.388 346.926
L177.702 346.926
L177.702 347.417
L178.77 347.417
L178.77 349.214
L179.214 349.214
L179.214 350.008
L179.937 350.008
L179.937 351.151
L180.079 351.151
L180.079 351.348
L180.361 351.348
L180.361 351.78
L180.777 351.78
L180.777 352.475
L181.322 352.475
L181.322 353.449
L181.723 353.449
L181.723 354.089
L182.117 354.089
L182.117 354.645
L182.376 354.645
L182.376 354.966
L182.761 354.966
L182.761 355.491
L183.264 355.491
L183.264 356.24
L183.511 356.24
L183.511 356.565
L184 356.565
L184 357.267
L184.597 357.267
L184.597 358.19
L184.714 358.19
L184.714 358.386
L185.294 358.386
L185.294 359.254
L185.409 359.254
L185.409 359.439
L185.749 359.439
L185.749 359.934
L185.973 359.934
L185.973 360.223
L186.306 360.223
L186.306 360.694
L186.742 360.694
L186.742 361.239
L186.957 361.239
L187.064 361.694
L187.277 361.694
L187.277 361.98
L187.904 361.98
L187.904 362.893
L188.313 362.893
L188.313 363.53
L188.516 363.53
L188.516 363.868
L188.915 363.868
L188.915 364.472
L189.112 364.472
L189.112 364.739
L189.405 364.739
L189.405 365.171
L189.981 365.171
L190.076 366.036
L190.912 366.036
L190.912 366.872
L191.185 366.872
L191.185 367.101
L191.632 367.101
L191.632 367.41
L191.897 367.41
L191.897 367.555
L192.159 367.555
L192.246 367.774
L192.504 367.774
L192.504 367.941
L192.929 367.941
L192.929 368.261
L193.18 368.261
L193.18 368.477
L193.429 368.477
L193.511 368.705
L193.757 368.705
L193.757 368.879
L194 368.879
L194 369.018
L194.241 369.089
L194.241 369.134
L194.715 369.134
L194.715 369.45
L195.104 369.45
L195.181 369.703
L195.334 369.703
L195.334 369.817
L195.562 369.817
L195.562 370.012
L195.788 370.012
L195.863 370.221
L196.308 370.221
L196.308 370.432
L196.672 370.482
L196.672 370.581
L196.96 370.581
L196.96 370.741
L197.315 370.741
L197.315 370.892
L197.942 370.977
L197.942 371.116
L198.215 371.116
L198.215 371.253
L198.418 371.253
L198.418 371.375
L198.62 371.375
L198.62 371.516
L199.018 371.594
L199.018 371.717
L199.345 371.828
L199.345 371.915
L199.603 371.915
L199.603 372.113
L200.175 372.223
L200.175 372.552
L200.487 372.552
L200.487 372.811
L200.856 372.811
L200.917 373.12
L201.22 373.12
L201.28 373.375
L201.46 373.48
L201.46 373.526
L201.756 373.526
L201.756 373.783
L202.165 373.783
L202.165 374.088
L202.338 374.161
L202.338 374.203
L202.851 374.298
L202.851 374.58
L203.019 374.67
L203.019 374.721
L203.682 374.832
L203.791 375.417
L204.007 375.417
L204.007 375.644
L204.275 375.644
L204.275 375.946
L204.486 375.946
L204.592 376.32
L204.749 376.32
L204.749 376.478
L204.905 376.478
L204.905 376.648
L205.265 376.648
L205.367 377.109
L205.52 377.109
L205.52 377.284
L205.671 377.284
L205.671 377.443
L205.871 377.443
L205.871 377.631
L206.02 377.631
L206.02 377.784
L206.316 377.784
L206.414 378.153
L206.56 378.153
L206.608 378.36
L206.849 378.36
L206.897 378.675
L207.04 378.675
L207.04 378.827
L207.277 378.827
L207.324 379.147
L207.558 379.147
L207.604 379.467
L207.744 379.467
L207.744 379.621
L208.156 379.621
L208.247 380.21
L208.383 380.254
L208.383 380.335
L208.651 380.442
L208.651 380.535
L208.961 380.642
L208.961 380.709
L209.57 380.762
L209.613 380.918
L210.456 381.021
L210.456 381.032
L210.948 381.124
L210.948 381.151
L211.231 381.262
L211.231 381.278
L211.589 381.337
L211.589 381.432
L212.137 381.492
L212.176 381.577
L212.937 381.658
L212.975 381.73
L213.712 381.777
L213.821 382.123
L214.392 382.211
L214.392 382.356
L214.813 382.419
L214.917 382.525
L215.226 382.592
L215.328 382.682
L215.8 382.789
L215.9 382.89
L216.099 382.941
L216.099 383.002
L216.491 383.106
L216.491 383.192
L216.814 383.258
L216.909 383.433
L217.069 383.479
L217.069 383.555
L217.258 383.665
L217.258 383.724
L217.384 383.724
L217.446 383.908
L217.664 383.908
L217.726 384.191
L217.849 384.295
L217.91 384.397
L218.032 384.493
L218.124 384.618
L218.275 384.618
L218.275 384.763
L218.575 384.763
L218.664 385.153
L219.106 385.241
L219.194 385.604
L219.512 385.714
L219.54 385.848
L219.797 385.923
L219.882 386.005
L220.303 386.049
L220.386 386.15
L220.771 386.216
L220.771 386.262
L221.258 386.363
L221.258 386.446
L221.524 386.531
L221.603 386.598
L221.814 386.645
L221.814 386.72
L222.048 386.82
L222.126 386.934
L222.357 386.934
L222.383 387.113
L222.586 387.113
L222.612 387.301
L222.889 387.301
L222.964 387.624
L223.138 387.716
L223.212 387.856
L223.36 387.901
L223.434 388.05
L223.581 388.151
L223.581 388.173
L223.871 388.273
L223.871 388.422
L223.991 388.422
L224.063 388.607
L224.206 388.607
L224.301 388.84
L224.419 388.84
L224.419 388.979
L224.56 388.979
L224.583 389.18
L224.769 389.18
L224.862 389.532
L225.047 389.62
L225.138 389.849
L225.343 389.849
L225.343 390.054
L225.614 390.054
L225.659 390.347
L225.815 390.417
L225.815 390.503
L225.992 390.503
L226.059 390.746
L226.322 390.819
L226.387 390.998
L226.603 391.106
L226.647 391.19
L227.031 391.291
L227.115 391.534
L227.284 391.612
L227.284 391.656
L227.493 391.75
L227.555 391.816
L227.966 391.923
L227.966 391.935
L228.471 392.038
L228.511 392.07
L228.946 392.174
L229.044 392.304
L229.508 392.389
L229.508 392.418
L233.401 392.52
L233.434 392.539
L234.127 392.626
L234.222 392.67
L234.693 392.759
L234.771 392.808
L235.231 392.875
L235.292 392.94
L235.653 393.047
L235.743 393.096
L236.258 393.187
L236.273 393.225
L236.749 393.335
L236.835 393.368
L237.551 393.475
L237.634 393.504
L238.368 393.601
L238.435 393.65
L239.223 393.751
L239.301 393.79
L240.15 393.897
L240.15 393.929
L241.731 394.038
L241.812 394.067
L242.365 394.175
L242.468 394.199
L244.23 394.089
L244.293 394.073
L247.183 393.964
L247.221 393.943
L247.913 393.837
L247.995 393.803
L249.112 393.907
L249.181 393.932
L249.872 394.041
L249.973 394.065
L250.495 394.165
L250.593 394.197
L251.53 394.305
L251.624 394.336
L252.051 394.423
L252.159 394.486
L252.532 394.596
L252.622 394.656
L252.951 394.763
L253.062 394.821
L253.327 394.895
L253.436 394.97
L253.997 395.077
L254.104 395.116
L255.334 395.226
L255.394 395.235
L257.108 395.125
L257.196 395.113
L257.844 395.004
L257.935 394.969
L258.356 394.869
L258.445 394.821
L258.817 394.721
L258.887 394.683
L259.166 394.589
L259.27 394.535
L259.555 394.425
L259.663 394.379
L261.833 394.489
L261.864 394.504
L262.417 394.614
L262.528 394.632
L263.867 394.526
L263.967 394.484
L264.503 394.375
L264.596 394.367
L270.484 394.473
L270.593 394.508
L270.972 394.617
L271.065 394.645
L271.44 394.754
L271.503 394.785
L271.958 394.895
L272.065 394.922
L272.61 395.03
L272.71 395.063
L273.042 395.164
L273.147 395.223
L273.401 395.33
L273.508 395.37
L274.253 395.48
L274.34 395.49
L274.896 395.585
L275.003 395.661
L275.266 395.771
L275.365 395.819
L275.634 395.928
L275.743 395.978
L276.013 396.088
L276.103 396.13
L276.312 396.231
L276.416 396.305
L276.593 396.412
L276.69 396.481
L276.843 396.592
L276.944 396.696
L277.084 396.797
L277.179 396.889
L277.337 396.994
L277.442 397.091
L277.585 397.201
L277.692 397.294
L277.83 397.401
L277.936 397.491
L278.106 397.601
L278.207 397.678
L278.417 397.789
L278.526 397.879
L278.731 397.987
L278.835 398.072
L279.066 398.179
L279.169 398.233
L279.475 398.343
L279.579 398.372
L280.158 398.483
L280.269 398.51
L280.792 398.618
L280.893 398.655
L281.167 398.763
L281.273 398.812
L281.734 398.919
L281.84 398.949
L282.543 399.05
L282.65 399.085
L283.977 399.187
L284.087 399.226
L284.809 399.334
L284.809 399.34
L286.537 399.242
L286.642 399.208
L287.663 399.303
L287.766 399.338
L288.283 399.434
L288.393 399.471
L289.916 399.385
L289.916 399.359
L290.334 399.261
L290.43 399.199
L290.842 399.115
L290.943 399.061
L293.401 399.167
L293.505 399.192
L295.04 399.085
L295.141 399.065
L296.169 398.956
L296.271 398.93
L297.808 398.837
L297.917 398.783
L298.324 398.702
L298.423 398.647
L299.755 398.54
L299.755 398.532
L301.392 398.641
L301.503 398.674
L303.748 398.577
L303.85 398.514
L304.256 398.413
L304.359 398.347
L304.671 398.267
L304.776 398.175
L305.077 398.083
L305.179 398.003
L305.593 397.908
L305.691 397.874
L306.407 397.763
L306.515 397.699
L306.819 397.626
L306.924 397.539
L307.231 397.445
L307.333 397.34
L307.643 397.244
L307.741 397.139
L307.946 397.083
L308.055 396.972
L308.362 396.877
L308.458 396.794
L308.763 396.714
L308.867 396.63
L309.175 396.542
L309.279 396.485
L309.687 396.388
L309.79 396.324
L310.2 396.223
L310.301 396.137
L310.612 396.038
L310.716 395.922
L310.927 395.867
L311.023 395.749
L311.222 395.688
L311.325 395.57
L311.53 395.508
L311.631 395.379
L311.842 395.323
L311.944 395.193
L312.148 395.128
L312.246 395.012
L312.451 394.944
L312.557 394.801
L312.758 394.722
L312.864 394.545
L313.068 394.461
L313.17 394.284
L313.374 394.194
L313.476 394.034
L313.683 393.959
L313.783 393.82
L313.988 393.748
L314.092 393.628
L314.295 393.569
L314.397 393.453
L314.704 393.356
L314.807 393.269
L315.117 393.181
L315.217 393.108
L315.526 393.04
L315.632 392.949
L315.935 392.861
L316.037 392.766
L316.343 392.68
L316.446 392.622
L316.857 392.522
L316.961 392.439
L317.369 392.333
L317.47 392.266
L317.992 392.155
L318.085 392.083
L318.392 391.983
L318.497 391.888
L318.907 391.797
L319.007 391.761
L319.726 391.652
L319.826 391.607
L320.236 391.501
L320.339 391.426
L320.748 391.337
L320.851 391.281
L321.263 391.187
L321.365 391.107
L321.679 391.034
L321.774 390.956
L322.184 390.868
L322.287 390.796
L322.592 390.719
L322.695 390.623
L323.003 390.537
L323.104 390.461
L323.515 390.352
L323.616 390.303
L324.231 390.192
L324.334 390.137
L324.641 390.068
L324.742 389.976
L324.951 389.921
L325.05 389.812
L325.255 389.755
L325.359 389.633
L325.564 389.571
L325.664 389.462
L325.974 389.365
L326.079 389.252
L326.282 389.198
L326.381 389.074
L326.586 389.011
L326.69 388.889
L326.893 388.833
L326.998 388.711
L327.2 388.654
L327.305 388.535
L327.613 388.44
L327.713 388.369
L328.124 388.264
L328.23 388.208
L328.738 388.106
L328.839 388.056
L331.298 388.162
L331.4 388.187
L333.961 388.079
L334.064 388.064
L335.088 387.972
L335.191 387.93
L335.704 387.825
L335.804 387.774
L337.855 387.884
L337.956 387.96
L338.263 388.051
L338.366 388.141
L338.775 388.237
L338.878 388.292
L339.287 388.376
L339.392 388.425
L340.108 388.515
L340.209 388.576
L340.824 388.685
L340.926 388.711
L342.258 388.622
L342.36 388.575
L343.897 388.678
L344.001 388.716
L345.127 388.812
L345.228 388.845
L346.458 388.944
L346.56 388.971
L347.38 389.072
L347.482 389.106
L348.096 389.206
L348.2 389.244
L349.12 389.341
L349.223 389.364
L350.453 389.466
L350.555 389.487
L352.297 389.597
L352.398 389.612
L353.525 389.72
L353.627 389.754
L355.471 389.85
L355.574 389.89
L356.085 389.999
L356.188 390.06
L356.7 390.168
L356.804 390.235
L357.315 390.345
L357.419 390.393
L357.93 390.498
L358.032 390.541
L358.544 390.636
L358.646 390.684
L359.364 390.788
L359.466 390.833
L361.514 390.722
L361.617 390.711
L362.538 390.605
L362.642 390.584
L365.202 390.681
L365.304 390.718
L366.738 390.815
L366.841 390.847
L367.353 390.948
L367.455 390.998
L367.968 391.105
L368.07 391.126
L369.094 391.233
L369.197 391.28
L369.811 391.376
L369.915 391.41
L370.426 391.504
L370.529 391.557
L371.143 391.647
L371.245 391.702
L371.655 391.811
L371.758 391.889
L372.064 391.963
L372.167 392.055
L372.577 392.152
L372.679 392.211
L373.294 392.315
L373.396 392.336
L378.62 392.434
L378.722 392.478
L379.132 392.558
L379.235 392.627
L379.644 392.716
L379.747 392.768
L381.488 392.681
L381.591 392.639
L382.103 392.534
L382.205 392.466
L382.512 392.386
L382.615 392.322
L383.025 392.216
L383.127 392.148
L383.537 392.054
L383.639 391.986
L383.947 391.903
L384.049 391.829
L384.458 391.736
L384.561 391.692
L385.176 391.588
L385.278 391.524
L385.688 391.422
L385.79 391.331
L386.098 391.24
L386.2 391.149
L386.507 391.071
L386.61 391.004
L387.02 390.918
L387.122 390.857
L387.531 390.761
L387.634 390.71
L388.043 390.617
L388.146 390.561
L388.76 390.468
L388.863 390.408
L389.273 390.314
L389.375 390.255
L389.682 390.182
L389.785 390.097
L390.092 390.004
L390.194 389.904
L390.502 389.811
L390.604 389.715
L390.911 389.611
L391.014 389.504
L391.321 389.41
L391.424 389.332
L391.833 389.24
L391.936 389.175
L392.55 389.071
L392.653 389.038
L394.189 388.937
L394.292 388.906
L396.136 388.801
L396.238 388.771
L397.877 388.661
L397.979 388.653
L399.208 388.758
L399.311 388.783
L400.233 388.892
L400.335 388.906
L401.359 389.015
L401.462 389.088
L401.769 389.19
L401.871 389.29
L402.179 389.398
L402.281 389.503
L402.588 389.603
L402.691 389.688
L403.101 389.787
L403.203 389.837
L403.613 389.937
L403.715 390.005
L404.022 390.084
L404.125 390.169
L404.432 390.275
L404.535 390.374
L404.842 390.465
L404.944 390.556
L405.252 390.664
L405.354 390.767
L405.661 390.857
L405.764 390.953
L406.071 391.041
L406.173 391.124
L406.481 391.211
L406.583 391.321
L406.788 391.376
L406.89 391.5
L407.095 391.559
L407.198 391.655
L407.71 391.754
L407.812 391.799
L408.325 391.906
L408.427 391.939
L409.451 392.047
L409.554 392.063
L414.163 391.962
L414.265 391.913
L414.88 391.804
L414.982 391.777
L416.621 391.885
L416.724 391.908
L417.338 392.007
L417.441 392.045
L417.953 392.14
L418.055 392.212
L418.362 392.295
L418.465 392.381
L418.875 392.483
L418.977 392.543
L419.284 392.626
L419.387 392.723
L419.592 392.78
L419.694 392.886
L419.899 392.943
L420.001 393.059
L420.206 393.117
L420.309 393.23
L420.514 393.291
L420.616 393.413
L420.821 393.472
L420.923 393.591
L421.128 393.653
L421.23 393.782
L421.435 393.847
L421.538 393.98
L421.743 394.05
L421.845 394.192
L422.05 394.257
L422.152 394.386
L422.357 394.449
L422.46 394.584
L422.665 394.652
L422.767 394.787
L422.972 394.848
L423.074 394.965
L423.381 395.063
L423.484 395.143
L423.791 395.235
L423.894 395.322
L424.201 395.411
L424.303 395.492
L424.713 395.596
L424.816 395.668
L425.225 395.766
L425.328 395.812
L425.942 395.915
L426.045 395.957
L427.069 396.062
L427.171 396.082
L427.991 396.193
L428.093 396.246
L428.81 396.352
L428.913 396.381
L429.732 396.483
L429.835 396.513
L431.576 396.612
L431.678 396.639
L432.395 396.743
L432.498 396.76
L435.058 396.657
L435.161 396.61
L435.775 396.501
L435.878 396.468
L436.595 396.37
L436.697 396.344
L439.565 396.235
L439.668 396.228
L441.307 396.124
L441.409 396.095
L442.946 395.985
L443.048 395.965
L445.711 395.864
L445.814 395.829
L446.326 395.732
L446.428 395.686
L446.838 395.591
L446.94 395.506
L447.248 395.413
L447.35 395.308
L447.657 395.217
L447.76 395.144
L448.169 395.053
L448.272 395.002
L448.682 394.917
L448.784 394.854
L449.296 394.762
L449.399 394.721
L449.911 394.634
L450.013 394.579
L450.628 394.476
L450.73 394.429
L451.242 394.339
L451.345 394.291
L451.754 394.207
L451.857 394.149
L452.369 394.041
L452.471 393.993
L452.881 393.899
L452.984 393.825
L453.291 393.743
L453.393 393.645
L453.701 393.548
L453.803 393.447
L454.11 393.342
L454.213 393.23
L454.52 393.134
L454.622 393.049
L455.032 392.944
L455.135 392.865
L455.442 392.78
L455.544 392.685
L455.852 392.594
L455.954 392.522
L456.364 392.432
L456.466 392.382
L457.286 392.272
L457.388 392.232
L457.798 392.136
L457.9 392.084
L458.412 391.993
L458.515 391.938
L459.027 391.839
L459.129 391.783
L459.642 391.692
L459.744 391.647
L460.256 391.554
L460.359 391.492
L460.768 391.395
L460.871 391.354
L461.485 391.252
L461.588 391.202
L462.1 391.112
L462.202 391.07
L463.022 390.967
L463.124 390.943
L463.739 390.842
L463.841 390.807
L467.119 390.698
L467.221 390.672
L469.577 390.566
L469.68 390.541
L470.397 390.447
L470.499 390.397
L470.909 390.299
L471.011 390.217
L471.318 390.143
L471.421 390.065
L471.728 389.983
L471.831 389.901
L472.138 389.819
L472.24 389.736
L472.548 389.649
L472.65 389.557
L473.06 389.448
L473.162 389.385
L473.572 389.28
L473.674 389.219
L473.982 389.143
L474.084 389.058
L474.494 388.956
L474.596 388.898
L475.108 388.801
L475.211 388.769
L475.928 388.661
L476.03 388.601
L476.44 388.511
L476.542 388.446
L476.952 388.362
L477.054 388.304
L477.567 388.206
L477.669 388.164
L478.489 388.073
L478.591 388.026
L479.103 387.933
L479.206 387.881
L479.718 387.788
L479.82 387.752
L480.537 387.649
L480.64 387.617
L483.815 387.723
L483.917 387.736
L485.454 387.846
L485.556 387.879
L486.171 387.97
L486.273 388.024
L487.297 388.133
L487.4 388.162
L487.912 388.256
L488.014 388.301
L488.731 388.408
L488.834 388.429
L491.292 388.531
L491.395 388.563
L492.316 388.662
L492.419 388.688
L494.263 388.784
L494.365 388.82
L495.492 388.929
L495.594 388.956
L496.619 389.061
L496.721 389.104
L497.438 389.193
L497.54 389.243
L497.95 389.346
L498.053 389.43
L498.462 389.537
L498.565 389.585
L499.077 389.68
L499.179 389.73
L499.589 389.826
L499.691 389.893
L500.101 389.998
L500.204 390.067
L500.511 390.16
L500.613 390.25
L500.921 390.344
L501.023 390.43
L501.33 390.504
L501.433 390.582
L501.74 390.672
L501.842 390.782
L502.15 390.889
L502.252 390.986
L502.559 391.082
L502.662 391.178
L502.969 391.277
L503.072 391.366
L503.379 391.462
L503.481 391.565
L503.789 391.674
L503.891 391.792
L504.096 391.859
L504.198 391.991
L504.403 392.058
L504.506 392.187
L504.71 392.251
L504.813 392.364
L505.12 392.466
L505.223 392.592
L505.427 392.654
L505.53 392.774
L505.735 392.834
L505.837 392.954
L506.042 393.017
L506.144 393.144
L506.349 393.202
L506.452 393.315
L506.759 393.423
L506.861 393.526
L507.169 393.618
L507.271 393.707
L507.578 393.803
L507.681 393.895
L507.988 393.973
L508.091 394.045
L508.398 394.119
L508.5 394.203
L508.808 394.29
L508.91 394.368
L509.217 394.454
L509.32 394.526
L509.627 394.599
L509.729 394.678
L510.139 394.776
L510.242 394.843
L510.651 394.935
L510.754 394.991
L511.163 395.076
L511.266 395.138
L511.778 395.239
L511.88 395.295
L512.597 395.406
L512.7 395.422
L513.622 395.532
L513.724 395.548
L514.544 395.648
L514.646 395.703
L515.056 395.787
L515.158 395.853
L515.568 395.952
L515.67 396.04
L515.978 396.138
L516.08 396.227
L516.387 396.324
L516.49 396.413
L516.9 396.522
L517.002 396.606
L517.412 396.716
L517.514 396.796
L517.821 396.891
L517.924 396.981
L518.231 397.083
L518.334 397.181
L518.641 397.279
L518.743 397.372
L519.051 397.45
L519.153 397.532
L519.563 397.632
L519.665 397.689
L520.075 397.778
L520.177 397.833
L520.689 397.929
L520.792 397.986
L521.406 398.086
L521.509 398.131
L522.021 398.232
L522.123 398.277
L522.943 398.379
L523.045 398.4
L523.967 398.499
L524.07 398.533
L524.582 398.632
L524.684 398.705
L524.991 398.787
L525.094 398.902
L525.299 398.963
L525.401 399.082
L525.708 399.19
L525.811 399.298
L526.118 399.406
L526.221 399.498
L526.528 399.585
L526.63 399.686
L526.938 399.793
L527.04 399.891
L527.347 399.997
L527.45 400.098
L527.655 400.151
L527.757 400.275
L527.962 400.338
L528.064 400.465
L528.269 400.532
L528.372 400.663
L528.576 400.727
L528.679 400.852
L528.986 400.953
L529.089 401.044
L529.396 401.134
L529.498 401.215
L529.806 401.293
L529.908 401.384
L530.215 401.489
L530.318 401.584
L530.625 401.669
L530.727 401.742
L531.137 401.84
L531.24 401.898
L531.752 402.003
L531.854 402.05
L532.366 402.147
L532.469 402.189
L532.879 402.286
L532.981 402.363
L533.391 402.471
L533.493 402.555
L533.8 402.635
L533.903 402.708
L534.21 402.785
L534.313 402.863
L534.62 402.952
L534.722 403.03
L535.132 403.137
L535.234 403.198
L535.747 403.302
L535.849 403.362
L536.259 403.461
L536.361 403.524
L536.873 403.624
L536.976 403.667
L537.59 403.774
L537.693 403.808
L538.512 403.912
L538.615 403.946
L540.253 404.051
L540.356 404.07
L541.483 404.181
L541.585 404.194
L543.838 404.304
L543.941 404.325
L546.911 404.436
L547.014 404.451
L547.526 404.473
L547.526 404.475" style="fill:none;stroke:#0000ff;stroke-width:5.0;"/>
   </g>
   <g id="matplotlib.axis_1">
    <g id="xtick_1">
     <g id="line2d_2">
      <path d="
M158.947 412.239
L158.947 8.51291" style="fill:none;stroke:#000000;stroke-dasharray:1.000000,3.000000;stroke-dashoffset:0.0;stroke-linecap:butt;stroke-width:0.5;"/>
     </g>
     <g id="line2d_3">
      <defs>
       <path d="
M0 0
L0 -4" id="m3fbe6c24f1"/>
      </defs>
      <g>
       <use style="stroke:#000000;stroke-linecap:butt;stroke-width:0.5;" x="158.947029318" xlink:href="#m3fbe6c24f1" y="16.276875"/>
      </g>
     </g>
     <g id="text_1">
      <!-- 5 -->
      <defs>
       <path d="
M10.7969 72.9062
L49.5156 72.9062
L49.5156 64.5938
L19.8281 64.5938
L19.8281 46.7344
Q21.9688 47.4688 24.1094 47.8281
Q26.2656 48.1875 28.4219 48.1875
Q40.625 48.1875 47.75 41.5
Q54.8906 34.8125 54.8906 23.3906
Q54.8906 11.625 47.5625 5.09375
Q40.2344 -1.42188 26.9062 -1.42188
Q22.3125 -1.42188 17.5469 -0.640625
Q12.7969 0.140625 7.71875 1.70312
L7.71875 11.625
Q12.1094 9.23438 16.7969 8.0625
Q21.4844 6.89062 26.7031 6.89062
Q35.1562 6.89062 40.0781 11.3281
Q45.0156 15.7656 45.0156 23.3906
Q45.0156 31 40.0781 35.4375
Q35.1562 39.8906 26.7031 39.8906
Q22.75 39.8906 18.8125 39.0156
Q14.8906 38.1406 10.7969 36.2812
z
" id="BitstreamVeraSans-Roman-35"/>
      </defs>
      <g transform="translate(153.286404318 37.774375)scale(0.24 -0.24)">
       <use xlink:href="#BitstreamVeraSans-Roman-35"/>
      </g>
     </g>
    </g>
    <g id="xtick_2">
     <g id="line2d_4">
      <path d="
M282.515 412.239
L282.515 8.51291" style="fill:none;stroke:#000000;stroke-dasharray:1.000000,3.000000;stroke-dashoffset:0.0;stroke-linecap:butt;stroke-width:0.5;"/>
     </g>
     <g id="line2d_5">
      <defs>
       <path d="
M0 0
L0 -4" id="m3fbe6c24f1"/>
      </defs>
      <g>
       <use style="stroke:#000000;stroke-linecap:butt;stroke-width:0.5;" x="282.515151148" xlink:href="#m3fbe6c24f1" y="16.276875"/>
      </g>
     </g>
     <g id="text_2">
      <!-- 10 -->
      <defs>
       <path d="
M31.7812 66.4062
Q24.1719 66.4062 20.3281 58.9062
Q16.5 51.4219 16.5 36.375
Q16.5 21.3906 20.3281 13.8906
Q24.1719 6.39062 31.7812 6.39062
Q39.4531 6.39062 43.2812 13.8906
Q47.125 21.3906 47.125 36.375
Q47.125 51.4219 43.2812 58.9062
Q39.4531 66.4062 31.7812 66.4062
M31.7812 74.2188
Q44.0469 74.2188 50.5156 64.5156
Q56.9844 54.8281 56.9844 36.375
Q56.9844 17.9688 50.5156 8.26562
Q44.0469 -1.42188 31.7812 -1.42188
Q19.5312 -1.42188 13.0625 8.26562
Q6.59375 17.9688 6.59375 36.375
Q6.59375 54.8281 13.0625 64.5156
Q19.5312 74.2188 31.7812 74.2188" id="BitstreamVeraSans-Roman-30"/>
       <path d="
M12.4062 8.29688
L28.5156 8.29688
L28.5156 63.9219
L10.9844 60.4062
L10.9844 69.3906
L28.4219 72.9062
L38.2812 72.9062
L38.2812 8.29688
L54.3906 8.29688
L54.3906 0
L12.4062 0
z
" id="BitstreamVeraSans-Roman-31"/>
      </defs>
      <g transform="translate(269.360151148 38.089375)scale(0.24 -0.24)">
       <use xlink:href="#BitstreamVeraSans-Roman-31"/>
       <use x="63.623046875" xlink:href="#BitstreamVeraSans-Roman-30"/>
      </g>
     </g>
    </g>
    <g id="xtick_3">
     <g id="line2d_6">
      <path d="
M406.083 412.239
L406.083 8.51291" style="fill:none;stroke:#000000;stroke-dasharray:1.000000,3.000000;stroke-dashoffset:0.0;stroke-linecap:butt;stroke-width:0.5;"/>
     </g>
     <g id="line2d_7">
      <defs>
       <path d="
M0 0
L0 -4" id="m3fbe6c24f1"/>
      </defs>
      <g>
       <use style="stroke:#000000;stroke-linecap:butt;stroke-width:0.5;" x="406.083272978" xlink:href="#m3fbe6c24f1" y="16.276875"/>
      </g>
     </g>
     <g id="text_3">
      <!-- 15 -->
      <g transform="translate(393.179522978 37.774375)scale(0.24 -0.24)">
       <use xlink:href="#BitstreamVeraSans-Roman-31"/>
       <use x="63.623046875" xlink:href="#BitstreamVeraSans-Roman-35"/>
      </g>
     </g>
    </g>
    <g id="xtick_4">
     <g id="line2d_8">
      <path d="
M529.651 412.239
L529.651 8.51291" style="fill:none;stroke:#000000;stroke-dasharray:1.000000,3.000000;stroke-dashoffset:0.0;stroke-linecap:butt;stroke-width:0.5;"/>
     </g>
     <g id="line2d_9">
      <defs>
       <path d="
M0 0
L0 -4" id="m3fbe6c24f1"/>
      </defs>
      <g>
       <use style="stroke:#000000;stroke-linecap:butt;stroke-width:0.5;" x="529.651394807" xlink:href="#m3fbe6c24f1" y="16.276875"/>
      </g>
     </g>
     <g id="text_4">
      <!-- 20 -->
      <defs>
       <path d="
M19.1875 8.29688
L53.6094 8.29688
L53.6094 0
L7.32812 0
L7.32812 8.29688
Q12.9375 14.1094 22.625 23.8906
Q32.3281 33.6875 34.8125 36.5312
Q39.5469 41.8438 41.4219 45.5312
Q43.3125 49.2188 43.3125 52.7812
Q43.3125 58.5938 39.2344 62.25
Q35.1562 65.9219 28.6094 65.9219
Q23.9688 65.9219 18.8125 64.3125
Q13.6719 62.7031 7.8125 59.4219
L7.8125 69.3906
Q13.7656 71.7812 18.9375 73
Q24.125 74.2188 28.4219 74.2188
Q39.75 74.2188 46.4844 68.5469
Q53.2188 62.8906 53.2188 53.4219
Q53.2188 48.9219 51.5312 44.8906
Q49.8594 40.875 45.4062 35.4062
Q44.1875 33.9844 37.6406 27.2188
Q31.1094 20.4531 19.1875 8.29688" id="BitstreamVeraSans-Roman-32"/>
      </defs>
      <g transform="translate(516.057644807 38.089375)scale(0.24 -0.24)">
       <use xlink:href="#BitstreamVeraSans-Roman-32"/>
       <use x="63.623046875" xlink:href="#BitstreamVeraSans-Roman-30"/>
      </g>
     </g>
    </g>
    <g id="xtick_5">
     <g id="line2d_10">
      <defs>
       <path d="
M0 0
L0 -2" id="mf0ff38ea95"/>
      </defs>
      <g>
       <use style="stroke:#000000;stroke-linecap:butt;stroke-width:0.5;" x="60.0925318537" xlink:href="#mf0ff38ea95" y="16.276875"/>
      </g>
     </g>
    </g>
    <g id="xtick_6">
     <g id="line2d_11">
      <defs>
       <path d="
M0 0
L0 -2" id="mf0ff38ea95"/>
      </defs>
      <g>
       <use style="stroke:#000000;stroke-linecap:butt;stroke-width:0.5;" x="84.8061562197" xlink:href="#mf0ff38ea95" y="16.276875"/>
      </g>
     </g>
    </g>
    <g id="xtick_7">
     <g id="line2d_12">
      <defs>
       <path d="
M0 0
L0 -2" id="mf0ff38ea95"/>
      </defs>
      <g>
       <use style="stroke:#000000;stroke-linecap:butt;stroke-width:0.5;" x="109.519780586" xlink:href="#mf0ff38ea95" y="16.276875"/>
      </g>
     </g>
    </g>
    <g id="xtick_8">
     <g id="line2d_13">
      <defs>
       <path d="
M0 0
L0 -2" id="mf0ff38ea95"/>
      </defs>
      <g>
       <use style="stroke:#000000;stroke-linecap:butt;stroke-width:0.5;" x="134.233404952" xlink:href="#mf0ff38ea95" y="16.276875"/>
      </g>
     </g>
    </g>
    <g id="xtick_9">
     <g id="line2d_14">
      <defs>
       <path d="
M0 0
L0 -2" id="mf0ff38ea95"/>
      </defs>
      <g>
       <use style="stroke:#000000;stroke-linecap:butt;stroke-width:0.5;" x="183.660653684" xlink:href="#mf0ff38ea95" y="16.276875"/>
      </g>
     </g>
    </g>
    <g id="xtick_10">
     <g id="line2d_15">
      <defs>
       <path d="
M0 0
L0 -2" id="mf0ff38ea95"/>
      </defs>
      <g>
       <use style="stroke:#000000;stroke-linecap:butt;stroke-width:0.5;" x="208.37427805" xlink:href="#mf0ff38ea95" y="16.276875"/>
      </g>
     </g>
    </g>
    <g id="xtick_11">
     <g id="line2d_16">
      <defs>
       <path d="
M0 0
L0 -2" id="mf0ff38ea95"/>
      </defs>
      <g>
       <use style="stroke:#000000;stroke-linecap:butt;stroke-width:0.5;" x="233.087902416" xlink:href="#mf0ff38ea95" y="16.276875"/>
      </g>
     </g>
    </g>
    <g id="xtick_12">
     <g id="line2d_17">
      <defs>
       <path d="
M0 0
L0 -2" id="mf0ff38ea95"/>
      </defs>
      <g>
       <use style="stroke:#000000;stroke-linecap:butt;stroke-width:0.5;" x="257.801526782" xlink:href="#mf0ff38ea95" y="16.276875"/>
      </g>
     </g>
    </g>
    <g id="xtick_13">
     <g id="line2d_18">
      <defs>
       <path d="
M0 0
L0 -2" id="mf0ff38ea95"/>
      </defs>
      <g>
       <use style="stroke:#000000;stroke-linecap:butt;stroke-width:0.5;" x="307.228775514" xlink:href="#mf0ff38ea95" y="16.276875"/>
      </g>
     </g>
    </g>
    <g id="xtick_14">
     <g id="line2d_19">
      <defs>
       <path d="
M0 0
L0 -2" id="mf0ff38ea95"/>
      </defs>
      <g>
       <use style="stroke:#000000;stroke-linecap:butt;stroke-width:0.5;" x="331.94239988" xlink:href="#mf0ff38ea95" y="16.276875"/>
      </g>
     </g>
    </g>
    <g id="xtick_15">
     <g id="line2d_20">
      <defs>
       <path d="
M0 0
L0 -2" id="mf0ff38ea95"/>
      </defs>
      <g>
       <use style="stroke:#000000;stroke-linecap:butt;stroke-width:0.5;" x="356.656024246" xlink:href="#mf0ff38ea95" y="16.276875"/>
      </g>
     </g>
    </g>
    <g id="xtick_16">
     <g id="line2d_21">
      <defs>
       <path d="
M0 0
L0 -2" id="mf0ff38ea95"/>
      </defs>
      <g>
       <use style="stroke:#000000;stroke-linecap:butt;stroke-width:0.5;" x="381.369648612" xlink:href="#mf0ff38ea95" y="16.276875"/>
      </g>
     </g>
    </g>
    <g id="xtick_17">
     <g id="line2d_22">
      <defs>
       <path d="
M0 0
L0 -2" id="mf0ff38ea95"/>
      </defs>
      <g>
       <use style="stroke:#000000;stroke-linecap:butt;stroke-width:0.5;" x="430.796897344" xlink:href="#mf0ff38ea95" y="16.276875"/>
      </g>
     </g>
    </g>
    <g id="xtick_18">
     <g id="line2d_23">
      <defs>
       <path d="
M0 0
L0 -2" id="mf0ff38ea95"/>
      </defs>
      <g>
       <use style="stroke:#000000;stroke-linecap:butt;stroke-width:0.5;" x="455.510521709" xlink:href="#mf0ff38ea95" y="16.276875"/>
      </g>
     </g>
    </g>
    <g id="xtick_19">
     <g id="line2d_24">
      <defs>
       <path d="
M0 0
L0 -2" id="mf0ff38ea95"/>
      </defs>
      <g>
       <use style="stroke:#000000;stroke-linecap:butt;stroke-width:0.5;" x="480.224146075" xlink:href="#mf0ff38ea95" y="16.276875"/>
      </g>
     </g>
    </g>
    <g id="xtick_20">
     <g id="line2d_25">
      <defs>
       <path d="
M0 0
L0 -2" id="mf0ff38ea95"/>
      </defs>
      <g>
       <use style="stroke:#000000;stroke-linecap:butt;stroke-width:0.5;" x="504.937770441" xlink:href="#mf0ff38ea95" y="16.276875"/>
      </g>
     </g>
    </g>
   </g>
   <g id="matplotlib.axis_2">
    <g id="ytick_1">
     <g id="line2d_26">
      <path d="
M42.6088 387.543
L557.426 387.543" style="fill:none;stroke:#000000;stroke-dasharray:1.000000,3.000000;stroke-dashoffset:0.0;stroke-linecap:butt;stroke-width:0.5;"/>
     </g>
     <g id="line2d_27">
      <defs>
       <path d="
M0 0
L4 0" id="mc91e532072"/>
      </defs>
      <g>
       <use style="stroke:#000000;stroke-linecap:butt;stroke-width:0.5;" x="32.60875" xlink:href="#mc91e532072" y="387.542849835"/>
      </g>
     </g>
     <g id="text_5">
      <!-- -5 -->
      <defs>
       <path d="
M4.89062 31.3906
L31.2031 31.3906
L31.2031 23.3906
L4.89062 23.3906
z
" id="BitstreamVeraSans-Roman-2d"/>
      </defs>
      <g transform="translate(7.95 396.120974835)scale(0.24 -0.24)">
       <use xlink:href="#BitstreamVeraSans-Roman-2d"/>
       <use x="36.083984375" xlink:href="#BitstreamVeraSans-Roman-35"/>
      </g>
     </g>
    </g>
    <g id="ytick_2">
     <g id="line2d_28">
      <path d="
M42.6088 313.29
L557.426 313.29" style="fill:none;stroke:#000000;stroke-dasharray:1.000000,3.000000;stroke-dashoffset:0.0;stroke-linecap:butt;stroke-width:0.5;"/>
     </g>
     <g id="line2d_29">
      <defs>
       <path d="
M0 0
L4 0" id="mc91e532072"/>
      </defs>
      <g>
       <use style="stroke:#000000;stroke-linecap:butt;stroke-width:0.5;" x="32.60875" xlink:href="#mc91e532072" y="313.289654868"/>
      </g>
     </g>
     <g id="text_6">
      <!-- -4 -->
      <defs>
       <path d="
M37.7969 64.3125
L12.8906 25.3906
L37.7969 25.3906
z

M35.2031 72.9062
L47.6094 72.9062
L47.6094 25.3906
L58.0156 25.3906
L58.0156 17.1875
L47.6094 17.1875
L47.6094 0
L37.7969 0
L37.7969 17.1875
L4.89062 17.1875
L4.89062 26.7031
z
" id="BitstreamVeraSans-Roman-34"/>
      </defs>
      <g transform="translate(7.2 322.038404868)scale(0.24 -0.24)">
       <use xlink:href="#BitstreamVeraSans-Roman-2d"/>
       <use x="36.083984375" xlink:href="#BitstreamVeraSans-Roman-34"/>
      </g>
     </g>
    </g>
    <g id="ytick_3">
     <g id="line2d_30">
      <path d="
M42.6088 239.036
L557.426 239.036" style="fill:none;stroke:#000000;stroke-dasharray:1.000000,3.000000;stroke-dashoffset:0.0;stroke-linecap:butt;stroke-width:0.5;"/>
     </g>
     <g id="line2d_31">
      <defs>
       <path d="
M0 0
L4 0" id="mc91e532072"/>
      </defs>
      <g>
       <use style="stroke:#000000;stroke-linecap:butt;stroke-width:0.5;" x="32.60875" xlink:href="#mc91e532072" y="239.036459901"/>
      </g>
     </g>
     <g id="text_7">
      <!-- -3 -->
      <defs>
       <path d="
M40.5781 39.3125
Q47.6562 37.7969 51.625 33
Q55.6094 28.2188 55.6094 21.1875
Q55.6094 10.4062 48.1875 4.48438
Q40.7656 -1.42188 27.0938 -1.42188
Q22.5156 -1.42188 17.6562 -0.515625
Q12.7969 0.390625 7.625 2.20312
L7.625 11.7188
Q11.7188 9.32812 16.5938 8.10938
Q21.4844 6.89062 26.8125 6.89062
Q36.0781 6.89062 40.9375 10.5469
Q45.7969 14.2031 45.7969 21.1875
Q45.7969 27.6406 41.2812 31.2656
Q36.7656 34.9062 28.7188 34.9062
L20.2188 34.9062
L20.2188 43.0156
L29.1094 43.0156
Q36.375 43.0156 40.2344 45.9219
Q44.0938 48.8281 44.0938 54.2969
Q44.0938 59.9062 40.1094 62.9062
Q36.1406 65.9219 28.7188 65.9219
Q24.6562 65.9219 20.0156 65.0312
Q15.375 64.1562 9.8125 62.3125
L9.8125 71.0938
Q15.4375 72.6562 20.3438 73.4375
Q25.25 74.2188 29.5938 74.2188
Q40.8281 74.2188 47.3594 69.1094
Q53.9062 64.0156 53.9062 55.3281
Q53.9062 49.2656 50.4375 45.0938
Q46.9688 40.9219 40.5781 39.3125" id="BitstreamVeraSans-Roman-33"/>
      </defs>
      <g transform="translate(7.7775 247.772084901)scale(0.24 -0.24)">
       <use xlink:href="#BitstreamVeraSans-Roman-2d"/>
       <use x="36.083984375" xlink:href="#BitstreamVeraSans-Roman-33"/>
      </g>
     </g>
    </g>
    <g id="ytick_4">
     <g id="line2d_32">
      <path d="
M42.6088 164.783
L557.426 164.783" style="fill:none;stroke:#000000;stroke-dasharray:1.000000,3.000000;stroke-dashoffset:0.0;stroke-linecap:butt;stroke-width:0.5;"/>
     </g>
     <g id="line2d_33">
      <defs>
       <path d="
M0 0
L4 0" id="mc91e532072"/>
      </defs>
      <g>
       <use style="stroke:#000000;stroke-linecap:butt;stroke-width:0.5;" x="32.60875" xlink:href="#mc91e532072" y="164.783264934"/>
      </g>
     </g>
     <g id="text_8">
      <!-- -2 -->
      <g transform="translate(8.2575 173.689514934)scale(0.24 -0.24)">
       <use xlink:href="#BitstreamVeraSans-Roman-2d"/>
       <use x="36.083984375" xlink:href="#BitstreamVeraSans-Roman-32"/>
      </g>
     </g>
    </g>
    <g id="ytick_5">
     <g id="line2d_34">
      <path d="
M42.6088 90.5301
L557.426 90.5301" style="fill:none;stroke:#000000;stroke-dasharray:1.000000,3.000000;stroke-dashoffset:0.0;stroke-linecap:butt;stroke-width:0.5;"/>
     </g>
     <g id="line2d_35">
      <defs>
       <path d="
M0 0
L4 0" id="mc91e532072"/>
      </defs>
      <g>
       <use style="stroke:#000000;stroke-linecap:butt;stroke-width:0.5;" x="32.60875" xlink:href="#mc91e532072" y="90.5300699671"/>
      </g>
     </g>
     <g id="text_9">
      <!-- -1 -->
      <g transform="translate(8.07 99.2788199671)scale(0.24 -0.24)">
       <use xlink:href="#BitstreamVeraSans-Roman-2d"/>
       <use x="36.083984375" xlink:href="#BitstreamVeraSans-Roman-31"/>
      </g>
     </g>
    </g>
    <g id="ytick_6">
     <g id="line2d_36">
      <path d="
M42.6088 16.2769
L557.426 16.2769" style="fill:none;stroke:#000000;stroke-dasharray:1.000000,3.000000;stroke-dashoffset:0.0;stroke-linecap:butt;stroke-width:0.5;"/>
     </g>
     <g id="line2d_37">
      <defs>
       <path d="
M0 0
L4 0" id="mc91e532072"/>
      </defs>
      <g>
       <use style="stroke:#000000;stroke-linecap:butt;stroke-width:0.5;" x="32.60875" xlink:href="#mc91e532072" y="16.276875"/>
      </g>
     </g>
     <g id="text_10">
      <!-- 0 -->
      <g transform="translate(16.515 25.0125)scale(0.24 -0.24)">
       <use xlink:href="#BitstreamVeraSans-Roman-30"/>
      </g>
     </g>
    </g>
    <g id="ytick_7">
     <g id="line2d_38">
      <defs>
       <path d="
M0 0
L2 0" id="m0789224b6b"/>
      </defs>
      <g>
       <use style="stroke:#000000;stroke-linecap:butt;stroke-width:0.5;" x="32.60875" xlink:href="#m0789224b6b" y="402.393488829"/>
      </g>
     </g>
    </g>
    <g id="ytick_8">
     <g id="line2d_39">
      <defs>
       <path d="
M0 0
L2 0" id="m0789224b6b"/>
      </defs>
      <g>
       <use style="stroke:#000000;stroke-linecap:butt;stroke-width:0.5;" x="32.60875" xlink:href="#m0789224b6b" y="372.692210842"/>
      </g>
     </g>
    </g>
    <g id="ytick_9">
     <g id="line2d_40">
      <defs>
       <path d="
M0 0
L2 0" id="m0789224b6b"/>
      </defs>
      <g>
       <use style="stroke:#000000;stroke-linecap:butt;stroke-width:0.5;" x="32.60875" xlink:href="#m0789224b6b" y="357.841571848"/>
      </g>
     </g>
    </g>
    <g id="ytick_10">
     <g id="line2d_41">
      <defs>
       <path d="
M0 0
L2 0" id="m0789224b6b"/>
      </defs>
      <g>
       <use style="stroke:#000000;stroke-linecap:butt;stroke-width:0.5;" x="32.60875" xlink:href="#m0789224b6b" y="342.990932855"/>
      </g>
     </g>
    </g>
    <g id="ytick_11">
     <g id="line2d_42">
      <defs>
       <path d="
M0 0
L2 0" id="m0789224b6b"/>
      </defs>
      <g>
       <use style="stroke:#000000;stroke-linecap:butt;stroke-width:0.5;" x="32.60875" xlink:href="#m0789224b6b" y="328.140293862"/>
      </g>
     </g>
    </g>
    <g id="ytick_12">
     <g id="line2d_43">
      <defs>
       <path d="
M0 0
L2 0" id="m0789224b6b"/>
      </defs>
      <g>
       <use style="stroke:#000000;stroke-linecap:butt;stroke-width:0.5;" x="32.60875" xlink:href="#m0789224b6b" y="298.439015875"/>
      </g>
     </g>
    </g>
    <g id="ytick_13">
     <g id="line2d_44">
      <defs>
       <path d="
M0 0
L2 0" id="m0789224b6b"/>
      </defs>
      <g>
       <use style="stroke:#000000;stroke-linecap:butt;stroke-width:0.5;" x="32.60875" xlink:href="#m0789224b6b" y="283.588376881"/>
      </g>
     </g>
    </g>
    <g id="ytick_14">
     <g id="line2d_45">
      <defs>
       <path d="
M0 0
L2 0" id="m0789224b6b"/>
      </defs>
      <g>
       <use style="stroke:#000000;stroke-linecap:butt;stroke-width:0.5;" x="32.60875" xlink:href="#m0789224b6b" y="268.737737888"/>
      </g>
     </g>
    </g>
    <g id="ytick_15">
     <g id="line2d_46">
      <defs>
       <path d="
M0 0
L2 0" id="m0789224b6b"/>
      </defs>
      <g>
       <use style="stroke:#000000;stroke-linecap:butt;stroke-width:0.5;" x="32.60875" xlink:href="#m0789224b6b" y="253.887098895"/>
      </g>
     </g>
    </g>
    <g id="ytick_16">
     <g id="line2d_47">
      <defs>
       <path d="
M0 0
L2 0" id="m0789224b6b"/>
      </defs>
      <g>
       <use style="stroke:#000000;stroke-linecap:butt;stroke-width:0.5;" x="32.60875" xlink:href="#m0789224b6b" y="239.036459901"/>
      </g>
     </g>
    </g>
    <g id="ytick_17">
     <g id="line2d_48">
      <defs>
       <path d="
M0 0
L2 0" id="m0789224b6b"/>
      </defs>
      <g>
       <use style="stroke:#000000;stroke-linecap:butt;stroke-width:0.5;" x="32.60875" xlink:href="#m0789224b6b" y="224.185820908"/>
      </g>
     </g>
    </g>
    <g id="ytick_18">
     <g id="line2d_49">
      <defs>
       <path d="
M0 0
L2 0" id="m0789224b6b"/>
      </defs>
      <g>
       <use style="stroke:#000000;stroke-linecap:butt;stroke-width:0.5;" x="32.60875" xlink:href="#m0789224b6b" y="209.335181914"/>
      </g>
     </g>
    </g>
    <g id="ytick_19">
     <g id="line2d_50">
      <defs>
       <path d="
M0 0
L2 0" id="m0789224b6b"/>
      </defs>
      <g>
       <use style="stroke:#000000;stroke-linecap:butt;stroke-width:0.5;" x="32.60875" xlink:href="#m0789224b6b" y="194.484542921"/>
      </g>
     </g>
    </g>
    <g id="ytick_20">
     <g id="line2d_51">
      <defs>
       <path d="
M0 0
L2 0" id="m0789224b6b"/>
      </defs>
      <g>
       <use style="stroke:#000000;stroke-linecap:butt;stroke-width:0.5;" x="32.60875" xlink:href="#m0789224b6b" y="179.633903928"/>
      </g>
     </g>
    </g>
    <g id="ytick_21">
     <g id="line2d_52">
      <defs>
       <path d="
M0 0
L2 0" id="m0789224b6b"/>
      </defs>
      <g>
       <use style="stroke:#000000;stroke-linecap:butt;stroke-width:0.5;" x="32.60875" xlink:href="#m0789224b6b" y="164.783264934"/>
      </g>
     </g>
    </g>
    <g id="ytick_22">
     <g id="line2d_53">
      <defs>
       <path d="
M0 0
L2 0" id="m0789224b6b"/>
      </defs>
      <g>
       <use style="stroke:#000000;stroke-linecap:butt;stroke-width:0.5;" x="32.60875" xlink:href="#m0789224b6b" y="149.932625941"/>
      </g>
     </g>
    </g>
    <g id="ytick_23">
     <g id="line2d_54">
      <defs>
       <path d="
M0 0
L2 0" id="m0789224b6b"/>
      </defs>
      <g>
       <use style="stroke:#000000;stroke-linecap:butt;stroke-width:0.5;" x="32.60875" xlink:href="#m0789224b6b" y="135.081986947"/>
      </g>
     </g>
    </g>
    <g id="ytick_24">
     <g id="line2d_55">
      <defs>
       <path d="
M0 0
L2 0" id="m0789224b6b"/>
      </defs>
      <g>
       <use style="stroke:#000000;stroke-linecap:butt;stroke-width:0.5;" x="32.60875" xlink:href="#m0789224b6b" y="120.231347954"/>
      </g>
     </g>
    </g>
    <g id="ytick_25">
     <g id="line2d_56">
      <defs>
       <path d="
M0 0
L2 0" id="m0789224b6b"/>
      </defs>
      <g>
       <use style="stroke:#000000;stroke-linecap:butt;stroke-width:0.5;" x="32.60875" xlink:href="#m0789224b6b" y="105.38070896"/>
      </g>
     </g>
    </g>
    <g id="ytick_26">
     <g id="line2d_57">
      <defs>
       <path d="
M0 0
L2 0" id="m0789224b6b"/>
      </defs>
      <g>
       <use style="stroke:#000000;stroke-linecap:butt;stroke-width:0.5;" x="32.60875" xlink:href="#m0789224b6b" y="90.5300699671"/>
      </g>
     </g>
    </g>
    <g id="ytick_27">
     <g id="line2d_58">
      <defs>
       <path d="
M0 0
L2 0" id="m0789224b6b"/>
      </defs>
      <g>
       <use style="stroke:#000000;stroke-linecap:butt;stroke-width:0.5;" x="32.60875" xlink:href="#m0789224b6b" y="75.6794309736"/>
      </g>
     </g>
    </g>
    <g id="ytick_28">
     <g id="line2d_59">
      <defs>
       <path d="
M0 0
L2 0" id="m0789224b6b"/>
      </defs>
      <g>
       <use style="stroke:#000000;stroke-linecap:butt;stroke-width:0.5;" x="32.60875" xlink:href="#m0789224b6b" y="60.8287919802"/>
      </g>
     </g>
    </g>
    <g id="ytick_29">
     <g id="line2d_60">
      <defs>
       <path d="
M0 0
L2 0" id="m0789224b6b"/>
      </defs>
      <g>
       <use style="stroke:#000000;stroke-linecap:butt;stroke-width:0.5;" x="32.60875" xlink:href="#m0789224b6b" y="45.9781529868"/>
      </g>
     </g>
    </g>
    <g id="ytick_30">
     <g id="line2d_61">
      <defs>
       <path d="
M0 0
L2 0" id="m0789224b6b"/>
      </defs>
      <g>
       <use style="stroke:#000000;stroke-linecap:butt;stroke-width:0.5;" x="32.60875" xlink:href="#m0789224b6b" y="31.1275139934"/>
      </g>
     </g>
    </g>
   </g>
   <g id="patch_3">
    <path d="
M42.6088 16.2769
L557.426 16.2769" style="fill:none;stroke:#000000;stroke-width:0.8;"/>
   </g>
   <g id="patch_4">
    <path d="
M32.6088 412.239
L32.6088 8.51291" style="fill:none;stroke:#000000;stroke-width:0.8;"/>
   </g>
  </g>
 </g>
 <defs>
  <clipPath id="p10490cade4">
   <rect height="403.726153846" width="514.8175" x="42.60875" y="8.51291050296"/>
  </clipPath>
 </defs>
</svg>
