<?xml version="1.0" encoding="utf-8" standalone="no"?>
<!DOCTYPE svg PUBLIC "-//W3C//DTD SVG 1.1//EN"
  "http://www.w3.org/Graphics/SVG/1.1/DTD/svg11.dtd">
<!-- Created with matplotlib (http://matplotlib.sourceforge.net/) -->
<svg height="418pt" version="1.1" viewBox="0 0 564 418" width="564pt" xmlns="http://www.w3.org/2000/svg" xmlns:xlink="http://www.w3.org/1999/xlink">
 <defs>
  <style type="text/css">
*{stroke-linecap:square;stroke-linejoin:round;}
  </style>
 </defs>
 <g id="figure_1">
  <g id="patch_1">
   <path d="
M-4.44089e-16 418.289
L564.499 418.289
L564.499 0
L-4.44089e-16 0
z
" style="fill:#ffffff;"/>
  </g>
  <g id="axes_1">
   <g id="patch_2">
    <path d="
M64.7562 410.895
L557.299 410.895
L557.299 8.53926
L64.7562 8.53926
z
" style="fill:#ffffff;"/>
   </g>
   <g id="line2d_1">
    <path clip-path="url(#pd59c52e761)" d="
M74.2282 16.2769
L83.8152 16.2769
L83.8152 25.4323
L95.8933 25.4323
L95.8933 88.1158
L103.849 88.1158
L103.849 122.047
L114.536 122.047
L114.536 158.438
L118.486 158.438
L118.486 171.458
L124.829 171.458
L124.829 190.83
L127.458 190.83
L127.458 198.27
L131.976 198.27
L131.976 212.054
L137.457 212.054
L137.457 227.525
L139.034 227.525
L139.034 231.842
L143.217 231.842
L143.217 242.266
L145.644 242.266
L145.644 247.405
L146.77 247.405
L146.77 249.589
L148.873 249.589
L148.873 254.012
L151.714 254.012
L151.714 260.208
L154.25 260.208
L154.25 265.781
L155.038 265.781
L155.038 267.623
L157.256 267.623
L157.256 272.599
L158.627 272.599
L158.627 275.823
L159.284 275.823
L159.284 277.417
L161.152 277.417
L161.152 282.255
L162.32 282.255
L162.32 284.91
L163.97 284.91
L163.97 288.516
L166.005 288.516
L166.005 292.294
L166.961 292.294
L166.961 293.878
L167.424 293.878
L167.424 294.599
L168.325 294.599
L168.325 295.959
L168.763 295.959
L168.763 296.534
L169.615 296.534
L169.615 297.545
L172.377 297.545
L172.377 300.722
L173.11 300.722
L173.11 301.446
L174.169 301.446
L174.169 302.522
L174.512 302.522
L174.512 302.868
L176.154 302.868
L176.154 304.394
L176.469 304.394
L176.469 304.657
L177.391 304.657
L177.391 305.331
L178.277 305.331
L178.277 305.921
L178.851 305.921
L178.851 306.304
L179.685 306.304
L179.685 306.892
L180.491 306.892
L180.491 307.489
L180.754 307.489
L180.754 307.661
L182.026 307.661
L182.026 308.297
L182.272 308.297
L182.272 308.44
L182.757 308.44
L182.757 308.756
L182.996 308.756
L182.996 308.939
L184.38 308.939
L184.38 310.066
L185.688 310.066
L185.688 311.154
L186.108 311.154
L186.108 311.443
L186.316 311.443
L186.316 311.612
L186.725 311.612
L186.725 311.962
L187.326 311.962
L187.326 312.418
L187.524 312.418
L187.524 312.58
L188.485 312.58
L188.485 313.484
L189.043 313.484
L189.043 313.972
L189.589 313.972
L189.589 314.482
L190.122 314.482
L190.122 314.965
L190.298 314.965
L190.298 315.132
L190.815 315.132
L190.815 315.578
L191.154 315.578
L191.154 315.884
L191.322 315.884
L191.322 316.017
L192.143 316.017
L192.143 316.707
L193.247 316.707
L193.247 317.56
L193.553 317.56
L193.553 317.808
L193.704 317.808
L193.704 317.948
L194.005 317.948
L194.005 318.237
L195.026 318.237
L195.026 319.275
L195.451 319.275
L195.451 319.701
L196.143 319.701
L196.143 320.361
L196.278 320.361
L196.278 320.484
L196.548 320.484
L196.548 320.755
L196.946 320.755
L196.946 321.193
L197.467 321.193
L197.467 321.781
L197.851 321.781
L197.851 322.169
L198.228 322.169
L198.228 322.547
L198.476 322.547
L198.476 322.781
L198.844 322.781
L198.844 323.153
L199.325 323.153
L199.325 323.636
L199.562 323.636
L199.562 323.864
L200.029 323.864
L200.029 324.331
L200.601 324.331
L200.601 324.937
L200.713 324.937
L200.713 325.061
L201.268 325.061
L201.378 325.774
L201.703 325.774
L201.703 326.128
L201.918 326.128
L201.918 326.354
L202.236 326.354
L202.236 326.71
L202.653 326.71
L202.653 327.158
L202.859 327.158
L202.962 327.501
L203.165 327.501
L203.165 327.72
L203.765 327.72
L203.765 328.372
L204.157 328.372
L204.157 328.812
L204.35 328.812
L204.35 329.038
L204.732 329.038
L204.732 329.446
L204.921 329.446
L204.921 329.643
L205.201 329.643
L205.201 329.957
L205.752 329.957
L205.843 330.605
L206.643 330.605
L206.643 331.36
L206.904 331.36
L206.904 331.596
L207.332 331.596
L207.332 331.973
L207.585 331.973
L207.585 332.185
L207.836 332.185
L207.919 332.481
L208.166 332.481
L208.166 332.711
L208.572 332.711
L208.572 333.1
L208.813 333.1
L208.813 333.339
L209.051 333.339
L209.13 333.646
L209.365 333.646
L209.365 333.871
L209.597 333.871
L209.597 334.078
L209.751 334.078
L209.827 334.278
L210.281 334.278
L210.281 334.673
L210.653 334.673
L210.727 335.022
L210.873 335.022
L210.873 335.142
L211.092 335.142
L211.092 335.321
L211.308 335.321
L211.38 335.542
L211.805 335.542
L211.805 335.851
L212.154 335.948
L212.154 336.107
L212.429 336.107
L212.429 336.333
L212.769 336.333
L212.769 336.608
L213.037 336.608
L213.037 336.813
L213.368 336.813
L213.368 337.067
L213.63 337.067
L213.63 337.27
L213.824 337.27
L213.824 337.428
L214.017 337.428
L214.017 337.588
L214.398 337.686
L214.398 337.873
L214.586 337.873
L214.586 338.013
L214.958 338.11
L214.958 338.313
L215.505 338.421
L215.505 338.79
L215.804 338.79
L215.804 339.047
L216.157 339.047
L216.215 339.381
L216.505 339.381
L216.563 339.673
L216.734 339.776
L216.734 339.825
L217.018 339.825
L217.018 340.082
L217.409 340.082
L217.52 340.52
L217.685 340.569
L217.685 340.67
L218.065 340.67
L218.173 341.107
L218.333 341.158
L218.333 341.262
L218.86 341.262
L218.964 341.872
L219.171 341.872
L219.171 342.079
L219.427 342.079
L219.427 342.34
L219.63 342.34
L219.731 342.652
L219.881 342.652
L219.881 342.8
L220.03 342.8
L220.03 342.949
L220.375 342.949
L220.473 343.366
L220.618 343.366
L220.618 343.505
L220.763 343.505
L220.763 343.641
L220.955 343.641
L220.955 343.817
L221.097 343.817
L221.097 343.949
L221.38 343.949
L221.474 344.279
L221.613 344.279
L221.66 344.451
L221.89 344.451
L221.936 344.702
L222.073 344.702
L222.073 344.825
L222.299 344.825
L222.345 345.068
L222.568 345.068
L222.613 345.311
L222.746 345.311
L222.746 345.433
L223.141 345.433
L223.228 345.886
L223.486 345.996
L223.486 346.097
L223.785 346.193
L223.785 346.314
L224.037 346.401
L224.037 346.482
L224.494 346.482
L224.535 346.782
L224.739 346.782
L224.739 346.897
L225.102 346.993
L225.102 347.1
L225.341 347.166
L225.341 347.23
L225.734 347.319
L225.812 347.499
L226.044 347.57
L226.082 347.667
L226.426 347.739
L226.426 347.874
L226.95 347.977
L227.061 348.212
L227.317 348.284
L227.426 348.397
L227.715 348.434
L227.751 348.574
L228.456 348.637
L228.56 349.042
L228.801 349.093
L228.801 349.166
L229.107 349.166
L229.107 349.335
L229.509 349.425
L229.609 349.604
L229.905 349.697
L230.003 349.823
L230.294 349.877
L230.294 349.982
L230.55 350.091
L230.645 350.181
L230.928 350.236
L230.928 350.339
L231.239 350.438
L231.239 350.505
L231.515 350.607
L231.576 350.696
L231.789 350.753
L231.849 350.868
L232.029 350.945
L232.029 350.983
L232.237 350.983
L232.296 351.153
L232.473 351.23
L232.56 351.328
L232.822 351.404
L232.822 351.497
L233.109 351.497
L233.194 351.744
L233.617 351.799
L233.701 352.045
L234.005 352.125
L234.033 352.228
L234.278 352.297
L234.36 352.387
L234.762 352.455
L234.842 352.594
L235.21 352.694
L235.21 352.753
L235.47 352.826
L235.47 352.87
L235.854 352.964
L235.93 353.083
L236.207 353.157
L236.207 353.219
L236.432 353.297
L236.506 353.378
L236.727 353.378
L236.752 353.51
L236.971 353.618
L236.971 353.632
L237.236 353.632
L237.308 353.826
L237.522 353.925
L237.593 353.995
L237.874 354.09
L237.898 354.17
L238.176 354.238
L238.176 354.333
L238.496 354.441
L238.587 354.575
L238.835 354.645
L238.857 354.747
L239.035 354.747
L239.124 354.921
L239.3 354.965
L239.388 355.088
L239.584 355.088
L239.584 355.209
L239.843 355.209
L239.95 355.432
L240.205 355.483
L240.269 355.623
L240.52 355.669
L240.583 355.792
L240.831 355.902
L240.831 355.924
L241.199 355.996
L241.28 356.155
L241.581 356.239
L241.68 356.361
L241.976 356.443
L242.035 356.522
L242.327 356.614
L242.327 356.637
L242.615 356.737
L242.615 356.752
L243.031 356.856
L243.125 356.973
L243.569 357.073
L243.679 357.192
L244.059 357.293
L244.059 357.332
L244.398 357.427
L244.504 357.498
L244.819 357.605
L244.923 357.665
L245.233 357.738
L245.318 357.815
L245.673 357.888
L245.673 357.934
L246.023 358.04
L246.023 358.052
L246.367 358.161
L246.416 358.197
L246.771 358.281
L246.851 358.35
L247.152 358.461
L247.231 358.497
L247.527 358.591
L247.62 358.649
L247.988 358.734
L248.079 358.821
L248.395 358.866
L248.44 358.958
L248.737 359.058
L248.825 359.11
L249.102 359.216
L249.189 359.257
L249.491 359.36
L249.562 359.408
L249.901 359.519
L249.915 359.555
L250.194 359.662
L250.194 359.681
L250.442 359.747
L250.538 359.842
L250.782 359.93
L250.863 359.993
L251.171 360.102
L251.264 360.176
L251.54 360.278
L251.606 360.32
L251.917 360.419
L251.956 360.471
L252.224 360.559
L252.313 360.62
L252.603 360.708
L252.69 360.766
L253.024 360.866
L253.122 360.938
L253.414 361.04
L253.523 361.092
L253.881 361.189
L253.988 361.288
L254.281 361.393
L254.374 361.441
L254.697 361.552
L254.754 361.576
L255.106 361.653
L255.207 361.746
L255.496 361.846
L255.596 361.913
L255.859 362.003
L255.968 362.074
L256.248 362.165
L256.323 362.224
L256.631 362.315
L256.694 362.377
L257.05 362.482
L257.081 362.515
L257.44 362.608
L257.542 362.671
L257.865 362.753
L257.925 362.807
L258.223 362.912
L258.321 362.958
L258.634 363.069
L258.692 363.104
L258.99 363.205
L259.094 363.254
L259.462 363.361
L259.5 363.396
L259.908 363.495
L260.018 363.582
L260.426 363.687
L260.515 363.753
L260.959 363.859
L261.038 363.933
L261.386 364.044
L261.489 364.083
L261.788 364.191
L261.864 364.228
L262.142 364.336
L262.25 364.387
L262.646 364.497
L262.736 364.581
L263.052 364.688
L263.148 364.743
L263.458 364.825
L263.561 364.914
L263.881 365.024
L263.975 365.075
L264.297 365.165
L264.389 365.237
L264.683 365.332
L264.773 365.388
L265.048 365.49
L265.159 365.553
L265.502 365.657
L265.611 365.755
L265.919 365.865
L266.004 365.931
L266.273 366.042
L266.364 366.088
L266.635 366.19
L266.738 366.242
L267.039 366.342
L267.148 366.397
L267.524 366.504
L267.61 366.56
L267.939 366.667
L268.018 366.705
L268.393 366.811
L268.47 366.854
L268.863 366.962
L268.963 367.004
L269.336 367.106
L269.441 367.155
L269.897 367.258
L269.987 367.289
L270.45 367.388
L270.538 367.423
L271.1 367.529
L271.197 367.562
L271.772 367.664
L271.877 367.699
L272.532 367.805
L272.64 367.835
L273.139 367.946
L273.249 367.977
L273.694 368.086
L273.786 368.118
L274.181 368.225
L274.246 368.253
L274.614 368.345
L274.722 368.413
L275.088 368.523
L275.175 368.558
L275.628 368.662
L275.704 368.7
L276.179 368.811
L276.285 368.848
L276.736 368.955
L276.835 368.989
L277.231 369.094
L277.328 369.135
L277.734 369.245
L277.837 369.273
L278.234 369.383
L278.318 369.411
L278.674 369.514
L278.757 369.549
L279.115 369.66
L279.188 369.686
L279.539 369.797
L279.603 369.82
L279.995 369.92
L280.066 369.955
L280.485 370.062
L280.589 370.094
L281.018 370.203
L281.112 370.238
L281.524 370.346
L281.63 370.38
L282.034 370.489
L282.135 370.527
L282.498 370.635
L282.604 370.676
L282.939 370.786
L283.05 370.828
L283.362 370.939
L283.454 370.974
L283.747 371.073
L283.858 371.13
L284.182 371.237
L284.284 371.288
L284.603 371.399
L284.693 371.434
L285.007 371.544
L285.115 371.591
L285.404 371.698
L285.51 371.747
L285.807 371.854
L285.914 371.895
L286.245 372.005
L286.351 372.049
L286.664 372.15
L286.773 372.201
L287.052 372.311
L287.124 372.347
L287.376 372.45
L287.479 372.505
L287.735 372.615
L287.826 372.66
L288.07 372.768
L288.173 372.819
L288.411 372.92
L288.513 372.98
L288.75 373.088
L288.855 373.153
L289.07 373.261
L289.177 373.326
L289.389 373.433
L289.495 373.492
L289.704 373.6
L289.813 373.662
L290.03 373.773
L290.133 373.827
L290.362 373.925
L290.466 373.99
L290.722 374.099
L290.826 374.165
L291.073 374.271
L291.181 374.325
L291.452 374.435
L291.534 374.475
L291.812 374.579
L291.914 374.628
L292.204 374.737
L292.307 374.78
L292.609 374.89
L292.712 374.936
L292.993 375.044
L293.094 375.089
L293.402 375.2
L293.511 375.243
L293.93 375.354
L294.024 375.423
L294.411 375.516
L294.518 375.584
L294.904 375.678
L294.994 375.732
L295.388 375.82
L295.499 375.883
L295.877 375.975
L295.977 376.037
L296.371 376.125
L296.477 376.183
L296.963 376.293
L297.051 376.346
L297.56 376.447
L297.643 376.493
L298.13 376.588
L298.23 376.635
L298.719 376.746
L298.815 376.8
L299.207 376.901
L299.306 376.97
L299.699 377.081
L299.801 377.154
L300.189 377.256
L300.286 377.322
L300.677 377.422
L300.677 377.456
L301.08 377.555
L301.168 377.615
L301.574 377.699
L301.657 377.75
L302.154 377.855
L302.249 377.908
L302.65 377.989
L302.749 378.05
L303.133 378.137
L303.231 378.196
L303.62 378.286
L303.72 378.342
L304.11 378.433
L304.211 378.493
L304.632 378.582
L304.697 378.646
L305.101 378.734
L305.191 378.786
L305.681 378.89
L305.787 378.943
L306.265 379.05
L306.362 379.099
L306.853 379.204
L306.953 379.253
L307.443 379.355
L307.543 379.408
L308.03 379.517
L308.13 379.57
L308.617 379.674
L308.718 379.725
L309.209 379.822
L309.305 379.869
L309.791 379.968
L309.901 380.021
L310.382 380.131
L310.487 380.175
L310.972 380.275
L311.067 380.325
L311.558 380.422
L311.665 380.472
L312.147 380.577
L312.246 380.634
L312.736 380.732
L312.833 380.78
L313.321 380.87
L313.417 380.912
L314.005 381.01
L314.111 381.052
L314.789 381.154
L314.894 381.188
L315.58 381.29
L315.676 381.324
L316.362 381.429
L316.456 381.471
L317.141 381.58
L317.244 381.612
L318.123 381.712
L318.221 381.733
L319.395 381.838
L319.494 381.855
L320.571 381.965
L320.673 381.991
L322.139 382.098
L322.238 382.112
L324.102 382.217
L324.198 382.235
L325.276 382.344
L325.373 382.371
L326.159 382.473
L326.256 382.498
L327.042 382.598
L327.138 382.627
L327.921 382.737
L328.019 382.772
L328.708 382.87
L328.804 382.9
L329.391 382.993
L329.492 383.033
L330.175 383.143
L330.273 383.178
L330.96 383.287
L331.061 383.327
L331.752 383.433
L331.843 383.466
L332.528 383.572
L332.626 383.605
L333.312 383.714
L333.41 383.753
L333.997 383.856
L334.095 383.899
L334.782 384.006
L334.882 384.035
L335.665 384.138
L335.761 384.168
L336.74 384.276
L336.84 384.301
L337.723 384.41
L337.818 384.44
L338.602 384.551
L338.703 384.583
L339.289 384.674
L339.388 384.715
L339.978 384.822
L340.074 384.868
L340.57 384.961
L340.662 385.007
L341.153 385.103
L341.249 385.147
L341.837 385.246
L341.936 385.281
L342.62 385.381
L342.719 385.417
L343.406 385.522
L343.503 385.552
L344.286 385.662
L344.384 385.689
L345.17 385.787
L345.266 385.814
L346.05 385.92
L346.149 385.953
L346.835 386.06
L346.939 386.103
L347.423 386.19
L347.52 386.24
L348.012 386.332
L348.108 386.375
L348.698 386.481
L348.794 386.52
L349.384 386.614
L349.48 386.654
L350.166 386.764
L350.266 386.796
L351.146 386.907
L351.244 386.931
L352.129 387.04
L352.226 387.074
L352.91 387.175
L353.009 387.209
L353.694 387.309
L353.792 387.343
L354.478 387.451
L354.576 387.487
L355.263 387.587
L355.361 387.621
L356.046 387.732
L356.144 387.768
L356.732 387.868
L356.831 387.906
L357.418 388.005
L357.516 388.04
L358.104 388.135
L358.204 388.17
L358.888 388.281
L358.986 388.321
L359.576 388.417
L359.672 388.455
L360.358 388.554
L360.456 388.583
L361.142 388.68
L361.24 388.708
L362.024 388.814
L362.122 388.843
L363.005 388.954
L363.103 388.98
L363.886 389.077
L363.983 389.109
L364.67 389.211
L364.767 389.248
L365.454 389.358
L365.553 389.395
L366.237 389.5
L366.336 389.536
L367.022 389.639
L367.119 389.673
L367.806 389.768
L367.903 389.802
L368.689 389.905
L368.785 389.932
L369.667 390.042
L369.765 390.07
L370.55 390.176
L370.648 390.203
L371.529 390.311
L371.627 390.336
L372.412 390.441
L372.51 390.474
L373.294 390.583
L373.392 390.614
L374.273 390.721
L374.372 390.752
L375.156 390.856
L375.254 390.888
L376.038 390.997
L376.136 391.025
L376.92 391.124
L377.018 391.156
L377.801 391.262
L377.9 391.294
L378.683 391.403
L378.781 391.43
L379.467 391.528
L379.565 391.562
L380.251 391.665
L380.349 391.701
L381.035 391.801
L381.133 391.832
L381.917 391.936
L382.015 391.966
L382.995 392.075
L383.093 392.097
L384.269 392.205
L384.367 392.224
L385.347 392.323
L385.445 392.347
L386.229 392.444
L386.327 392.474
L387.013 392.571
L387.111 392.604
L387.895 392.708
L387.993 392.733
L388.973 392.839
L389.072 392.86
L390.345 392.966
L390.443 392.984
L391.815 393.093
L391.913 393.113
L393.089 393.22
L393.187 393.236
L394.363 393.339
L394.461 393.356
L395.735 393.465
L395.833 393.487
L397.009 393.594
L397.107 393.612
L398.577 393.721
L398.675 393.739
L400.243 393.85
L400.341 393.865
L402.007 393.974
L402.104 393.986
L403.966 394.093
L404.065 394.107
L405.534 394.217
L405.632 394.232
L407.396 394.34
L407.494 394.351
L408.866 394.453
L408.964 394.471
L410.435 394.579
L410.532 394.599
L411.61 394.7
L411.708 394.72
L412.982 394.823
L413.08 394.842
L414.55 394.95
L414.648 394.962
L417.098 395.069
L417.196 395.08
L419.646 395.19
L419.744 395.199
L422.39 395.309
L422.488 395.323
L423.86 395.426
L423.958 395.444
L424.938 395.545
L425.036 395.568
L425.918 395.674
L426.016 395.702
L426.8 395.803
L426.898 395.831
L427.682 395.928
L427.78 395.956
L428.564 396.056
L428.662 396.084
L429.544 396.188
L429.642 396.217
L430.524 396.324
L430.622 396.35
L431.602 396.461
L431.7 396.485
L432.778 396.594
L432.876 396.617
L433.758 396.716
L433.856 396.743
L434.738 396.849
L434.836 396.875
L435.718 396.976
L435.816 396.998
L436.894 397.103
L436.992 397.125
L437.972 397.228
L438.07 397.251
L439.05 397.353
L439.148 397.376
L440.226 397.484
L440.324 397.505
L441.304 397.604
L441.401 397.628
L442.283 397.729
L442.381 397.755
L443.361 397.864
L443.459 397.884
L444.537 397.988
L444.635 398.008
L445.713 398.112
L445.811 398.131
L447.183 398.237
L447.281 398.252
L448.849 398.356
L448.947 398.373
L450.711 398.484
L450.809 398.491
L453.455 398.6
L453.553 398.609
L456.199 398.719
L456.297 398.725
L460.217 398.835
L460.315 398.844
L462.275 398.953
L462.373 398.966
L464.333 399.075
L464.431 399.085
L466.489 399.196
L466.587 399.21
L468.057 399.315
L468.155 399.332
L469.331 399.436
L469.429 399.451
L470.997 399.558
L471.095 399.57
L472.859 399.678
L472.957 399.688
L477.073 399.796
L477.171 399.802
L480.698 399.912
L480.797 399.919
L483.246 400.028
L483.344 400.038
L485.304 400.147
L485.402 400.16
L487.362 400.268
L487.46 400.279
L489.224 400.386
L489.322 400.397
L491.38 400.505
L491.478 400.516
L494.32 400.625
L494.418 400.632
L496.966 400.737
L497.064 400.748
L499.318 400.857
L499.416 400.865
L501.572 400.973
L501.67 400.983
L503.336 401.088
L503.434 401.101
L505.002 401.209
L505.1 401.224
L506.668 401.333
L506.766 401.348
L508.236 401.457
L508.334 401.473
L510 401.579
L510.098 401.592
L511.862 401.701
L511.96 401.711
L514.116 401.82
L514.214 401.828
L516.958 401.937
L517.056 401.946
L519.212 402.053
L519.31 402.063
L521.465 402.174
L521.563 402.182
L524.111 402.293
L524.209 402.301
L526.855 402.409
L526.953 402.422
L528.717 402.527
L528.815 402.542
L530.285 402.649
L530.383 402.662
L531.951 402.769
L532.049 402.781
L534.205 402.891
L534.303 402.902
L536.655 403.012
L536.753 403.02
L541.457 403.131
L541.555 403.134
L547.827 403.157
L547.827 403.157" style="fill:none;stroke:#0000ff;stroke-width:5.0;"/>
   </g>
   <g id="matplotlib.axis_1">
    <g id="xtick_1">
     <g id="line2d_2">
      <path d="
M176.061 410.895
L176.061 8.53926" style="fill:none;stroke:#000000;stroke-dasharray:1.000000,3.000000;stroke-dashoffset:0.0;stroke-linecap:butt;stroke-width:0.5;"/>
     </g>
     <g id="line2d_3">
      <defs>
       <path d="
M0 0
L0 -4" id="m3fbe6c24f1"/>
      </defs>
      <g>
       <use style="stroke:#000000;stroke-linecap:butt;stroke-width:0.5;" x="176.060832577" xlink:href="#m3fbe6c24f1" y="16.276875"/>
      </g>
     </g>
     <g id="text_1">
      <!-- 5 -->
      <defs>
       <path d="
M10.7969 72.9062
L49.5156 72.9062
L49.5156 64.5938
L19.8281 64.5938
L19.8281 46.7344
Q21.9688 47.4688 24.1094 47.8281
Q26.2656 48.1875 28.4219 48.1875
Q40.625 48.1875 47.75 41.5
Q54.8906 34.8125 54.8906 23.3906
Q54.8906 11.625 47.5625 5.09375
Q40.2344 -1.42188 26.9062 -1.42188
Q22.3125 -1.42188 17.5469 -0.640625
Q12.7969 0.140625 7.71875 1.70312
L7.71875 11.625
Q12.1094 9.23438 16.7969 8.0625
Q21.4844 6.89062 26.7031 6.89062
Q35.1562 6.89062 40.0781 11.3281
Q45.0156 15.7656 45.0156 23.3906
Q45.0156 31 40.0781 35.4375
Q35.1562 39.8906 26.7031 39.8906
Q22.75 39.8906 18.8125 39.0156
Q14.8906 38.1406 10.7969 36.2812
z
" id="BitstreamVeraSans-Roman-35"/>
      </defs>
      <g transform="translate(170.400207577 37.774375)scale(0.24 -0.24)">
       <use xlink:href="#BitstreamVeraSans-Roman-35"/>
      </g>
     </g>
    </g>
    <g id="xtick_2">
     <g id="line2d_4">
      <path d="
M294.282 410.895
L294.282 8.53926" style="fill:none;stroke:#000000;stroke-dasharray:1.000000,3.000000;stroke-dashoffset:0.0;stroke-linecap:butt;stroke-width:0.5;"/>
     </g>
     <g id="line2d_5">
      <defs>
       <path d="
M0 0
L0 -4" id="m3fbe6c24f1"/>
      </defs>
      <g>
       <use style="stroke:#000000;stroke-linecap:butt;stroke-width:0.5;" x="294.282438576" xlink:href="#m3fbe6c24f1" y="16.276875"/>
      </g>
     </g>
     <g id="text_2">
      <!-- 10 -->
      <defs>
       <path d="
M31.7812 66.4062
Q24.1719 66.4062 20.3281 58.9062
Q16.5 51.4219 16.5 36.375
Q16.5 21.3906 20.3281 13.8906
Q24.1719 6.39062 31.7812 6.39062
Q39.4531 6.39062 43.2812 13.8906
Q47.125 21.3906 47.125 36.375
Q47.125 51.4219 43.2812 58.9062
Q39.4531 66.4062 31.7812 66.4062
M31.7812 74.2188
Q44.0469 74.2188 50.5156 64.5156
Q56.9844 54.8281 56.9844 36.375
Q56.9844 17.9688 50.5156 8.26562
Q44.0469 -1.42188 31.7812 -1.42188
Q19.5312 -1.42188 13.0625 8.26562
Q6.59375 17.9688 6.59375 36.375
Q6.59375 54.8281 13.0625 64.5156
Q19.5312 74.2188 31.7812 74.2188" id="BitstreamVeraSans-Roman-30"/>
       <path d="
M12.4062 8.29688
L28.5156 8.29688
L28.5156 63.9219
L10.9844 60.4062
L10.9844 69.3906
L28.4219 72.9062
L38.2812 72.9062
L38.2812 8.29688
L54.3906 8.29688
L54.3906 0
L12.4062 0
z
" id="BitstreamVeraSans-Roman-31"/>
      </defs>
      <g transform="translate(281.127438576 38.089375)scale(0.24 -0.24)">
       <use xlink:href="#BitstreamVeraSans-Roman-31"/>
       <use x="63.623046875" xlink:href="#BitstreamVeraSans-Roman-30"/>
      </g>
     </g>
    </g>
    <g id="xtick_3">
     <g id="line2d_6">
      <path d="
M412.504 410.895
L412.504 8.53926" style="fill:none;stroke:#000000;stroke-dasharray:1.000000,3.000000;stroke-dashoffset:0.0;stroke-linecap:butt;stroke-width:0.5;"/>
     </g>
     <g id="line2d_7">
      <defs>
       <path d="
M0 0
L0 -4" id="m3fbe6c24f1"/>
      </defs>
      <g>
       <use style="stroke:#000000;stroke-linecap:butt;stroke-width:0.5;" x="412.504044575" xlink:href="#m3fbe6c24f1" y="16.276875"/>
      </g>
     </g>
     <g id="text_3">
      <!-- 15 -->
      <g transform="translate(399.600294575 37.774375)scale(0.24 -0.24)">
       <use xlink:href="#BitstreamVeraSans-Roman-31"/>
       <use x="63.623046875" xlink:href="#BitstreamVeraSans-Roman-35"/>
      </g>
     </g>
    </g>
    <g id="xtick_4">
     <g id="line2d_8">
      <path d="
M530.726 410.895
L530.726 8.53926" style="fill:none;stroke:#000000;stroke-dasharray:1.000000,3.000000;stroke-dashoffset:0.0;stroke-linecap:butt;stroke-width:0.5;"/>
     </g>
     <g id="line2d_9">
      <defs>
       <path d="
M0 0
L0 -4" id="m3fbe6c24f1"/>
      </defs>
      <g>
       <use style="stroke:#000000;stroke-linecap:butt;stroke-width:0.5;" x="530.725650574" xlink:href="#m3fbe6c24f1" y="16.276875"/>
      </g>
     </g>
     <g id="text_4">
      <!-- 20 -->
      <defs>
       <path d="
M19.1875 8.29688
L53.6094 8.29688
L53.6094 0
L7.32812 0
L7.32812 8.29688
Q12.9375 14.1094 22.625 23.8906
Q32.3281 33.6875 34.8125 36.5312
Q39.5469 41.8438 41.4219 45.5312
Q43.3125 49.2188 43.3125 52.7812
Q43.3125 58.5938 39.2344 62.25
Q35.1562 65.9219 28.6094 65.9219
Q23.9688 65.9219 18.8125 64.3125
Q13.6719 62.7031 7.8125 59.4219
L7.8125 69.3906
Q13.7656 71.7812 18.9375 73
Q24.125 74.2188 28.4219 74.2188
Q39.75 74.2188 46.4844 68.5469
Q53.2188 62.8906 53.2188 53.4219
Q53.2188 48.9219 51.5312 44.8906
Q49.8594 40.875 45.4062 35.4062
Q44.1875 33.9844 37.6406 27.2188
Q31.1094 20.4531 19.1875 8.29688" id="BitstreamVeraSans-Roman-32"/>
      </defs>
      <g transform="translate(517.131900574 38.089375)scale(0.24 -0.24)">
       <use xlink:href="#BitstreamVeraSans-Roman-32"/>
       <use x="63.623046875" xlink:href="#BitstreamVeraSans-Roman-30"/>
      </g>
     </g>
    </g>
    <g id="xtick_5">
     <g id="line2d_10">
      <defs>
       <path d="
M0 0
L0 -2" id="mf0ff38ea95"/>
      </defs>
      <g>
       <use style="stroke:#000000;stroke-linecap:butt;stroke-width:0.5;" x="81.4835477778" xlink:href="#mf0ff38ea95" y="16.276875"/>
      </g>
     </g>
    </g>
    <g id="xtick_6">
     <g id="line2d_11">
      <defs>
       <path d="
M0 0
L0 -2" id="mf0ff38ea95"/>
      </defs>
      <g>
       <use style="stroke:#000000;stroke-linecap:butt;stroke-width:0.5;" x="105.127868978" xlink:href="#mf0ff38ea95" y="16.276875"/>
      </g>
     </g>
    </g>
    <g id="xtick_7">
     <g id="line2d_12">
      <defs>
       <path d="
M0 0
L0 -2" id="mf0ff38ea95"/>
      </defs>
      <g>
       <use style="stroke:#000000;stroke-linecap:butt;stroke-width:0.5;" x="128.772190177" xlink:href="#mf0ff38ea95" y="16.276875"/>
      </g>
     </g>
    </g>
    <g id="xtick_8">
     <g id="line2d_13">
      <defs>
       <path d="
M0 0
L0 -2" id="mf0ff38ea95"/>
      </defs>
      <g>
       <use style="stroke:#000000;stroke-linecap:butt;stroke-width:0.5;" x="152.416511377" xlink:href="#mf0ff38ea95" y="16.276875"/>
      </g>
     </g>
    </g>
    <g id="xtick_9">
     <g id="line2d_14">
      <defs>
       <path d="
M0 0
L0 -2" id="mf0ff38ea95"/>
      </defs>
      <g>
       <use style="stroke:#000000;stroke-linecap:butt;stroke-width:0.5;" x="199.705153777" xlink:href="#mf0ff38ea95" y="16.276875"/>
      </g>
     </g>
    </g>
    <g id="xtick_10">
     <g id="line2d_15">
      <defs>
       <path d="
M0 0
L0 -2" id="mf0ff38ea95"/>
      </defs>
      <g>
       <use style="stroke:#000000;stroke-linecap:butt;stroke-width:0.5;" x="223.349474977" xlink:href="#mf0ff38ea95" y="16.276875"/>
      </g>
     </g>
    </g>
    <g id="xtick_11">
     <g id="line2d_16">
      <defs>
       <path d="
M0 0
L0 -2" id="mf0ff38ea95"/>
      </defs>
      <g>
       <use style="stroke:#000000;stroke-linecap:butt;stroke-width:0.5;" x="246.993796176" xlink:href="#mf0ff38ea95" y="16.276875"/>
      </g>
     </g>
    </g>
    <g id="xtick_12">
     <g id="line2d_17">
      <defs>
       <path d="
M0 0
L0 -2" id="mf0ff38ea95"/>
      </defs>
      <g>
       <use style="stroke:#000000;stroke-linecap:butt;stroke-width:0.5;" x="270.638117376" xlink:href="#mf0ff38ea95" y="16.276875"/>
      </g>
     </g>
    </g>
    <g id="xtick_13">
     <g id="line2d_18">
      <defs>
       <path d="
M0 0
L0 -2" id="mf0ff38ea95"/>
      </defs>
      <g>
       <use style="stroke:#000000;stroke-linecap:butt;stroke-width:0.5;" x="317.926759776" xlink:href="#mf0ff38ea95" y="16.276875"/>
      </g>
     </g>
    </g>
    <g id="xtick_14">
     <g id="line2d_19">
      <defs>
       <path d="
M0 0
L0 -2" id="mf0ff38ea95"/>
      </defs>
      <g>
       <use style="stroke:#000000;stroke-linecap:butt;stroke-width:0.5;" x="341.571080976" xlink:href="#mf0ff38ea95" y="16.276875"/>
      </g>
     </g>
    </g>
    <g id="xtick_15">
     <g id="line2d_20">
      <defs>
       <path d="
M0 0
L0 -2" id="mf0ff38ea95"/>
      </defs>
      <g>
       <use style="stroke:#000000;stroke-linecap:butt;stroke-width:0.5;" x="365.215402175" xlink:href="#mf0ff38ea95" y="16.276875"/>
      </g>
     </g>
    </g>
    <g id="xtick_16">
     <g id="line2d_21">
      <defs>
       <path d="
M0 0
L0 -2" id="mf0ff38ea95"/>
      </defs>
      <g>
       <use style="stroke:#000000;stroke-linecap:butt;stroke-width:0.5;" x="388.859723375" xlink:href="#mf0ff38ea95" y="16.276875"/>
      </g>
     </g>
    </g>
    <g id="xtick_17">
     <g id="line2d_22">
      <defs>
       <path d="
M0 0
L0 -2" id="mf0ff38ea95"/>
      </defs>
      <g>
       <use style="stroke:#000000;stroke-linecap:butt;stroke-width:0.5;" x="436.148365775" xlink:href="#mf0ff38ea95" y="16.276875"/>
      </g>
     </g>
    </g>
    <g id="xtick_18">
     <g id="line2d_23">
      <defs>
       <path d="
M0 0
L0 -2" id="mf0ff38ea95"/>
      </defs>
      <g>
       <use style="stroke:#000000;stroke-linecap:butt;stroke-width:0.5;" x="459.792686975" xlink:href="#mf0ff38ea95" y="16.276875"/>
      </g>
     </g>
    </g>
    <g id="xtick_19">
     <g id="line2d_24">
      <defs>
       <path d="
M0 0
L0 -2" id="mf0ff38ea95"/>
      </defs>
      <g>
       <use style="stroke:#000000;stroke-linecap:butt;stroke-width:0.5;" x="483.437008175" xlink:href="#mf0ff38ea95" y="16.276875"/>
      </g>
     </g>
    </g>
    <g id="xtick_20">
     <g id="line2d_25">
      <defs>
       <path d="
M0 0
L0 -2" id="mf0ff38ea95"/>
      </defs>
      <g>
       <use style="stroke:#000000;stroke-linecap:butt;stroke-width:0.5;" x="507.081329374" xlink:href="#mf0ff38ea95" y="16.276875"/>
      </g>
     </g>
    </g>
   </g>
   <g id="matplotlib.axis_2">
    <g id="ytick_1">
     <g id="line2d_26">
      <path d="
M64.7562 402.012
L557.299 402.012" style="fill:none;stroke:#000000;stroke-dasharray:1.000000,3.000000;stroke-dashoffset:0.0;stroke-linecap:butt;stroke-width:0.5;"/>
     </g>
     <g id="line2d_27">
      <defs>
       <path d="
M0 0
L4 0" id="mc91e532072"/>
      </defs>
      <g>
       <use style="stroke:#000000;stroke-linecap:butt;stroke-width:0.5;" x="54.75625" xlink:href="#mc91e532072" y="402.012429844"/>
      </g>
     </g>
     <g id="text_5">
      <!-- -2.5 -->
      <defs>
       <path d="
M10.6875 12.4062
L21 12.4062
L21 0
L10.6875 0
z
" id="BitstreamVeraSans-Roman-2e"/>
       <path d="
M4.89062 31.3906
L31.2031 31.3906
L31.2031 23.3906
L4.89062 23.3906
z
" id="BitstreamVeraSans-Roman-2d"/>
      </defs>
      <g transform="translate(7.2 410.748054844)scale(0.24 -0.24)">
       <use xlink:href="#BitstreamVeraSans-Roman-2d"/>
       <use x="36.083984375" xlink:href="#BitstreamVeraSans-Roman-32"/>
       <use x="99.70703125" xlink:href="#BitstreamVeraSans-Roman-2e"/>
       <use x="131.494140625" xlink:href="#BitstreamVeraSans-Roman-35"/>
      </g>
     </g>
    </g>
    <g id="ytick_2">
     <g id="line2d_28">
      <path d="
M64.7562 324.865
L557.299 324.865" style="fill:none;stroke:#000000;stroke-dasharray:1.000000,3.000000;stroke-dashoffset:0.0;stroke-linecap:butt;stroke-width:0.5;"/>
     </g>
     <g id="line2d_29">
      <defs>
       <path d="
M0 0
L4 0" id="mc91e532072"/>
      </defs>
      <g>
       <use style="stroke:#000000;stroke-linecap:butt;stroke-width:0.5;" x="54.75625" xlink:href="#mc91e532072" y="324.865318875"/>
      </g>
     </g>
     <g id="text_6">
      <!-- -2 -->
      <g transform="translate(30.405 333.771568875)scale(0.24 -0.24)">
       <use xlink:href="#BitstreamVeraSans-Roman-2d"/>
       <use x="36.083984375" xlink:href="#BitstreamVeraSans-Roman-32"/>
      </g>
     </g>
    </g>
    <g id="ytick_3">
     <g id="line2d_30">
      <path d="
M64.7562 247.718
L557.299 247.718" style="fill:none;stroke:#000000;stroke-dasharray:1.000000,3.000000;stroke-dashoffset:0.0;stroke-linecap:butt;stroke-width:0.5;"/>
     </g>
     <g id="line2d_31">
      <defs>
       <path d="
M0 0
L4 0" id="mc91e532072"/>
      </defs>
      <g>
       <use style="stroke:#000000;stroke-linecap:butt;stroke-width:0.5;" x="54.75625" xlink:href="#mc91e532072" y="247.718207906"/>
      </g>
     </g>
     <g id="text_7">
      <!-- -1.5 -->
      <g transform="translate(7.2 256.296332906)scale(0.24 -0.24)">
       <use xlink:href="#BitstreamVeraSans-Roman-2d"/>
       <use x="36.083984375" xlink:href="#BitstreamVeraSans-Roman-31"/>
       <use x="99.70703125" xlink:href="#BitstreamVeraSans-Roman-2e"/>
       <use x="131.494140625" xlink:href="#BitstreamVeraSans-Roman-35"/>
      </g>
     </g>
    </g>
    <g id="ytick_4">
     <g id="line2d_32">
      <path d="
M64.7562 170.571
L557.299 170.571" style="fill:none;stroke:#000000;stroke-dasharray:1.000000,3.000000;stroke-dashoffset:0.0;stroke-linecap:butt;stroke-width:0.5;"/>
     </g>
     <g id="line2d_33">
      <defs>
       <path d="
M0 0
L4 0" id="mc91e532072"/>
      </defs>
      <g>
       <use style="stroke:#000000;stroke-linecap:butt;stroke-width:0.5;" x="54.75625" xlink:href="#mc91e532072" y="170.571096938"/>
      </g>
     </g>
     <g id="text_8">
      <!-- -1 -->
      <g transform="translate(30.2175 179.319846938)scale(0.24 -0.24)">
       <use xlink:href="#BitstreamVeraSans-Roman-2d"/>
       <use x="36.083984375" xlink:href="#BitstreamVeraSans-Roman-31"/>
      </g>
     </g>
    </g>
    <g id="ytick_5">
     <g id="line2d_34">
      <path d="
M64.7562 93.424
L557.299 93.424" style="fill:none;stroke:#000000;stroke-dasharray:1.000000,3.000000;stroke-dashoffset:0.0;stroke-linecap:butt;stroke-width:0.5;"/>
     </g>
     <g id="line2d_35">
      <defs>
       <path d="
M0 0
L4 0" id="mc91e532072"/>
      </defs>
      <g>
       <use style="stroke:#000000;stroke-linecap:butt;stroke-width:0.5;" x="54.75625" xlink:href="#mc91e532072" y="93.4239859688"/>
      </g>
     </g>
     <g id="text_9">
      <!-- -0.5 -->
      <g transform="translate(7.2 102.159610969)scale(0.24 -0.24)">
       <use xlink:href="#BitstreamVeraSans-Roman-2d"/>
       <use x="36.083984375" xlink:href="#BitstreamVeraSans-Roman-30"/>
       <use x="99.70703125" xlink:href="#BitstreamVeraSans-Roman-2e"/>
       <use x="131.494140625" xlink:href="#BitstreamVeraSans-Roman-35"/>
      </g>
     </g>
    </g>
    <g id="ytick_6">
     <g id="line2d_36">
      <path d="
M64.7562 16.2769
L557.299 16.2769" style="fill:none;stroke:#000000;stroke-dasharray:1.000000,3.000000;stroke-dashoffset:0.0;stroke-linecap:butt;stroke-width:0.5;"/>
     </g>
     <g id="line2d_37">
      <defs>
       <path d="
M0 0
L4 0" id="mc91e532072"/>
      </defs>
      <g>
       <use style="stroke:#000000;stroke-linecap:butt;stroke-width:0.5;" x="54.75625" xlink:href="#mc91e532072" y="16.276875"/>
      </g>
     </g>
     <g id="text_10">
      <!-- 0 -->
      <g transform="translate(38.6625 25.0125)scale(0.24 -0.24)">
       <use xlink:href="#BitstreamVeraSans-Roman-30"/>
      </g>
     </g>
    </g>
    <g id="ytick_7">
     <g id="line2d_38">
      <defs>
       <path d="
M0 0
L2 0" id="m0789224b6b"/>
      </defs>
      <g>
       <use style="stroke:#000000;stroke-linecap:butt;stroke-width:0.5;" x="54.75625" xlink:href="#m0789224b6b" y="386.58300765"/>
      </g>
     </g>
    </g>
    <g id="ytick_8">
     <g id="line2d_39">
      <defs>
       <path d="
M0 0
L2 0" id="m0789224b6b"/>
      </defs>
      <g>
       <use style="stroke:#000000;stroke-linecap:butt;stroke-width:0.5;" x="54.75625" xlink:href="#m0789224b6b" y="371.153585457"/>
      </g>
     </g>
    </g>
    <g id="ytick_9">
     <g id="line2d_40">
      <defs>
       <path d="
M0 0
L2 0" id="m0789224b6b"/>
      </defs>
      <g>
       <use style="stroke:#000000;stroke-linecap:butt;stroke-width:0.5;" x="54.75625" xlink:href="#m0789224b6b" y="355.724163263"/>
      </g>
     </g>
    </g>
    <g id="ytick_10">
     <g id="line2d_41">
      <defs>
       <path d="
M0 0
L2 0" id="m0789224b6b"/>
      </defs>
      <g>
       <use style="stroke:#000000;stroke-linecap:butt;stroke-width:0.5;" x="54.75625" xlink:href="#m0789224b6b" y="340.294741069"/>
      </g>
     </g>
    </g>
    <g id="ytick_11">
     <g id="line2d_42">
      <defs>
       <path d="
M0 0
L2 0" id="m0789224b6b"/>
      </defs>
      <g>
       <use style="stroke:#000000;stroke-linecap:butt;stroke-width:0.5;" x="54.75625" xlink:href="#m0789224b6b" y="309.435896681"/>
      </g>
     </g>
    </g>
    <g id="ytick_12">
     <g id="line2d_43">
      <defs>
       <path d="
M0 0
L2 0" id="m0789224b6b"/>
      </defs>
      <g>
       <use style="stroke:#000000;stroke-linecap:butt;stroke-width:0.5;" x="54.75625" xlink:href="#m0789224b6b" y="294.006474488"/>
      </g>
     </g>
    </g>
    <g id="ytick_13">
     <g id="line2d_44">
      <defs>
       <path d="
M0 0
L2 0" id="m0789224b6b"/>
      </defs>
      <g>
       <use style="stroke:#000000;stroke-linecap:butt;stroke-width:0.5;" x="54.75625" xlink:href="#m0789224b6b" y="278.577052294"/>
      </g>
     </g>
    </g>
    <g id="ytick_14">
     <g id="line2d_45">
      <defs>
       <path d="
M0 0
L2 0" id="m0789224b6b"/>
      </defs>
      <g>
       <use style="stroke:#000000;stroke-linecap:butt;stroke-width:0.5;" x="54.75625" xlink:href="#m0789224b6b" y="263.1476301"/>
      </g>
     </g>
    </g>
    <g id="ytick_15">
     <g id="line2d_46">
      <defs>
       <path d="
M0 0
L2 0" id="m0789224b6b"/>
      </defs>
      <g>
       <use style="stroke:#000000;stroke-linecap:butt;stroke-width:0.5;" x="54.75625" xlink:href="#m0789224b6b" y="247.718207906"/>
      </g>
     </g>
    </g>
    <g id="ytick_16">
     <g id="line2d_47">
      <defs>
       <path d="
M0 0
L2 0" id="m0789224b6b"/>
      </defs>
      <g>
       <use style="stroke:#000000;stroke-linecap:butt;stroke-width:0.5;" x="54.75625" xlink:href="#m0789224b6b" y="232.288785713"/>
      </g>
     </g>
    </g>
    <g id="ytick_17">
     <g id="line2d_48">
      <defs>
       <path d="
M0 0
L2 0" id="m0789224b6b"/>
      </defs>
      <g>
       <use style="stroke:#000000;stroke-linecap:butt;stroke-width:0.5;" x="54.75625" xlink:href="#m0789224b6b" y="216.859363519"/>
      </g>
     </g>
    </g>
    <g id="ytick_18">
     <g id="line2d_49">
      <defs>
       <path d="
M0 0
L2 0" id="m0789224b6b"/>
      </defs>
      <g>
       <use style="stroke:#000000;stroke-linecap:butt;stroke-width:0.5;" x="54.75625" xlink:href="#m0789224b6b" y="201.429941325"/>
      </g>
     </g>
    </g>
    <g id="ytick_19">
     <g id="line2d_50">
      <defs>
       <path d="
M0 0
L2 0" id="m0789224b6b"/>
      </defs>
      <g>
       <use style="stroke:#000000;stroke-linecap:butt;stroke-width:0.5;" x="54.75625" xlink:href="#m0789224b6b" y="186.000519131"/>
      </g>
     </g>
    </g>
    <g id="ytick_20">
     <g id="line2d_51">
      <defs>
       <path d="
M0 0
L2 0" id="m0789224b6b"/>
      </defs>
      <g>
       <use style="stroke:#000000;stroke-linecap:butt;stroke-width:0.5;" x="54.75625" xlink:href="#m0789224b6b" y="170.571096938"/>
      </g>
     </g>
    </g>
    <g id="ytick_21">
     <g id="line2d_52">
      <defs>
       <path d="
M0 0
L2 0" id="m0789224b6b"/>
      </defs>
      <g>
       <use style="stroke:#000000;stroke-linecap:butt;stroke-width:0.5;" x="54.75625" xlink:href="#m0789224b6b" y="155.141674744"/>
      </g>
     </g>
    </g>
    <g id="ytick_22">
     <g id="line2d_53">
      <defs>
       <path d="
M0 0
L2 0" id="m0789224b6b"/>
      </defs>
      <g>
       <use style="stroke:#000000;stroke-linecap:butt;stroke-width:0.5;" x="54.75625" xlink:href="#m0789224b6b" y="139.71225255"/>
      </g>
     </g>
    </g>
    <g id="ytick_23">
     <g id="line2d_54">
      <defs>
       <path d="
M0 0
L2 0" id="m0789224b6b"/>
      </defs>
      <g>
       <use style="stroke:#000000;stroke-linecap:butt;stroke-width:0.5;" x="54.75625" xlink:href="#m0789224b6b" y="124.282830356"/>
      </g>
     </g>
    </g>
    <g id="ytick_24">
     <g id="line2d_55">
      <defs>
       <path d="
M0 0
L2 0" id="m0789224b6b"/>
      </defs>
      <g>
       <use style="stroke:#000000;stroke-linecap:butt;stroke-width:0.5;" x="54.75625" xlink:href="#m0789224b6b" y="108.853408163"/>
      </g>
     </g>
    </g>
    <g id="ytick_25">
     <g id="line2d_56">
      <defs>
       <path d="
M0 0
L2 0" id="m0789224b6b"/>
      </defs>
      <g>
       <use style="stroke:#000000;stroke-linecap:butt;stroke-width:0.5;" x="54.75625" xlink:href="#m0789224b6b" y="93.4239859688"/>
      </g>
     </g>
    </g>
    <g id="ytick_26">
     <g id="line2d_57">
      <defs>
       <path d="
M0 0
L2 0" id="m0789224b6b"/>
      </defs>
      <g>
       <use style="stroke:#000000;stroke-linecap:butt;stroke-width:0.5;" x="54.75625" xlink:href="#m0789224b6b" y="77.994563775"/>
      </g>
     </g>
    </g>
    <g id="ytick_27">
     <g id="line2d_58">
      <defs>
       <path d="
M0 0
L2 0" id="m0789224b6b"/>
      </defs>
      <g>
       <use style="stroke:#000000;stroke-linecap:butt;stroke-width:0.5;" x="54.75625" xlink:href="#m0789224b6b" y="62.5651415813"/>
      </g>
     </g>
    </g>
    <g id="ytick_28">
     <g id="line2d_59">
      <defs>
       <path d="
M0 0
L2 0" id="m0789224b6b"/>
      </defs>
      <g>
       <use style="stroke:#000000;stroke-linecap:butt;stroke-width:0.5;" x="54.75625" xlink:href="#m0789224b6b" y="47.1357193875"/>
      </g>
     </g>
    </g>
    <g id="ytick_29">
     <g id="line2d_60">
      <defs>
       <path d="
M0 0
L2 0" id="m0789224b6b"/>
      </defs>
      <g>
       <use style="stroke:#000000;stroke-linecap:butt;stroke-width:0.5;" x="54.75625" xlink:href="#m0789224b6b" y="31.7062971938"/>
      </g>
     </g>
    </g>
   </g>
   <g id="patch_3">
    <path d="
M64.7562 16.2769
L557.299 16.2769" style="fill:none;stroke:#000000;stroke-width:0.8;"/>
   </g>
   <g id="patch_4">
    <path d="
M54.7562 410.895
L54.7562 8.53926" style="fill:none;stroke:#000000;stroke-width:0.8;"/>
   </g>
  </g>
 </g>
 <defs>
  <clipPath id="pd59c52e761">
   <rect height="402.355881601" width="492.5425" x="64.75625" y="8.53926189229"/>
  </clipPath>
 </defs>
</svg>
