<?xml version="1.0" encoding="utf-8" standalone="no"?>
<!DOCTYPE svg PUBLIC "-//W3C//DTD SVG 1.1//EN"
  "http://www.w3.org/Graphics/SVG/1.1/DTD/svg11.dtd">
<!-- Created with matplotlib (http://matplotlib.sourceforge.net/) -->
<svg height="419pt" version="1.1" viewBox="0 0 564 419" width="564pt" xmlns="http://www.w3.org/2000/svg" xmlns:xlink="http://www.w3.org/1999/xlink">
 <defs>
  <style type="text/css">
*{stroke-linecap:square;stroke-linejoin:round;}
  </style>
 </defs>
 <g id="figure_1">
  <g id="patch_1">
   <path d="
M0 419.766
L564.544 419.766
L564.544 0
L0 0
z
" style="fill:#ffffff;"/>
  </g>
  <g id="axes_1">
   <g id="patch_2">
    <path d="
M55.6887 397.926
L557.344 397.926
L557.344 7.2
L55.6887 7.2
z
" style="fill:#ffffff;"/>
   </g>
   <g id="line2d_1">
    <path clip-path="url(#pda58150b38)" d="
M65.336 390.412
L75.1003 390.412
L75.1003 361.229
L87.4019 361.229
L87.4019 340.306
L95.5047 340.306
L95.5047 331.435
L106.389 331.435
L106.389 292.639
L110.412 292.639
L110.412 284.87
L116.873 284.87
L116.873 300.097
L119.551 300.097
L119.551 304.316
L124.152 304.316
L124.152 323.616
L129.734 323.616
L129.734 329.055
L131.34 329.055
L131.34 330.917
L135.601 330.917
L135.601 333.388
L138.073 333.388
L138.073 332.101
L139.22 332.101
L139.22 329.532
L141.362 329.532
L141.362 325.395
L144.255 325.395
L144.255 316.92
L146.838 316.92
L146.838 306.59
L147.641 306.59
L147.641 302.24
L149.9 302.24
L149.9 292.636
L151.297 292.636
L151.297 287.383
L151.966 287.383
L151.966 284.419
L153.868 284.419
L153.868 273.656
L155.057 273.656
L155.057 267.257
L156.738 267.257
L156.738 256.693
L158.811 256.693
L158.811 247.75
L159.784 247.75
L159.784 244.89
L160.256 244.89
L160.256 243.158
L161.174 243.158
L161.174 239.155
L161.62 239.155
L161.62 236.948
L162.488 236.948
L162.488 233.003
L165.3 233.003
L165.3 224.677
L166.047 224.677
L166.047 222.839
L167.126 222.839
L167.126 219.875
L167.475 219.875
L167.475 218.899
L169.148 218.899
L169.148 216.301
L169.469 216.301
L169.469 215.84
L170.407 215.84
L170.407 214.127
L171.31 214.127
L171.31 213.649
L171.894 213.649
L171.894 213.412
L172.744 213.412
L172.744 212.552
L173.565 212.552
L173.565 211.448
L173.833 211.448
L173.833 211.071
L175.128 211.071
L175.128 209.768
L175.379 209.768
L175.379 209.343
L175.873 209.343
L175.873 208.374
L176.116 208.374
L176.116 207.782
L177.526 207.782
L177.526 204.399
L178.858 204.399
L178.858 200.651
L179.286 200.651
L179.286 199.577
L179.497 199.577
L179.497 198.962
L179.914 198.962
L179.914 198.057
L180.527 198.057
L180.527 197.222
L180.727 197.222
L180.727 196.789
L181.706 196.789
L181.706 194.133
L182.275 194.133
L182.275 192.265
L182.831 192.265
L182.831 190.807
L183.374 190.807
L183.374 189.762
L183.553 189.762
L183.553 189.477
L184.08 189.477
L184.08 188.522
L184.425 188.522
L184.425 187.947
L184.596 187.947
L184.596 187.81
L185.432 187.81
L185.432 187.272
L186.556 187.272
L186.556 186.036
L186.868 186.036
L186.868 185.738
L187.022 185.738
L187.022 185.519
L187.328 185.519
L187.328 185.312
L188.369 185.312
L188.369 183.763
L188.802 183.763
L188.802 183.138
L189.506 183.138
L189.506 181.96
L189.644 181.96
L189.644 181.69
L189.919 181.69
L189.919 181.114
L190.325 181.114
L190.325 180.358
L190.855 180.358
L190.855 179.29
L191.246 179.29
L191.246 178.207
L191.63 178.207
L191.63 176.88
L191.883 176.88
L191.883 175.984
L192.257 175.984
L192.257 174.623
L192.747 174.623
L192.747 172.744
L192.989 172.744
L192.989 171.859
L193.465 171.859
L193.465 170.464
L194.046 170.464
L194.046 169.135
L194.161 169.135
L194.161 168.865
L194.726 168.865
L194.726 167.616
L194.838 167.616
L194.838 167.34
L195.169 167.34
L195.169 166.573
L195.388 166.573
L195.388 165.943
L195.712 165.943
L195.712 165.166
L196.137 165.166
L196.137 164.199
L196.347 164.199
L196.451 163.254
L196.658 163.254
L196.658 162.607
L197.269 162.607
L197.269 160.6
L197.668 160.6
L197.668 159.136
L197.865 159.136
L197.865 158.357
L198.254 158.357
L198.254 157.008
L198.447 157.008
L198.447 156.307
L198.732 156.307
L198.732 155.108
L199.293 155.108
L199.386 152.736
L200.2 152.736
L200.2 150.23
L200.466 150.23
L200.466 149.437
L200.902 149.437
L200.902 148.15
L201.16 148.15
L201.16 147.39
L201.416 147.39
L201.5 146.197
L201.752 146.197
L201.752 145.133
L202.166 145.133
L202.166 143.183
L202.41 143.183
L202.41 142.136
L202.653 142.136
L202.733 140.911
L202.972 140.911
L202.972 139.862
L203.209 139.862
L203.209 138.933
L203.366 138.933
L203.444 138.048
L203.906 138.048
L203.906 136.348
L204.285 136.348
L204.36 134.598
L204.509 134.598
L204.509 134.14
L204.732 134.14
L204.732 133.39
L204.952 133.39
L205.025 132.449
L205.458 132.449
L205.458 131.067
L205.601 131.067
L205.601 130.568
L205.813 130.568
L205.813 129.76
L206.094 129.76
L206.094 128.806
L206.44 128.806
L206.44 127.588
L206.713 127.588
L206.713 126.545
L207.05 126.545
L207.05 125.255
L207.317 125.255
L207.317 124.174
L207.515 124.174
L207.515 123.359
L207.711 123.359
L207.711 122.626
L207.841 122.626
L207.841 122.196
L208.099 122.196
L208.099 121.287
L208.291 121.287
L208.291 120.625
L208.417 120.625
L208.417 120.165
L208.669 120.165
L208.669 119.232
L208.794 119.232
L208.794 118.839
L209.226 118.839
L209.226 117.527
L209.531 117.527
L209.531 116.779
L209.89 116.779
L209.95 115.874
L210.245 115.874
L210.304 115.231
L210.42 115.231
L210.479 114.962
L210.767 114.962
L210.767 114.518
L211.166 114.518
L211.166 113.876
L211.278 113.876
L211.335 113.578
L211.446 113.578
L211.446 113.415
L211.834 113.415
L211.944 112.665
L212.107 112.576
L212.107 112.408
L212.644 112.408
L212.75 111.253
L212.961 111.253
L212.961 110.951
L213.221 110.951
L213.221 110.549
L213.428 110.549
L213.53 109.949
L213.683 109.949
L213.683 109.69
L213.835 109.69
L213.835 109.436
L214.187 109.436
L214.286 108.55
L214.434 108.55
L214.434 108.248
L214.582 108.248
L214.582 107.922
L214.777 107.922
L214.777 107.488
L214.922 107.488
L214.922 107.115
L215.21 107.115
L215.306 106.167
L215.448 106.167
L215.495 105.695
L215.73 105.695
L215.777 104.971
L215.916 104.971
L215.916 104.559
L216.147 104.559
L216.193 103.858
L216.421 103.858
L216.466 103.165
L216.602 103.165
L216.602 102.826
L217.004 102.826
L217.092 101.69
L217.224 101.591
L217.224 101.415
L217.356 101.415
L217.356 101.133
L217.486 101.133
L217.486 100.853
L217.659 100.853
L217.659 100.464
L217.788 100.464
L217.788 100.208
L217.917 100.208
L217.917 99.9442
L218.381 99.9442
L218.423 98.7812
L218.631 98.7812
L218.631 98.3793
L218.796 98.3793
L218.796 98.139
L219.001 98.139
L219.001 97.9172
L219.123 97.9172
L219.123 97.7458
L219.244 97.7458
L219.244 97.5728
L219.405 97.5728
L219.405 97.279
L219.645 97.279
L219.724 96.6825
L219.843 96.6825
L219.843 96.4504
L219.96 96.4504
L220 96.0664
L220.117 96.0664
L220.117 95.7665
L220.349 95.7665
L220.349 95.1656
L220.541 95.1656
L220.541 94.6556
L220.883 94.6556
L220.921 93.6802
L220.996 93.6802
L220.996 93.4617
L221.108 93.4617
L221.146 93.0864
L221.257 93.0864
L221.331 92.5957
L221.442 92.5013
L221.442 92.3088
L221.662 92.3088
L221.699 91.586
L221.808 91.586
L221.808 91.3042
L222.417 91.3042
L222.523 89.3103
L222.629 89.3103
L222.629 89.0137
L222.768 89.0137
L222.768 88.5838
L223.08 88.5838
L223.08 87.6258
L223.252 87.6258
L223.252 87.0874
L223.49 87.0874
L223.591 86.038
L223.659 86.038
L223.759 85.4682
L223.893 85.4682
L223.992 84.7063
L224.092 84.7063
L224.092 84.3645
L224.289 84.3645
L224.289 83.716
L224.452 83.716
L224.549 82.8239
L224.582 82.8239
L224.646 82.478
L224.743 82.478
L224.743 82.1585
L224.935 82.1585
L224.935 81.5233
L225.125 81.5233
L225.125 80.8326
L225.252 80.8326
L225.252 80.3533
L225.44 80.3533
L225.533 79.2224
L225.595 79.2224
L225.688 78.63
L225.811 78.63
L225.873 77.952
L225.995 77.952
L226.056 77.3513
L226.268 77.3513
L226.328 76.4489
L226.418 76.4489
L226.508 75.9001
L226.597 75.9001
L226.627 75.5201
L226.716 75.5201
L226.716 75.2338
L226.864 75.2338
L226.864 74.7239
L227.156 74.7239
L227.243 73.3787
L227.301 73.3787
L227.33 73.0523
L227.674 73.0523
L227.759 71.4914
L227.9 71.4914
L227.9 71.0537
L228.069 71.0537
L228.097 70.4992
L228.236 70.4992
L228.347 69.8191
L228.43 69.8191
L228.512 69.3225
L228.595 69.3225
L228.595 69.0773
L228.84 69.0773
L228.921 68.0598
L228.975 68.0598
L229.002 67.8036
L229.163 67.8036
L229.163 67.2989
L229.296 67.2989
L229.296 66.9228
L229.455 66.9228
L229.561 66.2263
L229.77 66.2263
L229.77 65.6652
L229.952 65.6652
L230.03 65.0635
L230.107 64.9622
L230.184 64.7344
L230.312 64.7344
L230.312 64.4107
L230.464 64.4107
L230.54 63.8057
L230.616 63.8057
L230.616 63.6216
L230.841 63.6216
L230.866 62.9782
L231.065 62.9782
L231.09 62.3896
L231.36 62.3896
L231.433 61.3515
L231.53 61.3515
L231.602 60.8772
L231.651 60.8772
L231.723 60.5238
L231.819 60.5238
L231.891 60.1078
L232.01 60.1078
L232.034 59.7696
L232.152 59.7696
L232.152 59.5029
L232.317 59.5029
L232.317 59.1126
L232.434 59.1126
L232.504 58.7237
L232.643 58.7237
L232.735 58.1923
L232.85 58.1923
L232.85 57.9208
L232.988 57.9208
L233.01 57.5434
L233.192 57.5434
L233.282 56.8177
L233.35 56.7089
L233.35 56.6483
L233.462 56.6483
L233.551 56.0738
L233.751 56.0738
L233.751 55.5136
L234.015 55.5136
L234.124 54.5403
L234.211 54.5403
L234.211 54.3117
L234.384 54.3117
L234.448 53.6664
L234.534 53.6664
L234.534 53.4087
L234.705 53.4087
L234.768 52.6935
L234.853 52.6935
L234.916 52.2924
L234.979 52.2924
L235.021 52.0391
L235.147 52.0391
L235.168 51.6561
L235.396 51.6561
L235.478 50.8681
L235.54 50.8681
L235.642 50.4846
L235.785 50.4846
L235.886 49.9623
L235.967 49.9229
L236.067 49.5643
L236.188 49.5643
L236.247 49.1399
L236.307 49.1399
L236.307 49.0012
L236.446 49.0012
L236.545 48.4506
L236.662 48.4506
L236.741 48.0211
L236.799 48.0211
L236.838 47.7875
L237.089 47.7875
L237.089 47.2069
L237.262 47.2069
L237.357 46.5874
L237.433 46.5874
L237.528 46.1395
L237.603 46.0882
L237.603 45.9276
L237.81 45.9276
L237.81 45.3395
L237.922 45.3395
L237.94 44.9366
L238.088 44.9366
L238.199 44.2199
L238.309 44.2199
L238.309 43.9271
L238.437 43.9271
L238.545 43.2591
L238.654 43.1622
L238.762 42.6705
L238.816 42.5905
L238.905 42.3604
L238.976 42.3604
L239.083 42.0697
L239.171 42.0697
L239.277 41.7757
L239.347 41.7757
L239.382 41.5799
L239.504 41.5799
L239.591 41.1168
L239.695 41.1168
L239.798 40.6125
L239.953 40.5722
L239.953 40.225
L240.072 40.225
L240.157 39.7058
L240.224 39.7058
L240.309 39.3039
L240.46 39.3039
L240.527 38.7202
L240.61 38.7202
L240.709 38.3293
L240.776 38.3293
L240.858 38.0639
L240.956 38.0639
L240.956 37.904
L241.071 37.904
L241.152 37.5774
L241.217 37.4911
L241.217 37.4604
L241.443 37.4604
L241.539 36.94
L241.635 36.8521
L241.635 36.8129
L241.746 36.8129
L241.841 36.5665
L241.983 36.4578
L242.077 36.3325
L242.311 36.2599
L242.403 36.0177
L242.527 36.0177
L242.527 35.8473
L242.725 35.8473
L242.771 35.5564
L242.907 35.4586
L242.938 35.3665
L243.073 35.2688
L243.163 35.1017
L243.386 35.0174
L243.445 34.691
L243.534 34.691
L243.534 34.5153
L243.739 34.5153
L243.841 33.9509
L243.914 33.8806
L243.972 33.7666
L244.087 33.6593
L244.188 33.4823
L244.387 33.3802
L244.402 33.2122
L244.515 33.2122
L244.557 33.0049
L244.698 33.0049
L244.698 32.8319
L244.81 32.8319
L244.907 32.6105
L245.101 32.5751
L245.157 32.378
L245.28 32.2944
L245.389 32.1275
L245.552 32.0332
L245.647 31.8551
L245.795 31.7601
L245.889 31.5362
L245.995 31.4515
L246.088 31.2609
L246.233 31.2001
L246.325 30.9244
L246.443 30.8851
L246.508 30.6733
L246.625 30.6128
L246.715 30.4014
L246.895 30.3509
L246.947 30.1335
L247.099 30.0516
L247.163 29.8542
L247.277 29.8542
L247.352 29.6355
L247.465 29.5474
L247.54 29.4287
L247.627 29.4287
L247.701 29.2302
L247.837 29.1205
L247.948 28.9803
L248.058 28.8765
L248.058 28.8467
L248.18 28.8467
L248.18 28.6769
L248.313 28.6769
L248.421 28.2829
L248.493 28.2203
L248.541 28.074
L248.672 28.074
L248.72 27.7431
L248.815 27.7431
L248.921 27.3589
L249.038 27.2783
L249.143 26.9478
L249.202 26.9018
L249.306 26.6449
L249.422 26.6252
L249.422 26.4649
L249.56 26.4649
L249.663 26.1098
L249.788 26.0078
L249.89 25.7798
L250.025 25.6784
L250.104 25.5327
L250.271 25.5327
L250.338 25.2597
L250.438 25.1994
L250.526 24.9998
L250.625 24.9998
L250.724 24.6652
L250.8 24.56
L250.898 24.3755
L250.984 24.2969
L251.017 24.1864
L251.114 24.1864
L251.178 23.8726
L251.253 23.8726
L251.338 23.6297
L251.466 23.6297
L251.571 23.3319
L251.656 23.3319
L251.761 23.0652
L251.854 23.0652
L251.948 22.8184
L252.072 22.7161
L252.155 22.5894
L252.278 22.5193
L252.38 22.3366
L252.523 22.2916
L252.563 22.1895
L252.735 22.0835
L252.835 21.9861
L253.074 21.9172
L253.153 21.7424
L253.359 21.6475
L253.447 21.5698
L253.69 21.4747
L253.796 21.405
L254.225 21.3024
L254.319 21.2428
L254.563 21.1322
L254.646 21.0744
L254.978 20.9721
L255.07 20.8863
L255.369 20.7957
L255.387 20.7459
L255.548 20.6484
L255.637 20.5598
L255.824 20.4535
L255.921 20.3987
L256.348 20.4969
L256.443 20.5618
L256.683 20.6609
L256.777 20.7425
L256.955 20.8339
L257.064 20.9764
L257.24 21.0246
L257.331 21.2821
L257.488 21.3635
L257.579 21.4714
L257.726 21.5432
L257.832 21.6636
L258.067 21.7198
L258.171 21.8338
L258.331 21.9372
L258.435 22.0352
L258.545 22.103
L258.624 22.2368
L258.742 22.3375
L258.828 22.4671
L258.929 22.5745
L259.014 22.6465
L259.177 22.7438
L259.269 22.8233
L259.459 22.9341
L259.55 23.0397
L259.686 23.1366
L259.777 23.24
L259.956 23.3382
L260.038 23.4335
L260.325 23.5433
L260.435 23.5781
L261.083 23.6846
L261.168 23.7356
L262.003 23.6268
L262.092 23.611
L263.668 23.5102
L263.763 23.4262
L263.903 23.3416
L263.991 23.2208
L264.123 23.1165
L264.223 23.0028
L264.328 22.8978
L264.428 22.803
L264.551 22.7077
L264.625 22.6146
L264.771 22.5277
L264.881 22.3361
L265.05 22.2313
L265.122 21.9916
L265.23 21.8881
L265.338 21.6848
L265.439 21.5794
L265.51 21.478
L265.639 21.3761
L265.728 21.2502
L265.85 21.1829
L265.949 21.0375
L266.111 20.9532
L266.215 20.808
L266.438 20.6971
L266.534 20.6386
L266.709 20.5577
L266.81 20.4436
L266.989 20.342
L267.089 20.239
L267.238 20.1333
L267.32 20.0465
L267.468 19.9485
L267.549 19.8735
L267.717 19.7677
L267.825 19.669
L268.017 19.5737
L268.086 19.5144
L268.387 19.4039
L268.492 19.365
L268.726 19.2619
L268.824 19.151
L268.947 19.0411
L269.055 18.8601
L269.126 18.7514
L269.202 18.5881
L269.263 18.5149
L269.339 18.3271
L269.429 18.3271
L269.54 18.0072
L269.654 17.9322
L269.764 17.7707
L269.877 17.6928
L269.985 17.544
L270.103 17.4335
L270.205 17.3003
L270.322 17.1993
L270.38 17.1077
L270.462 17.1077
L270.539 16.874
L270.634 16.7757
L270.711 16.643
L270.825 16.5351
L270.905 16.4269
L271.033 16.3184
L271.131 16.2038
L271.29 16.1012
L271.387 16.0108
L271.59 15.9044
L271.691 15.805
L271.841 15.7052
L271.937 15.6278
L272.095 15.5327
L272.193 15.4079
L272.367 15.3047
L272.447 15.165
L272.602 15.0685
L272.712 14.9132
L272.869 14.8041
L272.943 14.7648
L273.678 14.8637
L273.788 14.9377
L273.976 15.0463
L274.063 15.1868
L274.179 15.2694
L274.29 15.4521
L274.384 15.4827
L274.494 15.707
L274.608 15.7982
L274.717 16.0026
L274.797 16.0958
L274.858 16.2316
L274.934 16.3383
L275.037 16.5019
L275.133 16.6052
L275.24 16.7353
L275.334 16.8228
L275.432 16.9731
L275.522 17.0791
L275.627 17.2286
L275.724 17.3236
L275.824 17.4745
L275.921 17.5749
L276.032 17.7284
L276.146 17.8279
L276.241 17.9666
L276.354 18.0612
L276.444 18.2266
L276.557 18.2863
L276.654 18.525
L276.732 18.6271
L276.843 18.7898
L276.935 18.8408
L277.041 19.0769
L277.162 19.1715
L277.253 19.3887
L277.361 19.4993
L277.459 19.6617
L277.567 19.7579
L277.67 19.9561
L277.766 20.0492
L277.873 20.2393
L277.972 20.3186
L278.077 20.4701
L278.252 20.5699
L278.346 20.6372
L278.605 20.7451
L278.697 20.7944
L278.884 20.8925
L278.976 20.9454
L279.448 21.0509
L279.547 21.1061
L279.969 21.2168
L280.043 21.2631
L280.23 21.365
L280.333 21.4861
L280.527 21.5955
L280.637 21.6259
L280.948 21.7353
L281.041 21.7756
L281.22 21.8856
L281.282 21.9313
L281.41 22.0378
L281.496 22.1413
L281.578 22.2201
L281.668 22.3694
L281.765 22.4794
L281.873 22.6454
L281.972 22.7409
L282.052 22.8445
L282.212 22.9441
L282.313 23.0299
L282.593 23.1378
L282.698 23.1769
L282.88 23.2797
L282.983 23.3328
L283.194 23.4365
L283.298 23.4824
L283.632 23.5808
L283.727 23.6352
L284.03 23.7437
L284.139 23.819
L284.259 23.922
L284.367 24.0597
L284.47 24.1629
L284.574 24.3169
L284.679 24.4173
L284.777 24.553
L284.881 24.6623
L284.984 24.815
L285.086 24.925
L285.196 25.0733
L285.287 25.1801
L285.381 25.3309
L285.468 25.4268
L285.574 25.6587
L285.643 25.7629
L285.735 25.9385
L285.835 26.0448
L285.941 26.29
L286.012 26.3915
L286.108 26.5381
L286.193 26.6469
L286.303 26.8323
L286.378 26.9346
L286.482 27.1477
L286.566 27.2461
L286.662 27.465
L286.726 27.465
L286.835 27.7829
L286.896 27.8784
L287.006 28.1186
L287.061 28.2085
L287.172 28.4865
L287.223 28.5829
L287.33 28.8812
L287.378 28.9487
L287.48 29.2594
L287.528 29.3647
L287.627 29.6369
L287.705 29.7341
L287.806 30.085
L287.862 30.1884
L287.958 30.4571
L288.002 30.5333
L288.092 30.7989
L288.138 30.7989
L288.242 31.1917
L288.29 31.2642
L288.389 31.595
L288.435 31.698
L288.532 31.9853
L288.594 32.0913
L288.7 32.4388
L288.747 32.5454
L288.842 32.7756
L288.898 32.7756
L288.989 33.119
L289.103 33.119
L289.198 33.6083
L289.291 33.6083
L289.39 34.0497
L289.488 34.0497
L289.593 34.4888
L289.701 34.4888
L289.805 34.9357
L289.902 34.9357
L290.007 35.3113
L290.094 35.3113
L290.186 35.6602
L290.3 35.6602
L290.399 36.127
L290.496 36.127
L290.588 36.5006
L290.7 36.5006
L290.793 36.947
L290.886 36.947
L290.993 37.355
L291.085 37.355
L291.187 37.7224
L291.287 37.7224
L291.384 38.0636
L291.485 38.0636
L291.589 38.425
L291.697 38.425
L291.697 38.6105
L291.808 38.6105
L291.885 38.9559
L291.994 38.9559
L292.094 39.396
L292.192 39.396
L292.282 39.8189
L292.392 39.8189
L292.483 40.2374
L292.581 40.2374
L292.687 40.6234
L292.799 40.6234
L292.885 41.0083
L293.009 41.0083
L293.083 41.3268
L293.192 41.3268
L293.287 41.6301
L293.38 41.6301
L293.482 41.871
L293.586 41.871
L293.685 42.1964
L293.784 42.1964
L293.784 42.3851
L293.895 42.3851
L293.98 42.7491
L294.078 42.7491
L294.186 43.1241
L294.278 43.1241
L294.379 43.3975
L294.578 43.5076
L294.684 43.7458
L294.877 43.8427
L294.978 43.9869
L295.189 44.0759
L295.284 44.3027
L295.38 44.3027
L295.477 44.5511
L295.576 44.5511
L295.677 44.8199
L295.777 44.8199
L295.877 45.1096
L295.974 45.1096
L295.974 45.2425
L296.093 45.2425
L296.187 45.5385
L296.385 45.6257
L296.475 45.7885
L296.673 45.8624
L296.782 46.006
L296.973 46.0805
L297.08 46.2194
L297.273 46.2964
L297.373 46.4597
L297.575 46.5317
L297.673 46.6859
L297.875 46.7863
L297.984 46.9958
L298.173 47.1055
L298.281 47.2956
L298.476 47.3573
L298.575 47.4709
L298.874 47.5737
L298.972 47.7072
L299.174 47.7919
L299.275 47.948
L299.574 48.048
L299.574 48.0938
L299.871 48.1884
L299.871 48.2164
L300.267 48.3045
L300.371 48.3738
L301.267 48.4794
L301.365 48.4992
L302.466 48.3963
L302.563 48.3433
L302.967 48.2346
L303.063 48.1694
L303.464 48.072
L303.565 47.9765
L303.761 47.9287
L303.867 47.8005
L304.061 47.7479
L304.164 47.6106
L304.363 47.5354
L304.469 47.3735
L304.664 47.2693
L304.762 47.0465
L304.866 47.0465
L304.962 46.8481
L305.165 46.7658
L305.257 46.606
L305.457 46.5111
L305.559 46.3677
L305.789 46.2879
L305.859 46.1104
L306.064 46.0288
L306.157 45.8698
L306.369 45.7888
L306.46 45.6385
L306.657 45.577
L306.761 45.4743
L307.057 45.3767
L307.057 45.3566
L307.165 45.3566
L307.165 45.3566
L307.265 45.3903
L307.554 45.4549
L307.656 45.5765
L307.856 45.6449
L307.963 45.7758
L308.154 45.8378
L308.257 45.9421
L308.451 46.0155
L308.555 46.19
L308.75 46.2671
L308.852 46.4125
L309.057 46.4649
L309.151 46.5979
L309.352 46.6872
L309.449 46.9081
L309.549 46.9081
L309.657 47.1623
L309.751 47.1623
L309.85 47.4246
L309.951 47.4246
L310.049 47.7705
L310.152 47.7705
L310.251 48.1407
L310.347 48.1407
L310.455 48.5412
L310.551 48.5412
L310.647 48.8925
L310.746 48.8925
L310.854 49.2871
L310.949 49.2871
L311.051 49.6683
L311.153 49.6683
L311.251 50.0407
L311.352 50.0407
L311.446 50.4327
L311.546 50.4327
L311.645 50.861
L311.751 50.861
L311.846 51.2539
L311.949 51.2539
L312.045 51.5654
L312.147 51.5654
L312.245 51.9024
L312.351 51.9024
L312.444 52.2358
L312.551 52.2358
L312.644 52.5514
L312.743 52.5514
L312.847 52.8507
L312.944 52.8507
L313.049 53.1484
L313.144 53.1484
L313.246 53.4232
L313.342 53.4232
L313.444 53.699
L313.545 53.699
L313.645 53.9739
L313.842 54.0784
L313.947 54.3201
L314.043 54.3201
L314.141 54.6082
L314.242 54.6082
L314.348 55.011
L314.45 55.011
L314.545 55.3998
L314.647 55.3998
L314.741 55.7865
L314.844 55.7865
L314.945 56.1611
L315.038 56.1611
L315.139 56.5956
L315.25 56.5956
L315.34 57.0468
L315.44 57.0468
L315.541 57.5158
L315.641 57.5158
L315.738 57.9178
L315.84 57.9178
L315.939 58.3306
L316.039 58.3306
L316.137 58.8104
L316.236 58.8104
L316.34 59.312
L316.438 59.312
L316.537 59.8164
L316.639 59.8164
L316.739 60.292
L316.84 60.292
L316.941 60.7135
L317.036 60.7135
L317.147 61.1525
L317.24 61.1525
L317.34 61.5749
L317.434 61.5749
L317.534 62.028
L317.637 62.028
L317.735 62.5006
L317.833 62.5006
L317.934 63.0128
L318.038 63.0128
L318.138 63.4785
L318.238 63.4785
L318.337 63.9007
L318.432 63.9007
L318.538 64.2985
L318.631 64.2985
L318.735 64.753
L318.834 64.753
L318.931 65.223
L319.034 65.223
L319.131 65.6514
L319.233 65.6514
L319.333 66.0804
L319.433 66.0804
L319.531 66.4647
L319.63 66.4647
L319.731 66.8886
L319.832 66.8886
L319.93 67.3416
L320.035 67.3416
L320.129 67.8292
L320.231 67.8292
L320.33 68.2863
L320.428 68.2863
L320.528 68.7722
L320.631 68.7722
L320.728 69.3194
L320.828 69.3194
L320.927 69.7904
L321.028 69.7904
L321.127 70.26
L321.23 70.26
L321.327 70.722
L321.426 70.722
L321.526 71.194
L321.628 71.194
L321.731 71.722
L321.827 71.722
L321.927 72.2663
L322.027 72.2663
L322.126 72.8316
L322.232 72.8316
L322.33 73.4709
L322.425 73.4709
L322.525 74.0728
L322.624 74.0728
L322.727 74.6959
L322.827 74.6959
L322.925 75.2679
L323.027 75.2679
L323.126 75.8578
L323.224 75.8578
L323.322 76.4902
L323.424 76.4902
L323.523 77.1456
L323.623 77.1456
L323.723 77.7986
L323.823 77.7986
L323.925 78.4922
L324.031 78.4922
L324.122 79.2099
L324.221 79.2099
L324.324 79.9679
L324.421 79.9679
L324.524 80.7224
L324.621 80.7224
L324.721 81.4825
L324.82 81.4825
L324.923 82.2389
L325.02 82.2389
L325.124 82.9654
L325.219 82.9654
L325.322 83.6083
L325.419 83.6083
L325.52 84.2109
L325.621 84.2109
L325.721 84.8485
L325.818 84.8485
L325.92 85.4833
L326.018 85.4833
L326.118 86.0519
L326.218 86.0519
L326.318 86.5814
L326.417 86.5814
L326.524 87.1325
L326.617 87.1325
L326.717 87.681
L326.817 87.681
L326.92 88.2943
L327.018 88.2943
L327.116 88.8955
L327.219 88.8955
L327.318 89.498
L327.419 89.498
L327.515 90.112
L327.624 90.112
L327.717 90.7609
L327.814 90.7609
L327.916 91.3978
L328.015 91.3978
L328.116 92.0846
L328.217 92.0846
L328.313 92.7107
L328.415 92.7107
L328.514 93.3592
L328.613 93.3592
L328.717 94.0309
L328.812 94.0309
L328.914 94.7055
L329.012 94.7055
L329.114 95.4602
L329.213 95.4602
L329.313 96.2078
L329.413 96.2078
L329.511 96.8957
L329.61 96.8957
L329.711 97.5595
L329.811 97.5595
L329.911 98.2408
L330.01 98.2408
L330.11 98.9101
L330.211 98.9101
L330.31 99.5883
L330.41 99.5883
L330.51 100.25
L330.609 100.25
L330.71 100.859
L330.812 100.859
L330.909 101.433
L331.008 101.433
L331.109 101.95
L331.21 101.95
L331.308 102.398
L331.409 102.398
L331.507 102.83
L331.61 102.83
L331.708 103.315
L331.809 103.315
L331.911 103.795
L332.009 103.795
L332.109 104.265
L332.206 104.265
L332.308 104.692
L332.406 104.692
L332.506 105.129
L332.606 105.129
L332.705 105.581
L332.807 105.581
L332.908 106.082
L333.004 106.082
L333.106 106.532
L333.204 106.532
L333.305 106.937
L333.406 106.937
L333.503 107.294
L333.603 107.294
L333.706 107.635
L333.803 107.635
L333.905 107.98
L334.007 107.98
L334.103 108.377
L334.204 108.377
L334.305 108.799
L334.402 108.799
L334.503 109.223
L334.601 109.223
L334.703 109.725
L334.802 109.725
L334.901 110.189
L335 110.189
L335.101 110.578
L335.202 110.578
L335.3 110.985
L335.401 110.985
L335.5 111.471
L335.6 111.471
L335.699 111.951
L335.799 111.951
L335.899 112.339
L336.002 112.339
L336.1 112.677
L336.2 112.677
L336.3 113.093
L336.398 113.093
L336.498 113.511
L336.605 113.511
L336.699 113.908
L336.798 113.908
L336.897 114.299
L336.997 114.299
L337.097 114.689
L337.199 114.689
L337.297 115.029
L337.397 115.029
L337.5 115.417
L337.596 115.417
L337.697 115.773
L337.795 115.773
L337.896 116.102
L337.997 116.102
L338.095 116.434
L338.195 116.434
L338.294 116.741
L338.394 116.741
L338.494 117.047
L338.597 117.047
L338.694 117.384
L338.794 117.384
L338.894 117.734
L338.994 117.734
L339.093 118.078
L339.193 118.078
L339.293 118.423
L339.401 118.423
L339.494 118.811
L339.592 118.811
L339.693 119.192
L339.793 119.192
L339.891 119.571
L339.992 119.571
L340.091 119.939
L340.192 119.939
L340.292 120.333
L340.39 120.333
L340.49 120.714
L340.59 120.714
L340.69 121.096
L340.791 121.096
L340.89 121.495
L340.99 121.495
L341.091 121.86
L341.189 121.86
L341.29 122.229
L341.388 122.229
L341.49 122.612
L341.592 122.612
L341.688 122.985
L341.788 122.985
L341.887 123.382
L341.987 123.382
L342.087 123.755
L342.187 123.755
L342.287 124.178
L342.386 124.178
L342.489 124.633
L342.587 124.633
L342.689 125.04
L342.786 125.04
L342.886 125.429
L342.986 125.429
L343.092 125.882
L343.186 125.882
L343.285 126.279
L343.387 126.279
L343.484 126.7
L343.585 126.7
L343.684 127.127
L343.784 127.127
L343.884 127.569
L343.984 127.569
L344.084 128.047
L344.185 128.047
L344.283 128.549
L344.383 128.549
L344.482 129.028
L344.582 129.028
L344.684 129.531
L344.782 129.531
L344.884 129.991
L344.981 129.991
L345.082 130.431
L345.184 130.431
L345.281 130.858
L345.381 130.858
L345.48 131.324
L345.582 131.324
L345.68 131.81
L345.78 131.81
L345.881 132.273
L345.98 132.273
L346.081 132.692
L346.179 132.692
L346.28 133.128
L346.379 133.128
L346.48 133.59
L346.579 133.59
L346.68 134.033
L346.779 134.033
L346.879 134.44
L346.978 134.44
L347.078 134.82
L347.177 134.82
L347.277 135.217
L347.377 135.217
L347.477 135.663
L347.578 135.663
L347.677 136.13
L347.776 136.13
L347.877 136.59
L347.976 136.59
L348.076 137.052
L348.175 137.052
L348.278 137.559
L348.378 137.559
L348.477 138.098
L348.576 138.098
L348.675 138.645
L348.776 138.645
L348.874 139.197
L348.975 139.197
L349.074 139.787
L349.174 139.787
L349.274 140.347
L349.375 140.347
L349.475 140.908
L349.573 140.908
L349.675 141.46
L349.772 141.46
L349.873 141.939
L349.972 141.939
L350.072 142.452
L350.172 142.452
L350.272 142.98
L350.372 142.98
L350.473 143.497
L350.571 143.497
L350.671 144.003
L350.77 144.003
L350.87 144.5
L350.971 144.5
L351.07 144.956
L351.17 144.956
L351.271 145.426
L351.369 145.426
L351.47 145.846
L351.57 145.846
L351.669 146.238
L351.77 146.238
L351.869 146.638
L351.968 146.638
L352.068 147.076
L352.168 147.076
L352.271 147.555
L352.367 147.555
L352.468 148.015
L352.568 148.015
L352.668 148.516
L352.767 148.516
L352.866 149.011
L352.967 149.011
L353.066 149.443
L353.167 149.443
L353.266 149.838
L353.366 149.838
L353.467 150.238
L353.566 150.238
L353.665 150.594
L353.765 150.594
L353.865 150.98
L353.965 150.98
L354.064 151.409
L354.166 151.409
L354.264 151.852
L354.364 151.852
L354.463 152.284
L354.565 152.284
L354.664 152.689
L354.763 152.689
L354.864 153.046
L354.962 153.046
L355.063 153.446
L355.163 153.446
L355.263 153.829
L355.362 153.829
L355.462 154.189
L355.563 154.189
L355.662 154.562
L355.762 154.562
L355.861 154.945
L355.962 154.945
L356.061 155.278
L356.16 155.278
L356.261 155.596
L356.36 155.596
L356.46 155.889
L356.56 155.889
L356.66 156.181
L356.76 156.181
L356.859 156.457
L356.959 156.457
L357.059 156.705
L357.26 156.809
L357.358 157.005
L357.558 157.09
L357.658 157.209
L360.352 157.297
L360.452 157.433
L360.652 157.522
L360.751 157.721
L360.952 157.825
L361.052 158.049
L361.25 158.147
L361.351 158.304
L361.551 158.393
L361.652 158.551
L361.851 158.613
L361.949 158.772
L362.149 158.857
L362.249 159.021
L362.848 159.118
L362.948 159.185
L363.347 159.295
L363.448 159.366
L363.846 159.469
L363.946 159.502
L364.645 159.613
L364.744 159.655
L365.842 159.56
L365.942 159.495
L366.641 159.586
L366.74 159.638
L367.04 159.728
L367.14 159.801
L367.439 159.904
L367.539 160.082
L367.739 160.162
L367.838 160.346
L368.038 160.433
L368.137 160.566
L368.337 160.65
L368.437 160.788
L368.737 160.891
L368.837 161.026
L369.036 161.102
L369.136 161.263
L369.335 161.349
L369.435 161.522
L369.635 161.591
L369.735 161.736
L369.935 161.803
L370.034 161.921
L370.234 161.982
L370.333 162.113
L370.533 162.182
L370.633 162.349
L370.832 162.446
L370.932 162.661
L371.032 162.661
L371.132 162.909
L371.232 162.909
L371.331 163.178
L371.431 163.178
L371.531 163.491
L371.631 163.491
L371.731 163.789
L371.831 163.789
L371.931 164.076
L372.03 164.076
L372.13 164.361
L372.23 164.361
L372.33 164.656
L372.43 164.656
L372.529 164.949
L372.629 164.949
L372.729 165.279
L372.829 165.279
L372.929 165.632
L373.028 165.632
L373.128 165.985
L373.228 165.985
L373.328 166.304
L373.428 166.304
L373.528 166.615
L373.628 166.615
L373.728 166.895
L373.827 166.895
L373.927 167.177
L374.027 167.177
L374.126 167.48
L374.227 167.48
L374.326 167.746
L374.427 167.746
L374.526 167.99
L374.725 168.095
L374.825 168.323
L374.925 168.323
L375.025 168.586
L375.124 168.586
L375.225 168.875
L375.324 168.875
L375.424 169.152
L375.524 169.152
L375.623 169.423
L375.723 169.423
L375.823 169.648
L375.923 169.648
L376.023 169.924
L376.123 169.924
L376.222 170.196
L376.322 170.196
L376.423 170.499
L376.522 170.499
L376.621 170.819
L376.721 170.819
L376.821 171.147
L376.921 171.147
L377.02 171.417
L377.121 171.417
L377.221 171.747
L377.32 171.747
L377.42 172.077
L377.52 172.077
L377.62 172.384
L377.72 172.384
L377.819 172.712
L377.919 172.712
L378.019 173.041
L378.118 173.041
L378.218 173.375
L378.319 173.375
L378.418 173.692
L378.518 173.692
L378.618 173.984
L378.718 173.984
L378.817 174.311
L378.917 174.311
L379.017 174.658
L379.117 174.658
L379.216 175.012
L379.316 175.012
L379.416 175.362
L379.516 175.362
L379.616 175.702
L379.715 175.702
L379.815 175.999
L379.915 175.999
L380.015 176.233
L380.215 176.34
L380.315 176.478
L380.614 176.571
L380.714 176.611
L381.213 176.707
L381.312 176.81
L381.512 176.878
L381.612 177.004
L381.811 177.093
L381.911 177.281
L382.111 177.381
L382.211 177.583
L382.411 177.678
L382.51 177.886
L382.611 177.886
L382.71 178.112
L382.81 178.112
L382.91 178.357
L383.009 178.357
L383.109 178.573
L383.309 178.662
L383.409 178.814
L383.608 178.892
L383.708 179.007
L384.008 179.101
L384.107 179.176
L384.606 179.271
L384.706 179.335
L384.906 179.39
L385.006 179.497
L385.305 179.568
L385.405 179.669
L385.604 179.73
L385.704 179.853
L385.904 179.909
L386.004 180.068
L386.203 180.167
L386.303 180.359
L386.503 180.461
L386.602 180.659
L386.802 180.747
L386.902 180.912
L387.102 180.991
L387.201 181.187
L387.401 181.296
L387.501 181.569
L387.6 181.569
L387.701 181.897
L387.8 181.897
L387.9 182.177
L388 182.177
L388.099 182.412
L388.299 182.508
L388.399 182.663
L388.599 182.718
L388.698 182.826
L388.998 182.922
L389.098 183.02
L389.297 183.069
L389.397 183.208
L389.597 183.272
L389.697 183.402
L389.896 183.472
L389.996 183.615
L390.196 183.7
L390.295 183.853
L390.495 183.915
L390.595 184.078
L390.795 184.18
L390.894 184.395
L391.094 184.505
L391.194 184.72
L391.393 184.827
L391.493 185.059
L391.693 185.158
L391.793 185.397
L391.892 185.397
L391.992 185.695
L392.092 185.695
L392.192 186.021
L392.292 186.021
L392.392 186.335
L392.491 186.335
L392.591 186.683
L392.691 186.683
L392.791 186.98
L392.891 186.98
L392.99 187.255
L393.09 187.255
L393.19 187.576
L393.29 187.576
L393.39 187.901
L393.49 187.901
L393.589 188.203
L393.689 188.203
L393.789 188.538
L393.889 188.538
L393.988 188.878
L394.088 188.878
L394.188 189.235
L394.288 189.235
L394.388 189.64
L394.488 189.64
L394.587 190.112
L394.687 190.112
L394.787 190.592
L394.887 190.592
L394.987 191.1
L395.086 191.1
L395.186 191.621
L395.286 191.621
L395.386 192.149
L395.485 192.149
L395.585 192.645
L395.685 192.645
L395.785 193.1
L395.885 193.1
L395.985 193.502
L396.084 193.502
L396.184 193.898
L396.284 193.898
L396.384 194.303
L396.484 194.303
L396.583 194.674
L396.683 194.674
L396.783 195.008
L396.883 195.008
L396.983 195.266
L397.082 195.266
L397.182 195.493
L397.382 195.594
L397.482 195.786
L397.681 195.883
L397.781 196.071
L397.981 196.159
L398.081 196.316
L398.28 196.409
L398.38 196.595
L398.58 196.679
L398.68 196.846
L398.879 196.914
L398.979 197.02
L399.278 197.107
L399.378 197.164
L399.877 197.258
L399.977 197.31
L400.277 197.401
L400.376 197.532
L400.576 197.597
L400.676 197.747
L400.875 197.816
L400.975 197.952
L401.175 198.04
L401.275 198.195
L401.474 198.263
L401.574 198.41
L401.774 198.468
L401.874 198.59
L402.073 198.657
L402.173 198.82
L402.372 198.908
L402.472 199.085
L402.672 199.156
L402.772 199.296
L402.971 199.368
L403.071 199.504
L403.271 199.562
L403.371 199.688
L403.57 199.749
L403.67 199.887
L403.87 199.953
L403.969 200.067
L404.269 200.177
L404.369 200.328
L404.568 200.42
L404.668 200.617
L404.868 200.723
L404.967 200.934
L405.167 201.04
L405.267 201.243
L405.467 201.352
L405.566 201.534
L405.766 201.62
L405.866 201.826
L405.966 201.826
L406.065 202.047
L406.265 202.147
L406.365 202.346
L406.564 202.454
L406.664 202.66
L406.864 202.771
L406.964 202.996
L407.063 202.996
L407.164 203.251
L407.263 203.251
L407.363 203.459
L407.463 203.459
L407.563 203.674
L407.762 203.762
L407.862 203.918
L408.062 203.992
L408.161 204.081
L408.561 204.191
L408.661 204.253
L409.06 204.349
L409.16 204.441
L409.459 204.528
L409.559 204.592
L409.958 204.683
L410.058 204.737
L411.855 204.651
L411.954 204.564
L412.353 204.468
L412.453 204.437
L412.753 204.361
L412.853 204.291
L413.152 204.225
L413.252 204.088
L413.452 203.992
L413.551 203.811
L413.751 203.719
L413.851 203.523
L414.05 203.442
L414.15 203.294
L414.35 203.234
L414.449 203.109
L414.649 203.05
L414.749 202.888
L414.949 202.798
L415.048 202.602
L415.248 202.492
L415.348 202.227
L415.448 202.227
L415.547 201.96
L415.647 201.96
L415.747 201.649
L415.847 201.649
L415.947 201.317
L416.046 201.317
L416.146 201.016
L416.246 201.016
L416.346 200.733
L416.446 200.733
L416.546 200.463
L416.645 200.463
L416.745 200.169
L416.845 200.169
L416.945 199.851
L417.045 199.851
L417.144 199.562
L417.244 199.562
L417.344 199.284
L417.444 199.284
L417.544 198.988
L417.644 198.988
L417.743 198.617
L417.843 198.617
L417.943 198.246
L418.043 198.246
L418.143 197.855
L418.242 197.855
L418.342 197.464
L418.442 197.464
L418.542 197.066
L418.641 197.066
L418.741 196.683
L418.841 196.683
L418.941 196.321
L419.041 196.321
L419.141 195.977
L419.241 195.977
L419.34 195.639
L419.44 195.639
L419.54 195.294
L419.64 195.294
L419.739 195.008
L419.839 195.008
L419.939 194.745
L420.039 194.745
L420.139 194.496
L420.238 194.496
L420.338 194.269
L420.438 194.269
L420.538 194.014
L420.638 194.014
L420.738 193.724
L420.837 193.724
L420.937 193.445
L421.037 193.445
L421.137 193.19
L421.237 193.19
L421.336 192.941
L421.436 192.941
L421.536 192.702
L421.636 192.702
L421.736 192.474
L421.935 192.366
L422.035 192.17
L422.235 192.08
L422.334 191.876
L422.434 191.876
L422.534 191.642
L422.634 191.642
L422.734 191.414
L422.933 191.319
L423.033 191.125
L423.233 191.027
L423.333 190.813
L423.532 190.715
L423.632 190.493
L423.732 190.493
L423.832 190.226
L423.932 190.226
L424.031 189.964
L424.231 189.857
L424.331 189.643
L424.431 189.643
L424.53 189.412
L424.63 189.412
L424.73 189.124
L424.83 189.124
L424.93 188.825
L425.029 188.825
L425.129 188.503
L425.229 188.503
L425.329 188.173
L425.429 188.173
L425.528 187.847
L425.628 187.847
L425.728 187.529
L425.828 187.529
L425.928 187.201
L426.028 187.201
L426.127 186.879
L426.227 186.879
L426.327 186.542
L426.427 186.542
L426.527 186.19
L426.626 186.19
L426.726 185.816
L426.826 185.816
L426.926 185.434
L427.026 185.434
L427.125 185.153
L427.225 185.153
L427.325 184.879
L427.425 184.879
L427.525 184.576
L427.624 184.576
L427.724 184.235
L427.824 184.235
L427.924 183.84
L428.024 183.84
L428.124 183.41
L428.223 183.41
L428.323 182.992
L428.423 182.992
L428.523 182.606
L428.623 182.606
L428.722 182.249
L428.822 182.249
L428.922 181.87
L429.022 181.87
L429.122 181.48
L429.221 181.48
L429.321 181.109
L429.421 181.109
L429.521 180.731
L429.621 180.731
L429.72 180.342
L429.82 180.342
L429.92 179.971
L430.02 179.971
L430.12 179.616
L430.22 179.616
L430.319 179.273
L430.419 179.273
L430.519 178.923
L430.619 178.923
L430.719 178.555
L430.818 178.555
L430.918 178.216
L431.018 178.216
L431.118 177.918
L431.218 177.918
L431.317 177.639
L431.417 177.639
L431.517 177.366
L431.617 177.366
L431.717 177.082
L431.816 177.082
L431.916 176.748
L432.016 176.748
L432.116 176.473
L432.216 176.473
L432.316 176.228
L432.415 176.228
L432.515 175.993
L432.715 175.883
L432.815 175.713
L433.014 175.629
L433.114 175.455
L433.314 175.379
L433.413 175.245
L433.613 175.171
L433.713 175.003
L433.913 174.912
L434.012 174.722
L434.212 174.626
L434.312 174.405
L434.412 174.405
L434.511 174.139
L434.611 174.139
L434.711 173.873
L434.811 173.873
L434.911 173.592
L435.01 173.592
L435.11 173.299
L435.21 173.299
L435.31 173.061
L435.41 173.061
L435.509 172.838
L435.709 172.744
L435.809 172.595
L436.009 172.53
L436.108 172.363
L436.308 172.27
L436.408 172.073
L436.607 171.984
L436.707 171.828
L436.907 171.756
L437.007 171.628
L437.306 171.536
L437.406 171.384
L437.606 171.3
L437.705 171.16
L437.905 171.094
L438.005 170.953
L438.205 170.855
L438.304 170.651
L438.504 170.561
L438.604 170.373
L438.703 170.373
L438.803 170.132
L438.903 170.132
L439.003 169.928
L439.202 169.839
L439.302 169.63
L439.402 169.63
L439.502 169.384
L439.602 169.384
L439.702 169.107
L439.801 169.107
L439.901 168.787
L440.001 168.787
L440.101 168.451
L440.201 168.451
L440.3 168.142
L440.4 168.142
L440.5 167.9
L440.6 167.9
L440.7 167.653
L440.799 167.653
L440.899 167.412
L440.999 167.412
L441.099 167.148
L441.199 167.148
L441.299 166.871
L441.398 166.871
L441.498 166.629
L441.598 166.629
L441.698 166.361
L441.798 166.361
L441.897 166.087
L441.997 166.087
L442.097 165.849
L442.297 165.741
L442.396 165.573
L442.596 165.483
L442.696 165.315
L442.895 165.233
L442.995 165.085
L443.195 165.024
L443.295 164.913
L443.594 164.833
L443.694 164.745
L443.993 164.658
L444.093 164.577
L446.189 164.471
L446.289 164.433
L446.888 164.338
L446.988 164.278
L447.487 164.174
L447.587 164.152
L448.485 164.047
L448.585 164.013
L449.383 163.918
L449.483 163.847
L449.882 163.784
L449.982 163.667
L450.282 163.579
L450.381 163.504
L450.681 163.429
L450.781 163.344
L451.08 163.237
L451.18 163.077
L451.379 162.985
L451.479 162.778
L451.679 162.672
L451.779 162.465
L451.978 162.363
L452.078 162.176
L452.278 162.083
L452.377 161.889
L452.577 161.799
L452.677 161.648
L452.877 161.584
L452.976 161.478
L453.276 161.382
L453.376 161.243
L453.575 161.177
L453.675 161.048
L453.875 160.984
L453.974 160.846
L454.174 160.773
L454.274 160.651
L454.474 160.585
L454.573 160.503
L454.873 160.419
L454.973 160.302
L455.272 160.199
L455.372 160.1
L455.671 160.008
L455.771 159.956
L457.268 160.066
L457.368 160.105
L458.266 160.017
L458.366 159.95
L458.566 159.887
L458.666 159.722
L458.865 159.627
L458.965 159.415
L459.065 159.415
L459.165 159.155
L459.264 159.155
L459.364 158.916
L459.464 158.916
L459.564 158.673
L459.763 158.57
L459.863 158.38
L460.063 158.288
L460.163 158.091
L460.362 158.007
L460.462 157.843
L460.662 157.762
L460.762 157.613
L460.961 157.528
L461.061 157.37
L461.261 157.285
L461.36 157.073
L461.56 156.974
L461.66 156.785
L461.859 156.696
L461.959 156.516
L462.159 156.428
L462.259 156.262
L462.458 156.181
L462.558 156.003
L462.758 155.904
L462.858 155.686
L463.057 155.585
L463.157 155.356
L463.257 155.356
L463.357 155.097
L463.456 155.097
L463.556 154.87
L463.756 154.771
L463.856 154.596
L464.055 154.518
L464.155 154.351
L464.355 154.267
L464.455 154.103
L464.654 154.015
L464.754 153.825
L464.854 153.825
L464.954 153.589
L465.153 153.488
L465.253 153.316
L465.453 153.22
L465.552 153.025
L465.752 152.924
L465.852 152.721
L466.052 152.63
L466.151 152.457
L466.351 152.384
L466.451 152.225
L466.65 152.145
L466.75 151.979
L466.95 151.888
L467.05 151.712
L467.249 151.627
L467.349 151.411
L467.449 151.411
L467.549 151.136
L467.648 151.136
L467.748 150.849
L467.848 150.849
L467.948 150.565
L468.048 150.565
L468.148 150.321
L468.247 150.321
L468.347 150.086
L468.447 150.086
L468.547 149.868
L468.746 149.777
L468.846 149.579
L468.946 149.579
L469.046 149.366
L469.245 149.267
L469.345 149.048
L469.445 149.048
L469.545 148.793
L469.645 148.793
L469.744 148.499
L469.844 148.499
L469.944 148.232
L470.044 148.232
L470.144 147.993
L470.244 147.993
L470.343 147.717
L470.443 147.717
L470.543 147.436
L470.643 147.436
L470.743 147.13
L470.842 147.13
L470.942 146.832
L471.042 146.832
L471.142 146.547
L471.242 146.547
L471.341 146.284
L471.441 146.284
L471.541 146.051
L471.641 146.051
L471.741 145.784
L471.841 145.784
L471.94 145.455
L472.04 145.455
L472.14 145.133
L472.24 145.133
L472.34 144.799
L472.439 144.799
L472.539 144.465
L472.639 144.465
L472.739 144.121
L472.839 144.121
L472.938 143.769
L473.038 143.769
L473.138 143.453
L473.238 143.453
L473.338 143.126
L473.437 143.126
L473.537 142.81
L473.637 142.81
L473.737 142.473
L473.837 142.473
L473.937 142.079
L474.036 142.079
L474.136 141.666
L474.236 141.666
L474.336 141.24
L474.436 141.24
L474.535 140.838
L474.635 140.838
L474.735 140.433
L474.835 140.433
L474.935 140.032
L475.034 140.032
L475.134 139.625
L475.234 139.625
L475.334 139.239
L475.434 139.239
L475.534 138.864
L475.633 138.864
L475.733 138.518
L475.833 138.518
L475.933 138.204
L476.033 138.204
L476.132 137.897
L476.232 137.897
L476.332 137.596
L476.432 137.596
L476.532 137.248
L476.631 137.248
L476.731 136.898
L476.831 136.898
L476.931 136.6
L477.031 136.6
L477.13 136.322
L477.23 136.322
L477.33 136.02
L477.43 136.02
L477.53 135.662
L477.63 135.662
L477.729 135.314
L477.829 135.314
L477.929 135.054
L478.129 134.944
L478.228 134.727
L478.328 134.727
L478.428 134.477
L478.528 134.477
L478.628 134.267
L478.827 134.174
L478.927 133.974
L479.127 133.863
L479.227 133.605
L479.326 133.605
L479.426 133.33
L479.526 133.33
L479.626 133.065
L479.726 133.065
L479.825 132.797
L479.925 132.797
L480.025 132.486
L480.125 132.486
L480.225 132.158
L480.324 132.158
L480.424 131.826
L480.524 131.826
L480.624 131.503
L480.724 131.503
L480.823 131.237
L480.923 131.237
L481.023 130.973
L481.123 130.973
L481.223 130.718
L481.323 130.718
L481.422 130.464
L481.522 130.464
L481.622 130.193
L481.722 130.193
L481.822 129.924
L481.921 129.924
L482.021 129.665
L482.121 129.665
L482.221 129.401
L482.321 129.401
L482.42 129.102
L482.52 129.102
L482.62 128.804
L482.72 128.804
L482.82 128.533
L482.919 128.533
L483.019 128.273
L483.119 128.273
L483.219 128.022
L483.319 128.022
L483.419 127.788
L483.518 127.788
L483.618 127.568
L483.818 127.474
L483.918 127.31
L484.117 127.219
L484.217 127.055
L484.417 126.962
L484.516 126.775
L484.716 126.683
L484.816 126.511
L485.016 126.406
L485.115 126.186
L485.315 126.109
L485.415 125.928
L485.614 125.832
L485.714 125.652
L485.914 125.559
L486.014 125.392
L486.213 125.306
L486.313 125.149
L486.513 125.064
L486.612 124.867
L486.812 124.762
L486.912 124.551
L487.012 124.551
L487.112 124.299
L487.211 124.299
L487.311 124.025
L487.411 124.025
L487.511 123.77
L487.611 123.77
L487.71 123.481
L487.81 123.481
L487.91 123.176
L488.01 123.176
L488.11 122.837
L488.209 122.837
L488.309 122.491
L488.409 122.491
L488.509 122.113
L488.609 122.113
L488.709 121.768
L488.808 121.768
L488.908 121.442
L489.008 121.442
L489.108 121.104
L489.208 121.104
L489.307 120.717
L489.407 120.717
L489.507 120.331
L489.607 120.331
L489.707 119.944
L489.806 119.944
L489.906 119.602
L490.006 119.602
L490.106 119.25
L490.206 119.25
L490.305 118.856
L490.405 118.856
L490.505 118.466
L490.605 118.466
L490.705 118.119
L490.805 118.119
L490.904 117.792
L491.004 117.792
L491.104 117.513
L491.204 117.513
L491.304 117.276
L491.403 117.276
L491.503 117.047
L491.603 117.047
L491.703 116.77
L491.803 116.77
L491.902 116.496
L492.002 116.496
L492.102 116.227
L492.202 116.227
L492.302 115.939
L492.401 115.939
L492.501 115.655
L492.601 115.655
L492.701 115.364
L492.801 115.364
L492.901 115.052
L493 115.052
L493.1 114.73
L493.2 114.73
L493.3 114.463
L493.4 114.463
L493.499 114.222
L493.599 114.222
L493.699 113.952
L493.799 113.952
L493.899 113.646
L493.998 113.646
L494.098 113.347
L494.198 113.347
L494.298 113.042
L494.398 113.042
L494.498 112.748
L494.597 112.748
L494.697 112.469
L494.797 112.469
L494.897 112.229
L494.997 112.229
L495.096 111.972
L495.196 111.972
L495.296 111.685
L495.396 111.685
L495.496 111.397
L495.595 111.397
L495.695 111.113
L495.795 111.113
L495.895 110.812
L495.995 110.812
L496.094 110.478
L496.194 110.478
L496.294 110.166
L496.394 110.166
L496.494 109.861
L496.594 109.861
L496.693 109.535
L496.793 109.535
L496.893 109.233
L496.993 109.233
L497.093 108.928
L497.192 108.928
L497.292 108.628
L497.392 108.628
L497.492 108.307
L497.592 108.307
L497.691 107.99
L497.791 107.99
L497.891 107.677
L497.991 107.677
L498.091 107.356
L498.191 107.356
L498.29 107.014
L498.39 107.014
L498.49 106.655
L498.59 106.655
L498.69 106.292
L498.789 106.292
L498.889 105.976
L498.989 105.976
L499.089 105.622
L499.189 105.622
L499.288 105.294
L499.388 105.294
L499.488 104.952
L499.588 104.952
L499.688 104.614
L499.787 104.614
L499.887 104.279
L499.987 104.279
L500.087 103.967
L500.187 103.967
L500.287 103.689
L500.386 103.689
L500.486 103.424
L500.586 103.424
L500.686 103.148
L500.885 103.04
L500.985 102.821
L501.185 102.716
L501.285 102.491
L501.484 102.38
L501.584 102.16
L501.684 102.16
L501.784 101.934
L501.983 101.827
L502.083 101.625
L502.183 101.625
L502.283 101.395
L502.482 101.284
L502.582 101.062
L502.682 101.062
L502.782 100.813
L502.882 100.813
L502.981 100.543
L503.081 100.543
L503.181 100.267
L503.281 100.267
L503.381 99.9864
L503.48 99.9864
L503.58 99.734
L503.68 99.734
L503.78 99.5005
L503.88 99.5005
L503.98 99.2666
L504.079 99.2666
L504.179 99.0497
L504.379 98.9534
L504.479 98.7884
L504.678 98.7182
L504.778 98.5871
L504.978 98.5231
L505.077 98.4156
L505.377 98.3266
L505.477 98.2489
L505.676 98.1951
L505.776 98.0695
L505.976 98.0065
L506.076 97.8958
L506.375 97.8236
L506.475 97.7344
L506.674 97.6706
L506.774 97.546
L506.974 97.4823
L507.074 97.3404
L507.273 97.2777
L507.373 97.153
L507.673 97.0432
L507.772 96.9737
L508.172 96.8673
L508.271 96.7938
L508.87 96.6875
L508.97 96.6349
L509.269 96.5612
L509.369 96.4845
L510.268 96.3855
L510.367 96.3485
L511.964 96.4497
L512.064 96.4765
L512.563 96.5725
L512.663 96.6427
L512.962 96.7512
L513.062 96.8585
L513.262 96.9144
L513.362 97.0471
L513.561 97.1063
L513.661 97.2281
L513.961 97.3359
L514.06 97.4879
L514.26 97.5557
L514.36 97.667
L514.659 97.7722
L514.759 97.9458
L514.959 98.0466
L515.058 98.2747
L515.258 98.3776
L515.358 98.5445
L515.558 98.6231
L515.657 98.7796
L515.857 98.8654
L515.957 99.0265
L516.156 99.1022
L516.256 99.2359
L516.456 99.3116
L516.556 99.4709
L516.755 99.5514
L516.855 99.7048
L517.055 99.7853
L517.155 99.9527
L517.354 100.052
L517.454 100.239
L517.654 100.322
L517.753 100.481
L517.953 100.551
L518.053 100.694
L518.352 100.789
L518.452 100.875
L518.751 100.984
L518.851 101.06
L522.045 101.15
L522.145 101.202
L522.444 101.284
L522.544 101.37
L523.043 101.471
L523.143 101.542
L523.642 101.652
L523.742 101.69
L525.539 101.605
L525.638 101.498
L525.938 101.395
L526.038 101.311
L526.437 101.217
L526.537 101.153
L526.936 101.049
L527.036 101.011
L527.535 100.91
L527.635 100.871
L529.032 100.773
L529.132 100.745
L529.93 100.651
L530.03 100.605
L530.629 100.508
L530.729 100.453
L531.427 100.349
L531.527 100.288
L532.525 100.196
L532.625 100.164
L536.218 100.06
L536.318 100.041
L536.817 99.9568
L536.917 99.882
L537.216 99.7868
L537.316 99.6908
L537.616 99.5968
L537.715 99.5188
L538.015 99.4341
L538.115 99.3707
L538.514 99.2637
L538.614 99.195
L538.913 99.1156
L539.013 98.9895
L539.312 98.8914
L539.412 98.7889
L539.612 98.7309
L539.712 98.6075
L539.911 98.5488
L540.011 98.4256
L540.311 98.3223
L540.41 98.2441
L540.71 98.1461
L540.81 98.0453
L541.109 97.9494
L541.209 97.885
L541.708 97.8085
L541.808 97.716
L542.107 97.6107
L542.207 97.5268
L542.506 97.434
L542.606 97.3601
L543.005 97.2834
L543.105 97.1871
L543.305 97.1285
L543.405 96.9889
L543.604 96.9124
L543.704 96.7533
L543.904 96.6787
L544.004 96.5288
L544.203 96.4381
L544.303 96.2801
L544.503 96.2178
L544.602 96.0532
L544.802 95.9689
L544.902 95.8263
L545.201 95.7251
L545.301 95.6685
L545.9 95.5606
L546 95.5554
L546 95.5595
L546.499 95.6564
L546.599 95.7596
L546.898 95.8633
L546.998 95.9426
L547.297 96.0178
L547.397 96.1117
L547.697 96.1916
L547.697 96.226
L547.697 96.226" style="fill:none;stroke:#0000ff;stroke-width:5.0;"/>
   </g>
   <g id="matplotlib.axis_1">
    <g id="xtick_1">
     <g id="line2d_2">
      <path d="
M169.053 397.926
L169.053 7.2" style="fill:none;stroke:#000000;stroke-dasharray:1.000000,3.000000;stroke-dashoffset:0.0;stroke-linecap:butt;stroke-width:0.5;"/>
     </g>
     <g id="line2d_3">
      <defs>
       <path d="
M0 0
L0 -4" id="m3fbe6c24f1"/>
      </defs>
      <g>
       <use style="stroke:#000000;stroke-linecap:butt;stroke-width:0.5;" x="169.052572153" xlink:href="#m3fbe6c24f1" y="390.412189349"/>
      </g>
     </g>
     <g id="text_1">
      <!-- 5 -->
      <defs>
       <path d="
M10.7969 72.9062
L49.5156 72.9062
L49.5156 64.5938
L19.8281 64.5938
L19.8281 46.7344
Q21.9688 47.4688 24.1094 47.8281
Q26.2656 48.1875 28.4219 48.1875
Q40.625 48.1875 47.75 41.5
Q54.8906 34.8125 54.8906 23.3906
Q54.8906 11.625 47.5625 5.09375
Q40.2344 -1.42188 26.9062 -1.42188
Q22.3125 -1.42188 17.5469 -0.640625
Q12.7969 0.140625 7.71875 1.70312
L7.71875 11.625
Q12.1094 9.23438 16.7969 8.0625
Q21.4844 6.89062 26.7031 6.89062
Q35.1562 6.89062 40.0781 11.3281
Q45.0156 15.7656 45.0156 23.3906
Q45.0156 31 40.0781 35.4375
Q35.1562 39.8906 26.7031 39.8906
Q22.75 39.8906 18.8125 39.0156
Q14.8906 38.1406 10.7969 36.2812
z
" id="BitstreamVeraSans-Roman-35"/>
      </defs>
      <g transform="translate(163.391947153 411.909689349)scale(0.24 -0.24)">
       <use xlink:href="#BitstreamVeraSans-Roman-35"/>
      </g>
     </g>
    </g>
    <g id="xtick_2">
     <g id="line2d_4">
      <path d="
M289.461 397.926
L289.461 7.2" style="fill:none;stroke:#000000;stroke-dasharray:1.000000,3.000000;stroke-dashoffset:0.0;stroke-linecap:butt;stroke-width:0.5;"/>
     </g>
     <g id="line2d_5">
      <defs>
       <path d="
M0 0
L0 -4" id="m3fbe6c24f1"/>
      </defs>
      <g>
       <use style="stroke:#000000;stroke-linecap:butt;stroke-width:0.5;" x="289.461389173" xlink:href="#m3fbe6c24f1" y="390.412189349"/>
      </g>
     </g>
     <g id="text_2">
      <!-- 10 -->
      <defs>
       <path d="
M31.7812 66.4062
Q24.1719 66.4062 20.3281 58.9062
Q16.5 51.4219 16.5 36.375
Q16.5 21.3906 20.3281 13.8906
Q24.1719 6.39062 31.7812 6.39062
Q39.4531 6.39062 43.2812 13.8906
Q47.125 21.3906 47.125 36.375
Q47.125 51.4219 43.2812 58.9062
Q39.4531 66.4062 31.7812 66.4062
M31.7812 74.2188
Q44.0469 74.2188 50.5156 64.5156
Q56.9844 54.8281 56.9844 36.375
Q56.9844 17.9688 50.5156 8.26562
Q44.0469 -1.42188 31.7812 -1.42188
Q19.5312 -1.42188 13.0625 8.26562
Q6.59375 17.9688 6.59375 36.375
Q6.59375 54.8281 13.0625 64.5156
Q19.5312 74.2188 31.7812 74.2188" id="BitstreamVeraSans-Roman-30"/>
       <path d="
M12.4062 8.29688
L28.5156 8.29688
L28.5156 63.9219
L10.9844 60.4062
L10.9844 69.3906
L28.4219 72.9062
L38.2812 72.9062
L38.2812 8.29688
L54.3906 8.29688
L54.3906 0
L12.4062 0
z
" id="BitstreamVeraSans-Roman-31"/>
      </defs>
      <g transform="translate(276.306389173 412.224689349)scale(0.24 -0.24)">
       <use xlink:href="#BitstreamVeraSans-Roman-31"/>
       <use x="63.623046875" xlink:href="#BitstreamVeraSans-Roman-30"/>
      </g>
     </g>
    </g>
    <g id="xtick_3">
     <g id="line2d_6">
      <path d="
M409.87 397.926
L409.87 7.2" style="fill:none;stroke:#000000;stroke-dasharray:1.000000,3.000000;stroke-dashoffset:0.0;stroke-linecap:butt;stroke-width:0.5;"/>
     </g>
     <g id="line2d_7">
      <defs>
       <path d="
M0 0
L0 -4" id="m3fbe6c24f1"/>
      </defs>
      <g>
       <use style="stroke:#000000;stroke-linecap:butt;stroke-width:0.5;" x="409.870206194" xlink:href="#m3fbe6c24f1" y="390.412189349"/>
      </g>
     </g>
     <g id="text_3">
      <!-- 15 -->
      <g transform="translate(396.966456194 411.909689349)scale(0.24 -0.24)">
       <use xlink:href="#BitstreamVeraSans-Roman-31"/>
       <use x="63.623046875" xlink:href="#BitstreamVeraSans-Roman-35"/>
      </g>
     </g>
    </g>
    <g id="xtick_4">
     <g id="line2d_8">
      <path d="
M530.279 397.926
L530.279 7.2" style="fill:none;stroke:#000000;stroke-dasharray:1.000000,3.000000;stroke-dashoffset:0.0;stroke-linecap:butt;stroke-width:0.5;"/>
     </g>
     <g id="line2d_9">
      <defs>
       <path d="
M0 0
L0 -4" id="m3fbe6c24f1"/>
      </defs>
      <g>
       <use style="stroke:#000000;stroke-linecap:butt;stroke-width:0.5;" x="530.279023215" xlink:href="#m3fbe6c24f1" y="390.412189349"/>
      </g>
     </g>
     <g id="text_4">
      <!-- 20 -->
      <defs>
       <path d="
M19.1875 8.29688
L53.6094 8.29688
L53.6094 0
L7.32812 0
L7.32812 8.29688
Q12.9375 14.1094 22.625 23.8906
Q32.3281 33.6875 34.8125 36.5312
Q39.5469 41.8438 41.4219 45.5312
Q43.3125 49.2188 43.3125 52.7812
Q43.3125 58.5938 39.2344 62.25
Q35.1562 65.9219 28.6094 65.9219
Q23.9688 65.9219 18.8125 64.3125
Q13.6719 62.7031 7.8125 59.4219
L7.8125 69.3906
Q13.7656 71.7812 18.9375 73
Q24.125 74.2188 28.4219 74.2188
Q39.75 74.2188 46.4844 68.5469
Q53.2188 62.8906 53.2188 53.4219
Q53.2188 48.9219 51.5312 44.8906
Q49.8594 40.875 45.4062 35.4062
Q44.1875 33.9844 37.6406 27.2188
Q31.1094 20.4531 19.1875 8.29688" id="BitstreamVeraSans-Roman-32"/>
      </defs>
      <g transform="translate(516.685273215 412.224689349)scale(0.24 -0.24)">
       <use xlink:href="#BitstreamVeraSans-Roman-32"/>
       <use x="63.623046875" xlink:href="#BitstreamVeraSans-Roman-30"/>
      </g>
     </g>
    </g>
    <g id="xtick_5">
     <g id="line2d_10">
      <defs>
       <path d="
M0 0
L0 -2" id="mf0ff38ea95"/>
      </defs>
      <g>
       <use style="stroke:#000000;stroke-linecap:butt;stroke-width:0.5;" x="72.7255185361" xlink:href="#mf0ff38ea95" y="390.412189349"/>
      </g>
     </g>
    </g>
    <g id="xtick_6">
     <g id="line2d_11">
      <defs>
       <path d="
M0 0
L0 -2" id="mf0ff38ea95"/>
      </defs>
      <g>
       <use style="stroke:#000000;stroke-linecap:butt;stroke-width:0.5;" x="96.8072819403" xlink:href="#mf0ff38ea95" y="390.412189349"/>
      </g>
     </g>
    </g>
    <g id="xtick_7">
     <g id="line2d_12">
      <defs>
       <path d="
M0 0
L0 -2" id="mf0ff38ea95"/>
      </defs>
      <g>
       <use style="stroke:#000000;stroke-linecap:butt;stroke-width:0.5;" x="120.889045344" xlink:href="#mf0ff38ea95" y="390.412189349"/>
      </g>
     </g>
    </g>
    <g id="xtick_8">
     <g id="line2d_13">
      <defs>
       <path d="
M0 0
L0 -2" id="mf0ff38ea95"/>
      </defs>
      <g>
       <use style="stroke:#000000;stroke-linecap:butt;stroke-width:0.5;" x="144.970808749" xlink:href="#mf0ff38ea95" y="390.412189349"/>
      </g>
     </g>
    </g>
    <g id="xtick_9">
     <g id="line2d_14">
      <defs>
       <path d="
M0 0
L0 -2" id="mf0ff38ea95"/>
      </defs>
      <g>
       <use style="stroke:#000000;stroke-linecap:butt;stroke-width:0.5;" x="193.134335557" xlink:href="#mf0ff38ea95" y="390.412189349"/>
      </g>
     </g>
    </g>
    <g id="xtick_10">
     <g id="line2d_15">
      <defs>
       <path d="
M0 0
L0 -2" id="mf0ff38ea95"/>
      </defs>
      <g>
       <use style="stroke:#000000;stroke-linecap:butt;stroke-width:0.5;" x="217.216098961" xlink:href="#mf0ff38ea95" y="390.412189349"/>
      </g>
     </g>
    </g>
    <g id="xtick_11">
     <g id="line2d_16">
      <defs>
       <path d="
M0 0
L0 -2" id="mf0ff38ea95"/>
      </defs>
      <g>
       <use style="stroke:#000000;stroke-linecap:butt;stroke-width:0.5;" x="241.297862365" xlink:href="#mf0ff38ea95" y="390.412189349"/>
      </g>
     </g>
    </g>
    <g id="xtick_12">
     <g id="line2d_17">
      <defs>
       <path d="
M0 0
L0 -2" id="mf0ff38ea95"/>
      </defs>
      <g>
       <use style="stroke:#000000;stroke-linecap:butt;stroke-width:0.5;" x="265.379625769" xlink:href="#mf0ff38ea95" y="390.412189349"/>
      </g>
     </g>
    </g>
    <g id="xtick_13">
     <g id="line2d_18">
      <defs>
       <path d="
M0 0
L0 -2" id="mf0ff38ea95"/>
      </defs>
      <g>
       <use style="stroke:#000000;stroke-linecap:butt;stroke-width:0.5;" x="313.543152578" xlink:href="#mf0ff38ea95" y="390.412189349"/>
      </g>
     </g>
    </g>
    <g id="xtick_14">
     <g id="line2d_19">
      <defs>
       <path d="
M0 0
L0 -2" id="mf0ff38ea95"/>
      </defs>
      <g>
       <use style="stroke:#000000;stroke-linecap:butt;stroke-width:0.5;" x="337.624915982" xlink:href="#mf0ff38ea95" y="390.412189349"/>
      </g>
     </g>
    </g>
    <g id="xtick_15">
     <g id="line2d_20">
      <defs>
       <path d="
M0 0
L0 -2" id="mf0ff38ea95"/>
      </defs>
      <g>
       <use style="stroke:#000000;stroke-linecap:butt;stroke-width:0.5;" x="361.706679386" xlink:href="#mf0ff38ea95" y="390.412189349"/>
      </g>
     </g>
    </g>
    <g id="xtick_16">
     <g id="line2d_21">
      <defs>
       <path d="
M0 0
L0 -2" id="mf0ff38ea95"/>
      </defs>
      <g>
       <use style="stroke:#000000;stroke-linecap:butt;stroke-width:0.5;" x="385.78844279" xlink:href="#mf0ff38ea95" y="390.412189349"/>
      </g>
     </g>
    </g>
    <g id="xtick_17">
     <g id="line2d_22">
      <defs>
       <path d="
M0 0
L0 -2" id="mf0ff38ea95"/>
      </defs>
      <g>
       <use style="stroke:#000000;stroke-linecap:butt;stroke-width:0.5;" x="433.951969598" xlink:href="#mf0ff38ea95" y="390.412189349"/>
      </g>
     </g>
    </g>
    <g id="xtick_18">
     <g id="line2d_23">
      <defs>
       <path d="
M0 0
L0 -2" id="mf0ff38ea95"/>
      </defs>
      <g>
       <use style="stroke:#000000;stroke-linecap:butt;stroke-width:0.5;" x="458.033733003" xlink:href="#mf0ff38ea95" y="390.412189349"/>
      </g>
     </g>
    </g>
    <g id="xtick_19">
     <g id="line2d_24">
      <defs>
       <path d="
M0 0
L0 -2" id="mf0ff38ea95"/>
      </defs>
      <g>
       <use style="stroke:#000000;stroke-linecap:butt;stroke-width:0.5;" x="482.115496407" xlink:href="#mf0ff38ea95" y="390.412189349"/>
      </g>
     </g>
    </g>
    <g id="xtick_20">
     <g id="line2d_25">
      <defs>
       <path d="
M0 0
L0 -2" id="mf0ff38ea95"/>
      </defs>
      <g>
       <use style="stroke:#000000;stroke-linecap:butt;stroke-width:0.5;" x="506.197259811" xlink:href="#mf0ff38ea95" y="390.412189349"/>
      </g>
     </g>
    </g>
   </g>
   <g id="matplotlib.axis_2">
    <g id="ytick_1">
     <g id="line2d_26">
      <path d="
M55.6887 390.412
L557.344 390.412" style="fill:none;stroke:#000000;stroke-dasharray:1.000000,3.000000;stroke-dashoffset:0.0;stroke-linecap:butt;stroke-width:0.5;"/>
     </g>
     <g id="line2d_27">
      <defs>
       <path d="
M0 0
L4 0" id="mc91e532072"/>
      </defs>
      <g>
       <use style="stroke:#000000;stroke-linecap:butt;stroke-width:0.5;" x="45.68875" xlink:href="#mc91e532072" y="390.412189349"/>
      </g>
     </g>
     <g id="text_5">
      <!-- 0 -->
      <g transform="translate(29.595 399.147814349)scale(0.24 -0.24)">
       <use xlink:href="#BitstreamVeraSans-Roman-30"/>
      </g>
     </g>
    </g>
    <g id="ytick_2">
     <g id="line2d_28">
      <path d="
M55.6887 292.149
L557.344 292.149" style="fill:none;stroke:#000000;stroke-dasharray:1.000000,3.000000;stroke-dashoffset:0.0;stroke-linecap:butt;stroke-width:0.5;"/>
     </g>
     <g id="line2d_29">
      <defs>
       <path d="
M0 0
L4 0" id="mc91e532072"/>
      </defs>
      <g>
       <use style="stroke:#000000;stroke-linecap:butt;stroke-width:0.5;" x="45.68875" xlink:href="#mc91e532072" y="292.149160216"/>
      </g>
     </g>
     <g id="text_6">
      <!-- 0.5 -->
      <defs>
       <path d="
M10.6875 12.4062
L21 12.4062
L21 0
L10.6875 0
z
" id="BitstreamVeraSans-Roman-2e"/>
      </defs>
      <g transform="translate(7.2 300.884785216)scale(0.24 -0.24)">
       <use xlink:href="#BitstreamVeraSans-Roman-30"/>
       <use x="63.623046875" xlink:href="#BitstreamVeraSans-Roman-2e"/>
       <use x="95.41015625" xlink:href="#BitstreamVeraSans-Roman-35"/>
      </g>
     </g>
    </g>
    <g id="ytick_3">
     <g id="line2d_30">
      <path d="
M55.6887 193.886
L557.344 193.886" style="fill:none;stroke:#000000;stroke-dasharray:1.000000,3.000000;stroke-dashoffset:0.0;stroke-linecap:butt;stroke-width:0.5;"/>
     </g>
     <g id="line2d_31">
      <defs>
       <path d="
M0 0
L4 0" id="mc91e532072"/>
      </defs>
      <g>
       <use style="stroke:#000000;stroke-linecap:butt;stroke-width:0.5;" x="45.68875" xlink:href="#mc91e532072" y="193.886131083"/>
      </g>
     </g>
     <g id="text_7">
      <!-- 1 -->
      <g transform="translate(31.27125 202.634881083)scale(0.24 -0.24)">
       <use xlink:href="#BitstreamVeraSans-Roman-31"/>
      </g>
     </g>
    </g>
    <g id="ytick_4">
     <g id="line2d_32">
      <path d="
M55.6887 95.6231
L557.344 95.6231" style="fill:none;stroke:#000000;stroke-dasharray:1.000000,3.000000;stroke-dashoffset:0.0;stroke-linecap:butt;stroke-width:0.5;"/>
     </g>
     <g id="line2d_33">
      <defs>
       <path d="
M0 0
L4 0" id="mc91e532072"/>
      </defs>
      <g>
       <use style="stroke:#000000;stroke-linecap:butt;stroke-width:0.5;" x="45.68875" xlink:href="#mc91e532072" y="95.6231019498"/>
      </g>
     </g>
     <g id="text_8">
      <!-- 1.5 -->
      <g transform="translate(8.25375 104.20122695)scale(0.24 -0.24)">
       <use xlink:href="#BitstreamVeraSans-Roman-31"/>
       <use x="63.623046875" xlink:href="#BitstreamVeraSans-Roman-2e"/>
       <use x="95.41015625" xlink:href="#BitstreamVeraSans-Roman-35"/>
      </g>
     </g>
    </g>
    <g id="ytick_5">
     <g id="line2d_34">
      <defs>
       <path d="
M0 0
L2 0" id="m0789224b6b"/>
      </defs>
      <g>
       <use style="stroke:#000000;stroke-linecap:butt;stroke-width:0.5;" x="45.68875" xlink:href="#m0789224b6b" y="370.759583522"/>
      </g>
     </g>
    </g>
    <g id="ytick_6">
     <g id="line2d_35">
      <defs>
       <path d="
M0 0
L2 0" id="m0789224b6b"/>
      </defs>
      <g>
       <use style="stroke:#000000;stroke-linecap:butt;stroke-width:0.5;" x="45.68875" xlink:href="#m0789224b6b" y="351.106977696"/>
      </g>
     </g>
    </g>
    <g id="ytick_7">
     <g id="line2d_36">
      <defs>
       <path d="
M0 0
L2 0" id="m0789224b6b"/>
      </defs>
      <g>
       <use style="stroke:#000000;stroke-linecap:butt;stroke-width:0.5;" x="45.68875" xlink:href="#m0789224b6b" y="331.454371869"/>
      </g>
     </g>
    </g>
    <g id="ytick_8">
     <g id="line2d_37">
      <defs>
       <path d="
M0 0
L2 0" id="m0789224b6b"/>
      </defs>
      <g>
       <use style="stroke:#000000;stroke-linecap:butt;stroke-width:0.5;" x="45.68875" xlink:href="#m0789224b6b" y="311.801766043"/>
      </g>
     </g>
    </g>
    <g id="ytick_9">
     <g id="line2d_38">
      <defs>
       <path d="
M0 0
L2 0" id="m0789224b6b"/>
      </defs>
      <g>
       <use style="stroke:#000000;stroke-linecap:butt;stroke-width:0.5;" x="45.68875" xlink:href="#m0789224b6b" y="292.149160216"/>
      </g>
     </g>
    </g>
    <g id="ytick_10">
     <g id="line2d_39">
      <defs>
       <path d="
M0 0
L2 0" id="m0789224b6b"/>
      </defs>
      <g>
       <use style="stroke:#000000;stroke-linecap:butt;stroke-width:0.5;" x="45.68875" xlink:href="#m0789224b6b" y="272.496554389"/>
      </g>
     </g>
    </g>
    <g id="ytick_11">
     <g id="line2d_40">
      <defs>
       <path d="
M0 0
L2 0" id="m0789224b6b"/>
      </defs>
      <g>
       <use style="stroke:#000000;stroke-linecap:butt;stroke-width:0.5;" x="45.68875" xlink:href="#m0789224b6b" y="252.843948563"/>
      </g>
     </g>
    </g>
    <g id="ytick_12">
     <g id="line2d_41">
      <defs>
       <path d="
M0 0
L2 0" id="m0789224b6b"/>
      </defs>
      <g>
       <use style="stroke:#000000;stroke-linecap:butt;stroke-width:0.5;" x="45.68875" xlink:href="#m0789224b6b" y="233.191342736"/>
      </g>
     </g>
    </g>
    <g id="ytick_13">
     <g id="line2d_42">
      <defs>
       <path d="
M0 0
L2 0" id="m0789224b6b"/>
      </defs>
      <g>
       <use style="stroke:#000000;stroke-linecap:butt;stroke-width:0.5;" x="45.68875" xlink:href="#m0789224b6b" y="213.53873691"/>
      </g>
     </g>
    </g>
    <g id="ytick_14">
     <g id="line2d_43">
      <defs>
       <path d="
M0 0
L2 0" id="m0789224b6b"/>
      </defs>
      <g>
       <use style="stroke:#000000;stroke-linecap:butt;stroke-width:0.5;" x="45.68875" xlink:href="#m0789224b6b" y="193.886131083"/>
      </g>
     </g>
    </g>
    <g id="ytick_15">
     <g id="line2d_44">
      <defs>
       <path d="
M0 0
L2 0" id="m0789224b6b"/>
      </defs>
      <g>
       <use style="stroke:#000000;stroke-linecap:butt;stroke-width:0.5;" x="45.68875" xlink:href="#m0789224b6b" y="174.233525256"/>
      </g>
     </g>
    </g>
    <g id="ytick_16">
     <g id="line2d_45">
      <defs>
       <path d="
M0 0
L2 0" id="m0789224b6b"/>
      </defs>
      <g>
       <use style="stroke:#000000;stroke-linecap:butt;stroke-width:0.5;" x="45.68875" xlink:href="#m0789224b6b" y="154.58091943"/>
      </g>
     </g>
    </g>
    <g id="ytick_17">
     <g id="line2d_46">
      <defs>
       <path d="
M0 0
L2 0" id="m0789224b6b"/>
      </defs>
      <g>
       <use style="stroke:#000000;stroke-linecap:butt;stroke-width:0.5;" x="45.68875" xlink:href="#m0789224b6b" y="134.928313603"/>
      </g>
     </g>
    </g>
    <g id="ytick_18">
     <g id="line2d_47">
      <defs>
       <path d="
M0 0
L2 0" id="m0789224b6b"/>
      </defs>
      <g>
       <use style="stroke:#000000;stroke-linecap:butt;stroke-width:0.5;" x="45.68875" xlink:href="#m0789224b6b" y="115.275707776"/>
      </g>
     </g>
    </g>
    <g id="ytick_19">
     <g id="line2d_48">
      <defs>
       <path d="
M0 0
L2 0" id="m0789224b6b"/>
      </defs>
      <g>
       <use style="stroke:#000000;stroke-linecap:butt;stroke-width:0.5;" x="45.68875" xlink:href="#m0789224b6b" y="95.6231019498"/>
      </g>
     </g>
    </g>
    <g id="ytick_20">
     <g id="line2d_49">
      <defs>
       <path d="
M0 0
L2 0" id="m0789224b6b"/>
      </defs>
      <g>
       <use style="stroke:#000000;stroke-linecap:butt;stroke-width:0.5;" x="45.68875" xlink:href="#m0789224b6b" y="75.9704961232"/>
      </g>
     </g>
    </g>
    <g id="ytick_21">
     <g id="line2d_50">
      <defs>
       <path d="
M0 0
L2 0" id="m0789224b6b"/>
      </defs>
      <g>
       <use style="stroke:#000000;stroke-linecap:butt;stroke-width:0.5;" x="45.68875" xlink:href="#m0789224b6b" y="56.3178902966"/>
      </g>
     </g>
    </g>
    <g id="ytick_22">
     <g id="line2d_51">
      <defs>
       <path d="
M0 0
L2 0" id="m0789224b6b"/>
      </defs>
      <g>
       <use style="stroke:#000000;stroke-linecap:butt;stroke-width:0.5;" x="45.68875" xlink:href="#m0789224b6b" y="36.66528447"/>
      </g>
     </g>
    </g>
    <g id="ytick_23">
     <g id="line2d_52">
      <defs>
       <path d="
M0 0
L2 0" id="m0789224b6b"/>
      </defs>
      <g>
       <use style="stroke:#000000;stroke-linecap:butt;stroke-width:0.5;" x="45.68875" xlink:href="#m0789224b6b" y="17.0126786434"/>
      </g>
     </g>
    </g>
   </g>
   <g id="patch_3">
    <path d="
M55.6887 390.412
L557.344 390.412" style="fill:none;stroke:#000000;stroke-width:0.8;"/>
   </g>
   <g id="patch_4">
    <path d="
M45.6887 397.926
L45.6887 7.2" style="fill:none;stroke:#000000;stroke-width:0.8;"/>
   </g>
  </g>
 </g>
 <defs>
  <clipPath id="pda58150b38">
   <rect height="390.726153846" width="501.655" x="55.68875" y="7.2"/>
  </clipPath>
 </defs>
</svg>
