<?xml version="1.0" encoding="utf-8" standalone="no"?>
<!DOCTYPE svg PUBLIC "-//W3C//DTD SVG 1.1//EN"
  "http://www.w3.org/Graphics/SVG/1.1/DTD/svg11.dtd">
<!-- Created with matplotlib (http://matplotlib.sourceforge.net/) -->
<svg height="419pt" version="1.1" viewBox="0 0 564 419" width="564pt" xmlns="http://www.w3.org/2000/svg" xmlns:xlink="http://www.w3.org/1999/xlink">
 <defs>
  <style type="text/css">
*{stroke-linecap:square;stroke-linejoin:round;}
  </style>
 </defs>
 <g id="figure_1">
  <g id="patch_1">
   <path d="
M2.22045e-16 419.766
L564.619 419.766
L564.619 0
L2.22045e-16 0
z
" style="fill:#ffffff;"/>
  </g>
  <g id="axes_1">
   <g id="patch_2">
    <path d="
M56.4387 397.926
L557.419 397.926
L557.419 7.2
L56.4387 7.2
z
" style="fill:#ffffff;"/>
   </g>
   <g id="line2d_1">
    <path clip-path="url(#p3e282f3160)" d="
M66.073 390.412
L75.8242 390.412
L75.8242 369.518
L88.1092 369.518
L88.1092 318.243
L96.2011 318.243
L96.2011 306.91
L107.071 306.91
L107.071 250.233
L111.089 250.233
L111.089 241.564
L117.54 241.564
L117.54 266.007
L120.215 266.007
L120.215 273.027
L124.81 273.027
L124.81 299.055
L130.385 299.055
L130.385 309.015
L131.988 309.015
L131.988 312.053
L136.244 312.053
L136.244 317.271
L138.712 317.271
L138.712 317.446
L139.858 317.446
L139.858 315.597
L141.997 315.597
L141.997 312.729
L144.886 312.729
L144.886 306.095
L147.465 306.095
L147.465 297.62
L148.267 297.62
L148.267 293.976
L150.523 293.976
L150.523 285.998
L151.918 285.998
L151.918 281.637
L152.586 281.637
L152.586 279.17
L154.486 279.17
L154.486 270.187
L155.674 270.187
L155.674 264.832
L157.352 264.832
L157.352 256.02
L159.422 256.02
L159.422 248.402
L160.394 248.402
L160.394 245.875
L160.866 245.875
L160.866 244.382
L161.782 244.382
L161.782 240.986
L162.227 240.986
L162.227 239.136
L163.094 239.136
L163.094 235.8
L165.903 235.8
L165.903 228.377
L166.649 228.377
L166.649 226.686
L167.726 226.686
L167.726 224.02
L168.074 224.02
L168.074 223.146
L169.745 223.146
L169.745 220.476
L170.066 220.476
L170.066 219.993
L171.003 219.993
L171.003 218.322
L171.905 218.322
L171.905 217.549
L172.488 217.549
L172.488 217.104
L173.337 217.104
L173.337 216.101
L174.157 216.101
L174.157 214.945
L174.424 214.945
L174.424 214.558
L175.717 214.558
L175.717 213.048
L175.968 213.048
L175.968 212.639
L176.461 212.639
L176.461 211.744
L176.704 211.744
L176.704 211.226
L178.112 211.226
L178.112 208.257
L179.442 208.257
L179.442 205.084
L179.87 205.084
L179.87 204.151
L180.081 204.151
L180.081 203.634
L180.497 203.634
L180.497 202.819
L181.109 202.819
L181.109 201.946
L181.309 201.946
L181.309 201.557
L182.287 201.557
L182.287 199.301
L182.855 199.301
L182.855 197.78
L183.41 197.78
L183.41 196.531
L183.952 196.531
L183.952 195.554
L184.131 195.554
L184.131 195.271
L184.657 195.271
L184.657 194.363
L185.002 194.363
L185.002 193.801
L185.173 193.801
L185.173 193.617
L186.008 193.617
L186.008 192.803
L187.13 192.803
L187.13 191.394
L187.442 191.394
L187.442 191.032
L187.596 191.032
L187.596 190.809
L187.901 190.809
L187.901 190.508
L188.94 190.508
L188.94 188.962
L189.373 188.962
L189.373 188.333
L190.076 188.333
L190.076 187.211
L190.214 187.211
L190.214 186.967
L190.488 186.967
L190.488 186.459
L190.893 186.459
L190.893 185.765
L191.423 185.765
L191.423 184.811
L191.813 184.811
L191.813 183.929
L192.197 183.929
L192.197 182.902
L192.45 182.902
L192.45 182.213
L192.824 182.213
L192.824 181.17
L193.313 181.17
L193.313 179.746
L193.554 179.746
L193.554 179.068
L194.029 179.068
L194.029 177.941
L194.61 177.941
L194.61 176.787
L194.725 176.787
L194.725 176.555
L195.289 176.555
L195.289 175.459
L195.401 175.459
L195.401 175.225
L195.732 175.225
L195.732 174.562
L195.95 174.562
L195.95 174.052
L196.273 174.052
L196.273 173.388
L196.698 173.388
L196.698 172.547
L196.908 172.547
L197.012 171.791
L197.219 171.791
L197.219 171.279
L197.829 171.279
L197.829 169.708
L198.227 169.708
L198.227 168.593
L198.424 168.593
L198.424 168.01
L198.812 168.01
L198.812 166.967
L199.004 166.967
L199.004 166.431
L199.29 166.431
L199.29 165.545
L199.85 165.545
L199.942 163.727
L200.756 163.727
L200.756 161.719
L201.021 161.719
L201.021 161.077
L201.457 161.077
L201.457 160.032
L201.715 160.032
L201.715 159.415
L201.97 159.415
L202.054 158.492
L202.305 158.492
L202.305 157.707
L202.719 157.707
L202.719 156.302
L202.963 156.302
L202.963 155.529
L203.205 155.529
L203.285 154.598
L203.524 154.598
L203.524 153.829
L203.761 153.829
L203.761 153.128
L203.917 153.128
L203.995 152.453
L204.457 152.453
L204.457 151.146
L204.835 151.146
L204.91 149.818
L205.059 149.818
L205.059 149.446
L205.281 149.446
L205.281 148.854
L205.501 148.854
L205.574 148.1
L206.007 148.1
L206.007 146.99
L206.149 146.99
L206.149 146.6
L206.361 146.6
L206.361 145.984
L206.641 145.984
L206.641 145.233
L206.987 145.233
L206.987 144.283
L207.26 144.283
L207.26 143.488
L207.597 143.488
L207.597 142.504
L207.863 142.504
L207.863 141.693
L208.06 141.693
L208.06 141.084
L208.256 141.084
L208.256 140.521
L208.386 140.521
L208.386 140.178
L208.644 140.178
L208.644 139.467
L208.835 139.467
L208.835 138.945
L208.962 138.945
L208.962 138.588
L209.213 138.588
L209.213 137.869
L209.338 137.869
L209.338 137.55
L209.77 137.55
L209.77 136.47
L210.074 136.47
L210.074 135.806
L210.433 135.806
L210.492 134.957
L210.787 134.957
L210.846 134.305
L210.962 134.305
L211.02 134.01
L211.309 134.01
L211.309 133.522
L211.707 133.522
L211.707 132.834
L211.819 132.834
L211.875 132.53
L211.987 132.53
L211.987 132.346
L212.374 132.346
L212.483 131.517
L212.647 131.422
L212.647 131.239
L213.183 131.239
L213.289 130.071
L213.499 130.071
L213.499 129.73
L213.759 129.73
L213.759 129.292
L213.965 129.292
L214.068 128.709
L214.221 128.709
L214.221 128.44
L214.373 128.44
L214.373 128.176
L214.723 128.176
L214.823 127.321
L214.971 127.321
L214.971 127.034
L215.118 127.034
L215.118 126.736
L215.313 126.736
L215.313 126.34
L215.458 126.34
L215.458 126.019
L215.746 126.019
L215.841 125.192
L215.983 125.192
L216.03 124.781
L216.265 124.781
L216.311 124.16
L216.45 124.16
L216.45 123.824
L216.681 123.824
L216.727 123.219
L216.954 123.219
L217 122.62
L217.135 122.62
L217.135 122.326
L217.537 122.326
L217.625 121.307
L217.757 121.217
L217.757 121.049
L217.888 121.049
L217.888 120.788
L218.018 120.788
L218.018 120.528
L218.191 120.528
L218.191 120.175
L218.32 120.175
L218.32 119.929
L218.448 119.929
L218.448 119.68
L218.912 119.68
L218.954 118.636
L219.162 118.636
L219.162 118.245
L219.327 118.245
L219.327 117.975
L219.531 117.975
L219.531 117.68
L219.653 117.68
L219.653 117.484
L219.774 117.484
L219.774 117.288
L219.935 117.288
L219.935 116.995
L220.174 116.995
L220.253 116.409
L220.372 116.409
L220.372 116.186
L220.489 116.186
L220.528 115.852
L220.645 115.852
L220.645 115.596
L220.878 115.596
L220.878 115.085
L221.069 115.085
L221.069 114.656
L221.411 114.656
L221.448 113.825
L221.523 113.825
L221.523 113.647
L221.636 113.647
L221.673 113.324
L221.784 113.324
L221.895 112.83
L221.969 112.83
L221.969 112.667
L222.189 112.667
L222.225 112.073
L222.334 112.073
L222.334 111.833
L222.943 111.833
L223.049 110.189
L223.154 110.189
L223.154 109.945
L223.294 109.945
L223.294 109.603
L223.605 109.603
L223.605 108.842
L223.776 108.842
L223.776 108.417
L224.014 108.417
L224.115 107.585
L224.183 107.585
L224.283 107.148
L224.416 107.148
L224.516 106.556
L224.615 106.556
L224.615 106.295
L224.812 106.295
L224.812 105.792
L224.975 105.792
L225.072 105.109
L225.169 105.022
L225.265 104.601
L225.457 104.601
L225.457 104.109
L225.647 104.109
L225.647 103.591
L225.773 103.591
L225.773 103.237
L225.961 103.237
L226.055 102.417
L226.117 102.417
L226.209 101.98
L226.332 101.98
L226.394 101.473
L226.516 101.473
L226.577 101.004
L226.788 101.004
L226.849 100.304
L226.939 100.304
L227.028 99.8636
L227.118 99.8636
L227.147 99.5641
L227.236 99.5641
L227.236 99.3392
L227.383 99.3392
L227.383 98.9491
L227.675 98.9491
L227.762 97.9292
L227.82 97.9292
L227.849 97.6869
L228.192 97.6869
L228.277 96.5135
L228.419 96.5135
L228.419 96.1637
L228.587 96.1637
L228.615 95.7033
L228.754 95.7033
L228.865 95.1295
L228.947 95.1295
L229.03 94.7277
L229.112 94.7277
L229.112 94.5286
L229.357 94.5286
L229.438 93.7175
L229.492 93.7175
L229.519 93.5145
L229.68 93.5145
L229.68 93.1129
L229.813 93.1129
L229.813 92.8003
L229.972 92.8003
L230.077 92.204
L230.286 92.204
L230.286 91.7271
L230.468 91.7271
L230.545 91.1811
L230.622 91.0813
L230.699 90.8702
L230.827 90.8702
L230.827 90.5883
L230.979 90.5883
L231.055 90.072
L231.13 90.072
L231.13 89.9087
L231.356 89.9087
L231.381 89.3521
L231.579 89.3521
L231.604 88.8489
L231.873 88.8489
L231.946 88.0122
L232.043 88.0122
L232.116 87.6168
L232.164 87.6168
L232.236 87.3282
L232.332 87.3282
L232.404 86.9623
L232.523 86.9623
L232.546 86.6583
L232.665 86.6583
L232.665 86.4127
L232.829 86.4127
L232.829 86.062
L232.946 86.062
L233.016 85.6895
L233.155 85.6895
L233.247 85.2049
L233.362 85.2049
L233.362 84.9608
L233.499 84.9608
L233.522 84.6212
L233.703 84.6212
L233.793 84.0047
L233.861 83.9079
L233.861 83.8567
L233.973 83.8567
L234.062 83.3828
L234.262 83.3828
L234.262 82.9173
L234.525 82.9173
L234.634 82.0822
L234.721 82.0822
L234.721 81.8868
L234.893 81.8868
L234.958 81.3432
L235.043 81.3432
L235.043 81.1354
L235.214 81.1354
L235.277 80.5626
L235.362 80.5626
L235.425 80.2242
L235.488 80.2242
L235.53 79.9985
L235.655 79.9985
L235.676 79.6702
L235.904 79.6702
L235.986 78.9849
L236.048 78.9849
L236.15 78.6382
L236.292 78.6382
L236.394 78.1447
L236.474 78.1056
L236.575 77.7734
L236.695 77.7734
L236.755 77.3915
L236.814 77.3915
L236.814 77.2658
L236.953 77.2658
L237.051 76.7665
L237.169 76.7665
L237.247 76.3658
L237.305 76.3658
L237.344 76.1574
L237.595 76.1574
L237.595 75.6299
L237.768 75.6299
L237.863 75.0677
L237.939 75.0677
L238.033 74.6852
L238.109 74.6421
L238.109 74.5097
L238.315 74.5097
L238.315 74.026
L238.426 74.026
L238.445 73.7061
L238.593 73.7061
L238.703 73.1089
L238.813 73.1089
L238.813 72.8604
L238.941 72.8604
L239.049 72.3084
L239.158 72.2264
L239.265 71.8138
L239.355 71.7041
L239.408 71.5225
L239.48 71.5225
L239.586 71.2038
L239.674 71.2038
L239.78 70.8666
L239.85 70.8666
L239.885 70.6675
L240.007 70.6675
L240.094 70.2383
L240.197 70.2383
L240.301 69.7924
L240.455 69.7562
L240.455 69.4552
L240.574 69.4552
L240.659 69.0059
L240.726 69.0059
L240.81 68.6645
L240.961 68.6645
L241.028 68.1718
L241.111 68.1718
L241.21 67.8027
L241.277 67.8027
L241.359 67.5265
L241.457 67.5265
L241.457 67.3505
L241.571 67.3505
L241.653 66.997
L241.718 66.9069
L241.718 66.876
L241.943 66.876
L242.039 66.3026
L242.135 66.1957
L242.135 66.1445
L242.246 66.1445
L242.341 65.8166
L242.435 65.8166
L242.482 65.5974
L242.576 65.5974
L242.654 65.3487
L242.81 65.3487
L242.902 64.9794
L243.025 64.9794
L243.025 64.7739
L243.224 64.7739
L243.269 64.3875
L243.36 64.3875
L243.436 64.1281
L243.526 64.1281
L243.631 63.8231
L243.72 63.7739
L243.72 63.6738
L243.884 63.6738
L243.943 63.2955
L244.031 63.2955
L244.031 63.1248
L244.236 63.1248
L244.338 62.5528
L244.41 62.476
L244.468 62.3344
L244.555 62.3344
L244.584 62.1497
L244.67 62.1497
L244.77 61.8474
L244.883 61.8474
L244.898 61.639
L245.011 61.639
L245.053 61.3846
L245.194 61.3846
L245.194 61.1611
L245.305 61.1611
L245.403 60.8445
L245.597 60.7854
L245.652 60.4821
L245.734 60.4821
L245.843 60.1925
L245.925 60.1291
L245.979 59.9884
L246.061 59.8835
L246.141 59.741
L246.222 59.6357
L246.289 59.5066
L246.383 59.5066
L246.489 59.1786
L246.582 59.0906
L246.622 58.9539
L246.727 58.9539
L246.819 58.6279
L246.936 58.5835
L247.001 58.3281
L247.118 58.2477
L247.208 57.994
L247.388 57.9318
L247.439 57.6373
L247.592 57.5353
L247.655 57.2912
L247.769 57.2912
L247.844 56.9998
L247.932 56.9998
L248.032 56.7154
L248.119 56.7154
L248.193 56.462
L248.304 56.462
L248.402 56.1542
L248.525 56.0799
L248.549 55.9269
L248.671 55.9269
L248.671 55.7276
L248.804 55.7276
L248.912 55.3074
L248.984 55.2431
L249.032 55.0932
L249.163 55.0932
L249.21 54.7656
L249.305 54.7656
L249.411 54.3921
L249.528 54.3087
L249.633 53.9847
L249.773 53.8761
L249.807 53.6655
L249.911 53.6655
L249.911 53.489
L250.049 53.489
L250.152 53.0872
L250.22 52.9918
L250.288 52.8614
L250.379 52.7688
L250.458 52.5854
L250.547 52.5031
L250.592 52.3836
L250.76 52.3836
L250.826 52.0248
L250.926 51.9418
L251.014 51.7196
L251.113 51.7196
L251.211 51.3729
L251.276 51.3729
L251.385 51.0696
L251.472 50.9801
L251.504 50.8661
L251.601 50.8661
L251.665 50.5658
L251.74 50.5658
L251.825 50.2969
L251.952 50.2969
L252.058 49.9297
L252.142 49.9297
L252.247 49.6213
L252.341 49.6213
L252.434 49.3232
L252.527 49.2302
L252.61 49.0586
L252.702 49.013
L252.764 48.8264
L252.855 48.8264
L252.916 48.6024
L253.008 48.6024
L253.048 48.4235
L253.169 48.4235
L253.26 48.1411
L253.409 48.0316
L253.409 47.9371
L253.558 47.9371
L253.637 47.6294
L253.765 47.5542
L253.843 47.3684
L253.931 47.2812
L254.029 47.1332
L254.174 47.0366
L254.28 46.83
L254.423 46.7569
L254.518 46.5586
L254.623 46.4608
L254.717 46.3331
L254.933 46.2299
L255.026 45.9556
L255.129 45.8876
L255.221 45.7131
L255.322 45.6141
L255.35 45.5607
L255.46 45.5607
L255.551 45.3214
L255.651 45.2418
L255.742 45.1008
L255.85 45.0457
L255.868 44.9432
L256.002 44.9432
L256.083 44.6623
L256.172 44.5528
L256.278 44.4086
L256.401 44.3756
L256.454 44.2061
L256.611 44.1079
L256.664 44.0139
L256.802 43.9224
L256.88 43.84
L257.06 43.8072
L257.163 43.6163
L257.341 43.5061
L257.434 43.4264
L257.718 43.3337
L257.81 43.2268
L257.983 43.1195
L258.09 43.0414
L258.31 42.9534
L258.375 42.8431
L258.545 42.7988
L258.649 42.6345
L258.833 42.5266
L258.936 42.448
L259.187 42.3395
L259.266 42.2831
L259.475 42.1823
L259.522 42.1354
L259.706 42.0248
L259.798 41.9521
L259.996 41.8453
L260.094 41.7677
L260.357 41.6618
L260.446 41.5584
L260.624 41.5084
L260.734 41.3382
L260.91 41.2489
L260.982 41.1328
L261.127 41.0229
L261.235 40.9046
L261.393 40.8111
L261.5 40.6865
L261.642 40.6025
L261.748 40.4918
L261.874 40.3908
L261.979 40.254
L262.145 40.1889
L262.249 39.9837
L262.373 39.9066
L262.476 39.7584
L262.598 39.6717
L262.7 39.5481
L262.841 39.4916
L262.929 39.3421
L263.069 39.233
L263.162 39.1344
L263.328 39.0237
L263.407 38.9126
L263.564 38.8173
L263.642 38.6863
L263.772 38.6082
L263.856 38.477
L263.984 38.3798
L264.08 38.252
L264.182 38.1438
L264.278 38.0188
L264.372 37.9533
L264.461 37.7849
L264.561 37.6891
L264.63 37.5706
L264.748 37.4709
L264.804 37.3381
L264.897 37.3381
L265.002 37.0899
L265.094 37.0172
L265.185 36.8519
L265.295 36.7554
L265.392 36.5671
L265.519 36.5142
L265.591 36.2718
L265.698 36.171
L265.806 35.9553
L265.889 35.8628
L265.977 35.7178
L266.072 35.6229
L266.16 35.4773
L266.259 35.3697
L266.347 35.2338
L266.457 35.1466
L266.509 35.0296
L266.607 34.9424
L266.681 34.8164
L266.796 34.7076
L266.904 34.5683
L267.034 34.4621
L267.119 34.3236
L267.226 34.225
L267.304 34.1034
L267.41 33.9966
L267.504 33.8673
L267.609 33.7613
L267.703 33.6252
L267.84 33.5236
L267.938 33.3408
L268.068 33.2504
L268.166 33.0732
L268.273 32.9816
L268.375 32.8276
L268.481 32.7429
L268.551 32.6294
L268.662 32.5245
L268.772 32.3931
L268.898 32.3023
L269.008 32.1534
L269.112 32.0508
L269.22 31.911
L269.344 31.831
L269.451 31.6126
L269.574 31.5124
L269.665 31.275
L269.756 31.1728
L269.801 31.0517
L269.892 31.0517
L270.002 30.7482
L270.116 30.6524
L270.226 30.457
L270.339 30.3651
L270.447 30.1716
L270.545 30.086
L270.633 29.9275
L270.72 29.8626
L270.827 29.6721
L270.923 29.6518
L271 29.4201
L271.095 29.3181
L271.172 29.1776
L271.266 29.0826
L271.366 28.9212
L271.483 28.8342
L271.591 28.6347
L271.689 28.5424
L271.777 28.4139
L271.912 28.3331
L271.995 28.1712
L272.109 28.0694
L272.214 27.9087
L272.323 27.7983
L272.423 27.6682
L272.553 27.559
L272.652 27.388
L272.755 27.2848
L272.861 27.1259
L272.954 27.0264
L273.064 26.8683
L273.17 26.7614
L273.257 26.638
L273.379 26.5305
L273.483 26.3951
L273.625 26.3007
L273.724 26.1767
L273.881 26.0659
L273.992 25.9782
L274.156 25.8716
L274.261 25.7961
L274.511 25.6855
L274.593 25.6298
L274.889 25.5241
L274.966 25.4829
L275.365 25.3776
L275.437 25.3447
L275.741 25.2376
L275.847 25.1866
L276.178 25.0821
L276.278 25.0325
L276.576 24.9217
L276.679 24.8773
L277.017 24.7678
L277.106 24.7406
L277.508 24.6305
L277.617 24.5989
L278.018 24.4885
L278.122 24.4502
L278.493 24.3423
L278.587 24.2857
L278.779 24.1888
L278.883 24.1096
L279.085 23.9988
L279.181 23.9235
L279.375 23.825
L279.476 23.7407
L279.624 23.6555
L279.727 23.5487
L279.923 23.4402
L279.996 23.3858
L280.17 23.2803
L280.281 23.1841
L280.462 23.0802
L280.572 23.013
L280.803 22.9064
L280.895 22.8495
L281.069 22.7553
L281.179 22.667
L281.351 22.5676
L281.441 22.4968
L281.645 22.3902
L281.728 22.341
L282.042 22.23
L282.148 22.1968
L282.533 22.0896
L282.616 22.0363
L282.819 21.9501
L282.922 21.8617
L283.105 21.7523
L283.2 21.6912
L283.416 21.5844
L283.51 21.5212
L283.708 21.4105
L283.818 21.3362
L284.003 21.2313
L284.112 21.1572
L284.319 21.0489
L284.418 20.9723
L284.647 20.8712
L284.75 20.8246
L285.121 20.7166
L285.219 20.6844
L285.627 20.5742
L285.731 20.5448
L286.655 20.4351
L286.76 20.4144
L288.143 20.521
L288.243 20.5518
L288.702 20.6591
L288.785 20.69
L289.137 20.7965
L289.24 20.8223
L289.924 20.9296
L290.028 20.9561
L291.227 21.0608
L291.32 21.0871
L292.824 21.1909
L292.914 21.2193
L295.406 21.1361
L295.51 21.0802
L296.702 20.9826
L296.811 20.937
L297.207 20.8544
L297.313 20.7924
L297.798 20.6906
L297.903 20.6332
L298.509 20.526
L298.597 20.4976
L298.998 20.415
L299.101 20.3451
L299.496 20.255
L299.596 20.2075
L299.996 20.1146
L299.996 20.077
L300.424 19.9666
L300.49 19.8835
L300.792 19.8064
L300.901 19.7158
L301.186 19.6176
L301.295 19.5149
L301.599 19.4343
L301.687 19.3509
L301.999 19.2546
L302.085 19.1723
L302.383 19.0769
L302.481 18.976
L302.683 18.9025
L302.785 18.7654
L302.981 18.708
L303.083 18.5842
L303.283 18.5196
L303.384 18.3988
L303.585 18.3399
L303.685 18.2175
L303.88 18.1581
L303.981 18.0239
L304.177 17.958
L304.283 17.8135
L304.477 17.7454
L304.579 17.6015
L304.779 17.523
L304.884 17.3691
L305.079 17.289
L305.177 17.1128
L305.377 17.0233
L305.477 16.8681
L305.671 16.7886
L305.671 16.7169
L305.871 16.629
L305.973 16.4857
L306.202 16.4085
L306.272 16.2494
L306.477 16.1684
L306.57 16.0195
L306.782 15.9405
L306.873 15.7902
L307.069 15.7211
L307.174 15.5843
L307.366 15.5188
L307.469 15.3971
L307.767 15.3046
L307.866 15.2312
L308.266 15.1442
L308.374 15.0859
L308.766 14.9965
L308.861 14.9529
L309.359 14.861
L309.466 14.8024
L311.657 14.9071
L311.758 14.9404
L312.354 15.0481
L312.45 15.0608
L314.75 15.1619
L314.852 15.2068
L315.439 15.3103
L315.54 15.3713
L315.941 15.4695
L316.041 15.5364
L316.536 15.6463
L316.636 15.7271
L316.936 15.8077
L317.038 15.8976
L317.435 15.9873
L317.545 16.0501
L317.932 16.1485
L318.035 16.2234
L318.331 16.3093
L318.435 16.3912
L318.828 16.4916
L318.934 16.5467
L319.23 16.6216
L319.327 16.7023
L319.728 16.8031
L319.828 16.8627
L320.227 16.9562
L320.325 17.0328
L320.625 17.1209
L320.724 17.1991
L321.024 17.2881
L321.121 17.3963
L321.421 17.481
L321.52 17.5656
L321.819 17.6483
L321.918 17.735
L322.219 17.8378
L322.319 17.9492
L322.518 18.0051
L322.623 18.1375
L322.816 18.2072
L322.916 18.3389
L323.117 18.406
L323.218 18.5393
L323.417 18.5981
L323.516 18.726
L323.712 18.796
L323.814 18.9454
L324.013 19.019
L324.112 19.1688
L324.314 19.2486
L324.42 19.4203
L324.61 19.5037
L324.712 19.6878
L324.912 19.7783
L325.009 19.9663
L325.208 20.0598
L325.311 20.2455
L325.511 20.3334
L325.606 20.498
L325.806 20.5756
L325.907 20.7165
L326.107 20.7906
L326.204 20.9433
L326.404 21.0197
L326.504 21.1517
L326.704 21.2126
L326.803 21.3289
L327.003 21.3971
L327.102 21.5253
L327.305 21.5966
L327.403 21.747
L327.603 21.8171
L327.703 21.9617
L327.899 22.0346
L328.008 22.1989
L328.198 22.2719
L328.299 22.4297
L328.5 22.5145
L328.6 22.6822
L328.798 22.759
L328.897 22.9218
L329.099 23.0034
L329.195 23.1732
L329.395 23.2645
L329.496 23.462
L329.695 23.5632
L329.794 23.7499
L329.992 23.8366
L330.092 24.0081
L330.292 24.0975
L330.391 24.2703
L330.592 24.3597
L330.691 24.5374
L330.89 24.6266
L330.989 24.7891
L331.192 24.8681
L331.288 25.0156
L331.488 25.0819
L331.589 25.2025
L331.886 25.3078
L331.988 25.4233
L332.188 25.4833
L332.289 25.6037
L332.487 25.6615
L332.584 25.7747
L332.884 25.8839
L332.984 25.993
L333.184 26.0507
L333.285 26.1796
L333.483 26.2388
L333.581 26.3452
L333.88 26.4425
L333.979 26.5219
L334.28 26.6024
L334.383 26.6968
L334.68 26.797
L334.777 26.9055
L334.976 26.9626
L335.078 27.0949
L335.275 27.1562
L335.374 27.2705
L335.674 27.3665
L335.775 27.4849
L335.973 27.5499
L336.072 27.6777
L336.375 27.7781
L336.472 27.8636
L336.77 27.973
L336.871 28.0836
L337.169 28.188
L337.268 28.2908
L337.57 28.394
L337.668 28.4822
L337.966 28.5849
L338.068 28.679
L338.367 28.7651
L338.465 28.852
L338.764 28.9321
L338.864 29.0121
L339.163 29.1013
L339.263 29.1949
L339.562 29.287
L339.662 29.3798
L339.96 29.4854
L340.061 29.5892
L340.359 29.693
L340.459 29.7938
L340.757 29.9024
L340.857 30.0076
L341.157 30.1134
L341.257 30.2246
L341.555 30.3259
L341.656 30.4286
L341.957 30.5361
L342.053 30.6408
L342.252 30.6968
L342.352 30.8056
L342.652 30.9154
L342.751 31.0426
L342.951 31.1084
L343.053 31.2247
L343.249 31.2777
L343.35 31.398
L343.549 31.4664
L343.648 31.5808
L343.847 31.6419
L343.947 31.7621
L344.146 31.8261
L344.246 31.9547
L344.446 32.022
L344.546 32.1689
L344.745 32.2407
L344.844 32.3814
L345.045 32.4555
L345.143 32.596
L345.342 32.6647
L345.443 32.7949
L345.641 32.8599
L345.742 32.9899
L345.942 33.0601
L346.04 33.2047
L346.24 33.2764
L346.34 33.4064
L346.539 33.4689
L346.639 33.6
L346.839 33.6655
L346.937 33.8053
L347.137 33.8728
L347.237 33.9966
L347.436 34.0557
L347.535 34.1749
L347.735 34.2343
L347.834 34.3703
L348.034 34.4425
L348.133 34.5805
L348.333 34.653
L348.432 34.7947
L348.634 34.8713
L348.735 35.0307
L348.932 35.114
L349.031 35.2812
L349.229 35.3671
L349.33 35.542
L349.529 35.6308
L349.629 35.8031
L349.83 35.8882
L349.927 36.059
L350.127 36.1469
L350.227 36.297
L350.426 36.3752
L350.525 36.5392
L350.725 36.6223
L350.826 36.7847
L351.024 36.865
L351.123 37.0223
L351.323 37.1012
L351.422 37.2473
L351.623 37.3224
L351.721 37.4661
L351.922 37.5338
L352.021 37.6624
L352.22 37.7263
L352.32 37.8616
L352.519 37.9357
L352.622 38.0903
L352.818 38.1626
L352.919 38.32
L353.117 38.4005
L353.217 38.5603
L353.416 38.634
L353.517 38.7698
L353.715 38.8348
L353.816 38.9688
L354.014 39.0312
L354.114 39.1529
L354.314 39.2205
L354.413 39.3632
L354.612 39.4369
L354.712 39.5821
L354.913 39.6546
L355.011 39.7916
L355.212 39.8511
L355.31 39.9826
L355.511 40.0512
L355.609 40.1826
L355.809 40.2449
L355.909 40.3711
L356.108 40.4372
L356.207 40.5691
L356.406 40.6314
L356.506 40.7462
L356.805 40.8568
L356.905 40.9638
L357.204 41.0707
L357.304 41.1685
L357.604 41.2578
L357.702 41.339
L358.102 41.4358
L358.2 41.4779
L358.998 41.5785
L359.098 41.6037
L360.194 41.6988
L360.294 41.7323
L360.792 41.8301
L360.892 41.902
L361.191 41.9832
L361.291 42.0697
L361.589 42.1535
L361.689 42.2236
L362.088 42.3317
L362.189 42.3956
L362.487 42.4696
L362.587 42.5419
L363.185 42.6361
L363.284 42.6815
L363.784 42.7726
L363.882 42.8252
L364.48 42.927
L364.58 42.9681
L365.278 43.0767
L365.378 43.1233
L366.673 43.2161
L366.772 43.2565
L367.371 43.3672
L367.47 43.4133
L367.87 43.5049
L367.969 43.5777
L368.269 43.6542
L368.367 43.7208
L368.766 43.8259
L368.866 43.8809
L369.266 43.9734
L369.364 44.0425
L369.763 44.1524
L369.863 44.2213
L370.262 44.3198
L370.361 44.3792
L370.76 44.4726
L370.859 44.5409
L371.158 44.6178
L371.258 44.7036
L371.557 44.7983
L371.657 44.8988
L371.856 44.9545
L371.956 45.0665
L372.255 45.1728
L372.354 45.2796
L372.654 45.3857
L372.754 45.4937
L373.052 45.6034
L373.152 45.7268
L373.351 45.7896
L373.451 45.9141
L373.65 45.9726
L373.75 46.0892
L374.05 46.1971
L374.149 46.3024
L374.448 46.4127
L374.548 46.5214
L374.847 46.6221
L374.947 46.7115
L375.245 46.8039
L375.345 46.9063
L375.644 47.0153
L375.744 47.1216
L376.042 47.2261
L376.142 47.319
L376.441 47.425
L376.541 47.5306
L376.741 47.5857
L376.84 47.7021
L377.039 47.7626
L377.139 47.8833
L377.438 47.9889
L377.538 48.1105
L377.737 48.1746
L377.837 48.2891
L378.037 48.3481
L378.136 48.4696
L378.335 48.5315
L378.435 48.6528
L378.635 48.7153
L378.734 48.8344
L378.933 48.8895
L379.033 49.0106
L379.232 49.0696
L379.332 49.1971
L379.531 49.2632
L379.631 49.3913
L379.83 49.4558
L379.93 49.5822
L380.129 49.6427
L380.229 49.7479
L380.528 49.8436
L380.629 49.918
L381.027 50.0064
L381.126 50.0505
L381.525 50.1307
L381.624 50.1958
L382.024 50.3039
L382.123 50.3884
L382.422 50.4784
L382.521 50.5695
L382.82 50.6596
L382.921 50.7552
L383.22 50.8536
L383.319 50.9558
L383.618 51.0436
L383.718 51.1223
L384.117 51.2315
L384.216 51.2954
L384.716 51.4019
L384.814 51.4576
L385.213 51.5476
L385.313 51.6148
L385.711 51.7035
L385.811 51.7735
L386.209 51.8789
L386.31 51.9593
L386.608 52.0492
L386.708 52.1395
L387.007 52.2301
L387.106 52.3137
L387.406 52.3953
L387.505 52.4856
L387.804 52.5861
L387.904 52.7055
L388.103 52.7682
L388.203 52.8803
L388.502 52.9812
L388.602 53.0699
L389 53.1776
L389.1 53.2414
L389.499 53.3425
L389.598 53.415
L389.997 53.5257
L390.097 53.6023
L390.396 53.6802
L390.495 53.7655
L390.795 53.8395
L390.894 53.9225
L391.193 54.0175
L391.293 54.1142
L391.593 54.2105
L391.692 54.3109
L391.991 54.4057
L392.09 54.5083
L392.29 54.5654
L392.39 54.6909
L392.589 54.7511
L392.689 54.873
L392.888 54.9406
L392.987 55.0641
L393.187 55.122
L393.286 55.2348
L393.486 55.2959
L393.586 55.4239
L393.785 55.4849
L393.884 55.6049
L394.084 55.6689
L394.184 55.7978
L394.383 55.8633
L394.483 55.9977
L394.682 56.0697
L394.782 56.2255
L394.981 56.3077
L395.081 56.4734
L395.28 56.5611
L395.38 56.7317
L395.579 56.8233
L395.679 57.0019
L395.878 57.0885
L395.978 57.2557
L396.177 57.334
L396.277 57.4823
L396.476 57.5572
L396.576 57.7034
L396.775 57.7784
L396.875 57.9197
L397.074 57.9873
L397.174 58.1097
L397.473 58.2203
L397.573 58.321
L397.871 58.4185
L397.971 58.5151
L398.27 58.6107
L398.37 58.6996
L398.669 58.7959
L398.769 58.8895
L399.068 58.9811
L399.168 59.0628
L399.566 59.1713
L399.666 59.2358
L400.064 59.3299
L400.164 59.3919
L400.563 59.4955
L400.662 59.5778
L400.961 59.6603
L401.061 59.7482
L401.36 59.832
L401.46 59.9256
L401.759 60.0091
L401.858 60.0958
L402.158 60.1749
L402.257 60.2574
L402.556 60.3482
L402.656 60.4425
L402.955 60.5316
L403.055 60.6168
L403.354 60.7013
L403.453 60.7836
L403.753 60.8652
L403.852 60.9479
L404.151 61.0318
L404.251 61.1109
L404.55 61.1887
L404.65 61.2765
L404.948 61.3735
L405.048 61.4751
L405.347 61.5777
L405.447 61.6794
L405.746 61.7823
L405.846 61.878
L406.145 61.9754
L406.244 62.0796
L406.543 62.1822
L406.643 62.2824
L406.942 62.3851
L407.042 62.4896
L407.341 62.5964
L407.441 62.7104
L407.739 62.8132
L407.839 62.9178
L408.138 63.012
L408.238 63.1003
L408.637 63.209
L408.736 63.2805
L409.135 63.3803
L409.235 63.4512
L409.534 63.5261
L409.633 63.6
L410.032 63.7024
L410.132 63.7695
L410.53 63.8623
L410.63 63.915
L411.128 64.0219
L411.228 64.0768
L411.726 64.1805
L411.826 64.2239
L412.524 64.3273
L412.624 64.3704
L413.222 64.4614
L413.321 64.4972
L415.016 64.6046
L415.115 64.6137
L416.511 64.5102
L416.611 64.491
L417.707 64.3837
L417.807 64.36
L418.405 64.2543
L418.505 64.2062
L419.003 64.1088
L419.102 64.0646
L419.701 63.971
L419.8 63.9324
L420.996 63.8272
L421.096 63.797
L422.791 63.6884
L422.89 63.6716
L424.485 63.5622
L424.585 63.5485
L425.382 63.448
L425.482 63.4063
L426.08 63.3056
L426.18 63.2637
L426.778 63.1542
L426.877 63.1058
L427.376 63.0031
L427.475 62.9734
L428.073 62.8715
L428.173 62.8117
L428.572 62.7112
L428.671 62.6468
L429.17 62.5364
L429.269 62.4779
L429.668 62.3911
L429.768 62.3327
L430.167 62.2411
L430.266 62.1879
L430.765 62.0813
L430.864 62.0233
L431.363 61.9217
L431.462 61.8823
L432.06 61.7845
L432.16 61.7326
L432.858 61.6311
L432.958 61.609
L434.453 61.4987
L434.552 61.4701
L435.15 61.3706
L435.25 61.3256
L436.147 61.2152
L436.247 61.2028
L437.742 61.0935
L437.842 61.0769
L438.938 60.9742
L439.038 60.9377
L439.835 60.8293
L439.935 60.7842
L440.334 60.6983
L440.433 60.6435
L441.031 60.5389
L441.131 60.5
L441.629 60.4091
L441.729 60.3693
L442.227 60.277
L442.327 60.2377
L443.224 60.1341
L443.324 60.1187
L452.195 60.0175
L452.295 59.9863
L453.192 59.8827
L453.291 59.8704
L454.388 59.7675
L454.488 59.7489
L459.272 59.6446
L459.372 59.596
L459.97 59.4868
L460.069 59.452
L460.767 59.3541
L460.867 59.326
L461.565 59.2329
L461.664 59.1936
L462.362 59.0906
L462.462 59.0594
L463.159 58.9484
L463.259 58.9073
L463.757 58.8086
L463.857 58.7677
L464.555 58.6686
L464.655 58.6362
L465.253 58.5328
L465.352 58.4954
L465.95 58.398
L466.05 58.3564
L466.748 58.2545
L466.847 58.2221
L467.445 58.1301
L467.545 58.0851
L467.944 57.9972
L468.044 57.9364
L468.542 57.831
L468.642 57.7813
L469.24 57.6727
L469.339 57.6296
L469.838 57.5272
L469.937 57.4642
L470.436 57.354
L470.535 57.2942
L470.934 57.2018
L471.034 57.1337
L471.433 57.0387
L471.532 56.9804
L471.931 56.901
L472.031 56.8326
L472.429 56.7253
L472.529 56.6516
L472.828 56.5776
L472.928 56.5014
L473.227 56.4232
L473.326 56.3524
L473.725 56.2427
L473.825 56.1716
L474.124 56.0889
L474.223 55.998
L474.522 55.9056
L474.622 55.812
L474.921 55.7221
L475.021 55.6298
L475.32 55.5395
L475.42 55.4486
L475.719 55.3631
L475.818 55.2783
L476.117 55.2022
L476.217 55.1288
L476.616 55.0205
L476.715 54.939
L477.014 54.8569
L477.114 54.7848
L477.513 54.6815
L477.612 54.6036
L477.911 54.5169
L478.011 54.4413
L478.41 54.3547
L478.51 54.2948
L478.908 54.2063
L479.008 54.1535
L479.407 54.0643
L479.506 53.9971
L479.905 53.895
L480.005 53.8266
L480.304 53.7497
L480.403 53.669
L480.702 53.5872
L480.802 53.5072
L481.201 53.4037
L481.3 53.3366
L481.699 53.2357
L481.799 53.1651
L482.198 53.0613
L482.297 52.9922
L482.596 52.9191
L482.696 52.8415
L483.095 52.7317
L483.194 52.6623
L483.593 52.5625
L483.693 52.498
L484.191 52.3886
L484.291 52.3363
L484.789 52.2263
L484.889 52.1724
L485.288 52.0808
L485.387 52.0273
L485.786 51.9432
L485.886 51.8881
L486.384 51.7801
L486.484 51.7291
L486.882 51.6434
L486.982 51.5835
L487.381 51.4802
L487.48 51.4056
L487.879 51.297
L487.979 51.2165
L488.278 51.1313
L488.377 51.0433
L488.677 50.9491
L488.776 50.8545
L489.075 50.7686
L489.175 50.6803
L489.474 50.587
L489.574 50.4874
L489.873 50.3877
L489.972 50.2934
L490.271 50.2036
L490.371 50.1049
L490.67 50.0041
L490.77 49.9068
L491.069 49.816
L491.168 49.7309
L491.567 49.621
L491.667 49.5508
L491.966 49.4712
L492.065 49.3918
L492.365 49.3134
L492.464 49.2313
L492.763 49.1495
L492.863 49.0664
L493.162 48.9788
L493.262 48.8893
L493.561 48.8102
L493.66 48.736
L493.959 48.656
L494.059 48.5691
L494.358 48.4831
L494.458 48.3959
L494.757 48.3106
L494.856 48.2281
L495.155 48.153
L495.255 48.0744
L495.554 47.9898
L495.654 47.9051
L495.953 47.8208
L496.053 47.733
L496.352 47.6388
L496.451 47.5487
L496.75 47.4597
L496.85 47.3665
L497.149 47.2776
L497.249 47.188
L497.548 47.0993
L497.647 47.0064
L497.946 46.914
L498.046 46.8221
L498.345 46.7287
L498.445 46.631
L498.744 46.5297
L498.843 46.4277
L499.143 46.3343
L499.242 46.2336
L499.541 46.1375
L499.641 46.0386
L499.94 45.9404
L500.04 45.8424
L500.339 45.7487
L500.438 45.6614
L500.737 45.5765
L500.837 45.4891
L501.136 45.4141
L501.236 45.3371
L501.535 45.2593
L501.634 45.183
L501.933 45.1044
L502.033 45.0272
L502.332 44.9531
L502.432 44.8738
L502.731 44.7969
L502.831 44.7157
L503.13 44.6299
L503.229 44.5428
L503.528 44.4505
L503.628 44.3657
L503.927 44.282
L504.027 44.2015
L504.326 44.1212
L504.425 44.046
L504.824 43.9456
L504.924 43.8835
L505.322 43.795
L505.422 43.7407
L505.92 43.6299
L506.02 43.5677
L506.519 43.4578
L506.618 43.4033
L507.017 43.3112
L507.117 43.2478
L507.515 43.154
L507.615 43.0936
L508.113 42.9875
L508.213 42.9365
L508.711 42.8385
L508.811 42.7917
L509.309 42.695
L509.409 42.6416
L509.908 42.5495
L510.007 42.5054
L510.605 42.4002
L510.705 42.3653
L511.303 42.2693
L511.403 42.2304
L512.1 42.1337
L512.2 42.1008
L513.197 41.9923
L513.297 41.975
L515.788 41.8645
L515.888 41.8601
L518.779 41.7525
L518.878 41.7362
L519.676 41.6383
L519.775 41.5962
L520.374 41.5007
L520.473 41.4654
L521.171 41.3699
L521.271 41.3361
L522.068 41.2303
L522.168 41.2069
L523.264 41.1003
L523.364 41.0819
L524.161 40.9839
L524.261 40.9462
L525.058 40.8399
L525.158 40.8135
L525.656 40.7242
L525.756 40.672
L526.254 40.5724
L526.354 40.5274
L526.853 40.4387
L526.952 40.393
L527.55 40.2902
L527.65 40.2488
L528.248 40.1513
L528.348 40.1161
L529.045 40.0159
L529.145 39.9769
L529.743 39.8816
L529.843 39.8443
L530.441 39.7451
L530.541 39.7048
L531.139 39.6029
L531.238 39.5664
L531.836 39.4628
L531.936 39.4313
L532.534 39.3356
L532.634 39.2945
L533.331 39.1929
L533.431 39.1626
L534.129 39.0586
L534.229 39.0248
L534.926 38.9267
L535.026 38.8932
L535.724 38.7894
L535.823 38.7528
L536.521 38.6468
L536.621 38.6099
L537.119 38.5205
L537.219 38.4709
L537.717 38.3717
L537.817 38.325
L538.315 38.233
L538.415 38.1877
L538.913 38.0976
L539.013 38.0442
L539.511 37.9409
L539.611 37.8887
L540.109 37.7794
L540.209 37.7261
L540.708 37.6281
L540.807 37.5762
L541.306 37.4769
L541.405 37.4365
L541.904 37.3512
L542.003 37.2984
L542.502 37.1991
L542.601 37.1508
L543.1 37.0639
L543.199 37.0132
L543.598 36.9277
L543.698 36.8654
L544.096 36.7762
L544.196 36.7123
L544.595 36.6224
L544.695 36.5594
L545.093 36.4681
L545.193 36.4159
L545.791 36.3074
L545.891 36.2661
L546.887 36.1555
L546.987 36.1353
L547.785 36.0659
L547.785 36.0549" style="fill:none;stroke:#0000ff;stroke-width:5.0;"/>
   </g>
   <g id="matplotlib.axis_1">
    <g id="xtick_1">
     <g id="line2d_2">
      <path d="
M169.65 397.926
L169.65 7.2" style="fill:none;stroke:#000000;stroke-dasharray:1.000000,3.000000;stroke-dashoffset:0.0;stroke-linecap:butt;stroke-width:0.5;"/>
     </g>
     <g id="line2d_3">
      <defs>
       <path d="
M0 0
L0 -4" id="m3fbe6c24f1"/>
      </defs>
      <g>
       <use style="stroke:#000000;stroke-linecap:butt;stroke-width:0.5;" x="169.650035888" xlink:href="#m3fbe6c24f1" y="390.412189349"/>
      </g>
     </g>
     <g id="text_1">
      <!-- 5 -->
      <defs>
       <path d="
M10.7969 72.9062
L49.5156 72.9062
L49.5156 64.5938
L19.8281 64.5938
L19.8281 46.7344
Q21.9688 47.4688 24.1094 47.8281
Q26.2656 48.1875 28.4219 48.1875
Q40.625 48.1875 47.75 41.5
Q54.8906 34.8125 54.8906 23.3906
Q54.8906 11.625 47.5625 5.09375
Q40.2344 -1.42188 26.9062 -1.42188
Q22.3125 -1.42188 17.5469 -0.640625
Q12.7969 0.140625 7.71875 1.70312
L7.71875 11.625
Q12.1094 9.23438 16.7969 8.0625
Q21.4844 6.89062 26.7031 6.89062
Q35.1562 6.89062 40.0781 11.3281
Q45.0156 15.7656 45.0156 23.3906
Q45.0156 31 40.0781 35.4375
Q35.1562 39.8906 26.7031 39.8906
Q22.75 39.8906 18.8125 39.0156
Q14.8906 38.1406 10.7969 36.2812
z
" id="BitstreamVeraSans-Roman-35"/>
      </defs>
      <g transform="translate(163.989410888 411.909689349)scale(0.24 -0.24)">
       <use xlink:href="#BitstreamVeraSans-Roman-35"/>
      </g>
     </g>
    </g>
    <g id="xtick_2">
     <g id="line2d_4">
      <path d="
M289.897 397.926
L289.897 7.2" style="fill:none;stroke:#000000;stroke-dasharray:1.000000,3.000000;stroke-dashoffset:0.0;stroke-linecap:butt;stroke-width:0.5;"/>
     </g>
     <g id="line2d_5">
      <defs>
       <path d="
M0 0
L0 -4" id="m3fbe6c24f1"/>
      </defs>
      <g>
       <use style="stroke:#000000;stroke-linecap:butt;stroke-width:0.5;" x="289.896837277" xlink:href="#m3fbe6c24f1" y="390.412189349"/>
      </g>
     </g>
     <g id="text_2">
      <!-- 10 -->
      <defs>
       <path d="
M31.7812 66.4062
Q24.1719 66.4062 20.3281 58.9062
Q16.5 51.4219 16.5 36.375
Q16.5 21.3906 20.3281 13.8906
Q24.1719 6.39062 31.7812 6.39062
Q39.4531 6.39062 43.2812 13.8906
Q47.125 21.3906 47.125 36.375
Q47.125 51.4219 43.2812 58.9062
Q39.4531 66.4062 31.7812 66.4062
M31.7812 74.2188
Q44.0469 74.2188 50.5156 64.5156
Q56.9844 54.8281 56.9844 36.375
Q56.9844 17.9688 50.5156 8.26562
Q44.0469 -1.42188 31.7812 -1.42188
Q19.5312 -1.42188 13.0625 8.26562
Q6.59375 17.9688 6.59375 36.375
Q6.59375 54.8281 13.0625 64.5156
Q19.5312 74.2188 31.7812 74.2188" id="BitstreamVeraSans-Roman-30"/>
       <path d="
M12.4062 8.29688
L28.5156 8.29688
L28.5156 63.9219
L10.9844 60.4062
L10.9844 69.3906
L28.4219 72.9062
L38.2812 72.9062
L38.2812 8.29688
L54.3906 8.29688
L54.3906 0
L12.4062 0
z
" id="BitstreamVeraSans-Roman-31"/>
      </defs>
      <g transform="translate(276.741837277 412.224689349)scale(0.24 -0.24)">
       <use xlink:href="#BitstreamVeraSans-Roman-31"/>
       <use x="63.623046875" xlink:href="#BitstreamVeraSans-Roman-30"/>
      </g>
     </g>
    </g>
    <g id="xtick_3">
     <g id="line2d_6">
      <path d="
M410.144 397.926
L410.144 7.2" style="fill:none;stroke:#000000;stroke-dasharray:1.000000,3.000000;stroke-dashoffset:0.0;stroke-linecap:butt;stroke-width:0.5;"/>
     </g>
     <g id="line2d_7">
      <defs>
       <path d="
M0 0
L0 -4" id="m3fbe6c24f1"/>
      </defs>
      <g>
       <use style="stroke:#000000;stroke-linecap:butt;stroke-width:0.5;" x="410.143638667" xlink:href="#m3fbe6c24f1" y="390.412189349"/>
      </g>
     </g>
     <g id="text_3">
      <!-- 15 -->
      <g transform="translate(397.239888667 411.909689349)scale(0.24 -0.24)">
       <use xlink:href="#BitstreamVeraSans-Roman-31"/>
       <use x="63.623046875" xlink:href="#BitstreamVeraSans-Roman-35"/>
      </g>
     </g>
    </g>
    <g id="xtick_4">
     <g id="line2d_8">
      <path d="
M530.39 397.926
L530.39 7.2" style="fill:none;stroke:#000000;stroke-dasharray:1.000000,3.000000;stroke-dashoffset:0.0;stroke-linecap:butt;stroke-width:0.5;"/>
     </g>
     <g id="line2d_9">
      <defs>
       <path d="
M0 0
L0 -4" id="m3fbe6c24f1"/>
      </defs>
      <g>
       <use style="stroke:#000000;stroke-linecap:butt;stroke-width:0.5;" x="530.390440056" xlink:href="#m3fbe6c24f1" y="390.412189349"/>
      </g>
     </g>
     <g id="text_4">
      <!-- 20 -->
      <defs>
       <path d="
M19.1875 8.29688
L53.6094 8.29688
L53.6094 0
L7.32812 0
L7.32812 8.29688
Q12.9375 14.1094 22.625 23.8906
Q32.3281 33.6875 34.8125 36.5312
Q39.5469 41.8438 41.4219 45.5312
Q43.3125 49.2188 43.3125 52.7812
Q43.3125 58.5938 39.2344 62.25
Q35.1562 65.9219 28.6094 65.9219
Q23.9688 65.9219 18.8125 64.3125
Q13.6719 62.7031 7.8125 59.4219
L7.8125 69.3906
Q13.7656 71.7812 18.9375 73
Q24.125 74.2188 28.4219 74.2188
Q39.75 74.2188 46.4844 68.5469
Q53.2188 62.8906 53.2188 53.4219
Q53.2188 48.9219 51.5312 44.8906
Q49.8594 40.875 45.4062 35.4062
Q44.1875 33.9844 37.6406 27.2188
Q31.1094 20.4531 19.1875 8.29688" id="BitstreamVeraSans-Roman-32"/>
      </defs>
      <g transform="translate(516.796690056 412.224689349)scale(0.24 -0.24)">
       <use xlink:href="#BitstreamVeraSans-Roman-32"/>
       <use x="63.623046875" xlink:href="#BitstreamVeraSans-Roman-30"/>
      </g>
     </g>
    </g>
    <g id="xtick_5">
     <g id="line2d_10">
      <defs>
       <path d="
M0 0
L0 -2" id="mf0ff38ea95"/>
      </defs>
      <g>
       <use style="stroke:#000000;stroke-linecap:butt;stroke-width:0.5;" x="73.4525947762" xlink:href="#mf0ff38ea95" y="390.412189349"/>
      </g>
     </g>
    </g>
    <g id="xtick_6">
     <g id="line2d_11">
      <defs>
       <path d="
M0 0
L0 -2" id="mf0ff38ea95"/>
      </defs>
      <g>
       <use style="stroke:#000000;stroke-linecap:butt;stroke-width:0.5;" x="97.5019550541" xlink:href="#mf0ff38ea95" y="390.412189349"/>
      </g>
     </g>
    </g>
    <g id="xtick_7">
     <g id="line2d_12">
      <defs>
       <path d="
M0 0
L0 -2" id="mf0ff38ea95"/>
      </defs>
      <g>
       <use style="stroke:#000000;stroke-linecap:butt;stroke-width:0.5;" x="121.551315332" xlink:href="#mf0ff38ea95" y="390.412189349"/>
      </g>
     </g>
    </g>
    <g id="xtick_8">
     <g id="line2d_13">
      <defs>
       <path d="
M0 0
L0 -2" id="mf0ff38ea95"/>
      </defs>
      <g>
       <use style="stroke:#000000;stroke-linecap:butt;stroke-width:0.5;" x="145.60067561" xlink:href="#mf0ff38ea95" y="390.412189349"/>
      </g>
     </g>
    </g>
    <g id="xtick_9">
     <g id="line2d_14">
      <defs>
       <path d="
M0 0
L0 -2" id="mf0ff38ea95"/>
      </defs>
      <g>
       <use style="stroke:#000000;stroke-linecap:butt;stroke-width:0.5;" x="193.699396166" xlink:href="#mf0ff38ea95" y="390.412189349"/>
      </g>
     </g>
    </g>
    <g id="xtick_10">
     <g id="line2d_15">
      <defs>
       <path d="
M0 0
L0 -2" id="mf0ff38ea95"/>
      </defs>
      <g>
       <use style="stroke:#000000;stroke-linecap:butt;stroke-width:0.5;" x="217.748756444" xlink:href="#mf0ff38ea95" y="390.412189349"/>
      </g>
     </g>
    </g>
    <g id="xtick_11">
     <g id="line2d_16">
      <defs>
       <path d="
M0 0
L0 -2" id="mf0ff38ea95"/>
      </defs>
      <g>
       <use style="stroke:#000000;stroke-linecap:butt;stroke-width:0.5;" x="241.798116722" xlink:href="#mf0ff38ea95" y="390.412189349"/>
      </g>
     </g>
    </g>
    <g id="xtick_12">
     <g id="line2d_17">
      <defs>
       <path d="
M0 0
L0 -2" id="mf0ff38ea95"/>
      </defs>
      <g>
       <use style="stroke:#000000;stroke-linecap:butt;stroke-width:0.5;" x="265.847476999" xlink:href="#mf0ff38ea95" y="390.412189349"/>
      </g>
     </g>
    </g>
    <g id="xtick_13">
     <g id="line2d_18">
      <defs>
       <path d="
M0 0
L0 -2" id="mf0ff38ea95"/>
      </defs>
      <g>
       <use style="stroke:#000000;stroke-linecap:butt;stroke-width:0.5;" x="313.946197555" xlink:href="#mf0ff38ea95" y="390.412189349"/>
      </g>
     </g>
    </g>
    <g id="xtick_14">
     <g id="line2d_19">
      <defs>
       <path d="
M0 0
L0 -2" id="mf0ff38ea95"/>
      </defs>
      <g>
       <use style="stroke:#000000;stroke-linecap:butt;stroke-width:0.5;" x="337.995557833" xlink:href="#mf0ff38ea95" y="390.412189349"/>
      </g>
     </g>
    </g>
    <g id="xtick_15">
     <g id="line2d_20">
      <defs>
       <path d="
M0 0
L0 -2" id="mf0ff38ea95"/>
      </defs>
      <g>
       <use style="stroke:#000000;stroke-linecap:butt;stroke-width:0.5;" x="362.044918111" xlink:href="#mf0ff38ea95" y="390.412189349"/>
      </g>
     </g>
    </g>
    <g id="xtick_16">
     <g id="line2d_21">
      <defs>
       <path d="
M0 0
L0 -2" id="mf0ff38ea95"/>
      </defs>
      <g>
       <use style="stroke:#000000;stroke-linecap:butt;stroke-width:0.5;" x="386.094278389" xlink:href="#mf0ff38ea95" y="390.412189349"/>
      </g>
     </g>
    </g>
    <g id="xtick_17">
     <g id="line2d_22">
      <defs>
       <path d="
M0 0
L0 -2" id="mf0ff38ea95"/>
      </defs>
      <g>
       <use style="stroke:#000000;stroke-linecap:butt;stroke-width:0.5;" x="434.192998945" xlink:href="#mf0ff38ea95" y="390.412189349"/>
      </g>
     </g>
    </g>
    <g id="xtick_18">
     <g id="line2d_23">
      <defs>
       <path d="
M0 0
L0 -2" id="mf0ff38ea95"/>
      </defs>
      <g>
       <use style="stroke:#000000;stroke-linecap:butt;stroke-width:0.5;" x="458.242359223" xlink:href="#mf0ff38ea95" y="390.412189349"/>
      </g>
     </g>
    </g>
    <g id="xtick_19">
     <g id="line2d_24">
      <defs>
       <path d="
M0 0
L0 -2" id="mf0ff38ea95"/>
      </defs>
      <g>
       <use style="stroke:#000000;stroke-linecap:butt;stroke-width:0.5;" x="482.291719501" xlink:href="#mf0ff38ea95" y="390.412189349"/>
      </g>
     </g>
    </g>
    <g id="xtick_20">
     <g id="line2d_25">
      <defs>
       <path d="
M0 0
L0 -2" id="mf0ff38ea95"/>
      </defs>
      <g>
       <use style="stroke:#000000;stroke-linecap:butt;stroke-width:0.5;" x="506.341079779" xlink:href="#mf0ff38ea95" y="390.412189349"/>
      </g>
     </g>
    </g>
   </g>
   <g id="matplotlib.axis_2">
    <g id="ytick_1">
     <g id="line2d_26">
      <path d="
M56.4387 390.412
L557.419 390.412" style="fill:none;stroke:#000000;stroke-dasharray:1.000000,3.000000;stroke-dashoffset:0.0;stroke-linecap:butt;stroke-width:0.5;"/>
     </g>
     <g id="line2d_27">
      <defs>
       <path d="
M0 0
L4 0" id="mc91e532072"/>
      </defs>
      <g>
       <use style="stroke:#000000;stroke-linecap:butt;stroke-width:0.5;" x="46.43875" xlink:href="#mc91e532072" y="390.412189349"/>
      </g>
     </g>
     <g id="text_5">
      <!-- 0 -->
      <g transform="translate(30.345 399.147814349)scale(0.24 -0.24)">
       <use xlink:href="#BitstreamVeraSans-Roman-30"/>
      </g>
     </g>
    </g>
    <g id="ytick_2">
     <g id="line2d_28">
      <path d="
M56.4387 319.987
L557.419 319.987" style="fill:none;stroke:#000000;stroke-dasharray:1.000000,3.000000;stroke-dashoffset:0.0;stroke-linecap:butt;stroke-width:0.5;"/>
     </g>
     <g id="line2d_29">
      <defs>
       <path d="
M0 0
L4 0" id="mc91e532072"/>
      </defs>
      <g>
       <use style="stroke:#000000;stroke-linecap:butt;stroke-width:0.5;" x="46.43875" xlink:href="#mc91e532072" y="319.986775859"/>
      </g>
     </g>
     <g id="text_6">
      <!-- 0.1 -->
      <defs>
       <path d="
M10.6875 12.4062
L21 12.4062
L21 0
L10.6875 0
z
" id="BitstreamVeraSans-Roman-2e"/>
      </defs>
      <g transform="translate(8.07 328.722400859)scale(0.24 -0.24)">
       <use xlink:href="#BitstreamVeraSans-Roman-30"/>
       <use x="63.623046875" xlink:href="#BitstreamVeraSans-Roman-2e"/>
       <use x="95.41015625" xlink:href="#BitstreamVeraSans-Roman-31"/>
      </g>
     </g>
    </g>
    <g id="ytick_3">
     <g id="line2d_30">
      <path d="
M56.4387 249.561
L557.419 249.561" style="fill:none;stroke:#000000;stroke-dasharray:1.000000,3.000000;stroke-dashoffset:0.0;stroke-linecap:butt;stroke-width:0.5;"/>
     </g>
     <g id="line2d_31">
      <defs>
       <path d="
M0 0
L4 0" id="mc91e532072"/>
      </defs>
      <g>
       <use style="stroke:#000000;stroke-linecap:butt;stroke-width:0.5;" x="46.43875" xlink:href="#mc91e532072" y="249.561362369"/>
      </g>
     </g>
     <g id="text_7">
      <!-- 0.2 -->
      <g transform="translate(8.2575 258.296987369)scale(0.24 -0.24)">
       <use xlink:href="#BitstreamVeraSans-Roman-30"/>
       <use x="63.623046875" xlink:href="#BitstreamVeraSans-Roman-2e"/>
       <use x="95.41015625" xlink:href="#BitstreamVeraSans-Roman-32"/>
      </g>
     </g>
    </g>
    <g id="ytick_4">
     <g id="line2d_32">
      <path d="
M56.4387 179.136
L557.419 179.136" style="fill:none;stroke:#000000;stroke-dasharray:1.000000,3.000000;stroke-dashoffset:0.0;stroke-linecap:butt;stroke-width:0.5;"/>
     </g>
     <g id="line2d_33">
      <defs>
       <path d="
M0 0
L4 0" id="mc91e532072"/>
      </defs>
      <g>
       <use style="stroke:#000000;stroke-linecap:butt;stroke-width:0.5;" x="46.43875" xlink:href="#mc91e532072" y="179.13594888"/>
      </g>
     </g>
     <g id="text_8">
      <!-- 0.3 -->
      <defs>
       <path d="
M40.5781 39.3125
Q47.6562 37.7969 51.625 33
Q55.6094 28.2188 55.6094 21.1875
Q55.6094 10.4062 48.1875 4.48438
Q40.7656 -1.42188 27.0938 -1.42188
Q22.5156 -1.42188 17.6562 -0.515625
Q12.7969 0.390625 7.625 2.20312
L7.625 11.7188
Q11.7188 9.32812 16.5938 8.10938
Q21.4844 6.89062 26.8125 6.89062
Q36.0781 6.89062 40.9375 10.5469
Q45.7969 14.2031 45.7969 21.1875
Q45.7969 27.6406 41.2812 31.2656
Q36.7656 34.9062 28.7188 34.9062
L20.2188 34.9062
L20.2188 43.0156
L29.1094 43.0156
Q36.375 43.0156 40.2344 45.9219
Q44.0938 48.8281 44.0938 54.2969
Q44.0938 59.9062 40.1094 62.9062
Q36.1406 65.9219 28.7188 65.9219
Q24.6562 65.9219 20.0156 65.0312
Q15.375 64.1562 9.8125 62.3125
L9.8125 71.0938
Q15.4375 72.6562 20.3438 73.4375
Q25.25 74.2188 29.5938 74.2188
Q40.8281 74.2188 47.3594 69.1094
Q53.9062 64.0156 53.9062 55.3281
Q53.9062 49.2656 50.4375 45.0938
Q46.9688 40.9219 40.5781 39.3125" id="BitstreamVeraSans-Roman-33"/>
      </defs>
      <g transform="translate(7.7775 187.87157388)scale(0.24 -0.24)">
       <use xlink:href="#BitstreamVeraSans-Roman-30"/>
       <use x="63.623046875" xlink:href="#BitstreamVeraSans-Roman-2e"/>
       <use x="95.41015625" xlink:href="#BitstreamVeraSans-Roman-33"/>
      </g>
     </g>
    </g>
    <g id="ytick_5">
     <g id="line2d_34">
      <path d="
M56.4387 108.711
L557.419 108.711" style="fill:none;stroke:#000000;stroke-dasharray:1.000000,3.000000;stroke-dashoffset:0.0;stroke-linecap:butt;stroke-width:0.5;"/>
     </g>
     <g id="line2d_35">
      <defs>
       <path d="
M0 0
L4 0" id="mc91e532072"/>
      </defs>
      <g>
       <use style="stroke:#000000;stroke-linecap:butt;stroke-width:0.5;" x="46.43875" xlink:href="#mc91e532072" y="108.71053539"/>
      </g>
     </g>
     <g id="text_9">
      <!-- 0.4 -->
      <defs>
       <path d="
M37.7969 64.3125
L12.8906 25.3906
L37.7969 25.3906
z

M35.2031 72.9062
L47.6094 72.9062
L47.6094 25.3906
L58.0156 25.3906
L58.0156 17.1875
L47.6094 17.1875
L47.6094 0
L37.7969 0
L37.7969 17.1875
L4.89062 17.1875
L4.89062 26.7031
z
" id="BitstreamVeraSans-Roman-34"/>
      </defs>
      <g transform="translate(7.2 117.44616039)scale(0.24 -0.24)">
       <use xlink:href="#BitstreamVeraSans-Roman-30"/>
       <use x="63.623046875" xlink:href="#BitstreamVeraSans-Roman-2e"/>
       <use x="95.41015625" xlink:href="#BitstreamVeraSans-Roman-34"/>
      </g>
     </g>
    </g>
    <g id="ytick_6">
     <g id="line2d_36">
      <path d="
M56.4387 38.2851
L557.419 38.2851" style="fill:none;stroke:#000000;stroke-dasharray:1.000000,3.000000;stroke-dashoffset:0.0;stroke-linecap:butt;stroke-width:0.5;"/>
     </g>
     <g id="line2d_37">
      <defs>
       <path d="
M0 0
L4 0" id="mc91e532072"/>
      </defs>
      <g>
       <use style="stroke:#000000;stroke-linecap:butt;stroke-width:0.5;" x="46.43875" xlink:href="#mc91e532072" y="38.2851218998"/>
      </g>
     </g>
     <g id="text_10">
      <!-- 0.5 -->
      <g transform="translate(7.95 47.0207468998)scale(0.24 -0.24)">
       <use xlink:href="#BitstreamVeraSans-Roman-30"/>
       <use x="63.623046875" xlink:href="#BitstreamVeraSans-Roman-2e"/>
       <use x="95.41015625" xlink:href="#BitstreamVeraSans-Roman-35"/>
      </g>
     </g>
    </g>
    <g id="ytick_7">
     <g id="line2d_38">
      <defs>
       <path d="
M0 0
L2 0" id="m0789224b6b"/>
      </defs>
      <g>
       <use style="stroke:#000000;stroke-linecap:butt;stroke-width:0.5;" x="46.43875" xlink:href="#m0789224b6b" y="376.327106651"/>
      </g>
     </g>
    </g>
    <g id="ytick_8">
     <g id="line2d_39">
      <defs>
       <path d="
M0 0
L2 0" id="m0789224b6b"/>
      </defs>
      <g>
       <use style="stroke:#000000;stroke-linecap:butt;stroke-width:0.5;" x="46.43875" xlink:href="#m0789224b6b" y="362.242023953"/>
      </g>
     </g>
    </g>
    <g id="ytick_9">
     <g id="line2d_40">
      <defs>
       <path d="
M0 0
L2 0" id="m0789224b6b"/>
      </defs>
      <g>
       <use style="stroke:#000000;stroke-linecap:butt;stroke-width:0.5;" x="46.43875" xlink:href="#m0789224b6b" y="348.156941255"/>
      </g>
     </g>
    </g>
    <g id="ytick_10">
     <g id="line2d_41">
      <defs>
       <path d="
M0 0
L2 0" id="m0789224b6b"/>
      </defs>
      <g>
       <use style="stroke:#000000;stroke-linecap:butt;stroke-width:0.5;" x="46.43875" xlink:href="#m0789224b6b" y="334.071858557"/>
      </g>
     </g>
    </g>
    <g id="ytick_11">
     <g id="line2d_42">
      <defs>
       <path d="
M0 0
L2 0" id="m0789224b6b"/>
      </defs>
      <g>
       <use style="stroke:#000000;stroke-linecap:butt;stroke-width:0.5;" x="46.43875" xlink:href="#m0789224b6b" y="305.901693161"/>
      </g>
     </g>
    </g>
    <g id="ytick_12">
     <g id="line2d_43">
      <defs>
       <path d="
M0 0
L2 0" id="m0789224b6b"/>
      </defs>
      <g>
       <use style="stroke:#000000;stroke-linecap:butt;stroke-width:0.5;" x="46.43875" xlink:href="#m0789224b6b" y="291.816610463"/>
      </g>
     </g>
    </g>
    <g id="ytick_13">
     <g id="line2d_44">
      <defs>
       <path d="
M0 0
L2 0" id="m0789224b6b"/>
      </defs>
      <g>
       <use style="stroke:#000000;stroke-linecap:butt;stroke-width:0.5;" x="46.43875" xlink:href="#m0789224b6b" y="277.731527765"/>
      </g>
     </g>
    </g>
    <g id="ytick_14">
     <g id="line2d_45">
      <defs>
       <path d="
M0 0
L2 0" id="m0789224b6b"/>
      </defs>
      <g>
       <use style="stroke:#000000;stroke-linecap:butt;stroke-width:0.5;" x="46.43875" xlink:href="#m0789224b6b" y="263.646445067"/>
      </g>
     </g>
    </g>
    <g id="ytick_15">
     <g id="line2d_46">
      <defs>
       <path d="
M0 0
L2 0" id="m0789224b6b"/>
      </defs>
      <g>
       <use style="stroke:#000000;stroke-linecap:butt;stroke-width:0.5;" x="46.43875" xlink:href="#m0789224b6b" y="235.476279671"/>
      </g>
     </g>
    </g>
    <g id="ytick_16">
     <g id="line2d_47">
      <defs>
       <path d="
M0 0
L2 0" id="m0789224b6b"/>
      </defs>
      <g>
       <use style="stroke:#000000;stroke-linecap:butt;stroke-width:0.5;" x="46.43875" xlink:href="#m0789224b6b" y="221.391196973"/>
      </g>
     </g>
    </g>
    <g id="ytick_17">
     <g id="line2d_48">
      <defs>
       <path d="
M0 0
L2 0" id="m0789224b6b"/>
      </defs>
      <g>
       <use style="stroke:#000000;stroke-linecap:butt;stroke-width:0.5;" x="46.43875" xlink:href="#m0789224b6b" y="207.306114275"/>
      </g>
     </g>
    </g>
    <g id="ytick_18">
     <g id="line2d_49">
      <defs>
       <path d="
M0 0
L2 0" id="m0789224b6b"/>
      </defs>
      <g>
       <use style="stroke:#000000;stroke-linecap:butt;stroke-width:0.5;" x="46.43875" xlink:href="#m0789224b6b" y="193.221031577"/>
      </g>
     </g>
    </g>
    <g id="ytick_19">
     <g id="line2d_50">
      <defs>
       <path d="
M0 0
L2 0" id="m0789224b6b"/>
      </defs>
      <g>
       <use style="stroke:#000000;stroke-linecap:butt;stroke-width:0.5;" x="46.43875" xlink:href="#m0789224b6b" y="165.050866182"/>
      </g>
     </g>
    </g>
    <g id="ytick_20">
     <g id="line2d_51">
      <defs>
       <path d="
M0 0
L2 0" id="m0789224b6b"/>
      </defs>
      <g>
       <use style="stroke:#000000;stroke-linecap:butt;stroke-width:0.5;" x="46.43875" xlink:href="#m0789224b6b" y="150.965783484"/>
      </g>
     </g>
    </g>
    <g id="ytick_21">
     <g id="line2d_52">
      <defs>
       <path d="
M0 0
L2 0" id="m0789224b6b"/>
      </defs>
      <g>
       <use style="stroke:#000000;stroke-linecap:butt;stroke-width:0.5;" x="46.43875" xlink:href="#m0789224b6b" y="136.880700786"/>
      </g>
     </g>
    </g>
    <g id="ytick_22">
     <g id="line2d_53">
      <defs>
       <path d="
M0 0
L2 0" id="m0789224b6b"/>
      </defs>
      <g>
       <use style="stroke:#000000;stroke-linecap:butt;stroke-width:0.5;" x="46.43875" xlink:href="#m0789224b6b" y="122.795618088"/>
      </g>
     </g>
    </g>
    <g id="ytick_23">
     <g id="line2d_54">
      <defs>
       <path d="
M0 0
L2 0" id="m0789224b6b"/>
      </defs>
      <g>
       <use style="stroke:#000000;stroke-linecap:butt;stroke-width:0.5;" x="46.43875" xlink:href="#m0789224b6b" y="94.6254526917"/>
      </g>
     </g>
    </g>
    <g id="ytick_24">
     <g id="line2d_55">
      <defs>
       <path d="
M0 0
L2 0" id="m0789224b6b"/>
      </defs>
      <g>
       <use style="stroke:#000000;stroke-linecap:butt;stroke-width:0.5;" x="46.43875" xlink:href="#m0789224b6b" y="80.5403699937"/>
      </g>
     </g>
    </g>
    <g id="ytick_25">
     <g id="line2d_56">
      <defs>
       <path d="
M0 0
L2 0" id="m0789224b6b"/>
      </defs>
      <g>
       <use style="stroke:#000000;stroke-linecap:butt;stroke-width:0.5;" x="46.43875" xlink:href="#m0789224b6b" y="66.4552872957"/>
      </g>
     </g>
    </g>
    <g id="ytick_26">
     <g id="line2d_57">
      <defs>
       <path d="
M0 0
L2 0" id="m0789224b6b"/>
      </defs>
      <g>
       <use style="stroke:#000000;stroke-linecap:butt;stroke-width:0.5;" x="46.43875" xlink:href="#m0789224b6b" y="52.3702045977"/>
      </g>
     </g>
    </g>
    <g id="ytick_27">
     <g id="line2d_58">
      <defs>
       <path d="
M0 0
L2 0" id="m0789224b6b"/>
      </defs>
      <g>
       <use style="stroke:#000000;stroke-linecap:butt;stroke-width:0.5;" x="46.43875" xlink:href="#m0789224b6b" y="24.2000392018"/>
      </g>
     </g>
    </g>
   </g>
   <g id="patch_3">
    <path d="
M56.4387 390.412
L557.419 390.412" style="fill:none;stroke:#000000;stroke-width:0.8;"/>
   </g>
   <g id="patch_4">
    <path d="
M46.4387 397.926
L46.4387 7.2" style="fill:none;stroke:#000000;stroke-width:0.8;"/>
   </g>
  </g>
 </g>
 <defs>
  <clipPath id="p3e282f3160">
   <rect height="390.726153846" width="500.98" x="56.43875" y="7.2"/>
  </clipPath>
 </defs>
</svg>
