<?xml version="1.0" encoding="utf-8" standalone="no"?>
<!DOCTYPE svg PUBLIC "-//W3C//DTD SVG 1.1//EN"
  "http://www.w3.org/Graphics/SVG/1.1/DTD/svg11.dtd">
<!-- Created with matplotlib (http://matplotlib.sourceforge.net/) -->
<svg height="420pt" version="1.1" viewBox="0 0 564 420" width="564pt" xmlns="http://www.w3.org/2000/svg" xmlns:xlink="http://www.w3.org/1999/xlink">
 <defs>
  <style type="text/css">
*{stroke-linecap:square;stroke-linejoin:round;}
  </style>
 </defs>
 <g id="figure_1">
  <g id="patch_1">
   <path d="
M-2.22045e-16 420.48
L564.388 420.48
L564.388 0
L-2.22045e-16 0
z
" style="fill:#ffffff;"/>
  </g>
  <g id="axes_1">
   <g id="patch_2">
    <path d="
M39.2203 413.28
L557.188 413.28
L557.188 7.2
L39.2203 7.2
z
" style="fill:#ffffff;"/>
   </g>
   <g id="line2d_1">
    <path clip-path="url(#p8d06c6b202)" d="
M49.1812 405.471
L50.4695 339.722
L51.7578 284.92
L53.0976 237.281
L54.4374 197.411
L55.7772 163.925
L57.117 135.74
L58.4568 112.003
L59.7966 92.0248
L61.1364 75.2514
L62.4762 61.2288
L63.7645 49.9891
L65.0527 40.6668
L66.2895 33.3037
L67.4747 27.5388
L68.6084 23.0814
L69.6905 19.695
L70.7211 17.1856
L71.6487 15.4737
L71.9579 15.0092
L72.4732 17.362
L74.7405 28.6022
L77.3686 42.8139
L80.4605 60.8211
L84.1191 83.5114
L86.7472 99.7014
L88.0355 101.958
L89.4784 104.941
L91.1273 108.888
L91.5911 110.197
L96.2289 148.971
L102.155 209.376
L103.752 226.469
L107.308 265.935
L112.1 318.689
L116.996 364.04
L117.614 369.09
L122.149 395.876
L124.468 404.247
L125.498 404.572
L127.302 398.311
L127.766 396.509
L129.209 385.708
L130.858 372.381
L133.022 361.486
L133.795 358.341
L134.259 356.395
L136.526 341.478
L139.103 327.06
L141.009 311.786
L142.091 301.946
L144.256 285.037
L146.832 267.036
L148.378 260.051
L150.491 252.466
L153.48 240.781
L155.026 238.639
L156.365 237.901
L156.778 238.021
L157.757 239.145
L159.148 242.793
L160.385 246.061
L161.003 247.133
L161.415 248.111
L162.652 250.09
L163.167 251.12
L163.683 251.818
L165.589 253.158
L166.465 253.619
L166.981 254.586
L168.166 257.464
L168.63 257.981
L169.454 258.633
L169.97 258.474
L171.412 255.532
L172.649 252.247
L173.68 249.607
L176.514 241.852
L178.008 238.773
L179.503 234.166
L179.812 233.106
L180.276 231.821
L181.512 229.991
L182.44 229.915
L182.955 230.058
L183.522 229.708
L184.244 229.337
L185.635 229.32
L187.902 230.359
L189.5 229.05
L190.582 227.555
L190.943 227.48
L191.406 227.445
L192.025 226.964
L192.437 226.864
L192.746 226.976
L193.261 227.974
L194.086 229.79
L194.859 230.579
L195.323 231.542
L195.786 232.978
L196.611 235.872
L197.126 237.432
L198.981 243.913
L199.394 245.162
L200.373 246.991
L200.837 247.97
L203.258 253.875
L203.722 254.528
L204.083 254.759
L204.289 254.83
L205.474 255.717
L206.144 255.666
L206.556 255.445
L206.763 255.559
L207.381 256.212
L208.102 257.479
L208.721 258.763
L209.185 259.048
L209.494 259.144
L209.906 259.127
L210.37 259.743
L210.937 260.989
L211.658 262.533
L212.276 263.009
L213.565 262.795
L214.441 261.728
L215.368 260.816
L215.626 260.837
L216.296 261.434
L216.605 261.649
L217.429 262.486
L217.79 263.174
L219.388 266.629
L220.161 267.951
L220.985 269.936
L221.655 270.412
L222.067 270.471
L222.428 270.385
L222.789 270.296
L223.098 269.934
L223.768 268.889
L224.025 268.884
L224.18 268.997
L225.314 270.767
L226.396 272.731
L227.684 275.661
L228.612 276.636
L228.921 276.726
L229.23 276.498
L229.797 275.976
L230.055 275.764
L230.724 275.103
L230.982 275.113
L232.734 275.25
L233.352 275.03
L233.765 275.11
L234.589 275.578
L234.795 275.617
L235.362 275.8
L235.671 275.809
L236.65 275.442
L237.32 275.919
L238.351 277.117
L239.897 280.045
L240.309 280.277
L240.618 280.197
L240.928 280.089
L241.752 280.295
L242.473 280.813
L243.968 281.118
L245.256 280.723
L246.184 279.755
L246.957 279.609
L247.369 279.832
L248.554 280.437
L249.069 280.904
L250.152 282.452
L250.718 283.089
L251.388 283.547
L251.749 283.691
L252.007 283.936
L253.346 286.018
L254.016 286.559
L254.429 286.972
L256.799 290.616
L258.86 292.756
L260.715 295.248
L261.437 295.597
L261.694 295.639
L262.055 295.698
L262.622 295.981
L262.983 296.529
L264.374 299.07
L264.838 299.852
L265.559 300.75
L266.178 301.1
L266.744 301.174
L267.157 301.078
L267.414 301.022
L267.672 300.944
L267.878 300.871
L268.497 300.107
L270.042 297.147
L270.712 295.082
L271.331 292.783
L274.165 281.631
L276.484 270.696
L278.133 263.78
L281.534 253.115
L282.204 251.681
L282.719 250.948
L283.028 250.711
L283.801 250.248
L284.986 248.943
L285.862 248.478
L287.254 247.217
L287.614 246.991
L288.13 246.366
L289.83 243.676
L290.552 242.836
L291.582 241.993
L292.046 241.565
L292.407 241.24
L292.922 240.805
L293.437 240.486
L293.901 239.874
L294.52 239.136
L294.88 238.97
L295.138 238.985
L296.375 239.613
L297.096 239.562
L297.457 239.302
L298.024 238.818
L298.848 238.309
L299.312 237.728
L300.703 234.954
L303.486 227.547
L304.362 224.991
L304.929 223.673
L305.444 222.952
L305.908 222.538
L306.681 221.699
L307.402 221.225
L308.742 219.642
L309.051 219.64
L309.464 219.728
L309.824 220.024
L310.752 221.391
L311.525 222.862
L312.143 223.855
L313.328 225.948
L313.947 227.463
L314.977 230.984
L316.163 235.757
L316.729 237.77
L319.254 247.636
L319.77 248.983
L320.749 249.978
L322.14 251.261
L323.377 252.228
L323.995 252.868
L324.253 253.271
L326.056 256.335
L326.417 256.656
L328.015 257.565
L328.324 258.02
L329.87 261.338
L331.21 265.452
L334.559 278.458
L335.281 280.472
L336.157 283.022
L339.403 292.852
L340.073 294.154
L342.34 297.661
L343.062 298.186
L344.144 298.983
L344.917 299.735
L345.381 299.552
L345.844 299.435
L347.648 299.866
L348.112 300.02
L348.575 299.846
L349.761 299.212
L350.482 299.603
L351.41 300.628
L351.977 301.545
L353.522 302.996
L353.729 303.065
L354.553 302.885
L354.914 302.813
L355.584 303.053
L356.254 302.706
L356.666 302.324
L357.49 300.828
L358.109 299.58
L359.964 297.35
L360.376 296.955
L361.355 295.792
L362.231 295.799
L363.21 296.249
L363.571 296.337
L363.983 296.17
L364.395 295.889
L364.962 295.502
L366.199 294.595
L366.611 293.982
L367.281 292.646
L368.106 290.73
L369.445 287.62
L371.043 283.447
L372.022 281.806
L373.31 279.851
L374.392 278.357
L375.32 276.503
L376.041 274.991
L376.608 273.999
L377.587 271.289
L378.669 267.98
L381.246 261.044
L381.916 258.15
L383.823 249.252
L386.245 241.858
L387.533 238.898
L388.666 237.451
L390.161 234.755
L390.985 232.934
L391.707 232.302
L391.964 232.204
L392.944 231.752
L393.407 231.547
L393.923 230.835
L394.953 229.34
L396.035 227.766
L396.602 226.906
L397.839 225.781
L398.509 225.869
L400.261 224.808
L400.519 224.656
L401.137 224.76
L402.322 225.403
L403.044 225.612
L403.713 226.1
L404.023 226.674
L405.259 229.786
L406.599 232.357
L409.64 236.883
L410.155 237.582
L410.722 238.136
L411.34 238.56
L412.319 238.807
L414.02 238.7
L414.483 238.946
L414.947 239.451
L417.008 242.829
L421.182 253.442
L423.347 260.715
L424.996 267.102
L425.975 270.017
L429.427 281.93
L429.943 282.945
L430.51 283.689
L434.065 287.284
L434.941 288.606
L435.405 288.952
L435.766 289.222
L436.281 289.591
L437.105 290.016
L437.569 290.156
L437.878 290.227
L438.548 290.438
L439.579 290.183
L440.764 289.773
L441.022 289.491
L442.568 287.287
L443.701 286.256
L444.011 286.251
L444.423 286.226
L444.732 286.152
L445.453 285.992
L446.639 285.524
L447.206 285.471
L447.721 285.466
L448.391 285.875
L449.524 285.704
L450.297 285.301
L450.71 284.882
L451.38 284.164
L452.668 283.384
L453.389 283.338
L453.698 283.393
L454.008 283.667
L454.781 284.489
L456.326 286.417
L456.636 286.555
L457.151 286.358
L457.924 285.849
L458.336 285.657
L459.573 285.573
L460.397 285.207
L461.016 284.938
L461.48 284.661
L462.201 284.35
L463.077 283.572
L464.262 282.284
L464.571 282.223
L464.881 282.127
L465.447 281.644
L466.117 280.565
L466.581 280.006
L468.952 277.34
L470.137 276.724
L470.961 276.281
L471.58 275.891
L473.641 273.623
L474.311 272.506
L476.63 266.827
L477.66 263.829
L479 259.883
L480.443 256.509
L481.216 255.235
L481.937 254.445
L482.453 253.956
L483.277 253.342
L483.535 253.094
L483.947 252.387
L484.514 251.074
L485.235 249.637
L486.884 246.751
L489.255 244.075
L490.904 242.791
L492.192 242.393
L495.541 242.003
L496.521 242.243
L498.066 242.723
L499.458 244.13
L499.87 244.115
L500.437 244.173
L501.004 244.444
L503.477 246.378
L504.353 247.631
L505.126 248.483
L506.981 252.547
L507.445 253.082
L508.012 253.737
L508.785 254.776
L509.712 255.694
L509.97 255.822
L511.877 258.008
L513.165 259.676
L514.505 260.771
L514.969 260.889
L515.742 261.032
L515.948 261.046
L516.308 260.974
L517.133 261.1
L518.627 262.906
L519.658 264.402
L520.482 265.494
L521.565 266.789
L522.647 267.497
L523.523 267.814
L525.584 268.844
L526.357 268.983
L528.315 269.732
L528.882 269.702
L529.346 269.706
L532.18 270.235
L532.489 270.263
L533.107 270.375
L534.293 270.521
L536.199 269.807
L536.818 269.282
L538.209 267.109
L539.033 265.676
L539.6 265.038
L540.322 264.508
L541.043 264.295
L542.28 264.056
L542.95 264.049
L543.414 264.011
L545.217 264.741
L545.99 264.692
L547.175 264.569
L547.227 264.598
L547.227 264.598" style="fill:none;stroke:#0000ff;"/>
   </g>
   <g id="matplotlib.axis_1">
    <g id="xtick_1">
     <g id="line2d_2">
      <defs>
       <path d="
M0 0
L0 -4" id="m8172a9ce4c"/>
      </defs>
      <g>
       <use style="stroke:#000000;stroke-linecap:butt;stroke-width:0.5;" x="156.276213713" xlink:href="#m8172a9ce4c" y="264.90710828"/>
      </g>
     </g>
     <g id="text_1">
      <!-- 5 -->
      <defs>
       <path d="
M10.7969 72.9062
L49.5156 72.9062
L49.5156 64.5938
L19.8281 64.5938
L19.8281 46.7344
Q21.9688 47.4688 24.1094 47.8281
Q26.2656 48.1875 28.4219 48.1875
Q40.625 48.1875 47.75 41.5
Q54.8906 34.8125 54.8906 23.3906
Q54.8906 11.625 47.5625 5.09375
Q40.2344 -1.42188 26.9062 -1.42188
Q22.3125 -1.42188 17.5469 -0.640625
Q12.7969 0.140625 7.71875 1.70312
L7.71875 11.625
Q12.1094 9.23438 16.7969 8.0625
Q21.4844 6.89062 26.7031 6.89062
Q35.1562 6.89062 40.0781 11.3281
Q45.0156 15.7656 45.0156 23.3906
Q45.0156 31 40.0781 35.4375
Q35.1562 39.8906 26.7031 39.8906
Q22.75 39.8906 18.8125 39.0156
Q14.8906 38.1406 10.7969 36.2812
z
" id="BitstreamVeraSans-Roman-35"/>
      </defs>
      <g transform="translate(153.917619963 276.19773328)scale(0.1 -0.1)">
       <use xlink:href="#BitstreamVeraSans-Roman-35"/>
      </g>
     </g>
    </g>
    <g id="xtick_2">
     <g id="line2d_3">
      <defs>
       <path d="
M0 0
L0 -4" id="m8172a9ce4c"/>
      </defs>
      <g>
       <use style="stroke:#000000;stroke-linecap:butt;stroke-width:0.5;" x="280.607125683" xlink:href="#m8172a9ce4c" y="264.90710828"/>
      </g>
     </g>
     <g id="text_2">
      <!-- 10 -->
      <defs>
       <path d="
M31.7812 66.4062
Q24.1719 66.4062 20.3281 58.9062
Q16.5 51.4219 16.5 36.375
Q16.5 21.3906 20.3281 13.8906
Q24.1719 6.39062 31.7812 6.39062
Q39.4531 6.39062 43.2812 13.8906
Q47.125 21.3906 47.125 36.375
Q47.125 51.4219 43.2812 58.9062
Q39.4531 66.4062 31.7812 66.4062
M31.7812 74.2188
Q44.0469 74.2188 50.5156 64.5156
Q56.9844 54.8281 56.9844 36.375
Q56.9844 17.9688 50.5156 8.26562
Q44.0469 -1.42188 31.7812 -1.42188
Q19.5312 -1.42188 13.0625 8.26562
Q6.59375 17.9688 6.59375 36.375
Q6.59375 54.8281 13.0625 64.5156
Q19.5312 74.2188 31.7812 74.2188" id="BitstreamVeraSans-Roman-30"/>
       <path d="
M12.4062 8.29688
L28.5156 8.29688
L28.5156 63.9219
L10.9844 60.4062
L10.9844 69.3906
L28.4219 72.9062
L38.2812 72.9062
L38.2812 8.29688
L54.3906 8.29688
L54.3906 0
L12.4062 0
z
" id="BitstreamVeraSans-Roman-31"/>
      </defs>
      <g transform="translate(275.125875683 276.32898328)scale(0.1 -0.1)">
       <use xlink:href="#BitstreamVeraSans-Roman-31"/>
       <use x="63.623046875" xlink:href="#BitstreamVeraSans-Roman-30"/>
      </g>
     </g>
    </g>
    <g id="xtick_3">
     <g id="line2d_4">
      <defs>
       <path d="
M0 0
L0 -4" id="m8172a9ce4c"/>
      </defs>
      <g>
       <use style="stroke:#000000;stroke-linecap:butt;stroke-width:0.5;" x="404.938037652" xlink:href="#m8172a9ce4c" y="264.90710828"/>
      </g>
     </g>
     <g id="text_3">
      <!-- 15 -->
      <g transform="translate(399.561475152 276.19773328)scale(0.1 -0.1)">
       <use xlink:href="#BitstreamVeraSans-Roman-31"/>
       <use x="63.623046875" xlink:href="#BitstreamVeraSans-Roman-35"/>
      </g>
     </g>
    </g>
    <g id="xtick_4">
     <g id="line2d_5">
      <defs>
       <path d="
M0 0
L0 -4" id="m8172a9ce4c"/>
      </defs>
      <g>
       <use style="stroke:#000000;stroke-linecap:butt;stroke-width:0.5;" x="529.268949621" xlink:href="#m8172a9ce4c" y="264.90710828"/>
      </g>
     </g>
     <g id="text_4">
      <!-- 20 -->
      <defs>
       <path d="
M19.1875 8.29688
L53.6094 8.29688
L53.6094 0
L7.32812 0
L7.32812 8.29688
Q12.9375 14.1094 22.625 23.8906
Q32.3281 33.6875 34.8125 36.5312
Q39.5469 41.8438 41.4219 45.5312
Q43.3125 49.2188 43.3125 52.7812
Q43.3125 58.5938 39.2344 62.25
Q35.1562 65.9219 28.6094 65.9219
Q23.9688 65.9219 18.8125 64.3125
Q13.6719 62.7031 7.8125 59.4219
L7.8125 69.3906
Q13.7656 71.7812 18.9375 73
Q24.125 74.2188 28.4219 74.2188
Q39.75 74.2188 46.4844 68.5469
Q53.2188 62.8906 53.2188 53.4219
Q53.2188 48.9219 51.5312 44.8906
Q49.8594 40.875 45.4062 35.4062
Q44.1875 33.9844 37.6406 27.2188
Q31.1094 20.4531 19.1875 8.29688" id="BitstreamVeraSans-Roman-32"/>
      </defs>
      <g transform="translate(523.604887121 276.32898328)scale(0.1 -0.1)">
       <use xlink:href="#BitstreamVeraSans-Roman-32"/>
       <use x="63.623046875" xlink:href="#BitstreamVeraSans-Roman-30"/>
      </g>
     </g>
    </g>
    <g id="xtick_5">
     <g id="line2d_6">
      <defs>
       <path d="
M0 0
L0 -2" id="mdaf1e524a6"/>
      </defs>
      <g>
       <use style="stroke:#000000;stroke-linecap:butt;stroke-width:0.5;" x="56.8114841378" xlink:href="#mdaf1e524a6" y="264.90710828"/>
      </g>
     </g>
    </g>
    <g id="xtick_6">
     <g id="line2d_7">
      <defs>
       <path d="
M0 0
L0 -2" id="mdaf1e524a6"/>
      </defs>
      <g>
       <use style="stroke:#000000;stroke-linecap:butt;stroke-width:0.5;" x="81.6776665317" xlink:href="#mdaf1e524a6" y="264.90710828"/>
      </g>
     </g>
    </g>
    <g id="xtick_7">
     <g id="line2d_8">
      <defs>
       <path d="
M0 0
L0 -2" id="mdaf1e524a6"/>
      </defs>
      <g>
       <use style="stroke:#000000;stroke-linecap:butt;stroke-width:0.5;" x="106.543848926" xlink:href="#mdaf1e524a6" y="264.90710828"/>
      </g>
     </g>
    </g>
    <g id="xtick_8">
     <g id="line2d_9">
      <defs>
       <path d="
M0 0
L0 -2" id="mdaf1e524a6"/>
      </defs>
      <g>
       <use style="stroke:#000000;stroke-linecap:butt;stroke-width:0.5;" x="131.410031319" xlink:href="#mdaf1e524a6" y="264.90710828"/>
      </g>
     </g>
    </g>
    <g id="xtick_9">
     <g id="line2d_10">
      <defs>
       <path d="
M0 0
L0 -2" id="mdaf1e524a6"/>
      </defs>
      <g>
       <use style="stroke:#000000;stroke-linecap:butt;stroke-width:0.5;" x="181.142396107" xlink:href="#mdaf1e524a6" y="264.90710828"/>
      </g>
     </g>
    </g>
    <g id="xtick_10">
     <g id="line2d_11">
      <defs>
       <path d="
M0 0
L0 -2" id="mdaf1e524a6"/>
      </defs>
      <g>
       <use style="stroke:#000000;stroke-linecap:butt;stroke-width:0.5;" x="206.008578501" xlink:href="#mdaf1e524a6" y="264.90710828"/>
      </g>
     </g>
    </g>
    <g id="xtick_11">
     <g id="line2d_12">
      <defs>
       <path d="
M0 0
L0 -2" id="mdaf1e524a6"/>
      </defs>
      <g>
       <use style="stroke:#000000;stroke-linecap:butt;stroke-width:0.5;" x="230.874760895" xlink:href="#mdaf1e524a6" y="264.90710828"/>
      </g>
     </g>
    </g>
    <g id="xtick_12">
     <g id="line2d_13">
      <defs>
       <path d="
M0 0
L0 -2" id="mdaf1e524a6"/>
      </defs>
      <g>
       <use style="stroke:#000000;stroke-linecap:butt;stroke-width:0.5;" x="255.740943289" xlink:href="#mdaf1e524a6" y="264.90710828"/>
      </g>
     </g>
    </g>
    <g id="xtick_13">
     <g id="line2d_14">
      <defs>
       <path d="
M0 0
L0 -2" id="mdaf1e524a6"/>
      </defs>
      <g>
       <use style="stroke:#000000;stroke-linecap:butt;stroke-width:0.5;" x="305.473308077" xlink:href="#mdaf1e524a6" y="264.90710828"/>
      </g>
     </g>
    </g>
    <g id="xtick_14">
     <g id="line2d_15">
      <defs>
       <path d="
M0 0
L0 -2" id="mdaf1e524a6"/>
      </defs>
      <g>
       <use style="stroke:#000000;stroke-linecap:butt;stroke-width:0.5;" x="330.33949047" xlink:href="#mdaf1e524a6" y="264.90710828"/>
      </g>
     </g>
    </g>
    <g id="xtick_15">
     <g id="line2d_16">
      <defs>
       <path d="
M0 0
L0 -2" id="mdaf1e524a6"/>
      </defs>
      <g>
       <use style="stroke:#000000;stroke-linecap:butt;stroke-width:0.5;" x="355.205672864" xlink:href="#mdaf1e524a6" y="264.90710828"/>
      </g>
     </g>
    </g>
    <g id="xtick_16">
     <g id="line2d_17">
      <defs>
       <path d="
M0 0
L0 -2" id="mdaf1e524a6"/>
      </defs>
      <g>
       <use style="stroke:#000000;stroke-linecap:butt;stroke-width:0.5;" x="380.071855258" xlink:href="#mdaf1e524a6" y="264.90710828"/>
      </g>
     </g>
    </g>
    <g id="xtick_17">
     <g id="line2d_18">
      <defs>
       <path d="
M0 0
L0 -2" id="mdaf1e524a6"/>
      </defs>
      <g>
       <use style="stroke:#000000;stroke-linecap:butt;stroke-width:0.5;" x="429.804220046" xlink:href="#mdaf1e524a6" y="264.90710828"/>
      </g>
     </g>
    </g>
    <g id="xtick_18">
     <g id="line2d_19">
      <defs>
       <path d="
M0 0
L0 -2" id="mdaf1e524a6"/>
      </defs>
      <g>
       <use style="stroke:#000000;stroke-linecap:butt;stroke-width:0.5;" x="454.67040244" xlink:href="#mdaf1e524a6" y="264.90710828"/>
      </g>
     </g>
    </g>
    <g id="xtick_19">
     <g id="line2d_20">
      <defs>
       <path d="
M0 0
L0 -2" id="mdaf1e524a6"/>
      </defs>
      <g>
       <use style="stroke:#000000;stroke-linecap:butt;stroke-width:0.5;" x="479.536584834" xlink:href="#mdaf1e524a6" y="264.90710828"/>
      </g>
     </g>
    </g>
    <g id="xtick_20">
     <g id="line2d_21">
      <defs>
       <path d="
M0 0
L0 -2" id="mdaf1e524a6"/>
      </defs>
      <g>
       <use style="stroke:#000000;stroke-linecap:butt;stroke-width:0.5;" x="504.402767228" xlink:href="#mdaf1e524a6" y="264.90710828"/>
      </g>
     </g>
    </g>
   </g>
   <g id="matplotlib.axis_2">
    <g id="ytick_1">
     <g id="line2d_22">
      <defs>
       <path d="
M0 0
L4 0" id="mabffed53f8"/>
      </defs>
      <g>
       <use style="stroke:#000000;stroke-linecap:butt;stroke-width:0.5;" x="29.2203125" xlink:href="#mabffed53f8" y="339.580551326"/>
      </g>
     </g>
     <g id="text_5">
      <!-- -0.2 -->
      <defs>
       <path d="
M10.6875 12.4062
L21 12.4062
L21 0
L10.6875 0
z
" id="BitstreamVeraSans-Roman-2e"/>
       <path d="
M4.89062 31.3906
L31.2031 31.3906
L31.2031 23.3906
L4.89062 23.3906
z
" id="BitstreamVeraSans-Roman-2d"/>
      </defs>
      <g transform="translate(7.2 343.220395076)scale(0.1 -0.1)">
       <use xlink:href="#BitstreamVeraSans-Roman-2d"/>
       <use x="36.083984375" xlink:href="#BitstreamVeraSans-Roman-30"/>
       <use x="99.70703125" xlink:href="#BitstreamVeraSans-Roman-2e"/>
       <use x="131.494140625" xlink:href="#BitstreamVeraSans-Roman-32"/>
      </g>
     </g>
    </g>
    <g id="ytick_2">
     <g id="line2d_23">
      <defs>
       <path d="
M0 0
L4 0" id="mabffed53f8"/>
      </defs>
      <g>
       <use style="stroke:#000000;stroke-linecap:butt;stroke-width:0.5;" x="29.2203125" xlink:href="#mabffed53f8" y="264.90710828"/>
      </g>
     </g>
     <g id="text_6">
      <!-- 0 -->
      <g transform="translate(20.18125 268.54695203)scale(0.1 -0.1)">
       <use xlink:href="#BitstreamVeraSans-Roman-30"/>
      </g>
     </g>
    </g>
    <g id="ytick_3">
     <g id="line2d_24">
      <defs>
       <path d="
M0 0
L4 0" id="mabffed53f8"/>
      </defs>
      <g>
       <use style="stroke:#000000;stroke-linecap:butt;stroke-width:0.5;" x="29.2203125" xlink:href="#mabffed53f8" y="190.233665234"/>
      </g>
     </g>
     <g id="text_7">
      <!-- 0.2 -->
      <g transform="translate(10.978125 193.873508984)scale(0.1 -0.1)">
       <use xlink:href="#BitstreamVeraSans-Roman-30"/>
       <use x="63.623046875" xlink:href="#BitstreamVeraSans-Roman-2e"/>
       <use x="95.41015625" xlink:href="#BitstreamVeraSans-Roman-32"/>
      </g>
     </g>
    </g>
    <g id="ytick_4">
     <g id="line2d_25">
      <defs>
       <path d="
M0 0
L4 0" id="mabffed53f8"/>
      </defs>
      <g>
       <use style="stroke:#000000;stroke-linecap:butt;stroke-width:0.5;" x="29.2203125" xlink:href="#mabffed53f8" y="115.560222189"/>
      </g>
     </g>
     <g id="text_8">
      <!-- 0.4 -->
      <defs>
       <path d="
M37.7969 64.3125
L12.8906 25.3906
L37.7969 25.3906
z

M35.2031 72.9062
L47.6094 72.9062
L47.6094 25.3906
L58.0156 25.3906
L58.0156 17.1875
L47.6094 17.1875
L47.6094 0
L37.7969 0
L37.7969 17.1875
L4.89062 17.1875
L4.89062 26.7031
z
" id="BitstreamVeraSans-Roman-34"/>
      </defs>
      <g transform="translate(10.5375 119.200065939)scale(0.1 -0.1)">
       <use xlink:href="#BitstreamVeraSans-Roman-30"/>
       <use x="63.623046875" xlink:href="#BitstreamVeraSans-Roman-2e"/>
       <use x="95.41015625" xlink:href="#BitstreamVeraSans-Roman-34"/>
      </g>
     </g>
    </g>
    <g id="ytick_5">
     <g id="line2d_26">
      <defs>
       <path d="
M0 0
L4 0" id="mabffed53f8"/>
      </defs>
      <g>
       <use style="stroke:#000000;stroke-linecap:butt;stroke-width:0.5;" x="29.2203125" xlink:href="#mabffed53f8" y="40.8867791433"/>
      </g>
     </g>
     <g id="text_9">
      <!-- 0.6 -->
      <defs>
       <path d="
M33.0156 40.375
Q26.375 40.375 22.4844 35.8281
Q18.6094 31.2969 18.6094 23.3906
Q18.6094 15.5312 22.4844 10.9531
Q26.375 6.39062 33.0156 6.39062
Q39.6562 6.39062 43.5312 10.9531
Q47.4062 15.5312 47.4062 23.3906
Q47.4062 31.2969 43.5312 35.8281
Q39.6562 40.375 33.0156 40.375
M52.5938 71.2969
L52.5938 62.3125
Q48.875 64.0625 45.0938 64.9844
Q41.3125 65.9219 37.5938 65.9219
Q27.8281 65.9219 22.6719 59.3281
Q17.5312 52.7344 16.7969 39.4062
Q19.6719 43.6562 24.0156 45.9219
Q28.375 48.1875 33.5938 48.1875
Q44.5781 48.1875 50.9531 41.5156
Q57.3281 34.8594 57.3281 23.3906
Q57.3281 12.1562 50.6875 5.35938
Q44.0469 -1.42188 33.0156 -1.42188
Q20.3594 -1.42188 13.6719 8.26562
Q6.98438 17.9688 6.98438 36.375
Q6.98438 53.6562 15.1875 63.9375
Q23.3906 74.2188 37.2031 74.2188
Q40.9219 74.2188 44.7031 73.4844
Q48.4844 72.75 52.5938 71.2969" id="BitstreamVeraSans-Roman-36"/>
      </defs>
      <g transform="translate(10.60625 44.5266228933)scale(0.1 -0.1)">
       <use xlink:href="#BitstreamVeraSans-Roman-30"/>
       <use x="63.623046875" xlink:href="#BitstreamVeraSans-Roman-2e"/>
       <use x="95.41015625" xlink:href="#BitstreamVeraSans-Roman-36"/>
      </g>
     </g>
    </g>
    <g id="ytick_6">
     <g id="line2d_27">
      <defs>
       <path d="
M0 0
L2 0" id="m8a4e63cd23"/>
      </defs>
      <g>
       <use style="stroke:#000000;stroke-linecap:butt;stroke-width:0.5;" x="29.2203125" xlink:href="#m8a4e63cd23" y="395.58563361"/>
      </g>
     </g>
    </g>
    <g id="ytick_7">
     <g id="line2d_28">
      <defs>
       <path d="
M0 0
L2 0" id="m8a4e63cd23"/>
      </defs>
      <g>
       <use style="stroke:#000000;stroke-linecap:butt;stroke-width:0.5;" x="29.2203125" xlink:href="#m8a4e63cd23" y="376.917272848"/>
      </g>
     </g>
    </g>
    <g id="ytick_8">
     <g id="line2d_29">
      <defs>
       <path d="
M0 0
L2 0" id="m8a4e63cd23"/>
      </defs>
      <g>
       <use style="stroke:#000000;stroke-linecap:butt;stroke-width:0.5;" x="29.2203125" xlink:href="#m8a4e63cd23" y="358.248912087"/>
      </g>
     </g>
    </g>
    <g id="ytick_9">
     <g id="line2d_30">
      <defs>
       <path d="
M0 0
L2 0" id="m8a4e63cd23"/>
      </defs>
      <g>
       <use style="stroke:#000000;stroke-linecap:butt;stroke-width:0.5;" x="29.2203125" xlink:href="#m8a4e63cd23" y="320.912190564"/>
      </g>
     </g>
    </g>
    <g id="ytick_10">
     <g id="line2d_31">
      <defs>
       <path d="
M0 0
L2 0" id="m8a4e63cd23"/>
      </defs>
      <g>
       <use style="stroke:#000000;stroke-linecap:butt;stroke-width:0.5;" x="29.2203125" xlink:href="#m8a4e63cd23" y="302.243829803"/>
      </g>
     </g>
    </g>
    <g id="ytick_11">
     <g id="line2d_32">
      <defs>
       <path d="
M0 0
L2 0" id="m8a4e63cd23"/>
      </defs>
      <g>
       <use style="stroke:#000000;stroke-linecap:butt;stroke-width:0.5;" x="29.2203125" xlink:href="#m8a4e63cd23" y="283.575469041"/>
      </g>
     </g>
    </g>
    <g id="ytick_12">
     <g id="line2d_33">
      <defs>
       <path d="
M0 0
L2 0" id="m8a4e63cd23"/>
      </defs>
      <g>
       <use style="stroke:#000000;stroke-linecap:butt;stroke-width:0.5;" x="29.2203125" xlink:href="#m8a4e63cd23" y="246.238747519"/>
      </g>
     </g>
    </g>
    <g id="ytick_13">
     <g id="line2d_34">
      <defs>
       <path d="
M0 0
L2 0" id="m8a4e63cd23"/>
      </defs>
      <g>
       <use style="stroke:#000000;stroke-linecap:butt;stroke-width:0.5;" x="29.2203125" xlink:href="#m8a4e63cd23" y="227.570386757"/>
      </g>
     </g>
    </g>
    <g id="ytick_14">
     <g id="line2d_35">
      <defs>
       <path d="
M0 0
L2 0" id="m8a4e63cd23"/>
      </defs>
      <g>
       <use style="stroke:#000000;stroke-linecap:butt;stroke-width:0.5;" x="29.2203125" xlink:href="#m8a4e63cd23" y="208.902025996"/>
      </g>
     </g>
    </g>
    <g id="ytick_15">
     <g id="line2d_36">
      <defs>
       <path d="
M0 0
L2 0" id="m8a4e63cd23"/>
      </defs>
      <g>
       <use style="stroke:#000000;stroke-linecap:butt;stroke-width:0.5;" x="29.2203125" xlink:href="#m8a4e63cd23" y="171.565304473"/>
      </g>
     </g>
    </g>
    <g id="ytick_16">
     <g id="line2d_37">
      <defs>
       <path d="
M0 0
L2 0" id="m8a4e63cd23"/>
      </defs>
      <g>
       <use style="stroke:#000000;stroke-linecap:butt;stroke-width:0.5;" x="29.2203125" xlink:href="#m8a4e63cd23" y="152.896943712"/>
      </g>
     </g>
    </g>
    <g id="ytick_17">
     <g id="line2d_38">
      <defs>
       <path d="
M0 0
L2 0" id="m8a4e63cd23"/>
      </defs>
      <g>
       <use style="stroke:#000000;stroke-linecap:butt;stroke-width:0.5;" x="29.2203125" xlink:href="#m8a4e63cd23" y="134.22858295"/>
      </g>
     </g>
    </g>
    <g id="ytick_18">
     <g id="line2d_39">
      <defs>
       <path d="
M0 0
L2 0" id="m8a4e63cd23"/>
      </defs>
      <g>
       <use style="stroke:#000000;stroke-linecap:butt;stroke-width:0.5;" x="29.2203125" xlink:href="#m8a4e63cd23" y="96.8918614275"/>
      </g>
     </g>
    </g>
    <g id="ytick_19">
     <g id="line2d_40">
      <defs>
       <path d="
M0 0
L2 0" id="m8a4e63cd23"/>
      </defs>
      <g>
       <use style="stroke:#000000;stroke-linecap:butt;stroke-width:0.5;" x="29.2203125" xlink:href="#m8a4e63cd23" y="78.2235006661"/>
      </g>
     </g>
    </g>
    <g id="ytick_20">
     <g id="line2d_41">
      <defs>
       <path d="
M0 0
L2 0" id="m8a4e63cd23"/>
      </defs>
      <g>
       <use style="stroke:#000000;stroke-linecap:butt;stroke-width:0.5;" x="29.2203125" xlink:href="#m8a4e63cd23" y="59.5551399047"/>
      </g>
     </g>
    </g>
    <g id="ytick_21">
     <g id="line2d_42">
      <defs>
       <path d="
M0 0
L2 0" id="m8a4e63cd23"/>
      </defs>
      <g>
       <use style="stroke:#000000;stroke-linecap:butt;stroke-width:0.5;" x="29.2203125" xlink:href="#m8a4e63cd23" y="40.8867791433"/>
      </g>
     </g>
    </g>
   </g>
   <g id="patch_3">
    <path d="
M39.2203 264.907
L557.188 264.907" style="fill:none;stroke:#000000;stroke-width:0.8;"/>
   </g>
   <g id="patch_4">
    <path d="
M29.2203 413.28
L29.2203 7.2" style="fill:none;stroke:#000000;stroke-width:0.8;"/>
   </g>
  </g>
 </g>
 <defs>
  <clipPath id="p8d06c6b202">
   <rect height="406.08" width="517.9675" x="39.2203125" y="7.2"/>
  </clipPath>
 </defs>
</svg>
