<?xml version="1.0" encoding="utf-8" standalone="no"?>
<!DOCTYPE svg PUBLIC "-//W3C//DTD SVG 1.1//EN"
  "http://www.w3.org/Graphics/SVG/1.1/DTD/svg11.dtd">
<!-- Created with matplotlib (http://matplotlib.sourceforge.net/) -->
<svg height="420pt" version="1.1" viewBox="0 0 564 420" width="564pt" xmlns="http://www.w3.org/2000/svg" xmlns:xlink="http://www.w3.org/1999/xlink">
 <defs>
  <style type="text/css">
*{stroke-linecap:square;stroke-linejoin:round;}
  </style>
 </defs>
 <g id="figure_1">
  <g id="patch_1">
   <path d="
M-4.44089e-16 420.48
L564.466 420.48
L564.466 0
L-4.44089e-16 0
z
" style="fill:#ffffff;"/>
  </g>
  <g id="axes_1">
   <g id="patch_2">
    <path d="
M39.2984 413.28
L557.266 413.28
L557.266 7.2
L39.2984 7.2
z
" style="fill:#ffffff;"/>
   </g>
   <g id="line2d_1">
    <path clip-path="url(#pbda54c63f9)" d="
M49.2594 108.709
L50.2384 74.1746
L51.1145 51.1612
L51.8874 36.1863
L52.6089 26.1637
L53.2272 20.2851
L53.7941 16.8852
L54.2063 15.5167
L54.5155 15.0616
L54.7732 15.0377
L55.0308 15.3257
L55.34 16.0681
L55.7522 17.697
L56.2675 20.705
L56.9374 26.1167
L57.7104 34.2943
L58.638 46.5712
L59.3594 57.2999
L59.4109 56.6268
L60.1839 48.2436
L60.9053 42.7342
L61.5237 39.6527
L61.9875 38.2719
L62.3482 37.721
L62.6574 37.5986
L62.915 37.7357
L63.2242 38.1784
L63.6365 39.2242
L64.1518 41.2349
L64.7701 44.6262
L65.5431 50.2759
L66.4191 58.4383
L66.5222 59.2198
L66.5737 59.1989
L66.8829 59.2439
L67.1921 59.5541
L67.6043 60.3658
L68.1196 61.999
L68.738 64.8259
L69.4594 69.2558
L70.3355 76.1726
L71.3146 85.7604
L72.1906 94.1641
L72.5513 94.5596
L72.9635 95.3724
L73.4789 96.9151
L74.0972 99.5073
L74.8702 103.832
L75.7462 110.109
L76.7768 119.249
L77.962 131.938
L79.3018 148.865
L80.4355 164.647
L80.487 164.342
L81.26 160.551
L81.9299 158.257
L82.4967 157.008
L82.9605 156.441
L83.3728 156.272
L83.682 156.346
L83.7335 156.397
L84.6095 162.855
L85.7432 172.865
L86.7223 183.219
L88.5774 214.34
L90.6386 252.907
L91.8754 275.483
L93.2667 290.674
L94.8126 310.05
L95.8432 323.704
L95.8948 323.636
L96.4101 323.132
L96.8223 322.997
L97.2346 323.102
L97.6468 323.439
L98.1621 324.181
L98.7805 325.53
L99.5019 327.72
L100.326 331.008
L101.151 335.189
L102.233 342.229
L102.697 344.871
L103.624 349.22
L104.655 355.171
L105.273 359.029
L105.325 358.993
L105.789 358.811
L106.201 358.868
L106.665 359.176
L107.18 359.814
L107.798 360.983
L108.52 362.889
L109.344 365.763
L110.375 369.386
L111.148 371.608
L112.385 375.333
L112.951 376.101
L113.57 377.329
L114.291 379.262
L115.116 382.116
L116.095 386.368
L117.177 392.122
L117.589 393.932
L118.568 396.027
L119.187 397.057
L119.908 398.729
L120.733 401.246
L121.66 404.831
L121.815 405.471
L123.155 399.622
L124.031 396.818
L124.752 394.549
L125.68 391.093
L126.968 381.773
L127.947 374.729
L128.978 363.849
L130.214 355.681
L132.482 342.849
L136.14 325.944
L136.656 324.073
L137.995 314.424
L138.356 313.235
L138.768 311.876
L140.005 304.466
L140.881 299.154
L142.221 286.119
L143.664 270.289
L145.004 261.277
L146.189 253.403
L147.219 244.285
L148.25 232.768
L149.281 222.811
L150.157 216.099
L151.857 205.13
L152.373 202.536
L152.63 201.133
L153.506 196.259
L154.434 192.077
L154.795 190.97
L156.134 182.973
L156.598 181.03
L157.113 180.372
L158.659 179.082
L159.278 178.742
L159.587 179.676
L160.875 186.88
L161.133 187.934
L161.39 188.194
L161.957 188.082
L162.524 188.189
L162.679 188.335
L162.988 189.206
L167.729 209.454
L168.244 211.058
L168.862 214.445
L169.584 218.932
L170.357 224.483
L171.387 229.975
L171.903 230.861
L172.521 233.447
L173.861 239.945
L174.685 244.702
L175.355 250.062
L179.066 288.282
L181.127 312.783
L184.116 344.29
L184.734 348.911
L185.352 352.618
L186.022 355.877
L186.898 359.824
L187.517 363.941
L188.083 368.689
L191.227 393.183
L191.588 393.836
L191.897 394.102
L192.464 393.774
L192.824 393.127
L193.391 390.902
L193.649 389.968
L194.37 386.471
L195.813 375.206
L196.895 366.429
L198.493 357.785
L199.163 354.921
L199.884 350.073
L201.894 334.18
L203.44 323.91
L203.903 320.691
L204.47 317.073
L204.831 314.506
L205.552 309.261
L206.222 305.626
L206.686 304.462
L206.944 304.187
L207.356 304.19
L208.077 304.949
L208.284 304.89
L209.984 303.643
L211.118 305.074
L212.148 306.931
L212.612 307.209
L212.818 306.848
L215.189 299.621
L215.807 298.113
L216.168 296.817
L218.384 288.169
L218.538 288.071
L218.899 288.02
L219.208 287.486
L219.517 286.446
L220.806 280.263
L221.939 273.849
L222.712 270.06
L223.124 269.068
L223.485 268.644
L223.949 268.303
L225.083 265.357
L225.495 264.853
L225.701 264.925
L225.856 264.951
L226.01 264.929
L226.268 265.283
L226.68 266.188
L227.247 267.885
L228.02 270.579
L228.432 271.478
L228.638 271.866
L229.102 273.329
L229.875 276.965
L231.112 284.257
L231.73 286.659
L232.194 287.776
L232.709 289.172
L233.379 289.646
L233.688 289.477
L234.204 288.521
L234.41 288.086
L235.595 284.745
L236.265 282.146
L237.605 274.919
L237.914 273.954
L238.481 271.288
L238.996 267.865
L241.624 251.925
L242.088 249.579
L243.325 245.351
L243.737 244.882
L243.994 244.826
L244.922 243.562
L245.077 243.62
L245.798 244.159
L245.953 244.25
L246.262 244.958
L246.519 245.294
L246.829 245.696
L247.086 245.984
L247.292 245.948
L247.653 245.814
L247.911 245.812
L248.168 245.668
L248.581 244.829
L249.56 242.254
L250.075 241.757
L251.312 240.179
L252.806 236.647
L253.115 236.463
L253.27 236.468
L253.476 236.426
L253.785 236.075
L253.991 235.942
L254.146 236.07
L254.352 236.093
L254.919 235.976
L255.28 236.306
L255.64 236.749
L255.847 236.861
L256.671 238.035
L256.929 238.442
L257.186 239.285
L257.65 241.569
L259.351 252.915
L259.917 256.322
L260.845 262.058
L261.67 269.098
L262.649 276.921
L266.204 298.278
L266.926 302.588
L267.956 309.337
L270.997 324.661
L271.563 326.907
L272.903 330.776
L273.212 331.199
L273.779 331.771
L274.088 332.061
L275.068 334.218
L275.428 334.754
L275.789 335.103
L276.82 335.39
L277.18 335.349
L277.335 335.35
L277.747 334.709
L278.262 333.645
L278.675 332.978
L278.932 332.502
L279.345 330.975
L281.251 322.524
L281.87 320.932
L282.076 320.901
L283.003 321.18
L283.776 322.117
L283.982 322.142
L284.807 323.445
L285.168 324.054
L285.374 324.044
L285.734 323.88
L286.198 324.049
L286.456 324.042
L286.662 323.976
L288.156 322.649
L288.775 322.651
L289.032 322.669
L289.393 322.581
L289.754 322.7
L290.321 323.278
L290.681 323.816
L291.248 325.663
L292.536 330.098
L292.743 330.309
L292.949 330.465
L293.155 330.893
L293.619 331.932
L294.649 333.742
L295.319 335.108
L295.628 335.424
L296.092 336.098
L296.504 336.175
L296.762 335.962
L297.793 333.34
L298.875 328.932
L299.493 326.059
L301.451 319.804
L302.688 314.575
L303.513 311.41
L304.286 307.342
L304.543 306.189
L306.398 296.589
L308.769 278.693
L309.902 272.286
L310.624 268.748
L312.273 260.17
L315.313 244.599
L315.983 242.529
L316.962 240.012
L317.58 238.767
L317.89 237.891
L318.611 235.985
L319.023 235.678
L319.384 235.417
L320.26 234.49
L320.466 234.364
L322.012 235.153
L322.424 235.493
L323.197 236.936
L323.455 237.331
L323.867 238.054
L324.073 238.345
L325.001 240.198
L325.619 241.603
L326.135 244.051
L326.856 248.386
L327.835 253.687
L328.505 256.734
L329.175 258.891
L329.69 260.788
L330.206 262.295
L331.082 264.777
L331.751 266.743
L332.473 267.903
L333.091 269.195
L334.122 270.834
L334.586 271.403
L334.895 271.835
L335.462 272.947
L336.08 275.075
L336.441 276.631
L337.729 283.707
L338.76 288.359
L339.017 288.727
L339.687 289.192
L339.945 289.317
L340.254 289.476
L340.924 290.848
L341.594 292.189
L341.852 292.32
L342.264 292.574
L342.934 292.511
L343.346 292.75
L344.273 293.667
L344.634 294.093
L344.84 294.087
L345.046 294.19
L345.253 294.482
L345.819 295.32
L346.902 296.44
L348.19 298.713
L349.272 301.091
L349.736 301.6
L350.921 303.486
L351.539 304.561
L352.055 304.703
L352.415 304.777
L352.879 305.463
L354.631 308.928
L355.043 309.804
L355.456 309.967
L356.383 309.014
L357.414 306.114
L358.084 303.994
L358.496 303.564
L358.805 303.591
L359.063 303.5
L359.424 303.629
L360.197 304.239
L360.506 304.933
L360.918 305.857
L361.124 306.198
L361.485 307.374
L361.949 308.598
L362.361 309.178
L362.825 309.388
L363.443 309.031
L363.649 309.188
L363.958 309.531
L364.474 309.906
L364.68 309.925
L365.401 309.518
L365.71 309.287
L366.432 309.343
L366.741 309.797
L367.102 310.235
L367.462 310.295
L368.029 309.904
L369.06 308.038
L369.627 306.229
L370.451 303.325
L370.709 302.935
L370.966 302.702
L371.636 302.9
L372.255 303.812
L372.873 305.235
L373.749 307.369
L374.471 307.925
L375.295 309.55
L376.429 311.906
L376.944 312.761
L377.511 313.774
L378.335 314.57
L379.16 315.645
L379.521 315.96
L379.933 316.064
L380.139 315.978
L380.706 315.116
L381.582 312.526
L383.179 307.475
L383.592 306.737
L383.901 306.321
L384.21 305.854
L386.735 300.531
L387.096 299.985
L387.559 299.675
L387.817 299.741
L388.075 299.661
L388.384 299.428
L388.796 299.417
L389.054 299.533
L389.569 299.405
L389.775 299.346
L390.136 299.378
L391.115 299.634
L391.991 299.605
L392.352 299.611
L392.712 299.589
L392.919 299.682
L393.382 299.578
L393.795 299.239
L394.31 299.38
L394.619 299.253
L395.237 298.896
L396.114 297.736
L396.423 296.969
L397.093 294.419
L398.948 286.956
L400.442 281.336
L400.906 280.256
L401.215 279.474
L401.833 277.517
L402.452 275.431
L403.07 272.893
L403.689 269.081
L404.462 263.997
L405.492 259.37
L406.11 257.2
L406.471 255.718
L407.296 252.592
L408.429 249.333
L408.842 248.02
L409.254 247.401
L409.666 247.1
L410.594 247.159
L411.418 247.831
L412.14 247.696
L412.552 247.28
L413.479 246.372
L413.789 245.972
L414.149 245.991
L414.51 246.41
L415.335 247.806
L416.365 249.844
L416.829 250.139
L417.447 250.236
L417.756 250.633
L418.169 251.293
L419.663 254.581
L420.127 256.11
L421.054 260.42
L421.776 263.897
L424.043 273.761
L424.919 277.773
L426.414 285.232
L427.341 288.409
L429.299 294.931
L429.866 296.038
L430.433 296.935
L431.103 298.049
L431.515 298.426
L431.721 298.68
L432.082 299.062
L432.34 299.305
L432.855 300.363
L433.525 301.827
L434.04 302.358
L434.246 302.478
L434.556 302.955
L435.586 305.574
L436.874 308.834
L437.235 309.268
L437.493 309.246
L438.111 309.113
L438.523 308.968
L438.833 308.48
L440.997 304.957
L441.409 304.38
L441.718 304.022
L441.976 303.932
L442.234 304.228
L443.831 306.712
L444.913 308.132
L445.222 308.803
L445.635 309.646
L446.768 311.021
L447.181 311.88
L447.593 312.664
L448.727 313.514
L449.087 314.344
L449.86 316.542
L451.045 319.11
L451.973 321.591
L452.488 322.093
L453.158 322.701
L453.931 323.537
L454.292 323.409
L454.704 323.112
L455.426 322.373
L455.786 321.803
L456.25 320.59
L456.817 319.142
L457.693 316.98
L458.054 316.152
L459.187 313.046
L459.703 311.794
L461.764 306.033
L462.125 305.446
L462.382 305.416
L462.949 305.456
L463.98 305.05
L465.783 303.048
L466.402 301.797
L466.968 300.406
L467.638 298.991
L468.617 296.681
L468.978 296.108
L469.39 295.544
L470.06 293.824
L470.576 292.552
L473.307 284.303
L473.719 283.727
L474.028 283.294
L474.389 282.663
L474.904 281.864
L475.832 281.065
L476.141 280.965
L476.708 280.287
L477.275 279.304
L477.687 278.437
L478.769 275.38
L480.624 269.886
L481.036 269.396
L481.5 268.761
L482.015 268.234
L482.891 268.276
L483.458 268.619
L483.974 268.513
L484.18 268.432
L484.386 268.416
L486.241 269.782
L486.653 270.149
L487.22 270.119
L487.529 269.977
L487.787 270.144
L488.096 270.417
L488.56 271.394
L488.921 272.16
L489.797 273.005
L490.106 273.237
L490.57 273.136
L491.497 273.276
L491.858 273.619
L492.631 273.85
L492.94 273.683
L493.61 273.913
L494.434 273.498
L495.362 273.968
L496.805 276.738
L497.99 278.849
L499.278 279.734
L499.484 279.983
L499.897 280.685
L500.257 281.081
L501.443 281.173
L501.803 280.912
L502.112 281.032
L502.37 281.124
L502.628 281.096
L503.04 280.819
L503.761 280.33
L504.895 279.471
L505.41 279.776
L505.72 280.243
L506.905 282.225
L507.317 282.506
L507.832 282.705
L508.245 282.631
L508.605 282.81
L508.863 283.12
L509.327 283.797
L509.688 283.901
L510.1 283.991
L510.46 284.44
L511.182 285.508
L511.955 286.7
L513.243 287.66
L513.862 288.345
L514.222 288.851
L515.15 290.116
L515.614 290.189
L516.129 290.198
L516.387 289.947
L518.654 286.475
L519.221 284.946
L519.839 282.146
L520.457 279.983
L520.818 279.412
L521.746 278.289
L522.106 278.204
L522.364 278.266
L522.879 278.851
L523.498 279.985
L524.116 281.318
L526.229 287.712
L526.899 289.204
L527.466 290.274
L528.445 292.729
L529.063 294.61
L529.785 296.947
L530.454 299.632
L531.846 305.749
L532.619 308.543
L534.628 314.769
L537.257 321.511
L538.442 323.31
L539.885 324.806
L540.297 325.366
L540.658 325.421
L541.482 325.231
L542.049 324.79
L542.77 324.442
L543.286 324.182
L543.492 323.828
L544.265 322.317
L544.625 321.799
L545.192 321.04
L545.605 320.102
L546.377 317.872
L546.841 316.544
L547.305 315.399
L547.305 315.399" style="fill:none;stroke:#0000ff;"/>
   </g>
   <g id="matplotlib.axis_1">
    <g id="xtick_1">
     <g id="line2d_2">
      <defs>
       <path d="
M0 0
L0 -4" id="m33a5312961"/>
      </defs>
      <g>
       <use style="stroke:#000000;stroke-linecap:butt;stroke-width:0.5;" x="156.354338713" xlink:href="#m33a5312961" y="290.143252355"/>
      </g>
     </g>
     <g id="text_1">
      <!-- 5 -->
      <defs>
       <path d="
M10.7969 72.9062
L49.5156 72.9062
L49.5156 64.5938
L19.8281 64.5938
L19.8281 46.7344
Q21.9688 47.4688 24.1094 47.8281
Q26.2656 48.1875 28.4219 48.1875
Q40.625 48.1875 47.75 41.5
Q54.8906 34.8125 54.8906 23.3906
Q54.8906 11.625 47.5625 5.09375
Q40.2344 -1.42188 26.9062 -1.42188
Q22.3125 -1.42188 17.5469 -0.640625
Q12.7969 0.140625 7.71875 1.70312
L7.71875 11.625
Q12.1094 9.23438 16.7969 8.0625
Q21.4844 6.89062 26.7031 6.89062
Q35.1562 6.89062 40.0781 11.3281
Q45.0156 15.7656 45.0156 23.3906
Q45.0156 31 40.0781 35.4375
Q35.1562 39.8906 26.7031 39.8906
Q22.75 39.8906 18.8125 39.0156
Q14.8906 38.1406 10.7969 36.2812
z
" id="BitstreamVeraSans-Roman-35"/>
      </defs>
      <g transform="translate(153.995744963 301.433877355)scale(0.1 -0.1)">
       <use xlink:href="#BitstreamVeraSans-Roman-35"/>
      </g>
     </g>
    </g>
    <g id="xtick_2">
     <g id="line2d_3">
      <defs>
       <path d="
M0 0
L0 -4" id="m33a5312961"/>
      </defs>
      <g>
       <use style="stroke:#000000;stroke-linecap:butt;stroke-width:0.5;" x="280.685250683" xlink:href="#m33a5312961" y="290.143252355"/>
      </g>
     </g>
     <g id="text_2">
      <!-- 10 -->
      <defs>
       <path d="
M31.7812 66.4062
Q24.1719 66.4062 20.3281 58.9062
Q16.5 51.4219 16.5 36.375
Q16.5 21.3906 20.3281 13.8906
Q24.1719 6.39062 31.7812 6.39062
Q39.4531 6.39062 43.2812 13.8906
Q47.125 21.3906 47.125 36.375
Q47.125 51.4219 43.2812 58.9062
Q39.4531 66.4062 31.7812 66.4062
M31.7812 74.2188
Q44.0469 74.2188 50.5156 64.5156
Q56.9844 54.8281 56.9844 36.375
Q56.9844 17.9688 50.5156 8.26562
Q44.0469 -1.42188 31.7812 -1.42188
Q19.5312 -1.42188 13.0625 8.26562
Q6.59375 17.9688 6.59375 36.375
Q6.59375 54.8281 13.0625 64.5156
Q19.5312 74.2188 31.7812 74.2188" id="BitstreamVeraSans-Roman-30"/>
       <path d="
M12.4062 8.29688
L28.5156 8.29688
L28.5156 63.9219
L10.9844 60.4062
L10.9844 69.3906
L28.4219 72.9062
L38.2812 72.9062
L38.2812 8.29688
L54.3906 8.29688
L54.3906 0
L12.4062 0
z
" id="BitstreamVeraSans-Roman-31"/>
      </defs>
      <g transform="translate(275.204000683 301.565127355)scale(0.1 -0.1)">
       <use xlink:href="#BitstreamVeraSans-Roman-31"/>
       <use x="63.623046875" xlink:href="#BitstreamVeraSans-Roman-30"/>
      </g>
     </g>
    </g>
    <g id="xtick_3">
     <g id="line2d_4">
      <defs>
       <path d="
M0 0
L0 -4" id="m33a5312961"/>
      </defs>
      <g>
       <use style="stroke:#000000;stroke-linecap:butt;stroke-width:0.5;" x="405.016162652" xlink:href="#m33a5312961" y="290.143252355"/>
      </g>
     </g>
     <g id="text_3">
      <!-- 15 -->
      <g transform="translate(399.639600152 301.433877355)scale(0.1 -0.1)">
       <use xlink:href="#BitstreamVeraSans-Roman-31"/>
       <use x="63.623046875" xlink:href="#BitstreamVeraSans-Roman-35"/>
      </g>
     </g>
    </g>
    <g id="xtick_4">
     <g id="line2d_5">
      <defs>
       <path d="
M0 0
L0 -4" id="m33a5312961"/>
      </defs>
      <g>
       <use style="stroke:#000000;stroke-linecap:butt;stroke-width:0.5;" x="529.347074621" xlink:href="#m33a5312961" y="290.143252355"/>
      </g>
     </g>
     <g id="text_4">
      <!-- 20 -->
      <defs>
       <path d="
M19.1875 8.29688
L53.6094 8.29688
L53.6094 0
L7.32812 0
L7.32812 8.29688
Q12.9375 14.1094 22.625 23.8906
Q32.3281 33.6875 34.8125 36.5312
Q39.5469 41.8438 41.4219 45.5312
Q43.3125 49.2188 43.3125 52.7812
Q43.3125 58.5938 39.2344 62.25
Q35.1562 65.9219 28.6094 65.9219
Q23.9688 65.9219 18.8125 64.3125
Q13.6719 62.7031 7.8125 59.4219
L7.8125 69.3906
Q13.7656 71.7812 18.9375 73
Q24.125 74.2188 28.4219 74.2188
Q39.75 74.2188 46.4844 68.5469
Q53.2188 62.8906 53.2188 53.4219
Q53.2188 48.9219 51.5312 44.8906
Q49.8594 40.875 45.4062 35.4062
Q44.1875 33.9844 37.6406 27.2188
Q31.1094 20.4531 19.1875 8.29688" id="BitstreamVeraSans-Roman-32"/>
      </defs>
      <g transform="translate(523.683012121 301.565127355)scale(0.1 -0.1)">
       <use xlink:href="#BitstreamVeraSans-Roman-32"/>
       <use x="63.623046875" xlink:href="#BitstreamVeraSans-Roman-30"/>
      </g>
     </g>
    </g>
    <g id="xtick_5">
     <g id="line2d_6">
      <defs>
       <path d="
M0 0
L0 -2" id="m898de3ae3f"/>
      </defs>
      <g>
       <use style="stroke:#000000;stroke-linecap:butt;stroke-width:0.5;" x="56.8896091378" xlink:href="#m898de3ae3f" y="290.143252355"/>
      </g>
     </g>
    </g>
    <g id="xtick_6">
     <g id="line2d_7">
      <defs>
       <path d="
M0 0
L0 -2" id="m898de3ae3f"/>
      </defs>
      <g>
       <use style="stroke:#000000;stroke-linecap:butt;stroke-width:0.5;" x="81.7557915317" xlink:href="#m898de3ae3f" y="290.143252355"/>
      </g>
     </g>
    </g>
    <g id="xtick_7">
     <g id="line2d_8">
      <defs>
       <path d="
M0 0
L0 -2" id="m898de3ae3f"/>
      </defs>
      <g>
       <use style="stroke:#000000;stroke-linecap:butt;stroke-width:0.5;" x="106.621973926" xlink:href="#m898de3ae3f" y="290.143252355"/>
      </g>
     </g>
    </g>
    <g id="xtick_8">
     <g id="line2d_9">
      <defs>
       <path d="
M0 0
L0 -2" id="m898de3ae3f"/>
      </defs>
      <g>
       <use style="stroke:#000000;stroke-linecap:butt;stroke-width:0.5;" x="131.488156319" xlink:href="#m898de3ae3f" y="290.143252355"/>
      </g>
     </g>
    </g>
    <g id="xtick_9">
     <g id="line2d_10">
      <defs>
       <path d="
M0 0
L0 -2" id="m898de3ae3f"/>
      </defs>
      <g>
       <use style="stroke:#000000;stroke-linecap:butt;stroke-width:0.5;" x="181.220521107" xlink:href="#m898de3ae3f" y="290.143252355"/>
      </g>
     </g>
    </g>
    <g id="xtick_10">
     <g id="line2d_11">
      <defs>
       <path d="
M0 0
L0 -2" id="m898de3ae3f"/>
      </defs>
      <g>
       <use style="stroke:#000000;stroke-linecap:butt;stroke-width:0.5;" x="206.086703501" xlink:href="#m898de3ae3f" y="290.143252355"/>
      </g>
     </g>
    </g>
    <g id="xtick_11">
     <g id="line2d_12">
      <defs>
       <path d="
M0 0
L0 -2" id="m898de3ae3f"/>
      </defs>
      <g>
       <use style="stroke:#000000;stroke-linecap:butt;stroke-width:0.5;" x="230.952885895" xlink:href="#m898de3ae3f" y="290.143252355"/>
      </g>
     </g>
    </g>
    <g id="xtick_12">
     <g id="line2d_13">
      <defs>
       <path d="
M0 0
L0 -2" id="m898de3ae3f"/>
      </defs>
      <g>
       <use style="stroke:#000000;stroke-linecap:butt;stroke-width:0.5;" x="255.819068289" xlink:href="#m898de3ae3f" y="290.143252355"/>
      </g>
     </g>
    </g>
    <g id="xtick_13">
     <g id="line2d_14">
      <defs>
       <path d="
M0 0
L0 -2" id="m898de3ae3f"/>
      </defs>
      <g>
       <use style="stroke:#000000;stroke-linecap:butt;stroke-width:0.5;" x="305.551433077" xlink:href="#m898de3ae3f" y="290.143252355"/>
      </g>
     </g>
    </g>
    <g id="xtick_14">
     <g id="line2d_15">
      <defs>
       <path d="
M0 0
L0 -2" id="m898de3ae3f"/>
      </defs>
      <g>
       <use style="stroke:#000000;stroke-linecap:butt;stroke-width:0.5;" x="330.41761547" xlink:href="#m898de3ae3f" y="290.143252355"/>
      </g>
     </g>
    </g>
    <g id="xtick_15">
     <g id="line2d_16">
      <defs>
       <path d="
M0 0
L0 -2" id="m898de3ae3f"/>
      </defs>
      <g>
       <use style="stroke:#000000;stroke-linecap:butt;stroke-width:0.5;" x="355.283797864" xlink:href="#m898de3ae3f" y="290.143252355"/>
      </g>
     </g>
    </g>
    <g id="xtick_16">
     <g id="line2d_17">
      <defs>
       <path d="
M0 0
L0 -2" id="m898de3ae3f"/>
      </defs>
      <g>
       <use style="stroke:#000000;stroke-linecap:butt;stroke-width:0.5;" x="380.149980258" xlink:href="#m898de3ae3f" y="290.143252355"/>
      </g>
     </g>
    </g>
    <g id="xtick_17">
     <g id="line2d_18">
      <defs>
       <path d="
M0 0
L0 -2" id="m898de3ae3f"/>
      </defs>
      <g>
       <use style="stroke:#000000;stroke-linecap:butt;stroke-width:0.5;" x="429.882345046" xlink:href="#m898de3ae3f" y="290.143252355"/>
      </g>
     </g>
    </g>
    <g id="xtick_18">
     <g id="line2d_19">
      <defs>
       <path d="
M0 0
L0 -2" id="m898de3ae3f"/>
      </defs>
      <g>
       <use style="stroke:#000000;stroke-linecap:butt;stroke-width:0.5;" x="454.74852744" xlink:href="#m898de3ae3f" y="290.143252355"/>
      </g>
     </g>
    </g>
    <g id="xtick_19">
     <g id="line2d_20">
      <defs>
       <path d="
M0 0
L0 -2" id="m898de3ae3f"/>
      </defs>
      <g>
       <use style="stroke:#000000;stroke-linecap:butt;stroke-width:0.5;" x="479.614709834" xlink:href="#m898de3ae3f" y="290.143252355"/>
      </g>
     </g>
    </g>
    <g id="xtick_20">
     <g id="line2d_21">
      <defs>
       <path d="
M0 0
L0 -2" id="m898de3ae3f"/>
      </defs>
      <g>
       <use style="stroke:#000000;stroke-linecap:butt;stroke-width:0.5;" x="504.480892228" xlink:href="#m898de3ae3f" y="290.143252355"/>
      </g>
     </g>
    </g>
   </g>
   <g id="matplotlib.axis_2">
    <g id="ytick_1">
     <g id="line2d_22">
      <defs>
       <path d="
M0 0
L4 0" id="m4a74af4d7d"/>
      </defs>
      <g>
       <use style="stroke:#000000;stroke-linecap:butt;stroke-width:0.5;" x="29.2984375" xlink:href="#m4a74af4d7d" y="363.201310579"/>
      </g>
     </g>
     <g id="text_5">
      <!-- -0.1 -->
      <defs>
       <path d="
M10.6875 12.4062
L21 12.4062
L21 0
L10.6875 0
z
" id="BitstreamVeraSans-Roman-2e"/>
       <path d="
M4.89062 31.3906
L31.2031 31.3906
L31.2031 23.3906
L4.89062 23.3906
z
" id="BitstreamVeraSans-Roman-2d"/>
      </defs>
      <g transform="translate(7.2 366.841154329)scale(0.1 -0.1)">
       <use xlink:href="#BitstreamVeraSans-Roman-2d"/>
       <use x="36.083984375" xlink:href="#BitstreamVeraSans-Roman-30"/>
       <use x="99.70703125" xlink:href="#BitstreamVeraSans-Roman-2e"/>
       <use x="131.494140625" xlink:href="#BitstreamVeraSans-Roman-31"/>
      </g>
     </g>
    </g>
    <g id="ytick_2">
     <g id="line2d_23">
      <defs>
       <path d="
M0 0
L4 0" id="m4a74af4d7d"/>
      </defs>
      <g>
       <use style="stroke:#000000;stroke-linecap:butt;stroke-width:0.5;" x="29.2984375" xlink:href="#m4a74af4d7d" y="290.143252355"/>
      </g>
     </g>
     <g id="text_6">
      <!-- 0 -->
      <g transform="translate(20.259375 293.783096105)scale(0.1 -0.1)">
       <use xlink:href="#BitstreamVeraSans-Roman-30"/>
      </g>
     </g>
    </g>
    <g id="ytick_3">
     <g id="line2d_24">
      <defs>
       <path d="
M0 0
L4 0" id="m4a74af4d7d"/>
      </defs>
      <g>
       <use style="stroke:#000000;stroke-linecap:butt;stroke-width:0.5;" x="29.2984375" xlink:href="#m4a74af4d7d" y="217.085194131"/>
      </g>
     </g>
     <g id="text_7">
      <!-- 0.1 -->
      <g transform="translate(10.978125 220.725037881)scale(0.1 -0.1)">
       <use xlink:href="#BitstreamVeraSans-Roman-30"/>
       <use x="63.623046875" xlink:href="#BitstreamVeraSans-Roman-2e"/>
       <use x="95.41015625" xlink:href="#BitstreamVeraSans-Roman-31"/>
      </g>
     </g>
    </g>
    <g id="ytick_4">
     <g id="line2d_25">
      <defs>
       <path d="
M0 0
L4 0" id="m4a74af4d7d"/>
      </defs>
      <g>
       <use style="stroke:#000000;stroke-linecap:butt;stroke-width:0.5;" x="29.2984375" xlink:href="#m4a74af4d7d" y="144.027135908"/>
      </g>
     </g>
     <g id="text_8">
      <!-- 0.2 -->
      <g transform="translate(11.05625 147.666979658)scale(0.1 -0.1)">
       <use xlink:href="#BitstreamVeraSans-Roman-30"/>
       <use x="63.623046875" xlink:href="#BitstreamVeraSans-Roman-2e"/>
       <use x="95.41015625" xlink:href="#BitstreamVeraSans-Roman-32"/>
      </g>
     </g>
    </g>
    <g id="ytick_5">
     <g id="line2d_26">
      <defs>
       <path d="
M0 0
L4 0" id="m4a74af4d7d"/>
      </defs>
      <g>
       <use style="stroke:#000000;stroke-linecap:butt;stroke-width:0.5;" x="29.2984375" xlink:href="#m4a74af4d7d" y="70.9690776841"/>
      </g>
     </g>
     <g id="text_9">
      <!-- 0.3 -->
      <defs>
       <path d="
M40.5781 39.3125
Q47.6562 37.7969 51.625 33
Q55.6094 28.2188 55.6094 21.1875
Q55.6094 10.4062 48.1875 4.48438
Q40.7656 -1.42188 27.0938 -1.42188
Q22.5156 -1.42188 17.6562 -0.515625
Q12.7969 0.390625 7.625 2.20312
L7.625 11.7188
Q11.7188 9.32812 16.5938 8.10938
Q21.4844 6.89062 26.8125 6.89062
Q36.0781 6.89062 40.9375 10.5469
Q45.7969 14.2031 45.7969 21.1875
Q45.7969 27.6406 41.2812 31.2656
Q36.7656 34.9062 28.7188 34.9062
L20.2188 34.9062
L20.2188 43.0156
L29.1094 43.0156
Q36.375 43.0156 40.2344 45.9219
Q44.0938 48.8281 44.0938 54.2969
Q44.0938 59.9062 40.1094 62.9062
Q36.1406 65.9219 28.7188 65.9219
Q24.6562 65.9219 20.0156 65.0312
Q15.375 64.1562 9.8125 62.3125
L9.8125 71.0938
Q15.4375 72.6562 20.3438 73.4375
Q25.25 74.2188 29.5938 74.2188
Q40.8281 74.2188 47.3594 69.1094
Q53.9062 64.0156 53.9062 55.3281
Q53.9062 49.2656 50.4375 45.0938
Q46.9688 40.9219 40.5781 39.3125" id="BitstreamVeraSans-Roman-33"/>
      </defs>
      <g transform="translate(10.85625 74.6089214341)scale(0.1 -0.1)">
       <use xlink:href="#BitstreamVeraSans-Roman-30"/>
       <use x="63.623046875" xlink:href="#BitstreamVeraSans-Roman-2e"/>
       <use x="95.41015625" xlink:href="#BitstreamVeraSans-Roman-33"/>
      </g>
     </g>
    </g>
    <g id="ytick_6">
     <g id="line2d_27">
      <defs>
       <path d="
M0 0
L2 0" id="m2c12bff9bb"/>
      </defs>
      <g>
       <use style="stroke:#000000;stroke-linecap:butt;stroke-width:0.5;" x="29.2984375" xlink:href="#m2c12bff9bb" y="407.036145513"/>
      </g>
     </g>
    </g>
    <g id="ytick_7">
     <g id="line2d_28">
      <defs>
       <path d="
M0 0
L2 0" id="m2c12bff9bb"/>
      </defs>
      <g>
       <use style="stroke:#000000;stroke-linecap:butt;stroke-width:0.5;" x="29.2984375" xlink:href="#m2c12bff9bb" y="392.424533868"/>
      </g>
     </g>
    </g>
    <g id="ytick_8">
     <g id="line2d_29">
      <defs>
       <path d="
M0 0
L2 0" id="m2c12bff9bb"/>
      </defs>
      <g>
       <use style="stroke:#000000;stroke-linecap:butt;stroke-width:0.5;" x="29.2984375" xlink:href="#m2c12bff9bb" y="377.812922223"/>
      </g>
     </g>
    </g>
    <g id="ytick_9">
     <g id="line2d_30">
      <defs>
       <path d="
M0 0
L2 0" id="m2c12bff9bb"/>
      </defs>
      <g>
       <use style="stroke:#000000;stroke-linecap:butt;stroke-width:0.5;" x="29.2984375" xlink:href="#m2c12bff9bb" y="363.201310579"/>
      </g>
     </g>
    </g>
    <g id="ytick_10">
     <g id="line2d_31">
      <defs>
       <path d="
M0 0
L2 0" id="m2c12bff9bb"/>
      </defs>
      <g>
       <use style="stroke:#000000;stroke-linecap:butt;stroke-width:0.5;" x="29.2984375" xlink:href="#m2c12bff9bb" y="348.589698934"/>
      </g>
     </g>
    </g>
    <g id="ytick_11">
     <g id="line2d_32">
      <defs>
       <path d="
M0 0
L2 0" id="m2c12bff9bb"/>
      </defs>
      <g>
       <use style="stroke:#000000;stroke-linecap:butt;stroke-width:0.5;" x="29.2984375" xlink:href="#m2c12bff9bb" y="333.978087289"/>
      </g>
     </g>
    </g>
    <g id="ytick_12">
     <g id="line2d_33">
      <defs>
       <path d="
M0 0
L2 0" id="m2c12bff9bb"/>
      </defs>
      <g>
       <use style="stroke:#000000;stroke-linecap:butt;stroke-width:0.5;" x="29.2984375" xlink:href="#m2c12bff9bb" y="319.366475645"/>
      </g>
     </g>
    </g>
    <g id="ytick_13">
     <g id="line2d_34">
      <defs>
       <path d="
M0 0
L2 0" id="m2c12bff9bb"/>
      </defs>
      <g>
       <use style="stroke:#000000;stroke-linecap:butt;stroke-width:0.5;" x="29.2984375" xlink:href="#m2c12bff9bb" y="304.754864"/>
      </g>
     </g>
    </g>
    <g id="ytick_14">
     <g id="line2d_35">
      <defs>
       <path d="
M0 0
L2 0" id="m2c12bff9bb"/>
      </defs>
      <g>
       <use style="stroke:#000000;stroke-linecap:butt;stroke-width:0.5;" x="29.2984375" xlink:href="#m2c12bff9bb" y="290.143252355"/>
      </g>
     </g>
    </g>
    <g id="ytick_15">
     <g id="line2d_36">
      <defs>
       <path d="
M0 0
L2 0" id="m2c12bff9bb"/>
      </defs>
      <g>
       <use style="stroke:#000000;stroke-linecap:butt;stroke-width:0.5;" x="29.2984375" xlink:href="#m2c12bff9bb" y="275.53164071"/>
      </g>
     </g>
    </g>
    <g id="ytick_16">
     <g id="line2d_37">
      <defs>
       <path d="
M0 0
L2 0" id="m2c12bff9bb"/>
      </defs>
      <g>
       <use style="stroke:#000000;stroke-linecap:butt;stroke-width:0.5;" x="29.2984375" xlink:href="#m2c12bff9bb" y="260.920029066"/>
      </g>
     </g>
    </g>
    <g id="ytick_17">
     <g id="line2d_38">
      <defs>
       <path d="
M0 0
L2 0" id="m2c12bff9bb"/>
      </defs>
      <g>
       <use style="stroke:#000000;stroke-linecap:butt;stroke-width:0.5;" x="29.2984375" xlink:href="#m2c12bff9bb" y="246.308417421"/>
      </g>
     </g>
    </g>
    <g id="ytick_18">
     <g id="line2d_39">
      <defs>
       <path d="
M0 0
L2 0" id="m2c12bff9bb"/>
      </defs>
      <g>
       <use style="stroke:#000000;stroke-linecap:butt;stroke-width:0.5;" x="29.2984375" xlink:href="#m2c12bff9bb" y="231.696805776"/>
      </g>
     </g>
    </g>
    <g id="ytick_19">
     <g id="line2d_40">
      <defs>
       <path d="
M0 0
L2 0" id="m2c12bff9bb"/>
      </defs>
      <g>
       <use style="stroke:#000000;stroke-linecap:butt;stroke-width:0.5;" x="29.2984375" xlink:href="#m2c12bff9bb" y="217.085194131"/>
      </g>
     </g>
    </g>
    <g id="ytick_20">
     <g id="line2d_41">
      <defs>
       <path d="
M0 0
L2 0" id="m2c12bff9bb"/>
      </defs>
      <g>
       <use style="stroke:#000000;stroke-linecap:butt;stroke-width:0.5;" x="29.2984375" xlink:href="#m2c12bff9bb" y="202.473582487"/>
      </g>
     </g>
    </g>
    <g id="ytick_21">
     <g id="line2d_42">
      <defs>
       <path d="
M0 0
L2 0" id="m2c12bff9bb"/>
      </defs>
      <g>
       <use style="stroke:#000000;stroke-linecap:butt;stroke-width:0.5;" x="29.2984375" xlink:href="#m2c12bff9bb" y="187.861970842"/>
      </g>
     </g>
    </g>
    <g id="ytick_22">
     <g id="line2d_43">
      <defs>
       <path d="
M0 0
L2 0" id="m2c12bff9bb"/>
      </defs>
      <g>
       <use style="stroke:#000000;stroke-linecap:butt;stroke-width:0.5;" x="29.2984375" xlink:href="#m2c12bff9bb" y="173.250359197"/>
      </g>
     </g>
    </g>
    <g id="ytick_23">
     <g id="line2d_44">
      <defs>
       <path d="
M0 0
L2 0" id="m2c12bff9bb"/>
      </defs>
      <g>
       <use style="stroke:#000000;stroke-linecap:butt;stroke-width:0.5;" x="29.2984375" xlink:href="#m2c12bff9bb" y="158.638747552"/>
      </g>
     </g>
    </g>
    <g id="ytick_24">
     <g id="line2d_45">
      <defs>
       <path d="
M0 0
L2 0" id="m2c12bff9bb"/>
      </defs>
      <g>
       <use style="stroke:#000000;stroke-linecap:butt;stroke-width:0.5;" x="29.2984375" xlink:href="#m2c12bff9bb" y="144.027135908"/>
      </g>
     </g>
    </g>
    <g id="ytick_25">
     <g id="line2d_46">
      <defs>
       <path d="
M0 0
L2 0" id="m2c12bff9bb"/>
      </defs>
      <g>
       <use style="stroke:#000000;stroke-linecap:butt;stroke-width:0.5;" x="29.2984375" xlink:href="#m2c12bff9bb" y="129.415524263"/>
      </g>
     </g>
    </g>
    <g id="ytick_26">
     <g id="line2d_47">
      <defs>
       <path d="
M0 0
L2 0" id="m2c12bff9bb"/>
      </defs>
      <g>
       <use style="stroke:#000000;stroke-linecap:butt;stroke-width:0.5;" x="29.2984375" xlink:href="#m2c12bff9bb" y="114.803912618"/>
      </g>
     </g>
    </g>
    <g id="ytick_27">
     <g id="line2d_48">
      <defs>
       <path d="
M0 0
L2 0" id="m2c12bff9bb"/>
      </defs>
      <g>
       <use style="stroke:#000000;stroke-linecap:butt;stroke-width:0.5;" x="29.2984375" xlink:href="#m2c12bff9bb" y="100.192300974"/>
      </g>
     </g>
    </g>
    <g id="ytick_28">
     <g id="line2d_49">
      <defs>
       <path d="
M0 0
L2 0" id="m2c12bff9bb"/>
      </defs>
      <g>
       <use style="stroke:#000000;stroke-linecap:butt;stroke-width:0.5;" x="29.2984375" xlink:href="#m2c12bff9bb" y="85.5806893288"/>
      </g>
     </g>
    </g>
    <g id="ytick_29">
     <g id="line2d_50">
      <defs>
       <path d="
M0 0
L2 0" id="m2c12bff9bb"/>
      </defs>
      <g>
       <use style="stroke:#000000;stroke-linecap:butt;stroke-width:0.5;" x="29.2984375" xlink:href="#m2c12bff9bb" y="70.9690776841"/>
      </g>
     </g>
    </g>
    <g id="ytick_30">
     <g id="line2d_51">
      <defs>
       <path d="
M0 0
L2 0" id="m2c12bff9bb"/>
      </defs>
      <g>
       <use style="stroke:#000000;stroke-linecap:butt;stroke-width:0.5;" x="29.2984375" xlink:href="#m2c12bff9bb" y="56.3574660394"/>
      </g>
     </g>
    </g>
    <g id="ytick_31">
     <g id="line2d_52">
      <defs>
       <path d="
M0 0
L2 0" id="m2c12bff9bb"/>
      </defs>
      <g>
       <use style="stroke:#000000;stroke-linecap:butt;stroke-width:0.5;" x="29.2984375" xlink:href="#m2c12bff9bb" y="41.7458543946"/>
      </g>
     </g>
    </g>
    <g id="ytick_32">
     <g id="line2d_53">
      <defs>
       <path d="
M0 0
L2 0" id="m2c12bff9bb"/>
      </defs>
      <g>
       <use style="stroke:#000000;stroke-linecap:butt;stroke-width:0.5;" x="29.2984375" xlink:href="#m2c12bff9bb" y="27.1342427499"/>
      </g>
     </g>
    </g>
   </g>
   <g id="patch_3">
    <path d="
M39.2984 290.143
L557.266 290.143" style="fill:none;stroke:#000000;stroke-width:0.8;"/>
   </g>
   <g id="patch_4">
    <path d="
M29.2984 413.28
L29.2984 7.2" style="fill:none;stroke:#000000;stroke-width:0.8;"/>
   </g>
  </g>
 </g>
 <defs>
  <clipPath id="pbda54c63f9">
   <rect height="406.08" width="517.9675" x="39.2984375" y="7.2"/>
  </clipPath>
 </defs>
</svg>
