<?xml version="1.0" encoding="utf-8" standalone="no"?>
<!DOCTYPE svg PUBLIC "-//W3C//DTD SVG 1.1//EN"
  "http://www.w3.org/Graphics/SVG/1.1/DTD/svg11.dtd">
<!-- Created with matplotlib (http://matplotlib.sourceforge.net/) -->
<svg height="420pt" version="1.1" viewBox="0 0 564 420" width="564pt" xmlns="http://www.w3.org/2000/svg" xmlns:xlink="http://www.w3.org/1999/xlink">
 <defs>
  <style type="text/css">
*{stroke-linecap:square;stroke-linejoin:round;}
  </style>
 </defs>
 <g id="figure_1">
  <g id="patch_1">
   <path d="
M-4.44089e-16 420.48
L564.466 420.48
L564.466 0
L-4.44089e-16 0
z
" style="fill:#ffffff;"/>
  </g>
  <g id="axes_1">
   <g id="patch_2">
    <path d="
M39.2984 413.28
L557.266 413.28
L557.266 7.2
L39.2984 7.2
z
" style="fill:#ffffff;"/>
   </g>
   <g id="line2d_1">
    <path clip-path="url(#pbda54c63f9)" d="
M49.2594 401.071
L50.4961 362.29
L51.7328 330.319
L52.9696 303.789
L54.2578 280.817
L55.5461 261.708
L56.8344 245.754
L58.1227 232.4
L59.4109 219.93
L61.0599 179.756
L62.7089 145
L64.4094 113.861
L66.1099 86.7015
L67.862 62.2069
L69.6656 40.1012
L71.4691 20.6591
L72.0875 15.0092
L74.0972 17.8113
L76.6222 21.7658
L79.7656 27.1218
L80.384 28.2167
L80.5386 30.4918
L83.0121 71.7992
L85.6401 112.019
L87.0315 130.813
L89.7626 159.595
L91.9784 182.933
L94.7611 221.492
L96.204 241.971
L99.0382 288.097
L101.924 331.454
L102.903 344.03
L105.325 369.3
L108.417 391.102
L110.066 401.735
L112.075 405.168
L113.982 402.208
L115.734 405.471
L115.786 405.389
L119.238 392.64
L121.815 383.859
L124.494 394.136
L125.577 393.934
L127.792 385.59
L128.978 386.808
L130.781 389.367
L133.409 385.123
L136.81 359.82
L138.305 342.573
L138.975 333.888
L140.933 315.987
L143.252 301.474
L144.849 292.099
L146.91 279.253
L147.992 271.545
L150.414 254.579
L151.651 245.345
L152.527 236.807
L154.176 215.589
L154.846 208.704
L156.65 195.082
L157.474 190.91
L157.886 189.218
L159.329 186.346
L159.381 186.4
L159.638 186.574
L160.154 186.19
L160.205 186.267
L161.287 188.804
L162.782 194.064
L163.555 197.828
L164.328 200.699
L165.255 204.597
L167.162 216.395
L167.677 217.465
L168.244 217.8
L169.79 222.978
L170.254 225.66
L171.13 230.778
L172.16 236.429
L172.47 237.468
L173.088 238.78
L173.346 238.95
L174.479 238.576
L174.789 238.094
L174.84 238.125
L175.046 238.373
L175.561 238.966
L176.386 239.657
L176.798 239.512
L177.726 238.424
L177.983 238.63
L178.705 239.684
L179.066 240.071
L179.478 240.775
L180.508 243.153
L181.333 245.853
L182.467 251.418
L183.343 255.736
L183.909 257.041
L184.837 257.287
L185.404 258.235
L186.074 259.562
L186.641 261.612
L187.053 263.069
L187.774 264.703
L188.135 264.842
L188.547 264.889
L188.856 265.544
L190.042 269.421
L190.66 271.021
L191.175 273.461
L192.361 282.015
L193.906 295.898
L196.741 324.979
L197.359 328.778
L197.771 330.062
L198.184 331.566
L199.317 336.949
L199.936 340.394
L200.296 343.245
L200.863 347.421
L201.842 351.271
L202.203 352.552
L203.337 357.746
L203.8 359.164
L204.573 360.533
L204.883 361.072
L205.14 361.187
L205.346 361.25
L205.604 361.543
L205.965 361.859
L206.738 363.225
L206.995 363.376
L207.356 363.384
L207.665 362.758
L209.005 359.32
L209.933 357.351
L210.912 354
L213.282 345.158
L213.694 343.972
L214.983 339.194
L215.446 338.156
L215.91 337.351
L216.425 335.781
L216.735 335.145
L217.868 332.317
L218.177 332.041
L218.796 332.519
L219.569 332.159
L219.93 331.706
L220.445 330.491
L220.909 329.436
L222.042 325.534
L222.403 325.307
L222.918 325.243
L223.124 325.322
L224 325.771
L224.207 325.628
L224.67 324.864
L225.237 324.69
L225.598 324.836
L226.216 324.632
L226.422 324.37
L227.092 322.743
L227.865 319.126
L229.72 308.43
L230.957 301.072
L234.977 281.095
L235.595 278.951
L236.162 277.09
L236.986 275.033
L237.656 273.678
L238.738 270.867
L239.047 270.27
L239.46 269.413
L240.903 266.239
L241.985 262.335
L242.552 259.53
L243.067 257.048
L243.788 253.498
L244.664 250.378
L244.87 250.367
L245.128 250.376
L245.695 250.333
L246.571 249.488
L246.88 249.72
L247.808 251.895
L248.22 252.769
L248.89 253.304
L249.096 253.262
L249.251 253.403
L249.611 254.101
L249.972 254.355
L250.23 254.387
L250.487 254.524
L250.797 254.399
L251.466 253.892
L251.827 253.598
L252.136 252.969
L253.373 248.66
L254.352 244.385
L255.383 239.771
L256.104 236.106
L256.723 234.729
L258.114 232.439
L258.372 232.037
L259.196 230.001
L259.608 228.254
L260.381 225.357
L260.639 225.134
L261.051 225.306
L261.824 225.892
L262.958 228.479
L263.679 232.241
L265.122 240.905
L265.637 243.112
L269.141 256.023
L270.945 260.365
L271.203 260.698
L271.615 261.55
L272.233 263.162
L272.646 264.523
L273.212 267.146
L274.14 271.239
L274.604 273.467
L275.48 279.323
L276.253 285.084
L276.974 288.767
L278.623 295.454
L279.551 298.536
L280.375 301.844
L282.643 308.477
L283.416 310.206
L283.931 311.609
L284.549 312.708
L285.992 314.827
L286.765 315.252
L286.971 315.232
L287.744 314.29
L288.208 313.531
L288.466 313.471
L288.672 313.124
L289.084 311.867
L289.445 310.99
L290.166 309.933
L290.372 310.012
L290.939 310.596
L291.094 310.712
L291.609 311.232
L292.124 311.515
L292.536 311.87
L292.897 312.101
L294.598 315.045
L294.804 315.063
L295.216 314.917
L295.474 315.284
L296.401 316.822
L297.174 317.373
L297.638 318.066
L298.256 319.383
L299.184 321.638
L299.442 321.944
L299.957 322.963
L300.575 323.813
L300.936 324.802
L302.276 328.776
L302.997 331.453
L303.306 331.735
L303.513 331.999
L303.822 332.306
L304.646 332.422
L305.007 332.521
L305.213 332.526
L305.574 332.367
L305.78 332.405
L306.45 332.68
L306.656 332.59
L307.171 332.101
L307.532 331.628
L308.15 330.785
L308.408 330.258
L309.593 327.264
L309.954 326.903
L310.16 326.881
L310.933 327.007
L311.088 326.897
L311.551 326.119
L312.221 324.144
L312.737 323.309
L313.046 322.69
L313.51 320.905
L314.179 318.692
L314.489 317.795
L315.622 313.358
L317.065 308.872
L317.787 307.751
L318.147 307.277
L318.92 306.349
L319.384 305.259
L320.157 303.139
L321.188 300.145
L321.754 296.934
L322.631 292.31
L323.146 290.563
L324.073 288.33
L325.671 282.247
L329.639 267.036
L330.824 263.451
L332.061 260.759
L332.627 259.697
L333.813 256.127
L334.895 255.313
L335.101 255.244
L335.462 255.215
L336.132 255.476
L336.853 256.146
L337.265 256.136
L337.626 256.403
L337.935 256.838
L338.399 257.383
L338.863 257.539
L339.12 257.426
L339.43 257.2
L339.996 257.23
L340.306 257.447
L340.563 257.533
L341.336 258.3
L341.748 258.671
L342.006 258.673
L342.47 258.375
L343.346 257.403
L344.273 257.748
L344.531 257.808
L345.304 258.436
L345.922 259.178
L346.283 259.527
L347.005 259.996
L347.262 259.9
L348.087 259.106
L348.293 258.718
L348.654 258.098
L349.272 257.864
L349.53 257.707
L350.045 257.856
L350.972 258.31
L351.488 258.464
L352.209 258.986
L352.518 258.948
L352.776 258.691
L353.601 257.717
L354.631 256.62
L355.146 256.711
L355.456 256.949
L355.662 257.023
L356.899 258.639
L357.723 259.643
L358.341 260.518
L358.702 260.755
L359.217 261.572
L360.66 265.407
L360.969 265.646
L361.176 265.772
L361.588 266.27
L361.949 266.869
L363.855 269.377
L364.834 271.673
L365.71 274.606
L366.174 276.128
L367.875 283.781
L368.596 287.116
L370.915 295.48
L371.842 296.907
L372.152 297.121
L372.512 296.869
L373.028 296.442
L373.234 296.431
L373.646 296.753
L374.934 298.487
L375.553 299.707
L376.223 300.587
L376.583 301.528
L378.541 306.764
L378.954 308.022
L381.633 313.608
L382.715 315.943
L383.798 318.102
L384.107 318.662
L385.189 319.004
L385.498 318.886
L385.962 318.426
L386.271 318.418
L386.993 319.339
L387.662 320.509
L388.126 320.904
L388.951 321.914
L389.363 322.163
L389.672 322.427
L390.703 322.513
L391.373 323.031
L391.836 322.779
L392.249 322.368
L393.279 321.138
L395.392 317.404
L395.701 317.342
L396.114 317.236
L396.423 317.21
L396.732 317.163
L396.99 316.995
L398.535 315.293
L398.742 314.991
L399.36 313.804
L399.875 312.404
L401.215 308.826
L401.576 308.223
L402.349 307.737
L403.431 307.432
L403.74 307.201
L405.183 304.809
L405.904 302.357
L408.069 294.011
L408.842 290.947
L409.924 287.766
L410.439 287.039
L411.573 286.123
L412.14 286.115
L412.758 286.441
L412.913 286.243
L413.273 285.695
L413.634 285.47
L413.84 285.517
L415.128 286.179
L415.695 286.185
L417.344 287.518
L417.55 287.397
L417.911 287.13
L418.684 287.141
L418.993 286.89
L419.457 286.53
L419.715 286.554
L420.281 286.61
L420.488 286.468
L420.797 286.118
L421.57 284.759
L422.034 284.263
L422.291 283.928
L423.064 282.092
L423.683 280.284
L424.455 277.309
L425.898 272.282
L426.826 269.28
L428.526 263.513
L429.196 262.029
L430.33 259.63
L430.794 258.173
L431.464 256.151
L432.34 253.874
L432.752 253.538
L433.628 253.273
L434.04 252.896
L435.071 251.389
L435.586 250.532
L436.05 250.188
L437.029 250.516
L437.493 250.995
L437.905 251.491
L438.575 252.538
L438.987 253.049
L439.451 253.938
L440.945 257.141
L441.358 257.73
L441.924 258.789
L442.749 260.999
L443.625 263.203
L443.934 264.03
L446.253 271.371
L447.387 273.219
L448.314 274.428
L449.19 276.027
L449.912 276.836
L450.891 278.26
L451.406 279.161
L452.437 280.052
L453.467 281.32
L454.292 282.392
L456.405 285.074
L457.281 286.531
L459.084 290.537
L460.991 292.292
L461.352 292.622
L462.794 293.426
L463.516 293.545
L463.877 293.518
L464.083 293.568
L464.495 293.754
L464.701 293.796
L465.732 294.098
L465.938 294.156
L466.968 294.757
L467.226 295.354
L467.844 296.946
L468.514 297.92
L468.72 298.088
L470.112 300.677
L470.936 303.196
L471.606 305.195
L473.152 308.618
L474.904 311.035
L475.523 312.444
L475.935 313.041
L476.553 313.308
L477.584 312.661
L478.821 311.048
L479.078 311.054
L479.439 310.953
L479.748 310.929
L480.006 311.151
L480.418 311.247
L480.624 311.327
L481.191 312.062
L481.552 312.496
L482.737 313.347
L483.046 313.587
L483.819 313.856
L484.231 313.985
L484.489 313.99
L484.695 314.063
L485.004 314.147
L485.262 314.168
L485.674 314.256
L486.344 314.159
L486.859 313.794
L487.993 313.067
L488.869 312.076
L489.281 311.605
L489.59 311.427
L489.848 311.424
L490.054 311.446
L490.466 311.211
L490.776 310.725
L491.239 310.014
L492.219 308.545
L494.383 302.811
L495.31 301.728
L495.774 301.549
L496.083 301.262
L498.402 297.496
L499.278 295.881
L501.185 293.55
L502.164 292.992
L502.937 291.884
L503.401 290.989
L504.328 288.167
L506.905 279.865
L508.348 276.872
L509.739 273.877
L510.615 273.129
L510.924 272.907
L511.336 272.535
L511.903 272.348
L512.161 272.277
L513.862 270.853
L514.841 269.842
L515.407 269.462
L515.717 269.3
L515.974 269.232
L516.747 268.886
L517.263 268.801
L517.623 268.892
L517.984 268.827
L519.221 269.609
L519.478 269.633
L519.891 269.731
L520.148 269.878
L520.664 270.195
L521.9 270.468
L523.137 270.227
L523.549 270.15
L523.91 270.107
L524.425 269.624
L525.765 268.311
L526.744 267.241
L527.311 266.333
L527.775 265.896
L528.239 265.772
L528.702 265.613
L528.96 265.719
L529.218 265.821
L529.733 265.696
L530.3 265.643
L530.815 265.836
L533.083 267.789
L533.34 267.949
L533.855 268.435
L534.783 269.394
L535.195 269.673
L536.947 270.46
L537.205 270.85
L537.772 271.902
L539.678 274.637
L540.091 275.086
L540.451 275.364
L541.327 275.435
L541.791 275.424
L542.461 275.77
L543.131 276.26
L543.492 276.776
L544.265 277.758
L545.605 279.391
L545.914 280.089
L546.532 281.278
L546.944 282.055
L547.305 282.663
L547.305 282.663" style="fill:none;stroke:#0000ff;"/>
   </g>
   <g id="matplotlib.axis_1">
    <g id="xtick_1">
     <g id="line2d_2">
      <defs>
       <path d="
M0 0
L0 -4" id="m44ed65d01f"/>
      </defs>
      <g>
       <use style="stroke:#000000;stroke-linecap:butt;stroke-width:0.5;" x="156.354338713" xlink:href="#m44ed65d01f" y="287.812035192"/>
      </g>
     </g>
     <g id="text_1">
      <!-- 5 -->
      <defs>
       <path d="
M10.7969 72.9062
L49.5156 72.9062
L49.5156 64.5938
L19.8281 64.5938
L19.8281 46.7344
Q21.9688 47.4688 24.1094 47.8281
Q26.2656 48.1875 28.4219 48.1875
Q40.625 48.1875 47.75 41.5
Q54.8906 34.8125 54.8906 23.3906
Q54.8906 11.625 47.5625 5.09375
Q40.2344 -1.42188 26.9062 -1.42188
Q22.3125 -1.42188 17.5469 -0.640625
Q12.7969 0.140625 7.71875 1.70312
L7.71875 11.625
Q12.1094 9.23438 16.7969 8.0625
Q21.4844 6.89062 26.7031 6.89062
Q35.1562 6.89062 40.0781 11.3281
Q45.0156 15.7656 45.0156 23.3906
Q45.0156 31 40.0781 35.4375
Q35.1562 39.8906 26.7031 39.8906
Q22.75 39.8906 18.8125 39.0156
Q14.8906 38.1406 10.7969 36.2812
z
" id="BitstreamVeraSans-Roman-35"/>
      </defs>
      <g transform="translate(153.995744963 299.102660192)scale(0.1 -0.1)">
       <use xlink:href="#BitstreamVeraSans-Roman-35"/>
      </g>
     </g>
    </g>
    <g id="xtick_2">
     <g id="line2d_3">
      <defs>
       <path d="
M0 0
L0 -4" id="m44ed65d01f"/>
      </defs>
      <g>
       <use style="stroke:#000000;stroke-linecap:butt;stroke-width:0.5;" x="280.685250683" xlink:href="#m44ed65d01f" y="287.812035192"/>
      </g>
     </g>
     <g id="text_2">
      <!-- 10 -->
      <defs>
       <path d="
M31.7812 66.4062
Q24.1719 66.4062 20.3281 58.9062
Q16.5 51.4219 16.5 36.375
Q16.5 21.3906 20.3281 13.8906
Q24.1719 6.39062 31.7812 6.39062
Q39.4531 6.39062 43.2812 13.8906
Q47.125 21.3906 47.125 36.375
Q47.125 51.4219 43.2812 58.9062
Q39.4531 66.4062 31.7812 66.4062
M31.7812 74.2188
Q44.0469 74.2188 50.5156 64.5156
Q56.9844 54.8281 56.9844 36.375
Q56.9844 17.9688 50.5156 8.26562
Q44.0469 -1.42188 31.7812 -1.42188
Q19.5312 -1.42188 13.0625 8.26562
Q6.59375 17.9688 6.59375 36.375
Q6.59375 54.8281 13.0625 64.5156
Q19.5312 74.2188 31.7812 74.2188" id="BitstreamVeraSans-Roman-30"/>
       <path d="
M12.4062 8.29688
L28.5156 8.29688
L28.5156 63.9219
L10.9844 60.4062
L10.9844 69.3906
L28.4219 72.9062
L38.2812 72.9062
L38.2812 8.29688
L54.3906 8.29688
L54.3906 0
L12.4062 0
z
" id="BitstreamVeraSans-Roman-31"/>
      </defs>
      <g transform="translate(275.204000683 299.233910192)scale(0.1 -0.1)">
       <use xlink:href="#BitstreamVeraSans-Roman-31"/>
       <use x="63.623046875" xlink:href="#BitstreamVeraSans-Roman-30"/>
      </g>
     </g>
    </g>
    <g id="xtick_3">
     <g id="line2d_4">
      <defs>
       <path d="
M0 0
L0 -4" id="m44ed65d01f"/>
      </defs>
      <g>
       <use style="stroke:#000000;stroke-linecap:butt;stroke-width:0.5;" x="405.016162652" xlink:href="#m44ed65d01f" y="287.812035192"/>
      </g>
     </g>
     <g id="text_3">
      <!-- 15 -->
      <g transform="translate(399.639600152 299.102660192)scale(0.1 -0.1)">
       <use xlink:href="#BitstreamVeraSans-Roman-31"/>
       <use x="63.623046875" xlink:href="#BitstreamVeraSans-Roman-35"/>
      </g>
     </g>
    </g>
    <g id="xtick_4">
     <g id="line2d_5">
      <defs>
       <path d="
M0 0
L0 -4" id="m44ed65d01f"/>
      </defs>
      <g>
       <use style="stroke:#000000;stroke-linecap:butt;stroke-width:0.5;" x="529.347074621" xlink:href="#m44ed65d01f" y="287.812035192"/>
      </g>
     </g>
     <g id="text_4">
      <!-- 20 -->
      <defs>
       <path d="
M19.1875 8.29688
L53.6094 8.29688
L53.6094 0
L7.32812 0
L7.32812 8.29688
Q12.9375 14.1094 22.625 23.8906
Q32.3281 33.6875 34.8125 36.5312
Q39.5469 41.8438 41.4219 45.5312
Q43.3125 49.2188 43.3125 52.7812
Q43.3125 58.5938 39.2344 62.25
Q35.1562 65.9219 28.6094 65.9219
Q23.9688 65.9219 18.8125 64.3125
Q13.6719 62.7031 7.8125 59.4219
L7.8125 69.3906
Q13.7656 71.7812 18.9375 73
Q24.125 74.2188 28.4219 74.2188
Q39.75 74.2188 46.4844 68.5469
Q53.2188 62.8906 53.2188 53.4219
Q53.2188 48.9219 51.5312 44.8906
Q49.8594 40.875 45.4062 35.4062
Q44.1875 33.9844 37.6406 27.2188
Q31.1094 20.4531 19.1875 8.29688" id="BitstreamVeraSans-Roman-32"/>
      </defs>
      <g transform="translate(523.683012121 299.233910192)scale(0.1 -0.1)">
       <use xlink:href="#BitstreamVeraSans-Roman-32"/>
       <use x="63.623046875" xlink:href="#BitstreamVeraSans-Roman-30"/>
      </g>
     </g>
    </g>
    <g id="xtick_5">
     <g id="line2d_6">
      <defs>
       <path d="
M0 0
L0 -2" id="m06dd23cfa9"/>
      </defs>
      <g>
       <use style="stroke:#000000;stroke-linecap:butt;stroke-width:0.5;" x="56.8896091378" xlink:href="#m06dd23cfa9" y="287.812035192"/>
      </g>
     </g>
    </g>
    <g id="xtick_6">
     <g id="line2d_7">
      <defs>
       <path d="
M0 0
L0 -2" id="m06dd23cfa9"/>
      </defs>
      <g>
       <use style="stroke:#000000;stroke-linecap:butt;stroke-width:0.5;" x="81.7557915317" xlink:href="#m06dd23cfa9" y="287.812035192"/>
      </g>
     </g>
    </g>
    <g id="xtick_7">
     <g id="line2d_8">
      <defs>
       <path d="
M0 0
L0 -2" id="m06dd23cfa9"/>
      </defs>
      <g>
       <use style="stroke:#000000;stroke-linecap:butt;stroke-width:0.5;" x="106.621973926" xlink:href="#m06dd23cfa9" y="287.812035192"/>
      </g>
     </g>
    </g>
    <g id="xtick_8">
     <g id="line2d_9">
      <defs>
       <path d="
M0 0
L0 -2" id="m06dd23cfa9"/>
      </defs>
      <g>
       <use style="stroke:#000000;stroke-linecap:butt;stroke-width:0.5;" x="131.488156319" xlink:href="#m06dd23cfa9" y="287.812035192"/>
      </g>
     </g>
    </g>
    <g id="xtick_9">
     <g id="line2d_10">
      <defs>
       <path d="
M0 0
L0 -2" id="m06dd23cfa9"/>
      </defs>
      <g>
       <use style="stroke:#000000;stroke-linecap:butt;stroke-width:0.5;" x="181.220521107" xlink:href="#m06dd23cfa9" y="287.812035192"/>
      </g>
     </g>
    </g>
    <g id="xtick_10">
     <g id="line2d_11">
      <defs>
       <path d="
M0 0
L0 -2" id="m06dd23cfa9"/>
      </defs>
      <g>
       <use style="stroke:#000000;stroke-linecap:butt;stroke-width:0.5;" x="206.086703501" xlink:href="#m06dd23cfa9" y="287.812035192"/>
      </g>
     </g>
    </g>
    <g id="xtick_11">
     <g id="line2d_12">
      <defs>
       <path d="
M0 0
L0 -2" id="m06dd23cfa9"/>
      </defs>
      <g>
       <use style="stroke:#000000;stroke-linecap:butt;stroke-width:0.5;" x="230.952885895" xlink:href="#m06dd23cfa9" y="287.812035192"/>
      </g>
     </g>
    </g>
    <g id="xtick_12">
     <g id="line2d_13">
      <defs>
       <path d="
M0 0
L0 -2" id="m06dd23cfa9"/>
      </defs>
      <g>
       <use style="stroke:#000000;stroke-linecap:butt;stroke-width:0.5;" x="255.819068289" xlink:href="#m06dd23cfa9" y="287.812035192"/>
      </g>
     </g>
    </g>
    <g id="xtick_13">
     <g id="line2d_14">
      <defs>
       <path d="
M0 0
L0 -2" id="m06dd23cfa9"/>
      </defs>
      <g>
       <use style="stroke:#000000;stroke-linecap:butt;stroke-width:0.5;" x="305.551433077" xlink:href="#m06dd23cfa9" y="287.812035192"/>
      </g>
     </g>
    </g>
    <g id="xtick_14">
     <g id="line2d_15">
      <defs>
       <path d="
M0 0
L0 -2" id="m06dd23cfa9"/>
      </defs>
      <g>
       <use style="stroke:#000000;stroke-linecap:butt;stroke-width:0.5;" x="330.41761547" xlink:href="#m06dd23cfa9" y="287.812035192"/>
      </g>
     </g>
    </g>
    <g id="xtick_15">
     <g id="line2d_16">
      <defs>
       <path d="
M0 0
L0 -2" id="m06dd23cfa9"/>
      </defs>
      <g>
       <use style="stroke:#000000;stroke-linecap:butt;stroke-width:0.5;" x="355.283797864" xlink:href="#m06dd23cfa9" y="287.812035192"/>
      </g>
     </g>
    </g>
    <g id="xtick_16">
     <g id="line2d_17">
      <defs>
       <path d="
M0 0
L0 -2" id="m06dd23cfa9"/>
      </defs>
      <g>
       <use style="stroke:#000000;stroke-linecap:butt;stroke-width:0.5;" x="380.149980258" xlink:href="#m06dd23cfa9" y="287.812035192"/>
      </g>
     </g>
    </g>
    <g id="xtick_17">
     <g id="line2d_18">
      <defs>
       <path d="
M0 0
L0 -2" id="m06dd23cfa9"/>
      </defs>
      <g>
       <use style="stroke:#000000;stroke-linecap:butt;stroke-width:0.5;" x="429.882345046" xlink:href="#m06dd23cfa9" y="287.812035192"/>
      </g>
     </g>
    </g>
    <g id="xtick_18">
     <g id="line2d_19">
      <defs>
       <path d="
M0 0
L0 -2" id="m06dd23cfa9"/>
      </defs>
      <g>
       <use style="stroke:#000000;stroke-linecap:butt;stroke-width:0.5;" x="454.74852744" xlink:href="#m06dd23cfa9" y="287.812035192"/>
      </g>
     </g>
    </g>
    <g id="xtick_19">
     <g id="line2d_20">
      <defs>
       <path d="
M0 0
L0 -2" id="m06dd23cfa9"/>
      </defs>
      <g>
       <use style="stroke:#000000;stroke-linecap:butt;stroke-width:0.5;" x="479.614709834" xlink:href="#m06dd23cfa9" y="287.812035192"/>
      </g>
     </g>
    </g>
    <g id="xtick_20">
     <g id="line2d_21">
      <defs>
       <path d="
M0 0
L0 -2" id="m06dd23cfa9"/>
      </defs>
      <g>
       <use style="stroke:#000000;stroke-linecap:butt;stroke-width:0.5;" x="504.480892228" xlink:href="#m06dd23cfa9" y="287.812035192"/>
      </g>
     </g>
    </g>
   </g>
   <g id="matplotlib.axis_2">
    <g id="ytick_1">
     <g id="line2d_22">
      <defs>
       <path d="
M0 0
L4 0" id="m5aaf488d15"/>
      </defs>
      <g>
       <use style="stroke:#000000;stroke-linecap:butt;stroke-width:0.5;" x="29.2984375" xlink:href="#m5aaf488d15" y="356.341083438"/>
      </g>
     </g>
     <g id="text_5">
      <!-- -0.1 -->
      <defs>
       <path d="
M10.6875 12.4062
L21 12.4062
L21 0
L10.6875 0
z
" id="BitstreamVeraSans-Roman-2e"/>
       <path d="
M4.89062 31.3906
L31.2031 31.3906
L31.2031 23.3906
L4.89062 23.3906
z
" id="BitstreamVeraSans-Roman-2d"/>
      </defs>
      <g transform="translate(7.2 359.980927188)scale(0.1 -0.1)">
       <use xlink:href="#BitstreamVeraSans-Roman-2d"/>
       <use x="36.083984375" xlink:href="#BitstreamVeraSans-Roman-30"/>
       <use x="99.70703125" xlink:href="#BitstreamVeraSans-Roman-2e"/>
       <use x="131.494140625" xlink:href="#BitstreamVeraSans-Roman-31"/>
      </g>
     </g>
    </g>
    <g id="ytick_2">
     <g id="line2d_23">
      <defs>
       <path d="
M0 0
L4 0" id="m5aaf488d15"/>
      </defs>
      <g>
       <use style="stroke:#000000;stroke-linecap:butt;stroke-width:0.5;" x="29.2984375" xlink:href="#m5aaf488d15" y="287.812035192"/>
      </g>
     </g>
     <g id="text_6">
      <!-- 0 -->
      <g transform="translate(20.259375 291.451878942)scale(0.1 -0.1)">
       <use xlink:href="#BitstreamVeraSans-Roman-30"/>
      </g>
     </g>
    </g>
    <g id="ytick_3">
     <g id="line2d_24">
      <defs>
       <path d="
M0 0
L4 0" id="m5aaf488d15"/>
      </defs>
      <g>
       <use style="stroke:#000000;stroke-linecap:butt;stroke-width:0.5;" x="29.2984375" xlink:href="#m5aaf488d15" y="219.282986946"/>
      </g>
     </g>
     <g id="text_7">
      <!-- 0.1 -->
      <g transform="translate(10.978125 222.922830696)scale(0.1 -0.1)">
       <use xlink:href="#BitstreamVeraSans-Roman-30"/>
       <use x="63.623046875" xlink:href="#BitstreamVeraSans-Roman-2e"/>
       <use x="95.41015625" xlink:href="#BitstreamVeraSans-Roman-31"/>
      </g>
     </g>
    </g>
    <g id="ytick_4">
     <g id="line2d_25">
      <defs>
       <path d="
M0 0
L4 0" id="m5aaf488d15"/>
      </defs>
      <g>
       <use style="stroke:#000000;stroke-linecap:butt;stroke-width:0.5;" x="29.2984375" xlink:href="#m5aaf488d15" y="150.753938701"/>
      </g>
     </g>
     <g id="text_8">
      <!-- 0.2 -->
      <g transform="translate(11.05625 154.393782451)scale(0.1 -0.1)">
       <use xlink:href="#BitstreamVeraSans-Roman-30"/>
       <use x="63.623046875" xlink:href="#BitstreamVeraSans-Roman-2e"/>
       <use x="95.41015625" xlink:href="#BitstreamVeraSans-Roman-32"/>
      </g>
     </g>
    </g>
    <g id="ytick_5">
     <g id="line2d_26">
      <defs>
       <path d="
M0 0
L4 0" id="m5aaf488d15"/>
      </defs>
      <g>
       <use style="stroke:#000000;stroke-linecap:butt;stroke-width:0.5;" x="29.2984375" xlink:href="#m5aaf488d15" y="82.2248904548"/>
      </g>
     </g>
     <g id="text_9">
      <!-- 0.3 -->
      <defs>
       <path d="
M40.5781 39.3125
Q47.6562 37.7969 51.625 33
Q55.6094 28.2188 55.6094 21.1875
Q55.6094 10.4062 48.1875 4.48438
Q40.7656 -1.42188 27.0938 -1.42188
Q22.5156 -1.42188 17.6562 -0.515625
Q12.7969 0.390625 7.625 2.20312
L7.625 11.7188
Q11.7188 9.32812 16.5938 8.10938
Q21.4844 6.89062 26.8125 6.89062
Q36.0781 6.89062 40.9375 10.5469
Q45.7969 14.2031 45.7969 21.1875
Q45.7969 27.6406 41.2812 31.2656
Q36.7656 34.9062 28.7188 34.9062
L20.2188 34.9062
L20.2188 43.0156
L29.1094 43.0156
Q36.375 43.0156 40.2344 45.9219
Q44.0938 48.8281 44.0938 54.2969
Q44.0938 59.9062 40.1094 62.9062
Q36.1406 65.9219 28.7188 65.9219
Q24.6562 65.9219 20.0156 65.0312
Q15.375 64.1562 9.8125 62.3125
L9.8125 71.0938
Q15.4375 72.6562 20.3438 73.4375
Q25.25 74.2188 29.5938 74.2188
Q40.8281 74.2188 47.3594 69.1094
Q53.9062 64.0156 53.9062 55.3281
Q53.9062 49.2656 50.4375 45.0938
Q46.9688 40.9219 40.5781 39.3125" id="BitstreamVeraSans-Roman-33"/>
      </defs>
      <g transform="translate(10.85625 85.8647342048)scale(0.1 -0.1)">
       <use xlink:href="#BitstreamVeraSans-Roman-30"/>
       <use x="63.623046875" xlink:href="#BitstreamVeraSans-Roman-2e"/>
       <use x="95.41015625" xlink:href="#BitstreamVeraSans-Roman-33"/>
      </g>
     </g>
    </g>
    <g id="ytick_6">
     <g id="line2d_27">
      <defs>
       <path d="
M0 0
L4 0" id="m5aaf488d15"/>
      </defs>
      <g>
       <use style="stroke:#000000;stroke-linecap:butt;stroke-width:0.5;" x="29.2984375" xlink:href="#m5aaf488d15" y="13.695842209"/>
      </g>
     </g>
     <g id="text_10">
      <!-- 0.4 -->
      <defs>
       <path d="
M37.7969 64.3125
L12.8906 25.3906
L37.7969 25.3906
z

M35.2031 72.9062
L47.6094 72.9062
L47.6094 25.3906
L58.0156 25.3906
L58.0156 17.1875
L47.6094 17.1875
L47.6094 0
L37.7969 0
L37.7969 17.1875
L4.89062 17.1875
L4.89062 26.7031
z
" id="BitstreamVeraSans-Roman-34"/>
      </defs>
      <g transform="translate(10.615625 17.335685959)scale(0.1 -0.1)">
       <use xlink:href="#BitstreamVeraSans-Roman-30"/>
       <use x="63.623046875" xlink:href="#BitstreamVeraSans-Roman-2e"/>
       <use x="95.41015625" xlink:href="#BitstreamVeraSans-Roman-34"/>
      </g>
     </g>
    </g>
    <g id="ytick_7">
     <g id="line2d_28">
      <defs>
       <path d="
M0 0
L2 0" id="m0d921daf71"/>
      </defs>
      <g>
       <use style="stroke:#000000;stroke-linecap:butt;stroke-width:0.5;" x="29.2984375" xlink:href="#m0d921daf71" y="411.164322035"/>
      </g>
     </g>
    </g>
    <g id="ytick_8">
     <g id="line2d_29">
      <defs>
       <path d="
M0 0
L2 0" id="m0d921daf71"/>
      </defs>
      <g>
       <use style="stroke:#000000;stroke-linecap:butt;stroke-width:0.5;" x="29.2984375" xlink:href="#m0d921daf71" y="397.458512385"/>
      </g>
     </g>
    </g>
    <g id="ytick_9">
     <g id="line2d_30">
      <defs>
       <path d="
M0 0
L2 0" id="m0d921daf71"/>
      </defs>
      <g>
       <use style="stroke:#000000;stroke-linecap:butt;stroke-width:0.5;" x="29.2984375" xlink:href="#m0d921daf71" y="383.752702736"/>
      </g>
     </g>
    </g>
    <g id="ytick_10">
     <g id="line2d_31">
      <defs>
       <path d="
M0 0
L2 0" id="m0d921daf71"/>
      </defs>
      <g>
       <use style="stroke:#000000;stroke-linecap:butt;stroke-width:0.5;" x="29.2984375" xlink:href="#m0d921daf71" y="370.046893087"/>
      </g>
     </g>
    </g>
    <g id="ytick_11">
     <g id="line2d_32">
      <defs>
       <path d="
M0 0
L2 0" id="m0d921daf71"/>
      </defs>
      <g>
       <use style="stroke:#000000;stroke-linecap:butt;stroke-width:0.5;" x="29.2984375" xlink:href="#m0d921daf71" y="342.635273789"/>
      </g>
     </g>
    </g>
    <g id="ytick_12">
     <g id="line2d_33">
      <defs>
       <path d="
M0 0
L2 0" id="m0d921daf71"/>
      </defs>
      <g>
       <use style="stroke:#000000;stroke-linecap:butt;stroke-width:0.5;" x="29.2984375" xlink:href="#m0d921daf71" y="328.92946414"/>
      </g>
     </g>
    </g>
    <g id="ytick_13">
     <g id="line2d_34">
      <defs>
       <path d="
M0 0
L2 0" id="m0d921daf71"/>
      </defs>
      <g>
       <use style="stroke:#000000;stroke-linecap:butt;stroke-width:0.5;" x="29.2984375" xlink:href="#m0d921daf71" y="315.223654491"/>
      </g>
     </g>
    </g>
    <g id="ytick_14">
     <g id="line2d_35">
      <defs>
       <path d="
M0 0
L2 0" id="m0d921daf71"/>
      </defs>
      <g>
       <use style="stroke:#000000;stroke-linecap:butt;stroke-width:0.5;" x="29.2984375" xlink:href="#m0d921daf71" y="301.517844841"/>
      </g>
     </g>
    </g>
    <g id="ytick_15">
     <g id="line2d_36">
      <defs>
       <path d="
M0 0
L2 0" id="m0d921daf71"/>
      </defs>
      <g>
       <use style="stroke:#000000;stroke-linecap:butt;stroke-width:0.5;" x="29.2984375" xlink:href="#m0d921daf71" y="287.812035192"/>
      </g>
     </g>
    </g>
    <g id="ytick_16">
     <g id="line2d_37">
      <defs>
       <path d="
M0 0
L2 0" id="m0d921daf71"/>
      </defs>
      <g>
       <use style="stroke:#000000;stroke-linecap:butt;stroke-width:0.5;" x="29.2984375" xlink:href="#m0d921daf71" y="274.106225543"/>
      </g>
     </g>
    </g>
    <g id="ytick_17">
     <g id="line2d_38">
      <defs>
       <path d="
M0 0
L2 0" id="m0d921daf71"/>
      </defs>
      <g>
       <use style="stroke:#000000;stroke-linecap:butt;stroke-width:0.5;" x="29.2984375" xlink:href="#m0d921daf71" y="260.400415894"/>
      </g>
     </g>
    </g>
    <g id="ytick_18">
     <g id="line2d_39">
      <defs>
       <path d="
M0 0
L2 0" id="m0d921daf71"/>
      </defs>
      <g>
       <use style="stroke:#000000;stroke-linecap:butt;stroke-width:0.5;" x="29.2984375" xlink:href="#m0d921daf71" y="246.694606245"/>
      </g>
     </g>
    </g>
    <g id="ytick_19">
     <g id="line2d_40">
      <defs>
       <path d="
M0 0
L2 0" id="m0d921daf71"/>
      </defs>
      <g>
       <use style="stroke:#000000;stroke-linecap:butt;stroke-width:0.5;" x="29.2984375" xlink:href="#m0d921daf71" y="232.988796596"/>
      </g>
     </g>
    </g>
    <g id="ytick_20">
     <g id="line2d_41">
      <defs>
       <path d="
M0 0
L2 0" id="m0d921daf71"/>
      </defs>
      <g>
       <use style="stroke:#000000;stroke-linecap:butt;stroke-width:0.5;" x="29.2984375" xlink:href="#m0d921daf71" y="205.577177297"/>
      </g>
     </g>
    </g>
    <g id="ytick_21">
     <g id="line2d_42">
      <defs>
       <path d="
M0 0
L2 0" id="m0d921daf71"/>
      </defs>
      <g>
       <use style="stroke:#000000;stroke-linecap:butt;stroke-width:0.5;" x="29.2984375" xlink:href="#m0d921daf71" y="191.871367648"/>
      </g>
     </g>
    </g>
    <g id="ytick_22">
     <g id="line2d_43">
      <defs>
       <path d="
M0 0
L2 0" id="m0d921daf71"/>
      </defs>
      <g>
       <use style="stroke:#000000;stroke-linecap:butt;stroke-width:0.5;" x="29.2984375" xlink:href="#m0d921daf71" y="178.165557999"/>
      </g>
     </g>
    </g>
    <g id="ytick_23">
     <g id="line2d_44">
      <defs>
       <path d="
M0 0
L2 0" id="m0d921daf71"/>
      </defs>
      <g>
       <use style="stroke:#000000;stroke-linecap:butt;stroke-width:0.5;" x="29.2984375" xlink:href="#m0d921daf71" y="164.45974835"/>
      </g>
     </g>
    </g>
    <g id="ytick_24">
     <g id="line2d_45">
      <defs>
       <path d="
M0 0
L2 0" id="m0d921daf71"/>
      </defs>
      <g>
       <use style="stroke:#000000;stroke-linecap:butt;stroke-width:0.5;" x="29.2984375" xlink:href="#m0d921daf71" y="137.048129051"/>
      </g>
     </g>
    </g>
    <g id="ytick_25">
     <g id="line2d_46">
      <defs>
       <path d="
M0 0
L2 0" id="m0d921daf71"/>
      </defs>
      <g>
       <use style="stroke:#000000;stroke-linecap:butt;stroke-width:0.5;" x="29.2984375" xlink:href="#m0d921daf71" y="123.342319402"/>
      </g>
     </g>
    </g>
    <g id="ytick_26">
     <g id="line2d_47">
      <defs>
       <path d="
M0 0
L2 0" id="m0d921daf71"/>
      </defs>
      <g>
       <use style="stroke:#000000;stroke-linecap:butt;stroke-width:0.5;" x="29.2984375" xlink:href="#m0d921daf71" y="109.636509753"/>
      </g>
     </g>
    </g>
    <g id="ytick_27">
     <g id="line2d_48">
      <defs>
       <path d="
M0 0
L2 0" id="m0d921daf71"/>
      </defs>
      <g>
       <use style="stroke:#000000;stroke-linecap:butt;stroke-width:0.5;" x="29.2984375" xlink:href="#m0d921daf71" y="95.930700104"/>
      </g>
     </g>
    </g>
    <g id="ytick_28">
     <g id="line2d_49">
      <defs>
       <path d="
M0 0
L2 0" id="m0d921daf71"/>
      </defs>
      <g>
       <use style="stroke:#000000;stroke-linecap:butt;stroke-width:0.5;" x="29.2984375" xlink:href="#m0d921daf71" y="82.2248904548"/>
      </g>
     </g>
    </g>
    <g id="ytick_29">
     <g id="line2d_50">
      <defs>
       <path d="
M0 0
L2 0" id="m0d921daf71"/>
      </defs>
      <g>
       <use style="stroke:#000000;stroke-linecap:butt;stroke-width:0.5;" x="29.2984375" xlink:href="#m0d921daf71" y="68.5190808057"/>
      </g>
     </g>
    </g>
    <g id="ytick_30">
     <g id="line2d_51">
      <defs>
       <path d="
M0 0
L2 0" id="m0d921daf71"/>
      </defs>
      <g>
       <use style="stroke:#000000;stroke-linecap:butt;stroke-width:0.5;" x="29.2984375" xlink:href="#m0d921daf71" y="54.8132711565"/>
      </g>
     </g>
    </g>
    <g id="ytick_31">
     <g id="line2d_52">
      <defs>
       <path d="
M0 0
L2 0" id="m0d921daf71"/>
      </defs>
      <g>
       <use style="stroke:#000000;stroke-linecap:butt;stroke-width:0.5;" x="29.2984375" xlink:href="#m0d921daf71" y="41.1074615073"/>
      </g>
     </g>
    </g>
    <g id="ytick_32">
     <g id="line2d_53">
      <defs>
       <path d="
M0 0
L2 0" id="m0d921daf71"/>
      </defs>
      <g>
       <use style="stroke:#000000;stroke-linecap:butt;stroke-width:0.5;" x="29.2984375" xlink:href="#m0d921daf71" y="27.4016518582"/>
      </g>
     </g>
    </g>
   </g>
   <g id="patch_3">
    <path d="
M39.2984 287.812
L557.266 287.812" style="fill:none;stroke:#000000;stroke-width:0.8;"/>
   </g>
   <g id="patch_4">
    <path d="
M29.2984 413.28
L29.2984 7.2" style="fill:none;stroke:#000000;stroke-width:0.8;"/>
   </g>
  </g>
 </g>
 <defs>
  <clipPath id="pbda54c63f9">
   <rect height="406.08" width="517.9675" x="39.2984375" y="7.2"/>
  </clipPath>
 </defs>
</svg>
