<?xml version="1.0" encoding="utf-8" standalone="no"?>
<!DOCTYPE svg PUBLIC "-//W3C//DTD SVG 1.1//EN"
  "http://www.w3.org/Graphics/SVG/1.1/DTD/svg11.dtd">
<!-- Created with matplotlib (http://matplotlib.sourceforge.net/) -->
<svg height="420pt" version="1.1" viewBox="0 0 564 420" width="564pt" xmlns="http://www.w3.org/2000/svg" xmlns:xlink="http://www.w3.org/1999/xlink">
 <defs>
  <style type="text/css">
*{stroke-linecap:square;stroke-linejoin:round;}
  </style>
 </defs>
 <g id="figure_1">
  <g id="patch_1">
   <path d="
M2.22045e-16 420.48
L564.508 420.48
L564.508 0
L2.22045e-16 0
z
" style="fill:#ffffff;"/>
  </g>
  <g id="axes_1">
   <g id="patch_2">
    <path d="
M45.7109 413.28
L557.308 413.28
L557.308 7.2
L45.7109 7.2
z
" style="fill:#ffffff;"/>
   </g>
   <g id="line2d_1">
    <path clip-path="url(#p5895cd3558)" d="
M55.5493 15.0092
L56.3128 23.2252
L57.2798 36.3274
L58.4505 55.4501
L59.8756 82.4774
L61.7079 121.69
L64.0492 176.81
L65.5252 213.042
L65.627 212.75
L66.1359 211.727
L66.5431 211.354
L66.8485 211.32
L67.1539 211.488
L67.5611 212.013
L68.07 213.13
L68.6808 215.107
L69.3934 218.227
L70.2586 223.098
L71.2765 230.205
L72.4472 240.018
L73.8214 253.503
L75.3992 271.249
L77.2824 295.109
L78.2494 306.691
L79.3692 313.612
L80.6416 322.916
L82.1176 335.427
L83.7972 351.651
L85.7313 372.621
L86.3421 379.402
L86.393 379.388
L86.902 379.388
L87.4109 379.648
L87.9708 380.223
L88.5816 381.185
L89.2941 382.73
L90.1594 385.188
L91.1264 388.651
L92.2461 393.547
L92.6024 394.767
L93.1623 395.097
L93.7731 395.755
L94.4347 396.809
L95.1982 398.446
L96.1143 400.981
L97.1323 404.49
L97.3868 405.471
L97.4376 405.39
L98.8119 390.834
L100.237 377.924
L101.611 365.685
L103.545 317.388
L105.479 274.428
L107.413 236.337
L108.381 220.328
L110.06 200.804
L110.824 192.8
L110.874 192.878
L112.605 206.804
L114.895 226.954
L115.557 232.862
L115.608 232.78
L116.524 231.592
L117.237 231.011
L117.644 230.863
L118.305 231.291
L119.069 232.074
L119.476 232.637
L121.868 247.746
L122.886 252.8
L126.042 287.265
L127.62 306.337
L129.91 336.891
L131.284 342.069
L132.557 345.729
L133.32 347.813
L134.134 349.177
L134.185 349.059
L135.305 346.778
L136.069 345.621
L136.781 345.869
L137.545 346.377
L138.359 347.187
L139.275 348.421
L139.58 349.032
L141.006 353.725
L141.922 356.636
L142.634 356.799
L143.194 357.071
L143.347 356.252
L143.958 352.727
L144.772 352.57
L145.535 352.665
L145.841 352.76
L146.655 349.393
L147.164 346.183
L149.862 317.743
L151.032 305.396
L151.948 300.154
L152.407 300.18
L153.323 301.058
L153.424 300.943
L153.781 300.378
L155.104 291.244
L157.852 270.079
L158.616 266.214
L159.939 260.297
L161.517 248.702
L161.772 247.73
L161.822 247.803
L162.688 249.142
L163.044 250.665
L163.858 254.756
L164.367 258.471
L166.658 280.082
L168.388 289.673
L168.541 289.822
L169.661 287.591
L170.17 286.885
L171.086 286.277
L171.544 286.159
L171.747 286.168
L173.071 289.075
L173.223 289.219
L173.274 289.139
L174.343 286.566
L174.903 284.073
L175.565 283.701
L175.921 283.638
L176.125 284.2
L176.888 288.924
L177.193 289.807
L177.804 288.792
L178.16 287.95
L179.127 287.478
L179.178 287.455
L179.535 286.433
L179.586 286.462
L179.789 286.479
L180.247 286.512
L181.062 286.825
L181.571 287.188
L181.978 287.068
L182.232 287.405
L182.639 288.527
L182.69 288.5
L183.047 288.369
L183.25 288.807
L183.708 289.915
L184.064 290.428
L184.421 291.442
L185.541 297.492
L186.253 305.213
L188.187 328.553
L188.849 333.7
L189.51 338.63
L190.325 343.209
L190.783 347.321
L191.343 351.495
L191.954 353.711
L192.513 355.748
L193.43 359.275
L193.837 360.194
L193.888 360.147
L194.091 360.001
L194.498 360.384
L194.702 360.406
L195.364 359.164
L195.618 359.11
L195.771 358.68
L196.331 356.439
L196.992 352.472
L197.705 349.426
L199.792 335.337
L200.352 331.505
L201.064 326.662
L201.675 324.432
L201.878 323.565
L202.896 316.156
L203.456 310.589
L203.965 305.799
L206.765 280.731
L207.579 277.789
L207.986 277.416
L208.444 276.251
L208.597 276.303
L209.004 276.713
L209.411 277.552
L209.462 277.506
L209.666 277.275
L210.378 274.173
L210.735 272.922
L211.04 272.183
L211.498 270.312
L212.312 267.802
L212.516 267.538
L212.974 266.768
L213.178 266.492
L213.687 265.358
L214.145 264.146
L214.348 263.885
L214.45 263.832
L214.755 262.959
L215.417 259.835
L216.028 258.239
L216.231 257.992
L216.486 257.977
L216.69 258.373
L216.995 259.516
L217.707 262.188
L218.369 264.007
L218.827 265.688
L219.082 266.233
L219.387 266.485
L219.947 267.886
L220.151 268.036
L220.965 267.618
L221.168 267.794
L222.085 270.12
L222.441 270.593
L222.95 272.516
L224.07 278.56
L224.629 282.569
L225.342 288.366
L227.683 312.921
L228.447 317.302
L229.007 319.098
L229.21 319.734
L230.941 325.086
L231.348 325.829
L231.704 326.135
L231.857 325.919
L232.366 324.81
L232.519 324.94
L232.722 325.032
L233.027 324.824
L233.282 325.016
L234.045 324.517
L234.249 324.434
L235.267 322.495
L235.318 322.532
L235.725 322.747
L235.929 322.747
L236.132 322.935
L236.641 322.568
L236.947 322.014
L237.354 320.559
L238.219 316.082
L238.779 313.238
L239.542 309.188
L240.408 305.389
L240.662 304.785
L240.917 304.298
L241.476 303.864
L241.833 302.771
L242.189 301.9
L242.342 301.759
L242.698 301.963
L242.952 302.735
L243.919 307.019
L244.632 310.194
L245.09 310.641
L245.294 310.735
L245.65 311.272
L246.872 314.999
L247.788 317.222
L248.755 320.062
L249.162 320.474
L249.416 320.476
L250.078 321.117
L250.383 321.735
L250.74 322.363
L250.943 322.312
L251.249 322.005
L251.401 321.937
L251.656 321.609
L251.758 321.524
L251.809 321.563
L252.419 322.568
L252.725 323.394
L253.081 324.308
L253.488 324.242
L253.844 323.576
L254.201 322.914
L255.371 320.135
L255.422 320.162
L255.626 320.538
L256.033 321.209
L256.237 321.009
L256.593 320.235
L257.051 318.86
L257.611 316.109
L258.68 310.813
L260.41 303.619
L260.97 299.449
L261.581 295.526
L262.344 291.077
L263.057 287.417
L265.042 279.438
L265.856 276.418
L266.314 273.244
L267.383 266.053
L268.045 263.156
L268.452 261.868
L268.706 261.337
L269.775 258.171
L270.03 257.82
L270.946 259.732
L271.506 262.523
L274.305 278.921
L276.188 286.696
L276.697 289.108
L277.104 290.015
L278.479 292.707
L278.886 294.262
L280.158 298.804
L280.667 299.507
L280.922 299.783
L281.176 300.214
L282.041 302.472
L282.194 302.65
L283.11 305.108
L283.925 308.593
L284.586 311.086
L285.248 314.228
L286.469 323.137
L286.826 324.609
L287.895 326.877
L288.2 326.931
L288.454 326.758
L288.658 326.493
L289.269 325.644
L289.574 325.216
L289.727 325.29
L289.981 325.477
L290.49 325.127
L291.101 325.473
L291.356 325.669
L291.61 325.676
L292.832 327.673
L293.086 328.145
L293.29 328.224
L293.391 328.145
L294.562 326.561
L294.664 326.657
L295.071 327.188
L295.326 326.856
L295.885 326.317
L296.242 326.321
L296.598 325.631
L296.954 323.801
L297.565 319.614
L298.278 315.261
L299.041 310.557
L299.448 308.156
L300.11 305.625
L300.313 305.399
L300.619 305.559
L300.772 305.696
L301.077 306.395
L301.382 307.07
L301.789 307.647
L302.807 308.288
L303.52 309.406
L303.978 310.316
L304.131 310.283
L304.233 310.249
L304.538 310.422
L304.741 310.341
L304.945 309.948
L305.301 309.395
L305.81 309.194
L306.014 309.176
L306.472 308.892
L306.777 308.563
L307.032 308.067
L307.337 306.618
L307.948 303.866
L309.068 299.046
L310.137 294.241
L310.747 292.482
L311.307 291.31
L312.02 289.065
L312.783 286.271
L313.089 285.564
L313.954 282.666
L314.157 282.548
L314.31 282.419
L314.616 281.807
L314.87 281.218
L315.633 278.978
L315.939 278.689
L316.397 278.637
L316.55 278.862
L318.433 283.591
L318.993 285.424
L319.4 285.958
L319.858 286.234
L320.214 286.017
L320.469 286.062
L320.621 285.978
L320.927 285.99
L321.079 285.942
L321.283 286.21
L321.588 287.103
L322.148 289.152
L322.657 290.475
L322.912 291.1
L323.319 291.843
L323.523 291.891
L323.675 291.714
L324.082 291.088
L324.337 291.086
L324.54 290.778
L324.795 290.161
L324.999 289.857
L325.609 290.164
L326.678 291.534
L326.882 291.523
L327.289 291.882
L328.001 293.113
L328.51 294.413
L329.07 296.088
L329.885 299.009
L330.037 299.043
L330.445 298.691
L330.699 298.53
L330.852 298.262
L331.564 296.69
L332.43 294.997
L332.633 294.909
L333.091 295.641
L333.397 296.25
L335.025 300.524
L335.534 302.529
L335.789 303.147
L336.094 303.896
L336.349 304.177
L336.552 304.45
L336.858 304.641
L337.163 304.822
L337.774 306.104
L338.028 306.618
L338.537 307.719
L340.624 314.617
L341.286 315.542
L341.54 315.895
L341.795 316.695
L342.354 319.158
L342.711 319.819
L343.372 319.741
L343.576 319.695
L343.678 319.691
L344.339 319.237
L344.594 319.47
L344.747 319.285
L345.001 318.893
L345.205 318.8
L346.019 317.531
L346.274 317.226
L346.426 317.167
L346.63 317.159
L346.884 317.151
L347.139 317.161
L347.546 317.605
L347.851 317.741
L348.055 318.075
L348.767 319.352
L348.92 319.318
L349.327 318.883
L349.531 318.308
L349.989 316.633
L350.243 316.407
L350.702 316.511
L350.956 316.653
L351.312 316.558
L351.516 316.63
L351.669 316.691
L351.872 316.93
L352.585 317.939
L352.992 317.689
L353.45 317.432
L353.603 317.268
L354.01 316.66
L354.366 316.03
L354.722 315.505
L354.926 315.512
L355.079 315.378
L355.689 314.108
L356.351 312.273
L356.707 311.46
L357.115 310.22
L359.354 300.813
L359.71 299.922
L359.914 299.408
L361.085 295.759
L361.492 295.113
L362.459 294.446
L362.764 294.613
L362.917 294.614
L363.324 294.258
L363.833 294.029
L364.037 294.125
L364.24 294.365
L364.495 294.749
L364.953 294.441
L365.513 293.432
L365.665 293.511
L365.869 293.623
L366.276 293.465
L366.429 293.485
L366.887 293.641
L367.09 293.334
L367.549 292.398
L367.956 292.038
L368.312 291.557
L368.668 290.385
L369.33 288.494
L370.093 286.873
L370.755 284.127
L372.282 277.438
L374.318 272.66
L374.725 272.145
L374.929 272.091
L375.081 272.051
L375.438 271.478
L375.59 271.596
L376.048 272.073
L376.455 272.426
L377.168 274.322
L377.677 276.326
L378.288 278.221
L378.644 279.559
L379 280.922
L379.56 283.824
L380.273 288.54
L382.105 303.291
L383.378 311.35
L383.836 313.097
L384.904 315.451
L385.261 316.193
L385.515 316.588
L385.719 316.813
L388.111 322.079
L388.416 322.222
L388.823 322.373
L389.129 322.286
L389.332 322.19
L389.689 321.799
L389.892 321.767
L390.147 321.546
L390.91 320.086
L391.267 320.047
L391.826 320.376
L392.335 319.959
L393.048 319.74
L393.201 319.636
L393.506 319.741
L393.71 319.668
L394.524 318.629
L394.677 318.123
L395.695 313.73
L396.051 312.697
L397.272 309.432
L397.781 307.473
L398.952 304.69
L399.665 303.548
L399.919 303.504
L400.224 303.702
L400.377 303.771
L400.632 303.988
L401.446 304.784
L401.802 304.743
L402.108 304.59
L402.922 303.918
L403.227 303.944
L403.431 303.986
L403.635 304.105
L404.245 304.347
L404.449 304.14
L405.009 303.683
L406.179 303.952
L406.739 303.819
L406.994 303.933
L408.215 305.787
L408.368 305.895
L408.521 305.92
L409.131 305.309
L409.488 305.095
L409.742 305.008
L410.149 304.92
L411.116 304.209
L411.371 304.073
L412.083 303.772
L413.254 302.563
L413.61 302.334
L414.323 301.623
L414.679 301.657
L414.985 301.373
L415.544 301.227
L416.257 300.117
L416.664 299.791
L417.071 299.257
L417.529 299.187
L417.631 299.118
L418.14 297.786
L418.802 295.378
L420.125 292.35
L421.754 289.982
L422.212 289.659
L422.365 289.629
L422.975 288.856
L423.23 288.605
L423.434 288.464
L423.586 288.201
L424.146 287.057
L424.401 286.666
L424.553 286.821
L424.91 287.141
L425.164 287.103
L425.418 287.01
L425.571 287.119
L425.877 287.369
L426.029 287.323
L428.065 285.435
L428.421 285.153
L428.625 285.262
L429.083 285.786
L429.439 286.094
L429.694 286.07
L429.897 286.161
L430.305 286.341
L430.712 286.833
L431.017 287.434
L431.628 288.513
L431.832 288.871
L432.188 289.348
L432.493 289.54
L434.325 291.772
L435.242 294.248
L436.514 299.61
L436.972 300.662
L437.278 300.95
L437.583 301.382
L438.143 302.595
L439.466 304.665
L440.331 306.724
L440.688 307.473
L441.044 308.226
L441.756 309.816
L442.316 310.696
L442.52 311.176
L443.232 313.793
L444.301 320.124
L445.167 324.856
L446.083 327.536
L446.388 328.02
L446.693 328.163
L446.999 328.268
L447.304 328.29
L447.61 327.693
L447.966 326.413
L448.678 324.086
L448.882 323.956
L449.086 324.028
L449.34 323.774
L449.544 323.304
L450.002 322.277
L450.816 321.292
L451.274 320.18
L452.038 317.841
L452.445 316.547
L453.056 314.221
L453.565 311.78
L454.532 307.8
L455.091 306.53
L455.295 306.487
L455.499 306.4
L456.211 305.62
L457.331 305.191
L457.993 304.319
L458.553 303.427
L459.469 301.412
L460.894 297.601
L462.522 293.74
L463.54 292.342
L464.304 291.14
L464.609 290.781
L466.391 287.137
L466.645 287.004
L466.798 287.144
L467.052 287.741
L467.51 288.914
L468.121 289.683
L468.783 290.14
L469.241 290.167
L470.666 290.857
L471.022 291.55
L471.531 292.768
L472.244 294.019
L472.498 294.092
L473.109 293.903
L473.974 293.791
L474.381 294.379
L474.89 295.28
L475.247 295.373
L476.417 295.001
L476.774 295.056
L477.028 295.337
L478.148 296.523
L478.351 296.416
L479.471 295.452
L480.184 294.276
L480.795 294.061
L481.202 294.096
L481.558 294.009
L481.711 294.128
L482.169 295.055
L482.729 296.614
L483.034 297.346
L484.001 300.045
L484.866 301.899
L485.579 302.656
L486.19 302.829
L486.393 302.521
L487.258 300.98
L488.989 297.706
L489.396 297.585
L490.312 297.375
L490.669 298.09
L490.974 298.961
L492.908 304.771
L493.264 305.564
L494.079 308.704
L494.689 310.59
L495.249 311.539
L495.402 311.654
L496.165 312.363
L496.471 312.678
L496.725 312.945
L496.878 313.01
L498.049 315.179
L499.219 317.331
L499.779 317.65
L500.848 317.402
L501.611 317.897
L502.273 317.182
L502.578 316.58
L503.138 316.036
L504.818 313.047
L505.327 311.091
L506.039 308.625
L507.057 306.609
L507.261 306.327
L507.516 305.909
L507.974 304.987
L508.228 304.813
L509.042 304.642
L509.908 303.977
L510.366 303.403
L511.078 303.299
L511.435 303.538
L511.689 303.587
L512.096 303.586
L513.114 302.507
L514.896 299.67
L515.252 299.244
L516.066 298.241
L516.575 297.471
L517.542 296.117
L518.051 295.741
L519.018 295.444
L519.222 295.492
L520.342 294.697
L520.545 294.652
L521.156 294.609
L521.41 294.797
L522.225 295.487
L522.632 295.36
L523.141 295.056
L523.395 295.059
L523.803 294.611
L524.617 292.556
L525.788 289.436
L527.213 287.246
L527.569 287.056
L527.976 286.82
L528.536 287.027
L529.249 287.118
L530.216 286.529
L530.419 286.499
L530.725 286.609
L531.386 287.513
L532.455 289.894
L532.913 290.24
L533.473 290.434
L533.778 291.065
L534.338 292.092
L534.796 292.642
L535.051 293.193
L536.527 297.003
L537.392 298.82
L537.697 299.886
L538.105 300.994
L540.039 305.534
L541.006 309.201
L542.176 312.076
L543.245 313.465
L543.703 314.258
L544.976 317.384
L545.281 317.619
L545.892 317.778
L546.452 317.639
L547.012 317.145
L547.164 317.034
L547.47 316.526
L547.47 316.526" style="fill:none;stroke:#0000ff;"/>
   </g>
   <g id="matplotlib.axis_1">
    <g id="xtick_1">
     <g id="line2d_2">
      <defs>
       <path d="
M0 0
L0 -4" id="m0559d8b322"/>
      </defs>
      <g>
       <use style="stroke:#000000;stroke-linecap:butt;stroke-width:0.5;" x="161.327206554" xlink:href="#m0559d8b322" y="301.744106219"/>
      </g>
     </g>
     <g id="text_1">
      <!-- 5 -->
      <defs>
       <path d="
M10.7969 72.9062
L49.5156 72.9062
L49.5156 64.5938
L19.8281 64.5938
L19.8281 46.7344
Q21.9688 47.4688 24.1094 47.8281
Q26.2656 48.1875 28.4219 48.1875
Q40.625 48.1875 47.75 41.5
Q54.8906 34.8125 54.8906 23.3906
Q54.8906 11.625 47.5625 5.09375
Q40.2344 -1.42188 26.9062 -1.42188
Q22.3125 -1.42188 17.5469 -0.640625
Q12.7969 0.140625 7.71875 1.70312
L7.71875 11.625
Q12.1094 9.23438 16.7969 8.0625
Q21.4844 6.89062 26.7031 6.89062
Q35.1562 6.89062 40.0781 11.3281
Q45.0156 15.7656 45.0156 23.3906
Q45.0156 31 40.0781 35.4375
Q35.1562 39.8906 26.7031 39.8906
Q22.75 39.8906 18.8125 39.0156
Q14.8906 38.1406 10.7969 36.2812
z
" id="BitstreamVeraSans-Roman-35"/>
      </defs>
      <g transform="translate(158.968612804 313.034731219)scale(0.1 -0.1)">
       <use xlink:href="#BitstreamVeraSans-Roman-35"/>
      </g>
     </g>
    </g>
    <g id="xtick_2">
     <g id="line2d_3">
      <defs>
       <path d="
M0 0
L0 -4" id="m0559d8b322"/>
      </defs>
      <g>
       <use style="stroke:#000000;stroke-linecap:butt;stroke-width:0.5;" x="284.129013391" xlink:href="#m0559d8b322" y="301.744106219"/>
      </g>
     </g>
     <g id="text_2">
      <!-- 10 -->
      <defs>
       <path d="
M31.7812 66.4062
Q24.1719 66.4062 20.3281 58.9062
Q16.5 51.4219 16.5 36.375
Q16.5 21.3906 20.3281 13.8906
Q24.1719 6.39062 31.7812 6.39062
Q39.4531 6.39062 43.2812 13.8906
Q47.125 21.3906 47.125 36.375
Q47.125 51.4219 43.2812 58.9062
Q39.4531 66.4062 31.7812 66.4062
M31.7812 74.2188
Q44.0469 74.2188 50.5156 64.5156
Q56.9844 54.8281 56.9844 36.375
Q56.9844 17.9688 50.5156 8.26562
Q44.0469 -1.42188 31.7812 -1.42188
Q19.5312 -1.42188 13.0625 8.26562
Q6.59375 17.9688 6.59375 36.375
Q6.59375 54.8281 13.0625 64.5156
Q19.5312 74.2188 31.7812 74.2188" id="BitstreamVeraSans-Roman-30"/>
       <path d="
M12.4062 8.29688
L28.5156 8.29688
L28.5156 63.9219
L10.9844 60.4062
L10.9844 69.3906
L28.4219 72.9062
L38.2812 72.9062
L38.2812 8.29688
L54.3906 8.29688
L54.3906 0
L12.4062 0
z
" id="BitstreamVeraSans-Roman-31"/>
      </defs>
      <g transform="translate(278.647763391 313.165981219)scale(0.1 -0.1)">
       <use xlink:href="#BitstreamVeraSans-Roman-31"/>
       <use x="63.623046875" xlink:href="#BitstreamVeraSans-Roman-30"/>
      </g>
     </g>
    </g>
    <g id="xtick_3">
     <g id="line2d_4">
      <defs>
       <path d="
M0 0
L0 -4" id="m0559d8b322"/>
      </defs>
      <g>
       <use style="stroke:#000000;stroke-linecap:butt;stroke-width:0.5;" x="406.930820228" xlink:href="#m0559d8b322" y="301.744106219"/>
      </g>
     </g>
     <g id="text_3">
      <!-- 15 -->
      <g transform="translate(401.554257728 313.034731219)scale(0.1 -0.1)">
       <use xlink:href="#BitstreamVeraSans-Roman-31"/>
       <use x="63.623046875" xlink:href="#BitstreamVeraSans-Roman-35"/>
      </g>
     </g>
    </g>
    <g id="xtick_4">
     <g id="line2d_5">
      <defs>
       <path d="
M0 0
L0 -4" id="m0559d8b322"/>
      </defs>
      <g>
       <use style="stroke:#000000;stroke-linecap:butt;stroke-width:0.5;" x="529.732627065" xlink:href="#m0559d8b322" y="301.744106219"/>
      </g>
     </g>
     <g id="text_4">
      <!-- 20 -->
      <defs>
       <path d="
M19.1875 8.29688
L53.6094 8.29688
L53.6094 0
L7.32812 0
L7.32812 8.29688
Q12.9375 14.1094 22.625 23.8906
Q32.3281 33.6875 34.8125 36.5312
Q39.5469 41.8438 41.4219 45.5312
Q43.3125 49.2188 43.3125 52.7812
Q43.3125 58.5938 39.2344 62.25
Q35.1562 65.9219 28.6094 65.9219
Q23.9688 65.9219 18.8125 64.3125
Q13.6719 62.7031 7.8125 59.4219
L7.8125 69.3906
Q13.7656 71.7812 18.9375 73
Q24.125 74.2188 28.4219 74.2188
Q39.75 74.2188 46.4844 68.5469
Q53.2188 62.8906 53.2188 53.4219
Q53.2188 48.9219 51.5312 44.8906
Q49.8594 40.875 45.4062 35.4062
Q44.1875 33.9844 37.6406 27.2188
Q31.1094 20.4531 19.1875 8.29688" id="BitstreamVeraSans-Roman-32"/>
      </defs>
      <g transform="translate(524.068564565 313.165981219)scale(0.1 -0.1)">
       <use xlink:href="#BitstreamVeraSans-Roman-32"/>
       <use x="63.623046875" xlink:href="#BitstreamVeraSans-Roman-30"/>
      </g>
     </g>
    </g>
    <g id="xtick_5">
     <g id="line2d_6">
      <defs>
       <path d="
M0 0
L0 -2" id="m1f1926bf31"/>
      </defs>
      <g>
       <use style="stroke:#000000;stroke-linecap:butt;stroke-width:0.5;" x="63.085761084" xlink:href="#m1f1926bf31" y="301.744106219"/>
      </g>
     </g>
    </g>
    <g id="xtick_6">
     <g id="line2d_7">
      <defs>
       <path d="
M0 0
L0 -2" id="m1f1926bf31"/>
      </defs>
      <g>
       <use style="stroke:#000000;stroke-linecap:butt;stroke-width:0.5;" x="87.6461224514" xlink:href="#m1f1926bf31" y="301.744106219"/>
      </g>
     </g>
    </g>
    <g id="xtick_7">
     <g id="line2d_8">
      <defs>
       <path d="
M0 0
L0 -2" id="m1f1926bf31"/>
      </defs>
      <g>
       <use style="stroke:#000000;stroke-linecap:butt;stroke-width:0.5;" x="112.206483819" xlink:href="#m1f1926bf31" y="301.744106219"/>
      </g>
     </g>
    </g>
    <g id="xtick_8">
     <g id="line2d_9">
      <defs>
       <path d="
M0 0
L0 -2" id="m1f1926bf31"/>
      </defs>
      <g>
       <use style="stroke:#000000;stroke-linecap:butt;stroke-width:0.5;" x="136.766845186" xlink:href="#m1f1926bf31" y="301.744106219"/>
      </g>
     </g>
    </g>
    <g id="xtick_9">
     <g id="line2d_10">
      <defs>
       <path d="
M0 0
L0 -2" id="m1f1926bf31"/>
      </defs>
      <g>
       <use style="stroke:#000000;stroke-linecap:butt;stroke-width:0.5;" x="185.887567921" xlink:href="#m1f1926bf31" y="301.744106219"/>
      </g>
     </g>
    </g>
    <g id="xtick_10">
     <g id="line2d_11">
      <defs>
       <path d="
M0 0
L0 -2" id="m1f1926bf31"/>
      </defs>
      <g>
       <use style="stroke:#000000;stroke-linecap:butt;stroke-width:0.5;" x="210.447929288" xlink:href="#m1f1926bf31" y="301.744106219"/>
      </g>
     </g>
    </g>
    <g id="xtick_11">
     <g id="line2d_12">
      <defs>
       <path d="
M0 0
L0 -2" id="m1f1926bf31"/>
      </defs>
      <g>
       <use style="stroke:#000000;stroke-linecap:butt;stroke-width:0.5;" x="235.008290656" xlink:href="#m1f1926bf31" y="301.744106219"/>
      </g>
     </g>
    </g>
    <g id="xtick_12">
     <g id="line2d_13">
      <defs>
       <path d="
M0 0
L0 -2" id="m1f1926bf31"/>
      </defs>
      <g>
       <use style="stroke:#000000;stroke-linecap:butt;stroke-width:0.5;" x="259.568652023" xlink:href="#m1f1926bf31" y="301.744106219"/>
      </g>
     </g>
    </g>
    <g id="xtick_13">
     <g id="line2d_14">
      <defs>
       <path d="
M0 0
L0 -2" id="m1f1926bf31"/>
      </defs>
      <g>
       <use style="stroke:#000000;stroke-linecap:butt;stroke-width:0.5;" x="308.689374758" xlink:href="#m1f1926bf31" y="301.744106219"/>
      </g>
     </g>
    </g>
    <g id="xtick_14">
     <g id="line2d_15">
      <defs>
       <path d="
M0 0
L0 -2" id="m1f1926bf31"/>
      </defs>
      <g>
       <use style="stroke:#000000;stroke-linecap:butt;stroke-width:0.5;" x="333.249736125" xlink:href="#m1f1926bf31" y="301.744106219"/>
      </g>
     </g>
    </g>
    <g id="xtick_15">
     <g id="line2d_16">
      <defs>
       <path d="
M0 0
L0 -2" id="m1f1926bf31"/>
      </defs>
      <g>
       <use style="stroke:#000000;stroke-linecap:butt;stroke-width:0.5;" x="357.810097493" xlink:href="#m1f1926bf31" y="301.744106219"/>
      </g>
     </g>
    </g>
    <g id="xtick_16">
     <g id="line2d_17">
      <defs>
       <path d="
M0 0
L0 -2" id="m1f1926bf31"/>
      </defs>
      <g>
       <use style="stroke:#000000;stroke-linecap:butt;stroke-width:0.5;" x="382.37045886" xlink:href="#m1f1926bf31" y="301.744106219"/>
      </g>
     </g>
    </g>
    <g id="xtick_17">
     <g id="line2d_18">
      <defs>
       <path d="
M0 0
L0 -2" id="m1f1926bf31"/>
      </defs>
      <g>
       <use style="stroke:#000000;stroke-linecap:butt;stroke-width:0.5;" x="431.491181595" xlink:href="#m1f1926bf31" y="301.744106219"/>
      </g>
     </g>
    </g>
    <g id="xtick_18">
     <g id="line2d_19">
      <defs>
       <path d="
M0 0
L0 -2" id="m1f1926bf31"/>
      </defs>
      <g>
       <use style="stroke:#000000;stroke-linecap:butt;stroke-width:0.5;" x="456.051542962" xlink:href="#m1f1926bf31" y="301.744106219"/>
      </g>
     </g>
    </g>
    <g id="xtick_19">
     <g id="line2d_20">
      <defs>
       <path d="
M0 0
L0 -2" id="m1f1926bf31"/>
      </defs>
      <g>
       <use style="stroke:#000000;stroke-linecap:butt;stroke-width:0.5;" x="480.61190433" xlink:href="#m1f1926bf31" y="301.744106219"/>
      </g>
     </g>
    </g>
    <g id="xtick_20">
     <g id="line2d_21">
      <defs>
       <path d="
M0 0
L0 -2" id="m1f1926bf31"/>
      </defs>
      <g>
       <use style="stroke:#000000;stroke-linecap:butt;stroke-width:0.5;" x="505.172265697" xlink:href="#m1f1926bf31" y="301.744106219"/>
      </g>
     </g>
    </g>
   </g>
   <g id="matplotlib.axis_2">
    <g id="ytick_1">
     <g id="line2d_22">
      <defs>
       <path d="
M0 0
L4 0" id="m60253522b0"/>
      </defs>
      <g>
       <use style="stroke:#000000;stroke-linecap:butt;stroke-width:0.5;" x="35.7109375" xlink:href="#m60253522b0" y="405.62990604"/>
      </g>
     </g>
     <g id="text_5">
      <!-- -0.1 -->
      <defs>
       <path d="
M10.6875 12.4062
L21 12.4062
L21 0
L10.6875 0
z
" id="BitstreamVeraSans-Roman-2e"/>
       <path d="
M4.89062 31.3906
L31.2031 31.3906
L31.2031 23.3906
L4.89062 23.3906
z
" id="BitstreamVeraSans-Roman-2d"/>
      </defs>
      <g transform="translate(13.6125 409.26974979)scale(0.1 -0.1)">
       <use xlink:href="#BitstreamVeraSans-Roman-2d"/>
       <use x="36.083984375" xlink:href="#BitstreamVeraSans-Roman-30"/>
       <use x="99.70703125" xlink:href="#BitstreamVeraSans-Roman-2e"/>
       <use x="131.494140625" xlink:href="#BitstreamVeraSans-Roman-31"/>
      </g>
     </g>
    </g>
    <g id="ytick_2">
     <g id="line2d_23">
      <defs>
       <path d="
M0 0
L4 0" id="m60253522b0"/>
      </defs>
      <g>
       <use style="stroke:#000000;stroke-linecap:butt;stroke-width:0.5;" x="35.7109375" xlink:href="#m60253522b0" y="353.68700613"/>
      </g>
     </g>
     <g id="text_6">
      <!-- -0.05 -->
      <g transform="translate(7.2 357.32684988)scale(0.1 -0.1)">
       <use xlink:href="#BitstreamVeraSans-Roman-2d"/>
       <use x="36.083984375" xlink:href="#BitstreamVeraSans-Roman-30"/>
       <use x="99.70703125" xlink:href="#BitstreamVeraSans-Roman-2e"/>
       <use x="131.494140625" xlink:href="#BitstreamVeraSans-Roman-30"/>
       <use x="195.1171875" xlink:href="#BitstreamVeraSans-Roman-35"/>
      </g>
     </g>
    </g>
    <g id="ytick_3">
     <g id="line2d_24">
      <defs>
       <path d="
M0 0
L4 0" id="m60253522b0"/>
      </defs>
      <g>
       <use style="stroke:#000000;stroke-linecap:butt;stroke-width:0.5;" x="35.7109375" xlink:href="#m60253522b0" y="301.744106219"/>
      </g>
     </g>
     <g id="text_7">
      <!-- 0 -->
      <g transform="translate(26.671875 305.383949969)scale(0.1 -0.1)">
       <use xlink:href="#BitstreamVeraSans-Roman-30"/>
      </g>
     </g>
    </g>
    <g id="ytick_4">
     <g id="line2d_25">
      <defs>
       <path d="
M0 0
L4 0" id="m60253522b0"/>
      </defs>
      <g>
       <use style="stroke:#000000;stroke-linecap:butt;stroke-width:0.5;" x="35.7109375" xlink:href="#m60253522b0" y="249.801206308"/>
      </g>
     </g>
     <g id="text_8">
      <!-- 0.05 -->
      <g transform="translate(10.978125 253.441050058)scale(0.1 -0.1)">
       <use xlink:href="#BitstreamVeraSans-Roman-30"/>
       <use x="63.623046875" xlink:href="#BitstreamVeraSans-Roman-2e"/>
       <use x="95.41015625" xlink:href="#BitstreamVeraSans-Roman-30"/>
       <use x="159.033203125" xlink:href="#BitstreamVeraSans-Roman-35"/>
      </g>
     </g>
    </g>
    <g id="ytick_5">
     <g id="line2d_26">
      <defs>
       <path d="
M0 0
L4 0" id="m60253522b0"/>
      </defs>
      <g>
       <use style="stroke:#000000;stroke-linecap:butt;stroke-width:0.5;" x="35.7109375" xlink:href="#m60253522b0" y="197.858306397"/>
      </g>
     </g>
     <g id="text_9">
      <!-- 0.1 -->
      <g transform="translate(17.390625 201.498150147)scale(0.1 -0.1)">
       <use xlink:href="#BitstreamVeraSans-Roman-30"/>
       <use x="63.623046875" xlink:href="#BitstreamVeraSans-Roman-2e"/>
       <use x="95.41015625" xlink:href="#BitstreamVeraSans-Roman-31"/>
      </g>
     </g>
    </g>
    <g id="ytick_6">
     <g id="line2d_27">
      <defs>
       <path d="
M0 0
L4 0" id="m60253522b0"/>
      </defs>
      <g>
       <use style="stroke:#000000;stroke-linecap:butt;stroke-width:0.5;" x="35.7109375" xlink:href="#m60253522b0" y="145.915406487"/>
      </g>
     </g>
     <g id="text_10">
      <!-- 0.15 -->
      <g transform="translate(10.978125 149.555250237)scale(0.1 -0.1)">
       <use xlink:href="#BitstreamVeraSans-Roman-30"/>
       <use x="63.623046875" xlink:href="#BitstreamVeraSans-Roman-2e"/>
       <use x="95.41015625" xlink:href="#BitstreamVeraSans-Roman-31"/>
       <use x="159.033203125" xlink:href="#BitstreamVeraSans-Roman-35"/>
      </g>
     </g>
    </g>
    <g id="ytick_7">
     <g id="line2d_28">
      <defs>
       <path d="
M0 0
L4 0" id="m60253522b0"/>
      </defs>
      <g>
       <use style="stroke:#000000;stroke-linecap:butt;stroke-width:0.5;" x="35.7109375" xlink:href="#m60253522b0" y="93.9725065759"/>
      </g>
     </g>
     <g id="text_11">
      <!-- 0.2 -->
      <g transform="translate(17.46875 97.6123503259)scale(0.1 -0.1)">
       <use xlink:href="#BitstreamVeraSans-Roman-30"/>
       <use x="63.623046875" xlink:href="#BitstreamVeraSans-Roman-2e"/>
       <use x="95.41015625" xlink:href="#BitstreamVeraSans-Roman-32"/>
      </g>
     </g>
    </g>
    <g id="ytick_8">
     <g id="line2d_29">
      <defs>
       <path d="
M0 0
L4 0" id="m60253522b0"/>
      </defs>
      <g>
       <use style="stroke:#000000;stroke-linecap:butt;stroke-width:0.5;" x="35.7109375" xlink:href="#m60253522b0" y="42.0296066651"/>
      </g>
     </g>
     <g id="text_12">
      <!-- 0.25 -->
      <g transform="translate(10.978125 45.6694504151)scale(0.1 -0.1)">
       <use xlink:href="#BitstreamVeraSans-Roman-30"/>
       <use x="63.623046875" xlink:href="#BitstreamVeraSans-Roman-2e"/>
       <use x="95.41015625" xlink:href="#BitstreamVeraSans-Roman-32"/>
       <use x="159.033203125" xlink:href="#BitstreamVeraSans-Roman-35"/>
      </g>
     </g>
    </g>
    <g id="ytick_9">
     <g id="line2d_30">
      <defs>
       <path d="
M0 0
L2 0" id="m09f512c97d"/>
      </defs>
      <g>
       <use style="stroke:#000000;stroke-linecap:butt;stroke-width:0.5;" x="35.7109375" xlink:href="#m09f512c97d" y="395.241326058"/>
      </g>
     </g>
    </g>
    <g id="ytick_10">
     <g id="line2d_31">
      <defs>
       <path d="
M0 0
L2 0" id="m09f512c97d"/>
      </defs>
      <g>
       <use style="stroke:#000000;stroke-linecap:butt;stroke-width:0.5;" x="35.7109375" xlink:href="#m09f512c97d" y="384.852746076"/>
      </g>
     </g>
    </g>
    <g id="ytick_11">
     <g id="line2d_32">
      <defs>
       <path d="
M0 0
L2 0" id="m09f512c97d"/>
      </defs>
      <g>
       <use style="stroke:#000000;stroke-linecap:butt;stroke-width:0.5;" x="35.7109375" xlink:href="#m09f512c97d" y="374.464166094"/>
      </g>
     </g>
    </g>
    <g id="ytick_12">
     <g id="line2d_33">
      <defs>
       <path d="
M0 0
L2 0" id="m09f512c97d"/>
      </defs>
      <g>
       <use style="stroke:#000000;stroke-linecap:butt;stroke-width:0.5;" x="35.7109375" xlink:href="#m09f512c97d" y="364.075586112"/>
      </g>
     </g>
    </g>
    <g id="ytick_13">
     <g id="line2d_34">
      <defs>
       <path d="
M0 0
L2 0" id="m09f512c97d"/>
      </defs>
      <g>
       <use style="stroke:#000000;stroke-linecap:butt;stroke-width:0.5;" x="35.7109375" xlink:href="#m09f512c97d" y="343.298426148"/>
      </g>
     </g>
    </g>
    <g id="ytick_14">
     <g id="line2d_35">
      <defs>
       <path d="
M0 0
L2 0" id="m09f512c97d"/>
      </defs>
      <g>
       <use style="stroke:#000000;stroke-linecap:butt;stroke-width:0.5;" x="35.7109375" xlink:href="#m09f512c97d" y="332.909846165"/>
      </g>
     </g>
    </g>
    <g id="ytick_15">
     <g id="line2d_36">
      <defs>
       <path d="
M0 0
L2 0" id="m09f512c97d"/>
      </defs>
      <g>
       <use style="stroke:#000000;stroke-linecap:butt;stroke-width:0.5;" x="35.7109375" xlink:href="#m09f512c97d" y="322.521266183"/>
      </g>
     </g>
    </g>
    <g id="ytick_16">
     <g id="line2d_37">
      <defs>
       <path d="
M0 0
L2 0" id="m09f512c97d"/>
      </defs>
      <g>
       <use style="stroke:#000000;stroke-linecap:butt;stroke-width:0.5;" x="35.7109375" xlink:href="#m09f512c97d" y="312.132686201"/>
      </g>
     </g>
    </g>
    <g id="ytick_17">
     <g id="line2d_38">
      <defs>
       <path d="
M0 0
L2 0" id="m09f512c97d"/>
      </defs>
      <g>
       <use style="stroke:#000000;stroke-linecap:butt;stroke-width:0.5;" x="35.7109375" xlink:href="#m09f512c97d" y="291.355526237"/>
      </g>
     </g>
    </g>
    <g id="ytick_18">
     <g id="line2d_39">
      <defs>
       <path d="
M0 0
L2 0" id="m09f512c97d"/>
      </defs>
      <g>
       <use style="stroke:#000000;stroke-linecap:butt;stroke-width:0.5;" x="35.7109375" xlink:href="#m09f512c97d" y="280.966946255"/>
      </g>
     </g>
    </g>
    <g id="ytick_19">
     <g id="line2d_40">
      <defs>
       <path d="
M0 0
L2 0" id="m09f512c97d"/>
      </defs>
      <g>
       <use style="stroke:#000000;stroke-linecap:butt;stroke-width:0.5;" x="35.7109375" xlink:href="#m09f512c97d" y="270.578366272"/>
      </g>
     </g>
    </g>
    <g id="ytick_20">
     <g id="line2d_41">
      <defs>
       <path d="
M0 0
L2 0" id="m09f512c97d"/>
      </defs>
      <g>
       <use style="stroke:#000000;stroke-linecap:butt;stroke-width:0.5;" x="35.7109375" xlink:href="#m09f512c97d" y="260.18978629"/>
      </g>
     </g>
    </g>
    <g id="ytick_21">
     <g id="line2d_42">
      <defs>
       <path d="
M0 0
L2 0" id="m09f512c97d"/>
      </defs>
      <g>
       <use style="stroke:#000000;stroke-linecap:butt;stroke-width:0.5;" x="35.7109375" xlink:href="#m09f512c97d" y="239.412626326"/>
      </g>
     </g>
    </g>
    <g id="ytick_22">
     <g id="line2d_43">
      <defs>
       <path d="
M0 0
L2 0" id="m09f512c97d"/>
      </defs>
      <g>
       <use style="stroke:#000000;stroke-linecap:butt;stroke-width:0.5;" x="35.7109375" xlink:href="#m09f512c97d" y="229.024046344"/>
      </g>
     </g>
    </g>
    <g id="ytick_23">
     <g id="line2d_44">
      <defs>
       <path d="
M0 0
L2 0" id="m09f512c97d"/>
      </defs>
      <g>
       <use style="stroke:#000000;stroke-linecap:butt;stroke-width:0.5;" x="35.7109375" xlink:href="#m09f512c97d" y="218.635466362"/>
      </g>
     </g>
    </g>
    <g id="ytick_24">
     <g id="line2d_45">
      <defs>
       <path d="
M0 0
L2 0" id="m09f512c97d"/>
      </defs>
      <g>
       <use style="stroke:#000000;stroke-linecap:butt;stroke-width:0.5;" x="35.7109375" xlink:href="#m09f512c97d" y="208.24688638"/>
      </g>
     </g>
    </g>
    <g id="ytick_25">
     <g id="line2d_46">
      <defs>
       <path d="
M0 0
L2 0" id="m09f512c97d"/>
      </defs>
      <g>
       <use style="stroke:#000000;stroke-linecap:butt;stroke-width:0.5;" x="35.7109375" xlink:href="#m09f512c97d" y="187.469726415"/>
      </g>
     </g>
    </g>
    <g id="ytick_26">
     <g id="line2d_47">
      <defs>
       <path d="
M0 0
L2 0" id="m09f512c97d"/>
      </defs>
      <g>
       <use style="stroke:#000000;stroke-linecap:butt;stroke-width:0.5;" x="35.7109375" xlink:href="#m09f512c97d" y="177.081146433"/>
      </g>
     </g>
    </g>
    <g id="ytick_27">
     <g id="line2d_48">
      <defs>
       <path d="
M0 0
L2 0" id="m09f512c97d"/>
      </defs>
      <g>
       <use style="stroke:#000000;stroke-linecap:butt;stroke-width:0.5;" x="35.7109375" xlink:href="#m09f512c97d" y="166.692566451"/>
      </g>
     </g>
    </g>
    <g id="ytick_28">
     <g id="line2d_49">
      <defs>
       <path d="
M0 0
L2 0" id="m09f512c97d"/>
      </defs>
      <g>
       <use style="stroke:#000000;stroke-linecap:butt;stroke-width:0.5;" x="35.7109375" xlink:href="#m09f512c97d" y="156.303986469"/>
      </g>
     </g>
    </g>
    <g id="ytick_29">
     <g id="line2d_50">
      <defs>
       <path d="
M0 0
L2 0" id="m09f512c97d"/>
      </defs>
      <g>
       <use style="stroke:#000000;stroke-linecap:butt;stroke-width:0.5;" x="35.7109375" xlink:href="#m09f512c97d" y="135.526826505"/>
      </g>
     </g>
    </g>
    <g id="ytick_30">
     <g id="line2d_51">
      <defs>
       <path d="
M0 0
L2 0" id="m09f512c97d"/>
      </defs>
      <g>
       <use style="stroke:#000000;stroke-linecap:butt;stroke-width:0.5;" x="35.7109375" xlink:href="#m09f512c97d" y="125.138246522"/>
      </g>
     </g>
    </g>
    <g id="ytick_31">
     <g id="line2d_52">
      <defs>
       <path d="
M0 0
L2 0" id="m09f512c97d"/>
      </defs>
      <g>
       <use style="stroke:#000000;stroke-linecap:butt;stroke-width:0.5;" x="35.7109375" xlink:href="#m09f512c97d" y="114.74966654"/>
      </g>
     </g>
    </g>
    <g id="ytick_32">
     <g id="line2d_53">
      <defs>
       <path d="
M0 0
L2 0" id="m09f512c97d"/>
      </defs>
      <g>
       <use style="stroke:#000000;stroke-linecap:butt;stroke-width:0.5;" x="35.7109375" xlink:href="#m09f512c97d" y="104.361086558"/>
      </g>
     </g>
    </g>
    <g id="ytick_33">
     <g id="line2d_54">
      <defs>
       <path d="
M0 0
L2 0" id="m09f512c97d"/>
      </defs>
      <g>
       <use style="stroke:#000000;stroke-linecap:butt;stroke-width:0.5;" x="35.7109375" xlink:href="#m09f512c97d" y="83.5839265938"/>
      </g>
     </g>
    </g>
    <g id="ytick_34">
     <g id="line2d_55">
      <defs>
       <path d="
M0 0
L2 0" id="m09f512c97d"/>
      </defs>
      <g>
       <use style="stroke:#000000;stroke-linecap:butt;stroke-width:0.5;" x="35.7109375" xlink:href="#m09f512c97d" y="73.1953466116"/>
      </g>
     </g>
    </g>
    <g id="ytick_35">
     <g id="line2d_56">
      <defs>
       <path d="
M0 0
L2 0" id="m09f512c97d"/>
      </defs>
      <g>
       <use style="stroke:#000000;stroke-linecap:butt;stroke-width:0.5;" x="35.7109375" xlink:href="#m09f512c97d" y="62.8067666294"/>
      </g>
     </g>
    </g>
    <g id="ytick_36">
     <g id="line2d_57">
      <defs>
       <path d="
M0 0
L2 0" id="m09f512c97d"/>
      </defs>
      <g>
       <use style="stroke:#000000;stroke-linecap:butt;stroke-width:0.5;" x="35.7109375" xlink:href="#m09f512c97d" y="52.4181866473"/>
      </g>
     </g>
    </g>
    <g id="ytick_37">
     <g id="line2d_58">
      <defs>
       <path d="
M0 0
L2 0" id="m09f512c97d"/>
      </defs>
      <g>
       <use style="stroke:#000000;stroke-linecap:butt;stroke-width:0.5;" x="35.7109375" xlink:href="#m09f512c97d" y="31.641026683"/>
      </g>
     </g>
    </g>
    <g id="ytick_38">
     <g id="line2d_59">
      <defs>
       <path d="
M0 0
L2 0" id="m09f512c97d"/>
      </defs>
      <g>
       <use style="stroke:#000000;stroke-linecap:butt;stroke-width:0.5;" x="35.7109375" xlink:href="#m09f512c97d" y="21.2524467008"/>
      </g>
     </g>
    </g>
   </g>
   <g id="patch_3">
    <path d="
M45.7109 301.744
L557.308 301.744" style="fill:none;stroke:#000000;stroke-width:0.8;"/>
   </g>
   <g id="patch_4">
    <path d="
M35.7109 413.28
L35.7109 7.2" style="fill:none;stroke:#000000;stroke-width:0.8;"/>
   </g>
  </g>
 </g>
 <defs>
  <clipPath id="p5895cd3558">
   <rect height="406.08" width="511.5971875" x="45.7109375" y="7.2"/>
  </clipPath>
 </defs>
</svg>
