<?xml version="1.0" encoding="utf-8" standalone="no"?>
<!DOCTYPE svg PUBLIC "-//W3C//DTD SVG 1.1//EN"
  "http://www.w3.org/Graphics/SVG/1.1/DTD/svg11.dtd">
<!-- Created with matplotlib (http://matplotlib.sourceforge.net/) -->
<svg height="420pt" version="1.1" viewBox="0 0 564 420" width="564pt" xmlns="http://www.w3.org/2000/svg" xmlns:xlink="http://www.w3.org/1999/xlink">
 <defs>
  <style type="text/css">
*{stroke-linecap:square;stroke-linejoin:round;}
  </style>
 </defs>
 <g id="figure_1">
  <g id="patch_1">
   <path d="
M-4.44089e-16 420.48
L564.466 420.48
L564.466 0
L-4.44089e-16 0
z
" style="fill:#ffffff;"/>
  </g>
  <g id="axes_1">
   <g id="patch_2">
    <path d="
M39.2984 413.28
L557.266 413.28
L557.266 7.2
L39.2984 7.2
z
" style="fill:#ffffff;"/>
   </g>
   <g id="line2d_1">
    <path clip-path="url(#pbda54c63f9)" d="
M49.2594 15.0092
L49.8262 18.4911
L50.5476 24.4628
L51.4236 33.7051
L52.5058 47.6294
L53.8456 67.9465
L55.4946 96.5363
L57.5558 136.311
L59.6171 175.776
L60.8538 187.976
L62.3482 205.086
L64.1002 227.862
L66.1615 257.654
L68.6865 297.557
L71.7783 350.19
L72.139 355.114
L72.8605 357.281
L73.788 360.816
L74.8187 365.658
L76.0039 372.318
L77.3952 381.489
L78.9411 393.22
L80.384 405.471
L80.4355 405.399
L81.8784 388.63
L83.2697 375.031
L84.558 364.503
L85.7947 356.118
L86.7223 350.992
L87.6498 348.476
L88.4743 346.85
L89.1958 345.877
L89.8657 345.333
L90.4325 345.134
L90.9993 345.166
L91.5662 345.423
L91.6177 345.451
L91.7208 344.556
L93.3698 324.699
L94.9157 308.648
L95.8948 300.205
L96.8739 297.697
L97.7499 296.019
L98.5744 294.909
L99.2958 294.296
L99.9657 294.016
L100.584 293.998
L101.202 294.202
L101.872 294.668
L102.439 295.251
L102.491 295.11
L104.037 277.459
L105.273 265.084
L106.046 263.888
L106.871 262.994
L107.592 262.52
L108.262 262.33
L108.932 262.375
L109.602 262.647
L110.323 263.189
L111.148 264.114
L112.075 265.485
L112.127 265.339
L113.209 262.673
L114.755 259.59
L115.683 258.121
L115.786 257.905
L117.074 253.34
L117.435 252.324
L118.62 254.823
L119.805 257.876
L121.145 261.969
L121.918 264.84
L123.979 277.046
L124.701 282.223
L125.834 290.738
L127.741 300.87
L128.153 305.705
L130.163 331.324
L130.936 340.181
L133.255 355.077
L133.667 358.507
L134.543 365.682
L137.274 381.018
L138.047 384.192
L138.872 380.554
L140.675 369.197
L142.066 363.281
L143.664 350.105
L145.107 345.21
L145.828 342.805
L147.013 333.851
L147.374 331.452
L149.487 309.906
L150.878 294.454
L152.888 271.783
L154.743 246.345
L156.65 238.262
L157.062 235.846
L157.886 232.335
L158.814 230.656
L159.329 230.329
L159.587 230.615
L159.638 230.552
L160.205 229.939
L160.978 230.201
L161.081 230.419
L161.442 231.837
L162.936 239.986
L163.606 246.94
L165.977 277.371
L167.574 293.319
L168.914 304.303
L169.79 311.094
L170.975 320.634
L171.594 323.627
L172.057 325.489
L172.418 326.121
L173.294 324.39
L174.325 323.489
L174.479 323.454
L174.737 323.668
L174.789 323.598
L175.098 323.207
L175.252 323.035
L176.437 319.427
L177.674 312.945
L178.19 310.658
L179.323 305.494
L179.684 304.87
L179.735 304.923
L179.942 305.172
L180.457 307.777
L181.333 313.331
L182.157 319.052
L182.57 321.807
L184.373 332.711
L185.043 337.63
L185.816 341.096
L186.228 342.176
L186.641 342.765
L187.207 343.709
L187.62 344.005
L187.826 343.895
L187.98 343.82
L189.475 341.219
L189.732 340.87
L189.836 340.53
L191.845 328.953
L192.464 326.437
L193.133 323.593
L193.443 322.75
L194.731 317.137
L195.092 316.747
L195.401 316.063
L196.019 314.696
L196.277 314.155
L196.689 313.204
L197.101 312.315
L197.462 310.835
L199.42 299.661
L199.781 298.396
L200.296 296.885
L200.915 295.758
L201.533 295.499
L201.791 295.116
L202.306 293.667
L203.543 286.01
L204.006 283.641
L204.367 281.938
L205.192 276.885
L205.501 275.815
L206.274 274.411
L206.48 274.084
L207.459 272.278
L207.717 272.14
L208.026 272.613
L208.284 273.578
L208.747 275.226
L209.16 276.563
L209.623 278.337
L210.86 285.191
L212.561 294.944
L213.334 297.484
L214.519 301.022
L214.931 302.013
L215.343 302.665
L215.498 302.717
L215.756 302.295
L216.219 300.545
L216.528 299.644
L216.889 299.831
L217.147 299.636
L218.435 298.356
L219.054 298.403
L219.414 297.784
L220.033 295.787
L221.115 289.065
L221.527 287.029
L222.197 284.241
L222.661 283.662
L222.764 283.693
L223.176 284.463
L223.588 285.397
L223.846 285.605
L224 285.798
L224.722 287.608
L225.083 289.399
L225.907 293.376
L226.68 295.591
L227.195 296.614
L227.917 298.833
L228.278 299.913
L228.484 300.113
L228.69 299.91
L228.999 299.316
L229.927 296.209
L230.184 296.031
L230.339 295.974
L230.545 295.921
L230.803 296.104
L231.009 296.477
L231.782 297.886
L232.091 298.671
L232.761 301.517
L234.049 309.195
L235.75 318.046
L235.956 318.514
L236.368 319.308
L236.935 320.318
L237.553 322.176
L238.635 324.598
L239.305 326.491
L239.563 326.714
L239.82 326.852
L240.181 326.623
L240.49 326.519
L240.748 326.351
L241.006 326.648
L241.315 327.308
L241.676 327.974
L241.83 328.224
L242.036 328.585
L242.088 328.56
L242.397 328.611
L242.758 329.137
L243.273 331.697
L243.737 334.086
L243.994 334.515
L244.664 335.364
L245.592 334.193
L246.262 333.195
L246.468 332.982
L246.726 332.86
L246.932 332.761
L247.395 331.413
L247.911 330
L248.375 329.29
L248.787 328.943
L249.302 328.208
L250.178 326.137
L250.693 325.2
L251.209 323.639
L251.518 323.444
L251.776 323.15
L252.136 322.416
L252.703 319.726
L254.198 311.782
L255.434 303.806
L255.743 301.336
L256.259 297.57
L256.671 295.718
L258.062 289.528
L258.835 285.93
L259.557 283.019
L259.711 282.718
L260.072 281.465
L260.381 280.096
L262.494 269.727
L262.803 268.812
L263.061 268.603
L263.576 267.617
L263.834 267.057
L264.813 263.708
L264.967 263.651
L265.38 263.95
L265.637 264.496
L266.153 266.462
L266.977 269.856
L267.286 270.737
L267.853 272.242
L268.678 273.177
L269.141 273.929
L269.296 274.078
L269.657 274.777
L270.069 276.113
L271.512 281.623
L272.027 284.265
L273.058 291.284
L273.47 292.885
L275.377 298.733
L275.995 299.989
L276.356 300.898
L277.232 302.888
L277.541 303.38
L278.005 303.599
L278.623 304.691
L279.035 306.166
L279.602 309.289
L280.581 314.869
L280.994 316.017
L281.767 317.343
L282.385 318.822
L282.746 320.092
L283.261 321.018
L283.467 321.212
L283.622 321.344
L283.982 322.425
L284.446 324.647
L285.013 327.274
L285.631 328.907
L285.992 329.264
L286.353 329.742
L287.074 331.797
L287.383 332.634
L287.693 332.876
L288.414 332.696
L289.187 331.224
L290.166 328.156
L290.939 327.283
L291.815 325.336
L292.073 324.724
L293.206 321.626
L293.361 321.184
L293.722 320.096
L294.031 319.845
L294.546 319.103
L295.01 317.861
L295.319 317.199
L296.814 312.896
L297.174 312.051
L297.587 311.181
L297.741 310.883
L298.308 308.62
L298.823 306.551
L299.081 306.036
L299.39 305.616
L300.421 304.098
L300.988 303.935
L301.348 303.219
L301.864 302.155
L302.224 301.997
L302.946 302.86
L303.255 302.751
L303.513 302.685
L303.925 302.415
L304.234 302.505
L304.646 302.078
L304.955 302.044
L305.419 302.265
L305.831 301.858
L306.759 301.259
L307.171 300.64
L307.48 300.477
L307.738 300.78
L308.356 302.394
L308.511 302.307
L308.975 301.374
L309.696 299.048
L310.005 297.528
L311.603 287.027
L312.427 284.044
L313.046 281.317
L313.973 279.122
L314.849 279.927
L315.159 280.477
L316.292 282.16
L316.756 282.376
L317.014 282.466
L317.529 283.367
L318.405 285.29
L318.611 285.472
L319.436 287.383
L320.106 289.152
L320.621 290.109
L320.93 291.177
L321.239 291.987
L321.651 292.527
L322.424 293.435
L322.94 294.062
L324.589 297.97
L325.001 299.817
L326.032 304.915
L326.392 306.304
L326.959 308.912
L327.474 310.912
L328.093 312.367
L328.505 312.73
L328.763 313.171
L329.02 313.404
L329.484 313.214
L329.639 313.136
L330.566 312.371
L331.03 312.383
L332.009 311.054
L332.061 311.092
L332.679 311.462
L332.988 311.228
L333.761 309.414
L334.122 308.701
L334.534 307.658
L334.998 307.317
L335.153 307.307
L335.359 307.286
L335.719 307.332
L335.925 307.268
L336.132 307.184
L336.853 306.614
L337.42 306.656
L337.781 306.607
L339.069 304.918
L339.893 304.563
L340.306 305.16
L340.615 305.492
L341.182 305.476
L341.388 305.47
L341.594 305.434
L341.852 305.718
L342.058 305.702
L342.315 305.89
L342.779 306.581
L343.14 306.611
L343.655 306.575
L344.273 306.649
L344.428 306.679
L346.386 309.143
L347.108 310.906
L347.314 311.315
L347.675 312.221
L348.19 312.725
L348.344 312.756
L348.911 313.073
L349.117 313.211
L349.736 314.881
L350.818 318.111
L351.539 321.095
L352.312 324.102
L352.931 326.38
L353.497 327.025
L353.704 327.205
L353.961 327.376
L354.219 327.475
L354.425 327.523
L354.889 327.06
L355.301 326.87
L355.61 326.011
L356.28 323.334
L357.105 319.944
L358.032 316.484
L358.496 313.956
L360.506 301.42
L361.742 292.715
L362.618 288.689
L363.031 287.762
L363.185 287.561
L363.494 287.058
L363.907 286.85
L364.164 286.797
L364.319 286.634
L364.834 285.94
L365.143 285.741
L365.401 285.53
L365.607 285.423
L366.226 285.375
L368.029 288.5
L368.493 289.044
L368.854 288.872
L369.06 288.463
L371.07 283.744
L371.533 283.757
L371.791 283.878
L372.306 283.662
L372.461 283.597
L372.667 283.522
L373.955 283.159
L374.11 283.122
L374.316 283.162
L375.192 282.768
L375.862 282.992
L376.12 283.576
L376.893 286.569
L377.614 289.69
L378.799 293.819
L379.83 296.993
L380.912 298.319
L381.273 298.445
L381.582 298.269
L381.891 298.393
L382.355 298.846
L382.819 299.595
L383.282 300.962
L385.55 309.913
L386.013 311.225
L387.096 314.856
L388.538 317.785
L388.796 317.856
L389.054 318.203
L390.394 320.945
L390.703 321.402
L391.012 321.547
L391.27 321.634
L391.527 321.703
L391.785 321.894
L391.94 321.764
L392.197 321.628
L392.352 321.748
L392.867 322.484
L393.331 323.003
L393.64 323.404
L394.258 323.863
L394.413 323.774
L395.392 323.016
L395.547 322.977
L395.804 322.894
L396.114 323.011
L396.835 323.529
L397.299 323
L397.608 322.597
L397.969 322.367
L398.484 321.218
L399.154 320.025
L399.36 319.629
L399.669 318.579
L400.03 317.554
L400.803 315.871
L401.421 313.658
L402.04 311.704
L402.658 310.912
L402.967 310.562
L403.379 309.734
L403.946 307.84
L404.616 305.694
L405.544 304.49
L405.698 304.578
L406.317 305.314
L407.141 306.473
L407.347 306.389
L407.966 305.636
L408.378 304.875
L409.202 302.067
L410.13 298.551
L410.748 296.794
L411.985 294.917
L412.243 294.748
L412.397 294.724
L412.655 294.571
L413.17 294.712
L413.376 294.489
L414.201 293.263
L414.613 293.051
L415.025 292.44
L415.747 290.526
L416.262 289.018
L417.55 286.131
L418.117 285.603
L418.478 285.013
L418.839 284.683
L419.199 284.307
L419.56 283.968
L420.024 283.82
L420.178 283.823
L420.436 284.156
L420.848 284.919
L421.261 286.041
L422.806 290.108
L423.631 291.988
L425.125 296.37
L425.847 297.563
L426.671 298.426
L427.547 298.976
L427.96 298.875
L428.269 299.065
L428.629 299.356
L429.042 300.11
L430.021 301.9
L430.691 302.616
L431.567 304.237
L431.824 304.325
L432.031 304.344
L432.546 304.758
L432.907 305.409
L433.525 306.436
L433.886 306.749
L434.298 306.894
L434.71 306.871
L434.968 306.979
L435.638 307.736
L437.596 311.386
L438.008 312.188
L438.266 312.461
L438.936 313.047
L439.966 313.507
L440.636 314.172
L440.894 314.221
L442.079 313.539
L442.337 313.58
L442.697 313.775
L443.007 314.009
L443.419 313.822
L443.831 313.27
L444.192 312.692
L444.862 312.668
L445.325 313.052
L445.532 312.995
L445.738 312.948
L445.995 313.091
L446.408 313.357
L446.82 313.401
L447.49 312.82
L448.727 310.507
L449.551 307.982
L450.015 307.026
L450.685 305.867
L451.715 304.973
L452.076 304.388
L452.952 303.435
L453.261 303.472
L453.622 303.619
L454.137 304.184
L454.601 304.755
L455.322 304.819
L455.786 305.099
L456.147 305.114
L456.714 305.595
L456.92 305.664
L457.281 305.435
L457.847 305.004
L458.054 305.036
L459.393 306.105
L459.806 306.426
L460.372 307.184
L461.094 308.527
L461.455 309.122
L461.764 309.258
L462.228 309.359
L462.485 308.882
L462.743 308.599
L463.207 308.65
L464.289 307.24
L464.598 306.823
L465.062 306.408
L465.268 306.334
L465.577 306.178
L465.783 306.095
L465.989 305.998
L466.762 305.19
L467.484 304.81
L469.184 302.042
L469.493 301.703
L471.709 299.227
L472.482 297.793
L472.791 297.484
L473.307 297.1
L473.874 296.415
L474.44 295.072
L475.007 293.083
L475.729 290.268
L476.296 288.489
L477.326 286.561
L478.254 285.504
L478.769 285.5
L478.975 285.513
L479.903 285.347
L480.47 285.051
L480.882 284.968
L481.397 285.432
L481.809 285.807
L482.222 286.342
L483.407 289.078
L485.056 293.881
L485.777 295.962
L486.499 298.368
L487.581 302.478
L487.941 303.859
L488.714 306.669
L491.291 314.169
L492.579 318.281
L492.94 318.795
L493.558 319.012
L494.022 318.994
L494.383 319.31
L494.64 319.169
L495.362 318.693
L495.723 318.638
L496.856 318.735
L497.32 318.327
L497.732 317.677
L499.433 314.133
L500.309 313.117
L500.567 313.022
L500.927 312.738
L501.133 312.7
L501.494 312.91
L501.855 312.948
L502.576 312.51
L504.225 312.062
L504.431 312.065
L504.741 312.284
L504.947 312.359
L505.41 312.195
L505.926 312.083
L506.39 311.753
L506.596 311.715
L507.059 311.908
L508.657 312.254
L508.966 312.182
L509.636 311.767
L510.048 311.305
L511.543 310.518
L511.852 310.536
L512.316 310.093
L512.882 309.48
L513.192 308.637
L516.387 297.124
L517.159 294.977
L517.829 293.369
L519.169 289.043
L519.53 288.794
L520.097 288.631
L520.664 288.728
L521.024 289.348
L521.54 289.924
L522.313 290.467
L523.343 292.215
L523.601 292.399
L523.91 292.228
L524.58 291.529
L525.765 289.048
L526.074 288.525
L526.95 288.04
L527.208 288.176
L527.775 288.513
L528.496 289.664
L529.836 292.174
L530.197 292.875
L531.537 294.845
L531.949 295.727
L533.546 298.934
L534.268 300.146
L534.989 301.921
L535.195 302.262
L537.669 307.506
L538.133 308.395
L538.596 309.293
L539.936 311.64
L540.503 311.911
L541.121 312.548
L541.482 312.592
L541.791 312.434
L542.461 312.02
L542.667 312.081
L543.492 312.827
L544.007 313.136
L544.883 312.725
L545.141 312.647
L545.553 312.675
L545.862 312.556
L546.377 312.738
L547.047 313.507
L547.305 313.82
L547.305 313.82" style="fill:none;stroke:#0000ff;"/>
   </g>
   <g id="matplotlib.axis_1">
    <g id="xtick_1">
     <g id="line2d_2">
      <defs>
       <path d="
M0 0
L0 -4" id="m60253522b0"/>
      </defs>
      <g>
       <use style="stroke:#000000;stroke-linecap:butt;stroke-width:0.5;" x="156.354338713" xlink:href="#m60253522b0" y="303.698663392"/>
      </g>
     </g>
     <g id="text_1">
      <!-- 5 -->
      <defs>
       <path d="
M10.7969 72.9062
L49.5156 72.9062
L49.5156 64.5938
L19.8281 64.5938
L19.8281 46.7344
Q21.9688 47.4688 24.1094 47.8281
Q26.2656 48.1875 28.4219 48.1875
Q40.625 48.1875 47.75 41.5
Q54.8906 34.8125 54.8906 23.3906
Q54.8906 11.625 47.5625 5.09375
Q40.2344 -1.42188 26.9062 -1.42188
Q22.3125 -1.42188 17.5469 -0.640625
Q12.7969 0.140625 7.71875 1.70312
L7.71875 11.625
Q12.1094 9.23438 16.7969 8.0625
Q21.4844 6.89062 26.7031 6.89062
Q35.1562 6.89062 40.0781 11.3281
Q45.0156 15.7656 45.0156 23.3906
Q45.0156 31 40.0781 35.4375
Q35.1562 39.8906 26.7031 39.8906
Q22.75 39.8906 18.8125 39.0156
Q14.8906 38.1406 10.7969 36.2812
z
" id="BitstreamVeraSans-Roman-35"/>
      </defs>
      <g transform="translate(153.995744963 314.989288392)scale(0.1 -0.1)">
       <use xlink:href="#BitstreamVeraSans-Roman-35"/>
      </g>
     </g>
    </g>
    <g id="xtick_2">
     <g id="line2d_3">
      <defs>
       <path d="
M0 0
L0 -4" id="m60253522b0"/>
      </defs>
      <g>
       <use style="stroke:#000000;stroke-linecap:butt;stroke-width:0.5;" x="280.685250683" xlink:href="#m60253522b0" y="303.698663392"/>
      </g>
     </g>
     <g id="text_2">
      <!-- 10 -->
      <defs>
       <path d="
M31.7812 66.4062
Q24.1719 66.4062 20.3281 58.9062
Q16.5 51.4219 16.5 36.375
Q16.5 21.3906 20.3281 13.8906
Q24.1719 6.39062 31.7812 6.39062
Q39.4531 6.39062 43.2812 13.8906
Q47.125 21.3906 47.125 36.375
Q47.125 51.4219 43.2812 58.9062
Q39.4531 66.4062 31.7812 66.4062
M31.7812 74.2188
Q44.0469 74.2188 50.5156 64.5156
Q56.9844 54.8281 56.9844 36.375
Q56.9844 17.9688 50.5156 8.26562
Q44.0469 -1.42188 31.7812 -1.42188
Q19.5312 -1.42188 13.0625 8.26562
Q6.59375 17.9688 6.59375 36.375
Q6.59375 54.8281 13.0625 64.5156
Q19.5312 74.2188 31.7812 74.2188" id="BitstreamVeraSans-Roman-30"/>
       <path d="
M12.4062 8.29688
L28.5156 8.29688
L28.5156 63.9219
L10.9844 60.4062
L10.9844 69.3906
L28.4219 72.9062
L38.2812 72.9062
L38.2812 8.29688
L54.3906 8.29688
L54.3906 0
L12.4062 0
z
" id="BitstreamVeraSans-Roman-31"/>
      </defs>
      <g transform="translate(275.204000683 315.120538392)scale(0.1 -0.1)">
       <use xlink:href="#BitstreamVeraSans-Roman-31"/>
       <use x="63.623046875" xlink:href="#BitstreamVeraSans-Roman-30"/>
      </g>
     </g>
    </g>
    <g id="xtick_3">
     <g id="line2d_4">
      <defs>
       <path d="
M0 0
L0 -4" id="m60253522b0"/>
      </defs>
      <g>
       <use style="stroke:#000000;stroke-linecap:butt;stroke-width:0.5;" x="405.016162652" xlink:href="#m60253522b0" y="303.698663392"/>
      </g>
     </g>
     <g id="text_3">
      <!-- 15 -->
      <g transform="translate(399.639600152 314.989288392)scale(0.1 -0.1)">
       <use xlink:href="#BitstreamVeraSans-Roman-31"/>
       <use x="63.623046875" xlink:href="#BitstreamVeraSans-Roman-35"/>
      </g>
     </g>
    </g>
    <g id="xtick_4">
     <g id="line2d_5">
      <defs>
       <path d="
M0 0
L0 -4" id="m60253522b0"/>
      </defs>
      <g>
       <use style="stroke:#000000;stroke-linecap:butt;stroke-width:0.5;" x="529.347074621" xlink:href="#m60253522b0" y="303.698663392"/>
      </g>
     </g>
     <g id="text_4">
      <!-- 20 -->
      <defs>
       <path d="
M19.1875 8.29688
L53.6094 8.29688
L53.6094 0
L7.32812 0
L7.32812 8.29688
Q12.9375 14.1094 22.625 23.8906
Q32.3281 33.6875 34.8125 36.5312
Q39.5469 41.8438 41.4219 45.5312
Q43.3125 49.2188 43.3125 52.7812
Q43.3125 58.5938 39.2344 62.25
Q35.1562 65.9219 28.6094 65.9219
Q23.9688 65.9219 18.8125 64.3125
Q13.6719 62.7031 7.8125 59.4219
L7.8125 69.3906
Q13.7656 71.7812 18.9375 73
Q24.125 74.2188 28.4219 74.2188
Q39.75 74.2188 46.4844 68.5469
Q53.2188 62.8906 53.2188 53.4219
Q53.2188 48.9219 51.5312 44.8906
Q49.8594 40.875 45.4062 35.4062
Q44.1875 33.9844 37.6406 27.2188
Q31.1094 20.4531 19.1875 8.29688" id="BitstreamVeraSans-Roman-32"/>
      </defs>
      <g transform="translate(523.683012121 315.120538392)scale(0.1 -0.1)">
       <use xlink:href="#BitstreamVeraSans-Roman-32"/>
       <use x="63.623046875" xlink:href="#BitstreamVeraSans-Roman-30"/>
      </g>
     </g>
    </g>
    <g id="xtick_5">
     <g id="line2d_6">
      <defs>
       <path d="
M0 0
L0 -2" id="m09f512c97d"/>
      </defs>
      <g>
       <use style="stroke:#000000;stroke-linecap:butt;stroke-width:0.5;" x="56.8896091378" xlink:href="#m09f512c97d" y="303.698663392"/>
      </g>
     </g>
    </g>
    <g id="xtick_6">
     <g id="line2d_7">
      <defs>
       <path d="
M0 0
L0 -2" id="m09f512c97d"/>
      </defs>
      <g>
       <use style="stroke:#000000;stroke-linecap:butt;stroke-width:0.5;" x="81.7557915317" xlink:href="#m09f512c97d" y="303.698663392"/>
      </g>
     </g>
    </g>
    <g id="xtick_7">
     <g id="line2d_8">
      <defs>
       <path d="
M0 0
L0 -2" id="m09f512c97d"/>
      </defs>
      <g>
       <use style="stroke:#000000;stroke-linecap:butt;stroke-width:0.5;" x="106.621973926" xlink:href="#m09f512c97d" y="303.698663392"/>
      </g>
     </g>
    </g>
    <g id="xtick_8">
     <g id="line2d_9">
      <defs>
       <path d="
M0 0
L0 -2" id="m09f512c97d"/>
      </defs>
      <g>
       <use style="stroke:#000000;stroke-linecap:butt;stroke-width:0.5;" x="131.488156319" xlink:href="#m09f512c97d" y="303.698663392"/>
      </g>
     </g>
    </g>
    <g id="xtick_9">
     <g id="line2d_10">
      <defs>
       <path d="
M0 0
L0 -2" id="m09f512c97d"/>
      </defs>
      <g>
       <use style="stroke:#000000;stroke-linecap:butt;stroke-width:0.5;" x="181.220521107" xlink:href="#m09f512c97d" y="303.698663392"/>
      </g>
     </g>
    </g>
    <g id="xtick_10">
     <g id="line2d_11">
      <defs>
       <path d="
M0 0
L0 -2" id="m09f512c97d"/>
      </defs>
      <g>
       <use style="stroke:#000000;stroke-linecap:butt;stroke-width:0.5;" x="206.086703501" xlink:href="#m09f512c97d" y="303.698663392"/>
      </g>
     </g>
    </g>
    <g id="xtick_11">
     <g id="line2d_12">
      <defs>
       <path d="
M0 0
L0 -2" id="m09f512c97d"/>
      </defs>
      <g>
       <use style="stroke:#000000;stroke-linecap:butt;stroke-width:0.5;" x="230.952885895" xlink:href="#m09f512c97d" y="303.698663392"/>
      </g>
     </g>
    </g>
    <g id="xtick_12">
     <g id="line2d_13">
      <defs>
       <path d="
M0 0
L0 -2" id="m09f512c97d"/>
      </defs>
      <g>
       <use style="stroke:#000000;stroke-linecap:butt;stroke-width:0.5;" x="255.819068289" xlink:href="#m09f512c97d" y="303.698663392"/>
      </g>
     </g>
    </g>
    <g id="xtick_13">
     <g id="line2d_14">
      <defs>
       <path d="
M0 0
L0 -2" id="m09f512c97d"/>
      </defs>
      <g>
       <use style="stroke:#000000;stroke-linecap:butt;stroke-width:0.5;" x="305.551433077" xlink:href="#m09f512c97d" y="303.698663392"/>
      </g>
     </g>
    </g>
    <g id="xtick_14">
     <g id="line2d_15">
      <defs>
       <path d="
M0 0
L0 -2" id="m09f512c97d"/>
      </defs>
      <g>
       <use style="stroke:#000000;stroke-linecap:butt;stroke-width:0.5;" x="330.41761547" xlink:href="#m09f512c97d" y="303.698663392"/>
      </g>
     </g>
    </g>
    <g id="xtick_15">
     <g id="line2d_16">
      <defs>
       <path d="
M0 0
L0 -2" id="m09f512c97d"/>
      </defs>
      <g>
       <use style="stroke:#000000;stroke-linecap:butt;stroke-width:0.5;" x="355.283797864" xlink:href="#m09f512c97d" y="303.698663392"/>
      </g>
     </g>
    </g>
    <g id="xtick_16">
     <g id="line2d_17">
      <defs>
       <path d="
M0 0
L0 -2" id="m09f512c97d"/>
      </defs>
      <g>
       <use style="stroke:#000000;stroke-linecap:butt;stroke-width:0.5;" x="380.149980258" xlink:href="#m09f512c97d" y="303.698663392"/>
      </g>
     </g>
    </g>
    <g id="xtick_17">
     <g id="line2d_18">
      <defs>
       <path d="
M0 0
L0 -2" id="m09f512c97d"/>
      </defs>
      <g>
       <use style="stroke:#000000;stroke-linecap:butt;stroke-width:0.5;" x="429.882345046" xlink:href="#m09f512c97d" y="303.698663392"/>
      </g>
     </g>
    </g>
    <g id="xtick_18">
     <g id="line2d_19">
      <defs>
       <path d="
M0 0
L0 -2" id="m09f512c97d"/>
      </defs>
      <g>
       <use style="stroke:#000000;stroke-linecap:butt;stroke-width:0.5;" x="454.74852744" xlink:href="#m09f512c97d" y="303.698663392"/>
      </g>
     </g>
    </g>
    <g id="xtick_19">
     <g id="line2d_20">
      <defs>
       <path d="
M0 0
L0 -2" id="m09f512c97d"/>
      </defs>
      <g>
       <use style="stroke:#000000;stroke-linecap:butt;stroke-width:0.5;" x="479.614709834" xlink:href="#m09f512c97d" y="303.698663392"/>
      </g>
     </g>
    </g>
    <g id="xtick_20">
     <g id="line2d_21">
      <defs>
       <path d="
M0 0
L0 -2" id="m09f512c97d"/>
      </defs>
      <g>
       <use style="stroke:#000000;stroke-linecap:butt;stroke-width:0.5;" x="504.480892228" xlink:href="#m09f512c97d" y="303.698663392"/>
      </g>
     </g>
    </g>
   </g>
   <g id="matplotlib.axis_2">
    <g id="ytick_1">
     <g id="line2d_22">
      <defs>
       <path d="
M0 0
L4 0" id="m216e0ab3d1"/>
      </defs>
      <g>
       <use style="stroke:#000000;stroke-linecap:butt;stroke-width:0.5;" x="29.2984375" xlink:href="#m216e0ab3d1" y="397.585865431"/>
      </g>
     </g>
     <g id="text_5">
      <!-- -0.1 -->
      <defs>
       <path d="
M10.6875 12.4062
L21 12.4062
L21 0
L10.6875 0
z
" id="BitstreamVeraSans-Roman-2e"/>
       <path d="
M4.89062 31.3906
L31.2031 31.3906
L31.2031 23.3906
L4.89062 23.3906
z
" id="BitstreamVeraSans-Roman-2d"/>
      </defs>
      <g transform="translate(7.2 401.225709181)scale(0.1 -0.1)">
       <use xlink:href="#BitstreamVeraSans-Roman-2d"/>
       <use x="36.083984375" xlink:href="#BitstreamVeraSans-Roman-30"/>
       <use x="99.70703125" xlink:href="#BitstreamVeraSans-Roman-2e"/>
       <use x="131.494140625" xlink:href="#BitstreamVeraSans-Roman-31"/>
      </g>
     </g>
    </g>
    <g id="ytick_2">
     <g id="line2d_23">
      <defs>
       <path d="
M0 0
L4 0" id="m216e0ab3d1"/>
      </defs>
      <g>
       <use style="stroke:#000000;stroke-linecap:butt;stroke-width:0.5;" x="29.2984375" xlink:href="#m216e0ab3d1" y="303.698663392"/>
      </g>
     </g>
     <g id="text_6">
      <!-- 0 -->
      <g transform="translate(20.259375 307.338507142)scale(0.1 -0.1)">
       <use xlink:href="#BitstreamVeraSans-Roman-30"/>
      </g>
     </g>
    </g>
    <g id="ytick_3">
     <g id="line2d_24">
      <defs>
       <path d="
M0 0
L4 0" id="m216e0ab3d1"/>
      </defs>
      <g>
       <use style="stroke:#000000;stroke-linecap:butt;stroke-width:0.5;" x="29.2984375" xlink:href="#m216e0ab3d1" y="209.811461353"/>
      </g>
     </g>
     <g id="text_7">
      <!-- 0.1 -->
      <g transform="translate(10.978125 213.451305103)scale(0.1 -0.1)">
       <use xlink:href="#BitstreamVeraSans-Roman-30"/>
       <use x="63.623046875" xlink:href="#BitstreamVeraSans-Roman-2e"/>
       <use x="95.41015625" xlink:href="#BitstreamVeraSans-Roman-31"/>
      </g>
     </g>
    </g>
    <g id="ytick_4">
     <g id="line2d_25">
      <defs>
       <path d="
M0 0
L4 0" id="m216e0ab3d1"/>
      </defs>
      <g>
       <use style="stroke:#000000;stroke-linecap:butt;stroke-width:0.5;" x="29.2984375" xlink:href="#m216e0ab3d1" y="115.924259314"/>
      </g>
     </g>
     <g id="text_8">
      <!-- 0.2 -->
      <g transform="translate(11.05625 119.564103064)scale(0.1 -0.1)">
       <use xlink:href="#BitstreamVeraSans-Roman-30"/>
       <use x="63.623046875" xlink:href="#BitstreamVeraSans-Roman-2e"/>
       <use x="95.41015625" xlink:href="#BitstreamVeraSans-Roman-32"/>
      </g>
     </g>
    </g>
    <g id="ytick_5">
     <g id="line2d_26">
      <defs>
       <path d="
M0 0
L4 0" id="m216e0ab3d1"/>
      </defs>
      <g>
       <use style="stroke:#000000;stroke-linecap:butt;stroke-width:0.5;" x="29.2984375" xlink:href="#m216e0ab3d1" y="22.0370572749"/>
      </g>
     </g>
     <g id="text_9">
      <!-- 0.3 -->
      <defs>
       <path d="
M40.5781 39.3125
Q47.6562 37.7969 51.625 33
Q55.6094 28.2188 55.6094 21.1875
Q55.6094 10.4062 48.1875 4.48438
Q40.7656 -1.42188 27.0938 -1.42188
Q22.5156 -1.42188 17.6562 -0.515625
Q12.7969 0.390625 7.625 2.20312
L7.625 11.7188
Q11.7188 9.32812 16.5938 8.10938
Q21.4844 6.89062 26.8125 6.89062
Q36.0781 6.89062 40.9375 10.5469
Q45.7969 14.2031 45.7969 21.1875
Q45.7969 27.6406 41.2812 31.2656
Q36.7656 34.9062 28.7188 34.9062
L20.2188 34.9062
L20.2188 43.0156
L29.1094 43.0156
Q36.375 43.0156 40.2344 45.9219
Q44.0938 48.8281 44.0938 54.2969
Q44.0938 59.9062 40.1094 62.9062
Q36.1406 65.9219 28.7188 65.9219
Q24.6562 65.9219 20.0156 65.0312
Q15.375 64.1562 9.8125 62.3125
L9.8125 71.0938
Q15.4375 72.6562 20.3438 73.4375
Q25.25 74.2188 29.5938 74.2188
Q40.8281 74.2188 47.3594 69.1094
Q53.9062 64.0156 53.9062 55.3281
Q53.9062 49.2656 50.4375 45.0938
Q46.9688 40.9219 40.5781 39.3125" id="BitstreamVeraSans-Roman-33"/>
      </defs>
      <g transform="translate(10.85625 25.6769010249)scale(0.1 -0.1)">
       <use xlink:href="#BitstreamVeraSans-Roman-30"/>
       <use x="63.623046875" xlink:href="#BitstreamVeraSans-Roman-2e"/>
       <use x="95.41015625" xlink:href="#BitstreamVeraSans-Roman-33"/>
      </g>
     </g>
    </g>
    <g id="ytick_6">
     <g id="line2d_27">
      <defs>
       <path d="
M0 0
L2 0" id="mf4f81af3a2"/>
      </defs>
      <g>
       <use style="stroke:#000000;stroke-linecap:butt;stroke-width:0.5;" x="29.2984375" xlink:href="#mf4f81af3a2" y="378.808425024"/>
      </g>
     </g>
    </g>
    <g id="ytick_7">
     <g id="line2d_28">
      <defs>
       <path d="
M0 0
L2 0" id="mf4f81af3a2"/>
      </defs>
      <g>
       <use style="stroke:#000000;stroke-linecap:butt;stroke-width:0.5;" x="29.2984375" xlink:href="#mf4f81af3a2" y="360.030984616"/>
      </g>
     </g>
    </g>
    <g id="ytick_8">
     <g id="line2d_29">
      <defs>
       <path d="
M0 0
L2 0" id="mf4f81af3a2"/>
      </defs>
      <g>
       <use style="stroke:#000000;stroke-linecap:butt;stroke-width:0.5;" x="29.2984375" xlink:href="#mf4f81af3a2" y="341.253544208"/>
      </g>
     </g>
    </g>
    <g id="ytick_9">
     <g id="line2d_30">
      <defs>
       <path d="
M0 0
L2 0" id="mf4f81af3a2"/>
      </defs>
      <g>
       <use style="stroke:#000000;stroke-linecap:butt;stroke-width:0.5;" x="29.2984375" xlink:href="#mf4f81af3a2" y="322.4761038"/>
      </g>
     </g>
    </g>
    <g id="ytick_10">
     <g id="line2d_31">
      <defs>
       <path d="
M0 0
L2 0" id="mf4f81af3a2"/>
      </defs>
      <g>
       <use style="stroke:#000000;stroke-linecap:butt;stroke-width:0.5;" x="29.2984375" xlink:href="#mf4f81af3a2" y="284.921222984"/>
      </g>
     </g>
    </g>
    <g id="ytick_11">
     <g id="line2d_32">
      <defs>
       <path d="
M0 0
L2 0" id="mf4f81af3a2"/>
      </defs>
      <g>
       <use style="stroke:#000000;stroke-linecap:butt;stroke-width:0.5;" x="29.2984375" xlink:href="#mf4f81af3a2" y="266.143782577"/>
      </g>
     </g>
    </g>
    <g id="ytick_12">
     <g id="line2d_33">
      <defs>
       <path d="
M0 0
L2 0" id="mf4f81af3a2"/>
      </defs>
      <g>
       <use style="stroke:#000000;stroke-linecap:butt;stroke-width:0.5;" x="29.2984375" xlink:href="#mf4f81af3a2" y="247.366342169"/>
      </g>
     </g>
    </g>
    <g id="ytick_13">
     <g id="line2d_34">
      <defs>
       <path d="
M0 0
L2 0" id="mf4f81af3a2"/>
      </defs>
      <g>
       <use style="stroke:#000000;stroke-linecap:butt;stroke-width:0.5;" x="29.2984375" xlink:href="#mf4f81af3a2" y="228.588901761"/>
      </g>
     </g>
    </g>
    <g id="ytick_14">
     <g id="line2d_35">
      <defs>
       <path d="
M0 0
L2 0" id="mf4f81af3a2"/>
      </defs>
      <g>
       <use style="stroke:#000000;stroke-linecap:butt;stroke-width:0.5;" x="29.2984375" xlink:href="#mf4f81af3a2" y="191.034020945"/>
      </g>
     </g>
    </g>
    <g id="ytick_15">
     <g id="line2d_36">
      <defs>
       <path d="
M0 0
L2 0" id="mf4f81af3a2"/>
      </defs>
      <g>
       <use style="stroke:#000000;stroke-linecap:butt;stroke-width:0.5;" x="29.2984375" xlink:href="#mf4f81af3a2" y="172.256580538"/>
      </g>
     </g>
    </g>
    <g id="ytick_16">
     <g id="line2d_37">
      <defs>
       <path d="
M0 0
L2 0" id="mf4f81af3a2"/>
      </defs>
      <g>
       <use style="stroke:#000000;stroke-linecap:butt;stroke-width:0.5;" x="29.2984375" xlink:href="#mf4f81af3a2" y="153.47914013"/>
      </g>
     </g>
    </g>
    <g id="ytick_17">
     <g id="line2d_38">
      <defs>
       <path d="
M0 0
L2 0" id="mf4f81af3a2"/>
      </defs>
      <g>
       <use style="stroke:#000000;stroke-linecap:butt;stroke-width:0.5;" x="29.2984375" xlink:href="#mf4f81af3a2" y="134.701699722"/>
      </g>
     </g>
    </g>
    <g id="ytick_18">
     <g id="line2d_39">
      <defs>
       <path d="
M0 0
L2 0" id="mf4f81af3a2"/>
      </defs>
      <g>
       <use style="stroke:#000000;stroke-linecap:butt;stroke-width:0.5;" x="29.2984375" xlink:href="#mf4f81af3a2" y="97.1468189062"/>
      </g>
     </g>
    </g>
    <g id="ytick_19">
     <g id="line2d_40">
      <defs>
       <path d="
M0 0
L2 0" id="mf4f81af3a2"/>
      </defs>
      <g>
       <use style="stroke:#000000;stroke-linecap:butt;stroke-width:0.5;" x="29.2984375" xlink:href="#mf4f81af3a2" y="78.3693784984"/>
      </g>
     </g>
    </g>
    <g id="ytick_20">
     <g id="line2d_41">
      <defs>
       <path d="
M0 0
L2 0" id="mf4f81af3a2"/>
      </defs>
      <g>
       <use style="stroke:#000000;stroke-linecap:butt;stroke-width:0.5;" x="29.2984375" xlink:href="#mf4f81af3a2" y="59.5919380906"/>
      </g>
     </g>
    </g>
    <g id="ytick_21">
     <g id="line2d_42">
      <defs>
       <path d="
M0 0
L2 0" id="mf4f81af3a2"/>
      </defs>
      <g>
       <use style="stroke:#000000;stroke-linecap:butt;stroke-width:0.5;" x="29.2984375" xlink:href="#mf4f81af3a2" y="40.8144976828"/>
      </g>
     </g>
    </g>
   </g>
   <g id="patch_3">
    <path d="
M39.2984 303.699
L557.266 303.699" style="fill:none;stroke:#000000;stroke-width:0.8;"/>
   </g>
   <g id="patch_4">
    <path d="
M29.2984 413.28
L29.2984 7.2" style="fill:none;stroke:#000000;stroke-width:0.8;"/>
   </g>
  </g>
 </g>
 <defs>
  <clipPath id="pbda54c63f9">
   <rect height="406.08" width="517.9675" x="39.2984375" y="7.2"/>
  </clipPath>
 </defs>
</svg>
