<?xml version="1.0" encoding="utf-8" standalone="no"?>
<!DOCTYPE svg PUBLIC "-//W3C//DTD SVG 1.1//EN"
  "http://www.w3.org/Graphics/SVG/1.1/DTD/svg11.dtd">
<!-- Created with matplotlib (http://matplotlib.sourceforge.net/) -->
<svg height="420pt" version="1.1" viewBox="0 0 564 420" width="564pt" xmlns="http://www.w3.org/2000/svg" xmlns:xlink="http://www.w3.org/1999/xlink">
 <defs>
  <style type="text/css">
*{stroke-linecap:square;stroke-linejoin:round;}
  </style>
 </defs>
 <g id="figure_1">
  <g id="patch_1">
   <path d="
M-4.44089e-16 420.48
L564.466 420.48
L564.466 0
L-4.44089e-16 0
z
" style="fill:#ffffff;"/>
  </g>
  <g id="axes_1">
   <g id="patch_2">
    <path d="
M39.2984 413.28
L557.266 413.28
L557.266 7.2
L39.2984 7.2
z
" style="fill:#ffffff;"/>
   </g>
   <g id="line2d_1">
    <path clip-path="url(#pbda54c63f9)" d="
M49.2594 296.352
L50.4446 237.807
L51.6298 189.914
L52.815 150.714
L54.0002 118.687
L55.1854 92.6342
L56.3191 72.4239
L57.4528 56.1303
L58.5349 43.7209
L59.5655 34.3836
L60.5446 27.4818
L61.4206 22.7543
L62.2451 19.4284
L63.0181 17.21
L63.688 15.9343
L64.2548 15.2906
L64.7701 15.0308
L65.2339 15.0472
L65.6977 15.2893
L66.213 15.8103
L66.8314 16.7666
L67.5528 18.3111
L68.4288 20.7632
L69.4079 24.1918
L70.5416 28.9869
L71.8814 35.6787
L72.139 37.5766
L75.2309 71.8943
L78.9927 116.231
L80.7962 136.817
L83.5789 161.849
L86.7738 192.653
L90.5356 231.166
L91.8238 243.581
L93.4213 249.782
L95.1733 257.545
L95.9978 261.909
L98.6774 281.271
L101.718 304.929
L102.645 311.682
L104.397 318.458
L105.325 322.614
L108.314 344.585
L110.323 359.046
L112.23 368.187
L114.755 382.644
L115.889 388.802
L116.919 389.772
L117.435 390.409
L119.187 395.905
L121.042 402.499
L121.815 405.455
L121.866 405.412
L122.845 404.59
L123.773 404.087
L124.391 403.75
L125.577 397.125
L126.556 396.675
L127.432 396.507
L127.741 396.498
L127.947 397.124
L128.926 400.103
L129.854 400.351
L130.884 400.693
L131.915 400.003
L132.894 399.62
L133.821 399.495
L134.285 399.396
L135.831 395.309
L136.81 392.735
L138.717 385.533
L141.036 368.523
L143.149 354.18
L145.983 335.324
L146.962 329.619
L147.426 328.508
L148.662 327.158
L149.641 324.892
L152.218 315.513
L152.682 313.23
L153.455 307.948
L154.588 298.359
L154.898 297.22
L156.392 294.153
L156.804 293.205
L157.886 289.638
L159.123 281.105
L159.69 277.357
L160.721 271.915
L161.751 266.583
L162.885 258.802
L163.709 252.524
L168.399 233.277
L169.945 218.716
L170.563 213.605
L171.542 206.687
L173.758 194.628
L174.943 188.776
L176.437 184.63
L176.798 184.036
L177.365 184.446
L178.396 185.724
L178.705 186.339
L179.22 187.472
L181.024 191.545
L181.23 191.708
L181.591 191.964
L182.312 193.752
L183.188 198.33
L185.61 215.302
L186.692 226.997
L187.877 240.035
L188.65 245.731
L189.578 251.385
L190.196 256.994
L191.381 271.148
L192.567 285.791
L196.844 336.84
L197.72 345.286
L199.832 364.946
L200.296 368.806
L201.018 373.141
L201.894 376.814
L202.873 380.341
L204.573 386.694
L204.779 387.282
L205.243 389.452
L207.768 404.392
L208.335 405.401
L208.747 405.44
L209.057 405.409
L209.366 405.323
L210.139 404
L210.396 403.129
L210.912 399.827
L212.715 386.305
L213.746 378.278
L214.931 371.272
L215.292 369.702
L216.065 364.865
L216.941 359.36
L218.281 351.593
L219.002 347.692
L219.363 346.501
L220.084 345.34
L220.548 344.566
L220.806 344.179
L221.579 341.783
L222.042 340.201
L223.279 335.507
L223.691 334.677
L224 334.42
L224.258 334.203
L224.413 334.309
L225.804 336.616
L226.216 337.568
L227.195 339.987
L227.762 340.486
L228.071 341.088
L228.278 341.237
L228.535 341.334
L228.793 340.939
L229.566 339.503
L230.648 337.818
L230.803 337.689
L231.163 337.246
L231.524 337.225
L231.833 337.119
L232.555 336.302
L233.224 334.597
L233.894 331.687
L234.822 326.47
L236.316 315.088
L238.944 296.776
L239.769 290.771
L240.696 284.167
L241.676 279.267
L242.861 275.7
L243.273 275.823
L243.84 275.638
L244.252 275.827
L244.819 275.616
L245.077 275.877
L245.953 277.256
L246.262 278.431
L246.726 280.067
L247.189 281.562
L247.705 283.18
L248.168 284.863
L248.89 288.144
L249.663 291.473
L249.92 291.755
L250.281 291.804
L250.693 291.185
L251.518 289.908
L252.033 288.407
L253.425 284.892
L254.198 283.763
L254.971 282.498
L255.383 282.103
L256.413 280.053
L256.723 279.615
L256.877 279.601
L257.392 279.829
L257.65 279.772
L257.805 279.735
L258.062 279.498
L258.938 278.291
L259.093 278.312
L259.299 278.4
L259.763 278.326
L260.33 278.64
L260.536 278.699
L260.948 279.117
L262.391 281.233
L262.649 281.331
L263.009 281.132
L264.04 280.127
L264.401 279.56
L264.864 278.509
L265.689 275.048
L266.513 270.754
L267.183 267.305
L267.802 264.782
L268.265 263.649
L268.678 262.856
L269.451 262.061
L269.657 262.036
L270.224 262.461
L270.533 262.667
L270.79 262.738
L271.306 263.216
L271.77 263.205
L271.976 262.986
L272.285 262.623
L272.491 262.636
L273.109 262.897
L273.367 262.997
L273.522 263.171
L274.037 264.276
L274.655 265.267
L274.861 265.509
L275.119 265.779
L275.48 266.03
L275.634 266.16
L275.892 266.332
L276.768 266.305
L277.129 266.887
L277.438 267.179
L277.799 267.395
L278.159 268.179
L279.19 271.133
L279.911 274.166
L280.375 275.707
L280.839 277.372
L282.23 283.463
L282.797 284.755
L283.158 285.128
L283.57 285.731
L283.931 286.335
L284.343 287.034
L286.147 291.776
L286.61 292.926
L286.868 293.454
L288.105 297.798
L289.496 302.979
L290.063 304.6
L290.578 305.37
L291.712 306.928
L293.567 311.128
L294.082 312.997
L295.01 316.634
L296.865 322.351
L297.483 323.778
L298.102 324.915
L299.029 325.737
L299.339 326.02
L299.854 326.354
L300.472 326.179
L301.554 326.723
L301.812 326.549
L302.173 326.033
L302.637 325.524
L303.203 325.119
L303.513 325.252
L303.77 325.658
L304.492 328.011
L306.965 337.564
L308.769 339.932
L309.748 342.057
L310.315 343.401
L311.448 345.554
L312.17 346.289
L312.788 346.328
L313.2 345.993
L313.458 345.838
L313.716 345.917
L313.973 346.237
L314.695 347.316
L315.571 348.033
L316.498 348.409
L316.859 348.642
L317.22 348.557
L317.426 348.559
L318.457 348.977
L318.714 349.072
L319.178 348.942
L319.436 348.951
L320.157 348.289
L321.188 346.247
L321.858 345.778
L322.167 345.666
L323.507 344.114
L323.816 343.331
L324.949 340.941
L325.568 340.417
L326.495 339.97
L327.217 339.093
L327.835 338.206
L328.144 338.03
L328.763 337.655
L329.226 337.549
L330.772 335.073
L331.185 335.386
L331.803 336.24
L331.958 336.347
L332.215 336.571
L333.091 336.201
L333.349 335.739
L334.225 333.406
L335.359 329.886
L336.286 324.841
L339.378 306.727
L340.821 299.882
L342.831 287.131
L345.407 268.985
L346.592 261.855
L347.417 257.746
L348.344 253.752
L349.22 251.363
L349.633 250.292
L350.354 248.464
L350.715 248.079
L351.179 247.929
L351.488 247.706
L352.312 247.35
L352.673 247.721
L353.137 248.227
L353.343 248.319
L353.91 248.155
L354.322 248.461
L355.043 249.819
L355.25 250.004
L355.507 249.97
L355.713 249.997
L356.074 250.39
L356.899 251.342
L357.156 251.065
L357.517 250.764
L357.981 250.705
L358.341 250.904
L358.599 250.878
L359.166 250.674
L359.475 251.041
L359.99 252.3
L360.66 253.881
L360.918 254.362
L361.227 255.319
L361.949 258.234
L362.618 261.665
L364.164 269.906
L364.577 272.011
L365.143 274.812
L366.019 278.554
L366.844 282.281
L367.668 285.655
L368.184 287.397
L368.648 288.815
L369.369 291.146
L369.884 292.788
L371.07 297.24
L372.409 300.215
L373.646 301.53
L374.11 302.637
L374.471 303.435
L374.883 303.909
L375.45 305.071
L375.965 305.835
L377.202 307.294
L377.408 307.464
L377.614 307.898
L378.954 310.982
L379.675 312.557
L380.603 314.759
L380.912 315.445
L381.685 317.357
L382.2 318.37
L382.612 319.187
L383.179 320.244
L384.416 323.017
L385.086 325.167
L385.756 326.989
L386.271 327.77
L386.58 327.835
L386.889 327.738
L388.075 328.381
L388.332 328.585
L389.002 328.611
L389.311 328.767
L389.775 328.665
L390.187 328.801
L390.445 328.687
L391.218 327.975
L391.579 327.655
L391.94 327.328
L392.403 326.655
L392.867 325.979
L393.331 325.433
L395.031 325.105
L395.959 325.232
L396.938 325.983
L397.402 326.848
L397.762 327.486
L398.587 328.638
L399.515 329.874
L399.978 329.818
L402.04 328.365
L402.555 327.736
L402.813 327.532
L403.585 326.536
L404.255 325.454
L404.874 324.146
L405.389 323.421
L405.956 323.161
L406.677 323.497
L406.832 323.553
L407.553 323.104
L407.811 322.936
L408.893 323.393
L409.408 323.93
L409.769 324.089
L410.027 324.127
L410.594 323.938
L411.521 323.638
L411.727 323.5
L412.037 323.285
L412.294 323.118
L413.376 321.356
L413.789 320.553
L414.51 319.587
L414.974 319.274
L415.489 318.928
L416.314 318.472
L417.344 317.213
L417.602 317.244
L417.756 317.235
L418.066 317.127
L418.272 317.052
L418.632 316.487
L419.302 314.724
L420.024 312.677
L420.642 311.561
L420.848 311.529
L421.003 311.67
L421.673 312.373
L422.343 312.775
L423.219 314.003
L423.579 314.481
L424.146 315.652
L424.507 316.886
L425.435 319.656
L427.444 323.892
L427.599 323.807
L428.217 322.897
L429.454 320.938
L430.691 320.383
L430.948 319.86
L432.34 316.519
L432.803 314.802
L434.143 308.38
L434.865 306.053
L435.277 305.092
L436.72 300.369
L437.596 297.355
L438.369 294.745
L440.121 290.253
L440.739 288.343
L441.512 286.296
L442.646 282.742
L443.161 281.831
L443.676 280.857
L444.81 278.934
L445.635 278.261
L445.892 278.085
L446.717 277.07
L447.129 276.955
L447.696 276.629
L448.057 276.6
L448.263 276.674
L449.139 277.316
L449.396 277.85
L449.809 278.643
L450.53 279.645
L451.355 281.171
L451.664 281.382
L452.231 281.493
L453.158 281.166
L455.013 278.697
L455.219 278.707
L456.868 279.878
L457.229 280.352
L457.693 280.917
L458.723 282.556
L459.033 282.937
L459.548 283.227
L461.455 284.731
L461.867 285.115
L462.794 285.338
L463.31 285.519
L463.516 285.519
L464.65 286.006
L467.071 289.054
L467.69 289.109
L468.772 289.541
L469.133 289.622
L469.339 289.748
L470.473 290.28
L471.349 290.503
L471.864 290.283
L472.791 290.579
L473.874 291.681
L474.647 293.667
L475.471 295.639
L475.832 296.228
L476.141 296.625
L477.172 298.434
L477.996 300.682
L478.872 302.025
L479.851 302.848
L480.624 304.298
L484.025 313.429
L485.004 315.383
L486.396 317.683
L487.065 319.398
L487.993 322.293
L488.457 323.687
L489.9 328.272
L490.57 330.35
L491.188 332.093
L491.858 333.453
L492.322 334.016
L493.198 334.04
L493.352 334.138
L493.764 334.85
L497.269 341.328
L497.526 341.497
L497.835 341.488
L498.248 341.354
L498.505 341.384
L498.866 341.401
L499.175 341.536
L499.536 341.737
L500.154 342.169
L500.567 342.442
L500.979 342.811
L501.391 342.604
L502.216 341.928
L502.525 341.496
L503.04 340.61
L503.401 340.437
L503.813 340.093
L504.637 339.285
L505.05 339.171
L505.462 338.893
L506.441 337.445
L506.802 337.406
L507.626 337.485
L508.09 336.82
L508.966 335.232
L510.667 331.984
L511.079 331.441
L511.594 330.964
L512.161 330.026
L512.831 328.15
L516.438 315.323
L517.778 309.339
L519.633 303.151
L522.673 289.568
L525.25 280.867
L525.971 279.618
L526.641 279.22
L526.95 279.339
L527.414 279.641
L527.826 280.037
L528.857 281.16
L529.372 281.569
L529.888 282.038
L530.145 281.951
L530.351 281.865
L530.609 281.829
L530.867 281.767
L531.691 282.399
L532.206 282.905
L532.464 283.181
L533.598 284.701
L534.474 285.587
L538.39 287.642
L538.751 287.844
L539.575 287.97
L540.348 287.75
L541.585 286.752
L542.822 285.434
L544.007 285.175
L544.471 285.106
L544.883 285.115
L546.841 286.332
L547.253 286.375
L547.305 286.434
L547.305 286.434" style="fill:none;stroke:#0000ff;"/>
   </g>
   <g id="matplotlib.axis_1">
    <g id="xtick_1">
     <g id="line2d_2">
      <defs>
       <path d="
M0 0
L0 -4" id="m94394d2f4b"/>
      </defs>
      <g>
       <use style="stroke:#000000;stroke-linecap:butt;stroke-width:0.5;" x="156.354338713" xlink:href="#m94394d2f4b" y="305.668420824"/>
      </g>
     </g>
     <g id="text_1">
      <!-- 5 -->
      <defs>
       <path d="
M10.7969 72.9062
L49.5156 72.9062
L49.5156 64.5938
L19.8281 64.5938
L19.8281 46.7344
Q21.9688 47.4688 24.1094 47.8281
Q26.2656 48.1875 28.4219 48.1875
Q40.625 48.1875 47.75 41.5
Q54.8906 34.8125 54.8906 23.3906
Q54.8906 11.625 47.5625 5.09375
Q40.2344 -1.42188 26.9062 -1.42188
Q22.3125 -1.42188 17.5469 -0.640625
Q12.7969 0.140625 7.71875 1.70312
L7.71875 11.625
Q12.1094 9.23438 16.7969 8.0625
Q21.4844 6.89062 26.7031 6.89062
Q35.1562 6.89062 40.0781 11.3281
Q45.0156 15.7656 45.0156 23.3906
Q45.0156 31 40.0781 35.4375
Q35.1562 39.8906 26.7031 39.8906
Q22.75 39.8906 18.8125 39.0156
Q14.8906 38.1406 10.7969 36.2812
z
" id="BitstreamVeraSans-Roman-35"/>
      </defs>
      <g transform="translate(153.995744963 316.959045824)scale(0.1 -0.1)">
       <use xlink:href="#BitstreamVeraSans-Roman-35"/>
      </g>
     </g>
    </g>
    <g id="xtick_2">
     <g id="line2d_3">
      <defs>
       <path d="
M0 0
L0 -4" id="m94394d2f4b"/>
      </defs>
      <g>
       <use style="stroke:#000000;stroke-linecap:butt;stroke-width:0.5;" x="280.685250683" xlink:href="#m94394d2f4b" y="305.668420824"/>
      </g>
     </g>
     <g id="text_2">
      <!-- 10 -->
      <defs>
       <path d="
M31.7812 66.4062
Q24.1719 66.4062 20.3281 58.9062
Q16.5 51.4219 16.5 36.375
Q16.5 21.3906 20.3281 13.8906
Q24.1719 6.39062 31.7812 6.39062
Q39.4531 6.39062 43.2812 13.8906
Q47.125 21.3906 47.125 36.375
Q47.125 51.4219 43.2812 58.9062
Q39.4531 66.4062 31.7812 66.4062
M31.7812 74.2188
Q44.0469 74.2188 50.5156 64.5156
Q56.9844 54.8281 56.9844 36.375
Q56.9844 17.9688 50.5156 8.26562
Q44.0469 -1.42188 31.7812 -1.42188
Q19.5312 -1.42188 13.0625 8.26562
Q6.59375 17.9688 6.59375 36.375
Q6.59375 54.8281 13.0625 64.5156
Q19.5312 74.2188 31.7812 74.2188" id="BitstreamVeraSans-Roman-30"/>
       <path d="
M12.4062 8.29688
L28.5156 8.29688
L28.5156 63.9219
L10.9844 60.4062
L10.9844 69.3906
L28.4219 72.9062
L38.2812 72.9062
L38.2812 8.29688
L54.3906 8.29688
L54.3906 0
L12.4062 0
z
" id="BitstreamVeraSans-Roman-31"/>
      </defs>
      <g transform="translate(275.204000683 317.090295824)scale(0.1 -0.1)">
       <use xlink:href="#BitstreamVeraSans-Roman-31"/>
       <use x="63.623046875" xlink:href="#BitstreamVeraSans-Roman-30"/>
      </g>
     </g>
    </g>
    <g id="xtick_3">
     <g id="line2d_4">
      <defs>
       <path d="
M0 0
L0 -4" id="m94394d2f4b"/>
      </defs>
      <g>
       <use style="stroke:#000000;stroke-linecap:butt;stroke-width:0.5;" x="405.016162652" xlink:href="#m94394d2f4b" y="305.668420824"/>
      </g>
     </g>
     <g id="text_3">
      <!-- 15 -->
      <g transform="translate(399.639600152 316.959045824)scale(0.1 -0.1)">
       <use xlink:href="#BitstreamVeraSans-Roman-31"/>
       <use x="63.623046875" xlink:href="#BitstreamVeraSans-Roman-35"/>
      </g>
     </g>
    </g>
    <g id="xtick_4">
     <g id="line2d_5">
      <defs>
       <path d="
M0 0
L0 -4" id="m94394d2f4b"/>
      </defs>
      <g>
       <use style="stroke:#000000;stroke-linecap:butt;stroke-width:0.5;" x="529.347074621" xlink:href="#m94394d2f4b" y="305.668420824"/>
      </g>
     </g>
     <g id="text_4">
      <!-- 20 -->
      <defs>
       <path d="
M19.1875 8.29688
L53.6094 8.29688
L53.6094 0
L7.32812 0
L7.32812 8.29688
Q12.9375 14.1094 22.625 23.8906
Q32.3281 33.6875 34.8125 36.5312
Q39.5469 41.8438 41.4219 45.5312
Q43.3125 49.2188 43.3125 52.7812
Q43.3125 58.5938 39.2344 62.25
Q35.1562 65.9219 28.6094 65.9219
Q23.9688 65.9219 18.8125 64.3125
Q13.6719 62.7031 7.8125 59.4219
L7.8125 69.3906
Q13.7656 71.7812 18.9375 73
Q24.125 74.2188 28.4219 74.2188
Q39.75 74.2188 46.4844 68.5469
Q53.2188 62.8906 53.2188 53.4219
Q53.2188 48.9219 51.5312 44.8906
Q49.8594 40.875 45.4062 35.4062
Q44.1875 33.9844 37.6406 27.2188
Q31.1094 20.4531 19.1875 8.29688" id="BitstreamVeraSans-Roman-32"/>
      </defs>
      <g transform="translate(523.683012121 317.090295824)scale(0.1 -0.1)">
       <use xlink:href="#BitstreamVeraSans-Roman-32"/>
       <use x="63.623046875" xlink:href="#BitstreamVeraSans-Roman-30"/>
      </g>
     </g>
    </g>
    <g id="xtick_5">
     <g id="line2d_6">
      <defs>
       <path d="
M0 0
L0 -2" id="mf9ee0b01dd"/>
      </defs>
      <g>
       <use style="stroke:#000000;stroke-linecap:butt;stroke-width:0.5;" x="56.8896091378" xlink:href="#mf9ee0b01dd" y="305.668420824"/>
      </g>
     </g>
    </g>
    <g id="xtick_6">
     <g id="line2d_7">
      <defs>
       <path d="
M0 0
L0 -2" id="mf9ee0b01dd"/>
      </defs>
      <g>
       <use style="stroke:#000000;stroke-linecap:butt;stroke-width:0.5;" x="81.7557915317" xlink:href="#mf9ee0b01dd" y="305.668420824"/>
      </g>
     </g>
    </g>
    <g id="xtick_7">
     <g id="line2d_8">
      <defs>
       <path d="
M0 0
L0 -2" id="mf9ee0b01dd"/>
      </defs>
      <g>
       <use style="stroke:#000000;stroke-linecap:butt;stroke-width:0.5;" x="106.621973926" xlink:href="#mf9ee0b01dd" y="305.668420824"/>
      </g>
     </g>
    </g>
    <g id="xtick_8">
     <g id="line2d_9">
      <defs>
       <path d="
M0 0
L0 -2" id="mf9ee0b01dd"/>
      </defs>
      <g>
       <use style="stroke:#000000;stroke-linecap:butt;stroke-width:0.5;" x="131.488156319" xlink:href="#mf9ee0b01dd" y="305.668420824"/>
      </g>
     </g>
    </g>
    <g id="xtick_9">
     <g id="line2d_10">
      <defs>
       <path d="
M0 0
L0 -2" id="mf9ee0b01dd"/>
      </defs>
      <g>
       <use style="stroke:#000000;stroke-linecap:butt;stroke-width:0.5;" x="181.220521107" xlink:href="#mf9ee0b01dd" y="305.668420824"/>
      </g>
     </g>
    </g>
    <g id="xtick_10">
     <g id="line2d_11">
      <defs>
       <path d="
M0 0
L0 -2" id="mf9ee0b01dd"/>
      </defs>
      <g>
       <use style="stroke:#000000;stroke-linecap:butt;stroke-width:0.5;" x="206.086703501" xlink:href="#mf9ee0b01dd" y="305.668420824"/>
      </g>
     </g>
    </g>
    <g id="xtick_11">
     <g id="line2d_12">
      <defs>
       <path d="
M0 0
L0 -2" id="mf9ee0b01dd"/>
      </defs>
      <g>
       <use style="stroke:#000000;stroke-linecap:butt;stroke-width:0.5;" x="230.952885895" xlink:href="#mf9ee0b01dd" y="305.668420824"/>
      </g>
     </g>
    </g>
    <g id="xtick_12">
     <g id="line2d_13">
      <defs>
       <path d="
M0 0
L0 -2" id="mf9ee0b01dd"/>
      </defs>
      <g>
       <use style="stroke:#000000;stroke-linecap:butt;stroke-width:0.5;" x="255.819068289" xlink:href="#mf9ee0b01dd" y="305.668420824"/>
      </g>
     </g>
    </g>
    <g id="xtick_13">
     <g id="line2d_14">
      <defs>
       <path d="
M0 0
L0 -2" id="mf9ee0b01dd"/>
      </defs>
      <g>
       <use style="stroke:#000000;stroke-linecap:butt;stroke-width:0.5;" x="305.551433077" xlink:href="#mf9ee0b01dd" y="305.668420824"/>
      </g>
     </g>
    </g>
    <g id="xtick_14">
     <g id="line2d_15">
      <defs>
       <path d="
M0 0
L0 -2" id="mf9ee0b01dd"/>
      </defs>
      <g>
       <use style="stroke:#000000;stroke-linecap:butt;stroke-width:0.5;" x="330.41761547" xlink:href="#mf9ee0b01dd" y="305.668420824"/>
      </g>
     </g>
    </g>
    <g id="xtick_15">
     <g id="line2d_16">
      <defs>
       <path d="
M0 0
L0 -2" id="mf9ee0b01dd"/>
      </defs>
      <g>
       <use style="stroke:#000000;stroke-linecap:butt;stroke-width:0.5;" x="355.283797864" xlink:href="#mf9ee0b01dd" y="305.668420824"/>
      </g>
     </g>
    </g>
    <g id="xtick_16">
     <g id="line2d_17">
      <defs>
       <path d="
M0 0
L0 -2" id="mf9ee0b01dd"/>
      </defs>
      <g>
       <use style="stroke:#000000;stroke-linecap:butt;stroke-width:0.5;" x="380.149980258" xlink:href="#mf9ee0b01dd" y="305.668420824"/>
      </g>
     </g>
    </g>
    <g id="xtick_17">
     <g id="line2d_18">
      <defs>
       <path d="
M0 0
L0 -2" id="mf9ee0b01dd"/>
      </defs>
      <g>
       <use style="stroke:#000000;stroke-linecap:butt;stroke-width:0.5;" x="429.882345046" xlink:href="#mf9ee0b01dd" y="305.668420824"/>
      </g>
     </g>
    </g>
    <g id="xtick_18">
     <g id="line2d_19">
      <defs>
       <path d="
M0 0
L0 -2" id="mf9ee0b01dd"/>
      </defs>
      <g>
       <use style="stroke:#000000;stroke-linecap:butt;stroke-width:0.5;" x="454.74852744" xlink:href="#mf9ee0b01dd" y="305.668420824"/>
      </g>
     </g>
    </g>
    <g id="xtick_19">
     <g id="line2d_20">
      <defs>
       <path d="
M0 0
L0 -2" id="mf9ee0b01dd"/>
      </defs>
      <g>
       <use style="stroke:#000000;stroke-linecap:butt;stroke-width:0.5;" x="479.614709834" xlink:href="#mf9ee0b01dd" y="305.668420824"/>
      </g>
     </g>
    </g>
    <g id="xtick_20">
     <g id="line2d_21">
      <defs>
       <path d="
M0 0
L0 -2" id="mf9ee0b01dd"/>
      </defs>
      <g>
       <use style="stroke:#000000;stroke-linecap:butt;stroke-width:0.5;" x="504.480892228" xlink:href="#mf9ee0b01dd" y="305.668420824"/>
      </g>
     </g>
    </g>
   </g>
   <g id="matplotlib.axis_2">
    <g id="ytick_1">
     <g id="line2d_22">
      <defs>
       <path d="
M0 0
L4 0" id="mc5eea73c7e"/>
      </defs>
      <g>
       <use style="stroke:#000000;stroke-linecap:butt;stroke-width:0.5;" x="29.2984375" xlink:href="#mc5eea73c7e" y="370.545163208"/>
      </g>
     </g>
     <g id="text_5">
      <!-- -0.1 -->
      <defs>
       <path d="
M10.6875 12.4062
L21 12.4062
L21 0
L10.6875 0
z
" id="BitstreamVeraSans-Roman-2e"/>
       <path d="
M4.89062 31.3906
L31.2031 31.3906
L31.2031 23.3906
L4.89062 23.3906
z
" id="BitstreamVeraSans-Roman-2d"/>
      </defs>
      <g transform="translate(7.2 374.185006958)scale(0.1 -0.1)">
       <use xlink:href="#BitstreamVeraSans-Roman-2d"/>
       <use x="36.083984375" xlink:href="#BitstreamVeraSans-Roman-30"/>
       <use x="99.70703125" xlink:href="#BitstreamVeraSans-Roman-2e"/>
       <use x="131.494140625" xlink:href="#BitstreamVeraSans-Roman-31"/>
      </g>
     </g>
    </g>
    <g id="ytick_2">
     <g id="line2d_23">
      <defs>
       <path d="
M0 0
L4 0" id="mc5eea73c7e"/>
      </defs>
      <g>
       <use style="stroke:#000000;stroke-linecap:butt;stroke-width:0.5;" x="29.2984375" xlink:href="#mc5eea73c7e" y="305.668420824"/>
      </g>
     </g>
     <g id="text_6">
      <!-- 0 -->
      <g transform="translate(20.259375 309.308264574)scale(0.1 -0.1)">
       <use xlink:href="#BitstreamVeraSans-Roman-30"/>
      </g>
     </g>
    </g>
    <g id="ytick_3">
     <g id="line2d_24">
      <defs>
       <path d="
M0 0
L4 0" id="mc5eea73c7e"/>
      </defs>
      <g>
       <use style="stroke:#000000;stroke-linecap:butt;stroke-width:0.5;" x="29.2984375" xlink:href="#mc5eea73c7e" y="240.79167844"/>
      </g>
     </g>
     <g id="text_7">
      <!-- 0.1 -->
      <g transform="translate(10.978125 244.43152219)scale(0.1 -0.1)">
       <use xlink:href="#BitstreamVeraSans-Roman-30"/>
       <use x="63.623046875" xlink:href="#BitstreamVeraSans-Roman-2e"/>
       <use x="95.41015625" xlink:href="#BitstreamVeraSans-Roman-31"/>
      </g>
     </g>
    </g>
    <g id="ytick_4">
     <g id="line2d_25">
      <defs>
       <path d="
M0 0
L4 0" id="mc5eea73c7e"/>
      </defs>
      <g>
       <use style="stroke:#000000;stroke-linecap:butt;stroke-width:0.5;" x="29.2984375" xlink:href="#mc5eea73c7e" y="175.914936055"/>
      </g>
     </g>
     <g id="text_8">
      <!-- 0.2 -->
      <g transform="translate(11.05625 179.554779805)scale(0.1 -0.1)">
       <use xlink:href="#BitstreamVeraSans-Roman-30"/>
       <use x="63.623046875" xlink:href="#BitstreamVeraSans-Roman-2e"/>
       <use x="95.41015625" xlink:href="#BitstreamVeraSans-Roman-32"/>
      </g>
     </g>
    </g>
    <g id="ytick_5">
     <g id="line2d_26">
      <defs>
       <path d="
M0 0
L4 0" id="mc5eea73c7e"/>
      </defs>
      <g>
       <use style="stroke:#000000;stroke-linecap:butt;stroke-width:0.5;" x="29.2984375" xlink:href="#mc5eea73c7e" y="111.038193671"/>
      </g>
     </g>
     <g id="text_9">
      <!-- 0.3 -->
      <defs>
       <path d="
M40.5781 39.3125
Q47.6562 37.7969 51.625 33
Q55.6094 28.2188 55.6094 21.1875
Q55.6094 10.4062 48.1875 4.48438
Q40.7656 -1.42188 27.0938 -1.42188
Q22.5156 -1.42188 17.6562 -0.515625
Q12.7969 0.390625 7.625 2.20312
L7.625 11.7188
Q11.7188 9.32812 16.5938 8.10938
Q21.4844 6.89062 26.8125 6.89062
Q36.0781 6.89062 40.9375 10.5469
Q45.7969 14.2031 45.7969 21.1875
Q45.7969 27.6406 41.2812 31.2656
Q36.7656 34.9062 28.7188 34.9062
L20.2188 34.9062
L20.2188 43.0156
L29.1094 43.0156
Q36.375 43.0156 40.2344 45.9219
Q44.0938 48.8281 44.0938 54.2969
Q44.0938 59.9062 40.1094 62.9062
Q36.1406 65.9219 28.7188 65.9219
Q24.6562 65.9219 20.0156 65.0312
Q15.375 64.1562 9.8125 62.3125
L9.8125 71.0938
Q15.4375 72.6562 20.3438 73.4375
Q25.25 74.2188 29.5938 74.2188
Q40.8281 74.2188 47.3594 69.1094
Q53.9062 64.0156 53.9062 55.3281
Q53.9062 49.2656 50.4375 45.0938
Q46.9688 40.9219 40.5781 39.3125" id="BitstreamVeraSans-Roman-33"/>
      </defs>
      <g transform="translate(10.85625 114.678037421)scale(0.1 -0.1)">
       <use xlink:href="#BitstreamVeraSans-Roman-30"/>
       <use x="63.623046875" xlink:href="#BitstreamVeraSans-Roman-2e"/>
       <use x="95.41015625" xlink:href="#BitstreamVeraSans-Roman-33"/>
      </g>
     </g>
    </g>
    <g id="ytick_6">
     <g id="line2d_27">
      <defs>
       <path d="
M0 0
L4 0" id="mc5eea73c7e"/>
      </defs>
      <g>
       <use style="stroke:#000000;stroke-linecap:butt;stroke-width:0.5;" x="29.2984375" xlink:href="#mc5eea73c7e" y="46.1614512863"/>
      </g>
     </g>
     <g id="text_10">
      <!-- 0.4 -->
      <defs>
       <path d="
M37.7969 64.3125
L12.8906 25.3906
L37.7969 25.3906
z

M35.2031 72.9062
L47.6094 72.9062
L47.6094 25.3906
L58.0156 25.3906
L58.0156 17.1875
L47.6094 17.1875
L47.6094 0
L37.7969 0
L37.7969 17.1875
L4.89062 17.1875
L4.89062 26.7031
z
" id="BitstreamVeraSans-Roman-34"/>
      </defs>
      <g transform="translate(10.615625 49.8012950363)scale(0.1 -0.1)">
       <use xlink:href="#BitstreamVeraSans-Roman-30"/>
       <use x="63.623046875" xlink:href="#BitstreamVeraSans-Roman-2e"/>
       <use x="95.41015625" xlink:href="#BitstreamVeraSans-Roman-34"/>
      </g>
     </g>
    </g>
    <g id="ytick_7">
     <g id="line2d_28">
      <defs>
       <path d="
M0 0
L2 0" id="mbc1d9efb14"/>
      </defs>
      <g>
       <use style="stroke:#000000;stroke-linecap:butt;stroke-width:0.5;" x="29.2984375" xlink:href="#mbc1d9efb14" y="409.471208639"/>
      </g>
     </g>
    </g>
    <g id="ytick_8">
     <g id="line2d_29">
      <defs>
       <path d="
M0 0
L2 0" id="mbc1d9efb14"/>
      </defs>
      <g>
       <use style="stroke:#000000;stroke-linecap:butt;stroke-width:0.5;" x="29.2984375" xlink:href="#mbc1d9efb14" y="396.495860162"/>
      </g>
     </g>
    </g>
    <g id="ytick_9">
     <g id="line2d_30">
      <defs>
       <path d="
M0 0
L2 0" id="mbc1d9efb14"/>
      </defs>
      <g>
       <use style="stroke:#000000;stroke-linecap:butt;stroke-width:0.5;" x="29.2984375" xlink:href="#mbc1d9efb14" y="383.520511685"/>
      </g>
     </g>
    </g>
    <g id="ytick_10">
     <g id="line2d_31">
      <defs>
       <path d="
M0 0
L2 0" id="mbc1d9efb14"/>
      </defs>
      <g>
       <use style="stroke:#000000;stroke-linecap:butt;stroke-width:0.5;" x="29.2984375" xlink:href="#mbc1d9efb14" y="370.545163208"/>
      </g>
     </g>
    </g>
    <g id="ytick_11">
     <g id="line2d_32">
      <defs>
       <path d="
M0 0
L2 0" id="mbc1d9efb14"/>
      </defs>
      <g>
       <use style="stroke:#000000;stroke-linecap:butt;stroke-width:0.5;" x="29.2984375" xlink:href="#mbc1d9efb14" y="357.569814732"/>
      </g>
     </g>
    </g>
    <g id="ytick_12">
     <g id="line2d_33">
      <defs>
       <path d="
M0 0
L2 0" id="mbc1d9efb14"/>
      </defs>
      <g>
       <use style="stroke:#000000;stroke-linecap:butt;stroke-width:0.5;" x="29.2984375" xlink:href="#mbc1d9efb14" y="344.594466255"/>
      </g>
     </g>
    </g>
    <g id="ytick_13">
     <g id="line2d_34">
      <defs>
       <path d="
M0 0
L2 0" id="mbc1d9efb14"/>
      </defs>
      <g>
       <use style="stroke:#000000;stroke-linecap:butt;stroke-width:0.5;" x="29.2984375" xlink:href="#mbc1d9efb14" y="331.619117778"/>
      </g>
     </g>
    </g>
    <g id="ytick_14">
     <g id="line2d_35">
      <defs>
       <path d="
M0 0
L2 0" id="mbc1d9efb14"/>
      </defs>
      <g>
       <use style="stroke:#000000;stroke-linecap:butt;stroke-width:0.5;" x="29.2984375" xlink:href="#mbc1d9efb14" y="318.643769301"/>
      </g>
     </g>
    </g>
    <g id="ytick_15">
     <g id="line2d_36">
      <defs>
       <path d="
M0 0
L2 0" id="mbc1d9efb14"/>
      </defs>
      <g>
       <use style="stroke:#000000;stroke-linecap:butt;stroke-width:0.5;" x="29.2984375" xlink:href="#mbc1d9efb14" y="305.668420824"/>
      </g>
     </g>
    </g>
    <g id="ytick_16">
     <g id="line2d_37">
      <defs>
       <path d="
M0 0
L2 0" id="mbc1d9efb14"/>
      </defs>
      <g>
       <use style="stroke:#000000;stroke-linecap:butt;stroke-width:0.5;" x="29.2984375" xlink:href="#mbc1d9efb14" y="292.693072347"/>
      </g>
     </g>
    </g>
    <g id="ytick_17">
     <g id="line2d_38">
      <defs>
       <path d="
M0 0
L2 0" id="mbc1d9efb14"/>
      </defs>
      <g>
       <use style="stroke:#000000;stroke-linecap:butt;stroke-width:0.5;" x="29.2984375" xlink:href="#mbc1d9efb14" y="279.71772387"/>
      </g>
     </g>
    </g>
    <g id="ytick_18">
     <g id="line2d_39">
      <defs>
       <path d="
M0 0
L2 0" id="mbc1d9efb14"/>
      </defs>
      <g>
       <use style="stroke:#000000;stroke-linecap:butt;stroke-width:0.5;" x="29.2984375" xlink:href="#mbc1d9efb14" y="266.742375393"/>
      </g>
     </g>
    </g>
    <g id="ytick_19">
     <g id="line2d_40">
      <defs>
       <path d="
M0 0
L2 0" id="mbc1d9efb14"/>
      </defs>
      <g>
       <use style="stroke:#000000;stroke-linecap:butt;stroke-width:0.5;" x="29.2984375" xlink:href="#mbc1d9efb14" y="253.767026916"/>
      </g>
     </g>
    </g>
    <g id="ytick_20">
     <g id="line2d_41">
      <defs>
       <path d="
M0 0
L2 0" id="mbc1d9efb14"/>
      </defs>
      <g>
       <use style="stroke:#000000;stroke-linecap:butt;stroke-width:0.5;" x="29.2984375" xlink:href="#mbc1d9efb14" y="240.79167844"/>
      </g>
     </g>
    </g>
    <g id="ytick_21">
     <g id="line2d_42">
      <defs>
       <path d="
M0 0
L2 0" id="mbc1d9efb14"/>
      </defs>
      <g>
       <use style="stroke:#000000;stroke-linecap:butt;stroke-width:0.5;" x="29.2984375" xlink:href="#mbc1d9efb14" y="227.816329963"/>
      </g>
     </g>
    </g>
    <g id="ytick_22">
     <g id="line2d_43">
      <defs>
       <path d="
M0 0
L2 0" id="mbc1d9efb14"/>
      </defs>
      <g>
       <use style="stroke:#000000;stroke-linecap:butt;stroke-width:0.5;" x="29.2984375" xlink:href="#mbc1d9efb14" y="214.840981486"/>
      </g>
     </g>
    </g>
    <g id="ytick_23">
     <g id="line2d_44">
      <defs>
       <path d="
M0 0
L2 0" id="mbc1d9efb14"/>
      </defs>
      <g>
       <use style="stroke:#000000;stroke-linecap:butt;stroke-width:0.5;" x="29.2984375" xlink:href="#mbc1d9efb14" y="201.865633009"/>
      </g>
     </g>
    </g>
    <g id="ytick_24">
     <g id="line2d_45">
      <defs>
       <path d="
M0 0
L2 0" id="mbc1d9efb14"/>
      </defs>
      <g>
       <use style="stroke:#000000;stroke-linecap:butt;stroke-width:0.5;" x="29.2984375" xlink:href="#mbc1d9efb14" y="188.890284532"/>
      </g>
     </g>
    </g>
    <g id="ytick_25">
     <g id="line2d_46">
      <defs>
       <path d="
M0 0
L2 0" id="mbc1d9efb14"/>
      </defs>
      <g>
       <use style="stroke:#000000;stroke-linecap:butt;stroke-width:0.5;" x="29.2984375" xlink:href="#mbc1d9efb14" y="175.914936055"/>
      </g>
     </g>
    </g>
    <g id="ytick_26">
     <g id="line2d_47">
      <defs>
       <path d="
M0 0
L2 0" id="mbc1d9efb14"/>
      </defs>
      <g>
       <use style="stroke:#000000;stroke-linecap:butt;stroke-width:0.5;" x="29.2984375" xlink:href="#mbc1d9efb14" y="162.939587578"/>
      </g>
     </g>
    </g>
    <g id="ytick_27">
     <g id="line2d_48">
      <defs>
       <path d="
M0 0
L2 0" id="mbc1d9efb14"/>
      </defs>
      <g>
       <use style="stroke:#000000;stroke-linecap:butt;stroke-width:0.5;" x="29.2984375" xlink:href="#mbc1d9efb14" y="149.964239101"/>
      </g>
     </g>
    </g>
    <g id="ytick_28">
     <g id="line2d_49">
      <defs>
       <path d="
M0 0
L2 0" id="mbc1d9efb14"/>
      </defs>
      <g>
       <use style="stroke:#000000;stroke-linecap:butt;stroke-width:0.5;" x="29.2984375" xlink:href="#mbc1d9efb14" y="136.988890624"/>
      </g>
     </g>
    </g>
    <g id="ytick_29">
     <g id="line2d_50">
      <defs>
       <path d="
M0 0
L2 0" id="mbc1d9efb14"/>
      </defs>
      <g>
       <use style="stroke:#000000;stroke-linecap:butt;stroke-width:0.5;" x="29.2984375" xlink:href="#mbc1d9efb14" y="124.013542148"/>
      </g>
     </g>
    </g>
    <g id="ytick_30">
     <g id="line2d_51">
      <defs>
       <path d="
M0 0
L2 0" id="mbc1d9efb14"/>
      </defs>
      <g>
       <use style="stroke:#000000;stroke-linecap:butt;stroke-width:0.5;" x="29.2984375" xlink:href="#mbc1d9efb14" y="111.038193671"/>
      </g>
     </g>
    </g>
    <g id="ytick_31">
     <g id="line2d_52">
      <defs>
       <path d="
M0 0
L2 0" id="mbc1d9efb14"/>
      </defs>
      <g>
       <use style="stroke:#000000;stroke-linecap:butt;stroke-width:0.5;" x="29.2984375" xlink:href="#mbc1d9efb14" y="98.0628451938"/>
      </g>
     </g>
    </g>
    <g id="ytick_32">
     <g id="line2d_53">
      <defs>
       <path d="
M0 0
L2 0" id="mbc1d9efb14"/>
      </defs>
      <g>
       <use style="stroke:#000000;stroke-linecap:butt;stroke-width:0.5;" x="29.2984375" xlink:href="#mbc1d9efb14" y="85.087496717"/>
      </g>
     </g>
    </g>
    <g id="ytick_33">
     <g id="line2d_54">
      <defs>
       <path d="
M0 0
L2 0" id="mbc1d9efb14"/>
      </defs>
      <g>
       <use style="stroke:#000000;stroke-linecap:butt;stroke-width:0.5;" x="29.2984375" xlink:href="#mbc1d9efb14" y="72.1121482401"/>
      </g>
     </g>
    </g>
    <g id="ytick_34">
     <g id="line2d_55">
      <defs>
       <path d="
M0 0
L2 0" id="mbc1d9efb14"/>
      </defs>
      <g>
       <use style="stroke:#000000;stroke-linecap:butt;stroke-width:0.5;" x="29.2984375" xlink:href="#mbc1d9efb14" y="59.1367997632"/>
      </g>
     </g>
    </g>
    <g id="ytick_35">
     <g id="line2d_56">
      <defs>
       <path d="
M0 0
L2 0" id="mbc1d9efb14"/>
      </defs>
      <g>
       <use style="stroke:#000000;stroke-linecap:butt;stroke-width:0.5;" x="29.2984375" xlink:href="#mbc1d9efb14" y="46.1614512863"/>
      </g>
     </g>
    </g>
    <g id="ytick_36">
     <g id="line2d_57">
      <defs>
       <path d="
M0 0
L2 0" id="mbc1d9efb14"/>
      </defs>
      <g>
       <use style="stroke:#000000;stroke-linecap:butt;stroke-width:0.5;" x="29.2984375" xlink:href="#mbc1d9efb14" y="33.1861028094"/>
      </g>
     </g>
    </g>
    <g id="ytick_37">
     <g id="line2d_58">
      <defs>
       <path d="
M0 0
L2 0" id="mbc1d9efb14"/>
      </defs>
      <g>
       <use style="stroke:#000000;stroke-linecap:butt;stroke-width:0.5;" x="29.2984375" xlink:href="#mbc1d9efb14" y="20.2107543325"/>
      </g>
     </g>
    </g>
   </g>
   <g id="patch_3">
    <path d="
M39.2984 305.668
L557.266 305.668" style="fill:none;stroke:#000000;stroke-width:0.8;"/>
   </g>
   <g id="patch_4">
    <path d="
M29.2984 413.28
L29.2984 7.2" style="fill:none;stroke:#000000;stroke-width:0.8;"/>
   </g>
  </g>
 </g>
 <defs>
  <clipPath id="pbda54c63f9">
   <rect height="406.08" width="517.9675" x="39.2984375" y="7.2"/>
  </clipPath>
 </defs>
</svg>
