<?xml version="1.0" encoding="utf-8" standalone="no"?>
<!DOCTYPE svg PUBLIC "-//W3C//DTD SVG 1.1//EN"
  "http://www.w3.org/Graphics/SVG/1.1/DTD/svg11.dtd">
<!-- Created with matplotlib (http://matplotlib.sourceforge.net/) -->
<svg height="420pt" version="1.1" viewBox="0 0 564 420" width="564pt" xmlns="http://www.w3.org/2000/svg" xmlns:xlink="http://www.w3.org/1999/xlink">
 <defs>
  <style type="text/css">
*{stroke-linecap:square;stroke-linejoin:round;}
  </style>
 </defs>
 <g id="figure_1">
  <g id="patch_1">
   <path d="
M0 420.48
L564.505 420.48
L564.505 0
L0 0
z
" style="fill:#ffffff;"/>
  </g>
  <g id="axes_1">
   <g id="patch_2">
    <path d="
M39.6609 413.28
L557.305 413.28
L557.305 7.2
L39.6609 7.2
z
" style="fill:#ffffff;"/>
   </g>
   <g id="line2d_1">
    <path clip-path="url(#pc338702c0a)" d="
M49.6156 405.471
L50.9546 355.878
L52.3451 312.25
L53.787 273.736
L55.2805 239.632
L56.8254 209.345
L58.4219 182.376
L59.8124 162.221
L61.4603 145.738
L63.1598 130.987
L64.8592 118.128
L66.6102 106.527
L67.0222 103.364
L68.9276 86.2465
L70.8331 71.0949
L72.4295 59.8591
L74.232 54.7814
L76.1374 50.045
L78.0944 45.7558
L80.1543 41.7769
L82.2658 38.1841
L84.2227 34.9189
L86.4887 27.5893
L87.5187 24.7717
L89.8876 19.339
L91.999 15.0092
L94.5225 18.6455
L96.4279 21.474
L99.6208 27.8259
L102.865 34.2493
L105.543 47.8939
L105.749 48.1497
L109.869 51.6739
L110.384 52.2192
L112.496 57.184
L116.203 61.8171
L119.087 67.4808
L123.722 79.0034
L124.907 82.4841
L126.452 89.1265
L128.512 99.4726
L129.542 105.186
L134.022 125.818
L136.494 132.846
L137.524 136.235
L138.708 140.718
L139.584 144.148
L141.129 149.359
L142.313 151.394
L144.682 158.742
L146.588 165.759
L147.824 170.645
L148.905 175.014
L149.884 180.055
L152.51 196.838
L156.063 216.002
L158.226 225.179
L159.565 229.336
L161.574 232.562
L162.913 232.5
L163.376 232.102
L164.2 231.017
L165.745 228.477
L167.805 225.814
L170.535 221.844
L171.101 220.648
L171.667 220.023
L172.491 219.267
L173.264 218.39
L174.397 217.096
L175.375 215.812
L177.641 210.833
L178.671 209.004
L179.289 207.738
L180.474 206.107
L181.607 204.893
L182.894 202.298
L183.718 199.593
L185.006 193.737
L186.036 188.334
L190.31 167.291
L192.061 157.673
L193.039 153.808
L194.018 150.534
L195.048 147.089
L195.923 144.122
L197.314 140.145
L198.189 138.096
L200.507 133.249
L201.228 131.693
L202.103 129.245
L203.339 125.485
L204.266 123.177
L204.936 122.258
L205.399 121.904
L206.584 121.569
L207.665 121.701
L208.798 122.554
L209.313 122.851
L210.343 123.401
L210.806 123.687
L211.218 123.961
L212.403 124.437
L213.381 124.961
L214.154 125.797
L214.566 125.906
L216.111 125.84
L216.78 125.879
L217.45 126.102
L217.965 126.073
L218.686 125.728
L219.098 125.522
L219.561 125.374
L219.973 124.977
L220.231 124.815
L220.849 124.762
L221.467 124.648
L221.827 124.429
L222.651 123.67
L224.402 120.833
L225.278 119.175
L225.896 118.36
L226.874 117.506
L227.286 117.137
L228.574 115.137
L229.192 114.204
L229.706 113.664
L230.17 112.735
L231.766 109.248
L232.333 108.281
L234.238 104.639
L234.856 103.502
L235.886 101.618
L236.35 101.184
L236.968 100.602
L237.689 99.9949
L239.594 99.6975
L240.109 99.5465
L240.521 99.6151
L241.036 99.9973
L241.448 100.303
L241.757 100.337
L242.53 100.121
L243.302 99.6939
L243.663 99.547
L244.126 99.3543
L244.641 99.1517
L245.053 98.8541
L245.62 98.4494
L246.032 98.3322
L246.598 98.5134
L247.062 98.7736
L247.731 98.9671
L248.092 99.2424
L249.276 100.456
L250.1 101.988
L252.778 108.966
L255.816 116.831
L257.31 119.493
L258.649 122.108
L260.657 125.799
L262.563 127.294
L263.129 127.805
L264.056 127.986
L265.653 127.828
L265.962 127.885
L266.374 128.05
L268.485 129.837
L269.103 130.538
L269.566 130.654
L270.081 130.712
L270.442 130.821
L270.957 130.796
L271.214 130.972
L271.832 131.766
L273.326 134.531
L274.253 136.624
L276.467 140.605
L277.24 142.274
L278.991 145.135
L279.506 146.002
L280.124 147.417
L282.132 152.107
L283.677 156.131
L285.686 162.618
L286.716 165.865
L288.157 170.347
L289.651 173.892
L290.475 175.761
L291.453 178.337
L292.329 179.735
L292.844 180.233
L294.183 181.324
L294.543 181.59
L295.11 181.951
L296.14 181.994
L296.655 182.105
L297.324 182.242
L297.736 182.177
L298.045 182.217
L298.663 182.263
L299.024 182.38
L299.539 182.727
L300.878 184.008
L302.732 185.997
L304.277 187.368
L304.895 187.14
L305.564 186.887
L305.976 186.728
L306.594 186.491
L307.727 185.751
L309.838 184.502
L312.259 181.978
L312.98 181.009
L314.061 178.869
L315.452 174.946
L316.533 171.844
L319.263 166.193
L320.653 163.924
L321.323 163.12
L322.765 161.91
L323.898 161.09
L324.722 160.482
L325.237 159.974
L325.752 159.145
L326.318 157.989
L327.554 155.078
L330.335 148.997
L331.88 145.145
L332.652 143.808
L333.322 143.111
L334.3 142.269
L335.176 141.135
L336.618 140.05
L338.472 139.186
L339.708 138.942
L340.48 138.719
L341.459 138.955
L342.489 139.288
L342.849 139.213
L343.467 138.842
L344.858 137.438
L345.682 136.398
L346.351 135.958
L347.432 135.724
L347.999 135.833
L348.514 136.023
L350.471 136.147
L352.685 134.393
L353.149 133.765
L355.054 131.232
L355.621 130.944
L356.496 130.493
L357.629 129.845
L358.247 129.732
L360.41 129.155
L361.955 127.544
L362.419 127.236
L362.728 127.079
L363.552 126.753
L364.067 126.594
L364.839 126.565
L365.714 126.874
L366.126 126.981
L366.487 126.796
L368.495 124.705
L369.834 122.903
L370.555 122.108
L371.534 121.297
L372.049 120.923
L372.512 120.527
L373.542 120.161
L374.572 119.407
L375.036 119.429
L376.375 119.781
L376.89 119.643
L377.765 119.704
L378.229 119.904
L378.641 119.891
L379.259 119.601
L379.877 119.307
L380.598 118.942
L381.473 118.427
L382.091 118.044
L382.555 117.784
L383.276 117.309
L384.151 117.272
L384.717 117.441
L385.747 118.007
L386.52 118.091
L388.734 117.888
L389.198 118.12
L390.743 119.055
L391.412 119.436
L392.545 119.755
L393.73 120.448
L394.863 121.477
L395.79 122.277
L396.356 122.773
L396.871 123.174
L398.004 124.355
L398.983 125.404
L402.176 130.607
L404.75 134.276
L406.81 138.06
L407.583 139.625
L408.51 141.356
L411.548 147.598
L412.939 148.947
L413.917 149.643
L414.535 150.322
L416.235 152.108
L417.419 152.728
L417.883 153.038
L421.024 155.87
L423.239 158.379
L424.165 159.366
L424.732 159.44
L425.35 159.547
L425.813 159.654
L426.689 159.962
L427.41 160.358
L428.543 161.051
L429.779 162.374
L431.942 164.409
L432.869 165.033
L434.105 165.732
L435.083 165.977
L436.577 167.059
L438.225 168.399
L439.718 169.78
L442.087 171.304
L442.705 171.837
L443.271 171.958
L444.404 172.135
L444.765 171.996
L445.692 171.633
L446.413 171.219
L447.494 170.364
L451.511 168.855
L452.593 168.052
L453.623 167.125
L454.704 165.766
L455.528 164.309
L458.618 157.568
L461.966 150.672
L463.459 148.781
L466.703 144.401
L467.373 143.768
L468.145 143.086
L469.124 142.536
L472.523 141.319
L473.089 141.573
L473.656 141.957
L474.583 142.696
L475.149 142.762
L475.767 142.592
L476.797 142.413
L478.445 142.352
L478.857 142.357
L479.475 142.359
L480.248 142.279
L480.969 141.982
L481.689 141.584
L482.153 141.477
L484.831 139.923
L485.5 139.912
L487.148 140.096
L488.024 139.756
L490.496 138.825
L491.268 138.806
L492.71 138.229
L495.079 136.503
L495.749 136.102
L497.654 134.391
L498.787 133.682
L499.457 133.419
L499.92 133.206
L501.156 132.454
L503.834 130.589
L504.606 129.781
L506.512 127.783
L507.593 126.72
L508.16 126.452
L509.962 125.746
L510.838 125.244
L512.64 124.189
L512.949 123.992
L514.031 123.335
L514.597 123.234
L515.627 123.362
L516.348 123.462
L517.79 123.249
L518.254 123.285
L519.387 123.359
L520.931 123.165
L521.755 123.181
L522.579 123.298
L523.403 123.547
L524.176 123.681
L524.742 123.675
L525.412 123.683
L526.236 123.858
L527.935 124.68
L528.502 125.295
L529.532 126.452
L530.356 127.259
L531.334 128.557
L532.467 129.968
L536.484 134.008
L537.154 134.368
L538.184 134.687
L539.574 135.126
L540.398 135.611
L541.994 136.651
L543.385 138.111
L544.054 138.697
L544.672 139.301
L546.835 142.162
L547.35 143.052
L547.35 143.052" style="fill:none;stroke:#0000ff;"/>
   </g>
   <g id="matplotlib.axis_1">
    <g id="xtick_1">
     <g id="line2d_2">
      <defs>
       <path d="
M0 0
L0 -4" id="m44ed65d01f"/>
      </defs>
      <g>
       <use style="stroke:#000000;stroke-linecap:butt;stroke-width:0.5;" x="156.643744807" xlink:href="#m44ed65d01f" y="143.661921474"/>
      </g>
     </g>
     <g id="text_1">
      <!-- 5 -->
      <defs>
       <path d="
M10.7969 72.9062
L49.5156 72.9062
L49.5156 64.5938
L19.8281 64.5938
L19.8281 46.7344
Q21.9688 47.4688 24.1094 47.8281
Q26.2656 48.1875 28.4219 48.1875
Q40.625 48.1875 47.75 41.5
Q54.8906 34.8125 54.8906 23.3906
Q54.8906 11.625 47.5625 5.09375
Q40.2344 -1.42188 26.9062 -1.42188
Q22.3125 -1.42188 17.5469 -0.640625
Q12.7969 0.140625 7.71875 1.70312
L7.71875 11.625
Q12.1094 9.23438 16.7969 8.0625
Q21.4844 6.89062 26.7031 6.89062
Q35.1562 6.89062 40.0781 11.3281
Q45.0156 15.7656 45.0156 23.3906
Q45.0156 31 40.0781 35.4375
Q35.1562 39.8906 26.7031 39.8906
Q22.75 39.8906 18.8125 39.0156
Q14.8906 38.1406 10.7969 36.2812
z
" id="BitstreamVeraSans-Roman-35"/>
      </defs>
      <g transform="translate(154.285151057 154.952546474)scale(0.1 -0.1)">
       <use xlink:href="#BitstreamVeraSans-Roman-35"/>
      </g>
     </g>
    </g>
    <g id="xtick_2">
     <g id="line2d_3">
      <defs>
       <path d="
M0 0
L0 -4" id="m44ed65d01f"/>
      </defs>
      <g>
       <use style="stroke:#000000;stroke-linecap:butt;stroke-width:0.5;" x="280.897020092" xlink:href="#m44ed65d01f" y="143.661921474"/>
      </g>
     </g>
     <g id="text_2">
      <!-- 10 -->
      <defs>
       <path d="
M31.7812 66.4062
Q24.1719 66.4062 20.3281 58.9062
Q16.5 51.4219 16.5 36.375
Q16.5 21.3906 20.3281 13.8906
Q24.1719 6.39062 31.7812 6.39062
Q39.4531 6.39062 43.2812 13.8906
Q47.125 21.3906 47.125 36.375
Q47.125 51.4219 43.2812 58.9062
Q39.4531 66.4062 31.7812 66.4062
M31.7812 74.2188
Q44.0469 74.2188 50.5156 64.5156
Q56.9844 54.8281 56.9844 36.375
Q56.9844 17.9688 50.5156 8.26562
Q44.0469 -1.42188 31.7812 -1.42188
Q19.5312 -1.42188 13.0625 8.26562
Q6.59375 17.9688 6.59375 36.375
Q6.59375 54.8281 13.0625 64.5156
Q19.5312 74.2188 31.7812 74.2188" id="BitstreamVeraSans-Roman-30"/>
       <path d="
M12.4062 8.29688
L28.5156 8.29688
L28.5156 63.9219
L10.9844 60.4062
L10.9844 69.3906
L28.4219 72.9062
L38.2812 72.9062
L38.2812 8.29688
L54.3906 8.29688
L54.3906 0
L12.4062 0
z
" id="BitstreamVeraSans-Roman-31"/>
      </defs>
      <g transform="translate(275.415770092 155.083796474)scale(0.1 -0.1)">
       <use xlink:href="#BitstreamVeraSans-Roman-31"/>
       <use x="63.623046875" xlink:href="#BitstreamVeraSans-Roman-30"/>
      </g>
     </g>
    </g>
    <g id="xtick_3">
     <g id="line2d_4">
      <defs>
       <path d="
M0 0
L0 -4" id="m44ed65d01f"/>
      </defs>
      <g>
       <use style="stroke:#000000;stroke-linecap:butt;stroke-width:0.5;" x="405.150295377" xlink:href="#m44ed65d01f" y="143.661921474"/>
      </g>
     </g>
     <g id="text_3">
      <!-- 15 -->
      <g transform="translate(399.773732877 154.952546474)scale(0.1 -0.1)">
       <use xlink:href="#BitstreamVeraSans-Roman-31"/>
       <use x="63.623046875" xlink:href="#BitstreamVeraSans-Roman-35"/>
      </g>
     </g>
    </g>
    <g id="xtick_4">
     <g id="line2d_5">
      <defs>
       <path d="
M0 0
L0 -4" id="m44ed65d01f"/>
      </defs>
      <g>
       <use style="stroke:#000000;stroke-linecap:butt;stroke-width:0.5;" x="529.403570662" xlink:href="#m44ed65d01f" y="143.661921474"/>
      </g>
     </g>
     <g id="text_4">
      <!-- 20 -->
      <defs>
       <path d="
M19.1875 8.29688
L53.6094 8.29688
L53.6094 0
L7.32812 0
L7.32812 8.29688
Q12.9375 14.1094 22.625 23.8906
Q32.3281 33.6875 34.8125 36.5312
Q39.5469 41.8438 41.4219 45.5312
Q43.3125 49.2188 43.3125 52.7812
Q43.3125 58.5938 39.2344 62.25
Q35.1562 65.9219 28.6094 65.9219
Q23.9688 65.9219 18.8125 64.3125
Q13.6719 62.7031 7.8125 59.4219
L7.8125 69.3906
Q13.7656 71.7812 18.9375 73
Q24.125 74.2188 28.4219 74.2188
Q39.75 74.2188 46.4844 68.5469
Q53.2188 62.8906 53.2188 53.4219
Q53.2188 48.9219 51.5312 44.8906
Q49.8594 40.875 45.4062 35.4062
Q44.1875 33.9844 37.6406 27.2188
Q31.1094 20.4531 19.1875 8.29688" id="BitstreamVeraSans-Roman-32"/>
      </defs>
      <g transform="translate(523.739508162 155.083796474)scale(0.1 -0.1)">
       <use xlink:href="#BitstreamVeraSans-Roman-32"/>
       <use x="63.623046875" xlink:href="#BitstreamVeraSans-Roman-30"/>
      </g>
     </g>
    </g>
    <g id="xtick_5">
     <g id="line2d_6">
      <defs>
       <path d="
M0 0
L0 -2" id="m06dd23cfa9"/>
      </defs>
      <g>
       <use style="stroke:#000000;stroke-linecap:butt;stroke-width:0.5;" x="57.2411245788" xlink:href="#m06dd23cfa9" y="143.661921474"/>
      </g>
     </g>
    </g>
    <g id="xtick_6">
     <g id="line2d_7">
      <defs>
       <path d="
M0 0
L0 -2" id="m06dd23cfa9"/>
      </defs>
      <g>
       <use style="stroke:#000000;stroke-linecap:butt;stroke-width:0.5;" x="82.0917796358" xlink:href="#m06dd23cfa9" y="143.661921474"/>
      </g>
     </g>
    </g>
    <g id="xtick_7">
     <g id="line2d_8">
      <defs>
       <path d="
M0 0
L0 -2" id="m06dd23cfa9"/>
      </defs>
      <g>
       <use style="stroke:#000000;stroke-linecap:butt;stroke-width:0.5;" x="106.942434693" xlink:href="#m06dd23cfa9" y="143.661921474"/>
      </g>
     </g>
    </g>
    <g id="xtick_8">
     <g id="line2d_9">
      <defs>
       <path d="
M0 0
L0 -2" id="m06dd23cfa9"/>
      </defs>
      <g>
       <use style="stroke:#000000;stroke-linecap:butt;stroke-width:0.5;" x="131.79308975" xlink:href="#m06dd23cfa9" y="143.661921474"/>
      </g>
     </g>
    </g>
    <g id="xtick_9">
     <g id="line2d_10">
      <defs>
       <path d="
M0 0
L0 -2" id="m06dd23cfa9"/>
      </defs>
      <g>
       <use style="stroke:#000000;stroke-linecap:butt;stroke-width:0.5;" x="181.494399864" xlink:href="#m06dd23cfa9" y="143.661921474"/>
      </g>
     </g>
    </g>
    <g id="xtick_10">
     <g id="line2d_11">
      <defs>
       <path d="
M0 0
L0 -2" id="m06dd23cfa9"/>
      </defs>
      <g>
       <use style="stroke:#000000;stroke-linecap:butt;stroke-width:0.5;" x="206.345054921" xlink:href="#m06dd23cfa9" y="143.661921474"/>
      </g>
     </g>
    </g>
    <g id="xtick_11">
     <g id="line2d_12">
      <defs>
       <path d="
M0 0
L0 -2" id="m06dd23cfa9"/>
      </defs>
      <g>
       <use style="stroke:#000000;stroke-linecap:butt;stroke-width:0.5;" x="231.195709978" xlink:href="#m06dd23cfa9" y="143.661921474"/>
      </g>
     </g>
    </g>
    <g id="xtick_12">
     <g id="line2d_13">
      <defs>
       <path d="
M0 0
L0 -2" id="m06dd23cfa9"/>
      </defs>
      <g>
       <use style="stroke:#000000;stroke-linecap:butt;stroke-width:0.5;" x="256.046365035" xlink:href="#m06dd23cfa9" y="143.661921474"/>
      </g>
     </g>
    </g>
    <g id="xtick_13">
     <g id="line2d_14">
      <defs>
       <path d="
M0 0
L0 -2" id="m06dd23cfa9"/>
      </defs>
      <g>
       <use style="stroke:#000000;stroke-linecap:butt;stroke-width:0.5;" x="305.747675149" xlink:href="#m06dd23cfa9" y="143.661921474"/>
      </g>
     </g>
    </g>
    <g id="xtick_14">
     <g id="line2d_15">
      <defs>
       <path d="
M0 0
L0 -2" id="m06dd23cfa9"/>
      </defs>
      <g>
       <use style="stroke:#000000;stroke-linecap:butt;stroke-width:0.5;" x="330.598330206" xlink:href="#m06dd23cfa9" y="143.661921474"/>
      </g>
     </g>
    </g>
    <g id="xtick_15">
     <g id="line2d_16">
      <defs>
       <path d="
M0 0
L0 -2" id="m06dd23cfa9"/>
      </defs>
      <g>
       <use style="stroke:#000000;stroke-linecap:butt;stroke-width:0.5;" x="355.448985263" xlink:href="#m06dd23cfa9" y="143.661921474"/>
      </g>
     </g>
    </g>
    <g id="xtick_16">
     <g id="line2d_17">
      <defs>
       <path d="
M0 0
L0 -2" id="m06dd23cfa9"/>
      </defs>
      <g>
       <use style="stroke:#000000;stroke-linecap:butt;stroke-width:0.5;" x="380.29964032" xlink:href="#m06dd23cfa9" y="143.661921474"/>
      </g>
     </g>
    </g>
    <g id="xtick_17">
     <g id="line2d_18">
      <defs>
       <path d="
M0 0
L0 -2" id="m06dd23cfa9"/>
      </defs>
      <g>
       <use style="stroke:#000000;stroke-linecap:butt;stroke-width:0.5;" x="430.000950434" xlink:href="#m06dd23cfa9" y="143.661921474"/>
      </g>
     </g>
    </g>
    <g id="xtick_18">
     <g id="line2d_19">
      <defs>
       <path d="
M0 0
L0 -2" id="m06dd23cfa9"/>
      </defs>
      <g>
       <use style="stroke:#000000;stroke-linecap:butt;stroke-width:0.5;" x="454.851605491" xlink:href="#m06dd23cfa9" y="143.661921474"/>
      </g>
     </g>
    </g>
    <g id="xtick_19">
     <g id="line2d_20">
      <defs>
       <path d="
M0 0
L0 -2" id="m06dd23cfa9"/>
      </defs>
      <g>
       <use style="stroke:#000000;stroke-linecap:butt;stroke-width:0.5;" x="479.702260548" xlink:href="#m06dd23cfa9" y="143.661921474"/>
      </g>
     </g>
    </g>
    <g id="xtick_20">
     <g id="line2d_21">
      <defs>
       <path d="
M0 0
L0 -2" id="m06dd23cfa9"/>
      </defs>
      <g>
       <use style="stroke:#000000;stroke-linecap:butt;stroke-width:0.5;" x="504.552915605" xlink:href="#m06dd23cfa9" y="143.661921474"/>
      </g>
     </g>
    </g>
   </g>
   <g id="matplotlib.axis_2">
    <g id="ytick_1">
     <g id="line2d_22">
      <defs>
       <path d="
M0 0
L4 0" id="m5aaf488d15"/>
      </defs>
      <g>
       <use style="stroke:#000000;stroke-linecap:butt;stroke-width:0.5;" x="29.6609375" xlink:href="#m5aaf488d15" y="381.085451526"/>
      </g>
     </g>
     <g id="text_5">
      <!-- -1 -->
      <defs>
       <path d="
M4.89062 31.3906
L31.2031 31.3906
L31.2031 23.3906
L4.89062 23.3906
z
" id="BitstreamVeraSans-Roman-2d"/>
      </defs>
      <g transform="translate(17.103125 384.730764026)scale(0.1 -0.1)">
       <use xlink:href="#BitstreamVeraSans-Roman-2d"/>
       <use x="36.083984375" xlink:href="#BitstreamVeraSans-Roman-31"/>
      </g>
     </g>
    </g>
    <g id="ytick_2">
     <g id="line2d_23">
      <defs>
       <path d="
M0 0
L4 0" id="m5aaf488d15"/>
      </defs>
      <g>
       <use style="stroke:#000000;stroke-linecap:butt;stroke-width:0.5;" x="29.6609375" xlink:href="#m5aaf488d15" y="333.600745515"/>
      </g>
     </g>
     <g id="text_6">
      <!-- -0.8 -->
      <defs>
       <path d="
M31.7812 34.625
Q24.75 34.625 20.7188 30.8594
Q16.7031 27.0938 16.7031 20.5156
Q16.7031 13.9219 20.7188 10.1562
Q24.75 6.39062 31.7812 6.39062
Q38.8125 6.39062 42.8594 10.1719
Q46.9219 13.9688 46.9219 20.5156
Q46.9219 27.0938 42.8906 30.8594
Q38.875 34.625 31.7812 34.625
M21.9219 38.8125
Q15.5781 40.375 12.0312 44.7188
Q8.5 49.0781 8.5 55.3281
Q8.5 64.0625 14.7188 69.1406
Q20.9531 74.2188 31.7812 74.2188
Q42.6719 74.2188 48.875 69.1406
Q55.0781 64.0625 55.0781 55.3281
Q55.0781 49.0781 51.5312 44.7188
Q48 40.375 41.7031 38.8125
Q48.8281 37.1562 52.7969 32.3125
Q56.7812 27.4844 56.7812 20.5156
Q56.7812 9.90625 50.3125 4.23438
Q43.8438 -1.42188 31.7812 -1.42188
Q19.7344 -1.42188 13.25 4.23438
Q6.78125 9.90625 6.78125 20.5156
Q6.78125 27.4844 10.7812 32.3125
Q14.7969 37.1562 21.9219 38.8125
M18.3125 54.3906
Q18.3125 48.7344 21.8438 45.5625
Q25.3906 42.3906 31.7812 42.3906
Q38.1406 42.3906 41.7188 45.5625
Q45.3125 48.7344 45.3125 54.3906
Q45.3125 60.0625 41.7188 63.2344
Q38.1406 66.4062 31.7812 66.4062
Q25.3906 66.4062 21.8438 63.2344
Q18.3125 60.0625 18.3125 54.3906" id="BitstreamVeraSans-Roman-38"/>
       <path d="
M10.6875 12.4062
L21 12.4062
L21 0
L10.6875 0
z
" id="BitstreamVeraSans-Roman-2e"/>
      </defs>
      <g transform="translate(7.3234375 337.240589265)scale(0.1 -0.1)">
       <use xlink:href="#BitstreamVeraSans-Roman-2d"/>
       <use x="36.083984375" xlink:href="#BitstreamVeraSans-Roman-30"/>
       <use x="99.70703125" xlink:href="#BitstreamVeraSans-Roman-2e"/>
       <use x="131.494140625" xlink:href="#BitstreamVeraSans-Roman-38"/>
      </g>
     </g>
    </g>
    <g id="ytick_3">
     <g id="line2d_24">
      <defs>
       <path d="
M0 0
L4 0" id="m5aaf488d15"/>
      </defs>
      <g>
       <use style="stroke:#000000;stroke-linecap:butt;stroke-width:0.5;" x="29.6609375" xlink:href="#m5aaf488d15" y="286.116039505"/>
      </g>
     </g>
     <g id="text_7">
      <!-- -0.6 -->
      <defs>
       <path d="
M33.0156 40.375
Q26.375 40.375 22.4844 35.8281
Q18.6094 31.2969 18.6094 23.3906
Q18.6094 15.5312 22.4844 10.9531
Q26.375 6.39062 33.0156 6.39062
Q39.6562 6.39062 43.5312 10.9531
Q47.4062 15.5312 47.4062 23.3906
Q47.4062 31.2969 43.5312 35.8281
Q39.6562 40.375 33.0156 40.375
M52.5938 71.2969
L52.5938 62.3125
Q48.875 64.0625 45.0938 64.9844
Q41.3125 65.9219 37.5938 65.9219
Q27.8281 65.9219 22.6719 59.3281
Q17.5312 52.7344 16.7969 39.4062
Q19.6719 43.6562 24.0156 45.9219
Q28.375 48.1875 33.5938 48.1875
Q44.5781 48.1875 50.9531 41.5156
Q57.3281 34.8594 57.3281 23.3906
Q57.3281 12.1562 50.6875 5.35938
Q44.0469 -1.42188 33.0156 -1.42188
Q20.3594 -1.42188 13.6719 8.26562
Q6.98438 17.9688 6.98438 36.375
Q6.98438 53.6562 15.1875 63.9375
Q23.3906 74.2188 37.2031 74.2188
Q40.9219 74.2188 44.7031 73.4844
Q48.4844 72.75 52.5938 71.2969" id="BitstreamVeraSans-Roman-36"/>
      </defs>
      <g transform="translate(7.26875 289.755883255)scale(0.1 -0.1)">
       <use xlink:href="#BitstreamVeraSans-Roman-2d"/>
       <use x="36.083984375" xlink:href="#BitstreamVeraSans-Roman-30"/>
       <use x="99.70703125" xlink:href="#BitstreamVeraSans-Roman-2e"/>
       <use x="131.494140625" xlink:href="#BitstreamVeraSans-Roman-36"/>
      </g>
     </g>
    </g>
    <g id="ytick_4">
     <g id="line2d_25">
      <defs>
       <path d="
M0 0
L4 0" id="m5aaf488d15"/>
      </defs>
      <g>
       <use style="stroke:#000000;stroke-linecap:butt;stroke-width:0.5;" x="29.6609375" xlink:href="#m5aaf488d15" y="238.631333494"/>
      </g>
     </g>
     <g id="text_8">
      <!-- -0.4 -->
      <defs>
       <path d="
M37.7969 64.3125
L12.8906 25.3906
L37.7969 25.3906
z

M35.2031 72.9062
L47.6094 72.9062
L47.6094 25.3906
L58.0156 25.3906
L58.0156 17.1875
L47.6094 17.1875
L47.6094 0
L37.7969 0
L37.7969 17.1875
L4.89062 17.1875
L4.89062 26.7031
z
" id="BitstreamVeraSans-Roman-34"/>
      </defs>
      <g transform="translate(7.2 242.271177244)scale(0.1 -0.1)">
       <use xlink:href="#BitstreamVeraSans-Roman-2d"/>
       <use x="36.083984375" xlink:href="#BitstreamVeraSans-Roman-30"/>
       <use x="99.70703125" xlink:href="#BitstreamVeraSans-Roman-2e"/>
       <use x="131.494140625" xlink:href="#BitstreamVeraSans-Roman-34"/>
      </g>
     </g>
    </g>
    <g id="ytick_5">
     <g id="line2d_26">
      <defs>
       <path d="
M0 0
L4 0" id="m5aaf488d15"/>
      </defs>
      <g>
       <use style="stroke:#000000;stroke-linecap:butt;stroke-width:0.5;" x="29.6609375" xlink:href="#m5aaf488d15" y="191.146627484"/>
      </g>
     </g>
     <g id="text_9">
      <!-- -0.2 -->
      <g transform="translate(7.640625 194.786471234)scale(0.1 -0.1)">
       <use xlink:href="#BitstreamVeraSans-Roman-2d"/>
       <use x="36.083984375" xlink:href="#BitstreamVeraSans-Roman-30"/>
       <use x="99.70703125" xlink:href="#BitstreamVeraSans-Roman-2e"/>
       <use x="131.494140625" xlink:href="#BitstreamVeraSans-Roman-32"/>
      </g>
     </g>
    </g>
    <g id="ytick_6">
     <g id="line2d_27">
      <defs>
       <path d="
M0 0
L4 0" id="m5aaf488d15"/>
      </defs>
      <g>
       <use style="stroke:#000000;stroke-linecap:butt;stroke-width:0.5;" x="29.6609375" xlink:href="#m5aaf488d15" y="143.661921474"/>
      </g>
     </g>
     <g id="text_10">
      <!-- 0 -->
      <g transform="translate(20.621875 147.301765224)scale(0.1 -0.1)">
       <use xlink:href="#BitstreamVeraSans-Roman-30"/>
      </g>
     </g>
    </g>
    <g id="ytick_7">
     <g id="line2d_28">
      <defs>
       <path d="
M0 0
L4 0" id="m5aaf488d15"/>
      </defs>
      <g>
       <use style="stroke:#000000;stroke-linecap:butt;stroke-width:0.5;" x="29.6609375" xlink:href="#m5aaf488d15" y="96.1772154631"/>
      </g>
     </g>
     <g id="text_11">
      <!-- 0.2 -->
      <g transform="translate(11.41875 99.8170592131)scale(0.1 -0.1)">
       <use xlink:href="#BitstreamVeraSans-Roman-30"/>
       <use x="63.623046875" xlink:href="#BitstreamVeraSans-Roman-2e"/>
       <use x="95.41015625" xlink:href="#BitstreamVeraSans-Roman-32"/>
      </g>
     </g>
    </g>
    <g id="ytick_8">
     <g id="line2d_29">
      <defs>
       <path d="
M0 0
L4 0" id="m5aaf488d15"/>
      </defs>
      <g>
       <use style="stroke:#000000;stroke-linecap:butt;stroke-width:0.5;" x="29.6609375" xlink:href="#m5aaf488d15" y="48.6925094526"/>
      </g>
     </g>
     <g id="text_12">
      <!-- 0.4 -->
      <g transform="translate(10.978125 52.3323532026)scale(0.1 -0.1)">
       <use xlink:href="#BitstreamVeraSans-Roman-30"/>
       <use x="63.623046875" xlink:href="#BitstreamVeraSans-Roman-2e"/>
       <use x="95.41015625" xlink:href="#BitstreamVeraSans-Roman-34"/>
      </g>
     </g>
    </g>
    <g id="ytick_9">
     <g id="line2d_30">
      <defs>
       <path d="
M0 0
L2 0" id="m0d921daf71"/>
      </defs>
      <g>
       <use style="stroke:#000000;stroke-linecap:butt;stroke-width:0.5;" x="29.6609375" xlink:href="#m0d921daf71" y="404.827804531"/>
      </g>
     </g>
    </g>
    <g id="ytick_10">
     <g id="line2d_31">
      <defs>
       <path d="
M0 0
L2 0" id="m0d921daf71"/>
      </defs>
      <g>
       <use style="stroke:#000000;stroke-linecap:butt;stroke-width:0.5;" x="29.6609375" xlink:href="#m0d921daf71" y="392.956628028"/>
      </g>
     </g>
    </g>
    <g id="ytick_11">
     <g id="line2d_32">
      <defs>
       <path d="
M0 0
L2 0" id="m0d921daf71"/>
      </defs>
      <g>
       <use style="stroke:#000000;stroke-linecap:butt;stroke-width:0.5;" x="29.6609375" xlink:href="#m0d921daf71" y="369.214275023"/>
      </g>
     </g>
    </g>
    <g id="ytick_12">
     <g id="line2d_33">
      <defs>
       <path d="
M0 0
L2 0" id="m0d921daf71"/>
      </defs>
      <g>
       <use style="stroke:#000000;stroke-linecap:butt;stroke-width:0.5;" x="29.6609375" xlink:href="#m0d921daf71" y="357.343098521"/>
      </g>
     </g>
    </g>
    <g id="ytick_13">
     <g id="line2d_34">
      <defs>
       <path d="
M0 0
L2 0" id="m0d921daf71"/>
      </defs>
      <g>
       <use style="stroke:#000000;stroke-linecap:butt;stroke-width:0.5;" x="29.6609375" xlink:href="#m0d921daf71" y="345.471922018"/>
      </g>
     </g>
    </g>
    <g id="ytick_14">
     <g id="line2d_35">
      <defs>
       <path d="
M0 0
L2 0" id="m0d921daf71"/>
      </defs>
      <g>
       <use style="stroke:#000000;stroke-linecap:butt;stroke-width:0.5;" x="29.6609375" xlink:href="#m0d921daf71" y="321.729569013"/>
      </g>
     </g>
    </g>
    <g id="ytick_15">
     <g id="line2d_36">
      <defs>
       <path d="
M0 0
L2 0" id="m0d921daf71"/>
      </defs>
      <g>
       <use style="stroke:#000000;stroke-linecap:butt;stroke-width:0.5;" x="29.6609375" xlink:href="#m0d921daf71" y="309.85839251"/>
      </g>
     </g>
    </g>
    <g id="ytick_16">
     <g id="line2d_37">
      <defs>
       <path d="
M0 0
L2 0" id="m0d921daf71"/>
      </defs>
      <g>
       <use style="stroke:#000000;stroke-linecap:butt;stroke-width:0.5;" x="29.6609375" xlink:href="#m0d921daf71" y="297.987216007"/>
      </g>
     </g>
    </g>
    <g id="ytick_17">
     <g id="line2d_38">
      <defs>
       <path d="
M0 0
L2 0" id="m0d921daf71"/>
      </defs>
      <g>
       <use style="stroke:#000000;stroke-linecap:butt;stroke-width:0.5;" x="29.6609375" xlink:href="#m0d921daf71" y="274.244863002"/>
      </g>
     </g>
    </g>
    <g id="ytick_18">
     <g id="line2d_39">
      <defs>
       <path d="
M0 0
L2 0" id="m0d921daf71"/>
      </defs>
      <g>
       <use style="stroke:#000000;stroke-linecap:butt;stroke-width:0.5;" x="29.6609375" xlink:href="#m0d921daf71" y="262.3736865"/>
      </g>
     </g>
    </g>
    <g id="ytick_19">
     <g id="line2d_40">
      <defs>
       <path d="
M0 0
L2 0" id="m0d921daf71"/>
      </defs>
      <g>
       <use style="stroke:#000000;stroke-linecap:butt;stroke-width:0.5;" x="29.6609375" xlink:href="#m0d921daf71" y="250.502509997"/>
      </g>
     </g>
    </g>
    <g id="ytick_20">
     <g id="line2d_41">
      <defs>
       <path d="
M0 0
L2 0" id="m0d921daf71"/>
      </defs>
      <g>
       <use style="stroke:#000000;stroke-linecap:butt;stroke-width:0.5;" x="29.6609375" xlink:href="#m0d921daf71" y="226.760156992"/>
      </g>
     </g>
    </g>
    <g id="ytick_21">
     <g id="line2d_42">
      <defs>
       <path d="
M0 0
L2 0" id="m0d921daf71"/>
      </defs>
      <g>
       <use style="stroke:#000000;stroke-linecap:butt;stroke-width:0.5;" x="29.6609375" xlink:href="#m0d921daf71" y="214.888980489"/>
      </g>
     </g>
    </g>
    <g id="ytick_22">
     <g id="line2d_43">
      <defs>
       <path d="
M0 0
L2 0" id="m0d921daf71"/>
      </defs>
      <g>
       <use style="stroke:#000000;stroke-linecap:butt;stroke-width:0.5;" x="29.6609375" xlink:href="#m0d921daf71" y="203.017803987"/>
      </g>
     </g>
    </g>
    <g id="ytick_23">
     <g id="line2d_44">
      <defs>
       <path d="
M0 0
L2 0" id="m0d921daf71"/>
      </defs>
      <g>
       <use style="stroke:#000000;stroke-linecap:butt;stroke-width:0.5;" x="29.6609375" xlink:href="#m0d921daf71" y="179.275450981"/>
      </g>
     </g>
    </g>
    <g id="ytick_24">
     <g id="line2d_45">
      <defs>
       <path d="
M0 0
L2 0" id="m0d921daf71"/>
      </defs>
      <g>
       <use style="stroke:#000000;stroke-linecap:butt;stroke-width:0.5;" x="29.6609375" xlink:href="#m0d921daf71" y="167.404274479"/>
      </g>
     </g>
    </g>
    <g id="ytick_25">
     <g id="line2d_46">
      <defs>
       <path d="
M0 0
L2 0" id="m0d921daf71"/>
      </defs>
      <g>
       <use style="stroke:#000000;stroke-linecap:butt;stroke-width:0.5;" x="29.6609375" xlink:href="#m0d921daf71" y="155.533097976"/>
      </g>
     </g>
    </g>
    <g id="ytick_26">
     <g id="line2d_47">
      <defs>
       <path d="
M0 0
L2 0" id="m0d921daf71"/>
      </defs>
      <g>
       <use style="stroke:#000000;stroke-linecap:butt;stroke-width:0.5;" x="29.6609375" xlink:href="#m0d921daf71" y="131.790744971"/>
      </g>
     </g>
    </g>
    <g id="ytick_27">
     <g id="line2d_48">
      <defs>
       <path d="
M0 0
L2 0" id="m0d921daf71"/>
      </defs>
      <g>
       <use style="stroke:#000000;stroke-linecap:butt;stroke-width:0.5;" x="29.6609375" xlink:href="#m0d921daf71" y="119.919568468"/>
      </g>
     </g>
    </g>
    <g id="ytick_28">
     <g id="line2d_49">
      <defs>
       <path d="
M0 0
L2 0" id="m0d921daf71"/>
      </defs>
      <g>
       <use style="stroke:#000000;stroke-linecap:butt;stroke-width:0.5;" x="29.6609375" xlink:href="#m0d921daf71" y="108.048391966"/>
      </g>
     </g>
    </g>
    <g id="ytick_29">
     <g id="line2d_50">
      <defs>
       <path d="
M0 0
L2 0" id="m0d921daf71"/>
      </defs>
      <g>
       <use style="stroke:#000000;stroke-linecap:butt;stroke-width:0.5;" x="29.6609375" xlink:href="#m0d921daf71" y="84.3060389605"/>
      </g>
     </g>
    </g>
    <g id="ytick_30">
     <g id="line2d_51">
      <defs>
       <path d="
M0 0
L2 0" id="m0d921daf71"/>
      </defs>
      <g>
       <use style="stroke:#000000;stroke-linecap:butt;stroke-width:0.5;" x="29.6609375" xlink:href="#m0d921daf71" y="72.4348624579"/>
      </g>
     </g>
    </g>
    <g id="ytick_31">
     <g id="line2d_52">
      <defs>
       <path d="
M0 0
L2 0" id="m0d921daf71"/>
      </defs>
      <g>
       <use style="stroke:#000000;stroke-linecap:butt;stroke-width:0.5;" x="29.6609375" xlink:href="#m0d921daf71" y="60.5636859553"/>
      </g>
     </g>
    </g>
    <g id="ytick_32">
     <g id="line2d_53">
      <defs>
       <path d="
M0 0
L2 0" id="m0d921daf71"/>
      </defs>
      <g>
       <use style="stroke:#000000;stroke-linecap:butt;stroke-width:0.5;" x="29.6609375" xlink:href="#m0d921daf71" y="36.82133295"/>
      </g>
     </g>
    </g>
    <g id="ytick_33">
     <g id="line2d_54">
      <defs>
       <path d="
M0 0
L2 0" id="m0d921daf71"/>
      </defs>
      <g>
       <use style="stroke:#000000;stroke-linecap:butt;stroke-width:0.5;" x="29.6609375" xlink:href="#m0d921daf71" y="24.9501564474"/>
      </g>
     </g>
    </g>
   </g>
   <g id="patch_3">
    <path d="
M39.6609 143.662
L557.305 143.662" style="fill:none;stroke:#000000;stroke-width:0.8;"/>
   </g>
   <g id="patch_4">
    <path d="
M29.6609 413.28
L29.6609 7.2" style="fill:none;stroke:#000000;stroke-width:0.8;"/>
   </g>
  </g>
 </g>
 <defs>
  <clipPath id="pc338702c0a">
   <rect height="406.08" width="517.6440625" x="39.6609375" y="7.2"/>
  </clipPath>
 </defs>
</svg>
