<?xml version="1.0" encoding="utf-8" standalone="no"?>
<!DOCTYPE svg PUBLIC "-//W3C//DTD SVG 1.1//EN"
  "http://www.w3.org/Graphics/SVG/1.1/DTD/svg11.dtd">
<!-- Created with matplotlib (http://matplotlib.sourceforge.net/) -->
<svg height="420pt" version="1.1" viewBox="0 0 564 420" width="564pt" xmlns="http://www.w3.org/2000/svg" xmlns:xlink="http://www.w3.org/1999/xlink">
 <defs>
  <style type="text/css">
*{stroke-linecap:square;stroke-linejoin:round;}
  </style>
 </defs>
 <g id="figure_1">
  <g id="patch_1">
   <path d="
M-4.44089e-16 420.48
L564.466 420.48
L564.466 0
L-4.44089e-16 0
z
" style="fill:#ffffff;"/>
  </g>
  <g id="axes_1">
   <g id="patch_2">
    <path d="
M39.2984 413.28
L557.266 413.28
L557.266 7.2
L39.2984 7.2
z
" style="fill:#ffffff;"/>
   </g>
   <g id="line2d_1">
    <path clip-path="url(#pbda54c63f9)" d="
M49.2594 33.2175
L49.9808 24.5829
L50.5992 19.5534
L51.166 16.6509
L51.5782 15.4727
L51.8874 15.0674
L52.1451 15.0236
L52.4027 15.2373
L52.7119 15.8171
L53.1242 17.1083
L53.6395 19.5012
L54.3094 23.8024
L55.1339 30.7555
L56.113 41.109
L57.2466 55.5586
L58.638 76.3438
L59.5655 89.724
L60.5446 98.5544
L61.7298 111.438
L63.0696 128.524
L64.6671 151.886
L66.5222 182.442
L68.6865 221.915
L71.2115 272.151
L72.2421 291.527
L73.7365 307.808
L75.437 328.872
L77.3952 356.05
L79.611 390.062
L80.4355 403.006
L80.487 402.827
L81.26 400.655
L81.9299 399.41
L82.4967 398.8
L82.9605 398.594
L83.3728 398.624
L83.8366 398.894
L84.3519 399.476
L84.9702 400.555
L85.6917 402.321
L86.5162 404.978
L86.6707 405.471
L87.4952 402.587
L88.2682 400.616
L88.9381 399.454
L89.5049 398.852
L90.0203 398.598
L90.484 398.602
L90.9478 398.822
L91.4631 399.311
L91.6177 399.5
L91.6692 399.291
L93.0606 381.383
L94.5034 365.579
L95.7917 353.678
L96.0494 353.119
L96.7193 352.158
L97.3376 351.642
L97.8529 351.477
L98.3683 351.548
L98.8836 351.847
L99.4504 352.435
L100.12 353.469
L100.893 355.105
L101.769 357.515
L103.006 361.01
L103.882 363.349
L104.861 366.615
L105.428 369.084
L106.871 377.702
L108.468 388.687
L110.014 400.423
L110.117 400.138
L111.045 397.991
L111.818 396.71
L112.127 396.115
L113.209 391.737
L114.034 389.179
L114.6 389.172
L115.167 389.384
L115.734 389.816
L115.889 388.808
L117.332 378.717
L117.589 376.464
L119.187 361.962
L120.681 350.348
L123.824 328.683
L124.546 323.656
L127.638 294.636
L127.947 291.141
L129.081 277.739
L130.73 263.918
L132.585 249.783
L133.461 244.182
L134.182 243.499
L134.234 243.46
L134.285 243.538
L135.264 245.803
L136.398 249.021
L136.656 250.066
L140.83 275.1
L141.551 277.141
L142.273 279.205
L143.406 282.189
L143.767 283.504
L145.416 292.197
L145.983 295.905
L147.013 305.097
L147.786 314.983
L149.641 338.991
L151.445 353.551
L153.352 371.355
L154.898 381.213
L156.959 390.504
L158.711 393.537
L159.278 393.081
L159.948 393.761
L160.308 393.85
L161.081 393.567
L161.545 391.813
L162.833 386.694
L163.039 386.337
L163.503 385.934
L163.812 385.804
L164.585 385.407
L165.101 385.287
L165.874 387.238
L167.11 390.879
L167.368 391.324
L167.626 391.582
L168.296 391.28
L168.45 391.332
L168.914 391.724
L169.738 392.425
L170.099 392.637
L170.666 392.321
L171.181 392.414
L171.387 391.787
L172.676 384.668
L173.397 379.609
L175.252 366.289
L176.747 358.005
L177.777 351.519
L178.086 350.723
L178.55 349.644
L179.117 348.361
L179.529 347.507
L179.787 346.674
L180.354 344.693
L180.972 342.936
L181.333 341.009
L182.415 334.248
L183.549 326.966
L184.322 324.007
L184.734 322.03
L187.723 305.534
L188.187 304.748
L189.063 303.892
L189.629 303.698
L189.99 303.244
L190.454 302.446
L191.072 301.15
L191.278 300.167
L192.051 296.657
L192.773 293.669
L193.082 293.063
L193.958 292.106
L194.679 292.62
L195.658 294.147
L196.071 295.461
L196.535 296.697
L196.792 296.96
L196.895 297.006
L197.514 297.846
L197.926 298.258
L199.163 300.462
L199.214 300.433
L199.575 300.125
L199.936 299.862
L200.245 299.982
L200.812 300.617
L202.667 306.89
L203.234 309.691
L204.419 313.006
L204.779 313.817
L205.089 314.027
L205.346 314.072
L205.655 314.651
L206.428 316.07
L206.789 316.49
L207.304 316.313
L207.511 316.266
L207.717 316.205
L208.387 315.39
L209.263 314.651
L209.366 314.539
L210.036 313.468
L210.139 313.518
L210.345 314.057
L211.015 317.332
L212.097 322.581
L213.127 327.36
L214.313 333.422
L215.549 339.562
L216.735 346.184
L218.59 355.529
L219.414 358.227
L220.033 360.034
L220.393 361.807
L221.063 365.361
L221.372 365.882
L221.733 366.037
L222.351 367.096
L222.712 368.031
L223.228 369.491
L223.64 370.298
L224.516 371.223
L224.876 371.001
L225.083 370.848
L226.113 370.688
L226.268 370.557
L226.886 369.329
L227.453 367.556
L228.484 363.447
L229.154 361.594
L229.617 360.05
L230.081 358.849
L230.596 357.796
L230.854 357.337
L231.318 356.241
L231.472 356.281
L231.782 356.56
L232.142 356.428
L232.503 356.136
L233.07 356.783
L233.431 357.105
L233.585 357.266
L233.843 357.522
L234.358 357.432
L234.822 356.949
L235.698 355.472
L236.11 355.221
L236.213 355.287
L237.398 357.049
L239.305 361.393
L239.563 361.737
L239.975 362.643
L240.8 363.66
L241.006 364.128
L241.366 365.1
L241.779 365.768
L242.191 366.443
L242.912 367.058
L243.118 367.04
L243.325 366.762
L243.685 365.795
L243.994 364.399
L245.437 357.219
L246.004 353.649
L246.829 348.044
L247.55 342.89
L248.529 334.491
L249.508 327
L251.003 318.963
L252.085 315.599
L253.012 312.48
L253.579 310.554
L254.713 308.193
L255.28 308.055
L255.589 308.073
L255.743 308.084
L255.95 308.365
L256.516 309.244
L256.723 309.402
L256.98 309.57
L258.165 310.494
L258.681 311.024
L259.041 310.962
L259.505 310.481
L259.711 310.529
L260.021 311.084
L260.433 311.93
L261.824 315.54
L262.649 318.221
L263.267 319.386
L264.298 322.143
L264.864 322.883
L265.225 323.084
L265.637 323.081
L265.895 323.39
L266.204 324.308
L266.977 327.367
L268.626 331.433
L269.502 331.897
L269.76 332.029
L270.224 332.452
L270.636 332.767
L270.79 332.954
L271.203 333.645
L271.409 333.786
L271.718 334.09
L272.079 333.821
L272.336 333.065
L273.058 331.033
L273.315 330.873
L274.604 329.918
L275.068 329.463
L275.686 329.781
L275.944 329.901
L276.15 329.731
L276.562 329.346
L277.232 328.496
L278.056 327.267
L278.108 327.309
L278.417 327.718
L279.602 329.211
L279.808 329.089
L280.736 328.077
L281.097 328.032
L281.612 328.199
L282.127 327.682
L282.488 327.351
L282.694 327.506
L283.416 328.067
L284.188 327.499
L284.446 327.141
L284.755 326.776
L285.992 325.229
L286.817 324.632
L287.074 324.633
L287.229 324.774
L287.899 325.664
L288.053 325.677
L288.362 326.19
L289.96 329.768
L291.712 336.964
L292.949 343.731
L293.773 348.019
L295.68 358.84
L296.401 361.412
L297.02 363.48
L297.896 365.777
L298.566 367.663
L299.339 369.565
L299.699 370.329
L300.215 370.79
L300.73 371.108
L301.709 371.857
L301.915 371.581
L302.637 370.572
L303.203 370.013
L303.77 368.8
L304.801 366.319
L305.007 366.058
L306.398 363.106
L306.656 362.54
L307.532 359.565
L307.893 358.439
L308.305 357.807
L309.387 357.165
L309.954 355.967
L310.418 355.262
L310.881 354.365
L312.221 351.881
L312.788 350.08
L313.355 348.231
L314.54 344.833
L315.674 343.002
L316.962 341.77
L317.426 342.01
L317.89 342.408
L318.405 342.84
L318.714 342.847
L319.023 342.463
L319.59 341.451
L319.848 341.065
L320.466 339.569
L320.982 337.874
L322.064 333.525
L322.785 329.556
L324.073 325.194
L324.846 323.881
L326.959 318.412
L328.35 315.031
L328.969 312.865
L330.515 307.147
L330.979 306.205
L331.391 305.658
L331.751 305.433
L332.164 304.542
L333.658 301.052
L334.534 300.134
L334.895 300.019
L335.41 299.459
L335.719 299.057
L336.492 297.733
L336.853 297.523
L337.523 298.167
L338.09 299.43
L339.378 302.45
L340.254 305.832
L340.821 308.88
L341.697 313.369
L342.315 315.885
L343.191 318.897
L344.067 320.801
L344.583 323.109
L345.407 327.229
L347.52 339.201
L349.272 347.233
L349.787 348.485
L350.354 350.082
L350.869 351.793
L351.385 354.607
L352.621 361.085
L353.91 366.381
L354.27 367.224
L354.889 368.248
L355.198 367.889
L356.177 366.205
L356.744 364.618
L357.259 363.58
L357.62 363.19
L358.135 363.163
L358.548 363.366
L359.114 363.786
L359.424 363.828
L360.145 364.546
L360.763 365.266
L362.103 367.299
L362.618 368.195
L363.082 368.771
L363.701 368.683
L364.422 367.641
L365.504 365.337
L366.741 359.821
L369.781 344.324
L370.348 342.184
L371.07 339.099
L371.739 336.124
L372.719 332.673
L373.131 332.173
L373.955 331.44
L375.244 329.261
L375.501 329.157
L376.016 329.323
L376.583 329.185
L376.738 329.239
L377.459 329.94
L378.129 330.209
L378.49 330.301
L379.005 330.758
L380.139 332.162
L380.654 332.737
L381.17 332.399
L381.943 330.995
L382.458 329.886
L382.87 329.263
L383.179 328.757
L383.54 328.218
L384.416 327.349
L384.622 327.217
L385.189 327.417
L385.807 327.782
L386.271 328.643
L387.869 332.225
L388.229 332.637
L388.59 332.811
L388.796 332.905
L389.26 333.203
L389.724 333.083
L390.033 332.916
L390.342 333.043
L390.909 333.405
L391.527 334.383
L392.3 335.55
L393.022 336.822
L393.434 337.16
L393.588 337.015
L394.052 336.295
L394.516 335.355
L395.495 333.997
L396.268 334.046
L396.423 333.852
L397.041 332.851
L397.402 332.282
L397.711 331.216
L398.948 326.999
L399.308 326.553
L399.824 326.465
L400.7 326.845
L401.112 327.65
L401.524 328.423
L402.091 328.946
L403.792 328.2
L404.41 328.437
L405.08 328.967
L405.698 329.667
L406.059 330.043
L406.523 330.493
L406.78 330.555
L407.45 330.317
L408.326 330.597
L408.687 330.911
L408.945 330.864
L409.563 330.773
L410.697 331.278
L411.264 332.053
L411.573 332.262
L411.83 332.339
L413.17 333.075
L413.479 333.122
L413.789 332.934
L414.716 331.905
L415.335 331.03
L415.644 330.44
L416.159 329.861
L416.829 329.605
L417.19 329.69
L418.323 330.427
L418.632 330.592
L418.942 330.827
L419.663 330.515
L420.024 330.372
L420.333 330.43
L420.591 330.493
L421.054 330.346
L422.085 329.794
L422.291 329.857
L423.167 330.802
L423.528 331.285
L423.786 331.706
L424.146 332.666
L424.507 333.481
L424.971 334.265
L425.177 334.469
L427.032 337.792
L427.805 339.675
L429.351 343.526
L430.124 345.247
L431 347.794
L433.576 356.624
L435.432 362.004
L436.205 363.404
L436.72 364.746
L437.184 365.141
L438.266 365.113
L438.626 364.832
L439.193 363.81
L439.709 362.658
L440.224 361.633
L440.636 361.068
L441.306 360.634
L441.821 360.086
L442.234 359.479
L442.646 358.924
L443.161 357.936
L443.47 357.367
L445.738 352.108
L446.82 348.749
L447.284 348.208
L447.593 347.883
L448.16 347.009
L448.469 346.162
L450.066 341.726
L450.479 340.835
L451.097 339.32
L452.437 336.827
L453.004 336.282
L453.467 335.787
L454.034 334.704
L454.498 333.372
L455.322 330.675
L456.198 328.211
L457.178 325.767
L458.414 323.458
L458.672 323.039
L458.93 322.327
L459.496 320.238
L460.372 317.01
L460.836 315.856
L462.279 311.799
L462.949 310.67
L463.774 309.745
L464.289 308.93
L465.062 308.47
L465.526 308.47
L465.886 308.906
L466.711 310.083
L467.071 310.22
L467.329 310.46
L467.741 311.25
L468.669 313.144
L470.679 319.959
L471.503 322.723
L472.534 325.379
L473.204 326.486
L474.75 327.964
L475.059 327.995
L475.265 327.987
L475.574 328.173
L476.45 329.747
L476.862 330.308
L477.738 331.054
L478.717 331.927
L478.975 332.516
L479.851 334.43
L480.212 335.299
L482.891 343.364
L483.871 346.039
L484.334 347.266
L484.901 349.121
L485.726 350.975
L486.756 352.649
L487.22 353.238
L487.426 353.325
L488.096 353.196
L488.302 353.43
L488.611 353.601
L488.921 353.653
L489.333 353.708
L489.487 353.72
L489.848 354.239
L490.724 355.671
L491.085 356.079
L491.6 356.317
L492.012 356.16
L492.425 355.919
L492.888 355.395
L494.228 353.026
L497.011 345.772
L498.969 342.696
L499.484 342.252
L500.103 341.983
L500.876 342.482
L501.597 343.701
L502.267 344.695
L502.731 344.977
L503.246 345.173
L504.225 345.489
L504.895 345.809
L506.132 345.671
L506.39 345.598
L507.008 345.025
L507.317 344.575
L507.729 343.953
L508.348 343.202
L508.966 342.221
L509.378 341.972
L509.739 341.793
L510.151 341.961
L510.512 342.161
L511.646 343.054
L512.161 343.722
L512.522 343.893
L513.14 344.017
L514.222 343.011
L514.583 342.244
L516.644 336.63
L517.056 335.96
L517.417 335.316
L518.963 332.771
L519.221 332.356
L519.581 331.731
L519.994 331.386
L520.612 331.287
L521.488 330.152
L523.086 326.73
L523.549 325.84
L525.147 322.635
L525.559 322.515
L525.92 322.802
L526.487 323.338
L527.105 324.149
L527.62 324.923
L528.496 326.771
L529.218 328.307
L529.681 329.088
L530.3 329.999
L531.279 331.548
L531.64 331.919
L532 332.026
L533.495 332.378
L534.216 332.942
L534.525 333.003
L535.041 333.482
L535.814 333.955
L536.741 333.372
L537.308 333.034
L537.669 332.835
L538.029 332.545
L538.802 331.827
L539.266 331.452
L539.936 331.365
L540.297 331.476
L540.761 331.559
L541.74 331.899
L541.946 331.742
L542.719 330.811
L543.028 330.49
L543.337 330.104
L543.904 329.518
L544.316 329.339
L544.883 329.309
L545.501 329.717
L545.759 329.839
L546.79 329.804
L547.047 329.594
L547.305 329.365
L547.305 329.365" style="fill:none;stroke:#0000ff;"/>
   </g>
   <g id="matplotlib.axis_1">
    <g id="xtick_1">
     <g id="line2d_2">
      <defs>
       <path d="
M0 0
L0 -4" id="m44ed65d01f"/>
      </defs>
      <g>
       <use style="stroke:#000000;stroke-linecap:butt;stroke-width:0.5;" x="156.354338713" xlink:href="#m44ed65d01f" y="337.367028164"/>
      </g>
     </g>
     <g id="text_1">
      <!-- 5 -->
      <defs>
       <path d="
M10.7969 72.9062
L49.5156 72.9062
L49.5156 64.5938
L19.8281 64.5938
L19.8281 46.7344
Q21.9688 47.4688 24.1094 47.8281
Q26.2656 48.1875 28.4219 48.1875
Q40.625 48.1875 47.75 41.5
Q54.8906 34.8125 54.8906 23.3906
Q54.8906 11.625 47.5625 5.09375
Q40.2344 -1.42188 26.9062 -1.42188
Q22.3125 -1.42188 17.5469 -0.640625
Q12.7969 0.140625 7.71875 1.70312
L7.71875 11.625
Q12.1094 9.23438 16.7969 8.0625
Q21.4844 6.89062 26.7031 6.89062
Q35.1562 6.89062 40.0781 11.3281
Q45.0156 15.7656 45.0156 23.3906
Q45.0156 31 40.0781 35.4375
Q35.1562 39.8906 26.7031 39.8906
Q22.75 39.8906 18.8125 39.0156
Q14.8906 38.1406 10.7969 36.2812
z
" id="BitstreamVeraSans-Roman-35"/>
      </defs>
      <g transform="translate(153.995744963 348.657653164)scale(0.1 -0.1)">
       <use xlink:href="#BitstreamVeraSans-Roman-35"/>
      </g>
     </g>
    </g>
    <g id="xtick_2">
     <g id="line2d_3">
      <defs>
       <path d="
M0 0
L0 -4" id="m44ed65d01f"/>
      </defs>
      <g>
       <use style="stroke:#000000;stroke-linecap:butt;stroke-width:0.5;" x="280.685250683" xlink:href="#m44ed65d01f" y="337.367028164"/>
      </g>
     </g>
     <g id="text_2">
      <!-- 10 -->
      <defs>
       <path d="
M31.7812 66.4062
Q24.1719 66.4062 20.3281 58.9062
Q16.5 51.4219 16.5 36.375
Q16.5 21.3906 20.3281 13.8906
Q24.1719 6.39062 31.7812 6.39062
Q39.4531 6.39062 43.2812 13.8906
Q47.125 21.3906 47.125 36.375
Q47.125 51.4219 43.2812 58.9062
Q39.4531 66.4062 31.7812 66.4062
M31.7812 74.2188
Q44.0469 74.2188 50.5156 64.5156
Q56.9844 54.8281 56.9844 36.375
Q56.9844 17.9688 50.5156 8.26562
Q44.0469 -1.42188 31.7812 -1.42188
Q19.5312 -1.42188 13.0625 8.26562
Q6.59375 17.9688 6.59375 36.375
Q6.59375 54.8281 13.0625 64.5156
Q19.5312 74.2188 31.7812 74.2188" id="BitstreamVeraSans-Roman-30"/>
       <path d="
M12.4062 8.29688
L28.5156 8.29688
L28.5156 63.9219
L10.9844 60.4062
L10.9844 69.3906
L28.4219 72.9062
L38.2812 72.9062
L38.2812 8.29688
L54.3906 8.29688
L54.3906 0
L12.4062 0
z
" id="BitstreamVeraSans-Roman-31"/>
      </defs>
      <g transform="translate(275.204000683 348.788903164)scale(0.1 -0.1)">
       <use xlink:href="#BitstreamVeraSans-Roman-31"/>
       <use x="63.623046875" xlink:href="#BitstreamVeraSans-Roman-30"/>
      </g>
     </g>
    </g>
    <g id="xtick_3">
     <g id="line2d_4">
      <defs>
       <path d="
M0 0
L0 -4" id="m44ed65d01f"/>
      </defs>
      <g>
       <use style="stroke:#000000;stroke-linecap:butt;stroke-width:0.5;" x="405.016162652" xlink:href="#m44ed65d01f" y="337.367028164"/>
      </g>
     </g>
     <g id="text_3">
      <!-- 15 -->
      <g transform="translate(399.639600152 348.657653164)scale(0.1 -0.1)">
       <use xlink:href="#BitstreamVeraSans-Roman-31"/>
       <use x="63.623046875" xlink:href="#BitstreamVeraSans-Roman-35"/>
      </g>
     </g>
    </g>
    <g id="xtick_4">
     <g id="line2d_5">
      <defs>
       <path d="
M0 0
L0 -4" id="m44ed65d01f"/>
      </defs>
      <g>
       <use style="stroke:#000000;stroke-linecap:butt;stroke-width:0.5;" x="529.347074621" xlink:href="#m44ed65d01f" y="337.367028164"/>
      </g>
     </g>
     <g id="text_4">
      <!-- 20 -->
      <defs>
       <path d="
M19.1875 8.29688
L53.6094 8.29688
L53.6094 0
L7.32812 0
L7.32812 8.29688
Q12.9375 14.1094 22.625 23.8906
Q32.3281 33.6875 34.8125 36.5312
Q39.5469 41.8438 41.4219 45.5312
Q43.3125 49.2188 43.3125 52.7812
Q43.3125 58.5938 39.2344 62.25
Q35.1562 65.9219 28.6094 65.9219
Q23.9688 65.9219 18.8125 64.3125
Q13.6719 62.7031 7.8125 59.4219
L7.8125 69.3906
Q13.7656 71.7812 18.9375 73
Q24.125 74.2188 28.4219 74.2188
Q39.75 74.2188 46.4844 68.5469
Q53.2188 62.8906 53.2188 53.4219
Q53.2188 48.9219 51.5312 44.8906
Q49.8594 40.875 45.4062 35.4062
Q44.1875 33.9844 37.6406 27.2188
Q31.1094 20.4531 19.1875 8.29688" id="BitstreamVeraSans-Roman-32"/>
      </defs>
      <g transform="translate(523.683012121 348.788903164)scale(0.1 -0.1)">
       <use xlink:href="#BitstreamVeraSans-Roman-32"/>
       <use x="63.623046875" xlink:href="#BitstreamVeraSans-Roman-30"/>
      </g>
     </g>
    </g>
    <g id="xtick_5">
     <g id="line2d_6">
      <defs>
       <path d="
M0 0
L0 -2" id="m06dd23cfa9"/>
      </defs>
      <g>
       <use style="stroke:#000000;stroke-linecap:butt;stroke-width:0.5;" x="56.8896091378" xlink:href="#m06dd23cfa9" y="337.367028164"/>
      </g>
     </g>
    </g>
    <g id="xtick_6">
     <g id="line2d_7">
      <defs>
       <path d="
M0 0
L0 -2" id="m06dd23cfa9"/>
      </defs>
      <g>
       <use style="stroke:#000000;stroke-linecap:butt;stroke-width:0.5;" x="81.7557915317" xlink:href="#m06dd23cfa9" y="337.367028164"/>
      </g>
     </g>
    </g>
    <g id="xtick_7">
     <g id="line2d_8">
      <defs>
       <path d="
M0 0
L0 -2" id="m06dd23cfa9"/>
      </defs>
      <g>
       <use style="stroke:#000000;stroke-linecap:butt;stroke-width:0.5;" x="106.621973926" xlink:href="#m06dd23cfa9" y="337.367028164"/>
      </g>
     </g>
    </g>
    <g id="xtick_8">
     <g id="line2d_9">
      <defs>
       <path d="
M0 0
L0 -2" id="m06dd23cfa9"/>
      </defs>
      <g>
       <use style="stroke:#000000;stroke-linecap:butt;stroke-width:0.5;" x="131.488156319" xlink:href="#m06dd23cfa9" y="337.367028164"/>
      </g>
     </g>
    </g>
    <g id="xtick_9">
     <g id="line2d_10">
      <defs>
       <path d="
M0 0
L0 -2" id="m06dd23cfa9"/>
      </defs>
      <g>
       <use style="stroke:#000000;stroke-linecap:butt;stroke-width:0.5;" x="181.220521107" xlink:href="#m06dd23cfa9" y="337.367028164"/>
      </g>
     </g>
    </g>
    <g id="xtick_10">
     <g id="line2d_11">
      <defs>
       <path d="
M0 0
L0 -2" id="m06dd23cfa9"/>
      </defs>
      <g>
       <use style="stroke:#000000;stroke-linecap:butt;stroke-width:0.5;" x="206.086703501" xlink:href="#m06dd23cfa9" y="337.367028164"/>
      </g>
     </g>
    </g>
    <g id="xtick_11">
     <g id="line2d_12">
      <defs>
       <path d="
M0 0
L0 -2" id="m06dd23cfa9"/>
      </defs>
      <g>
       <use style="stroke:#000000;stroke-linecap:butt;stroke-width:0.5;" x="230.952885895" xlink:href="#m06dd23cfa9" y="337.367028164"/>
      </g>
     </g>
    </g>
    <g id="xtick_12">
     <g id="line2d_13">
      <defs>
       <path d="
M0 0
L0 -2" id="m06dd23cfa9"/>
      </defs>
      <g>
       <use style="stroke:#000000;stroke-linecap:butt;stroke-width:0.5;" x="255.819068289" xlink:href="#m06dd23cfa9" y="337.367028164"/>
      </g>
     </g>
    </g>
    <g id="xtick_13">
     <g id="line2d_14">
      <defs>
       <path d="
M0 0
L0 -2" id="m06dd23cfa9"/>
      </defs>
      <g>
       <use style="stroke:#000000;stroke-linecap:butt;stroke-width:0.5;" x="305.551433077" xlink:href="#m06dd23cfa9" y="337.367028164"/>
      </g>
     </g>
    </g>
    <g id="xtick_14">
     <g id="line2d_15">
      <defs>
       <path d="
M0 0
L0 -2" id="m06dd23cfa9"/>
      </defs>
      <g>
       <use style="stroke:#000000;stroke-linecap:butt;stroke-width:0.5;" x="330.41761547" xlink:href="#m06dd23cfa9" y="337.367028164"/>
      </g>
     </g>
    </g>
    <g id="xtick_15">
     <g id="line2d_16">
      <defs>
       <path d="
M0 0
L0 -2" id="m06dd23cfa9"/>
      </defs>
      <g>
       <use style="stroke:#000000;stroke-linecap:butt;stroke-width:0.5;" x="355.283797864" xlink:href="#m06dd23cfa9" y="337.367028164"/>
      </g>
     </g>
    </g>
    <g id="xtick_16">
     <g id="line2d_17">
      <defs>
       <path d="
M0 0
L0 -2" id="m06dd23cfa9"/>
      </defs>
      <g>
       <use style="stroke:#000000;stroke-linecap:butt;stroke-width:0.5;" x="380.149980258" xlink:href="#m06dd23cfa9" y="337.367028164"/>
      </g>
     </g>
    </g>
    <g id="xtick_17">
     <g id="line2d_18">
      <defs>
       <path d="
M0 0
L0 -2" id="m06dd23cfa9"/>
      </defs>
      <g>
       <use style="stroke:#000000;stroke-linecap:butt;stroke-width:0.5;" x="429.882345046" xlink:href="#m06dd23cfa9" y="337.367028164"/>
      </g>
     </g>
    </g>
    <g id="xtick_18">
     <g id="line2d_19">
      <defs>
       <path d="
M0 0
L0 -2" id="m06dd23cfa9"/>
      </defs>
      <g>
       <use style="stroke:#000000;stroke-linecap:butt;stroke-width:0.5;" x="454.74852744" xlink:href="#m06dd23cfa9" y="337.367028164"/>
      </g>
     </g>
    </g>
    <g id="xtick_19">
     <g id="line2d_20">
      <defs>
       <path d="
M0 0
L0 -2" id="m06dd23cfa9"/>
      </defs>
      <g>
       <use style="stroke:#000000;stroke-linecap:butt;stroke-width:0.5;" x="479.614709834" xlink:href="#m06dd23cfa9" y="337.367028164"/>
      </g>
     </g>
    </g>
    <g id="xtick_20">
     <g id="line2d_21">
      <defs>
       <path d="
M0 0
L0 -2" id="m06dd23cfa9"/>
      </defs>
      <g>
       <use style="stroke:#000000;stroke-linecap:butt;stroke-width:0.5;" x="504.480892228" xlink:href="#m06dd23cfa9" y="337.367028164"/>
      </g>
     </g>
    </g>
   </g>
   <g id="matplotlib.axis_2">
    <g id="ytick_1">
     <g id="line2d_22">
      <defs>
       <path d="
M0 0
L4 0" id="m5aaf488d15"/>
      </defs>
      <g>
       <use style="stroke:#000000;stroke-linecap:butt;stroke-width:0.5;" x="29.2984375" xlink:href="#m5aaf488d15" y="406.879508037"/>
      </g>
     </g>
     <g id="text_5">
      <!-- -0.1 -->
      <defs>
       <path d="
M10.6875 12.4062
L21 12.4062
L21 0
L10.6875 0
z
" id="BitstreamVeraSans-Roman-2e"/>
       <path d="
M4.89062 31.3906
L31.2031 31.3906
L31.2031 23.3906
L4.89062 23.3906
z
" id="BitstreamVeraSans-Roman-2d"/>
      </defs>
      <g transform="translate(7.2 410.519351787)scale(0.1 -0.1)">
       <use xlink:href="#BitstreamVeraSans-Roman-2d"/>
       <use x="36.083984375" xlink:href="#BitstreamVeraSans-Roman-30"/>
       <use x="99.70703125" xlink:href="#BitstreamVeraSans-Roman-2e"/>
       <use x="131.494140625" xlink:href="#BitstreamVeraSans-Roman-31"/>
      </g>
     </g>
    </g>
    <g id="ytick_2">
     <g id="line2d_23">
      <defs>
       <path d="
M0 0
L4 0" id="m5aaf488d15"/>
      </defs>
      <g>
       <use style="stroke:#000000;stroke-linecap:butt;stroke-width:0.5;" x="29.2984375" xlink:href="#m5aaf488d15" y="337.367028164"/>
      </g>
     </g>
     <g id="text_6">
      <!-- 0 -->
      <g transform="translate(20.259375 341.006871914)scale(0.1 -0.1)">
       <use xlink:href="#BitstreamVeraSans-Roman-30"/>
      </g>
     </g>
    </g>
    <g id="ytick_3">
     <g id="line2d_24">
      <defs>
       <path d="
M0 0
L4 0" id="m5aaf488d15"/>
      </defs>
      <g>
       <use style="stroke:#000000;stroke-linecap:butt;stroke-width:0.5;" x="29.2984375" xlink:href="#m5aaf488d15" y="267.854548291"/>
      </g>
     </g>
     <g id="text_7">
      <!-- 0.1 -->
      <g transform="translate(10.978125 271.494392041)scale(0.1 -0.1)">
       <use xlink:href="#BitstreamVeraSans-Roman-30"/>
       <use x="63.623046875" xlink:href="#BitstreamVeraSans-Roman-2e"/>
       <use x="95.41015625" xlink:href="#BitstreamVeraSans-Roman-31"/>
      </g>
     </g>
    </g>
    <g id="ytick_4">
     <g id="line2d_25">
      <defs>
       <path d="
M0 0
L4 0" id="m5aaf488d15"/>
      </defs>
      <g>
       <use style="stroke:#000000;stroke-linecap:butt;stroke-width:0.5;" x="29.2984375" xlink:href="#m5aaf488d15" y="198.342068417"/>
      </g>
     </g>
     <g id="text_8">
      <!-- 0.2 -->
      <g transform="translate(11.05625 201.981912167)scale(0.1 -0.1)">
       <use xlink:href="#BitstreamVeraSans-Roman-30"/>
       <use x="63.623046875" xlink:href="#BitstreamVeraSans-Roman-2e"/>
       <use x="95.41015625" xlink:href="#BitstreamVeraSans-Roman-32"/>
      </g>
     </g>
    </g>
    <g id="ytick_5">
     <g id="line2d_26">
      <defs>
       <path d="
M0 0
L4 0" id="m5aaf488d15"/>
      </defs>
      <g>
       <use style="stroke:#000000;stroke-linecap:butt;stroke-width:0.5;" x="29.2984375" xlink:href="#m5aaf488d15" y="128.829588544"/>
      </g>
     </g>
     <g id="text_9">
      <!-- 0.3 -->
      <defs>
       <path d="
M40.5781 39.3125
Q47.6562 37.7969 51.625 33
Q55.6094 28.2188 55.6094 21.1875
Q55.6094 10.4062 48.1875 4.48438
Q40.7656 -1.42188 27.0938 -1.42188
Q22.5156 -1.42188 17.6562 -0.515625
Q12.7969 0.390625 7.625 2.20312
L7.625 11.7188
Q11.7188 9.32812 16.5938 8.10938
Q21.4844 6.89062 26.8125 6.89062
Q36.0781 6.89062 40.9375 10.5469
Q45.7969 14.2031 45.7969 21.1875
Q45.7969 27.6406 41.2812 31.2656
Q36.7656 34.9062 28.7188 34.9062
L20.2188 34.9062
L20.2188 43.0156
L29.1094 43.0156
Q36.375 43.0156 40.2344 45.9219
Q44.0938 48.8281 44.0938 54.2969
Q44.0938 59.9062 40.1094 62.9062
Q36.1406 65.9219 28.7188 65.9219
Q24.6562 65.9219 20.0156 65.0312
Q15.375 64.1562 9.8125 62.3125
L9.8125 71.0938
Q15.4375 72.6562 20.3438 73.4375
Q25.25 74.2188 29.5938 74.2188
Q40.8281 74.2188 47.3594 69.1094
Q53.9062 64.0156 53.9062 55.3281
Q53.9062 49.2656 50.4375 45.0938
Q46.9688 40.9219 40.5781 39.3125" id="BitstreamVeraSans-Roman-33"/>
      </defs>
      <g transform="translate(10.85625 132.469432294)scale(0.1 -0.1)">
       <use xlink:href="#BitstreamVeraSans-Roman-30"/>
       <use x="63.623046875" xlink:href="#BitstreamVeraSans-Roman-2e"/>
       <use x="95.41015625" xlink:href="#BitstreamVeraSans-Roman-33"/>
      </g>
     </g>
    </g>
    <g id="ytick_6">
     <g id="line2d_27">
      <defs>
       <path d="
M0 0
L4 0" id="m5aaf488d15"/>
      </defs>
      <g>
       <use style="stroke:#000000;stroke-linecap:butt;stroke-width:0.5;" x="29.2984375" xlink:href="#m5aaf488d15" y="59.3171086711"/>
      </g>
     </g>
     <g id="text_10">
      <!-- 0.4 -->
      <defs>
       <path d="
M37.7969 64.3125
L12.8906 25.3906
L37.7969 25.3906
z

M35.2031 72.9062
L47.6094 72.9062
L47.6094 25.3906
L58.0156 25.3906
L58.0156 17.1875
L47.6094 17.1875
L47.6094 0
L37.7969 0
L37.7969 17.1875
L4.89062 17.1875
L4.89062 26.7031
z
" id="BitstreamVeraSans-Roman-34"/>
      </defs>
      <g transform="translate(10.615625 62.9569524211)scale(0.1 -0.1)">
       <use xlink:href="#BitstreamVeraSans-Roman-30"/>
       <use x="63.623046875" xlink:href="#BitstreamVeraSans-Roman-2e"/>
       <use x="95.41015625" xlink:href="#BitstreamVeraSans-Roman-34"/>
      </g>
     </g>
    </g>
    <g id="ytick_7">
     <g id="line2d_28">
      <defs>
       <path d="
M0 0
L2 0" id="m0d921daf71"/>
      </defs>
      <g>
       <use style="stroke:#000000;stroke-linecap:butt;stroke-width:0.5;" x="29.2984375" xlink:href="#m0d921daf71" y="392.977012062"/>
      </g>
     </g>
    </g>
    <g id="ytick_8">
     <g id="line2d_29">
      <defs>
       <path d="
M0 0
L2 0" id="m0d921daf71"/>
      </defs>
      <g>
       <use style="stroke:#000000;stroke-linecap:butt;stroke-width:0.5;" x="29.2984375" xlink:href="#m0d921daf71" y="379.074516088"/>
      </g>
     </g>
    </g>
    <g id="ytick_9">
     <g id="line2d_30">
      <defs>
       <path d="
M0 0
L2 0" id="m0d921daf71"/>
      </defs>
      <g>
       <use style="stroke:#000000;stroke-linecap:butt;stroke-width:0.5;" x="29.2984375" xlink:href="#m0d921daf71" y="365.172020113"/>
      </g>
     </g>
    </g>
    <g id="ytick_10">
     <g id="line2d_31">
      <defs>
       <path d="
M0 0
L2 0" id="m0d921daf71"/>
      </defs>
      <g>
       <use style="stroke:#000000;stroke-linecap:butt;stroke-width:0.5;" x="29.2984375" xlink:href="#m0d921daf71" y="351.269524138"/>
      </g>
     </g>
    </g>
    <g id="ytick_11">
     <g id="line2d_32">
      <defs>
       <path d="
M0 0
L2 0" id="m0d921daf71"/>
      </defs>
      <g>
       <use style="stroke:#000000;stroke-linecap:butt;stroke-width:0.5;" x="29.2984375" xlink:href="#m0d921daf71" y="323.464532189"/>
      </g>
     </g>
    </g>
    <g id="ytick_12">
     <g id="line2d_33">
      <defs>
       <path d="
M0 0
L2 0" id="m0d921daf71"/>
      </defs>
      <g>
       <use style="stroke:#000000;stroke-linecap:butt;stroke-width:0.5;" x="29.2984375" xlink:href="#m0d921daf71" y="309.562036215"/>
      </g>
     </g>
    </g>
    <g id="ytick_13">
     <g id="line2d_34">
      <defs>
       <path d="
M0 0
L2 0" id="m0d921daf71"/>
      </defs>
      <g>
       <use style="stroke:#000000;stroke-linecap:butt;stroke-width:0.5;" x="29.2984375" xlink:href="#m0d921daf71" y="295.65954024"/>
      </g>
     </g>
    </g>
    <g id="ytick_14">
     <g id="line2d_35">
      <defs>
       <path d="
M0 0
L2 0" id="m0d921daf71"/>
      </defs>
      <g>
       <use style="stroke:#000000;stroke-linecap:butt;stroke-width:0.5;" x="29.2984375" xlink:href="#m0d921daf71" y="281.757044265"/>
      </g>
     </g>
    </g>
    <g id="ytick_15">
     <g id="line2d_36">
      <defs>
       <path d="
M0 0
L2 0" id="m0d921daf71"/>
      </defs>
      <g>
       <use style="stroke:#000000;stroke-linecap:butt;stroke-width:0.5;" x="29.2984375" xlink:href="#m0d921daf71" y="253.952052316"/>
      </g>
     </g>
    </g>
    <g id="ytick_16">
     <g id="line2d_37">
      <defs>
       <path d="
M0 0
L2 0" id="m0d921daf71"/>
      </defs>
      <g>
       <use style="stroke:#000000;stroke-linecap:butt;stroke-width:0.5;" x="29.2984375" xlink:href="#m0d921daf71" y="240.049556341"/>
      </g>
     </g>
    </g>
    <g id="ytick_17">
     <g id="line2d_38">
      <defs>
       <path d="
M0 0
L2 0" id="m0d921daf71"/>
      </defs>
      <g>
       <use style="stroke:#000000;stroke-linecap:butt;stroke-width:0.5;" x="29.2984375" xlink:href="#m0d921daf71" y="226.147060367"/>
      </g>
     </g>
    </g>
    <g id="ytick_18">
     <g id="line2d_39">
      <defs>
       <path d="
M0 0
L2 0" id="m0d921daf71"/>
      </defs>
      <g>
       <use style="stroke:#000000;stroke-linecap:butt;stroke-width:0.5;" x="29.2984375" xlink:href="#m0d921daf71" y="212.244564392"/>
      </g>
     </g>
    </g>
    <g id="ytick_19">
     <g id="line2d_40">
      <defs>
       <path d="
M0 0
L2 0" id="m0d921daf71"/>
      </defs>
      <g>
       <use style="stroke:#000000;stroke-linecap:butt;stroke-width:0.5;" x="29.2984375" xlink:href="#m0d921daf71" y="184.439572443"/>
      </g>
     </g>
    </g>
    <g id="ytick_20">
     <g id="line2d_41">
      <defs>
       <path d="
M0 0
L2 0" id="m0d921daf71"/>
      </defs>
      <g>
       <use style="stroke:#000000;stroke-linecap:butt;stroke-width:0.5;" x="29.2984375" xlink:href="#m0d921daf71" y="170.537076468"/>
      </g>
     </g>
    </g>
    <g id="ytick_21">
     <g id="line2d_42">
      <defs>
       <path d="
M0 0
L2 0" id="m0d921daf71"/>
      </defs>
      <g>
       <use style="stroke:#000000;stroke-linecap:butt;stroke-width:0.5;" x="29.2984375" xlink:href="#m0d921daf71" y="156.634580494"/>
      </g>
     </g>
    </g>
    <g id="ytick_22">
     <g id="line2d_43">
      <defs>
       <path d="
M0 0
L2 0" id="m0d921daf71"/>
      </defs>
      <g>
       <use style="stroke:#000000;stroke-linecap:butt;stroke-width:0.5;" x="29.2984375" xlink:href="#m0d921daf71" y="142.732084519"/>
      </g>
     </g>
    </g>
    <g id="ytick_23">
     <g id="line2d_44">
      <defs>
       <path d="
M0 0
L2 0" id="m0d921daf71"/>
      </defs>
      <g>
       <use style="stroke:#000000;stroke-linecap:butt;stroke-width:0.5;" x="29.2984375" xlink:href="#m0d921daf71" y="114.92709257"/>
      </g>
     </g>
    </g>
    <g id="ytick_24">
     <g id="line2d_45">
      <defs>
       <path d="
M0 0
L2 0" id="m0d921daf71"/>
      </defs>
      <g>
       <use style="stroke:#000000;stroke-linecap:butt;stroke-width:0.5;" x="29.2984375" xlink:href="#m0d921daf71" y="101.024596595"/>
      </g>
     </g>
    </g>
    <g id="ytick_25">
     <g id="line2d_46">
      <defs>
       <path d="
M0 0
L2 0" id="m0d921daf71"/>
      </defs>
      <g>
       <use style="stroke:#000000;stroke-linecap:butt;stroke-width:0.5;" x="29.2984375" xlink:href="#m0d921daf71" y="87.1221006204"/>
      </g>
     </g>
    </g>
    <g id="ytick_26">
     <g id="line2d_47">
      <defs>
       <path d="
M0 0
L2 0" id="m0d921daf71"/>
      </defs>
      <g>
       <use style="stroke:#000000;stroke-linecap:butt;stroke-width:0.5;" x="29.2984375" xlink:href="#m0d921daf71" y="73.2196046457"/>
      </g>
     </g>
    </g>
    <g id="ytick_27">
     <g id="line2d_48">
      <defs>
       <path d="
M0 0
L2 0" id="m0d921daf71"/>
      </defs>
      <g>
       <use style="stroke:#000000;stroke-linecap:butt;stroke-width:0.5;" x="29.2984375" xlink:href="#m0d921daf71" y="45.4146126965"/>
      </g>
     </g>
    </g>
    <g id="ytick_28">
     <g id="line2d_49">
      <defs>
       <path d="
M0 0
L2 0" id="m0d921daf71"/>
      </defs>
      <g>
       <use style="stroke:#000000;stroke-linecap:butt;stroke-width:0.5;" x="29.2984375" xlink:href="#m0d921daf71" y="31.5121167218"/>
      </g>
     </g>
    </g>
    <g id="ytick_29">
     <g id="line2d_50">
      <defs>
       <path d="
M0 0
L2 0" id="m0d921daf71"/>
      </defs>
      <g>
       <use style="stroke:#000000;stroke-linecap:butt;stroke-width:0.5;" x="29.2984375" xlink:href="#m0d921daf71" y="17.6096207472"/>
      </g>
     </g>
    </g>
   </g>
   <g id="patch_3">
    <path d="
M39.2984 337.367
L557.266 337.367" style="fill:none;stroke:#000000;stroke-width:0.8;"/>
   </g>
   <g id="patch_4">
    <path d="
M29.2984 413.28
L29.2984 7.2" style="fill:none;stroke:#000000;stroke-width:0.8;"/>
   </g>
  </g>
 </g>
 <defs>
  <clipPath id="pbda54c63f9">
   <rect height="406.08" width="517.9675" x="39.2984375" y="7.2"/>
  </clipPath>
 </defs>
</svg>
