<?xml version="1.0" encoding="utf-8" standalone="no"?>
<!DOCTYPE svg PUBLIC "-//W3C//DTD SVG 1.1//EN"
  "http://www.w3.org/Graphics/SVG/1.1/DTD/svg11.dtd">
<!-- Created with matplotlib (http://matplotlib.sourceforge.net/) -->
<svg height="420pt" version="1.1" viewBox="0 0 564 420" width="564pt" xmlns="http://www.w3.org/2000/svg" xmlns:xlink="http://www.w3.org/1999/xlink">
 <defs>
  <style type="text/css">
*{stroke-linecap:square;stroke-linejoin:round;}
  </style>
 </defs>
 <g id="figure_1">
  <g id="patch_1">
   <path d="
M-4.44089e-16 420.48
L564.466 420.48
L564.466 0
L-4.44089e-16 0
z
" style="fill:#ffffff;"/>
  </g>
  <g id="axes_1">
   <g id="patch_2">
    <path d="
M39.2984 413.28
L557.266 413.28
L557.266 7.2
L39.2984 7.2
z
" style="fill:#ffffff;"/>
   </g>
   <g id="line2d_1">
    <path clip-path="url(#pbda54c63f9)" d="
M49.2594 70.6048
L50.1354 50.6736
L50.9599 36.6339
L51.7328 27.0528
L52.4027 21.2128
L53.0211 17.6291
L53.5364 15.8446
L53.9487 15.1419
L54.2578 15.0103
L54.5155 15.1493
L54.8247 15.5975
L55.2369 16.6538
L55.7522 18.6672
L56.3706 22.0264
L57.1436 27.5459
L58.0711 35.9111
L59.1533 47.788
L59.4625 50.4407
L60.0293 52.6332
L60.7507 56.4172
L61.5752 61.9969
L62.5543 70.199
L63.688 81.6104
L65.0278 97.4333
L66.5737 118.419
L68.3773 146.053
L70.4901 182.038
L72.1906 210.927
L72.8089 212.651
L73.5819 215.543
L74.4579 219.755
L75.4886 225.894
L76.6738 234.418
L78.0136 245.784
L79.508 260.427
L80.8478 273.426
L82.2391 284.873
L83.785 299.506
L85.5371 318.298
L86.8769 332.43
L87.959 337.87
L89.1958 345.317
L90.5871 355.159
L91.6692 363.532
L91.7208 363.172
L92.8029 356.539
L93.8335 351.469
L94.8126 347.721
L95.6886 345.209
L95.7917 344.958
L96.1009 346.832
L97.5438 356.911
L99.1412 369.663
L100.945 385.924
L102.645 401.251
L103.212 401.745
L103.882 402.649
L104.655 404.114
L105.222 405.471
L105.273 405.355
L106.407 400.589
L107.386 397.373
L108.314 395.067
L109.138 393.598
L109.86 392.749
L110.478 392.335
L111.045 392.203
L111.612 392.304
L112.951 392.947
L113.621 393.607
L113.982 394.099
L115.167 399.492
L115.786 402.359
L116.816 399.236
L117.538 397.066
L118.826 390.347
L120.011 385.284
L121.093 381.56
L121.815 379.548
L121.866 379.567
L122.485 379.992
L123.206 380.781
L123.979 381.967
L124.34 382.639
L124.391 382.585
L125.731 376.733
L127.277 364.69
L127.844 360.138
L129.493 335.832
L130.936 314.355
L132.636 298.221
L134.028 286.897
L138.099 257.753
L138.768 253.94
L139.49 253.658
L140.16 253.64
L140.727 253.679
L141.448 252.446
L142.221 251.804
L142.942 251.485
L143.767 251.205
L144.694 249.839
L145.519 249.002
L145.931 248.8
L146.601 248.895
L146.859 248.866
L147.271 248.408
L147.323 248.462
L148.353 249.604
L149.59 248.697
L149.641 248.822
L150.827 251.959
L151.393 253.859
L152.321 258.746
L152.991 262.359
L153.455 264.27
L154.485 267.428
L154.795 268.347
L155.464 268.397
L156.186 268.677
L156.547 268.797
L156.804 268.756
L157.835 271.394
L159.226 275.788
L160.308 278.88
L161.133 282.254
L161.494 284.979
L163.091 298.307
L163.658 302.762
L165.513 318.872
L166.853 327.949
L167.42 331.52
L167.729 333.675
L168.553 339.734
L169.584 344.733
L171.594 353.681
L172.521 356.486
L173.449 358.729
L174.479 361.978
L175.201 365.4
L175.51 365.91
L176.541 367.304
L176.798 367.363
L177.314 367.082
L177.571 367.18
L177.674 367.415
L178.086 369.16
L178.963 374.379
L179.787 380.263
L180.199 382.294
L181.642 387.782
L182.776 391.415
L184.013 395.412
L184.476 396.082
L184.837 396.109
L185.352 395.923
L185.919 395.86
L186.538 396.571
L187.62 395.392
L187.774 395.303
L188.032 395.269
L189.836 393.421
L190.866 390.865
L191.639 387.325
L192 385.104
L193.443 372.846
L194.782 360.205
L195.401 355.937
L196.277 351.002
L197.823 344.438
L198.441 341.916
L198.853 340.923
L199.163 340.556
L199.626 340.527
L199.884 340.386
L200.142 339.705
L201.327 335.495
L201.739 333.347
L202.512 328.979
L204.47 312.196
L205.655 301.046
L206.428 294.293
L208.284 280.312
L208.953 275.058
L209.572 271.608
L210.19 268.492
L210.963 262.804
L212.148 254.426
L213.179 248.995
L213.591 247.971
L213.746 247.928
L214.158 248.304
L214.364 248.484
L215.24 249.094
L215.549 249.293
L215.756 249.703
L216.219 250.838
L216.992 252.897
L218.229 257.817
L220.909 269.959
L221.579 273.998
L222.197 278.823
L224.67 299.288
L225.495 305.301
L226.165 310.235
L227.556 318.215
L228.484 325.472
L229.566 333.499
L230.287 337.059
L230.751 338.624
L231.679 340.752
L232.091 341.067
L232.348 341.016
L232.812 341.017
L233.018 340.983
L233.482 341.05
L234.358 341.246
L235.286 339.9
L235.646 338.975
L235.956 338.308
L236.419 336.988
L237.244 334.384
L237.708 333.551
L237.965 333.081
L238.687 331.494
L239.563 328.601
L240.336 325.498
L241.779 320.002
L242.964 315.387
L243.685 312.826
L244.097 312.496
L244.355 312.607
L244.716 313.084
L245.18 313.674
L245.386 314.064
L246.056 315.458
L246.571 316.215
L247.035 316.856
L248.478 319.513
L248.89 320.511
L249.251 321.16
L250.848 326.219
L251.209 327.117
L253.115 333.653
L253.631 335.333
L254.146 335.955
L254.507 336.075
L254.816 336.117
L255.125 336.461
L255.434 337.154
L255.795 338.345
L256.207 340.476
L257.805 349.868
L258.32 351.996
L259.041 354.181
L259.299 354.41
L259.814 354.472
L260.072 354.598
L260.227 354.697
L260.587 355.007
L260.845 355.167
L261.103 355.294
L261.309 355.284
L261.618 355.13
L261.876 355.22
L262.236 355.404
L263.422 353.993
L264.195 351.929
L265.637 347.647
L265.844 347.628
L266.977 348.088
L267.183 348.173
L267.647 348.663
L268.008 348.66
L268.317 348.623
L268.523 348.621
L268.781 348.45
L269.708 347.431
L270.069 347.345
L270.687 347.458
L271.203 347.361
L272.336 348.309
L272.903 349.505
L273.47 351.026
L275.171 353.968
L275.531 353.556
L275.995 352.359
L276.356 350.89
L277.283 347.434
L277.644 346.524
L277.902 345.896
L278.675 344.701
L279.396 342.068
L279.911 340.022
L280.684 337.761
L281.097 336.584
L281.509 334.437
L282.333 329.812
L283.312 325.06
L284.755 320.164
L285.425 317.49
L287.126 312.226
L288.259 309.486
L288.672 307.997
L289.239 305.531
L289.702 304.005
L290.578 301.487
L292.124 294.929
L292.485 294.122
L293 292.931
L293.876 290.722
L294.392 290.317
L294.546 290.333
L294.804 290.529
L295.01 290.351
L295.525 288.899
L296.041 287.581
L296.917 285.343
L297.123 285.152
L297.432 284.522
L297.896 282.967
L299.339 276.626
L299.802 274.892
L300.524 273.163
L300.833 273.128
L301.142 273.281
L301.503 273.581
L301.657 273.743
L302.018 274.051
L302.327 274.029
L302.533 273.969
L302.688 274.153
L302.997 275
L304.028 278.847
L304.595 280.652
L305.058 281.975
L306.089 285.009
L306.811 288.05
L307.326 289.75
L307.841 290.59
L308.305 290.675
L308.872 291.88
L309.232 292.972
L309.799 294.664
L310.109 295.661
L311.036 299.659
L313.2 307.872
L313.51 308.91
L315.313 317.169
L315.828 319.464
L317.787 327.14
L318.25 330.41
L319.539 339.732
L320.26 343.113
L320.827 346.017
L321.651 350.423
L323.352 357.056
L324.795 361.319
L325.619 363.034
L325.928 363.59
L326.186 363.954
L326.959 365.357
L327.423 365.186
L327.784 365.238
L328.247 365.114
L328.608 364.606
L329.072 363.407
L329.639 362.027
L330.102 360.848
L330.979 357.252
L331.597 354.489
L332.731 350.772
L333.813 346.621
L334.276 344.318
L334.946 341.264
L335.359 340.114
L335.668 339.804
L335.925 339.651
L336.338 339.26
L336.801 339.418
L337.008 339.369
L337.214 339.379
L338.296 340.217
L339.223 339.846
L339.945 339.582
L340.409 339.232
L341.491 339.186
L342.264 338.633
L343.449 339.15
L343.758 339.363
L344.016 339.373
L344.634 338.801
L344.892 338.808
L345.304 338.613
L345.665 338.737
L346.335 338.8
L346.695 338.237
L347.365 337.119
L347.726 336.836
L347.984 336.715
L348.344 336.652
L349.117 337.378
L349.581 337.113
L350.045 337.106
L350.354 337.089
L350.663 336.892
L350.869 336.496
L351.591 334.534
L352.57 330.217
L353.755 324.264
L354.734 320.873
L356.95 313.745
L357.208 313.223
L357.62 312.421
L357.929 311.74
L358.393 310.619
L359.269 309.157
L360.351 307.789
L361.073 306.166
L361.485 305.761
L362.155 305.367
L362.825 304.289
L363.082 304.283
L363.391 304.727
L363.958 305.646
L365.195 306.72
L365.401 306.76
L365.968 307.029
L366.38 306.695
L366.896 305.947
L367.102 305.572
L367.514 304.825
L368.338 303.659
L368.545 303.676
L368.854 303.803
L369.317 303.757
L369.472 303.638
L370.245 302.427
L370.863 300.697
L372.77 296.984
L373.028 296.95
L373.801 297.382
L374.367 297.975
L374.934 299.007
L376.171 301.497
L376.377 301.587
L376.686 301.487
L377.356 301.945
L378.078 302.953
L378.438 303.758
L379.366 305.771
L380.448 306.687
L380.654 306.813
L380.86 306.839
L381.273 307.033
L381.736 307.179
L382.046 307.492
L382.406 308.006
L383.952 311.764
L384.88 312.923
L385.086 313.052
L385.344 313.234
L385.807 313.238
L386.065 313.441
L386.426 314.145
L387.147 316.27
L387.869 318.413
L388.745 321.052
L390.548 328.793
L390.909 329.509
L391.218 329.823
L391.579 329.871
L393.228 328.054
L393.434 327.836
L393.846 327.552
L394.155 327.46
L395.392 328.302
L396.062 328.987
L396.526 329.669
L396.99 330.885
L397.453 332.606
L398.072 334.391
L398.948 336.536
L399.515 338.087
L399.772 338.347
L399.978 338.539
L400.339 338.781
L400.648 338.837
L401.06 338.392
L401.421 337.911
L401.936 337.466
L402.297 337.43
L402.813 336.696
L403.07 336.352
L405.131 334.985
L405.801 335.669
L406.059 335.819
L406.317 335.7
L406.523 335.344
L407.038 334.452
L408.017 333.513
L409.305 332.678
L409.924 332.893
L410.284 332.676
L410.851 332.281
L411.264 332.066
L411.47 331.785
L411.882 331.16
L412.14 330.717
L412.964 329.067
L413.995 326.7
L414.304 326.631
L414.768 326.709
L416.107 329.329
L418.22 335.074
L418.942 336.232
L420.539 338.285
L421.982 341.14
L422.755 342.921
L423.528 343.955
L423.786 344.026
L424.198 344.137
L424.559 344.259
L425.022 344.007
L425.847 343.151
L426.877 341.285
L427.393 340.987
L427.753 341.01
L428.063 340.939
L429.248 342.111
L430.33 341.833
L430.639 341.813
L430.897 341.527
L431.206 341.128
L431.515 340.809
L432.597 338.243
L434.813 332.07
L435.741 329.288
L436.308 327.056
L438.678 316.344
L440.121 310.87
L441.1 306.3
L441.77 304.632
L442.285 303.58
L442.8 302.451
L443.367 301.286
L443.676 300.905
L444.553 300.249
L444.862 299.99
L445.738 299.68
L446.047 299.727
L446.511 299.578
L446.768 299.229
L447.49 298.319
L447.85 298.015
L448.211 297.626
L448.623 297.574
L448.984 297.689
L449.603 297.969
L449.86 297.763
L451.458 295.756
L452.643 294.084
L453.622 293.014
L454.24 292.271
L455.168 291.841
L455.322 291.867
L455.735 292.363
L456.559 293.505
L456.817 293.878
L457.229 294.955
L458.414 299.508
L459.651 305.661
L460.166 308.061
L460.63 309.34
L461.352 310.654
L461.764 311.413
L462.846 313.617
L463.516 314.578
L464.031 314.926
L464.289 315.078
L464.546 315.441
L465.783 317.334
L466.968 318.234
L467.793 317.829
L468.308 317.698
L468.463 317.755
L469.339 318.419
L469.803 318.814
L470.576 320.708
L472.018 326.438
L472.998 331.01
L473.77 333.119
L474.389 334.633
L475.162 337.838
L476.192 342.151
L476.862 344.187
L477.429 345.521
L477.79 346.012
L478.254 347.148
L478.872 348.876
L480.985 353.143
L481.655 353.765
L482.118 353.68
L483.149 354.339
L483.458 354.301
L483.819 354.249
L484.077 354.195
L484.798 353.378
L485.416 352.166
L487.065 348.722
L487.426 348.403
L488.045 347.768
L489.075 346.519
L491.085 341.417
L494.022 333.812
L495.156 331.753
L496.547 329.133
L497.011 328.265
L497.887 326.852
L499.639 324.506
L500 324.059
L500.257 323.764
L500.721 323.181
L501.391 322.587
L502.319 320.752
L503.092 319.01
L504.071 316.947
L505.05 314.73
L506.183 312.656
L507.317 310.071
L507.781 309.428
L508.399 308.78
L508.863 308.49
L509.378 308.141
L510.718 307.069
L511.44 307.05
L511.749 307.371
L512.161 308.087
L512.985 309.296
L513.398 309.866
L514.171 311.303
L514.944 312.444
L515.51 313.562
L517.572 319.758
L519.375 323.505
L519.839 323.872
L520.354 324.275
L520.818 324.773
L521.488 325.015
L522.467 324.827
L522.776 324.873
L523.807 324.579
L524.528 323.841
L525.198 322.619
L526.847 319.07
L530.145 310.04
L531.434 308.271
L532.31 307.734
L533.083 307.853
L533.959 308.072
L535.608 307.792
L536.844 308.039
L537.205 307.892
L537.617 307.758
L539.215 308.676
L539.678 309.246
L541.327 310.665
L541.894 311.764
L542.873 314.14
L543.749 316.705
L544.471 317.921
L544.78 318.354
L545.708 320.158
L546.944 322.698
L547.305 323.453
L547.305 323.453" style="fill:none;stroke:#0000ff;"/>
   </g>
   <g id="matplotlib.axis_1">
    <g id="xtick_1">
     <g id="line2d_2">
      <defs>
       <path d="
M0 0
L0 -4" id="m44ed65d01f"/>
      </defs>
      <g>
       <use style="stroke:#000000;stroke-linecap:butt;stroke-width:0.5;" x="156.354338713" xlink:href="#m44ed65d01f" y="323.329189503"/>
      </g>
     </g>
     <g id="text_1">
      <!-- 5 -->
      <defs>
       <path d="
M10.7969 72.9062
L49.5156 72.9062
L49.5156 64.5938
L19.8281 64.5938
L19.8281 46.7344
Q21.9688 47.4688 24.1094 47.8281
Q26.2656 48.1875 28.4219 48.1875
Q40.625 48.1875 47.75 41.5
Q54.8906 34.8125 54.8906 23.3906
Q54.8906 11.625 47.5625 5.09375
Q40.2344 -1.42188 26.9062 -1.42188
Q22.3125 -1.42188 17.5469 -0.640625
Q12.7969 0.140625 7.71875 1.70312
L7.71875 11.625
Q12.1094 9.23438 16.7969 8.0625
Q21.4844 6.89062 26.7031 6.89062
Q35.1562 6.89062 40.0781 11.3281
Q45.0156 15.7656 45.0156 23.3906
Q45.0156 31 40.0781 35.4375
Q35.1562 39.8906 26.7031 39.8906
Q22.75 39.8906 18.8125 39.0156
Q14.8906 38.1406 10.7969 36.2812
z
" id="BitstreamVeraSans-Roman-35"/>
      </defs>
      <g transform="translate(153.995744963 334.619814503)scale(0.1 -0.1)">
       <use xlink:href="#BitstreamVeraSans-Roman-35"/>
      </g>
     </g>
    </g>
    <g id="xtick_2">
     <g id="line2d_3">
      <defs>
       <path d="
M0 0
L0 -4" id="m44ed65d01f"/>
      </defs>
      <g>
       <use style="stroke:#000000;stroke-linecap:butt;stroke-width:0.5;" x="280.685250683" xlink:href="#m44ed65d01f" y="323.329189503"/>
      </g>
     </g>
     <g id="text_2">
      <!-- 10 -->
      <defs>
       <path d="
M31.7812 66.4062
Q24.1719 66.4062 20.3281 58.9062
Q16.5 51.4219 16.5 36.375
Q16.5 21.3906 20.3281 13.8906
Q24.1719 6.39062 31.7812 6.39062
Q39.4531 6.39062 43.2812 13.8906
Q47.125 21.3906 47.125 36.375
Q47.125 51.4219 43.2812 58.9062
Q39.4531 66.4062 31.7812 66.4062
M31.7812 74.2188
Q44.0469 74.2188 50.5156 64.5156
Q56.9844 54.8281 56.9844 36.375
Q56.9844 17.9688 50.5156 8.26562
Q44.0469 -1.42188 31.7812 -1.42188
Q19.5312 -1.42188 13.0625 8.26562
Q6.59375 17.9688 6.59375 36.375
Q6.59375 54.8281 13.0625 64.5156
Q19.5312 74.2188 31.7812 74.2188" id="BitstreamVeraSans-Roman-30"/>
       <path d="
M12.4062 8.29688
L28.5156 8.29688
L28.5156 63.9219
L10.9844 60.4062
L10.9844 69.3906
L28.4219 72.9062
L38.2812 72.9062
L38.2812 8.29688
L54.3906 8.29688
L54.3906 0
L12.4062 0
z
" id="BitstreamVeraSans-Roman-31"/>
      </defs>
      <g transform="translate(275.204000683 334.751064503)scale(0.1 -0.1)">
       <use xlink:href="#BitstreamVeraSans-Roman-31"/>
       <use x="63.623046875" xlink:href="#BitstreamVeraSans-Roman-30"/>
      </g>
     </g>
    </g>
    <g id="xtick_3">
     <g id="line2d_4">
      <defs>
       <path d="
M0 0
L0 -4" id="m44ed65d01f"/>
      </defs>
      <g>
       <use style="stroke:#000000;stroke-linecap:butt;stroke-width:0.5;" x="405.016162652" xlink:href="#m44ed65d01f" y="323.329189503"/>
      </g>
     </g>
     <g id="text_3">
      <!-- 15 -->
      <g transform="translate(399.639600152 334.619814503)scale(0.1 -0.1)">
       <use xlink:href="#BitstreamVeraSans-Roman-31"/>
       <use x="63.623046875" xlink:href="#BitstreamVeraSans-Roman-35"/>
      </g>
     </g>
    </g>
    <g id="xtick_4">
     <g id="line2d_5">
      <defs>
       <path d="
M0 0
L0 -4" id="m44ed65d01f"/>
      </defs>
      <g>
       <use style="stroke:#000000;stroke-linecap:butt;stroke-width:0.5;" x="529.347074621" xlink:href="#m44ed65d01f" y="323.329189503"/>
      </g>
     </g>
     <g id="text_4">
      <!-- 20 -->
      <defs>
       <path d="
M19.1875 8.29688
L53.6094 8.29688
L53.6094 0
L7.32812 0
L7.32812 8.29688
Q12.9375 14.1094 22.625 23.8906
Q32.3281 33.6875 34.8125 36.5312
Q39.5469 41.8438 41.4219 45.5312
Q43.3125 49.2188 43.3125 52.7812
Q43.3125 58.5938 39.2344 62.25
Q35.1562 65.9219 28.6094 65.9219
Q23.9688 65.9219 18.8125 64.3125
Q13.6719 62.7031 7.8125 59.4219
L7.8125 69.3906
Q13.7656 71.7812 18.9375 73
Q24.125 74.2188 28.4219 74.2188
Q39.75 74.2188 46.4844 68.5469
Q53.2188 62.8906 53.2188 53.4219
Q53.2188 48.9219 51.5312 44.8906
Q49.8594 40.875 45.4062 35.4062
Q44.1875 33.9844 37.6406 27.2188
Q31.1094 20.4531 19.1875 8.29688" id="BitstreamVeraSans-Roman-32"/>
      </defs>
      <g transform="translate(523.683012121 334.751064503)scale(0.1 -0.1)">
       <use xlink:href="#BitstreamVeraSans-Roman-32"/>
       <use x="63.623046875" xlink:href="#BitstreamVeraSans-Roman-30"/>
      </g>
     </g>
    </g>
    <g id="xtick_5">
     <g id="line2d_6">
      <defs>
       <path d="
M0 0
L0 -2" id="m06dd23cfa9"/>
      </defs>
      <g>
       <use style="stroke:#000000;stroke-linecap:butt;stroke-width:0.5;" x="56.8896091378" xlink:href="#m06dd23cfa9" y="323.329189503"/>
      </g>
     </g>
    </g>
    <g id="xtick_6">
     <g id="line2d_7">
      <defs>
       <path d="
M0 0
L0 -2" id="m06dd23cfa9"/>
      </defs>
      <g>
       <use style="stroke:#000000;stroke-linecap:butt;stroke-width:0.5;" x="81.7557915317" xlink:href="#m06dd23cfa9" y="323.329189503"/>
      </g>
     </g>
    </g>
    <g id="xtick_7">
     <g id="line2d_8">
      <defs>
       <path d="
M0 0
L0 -2" id="m06dd23cfa9"/>
      </defs>
      <g>
       <use style="stroke:#000000;stroke-linecap:butt;stroke-width:0.5;" x="106.621973926" xlink:href="#m06dd23cfa9" y="323.329189503"/>
      </g>
     </g>
    </g>
    <g id="xtick_8">
     <g id="line2d_9">
      <defs>
       <path d="
M0 0
L0 -2" id="m06dd23cfa9"/>
      </defs>
      <g>
       <use style="stroke:#000000;stroke-linecap:butt;stroke-width:0.5;" x="131.488156319" xlink:href="#m06dd23cfa9" y="323.329189503"/>
      </g>
     </g>
    </g>
    <g id="xtick_9">
     <g id="line2d_10">
      <defs>
       <path d="
M0 0
L0 -2" id="m06dd23cfa9"/>
      </defs>
      <g>
       <use style="stroke:#000000;stroke-linecap:butt;stroke-width:0.5;" x="181.220521107" xlink:href="#m06dd23cfa9" y="323.329189503"/>
      </g>
     </g>
    </g>
    <g id="xtick_10">
     <g id="line2d_11">
      <defs>
       <path d="
M0 0
L0 -2" id="m06dd23cfa9"/>
      </defs>
      <g>
       <use style="stroke:#000000;stroke-linecap:butt;stroke-width:0.5;" x="206.086703501" xlink:href="#m06dd23cfa9" y="323.329189503"/>
      </g>
     </g>
    </g>
    <g id="xtick_11">
     <g id="line2d_12">
      <defs>
       <path d="
M0 0
L0 -2" id="m06dd23cfa9"/>
      </defs>
      <g>
       <use style="stroke:#000000;stroke-linecap:butt;stroke-width:0.5;" x="230.952885895" xlink:href="#m06dd23cfa9" y="323.329189503"/>
      </g>
     </g>
    </g>
    <g id="xtick_12">
     <g id="line2d_13">
      <defs>
       <path d="
M0 0
L0 -2" id="m06dd23cfa9"/>
      </defs>
      <g>
       <use style="stroke:#000000;stroke-linecap:butt;stroke-width:0.5;" x="255.819068289" xlink:href="#m06dd23cfa9" y="323.329189503"/>
      </g>
     </g>
    </g>
    <g id="xtick_13">
     <g id="line2d_14">
      <defs>
       <path d="
M0 0
L0 -2" id="m06dd23cfa9"/>
      </defs>
      <g>
       <use style="stroke:#000000;stroke-linecap:butt;stroke-width:0.5;" x="305.551433077" xlink:href="#m06dd23cfa9" y="323.329189503"/>
      </g>
     </g>
    </g>
    <g id="xtick_14">
     <g id="line2d_15">
      <defs>
       <path d="
M0 0
L0 -2" id="m06dd23cfa9"/>
      </defs>
      <g>
       <use style="stroke:#000000;stroke-linecap:butt;stroke-width:0.5;" x="330.41761547" xlink:href="#m06dd23cfa9" y="323.329189503"/>
      </g>
     </g>
    </g>
    <g id="xtick_15">
     <g id="line2d_16">
      <defs>
       <path d="
M0 0
L0 -2" id="m06dd23cfa9"/>
      </defs>
      <g>
       <use style="stroke:#000000;stroke-linecap:butt;stroke-width:0.5;" x="355.283797864" xlink:href="#m06dd23cfa9" y="323.329189503"/>
      </g>
     </g>
    </g>
    <g id="xtick_16">
     <g id="line2d_17">
      <defs>
       <path d="
M0 0
L0 -2" id="m06dd23cfa9"/>
      </defs>
      <g>
       <use style="stroke:#000000;stroke-linecap:butt;stroke-width:0.5;" x="380.149980258" xlink:href="#m06dd23cfa9" y="323.329189503"/>
      </g>
     </g>
    </g>
    <g id="xtick_17">
     <g id="line2d_18">
      <defs>
       <path d="
M0 0
L0 -2" id="m06dd23cfa9"/>
      </defs>
      <g>
       <use style="stroke:#000000;stroke-linecap:butt;stroke-width:0.5;" x="429.882345046" xlink:href="#m06dd23cfa9" y="323.329189503"/>
      </g>
     </g>
    </g>
    <g id="xtick_18">
     <g id="line2d_19">
      <defs>
       <path d="
M0 0
L0 -2" id="m06dd23cfa9"/>
      </defs>
      <g>
       <use style="stroke:#000000;stroke-linecap:butt;stroke-width:0.5;" x="454.74852744" xlink:href="#m06dd23cfa9" y="323.329189503"/>
      </g>
     </g>
    </g>
    <g id="xtick_19">
     <g id="line2d_20">
      <defs>
       <path d="
M0 0
L0 -2" id="m06dd23cfa9"/>
      </defs>
      <g>
       <use style="stroke:#000000;stroke-linecap:butt;stroke-width:0.5;" x="479.614709834" xlink:href="#m06dd23cfa9" y="323.329189503"/>
      </g>
     </g>
    </g>
    <g id="xtick_20">
     <g id="line2d_21">
      <defs>
       <path d="
M0 0
L0 -2" id="m06dd23cfa9"/>
      </defs>
      <g>
       <use style="stroke:#000000;stroke-linecap:butt;stroke-width:0.5;" x="504.480892228" xlink:href="#m06dd23cfa9" y="323.329189503"/>
      </g>
     </g>
    </g>
   </g>
   <g id="matplotlib.axis_2">
    <g id="ytick_1">
     <g id="line2d_22">
      <defs>
       <path d="
M0 0
L4 0" id="m5aaf488d15"/>
      </defs>
      <g>
       <use style="stroke:#000000;stroke-linecap:butt;stroke-width:0.5;" x="29.2984375" xlink:href="#m5aaf488d15" y="392.759050511"/>
      </g>
     </g>
     <g id="text_5">
      <!-- -0.1 -->
      <defs>
       <path d="
M10.6875 12.4062
L21 12.4062
L21 0
L10.6875 0
z
" id="BitstreamVeraSans-Roman-2e"/>
       <path d="
M4.89062 31.3906
L31.2031 31.3906
L31.2031 23.3906
L4.89062 23.3906
z
" id="BitstreamVeraSans-Roman-2d"/>
      </defs>
      <g transform="translate(7.2 396.398894261)scale(0.1 -0.1)">
       <use xlink:href="#BitstreamVeraSans-Roman-2d"/>
       <use x="36.083984375" xlink:href="#BitstreamVeraSans-Roman-30"/>
       <use x="99.70703125" xlink:href="#BitstreamVeraSans-Roman-2e"/>
       <use x="131.494140625" xlink:href="#BitstreamVeraSans-Roman-31"/>
      </g>
     </g>
    </g>
    <g id="ytick_2">
     <g id="line2d_23">
      <defs>
       <path d="
M0 0
L4 0" id="m5aaf488d15"/>
      </defs>
      <g>
       <use style="stroke:#000000;stroke-linecap:butt;stroke-width:0.5;" x="29.2984375" xlink:href="#m5aaf488d15" y="323.329189503"/>
      </g>
     </g>
     <g id="text_6">
      <!-- 0 -->
      <g transform="translate(20.259375 326.969033253)scale(0.1 -0.1)">
       <use xlink:href="#BitstreamVeraSans-Roman-30"/>
      </g>
     </g>
    </g>
    <g id="ytick_3">
     <g id="line2d_24">
      <defs>
       <path d="
M0 0
L4 0" id="m5aaf488d15"/>
      </defs>
      <g>
       <use style="stroke:#000000;stroke-linecap:butt;stroke-width:0.5;" x="29.2984375" xlink:href="#m5aaf488d15" y="253.899328494"/>
      </g>
     </g>
     <g id="text_7">
      <!-- 0.1 -->
      <g transform="translate(10.978125 257.539172244)scale(0.1 -0.1)">
       <use xlink:href="#BitstreamVeraSans-Roman-30"/>
       <use x="63.623046875" xlink:href="#BitstreamVeraSans-Roman-2e"/>
       <use x="95.41015625" xlink:href="#BitstreamVeraSans-Roman-31"/>
      </g>
     </g>
    </g>
    <g id="ytick_4">
     <g id="line2d_25">
      <defs>
       <path d="
M0 0
L4 0" id="m5aaf488d15"/>
      </defs>
      <g>
       <use style="stroke:#000000;stroke-linecap:butt;stroke-width:0.5;" x="29.2984375" xlink:href="#m5aaf488d15" y="184.469467486"/>
      </g>
     </g>
     <g id="text_8">
      <!-- 0.2 -->
      <g transform="translate(11.05625 188.109311236)scale(0.1 -0.1)">
       <use xlink:href="#BitstreamVeraSans-Roman-30"/>
       <use x="63.623046875" xlink:href="#BitstreamVeraSans-Roman-2e"/>
       <use x="95.41015625" xlink:href="#BitstreamVeraSans-Roman-32"/>
      </g>
     </g>
    </g>
    <g id="ytick_5">
     <g id="line2d_26">
      <defs>
       <path d="
M0 0
L4 0" id="m5aaf488d15"/>
      </defs>
      <g>
       <use style="stroke:#000000;stroke-linecap:butt;stroke-width:0.5;" x="29.2984375" xlink:href="#m5aaf488d15" y="115.039606478"/>
      </g>
     </g>
     <g id="text_9">
      <!-- 0.3 -->
      <defs>
       <path d="
M40.5781 39.3125
Q47.6562 37.7969 51.625 33
Q55.6094 28.2188 55.6094 21.1875
Q55.6094 10.4062 48.1875 4.48438
Q40.7656 -1.42188 27.0938 -1.42188
Q22.5156 -1.42188 17.6562 -0.515625
Q12.7969 0.390625 7.625 2.20312
L7.625 11.7188
Q11.7188 9.32812 16.5938 8.10938
Q21.4844 6.89062 26.8125 6.89062
Q36.0781 6.89062 40.9375 10.5469
Q45.7969 14.2031 45.7969 21.1875
Q45.7969 27.6406 41.2812 31.2656
Q36.7656 34.9062 28.7188 34.9062
L20.2188 34.9062
L20.2188 43.0156
L29.1094 43.0156
Q36.375 43.0156 40.2344 45.9219
Q44.0938 48.8281 44.0938 54.2969
Q44.0938 59.9062 40.1094 62.9062
Q36.1406 65.9219 28.7188 65.9219
Q24.6562 65.9219 20.0156 65.0312
Q15.375 64.1562 9.8125 62.3125
L9.8125 71.0938
Q15.4375 72.6562 20.3438 73.4375
Q25.25 74.2188 29.5938 74.2188
Q40.8281 74.2188 47.3594 69.1094
Q53.9062 64.0156 53.9062 55.3281
Q53.9062 49.2656 50.4375 45.0938
Q46.9688 40.9219 40.5781 39.3125" id="BitstreamVeraSans-Roman-33"/>
      </defs>
      <g transform="translate(10.85625 118.679450228)scale(0.1 -0.1)">
       <use xlink:href="#BitstreamVeraSans-Roman-30"/>
       <use x="63.623046875" xlink:href="#BitstreamVeraSans-Roman-2e"/>
       <use x="95.41015625" xlink:href="#BitstreamVeraSans-Roman-33"/>
      </g>
     </g>
    </g>
    <g id="ytick_6">
     <g id="line2d_27">
      <defs>
       <path d="
M0 0
L4 0" id="m5aaf488d15"/>
      </defs>
      <g>
       <use style="stroke:#000000;stroke-linecap:butt;stroke-width:0.5;" x="29.2984375" xlink:href="#m5aaf488d15" y="45.60974547"/>
      </g>
     </g>
     <g id="text_10">
      <!-- 0.4 -->
      <defs>
       <path d="
M37.7969 64.3125
L12.8906 25.3906
L37.7969 25.3906
z

M35.2031 72.9062
L47.6094 72.9062
L47.6094 25.3906
L58.0156 25.3906
L58.0156 17.1875
L47.6094 17.1875
L47.6094 0
L37.7969 0
L37.7969 17.1875
L4.89062 17.1875
L4.89062 26.7031
z
" id="BitstreamVeraSans-Roman-34"/>
      </defs>
      <g transform="translate(10.615625 49.24958922)scale(0.1 -0.1)">
       <use xlink:href="#BitstreamVeraSans-Roman-30"/>
       <use x="63.623046875" xlink:href="#BitstreamVeraSans-Roman-2e"/>
       <use x="95.41015625" xlink:href="#BitstreamVeraSans-Roman-34"/>
      </g>
     </g>
    </g>
    <g id="ytick_7">
     <g id="line2d_28">
      <defs>
       <path d="
M0 0
L2 0" id="m0d921daf71"/>
      </defs>
      <g>
       <use style="stroke:#000000;stroke-linecap:butt;stroke-width:0.5;" x="29.2984375" xlink:href="#m0d921daf71" y="406.645022712"/>
      </g>
     </g>
    </g>
    <g id="ytick_8">
     <g id="line2d_29">
      <defs>
       <path d="
M0 0
L2 0" id="m0d921daf71"/>
      </defs>
      <g>
       <use style="stroke:#000000;stroke-linecap:butt;stroke-width:0.5;" x="29.2984375" xlink:href="#m0d921daf71" y="378.873078309"/>
      </g>
     </g>
    </g>
    <g id="ytick_9">
     <g id="line2d_30">
      <defs>
       <path d="
M0 0
L2 0" id="m0d921daf71"/>
      </defs>
      <g>
       <use style="stroke:#000000;stroke-linecap:butt;stroke-width:0.5;" x="29.2984375" xlink:href="#m0d921daf71" y="364.987106107"/>
      </g>
     </g>
    </g>
    <g id="ytick_10">
     <g id="line2d_31">
      <defs>
       <path d="
M0 0
L2 0" id="m0d921daf71"/>
      </defs>
      <g>
       <use style="stroke:#000000;stroke-linecap:butt;stroke-width:0.5;" x="29.2984375" xlink:href="#m0d921daf71" y="351.101133906"/>
      </g>
     </g>
    </g>
    <g id="ytick_11">
     <g id="line2d_32">
      <defs>
       <path d="
M0 0
L2 0" id="m0d921daf71"/>
      </defs>
      <g>
       <use style="stroke:#000000;stroke-linecap:butt;stroke-width:0.5;" x="29.2984375" xlink:href="#m0d921daf71" y="337.215161704"/>
      </g>
     </g>
    </g>
    <g id="ytick_12">
     <g id="line2d_33">
      <defs>
       <path d="
M0 0
L2 0" id="m0d921daf71"/>
      </defs>
      <g>
       <use style="stroke:#000000;stroke-linecap:butt;stroke-width:0.5;" x="29.2984375" xlink:href="#m0d921daf71" y="309.443217301"/>
      </g>
     </g>
    </g>
    <g id="ytick_13">
     <g id="line2d_34">
      <defs>
       <path d="
M0 0
L2 0" id="m0d921daf71"/>
      </defs>
      <g>
       <use style="stroke:#000000;stroke-linecap:butt;stroke-width:0.5;" x="29.2984375" xlink:href="#m0d921daf71" y="295.557245099"/>
      </g>
     </g>
    </g>
    <g id="ytick_14">
     <g id="line2d_35">
      <defs>
       <path d="
M0 0
L2 0" id="m0d921daf71"/>
      </defs>
      <g>
       <use style="stroke:#000000;stroke-linecap:butt;stroke-width:0.5;" x="29.2984375" xlink:href="#m0d921daf71" y="281.671272898"/>
      </g>
     </g>
    </g>
    <g id="ytick_15">
     <g id="line2d_36">
      <defs>
       <path d="
M0 0
L2 0" id="m0d921daf71"/>
      </defs>
      <g>
       <use style="stroke:#000000;stroke-linecap:butt;stroke-width:0.5;" x="29.2984375" xlink:href="#m0d921daf71" y="267.785300696"/>
      </g>
     </g>
    </g>
    <g id="ytick_16">
     <g id="line2d_37">
      <defs>
       <path d="
M0 0
L2 0" id="m0d921daf71"/>
      </defs>
      <g>
       <use style="stroke:#000000;stroke-linecap:butt;stroke-width:0.5;" x="29.2984375" xlink:href="#m0d921daf71" y="240.013356293"/>
      </g>
     </g>
    </g>
    <g id="ytick_17">
     <g id="line2d_38">
      <defs>
       <path d="
M0 0
L2 0" id="m0d921daf71"/>
      </defs>
      <g>
       <use style="stroke:#000000;stroke-linecap:butt;stroke-width:0.5;" x="29.2984375" xlink:href="#m0d921daf71" y="226.127384091"/>
      </g>
     </g>
    </g>
    <g id="ytick_18">
     <g id="line2d_39">
      <defs>
       <path d="
M0 0
L2 0" id="m0d921daf71"/>
      </defs>
      <g>
       <use style="stroke:#000000;stroke-linecap:butt;stroke-width:0.5;" x="29.2984375" xlink:href="#m0d921daf71" y="212.24141189"/>
      </g>
     </g>
    </g>
    <g id="ytick_19">
     <g id="line2d_40">
      <defs>
       <path d="
M0 0
L2 0" id="m0d921daf71"/>
      </defs>
      <g>
       <use style="stroke:#000000;stroke-linecap:butt;stroke-width:0.5;" x="29.2984375" xlink:href="#m0d921daf71" y="198.355439688"/>
      </g>
     </g>
    </g>
    <g id="ytick_20">
     <g id="line2d_41">
      <defs>
       <path d="
M0 0
L2 0" id="m0d921daf71"/>
      </defs>
      <g>
       <use style="stroke:#000000;stroke-linecap:butt;stroke-width:0.5;" x="29.2984375" xlink:href="#m0d921daf71" y="170.583495285"/>
      </g>
     </g>
    </g>
    <g id="ytick_21">
     <g id="line2d_42">
      <defs>
       <path d="
M0 0
L2 0" id="m0d921daf71"/>
      </defs>
      <g>
       <use style="stroke:#000000;stroke-linecap:butt;stroke-width:0.5;" x="29.2984375" xlink:href="#m0d921daf71" y="156.697523083"/>
      </g>
     </g>
    </g>
    <g id="ytick_22">
     <g id="line2d_43">
      <defs>
       <path d="
M0 0
L2 0" id="m0d921daf71"/>
      </defs>
      <g>
       <use style="stroke:#000000;stroke-linecap:butt;stroke-width:0.5;" x="29.2984375" xlink:href="#m0d921daf71" y="142.811550881"/>
      </g>
     </g>
    </g>
    <g id="ytick_23">
     <g id="line2d_44">
      <defs>
       <path d="
M0 0
L2 0" id="m0d921daf71"/>
      </defs>
      <g>
       <use style="stroke:#000000;stroke-linecap:butt;stroke-width:0.5;" x="29.2984375" xlink:href="#m0d921daf71" y="128.92557868"/>
      </g>
     </g>
    </g>
    <g id="ytick_24">
     <g id="line2d_45">
      <defs>
       <path d="
M0 0
L2 0" id="m0d921daf71"/>
      </defs>
      <g>
       <use style="stroke:#000000;stroke-linecap:butt;stroke-width:0.5;" x="29.2984375" xlink:href="#m0d921daf71" y="101.153634277"/>
      </g>
     </g>
    </g>
    <g id="ytick_25">
     <g id="line2d_46">
      <defs>
       <path d="
M0 0
L2 0" id="m0d921daf71"/>
      </defs>
      <g>
       <use style="stroke:#000000;stroke-linecap:butt;stroke-width:0.5;" x="29.2984375" xlink:href="#m0d921daf71" y="87.2676620749"/>
      </g>
     </g>
    </g>
    <g id="ytick_26">
     <g id="line2d_47">
      <defs>
       <path d="
M0 0
L2 0" id="m0d921daf71"/>
      </defs>
      <g>
       <use style="stroke:#000000;stroke-linecap:butt;stroke-width:0.5;" x="29.2984375" xlink:href="#m0d921daf71" y="73.3816898733"/>
      </g>
     </g>
    </g>
    <g id="ytick_27">
     <g id="line2d_48">
      <defs>
       <path d="
M0 0
L2 0" id="m0d921daf71"/>
      </defs>
      <g>
       <use style="stroke:#000000;stroke-linecap:butt;stroke-width:0.5;" x="29.2984375" xlink:href="#m0d921daf71" y="59.4957176717"/>
      </g>
     </g>
    </g>
    <g id="ytick_28">
     <g id="line2d_49">
      <defs>
       <path d="
M0 0
L2 0" id="m0d921daf71"/>
      </defs>
      <g>
       <use style="stroke:#000000;stroke-linecap:butt;stroke-width:0.5;" x="29.2984375" xlink:href="#m0d921daf71" y="31.7237732684"/>
      </g>
     </g>
    </g>
    <g id="ytick_29">
     <g id="line2d_50">
      <defs>
       <path d="
M0 0
L2 0" id="m0d921daf71"/>
      </defs>
      <g>
       <use style="stroke:#000000;stroke-linecap:butt;stroke-width:0.5;" x="29.2984375" xlink:href="#m0d921daf71" y="17.8378010668"/>
      </g>
     </g>
    </g>
   </g>
   <g id="patch_3">
    <path d="
M39.2984 323.329
L557.266 323.329" style="fill:none;stroke:#000000;stroke-width:0.8;"/>
   </g>
   <g id="patch_4">
    <path d="
M29.2984 413.28
L29.2984 7.2" style="fill:none;stroke:#000000;stroke-width:0.8;"/>
   </g>
  </g>
 </g>
 <defs>
  <clipPath id="pbda54c63f9">
   <rect height="406.08" width="517.9675" x="39.2984375" y="7.2"/>
  </clipPath>
 </defs>
</svg>
