<?xml version="1.0" encoding="utf-8" standalone="no"?>
<!DOCTYPE svg PUBLIC "-//W3C//DTD SVG 1.1//EN"
  "http://www.w3.org/Graphics/SVG/1.1/DTD/svg11.dtd">
<!-- Created with matplotlib (http://matplotlib.sourceforge.net/) -->
<svg height="420pt" version="1.1" viewBox="0 0 564 420" width="564pt" xmlns="http://www.w3.org/2000/svg" xmlns:xlink="http://www.w3.org/1999/xlink">
 <defs>
  <style type="text/css">
*{stroke-linecap:square;stroke-linejoin:round;}
  </style>
 </defs>
 <g id="figure_1">
  <g id="patch_1">
   <path d="
M2.22045e-16 420.48
L564.508 420.48
L564.508 0
L2.22045e-16 0
z
" style="fill:#ffffff;"/>
  </g>
  <g id="axes_1">
   <g id="patch_2">
    <path d="
M45.7109 413.28
L557.308 413.28
L557.308 7.2
L45.7109 7.2
z
" style="fill:#ffffff;"/>
   </g>
   <g id="line2d_1">
    <path clip-path="url(#p5895cd3558)" d="
M55.5493 40.6002
L56.4655 25.2793
L57.0254 19.4999
L57.5343 16.3671
L57.8906 15.2722
L58.1451 15.0108
L58.3487 15.0979
L58.6032 15.564
L58.9594 16.849
L59.4175 19.5272
L59.9774 24.251
L60.69 32.3626
L61.5552 45.0376
L62.5731 63.4199
L63.7947 89.7218
L65.2707 126.669
L65.5252 133.041
L65.5761 132.921
L65.9324 132.526
L66.1868 132.553
L66.4413 132.833
L66.7976 133.638
L67.2557 135.346
L67.8155 138.411
L68.4772 143.333
L69.2916 151.18
L70.2586 162.844
L71.3783 179.217
L72.7017 202.09
L74.2286 232.631
L75.9591 271.874
L77.995 323.385
L78.1477 324.979
L78.453 325.221
L78.8602 325.901
L79.3183 327.128
L79.9291 329.498
L80.6416 333.273
L81.456 338.851
L82.423 347.116
L83.5427 358.758
L84.8152 374.476
L86.2403 394.947
L86.3421 395.752
L87.5127 378.886
L88.6325 365.921
L89.5995 357.076
L89.9049 356.923
L90.2612 356.97
L90.6174 357.247
L91.0755 357.93
L91.5845 359.111
L92.2461 361.29
L92.5006 362.268
L92.5515 362.234
L92.9078 362.141
L93.2641 362.267
L93.6713 362.672
L94.1293 363.453
L94.6892 364.864
L95.3509 367.157
L96.1143 370.614
L97.0305 375.865
L97.4376 378.27
L98.4047 370.335
L99.3717 364.078
L100.237 359.829
L101 357.093
L101.56 355.272
L102.833 341.129
L103.952 331.01
L105.021 323.277
L105.988 317.824
L106.803 313.322
L107.922 304.023
L108.126 302.304
L109.653 269.913
L110.874 247.478
L111.791 242.548
L112.656 238.949
L113.47 236.462
L114.183 234.98
L114.794 234.209
L115.303 233.91
L115.506 233.875
L115.608 233.314
L116.728 225.68
L118.051 218.354
L119.018 213.848
L119.476 212.138
L119.527 212.233
L120.24 213.913
L121.054 216.473
L121.207 217.028
L121.257 216.939
L122.326 211.907
L122.886 209.922
L123.65 211.942
L124.769 218.351
L126.042 226.991
L127.212 236.134
L127.365 235.974
L127.925 235.549
L128.434 235.437
L128.892 235.556
L129.401 235.929
L129.757 236.256
L130.419 235.219
L130.877 234.757
L131.03 236.217
L132.964 260.008
L134.033 272.482
L134.338 277.251
L136.73 315.982
L138.766 344.684
L139.835 361.017
L143.245 399.639
L144.059 402.793
L144.67 403.428
L145.332 404.457
L145.841 405.471
L146.757 400.69
L147.164 397.585
L150.676 353.985
L151.236 345.748
L152.865 318.209
L154.493 290.158
L155.053 282.877
L157.191 258.892
L157.7 255.27
L158.616 250.945
L159.736 246.884
L160.601 248.343
L161.415 250.186
L162.077 252.991
L163.095 255.75
L163.655 256.844
L164.316 255.204
L164.571 255.004
L165.08 253.849
L165.131 253.896
L165.945 255.494
L165.996 255.372
L166.2 254.919
L166.251 254.981
L167.065 256.436
L167.777 257.825
L168.439 256.612
L169.915 256.37
L170.017 256.475
L170.882 258.302
L172.104 261.52
L172.816 263.313
L173.223 264.468
L173.325 264.317
L174.19 262.801
L174.241 262.759
L174.852 264.504
L175.514 267.305
L176.074 268.156
L176.328 268.424
L176.684 268.877
L177.193 270.538
L177.804 271.197
L178.16 271.541
L178.771 271.727
L179.178 271.987
L179.84 275.22
L180.196 276.877
L181.214 281.006
L181.723 282.911
L183.454 287.347
L184.115 288.024
L184.523 287.855
L184.726 287.771
L185.286 287.508
L185.49 287.472
L185.897 288.162
L186.66 288.56
L186.813 288.673
L187.067 287.755
L187.678 285.532
L187.984 285.614
L188.238 286.284
L188.798 288.767
L189.256 290.001
L189.561 289.936
L190.121 291.035
L191.343 297.136
L191.648 297.718
L192.361 301.059
L193.175 306.879
L193.939 311.726
L194.855 317.471
L196.891 328.656
L197.501 330.319
L197.756 330.787
L198.112 331.682
L198.621 332.234
L199.079 333.167
L199.588 333.793
L200.046 334.808
L200.352 335.111
L200.606 334.926
L200.911 334.386
L201.166 334.31
L201.522 333.214
L203.202 325.768
L203.405 325.35
L203.507 325.444
L203.558 325.377
L204.576 323.659
L205.085 323.713
L205.238 323.239
L208.088 309.569
L208.648 305.479
L208.851 304.518
L209.157 303.418
L209.411 303.005
L209.462 303.059
L209.666 303.356
L210.226 304.733
L210.327 304.731
L210.48 304.362
L211.142 301.025
L211.905 297.221
L212.516 294.504
L212.974 292.181
L213.229 291.693
L213.483 291.567
L213.737 291.569
L214.145 291.744
L214.297 291.684
L214.501 291.708
L214.654 291.801
L214.857 291.662
L215.264 291.962
L216.893 294.207
L217.606 297.456
L217.911 298.987
L218.115 299.03
L218.369 298.709
L219.082 296.338
L219.947 291.231
L220.354 286.177
L221.576 270.188
L222.39 261.761
L223.204 253.713
L223.612 251.23
L224.019 248.853
L224.833 244.094
L225.138 243.119
L225.291 243.15
L225.393 243.148
L225.546 242.889
L226.004 241.283
L226.207 241.133
L226.564 241.577
L227.022 242.268
L227.225 242.861
L227.582 244.44
L227.938 246.128
L228.192 246.606
L228.599 247.106
L229.108 248.369
L229.923 252.181
L230.483 254.932
L230.89 255.618
L231.043 255.816
L231.45 257.258
L232.722 261.873
L232.977 262.369
L233.078 262.383
L233.587 262.947
L233.74 263.149
L233.893 263.649
L234.504 265.786
L235.063 266.473
L235.369 266.522
L235.827 265.727
L236.183 265.305
L236.336 265.41
L236.896 266.354
L237.659 268.604
L238.219 271.861
L239.084 277.795
L239.695 281.629
L240.102 283.526
L241.069 287.832
L241.629 291.781
L242.087 296.612
L243.512 312.789
L245.395 334.309
L246.006 338.216
L246.464 340.126
L246.77 340.723
L246.821 340.681
L247.482 339.658
L248.704 335.597
L249.111 334.922
L249.773 333.639
L250.434 331.886
L250.74 332.038
L251.096 332.642
L251.3 332.554
L251.656 332.105
L251.961 331.786
L252.572 331.422
L252.776 330.58
L253.59 326.59
L253.844 326.051
L254.201 325.763
L254.557 325.252
L254.811 325.101
L254.964 325.206
L255.219 325.418
L255.626 325.247
L255.829 324.976
L256.338 323.342
L257.255 319.457
L258.069 316.422
L259.392 310.745
L259.698 309.608
L260.207 307.434
L260.919 304.157
L262.497 295.874
L263.057 293.004
L263.718 290.75
L263.973 289.898
L264.431 286.568
L265.296 278.96
L265.805 275.539
L266.823 270.558
L267.892 267.261
L268.452 266.027
L268.808 265.17
L269.317 264.958
L269.673 265.313
L270.131 266.399
L270.386 267.108
L270.844 268.265
L271.048 268.22
L271.2 268.63
L271.811 270.061
L271.964 270.041
L272.371 270.16
L272.575 270.146
L272.727 269.968
L273.033 269.509
L273.847 268.941
L274.101 269.058
L274.356 269.714
L274.763 270.758
L275.425 271.927
L275.577 271.879
L275.73 271.856
L276.036 272.433
L276.392 273.552
L276.901 275.638
L277.562 278.753
L278.529 282.95
L279.089 284.634
L279.344 284.906
L279.598 284.566
L279.955 283.977
L280.26 283.274
L280.565 282.821
L280.871 282.862
L281.074 282.918
L281.278 282.574
L281.532 282.235
L281.685 282.027
L281.889 281.77
L283.517 282.521
L283.67 282.66
L283.975 282.696
L284.434 283.183
L284.586 283.336
L284.943 283.624
L285.146 283.55
L285.401 284.037
L286.164 285.605
L286.419 285.742
L287.182 287.225
L287.538 287.269
L287.996 286.696
L288.658 284.145
L289.625 279.891
L289.88 279.588
L290.083 279.547
L290.338 279.637
L290.49 279.501
L291.254 277.893
L291.457 277.628
L291.966 276.293
L292.221 276.271
L292.577 276.752
L293.137 278.568
L293.493 279.037
L293.697 279.196
L294.053 279.849
L294.409 279.971
L294.664 280.212
L295.58 283.618
L296.343 286.1
L296.7 286.841
L296.954 287.39
L297.361 288.331
L298.023 289.644
L298.278 289.727
L298.532 290.05
L298.736 290.123
L299.194 290.939
L299.601 292.571
L300.161 296.088
L301.739 308.697
L302.044 309.598
L302.197 310.185
L302.553 311.736
L303.011 314.019
L303.673 316.8
L304.487 318.857
L306.625 326.875
L307.032 327.781
L307.49 328.31
L307.948 328.528
L308.152 328.545
L308.457 328.824
L308.813 328.362
L309.475 326.405
L309.933 323.937
L311.155 316.239
L311.969 311.84
L312.681 306.875
L314.208 299.246
L314.514 298.556
L314.87 298.262
L315.277 297.421
L316.142 295.356
L316.55 294.825
L316.702 294.641
L317.008 293.604
L317.262 293.156
L317.517 293.363
L317.822 293.937
L318.382 295.117
L318.993 295.75
L319.196 295.862
L319.603 296.235
L319.756 296.159
L320.163 295.776
L320.672 295.374
L321.283 294.16
L321.639 293.37
L321.792 293.36
L322.148 293.406
L322.505 293.194
L322.963 293.181
L323.37 293.901
L323.421 293.865
L323.777 293.755
L324.031 293.938
L325.406 291.868
L325.864 290.818
L326.271 289.739
L326.576 289.091
L327.289 287.13
L327.747 284.767
L330.241 271.751
L331.412 267.875
L332.531 264.213
L332.837 264.092
L333.142 263.826
L333.397 263.763
L333.855 263.354
L334.109 262.667
L334.516 261.005
L335.382 256.556
L335.891 255.451
L336.756 254.071
L337.061 254.27
L337.977 255.831
L338.079 255.857
L338.232 255.81
L338.435 255.961
L338.537 256.142
L338.893 257.99
L340.369 267.911
L340.828 270.857
L341.438 273.315
L341.896 274.557
L342.354 277.128
L343.576 284.241
L344.39 287.477
L345.103 290.7
L345.815 292.966
L346.375 294.786
L348.309 301.54
L349.073 304.793
L349.429 305.921
L350.243 307.66
L350.956 309.005
L351.872 310.033
L352.127 309.945
L352.381 310.182
L353.704 314.003
L354.773 317.335
L354.977 317.652
L355.231 317.878
L355.588 318.06
L356.504 318.967
L357.471 318.206
L357.725 318.195
L358.285 317.844
L358.591 317.939
L358.794 317.909
L359.354 318.342
L359.609 318.287
L360.474 316.966
L360.779 316.055
L361.441 312.841
L361.95 310.518
L362.357 309.465
L363.375 306.603
L364.546 304.286
L364.698 304.198
L365.004 303.79
L365.309 303.421
L365.665 303.147
L366.072 303.005
L366.276 303.034
L366.378 302.906
L366.836 302.109
L367.701 300.381
L369.483 292.696
L369.788 291.853
L371.111 287.554
L371.62 286.751
L371.773 286.589
L372.435 285.731
L372.944 285.384
L373.147 284.696
L373.758 282.7
L374.165 281.754
L374.572 280.771
L374.878 280.05
L375.132 279.956
L375.336 280.025
L375.539 280.112
L375.794 280.438
L376.303 281.293
L377.117 281.644
L377.321 281.558
L377.982 280.732
L378.135 280.755
L378.339 280.776
L378.695 280.501
L379.102 280.071
L379.916 279.496
L380.069 279.362
L380.476 279.003
L380.934 278.677
L381.342 277.923
L381.698 277.189
L381.851 277.225
L382.105 277.344
L382.258 277.207
L382.512 276.953
L383.785 278.045
L384.192 279.214
L384.701 280.919
L385.057 282.231
L386.431 286.86
L386.686 287.185
L387.093 287.658
L387.347 288.064
L387.653 288.054
L388.009 287.814
L388.315 287.768
L388.518 287.985
L389.943 289.718
L390.198 289.723
L390.656 289.572
L390.808 289.399
L391.928 287.051
L392.386 285.719
L392.844 284.651
L393.15 284.254
L394.269 282.679
L394.677 282.463
L394.88 282.163
L395.44 281.266
L396 280.549
L396.204 280.363
L396.814 279.646
L396.967 279.714
L397.374 280.167
L397.73 279.924
L397.883 279.914
L398.443 279.815
L399.359 280.314
L399.614 279.784
L400.072 278.852
L400.428 278.519
L400.784 278.787
L401.191 279.539
L401.446 279.936
L402.26 280.406
L404.652 284.481
L404.805 284.66
L405.111 285.693
L405.62 288.107
L405.976 290.313
L406.994 298.059
L407.961 303.792
L409.844 311.051
L410.506 312.716
L411.32 314.594
L412.236 315.889
L412.898 317.465
L413.865 320.36
L414.221 320.844
L414.476 320.638
L414.781 320.247
L415.035 319.67
L416.359 315.816
L417.631 310.599
L420.431 301.63
L420.99 299.743
L421.398 298.171
L421.805 296.741
L422.619 295.761
L423.128 296.346
L423.892 297.382
L424.044 297.48
L424.248 297.938
L425.164 300.811
L425.622 300.667
L426.487 299.532
L426.895 298.559
L427.963 296.026
L428.93 292.273
L429.948 288.602
L430.457 287.473
L430.966 286.191
L431.272 285.349
L431.832 283.83
L432.29 282.657
L432.799 281.532
L433.155 280.968
L433.358 281.111
L433.969 281.589
L434.275 281.613
L435.089 280.984
L435.343 280.992
L435.598 281.085
L435.751 281.152
L436.107 280.9
L436.667 280.594
L437.125 279.534
L437.532 278.548
L437.837 278.026
L438.754 275.51
L439.263 273.918
L439.568 273.198
L440.128 271.949
L440.382 271.716
L440.535 271.785
L441.044 271.982
L441.4 271.494
L442.876 269.058
L444.607 268.95
L445.37 269.364
L445.676 269.797
L445.93 269.915
L446.286 270.187
L446.49 270.196
L447.559 271.785
L447.813 272.782
L448.373 274.981
L448.678 275.691
L449.595 278.644
L450.053 280.513
L453.972 300.986
L454.379 302.006
L454.888 302.962
L455.346 303.738
L456.72 305.419
L457.127 305.319
L457.484 305.182
L457.687 305.256
L458.145 305.419
L458.603 305.279
L459.112 305.435
L459.367 305.286
L459.621 305.312
L460.487 305.083
L461.505 304.275
L461.708 304.466
L463.031 307.307
L463.286 307.88
L463.49 308.14
L463.846 308.852
L464.304 309.798
L464.762 310.403
L465.22 310.372
L465.729 310.035
L465.983 309.952
L466.187 309.972
L466.696 310.356
L467.307 310.877
L467.51 311.075
L468.019 311.952
L468.325 311.894
L468.528 311.653
L469.088 310.296
L471.022 301.799
L471.582 299.487
L471.938 298.779
L472.804 297.494
L475.501 290.809
L476.214 289.82
L476.57 289.347
L476.825 288.99
L477.028 288.946
L477.283 289.043
L478.046 288.309
L478.555 287.583
L479.827 285.417
L480.489 284.828
L480.744 284.691
L481.354 284.597
L481.711 285.179
L481.965 285.436
L482.678 285.842
L483.441 287.295
L484.663 290.402
L484.968 290.824
L485.172 290.923
L485.426 290.812
L486.037 289.956
L486.291 289.816
L486.648 289.384
L487.004 289.535
L487.564 289.893
L487.767 289.818
L487.92 289.773
L488.836 289.099
L489.752 288.118
L490.465 286.992
L491.025 286.118
L491.432 285.478
L491.687 285.298
L492.246 284.498
L492.552 284.626
L492.857 284.83
L493.061 284.754
L493.264 284.475
L494.282 282.442
L494.486 282.385
L494.995 282.71
L495.504 282.778
L496.013 283.545
L496.216 283.498
L496.42 283.416
L496.573 283.439
L497.132 282.961
L497.641 282.514
L498.965 281.201
L499.321 281.139
L499.83 281.516
L500.492 282.128
L500.848 282.194
L501.204 282.652
L501.917 283.817
L502.375 284.422
L503.037 284.744
L503.495 284.826
L504.513 285.288
L504.716 285.114
L506.396 281.302
L506.548 281.125
L507.108 280.358
L507.414 280.381
L507.77 280.315
L508.024 280.28
L509.144 281.079
L509.5 281.884
L510.06 283.427
L510.417 284.734
L512.198 292.373
L513.267 296.696
L515.608 304.572
L516.066 305.389
L516.321 305.504
L517.237 305.57
L517.593 305.658
L519.375 307.825
L520.138 309.195
L520.443 309.574
L520.952 310.384
L521.258 310.49
L521.919 310.416
L522.174 310.682
L522.632 311.293
L522.937 311.489
L523.752 311.282
L524.261 310.465
L524.922 309.229
L525.38 308.436
L525.635 308.22
L525.838 308.083
L526.805 307.156
L527.569 305.991
L528.638 302.982
L529.859 298.567
L530.216 297.811
L530.775 297.115
L531.641 296.223
L532.15 296.293
L532.455 296.29
L532.71 296.134
L532.913 295.765
L534.338 293.118
L534.593 292.999
L535.051 292.253
L535.458 291.462
L536.018 290.025
L536.578 288.418
L537.087 287.457
L539.886 282.51
L540.191 282.4
L540.344 282.283
L540.599 282.187
L541.464 281.934
L541.667 281.667
L542.075 280.786
L543.042 278.351
L544.06 276.373
L544.772 276.086
L545.281 276.156
L545.841 275.907
L546.452 275.256
L546.706 275.13
L546.91 275.317
L547.47 276.125
L547.47 276.125" style="fill:none;stroke:#0000ff;"/>
   </g>
   <g id="matplotlib.axis_1">
    <g id="xtick_1">
     <g id="line2d_2">
      <defs>
       <path d="
M0 0
L0 -4" id="m46b435921b"/>
      </defs>
      <g>
       <use style="stroke:#000000;stroke-linecap:butt;stroke-width:0.5;" x="161.327206554" xlink:href="#m46b435921b" y="291.915806722"/>
      </g>
     </g>
     <g id="text_1">
      <!-- 5 -->
      <defs>
       <path d="
M10.7969 72.9062
L49.5156 72.9062
L49.5156 64.5938
L19.8281 64.5938
L19.8281 46.7344
Q21.9688 47.4688 24.1094 47.8281
Q26.2656 48.1875 28.4219 48.1875
Q40.625 48.1875 47.75 41.5
Q54.8906 34.8125 54.8906 23.3906
Q54.8906 11.625 47.5625 5.09375
Q40.2344 -1.42188 26.9062 -1.42188
Q22.3125 -1.42188 17.5469 -0.640625
Q12.7969 0.140625 7.71875 1.70312
L7.71875 11.625
Q12.1094 9.23438 16.7969 8.0625
Q21.4844 6.89062 26.7031 6.89062
Q35.1562 6.89062 40.0781 11.3281
Q45.0156 15.7656 45.0156 23.3906
Q45.0156 31 40.0781 35.4375
Q35.1562 39.8906 26.7031 39.8906
Q22.75 39.8906 18.8125 39.0156
Q14.8906 38.1406 10.7969 36.2812
z
" id="BitstreamVeraSans-Roman-35"/>
      </defs>
      <g transform="translate(158.968612804 303.206431722)scale(0.1 -0.1)">
       <use xlink:href="#BitstreamVeraSans-Roman-35"/>
      </g>
     </g>
    </g>
    <g id="xtick_2">
     <g id="line2d_3">
      <defs>
       <path d="
M0 0
L0 -4" id="m46b435921b"/>
      </defs>
      <g>
       <use style="stroke:#000000;stroke-linecap:butt;stroke-width:0.5;" x="284.129013391" xlink:href="#m46b435921b" y="291.915806722"/>
      </g>
     </g>
     <g id="text_2">
      <!-- 10 -->
      <defs>
       <path d="
M31.7812 66.4062
Q24.1719 66.4062 20.3281 58.9062
Q16.5 51.4219 16.5 36.375
Q16.5 21.3906 20.3281 13.8906
Q24.1719 6.39062 31.7812 6.39062
Q39.4531 6.39062 43.2812 13.8906
Q47.125 21.3906 47.125 36.375
Q47.125 51.4219 43.2812 58.9062
Q39.4531 66.4062 31.7812 66.4062
M31.7812 74.2188
Q44.0469 74.2188 50.5156 64.5156
Q56.9844 54.8281 56.9844 36.375
Q56.9844 17.9688 50.5156 8.26562
Q44.0469 -1.42188 31.7812 -1.42188
Q19.5312 -1.42188 13.0625 8.26562
Q6.59375 17.9688 6.59375 36.375
Q6.59375 54.8281 13.0625 64.5156
Q19.5312 74.2188 31.7812 74.2188" id="BitstreamVeraSans-Roman-30"/>
       <path d="
M12.4062 8.29688
L28.5156 8.29688
L28.5156 63.9219
L10.9844 60.4062
L10.9844 69.3906
L28.4219 72.9062
L38.2812 72.9062
L38.2812 8.29688
L54.3906 8.29688
L54.3906 0
L12.4062 0
z
" id="BitstreamVeraSans-Roman-31"/>
      </defs>
      <g transform="translate(278.647763391 303.337681722)scale(0.1 -0.1)">
       <use xlink:href="#BitstreamVeraSans-Roman-31"/>
       <use x="63.623046875" xlink:href="#BitstreamVeraSans-Roman-30"/>
      </g>
     </g>
    </g>
    <g id="xtick_3">
     <g id="line2d_4">
      <defs>
       <path d="
M0 0
L0 -4" id="m46b435921b"/>
      </defs>
      <g>
       <use style="stroke:#000000;stroke-linecap:butt;stroke-width:0.5;" x="406.930820228" xlink:href="#m46b435921b" y="291.915806722"/>
      </g>
     </g>
     <g id="text_3">
      <!-- 15 -->
      <g transform="translate(401.554257728 303.206431722)scale(0.1 -0.1)">
       <use xlink:href="#BitstreamVeraSans-Roman-31"/>
       <use x="63.623046875" xlink:href="#BitstreamVeraSans-Roman-35"/>
      </g>
     </g>
    </g>
    <g id="xtick_4">
     <g id="line2d_5">
      <defs>
       <path d="
M0 0
L0 -4" id="m46b435921b"/>
      </defs>
      <g>
       <use style="stroke:#000000;stroke-linecap:butt;stroke-width:0.5;" x="529.732627065" xlink:href="#m46b435921b" y="291.915806722"/>
      </g>
     </g>
     <g id="text_4">
      <!-- 20 -->
      <defs>
       <path d="
M19.1875 8.29688
L53.6094 8.29688
L53.6094 0
L7.32812 0
L7.32812 8.29688
Q12.9375 14.1094 22.625 23.8906
Q32.3281 33.6875 34.8125 36.5312
Q39.5469 41.8438 41.4219 45.5312
Q43.3125 49.2188 43.3125 52.7812
Q43.3125 58.5938 39.2344 62.25
Q35.1562 65.9219 28.6094 65.9219
Q23.9688 65.9219 18.8125 64.3125
Q13.6719 62.7031 7.8125 59.4219
L7.8125 69.3906
Q13.7656 71.7812 18.9375 73
Q24.125 74.2188 28.4219 74.2188
Q39.75 74.2188 46.4844 68.5469
Q53.2188 62.8906 53.2188 53.4219
Q53.2188 48.9219 51.5312 44.8906
Q49.8594 40.875 45.4062 35.4062
Q44.1875 33.9844 37.6406 27.2188
Q31.1094 20.4531 19.1875 8.29688" id="BitstreamVeraSans-Roman-32"/>
      </defs>
      <g transform="translate(524.068564565 303.337681722)scale(0.1 -0.1)">
       <use xlink:href="#BitstreamVeraSans-Roman-32"/>
       <use x="63.623046875" xlink:href="#BitstreamVeraSans-Roman-30"/>
      </g>
     </g>
    </g>
    <g id="xtick_5">
     <g id="line2d_6">
      <defs>
       <path d="
M0 0
L0 -2" id="mccaf0756b6"/>
      </defs>
      <g>
       <use style="stroke:#000000;stroke-linecap:butt;stroke-width:0.5;" x="63.085761084" xlink:href="#mccaf0756b6" y="291.915806722"/>
      </g>
     </g>
    </g>
    <g id="xtick_6">
     <g id="line2d_7">
      <defs>
       <path d="
M0 0
L0 -2" id="mccaf0756b6"/>
      </defs>
      <g>
       <use style="stroke:#000000;stroke-linecap:butt;stroke-width:0.5;" x="87.6461224514" xlink:href="#mccaf0756b6" y="291.915806722"/>
      </g>
     </g>
    </g>
    <g id="xtick_7">
     <g id="line2d_8">
      <defs>
       <path d="
M0 0
L0 -2" id="mccaf0756b6"/>
      </defs>
      <g>
       <use style="stroke:#000000;stroke-linecap:butt;stroke-width:0.5;" x="112.206483819" xlink:href="#mccaf0756b6" y="291.915806722"/>
      </g>
     </g>
    </g>
    <g id="xtick_8">
     <g id="line2d_9">
      <defs>
       <path d="
M0 0
L0 -2" id="mccaf0756b6"/>
      </defs>
      <g>
       <use style="stroke:#000000;stroke-linecap:butt;stroke-width:0.5;" x="136.766845186" xlink:href="#mccaf0756b6" y="291.915806722"/>
      </g>
     </g>
    </g>
    <g id="xtick_9">
     <g id="line2d_10">
      <defs>
       <path d="
M0 0
L0 -2" id="mccaf0756b6"/>
      </defs>
      <g>
       <use style="stroke:#000000;stroke-linecap:butt;stroke-width:0.5;" x="185.887567921" xlink:href="#mccaf0756b6" y="291.915806722"/>
      </g>
     </g>
    </g>
    <g id="xtick_10">
     <g id="line2d_11">
      <defs>
       <path d="
M0 0
L0 -2" id="mccaf0756b6"/>
      </defs>
      <g>
       <use style="stroke:#000000;stroke-linecap:butt;stroke-width:0.5;" x="210.447929288" xlink:href="#mccaf0756b6" y="291.915806722"/>
      </g>
     </g>
    </g>
    <g id="xtick_11">
     <g id="line2d_12">
      <defs>
       <path d="
M0 0
L0 -2" id="mccaf0756b6"/>
      </defs>
      <g>
       <use style="stroke:#000000;stroke-linecap:butt;stroke-width:0.5;" x="235.008290656" xlink:href="#mccaf0756b6" y="291.915806722"/>
      </g>
     </g>
    </g>
    <g id="xtick_12">
     <g id="line2d_13">
      <defs>
       <path d="
M0 0
L0 -2" id="mccaf0756b6"/>
      </defs>
      <g>
       <use style="stroke:#000000;stroke-linecap:butt;stroke-width:0.5;" x="259.568652023" xlink:href="#mccaf0756b6" y="291.915806722"/>
      </g>
     </g>
    </g>
    <g id="xtick_13">
     <g id="line2d_14">
      <defs>
       <path d="
M0 0
L0 -2" id="mccaf0756b6"/>
      </defs>
      <g>
       <use style="stroke:#000000;stroke-linecap:butt;stroke-width:0.5;" x="308.689374758" xlink:href="#mccaf0756b6" y="291.915806722"/>
      </g>
     </g>
    </g>
    <g id="xtick_14">
     <g id="line2d_15">
      <defs>
       <path d="
M0 0
L0 -2" id="mccaf0756b6"/>
      </defs>
      <g>
       <use style="stroke:#000000;stroke-linecap:butt;stroke-width:0.5;" x="333.249736125" xlink:href="#mccaf0756b6" y="291.915806722"/>
      </g>
     </g>
    </g>
    <g id="xtick_15">
     <g id="line2d_16">
      <defs>
       <path d="
M0 0
L0 -2" id="mccaf0756b6"/>
      </defs>
      <g>
       <use style="stroke:#000000;stroke-linecap:butt;stroke-width:0.5;" x="357.810097493" xlink:href="#mccaf0756b6" y="291.915806722"/>
      </g>
     </g>
    </g>
    <g id="xtick_16">
     <g id="line2d_17">
      <defs>
       <path d="
M0 0
L0 -2" id="mccaf0756b6"/>
      </defs>
      <g>
       <use style="stroke:#000000;stroke-linecap:butt;stroke-width:0.5;" x="382.37045886" xlink:href="#mccaf0756b6" y="291.915806722"/>
      </g>
     </g>
    </g>
    <g id="xtick_17">
     <g id="line2d_18">
      <defs>
       <path d="
M0 0
L0 -2" id="mccaf0756b6"/>
      </defs>
      <g>
       <use style="stroke:#000000;stroke-linecap:butt;stroke-width:0.5;" x="431.491181595" xlink:href="#mccaf0756b6" y="291.915806722"/>
      </g>
     </g>
    </g>
    <g id="xtick_18">
     <g id="line2d_19">
      <defs>
       <path d="
M0 0
L0 -2" id="mccaf0756b6"/>
      </defs>
      <g>
       <use style="stroke:#000000;stroke-linecap:butt;stroke-width:0.5;" x="456.051542962" xlink:href="#mccaf0756b6" y="291.915806722"/>
      </g>
     </g>
    </g>
    <g id="xtick_19">
     <g id="line2d_20">
      <defs>
       <path d="
M0 0
L0 -2" id="mccaf0756b6"/>
      </defs>
      <g>
       <use style="stroke:#000000;stroke-linecap:butt;stroke-width:0.5;" x="480.61190433" xlink:href="#mccaf0756b6" y="291.915806722"/>
      </g>
     </g>
    </g>
    <g id="xtick_20">
     <g id="line2d_21">
      <defs>
       <path d="
M0 0
L0 -2" id="mccaf0756b6"/>
      </defs>
      <g>
       <use style="stroke:#000000;stroke-linecap:butt;stroke-width:0.5;" x="505.172265697" xlink:href="#mccaf0756b6" y="291.915806722"/>
      </g>
     </g>
    </g>
   </g>
   <g id="matplotlib.axis_2">
    <g id="ytick_1">
     <g id="line2d_22">
      <defs>
       <path d="
M0 0
L4 0" id="m265e9827f8"/>
      </defs>
      <g>
       <use style="stroke:#000000;stroke-linecap:butt;stroke-width:0.5;" x="35.7109375" xlink:href="#m265e9827f8" y="400.107713061"/>
      </g>
     </g>
     <g id="text_5">
      <!-- -0.1 -->
      <defs>
       <path d="
M10.6875 12.4062
L21 12.4062
L21 0
L10.6875 0
z
" id="BitstreamVeraSans-Roman-2e"/>
       <path d="
M4.89062 31.3906
L31.2031 31.3906
L31.2031 23.3906
L4.89062 23.3906
z
" id="BitstreamVeraSans-Roman-2d"/>
      </defs>
      <g transform="translate(13.6125 403.747556811)scale(0.1 -0.1)">
       <use xlink:href="#BitstreamVeraSans-Roman-2d"/>
       <use x="36.083984375" xlink:href="#BitstreamVeraSans-Roman-30"/>
       <use x="99.70703125" xlink:href="#BitstreamVeraSans-Roman-2e"/>
       <use x="131.494140625" xlink:href="#BitstreamVeraSans-Roman-31"/>
      </g>
     </g>
    </g>
    <g id="ytick_2">
     <g id="line2d_23">
      <defs>
       <path d="
M0 0
L4 0" id="m265e9827f8"/>
      </defs>
      <g>
       <use style="stroke:#000000;stroke-linecap:butt;stroke-width:0.5;" x="35.7109375" xlink:href="#m265e9827f8" y="346.011759891"/>
      </g>
     </g>
     <g id="text_6">
      <!-- -0.05 -->
      <g transform="translate(7.2 349.651603641)scale(0.1 -0.1)">
       <use xlink:href="#BitstreamVeraSans-Roman-2d"/>
       <use x="36.083984375" xlink:href="#BitstreamVeraSans-Roman-30"/>
       <use x="99.70703125" xlink:href="#BitstreamVeraSans-Roman-2e"/>
       <use x="131.494140625" xlink:href="#BitstreamVeraSans-Roman-30"/>
       <use x="195.1171875" xlink:href="#BitstreamVeraSans-Roman-35"/>
      </g>
     </g>
    </g>
    <g id="ytick_3">
     <g id="line2d_24">
      <defs>
       <path d="
M0 0
L4 0" id="m265e9827f8"/>
      </defs>
      <g>
       <use style="stroke:#000000;stroke-linecap:butt;stroke-width:0.5;" x="35.7109375" xlink:href="#m265e9827f8" y="291.915806722"/>
      </g>
     </g>
     <g id="text_7">
      <!-- 0 -->
      <g transform="translate(26.671875 295.555650472)scale(0.1 -0.1)">
       <use xlink:href="#BitstreamVeraSans-Roman-30"/>
      </g>
     </g>
    </g>
    <g id="ytick_4">
     <g id="line2d_25">
      <defs>
       <path d="
M0 0
L4 0" id="m265e9827f8"/>
      </defs>
      <g>
       <use style="stroke:#000000;stroke-linecap:butt;stroke-width:0.5;" x="35.7109375" xlink:href="#m265e9827f8" y="237.819853552"/>
      </g>
     </g>
     <g id="text_8">
      <!-- 0.05 -->
      <g transform="translate(10.978125 241.459697302)scale(0.1 -0.1)">
       <use xlink:href="#BitstreamVeraSans-Roman-30"/>
       <use x="63.623046875" xlink:href="#BitstreamVeraSans-Roman-2e"/>
       <use x="95.41015625" xlink:href="#BitstreamVeraSans-Roman-30"/>
       <use x="159.033203125" xlink:href="#BitstreamVeraSans-Roman-35"/>
      </g>
     </g>
    </g>
    <g id="ytick_5">
     <g id="line2d_26">
      <defs>
       <path d="
M0 0
L4 0" id="m265e9827f8"/>
      </defs>
      <g>
       <use style="stroke:#000000;stroke-linecap:butt;stroke-width:0.5;" x="35.7109375" xlink:href="#m265e9827f8" y="183.723900382"/>
      </g>
     </g>
     <g id="text_9">
      <!-- 0.1 -->
      <g transform="translate(17.390625 187.363744132)scale(0.1 -0.1)">
       <use xlink:href="#BitstreamVeraSans-Roman-30"/>
       <use x="63.623046875" xlink:href="#BitstreamVeraSans-Roman-2e"/>
       <use x="95.41015625" xlink:href="#BitstreamVeraSans-Roman-31"/>
      </g>
     </g>
    </g>
    <g id="ytick_6">
     <g id="line2d_27">
      <defs>
       <path d="
M0 0
L4 0" id="m265e9827f8"/>
      </defs>
      <g>
       <use style="stroke:#000000;stroke-linecap:butt;stroke-width:0.5;" x="35.7109375" xlink:href="#m265e9827f8" y="129.627947213"/>
      </g>
     </g>
     <g id="text_10">
      <!-- 0.15 -->
      <g transform="translate(10.978125 133.267790963)scale(0.1 -0.1)">
       <use xlink:href="#BitstreamVeraSans-Roman-30"/>
       <use x="63.623046875" xlink:href="#BitstreamVeraSans-Roman-2e"/>
       <use x="95.41015625" xlink:href="#BitstreamVeraSans-Roman-31"/>
       <use x="159.033203125" xlink:href="#BitstreamVeraSans-Roman-35"/>
      </g>
     </g>
    </g>
    <g id="ytick_7">
     <g id="line2d_28">
      <defs>
       <path d="
M0 0
L4 0" id="m265e9827f8"/>
      </defs>
      <g>
       <use style="stroke:#000000;stroke-linecap:butt;stroke-width:0.5;" x="35.7109375" xlink:href="#m265e9827f8" y="75.5319940432"/>
      </g>
     </g>
     <g id="text_11">
      <!-- 0.2 -->
      <g transform="translate(17.46875 79.1718377932)scale(0.1 -0.1)">
       <use xlink:href="#BitstreamVeraSans-Roman-30"/>
       <use x="63.623046875" xlink:href="#BitstreamVeraSans-Roman-2e"/>
       <use x="95.41015625" xlink:href="#BitstreamVeraSans-Roman-32"/>
      </g>
     </g>
    </g>
    <g id="ytick_8">
     <g id="line2d_29">
      <defs>
       <path d="
M0 0
L4 0" id="m265e9827f8"/>
      </defs>
      <g>
       <use style="stroke:#000000;stroke-linecap:butt;stroke-width:0.5;" x="35.7109375" xlink:href="#m265e9827f8" y="21.4360408736"/>
      </g>
     </g>
     <g id="text_12">
      <!-- 0.25 -->
      <g transform="translate(10.978125 25.0758846236)scale(0.1 -0.1)">
       <use xlink:href="#BitstreamVeraSans-Roman-30"/>
       <use x="63.623046875" xlink:href="#BitstreamVeraSans-Roman-2e"/>
       <use x="95.41015625" xlink:href="#BitstreamVeraSans-Roman-32"/>
       <use x="159.033203125" xlink:href="#BitstreamVeraSans-Roman-35"/>
      </g>
     </g>
    </g>
    <g id="ytick_9">
     <g id="line2d_30">
      <defs>
       <path d="
M0 0
L2 0" id="mf630cd8708"/>
      </defs>
      <g>
       <use style="stroke:#000000;stroke-linecap:butt;stroke-width:0.5;" x="35.7109375" xlink:href="#mf630cd8708" y="410.926903695"/>
      </g>
     </g>
    </g>
    <g id="ytick_10">
     <g id="line2d_31">
      <defs>
       <path d="
M0 0
L2 0" id="mf630cd8708"/>
      </defs>
      <g>
       <use style="stroke:#000000;stroke-linecap:butt;stroke-width:0.5;" x="35.7109375" xlink:href="#mf630cd8708" y="389.288522427"/>
      </g>
     </g>
    </g>
    <g id="ytick_11">
     <g id="line2d_32">
      <defs>
       <path d="
M0 0
L2 0" id="mf630cd8708"/>
      </defs>
      <g>
       <use style="stroke:#000000;stroke-linecap:butt;stroke-width:0.5;" x="35.7109375" xlink:href="#mf630cd8708" y="378.469331793"/>
      </g>
     </g>
    </g>
    <g id="ytick_12">
     <g id="line2d_33">
      <defs>
       <path d="
M0 0
L2 0" id="mf630cd8708"/>
      </defs>
      <g>
       <use style="stroke:#000000;stroke-linecap:butt;stroke-width:0.5;" x="35.7109375" xlink:href="#mf630cd8708" y="367.650141159"/>
      </g>
     </g>
    </g>
    <g id="ytick_13">
     <g id="line2d_34">
      <defs>
       <path d="
M0 0
L2 0" id="mf630cd8708"/>
      </defs>
      <g>
       <use style="stroke:#000000;stroke-linecap:butt;stroke-width:0.5;" x="35.7109375" xlink:href="#mf630cd8708" y="356.830950525"/>
      </g>
     </g>
    </g>
    <g id="ytick_14">
     <g id="line2d_35">
      <defs>
       <path d="
M0 0
L2 0" id="mf630cd8708"/>
      </defs>
      <g>
       <use style="stroke:#000000;stroke-linecap:butt;stroke-width:0.5;" x="35.7109375" xlink:href="#mf630cd8708" y="335.192569257"/>
      </g>
     </g>
    </g>
    <g id="ytick_15">
     <g id="line2d_36">
      <defs>
       <path d="
M0 0
L2 0" id="mf630cd8708"/>
      </defs>
      <g>
       <use style="stroke:#000000;stroke-linecap:butt;stroke-width:0.5;" x="35.7109375" xlink:href="#mf630cd8708" y="324.373378623"/>
      </g>
     </g>
    </g>
    <g id="ytick_16">
     <g id="line2d_37">
      <defs>
       <path d="
M0 0
L2 0" id="mf630cd8708"/>
      </defs>
      <g>
       <use style="stroke:#000000;stroke-linecap:butt;stroke-width:0.5;" x="35.7109375" xlink:href="#mf630cd8708" y="313.55418799"/>
      </g>
     </g>
    </g>
    <g id="ytick_17">
     <g id="line2d_38">
      <defs>
       <path d="
M0 0
L2 0" id="mf630cd8708"/>
      </defs>
      <g>
       <use style="stroke:#000000;stroke-linecap:butt;stroke-width:0.5;" x="35.7109375" xlink:href="#mf630cd8708" y="302.734997356"/>
      </g>
     </g>
    </g>
    <g id="ytick_18">
     <g id="line2d_39">
      <defs>
       <path d="
M0 0
L2 0" id="mf630cd8708"/>
      </defs>
      <g>
       <use style="stroke:#000000;stroke-linecap:butt;stroke-width:0.5;" x="35.7109375" xlink:href="#mf630cd8708" y="281.096616088"/>
      </g>
     </g>
    </g>
    <g id="ytick_19">
     <g id="line2d_40">
      <defs>
       <path d="
M0 0
L2 0" id="mf630cd8708"/>
      </defs>
      <g>
       <use style="stroke:#000000;stroke-linecap:butt;stroke-width:0.5;" x="35.7109375" xlink:href="#mf630cd8708" y="270.277425454"/>
      </g>
     </g>
    </g>
    <g id="ytick_20">
     <g id="line2d_41">
      <defs>
       <path d="
M0 0
L2 0" id="mf630cd8708"/>
      </defs>
      <g>
       <use style="stroke:#000000;stroke-linecap:butt;stroke-width:0.5;" x="35.7109375" xlink:href="#mf630cd8708" y="259.45823482"/>
      </g>
     </g>
    </g>
    <g id="ytick_21">
     <g id="line2d_42">
      <defs>
       <path d="
M0 0
L2 0" id="mf630cd8708"/>
      </defs>
      <g>
       <use style="stroke:#000000;stroke-linecap:butt;stroke-width:0.5;" x="35.7109375" xlink:href="#mf630cd8708" y="248.639044186"/>
      </g>
     </g>
    </g>
    <g id="ytick_22">
     <g id="line2d_43">
      <defs>
       <path d="
M0 0
L2 0" id="mf630cd8708"/>
      </defs>
      <g>
       <use style="stroke:#000000;stroke-linecap:butt;stroke-width:0.5;" x="35.7109375" xlink:href="#mf630cd8708" y="227.000662918"/>
      </g>
     </g>
    </g>
    <g id="ytick_23">
     <g id="line2d_44">
      <defs>
       <path d="
M0 0
L2 0" id="mf630cd8708"/>
      </defs>
      <g>
       <use style="stroke:#000000;stroke-linecap:butt;stroke-width:0.5;" x="35.7109375" xlink:href="#mf630cd8708" y="216.181472284"/>
      </g>
     </g>
    </g>
    <g id="ytick_24">
     <g id="line2d_45">
      <defs>
       <path d="
M0 0
L2 0" id="mf630cd8708"/>
      </defs>
      <g>
       <use style="stroke:#000000;stroke-linecap:butt;stroke-width:0.5;" x="35.7109375" xlink:href="#mf630cd8708" y="205.36228165"/>
      </g>
     </g>
    </g>
    <g id="ytick_25">
     <g id="line2d_46">
      <defs>
       <path d="
M0 0
L2 0" id="mf630cd8708"/>
      </defs>
      <g>
       <use style="stroke:#000000;stroke-linecap:butt;stroke-width:0.5;" x="35.7109375" xlink:href="#mf630cd8708" y="194.543091016"/>
      </g>
     </g>
    </g>
    <g id="ytick_26">
     <g id="line2d_47">
      <defs>
       <path d="
M0 0
L2 0" id="mf630cd8708"/>
      </defs>
      <g>
       <use style="stroke:#000000;stroke-linecap:butt;stroke-width:0.5;" x="35.7109375" xlink:href="#mf630cd8708" y="172.904709749"/>
      </g>
     </g>
    </g>
    <g id="ytick_27">
     <g id="line2d_48">
      <defs>
       <path d="
M0 0
L2 0" id="mf630cd8708"/>
      </defs>
      <g>
       <use style="stroke:#000000;stroke-linecap:butt;stroke-width:0.5;" x="35.7109375" xlink:href="#mf630cd8708" y="162.085519115"/>
      </g>
     </g>
    </g>
    <g id="ytick_28">
     <g id="line2d_49">
      <defs>
       <path d="
M0 0
L2 0" id="mf630cd8708"/>
      </defs>
      <g>
       <use style="stroke:#000000;stroke-linecap:butt;stroke-width:0.5;" x="35.7109375" xlink:href="#mf630cd8708" y="151.266328481"/>
      </g>
     </g>
    </g>
    <g id="ytick_29">
     <g id="line2d_50">
      <defs>
       <path d="
M0 0
L2 0" id="mf630cd8708"/>
      </defs>
      <g>
       <use style="stroke:#000000;stroke-linecap:butt;stroke-width:0.5;" x="35.7109375" xlink:href="#mf630cd8708" y="140.447137847"/>
      </g>
     </g>
    </g>
    <g id="ytick_30">
     <g id="line2d_51">
      <defs>
       <path d="
M0 0
L2 0" id="mf630cd8708"/>
      </defs>
      <g>
       <use style="stroke:#000000;stroke-linecap:butt;stroke-width:0.5;" x="35.7109375" xlink:href="#mf630cd8708" y="118.808756579"/>
      </g>
     </g>
    </g>
    <g id="ytick_31">
     <g id="line2d_52">
      <defs>
       <path d="
M0 0
L2 0" id="mf630cd8708"/>
      </defs>
      <g>
       <use style="stroke:#000000;stroke-linecap:butt;stroke-width:0.5;" x="35.7109375" xlink:href="#mf630cd8708" y="107.989565945"/>
      </g>
     </g>
    </g>
    <g id="ytick_32">
     <g id="line2d_53">
      <defs>
       <path d="
M0 0
L2 0" id="mf630cd8708"/>
      </defs>
      <g>
       <use style="stroke:#000000;stroke-linecap:butt;stroke-width:0.5;" x="35.7109375" xlink:href="#mf630cd8708" y="97.170375311"/>
      </g>
     </g>
    </g>
    <g id="ytick_33">
     <g id="line2d_54">
      <defs>
       <path d="
M0 0
L2 0" id="mf630cd8708"/>
      </defs>
      <g>
       <use style="stroke:#000000;stroke-linecap:butt;stroke-width:0.5;" x="35.7109375" xlink:href="#mf630cd8708" y="86.3511846771"/>
      </g>
     </g>
    </g>
    <g id="ytick_34">
     <g id="line2d_55">
      <defs>
       <path d="
M0 0
L2 0" id="mf630cd8708"/>
      </defs>
      <g>
       <use style="stroke:#000000;stroke-linecap:butt;stroke-width:0.5;" x="35.7109375" xlink:href="#mf630cd8708" y="64.7128034093"/>
      </g>
     </g>
    </g>
    <g id="ytick_35">
     <g id="line2d_56">
      <defs>
       <path d="
M0 0
L2 0" id="mf630cd8708"/>
      </defs>
      <g>
       <use style="stroke:#000000;stroke-linecap:butt;stroke-width:0.5;" x="35.7109375" xlink:href="#mf630cd8708" y="53.8936127753"/>
      </g>
     </g>
    </g>
    <g id="ytick_36">
     <g id="line2d_57">
      <defs>
       <path d="
M0 0
L2 0" id="mf630cd8708"/>
      </defs>
      <g>
       <use style="stroke:#000000;stroke-linecap:butt;stroke-width:0.5;" x="35.7109375" xlink:href="#mf630cd8708" y="43.0744221414"/>
      </g>
     </g>
    </g>
    <g id="ytick_37">
     <g id="line2d_58">
      <defs>
       <path d="
M0 0
L2 0" id="mf630cd8708"/>
      </defs>
      <g>
       <use style="stroke:#000000;stroke-linecap:butt;stroke-width:0.5;" x="35.7109375" xlink:href="#mf630cd8708" y="32.2552315075"/>
      </g>
     </g>
    </g>
    <g id="ytick_38">
     <g id="line2d_59">
      <defs>
       <path d="
M0 0
L2 0" id="mf630cd8708"/>
      </defs>
      <g>
       <use style="stroke:#000000;stroke-linecap:butt;stroke-width:0.5;" x="35.7109375" xlink:href="#mf630cd8708" y="10.6168502396"/>
      </g>
     </g>
    </g>
   </g>
   <g id="patch_3">
    <path d="
M45.7109 291.916
L557.308 291.916" style="fill:none;stroke:#000000;stroke-width:0.8;"/>
   </g>
   <g id="patch_4">
    <path d="
M35.7109 413.28
L35.7109 7.2" style="fill:none;stroke:#000000;stroke-width:0.8;"/>
   </g>
  </g>
 </g>
 <defs>
  <clipPath id="p5895cd3558">
   <rect height="406.08" width="511.5971875" x="45.7109375" y="7.2"/>
  </clipPath>
 </defs>
</svg>
