<?xml version="1.0" encoding="utf-8" standalone="no"?>
<!DOCTYPE svg PUBLIC "-//W3C//DTD SVG 1.1//EN"
  "http://www.w3.org/Graphics/SVG/1.1/DTD/svg11.dtd">
<!-- Created with matplotlib (http://matplotlib.sourceforge.net/) -->
<svg height="420pt" version="1.1" viewBox="0 0 564 420" width="564pt" xmlns="http://www.w3.org/2000/svg" xmlns:xlink="http://www.w3.org/1999/xlink">
 <defs>
  <style type="text/css">
*{stroke-linecap:square;stroke-linejoin:round;}
  </style>
 </defs>
 <g id="figure_1">
  <g id="patch_1">
   <path d="
M2.22045e-16 420.48
L564.508 420.48
L564.508 0
L2.22045e-16 0
z
" style="fill:#ffffff;"/>
  </g>
  <g id="axes_1">
   <g id="patch_2">
    <path d="
M45.7109 413.28
L557.308 413.28
L557.308 7.2
L45.7109 7.2
z
" style="fill:#ffffff;"/>
   </g>
   <g id="line2d_1">
    <path clip-path="url(#p5895cd3558)" d="
M55.5493 15.0092
L56.0583 16.9746
L56.5164 20.0542
L57.1272 25.9508
L57.8397 35.138
L58.7559 50.1281
L59.8756 72.5645
L61.1989 103.884
L62.8276 148.13
L64.7617 206.972
L65.627 231.925
L66.3904 238.068
L67.2557 247.031
L68.2736 260.026
L69.4951 278.721
L70.8694 303.284
L72.4981 336.547
L72.7017 339.095
L73.5669 346.192
L74.5849 356.539
L75.7555 370.863
L77.1297 390.654
L78.0459 405.471
L78.0968 404.958
L79.1656 390.948
L80.1326 380.985
L81.0488 373.748
L81.8631 368.995
L82.5757 366.058
L83.1865 364.402
L83.6954 363.603
L84.1026 363.331
L84.4589 363.352
L84.8152 363.61
L85.2223 364.186
L85.7313 365.317
L86.2912 367.067
L86.3421 366.841
L87.4618 353.453
L88.5307 343.226
L89.4977 335.984
L89.5995 335.356
L89.6504 335.443
L90.2612 336.937
L90.9228 339.192
L91.6863 342.588
L92.7551 347.543
L93.3659 349.088
L94.0784 351.559
L94.8928 355.229
L95.8598 360.704
L96.9287 368.097
L97.4376 371.822
L97.4885 371.499
L98.4556 366.303
L99.2699 363.042
L99.9825 360.992
L100.593 359.81
L101.153 359.178
L101.509 359.007
L102.018 351.53
L103.393 333.116
L104.716 318.321
L105.937 307.068
L106.955 299.564
L107.973 293.913
L108.177 292.482
L109.5 278.466
L110.722 267.734
L110.925 265.45
L112.452 242.84
L113.928 224.237
L115.303 209.625
L115.557 207.505
L115.608 207.731
L116.575 212.413
L117.593 218.3
L119.476 240.182
L121.461 275.961
L123.09 308.127
L124.21 318.548
L125.838 333.147
L128.027 353.08
L129.605 366.383
L129.808 367.563
L130.368 367.954
L130.877 368.54
L130.928 368.442
L131.997 363.626
L132.964 360.195
L133.066 359.882
L133.117 359.962
L135.152 368.759
L136.272 372.934
L136.934 373.903
L137.697 375.443
L138.562 377.721
L138.664 378.027
L138.715 377.945
L139.58 375.811
L140.751 368.619
L142.074 361.925
L143.55 349.842
L145.943 323.682
L147.317 317.011
L148.029 316.159
L148.691 315.705
L149.251 315.57
L149.811 315.661
L150.371 315.974
L150.88 316.443
L150.93 316.269
L152.457 310.367
L153.424 302.178
L153.832 299.991
L155.155 287.755
L157.496 269.292
L158.158 266.209
L159.227 261.242
L159.736 259.527
L160.652 261.106
L161.67 262.944
L161.873 263.156
L162.688 264.52
L162.993 266.28
L164.367 275.282
L168.337 308.261
L168.744 309.494
L169.712 311.888
L169.966 312.602
L170.017 312.539
L170.831 311.464
L171.34 311.018
L171.849 311.269
L172.256 311.026
L172.46 310.862
L173.02 309.778
L173.223 310.203
L174.089 313.77
L174.598 315.536
L175.259 317.313
L175.463 318.129
L176.125 322.695
L177.601 336.642
L179.433 348.915
L179.738 351.187
L180.247 353.566
L181.214 356.786
L181.469 357.071
L181.52 357.002
L181.978 356.499
L182.741 356.729
L183.047 357.24
L183.556 358.954
L184.93 362.801
L185.082 362.894
L185.541 362.659
L185.846 361.684
L187.067 355.274
L188.238 348.425
L188.798 345.059
L189.46 339.778
L190.376 329.619
L190.885 325.039
L191.394 322.141
L191.801 320.869
L192.361 319.525
L192.971 317.835
L193.43 316.944
L193.989 316.977
L194.244 316.961
L194.498 316.8
L194.855 316.435
L195.109 316.312
L195.516 315.461
L195.771 315.265
L195.974 315.243
L196.585 314.222
L197.094 313.395
L197.45 313.192
L197.807 313.205
L199.028 312.05
L199.181 311.603
L200.148 307.289
L201.268 301.949
L201.726 300.71
L201.929 300.718
L202.387 301.25
L203.813 304.364
L204.525 306.557
L204.576 306.528
L205.492 304.233
L206.001 302.507
L207.07 297.276
L207.681 295.931
L207.833 295.883
L208.088 295.551
L208.699 293.877
L209.004 293.53
L209.157 293.555
L209.615 294.434
L210.175 295.78
L210.378 295.985
L210.48 295.918
L211.04 294.896
L211.498 294.803
L211.702 294.9
L211.956 295.057
L212.16 294.87
L212.312 294.754
L213.025 295.466
L213.33 296.902
L213.737 298.609
L214.806 301.208
L215.061 301.515
L215.417 302.138
L216.181 303.316
L216.893 303.822
L216.995 303.96
L217.351 304.716
L218.573 309.022
L218.98 310.404
L219.591 313.671
L220.049 316.074
L220.405 317.184
L220.761 318.209
L221.627 322.738
L222.136 323.859
L222.492 324.185
L222.695 324
L222.797 324.069
L223.408 324.92
L223.713 325.071
L223.866 325.03
L224.07 324.688
L224.324 323.81
L224.68 322.248
L225.189 320.125
L226.156 317.647
L226.767 316.869
L227.225 315.769
L227.582 314.677
L228.09 312.988
L228.396 312.308
L228.956 309.744
L229.668 306.289
L230.228 305.599
L230.381 305.735
L230.788 306.644
L231.144 308.064
L232.519 316.663
L233.027 320.257
L233.74 323.238
L234.198 325.155
L235.521 333.875
L236.081 338.029
L236.947 342.446
L238.932 351.925
L239.339 352.951
L239.746 354.234
L240.306 355.721
L240.357 355.681
L240.713 355.287
L240.815 355.295
L241.069 355.346
L241.375 355.559
L241.629 355.9
L242.036 355.983
L242.291 355.884
L243.919 352.173
L245.294 347.587
L246.159 341.153
L247.839 328.461
L248.348 325.88
L249.009 321.146
L250.231 311.088
L251.656 302.878
L252.419 299.26
L252.776 297.627
L253.386 295.698
L253.641 295.286
L254.252 292.712
L255.066 289.166
L255.626 288.003
L255.982 287.706
L256.237 287.767
L257 287.736
L257.356 287.136
L258.476 284.243
L259.29 280.761
L260.054 276.424
L260.563 273.303
L261.224 270.563
L261.479 270.091
L261.683 270.129
L261.886 270.442
L262.497 272.016
L263.006 275.234
L264.278 283.678
L268.146 314.828
L268.554 316.876
L268.961 318.514
L269.266 319.567
L272.066 331.788
L272.32 332.167
L272.524 332.003
L272.982 331.379
L273.491 331.333
L273.745 331.425
L274.051 331.702
L274.254 331.742
L274.458 331.841
L275.119 331.342
L275.323 331.234
L276.036 331.063
L276.545 331.728
L277.461 334.384
L277.97 335.884
L278.224 336.478
L278.631 337.687
L279.191 338.825
L279.547 340.382
L280.006 342.384
L281.38 347.744
L281.583 347.96
L281.94 347.836
L282.652 347.41
L283.467 345.564
L283.619 345.546
L283.721 345.446
L285.451 342.076
L285.91 340.562
L287.436 333.065
L287.945 331.132
L288.607 328.414
L288.913 327.283
L289.472 324.015
L290.541 317.489
L291.203 314.426
L292.424 309.962
L292.679 309.867
L292.933 309.949
L293.493 309.829
L293.697 309.803
L294.46 309.519
L294.715 309.191
L295.02 309.059
L295.733 307.295
L296.343 305.393
L297.005 304.574
L297.921 302.579
L298.379 302.153
L299.194 301.277
L300.212 298.925
L300.313 298.816
L301.128 297.064
L301.331 296.837
L301.484 296.927
L301.942 297.776
L302.757 300.412
L303.724 305.279
L304.741 310.785
L305.149 312.938
L305.912 316.852
L306.218 317.363
L306.726 318.357
L307.134 319.258
L307.439 320.008
L308.202 321.753
L308.508 322.109
L308.813 322.348
L308.966 322.385
L309.119 322.214
L309.373 321.95
L309.526 321.938
L311.613 318.089
L312.427 316.17
L312.732 315.696
L312.987 315.51
L313.19 315.174
L313.75 314.03
L314.005 313.608
L316.142 307.299
L317.364 303.235
L318.178 302.012
L318.382 301.939
L319.196 302.551
L319.4 302.705
L319.858 302.406
L320.011 302.311
L320.367 302.31
L320.52 302.331
L320.774 302.033
L321.232 301.6
L321.487 301.544
L321.894 301.498
L322.047 301.456
L322.301 301.544
L323.166 300.729
L323.37 300.554
L324.031 300.546
L324.184 300.821
L324.54 302.43
L325.202 305.747
L325.813 310.553
L327.034 320.949
L327.747 325.128
L328.918 331.255
L329.528 332.979
L329.986 333.716
L330.241 334.051
L330.445 333.844
L330.75 333.415
L330.903 333.445
L331.412 333.691
L331.615 333.761
L331.971 334.584
L332.684 336.542
L332.888 336.914
L333.091 337.707
L333.447 338.803
L333.906 339.421
L334.822 339.991
L335.432 339.591
L335.789 339.594
L336.349 340.424
L336.756 341.237
L337.061 341.394
L337.316 340.866
L339.25 335.207
L339.657 334.235
L340.573 332.078
L342.049 327.457
L343.016 325.04
L343.474 324.305
L344.238 322.361
L344.645 321.716
L345.51 320.621
L345.765 320.321
L346.426 318.743
L347.19 316.666
L347.648 315.21
L348.004 314.459
L348.411 314.438
L348.615 314.39
L349.276 313.531
L349.633 312.411
L350.04 311.149
L350.345 310.395
L350.905 308.73
L351.312 308.279
L351.974 307.53
L352.178 307.19
L352.483 306.803
L353.043 306.544
L353.196 306.601
L353.399 306.767
L353.552 306.538
L354.264 304.821
L355.282 301.528
L355.689 301.341
L355.842 301.338
L356.351 300.558
L356.707 299.532
L357.165 297.836
L358.387 294.346
L358.692 293.442
L359.252 291.847
L359.812 290.843
L360.168 290.568
L360.576 290.595
L360.779 290.903
L361.339 292.103
L361.695 292.422
L362.052 292.281
L362.255 292.47
L362.866 293.76
L363.579 295.483
L363.935 296.467
L364.24 297.129
L364.495 297.531
L364.953 298.794
L365.309 300.513
L367.294 313.692
L368.159 319.334
L369.126 324.383
L369.635 326.213
L370.704 328.344
L371.518 329.98
L371.773 330.426
L372.078 330.409
L372.384 330.283
L372.994 329.931
L373.3 329.974
L374.318 328.975
L374.979 328
L375.183 327.78
L375.438 327.456
L375.845 327.373
L376.608 327.789
L377.117 327.594
L377.372 327.826
L377.881 328.661
L378.288 329.414
L379.153 330.211
L379.357 330.179
L379.815 330.496
L380.375 330.248
L380.629 329.904
L380.934 329.858
L381.189 329.911
L381.698 330.615
L381.901 330.782
L382.156 330.55
L382.512 330.33
L383.021 330.501
L383.53 330.658
L383.836 330.742
L384.446 331.513
L384.752 332.134
L385.312 332.279
L385.719 331.703
L386.788 329.929
L387.042 329.638
L388.213 327.98
L388.467 327.262
L390.045 320.855
L390.656 317.64
L391.267 315.335
L391.674 314.794
L392.03 314.272
L392.335 314.11
L393.557 314.89
L393.862 314.355
L394.168 313.965
L394.371 313.865
L394.626 313.866
L394.982 314.162
L395.287 314.703
L395.593 314.904
L395.796 314.89
L396.051 314.66
L397.069 313.686
L397.222 313.694
L397.527 313.584
L397.629 313.627
L398.341 314.42
L398.596 314.439
L398.799 314.588
L399.105 314.316
L400.174 312.041
L400.479 311.793
L401.395 310.053
L401.955 308.063
L402.566 306.165
L402.973 305.742
L403.889 304.768
L404.194 304.833
L404.703 305.482
L404.958 305.507
L405.161 305.613
L405.467 305.87
L405.67 305.785
L406.027 305.549
L406.23 305.609
L406.637 305.589
L406.841 305.406
L407.146 304.747
L407.605 303.528
L408.368 302.38
L408.724 301.809
L408.877 301.776
L410.048 302.961
L411.32 305.707
L411.778 306.173
L412.185 306.43
L413.254 307.786
L413.814 308.622
L414.17 309.028
L414.781 309.271
L415.595 310.228
L416.715 311.775
L417.122 313.319
L417.835 316.659
L418.547 319.508
L418.853 320.025
L419.362 320.595
L419.973 321.638
L420.685 322.789
L421.245 323.813
L421.55 323.984
L421.805 323.898
L422.11 324.192
L422.67 324.829
L422.874 324.837
L423.434 325.151
L424.706 327.437
L424.96 327.527
L425.266 327.541
L425.622 327.734
L425.877 327.602
L427.149 326.31
L427.454 326.094
L428.014 325.695
L428.218 325.564
L428.574 324.944
L429.032 324.036
L429.287 323.954
L429.541 323.845
L429.999 323.495
L430.406 323.341
L430.763 323.453
L431.017 323.458
L431.373 323.847
L431.679 324.21
L432.646 325.612
L432.951 325.454
L433.511 324.661
L433.918 324.428
L434.784 323.59
L435.14 323.053
L435.954 322.311
L436.26 322.055
L436.87 321.74
L437.227 321.779
L437.634 321.55
L438.295 321.838
L438.957 322.566
L439.212 322.418
L439.466 322.304
L440.535 322.65
L441.146 323.032
L441.349 323.104
L441.96 323.301
L442.316 322.912
L443.843 319.669
L444.098 319.267
L444.556 318.561
L445.014 318.156
L445.574 317.819
L447.202 315.421
L447.966 314.3
L448.169 314.176
L448.526 313.858
L448.933 313.411
L449.442 312.75
L450.256 312.205
L450.46 312.083
L450.663 312.159
L450.969 312.583
L452.496 315.29
L452.75 315.131
L453.259 314.624
L453.463 314.687
L453.717 314.435
L453.972 314.235
L454.481 314.156
L454.837 313.727
L455.244 312.432
L455.6 311.291
L456.16 309.328
L456.466 308.586
L456.72 308.331
L456.924 308.199
L458.96 305.229
L460.385 304.449
L461.097 303.696
L461.657 302.398
L462.268 300.855
L462.981 299.842
L463.235 299.832
L463.693 300.209
L465.118 303.091
L465.373 303.492
L466.645 306.079
L467.103 306.64
L467.968 308.729
L469.19 313.837
L470.259 316.777
L471.175 318.293
L471.989 320.28
L472.295 320.84
L473.414 321.602
L473.669 321.956
L474.381 323.614
L474.636 324.208
L475.654 327.311
L476.112 328.446
L476.774 329.995
L477.181 330.406
L477.384 330.379
L477.69 330.431
L477.893 330.576
L478.962 332.293
L479.217 332.299
L479.471 332.277
L479.827 332.398
L480.031 332.421
L480.947 332.296
L481.151 332.067
L481.66 331.779
L481.914 331.669
L482.321 331.094
L482.678 330.998
L483.085 331.355
L483.39 331.671
L483.645 331.607
L483.899 331.509
L485.273 332.537
L485.681 332.73
L485.833 332.549
L486.546 331.343
L486.8 331.367
L487.055 331.345
L487.564 331.187
L487.869 330.69
L488.175 329.939
L490.821 321.419
L491.534 320.301
L492.297 318.696
L492.755 317.898
L494.079 314.67
L494.537 313.409
L495.453 310.478
L495.911 309.419
L496.522 307.572
L496.929 306.68
L497.591 305.338
L497.947 304.948
L498.354 304.775
L498.863 304.619
L499.117 304.399
L499.474 304.175
L499.779 303.75
L500.288 302.618
L501.408 300.154
L501.662 300.122
L502.07 300.287
L502.782 300.048
L503.596 299.599
L504.513 299.367
L505.225 298.911
L505.429 298.713
L505.683 298.636
L506.396 298.916
L506.65 299.186
L507.21 300.041
L507.923 301.986
L509.195 306.701
L510.875 314.075
L512.402 319.903
L513.878 325.085
L515.099 329.912
L515.405 330.217
L515.863 330.361
L516.372 330.644
L516.626 330.547
L517.339 329.823
L517.644 329.573
L518.306 328.671
L518.815 327.136
L519.476 324.464
L520.138 322.368
L520.647 321.212
L520.952 320.235
L521.461 318.78
L521.97 318.147
L522.581 317.836
L523.192 318.455
L523.955 319.74
L524.617 319.536
L526.093 317.963
L526.653 318.092
L527.162 318.458
L527.671 318.497
L528.282 318.19
L529.198 317.553
L529.707 316.995
L530.114 316.548
L530.419 316.204
L530.674 316.104
L531.539 316.143
L531.946 316.798
L533.015 319.236
L533.269 319.705
L533.473 320.079
L534.847 323.528
L535.509 324.214
L535.865 324.376
L536.12 324.602
L536.578 324.777
L536.73 324.782
L537.748 325.1
L538.003 325.184
L538.257 325.379
L538.563 325.427
L539.021 325.693
L539.53 325.349
L540.039 324.403
L540.955 322.231
L541.667 320.823
L542.176 320.18
L542.838 318.713
L543.143 318.699
L543.754 318.67
L544.721 317.858
L545.383 317.016
L546.859 316.766
L547.368 316.81
L547.47 316.785
L547.47 316.785" style="fill:none;stroke:#0000ff;"/>
   </g>
   <g id="matplotlib.axis_1">
    <g id="xtick_1">
     <g id="line2d_2">
      <defs>
       <path d="
M0 0
L0 -4" id="m46b435921b"/>
      </defs>
      <g>
       <use style="stroke:#000000;stroke-linecap:butt;stroke-width:0.5;" x="161.327206554" xlink:href="#m46b435921b" y="316.97140361"/>
      </g>
     </g>
     <g id="text_1">
      <!-- 5 -->
      <defs>
       <path d="
M10.7969 72.9062
L49.5156 72.9062
L49.5156 64.5938
L19.8281 64.5938
L19.8281 46.7344
Q21.9688 47.4688 24.1094 47.8281
Q26.2656 48.1875 28.4219 48.1875
Q40.625 48.1875 47.75 41.5
Q54.8906 34.8125 54.8906 23.3906
Q54.8906 11.625 47.5625 5.09375
Q40.2344 -1.42188 26.9062 -1.42188
Q22.3125 -1.42188 17.5469 -0.640625
Q12.7969 0.140625 7.71875 1.70312
L7.71875 11.625
Q12.1094 9.23438 16.7969 8.0625
Q21.4844 6.89062 26.7031 6.89062
Q35.1562 6.89062 40.0781 11.3281
Q45.0156 15.7656 45.0156 23.3906
Q45.0156 31 40.0781 35.4375
Q35.1562 39.8906 26.7031 39.8906
Q22.75 39.8906 18.8125 39.0156
Q14.8906 38.1406 10.7969 36.2812
z
" id="BitstreamVeraSans-Roman-35"/>
      </defs>
      <g transform="translate(158.968612804 328.26202861)scale(0.1 -0.1)">
       <use xlink:href="#BitstreamVeraSans-Roman-35"/>
      </g>
     </g>
    </g>
    <g id="xtick_2">
     <g id="line2d_3">
      <defs>
       <path d="
M0 0
L0 -4" id="m46b435921b"/>
      </defs>
      <g>
       <use style="stroke:#000000;stroke-linecap:butt;stroke-width:0.5;" x="284.129013391" xlink:href="#m46b435921b" y="316.97140361"/>
      </g>
     </g>
     <g id="text_2">
      <!-- 10 -->
      <defs>
       <path d="
M31.7812 66.4062
Q24.1719 66.4062 20.3281 58.9062
Q16.5 51.4219 16.5 36.375
Q16.5 21.3906 20.3281 13.8906
Q24.1719 6.39062 31.7812 6.39062
Q39.4531 6.39062 43.2812 13.8906
Q47.125 21.3906 47.125 36.375
Q47.125 51.4219 43.2812 58.9062
Q39.4531 66.4062 31.7812 66.4062
M31.7812 74.2188
Q44.0469 74.2188 50.5156 64.5156
Q56.9844 54.8281 56.9844 36.375
Q56.9844 17.9688 50.5156 8.26562
Q44.0469 -1.42188 31.7812 -1.42188
Q19.5312 -1.42188 13.0625 8.26562
Q6.59375 17.9688 6.59375 36.375
Q6.59375 54.8281 13.0625 64.5156
Q19.5312 74.2188 31.7812 74.2188" id="BitstreamVeraSans-Roman-30"/>
       <path d="
M12.4062 8.29688
L28.5156 8.29688
L28.5156 63.9219
L10.9844 60.4062
L10.9844 69.3906
L28.4219 72.9062
L38.2812 72.9062
L38.2812 8.29688
L54.3906 8.29688
L54.3906 0
L12.4062 0
z
" id="BitstreamVeraSans-Roman-31"/>
      </defs>
      <g transform="translate(278.647763391 328.39327861)scale(0.1 -0.1)">
       <use xlink:href="#BitstreamVeraSans-Roman-31"/>
       <use x="63.623046875" xlink:href="#BitstreamVeraSans-Roman-30"/>
      </g>
     </g>
    </g>
    <g id="xtick_3">
     <g id="line2d_4">
      <defs>
       <path d="
M0 0
L0 -4" id="m46b435921b"/>
      </defs>
      <g>
       <use style="stroke:#000000;stroke-linecap:butt;stroke-width:0.5;" x="406.930820228" xlink:href="#m46b435921b" y="316.97140361"/>
      </g>
     </g>
     <g id="text_3">
      <!-- 15 -->
      <g transform="translate(401.554257728 328.26202861)scale(0.1 -0.1)">
       <use xlink:href="#BitstreamVeraSans-Roman-31"/>
       <use x="63.623046875" xlink:href="#BitstreamVeraSans-Roman-35"/>
      </g>
     </g>
    </g>
    <g id="xtick_4">
     <g id="line2d_5">
      <defs>
       <path d="
M0 0
L0 -4" id="m46b435921b"/>
      </defs>
      <g>
       <use style="stroke:#000000;stroke-linecap:butt;stroke-width:0.5;" x="529.732627065" xlink:href="#m46b435921b" y="316.97140361"/>
      </g>
     </g>
     <g id="text_4">
      <!-- 20 -->
      <defs>
       <path d="
M19.1875 8.29688
L53.6094 8.29688
L53.6094 0
L7.32812 0
L7.32812 8.29688
Q12.9375 14.1094 22.625 23.8906
Q32.3281 33.6875 34.8125 36.5312
Q39.5469 41.8438 41.4219 45.5312
Q43.3125 49.2188 43.3125 52.7812
Q43.3125 58.5938 39.2344 62.25
Q35.1562 65.9219 28.6094 65.9219
Q23.9688 65.9219 18.8125 64.3125
Q13.6719 62.7031 7.8125 59.4219
L7.8125 69.3906
Q13.7656 71.7812 18.9375 73
Q24.125 74.2188 28.4219 74.2188
Q39.75 74.2188 46.4844 68.5469
Q53.2188 62.8906 53.2188 53.4219
Q53.2188 48.9219 51.5312 44.8906
Q49.8594 40.875 45.4062 35.4062
Q44.1875 33.9844 37.6406 27.2188
Q31.1094 20.4531 19.1875 8.29688" id="BitstreamVeraSans-Roman-32"/>
      </defs>
      <g transform="translate(524.068564565 328.39327861)scale(0.1 -0.1)">
       <use xlink:href="#BitstreamVeraSans-Roman-32"/>
       <use x="63.623046875" xlink:href="#BitstreamVeraSans-Roman-30"/>
      </g>
     </g>
    </g>
    <g id="xtick_5">
     <g id="line2d_6">
      <defs>
       <path d="
M0 0
L0 -2" id="mccaf0756b6"/>
      </defs>
      <g>
       <use style="stroke:#000000;stroke-linecap:butt;stroke-width:0.5;" x="63.085761084" xlink:href="#mccaf0756b6" y="316.97140361"/>
      </g>
     </g>
    </g>
    <g id="xtick_6">
     <g id="line2d_7">
      <defs>
       <path d="
M0 0
L0 -2" id="mccaf0756b6"/>
      </defs>
      <g>
       <use style="stroke:#000000;stroke-linecap:butt;stroke-width:0.5;" x="87.6461224514" xlink:href="#mccaf0756b6" y="316.97140361"/>
      </g>
     </g>
    </g>
    <g id="xtick_7">
     <g id="line2d_8">
      <defs>
       <path d="
M0 0
L0 -2" id="mccaf0756b6"/>
      </defs>
      <g>
       <use style="stroke:#000000;stroke-linecap:butt;stroke-width:0.5;" x="112.206483819" xlink:href="#mccaf0756b6" y="316.97140361"/>
      </g>
     </g>
    </g>
    <g id="xtick_8">
     <g id="line2d_9">
      <defs>
       <path d="
M0 0
L0 -2" id="mccaf0756b6"/>
      </defs>
      <g>
       <use style="stroke:#000000;stroke-linecap:butt;stroke-width:0.5;" x="136.766845186" xlink:href="#mccaf0756b6" y="316.97140361"/>
      </g>
     </g>
    </g>
    <g id="xtick_9">
     <g id="line2d_10">
      <defs>
       <path d="
M0 0
L0 -2" id="mccaf0756b6"/>
      </defs>
      <g>
       <use style="stroke:#000000;stroke-linecap:butt;stroke-width:0.5;" x="185.887567921" xlink:href="#mccaf0756b6" y="316.97140361"/>
      </g>
     </g>
    </g>
    <g id="xtick_10">
     <g id="line2d_11">
      <defs>
       <path d="
M0 0
L0 -2" id="mccaf0756b6"/>
      </defs>
      <g>
       <use style="stroke:#000000;stroke-linecap:butt;stroke-width:0.5;" x="210.447929288" xlink:href="#mccaf0756b6" y="316.97140361"/>
      </g>
     </g>
    </g>
    <g id="xtick_11">
     <g id="line2d_12">
      <defs>
       <path d="
M0 0
L0 -2" id="mccaf0756b6"/>
      </defs>
      <g>
       <use style="stroke:#000000;stroke-linecap:butt;stroke-width:0.5;" x="235.008290656" xlink:href="#mccaf0756b6" y="316.97140361"/>
      </g>
     </g>
    </g>
    <g id="xtick_12">
     <g id="line2d_13">
      <defs>
       <path d="
M0 0
L0 -2" id="mccaf0756b6"/>
      </defs>
      <g>
       <use style="stroke:#000000;stroke-linecap:butt;stroke-width:0.5;" x="259.568652023" xlink:href="#mccaf0756b6" y="316.97140361"/>
      </g>
     </g>
    </g>
    <g id="xtick_13">
     <g id="line2d_14">
      <defs>
       <path d="
M0 0
L0 -2" id="mccaf0756b6"/>
      </defs>
      <g>
       <use style="stroke:#000000;stroke-linecap:butt;stroke-width:0.5;" x="308.689374758" xlink:href="#mccaf0756b6" y="316.97140361"/>
      </g>
     </g>
    </g>
    <g id="xtick_14">
     <g id="line2d_15">
      <defs>
       <path d="
M0 0
L0 -2" id="mccaf0756b6"/>
      </defs>
      <g>
       <use style="stroke:#000000;stroke-linecap:butt;stroke-width:0.5;" x="333.249736125" xlink:href="#mccaf0756b6" y="316.97140361"/>
      </g>
     </g>
    </g>
    <g id="xtick_15">
     <g id="line2d_16">
      <defs>
       <path d="
M0 0
L0 -2" id="mccaf0756b6"/>
      </defs>
      <g>
       <use style="stroke:#000000;stroke-linecap:butt;stroke-width:0.5;" x="357.810097493" xlink:href="#mccaf0756b6" y="316.97140361"/>
      </g>
     </g>
    </g>
    <g id="xtick_16">
     <g id="line2d_17">
      <defs>
       <path d="
M0 0
L0 -2" id="mccaf0756b6"/>
      </defs>
      <g>
       <use style="stroke:#000000;stroke-linecap:butt;stroke-width:0.5;" x="382.37045886" xlink:href="#mccaf0756b6" y="316.97140361"/>
      </g>
     </g>
    </g>
    <g id="xtick_17">
     <g id="line2d_18">
      <defs>
       <path d="
M0 0
L0 -2" id="mccaf0756b6"/>
      </defs>
      <g>
       <use style="stroke:#000000;stroke-linecap:butt;stroke-width:0.5;" x="431.491181595" xlink:href="#mccaf0756b6" y="316.97140361"/>
      </g>
     </g>
    </g>
    <g id="xtick_18">
     <g id="line2d_19">
      <defs>
       <path d="
M0 0
L0 -2" id="mccaf0756b6"/>
      </defs>
      <g>
       <use style="stroke:#000000;stroke-linecap:butt;stroke-width:0.5;" x="456.051542962" xlink:href="#mccaf0756b6" y="316.97140361"/>
      </g>
     </g>
    </g>
    <g id="xtick_19">
     <g id="line2d_20">
      <defs>
       <path d="
M0 0
L0 -2" id="mccaf0756b6"/>
      </defs>
      <g>
       <use style="stroke:#000000;stroke-linecap:butt;stroke-width:0.5;" x="480.61190433" xlink:href="#mccaf0756b6" y="316.97140361"/>
      </g>
     </g>
    </g>
    <g id="xtick_20">
     <g id="line2d_21">
      <defs>
       <path d="
M0 0
L0 -2" id="mccaf0756b6"/>
      </defs>
      <g>
       <use style="stroke:#000000;stroke-linecap:butt;stroke-width:0.5;" x="505.172265697" xlink:href="#mccaf0756b6" y="316.97140361"/>
      </g>
     </g>
    </g>
   </g>
   <g id="matplotlib.axis_2">
    <g id="ytick_1">
     <g id="line2d_22">
      <defs>
       <path d="
M0 0
L4 0" id="m265e9827f8"/>
      </defs>
      <g>
       <use style="stroke:#000000;stroke-linecap:butt;stroke-width:0.5;" x="35.7109375" xlink:href="#m265e9827f8" y="365.503242012"/>
      </g>
     </g>
     <g id="text_5">
      <!-- -0.05 -->
      <defs>
       <path d="
M10.6875 12.4062
L21 12.4062
L21 0
L10.6875 0
z
" id="BitstreamVeraSans-Roman-2e"/>
       <path d="
M4.89062 31.3906
L31.2031 31.3906
L31.2031 23.3906
L4.89062 23.3906
z
" id="BitstreamVeraSans-Roman-2d"/>
      </defs>
      <g transform="translate(7.2 369.143085762)scale(0.1 -0.1)">
       <use xlink:href="#BitstreamVeraSans-Roman-2d"/>
       <use x="36.083984375" xlink:href="#BitstreamVeraSans-Roman-30"/>
       <use x="99.70703125" xlink:href="#BitstreamVeraSans-Roman-2e"/>
       <use x="131.494140625" xlink:href="#BitstreamVeraSans-Roman-30"/>
       <use x="195.1171875" xlink:href="#BitstreamVeraSans-Roman-35"/>
      </g>
     </g>
    </g>
    <g id="ytick_2">
     <g id="line2d_23">
      <defs>
       <path d="
M0 0
L4 0" id="m265e9827f8"/>
      </defs>
      <g>
       <use style="stroke:#000000;stroke-linecap:butt;stroke-width:0.5;" x="35.7109375" xlink:href="#m265e9827f8" y="316.97140361"/>
      </g>
     </g>
     <g id="text_6">
      <!-- 0 -->
      <g transform="translate(26.671875 320.61124736)scale(0.1 -0.1)">
       <use xlink:href="#BitstreamVeraSans-Roman-30"/>
      </g>
     </g>
    </g>
    <g id="ytick_3">
     <g id="line2d_24">
      <defs>
       <path d="
M0 0
L4 0" id="m265e9827f8"/>
      </defs>
      <g>
       <use style="stroke:#000000;stroke-linecap:butt;stroke-width:0.5;" x="35.7109375" xlink:href="#m265e9827f8" y="268.439565208"/>
      </g>
     </g>
     <g id="text_7">
      <!-- 0.05 -->
      <g transform="translate(10.978125 272.079408958)scale(0.1 -0.1)">
       <use xlink:href="#BitstreamVeraSans-Roman-30"/>
       <use x="63.623046875" xlink:href="#BitstreamVeraSans-Roman-2e"/>
       <use x="95.41015625" xlink:href="#BitstreamVeraSans-Roman-30"/>
       <use x="159.033203125" xlink:href="#BitstreamVeraSans-Roman-35"/>
      </g>
     </g>
    </g>
    <g id="ytick_4">
     <g id="line2d_25">
      <defs>
       <path d="
M0 0
L4 0" id="m265e9827f8"/>
      </defs>
      <g>
       <use style="stroke:#000000;stroke-linecap:butt;stroke-width:0.5;" x="35.7109375" xlink:href="#m265e9827f8" y="219.907726806"/>
      </g>
     </g>
     <g id="text_8">
      <!-- 0.1 -->
      <g transform="translate(17.390625 223.547570556)scale(0.1 -0.1)">
       <use xlink:href="#BitstreamVeraSans-Roman-30"/>
       <use x="63.623046875" xlink:href="#BitstreamVeraSans-Roman-2e"/>
       <use x="95.41015625" xlink:href="#BitstreamVeraSans-Roman-31"/>
      </g>
     </g>
    </g>
    <g id="ytick_5">
     <g id="line2d_26">
      <defs>
       <path d="
M0 0
L4 0" id="m265e9827f8"/>
      </defs>
      <g>
       <use style="stroke:#000000;stroke-linecap:butt;stroke-width:0.5;" x="35.7109375" xlink:href="#m265e9827f8" y="171.375888404"/>
      </g>
     </g>
     <g id="text_9">
      <!-- 0.15 -->
      <g transform="translate(10.978125 175.015732154)scale(0.1 -0.1)">
       <use xlink:href="#BitstreamVeraSans-Roman-30"/>
       <use x="63.623046875" xlink:href="#BitstreamVeraSans-Roman-2e"/>
       <use x="95.41015625" xlink:href="#BitstreamVeraSans-Roman-31"/>
       <use x="159.033203125" xlink:href="#BitstreamVeraSans-Roman-35"/>
      </g>
     </g>
    </g>
    <g id="ytick_6">
     <g id="line2d_27">
      <defs>
       <path d="
M0 0
L4 0" id="m265e9827f8"/>
      </defs>
      <g>
       <use style="stroke:#000000;stroke-linecap:butt;stroke-width:0.5;" x="35.7109375" xlink:href="#m265e9827f8" y="122.844050003"/>
      </g>
     </g>
     <g id="text_10">
      <!-- 0.2 -->
      <g transform="translate(17.46875 126.483893753)scale(0.1 -0.1)">
       <use xlink:href="#BitstreamVeraSans-Roman-30"/>
       <use x="63.623046875" xlink:href="#BitstreamVeraSans-Roman-2e"/>
       <use x="95.41015625" xlink:href="#BitstreamVeraSans-Roman-32"/>
      </g>
     </g>
    </g>
    <g id="ytick_7">
     <g id="line2d_28">
      <defs>
       <path d="
M0 0
L4 0" id="m265e9827f8"/>
      </defs>
      <g>
       <use style="stroke:#000000;stroke-linecap:butt;stroke-width:0.5;" x="35.7109375" xlink:href="#m265e9827f8" y="74.3122116009"/>
      </g>
     </g>
     <g id="text_11">
      <!-- 0.25 -->
      <g transform="translate(10.978125 77.9520553509)scale(0.1 -0.1)">
       <use xlink:href="#BitstreamVeraSans-Roman-30"/>
       <use x="63.623046875" xlink:href="#BitstreamVeraSans-Roman-2e"/>
       <use x="95.41015625" xlink:href="#BitstreamVeraSans-Roman-32"/>
       <use x="159.033203125" xlink:href="#BitstreamVeraSans-Roman-35"/>
      </g>
     </g>
    </g>
    <g id="ytick_8">
     <g id="line2d_29">
      <defs>
       <path d="
M0 0
L4 0" id="m265e9827f8"/>
      </defs>
      <g>
       <use style="stroke:#000000;stroke-linecap:butt;stroke-width:0.5;" x="35.7109375" xlink:href="#m265e9827f8" y="25.7803731992"/>
      </g>
     </g>
     <g id="text_12">
      <!-- 0.3 -->
      <defs>
       <path d="
M40.5781 39.3125
Q47.6562 37.7969 51.625 33
Q55.6094 28.2188 55.6094 21.1875
Q55.6094 10.4062 48.1875 4.48438
Q40.7656 -1.42188 27.0938 -1.42188
Q22.5156 -1.42188 17.6562 -0.515625
Q12.7969 0.390625 7.625 2.20312
L7.625 11.7188
Q11.7188 9.32812 16.5938 8.10938
Q21.4844 6.89062 26.8125 6.89062
Q36.0781 6.89062 40.9375 10.5469
Q45.7969 14.2031 45.7969 21.1875
Q45.7969 27.6406 41.2812 31.2656
Q36.7656 34.9062 28.7188 34.9062
L20.2188 34.9062
L20.2188 43.0156
L29.1094 43.0156
Q36.375 43.0156 40.2344 45.9219
Q44.0938 48.8281 44.0938 54.2969
Q44.0938 59.9062 40.1094 62.9062
Q36.1406 65.9219 28.7188 65.9219
Q24.6562 65.9219 20.0156 65.0312
Q15.375 64.1562 9.8125 62.3125
L9.8125 71.0938
Q15.4375 72.6562 20.3438 73.4375
Q25.25 74.2188 29.5938 74.2188
Q40.8281 74.2188 47.3594 69.1094
Q53.9062 64.0156 53.9062 55.3281
Q53.9062 49.2656 50.4375 45.0938
Q46.9688 40.9219 40.5781 39.3125" id="BitstreamVeraSans-Roman-33"/>
      </defs>
      <g transform="translate(17.26875 29.4202169492)scale(0.1 -0.1)">
       <use xlink:href="#BitstreamVeraSans-Roman-30"/>
       <use x="63.623046875" xlink:href="#BitstreamVeraSans-Roman-2e"/>
       <use x="95.41015625" xlink:href="#BitstreamVeraSans-Roman-33"/>
      </g>
     </g>
    </g>
    <g id="ytick_9">
     <g id="line2d_30">
      <defs>
       <path d="
M0 0
L2 0" id="mf630cd8708"/>
      </defs>
      <g>
       <use style="stroke:#000000;stroke-linecap:butt;stroke-width:0.5;" x="35.7109375" xlink:href="#mf630cd8708" y="404.328712733"/>
      </g>
     </g>
    </g>
    <g id="ytick_10">
     <g id="line2d_31">
      <defs>
       <path d="
M0 0
L2 0" id="mf630cd8708"/>
      </defs>
      <g>
       <use style="stroke:#000000;stroke-linecap:butt;stroke-width:0.5;" x="35.7109375" xlink:href="#mf630cd8708" y="394.622345053"/>
      </g>
     </g>
    </g>
    <g id="ytick_11">
     <g id="line2d_32">
      <defs>
       <path d="
M0 0
L2 0" id="mf630cd8708"/>
      </defs>
      <g>
       <use style="stroke:#000000;stroke-linecap:butt;stroke-width:0.5;" x="35.7109375" xlink:href="#mf630cd8708" y="384.915977372"/>
      </g>
     </g>
    </g>
    <g id="ytick_12">
     <g id="line2d_33">
      <defs>
       <path d="
M0 0
L2 0" id="mf630cd8708"/>
      </defs>
      <g>
       <use style="stroke:#000000;stroke-linecap:butt;stroke-width:0.5;" x="35.7109375" xlink:href="#mf630cd8708" y="375.209609692"/>
      </g>
     </g>
    </g>
    <g id="ytick_13">
     <g id="line2d_34">
      <defs>
       <path d="
M0 0
L2 0" id="mf630cd8708"/>
      </defs>
      <g>
       <use style="stroke:#000000;stroke-linecap:butt;stroke-width:0.5;" x="35.7109375" xlink:href="#mf630cd8708" y="355.796874331"/>
      </g>
     </g>
    </g>
    <g id="ytick_14">
     <g id="line2d_35">
      <defs>
       <path d="
M0 0
L2 0" id="mf630cd8708"/>
      </defs>
      <g>
       <use style="stroke:#000000;stroke-linecap:butt;stroke-width:0.5;" x="35.7109375" xlink:href="#mf630cd8708" y="346.090506651"/>
      </g>
     </g>
    </g>
    <g id="ytick_15">
     <g id="line2d_36">
      <defs>
       <path d="
M0 0
L2 0" id="mf630cd8708"/>
      </defs>
      <g>
       <use style="stroke:#000000;stroke-linecap:butt;stroke-width:0.5;" x="35.7109375" xlink:href="#mf630cd8708" y="336.384138971"/>
      </g>
     </g>
    </g>
    <g id="ytick_16">
     <g id="line2d_37">
      <defs>
       <path d="
M0 0
L2 0" id="mf630cd8708"/>
      </defs>
      <g>
       <use style="stroke:#000000;stroke-linecap:butt;stroke-width:0.5;" x="35.7109375" xlink:href="#mf630cd8708" y="326.67777129"/>
      </g>
     </g>
    </g>
    <g id="ytick_17">
     <g id="line2d_38">
      <defs>
       <path d="
M0 0
L2 0" id="mf630cd8708"/>
      </defs>
      <g>
       <use style="stroke:#000000;stroke-linecap:butt;stroke-width:0.5;" x="35.7109375" xlink:href="#mf630cd8708" y="316.97140361"/>
      </g>
     </g>
    </g>
    <g id="ytick_18">
     <g id="line2d_39">
      <defs>
       <path d="
M0 0
L2 0" id="mf630cd8708"/>
      </defs>
      <g>
       <use style="stroke:#000000;stroke-linecap:butt;stroke-width:0.5;" x="35.7109375" xlink:href="#mf630cd8708" y="307.265035929"/>
      </g>
     </g>
    </g>
    <g id="ytick_19">
     <g id="line2d_40">
      <defs>
       <path d="
M0 0
L2 0" id="mf630cd8708"/>
      </defs>
      <g>
       <use style="stroke:#000000;stroke-linecap:butt;stroke-width:0.5;" x="35.7109375" xlink:href="#mf630cd8708" y="297.558668249"/>
      </g>
     </g>
    </g>
    <g id="ytick_20">
     <g id="line2d_41">
      <defs>
       <path d="
M0 0
L2 0" id="mf630cd8708"/>
      </defs>
      <g>
       <use style="stroke:#000000;stroke-linecap:butt;stroke-width:0.5;" x="35.7109375" xlink:href="#mf630cd8708" y="287.852300569"/>
      </g>
     </g>
    </g>
    <g id="ytick_21">
     <g id="line2d_42">
      <defs>
       <path d="
M0 0
L2 0" id="mf630cd8708"/>
      </defs>
      <g>
       <use style="stroke:#000000;stroke-linecap:butt;stroke-width:0.5;" x="35.7109375" xlink:href="#mf630cd8708" y="278.145932888"/>
      </g>
     </g>
    </g>
    <g id="ytick_22">
     <g id="line2d_43">
      <defs>
       <path d="
M0 0
L2 0" id="mf630cd8708"/>
      </defs>
      <g>
       <use style="stroke:#000000;stroke-linecap:butt;stroke-width:0.5;" x="35.7109375" xlink:href="#mf630cd8708" y="258.733197528"/>
      </g>
     </g>
    </g>
    <g id="ytick_23">
     <g id="line2d_44">
      <defs>
       <path d="
M0 0
L2 0" id="mf630cd8708"/>
      </defs>
      <g>
       <use style="stroke:#000000;stroke-linecap:butt;stroke-width:0.5;" x="35.7109375" xlink:href="#mf630cd8708" y="249.026829847"/>
      </g>
     </g>
    </g>
    <g id="ytick_24">
     <g id="line2d_45">
      <defs>
       <path d="
M0 0
L2 0" id="mf630cd8708"/>
      </defs>
      <g>
       <use style="stroke:#000000;stroke-linecap:butt;stroke-width:0.5;" x="35.7109375" xlink:href="#mf630cd8708" y="239.320462167"/>
      </g>
     </g>
    </g>
    <g id="ytick_25">
     <g id="line2d_46">
      <defs>
       <path d="
M0 0
L2 0" id="mf630cd8708"/>
      </defs>
      <g>
       <use style="stroke:#000000;stroke-linecap:butt;stroke-width:0.5;" x="35.7109375" xlink:href="#mf630cd8708" y="229.614094487"/>
      </g>
     </g>
    </g>
    <g id="ytick_26">
     <g id="line2d_47">
      <defs>
       <path d="
M0 0
L2 0" id="mf630cd8708"/>
      </defs>
      <g>
       <use style="stroke:#000000;stroke-linecap:butt;stroke-width:0.5;" x="35.7109375" xlink:href="#mf630cd8708" y="210.201359126"/>
      </g>
     </g>
    </g>
    <g id="ytick_27">
     <g id="line2d_48">
      <defs>
       <path d="
M0 0
L2 0" id="mf630cd8708"/>
      </defs>
      <g>
       <use style="stroke:#000000;stroke-linecap:butt;stroke-width:0.5;" x="35.7109375" xlink:href="#mf630cd8708" y="200.494991446"/>
      </g>
     </g>
    </g>
    <g id="ytick_28">
     <g id="line2d_49">
      <defs>
       <path d="
M0 0
L2 0" id="mf630cd8708"/>
      </defs>
      <g>
       <use style="stroke:#000000;stroke-linecap:butt;stroke-width:0.5;" x="35.7109375" xlink:href="#mf630cd8708" y="190.788623765"/>
      </g>
     </g>
    </g>
    <g id="ytick_29">
     <g id="line2d_50">
      <defs>
       <path d="
M0 0
L2 0" id="mf630cd8708"/>
      </defs>
      <g>
       <use style="stroke:#000000;stroke-linecap:butt;stroke-width:0.5;" x="35.7109375" xlink:href="#mf630cd8708" y="181.082256085"/>
      </g>
     </g>
    </g>
    <g id="ytick_30">
     <g id="line2d_51">
      <defs>
       <path d="
M0 0
L2 0" id="mf630cd8708"/>
      </defs>
      <g>
       <use style="stroke:#000000;stroke-linecap:butt;stroke-width:0.5;" x="35.7109375" xlink:href="#mf630cd8708" y="171.375888404"/>
      </g>
     </g>
    </g>
    <g id="ytick_31">
     <g id="line2d_52">
      <defs>
       <path d="
M0 0
L2 0" id="mf630cd8708"/>
      </defs>
      <g>
       <use style="stroke:#000000;stroke-linecap:butt;stroke-width:0.5;" x="35.7109375" xlink:href="#mf630cd8708" y="161.669520724"/>
      </g>
     </g>
    </g>
    <g id="ytick_32">
     <g id="line2d_53">
      <defs>
       <path d="
M0 0
L2 0" id="mf630cd8708"/>
      </defs>
      <g>
       <use style="stroke:#000000;stroke-linecap:butt;stroke-width:0.5;" x="35.7109375" xlink:href="#mf630cd8708" y="151.963153044"/>
      </g>
     </g>
    </g>
    <g id="ytick_33">
     <g id="line2d_54">
      <defs>
       <path d="
M0 0
L2 0" id="mf630cd8708"/>
      </defs>
      <g>
       <use style="stroke:#000000;stroke-linecap:butt;stroke-width:0.5;" x="35.7109375" xlink:href="#mf630cd8708" y="142.256785363"/>
      </g>
     </g>
    </g>
    <g id="ytick_34">
     <g id="line2d_55">
      <defs>
       <path d="
M0 0
L2 0" id="mf630cd8708"/>
      </defs>
      <g>
       <use style="stroke:#000000;stroke-linecap:butt;stroke-width:0.5;" x="35.7109375" xlink:href="#mf630cd8708" y="132.550417683"/>
      </g>
     </g>
    </g>
    <g id="ytick_35">
     <g id="line2d_56">
      <defs>
       <path d="
M0 0
L2 0" id="mf630cd8708"/>
      </defs>
      <g>
       <use style="stroke:#000000;stroke-linecap:butt;stroke-width:0.5;" x="35.7109375" xlink:href="#mf630cd8708" y="122.844050003"/>
      </g>
     </g>
    </g>
    <g id="ytick_36">
     <g id="line2d_57">
      <defs>
       <path d="
M0 0
L2 0" id="mf630cd8708"/>
      </defs>
      <g>
       <use style="stroke:#000000;stroke-linecap:butt;stroke-width:0.5;" x="35.7109375" xlink:href="#mf630cd8708" y="113.137682322"/>
      </g>
     </g>
    </g>
    <g id="ytick_37">
     <g id="line2d_58">
      <defs>
       <path d="
M0 0
L2 0" id="mf630cd8708"/>
      </defs>
      <g>
       <use style="stroke:#000000;stroke-linecap:butt;stroke-width:0.5;" x="35.7109375" xlink:href="#mf630cd8708" y="103.431314642"/>
      </g>
     </g>
    </g>
    <g id="ytick_38">
     <g id="line2d_59">
      <defs>
       <path d="
M0 0
L2 0" id="mf630cd8708"/>
      </defs>
      <g>
       <use style="stroke:#000000;stroke-linecap:butt;stroke-width:0.5;" x="35.7109375" xlink:href="#mf630cd8708" y="93.7249469616"/>
      </g>
     </g>
    </g>
    <g id="ytick_39">
     <g id="line2d_60">
      <defs>
       <path d="
M0 0
L2 0" id="mf630cd8708"/>
      </defs>
      <g>
       <use style="stroke:#000000;stroke-linecap:butt;stroke-width:0.5;" x="35.7109375" xlink:href="#mf630cd8708" y="84.0185792813"/>
      </g>
     </g>
    </g>
    <g id="ytick_40">
     <g id="line2d_61">
      <defs>
       <path d="
M0 0
L2 0" id="mf630cd8708"/>
      </defs>
      <g>
       <use style="stroke:#000000;stroke-linecap:butt;stroke-width:0.5;" x="35.7109375" xlink:href="#mf630cd8708" y="74.3122116009"/>
      </g>
     </g>
    </g>
    <g id="ytick_41">
     <g id="line2d_62">
      <defs>
       <path d="
M0 0
L2 0" id="mf630cd8708"/>
      </defs>
      <g>
       <use style="stroke:#000000;stroke-linecap:butt;stroke-width:0.5;" x="35.7109375" xlink:href="#mf630cd8708" y="64.6058439206"/>
      </g>
     </g>
    </g>
    <g id="ytick_42">
     <g id="line2d_63">
      <defs>
       <path d="
M0 0
L2 0" id="mf630cd8708"/>
      </defs>
      <g>
       <use style="stroke:#000000;stroke-linecap:butt;stroke-width:0.5;" x="35.7109375" xlink:href="#mf630cd8708" y="54.8994762402"/>
      </g>
     </g>
    </g>
    <g id="ytick_43">
     <g id="line2d_64">
      <defs>
       <path d="
M0 0
L2 0" id="mf630cd8708"/>
      </defs>
      <g>
       <use style="stroke:#000000;stroke-linecap:butt;stroke-width:0.5;" x="35.7109375" xlink:href="#mf630cd8708" y="45.1931085599"/>
      </g>
     </g>
    </g>
    <g id="ytick_44">
     <g id="line2d_65">
      <defs>
       <path d="
M0 0
L2 0" id="mf630cd8708"/>
      </defs>
      <g>
       <use style="stroke:#000000;stroke-linecap:butt;stroke-width:0.5;" x="35.7109375" xlink:href="#mf630cd8708" y="35.4867408795"/>
      </g>
     </g>
    </g>
   </g>
   <g id="patch_3">
    <path d="
M45.7109 316.971
L557.308 316.971" style="fill:none;stroke:#000000;stroke-width:0.8;"/>
   </g>
   <g id="patch_4">
    <path d="
M35.7109 413.28
L35.7109 7.2" style="fill:none;stroke:#000000;stroke-width:0.8;"/>
   </g>
  </g>
 </g>
 <defs>
  <clipPath id="p5895cd3558">
   <rect height="406.08" width="511.5971875" x="45.7109375" y="7.2"/>
  </clipPath>
 </defs>
</svg>
