<?xml version="1.0" encoding="utf-8" standalone="no"?>
<!DOCTYPE svg PUBLIC "-//W3C//DTD SVG 1.1//EN"
  "http://www.w3.org/Graphics/SVG/1.1/DTD/svg11.dtd">
<!-- Created with matplotlib (http://matplotlib.sourceforge.net/) -->
<svg height="420pt" version="1.1" viewBox="0 0 564 420" width="564pt" xmlns="http://www.w3.org/2000/svg" xmlns:xlink="http://www.w3.org/1999/xlink">
 <defs>
  <style type="text/css">
*{stroke-linecap:square;stroke-linejoin:round;}
  </style>
 </defs>
 <g id="figure_1">
  <g id="patch_1">
   <path d="
M2.22045e-16 420.48
L564.455 420.48
L564.455 0
L2.22045e-16 0
z
" style="fill:#ffffff;"/>
  </g>
  <g id="axes_1">
   <g id="patch_2">
    <path d="
M46.0234 413.28
L557.255 413.28
L557.255 7.2
L46.0234 7.2
z
" style="fill:#ffffff;"/>
   </g>
   <g id="line2d_1">
    <path clip-path="url(#p29dd9b8f0a)" d="
M55.8548 24.6145
L56.6686 16.0516
L56.9737 15.0764
L57.1263 15.0218
L57.2789 15.2446
L57.5332 16.2108
L57.8892 18.7504
L58.347 23.9124
L58.9065 32.8717
L59.6185 48.0604
L60.4831 71.4933
L61.5512 106.886
L62.8227 156.711
L64.3994 227.78
L65.8235 297.62
L65.8744 296.346
L66.739 278.336
L67.5019 267.013
L68.1631 260.358
L68.7226 256.845
L69.1295 255.432
L69.4346 254.974
L69.6381 254.945
L69.8415 255.131
L70.1467 255.804
L70.5536 257.409
L71.0622 260.504
L71.6725 265.727
L72.4354 274.42
L73.3 286.955
L74.3173 305.031
L75.5379 330.998
L76.9111 365.154
L78.3352 405.471
L78.3861 403.018
L79.7593 324.214
L81.1834 254.578
L82.5567 197.876
L83.8791 152.018
L85.1506 115.27
L86.3712 86.1805
L87.541 63.5316
L88.6091 46.9851
L89.5755 35.1823
L89.8806 32.109
L89.9315 32.5704
L90.9487 43.3193
L92.0676 57.6001
L92.9323 68.2114
L93.4917 70.1176
L94.1529 73.2612
L94.9158 78.041
L95.7805 84.8858
L96.7977 94.7834
L97.6623 104.692
L97.8149 110.346
L101.985 289.532
L102.494 290.881
L103.104 293.133
L103.867 296.888
L104.732 302.361
L105.749 310.384
L106.919 321.208
L107.021 320.829
L107.682 318.815
L108.241 317.741
L108.343 317.606
L108.445 316.137
L109.92 287.238
L111.446 258.344
L113.022 219.255
L114.548 186.757
L117.905 122.748
L118.617 120.316
L119.278 118.774
L119.736 118.158
L121.262 139.417
L121.516 142.488
L122.737 133.057
L123.398 127.916
L124.008 123.086
L124.669 121.623
L125.229 120.872
L125.687 120.583
L126.093 120.567
L126.5 120.775
L126.958 121.272
L127.518 122.253
L128.179 123.93
L128.942 126.547
L129.806 130.373
L130.01 131.76
L133.621 202.911
L134.536 227.141
L136.571 253.525
L137.588 258.788
L138.707 265.854
L138.91 267.289
L139.47 258.562
L140.08 250.695
L141.403 237.561
L142.318 228.384
L143.539 213.801
L144.302 208.49
L145.166 205.474
L145.929 203.529
L146.082 203.195
L146.997 189.83
L147.302 184.775
L147.353 184.988
L148.269 189.003
L149.184 192.922
L149.693 193.345
L150.252 194.118
L150.913 195.44
L151.117 195.941
L152.338 207.442
L152.694 208.2
L153.507 211.043
L153.558 210.84
L154.067 207.06
L154.626 206.662
L154.83 206.594
L154.881 206.307
L157.932 140.771
L158.797 121.83
L159.814 106.516
L159.967 105.201
L160.018 105.482
L161.136 112.093
L161.696 116.183
L162.052 120.885
L162.713 121.837
L162.917 122.209
L162.967 122.086
L163.832 117.839
L163.883 117.859
L164.493 121.085
L164.544 121.074
L165.307 120.998
L165.663 122.484
L166.172 125.055
L166.731 136.995
L168.054 166.878
L168.867 182.47
L172.021 265.122
L172.377 268.534
L172.784 271.456
L173.343 277.401
L173.75 282.767
L174.564 291.266
L174.971 292.056
L175.021 292.255
L175.021 292.255
L175.021 292.255
L175.276 290.636
L175.683 287.332
L176.293 277.372
L176.598 272.606
L176.954 266.556
L177.463 255.371
L178.175 247.103
L178.378 242.892
L180.006 205.876
L180.514 201.235
L181.328 194.466
L182.549 176.169
L182.803 175.71
L183.057 172.933
L183.719 166.549
L183.871 164.049
L184.38 155.954
L184.787 152.788
L184.838 152.6
L184.888 152.791
L185.346 154.774
L186.465 160.853
L187.025 160.683
L187.33 157.887
L187.889 151.201
L188.601 139.97
L188.906 137.006
L189.313 133.768
L189.517 132.735
L189.822 132.368
L190.28 132.34
L190.381 132.696
L190.737 134.742
L191.806 148.256
L192.67 157.427
L193.077 161.9
L193.789 168.066
L194.349 171.129
L195.111 179.008
L195.925 184.037
L196.434 185.688
L196.536 185.681
L196.586 185.493
L196.637 185.517
L197.298 187.188
L197.553 187.793
L197.604 187.673
L197.807 186.991
L198.112 185.264
L198.468 183.297
L198.773 182.362
L198.824 182.398
L199.282 184.067
L199.333 184.059
L200.503 180.433
L200.554 180.347
L200.604 180.381
L200.757 180.691
L201.215 183.146
L201.622 184.154
L201.876 186.249
L202.079 187.148
L202.69 188.732
L202.791 189.062
L202.842 189.031
L203.198 188.178
L203.249 188.218
L203.503 188.05
L203.554 188.129
L204.165 191.592
L204.47 191.835
L204.673 191.044
L205.284 186.338
L205.385 186.731
L205.64 187.568
L205.996 188.682
L206.352 190.925
L206.809 191.072
L206.962 191.965
L207.369 194.391
L207.928 198.098
L208.691 204.245
L208.895 204.926
L208.946 204.892
L209.149 204.886
L209.403 206.736
L209.759 209.419
L209.963 209.849
L210.065 210.16
L210.573 213.229
L210.827 215.41
L211.489 226.027
L212.658 245.16
L213.167 248.45
L213.32 248.06
L213.625 246.629
L213.981 243.361
L214.693 233.708
L215.557 221.308
L216.27 211.973
L216.778 204.885
L217.694 195.517
L218.202 188.215
L218.507 187.2
L218.711 187.373
L219.169 189.326
L219.423 189.763
L219.677 190.858
L219.881 191.712
L219.931 191.673
L220.033 191.729
L220.135 191.986
L220.186 191.901
L220.338 191.618
L220.491 191.832
L221.152 190.224
L221.661 187.432
L223.797 171.641
L223.949 171.288
L224.051 171.051
L224.306 169.962
L225.526 159.318
L225.933 157.95
L226.442 156.043
L226.798 152.322
L228.018 135.061
L228.527 129.374
L229.036 128.132
L229.188 128.057
L229.239 128.143
L229.442 126.868
L229.951 123.626
L230.205 122.845
L230.256 122.813
L230.307 122.904
L231.172 125.802
L231.426 128.394
L232.85 144.554
L235.698 191.531
L236.41 206.377
L237.275 221.438
L237.631 224.813
L237.885 227.419
L238.343 233.072
L239.004 240.381
L239.665 250.204
L239.971 250.971
L240.225 250.512
L240.581 248.337
L240.988 244.559
L241.395 238.05
L242.208 224.213
L242.768 219.045
L242.971 217.751
L243.378 215.312
L243.785 213.44
L244.141 211.418
L244.446 211.405
L244.548 211.265
L244.599 211.301
L244.701 211.225
L244.955 209.599
L245.311 205.892
L246.074 195.86
L246.379 193.52
L246.633 192.329
L246.989 190.361
L247.396 190.706
L247.447 190.619
L247.701 190.354
L247.854 190.382
L247.956 190.903
L248.464 194.141
L249.126 197.381
L249.939 203.03
L250.448 206.843
L250.906 209.503
L251.16 210.769
L251.313 210.795
L251.516 209.864
L251.821 205.85
L252.533 197.617
L252.838 196.632
L253.042 194.864
L253.296 193.304
L253.449 192.621
L253.754 188.767
L254.008 186.476
L254.822 181.78
L256.348 172.905
L257.212 166.644
L257.772 161.133
L258.026 160.471
L258.179 160.631
L258.586 161.411
L258.687 161.547
L259.145 162.673
L259.196 162.68
L259.45 163.105
L259.603 163.25
L259.755 163.411
L260.01 163.245
L260.213 162.218
L260.823 159.431
L261.332 156.468
L261.688 154.991
L262.095 153.806
L262.197 153.709
L262.502 153.195
L262.909 151.119
L263.061 151.147
L263.316 151.262
L263.468 151.592
L263.672 152.128
L264.028 153.017
L264.384 154.432
L264.943 156.709
L266.011 163.881
L266.316 168.553
L266.927 179.174
L267.283 184.608
L267.639 189.666
L268.809 199.58
L269.063 200.414
L269.165 200.387
L269.317 199.458
L269.673 196.777
L269.877 195.729
L270.182 193.726
L270.334 193.662
L270.436 193.228
L270.741 191.387
L271.046 190.902
L271.199 190.965
L271.352 190.722
L271.759 189.723
L271.911 189.744
L272.165 189.523
L272.623 190.477
L272.725 190.692
L272.776 190.618
L273.234 191.266
L273.539 192.902
L274.2 197.894
L274.607 201.136
L275.471 211.616
L275.726 213.807
L276.285 217.984
L276.692 218.905
L276.845 218.968
L276.997 218.465
L277.252 217.459
L277.608 216.038
L277.76 215.764
L277.862 215.63
L278.065 216.066
L278.472 217.643
L278.523 217.553
L279.032 214.953
L279.489 211.263
L280.761 201.24
L280.964 200.915
L281.27 200.91
L281.524 200.684
L281.88 199.939
L282.236 198.86
L282.388 198.793
L283.304 194.214
L283.558 195.101
L284.016 198.656
L284.372 199.948
L284.626 200.148
L284.779 200.355
L284.83 200.315
L285.033 200.053
L285.491 198.514
L285.644 197.878
L285.949 197.49
L286 197.53
L286.203 197.637
L286.305 197.586
L286.406 197.429
L286.864 195.759
L286.966 195.831
L287.118 195.867
L287.271 195.475
L287.525 194.768
L287.729 194.414
L287.932 194.779
L288.034 194.706
L288.085 194.776
L288.288 194.947
L288.441 194.719
L289.153 195.652
L289.407 197.043
L289.814 198.869
L289.916 198.877
L290.018 198.767
L290.119 198.346
L290.323 197.397
L290.475 197.127
L290.73 196.428
L290.984 194.028
L292.662 171.743
L292.713 171.732
L293.171 172.874
L293.222 172.832
L293.425 172.735
L293.68 172.42
L293.73 172.426
L293.832 171.982
L294.595 167.259
L294.646 167.185
L294.697 167.251
L294.798 167.273
L295.104 166.824
L295.816 161.935
L296.375 158.261
L296.579 157.826
L296.985 155.257
L297.545 150.115
L298.562 146.764
L298.715 146.703
L298.816 146.604
L298.969 147.119
L299.223 147.732
L299.681 148.559
L299.986 148.58
L300.139 148.417
L300.393 148.091
L300.495 147.985
L300.8 148.826
L302.173 157.661
L303.241 169.715
L304.513 178.266
L305.072 182.637
L306.496 200.455
L308.175 223.788
L308.683 228.948
L308.887 229.458
L308.989 229.552
L309.345 230.669
L309.548 231.304
L309.65 231.215
L309.701 231.264
L310.108 231.423
L310.769 232.772
L310.87 232.801
L311.176 234.05
L311.379 234.712
L311.532 234.635
L311.735 233.869
L311.989 233.256
L312.091 232.89
L312.447 229.746
L313.21 222.671
L313.413 221.137
L314.278 213.424
L314.787 208.758
L315.244 204.808
L315.499 203.701
L315.804 202.385
L316.007 202.436
L316.16 201.94
L316.363 200.459
L317.431 191.962
L318.55 186.564
L319.059 185.456
L319.415 186.383
L319.517 186.66
L319.568 186.638
L319.822 185.604
L320.025 184.881
L320.076 184.807
L320.127 184.875
L320.331 184.881
L320.687 184.132
L320.788 184.032
L320.941 183.05
L321.297 180.555
L321.602 179.807
L321.704 179.815
L322.06 180.895
L322.619 183.244
L322.772 183.298
L323.128 182.113
L324.043 175.328
L325.569 164.072
L325.874 164.229
L326.078 163.568
L326.383 162.782
L326.536 162.65
L326.739 162.111
L326.841 162.296
L327.248 163.579
L327.807 165.002
L327.909 165.113
L328.061 165.786
L329.333 173.488
L329.74 175.28
L330.248 177.821
L330.452 177.875
L330.655 177.626
L330.91 176.486
L331.113 176.07
L331.215 176.082
L331.418 175.267
L332.13 171.698
L332.334 171.495
L332.639 172.367
L333.503 175.32
L333.605 175.087
L333.859 174.218
L334.063 174.741
L334.317 175.999
L335.69 187.098
L335.843 187.351
L336.301 189.856
L336.708 192.26
L336.911 193.348
L337.165 194.225
L337.369 194.451
L337.521 194.459
L337.674 194.44
L337.827 194.453
L337.979 194.329
L338.183 194.495
L338.284 194.506
L338.437 194.817
L338.691 194.666
L338.946 194.085
L338.996 194.106
L339.2 194.365
L339.352 194.49
L339.403 194.456
L340.115 191.538
L340.573 188.428
L340.878 186.796
L341.031 186.187
L341.641 182.984
L341.997 181.372
L342.251 181.2
L342.557 181.4
L342.658 181.236
L342.709 181.282
L342.913 181.481
L343.32 181.568
L343.523 182.523
L343.879 184.555
L344.54 188.008
L344.998 190.398
L345.252 191.801
L345.507 191.969
L345.71 192.53
L346.117 193.386
L346.219 193.317
L346.371 193.697
L346.931 197.32
L347.236 198.726
L347.592 200.63
L347.999 202.777
L348.507 203.843
L348.609 203.875
L348.813 204.784
L350.237 215.838
L351 223.054
L351.254 223.464
L351.457 223.278
L351.559 223.35
L351.762 222.897
L352.475 220.753
L352.627 220.095
L352.932 217.817
L354.153 206.659
L354.458 205.163
L355.068 203.162
L355.17 202.917
L355.221 202.979
L355.424 202.984
L355.831 202.695
L355.933 202.754
L356.442 201.66
L356.645 200.514
L357.205 196.903
L357.866 190.326
L359.798 174.267
L360.053 173.099
L360.917 167.403
L361.172 166.747
L361.528 164.915
L361.68 164.268
L362.036 162.494
L362.545 160.172
L363.816 151.067
L364.783 147.782
L365.088 146.559
L365.698 145.461
L365.749 145.523
L366.156 147.995
L366.919 153.036
L367.428 154.923
L368.496 168.536
L368.953 173.585
L369.259 174.618
L370.225 177.933
L370.937 181.77
L371.547 186.832
L372.259 191.757
L372.463 193.649
L373.378 203.803
L374.243 210.665
L374.853 211.552
L375.158 211.717
L375.464 212.155
L375.616 212.374
L376.532 215.083
L376.633 215.043
L377.193 213.163
L377.396 212.823
L377.549 212.749
L377.701 212.452
L378.363 208.653
L378.922 205.174
L379.431 203.554
L381.007 193.642
L381.211 193.675
L381.363 193.824
L381.567 193.666
L381.77 193.754
L381.923 194.038
L382.482 197.192
L382.787 198.718
L383.144 199.499
L383.957 202.254
L384.212 202.337
L384.415 202.159
L384.669 201.875
L385.381 202.082
L385.534 201.918
L385.992 199.138
L386.297 197.946
L386.449 197.764
L386.755 197.845
L386.958 197.609
L387.416 196.582
L389.552 184.838
L389.806 184.743
L390.01 184.58
L390.162 184.504
L390.417 184.906
L390.773 185.633
L390.823 185.695
L390.874 185.628
L391.027 185.418
L391.383 185.678
L391.739 186.145
L391.942 186.106
L392.095 186.106
L392.553 185.299
L393.112 186.331
L393.214 186.134
L393.468 184.881
L393.926 182.665
L394.587 179.071
L394.791 178.308
L394.994 177.739
L395.604 176.202
L396.825 170.708
L397.13 170.783
L397.334 170.726
L397.486 170.865
L397.588 170.964
L398.198 172.056
L398.554 171.938
L398.859 171.309
L399.063 171.404
L399.216 171.559
L400.08 172.978
L400.182 173.099
L400.487 173.854
L401.097 173.676
L401.809 170.962
L402.165 169.792
L402.42 169.596
L402.572 169.351
L402.623 169.411
L402.776 169.94
L403.081 170.777
L403.386 171.564
L403.742 173.225
L404.149 175.67
L404.352 175.974
L404.708 176.85
L404.861 176.809
L405.115 177.14
L405.726 178.047
L405.98 178.482
L406.082 178.628
L406.336 179.515
L406.692 181.621
L406.895 183.15
L408.065 193.442
L408.32 194.18
L408.625 194.57
L408.777 194.614
L409.286 194.58
L409.642 195.569
L409.845 195.915
L409.947 196.117
L410.557 198.029
L410.608 198.003
L410.71 197.968
L411.168 198.575
L411.371 198.674
L411.88 200.072
L412.032 200.37
L412.49 202.271
L414.016 208.656
L414.118 208.873
L414.169 208.793
L414.321 208.494
L414.83 206.722
L415.135 205.825
L415.898 201.096
L416.661 195.909
L417.068 194.853
L417.22 194.728
L417.525 194.873
L417.78 194.662
L418.034 194.208
L418.288 194.258
L418.492 194.328
L418.848 194.271
L419 194.22
L419.102 194.172
L419.255 194.198
L419.407 194.08
L420.221 193.101
L420.323 193.074
L420.577 192.905
L421.34 196.046
L422.357 201.04
L422.764 202.661
L423.68 205.875
L423.934 206.273
L424.137 206.723
L424.493 206.603
L424.798 206.384
L425.104 206.406
L425.409 205.888
L425.867 204.073
L426.324 202.197
L426.629 200.009
L427.036 195.911
L428.308 178.226
L429.02 169.849
L429.427 166.948
L430.19 163.804
L430.953 159.36
L431.614 158.146
L431.715 158.232
L431.868 158.772
L433.292 163.889
L433.546 164.119
L433.75 164.044
L433.903 164.177
L434.309 164.931
L434.36 164.875
L434.665 164.646
L434.818 164.669
L434.971 164.658
L435.377 165.033
L435.632 165.543
L435.784 165.629
L435.988 165.878
L436.14 165.995
L436.547 167.537
L436.954 169.71
L438.836 181.14
L439.09 181.406
L439.395 181.356
L439.548 181.435
L439.701 181.293
L439.853 181.508
L440.158 182.828
L440.718 186.163
L441.074 187.45
L441.786 190.218
L442.295 193.517
L442.752 195.654
L442.905 196.04
L443.21 196.878
L443.566 197.861
L443.617 197.84
L443.82 198.162
L444.024 198.662
L444.482 199.901
L445.194 200.821
L445.346 200.92
L445.651 201.363
L446.007 201.913
L446.363 202.124
L446.465 202.138
L446.669 202.016
L446.974 202.023
L447.635 203.187
L447.787 203.118
L448.093 202.65
L448.194 202.646
L448.449 202.183
L448.652 202.001
L449.059 203.472
L449.669 206.136
L450.331 208.54
L450.534 209.015
L451.093 211.241
L451.348 212.046
L451.755 212.808
L451.856 212.736
L452.263 212.374
L453.026 209.826
L453.942 205.003
L454.247 202.795
L454.857 198.537
L455.213 196.947
L455.467 196.277
L456.129 192.181
L456.942 187.233
L457.095 186.749
L457.451 183.983
L458.163 177.327
L458.57 176.382
L458.773 175.996
L459.282 174.545
L459.485 174.061
L459.689 173.619
L459.892 173.301
L460.197 173.519
L460.401 173.731
L460.604 173.695
L460.859 173.627
L461.571 172.88
L461.622 172.948
L461.774 172.979
L461.978 172.85
L462.13 172.919
L462.283 173.286
L462.537 173.817
L462.639 173.759
L462.741 173.642
L462.791 173.699
L462.995 173.995
L463.147 173.896
L463.249 173.849
L463.707 174.874
L464.114 176.483
L464.419 177.051
L464.673 177.135
L464.877 177.253
L465.029 177.539
L465.538 178.607
L465.69 178.756
L465.894 179.014
L466.148 179.137
L466.403 179.654
L467.267 181.47
L467.42 181.601
L467.572 181.698
L467.827 181.391
L467.928 181.678
L468.386 183.487
L468.844 184.291
L469.098 185.135
L469.454 185.288
L469.708 185.72
L470.319 184.981
L470.471 184.775
L470.624 184.977
L471.183 184.452
L471.641 184.364
L471.946 183.906
L472.404 183.537
L472.455 183.601
L472.658 183.614
L472.862 183.401
L473.269 183.553
L473.421 183.543
L473.726 183.181
L473.828 182.97
L474.388 181.493
L474.896 180.81
L474.998 180.839
L475.252 181.168
L475.405 181.178
L475.507 181.186
L476.066 181.843
L476.371 182.771
L476.88 184.74
L477.439 186.016
L477.592 186.084
L477.744 186.017
L477.897 185.944
L477.999 185.939
L478.456 184.823
L478.711 184.2
L479.118 183.866
L479.474 184.51
L480.338 186.984
L480.542 187.392
L481.406 189.98
L481.559 190.245
L481.864 190.827
L482.017 190.974
L482.322 191.509
L482.576 191.918
L482.932 192.967
L483.695 196.731
L484.305 199.198
L484.712 200.841
L485.374 203.089
L485.679 203.96
L485.984 204.657
L486.442 205.425
L487.408 209.201
L487.967 209.842
L488.425 209.326
L488.578 209.504
L488.73 209.627
L488.832 209.576
L489.29 208.634
L489.392 208.699
L489.595 208.856
L489.951 208.926
L490.409 209.733
L490.46 209.689
L491.121 208.013
L491.731 204.833
L492.697 200.648
L493.41 196.598
L494.274 190.94
L495.088 185.788
L495.495 183.998
L495.698 183.371
L496.309 180.846
L496.868 179.169
L497.377 176.341
L498.14 169.781
L499.106 163.808
L499.564 161.872
L499.92 160.793
L500.327 159.208
L500.835 157.862
L501.242 156.656
L501.395 156.455
L501.751 155.834
L502.31 154.652
L502.412 154.575
L502.666 154.964
L502.92 155.611
L503.124 156.464
L503.938 163.056
L506.277 182.961
L506.989 186.997
L507.345 189.064
L507.803 192.138
L508.261 195.338
L508.515 196.061
L508.668 196.632
L509.278 199.893
L509.634 200.409
L510.956 204.69
L511.109 204.885
L511.211 204.757
L511.414 204.119
L511.821 202.388
L512.279 200.038
L512.584 199.767
L512.737 199.982
L512.94 200.18
L513.245 200.03
L513.601 199.901
L513.754 199.927
L514.008 199.168
L514.568 197.445
L514.771 197.182
L515.076 196.846
L515.483 195.91
L516.043 194.588
L516.399 193.741
L516.5 193.846
L516.755 194.135
L516.805 194.083
L517.009 193.595
L517.263 193.055
L517.823 192.764
L517.975 192.715
L518.077 192.612
L518.128 192.651
L518.382 192.873
L518.636 193.22
L518.789 193.275
L519.552 192.636
L519.603 192.707
L520.01 194.357
L520.874 197.054
L521.129 197.555
L521.586 198.564
L521.637 198.5
L521.841 198.247
L522.451 196.529
L522.756 196.233
L522.858 196.293
L523.061 196.766
L523.367 197.532
L524.231 198.841
L524.689 198.965
L525.299 197.653
L525.401 197.507
L525.554 196.871
L526.418 192.807
L527.028 190.968
L527.385 188.88
L527.69 187.155
L528.249 184.545
L528.707 181.977
L529.215 180.342
L529.47 180.132
L529.775 180.542
L529.826 180.496
L530.08 180.217
L530.436 179.652
L530.487 179.686
L530.894 179.874
L531.453 180.025
L532.115 181.004
L532.165 180.934
L532.42 180.515
L532.572 180.462
L533.03 180.717
L533.132 180.608
L533.183 180.658
L533.284 180.575
L533.437 180.376
L533.59 180.415
L534.2 178.824
L534.861 176.571
L535.064 176.317
L535.268 175.937
L535.42 175.967
L536.031 177.387
L536.285 177.969
L536.539 178.504
L536.946 179.62
L537.201 180.071
L537.353 180.059
L537.913 178.794
L538.269 178.296
L538.472 178.244
L538.726 178.422
L539.082 178.122
L539.235 177.954
L539.337 178.188
L539.845 179.879
L540.557 180.853
L541.168 181.318
L541.575 180.701
L542.134 179.887
L542.592 179.42
L542.694 179.688
L542.948 180.235
L543.1 180.264
L543.609 179.566
L543.863 179.061
L544.423 178.225
L544.474 178.281
L544.982 179.399
L546.305 184.661
L546.61 184.974
L546.966 186.371
L547.373 188.848
L547.424 189.197
L547.424 189.197" style="fill:none;stroke:#0000ff;"/>
   </g>
   <g id="matplotlib.axis_1">
    <g id="xtick_1">
     <g id="line2d_2">
      <defs>
       <path d="
M0 0
L0 -4" id="m7bbecf0c93"/>
      </defs>
      <g>
       <use style="stroke:#000000;stroke-linecap:butt;stroke-width:0.5;" x="161.557078659" xlink:href="#m7bbecf0c93" y="187.922662356"/>
      </g>
     </g>
     <g id="text_1">
      <!-- 5 -->
      <defs>
       <path d="
M10.7969 72.9062
L49.5156 72.9062
L49.5156 64.5938
L19.8281 64.5938
L19.8281 46.7344
Q21.9688 47.4688 24.1094 47.8281
Q26.2656 48.1875 28.4219 48.1875
Q40.625 48.1875 47.75 41.5
Q54.8906 34.8125 54.8906 23.3906
Q54.8906 11.625 47.5625 5.09375
Q40.2344 -1.42188 26.9062 -1.42188
Q22.3125 -1.42188 17.5469 -0.640625
Q12.7969 0.140625 7.71875 1.70312
L7.71875 11.625
Q12.1094 9.23438 16.7969 8.0625
Q21.4844 6.89062 26.7031 6.89062
Q35.1562 6.89062 40.0781 11.3281
Q45.0156 15.7656 45.0156 23.3906
Q45.0156 31 40.0781 35.4375
Q35.1562 39.8906 26.7031 39.8906
Q22.75 39.8906 18.8125 39.0156
Q14.8906 38.1406 10.7969 36.2812
z
" id="BitstreamVeraSans-Roman-35"/>
      </defs>
      <g transform="translate(159.198484909 199.213287356)scale(0.1 -0.1)">
       <use xlink:href="#BitstreamVeraSans-Roman-35"/>
      </g>
     </g>
    </g>
    <g id="xtick_2">
     <g id="line2d_3">
      <defs>
       <path d="
M0 0
L0 -4" id="m7bbecf0c93"/>
      </defs>
      <g>
       <use style="stroke:#000000;stroke-linecap:butt;stroke-width:0.5;" x="284.271122288" xlink:href="#m7bbecf0c93" y="187.922662356"/>
      </g>
     </g>
     <g id="text_2">
      <!-- 10 -->
      <defs>
       <path d="
M31.7812 66.4062
Q24.1719 66.4062 20.3281 58.9062
Q16.5 51.4219 16.5 36.375
Q16.5 21.3906 20.3281 13.8906
Q24.1719 6.39062 31.7812 6.39062
Q39.4531 6.39062 43.2812 13.8906
Q47.125 21.3906 47.125 36.375
Q47.125 51.4219 43.2812 58.9062
Q39.4531 66.4062 31.7812 66.4062
M31.7812 74.2188
Q44.0469 74.2188 50.5156 64.5156
Q56.9844 54.8281 56.9844 36.375
Q56.9844 17.9688 50.5156 8.26562
Q44.0469 -1.42188 31.7812 -1.42188
Q19.5312 -1.42188 13.0625 8.26562
Q6.59375 17.9688 6.59375 36.375
Q6.59375 54.8281 13.0625 64.5156
Q19.5312 74.2188 31.7812 74.2188" id="BitstreamVeraSans-Roman-30"/>
       <path d="
M12.4062 8.29688
L28.5156 8.29688
L28.5156 63.9219
L10.9844 60.4062
L10.9844 69.3906
L28.4219 72.9062
L38.2812 72.9062
L38.2812 8.29688
L54.3906 8.29688
L54.3906 0
L12.4062 0
z
" id="BitstreamVeraSans-Roman-31"/>
      </defs>
      <g transform="translate(278.789872288 199.344537356)scale(0.1 -0.1)">
       <use xlink:href="#BitstreamVeraSans-Roman-31"/>
       <use x="63.623046875" xlink:href="#BitstreamVeraSans-Roman-30"/>
      </g>
     </g>
    </g>
    <g id="xtick_3">
     <g id="line2d_4">
      <defs>
       <path d="
M0 0
L0 -4" id="m7bbecf0c93"/>
      </defs>
      <g>
       <use style="stroke:#000000;stroke-linecap:butt;stroke-width:0.5;" x="406.985165916" xlink:href="#m7bbecf0c93" y="187.922662356"/>
      </g>
     </g>
     <g id="text_3">
      <!-- 15 -->
      <g transform="translate(401.608603416 199.213287356)scale(0.1 -0.1)">
       <use xlink:href="#BitstreamVeraSans-Roman-31"/>
       <use x="63.623046875" xlink:href="#BitstreamVeraSans-Roman-35"/>
      </g>
     </g>
    </g>
    <g id="xtick_4">
     <g id="line2d_5">
      <defs>
       <path d="
M0 0
L0 -4" id="m7bbecf0c93"/>
      </defs>
      <g>
       <use style="stroke:#000000;stroke-linecap:butt;stroke-width:0.5;" x="529.699209545" xlink:href="#m7bbecf0c93" y="187.922662356"/>
      </g>
     </g>
     <g id="text_4">
      <!-- 20 -->
      <defs>
       <path d="
M19.1875 8.29688
L53.6094 8.29688
L53.6094 0
L7.32812 0
L7.32812 8.29688
Q12.9375 14.1094 22.625 23.8906
Q32.3281 33.6875 34.8125 36.5312
Q39.5469 41.8438 41.4219 45.5312
Q43.3125 49.2188 43.3125 52.7812
Q43.3125 58.5938 39.2344 62.25
Q35.1562 65.9219 28.6094 65.9219
Q23.9688 65.9219 18.8125 64.3125
Q13.6719 62.7031 7.8125 59.4219
L7.8125 69.3906
Q13.7656 71.7812 18.9375 73
Q24.125 74.2188 28.4219 74.2188
Q39.75 74.2188 46.4844 68.5469
Q53.2188 62.8906 53.2188 53.4219
Q53.2188 48.9219 51.5312 44.8906
Q49.8594 40.875 45.4062 35.4062
Q44.1875 33.9844 37.6406 27.2188
Q31.1094 20.4531 19.1875 8.29688" id="BitstreamVeraSans-Roman-32"/>
      </defs>
      <g transform="translate(524.035147045 199.344537356)scale(0.1 -0.1)">
       <use xlink:href="#BitstreamVeraSans-Roman-32"/>
       <use x="63.623046875" xlink:href="#BitstreamVeraSans-Roman-30"/>
      </g>
     </g>
    </g>
    <g id="xtick_5">
     <g id="line2d_6">
      <defs>
       <path d="
M0 0
L0 -2" id="me9fc33ec40"/>
      </defs>
      <g>
       <use style="stroke:#000000;stroke-linecap:butt;stroke-width:0.5;" x="63.3858437564" xlink:href="#me9fc33ec40" y="187.922662356"/>
      </g>
     </g>
    </g>
    <g id="xtick_6">
     <g id="line2d_7">
      <defs>
       <path d="
M0 0
L0 -2" id="me9fc33ec40"/>
      </defs>
      <g>
       <use style="stroke:#000000;stroke-linecap:butt;stroke-width:0.5;" x="87.9286524821" xlink:href="#me9fc33ec40" y="187.922662356"/>
      </g>
     </g>
    </g>
    <g id="xtick_7">
     <g id="line2d_8">
      <defs>
       <path d="
M0 0
L0 -2" id="me9fc33ec40"/>
      </defs>
      <g>
       <use style="stroke:#000000;stroke-linecap:butt;stroke-width:0.5;" x="112.471461208" xlink:href="#me9fc33ec40" y="187.922662356"/>
      </g>
     </g>
    </g>
    <g id="xtick_8">
     <g id="line2d_9">
      <defs>
       <path d="
M0 0
L0 -2" id="me9fc33ec40"/>
      </defs>
      <g>
       <use style="stroke:#000000;stroke-linecap:butt;stroke-width:0.5;" x="137.014269933" xlink:href="#me9fc33ec40" y="187.922662356"/>
      </g>
     </g>
    </g>
    <g id="xtick_9">
     <g id="line2d_10">
      <defs>
       <path d="
M0 0
L0 -2" id="me9fc33ec40"/>
      </defs>
      <g>
       <use style="stroke:#000000;stroke-linecap:butt;stroke-width:0.5;" x="186.099887385" xlink:href="#me9fc33ec40" y="187.922662356"/>
      </g>
     </g>
    </g>
    <g id="xtick_10">
     <g id="line2d_11">
      <defs>
       <path d="
M0 0
L0 -2" id="me9fc33ec40"/>
      </defs>
      <g>
       <use style="stroke:#000000;stroke-linecap:butt;stroke-width:0.5;" x="210.642696111" xlink:href="#me9fc33ec40" y="187.922662356"/>
      </g>
     </g>
    </g>
    <g id="xtick_11">
     <g id="line2d_12">
      <defs>
       <path d="
M0 0
L0 -2" id="me9fc33ec40"/>
      </defs>
      <g>
       <use style="stroke:#000000;stroke-linecap:butt;stroke-width:0.5;" x="235.185504836" xlink:href="#me9fc33ec40" y="187.922662356"/>
      </g>
     </g>
    </g>
    <g id="xtick_12">
     <g id="line2d_13">
      <defs>
       <path d="
M0 0
L0 -2" id="me9fc33ec40"/>
      </defs>
      <g>
       <use style="stroke:#000000;stroke-linecap:butt;stroke-width:0.5;" x="259.728313562" xlink:href="#me9fc33ec40" y="187.922662356"/>
      </g>
     </g>
    </g>
    <g id="xtick_13">
     <g id="line2d_14">
      <defs>
       <path d="
M0 0
L0 -2" id="me9fc33ec40"/>
      </defs>
      <g>
       <use style="stroke:#000000;stroke-linecap:butt;stroke-width:0.5;" x="308.813931013" xlink:href="#me9fc33ec40" y="187.922662356"/>
      </g>
     </g>
    </g>
    <g id="xtick_14">
     <g id="line2d_15">
      <defs>
       <path d="
M0 0
L0 -2" id="me9fc33ec40"/>
      </defs>
      <g>
       <use style="stroke:#000000;stroke-linecap:butt;stroke-width:0.5;" x="333.356739739" xlink:href="#me9fc33ec40" y="187.922662356"/>
      </g>
     </g>
    </g>
    <g id="xtick_15">
     <g id="line2d_16">
      <defs>
       <path d="
M0 0
L0 -2" id="me9fc33ec40"/>
      </defs>
      <g>
       <use style="stroke:#000000;stroke-linecap:butt;stroke-width:0.5;" x="357.899548465" xlink:href="#me9fc33ec40" y="187.922662356"/>
      </g>
     </g>
    </g>
    <g id="xtick_16">
     <g id="line2d_17">
      <defs>
       <path d="
M0 0
L0 -2" id="me9fc33ec40"/>
      </defs>
      <g>
       <use style="stroke:#000000;stroke-linecap:butt;stroke-width:0.5;" x="382.44235719" xlink:href="#me9fc33ec40" y="187.922662356"/>
      </g>
     </g>
    </g>
    <g id="xtick_17">
     <g id="line2d_18">
      <defs>
       <path d="
M0 0
L0 -2" id="me9fc33ec40"/>
      </defs>
      <g>
       <use style="stroke:#000000;stroke-linecap:butt;stroke-width:0.5;" x="431.527974642" xlink:href="#me9fc33ec40" y="187.922662356"/>
      </g>
     </g>
    </g>
    <g id="xtick_18">
     <g id="line2d_19">
      <defs>
       <path d="
M0 0
L0 -2" id="me9fc33ec40"/>
      </defs>
      <g>
       <use style="stroke:#000000;stroke-linecap:butt;stroke-width:0.5;" x="456.070783368" xlink:href="#me9fc33ec40" y="187.922662356"/>
      </g>
     </g>
    </g>
    <g id="xtick_19">
     <g id="line2d_20">
      <defs>
       <path d="
M0 0
L0 -2" id="me9fc33ec40"/>
      </defs>
      <g>
       <use style="stroke:#000000;stroke-linecap:butt;stroke-width:0.5;" x="480.613592093" xlink:href="#me9fc33ec40" y="187.922662356"/>
      </g>
     </g>
    </g>
    <g id="xtick_20">
     <g id="line2d_21">
      <defs>
       <path d="
M0 0
L0 -2" id="me9fc33ec40"/>
      </defs>
      <g>
       <use style="stroke:#000000;stroke-linecap:butt;stroke-width:0.5;" x="505.156400819" xlink:href="#me9fc33ec40" y="187.922662356"/>
      </g>
     </g>
    </g>
   </g>
   <g id="matplotlib.axis_2">
    <g id="ytick_1">
     <g id="line2d_22">
      <defs>
       <path d="
M0 0
L4 0" id="mee51bb4358"/>
      </defs>
      <g>
       <use style="stroke:#000000;stroke-linecap:butt;stroke-width:0.5;" x="36.0234375" xlink:href="#mee51bb4358" y="357.31093893"/>
      </g>
     </g>
     <g id="text_5">
      <!-- -0.06 -->
      <defs>
       <path d="
M33.0156 40.375
Q26.375 40.375 22.4844 35.8281
Q18.6094 31.2969 18.6094 23.3906
Q18.6094 15.5312 22.4844 10.9531
Q26.375 6.39062 33.0156 6.39062
Q39.6562 6.39062 43.5312 10.9531
Q47.4062 15.5312 47.4062 23.3906
Q47.4062 31.2969 43.5312 35.8281
Q39.6562 40.375 33.0156 40.375
M52.5938 71.2969
L52.5938 62.3125
Q48.875 64.0625 45.0938 64.9844
Q41.3125 65.9219 37.5938 65.9219
Q27.8281 65.9219 22.6719 59.3281
Q17.5312 52.7344 16.7969 39.4062
Q19.6719 43.6562 24.0156 45.9219
Q28.375 48.1875 33.5938 48.1875
Q44.5781 48.1875 50.9531 41.5156
Q57.3281 34.8594 57.3281 23.3906
Q57.3281 12.1562 50.6875 5.35938
Q44.0469 -1.42188 33.0156 -1.42188
Q20.3594 -1.42188 13.6719 8.26562
Q6.98438 17.9688 6.98438 36.375
Q6.98438 53.6562 15.1875 63.9375
Q23.3906 74.2188 37.2031 74.2188
Q40.9219 74.2188 44.7031 73.4844
Q48.4844 72.75 52.5938 71.2969" id="BitstreamVeraSans-Roman-36"/>
       <path d="
M10.6875 12.4062
L21 12.4062
L21 0
L10.6875 0
z
" id="BitstreamVeraSans-Roman-2e"/>
       <path d="
M4.89062 31.3906
L31.2031 31.3906
L31.2031 23.3906
L4.89062 23.3906
z
" id="BitstreamVeraSans-Roman-2d"/>
      </defs>
      <g transform="translate(7.26875 360.95078268)scale(0.1 -0.1)">
       <use xlink:href="#BitstreamVeraSans-Roman-2d"/>
       <use x="36.083984375" xlink:href="#BitstreamVeraSans-Roman-30"/>
       <use x="99.70703125" xlink:href="#BitstreamVeraSans-Roman-2e"/>
       <use x="131.494140625" xlink:href="#BitstreamVeraSans-Roman-30"/>
       <use x="195.1171875" xlink:href="#BitstreamVeraSans-Roman-36"/>
      </g>
     </g>
    </g>
    <g id="ytick_2">
     <g id="line2d_23">
      <defs>
       <path d="
M0 0
L4 0" id="mee51bb4358"/>
      </defs>
      <g>
       <use style="stroke:#000000;stroke-linecap:butt;stroke-width:0.5;" x="36.0234375" xlink:href="#mee51bb4358" y="300.848180072"/>
      </g>
     </g>
     <g id="text_6">
      <!-- -0.04 -->
      <defs>
       <path d="
M37.7969 64.3125
L12.8906 25.3906
L37.7969 25.3906
z

M35.2031 72.9062
L47.6094 72.9062
L47.6094 25.3906
L58.0156 25.3906
L58.0156 17.1875
L47.6094 17.1875
L47.6094 0
L37.7969 0
L37.7969 17.1875
L4.89062 17.1875
L4.89062 26.7031
z
" id="BitstreamVeraSans-Roman-34"/>
      </defs>
      <g transform="translate(7.2 304.488023822)scale(0.1 -0.1)">
       <use xlink:href="#BitstreamVeraSans-Roman-2d"/>
       <use x="36.083984375" xlink:href="#BitstreamVeraSans-Roman-30"/>
       <use x="99.70703125" xlink:href="#BitstreamVeraSans-Roman-2e"/>
       <use x="131.494140625" xlink:href="#BitstreamVeraSans-Roman-30"/>
       <use x="195.1171875" xlink:href="#BitstreamVeraSans-Roman-34"/>
      </g>
     </g>
    </g>
    <g id="ytick_3">
     <g id="line2d_24">
      <defs>
       <path d="
M0 0
L4 0" id="mee51bb4358"/>
      </defs>
      <g>
       <use style="stroke:#000000;stroke-linecap:butt;stroke-width:0.5;" x="36.0234375" xlink:href="#mee51bb4358" y="244.385421214"/>
      </g>
     </g>
     <g id="text_7">
      <!-- -0.02 -->
      <g transform="translate(7.640625 248.025264964)scale(0.1 -0.1)">
       <use xlink:href="#BitstreamVeraSans-Roman-2d"/>
       <use x="36.083984375" xlink:href="#BitstreamVeraSans-Roman-30"/>
       <use x="99.70703125" xlink:href="#BitstreamVeraSans-Roman-2e"/>
       <use x="131.494140625" xlink:href="#BitstreamVeraSans-Roman-30"/>
       <use x="195.1171875" xlink:href="#BitstreamVeraSans-Roman-32"/>
      </g>
     </g>
    </g>
    <g id="ytick_4">
     <g id="line2d_25">
      <defs>
       <path d="
M0 0
L4 0" id="mee51bb4358"/>
      </defs>
      <g>
       <use style="stroke:#000000;stroke-linecap:butt;stroke-width:0.5;" x="36.0234375" xlink:href="#mee51bb4358" y="187.922662356"/>
      </g>
     </g>
     <g id="text_8">
      <!-- 0 -->
      <g transform="translate(26.984375 191.562506106)scale(0.1 -0.1)">
       <use xlink:href="#BitstreamVeraSans-Roman-30"/>
      </g>
     </g>
    </g>
    <g id="ytick_5">
     <g id="line2d_26">
      <defs>
       <path d="
M0 0
L4 0" id="mee51bb4358"/>
      </defs>
      <g>
       <use style="stroke:#000000;stroke-linecap:butt;stroke-width:0.5;" x="36.0234375" xlink:href="#mee51bb4358" y="131.459903498"/>
      </g>
     </g>
     <g id="text_9">
      <!-- 0.02 -->
      <g transform="translate(11.41875 135.099747248)scale(0.1 -0.1)">
       <use xlink:href="#BitstreamVeraSans-Roman-30"/>
       <use x="63.623046875" xlink:href="#BitstreamVeraSans-Roman-2e"/>
       <use x="95.41015625" xlink:href="#BitstreamVeraSans-Roman-30"/>
       <use x="159.033203125" xlink:href="#BitstreamVeraSans-Roman-32"/>
      </g>
     </g>
    </g>
    <g id="ytick_6">
     <g id="line2d_27">
      <defs>
       <path d="
M0 0
L4 0" id="mee51bb4358"/>
      </defs>
      <g>
       <use style="stroke:#000000;stroke-linecap:butt;stroke-width:0.5;" x="36.0234375" xlink:href="#mee51bb4358" y="74.99714464"/>
      </g>
     </g>
     <g id="text_10">
      <!-- 0.04 -->
      <g transform="translate(10.978125 78.63698839)scale(0.1 -0.1)">
       <use xlink:href="#BitstreamVeraSans-Roman-30"/>
       <use x="63.623046875" xlink:href="#BitstreamVeraSans-Roman-2e"/>
       <use x="95.41015625" xlink:href="#BitstreamVeraSans-Roman-30"/>
       <use x="159.033203125" xlink:href="#BitstreamVeraSans-Roman-34"/>
      </g>
     </g>
    </g>
    <g id="ytick_7">
     <g id="line2d_28">
      <defs>
       <path d="
M0 0
L4 0" id="mee51bb4358"/>
      </defs>
      <g>
       <use style="stroke:#000000;stroke-linecap:butt;stroke-width:0.5;" x="36.0234375" xlink:href="#mee51bb4358" y="18.534385782"/>
      </g>
     </g>
     <g id="text_11">
      <!-- 0.06 -->
      <g transform="translate(11.046875 22.174229532)scale(0.1 -0.1)">
       <use xlink:href="#BitstreamVeraSans-Roman-30"/>
       <use x="63.623046875" xlink:href="#BitstreamVeraSans-Roman-2e"/>
       <use x="95.41015625" xlink:href="#BitstreamVeraSans-Roman-30"/>
       <use x="159.033203125" xlink:href="#BitstreamVeraSans-Roman-36"/>
      </g>
     </g>
    </g>
    <g id="ytick_8">
     <g id="line2d_29">
      <defs>
       <path d="
M0 0
L2 0" id="mf1c7c8a95d"/>
      </defs>
      <g>
       <use style="stroke:#000000;stroke-linecap:butt;stroke-width:0.5;" x="36.0234375" xlink:href="#mf1c7c8a95d" y="399.658008073"/>
      </g>
     </g>
    </g>
    <g id="ytick_9">
     <g id="line2d_30">
      <defs>
       <path d="
M0 0
L2 0" id="mf1c7c8a95d"/>
      </defs>
      <g>
       <use style="stroke:#000000;stroke-linecap:butt;stroke-width:0.5;" x="36.0234375" xlink:href="#mf1c7c8a95d" y="385.542318359"/>
      </g>
     </g>
    </g>
    <g id="ytick_10">
     <g id="line2d_31">
      <defs>
       <path d="
M0 0
L2 0" id="mf1c7c8a95d"/>
      </defs>
      <g>
       <use style="stroke:#000000;stroke-linecap:butt;stroke-width:0.5;" x="36.0234375" xlink:href="#mf1c7c8a95d" y="371.426628644"/>
      </g>
     </g>
    </g>
    <g id="ytick_11">
     <g id="line2d_32">
      <defs>
       <path d="
M0 0
L2 0" id="mf1c7c8a95d"/>
      </defs>
      <g>
       <use style="stroke:#000000;stroke-linecap:butt;stroke-width:0.5;" x="36.0234375" xlink:href="#mf1c7c8a95d" y="343.195249215"/>
      </g>
     </g>
    </g>
    <g id="ytick_12">
     <g id="line2d_33">
      <defs>
       <path d="
M0 0
L2 0" id="mf1c7c8a95d"/>
      </defs>
      <g>
       <use style="stroke:#000000;stroke-linecap:butt;stroke-width:0.5;" x="36.0234375" xlink:href="#mf1c7c8a95d" y="329.079559501"/>
      </g>
     </g>
    </g>
    <g id="ytick_13">
     <g id="line2d_34">
      <defs>
       <path d="
M0 0
L2 0" id="mf1c7c8a95d"/>
      </defs>
      <g>
       <use style="stroke:#000000;stroke-linecap:butt;stroke-width:0.5;" x="36.0234375" xlink:href="#mf1c7c8a95d" y="314.963869786"/>
      </g>
     </g>
    </g>
    <g id="ytick_14">
     <g id="line2d_35">
      <defs>
       <path d="
M0 0
L2 0" id="mf1c7c8a95d"/>
      </defs>
      <g>
       <use style="stroke:#000000;stroke-linecap:butt;stroke-width:0.5;" x="36.0234375" xlink:href="#mf1c7c8a95d" y="286.732490357"/>
      </g>
     </g>
    </g>
    <g id="ytick_15">
     <g id="line2d_36">
      <defs>
       <path d="
M0 0
L2 0" id="mf1c7c8a95d"/>
      </defs>
      <g>
       <use style="stroke:#000000;stroke-linecap:butt;stroke-width:0.5;" x="36.0234375" xlink:href="#mf1c7c8a95d" y="272.616800643"/>
      </g>
     </g>
    </g>
    <g id="ytick_16">
     <g id="line2d_37">
      <defs>
       <path d="
M0 0
L2 0" id="mf1c7c8a95d"/>
      </defs>
      <g>
       <use style="stroke:#000000;stroke-linecap:butt;stroke-width:0.5;" x="36.0234375" xlink:href="#mf1c7c8a95d" y="258.501110928"/>
      </g>
     </g>
    </g>
    <g id="ytick_17">
     <g id="line2d_38">
      <defs>
       <path d="
M0 0
L2 0" id="mf1c7c8a95d"/>
      </defs>
      <g>
       <use style="stroke:#000000;stroke-linecap:butt;stroke-width:0.5;" x="36.0234375" xlink:href="#mf1c7c8a95d" y="230.269731499"/>
      </g>
     </g>
    </g>
    <g id="ytick_18">
     <g id="line2d_39">
      <defs>
       <path d="
M0 0
L2 0" id="mf1c7c8a95d"/>
      </defs>
      <g>
       <use style="stroke:#000000;stroke-linecap:butt;stroke-width:0.5;" x="36.0234375" xlink:href="#mf1c7c8a95d" y="216.154041785"/>
      </g>
     </g>
    </g>
    <g id="ytick_19">
     <g id="line2d_40">
      <defs>
       <path d="
M0 0
L2 0" id="mf1c7c8a95d"/>
      </defs>
      <g>
       <use style="stroke:#000000;stroke-linecap:butt;stroke-width:0.5;" x="36.0234375" xlink:href="#mf1c7c8a95d" y="202.03835207"/>
      </g>
     </g>
    </g>
    <g id="ytick_20">
     <g id="line2d_41">
      <defs>
       <path d="
M0 0
L2 0" id="mf1c7c8a95d"/>
      </defs>
      <g>
       <use style="stroke:#000000;stroke-linecap:butt;stroke-width:0.5;" x="36.0234375" xlink:href="#mf1c7c8a95d" y="173.806972641"/>
      </g>
     </g>
    </g>
    <g id="ytick_21">
     <g id="line2d_42">
      <defs>
       <path d="
M0 0
L2 0" id="mf1c7c8a95d"/>
      </defs>
      <g>
       <use style="stroke:#000000;stroke-linecap:butt;stroke-width:0.5;" x="36.0234375" xlink:href="#mf1c7c8a95d" y="159.691282927"/>
      </g>
     </g>
    </g>
    <g id="ytick_22">
     <g id="line2d_43">
      <defs>
       <path d="
M0 0
L2 0" id="mf1c7c8a95d"/>
      </defs>
      <g>
       <use style="stroke:#000000;stroke-linecap:butt;stroke-width:0.5;" x="36.0234375" xlink:href="#mf1c7c8a95d" y="145.575593212"/>
      </g>
     </g>
    </g>
    <g id="ytick_23">
     <g id="line2d_44">
      <defs>
       <path d="
M0 0
L2 0" id="mf1c7c8a95d"/>
      </defs>
      <g>
       <use style="stroke:#000000;stroke-linecap:butt;stroke-width:0.5;" x="36.0234375" xlink:href="#mf1c7c8a95d" y="117.344213783"/>
      </g>
     </g>
    </g>
    <g id="ytick_24">
     <g id="line2d_45">
      <defs>
       <path d="
M0 0
L2 0" id="mf1c7c8a95d"/>
      </defs>
      <g>
       <use style="stroke:#000000;stroke-linecap:butt;stroke-width:0.5;" x="36.0234375" xlink:href="#mf1c7c8a95d" y="103.228524069"/>
      </g>
     </g>
    </g>
    <g id="ytick_25">
     <g id="line2d_46">
      <defs>
       <path d="
M0 0
L2 0" id="mf1c7c8a95d"/>
      </defs>
      <g>
       <use style="stroke:#000000;stroke-linecap:butt;stroke-width:0.5;" x="36.0234375" xlink:href="#mf1c7c8a95d" y="89.1128343545"/>
      </g>
     </g>
    </g>
    <g id="ytick_26">
     <g id="line2d_47">
      <defs>
       <path d="
M0 0
L2 0" id="mf1c7c8a95d"/>
      </defs>
      <g>
       <use style="stroke:#000000;stroke-linecap:butt;stroke-width:0.5;" x="36.0234375" xlink:href="#mf1c7c8a95d" y="60.8814549255"/>
      </g>
     </g>
    </g>
    <g id="ytick_27">
     <g id="line2d_48">
      <defs>
       <path d="
M0 0
L2 0" id="mf1c7c8a95d"/>
      </defs>
      <g>
       <use style="stroke:#000000;stroke-linecap:butt;stroke-width:0.5;" x="36.0234375" xlink:href="#mf1c7c8a95d" y="46.765765211"/>
      </g>
     </g>
    </g>
    <g id="ytick_28">
     <g id="line2d_49">
      <defs>
       <path d="
M0 0
L2 0" id="mf1c7c8a95d"/>
      </defs>
      <g>
       <use style="stroke:#000000;stroke-linecap:butt;stroke-width:0.5;" x="36.0234375" xlink:href="#mf1c7c8a95d" y="32.6500754965"/>
      </g>
     </g>
    </g>
   </g>
   <g id="patch_3">
    <path d="
M46.0234 187.923
L557.255 187.923" style="fill:none;stroke:#000000;stroke-width:0.8;"/>
   </g>
   <g id="patch_4">
    <path d="
M36.0234 413.28
L36.0234 7.2" style="fill:none;stroke:#000000;stroke-width:0.8;"/>
   </g>
  </g>
 </g>
 <defs>
  <clipPath id="p29dd9b8f0a">
   <rect height="406.08" width="511.2315625" x="46.0234375" y="7.2"/>
  </clipPath>
 </defs>
</svg>
