<?xml version="1.0" encoding="utf-8" standalone="no"?>
<!DOCTYPE svg PUBLIC "-//W3C//DTD SVG 1.1//EN"
  "http://www.w3.org/Graphics/SVG/1.1/DTD/svg11.dtd">
<!-- Created with matplotlib (http://matplotlib.sourceforge.net/) -->
<svg height="420pt" version="1.1" viewBox="0 0 564 420" width="564pt" xmlns="http://www.w3.org/2000/svg" xmlns:xlink="http://www.w3.org/1999/xlink">
 <defs>
  <style type="text/css">
*{stroke-linecap:square;stroke-linejoin:round;}
  </style>
 </defs>
 <g id="figure_1">
  <g id="patch_1">
   <path d="
M-4.44089e-16 420.48
L564.466 420.48
L564.466 0
L-4.44089e-16 0
z
" style="fill:#ffffff;"/>
  </g>
  <g id="axes_1">
   <g id="patch_2">
    <path d="
M39.2984 413.28
L557.266 413.28
L557.266 7.2
L39.2984 7.2
z
" style="fill:#ffffff;"/>
   </g>
   <g id="line2d_1">
    <path clip-path="url(#pbda54c63f9)" d="
M49.2594 104.13
L50.29 68.5233
L51.1145 47.5975
L51.8874 33.2615
L52.5573 24.4786
L53.1757 19.0576
L53.691 16.3328
L54.1033 15.2359
L54.3609 15.0132
L54.567 15.0775
L54.8247 15.4555
L55.1854 16.5117
L55.6492 18.7336
L56.216 22.6828
L56.8859 28.9682
L57.7104 38.9
L58.6895 53.5164
L59.3594 64.5873
L59.4109 63.9269
L60.1839 55.8091
L60.8538 50.9242
L61.4206 48.2344
L61.8844 46.9581
L62.2451 46.5129
L62.5028 46.4769
L62.7604 46.6687
L63.0696 47.1909
L63.4819 48.3665
L63.9972 50.5748
L64.6155 54.2525
L65.3885 60.3301
L66.2645 69.0653
L67.2951 81.6493
L68.4804 98.9233
L69.8717 122.633
L71.4691 153.906
L72.0875 165.981
L72.139 165.843
L72.6544 164.777
L73.0666 164.41
L73.3758 164.408
L73.685 164.634
L74.0457 165.181
L74.5095 166.316
L75.0763 168.344
L75.7462 171.612
L76.5707 176.864
L77.4983 184.307
L78.5804 194.911
L79.8171 209.382
L80.4355 217.066
L80.487 216.858
L81.1054 214.863
L81.6207 213.812
L82.0845 213.325
L82.4452 213.239
L82.8059 213.403
L83.2182 213.89
L83.682 214.808
L83.785 215.34
L84.8672 224.58
L86.0524 236.676
L86.8253 246.46
L88.732 281.2
L90.8447 323.987
L91.7723 342.021
L92.6999 347.565
L93.782 355.5
L94.9672 365.909
L95.9463 374.447
L96.4616 375.273
L97.08 376.758
L97.8014 379.152
L98.6259 382.731
L99.5535 387.792
L100.636 395.023
L101.202 398.456
L102.078 402.563
L102.491 404.704
L102.542 404.622
L103.058 404.048
L103.521 403.839
L103.934 403.892
L104.346 404.165
L104.861 404.812
L105.222 405.471
L105.428 403.783
L106.613 394.158
L107.695 387.158
L108.674 382.232
L109.55 378.914
L110.014 377.379
L111.251 365.314
L112.179 358.106
L113.003 355.316
L113.724 353.56
L114.343 352.55
L114.91 352.017
L115.373 351.854
L115.786 351.717
L116.816 346.199
L118.826 337.293
L119.599 335.487
L120.269 334.458
L120.836 333.968
L121.299 333.821
L121.763 333.9
L122.227 334.2
L122.794 334.863
L123.412 335.95
L124.134 337.69
L124.958 340.283
L125.577 342.492
L125.628 342.408
L126.246 341.63
L126.813 341.254
L127.277 341.184
L127.792 341.171
L128.823 336.274
L129.699 333.52
L130.472 331.733
L130.781 331.016
L131.966 323.644
L133.049 318.192
L133.512 315.669
L135.677 295.674
L136.862 284.877
L138.82 258.796
L140.675 224.108
L143.406 186.818
L143.922 181.489
L145.313 170.782
L146.034 166.438
L146.91 163.024
L147.735 161.273
L148.199 160.535
L148.25 160.575
L148.714 161.699
L151.497 174.553
L152.785 184.101
L154.176 194.971
L155.825 208.516
L156.856 218.676
L158.556 241.53
L159.845 258.437
L161.803 282.881
L163.194 303.538
L163.761 309.085
L166.853 332.236
L167.213 334.81
L167.78 338.443
L168.502 343.312
L168.966 344.827
L169.687 347.83
L170.46 351.165
L171.594 355.918
L174.943 372.868
L175.252 372.931
L176.025 371.855
L176.901 371.001
L177.262 371.015
L177.571 371.341
L177.623 371.42
L177.674 371.361
L177.932 370.993
L179.117 366.76
L179.684 366.165
L179.942 366.241
L180.869 364.851
L181.178 364.559
L181.642 363.629
L183.033 357.968
L184.94 348.163
L185.971 341.814
L186.434 338.949
L187.723 332.613
L188.805 329.968
L189.32 329.477
L189.578 329.369
L189.99 328.541
L190.454 326.839
L190.918 324.646
L191.484 322.467
L192.154 321.227
L192.361 320.89
L192.412 320.919
L192.876 321.084
L193.288 320.941
L193.546 321.222
L194.319 322.608
L194.37 322.549
L194.937 322.024
L195.195 322.104
L195.658 322.21
L195.916 322.147
L196.483 321.424
L196.947 321.52
L197.101 321.241
L197.411 320.262
L198.287 317.178
L198.647 316.275
L199.111 314.486
L200.605 306.305
L201.224 301.263
L201.894 294.952
L203.285 281.775
L204.367 273.007
L206.377 257.005
L206.738 256.413
L206.892 256.472
L207.356 257.029
L208.799 260.185
L209.108 260.167
L209.417 260.638
L209.933 262.141
L210.551 264.322
L210.912 264.837
L211.478 265.362
L212.045 266.333
L212.354 266.739
L212.715 267.18
L213.127 267.414
L213.746 267.708
L213.952 267.726
L214.673 268.229
L214.88 267.845
L215.498 266.219
L216.838 262.117
L217.147 261.717
L217.405 261.772
L217.611 262.088
L217.92 263.14
L218.847 265.957
L219.414 267.027
L219.775 267.11
L220.239 266.6
L220.599 265.861
L221.579 263.235
L222.3 260.777
L223.279 256.178
L224 253.999
L224.516 253.617
L224.722 253.567
L225.289 253.308
L225.495 253.519
L226.01 254.976
L226.732 257.034
L227.092 257.852
L227.865 261.075
L228.381 263.16
L228.844 264.703
L229.308 266.609
L230.184 270.911
L232.4 278.787
L233.224 280.988
L233.946 282.522
L234.255 282.72
L234.41 282.674
L234.719 282.606
L235.595 282.715
L235.801 283.072
L236.007 283.329
L236.471 283.754
L237.862 286.31
L238.532 286.768
L238.893 287.678
L239.46 289.201
L239.666 289.353
L241.109 289.378
L241.315 289.795
L242.655 293.559
L243.221 294.175
L243.479 294.426
L243.788 295.409
L244.149 296.353
L244.974 298.313
L246.004 301.514
L246.313 302.238
L246.726 302.461
L247.189 302.454
L247.55 302.681
L247.808 302.875
L248.065 302.914
L248.529 302.805
L248.838 303.111
L249.044 303.221
L249.251 303.285
L249.508 303.49
L249.663 303.393
L250.075 302.857
L250.642 301.593
L251.157 300.529
L251.673 299.891
L252.136 300.025
L252.342 300.115
L253.27 301.417
L253.631 302.276
L254.764 306.053
L256.001 313.414
L257.65 325.339
L258.165 328.945
L258.938 332.74
L259.608 334.956
L259.866 335.27
L260.124 335.333
L260.484 335.789
L260.845 336.722
L262.597 343.319
L262.906 343.761
L263.37 345.058
L263.731 346.025
L264.607 346.64
L265.277 346.818
L266.05 348.301
L267.08 350.438
L267.699 351.614
L268.008 351.664
L268.265 351.628
L268.42 351.619
L268.884 351.029
L269.708 348.758
L270.275 347.245
L270.894 345.801
L271.924 342.514
L272.079 342.264
L272.852 340.206
L273.212 338.071
L274.758 326.653
L275.428 319.367
L277.18 301.884
L277.953 296.526
L278.623 293.082
L279.138 290.421
L280.015 286.072
L280.478 284.657
L281.56 282.439
L282.076 281.523
L282.849 279.813
L283.158 279.673
L283.467 279.328
L283.725 279.193
L283.982 279.309
L284.704 280.021
L285.065 280.197
L285.528 279.195
L286.147 276.178
L286.817 272.71
L287.847 268.36
L288.156 267.758
L288.414 267.513
L288.723 267.172
L289.29 266.499
L289.702 265.425
L292.073 258.24
L294.701 254.429
L295.165 253.342
L295.577 252.748
L296.195 251.853
L296.556 251.653
L296.762 251.481
L298.72 248.338
L299.132 247.787
L300.008 245.805
L300.266 245.526
L300.472 245.382
L300.988 245.643
L301.812 246.737
L303.77 251.34
L304.028 251.428
L304.286 251.434
L304.44 251.778
L305.419 255.459
L306.244 260.456
L307.377 267.342
L308.305 271.868
L308.82 274.322
L309.49 279.227
L310.418 286.22
L311.191 291.962
L312.015 298.424
L313.046 303.729
L314.849 309.419
L315.262 310.35
L315.622 311.122
L315.88 311.555
L316.138 311.903
L316.447 312.183
L316.911 313.214
L317.22 313.631
L317.477 313.589
L317.89 313.41
L319.075 314.087
L319.693 314.067
L320.518 314.832
L320.827 315.072
L321.445 315.592
L321.703 315.452
L322.064 315.125
L322.888 314.152
L323.197 314.571
L324.743 318.367
L325.465 320.9
L326.083 322.652
L327.474 324.39
L327.681 324.369
L327.99 324.06
L328.608 322.887
L330.051 318.134
L330.515 317.391
L330.721 317.355
L331.185 317.525
L331.494 317.601
L331.906 317.404
L332.215 317.434
L332.885 317.943
L333.143 318.174
L334.276 320.192
L334.689 320.834
L334.895 320.904
L335.462 320.944
L335.668 320.838
L335.977 320.234
L336.492 318.552
L337.471 314.891
L338.09 313.393
L339.43 311.387
L339.636 311.414
L340.048 311.768
L340.512 312.743
L341.13 314.113
L341.336 314.162
L342.058 313.591
L342.367 313.541
L342.831 313.182
L343.346 312.972
L344.273 311.706
L344.686 311.517
L344.995 311.282
L345.562 310.235
L346.077 309.015
L346.541 307.841
L347.778 305.029
L348.241 304.261
L349.581 300.851
L349.89 300.489
L350.354 300.455
L350.715 300.055
L351.488 299.987
L351.694 299.82
L351.952 299.872
L352.467 299.959
L352.828 300.164
L353.446 300.598
L353.755 300.622
L354.013 300.345
L354.58 299.351
L357.208 293.078
L357.517 292.603
L357.775 292.376
L358.496 291.382
L359.114 291.251
L359.784 291.256
L360.3 290.839
L360.609 290.489
L360.918 290.338
L361.33 290.311
L361.588 290.174
L362.103 290.346
L362.773 289.594
L364.113 287.607
L364.577 287.716
L364.834 287.467
L365.298 286.878
L365.659 286.502
L366.638 284.889
L367.462 284.225
L369.06 281.237
L369.369 280.771
L369.627 280.517
L370.09 279.382
L371.533 274.735
L371.997 273.638
L372.306 273.142
L373.079 271.799
L373.44 271.663
L373.749 271.904
L374.316 272.496
L374.625 272.942
L374.986 273.389
L375.398 274.04
L375.862 274.551
L376.274 274.611
L376.635 274.484
L377.356 273.334
L377.975 271.605
L378.593 269.541
L379.005 268.831
L379.418 268.446
L379.675 268.349
L380.551 268.734
L380.86 269.18
L381.479 270.423
L381.943 271.141
L382.252 271.557
L382.664 272.646
L383.076 273.428
L383.437 273.686
L384.004 274.086
L384.571 274.951
L385.137 275.966
L386.013 276.761
L387.096 278.256
L387.662 278.436
L388.075 278.719
L388.332 278.827
L388.899 279.364
L389.672 280.634
L390.342 282.161
L390.703 282.617
L392.867 287.456
L393.331 288.58
L393.692 289.505
L394.774 292.877
L395.237 294.652
L396.68 297.54
L397.093 298.088
L398.845 301.241
L400.288 305.245
L400.906 305.766
L401.782 306.221
L402.606 307.777
L402.864 307.861
L403.173 307.718
L403.431 307.523
L403.689 307.477
L403.895 307.453
L404.307 307.388
L404.565 307.472
L404.771 307.518
L405.08 307.785
L405.441 308.077
L405.75 307.991
L406.059 307.771
L406.265 308.003
L407.141 310.04
L408.326 314.057
L409.615 318.737
L410.491 321.171
L410.903 322.747
L411.727 325.762
L412.243 327.17
L412.552 328.132
L413.119 330.485
L413.995 334.683
L415.18 337.467
L415.953 338.179
L416.211 338.262
L416.984 338.723
L417.241 338.352
L418.632 334.985
L419.148 333.004
L421.621 322.435
L422.24 319.697
L422.91 317.405
L423.734 314.044
L425.022 309.779
L425.589 308.325
L426.208 307.098
L427.135 304.292
L428.887 297.087
L429.505 295.237
L430.175 293.958
L430.382 293.531
L433.113 285.873
L433.783 284.122
L434.762 281.854
L435.741 278.6
L436.874 273.703
L437.235 272.427
L438.884 268.488
L439.296 267.295
L440.43 265.242
L440.997 264.93
L441.306 264.944
L441.615 264.74
L442.337 264.745
L442.955 265.106
L444.501 264.214
L444.759 264.592
L445.222 265.814
L445.995 267.817
L446.82 270.286
L447.335 270.788
L447.696 271.29
L450.53 276.86
L451.097 278.437
L452.54 282.812
L453.777 287.571
L454.859 290.14
L455.219 290.943
L455.58 291.379
L455.786 291.472
L455.992 291.446
L456.353 291.522
L456.817 291.852
L457.229 292.172
L457.538 292.159
L457.796 292.227
L458.105 292.381
L458.517 292.699
L459.393 293.158
L460.733 294.834
L461.3 294.861
L461.558 294.797
L462.125 294.424
L463.567 292.594
L464.804 289.308
L466.35 287.852
L466.711 287.926
L467.02 287.885
L467.381 287.471
L467.69 287.231
L468.051 287.306
L468.772 287.715
L469.133 288.403
L469.957 290.484
L471.142 293.902
L472.122 297.417
L474.389 302.987
L475.265 304.506
L476.089 306.343
L477.223 308.314
L477.738 308.48
L478.048 308.869
L478.717 309.715
L479.284 309.927
L479.697 310.018
L480.727 310.47
L481.809 309.22
L482.273 308.707
L482.531 308.706
L484.128 308.854
L484.437 308.501
L485.004 307.937
L485.88 307.445
L486.138 307.634
L486.756 308.326
L487.22 308.024
L487.581 307.569
L487.941 307.21
L488.56 307.273
L489.075 307.923
L489.642 308.862
L490.724 310.281
L490.982 310.599
L491.343 311.033
L492.682 312.457
L493.146 313.01
L493.352 313.069
L493.919 312.757
L494.486 312.712
L495.001 312.65
L495.517 312.665
L495.929 312.972
L496.341 313.013
L496.856 313.415
L497.269 313.559
L498.505 312.65
L498.814 312.634
L499.536 311.99
L499.794 311.544
L500.463 310.064
L501.288 308.722
L502.009 306.867
L503.968 302.398
L504.38 301.477
L504.637 300.907
L506.286 296.003
L506.596 295.539
L506.905 295.196
L507.266 294.587
L508.966 291.501
L509.481 290.987
L509.842 290.814
L510.357 290.355
L510.718 290.127
L511.955 289.712
L512.934 290.134
L513.243 290.271
L514.171 290.76
L514.995 290.953
L515.304 290.748
L515.82 290.314
L516.696 289.84
L517.056 289.59
L517.726 289.137
L518.448 288.196
L519.427 287.552
L519.788 287.57
L520.509 287.934
L521.127 287.904
L521.437 287.692
L521.9 287.324
L522.57 287.17
L522.931 287.471
L523.807 288.467
L524.065 288.693
L524.528 288.724
L524.786 288.294
L525.92 285.892
L526.28 285.428
L526.744 284.493
L527.466 282.269
L528.702 277.997
L529.527 275.968
L530.712 272.36
L531.33 271.506
L531.897 270.919
L532.619 270.088
L533.443 268.993
L533.855 268.419
L534.577 267.4
L535.041 267.34
L535.608 267.469
L536.174 267.623
L536.38 267.803
L538.648 270.605
L539.524 272.367
L540.245 274.12
L540.864 275.305
L542.307 280.154
L543.183 282.859
L544.11 285.373
L544.677 287.535
L545.553 290.575
L547.305 296.747
L547.305 296.747" style="fill:none;stroke:#0000ff;"/>
   </g>
   <g id="matplotlib.axis_1">
    <g id="xtick_1">
     <g id="line2d_2">
      <defs>
       <path d="
M0 0
L0 -4" id="m0203134556"/>
      </defs>
      <g>
       <use style="stroke:#000000;stroke-linecap:butt;stroke-width:0.5;" x="156.354338713" xlink:href="#m0203134556" y="295.69931654"/>
      </g>
     </g>
     <g id="text_1">
      <!-- 5 -->
      <defs>
       <path d="
M10.7969 72.9062
L49.5156 72.9062
L49.5156 64.5938
L19.8281 64.5938
L19.8281 46.7344
Q21.9688 47.4688 24.1094 47.8281
Q26.2656 48.1875 28.4219 48.1875
Q40.625 48.1875 47.75 41.5
Q54.8906 34.8125 54.8906 23.3906
Q54.8906 11.625 47.5625 5.09375
Q40.2344 -1.42188 26.9062 -1.42188
Q22.3125 -1.42188 17.5469 -0.640625
Q12.7969 0.140625 7.71875 1.70312
L7.71875 11.625
Q12.1094 9.23438 16.7969 8.0625
Q21.4844 6.89062 26.7031 6.89062
Q35.1562 6.89062 40.0781 11.3281
Q45.0156 15.7656 45.0156 23.3906
Q45.0156 31 40.0781 35.4375
Q35.1562 39.8906 26.7031 39.8906
Q22.75 39.8906 18.8125 39.0156
Q14.8906 38.1406 10.7969 36.2812
z
" id="BitstreamVeraSans-Roman-35"/>
      </defs>
      <g transform="translate(153.995744963 306.98994154)scale(0.1 -0.1)">
       <use xlink:href="#BitstreamVeraSans-Roman-35"/>
      </g>
     </g>
    </g>
    <g id="xtick_2">
     <g id="line2d_3">
      <defs>
       <path d="
M0 0
L0 -4" id="m0203134556"/>
      </defs>
      <g>
       <use style="stroke:#000000;stroke-linecap:butt;stroke-width:0.5;" x="280.685250683" xlink:href="#m0203134556" y="295.69931654"/>
      </g>
     </g>
     <g id="text_2">
      <!-- 10 -->
      <defs>
       <path d="
M31.7812 66.4062
Q24.1719 66.4062 20.3281 58.9062
Q16.5 51.4219 16.5 36.375
Q16.5 21.3906 20.3281 13.8906
Q24.1719 6.39062 31.7812 6.39062
Q39.4531 6.39062 43.2812 13.8906
Q47.125 21.3906 47.125 36.375
Q47.125 51.4219 43.2812 58.9062
Q39.4531 66.4062 31.7812 66.4062
M31.7812 74.2188
Q44.0469 74.2188 50.5156 64.5156
Q56.9844 54.8281 56.9844 36.375
Q56.9844 17.9688 50.5156 8.26562
Q44.0469 -1.42188 31.7812 -1.42188
Q19.5312 -1.42188 13.0625 8.26562
Q6.59375 17.9688 6.59375 36.375
Q6.59375 54.8281 13.0625 64.5156
Q19.5312 74.2188 31.7812 74.2188" id="BitstreamVeraSans-Roman-30"/>
       <path d="
M12.4062 8.29688
L28.5156 8.29688
L28.5156 63.9219
L10.9844 60.4062
L10.9844 69.3906
L28.4219 72.9062
L38.2812 72.9062
L38.2812 8.29688
L54.3906 8.29688
L54.3906 0
L12.4062 0
z
" id="BitstreamVeraSans-Roman-31"/>
      </defs>
      <g transform="translate(275.204000683 307.12119154)scale(0.1 -0.1)">
       <use xlink:href="#BitstreamVeraSans-Roman-31"/>
       <use x="63.623046875" xlink:href="#BitstreamVeraSans-Roman-30"/>
      </g>
     </g>
    </g>
    <g id="xtick_3">
     <g id="line2d_4">
      <defs>
       <path d="
M0 0
L0 -4" id="m0203134556"/>
      </defs>
      <g>
       <use style="stroke:#000000;stroke-linecap:butt;stroke-width:0.5;" x="405.016162652" xlink:href="#m0203134556" y="295.69931654"/>
      </g>
     </g>
     <g id="text_3">
      <!-- 15 -->
      <g transform="translate(399.639600152 306.98994154)scale(0.1 -0.1)">
       <use xlink:href="#BitstreamVeraSans-Roman-31"/>
       <use x="63.623046875" xlink:href="#BitstreamVeraSans-Roman-35"/>
      </g>
     </g>
    </g>
    <g id="xtick_4">
     <g id="line2d_5">
      <defs>
       <path d="
M0 0
L0 -4" id="m0203134556"/>
      </defs>
      <g>
       <use style="stroke:#000000;stroke-linecap:butt;stroke-width:0.5;" x="529.347074621" xlink:href="#m0203134556" y="295.69931654"/>
      </g>
     </g>
     <g id="text_4">
      <!-- 20 -->
      <defs>
       <path d="
M19.1875 8.29688
L53.6094 8.29688
L53.6094 0
L7.32812 0
L7.32812 8.29688
Q12.9375 14.1094 22.625 23.8906
Q32.3281 33.6875 34.8125 36.5312
Q39.5469 41.8438 41.4219 45.5312
Q43.3125 49.2188 43.3125 52.7812
Q43.3125 58.5938 39.2344 62.25
Q35.1562 65.9219 28.6094 65.9219
Q23.9688 65.9219 18.8125 64.3125
Q13.6719 62.7031 7.8125 59.4219
L7.8125 69.3906
Q13.7656 71.7812 18.9375 73
Q24.125 74.2188 28.4219 74.2188
Q39.75 74.2188 46.4844 68.5469
Q53.2188 62.8906 53.2188 53.4219
Q53.2188 48.9219 51.5312 44.8906
Q49.8594 40.875 45.4062 35.4062
Q44.1875 33.9844 37.6406 27.2188
Q31.1094 20.4531 19.1875 8.29688" id="BitstreamVeraSans-Roman-32"/>
      </defs>
      <g transform="translate(523.683012121 307.12119154)scale(0.1 -0.1)">
       <use xlink:href="#BitstreamVeraSans-Roman-32"/>
       <use x="63.623046875" xlink:href="#BitstreamVeraSans-Roman-30"/>
      </g>
     </g>
    </g>
    <g id="xtick_5">
     <g id="line2d_6">
      <defs>
       <path d="
M0 0
L0 -2" id="m787e54c0c0"/>
      </defs>
      <g>
       <use style="stroke:#000000;stroke-linecap:butt;stroke-width:0.5;" x="56.8896091378" xlink:href="#m787e54c0c0" y="295.69931654"/>
      </g>
     </g>
    </g>
    <g id="xtick_6">
     <g id="line2d_7">
      <defs>
       <path d="
M0 0
L0 -2" id="m787e54c0c0"/>
      </defs>
      <g>
       <use style="stroke:#000000;stroke-linecap:butt;stroke-width:0.5;" x="81.7557915317" xlink:href="#m787e54c0c0" y="295.69931654"/>
      </g>
     </g>
    </g>
    <g id="xtick_7">
     <g id="line2d_8">
      <defs>
       <path d="
M0 0
L0 -2" id="m787e54c0c0"/>
      </defs>
      <g>
       <use style="stroke:#000000;stroke-linecap:butt;stroke-width:0.5;" x="106.621973926" xlink:href="#m787e54c0c0" y="295.69931654"/>
      </g>
     </g>
    </g>
    <g id="xtick_8">
     <g id="line2d_9">
      <defs>
       <path d="
M0 0
L0 -2" id="m787e54c0c0"/>
      </defs>
      <g>
       <use style="stroke:#000000;stroke-linecap:butt;stroke-width:0.5;" x="131.488156319" xlink:href="#m787e54c0c0" y="295.69931654"/>
      </g>
     </g>
    </g>
    <g id="xtick_9">
     <g id="line2d_10">
      <defs>
       <path d="
M0 0
L0 -2" id="m787e54c0c0"/>
      </defs>
      <g>
       <use style="stroke:#000000;stroke-linecap:butt;stroke-width:0.5;" x="181.220521107" xlink:href="#m787e54c0c0" y="295.69931654"/>
      </g>
     </g>
    </g>
    <g id="xtick_10">
     <g id="line2d_11">
      <defs>
       <path d="
M0 0
L0 -2" id="m787e54c0c0"/>
      </defs>
      <g>
       <use style="stroke:#000000;stroke-linecap:butt;stroke-width:0.5;" x="206.086703501" xlink:href="#m787e54c0c0" y="295.69931654"/>
      </g>
     </g>
    </g>
    <g id="xtick_11">
     <g id="line2d_12">
      <defs>
       <path d="
M0 0
L0 -2" id="m787e54c0c0"/>
      </defs>
      <g>
       <use style="stroke:#000000;stroke-linecap:butt;stroke-width:0.5;" x="230.952885895" xlink:href="#m787e54c0c0" y="295.69931654"/>
      </g>
     </g>
    </g>
    <g id="xtick_12">
     <g id="line2d_13">
      <defs>
       <path d="
M0 0
L0 -2" id="m787e54c0c0"/>
      </defs>
      <g>
       <use style="stroke:#000000;stroke-linecap:butt;stroke-width:0.5;" x="255.819068289" xlink:href="#m787e54c0c0" y="295.69931654"/>
      </g>
     </g>
    </g>
    <g id="xtick_13">
     <g id="line2d_14">
      <defs>
       <path d="
M0 0
L0 -2" id="m787e54c0c0"/>
      </defs>
      <g>
       <use style="stroke:#000000;stroke-linecap:butt;stroke-width:0.5;" x="305.551433077" xlink:href="#m787e54c0c0" y="295.69931654"/>
      </g>
     </g>
    </g>
    <g id="xtick_14">
     <g id="line2d_15">
      <defs>
       <path d="
M0 0
L0 -2" id="m787e54c0c0"/>
      </defs>
      <g>
       <use style="stroke:#000000;stroke-linecap:butt;stroke-width:0.5;" x="330.41761547" xlink:href="#m787e54c0c0" y="295.69931654"/>
      </g>
     </g>
    </g>
    <g id="xtick_15">
     <g id="line2d_16">
      <defs>
       <path d="
M0 0
L0 -2" id="m787e54c0c0"/>
      </defs>
      <g>
       <use style="stroke:#000000;stroke-linecap:butt;stroke-width:0.5;" x="355.283797864" xlink:href="#m787e54c0c0" y="295.69931654"/>
      </g>
     </g>
    </g>
    <g id="xtick_16">
     <g id="line2d_17">
      <defs>
       <path d="
M0 0
L0 -2" id="m787e54c0c0"/>
      </defs>
      <g>
       <use style="stroke:#000000;stroke-linecap:butt;stroke-width:0.5;" x="380.149980258" xlink:href="#m787e54c0c0" y="295.69931654"/>
      </g>
     </g>
    </g>
    <g id="xtick_17">
     <g id="line2d_18">
      <defs>
       <path d="
M0 0
L0 -2" id="m787e54c0c0"/>
      </defs>
      <g>
       <use style="stroke:#000000;stroke-linecap:butt;stroke-width:0.5;" x="429.882345046" xlink:href="#m787e54c0c0" y="295.69931654"/>
      </g>
     </g>
    </g>
    <g id="xtick_18">
     <g id="line2d_19">
      <defs>
       <path d="
M0 0
L0 -2" id="m787e54c0c0"/>
      </defs>
      <g>
       <use style="stroke:#000000;stroke-linecap:butt;stroke-width:0.5;" x="454.74852744" xlink:href="#m787e54c0c0" y="295.69931654"/>
      </g>
     </g>
    </g>
    <g id="xtick_19">
     <g id="line2d_20">
      <defs>
       <path d="
M0 0
L0 -2" id="m787e54c0c0"/>
      </defs>
      <g>
       <use style="stroke:#000000;stroke-linecap:butt;stroke-width:0.5;" x="479.614709834" xlink:href="#m787e54c0c0" y="295.69931654"/>
      </g>
     </g>
    </g>
    <g id="xtick_20">
     <g id="line2d_21">
      <defs>
       <path d="
M0 0
L0 -2" id="m787e54c0c0"/>
      </defs>
      <g>
       <use style="stroke:#000000;stroke-linecap:butt;stroke-width:0.5;" x="504.480892228" xlink:href="#m787e54c0c0" y="295.69931654"/>
      </g>
     </g>
    </g>
   </g>
   <g id="matplotlib.axis_2">
    <g id="ytick_1">
     <g id="line2d_22">
      <defs>
       <path d="
M0 0
L4 0" id="mb48e5811c6"/>
      </defs>
      <g>
       <use style="stroke:#000000;stroke-linecap:butt;stroke-width:0.5;" x="29.2984375" xlink:href="#mb48e5811c6" y="372.295131124"/>
      </g>
     </g>
     <g id="text_5">
      <!-- -0.1 -->
      <defs>
       <path d="
M10.6875 12.4062
L21 12.4062
L21 0
L10.6875 0
z
" id="BitstreamVeraSans-Roman-2e"/>
       <path d="
M4.89062 31.3906
L31.2031 31.3906
L31.2031 23.3906
L4.89062 23.3906
z
" id="BitstreamVeraSans-Roman-2d"/>
      </defs>
      <g transform="translate(7.2 375.934974874)scale(0.1 -0.1)">
       <use xlink:href="#BitstreamVeraSans-Roman-2d"/>
       <use x="36.083984375" xlink:href="#BitstreamVeraSans-Roman-30"/>
       <use x="99.70703125" xlink:href="#BitstreamVeraSans-Roman-2e"/>
       <use x="131.494140625" xlink:href="#BitstreamVeraSans-Roman-31"/>
      </g>
     </g>
    </g>
    <g id="ytick_2">
     <g id="line2d_23">
      <defs>
       <path d="
M0 0
L4 0" id="mb48e5811c6"/>
      </defs>
      <g>
       <use style="stroke:#000000;stroke-linecap:butt;stroke-width:0.5;" x="29.2984375" xlink:href="#mb48e5811c6" y="295.69931654"/>
      </g>
     </g>
     <g id="text_6">
      <!-- 0 -->
      <g transform="translate(20.259375 299.33916029)scale(0.1 -0.1)">
       <use xlink:href="#BitstreamVeraSans-Roman-30"/>
      </g>
     </g>
    </g>
    <g id="ytick_3">
     <g id="line2d_24">
      <defs>
       <path d="
M0 0
L4 0" id="mb48e5811c6"/>
      </defs>
      <g>
       <use style="stroke:#000000;stroke-linecap:butt;stroke-width:0.5;" x="29.2984375" xlink:href="#mb48e5811c6" y="219.103501955"/>
      </g>
     </g>
     <g id="text_7">
      <!-- 0.1 -->
      <g transform="translate(10.978125 222.743345705)scale(0.1 -0.1)">
       <use xlink:href="#BitstreamVeraSans-Roman-30"/>
       <use x="63.623046875" xlink:href="#BitstreamVeraSans-Roman-2e"/>
       <use x="95.41015625" xlink:href="#BitstreamVeraSans-Roman-31"/>
      </g>
     </g>
    </g>
    <g id="ytick_4">
     <g id="line2d_25">
      <defs>
       <path d="
M0 0
L4 0" id="mb48e5811c6"/>
      </defs>
      <g>
       <use style="stroke:#000000;stroke-linecap:butt;stroke-width:0.5;" x="29.2984375" xlink:href="#mb48e5811c6" y="142.507687371"/>
      </g>
     </g>
     <g id="text_8">
      <!-- 0.2 -->
      <g transform="translate(11.05625 146.147531121)scale(0.1 -0.1)">
       <use xlink:href="#BitstreamVeraSans-Roman-30"/>
       <use x="63.623046875" xlink:href="#BitstreamVeraSans-Roman-2e"/>
       <use x="95.41015625" xlink:href="#BitstreamVeraSans-Roman-32"/>
      </g>
     </g>
    </g>
    <g id="ytick_5">
     <g id="line2d_26">
      <defs>
       <path d="
M0 0
L4 0" id="mb48e5811c6"/>
      </defs>
      <g>
       <use style="stroke:#000000;stroke-linecap:butt;stroke-width:0.5;" x="29.2984375" xlink:href="#mb48e5811c6" y="65.9118727861"/>
      </g>
     </g>
     <g id="text_9">
      <!-- 0.3 -->
      <defs>
       <path d="
M40.5781 39.3125
Q47.6562 37.7969 51.625 33
Q55.6094 28.2188 55.6094 21.1875
Q55.6094 10.4062 48.1875 4.48438
Q40.7656 -1.42188 27.0938 -1.42188
Q22.5156 -1.42188 17.6562 -0.515625
Q12.7969 0.390625 7.625 2.20312
L7.625 11.7188
Q11.7188 9.32812 16.5938 8.10938
Q21.4844 6.89062 26.8125 6.89062
Q36.0781 6.89062 40.9375 10.5469
Q45.7969 14.2031 45.7969 21.1875
Q45.7969 27.6406 41.2812 31.2656
Q36.7656 34.9062 28.7188 34.9062
L20.2188 34.9062
L20.2188 43.0156
L29.1094 43.0156
Q36.375 43.0156 40.2344 45.9219
Q44.0938 48.8281 44.0938 54.2969
Q44.0938 59.9062 40.1094 62.9062
Q36.1406 65.9219 28.7188 65.9219
Q24.6562 65.9219 20.0156 65.0312
Q15.375 64.1562 9.8125 62.3125
L9.8125 71.0938
Q15.4375 72.6562 20.3438 73.4375
Q25.25 74.2188 29.5938 74.2188
Q40.8281 74.2188 47.3594 69.1094
Q53.9062 64.0156 53.9062 55.3281
Q53.9062 49.2656 50.4375 45.0938
Q46.9688 40.9219 40.5781 39.3125" id="BitstreamVeraSans-Roman-33"/>
      </defs>
      <g transform="translate(10.85625 69.5517165361)scale(0.1 -0.1)">
       <use xlink:href="#BitstreamVeraSans-Roman-30"/>
       <use x="63.623046875" xlink:href="#BitstreamVeraSans-Roman-2e"/>
       <use x="95.41015625" xlink:href="#BitstreamVeraSans-Roman-33"/>
      </g>
     </g>
    </g>
    <g id="ytick_6">
     <g id="line2d_27">
      <defs>
       <path d="
M0 0
L2 0" id="md5e529a6b6"/>
      </defs>
      <g>
       <use style="stroke:#000000;stroke-linecap:butt;stroke-width:0.5;" x="29.2984375" xlink:href="#md5e529a6b6" y="402.933456958"/>
      </g>
     </g>
    </g>
    <g id="ytick_7">
     <g id="line2d_28">
      <defs>
       <path d="
M0 0
L2 0" id="md5e529a6b6"/>
      </defs>
      <g>
       <use style="stroke:#000000;stroke-linecap:butt;stroke-width:0.5;" x="29.2984375" xlink:href="#md5e529a6b6" y="387.614294041"/>
      </g>
     </g>
    </g>
    <g id="ytick_8">
     <g id="line2d_29">
      <defs>
       <path d="
M0 0
L2 0" id="md5e529a6b6"/>
      </defs>
      <g>
       <use style="stroke:#000000;stroke-linecap:butt;stroke-width:0.5;" x="29.2984375" xlink:href="#md5e529a6b6" y="356.975968207"/>
      </g>
     </g>
    </g>
    <g id="ytick_9">
     <g id="line2d_30">
      <defs>
       <path d="
M0 0
L2 0" id="md5e529a6b6"/>
      </defs>
      <g>
       <use style="stroke:#000000;stroke-linecap:butt;stroke-width:0.5;" x="29.2984375" xlink:href="#md5e529a6b6" y="341.65680529"/>
      </g>
     </g>
    </g>
    <g id="ytick_10">
     <g id="line2d_31">
      <defs>
       <path d="
M0 0
L2 0" id="md5e529a6b6"/>
      </defs>
      <g>
       <use style="stroke:#000000;stroke-linecap:butt;stroke-width:0.5;" x="29.2984375" xlink:href="#md5e529a6b6" y="326.337642373"/>
      </g>
     </g>
    </g>
    <g id="ytick_11">
     <g id="line2d_32">
      <defs>
       <path d="
M0 0
L2 0" id="md5e529a6b6"/>
      </defs>
      <g>
       <use style="stroke:#000000;stroke-linecap:butt;stroke-width:0.5;" x="29.2984375" xlink:href="#md5e529a6b6" y="311.018479457"/>
      </g>
     </g>
    </g>
    <g id="ytick_12">
     <g id="line2d_33">
      <defs>
       <path d="
M0 0
L2 0" id="md5e529a6b6"/>
      </defs>
      <g>
       <use style="stroke:#000000;stroke-linecap:butt;stroke-width:0.5;" x="29.2984375" xlink:href="#md5e529a6b6" y="280.380153623"/>
      </g>
     </g>
    </g>
    <g id="ytick_13">
     <g id="line2d_34">
      <defs>
       <path d="
M0 0
L2 0" id="md5e529a6b6"/>
      </defs>
      <g>
       <use style="stroke:#000000;stroke-linecap:butt;stroke-width:0.5;" x="29.2984375" xlink:href="#md5e529a6b6" y="265.060990706"/>
      </g>
     </g>
    </g>
    <g id="ytick_14">
     <g id="line2d_35">
      <defs>
       <path d="
M0 0
L2 0" id="md5e529a6b6"/>
      </defs>
      <g>
       <use style="stroke:#000000;stroke-linecap:butt;stroke-width:0.5;" x="29.2984375" xlink:href="#md5e529a6b6" y="249.741827789"/>
      </g>
     </g>
    </g>
    <g id="ytick_15">
     <g id="line2d_36">
      <defs>
       <path d="
M0 0
L2 0" id="md5e529a6b6"/>
      </defs>
      <g>
       <use style="stroke:#000000;stroke-linecap:butt;stroke-width:0.5;" x="29.2984375" xlink:href="#md5e529a6b6" y="234.422664872"/>
      </g>
     </g>
    </g>
    <g id="ytick_16">
     <g id="line2d_37">
      <defs>
       <path d="
M0 0
L2 0" id="md5e529a6b6"/>
      </defs>
      <g>
       <use style="stroke:#000000;stroke-linecap:butt;stroke-width:0.5;" x="29.2984375" xlink:href="#md5e529a6b6" y="203.784339038"/>
      </g>
     </g>
    </g>
    <g id="ytick_17">
     <g id="line2d_38">
      <defs>
       <path d="
M0 0
L2 0" id="md5e529a6b6"/>
      </defs>
      <g>
       <use style="stroke:#000000;stroke-linecap:butt;stroke-width:0.5;" x="29.2984375" xlink:href="#md5e529a6b6" y="188.465176121"/>
      </g>
     </g>
    </g>
    <g id="ytick_18">
     <g id="line2d_39">
      <defs>
       <path d="
M0 0
L2 0" id="md5e529a6b6"/>
      </defs>
      <g>
       <use style="stroke:#000000;stroke-linecap:butt;stroke-width:0.5;" x="29.2984375" xlink:href="#md5e529a6b6" y="173.146013204"/>
      </g>
     </g>
    </g>
    <g id="ytick_19">
     <g id="line2d_40">
      <defs>
       <path d="
M0 0
L2 0" id="md5e529a6b6"/>
      </defs>
      <g>
       <use style="stroke:#000000;stroke-linecap:butt;stroke-width:0.5;" x="29.2984375" xlink:href="#md5e529a6b6" y="157.826850288"/>
      </g>
     </g>
    </g>
    <g id="ytick_20">
     <g id="line2d_41">
      <defs>
       <path d="
M0 0
L2 0" id="md5e529a6b6"/>
      </defs>
      <g>
       <use style="stroke:#000000;stroke-linecap:butt;stroke-width:0.5;" x="29.2984375" xlink:href="#md5e529a6b6" y="127.188524454"/>
      </g>
     </g>
    </g>
    <g id="ytick_21">
     <g id="line2d_42">
      <defs>
       <path d="
M0 0
L2 0" id="md5e529a6b6"/>
      </defs>
      <g>
       <use style="stroke:#000000;stroke-linecap:butt;stroke-width:0.5;" x="29.2984375" xlink:href="#md5e529a6b6" y="111.869361537"/>
      </g>
     </g>
    </g>
    <g id="ytick_22">
     <g id="line2d_43">
      <defs>
       <path d="
M0 0
L2 0" id="md5e529a6b6"/>
      </defs>
      <g>
       <use style="stroke:#000000;stroke-linecap:butt;stroke-width:0.5;" x="29.2984375" xlink:href="#md5e529a6b6" y="96.5501986199"/>
      </g>
     </g>
    </g>
    <g id="ytick_23">
     <g id="line2d_44">
      <defs>
       <path d="
M0 0
L2 0" id="md5e529a6b6"/>
      </defs>
      <g>
       <use style="stroke:#000000;stroke-linecap:butt;stroke-width:0.5;" x="29.2984375" xlink:href="#md5e529a6b6" y="81.231035703"/>
      </g>
     </g>
    </g>
    <g id="ytick_24">
     <g id="line2d_45">
      <defs>
       <path d="
M0 0
L2 0" id="md5e529a6b6"/>
      </defs>
      <g>
       <use style="stroke:#000000;stroke-linecap:butt;stroke-width:0.5;" x="29.2984375" xlink:href="#md5e529a6b6" y="65.9118727861"/>
      </g>
     </g>
    </g>
    <g id="ytick_25">
     <g id="line2d_46">
      <defs>
       <path d="
M0 0
L2 0" id="md5e529a6b6"/>
      </defs>
      <g>
       <use style="stroke:#000000;stroke-linecap:butt;stroke-width:0.5;" x="29.2984375" xlink:href="#md5e529a6b6" y="50.5927098692"/>
      </g>
     </g>
    </g>
    <g id="ytick_26">
     <g id="line2d_47">
      <defs>
       <path d="
M0 0
L2 0" id="md5e529a6b6"/>
      </defs>
      <g>
       <use style="stroke:#000000;stroke-linecap:butt;stroke-width:0.5;" x="29.2984375" xlink:href="#md5e529a6b6" y="35.2735469523"/>
      </g>
     </g>
    </g>
   </g>
   <g id="patch_3">
    <path d="
M39.2984 295.699
L557.266 295.699" style="fill:none;stroke:#000000;stroke-width:0.8;"/>
   </g>
   <g id="patch_4">
    <path d="
M29.2984 413.28
L29.2984 7.2" style="fill:none;stroke:#000000;stroke-width:0.8;"/>
   </g>
  </g>
 </g>
 <defs>
  <clipPath id="pbda54c63f9">
   <rect height="406.08" width="517.9675" x="39.2984375" y="7.2"/>
  </clipPath>
 </defs>
</svg>
