<?xml version="1.0" encoding="utf-8" standalone="no"?>
<!DOCTYPE svg PUBLIC "-//W3C//DTD SVG 1.1//EN"
  "http://www.w3.org/Graphics/SVG/1.1/DTD/svg11.dtd">
<!-- Created with matplotlib (http://matplotlib.sourceforge.net/) -->
<svg height="420pt" version="1.1" viewBox="0 0 564 420" width="564pt" xmlns="http://www.w3.org/2000/svg" xmlns:xlink="http://www.w3.org/1999/xlink">
 <defs>
  <style type="text/css">
*{stroke-linecap:square;stroke-linejoin:round;}
  </style>
 </defs>
 <g id="figure_1">
  <g id="patch_1">
   <path d="
M0 420.48
L564.505 420.48
L564.505 0
L0 0
z
" style="fill:#ffffff;"/>
  </g>
  <g id="axes_1">
   <g id="patch_2">
    <path d="
M39.6609 413.28
L557.305 413.28
L557.305 7.2
L39.6609 7.2
z
" style="fill:#ffffff;"/>
   </g>
   <g id="line2d_1">
    <path clip-path="url(#pc338702c0a)" d="
M49.6156 405.471
L50.9546 356.858
L52.3451 314.225
L53.787 276.72
L55.2805 243.631
L56.8254 214.358
L58.3704 189.173
L63.0568 119.967
L64.8077 98.5527
L66.6102 79.1815
L68.4641 61.6263
L70.3696 45.6876
L72.3265 31.1896
L72.5325 30.4061
L74.3865 26.0684
L76.2404 22.2931
L78.1459 18.9101
L80.1028 15.8818
L80.7208 15.0092
L80.7723 15.0929
L83.2958 26.9991
L86.0252 38.8339
L88.2911 48.7053
L91.0721 60.6099
L92.0505 64.2868
L95.8099 64.3653
L96.1189 64.3773
L96.5824 66.6883
L99.4663 80.758
L102.402 93.9857
L103.689 100.042
L105.646 109.049
L108.788 115.919
L110.436 119.57
L112.547 127.472
L115.122 133.447
L116.152 135.463
L117.8 135.31
L121.662 140.039
L122.177 140.8
L124.752 151.062
L126.04 153.816
L128.151 156.519
L131.138 165.938
L134.846 181.56
L137.06 186.813
L138.605 193.64
L139.429 199.072
L144.167 232.75
L146.588 246.597
L147.566 250.98
L148.648 253.964
L149.111 254.532
L150.244 256.48
L152.098 258.735
L152.613 259.097
L152.922 259.101
L153.643 258.753
L155.033 256.711
L156.99 252.308
L158.381 248.001
L159.256 246.212
L159.72 245.718
L160.183 245.749
L160.75 245.735
L161.728 245.435
L163.273 243.255
L164.046 241.896
L165.488 239.946
L167.187 235.083
L168.011 232.141
L171.152 222.483
L172.028 220.12
L172.697 217.821
L173.882 213.7
L175.066 210.891
L175.53 210.186
L176.869 207.895
L177.281 206.733
L178.877 201.306
L179.856 196.927
L181.607 188.754
L183.049 181.779
L184.8 173.217
L186.087 167.325
L187.066 163.146
L187.735 161.074
L190.31 153.459
L191.082 151.414
L192.988 145.797
L194.172 141.956
L194.842 140.099
L195.563 137.497
L196.387 134.563
L197.571 130.8
L200.97 118.171
L201.537 116.95
L202.567 114.898
L203.236 114.081
L203.7 113.611
L204.06 113.007
L204.884 111.526
L205.348 111.115
L205.76 111.232
L207.871 111.725
L208.541 112.283
L209.674 113.364
L210.6 113.839
L211.064 114.579
L211.785 116.274
L212.609 118.973
L214.463 124.742
L215.493 127.409
L216.729 130.724
L219.767 138.315
L221.003 140.657
L221.467 141.518
L222.445 142.752
L223.063 143.918
L223.836 144.638
L224.248 144.878
L224.66 145.093
L225.535 146.173
L226.256 147.091
L226.617 147.485
L228.831 150.982
L230.324 152.59
L230.891 152.971
L231.406 153.013
L231.766 153.116
L233.62 155.202
L233.981 155.533
L234.753 155.545
L235.268 155.143
L235.577 155.037
L236.195 155.205
L236.813 155.646
L237.74 156.747
L238.307 157.407
L239.079 158.208
L240.985 161.404
L243.817 166.941
L244.384 167.361
L245.465 167.89
L245.774 168.364
L246.135 169.278
L247.371 172.672
L248.452 174.507
L250.203 176.123
L251.078 176.402
L251.49 176.435
L251.954 176.721
L252.263 176.863
L252.675 177.056
L253.035 177.409
L253.396 177.794
L254.477 178.368
L255.044 178.362
L255.404 178.524
L256.177 178.948
L256.589 179.104
L256.846 179.144
L257.413 179.124
L257.825 179.397
L258.597 180.288
L259.164 180.849
L260.657 181.717
L261.584 183.368
L262.202 184.502
L263.387 186.492
L264.314 188.68
L264.983 190.327
L265.447 191.145
L266.734 192.919
L267.97 194.284
L268.897 195.612
L270.081 197.507
L270.751 198.78
L271.987 201.341
L274.047 202.988
L274.819 203.243
L275.386 203.349
L275.746 203.543
L276.416 203.953
L278.064 204.468
L278.836 204.322
L279.454 203.577
L280.124 202.304
L280.896 200.993
L281.463 200.538
L282.029 200.326
L282.647 200.05
L283.265 199.926
L283.729 200.039
L284.707 200.49
L285.377 201.426
L286.458 202.719
L286.87 202.943
L287.334 203.1
L287.951 203.056
L289.496 202.488
L289.805 202.593
L290.063 202.634
L290.423 202.37
L290.732 202.216
L291.247 202.104
L291.659 201.871
L292.174 201.427
L292.844 201.177
L293.462 201.137
L294.234 200.968
L294.543 200.917
L295.264 200.347
L296.603 198.599
L297.221 198.207
L298.251 198.022
L299.23 197.636
L300.208 196.914
L301.238 195.915
L301.805 194.816
L302.629 193.1
L304.689 189.577
L305.873 187.155
L306.646 185.233
L307.984 182.085
L308.757 180.733
L309.838 179.048
L310.817 177.305
L312.825 172.317
L313.546 169.666
L314.937 164.09
L315.915 160.066
L318.542 148.413
L319.829 143.62
L320.293 142.663
L321.632 140.792
L322.559 139.702
L323.177 138.991
L325.7 137.582
L326.627 137.539
L326.884 137.497
L327.296 137.55
L327.863 137.651
L328.275 137.678
L328.996 137.765
L329.768 138.342
L331.004 139.35
L331.931 140.477
L332.343 140.669
L333.013 140.756
L333.579 140.504
L334.249 140.204
L335.691 139.718
L336 139.703
L336.36 139.726
L337.442 140.469
L338.06 140.955
L339.038 141.304
L339.965 141.437
L340.326 141.801
L341.613 142.967
L342.952 143.959
L343.673 144.65
L345.682 147.058
L346.093 147.23
L346.505 147.242
L347.741 146.853
L348.462 146.977
L348.926 147.219
L350.368 147.197
L350.78 147.521
L352.016 148.914
L353.355 151.071
L354.179 152.441
L354.797 153.271
L355.878 154.652
L356.445 155.602
L359.895 163.195
L363.037 169.853
L363.964 171.593
L364.685 172.566
L366.281 174.11
L367.774 175.946
L368.341 176.209
L369.01 176.494
L369.371 176.968
L369.937 177.737
L371.173 179.004
L371.585 179.141
L372.821 179.184
L373.594 179.029
L374.572 179.176
L375.139 179.306
L375.602 179.295
L376.632 179.443
L377.405 179.966
L378.898 181.656
L379.413 182.139
L380.134 182.745
L381.628 184.045
L382.864 184.726
L384.1 185.784
L385.181 186.686
L385.747 187.375
L387.189 189.176
L387.704 189.449
L388.219 189.524
L388.734 189.385
L389.661 188.885
L390.022 188.828
L392.03 187.804
L393.627 186.987
L394.09 186.812
L394.348 186.675
L394.76 186.408
L395.275 186.148
L395.687 185.766
L395.996 185.557
L397.747 185.15
L399.189 185.03
L401.815 184.183
L403.103 184.579
L403.515 184.915
L404.132 185.468
L404.647 185.879
L405.626 186.889
L406.192 187.389
L406.759 187.65
L407.634 187.665
L408.046 187.716
L408.87 187.795
L409.334 187.693
L410.261 187.999
L411.033 188.37
L411.703 188.642
L414.587 190.885
L415.256 190.847
L416.183 190.555
L417.728 189.882
L418.295 189.747
L418.655 189.641
L419.016 189.32
L419.84 188.501
L420.355 188.359
L420.87 188.197
L421.745 187.635
L423.599 187.65
L424.217 187.803
L424.732 187.733
L425.092 187.52
L425.556 186.901
L426.534 185.025
L427.564 183.272
L429.367 181.035
L430.603 179.581
L435.392 172.218
L436.268 170.344
L436.886 169.091
L438.74 165.829
L439.718 164.139
L440.903 162.397
L441.675 161.323
L442.551 160.417
L443.117 160.141
L443.632 159.776
L444.095 159.496
L444.765 159.356
L445.228 159.134
L446.001 158.645
L446.619 157.903
L447.597 156.837
L448.627 156.074
L452.335 151.299
L452.85 150.998
L453.932 150.441
L455.219 150.251
L455.889 150.225
L458.258 150.044
L458.876 150.049
L459.545 149.973
L460.472 149.878
L461.657 149.579
L463.15 148.743
L465.158 147.35
L465.725 146.994
L466.858 146.529
L467.888 146.248
L469.69 145.949
L470.36 146.315
L471.647 147.245
L472.368 148.056
L473.862 150.111
L474.737 151.339
L475.458 152.357
L476.128 152.91
L476.694 153.503
L477.364 154.161
L480.351 157.271
L481.123 158.206
L481.844 159.197
L482.41 159.89
L484.419 162.802
L486.685 167.39
L487.509 169.111
L489.517 172.774
L490.805 174.415
L491.32 175.053
L493.225 177.514
L495.646 179.999
L496.985 181.345
L497.963 182.356
L498.684 182.754
L499.972 183.558
L500.487 183.864
L501.207 184.128
L502.34 184.464
L503.525 185.054
L505.585 185.456
L508.52 185.92
L508.984 185.959
L509.55 185.8
L512.074 184.542
L512.949 184.049
L513.722 183.843
L514.34 183.75
L515.473 183.902
L516.4 184.188
L516.915 184.249
L518.563 184.301
L519.078 184.339
L520.262 184.333
L520.622 184.299
L522.682 184.081
L524.433 184.009
L525.412 184.006
L528.038 185.374
L528.656 185.195
L531.695 184.086
L532.673 184.05
L533.343 183.726
L534.167 183.097
L535.248 182.074
L536.278 180.899
L538.029 179.358
L540.913 178.112
L541.737 177.951
L543.385 178.244
L544.003 178.603
L544.775 178.995
L545.651 179.171
L546.063 179.259
L546.578 179.291
L547.35 179.331
L547.35 179.331" style="fill:none;stroke:#0000ff;"/>
   </g>
   <g id="matplotlib.axis_1">
    <g id="xtick_1">
     <g id="line2d_2">
      <defs>
       <path d="
M0 0
L0 -4" id="m44ed65d01f"/>
      </defs>
      <g>
       <use style="stroke:#000000;stroke-linecap:butt;stroke-width:0.5;" x="156.643744807" xlink:href="#m44ed65d01f" y="171.245611641"/>
      </g>
     </g>
     <g id="text_1">
      <!-- 5 -->
      <defs>
       <path d="
M10.7969 72.9062
L49.5156 72.9062
L49.5156 64.5938
L19.8281 64.5938
L19.8281 46.7344
Q21.9688 47.4688 24.1094 47.8281
Q26.2656 48.1875 28.4219 48.1875
Q40.625 48.1875 47.75 41.5
Q54.8906 34.8125 54.8906 23.3906
Q54.8906 11.625 47.5625 5.09375
Q40.2344 -1.42188 26.9062 -1.42188
Q22.3125 -1.42188 17.5469 -0.640625
Q12.7969 0.140625 7.71875 1.70312
L7.71875 11.625
Q12.1094 9.23438 16.7969 8.0625
Q21.4844 6.89062 26.7031 6.89062
Q35.1562 6.89062 40.0781 11.3281
Q45.0156 15.7656 45.0156 23.3906
Q45.0156 31 40.0781 35.4375
Q35.1562 39.8906 26.7031 39.8906
Q22.75 39.8906 18.8125 39.0156
Q14.8906 38.1406 10.7969 36.2812
z
" id="BitstreamVeraSans-Roman-35"/>
      </defs>
      <g transform="translate(154.285151057 182.536236641)scale(0.1 -0.1)">
       <use xlink:href="#BitstreamVeraSans-Roman-35"/>
      </g>
     </g>
    </g>
    <g id="xtick_2">
     <g id="line2d_3">
      <defs>
       <path d="
M0 0
L0 -4" id="m44ed65d01f"/>
      </defs>
      <g>
       <use style="stroke:#000000;stroke-linecap:butt;stroke-width:0.5;" x="280.897020092" xlink:href="#m44ed65d01f" y="171.245611641"/>
      </g>
     </g>
     <g id="text_2">
      <!-- 10 -->
      <defs>
       <path d="
M31.7812 66.4062
Q24.1719 66.4062 20.3281 58.9062
Q16.5 51.4219 16.5 36.375
Q16.5 21.3906 20.3281 13.8906
Q24.1719 6.39062 31.7812 6.39062
Q39.4531 6.39062 43.2812 13.8906
Q47.125 21.3906 47.125 36.375
Q47.125 51.4219 43.2812 58.9062
Q39.4531 66.4062 31.7812 66.4062
M31.7812 74.2188
Q44.0469 74.2188 50.5156 64.5156
Q56.9844 54.8281 56.9844 36.375
Q56.9844 17.9688 50.5156 8.26562
Q44.0469 -1.42188 31.7812 -1.42188
Q19.5312 -1.42188 13.0625 8.26562
Q6.59375 17.9688 6.59375 36.375
Q6.59375 54.8281 13.0625 64.5156
Q19.5312 74.2188 31.7812 74.2188" id="BitstreamVeraSans-Roman-30"/>
       <path d="
M12.4062 8.29688
L28.5156 8.29688
L28.5156 63.9219
L10.9844 60.4062
L10.9844 69.3906
L28.4219 72.9062
L38.2812 72.9062
L38.2812 8.29688
L54.3906 8.29688
L54.3906 0
L12.4062 0
z
" id="BitstreamVeraSans-Roman-31"/>
      </defs>
      <g transform="translate(275.415770092 182.667486641)scale(0.1 -0.1)">
       <use xlink:href="#BitstreamVeraSans-Roman-31"/>
       <use x="63.623046875" xlink:href="#BitstreamVeraSans-Roman-30"/>
      </g>
     </g>
    </g>
    <g id="xtick_3">
     <g id="line2d_4">
      <defs>
       <path d="
M0 0
L0 -4" id="m44ed65d01f"/>
      </defs>
      <g>
       <use style="stroke:#000000;stroke-linecap:butt;stroke-width:0.5;" x="405.150295377" xlink:href="#m44ed65d01f" y="171.245611641"/>
      </g>
     </g>
     <g id="text_3">
      <!-- 15 -->
      <g transform="translate(399.773732877 182.536236641)scale(0.1 -0.1)">
       <use xlink:href="#BitstreamVeraSans-Roman-31"/>
       <use x="63.623046875" xlink:href="#BitstreamVeraSans-Roman-35"/>
      </g>
     </g>
    </g>
    <g id="xtick_4">
     <g id="line2d_5">
      <defs>
       <path d="
M0 0
L0 -4" id="m44ed65d01f"/>
      </defs>
      <g>
       <use style="stroke:#000000;stroke-linecap:butt;stroke-width:0.5;" x="529.403570662" xlink:href="#m44ed65d01f" y="171.245611641"/>
      </g>
     </g>
     <g id="text_4">
      <!-- 20 -->
      <defs>
       <path d="
M19.1875 8.29688
L53.6094 8.29688
L53.6094 0
L7.32812 0
L7.32812 8.29688
Q12.9375 14.1094 22.625 23.8906
Q32.3281 33.6875 34.8125 36.5312
Q39.5469 41.8438 41.4219 45.5312
Q43.3125 49.2188 43.3125 52.7812
Q43.3125 58.5938 39.2344 62.25
Q35.1562 65.9219 28.6094 65.9219
Q23.9688 65.9219 18.8125 64.3125
Q13.6719 62.7031 7.8125 59.4219
L7.8125 69.3906
Q13.7656 71.7812 18.9375 73
Q24.125 74.2188 28.4219 74.2188
Q39.75 74.2188 46.4844 68.5469
Q53.2188 62.8906 53.2188 53.4219
Q53.2188 48.9219 51.5312 44.8906
Q49.8594 40.875 45.4062 35.4062
Q44.1875 33.9844 37.6406 27.2188
Q31.1094 20.4531 19.1875 8.29688" id="BitstreamVeraSans-Roman-32"/>
      </defs>
      <g transform="translate(523.739508162 182.667486641)scale(0.1 -0.1)">
       <use xlink:href="#BitstreamVeraSans-Roman-32"/>
       <use x="63.623046875" xlink:href="#BitstreamVeraSans-Roman-30"/>
      </g>
     </g>
    </g>
    <g id="xtick_5">
     <g id="line2d_6">
      <defs>
       <path d="
M0 0
L0 -2" id="m06dd23cfa9"/>
      </defs>
      <g>
       <use style="stroke:#000000;stroke-linecap:butt;stroke-width:0.5;" x="57.2411245788" xlink:href="#m06dd23cfa9" y="171.245611641"/>
      </g>
     </g>
    </g>
    <g id="xtick_6">
     <g id="line2d_7">
      <defs>
       <path d="
M0 0
L0 -2" id="m06dd23cfa9"/>
      </defs>
      <g>
       <use style="stroke:#000000;stroke-linecap:butt;stroke-width:0.5;" x="82.0917796358" xlink:href="#m06dd23cfa9" y="171.245611641"/>
      </g>
     </g>
    </g>
    <g id="xtick_7">
     <g id="line2d_8">
      <defs>
       <path d="
M0 0
L0 -2" id="m06dd23cfa9"/>
      </defs>
      <g>
       <use style="stroke:#000000;stroke-linecap:butt;stroke-width:0.5;" x="106.942434693" xlink:href="#m06dd23cfa9" y="171.245611641"/>
      </g>
     </g>
    </g>
    <g id="xtick_8">
     <g id="line2d_9">
      <defs>
       <path d="
M0 0
L0 -2" id="m06dd23cfa9"/>
      </defs>
      <g>
       <use style="stroke:#000000;stroke-linecap:butt;stroke-width:0.5;" x="131.79308975" xlink:href="#m06dd23cfa9" y="171.245611641"/>
      </g>
     </g>
    </g>
    <g id="xtick_9">
     <g id="line2d_10">
      <defs>
       <path d="
M0 0
L0 -2" id="m06dd23cfa9"/>
      </defs>
      <g>
       <use style="stroke:#000000;stroke-linecap:butt;stroke-width:0.5;" x="181.494399864" xlink:href="#m06dd23cfa9" y="171.245611641"/>
      </g>
     </g>
    </g>
    <g id="xtick_10">
     <g id="line2d_11">
      <defs>
       <path d="
M0 0
L0 -2" id="m06dd23cfa9"/>
      </defs>
      <g>
       <use style="stroke:#000000;stroke-linecap:butt;stroke-width:0.5;" x="206.345054921" xlink:href="#m06dd23cfa9" y="171.245611641"/>
      </g>
     </g>
    </g>
    <g id="xtick_11">
     <g id="line2d_12">
      <defs>
       <path d="
M0 0
L0 -2" id="m06dd23cfa9"/>
      </defs>
      <g>
       <use style="stroke:#000000;stroke-linecap:butt;stroke-width:0.5;" x="231.195709978" xlink:href="#m06dd23cfa9" y="171.245611641"/>
      </g>
     </g>
    </g>
    <g id="xtick_12">
     <g id="line2d_13">
      <defs>
       <path d="
M0 0
L0 -2" id="m06dd23cfa9"/>
      </defs>
      <g>
       <use style="stroke:#000000;stroke-linecap:butt;stroke-width:0.5;" x="256.046365035" xlink:href="#m06dd23cfa9" y="171.245611641"/>
      </g>
     </g>
    </g>
    <g id="xtick_13">
     <g id="line2d_14">
      <defs>
       <path d="
M0 0
L0 -2" id="m06dd23cfa9"/>
      </defs>
      <g>
       <use style="stroke:#000000;stroke-linecap:butt;stroke-width:0.5;" x="305.747675149" xlink:href="#m06dd23cfa9" y="171.245611641"/>
      </g>
     </g>
    </g>
    <g id="xtick_14">
     <g id="line2d_15">
      <defs>
       <path d="
M0 0
L0 -2" id="m06dd23cfa9"/>
      </defs>
      <g>
       <use style="stroke:#000000;stroke-linecap:butt;stroke-width:0.5;" x="330.598330206" xlink:href="#m06dd23cfa9" y="171.245611641"/>
      </g>
     </g>
    </g>
    <g id="xtick_15">
     <g id="line2d_16">
      <defs>
       <path d="
M0 0
L0 -2" id="m06dd23cfa9"/>
      </defs>
      <g>
       <use style="stroke:#000000;stroke-linecap:butt;stroke-width:0.5;" x="355.448985263" xlink:href="#m06dd23cfa9" y="171.245611641"/>
      </g>
     </g>
    </g>
    <g id="xtick_16">
     <g id="line2d_17">
      <defs>
       <path d="
M0 0
L0 -2" id="m06dd23cfa9"/>
      </defs>
      <g>
       <use style="stroke:#000000;stroke-linecap:butt;stroke-width:0.5;" x="380.29964032" xlink:href="#m06dd23cfa9" y="171.245611641"/>
      </g>
     </g>
    </g>
    <g id="xtick_17">
     <g id="line2d_18">
      <defs>
       <path d="
M0 0
L0 -2" id="m06dd23cfa9"/>
      </defs>
      <g>
       <use style="stroke:#000000;stroke-linecap:butt;stroke-width:0.5;" x="430.000950434" xlink:href="#m06dd23cfa9" y="171.245611641"/>
      </g>
     </g>
    </g>
    <g id="xtick_18">
     <g id="line2d_19">
      <defs>
       <path d="
M0 0
L0 -2" id="m06dd23cfa9"/>
      </defs>
      <g>
       <use style="stroke:#000000;stroke-linecap:butt;stroke-width:0.5;" x="454.851605491" xlink:href="#m06dd23cfa9" y="171.245611641"/>
      </g>
     </g>
    </g>
    <g id="xtick_19">
     <g id="line2d_20">
      <defs>
       <path d="
M0 0
L0 -2" id="m06dd23cfa9"/>
      </defs>
      <g>
       <use style="stroke:#000000;stroke-linecap:butt;stroke-width:0.5;" x="479.702260548" xlink:href="#m06dd23cfa9" y="171.245611641"/>
      </g>
     </g>
    </g>
    <g id="xtick_20">
     <g id="line2d_21">
      <defs>
       <path d="
M0 0
L0 -2" id="m06dd23cfa9"/>
      </defs>
      <g>
       <use style="stroke:#000000;stroke-linecap:butt;stroke-width:0.5;" x="504.552915605" xlink:href="#m06dd23cfa9" y="171.245611641"/>
      </g>
     </g>
    </g>
   </g>
   <g id="matplotlib.axis_2">
    <g id="ytick_1">
     <g id="line2d_22">
      <defs>
       <path d="
M0 0
L4 0" id="m5aaf488d15"/>
      </defs>
      <g>
       <use style="stroke:#000000;stroke-linecap:butt;stroke-width:0.5;" x="29.6609375" xlink:href="#m5aaf488d15" y="390.546598596"/>
      </g>
     </g>
     <g id="text_5">
      <!-- -0.8 -->
      <defs>
       <path d="
M31.7812 34.625
Q24.75 34.625 20.7188 30.8594
Q16.7031 27.0938 16.7031 20.5156
Q16.7031 13.9219 20.7188 10.1562
Q24.75 6.39062 31.7812 6.39062
Q38.8125 6.39062 42.8594 10.1719
Q46.9219 13.9688 46.9219 20.5156
Q46.9219 27.0938 42.8906 30.8594
Q38.875 34.625 31.7812 34.625
M21.9219 38.8125
Q15.5781 40.375 12.0312 44.7188
Q8.5 49.0781 8.5 55.3281
Q8.5 64.0625 14.7188 69.1406
Q20.9531 74.2188 31.7812 74.2188
Q42.6719 74.2188 48.875 69.1406
Q55.0781 64.0625 55.0781 55.3281
Q55.0781 49.0781 51.5312 44.7188
Q48 40.375 41.7031 38.8125
Q48.8281 37.1562 52.7969 32.3125
Q56.7812 27.4844 56.7812 20.5156
Q56.7812 9.90625 50.3125 4.23438
Q43.8438 -1.42188 31.7812 -1.42188
Q19.7344 -1.42188 13.25 4.23438
Q6.78125 9.90625 6.78125 20.5156
Q6.78125 27.4844 10.7812 32.3125
Q14.7969 37.1562 21.9219 38.8125
M18.3125 54.3906
Q18.3125 48.7344 21.8438 45.5625
Q25.3906 42.3906 31.7812 42.3906
Q38.1406 42.3906 41.7188 45.5625
Q45.3125 48.7344 45.3125 54.3906
Q45.3125 60.0625 41.7188 63.2344
Q38.1406 66.4062 31.7812 66.4062
Q25.3906 66.4062 21.8438 63.2344
Q18.3125 60.0625 18.3125 54.3906" id="BitstreamVeraSans-Roman-38"/>
       <path d="
M10.6875 12.4062
L21 12.4062
L21 0
L10.6875 0
z
" id="BitstreamVeraSans-Roman-2e"/>
       <path d="
M4.89062 31.3906
L31.2031 31.3906
L31.2031 23.3906
L4.89062 23.3906
z
" id="BitstreamVeraSans-Roman-2d"/>
      </defs>
      <g transform="translate(7.3234375 394.186442346)scale(0.1 -0.1)">
       <use xlink:href="#BitstreamVeraSans-Roman-2d"/>
       <use x="36.083984375" xlink:href="#BitstreamVeraSans-Roman-30"/>
       <use x="99.70703125" xlink:href="#BitstreamVeraSans-Roman-2e"/>
       <use x="131.494140625" xlink:href="#BitstreamVeraSans-Roman-38"/>
      </g>
     </g>
    </g>
    <g id="ytick_2">
     <g id="line2d_23">
      <defs>
       <path d="
M0 0
L4 0" id="m5aaf488d15"/>
      </defs>
      <g>
       <use style="stroke:#000000;stroke-linecap:butt;stroke-width:0.5;" x="29.6609375" xlink:href="#m5aaf488d15" y="335.721351857"/>
      </g>
     </g>
     <g id="text_6">
      <!-- -0.6 -->
      <defs>
       <path d="
M33.0156 40.375
Q26.375 40.375 22.4844 35.8281
Q18.6094 31.2969 18.6094 23.3906
Q18.6094 15.5312 22.4844 10.9531
Q26.375 6.39062 33.0156 6.39062
Q39.6562 6.39062 43.5312 10.9531
Q47.4062 15.5312 47.4062 23.3906
Q47.4062 31.2969 43.5312 35.8281
Q39.6562 40.375 33.0156 40.375
M52.5938 71.2969
L52.5938 62.3125
Q48.875 64.0625 45.0938 64.9844
Q41.3125 65.9219 37.5938 65.9219
Q27.8281 65.9219 22.6719 59.3281
Q17.5312 52.7344 16.7969 39.4062
Q19.6719 43.6562 24.0156 45.9219
Q28.375 48.1875 33.5938 48.1875
Q44.5781 48.1875 50.9531 41.5156
Q57.3281 34.8594 57.3281 23.3906
Q57.3281 12.1562 50.6875 5.35938
Q44.0469 -1.42188 33.0156 -1.42188
Q20.3594 -1.42188 13.6719 8.26562
Q6.98438 17.9688 6.98438 36.375
Q6.98438 53.6562 15.1875 63.9375
Q23.3906 74.2188 37.2031 74.2188
Q40.9219 74.2188 44.7031 73.4844
Q48.4844 72.75 52.5938 71.2969" id="BitstreamVeraSans-Roman-36"/>
      </defs>
      <g transform="translate(7.26875 339.361195607)scale(0.1 -0.1)">
       <use xlink:href="#BitstreamVeraSans-Roman-2d"/>
       <use x="36.083984375" xlink:href="#BitstreamVeraSans-Roman-30"/>
       <use x="99.70703125" xlink:href="#BitstreamVeraSans-Roman-2e"/>
       <use x="131.494140625" xlink:href="#BitstreamVeraSans-Roman-36"/>
      </g>
     </g>
    </g>
    <g id="ytick_3">
     <g id="line2d_24">
      <defs>
       <path d="
M0 0
L4 0" id="m5aaf488d15"/>
      </defs>
      <g>
       <use style="stroke:#000000;stroke-linecap:butt;stroke-width:0.5;" x="29.6609375" xlink:href="#m5aaf488d15" y="280.896105118"/>
      </g>
     </g>
     <g id="text_7">
      <!-- -0.4 -->
      <defs>
       <path d="
M37.7969 64.3125
L12.8906 25.3906
L37.7969 25.3906
z

M35.2031 72.9062
L47.6094 72.9062
L47.6094 25.3906
L58.0156 25.3906
L58.0156 17.1875
L47.6094 17.1875
L47.6094 0
L37.7969 0
L37.7969 17.1875
L4.89062 17.1875
L4.89062 26.7031
z
" id="BitstreamVeraSans-Roman-34"/>
      </defs>
      <g transform="translate(7.2 284.535948868)scale(0.1 -0.1)">
       <use xlink:href="#BitstreamVeraSans-Roman-2d"/>
       <use x="36.083984375" xlink:href="#BitstreamVeraSans-Roman-30"/>
       <use x="99.70703125" xlink:href="#BitstreamVeraSans-Roman-2e"/>
       <use x="131.494140625" xlink:href="#BitstreamVeraSans-Roman-34"/>
      </g>
     </g>
    </g>
    <g id="ytick_4">
     <g id="line2d_25">
      <defs>
       <path d="
M0 0
L4 0" id="m5aaf488d15"/>
      </defs>
      <g>
       <use style="stroke:#000000;stroke-linecap:butt;stroke-width:0.5;" x="29.6609375" xlink:href="#m5aaf488d15" y="226.07085838"/>
      </g>
     </g>
     <g id="text_8">
      <!-- -0.2 -->
      <g transform="translate(7.640625 229.71070213)scale(0.1 -0.1)">
       <use xlink:href="#BitstreamVeraSans-Roman-2d"/>
       <use x="36.083984375" xlink:href="#BitstreamVeraSans-Roman-30"/>
       <use x="99.70703125" xlink:href="#BitstreamVeraSans-Roman-2e"/>
       <use x="131.494140625" xlink:href="#BitstreamVeraSans-Roman-32"/>
      </g>
     </g>
    </g>
    <g id="ytick_5">
     <g id="line2d_26">
      <defs>
       <path d="
M0 0
L4 0" id="m5aaf488d15"/>
      </defs>
      <g>
       <use style="stroke:#000000;stroke-linecap:butt;stroke-width:0.5;" x="29.6609375" xlink:href="#m5aaf488d15" y="171.245611641"/>
      </g>
     </g>
     <g id="text_9">
      <!-- 0 -->
      <g transform="translate(20.621875 174.885455391)scale(0.1 -0.1)">
       <use xlink:href="#BitstreamVeraSans-Roman-30"/>
      </g>
     </g>
    </g>
    <g id="ytick_6">
     <g id="line2d_27">
      <defs>
       <path d="
M0 0
L4 0" id="m5aaf488d15"/>
      </defs>
      <g>
       <use style="stroke:#000000;stroke-linecap:butt;stroke-width:0.5;" x="29.6609375" xlink:href="#m5aaf488d15" y="116.420364903"/>
      </g>
     </g>
     <g id="text_10">
      <!-- 0.2 -->
      <g transform="translate(11.41875 120.060208653)scale(0.1 -0.1)">
       <use xlink:href="#BitstreamVeraSans-Roman-30"/>
       <use x="63.623046875" xlink:href="#BitstreamVeraSans-Roman-2e"/>
       <use x="95.41015625" xlink:href="#BitstreamVeraSans-Roman-32"/>
      </g>
     </g>
    </g>
    <g id="ytick_7">
     <g id="line2d_28">
      <defs>
       <path d="
M0 0
L4 0" id="m5aaf488d15"/>
      </defs>
      <g>
       <use style="stroke:#000000;stroke-linecap:butt;stroke-width:0.5;" x="29.6609375" xlink:href="#m5aaf488d15" y="61.595118164"/>
      </g>
     </g>
     <g id="text_11">
      <!-- 0.4 -->
      <g transform="translate(10.978125 65.234961914)scale(0.1 -0.1)">
       <use xlink:href="#BitstreamVeraSans-Roman-30"/>
       <use x="63.623046875" xlink:href="#BitstreamVeraSans-Roman-2e"/>
       <use x="95.41015625" xlink:href="#BitstreamVeraSans-Roman-34"/>
      </g>
     </g>
    </g>
    <g id="ytick_8">
     <g id="line2d_29">
      <defs>
       <path d="
M0 0
L2 0" id="m0d921daf71"/>
      </defs>
      <g>
       <use style="stroke:#000000;stroke-linecap:butt;stroke-width:0.5;" x="29.6609375" xlink:href="#m0d921daf71" y="404.25291028"/>
      </g>
     </g>
    </g>
    <g id="ytick_9">
     <g id="line2d_30">
      <defs>
       <path d="
M0 0
L2 0" id="m0d921daf71"/>
      </defs>
      <g>
       <use style="stroke:#000000;stroke-linecap:butt;stroke-width:0.5;" x="29.6609375" xlink:href="#m0d921daf71" y="376.840286911"/>
      </g>
     </g>
    </g>
    <g id="ytick_10">
     <g id="line2d_31">
      <defs>
       <path d="
M0 0
L2 0" id="m0d921daf71"/>
      </defs>
      <g>
       <use style="stroke:#000000;stroke-linecap:butt;stroke-width:0.5;" x="29.6609375" xlink:href="#m0d921daf71" y="363.133975226"/>
      </g>
     </g>
    </g>
    <g id="ytick_11">
     <g id="line2d_32">
      <defs>
       <path d="
M0 0
L2 0" id="m0d921daf71"/>
      </defs>
      <g>
       <use style="stroke:#000000;stroke-linecap:butt;stroke-width:0.5;" x="29.6609375" xlink:href="#m0d921daf71" y="349.427663542"/>
      </g>
     </g>
    </g>
    <g id="ytick_12">
     <g id="line2d_33">
      <defs>
       <path d="
M0 0
L2 0" id="m0d921daf71"/>
      </defs>
      <g>
       <use style="stroke:#000000;stroke-linecap:butt;stroke-width:0.5;" x="29.6609375" xlink:href="#m0d921daf71" y="322.015040172"/>
      </g>
     </g>
    </g>
    <g id="ytick_13">
     <g id="line2d_34">
      <defs>
       <path d="
M0 0
L2 0" id="m0d921daf71"/>
      </defs>
      <g>
       <use style="stroke:#000000;stroke-linecap:butt;stroke-width:0.5;" x="29.6609375" xlink:href="#m0d921daf71" y="308.308728488"/>
      </g>
     </g>
    </g>
    <g id="ytick_14">
     <g id="line2d_35">
      <defs>
       <path d="
M0 0
L2 0" id="m0d921daf71"/>
      </defs>
      <g>
       <use style="stroke:#000000;stroke-linecap:butt;stroke-width:0.5;" x="29.6609375" xlink:href="#m0d921daf71" y="294.602416803"/>
      </g>
     </g>
    </g>
    <g id="ytick_15">
     <g id="line2d_36">
      <defs>
       <path d="
M0 0
L2 0" id="m0d921daf71"/>
      </defs>
      <g>
       <use style="stroke:#000000;stroke-linecap:butt;stroke-width:0.5;" x="29.6609375" xlink:href="#m0d921daf71" y="267.189793434"/>
      </g>
     </g>
    </g>
    <g id="ytick_16">
     <g id="line2d_37">
      <defs>
       <path d="
M0 0
L2 0" id="m0d921daf71"/>
      </defs>
      <g>
       <use style="stroke:#000000;stroke-linecap:butt;stroke-width:0.5;" x="29.6609375" xlink:href="#m0d921daf71" y="253.483481749"/>
      </g>
     </g>
    </g>
    <g id="ytick_17">
     <g id="line2d_38">
      <defs>
       <path d="
M0 0
L2 0" id="m0d921daf71"/>
      </defs>
      <g>
       <use style="stroke:#000000;stroke-linecap:butt;stroke-width:0.5;" x="29.6609375" xlink:href="#m0d921daf71" y="239.777170064"/>
      </g>
     </g>
    </g>
    <g id="ytick_18">
     <g id="line2d_39">
      <defs>
       <path d="
M0 0
L2 0" id="m0d921daf71"/>
      </defs>
      <g>
       <use style="stroke:#000000;stroke-linecap:butt;stroke-width:0.5;" x="29.6609375" xlink:href="#m0d921daf71" y="212.364546695"/>
      </g>
     </g>
    </g>
    <g id="ytick_19">
     <g id="line2d_40">
      <defs>
       <path d="
M0 0
L2 0" id="m0d921daf71"/>
      </defs>
      <g>
       <use style="stroke:#000000;stroke-linecap:butt;stroke-width:0.5;" x="29.6609375" xlink:href="#m0d921daf71" y="198.65823501"/>
      </g>
     </g>
    </g>
    <g id="ytick_20">
     <g id="line2d_41">
      <defs>
       <path d="
M0 0
L2 0" id="m0d921daf71"/>
      </defs>
      <g>
       <use style="stroke:#000000;stroke-linecap:butt;stroke-width:0.5;" x="29.6609375" xlink:href="#m0d921daf71" y="184.951923326"/>
      </g>
     </g>
    </g>
    <g id="ytick_21">
     <g id="line2d_42">
      <defs>
       <path d="
M0 0
L2 0" id="m0d921daf71"/>
      </defs>
      <g>
       <use style="stroke:#000000;stroke-linecap:butt;stroke-width:0.5;" x="29.6609375" xlink:href="#m0d921daf71" y="157.539299957"/>
      </g>
     </g>
    </g>
    <g id="ytick_22">
     <g id="line2d_43">
      <defs>
       <path d="
M0 0
L2 0" id="m0d921daf71"/>
      </defs>
      <g>
       <use style="stroke:#000000;stroke-linecap:butt;stroke-width:0.5;" x="29.6609375" xlink:href="#m0d921daf71" y="143.832988272"/>
      </g>
     </g>
    </g>
    <g id="ytick_23">
     <g id="line2d_44">
      <defs>
       <path d="
M0 0
L2 0" id="m0d921daf71"/>
      </defs>
      <g>
       <use style="stroke:#000000;stroke-linecap:butt;stroke-width:0.5;" x="29.6609375" xlink:href="#m0d921daf71" y="130.126676587"/>
      </g>
     </g>
    </g>
    <g id="ytick_24">
     <g id="line2d_45">
      <defs>
       <path d="
M0 0
L2 0" id="m0d921daf71"/>
      </defs>
      <g>
       <use style="stroke:#000000;stroke-linecap:butt;stroke-width:0.5;" x="29.6609375" xlink:href="#m0d921daf71" y="102.714053218"/>
      </g>
     </g>
    </g>
    <g id="ytick_25">
     <g id="line2d_46">
      <defs>
       <path d="
M0 0
L2 0" id="m0d921daf71"/>
      </defs>
      <g>
       <use style="stroke:#000000;stroke-linecap:butt;stroke-width:0.5;" x="29.6609375" xlink:href="#m0d921daf71" y="89.0077415333"/>
      </g>
     </g>
    </g>
    <g id="ytick_26">
     <g id="line2d_47">
      <defs>
       <path d="
M0 0
L2 0" id="m0d921daf71"/>
      </defs>
      <g>
       <use style="stroke:#000000;stroke-linecap:butt;stroke-width:0.5;" x="29.6609375" xlink:href="#m0d921daf71" y="75.3014298486"/>
      </g>
     </g>
    </g>
    <g id="ytick_27">
     <g id="line2d_48">
      <defs>
       <path d="
M0 0
L2 0" id="m0d921daf71"/>
      </defs>
      <g>
       <use style="stroke:#000000;stroke-linecap:butt;stroke-width:0.5;" x="29.6609375" xlink:href="#m0d921daf71" y="47.8888064793"/>
      </g>
     </g>
    </g>
    <g id="ytick_28">
     <g id="line2d_49">
      <defs>
       <path d="
M0 0
L2 0" id="m0d921daf71"/>
      </defs>
      <g>
       <use style="stroke:#000000;stroke-linecap:butt;stroke-width:0.5;" x="29.6609375" xlink:href="#m0d921daf71" y="34.1824947947"/>
      </g>
     </g>
    </g>
   </g>
   <g id="patch_3">
    <path d="
M39.6609 171.246
L557.305 171.246" style="fill:none;stroke:#000000;stroke-width:0.8;"/>
   </g>
   <g id="patch_4">
    <path d="
M29.6609 413.28
L29.6609 7.2" style="fill:none;stroke:#000000;stroke-width:0.8;"/>
   </g>
  </g>
 </g>
 <defs>
  <clipPath id="pc338702c0a">
   <rect height="406.08" width="517.6440625" x="39.6609375" y="7.2"/>
  </clipPath>
 </defs>
</svg>
